<?xml version="1.0" encoding="UTF-8"?>
<!DOCTYPE svg PUBLIC "-//W3C//DTD SVG 1.1//EN" "http://www.w3.org/Graphics/SVG/1.1/DTD/svg11.dtd">
<!-- Creator: CorelDRAW 2018 (64-Bit) -->
<svg xmlns="http://www.w3.org/2000/svg" xml:space="preserve" width="16px" height="16px" version="1.1" style="shape-rendering:geometricPrecision; text-rendering:geometricPrecision; image-rendering:optimizeQuality; fill-rule:evenodd; clip-rule:evenodd"
viewBox="0 0 0.423 0.423"
 xmlns:xlink="http://www.w3.org/1999/xlink">
 <defs>
  <style type="text/css">
   <![CDATA[
    .fil0 {fill:#FFE552;fill-rule:nonzero}
   ]]>
  </style>
 </defs>
 <g id="Layer_x0020_1">
  <metadata id="CorelCorpID_0Corel-Layer"/>
  <path class="fil0" d="M0.211 0c0.059,0 0.112,0.024 0.15,0.062 0.038,0.038 0.062,0.091 0.062,0.149 0,0.059 -0.024,0.112 -0.062,0.15 -0.038,0.038 -0.091,0.062 -0.15,0.062 -0.058,0 -0.111,-0.024 -0.149,-0.062 -0.038,-0.038 -0.062,-0.091 -0.062,-0.15 0,-0.058 0.024,-0.111 0.062,-0.149 0.038,-0.038 0.091,-0.062 0.149,-0.062zm0.113 0.099c-0.029,-0.028 -0.069,-0.046 -0.113,-0.046 -0.043,0 -0.083,0.018 -0.112,0.046 -0.028,0.029 -0.046,0.069 -0.046,0.112 0,0.044 0.018,0.084 0.046,0.113 0.029,0.028 0.069,0.046 0.112,0.046 0.044,0 0.084,-0.018 0.113,-0.046 0.028,-0.029 0.046,-0.069 0.046,-0.113 0,-0.043 -0.018,-0.083 -0.046,-0.112z"/>
 </g>
</svg>
