<?xml version="1.0" encoding="UTF-8"?>
<!DOCTYPE svg PUBLIC "-//W3C//DTD SVG 1.1//EN" "http://www.w3.org/Graphics/SVG/1.1/DTD/svg11.dtd">
<!-- Creator: CorelDRAW 2018 (64-Bit) -->
<svg xmlns="http://www.w3.org/2000/svg" xml:space="preserve" width="16px" height="16px" version="1.1" style="shape-rendering:geometricPrecision; text-rendering:geometricPrecision; image-rendering:optimizeQuality; fill-rule:evenodd; clip-rule:evenodd"
viewBox="0 0 0.773 0.773"
 xmlns:xlink="http://www.w3.org/1999/xlink">
 <defs>
  <style type="text/css">
   <![CDATA[
    .fil0 {fill:#9666C9;fill-rule:nonzero}
   ]]>
  </style>
 </defs>
 <g id="Layer_x0020_1">
  <metadata id="CorelCorpID_0Corel-Layer"/>
  <path class="fil0" d="M0.386 0c0.107,0 0.203,0.043 0.273,0.113 0.07,0.07 0.114,0.167 0.114,0.273 0,0.107 -0.044,0.203 -0.114,0.273l0 0c-0.07,0.07 -0.166,0.114 -0.273,0.114 -0.106,0 -0.203,-0.044 -0.273,-0.114l0 0c-0.07,-0.069 -0.113,-0.166 -0.113,-0.273 0,-0.106 0.043,-0.203 0.113,-0.273 0.07,-0.07 0.167,-0.113 0.273,-0.113zm0.205 0.182c-0.052,-0.052 -0.125,-0.085 -0.205,-0.085 -0.08,0 -0.152,0.033 -0.204,0.085l0 0c-0.052,0.052 -0.085,0.125 -0.085,0.204 0,0.08 0.033,0.152 0.085,0.205 0.052,0.052 0.124,0.084 0.204,0.084 0.08,0 0.153,-0.032 0.205,-0.084 0.052,-0.052 0.084,-0.125 0.084,-0.205 0,-0.079 -0.032,-0.152 -0.084,-0.204l0 0z"/>
 </g>
</svg>
