<?xml version="1.0" encoding="UTF-8"?>
<!DOCTYPE svg PUBLIC "-//W3C//DTD SVG 1.1//EN" "http://www.w3.org/Graphics/SVG/1.1/DTD/svg11.dtd">
<!-- Creator: CorelDRAW 2018 (64-Bit) -->
<svg xmlns="http://www.w3.org/2000/svg" xml:space="preserve" width="16px" height="16px" version="1.1" style="shape-rendering:geometricPrecision; text-rendering:geometricPrecision; image-rendering:optimizeQuality; fill-rule:evenodd; clip-rule:evenodd"
viewBox="0 0 2.431 2.431"
 xmlns:xlink="http://www.w3.org/1999/xlink">
 <defs>
  <style type="text/css">
   <![CDATA[
    .fil0 {fill:#5682FC;fill-rule:nonzero}
   ]]>
  </style>
 </defs>
 <g id="Layer_x0020_1">
  <metadata id="CorelCorpID_0Corel-Layer"/>
  <path class="fil0" d="M1.215 0c0.335,0 0.639,0.136 0.859,0.356 0.221,0.22 0.357,0.524 0.357,0.859 0,0.335 -0.136,0.639 -0.356,0.859l-0.001 0.001c-0.22,0.22 -0.524,0.356 -0.859,0.356 -0.335,0 -0.639,-0.136 -0.858,-0.356l-0.001 0c-0.22,-0.22 -0.356,-0.524 -0.356,-0.86 0,-0.335 0.136,-0.639 0.356,-0.859 0.221,-0.22 0.524,-0.356 0.859,-0.356zm0.643 0.572c-0.164,-0.164 -0.391,-0.266 -0.643,-0.266 -0.251,0 -0.479,0.102 -0.643,0.266l0 0c-0.164,0.165 -0.266,0.392 -0.266,0.643 0,0.251 0.102,0.479 0.266,0.643 0.164,0.165 0.392,0.267 0.643,0.267 0.252,0 0.479,-0.102 0.644,-0.266 0.164,-0.165 0.266,-0.392 0.266,-0.644 0,-0.251 -0.102,-0.478 -0.267,-0.643l0 0z"/>
 </g>
</svg>
