<?xml version="1.0" encoding="UTF-8"?>
<!DOCTYPE svg PUBLIC "-//W3C//DTD SVG 1.1//EN" "http://www.w3.org/Graphics/SVG/1.1/DTD/svg11.dtd">
<!-- Creator: CorelDRAW 2018 (64-Bit) -->
<svg xmlns="http://www.w3.org/2000/svg" xml:space="preserve" width="16px" height="16px" version="1.1" style="shape-rendering:geometricPrecision; text-rendering:geometricPrecision; image-rendering:optimizeQuality; fill-rule:evenodd; clip-rule:evenodd"
viewBox="0 0 2.075 2.075"
 xmlns:xlink="http://www.w3.org/1999/xlink">
 <defs>
  <style type="text/css">
   <![CDATA[
    .fil0 {fill:#FF9452;fill-rule:nonzero}
   ]]>
  </style>
 </defs>
 <g id="Layer_x0020_1">
  <metadata id="CorelCorpID_0Corel-Layer"/>
  <path class="fil0" d="M1.038 0c0.286,0 0.546,0.116 0.733,0.304 0.188,0.188 0.304,0.447 0.304,0.734 0,0.286 -0.116,0.546 -0.304,0.733 -0.188,0.188 -0.447,0.304 -0.733,0.304 -0.286,0 -0.546,-0.116 -0.734,-0.304 -0.188,-0.187 -0.304,-0.447 -0.304,-0.733 0,-0.287 0.116,-0.546 0.304,-0.734l0 0c0.188,-0.188 0.447,-0.304 0.734,-0.304zm0.549 0.489c-0.141,-0.141 -0.335,-0.228 -0.549,-0.228 -0.215,0 -0.409,0.087 -0.549,0.228 -0.141,0.14 -0.228,0.334 -0.228,0.549 0,0.214 0.087,0.408 0.228,0.549l0 0c0.14,0.14 0.334,0.227 0.549,0.227 0.214,0 0.408,-0.087 0.549,-0.227l0 0c0.14,-0.141 0.227,-0.335 0.227,-0.549 0,-0.215 -0.087,-0.409 -0.227,-0.549z"/>
 </g>
</svg>
