<?xml version="1.0" encoding="UTF-8"?>
<!DOCTYPE svg PUBLIC "-//W3C//DTD SVG 1.1//EN" "http://www.w3.org/Graphics/SVG/1.1/DTD/svg11.dtd">
<!-- Creator: CorelDRAW 2018 (64-Bit) -->
<svg xmlns="http://www.w3.org/2000/svg" xml:space="preserve" width="16px" height="16px" version="1.1" style="shape-rendering:geometricPrecision; text-rendering:geometricPrecision; image-rendering:optimizeQuality; fill-rule:evenodd; clip-rule:evenodd"
viewBox="0 0 0.635 0.635"
 xmlns:xlink="http://www.w3.org/1999/xlink">
 <defs>
  <style type="text/css">
   <![CDATA[
    .fil0 {fill:#CCCCCC;fill-rule:nonzero}
   ]]>
  </style>
 </defs>
 <g id="Layer_x0020_1">
  <metadata id="CorelCorpID_0Corel-Layer"/>
  <path class="fil0" d="M0.317 0c0.088,0 0.167,0.036 0.225,0.093 0.057,0.057 0.093,0.137 0.093,0.224 0,0.088 -0.036,0.167 -0.093,0.225l-0.003 0.002c-0.057,0.056 -0.135,0.091 -0.222,0.091 -0.087,0 -0.166,-0.036 -0.224,-0.093 -0.057,-0.058 -0.093,-0.137 -0.093,-0.225 0,-0.087 0.036,-0.167 0.093,-0.224l0 0c0.057,-0.057 0.137,-0.093 0.224,-0.093zm0.168 0.149c-0.043,-0.043 -0.102,-0.069 -0.168,-0.069 -0.065,0 -0.125,0.026 -0.168,0.069 -0.043,0.043 -0.069,0.103 -0.069,0.168 0,0.066 0.026,0.125 0.069,0.168l0 0c0.043,0.043 0.103,0.07 0.168,0.07 0.065,0 0.124,-0.026 0.166,-0.068l0.002 -0.002c0.043,-0.043 0.07,-0.102 0.07,-0.168 0,-0.065 -0.027,-0.125 -0.07,-0.168z"/>
 </g>
</svg>
