<?xml version="1.0" encoding="UTF-8"?>
<!DOCTYPE svg PUBLIC "-//W3C//DTD SVG 1.1//EN" "http://www.w3.org/Graphics/SVG/1.1/DTD/svg11.dtd">
<!-- Creator: CorelDRAW 2018 (64-Bit) -->
<svg xmlns="http://www.w3.org/2000/svg" xml:space="preserve" width="21px" height="16px" version="1.1" style="shape-rendering:geometricPrecision; text-rendering:geometricPrecision; image-rendering:optimizeQuality; fill-rule:evenodd; clip-rule:evenodd"
viewBox="0 0 0.399 0.298"
 xmlns:xlink="http://www.w3.org/1999/xlink">
 <defs>
  <style type="text/css">
   <![CDATA[
    .fil2 {fill:#00F4FF}
    .fil0 {fill:#CCCCCC}
    .fil4 {fill:white}
    .fil3 {fill:#00F4FF;fill-rule:nonzero}
    .fil1 {fill:#CCCCCC;fill-rule:nonzero}
    .fil5 {fill:white;fill-rule:nonzero}
   ]]>
  </style>
 </defs>
 <g id="Layer_x0020_1">
  <metadata id="CorelCorpID_0Corel-Layer"/>
  <g id="_2712934237824">
   <path class="fil0" d="M0.234 0.037c-0.024,-0.017 -0.056,-0.028 -0.092,-0.028 -0.073,0 -0.133,0.046 -0.133,0.102 0,0.032 0.02,0.061 0.051,0.08l-0.004 0.056 0.041 -0.041c0.013,0.004 0.027,0.006 0.042,0.006l0.095 -0.175z"/>
   <path class="fil1" d="M0.222 0.04c-0.01,-0.006 -0.021,-0.011 -0.033,-0.014 -0.014,-0.005 -0.03,-0.007 -0.047,-0.007 -0.034,0 -0.065,0.011 -0.088,0.028 -0.022,0.016 -0.035,0.039 -0.035,0.064 0,0.014 0.004,0.027 0.012,0.039 0.008,0.013 0.02,0.024 0.034,0.033 0.003,0.001 0.005,0.005 0.005,0.008l-0.003 0.031 0.023 -0.023c0.003,-0.002 0.007,-0.003 0.01,-0.002 0.006,0.002 0.012,0.003 0.019,0.004 0.005,0.001 0.01,0.001 0.014,0.002l0.089 -0.163zm-0.028 -0.032c0.017,0.005 0.033,0.012 0.046,0.022 0.003,0.002 0.005,0.008 0.002,0.012l-0.095 0.174c-0.001,0.004 -0.004,0.006 -0.008,0.006 -0.008,0 -0.016,-0.001 -0.023,-0.002 -0.006,-0.001 -0.011,-0.002 -0.016,-0.003l-0.037 0.037c-0.002,0.001 -0.005,0.003 -0.008,0.002 -0.005,0 -0.009,-0.005 -0.009,-0.01l0.005 -0.05c-0.015,-0.01 -0.027,-0.022 -0.036,-0.036 -0.01,-0.015 -0.015,-0.031 -0.015,-0.049 0,-0.031 0.016,-0.059 0.043,-0.079 0.025,-0.02 0.061,-0.032 0.099,-0.032 0.019,0 0.036,0.003 0.052,0.008z"/>
   <path class="fil2" d="M0.25 0.039c0.077,0 0.139,0.047 0.139,0.106 0,0.034 -0.021,0.065 -0.053,0.084l0.005 0.059 -0.043 -0.043c-0.015,0.004 -0.032,0.007 -0.048,0.007 -0.078,0 -0.14,-0.048 -0.14,-0.107 0,-0.059 0.062,-0.106 0.14,-0.106z"/>
   <path class="fil3" d="M0.25 0.029c0.04,0 0.077,0.013 0.104,0.033 0.028,0.021 0.045,0.051 0.045,0.083 0,0.019 -0.006,0.036 -0.016,0.052 -0.009,0.014 -0.022,0.027 -0.037,0.037l0.004 0.053c0,0.006 -0.003,0.01 -0.009,0.011 -0.003,0 -0.005,-0.001 -0.007,-0.003l-0.039 -0.039c-0.006,0.001 -0.013,0.003 -0.02,0.004 -0.008,0.001 -0.017,0.001 -0.025,0.001 -0.041,0 -0.078,-0.012 -0.105,-0.033 -0.028,-0.021 -0.045,-0.05 -0.045,-0.083 0,-0.032 0.017,-0.062 0.045,-0.083 0.027,-0.02 0.064,-0.033 0.105,-0.033zm0.093 0.048c-0.024,-0.018 -0.057,-0.029 -0.093,-0.029 -0.037,0 -0.07,0.011 -0.094,0.029 -0.023,0.018 -0.037,0.042 -0.037,0.068 0,0.027 0.014,0.051 0.037,0.068 0.024,0.018 0.057,0.029 0.094,0.029 0.008,0 0.015,0 0.023,-0.001 0.007,-0.001 0.015,-0.003 0.022,-0.005 0.003,-0.001 0.007,0 0.009,0.003l0.025 0.024 -0.003 -0.033c0,-0.004 0.002,-0.007 0.005,-0.009 0.015,-0.009 0.028,-0.021 0.036,-0.034 0.008,-0.013 0.013,-0.027 0.013,-0.042 0,-0.026 -0.014,-0.05 -0.037,-0.068z"/>
   <circle class="fil4" cx="0.186" cy="0.146" r="0.016"/>
   <path class="fil5" d="M0.186 0.124c0.006,0 0.011,0.003 0.015,0.007 0.004,0.003 0.006,0.009 0.006,0.015 0,0.005 -0.002,0.011 -0.006,0.015 -0.004,0.003 -0.009,0.006 -0.015,0.006 -0.006,0 -0.011,-0.003 -0.015,-0.006 -0.004,-0.004 -0.006,-0.01 -0.006,-0.015 0,-0.006 0.002,-0.012 0.006,-0.015 0.004,-0.004 0.009,-0.007 0.015,-0.007zm0.008 0.013c-0.002,-0.002 -0.005,-0.003 -0.008,-0.003 -0.003,0 -0.006,0.001 -0.008,0.003 -0.002,0.002 -0.004,0.005 -0.004,0.009 0,0.003 0.002,0.006 0.004,0.008 0.002,0.002 0.005,0.003 0.008,0.003 0.003,0 0.006,-0.001 0.008,-0.003 0.002,-0.002 0.004,-0.005 0.004,-0.008 0,-0.004 -0.002,-0.007 -0.004,-0.009z"/>
   <circle class="fil4" cx="0.25" cy="0.146" r="0.016"/>
   <path class="fil5" d="M0.25 0.124c0.005,0 0.011,0.003 0.014,0.007 0.004,0.003 0.007,0.009 0.007,0.015 0,0.005 -0.003,0.011 -0.007,0.015 -0.003,0.003 -0.009,0.006 -0.014,0.006 -0.006,0 -0.012,-0.003 -0.015,-0.006 -0.004,-0.004 -0.007,-0.01 -0.007,-0.015 0,-0.006 0.003,-0.012 0.007,-0.015 0.003,-0.004 0.009,-0.007 0.015,-0.007zm0.008 0.013c-0.002,-0.002 -0.005,-0.003 -0.008,-0.003 -0.004,0 -0.007,0.001 -0.009,0.003 -0.002,0.002 -0.003,0.005 -0.003,0.009 0,0.003 0.001,0.006 0.003,0.008 0.002,0.002 0.005,0.003 0.009,0.003 0.003,0 0.006,-0.001 0.008,-0.003 0.002,-0.002 0.003,-0.005 0.003,-0.008 0,-0.004 -0.001,-0.007 -0.003,-0.009z"/>
   <circle class="fil4" cx="0.313" cy="0.146" r="0.016"/>
   <path class="fil5" d="M0.313 0.124c0.006,0 0.011,0.003 0.015,0.007 0.004,0.003 0.006,0.009 0.006,0.015 0,0.005 -0.002,0.011 -0.006,0.015 -0.004,0.003 -0.009,0.006 -0.015,0.006 -0.006,0 -0.011,-0.003 -0.015,-0.006 -0.004,-0.004 -0.006,-0.01 -0.006,-0.015 0,-0.006 0.002,-0.012 0.006,-0.015 0.004,-0.004 0.009,-0.007 0.015,-0.007zm0.008 0.013c-0.002,-0.002 -0.005,-0.003 -0.008,-0.003 -0.003,0 -0.006,0.001 -0.008,0.003 -0.002,0.002 -0.003,0.005 -0.003,0.009 0,0.003 0.001,0.006 0.003,0.008 0.002,0.002 0.005,0.003 0.008,0.003 0.003,0 0.006,-0.001 0.008,-0.003 0.003,-0.002 0.004,-0.005 0.004,-0.008 0,-0.004 -0.001,-0.007 -0.004,-0.009z"/>
  </g>
 </g>
</svg>
