<?xml version="1.0" encoding="UTF-8"?>
<!DOCTYPE svg PUBLIC "-//W3C//DTD SVG 1.1//EN" "http://www.w3.org/Graphics/SVG/1.1/DTD/svg11.dtd">
<!-- Creator: CorelDRAW 2018 (64-Bit) -->
<svg xmlns="http://www.w3.org/2000/svg" xml:space="preserve" width="16px" height="16px" version="1.1" style="shape-rendering:geometricPrecision; text-rendering:geometricPrecision; image-rendering:optimizeQuality; fill-rule:evenodd; clip-rule:evenodd"
viewBox="0 0 0.506 0.504"
 xmlns:xlink="http://www.w3.org/1999/xlink">
 <defs>
  <style type="text/css">
   <![CDATA[
    .fil2 {fill:#5682FC;fill-rule:nonzero}
    .fil0 {fill:#9666C9;fill-rule:nonzero}
    .fil1 {fill:#FFE552;fill-rule:nonzero}
   ]]>
  </style>
 </defs>
 <g id="Layer_x0020_1">
  <metadata id="CorelCorpID_0Corel-Layer"/>
  <g id="_2081091913040">
   <path class="fil0" d="M0.02 0.349c-0.013,-0.03 -0.02,-0.063 -0.02,-0.098 0,-0.07 0.028,-0.133 0.074,-0.179 0.039,-0.039 0.09,-0.065 0.147,-0.072l0 0.064c-0.039,0.007 -0.075,0.026 -0.102,0.053l0 0c-0.034,0.034 -0.055,0.082 -0.055,0.134 0,0.023 0.004,0.046 0.011,0.066l-0.055 0.032z"/>
   <path class="fil1" d="M0.455 0.404c-0.007,0.009 -0.015,0.018 -0.023,0.026 -0.046,0.046 -0.109,0.074 -0.179,0.074 -0.07,0 -0.133,-0.028 -0.179,-0.074l0 0c-0.008,-0.008 -0.016,-0.017 -0.022,-0.026l0.055 -0.032c0.004,0.005 0.008,0.009 0.012,0.013l0 0c0.034,0.034 0.082,0.056 0.134,0.056 0.052,0 0.1,-0.022 0.134,-0.056l0 0c0.004,-0.004 0.008,-0.008 0.012,-0.013l0.056 0.032z"/>
   <path class="fil2" d="M0.285 0c0.057,0.007 0.108,0.033 0.147,0.072 0.046,0.046 0.074,0.109 0.074,0.179 0,0.035 -0.007,0.068 -0.02,0.098l-0.055 -0.032c0.007,-0.02 0.012,-0.043 0.012,-0.066 0,-0.052 -0.022,-0.1 -0.056,-0.134 -0.027,-0.027 -0.063,-0.046 -0.102,-0.053l0 -0.064z"/>
  </g>
 </g>
</svg>
