<?xml version="1.0" encoding="UTF-8"?>
<!DOCTYPE svg PUBLIC "-//W3C//DTD SVG 1.1//EN" "http://www.w3.org/Graphics/SVG/1.1/DTD/svg11.dtd">
<!-- Creator: CorelDRAW 2018 (64-Bit) -->
<svg xmlns="http://www.w3.org/2000/svg" xml:space="preserve" width="48px" height="48px" version="1.1" style="shape-rendering:geometricPrecision; text-rendering:geometricPrecision; image-rendering:optimizeQuality; fill-rule:evenodd; clip-rule:evenodd"
viewBox="0 0 4.596 4.596"
 xmlns:xlink="http://www.w3.org/1999/xlink">
 <defs>
  <style type="text/css">
   <![CDATA[
    .fil0 {fill:#052337}
    .fil1 {fill:#CCCCCC;fill-rule:nonzero}
   ]]>
  </style>
 </defs>
 <g id="Layer_x0020_1">
  <metadata id="CorelCorpID_0Corel-Layer"/>
  <g id="_2657290583920">
   <circle class="fil0" cx="2.298" cy="2.298" r="2.298"/>
   <g>
    <path class="fil1" d="M2.157 4.114c0.004,0.002 0.01,0.003 0.015,0.003 0.003,0 0.006,0 0.009,-0.001 0.002,0 0.005,-0.002 0.007,-0.003l0.001 0 0.011 -0.008 0.013 -0.006c0.081,-0.043 0.164,-0.068 0.251,-0.076 0.087,-0.008 0.177,0.001 0.271,0.028 0.008,0.002 0.016,0.001 0.023,-0.003l0 0c0.007,-0.004 0.012,-0.01 0.015,-0.018l0 0c0.002,-0.009 0.001,-0.017 -0.003,-0.024l0 0c-0.004,-0.007 -0.01,-0.012 -0.018,-0.014l0 0c-0.102,-0.029 -0.2,-0.039 -0.295,-0.03 -0.095,0.009 -0.186,0.036 -0.274,0.082l-0.014 0.008 -0.014 0.009c-0.007,0.004 -0.012,0.011 -0.013,0.019 -0.002,0.008 -0.001,0.016 0.004,0.023 0.003,0.005 0.006,0.008 0.011,0.011z"/>
    <path class="fil1" d="M1.768 3.999c0.116,-0.021 0.209,-0.07 0.287,-0.127 0.079,-0.058 0.143,-0.126 0.197,-0.184 0.069,-0.073 0.134,-0.142 0.191,-0.142 0.037,0 0.092,0.049 0.136,0.089l0 0c0.058,0.052 0.135,0.121 0.232,0.152 0.095,0.031 0.213,0.027 0.358,-0.063 0.007,-0.005 0.012,-0.012 0.014,-0.02 0.002,-0.007 0.001,-0.015 -0.003,-0.022l-0.001 -0.001c-0.005,-0.007 -0.011,-0.012 -0.019,-0.014 -0.007,-0.001 -0.015,0 -0.022,0.004l-0.002 0c-0.124,0.078 -0.222,0.085 -0.306,0.058 -0.083,-0.026 -0.147,-0.083 -0.21,-0.14 -0.031,-0.028 -0.062,-0.056 -0.093,-0.075 -0.027,-0.018 -0.054,-0.029 -0.084,-0.029 -0.041,0 -0.078,0.017 -0.114,0.044 -0.04,0.03 -0.08,0.072 -0.122,0.117l-0.001 0.001c-0.111,0.119 -0.237,0.252 -0.45,0.291 -0.008,0.002 -0.015,0.007 -0.019,0.013 -0.005,0.007 -0.007,0.015 -0.005,0.023 0.001,0.008 0.005,0.014 0.01,0.018 0.006,0.005 0.013,0.007 0.02,0.007l0.006 0z"/>
    <path class="fil1" d="M1.053 2.401c0.14,-0.009 0.225,-0.066 0.278,-0.146 0.056,-0.084 0.081,-0.194 0.099,-0.301 0.009,-0.052 0.025,-0.119 0.051,-0.192 0.02,-0.056 0.047,-0.115 0.081,-0.173 0.005,-0.008 0.006,-0.016 0.004,-0.024 -0.002,-0.007 -0.007,-0.014 -0.014,-0.019 -0.008,-0.004 -0.016,-0.005 -0.024,-0.003 -0.008,0.002 -0.015,0.007 -0.019,0.014 -0.036,0.061 -0.064,0.124 -0.086,0.183 -0.027,0.077 -0.044,0.148 -0.053,0.204 -0.021,0.121 -0.047,0.214 -0.093,0.28 -0.049,0.07 -0.12,0.108 -0.228,0.115 -0.008,0 -0.015,0.004 -0.021,0.01 -0.005,0.005 -0.008,0.012 -0.008,0.02l0 0.003c0.001,0.008 0.004,0.015 0.01,0.02 0.005,0.005 0.013,0.009 0.021,0.009l0 0 0.002 0z"/>
    <path class="fil1" d="M3.249 3.379c0.003,-0.008 0.003,-0.016 0.001,-0.024 -0.003,-0.007 -0.009,-0.013 -0.016,-0.017 -0.04,-0.018 -0.073,-0.041 -0.1,-0.067 -0.027,-0.027 -0.047,-0.058 -0.06,-0.094 -0.014,-0.04 -0.018,-0.081 -0.016,-0.118 0.003,-0.053 0.017,-0.1 0.029,-0.124 0.074,-0.156 0.139,-0.367 0.159,-0.589 0.015,-0.175 0.001,-0.355 -0.06,-0.518 -0.104,-0.257 -0.284,-0.453 -0.5,-0.567 -0.215,-0.113 -0.467,-0.145 -0.715,-0.075 -0.05,0.016 -0.098,0.036 -0.143,0.06 -0.044,0.024 -0.087,0.052 -0.126,0.084l0 0c-0.007,0.006 -0.01,0.013 -0.011,0.021 -0.001,0.008 0.001,0.016 0.007,0.022l0 0.001c0.005,0.006 0.013,0.01 0.021,0.011 0.008,0 0.016,-0.002 0.022,-0.007l0.001 0c0.036,-0.03 0.075,-0.056 0.115,-0.078 0.042,-0.022 0.085,-0.04 0.13,-0.054l0.001 -0.001c0.233,-0.065 0.47,-0.034 0.673,0.073 0.202,0.108 0.37,0.291 0.467,0.531l0 0.001c0.055,0.145 0.073,0.321 0.056,0.506 -0.017,0.184 -0.069,0.375 -0.153,0.552 -0.004,0.01 -0.031,0.069 -0.035,0.149 -0.002,0.043 0.002,0.092 0.02,0.142 0.015,0.042 0.039,0.08 0.071,0.112 0.032,0.033 0.072,0.061 0.121,0.083 0.001,0.001 0.004,0.002 0.006,0.002l0 0c0.002,0.001 0.004,0.001 0.007,0.001 0.006,0 0.012,-0.002 0.016,-0.005 0.005,-0.003 0.009,-0.007 0.012,-0.013z"/>
    <path class="fil1" d="M2.843 3.44c0.003,-0.008 0.002,-0.016 -0.001,-0.023 -0.003,-0.008 -0.009,-0.014 -0.017,-0.017 -0.091,-0.034 -0.126,-0.095 -0.121,-0.198 0.005,-0.088 0.043,-0.209 0.102,-0.378 0.048,-0.138 0.102,-0.293 0.127,-0.449 0.025,-0.153 0.022,-0.308 -0.04,-0.452 -0.077,-0.174 -0.2,-0.305 -0.345,-0.381 -0.144,-0.075 -0.31,-0.096 -0.475,-0.05 -0.119,0.037 -0.218,0.113 -0.291,0.219 -0.074,0.107 -0.122,0.245 -0.137,0.404 -0.006,0.071 -0.036,0.243 -0.167,0.378 -0.08,0.082 -0.198,0.151 -0.37,0.174 -0.008,0.001 -0.015,0.006 -0.02,0.012 -0.005,0.006 -0.007,0.014 -0.006,0.023 0.001,0.008 0.006,0.015 0.012,0.02 0.006,0.005 0.015,0.007 0.023,0.006l0 0c0.18,-0.024 0.313,-0.097 0.406,-0.194 0.114,-0.118 0.171,-0.271 0.184,-0.413 0.006,-0.067 0.03,-0.231 0.122,-0.369 0.057,-0.086 0.14,-0.163 0.261,-0.2l0.001 0c0.15,-0.043 0.302,-0.023 0.434,0.048 0.131,0.07 0.242,0.19 0.311,0.348 0.059,0.135 0.06,0.281 0.035,0.429 -0.025,0.145 -0.076,0.29 -0.124,0.427 -0.05,0.143 -0.1,0.289 -0.104,0.408 -0.003,0.11 0.036,0.199 0.16,0.246 0.002,0.001 0.004,0.001 0.005,0.002 0.002,0 0.004,0 0.006,0 0.006,0 0.012,-0.002 0.017,-0.005 0.005,-0.004 0.009,-0.009 0.012,-0.015z"/>
    <path class="fil1" d="M1.599 3.811c0.008,-0.003 0.014,-0.009 0.018,-0.016l0 0c0.003,-0.007 0.004,-0.016 0.001,-0.024 -0.007,-0.02 -0.011,-0.038 -0.012,-0.056 0,-0.019 0.003,-0.037 0.011,-0.052 0.027,-0.056 0.104,-0.08 0.145,-0.093l0.012 -0.004c0.287,-0.096 0.49,-0.299 0.627,-0.53 0.19,-0.322 0.251,-0.698 0.226,-0.917 -0.008,-0.066 -0.033,-0.131 -0.069,-0.186 -0.037,-0.056 -0.086,-0.102 -0.141,-0.132 -0.043,-0.023 -0.088,-0.036 -0.131,-0.037 -0.044,-0.002 -0.086,0.008 -0.126,0.028 -0.089,0.044 -0.135,0.101 -0.159,0.165 -0.026,0.066 -0.03,0.144 -0.035,0.224 -0.002,0.032 -0.003,0.064 -0.007,0.101 -0.003,0.035 -0.007,0.072 -0.014,0.11 -0.03,0.165 -0.13,0.305 -0.257,0.408 -0.141,0.113 -0.318,0.179 -0.474,0.179 -0.009,0 -0.016,0.004 -0.022,0.009 -0.005,0.006 -0.009,0.014 -0.009,0.022 0,0.009 0.004,0.017 0.009,0.022 0.006,0.006 0.013,0.009 0.022,0.009 0.171,0 0.363,-0.071 0.516,-0.195 0.137,-0.111 0.243,-0.263 0.276,-0.443 0.007,-0.04 0.012,-0.078 0.015,-0.114 0.003,-0.035 0.005,-0.071 0.007,-0.104 0.005,-0.088 0.01,-0.152 0.03,-0.205 0.022,-0.057 0.06,-0.098 0.129,-0.133 0.04,-0.02 0.079,-0.024 0.113,-0.02 0.034,0.004 0.064,0.016 0.087,0.028 0.048,0.026 0.09,0.066 0.12,0.113 0.031,0.047 0.052,0.101 0.058,0.158 0.02,0.166 -0.023,0.552 -0.215,0.881 -0.126,0.216 -0.317,0.407 -0.596,0.5l-0.01 0.004c-0.024,0.007 -0.061,0.019 -0.097,0.04 -0.034,0.019 -0.066,0.046 -0.085,0.084 -0.011,0.022 -0.017,0.046 -0.017,0.071 -0.001,0.027 0.004,0.055 0.015,0.086 0.002,0.006 0.006,0.011 0.011,0.015 0.005,0.003 0.011,0.005 0.018,0.005 0.002,0 0.004,0 0.005,0l0 0c0.002,0 0.004,-0.001 0.005,-0.001z"/>
    <path class="fil1" d="M1.368 3.372c0.098,-0.017 0.19,-0.042 0.275,-0.076 0.085,-0.034 0.163,-0.077 0.234,-0.127l0.001 -0.001c0.006,-0.005 0.01,-0.012 0.011,-0.019 0.001,-0.008 0,-0.016 -0.005,-0.023l-0.001 -0.001c-0.005,-0.007 -0.012,-0.011 -0.019,-0.012 -0.008,-0.001 -0.016,0.001 -0.023,0.006 -0.067,0.048 -0.142,0.088 -0.223,0.12 -0.08,0.032 -0.167,0.056 -0.26,0.072 -0.009,0.002 -0.016,0.006 -0.02,0.013 -0.005,0.006 -0.007,0.014 -0.006,0.023l0 0c0.002,0.007 0.005,0.014 0.011,0.018 0.005,0.005 0.012,0.008 0.02,0.008l0.005 -0.001z"/>
    <path class="fil1" d="M2.088 2.965c0.092,-0.118 0.152,-0.247 0.191,-0.375 0.052,-0.168 0.067,-0.334 0.067,-0.467 0,-0.009 -0.004,-0.016 -0.009,-0.022 -0.006,-0.005 -0.013,-0.009 -0.022,-0.009 -0.009,0 -0.016,0.004 -0.022,0.009 -0.005,0.006 -0.009,0.013 -0.009,0.022 0,0.126 -0.014,0.284 -0.062,0.445 -0.038,0.123 -0.095,0.247 -0.183,0.36 -0.005,0.006 -0.007,0.015 -0.006,0.022 0.001,0.008 0.005,0.016 0.011,0.021 0.003,0.002 0.006,0.004 0.009,0.005 0.003,0.001 0.007,0.001 0.01,0.001 0.005,0 0.01,-0.001 0.014,-0.003 0.004,-0.002 0.008,-0.005 0.011,-0.009z"/>
    <path class="fil1" d="M2.284 0.478l-0.056 0c-0.173,0.004 -0.346,0.042 -0.509,0.111 -0.162,0.068 -0.316,0.168 -0.451,0.296 -0.007,0.006 -0.01,0.013 -0.01,0.021 0,0.007 0.002,0.015 0.007,0.021l0.001 0.001c0.006,0.006 0.014,0.009 0.021,0.009 0.007,0 0.015,-0.002 0.021,-0.007l0.001 -0.001c0.15,-0.142 0.322,-0.247 0.505,-0.313 0.183,-0.065 0.376,-0.091 0.567,-0.072 0.16,0.013 0.311,0.053 0.453,0.118 0.141,0.065 0.272,0.156 0.391,0.271l0 0c0.003,0.003 0.006,0.005 0.01,0.006 0.003,0.002 0.007,0.003 0.011,0.003 0.004,0 0.008,-0.001 0.012,-0.003l0 0c0.003,-0.001 0.007,-0.003 0.01,-0.006l0 -0.001c0.006,-0.006 0.008,-0.013 0.008,-0.021 0,-0.007 -0.003,-0.015 -0.009,-0.021l0 0c-0.125,-0.121 -0.262,-0.215 -0.409,-0.283 -0.146,-0.068 -0.304,-0.109 -0.471,-0.122l-0.001 -0.001c-0.016,-0.001 -0.033,-0.003 -0.051,-0.004 -0.018,-0.001 -0.035,-0.001 -0.051,-0.002z"/>
    <path class="fil1" d="M3.407 3.165c0.068,-0.138 0.116,-0.283 0.143,-0.435 0.026,-0.151 0.033,-0.308 0.018,-0.47 -0.002,-0.014 -0.004,-0.027 -0.006,-0.041 -0.002,-0.014 -0.004,-0.027 -0.007,-0.042l0 -0.001c-0.002,-0.008 -0.006,-0.014 -0.012,-0.019 -0.007,-0.004 -0.015,-0.006 -0.023,-0.005 -0.009,0.002 -0.016,0.007 -0.02,0.013 -0.005,0.007 -0.007,0.015 -0.005,0.023l0 0c0.002,0.013 0.004,0.026 0.006,0.039 0.002,0.014 0.004,0.027 0.005,0.039l0 0.001c0.015,0.158 0.009,0.308 -0.016,0.452 -0.026,0.145 -0.072,0.283 -0.138,0.418 -0.004,0.008 -0.004,0.016 -0.002,0.024 0.003,0.007 0.008,0.014 0.016,0.018 0.002,0.001 0.004,0.002 0.006,0.002 0.003,0.001 0.005,0.001 0.007,0.001 0.006,0 0.012,-0.002 0.017,-0.005 0.005,-0.003 0.009,-0.007 0.011,-0.012z"/>
    <path class="fil1" d="M1.138 1.821c-0.004,0.016 -0.02,0.026 -0.036,0.022 -0.016,-0.004 -0.025,-0.02 -0.022,-0.036 0.074,-0.309 0.226,-0.554 0.423,-0.722 0.208,-0.178 0.466,-0.271 0.73,-0.264 0.283,0.008 0.544,0.079 0.764,0.242 0.22,0.164 0.397,0.418 0.512,0.793 0.005,0.016 -0.004,0.032 -0.02,0.037 -0.015,0.005 -0.032,-0.004 -0.037,-0.02 -0.11,-0.361 -0.28,-0.606 -0.49,-0.762 -0.209,-0.156 -0.459,-0.224 -0.73,-0.231 -0.25,-0.006 -0.494,0.081 -0.691,0.25 -0.187,0.16 -0.332,0.394 -0.403,0.691z"/>
   </g>
  </g>
 </g>
</svg>
