<?xml version="1.0" encoding="UTF-8"?>
<!DOCTYPE svg PUBLIC "-//W3C//DTD SVG 1.1//EN" "http://www.w3.org/Graphics/SVG/1.1/DTD/svg11.dtd">
<!-- Creator: CorelDRAW 2018 (64-Bit) -->
<svg xmlns="http://www.w3.org/2000/svg" xml:space="preserve" width="16px" height="16px" version="1.1" style="shape-rendering:geometricPrecision; text-rendering:geometricPrecision; image-rendering:optimizeQuality; fill-rule:evenodd; clip-rule:evenodd"
viewBox="0 0 2.968 2.945"
 xmlns:xlink="http://www.w3.org/1999/xlink">
 <defs>
  <style type="text/css">
   <![CDATA[
    .fil0 {fill:#5682FC;fill-rule:nonzero}
    .fil1 {fill:#9666C9;fill-rule:nonzero}
   ]]>
  </style>
 </defs>
 <g id="Layer_x0020_1">
  <metadata id="CorelCorpID_0Corel-Layer"/>
  <g id="_2081085535296">
   <path class="fil0" d="M1.298 2.945c-0.335,-0.042 -0.635,-0.196 -0.863,-0.423l0 -0.001c-0.269,-0.269 -0.435,-0.639 -0.435,-1.048 0,-0.41 0.166,-0.781 0.435,-1.05 0.228,-0.227 0.528,-0.381 0.863,-0.423l0 0.377c-0.233,0.039 -0.441,0.15 -0.6,0.309l0 0.001c-0.201,0.201 -0.325,0.479 -0.325,0.786 0,0.307 0.124,0.585 0.325,0.786l0 0c0.159,0.159 0.367,0.27 0.6,0.31l0 0.376z"/>
   <path class="fil1" d="M1.671 0c0.335,0.042 0.635,0.196 0.863,0.423 0.268,0.269 0.434,0.64 0.434,1.05 0,0.409 -0.166,0.78 -0.435,1.049 -0.227,0.227 -0.527,0.381 -0.862,0.423l0 -0.377c0.232,-0.039 0.44,-0.15 0.599,-0.309l0.001 0c0.2,-0.201 0.325,-0.479 0.325,-0.786 0,-0.307 -0.125,-0.585 -0.326,-0.786 -0.159,-0.16 -0.367,-0.271 -0.599,-0.31l0 -0.377z"/>
  </g>
 </g>
</svg>
