<?xml version="1.0" encoding="UTF-8"?>
<!DOCTYPE svg PUBLIC "-//W3C//DTD SVG 1.1//EN" "http://www.w3.org/Graphics/SVG/1.1/DTD/svg11.dtd">
<!-- Creator: CorelDRAW 2018 (64-Bit) -->
<svg xmlns="http://www.w3.org/2000/svg" xml:space="preserve" width="16px" height="16px" version="1.1" style="shape-rendering:geometricPrecision; text-rendering:geometricPrecision; image-rendering:optimizeQuality; fill-rule:evenodd; clip-rule:evenodd"
viewBox="0 0 0.228 0.228"
 xmlns:xlink="http://www.w3.org/1999/xlink">
 <defs>
  <style type="text/css">
   <![CDATA[
    .fil2 {fill:#5682FC;fill-rule:nonzero}
    .fil0 {fill:#CCCCCC;fill-rule:nonzero}
    .fil3 {fill:#FF8FB1;fill-rule:nonzero}
    .fil1 {fill:#FF9452;fill-rule:nonzero}
   ]]>
  </style>
 </defs>
 <g id="Layer_x0020_1">
  <metadata id="CorelCorpID_0Corel-Layer"/>
  <g id="_2118556675952">
   <path class="fil0" d="M0 0.1c0.003,-0.026 0.015,-0.05 0.033,-0.067 0.017,-0.018 0.041,-0.03 0.067,-0.033l0 0.029c-0.018,0.003 -0.035,0.012 -0.047,0.024l0 0c-0.012,0.012 -0.021,0.029 -0.024,0.047l-0.029 0z"/>
   <path class="fil1" d="M0.1 0.228c-0.026,-0.003 -0.05,-0.015 -0.067,-0.033l0 0c-0.018,-0.017 -0.03,-0.041 -0.033,-0.067l0.029 0c0.003,0.018 0.012,0.034 0.024,0.047l0 0c0.012,0.012 0.029,0.021 0.047,0.024l0 0.029z"/>
   <path class="fil2" d="M0.228 0.128c-0.003,0.026 -0.015,0.05 -0.033,0.067 -0.017,0.018 -0.041,0.03 -0.067,0.033l0 -0.029c0.018,-0.003 0.034,-0.012 0.047,-0.024l0 0c0.012,-0.013 0.021,-0.029 0.024,-0.047l0.029 0z"/>
   <path class="fil3" d="M0.128 0c0.026,0.003 0.05,0.015 0.067,0.033 0.018,0.017 0.03,0.041 0.033,0.067l-0.029 0c-0.003,-0.018 -0.012,-0.035 -0.024,-0.047 -0.013,-0.012 -0.029,-0.021 -0.047,-0.024l0 -0.029z"/>
  </g>
 </g>
</svg>
