<?xml version="1.0" encoding="UTF-8"?>
<!DOCTYPE svg PUBLIC "-//W3C//DTD SVG 1.1//EN" "http://www.w3.org/Graphics/SVG/1.1/DTD/svg11.dtd">
<!-- Creator: CorelDRAW 2018 (64-Bit) -->
<svg xmlns="http://www.w3.org/2000/svg" xml:space="preserve" width="16px" height="16px" version="1.1" style="shape-rendering:geometricPrecision; text-rendering:geometricPrecision; image-rendering:optimizeQuality; fill-rule:evenodd; clip-rule:evenodd"
viewBox="0 0 0.176 0.175"
 xmlns:xlink="http://www.w3.org/1999/xlink">
 <defs>
  <style type="text/css">
   <![CDATA[
    .fil0 {fill:#5682FC;fill-rule:nonzero}
    .fil1 {fill:#FFE552;fill-rule:nonzero}
   ]]>
  </style>
 </defs>
 <g id="Layer_x0020_1">
  <metadata id="CorelCorpID_0Corel-Layer"/>
  <path class="fil0" d="M0.077 0.175c-0.02,-0.003 -0.038,-0.012 -0.051,-0.026l0 0c-0.016,-0.016 -0.026,-0.037 -0.026,-0.062 0,-0.024 0.01,-0.046 0.026,-0.062 0.013,-0.013 0.031,-0.023 0.051,-0.025l0 0.022c-0.014,0.003 -0.026,0.009 -0.036,0.019l0 0c-0.012,0.012 -0.019,0.028 -0.019,0.046 0,0.018 0.007,0.035 0.019,0.047l0 0c0.01,0.009 0.022,0.016 0.036,0.018l0 0.023z"/>
  <path class="fil1" d="M0.099 0c0.02,0.002 0.038,0.012 0.051,0.025 0.016,0.016 0.026,0.038 0.026,0.062 0,0.025 -0.01,0.046 -0.026,0.062 -0.013,0.014 -0.031,0.023 -0.051,0.026l0 -0.023c0.014,-0.002 0.026,-0.009 0.036,-0.018l0 0c0.011,-0.012 0.019,-0.029 0.019,-0.047 0,-0.018 -0.008,-0.034 -0.019,-0.046 -0.01,-0.01 -0.022,-0.016 -0.036,-0.019l0 -0.022z"/>
 </g>
</svg>
