<?xml version="1.0" encoding="UTF-8"?>
<!DOCTYPE svg PUBLIC "-//W3C//DTD SVG 1.1//EN" "http://www.w3.org/Graphics/SVG/1.1/DTD/svg11.dtd">
<!-- Creator: CorelDRAW 2018 (64-Bit) -->
<svg xmlns="http://www.w3.org/2000/svg" xml:space="preserve" width="16px" height="16px" version="1.1" style="shape-rendering:geometricPrecision; text-rendering:geometricPrecision; image-rendering:optimizeQuality; fill-rule:evenodd; clip-rule:evenodd"
viewBox="0 0 0.162 0.161"
 xmlns:xlink="http://www.w3.org/1999/xlink">
 <defs>
  <style type="text/css">
   <![CDATA[
    .fil1 {fill:#9666C9;fill-rule:nonzero}
    .fil0 {fill:#FFE552;fill-rule:nonzero}
   ]]>
  </style>
 </defs>
 <g id="Layer_x0020_1">
  <metadata id="CorelCorpID_0Corel-Layer"/>
  <g id="_2118715024448">
   <path class="fil0" d="M0.071 0.161c-0.018,-0.002 -0.035,-0.011 -0.047,-0.023l0 0c-0.015,-0.015 -0.024,-0.035 -0.024,-0.057 0,-0.023 0.009,-0.043 0.024,-0.058 0.012,-0.012 0.029,-0.021 0.047,-0.023l0 0.021c-0.013,0.002 -0.024,0.008 -0.033,0.017l0 0c-0.011,0.011 -0.018,0.026 -0.018,0.043 0,0.016 0.007,0.032 0.018,0.043l0 0c0.009,0.008 0.02,0.014 0.033,0.017l0 0.02z"/>
   <path class="fil1" d="M0.091 0c0.019,0.002 0.035,0.011 0.048,0.023 0.014,0.015 0.023,0.035 0.023,0.058 0,0.022 -0.009,0.042 -0.023,0.057 -0.013,0.012 -0.029,0.021 -0.048,0.023l0 -0.02c0.013,-0.003 0.025,-0.009 0.033,-0.017l0 0c0.011,-0.011 0.018,-0.027 0.018,-0.043 0,-0.017 -0.007,-0.032 -0.018,-0.043 -0.008,-0.009 -0.02,-0.015 -0.033,-0.017l0 -0.021z"/>
  </g>
 </g>
</svg>
