<?xml version="1.0" encoding="UTF-8"?>
<!DOCTYPE svg PUBLIC "-//W3C//DTD SVG 1.1//EN" "http://www.w3.org/Graphics/SVG/1.1/DTD/svg11.dtd">
<!-- Creator: CorelDRAW 2018 (64-Bit) -->
<svg xmlns="http://www.w3.org/2000/svg" xml:space="preserve" width="16px" height="16px" version="1.1" style="shape-rendering:geometricPrecision; text-rendering:geometricPrecision; image-rendering:optimizeQuality; fill-rule:evenodd; clip-rule:evenodd"
viewBox="0 0 0.17 0.168"
 xmlns:xlink="http://www.w3.org/1999/xlink">
 <defs>
  <style type="text/css">
   <![CDATA[
    .fil1 {fill:#FF9452;fill-rule:nonzero}
    .fil0 {fill:#FFE552;fill-rule:nonzero}
   ]]>
  </style>
 </defs>
 <g id="Layer_x0020_1">
  <metadata id="CorelCorpID_0Corel-Layer"/>
  <g id="_2118715004608">
   <path class="fil0" d="M0.074 0.168c-0.019,-0.002 -0.036,-0.011 -0.049,-0.024l0 0c-0.016,-0.015 -0.025,-0.036 -0.025,-0.06 0,-0.023 0.009,-0.044 0.025,-0.06 0.013,-0.013 0.03,-0.022 0.049,-0.024l0 0.022c-0.013,0.002 -0.025,0.008 -0.034,0.017l0 0c-0.012,0.012 -0.019,0.028 -0.019,0.045 0,0.018 0.007,0.034 0.019,0.045l0 0c0.009,0.009 0.021,0.016 0.034,0.018l0 0.021z"/>
   <path class="fil1" d="M0.095 0c0.02,0.002 0.037,0.011 0.05,0.024 0.015,0.016 0.025,0.037 0.025,0.06 0,0.024 -0.01,0.045 -0.025,0.06 -0.013,0.013 -0.03,0.022 -0.05,0.024l0 -0.021c0.014,-0.002 0.026,-0.009 0.035,-0.018l0 0c0.011,-0.011 0.018,-0.027 0.018,-0.045 0,-0.017 -0.007,-0.033 -0.018,-0.045 -0.009,-0.009 -0.021,-0.015 -0.035,-0.017l0 -0.022z"/>
  </g>
 </g>
</svg>
