<?xml version="1.0" encoding="UTF-8"?>
<!DOCTYPE svg PUBLIC "-//W3C//DTD SVG 1.1//EN" "http://www.w3.org/Graphics/SVG/1.1/DTD/svg11.dtd">
<!-- Creator: CorelDRAW 2018 (64-Bit) -->
<svg xmlns="http://www.w3.org/2000/svg" xml:space="preserve" width="16px" height="16px" version="1.1" style="shape-rendering:geometricPrecision; text-rendering:geometricPrecision; image-rendering:optimizeQuality; fill-rule:evenodd; clip-rule:evenodd"
viewBox="0 0 0.155 0.154"
 xmlns:xlink="http://www.w3.org/1999/xlink">
 <defs>
  <style type="text/css">
   <![CDATA[
    .fil1 {fill:#5682FC;fill-rule:nonzero}
    .fil2 {fill:#9666C9;fill-rule:nonzero}
    .fil0 {fill:#FF9452;fill-rule:nonzero}
   ]]>
  </style>
 </defs>
 <g id="Layer_x0020_1">
  <metadata id="CorelCorpID_0Corel-Layer"/>
  <g id="_2117908215408">
   <path class="fil0" d="M0.006 0.107c-0.004,-0.01 -0.006,-0.02 -0.006,-0.03 0,-0.022 0.009,-0.041 0.023,-0.055 0.012,-0.012 0.027,-0.02 0.045,-0.022l0 0.02c-0.012,0.002 -0.023,0.007 -0.032,0.016l0 0c-0.01,0.01 -0.017,0.025 -0.017,0.041 0,0.007 0.002,0.014 0.004,0.02l-0.017 0.01z"/>
   <path class="fil1" d="M0.139 0.123c-0.002,0.003 -0.004,0.006 -0.007,0.008 -0.014,0.014 -0.033,0.023 -0.055,0.023 -0.021,0 -0.04,-0.009 -0.054,-0.023l0 0c-0.003,-0.002 -0.005,-0.005 -0.007,-0.008l0.017 -0.009c0.001,0.001 0.002,0.002 0.003,0.004l0 0c0.011,0.01 0.025,0.017 0.041,0.017 0.016,0 0.031,-0.007 0.041,-0.017l0 0c0.002,-0.002 0.003,-0.003 0.004,-0.004l0.017 0.009z"/>
   <path class="fil2" d="M0.087 0c0.018,0.002 0.033,0.01 0.045,0.022 0.014,0.014 0.023,0.033 0.023,0.055 0,0.01 -0.002,0.02 -0.006,0.03l-0.017 -0.01c0.002,-0.006 0.003,-0.013 0.003,-0.02 0,-0.016 -0.006,-0.031 -0.017,-0.041 -0.008,-0.009 -0.019,-0.014 -0.031,-0.016l0 -0.02z"/>
  </g>
 </g>
</svg>
