<?xml version="1.0" encoding="UTF-8"?>
<!DOCTYPE svg PUBLIC "-//W3C//DTD SVG 1.1//EN" "http://www.w3.org/Graphics/SVG/1.1/DTD/svg11.dtd">
<!-- Creator: CorelDRAW 2018 (64-Bit) -->
<svg xmlns="http://www.w3.org/2000/svg" xml:space="preserve" width="16px" height="16px" version="1.1" style="shape-rendering:geometricPrecision; text-rendering:geometricPrecision; image-rendering:optimizeQuality; fill-rule:evenodd; clip-rule:evenodd"
viewBox="0 0 0.161 0.16"
 xmlns:xlink="http://www.w3.org/1999/xlink">
 <defs>
  <style type="text/css">
   <![CDATA[
    .fil2 {fill:#9666C9;fill-rule:nonzero}
    .fil0 {fill:#FF9452;fill-rule:nonzero}
    .fil1 {fill:#FFE552;fill-rule:nonzero}
   ]]>
  </style>
 </defs>
 <g id="Layer_x0020_1">
  <metadata id="CorelCorpID_0Corel-Layer"/>
  <g id="_2118156969712">
   <path class="fil0" d="M0.006 0.111c-0.004,-0.01 -0.006,-0.02 -0.006,-0.031 0,-0.022 0.009,-0.043 0.024,-0.057 0.012,-0.012 0.028,-0.021 0.046,-0.023l0 0.02c-0.012,0.003 -0.024,0.009 -0.032,0.017l0 0c-0.011,0.011 -0.018,0.026 -0.018,0.043 0,0.007 0.002,0.014 0.004,0.021l-0.018 0.01z"/>
   <path class="fil1" d="M0.144 0.128c-0.002,0.003 -0.004,0.006 -0.007,0.009 -0.014,0.014 -0.034,0.023 -0.057,0.023 -0.022,0 -0.042,-0.009 -0.056,-0.023l0 0c-0.003,-0.003 -0.005,-0.006 -0.008,-0.009l0.018 -0.01c0.001,0.002 0.002,0.003 0.004,0.004l0 0c0.011,0.011 0.026,0.018 0.042,0.018 0.017,0 0.032,-0.007 0.043,-0.018l0 0c0.001,-0.001 0.003,-0.002 0.004,-0.004l0.017 0.01z"/>
   <path class="fil2" d="M0.091 0c0.018,0.002 0.034,0.011 0.046,0.023 0.015,0.014 0.024,0.035 0.024,0.057 0,0.011 -0.002,0.021 -0.006,0.031l-0.018 -0.01c0.002,-0.007 0.004,-0.014 0.004,-0.021 0,-0.017 -0.007,-0.032 -0.018,-0.043 -0.009,-0.008 -0.02,-0.014 -0.032,-0.017l0 -0.02z"/>
  </g>
 </g>
</svg>
