<?xml version="1.0" encoding="UTF-8"?>
<!DOCTYPE svg PUBLIC "-//W3C//DTD SVG 1.1//EN" "http://www.w3.org/Graphics/SVG/1.1/DTD/svg11.dtd">
<!-- Creator: CorelDRAW 2018 (64-Bit) -->
<svg xmlns="http://www.w3.org/2000/svg" xml:space="preserve" width="16px" height="16px" version="1.1" style="shape-rendering:geometricPrecision; text-rendering:geometricPrecision; image-rendering:optimizeQuality; fill-rule:evenodd; clip-rule:evenodd"
viewBox="0 0 0.168 0.167"
 xmlns:xlink="http://www.w3.org/1999/xlink">
 <defs>
  <style type="text/css">
   <![CDATA[
    .fil2 {fill:#5682FC;fill-rule:nonzero}
    .fil0 {fill:#FF9452;fill-rule:nonzero}
    .fil1 {fill:#FFE552;fill-rule:nonzero}
   ]]>
  </style>
 </defs>
 <g id="Layer_x0020_1">
  <metadata id="CorelCorpID_0Corel-Layer"/>
  <g id="_2118151630736">
   <path class="fil0" d="M0.007 0.116c-0.005,-0.01 -0.007,-0.021 -0.007,-0.033 0,-0.023 0.009,-0.044 0.025,-0.059 0.013,-0.013 0.03,-0.022 0.049,-0.024l0 0.021c-0.014,0.003 -0.025,0.009 -0.034,0.018l0 0c-0.012,0.011 -0.019,0.027 -0.019,0.044 0,0.008 0.001,0.016 0.004,0.022l-0.018 0.011z"/>
   <path class="fil1" d="M0.151 0.134c-0.002,0.003 -0.005,0.006 -0.008,0.009 -0.015,0.015 -0.036,0.024 -0.059,0.024 -0.023,0 -0.044,-0.009 -0.059,-0.024l0 0c-0.003,-0.003 -0.006,-0.006 -0.008,-0.009l0.019 -0.01c0.001,0.001 0.002,0.003 0.004,0.004l0 0c0.011,0.011 0.027,0.018 0.044,0.018 0.017,0 0.033,-0.007 0.045,-0.018l0 0c0.001,-0.001 0.002,-0.003 0.004,-0.004l0.018 0.01z"/>
   <path class="fil2" d="M0.095 0c0.019,0.002 0.036,0.011 0.048,0.024 0.016,0.015 0.025,0.036 0.025,0.059 0,0.012 -0.002,0.023 -0.006,0.033l-0.019 -0.011c0.003,-0.006 0.004,-0.014 0.004,-0.022 0,-0.017 -0.007,-0.033 -0.018,-0.044 -0.009,-0.009 -0.021,-0.015 -0.034,-0.018l0 -0.021z"/>
  </g>
 </g>
</svg>
