<?xml version="1.0" encoding="UTF-8"?>
<!DOCTYPE svg PUBLIC "-//W3C//DTD SVG 1.1//EN" "http://www.w3.org/Graphics/SVG/1.1/DTD/svg11.dtd">
<!-- Creator: CorelDRAW 2018 (64-Bit) -->
<svg xmlns="http://www.w3.org/2000/svg" xml:space="preserve" width="17px" height="19px" version="1.1" style="shape-rendering:geometricPrecision; text-rendering:geometricPrecision; image-rendering:optimizeQuality; fill-rule:evenodd; clip-rule:evenodd"
viewBox="0 0 0.608 0.675"
 xmlns:xlink="http://www.w3.org/1999/xlink">
 <defs>
  <style type="text/css">
   <![CDATA[
    .fil0 {fill:gray;fill-rule:nonzero}
   ]]>
  </style>
 </defs>
 <g id="Layer_x0020_1">
  <metadata id="CorelCorpID_0Corel-Layer"/>
  <g id="_2712936575680">
   <path class="fil0" d="M0.216 0.521c0.01,0 0.017,0.008 0.017,0.017 0,0.01 -0.007,0.018 -0.017,0.018l-0.18 0 -0.004 -0.001c-0.008,0 -0.016,-0.004 -0.022,-0.01 -0.006,-0.006 -0.01,-0.014 -0.01,-0.024 0.002,-0.039 0.007,-0.079 0.01,-0.118 0.002,-0.02 0.01,-0.037 0.02,-0.05 0.015,-0.018 0.035,-0.03 0.046,-0.033 0.016,-0.004 0.039,0.002 0.058,0.008 0.006,0.001 0.011,0.003 0.016,0.004l0.001 0c0.023,0.006 0.049,0.008 0.075,0.008 0.027,0 0.053,-0.003 0.076,-0.008l0.028 -0.008c0.01,-0.002 0.019,0.003 0.022,0.013 0.002,0.009 -0.003,0.018 -0.013,0.021l-0.012 0.003c-0.006,0.002 -0.011,0.003 -0.017,0.005 -0.026,0.006 -0.055,0.009 -0.084,0.009 -0.028,0 -0.057,-0.003 -0.083,-0.009l-0.001 0c-0.005,-0.001 -0.011,-0.003 -0.017,-0.005 -0.016,-0.004 -0.033,-0.009 -0.04,-0.007 -0.006,0.001 -0.018,0.009 -0.027,0.021 -0.007,0.008 -0.012,0.019 -0.013,0.031l-0.01 0.115 0 0 0.181 0z"/>
   <path class="fil0" d="M0.225 0c0.044,0 0.083,0.018 0.111,0.046l0.001 0c0.028,0.029 0.046,0.068 0.046,0.111 0,0.044 -0.018,0.083 -0.046,0.112l-0.001 0c-0.029,0.028 -0.068,0.046 -0.111,0.046 -0.043,0 -0.082,-0.018 -0.111,-0.047 -0.028,-0.028 -0.046,-0.067 -0.046,-0.111 0,-0.043 0.018,-0.082 0.046,-0.111l0 0c0.029,-0.028 0.068,-0.046 0.111,-0.046zm0.087 0.071c-0.022,-0.022 -0.053,-0.036 -0.087,-0.036 -0.034,0 -0.064,0.014 -0.086,0.036 -0.022,0.022 -0.036,0.052 -0.036,0.086 0,0.034 0.014,0.065 0.036,0.087 0.022,0.022 0.052,0.036 0.086,0.036 0.034,0 0.064,-0.014 0.086,-0.035l0.001 -0.001c0.022,-0.022 0.036,-0.053 0.036,-0.087 0,-0.034 -0.014,-0.064 -0.036,-0.086z"/>
   <path class="fil0" d="M0.394 0.315l0.068 0c0.007,0 0.014,0.004 0.019,0.008 0.005,0.005 0.008,0.012 0.008,0.019l0 0.092 0.092 0c0.007,0 0.014,0.003 0.019,0.008l0.001 0.002c0.004,0.005 0.007,0.011 0.007,0.017l0 0.068c0,0.007 -0.003,0.014 -0.008,0.019 -0.005,0.005 -0.012,0.008 -0.019,0.008l-0.092 0 0 0.092c0,0.007 -0.003,0.014 -0.008,0.019 -0.005,0.005 -0.012,0.008 -0.019,0.008l-0.068 0c-0.007,0 -0.014,-0.003 -0.019,-0.008 -0.005,-0.005 -0.008,-0.012 -0.008,-0.019l0 -0.092 -0.092 0c-0.007,0 -0.014,-0.003 -0.019,-0.008 -0.005,-0.005 -0.008,-0.012 -0.008,-0.019l0 -0.068c0,-0.007 0.003,-0.014 0.008,-0.019 0.005,-0.005 0.012,-0.008 0.019,-0.008l0.092 0 0 -0.092c0,-0.007 0.003,-0.014 0.008,-0.019 0.005,-0.004 0.012,-0.008 0.019,-0.008zm0.06 0.035l-0.052 0 0 0.102c0,0.01 -0.008,0.017 -0.017,0.017l-0.102 0 0 0.052 0.102 0c0.009,0 0.017,0.008 0.017,0.017l0 0.102 0.052 0 0 -0.102c0,-0.009 0.008,-0.017 0.017,-0.017l0.102 0 0 -0.052 -0.102 0c-0.009,0 -0.017,-0.007 -0.017,-0.017l0 -0.102z"/>
  </g>
 </g>
</svg>
