<?xml version="1.0" encoding="UTF-8"?>
<!DOCTYPE svg PUBLIC "-//W3C//DTD SVG 1.1//EN" "http://www.w3.org/Graphics/SVG/1.1/DTD/svg11.dtd">
<!-- Creator: CorelDRAW 2018 (64-Bit) -->
<svg xmlns="http://www.w3.org/2000/svg" xml:space="preserve" width="20px" height="15px" version="1.1" style="shape-rendering:geometricPrecision; text-rendering:geometricPrecision; image-rendering:optimizeQuality; fill-rule:evenodd; clip-rule:evenodd"
viewBox="0 0 0.403 0.301"
 xmlns:xlink="http://www.w3.org/1999/xlink">
 <defs>
  <style type="text/css">
   <![CDATA[
    .fil0 {fill:gray;fill-rule:nonzero}
   ]]>
  </style>
 </defs>
 <g id="Layer_x0020_1">
  <metadata id="CorelCorpID_0Corel-Layer"/>
  <g id="_2712933239744">
   <path class="fil0" d="M0.137 0.001l0.122 0.071c0.003,0.002 0.005,0.005 0.005,0.008l0 0.141c0,0.004 -0.002,0.008 -0.006,0.009l-0.121 0.07c-0.003,0.002 -0.007,0.002 -0.01,0l-0.122 -0.07c-0.003,-0.002 -0.005,-0.005 -0.005,-0.009l0 -0.141c0,-0.004 0.002,-0.007 0.006,-0.009l0.121 -0.07c0.003,-0.002 0.007,-0.001 0.01,0zm0.051 0.053l-0.056 -0.032 -0.112 0.064 0 0.129 0.112 0.065 0.112 -0.065 0 -0.129 -0.056 -0.032z"/>
   <path class="fil0" d="M0.276 0.001l0.122 0.071c0.003,0.002 0.005,0.005 0.005,0.008l0 0.141c0,0.004 -0.002,0.008 -0.006,0.009l-0.121 0.07c-0.003,0.002 -0.007,0.002 -0.01,0l-0.122 -0.07c-0.003,-0.002 -0.005,-0.005 -0.005,-0.009l0 -0.141c0,-0.004 0.002,-0.007 0.006,-0.009l0.121 -0.07c0.003,-0.002 0.007,-0.001 0.01,0zm0.051 0.053l-0.056 -0.032 -0.112 0.064 0 0.129 0.112 0.065 0.112 -0.065 0 -0.129 -0.056 -0.032z"/>
  </g>
 </g>
</svg>
