<?xml version="1.0" encoding="UTF-8"?>
<!DOCTYPE svg PUBLIC "-//W3C//DTD SVG 1.1//EN" "http://www.w3.org/Graphics/SVG/1.1/DTD/svg11.dtd">
<!-- Creator: CorelDRAW 2018 (64-Bit) -->
<svg xmlns="http://www.w3.org/2000/svg" xml:space="preserve" width="15px" height="16px" version="1.1" style="shape-rendering:geometricPrecision; text-rendering:geometricPrecision; image-rendering:optimizeQuality; fill-rule:evenodd; clip-rule:evenodd"
viewBox="0 0 0.209 0.218"
 xmlns:xlink="http://www.w3.org/1999/xlink">
 <defs>
  <style type="text/css">
   <![CDATA[
    .fil0 {fill:gray;fill-rule:nonzero}
   ]]>
  </style>
 </defs>
 <g id="Layer_x0020_1">
  <metadata id="CorelCorpID_0Corel-Layer"/>
  <g id="_2712936528000">
   <path class="fil0" d="M0.199 0.076c0.003,0 0.005,0.001 0.007,0.003 0.002,0.002 0.003,0.005 0.003,0.008l0 0.12c0,0.003 -0.001,0.006 -0.003,0.008 -0.002,0.002 -0.004,0.003 -0.007,0.003l-0.188 0c-0.003,0 -0.006,-0.001 -0.008,-0.003 -0.002,-0.002 -0.003,-0.005 -0.003,-0.008l0 -0.12c0,-0.003 0.001,-0.006 0.003,-0.008 0.002,-0.002 0.005,-0.003 0.008,-0.003l0 0.011 0.002 0c0.001,0 0.001,0 0.001,0l0 0.118 0.182 0 0 -0.118c0,0 0,0 0,0l0.003 0 0 -0.011zm0 0.011l-0.002 0.002c0,0 0.001,0 0.002,0.001l0 -0.003zm-0.003 0c0,0 0.001,0.001 0.001,0.002l0.002 -0.002 -0.003 0zm-0.185 0l0.002 0.002c0,-0.001 0,-0.002 0,-0.002l-0.002 0zm0.002 0.002l-0.002 -0.002 0 0.003c0,-0.001 0.001,-0.001 0.002,-0.001z"/>
   <path class="fil0" d="M0.124 0.031l-0.019 -0.015 -0.02 0.015 0.039 0zm-0.015 -0.03l0.039 0.031c0.001,0.002 0.002,0.004 0.002,0.006 0,0.003 -0.003,0.006 -0.007,0.007l-0.077 0c-0.003,0 -0.005,-0.001 -0.006,-0.002 -0.002,-0.003 -0.002,-0.008 0.001,-0.01l0.039 -0.031c0.003,-0.002 0.006,-0.003 0.009,-0.001z"/>
   <path class="fil0" d="M0.125 0.152c-0.003,0.002 -0.007,0.002 -0.01,-0.001 -0.002,-0.003 -0.002,-0.008 0.001,-0.01l0.073 -0.058 -0.009 -0.007c-0.003,-0.002 -0.003,-0.007 -0.001,-0.01 0.003,-0.003 0.007,-0.003 0.01,-0.001l0.015 0.013c0.001,0 0.001,0 0.001,0.001 0.003,0.003 0.002,0.007 -0.001,0.009l-0.079 0.064z"/>
   <path class="fil0" d="M0.019 0.067c0.003,-0.003 0.007,-0.002 0.009,0.001 0.003,0.003 0.002,0.007 -0.001,0.009l-0.007 0.006 0.073 0.058c0.003,0.002 0.003,0.007 0.001,0.009 -0.002,0.003 -0.007,0.004 -0.01,0.002l-0.079 -0.064c0,0 -0.001,0 -0.001,-0.001 -0.002,-0.003 -0.002,-0.007 0.001,-0.009l0.014 -0.011z"/>
   <path class="fil0" d="M0.019 0.096l0 -0.054c0,-0.003 0.002,-0.005 0.004,-0.007 0.002,-0.002 0.004,-0.003 0.007,-0.003l0.149 0c0.003,0 0.006,0.001 0.008,0.003 0.002,0.002 0.003,0.004 0.003,0.007l0 0.054 -0.014 0 0 -0.051 -0.143 0 0 0.051 -0.014 0z"/>
   <path class="fil0" d="M0.105 0.144l-0.076 0.061 0.152 0 -0.076 -0.061zm-0.1 0.062l0.095 -0.076c0.003,-0.002 0.006,-0.002 0.009,0l0.095 0.076c0.002,0.001 0.003,0.003 0.003,0.006 0,0.003 -0.003,0.006 -0.007,0.006l-0.191 0c-0.002,0 -0.004,-0.001 -0.005,-0.002 -0.002,-0.003 -0.002,-0.007 0.001,-0.01z"/>
  </g>
 </g>
</svg>
