<?xml version="1.0" encoding="UTF-8"?>
<!DOCTYPE svg PUBLIC "-//W3C//DTD SVG 1.1//EN" "http://www.w3.org/Graphics/SVG/1.1/DTD/svg11.dtd">
<!-- Creator: CorelDRAW 2018 (64-Bit) -->
<svg xmlns="http://www.w3.org/2000/svg" xml:space="preserve" width="16px" height="16px" version="1.1" style="shape-rendering:geometricPrecision; text-rendering:geometricPrecision; image-rendering:optimizeQuality; fill-rule:evenodd; clip-rule:evenodd"
viewBox="0 0 0.276 0.274"
 xmlns:xlink="http://www.w3.org/1999/xlink">
 <defs>
  <style type="text/css">
   <![CDATA[
    .fil0 {fill:gray;fill-rule:nonzero}
   ]]>
  </style>
 </defs>
 <g id="Layer_x0020_1">
  <metadata id="CorelCorpID_0Corel-Layer"/>
  <g id="_2712934282176">
   <path class="fil0" d="M0.04 0.075c-0.005,0 -0.009,-0.004 -0.009,-0.009 0,-0.005 0.004,-0.008 0.009,-0.008l0.138 0c0.004,0 0.008,0.003 0.008,0.008 0,0.005 -0.004,0.009 -0.008,0.009l-0.138 0z"/>
   <path class="fil0" d="M0.04 0.134c-0.005,0 -0.009,-0.004 -0.009,-0.009 0,-0.005 0.004,-0.008 0.009,-0.008l0.094 0c0.005,0 0.009,0.003 0.009,0.008 0,0.005 -0.004,0.009 -0.009,0.009l-0.094 0z"/>
   <path class="fil0" d="M0.04 0.193c-0.005,0 -0.009,-0.004 -0.009,-0.009 0,-0.005 0.004,-0.008 0.009,-0.008l0.055 0c0.005,0 0.009,0.003 0.009,0.008 0,0.005 -0.004,0.009 -0.009,0.009l-0.055 0z"/>
   <path class="fil0" d="M0.251 0.063l0.018 0.018c0.005,0.004 0.007,0.01 0.007,0.015 0,0.006 -0.002,0.011 -0.006,0.016l-0.099 0.098c-0.001,0.001 -0.003,0.002 -0.005,0.003l-0.048 0.012c-0.005,0.001 -0.009,-0.002 -0.011,-0.006 0,-0.002 0,-0.003 0,-0.004l0.013 -0.05c0.001,-0.001 0.001,-0.003 0.002,-0.004l0.099 -0.099c0.005,-0.003 0.01,-0.005 0.015,-0.005 0.006,0 0.011,0.002 0.015,0.006zm0.006 0.03l-0.018 -0.018c-0.001,-0.001 -0.002,-0.001 -0.003,-0.001 -0.001,0 -0.002,0 -0.003,0.001l-0.097 0.097 -0.008 0.033 0.033 -0.009 0.096 -0.096c0.001,-0.001 0.002,-0.002 0.002,-0.004 0,-0.001 -0.001,-0.002 -0.002,-0.003z"/>
   <path class="fil0" d="M0.205 0.091c-0.003,-0.003 -0.003,-0.008 0,-0.012 0.004,-0.003 0.009,-0.003 0.013,0l0.035 0.036c0.004,0.003 0.004,0.009 0,0.012 -0.003,0.003 -0.008,0.003 -0.012,0l-0.036 -0.036z"/>
   <path class="fil0" d="M0.217 0.161l0 0.098c0,0.004 -0.001,0.008 -0.004,0.011l0 0c-0.003,0.003 -0.007,0.004 -0.011,0.004l-0.187 0c-0.004,0 -0.008,-0.001 -0.011,-0.004l0 0c-0.002,-0.003 -0.004,-0.007 -0.004,-0.011l0 -0.244c0,-0.004 0.002,-0.008 0.004,-0.011l0 0c0.003,-0.002 0.007,-0.004 0.011,-0.004l0.187 0c0.004,0 0.008,0.002 0.011,0.004 0.003,0.003 0.004,0.007 0.004,0.011l0 0.071 -0.017 0 0 -0.069 -0.183 0 0 0.24 0.183 0 0 -0.096 0.017 0z"/>
  </g>
 </g>
</svg>
