<?xml version="1.0" encoding="UTF-8"?>
<!DOCTYPE svg PUBLIC "-//W3C//DTD SVG 1.1//EN" "http://www.w3.org/Graphics/SVG/1.1/DTD/svg11.dtd">
<!-- Creator: CorelDRAW 2018 (64-Bit) -->
<svg xmlns="http://www.w3.org/2000/svg" xml:space="preserve" width="38px" height="38px" version="1.1" style="shape-rendering:geometricPrecision; text-rendering:geometricPrecision; image-rendering:optimizeQuality; fill-rule:evenodd; clip-rule:evenodd"
viewBox="0 0 38 38"
 xmlns:xlink="http://www.w3.org/1999/xlink">
 <defs>
  <style type="text/css">
   <![CDATA[
    .fil0 {fill:#DCE1E6}
    .fil1 {fill:white}
   ]]>
  </style>
 </defs>
 <g id="Layer_x0020_1">
  <metadata id="CorelCorpID_0Corel-Layer"/>
  <g id="_1277864755360">
   <rect class="fil0" width="38" height="38"/>
   <path class="fil1" d="M22.157 20.988c0.767,-0.209 1.517,-0.505 2.075,-0.505 0.733,-0.018 1.675,0.436 1.884,1.814l0.384 2.546c0.035,0.262 -0.174,0.454 -0.384,0.593 -3.802,2.599 -10.43,2.599 -14.215,0 -0.227,-0.139 -0.436,-0.331 -0.401,-0.593l0.384 -2.546c0.209,-1.378 1.168,-1.832 1.883,-1.814 0.576,0 1.326,0.296 2.076,0.505 2.285,0.646 4.029,0.646 6.314,0l0 0z"/>
   <circle class="fil1" cx="19.035" cy="14.936" r="4.325"/>
  </g>
 </g>
</svg>
