<?xml version="1.0" encoding="UTF-8"?>
<!DOCTYPE svg PUBLIC "-//W3C//DTD SVG 1.1//EN" "http://www.w3.org/Graphics/SVG/1.1/DTD/svg11.dtd">
<!-- Creator: CorelDRAW 2018 (64-Bit) -->
<svg xmlns="http://www.w3.org/2000/svg" xml:space="preserve" width="18px" height="19px" version="1.1" style="shape-rendering:geometricPrecision; text-rendering:geometricPrecision; image-rendering:optimizeQuality; fill-rule:evenodd; clip-rule:evenodd"
viewBox="0 0 0.385 0.416"
 xmlns:xlink="http://www.w3.org/1999/xlink">
 <defs>
  <style type="text/css">
   <![CDATA[
    .fil0 {fill:gray;fill-rule:nonzero}
   ]]>
  </style>
 </defs>
 <g id="Layer_x0020_1">
  <metadata id="CorelCorpID_0Corel-Layer"/>
  <g id="_2712933294080">
   <path class="fil0" d="M0.349 0.027c0.004,-0.004 0.011,-0.004 0.016,0 0.004,0.004 0.004,0.011 0,0.016l-0.346 0.346c-0.005,0.004 -0.012,0.004 -0.016,0 -0.004,-0.005 -0.004,-0.012 0,-0.016l0.346 -0.346z"/>
   <path class="fil0" d="M0.316 0.127c-0.003,-0.005 -0.002,-0.012 0.003,-0.015 0.006,-0.003 0.012,-0.001 0.015,0.004 0.007,0.01 0.012,0.021 0.015,0.033 0.003,0.012 0.005,0.024 0.005,0.037 0,0.017 -0.001,0.032 -0.001,0.045 -0.001,0.046 -0.002,0.055 0.03,0.118 0.001,0.003 0.002,0.006 0.002,0.009 0,0.003 -0.001,0.006 -0.003,0.009 -0.001,0.003 -0.004,0.005 -0.007,0.007l-0.001 0c-0.002,0.001 -0.005,0.002 -0.007,0.002l-0.288 0c-0.006,0 -0.011,-0.005 -0.011,-0.011 0,-0.006 0.005,-0.011 0.011,-0.011l0.282 0c-0.032,-0.064 -0.031,-0.075 -0.03,-0.124 0,-0.011 0.001,-0.025 0.001,-0.044 0,-0.011 -0.002,-0.021 -0.004,-0.031 -0.003,-0.01 -0.007,-0.019 -0.012,-0.028z"/>
   <path class="fil0" d="M0.102 0.258c0,0.006 -0.005,0.011 -0.011,0.011 -0.006,0 -0.01,-0.005 -0.01,-0.011 0,-0.008 0,-0.016 -0.001,-0.027 0,-0.013 -0.001,-0.028 -0.001,-0.045 0,-0.03 0.01,-0.058 0.026,-0.081 0.016,-0.021 0.037,-0.037 0.061,-0.047l0.001 -0.013c0.001,-0.013 0.007,-0.024 0.016,-0.032 0.009,-0.008 0.021,-0.013 0.034,-0.013 0.012,0 0.024,0.005 0.033,0.013 0.009,0.008 0.015,0.019 0.017,0.032l0 0.013 0.006 0.003c0.006,0.002 0.008,0.009 0.006,0.014 -0.003,0.006 -0.009,0.008 -0.015,0.006l-0.006 -0.003c-0.001,0 -0.003,-0.001 -0.006,-0.002 -0.004,-0.001 -0.007,-0.005 -0.007,-0.01l0 -0.019c-0.001,-0.007 -0.004,-0.013 -0.009,-0.018 -0.005,-0.004 -0.012,-0.007 -0.019,-0.007 -0.008,0 -0.014,0.003 -0.019,0.007 -0.005,0.005 -0.009,0.011 -0.01,0.018l0 0.018c0,0.005 -0.003,0.01 -0.007,0.011 -0.024,0.008 -0.044,0.023 -0.058,0.042 -0.014,0.019 -0.022,0.043 -0.022,0.068 0,0.019 0.001,0.033 0.001,0.044 0,0.011 0.001,0.02 0,0.028z"/>
   <path class="fil0" d="M0.185 0.364c0.001,0.008 0.004,0.016 0.01,0.021 0.006,0.006 0.013,0.009 0.022,0.009 0.008,0 0.016,-0.003 0.021,-0.009 0.006,-0.005 0.01,-0.013 0.01,-0.021l0.022 0.001c-0.001,0.014 -0.007,0.027 -0.017,0.036 -0.009,0.009 -0.022,0.015 -0.036,0.015 -0.015,0 -0.027,-0.006 -0.037,-0.015 -0.01,-0.009 -0.016,-0.022 -0.017,-0.036l0.022 -0.001z"/>
  </g>
 </g>
</svg>
