<?xml version="1.0" encoding="UTF-8"?>
<!DOCTYPE svg PUBLIC "-//W3C//DTD SVG 1.1//EN" "http://www.w3.org/Graphics/SVG/1.1/DTD/svg11.dtd">
<!-- Creator: CorelDRAW 2018 (64-Bit) -->
<svg xmlns="http://www.w3.org/2000/svg" xml:space="preserve" width="20px" height="18px" version="1.1" style="shape-rendering:geometricPrecision; text-rendering:geometricPrecision; image-rendering:optimizeQuality; fill-rule:evenodd; clip-rule:evenodd"
viewBox="0 0 0.48 0.439"
 xmlns:xlink="http://www.w3.org/1999/xlink">
 <defs>
  <style type="text/css">
   <![CDATA[
    .fil1 {fill:#00F4FF}
    .fil0 {fill:gray;fill-rule:nonzero}
   ]]>
  </style>
 </defs>
 <g id="Layer_x0020_1">
  <metadata id="CorelCorpID_0Corel-Layer"/>
  <g id="_2712627288624">
   <path class="fil0" d="M0.426 0.218c0.001,-0.006 0.007,-0.011 0.013,-0.011 0.007,0.001 0.012,0.007 0.012,0.014 -0.003,0.025 -0.012,0.049 -0.027,0.07 -0.013,0.02 -0.032,0.038 -0.054,0.052l0.007 0.083c0,0.006 -0.005,0.012 -0.012,0.013 -0.003,0 -0.007,-0.001 -0.009,-0.004l-0.061 -0.06c-0.01,0.002 -0.02,0.004 -0.03,0.006 -0.013,0.001 -0.026,0.002 -0.039,0.002 -0.062,0 -0.118,-0.019 -0.159,-0.05 -0.041,-0.032 -0.067,-0.076 -0.067,-0.125 0,-0.049 0.026,-0.093 0.067,-0.124 0.041,-0.031 0.097,-0.05 0.159,-0.05 0.004,0 0.01,0 0.015,0 0.006,0 0.011,0.001 0.016,0.001 0.007,0.001 0.012,0.007 0.011,0.014 -0.001,0.006 -0.007,0.011 -0.013,0.01 -0.005,0 -0.01,0 -0.015,-0.001 -0.004,0 -0.009,0 -0.014,0 -0.057,0 -0.107,0.017 -0.144,0.045 -0.036,0.027 -0.058,0.064 -0.058,0.105 0,0.041 0.022,0.079 0.058,0.106 0.037,0.028 0.087,0.045 0.144,0.045 0.012,0 0.024,-0.001 0.035,-0.002 0.012,-0.002 0.023,-0.004 0.034,-0.007 0.004,-0.002 0.009,-0.001 0.013,0.003l0.042 0.042 -0.005 -0.058c0,-0.004 0.002,-0.009 0.006,-0.011 0.022,-0.013 0.04,-0.03 0.053,-0.049 0.013,-0.017 0.02,-0.037 0.022,-0.059z"/>
   <path class="fil1" d="M0.328 0.012l0.117 0c0.012,0 0.022,0.01 0.022,0.022l0 0.118c0,0.012 -0.01,0.022 -0.022,0.022l-0.117 0c-0.013,0 -0.022,-0.01 -0.022,-0.022l0 -0.118c0,-0.012 0.009,-0.022 0.022,-0.022z"/>
   <path class="fil0" d="M0.328 0l0.117 0c0.01,0 0.018,0.004 0.025,0.01 0.006,0.006 0.01,0.015 0.01,0.024l0 0.118c0,0.009 -0.004,0.018 -0.01,0.024 -0.007,0.006 -0.015,0.01 -0.025,0.01l-0.117 0c-0.01,0 -0.018,-0.004 -0.025,-0.01 -0.006,-0.006 -0.01,-0.015 -0.01,-0.024l0 -0.118c0,-0.009 0.004,-0.018 0.01,-0.024 0.007,-0.006 0.015,-0.01 0.025,-0.01zm0.117 0.024l-0.117 0c-0.003,0 -0.006,0.001 -0.007,0.003 -0.002,0.002 -0.003,0.004 -0.003,0.007l0 0.118c0,0.003 0.001,0.005 0.003,0.007 0.001,0.002 0.004,0.003 0.007,0.003l0.117 0c0.003,0 0.006,-0.001 0.007,-0.003 0.002,-0.002 0.003,-0.004 0.003,-0.007l0 -0.118c0,-0.003 -0.001,-0.005 -0.003,-0.007 -0.001,-0.002 -0.004,-0.003 -0.007,-0.003z"/>
  </g>
 </g>
</svg>
