<?xml version="1.0" encoding="UTF-8"?>
<!DOCTYPE svg PUBLIC "-//W3C//DTD SVG 1.1//EN" "http://www.w3.org/Graphics/SVG/1.1/DTD/svg11.dtd">
<!-- Creator: CorelDRAW 2018 (64-Bit) -->
<svg xmlns="http://www.w3.org/2000/svg" xml:space="preserve" width="19px" height="19px" version="1.1" style="shape-rendering:geometricPrecision; text-rendering:geometricPrecision; image-rendering:optimizeQuality; fill-rule:evenodd; clip-rule:evenodd"
viewBox="0 0 0.441 0.44"
 xmlns:xlink="http://www.w3.org/1999/xlink">
 <defs>
  <style type="text/css">
   <![CDATA[
    .fil0 {fill:gray;fill-rule:nonzero}
   ]]>
  </style>
 </defs>
 <g id="Layer_x0020_1">
  <metadata id="CorelCorpID_0Corel-Layer"/>
  <g id="_2712627303312">
   <path class="fil0" d="M0.434 0.08c0.006,0.002 0.009,0.009 0.006,0.014 -0.002,0.006 -0.009,0.009 -0.015,0.007l-0.204 -0.077 -0.205 0.077c-0.006,0.002 -0.013,-0.001 -0.015,-0.007 -0.002,-0.005 0.001,-0.012 0.007,-0.014l0.208 -0.079c0.003,-0.001 0.006,-0.001 0.009,0l0.209 0.079z"/>
   <path class="fil0" d="M0.418 0.312l-0.186 0.07 0 0.029 0.186 -0.07 0 -0.029zm-0.202 0.052l0.209 -0.079c0.001,-0.001 0.003,-0.001 0.005,-0.001 0.006,0 0.011,0.005 0.011,0.012l0 0.053c0,0.005 -0.003,0.009 -0.007,0.011l-0.209 0.079c-0.001,0 -0.003,0.001 -0.004,0.001 -0.007,0 -0.012,-0.006 -0.012,-0.012l0 -0.053c0,-0.005 0.003,-0.01 0.007,-0.011z"/>
   <path class="fil0" d="M0.016 0.285l0.209 0.079c0.004,0.001 0.007,0.006 0.007,0.011l0 0.053c0,0.006 -0.005,0.012 -0.011,0.012 -0.002,0 -0.004,-0.001 -0.005,-0.001l-0.208 -0.079c-0.005,-0.002 -0.008,-0.006 -0.008,-0.011l0 -0.053c0,-0.007 0.005,-0.012 0.012,-0.012 0.001,0 0.003,0 0.004,0.001zm0.193 0.097l-0.186 -0.07 0 0.029 0.186 0.07 0 -0.029z"/>
   <path class="fil0" d="M0.418 0.21l-0.186 0.07 0 0.029 0.186 -0.07 0 -0.029zm-0.202 0.051l0.209 -0.078c0.001,-0.001 0.003,-0.002 0.005,-0.002 0.006,0 0.011,0.006 0.011,0.012l0 0.054c0,0.004 -0.003,0.009 -0.007,0.01l-0.209 0.079c-0.001,0.001 -0.003,0.001 -0.004,0.001 -0.007,0 -0.012,-0.005 -0.012,-0.012l0 -0.053c0,-0.005 0.003,-0.009 0.007,-0.011z"/>
   <path class="fil0" d="M0.016 0.183l0.209 0.078c0.004,0.002 0.007,0.006 0.007,0.011l0 0.053c0,0.007 -0.005,0.012 -0.011,0.012 -0.002,0 -0.004,0 -0.005,-0.001l-0.208 -0.079c-0.005,-0.001 -0.008,-0.006 -0.008,-0.01l0 -0.054c0,-0.006 0.005,-0.012 0.012,-0.012 0.001,0 0.003,0.001 0.004,0.002zm0.193 0.097l-0.186 -0.07 0 0.029 0.186 0.07 0 -0.029z"/>
   <path class="fil0" d="M0.418 0.107l-0.186 0.07 0 0.029 0.186 -0.07 0 -0.029zm-0.202 0.051l0.209 -0.078c0.001,-0.001 0.003,-0.001 0.005,-0.001 0.006,0 0.011,0.005 0.011,0.011l0 0.054c0,0.005 -0.003,0.009 -0.007,0.011l-0.209 0.078c-0.001,0.001 -0.003,0.001 -0.004,0.001 -0.007,0 -0.012,-0.005 -0.012,-0.011l0 -0.054c0,-0.004 0.003,-0.009 0.007,-0.011z"/>
   <path class="fil0" d="M0.016 0.08l0.209 0.078c0.004,0.002 0.007,0.007 0.007,0.011l0 0.054c0,0.006 -0.005,0.011 -0.011,0.011 -0.002,0 -0.004,0 -0.005,-0.001l-0.208 -0.078c-0.005,-0.002 -0.008,-0.006 -0.008,-0.011l0 -0.054c0,-0.006 0.005,-0.011 0.012,-0.011 0.001,0 0.003,0 0.004,0.001zm0.193 0.097l-0.186 -0.07 0 0.029 0.186 0.07 0 -0.029z"/>
  </g>
 </g>
</svg>
