<?xml version="1.0" encoding="UTF-8"?>
<!DOCTYPE svg PUBLIC "-//W3C//DTD SVG 1.1//EN" "http://www.w3.org/Graphics/SVG/1.1/DTD/svg11.dtd">
<!-- Creator: CorelDRAW 2018 (64-Bit) -->
<svg xmlns="http://www.w3.org/2000/svg" xml:space="preserve" width="21px" height="19px" version="1.1" style="shape-rendering:geometricPrecision; text-rendering:geometricPrecision; image-rendering:optimizeQuality; fill-rule:evenodd; clip-rule:evenodd"
viewBox="0 0 0.737 0.669"
 xmlns:xlink="http://www.w3.org/1999/xlink">
 <defs>
  <style type="text/css">
   <![CDATA[
    .str0 {stroke:#052337;stroke-width:0.035;stroke-linecap:round;stroke-linejoin:round;stroke-miterlimit:2.61313}
    .fil0 {fill:none}
   ]]>
  </style>
 </defs>
 <g id="Layer_x0020_1">
  <metadata id="CorelCorpID_0Corel-Layer"/>
  <g id="_1836614918928">
   <polyline class="fil0 str0" points="0.018,0.652 0.018,0.235 0.372,0.2 "/>
   <path class="fil0 str0" d="M0.088 0.602l0.213 -0.003 0 0.053 -0.213 0 0 -0.05zm0 -0.293l0.213 -0.018 0 0.053 -0.213 0.015 0 -0.05zm0 0.146l0.213 -0.01 0 0.053 -0.213 0.007 0 -0.05z"/>
   <polygon class="fil0 str0" points="0.372,0.2 0.521,0.253 0.521,0.652 0.372,0.652 "/>
   <polyline class="fil0 str0" points="0.318,0.205 0.318,0.046 0.601,0.018 "/>
   <polygon class="fil0 str0" points="0.601,0.018 0.72,0.06 0.72,0.652 0.601,0.652 "/>
  </g>
 </g>
</svg>
