<?xml version="1.0" encoding="UTF-8"?>
<!DOCTYPE svg PUBLIC "-//W3C//DTD SVG 1.1//EN" "http://www.w3.org/Graphics/SVG/1.1/DTD/svg11.dtd">
<!-- Creator: CorelDRAW 2018 (64-Bit) -->
<svg xmlns="http://www.w3.org/2000/svg" xml:space="preserve" width="15px" height="16px" version="1.1" style="shape-rendering:geometricPrecision; text-rendering:geometricPrecision; image-rendering:optimizeQuality; fill-rule:evenodd; clip-rule:evenodd"
viewBox="0 0 0.447 0.481"
 xmlns:xlink="http://www.w3.org/1999/xlink">
 <defs>
  <style type="text/css">
   <![CDATA[
    .fil0 {fill:gray;fill-rule:nonzero}
   ]]>
  </style>
 </defs>
 <g id="Layer_x0020_1">
  <metadata id="CorelCorpID_0Corel-Layer"/>
  <path class="fil0" d="M0.394 0.21c0.006,-0.006 0.016,-0.006 0.022,0 0.006,0.006 0.006,0.016 0,0.022l-0.225 0.225c-0.017,0.016 -0.038,0.024 -0.06,0.024 -0.021,0 -0.043,-0.008 -0.059,-0.024l-0.048 -0.048c-0.016,-0.016 -0.024,-0.037 -0.024,-0.059 0,-0.021 0.008,-0.043 0.024,-0.059l0.277 -0.277c0.009,-0.009 0.022,-0.014 0.035,-0.014 0.012,0 0.025,0.005 0.035,0.014l0.061 0.062c0.01,0.009 0.015,0.022 0.015,0.035 0,0.012 -0.005,0.025 -0.015,0.035l-0.235 0.235c-0.009,0.009 -0.022,0.014 -0.035,0.014 -0.012,0 -0.025,-0.005 -0.035,-0.014l-0.025 -0.026c-0.01,-0.009 -0.015,-0.022 -0.015,-0.035 0,-0.012 0.005,-0.025 0.015,-0.034l0.195 -0.196c0.006,-0.006 0.016,-0.006 0.022,0 0.006,0.006 0.006,0.016 0,0.022l-0.195 0.195c-0.004,0.004 -0.006,0.009 -0.006,0.013 0,0.005 0.002,0.01 0.006,0.014l0.025 0.025c0.003,0.004 0.008,0.006 0.013,0.006 0.005,0 0.01,-0.002 0.014,-0.006l0.235 -0.235c0.003,-0.004 0.005,-0.008 0.005,-0.013 0,-0.005 -0.002,-0.01 -0.006,-0.014l-0.061 -0.061c-0.003,-0.004 -0.008,-0.005 -0.013,-0.005 -0.005,0 -0.01,0.001 -0.014,0.005l-0.276 0.276c-0.01,0.011 -0.015,0.024 -0.015,0.038 0,0.014 0.005,0.027 0.015,0.038l0.048 0.047c0.01,0.011 0.024,0.016 0.037,0.016 0.014,0 0.028,-0.005 0.038,-0.016l0.225 -0.225z"/>
 </g>
</svg>
