<?xml version="1.0" encoding="UTF-8"?>
<!DOCTYPE svg PUBLIC "-//W3C//DTD SVG 1.1//EN" "http://www.w3.org/Graphics/SVG/1.1/DTD/svg11.dtd">
<!-- Creator: CorelDRAW 2018 (64-Bit) -->
<svg xmlns="http://www.w3.org/2000/svg" xml:space="preserve" width="10px" height="15px" version="1.1" style="shape-rendering:geometricPrecision; text-rendering:geometricPrecision; image-rendering:optimizeQuality; fill-rule:evenodd; clip-rule:evenodd"
viewBox="0 0 0.267 0.409"
 xmlns:xlink="http://www.w3.org/1999/xlink">
 <defs>
  <style type="text/css">
   <![CDATA[
    .fil0 {fill:gray;fill-rule:nonzero}
   ]]>
  </style>
 </defs>
 <g id="Layer_x0020_1">
  <metadata id="CorelCorpID_0Corel-Layer"/>
  <g id="_2712935607264">
   <path class="fil0" d="M0.134 0c0.023,0 0.045,0.01 0.061,0.025 0.015,0.016 0.025,0.038 0.025,0.062l0 0.102c0,0.024 -0.01,0.046 -0.025,0.061l-0.001 0.001c-0.016,0.015 -0.037,0.025 -0.06,0.025 -0.024,0 -0.046,-0.01 -0.062,-0.026 -0.015,-0.015 -0.025,-0.037 -0.025,-0.061l0 -0.102c0,-0.024 0.01,-0.046 0.025,-0.062 0.016,-0.015 0.038,-0.025 0.062,-0.025zm0 0.027c-0.017,0 -0.032,0.007 -0.043,0.017 -0.01,0.011 -0.017,0.026 -0.017,0.043l0 0.102c0,0.017 0.007,0.031 0.017,0.042 0.011,0.011 0.026,0.018 0.043,0.018 0.016,0 0.03,-0.007 0.041,-0.017l0.001 -0.001c0.01,-0.011 0.017,-0.025 0.017,-0.042l0 -0.102c0,-0.017 -0.007,-0.032 -0.017,-0.043 -0.011,-0.01 -0.026,-0.017 -0.042,-0.017z"/>
   <path class="fil0" d="M0.101 0.1c0,0.008 -0.006,0.014 -0.013,0.014 -0.008,0 -0.014,-0.006 -0.014,-0.014 0,-0.018 0.007,-0.034 0.017,-0.046 0.011,-0.013 0.026,-0.02 0.043,-0.02 0.007,0 0.013,0.006 0.013,0.013 0,0.008 -0.006,0.014 -0.013,0.014 -0.009,0 -0.017,0.004 -0.023,0.011 -0.006,0.007 -0.01,0.017 -0.01,0.028z"/>
   <path class="fil0" d="M0.24 0.193c0,-0.007 0.006,-0.013 0.014,-0.013 0.007,0 0.013,0.006 0.013,0.013 0,0.037 -0.015,0.07 -0.039,0.094 -0.024,0.025 -0.058,0.04 -0.094,0.04 -0.037,0 -0.071,-0.015 -0.095,-0.039 -0.024,-0.025 -0.039,-0.058 -0.039,-0.095 0,-0.007 0.006,-0.013 0.013,-0.013 0.008,0 0.014,0.006 0.014,0.013 0,0.03 0.012,0.056 0.031,0.076 0.02,0.019 0.046,0.031 0.076,0.031 0.029,0 0.056,-0.012 0.075,-0.031 0.019,-0.02 0.031,-0.046 0.031,-0.076z"/>
   <path class="fil0" d="M0.12 0.313c0,-0.007 0.006,-0.013 0.014,-0.013 0.007,0 0.013,0.006 0.013,0.013l0 0.083c0,0.007 -0.006,0.013 -0.013,0.013 -0.008,0 -0.014,-0.006 -0.014,-0.013l0 -0.083z"/>
   <path class="fil0" d="M0.073 0.409c-0.008,0 -0.014,-0.006 -0.014,-0.013 0,-0.008 0.006,-0.014 0.014,-0.014l0.121 0c0.008,0 0.014,0.006 0.014,0.014 0,0.007 -0.006,0.013 -0.014,0.013l-0.121 0z"/>
  </g>
 </g>
</svg>
