<?xml version="1.0" encoding="UTF-8"?>
<!DOCTYPE svg PUBLIC "-//W3C//DTD SVG 1.1//EN" "http://www.w3.org/Graphics/SVG/1.1/DTD/svg11.dtd">
<!-- Creator: CorelDRAW 2018 (64-Bit) -->
<svg xmlns="http://www.w3.org/2000/svg" xml:space="preserve" width="18px" height="16px" version="1.1" style="shape-rendering:geometricPrecision; text-rendering:geometricPrecision; image-rendering:optimizeQuality; fill-rule:evenodd; clip-rule:evenodd"
viewBox="0 0 1.013 0.91"
 xmlns:xlink="http://www.w3.org/1999/xlink">
 <defs>
  <style type="text/css">
   <![CDATA[
    .fil1 {fill:gray}
    .fil0 {fill:gray;fill-rule:nonzero}
   ]]>
  </style>
 </defs>
 <g id="Layer_x0020_1">
  <metadata id="CorelCorpID_0Corel-Layer"/>
  <g id="_2712949644352">
   <path class="fil0" d="M0.506 0c0.139,0 0.264,0.043 0.356,0.113 0.093,0.071 0.151,0.17 0.151,0.28 0,0.062 -0.019,0.122 -0.053,0.174 -0.031,0.049 -0.075,0.093 -0.129,0.128l0.015 0.185c0.001,0.015 -0.011,0.029 -0.026,0.03 -0.008,0.001 -0.016,-0.003 -0.022,-0.008l-0.135 -0.135c-0.022,0.005 -0.045,0.009 -0.069,0.013 -0.029,0.004 -0.058,0.006 -0.088,0.006 -0.138,0 -0.264,-0.043 -0.355,-0.113 -0.093,-0.071 -0.151,-0.17 -0.151,-0.28 0,-0.11 0.058,-0.209 0.151,-0.28 0.091,-0.07 0.217,-0.113 0.355,-0.113zm0.322 0.157c-0.082,-0.062 -0.196,-0.101 -0.322,-0.101 -0.125,0 -0.239,0.039 -0.321,0.101 -0.08,0.061 -0.129,0.144 -0.129,0.236 0,0.091 0.049,0.175 0.129,0.236 0.082,0.062 0.196,0.101 0.321,0.101 0.028,0 0.055,-0.002 0.081,-0.006 0.025,-0.003 0.051,-0.008 0.075,-0.015 0.01,-0.004 0.021,-0.001 0.029,0.007l0.093 0.092 -0.01 -0.126c-0.001,-0.01 0.004,-0.02 0.013,-0.026 0.053,-0.032 0.097,-0.073 0.126,-0.119 0.028,-0.043 0.044,-0.092 0.044,-0.144 0,-0.092 -0.05,-0.175 -0.129,-0.236z"/>
   <circle class="fil1" cx="0.289" cy="0.394" r="0.056"/>
   <circle class="fil1" cx="0.506" cy="0.394" r="0.056"/>
   <circle class="fil1" cx="0.724" cy="0.394" r="0.056"/>
  </g>
 </g>
</svg>
