<?xml version="1.0" encoding="UTF-8"?>
<!DOCTYPE svg PUBLIC "-//W3C//DTD SVG 1.1//EN" "http://www.w3.org/Graphics/SVG/1.1/DTD/svg11.dtd">
<!-- Creator: CorelDRAW 2018 (64-Bit) -->
<svg xmlns="http://www.w3.org/2000/svg" xml:space="preserve" width="22px" height="22px" version="1.1" style="shape-rendering:geometricPrecision; text-rendering:geometricPrecision; image-rendering:optimizeQuality; fill-rule:evenodd; clip-rule:evenodd"
viewBox="0 0 0.368 0.368"
 xmlns:xlink="http://www.w3.org/1999/xlink">
 <defs>
  <style type="text/css">
   <![CDATA[
    .fil0 {fill:#94CC58;fill-rule:nonzero}
    .fil1 {fill:white;fill-rule:nonzero}
   ]]>
  </style>
 </defs>
 <g id="Layer_x0020_1">
  <metadata id="CorelCorpID_0Corel-Layer"/>
  <rect class="fil0" width="0.368" height="0.368" rx="0.084" ry="0.084"/>
  <path class="fil1" d="M0.157 0.234l-0.081 0 0 -0.013 0.052 -0.069 -0.048 0 0 -0.019 0.077 0 0 0.013 -0.05 0.07 0.05 0 0 0.018zm0.038 0l-0.023 0 0 -0.101 0.023 0 0 0.101zm0.046 -0.034l0 0.034 -0.023 0 0 -0.101 0.035 0c0.026,0 0.039,0.011 0.039,0.033 0,0.01 -0.004,0.018 -0.011,0.024 -0.008,0.006 -0.017,0.01 -0.03,0.01l-0.01 0zm0 -0.049l0 0.031 0.008 0c0.013,0 0.019,-0.005 0.019,-0.016 0,-0.01 -0.006,-0.015 -0.019,-0.015l-0.008 0z"/>
 </g>
</svg>
