<?xml version="1.0" encoding="UTF-8"?>
<!DOCTYPE svg PUBLIC "-//W3C//DTD SVG 1.1//EN" "http://www.w3.org/Graphics/SVG/1.1/DTD/svg11.dtd">
<!-- Creator: CorelDRAW 2018 (64-Bit) -->
<svg xmlns="http://www.w3.org/2000/svg" xml:space="preserve" width="22px" height="22px" version="1.1" style="shape-rendering:geometricPrecision; text-rendering:geometricPrecision; image-rendering:optimizeQuality; fill-rule:evenodd; clip-rule:evenodd"
viewBox="0 0 0.368 0.368"
 xmlns:xlink="http://www.w3.org/1999/xlink">
 <defs>
  <style type="text/css">
   <![CDATA[
    .fil0 {fill:#8C9DFA;fill-rule:nonzero}
    .fil1 {fill:white;fill-rule:nonzero}
   ]]>
  </style>
 </defs>
 <g id="Layer_x0020_1">
  <metadata id="CorelCorpID_0Corel-Layer"/>
  <rect class="fil0" width="0.368" height="0.368" rx="0.084" ry="0.084"/>
  <path class="fil1" d="M0.148 0.234l-0.021 0 0 -0.06c0,-0.007 0.001,-0.014 0.001,-0.022l0 0c-0.001,0.002 -0.001,0.003 -0.002,0.005 0,0.001 0,0.003 -0.001,0.004 0,0.001 -0.001,0.003 -0.001,0.004 0,0.001 -0.001,0.002 -0.001,0.002l-0.019 0.037 -0.016 0 -0.019 -0.037c0,0 0,-0.001 0,-0.002 -0.001,-0.001 -0.001,-0.002 -0.001,-0.003 -0.001,-0.002 -0.001,-0.003 -0.002,-0.005 0,-0.001 0,-0.003 -0.001,-0.005l0 0c0,0.005 0,0.009 0,0.012 0.001,0.004 0.001,0.007 0.001,0.01l0 0.06 -0.021 0 0 -0.101 0.028 0 0.018 0.035c0,0.002 0.001,0.003 0.001,0.004 0.001,0.001 0.001,0.003 0.002,0.004 0,0.001 0.001,0.002 0.001,0.003 0.001,0.002 0.001,0.003 0.001,0.004l0 0c0.001,-0.001 0.001,-0.002 0.001,-0.004 0.001,-0.001 0.001,-0.002 0.001,-0.004 0.001,-0.001 0.001,-0.002 0.002,-0.003 0,-0.002 0.001,-0.003 0.001,-0.004l0.018 -0.035 0.029 0 0 0.101zm0.046 -0.035l0 0.035 -0.023 0 0 -0.101 0.035 0c0.026,0 0.039,0.011 0.039,0.033 0,0.01 -0.004,0.018 -0.011,0.024 -0.008,0.006 -0.017,0.009 -0.03,0.009l-0.01 0zm0 -0.048l0 0.031 0.008 0c0.013,0 0.019,-0.005 0.019,-0.016 0,-0.01 -0.006,-0.015 -0.019,-0.015l-0.008 0zm0.064 0.08l0 -0.019c0.007,0.005 0.015,0.007 0.024,0.007 0.005,0 0.01,-0.001 0.013,-0.004 0.003,-0.002 0.005,-0.006 0.005,-0.01 0,-0.004 -0.002,-0.008 -0.006,-0.01 -0.004,-0.003 -0.009,-0.004 -0.016,-0.004l-0.009 0 0 -0.017 0.008 0c0.013,0 0.02,-0.004 0.02,-0.013 0,-0.008 -0.005,-0.012 -0.015,-0.012 -0.007,0 -0.014,0.002 -0.02,0.006l0 -0.018c0.007,-0.004 0.015,-0.005 0.025,-0.005 0.01,0 0.018,0.002 0.024,0.007 0.006,0.004 0.008,0.01 0.008,0.018 0,0.013 -0.006,0.021 -0.02,0.024l0 0.001c0.007,0.001 0.013,0.003 0.017,0.008 0.004,0.004 0.006,0.009 0.006,0.015 0,0.01 -0.003,0.017 -0.01,0.023 -0.007,0.005 -0.016,0.008 -0.028,0.008 -0.011,0 -0.019,-0.002 -0.026,-0.005z"/>
 </g>
</svg>
