<?xml version="1.0" encoding="UTF-8"?>
<!DOCTYPE svg PUBLIC "-//W3C//DTD SVG 1.1//EN" "http://www.w3.org/Graphics/SVG/1.1/DTD/svg11.dtd">
<!-- Creator: CorelDRAW 2018 (64-Bit) -->
<svg xmlns="http://www.w3.org/2000/svg" xml:space="preserve" width="22px" height="22px" version="1.1" style="shape-rendering:geometricPrecision; text-rendering:geometricPrecision; image-rendering:optimizeQuality; fill-rule:evenodd; clip-rule:evenodd"
viewBox="0 0 0.769 0.769"
 xmlns:xlink="http://www.w3.org/1999/xlink">
 <defs>
  <style type="text/css">
   <![CDATA[
    .fil0 {fill:#54C285;fill-rule:nonzero}
    .fil1 {fill:white;fill-rule:nonzero}
   ]]>
  </style>
 </defs>
 <g id="Layer_x0020_1">
  <metadata id="CorelCorpID_0Corel-Layer"/>
  <path class="fil0" d="M0.175 0l0.419 0c0.096,0 0.175,0.079 0.175,0.175l0 0.419c0,0.096 -0.079,0.175 -0.175,0.175l-0.419 0c-0.096,0 -0.175,-0.079 -0.175,-0.175l0 -0.419c0,-0.096 0.079,-0.175 0.175,-0.175z"/>
  <path class="fil1" d="M0.326 0.49l-0.057 0 -0.036 -0.069c-0.002,-0.002 -0.003,-0.007 -0.004,-0.014l-0.001 0c-0.001,0.003 -0.002,0.008 -0.005,0.015l-0.036 0.068 -0.057 0 0.067 -0.106 -0.061 -0.105 0.058 0 0.03 0.063c0.002,0.005 0.004,0.011 0.006,0.018l0.001 0c0.001,-0.004 0.003,-0.01 0.006,-0.018l0.034 -0.063 0.053 0 -0.064 0.105 0.066 0.106zm0.15 0l-0.125 0 0 -0.211 0.047 0 0 0.172 0.078 0 0 0.039zm0.019 -0.008l0 -0.047c0.009,0.007 0.018,0.012 0.028,0.016 0.01,0.004 0.02,0.005 0.03,0.005 0.006,0 0.012,0 0.016,-0.001 0.004,-0.001 0.008,-0.003 0.011,-0.005 0.003,-0.002 0.005,-0.004 0.007,-0.007 0.001,-0.002 0.002,-0.005 0.002,-0.008 0,-0.004 -0.001,-0.008 -0.003,-0.011 -0.003,-0.003 -0.006,-0.006 -0.01,-0.009 -0.004,-0.003 -0.009,-0.005 -0.015,-0.008 -0.005,-0.003 -0.011,-0.005 -0.018,-0.008 -0.016,-0.007 -0.029,-0.015 -0.037,-0.025 -0.008,-0.01 -0.012,-0.022 -0.012,-0.036 0,-0.011 0.002,-0.02 0.007,-0.028 0.004,-0.008 0.01,-0.015 0.018,-0.02 0.008,-0.005 0.016,-0.009 0.026,-0.011 0.01,-0.002 0.021,-0.004 0.032,-0.004 0.011,0 0.021,0.001 0.029,0.002 0.009,0.002 0.017,0.004 0.024,0.007l0 0.044c-0.004,-0.003 -0.008,-0.005 -0.012,-0.007 -0.004,-0.002 -0.008,-0.003 -0.013,-0.005 -0.004,-0.001 -0.008,-0.002 -0.013,-0.002 -0.004,-0.001 -0.008,-0.001 -0.012,-0.001 -0.006,0 -0.011,0 -0.015,0.001 -0.004,0.001 -0.008,0.003 -0.011,0.005 -0.003,0.002 -0.006,0.004 -0.007,0.006 -0.002,0.003 -0.003,0.006 -0.003,0.009 0,0.004 0.001,0.007 0.003,0.01 0.002,0.002 0.005,0.005 0.008,0.008 0.003,0.002 0.008,0.005 0.013,0.007 0.004,0.002 0.01,0.005 0.016,0.007 0.009,0.004 0.016,0.008 0.023,0.012 0.007,0.004 0.012,0.008 0.017,0.013 0.005,0.005 0.009,0.011 0.011,0.017 0.003,0.007 0.004,0.014 0.004,0.023 0,0.011 -0.002,0.021 -0.007,0.029 -0.004,0.008 -0.01,0.015 -0.018,0.02 -0.007,0.005 -0.016,0.008 -0.026,0.01 -0.011,0.003 -0.021,0.004 -0.033,0.004 -0.011,0 -0.022,-0.001 -0.033,-0.003 -0.01,-0.002 -0.019,-0.005 -0.027,-0.009z"/>
 </g>
</svg>
