<?xml version="1.0" encoding="UTF-8"?>
<!DOCTYPE svg PUBLIC "-//W3C//DTD SVG 1.1//EN" "http://www.w3.org/Graphics/SVG/1.1/DTD/svg11.dtd">
<!-- Creator: CorelDRAW 2018 (64-Bit) -->
<svg xmlns="http://www.w3.org/2000/svg" xml:space="preserve" width="22px" height="22px" version="1.1" style="shape-rendering:geometricPrecision; text-rendering:geometricPrecision; image-rendering:optimizeQuality; fill-rule:evenodd; clip-rule:evenodd"
viewBox="0 0 0.769 0.769"
 xmlns:xlink="http://www.w3.org/1999/xlink">
 <defs>
  <style type="text/css">
   <![CDATA[
    .fil0 {fill:#4C86DE;fill-rule:nonzero}
    .fil1 {fill:white;fill-rule:nonzero}
   ]]>
  </style>
 </defs>
 <g id="Layer_x0020_1">
  <metadata id="CorelCorpID_0Corel-Layer"/>
  <path class="fil0" d="M0.175 0l0.419 0c0.096,0 0.175,0.079 0.175,0.175l0 0.419c0,0.096 -0.079,0.175 -0.175,0.175l-0.419 0c-0.096,0 -0.175,-0.079 -0.175,-0.175l0 -0.419c0,-0.096 0.079,-0.175 0.175,-0.175z"/>
  <path class="fil1" d="M0.083 0.49l0 -0.211 0.075 0c0.075,0 0.113,0.034 0.113,0.103 0,0.033 -0.011,0.059 -0.031,0.079 -0.02,0.019 -0.048,0.029 -0.082,0.029l-0.075 0zm0.048 -0.172l0 0.133 0.024 0c0.02,0 0.036,-0.006 0.048,-0.018 0.012,-0.012 0.018,-0.029 0.018,-0.051 0,-0.02 -0.006,-0.036 -0.018,-0.047 -0.011,-0.012 -0.028,-0.017 -0.049,-0.017l-0.023 0zm0.264 0.176c-0.03,0 -0.055,-0.01 -0.074,-0.03 -0.019,-0.019 -0.029,-0.045 -0.029,-0.077 0,-0.033 0.01,-0.06 0.029,-0.081 0.02,-0.02 0.045,-0.031 0.077,-0.031 0.03,0 0.055,0.01 0.073,0.03 0.019,0.02 0.028,0.046 0.028,0.078 0,0.033 -0.009,0.06 -0.029,0.08 -0.019,0.021 -0.044,0.031 -0.075,0.031zm0.002 -0.178c-0.017,0 -0.03,0.007 -0.04,0.019 -0.01,0.013 -0.014,0.029 -0.014,0.05 0,0.021 0.004,0.037 0.014,0.049 0.01,0.013 0.023,0.019 0.039,0.019 0.016,0 0.029,-0.006 0.039,-0.018 0.009,-0.012 0.014,-0.028 0.014,-0.049 0,-0.022 -0.004,-0.039 -0.014,-0.051 -0.009,-0.013 -0.022,-0.019 -0.038,-0.019zm0.289 0.167c-0.016,0.007 -0.036,0.011 -0.061,0.011 -0.032,0 -0.058,-0.01 -0.076,-0.029 -0.019,-0.019 -0.028,-0.044 -0.028,-0.076 0,-0.034 0.01,-0.061 0.031,-0.082 0.021,-0.021 0.048,-0.032 0.082,-0.032 0.02,0 0.037,0.003 0.052,0.008l0 0.046c-0.015,-0.008 -0.031,-0.013 -0.049,-0.013 -0.019,0 -0.035,0.007 -0.048,0.019 -0.012,0.012 -0.018,0.029 -0.018,0.051 0,0.02 0.006,0.036 0.017,0.048 0.012,0.013 0.027,0.019 0.047,0.019 0.018,0 0.035,-0.005 0.051,-0.014l0 0.044z"/>
 </g>
</svg>
