<?xml version="1.0" encoding="UTF-8"?>
<!DOCTYPE svg PUBLIC "-//W3C//DTD SVG 1.1//EN" "http://www.w3.org/Graphics/SVG/1.1/DTD/svg11.dtd">
<!-- Creator: CorelDRAW 2018 (64-Bit) -->
<svg xmlns="http://www.w3.org/2000/svg" xml:space="preserve" width="22px" height="22px" version="1.1" style="shape-rendering:geometricPrecision; text-rendering:geometricPrecision; image-rendering:optimizeQuality; fill-rule:evenodd; clip-rule:evenodd"
viewBox="0 0 0.769 0.769"
 xmlns:xlink="http://www.w3.org/1999/xlink">
 <defs>
  <style type="text/css">
   <![CDATA[
    .fil0 {fill:#E65940;fill-rule:nonzero}
    .fil1 {fill:white;fill-rule:nonzero}
   ]]>
  </style>
 </defs>
 <g id="Layer_x0020_1">
  <metadata id="CorelCorpID_0Corel-Layer"/>
  <path class="fil0" d="M0.175 0l0.419 0c0.096,0 0.175,0.079 0.175,0.175l0 0.419c0,0.096 -0.079,0.175 -0.175,0.175l-0.419 0c-0.096,0 -0.175,-0.079 -0.175,-0.175l0 -0.419c0,-0.096 0.079,-0.175 0.175,-0.175z"/>
  <path class="fil1" d="M0.167 0.417l0 0.073 -0.047 0 0 -0.211 0.074 0c0.053,0 0.08,0.022 0.08,0.067 0,0.021 -0.008,0.039 -0.023,0.052 -0.015,0.013 -0.035,0.019 -0.061,0.019l-0.023 0zm0 -0.102l0 0.066 0.019 0c0.025,0 0.038,-0.011 0.038,-0.033 0,-0.022 -0.013,-0.033 -0.038,-0.033l-0.019 0zm0.138 0.175l0 -0.211 0.075 0c0.075,0 0.112,0.034 0.112,0.103 0,0.033 -0.01,0.059 -0.03,0.079 -0.021,0.019 -0.048,0.029 -0.082,0.029l-0.075 0zm0.048 -0.172l0 0.133 0.023 0c0.021,0 0.037,-0.006 0.049,-0.018 0.011,-0.012 0.017,-0.029 0.017,-0.051 0,-0.02 -0.006,-0.035 -0.017,-0.047 -0.012,-0.012 -0.028,-0.017 -0.049,-0.017l-0.023 0zm0.296 0l-0.074 0 0 0.052 0.068 0 0 0.038 -0.068 0 0 0.082 -0.048 0 0 -0.211 0.122 0 0 0.039z"/>
 </g>
</svg>
