<?xml version="1.0" encoding="UTF-8"?>
<!DOCTYPE svg PUBLIC "-//W3C//DTD SVG 1.1//EN" "http://www.w3.org/Graphics/SVG/1.1/DTD/svg11.dtd">
<!-- Creator: CorelDRAW 2018 (64-Bit) -->
<svg xmlns="http://www.w3.org/2000/svg" xml:space="preserve" width="17px" height="15px" version="1.1" style="shape-rendering:geometricPrecision; text-rendering:geometricPrecision; image-rendering:optimizeQuality; fill-rule:evenodd; clip-rule:evenodd"
viewBox="0 0 0.906 0.809"
 xmlns:xlink="http://www.w3.org/1999/xlink">
 <defs>
  <style type="text/css">
   <![CDATA[
    .fil0 {fill:#00D4E3}
   ]]>
  </style>
 </defs>
 <g id="Layer_x0020_1">
  <metadata id="CorelCorpID_0Corel-Layer"/>
  <path class="fil0" d="M0.453 0c0.251,0 0.453,0.155 0.453,0.346 0,0.11 -0.067,0.208 -0.173,0.272l0.015 0.191 -0.139 -0.139c-0.048,0.014 -0.101,0.021 -0.156,0.021 -0.25,0 -0.453,-0.155 -0.453,-0.345 0,-0.191 0.203,-0.346 0.453,-0.346zm0.207 0.294c0.029,0 0.053,0.023 0.053,0.053 0,0.029 -0.024,0.053 -0.053,0.053 -0.03,0 -0.053,-0.024 -0.053,-0.053 0,-0.03 0.023,-0.053 0.053,-0.053zm-0.207 0c0.03,0 0.053,0.023 0.053,0.053 0,0.029 -0.023,0.053 -0.053,0.053 -0.029,0 -0.053,-0.024 -0.053,-0.053 0,-0.03 0.024,-0.053 0.053,-0.053zm-0.206 0c0.029,0 0.053,0.023 0.053,0.053 0,0.029 -0.024,0.053 -0.053,0.053 -0.03,0 -0.053,-0.024 -0.053,-0.053 0,-0.03 0.023,-0.053 0.053,-0.053z"/>
 </g>
</svg>
