<?xml version="1.0" encoding="UTF-8"?>
<!DOCTYPE svg PUBLIC "-//W3C//DTD SVG 1.1//EN" "http://www.w3.org/Graphics/SVG/1.1/DTD/svg11.dtd">
<!-- Creator: CorelDRAW 2018 (64-Bit) -->
<svg xmlns="http://www.w3.org/2000/svg" xml:space="preserve" width="26px" height="26px" version="1.1" style="shape-rendering:geometricPrecision; text-rendering:geometricPrecision; image-rendering:optimizeQuality; fill-rule:evenodd; clip-rule:evenodd"
viewBox="0 0 8.895 8.895"
 xmlns:xlink="http://www.w3.org/1999/xlink">
 <defs>
  <style type="text/css">
   <![CDATA[
    .fil0 {fill:gray;fill-rule:nonzero}
   ]]>
  </style>
 </defs>
 <g id="Layer_x0020_1">
  <metadata id="CorelCorpID_0Corel-Layer"/>
  <path class="fil0" d="M0.171 4.618c-0.094,0 -0.171,-0.076 -0.171,-0.171 0,-0.094 0.077,-0.171 0.171,-0.171l4.105 0 0 -4.105c0,-0.094 0.077,-0.171 0.171,-0.171 0.095,0 0.171,0.077 0.171,0.171l0 4.105 4.106 0c0.094,0 0.171,0.077 0.171,0.171 0,0.095 -0.077,0.171 -0.171,0.171l-4.106 0 0 4.106c0,0.094 -0.076,0.171 -0.171,0.171 -0.094,0 -0.171,-0.077 -0.171,-0.171l0 -4.106 -4.105 0z"/>
 </g>
</svg>
