<?xml version="1.0" encoding="UTF-8"?>
<!DOCTYPE svg PUBLIC "-//W3C//DTD SVG 1.1//EN" "http://www.w3.org/Graphics/SVG/1.1/DTD/svg11.dtd">
<!-- Creator: CorelDRAW 2018 (64-Bit) -->
<svg xmlns="http://www.w3.org/2000/svg" xml:space="preserve" width="51px" height="51px" version="1.1" style="shape-rendering:geometricPrecision; text-rendering:geometricPrecision; image-rendering:optimizeQuality; fill-rule:evenodd; clip-rule:evenodd"
viewBox="0 0 2.436 2.436"
 xmlns:xlink="http://www.w3.org/1999/xlink">
 <defs>
  <style type="text/css">
   <![CDATA[
    .fil0 {fill:#00F4FF;fill-rule:nonzero}
   ]]>
  </style>
 </defs>
 <g id="Layer_x0020_1">
  <metadata id="CorelCorpID_0Corel-Layer"/>
  <g id="_3159899009376">
   <path class="fil0" d="M1.021 0c0.282,0 0.537,0.114 0.722,0.299 0.185,0.185 0.299,0.44 0.299,0.722 0,0.282 -0.114,0.537 -0.299,0.722 -0.185,0.185 -0.44,0.299 -0.722,0.299 -0.282,0 -0.537,-0.114 -0.722,-0.299 -0.185,-0.185 -0.299,-0.44 -0.299,-0.722 0,-0.282 0.114,-0.537 0.299,-0.722 0.185,-0.185 0.44,-0.299 0.722,-0.299zm0.688 0.333c-0.176,-0.176 -0.419,-0.285 -0.688,-0.285 -0.269,0 -0.512,0.109 -0.688,0.285 -0.176,0.176 -0.285,0.419 -0.285,0.688 0,0.269 0.109,0.512 0.285,0.688 0.176,0.176 0.419,0.285 0.688,0.285 0.269,0 0.512,-0.109 0.688,-0.285 0.176,-0.176 0.285,-0.419 0.285,-0.688 0,-0.269 -0.109,-0.512 -0.285,-0.688z"/>
   <path class="fil0" d="M1.516 0.431c-0.01,-0.009 -0.011,-0.024 -0.003,-0.034 0.009,-0.01 0.024,-0.012 0.034,-0.003 0.074,0.062 0.135,0.136 0.183,0.218 0.047,0.082 0.08,0.172 0.097,0.267 0.002,0.013 -0.007,0.025 -0.019,0.027 -0.013,0.003 -0.026,-0.006 -0.028,-0.019 -0.016,-0.089 -0.047,-0.174 -0.092,-0.252 -0.044,-0.077 -0.102,-0.146 -0.172,-0.204z"/>
   <path class="fil0" d="M1.709 1.743c-0.009,-0.01 -0.009,-0.025 0,-0.034 0.009,-0.009 0.024,-0.009 0.034,0l0.202 0.202c0.009,0.009 0.009,0.024 0,0.034 -0.01,0.009 -0.025,0.009 -0.034,0l-0.202 -0.202z"/>
   <path class="fil0" d="M1.945 1.945c-0.022,0.021 -0.032,0.05 -0.032,0.078 0,0.029 0.01,0.057 0.032,0.078l0.254 0.255c0.022,0.022 0.05,0.032 0.079,0.032 0.028,0 0.056,-0.01 0.078,-0.032 0.022,-0.021 0.032,-0.05 0.032,-0.078 0,-0.029 -0.01,-0.057 -0.032,-0.079l-0.255 -0.254c-0.021,-0.022 -0.049,-0.032 -0.078,-0.032 -0.028,0 -0.057,0.01 -0.078,0.032zm-0.034 -0.034c0.031,-0.031 0.072,-0.046 0.112,-0.046 0.041,0 0.081,0.015 0.112,0.046l0.255 0.255c0.031,0.031 0.046,0.071 0.046,0.112 0,0.04 -0.015,0.081 -0.046,0.111l0 0.001c-0.031,0.031 -0.072,0.046 -0.112,0.046 -0.041,0 -0.082,-0.015 -0.112,-0.046l-0.255 -0.255c-0.031,-0.031 -0.046,-0.071 -0.046,-0.112 0,-0.04 0.015,-0.081 0.046,-0.112l0 0z"/>
   <path class="fil0" d="M0.823 1.071c-0.004,-0.012 0.003,-0.026 0.015,-0.03 0.013,-0.004 0.026,0.003 0.03,0.015 0.038,0.111 0.008,0.181 -0.054,0.226 -0.058,0.041 -0.145,0.059 -0.23,0.069 -0.017,0.002 -0.035,0.004 -0.051,0.006 -0.082,0.008 -0.109,0.011 -0.187,0.104 -0.009,0.01 -0.024,0.011 -0.034,0.002 -0.01,-0.008 -0.011,-0.023 -0.002,-0.033 0.09,-0.107 0.122,-0.111 0.218,-0.12 0.014,-0.002 0.029,-0.003 0.05,-0.006 0.079,-0.01 0.158,-0.026 0.208,-0.061 0.045,-0.033 0.066,-0.085 0.037,-0.172z"/>
   <path class="fil0" d="M1.161 1.056c0.005,-0.012 0.018,-0.019 0.03,-0.015 0.013,0.004 0.02,0.018 0.015,0.03 -0.029,0.087 -0.008,0.139 0.038,0.172 0.05,0.035 0.129,0.051 0.208,0.061 0.021,0.003 0.036,0.004 0.05,0.006 0.096,0.009 0.127,0.013 0.218,0.12 0.009,0.01 0.007,0.025 -0.003,0.033 -0.01,0.009 -0.025,0.008 -0.033,-0.002 -0.079,-0.093 -0.105,-0.096 -0.187,-0.104 -0.016,-0.002 -0.034,-0.004 -0.051,-0.006 -0.085,-0.01 -0.172,-0.028 -0.23,-0.069 -0.063,-0.045 -0.092,-0.115 -0.055,-0.226z"/>
   <path class="fil0" d="M0.774 0.701l0 0.173c0,0.022 0.006,0.045 0.016,0.068 0.012,0.027 0.03,0.055 0.05,0.079 0.026,0.032 0.055,0.059 0.087,0.077 0.027,0.016 0.057,0.025 0.088,0.026 0.031,-0.001 0.061,-0.01 0.089,-0.026 0.032,-0.018 0.061,-0.045 0.086,-0.077 0.02,-0.024 0.038,-0.052 0.05,-0.079 0.01,-0.023 0.017,-0.046 0.017,-0.068l0 -0.177c-0.001,-0.03 -0.006,-0.063 -0.015,-0.092 -0.008,-0.029 -0.019,-0.054 -0.03,-0.068 -0.01,-0.013 -0.02,-0.022 -0.032,-0.029 -0.011,-0.006 -0.023,-0.01 -0.037,-0.012 -0.01,-0.002 -0.021,-0.003 -0.033,-0.003 -0.072,0 -0.154,0.034 -0.219,0.077 -0.064,0.042 -0.111,0.092 -0.117,0.126 0,0.001 0,0.003 0,0.005zm-0.048 0.173l0 -0.173c0,-0.004 0.001,-0.008 0.001,-0.013 0.008,-0.047 0.063,-0.109 0.137,-0.158 0.073,-0.048 0.164,-0.085 0.246,-0.085 0.014,0 0.027,0.001 0.041,0.004 0.019,0.003 0.037,0.009 0.053,0.018 0.017,0.01 0.032,0.023 0.045,0.04 0.016,0.019 0.029,0.05 0.039,0.085 0.01,0.033 0.016,0.07 0.016,0.104l0 0.178c0,0.029 -0.007,0.058 -0.02,0.087 -0.014,0.032 -0.034,0.062 -0.057,0.09 -0.028,0.036 -0.062,0.067 -0.1,0.088 -0.034,0.02 -0.072,0.032 -0.111,0.032l-0.001 0c-0.04,0 -0.077,-0.012 -0.112,-0.032 -0.037,-0.021 -0.071,-0.052 -0.1,-0.088 -0.022,-0.028 -0.042,-0.058 -0.057,-0.09 -0.012,-0.029 -0.02,-0.058 -0.02,-0.087z"/>
   <path class="fil0" d="M1.28 0.876c-0.013,0 -0.024,-0.011 -0.024,-0.024 0,-0.013 0.011,-0.024 0.024,-0.024 0.01,0 0.019,-0.004 0.026,-0.011 0.006,-0.007 0.01,-0.016 0.01,-0.027 0,-0.01 -0.004,-0.02 -0.01,-0.026l-0.001 -0.001c-0.007,-0.006 -0.015,-0.01 -0.025,-0.01 -0.013,0 -0.024,-0.011 -0.024,-0.024 0,-0.013 0.011,-0.024 0.024,-0.024 0.023,0 0.043,0.009 0.058,0.024l0.002 0.001c0.015,0.016 0.024,0.037 0.024,0.06 0,0.024 -0.009,0.045 -0.024,0.061 -0.016,0.015 -0.037,0.025 -0.06,0.025z"/>
   <path class="fil0" d="M0.75 0.828c0.013,0 0.024,0.011 0.024,0.024 0,0.013 -0.011,0.024 -0.024,0.024 -0.023,0 -0.044,-0.01 -0.06,-0.025 -0.015,-0.016 -0.024,-0.037 -0.024,-0.061 0,-0.023 0.009,-0.044 0.024,-0.06l0.002 -0.001c0.015,-0.015 0.035,-0.024 0.058,-0.024 0.013,0 0.024,0.011 0.024,0.024 0,0.013 -0.011,0.024 -0.024,0.024 -0.01,0 -0.018,0.004 -0.025,0.01l-0.001 0.001c-0.006,0.006 -0.01,0.016 -0.01,0.026 0,0.011 0.004,0.02 0.01,0.027 0.007,0.007 0.016,0.011 0.026,0.011z"/>
   <path class="fil0" d="M1.345 0.764c-0.008,0.01 -0.023,0.013 -0.033,0.005 -0.011,-0.008 -0.013,-0.023 -0.006,-0.033 0.013,-0.017 0.022,-0.038 0.028,-0.06 0.01,-0.039 0.01,-0.083 -0.001,-0.123 -0.012,-0.039 -0.034,-0.076 -0.069,-0.101 -0.016,-0.012 -0.036,-0.022 -0.059,-0.028 -0.009,-0.002 -0.015,-0.009 -0.017,-0.016 -0.012,-0.033 -0.026,-0.053 -0.046,-0.064 -0.021,-0.012 -0.052,-0.016 -0.097,-0.016 -0.039,0 -0.082,0.007 -0.123,0.02 -0.039,0.012 -0.076,0.029 -0.109,0.051 -0.052,0.036 -0.09,0.094 -0.107,0.158 -0.016,0.063 -0.013,0.13 0.016,0.186 0.006,0.011 0.001,0.026 -0.01,0.032 -0.012,0.006 -0.027,0.001 -0.033,-0.01 -0.034,-0.067 -0.038,-0.146 -0.019,-0.22 0.02,-0.074 0.064,-0.143 0.126,-0.186 0.037,-0.024 0.079,-0.044 0.122,-0.057 0.046,-0.014 0.093,-0.021 0.137,-0.022 0.053,0 0.091,0.005 0.121,0.022 0.028,0.017 0.047,0.042 0.063,0.08 0.024,0.007 0.045,0.018 0.063,0.032 0.044,0.032 0.072,0.077 0.086,0.126 0.014,0.049 0.015,0.101 0.002,0.148 -0.007,0.028 -0.019,0.053 -0.035,0.076z"/>
   <path class="fil0" d="M1.305 1.311c-0.038,0.036 -0.084,0.065 -0.134,0.085 -0.049,0.019 -0.101,0.03 -0.156,0.03 -0.055,0 -0.108,-0.011 -0.156,-0.03 -0.051,-0.02 -0.096,-0.049 -0.135,-0.086l0.033 -0.034c0.034,0.032 0.075,0.058 0.119,0.076 0.043,0.017 0.09,0.026 0.139,0.026 0.049,0 0.096,-0.009 0.138,-0.026 0.045,-0.018 0.085,-0.044 0.12,-0.076l0.032 0.035z"/>
  </g>
 </g>
</svg>
