<?xml version="1.0" encoding="UTF-8"?>
<!DOCTYPE svg PUBLIC "-//W3C//DTD SVG 1.1//EN" "http://www.w3.org/Graphics/SVG/1.1/DTD/svg11.dtd">
<!-- Creator: CorelDRAW 2018 (64-Bit) -->
<svg xmlns="http://www.w3.org/2000/svg" xml:space="preserve" width="55px" height="47px" version="1.1" style="shape-rendering:geometricPrecision; text-rendering:geometricPrecision; image-rendering:optimizeQuality; fill-rule:evenodd; clip-rule:evenodd"
viewBox="0 0 4.999 4.318"
 xmlns:xlink="http://www.w3.org/1999/xlink">
 <defs>
  <style type="text/css">
   <![CDATA[
    .fil0 {fill:#00F4FF;fill-rule:nonzero}
   ]]>
  </style>
 </defs>
 <g id="Layer_x0020_1">
  <metadata id="CorelCorpID_0Corel-Layer"/>
  <g id="_3122819761312">
   <path class="fil0" d="M0 1.479l0 -0.422c0,-0.11 0.047,-0.21 0.122,-0.282 0.074,-0.072 0.177,-0.117 0.29,-0.117l3.392 0c0.113,0 0.216,0.045 0.291,0.117 0.075,0.072 0.121,0.172 0.121,0.282l0 0.433c0,0.02 -0.013,0.037 -0.031,0.043 -0.29,0.108 -0.558,0.209 -0.82,0.309 -0.25,0.094 -0.496,0.187 -0.794,0.299l-0.069 0.026c-0.117,0.046 -0.219,0.087 -0.394,0.087 -0.175,0 -0.277,-0.04 -0.393,-0.086l-0.069 -0.027c-0.287,-0.107 -0.535,-0.203 -0.787,-0.301 -0.26,-0.101 -0.525,-0.204 -0.829,-0.318 -0.019,-0.007 -0.03,-0.024 -0.03,-0.043zm0.091 -0.422l0 0.391c0.299,0.111 0.553,0.21 0.801,0.306 0.255,0.1 0.506,0.197 0.786,0.301 0.029,0.011 0.049,0.019 0.068,0.027l0.003 0c0.107,0.043 0.202,0.08 0.359,0.08 0.158,0 0.252,-0.037 0.36,-0.08 0.018,-0.007 0.037,-0.014 0.071,-0.027 0.273,-0.102 0.531,-0.199 0.794,-0.299 0.241,-0.091 0.486,-0.184 0.792,-0.298l0 -0.401c0,-0.084 -0.036,-0.161 -0.094,-0.216 -0.058,-0.056 -0.138,-0.091 -0.227,-0.091l-3.392 0c-0.088,0 -0.169,0.035 -0.227,0.091 -0.058,0.055 -0.093,0.132 -0.094,0.216z"/>
   <path class="fil0" d="M0.366 1.268c0,0.025 -0.02,0.046 -0.045,0.046 -0.026,0 -0.046,-0.021 -0.046,-0.046l0 -0.09c0,-0.074 0.033,-0.141 0.086,-0.19 0.052,-0.048 0.123,-0.077 0.201,-0.077l0.354 0c0.025,0 0.046,0.02 0.046,0.046 0,0.025 -0.021,0.045 -0.046,0.045l-0.354 0c-0.054,0 -0.104,0.021 -0.139,0.053 -0.035,0.032 -0.056,0.076 -0.056,0.123l-0.001 0.09z"/>
   <path class="fil0" d="M2.977 3.667c0.026,0 0.046,0.02 0.046,0.045 0,0.026 -0.02,0.046 -0.046,0.046l-2.504 0c-0.109,0 -0.209,-0.045 -0.282,-0.117 -0.072,-0.072 -0.117,-0.172 -0.117,-0.282l0 -1.513c0,-0.025 0.021,-0.046 0.046,-0.046 0.025,0 0.046,0.021 0.046,0.046l0 1.513c0,0.085 0.035,0.162 0.09,0.217 0.056,0.056 0.133,0.091 0.217,0.091l2.504 0z"/>
   <path class="fil0" d="M4.05 1.856c0,-0.025 0.021,-0.046 0.046,-0.046 0.025,0 0.046,0.021 0.046,0.046l0 0.36c0,0.026 -0.021,0.046 -0.046,0.046 -0.025,0 -0.046,-0.02 -0.046,-0.046l0 -0.36z"/>
   <path class="fil0" d="M2.5 2.117c0,-0.025 0.02,-0.046 0.046,-0.046 0.025,0 0.045,0.021 0.045,0.046l0 0.559c0,0.025 -0.02,0.045 -0.045,0.045l-0.875 0c-0.026,0 -0.046,-0.02 -0.046,-0.045l0 -0.559c0,-0.025 0.02,-0.046 0.046,-0.046 0.025,0 0.045,0.021 0.045,0.046l0 0.513 0.784 0 0 -0.513z"/>
   <path class="fil0" d="M1.285 0.472c0,0.025 -0.021,0.045 -0.046,0.045 -0.026,0 -0.046,-0.02 -0.046,-0.045 0,-0.13 0.053,-0.248 0.138,-0.333 0.086,-0.086 0.204,-0.139 0.333,-0.139l0.888 0c0.129,0 0.247,0.053 0.333,0.139 0.085,0.085 0.138,0.203 0.138,0.333 0,0.025 -0.02,0.045 -0.046,0.045 -0.025,0 -0.045,-0.02 -0.045,-0.045 0,-0.105 -0.043,-0.2 -0.112,-0.269 -0.069,-0.069 -0.164,-0.111 -0.268,-0.111l-0.888 0c-0.104,0 -0.199,0.042 -0.268,0.111 -0.069,0.069 -0.111,0.164 -0.111,0.269z"/>
   <path class="fil0" d="M4.34 2.695c0.037,0.014 0.072,0.031 0.106,0.05 0.034,0.02 0.066,0.042 0.096,0.067l0.26 -0.078c0.02,-0.006 0.04,0.001 0.051,0.017 0.03,0.037 0.056,0.076 0.08,0.117 0.024,0.042 0.045,0.086 0.063,0.131 0.007,0.018 0.001,0.039 -0.013,0.051l-0.197 0.185c0.003,0.015 0.005,0.03 0.007,0.045 0.002,0.024 0.003,0.048 0.003,0.072 0,0.023 -0.001,0.047 -0.003,0.071 -0.002,0.015 -0.004,0.03 -0.007,0.045l0.199 0.186c0.014,0.014 0.017,0.034 0.011,0.05 -0.018,0.045 -0.039,0.089 -0.063,0.131 -0.024,0.042 -0.052,0.082 -0.082,0.119 -0.011,0.015 -0.031,0.021 -0.049,0.015l-0.26 -0.078c-0.03,0.025 -0.062,0.047 -0.096,0.067 -0.034,0.02 -0.069,0.036 -0.106,0.05l-0.062 0.264c-0.004,0.019 -0.02,0.032 -0.038,0.035 -0.023,0.004 -0.047,0.006 -0.072,0.008 -0.024,0.002 -0.048,0.003 -0.072,0.003 -0.024,0 -0.048,-0.001 -0.072,-0.003 -0.024,-0.002 -0.048,-0.004 -0.072,-0.008 -0.019,-0.003 -0.034,-0.018 -0.038,-0.036l-0.062 -0.263c-0.036,-0.014 -0.072,-0.03 -0.106,-0.05 -0.034,-0.02 -0.066,-0.042 -0.096,-0.067l-0.26 0.079c-0.02,0.006 -0.041,-0.003 -0.052,-0.02 -0.029,-0.036 -0.056,-0.075 -0.079,-0.115 -0.024,-0.042 -0.045,-0.086 -0.063,-0.131 -0.007,-0.018 -0.001,-0.039 0.013,-0.051l0.197 -0.185c-0.003,-0.015 -0.005,-0.03 -0.006,-0.045 -0.003,-0.024 -0.004,-0.048 -0.004,-0.071 0,-0.024 0.001,-0.048 0.004,-0.072 0.001,-0.015 0.003,-0.03 0.006,-0.045l-0.198 -0.186c-0.014,-0.014 -0.018,-0.033 -0.012,-0.05 0.018,-0.045 0.039,-0.089 0.063,-0.131 0.024,-0.042 0.052,-0.082 0.082,-0.119 0.012,-0.015 0.031,-0.021 0.049,-0.015l0.26 0.078c0.03,-0.025 0.062,-0.047 0.096,-0.067 0.034,-0.02 0.069,-0.036 0.106,-0.05l0.062 -0.264c0.005,-0.019 0.02,-0.032 0.038,-0.035 0.024,-0.004 0.048,-0.006 0.072,-0.008 0.024,-0.002 0.048,-0.003 0.072,-0.003 0.024,0 0.048,0.001 0.072,0.003 0.025,0.002 0.049,0.004 0.072,0.008 0.02,0.003 0.035,0.018 0.038,0.036l0.062 0.263zm0.06 0.129c-0.035,-0.02 -0.073,-0.037 -0.113,-0.051 -0.015,-0.004 -0.027,-0.017 -0.03,-0.033l-0.061 -0.258 -0.034 -0.003c-0.021,-0.001 -0.043,-0.002 -0.066,-0.002 -0.023,0 -0.045,0.001 -0.066,0.002l-0.034 0.003 -0.06 0.257c-0.003,0.015 -0.014,0.029 -0.031,0.034 -0.04,0.014 -0.078,0.031 -0.113,0.051 -0.035,0.021 -0.069,0.045 -0.099,0.072 -0.012,0.011 -0.029,0.016 -0.046,0.011l-0.253 -0.077c-0.02,0.027 -0.039,0.055 -0.056,0.084 -0.016,0.029 -0.031,0.059 -0.045,0.09l0.194 0.181c0.011,0.011 0.016,0.026 0.013,0.043 -0.004,0.019 -0.007,0.04 -0.009,0.061 -0.002,0.02 -0.003,0.041 -0.003,0.063 0,0.021 0.001,0.042 0.003,0.062 0.002,0.02 0.005,0.04 0.009,0.059 0.004,0.016 -0.001,0.033 -0.013,0.045l-0.194 0.181c0.014,0.031 0.029,0.061 0.045,0.09 0.017,0.029 0.036,0.057 0.055,0.084l0.254 -0.077c0.015,-0.004 0.032,-0.001 0.044,0.01 0.031,0.027 0.065,0.052 0.101,0.073 0.035,0.02 0.073,0.037 0.113,0.051 0.015,0.004 0.027,0.017 0.031,0.033l0.06 0.258 0.034 0.003c0.022,0.001 0.043,0.002 0.066,0.002 0.023,0 0.045,-0.001 0.066,-0.002l0.034 -0.003 0.06 -0.257c0.003,-0.015 0.015,-0.029 0.031,-0.034 0.04,-0.014 0.078,-0.031 0.113,-0.051 0.036,-0.02 0.069,-0.045 0.1,-0.072 0.011,-0.011 0.028,-0.016 0.045,-0.011l0.254 0.077c0.02,-0.027 0.038,-0.055 0.055,-0.084 0.017,-0.029 0.032,-0.059 0.045,-0.09l-0.193 -0.181c-0.011,-0.011 -0.017,-0.026 -0.014,-0.042 0.004,-0.02 0.008,-0.041 0.01,-0.062 0.002,-0.02 0.003,-0.04 0.003,-0.062 0,-0.022 -0.001,-0.043 -0.003,-0.063 -0.002,-0.02 -0.005,-0.04 -0.009,-0.059 -0.004,-0.016 0,-0.033 0.013,-0.045l0.193 -0.181c-0.013,-0.031 -0.028,-0.061 -0.045,-0.09 -0.017,-0.029 -0.035,-0.057 -0.055,-0.084l-0.254 0.077c-0.015,0.004 -0.031,0.001 -0.044,-0.01 -0.031,-0.027 -0.065,-0.052 -0.101,-0.073z"/>
   <path class="fil0" d="M4.096 3.016c0.093,0 0.177,0.037 0.238,0.098 0.06,0.061 0.098,0.145 0.098,0.238 0,0.092 -0.038,0.176 -0.098,0.237 -0.061,0.061 -0.145,0.099 -0.238,0.099 -0.093,0 -0.177,-0.038 -0.237,-0.099 -0.061,-0.061 -0.099,-0.145 -0.099,-0.237 0,-0.093 0.038,-0.177 0.099,-0.238 0.061,-0.061 0.144,-0.098 0.237,-0.098zm0.173 0.163c-0.044,-0.044 -0.105,-0.072 -0.173,-0.072 -0.067,0 -0.129,0.028 -0.173,0.072 -0.044,0.044 -0.071,0.105 -0.071,0.173 0,0.067 0.027,0.128 0.071,0.172 0.045,0.044 0.106,0.072 0.173,0.072 0.068,0 0.129,-0.027 0.173,-0.072 0.044,-0.044 0.071,-0.105 0.071,-0.172 0,-0.068 -0.027,-0.129 -0.071,-0.173z"/>
  </g>
 </g>
</svg>
