<?xml version="1.0" encoding="UTF-8"?>
<!DOCTYPE svg PUBLIC "-//W3C//DTD SVG 1.1//EN" "http://www.w3.org/Graphics/SVG/1.1/DTD/svg11.dtd">
<!-- Creator: CorelDRAW 2018 (64-Bit) -->
<svg xmlns="http://www.w3.org/2000/svg" xml:space="preserve" width="32px" height="41px" version="1.1" style="shape-rendering:geometricPrecision; text-rendering:geometricPrecision; image-rendering:optimizeQuality; fill-rule:evenodd; clip-rule:evenodd"
viewBox="0 0 9.109 11.628"
 xmlns:xlink="http://www.w3.org/1999/xlink">
 <defs>
  <style type="text/css">
   <![CDATA[
    .fil0 {fill:#00F4FF;fill-rule:nonzero}
   ]]>
  </style>
 </defs>
 <g id="Layer_x0020_1">
  <metadata id="CorelCorpID_0Corel-Layer"/>
  <g id="_3122819722784">
   <path class="fil0" d="M9.109 11.198c0,0.118 -0.048,0.225 -0.126,0.303 -0.078,0.079 -0.186,0.127 -0.304,0.127l-8.249 0c-0.119,0 -0.226,-0.048 -0.304,-0.126l-0.009 -0.01c-0.072,-0.077 -0.117,-0.181 -0.117,-0.294l0 -10.768c0,-0.118 0.048,-0.226 0.126,-0.304l0.01 -0.009c0.077,-0.072 0.18,-0.117 0.294,-0.117l6.092 0.001c0.039,0 0.075,0.015 0.1,0.041l2.446 2.445c0.03,0.03 0.044,0.071 0.041,0.111l0 8.6zm-0.327 0.104c0.027,-0.027 0.044,-0.064 0.044,-0.104l0 -8.552 -2.363 -2.363 -6.033 0c-0.038,0.001 -0.072,0.015 -0.098,0.038l-0.005 0.006c-0.027,0.026 -0.043,0.063 -0.043,0.103l0 10.768c0,0.038 0.014,0.072 0.037,0.098l0.006 0.005c0.026,0.027 0.063,0.043 0.103,0.043l8.249 0c0.041,0 0.077,-0.016 0.103,-0.042z"/>
   <path class="fil0" d="M4.771 4.868c-0.078,0 -0.142,-0.064 -0.142,-0.142 0,-0.078 0.064,-0.142 0.142,-0.142l2.827 0c0.078,0 0.142,0.064 0.142,0.142 0,0.078 -0.064,0.142 -0.142,0.142l-2.827 0z"/>
   <path class="fil0" d="M4.771 3.665c-0.078,0 -0.142,-0.064 -0.142,-0.142 0,-0.078 0.064,-0.142 0.142,-0.142l1.413 0c0.079,0 0.142,0.064 0.142,0.142 0,0.078 -0.063,0.142 -0.142,0.142l-1.413 0z"/>
   <path class="fil0" d="M1.512 6.864c-0.079,0 -0.142,-0.064 -0.142,-0.142 0,-0.078 0.063,-0.142 0.142,-0.142l6.086 0c0.078,0 0.142,0.064 0.142,0.142 0,0.078 -0.064,0.142 -0.142,0.142l-6.086 0z"/>
   <path class="fil0" d="M1.512 8.549c-0.079,0 -0.142,-0.063 -0.142,-0.141 0,-0.079 0.063,-0.142 0.142,-0.142l6.086 0c0.078,0 0.142,0.063 0.142,0.142 0,0.078 -0.064,0.141 -0.142,0.141l-6.086 0z"/>
   <path class="fil0" d="M1.512 10.235c-0.079,0 -0.142,-0.064 -0.142,-0.142 0,-0.078 0.063,-0.142 0.142,-0.142l3.791 0c0.078,0 0.141,0.064 0.141,0.142 0,0.078 -0.063,0.142 -0.141,0.142l-3.791 0z"/>
   <path class="fil0" d="M1.814 3.464c0.1,-0.022 0.226,0.014 0.337,0.045l0.084 0.023c0.127,0.031 0.27,0.046 0.416,0.046 0.145,0 0.288,-0.015 0.415,-0.046l0.09 -0.025c0.113,-0.032 0.24,-0.067 0.34,-0.041 0.072,0.019 0.193,0.09 0.28,0.201 0.063,0.079 0.112,0.181 0.122,0.301l0.056 0.645 0.001 0.02c0,0.064 -0.027,0.122 -0.07,0.164 -0.04,0.039 -0.094,0.065 -0.151,0.07 -0.704,0.02 -1.439,0.001 -2.146,0.001l-0.02 -0.001c-0.058,-0.005 -0.112,-0.031 -0.152,-0.07 -0.043,-0.042 -0.07,-0.1 -0.07,-0.164 0.014,-0.221 0.038,-0.444 0.057,-0.665 0.01,-0.12 0.06,-0.222 0.122,-0.301 0.087,-0.111 0.208,-0.182 0.28,-0.201l0.009 -0.002zm0.26 0.318c-0.078,-0.023 -0.167,-0.048 -0.196,-0.043l-0.001 0.001c-0.029,0.007 -0.083,0.042 -0.129,0.102 -0.032,0.041 -0.058,0.092 -0.063,0.15l-0.051 0.592 2.033 0 -0.051 -0.592c-0.005,-0.058 -0.03,-0.109 -0.062,-0.15 -0.047,-0.06 -0.101,-0.095 -0.13,-0.102 -0.026,-0.007 -0.113,0.018 -0.191,0.04l-0.006 0.002c-0.027,0.007 -0.055,0.015 -0.095,0.025 -0.153,0.036 -0.318,0.055 -0.481,0.055 -0.164,0 -0.329,-0.019 -0.482,-0.055 -0.04,-0.01 -0.068,-0.018 -0.095,-0.025z"/>
   <path class="fil0" d="M2.647 1.596c0.254,0 0.485,0.104 0.651,0.27l0.008 0.009c0.162,0.166 0.262,0.393 0.262,0.643 0,0.255 -0.103,0.485 -0.27,0.652 -0.166,0.167 -0.397,0.27 -0.651,0.27 -0.254,0 -0.485,-0.103 -0.652,-0.27 -0.167,-0.167 -0.27,-0.397 -0.27,-0.652 0,-0.254 0.103,-0.484 0.27,-0.651l0.001 -0.001c0.167,-0.167 0.397,-0.27 0.651,-0.27zm0.451 0.471c-0.116,-0.116 -0.275,-0.187 -0.451,-0.187 -0.177,0 -0.337,0.071 -0.452,0.186 -0.115,0.116 -0.187,0.276 -0.187,0.452 0,0.176 0.072,0.336 0.187,0.451 0.115,0.116 0.275,0.187 0.452,0.187 0.176,0 0.335,-0.071 0.451,-0.187 0.115,-0.115 0.187,-0.275 0.187,-0.451 0,-0.173 -0.069,-0.33 -0.18,-0.445l-0.007 -0.006z"/>
   <path class="fil0" d="M8.625 2.445l-1.961 -1.961 0 1.809c0,0.041 0.017,0.08 0.045,0.107 0.028,0.028 0.066,0.045 0.108,0.045l1.808 0zm-2.002 -2.403l2.443 2.443c0.027,0.026 0.043,0.062 0.043,0.102 0,0.078 -0.063,0.142 -0.142,0.142l-2.15 0c-0.12,0 -0.229,-0.049 -0.308,-0.128 -0.079,-0.079 -0.128,-0.188 -0.128,-0.308l0 -2.151c0,-0.036 0.014,-0.073 0.041,-0.1 0.056,-0.056 0.145,-0.056 0.201,0z"/>
  </g>
 </g>
</svg>
