<?xml version="1.0" encoding="UTF-8"?>
<!DOCTYPE svg PUBLIC "-//W3C//DTD SVG 1.1//EN" "http://www.w3.org/Graphics/SVG/1.1/DTD/svg11.dtd">
<!-- Creator: CorelDRAW 2018 (64-Bit) -->
<svg xmlns="http://www.w3.org/2000/svg" xml:space="preserve" width="18px" height="14px" version="1.1" style="shape-rendering:geometricPrecision; text-rendering:geometricPrecision; image-rendering:optimizeQuality; fill-rule:evenodd; clip-rule:evenodd"
viewBox="0 0 0.74 0.561"
 xmlns:xlink="http://www.w3.org/1999/xlink">
 <defs>
  <style type="text/css">
   <![CDATA[
    .fil0 {fill:gray;fill-rule:nonzero}
   ]]>
  </style>
 </defs>
 <g id="Layer_x0020_1">
  <metadata id="CorelCorpID_0Corel-Layer"/>
  <g id="_3160351875728">
   <path class="fil0" d="M0.113 0.298c0,0.011 -0.009,0.02 -0.02,0.02 -0.011,0 -0.02,-0.009 -0.02,-0.02 0,-0.083 0.033,-0.157 0.087,-0.211 0.054,-0.054 0.128,-0.087 0.21,-0.087 0.059,0 0.115,0.017 0.162,0.048 0.048,0.031 0.086,0.075 0.11,0.129 0.005,0.01 0,0.021 -0.01,0.026 -0.01,0.004 -0.022,0 -0.026,-0.01 -0.021,-0.047 -0.055,-0.085 -0.095,-0.111 -0.041,-0.027 -0.09,-0.042 -0.141,-0.042 -0.071,0 -0.135,0.029 -0.182,0.075 -0.046,0.047 -0.075,0.111 -0.075,0.183z"/>
   <path class="fil0" d="M0.711 0.171l-0.029 0.131c-0.002,0.011 -0.013,0.018 -0.024,0.015 -0.004,-0.001 -0.007,-0.003 -0.01,-0.006l-0.098 -0.089c-0.008,-0.008 -0.009,-0.02 -0.001,-0.029 0.002,-0.002 0.005,-0.004 0.008,-0.005l0.129 -0.041c0.01,-0.003 0.021,0.003 0.025,0.013 0.001,0.004 0.001,0.007 0,0.011zm-0.06 0.089l0.014 -0.064 -0.063 0.019 0.049 0.045z"/>
   <path class="fil0" d="M0.036 0.375l0.114 0c0.01,0 0.018,0.004 0.025,0.011 0.006,0.006 0.01,0.015 0.01,0.025l0 0.114c0,0.01 -0.004,0.019 -0.01,0.025 -0.007,0.007 -0.015,0.011 -0.025,0.011l-0.114 0c-0.01,0 -0.019,-0.004 -0.026,-0.011 -0.006,-0.006 -0.01,-0.015 -0.01,-0.025l0 -0.114c0,-0.01 0.004,-0.019 0.01,-0.025 0.007,-0.007 0.016,-0.011 0.026,-0.011zm0.109 0.04l-0.105 0 0 0.106 0.105 0 0 -0.106z"/>
   <path class="fil0" d="M0.591 0.375l0.114 0c0.01,0 0.019,0.004 0.025,0.011 0.006,0.006 0.01,0.015 0.01,0.025l0 0.114c0,0.01 -0.004,0.019 -0.01,0.025 -0.007,0.007 -0.015,0.011 -0.025,0.011l-0.114 0c-0.01,0 -0.019,-0.004 -0.025,-0.011 -0.007,-0.006 -0.011,-0.015 -0.011,-0.025l0 -0.114c0,-0.01 0.004,-0.019 0.011,-0.025 0.006,-0.007 0.015,-0.011 0.025,-0.011zm0.109 0.04l-0.105 0 0 0.106 0.105 0 0 -0.106z"/>
   <path class="fil0" d="M0.313 0.375l0.114 0c0.01,0 0.019,0.004 0.025,0.011 0.007,0.006 0.011,0.015 0.011,0.025l0 0.114c0,0.01 -0.004,0.019 -0.011,0.025 -0.006,0.007 -0.015,0.011 -0.025,0.011l-0.114 0c-0.01,0 -0.019,-0.004 -0.025,-0.011 -0.006,-0.006 -0.01,-0.015 -0.01,-0.025l0 -0.114c0,-0.01 0.004,-0.019 0.01,-0.025 0.006,-0.007 0.015,-0.011 0.025,-0.011zm0.11 0.04l-0.105 0 0 0.106 0.105 0 0 -0.106z"/>
  </g>
 </g>
</svg>
