<?xml version="1.0" encoding="UTF-8"?>
<!DOCTYPE svg PUBLIC "-//W3C//DTD SVG 1.1//EN" "http://www.w3.org/Graphics/SVG/1.1/DTD/svg11.dtd">
<!-- Creator: CorelDRAW 2018 (64-Bit) -->
<svg xmlns="http://www.w3.org/2000/svg" xml:space="preserve" width="22px" height="21px" version="1.1" style="shape-rendering:geometricPrecision; text-rendering:geometricPrecision; image-rendering:optimizeQuality; fill-rule:evenodd; clip-rule:evenodd"
viewBox="0 0 1.596 1.499"
 xmlns:xlink="http://www.w3.org/1999/xlink">
 <defs>
  <style type="text/css">
   <![CDATA[
    .fil0 {fill:gray;fill-rule:nonzero}
   ]]>
  </style>
 </defs>
 <g id="Layer_x0020_1">
  <metadata id="CorelCorpID_0Corel-Layer"/>
  <g id="_3159899013792">
   <path class="fil0" d="M0.798 0.133c0.184,0 0.35,0.074 0.471,0.194 0.12,0.121 0.195,0.287 0.195,0.471 0,0.184 -0.075,0.35 -0.195,0.471 -0.121,0.12 -0.287,0.195 -0.471,0.195 -0.184,0 -0.35,-0.075 -0.47,-0.195 -0.121,-0.121 -0.195,-0.287 -0.195,-0.471 0,-0.184 0.074,-0.35 0.195,-0.471 0.12,-0.12 0.286,-0.194 0.47,-0.194zm0.42 0.245c-0.107,-0.108 -0.256,-0.174 -0.42,-0.174 -0.164,0 -0.312,0.066 -0.42,0.174 -0.107,0.107 -0.174,0.256 -0.174,0.42 0,0.164 0.067,0.313 0.174,0.42 0.108,0.108 0.256,0.174 0.42,0.174 0.164,0 0.313,-0.066 0.42,-0.174 0.108,-0.107 0.174,-0.256 0.174,-0.42 0,-0.164 -0.066,-0.313 -0.174,-0.42z"/>
   <path class="fil0" d="M1.133 0.427c0.014,-0.014 0.037,-0.014 0.051,0 0.014,0.014 0.014,0.036 0,0.05l-0.303 0.303c-0.014,0.014 -0.037,0.014 -0.051,0 -0.014,-0.014 -0.014,-0.036 0,-0.05l0.303 -0.303z"/>
   <path class="fil0" d="M0.751 0.738c0.017,0.01 0.023,0.032 0.013,0.049 -0.01,0.017 -0.032,0.022 -0.049,0.013l-0.229 -0.133c-0.017,-0.01 -0.023,-0.032 -0.013,-0.049 0.01,-0.017 0.031,-0.023 0.048,-0.013l0.23 0.133z"/>
   <path class="fil0" d="M0.798 0.763c-0.01,0 -0.019,0.004 -0.025,0.01 -0.006,0.006 -0.01,0.015 -0.01,0.025 0,0.01 0.004,0.019 0.01,0.025 0.007,0.007 0.015,0.01 0.025,0.01 0.01,0 0.019,-0.003 0.025,-0.01 0.007,-0.006 0.011,-0.015 0.011,-0.025 0,-0.01 -0.004,-0.019 -0.011,-0.025 -0.006,-0.006 -0.015,-0.01 -0.025,-0.01zm-0.075 -0.04c0.019,-0.02 0.046,-0.032 0.075,-0.032 0.03,0 0.056,0.012 0.076,0.032 0.019,0.019 0.031,0.046 0.031,0.075 0,0.03 -0.012,0.056 -0.031,0.076 -0.02,0.019 -0.046,0.031 -0.076,0.031 -0.029,0 -0.056,-0.012 -0.075,-0.031 -0.02,-0.02 -0.032,-0.047 -0.032,-0.076 0,-0.029 0.012,-0.056 0.032,-0.075z"/>
   <path class="fil0" d="M0.762 0.32c0,-0.02 0.016,-0.036 0.036,-0.036 0.02,0 0.036,0.016 0.036,0.036l0 0.044c0,0.02 -0.016,0.036 -0.036,0.036 -0.02,0 -0.036,-0.016 -0.036,-0.036l0 -0.044z"/>
   <path class="fil0" d="M0.32 0.834c-0.02,0 -0.036,-0.016 -0.036,-0.036 0,-0.02 0.016,-0.036 0.036,-0.036l0.044 0c0.02,0 0.036,0.016 0.036,0.036 0,0.02 -0.016,0.036 -0.036,0.036l-0.044 0z"/>
   <path class="fil0" d="M0.834 1.277c0,0.019 -0.016,0.035 -0.036,0.035 -0.02,0 -0.036,-0.016 -0.036,-0.035l0 -0.045c0,-0.019 0.016,-0.035 0.036,-0.035 0.02,0 0.036,0.016 0.036,0.035l0 0.045z"/>
   <path class="fil0" d="M1.277 0.762c0.019,0 0.035,0.016 0.035,0.036 0,0.02 -0.016,0.036 -0.035,0.036l-0.045 0c-0.019,0 -0.035,-0.016 -0.035,-0.036 0,-0.02 0.016,-0.036 0.035,-0.036l0.045 0z"/>
   <path class="fil0" d="M1.146 0.125c-0.015,0.013 -0.037,0.011 -0.05,-0.004 -0.013,-0.015 -0.011,-0.038 0.004,-0.05 0.027,-0.023 0.058,-0.041 0.091,-0.053 0.033,-0.012 0.068,-0.018 0.103,-0.018 0.084,0 0.159,0.034 0.214,0.088 0.054,0.055 0.088,0.131 0.088,0.214 0,0.035 -0.006,0.07 -0.018,0.103 -0.012,0.033 -0.03,0.064 -0.052,0.091 -0.013,0.015 -0.036,0.017 -0.051,0.004 -0.015,-0.012 -0.017,-0.035 -0.004,-0.05 0.017,-0.021 0.031,-0.044 0.04,-0.069 0.009,-0.025 0.014,-0.052 0.014,-0.079 0,-0.064 -0.026,-0.121 -0.068,-0.163 -0.041,-0.042 -0.099,-0.068 -0.163,-0.068 -0.027,0 -0.054,0.005 -0.079,0.014 -0.025,0.009 -0.048,0.023 -0.069,0.04z"/>
   <path class="fil0" d="M0.496 0.071c0.015,0.012 0.017,0.035 0.004,0.05 -0.012,0.015 -0.035,0.017 -0.05,0.004 -0.021,-0.017 -0.044,-0.031 -0.069,-0.04 -0.025,-0.009 -0.052,-0.014 -0.079,-0.014 -0.064,0 -0.122,0.026 -0.163,0.068 -0.042,0.041 -0.068,0.099 -0.068,0.163 0,0.027 0.005,0.054 0.014,0.079 0.009,0.025 0.023,0.048 0.04,0.069 0.013,0.015 0.011,0.038 -0.004,0.05 -0.015,0.013 -0.038,0.011 -0.05,-0.004 -0.023,-0.027 -0.041,-0.058 -0.053,-0.091 -0.012,-0.033 -0.018,-0.068 -0.018,-0.103 0,-0.083 0.034,-0.159 0.088,-0.213 0.055,-0.055 0.131,-0.089 0.214,-0.089 0.035,0 0.07,0.006 0.103,0.018 0.033,0.012 0.064,0.03 0.091,0.053z"/>
   <path class="fil0" d="M1.134 1.329c-0.011,-0.017 -0.006,-0.039 0.01,-0.049 0.017,-0.011 0.039,-0.006 0.05,0.01l0.098 0.153c0.01,0.017 0.006,0.039 -0.011,0.049 -0.017,0.011 -0.039,0.006 -0.049,-0.01l-0.098 -0.153z"/>
   <path class="fil0" d="M0.402 1.289c0.011,-0.016 0.033,-0.021 0.049,-0.01 0.017,0.01 0.022,0.032 0.011,0.049l-0.1 0.155c-0.01,0.016 -0.032,0.021 -0.049,0.01 -0.016,-0.01 -0.021,-0.032 -0.011,-0.049l0.1 -0.155z"/>
  </g>
 </g>
</svg>
