<?xml version="1.0" encoding="UTF-8"?>
<!DOCTYPE svg PUBLIC "-//W3C//DTD SVG 1.1//EN" "http://www.w3.org/Graphics/SVG/1.1/DTD/svg11.dtd">
<!-- Creator: CorelDRAW 2018 (64-Bit) -->
<svg xmlns="http://www.w3.org/2000/svg" xml:space="preserve" width="25px" height="25px" version="1.1" style="shape-rendering:geometricPrecision; text-rendering:geometricPrecision; image-rendering:optimizeQuality; fill-rule:evenodd; clip-rule:evenodd"
viewBox="0 0 0.548 0.537"
 xmlns:xlink="http://www.w3.org/1999/xlink">
 <defs>
  <style type="text/css">
   <![CDATA[
    .fil2 {fill:#00F4FF}
    .fil0 {fill:white}
    .fil1 {fill:#052337;fill-rule:nonzero}
   ]]>
  </style>
 </defs>
 <g id="Layer_x0020_1">
  <metadata id="CorelCorpID_0Corel-Layer"/>
  <g id="_3122901663488">
   <rect class="fil0" x="0.011" y="0.011" width="0.526" height="0.414" rx="0.016" ry="0.019"/>
   <path class="fil1" d="M0.03 0l0.488 0c0.008,0 0.015,0.003 0.021,0.009 0.005,0.005 0.009,0.013 0.009,0.021l0 0.375c0,0.008 -0.004,0.016 -0.009,0.021 -0.006,0.006 -0.013,0.009 -0.021,0.009l-0.488 0c-0.008,0 -0.016,-0.003 -0.021,-0.009 -0.006,-0.005 -0.009,-0.013 -0.009,-0.021l0 -0.375c0,-0.008 0.003,-0.016 0.009,-0.021l0.001 -0.001c0.005,-0.005 0.012,-0.008 0.02,-0.008zm0.488 0.021l-0.488 0c-0.002,0 -0.004,0.001 -0.006,0.003l0 0c-0.002,0.002 -0.003,0.004 -0.003,0.006l0 0.375c0,0.002 0.001,0.004 0.003,0.006 0.002,0.002 0.004,0.003 0.006,0.003l0.488 0c0.002,0 0.004,-0.001 0.006,-0.003 0.001,-0.002 0.002,-0.004 0.002,-0.006l0 -0.375c0,-0.002 -0.001,-0.004 -0.002,-0.006 -0.002,-0.002 -0.004,-0.003 -0.006,-0.003z"/>
   <polygon class="fil2" points="0.348,0.349 0.459,0.349 0.459,0.526 0.403,0.466 0.348,0.526 "/>
   <path class="fil1" d="M0.348 0.339l0.111 0c0.006,0 0.011,0.005 0.011,0.01l0 0.177c0,0.006 -0.005,0.011 -0.011,0.011 -0.003,0 -0.006,-0.001 -0.008,-0.004l-0.048 -0.051 -0.048 0.052c-0.004,0.004 -0.01,0.004 -0.015,0 -0.002,-0.002 -0.003,-0.005 -0.003,-0.008l0 -0.177c0,-0.005 0.005,-0.01 0.011,-0.01zm0.101 0.021l-0.091 0 0 0.139c0.013,-0.013 0.025,-0.028 0.038,-0.041 0.005,-0.004 0.011,-0.003 0.015,0.001l0.038 0.04 0 -0.139z"/>
   <circle class="fil2" cx="0.403" cy="0.323" r="0.09"/>
   <path class="fil1" d="M0.403 0.222c0.028,0 0.053,0.012 0.072,0.03 0.018,0.018 0.029,0.043 0.029,0.071 0,0.028 -0.011,0.053 -0.029,0.071 -0.019,0.018 -0.044,0.03 -0.072,0.03 -0.027,0 -0.052,-0.012 -0.071,-0.03 -0.018,-0.018 -0.029,-0.043 -0.029,-0.071 0,-0.028 0.011,-0.053 0.029,-0.071 0.019,-0.018 0.044,-0.03 0.071,-0.03zm0.056 0.045c-0.014,-0.014 -0.034,-0.023 -0.056,-0.023 -0.021,0 -0.041,0.009 -0.056,0.023 -0.014,0.014 -0.023,0.034 -0.023,0.056 0,0.022 0.009,0.042 0.023,0.056 0.015,0.014 0.035,0.023 0.056,0.023 0.022,0 0.042,-0.009 0.056,-0.023 0.015,-0.014 0.024,-0.034 0.024,-0.056 0,-0.022 -0.009,-0.042 -0.024,-0.056z"/>
   <path class="fil1" d="M0.271 0.249c0.006,0 0.01,0.005 0.01,0.011 0,0.006 -0.004,0.01 -0.01,0.01l-0.188 0c-0.006,0 -0.011,-0.004 -0.011,-0.01 0,-0.006 0.005,-0.011 0.011,-0.011l0.188 0z"/>
   <path class="fil1" d="M0.274 0.333c0.006,0 0.011,0.005 0.011,0.011 0,0.006 -0.005,0.01 -0.011,0.01l-0.191 0c-0.006,0 -0.011,-0.004 -0.011,-0.01 0,-0.006 0.005,-0.011 0.011,-0.011l0.191 0z"/>
   <path class="fil1" d="M0.465 0.165c0.006,0 0.011,0.005 0.011,0.01 0,0.006 -0.005,0.011 -0.011,0.011l-0.382 0c-0.006,0 -0.011,-0.005 -0.011,-0.011 0,-0.005 0.005,-0.01 0.011,-0.01l0.382 0z"/>
   <path class="fil1" d="M0.368 0.081c0.006,0 0.011,0.004 0.011,0.01 0,0.006 -0.005,0.011 -0.011,0.011l-0.188 0c-0.006,0 -0.011,-0.005 -0.011,-0.011 0,-0.006 0.005,-0.01 0.011,-0.01l0.188 0z"/>
  </g>
 </g>
</svg>
