<?xml version="1.0" encoding="UTF-8"?>
<!DOCTYPE svg PUBLIC "-//W3C//DTD SVG 1.1//EN" "http://www.w3.org/Graphics/SVG/1.1/DTD/svg11.dtd">
<!-- Creator: CorelDRAW 2018 (64-Bit) -->
<svg xmlns="http://www.w3.org/2000/svg" xml:space="preserve" width="28px" height="25px" version="1.1" style="shape-rendering:geometricPrecision; text-rendering:geometricPrecision; image-rendering:optimizeQuality; fill-rule:evenodd; clip-rule:evenodd"
viewBox="0 0 0.667 0.602"
 xmlns:xlink="http://www.w3.org/1999/xlink">
 <defs>
  <style type="text/css">
   <![CDATA[
    .fil0 {fill:#00F4FF}
    .fil3 {fill:#052337}
    .fil2 {fill:white}
    .fil1 {fill:#052337;fill-rule:nonzero}
   ]]>
  </style>
 </defs>
 <g id="Layer_x0020_1">
  <metadata id="CorelCorpID_0Corel-Layer"/>
  <g id="_3160019179904">
   <polygon class="fil0" points="0.655,0.082 0.655,0.153 0.654,0.156 0.654,0.16 0.652,0.163 0.65,0.167 0.648,0.17 0.645,0.173 0.642,0.177 0.638,0.18 0.634,0.183 0.629,0.186 0.624,0.189 0.618,0.192 0.612,0.195 0.606,0.197 0.599,0.2 0.592,0.202 0.584,0.205 0.577,0.207 0.569,0.209 0.56,0.211 0.552,0.213 0.543,0.214 0.533,0.216 0.524,0.217 0.514,0.219 0.504,0.22 0.494,0.221 0.484,0.221 0.473,0.222 0.462,0.222 0.451,0.223 0.44,0.223 0.429,0.223 0.419,0.222 0.408,0.222 0.397,0.221 0.387,0.221 0.377,0.22 0.367,0.219 0.357,0.217 0.348,0.216 0.338,0.214 0.329,0.213 0.321,0.211 0.312,0.209 0.304,0.207 0.296,0.205 0.289,0.202 0.282,0.2 0.275,0.197 0.269,0.195 0.263,0.192 0.257,0.189 0.252,0.186 0.247,0.183 0.243,0.18 0.239,0.177 0.236,0.173 0.233,0.17 0.231,0.167 0.229,0.163 0.227,0.16 0.227,0.156 0.226,0.153 0.226,0.082 0.227,0.086 0.227,0.089 0.229,0.093 0.231,0.096 0.233,0.1 0.236,0.103 0.239,0.106 0.243,0.11 0.247,0.113 0.252,0.116 0.257,0.119 0.263,0.122 0.269,0.124 0.275,0.127 0.282,0.13 0.289,0.132 0.296,0.134 0.304,0.136 0.312,0.139 0.321,0.141 0.329,0.142 0.338,0.144 0.348,0.146 0.357,0.147 0.367,0.148 0.377,0.149 0.387,0.15 0.397,0.151 0.408,0.152 0.419,0.152 0.429,0.152 0.44,0.153 0.451,0.152 0.462,0.152 0.473,0.152 0.484,0.151 0.494,0.15 0.504,0.149 0.514,0.148 0.524,0.147 0.533,0.146 0.543,0.144 0.552,0.142 0.56,0.141 0.569,0.139 0.577,0.136 0.584,0.134 0.592,0.132 0.599,0.13 0.606,0.127 0.612,0.124 0.618,0.122 0.624,0.119 0.629,0.116 0.634,0.113 0.638,0.11 0.642,0.106 0.645,0.103 0.648,0.1 0.65,0.096 0.652,0.093 0.654,0.089 0.654,0.086 "/>
   <path class="fil1" d="M0.667 0.082l0 0.071 -0.001 0.004c0,0.001 0,0.002 0,0.003l-0.001 0.002 -0.002 0.006c-0.001,0.003 -0.003,0.006 -0.005,0.009 -0.003,0.003 -0.005,0.005 -0.008,0.008 -0.003,0.003 -0.006,0.005 -0.009,0.008 -0.004,0.002 -0.008,0.004 -0.011,0.006 -0.096,0.047 -0.29,0.05 -0.384,-0.003 -0.003,-0.002 -0.007,-0.004 -0.01,-0.006 -0.007,-0.006 -0.01,-0.009 -0.015,-0.016 -0.001,-0.002 -0.002,-0.004 -0.003,-0.006l-0.002 -0.004 0 -0.002 -0.001 -0.003 0 -0.002c-0.002,-0.023 -0.001,-0.051 -0.001,-0.075 0,-0.006 0.006,-0.012 0.012,-0.012 0.007,0 0.012,0.005 0.012,0.012l0 0.002 0.001 0.002 0.001 0.002 0.001 0.002 0.002 0.003 0.002 0.002 0.002 0.003 0.003 0.002c0.003,0.002 0.005,0.004 0.008,0.005 0.003,0.002 0.006,0.004 0.01,0.006l0.005 0.002c0.005,0.002 0.009,0.004 0.013,0.005l0.014 0.005c0.005,0.001 0.01,0.003 0.015,0.004l0.017 0.004 0.008 0.001 0.009 0.002 0.019 0.002 0.02 0.002c0.014,0.001 0.028,0.002 0.042,0.002l0.01 0.001 0.011 -0.001 0.011 0 0.01 0 0.011 -0.001c0.006,0 0.013,-0.001 0.02,-0.002l0.019 -0.002c0.009,-0.001 0.018,-0.003 0.027,-0.004l0.008 -0.002c0.006,-0.001 0.011,-0.003 0.016,-0.004l0.015 -0.004c0.004,-0.002 0.009,-0.003 0.013,-0.005l0.006 -0.003c0.004,-0.001 0.007,-0.003 0.011,-0.005 0.003,-0.001 0.006,-0.003 0.008,-0.005 0.003,-0.002 0.005,-0.003 0.007,-0.005l0.003 -0.003 0.002 -0.002 0.002 -0.003 0.001 -0.002 0.001 -0.002 0 -0.002 0.001 -0.003c0,-0.006 0.006,-0.011 0.013,-0.011 0.006,0.001 0.011,0.006 0.011,0.012zm-0.024 0.07l0 -0.031c-0.003,0.002 -0.006,0.003 -0.008,0.005 -0.092,0.053 -0.289,0.05 -0.384,0.003 -0.004,-0.002 -0.009,-0.005 -0.013,-0.008l0 0.031 0 0.002 0.001 0.002 0.001 0.002 0.001 0.002 0.002 0.003 0.002 0.002 0.002 0.003 0.003 0.002 0.004 0.003c0.003,0.002 0.006,0.004 0.009,0.006 0.004,0.001 0.007,0.003 0.01,0.005l0.007 0.002c0.004,0.002 0.008,0.003 0.013,0.005 0.005,0.001 0.01,0.003 0.014,0.004 0.006,0.002 0.011,0.003 0.016,0.004l0.009 0.002c0.022,0.004 0.043,0.007 0.066,0.008l0.011 0.001 0.01 0 0.011 0.001 0.01 0 0.011 0c0.021,-0.001 0.041,-0.002 0.062,-0.004 0.006,-0.001 0.012,-0.002 0.019,-0.003l0.009 -0.002 0.008 -0.001 0.017 -0.004c0.005,-0.001 0.01,-0.003 0.015,-0.004 0.005,-0.001 0.009,-0.003 0.014,-0.005 0.004,-0.001 0.008,-0.003 0.012,-0.004l0.006 -0.003c0.003,-0.002 0.006,-0.003 0.01,-0.005 0.003,-0.002 0.005,-0.004 0.008,-0.006l0.002 -0.002 0.003 -0.003 0.002 -0.002 0.002 -0.003 0.001 -0.002 0.001 -0.002 0 -0.002 0.001 -0.002z"/>
   <polygon class="fil0" points="0.655,0.153 0.655,0.223 0.654,0.226 0.654,0.23 0.652,0.234 0.65,0.237 0.648,0.24 0.645,0.244 0.642,0.247 0.638,0.25 0.634,0.253 0.629,0.256 0.624,0.259 0.618,0.262 0.612,0.265 0.606,0.268 0.599,0.27 0.592,0.273 0.584,0.275 0.577,0.277 0.569,0.279 0.56,0.281 0.552,0.283 0.543,0.285 0.533,0.286 0.524,0.288 0.514,0.289 0.504,0.29 0.494,0.291 0.484,0.292 0.473,0.292 0.462,0.293 0.451,0.293 0.44,0.293 0.429,0.293 0.419,0.293 0.408,0.292 0.397,0.292 0.387,0.291 0.377,0.29 0.367,0.289 0.357,0.288 0.348,0.286 0.338,0.285 0.329,0.283 0.321,0.281 0.312,0.279 0.304,0.277 0.296,0.275 0.289,0.273 0.282,0.27 0.275,0.268 0.269,0.265 0.263,0.262 0.257,0.259 0.252,0.256 0.247,0.253 0.243,0.25 0.239,0.247 0.236,0.244 0.233,0.24 0.231,0.237 0.229,0.234 0.227,0.23 0.227,0.226 0.226,0.223 0.226,0.153 0.227,0.156 0.227,0.16 0.229,0.163 0.231,0.167 0.233,0.17 0.236,0.173 0.239,0.177 0.243,0.18 0.247,0.183 0.252,0.186 0.257,0.189 0.263,0.192 0.269,0.195 0.275,0.197 0.282,0.2 0.289,0.202 0.296,0.205 0.304,0.207 0.312,0.209 0.321,0.211 0.329,0.213 0.338,0.214 0.348,0.216 0.357,0.217 0.367,0.219 0.377,0.22 0.387,0.221 0.397,0.221 0.408,0.222 0.419,0.222 0.429,0.223 0.44,0.223 0.451,0.223 0.462,0.222 0.473,0.222 0.484,0.221 0.494,0.221 0.504,0.22 0.514,0.219 0.524,0.217 0.533,0.216 0.543,0.214 0.552,0.213 0.56,0.211 0.569,0.209 0.577,0.207 0.584,0.205 0.592,0.202 0.599,0.2 0.606,0.197 0.612,0.195 0.618,0.192 0.624,0.189 0.629,0.186 0.634,0.183 0.638,0.18 0.642,0.177 0.645,0.173 0.648,0.17 0.65,0.167 0.652,0.163 0.654,0.16 0.654,0.156 "/>
   <path class="fil1" d="M0.667 0.153l0 0.07 -0.001 0.004c0,0.001 0,0.002 0,0.003l-0.001 0.003 -0.002 0.005c-0.001,0.004 -0.003,0.006 -0.005,0.009 -0.003,0.003 -0.005,0.006 -0.008,0.009 -0.007,0.005 -0.013,0.009 -0.02,0.014 -0.093,0.045 -0.308,0.052 -0.394,-0.01 -0.003,-0.003 -0.006,-0.005 -0.008,-0.008 -0.003,-0.003 -0.005,-0.005 -0.007,-0.008 -0.001,-0.002 -0.002,-0.004 -0.003,-0.006l-0.002 -0.004 0 -0.001 -0.001 -0.004 0 -0.002c-0.002,-0.023 -0.001,-0.051 -0.001,-0.074 0,-0.007 0.006,-0.012 0.012,-0.012 0.007,0 0.012,0.005 0.012,0.011l0 0.002 0.001 0.002 0.001 0.002 0.001 0.002 0.002 0.003 0.002 0.002 0.002 0.003 0.003 0.002c0.003,0.002 0.005,0.004 0.008,0.006 0.003,0.002 0.006,0.003 0.01,0.005l0.005 0.003c0.005,0.001 0.009,0.003 0.013,0.004l0.014 0.005c0.005,0.001 0.01,0.003 0.015,0.004l0.017 0.004 0.008 0.001 0.009 0.002 0.019 0.003 0.02 0.002c0.014,0.001 0.028,0.001 0.042,0.002l0.01 0 0.011 0 0.011 -0.001 0.01 0 0.011 -0.001c0.006,0 0.013,-0.001 0.02,-0.001l0.019 -0.003c0.009,-0.001 0.018,-0.002 0.027,-0.004l0.008 -0.002c0.006,-0.001 0.011,-0.002 0.016,-0.004l0.015 -0.004c0.004,-0.002 0.009,-0.003 0.013,-0.005l0.006 -0.002c0.004,-0.002 0.007,-0.004 0.011,-0.005 0.003,-0.002 0.006,-0.004 0.008,-0.006l0.005 -0.003 0.002 -0.002 0.003 -0.003 0.002 -0.002 0.002 -0.003 0.001 -0.002 0.001 -0.002 0 -0.002 0.001 -0.002c0,-0.007 0.006,-0.012 0.013,-0.011 0.006,0 0.011,0.005 0.011,0.012zm-0.024 0.07l0 -0.032c-0.003,0.002 -0.006,0.004 -0.008,0.005 -0.092,0.053 -0.289,0.05 -0.384,0.003 -0.004,-0.002 -0.009,-0.005 -0.013,-0.008l0 0.032 0 0.002 0.001 0.002 0.001 0.002 0.001 0.001 0.002 0.003 0.002 0.002 0.002 0.003 0.003 0.002 0.004 0.003 0.004 0.003 0.005 0.003 0.005 0.002c0.004,0.002 0.008,0.004 0.012,0.005 0.004,0.002 0.008,0.004 0.013,0.005l0.007 0.002 0.007 0.002c0.006,0.002 0.011,0.003 0.016,0.004l0.009 0.002c0.022,0.004 0.043,0.007 0.066,0.009l0.011 0 0.01 0.001 0.011 0 0.01 0 0.011 0c0.021,-0.001 0.041,-0.002 0.062,-0.004 0.006,-0.001 0.012,-0.002 0.019,-0.003l0.009 -0.001 0.008 -0.002 0.017 -0.004c0.005,-0.001 0.01,-0.002 0.015,-0.004 0.005,-0.001 0.009,-0.003 0.014,-0.004 0.004,-0.002 0.008,-0.003 0.012,-0.005l0.006 -0.003c0.003,-0.002 0.006,-0.003 0.01,-0.005l0.004 -0.003 0.004 -0.003 0.002 -0.002 0.003 -0.003 0.002 -0.002 0.002 -0.003 0.001 -0.001 0.001 -0.002 0 -0.002 0.001 -0.002z"/>
   <polygon class="fil0" points="0.655,0.223 0.655,0.293 0.654,0.297 0.654,0.3 0.652,0.304 0.65,0.307 0.648,0.311 0.645,0.314 0.642,0.317 0.638,0.32 0.634,0.324 0.629,0.327 0.624,0.33 0.618,0.332 0.612,0.335 0.606,0.338 0.599,0.34 0.592,0.343 0.584,0.345 0.577,0.347 0.569,0.349 0.56,0.351 0.552,0.353 0.543,0.355 0.533,0.356 0.524,0.358 0.514,0.359 0.504,0.36 0.494,0.361 0.484,0.362 0.473,0.363 0.462,0.363 0.451,0.363 0.44,0.363 0.429,0.363 0.419,0.363 0.408,0.363 0.397,0.362 0.387,0.361 0.377,0.36 0.367,0.359 0.357,0.358 0.348,0.356 0.338,0.355 0.329,0.353 0.321,0.351 0.312,0.349 0.304,0.347 0.296,0.345 0.289,0.343 0.282,0.34 0.275,0.338 0.269,0.335 0.263,0.332 0.257,0.33 0.252,0.327 0.247,0.324 0.243,0.32 0.239,0.317 0.236,0.314 0.233,0.311 0.231,0.307 0.229,0.304 0.227,0.3 0.227,0.297 0.226,0.293 0.226,0.223 0.227,0.226 0.227,0.23 0.229,0.234 0.231,0.237 0.233,0.24 0.236,0.244 0.239,0.247 0.243,0.25 0.247,0.253 0.252,0.256 0.257,0.259 0.263,0.262 0.269,0.265 0.275,0.268 0.282,0.27 0.289,0.273 0.296,0.275 0.304,0.277 0.312,0.279 0.321,0.281 0.329,0.283 0.338,0.285 0.348,0.286 0.357,0.288 0.367,0.289 0.377,0.29 0.387,0.291 0.397,0.292 0.408,0.292 0.419,0.293 0.429,0.293 0.44,0.293 0.451,0.293 0.462,0.293 0.473,0.292 0.484,0.292 0.494,0.291 0.504,0.29 0.514,0.289 0.524,0.288 0.533,0.286 0.543,0.285 0.552,0.283 0.56,0.281 0.569,0.279 0.577,0.277 0.584,0.275 0.592,0.273 0.599,0.27 0.606,0.268 0.612,0.265 0.618,0.262 0.624,0.259 0.629,0.256 0.634,0.253 0.638,0.25 0.642,0.247 0.645,0.244 0.648,0.24 0.65,0.237 0.652,0.234 0.654,0.23 0.654,0.226 "/>
   <path class="fil1" d="M0.667 0.223l0 0.07 -0.001 0.005c0,0 0,0.001 0,0.002l-0.001 0.003 -0.002 0.005c-0.001,0.004 -0.003,0.006 -0.005,0.01 -0.003,0.003 -0.005,0.005 -0.008,0.008 -0.079,0.067 -0.331,0.064 -0.414,0.004 -0.003,-0.002 -0.006,-0.005 -0.008,-0.007 -0.003,-0.003 -0.005,-0.006 -0.007,-0.009 -0.001,-0.002 -0.002,-0.004 -0.003,-0.006l-0.002 -0.003 0 -0.002 -0.001 -0.004 0 -0.001c-0.002,-0.024 -0.001,-0.051 -0.001,-0.075 0,-0.007 0.006,-0.012 0.012,-0.012 0.007,0 0.012,0.005 0.012,0.011l0 0.003 0.001 0.002 0.001 0.002 0.001 0.001 0.002 0.003 0.002 0.002 0.002 0.003 0.003 0.002 0.004 0.003 0.004 0.003c0.004,0.002 0.007,0.004 0.01,0.005l0.005 0.003c0.005,0.002 0.009,0.003 0.013,0.005l0.014 0.004c0.005,0.002 0.01,0.003 0.015,0.004l0.017 0.004 0.008 0.002 0.009 0.001 0.019 0.003 0.02 0.002c0.014,0.001 0.028,0.002 0.042,0.002l0.01 0 0.011 0 0.011 0 0.01 -0.001 0.011 0c0.006,-0.001 0.013,-0.001 0.02,-0.002l0.019 -0.002c0.009,-0.002 0.018,-0.003 0.027,-0.005l0.008 -0.002c0.006,-0.001 0.011,-0.002 0.016,-0.004l0.008 -0.002 0.007 -0.002c0.004,-0.001 0.009,-0.003 0.013,-0.005l0.006 -0.002c0.004,-0.002 0.007,-0.003 0.011,-0.005l0.005 -0.003 0.004 -0.003 0.004 -0.003 0.002 -0.002 0.003 -0.003 0.002 -0.002 0.002 -0.003 0.001 -0.001 0.001 -0.002 0 -0.002 0.001 -0.003c0,-0.007 0.006,-0.012 0.013,-0.011 0.006,0 0.011,0.006 0.011,0.012zm-0.024 0.07l0 -0.031c-0.084,0.06 -0.301,0.052 -0.392,0.008 -0.004,-0.003 -0.008,-0.005 -0.013,-0.008l0 0.031 0 0.002 0.001 0.002 0.001 0.002 0.001 0.002 0.002 0.002 0.002 0.003 0.002 0.003 0.003 0.002 0.004 0.003 0.004 0.002 0.005 0.003c0.004,0.002 0.007,0.003 0.01,0.005l0.007 0.003c0.004,0.001 0.008,0.003 0.013,0.004l0.007 0.003 0.007 0.002c0.006,0.001 0.011,0.002 0.016,0.004l0.009 0.001c0.009,0.002 0.018,0.004 0.027,0.005 0.006,0.001 0.013,0.002 0.019,0.002 0.007,0.001 0.013,0.001 0.02,0.002l0.011 0.001 0.01 0 0.011 0 0.01 0 0.011 0c0.021,0 0.041,-0.002 0.062,-0.004 0.006,-0.001 0.012,-0.002 0.019,-0.002l0.009 -0.002 0.008 -0.002 0.017 -0.003c0.005,-0.002 0.01,-0.003 0.015,-0.004 0.005,-0.002 0.009,-0.003 0.014,-0.005 0.004,-0.002 0.008,-0.003 0.012,-0.005 0.004,-0.002 0.007,-0.003 0.011,-0.005l0.005 -0.003 0.004 -0.002 0.004 -0.003 0.002 -0.003 0.003 -0.002 0.002 -0.003 0.002 -0.002 0.001 -0.002 0.001 -0.002 0 -0.002 0.001 -0.002z"/>
   <polygon class="fil0" points="0.655,0.293 0.655,0.363 0.654,0.367 0.654,0.371 0.652,0.374 0.65,0.378 0.648,0.381 0.645,0.384 0.642,0.388 0.638,0.391 0.634,0.394 0.629,0.397 0.624,0.4 0.618,0.403 0.612,0.405 0.606,0.408 0.599,0.411 0.592,0.413 0.584,0.415 0.577,0.418 0.569,0.42 0.56,0.422 0.552,0.423 0.543,0.425 0.533,0.427 0.524,0.428 0.514,0.429 0.504,0.43 0.494,0.431 0.484,0.432 0.473,0.433 0.462,0.433 0.451,0.434 0.44,0.434 0.429,0.434 0.419,0.433 0.408,0.433 0.397,0.432 0.387,0.431 0.377,0.43 0.367,0.429 0.357,0.428 0.348,0.427 0.338,0.425 0.329,0.423 0.321,0.422 0.312,0.42 0.304,0.418 0.296,0.415 0.289,0.413 0.282,0.411 0.275,0.408 0.269,0.405 0.263,0.403 0.257,0.4 0.252,0.397 0.247,0.394 0.243,0.391 0.239,0.388 0.236,0.384 0.233,0.381 0.231,0.378 0.229,0.374 0.227,0.371 0.227,0.367 0.226,0.363 0.226,0.293 0.227,0.297 0.227,0.3 0.229,0.304 0.231,0.307 0.233,0.311 0.236,0.314 0.239,0.317 0.243,0.32 0.247,0.324 0.252,0.327 0.257,0.33 0.263,0.332 0.269,0.335 0.275,0.338 0.282,0.34 0.289,0.343 0.296,0.345 0.304,0.347 0.312,0.349 0.321,0.351 0.329,0.353 0.338,0.355 0.348,0.356 0.357,0.358 0.367,0.359 0.377,0.36 0.387,0.361 0.397,0.362 0.408,0.363 0.419,0.363 0.429,0.363 0.44,0.363 0.451,0.363 0.462,0.363 0.473,0.363 0.484,0.362 0.494,0.361 0.504,0.36 0.514,0.359 0.524,0.358 0.533,0.356 0.543,0.355 0.552,0.353 0.56,0.351 0.569,0.349 0.577,0.347 0.584,0.345 0.592,0.343 0.599,0.34 0.606,0.338 0.612,0.335 0.618,0.332 0.624,0.33 0.629,0.327 0.634,0.324 0.638,0.32 0.642,0.317 0.645,0.314 0.648,0.311 0.65,0.307 0.652,0.304 0.654,0.3 0.654,0.297 "/>
   <path class="fil1" d="M0.667 0.293l0 0.07 -0.001 0.005c0,0.001 0,0.002 0,0.002l-0.001 0.003 0 0.002 -0.002 0.003c-0.001,0.004 -0.003,0.006 -0.005,0.01 -0.003,0.003 -0.005,0.005 -0.008,0.008 -0.079,0.067 -0.331,0.064 -0.414,0.004 -0.007,-0.005 -0.01,-0.008 -0.015,-0.016 -0.001,0 -0.001,-0.001 -0.001,-0.001 -0.002,-0.003 -0.003,-0.005 -0.004,-0.008l0 -0.002 -0.001 -0.003 0 -0.002c-0.002,-0.024 -0.001,-0.051 -0.001,-0.075 0,-0.007 0.006,-0.012 0.012,-0.012 0.007,0 0.012,0.005 0.012,0.012l0 0.002 0.001 0.002 0.001 0.002 0.001 0.002 0.002 0.002 0.002 0.003 0.002 0.003 0.003 0.002 0.004 0.003 0.004 0.002c0.003,0.002 0.006,0.004 0.01,0.005l0.005 0.003c0.005,0.002 0.009,0.003 0.013,0.005l0.014 0.005c0.005,0.001 0.01,0.002 0.015,0.004l0.017 0.003 0.008 0.002 0.009 0.002c0.007,0 0.013,0.001 0.019,0.002l0.02 0.002c0.014,0.001 0.028,0.002 0.042,0.002l0.01 0 0.011 0 0.011 0 0.01 0 0.011 -0.001c0.006,-0.001 0.013,-0.001 0.02,-0.002l0.019 -0.002c0.009,-0.001 0.018,-0.003 0.027,-0.005l0.008 -0.001c0.006,-0.002 0.011,-0.003 0.016,-0.004l0.008 -0.002 0.007 -0.003c0.004,-0.001 0.009,-0.003 0.013,-0.004l0.006 -0.003 0.006 -0.002 0.005 -0.003 0.005 -0.003 0.004 -0.002 0.004 -0.003 0.002 -0.003 0.003 -0.002 0.002 -0.003 0.002 -0.002 0.001 -0.002 0.001 -0.002 0 -0.002 0.001 -0.003c0,-0.006 0.006,-0.011 0.013,-0.011 0.006,0.001 0.011,0.006 0.011,0.012zm-0.024 0.07l0 -0.031c-0.085,0.061 -0.301,0.053 -0.392,0.008 -0.004,-0.003 -0.008,-0.005 -0.013,-0.008l0 0.031 0 0.002 0.001 0.002 0.001 0.002 0.001 0.002 0.002 0.003 0.002 0.002 0.002 0.003 0.003 0.002 0.004 0.003 0.004 0.002 0.005 0.003c0.004,0.002 0.007,0.004 0.01,0.005l0.007 0.003c0.004,0.002 0.008,0.003 0.013,0.005 0.005,0.001 0.01,0.003 0.014,0.004 0.006,0.001 0.011,0.003 0.016,0.004l0.009 0.002c0.015,0.003 0.03,0.005 0.046,0.007 0.007,0 0.013,0.001 0.02,0.001l0.011 0.001 0.01 0 0.011 0.001 0.01 0 0.011 0c0.021,-0.001 0.041,-0.002 0.062,-0.005 0.006,0 0.012,-0.001 0.019,-0.002l0.009 -0.002 0.008 -0.001c0.006,-0.001 0.011,-0.003 0.017,-0.004 0.005,-0.001 0.01,-0.003 0.015,-0.004 0.005,-0.002 0.009,-0.003 0.014,-0.005 0.004,-0.001 0.008,-0.003 0.012,-0.005 0.004,-0.001 0.007,-0.003 0.011,-0.005l0.005 -0.003 0.004 -0.002 0.004 -0.003 0.002 -0.002 0.003 -0.003 0.002 -0.002 0.002 -0.003 0.001 -0.002 0.001 -0.002 0 -0.002 0.001 -0.002z"/>
   <polygon class="fil0" points="0.655,0.363 0.655,0.434 0.654,0.437 0.654,0.441 0.652,0.444 0.65,0.448 0.648,0.451 0.645,0.455 0.642,0.458 0.638,0.461 0.634,0.464 0.629,0.467 0.624,0.47 0.618,0.473 0.612,0.476 0.606,0.478 0.599,0.481 0.592,0.483 0.584,0.486 0.577,0.488 0.569,0.49 0.56,0.492 0.552,0.494 0.543,0.495 0.533,0.497 0.524,0.498 0.514,0.5 0.504,0.501 0.494,0.502 0.484,0.502 0.473,0.503 0.462,0.504 0.451,0.504 0.44,0.504 0.429,0.504 0.419,0.504 0.408,0.503 0.397,0.502 0.387,0.502 0.377,0.501 0.367,0.5 0.357,0.498 0.348,0.497 0.338,0.495 0.329,0.494 0.321,0.492 0.312,0.49 0.304,0.488 0.296,0.486 0.289,0.483 0.282,0.481 0.275,0.478 0.269,0.476 0.263,0.473 0.257,0.47 0.252,0.467 0.247,0.464 0.243,0.461 0.239,0.458 0.236,0.455 0.233,0.451 0.231,0.448 0.229,0.444 0.227,0.441 0.227,0.437 0.226,0.434 0.226,0.363 0.227,0.367 0.227,0.371 0.229,0.374 0.231,0.378 0.233,0.381 0.236,0.384 0.239,0.388 0.243,0.391 0.247,0.394 0.252,0.397 0.257,0.4 0.263,0.403 0.269,0.405 0.275,0.408 0.282,0.411 0.289,0.413 0.296,0.415 0.304,0.418 0.312,0.42 0.321,0.422 0.329,0.423 0.338,0.425 0.348,0.427 0.357,0.428 0.367,0.429 0.377,0.43 0.387,0.431 0.397,0.432 0.408,0.433 0.419,0.433 0.429,0.434 0.44,0.434 0.451,0.434 0.462,0.433 0.473,0.433 0.484,0.432 0.494,0.431 0.504,0.43 0.514,0.429 0.524,0.428 0.533,0.427 0.543,0.425 0.552,0.423 0.56,0.422 0.569,0.42 0.577,0.418 0.584,0.415 0.592,0.413 0.599,0.411 0.606,0.408 0.612,0.405 0.618,0.403 0.624,0.4 0.629,0.397 0.634,0.394 0.638,0.391 0.642,0.388 0.645,0.384 0.648,0.381 0.65,0.378 0.652,0.374 0.654,0.371 0.654,0.367 "/>
   <path class="fil1" d="M0.667 0.363l0 0.071 -0.001 0.004c0,0.001 0,0.002 0,0.003l-0.001 0.003 0 0.002 -0.002 0.003c-0.001,0.003 -0.003,0.006 -0.005,0.009 -0.003,0.003 -0.005,0.006 -0.008,0.008 -0.079,0.067 -0.331,0.064 -0.414,0.005 -0.007,-0.006 -0.01,-0.009 -0.015,-0.016 -0.001,-0.001 -0.001,-0.002 -0.001,-0.002 -0.002,-0.003 -0.003,-0.005 -0.004,-0.008l0 -0.001 -0.001 -0.004 0 -0.002c-0.002,-0.023 -0.001,-0.051 -0.001,-0.075 0,-0.006 0.006,-0.012 0.012,-0.012 0.007,0 0.012,0.006 0.012,0.012l0 0.002 0.001 0.002 0.001 0.002 0.001 0.002 0.002 0.003 0.002 0.002 0.002 0.003 0.003 0.002 0.004 0.003 0.004 0.002c0.003,0.002 0.006,0.004 0.01,0.006l0.005 0.002c0.005,0.002 0.009,0.004 0.013,0.005l0.014 0.005c0.005,0.001 0.01,0.003 0.015,0.004l0.017 0.004 0.008 0.001 0.009 0.002 0.019 0.002 0.02 0.002c0.014,0.002 0.028,0.002 0.042,0.003l0.01 0 0.011 0 0.011 -0.001 0.01 0 0.011 -0.001c0.006,0 0.013,-0.001 0.02,-0.001l0.019 -0.003c0.009,-0.001 0.018,-0.003 0.027,-0.004l0.008 -0.002c0.006,-0.001 0.011,-0.003 0.016,-0.004l0.015 -0.004c0.004,-0.002 0.009,-0.003 0.013,-0.005l0.006 -0.003 0.006 -0.002 0.005 -0.003 0.005 -0.003 0.004 -0.002 0.004 -0.003 0.002 -0.002 0.003 -0.003 0.002 -0.002 0.002 -0.003 0.001 -0.002 0.001 -0.002 0 -0.002 0.001 -0.003c0,-0.006 0.006,-0.011 0.013,-0.011 0.006,0.001 0.011,0.006 0.011,0.012zm-0.024 0.07l0 -0.031c-0.085,0.061 -0.301,0.053 -0.392,0.008 -0.004,-0.002 -0.008,-0.005 -0.013,-0.008l0 0.031 0 0.003 0.001 0.001 0.001 0.002 0.001 0.002 0.002 0.003 0.002 0.002 0.002 0.003c0.003,0.002 0.005,0.003 0.007,0.005l0.004 0.003 0.005 0.003c0.004,0.001 0.007,0.003 0.01,0.005l0.007 0.002c0.004,0.002 0.008,0.003 0.013,0.005 0.005,0.002 0.01,0.003 0.014,0.004 0.006,0.002 0.011,0.003 0.016,0.004l0.009 0.002c0.015,0.003 0.03,0.005 0.046,0.007 0.007,0 0.013,0.001 0.02,0.002l0.011 0 0.01 0.001 0.011 0 0.01 0 0.011 0c0.021,-0.001 0.041,-0.002 0.062,-0.004 0.006,-0.001 0.012,-0.002 0.019,-0.003l0.009 -0.001 0.008 -0.002c0.006,-0.001 0.011,-0.002 0.017,-0.004 0.005,-0.001 0.01,-0.002 0.015,-0.004 0.005,-0.001 0.009,-0.003 0.014,-0.004 0.004,-0.002 0.008,-0.004 0.012,-0.005 0.004,-0.002 0.007,-0.004 0.011,-0.006l0.005 -0.002 0.004 -0.003 0.004 -0.003 0.002 -0.002 0.003 -0.003 0.002 -0.002 0.002 -0.003 0.001 -0.002 0.001 -0.002 0 -0.001 0.001 -0.003z"/>
   <polygon class="fil2" points="0.44,0.012 0.451,0.012 0.462,0.012 0.473,0.013 0.484,0.013 0.494,0.014 0.504,0.015 0.514,0.016 0.524,0.018 0.533,0.019 0.543,0.02 0.552,0.022 0.56,0.024 0.569,0.026 0.577,0.028 0.584,0.03 0.592,0.033 0.599,0.035 0.606,0.038 0.612,0.04 0.618,0.043 0.624,0.046 0.629,0.049 0.634,0.052 0.638,0.055 0.642,0.058 0.645,0.061 0.648,0.065 0.65,0.068 0.652,0.072 0.654,0.075 0.654,0.079 0.655,0.082 0.654,0.086 0.654,0.089 0.652,0.093 0.65,0.096 0.648,0.1 0.645,0.103 0.642,0.106 0.638,0.11 0.634,0.113 0.629,0.116 0.624,0.119 0.618,0.122 0.612,0.124 0.606,0.127 0.599,0.13 0.592,0.132 0.584,0.134 0.577,0.136 0.569,0.139 0.56,0.141 0.552,0.142 0.543,0.144 0.533,0.146 0.524,0.147 0.514,0.148 0.504,0.149 0.494,0.15 0.484,0.151 0.473,0.152 0.462,0.152 0.451,0.152 0.44,0.153 0.429,0.152 0.419,0.152 0.408,0.152 0.397,0.151 0.387,0.15 0.377,0.149 0.367,0.148 0.357,0.147 0.348,0.146 0.338,0.144 0.329,0.142 0.321,0.141 0.312,0.139 0.304,0.136 0.296,0.134 0.289,0.132 0.282,0.13 0.275,0.127 0.269,0.124 0.263,0.122 0.257,0.119 0.252,0.116 0.247,0.113 0.243,0.11 0.239,0.106 0.236,0.103 0.233,0.1 0.231,0.096 0.229,0.093 0.227,0.089 0.227,0.086 0.226,0.082 0.227,0.079 0.227,0.075 0.229,0.072 0.231,0.068 0.233,0.065 0.236,0.061 0.239,0.058 0.243,0.055 0.247,0.052 0.252,0.049 0.257,0.046 0.263,0.043 0.269,0.04 0.275,0.038 0.282,0.035 0.289,0.033 0.296,0.03 0.304,0.028 0.312,0.026 0.321,0.024 0.329,0.022 0.338,0.02 0.348,0.019 0.357,0.018 0.367,0.016 0.377,0.015 0.387,0.014 0.397,0.013 0.408,0.013 0.419,0.012 0.429,0.012 "/>
   <path class="fil1" d="M0.441 0c0.061,0.001 0.153,0.008 0.204,0.045 0.006,0.006 0.01,0.009 0.015,0.016 0.002,0.004 0.003,0.006 0.005,0.01l0 0.001 0.001 0.004 0 0.002 0.001 0.003 0 0.002 -0.001 0.004c0,0.001 0,0.001 0,0.002l-0.001 0.003 0 0.002 -0.002 0.003c-0.001,0.004 -0.003,0.006 -0.005,0.01 -0.003,0.003 -0.005,0.005 -0.008,0.008 -0.003,0.003 -0.006,0.005 -0.009,0.007 -0.004,0.003 -0.008,0.005 -0.011,0.007 -0.096,0.047 -0.29,0.05 -0.384,-0.003 -0.003,-0.002 -0.007,-0.004 -0.01,-0.007 -0.007,-0.005 -0.01,-0.009 -0.015,-0.016 -0.002,-0.003 -0.003,-0.005 -0.005,-0.009l0 -0.002 -0.001 -0.003 0 -0.002 -0.001 -0.004 0 -0.002 0.001 -0.003c0,-0.001 0,-0.002 0,-0.003l0.001 -0.003 0 -0.002 0.002 -0.003c0.001,-0.003 0.003,-0.006 0.005,-0.009 0.003,-0.003 0.005,-0.006 0.008,-0.009 0.049,-0.04 0.149,-0.049 0.21,-0.049zm0.01 0.024l-0.011 0 -0.01 0c-0.014,0 -0.028,0.001 -0.042,0.002 -0.007,0.001 -0.013,0.001 -0.02,0.002 -0.006,0.001 -0.012,0.002 -0.019,0.003l-0.009 0.001 -0.008 0.002c-0.006,0.001 -0.011,0.002 -0.017,0.004 -0.005,0.001 -0.01,0.002 -0.015,0.004 -0.005,0.001 -0.01,0.003 -0.014,0.004 -0.004,0.002 -0.008,0.004 -0.013,0.005l-0.005 0.003 -0.005 0.002 -0.004 0.003 -0.005 0.003 -0.004 0.003 -0.003 0.002 -0.002 0.003 -0.002 0.002 -0.002 0.003 -0.001 0.002 -0.001 0.002 -0.001 0.001 0 0.002 0 0.002 0.001 0.002 0.001 0.002 0.001 0.002 0.002 0.003 0.002 0.002 0.002 0.003c0.003,0.002 0.005,0.003 0.007,0.005 0.003,0.002 0.006,0.003 0.009,0.005 0.004,0.002 0.007,0.004 0.01,0.005l0.007 0.003c0.004,0.002 0.008,0.003 0.013,0.005 0.005,0.001 0.01,0.003 0.014,0.004 0.006,0.001 0.011,0.003 0.016,0.004l0.009 0.002c0.022,0.004 0.043,0.006 0.066,0.008l0.011 0.001 0.01 0 0.011 0 0.01 0.001 0.011 -0.001c0.021,0 0.041,-0.001 0.062,-0.004 0.006,0 0.012,-0.001 0.019,-0.002l0.009 -0.002 0.008 -0.001c0.006,-0.002 0.011,-0.003 0.017,-0.004 0.005,-0.001 0.01,-0.003 0.015,-0.004 0.005,-0.002 0.009,-0.003 0.014,-0.005 0.004,-0.001 0.008,-0.003 0.012,-0.005l0.006 -0.002c0.003,-0.002 0.006,-0.004 0.01,-0.006 0.003,-0.002 0.005,-0.003 0.008,-0.005l0.002 -0.002 0.003 -0.003 0.002 -0.002 0.002 -0.003 0.001 -0.002 0.001 -0.002 0 -0.002 0.001 -0.002 -0.001 -0.002 0 -0.001 -0.001 -0.002 -0.001 -0.002 -0.002 -0.003 -0.002 -0.002 -0.003 -0.003 -0.002 -0.002 -0.004 -0.003 -0.005 -0.003 -0.004 -0.003c-0.004,-0.002 -0.007,-0.003 -0.011,-0.005l-0.006 -0.002c-0.004,-0.002 -0.009,-0.004 -0.013,-0.005 -0.005,-0.002 -0.01,-0.003 -0.015,-0.004 -0.005,-0.002 -0.01,-0.003 -0.016,-0.004l-0.008 -0.002c-0.015,-0.003 -0.03,-0.005 -0.046,-0.007 -0.007,-0.001 -0.014,-0.001 -0.02,-0.002l-0.011 0 -0.01 -0.001 -0.011 0z"/>
   <circle class="fil2" cx="0.226" cy="0.375" r="0.214"/>
   <path class="fil1" d="M0.226 0.149c0.063,0 0.119,0.025 0.16,0.066 0.041,0.041 0.066,0.098 0.066,0.16 0,0.063 -0.025,0.119 -0.066,0.16 -0.041,0.041 -0.097,0.067 -0.16,0.067 -0.062,0 -0.119,-0.026 -0.16,-0.067 -0.041,-0.041 -0.066,-0.097 -0.066,-0.16 0,-0.062 0.025,-0.119 0.066,-0.16 0.041,-0.041 0.098,-0.066 0.16,-0.066zm0.143 0.083c-0.036,-0.036 -0.087,-0.059 -0.143,-0.059 -0.056,0 -0.106,0.023 -0.143,0.059 -0.036,0.037 -0.059,0.088 -0.059,0.143 0,0.056 0.023,0.107 0.059,0.143 0.037,0.037 0.087,0.06 0.143,0.06 0.056,0 0.107,-0.023 0.143,-0.06 0.037,-0.036 0.059,-0.087 0.059,-0.143 0,-0.055 -0.022,-0.106 -0.059,-0.143z"/>
   <path class="fil1" d="M0.214 0.481c0,-0.006 0.006,-0.012 0.012,-0.012 0.007,0 0.012,0.006 0.012,0.012l0 0.033c0,0.007 -0.005,0.012 -0.012,0.012 -0.006,0 -0.012,-0.005 -0.012,-0.012l0 -0.033zm0 -0.244c0,-0.007 0.006,-0.012 0.012,-0.012 0.007,0 0.012,0.005 0.012,0.012l0 0.032c0,0.007 -0.005,0.012 -0.012,0.012 -0.006,0 -0.012,-0.005 -0.012,-0.012l0 -0.032z"/>
   <path class="fil3" d="M0.183 0.335c-0.002,-0.005 -0.003,-0.011 -0.003,-0.018 0,-0.004 0,-0.007 0.001,-0.01 0.001,-0.004 0.002,-0.007 0.004,-0.009 0.002,-0.003 0.003,-0.005 0.006,-0.007 0.002,-0.002 0.004,-0.004 0.007,-0.006 0.002,-0.001 0.005,-0.003 0.008,-0.004l0 0c0.003,-0.001 0.006,-0.002 0.009,-0.003 0.003,0 0.006,-0.001 0.009,-0.001l0.001 0c0.003,0 0.006,-0.001 0.009,-0.001 0.011,0 0.021,0.002 0.03,0.004 0.005,0.002 0.01,0.003 0.015,0.006l0 -0.015c-0.004,-0.001 -0.009,-0.003 -0.015,-0.004 -0.007,-0.001 -0.017,-0.002 -0.027,-0.002 -0.005,0 -0.01,0.001 -0.014,0.001 -0.005,0.001 -0.009,0.002 -0.013,0.003 -0.005,0.001 -0.009,0.002 -0.013,0.004 -0.004,0.002 -0.007,0.004 -0.01,0.006l-0.001 0c-0.003,0.002 -0.006,0.005 -0.008,0.007 -0.003,0.003 -0.005,0.006 -0.007,0.01 -0.002,0.003 -0.004,0.006 -0.005,0.01 -0.001,0.004 -0.001,0.009 -0.001,0.013 0,0.004 0,0.007 0.001,0.011 0,0.003 0.001,0.006 0.002,0.008l0 0c0.002,0.003 0.003,0.006 0.005,0.008 0.002,0.003 0.004,0.005 0.006,0.007 0.002,0.002 0.005,0.005 0.008,0.007 0.002,0.002 0.005,0.004 0.009,0.006l0.01 0.006c0.009,0.004 0.025,0.012 0.032,0.016 0.003,0.002 0.006,0.004 0.009,0.006l0.001 0c0.003,0.002 0.005,0.004 0.008,0.006 0.002,0.002 0.005,0.004 0.007,0.006l0 0c0.002,0.003 0.004,0.005 0.005,0.008l0 0c0.002,0.003 0.003,0.006 0.004,0.009 0.001,0.003 0.001,0.006 0.001,0.01 0,0.007 -0.001,0.012 -0.003,0.018 -0.003,0.005 -0.006,0.009 -0.011,0.013l0 0c-0.005,0.004 -0.011,0.006 -0.018,0.008 -0.006,0.002 -0.014,0.002 -0.023,0.002 -0.004,0 -0.01,0 -0.016,-0.001l0 0c-0.003,-0.001 -0.006,-0.001 -0.009,-0.002 -0.003,-0.001 -0.005,-0.001 -0.008,-0.002l0 0c-0.003,-0.001 -0.006,-0.002 -0.009,-0.003 -0.003,-0.001 -0.005,-0.003 -0.008,-0.004l-0.004 -0.002 0 0.015 0.002 0.001c0.002,0.001 0.004,0.001 0.006,0.002l0.007 0.002c0.002,0.001 0.005,0.002 0.007,0.002 0.004,0.001 0.012,0.002 0.016,0.002l0.007 0.001 0.005 0c0.006,0 0.011,0 0.015,0 0.005,-0.001 0.01,-0.002 0.014,-0.003l0 0c0.005,-0.001 0.009,-0.002 0.013,-0.004 0.004,-0.001 0.008,-0.003 0.011,-0.005 0.003,-0.002 0.006,-0.005 0.009,-0.008 0.002,-0.002 0.004,-0.005 0.006,-0.009 0.002,-0.003 0.004,-0.007 0.005,-0.011 0.001,-0.004 0.001,-0.009 0.001,-0.014 0,-0.004 0,-0.007 -0.001,-0.01 -0.001,-0.004 -0.002,-0.007 -0.003,-0.009 -0.002,-0.003 -0.003,-0.006 -0.005,-0.009 -0.002,-0.002 -0.004,-0.005 -0.007,-0.007 -0.002,-0.003 -0.005,-0.005 -0.008,-0.008 -0.003,-0.002 -0.006,-0.004 -0.01,-0.006 -0.003,-0.002 -0.006,-0.004 -0.01,-0.006 -0.004,-0.002 -0.008,-0.004 -0.012,-0.006l-0.011 -0.006 -0.01 -0.005c-0.003,-0.002 -0.006,-0.004 -0.009,-0.005 -0.002,-0.002 -0.005,-0.004 -0.007,-0.006l0 0c-0.003,-0.002 -0.005,-0.004 -0.007,-0.006 -0.002,-0.002 -0.003,-0.005 -0.005,-0.007z"/>
   <path class="fil1" d="M0.192 0.324c0.001,0.002 0.001,0.003 0.002,0.005l0.002 0.003c0,0 0.001,0.001 0.001,0.002l0.003 0.003c0,0 0.001,0.001 0.002,0.002 0.003,0.002 0.007,0.005 0.01,0.007 0.005,0.002 0.01,0.005 0.014,0.007 0.008,0.004 0.016,0.008 0.023,0.012l0.012 0.007 0.005 0.003 0.005 0.004 0.005 0.004c0.003,0.003 0.006,0.005 0.009,0.009 0.001,0.001 0.002,0.003 0.004,0.004l0.003 0.005c0.001,0.002 0.002,0.004 0.003,0.005 0.001,0.002 0.001,0.004 0.002,0.006 0.001,0.002 0.001,0.004 0.002,0.006l0 0c0.001,0.004 0.001,0.009 0.001,0.013 0,0.003 0,0.006 0,0.009 -0.001,0.002 -0.001,0.005 -0.002,0.008 0,0.002 -0.001,0.004 -0.002,0.006l0 0.001c-0.001,0.002 -0.002,0.005 -0.003,0.007 -0.001,0.002 -0.002,0.004 -0.004,0.006l0 0c-0.001,0.002 -0.003,0.004 -0.005,0.006 -0.001,0.001 -0.003,0.003 -0.005,0.004 -0.002,0.002 -0.004,0.003 -0.006,0.005 -0.001,0.001 -0.003,0.002 -0.005,0.003l-0.001 0c-0.002,0.002 -0.004,0.003 -0.006,0.003 -0.003,0.001 -0.005,0.002 -0.007,0.003 -0.003,0.001 -0.005,0.001 -0.007,0.002l-0.001 0c-0.002,0 -0.005,0.001 -0.008,0.001l-0.007 0.001c-0.003,0.001 -0.005,0.001 -0.008,0.001l0 0c-0.003,0 -0.006,0 -0.009,0 -0.005,0 -0.011,0 -0.016,-0.001 -0.005,0 -0.01,-0.001 -0.014,-0.002 -0.008,-0.002 -0.017,-0.004 -0.024,-0.008 -0.004,-0.001 -0.008,-0.006 -0.008,-0.011l0 -0.015c0,-0.002 0.001,-0.004 0.002,-0.006 0.003,-0.005 0.01,-0.008 0.016,-0.005l0.004 0.002 0.003 0.002 0.007 0.003c0.006,0.002 0.011,0.003 0.016,0.004l0.004 0.001c0.003,0.001 0.005,0.001 0.008,0.001 0.002,0 0.004,0 0.006,0 0.004,0 0.008,0 0.011,0 0.004,0 0.007,-0.001 0.009,-0.002 0.003,0 0.006,-0.001 0.008,-0.002 0.002,-0.001 0.004,-0.002 0.005,-0.004l0.001 0c0.001,-0.001 0.003,-0.002 0.004,-0.004 0.001,-0.001 0.002,-0.003 0.003,-0.004 0.001,-0.002 0.001,-0.004 0.002,-0.006 0,-0.002 0,-0.004 0,-0.007l0 -0.004c0,-0.001 0,-0.002 -0.001,-0.003 0,-0.001 0,-0.002 -0.001,-0.003 -0.001,-0.003 -0.001,-0.004 -0.003,-0.006 -0.002,-0.002 -0.003,-0.003 -0.005,-0.005 -0.002,-0.002 -0.004,-0.004 -0.006,-0.005 -0.003,-0.002 -0.005,-0.004 -0.008,-0.006l-0.006 -0.003c-0.003,-0.002 -0.012,-0.006 -0.019,-0.01 -0.016,-0.008 -0.028,-0.014 -0.041,-0.026 -0.002,-0.002 -0.003,-0.003 -0.004,-0.004l-0.004 -0.005c-0.001,-0.001 -0.002,-0.003 -0.003,-0.005 -0.001,-0.001 -0.002,-0.003 -0.002,-0.004l-0.001 -0.001c0,-0.002 -0.001,-0.004 -0.002,-0.005 0,-0.002 -0.001,-0.004 -0.001,-0.006l0 0c-0.001,-0.004 -0.001,-0.008 -0.001,-0.013 0,-0.003 0,-0.005 0,-0.008 0.001,-0.003 0.001,-0.005 0.002,-0.008 0,-0.002 0.001,-0.005 0.002,-0.007 0.001,-0.002 0.002,-0.004 0.003,-0.006 0.002,-0.003 0.003,-0.005 0.004,-0.006 0.002,-0.002 0.003,-0.004 0.005,-0.006 0.002,-0.002 0.003,-0.003 0.005,-0.005 0.002,-0.001 0.004,-0.003 0.006,-0.004l0 0c0.002,-0.002 0.004,-0.003 0.006,-0.004 0.002,-0.001 0.004,-0.002 0.006,-0.003 0.003,-0.001 0.005,-0.002 0.007,-0.003 0.003,0 0.005,-0.001 0.008,-0.002 0.002,0 0.005,-0.001 0.007,-0.001 0.002,-0.001 0.005,-0.001 0.007,-0.002 0.006,0 0.011,-0.001 0.016,-0.001 0.005,0 0.01,0.001 0.015,0.001 0.005,0 0.01,0.001 0.014,0.001 0.003,0.001 0.006,0.002 0.009,0.002l0 0c0.003,0.001 0.005,0.002 0.007,0.003 0.005,0.001 0.009,0.006 0.009,0.011l0 0.015c0,0.001 -0.001,0.003 -0.002,0.005 -0.002,0.006 -0.01,0.008 -0.016,0.005 -0.003,-0.001 -0.008,-0.003 -0.012,-0.004 -0.004,-0.001 -0.008,-0.002 -0.013,-0.003 -0.004,0 -0.009,-0.001 -0.014,-0.001 -0.006,0.001 -0.01,0.001 -0.016,0.002 -0.006,0.002 -0.009,0.003 -0.014,0.005 -0.003,0.002 -0.005,0.004 -0.007,0.007l-0.002 0.002c-0.001,0.001 -0.001,0.002 -0.002,0.003 0,0.001 0,0.002 -0.001,0.003 0,0.001 0,0.002 0,0.003 0,0.001 0,0.002 0,0.004 0,0.002 0,0.005 0,0.007z"/>
   <path class="fil1" d="M0.44 0.063c-0.006,0 -0.012,-0.006 -0.012,-0.012 0,-0.007 0.006,-0.012 0.012,-0.012 0.042,0 0.08,0.003 0.107,0.009 0.033,0.007 0.053,0.019 0.053,0.034 0,0.007 -0.006,0.012 -0.012,0.012 -0.007,0 -0.012,-0.005 -0.012,-0.012 0,-0.002 -0.013,-0.006 -0.034,-0.01 -0.026,-0.006 -0.062,-0.009 -0.102,-0.009z"/>
  </g>
 </g>
</svg>
