<?xml version="1.0" encoding="UTF-8"?>
<!DOCTYPE svg PUBLIC "-//W3C//DTD SVG 1.1//EN" "http://www.w3.org/Graphics/SVG/1.1/DTD/svg11.dtd">
<!-- Creator: CorelDRAW 2018 (64-Bit) -->
<svg xmlns="http://www.w3.org/2000/svg" xml:space="preserve" width="25px" height="25px" version="1.1" style="shape-rendering:geometricPrecision; text-rendering:geometricPrecision; image-rendering:optimizeQuality; fill-rule:evenodd; clip-rule:evenodd"
viewBox="0 0 0.537 0.537"
 xmlns:xlink="http://www.w3.org/1999/xlink">
 <defs>
  <style type="text/css">
   <![CDATA[
    .fil0 {fill:#00F4FF}
    .fil1 {fill:#052337;fill-rule:nonzero}
   ]]>
  </style>
 </defs>
 <g id="Layer_x0020_1">
  <metadata id="CorelCorpID_0Corel-Layer"/>
  <g id="_3160019163328">
   <path class="fil0" d="M0.295 0.399c0.008,0.01 0.03,0.007 0.03,0.014 0,0.007 -0.014,0.023 -0.056,0.035 -0.042,0.011 -0.062,0.007 -0.072,-0.014 -0.012,-0.025 0.035,-0.133 0.022,-0.145 -0.009,-0.009 -0.03,-0.007 -0.03,-0.015 0,-0.007 0.014,-0.023 0.056,-0.034 0.042,-0.011 0.063,-0.006 0.072,0.013 0.012,0.03 -0.036,0.129 -0.022,0.146z"/>
   <path class="fil1" d="M0.303 0.392c0.002,0.002 0.008,0.003 0.013,0.005 0.011,0.002 0.02,0.004 0.02,0.016 0,0.007 -0.006,0.018 -0.022,0.028 -0.01,0.006 -0.023,0.012 -0.042,0.017 -0.023,0.006 -0.04,0.008 -0.053,0.005 -0.015,-0.002 -0.025,-0.011 -0.032,-0.024 -0.008,-0.017 0.002,-0.054 0.012,-0.088 0.007,-0.028 0.014,-0.053 0.012,-0.055 -0.002,-0.002 -0.008,-0.003 -0.013,-0.005 -0.011,-0.002 -0.02,-0.005 -0.02,-0.017 0,-0.007 0.006,-0.018 0.022,-0.028 0.009,-0.005 0.023,-0.012 0.042,-0.017 0.022,-0.006 0.04,-0.007 0.053,-0.005 0.016,0.003 0.026,0.012 0.032,0.025 0.007,0.018 -0.003,0.054 -0.012,0.087 -0.008,0.027 -0.015,0.052 -0.012,0.056zm0.008 0.025c-0.009,-0.002 -0.018,-0.004 -0.024,-0.011 -0.011,-0.013 -0.002,-0.043 0.007,-0.076 0.009,-0.029 0.018,-0.061 0.013,-0.073 -0.003,-0.006 -0.008,-0.01 -0.016,-0.012 -0.01,-0.002 -0.024,0 -0.044,0.005 -0.016,0.005 -0.028,0.01 -0.036,0.015 -0.008,0.005 -0.012,0.008 -0.012,0.009 0,0.005 0.002,-0.004 0.004,-0.003 0.008,0.002 0.017,0.004 0.023,0.01 0.011,0.01 0.003,0.042 -0.007,0.075 -0.008,0.031 -0.017,0.064 -0.012,0.074 0.003,0.007 0.008,0.011 0.016,0.012 0.01,0.002 0.024,0 0.043,-0.005 0.017,-0.004 0.029,-0.009 0.037,-0.014 0.003,-0.002 0.006,-0.004 0.008,-0.006zm0.003 -0.004c0,-0.003 0,0 -0.001,0.003 0.001,-0.002 0.001,-0.002 0.001,-0.003z"/>
   <circle class="fil0" cx="0.297" cy="0.135" r="0.052"/>
   <path class="fil1" d="M0.297 0.073c0.017,0 0.033,0.007 0.044,0.018 0.012,0.012 0.019,0.027 0.019,0.044 0,0.018 -0.007,0.033 -0.019,0.045 -0.011,0.011 -0.027,0.018 -0.044,0.018 -0.017,0 -0.033,-0.007 -0.044,-0.018 -0.011,-0.012 -0.018,-0.027 -0.018,-0.045 0,-0.017 0.007,-0.032 0.018,-0.044 0.011,-0.011 0.027,-0.018 0.044,-0.018zm0.029 0.033c-0.007,-0.007 -0.018,-0.012 -0.029,-0.012 -0.011,0 -0.021,0.005 -0.029,0.012 -0.007,0.008 -0.012,0.018 -0.012,0.029 0,0.012 0.005,0.022 0.012,0.029 0.008,0.008 0.018,0.012 0.029,0.012 0.011,0 0.022,-0.004 0.029,-0.012 0.007,-0.007 0.012,-0.017 0.012,-0.029 0,-0.011 -0.005,-0.021 -0.012,-0.029z"/>
   <path class="fil1" d="M0.269 0c0.074,0 0.141,0.03 0.19,0.079 0.048,0.048 0.078,0.116 0.078,0.19 0,0.074 -0.03,0.141 -0.078,0.19 -0.049,0.048 -0.116,0.078 -0.19,0.078 -0.074,0 -0.142,-0.03 -0.19,-0.078 -0.049,-0.049 -0.079,-0.116 -0.079,-0.19 0,-0.074 0.03,-0.142 0.079,-0.19 0.048,-0.049 0.116,-0.079 0.19,-0.079zm0.175 0.094c-0.045,-0.045 -0.107,-0.073 -0.175,-0.073 -0.069,0 -0.13,0.028 -0.175,0.073 -0.045,0.045 -0.073,0.106 -0.073,0.175 0,0.068 0.028,0.13 0.073,0.175 0.045,0.044 0.106,0.072 0.175,0.072 0.068,0 0.13,-0.028 0.175,-0.072 0.044,-0.045 0.072,-0.107 0.072,-0.175 0,-0.069 -0.028,-0.13 -0.072,-0.175z"/>
  </g>
 </g>
</svg>
