<?xml version="1.0" encoding="UTF-8"?>
<!DOCTYPE svg PUBLIC "-//W3C//DTD SVG 1.1//EN" "http://www.w3.org/Graphics/SVG/1.1/DTD/svg11.dtd">
<!-- Creator: CorelDRAW 2018 (64-Bit) -->
<svg xmlns="http://www.w3.org/2000/svg" xml:space="preserve" width="25px" height="25px" version="1.1" style="shape-rendering:geometricPrecision; text-rendering:geometricPrecision; image-rendering:optimizeQuality; fill-rule:evenodd; clip-rule:evenodd"
viewBox="0 0 0.537 0.537"
 xmlns:xlink="http://www.w3.org/1999/xlink">
 <defs>
  <style type="text/css">
   <![CDATA[
    .fil2 {fill:#00F4FF;fill-rule:nonzero}
    .fil1 {fill:#052337;fill-rule:nonzero}
    .fil0 {fill:white;fill-rule:nonzero}
   ]]>
  </style>
 </defs>
 <g id="Layer_x0020_1">
  <metadata id="CorelCorpID_0Corel-Layer"/>
  <g id="_3159006354880">
   <path class="fil0" d="M0.269 0.011c0.142,0 0.258,0.115 0.258,0.258 0,0.142 -0.116,0.258 -0.258,0.258 -0.143,0 -0.258,-0.116 -0.258,-0.258 0,-0.143 0.115,-0.258 0.258,-0.258z"/>
   <path class="fil1" d="M0.269 0c0.074,0 0.141,0.03 0.19,0.079 0.048,0.048 0.078,0.116 0.078,0.19 0,0.074 -0.03,0.141 -0.078,0.19 -0.049,0.048 -0.116,0.078 -0.19,0.078 -0.074,0 -0.142,-0.03 -0.19,-0.078 -0.049,-0.049 -0.079,-0.116 -0.079,-0.19 0,-0.074 0.03,-0.142 0.079,-0.19 0.048,-0.049 0.116,-0.079 0.19,-0.079zm0.175 0.094c-0.045,-0.045 -0.107,-0.073 -0.175,-0.073 -0.069,0 -0.13,0.028 -0.175,0.073 -0.045,0.045 -0.073,0.106 -0.073,0.175 0,0.068 0.028,0.13 0.073,0.175 0.045,0.044 0.106,0.072 0.175,0.072 0.068,0 0.13,-0.028 0.175,-0.072 0.044,-0.045 0.072,-0.107 0.072,-0.175 0,-0.069 -0.028,-0.13 -0.072,-0.175z"/>
   <path class="fil1" d="M0.392 0.137c0.004,-0.005 0.011,-0.005 0.015,0 0.004,0.004 0.004,0.011 0,0.015l-0.107 0.107c-0.004,0.004 -0.011,0.004 -0.015,0 -0.005,-0.005 -0.005,-0.011 0,-0.016l0.107 -0.106z"/>
   <path class="fil1" d="M0.246 0.246c0.005,0.003 0.006,0.01 0.003,0.015 -0.002,0.005 -0.009,0.007 -0.014,0.004l-0.092 -0.053c-0.005,-0.003 -0.007,-0.01 -0.004,-0.015 0.003,-0.005 0.009,-0.007 0.014,-0.004l0.093 0.053z"/>
   <path class="fil2" d="M0.269 0.23c-0.022,0 -0.039,0.017 -0.039,0.039 0,0.021 0.017,0.039 0.039,0.039 0.021,0 0.039,-0.018 0.039,-0.039 0,-0.022 -0.018,-0.039 -0.039,-0.039z"/>
   <path class="fil1" d="M0.269 0.24c-0.008,0 -0.015,0.004 -0.02,0.009 -0.005,0.005 -0.009,0.012 -0.009,0.02 0,0.008 0.004,0.015 0.009,0.02 0.005,0.005 0.012,0.008 0.02,0.008 0.008,0 0.015,-0.003 0.02,-0.008 0.005,-0.005 0.008,-0.012 0.008,-0.02 0,-0.008 -0.003,-0.015 -0.008,-0.02 -0.005,-0.005 -0.012,-0.009 -0.02,-0.009zm-0.035 -0.006c0.009,-0.009 0.021,-0.015 0.035,-0.015 0.013,0 0.026,0.006 0.035,0.015 0.009,0.009 0.014,0.021 0.014,0.035 0,0.013 -0.005,0.026 -0.014,0.035 -0.009,0.009 -0.022,0.014 -0.035,0.014 -0.014,0 -0.026,-0.005 -0.035,-0.014 -0.009,-0.009 -0.015,-0.022 -0.015,-0.035 0,-0.014 0.006,-0.026 0.015,-0.035z"/>
   <path class="fil1" d="M0.258 0.073c0,-0.006 0.005,-0.011 0.011,-0.011 0.006,0 0.01,0.005 0.01,0.011l0 0.018c0,0.006 -0.004,0.011 -0.01,0.011 -0.006,0 -0.011,-0.005 -0.011,-0.011l0 -0.018z"/>
   <path class="fil1" d="M0.073 0.279c-0.006,0 -0.011,-0.004 -0.011,-0.01 0,-0.006 0.005,-0.011 0.011,-0.011l0.018 0c0.006,0 0.011,0.005 0.011,0.011 0,0.006 -0.005,0.01 -0.011,0.01l-0.018 0z"/>
   <path class="fil1" d="M0.279 0.465c0,0.006 -0.004,0.01 -0.01,0.01 -0.006,0 -0.011,-0.004 -0.011,-0.01l0 -0.018c0,-0.006 0.005,-0.011 0.011,-0.011 0.006,0 0.01,0.005 0.01,0.011l0 0.018z"/>
   <path class="fil1" d="M0.465 0.258c0.006,0 0.01,0.005 0.01,0.011 0,0.006 -0.004,0.01 -0.01,0.01l-0.018 0c-0.006,0 -0.011,-0.004 -0.011,-0.01 0,-0.006 0.005,-0.011 0.011,-0.011l0.018 0z"/>
  </g>
 </g>
</svg>
