<?xml version="1.0" encoding="UTF-8"?>
<!DOCTYPE svg PUBLIC "-//W3C//DTD SVG 1.1//EN" "http://www.w3.org/Graphics/SVG/1.1/DTD/svg11.dtd">
<!-- Creator: CorelDRAW 2018 (64-Bit) -->
<svg xmlns="http://www.w3.org/2000/svg" xml:space="preserve" width="41px" height="37px" version="1.1" style="shape-rendering:geometricPrecision; text-rendering:geometricPrecision; image-rendering:optimizeQuality; fill-rule:evenodd; clip-rule:evenodd"
viewBox="0 0 2.073 1.857"
 xmlns:xlink="http://www.w3.org/1999/xlink">
 <defs>
  <style type="text/css">
   <![CDATA[
    .fil0 {fill:white}
   ]]>
  </style>
 </defs>
 <g id="Layer_x0020_1">
  <metadata id="CorelCorpID_0Corel-Layer"/>
  <g id="_3160037361664">
   <path class="fil0" d="M0 0.664l0 1.193 0.993 0 0 -1.292 -0.993 0.099zm0.166 0.544l0.661 -0.029c0.01,0 0.019,0.008 0.02,0.019l0 0.145c0,0.01 -0.009,0.019 -0.019,0.019l-0.662 0.02c-0.011,0 -0.019,-0.008 -0.02,-0.019l0 -0.136c0,-0.011 0.009,-0.019 0.019,-0.019l0.001 0zm0.001 0.357l0.66 -0.008c0.011,0 0.02,0.008 0.02,0.019l0 0.144c0,0.011 -0.009,0.019 -0.019,0.019l-0.663 0c-0.01,0 -0.019,-0.008 -0.019,-0.019l0 -0.136c0,-0.01 0.009,-0.019 0.019,-0.019l0.002 0zm-0.002 -0.715l0.661 -0.048c0.011,-0.001 0.02,0.007 0.021,0.018l0 0.145c0,0.011 -0.009,0.02 -0.019,0.02l-0.661 0.039c-0.011,0.001 -0.02,-0.007 -0.021,-0.018l0 -0.137c0,-0.01 0.009,-0.019 0.019,-0.019z"/>
   <polygon class="fil0" points="1.456,0.71 1.099,0.582 1.099,1.857 1.456,1.857 "/>
   <path class="fil0" d="M0.932 0.077l0.003 0.388 0.106 -0.011c0.008,-0.001 0.016,0 0.023,0.003l0.458 0.164c0.023,0.006 0.04,0.027 0.04,0.052l0 1.184 0.141 0 0 -1.857 -0.771 0.077z"/>
   <polygon class="fil0" points="2.073,0.111 1.809,0.017 1.809,1.857 2.073,1.857 "/>
  </g>
 </g>
</svg>
