<?xml version="1.0" encoding="UTF-8"?>
<!DOCTYPE svg PUBLIC "-//W3C//DTD SVG 1.1//EN" "http://www.w3.org/Graphics/SVG/1.1/DTD/svg11.dtd">
<!-- Creator: CorelDRAW 2018 (64-Bit) -->
<svg xmlns="http://www.w3.org/2000/svg" xml:space="preserve" width="17px" height="13px" version="1.1" style="shape-rendering:geometricPrecision; text-rendering:geometricPrecision; image-rendering:optimizeQuality; fill-rule:evenodd; clip-rule:evenodd"
viewBox="0 0 2.3 1.783"
 xmlns:xlink="http://www.w3.org/1999/xlink">
 <defs>
  <style type="text/css">
   <![CDATA[
    .fil0 {fill:gray;fill-rule:nonzero}
   ]]>
  </style>
 </defs>
 <g id="Layer_x0020_1">
  <metadata id="CorelCorpID_0Corel-Layer"/>
  <g id="_3160587059520">
   <path class="fil0" d="M0.451 0.935c0.036,-0.01 0.077,0.002 0.113,0.012l0.028 0.008c0.033,0.007 0.07,0.011 0.107,0.011 0.04,0 0.079,-0.004 0.113,-0.012l0.023 -0.007c0.036,-0.01 0.077,-0.022 0.113,-0.012 0.025,0.006 0.066,0.03 0.095,0.067l0.004 0.005c0.019,0.026 0.034,0.058 0.037,0.096l0.016 0.184 0 0.008c0.001,0.027 -0.011,0.05 -0.028,0.067 -0.016,0.016 -0.038,0.026 -0.061,0.028l-0.615 0.001 -0.009 -0.001c-0.023,-0.002 -0.044,-0.012 -0.06,-0.028 -0.018,-0.017 -0.029,-0.04 -0.029,-0.067l0.017 -0.192c0.003,-0.041 0.02,-0.075 0.04,-0.101 0.03,-0.037 0.071,-0.061 0.096,-0.067zm0.076 0.144l-0.042 -0.012c-0.004,0.001 -0.012,0.008 -0.022,0.02 -0.006,0.007 -0.011,0.017 -0.012,0.028l-0.012 0.139 0.521 0 -0.012 -0.139c-0.001,-0.01 -0.005,-0.018 -0.01,-0.025l-0.002 -0.003c-0.01,-0.012 -0.018,-0.019 -0.022,-0.02l-0.071 0.02c-0.046,0.01 -0.095,0.016 -0.144,0.016 -0.046,0 -0.093,-0.005 -0.138,-0.015l-0.006 -0.001 -0.028 -0.008z"/>
   <path class="fil0" d="M0.698 0.392c0.081,0 0.154,0.033 0.206,0.086l0.004 0.004c0.051,0.053 0.082,0.124 0.082,0.202 0,0.08 -0.033,0.153 -0.086,0.206 -0.052,0.053 -0.125,0.086 -0.206,0.086 -0.08,0 -0.153,-0.033 -0.206,-0.086 -0.053,-0.053 -0.085,-0.126 -0.085,-0.206 0,-0.08 0.032,-0.153 0.085,-0.206 0.053,-0.053 0.126,-0.086 0.206,-0.086zm0.11 0.183c-0.028,-0.028 -0.067,-0.046 -0.11,-0.046 -0.042,0 -0.081,0.018 -0.109,0.046 -0.028,0.027 -0.045,0.066 -0.045,0.109 0,0.043 0.017,0.081 0.045,0.109 0.028,0.028 0.067,0.045 0.109,0.045 0.043,0 0.082,-0.017 0.11,-0.045 0.027,-0.028 0.045,-0.066 0.045,-0.109 0,-0.041 -0.016,-0.079 -0.042,-0.106l-0.003 -0.003z"/>
   <path class="fil0" d="M1.933 0.478c0.038,0 0.068,0.03 0.068,0.068 0,0.038 -0.03,0.069 -0.068,0.069l-0.599 0c-0.038,0 -0.068,-0.031 -0.068,-0.069 0,-0.038 0.03,-0.068 0.068,-0.068l0.599 0zm0 0.345c0.038,0 0.068,0.031 0.068,0.069 0,0.037 -0.03,0.068 -0.068,0.068l-0.599 0c-0.038,0 -0.068,-0.031 -0.068,-0.068 0,-0.038 0.03,-0.069 0.068,-0.069l0.599 0zm0 0.345c0.038,0 0.068,0.031 0.068,0.069 0,0.038 -0.03,0.068 -0.068,0.068l-0.599 0c-0.038,0 -0.068,-0.03 -0.068,-0.068 0,-0.038 0.03,-0.069 0.068,-0.069l0.599 0z"/>
   <path class="fil0" d="M0.146 0l2.007 0c0.041,0 0.077,0.016 0.104,0.043 0.026,0.026 0.043,0.063 0.043,0.103l0 1.491c0,0.04 -0.017,0.076 -0.043,0.103 -0.027,0.027 -0.063,0.043 -0.104,0.043l-2.007 0c-0.04,0 -0.077,-0.016 -0.103,-0.043 -0.027,-0.026 -0.043,-0.063 -0.043,-0.103l0 -1.491c0,-0.04 0.016,-0.077 0.043,-0.103 0.026,-0.027 0.063,-0.043 0.103,-0.043zm2.007 0.137l-2.007 0c-0.002,0 -0.005,0.001 -0.006,0.003 -0.002,0.001 -0.003,0.004 -0.003,0.006l0 1.491c0,0.002 0.001,0.005 0.003,0.006 0.001,0.002 0.004,0.003 0.006,0.003l2.007 0c0.003,0 0.005,-0.001 0.007,-0.003 0.001,-0.001 0.002,-0.003 0.002,-0.006l0 -1.491c0,-0.002 -0.001,-0.005 -0.002,-0.006 -0.002,-0.002 -0.004,-0.003 -0.007,-0.003z"/>
  </g>
 </g>
</svg>
