<?xml version="1.0" encoding="UTF-8"?>
<!DOCTYPE svg PUBLIC "-//W3C//DTD SVG 1.1//EN" "http://www.w3.org/Graphics/SVG/1.1/DTD/svg11.dtd">
<!-- Creator: CorelDRAW 2018 (64-Bit) -->
<svg xmlns="http://www.w3.org/2000/svg" xml:space="preserve" width="17px" height="15px" version="1.1" style="shape-rendering:geometricPrecision; text-rendering:geometricPrecision; image-rendering:optimizeQuality; fill-rule:evenodd; clip-rule:evenodd"
viewBox="0 0 2.028 1.816"
 xmlns:xlink="http://www.w3.org/1999/xlink">
 <defs>
  <style type="text/css">
   <![CDATA[
    .fil0 {fill:gray;fill-rule:nonzero}
   ]]>
  </style>
 </defs>
 <g id="Layer_x0020_1">
  <metadata id="CorelCorpID_0Corel-Layer"/>
  <g id="_3159006349664">
   <path class="fil0" d="M0 0.723l0 -0.195c0,-0.062 0.026,-0.118 0.068,-0.159 0.042,-0.04 0.099,-0.065 0.162,-0.065l1.568 0c0.063,0 0.12,0.025 0.161,0.065 0.043,0.041 0.069,0.097 0.069,0.159l0 0.2c0,0.027 -0.018,0.049 -0.041,0.057 -0.124,0.046 -0.253,0.095 -0.379,0.143 -0.11,0.041 -0.217,0.082 -0.367,0.138l-0.031 0.012c-0.057,0.023 -0.108,0.043 -0.196,0.043 -0.088,0 -0.139,-0.02 -0.196,-0.043l-0.032 -0.012c-0.135,-0.051 -0.248,-0.095 -0.364,-0.14 -0.121,-0.047 -0.245,-0.095 -0.383,-0.146 -0.024,-0.009 -0.039,-0.032 -0.039,-0.057zm0.121 -0.195l0 0.153c0.129,0.049 0.238,0.091 0.345,0.133 0.119,0.046 0.236,0.092 0.362,0.139l0.034 0.013c0.046,0.018 0.086,0.034 0.152,0.034 0.065,0 0.106,-0.016 0.152,-0.035l0.033 -0.012c0.114,-0.043 0.239,-0.09 0.366,-0.138l0.342 -0.129 0 -0.158c0,-0.028 -0.012,-0.053 -0.031,-0.072 -0.02,-0.019 -0.048,-0.031 -0.078,-0.031l-1.568 0c-0.031,0 -0.058,0.012 -0.078,0.031 -0.019,0.019 -0.031,0.044 -0.031,0.072z"/>
   <path class="fil0" d="M1.872 0.934c0,-0.034 0.027,-0.061 0.061,-0.061 0.033,0 0.06,0.027 0.06,0.061l0 0.658c0,0.062 -0.025,0.118 -0.065,0.158 -0.041,0.041 -0.097,0.066 -0.158,0.066l-1.512 0c-0.062,0 -0.118,-0.025 -0.158,-0.066 -0.041,-0.04 -0.066,-0.096 -0.066,-0.158l0 -0.663c0,-0.033 0.027,-0.061 0.061,-0.061 0.033,0 0.06,0.028 0.06,0.061l0 0.663c0,0.029 0.012,0.054 0.031,0.073 0.018,0.018 0.044,0.03 0.072,0.03l1.512 0c0.028,0 0.053,-0.012 0.072,-0.03 0.019,-0.019 0.03,-0.044 0.03,-0.073l0 -0.658z"/>
   <path class="fil0" d="M1.155 1.018c0,-0.033 0.028,-0.06 0.061,-0.06 0.033,0 0.061,0.027 0.061,0.06l0 0.258c0,0.034 -0.028,0.061 -0.061,0.061l-0.404 0c-0.034,0 -0.061,-0.027 -0.061,-0.061l0 -0.258c0,-0.033 0.027,-0.06 0.061,-0.06 0.033,0 0.06,0.027 0.06,0.06l0 0.198 0.283 0 0 -0.198z"/>
   <path class="fil0" d="M0.672 0.185c0,0.033 -0.027,0.06 -0.06,0.06 -0.034,0 -0.061,-0.027 -0.061,-0.06 0,-0.057 0.033,-0.105 0.087,-0.139 0.044,-0.028 0.105,-0.046 0.171,-0.046l0.41 0c0.065,0 0.126,0.018 0.171,0.046 0.053,0.034 0.086,0.082 0.086,0.139 0,0.033 -0.027,0.06 -0.06,0.06 -0.034,0 -0.061,-0.027 -0.061,-0.06 0,-0.012 -0.011,-0.025 -0.029,-0.037 -0.027,-0.017 -0.064,-0.027 -0.107,-0.027l-0.41 0c-0.043,0 -0.081,0.01 -0.107,0.027 -0.018,0.012 -0.03,0.025 -0.03,0.037z"/>
  </g>
 </g>
</svg>
