<?xml version="1.0" encoding="UTF-8"?>
<!DOCTYPE svg PUBLIC "-//W3C//DTD SVG 1.1//EN" "http://www.w3.org/Graphics/SVG/1.1/DTD/svg11.dtd">
<!-- Creator: CorelDRAW 2018 (64-Bit) -->
<svg xmlns="http://www.w3.org/2000/svg" xml:space="preserve" width="20px" height="21px" version="1.1" style="shape-rendering:geometricPrecision; text-rendering:geometricPrecision; image-rendering:optimizeQuality; fill-rule:evenodd; clip-rule:evenodd"
viewBox="0 0 7.528 8.076"
 xmlns:xlink="http://www.w3.org/1999/xlink">
 <defs>
  <style type="text/css">
   <![CDATA[
    .fil0 {fill:#00F4FF}
    .fil2 {fill:white}
    .fil1 {fill:#052337;fill-rule:nonzero}
   ]]>
  </style>
 </defs>
 <g id="Layer_x0020_1">
  <metadata id="CorelCorpID_0Corel-Layer"/>
  <g id="_2631681320480">
   <path class="fil0" d="M1.336 3.672l4.856 0c0.631,0 1.148,0.516 1.148,1.147l0 3.069 -7.152 0 0 -3.069c0,-0.631 0.517,-1.147 1.148,-1.147z"/>
   <path class="fil1" d="M1.336 3.483l4.856 0c0.367,0 0.701,0.151 0.943,0.393 0.242,0.242 0.393,0.576 0.393,0.943l0 3.069c0,0.104 -0.085,0.188 -0.188,0.188l-7.152 0c-0.104,0 -0.188,-0.084 -0.188,-0.188l0 -3.069c0,-0.367 0.15,-0.701 0.392,-0.943 0.242,-0.242 0.576,-0.393 0.944,-0.393zm4.856 0.377l-4.856 0c-0.264,0 -0.504,0.108 -0.678,0.282 -0.174,0.174 -0.282,0.414 -0.282,0.677l0 2.88 6.775 0 0 -2.88c0,-0.264 -0.108,-0.504 -0.281,-0.678 -0.174,-0.173 -0.414,-0.281 -0.678,-0.281z"/>
   <path class="fil1" d="M0.261 5.703c-0.095,0.04 -0.205,-0.005 -0.246,-0.1 -0.04,-0.095 0.005,-0.205 0.1,-0.246 0.116,-0.048 0.206,-0.153 0.296,-0.258 0.182,-0.214 0.366,-0.428 0.784,-0.427l0.001 0c0.418,-0.001 0.601,0.213 0.784,0.427 0.128,0.149 0.255,0.298 0.503,0.294l0.004 0c0.248,0.004 0.376,-0.145 0.503,-0.294 0.183,-0.214 0.366,-0.428 0.784,-0.427l0.002 0c0.418,-0.001 0.601,0.213 0.784,0.427 0.127,0.149 0.255,0.298 0.503,0.294l0.004 0c0.248,0.004 0.375,-0.145 0.503,-0.294 0.183,-0.214 0.366,-0.428 0.784,-0.427l0.001 0c0.418,-0.001 0.602,0.213 0.784,0.427 0.086,0.1 0.173,0.201 0.28,0.251 0.094,0.044 0.134,0.156 0.09,0.25 -0.043,0.093 -0.155,0.134 -0.249,0.09 -0.182,-0.085 -0.294,-0.216 -0.406,-0.347 -0.126,-0.148 -0.254,-0.297 -0.499,-0.296l-0.001 0c-0.245,-0.001 -0.372,0.148 -0.499,0.296 -0.184,0.215 -0.368,0.431 -0.79,0.425 -0.422,0.006 -0.606,-0.21 -0.79,-0.425 -0.127,-0.148 -0.254,-0.297 -0.499,-0.296l-0.002 0c-0.245,-0.001 -0.372,0.148 -0.499,0.296 -0.184,0.215 -0.368,0.431 -0.79,0.425 -0.422,0.006 -0.606,-0.21 -0.79,-0.425 -0.127,-0.148 -0.254,-0.297 -0.499,-0.296l-0.001 0c-0.245,-0.001 -0.373,0.148 -0.499,0.296 -0.118,0.138 -0.237,0.276 -0.435,0.36z"/>
   <path class="fil2" d="M1.956 0.5c-0.138,0.257 -0.339,0.432 -0.339,0.619 0,0.186 0.152,0.338 0.339,0.338 0.186,0 0.338,-0.152 0.338,-0.338 0,-0.187 -0.201,-0.362 -0.338,-0.619z"/>
   <path class="fil1" d="M1.956 0.848l-0.012 0.016c-0.075,0.105 -0.138,0.195 -0.138,0.255 0,0.041 0.016,0.079 0.043,0.106 0.028,0.027 0.065,0.044 0.107,0.044 0.041,0 0.079,-0.017 0.106,-0.044 0.027,-0.027 0.044,-0.065 0.044,-0.106 0,-0.06 -0.064,-0.15 -0.139,-0.255l-0.011 -0.016zm-0.318 -0.202c0.052,-0.072 0.108,-0.151 0.152,-0.234 0.017,-0.032 0.043,-0.059 0.077,-0.078 0.092,-0.048 0.205,-0.014 0.254,0.078 0.044,0.082 0.1,0.161 0.152,0.234 0.113,0.16 0.209,0.296 0.209,0.473 0,0.144 -0.059,0.276 -0.154,0.371 -0.096,0.096 -0.227,0.155 -0.372,0.155 -0.146,0 -0.277,-0.059 -0.373,-0.154 -0.095,-0.096 -0.154,-0.228 -0.154,-0.372 0,-0.178 0.097,-0.314 0.209,-0.473z"/>
   <polygon class="fil2" points="1.663,1.938 2.248,1.938 2.248,3.652 1.663,3.652 "/>
   <path class="fil1" d="M1.663 1.75l0.585 0c0.104,0 0.188,0.084 0.188,0.188l0 1.714c0,0.104 -0.084,0.188 -0.188,0.188l-0.585 0c-0.103,0 -0.188,-0.084 -0.188,-0.188l0 -1.714c0,-0.104 0.085,-0.188 0.188,-0.188zm0.397 0.376l-0.208 0 0 1.338 0.208 0 0 -1.338z"/>
   <path class="fil2" d="M3.764 0.187c-0.138,0.258 -0.338,0.432 -0.338,0.619 0,0.187 0.151,0.339 0.338,0.339 0.187,0 0.338,-0.152 0.338,-0.339 0,-0.187 -0.2,-0.361 -0.338,-0.619z"/>
   <path class="fil1" d="M3.764 0.535l-0.019 0.026c-0.071,0.101 -0.131,0.187 -0.131,0.245 0,0.042 0.017,0.079 0.044,0.106l0.006 0.007c0.026,0.023 0.061,0.037 0.1,0.037 0.041,0 0.079,-0.016 0.106,-0.044 0.027,-0.027 0.044,-0.064 0.044,-0.106 0,-0.059 -0.064,-0.149 -0.139,-0.255l-0.011 -0.016zm-0.317 -0.201c0.051,-0.073 0.107,-0.151 0.151,-0.234 0.017,-0.032 0.043,-0.06 0.078,-0.078 0.091,-0.049 0.205,-0.014 0.253,0.077 0.044,0.083 0.101,0.162 0.152,0.235 0.113,0.159 0.209,0.295 0.209,0.472 0,0.145 -0.059,0.277 -0.154,0.373 -0.095,0.095 -0.227,0.154 -0.372,0.154 -0.139,0 -0.265,-0.054 -0.359,-0.143l-0.013 -0.011c-0.096,-0.096 -0.155,-0.227 -0.155,-0.373 0,-0.172 0.093,-0.306 0.202,-0.461l0.008 -0.011z"/>
   <polygon class="fil2" points="3.472,1.626 4.056,1.626 4.056,3.672 3.472,3.672 "/>
   <path class="fil1" d="M3.472 1.438l0.584 0c0.104,0 0.188,0.084 0.188,0.188l0 2.046c0,0.103 -0.084,0.188 -0.188,0.188l-0.584 0c-0.104,0 -0.188,-0.085 -0.188,-0.188l0 -2.046c0,-0.104 0.084,-0.188 0.188,-0.188zm0.396 0.376l-0.208 0 0 1.669 0.208 0 0 -1.669z"/>
   <path class="fil2" d="M5.572 0.5c-0.138,0.257 -0.338,0.432 -0.338,0.619 0,0.186 0.151,0.338 0.338,0.338 0.187,0 0.338,-0.152 0.338,-0.338 0,-0.187 -0.2,-0.362 -0.338,-0.619z"/>
   <path class="fil1" d="M5.572 0.848l-0.016 0.022c-0.072,0.103 -0.134,0.191 -0.134,0.249 0,0.041 0.017,0.079 0.044,0.106 0.027,0.027 0.064,0.044 0.106,0.044 0.042,0 0.08,-0.017 0.107,-0.044 0.026,-0.027 0.043,-0.065 0.043,-0.106 0,-0.06 -0.064,-0.15 -0.139,-0.255l-0.011 -0.016zm-0.318 -0.201c0.052,-0.074 0.109,-0.154 0.152,-0.235 0.017,-0.032 0.043,-0.059 0.078,-0.078 0.091,-0.048 0.205,-0.014 0.254,0.078 0.043,0.08 0.1,0.161 0.152,0.235 0.112,0.159 0.209,0.295 0.209,0.472 0,0.144 -0.059,0.276 -0.155,0.371 -0.096,0.096 -0.227,0.155 -0.372,0.155 -0.144,0 -0.276,-0.059 -0.371,-0.154 -0.096,-0.096 -0.155,-0.228 -0.155,-0.372 0,-0.175 0.094,-0.31 0.204,-0.466l0.004 -0.006z"/>
   <polygon class="fil2" points="5.28,1.938 5.864,1.938 5.864,3.672 5.28,3.672 "/>
   <path class="fil1" d="M5.28 1.75l0.584 0c0.104,0 0.189,0.084 0.189,0.188l0 1.734c0,0.103 -0.085,0.188 -0.189,0.188l-0.584 0c-0.104,0 -0.188,-0.085 -0.188,-0.188l0 -1.734c0,-0.104 0.084,-0.188 0.188,-0.188zm0.396 0.376l-0.208 0 0 1.357 0.208 0 0 -1.357z"/>
   <path class="fil2" d="M4.056 3.671l-0.584 0 -2.136 0c-0.631,0 -1.148,0.517 -1.148,1.148l0 0.711c0.392,-0.165 0.453,-0.673 1.007,-0.67 0.667,-0.004 0.621,0.73 1.29,0.721 0.669,0.009 0.624,-0.725 1.29,-0.721 0.666,-0.004 0.62,0.73 1.29,0.721 0.669,0.009 0.623,-0.725 1.29,-0.721 0.544,-0.003 0.613,0.486 0.985,0.66l0 -0.701c0,-0.631 -0.517,-1.148 -1.148,-1.148l-0.328 0 -0.584 0 -1.224 0z"/>
   <path class="fil1" d="M4.056 3.86l-2.72 0c-0.264,0 -0.504,0.108 -0.678,0.282 -0.174,0.173 -0.282,0.413 -0.282,0.677l0 0.32 0.035 -0.04c0.182,-0.214 0.366,-0.428 0.784,-0.427l0.001 0c0.418,-0.001 0.602,0.213 0.784,0.427 0.128,0.149 0.255,0.298 0.503,0.295l0.004 0c0.248,0.003 0.376,-0.146 0.503,-0.295 0.183,-0.214 0.367,-0.428 0.784,-0.427l0.002 0c0.418,-0.001 0.601,0.213 0.784,0.427 0.127,0.149 0.255,0.298 0.503,0.295l0.004 0c0.248,0.003 0.375,-0.146 0.503,-0.295 0.183,-0.214 0.366,-0.428 0.784,-0.427l0.002 0c0.417,-0.001 0.601,0.213 0.783,0.427l0.012 0.014 0 -0.294c0,-0.264 -0.108,-0.504 -0.281,-0.678 -0.174,-0.173 -0.414,-0.281 -0.678,-0.281l-2.136 0zm-0.584 -0.377l2.72 0c0.367,0 0.701,0.151 0.943,0.392 0.242,0.243 0.393,0.577 0.393,0.944l0 0.997 -0.268 -0.126c-0.182,-0.085 -0.294,-0.216 -0.406,-0.347 -0.127,-0.148 -0.254,-0.297 -0.498,-0.296l-0.002 0c-0.245,-0.001 -0.372,0.148 -0.499,0.296 -0.184,0.215 -0.368,0.431 -0.79,0.426 -0.422,0.005 -0.606,-0.211 -0.79,-0.426 -0.127,-0.148 -0.254,-0.297 -0.499,-0.296l-0.002 0c-0.245,-0.001 -0.372,0.148 -0.499,0.296 -0.184,0.215 -0.368,0.431 -0.79,0.426 -0.422,0.005 -0.606,-0.211 -0.79,-0.426 -0.127,-0.148 -0.254,-0.297 -0.499,-0.296l-0.001 0c-0.245,-0.001 -0.373,0.148 -0.499,0.296 -0.118,0.138 -0.237,0.277 -0.435,0.36l-0.261 0.11 0 -0.994c0,-0.367 0.15,-0.702 0.392,-0.944 0.242,-0.241 0.576,-0.392 0.944,-0.392l2.136 0z"/>
  </g>
 </g>
</svg>
