<?xml version="1.0" encoding="UTF-8"?>
<!DOCTYPE svg PUBLIC "-//W3C//DTD SVG 1.1//EN" "http://www.w3.org/Graphics/SVG/1.1/DTD/svg11.dtd">
<!-- Creator: CorelDRAW 2018 (64-Bit) -->
<svg xmlns="http://www.w3.org/2000/svg" xml:space="preserve" width="11px" height="15px" version="1.1" style="shape-rendering:geometricPrecision; text-rendering:geometricPrecision; image-rendering:optimizeQuality; fill-rule:evenodd; clip-rule:evenodd"
viewBox="0 0 0.113 0.151"
 xmlns:xlink="http://www.w3.org/1999/xlink">
 <defs>
  <style type="text/css">
   <![CDATA[
    .fil0 {fill:gray;fill-rule:nonzero}
   ]]>
  </style>
 </defs>
 <g id="Layer_x0020_1">
  <metadata id="CorelCorpID_0Corel-Layer"/>
  <path class="fil0" d="M0.005 0l0.103 0c0.003,0 0.005,0.002 0.005,0.005l0 0.141c0,0.002 -0.002,0.005 -0.005,0.005 -0.001,0 -0.003,-0.001 -0.003,-0.002l-0.049 -0.035 -0.048 0.036c-0.002,0.001 -0.005,0.001 -0.007,-0.001 -0.001,-0.001 -0.001,-0.002 -0.001,-0.003l0 -0.141c0,-0.003 0.002,-0.005 0.005,-0.005zm0.098 0.01l-0.093 0 0 0.126 0.043 -0.032c0.002,-0.001 0.005,-0.001 0.006,0l0.044 0.032 0 -0.126z"/>
 </g>
</svg>
