<?xml version="1.0" encoding="UTF-8"?>
<!DOCTYPE svg PUBLIC "-//W3C//DTD SVG 1.1//EN" "http://www.w3.org/Graphics/SVG/1.1/DTD/svg11.dtd">
<!-- Creator: CorelDRAW 2018 (64-Bit) -->
<svg xmlns="http://www.w3.org/2000/svg" xml:space="preserve" width="36px" height="8px" version="1.1" style="shape-rendering:geometricPrecision; text-rendering:geometricPrecision; image-rendering:optimizeQuality; fill-rule:evenodd; clip-rule:evenodd"
viewBox="0 0 0.697 0.16"
 xmlns:xlink="http://www.w3.org/1999/xlink">
 <defs>
  <style type="text/css">
   <![CDATA[
    .fil0 {fill:gray;fill-rule:nonzero}
   ]]>
  </style>
 </defs>
 <g id="Layer_x0020_1">
  <metadata id="CorelCorpID_0Corel-Layer"/>
  <g id="_2348887887440">
   <path class="fil0" d="M0.08 0c0.022,0 0.042,0.009 0.057,0.023 0.014,0.015 0.023,0.035 0.023,0.057 0,0.022 -0.009,0.042 -0.023,0.057 -0.015,0.014 -0.035,0.023 -0.057,0.023 -0.022,0 -0.042,-0.009 -0.057,-0.023 -0.014,-0.015 -0.023,-0.035 -0.023,-0.057 0,-0.022 0.009,-0.042 0.023,-0.057 0.015,-0.014 0.035,-0.023 0.057,-0.023zm0.043 0.037c-0.011,-0.011 -0.026,-0.018 -0.043,-0.018 -0.017,0 -0.032,0.007 -0.043,0.018 -0.011,0.011 -0.018,0.026 -0.018,0.043 0,0.017 0.007,0.032 0.018,0.043 0.011,0.011 0.026,0.018 0.043,0.018 0.017,0 0.032,-0.007 0.043,-0.018 0.011,-0.011 0.018,-0.026 0.018,-0.043 0,-0.017 -0.007,-0.032 -0.018,-0.043z"/>
   <path class="fil0" d="M0.349 0c0.022,0 0.042,0.009 0.056,0.023 0.015,0.015 0.024,0.035 0.024,0.057 0,0.022 -0.009,0.042 -0.024,0.057 -0.014,0.014 -0.034,0.023 -0.056,0.023 -0.022,0 -0.042,-0.009 -0.057,-0.023 -0.014,-0.015 -0.023,-0.035 -0.023,-0.057 0,-0.022 0.009,-0.042 0.023,-0.057 0.015,-0.014 0.035,-0.023 0.057,-0.023zm0.043 0.037c-0.011,-0.011 -0.026,-0.018 -0.043,-0.018 -0.017,0 -0.032,0.007 -0.043,0.018 -0.011,0.011 -0.018,0.026 -0.018,0.043 0,0.017 0.007,0.032 0.018,0.043 0.011,0.011 0.026,0.018 0.043,0.018 0.017,0 0.032,-0.007 0.043,-0.018 0.011,-0.011 0.018,-0.026 0.018,-0.043 0,-0.017 -0.007,-0.032 -0.018,-0.043z"/>
   <path class="fil0" d="M0.617 0c0.022,0 0.042,0.009 0.057,0.023 0.014,0.015 0.023,0.035 0.023,0.057 0,0.022 -0.009,0.042 -0.023,0.057 -0.015,0.014 -0.035,0.023 -0.057,0.023 -0.022,0 -0.042,-0.009 -0.056,-0.023 -0.015,-0.015 -0.024,-0.035 -0.024,-0.057 0,-0.022 0.009,-0.042 0.024,-0.057 0.014,-0.014 0.034,-0.023 0.056,-0.023zm0.043 0.037c-0.011,-0.011 -0.026,-0.018 -0.043,-0.018 -0.016,0 -0.032,0.007 -0.043,0.018 -0.011,0.011 -0.018,0.026 -0.018,0.043 0,0.017 0.007,0.032 0.018,0.043 0.011,0.011 0.027,0.018 0.043,0.018 0.017,0 0.032,-0.007 0.043,-0.018 0.011,-0.011 0.018,-0.026 0.018,-0.043 0,-0.017 -0.007,-0.032 -0.018,-0.043z"/>
  </g>
 </g>
</svg>
