<?xml version="1.0" encoding="UTF-8"?>
<!DOCTYPE svg PUBLIC "-//W3C//DTD SVG 1.1//EN" "http://www.w3.org/Graphics/SVG/1.1/DTD/svg11.dtd">
<!-- Creator: CorelDRAW 2018 (64-Bit) -->
<svg xmlns="http://www.w3.org/2000/svg" xml:space="preserve" width="31px" height="27px" version="1.1" style="shape-rendering:geometricPrecision; text-rendering:geometricPrecision; image-rendering:optimizeQuality; fill-rule:evenodd; clip-rule:evenodd"
viewBox="0 0 0.52 0.449"
 xmlns:xlink="http://www.w3.org/1999/xlink">
 <defs>
  <style type="text/css">
   <![CDATA[
    .fil0 {fill:gray;fill-rule:nonzero}
   ]]>
  </style>
 </defs>
 <g id="Layer_x0020_1">
  <metadata id="CorelCorpID_0Corel-Layer"/>
  <g id="_2312938513760">
   <path class="fil0" d="M0.086 0.036c0.005,0 0.009,0.004 0.009,0.008 0,0.005 -0.004,0.009 -0.009,0.009l-0.067 0c-0.001,0 -0.001,0 -0.002,0.001 0,0 0,0.001 0,0.001l0 0.328c0,0 0,0.001 0,0.001 0.001,0.001 0.001,0.001 0.002,0.001l0.199 0c0.005,0 0.009,0.004 0.009,0.009 0,0.004 -0.004,0.008 -0.009,0.008l-0.199 0c-0.005,0 -0.01,-0.002 -0.013,-0.006 -0.004,-0.003 -0.006,-0.008 -0.006,-0.013l0 -0.328c0,-0.005 0.002,-0.01 0.006,-0.013 0.003,-0.004 0.008,-0.006 0.013,-0.006l0.067 0zm0.314 0.085c0,0.005 -0.004,0.009 -0.009,0.009 -0.004,0 -0.008,-0.004 -0.008,-0.009l0 -0.066c0,0 0,-0.001 -0.001,-0.001 0,-0.001 -0.001,-0.001 -0.002,-0.001l-0.045 0c-0.005,0 -0.008,-0.004 -0.008,-0.009 0,-0.004 0.003,-0.008 0.008,-0.008l0.045 0c0.006,0 0.01,0.002 0.014,0.006 0.003,0.003 0.006,0.008 0.006,0.013l0 0.066z"/>
   <path class="fil0" d="M0.286 0.036c0.005,0 0.008,0.004 0.008,0.008 0,0.005 -0.003,0.009 -0.008,0.009l-0.034 0c-0.005,0 -0.008,-0.004 -0.008,-0.009 0,-0.004 0.003,-0.008 0.008,-0.008l0.034 0z"/>
   <path class="fil0" d="M0.186 0.036c0.005,0 0.008,0.004 0.008,0.008 0,0.005 -0.003,0.009 -0.008,0.009l-0.033 0c-0.004,0 -0.008,-0.004 -0.008,-0.009 0,-0.004 0.004,-0.008 0.008,-0.008l0.033 0z"/>
   <path class="fil0" d="M0.3 0.017c-0.002,0 -0.003,0 -0.004,0.001 -0.001,0.001 -0.002,0.002 -0.002,0.004l0 0.045c0,0.001 0.001,0.003 0.002,0.004 0.001,0.001 0.002,0.001 0.004,0.001 0.001,0 0.002,0 0.003,-0.001 0.001,-0.001 0.002,-0.003 0.002,-0.004l0 -0.045c0,-0.002 -0.001,-0.003 -0.002,-0.004 -0.001,-0.001 -0.002,-0.001 -0.003,-0.001zm0 -0.017c0.006,0 0.011,0.002 0.015,0.006l0 0c0.004,0.004 0.006,0.01 0.006,0.016l0 0.045c0,0.006 -0.002,0.011 -0.006,0.015l0 0.001c-0.004,0.003 -0.009,0.006 -0.015,0.006 -0.006,0 -0.012,-0.003 -0.016,-0.006l0 -0.001c-0.004,-0.004 -0.006,-0.009 -0.006,-0.015l0 -0.045c0,-0.006 0.002,-0.012 0.006,-0.016l0 0c0.004,-0.004 0.01,-0.006 0.016,-0.006z"/>
   <path class="fil0" d="M0.2 0.017c-0.002,0 -0.003,0 -0.004,0.001 -0.001,0.001 -0.002,0.002 -0.002,0.004l0 0.045c0,0.001 0.001,0.003 0.002,0.004 0.001,0.001 0.002,0.001 0.004,0.001 0.001,0 0.003,0 0.003,-0.001 0.001,-0.001 0.002,-0.003 0.002,-0.004l0 -0.045c0,-0.002 -0.001,-0.003 -0.001,-0.004 -0.001,-0.001 -0.003,-0.001 -0.004,-0.001zm0 -0.017c0.006,0 0.011,0.002 0.015,0.006l0 0c0.004,0.004 0.007,0.01 0.007,0.016l0 0.045c0,0.006 -0.003,0.011 -0.007,0.015l0 0.001c-0.004,0.003 -0.009,0.006 -0.015,0.006 -0.006,0 -0.012,-0.003 -0.016,-0.006l0 -0.001c-0.004,-0.004 -0.006,-0.009 -0.006,-0.015l0 -0.045c0,-0.006 0.002,-0.012 0.006,-0.016l0 0c0.004,-0.004 0.01,-0.006 0.016,-0.006z"/>
   <path class="fil0" d="M0.1 0.017c-0.001,0 -0.003,0 -0.004,0.001 -0.001,0.001 -0.001,0.002 -0.001,0.004l0 0.045c0,0.001 0,0.003 0.001,0.004 0.001,0.001 0.003,0.001 0.004,0.001 0.002,0 0.003,0 0.004,-0.001 0.001,-0.001 0.001,-0.003 0.001,-0.004l0 -0.045c0,-0.002 0,-0.003 -0.001,-0.004 -0.001,-0.001 -0.002,-0.001 -0.004,-0.001zm0 -0.017c0.006,0 0.012,0.002 0.016,0.006l0 0c0.004,0.004 0.006,0.01 0.006,0.016l0 0.045c0,0.006 -0.002,0.011 -0.006,0.015l0 0.001c-0.004,0.003 -0.01,0.006 -0.016,0.006 -0.006,0 -0.011,-0.003 -0.015,-0.006l0 -0.001c-0.004,-0.004 -0.007,-0.009 -0.007,-0.015l0 -0.045c0,-0.006 0.003,-0.012 0.007,-0.016l0 0c0.004,-0.004 0.009,-0.006 0.015,-0.006z"/>
   <path class="fil0" d="M0.076 0.154l0.034 0c0.003,0 0.007,0.001 0.009,0.003 0.002,0.003 0.004,0.006 0.004,0.01l0 0.033c0,0.003 -0.002,0.007 -0.004,0.009 -0.002,0.002 -0.006,0.004 -0.009,0.004l-0.034 0c-0.003,0 -0.006,-0.002 -0.009,-0.004 -0.002,-0.002 -0.003,-0.006 -0.003,-0.009l0 -0.033c0,-0.004 0.001,-0.007 0.003,-0.01 0.003,-0.002 0.006,-0.003 0.009,-0.003zm0.03 0.016l-0.026 0 0 0.026 0.026 0 0 -0.026z"/>
   <path class="fil0" d="M0.183 0.154l0.033 0c0.004,0 0.007,0.001 0.01,0.003 0.002,0.003 0.003,0.006 0.003,0.01l0 0.033c0,0.003 -0.001,0.007 -0.003,0.009 -0.003,0.002 -0.006,0.004 -0.01,0.004l-0.033 0c-0.003,0 -0.007,-0.002 -0.009,-0.004 -0.002,-0.002 -0.004,-0.006 -0.004,-0.009l0 -0.033c0,-0.004 0.002,-0.007 0.004,-0.01 0.002,-0.002 0.006,-0.003 0.009,-0.003zm0.03 0.016l-0.026 0 0 0.026 0.026 0 0 -0.026z"/>
   <path class="fil0" d="M0.076 0.262l0.034 0c0.003,0 0.007,0.002 0.009,0.004 0.002,0.003 0.004,0.006 0.004,0.009l0 0.034c0,0.003 -0.002,0.006 -0.004,0.009 -0.002,0.002 -0.006,0.004 -0.009,0.004l-0.034 0c-0.003,0 -0.006,-0.002 -0.009,-0.004 -0.002,-0.003 -0.003,-0.006 -0.003,-0.009l0 -0.034c0,-0.003 0.001,-0.006 0.003,-0.009 0.003,-0.002 0.006,-0.004 0.009,-0.004zm0.03 0.017l-0.026 0 0 0.026 0.026 0 0 -0.026z"/>
   <path class="fil0" d="M0.363 0.14l0.048 0.091 0.102 0.018c0.004,0.001 0.007,0.005 0.007,0.009 -0.001,0.002 -0.002,0.004 -0.003,0.005l-0.071 0.074 0.014 0.102c0.001,0.005 -0.002,0.009 -0.007,0.009 -0.002,0.001 -0.003,0 -0.005,0l-0.092 -0.045 -0.093 0.045c-0.004,0.002 -0.009,0 -0.011,-0.004 -0.001,-0.002 -0.001,-0.004 -0.001,-0.005l0.014 -0.102 -0.071 -0.074c-0.003,-0.004 -0.003,-0.009 0,-0.012 0.001,-0.001 0.003,-0.002 0.004,-0.002l0.102 -0.018 0.048 -0.091c0.002,-0.004 0.007,-0.006 0.011,-0.003 0.002,0 0.003,0.002 0.004,0.003zm0.036 0.102l-0.043 -0.081 -0.043 0.081c-0.001,0.002 -0.004,0.004 -0.006,0.005l-0.09 0.016 0.063 0.065c0.002,0.002 0.003,0.005 0.002,0.007l-0.012 0.091 0.082 -0.04c0.002,-0.001 0.005,-0.001 0.007,0l0.082 0.04 -0.012 -0.091c-0.001,-0.002 0,-0.005 0.002,-0.007l0.064 -0.065 -0.091 -0.016c-0.002,-0.001 -0.004,-0.002 -0.005,-0.005z"/>
  </g>
 </g>
</svg>
