<?xml version="1.0" encoding="UTF-8"?>
<!DOCTYPE svg PUBLIC "-//W3C//DTD SVG 1.1//EN" "http://www.w3.org/Graphics/SVG/1.1/DTD/svg11.dtd">
<!-- Creator: CorelDRAW 2018 (64-Bit) -->
<svg xmlns="http://www.w3.org/2000/svg" xml:space="preserve" width="18px" height="14px" version="1.1" style="shape-rendering:geometricPrecision; text-rendering:geometricPrecision; image-rendering:optimizeQuality; fill-rule:evenodd; clip-rule:evenodd"
viewBox="0 0 0.669 0.507"
 xmlns:xlink="http://www.w3.org/1999/xlink">
 <defs>
  <style type="text/css">
   <![CDATA[
    .fil2 {fill:#00D4E3}
    .fil1 {fill:#264361}
    .fil3 {fill:#00D4E3;fill-rule:nonzero}
    .fil0 {fill:#264361;fill-rule:nonzero}
   ]]>
  </style>
 </defs>
 <g id="Layer_x0020_1">
  <metadata id="CorelCorpID_0Corel-Layer"/>
  <g id="_3160587045152">
   <path class="fil0" d="M0.102 0.269c0,0.01 -0.008,0.018 -0.018,0.018 -0.01,0 -0.018,-0.008 -0.018,-0.018 0,-0.074 0.03,-0.141 0.078,-0.19 0.049,-0.049 0.116,-0.079 0.191,-0.079 0.053,0 0.103,0.016 0.146,0.043 0.043,0.028 0.078,0.068 0.099,0.117 0.004,0.009 0,0.019 -0.009,0.023 -0.009,0.004 -0.02,0 -0.024,-0.009 -0.018,-0.042 -0.049,-0.076 -0.086,-0.1 -0.037,-0.024 -0.08,-0.038 -0.126,-0.038 -0.065,0 -0.123,0.026 -0.165,0.068 -0.042,0.042 -0.068,0.101 -0.068,0.165z"/>
   <polygon class="fil1" points="0.625,0.15 0.599,0.269 0.509,0.187 "/>
   <path class="fil0" d="M0.643 0.154l-0.026 0.119c-0.003,0.01 -0.012,0.016 -0.022,0.014 -0.004,-0.001 -0.007,-0.003 -0.009,-0.006l-0.089 -0.081c-0.007,-0.006 -0.008,-0.018 -0.001,-0.025 0.002,-0.003 0.005,-0.004 0.008,-0.005l0.116 -0.037c0.009,-0.003 0.019,0.002 0.022,0.012 0.001,0.003 0.001,0.006 0.001,0.009zm-0.055 0.081l0.013 -0.058 -0.057 0.018 0.044 0.04z"/>
   <rect class="fil1" x="0.018" y="0.357" width="0.131" height="0.131" rx="0.014" ry="0.014"/>
   <path class="fil0" d="M0.032 0.339l0.103 0c0.009,0 0.017,0.004 0.023,0.01 0.006,0.005 0.01,0.013 0.01,0.022l0 0.104c0,0.008 -0.004,0.016 -0.01,0.022 -0.006,0.006 -0.014,0.01 -0.023,0.01l-0.103 0c-0.009,0 -0.017,-0.004 -0.023,-0.01 -0.005,-0.006 -0.009,-0.014 -0.009,-0.022l0 -0.104c0,-0.009 0.004,-0.017 0.009,-0.022 0.006,-0.006 0.014,-0.01 0.023,-0.01zm0.099 0.036l-0.095 0 0 0.095 0.095 0 0 -0.095z"/>
   <rect class="fil1" x="0.52" y="0.357" width="0.131" height="0.131" rx="0.014" ry="0.014"/>
   <path class="fil0" d="M0.534 0.339l0.103 0c0.009,0 0.017,0.004 0.023,0.01 0.006,0.005 0.009,0.013 0.009,0.022l0 0.104c0,0.008 -0.003,0.016 -0.009,0.022 -0.006,0.006 -0.014,0.01 -0.023,0.01l-0.103 0c-0.009,0 -0.017,-0.004 -0.023,-0.01 -0.006,-0.006 -0.009,-0.014 -0.009,-0.022l0 -0.104c0,-0.009 0.003,-0.017 0.009,-0.022 0.006,-0.006 0.014,-0.01 0.023,-0.01zm0.099 0.036l-0.095 0 0 0.095 0.095 0 0 -0.095z"/>
   <rect class="fil2" x="0.269" y="0.357" width="0.131" height="0.131" rx="0.014" ry="0.014"/>
   <path class="fil3" d="M0.283 0.339l0.103 0c0.009,0 0.017,0.004 0.023,0.01 0.006,0.005 0.009,0.013 0.009,0.022l0 0.104c0,0.008 -0.003,0.016 -0.009,0.022 -0.006,0.006 -0.014,0.01 -0.023,0.01l-0.103 0c-0.009,0 -0.017,-0.004 -0.023,-0.01 -0.006,-0.006 -0.009,-0.014 -0.009,-0.022l0 -0.104c0,-0.009 0.003,-0.017 0.009,-0.022 0.006,-0.006 0.014,-0.01 0.023,-0.01zm0.099 0.036l-0.095 0 0 0.095 0.095 0 0 -0.095z"/>
  </g>
 </g>
</svg>
