<?xml version="1.0" encoding="UTF-8"?>
<!DOCTYPE svg PUBLIC "-//W3C//DTD SVG 1.1//EN" "http://www.w3.org/Graphics/SVG/1.1/DTD/svg11.dtd">
<!-- Creator: CorelDRAW 2018 (64-Bit) -->
<svg xmlns="http://www.w3.org/2000/svg" xml:space="preserve" width="40px" height="46px" version="1.1" style="shape-rendering:geometricPrecision; text-rendering:geometricPrecision; image-rendering:optimizeQuality; fill-rule:evenodd; clip-rule:evenodd"
viewBox="0 0 1.516 1.748"
 xmlns:xlink="http://www.w3.org/1999/xlink">
 <defs>
  <style type="text/css">
   <![CDATA[
    .fil0 {fill:#00F4FF;fill-rule:nonzero}
   ]]>
  </style>
 </defs>
 <g id="Layer_x0020_1">
  <metadata id="CorelCorpID_0Corel-Layer"/>
  <g id="_3160351842800">
   <path class="fil0" d="M0.76 1.514c0.011,0 0.019,0.009 0.019,0.019 0,0.01 -0.008,0.019 -0.019,0.019l-0.703 0c-0.015,0 -0.03,-0.007 -0.04,-0.017l-0.001 -0.001c-0.01,-0.011 -0.016,-0.024 -0.016,-0.04l0 -1.437c0,-0.015 0.006,-0.03 0.017,-0.04l0.001 -0.001c0.01,-0.01 0.024,-0.016 0.039,-0.016l0.813 0c0.006,0 0.01,0.002 0.014,0.006l0.326 0.326c0.004,0.004 0.006,0.009 0.006,0.015l0 0.68c0,0.011 -0.009,0.019 -0.019,0.019 -0.011,0 -0.019,-0.008 -0.019,-0.019l0 -0.674 -0.315 -0.315 -0.806 0c-0.005,0 -0.009,0.002 -0.013,0.005l0 0.001c-0.004,0.003 -0.006,0.008 -0.006,0.013l0 1.437c0,0.006 0.002,0.01 0.005,0.014l0.001 0c0.003,0.004 0.008,0.006 0.013,0.006l0.703 0z"/>
   <path class="fil0" d="M1.151 0.326l-0.262 -0.261 0 0.241c0,0.006 0.003,0.011 0.006,0.014 0.004,0.004 0.009,0.006 0.015,0.006l0.241 0zm-0.267 -0.32l0.326 0.326c0.004,0.003 0.006,0.008 0.006,0.013 0,0.011 -0.009,0.019 -0.019,0.019l-0.287 0c-0.016,0 -0.031,-0.006 -0.041,-0.017 -0.011,-0.01 -0.017,-0.025 -0.017,-0.041l0 -0.287c0,-0.005 0.001,-0.01 0.005,-0.013 0.007,-0.008 0.019,-0.008 0.027,0z"/>
   <path class="fil0" d="M0.95 1.256l0.494 0c0.02,0 0.038,0.008 0.051,0.021 0.013,0.013 0.021,0.031 0.021,0.051l0 0.348c0,0.02 -0.008,0.038 -0.021,0.051 -0.013,0.013 -0.031,0.021 -0.051,0.021l-0.494 0c-0.02,0 -0.038,-0.008 -0.051,-0.021 -0.013,-0.013 -0.022,-0.031 -0.022,-0.051l0 -0.348c0,-0.02 0.009,-0.038 0.022,-0.051l0 0c0.013,-0.013 0.031,-0.021 0.051,-0.021zm0.494 0.037l-0.494 0c-0.01,0 -0.018,0.004 -0.025,0.011 -0.006,0.006 -0.01,0.014 -0.01,0.024l0 0.348c0,0.009 0.004,0.018 0.01,0.024 0.007,0.006 0.015,0.01 0.025,0.01l0.494 0c0.009,0 0.018,-0.004 0.024,-0.01 0.006,-0.006 0.01,-0.015 0.01,-0.024l0 -0.348c0,-0.01 -0.004,-0.018 -0.01,-0.024 -0.006,-0.007 -0.015,-0.011 -0.024,-0.011z"/>
   <path class="fil0" d="M0.889 1.41c-0.009,-0.004 -0.014,-0.015 -0.01,-0.025 0.004,-0.01 0.015,-0.014 0.025,-0.01 0.087,0.035 0.149,0.06 0.23,0.091l0.015 0.006c0.015,0.006 0.027,0.011 0.048,0.011 0.02,0 0.033,-0.005 0.047,-0.011l0.011 -0.004c0.041,-0.016 0.077,-0.031 0.115,-0.046 0.037,-0.015 0.075,-0.03 0.12,-0.048 0.01,-0.003 0.021,0.002 0.025,0.011 0.004,0.01 -0.001,0.021 -0.011,0.025 -0.044,0.017 -0.082,0.032 -0.12,0.047 -0.037,0.015 -0.073,0.029 -0.115,0.046l-0.01 0.004c-0.018,0.007 -0.034,0.014 -0.062,0.014 -0.028,0 -0.044,-0.007 -0.062,-0.014l-0.014 -0.006c-0.081,-0.031 -0.144,-0.055 -0.232,-0.091z"/>
   <path class="fil0" d="M1.244 1.488c0,-0.01 0.008,-0.019 0.019,-0.019 0.01,0 0.019,0.009 0.019,0.019l0 0.085c0,0.01 -0.009,0.018 -0.019,0.018l-0.132 0c-0.011,0 -0.019,-0.008 -0.019,-0.018l0 -0.085c0,-0.01 0.008,-0.019 0.019,-0.019 0.01,0 0.019,0.009 0.019,0.019l0 0.066 0.094 0 0 -0.066z"/>
   <path class="fil0" d="M1.084 1.239c0,0.011 -0.008,0.019 -0.019,0.019 -0.01,0 -0.019,-0.008 -0.019,-0.019 0,-0.022 0.01,-0.043 0.025,-0.058l0 0c0.015,-0.015 0.036,-0.025 0.059,-0.025l0.134 0c0.023,0 0.044,0.01 0.059,0.025 0.015,0.015 0.024,0.036 0.024,0.058 0,0.011 -0.008,0.019 -0.019,0.019 -0.01,0 -0.019,-0.008 -0.019,-0.019 0,-0.012 -0.005,-0.023 -0.013,-0.032 -0.008,-0.008 -0.02,-0.013 -0.032,-0.013l-0.134 0c-0.013,0 -0.024,0.005 -0.032,0.013 -0.009,0.009 -0.014,0.02 -0.014,0.032z"/>
   <path class="fil0" d="M1.478 1.379l0 -0.051c0,-0.01 -0.003,-0.018 -0.01,-0.024 -0.006,-0.007 -0.015,-0.011 -0.024,-0.011l-0.494 0c-0.01,0 -0.018,0.004 -0.025,0.011 -0.006,0.006 -0.01,0.014 -0.01,0.024l0 0.051c0.081,0.034 0.142,0.057 0.219,0.087l0.015 0.006c0.005,0.002 0.009,0.004 0.013,0.005l0.017 0.005c0.002,0 0.005,0 0.008,0.001 0.002,0 0.006,0 0.01,0 0.003,0 0.006,0 0.009,0l0.007 -0.001 0.019 -0.005 0.023 -0.009c0.04,-0.016 0.077,-0.031 0.114,-0.045 0.034,-0.014 0.069,-0.028 0.109,-0.044zm0.038 -0.051l0 0.077 -0.012 0.005c-0.044,0.017 -0.083,0.032 -0.121,0.048 -0.037,0.014 -0.073,0.029 -0.114,0.045l-0.01 0.004c-0.005,0.002 -0.01,0.004 -0.015,0.006 -0.007,0.002 -0.017,0.004 -0.024,0.006 -0.004,0.001 -0.008,0.001 -0.011,0.001 -0.004,0.001 -0.008,0.001 -0.012,0.001 -0.004,0 -0.009,0 -0.014,-0.001 -0.004,0 -0.008,-0.001 -0.012,-0.002 -0.006,-0.001 -0.014,-0.003 -0.02,-0.005 -0.006,-0.002 -0.011,-0.004 -0.016,-0.006l-0.014 -0.006c-0.081,-0.031 -0.144,-0.055 -0.232,-0.091l-0.012 -0.005 0 -0.077c0,-0.02 0.009,-0.038 0.022,-0.051 0.013,-0.013 0.031,-0.021 0.051,-0.021l0.494 0c0.02,0 0.038,0.008 0.051,0.021 0.013,0.013 0.021,0.031 0.021,0.051z"/>
   <path class="fil0" d="M0.459 0.692c-0.01,0 -0.019,-0.008 -0.019,-0.019 0,-0.01 0.009,-0.019 0.019,-0.019l0.555 0c0.011,0 0.019,0.009 0.019,0.019 0,0.011 -0.008,0.019 -0.019,0.019l-0.555 0z"/>
   <path class="fil0" d="M0.459 0.411c-0.01,0 -0.019,-0.008 -0.019,-0.019 0,-0.01 0.009,-0.018 0.019,-0.018l0.282 0c0.01,0 0.019,0.008 0.019,0.018 0,0.011 -0.009,0.019 -0.019,0.019l-0.282 0z"/>
   <path class="fil0" d="M0.459 0.935c-0.01,0 -0.019,-0.008 -0.019,-0.019 0,-0.01 0.009,-0.018 0.019,-0.018l0.555 0c0.011,0 0.019,0.008 0.019,0.018 0,0.011 -0.008,0.019 -0.019,0.019l-0.555 0z"/>
   <path class="fil0" d="M0.459 1.178c-0.01,0 -0.019,-0.008 -0.019,-0.019 0,-0.01 0.009,-0.018 0.019,-0.018l0.301 0c0.011,0 0.019,0.008 0.019,0.018 0,0.011 -0.008,0.019 -0.019,0.019l-0.301 0z"/>
   <path class="fil0" d="M0.158 0.391c-0.007,-0.007 -0.007,-0.019 0,-0.027 0.008,-0.007 0.02,-0.007 0.027,0l0.047 0.047 0.078 -0.078c0.007,-0.007 0.019,-0.007 0.027,0 0.007,0.008 0.007,0.02 0,0.027l-0.092 0.091c-0.007,0.008 -0.019,0.008 -0.026,0l-0.061 -0.06z"/>
   <path class="fil0" d="M0.158 0.672c-0.007,-0.007 -0.007,-0.019 0,-0.027 0.008,-0.007 0.02,-0.007 0.027,0l0.047 0.047 0.078 -0.078c0.007,-0.007 0.019,-0.007 0.027,0 0.007,0.008 0.007,0.02 0,0.027l-0.092 0.091c-0.007,0.008 -0.019,0.008 -0.026,0l-0.061 -0.06z"/>
   <path class="fil0" d="M0.158 0.915c-0.007,-0.007 -0.007,-0.019 0,-0.027 0.008,-0.007 0.02,-0.007 0.027,0l0.047 0.047 0.078 -0.078c0.007,-0.007 0.019,-0.007 0.027,0 0.007,0.008 0.007,0.02 0,0.027l-0.092 0.091c-0.007,0.008 -0.019,0.008 -0.026,0l-0.061 -0.06z"/>
   <path class="fil0" d="M0.158 1.158c-0.007,-0.007 -0.007,-0.019 0,-0.027 0.008,-0.007 0.02,-0.007 0.027,0l0.047 0.047 0.078 -0.077c0.007,-0.008 0.019,-0.008 0.027,0 0.007,0.007 0.007,0.019 0,0.026l-0.092 0.091c-0.007,0.008 -0.019,0.008 -0.026,0l-0.061 -0.06z"/>
  </g>
 </g>
</svg>
