<?xml version="1.0" encoding="UTF-8"?>
<!DOCTYPE svg PUBLIC "-//W3C//DTD SVG 1.1//EN" "http://www.w3.org/Graphics/SVG/1.1/DTD/svg11.dtd">
<!-- Creator: CorelDRAW 2018 (64-Bit) -->
<svg xmlns="http://www.w3.org/2000/svg" xml:space="preserve" width="55px" height="46px" version="1.1" style="shape-rendering:geometricPrecision; text-rendering:geometricPrecision; image-rendering:optimizeQuality; fill-rule:evenodd; clip-rule:evenodd"
viewBox="0 0 5.014 4.196"
 xmlns:xlink="http://www.w3.org/1999/xlink">
 <defs>
  <style type="text/css">
   <![CDATA[
    .fil0 {fill:#00F4FF;fill-rule:nonzero}
   ]]>
  </style>
 </defs>
 <g id="Layer_x0020_1">
  <metadata id="CorelCorpID_0Corel-Layer"/>
  <g id="_3159002398656">
   <path class="fil0" d="M1.076 1.382l0 -0.393c0,-0.104 0.044,-0.198 0.114,-0.266 0.07,-0.067 0.167,-0.109 0.273,-0.109l3.163 0c0.107,0 0.203,0.042 0.273,0.109 0.071,0.068 0.115,0.162 0.115,0.266l0 0.403c0,0.021 -0.015,0.039 -0.034,0.044 -0.269,0.1 -0.518,0.195 -0.763,0.287 -0.232,0.088 -0.46,0.174 -0.74,0.279l-0.064 0.025c-0.109,0.043 -0.204,0.08 -0.368,0.08 -0.164,0 -0.259,-0.037 -0.368,-0.08l-0.064 -0.025c-0.268,-0.1 -0.499,-0.19 -0.734,-0.281 -0.242,-0.094 -0.489,-0.19 -0.773,-0.296 -0.019,-0.007 -0.03,-0.024 -0.03,-0.043zm0.091 -0.393l0 0.362c0.278,0.104 0.514,0.195 0.745,0.285 0.238,0.093 0.472,0.184 0.732,0.281 0.031,0.011 0.05,0.018 0.067,0.025 0.099,0.04 0.188,0.074 0.334,0.074 0.146,0 0.234,-0.034 0.334,-0.074 0.017,-0.007 0.035,-0.014 0.066,-0.025 0.254,-0.095 0.495,-0.186 0.74,-0.279 0.225,-0.085 0.453,-0.171 0.738,-0.278l0 -0.371c0,-0.078 -0.034,-0.149 -0.087,-0.2 -0.053,-0.052 -0.128,-0.084 -0.21,-0.084l-3.163 0c-0.082,0 -0.156,0.032 -0.21,0.084 -0.053,0.051 -0.086,0.122 -0.086,0.2z"/>
   <path class="fil0" d="M1.423 1.185c0,0.025 -0.02,0.046 -0.045,0.046 -0.025,0 -0.046,-0.021 -0.046,-0.046l0 -0.084c0,-0.07 0.031,-0.133 0.081,-0.179 0.049,-0.045 0.117,-0.073 0.19,-0.073l0.33 0c0.025,0 0.045,0.021 0.045,0.046 0,0.025 -0.02,0.045 -0.045,0.045l-0.33 0c-0.05,0 -0.095,0.019 -0.128,0.049 -0.032,0.029 -0.052,0.069 -0.052,0.112l0 0.084z"/>
   <path class="fil0" d="M1.236 1.997c0,0.025 -0.02,0.045 -0.045,0.045 -0.025,0 -0.046,-0.02 -0.046,-0.045l0 -0.273c0,-0.025 0.021,-0.045 0.046,-0.045 0.025,0 0.045,0.02 0.045,0.045l0 0.273z"/>
   <path class="fil0" d="M4.853 1.734c0,-0.025 0.021,-0.046 0.046,-0.046 0.025,0 0.045,0.021 0.045,0.046l0 1.401c0,0.103 -0.042,0.197 -0.11,0.265 -0.068,0.068 -0.162,0.11 -0.265,0.11l-2.274 0c-0.025,0 -0.045,-0.02 -0.045,-0.045 0,-0.025 0.02,-0.046 0.045,-0.046l2.274 0c0.078,0 0.149,-0.032 0.201,-0.083 0.051,-0.052 0.083,-0.123 0.083,-0.201l0 -1.401z"/>
   <path class="fil0" d="M4.586 2.616c0,-0.025 0.021,-0.045 0.046,-0.045 0.025,0 0.045,0.02 0.045,0.045l0 0.388c0,0.078 -0.032,0.149 -0.083,0.201 -0.052,0.051 -0.123,0.083 -0.201,0.083l-0.474 0c-0.026,0 -0.046,-0.02 -0.046,-0.045 0,-0.025 0.02,-0.046 0.046,-0.046l0.474 0c0.053,0 0.101,-0.022 0.136,-0.057 0.035,-0.035 0.057,-0.083 0.057,-0.136l0 -0.388z"/>
   <path class="fil0" d="M3.407 1.977c0,-0.025 0.021,-0.046 0.046,-0.046 0.025,0 0.045,0.021 0.045,0.046l0 0.521c0,0.025 -0.02,0.045 -0.045,0.045l-0.816 0c-0.025,0 -0.046,-0.02 -0.046,-0.045l0 -0.521c0,-0.025 0.021,-0.046 0.046,-0.046 0.025,0 0.045,0.021 0.045,0.046l0 0.475 0.725 0 0 -0.475z"/>
   <path class="fil0" d="M2.28 0.443c0,0.025 -0.021,0.045 -0.046,0.045 -0.025,0 -0.046,-0.02 -0.046,-0.045 0,-0.122 0.05,-0.233 0.13,-0.313 0.081,-0.08 0.191,-0.13 0.313,-0.13l0.827 0c0.122,0 0.233,0.05 0.313,0.13l0.002 0.003c0.079,0.08 0.128,0.189 0.128,0.31 0,0.025 -0.02,0.045 -0.046,0.045 -0.025,0 -0.045,-0.02 -0.045,-0.045 0,-0.096 -0.039,-0.183 -0.101,-0.247l-0.002 -0.002c-0.064,-0.063 -0.152,-0.103 -0.249,-0.103l-0.827 0c-0.097,0 -0.185,0.04 -0.248,0.103 -0.064,0.064 -0.103,0.152 -0.103,0.249z"/>
   <path class="fil0" d="M0.479 4.053c-0.028,0 -0.051,-0.023 -0.051,-0.051 0,-0.028 0.023,-0.051 0.051,-0.051l0.072 0c0.091,0 0.116,0.02 0.144,0.042 0.017,0.014 0.036,0.029 0.141,0.029l0.642 0c0.029,0 0.052,0.023 0.052,0.051 0,0.028 -0.023,0.051 -0.052,0.051l-0.642 0c-0.14,0 -0.174,-0.027 -0.205,-0.051 -0.013,-0.01 -0.025,-0.02 -0.08,-0.02l-0.072 0z"/>
   <path class="fil0" d="M1.906 3.054l-0.214 0c-0.025,0 -0.048,0.01 -0.065,0.027 -0.016,0.016 -0.026,0.039 -0.026,0.065 0,0.025 0.01,0.048 0.027,0.064 0.016,0.017 0.039,0.027 0.064,0.027l0.214 0c0.026,0 0.049,-0.01 0.065,-0.027 0.017,-0.016 0.027,-0.039 0.027,-0.064 0,-0.026 -0.01,-0.049 -0.027,-0.065 -0.016,-0.017 -0.039,-0.027 -0.065,-0.027zm-0.214 -0.102l0.214 0c0.054,0 0.102,0.021 0.138,0.056 0.035,0.036 0.056,0.084 0.056,0.138 0,0.053 -0.021,0.102 -0.057,0.137 -0.035,0.035 -0.083,0.057 -0.137,0.057l-0.214 0c-0.053,0 -0.102,-0.022 -0.137,-0.057 -0.035,-0.036 -0.057,-0.084 -0.057,-0.137 0,-0.054 0.022,-0.102 0.057,-0.138 0.035,-0.035 0.084,-0.056 0.137,-0.056z"/>
   <path class="fil0" d="M1.998 3.574c0,-0.029 0.023,-0.052 0.051,-0.052 0.028,0 0.051,0.023 0.051,0.052l0 0.142c0,0.054 -0.021,0.102 -0.057,0.138 -0.035,0.035 -0.083,0.056 -0.137,0.056l-0.214 0c-0.053,0 -0.102,-0.021 -0.137,-0.056l-0.003 -0.004c-0.033,-0.035 -0.054,-0.082 -0.054,-0.134 0,-0.053 0.022,-0.102 0.057,-0.137l0.004 -0.003c0.034,-0.033 0.082,-0.054 0.133,-0.054l0.072 0c0.028,0 0.051,0.023 0.051,0.052 0,0.028 -0.023,0.051 -0.051,0.051l-0.072 0c-0.024,0 -0.046,0.009 -0.062,0.024l-0.002 0.003c-0.017,0.016 -0.027,0.039 -0.027,0.064 0,0.025 0.009,0.047 0.024,0.063l0.003 0.002c0.016,0.017 0.039,0.027 0.064,0.027l0.214 0c0.026,0 0.049,-0.01 0.065,-0.027 0.017,-0.016 0.027,-0.039 0.027,-0.065l0 -0.142z"/>
   <path class="fil0" d="M1.855 3.859c0,-0.028 0.023,-0.051 0.051,-0.051 0.029,0 0.052,0.023 0.052,0.051l0 0.143c0,0.053 -0.022,0.102 -0.057,0.137l0 0c-0.036,0.035 -0.084,0.057 -0.137,0.057l-0.143 0c-0.054,0 -0.102,-0.022 -0.137,-0.057 -0.035,-0.035 -0.057,-0.084 -0.057,-0.137 0,-0.054 0.022,-0.102 0.057,-0.137 0.035,-0.035 0.083,-0.057 0.137,-0.057l0.071 0c0.029,0 0.052,0.023 0.052,0.051 0,0.028 -0.023,0.051 -0.052,0.051l-0.071 0c-0.025,0 -0.048,0.011 -0.065,0.027 -0.016,0.017 -0.026,0.04 -0.026,0.065 0,0.025 0.01,0.048 0.026,0.064 0.017,0.017 0.04,0.027 0.065,0.027l0.143 0c0.025,0 0.048,-0.01 0.064,-0.026 0.017,-0.017 0.027,-0.04 0.027,-0.065l0 -0.143z"/>
   <path class="fil0" d="M0.103 4.022l0.325 0 0 -1.111 -0.325 0 0 1.111zm0.376 0.102l-0.428 0c-0.028,0 -0.051,-0.023 -0.051,-0.051l0 -1.213c0,-0.028 0.023,-0.051 0.051,-0.051l0.428 0c0.029,0 0.052,0.023 0.052,0.051l0 1.213c0,0.028 -0.023,0.051 -0.052,0.051z"/>
   <path class="fil0" d="M1.642 3.28c0.004,-0.024 0.025,-0.043 0.05,-0.043l0.072 0 0 0.103c-0.026,0 -0.049,0.01 -0.065,0.026 -0.017,0.017 -0.027,0.04 -0.027,0.065 0,0.025 0.01,0.048 0.027,0.065l0.002 0.002c0.016,0.015 0.038,0.024 0.063,0.024l0.214 0c0.025,0 0.048,-0.01 0.064,-0.026 0.017,-0.017 0.027,-0.04 0.027,-0.065 0,-0.025 -0.01,-0.048 -0.027,-0.065 -0.016,-0.016 -0.039,-0.026 -0.064,-0.026l-0.072 0c-0.028,0 -0.051,-0.023 -0.051,-0.052 0,-0.028 0.023,-0.051 0.051,-0.051l0.072 0c0.053,0 0.102,0.022 0.137,0.057 0.035,0.035 0.057,0.083 0.057,0.137 0,0.054 -0.022,0.102 -0.057,0.137 -0.035,0.035 -0.084,0.057 -0.137,0.057l-0.214 0c-0.052,0 -0.099,-0.021 -0.134,-0.054l-0.003 -0.003c-0.036,-0.035 -0.057,-0.083 -0.057,-0.137 0,-0.054 0.021,-0.102 0.057,-0.137 0.004,-0.005 0.009,-0.01 0.015,-0.014z"/>
   <path class="fil0" d="M0.946 3.652c-0.026,0.01 -0.056,-0.004 -0.066,-0.03 -0.009,-0.027 0.004,-0.056 0.03,-0.066 0.149,-0.056 0.242,-0.155 0.298,-0.276 0.057,-0.124 0.076,-0.272 0.076,-0.42 0,-0.017 0.004,-0.034 0.01,-0.058 0.009,-0.041 0.024,-0.104 0.024,-0.21 0,-0.075 -0.008,-0.126 -0.025,-0.167 -0.016,-0.041 -0.041,-0.076 -0.074,-0.118 -0.015,-0.021 -0.036,-0.033 -0.057,-0.039 -0.014,-0.003 -0.027,-0.004 -0.039,-0.001 -0.008,0.002 -0.014,0.005 -0.018,0.01l-0.001 0.002c-0.002,0.002 -0.003,0.006 -0.003,0.01l0 0.072c0,0.148 -0.056,0.284 -0.13,0.396 -0.112,0.168 -0.271,0.282 -0.339,0.296 -0.003,0.001 -0.007,0.001 -0.01,0.001l-0.143 0c-0.028,0 -0.051,-0.023 -0.051,-0.051 0,-0.028 0.023,-0.051 0.051,-0.051l0.137 0c0.054,-0.016 0.176,-0.111 0.27,-0.252 0.064,-0.096 0.113,-0.213 0.113,-0.339l0 -0.072c0,-0.027 0.008,-0.051 0.022,-0.071l0.004 -0.004c0.018,-0.023 0.044,-0.039 0.075,-0.046 0.027,-0.007 0.058,-0.006 0.088,0.001 0.041,0.011 0.081,0.035 0.112,0.075 0.038,0.049 0.068,0.09 0.089,0.144 0.021,0.053 0.032,0.115 0.032,0.204 0,0.116 -0.017,0.187 -0.027,0.233 -0.004,0.016 -0.007,0.029 -0.007,0.035 0,0.16 -0.022,0.323 -0.086,0.463 -0.067,0.144 -0.178,0.262 -0.355,0.329z"/>
  </g>
 </g>
</svg>
