<?xml version="1.0" encoding="UTF-8"?>
<!DOCTYPE svg PUBLIC "-//W3C//DTD SVG 1.1//EN" "http://www.w3.org/Graphics/SVG/1.1/DTD/svg11.dtd">
<!-- Creator: CorelDRAW 2018 (64-Bit) -->
<svg xmlns="http://www.w3.org/2000/svg" xml:space="preserve" width="13px" height="16px" version="1.1" style="shape-rendering:geometricPrecision; text-rendering:geometricPrecision; image-rendering:optimizeQuality; fill-rule:evenodd; clip-rule:evenodd"
viewBox="0 0 0.243 0.301"
 xmlns:xlink="http://www.w3.org/1999/xlink">
 <defs>
  <style type="text/css">
   <![CDATA[
    .fil0 {fill:gray;fill-rule:nonzero}
   ]]>
  </style>
 </defs>
 <g id="Layer_x0020_1">
  <metadata id="CorelCorpID_0Corel-Layer"/>
  <path class="fil0" d="M0 0.301l0 -0.301 0.132 0c0.012,0 0.023,0.001 0.034,0.003 0.011,0.001 0.02,0.005 0.028,0.01 0.009,0.005 0.015,0.012 0.02,0.02 0.005,0.009 0.007,0.021 0.007,0.035 0,0.01 -0.001,0.02 -0.005,0.028 -0.004,0.009 -0.009,0.017 -0.017,0.023 0.007,0.004 0.014,0.01 0.02,0.016 0.005,0.007 0.01,0.014 0.013,0.021 0.004,0.008 0.007,0.015 0.008,0.023 0.002,0.009 0.003,0.016 0.003,0.024 0,0.01 -0.002,0.02 -0.006,0.032 -0.003,0.012 -0.009,0.022 -0.016,0.032 -0.006,0.01 -0.015,0.018 -0.025,0.024 -0.01,0.007 -0.021,0.01 -0.033,0.01l-0.163 0zm0.163 -0.026c0.009,0 0.016,-0.003 0.023,-0.008 0.006,-0.005 0.012,-0.011 0.017,-0.019 0.004,-0.007 0.008,-0.015 0.01,-0.023 0.002,-0.009 0.003,-0.016 0.003,-0.022 0,-0.007 -0.001,-0.013 -0.003,-0.021 -0.001,-0.008 -0.004,-0.015 -0.008,-0.022 -0.005,-0.007 -0.01,-0.012 -0.017,-0.017 -0.007,-0.004 -0.015,-0.007 -0.025,-0.007l-0.136 0 0 0.139 0.136 0zm-0.136 -0.248l0 0.083 0.106 0c0.01,0 0.019,-0.001 0.027,-0.002 0.007,-0.001 0.014,-0.003 0.019,-0.006 0.005,-0.003 0.009,-0.007 0.012,-0.012 0.002,-0.006 0.004,-0.013 0.004,-0.022 0,-0.016 -0.005,-0.027 -0.015,-0.033 -0.01,-0.006 -0.026,-0.008 -0.048,-0.008l-0.105 0z"/>
 </g>
</svg>
