<?xml version="1.0" encoding="UTF-8"?>
<!DOCTYPE svg PUBLIC "-//W3C//DTD SVG 1.1//EN" "http://www.w3.org/Graphics/SVG/1.1/DTD/svg11.dtd">
<!-- Creator: CorelDRAW 2018 (64-Bit) -->
<svg xmlns="http://www.w3.org/2000/svg" xml:space="preserve" width="12px" height="16px" version="1.1" style="shape-rendering:geometricPrecision; text-rendering:geometricPrecision; image-rendering:optimizeQuality; fill-rule:evenodd; clip-rule:evenodd"
viewBox="0 0 0.181 0.242"
 xmlns:xlink="http://www.w3.org/1999/xlink">
 <defs>
  <style type="text/css">
   <![CDATA[
    .fil1 {fill:gray}
    .fil0 {fill:gray;fill-rule:nonzero}
   ]]>
  </style>
 </defs>
 <g id="Layer_x0020_1">
  <metadata id="CorelCorpID_0Corel-Layer"/>
  <g id="_3160333328720">
   <path class="fil0" d="M0.089 0.206c-0.013,0 -0.024,-0.002 -0.035,-0.007 -0.011,-0.005 -0.02,-0.011 -0.028,-0.019 -0.008,-0.008 -0.015,-0.017 -0.019,-0.027 -0.005,-0.011 -0.007,-0.022 -0.007,-0.034l0 -0.119 0.02 0 0 0.119c0,0.009 0.002,0.018 0.005,0.026 0.003,0.008 0.008,0.015 0.014,0.022 0.007,0.006 0.014,0.01 0.022,0.014 0.009,0.003 0.018,0.005 0.028,0.005 0.01,0 0.019,-0.002 0.028,-0.005 0.009,-0.004 0.016,-0.008 0.023,-0.014 0.006,-0.007 0.012,-0.014 0.015,-0.022 0.004,-0.008 0.006,-0.017 0.006,-0.026l0 -0.119 0.02 0 0 0.119c0,0.012 -0.003,0.023 -0.008,0.034 -0.004,0.01 -0.011,0.019 -0.019,0.027 -0.009,0.008 -0.019,0.014 -0.03,0.019 -0.011,0.005 -0.023,0.007 -0.035,0.007z"/>
   <rect class="fil1" x="0.015" y="0.227" width="0.15" height="0.015"/>
  </g>
 </g>
</svg>
