<?xml version="1.0" encoding="UTF-8"?>
<!DOCTYPE svg PUBLIC "-//W3C//DTD SVG 1.1//EN" "http://www.w3.org/Graphics/SVG/1.1/DTD/svg11.dtd">
<!-- Creator: CorelDRAW 2018 (64-Bit) -->
<svg xmlns="http://www.w3.org/2000/svg" xml:space="preserve" width="18px" height="15px" version="1.1" style="shape-rendering:geometricPrecision; text-rendering:geometricPrecision; image-rendering:optimizeQuality; fill-rule:evenodd; clip-rule:evenodd"
viewBox="0 0 0.343 0.297"
 xmlns:xlink="http://www.w3.org/1999/xlink">
 <defs>
  <style type="text/css">
   <![CDATA[
    .fil0 {fill:gray;fill-rule:nonzero}
   ]]>
  </style>
 </defs>
 <g id="Layer_x0020_1">
  <metadata id="CorelCorpID_0Corel-Layer"/>
  <g id="_3160333298512">
   <polygon class="fil0" points="0.086,0.024 0.343,0.024 0.343,0.044 0.086,0.044 "/>
   <polygon class="fil0" points="0.086,0.254 0.343,0.254 0.343,0.273 0.086,0.273 "/>
   <polygon class="fil0" points="0.086,0.139 0.343,0.139 0.343,0.158 0.086,0.158 "/>
   <path class="fil0" d="M0.036 0.073l-0.009 0 0 -0.055c-0.002,0.002 -0.005,0.004 -0.008,0.006 -0.003,0.002 -0.006,0.003 -0.009,0.004l0 -0.008c0.005,-0.002 0.009,-0.005 0.013,-0.008 0.003,-0.004 0.006,-0.007 0.007,-0.01l0.006 0 0 0.071zm0.013 0.102l0 0.009 -0.047 0c0,-0.002 0,-0.004 0.001,-0.006 0.001,-0.004 0.003,-0.007 0.006,-0.01 0.003,-0.003 0.006,-0.006 0.011,-0.01 0.008,-0.007 0.013,-0.012 0.016,-0.015 0.003,-0.004 0.004,-0.008 0.004,-0.011 0,-0.003 -0.001,-0.006 -0.004,-0.009 -0.002,-0.002 -0.005,-0.003 -0.009,-0.003 -0.005,0 -0.008,0.001 -0.01,0.004 -0.003,0.002 -0.004,0.005 -0.004,0.01l-0.009 -0.001c0,-0.007 0.003,-0.012 0.007,-0.015 0.004,-0.004 0.009,-0.005 0.016,-0.005 0.007,0 0.012,0.001 0.016,0.005 0.004,0.004 0.006,0.009 0.006,0.014 0,0.003 -0.001,0.006 -0.002,0.009 -0.001,0.002 -0.003,0.005 -0.006,0.008 -0.002,0.003 -0.007,0.007 -0.013,0.013 -0.005,0.004 -0.009,0.007 -0.01,0.009 -0.002,0.001 -0.003,0.003 -0.004,0.004l0.035 0zm-0.046 0.1l0.009 -0.001c0.001,0.005 0.003,0.009 0.005,0.011 0.003,0.002 0.005,0.003 0.009,0.003 0.004,0 0.008,-0.001 0.01,-0.004 0.003,-0.003 0.005,-0.006 0.005,-0.011 0,-0.004 -0.002,-0.007 -0.004,-0.01 -0.003,-0.002 -0.006,-0.003 -0.01,-0.003 -0.002,0 -0.004,0 -0.006,0.001l0.001 -0.008c0,0 0.001,0 0.001,0 0.004,0 0.007,-0.001 0.01,-0.003 0.003,-0.002 0.004,-0.005 0.004,-0.009 0,-0.003 -0.001,-0.006 -0.003,-0.008 -0.002,-0.002 -0.005,-0.003 -0.008,-0.003 -0.004,0 -0.006,0.001 -0.009,0.003 -0.002,0.003 -0.003,0.006 -0.004,0.01l-0.009 -0.002c0.001,-0.005 0.004,-0.01 0.008,-0.013 0.003,-0.003 0.008,-0.005 0.014,-0.005 0.003,0 0.007,0.001 0.01,0.003 0.004,0.001 0.006,0.003 0.008,0.006 0.001,0.003 0.002,0.006 0.002,0.009 0,0.003 -0.001,0.006 -0.002,0.009 -0.002,0.002 -0.004,0.004 -0.007,0.006 0.004,0.001 0.007,0.003 0.009,0.006 0.003,0.003 0.004,0.007 0.004,0.011 0,0.006 -0.002,0.012 -0.007,0.016 -0.005,0.004 -0.01,0.006 -0.017,0.006 -0.006,0 -0.011,-0.002 -0.016,-0.005 -0.004,-0.004 -0.006,-0.009 -0.007,-0.015z"/>
   <path class="fil0" d="M0.036 0.075l-0.011 0 0 -0.053 0 0c-0.002,0.002 -0.003,0.003 -0.005,0.004 -0.002,0.001 -0.003,0.002 -0.005,0.002 -0.001,0.001 -0.003,0.002 -0.004,0.002l-0.003 0.001 0 -0.012 0.001 -0.001c0.002,-0.001 0.005,-0.002 0.007,-0.004 0.002,-0.001 0.004,-0.002 0.005,-0.004 0.002,-0.002 0.003,-0.003 0.005,-0.005 0.001,-0.001 0.002,-0.002 0.003,-0.004l0 -0.001 0.009 0 0 0.075 -0.002 0zm-0.007 -0.004l0.005 0 0 -0.067 -0.002 0c-0.001,0.001 -0.002,0.003 -0.003,0.004 -0.001,0.002 -0.003,0.003 -0.005,0.005 -0.002,0.002 -0.004,0.003 -0.006,0.005 -0.002,0.001 -0.004,0.002 -0.006,0.003l0 0.004 0.001 0c0.002,-0.001 0.003,-0.002 0.005,-0.003 0.002,-0.001 0.003,-0.002 0.004,-0.003 0.002,-0.001 0.003,-0.002 0.004,-0.003l0.003 -0.003 0 0.058zm0.022 0.104l0 0.011 -0.051 0 0 -0.002c0,-0.001 0,-0.003 0,-0.004 0,-0.001 0.001,-0.002 0.001,-0.003 0.001,-0.002 0.002,-0.004 0.003,-0.005 0.001,-0.002 0.002,-0.004 0.003,-0.005 0.002,-0.002 0.003,-0.003 0.005,-0.005 0.002,-0.002 0.005,-0.004 0.007,-0.006 0.004,-0.003 0.007,-0.006 0.009,-0.008 0.003,-0.003 0.005,-0.005 0.006,-0.007 0.001,-0.001 0.002,-0.003 0.003,-0.005 0.001,-0.001 0.001,-0.003 0.001,-0.004 0,-0.001 0,-0.003 -0.001,-0.004 0,-0.001 -0.001,-0.002 -0.002,-0.003 -0.001,-0.001 -0.002,-0.002 -0.004,-0.002 -0.001,-0.001 -0.003,-0.001 -0.004,-0.001 -0.002,0 -0.004,0 -0.005,0.001 -0.002,0 -0.003,0.001 -0.004,0.002 -0.001,0.001 -0.002,0.002 -0.002,0.004 -0.001,0.001 -0.001,0.003 -0.001,0.005l0 0.002 -0.013 -0.001 0 -0.002c0,-0.004 0.001,-0.007 0.002,-0.01 0.001,-0.002 0.003,-0.005 0.005,-0.007 0.003,-0.002 0.005,-0.003 0.008,-0.004 0.003,-0.001 0.006,-0.002 0.01,-0.002 0.003,0 0.007,0.001 0.01,0.002 0.003,0.001 0.005,0.003 0.007,0.005 0.003,0.002 0.004,0.004 0.005,0.007 0.001,0.002 0.002,0.005 0.002,0.008 0,0.002 0,0.003 -0.001,0.005 0,0.001 0,0.003 -0.001,0.004 -0.001,0.002 -0.001,0.003 -0.002,0.005 -0.001,0.002 -0.003,0.003 -0.004,0.005 -0.001,0.001 -0.003,0.003 -0.006,0.005 -0.002,0.002 -0.005,0.005 -0.008,0.007l-0.006 0.006c-0.002,0.001 -0.003,0.002 -0.004,0.003l-0.001 0.001 0.033 0 0 0.002zm-0.004 0.007l0 -0.005 -0.037 0 0.002 -0.003c0.001,-0.001 0.002,-0.001 0.002,-0.002l0.002 -0.003c0.001,-0.001 0.002,-0.002 0.004,-0.003l0.007 -0.006c0.003,-0.002 0.005,-0.005 0.008,-0.007 0.002,-0.002 0.004,-0.004 0.005,-0.005 0.001,-0.002 0.002,-0.003 0.003,-0.004 0.001,-0.002 0.002,-0.003 0.002,-0.004 0.001,-0.001 0.001,-0.003 0.001,-0.004 0.001,-0.001 0.001,-0.002 0.001,-0.004 0,-0.002 -0.001,-0.005 -0.002,-0.007 0,-0.002 -0.002,-0.004 -0.004,-0.005 -0.001,-0.002 -0.003,-0.003 -0.006,-0.004 -0.002,-0.001 -0.005,-0.001 -0.008,-0.001 -0.003,0 -0.006,0 -0.009,0.001 -0.002,0.001 -0.004,0.002 -0.006,0.003 -0.002,0.002 -0.003,0.004 -0.004,0.006 -0.001,0.002 -0.002,0.004 -0.002,0.006l0.005 0.001c0,-0.002 0,-0.003 0.001,-0.005 0,-0.002 0.002,-0.003 0.003,-0.005 0.002,-0.001 0.003,-0.002 0.005,-0.003 0.002,-0.001 0.004,-0.001 0.007,-0.001 0.002,0 0.004,0 0.006,0.001 0.002,0 0.003,0.001 0.005,0.003 0.001,0.001 0.002,0.003 0.003,0.004 0.001,0.002 0.001,0.004 0.001,0.006 0,0.002 0,0.004 -0.001,0.006 -0.001,0.002 -0.002,0.004 -0.003,0.006 -0.002,0.002 -0.004,0.004 -0.007,0.007 -0.002,0.002 -0.006,0.005 -0.009,0.008 -0.003,0.002 -0.005,0.004 -0.007,0.006 -0.002,0.001 -0.003,0.003 -0.005,0.005 -0.001,0.001 -0.002,0.003 -0.003,0.004 -0.001,0.001 -0.001,0.003 -0.002,0.004 0,0.001 0,0.002 -0.001,0.003l0 0.001 0.043 0zm-0.044 0.091l0.011 -0.001 0 0.002c0.001,0.002 0.001,0.004 0.002,0.006 0.001,0.001 0.002,0.002 0.003,0.003 0.001,0.001 0.002,0.002 0.003,0.002 0.001,0.001 0.002,0.001 0.004,0.001 0.004,0 0.006,-0.001 0.009,-0.004 0.001,-0.001 0.002,-0.002 0.003,-0.004 0,-0.001 0,-0.003 0,-0.005 0,-0.001 0,-0.003 0,-0.004 -0.001,-0.002 -0.002,-0.003 -0.003,-0.004 -0.002,-0.002 -0.005,-0.003 -0.008,-0.003 -0.002,0 -0.004,0 -0.006,0.001l-0.003 0 0.002 -0.012 0.003 0c0.003,0 0.006,-0.001 0.009,-0.003 0.001,0 0.002,-0.001 0.002,-0.002 0.001,-0.002 0.001,-0.003 0.001,-0.005 0,-0.001 0,-0.002 0,-0.003 -0.001,-0.001 -0.001,-0.002 -0.002,-0.003 -0.001,-0.001 -0.002,-0.002 -0.003,-0.002 -0.001,-0.001 -0.003,-0.001 -0.004,-0.001 -0.002,0 -0.003,0 -0.004,0.001 -0.001,0 -0.002,0.001 -0.003,0.002 -0.001,0.001 -0.002,0.002 -0.003,0.003 0,0.002 -0.001,0.003 -0.001,0.005l0 0.002 -0.013 -0.002 0 -0.002c0.001,-0.003 0.002,-0.006 0.003,-0.008 0.001,-0.003 0.003,-0.005 0.005,-0.007 0.002,-0.002 0.005,-0.003 0.007,-0.004 0.003,-0.001 0.006,-0.001 0.009,-0.001 0.002,0 0.004,0 0.006,0.001 0.002,0 0.003,0.001 0.005,0.002 0.002,0.001 0.004,0.002 0.005,0.003 0.001,0.001 0.003,0.003 0.004,0.004 0,0.002 0.001,0.003 0.002,0.005 0,0.002 0,0.004 0,0.005 0,0.002 0,0.004 0,0.005 -0.001,0.002 -0.001,0.003 -0.002,0.005 -0.001,0.001 -0.003,0.003 -0.004,0.004l-0.001 0 0.002 0.001c0.002,0.001 0.004,0.003 0.005,0.004 0.001,0.002 0.002,0.004 0.003,0.006 0.001,0.002 0.001,0.005 0.001,0.007 0,0.004 -0.001,0.007 -0.002,0.01 -0.001,0.002 -0.003,0.005 -0.006,0.007 -0.002,0.003 -0.005,0.005 -0.008,0.006 -0.003,0.001 -0.006,0.001 -0.01,0.001 -0.003,0 -0.007,0 -0.009,-0.001 -0.003,-0.001 -0.006,-0.003 -0.008,-0.005 -0.002,-0.002 -0.004,-0.004 -0.005,-0.007 -0.002,-0.002 -0.002,-0.005 -0.003,-0.008l0 -0.002 0.002 -0.001zm0.007 0.003l-0.004 0.001c0,0.002 0.001,0.004 0.001,0.005 0.002,0.003 0.003,0.005 0.005,0.006 0.002,0.002 0.004,0.003 0.006,0.004 0.002,0.001 0.005,0.001 0.008,0.001 0.003,0 0.006,0 0.009,-0.001 0.002,-0.001 0.005,-0.003 0.007,-0.005 0.002,-0.002 0.003,-0.004 0.004,-0.006 0.001,-0.002 0.002,-0.005 0.002,-0.008 0,-0.002 -0.001,-0.004 -0.001,-0.006 -0.001,-0.001 -0.001,-0.003 -0.002,-0.004 -0.001,-0.001 -0.003,-0.002 -0.004,-0.003 -0.001,-0.001 -0.003,-0.002 -0.005,-0.002l0 -0.004c0.001,-0.001 0.002,-0.002 0.003,-0.003 0.002,0 0.002,-0.001 0.003,-0.002 0.001,-0.001 0.001,-0.003 0.002,-0.004 0,-0.001 0,-0.002 0,-0.004 0,-0.001 0,-0.002 0,-0.004 -0.001,-0.001 -0.001,-0.002 -0.002,-0.004 -0.001,-0.001 -0.002,-0.002 -0.003,-0.003 -0.001,-0.001 -0.002,-0.002 -0.004,-0.003 -0.001,0 -0.003,-0.001 -0.004,-0.001 -0.002,-0.001 -0.004,-0.001 -0.005,-0.001 -0.003,0 -0.005,0.001 -0.007,0.001 -0.003,0.001 -0.004,0.002 -0.006,0.003 -0.002,0.002 -0.003,0.004 -0.004,0.006 -0.001,0.001 -0.002,0.003 -0.002,0.005l0.004 0.001c0.001,-0.002 0.001,-0.003 0.002,-0.004 0,-0.002 0.002,-0.004 0.003,-0.005 0.001,-0.001 0.003,-0.002 0.004,-0.003 0.002,-0.001 0.004,-0.001 0.006,-0.001 0.002,0 0.004,0 0.005,0.001 0.002,0.001 0.003,0.002 0.005,0.003 0.001,0.001 0.002,0.002 0.003,0.004 0,0.002 0,0.003 0,0.005 0,0.003 0,0.005 -0.001,0.006 -0.001,0.002 -0.002,0.004 -0.004,0.005 -0.003,0.002 -0.007,0.003 -0.011,0.003l0 0.003c0.001,0 0.003,-0.001 0.004,-0.001 0.004,0 0.008,0.002 0.011,0.005 0.002,0.001 0.003,0.003 0.004,0.005 0,0.002 0.001,0.004 0.001,0.006 0,0.003 -0.001,0.005 -0.002,0.007 0,0.002 -0.002,0.004 -0.003,0.005 -0.003,0.004 -0.007,0.005 -0.012,0.005 -0.002,0 -0.004,0 -0.006,-0.001 -0.001,0 -0.003,-0.001 -0.004,-0.003 -0.002,-0.001 -0.003,-0.003 -0.004,-0.005 0,-0.001 -0.001,-0.003 -0.002,-0.005z"/>
  </g>
 </g>
</svg>
