<?xml version="1.0" encoding="UTF-8"?>
<!DOCTYPE svg PUBLIC "-//W3C//DTD SVG 1.1//EN" "http://www.w3.org/Graphics/SVG/1.1/DTD/svg11.dtd">
<!-- Creator: CorelDRAW 2018 (64-Bit) -->
<svg xmlns="http://www.w3.org/2000/svg" xml:space="preserve" width="17px" height="17px" version="1.1" style="shape-rendering:geometricPrecision; text-rendering:geometricPrecision; image-rendering:optimizeQuality; fill-rule:evenodd; clip-rule:evenodd"
viewBox="0 0 0.29 0.29"
 xmlns:xlink="http://www.w3.org/1999/xlink">
 <defs>
  <style type="text/css">
   <![CDATA[
    .fil0 {fill:gray;fill-rule:nonzero}
   ]]>
  </style>
 </defs>
 <g id="Layer_x0020_1">
  <metadata id="CorelCorpID_0Corel-Layer"/>
  <g id="_3160333335408">
   <path class="fil0" d="M0.142 0.19c-0.003,-0.004 -0.003,-0.009 0,-0.012 0.003,-0.004 0.009,-0.004 0.012,0 0.007,0.006 0.01,0.015 0.01,0.024 0,0.009 -0.003,0.018 -0.01,0.025l-0.053 0.053c-0.007,0.006 -0.016,0.01 -0.024,0.01 -0.009,0 -0.018,-0.004 -0.025,-0.011l-0.042 -0.042c-0.007,-0.007 -0.01,-0.015 -0.01,-0.024 0,-0.009 0.003,-0.018 0.01,-0.025l0.053 -0.053c0.007,-0.006 0.016,-0.01 0.024,-0.01 0.009,0 0.018,0.004 0.025,0.011 0.003,0.003 0.003,0.008 0,0.012 -0.003,0.003 -0.009,0.003 -0.012,0 -0.004,-0.004 -0.008,-0.005 -0.013,-0.005 -0.004,0 -0.008,0.001 -0.012,0.004l-0.053 0.053c-0.003,0.004 -0.005,0.008 -0.005,0.013 0,0.004 0.002,0.009 0.005,0.012l0.042 0.042c0.004,0.004 0.008,0.006 0.013,0.006 0.004,0 0.008,-0.002 0.012,-0.005l0.053 -0.053c0.003,-0.004 0.005,-0.008 0.005,-0.013 0,-0.004 -0.002,-0.009 -0.005,-0.012z"/>
   <path class="fil0" d="M0.178 0.154c-0.004,-0.003 -0.004,-0.009 0,-0.012 0.003,-0.003 0.008,-0.003 0.012,0 0.003,0.003 0.008,0.005 0.012,0.005 0.005,0 0.009,-0.002 0.013,-0.005l0.053 -0.053c0.003,-0.004 0.005,-0.008 0.005,-0.012 0,-0.005 -0.002,-0.009 -0.006,-0.013l-0.042 -0.042c-0.003,-0.003 -0.008,-0.005 -0.012,-0.005 -0.005,0 -0.009,0.002 -0.013,0.005l-0.053 0.053c-0.003,0.004 -0.004,0.008 -0.004,0.012 0,0.005 0.001,0.009 0.005,0.013 0.003,0.003 0.003,0.009 0,0.012 -0.004,0.003 -0.009,0.003 -0.012,0 -0.007,-0.007 -0.011,-0.016 -0.011,-0.025 0,-0.008 0.004,-0.017 0.01,-0.024l0.053 -0.053c0.007,-0.007 0.016,-0.01 0.025,-0.01 0.009,0 0.018,0.003 0.024,0.01l0.042 0.042c0.007,0.007 0.011,0.016 0.011,0.025 0,0.008 -0.004,0.017 -0.01,0.024l-0.053 0.053c-0.007,0.007 -0.016,0.01 -0.025,0.01 -0.009,0 -0.018,-0.003 -0.024,-0.01z"/>
   <path class="fil0" d="M0.185 0.093c0.003,-0.004 0.009,-0.004 0.012,0 0.003,0.003 0.003,0.008 0,0.012l-0.092 0.092c-0.004,0.003 -0.009,0.003 -0.012,0 -0.004,-0.003 -0.004,-0.009 0,-0.012l0.092 -0.092z"/>
  </g>
 </g>
</svg>
