<?xml version="1.0" encoding="UTF-8"?>
<!DOCTYPE svg PUBLIC "-//W3C//DTD SVG 1.1//EN" "http://www.w3.org/Graphics/SVG/1.1/DTD/svg11.dtd">
<!-- Creator: CorelDRAW 2018 (64-Bit) -->
<svg xmlns="http://www.w3.org/2000/svg" xml:space="preserve" width="25px" height="28px" version="1.1" style="shape-rendering:geometricPrecision; text-rendering:geometricPrecision; image-rendering:optimizeQuality; fill-rule:evenodd; clip-rule:evenodd"
viewBox="0 0 0.339 0.38"
 xmlns:xlink="http://www.w3.org/1999/xlink">
 <defs>
  <style type="text/css">
   <![CDATA[
    .fil0 {fill:#00F4FF;fill-rule:nonzero}
   ]]>
  </style>
 </defs>
 <g id="Layer_x0020_1">
  <metadata id="CorelCorpID_0Corel-Layer"/>
  <g id="_2312951951296">
   <path class="fil0" d="M0.152 0.004c0.005,-0.003 0.011,-0.004 0.018,-0.004 0.006,0 0.013,0.001 0.017,0.004l0.135 0.078c0.004,0.002 0.009,0.007 0.012,0.013l0 0c0.003,0.006 0.005,0.012 0.005,0.017l0 0.155c0,0.006 -0.002,0.012 -0.005,0.018 -0.003,0.005 -0.008,0.01 -0.012,0.013l-0.135 0.078c-0.004,0.002 -0.011,0.004 -0.017,0.004 -0.007,0 -0.013,-0.002 -0.018,-0.004l-0.134 -0.078c-0.005,-0.003 -0.009,-0.008 -0.013,-0.013l0 -0.001c-0.003,-0.005 -0.005,-0.011 -0.005,-0.017l0 -0.155c0,-0.005 0.002,-0.011 0.005,-0.017 0.004,-0.006 0.008,-0.011 0.013,-0.013l0.134 -0.078zm0.018 0.009c-0.005,0 -0.009,0.001 -0.011,0.003l-0.135 0.077c-0.002,0.002 -0.005,0.005 -0.007,0.009 -0.002,0.003 -0.004,0.007 -0.004,0.01l0 0.155c0,0.003 0.002,0.007 0.004,0.011l0 0c0.002,0.004 0.005,0.007 0.007,0.008l0.135 0.078c0.002,0.001 0.006,0.002 0.011,0.002 0.004,0 0.008,-0.001 0.011,-0.002l0.134 -0.078c0.003,-0.001 0.005,-0.004 0.007,-0.008 0.002,-0.004 0.004,-0.008 0.004,-0.011l0 -0.155c0,-0.003 -0.001,-0.006 -0.003,-0.01l-0.001 0c-0.002,-0.004 -0.004,-0.007 -0.007,-0.009l-0.134 -0.077c-0.003,-0.002 -0.007,-0.003 -0.011,-0.003z"/>
   <polygon class="fil0" points="0.325,0.291 0.014,0.291 0.014,0.277 0.325,0.277 "/>
   <polygon class="fil0" points="0.178,0.004 0.335,0.275 0.324,0.282 0.167,0.01 "/>
   <polygon class="fil0" points="0.004,0.275 0.161,0.003 0.172,0.01 0.016,0.282 "/>
   <polygon class="fil0" points="0.163,0.371 0.163,0.008 0.176,0.008 0.176,0.371 "/>
   <polygon class="fil0" points="0.009,0.275 0.324,0.093 0.33,0.105 0.016,0.286 "/>
   <polygon class="fil0" points="0.015,0.093 0.332,0.276 0.325,0.287 0.008,0.104 "/>
  </g>
 </g>
</svg>
