<?xml version="1.0" encoding="UTF-8"?>
<!DOCTYPE svg PUBLIC "-//W3C//DTD SVG 1.1//EN" "http://www.w3.org/Graphics/SVG/1.1/DTD/svg11.dtd">
<!-- Creator: CorelDRAW 2018 (64-Bit) -->
<svg xmlns="http://www.w3.org/2000/svg" xml:space="preserve" width="31px" height="28px" version="1.1" style="shape-rendering:geometricPrecision; text-rendering:geometricPrecision; image-rendering:optimizeQuality; fill-rule:evenodd; clip-rule:evenodd"
viewBox="0 0 0.521 0.465"
 xmlns:xlink="http://www.w3.org/1999/xlink">
 <defs>
  <style type="text/css">
   <![CDATA[
    .fil1 {fill:#00F4FF}
    .fil0 {fill:#00F4FF;fill-rule:nonzero}
   ]]>
  </style>
 </defs>
 <g id="Layer_x0020_1">
  <metadata id="CorelCorpID_0Corel-Layer"/>
  <g id="_2312937417616">
   <path class="fil0" d="M0.365 0.185c0.043,0 0.081,0.013 0.109,0.034 0.029,0.022 0.047,0.053 0.047,0.086 0,0.02 -0.006,0.038 -0.016,0.054 -0.01,0.015 -0.024,0.029 -0.04,0.039l0.004 0.058c0.001,0.004 -0.003,0.008 -0.007,0.009 -0.003,0 -0.005,-0.001 -0.007,-0.003l-0.042 -0.042c-0.007,0.002 -0.014,0.003 -0.021,0.004 -0.009,0.002 -0.018,0.002 -0.027,0.002 -0.043,0 -0.081,-0.013 -0.109,-0.034 -0.029,-0.022 -0.047,-0.053 -0.047,-0.087 0,-0.033 0.018,-0.064 0.047,-0.086 0.028,-0.021 0.066,-0.034 0.109,-0.034zm0.099 0.047c-0.025,-0.019 -0.06,-0.031 -0.099,-0.031 -0.039,0 -0.074,0.012 -0.099,0.031 -0.025,0.019 -0.04,0.045 -0.04,0.073 0,0.029 0.015,0.055 0.04,0.073 0.025,0.02 0.06,0.032 0.099,0.032 0.008,0 0.017,-0.001 0.025,-0.002 0.008,-0.001 0.015,-0.003 0.023,-0.005 0.003,-0.001 0.006,0 0.009,0.002l0.029 0.029 -0.003 -0.039c-0.001,-0.003 0.001,-0.006 0.004,-0.008 0.016,-0.01 0.03,-0.023 0.039,-0.037 0.008,-0.013 0.013,-0.029 0.013,-0.045 0,-0.028 -0.015,-0.054 -0.04,-0.073z"/>
   <path class="fil1" d="M0.298 0.289c0.009,0 0.017,0.007 0.017,0.017 0,0.009 -0.008,0.017 -0.017,0.017 -0.01,0 -0.018,-0.008 -0.018,-0.017 0,-0.01 0.008,-0.017 0.018,-0.017z"/>
   <path class="fil1" d="M0.365 0.289c0.009,0 0.017,0.007 0.017,0.017 0,0.009 -0.008,0.017 -0.017,0.017 -0.01,0 -0.017,-0.008 -0.017,-0.017 0,-0.01 0.007,-0.017 0.017,-0.017z"/>
   <path class="fil1" d="M0.432 0.289c0.01,0 0.017,0.007 0.017,0.017 0,0.009 -0.007,0.017 -0.017,0.017 -0.009,0 -0.017,-0.008 -0.017,-0.017 0,-0.01 0.008,-0.017 0.017,-0.017z"/>
   <path class="fil0" d="M0.087 0.036c0.004,0 0.008,0.004 0.008,0.009 0,0.004 -0.004,0.008 -0.008,0.008l-0.068 0c-0.001,0 -0.001,0 -0.002,0.001 0,0 0,0.001 0,0.001l0 0.328c0,0.001 0,0.001 0,0.002 0.001,0 0.001,0.001 0.002,0.001l0.183 0c0.005,0 0.009,0.003 0.009,0.008 0,0.005 -0.004,0.008 -0.009,0.008l-0.183 0c-0.005,0 -0.01,-0.002 -0.013,-0.005 -0.004,-0.004 -0.006,-0.009 -0.006,-0.014l0 -0.328c0,-0.005 0.002,-0.01 0.006,-0.013 0.003,-0.004 0.008,-0.006 0.013,-0.006l0.068 0zm0.313 0.098c0,0.004 -0.004,0.008 -0.008,0.008 -0.005,0 -0.009,-0.004 -0.009,-0.008l0 -0.079c0,0 0,-0.001 0,-0.001 -0.001,-0.001 -0.002,-0.001 -0.002,-0.001l-0.046 0c-0.004,0 -0.008,-0.004 -0.008,-0.008 0,-0.005 0.004,-0.009 0.008,-0.009l0.046 0c0.005,0 0.01,0.002 0.013,0.006 0.004,0.003 0.006,0.008 0.006,0.013l0 0.079z"/>
   <path class="fil0" d="M0.286 0.036c0.005,0 0.009,0.004 0.009,0.009 0,0.004 -0.004,0.008 -0.009,0.008l-0.034 0c-0.004,0 -0.008,-0.004 -0.008,-0.008 0,-0.005 0.004,-0.009 0.008,-0.009l0.034 0z"/>
   <path class="fil0" d="M0.186 0.036c0.005,0 0.009,0.004 0.009,0.009 0,0.004 -0.004,0.008 -0.009,0.008l-0.033 0c-0.004,0 -0.008,-0.004 -0.008,-0.008 0,-0.005 0.004,-0.009 0.008,-0.009l0.033 0z"/>
   <path class="fil0" d="M0.3 0.017c-0.002,0 -0.003,0 -0.004,0.001 -0.001,0.001 -0.001,0.002 -0.001,0.004l0 0.045c0,0.002 0,0.003 0.001,0.004 0.001,0.001 0.002,0.001 0.004,0.001 0.001,0 0.003,0 0.004,-0.001 0.001,-0.001 0.001,-0.002 0.001,-0.004l0 -0.045c0,-0.002 0,-0.003 -0.001,-0.004 -0.001,-0.001 -0.003,-0.001 -0.004,-0.001zm0 -0.017c0.006,0 0.011,0.002 0.015,0.006l0 0c0.004,0.004 0.007,0.01 0.007,0.016l0 0.045c0,0.006 -0.003,0.012 -0.007,0.016l0 0c-0.004,0.004 -0.009,0.006 -0.015,0.006 -0.006,0 -0.012,-0.002 -0.016,-0.006l0 0c-0.004,-0.004 -0.006,-0.01 -0.006,-0.016l0 -0.045c0,-0.006 0.002,-0.012 0.006,-0.016l0 0c0.004,-0.004 0.01,-0.006 0.016,-0.006z"/>
   <path class="fil0" d="M0.2 0.017c-0.002,0 -0.003,0 -0.004,0.001 -0.001,0.001 -0.001,0.002 -0.001,0.004l0 0.045c0,0.002 0,0.003 0.001,0.004 0.001,0.001 0.002,0.001 0.004,0.001 0.001,0 0.003,0 0.004,-0.001 0.001,-0.001 0.001,-0.002 0.001,-0.004l0 -0.045c0,-0.002 0,-0.003 -0.001,-0.004 -0.001,-0.001 -0.003,-0.001 -0.004,-0.001zm0 -0.017c0.006,0 0.011,0.002 0.015,0.006l0 0c0.004,0.004 0.007,0.01 0.007,0.016l0 0.045c0,0.006 -0.003,0.012 -0.007,0.016l0 0c-0.004,0.004 -0.009,0.006 -0.015,0.006 -0.006,0 -0.012,-0.002 -0.015,-0.006l-0.001 0c-0.004,-0.004 -0.006,-0.01 -0.006,-0.016l0 -0.045c0,-0.006 0.002,-0.012 0.006,-0.016l0 0c0.004,-0.004 0.01,-0.006 0.016,-0.006z"/>
   <path class="fil0" d="M0.1 0.017c-0.001,0 -0.003,0 -0.004,0.001 -0.001,0.001 -0.001,0.002 -0.001,0.004l0 0.045c0,0.002 0,0.003 0.001,0.004 0.001,0.001 0.003,0.001 0.004,0.001 0.002,0 0.003,0 0.004,-0.001 0.001,-0.001 0.001,-0.002 0.001,-0.004l0 -0.045c0,-0.002 0,-0.003 -0.001,-0.004 -0.001,-0.001 -0.002,-0.001 -0.004,-0.001zm0 -0.017c0.006,0 0.012,0.002 0.016,0.006l0 0c0.004,0.004 0.006,0.01 0.006,0.016l0 0.045c0,0.006 -0.002,0.012 -0.006,0.016l0 0c-0.004,0.004 -0.01,0.006 -0.016,0.006 -0.006,0 -0.011,-0.002 -0.015,-0.006l0 0c-0.004,-0.004 -0.007,-0.01 -0.007,-0.016l0 -0.045c0,-0.006 0.003,-0.012 0.007,-0.016l0 0c0.004,-0.004 0.009,-0.006 0.015,-0.006z"/>
   <path class="fil0" d="M0.077 0.154l0.033 0c0.003,0 0.007,0.001 0.009,0.004 0.002,0.002 0.004,0.005 0.004,0.009l0 0.033c0,0.004 -0.002,0.007 -0.004,0.009 -0.002,0.003 -0.006,0.004 -0.009,0.004l-0.033 0c-0.004,0 -0.007,-0.001 -0.01,-0.004 -0.002,-0.002 -0.003,-0.005 -0.003,-0.009l0 -0.033c0,-0.004 0.001,-0.007 0.003,-0.009 0.003,-0.003 0.006,-0.004 0.01,-0.004zm0.029 0.016l-0.026 0 0 0.026 0.026 0 0 -0.026z"/>
   <path class="fil0" d="M0.183 0.154l0.034 0c0.003,0 0.006,0.001 0.009,0.004 0.002,0.002 0.004,0.005 0.004,0.009l0 0.033c0,0.004 -0.002,0.007 -0.004,0.009 -0.003,0.003 -0.006,0.004 -0.009,0.004l-0.034 0c-0.003,0 -0.006,-0.001 -0.009,-0.004 -0.002,-0.002 -0.004,-0.005 -0.004,-0.009l0 -0.033c0,-0.004 0.002,-0.007 0.004,-0.009 0.003,-0.003 0.006,-0.004 0.009,-0.004zm0.03 0.016l-0.026 0 0 0.026 0.026 0 0 -0.026z"/>
   <path class="fil0" d="M0.077 0.263l0.033 0c0.003,0 0.007,0.001 0.009,0.004 0.002,0.002 0.004,0.005 0.004,0.009l0 0.033c0,0.004 -0.002,0.007 -0.004,0.009 -0.002,0.002 -0.006,0.004 -0.009,0.004l-0.033 0c-0.004,0 -0.007,-0.002 -0.01,-0.004 -0.002,-0.002 -0.003,-0.005 -0.003,-0.009l0 -0.033c0,-0.004 0.001,-0.007 0.003,-0.009 0.003,-0.003 0.006,-0.004 0.01,-0.004zm0.029 0.016l-0.026 0 0 0.026 0.026 0 0 -0.026z"/>
  </g>
 </g>
</svg>
