<?xml version="1.0" encoding="UTF-8"?>
<!DOCTYPE svg PUBLIC "-//W3C//DTD SVG 1.1//EN" "http://www.w3.org/Graphics/SVG/1.1/DTD/svg11.dtd">
<!-- Creator: CorelDRAW 2018 (64-Bit) -->
<svg xmlns="http://www.w3.org/2000/svg" xml:space="preserve" width="28px" height="25px" version="1.1" style="shape-rendering:geometricPrecision; text-rendering:geometricPrecision; image-rendering:optimizeQuality; fill-rule:evenodd; clip-rule:evenodd"
viewBox="0 0 0.421 0.376"
 xmlns:xlink="http://www.w3.org/1999/xlink">
 <defs>
  <style type="text/css">
   <![CDATA[
    .fil0 {fill:#00F4FF;fill-rule:nonzero}
   ]]>
  </style>
 </defs>
 <g id="Layer_x0020_1">
  <metadata id="CorelCorpID_0Corel-Layer"/>
  <g id="_2313034173424">
   <path class="fil0" d="M0 0.149l0 -0.042c0,-0.012 0.005,-0.022 0.013,-0.03 0.008,-0.008 0.019,-0.012 0.031,-0.012l0.333 0c0.012,0 0.023,0.004 0.031,0.012 0.008,0.008 0.013,0.018 0.013,0.03l0 0.043c0,0.003 -0.003,0.006 -0.006,0.007 -0.027,0.01 -0.054,0.02 -0.08,0.03 -0.024,0.009 -0.048,0.018 -0.078,0.029l-0.007 0.003c-0.011,0.005 -0.022,0.009 -0.04,0.009 -0.017,0 -0.028,-0.004 -0.039,-0.009l-0.007 -0.003c-0.029,-0.01 -0.053,-0.02 -0.078,-0.029 -0.025,-0.01 -0.051,-0.02 -0.081,-0.031 -0.003,-0.002 -0.005,-0.004 -0.005,-0.007zm0.015 -0.042l0 0.036c0.029,0.011 0.053,0.021 0.077,0.03 0.025,0.01 0.05,0.019 0.077,0.029l0.007 0.003c0.01,0.004 0.02,0.008 0.034,0.008 0.015,0 0.024,-0.004 0.035,-0.008l0.007 -0.003c0.026,-0.009 0.052,-0.019 0.078,-0.029 0.023,-0.009 0.046,-0.017 0.076,-0.029l0 -0.037c0,-0.007 -0.003,-0.014 -0.008,-0.019 -0.006,-0.005 -0.013,-0.008 -0.021,-0.008l-0.333 0c-0.008,0 -0.016,0.003 -0.021,0.008 -0.005,0.005 -0.008,0.012 -0.008,0.019z"/>
   <path class="fil0" d="M0.398 0.203c0,-0.005 0.004,-0.008 0.008,-0.008 0.004,0 0.008,0.003 0.008,0.008l0 0.13c0,0.012 -0.005,0.023 -0.013,0.03 -0.008,0.008 -0.018,0.013 -0.03,0.013l-0.321 0c-0.012,0 -0.023,-0.005 -0.03,-0.013 -0.008,-0.007 -0.013,-0.018 -0.013,-0.03l0 -0.132c0,-0.004 0.004,-0.007 0.008,-0.007 0.004,0 0.007,0.003 0.007,0.007l0 0.132c0,0.008 0.003,0.015 0.008,0.02 0.005,0.005 0.012,0.008 0.02,0.008l0.321 0c0.008,0 0.015,-0.003 0.019,-0.008 0.005,-0.005 0.008,-0.012 0.008,-0.02l0 -0.13z"/>
   <path class="fil0" d="M0.246 0.211c0,-0.004 0.003,-0.007 0.007,-0.007 0.005,0 0.008,0.003 0.008,0.007l0 0.055c0,0.004 -0.003,0.008 -0.008,0.008l-0.086 0c-0.004,0 -0.007,-0.004 -0.007,-0.008l0 -0.055c0,-0.004 0.003,-0.007 0.007,-0.007 0.005,0 0.008,0.003 0.008,0.007l0 0.048 0.071 0 0 -0.048z"/>
   <path class="fil0" d="M0.132 0.049c0,0.005 -0.003,0.008 -0.007,0.008 -0.004,0 -0.008,-0.003 -0.008,-0.008 0,-0.013 0.006,-0.026 0.015,-0.034l0 -0.001c0.009,-0.009 0.021,-0.014 0.035,-0.014l0.087 0c0.014,0 0.026,0.006 0.035,0.015l0 0c0.009,0.009 0.014,0.021 0.014,0.034 0,0.005 -0.003,0.008 -0.007,0.008 -0.004,0 -0.008,-0.003 -0.008,-0.008 0,-0.009 -0.003,-0.018 -0.01,-0.024 -0.006,-0.006 -0.014,-0.01 -0.024,-0.01l-0.087 0c-0.01,0 -0.018,0.004 -0.024,0.01l-0.001 0c-0.006,0.006 -0.01,0.015 -0.01,0.024z"/>
  </g>
 </g>
</svg>
