<?xml version="1.0" encoding="UTF-8"?>
<!DOCTYPE svg PUBLIC "-//W3C//DTD SVG 1.1//EN" "http://www.w3.org/Graphics/SVG/1.1/DTD/svg11.dtd">
<!-- Creator: CorelDRAW 2018 (64-Bit) -->
<svg xmlns="http://www.w3.org/2000/svg" xml:space="preserve" width="38px" height="24px" version="1.1" style="shape-rendering:geometricPrecision; text-rendering:geometricPrecision; image-rendering:optimizeQuality; fill-rule:evenodd; clip-rule:evenodd"
viewBox="0 0 0.774 0.477"
 xmlns:xlink="http://www.w3.org/1999/xlink">
 <defs>
  <style type="text/css">
   <![CDATA[
    .fil0 {fill:gray;fill-rule:nonzero}
   ]]>
  </style>
 </defs>
 <g id="Layer_x0020_1">
  <metadata id="CorelCorpID_0Corel-Layer"/>
  <g id="_2348975698832">
   <path class="fil0" d="M0.018 0.477c-0.005,0 -0.01,-0.004 -0.01,-0.01 0,-0.005 0.005,-0.01 0.01,-0.01l0.172 0c0.006,0 0.011,0.005 0.011,0.01 0,0.006 -0.005,0.01 -0.011,0.01l-0.172 0z"/>
   <path class="fil0" d="M0.221 0.205c0.005,-0.003 0.011,-0.001 0.014,0.004 0.002,0.005 0.001,0.011 -0.004,0.014l-0.049 0.028c-0.005,0.003 -0.011,0.001 -0.014,-0.004 -0.003,-0.004 -0.001,-0.011 0.003,-0.013l0.05 -0.029z"/>
   <path class="fil0" d="M0.222 0.202c-0.007,-0.01 -0.015,-0.019 -0.023,-0.025 -0.008,-0.006 -0.014,-0.009 -0.017,-0.007l-0.022 0.012c-0.002,0.002 -0.003,0.009 -0.002,0.018 0.001,0.01 0.005,0.022 0.011,0.033l0.053 -0.031zm-0.011 -0.041c0.012,0.009 0.024,0.023 0.034,0.04l0 0c0.003,0.005 0.001,0.011 -0.004,0.014l-0.071 0.041c-0.005,0.003 -0.011,0.001 -0.014,-0.004 -0.01,-0.017 -0.016,-0.035 -0.018,-0.05 -0.002,-0.017 0.002,-0.031 0.012,-0.037l0.022 -0.013c0.01,-0.006 0.025,-0.002 0.039,0.009z"/>
   <path class="fil0" d="M0.165 0.378l-0.003 -0.006c-0.016,-0.027 -0.023,-0.055 -0.022,-0.08 0.002,-0.025 0.012,-0.047 0.031,-0.058l0.05 -0.029c0.019,-0.011 0.043,-0.009 0.066,0.003 0.022,0.011 0.043,0.031 0.058,0.057l0.004 0.007c0.003,0.005 0.001,0.011 -0.003,0.014l-0.167 0.096c-0.005,0.003 -0.011,0.001 -0.014,-0.004zm0.013 -0.019l0.149 -0.086c-0.014,-0.022 -0.031,-0.038 -0.049,-0.047 -0.017,-0.009 -0.034,-0.011 -0.047,-0.004l-0.05 0.029c-0.013,0.008 -0.019,0.023 -0.02,0.042 -0.001,0.02 0.004,0.044 0.017,0.066z"/>
   <path class="fil0" d="M0.039 0.277c-0.005,0 -0.01,0.002 -0.013,0.005l-0.001 0.001c-0.003,0.003 -0.005,0.008 -0.005,0.013 0,0.005 0.002,0.01 0.006,0.013 0.003,0.003 0.008,0.005 0.013,0.005 0.005,0 0.01,-0.002 0.014,-0.005 0.003,-0.003 0.005,-0.008 0.005,-0.013 0,-0.006 -0.002,-0.01 -0.005,-0.014 -0.004,-0.003 -0.009,-0.005 -0.014,-0.005zm-0.028 -0.009c0.008,-0.007 0.017,-0.012 0.028,-0.012 0.011,0 0.021,0.005 0.028,0.012l0 0c0.007,0.007 0.011,0.017 0.011,0.028 0,0.01 -0.004,0.02 -0.011,0.027 -0.007,0.007 -0.017,0.012 -0.028,0.012 -0.011,0 -0.02,-0.005 -0.028,-0.012 -0.007,-0.007 -0.011,-0.017 -0.011,-0.027 0,-0.011 0.004,-0.02 0.011,-0.027l0 -0.001z"/>
   <path class="fil0" d="M0.146 0.211c0.005,-0.003 0.011,-0.001 0.014,0.003 0.003,0.005 0.002,0.011 -0.003,0.014l-0.092 0.056c-0.005,0.003 -0.011,0.001 -0.014,-0.004 -0.003,-0.004 -0.001,-0.011 0.003,-0.014l0.092 -0.055z"/>
   <path class="fil0" d="M0.045 0.327c-0.002,-0.005 0,-0.011 0.006,-0.013 0.005,-0.002 0.011,0.001 0.013,0.006l0.054 0.144c0.002,0.005 -0.001,0.011 -0.006,0.013 -0.005,0.002 -0.011,-0.001 -0.013,-0.006l-0.054 -0.144z"/>
   <path class="fil0" d="M0.248 0.136c0,0.006 -0.005,0.011 -0.011,0.011 -0.005,0 -0.01,-0.005 -0.01,-0.011l0 -0.106c0,-0.008 0.004,-0.016 0.009,-0.021l0.001 -0.001c0.005,-0.005 0.012,-0.008 0.02,-0.008l0.487 0c0.008,0 0.016,0.003 0.021,0.009 0.005,0.005 0.009,0.013 0.009,0.021l0 0.334c0,0.009 -0.004,0.016 -0.009,0.022 -0.005,0.005 -0.013,0.008 -0.021,0.008l-0.487 0c-0.005,0 -0.01,-0.004 -0.01,-0.01 0,-0.005 0.005,-0.01 0.01,-0.01l0.487 0c0.002,0 0.005,-0.001 0.007,-0.003 0.001,-0.001 0.002,-0.004 0.002,-0.007l0 -0.334c0,-0.003 -0.001,-0.005 -0.002,-0.007 -0.002,-0.002 -0.005,-0.003 -0.007,-0.003l-0.487 0c-0.002,0 -0.005,0.001 -0.006,0.003l-0.001 0c-0.001,0.002 -0.002,0.004 -0.002,0.007l0 0.106z"/>
   <path class="fil0" d="M0.38 0.477c-0.005,0 -0.01,-0.004 -0.01,-0.01 0,-0.005 0.005,-0.01 0.01,-0.01l0.241 0c0.005,0 0.01,0.005 0.01,0.01 0,0.006 -0.005,0.01 -0.01,0.01l-0.241 0z"/>
   <path class="fil0" d="M0.421 0.377l0.158 0c0.005,0 0.01,0.004 0.01,0.01l0 0.08c0,0.006 -0.005,0.01 -0.01,0.01l-0.158 0c-0.005,0 -0.01,-0.004 -0.01,-0.01l0 -0.08c0,-0.006 0.005,-0.01 0.01,-0.01zm0.148 0.02l-0.137 0 0 0.06 0.137 0 0 -0.06z"/>
  </g>
 </g>
</svg>
