<?xml version="1.0" encoding="UTF-8"?>
<!DOCTYPE svg PUBLIC "-//W3C//DTD SVG 1.1//EN" "http://www.w3.org/Graphics/SVG/1.1/DTD/svg11.dtd">
<!-- Creator: CorelDRAW 2018 (64-Bit) -->
<svg xmlns="http://www.w3.org/2000/svg" xml:space="preserve" width="30px" height="23px" version="1.1" style="shape-rendering:geometricPrecision; text-rendering:geometricPrecision; image-rendering:optimizeQuality; fill-rule:evenodd; clip-rule:evenodd"
viewBox="0 0 0.478 0.37"
 xmlns:xlink="http://www.w3.org/1999/xlink">
 <defs>
  <style type="text/css">
   <![CDATA[
    .fil0 {fill:gray;fill-rule:nonzero}
   ]]>
  </style>
 </defs>
 <g id="Layer_x0020_1">
  <metadata id="CorelCorpID_0Corel-Layer"/>
  <g id="_2348887881456">
   <path class="fil0" d="M0.161 0.219c0,-0.004 0.004,-0.008 0.008,-0.008 0.005,0 0.009,0.004 0.009,0.008l0 0.142c0,0.004 -0.004,0.008 -0.009,0.008 -0.004,0 -0.008,-0.004 -0.008,-0.008l0 -0.142z"/>
   <path class="fil0" d="M0.133 0.274c-0.004,0 -0.008,-0.003 -0.008,-0.008 0,-0.004 0.004,-0.008 0.008,-0.008l0.012 0c0.005,0 0.009,0.004 0.009,0.008 0,0.005 -0.004,0.008 -0.009,0.008l-0.012 0z"/>
   <path class="fil0" d="M0.331 0.33c-0.003,0.003 -0.008,0.003 -0.011,0 -0.003,-0.003 -0.003,-0.008 0,-0.011l0.072 -0.072c0.003,-0.003 0.008,-0.003 0.011,0 0.003,0.003 0.003,0.008 0,0.011l-0.072 0.072z"/>
   <path class="fil0" d="M0.367 0.33c-0.003,0.003 -0.008,0.003 -0.011,0 -0.003,-0.003 -0.003,-0.008 0,-0.011l0.036 -0.036c0.003,-0.003 0.008,-0.003 0.011,0 0.003,0.003 0.003,0.008 0,0.011l-0.036 0.036z"/>
   <path class="fil0" d="M0.478 0.133c0,0.012 -0.005,0.024 -0.014,0.032 -0.008,0.009 -0.02,0.014 -0.033,0.014 -0.012,0 -0.023,-0.004 -0.03,-0.012 -0.003,-0.002 -0.006,-0.005 -0.008,-0.009 -0.002,0.003 -0.004,0.006 -0.006,0.008 -0.008,0.008 -0.02,0.013 -0.033,0.013 -0.013,0 -0.024,-0.005 -0.033,-0.014 -0.002,-0.002 -0.004,-0.004 -0.005,-0.006 -0.002,0.002 -0.004,0.004 -0.006,0.006 -0.008,0.009 -0.02,0.014 -0.033,0.014l0 0c-0.012,0 -0.024,-0.005 -0.033,-0.014 -0.002,-0.002 -0.003,-0.004 -0.005,-0.006 -0.002,0.002 -0.004,0.004 -0.006,0.006 -0.008,0.009 -0.02,0.014 -0.033,0.014l0 0c-0.012,0 -0.024,-0.005 -0.032,-0.014 -0.003,-0.002 -0.004,-0.004 -0.006,-0.006 -0.002,0.002 -0.004,0.004 -0.006,0.006 -0.008,0.009 -0.02,0.014 -0.032,0.014l-0.001 0c-0.012,0 -0.024,-0.005 -0.032,-0.013 -0.002,-0.002 -0.005,-0.005 -0.007,-0.008 -0.002,0.003 -0.004,0.006 -0.007,0.009 -0.008,0.007 -0.018,0.012 -0.03,0.012 -0.013,0 -0.025,-0.005 -0.033,-0.014 -0.009,-0.008 -0.014,-0.02 -0.014,-0.032 0,-0.002 0,-0.003 0.001,-0.004l0.04 -0.111c0.003,-0.006 0.005,-0.01 0.01,-0.013 0.004,-0.004 0.009,-0.005 0.016,-0.005l0.344 0c0.007,0 0.012,0.001 0.016,0.005 0.004,0.003 0.007,0.007 0.009,0.013l0.041 0.112c0.001,0.001 0.001,0.002 0.001,0.003zm-0.025 0.021c0.005,-0.005 0.008,-0.012 0.009,-0.02l-0.041 -0.11c-0.001,-0.003 -0.002,-0.005 -0.003,-0.007 -0.002,0 -0.004,-0.001 -0.007,-0.001l-0.344 0c-0.004,0 -0.006,0.001 -0.007,0.001 -0.001,0.002 -0.002,0.004 -0.004,0.007l-0.04 0.11c0,0.008 0.004,0.015 0.009,0.02 0.005,0.006 0.013,0.009 0.022,0.009 0.008,0 0.014,-0.003 0.019,-0.008 0.006,-0.005 0.01,-0.013 0.012,-0.022 0,-0.004 0.003,-0.007 0.008,-0.007 0.004,0 0.008,0.004 0.008,0.008l0 0c0,0.008 0.003,0.016 0.008,0.021 0.005,0.005 0.013,0.008 0.021,0.008l0.001 0c0.008,0 0.015,-0.003 0.021,-0.009 0.005,-0.005 0.009,-0.013 0.009,-0.021l0.016 0c0,0.008 0.003,0.016 0.009,0.021 0.005,0.006 0.013,0.009 0.021,0.009l0 0c0.009,0 0.016,-0.003 0.022,-0.009 0.005,-0.005 0.009,-0.013 0.009,-0.021l0 0 0.016 0 0 0.001c0,0.008 0.004,0.015 0.009,0.02 0.005,0.006 0.013,0.009 0.021,0.009l0 0c0.009,0 0.016,-0.003 0.022,-0.009 0.005,-0.005 0.009,-0.013 0.009,-0.021l0.016 0c0,0.008 0.003,0.016 0.009,0.021 0.005,0.006 0.013,0.009 0.021,0.009 0.009,0 0.016,-0.003 0.022,-0.009 0.005,-0.005 0.008,-0.012 0.008,-0.02 0,-0.004 0.003,-0.007 0.007,-0.008 0.004,-0.001 0.008,0.002 0.009,0.006 0.002,0.01 0.006,0.018 0.012,0.024 0.005,0.004 0.011,0.007 0.019,0.007 0.009,0 0.016,-0.003 0.022,-0.009z"/>
   <path class="fil0" d="M0.424 0.219c0,-0.004 0.003,-0.008 0.008,-0.008 0.004,0 0.008,0.004 0.008,0.008l0 0.13c0,0.006 -0.002,0.011 -0.006,0.015l-0.001 0c-0.004,0.004 -0.009,0.006 -0.014,0.006l-0.36 0c-0.006,0 -0.011,-0.002 -0.015,-0.006 -0.004,-0.004 -0.006,-0.009 -0.006,-0.015l0 -0.13c0,-0.004 0.003,-0.008 0.008,-0.008 0.004,0 0.008,0.004 0.008,0.008l0 0.13c0,0.001 0,0.002 0.001,0.003 0.001,0.001 0.003,0.002 0.004,0.002l0.36 0c0.001,0 0.002,-0.001 0.003,-0.001l0 -0.001c0.001,-0.001 0.002,-0.002 0.002,-0.003l0 -0.13z"/>
   <path class="fil0" d="M0.163 0.01c0,-0.004 0.004,-0.007 0.009,-0.007 0.004,0 0.007,0.004 0.007,0.009l-0.009 0.127c-0.001,0.004 -0.005,0.008 -0.009,0.007 -0.005,0 -0.008,-0.004 -0.008,-0.008l0.01 -0.128z"/>
   <path class="fil0" d="M0.299 0.012c-0.001,-0.005 0.003,-0.009 0.007,-0.009 0.004,0 0.008,0.003 0.009,0.007l0.009 0.128c0.001,0.004 -0.003,0.008 -0.007,0.008 -0.005,0.001 -0.008,-0.003 -0.009,-0.007l-0.009 -0.127z"/>
   <path class="fil0" d="M0.356 0.011c-0.001,-0.005 0.002,-0.009 0.006,-0.01 0.005,-0.001 0.009,0.002 0.01,0.006l0.029 0.128c0.001,0.004 -0.002,0.008 -0.006,0.009 -0.005,0.001 -0.009,-0.002 -0.01,-0.006l-0.029 -0.127z"/>
   <path class="fil0" d="M0.106 0.009c0.001,-0.004 0.005,-0.007 0.009,-0.006 0.005,0.001 0.007,0.005 0.006,0.01l-0.029 0.127c-0.001,0.004 -0.005,0.007 -0.009,0.006 -0.005,-0.001 -0.007,-0.005 -0.006,-0.009l0.029 -0.128z"/>
   <path class="fil0" d="M0.231 0.008c0,-0.004 0.003,-0.008 0.008,-0.008 0.004,0 0.008,0.004 0.008,0.008l0 0.132c0,0.005 -0.004,0.008 -0.008,0.008 -0.005,0 -0.008,-0.003 -0.008,-0.008l0 -0.132z"/>
  </g>
 </g>
</svg>
