<?xml version="1.0" encoding="UTF-8"?>
<!DOCTYPE svg PUBLIC "-//W3C//DTD SVG 1.1//EN" "http://www.w3.org/Graphics/SVG/1.1/DTD/svg11.dtd">
<!-- Creator: CorelDRAW 2018 (64-Bit) -->
<svg xmlns="http://www.w3.org/2000/svg" xml:space="preserve" width="26px" height="26px" version="1.1" style="shape-rendering:geometricPrecision; text-rendering:geometricPrecision; image-rendering:optimizeQuality; fill-rule:evenodd; clip-rule:evenodd"
viewBox="0 0 0.358 0.363"
 xmlns:xlink="http://www.w3.org/1999/xlink">
 <defs>
  <style type="text/css">
   <![CDATA[
    .fil0 {fill:gray;fill-rule:nonzero}
   ]]>
  </style>
 </defs>
 <g id="Layer_x0020_1">
  <metadata id="CorelCorpID_0Corel-Layer"/>
  <g id="_2348891188256">
   <path class="fil0" d="M0.322 0.29c0,-0.003 0.003,-0.007 0.007,-0.007 0.004,0 0.007,0.004 0.007,0.007l0 0.039c0,0.01 -0.004,0.018 -0.01,0.024 -0.006,0.006 -0.015,0.01 -0.024,0.01l-0.268 0c-0.009,0 -0.018,-0.003 -0.024,-0.01l0 0c-0.006,-0.006 -0.01,-0.014 -0.01,-0.024l0 -0.273c0,-0.003 0.003,-0.007 0.007,-0.007l0.295 0c0.009,0 0.018,0.004 0.024,0.01 0.006,0.007 0.01,0.015 0.01,0.024l0 0.039c0,0.004 -0.003,0.007 -0.007,0.007 -0.004,0 -0.007,-0.003 -0.007,-0.007l0 -0.039c0,-0.005 -0.002,-0.01 -0.006,-0.014 -0.003,-0.003 -0.008,-0.006 -0.014,-0.006l-0.288 0 0 0.266c0,0.006 0.002,0.011 0.006,0.014l0 0c0.003,0.004 0.008,0.006 0.014,0.006l0.268 0c0.006,0 0.011,-0.002 0.014,-0.006 0.004,-0.003 0.006,-0.008 0.006,-0.014l0 -0.039z"/>
   <path class="fil0" d="M0.336 0.04c0,0.004 -0.003,0.007 -0.007,0.007 -0.004,0 -0.007,-0.003 -0.007,-0.007 0,-0.003 -0.001,-0.005 -0.003,-0.007 -0.002,-0.002 -0.004,-0.003 -0.007,-0.003 -0.003,0 -0.007,-0.003 -0.007,-0.007 0,-0.004 0.004,-0.007 0.007,-0.007 0.007,0 0.013,0.003 0.017,0.007 0.004,0.004 0.007,0.01 0.007,0.017z"/>
   <polygon class="fil0" points="0.322,0.04 0.336,0.04 "/>
   <path class="fil0" d="M0.038 0.016c0.004,0 0.007,0.003 0.007,0.007 0,0.004 -0.003,0.007 -0.007,0.007l-0.014 0c-0.003,0 -0.005,0.001 -0.007,0.003 -0.002,0.002 -0.003,0.004 -0.003,0.007l0 0.016c0,0.004 -0.003,0.007 -0.007,0.007 -0.004,0 -0.007,-0.003 -0.007,-0.007l0 -0.016c0,-0.007 0.003,-0.013 0.007,-0.017 0.004,-0.004 0.01,-0.007 0.017,-0.007l0.014 0z"/>
   <path class="fil0" d="M0.34 0.169l-0.161 0c-0.01,0 -0.02,0.004 -0.026,0.011 -0.007,0.007 -0.011,0.016 -0.011,0.026 0,0.011 0.004,0.02 0.011,0.027l0 0c0.007,0.007 0.016,0.011 0.026,0.011l0.161 0c0.001,0 0.002,-0.001 0.003,-0.001 0.001,-0.001 0.001,-0.002 0.001,-0.003l0 -0.067c0,-0.001 0,-0.002 -0.001,-0.003 -0.001,-0.001 -0.002,-0.001 -0.003,-0.001zm-0.161 -0.014l0.161 0c0.005,0 0.01,0.002 0.013,0.005 0.003,0.004 0.005,0.008 0.005,0.013l0 0.067c0,0.005 -0.002,0.009 -0.005,0.013 -0.003,0.003 -0.008,0.005 -0.013,0.005l-0.161 0c-0.014,0 -0.027,-0.006 -0.036,-0.015l0 0c-0.01,-0.01 -0.015,-0.022 -0.015,-0.037 0,-0.014 0.005,-0.027 0.015,-0.036l0 0c0.009,-0.009 0.022,-0.015 0.036,-0.015z"/>
   <path class="fil0" d="M0.203 0.206c0,0.007 -0.003,0.013 -0.007,0.017 -0.004,0.004 -0.01,0.007 -0.017,0.007 -0.006,0 -0.012,-0.003 -0.017,-0.007 -0.004,-0.004 -0.007,-0.01 -0.007,-0.017 0,-0.006 0.003,-0.012 0.007,-0.016 0.005,-0.005 0.011,-0.007 0.017,-0.007 0.007,0 0.013,0.002 0.017,0.007 0.004,0.004 0.007,0.01 0.007,0.016zm-0.017 0.007c0.002,-0.002 0.003,-0.004 0.003,-0.007 0,-0.002 -0.001,-0.005 -0.003,-0.006 -0.002,-0.002 -0.004,-0.003 -0.007,-0.003 -0.003,0 -0.005,0.001 -0.007,0.003 -0.001,0.001 -0.003,0.004 -0.003,0.006 0,0.003 0.002,0.005 0.003,0.007 0.002,0.002 0.004,0.003 0.007,0.003 0.003,0 0.005,-0.001 0.007,-0.003z"/>
   <path class="fil0" d="M0.078 0.034c-0.004,0 -0.007,-0.002 -0.008,-0.006 0,-0.004 0.003,-0.008 0.007,-0.008l0.204 -0.02c0.004,0 0.007,0.002 0.008,0.006l0.002 0.018c0.001,0.004 -0.002,0.007 -0.006,0.007 -0.004,0.001 -0.007,-0.002 -0.008,-0.006l-0.001 -0.01 -0.198 0.019z"/>
  </g>
 </g>
</svg>
