<?xml version="1.0" encoding="UTF-8"?>
<!DOCTYPE svg PUBLIC "-//W3C//DTD SVG 1.1//EN" "http://www.w3.org/Graphics/SVG/1.1/DTD/svg11.dtd">
<!-- Creator: CorelDRAW 2018 (64-Bit) -->
<svg xmlns="http://www.w3.org/2000/svg" xml:space="preserve" width="35px" height="24px" version="1.1" style="shape-rendering:geometricPrecision; text-rendering:geometricPrecision; image-rendering:optimizeQuality; fill-rule:evenodd; clip-rule:evenodd"
viewBox="0 0 0.647 0.449"
 xmlns:xlink="http://www.w3.org/1999/xlink">
 <defs>
  <style type="text/css">
   <![CDATA[
    .fil1 {fill:#00F4FF}
    .fil0 {fill:#00F4FF;fill-rule:nonzero}
   ]]>
  </style>
 </defs>
 <g id="Layer_x0020_1">
  <metadata id="CorelCorpID_0Corel-Layer"/>
  <g id="_2349123900144">
   <path class="fil0" d="M0.097 0.101l0.129 0c0.005,0 0.01,0.004 0.01,0.01l0 0.183c0,0.005 -0.005,0.01 -0.01,0.01l-0.027 0 0.047 0.133c0.002,0.005 -0.001,0.01 -0.006,0.012 -0.001,0 -0.002,0 -0.003,0l-0.075 0c-0.004,0 -0.007,-0.002 -0.009,-0.006l-0.065 -0.145c0,-0.001 -0.001,-0.002 -0.001,-0.004l0 -0.183c0,-0.006 0.005,-0.01 0.01,-0.01zm0.12 0.019l-0.111 0 0 0.172 0.062 0.139 0.056 0 -0.046 -0.133c-0.001,-0.001 -0.001,-0.002 -0.001,-0.004 0,-0.005 0.004,-0.009 0.009,-0.009l0.031 0 0 -0.165z"/>
   <path class="fil0" d="M0.051 0.259c0.005,0 0.009,0.005 0.009,0.01 0,0.005 -0.004,0.009 -0.009,0.009l-0.018 0c-0.003,0 -0.006,-0.002 -0.008,-0.004 -0.008,-0.01 -0.014,-0.021 -0.018,-0.033 -0.005,-0.012 -0.007,-0.025 -0.007,-0.039 0,-0.013 0.002,-0.026 0.007,-0.038 0.004,-0.012 0.011,-0.024 0.019,-0.034 0.002,-0.002 0.004,-0.003 0.007,-0.003l0.018 0c0.005,0 0.009,0.004 0.009,0.009 0,0.005 -0.004,0.009 -0.009,0.009l-0.013 0c-0.006,0.008 -0.011,0.016 -0.014,0.025 -0.003,0.01 -0.005,0.021 -0.005,0.032 0,0.012 0.002,0.023 0.005,0.033 0.003,0.009 0.008,0.017 0.014,0.024l0.013 0z"/>
   <path class="fil0" d="M0.536 0.022l-0.3 0.095 0 0.17 0.3 0.096c0.004,-0.055 0.006,-0.118 0.006,-0.181 0,-0.063 -0.002,-0.125 -0.006,-0.18zm-0.313 0.08l0.318 -0.101c0,-0.001 0.001,-0.001 0.002,-0.001 0.005,0 0.01,0.003 0.01,0.008 0.005,0.059 0.008,0.127 0.008,0.194 0,0.068 -0.003,0.135 -0.008,0.194 0,0.001 0,0.002 0,0.002 -0.002,0.005 -0.007,0.008 -0.012,0.006l-0.317 -0.101c-0.004,0 -0.007,-0.004 -0.007,-0.009l0 -0.183c0,-0.004 0.002,-0.008 0.006,-0.009z"/>
   <path class="fil0" d="M0.448 0.357c0,0.005 -0.005,0.008 -0.01,0.008 -0.005,-0.001 -0.009,-0.005 -0.008,-0.011 0.005,-0.045 0.007,-0.098 0.007,-0.152 0,-0.053 -0.002,-0.106 -0.007,-0.152 -0.001,-0.005 0.003,-0.009 0.008,-0.01 0.005,-0.001 0.01,0.003 0.01,0.008 0.005,0.047 0.008,0.101 0.008,0.154 0,0.054 -0.003,0.108 -0.008,0.155z"/>
   <path class="fil0" d="M0.617 0.278c-0.004,0.004 -0.01,0.004 -0.013,0 -0.004,-0.003 -0.004,-0.009 -0.001,-0.013 0.008,-0.008 0.015,-0.018 0.019,-0.029 0.004,-0.01 0.006,-0.022 0.006,-0.034 0,-0.012 -0.002,-0.023 -0.006,-0.033 -0.004,-0.011 -0.011,-0.021 -0.019,-0.029 -0.003,-0.004 -0.003,-0.01 0.001,-0.013 0.003,-0.004 0.009,-0.004 0.013,0 0.009,0.01 0.017,0.022 0.022,0.035 0.005,0.012 0.008,0.026 0.008,0.04 0,0.015 -0.003,0.028 -0.008,0.041 -0.005,0.013 -0.013,0.025 -0.022,0.035z"/>
   <path class="fil1" d="M0.162 0.153c0.008,0 0.014,0.006 0.014,0.014 0,0.008 -0.006,0.014 -0.014,0.014 -0.007,0 -0.014,-0.006 -0.014,-0.014 0,-0.008 0.007,-0.014 0.014,-0.014z"/>
  </g>
 </g>
</svg>
