<?xml version="1.0" encoding="UTF-8"?>
<!DOCTYPE svg PUBLIC "-//W3C//DTD SVG 1.1//EN" "http://www.w3.org/Graphics/SVG/1.1/DTD/svg11.dtd">
<!-- Creator: CorelDRAW 2018 (64-Bit) -->
<svg xmlns="http://www.w3.org/2000/svg" xml:space="preserve" width="33px" height="24px" version="1.1" style="shape-rendering:geometricPrecision; text-rendering:geometricPrecision; image-rendering:optimizeQuality; fill-rule:evenodd; clip-rule:evenodd"
viewBox="0 0 0.591 0.424"
 xmlns:xlink="http://www.w3.org/1999/xlink">
 <defs>
  <style type="text/css">
   <![CDATA[
    .fil0 {fill:gray;fill-rule:nonzero}
    .fil1 {fill:gray;fill-rule:nonzero}
   ]]>
  </style>
 </defs>
 <g id="Layer_x0020_1">
  <metadata id="CorelCorpID_0Corel-Layer"/>
  <g id="_2348976981040">
   <path class="fil0" d="M0.447 0.148c0.027,0 0.052,0.011 0.069,0.029 0.018,0.018 0.029,0.043 0.029,0.07 0,0.028 -0.011,0.052 -0.029,0.07 -0.017,0.018 -0.042,0.029 -0.069,0.029 -0.028,0 -0.052,-0.011 -0.07,-0.029 -0.018,-0.018 -0.029,-0.042 -0.029,-0.07 0,-0.027 0.011,-0.052 0.029,-0.07l0 0c0.018,-0.018 0.042,-0.029 0.07,-0.029zm0.057 0.042c-0.015,-0.015 -0.035,-0.024 -0.057,-0.024 -0.023,0 -0.043,0.009 -0.057,0.023l-0.001 0.001c-0.015,0.015 -0.024,0.035 -0.024,0.057 0,0.023 0.009,0.043 0.024,0.058 0.015,0.014 0.035,0.023 0.058,0.023 0.022,0 0.042,-0.009 0.057,-0.023 0.015,-0.015 0.024,-0.035 0.024,-0.058 0,-0.022 -0.009,-0.042 -0.024,-0.057z"/>
   <path class="fil0" d="M0.504 0.317c-0.003,-0.003 -0.003,-0.009 0,-0.012 0.003,-0.004 0.009,-0.004 0.012,0l0.072 0.071c0.004,0.004 0.004,0.009 0,0.013 -0.003,0.003 -0.009,0.003 -0.012,0l-0.072 -0.072z"/>
   <path class="fil0" d="M0.365 0.341c0.005,0 0.009,0.004 0.009,0.009 0,0.005 -0.004,0.009 -0.009,0.009l-0.341 0c-0.007,0 -0.013,-0.003 -0.017,-0.007 -0.004,-0.004 -0.007,-0.01 -0.007,-0.017l0 -0.311c0,-0.007 0.003,-0.013 0.007,-0.017 0.004,-0.004 0.01,-0.007 0.017,-0.007l0.496 0c0.006,0 0.012,0.003 0.017,0.007 0.004,0.004 0.007,0.01 0.007,0.017l0 0.113c0,0.005 -0.004,0.009 -0.009,0.009 -0.005,0 -0.009,-0.004 -0.009,-0.009l0 -0.113c0,-0.002 -0.001,-0.003 -0.002,-0.005 -0.001,-0.001 -0.002,-0.001 -0.004,-0.001l-0.496 0c-0.002,0 -0.003,0 -0.005,0.001 -0.001,0.002 -0.001,0.003 -0.001,0.005l0 0.311c0,0.002 0,0.003 0.001,0.004 0.002,0.002 0.003,0.002 0.005,0.002l0.341 0z"/>
   <path class="fil0" d="M0.081 0.087c0,-0.005 0.004,-0.009 0.009,-0.009 0.005,0 0.009,0.004 0.009,0.009l0 0.185c0,0.005 -0.004,0.009 -0.009,0.009 -0.005,0 -0.009,-0.004 -0.009,-0.009l0 -0.185z"/>
   <path class="fil0" d="M0.145 0.196c0,-0.005 0.004,-0.009 0.009,-0.009 0.005,0 0.009,0.004 0.009,0.009l0 0.076c0,0.005 -0.004,0.009 -0.009,0.009 -0.005,0 -0.009,-0.004 -0.009,-0.009l0 -0.076z"/>
   <path class="fil0" d="M0.209 0.121c0,-0.005 0.004,-0.009 0.009,-0.009 0.004,0 0.008,0.004 0.008,0.009l0 0.151c0,0.005 -0.004,0.009 -0.008,0.009 -0.005,0 -0.009,-0.004 -0.009,-0.009l0 -0.151z"/>
   <path class="fil0" d="M0.272 0.179c0,-0.004 0.004,-0.008 0.009,-0.008 0.005,0 0.009,0.004 0.009,0.008l0 0.093c0,0.005 -0.004,0.009 -0.009,0.009 -0.005,0 -0.009,-0.004 -0.009,-0.009l0 -0.093z"/>
   <path class="fil1" d="M0.157 0.424c-0.005,0 -0.009,-0.004 -0.009,-0.009 0,-0.005 0.004,-0.009 0.009,-0.009l0.23 0c0.005,0 0.009,0.004 0.009,0.009 0,0.005 -0.004,0.009 -0.009,0.009l-0.23 0z"/>
   <path class="fil1" d="M0.205 0.407c0,0.005 -0.004,0.009 -0.009,0.009 -0.004,0 -0.008,-0.004 -0.008,-0.009l0 -0.057c0,-0.005 0.004,-0.009 0.008,-0.009 0.005,0 0.009,0.004 0.009,0.009l0 0.057z"/>
   <path class="fil1" d="M0.356 0.407c0,0.005 -0.004,0.009 -0.009,0.009 -0.005,0 -0.009,-0.004 -0.009,-0.009l0 -0.057c0,-0.005 0.004,-0.009 0.009,-0.009 0.005,0 0.009,0.004 0.009,0.009l0 0.057z"/>
  </g>
 </g>
</svg>
