<?xml version="1.0" encoding="UTF-8"?>
<!DOCTYPE svg PUBLIC "-//W3C//DTD SVG 1.1//EN" "http://www.w3.org/Graphics/SVG/1.1/DTD/svg11.dtd">
<!-- Creator: CorelDRAW 2018 (64-Bit) -->
<svg xmlns="http://www.w3.org/2000/svg" xml:space="preserve" width="33px" height="22px" version="1.1" style="shape-rendering:geometricPrecision; text-rendering:geometricPrecision; image-rendering:optimizeQuality; fill-rule:evenodd; clip-rule:evenodd"
viewBox="0 0 0.583 0.394"
 xmlns:xlink="http://www.w3.org/1999/xlink">
 <defs>
  <style type="text/css">
   <![CDATA[
    .fil0 {fill:gray;fill-rule:nonzero}
   ]]>
  </style>
 </defs>
 <g id="Layer_x0020_1">
  <metadata id="CorelCorpID_0Corel-Layer"/>
  <g id="_2312938569280">
   <path class="fil0" d="M0.269 0.056c-0.009,0 -0.017,-0.005 -0.027,-0.012 -0.016,-0.01 -0.039,-0.026 -0.087,-0.026 -0.032,0 -0.063,0.025 -0.088,0.063 -0.027,0.041 -0.046,0.096 -0.048,0.148 -0.003,0.05 -0.001,0.088 0.007,0.113 0.007,0.023 0.019,0.034 0.038,0.034 0.022,0 0.049,-0.027 0.073,-0.052 0.023,-0.024 0.044,-0.045 0.063,-0.045l0.183 0c0.019,0 0.04,0.021 0.063,0.045 0.024,0.025 0.051,0.052 0.073,0.052 0.019,0 0.031,-0.011 0.038,-0.034 0.008,-0.025 0.01,-0.063 0.007,-0.113 -0.002,-0.052 -0.021,-0.107 -0.048,-0.148 -0.025,-0.038 -0.056,-0.063 -0.088,-0.063 -0.048,0 -0.071,0.016 -0.087,0.026 -0.01,0.007 -0.018,0.012 -0.027,0.012l-0.045 0zm-0.017 -0.026c0.007,0.005 0.013,0.009 0.017,0.009l0.045 0c0.004,0 0.01,-0.004 0.017,-0.009 0.018,-0.012 0.043,-0.03 0.097,-0.03 0.038,0 0.075,0.029 0.103,0.071 0.029,0.044 0.048,0.103 0.051,0.157 0.002,0.052 0,0.092 -0.008,0.12 -0.01,0.03 -0.027,0.046 -0.055,0.046 -0.029,0 -0.059,-0.03 -0.086,-0.058 -0.02,-0.021 -0.039,-0.04 -0.05,-0.04l-0.183 0c-0.012,0 -0.03,0.019 -0.05,0.04 -0.027,0.028 -0.057,0.058 -0.086,0.058 -0.028,0 -0.045,-0.016 -0.055,-0.046 -0.008,-0.028 -0.01,-0.068 -0.008,-0.12 0.002,-0.054 0.022,-0.113 0.051,-0.157 0.028,-0.042 0.065,-0.071 0.103,-0.071 0.053,0 0.079,0.018 0.097,0.03z"/>
   <path class="fil0" d="M0.372 0.088c0.009,0 0.016,0.003 0.022,0.009 0.006,0.006 0.009,0.014 0.009,0.022 0,0.009 -0.003,0.017 -0.009,0.023 -0.006,0.005 -0.013,0.009 -0.022,0.009 -0.009,0 -0.017,-0.004 -0.022,-0.009l-0.001 0c-0.005,-0.006 -0.009,-0.014 -0.009,-0.023 0,-0.008 0.004,-0.016 0.009,-0.022 0.006,-0.006 0.014,-0.009 0.023,-0.009zm0.01 0.021c-0.003,-0.002 -0.006,-0.004 -0.01,-0.004 -0.004,0 -0.008,0.002 -0.01,0.004 -0.003,0.003 -0.004,0.006 -0.004,0.01 0,0.004 0.001,0.008 0.004,0.01 0.002,0.003 0.006,0.004 0.01,0.004 0.004,0 0.007,-0.001 0.01,-0.004 0.002,-0.002 0.004,-0.006 0.004,-0.01 0,-0.004 -0.002,-0.007 -0.004,-0.01z"/>
   <path class="fil0" d="M0.372 0.17c0.009,0 0.016,0.004 0.022,0.009 0.006,0.006 0.009,0.014 0.009,0.023 0,0.008 -0.003,0.016 -0.009,0.022 -0.006,0.006 -0.013,0.009 -0.022,0.009 -0.009,0 -0.017,-0.003 -0.023,-0.009 -0.005,-0.006 -0.009,-0.014 -0.009,-0.022 0,-0.009 0.004,-0.017 0.009,-0.023 0.006,-0.005 0.014,-0.009 0.023,-0.009zm0.01 0.022c-0.003,-0.003 -0.006,-0.004 -0.01,-0.004 -0.004,0 -0.008,0.001 -0.01,0.004 -0.003,0.002 -0.004,0.006 -0.004,0.01 0,0.003 0.001,0.007 0.004,0.009 0.002,0.003 0.006,0.005 0.01,0.005 0.004,0 0.007,-0.002 0.01,-0.005 0.002,-0.002 0.004,-0.006 0.004,-0.009 0,-0.004 -0.002,-0.008 -0.004,-0.01z"/>
   <path class="fil0" d="M0.457 0.088c0.008,0 0.016,0.003 0.022,0.009 0.006,0.006 0.009,0.014 0.009,0.022 0,0.009 -0.003,0.017 -0.009,0.023 -0.006,0.005 -0.014,0.009 -0.022,0.009 -0.009,0 -0.017,-0.004 -0.023,-0.009l0 -0.001c-0.006,-0.006 -0.009,-0.013 -0.009,-0.022 0,-0.008 0.004,-0.016 0.009,-0.022 0.006,-0.006 0.014,-0.009 0.023,-0.009zm0.01 0.021c-0.003,-0.002 -0.006,-0.004 -0.01,-0.004 -0.004,0 -0.008,0.002 -0.01,0.004 -0.003,0.003 -0.004,0.006 -0.004,0.01 0,0.004 0.001,0.007 0.003,0.01l0.001 0c0.002,0.003 0.006,0.004 0.01,0.004 0.004,0 0.007,-0.001 0.01,-0.004 0.002,-0.002 0.004,-0.006 0.004,-0.01 0,-0.004 -0.002,-0.007 -0.004,-0.01z"/>
   <path class="fil0" d="M0.457 0.17c0.008,0 0.016,0.004 0.022,0.009 0.006,0.006 0.009,0.014 0.009,0.023 0,0.008 -0.003,0.016 -0.009,0.022 -0.006,0.006 -0.014,0.009 -0.022,0.009 -0.009,0 -0.017,-0.003 -0.023,-0.009 -0.005,-0.006 -0.009,-0.014 -0.009,-0.022 0,-0.009 0.004,-0.017 0.009,-0.023 0.006,-0.005 0.014,-0.009 0.023,-0.009zm0.01 0.022c-0.003,-0.003 -0.006,-0.004 -0.01,-0.004 -0.004,0 -0.008,0.001 -0.01,0.004 -0.003,0.002 -0.004,0.006 -0.004,0.01 0,0.003 0.001,0.007 0.004,0.009 0.002,0.003 0.006,0.005 0.01,0.005 0.004,0 0.007,-0.002 0.01,-0.005 0.002,-0.002 0.004,-0.006 0.004,-0.009 0,-0.004 -0.002,-0.008 -0.004,-0.01z"/>
   <path class="fil0" d="M0.152 0.079l0.029 0c0.004,0 0.007,0.002 0.01,0.004 0.002,0.003 0.004,0.006 0.004,0.009l0 0.04 0.04 0c0.003,0 0.006,0.002 0.009,0.004 0.002,0.003 0.004,0.006 0.004,0.009l0 0.03c0,0.004 -0.002,0.007 -0.004,0.01l-0.001 0c-0.002,0.002 -0.005,0.003 -0.008,0.003l-0.04 0 0 0.04c0,0.004 -0.002,0.007 -0.004,0.01 -0.003,0.002 -0.006,0.004 -0.01,0.004l-0.029 0c-0.004,0 -0.007,-0.002 -0.01,-0.004 -0.002,-0.003 -0.004,-0.006 -0.004,-0.01l0 -0.04 -0.04 0c-0.003,0 -0.006,-0.001 -0.009,-0.003 -0.002,-0.003 -0.004,-0.006 -0.004,-0.01l0 -0.03c0,-0.003 0.002,-0.006 0.004,-0.009l0.001 -0.001c0.002,-0.001 0.005,-0.003 0.008,-0.003l0.04 0 0 -0.04c0,-0.003 0.002,-0.006 0.004,-0.009l0.001 -0.001c0.002,-0.002 0.005,-0.003 0.009,-0.003zm0.025 0.018l-0.021 0 0 0.044c0,0.005 -0.004,0.009 -0.009,0.009l-0.044 0 0 0.021 0.044 0c0.005,0 0.009,0.004 0.009,0.009l0 0.044 0.021 0 0 -0.044c0,-0.005 0.004,-0.009 0.009,-0.009l0.044 0 0 -0.021 -0.044 0c-0.005,0 -0.009,-0.004 -0.009,-0.009l0 -0.044z"/>
  </g>
 </g>
</svg>
