<?xml version="1.0" encoding="UTF-8"?>
<!DOCTYPE svg PUBLIC "-//W3C//DTD SVG 1.1//EN" "http://www.w3.org/Graphics/SVG/1.1/DTD/svg11.dtd">
<!-- Creator: CorelDRAW 2018 (64-Bit) -->
<svg xmlns="http://www.w3.org/2000/svg" xml:space="preserve" width="61px" height="41px" version="1.1" style="shape-rendering:geometricPrecision; text-rendering:geometricPrecision; image-rendering:optimizeQuality; fill-rule:evenodd; clip-rule:evenodd"
viewBox="0 0 5.39 3.623"
 xmlns:xlink="http://www.w3.org/1999/xlink">
 <defs>
  <style type="text/css">
   <![CDATA[
    .fil0 {fill:#00D4E3;fill-rule:nonzero}
   ]]>
  </style>
 </defs>
 <g id="Layer_x0020_1">
  <metadata id="CorelCorpID_0Corel-Layer"/>
  <g id="_2632004660080">
   <path class="fil0" d="M0.288 0l4.814 0c0.079,0 0.151,0.032 0.203,0.085l0.003 0.002c0.051,0.052 0.082,0.123 0.082,0.201l0 3.047c0,0.079 -0.032,0.151 -0.085,0.203l0 0c-0.052,0.052 -0.124,0.085 -0.203,0.085l-4.814 0c-0.079,0 -0.151,-0.033 -0.203,-0.085 -0.053,-0.052 -0.085,-0.124 -0.085,-0.203l0 -3.047c0,-0.079 0.032,-0.151 0.085,-0.203 0.052,-0.053 0.124,-0.085 0.203,-0.085zm4.814 0.088l-4.814 0c-0.055,0 -0.105,0.023 -0.141,0.059 -0.036,0.036 -0.059,0.086 -0.059,0.141l0 3.047c0,0.055 0.023,0.105 0.059,0.141 0.036,0.036 0.086,0.058 0.141,0.058l4.814 0c0.055,0 0.105,-0.022 0.141,-0.058 0.036,-0.036 0.059,-0.086 0.059,-0.141l0 -3.047c0,-0.054 -0.022,-0.103 -0.057,-0.139l-0.002 -0.002c-0.036,-0.036 -0.086,-0.059 -0.141,-0.059z"/>
   <path class="fil0" d="M4.453 0.967l0 -0.001c0,-0.088 -0.035,-0.168 -0.093,-0.226 -0.058,-0.057 -0.137,-0.093 -0.225,-0.093l-0.001 0c-0.088,0 -0.168,0.036 -0.225,0.093 -0.058,0.058 -0.094,0.137 -0.094,0.225l0 0.002c0,0.088 0.036,0.167 0.093,0.225 0.058,0.058 0.138,0.094 0.226,0.094l0 0c0.088,0 0.168,-0.036 0.226,-0.094 0.058,-0.057 0.093,-0.137 0.093,-0.225l0 0zm0.089 -0.001l0 0.001c-0.001,0.113 -0.046,0.214 -0.12,0.288 -0.074,0.073 -0.175,0.119 -0.288,0.119l0 0c-0.113,0 -0.215,-0.046 -0.288,-0.12 -0.074,-0.073 -0.119,-0.175 -0.119,-0.287l0 -0.002c0,-0.112 0.046,-0.214 0.119,-0.287 0.074,-0.074 0.176,-0.119 0.288,-0.119l0.001 0c0.112,0 0.214,0.046 0.288,0.119 0.073,0.074 0.119,0.176 0.119,0.288l0 0z"/>
   <path class="fil0" d="M5.009 3.087c0.017,0.016 0.018,0.044 0.002,0.062 -0.017,0.018 -0.045,0.019 -0.063,0.002l-1.053 -0.984 -0.571 0.639 -1.835 -1.997 -1.045 1.154c-0.016,0.018 -0.044,0.019 -0.062,0.003 -0.018,-0.016 -0.019,-0.044 -0.003,-0.062l1.11 -1.225 1.834 1.996 0.567 -0.634 1.119 1.046z"/>
  </g>
 </g>
</svg>
