<?xml version="1.0" encoding="UTF-8"?>
<!DOCTYPE svg PUBLIC "-//W3C//DTD SVG 1.1//EN" "http://www.w3.org/Graphics/SVG/1.1/DTD/svg11.dtd">
<!-- Creator: CorelDRAW 2018 (64-Bit) -->
<svg xmlns="http://www.w3.org/2000/svg" xml:space="preserve" width="78px" height="51px" version="1.1" style="shape-rendering:geometricPrecision; text-rendering:geometricPrecision; image-rendering:optimizeQuality; fill-rule:evenodd; clip-rule:evenodd"
viewBox="0 0 77.976 50.868"
 xmlns:xlink="http://www.w3.org/1999/xlink">
 <defs>
  <style type="text/css">
   <![CDATA[
    .fil0 {fill:#00D4E3;fill-rule:nonzero}
   ]]>
  </style>
 </defs>
 <g id="Layer_x0020_1">
  <metadata id="CorelCorpID_0Corel-Layer"/>
  <g id="_2630808424544">
   <path class="fil0" d="M59.662 10.571c-3.185,2.956 -7.193,4.005 -10.529,4.877 -1.387,0.362 -2.655,0.694 -3.666,1.115l0 5.897c0,1.669 0.956,3.661 2.659,5.416 1.527,1.574 3.646,2.945 6.212,3.721 2.566,-0.776 4.685,-2.148 6.211,-3.72 1.704,-1.756 2.66,-3.748 2.66,-5.417l0 -6.001c-0.217,-0.189 -0.427,-0.349 -0.632,-0.505 -1.155,-0.878 -2.189,-1.665 -2.915,-5.383zm-10.779 3.914c3.454,-0.902 7.655,-2.001 10.741,-5.277 0.073,-0.077 0.171,-0.132 0.284,-0.149 0.271,-0.043 0.526,0.141 0.569,0.412 0.666,4.145 1.622,4.873 2.7,5.693 0.277,0.21 0.561,0.427 0.843,0.687 0.114,0.091 0.186,0.231 0.186,0.388l0 6.221c0,1.919 -1.058,4.167 -2.944,6.11 -1.661,1.712 -3.976,3.201 -6.78,4.021 -0.089,0.027 -0.187,0.03 -0.282,0.002 -2.807,-0.82 -5.124,-2.309 -6.787,-4.023 -1.886,-1.944 -2.944,-4.192 -2.944,-6.11l0 -6.221c0.003,-0.188 0.11,-0.368 0.293,-0.452 1.135,-0.521 2.554,-0.892 4.121,-1.302z"/>
   <path class="fil0" d="M63.707 22.166c-0.275,0 -0.498,-0.223 -0.498,-0.498 0,-0.276 0.223,-0.499 0.498,-0.499 0.448,0 0.853,-0.185 1.145,-0.484 0.296,-0.303 0.48,-0.723 0.48,-1.189 0,-0.465 -0.184,-0.886 -0.48,-1.188 -0.292,-0.299 -0.697,-0.484 -1.145,-0.484 -0.275,0 -0.498,-0.224 -0.498,-0.499 0,-0.275 0.223,-0.499 0.498,-0.499 0.725,0 1.382,0.302 1.858,0.788 0.472,0.483 0.764,1.149 0.764,1.882 0,0.734 -0.292,1.4 -0.764,1.882 -0.476,0.487 -1.133,0.788 -1.858,0.788z"/>
   <path class="fil0" d="M44.968 21.169c0.275,0 0.499,0.223 0.499,0.499 0,0.275 -0.224,0.498 -0.499,0.498 -0.724,0 -1.381,-0.301 -1.858,-0.788 -0.472,-0.482 -0.764,-1.148 -0.764,-1.882 0,-0.733 0.292,-1.399 0.764,-1.882 0.477,-0.487 1.134,-0.788 1.858,-0.788 0.275,0 0.499,0.224 0.499,0.499 0,0.275 -0.224,0.499 -0.499,0.499 -0.448,0 -0.852,0.185 -1.145,0.484 -0.296,0.302 -0.479,0.723 -0.479,1.188 0,0.466 0.183,0.886 0.479,1.189 0.293,0.299 0.697,0.484 1.145,0.484z"/>
   <path class="fil0" d="M48.483 36.497c0.178,0.209 0.151,0.523 -0.058,0.701 -0.21,0.177 -0.524,0.151 -0.701,-0.059 -1.851,-2.187 -3.762,-5.001 -5.119,-8.381 -1.075,-2.675 -1.803,-5.707 -1.88,-9.063 -0.008,-0.32 -0.005,-0.641 0.008,-0.961 0.145,-3.623 1.553,-7.506 3.86,-10.501 2.33,-3.027 5.581,-5.161 9.389,-5.249 0.222,-0.005 0.445,-0.003 0.666,0.006 4.308,0.172 8.214,1.851 10.969,5.088 2.474,2.907 4.01,7.061 4.055,12.494 0.03,3.485 -0.661,6.879 -1.754,10.039 -1.35,3.902 -3.314,7.447 -5.291,10.363 -1.146,1.689 -2.041,3.27 -2.154,4.757 -0.109,1.428 0.526,2.823 2.409,4.242 0.219,0.165 0.262,0.478 0.097,0.697 -0.105,0.139 -0.269,0.207 -0.431,0.197 -1.147,-0.077 -3.172,-0.336 -4.893,-1.391 -1.764,-1.082 -3.194,-2.97 -3.047,-6.276 0.14,-3.146 1.061,-4.428 1.995,-5.731 0.66,-0.919 1.329,-1.852 1.678,-3.556 0.103,-0.501 0.18,-1.076 0.224,-1.743 0.043,-0.675 0.052,-1.438 0.018,-2.306 -0.01,-0.274 0.203,-0.506 0.478,-0.516 0.274,-0.011 0.505,0.203 0.516,0.477 0.036,0.912 0.026,1.708 -0.019,2.407 -0.046,0.708 -0.13,1.328 -0.243,1.879 -0.394,1.921 -1.123,2.936 -1.841,3.938 -0.849,1.184 -1.685,2.349 -1.812,5.194 -0.127,2.855 1.08,4.469 2.571,5.383 0.923,0.566 1.96,0.877 2.87,1.05 -1.241,-1.308 -1.668,-2.641 -1.564,-4.019 0.13,-1.704 1.094,-3.423 2.326,-5.24 1.936,-2.855 3.857,-6.321 5.174,-10.129 1.059,-3.061 1.728,-6.345 1.7,-9.708 -0.044,-5.183 -1.489,-9.124 -3.818,-11.859 -2.564,-3.013 -6.215,-4.576 -10.252,-4.738 -0.207,-0.008 -0.41,-0.01 -0.608,-0.005 -3.472,0.079 -6.462,2.057 -8.621,4.863 -2.184,2.836 -3.517,6.507 -3.654,9.932 -0.012,0.306 -0.014,0.607 -0.008,0.903 0.074,3.221 0.775,6.136 1.81,8.713 1.311,3.265 3.162,5.988 4.955,8.108z"/>
   <path class="fil0" d="M49.03 30.139c-0.087,-0.26 0.054,-0.542 0.314,-0.629 0.26,-0.087 0.542,0.054 0.629,0.314 1.262,3.747 0.281,6.074 -1.806,7.569 -1.994,1.429 -4.998,2.035 -7.962,2.406 -0.622,0.078 -1.238,0.142 -1.792,0.198 -2.998,0.308 -3.978,0.408 -6.837,3.781 -0.177,0.209 -0.491,0.235 -0.701,0.058 -0.209,-0.177 -0.235,-0.492 -0.058,-0.701 3.117,-3.678 4.196,-3.789 7.495,-4.127 0.502,-0.052 1.063,-0.11 1.772,-0.198 2.83,-0.355 5.681,-0.922 7.503,-2.228 1.731,-1.24 2.531,-3.212 1.443,-6.443z"/>
   <path class="fil0" d="M63.65 38.837c-0.262,-0.08 -0.411,-0.357 -0.331,-0.62 0.079,-0.262 0.357,-0.41 0.619,-0.331 0.709,0.216 1.469,0.392 2.253,0.54 0.772,0.145 1.583,0.264 2.4,0.366 0.709,0.089 1.27,0.147 1.772,0.198 3.298,0.338 4.379,0.45 7.495,4.127 0.178,0.21 0.152,0.524 -0.058,0.702 -0.209,0.177 -0.524,0.151 -0.701,-0.059 -2.858,-3.372 -3.84,-3.473 -6.837,-3.78 -0.554,-0.057 -1.169,-0.12 -1.792,-0.198 -0.815,-0.102 -1.642,-0.224 -2.463,-0.378 -0.81,-0.153 -1.603,-0.338 -2.357,-0.567z"/>
   <path class="fil0" d="M58.534 30.343c0.077,-0.263 0.353,-0.415 0.616,-0.339 0.264,0.077 0.415,0.352 0.339,0.616 -0.19,0.658 -0.299,1.263 -0.333,1.819 -0.035,0.544 0.002,1.035 0.1,1.478 0.059,0.268 -0.11,0.533 -0.378,0.592 -0.268,0.059 -0.533,-0.11 -0.592,-0.377 -0.119,-0.538 -0.163,-1.122 -0.124,-1.755 0.039,-0.622 0.16,-1.299 0.372,-2.034z"/>
   <path class="fil0" d="M60.238 45.682c-0.27,0.051 -0.53,-0.127 -0.581,-0.397 -0.05,-0.27 0.128,-0.53 0.398,-0.58 2.311,-0.438 4.469,-1.133 6.408,-2.039 1.963,-0.918 3.706,-2.054 5.155,-3.359 0.204,-0.184 0.519,-0.167 0.703,0.037 0.184,0.204 0.167,0.52 -0.037,0.703 -1.518,1.367 -3.343,2.557 -5.401,3.519 -2.016,0.942 -4.255,1.664 -6.645,2.116z"/>
   <path class="fil0" d="M36.391 40.065c-0.204,-0.184 -0.221,-0.499 -0.037,-0.703 0.184,-0.205 0.499,-0.221 0.703,-0.037 2.036,1.827 4.653,3.324 7.657,4.355 2.901,0.995 6.164,1.553 9.614,1.553l0.47 -0.001 0.469 -0.011c0.275,-0.008 0.503,0.209 0.511,0.483 0.007,0.274 -0.209,0.503 -0.484,0.51l-0.966 0.017c-3.561,0 -6.934,-0.579 -9.938,-1.609 -3.13,-1.073 -5.863,-2.64 -7.999,-4.557z"/>
   <path class="fil0" d="M16.398 24.657c-0.087,-0.26 0.054,-0.542 0.314,-0.629 0.26,-0.087 0.542,0.053 0.629,0.314 1.138,3.378 0.251,5.478 -1.634,6.829 -1.793,1.284 -4.487,1.829 -7.145,2.162 -0.552,0.069 -1.106,0.126 -1.604,0.177 -2.666,0.273 -3.538,0.363 -6.081,3.363 -0.177,0.209 -0.491,0.235 -0.701,0.058 -0.209,-0.177 -0.235,-0.492 -0.058,-0.701 2.802,-3.306 3.772,-3.406 6.738,-3.71 0.447,-0.045 0.945,-0.097 1.585,-0.177 2.523,-0.316 5.065,-0.821 6.686,-1.983 1.529,-1.095 2.235,-2.841 1.271,-5.703z"/>
   <path class="fil0" d="M27.084 24.342c0.087,-0.261 0.369,-0.401 0.629,-0.314 0.26,0.087 0.401,0.369 0.314,0.629 -0.965,2.862 -0.258,4.608 1.271,5.703 1.621,1.162 4.163,1.667 6.686,1.983 0.639,0.08 1.138,0.132 1.584,0.177 2.967,0.304 3.937,0.404 6.739,3.71 0.177,0.209 0.151,0.524 -0.058,0.701 -0.21,0.177 -0.524,0.151 -0.701,-0.058 -2.543,-3 -3.415,-3.09 -6.081,-3.363 -0.498,-0.051 -1.052,-0.108 -1.604,-0.177 -2.658,-0.333 -5.352,-0.878 -7.145,-2.162 -1.885,-1.351 -2.773,-3.451 -1.634,-6.829z"/>
   <path class="fil0" d="M31.097 13.033l0 5.478c0,0.868 -0.235,1.759 -0.62,2.629 -0.435,0.982 -1.065,1.941 -1.76,2.805 -0.884,1.098 -1.926,2.052 -3.08,2.717 -1.056,0.606 -2.205,0.971 -3.415,0.982l-0.008 0c-1.209,-0.011 -2.359,-0.376 -3.414,-0.982 -1.155,-0.665 -2.197,-1.619 -3.08,-2.717 -0.695,-0.865 -1.325,-1.823 -1.76,-2.805 -0.386,-0.87 -0.621,-1.761 -0.621,-2.629l0.003 -5.615c0.017,-1.061 0.205,-2.214 0.492,-3.234 0.302,-1.076 0.723,-2.025 1.183,-2.596 0.87,-1.079 1.839,-1.594 3.057,-1.773 1.15,-0.169 2.503,-0.026 4.218,0.215 1.886,0.264 4.169,0.882 5.89,1.707 1.504,0.721 2.61,1.629 2.764,2.658 0.048,0.322 0.095,0.927 0.124,1.555 0.027,0.581 0.04,1.187 0.027,1.605zm-0.997 5.478l0.002 -5.495c0.013,-0.387 0.001,-0.972 -0.026,-1.541 -0.027,-0.589 -0.071,-1.157 -0.116,-1.458 -0.098,-0.655 -0.986,-1.32 -2.207,-1.906 -1.626,-0.779 -3.796,-1.365 -5.597,-1.618 -1.631,-0.228 -2.907,-0.365 -3.938,-0.214 -0.964,0.141 -1.733,0.551 -2.425,1.41 -0.376,0.466 -0.732,1.287 -1.001,2.241 -0.266,0.948 -0.44,2.011 -0.457,2.98l0.002 5.601c0,0.721 0.202,1.478 0.534,2.227 0.398,0.899 0.98,1.783 1.624,2.583 0.813,1.01 1.76,1.882 2.8,2.48 0.912,0.524 1.896,0.839 2.923,0.85 1.027,-0.011 2.012,-0.326 2.924,-0.85 1.039,-0.598 1.987,-1.47 2.8,-2.48 0.643,-0.8 1.225,-1.684 1.623,-2.583 0.332,-0.749 0.535,-1.506 0.535,-2.227z"/>
   <path class="fil0" d="M30.599 18.301c-0.276,0 -0.499,-0.223 -0.499,-0.498 0,-0.276 0.223,-0.499 0.499,-0.499 0.385,0 0.734,-0.16 0.986,-0.417 0.255,-0.261 0.413,-0.625 0.413,-1.027 0,-0.402 -0.158,-0.765 -0.413,-1.026 -0.253,-0.258 -0.602,-0.417 -0.986,-0.417 -0.276,0 -0.499,-0.223 -0.499,-0.499 0,-0.275 0.223,-0.498 0.499,-0.498 0.662,0 1.262,0.275 1.696,0.718l0.003 0.002c0.431,0.442 0.698,1.05 0.698,1.72 0,0.671 -0.267,1.279 -0.698,1.72 -0.436,0.446 -1.037,0.721 -1.699,0.721z"/>
   <path class="fil0" d="M13.838 17.304c0.275,0 0.499,0.223 0.499,0.499 0,0.275 -0.224,0.498 -0.499,0.498 -0.663,0 -1.264,-0.276 -1.699,-0.721 -0.431,-0.441 -0.699,-1.049 -0.699,-1.72 0,-0.67 0.268,-1.278 0.699,-1.72l0.002 -0.002c0.434,-0.443 1.034,-0.718 1.697,-0.718 0.275,0 0.499,0.223 0.499,0.498 0,0.276 -0.224,0.499 -0.499,0.499 -0.385,0 -0.733,0.159 -0.986,0.416 -0.255,0.262 -0.414,0.625 -0.414,1.027 0,0.402 0.159,0.766 0.414,1.027 0.251,0.257 0.6,0.417 0.986,0.417z"/>
   <path class="fil0" d="M13.791 13.525c0.058,0.268 -0.113,0.534 -0.381,0.592 -0.269,0.058 -0.535,-0.113 -0.593,-0.382 -0.088,-0.404 -0.211,-0.828 -0.339,-1.272 -0.636,-2.198 -1.394,-4.821 0.96,-6.365 0.037,-2.47 1.077,-3.989 2.517,-4.899 1.405,-0.889 3.181,-1.172 4.749,-1.198l0.397 -0.001c2.366,0.023 5.093,0.703 7.294,1.985 1.915,1.116 3.445,2.691 4.033,4.694l0.007 0.028c0.547,1.917 -0.125,5.03 -0.617,7.309l-0.009 0.039c-0.057,0.269 -0.321,0.441 -0.59,0.384 -0.269,-0.057 -0.441,-0.321 -0.384,-0.59l0.009 -0.044c0.471,-2.179 1.113,-5.156 0.634,-6.829l-0.005 -0.016c-0.508,-1.735 -1.868,-3.119 -3.577,-4.114 -2.054,-1.197 -4.597,-1.831 -6.803,-1.852l-0.373 0.001c-1.418,0.023 -3.01,0.27 -4.235,1.045 -1.182,0.747 -2.034,2.016 -2.054,4.11l0.001 0.188c0.014,0.186 -0.077,0.373 -0.25,0.471 -1.978,1.132 -1.307,3.448 -0.75,5.377 0.139,0.478 0.271,0.936 0.359,1.339z"/>
   <path class="fil0" d="M16.839 29.093c-0.241,-0.132 -0.329,-0.435 -0.197,-0.676 0.132,-0.241 0.435,-0.329 0.676,-0.197l5.14 2.838c0.228,0.125 0.319,0.404 0.216,0.637l-1.628 3.674c-0.111,0.252 -0.405,0.366 -0.657,0.256 -0.067,-0.03 -0.124,-0.072 -0.169,-0.123l-4.757 -4.691c-0.196,-0.193 -0.199,-0.508 -0.006,-0.704 0.192,-0.195 0.507,-0.198 0.703,-0.005l4.266 4.207 1.153 -2.599 -4.74 -2.617z"/>
   <path class="fil0" d="M27.119 28.22c0.241,-0.132 0.544,-0.044 0.676,0.197 0.132,0.241 0.044,0.544 -0.197,0.676l-4.739 2.617 1.152 2.599 4.266 -4.207c0.196,-0.193 0.511,-0.19 0.704,0.005 0.192,0.196 0.189,0.511 -0.006,0.704l-4.757 4.691c-0.046,0.051 -0.103,0.093 -0.17,0.123 -0.251,0.11 -0.545,-0.004 -0.656,-0.256l-1.629 -3.674c-0.103,-0.233 -0.012,-0.512 0.216,-0.637l5.14 -2.838z"/>
  </g>
 </g>
</svg>
