<?xml version="1.0" encoding="UTF-8"?>
<!DOCTYPE svg PUBLIC "-//W3C//DTD SVG 1.1//EN" "http://www.w3.org/Graphics/SVG/1.1/DTD/svg11.dtd">
<!-- Creator: CorelDRAW 2018 (64-Bit) -->
<svg xmlns="http://www.w3.org/2000/svg" xml:space="preserve" width="52px" height="46px" version="1.1" style="shape-rendering:geometricPrecision; text-rendering:geometricPrecision; image-rendering:optimizeQuality; fill-rule:evenodd; clip-rule:evenodd"
viewBox="0 0 4.647 4.141"
 xmlns:xlink="http://www.w3.org/1999/xlink">
 <defs>
  <style type="text/css">
   <![CDATA[
    .fil0 {fill:#00D4E3;fill-rule:nonzero}
   ]]>
  </style>
 </defs>
 <g id="Layer_x0020_1">
  <metadata id="CorelCorpID_0Corel-Layer"/>
  <g id="_2631707481616">
   <path class="fil0" d="M0 1.629l0 -0.467c0,-0.12 0.051,-0.229 0.133,-0.308 0.081,-0.078 0.193,-0.127 0.317,-0.127l3.747 0c0.123,0 0.236,0.049 0.317,0.127 0.082,0.079 0.133,0.188 0.133,0.308l0 0.478c0,0.02 -0.013,0.036 -0.031,0.042 -0.323,0.121 -0.617,0.232 -0.906,0.342 -0.277,0.104 -0.549,0.207 -0.878,0.33 -0.026,0.01 -0.051,0.02 -0.076,0.03 -0.128,0.05 -0.24,0.095 -0.433,0.095 -0.192,0 -0.304,-0.045 -0.432,-0.095 -0.029,-0.012 -0.058,-0.023 -0.077,-0.03 -0.316,-0.118 -0.59,-0.224 -0.869,-0.333 -0.287,-0.111 -0.579,-0.225 -0.916,-0.35 -0.018,-0.007 -0.029,-0.024 -0.029,-0.042zm0.09 -0.467l0 0.435c0.331,0.124 0.612,0.234 0.888,0.341 0.282,0.109 0.559,0.217 0.868,0.332 0.035,0.013 0.057,0.022 0.078,0.03 0.119,0.047 0.224,0.089 0.399,0.089 0.175,0 0.281,-0.042 0.4,-0.089 0.025,-0.01 0.05,-0.02 0.078,-0.03 0.303,-0.113 0.587,-0.221 0.877,-0.33 0.268,-0.102 0.542,-0.205 0.879,-0.331l0 -0.447c0,-0.095 -0.04,-0.181 -0.105,-0.243 -0.065,-0.063 -0.156,-0.102 -0.255,-0.102l-3.747 0c-0.1,0 -0.19,0.039 -0.255,0.102 -0.065,0.062 -0.105,0.148 -0.105,0.243z"/>
   <path class="fil0" d="M0.393 1.395c0,0.025 -0.02,0.045 -0.044,0.045 -0.025,0 -0.045,-0.02 -0.045,-0.045l0 -0.099c0,-0.08 0.035,-0.153 0.093,-0.206 0.056,-0.052 0.134,-0.084 0.218,-0.084l0.391 0c0.025,0 0.045,0.02 0.045,0.045 0,0.025 -0.02,0.045 -0.045,0.045l-0.391 0c-0.061,0 -0.117,0.023 -0.158,0.06 -0.039,0.036 -0.063,0.086 -0.063,0.14l-0.001 0.099z"/>
   <path class="fil0" d="M4.475 2.045c0,-0.025 0.02,-0.045 0.045,-0.045 0.024,0 0.045,0.02 0.045,0.045l0 1.66c0,0.12 -0.049,0.229 -0.128,0.308l0 0c-0.079,0.079 -0.188,0.128 -0.308,0.128l-3.612 0c-0.119,0 -0.228,-0.049 -0.307,-0.128l-0.003 -0.003c-0.077,-0.079 -0.125,-0.186 -0.125,-0.305l0 -1.671c0,-0.025 0.02,-0.045 0.045,-0.045 0.025,0 0.045,0.02 0.045,0.045l0 1.671c0,0.094 0.038,0.18 0.099,0.242l0.003 0.002c0.062,0.063 0.148,0.102 0.243,0.102l3.612 0c0.095,0 0.182,-0.039 0.244,-0.102 0.063,-0.062 0.102,-0.149 0.102,-0.244l0 -1.66z"/>
   <path class="fil0" d="M4.158 3.091c0,-0.025 0.021,-0.045 0.045,-0.045 0.025,0 0.046,0.02 0.046,0.045l0 0.458c0,0.091 -0.037,0.173 -0.097,0.232 -0.059,0.06 -0.142,0.097 -0.232,0.097l-0.562 0c-0.024,0 -0.045,-0.02 -0.045,-0.045 0,-0.025 0.021,-0.045 0.045,-0.045l0.562 0c0.066,0 0.125,-0.027 0.168,-0.07 0.044,-0.044 0.07,-0.103 0.07,-0.169l0 -0.458z"/>
   <path class="fil0" d="M2.762 2.333c0,-0.025 0.02,-0.045 0.045,-0.045 0.024,0 0.045,0.02 0.045,0.045l0 0.617c0,0.025 -0.021,0.045 -0.045,0.045l-0.967 0c-0.025,0 -0.045,-0.02 -0.045,-0.045l0 -0.617c0,-0.025 0.02,-0.045 0.045,-0.045 0.025,0 0.045,0.02 0.045,0.045l0 0.572 0.877 0 0 -0.572z"/>
   <path class="fil0" d="M1.408 0.515c0,0.025 -0.02,0.045 -0.045,0.045 -0.025,0 -0.045,-0.02 -0.045,-0.045 0,-0.141 0.058,-0.27 0.151,-0.364 0.093,-0.093 0.222,-0.151 0.364,-0.151l0.98 0c0.142,0 0.271,0.058 0.364,0.152 0.094,0.093 0.152,0.222 0.152,0.363 0,0.025 -0.021,0.045 -0.045,0.045 -0.025,0 -0.045,-0.02 -0.045,-0.045 0,-0.117 -0.048,-0.223 -0.125,-0.3 -0.077,-0.077 -0.184,-0.125 -0.301,-0.125l-0.98 0c-0.117,0 -0.223,0.048 -0.3,0.125 -0.077,0.077 -0.125,0.183 -0.125,0.3z"/>
  </g>
 </g>
</svg>
