<?xml version="1.0" encoding="UTF-8"?>
<!DOCTYPE svg PUBLIC "-//W3C//DTD SVG 1.1//EN" "http://www.w3.org/Graphics/SVG/1.1/DTD/svg11.dtd">
<!-- Creator: CorelDRAW 2018 (64-Bit) -->
<svg xmlns="http://www.w3.org/2000/svg" xml:space="preserve" width="62px" height="46px" version="1.1" style="shape-rendering:geometricPrecision; text-rendering:geometricPrecision; image-rendering:optimizeQuality; fill-rule:evenodd; clip-rule:evenodd"
viewBox="0 0 5.588 4.123"
 xmlns:xlink="http://www.w3.org/1999/xlink">
 <defs>
  <style type="text/css">
   <![CDATA[
    .fil1 {fill:#00D4E3}
    .fil0 {fill:#00D4E3;fill-rule:nonzero}
   ]]>
  </style>
 </defs>
 <g id="Layer_x0020_1">
  <metadata id="CorelCorpID_0Corel-Layer"/>
  <g id="_2631707503728">
   <path class="fil0" d="M3.519 0.421c0.569,0 1.085,0.176 1.459,0.461 0.377,0.288 0.61,0.686 0.61,1.127 0,0.25 -0.076,0.487 -0.21,0.698 -0.135,0.211 -0.328,0.395 -0.563,0.54l0.067 0.828c0.002,0.025 -0.017,0.046 -0.042,0.048 -0.013,0.001 -0.026,-0.004 -0.035,-0.013l-0.602 -0.602c-0.104,0.028 -0.212,0.05 -0.323,0.065 -0.118,0.015 -0.238,0.024 -0.361,0.024 -0.568,0 -1.084,-0.177 -1.458,-0.461 -0.377,-0.288 -0.61,-0.686 -0.61,-1.127 0,-0.441 0.233,-0.839 0.61,-1.127 0.374,-0.285 0.89,-0.461 1.458,-0.461zm1.404 0.532c-0.358,-0.273 -0.855,-0.442 -1.404,-0.442 -0.548,0 -1.045,0.169 -1.403,0.442 -0.356,0.271 -0.575,0.645 -0.575,1.056 0,0.411 0.219,0.785 0.575,1.055 0.358,0.274 0.855,0.443 1.403,0.443 0.12,0 0.237,-0.008 0.349,-0.023 0.115,-0.015 0.226,-0.038 0.333,-0.068 0.016,-0.006 0.034,-0.002 0.047,0.01l0.535 0.535 -0.06 -0.734c-0.001,-0.017 0.007,-0.033 0.022,-0.042 0.235,-0.14 0.426,-0.32 0.557,-0.526 0.126,-0.196 0.196,-0.417 0.196,-0.65 0,-0.411 -0.219,-0.785 -0.575,-1.056z"/>
   <path class="fil0" d="M2.87 0.169c0.023,0.009 0.034,0.035 0.025,0.058 -0.009,0.023 -0.035,0.034 -0.058,0.025 -0.132,-0.053 -0.274,-0.094 -0.422,-0.121 -0.144,-0.027 -0.294,-0.041 -0.45,-0.041 -0.52,0 -0.991,0.16 -1.331,0.419 -0.336,0.257 -0.544,0.611 -0.544,1 0,0.221 0.066,0.43 0.185,0.616 0.124,0.195 0.306,0.365 0.528,0.498 0.015,0.009 0.023,0.026 0.022,0.042l-0.056 0.691 0.503 -0.503c0.013,-0.013 0.031,-0.016 0.047,-0.011 0.028,0.008 0.057,0.016 0.088,0.023 0.031,0.007 0.061,0.014 0.092,0.02 0.024,0.004 0.04,0.028 0.035,0.052 -0.004,0.024 -0.028,0.04 -0.052,0.036 -0.033,-0.007 -0.064,-0.014 -0.095,-0.021 -0.023,-0.005 -0.046,-0.011 -0.07,-0.018l-0.57 0.571c-0.009,0.009 -0.022,0.014 -0.035,0.013 -0.025,-0.002 -0.044,-0.023 -0.042,-0.048l0.064 -0.785c-0.224,-0.137 -0.407,-0.312 -0.534,-0.512 -0.128,-0.2 -0.2,-0.426 -0.2,-0.664 0,-0.419 0.222,-0.797 0.58,-1.071 0.355,-0.271 0.845,-0.438 1.385,-0.438 0.16,0 0.316,0.015 0.466,0.043 0.154,0.028 0.301,0.071 0.439,0.126z"/>
   <path class="fil1" d="M2.598 1.813c0.111,0 0.202,0.09 0.202,0.202 0,0.111 -0.091,0.201 -0.202,0.201 -0.111,0 -0.202,-0.09 -0.202,-0.201 0,-0.112 0.091,-0.202 0.202,-0.202z"/>
   <path class="fil1" d="M3.519 1.813c0.112,0 0.202,0.09 0.202,0.202 0,0.111 -0.09,0.201 -0.202,0.201 -0.111,0 -0.201,-0.09 -0.201,-0.201 0,-0.112 0.09,-0.202 0.201,-0.202z"/>
   <path class="fil1" d="M4.441 1.813c0.111,0 0.202,0.09 0.202,0.202 0,0.111 -0.091,0.201 -0.202,0.201 -0.111,0 -0.202,-0.09 -0.202,-0.201 0,-0.112 0.091,-0.202 0.202,-0.202z"/>
  </g>
 </g>
</svg>
