<?xml version="1.0" encoding="UTF-8"?>
<!DOCTYPE svg PUBLIC "-//W3C//DTD SVG 1.1//EN" "http://www.w3.org/Graphics/SVG/1.1/DTD/svg11.dtd">
<!-- Creator: CorelDRAW 2018 (64-Bit) -->
<svg xmlns="http://www.w3.org/2000/svg" xml:space="preserve" width="94px" height="46px" version="1.1" style="shape-rendering:geometricPrecision; text-rendering:geometricPrecision; image-rendering:optimizeQuality; fill-rule:evenodd; clip-rule:evenodd"
viewBox="0 0 93.977 45.824"
 xmlns:xlink="http://www.w3.org/1999/xlink">
 <defs>
  <style type="text/css">
   <![CDATA[
    .fil0 {fill:#A3AEBA;fill-rule:nonzero}
   ]]>
  </style>
 </defs>
 <g id="Layer_x0020_1">
  <metadata id="CorelCorpID_0Corel-Layer"/>
  <g id="_2594982090288">
   <path class="fil0" d="M0.498 45.824c-0.275,0 -0.498,-0.223 -0.498,-0.498 0,-0.275 0.223,-0.498 0.498,-0.498l92.98 0c0.275,0 0.499,0.223 0.499,0.498 0,0.275 -0.224,0.498 -0.499,0.498l-92.98 0z"/>
   <path class="fil0" d="M4.918 43.082c-0.275,0 -0.498,-0.223 -0.498,-0.498 0,-0.275 0.223,-0.498 0.498,-0.498l12.269 0c0.275,0 0.498,0.223 0.498,0.498 0,0.275 -0.223,0.498 -0.498,0.498l-12.269 0z"/>
   <path class="fil0" d="M19.466 24.095c0.237,-0.137 0.541,-0.055 0.677,0.182 0.136,0.238 0.055,0.541 -0.183,0.677l-3.521 2.033c-0.237,0.137 -0.54,0.055 -0.677,-0.183 -0.136,-0.237 -0.054,-0.54 0.183,-0.676l3.521 -2.033z"/>
   <path class="fil0" d="M15.943 26.128c0.237,-0.138 0.541,-0.057 0.679,0.18 0.137,0.238 0.056,0.542 -0.181,0.679 -0.991,0.572 -1.531,1.753 -1.601,3.194 -0.075,1.519 0.368,3.309 1.345,5.002 0.138,0.238 0.057,0.542 -0.18,0.679 -0.238,0.138 -0.542,0.057 -0.679,-0.181 -1.076,-1.863 -1.562,-3.849 -1.479,-5.547 0.088,-1.776 0.793,-3.254 2.096,-4.006z"/>
   <path class="fil0" d="M15.326 35.681c-0.138,-0.237 -0.057,-0.541 0.181,-0.678 0.237,-0.138 0.541,-0.057 0.678,0.18l0.014 0.023 11.001 -6.351 -0.013 -0.022c-0.138,-0.237 -0.057,-0.541 0.181,-0.678 0.237,-0.138 0.541,-0.057 0.678,0.18l0.262 0.452c0.136,0.239 0.054,0.543 -0.183,0.679l-11.859 6.848c-0.238,0.137 -0.542,0.056 -0.679,-0.181l-0.261 -0.452z"/>
   <path class="fil0" d="M28.06 28.362c0.122,0.245 0.023,0.544 -0.222,0.666 -0.236,0.118 -0.521,0.03 -0.651,-0.196 -0.979,-1.695 -2.308,-2.973 -3.658,-3.666 -1.268,-0.652 -2.544,-0.78 -3.53,-0.234 -0.194,0.137 -0.465,0.118 -0.638,-0.055 -0.194,-0.195 -0.194,-0.51 0,-0.705 0.032,-0.028 0.067,-0.055 0.105,-0.078 1.302,-0.751 2.934,-0.623 4.514,0.188 1.514,0.778 2.991,2.191 4.066,4.052l0.014 0.028z"/>
   <path class="fil0" d="M15.957 20.335c0.237,-0.137 0.541,-0.056 0.679,0.181 0.137,0.237 0.056,0.541 -0.181,0.679l-1.516 0.875c-0.237,0.138 -0.541,0.057 -0.679,-0.18 -0.137,-0.238 -0.056,-0.542 0.181,-0.679l1.516 -0.876z"/>
   <path class="fil0" d="M14.441 21.211c0.237,-0.138 0.541,-0.057 0.679,0.18 0.137,0.238 0.056,0.542 -0.181,0.679 -0.307,0.178 -0.413,0.717 -0.335,1.441 0.092,0.858 0.453,1.919 1.061,2.972 0.138,0.237 0.057,0.541 -0.18,0.679 -0.238,0.137 -0.542,0.056 -0.679,-0.181 -0.679,-1.176 -1.085,-2.377 -1.191,-3.365 -0.12,-1.12 0.146,-2.013 0.826,-2.405z"/>
   <path class="fil0" d="M14.806 26.979c-0.137,-0.237 -0.055,-0.541 0.182,-0.677 0.186,-0.107 0.412,-0.08 0.567,0.051l4.299 -2.483c-0.035,-0.199 0.055,-0.409 0.241,-0.516 0.237,-0.137 0.541,-0.055 0.677,0.182l0.164 0.284c0.136,0.237 0.054,0.54 -0.183,0.677l-5.107 2.948c-0.237,0.136 -0.54,0.054 -0.677,-0.183l-0.163 -0.283z"/>
   <path class="fil0" d="M20.772 23.534c0.138,0.238 0.057,0.542 -0.181,0.679 -0.237,0.138 -0.541,0.057 -0.678,-0.18 -0.61,-1.057 -1.348,-1.901 -2.043,-2.408 -0.589,-0.43 -1.109,-0.608 -1.417,-0.43 -0.237,0.136 -0.54,0.054 -0.677,-0.183 -0.136,-0.237 -0.054,-0.54 0.183,-0.677 0.679,-0.391 1.584,-0.176 2.494,0.489 0.804,0.586 1.642,1.537 2.319,2.71z"/>
   <path class="fil0" d="M6.41 28.785c-0.434,0 -0.827,0.175 -1.11,0.459 -0.284,0.284 -0.46,0.677 -0.46,1.11 0,0.434 0.176,0.827 0.46,1.11 0.283,0.284 0.676,0.46 1.11,0.46 0.433,0 0.826,-0.176 1.11,-0.46 0.284,-0.283 0.46,-0.676 0.46,-1.11 0,-0.433 -0.176,-0.826 -0.46,-1.11 -0.284,-0.284 -0.677,-0.459 -1.11,-0.459zm-1.815 -0.245c0.464,-0.464 1.106,-0.752 1.815,-0.752 0.708,0 1.35,0.288 1.814,0.752 0.464,0.464 0.752,1.106 0.752,1.814 0,0.709 -0.288,1.35 -0.752,1.815 -0.464,0.464 -1.106,0.751 -1.814,0.751 -0.709,0 -1.351,-0.287 -1.815,-0.751 -0.464,-0.465 -0.751,-1.106 -0.751,-1.815 0,-0.708 0.287,-1.35 0.751,-1.814z"/>
   <path class="fil0" d="M14.165 24.514c0.235,-0.142 0.541,-0.066 0.683,0.169 0.142,0.235 0.066,0.541 -0.17,0.683l-6.549 3.952c-0.236,0.142 -0.541,0.066 -0.683,-0.169 -0.142,-0.235 -0.066,-0.541 0.169,-0.683l6.55 -3.952z"/>
   <path class="fil0" d="M7.02 32.527c-0.097,-0.257 0.033,-0.544 0.289,-0.64 0.257,-0.097 0.544,0.033 0.64,0.29l3.85 10.232c0.096,0.257 -0.033,0.544 -0.29,0.64 -0.257,0.097 -0.543,-0.033 -0.64,-0.29l-3.849 -10.232z"/>
   <path class="fil0" d="M25.759 21.864c0,0.275 -0.223,0.498 -0.498,0.498 -0.275,0 -0.498,-0.223 -0.498,-0.498l0 -19.539c0,-0.638 0.262,-1.219 0.682,-1.641 0.423,-0.422 1.005,-0.684 1.643,-0.684l47.488 0c0.64,0 1.222,0.262 1.643,0.683 0.421,0.421 0.682,1.002 0.682,1.642l0 30.797c0,0.638 -0.262,1.22 -0.682,1.641 -0.423,0.422 -1.005,0.684 -1.643,0.684l-47.488 0c-0.319,0 -0.627,-0.067 -0.908,-0.186 -0.289,-0.124 -0.55,-0.305 -0.765,-0.529 -0.19,-0.198 -0.184,-0.512 0.014,-0.702 0.197,-0.19 0.512,-0.184 0.702,0.014 0.123,0.128 0.272,0.231 0.439,0.302 0.157,0.067 0.333,0.105 0.518,0.105l47.488 0c0.366,0 0.699,-0.15 0.939,-0.39 0.24,-0.24 0.39,-0.573 0.39,-0.939l0 -30.797c0,-0.365 -0.15,-0.697 -0.391,-0.938 -0.24,-0.241 -0.573,-0.391 -0.938,-0.391l-47.488 0c-0.366,0 -0.699,0.15 -0.939,0.39 -0.241,0.241 -0.39,0.573 -0.39,0.939l0 19.539z"/>
   <path class="fil0" d="M39.752 43.082c-0.275,0 -0.498,-0.223 -0.498,-0.498 0,-0.275 0.223,-0.498 0.498,-0.498l22.161 0c0.275,0 0.498,0.223 0.498,0.498 0,0.275 -0.223,0.498 -0.498,0.498l-22.161 0z"/>
   <path class="fil0" d="M44.053 41.8c0,0.276 -0.223,0.499 -0.498,0.499 -0.275,0 -0.498,-0.223 -0.498,-0.499l0 -6.851c0,-0.275 0.223,-0.498 0.498,-0.498 0.275,0 0.498,0.223 0.498,0.498l0 6.851z"/>
   <path class="fil0" d="M58.609 41.8c0,0.276 -0.223,0.499 -0.498,0.499 -0.275,0 -0.498,-0.223 -0.498,-0.499l0 -6.851c0,-0.275 0.223,-0.498 0.498,-0.498 0.275,0 0.498,0.223 0.498,0.498l0 6.851z"/>
   <path class="fil0" d="M81.508 38.926c-0.024,-0.272 0.177,-0.514 0.45,-0.538 0.273,-0.025 0.514,0.176 0.539,0.449l0.385 4.259c0.025,0.273 -0.177,0.515 -0.45,0.539 -0.272,0.025 -0.514,-0.177 -0.538,-0.449l-0.386 -4.26z"/>
   <path class="fil0" d="M81.894 43.184c-0.024,-0.273 0.178,-0.514 0.451,-0.537 0.218,-0.019 0.417,0.107 0.499,0.298 0.179,0.075 0.306,0.253 0.306,0.46 0,0.275 -0.223,0.498 -0.498,0.498 -0.209,0 -0.394,-0.085 -0.529,-0.221 -0.128,-0.128 -0.212,-0.306 -0.229,-0.498z"/>
   <path class="fil0" d="M82.652 43.903c-0.275,0 -0.498,-0.223 -0.498,-0.498 0,-0.275 0.223,-0.498 0.498,-0.498l5.258 0c0.275,0 0.498,0.223 0.498,0.498 0,0.275 -0.223,0.498 -0.498,0.498l-5.258 0z"/>
   <path class="fil0" d="M87.91 43.903c-0.276,0 -0.499,-0.223 -0.499,-0.498 0,-0.206 0.126,-0.383 0.304,-0.459 0.082,-0.193 0.281,-0.32 0.501,-0.301 0.274,0.023 0.477,0.265 0.454,0.539 -0.017,0.192 -0.102,0.369 -0.231,0.498 -0.136,0.136 -0.32,0.221 -0.529,0.221z"/>
   <path class="fil0" d="M88.668 43.186c-0.025,0.272 -0.266,0.474 -0.539,0.449 -0.273,-0.024 -0.474,-0.266 -0.45,-0.539l0.386 -4.259c0.024,-0.273 0.266,-0.474 0.538,-0.449 0.273,0.024 0.474,0.266 0.45,0.538l-0.385 4.26z"/>
   <path class="fil0" d="M89.231 36.262c0.275,0 0.498,0.223 0.498,0.498 0,0.275 -0.223,0.498 -0.498,0.498l-7.9 0c-0.275,0 -0.499,-0.223 -0.499,-0.498 0,-0.275 0.224,-0.498 0.499,-0.498l7.9 0z"/>
   <path class="fil0" d="M81.303 36.264c0.274,-0.015 0.509,0.195 0.524,0.469 0.012,0.215 -0.115,0.405 -0.303,0.485 -0.071,0.168 -0.233,0.291 -0.428,0.302 -0.269,0.016 -0.501,-0.185 -0.524,-0.452l-0.005 -0.067c0,-0.203 0.087,-0.383 0.221,-0.515 0.12,-0.119 0.285,-0.2 0.461,-0.219l0.054 -0.003z"/>
   <path class="fil0" d="M80.572 37.076c-0.028,-0.272 0.169,-0.517 0.442,-0.546 0.273,-0.029 0.518,0.169 0.547,0.441l0.154 1.409c0.029,0.273 -0.169,0.518 -0.442,0.547 -0.273,0.028 -0.518,-0.169 -0.546,-0.442l-0.155 -1.409z"/>
   <path class="fil0" d="M80.727 38.485c-0.029,-0.273 0.168,-0.518 0.441,-0.547 0.223,-0.023 0.427,0.104 0.51,0.3 0.179,0.075 0.305,0.252 0.305,0.459 0,0.275 -0.223,0.498 -0.498,0.498 -0.188,0 -0.354,-0.068 -0.484,-0.181l-0.045 -0.039c-0.126,-0.127 -0.209,-0.302 -0.229,-0.49z"/>
   <path class="fil0" d="M81.485 39.195c-0.275,0 -0.498,-0.223 -0.498,-0.498 0,-0.275 0.223,-0.498 0.498,-0.498l7.591 0c0.275,0 0.498,0.223 0.498,0.498 0,0.275 -0.223,0.498 -0.498,0.498l-7.591 0z"/>
   <path class="fil0" d="M89.076 39.195c-0.275,0 -0.498,-0.223 -0.498,-0.498 0,-0.207 0.126,-0.384 0.305,-0.459 0.084,-0.197 0.289,-0.324 0.512,-0.3 0.273,0.03 0.47,0.276 0.44,0.549 -0.02,0.185 -0.103,0.358 -0.23,0.486 -0.138,0.137 -0.319,0.222 -0.529,0.222z"/>
   <path class="fil0" d="M89.835 38.485c-0.029,0.273 -0.274,0.47 -0.547,0.442 -0.273,-0.029 -0.47,-0.274 -0.442,-0.547l0.155 -1.409c0.028,-0.272 0.274,-0.47 0.546,-0.441 0.273,0.029 0.471,0.274 0.442,0.546l-0.154 1.409z"/>
   <path class="fil0" d="M89.991 37.047c-0.013,0.274 -0.246,0.486 -0.52,0.473 -0.196,-0.009 -0.361,-0.132 -0.433,-0.302 -0.188,-0.079 -0.315,-0.27 -0.304,-0.485 0.015,-0.274 0.25,-0.484 0.524,-0.469l0.054 0.003c0.176,0.019 0.341,0.1 0.461,0.219 0.135,0.132 0.221,0.312 0.221,0.515l-0.003 0.046z"/>
   <path class="fil0" d="M88.276 37.108c-0.205,0.181 -0.519,0.162 -0.701,-0.043 -0.181,-0.205 -0.162,-0.519 0.043,-0.7 0.411,-0.363 0.75,-0.825 0.99,-1.353 0.233,-0.515 0.372,-1.091 0.39,-1.698 0.007,-0.274 0.236,-0.49 0.51,-0.483 0.273,0.007 0.489,0.236 0.482,0.51 -0.022,0.746 -0.191,1.452 -0.476,2.08 -0.297,0.655 -0.722,1.23 -1.238,1.687z"/>
   <path class="fil0" d="M89.488 33.823c-0.274,-0.003 -0.493,-0.228 -0.49,-0.502 0.003,-0.274 0.228,-0.493 0.502,-0.49l0.024 0c0.274,0.003 0.493,0.229 0.49,0.502 -0.003,0.274 -0.228,0.494 -0.502,0.491l-0.024 -0.001z"/>
   <path class="fil0" d="M89.518 33.826c-0.275,0 -0.498,-0.223 -0.498,-0.498 0,-0.276 0.223,-0.499 0.498,-0.499 0.519,0 1.071,-0.192 1.544,-0.504 0.47,-0.312 0.855,-0.734 1.04,-1.192 0.072,-0.179 0.107,-0.349 0.107,-0.503 0,-0.17 -0.044,-0.321 -0.127,-0.44 -0.083,-0.121 -0.211,-0.221 -0.377,-0.288l-0.019 -0.008c-0.151,-0.057 -0.333,-0.089 -0.544,-0.089 -0.363,0 -0.744,0.096 -1.101,0.26l-0.025 0.011c-0.368,0.172 -0.71,0.418 -0.983,0.708 -0.188,0.2 -0.503,0.21 -0.703,0.022 -0.027,-0.026 -0.05,-0.053 -0.069,-0.082 -0.34,-0.499 -0.781,-0.908 -1.286,-1.186 -0.481,-0.266 -1.025,-0.416 -1.6,-0.416 -0.992,0 -1.893,0.447 -2.546,1.168 -0.665,0.735 -1.077,1.756 -1.077,2.888 0,0.624 0.124,1.212 0.345,1.735 0.229,0.54 0.563,1.016 0.973,1.395 0.202,0.186 0.215,0.5 0.029,0.702 -0.186,0.202 -0.501,0.215 -0.702,0.029 -0.512,-0.472 -0.929,-1.066 -1.214,-1.741 -0.274,-0.648 -0.427,-1.366 -0.427,-2.12 0,-1.383 0.511,-2.64 1.337,-3.553 0.838,-0.926 1.999,-1.499 3.282,-1.499 0.746,0 1.453,0.195 2.078,0.54 0.482,0.266 0.915,0.622 1.282,1.046 0.264,-0.21 0.556,-0.393 0.863,-0.536l0.027 -0.014c0.486,-0.224 1.01,-0.353 1.517,-0.353 0.335,0 0.641,0.057 0.908,0.161l0.029 0.01c0.35,0.142 0.63,0.365 0.825,0.649 0.195,0.286 0.301,0.627 0.301,1.001 0,0.275 -0.058,0.569 -0.181,0.872 -0.263,0.651 -0.785,1.235 -1.415,1.651 -0.631,0.415 -1.378,0.673 -2.091,0.673z"/>
   <path class="fil0" d="M82.742 28.628c-0.151,-0.229 -0.089,-0.537 0.14,-0.688 0.229,-0.152 0.537,-0.089 0.688,0.14l0.34 0.511c0.152,0.229 0.089,0.537 -0.14,0.688 -0.228,0.152 -0.537,0.089 -0.688,-0.14l-0.34 -0.511z"/>
   <path class="fil0" d="M80.254 32.066c-0.266,-0.071 -0.423,-0.344 -0.353,-0.61 0.071,-0.265 0.344,-0.423 0.61,-0.352l0.624 0.17c0.266,0.071 0.423,0.344 0.353,0.609 -0.071,0.265 -0.344,0.423 -0.61,0.352l-0.624 -0.169z"/>
   <path class="fil0" d="M81.095 30.098c-0.231,-0.148 -0.298,-0.456 -0.15,-0.686 0.148,-0.231 0.456,-0.298 0.687,-0.15l0.533 0.344c0.23,0.149 0.298,0.456 0.149,0.687 -0.148,0.231 -0.456,0.298 -0.686,0.15l-0.533 -0.345z"/>
   <path class="fil0" d="M80.365 34.116c-0.271,0.038 -0.522,-0.152 -0.56,-0.424 -0.037,-0.272 0.153,-0.523 0.424,-0.56l0.644 -0.089c0.272,-0.038 0.523,0.152 0.561,0.424 0.037,0.271 -0.153,0.522 -0.425,0.56l-0.644 0.089z"/>
   <path class="fil0" d="M81.022 36.004c-0.242,0.128 -0.543,0.034 -0.671,-0.208 -0.127,-0.243 -0.034,-0.544 0.208,-0.671l0.565 -0.3c0.242,-0.127 0.543,-0.034 0.671,0.208 0.127,0.243 0.034,0.544 -0.208,0.672l-0.565 0.299z"/>
   <path class="fil0" d="M87.31 28.097c0.151,-0.229 0.459,-0.292 0.688,-0.14 0.229,0.151 0.292,0.459 0.14,0.688l-0.34 0.511c-0.151,0.229 -0.459,0.292 -0.688,0.14 -0.229,-0.151 -0.292,-0.46 -0.14,-0.688l0.34 -0.511z"/>
   <path class="fil0" d="M92.915 29.001c0.23,-0.148 0.538,-0.081 0.686,0.15 0.149,0.23 0.081,0.538 -0.149,0.686l-3.54 2.288c-0.231,0.148 -0.539,0.081 -0.687,-0.15 -0.148,-0.23 -0.081,-0.538 0.15,-0.686l3.54 -2.288z"/>
   <path class="fil0" d="M90.234 34.869c0.252,0.107 0.37,0.399 0.262,0.652 -0.107,0.252 -0.399,0.37 -0.651,0.262l-0.591 -0.252c-0.252,-0.107 -0.37,-0.399 -0.263,-0.652 0.108,-0.252 0.4,-0.37 0.652,-0.262l0.591 0.252z"/>
   <path class="fil0" d="M91.031 28.333c0.066,-0.267 0.337,-0.428 0.603,-0.362 0.266,0.066 0.428,0.337 0.362,0.603l-0.148 0.583c-0.067,0.267 -0.337,0.428 -0.603,0.362 -0.267,-0.066 -0.428,-0.337 -0.362,-0.603l0.148 -0.583z"/>
   <path class="fil0" d="M89.09 29.146c-0.151,-0.229 -0.088,-0.537 0.141,-0.688 0.228,-0.152 0.537,-0.089 0.688,0.14l0.34 0.511c0.151,0.228 0.089,0.537 -0.14,0.688 -0.229,0.152 -0.537,0.089 -0.689,-0.14l-0.34 -0.511z"/>
   <path class="fil0" d="M93.622 31.114c0.263,0.079 0.41,0.357 0.331,0.619 -0.079,0.262 -0.357,0.41 -0.619,0.33l-0.617 -0.189c-0.262,-0.079 -0.41,-0.357 -0.331,-0.619 0.079,-0.262 0.357,-0.41 0.619,-0.33l0.617 0.189z"/>
   <path class="fil0" d="M91.557 32.904c-0.152,-0.228 -0.089,-0.537 0.14,-0.688 0.229,-0.152 0.537,-0.089 0.688,0.14l0.34 0.511c0.152,0.228 0.089,0.537 -0.14,0.688 -0.228,0.151 -0.537,0.089 -0.688,-0.14l-0.34 -0.511z"/>
   <path class="fil0" d="M90.029 33.572c-0.061,-0.268 0.106,-0.534 0.373,-0.596 0.268,-0.061 0.534,0.106 0.595,0.374l0.135 0.586c0.062,0.267 -0.106,0.533 -0.373,0.595 -0.267,0.061 -0.534,-0.106 -0.595,-0.374l-0.135 -0.585z"/>
   <path class="fil0" d="M88.379 30.845c-0.221,-0.161 -0.27,-0.472 -0.109,-0.693 0.161,-0.221 0.471,-0.27 0.693,-0.109 0.214,0.156 0.472,0.61 0.669,1.302 0.141,0.494 0.272,1.144 0.356,1.93 0.029,0.273 -0.169,0.518 -0.441,0.546 -0.273,0.029 -0.518,-0.168 -0.547,-0.441 -0.078,-0.719 -0.197,-1.312 -0.325,-1.763 -0.135,-0.473 -0.242,-0.734 -0.296,-0.772z"/>
   <path class="fil0" d="M86.589 37.037c-0.153,0.228 -0.462,0.288 -0.69,0.135 -0.228,-0.154 -0.288,-0.463 -0.134,-0.691 0.211,-0.312 0.39,-0.779 0.517,-1.348 0.127,-0.57 0.201,-1.242 0.201,-1.968 0,-1.084 -0.165,-2.054 -0.431,-2.746 -0.211,-0.55 -0.448,-0.89 -0.661,-0.89 -0.212,0 -0.449,0.341 -0.661,0.89 -0.265,0.692 -0.43,1.662 -0.43,2.746 0,0.678 0.064,1.308 0.176,1.852 0.113,0.55 0.275,1.012 0.466,1.344 0.138,0.237 0.057,0.542 -0.18,0.679 -0.238,0.138 -0.542,0.057 -0.679,-0.181 -0.244,-0.422 -0.444,-0.987 -0.579,-1.643 -0.128,-0.618 -0.2,-1.317 -0.2,-2.051 0,-1.199 0.191,-2.296 0.5,-3.1 0.364,-0.946 0.922,-1.532 1.587,-1.532 0.666,0 1.224,0.586 1.587,1.532 0.309,0.804 0.501,1.901 0.501,3.1 0,0.787 -0.084,1.534 -0.229,2.182 -0.155,0.695 -0.384,1.28 -0.661,1.69z"/>
   <path class="fil0" d="M72.917 25.302c0,-0.275 0.223,-0.498 0.498,-0.498 0.275,0 0.498,0.223 0.498,0.498l0 5.091c0,0.567 -0.233,1.085 -0.607,1.459 -0.374,0.374 -0.891,0.607 -1.459,0.607l-10.237 0c-0.275,0 -0.498,-0.223 -0.498,-0.498 0,-0.275 0.223,-0.498 0.498,-0.498l10.237 0c0.293,0 0.561,-0.121 0.755,-0.315 0.194,-0.194 0.315,-0.462 0.315,-0.755l0 -5.091z"/>
   <path class="fil0" d="M28.747 8.352c0,0.275 -0.223,0.498 -0.498,0.498 -0.275,0 -0.498,-0.223 -0.498,-0.498l0 -3.298c0,-0.567 0.233,-1.085 0.607,-1.459 0.374,-0.374 0.891,-0.607 1.459,-0.607l6.352 0c0.275,0 0.498,0.223 0.498,0.498 0,0.275 -0.223,0.498 -0.498,0.498l-6.352 0c-0.293,0 -0.561,0.121 -0.755,0.315 -0.194,0.194 -0.315,0.462 -0.315,0.755l0 3.298z"/>
  </g>
 </g>
</svg>
