<?xml version="1.0" encoding="UTF-8"?>
<!DOCTYPE svg PUBLIC "-//W3C//DTD SVG 1.1//EN" "http://www.w3.org/Graphics/SVG/1.1/DTD/svg11.dtd">
<!-- Creator: CorelDRAW 2018 (64-Bit) -->
<svg xmlns="http://www.w3.org/2000/svg" xml:space="preserve" width="60px" height="46px" version="1.1" style="shape-rendering:geometricPrecision; text-rendering:geometricPrecision; image-rendering:optimizeQuality; fill-rule:evenodd; clip-rule:evenodd"
viewBox="0 0 6.288 4.845"
 xmlns:xlink="http://www.w3.org/1999/xlink">
 <defs>
  <style type="text/css">
   <![CDATA[
    .fil0 {fill:#A3AEBA;fill-rule:nonzero}
   ]]>
  </style>
 </defs>
 <g id="Layer_x0020_1">
  <metadata id="CorelCorpID_0Corel-Layer"/>
  <g id="_2595468274736">
   <path class="fil0" d="M2.161 2.628c0,-0.029 0.024,-0.053 0.053,-0.053 0.029,0 0.053,0.024 0.053,0.053l0 2.146c0,0.029 -0.024,0.053 -0.053,0.053 -0.029,0 -0.053,-0.024 -0.053,-0.053l0 -2.146z"/>
   <path class="fil0" d="M1.732 3.565c-0.029,0 -0.052,-0.024 -0.052,-0.053 0,-0.029 0.023,-0.053 0.052,-0.053l0.161 0c0.029,0 0.053,0.024 0.053,0.053 0,0.029 -0.024,0.053 -0.053,0.053l-0.161 0z"/>
   <path class="fil0" d="M4.339 4.329c-0.02,0.021 -0.054,0.021 -0.074,0 -0.021,-0.02 -0.021,-0.054 0,-0.074l0.964 -0.964c0.02,-0.02 0.054,-0.02 0.074,0 0.021,0.021 0.021,0.054 0,0.075l-0.964 0.963z"/>
   <path class="fil0" d="M4.821 4.328c-0.02,0.021 -0.054,0.021 -0.074,0 -0.021,-0.02 -0.021,-0.053 0,-0.074l0.482 -0.482c0.02,-0.02 0.054,-0.02 0.074,0 0.021,0.021 0.021,0.054 0,0.075l-0.482 0.481z"/>
   <path class="fil0" d="M6.287 1.72c0.001,0.156 -0.063,0.298 -0.166,0.401 -0.102,0.103 -0.244,0.166 -0.401,0.166 -0.153,0 -0.278,-0.051 -0.374,-0.143 -0.055,-0.053 -0.1,-0.12 -0.135,-0.197 -0.028,0.069 -0.07,0.13 -0.122,0.181 -0.102,0.099 -0.243,0.159 -0.4,0.159l0 0c-0.157,0 -0.299,-0.063 -0.401,-0.166 -0.047,-0.047 -0.086,-0.102 -0.114,-0.162 -0.028,0.061 -0.067,0.115 -0.114,0.162 -0.102,0.103 -0.244,0.166 -0.4,0.166l-0.001 0c-0.157,0 -0.299,-0.063 -0.401,-0.166 -0.047,-0.047 -0.086,-0.102 -0.114,-0.162 -0.028,0.061 -0.067,0.115 -0.114,0.162 -0.102,0.103 -0.244,0.166 -0.401,0.166l-0.001 0c-0.156,0 -0.298,-0.063 -0.401,-0.166 -0.047,-0.047 -0.085,-0.102 -0.114,-0.162 -0.028,0.06 -0.066,0.115 -0.113,0.162 -0.103,0.102 -0.244,0.166 -0.401,0.166l-0.001 0c-0.156,0 -0.296,-0.058 -0.397,-0.155 -0.053,-0.052 -0.095,-0.113 -0.123,-0.183 -0.035,0.074 -0.081,0.139 -0.136,0.192 -0.097,0.091 -0.223,0.146 -0.374,0.146 -0.156,0 -0.298,-0.063 -0.401,-0.166 -0.103,-0.103 -0.167,-0.245 -0.167,-0.401 0,-0.008 0.002,-0.016 0.005,-0.023l0.545 -1.49c0.026,-0.071 0.058,-0.122 0.104,-0.156 0.048,-0.035 0.106,-0.051 0.183,-0.051l4.614 0c0.077,0 0.135,0.016 0.182,0.051 0.047,0.034 0.079,0.085 0.105,0.156l0.546 1.495c0.002,0.006 0.003,0.012 0.003,0.018zm-0.24 0.327c0.082,-0.082 0.133,-0.194 0.135,-0.319l-0.543 -1.485c-0.019,-0.052 -0.04,-0.087 -0.068,-0.108 -0.028,-0.021 -0.066,-0.03 -0.12,-0.03l-4.614 0c-0.054,0 -0.092,0.01 -0.12,0.03 -0.028,0.021 -0.05,0.056 -0.069,0.108l-0.543 1.485c0.003,0.125 0.054,0.237 0.136,0.319 0.083,0.083 0.199,0.135 0.327,0.135 0.123,0 0.224,-0.044 0.301,-0.117 0.085,-0.081 0.143,-0.198 0.169,-0.332 0.004,-0.026 0.026,-0.046 0.053,-0.046 0.029,0 0.052,0.023 0.052,0.052l0 0.001c0,0.127 0.05,0.237 0.131,0.316 0.082,0.079 0.196,0.126 0.324,0.126l0.001 0c0.127,0 0.243,-0.052 0.326,-0.135 0.084,-0.084 0.136,-0.199 0.136,-0.327l0 0 0.105 0 0 0c0,0.128 0.052,0.243 0.135,0.327 0.084,0.083 0.2,0.135 0.327,0.135l0.001 0c0.128,0 0.243,-0.052 0.327,-0.135 0.083,-0.084 0.135,-0.199 0.135,-0.327l0 0 0.105 0 0 0c0,0.128 0.052,0.243 0.136,0.327 0.083,0.083 0.199,0.135 0.327,0.135l0.001 0c0.127,0 0.242,-0.052 0.326,-0.135 0.084,-0.084 0.135,-0.199 0.135,-0.327l0 0 0.106 0 0 0c0,0.128 0.051,0.243 0.135,0.327 0.084,0.083 0.199,0.135 0.327,0.135l0 0c0.129,0 0.244,-0.049 0.326,-0.129 0.082,-0.08 0.131,-0.191 0.131,-0.318 0.001,-0.024 0.018,-0.046 0.043,-0.051 0.028,-0.006 0.056,0.013 0.061,0.041 0.03,0.146 0.086,0.264 0.169,0.343 0.076,0.073 0.177,0.114 0.301,0.114 0.128,0 0.243,-0.052 0.327,-0.135z"/>
   <path class="fil0" d="M5.676 2.628c0,-0.029 0.024,-0.053 0.053,-0.053 0.029,0 0.052,0.024 0.052,0.053l0 1.986c0,0.064 -0.026,0.122 -0.068,0.164 -0.041,0.041 -0.099,0.067 -0.163,0.067l-4.813 0c-0.063,0 -0.121,-0.026 -0.163,-0.067 -0.042,-0.043 -0.068,-0.1 -0.068,-0.164l0 -1.986c0,-0.029 0.024,-0.053 0.053,-0.053 0.029,0 0.053,0.024 0.053,0.053l0 1.986c0,0.035 0.014,0.066 0.036,0.089 0.023,0.023 0.055,0.037 0.089,0.037l4.813 0c0.035,0 0.066,-0.014 0.089,-0.037 0.023,-0.023 0.037,-0.054 0.037,-0.089l0 -1.986z"/>
   <path class="fil0" d="M2.183 0.088c0.002,-0.029 0.028,-0.05 0.057,-0.048 0.029,0.002 0.05,0.027 0.048,0.056l-0.128 1.706c-0.002,0.029 -0.027,0.05 -0.056,0.048 -0.029,-0.002 -0.051,-0.027 -0.049,-0.056l0.128 -1.706z"/>
   <path class="fil0" d="M3.999 0.096c-0.002,-0.029 0.019,-0.054 0.048,-0.056 0.029,-0.002 0.054,0.019 0.057,0.048l0.128 1.706c0.002,0.029 -0.02,0.054 -0.049,0.056 -0.029,0.002 -0.054,-0.019 -0.056,-0.048l-0.128 -1.706z"/>
   <path class="fil0" d="M4.768 0.076c-0.006,-0.029 0.012,-0.057 0.04,-0.063 0.028,-0.006 0.057,0.011 0.063,0.04l0.387 1.705c0.006,0.028 -0.011,0.057 -0.04,0.063 -0.028,0.006 -0.056,-0.011 -0.062,-0.04l-0.388 -1.705z"/>
   <path class="fil0" d="M1.413 0.08c0.007,-0.028 0.035,-0.046 0.063,-0.039 0.028,0.006 0.046,0.034 0.04,0.063l-0.387 1.705c-0.007,0.028 -0.035,0.046 -0.063,0.04 -0.029,-0.007 -0.046,-0.035 -0.04,-0.063l0.387 -1.706z"/>
   <path class="fil0" d="M3.091 0.058c0,-0.029 0.024,-0.053 0.053,-0.053 0.029,0 0.052,0.024 0.052,0.053l0 1.764c0,0.029 -0.023,0.052 -0.052,0.052 -0.029,0 -0.053,-0.023 -0.053,-0.052l0 -1.764z"/>
  </g>
 </g>
</svg>
