<?xml version="1.0" encoding="UTF-8"?>
<!DOCTYPE svg PUBLIC "-//W3C//DTD SVG 1.1//EN" "http://www.w3.org/Graphics/SVG/1.1/DTD/svg11.dtd">
<!-- Creator: CorelDRAW 2018 (64-Bit) -->
<svg xmlns="http://www.w3.org/2000/svg" xml:space="preserve" width="46px" height="31px" version="1.1" style="shape-rendering:geometricPrecision; text-rendering:geometricPrecision; image-rendering:optimizeQuality; fill-rule:evenodd; clip-rule:evenodd"
viewBox="0 0 2.623 1.767"
 xmlns:xlink="http://www.w3.org/1999/xlink">
 <defs>
  <style type="text/css">
   <![CDATA[
    .fil0 {fill:gray;fill-rule:nonzero}
   ]]>
  </style>
 </defs>
 <g id="Layer_x0020_1">
  <metadata id="CorelCorpID_0Corel-Layer"/>
  <g id="_2631680794800">
   <path class="fil0" d="M1.485 0.527c-0.016,0 -0.029,-0.013 -0.029,-0.029 0,-0.015 0.013,-0.028 0.029,-0.028l0.847 0c0.016,0 0.028,0.013 0.028,0.028 0,0.016 -0.012,0.029 -0.028,0.029l-0.847 0z"/>
   <path class="fil0" d="M1.485 0.912c-0.016,0 -0.029,-0.013 -0.029,-0.028 0,-0.016 0.013,-0.029 0.029,-0.029l0.847 0c0.016,0 0.028,0.013 0.028,0.029 0,0.015 -0.012,0.028 -0.028,0.028l-0.847 0z"/>
   <path class="fil0" d="M1.485 1.298c-0.016,0 -0.029,-0.013 -0.029,-0.029 0,-0.016 0.013,-0.028 0.029,-0.028l0.603 0c0.016,0 0.029,0.012 0.029,0.028 0,0.016 -0.013,0.029 -0.029,0.029l-0.603 0z"/>
   <path class="fil0" d="M0.325 0.389l0.884 0c0.017,0 0.033,0.007 0.044,0.018 0.012,0.011 0.019,0.027 0.019,0.044l0 0.865c0,0.018 -0.007,0.033 -0.019,0.044 -0.011,0.012 -0.026,0.019 -0.044,0.019l-0.884 0c-0.017,0 -0.032,-0.007 -0.043,-0.019 -0.012,-0.011 -0.019,-0.026 -0.019,-0.044l0 -0.865c0,-0.017 0.007,-0.033 0.019,-0.044 0.011,-0.011 0.026,-0.018 0.043,-0.018zm0.884 0.057l-0.884 0c-0.001,0 -0.002,0 -0.003,0.001 -0.001,0.001 -0.002,0.003 -0.002,0.004l0 0.865c0,0.002 0.001,0.003 0.002,0.004 0.001,0.001 0.002,0.002 0.003,0.002l0.884 0c0.002,0 0.003,-0.001 0.004,-0.002 0.001,-0.001 0.002,-0.002 0.002,-0.004l0 -0.865c0,-0.001 -0.001,-0.003 -0.002,-0.004 -0.001,-0.001 -0.002,-0.001 -0.004,-0.001z"/>
   <path class="fil0" d="M1.026 0.631l0 0c0,-0.017 -0.007,-0.032 -0.018,-0.043 -0.011,-0.01 -0.026,-0.017 -0.042,-0.017l0 0c-0.017,0 -0.032,0.007 -0.043,0.017 -0.011,0.011 -0.017,0.026 -0.017,0.043l0 0c0,0.017 0.007,0.032 0.017,0.042 0.011,0.011 0.026,0.018 0.043,0.018l0 0c0.016,0 0.031,-0.007 0.042,-0.018 0.011,-0.01 0.018,-0.025 0.018,-0.042zm0.057 0l0 0c0,0.032 -0.013,0.062 -0.035,0.083 -0.021,0.021 -0.05,0.034 -0.082,0.034l0 0c-0.033,0 -0.062,-0.013 -0.083,-0.034 -0.021,-0.022 -0.034,-0.051 -0.034,-0.083l0 0c0,-0.033 0.013,-0.062 0.034,-0.083 0.021,-0.021 0.051,-0.034 0.083,-0.034l0 0c0.032,0 0.061,0.013 0.083,0.034 0.021,0.021 0.034,0.051 0.034,0.083z"/>
   <polygon class="fil0" points="1.224,1.187 1.019,1.004 0.899,1.132 0.517,0.736 0.313,0.95 0.272,0.911 0.516,0.654 0.898,1.049 1.015,0.925 1.262,1.144 "/>
   <path class="fil0" d="M0.146 0l2.33 0c0.04,0 0.077,0.017 0.104,0.043 0.026,0.027 0.043,0.063 0.043,0.103l0 1.475c0,0.04 -0.017,0.077 -0.043,0.103 -0.027,0.027 -0.063,0.043 -0.104,0.043l-2.33 0c-0.04,0 -0.076,-0.016 -0.103,-0.043 -0.027,-0.026 -0.043,-0.063 -0.043,-0.103l0 -1.475c0,-0.04 0.016,-0.076 0.043,-0.103l0.002 -0.002c0.026,-0.025 0.062,-0.041 0.101,-0.041zm2.33 0.057l-2.33 0c-0.024,0 -0.045,0.01 -0.061,0.025l-0.002 0.001c-0.016,0.017 -0.026,0.039 -0.026,0.063l0 1.475c0,0.025 0.01,0.047 0.026,0.063 0.017,0.016 0.039,0.026 0.063,0.026l2.33 0c0.025,0 0.047,-0.01 0.063,-0.026 0.017,-0.016 0.027,-0.038 0.027,-0.063l0 -1.475c0,-0.024 -0.01,-0.046 -0.027,-0.063 -0.016,-0.016 -0.038,-0.026 -0.063,-0.026z"/>
  </g>
 </g>
</svg>
