<?xml version="1.0" encoding="UTF-8"?>
<!DOCTYPE svg PUBLIC "-//W3C//DTD SVG 1.1//EN" "http://www.w3.org/Graphics/SVG/1.1/DTD/svg11.dtd">
<!-- Creator: CorelDRAW 2018 (64-Bit) -->
<svg xmlns="http://www.w3.org/2000/svg" xml:space="preserve" width="35px" height="24px" version="1.1" style="shape-rendering:geometricPrecision; text-rendering:geometricPrecision; image-rendering:optimizeQuality; fill-rule:evenodd; clip-rule:evenodd"
viewBox="0 0 1.411 0.98"
 xmlns:xlink="http://www.w3.org/1999/xlink">
 <defs>
  <style type="text/css">
   <![CDATA[
    .fil0 {fill:#00F4FF}
    .fil2 {fill:#052337}
    .fil1 {fill:#052337;fill-rule:nonzero}
   ]]>
  </style>
 </defs>
 <g id="Layer_x0020_1">
  <metadata id="CorelCorpID_0Corel-Layer"/>
  <g id="_2594982064752">
   <polygon class="fil0" points="0.211,0.241 0.493,0.241 0.493,0.642 0.406,0.642 0.517,0.959 0.354,0.959 0.211,0.642 "/>
   <path class="fil1" d="M0.211 0.221l0.282 0c0.011,0 0.021,0.009 0.021,0.02l0 0.401c0,0.011 -0.01,0.02 -0.021,0.02l-0.059 0 0.102 0.291c0.004,0.01 -0.001,0.022 -0.012,0.025 -0.002,0.001 -0.005,0.002 -0.007,0.002l-0.163 0c-0.009,0 -0.016,-0.006 -0.019,-0.014l-0.143 -0.316c-0.001,-0.003 -0.002,-0.006 -0.002,-0.008l0 -0.401c0,-0.011 0.01,-0.02 0.021,-0.02zm0.262 0.04l-0.242 0 0 0.376 0.136 0.302 0.122 0 -0.102 -0.289c-0.001,-0.003 -0.002,-0.005 -0.002,-0.008 0,-0.012 0.009,-0.021 0.021,-0.021l0.067 0 0 -0.36z"/>
   <path class="fil1" d="M0.111 0.566c0.011,0 0.02,0.009 0.02,0.02 0,0.011 -0.009,0.02 -0.02,0.02l-0.039 0c-0.007,0 -0.013,-0.003 -0.017,-0.008 -0.017,-0.022 -0.031,-0.046 -0.04,-0.073 -0.01,-0.026 -0.015,-0.054 -0.015,-0.084 0,-0.029 0.005,-0.057 0.015,-0.083 0.009,-0.028 0.024,-0.053 0.042,-0.074 0.004,-0.005 0.009,-0.008 0.015,-0.008l0.039 0c0.011,0 0.02,0.009 0.02,0.021 0,0.011 -0.009,0.02 -0.02,0.02l-0.029 0c-0.012,0.016 -0.022,0.035 -0.029,0.054 -0.008,0.022 -0.012,0.046 -0.012,0.07 0,0.025 0.004,0.049 0.012,0.07 0.007,0.02 0.017,0.038 0.029,0.055l0.029 0z"/>
   <path class="fil1" d="M1.168 0.047l-0.654 0.209 0 0.371 0.654 0.208c0.01,-0.12 0.015,-0.257 0.015,-0.394 0,-0.137 -0.005,-0.273 -0.015,-0.394zm-0.681 0.175l0.692 -0.221c0.001,0 0.003,-0.001 0.005,-0.001 0.011,-0.001 0.021,0.007 0.022,0.019 0.012,0.128 0.018,0.275 0.018,0.422 0,0.147 -0.006,0.295 -0.018,0.423 0,0.002 0,0.003 -0.001,0.004 -0.003,0.011 -0.015,0.017 -0.025,0.014l-0.691 -0.22c-0.009,-0.002 -0.016,-0.011 -0.016,-0.02l0 -0.401c0,-0.009 0.005,-0.017 0.014,-0.019z"/>
   <path class="fil1" d="M1.345 0.606c-0.008,0.008 -0.021,0.008 -0.029,0.001 -0.008,-0.008 -0.008,-0.021 0,-0.029 0.017,-0.018 0.031,-0.04 0.04,-0.063 0.009,-0.023 0.014,-0.048 0.014,-0.074 0,-0.026 -0.005,-0.051 -0.014,-0.073 -0.009,-0.024 -0.023,-0.045 -0.04,-0.063 -0.008,-0.008 -0.008,-0.021 0,-0.029 0.008,-0.008 0.021,-0.008 0.029,0.001 0.021,0.021 0.038,0.047 0.049,0.076 0.011,0.027 0.017,0.057 0.017,0.088 0,0.032 -0.006,0.062 -0.017,0.089 -0.011,0.029 -0.028,0.054 -0.049,0.076z"/>
   <path class="fil2" d="M0.354 0.334c0.016,0 0.03,0.014 0.03,0.03 0,0.017 -0.014,0.03 -0.03,0.03 -0.017,0 -0.03,-0.013 -0.03,-0.03 0,-0.016 0.013,-0.03 0.03,-0.03z"/>
   <path class="fil0" d="M0.961 0.092c0.018,0.216 0.018,0.483 0,0.699l0.225 0.071c0.023,-0.254 0.023,-0.587 0,-0.842l-0.225 0.072z"/>
   <path class="fil1" d="M0.982 0.106c0.009,0.105 0.013,0.22 0.013,0.335 0,0.115 -0.004,0.231 -0.013,0.335l0.186 0.059c0.01,-0.12 0.015,-0.257 0.015,-0.394 0,-0.137 -0.005,-0.273 -0.015,-0.394l-0.186 0.059zm-0.028 0.335c0,-0.12 -0.005,-0.24 -0.014,-0.347 0,-0.01 0.005,-0.018 0.015,-0.021l0.224 -0.072c0.001,0 0.003,-0.001 0.005,-0.001 0.011,-0.001 0.021,0.007 0.022,0.019 0.012,0.128 0.018,0.275 0.018,0.422 0,0.147 -0.006,0.295 -0.018,0.423 0,0.002 0,0.003 -0.001,0.004 -0.003,0.011 -0.015,0.017 -0.025,0.014l-0.224 -0.072c-0.01,-0.002 -0.017,-0.011 -0.016,-0.021 0.009,-0.107 0.014,-0.228 0.014,-0.348z"/>
  </g>
 </g>
</svg>
