<?xml version="1.0" encoding="UTF-8"?>
<!DOCTYPE svg PUBLIC "-//W3C//DTD SVG 1.1//EN" "http://www.w3.org/Graphics/SVG/1.1/DTD/svg11.dtd">
<!-- Creator: CorelDRAW 2018 (64-Bit) -->
<svg xmlns="http://www.w3.org/2000/svg" xml:space="preserve" width="12px" height="15px" version="1.1" style="shape-rendering:geometricPrecision; text-rendering:geometricPrecision; image-rendering:optimizeQuality; fill-rule:evenodd; clip-rule:evenodd"
viewBox="0 0 0.235 0.289"
 xmlns:xlink="http://www.w3.org/1999/xlink">
 <defs>
  <style type="text/css">
   <![CDATA[
    .fil1 {fill:#00F4FF}
    .fil0 {fill:#052337;fill-rule:nonzero}
   ]]>
  </style>
 </defs>
 <g id="Layer_x0020_1">
  <metadata id="CorelCorpID_0Corel-Layer"/>
  <g id="_2630981550784">
   <path class="fil0" d="M0.04 0.166c0.008,-0.003 0.02,0.001 0.03,0.004 0.003,0 0.006,0.001 0.008,0.002 0.012,0.003 0.026,0.004 0.039,0.004 0.014,0 0.028,-0.001 0.04,-0.004 0.001,-0.001 0.005,-0.002 0.008,-0.002 0.01,-0.003 0.021,-0.007 0.03,-0.004 0.006,0.001 0.016,0.007 0.024,0.017 0.005,0.007 0.01,0.016 0.011,0.026l0.005 0.06 0 0.001c0,0.005 -0.002,0.01 -0.006,0.013 -0.003,0.003 -0.007,0.005 -0.011,0.005 -0.066,0.002 -0.133,0 -0.199,0l-0.002 0c-0.004,0 -0.009,-0.002 -0.012,-0.005 -0.003,-0.003 -0.005,-0.008 -0.005,-0.013 0,-0.019 0.004,-0.042 0.005,-0.061 0.001,-0.01 0.005,-0.019 0.011,-0.026 0.007,-0.01 0.018,-0.016 0.024,-0.017zm0.025 0.022c-0.008,-0.002 -0.017,-0.005 -0.02,-0.004 -0.004,0.001 -0.009,0.004 -0.014,0.011 -0.004,0.004 -0.006,0.009 -0.007,0.016l-0.005 0.058 0.197 0 -0.005 -0.058c-0.001,-0.007 -0.004,-0.012 -0.007,-0.016 -0.005,-0.007 -0.011,-0.01 -0.014,-0.011 -0.003,-0.001 -0.012,0.002 -0.02,0.004 -0.003,0.001 -0.005,0.001 -0.009,0.002 -0.014,0.003 -0.029,0.005 -0.044,0.005 -0.015,0 -0.03,-0.002 -0.043,-0.005 -0.004,-0.001 -0.006,-0.001 -0.009,-0.002z"/>
   <path class="fil0" d="M0.117 0c0.023,0 0.043,0.009 0.058,0.024 0.015,0.015 0.024,0.035 0.024,0.058 0,0.022 -0.009,0.043 -0.024,0.058l-0.001 0c-0.014,0.015 -0.035,0.024 -0.057,0.024 -0.023,0 -0.043,-0.009 -0.058,-0.024 -0.015,-0.015 -0.024,-0.036 -0.024,-0.058 0,-0.023 0.009,-0.043 0.024,-0.058 0.015,-0.015 0.035,-0.024 0.058,-0.024zm0.044 0.037c-0.011,-0.011 -0.027,-0.018 -0.044,-0.018 -0.017,0 -0.033,0.007 -0.044,0.018 -0.012,0.012 -0.019,0.028 -0.019,0.045 0,0.017 0.007,0.033 0.019,0.044 0.011,0.012 0.027,0.019 0.044,0.019 0.017,0 0.033,-0.007 0.044,-0.018l0 -0.001c0.012,-0.011 0.019,-0.027 0.019,-0.044 0,-0.017 -0.007,-0.033 -0.019,-0.045z"/>
   <path class="fil1" d="M0.161 0.126c0.012,-0.011 0.019,-0.027 0.019,-0.044 0,-0.017 -0.007,-0.033 -0.019,-0.045 -0.011,-0.011 -0.027,-0.018 -0.044,-0.018 -0.017,0 -0.033,0.007 -0.044,0.018 -0.012,0.012 -0.019,0.028 -0.019,0.045 0,0.017 0.007,0.033 0.019,0.044 0.011,0.012 0.027,0.019 0.044,0.019 0.017,0 0.033,-0.007 0.044,-0.018l0 -0.001z"/>
   <path class="fil1" d="M0.19 0.184c-0.003,-0.001 -0.012,0.002 -0.02,0.004 -0.003,0.001 -0.005,0.001 -0.009,0.002 -0.014,0.003 -0.029,0.005 -0.044,0.005 -0.015,0 -0.03,-0.002 -0.043,-0.005 -0.004,-0.001 -0.006,-0.001 -0.009,-0.002 -0.008,-0.002 -0.017,-0.005 -0.02,-0.004 -0.004,0.001 -0.009,0.004 -0.014,0.011 -0.004,0.004 -0.006,0.009 -0.007,0.016l-0.005 0.058 0.197 0 -0.005 -0.058c-0.001,-0.007 -0.004,-0.012 -0.007,-0.016 -0.005,-0.007 -0.011,-0.01 -0.014,-0.011z"/>
  </g>
 </g>
</svg>
