<?xml version="1.0" encoding="UTF-8"?>
<!DOCTYPE svg PUBLIC "-//W3C//DTD SVG 1.1//EN" "http://www.w3.org/Graphics/SVG/1.1/DTD/svg11.dtd">
<!-- Creator: CorelDRAW 2018 (64-Bit) -->
<svg xmlns="http://www.w3.org/2000/svg" xml:space="preserve" width="21px" height="17px" version="1.1" style="shape-rendering:geometricPrecision; text-rendering:geometricPrecision; image-rendering:optimizeQuality; fill-rule:evenodd; clip-rule:evenodd"
viewBox="0 0 0.313 0.249"
 xmlns:xlink="http://www.w3.org/1999/xlink">
 <defs>
  <style type="text/css">
   <![CDATA[
    .fil0 {fill:gray;fill-rule:nonzero}
   ]]>
  </style>
 </defs>
 <g id="Layer_x0020_1">
  <metadata id="CorelCorpID_0Corel-Layer"/>
  <g id="_2595075722640">
   <path class="fil0" d="M0.007 0.249c-0.004,0 -0.007,-0.003 -0.007,-0.007 0,-0.005 0.003,-0.008 0.007,-0.008l0.298 0c0.004,0 0.008,0.003 0.008,0.008 0,0.004 -0.004,0.007 -0.008,0.007l-0.298 0z"/>
   <path class="fil0" d="M0.024 0.11l0.039 0c0.005,0 0.008,0.004 0.008,0.008l0 0.123c0,0.004 -0.003,0.008 -0.008,0.008l-0.039 0c-0.004,0 -0.008,-0.004 -0.008,-0.008l0 -0.123c0,-0.004 0.004,-0.008 0.008,-0.008zm0.032 0.015l-0.025 0 0 0.109 0.025 0 0 -0.109z"/>
   <path class="fil0" d="M0.099 0l0.04 0c0.004,0 0.007,0.003 0.007,0.007l0 0.234c0,0.004 -0.003,0.008 -0.007,0.008l-0.04 0c-0.004,0 -0.008,-0.004 -0.008,-0.008l0 -0.234c0,-0.004 0.004,-0.007 0.008,-0.007zm0.032 0.015l-0.025 0 0 0.219 0.025 0 0 -0.219z"/>
   <path class="fil0" d="M0.174 0.07l0.04 0c0.004,0 0.007,0.003 0.007,0.007l0 0.164c0,0.004 -0.003,0.008 -0.007,0.008l-0.04 0c-0.004,0 -0.007,-0.004 -0.007,-0.008l0 -0.164c0,-0.004 0.003,-0.007 0.007,-0.007zm0.032 0.015l-0.024 0 0 0.149 0.024 0 0 -0.149z"/>
   <path class="fil0" d="M0.249 0.016l0.04 0c0.004,0 0.007,0.003 0.007,0.007l0 0.218c0,0.004 -0.003,0.008 -0.007,0.008l-0.04 0c-0.004,0 -0.007,-0.004 -0.007,-0.008l0 -0.218c0,-0.004 0.003,-0.007 0.007,-0.007zm0.032 0.015l-0.024 0 0 0.203 0.024 0 0 -0.203z"/>
  </g>
 </g>
</svg>
