<?xml version="1.0" encoding="UTF-8"?>
<!DOCTYPE svg PUBLIC "-//W3C//DTD SVG 1.1//EN" "http://www.w3.org/Graphics/SVG/1.1/DTD/svg11.dtd">
<!-- Creator: CorelDRAW 2018 (64-Bit) -->
<svg xmlns="http://www.w3.org/2000/svg" xml:space="preserve" width="21px" height="17px" version="1.1" style="shape-rendering:geometricPrecision; text-rendering:geometricPrecision; image-rendering:optimizeQuality; fill-rule:evenodd; clip-rule:evenodd"
viewBox="0 0 0.313 0.249"
 xmlns:xlink="http://www.w3.org/1999/xlink">
 <defs>
  <style type="text/css">
   <![CDATA[
    .fil0 {fill:#00D4E3;fill-rule:nonzero}
   ]]>
  </style>
 </defs>
 <g id="Layer_x0020_1">
  <metadata id="CorelCorpID_0Corel-Layer"/>
  <path class="fil0" d="M0.007 0.249c-0.004,0 -0.007,-0.003 -0.007,-0.007 0,-0.005 0.003,-0.008 0.007,-0.008l0.009 0 0 -0.116c0,-0.004 0.004,-0.008 0.008,-0.008l0.039 0c0.005,0 0.008,0.004 0.008,0.008l0 0.116 0.02 0 0 -0.227c0,-0.004 0.004,-0.007 0.008,-0.007l0.04 0c0.004,0 0.007,0.003 0.007,0.007l0 0.227 0.021 0 0 -0.157c0,-0.004 0.003,-0.007 0.007,-0.007l0.04 0c0.004,0 0.007,0.003 0.007,0.007l0 0.157 0.021 0 0 -0.211c0,-0.004 0.003,-0.007 0.007,-0.007l0.04 0c0.004,0 0.007,0.003 0.007,0.007l0 0.211 0.009 0c0.004,0 0.008,0.003 0.008,0.008 0,0.004 -0.004,0.007 -0.008,0.007l-0.298 0z"/>
 </g>
</svg>
