<?xml version="1.0" encoding="UTF-8"?>
<!DOCTYPE svg PUBLIC "-//W3C//DTD SVG 1.1//EN" "http://www.w3.org/Graphics/SVG/1.1/DTD/svg11.dtd">
<!-- Creator: CorelDRAW 2018 (64-Bit) -->
<svg xmlns="http://www.w3.org/2000/svg" xml:space="preserve" width="24px" height="19px" version="1.1" style="shape-rendering:geometricPrecision; text-rendering:geometricPrecision; image-rendering:optimizeQuality; fill-rule:evenodd; clip-rule:evenodd"
viewBox="0 0 0.499 0.387"
 xmlns:xlink="http://www.w3.org/1999/xlink">
 <defs>
  <style type="text/css">
   <![CDATA[
    .str1 {stroke:white;stroke-width:0.02;stroke-linecap:round;stroke-linejoin:round;stroke-miterlimit:2.61313}
    .str0 {stroke:white;stroke-width:0.02;stroke-linecap:round;stroke-linejoin:round;stroke-miterlimit:10}
    .fil1 {fill:none}
    .fil0 {fill:none;fill-rule:nonzero}
   ]]>
  </style>
 </defs>
 <g id="Layer_x0020_1">
  <metadata id="CorelCorpID_0Corel-Layer"/>
  <g id="_2201360924000">
   <line class="fil0 str0" x1="0.178" y1="0.208" x2="0.178" y2= "0.376" />
   <line class="fil0 str0" x1="0.14" y1="0.278" x2="0.153" y2= "0.278" />
   <line class="fil0 str0" x1="0.339" y1="0.339" x2="0.414" y2= "0.264" />
   <line class="fil0 str0" x1="0.377" y1="0.339" x2="0.414" y2= "0.301" />
   <path class="fil0 str0" d="M0.489 0.139c0,0.022 -0.018,0.04 -0.04,0.04 -0.022,0 -0.035,-0.015 -0.04,-0.039 0,0.023 -0.017,0.039 -0.04,0.039 -0.022,0 -0.04,-0.018 -0.039,-0.04 0,0.022 -0.018,0.04 -0.04,0.04 -0.022,0 -0.04,-0.018 -0.04,-0.04 0,0.022 -0.018,0.04 -0.04,0.04 -0.022,0 -0.04,-0.018 -0.04,-0.04 0,0.022 -0.018,0.04 -0.04,0.04 -0.022,0 -0.04,-0.016 -0.04,-0.038 -0.004,0.022 -0.018,0.038 -0.04,0.038 -0.022,0 -0.04,-0.018 -0.04,-0.04l0.042 -0.116c0.004,-0.009 0.009,-0.013 0.019,-0.013l0.357 0c0.011,0 0.015,0.004 0.019,0.013l0.042 0.116z"/>
   <path class="fil1 str1" d="M0.45 0.204l0 0.16c0,0.007 -0.006,0.013 -0.014,0.013l-0.373 0c-0.008,0 -0.014,-0.006 -0.014,-0.013l0 -0.16"/>
   <line class="fil0 str0" x1="0.179" y1="0.013" x2="0.169" y2= "0.145" />
   <line class="fil0 str0" x1="0.32" y1="0.013" x2="0.33" y2= "0.145" />
   <line class="fil0 str0" x1="0.38" y1="0.011" x2="0.41" y2= "0.143" />
   <line class="fil0 str0" x1="0.119" y1="0.013" x2="0.089" y2= "0.145" />
   <line class="fil0 str0" x1="0.25" y1="0.01" x2="0.25" y2= "0.147" />
  </g>
 </g>
</svg>
