<?xml version="1.0" encoding="UTF-8"?>
<!DOCTYPE svg PUBLIC "-//W3C//DTD SVG 1.1//EN" "http://www.w3.org/Graphics/SVG/1.1/DTD/svg11.dtd">
<!-- Creator: CorelDRAW 2018 (64-Bit) -->
<svg xmlns="http://www.w3.org/2000/svg" xml:space="preserve" width="459px" height="320px" version="1.1" style="shape-rendering:geometricPrecision; text-rendering:geometricPrecision; image-rendering:optimizeQuality; fill-rule:evenodd; clip-rule:evenodd"
viewBox="0 0 229.43 160.03"
 xmlns:xlink="http://www.w3.org/1999/xlink">
 <defs>
  <style type="text/css">
   <![CDATA[
    .fil0 {fill:white;fill-opacity:0.101961}
   ]]>
  </style>
 </defs>
 <g id="Layer_x0020_1">
  <metadata id="CorelCorpID_0Corel-Layer"/>
  <path class="fil0" d="M136.35 127.14l30.72 -17.74 24.11 -13.92 18.99 10.96 -92.83 53.59 0 -21.92 19.01 -10.97zm-136.35 -127.14l18.98 0 0 29.02 0 27.84 -18.98 10.96 0 -67.82zm30.18 0l38 0 46.94 27.1 0 108.47 -19 -10.97 0 -86.53 -65.94 -38.07zm42.44 0l38.01 0 5.61 3.24 5.61 -3.24 38 0 -43.61 25.18 -43.62 -25.18zm42.4 0l0.12 0 0 0.07 -0.12 -0.07zm2.31 0l0.13 0 -0.13 0.07 0 -0.07zm46.96 0l38.01 0 -65.95 38.07 0 86.54 -19.01 10.97 0 -108.48 46.95 -27.1zm49.19 0l15.95 0 0 66.07 -15.95 -9.21 0 -56.86zm15.95 68.6l0 26.72 -17.07 9.85 -18.98 -10.96 -10.32 -5.96 -33.64 -19.42 0 0 -10.88 -6.28 0 -21.94 73.84 42.63 1.1 -0.63 0 -1.27 -73.84 -42.63 19 -10.97 18.93 10.92 0 0 51.86 29.94zm-209.34 14.64l-1.11 -0.64 0 -1.26 73.85 -42.63 -19.01 -10.98 -10.87 6.28 0 0 -33.64 19.43 -10.33 5.95 -18.98 10.96 0 21.95 0 1.26 1.1 0.64 19 10.97 54.9 -31.69 0 0 18.92 -10.93 0 -21.94 -73.83 42.63zm95.03 76.79l-92.82 -53.59 18.98 -10.96 54.84 31.66 19 10.97 0 21.92z"/>
 </g>
</svg>
