<?xml version="1.0" encoding="UTF-8"?>
<!DOCTYPE svg PUBLIC "-//W3C//DTD SVG 1.1//EN" "http://www.w3.org/Graphics/SVG/1.1/DTD/svg11.dtd">
<!-- Creator: CorelDRAW 2018 (64-Bit) -->
<svg xmlns="http://www.w3.org/2000/svg" xml:space="preserve" width="46px" height="46px" version="1.1" style="shape-rendering:geometricPrecision; text-rendering:geometricPrecision; image-rendering:optimizeQuality; fill-rule:evenodd; clip-rule:evenodd"
viewBox="0 0 1.98 1.98"
 xmlns:xlink="http://www.w3.org/1999/xlink">
 <defs>
  <style type="text/css">
   <![CDATA[
    .fil0 {fill:#052337}
    .fil1 {fill:#00F4FF;fill-rule:nonzero}
   ]]>
  </style>
 </defs>
 <g id="Layer_x0020_1">
  <metadata id="CorelCorpID_0Corel-Layer"/>
  <g id="_2418503788432">
   <circle class="fil0" cx="0.99" cy="0.99" r="0.99"/>
   <path class="fil1" d="M0.499 0.616l0.982 0c0.035,0 0.067,0.014 0.09,0.037l0.001 0.001c0.023,0.023 0.037,0.055 0.037,0.089l0 0.691c0,0.035 -0.015,0.067 -0.038,0.091 -0.023,0.023 -0.055,0.037 -0.09,0.037l-0.982 0c-0.035,0 -0.067,-0.014 -0.09,-0.037 -0.023,-0.023 -0.037,-0.055 -0.037,-0.091l0 -0.691c0,-0.035 0.014,-0.067 0.037,-0.09 0.023,-0.023 0.055,-0.037 0.09,-0.037zm0.982 0.043l-0.982 0c-0.023,0 -0.044,0.009 -0.059,0.025 -0.016,0.015 -0.025,0.036 -0.025,0.059l0 0.691c0,0.024 0.009,0.045 0.025,0.06 0.015,0.015 0.036,0.025 0.059,0.025l0.982 0c0.023,0 0.044,-0.01 0.059,-0.025 0.016,-0.015 0.025,-0.036 0.025,-0.06l0 -0.691c0,-0.023 -0.009,-0.043 -0.023,-0.058l-0.002 -0.001c-0.015,-0.016 -0.036,-0.025 -0.059,-0.025z"/>
   <path class="fil1" d="M0.396 0.899c-0.011,-0.004 -0.016,-0.017 -0.012,-0.028 0.004,-0.011 0.017,-0.017 0.028,-0.012l0.457 0.177 0.02 0.008c0.03,0.012 0.057,0.023 0.101,0.023 0.044,0 0.071,-0.011 0.101,-0.023l0.02 -0.008 0.457 -0.177c0.011,-0.005 0.024,0.001 0.028,0.012 0.004,0.011 -0.001,0.024 -0.012,0.028l-0.457 0.177 -0.02 0.008c-0.034,0.014 -0.065,0.026 -0.117,0.026 -0.052,0 -0.083,-0.012 -0.117,-0.026l-0.02 -0.008 -0.457 -0.177z"/>
   <path class="fil1" d="M1.1 1.061c0,-0.011 0.009,-0.021 0.021,-0.021 0.012,0 0.022,0.01 0.022,0.021l0 0.168c0,0.012 -0.01,0.022 -0.022,0.022l-0.262 0c-0.012,0 -0.022,-0.01 -0.022,-0.022l0 -0.168c0,-0.011 0.01,-0.021 0.022,-0.021 0.012,0 0.021,0.01 0.021,0.021l0 0.147 0.22 0 0 -0.147z"/>
   <path class="fil1" d="M0.751 0.567c0,0.012 -0.01,0.022 -0.022,0.022 -0.012,0 -0.022,-0.01 -0.022,-0.022 0,-0.041 0.017,-0.078 0.044,-0.105 0.027,-0.027 0.065,-0.044 0.106,-0.044l0.266 0c0.041,0 0.079,0.017 0.106,0.044 0.027,0.027 0.044,0.064 0.044,0.105 0,0.012 -0.01,0.022 -0.022,0.022 -0.012,0 -0.022,-0.01 -0.022,-0.022 0,-0.029 -0.012,-0.055 -0.031,-0.074 -0.019,-0.02 -0.046,-0.032 -0.075,-0.032l-0.266 0c-0.029,0 -0.056,0.012 -0.075,0.032 -0.019,0.019 -0.031,0.045 -0.031,0.074z"/>
  </g>
 </g>
</svg>
