<?xml version="1.0" encoding="UTF-8"?>
<!DOCTYPE svg PUBLIC "-//W3C//DTD SVG 1.1//EN" "http://www.w3.org/Graphics/SVG/1.1/DTD/svg11.dtd">
<!-- Creator: CorelDRAW 2018 (64-Bit) -->
<svg xmlns="http://www.w3.org/2000/svg" xml:space="preserve" width="46px" height="46px" version="1.1" style="shape-rendering:geometricPrecision; text-rendering:geometricPrecision; image-rendering:optimizeQuality; fill-rule:evenodd; clip-rule:evenodd"
viewBox="0 0 1.98 1.98"
 xmlns:xlink="http://www.w3.org/1999/xlink">
 <defs>
  <style type="text/css">
   <![CDATA[
    .fil0 {fill:#052337}
    .fil1 {fill:#00F4FF;fill-rule:nonzero}
   ]]>
  </style>
 </defs>
 <g id="Layer_x0020_1">
  <metadata id="CorelCorpID_0Corel-Layer"/>
  <g id="_2418547201680">
   <circle class="fil0" cx="0.99" cy="0.99" r="0.99"/>
   <path class="fil1" d="M1.63 0.839l-0.562 0.171c-0.022,0.007 -0.05,0.01 -0.078,0.01 -0.028,0 -0.056,-0.003 -0.077,-0.01l-0.563 -0.171c-0.043,-0.012 -0.043,-0.034 0,-0.047l0.563 -0.17c0.021,-0.007 0.049,-0.01 0.077,-0.01 0.028,0 0.056,0.003 0.078,0.01l0.562 0.17c0.043,0.013 0.043,0.035 0,0.047zm-0.229 0.408c0,0.018 -0.009,0.035 -0.025,0.045 -0.043,0.028 -0.153,0.076 -0.386,0.076 -0.233,0 -0.342,-0.048 -0.386,-0.076 -0.015,-0.01 -0.025,-0.027 -0.025,-0.045l0 -0.281 0.357 0.111c0.035,0.011 0.073,0.011 0.108,0l0.357 -0.111 0 0.281zm-1.046 0.035l0 0c-0.018,0 -0.032,-0.014 -0.032,-0.032l0 -0.027c0,-0.006 0.001,-0.011 0.004,-0.016l0.028 -0.049 0.028 0.049c0.003,0.005 0.004,0.01 0.004,0.016l0 0.027c0,0.018 -0.014,0.032 -0.032,0.032zm1.291 -0.541l-0.563 -0.171c-0.025,-0.007 -0.058,-0.012 -0.093,-0.012 -0.034,0 -0.067,0.005 -0.093,0.012l-0.563 0.171c-0.061,0.019 -0.07,0.055 -0.07,0.075 0,0.019 0.009,0.054 0.064,0.073l0 0.208 -0.055 0.096c-0.002,0.005 -0.004,0.01 -0.004,0.016l0 0.058c0,0.038 0.031,0.069 0.068,0.069l0.036 0c0.037,0 0.068,-0.031 0.068,-0.069l0 -0.058c0,-0.006 -0.002,-0.011 -0.004,-0.016l-0.055 -0.096 0 -0.192 0.144 0.044 0 0.324c0,0.013 0.004,0.025 0.013,0.035l0 0c0.01,0.012 0.109,0.114 0.451,0.114 0.342,0 0.441,-0.102 0.451,-0.114l0 0c0.009,-0.01 0.013,-0.022 0.013,-0.035l0 -0.324 0.192 -0.058c0.061,-0.019 0.07,-0.055 0.07,-0.075 0,-0.02 -0.009,-0.056 -0.07,-0.075z"/>
  </g>
 </g>
</svg>
