<?xml version="1.0" encoding="UTF-8"?>
<!DOCTYPE svg PUBLIC "-//W3C//DTD SVG 1.1//EN" "http://www.w3.org/Graphics/SVG/1.1/DTD/svg11.dtd">
<!-- Creator: CorelDRAW 2018 (64-Bit) -->
<svg xmlns="http://www.w3.org/2000/svg" xml:space="preserve" width="19px" height="27px" version="1.1" style="shape-rendering:geometricPrecision; text-rendering:geometricPrecision; image-rendering:optimizeQuality; fill-rule:evenodd; clip-rule:evenodd"
viewBox="0 0 0.991 1.38"
 xmlns:xlink="http://www.w3.org/1999/xlink">
 <defs>
  <style type="text/css">
   <![CDATA[
    .fil0 {fill:gray;fill-rule:nonzero}
   ]]>
  </style>
 </defs>
 <g id="Layer_x0020_1">
  <metadata id="CorelCorpID_0Corel-Layer"/>
  <path class="fil0" d="M0.473 1.367c-0.07,-0.13 -0.151,-0.245 -0.227,-0.352l-0.001 -0.001c-0.132,-0.187 -0.245,-0.347 -0.245,-0.519 0,-0.136 0.055,-0.26 0.145,-0.35 0.09,-0.09 0.214,-0.145 0.35,-0.145 0.137,0 0.261,0.055 0.351,0.145 0.089,0.09 0.145,0.214 0.145,0.35 0,0.173 -0.114,0.333 -0.247,0.52l-0.001 0.002c-0.075,0.105 -0.156,0.22 -0.225,0.35 -0.007,0.012 -0.022,0.017 -0.035,0.01 -0.004,-0.002 -0.008,-0.006 -0.01,-0.01zm-0.185 -0.381c0.068,0.096 0.142,0.2 0.207,0.316 0.066,-0.115 0.139,-0.219 0.207,-0.315l0.001 -0.001c0.128,-0.18 0.237,-0.334 0.237,-0.491 0,-0.122 -0.05,-0.233 -0.13,-0.314 -0.081,-0.08 -0.192,-0.13 -0.315,-0.13 -0.122,0 -0.233,0.05 -0.314,0.13 -0.08,0.081 -0.13,0.192 -0.13,0.314 0,0.156 0.109,0.31 0.236,0.49l0.001 0.001zm0.207 -0.8c0.086,0 0.163,0.035 0.219,0.091 0.056,0.056 0.091,0.133 0.091,0.218 0,0.086 -0.035,0.163 -0.091,0.219 -0.056,0.056 -0.133,0.091 -0.219,0.091 -0.085,0 -0.162,-0.035 -0.218,-0.091 -0.056,-0.056 -0.091,-0.133 -0.091,-0.219 0,-0.085 0.035,-0.162 0.091,-0.218 0.056,-0.056 0.133,-0.091 0.218,-0.091zm0.183 0.127c-0.047,-0.047 -0.111,-0.076 -0.183,-0.076 -0.071,0 -0.135,0.029 -0.182,0.076 -0.047,0.047 -0.076,0.111 -0.076,0.182 0,0.072 0.029,0.136 0.076,0.183 0.047,0.047 0.111,0.076 0.182,0.076 0.072,0 0.136,-0.029 0.183,-0.076 0.047,-0.047 0.076,-0.111 0.076,-0.183 0,-0.071 -0.029,-0.135 -0.076,-0.182z"/>
 </g>
</svg>
