<?xml version="1.0" encoding="UTF-8"?>
<!DOCTYPE svg PUBLIC "-//W3C//DTD SVG 1.1//EN" "http://www.w3.org/Graphics/SVG/1.1/DTD/svg11.dtd">
<!-- Creator: CorelDRAW 2018 (64-Bit) -->
<svg xmlns="http://www.w3.org/2000/svg" xml:space="preserve" width="46px" height="46px" version="1.1" style="shape-rendering:geometricPrecision; text-rendering:geometricPrecision; image-rendering:optimizeQuality; fill-rule:evenodd; clip-rule:evenodd"
viewBox="0 0 7.814 7.814"
 xmlns:xlink="http://www.w3.org/1999/xlink">
 <defs>
  <style type="text/css">
   <![CDATA[
    .fil0 {fill:#052337}
    .fil1 {fill:#00F4FF;fill-rule:nonzero}
   ]]>
  </style>
 </defs>
 <g id="Layer_x0020_1">
  <metadata id="CorelCorpID_0Corel-Layer"/>
  <circle class="fil0" cx="3.907" cy="3.907" r="3.907"/>
  <path class="fil1" d="M2.646 4.013c0.12,-0.031 0.302,0.02 0.461,0.065 0.051,0.015 0.099,0.029 0.133,0.037 0.207,0.049 0.436,0.074 0.667,0.074 0.231,0 0.461,-0.025 0.667,-0.074 0.034,-0.008 0.083,-0.022 0.133,-0.037 0.16,-0.045 0.341,-0.096 0.461,-0.065 0.089,0.024 0.243,0.116 0.359,0.262 0.081,0.103 0.146,0.235 0.159,0.391 0.029,0.329 0.07,0.678 0.087,1.006 0,0.061 -0.027,0.117 -0.068,0.157 -0.04,0.039 -0.094,0.065 -0.151,0.07l-0.021 0.001 -3.251 0 -0.021 -0.001c-0.058,-0.005 -0.112,-0.031 -0.151,-0.07 -0.042,-0.04 -0.068,-0.096 -0.068,-0.157l0.086 -1.006c0.014,-0.156 0.078,-0.288 0.16,-0.391 0.115,-0.146 0.269,-0.238 0.358,-0.262zm0.415 0.23c-0.139,-0.04 -0.297,-0.085 -0.372,-0.065 -0.063,0.017 -0.176,0.087 -0.267,0.202 -0.063,0.081 -0.113,0.182 -0.123,0.3l-0.086 0.992c0,0.013 0.006,0.026 0.016,0.036 0.012,0.012 0.029,0.019 0.046,0.021 0.986,0.039 2.278,0.04 3.264,0 0.018,-0.002 0.034,-0.009 0.046,-0.021 0.01,-0.01 0.017,-0.023 0.017,-0.036 0.006,-0.254 -0.062,-0.717 -0.086,-0.992 -0.011,-0.118 -0.061,-0.219 -0.124,-0.3 -0.09,-0.115 -0.203,-0.185 -0.267,-0.202 -0.075,-0.02 -0.233,0.025 -0.372,0.065 -0.046,0.013 -0.091,0.026 -0.14,0.037 -0.221,0.053 -0.464,0.08 -0.706,0.08 -0.241,0 -0.484,-0.027 -0.706,-0.08 -0.048,-0.011 -0.093,-0.024 -0.14,-0.037z"/>
  <path class="fil1" d="M3.901 1.285c0.353,0 0.673,0.143 0.905,0.374l0.005 0.006c0.228,0.231 0.369,0.548 0.369,0.899 0,0.353 -0.143,0.673 -0.374,0.905 -0.232,0.231 -0.552,0.374 -0.905,0.374 -0.353,0 -0.673,-0.143 -0.904,-0.374 -0.232,-0.232 -0.375,-0.552 -0.375,-0.905 0,-0.353 0.143,-0.673 0.375,-0.904 0.231,-0.232 0.551,-0.375 0.904,-0.375zm0.784 0.495c-0.2,-0.2 -0.478,-0.324 -0.784,-0.324 -0.306,0 -0.583,0.124 -0.783,0.324 -0.201,0.201 -0.325,0.478 -0.325,0.784 0,0.306 0.124,0.583 0.325,0.784 0.2,0.2 0.477,0.324 0.783,0.324 0.306,0 0.584,-0.124 0.784,-0.324 0.2,-0.201 0.325,-0.478 0.325,-0.784 0,-0.304 -0.123,-0.579 -0.321,-0.78l-0.004 -0.004z"/>
 </g>
</svg>
