<?xml version="1.0" encoding="UTF-8"?>
<!DOCTYPE svg PUBLIC "-//W3C//DTD SVG 1.1//EN" "http://www.w3.org/Graphics/SVG/1.1/DTD/svg11.dtd">
<!-- Creator: CorelDRAW 2018 (64-Bit) -->
<svg xmlns="http://www.w3.org/2000/svg" xml:space="preserve" width="264px" height="181px" version="1.1" style="shape-rendering:geometricPrecision; text-rendering:geometricPrecision; image-rendering:optimizeQuality; fill-rule:evenodd; clip-rule:evenodd"
viewBox="0 0 103.865 71.312"
 xmlns:xlink="http://www.w3.org/1999/xlink">
 <defs>
  <style type="text/css">
   <![CDATA[
    .fil0 {fill:#EAEDF2}
   ]]>
  </style>
 </defs>
 <g id="Layer_x0020_1">
  <metadata id="CorelCorpID_0Corel-Layer"/>
  <path class="fil0" d="M63.982 15.436l14.419 8.324 11.314 6.532 8.909 -5.143 -43.56 -25.149 0 10.287 8.918 5.149zm39.883 12.739l0 16.921 -20.538 11.858 0 0 -8.882 5.128 -8.918 -5.149 34.649 -20.004 0 -0.597 -0.513 -0.296 -34.651 20.006 0 -10.298 5.103 -2.946 0 0 15.787 -9.115 4.843 -2.796 8.909 -5.143 4.211 2.431zm0 18.11l0 25.027 -3.687 0 0 -22.898 3.687 -2.129zm-15.494 25.027l-17.835 0 -15.472 -8.933 0.001 -50.903 8.917 5.149 0.001 40.606 24.388 14.081zm-19.915 0l-27.822 0 13.911 -8.032 13.911 8.032zm-29.903 0l-17.835 0 24.386 -14.08 0 -40.606 8.918 -5.148 0 50.902 -15.469 8.932zm-29.644 0l-8.909 0 0 -28.04 8.909 5.144 0 13.065 0 9.831zm0.516 -35.274l-0.516 0.298 0 0.593 34.651 20.006 -8.919 5.148 -5.102 -2.946 0 0 -15.787 -9.114 -4.843 -2.797 -8.909 -5.143 0 -10.298 0 -0.592 0.515 -0.299 8.917 -5.149 25.76 14.873 0.001 -0.001 8.881 5.128 0 10.298 -34.649 -20.005zm44.597 -36.037l-43.56 25.15 8.909 5.143 25.733 -14.857 8.918 -5.148 0 -10.288z"/>
 </g>
</svg>
