<?xml version="1.0" encoding="UTF-8"?>
<!DOCTYPE svg PUBLIC "-//W3C//DTD SVG 1.1//EN" "http://www.w3.org/Graphics/SVG/1.1/DTD/svg11.dtd">
<!-- Creator: CorelDRAW 2018 (64-Bit) -->
<svg xmlns="http://www.w3.org/2000/svg" xml:space="preserve" width="54px" height="51px" version="1.1" style="shape-rendering:geometricPrecision; text-rendering:geometricPrecision; image-rendering:optimizeQuality; fill-rule:evenodd; clip-rule:evenodd"
viewBox="0 0 8.673 8.253"
 xmlns:xlink="http://www.w3.org/1999/xlink">
 <defs>
  <style type="text/css">
   <![CDATA[
    .fil0 {fill:#00F4FF;fill-rule:nonzero}
   ]]>
  </style>
 </defs>
 <g id="Layer_x0020_1">
  <metadata id="CorelCorpID_0Corel-Layer"/>
  <g id="_1854928854272">
   <path class="fil0" d="M3.064 0l0.544 0c0.036,0 0.067,0.024 0.077,0.057l0.221 0.579 0.269 0.072 0.51 -0.395c0.027,-0.02 0.063,-0.021 0.09,-0.006l0.471 0.272c0.031,0.018 0.046,0.054 0.039,0.087l-0.099 0.612 0.197 0.198 0.64 -0.087c0.035,-0.004 0.068,0.014 0.083,0.044l0.269 0.467c0.018,0.031 0.013,0.068 -0.009,0.094l-0.392 0.481 0.072 0.27 0.596 0.245c0.032,0.012 0.05,0.042 0.05,0.074l0.001 0.544c0,0.036 -0.024,0.067 -0.057,0.077l-0.579 0.221 -0.072 0.269 0.394 0.51c0.021,0.027 0.022,0.063 0.006,0.09l-0.272 0.471c-0.017,0.03 -0.05,0.044 -0.082,0.039l-0.617 -0.099 -0.197 0.197 0.086 0.64c0.005,0.035 -0.014,0.068 -0.044,0.083l-0.466 0.269c-0.031,0.018 -0.069,0.013 -0.094,-0.009l-0.482 -0.392 -0.269 0.072 -0.245 0.596c-0.013,0.032 -0.043,0.05 -0.074,0.05l-0.544 0.001c-0.037,0 -0.067,-0.024 -0.078,-0.057l-0.22 -0.579 -0.269 -0.072 -0.511 0.394c-0.028,0.022 -0.066,0.022 -0.094,0.004l-0.467 -0.27c-0.03,-0.018 -0.045,-0.053 -0.038,-0.086l0.099 -0.613 -0.197 -0.197 -0.64 0.086c-0.035,0.005 -0.068,-0.014 -0.083,-0.044l-0.269 -0.467c-0.017,-0.029 -0.013,-0.065 0.007,-0.091l0.394 -0.484 -0.072 -0.269 -0.597 -0.245c-0.031,-0.013 -0.05,-0.043 -0.05,-0.074l0 -0.545c0,-0.036 0.024,-0.066 0.057,-0.077l0.579 -0.22 0.072 -0.269 -0.395 -0.511c-0.021,-0.028 -0.021,-0.066 -0.003,-0.094l0.269 -0.466c0.018,-0.03 0.051,-0.045 0.083,-0.04l0.617 0.1 0.197 -0.197 -0.087 -0.64c-0.004,-0.035 0.014,-0.068 0.044,-0.083l0.467 -0.269c0.031,-0.018 0.068,-0.013 0.094,0.009l0.481 0.392 0.27 -0.072 0.245 -0.597c0.012,-0.031 0.042,-0.05 0.074,-0.05zm0.282 0.162l-0.228 0 -0.237 0.579c-0.009,0.024 -0.029,0.045 -0.056,0.052l-0.348 0.093c-0.024,0.006 -0.051,0.001 -0.071,-0.016l-0.473 -0.385 -0.377 0.217 0.085 0.626c0.003,0.024 -0.004,0.049 -0.023,0.067l-0.255 0.255c-0.017,0.018 -0.043,0.027 -0.069,0.023l-0.603 -0.098 -0.217 0.376 0.383 0.496c0.017,0.02 0.025,0.047 0.017,0.074l-0.093 0.348c-0.006,0.024 -0.024,0.045 -0.049,0.054l-0.57 0.217 0 0.435 0.579 0.237c0.024,0.008 0.045,0.029 0.052,0.056l0.093 0.347c0.006,0.025 0.001,0.051 -0.015,0.072l-0.386 0.473 0.217 0.376 0.626 -0.084c0.024,-0.003 0.049,0.004 0.067,0.023l0.255 0.254c0.018,0.018 0.027,0.043 0.023,0.07l-0.098 0.602 0.376 0.218 0.496 -0.384c0.02,-0.017 0.047,-0.024 0.074,-0.017l0.348 0.094c0.024,0.006 0.045,0.024 0.054,0.049l0.217 0.57 0.435 0 0.237 -0.579c0.008,-0.025 0.029,-0.045 0.056,-0.052l0.347 -0.093c0.025,-0.006 0.051,-0.002 0.072,0.015l0.473 0.386 0.376 -0.217 -0.084 -0.626c-0.003,-0.024 0.004,-0.049 0.023,-0.068l0.254 -0.254c0.018,-0.018 0.043,-0.027 0.07,-0.023l0.603 0.097 0.216 -0.376 -0.383 -0.495c-0.017,-0.02 -0.024,-0.047 -0.017,-0.074l0.094 -0.348c0.006,-0.024 0.024,-0.045 0.049,-0.055l0.57 -0.216 0 -0.435 -0.579 -0.237c-0.025,-0.009 -0.045,-0.029 -0.052,-0.056l-0.093 -0.348c-0.006,-0.024 -0.002,-0.051 0.015,-0.071l0.386 -0.473 -0.217 -0.377 -0.62 0.084c-0.026,0.006 -0.054,-0.002 -0.074,-0.022l-0.254 -0.255c-0.018,-0.017 -0.027,-0.043 -0.023,-0.069l0.097 -0.603 -0.376 -0.217 -0.495 0.383c-0.02,0.017 -0.047,0.025 -0.074,0.017l-0.348 -0.093c-0.024,-0.006 -0.045,-0.024 -0.055,-0.049l-0.216 -0.57 -0.207 0z"/>
   <path class="fil0" d="M3.346 1.545c0.498,0 0.948,0.202 1.274,0.528 0.326,0.326 0.528,0.776 0.528,1.273 0,0.498 -0.202,0.948 -0.528,1.274 -0.326,0.326 -0.776,0.528 -1.274,0.528 -0.497,0 -0.947,-0.202 -1.273,-0.528 -0.326,-0.326 -0.528,-0.776 -0.528,-1.274 0,-0.497 0.202,-0.947 0.528,-1.273 0.326,-0.326 0.776,-0.528 1.273,-0.528zm1.16 0.642c-0.297,-0.297 -0.707,-0.48 -1.16,-0.48 -0.452,0 -0.862,0.183 -1.159,0.48 -0.297,0.297 -0.48,0.707 -0.48,1.159 0,0.453 0.183,0.863 0.48,1.16 0.297,0.296 0.707,0.48 1.159,0.48 0.453,0 0.863,-0.184 1.16,-0.48 0.296,-0.297 0.48,-0.707 0.48,-1.16 0,-0.452 -0.184,-0.862 -0.48,-1.159z"/>
   <path class="fil0" d="M7.51 5.388c0.065,0.024 0.127,0.054 0.187,0.089 0.06,0.034 0.117,0.074 0.17,0.118l0.459 -0.139c0.034,-0.01 0.07,0.003 0.09,0.031 0.051,0.065 0.099,0.135 0.141,0.207 0.042,0.074 0.079,0.151 0.111,0.23 0.012,0.033 0.002,0.069 -0.023,0.091l-0.347 0.326c0.004,0.026 0.008,0.053 0.011,0.08 0.004,0.043 0.006,0.085 0.006,0.126 0,0.041 -0.002,0.083 -0.006,0.126 -0.003,0.027 -0.007,0.054 -0.011,0.081l0.35 0.328c0.024,0.023 0.031,0.058 0.019,0.088 -0.031,0.08 -0.068,0.157 -0.11,0.23 -0.043,0.074 -0.092,0.145 -0.144,0.211 -0.022,0.027 -0.056,0.036 -0.087,0.027l-0.459 -0.138c-0.053,0.043 -0.11,0.083 -0.17,0.118 -0.06,0.034 -0.123,0.064 -0.187,0.088l-0.11 0.467c-0.007,0.033 -0.035,0.056 -0.067,0.061 -0.041,0.006 -0.084,0.011 -0.127,0.014 -0.043,0.004 -0.085,0.005 -0.127,0.005 -0.042,0 -0.084,-0.001 -0.127,-0.005 -0.043,-0.003 -0.086,-0.008 -0.127,-0.014 -0.035,-0.005 -0.061,-0.031 -0.068,-0.063l-0.109 -0.465c-0.064,-0.024 -0.127,-0.054 -0.187,-0.088 -0.06,-0.035 -0.117,-0.075 -0.17,-0.118l-0.459 0.138c-0.035,0.011 -0.072,-0.004 -0.091,-0.034 -0.052,-0.065 -0.098,-0.133 -0.139,-0.204 -0.043,-0.073 -0.08,-0.15 -0.111,-0.23 -0.013,-0.033 -0.003,-0.069 0.022,-0.09l0.347 -0.326c-0.004,-0.027 -0.008,-0.054 -0.01,-0.08 -0.005,-0.043 -0.007,-0.086 -0.007,-0.127 0,-0.041 0.002,-0.083 0.007,-0.126 0.002,-0.027 0.006,-0.054 0.01,-0.08l-0.35 -0.329c-0.024,-0.023 -0.031,-0.058 -0.019,-0.088 0.031,-0.079 0.068,-0.156 0.111,-0.23 0.042,-0.074 0.091,-0.144 0.144,-0.211 0.021,-0.026 0.055,-0.036 0.086,-0.027l0.459 0.139c0.053,-0.044 0.11,-0.084 0.17,-0.119 0.06,-0.034 0.123,-0.064 0.187,-0.088l0.11 -0.466c0.008,-0.034 0.035,-0.057 0.067,-0.062 0.041,-0.006 0.084,-0.011 0.127,-0.014 0.043,-0.003 0.085,-0.005 0.127,-0.005 0.042,0 0.085,0.002 0.128,0.005 0.042,0.003 0.085,0.008 0.126,0.014 0.035,0.005 0.061,0.031 0.068,0.064l0.109 0.464zm0.106 0.228c-0.063,-0.036 -0.13,-0.066 -0.2,-0.089 -0.026,-0.009 -0.047,-0.03 -0.054,-0.059l-0.106 -0.455 -0.061 -0.006c-0.037,-0.003 -0.076,-0.004 -0.116,-0.004 -0.04,0 -0.079,0.001 -0.116,0.004l-0.061 0.006 -0.106 0.452c-0.005,0.028 -0.025,0.052 -0.054,0.062 -0.07,0.023 -0.137,0.053 -0.2,0.089 -0.062,0.036 -0.121,0.079 -0.175,0.127 -0.021,0.02 -0.051,0.028 -0.08,0.019l-0.448 -0.135c-0.036,0.048 -0.068,0.097 -0.098,0.148 -0.029,0.051 -0.056,0.103 -0.079,0.158l0.341 0.32c0.02,0.019 0.029,0.047 0.024,0.075 -0.008,0.035 -0.013,0.072 -0.017,0.109 -0.003,0.035 -0.005,0.072 -0.005,0.11 0,0.039 0.002,0.076 0.005,0.11 0.004,0.036 0.009,0.071 0.016,0.105 0.007,0.028 -0.001,0.058 -0.023,0.079l-0.341 0.32c0.023,0.055 0.05,0.108 0.079,0.158 0.03,0.052 0.063,0.101 0.097,0.148l0.449 -0.135c0.026,-0.008 0.055,-0.002 0.077,0.017 0.055,0.049 0.115,0.093 0.178,0.129 0.063,0.036 0.13,0.067 0.2,0.09 0.026,0.008 0.047,0.03 0.054,0.058l0.106 0.455 0.061 0.006c0.037,0.003 0.076,0.004 0.116,0.004 0.04,0 0.079,-0.001 0.116,-0.004l0.061 -0.006 0.106 -0.452c0.005,-0.028 0.025,-0.052 0.054,-0.061 0.07,-0.023 0.137,-0.054 0.2,-0.09 0.062,-0.036 0.121,-0.078 0.175,-0.126 0.021,-0.02 0.051,-0.029 0.08,-0.02l0.449 0.135c0.035,-0.047 0.067,-0.097 0.097,-0.148 0.029,-0.05 0.056,-0.103 0.079,-0.158l-0.341 -0.32c-0.019,-0.019 -0.029,-0.047 -0.024,-0.075 0.008,-0.035 0.013,-0.072 0.017,-0.108 0.004,-0.035 0.005,-0.072 0.005,-0.111 0,-0.039 -0.001,-0.076 -0.005,-0.11 -0.004,-0.036 -0.009,-0.071 -0.016,-0.105 -0.007,-0.027 0.001,-0.058 0.023,-0.079l0.341 -0.32c-0.023,-0.055 -0.05,-0.107 -0.079,-0.158 -0.03,-0.051 -0.062,-0.1 -0.097,-0.148l-0.449 0.135c-0.026,0.008 -0.055,0.003 -0.077,-0.017 -0.055,-0.049 -0.114,-0.092 -0.178,-0.129z"/>
   <path class="fil0" d="M7.079 5.954c0.164,0 0.312,0.066 0.419,0.174 0.108,0.107 0.174,0.255 0.174,0.419 0,0.164 -0.066,0.312 -0.174,0.419 -0.107,0.108 -0.255,0.174 -0.419,0.174 -0.164,0 -0.312,-0.066 -0.419,-0.173 -0.108,-0.108 -0.174,-0.256 -0.174,-0.42 0,-0.164 0.066,-0.312 0.174,-0.419 0.107,-0.108 0.255,-0.174 0.419,-0.174zm0.305 0.288c-0.078,-0.078 -0.186,-0.126 -0.305,-0.126 -0.119,0 -0.227,0.048 -0.305,0.126 -0.078,0.078 -0.126,0.186 -0.126,0.305 0,0.119 0.048,0.227 0.126,0.305 0.078,0.078 0.186,0.126 0.305,0.126 0.119,0 0.227,-0.048 0.305,-0.126 0.078,-0.078 0.126,-0.186 0.126,-0.305 0,-0.119 -0.048,-0.227 -0.126,-0.305z"/>
  </g>
 </g>
</svg>
