<?xml version="1.0" encoding="UTF-8"?>
<!DOCTYPE svg PUBLIC "-//W3C//DTD SVG 1.1//EN" "http://www.w3.org/Graphics/SVG/1.1/DTD/svg11.dtd">
<!-- Creator: CorelDRAW 2018 (64-Bit) -->
<svg xmlns="http://www.w3.org/2000/svg" xml:space="preserve" width="34px" height="25px" version="1.1" style="shape-rendering:geometricPrecision; text-rendering:geometricPrecision; image-rendering:optimizeQuality; fill-rule:evenodd; clip-rule:evenodd"
viewBox="0 0 0.946 0.7"
 xmlns:xlink="http://www.w3.org/1999/xlink">
 <defs>
  <style type="text/css">
   <![CDATA[
    .fil0 {fill:#00D4E3;fill-rule:nonzero}
   ]]>
  </style>
 </defs>
 <g id="Layer_x0020_1">
  <metadata id="CorelCorpID_0Corel-Layer"/>
  <path class="fil0" d="M0.104 0l0.475 0c0.015,0 0.03,0.003 0.043,0.009 0.013,0.006 0.025,0.015 0.035,0.026l0.256 0.24c0.021,0.02 0.032,0.046 0.033,0.072 0.001,0.026 -0.009,0.053 -0.028,0.074 -0.043,0.057 -0.206,0.193 -0.269,0.251 -0.009,0.009 -0.02,0.016 -0.032,0.021 -0.008,0.003 -0.016,0.005 -0.024,0.006l0 0.001 -0.489 0c-0.029,0 -0.055,-0.011 -0.074,-0.03 -0.018,-0.019 -0.03,-0.045 -0.03,-0.073l0 -0.493c0,-0.029 0.012,-0.055 0.03,-0.074 0.019,-0.018 0.045,-0.03 0.074,-0.03z"/>
 </g>
</svg>
