<?xml version="1.0" encoding="UTF-8"?>
<!DOCTYPE svg PUBLIC "-//W3C//DTD SVG 1.1//EN" "http://www.w3.org/Graphics/SVG/1.1/DTD/svg11.dtd">
<!-- Creator: CorelDRAW 2018 (64-Bit) -->
<svg xmlns="http://www.w3.org/2000/svg" xml:space="preserve" width="80px" height="60px" version="1.1" style="shape-rendering:geometricPrecision; text-rendering:geometricPrecision; image-rendering:optimizeQuality; fill-rule:evenodd; clip-rule:evenodd"
viewBox="0 0 9.188 6.891"
 xmlns:xlink="http://www.w3.org/1999/xlink">
 <defs>
  <style type="text/css">
   <![CDATA[
    .fil0 {fill:none}
    .fil1 {fill:#00F4FF}
    .fil4 {fill:#264361}
    .fil3 {fill:white}
    .fil2 {fill:#052337;fill-rule:nonzero}
   ]]>
  </style>
 </defs>
 <g id="Layer_x0020_1">
  <metadata id="CorelCorpID_0Corel-Layer"/>
  <g id="_2054377708816">
   <rect class="fil0" width="9.188" height="6.891"/>
   <g>
    <path class="fil1" d="M0.574 2.742l5.211 0c0.167,0 0.302,0.12 0.302,0.268l0 3.341c0,0.148 -0.135,0.268 -0.302,0.268l-5.211 0c-0.166,0 -0.301,-0.12 -0.301,-0.268l0 -3.341c0,-0.148 0.135,-0.268 0.301,-0.268z"/>
    <path class="fil2" d="M0.541 2.699l5.279 0c0.086,0 0.163,0.035 0.219,0.092l0.004 0.001c0.053,0.057 0.088,0.134 0.088,0.218l0 3.342c0,0.084 -0.035,0.162 -0.092,0.219 -0.056,0.057 -0.133,0.091 -0.219,0.091l-5.279 0c-0.086,0 -0.164,-0.034 -0.219,-0.091l-0.003 -0.003c-0.056,-0.055 -0.089,-0.132 -0.089,-0.216l0 -3.342c0,-0.086 0.035,-0.162 0.092,-0.219 0.055,-0.057 0.133,-0.092 0.219,-0.092zm5.279 0.086l-5.279 0c-0.063,0 -0.118,0.026 -0.16,0.066 -0.04,0.041 -0.066,0.098 -0.066,0.159l0 3.342c0,0.06 0.025,0.115 0.065,0.156l0.001 0.002c0.042,0.041 0.097,0.066 0.16,0.066l5.279 0c0.062,0 0.118,-0.025 0.158,-0.066 0.042,-0.04 0.066,-0.097 0.066,-0.158l0 -3.342c0,-0.061 -0.024,-0.117 -0.063,-0.156l-0.003 -0.003c-0.04,-0.04 -0.096,-0.066 -0.158,-0.066z"/>
    <path class="fil3" d="M5.157 3.754c0,0 0,0 0,0 0,-0.22 -0.178,-0.399 -0.398,-0.399 -0.221,0 -0.398,0.179 -0.398,0.398l0 0.001c0,0.219 0.177,0.399 0.398,0.399 0.219,0 0.398,-0.178 0.398,-0.399z"/>
    <path class="fil2" d="M5.114 3.754l0 -0.001c0,-0.098 -0.04,-0.187 -0.104,-0.251 -0.064,-0.065 -0.153,-0.103 -0.251,-0.103l0 0c-0.098,0 -0.187,0.04 -0.251,0.103 -0.065,0.064 -0.104,0.153 -0.104,0.251l0 0.001c0,0.098 0.039,0.187 0.104,0.252 0.064,0.064 0.151,0.104 0.249,0.104l0.002 0c0.098,0 0.187,-0.04 0.251,-0.104 0.064,-0.065 0.104,-0.154 0.104,-0.252l0 0zm0.086 0l0 0c0,0.123 -0.049,0.233 -0.129,0.313 -0.081,0.079 -0.191,0.128 -0.312,0.128l-0.002 0c-0.121,0 -0.231,-0.05 -0.311,-0.13 -0.079,-0.079 -0.128,-0.19 -0.128,-0.311l0 -0.001c0,-0.121 0.049,-0.232 0.128,-0.311 0.08,-0.08 0.19,-0.13 0.313,-0.13l0 0c0.122,0.001 0.233,0.05 0.312,0.13 0.08,0.079 0.129,0.19 0.129,0.311l0 0.001z"/>
    <path class="fil4" d="M3.869 5.7l-2.011 -2.191 -1.585 1.612 0 1.231c0,0.147 0.121,0.267 0.268,0.267l5.279 0c0.147,0 0.267,-0.12 0.267,-0.267l0 -0.208 -1.418 -1.149 -0.8 0.705z"/>
    <path class="fil2" d="M3.838 5.729l-1.982 -2.157 -1.541 1.565 0 1.215c0,0.061 0.027,0.118 0.066,0.158l0.003 0.001c0.04,0.04 0.095,0.065 0.157,0.065l5.279 0c0.062,0 0.118,-0.025 0.158,-0.066l0.003 -0.002c0.039,-0.041 0.063,-0.096 0.063,-0.156l0 -0.188 -1.375 -1.114 -0.771 0.682c-0.017,0.015 -0.044,0.013 -0.06,-0.003zm-1.949 -2.249l1.985 2.16 0.762 -0.676c0.016,-0.015 0.042,-0.017 0.059,-0.003l1.42 1.148c0.009,0.007 0.016,0.019 0.016,0.035l0 0.208c0,0.084 -0.035,0.161 -0.088,0.216l-0.004 0.003c-0.056,0.057 -0.133,0.091 -0.219,0.091l-5.279 0c-0.085,0 -0.161,-0.034 -0.218,-0.089l-0.001 -0.002c-0.057,-0.057 -0.092,-0.135 -0.092,-0.219l0 -1.231c0,-0.011 0.004,-0.022 0.012,-0.031l1.587 -1.611c0.017,-0.017 0.044,-0.016 0.06,0.001z"/>
    <polygon class="fil3" points="3.572,5.376 1.858,3.509 0.277,5.116 0.824,4.905 1.069,5.43 1.76,4.782 2.394,5.335 2.668,4.96 "/>
    <path class="fil2" d="M3.396 5.248l-1.54 -1.676 -1.407 1.432 0.36 -0.139c0.021,-0.009 0.046,0.001 0.055,0.023l0.219 0.47 0.648 -0.607c0.017,-0.015 0.041,-0.015 0.058,-0.001l0.597 0.521 0.247 -0.336c0.012,-0.018 0.035,-0.023 0.054,-0.014l0.709 0.327 0 0zm-1.507 -1.768l1.715 1.867c0.011,0.013 0.015,0.031 0.008,0.046 -0.011,0.022 -0.036,0.032 -0.057,0.022l-0.873 -0.402 -0.256 0.35c-0.015,0.018 -0.043,0.02 -0.06,0.004l-0.605 -0.527 -0.661 0.619c-0.003,0.003 -0.008,0.006 -0.013,0.009 -0.021,0.009 -0.047,0 -0.056,-0.021l-0.229 -0.489 -0.508 0.198c-0.015,0.006 -0.034,0.003 -0.046,-0.009 -0.017,-0.017 -0.017,-0.045 -0.002,-0.062l1.583 -1.606c0.017,-0.017 0.044,-0.016 0.059,0.001l0.001 0z"/>
    <polygon class="fil3" points="3.869,5.7 4.669,4.995 5.975,6.052 5.032,5.727 4.869,6.125 4.466,5.727 4.059,5.917 "/>
    <path class="fil2" d="M3.843 5.666l0.796 -0.703c0.016,-0.014 0.04,-0.016 0.056,-0.002l1.308 1.057c0.018,0.015 0.021,0.043 0.006,0.061 -0.012,0.016 -0.031,0.02 -0.048,0.014l-0.905 -0.312 -0.147 0.36c-0.009,0.021 -0.034,0.032 -0.057,0.023 -0.004,-0.002 -0.009,-0.005 -0.013,-0.01l-0.382 -0.375 -0.38 0.176c-0.02,0.009 -0.041,0.003 -0.053,-0.012l-0.187 -0.216c-0.015,-0.018 -0.014,-0.044 0.004,-0.06l0.002 -0.001 0 0zm0.826 -0.616l-0.739 0.653 0.14 0.16 0.378 -0.176c0.015,-0.006 0.035,-0.003 0.047,0.009l0.359 0.353 0.138 -0.336c0.007,-0.023 0.032,-0.035 0.053,-0.027l0.713 0.246 -1.089 -0.882 0 0z"/>
   </g>
  </g>
 </g>
</svg>
