<?xml version="1.0" encoding="UTF-8"?>
<!DOCTYPE svg PUBLIC "-//W3C//DTD SVG 1.1//EN" "http://www.w3.org/Graphics/SVG/1.1/DTD/svg11.dtd">
<!-- Creator: CorelDRAW 2018 (64-Bit) -->
<svg xmlns="http://www.w3.org/2000/svg" xml:space="preserve" width="80px" height="60px" version="1.1" style="shape-rendering:geometricPrecision; text-rendering:geometricPrecision; image-rendering:optimizeQuality; fill-rule:evenodd; clip-rule:evenodd"
viewBox="0 0 13.692 10.269"
 xmlns:xlink="http://www.w3.org/1999/xlink">
 <defs>
  <style type="text/css">
   <![CDATA[
    .fil0 {fill:none}
    .fil4 {fill:#00F4FF}
    .fil3 {fill:#264361}
    .fil1 {fill:white}
    .fil2 {fill:#052337;fill-rule:nonzero}
   ]]>
  </style>
 </defs>
 <g id="Layer_x0020_1">
  <metadata id="CorelCorpID_0Corel-Layer"/>
  <g id="_2054449894000">
   <rect class="fil0" width="13.692" height="10.269"/>
   <g>
    <path class="fil1" d="M3.854 6.601l0.856 -0.473c-0.065,-0.179 -0.063,-0.404 0.033,-0.691 -0.249,0.257 -0.555,0.435 -0.889,0.438 -0.336,-0.003 -0.643,-0.182 -0.893,-0.441 0.097,0.287 0.1,0.514 0.035,0.694l0.858 0.473 0 0z"/>
    <path class="fil2" d="M3.854 6.534l0.785 -0.433c-0.025,-0.085 -0.036,-0.178 -0.032,-0.28 0.003,-0.063 0.011,-0.13 0.026,-0.201 -0.093,0.077 -0.193,0.143 -0.297,0.195 -0.152,0.074 -0.313,0.118 -0.482,0.12l-0.001 0c-0.17,-0.002 -0.332,-0.046 -0.483,-0.121 -0.105,-0.052 -0.204,-0.118 -0.298,-0.196 0.015,0.071 0.023,0.137 0.026,0.201 0.004,0.103 -0.007,0.196 -0.031,0.28l0.787 0.435 0 0zm0.884 -0.354l-0.884 0.489 -0.931 -0.514 0.017 -0.047c0.03,-0.083 0.045,-0.177 0.04,-0.285 -0.004,-0.109 -0.028,-0.232 -0.075,-0.371l0.098 -0.059c0.126,0.131 0.267,0.241 0.419,0.315 0.136,0.068 0.281,0.107 0.432,0.109 0.149,-0.002 0.294,-0.041 0.429,-0.108 0.152,-0.074 0.292,-0.183 0.418,-0.313l0.098 0.059c-0.046,0.138 -0.07,0.261 -0.074,0.37 -0.004,0.107 0.01,0.201 0.04,0.284l0.017 0.047 -0.044 0.024z"/>
    <path class="fil2" d="M7.347 7.211c0.022,0.024 0.021,0.061 -0.002,0.084 -0.024,0.022 -0.061,0.021 -0.084,-0.003 -0.308,-0.322 -0.472,-0.339 -0.86,-0.379 -0.082,-0.008 -0.173,-0.017 -0.267,-0.029 -0.236,-0.03 -0.473,-0.069 -0.689,-0.132 -0.198,-0.058 -0.378,-0.136 -0.519,-0.244l-0.759 0.749c-0.024,0.022 -0.061,0.022 -0.083,-0.001 -0.006,-0.006 -0.01,-0.011 -0.012,-0.018l-0.218 -0.491 -0.218 0.491c-0.014,0.03 -0.048,0.044 -0.078,0.03 -0.008,-0.003 -0.014,-0.008 -0.02,-0.014l-0.758 -0.747c-0.141,0.108 -0.321,0.187 -0.519,0.245 -0.216,0.063 -0.454,0.102 -0.69,0.132 -0.094,0.012 -0.185,0.021 -0.267,0.03 -0.388,0.04 -0.553,0.056 -0.86,0.378 -0.022,0.024 -0.06,0.025 -0.083,0.003 -0.024,-0.023 -0.025,-0.06 -0.002,-0.084 0.337,-0.353 0.514,-0.372 0.933,-0.414 0.076,-0.008 0.16,-0.017 0.265,-0.03 0.232,-0.029 0.464,-0.068 0.671,-0.128 0.204,-0.06 0.385,-0.141 0.518,-0.256 0.023,-0.019 0.058,-0.019 0.079,0.003l0.737 0.727 0.238 -0.536c0.005,-0.012 0.016,-0.023 0.03,-0.03 0.029,-0.013 0.064,0.001 0.078,0.03l0.237 0.536 0.734 -0.724c0.021,-0.023 0.057,-0.025 0.081,-0.005 0.133,0.115 0.314,0.196 0.518,0.255 0.207,0.06 0.439,0.099 0.67,0.128 0.105,0.013 0.189,0.022 0.265,0.03 0.419,0.042 0.595,0.061 0.933,0.414l0.001 0z"/>
    <path class="fil1" d="M4.873 5.289c0.209,-0.258 0.379,-0.568 0.379,-0.855l0 -0.118 0 -0.648 0 -0.148c0.005,-0.138 -0.009,-0.414 -0.024,-0.515 -0.047,-0.313 -0.815,-0.58 -1.374,-0.659 -0.558,-0.078 -0.877,-0.093 -1.137,0.23 -0.139,0.172 -0.258,0.584 -0.262,0.93l0 0.162 0 0.648 0 0.118c0,0.287 0.171,0.597 0.379,0.855 0.04,0.051 0.083,0.099 0.127,0.145 0.25,0.259 0.557,0.438 0.893,0.442 0.334,-0.004 0.64,-0.182 0.889,-0.439 0.046,-0.047 0.089,-0.096 0.13,-0.148z"/>
    <path class="fil2" d="M4.827 5.252c0.109,-0.135 0.208,-0.284 0.275,-0.436 0.056,-0.128 0.091,-0.258 0.091,-0.382 0,-0.272 -0.028,-0.663 0,-0.916 0.003,-0.065 0,-0.164 -0.004,-0.259 -0.004,-0.099 -0.012,-0.195 -0.019,-0.246 -0.018,-0.118 -0.172,-0.235 -0.382,-0.336 -0.274,-0.131 -0.639,-0.23 -0.942,-0.272 -0.274,-0.039 -0.489,-0.062 -0.663,-0.036 -0.168,0.024 -0.301,0.096 -0.421,0.244 -0.064,0.08 -0.125,0.221 -0.171,0.383 -0.046,0.162 -0.075,0.344 -0.077,0.51 0,0.309 0,0.619 0,0.928 0,0.124 0.035,0.254 0.091,0.382 0.068,0.152 0.166,0.301 0.274,0.436 0.019,0.024 0.04,0.048 0.061,0.073 0.022,0.024 0.043,0.047 0.063,0.068 0.126,0.131 0.267,0.241 0.419,0.315 0.136,0.068 0.281,0.107 0.432,0.109 0.149,-0.002 0.294,-0.041 0.429,-0.108 0.152,-0.074 0.292,-0.183 0.418,-0.313 0.022,-0.023 0.044,-0.047 0.064,-0.07 0.022,-0.025 0.043,-0.05 0.062,-0.074l0 0zm0.383 -0.389c-0.072,0.162 -0.176,0.321 -0.291,0.463 -0.022,0.028 -0.044,0.054 -0.066,0.078 -0.022,0.026 -0.045,0.051 -0.068,0.074 -0.134,0.139 -0.286,0.256 -0.45,0.337 -0.151,0.074 -0.312,0.118 -0.481,0.12l-0.001 0c-0.17,-0.002 -0.332,-0.046 -0.483,-0.121 -0.165,-0.081 -0.316,-0.2 -0.451,-0.339 -0.024,-0.025 -0.047,-0.049 -0.067,-0.072 -0.021,-0.024 -0.042,-0.05 -0.064,-0.077 -0.115,-0.143 -0.219,-0.301 -0.291,-0.463 -0.063,-0.142 -0.101,-0.287 -0.101,-0.429 0,-0.144 -0.02,-0.869 0,-0.929 0.002,-0.177 0.033,-0.37 0.082,-0.541 0.049,-0.176 0.118,-0.332 0.193,-0.424 0.14,-0.175 0.297,-0.258 0.494,-0.288 0.189,-0.028 0.413,-0.003 0.698,0.036 0.312,0.044 0.69,0.146 0.975,0.283 0.245,0.117 0.424,0.263 0.448,0.426 0.008,0.052 0.016,0.153 0.021,0.256 0.004,0.097 0.007,0.198 0.004,0.267l0 0.914c0,0.142 -0.038,0.287 -0.101,0.429l0 0z"/>
    <path class="fil1" d="M5.569 3.992c0,-0.179 -0.142,-0.324 -0.317,-0.324l0 0.648c0.175,0 0.317,-0.145 0.317,-0.324z"/>
    <path class="fil2" d="M5.51 3.992c0,-0.074 -0.029,-0.14 -0.076,-0.188 -0.033,-0.034 -0.075,-0.059 -0.123,-0.07l0 0.516c0.048,-0.011 0.09,-0.036 0.123,-0.07 0.047,-0.048 0.076,-0.114 0.076,-0.188l0 0zm0.008 -0.27c0.068,0.069 0.11,0.165 0.11,0.27 0,0.105 -0.042,0.201 -0.11,0.27 -0.068,0.07 -0.162,0.113 -0.266,0.113l-0.059 0 0 -0.766 0.059 0c0.104,0 0.198,0.043 0.266,0.113l0 0z"/>
    <path class="fil1" d="M2.455 4.316l0 -0.648c-0.175,0 -0.317,0.145 -0.317,0.324 0,0.179 0.142,0.324 0.317,0.324z"/>
    <path class="fil2" d="M2.396 4.25l0 -0.516c-0.047,0.011 -0.09,0.036 -0.123,0.07 -0.047,0.048 -0.076,0.114 -0.076,0.188 0,0.074 0.029,0.14 0.076,0.188 0.033,0.034 0.076,0.059 0.123,0.07l0 0zm0.118 -0.582l0 0.707 -0.059 0c-0.104,0 -0.198,-0.043 -0.266,-0.113 -0.068,-0.069 -0.11,-0.165 -0.11,-0.27 0,-0.105 0.042,-0.201 0.11,-0.27 0.068,-0.07 0.162,-0.113 0.266,-0.113l0.059 0 0 0.059 0 0z"/>
    <path class="fil3" d="M5.478 2.483c-0.199,-0.678 -1.105,-1.048 -1.812,-1.055 -0.515,-0.005 -1.209,0.148 -1.195,0.981 -0.471,0.27 -0.187,0.898 -0.105,1.272 0.028,-0.008 0.058,-0.013 0.089,-0.013l0 -0.162c0.004,-0.346 0.123,-0.758 0.262,-0.93 0.26,-0.323 0.579,-0.308 1.137,-0.23 0.559,0.079 1.327,0.346 1.374,0.659 0.015,0.101 0.029,0.377 0.024,0.515l0 0.148c0.043,0 0.084,0.009 0.121,0.025 0.081,-0.375 0.193,-0.909 0.105,-1.21l0 0z"/>
    <path class="fil2" d="M5.421 2.5c-0.086,-0.296 -0.318,-0.532 -0.608,-0.701 -0.346,-0.202 -0.775,-0.309 -1.147,-0.312l-0.063 0c-0.24,0.004 -0.51,0.046 -0.719,0.178 -0.204,0.129 -0.351,0.347 -0.354,0.706l0 0.072 -0.029 0.017c-0.353,0.202 -0.229,0.65 -0.132,0.999l0.027 0.098 0 -0.052c0.002,-0.177 0.033,-0.37 0.082,-0.541 0.049,-0.176 0.118,-0.332 0.193,-0.424 0.14,-0.175 0.297,-0.258 0.494,-0.288 0.189,-0.028 0.414,-0.003 0.698,0.036 0.312,0.044 0.69,0.146 0.975,0.283 0.245,0.117 0.424,0.263 0.448,0.426 0.008,0.052 0.016,0.153 0.021,0.256 0.004,0.097 0.007,0.198 0.004,0.267l0 0.094 0.018 0.003c0.037,-0.172 0.077,-0.372 0.101,-0.564 0.027,-0.211 0.033,-0.412 -0.009,-0.553zm-0.549 -0.803c0.315,0.184 0.566,0.442 0.662,0.77 0.047,0.159 0.041,0.376 0.013,0.601 -0.027,0.22 -0.076,0.448 -0.116,0.637l-0.016 0.069 -0.065 -0.027c-0.015,-0.007 -0.031,-0.012 -0.048,-0.015 -0.015,-0.003 -0.032,-0.005 -0.05,-0.005l-0.059 0c0,-0.062 -0.006,-0.153 0.001,-0.209 0.002,-0.065 0,-0.163 -0.005,-0.259 -0.004,-0.099 -0.012,-0.195 -0.019,-0.246 -0.018,-0.118 -0.172,-0.235 -0.382,-0.336 -0.274,-0.131 -0.639,-0.229 -0.942,-0.272 -0.274,-0.039 -0.489,-0.062 -0.663,-0.036 -0.168,0.025 -0.301,0.096 -0.421,0.244 -0.064,0.08 -0.125,0.221 -0.171,0.383 -0.046,0.162 -0.075,0.344 -0.077,0.51l0 0.221 -0.059 0c-0.013,0 -0.025,0.001 -0.037,0.002 -0.012,0.002 -0.023,0.005 -0.035,0.009l-0.061 0.018 -0.014 -0.063c-0.013,-0.063 -0.032,-0.131 -0.053,-0.203 -0.105,-0.378 -0.239,-0.861 0.157,-1.114l0 -0.005c0.004,-0.407 0.174,-0.657 0.409,-0.806 0.231,-0.145 0.522,-0.191 0.78,-0.195l0.066 -0.001c0.391,0.004 0.841,0.116 1.205,0.328l0 0z"/>
    <path class="fil4" d="M4.126 7.215l0.867 -0.857c-0.096,-0.082 -0.169,-0.181 -0.212,-0.3l-0.927 0.543 0.272 0.614 0 0z"/>
    <path class="fil2" d="M4.145 7.113l0.763 -0.754c-0.033,-0.032 -0.062,-0.066 -0.089,-0.103 -0.025,-0.035 -0.047,-0.073 -0.067,-0.113l-0.823 0.483 0.216 0.487zm0.889 -0.713l-0.865 0.854c-0.005,0.006 -0.012,0.011 -0.02,0.014 -0.03,0.013 -0.064,0 -0.077,-0.03l-0.272 -0.613c-0.012,-0.027 -0.002,-0.059 0.024,-0.074l0.925 -0.543c0.003,-0.002 0.007,-0.004 0.012,-0.006 0.03,-0.011 0.064,0.005 0.075,0.036 0.02,0.054 0.047,0.104 0.079,0.15 0.033,0.045 0.072,0.087 0.116,0.125l0.004 0.004c0.023,0.023 0.023,0.06 -0.001,0.083l0 0z"/>
    <path class="fil4" d="M3.582 7.215l-0.868 -0.857c0.096,-0.082 0.169,-0.181 0.212,-0.3l0.928 0.543 -0.272 0.614 0 0z"/>
    <path class="fil2" d="M3.538 7.254l-0.865 -0.854c-0.023,-0.023 -0.024,-0.06 -0.001,-0.083l0.004 -0.004c0.044,-0.038 0.083,-0.079 0.116,-0.125 0.033,-0.046 0.059,-0.096 0.079,-0.15 0.011,-0.031 0.045,-0.047 0.076,-0.036 0.004,0.002 0.008,0.004 0.012,0.007l0.925 0.542c0.026,0.015 0.035,0.047 0.023,0.074l-0.271 0.613c-0.014,0.03 -0.048,0.044 -0.078,0.03 -0.008,-0.003 -0.015,-0.008 -0.02,-0.014l0 0zm-0.739 -0.895l0.764 0.754 0.216 -0.487 -0.824 -0.483c-0.019,0.04 -0.042,0.078 -0.067,0.113 -0.026,0.037 -0.056,0.071 -0.089,0.103l0 0z"/>
    <path class="fil4" d="M12.681 8.368c-0.356,-0.41 -0.538,-0.505 -0.848,-0.552 -0.479,0.431 -1.167,0.752 -1.94,0.898 -0.051,0.289 0.047,0.567 0.414,0.843 -0.302,-0.02 -0.995,-0.121 -1.175,-0.757 -0.052,0.001 -0.124,0.002 -0.169,0.002 -1.164,0 -2.2,-0.385 -2.866,-0.983 -0.309,0.047 -0.492,0.142 -0.848,0.551 1.473,2.076 5.961,2.075 7.433,-0.002l-0.001 0z"/>
    <path class="fil2" d="M12.726 8.33c0.021,0.024 0.019,0.062 -0.006,0.083 -0.025,0.021 -0.062,0.018 -0.083,-0.006 -0.174,-0.201 -0.305,-0.323 -0.428,-0.401l-0.004 -0.002c-0.111,-0.07 -0.22,-0.103 -0.354,-0.125 -0.24,0.212 -0.53,0.397 -0.855,0.548 -0.321,0.148 -0.676,0.263 -1.051,0.337 -0.014,0.12 0,0.237 0.052,0.352 0.06,0.131 0.171,0.262 0.346,0.394 0.026,0.019 0.031,0.056 0.012,0.082 -0.013,0.017 -0.032,0.025 -0.052,0.024 -0.155,-0.011 -0.412,-0.042 -0.654,-0.153 -0.236,-0.109 -0.458,-0.292 -0.56,-0.603l-0.126 0.001c-0.577,0 -1.124,-0.094 -1.611,-0.261 -0.497,-0.17 -0.931,-0.417 -1.274,-0.719 -0.134,0.023 -0.244,0.057 -0.356,0.127 -0.124,0.078 -0.254,0.2 -0.428,0.4 -0.022,0.025 -0.059,0.027 -0.083,0.006 -0.025,-0.021 -0.028,-0.058 -0.006,-0.083 0.181,-0.209 0.32,-0.338 0.454,-0.422 0.138,-0.086 0.267,-0.124 0.429,-0.148 0.017,-0.003 0.034,0.002 0.048,0.014 0.334,0.299 0.762,0.545 1.255,0.714 0.474,0.162 1.008,0.254 1.572,0.254l0.084 -0.001 0.08 -0.001c0.028,-0.002 0.054,0.016 0.062,0.043 0.084,0.298 0.289,0.471 0.509,0.572 0.145,0.066 0.296,0.102 0.424,0.122 -0.108,-0.104 -0.183,-0.208 -0.232,-0.313 -0.069,-0.152 -0.082,-0.305 -0.054,-0.461 0.004,-0.023 0.022,-0.043 0.047,-0.048 0.38,-0.072 0.74,-0.187 1.063,-0.336 0.324,-0.15 0.611,-0.335 0.846,-0.546 0.013,-0.013 0.031,-0.019 0.05,-0.016 0.161,0.024 0.29,0.062 0.426,0.146l0.003 0.002c0.134,0.084 0.273,0.214 0.455,0.424l0 0z"/>
    <path class="fil1" d="M7.439 4.177l0 0.707 0 0.129c0,0.554 0.59,1.299 1.526,1.572 0.29,-0.085 0.546,-0.214 0.763,-0.37 0.482,-0.346 0.763,-0.82 0.763,-1.202l0 -0.129 0 -0.707 0 -0.177c-0.244,-0.227 -0.466,-0.218 -0.606,-1.089 -0.747,0.792 -1.862,0.821 -2.446,1.089l0 0.177z"/>
    <path class="fil2" d="M7.498 4.177l0 0.836c0,0.277 0.158,0.607 0.439,0.897 0.253,0.26 0.603,0.487 1.028,0.614 0.131,-0.04 0.257,-0.089 0.374,-0.146 0.128,-0.062 0.246,-0.133 0.354,-0.211 0.23,-0.165 0.413,-0.359 0.54,-0.559 0.129,-0.204 0.199,-0.411 0.199,-0.595l0 -0.987c-0.038,-0.034 -0.076,-0.062 -0.112,-0.09 -0.188,-0.143 -0.357,-0.271 -0.474,-0.902 -0.519,0.498 -1.183,0.672 -1.734,0.816 -0.233,0.061 -0.446,0.116 -0.614,0.188l0 0.139 0 0zm-0.118 0.707l0 -0.884c0,-0.022 0.013,-0.044 0.035,-0.053 0.183,-0.084 0.413,-0.145 0.667,-0.211 0.566,-0.148 1.253,-0.328 1.76,-0.865 0.009,-0.01 0.02,-0.016 0.034,-0.018 0.031,-0.005 0.062,0.016 0.067,0.049 0.11,0.683 0.269,0.804 0.448,0.94 0.045,0.035 0.091,0.07 0.137,0.112 0.013,0.011 0.022,0.028 0.022,0.046l0 1.013c0,0.206 -0.076,0.435 -0.218,0.658 -0.134,0.211 -0.327,0.417 -0.57,0.592 -0.114,0.082 -0.239,0.156 -0.372,0.221 -0.127,0.062 -0.264,0.115 -0.408,0.157 -0.011,0.004 -0.022,0.004 -0.034,0 -0.453,-0.132 -0.827,-0.372 -1.095,-0.649 -0.303,-0.312 -0.473,-0.672 -0.473,-0.979l0 -0.129 0 0z"/>
    <path class="fil1" d="M7.939 7.338c-0.31,0.247 -0.8,0.357 -1.286,0.418 -0.235,0.029 -0.41,0.041 -0.556,0.063 0.666,0.598 1.702,0.983 2.866,0.983 0.046,0 0.117,-0.001 0.169,-0.002 -0.033,-0.117 -0.049,-0.251 -0.042,-0.407 0.038,-0.864 0.458,-0.822 0.596,-1.499 0.036,-0.172 0.053,-0.389 0.042,-0.679 -0.217,0.156 -0.473,0.285 -0.763,0.37 -0.301,-0.088 -0.566,-0.225 -0.788,-0.388 0.186,0.552 0.054,0.908 -0.238,1.141l0 0zm2.309 0.644c-0.174,0.256 -0.313,0.498 -0.355,0.732 0.773,-0.146 1.461,-0.467 1.94,-0.898 -0.146,-0.022 -0.322,-0.034 -0.557,-0.064 -0.265,-0.033 -0.547,-0.078 -0.785,-0.15 -0.08,0.133 -0.162,0.26 -0.243,0.38z"/>
    <path class="fil2" d="M7.975 7.384c-0.161,0.129 -0.368,0.221 -0.596,0.289 -0.226,0.067 -0.473,0.111 -0.718,0.141 -0.104,0.013 -0.203,0.023 -0.292,0.032l-0.134 0.014c0.318,0.262 0.711,0.476 1.156,0.629 0.474,0.163 1.008,0.254 1.572,0.254l0.094 0c-0.008,-0.04 -0.015,-0.082 -0.02,-0.126 -0.007,-0.07 -0.01,-0.145 -0.006,-0.226 0.023,-0.506 0.171,-0.712 0.321,-0.921 0.109,-0.152 0.219,-0.305 0.277,-0.588 0.017,-0.083 0.029,-0.177 0.037,-0.287 0.005,-0.082 0.007,-0.172 0.006,-0.27 -0.089,0.058 -0.183,0.111 -0.282,0.159 -0.128,0.062 -0.264,0.115 -0.408,0.157 -0.012,0.004 -0.023,0.004 -0.034,0 -0.15,-0.043 -0.291,-0.099 -0.422,-0.164 -0.087,-0.042 -0.169,-0.088 -0.246,-0.138 0.053,0.217 0.054,0.402 0.015,0.562 -0.05,0.201 -0.163,0.358 -0.32,0.483l0 0zm-0.63 0.176c0.215,-0.064 0.409,-0.15 0.557,-0.268 0.137,-0.109 0.236,-0.246 0.279,-0.419 0.043,-0.177 0.03,-0.393 -0.06,-0.657 -0.005,-0.018 -0.003,-0.038 0.009,-0.054 0.019,-0.026 0.056,-0.032 0.082,-0.012 0.111,0.081 0.233,0.156 0.366,0.221 0.121,0.06 0.25,0.112 0.387,0.153 0.131,-0.04 0.257,-0.089 0.374,-0.146 0.127,-0.061 0.245,-0.132 0.352,-0.209 0.01,-0.007 0.021,-0.012 0.034,-0.013 0.032,-0.001 0.06,0.025 0.061,0.057 0.006,0.147 0.004,0.276 -0.003,0.39 -0.007,0.114 -0.021,0.214 -0.039,0.303 -0.063,0.307 -0.181,0.471 -0.296,0.632 -0.141,0.195 -0.279,0.387 -0.3,0.858 -0.003,0.075 -0.001,0.144 0.006,0.209 0.007,0.064 0.019,0.124 0.034,0.18 0.002,0.004 0.002,0.009 0.002,0.014 0.001,0.033 -0.024,0.059 -0.057,0.06l-0.17 0.002c-0.577,0 -1.124,-0.094 -1.611,-0.261 -0.506,-0.173 -0.948,-0.426 -1.293,-0.736 -0.011,-0.009 -0.018,-0.021 -0.021,-0.036 -0.005,-0.032 0.017,-0.062 0.05,-0.067 0.078,-0.012 0.167,-0.021 0.269,-0.032 0.083,-0.008 0.176,-0.018 0.289,-0.032 0.241,-0.03 0.482,-0.072 0.699,-0.137l0 0zm2.951 0.455c-0.085,0.126 -0.162,0.248 -0.222,0.368 -0.044,0.087 -0.08,0.172 -0.103,0.256 0.348,-0.073 0.677,-0.181 0.975,-0.319 0.28,-0.13 0.533,-0.285 0.748,-0.462l-0.134 -0.015c-0.089,-0.009 -0.188,-0.019 -0.291,-0.032 -0.132,-0.016 -0.27,-0.036 -0.407,-0.061 -0.119,-0.022 -0.235,-0.048 -0.345,-0.079 -0.031,0.051 -0.063,0.102 -0.095,0.153 -0.042,0.066 -0.084,0.129 -0.126,0.191l0 0zm-0.327 0.314c0.062,-0.124 0.142,-0.25 0.23,-0.38 0.041,-0.061 0.083,-0.124 0.124,-0.188 0.039,-0.06 0.077,-0.124 0.117,-0.189 0.014,-0.023 0.041,-0.034 0.068,-0.026 0.116,0.035 0.244,0.064 0.376,0.088 0.13,0.024 0.266,0.044 0.399,0.06 0.114,0.014 0.206,0.024 0.289,0.032 0.103,0.011 0.192,0.02 0.27,0.032 0.013,0.002 0.025,0.008 0.035,0.019 0.022,0.024 0.02,0.061 -0.005,0.083 -0.244,0.22 -0.542,0.412 -0.876,0.567 -0.331,0.153 -0.699,0.271 -1.088,0.344 -0.008,0.002 -0.016,0.003 -0.025,0.001 -0.032,-0.005 -0.053,-0.036 -0.047,-0.068 0.021,-0.123 0.068,-0.248 0.133,-0.375l0 0z"/>
    <path class="fil1" d="M10.491 4.177l0 0.707c0.191,0 0.345,-0.158 0.345,-0.354 0,-0.195 -0.154,-0.353 -0.345,-0.353l0 0z"/>
    <path class="fil2" d="M10.55 4.242l0 0.577c0.055,-0.012 0.105,-0.04 0.143,-0.08 0.052,-0.053 0.084,-0.127 0.084,-0.209 0,-0.081 -0.032,-0.155 -0.084,-0.208 -0.038,-0.04 -0.088,-0.068 -0.143,-0.08l0 0zm-0.118 0.642l0 -0.707c0,-0.033 0.026,-0.059 0.059,-0.059 0.112,0 0.213,0.046 0.286,0.121 0.073,0.075 0.119,0.178 0.119,0.291 0,0.114 -0.046,0.217 -0.119,0.291 -0.073,0.075 -0.174,0.122 -0.286,0.122 -0.033,0 -0.059,-0.026 -0.059,-0.059l0 0z"/>
    <path class="fil1" d="M7.093 4.53c0,0.196 0.155,0.354 0.346,0.354l0 -0.707c-0.191,0 -0.346,0.158 -0.346,0.353l0 0z"/>
    <path class="fil2" d="M7.152 4.53c0,0.082 0.033,0.156 0.085,0.209 0.038,0.04 0.088,0.068 0.143,0.08l0 -0.577c-0.056,0.012 -0.105,0.04 -0.143,0.08 -0.052,0.053 -0.085,0.127 -0.085,0.208l0 0zm0 0.291c-0.073,-0.074 -0.118,-0.177 -0.118,-0.291 0,-0.113 0.045,-0.216 0.118,-0.291 0.074,-0.075 0.175,-0.121 0.287,-0.121 0.033,0 0.059,0.026 0.059,0.059l0 0.707c0,0.033 -0.026,0.059 -0.059,0.059 -0.112,0 -0.213,-0.046 -0.286,-0.121l-0.001 -0.001 0 0z"/>
    <path class="fil3" d="M9.731 6.213c0,0.04 0,0.081 0,0.122 0.003,0.23 -0.014,0.411 -0.044,0.557 0,0.001 -0.001,0.001 -0.001,0.002 -0.138,0.677 -0.558,0.635 -0.596,1.499 -0.007,0.156 0.009,0.29 0.042,0.407 0.18,0.636 0.872,0.737 1.175,0.757 -0.367,-0.276 -0.465,-0.554 -0.414,-0.843 0.083,-0.447 0.399,-0.741 0.598,-1.112 0.482,-0.804 0.899,-1.824 0.89,-2.896 -0.015,-1.821 -1.076,-2.731 -2.369,-2.782 -1.293,-0.052 -2.211,1.424 -2.183,2.637 0.028,1.205 0.582,2.149 1.11,2.777 0.292,-0.233 0.424,-0.589 0.238,-1.141 -0.467,-0.345 -0.738,-0.808 -0.738,-1.184l0 -0.129c-0.191,0 -0.346,-0.158 -0.346,-0.354 0,-0.195 0.155,-0.353 0.346,-0.353l0 -0.177c0.584,-0.268 1.699,-0.297 2.446,-1.089 0.14,0.871 0.362,0.862 0.606,1.089l0 0.177c0.191,0 0.345,0.158 0.345,0.353 0,0.196 -0.154,0.354 -0.345,0.354l0 0.129c0,0.382 -0.28,0.854 -0.76,1.2l0 0z"/>
    <path class="fil2" d="M9.79 6.243l0 0.03 -0.001 0.062c0.002,0.118 -0.002,0.223 -0.009,0.315l0 0.002c-0.008,0.092 -0.02,0.176 -0.035,0.251l-0.002 0.005c-0.063,0.306 -0.18,0.469 -0.295,0.63 -0.141,0.195 -0.278,0.387 -0.299,0.858 -0.004,0.075 -0.002,0.144 0.005,0.209 0.007,0.064 0.019,0.124 0.035,0.18 0.084,0.297 0.289,0.47 0.509,0.571 0.144,0.066 0.295,0.102 0.424,0.122 -0.108,-0.104 -0.183,-0.208 -0.232,-0.313 -0.069,-0.152 -0.082,-0.305 -0.054,-0.461l0.001 -0.005c0.057,-0.308 0.219,-0.542 0.38,-0.777 0.078,-0.113 0.157,-0.227 0.222,-0.348l0.003 -0.005c0.259,-0.433 0.5,-0.93 0.664,-1.462 0.137,-0.446 0.22,-0.918 0.217,-1.4 -0.008,-0.85 -0.245,-1.496 -0.628,-1.946 -0.421,-0.495 -1.022,-0.752 -1.685,-0.779 -0.034,-0.001 -0.068,-0.001 -0.1,0 -0.573,0.013 -1.066,0.338 -1.421,0.8 -0.359,0.465 -0.577,1.067 -0.6,1.63 -0.002,0.05 -0.002,0.099 -0.001,0.148 0.012,0.525 0.125,0.999 0.293,1.419 0.203,0.509 0.486,0.936 0.765,1.276 0.114,-0.103 0.197,-0.228 0.235,-0.382 0.042,-0.173 0.03,-0.383 -0.054,-0.64 -0.228,-0.171 -0.41,-0.371 -0.537,-0.574 -0.136,-0.219 -0.21,-0.444 -0.21,-0.646l0 -0.074c-0.088,-0.014 -0.167,-0.056 -0.227,-0.117 -0.074,-0.075 -0.119,-0.178 -0.119,-0.292 0,-0.113 0.045,-0.216 0.118,-0.291 0.061,-0.061 0.14,-0.104 0.228,-0.117l0 -0.122c0,-0.026 0.016,-0.048 0.04,-0.056 0.182,-0.082 0.41,-0.142 0.662,-0.208 0.566,-0.148 1.253,-0.328 1.76,-0.865 0.022,-0.024 0.06,-0.025 0.083,-0.003 0.01,0.01 0.017,0.022 0.018,0.036 0.11,0.681 0.269,0.802 0.448,0.939 0.046,0.034 0.093,0.07 0.14,0.114 0.013,0.011 0.019,0.027 0.019,0.043l0 0.122c0.088,0.014 0.167,0.056 0.227,0.117 0.073,0.075 0.119,0.178 0.119,0.291 0,0.114 -0.046,0.217 -0.119,0.291l0 0.001c-0.06,0.061 -0.139,0.104 -0.227,0.117l0 0.074c0,0.206 -0.076,0.434 -0.217,0.657 -0.129,0.203 -0.313,0.402 -0.543,0.573l0 0zm-0.118 0.03l0 -0.059c-0.001,-0.019 0.008,-0.037 0.024,-0.049 0.229,-0.165 0.411,-0.359 0.537,-0.558 0.129,-0.204 0.199,-0.411 0.199,-0.594l0 -0.129c0,-0.033 0.026,-0.059 0.059,-0.059 0.079,0 0.15,-0.033 0.202,-0.086 0.052,-0.053 0.084,-0.127 0.084,-0.209 0,-0.081 -0.032,-0.155 -0.084,-0.208 -0.052,-0.053 -0.123,-0.086 -0.202,-0.086 -0.033,0 -0.059,-0.027 -0.059,-0.059l0 -0.151c-0.038,-0.034 -0.076,-0.062 -0.112,-0.09 -0.188,-0.143 -0.357,-0.271 -0.474,-0.902 -0.519,0.498 -1.183,0.672 -1.734,0.816 -0.233,0.061 -0.446,0.116 -0.614,0.188l0 0.139c0,0.032 -0.026,0.059 -0.059,0.059 -0.079,0 -0.151,0.033 -0.202,0.086 -0.052,0.053 -0.085,0.127 -0.085,0.208 0,0.082 0.033,0.156 0.085,0.209 0.051,0.053 0.123,0.086 0.202,0.086 0.033,0 0.059,0.026 0.059,0.059l0 0.129c0,0.18 0.067,0.383 0.192,0.584 0.122,0.196 0.299,0.388 0.522,0.553 0.01,0.007 0.017,0.017 0.021,0.028 0.097,0.287 0.111,0.525 0.062,0.723 -0.05,0.201 -0.163,0.358 -0.32,0.483 -0.025,0.019 -0.061,0.016 -0.081,-0.008 -0.298,-0.355 -0.605,-0.809 -0.822,-1.353 -0.173,-0.432 -0.29,-0.92 -0.302,-1.461 -0.001,-0.051 -0.001,-0.103 0.001,-0.155 0.024,-0.585 0.251,-1.213 0.624,-1.697 0.376,-0.488 0.9,-0.832 1.512,-0.846 0.036,-0.001 0.072,-0.001 0.107,0.001 0.696,0.028 1.326,0.299 1.771,0.821 0.4,0.469 0.648,1.141 0.655,2.02 0.004,0.495 -0.081,0.979 -0.222,1.435 -0.167,0.543 -0.412,1.048 -0.676,1.489 -0.067,0.126 -0.148,0.243 -0.228,0.359 -0.155,0.224 -0.309,0.449 -0.362,0.732l0 0.003c-0.024,0.134 -0.014,0.264 0.045,0.392 0.06,0.131 0.17,0.261 0.345,0.394 0.016,0.011 0.025,0.03 0.024,0.051 -0.002,0.032 -0.03,0.057 -0.063,0.055 -0.156,-0.01 -0.412,-0.042 -0.654,-0.153 -0.247,-0.114 -0.478,-0.309 -0.574,-0.647 -0.017,-0.061 -0.03,-0.128 -0.038,-0.199 -0.008,-0.07 -0.01,-0.145 -0.006,-0.226 0.023,-0.506 0.171,-0.712 0.321,-0.922 0.108,-0.15 0.218,-0.303 0.276,-0.585l0.001 -0.003c0.014,-0.07 0.026,-0.149 0.033,-0.239l0 -0.002c0.007,-0.091 0.011,-0.192 0.01,-0.305l0 -0.062 0 0z"/>
   </g>
  </g>
 </g>
</svg>
