<?xml version="1.0" encoding="UTF-8"?>
<!DOCTYPE svg PUBLIC "-//W3C//DTD SVG 1.1//EN" "http://www.w3.org/Graphics/SVG/1.1/DTD/svg11.dtd">
<!-- Creator: CorelDRAW 2018 (64-Bit) -->
<svg xmlns="http://www.w3.org/2000/svg" xml:space="preserve" width="80px" height="60px" version="1.1" style="shape-rendering:geometricPrecision; text-rendering:geometricPrecision; image-rendering:optimizeQuality; fill-rule:evenodd; clip-rule:evenodd"
viewBox="0 0 36.665 27.499"
 xmlns:xlink="http://www.w3.org/1999/xlink">
 <defs>
  <style type="text/css">
   <![CDATA[
    .fil0 {fill:none}
    .fil1 {fill:#00F4FF}
    .fil3 {fill:white}
    .fil2 {fill:#052337;fill-rule:nonzero}
   ]]>
  </style>
 </defs>
 <g id="Layer_x0020_1">
  <metadata id="CorelCorpID_0Corel-Layer"/>
  <g id="_2054377705616">
   <rect class="fil0" width="36.665" height="27.499"/>
   <g>
    <path class="fil1" d="M2.951 11.844l15.524 0c1.03,0 1.866,0.766 1.866,1.71l0 11.141c0,0.945 -0.836,1.711 -1.866,1.711l-15.524 0c-1.03,0 -1.865,-0.766 -1.865,-1.711l0 -11.14c0,-0.945 0.835,-1.711 1.865,-1.711z"/>
    <path class="fil2" d="M2.797 11.675l15.833 0c0.521,0 0.991,0.213 1.329,0.55 0.338,0.346 0.551,0.815 0.551,1.33l0 11.147c0,0.514 -0.213,0.984 -0.551,1.329l-0.008 0.008c-0.345,0.337 -0.807,0.543 -1.321,0.543l-15.833 0c-0.514,0 -0.984,-0.213 -1.329,-0.551 -0.338,-0.345 -0.551,-0.815 -0.551,-1.329l0 -11.147c0,-0.514 0.213,-0.984 0.551,-1.329 0.345,-0.338 0.815,-0.551 1.329,-0.551l0 0zm15.833 0.337l-15.833 0c-0.426,0 -0.808,0.177 -1.087,0.456 -0.279,0.279 -0.456,0.661 -0.456,1.087l0 11.147c0,0.419 0.177,0.808 0.456,1.087 0.279,0.279 0.661,0.448 1.087,0.448l15.833 0c0.418,0 0.8,-0.169 1.079,-0.441l0.007 -0.007c0.279,-0.279 0.456,-0.668 0.456,-1.087l0 -11.147c0,-0.426 -0.177,-0.808 -0.456,-1.087 -0.279,-0.279 -0.66,-0.456 -1.086,-0.456l0 0z"/>
    <path class="fil2" d="M1.027 15.765c-0.088,-0.037 -0.132,-0.132 -0.096,-0.22 0.037,-0.088 0.133,-0.125 0.221,-0.096 2.798,1.153 4.795,1.924 7.395,2.93l0.147 0.059c0.11,0.044 0.22,0.088 0.33,0.132 0.507,0.206 0.948,0.389 1.689,0.389 0.742,0 1.19,-0.183 1.697,-0.389 0.102,-0.044 0.213,-0.088 0.33,-0.132 1.315,-0.514 2.482,-0.977 3.665,-1.454 1.204,-0.485 2.43,-0.977 3.87,-1.535 0.088,-0.029 0.191,0.015 0.22,0.103 0.037,0.081 -0.007,0.184 -0.095,0.213 -1.432,0.558 -2.659,1.05 -3.863,1.535 -1.182,0.47 -2.343,0.94 -3.679,1.454 -0.11,0.044 -0.221,0.088 -0.323,0.132 -0.536,0.22 -1.014,0.411 -1.822,0.411 -0.808,0 -1.278,-0.191 -1.814,-0.411 -0.11,-0.044 -0.213,-0.088 -0.33,-0.132l-0.147 -0.059c-2.592,-1.006 -4.597,-1.777 -7.395,-2.93l0 0z"/>
    <polygon class="fil3" points="12.835,18.688 12.835,21.39 8.598,21.39 8.598,18.688 10.574,18.313 "/>
    <path class="fil2" d="M13.004 18.688l0 2.702c0,0.096 -0.08,0.169 -0.169,0.169l-4.237 0c-0.095,0 -0.176,-0.073 -0.176,-0.169l0 -2.702c0,-0.088 0.066,-0.162 0.154,-0.169l1.968 -0.367c0.015,-0.008 0.037,-0.008 0.059,0l2.254 0.367c0.088,0.015 0.147,0.088 0.147,0.169zm-0.345 2.533l0 -2.394 -2.085 -0.337 -1.807 0.337 0 2.394 3.892 0 0 0z"/>
    <path class="fil2" d="M6.674 10.72c0,0.096 -0.073,0.169 -0.169,0.169 -0.095,0 -0.169,-0.073 -0.169,-0.169 0,-0.61 0.25,-1.168 0.654,-1.579l0 0c0.404,-0.404 0.962,-0.653 1.572,-0.653l4.303 0c0.609,0 1.167,0.249 1.571,0.653l0.015 0.015c0.397,0.404 0.646,0.954 0.646,1.564 0,0.096 -0.081,0.169 -0.176,0.169 -0.096,0 -0.169,-0.073 -0.169,-0.169 0,-0.514 -0.206,-0.984 -0.543,-1.329l-0.015 -0.008c-0.338,-0.337 -0.815,-0.55 -1.329,-0.55l-4.303 0c-0.515,0 -0.992,0.213 -1.33,0.55 -0.345,0.346 -0.558,0.816 -0.558,1.337l0 0z"/>
    <path class="fil3" d="M20.341 15.611l0 -2.056c0,-0.94 -0.771,-1.711 -1.711,-1.711l-15.833 0c-0.94,0 -1.711,0.771 -1.711,1.711l0 2.056c2.856,1.168 4.876,1.953 7.542,2.981 0.293,0.118 0.55,0.228 0.822,0.323l0.551 0.147c0.205,0.044 0.44,0.067 0.712,0.067 0.242,0 0.448,-0.023 0.639,-0.052l0.668 -0.176c0.257,-0.088 0.5,-0.198 0.779,-0.309 2.665,-1.028 4.685,-1.88 7.542,-2.981z"/>
    <path class="fil2" d="M20.172 15.493l0 -1.938c0,-0.426 -0.177,-0.808 -0.456,-1.087 -0.279,-0.279 -0.66,-0.456 -1.086,-0.456l-15.833 0c-0.426,0 -0.808,0.177 -1.087,0.456 -0.279,0.279 -0.456,0.661 -0.456,1.087l0 1.938c2.747,1.124 4.73,1.895 7.293,2.886l0.147 0.059c0.11,0.044 0.22,0.088 0.33,0.132 0.162,0.066 0.316,0.132 0.47,0.184l0.544 0.147c0.102,0.014 0.205,0.029 0.308,0.044 0.11,0.007 0.235,0.015 0.367,0.015 0.118,0 0.228,-0.008 0.323,-0.015 0.103,-0.008 0.199,-0.022 0.279,-0.037l0.661 -0.169c0.14,-0.051 0.279,-0.11 0.426,-0.169 0.11,-0.044 0.221,-0.088 0.338,-0.132 1.3,-0.507 2.46,-0.969 3.635,-1.447 1.182,-0.47 2.387,-0.954 3.797,-1.498zm0.338 -1.938l0 2.173 -0.111 0.037c-1.439,0.566 -2.68,1.058 -3.899,1.542 -1.168,0.47 -2.321,0.933 -3.643,1.447 -0.11,0.044 -0.22,0.088 -0.323,0.132 -0.154,0.059 -0.293,0.118 -0.455,0.177l-0.015 0 -0.683 0.183c-0.102,0.015 -0.205,0.029 -0.316,0.037 -0.11,0.007 -0.227,0.015 -0.352,0.015 -0.132,0 -0.264,-0.008 -0.396,-0.015 -0.125,-0.015 -0.243,-0.029 -0.353,-0.052 -0.147,-0.029 -0.426,-0.102 -0.565,-0.154 -0.177,-0.059 -0.338,-0.125 -0.5,-0.191 -0.11,-0.044 -0.213,-0.088 -0.33,-0.132l-0.147 -0.059c-2.593,-1.006 -4.597,-1.777 -7.403,-2.93l-0.102 -0.044 0 -2.166c0,-0.514 0.212,-0.991 0.55,-1.329 0.345,-0.338 0.815,-0.551 1.329,-0.551l15.833 0c0.522,0 0.992,0.213 1.329,0.551 0.338,0.338 0.551,0.815 0.551,1.329l0.001 0z"/>
   </g>
  </g>
 </g>
</svg>
