<?xml version="1.0" encoding="UTF-8"?>
<!DOCTYPE svg PUBLIC "-//W3C//DTD SVG 1.1//EN" "http://www.w3.org/Graphics/SVG/1.1/DTD/svg11.dtd">
<!-- Creator: CorelDRAW 2018 (64-Bit) -->
<svg xmlns="http://www.w3.org/2000/svg" xml:space="preserve" width="80px" height="60px" version="1.1" style="shape-rendering:geometricPrecision; text-rendering:geometricPrecision; image-rendering:optimizeQuality; fill-rule:evenodd; clip-rule:evenodd"
viewBox="0 0 219.095 164.322"
 xmlns:xlink="http://www.w3.org/1999/xlink">
 <defs>
  <style type="text/css">
   <![CDATA[
    .fil0 {fill:none}
    .fil3 {fill:#00F4FF}
    .fil1 {fill:white}
    .fil2 {fill:#052337;fill-rule:nonzero}
   ]]>
  </style>
 </defs>
 <g id="Layer_x0020_1">
  <metadata id="CorelCorpID_0Corel-Layer"/>
  <g id="_2054466324976">
   <rect class="fil0" x="-0.001" width="219.095" height="164.322"/>
   <g>
    <path class="fil1" d="M92.548 61.691c-9.134,-6.619 -21.49,-10.677 -35.084,-10.677 -28.149,0 -50.956,17.396 -50.956,38.856 0,12.405 7.632,23.464 19.516,30.576l-1.738 21.529 15.626 -15.626c5.078,1.424 10.53,2.249 16.216,2.357l36.42 -67.016 0 0.001z"/>
    <path class="fil2" d="M91.223 62.005c-4.411,-3.064 -9.538,-5.54 -15.175,-7.259 -5.737,-1.748 -12.012,-2.711 -18.583,-2.711 -13.849,0 -26.362,4.273 -35.418,11.168 -8.968,6.845 -14.517,16.275 -14.517,26.666 0,5.893 1.777,11.463 4.95,16.423 3.31,5.196 8.142,9.733 14.066,13.269 0.343,0.207 0.52,0.59 0.491,0.963l-1.503 18.751 13.652 -13.644c0.285,-0.295 0.708,-0.373 1.071,-0.245 2.495,0.697 5.097,1.248 7.769,1.63 2.446,0.364 4.96,0.58 7.504,0.659l35.693 -65.67 0 0zm-14.576 -9.213c6.178,1.877 11.767,4.636 16.511,8.074 0.403,0.295 0.54,0.855 0.295,1.316l-36.41 66.986c-0.177,0.343 -0.531,0.569 -0.934,0.559 -2.867,-0.049 -5.667,-0.285 -8.378,-0.677 -2.573,-0.374 -5.088,-0.894 -7.514,-1.552l-15.204 15.204c-0.206,0.206 -0.501,0.324 -0.805,0.295 -0.57,-0.04 -0.992,-0.53 -0.943,-1.1l1.679 -20.911c-5.933,-3.654 -10.804,-8.29 -14.193,-13.593 -3.378,-5.294 -5.274,-11.237 -5.274,-17.523 0,-11.069 5.864,-21.068 15.332,-28.287 9.39,-7.171 22.355,-11.6 36.656,-11.6 6.758,0 13.24,1.001 19.182,2.808l0 0.001z"/>
    <path class="fil3" d="M98.511 62.162c29.593,0 53.588,18.299 53.588,40.86 0,13.053 -8.024,24.673 -20.528,32.157l1.827 22.64 -16.433 -16.433c-5.755,1.611 -11.973,2.495 -18.455,2.495 -29.594,0 -53.579,-18.298 -53.579,-40.859 0,-22.561 23.985,-40.86 53.579,-40.86l0.001 0z"/>
    <path class="fil2" d="M98.511 61.141c15.027,0 28.64,4.655 38.511,12.179 9.95,7.582 16.099,18.082 16.099,29.701 0,6.6 -1.994,12.847 -5.54,18.407 -3.555,5.578 -8.682,10.451 -14.939,14.291l1.777 22.021c0.049,0.56 -0.373,1.061 -0.943,1.1 -0.314,0.03 -0.599,-0.088 -0.805,-0.295l-16.01 -16.01c-2.779,0.747 -5.658,1.336 -8.623,1.729 -3.104,0.422 -6.296,0.638 -9.527,0.638 -15.028,0 -28.641,-4.656 -38.512,-12.179 -9.94,-7.582 -16.099,-18.082 -16.099,-29.701 0,-11.619 6.149,-22.119 16.099,-29.701 9.871,-7.524 23.484,-12.179 38.512,-12.179l0 -0.001zm37.265 13.81c-9.518,-7.268 -22.699,-11.757 -37.265,-11.757 -14.566,0 -27.747,4.489 -37.264,11.757 -9.448,7.199 -15.293,17.129 -15.293,28.071 0,10.951 5.845,20.871 15.293,28.081 9.518,7.259 22.699,11.747 37.264,11.747 3.173,0 6.267,-0.206 9.253,-0.608 3.054,-0.413 6.011,-1.022 8.859,-1.818 0.363,-0.127 0.776,-0.049 1.071,0.236l14.458 14.458 -1.601 -19.859c-0.03,-0.374 0.157,-0.757 0.501,-0.963 6.227,-3.733 11.325,-8.506 14.811,-13.967 3.33,-5.225 5.206,-11.099 5.206,-17.306 0,-10.942 -5.844,-20.872 -15.293,-28.071l0 -0.001z"/>
    <circle class="fil1" cx="74.113" cy="103.169" r="6.276"/>
    <path class="fil2" d="M74.113 95.862c2.014,0 3.841,0.825 5.167,2.141 1.315,1.326 2.131,3.153 2.131,5.166 0,2.014 -0.816,3.851 -2.131,5.167 -1.326,1.326 -3.153,2.141 -5.167,2.141 -2.014,0 -3.84,-0.815 -5.166,-2.141 -1.326,-1.326 -2.141,-3.153 -2.141,-5.167 0,-2.013 0.815,-3.84 2.141,-5.166 1.316,-1.316 3.143,-2.141 5.166,-2.141zm3.713 3.594c-0.953,-0.952 -2.27,-1.542 -3.713,-1.542 -1.453,0 -2.77,0.59 -3.722,1.542 -0.944,0.953 -1.533,2.259 -1.533,3.713 0,1.453 0.589,2.769 1.533,3.712 0.952,0.952 2.269,1.542 3.722,1.542 1.444,0 2.76,-0.59 3.713,-1.542 0.943,-0.943 1.532,-2.259 1.532,-3.712 0,-1.454 -0.589,-2.76 -1.532,-3.713z"/>
    <circle class="fil1" cx="98.511" cy="103.169" r="6.276"/>
    <path class="fil2" d="M98.511 95.862c2.013,0 3.84,0.825 5.166,2.141 1.326,1.326 2.141,3.153 2.141,5.166 0,2.014 -0.815,3.851 -2.141,5.167 -1.326,1.326 -3.153,2.141 -5.166,2.141 -2.014,0 -3.841,-0.815 -5.157,-2.141 -1.326,-1.326 -2.151,-3.153 -2.151,-5.167 0,-2.013 0.825,-3.84 2.141,-5.166 1.326,-1.316 3.153,-2.141 5.167,-2.141zm3.713 3.594c-0.953,-0.952 -2.259,-1.542 -3.713,-1.542 -1.453,0 -2.759,0.59 -3.712,1.542 -0.953,0.953 -1.542,2.259 -1.542,3.713 0,1.453 0.589,2.769 1.542,3.712 0.943,0.952 2.259,1.542 3.712,1.542 1.454,0 2.76,-0.59 3.713,-1.542 0.952,-0.943 1.542,-2.259 1.542,-3.712 0,-1.454 -0.59,-2.76 -1.542,-3.713z"/>
    <circle class="fil1" cx="122.918" cy="103.169" r="6.276"/>
    <path class="fil2" d="M122.918 95.862c2.014,0 3.841,0.825 5.167,2.141 1.315,1.326 2.131,3.153 2.131,5.166 0,2.014 -0.816,3.851 -2.131,5.167 -1.326,1.326 -3.153,2.141 -5.167,2.141 -2.014,0 -3.84,-0.815 -5.166,-2.141 -1.326,-1.326 -2.141,-3.153 -2.141,-5.167 0,-2.013 0.815,-3.84 2.141,-5.166 1.316,-1.316 3.143,-2.141 5.166,-2.141zm3.713 3.594c-0.952,-0.952 -2.269,-1.542 -3.712,-1.542 -1.453,0 -2.77,0.59 -3.722,1.542 -0.944,0.953 -1.533,2.259 -1.533,3.713 0,1.453 0.589,2.769 1.533,3.712 0.952,0.952 2.269,1.542 3.722,1.542 1.444,0 2.76,-0.59 3.712,-1.542 0.944,-0.943 1.533,-2.259 1.533,-3.712 0,-1.454 -0.589,-2.76 -1.533,-3.713z"/>
   </g>
  </g>
 </g>
</svg>
