<?xml version="1.0" encoding="UTF-8"?>
<!DOCTYPE svg PUBLIC "-//W3C//DTD SVG 1.1//EN" "http://www.w3.org/Graphics/SVG/1.1/DTD/svg11.dtd">
<!-- Creator: CorelDRAW 2018 (64-Bit) -->
<svg xmlns="http://www.w3.org/2000/svg" xml:space="preserve" width="81px" height="60px" version="1.1" style="shape-rendering:geometricPrecision; text-rendering:geometricPrecision; image-rendering:optimizeQuality; fill-rule:evenodd; clip-rule:evenodd"
viewBox="0 0 23.634 17.582"
 xmlns:xlink="http://www.w3.org/1999/xlink">
 <defs>
  <style type="text/css">
   <![CDATA[
    .fil0 {fill:none}
    .fil2 {fill:#00F4FF;fill-rule:nonzero}
    .fil1 {fill:#052337;fill-rule:nonzero}
   ]]>
  </style>
 </defs>
 <g id="Layer_x0020_1">
  <metadata id="CorelCorpID_0Corel-Layer"/>
  <g id="_2054406302352">
   <rect class="fil0" width="23.442" height="17.582"/>
   <g>
    <path class="fil1" d="M0.843 16.788c-0.059,0 -0.108,-0.052 -0.108,-0.111 0,-0.061 0.049,-0.11 0.108,-0.11l3.144 0c0.059,0 0.108,0.049 0.108,0.11 0,0.059 -0.049,0.111 -0.108,0.111l-3.144 0z"/>
    <path class="fil2" d="M4.634 12.052l-0.904 0.519c-0.587,0.341 -0.636,1.362 -0.11,2.274l0.067 0.115 3.036 -1.753 -0.067 -0.115c-0.526,-0.912 -1.437,-1.381 -2.022,-1.04z"/>
    <path class="fil1" d="M4.688 12.147l-0.901 0.519c-0.26,0.151 -0.401,0.459 -0.421,0.834 -0.018,0.39 0.095,0.847 0.344,1.281l0.015 0.03 2.849 -1.645 -0.015 -0.026c-0.252,-0.433 -0.593,-0.762 -0.94,-0.941 -0.336,-0.17 -0.672,-0.203 -0.931,-0.052l0 0zm-1.012 0.331l0.906 -0.523c0.326,-0.188 0.737,-0.154 1.135,0.051 0.385,0.195 0.76,0.554 1.032,1.024l0.069 0.121c0.031,0.054 0.013,0.12 -0.039,0.151l-3.039 1.753c-0.051,0.031 -0.118,0.013 -0.148,-0.038l-0.067 -0.119c-0.275,-0.472 -0.398,-0.977 -0.377,-1.409 0.023,-0.449 0.2,-0.823 0.528,-1.011l0 0z"/>
    <path class="fil2" d="M4.793 11.862c-0.329,-0.572 -0.806,-0.919 -1.058,-0.775l-0.39 0.226c-0.251,0.146 -0.19,0.731 0.141,1.304l0.041 0.072 1.309 -0.755 -0.043 -0.072 0 0z"/>
    <path class="fil1" d="M4.685 11.893c-0.154,-0.262 -0.339,-0.47 -0.513,-0.598 -0.157,-0.116 -0.298,-0.162 -0.383,-0.113l-0.387 0.226c-0.085,0.049 -0.116,0.192 -0.095,0.385 0.023,0.218 0.113,0.482 0.262,0.747l1.116 -0.647 0 0zm-0.385 -0.775c0.203,0.149 0.416,0.39 0.588,0.688l0.043 0.074c0.029,0.052 0.011,0.118 -0.041,0.149l-1.309 0.755c-0.051,0.03 -0.118,0.013 -0.148,-0.041l-0.041 -0.072c-0.172,-0.298 -0.278,-0.603 -0.303,-0.855 -0.031,-0.28 0.036,-0.5 0.202,-0.598l0.388 -0.223c0.169,-0.098 0.393,-0.044 0.621,0.123l0 0z"/>
    <path class="fil2" d="M1.225 13.015c-0.292,0 -0.529,0.236 -0.529,0.528 0,0.293 0.237,0.532 0.529,0.532 0.293,0 0.531,-0.239 0.531,-0.532 0,-0.292 -0.238,-0.528 -0.531,-0.528z"/>
    <path class="fil1" d="M1.225 13.125c-0.115,0 -0.221,0.046 -0.295,0.123 -0.077,0.075 -0.123,0.18 -0.123,0.295 0,0.118 0.046,0.221 0.123,0.298l0.003 0.005c0.077,0.072 0.179,0.118 0.292,0.118 0.116,0 0.221,-0.046 0.298,-0.123 0.074,-0.077 0.123,-0.18 0.123,-0.298 0,-0.115 -0.049,-0.22 -0.123,-0.295 -0.077,-0.077 -0.182,-0.123 -0.298,-0.123zm-0.452 -0.033c0.116,-0.116 0.278,-0.188 0.452,-0.188 0.177,0 0.336,0.072 0.452,0.188l0 0c0.115,0.118 0.187,0.277 0.187,0.451 0,0.177 -0.072,0.337 -0.187,0.455 -0.116,0.115 -0.275,0.187 -0.452,0.187 -0.172,0 -0.331,-0.069 -0.444,-0.182l-0.008 -0.005c-0.115,-0.118 -0.187,-0.278 -0.187,-0.455 0,-0.174 0.072,-0.336 0.187,-0.451l0 0z"/>
    <path class="fil1" d="M3.222 12.062c0.051,-0.03 0.118,-0.012 0.149,0.039 0.031,0.051 0.015,0.121 -0.036,0.151l-1.679 1.012c-0.051,0.03 -0.118,0.015 -0.151,-0.036 -0.031,-0.054 -0.013,-0.121 0.038,-0.152l1.679 -1.014z"/>
    <path class="fil1" d="M1.397 14.095c-0.02,-0.056 0.008,-0.12 0.064,-0.141 0.057,-0.023 0.121,0.008 0.142,0.064l0.988 2.621c0.02,0.056 -0.008,0.118 -0.064,0.141 -0.057,0.02 -0.121,-0.008 -0.142,-0.064l-0.988 -2.621z"/>
    <path class="fil1" d="M6.163 11.369c0,0.062 -0.048,0.111 -0.11,0.111 -0.059,0 -0.11,-0.049 -0.11,-0.111l0 -5.005c0,-0.156 0.066,-0.302 0.172,-0.408 0.102,-0.102 0.248,-0.169 0.408,-0.169l12.16 0c0.16,0 0.303,0.067 0.408,0.169 0.106,0.106 0.17,0.252 0.17,0.408l0 7.89c0,0.157 -0.064,0.303 -0.17,0.408 -0.105,0.103 -0.248,0.17 -0.408,0.17l-12.16 0c-0.08,0 -0.157,-0.018 -0.226,-0.046 -0.072,-0.031 -0.139,-0.077 -0.19,-0.134 -0.044,-0.043 -0.041,-0.113 0.002,-0.154 0.044,-0.041 0.113,-0.041 0.154,0.003 0.034,0.036 0.075,0.064 0.118,0.082 0.044,0.018 0.09,0.028 0.142,0.028l12.16 0c0.098,0 0.188,-0.041 0.254,-0.105 0.065,-0.064 0.106,-0.154 0.106,-0.252l0 -7.89c0,-0.097 -0.041,-0.187 -0.106,-0.251 -0.066,-0.064 -0.156,-0.105 -0.254,-0.105l-12.16 0c-0.1,0 -0.19,0.041 -0.254,0.105 -0.065,0.064 -0.106,0.154 -0.106,0.251l0 5.005 0 0z"/>
    <path class="fil1" d="M9.764 16.788c-0.059,0 -0.11,-0.052 -0.11,-0.111 0,-0.061 0.051,-0.11 0.11,-0.11l5.678 0c0.059,0 0.108,0.049 0.108,0.11 0,0.059 -0.049,0.111 -0.108,0.111l-5.678 0z"/>
    <path class="fil1" d="M10.85 16.477c0,0.059 -0.051,0.108 -0.11,0.108 -0.062,0 -0.111,-0.049 -0.111,-0.108l0 -1.756c0,-0.061 0.049,-0.11 0.111,-0.11 0.059,0 0.11,0.049 0.11,0.11l0 1.756z"/>
    <path class="fil1" d="M14.577 16.477c0,0.059 -0.049,0.108 -0.111,0.108 -0.059,0 -0.11,-0.049 -0.11,-0.108l0 -1.756c0,-0.061 0.051,-0.11 0.11,-0.11 0.062,0 0.111,0.049 0.111,0.11l0 1.756z"/>
    <path class="fil1" d="M20.478 15.738c-0.006,-0.059 0.038,-0.113 0.097,-0.118 0.062,-0.005 0.116,0.038 0.121,0.097l0.097 1.091c0.005,0.062 -0.038,0.116 -0.097,0.121 -0.062,0.005 -0.116,-0.039 -0.121,-0.1l-0.097 -1.091z"/>
    <path class="fil1" d="M20.575 16.829c-0.005,-0.059 0.039,-0.113 0.1,-0.118 0.052,-0.005 0.098,0.025 0.113,0.072 0.044,0.015 0.075,0.056 0.075,0.105 0,0.059 -0.049,0.108 -0.111,0.108 -0.043,0 -0.082,-0.016 -0.113,-0.041l-0.01 -0.011c-0.031,-0.028 -0.049,-0.072 -0.054,-0.115l0 0z"/>
    <path class="fil1" d="M20.752 16.995c-0.061,0 -0.11,-0.048 -0.11,-0.107 0,-0.062 0.049,-0.111 0.11,-0.111l1.348 0c0.059,0 0.108,0.049 0.108,0.111 0,0.059 -0.049,0.107 -0.108,0.107l-1.348 0z"/>
    <path class="fil1" d="M22.1 16.995c-0.062,0 -0.111,-0.048 -0.111,-0.107 0,-0.049 0.031,-0.09 0.075,-0.106 0.015,-0.046 0.061,-0.077 0.113,-0.071 0.059,0.005 0.105,0.059 0.097,0.118 -0.002,0.046 -0.023,0.087 -0.051,0.115 -0.033,0.034 -0.074,0.051 -0.123,0.051z"/>
    <path class="fil1" d="M22.274 16.829c-0.005,0.061 -0.056,0.105 -0.118,0.1 -0.059,-0.005 -0.105,-0.059 -0.097,-0.121l0.097 -1.091c0.005,-0.059 0.059,-0.102 0.118,-0.097 0.062,0.005 0.106,0.059 0.1,0.118l-0.1 1.091z"/>
    <path class="fil1" d="M22.436 15.076c0.062,0 0.11,0.048 0.11,0.11 0,0.059 -0.048,0.108 -0.11,0.108l-2.022 0c-0.06,0 -0.111,-0.049 -0.111,-0.108 0,-0.062 0.051,-0.11 0.111,-0.11l2.022 0z"/>
    <path class="fil1" d="M20.408 15.076c0.062,-0.003 0.113,0.043 0.116,0.102 0.002,0.052 -0.028,0.095 -0.075,0.111 -0.012,0.041 -0.051,0.072 -0.097,0.074 -0.059,0.003 -0.111,-0.043 -0.116,-0.103l0 -0.012c0,-0.049 0.021,-0.09 0.052,-0.121 0.028,-0.028 0.066,-0.046 0.107,-0.051l0.013 0 0 0z"/>
    <path class="fil1" d="M20.236 15.263c-0.005,-0.059 0.039,-0.113 0.098,-0.121 0.061,-0.005 0.115,0.039 0.12,0.098l0.041 0.362c0.006,0.059 -0.038,0.113 -0.097,0.12 -0.062,0.006 -0.116,-0.038 -0.121,-0.097l-0.041 -0.362z"/>
    <path class="fil1" d="M20.277 15.625c-0.007,-0.059 0.036,-0.116 0.098,-0.121 0.051,-0.005 0.097,0.026 0.116,0.072 0.041,0.016 0.071,0.057 0.071,0.105 0,0.059 -0.048,0.111 -0.107,0.111 -0.052,0 -0.093,-0.021 -0.124,-0.052 -0.03,-0.03 -0.048,-0.071 -0.054,-0.115z"/>
    <path class="fil1" d="M20.455 15.792c-0.062,0 -0.111,-0.052 -0.111,-0.111 0,-0.061 0.049,-0.11 0.111,-0.11l1.942 0c0.062,0 0.111,0.049 0.111,0.11 0,0.059 -0.049,0.111 -0.111,0.111l-1.942 0z"/>
    <path class="fil1" d="M22.397 15.792c-0.061,0 -0.11,-0.052 -0.11,-0.111 0,-0.048 0.031,-0.09 0.074,-0.105 0.018,-0.046 0.065,-0.077 0.116,-0.072 0.059,0.005 0.103,0.062 0.098,0.121 -0.006,0.043 -0.024,0.085 -0.054,0.115 -0.031,0.031 -0.075,0.052 -0.124,0.052z"/>
    <path class="fil1" d="M22.575 15.625c-0.008,0.059 -0.062,0.103 -0.121,0.097 -0.059,-0.007 -0.103,-0.061 -0.098,-0.12l0.039 -0.362c0.008,-0.059 0.062,-0.103 0.121,-0.098 0.061,0.008 0.105,0.062 0.097,0.121l-0.038 0.362z"/>
    <path class="fil1" d="M22.613 15.258c-0.002,0.062 -0.054,0.108 -0.113,0.105 -0.046,-0.002 -0.085,-0.033 -0.097,-0.074 -0.047,-0.016 -0.077,-0.059 -0.075,-0.111 0.003,-0.059 0.054,-0.105 0.116,-0.102l0.013 0c0.041,0.005 0.077,0.023 0.105,0.051l0.002 0c0.031,0.031 0.052,0.072 0.052,0.121l-0.003 0.01 0 0z"/>
    <path class="fil2" d="M22.107 15.178c0.234,-0.205 0.388,-0.518 0.401,-0.872 0.318,0 0.667,-0.231 0.783,-0.516 0.115,-0.283 -0.049,-0.514 -0.365,-0.514 -0.226,0 -0.47,0.118 -0.631,0.291 -0.193,-0.283 -0.501,-0.465 -0.845,-0.465 -0.582,0 -1.055,0.521 -1.055,1.165 0,0.36 0.147,0.683 0.378,0.896l0.046 0.023 1.288 -0.008z"/>
    <path class="fil1" d="M22.066 15.071c0.093,-0.09 0.172,-0.201 0.229,-0.326 0.061,-0.134 0.097,-0.283 0.102,-0.442 0.003,-0.062 0.052,-0.108 0.111,-0.108 0.138,0 0.282,-0.048 0.408,-0.131 0.123,-0.082 0.223,-0.192 0.272,-0.313 0.02,-0.049 0.031,-0.095 0.031,-0.136 0,-0.049 -0.013,-0.09 -0.036,-0.123 -0.023,-0.033 -0.059,-0.062 -0.105,-0.08 -0.041,-0.018 -0.093,-0.025 -0.152,-0.025 -0.095,0 -0.195,0.023 -0.29,0.066 -0.097,0.047 -0.19,0.111 -0.262,0.19 -0.041,0.044 -0.11,0.047 -0.156,0.003 -0.005,-0.005 -0.011,-0.01 -0.016,-0.018 -0.087,-0.128 -0.202,-0.236 -0.333,-0.308 -0.126,-0.069 -0.27,-0.108 -0.419,-0.108 -0.259,0 -0.495,0.116 -0.664,0.303 -0.175,0.193 -0.283,0.457 -0.283,0.752 0,0.162 0.034,0.316 0.09,0.452 0.059,0.136 0.141,0.256 0.244,0.354l0.005 0.003 1.224 -0.006 0 0.001zm0.426 -0.234c-0.074,0.164 -0.182,0.308 -0.31,0.423 -0.021,0.018 -0.046,0.029 -0.072,0.029l-1.291 0.005c-0.018,0 -0.033,-0.003 -0.049,-0.01l-0.038 -0.021c-0.013,-0.003 -0.023,-0.01 -0.034,-0.02 -0.128,-0.118 -0.233,-0.27 -0.305,-0.439 -0.069,-0.165 -0.108,-0.347 -0.108,-0.537 0,-0.349 0.128,-0.667 0.336,-0.898 0.213,-0.234 0.506,-0.377 0.829,-0.377 0.188,0 0.365,0.048 0.524,0.136 0.126,0.069 0.239,0.164 0.334,0.277 0.071,-0.059 0.154,-0.111 0.238,-0.149 0.123,-0.056 0.254,-0.09 0.38,-0.09 0.087,0 0.167,0.016 0.234,0.044 0.087,0.033 0.156,0.09 0.202,0.159 0.049,0.069 0.075,0.154 0.075,0.246 0,0.067 -0.013,0.141 -0.044,0.216 -0.066,0.164 -0.197,0.31 -0.356,0.416 -0.131,0.084 -0.28,0.143 -0.426,0.161 -0.018,0.152 -0.057,0.296 -0.119,0.429l0 0z"/>
    <path class="fil1" d="M22.503 14.416c-0.059,-0.003 -0.108,-0.051 -0.108,-0.11 0,-0.062 0.051,-0.111 0.11,-0.111l0.005 0c0.062,0.003 0.111,0.052 0.111,0.111 0,0.061 -0.052,0.11 -0.111,0.11l-0.007 0z"/>
    <path class="fil1" d="M20.791 13.092c-0.034,-0.049 -0.021,-0.118 0.031,-0.152 0.048,-0.033 0.118,-0.018 0.151,0.031l0.087 0.131c0.034,0.051 0.018,0.118 -0.031,0.151 -0.051,0.034 -0.118,0.021 -0.151,-0.03l-0.087 -0.131z"/>
    <path class="fil1" d="M20.144 13.964c-0.059,-0.015 -0.095,-0.074 -0.08,-0.133 0.016,-0.059 0.077,-0.093 0.136,-0.077l0.16 0.043c0.059,0.016 0.092,0.075 0.077,0.134 -0.016,0.059 -0.075,0.092 -0.134,0.077l-0.159 -0.044z"/>
    <path class="fil1" d="M20.362 13.464c-0.049,-0.034 -0.064,-0.1 -0.033,-0.152 0.033,-0.051 0.102,-0.066 0.154,-0.033l0.136 0.09c0.051,0.031 0.064,0.1 0.033,0.151 -0.033,0.049 -0.103,0.065 -0.151,0.031l-0.139 -0.087z"/>
    <path class="fil1" d="M20.164 14.49c-0.059,0.008 -0.115,-0.033 -0.123,-0.092 -0.007,-0.062 0.034,-0.115 0.093,-0.126l0.164 -0.023c0.062,-0.007 0.116,0.036 0.126,0.095 0.007,0.059 -0.034,0.116 -0.095,0.123l-0.165 0.023z"/>
    <path class="fil1" d="M20.326 14.976c-0.054,0.028 -0.118,0.007 -0.146,-0.047 -0.028,-0.054 -0.008,-0.12 0.044,-0.148l0.146 -0.075c0.054,-0.028 0.118,-0.008 0.146,0.044 0.028,0.054 0.008,0.12 -0.044,0.149l-0.146 0.077z"/>
    <path class="fil1" d="M21.961 12.976c0.034,-0.051 0.1,-0.064 0.152,-0.031 0.048,0.034 0.064,0.1 0.03,0.152l-0.087 0.131c-0.033,0.051 -0.103,0.064 -0.151,0.031 -0.052,-0.034 -0.065,-0.101 -0.031,-0.152l0.087 -0.131z"/>
    <path class="fil1" d="M23.391 13.212c0.051,-0.033 0.118,-0.018 0.151,0.034 0.034,0.051 0.018,0.118 -0.033,0.151l-0.906 0.585c-0.052,0.034 -0.121,0.018 -0.152,-0.033 -0.033,-0.049 -0.018,-0.118 0.034,-0.152l0.906 -0.585z"/>
    <path class="fil1" d="M22.688 14.716c0.056,0.023 0.082,0.09 0.056,0.144 -0.023,0.057 -0.087,0.082 -0.144,0.059l-0.149 -0.064c-0.056,-0.026 -0.082,-0.09 -0.059,-0.144 0.023,-0.056 0.088,-0.082 0.144,-0.059l0.152 0.064z"/>
    <path class="fil1" d="M22.916 13.03c0.015,-0.059 0.074,-0.095 0.133,-0.08 0.059,0.016 0.095,0.075 0.08,0.134l-0.039 0.149c-0.015,0.059 -0.074,0.095 -0.133,0.079 -0.059,-0.013 -0.095,-0.074 -0.08,-0.133l0.039 -0.149z"/>
    <path class="fil1" d="M22.415 13.225c-0.033,-0.051 -0.018,-0.118 0.031,-0.151 0.052,-0.034 0.118,-0.021 0.152,0.031l0.087 0.13c0.033,0.052 0.02,0.118 -0.031,0.152 -0.049,0.033 -0.118,0.02 -0.151,-0.031l-0.088 -0.131z"/>
    <path class="fil1" d="M23.558 13.756c0.056,0.018 0.089,0.077 0.071,0.136 -0.018,0.057 -0.077,0.09 -0.136,0.072l-0.159 -0.048c-0.056,-0.016 -0.09,-0.077 -0.072,-0.137 0.018,-0.056 0.08,-0.089 0.136,-0.071l0.16 0.048z"/>
    <path class="fil1" d="M23.047 14.188c-0.034,-0.052 -0.018,-0.118 0.031,-0.152 0.051,-0.033 0.12,-0.02 0.154,0.031l0.084 0.131c0.036,0.051 0.021,0.118 -0.03,0.151 -0.049,0.034 -0.118,0.021 -0.152,-0.031l-0.087 -0.13z"/>
    <path class="fil1" d="M22.659 14.365c-0.013,-0.059 0.023,-0.118 0.082,-0.131 0.059,-0.016 0.118,0.023 0.131,0.082l0.036 0.149c0.013,0.059 -0.025,0.118 -0.084,0.131 -0.057,0.015 -0.116,-0.023 -0.131,-0.082l-0.034 -0.149z"/>
    <path class="fil1" d="M22.231 13.656c-0.049,-0.036 -0.062,-0.105 -0.026,-0.154 0.036,-0.048 0.105,-0.059 0.154,-0.023 0.051,0.039 0.116,0.152 0.164,0.324 0.036,0.125 0.07,0.292 0.09,0.492 0.008,0.059 -0.036,0.113 -0.097,0.118 -0.059,0.008 -0.113,-0.036 -0.121,-0.095 -0.018,-0.187 -0.049,-0.338 -0.082,-0.456 -0.036,-0.124 -0.067,-0.195 -0.082,-0.206l0 0z"/>
    <path class="fil2" d="M21.656 15.183c0.123,-0.179 0.205,-0.526 0.205,-0.918 0,-0.586 -0.182,-1.06 -0.408,-1.06 -0.223,0 -0.406,0.474 -0.406,1.06 0,0.367 0.072,0.693 0.183,0.883l0.01 0.036 0.416 0 0 -0.001z"/>
    <path class="fil1" d="M21.594 15.076c0.041,-0.08 0.077,-0.183 0.105,-0.303 0.034,-0.149 0.052,-0.321 0.052,-0.508 0,-0.28 -0.041,-0.532 -0.111,-0.711 -0.056,-0.147 -0.123,-0.239 -0.187,-0.239 -0.062,0 -0.128,0.092 -0.185,0.239 -0.069,0.179 -0.11,0.431 -0.11,0.711 0,0.174 0.015,0.336 0.043,0.477 0.029,0.133 0.067,0.249 0.113,0.334l0.28 0 0 0zm0.318 -0.257c-0.038,0.172 -0.095,0.318 -0.161,0.421 -0.021,0.033 -0.054,0.054 -0.095,0.054l-0.416 0c-0.046,0 -0.09,-0.028 -0.103,-0.077l-0.01 -0.028c-0.059,-0.106 -0.105,-0.244 -0.139,-0.403 -0.033,-0.157 -0.051,-0.334 -0.051,-0.521 0,-0.306 0.049,-0.586 0.126,-0.788 0.092,-0.236 0.228,-0.383 0.39,-0.383 0.164,0 0.3,0.147 0.39,0.383 0.08,0.202 0.128,0.482 0.128,0.788 0,0.2 -0.02,0.39 -0.059,0.554l0 0z"/>
    <path class="fil1" d="M18.278 12.25c0,-0.059 0.049,-0.111 0.108,-0.111 0.061,0 0.11,0.052 0.11,0.111l0 1.304c0,0.141 -0.056,0.269 -0.149,0.362 -0.095,0.092 -0.22,0.151 -0.362,0.151l-2.623 0c-0.059,0 -0.107,-0.051 -0.107,-0.11 0,-0.062 0.048,-0.111 0.107,-0.111l2.623 0c0.08,0 0.152,-0.033 0.206,-0.087 0.054,-0.051 0.087,-0.126 0.087,-0.205l0 -1.304 0 0z"/>
    <path class="fil1" d="M6.928 7.91c0,0.059 -0.049,0.11 -0.11,0.11 -0.059,0 -0.108,-0.051 -0.108,-0.11l0 -0.845c0,-0.141 0.057,-0.269 0.149,-0.362 0.092,-0.092 0.221,-0.151 0.362,-0.151l1.627 0c0.059,0 0.11,0.051 0.11,0.11 0,0.062 -0.051,0.111 -0.11,0.111l-1.627 0c-0.08,0 -0.154,0.033 -0.206,0.087 -0.053,0.051 -0.087,0.126 -0.087,0.205l0 0.845 0 0z"/>
   </g>
  </g>
 </g>
</svg>
