<?xml version="1.0" encoding="UTF-8"?>
<!DOCTYPE svg PUBLIC "-//W3C//DTD SVG 1.1//EN" "http://www.w3.org/Graphics/SVG/1.1/DTD/svg11.dtd">
<!-- Creator: CorelDRAW 2018 (64-Bit) -->
<svg xmlns="http://www.w3.org/2000/svg" xml:space="preserve" width="80px" height="60px" version="1.1" style="shape-rendering:geometricPrecision; text-rendering:geometricPrecision; image-rendering:optimizeQuality; fill-rule:evenodd; clip-rule:evenodd"
viewBox="0 0 12.473 9.355"
 xmlns:xlink="http://www.w3.org/1999/xlink">
 <defs>
  <style type="text/css">
   <![CDATA[
    .fil0 {fill:none}
    .fil2 {fill:#00F4FF;fill-rule:nonzero}
    .fil1 {fill:#052337;fill-rule:nonzero}
   ]]>
  </style>
 </defs>
 <g id="Layer_x0020_1">
  <metadata id="CorelCorpID_0Corel-Layer"/>
  <g id="_2054437742160">
   <rect class="fil0" width="12.473" height="9.355"/>
   <g>
    <path class="fil1" d="M3.084 6.207c0,-0.032 0.027,-0.059 0.059,-0.059 0.032,0 0.058,0.027 0.058,0.059l0 2.753c0,0.032 -0.026,0.058 -0.058,0.058 -0.032,0 -0.059,-0.026 -0.059,-0.058l0 -2.753z"/>
    <path class="fil1" d="M2.525 7.4c-0.032,0 -0.058,-0.026 -0.058,-0.059 0,-0.032 0.026,-0.058 0.058,-0.058l0.206 0c0.032,0 0.058,0.026 0.058,0.058 0,0.033 -0.026,0.059 -0.058,0.059l-0.206 0z"/>
    <path class="fil1" d="M5.863 8.383c-0.023,0.023 -0.06,0.023 -0.083,0 -0.023,-0.023 -0.023,-0.06 0,-0.082l1.236 -1.237c0.023,-0.022 0.06,-0.022 0.083,0 0.022,0.023 0.022,0.06 0,0.083l-1.236 1.236 0 0z"/>
    <path class="fil1" d="M6.481 8.382c-0.023,0.023 -0.06,0.023 -0.083,0 -0.023,-0.022 -0.023,-0.06 0,-0.083l0.618 -0.617c0.023,-0.023 0.06,-0.023 0.083,0 0.022,0.022 0.022,0.059 0,0.082l-0.618 0.618 0 0z"/>
    <path class="fil2" d="M8.301 5.042c0,0.365 -0.296,0.661 -0.661,0.661 -0.365,0 -0.589,-0.25 -0.669,-0.641 0,0.365 -0.288,0.641 -0.653,0.641 -0.365,0 -0.662,-0.296 -0.661,-0.661 0,0.365 -0.296,0.661 -0.661,0.661 -0.365,0 -0.661,-0.296 -0.661,-0.661 0,0.365 -0.295,0.661 -0.66,0.661 -0.365,0 -0.662,-0.296 -0.661,-0.661 0,0.365 -0.296,0.661 -0.661,0.661 -0.365,0 -0.652,-0.271 -0.651,-0.636 -0.069,0.361 -0.306,0.636 -0.67,0.636 -0.365,0 -0.662,-0.296 -0.662,-0.661l0.701 -1.917c0.058,-0.158 0.138,-0.221 0.305,-0.221l5.919 0c0.168,0 0.247,0.063 0.305,0.221l0.7 1.917 0.001 0z"/>
    <path class="fil1" d="M8.359 5.042c0,0.198 -0.081,0.378 -0.211,0.508 -0.13,0.13 -0.31,0.211 -0.508,0.211 -0.194,0 -0.352,-0.065 -0.473,-0.182 -0.075,-0.071 -0.135,-0.162 -0.18,-0.269 -0.036,0.095 -0.092,0.18 -0.163,0.249 -0.129,0.126 -0.307,0.202 -0.506,0.202l0 0c-0.199,0 -0.379,-0.081 -0.509,-0.21 -0.063,-0.064 -0.116,-0.14 -0.152,-0.224 -0.036,0.084 -0.088,0.16 -0.152,0.224 -0.13,0.129 -0.31,0.21 -0.508,0.21l-0.001 0c-0.199,0 -0.378,-0.081 -0.508,-0.21 -0.064,-0.064 -0.116,-0.14 -0.153,-0.224 -0.036,0.084 -0.088,0.16 -0.152,0.224 -0.129,0.129 -0.309,0.21 -0.508,0.21l-0.001 0c-0.198,0 -0.378,-0.081 -0.508,-0.21 -0.064,-0.064 -0.116,-0.14 -0.152,-0.224 -0.036,0.084 -0.088,0.16 -0.152,0.223 -0.13,0.13 -0.31,0.211 -0.508,0.211l-0.002 0c-0.198,0 -0.374,-0.074 -0.502,-0.197 -0.072,-0.07 -0.129,-0.154 -0.164,-0.251 -0.045,0.102 -0.106,0.191 -0.182,0.263 -0.122,0.116 -0.281,0.185 -0.472,0.185 -0.199,0 -0.379,-0.08 -0.509,-0.21 -0.131,-0.131 -0.211,-0.311 -0.211,-0.509 0,-0.009 0.002,-0.017 0.005,-0.025l0.699 -1.912c0.033,-0.09 0.074,-0.154 0.131,-0.197 0.06,-0.043 0.133,-0.063 0.229,-0.063l5.919 0c0.096,0 0.169,0.02 0.228,0.063 0.058,0.043 0.099,0.107 0.131,0.197l0.701 1.917c0.003,0.007 0.004,0.014 0.004,0.02l0 0zm-0.293 0.426c0.107,-0.107 0.173,-0.254 0.176,-0.417l-0.697 -1.906c-0.025,-0.068 -0.053,-0.115 -0.091,-0.143 -0.037,-0.028 -0.088,-0.04 -0.159,-0.04l-5.919 0c-0.071,0 -0.122,0.012 -0.159,0.04 -0.038,0.028 -0.066,0.075 -0.091,0.143l-0.697 1.906c0.003,0.163 0.07,0.31 0.176,0.417 0.109,0.109 0.26,0.176 0.427,0.176 0.159,0 0.291,-0.057 0.392,-0.153 0.111,-0.105 0.186,-0.257 0.22,-0.431 0.003,-0.029 0.028,-0.051 0.058,-0.051 0.032,0 0.058,0.026 0.058,0.058l0 0.001c0,0.166 0.065,0.309 0.171,0.412 0.106,0.103 0.255,0.164 0.421,0.165l0.002 -0.001c0.166,0 0.316,-0.067 0.425,-0.176 0.109,-0.109 0.176,-0.259 0.176,-0.425l0 -0.001 0.117 0 0 0.001c0,0.166 0.067,0.316 0.176,0.425 0.11,0.109 0.26,0.176 0.426,0.177l0.002 -0.001c0.165,0 0.316,-0.067 0.425,-0.176 0.108,-0.109 0.176,-0.259 0.176,-0.425l0 -0.001 0.117 0 0 0.012c0.003,0.162 0.07,0.308 0.176,0.414 0.109,0.109 0.26,0.176 0.426,0.177l0.001 -0.001c0.166,0 0.316,-0.067 0.425,-0.176 0.109,-0.109 0.177,-0.259 0.177,-0.425l0 -0.001 0.116 0 0 0.012c0.003,0.162 0.07,0.308 0.176,0.414 0.11,0.109 0.26,0.176 0.427,0.177l0 -0.001c0.168,0 0.317,-0.063 0.425,-0.168 0.105,-0.104 0.17,-0.248 0.17,-0.414 0.001,-0.027 0.019,-0.052 0.047,-0.057 0.032,-0.006 0.063,0.014 0.069,0.046 0.038,0.188 0.111,0.342 0.219,0.444 0.099,0.096 0.23,0.149 0.392,0.149 0.166,0 0.317,-0.067 0.426,-0.176l0 0z"/>
    <path class="fil1" d="M7.593 6.207c0,-0.032 0.026,-0.059 0.058,-0.059 0.032,0 0.058,0.027 0.058,0.059l0 2.548c0,0.079 -0.032,0.151 -0.084,0.203 -0.052,0.052 -0.124,0.085 -0.203,0.085l-6.174 0c-0.078,0 -0.15,-0.033 -0.202,-0.085l-0.004 -0.003c-0.05,-0.052 -0.081,-0.123 -0.081,-0.2l0 -2.548c0,-0.032 0.027,-0.059 0.059,-0.059 0.032,0 0.058,0.027 0.058,0.059l0 2.548c0,0.046 0.018,0.087 0.048,0.118l0.002 0.002c0.031,0.031 0.074,0.05 0.12,0.05l6.174 0c0.047,0 0.09,-0.019 0.121,-0.05 0.031,-0.031 0.05,-0.073 0.05,-0.12l0 -2.548 0 0z"/>
    <path class="fil1" d="M3.112 2.95c0.003,-0.032 0.031,-0.056 0.063,-0.054 0.032,0.002 0.057,0.031 0.054,0.063l-0.164 2.187c-0.003,0.033 -0.031,0.057 -0.063,0.055 -0.032,-0.003 -0.056,-0.031 -0.054,-0.063l0.164 -2.188z"/>
    <path class="fil1" d="M5.441 2.959c-0.002,-0.032 0.022,-0.061 0.054,-0.063 0.032,-0.002 0.06,0.022 0.063,0.054l0.164 2.188c0.002,0.032 -0.022,0.06 -0.054,0.063 -0.032,0.002 -0.06,-0.022 -0.062,-0.055l-0.165 -2.187z"/>
    <path class="fil1" d="M6.428 2.931c-0.007,-0.031 0.013,-0.062 0.045,-0.069 0.03,-0.007 0.062,0.012 0.069,0.043l0.497 2.188c0.006,0.032 -0.013,0.063 -0.044,0.07 -0.032,0.007 -0.063,-0.012 -0.07,-0.044l-0.497 -2.188z"/>
    <path class="fil1" d="M2.125 2.942c0.007,-0.032 0.038,-0.052 0.069,-0.045 0.032,0.007 0.051,0.039 0.044,0.07l-0.497 2.188c-0.007,0.031 -0.038,0.051 -0.069,0.044 -0.032,-0.007 -0.051,-0.039 -0.044,-0.069l0.497 -2.188z"/>
    <path class="fil1" d="M4.277 2.911c0,-0.033 0.026,-0.059 0.058,-0.059 0.032,0 0.059,0.026 0.059,0.059l0 2.262c0,0.032 -0.027,0.059 -0.059,0.059 -0.032,0 -0.058,-0.027 -0.058,-0.059l0 -2.262z"/>
   </g>
  </g>
 </g>
</svg>
