<?xml version="1.0" encoding="UTF-8"?>
<!DOCTYPE svg PUBLIC "-//W3C//DTD SVG 1.1//EN" "http://www.w3.org/Graphics/SVG/1.1/DTD/svg11.dtd">
<!-- Creator: CorelDRAW 2018 (64-Bit) -->
<svg xmlns="http://www.w3.org/2000/svg" xml:space="preserve" width="20px" height="20px" version="1.1" style="shape-rendering:geometricPrecision; text-rendering:geometricPrecision; image-rendering:optimizeQuality; fill-rule:evenodd; clip-rule:evenodd"
viewBox="0 0 0.346 0.346"
 xmlns:xlink="http://www.w3.org/1999/xlink">
 <defs>
  <style type="text/css">
   <![CDATA[
    .str1 {stroke:gray;stroke-width:0.017;stroke-miterlimit:2.61313}
    .str0 {stroke:gray;stroke-width:0.017;stroke-linecap:round;stroke-miterlimit:2.61313}
    .fil0 {fill:none}
   ]]>
  </style>
 </defs>
 <g id="Layer_x0020_1">
  <metadata id="CorelCorpID_0Corel-Layer"/>
  <g id="_2237815233040">
   <path class="fil0 str0" d="M0.199 0.009c0.035,0.001 0.07,0.015 0.096,0.042 0.027,0.027 0.041,0.061 0.043,0.096"/>
   <path class="fil0 str0" d="M0.275 0.146c-0.002,-0.018 -0.01,-0.036 -0.024,-0.051 -0.014,-0.014 -0.032,-0.022 -0.051,-0.023"/>
   <path class="fil0 str1" d="M0.14 0.206c-0.016,-0.017 -0.025,-0.028 -0.032,-0.043 -0.005,-0.01 -0.002,-0.019 0.001,-0.025 0.002,-0.003 0.005,-0.005 0.008,-0.007 0.003,-0.003 0.007,-0.006 0.011,-0.01 0.01,-0.011 0.007,-0.027 0.004,-0.032 -0.007,-0.013 -0.019,-0.031 -0.032,-0.05l-0.007 -0.01c-0.006,-0.008 -0.013,-0.012 -0.022,-0.012 -0.005,0 -0.01,0.001 -0.014,0.003 -0.006,0.002 -0.029,0.02 -0.042,0.046 -0.014,0.025 -0.011,0.092 0.081,0.185 0.078,0.078 0.135,0.087 0.156,0.087 0.011,0 0.021,-0.002 0.029,-0.006 0.025,-0.014 0.043,-0.037 0.045,-0.043 0.003,-0.007 0.008,-0.024 -0.008,-0.035l-0.011 -0.008c-0.019,-0.013 -0.037,-0.025 -0.05,-0.032 -0.002,-0.001 -0.007,-0.003 -0.013,-0.003 -0.005,0 -0.012,0.002 -0.019,0.007 -0.004,0.004 -0.007,0.008 -0.009,0.011 -0.003,0.003 -0.005,0.006 -0.008,0.008 -0.001,0.001 -0.006,0.004 -0.013,0.004 -0.004,0 -0.008,-0.001 -0.012,-0.003 -0.015,-0.007 -0.026,-0.015 -0.043,-0.032z"/>
  </g>
 </g>
</svg>
