<?xml version="1.0" encoding="UTF-8"?>
<!DOCTYPE svg PUBLIC "-//W3C//DTD SVG 1.1//EN" "http://www.w3.org/Graphics/SVG/1.1/DTD/svg11.dtd">
<!-- Creator: CorelDRAW 2018 (64-Bit) -->
<svg xmlns="http://www.w3.org/2000/svg" xml:space="preserve" width="482px" height="450px" version="1.1" style="shape-rendering:geometricPrecision; text-rendering:geometricPrecision; image-rendering:optimizeQuality; fill-rule:evenodd; clip-rule:evenodd"
viewBox="0 0 849.883 794.152"
 xmlns:xlink="http://www.w3.org/1999/xlink">
 <defs>
  <style type="text/css">
   <![CDATA[
    .fil2 {fill:#00F4FF}
    .fil0 {fill:#A3AEBA}
    .fil1 {fill:#DCE1E6}
    .fil5 {fill:#EAEDF2}
    .fil4 {fill:white}
    .fil3 {fill:#A3AEBA;fill-rule:nonzero}
    .fil6 {fill:white;fill-rule:nonzero}
   ]]>
  </style>
 </defs>
 <g id="Layer_x0020_1">
  <metadata id="CorelCorpID_0Corel-Layer"/>
  <g id="_1770656462576">
   <path class="fil0" d="M444.318 0c219.299,0 397.076,177.777 397.076,397.076 0,219.299 -177.777,397.076 -397.076,397.076 -219.299,0 -397.076,-177.777 -397.076,-397.076 0,-219.299 177.777,-397.076 397.076,-397.076z"/>
   <path class="fil1" d="M804.073 565.296c-20.342,43.428 -48.313,82.56 -82.189,115.689l-550.275 4.685c-29.178,-27.587 -54.169,-59.552 -73.936,-94.841 56.637,-14.453 106.696,-41.158 145.564,-76.344 60.011,54.325 146.693,88.446 243.087,88.446 96.113,0 182.571,-33.921 242.561,-87.971 21.828,19.666 47.162,36.663 75.188,50.336z"/>
   <path class="fil2" d="M453.401 688.836c-5.922,-3.419 -7.97,-11.061 -4.551,-16.983l110.806 -191.922c7.703,-13.341 21.518,-18.639 36.006,-16.932 6.143,0.724 12.58,-0.473 15.85,-6.135l30.119 -52.169 12.506 7.22 12.505 7.22 -30.119 52.169c-3.269,5.662 -1.087,11.837 2.611,16.794 8.722,11.693 11.042,26.306 3.339,39.647l-110.806 191.922c-3.419,5.922 -11.061,7.97 -16.983,4.551l-61.283 -35.382z"/>
   <path class="fil3" d="M452.417 690.296c-3.327,-1.96 -5.567,-5.087 -6.497,-8.558 -0.94,-3.507 -0.547,-7.378 1.406,-10.761l110.807 -191.928c3.912,-6.776 9.338,-11.583 15.628,-14.54 6.681,-3.141 14.308,-4.178 22.101,-3.261 3.08,0.363 6.212,0.215 8.866,-0.812 2.137,-0.826 3.986,-2.241 5.26,-4.447l30.12 -52.17c0.483,-0.841 1.557,-1.131 2.399,-0.648 8.174,4.905 16.74,9.665 25.011,14.44 0.841,0.484 1.131,1.558 0.648,2.4 -10.29,17.151 -19.705,35.29 -30.171,52.259 -1.233,2.185 -1.522,4.464 -1.175,6.697 0.437,2.807 1.873,5.591 3.727,8.076 4.698,6.298 7.618,13.428 8.237,20.784 0.582,6.916 -0.87,14.017 -4.787,20.801l-110.724 191.772c-0.042,0.092 -0.091,0.179 -0.147,0.261 -1.957,3.32 -5.083,5.557 -8.556,6.487 -3.469,0.929 -7.291,0.557 -10.646,-1.337 -0.078,-0.038 -0.153,-0.081 -0.224,-0.129l-61.283 -35.386zm-3.091 -9.468c0.7,2.616 2.38,4.969 4.867,6.435 20.416,11.002 41.203,23.753 61.374,35.431 2.536,1.465 5.447,1.757 8.092,1.048 2.643,-0.708 5.019,-2.418 6.484,-4.957l110.806 -191.922c3.533,-6.119 4.843,-12.519 4.319,-18.747 -0.562,-6.679 -3.237,-13.185 -7.547,-18.963 -2.157,-2.891 -3.84,-6.2 -4.376,-9.649 -0.463,-2.981 -0.07,-6.034 1.596,-8.974l29.298 -50.753 -21.966 -12.678 -29.238 50.641c-1.718,2.976 -4.191,4.876 -7.038,5.978 -3.249,1.257 -6.954,1.454 -10.536,1.032 -7.168,-0.844 -14.145,0.091 -20.211,2.943 -5.648,2.656 -10.532,6.992 -14.07,13.12l-110.806 191.922c-1.466,2.535 -1.757,5.447 -1.048,8.093z"/>
   <path class="fil4" d="M666.286 367.603l20.152 11.635c1.336,0.771 1.798,2.495 1.027,3.831l-11.803 20.445c-0.772,1.335 -2.496,1.798 -3.832,1.026l-20.153 -11.635c-1.335,-0.771 -1.798,-2.495 -1.026,-3.831l11.803 -20.444c0.772,-1.337 2.496,-1.798 3.832,-1.027z"/>
   <path class="fil3" d="M667.27 366.138l20.05 11.576 0.12 0.076c1.026,0.636 1.715,1.616 2.005,2.697 0.301,1.126 0.174,2.373 -0.456,3.465 -4.098,6.635 -7.782,13.733 -11.807,20.442 -0.625,1.09 -1.641,1.824 -2.77,2.126 -1.127,0.301 -2.373,0.174 -3.464,-0.456 -6.541,-4.039 -13.538,-7.67 -20.151,-11.638 -1.091,-0.625 -1.824,-1.641 -2.126,-2.769 -0.301,-1.127 -0.174,-2.374 0.456,-3.465l11.722 -20.295c0.044,-0.098 0.097,-0.191 0.158,-0.278 0.633,-1.018 1.614,-1.706 2.696,-1.996 1.079,-0.289 2.265,-0.185 3.321,0.377 0.086,0.039 0.168,0.086 0.246,0.138zm18.286 14.624l-20.153 -11.635c-0.244,-0.141 -0.529,-0.168 -0.79,-0.098 -0.259,0.069 -0.493,0.237 -0.635,0.483l-11.803 20.444c-0.141,0.244 -0.168,0.53 -0.098,0.79 0.069,0.26 0.237,0.494 0.483,0.636l20.153 11.635c0.243,0.14 0.528,0.167 0.789,0.098 0.26,-0.07 0.494,-0.238 0.636,-0.484l11.803 -20.444c0.141,-0.243 0.168,-0.529 0.098,-0.79 -0.065,-0.243 -0.21,-0.46 -0.422,-0.602l-0.061 -0.033z"/>
   <path class="fil2" d="M639.019 398.25l4.541 -7.865c1.591,-2.755 5.146,-3.708 7.902,-2.117l24.492 14.14c2.755,1.591 3.708,5.146 2.117,7.902l-4.541 7.864c-1.59,2.756 -5.146,3.709 -7.901,2.118l-24.492 -14.141c-2.755,-1.591 -3.708,-5.146 -2.118,-7.901z"/>
   <path class="fil3" d="M637.497 397.368l4.608 -7.973c1.045,-1.741 2.691,-2.912 4.514,-3.402 1.861,-0.498 3.918,-0.288 5.718,0.751 8.043,4.825 16.712,9.251 24.607,14.208 1.741,1.046 2.912,2.692 3.401,4.515 0.499,1.861 0.289,3.918 -0.75,5.718 -1.565,2.609 -2.999,5.416 -4.608,7.979 -1.046,1.741 -2.693,2.913 -4.516,3.402 -1.861,0.499 -3.918,0.289 -5.717,-0.75 -8.043,-4.826 -16.712,-9.252 -24.607,-14.209 -1.741,-1.045 -2.912,-2.692 -3.402,-4.515 -0.498,-1.861 -0.288,-3.918 0.751,-5.718l0.001 -0.006zm7.587 -6.1l-4.541 7.864c-0.551,0.952 -0.66,2.05 -0.392,3.05 0.261,0.973 0.877,1.848 1.785,2.4l24.575 14.186c0.952,0.551 2.05,0.66 3.05,0.392 0.973,-0.261 1.848,-0.876 2.4,-1.785l4.586 -7.948c0.552,-0.951 0.66,-2.05 0.393,-3.049 -0.261,-0.974 -0.877,-1.849 -1.785,-2.4l-24.576 -14.187c-0.951,-0.551 -2.05,-0.66 -3.049,-0.392 -0.974,0.261 -1.849,0.877 -2.4,1.785l-0.046 0.084z"/>
   <path class="fil4" d="M619.331 517.787l-97.995 169.732c-3.983,6.898 -12.885,9.284 -19.784,5.301l-14.394 -8.311c-6.898,-3.983 -9.284,-12.885 -5.301,-19.783l98.005 -169.75c-3.74,6.477 2.066,16.831 12.968,23.125 10.892,6.289 22.75,6.146 26.501,-0.314z"/>
   <path class="fil3" d="M620.855 518.669l-97.931 169.621c-0.044,0.091 -0.096,0.177 -0.154,0.259 -2.243,3.79 -5.814,6.342 -9.777,7.404 -3.976,1.064 -8.357,0.636 -12.2,-1.54 -0.079,-0.037 -0.154,-0.081 -0.225,-0.129l-14.394 -8.315c-3.815,-2.241 -6.384,-5.824 -7.45,-9.803 -1.076,-4.018 -0.627,-8.45 1.609,-12.323 33.267,-53.403 67.131,-114.528 98.005,-169.75 0.488,-0.835 1.56,-1.123 2.399,-0.641 0.842,0.483 1.132,1.558 0.649,2.399l-0.003 0.005c-1.531,2.659 -1.034,6.244 1.01,9.89 2.203,3.928 6.148,7.85 11.313,10.832l0.005 0.003c5.169,2.98 10.532,4.439 15.025,4.386 4.176,-0.049 7.53,-1.408 9.071,-4.063l3.048 1.765zm-101.043 167.968l94.02 -162.847c-1.547,0.44 -3.247,0.671 -5.055,0.693 -5.095,0.06 -11.107,-1.554 -16.829,-4.858 -5.733,-3.315 -10.141,-7.717 -12.63,-12.156 -0.882,-1.572 -1.529,-3.157 -1.919,-4.712l-94.018 162.851c-1.747,3.025 -2.095,6.496 -1.251,9.648 0.837,3.124 2.845,5.933 5.821,7.681 4.819,2.597 9.723,5.603 14.484,8.359 3.025,1.746 6.496,2.095 9.648,1.251 3.123,-0.837 5.931,-2.843 7.679,-5.817l0.05 -0.093z"/>
   <path class="fil3" d="M601.126 507.248c-0.483,0.841 -1.558,1.131 -2.399,0.648 -0.842,-0.483 -1.132,-1.558 -0.649,-2.399 0.264,-0.458 0.214,-1.092 -0.08,-1.744 -0.378,-0.838 -1.131,-1.656 -2.166,-2.254l-0.08 -0.049c-1.009,-0.561 -2.062,-0.788 -2.954,-0.699 -0.706,0.071 -1.277,0.345 -1.542,0.805l-0.046 0.075c-0.78,1.426 -0.679,3.23 0.122,5.005 0.888,1.966 2.607,3.867 4.952,5.247 0.081,0.04 0.158,0.086 0.232,0.138 2.359,1.327 4.854,1.861 6.996,1.647 1.928,-0.193 3.535,-1.005 4.382,-2.39l0.104 -0.179c1.34,-2.4 1.197,-5.405 -0.124,-8.333 -1.424,-3.156 -4.181,-6.192 -7.934,-8.359l-0.004 -0.003c-3.761,-2.171 -7.775,-3.043 -11.22,-2.699 -3.233,0.323 -5.933,1.734 -7.33,4.153 -0.487,0.841 -1.564,1.129 -2.406,0.641 -0.841,-0.487 -1.128,-1.564 -0.641,-2.406 1.996,-3.457 5.684,-5.456 10.032,-5.89 4.133,-0.413 8.898,0.605 13.311,3.151l0.006 0.003c4.42,2.553 7.689,6.173 9.399,9.961 1.788,3.963 1.906,8.138 -0.067,11.592l-0.025 0.043c-1.43,2.478 -4.054,3.908 -7.138,4.217 -2.84,0.283 -6.101,-0.402 -9.124,-2.12l-0.11 -0.059c-3.053,-1.762 -5.315,-4.274 -6.503,-6.907 -1.255,-2.779 -1.341,-5.72 0.028,-8.178l0.06 -0.114c0.865,-1.498 2.424,-2.361 4.245,-2.543 1.575,-0.156 3.374,0.213 5.033,1.144l0.111 0.059c1.689,0.975 2.947,2.377 3.614,3.853 0.75,1.663 0.78,3.443 -0.085,4.943z"/>
   <path class="fil5" d="M765.991 629.88c-21.732,29.975 -47.533,56.807 -76.618,79.654l-484.726 4.127c-35.561,-26.968 -66.44,-59.783 -91.201,-97.022 35.564,10.839 74.037,16.767 114.199,16.767 96.114,0 182.571,-33.923 242.562,-87.972 59.99,54.049 146.448,87.972 242.561,87.972 18.121,0 35.9,-1.207 53.223,-3.526z"/>
   <path class="fil0" d="M767.48 627.838c-0.961,1.344 -1.943,2.673 -2.921,4.005 -8.228,1.065 -16.544,1.882 -24.931,2.438 -8.892,0.589 -17.852,0.89 -26.86,0.89 -47.34,0 -92.361,-8.2 -133.067,-22.963 -41.765,-15.147 -78.981,-37.206 -109.494,-64.409 -30.513,27.203 -67.729,49.262 -109.495,64.409 -40.705,14.763 -85.726,22.963 -133.067,22.963 -19.915,0 -39.427,-1.454 -58.386,-4.237 -18.675,-2.742 -36.825,-6.783 -54.304,-12.004 -1.043,-1.544 -2.054,-3.111 -3.075,-4.671 0.865,0.265 1.828,0.622 2.077,0.697 17.894,5.454 36.551,9.661 55.812,12.489 18.775,2.757 38.116,4.196 57.876,4.196 46.939,0 91.553,-8.121 131.867,-22.742 41.869,-15.185 79.112,-37.382 109.515,-64.775 0.679,-0.611 1.704,-0.596 2.366,0.007 30.402,27.389 67.643,49.584 109.508,64.768 40.315,14.621 84.929,22.742 131.867,22.742 9.002,0 17.887,-0.296 26.639,-0.876 8.908,-0.59 17.699,-1.471 26.356,-2.63 0.122,-0.016 0.97,-0.173 1.717,-0.297z"/>
   <path class="fil4" d="M746.248 654.944c-43.961,51.425 -100.82,91.493 -165.576,115.175l-266.271 2.267c-73.22,-25.347 -136.725,-71.499 -183.424,-131.408 18.923,-11.153 36.343,-23.914 51.955,-38.047 60.011,54.325 146.693,88.445 243.087,88.445 96.113,0 182.57,-33.922 242.561,-87.971 22.471,20.245 48.655,37.666 77.668,51.539z"/>
   <path class="fil0" d="M747.413 653.566c-0.78,0.921 -1.549,1.851 -2.338,2.765 -14.411,-6.914 -28.115,-14.691 -41.003,-23.243 -12.637,-8.386 -24.502,-17.52 -35.492,-27.317 -30.514,27.202 -67.729,49.261 -109.495,64.408 -40.705,14.763 -85.726,22.962 -133.066,22.962 -47.478,0 -92.623,-8.247 -133.421,-23.091 -41.856,-15.228 -79.135,-37.408 -109.665,-64.755 -7.52,6.736 -15.433,13.147 -23.706,19.204 -8.643,6.33 -17.713,12.301 -27.169,17.882 -0.727,-0.924 -1.43,-1.866 -2.149,-2.796 9.383,-5.531 18.608,-11.608 27.236,-17.926 8.645,-6.33 16.861,-13.018 24.608,-20.031 0.677,-0.612 1.701,-0.599 2.362,0.004 30.407,27.524 67.712,49.838 109.682,65.109 40.41,14.702 85.147,22.871 132.222,22.871 46.938,0 91.552,-8.122 131.866,-22.742 41.869,-15.185 79.112,-37.382 109.516,-64.774 0.68,-0.612 1.705,-0.597 2.367,0.007 11.197,10.088 23.317,19.468 36.248,28.048 12.825,8.511 27.094,16.562 41.397,23.415z"/>
   <path class="fil4" d="M638.429 743.521c-57.397,32.228 -123.6,50.631 -194.111,50.631 -70.51,0 -136.712,-18.402 -194.108,-50.63 76.502,-9.294 144.397,-40.262 194.113,-85.055 49.715,44.792 117.606,75.759 194.106,85.054z"/>
   <path class="fil0" d="M641.066 742.047c-1.735,0.992 -3.484,1.96 -5.235,2.926 -37.042,-4.729 -72.05,-14.524 -103.935,-28.496 -32.92,-14.425 -62.51,-33.3 -87.573,-55.644 -25.064,22.345 -54.655,41.22 -87.576,55.645 -31.887,13.972 -66.897,23.767 -103.941,28.496 -1.763,-0.973 -3.525,-1.949 -5.272,-2.948 1.121,-0.132 2.118,-0.213 2.469,-0.255 37.587,-4.566 73.082,-14.386 105.337,-28.519 33.08,-14.495 62.762,-33.532 87.804,-56.095 0.679,-0.611 1.704,-0.597 2.366,0.007 25.04,22.559 54.717,41.594 87.793,56.087 32.253,14.133 67.747,23.953 105.332,28.52 0.37,0.043 1.358,0.131 2.431,0.276z"/>
   <path class="fil6" d="M552.652 121.538c6.32,0 11.463,5.143 11.463,11.464 0,1.238 1.003,2.24 2.24,2.24 1.236,0 2.239,-1.002 2.239,-2.24 0,-6.321 5.142,-11.464 11.465,-11.464 1.237,0 2.24,-1.003 2.24,-2.24 0,-1.238 -1.003,-2.24 -2.24,-2.24 -6.323,0 -11.465,-5.144 -11.465,-11.466 0,-1.237 -1.003,-2.24 -2.239,-2.24 -1.237,0 -2.24,1.003 -2.24,2.24 0,6.322 -5.143,11.466 -11.463,11.466 -1.236,0 -2.24,1.002 -2.24,2.24 0,1.237 1.004,2.24 2.24,2.24z"/>
   <path class="fil6" d="M173.395 211.783c5.047,0 9.152,4.107 9.152,9.154 0,0.988 0.801,1.789 1.789,1.789 0.987,0 1.788,-0.801 1.788,-1.789 0,-5.047 4.106,-9.154 9.155,-9.154 0.987,0 1.788,-0.801 1.788,-1.788 0,-0.989 -0.801,-1.789 -1.788,-1.789 -5.049,0 -9.155,-4.107 -9.155,-9.155 0,-0.988 -0.801,-1.788 -1.788,-1.788 -0.988,0 -1.789,0.8 -1.789,1.788 0,5.048 -4.105,9.155 -9.152,9.155 -0.987,0 -1.788,0.8 -1.788,1.789 0,0.987 0.801,1.788 1.788,1.788z"/>
   <path class="fil6" d="M415.407 349.811c5.047,0 9.152,4.107 9.152,9.155 0,0.988 0.801,1.788 1.789,1.788 0.987,0 1.788,-0.8 1.788,-1.788 0,-5.048 4.106,-9.155 9.155,-9.155 0.987,0 1.788,-0.8 1.788,-1.788 0,-0.988 -0.801,-1.789 -1.788,-1.789 -5.049,0 -9.155,-4.106 -9.155,-9.154 0,-0.988 -0.801,-1.789 -1.788,-1.789 -0.988,0 -1.789,0.801 -1.789,1.789 0,5.048 -4.105,9.154 -9.152,9.154 -0.987,0 -1.788,0.801 -1.788,1.789 0,0.988 0.801,1.788 1.788,1.788z"/>
   <path class="fil6" d="M735.406 263.607c3.41,0 6.183,2.775 6.183,6.185 0,0.668 0.541,1.209 1.209,1.209 0.667,0 1.208,-0.541 1.208,-1.209 0,-3.41 2.774,-6.185 6.185,-6.185 0.667,0 1.208,-0.54 1.208,-1.208 0,-0.667 -0.541,-1.208 -1.208,-1.208 -3.411,0 -6.185,-2.775 -6.185,-6.185 0,-0.667 -0.541,-1.208 -1.208,-1.208 -0.668,0 -1.209,0.541 -1.209,1.208 0,3.41 -2.773,6.185 -6.183,6.185 -0.667,0 -1.208,0.541 -1.208,1.208 0,0.668 0.541,1.208 1.208,1.208z"/>
   <path class="fil6" d="M295.915 77.391c4.169,-2.588 8.476,-4.802 12.874,-6.652 4.515,-1.898 9.121,-3.407 13.772,-4.539 0.472,-0.115 0.948,0.176 1.062,0.648 0.068,0.281 -0.008,0.564 -0.181,0.771 -12.282,14.659 -19.418,32.759 -20.737,51.447 -1.285,18.203 2.949,36.966 13.317,53.651 10.371,16.688 25.32,28.794 42.208,35.7 17.34,7.092 36.729,8.707 55.314,4.183 0.472,-0.114 0.947,0.177 1.061,0.648 0.068,0.282 -0.008,0.565 -0.18,0.771 -3.072,3.669 -6.465,7.13 -10.167,10.339 -3.616,3.134 -7.523,6.023 -11.71,8.625 -21.479,13.349 -46.336,16.727 -69.158,11.399 -22.805,-5.323 -43.583,-19.342 -56.932,-40.793l-0.062 -0.099c-13.322,-21.468 -16.693,-46.304 -11.369,-69.109 5.324,-22.805 19.342,-43.582 40.793,-56.931l0.095 -0.059z"/>
   <path class="fil4" d="M169.37 327.657c1.806,-0.19 3.639,-0.289 5.498,-0.289 28.734,0 52.026,23.293 52.026,52.025 0,28.186 -22.418,51.133 -50.39,51.998l-131.403 0.028c-24.908,0 -45.101,-20.193 -45.101,-45.101 0,-24.908 20.193,-45.101 45.101,-45.101 3.97,0 7.82,0.514 11.488,1.478l0.315 -0.997c3.257,-29.038 27.895,-51.609 57.802,-51.609 23.721,0 44.126,14.196 53.178,34.558l1.486 3.01z"/>
   <path class="fil4" d="M662.142 107.708c-2.001,-0.211 -4.034,-0.32 -6.094,-0.32 -31.851,0 -57.67,25.819 -57.67,57.668 0,31.243 24.85,56.68 55.856,57.639l145.656 0.031c27.61,0 49.993,-22.384 49.993,-49.994 0,-27.61 -22.383,-49.993 -49.993,-49.993 -4.4,0 -8.668,0.57 -12.734,1.638l-0.349 -1.105c-3.611,-32.188 -30.921,-57.207 -64.072,-57.207 -26.294,0 -48.912,15.735 -58.946,38.307l-1.647 3.336z"/>
  </g>
 </g>
</svg>
