<?xml version="1.0" encoding="UTF-8"?>
<!DOCTYPE svg PUBLIC "-//W3C//DTD SVG 1.1//EN" "http://www.w3.org/Graphics/SVG/1.1/DTD/svg11.dtd">
<!-- Creator: CorelDRAW 2018 (64-Bit) -->
<svg xmlns="http://www.w3.org/2000/svg" xml:space="preserve" width="21px" height="19px" version="1.1" style="shape-rendering:geometricPrecision; text-rendering:geometricPrecision; image-rendering:optimizeQuality; fill-rule:evenodd; clip-rule:evenodd"
viewBox="0 0 0.407 0.369"
 xmlns:xlink="http://www.w3.org/1999/xlink">
 <defs>
  <style type="text/css">
   <![CDATA[
    .fil0 {fill:gray;fill-rule:nonzero}
   ]]>
  </style>
 </defs>
 <g id="Layer_x0020_1">
  <metadata id="CorelCorpID_0Corel-Layer"/>
  <g id="_2990593575312">
   <path class="fil0" d="M0.164 0.215c0.01,-0.002 0.025,0.002 0.038,0.005 0.003,0.001 0.007,0.003 0.009,0.003 0.016,0.004 0.033,0.006 0.05,0.006 0.017,0 0.034,-0.002 0.049,-0.006 0.002,0 0.006,-0.002 0.01,-0.003 0.013,-0.003 0.027,-0.007 0.038,-0.005 0.007,0.002 0.02,0.01 0.03,0.022 0.006,0.008 0.012,0.019 0.013,0.032l0.006 0.075 0 0.002c0,0.006 -0.002,0.011 -0.006,0.015l0 0c-0.004,0.004 -0.009,0.007 -0.015,0.007 -0.082,0.002 -0.166,0 -0.248,0l-0.002 0c-0.006,0 -0.011,-0.003 -0.015,-0.007 -0.004,-0.004 -0.007,-0.009 -0.007,-0.015 0.002,-0.025 0.005,-0.051 0.007,-0.077 0.001,-0.013 0.006,-0.024 0.013,-0.032 0.01,-0.012 0.023,-0.02 0.03,-0.022zm0.031 0.027c-0.01,-0.002 -0.021,-0.006 -0.025,-0.004 -0.004,0.001 -0.012,0.005 -0.018,0.013 -0.004,0.006 -0.007,0.012 -0.008,0.02l-0.006 0.074c0.079,0 0.169,0.004 0.246,0l-0.006 -0.074c-0.001,-0.008 -0.004,-0.014 -0.009,-0.02 -0.006,-0.008 -0.013,-0.012 -0.017,-0.013 -0.004,-0.002 -0.016,0.002 -0.026,0.004 -0.003,0.001 -0.006,0.002 -0.01,0.003 -0.018,0.004 -0.037,0.007 -0.055,0.007 -0.019,0 -0.038,-0.003 -0.055,-0.007 -0.004,-0.001 -0.007,-0.002 -0.011,-0.003z"/>
   <path class="fil0" d="M0.26 0.008c0.029,0 0.054,0.012 0.072,0.03 0.019,0.019 0.03,0.044 0.03,0.072 0,0.029 -0.011,0.054 -0.03,0.073l0 0c-0.018,0.018 -0.044,0.029 -0.072,0.029 -0.028,0 -0.053,-0.011 -0.072,-0.029l0 0c-0.018,-0.019 -0.03,-0.044 -0.03,-0.073 0,-0.028 0.012,-0.053 0.03,-0.072l0.001 0c0.018,-0.018 0.044,-0.03 0.071,-0.03zm0.056 0.047c-0.014,-0.015 -0.034,-0.023 -0.056,-0.023 -0.021,0 -0.041,0.008 -0.055,0.022l0 0.001c-0.015,0.014 -0.024,0.034 -0.024,0.055 0,0.022 0.009,0.042 0.024,0.056l0 0c0.014,0.015 0.034,0.023 0.055,0.023 0.022,0 0.042,-0.008 0.056,-0.023l0 0c0.014,-0.014 0.023,-0.034 0.023,-0.056 0,-0.021 -0.009,-0.041 -0.023,-0.055z"/>
   <path class="fil0" d="M0.094 0.292c0.007,0 0.012,0.005 0.012,0.011 0,0.006 -0.005,0.012 -0.012,0.012l-0.072 0 -0.002 -0.001c-0.005,0 -0.01,-0.002 -0.014,-0.006 -0.004,-0.003 -0.006,-0.009 -0.006,-0.014 0.001,-0.022 0.004,-0.045 0.006,-0.067 0.001,-0.011 0.005,-0.021 0.011,-0.029 0.009,-0.01 0.02,-0.017 0.027,-0.019 0.01,-0.002 0.022,0.001 0.033,0.005 0.004,0.001 0.007,0.001 0.009,0.002 0.008,0.002 0.016,0.003 0.025,0.004 0.009,0.001 0.018,0.001 0.027,0 0.007,0 0.012,0.005 0.012,0.011 0.001,0.007 -0.004,0.012 -0.011,0.012 -0.01,0.001 -0.02,0.001 -0.03,0 -0.009,-0.001 -0.019,-0.003 -0.028,-0.005 -0.004,-0.001 -0.007,-0.002 -0.01,-0.002 -0.008,-0.003 -0.018,-0.005 -0.021,-0.005 -0.003,0.001 -0.009,0.005 -0.014,0.012 -0.004,0.004 -0.007,0.01 -0.007,0.016l-0.006 0.063 0.071 0z"/>
   <path class="fil0" d="M0.145 0.154c0.006,-0.001 0.012,0.003 0.014,0.009 0.002,0.006 -0.002,0.012 -0.008,0.014 -0.004,0.001 -0.008,0.001 -0.012,0.002 -0.004,0 -0.007,0.001 -0.011,0.001 -0.025,0 -0.047,-0.01 -0.064,-0.027l0 0c-0.016,-0.017 -0.026,-0.039 -0.026,-0.063 0,-0.025 0.01,-0.047 0.026,-0.064l0.001 0c0.016,-0.016 0.038,-0.026 0.063,-0.026 0.009,0 0.017,0.001 0.025,0.004 0.008,0.002 0.016,0.006 0.023,0.01 0.005,0.004 0.007,0.011 0.004,0.016 -0.004,0.005 -0.011,0.007 -0.016,0.003 -0.005,-0.003 -0.011,-0.006 -0.017,-0.007 -0.006,-0.002 -0.012,-0.003 -0.019,-0.003 -0.018,0 -0.035,0.007 -0.047,0.019l0 0.001c-0.012,0.012 -0.02,0.028 -0.02,0.047 0,0.018 0.007,0.035 0.019,0.047l0.001 0c0.012,0.012 0.028,0.02 0.047,0.02 0.003,0 0.006,-0.001 0.009,-0.001 0.002,0 0.005,-0.001 0.008,-0.002z"/>
  </g>
 </g>
</svg>
