<?xml version="1.0" encoding="UTF-8"?>
<!DOCTYPE svg PUBLIC "-//W3C//DTD SVG 1.1//EN" "http://www.w3.org/Graphics/SVG/1.1/DTD/svg11.dtd">
<!-- Creator: CorelDRAW 2018 (64-Bit) -->
<svg xmlns="http://www.w3.org/2000/svg" xml:space="preserve" width="21px" height="19px" version="1.1" style="shape-rendering:geometricPrecision; text-rendering:geometricPrecision; image-rendering:optimizeQuality; fill-rule:evenodd; clip-rule:evenodd"
viewBox="0 0 0.403 0.366"
 xmlns:xlink="http://www.w3.org/1999/xlink">
 <defs>
  <style type="text/css">
   <![CDATA[
    .fil0 {fill:gray;fill-rule:nonzero}
   ]]>
  </style>
 </defs>
 <g id="Layer_x0020_1">
  <metadata id="CorelCorpID_0Corel-Layer"/>
  <g id="_2990218384816">
   <path class="fil0" d="M0.019 0.356c0,0.005 -0.004,0.01 -0.009,0.01 -0.006,0 -0.01,-0.005 -0.01,-0.01l0 -0.228c0,-0.005 0.004,-0.009 0.009,-0.009l0.193 -0.019c0.005,-0.001 0.01,0.003 0.011,0.008 0,0.005 -0.004,0.01 -0.009,0.011l-0.185 0.018 0 0.219z"/>
   <path class="fil0" d="M0.049 0.319l0.116 -0.001c0.005,-0.001 0.009,0.004 0.009,0.009l0 0.029c0,0.005 -0.004,0.01 -0.009,0.01l-0.117 0c-0.005,0 -0.01,-0.005 -0.01,-0.01l0 -0.027c0,-0.006 0.005,-0.01 0.01,-0.01l0.001 0zm0.106 0.018l-0.097 0.001 0 0.008 0.097 0 0 -0.009zm-0.107 -0.178l0.116 -0.01c0.005,0 0.01,0.004 0.01,0.009l0 0.03c0,0.005 -0.004,0.01 -0.009,0.01l-0.116 0.007c-0.006,0.001 -0.01,-0.003 -0.01,-0.008l-0.001 -0.028c0,-0.005 0.005,-0.01 0.01,-0.01zm0.107 0.01l-0.097 0.009 0 0.008 0.097 -0.007 0 -0.01zm-0.107 0.07l0.116 -0.005c0.005,-0.001 0.01,0.003 0.01,0.009l0 0.029c0,0.005 -0.004,0.01 -0.009,0.01l-0.117 0.004c-0.005,0 -0.009,-0.004 -0.009,-0.01l-0.001 -0.027c0,-0.006 0.005,-0.01 0.01,-0.01l0 0zm0.107 0.014l-0.097 0.005 0 0.008 0.097 -0.003 0 -0.01z"/>
   <path class="fil0" d="M0.207 0.1l0.081 0.029c0.004,0.002 0.006,0.005 0.006,0.009l0 0.218c0,0.005 -0.004,0.01 -0.009,0.01l-0.082 0c-0.005,0 -0.009,-0.005 -0.009,-0.01l0 -0.247c0,-0.005 0.004,-0.009 0.009,-0.009 0.002,0 0.003,0 0.004,0zm0.068 0.045l-0.062 -0.022 0 0.223 0.062 0 0 -0.201z"/>
   <path class="fil0" d="M0.183 0.112c0,0.005 -0.004,0.01 -0.009,0.01 -0.006,0 -0.01,-0.005 -0.01,-0.01l0 -0.087c0,-0.005 0.004,-0.009 0.009,-0.01l0.154 -0.015c0.005,0 0.01,0.003 0.011,0.009 0,0.005 -0.004,0.01 -0.009,0.01l-0.146 0.015 0 0.078z"/>
   <path class="fil0" d="M0.318 0.356l0 -0.346c0,-0.006 0.005,-0.01 0.01,-0.01 0.002,0 0.003,0 0.004,0.001l0.064 0.023c0.004,0.001 0.007,0.005 0.007,0.009l0 0.323c0,0.005 -0.005,0.01 -0.01,0.01l-0.065 0c-0.005,0 -0.01,-0.005 -0.01,-0.01zm0.02 -0.333l0 0.323 0.046 0 0 -0.306 -0.046 -0.017z"/>
  </g>
 </g>
</svg>
