<?xml version="1.0" encoding="UTF-8"?>
<!DOCTYPE svg PUBLIC "-//W3C//DTD SVG 1.1//EN" "http://www.w3.org/Graphics/SVG/1.1/DTD/svg11.dtd">
<!-- Creator: CorelDRAW 2018 (64-Bit) -->
<svg xmlns="http://www.w3.org/2000/svg" xml:space="preserve" width="17px" height="22px" version="1.1" style="shape-rendering:geometricPrecision; text-rendering:geometricPrecision; image-rendering:optimizeQuality; fill-rule:evenodd; clip-rule:evenodd"
viewBox="0 0 0.262 0.337"
 xmlns:xlink="http://www.w3.org/1999/xlink">
 <defs>
  <style type="text/css">
   <![CDATA[
    .fil0 {fill:#052337}
    .fil1 {fill:#052337;fill-rule:nonzero}
   ]]>
  </style>
 </defs>
 <g id="Layer_x0020_1">
  <metadata id="CorelCorpID_0Corel-Layer"/>
  <g id="_2990603752416">
   <path class="fil0" d="M0.262 0.329c0,0.004 -0.004,0.008 -0.008,0.008l-0.245 0c-0.005,0 -0.009,-0.004 -0.009,-0.008l0 -0.32c0,-0.005 0.004,-0.009 0.009,-0.009l0.245 0c0.004,0 0.008,0.004 0.008,0.009 0,0.106 0,0.213 0,0.32zm-0.247 -0.315l0.232 0 0 0.309 -0.232 0 0 -0.309z"/>
   <path class="fil1" d="M0.048 0.228c-0.004,0 -0.007,-0.004 -0.007,-0.008 0,-0.004 0.003,-0.008 0.007,-0.008l0.166 0c0.004,0 0.008,0.004 0.008,0.008 0,0.004 -0.004,0.008 -0.008,0.008l-0.166 0z"/>
   <path class="fil1" d="M0.048 0.281c-0.004,0 -0.007,-0.004 -0.007,-0.008 0,-0.004 0.003,-0.008 0.007,-0.008l0.166 0c0.004,0 0.008,0.004 0.008,0.008 0,0.004 -0.004,0.008 -0.008,0.008l-0.166 0z"/>
   <path class="fil1" d="M0.097 0.123c0.005,-0.001 0.01,0 0.015,0.002l0.004 0.001c0.004,0.001 0.01,0.001 0.015,0.001 0.006,0 0.011,0 0.016,-0.001l0.004 -0.001c0.004,-0.002 0.01,-0.003 0.014,-0.002l0.001 0c0.003,0.001 0.008,0.004 0.011,0.009 0.003,0.003 0.005,0.008 0.006,0.013l0.002 0.025 0 0.001c0,0.003 -0.002,0.006 -0.004,0.008 -0.002,0.002 -0.004,0.003 -0.007,0.004 -0.027,0.001 -0.058,0 -0.085,0l-0.001 -0.001c-0.003,0 -0.005,-0.001 -0.007,-0.003 -0.002,-0.002 -0.004,-0.005 -0.004,-0.008l0.003 -0.026c0,-0.005 0.002,-0.01 0.005,-0.013 0.004,-0.005 0.009,-0.008 0.012,-0.009zm0.011 0.017c-0.003,-0.001 -0.006,-0.002 -0.007,-0.002 -0.001,0 -0.002,0.001 -0.004,0.003 -0.001,0.002 -0.002,0.003 -0.002,0.005l-0.002 0.021 0.076 0 -0.002 -0.021c0,-0.002 -0.001,-0.003 -0.002,-0.005 -0.001,-0.002 -0.003,-0.003 -0.004,-0.003l0 0c0,0 -0.003,0.001 -0.006,0.001l-0.004 0.002c-0.007,0.001 -0.013,0.002 -0.02,0.002 -0.006,0 -0.013,-0.001 -0.019,-0.002l0 0 -0.004 -0.001z"/>
   <path class="fil1" d="M0.131 0.049c0.011,0 0.02,0.004 0.027,0.011 0.007,0.007 0.012,0.017 0.012,0.028 0,0.01 -0.005,0.02 -0.012,0.027l0 0c-0.007,0.007 -0.017,0.011 -0.027,0.011 -0.011,0 -0.02,-0.004 -0.027,-0.011 -0.007,-0.007 -0.012,-0.017 -0.012,-0.027 0,-0.011 0.005,-0.021 0.012,-0.028 0.007,-0.007 0.016,-0.011 0.027,-0.011zm0.016 0.022c-0.004,-0.004 -0.01,-0.006 -0.016,-0.006 -0.006,0 -0.012,0.002 -0.016,0.006 -0.005,0.004 -0.007,0.01 -0.007,0.017 0,0.006 0.002,0.012 0.007,0.016 0.004,0.004 0.01,0.007 0.016,0.007 0.006,0 0.012,-0.003 0.016,-0.007l0 0c0.004,-0.004 0.007,-0.01 0.007,-0.016 0,-0.007 -0.003,-0.012 -0.007,-0.017z"/>
  </g>
 </g>
</svg>
