<?xml version="1.0" encoding="UTF-8"?>
<!DOCTYPE svg PUBLIC "-//W3C//DTD SVG 1.1//EN" "http://www.w3.org/Graphics/SVG/1.1/DTD/svg11.dtd">
<!-- Creator: CorelDRAW 2018 (64-Bit) -->
<svg xmlns="http://www.w3.org/2000/svg" xml:space="preserve" width="52px" height="47px" version="1.1" style="shape-rendering:geometricPrecision; text-rendering:geometricPrecision; image-rendering:optimizeQuality; fill-rule:evenodd; clip-rule:evenodd"
viewBox="0 0 52 46.56"
 xmlns:xlink="http://www.w3.org/1999/xlink">
 <defs>
  <style type="text/css">
   <![CDATA[
    .fil0 {fill:#052337;fill-rule:nonzero}
   ]]>
  </style>
 </defs>
 <g id="Layer_x0020_1">
  <metadata id="CorelCorpID_0Corel-Layer"/>
  <g id="_3159006349664">
   <path class="fil0" d="M0 18.54l0 -5c0,-1.59 0.67,-3.03 1.74,-4.08 1.08,-1.02 2.54,-1.67 4.16,-1.67l40.2 0c1.62,0 3.08,0.64 4.13,1.67 1.1,1.05 1.77,2.49 1.77,4.08l0 5.13c0,0.69 -0.46,1.25 -1.05,1.46 -3.18,1.18 -6.49,2.43 -9.72,3.67 -2.82,1.05 -5.56,2.1 -9.41,3.53l-0.79 0.31c-1.47,0.59 -2.77,1.1 -5.03,1.1 -2.26,0 -3.56,-0.51 -5.02,-1.1l-0.82 -0.31c-3.47,-1.3 -6.36,-2.43 -9.34,-3.59 -3.1,-1.2 -6.28,-2.43 -9.82,-3.74 -0.61,-0.23 -1,-0.82 -1,-1.46l0 0zm3.1 -5l0 3.92c3.31,1.26 6.1,2.34 8.85,3.41 3.05,1.18 6.05,2.36 9.28,3.57l0.87 0.33c1.18,0.46 2.21,0.87 3.9,0.87 1.67,0 2.72,-0.41 3.9,-0.9l0.84 -0.3c2.93,-1.11 6.13,-2.31 9.39,-3.54l8.77 -3.31 0 -4.05c0,-0.72 -0.31,-1.36 -0.8,-1.85 -0.51,-0.48 -1.23,-0.79 -2,-0.79l-40.2 0c-0.8,0 -1.49,0.31 -2,0.79 -0.49,0.49 -0.8,1.13 -0.8,1.85l0 0z"/>
   <path class="fil0" d="M48 23.95c0,-0.87 0.69,-1.56 1.56,-1.56 0.85,0 1.54,0.69 1.54,1.56l0 16.87c0,1.59 -0.64,3.03 -1.66,4.05 -1.06,1.05 -2.49,1.69 -4.06,1.69l-38.77 0c-1.59,0 -3.02,-0.64 -4.05,-1.69 -1.05,-1.02 -1.69,-2.46 -1.69,-4.05l0 -17c0,-0.84 0.69,-1.56 1.56,-1.56 0.85,0 1.54,0.72 1.54,1.56l0 17c0,0.74 0.31,1.39 0.8,1.87 0.46,0.46 1.13,0.77 1.84,0.77l38.77 0c0.72,0 1.36,-0.31 1.85,-0.77 0.49,-0.48 0.77,-1.13 0.77,-1.87l0 -16.87z"/>
   <path class="fil0" d="M29.61 26.1c0,-0.84 0.72,-1.53 1.57,-1.53 0.84,0 1.56,0.69 1.56,1.53l0 6.62c0,0.87 -0.72,1.56 -1.56,1.56l-10.36 0c-0.87,0 -1.56,-0.69 -1.56,-1.56l0 -6.62c0,-0.84 0.69,-1.53 1.56,-1.53 0.85,0 1.54,0.69 1.54,1.53l0 5.08 7.25 0 0 -5.08z"/>
   <path class="fil0" d="M17.23 4.74c0,0.85 -0.69,1.54 -1.54,1.54 -0.87,0 -1.56,-0.69 -1.56,-1.54 0,-1.46 0.84,-2.69 2.23,-3.56 1.13,-0.72 2.69,-1.18 4.38,-1.18l10.52 0c1.66,0 3.23,0.46 4.38,1.18 1.36,0.87 2.21,2.1 2.21,3.56 0,0.85 -0.7,1.54 -1.54,1.54 -0.87,0 -1.57,-0.69 -1.57,-1.54 0,-0.3 -0.28,-0.64 -0.74,-0.95 -0.69,-0.43 -1.64,-0.69 -2.74,-0.69l-10.52 0c-1.1,0 -2.07,0.26 -2.74,0.69 -0.46,0.31 -0.77,0.65 -0.77,0.95z"/>
  </g>
 </g>
</svg>
