<?xml version="1.0" encoding="UTF-8"?>
<!DOCTYPE svg PUBLIC "-//W3C//DTD SVG 1.1//EN" "http://www.w3.org/Graphics/SVG/1.1/DTD/svg11.dtd">
<!-- Creator: CorelDRAW 2018 (64-Bit) -->
<svg xmlns="http://www.w3.org/2000/svg" xml:space="preserve" width="41px" height="32px" version="1.1" style="shape-rendering:geometricPrecision; text-rendering:geometricPrecision; image-rendering:optimizeQuality; fill-rule:evenodd; clip-rule:evenodd"
viewBox="0 0 18.344 14.254"
 xmlns:xlink="http://www.w3.org/1999/xlink">
 <defs>
  <style type="text/css">
   <![CDATA[
    .fil0 {fill:black;fill-rule:nonzero}
    .fil1 {fill:#EB001B;fill-rule:nonzero}
    .fil3 {fill:#F79E1B;fill-rule:nonzero}
    .fil2 {fill:#FF5A00;fill-rule:nonzero}
   ]]>
  </style>
 </defs>
 <g id="Layer_x0020_1">
  <metadata id="CorelCorpID_0Corel-Layer"/>
  <g id="_1504039309504">
   <path class="fil0" d="M3.143 12.795c-0.053,-0.052 -0.115,-0.093 -0.187,-0.123 -0.073,-0.029 -0.152,-0.044 -0.237,-0.044 -0.046,0 -0.093,0.004 -0.142,0.012 -0.049,0.008 -0.097,0.022 -0.144,0.042 -0.047,0.02 -0.092,0.047 -0.134,0.082 -0.043,0.035 -0.08,0.079 -0.111,0.132 -0.051,-0.083 -0.119,-0.149 -0.205,-0.196 -0.087,-0.048 -0.185,-0.072 -0.297,-0.072 -0.037,0 -0.076,0.004 -0.116,0.011 -0.04,0.006 -0.079,0.018 -0.119,0.035 -0.039,0.017 -0.077,0.039 -0.112,0.068 -0.036,0.029 -0.069,0.065 -0.098,0.109l0 -0.183 -0.316 0 0 1.5 0.319 0 0 -0.832c0,-0.063 0.01,-0.12 0.03,-0.169 0.02,-0.05 0.047,-0.092 0.081,-0.125 0.034,-0.033 0.074,-0.059 0.119,-0.076 0.046,-0.017 0.094,-0.026 0.146,-0.026 0.107,0 0.19,0.034 0.249,0.102 0.059,0.068 0.089,0.165 0.089,0.291l0 0.835 0.318 0 0 -0.832c0,-0.063 0.01,-0.12 0.03,-0.169 0.021,-0.05 0.047,-0.092 0.081,-0.125 0.034,-0.033 0.074,-0.059 0.119,-0.076 0.046,-0.017 0.094,-0.026 0.146,-0.026 0.107,0 0.19,0.034 0.249,0.102 0.059,0.068 0.089,0.165 0.089,0.291l0 0.835 0.318 0 0 -0.943c0,-0.087 -0.014,-0.168 -0.043,-0.241 -0.029,-0.073 -0.07,-0.136 -0.122,-0.189z"/>
   <path class="fil0" d="M4.822 12.849c-0.053,-0.066 -0.117,-0.12 -0.195,-0.16 -0.077,-0.04 -0.169,-0.061 -0.277,-0.061 -0.105,0 -0.203,0.02 -0.294,0.059 -0.091,0.039 -0.17,0.094 -0.238,0.164 -0.068,0.07 -0.121,0.153 -0.16,0.25 -0.039,0.096 -0.058,0.202 -0.058,0.317 0,0.115 0.019,0.22 0.058,0.317 0.039,0.097 0.092,0.18 0.16,0.25 0.068,0.07 0.147,0.124 0.238,0.163 0.091,0.04 0.189,0.059 0.294,0.059 0.108,0 0.2,-0.02 0.277,-0.059 0.078,-0.04 0.142,-0.093 0.195,-0.16l0 0.18 0.327 0 0 -1.5 -0.327 0 0 0.181zm-0.013 0.76l0 0c-0.022,0.058 -0.053,0.109 -0.092,0.152 -0.04,0.043 -0.088,0.076 -0.143,0.101 -0.055,0.024 -0.117,0.037 -0.185,0.037 -0.071,0 -0.134,-0.013 -0.19,-0.039 -0.056,-0.025 -0.103,-0.06 -0.142,-0.103 -0.038,-0.043 -0.068,-0.094 -0.089,-0.153 -0.021,-0.058 -0.031,-0.12 -0.031,-0.186 0,-0.066 0.01,-0.128 0.031,-0.187 0.021,-0.058 0.051,-0.109 0.089,-0.152 0.039,-0.043 0.086,-0.078 0.142,-0.104 0.056,-0.025 0.119,-0.038 0.19,-0.038 0.068,0 0.13,0.012 0.185,0.037 0.055,0.024 0.103,0.058 0.143,0.101 0.039,0.043 0.07,0.093 0.092,0.152 0.022,0.058 0.033,0.122 0.033,0.191 0,0.069 -0.011,0.132 -0.033,0.191z"/>
   <path class="fil0" d="M6.653 13.415c-0.091,-0.071 -0.219,-0.119 -0.383,-0.143l-0.155 -0.023c-0.035,-0.006 -0.067,-0.011 -0.097,-0.018 -0.031,-0.007 -0.057,-0.016 -0.079,-0.028 -0.022,-0.011 -0.039,-0.026 -0.052,-0.044 -0.013,-0.017 -0.02,-0.039 -0.02,-0.065 0,-0.054 0.025,-0.097 0.075,-0.13 0.049,-0.032 0.119,-0.049 0.209,-0.049 0.047,0 0.093,0.004 0.138,0.013 0.046,0.008 0.089,0.018 0.13,0.031 0.04,0.012 0.077,0.026 0.111,0.041 0.033,0.016 0.061,0.03 0.084,0.044l0.141 -0.256c-0.078,-0.05 -0.169,-0.089 -0.274,-0.116 -0.104,-0.028 -0.215,-0.042 -0.333,-0.042 -0.096,0 -0.183,0.011 -0.259,0.034 -0.076,0.022 -0.141,0.054 -0.195,0.095 -0.054,0.042 -0.095,0.092 -0.123,0.151 -0.029,0.06 -0.044,0.127 -0.044,0.201 0,0.121 0.044,0.219 0.13,0.293 0.086,0.075 0.212,0.124 0.379,0.147l0.157 0.02c0.09,0.013 0.156,0.033 0.197,0.061 0.042,0.027 0.063,0.062 0.063,0.105 0,0.057 -0.029,0.101 -0.086,0.134 -0.058,0.033 -0.143,0.05 -0.255,0.05 -0.062,0 -0.117,-0.005 -0.166,-0.013 -0.048,-0.008 -0.093,-0.02 -0.133,-0.034 -0.04,-0.014 -0.076,-0.03 -0.108,-0.048 -0.032,-0.019 -0.061,-0.038 -0.088,-0.059l-0.152 0.246c0.054,0.041 0.111,0.074 0.17,0.099 0.06,0.025 0.118,0.044 0.176,0.058 0.057,0.015 0.112,0.024 0.163,0.029 0.051,0.004 0.096,0.007 0.134,0.007 0.108,0 0.204,-0.012 0.289,-0.036 0.085,-0.024 0.157,-0.058 0.215,-0.102 0.058,-0.043 0.102,-0.094 0.133,-0.154 0.031,-0.06 0.046,-0.127 0.046,-0.199 0,-0.128 -0.046,-0.228 -0.138,-0.3z"/>
   <path class="fil0" d="M9.718 12.847c-0.062,-0.069 -0.137,-0.123 -0.224,-0.161 -0.087,-0.038 -0.183,-0.058 -0.287,-0.058 -0.111,0 -0.212,0.02 -0.303,0.058 -0.092,0.038 -0.17,0.092 -0.236,0.161 -0.066,0.069 -0.117,0.153 -0.153,0.25 -0.037,0.097 -0.055,0.204 -0.055,0.321 0,0.119 0.019,0.227 0.056,0.324 0.038,0.097 0.09,0.18 0.158,0.249 0.068,0.069 0.149,0.122 0.243,0.16 0.094,0.037 0.197,0.056 0.31,0.056 0.114,0 0.222,-0.016 0.325,-0.047 0.103,-0.031 0.2,-0.086 0.292,-0.164l-0.163 -0.234c-0.062,0.051 -0.131,0.089 -0.207,0.117 -0.076,0.028 -0.151,0.042 -0.226,0.042 -0.054,0 -0.105,-0.008 -0.154,-0.022 -0.049,-0.015 -0.093,-0.038 -0.133,-0.068 -0.04,-0.031 -0.074,-0.071 -0.102,-0.119 -0.028,-0.048 -0.047,-0.106 -0.058,-0.174l1.109 0c0.002,-0.018 0.004,-0.038 0.005,-0.059 0.001,-0.021 0.001,-0.042 0.001,-0.063 0,-0.117 -0.017,-0.223 -0.052,-0.32 -0.035,-0.097 -0.084,-0.18 -0.146,-0.249zm-0.915 0.442l0 0c0.008,-0.054 0.023,-0.104 0.044,-0.149 0.02,-0.046 0.047,-0.085 0.08,-0.118 0.033,-0.033 0.072,-0.058 0.118,-0.076 0.045,-0.017 0.097,-0.026 0.155,-0.026 0.105,0 0.19,0.032 0.256,0.097 0.066,0.065 0.107,0.155 0.125,0.272l-0.778 0z"/>
   <path class="fil0" d="M14.067 12.849c-0.052,-0.066 -0.117,-0.12 -0.194,-0.16 -0.078,-0.04 -0.17,-0.061 -0.278,-0.061 -0.105,0 -0.203,0.02 -0.294,0.059 -0.091,0.039 -0.17,0.094 -0.238,0.164 -0.068,0.07 -0.121,0.153 -0.16,0.25 -0.038,0.096 -0.058,0.202 -0.058,0.317 0,0.115 0.02,0.22 0.058,0.317 0.039,0.097 0.092,0.18 0.16,0.25 0.068,0.07 0.147,0.124 0.238,0.163 0.091,0.04 0.189,0.059 0.294,0.059 0.108,0 0.2,-0.02 0.278,-0.059 0.077,-0.04 0.142,-0.093 0.194,-0.16l0 0.18 0.327 0 0 -1.5 -0.327 0 0 0.181zm-0.013 0.76l0 0c-0.022,0.058 -0.052,0.109 -0.092,0.152 -0.04,0.043 -0.087,0.076 -0.143,0.101 -0.055,0.024 -0.117,0.037 -0.184,0.037 -0.071,0 -0.135,-0.013 -0.191,-0.039 -0.056,-0.025 -0.103,-0.06 -0.141,-0.103 -0.039,-0.043 -0.069,-0.094 -0.09,-0.153 -0.021,-0.058 -0.031,-0.12 -0.031,-0.186 0,-0.066 0.01,-0.128 0.031,-0.187 0.021,-0.058 0.051,-0.109 0.09,-0.152 0.038,-0.043 0.085,-0.078 0.141,-0.104 0.056,-0.025 0.12,-0.038 0.191,-0.038 0.067,0 0.129,0.012 0.184,0.037 0.056,0.024 0.103,0.058 0.143,0.101 0.04,0.043 0.07,0.093 0.092,0.152 0.022,0.058 0.033,0.122 0.033,0.191 0,0.069 -0.011,0.132 -0.033,0.191z"/>
   <path class="fil0" d="M8.057 13.869c-0.053,0.02 -0.105,0.03 -0.156,0.03 -0.033,0 -0.064,-0.006 -0.093,-0.016 -0.029,-0.01 -0.054,-0.027 -0.075,-0.049 -0.022,-0.023 -0.039,-0.052 -0.051,-0.087 -0.013,-0.036 -0.019,-0.079 -0.019,-0.129l0 -0.653 0.526 0 0 -0.297 -0.526 0 0 -0.455 -0.329 0 0 0.455 -0.299 0 0 0.297 0.299 0 0 0.66c0,0.199 0.047,0.346 0.142,0.44 0.094,0.095 0.227,0.142 0.397,0.142 0.095,0 0.18,-0.014 0.256,-0.044 0.05,-0.019 0.096,-0.041 0.14,-0.065l-0.112 -0.275c-0.032,0.017 -0.065,0.033 -0.1,0.046z"/>
   <path class="fil0" d="M11.012 12.628c-0.092,0 -0.175,0.017 -0.249,0.051 -0.074,0.033 -0.136,0.114 -0.186,0.186l0 -0.197 -0.297 0 0 1.5 0.3 0 0 -0.825c0,-0.064 0.009,-0.121 0.026,-0.171 0.018,-0.05 0.043,-0.092 0.074,-0.127 0.031,-0.034 0.069,-0.06 0.113,-0.078 0.044,-0.018 0.092,-0.027 0.144,-0.027 0.04,0 0.082,0.005 0.128,0.014 0.024,0.005 0.046,0.011 0.066,0.018l0.097 -0.313c-0.026,-0.008 -0.053,-0.016 -0.08,-0.02 -0.041,-0.007 -0.086,-0.011 -0.136,-0.011z"/>
   <path class="fil0" d="M15.562 12.628c-0.092,0 -0.175,0.017 -0.249,0.051 -0.074,0.033 -0.136,0.114 -0.186,0.186l0 -0.197 -0.297 0 0 1.5 0.3 0 0 -0.825c0,-0.064 0.009,-0.121 0.027,-0.171 0.017,-0.05 0.042,-0.092 0.073,-0.127 0.032,-0.034 0.069,-0.06 0.113,-0.078 0.044,-0.018 0.092,-0.027 0.144,-0.027 0.04,0 0.082,0.005 0.128,0.014 0.024,0.005 0.046,0.011 0.066,0.018l0.097 -0.313c-0.026,-0.008 -0.053,-0.016 -0.08,-0.02 -0.041,-0.007 -0.086,-0.011 -0.136,-0.011z"/>
   <path class="fil0" d="M17.091 12.058l0 0.791c-0.052,-0.066 -0.117,-0.12 -0.194,-0.16 -0.078,-0.04 -0.17,-0.061 -0.277,-0.061 -0.106,0 -0.204,0.02 -0.295,0.059 -0.091,0.039 -0.17,0.094 -0.238,0.164 -0.068,0.07 -0.121,0.153 -0.16,0.25 -0.038,0.096 -0.058,0.202 -0.058,0.317 0,0.115 0.02,0.22 0.058,0.317 0.039,0.097 0.092,0.18 0.16,0.25 0.068,0.07 0.147,0.124 0.238,0.163 0.091,0.04 0.189,0.059 0.295,0.059 0.107,0 0.199,-0.02 0.277,-0.059 0.077,-0.04 0.142,-0.093 0.194,-0.16l0 0.18 0.327 0 0 -2.11 -0.327 0zm-0.013 1.551l0 0c-0.021,0.058 -0.052,0.109 -0.092,0.152 -0.04,0.043 -0.087,0.076 -0.142,0.101 -0.056,0.024 -0.117,0.037 -0.185,0.037 -0.071,0 -0.135,-0.013 -0.19,-0.039 -0.056,-0.025 -0.104,-0.06 -0.142,-0.103 -0.039,-0.043 -0.069,-0.094 -0.089,-0.153 -0.021,-0.058 -0.032,-0.12 -0.032,-0.186 0,-0.066 0.011,-0.128 0.032,-0.187 0.02,-0.058 0.05,-0.109 0.089,-0.152 0.038,-0.043 0.086,-0.078 0.142,-0.104 0.055,-0.025 0.119,-0.038 0.19,-0.038 0.068,0 0.129,0.012 0.185,0.037 0.055,0.024 0.102,0.058 0.142,0.101 0.04,0.043 0.071,0.093 0.092,0.152 0.022,0.058 0.033,0.122 0.033,0.191 0,0.069 -0.011,0.132 -0.033,0.191z"/>
   <path class="fil0" d="M11.795 13.071c0.042,-0.042 0.092,-0.075 0.149,-0.099 0.058,-0.023 0.12,-0.035 0.187,-0.035 0.073,0 0.141,0.012 0.205,0.035 0.061,0.023 0.114,0.055 0.158,0.095l0.158 -0.262c-0.059,-0.047 -0.126,-0.086 -0.2,-0.116 -0.098,-0.04 -0.206,-0.061 -0.321,-0.061 -0.116,0 -0.224,0.021 -0.322,0.061 -0.099,0.04 -0.184,0.095 -0.256,0.166 -0.071,0.07 -0.127,0.154 -0.168,0.25 -0.041,0.096 -0.061,0.2 -0.061,0.313 0,0.113 0.02,0.217 0.061,0.313 0.041,0.096 0.097,0.179 0.168,0.25 0.072,0.07 0.157,0.126 0.256,0.166 0.098,0.04 0.206,0.06 0.322,0.06 0.115,0 0.223,-0.02 0.321,-0.06 0.074,-0.03 0.141,-0.069 0.2,-0.116l-0.158 -0.262c-0.044,0.04 -0.097,0.072 -0.158,0.094 -0.064,0.024 -0.132,0.036 -0.205,0.036 -0.067,0 -0.129,-0.012 -0.187,-0.036 -0.057,-0.023 -0.107,-0.056 -0.149,-0.098 -0.041,-0.043 -0.074,-0.093 -0.098,-0.152 -0.024,-0.059 -0.036,-0.124 -0.036,-0.195 0,-0.071 0.012,-0.136 0.036,-0.195 0.024,-0.059 0.057,-0.11 0.098,-0.152z"/>
   <path class="fil0" d="M18.108 13.948c0.022,0 0.042,0.004 0.061,0.012 0.019,0.008 0.036,0.019 0.05,0.033 0.014,0.014 0.025,0.03 0.034,0.049 0.008,0.018 0.012,0.038 0.012,0.059 0,0.021 -0.004,0.041 -0.012,0.059 -0.009,0.019 -0.02,0.035 -0.034,0.049 -0.014,0.014 -0.031,0.025 -0.05,0.033 -0.019,0.008 -0.039,0.012 -0.061,0.012 -0.022,0 -0.043,-0.004 -0.062,-0.012 -0.02,-0.008 -0.037,-0.019 -0.051,-0.033 -0.014,-0.014 -0.025,-0.03 -0.033,-0.049 -0.008,-0.018 -0.012,-0.038 -0.012,-0.059 0,-0.021 0.004,-0.041 0.012,-0.059 0.008,-0.019 0.019,-0.035 0.033,-0.049 0.014,-0.014 0.031,-0.025 0.051,-0.033 0.019,-0.008 0.04,-0.012 0.062,-0.012zm0 0.264l0 0c0.015,0 0.029,-0.003 0.043,-0.009 0.013,-0.006 0.025,-0.013 0.035,-0.024 0.01,-0.009 0.017,-0.021 0.023,-0.035 0.006,-0.013 0.009,-0.027 0.009,-0.043 0,-0.015 -0.003,-0.029 -0.009,-0.043 -0.006,-0.013 -0.013,-0.025 -0.023,-0.035 -0.01,-0.01 -0.022,-0.018 -0.035,-0.023 -0.014,-0.006 -0.028,-0.009 -0.043,-0.009 -0.016,0 -0.03,0.003 -0.044,0.009 -0.013,0.005 -0.025,0.013 -0.035,0.023 -0.01,0.01 -0.018,0.022 -0.024,0.035 -0.005,0.014 -0.008,0.028 -0.008,0.043 0,0.016 0.003,0.03 0.008,0.043 0.006,0.014 0.014,0.026 0.024,0.035 0.01,0.011 0.022,0.018 0.035,0.024 0.014,0.006 0.028,0.009 0.044,0.009zm0.009 -0.179l0 0c0.018,0 0.033,0.004 0.042,0.013 0.01,0.008 0.015,0.019 0.015,0.033 0,0.011 -0.004,0.02 -0.011,0.027 -0.007,0.007 -0.017,0.012 -0.03,0.014l0.042 0.049 -0.045 0 -0.038 -0.047 -0.005 0 0 0.047 -0.038 0 0 -0.136 0.068 0zm-0.03 0.033l0 0 0 0.025 0.029 0c0.006,0 0.01,-0.001 0.014,-0.002 0.003,-0.002 0.004,-0.005 0.004,-0.01 0,-0.004 -0.001,-0.007 -0.004,-0.009 -0.004,-0.003 -0.008,-0.004 -0.014,-0.004l-0.029 0z"/>
   <path class="fil1" d="M7.015 5.654c0,-1.797 0.839,-3.397 2.147,-4.433 -0.964,-0.764 -2.182,-1.221 -3.508,-1.221 -3.122,0 -5.654,2.532 -5.654,5.654 0,3.123 2.532,5.655 5.654,5.655 1.326,0 2.544,-0.457 3.508,-1.221 -1.308,-1.036 -2.147,-2.636 -2.147,-4.434z"/>
   <path class="fil2" d="M7.015 5.654c0,1.798 0.839,3.398 2.147,4.434 1.307,-1.036 2.147,-2.636 2.147,-4.434 0,-1.797 -0.84,-3.397 -2.147,-4.433 -1.308,1.036 -2.147,2.636 -2.147,4.433z"/>
   <path class="fil3" d="M17.94 8.713l0 -0.166 -0.067 0 0 -0.045 0.183 0 0 0.045 -0.067 0 0 0.166 -0.049 0zm0.354 0l0 0 0 -0.147 -0.047 0.127 -0.053 0 -0.047 -0.126 0 0.146 -0.049 0 0 -0.211 0.07 0 0.053 0.135 0.052 -0.135 0.071 0 0 0.211 -0.05 0z"/>
   <path class="fil3" d="M12.669 0c-1.325,0 -2.543,0.457 -3.507,1.221 1.307,1.036 2.147,2.636 2.147,4.433 0,1.798 -0.84,3.398 -2.147,4.434 0.964,0.764 2.182,1.221 3.507,1.221 3.123,0 5.654,-2.532 5.654,-5.655 0,-3.122 -2.531,-5.654 -5.654,-5.654z"/>
  </g>
 </g>
</svg>
