<?xml version="1.0" encoding="UTF-8"?>
<!DOCTYPE svg PUBLIC "-//W3C//DTD SVG 1.1//EN" "http://www.w3.org/Graphics/SVG/1.1/DTD/svg11.dtd">
<!-- Creator: CorelDRAW 2018 (64-Bit) -->
<svg xmlns="http://www.w3.org/2000/svg" xml:space="preserve" width="80px" height="48px" version="1.1" style="shape-rendering:geometricPrecision; text-rendering:geometricPrecision; image-rendering:optimizeQuality; fill-rule:evenodd; clip-rule:evenodd"
viewBox="0 0 9.897 5.938"
 xmlns:xlink="http://www.w3.org/1999/xlink">
 <defs>
  <style type="text/css">
   <![CDATA[
    .fil1 {fill:none}
    .fil0 {fill:#00F4FF;fill-rule:nonzero}
   ]]>
  </style>
 </defs>
 <g id="Layer_x0020_1">
  <metadata id="CorelCorpID_0Corel-Layer"/>
  <g id="_1916540901952">
   <g>
    <path class="fil0" d="M7.162 1.322c-0.355,0.326 -0.799,0.442 -1.17,0.539 -0.153,0.039 -0.292,0.076 -0.404,0.122l0 0.654c0,0.185 0.106,0.406 0.295,0.601 0.169,0.174 0.404,0.326 0.689,0.413 0.284,-0.087 0.519,-0.239 0.689,-0.413 0.189,-0.195 0.295,-0.416 0.295,-0.601l0 -0.667c-0.024,-0.02 -0.046,-0.037 -0.068,-0.054 -0.129,-0.098 -0.245,-0.186 -0.326,-0.594zm-1.201 0.419c0.385,-0.1 0.853,-0.223 1.196,-0.587 0.009,-0.01 0.021,-0.016 0.036,-0.019 0.033,-0.005 0.065,0.018 0.07,0.051 0.074,0.461 0.18,0.541 0.299,0.632 0.031,0.024 0.063,0.048 0.094,0.077 0.014,0.011 0.023,0.028 0.023,0.048l0 0.694c0,0.216 -0.118,0.468 -0.33,0.687 -0.186,0.191 -0.445,0.358 -0.759,0.45 -0.011,0.003 -0.024,0.004 -0.035,0 -0.315,-0.092 -0.574,-0.258 -0.761,-0.45 -0.211,-0.219 -0.33,-0.471 -0.33,-0.687l0 -0.694c0,-0.023 0.014,-0.046 0.036,-0.056 0.128,-0.059 0.286,-0.1 0.461,-0.146z"/>
    <path class="fil0" d="M7.618 2.611c-0.035,0 -0.062,-0.028 -0.062,-0.062 0,-0.034 0.027,-0.062 0.062,-0.062 0.048,0 0.091,-0.02 0.123,-0.052 0.032,-0.033 0.052,-0.078 0.052,-0.129 0,-0.05 -0.02,-0.095 -0.052,-0.128 -0.032,-0.032 -0.075,-0.052 -0.123,-0.052 -0.035,0 -0.062,-0.028 -0.062,-0.062 0,-0.034 0.027,-0.062 0.062,-0.062 0.082,0 0.157,0.035 0.211,0.09 0.054,0.055 0.087,0.131 0.087,0.214 0,0.084 -0.033,0.16 -0.087,0.215 -0.054,0.055 -0.129,0.09 -0.211,0.09z"/>
    <path class="fil0" d="M5.526 2.487c0.034,0 0.062,0.028 0.062,0.062 0,0.034 -0.028,0.062 -0.062,0.062 -0.083,0 -0.158,-0.035 -0.212,-0.09 -0.054,-0.055 -0.087,-0.131 -0.087,-0.215 0,-0.083 0.033,-0.159 0.087,-0.214 0.054,-0.055 0.129,-0.09 0.212,-0.09 0.034,0 0.062,0.028 0.062,0.062 0,0.034 -0.028,0.062 -0.062,0.062 -0.048,0 -0.092,0.02 -0.123,0.052 -0.032,0.033 -0.052,0.078 -0.052,0.128 0,0.051 0.02,0.096 0.052,0.129 0.031,0.032 0.075,0.052 0.123,0.052z"/>
    <path class="fil0" d="M5.923 4.2c0.022,0.026 0.019,0.065 -0.007,0.087 -0.026,0.022 -0.065,0.019 -0.087,-0.007 -0.207,-0.245 -0.421,-0.559 -0.573,-0.937 -0.12,-0.3 -0.201,-0.639 -0.21,-1.014 -0.001,-0.036 -0.001,-0.072 0.001,-0.108 0.016,-0.406 0.174,-0.84 0.432,-1.176 0.261,-0.339 0.626,-0.578 1.053,-0.588 0.025,0 0.05,0 0.075,0.001 0.482,0.019 0.92,0.207 1.228,0.57 0.278,0.325 0.449,0.79 0.455,1.399 0.003,0.389 -0.074,0.769 -0.197,1.122 -0.15,0.436 -0.37,0.832 -0.591,1.158 -0.127,0.188 -0.227,0.364 -0.239,0.528 -0.012,0.158 0.058,0.312 0.266,0.468 0.027,0.021 0.033,0.06 0.012,0.087 -0.013,0.017 -0.033,0.026 -0.053,0.024 -0.129,-0.008 -0.356,-0.038 -0.549,-0.156 -0.199,-0.122 -0.36,-0.334 -0.343,-0.706 0.015,-0.353 0.119,-0.497 0.224,-0.643l0.003 -0.004c0.072,-0.101 0.145,-0.204 0.183,-0.391 0.011,-0.055 0.02,-0.119 0.025,-0.193 0.005,-0.076 0.006,-0.16 0.002,-0.257 -0.002,-0.034 0.025,-0.063 0.059,-0.064 0.034,-0.001 0.063,0.025 0.064,0.059 0.004,0.102 0.003,0.191 -0.002,0.269 -0.005,0.08 -0.015,0.149 -0.027,0.211 -0.044,0.213 -0.124,0.327 -0.204,0.438l-0.003 0.004c-0.094,0.131 -0.187,0.261 -0.201,0.576 -0.014,0.316 0.119,0.495 0.284,0.596 0.096,0.059 0.203,0.093 0.3,0.112 -0.13,-0.142 -0.175,-0.288 -0.164,-0.439 0.015,-0.191 0.123,-0.384 0.261,-0.588 0.216,-0.318 0.43,-0.705 0.577,-1.129 0.118,-0.341 0.193,-0.707 0.189,-1.082 -0.005,-0.577 -0.165,-1.015 -0.424,-1.319 -0.285,-0.335 -0.691,-0.509 -1.14,-0.527 -0.023,-0.001 -0.046,-0.001 -0.067,-0.001 -0.386,0.009 -0.718,0.229 -0.958,0.541 -0.243,0.315 -0.392,0.724 -0.407,1.105 -0.001,0.034 -0.001,0.067 -0.001,0.1 0.008,0.359 0.087,0.684 0.202,0.971 0.146,0.363 0.352,0.667 0.552,0.903z"/>
    <path class="fil0" d="M5.973 3.496c-0.01,-0.032 0.007,-0.067 0.039,-0.078 0.033,-0.01 0.068,0.007 0.078,0.039 0.142,0.422 0.032,0.684 -0.203,0.852 -0.224,0.16 -0.56,0.228 -0.892,0.27 -0.069,0.009 -0.138,0.016 -0.2,0.022 -0.333,0.034 -0.442,0.045 -0.759,0.42 -0.022,0.026 -0.061,0.029 -0.087,0.007 -0.026,-0.022 -0.029,-0.061 -0.007,-0.087 0.349,-0.412 0.47,-0.425 0.84,-0.463 0.056,-0.005 0.118,-0.012 0.198,-0.022 0.315,-0.039 0.632,-0.102 0.835,-0.247 0.191,-0.137 0.279,-0.355 0.158,-0.713z"/>
    <path class="fil0" d="M7.609 4.471c-0.032,-0.01 -0.05,-0.044 -0.041,-0.077 0.01,-0.032 0.045,-0.051 0.077,-0.041 0.079,0.024 0.164,0.044 0.251,0.06 0.086,0.017 0.176,0.03 0.267,0.041 0.08,0.01 0.142,0.017 0.198,0.022 0.37,0.038 0.491,0.051 0.841,0.463 0.022,0.026 0.019,0.065 -0.007,0.087 -0.026,0.022 -0.065,0.019 -0.087,-0.007 -0.318,-0.375 -0.427,-0.386 -0.759,-0.42 -0.063,-0.006 -0.132,-0.014 -0.201,-0.022 -0.091,-0.011 -0.183,-0.025 -0.275,-0.042 -0.09,-0.017 -0.179,-0.038 -0.264,-0.064z"/>
    <path class="fil0" d="M7.034 3.516c0.01,-0.033 0.044,-0.052 0.077,-0.043 0.032,0.01 0.051,0.044 0.042,0.077 -0.021,0.073 -0.033,0.14 -0.037,0.201 -0.004,0.061 0,0.115 0.011,0.164 0.007,0.033 -0.014,0.066 -0.047,0.073 -0.033,0.008 -0.066,-0.013 -0.074,-0.047 -0.013,-0.06 -0.018,-0.126 -0.014,-0.197 0.005,-0.07 0.018,-0.146 0.042,-0.228z"/>
    <path class="fil0" d="M7.231 5.235c-0.033,0.007 -0.065,-0.015 -0.072,-0.049 -0.006,-0.033 0.016,-0.066 0.05,-0.072 0.257,-0.049 0.498,-0.126 0.714,-0.227 0.218,-0.102 0.412,-0.229 0.573,-0.374 0.026,-0.023 0.065,-0.021 0.088,0.005 0.022,0.025 0.02,0.064 -0.005,0.087 -0.17,0.153 -0.374,0.286 -0.604,0.394 -0.226,0.105 -0.476,0.186 -0.744,0.236z"/>
    <path class="fil0" d="M4.564 4.607c-0.025,-0.023 -0.027,-0.062 -0.004,-0.087 0.023,-0.026 0.062,-0.028 0.087,-0.005 0.227,0.204 0.518,0.37 0.852,0.485 0.324,0.111 0.687,0.173 1.072,0.173l0.051 0 0.053 -0.001c0.034,-0.001 0.063,0.026 0.064,0.06 0.001,0.034 -0.026,0.062 -0.06,0.063l-0.108 0.002c-0.399,0 -0.776,-0.065 -1.112,-0.18 -0.35,-0.12 -0.656,-0.295 -0.895,-0.51z"/>
    <path class="fil0" d="M2.331 2.884c-0.011,-0.032 0.007,-0.067 0.039,-0.078 0.032,-0.01 0.067,0.007 0.078,0.039 0.128,0.381 0.028,0.617 -0.185,0.77 -0.201,0.144 -0.503,0.205 -0.8,0.242 -0.061,0.008 -0.123,0.014 -0.179,0.02 -0.296,0.03 -0.393,0.04 -0.675,0.373 -0.022,0.026 -0.061,0.029 -0.087,0.007 -0.026,-0.022 -0.029,-0.061 -0.007,-0.087 0.314,-0.371 0.423,-0.382 0.756,-0.416 0.05,-0.005 0.105,-0.011 0.177,-0.02 0.281,-0.035 0.564,-0.091 0.743,-0.22 0.169,-0.121 0.247,-0.313 0.14,-0.63z"/>
    <path class="fil0" d="M3.524 2.845c0.011,-0.032 0.046,-0.049 0.078,-0.039 0.032,0.011 0.049,0.046 0.039,0.078 -0.107,0.317 -0.029,0.509 0.139,0.63 0.18,0.129 0.463,0.185 0.744,0.22 0.072,0.009 0.127,0.015 0.176,0.02 0.333,0.034 0.442,0.045 0.757,0.416 0.022,0.026 0.019,0.065 -0.007,0.087 -0.026,0.022 -0.065,0.019 -0.087,-0.007 -0.283,-0.333 -0.379,-0.343 -0.675,-0.373 -0.056,-0.006 -0.118,-0.012 -0.179,-0.02 -0.298,-0.037 -0.599,-0.098 -0.801,-0.242 -0.212,-0.153 -0.312,-0.389 -0.184,-0.77z"/>
    <path class="fil0" d="M3.984 1.585l0 0.611c0,0.098 -0.027,0.199 -0.07,0.296 -0.049,0.111 -0.119,0.218 -0.197,0.315 -0.099,0.123 -0.216,0.23 -0.346,0.305 -0.119,0.068 -0.248,0.109 -0.384,0.11l-0.002 0c-0.136,-0.001 -0.265,-0.042 -0.383,-0.11 -0.13,-0.075 -0.247,-0.182 -0.346,-0.305 -0.078,-0.097 -0.148,-0.205 -0.197,-0.315 -0.043,-0.097 -0.07,-0.198 -0.07,-0.296l0 -0.627c0.003,-0.119 0.024,-0.248 0.056,-0.362 0.034,-0.121 0.081,-0.228 0.133,-0.292 0.098,-0.122 0.207,-0.18 0.345,-0.2 0.129,-0.019 0.281,-0.003 0.473,0.024 0.211,0.03 0.466,0.099 0.659,0.191 0.169,0.081 0.294,0.184 0.312,0.301 0.005,0.036 0.01,0.104 0.014,0.175l0 0c0.003,0.065 0.004,0.132 0.003,0.179zm-0.124 0.611l0 -0.613c0.002,-0.043 0,-0.108 -0.002,-0.171l-0.001 -0.001c-0.003,-0.065 -0.007,-0.128 -0.012,-0.162 -0.011,-0.071 -0.109,-0.143 -0.243,-0.208 -0.181,-0.087 -0.423,-0.152 -0.623,-0.18 -0.182,-0.025 -0.324,-0.041 -0.438,-0.024 -0.106,0.016 -0.191,0.061 -0.267,0.155 -0.041,0.052 -0.081,0.143 -0.11,0.248 -0.03,0.106 -0.049,0.223 -0.051,0.331l0 0.625c0,0.08 0.022,0.164 0.059,0.247 0.044,0.099 0.109,0.198 0.18,0.287 0.091,0.112 0.196,0.209 0.311,0.275 0.101,0.058 0.21,0.093 0.323,0.094 0.114,-0.001 0.223,-0.036 0.324,-0.094 0.115,-0.066 0.22,-0.163 0.311,-0.275 0.071,-0.089 0.136,-0.188 0.18,-0.287 0.037,-0.083 0.059,-0.167 0.059,-0.247z"/>
    <path class="fil0" d="M3.922 2.179c-0.034,0 -0.062,-0.027 -0.062,-0.062 0,-0.034 0.028,-0.061 0.062,-0.061 0.041,0 0.079,-0.018 0.106,-0.045 0.027,-0.028 0.044,-0.067 0.044,-0.11 0,-0.044 -0.017,-0.083 -0.044,-0.111 -0.028,-0.027 -0.065,-0.044 -0.106,-0.044 -0.034,0 -0.062,-0.028 -0.062,-0.062 0,-0.034 0.028,-0.062 0.062,-0.062 0.076,0 0.144,0.031 0.194,0.082l0 0c0.049,0.051 0.08,0.12 0.08,0.197 0,0.076 -0.031,0.146 -0.08,0.196 -0.05,0.051 -0.118,0.082 -0.194,0.082z"/>
    <path class="fil0" d="M2.051 2.056c0.034,0 0.062,0.027 0.062,0.061 0,0.035 -0.028,0.062 -0.062,0.062 -0.076,0 -0.144,-0.031 -0.194,-0.082 -0.049,-0.05 -0.08,-0.12 -0.08,-0.196 0,-0.077 0.031,-0.146 0.08,-0.197l0 0c0.05,-0.051 0.118,-0.082 0.194,-0.082 0.034,0 0.062,0.028 0.062,0.062 0,0.034 -0.028,0.062 -0.062,0.062 -0.041,0 -0.078,0.017 -0.106,0.044 -0.027,0.028 -0.044,0.067 -0.044,0.111 0,0.043 0.017,0.082 0.044,0.11 0.027,0.027 0.065,0.045 0.106,0.045z"/>
    <path class="fil0" d="M2.052 1.639c0.007,0.033 -0.014,0.066 -0.047,0.073 -0.034,0.007 -0.067,-0.014 -0.074,-0.047 -0.01,-0.045 -0.023,-0.093 -0.038,-0.142 -0.071,-0.246 -0.156,-0.541 0.107,-0.715 0.005,-0.277 0.122,-0.447 0.284,-0.549 0.158,-0.1 0.357,-0.132 0.533,-0.135l0.045 0c0.265,0.003 0.57,0.079 0.817,0.222 0.215,0.126 0.387,0.303 0.453,0.528l0.001 0.004c0.061,0.215 -0.014,0.563 -0.069,0.818l-0.001 0.004c-0.007,0.034 -0.04,0.055 -0.073,0.048 -0.033,-0.007 -0.055,-0.04 -0.048,-0.073l0.001 -0.005c0.053,-0.242 0.124,-0.574 0.071,-0.759l0 -0.002c-0.057,-0.192 -0.207,-0.345 -0.397,-0.456 -0.228,-0.133 -0.511,-0.203 -0.756,-0.206l-0.042 0c-0.157,0.003 -0.334,0.03 -0.469,0.116 -0.13,0.082 -0.224,0.222 -0.227,0.454l0 0.02c0.002,0.023 -0.009,0.046 -0.03,0.059 -0.217,0.124 -0.143,0.38 -0.081,0.593 0.015,0.053 0.03,0.105 0.04,0.15z"/>
    <path class="fil0" d="M2.383 3.383c-0.03,-0.016 -0.041,-0.054 -0.024,-0.084 0.016,-0.03 0.054,-0.041 0.083,-0.024l0.574 0.317c0.029,0.015 0.04,0.05 0.027,0.079l-0.182 0.41c-0.014,0.031 -0.05,0.045 -0.081,0.031 -0.008,-0.003 -0.016,-0.009 -0.021,-0.015l-0.531 -0.523c-0.024,-0.024 -0.025,-0.063 -0.001,-0.087 0.024,-0.025 0.063,-0.025 0.088,-0.001l0.469 0.463 0.123 -0.277 -0.524 -0.289z"/>
    <path class="fil0" d="M3.531 3.275c0.029,-0.017 0.067,-0.006 0.083,0.024 0.017,0.03 0.006,0.068 -0.024,0.084l-0.524 0.289 0.123 0.277 0.47 -0.463c0.024,-0.024 0.063,-0.024 0.087,0.001 0.024,0.024 0.023,0.063 -0.001,0.087l-0.531 0.523c-0.005,0.006 -0.012,0.012 -0.021,0.015 -0.031,0.014 -0.067,0 -0.081,-0.031l-0.182 -0.41c-0.013,-0.029 -0.001,-0.064 0.027,-0.079l0.574 -0.317z"/>
   </g>
   <rect class="fil1" width="9.897" height="5.938"/>
  </g>
 </g>
</svg>
