<?xml version="1.0" encoding="UTF-8"?>
<!DOCTYPE svg PUBLIC "-//W3C//DTD SVG 1.1//EN" "http://www.w3.org/Graphics/SVG/1.1/DTD/svg11.dtd">
<!-- Creator: CorelDRAW 2018 (64-Bit) -->
<svg xmlns="http://www.w3.org/2000/svg" xml:space="preserve" width="0.24115in" height="0.27778in" version="1.1" style="shape-rendering:geometricPrecision; text-rendering:geometricPrecision; image-rendering:optimizeQuality; fill-rule:evenodd; clip-rule:evenodd"
viewBox="0 0 12.35 14.22"
 xmlns:xlink="http://www.w3.org/1999/xlink">
 <defs>
  <style type="text/css">
   <![CDATA[
    .fil0 {fill:#A3AEBA}
   ]]>
  </style>
 </defs>
 <g id="Layer_x0020_1">
  <metadata id="CorelCorpID_0Corel-Layer"/>
  <g id="_2800319750080">
   <path class="fil0" d="M7.24 12.47l1.63 -0.94 1.28 -0.74 1.01 0.58 -4.93 2.85 0 -1.16 1.01 -0.58zm4.1 -2.43l0 0.07 -0.06 0.03 -3.92 -2.26 0 1.17 0.58 0.33 0 0 1.79 1.03 0.55 0.32 1.01 0.58 1.01 -0.58 0.06 -0.03 0 -0.07 0 -1.17 -2.92 -1.68 0 0 -1.01 -0.58 -1.01 0.58 3.92 2.26zm1.01 -6.41l0 5.69 -1.01 -0.58 0 -3.36 0 -1.17 1.01 -0.58zm-1.12 1.81l-3.98 2.3 0 4.6 -1.01 0.58 0 -5.76 4.99 -2.88 0 1.17z"/>
   <path class="fil0" d="M0.06 3.53l4.93 -2.85 0 1.16 -2.91 1.68 -1.01 0.58 -1.01 -0.58zm2.13 0.07l3.98 2.3 3.98 -2.3 1.01 0.58 -4.99 2.88 -4.99 -2.88 1.01 -0.58zm3.92 -2.4l0.06 -0.03 0.06 0.03 0 4.53 1.01 -0.58 0 -0.67 -0 0 0 -2.06 0 -0.63 0 -1.16 -1.01 -0.58 -0.06 -0.03 -0.06 0.03 -1.01 0.58 0 3.37 0 0 0 1.16 1.01 0.58 0 -4.53zm4.15 2.33l-1.63 -0.94 -1.28 -0.74 0 -1.16 4.93 2.85 -1.01 0.58 -1.01 -0.58z"/>
   <path class="fil0" d="M1.01 5.38l0 1.88 0 1.48 -1.01 0.58 0 -5.69 1.01 0.58 0 1.17zm0.06 4.76l-0.06 -0.03 0 -0.07 3.92 -2.26 -1.01 -0.58 -0.58 0.33 0 0 -1.79 1.03 -0.55 0.32 -1.01 0.58 0 1.17 0 0.07 0.06 0.03 1.01 0.58 2.92 -1.68 0 0 1.01 -0.58 0 -1.17 -3.92 2.26zm5.05 4.08l-4.93 -2.85 1.01 -0.58 2.91 1.68 1.01 0.58 0 1.16zm-1.01 -1.88l0 -4.6 -3.98 -2.3 0 -1.17 4.99 2.88 0 5.76 -1.01 -0.58z"/>
  </g>
 </g>
</svg>
