<?xml version="1.0" encoding="UTF-8"?>
<!DOCTYPE svg PUBLIC "-//W3C//DTD SVG 1.1//EN" "http://www.w3.org/Graphics/SVG/1.1/DTD/svg11.dtd">
<!-- Creator: CorelDRAW 2018 (64-Bit) -->
<svg xmlns="http://www.w3.org/2000/svg" xml:space="preserve" width="0.214654in" height="0.174457in" version="1.1" style="shape-rendering:geometricPrecision; text-rendering:geometricPrecision; image-rendering:optimizeQuality; fill-rule:evenodd; clip-rule:evenodd"
viewBox="0 0 6.84 5.56"
 xmlns:xlink="http://www.w3.org/1999/xlink">
 <defs>
  <style type="text/css">
   <![CDATA[
    .fil0 {fill:#A3AEBA}
   ]]>
  </style>
 </defs>
 <g id="Layer_x0020_1">
  <metadata id="CorelCorpID_0Corel-Layer"/>
  <path class="fil0" d="M3.37 1.72c-1.17,-0.06 -2.2,-0.62 -2.89,-1.47 -0.12,0.21 -0.19,0.45 -0.19,0.71 0,0.49 0.25,0.92 0.63,1.17 -0.23,-0.01 -0.45,-0.07 -0.64,-0.18 -0,0.01 -0,0.01 -0,0.02 0,0.68 0.48,1.25 1.13,1.38 -0.12,0.03 -0.24,0.05 -0.37,0.05 -0.09,0 -0.18,-0.01 -0.26,-0.03 0.18,0.56 0.7,0.96 1.31,0.98 -0.48,0.38 -1.09,0.6 -1.74,0.6 -0.11,0 -0.23,-0.01 -0.34,-0.02 0.62,0.4 1.36,0.63 2.15,0.63 2.58,0 4,-2.14 4,-4 0,-0.06 -0,-0.12 -0,-0.18 0.27,-0.2 0.51,-0.45 0.7,-0.73 -0.25,0.11 -0.52,0.19 -0.81,0.22 0.29,-0.17 0.51,-0.45 0.62,-0.78 -0.27,0.16 -0.57,0.28 -0.89,0.34 -0.26,-0.27 -0.62,-0.44 -1.03,-0.44 -0.78,0 -1.4,0.63 -1.4,1.4 0,0.11 0.01,0.22 0.04,0.32z"/>
 </g>
</svg>
