<?xml version="1.0" encoding="UTF-8"?>
<!DOCTYPE svg PUBLIC "-//W3C//DTD SVG 1.1//EN" "http://www.w3.org/Graphics/SVG/1.1/DTD/svg11.dtd">
<!-- Creator: CorelDRAW 2018 (64-Bit) -->
<svg xmlns="http://www.w3.org/2000/svg" xml:space="preserve" width="0.277776in" height="0.27778in" version="1.1" style="shape-rendering:geometricPrecision; text-rendering:geometricPrecision; image-rendering:optimizeQuality; fill-rule:evenodd; clip-rule:evenodd"
viewBox="0 0 13.57 13.57"
 xmlns:xlink="http://www.w3.org/1999/xlink">
 <defs>
  <style type="text/css">
   <![CDATA[
    .fil0 {fill:#A3AEBA}
   ]]>
  </style>
 </defs>
 <g id="Layer_x0020_1">
  <metadata id="CorelCorpID_0Corel-Layer"/>
  <path class="fil0" d="M9.59 11.56l0 -3.1c0,-0.74 -0.01,-1.69 -1.03,-1.69 -1.03,0 -1.19,0.81 -1.19,1.64l0 3.16 -1.98 0 0 -6.38 1.9 0 0 0.87 0.03 0c0.26,-0.5 0.91,-1.03 1.88,-1.03 2.01,0 2.38,1.32 2.38,3.04l0 3.5 -1.98 0zm3.99 1.26l0 -12.07c0,-0.41 -0.34,-0.75 -0.75,-0.75l-12.07 0c-0.41,0 -0.75,0.34 -0.75,0.75l0 12.07c0,0.41 0.34,0.75 0.75,0.75l12.07 0c0.41,0 0.75,-0.34 0.75,-0.75zm-9.43 -7.64l0 6.38 -1.98 0 0 -6.38 1.98 0zm-0.99 -3.17c0.63,0 1.15,0.52 1.15,1.15 0,0.63 -0.52,1.15 -1.15,1.15 -0.64,0 -1.15,-0.51 -1.15,-1.15 0,-0.63 0.51,-1.15 1.15,-1.15z"/>
 </g>
</svg>
