<?xml version="1.0" encoding="UTF-8"?>
<!DOCTYPE svg PUBLIC "-//W3C//DTD SVG 1.1//EN" "http://www.w3.org/Graphics/SVG/1.1/DTD/svg11.dtd">
<!-- Creator: CorelDRAW 2018 (64-Bit) -->
<svg xmlns="http://www.w3.org/2000/svg" xml:space="preserve" width="0.277772in" height="0.277776in" version="1.1" style="shape-rendering:geometricPrecision; text-rendering:geometricPrecision; image-rendering:optimizeQuality; fill-rule:evenodd; clip-rule:evenodd"
viewBox="0 0 10.08 10.08"
 xmlns:xlink="http://www.w3.org/1999/xlink">
 <defs>
  <style type="text/css">
   <![CDATA[
    .fil0 {fill:#A3AEBA}
   ]]>
  </style>
 </defs>
 <g id="Layer_x0020_1">
  <metadata id="CorelCorpID_0Corel-Layer"/>
  <path class="fil0" d="M9.52 0l-8.96 0c-0.31,0 -0.56,0.25 -0.56,0.56l0 8.96c0,0.31 0.25,0.56 0.56,0.56l4.83 0 0 -3.9 -1.31 0 0 -1.53 1.31 0 0 -1.12c0,-1.3 0.8,-2.01 1.96,-2.01 0.01,-0 0.02,-0 0.03,-0 0.38,0 0.76,0.02 1.14,0.06l0 1.35 -0.8 0c-0.63,0 -0.75,0.3 -0.75,0.74l0 0.97 1.51 0 -0.2 1.53 -1.31 0 0 3.9 2.56 0c0.31,0 0.56,-0.25 0.56,-0.56l0 -8.96c0,-0.31 -0.25,-0.56 -0.56,-0.56l0 0z"/>
 </g>
</svg>
