<?xml version="1.0" encoding="UTF-8"?>
<!DOCTYPE svg PUBLIC "-//W3C//DTD SVG 1.1//EN" "http://www.w3.org/Graphics/SVG/1.1/DTD/svg11.dtd">
<!-- Creator: CorelDRAW 2018 (64-Bit) -->
<svg xmlns="http://www.w3.org/2000/svg" xml:space="preserve" width="166px" height="75px" version="1.1" style="shape-rendering:geometricPrecision; text-rendering:geometricPrecision; image-rendering:optimizeQuality; fill-rule:evenodd; clip-rule:evenodd"
viewBox="0 0 166 74.832"
 xmlns:xlink="http://www.w3.org/1999/xlink">
 <defs>
  <style type="text/css">
   <![CDATA[
    .fil0 {fill:#052337;fill-opacity:0.501961}
   ]]>
  </style>
 </defs>
 <g id="Layer_x0020_1">
  <metadata id="CorelCorpID_0Corel-Layer"/>
  <path class="fil0" d="M97.364 51.344l21.94 -12.668 17.218 -9.941 13.557 7.828 -66.286 38.269 0 -15.653 13.571 -7.835zm-97.364 -51.344l13.557 0 0 1.157 -13.557 7.827 0 -8.984zm18.695 0l27.141 0 -32.279 18.636 0 0.903 0.786 0.453 34.627 -19.992 18.099 0 0 5.22 -13.515 7.804 -0.001 -0.001 -39.199 22.632 -13.571 -7.835 -0.783 -0.454 0 -0.902 0 -15.671 13.557 -7.826 5.138 -2.967zm49.941 0l13.571 0 0 57.366 -13.57 -7.834 -0.001 -49.532zm13.571 74.831l-66.286 -38.271 13.557 -7.827 39.159 22.608 13.57 7.835 0 15.655zm1.586 -74.831l13.571 0 -0.001 49.534 -13.569 7.835 -0.001 -57.369zm15.138 0l18.096 0 34.633 19.996 0.781 -0.451 0 -0.908 -32.281 -18.637 27.14 0 18.7 10.796 0 15.67 -0.002 0.906 -0.781 0.451 -13.571 7.835 -13.557 -7.827 -7.37 -4.255 -24.023 -13.87 0 0 -7.765 -4.483 0 -5.223zm53.512 0l13.557 0 0 8.987 -13.557 -7.828 0 -1.159z"/>
 </g>
</svg>
