<?xml version="1.0" encoding="UTF-8"?>
<!DOCTYPE svg PUBLIC "-//W3C//DTD SVG 1.1//EN" "http://www.w3.org/Graphics/SVG/1.1/DTD/svg11.dtd">
<!-- Creator: CorelDRAW 2018 (64-Bit) -->
<svg xmlns="http://www.w3.org/2000/svg" xml:space="preserve" width="17px" height="13px" version="1.1" style="shape-rendering:geometricPrecision; text-rendering:geometricPrecision; image-rendering:optimizeQuality; fill-rule:evenodd; clip-rule:evenodd"
viewBox="0 0 0.538 0.415"
 xmlns:xlink="http://www.w3.org/1999/xlink">
 <defs>
  <style type="text/css">
   <![CDATA[
    .fil0 {fill:#FF6633;fill-rule:nonzero}
   ]]>
  </style>
 </defs>
 <g id="Layer_x0020_1">
  <metadata id="CorelCorpID_0Corel-Layer"/>
  <g id="_1884426861696">
   <path class="fil0" d="M0.426 0.105l-0.264 0.193 0.042 0.073 0.039 -0.048 0.034 0.011 -0.005 0.005 -0.058 0.07c-0.001,0.002 -0.003,0.003 -0.005,0.004 -0.007,0.004 -0.017,0.001 -0.021,-0.006l-0.06 -0.104c-0.005,-0.007 -0.004,-0.017 0.003,-0.022l0.382 -0.278c0.006,-0.004 0.014,-0.004 0.02,0.001 0.006,0.005 0.007,0.015 0.002,0.022l-0.019 0.022 0.006 -0.032 -0.151 0.156 0.055 -0.067z"/>
   <path class="fil0" d="M0.059 0.25l0.079 0.026 0.241 -0.176 -0.32 0.15zm0.077 0.059l-0.125 -0.041c-0.004,-0.002 -0.008,-0.005 -0.009,-0.009 -0.004,-0.008 -0.001,-0.017 0.007,-0.021l0.506 -0.236c0.007,-0.004 0.016,-0.002 0.02,0.005 0.006,0.007 0.004,0.017 -0.003,0.022l-0.382 0.277c-0.004,0.003 -0.009,0.005 -0.014,0.003z"/>
   <path class="fil0" d="M0.216 0.308l0.295 -0.303c0.006,-0.006 0.016,-0.007 0.023,0 0.004,0.003 0.005,0.009 0.004,0.014l-0.074 0.37c-0.002,0.008 -0.01,0.014 -0.019,0.012 -0.001,0 -0.002,0 -0.003,-0.001l-0.219 -0.066c-0.008,-0.003 -0.013,-0.011 -0.01,-0.02 0,-0.002 0.002,-0.005 0.003,-0.006zm0.28 -0.242l-0.239 0.245 0.179 0.054 0.06 -0.299z"/>
   <path class="fil0" d="M0.127 0.302c-0.004,-0.008 -0.002,-0.018 0.006,-0.022 0.007,-0.004 0.017,-0.002 0.021,0.006l0.043 0.074 0.016 -0.046c0.002,-0.009 0.011,-0.013 0.02,-0.01 0.008,0.002 0.013,0.011 0.01,0.02l-0.026 0.08c-0.002,0.004 -0.004,0.007 -0.008,0.009 -0.007,0.004 -0.017,0.001 -0.021,-0.006l-0.061 -0.105z"/>
  </g>
 </g>
</svg>
