<?xml version="1.0" encoding="UTF-8"?>
<!DOCTYPE svg PUBLIC "-//W3C//DTD SVG 1.1//EN" "http://www.w3.org/Graphics/SVG/1.1/DTD/svg11.dtd">
<!-- Creator: CorelDRAW 2018 (64-Bit) -->
<svg xmlns="http://www.w3.org/2000/svg" xml:space="preserve" width="31px" height="28px" version="1.1" style="shape-rendering:geometricPrecision; text-rendering:geometricPrecision; image-rendering:optimizeQuality; fill-rule:evenodd; clip-rule:evenodd"
viewBox="0 0 0.686 0.622"
 xmlns:xlink="http://www.w3.org/1999/xlink">
 <defs>
  <style type="text/css">
   <![CDATA[
    .fil1 {fill:#00F4FF}
    .fil0 {fill:#052337;fill-rule:nonzero}
   ]]>
  </style>
 </defs>
 <g id="Layer_x0020_1">
  <metadata id="CorelCorpID_0Corel-Layer"/>
  <g id="_2789839522752">
   <path class="fil0" d="M0.022 0.611c0,0.006 -0.005,0.011 -0.011,0.011 -0.006,0 -0.011,-0.005 -0.011,-0.011l0 -0.394c0,-0.006 0.005,-0.011 0.011,-0.011l0.334 -0.034c0.006,0 0.011,0.004 0.012,0.01 0.001,0.006 -0.004,0.012 -0.01,0.012l-0.325 0.033 0 0.384z"/>
   <path class="fil1" d="M0.078 0.564l0.201 -0.003 0 0.05 -0.201 0 0 -0.047zm0 -0.278l0.201 -0.016 0 0.05 -0.201 0.014 0 -0.048zm0 0.139l0.201 -0.01 0 0.05 -0.201 0.007 0 -0.047z"/>
   <path class="fil0" d="M0.078 0.552l0.201 -0.002c0.006,0 0.011,0.004 0.011,0.01l0 0.051c0,0.006 -0.004,0.011 -0.011,0.011l-0.201 0c-0.006,0 -0.011,-0.005 -0.011,-0.011l0 -0.047c0,-0.007 0.005,-0.012 0.011,-0.012l0 0zm0.19 0.02l-0.179 0.002 0 0.026 0.179 0 0 -0.028zm-0.191 -0.297l0.201 -0.016c0.007,-0.001 0.012,0.004 0.012,0.01l0 0.051c0,0.006 -0.004,0.011 -0.01,0.011l-0.202 0.014c-0.006,0 -0.011,-0.005 -0.011,-0.011l0 -0.048c0,-0.005 0.004,-0.01 0.01,-0.011zm0.191 0.007l-0.179 0.015 0 0.025 0.179 -0.012 0 -0.028zm-0.19 0.132l0.201 -0.01c0.006,0 0.011,0.005 0.011,0.011l0 0.05c0,0.006 -0.004,0.011 -0.011,0.011l-0.201 0.007c-0.006,0 -0.011,-0.004 -0.011,-0.011l0 -0.047c0,-0.006 0.005,-0.011 0.011,-0.011l0 0zm0.19 0.013l-0.179 0.009 0 0.025 0.179 -0.006 0 -0.028z"/>
   <polygon class="fil1" points="0.346,0.183 0.487,0.234 0.487,0.611 0.346,0.611 "/>
   <path class="fil0" d="M0.351 0.173l0.14 0.051c0.004,0.001 0.007,0.005 0.007,0.01l0 0.377c0,0.006 -0.005,0.011 -0.011,0.011l-0.141 0c-0.006,0 -0.011,-0.005 -0.011,-0.011l0 -0.428c0,-0.006 0.005,-0.011 0.011,-0.011 0.002,0 0.003,0.001 0.005,0.001zm0.125 0.069l-0.119 -0.043 0 0.401 0.119 0 0 -0.358z"/>
   <path class="fil0" d="M0.306 0.188c0,0.007 -0.005,0.011 -0.011,0.011 -0.006,0 -0.011,-0.004 -0.011,-0.011l0 -0.15c0,-0.006 0.005,-0.011 0.011,-0.011l0.266 -0.027c0.006,-0.001 0.012,0.004 0.012,0.01 0.001,0.006 -0.004,0.011 -0.01,0.012l-0.257 0.026 0 0.14z"/>
   <polygon class="fil1" points="0.562,0.011 0.675,0.051 0.675,0.611 0.562,0.611 "/>
   <path class="fil0" d="M0.567 0.001l0.112 0.04c0.004,0.002 0.007,0.006 0.007,0.01l0 0.56c0,0.006 -0.005,0.011 -0.011,0.011l-0.113 0c-0.006,0 -0.011,-0.005 -0.011,-0.011l0 -0.6c0,-0.006 0.005,-0.011 0.011,-0.011 0.002,0 0.004,0 0.005,0.001zm0.097 0.058l-0.091 -0.032 0 0.573 0.091 0 0 -0.541z"/>
  </g>
 </g>
</svg>
