<?xml version="1.0" encoding="UTF-8"?>
<!DOCTYPE svg PUBLIC "-//W3C//DTD SVG 1.1//EN" "http://www.w3.org/Graphics/SVG/1.1/DTD/svg11.dtd">
<!-- Creator: CorelDRAW 2018 (64-Bit) -->
<svg xmlns="http://www.w3.org/2000/svg" xml:space="preserve" width="27px" height="31px" version="1.1" style="shape-rendering:geometricPrecision; text-rendering:geometricPrecision; image-rendering:optimizeQuality; fill-rule:evenodd; clip-rule:evenodd"
viewBox="0 0 0.471 0.531"
 xmlns:xlink="http://www.w3.org/1999/xlink">
 <defs>
  <style type="text/css">
   <![CDATA[
    .fil1 {fill:#00F4FF}
    .fil0 {fill:#052337;fill-rule:nonzero}
   ]]>
  </style>
 </defs>
 <g id="Layer_x0020_1">
  <metadata id="CorelCorpID_0Corel-Layer"/>
  <g id="_2753918772640">
   <path class="fil0" d="M0.227 0.101c0,-0.005 0.004,-0.009 0.008,-0.009 0.005,0 0.009,0.004 0.009,0.009l0 0.058c0,0.004 -0.004,0.008 -0.009,0.008 -0.004,0 -0.008,-0.004 -0.008,-0.008l0 -0.058z"/>
   <path class="fil0" d="M0.088 0.191c-0.004,-0.003 -0.005,-0.008 -0.003,-0.012 0.003,-0.004 0.008,-0.006 0.012,-0.003l0.05 0.029c0.004,0.002 0.006,0.007 0.003,0.011 -0.002,0.004 -0.007,0.006 -0.012,0.003l-0.05 -0.028z"/>
   <path class="fil0" d="M0.032 0.185c0,-0.005 0.004,-0.008 0.009,-0.008 0.004,0 0.008,0.003 0.008,0.008l0 0.13c0,0.004 -0.004,0.008 -0.008,0.008 -0.005,0 -0.009,-0.004 -0.009,-0.008l0 -0.13z"/>
   <path class="fil0" d="M0.063 0.4c-0.004,-0.002 -0.006,-0.007 -0.003,-0.011 0.002,-0.004 0.007,-0.006 0.011,-0.003l0.112 0.064c0.005,0.003 0.006,0.008 0.004,0.012 -0.003,0.004 -0.008,0.006 -0.012,0.003l-0.112 -0.065z"/>
   <path class="fil0" d="M0.267 0.482c-0.004,0.002 -0.009,0.001 -0.011,-0.004 -0.003,-0.004 -0.001,-0.009 0.003,-0.011l0.112 -0.065c0.004,-0.002 0.009,-0.001 0.012,0.003 0.002,0.004 0.001,0.009 -0.003,0.012l-0.113 0.065z"/>
   <path class="fil0" d="M0.439 0.346c0,0.005 -0.004,0.008 -0.009,0.008 -0.005,0 -0.009,-0.003 -0.009,-0.008l0 -0.13c0,-0.005 0.004,-0.008 0.009,-0.008 0.005,0 0.009,0.003 0.009,0.008l0 0.13z"/>
   <path class="fil0" d="M0.408 0.13c0.004,0.003 0.005,0.008 0.003,0.012 -0.002,0.004 -0.007,0.006 -0.012,0.003l-0.112 -0.065c-0.004,-0.002 -0.005,-0.007 -0.003,-0.011 0.002,-0.004 0.008,-0.006 0.012,-0.003l0.112 0.064z"/>
   <path class="fil0" d="M0.203 0.049c0.004,-0.002 0.01,-0.001 0.012,0.003 0.002,0.005 0.001,0.01 -0.003,0.012l-0.112 0.065c-0.005,0.002 -0.01,0.001 -0.012,-0.003 -0.002,-0.004 -0.001,-0.01 0.003,-0.012l0.112 -0.065z"/>
   <path class="fil0" d="M0.097 0.355c-0.004,0.003 -0.009,0.001 -0.012,-0.003 -0.002,-0.004 -0.001,-0.009 0.003,-0.012l0.05 -0.028c0.005,-0.003 0.01,-0.001 0.012,0.003 0.003,0.004 0.001,0.009 -0.003,0.011l-0.05 0.029z"/>
   <path class="fil0" d="M0.244 0.43c0,0.005 -0.004,0.009 -0.009,0.009 -0.004,0 -0.008,-0.004 -0.008,-0.009l0 -0.058c0,-0.004 0.004,-0.008 0.008,-0.008 0.005,0 0.009,0.004 0.009,0.008l0 0.058z"/>
   <path class="fil0" d="M0.382 0.34c0.004,0.003 0.006,0.008 0.003,0.012 -0.002,0.004 -0.007,0.006 -0.011,0.003l-0.05 -0.029c-0.004,-0.002 -0.006,-0.007 -0.003,-0.011 0.002,-0.004 0.007,-0.006 0.011,-0.003l0.05 0.028z"/>
   <path class="fil0" d="M0.374 0.176c0.004,-0.003 0.009,-0.001 0.011,0.003 0.003,0.004 0.001,0.009 -0.003,0.012l-0.05 0.028c-0.004,0.003 -0.009,0.001 -0.011,-0.003 -0.003,-0.004 -0.001,-0.009 0.003,-0.011l0.05 -0.029z"/>
   <circle class="fil1" cx="0.235" cy="0.265" r="0.076"/>
   <path class="fil0" d="M0.235 0.181c0.024,0 0.045,0.009 0.06,0.025 0.015,0.015 0.025,0.036 0.025,0.059 0,0.024 -0.01,0.045 -0.025,0.06 -0.015,0.015 -0.036,0.025 -0.06,0.025 -0.023,0 -0.044,-0.01 -0.059,-0.025 -0.016,-0.015 -0.025,-0.036 -0.025,-0.06 0,-0.023 0.009,-0.044 0.025,-0.059 0.015,-0.016 0.036,-0.025 0.059,-0.025zm0.048 0.037c-0.012,-0.012 -0.029,-0.02 -0.048,-0.02 -0.018,0 -0.035,0.008 -0.047,0.02 -0.012,0.012 -0.02,0.029 -0.02,0.047 0,0.019 0.008,0.036 0.02,0.048 0.012,0.012 0.029,0.02 0.047,0.02 0.019,0 0.036,-0.008 0.048,-0.02 0.012,-0.012 0.02,-0.029 0.02,-0.048 0,-0.018 -0.008,-0.035 -0.02,-0.047z"/>
   <circle class="fil1" cx="0.041" cy="0.153" r="0.032"/>
   <path class="fil0" d="M0.041 0.112c0.011,0 0.021,0.005 0.028,0.012 0.008,0.008 0.012,0.018 0.012,0.029 0,0.011 -0.004,0.021 -0.012,0.029 -0.007,0.007 -0.017,0.012 -0.028,0.012 -0.012,0 -0.022,-0.005 -0.029,-0.012 -0.007,-0.008 -0.012,-0.018 -0.012,-0.029 0,-0.011 0.005,-0.021 0.012,-0.029 0.007,-0.007 0.017,-0.012 0.029,-0.012zm0.016 0.024c-0.004,-0.004 -0.01,-0.006 -0.016,-0.006 -0.007,0 -0.013,0.002 -0.017,0.006 -0.004,0.005 -0.007,0.011 -0.007,0.017 0,0.007 0.003,0.012 0.007,0.017 0.004,0.004 0.01,0.007 0.017,0.007 0.006,0 0.012,-0.003 0.016,-0.007 0.005,-0.005 0.007,-0.01 0.007,-0.017 0,-0.006 -0.002,-0.012 -0.007,-0.017z"/>
   <circle class="fil1" cx="0.041" cy="0.375" r="0.032"/>
   <path class="fil0" d="M0.041 0.334c0.011,0 0.021,0.005 0.028,0.012 0.008,0.007 0.012,0.018 0.012,0.029 0,0.011 -0.004,0.021 -0.012,0.028 -0.007,0.008 -0.017,0.012 -0.028,0.012 -0.012,0 -0.022,-0.004 -0.029,-0.012 -0.007,-0.007 -0.012,-0.017 -0.012,-0.028 0,-0.011 0.005,-0.022 0.012,-0.029 0.007,-0.007 0.017,-0.012 0.029,-0.012zm0.016 0.024c-0.004,-0.004 -0.01,-0.007 -0.016,-0.007 -0.007,0 -0.013,0.003 -0.017,0.007 -0.004,0.004 -0.007,0.01 -0.007,0.017 0,0.006 0.003,0.012 0.007,0.016 0.004,0.005 0.01,0.007 0.017,0.007 0.006,0 0.012,-0.002 0.016,-0.007 0.005,-0.004 0.007,-0.01 0.007,-0.016 0,-0.007 -0.002,-0.013 -0.007,-0.017z"/>
   <circle class="fil1" cx="0.235" cy="0.49" r="0.032"/>
   <path class="fil0" d="M0.235 0.45c0.012,0 0.022,0.004 0.029,0.012 0.007,0.007 0.012,0.017 0.012,0.028 0,0.011 -0.005,0.022 -0.012,0.029 -0.007,0.007 -0.017,0.012 -0.029,0.012 -0.011,0 -0.021,-0.005 -0.028,-0.012 -0.008,-0.007 -0.012,-0.018 -0.012,-0.029 0,-0.011 0.004,-0.021 0.012,-0.028 0.007,-0.008 0.017,-0.012 0.028,-0.012zm0.017 0.024c-0.004,-0.005 -0.01,-0.007 -0.017,-0.007 -0.006,0 -0.012,0.002 -0.016,0.007 -0.005,0.004 -0.007,0.01 -0.007,0.016 0,0.007 0.002,0.013 0.007,0.017 0.004,0.004 0.01,0.007 0.016,0.007 0.007,0 0.013,-0.003 0.017,-0.007 0.004,-0.004 0.007,-0.01 0.007,-0.017 0,-0.006 -0.003,-0.012 -0.007,-0.016z"/>
   <circle class="fil1" cx="0.43" cy="0.378" r="0.032"/>
   <path class="fil0" d="M0.43 0.337c0.011,0 0.021,0.005 0.029,0.012 0.007,0.008 0.012,0.018 0.012,0.029 0,0.011 -0.005,0.021 -0.012,0.029 -0.008,0.007 -0.018,0.012 -0.029,0.012 -0.011,0 -0.021,-0.005 -0.029,-0.012 -0.007,-0.008 -0.012,-0.018 -0.012,-0.029 0,-0.011 0.005,-0.021 0.012,-0.029 0.008,-0.007 0.018,-0.012 0.029,-0.012zm0.017 0.024c-0.005,-0.004 -0.01,-0.007 -0.017,-0.007 -0.006,0 -0.012,0.003 -0.017,0.007 -0.004,0.004 -0.006,0.01 -0.006,0.017 0,0.006 0.002,0.012 0.006,0.016 0.005,0.005 0.011,0.007 0.017,0.007 0.007,0 0.012,-0.002 0.017,-0.007 0.004,-0.004 0.007,-0.01 0.007,-0.016 0,-0.007 -0.003,-0.013 -0.007,-0.017z"/>
   <circle class="fil1" cx="0.43" cy="0.153" r="0.032"/>
   <path class="fil0" d="M0.43 0.112c0.011,0 0.021,0.005 0.029,0.012 0.007,0.008 0.012,0.018 0.012,0.029 0,0.011 -0.005,0.021 -0.012,0.029 -0.008,0.007 -0.018,0.012 -0.029,0.012 -0.011,0 -0.021,-0.005 -0.029,-0.012 -0.007,-0.008 -0.012,-0.018 -0.012,-0.029 0,-0.011 0.005,-0.021 0.012,-0.029 0.008,-0.007 0.018,-0.012 0.029,-0.012zm0.017 0.024c-0.005,-0.004 -0.01,-0.006 -0.017,-0.006 -0.006,0 -0.012,0.002 -0.017,0.006 -0.004,0.005 -0.006,0.011 -0.006,0.017 0,0.007 0.002,0.012 0.006,0.017 0.005,0.004 0.011,0.007 0.017,0.007 0.007,0 0.012,-0.003 0.017,-0.007 0.004,-0.005 0.007,-0.01 0.007,-0.017 0,-0.006 -0.003,-0.012 -0.007,-0.017z"/>
   <circle class="fil1" cx="0.235" cy="0.041" r="0.032"/>
   <path class="fil0" d="M0.235 0c0.012,0 0.022,0.005 0.029,0.012 0.007,0.007 0.012,0.017 0.012,0.029 0,0.011 -0.005,0.021 -0.012,0.028 -0.007,0.008 -0.017,0.012 -0.029,0.012 -0.011,0 -0.021,-0.004 -0.028,-0.012 -0.008,-0.007 -0.012,-0.017 -0.012,-0.028 0,-0.012 0.004,-0.022 0.012,-0.029 0.007,-0.007 0.017,-0.012 0.028,-0.012zm0.017 0.024c-0.004,-0.004 -0.01,-0.007 -0.017,-0.007 -0.006,0 -0.012,0.003 -0.016,0.007 -0.005,0.004 -0.007,0.01 -0.007,0.017 0,0.006 0.002,0.012 0.007,0.016 0.004,0.005 0.01,0.007 0.016,0.007 0.007,0 0.013,-0.002 0.017,-0.007 0.004,-0.004 0.007,-0.01 0.007,-0.016 0,-0.007 -0.003,-0.013 -0.007,-0.017z"/>
  </g>
 </g>
</svg>
