<?xml version="1.0" encoding="UTF-8"?>
<!DOCTYPE svg PUBLIC "-//W3C//DTD SVG 1.1//EN" "http://www.w3.org/Graphics/SVG/1.1/DTD/svg11.dtd">
<!-- Creator: CorelDRAW 2018 (64-Bit) -->
<svg xmlns="http://www.w3.org/2000/svg" xml:space="preserve" width="31px" height="27px" version="1.1" style="shape-rendering:geometricPrecision; text-rendering:geometricPrecision; image-rendering:optimizeQuality; fill-rule:evenodd; clip-rule:evenodd"
viewBox="0 0 0.551 0.484"
 xmlns:xlink="http://www.w3.org/1999/xlink">
 <defs>
  <style type="text/css">
   <![CDATA[
    .fil0 {fill:gray;fill-rule:nonzero}
   ]]>
  </style>
 </defs>
 <g id="Layer_x0020_1">
  <metadata id="CorelCorpID_0Corel-Layer"/>
  <g id="_2753866612208">
   <path class="fil0" d="M0.482 0.105c-0.001,0.005 -0.005,0.009 -0.01,0.008 -0.005,-0.001 -0.008,-0.006 -0.008,-0.011l0.001 -0.004 -0.079 -0.08 -0.131 0.023 -0.236 0.236c-0.001,0.001 -0.001,0.002 -0.001,0.003 0,0.001 0,0.002 0.001,0.003l0.181 0.182c0.001,0 0.002,0.001 0.004,0.001 0.001,0 0.002,-0.001 0.003,-0.001l0.236 -0.236 0.01 -0.062c0.001,-0.005 0.006,-0.008 0.011,-0.007 0.004,0.001 0.008,0.005 0.007,0.01l-0.011 0.064c-0.001,0.002 -0.001,0.004 -0.003,0.005l-0.238 0.238c-0.004,0.004 -0.01,0.007 -0.015,0.007 -0.006,0 -0.012,-0.003 -0.016,-0.007l-0.181 -0.181c-0.005,-0.004 -0.007,-0.01 -0.007,-0.016 0,-0.006 0.002,-0.011 0.007,-0.016l0.237 -0.238c0.002,-0.001 0.003,-0.002 0.005,-0.002l0.138 -0.024c0.003,0 0.006,0 0.008,0.003l0.086 0.085c0.002,0.002 0.003,0.005 0.003,0.008l-0.002 0.009z"/>
   <path class="fil0" d="M0.388 0.07c0.005,0.001 0.008,0.006 0.007,0.01 -0.001,0.005 -0.006,0.008 -0.011,0.007 -0.003,-0.001 -0.006,-0.001 -0.009,0 -0.003,0.001 -0.006,0.002 -0.008,0.004 -0.004,0.004 -0.006,0.009 -0.006,0.013 0,0.005 0.002,0.01 0.006,0.013 0.003,0.004 0.008,0.005 0.012,0.005 0.005,0 0.01,-0.001 0.013,-0.005 0.004,-0.003 0.009,-0.003 0.013,0 0.003,0.004 0.003,0.009 0,0.013 -0.007,0.007 -0.016,0.01 -0.026,0.01 -0.009,0 -0.018,-0.003 -0.025,-0.01 -0.007,-0.007 -0.01,-0.017 -0.01,-0.026 0,-0.009 0.003,-0.018 0.01,-0.025 0.005,-0.005 0.01,-0.008 0.016,-0.009 0.006,-0.002 0.012,-0.002 0.018,0z"/>
   <path class="fil0" d="M0.47 0.256c-0.005,-0.003 -0.006,-0.009 -0.003,-0.013 0.002,-0.004 0.008,-0.005 0.012,-0.002 0.013,0.008 0.025,0.014 0.035,0.016 0.008,0.002 0.014,0.001 0.016,-0.002 0.005,-0.005 0.003,-0.017 -0.004,-0.033 -0.009,-0.018 -0.025,-0.04 -0.046,-0.061 -0.021,-0.021 -0.043,-0.037 -0.061,-0.046 -0.016,-0.007 -0.028,-0.009 -0.033,-0.004 -0.004,0.003 -0.009,0.003 -0.013,0 -0.003,-0.004 -0.003,-0.01 0,-0.013 0.011,-0.011 0.031,-0.01 0.053,0.001 0.021,0.01 0.045,0.027 0.067,0.049 0.022,0.022 0.039,0.046 0.049,0.067 0.011,0.023 0.012,0.042 0.001,0.053 -0.007,0.007 -0.019,0.009 -0.032,0.006 -0.012,-0.002 -0.026,-0.009 -0.041,-0.018z"/>
   <path class="fil0" d="M0.275 0.209l-0.041 0.012c-0.003,0.001 -0.006,0.001 -0.008,-0.001l-0.035 -0.024 0 0.042c-0.001,0.003 -0.002,0.006 -0.004,0.007l-0.034 0.026 0.04 0.014c0.003,0.001 0.005,0.003 0.006,0.005l0.014 0.041 0.025 -0.034c0.002,-0.003 0.005,-0.004 0.008,-0.004l0.042 -0.001 -0.025 -0.035c-0.001,-0.002 -0.001,-0.005 -0.001,-0.007l0.013 -0.041zm-0.042 -0.006l0.052 -0.016c0.002,0 0.004,0 0.006,0 0.004,0.002 0.007,0.007 0.006,0.011l-0.017 0.053 0.032 0.045c0.001,0.001 0.002,0.003 0.002,0.005 0,0.005 -0.004,0.009 -0.009,0.009l-0.055 0.001 -0.033 0.044c-0.001,0.001 -0.003,0.002 -0.004,0.003 -0.005,0.001 -0.01,-0.001 -0.012,-0.006l-0.018 -0.052 -0.051 -0.018c-0.002,0 -0.003,-0.001 -0.005,-0.003 -0.003,-0.004 -0.002,-0.009 0.002,-0.012l0.044 -0.033 0.001 -0.055c0,-0.002 0,-0.004 0.001,-0.005 0.003,-0.004 0.009,-0.005 0.013,-0.002l0.045 0.031z"/>
  </g>
 </g>
</svg>
