<?xml version="1.0" encoding="UTF-8"?>
<!DOCTYPE svg PUBLIC "-//W3C//DTD SVG 1.1//EN" "http://www.w3.org/Graphics/SVG/1.1/DTD/svg11.dtd">
<!-- Creator: CorelDRAW 2018 (64-Bit) -->
<svg xmlns="http://www.w3.org/2000/svg" xml:space="preserve" width="31px" height="22px" version="1.1" style="shape-rendering:geometricPrecision; text-rendering:geometricPrecision; image-rendering:optimizeQuality; fill-rule:evenodd; clip-rule:evenodd"
viewBox="0 0 0.686 0.483"
 xmlns:xlink="http://www.w3.org/1999/xlink">
 <defs>
  <style type="text/css">
   <![CDATA[
    .fil0 {fill:gray;fill-rule:nonzero}
   ]]>
  </style>
 </defs>
 <g id="Layer_x0020_1">
  <metadata id="CorelCorpID_0Corel-Layer"/>
  <g id="_2789839558688">
   <path class="fil0" d="M0.216 0.287c0.012,-0.003 0.031,0.002 0.047,0.007 0.006,0.001 0.011,0.003 0.014,0.003 0.02,0.005 0.043,0.008 0.067,0.008 0.023,0 0.046,-0.003 0.066,-0.008 0.004,0 0.009,-0.002 0.014,-0.003 0.016,-0.005 0.035,-0.01 0.048,-0.007 0.009,0.003 0.025,0.012 0.037,0.027 0.009,0.011 0.015,0.025 0.017,0.041l0.008 0.1 0 0.002c0,0.007 -0.002,0.013 -0.007,0.018 -0.005,0.004 -0.011,0.007 -0.017,0.007l-0.002 0.001 -0.329 0 -0.002 -0.001c-0.006,0 -0.012,-0.003 -0.017,-0.007 -0.004,-0.005 -0.007,-0.011 -0.007,-0.018 0.002,-0.034 0.005,-0.068 0.008,-0.102 0.002,-0.016 0.009,-0.03 0.017,-0.041 0.012,-0.015 0.028,-0.024 0.038,-0.027zm0.041 0.028c-0.013,-0.004 -0.029,-0.008 -0.036,-0.007 -0.006,0.002 -0.017,0.009 -0.026,0.02 -0.006,0.008 -0.011,0.018 -0.012,0.029l-0.008 0.1c0,0.001 0,0.001 0.001,0.002 0.001,0.001 0.002,0.001 0.003,0.001 0.103,0.004 0.226,0.004 0.329,0 0.001,0 0.003,0 0.003,-0.001 0.001,-0.001 0.001,-0.001 0.001,-0.002l-0.008 -0.1c-0.001,-0.011 -0.006,-0.021 -0.012,-0.029 -0.009,-0.011 -0.02,-0.018 -0.026,-0.02 -0.007,-0.001 -0.023,0.003 -0.036,0.007 -0.005,0.001 -0.009,0.003 -0.015,0.004 -0.022,0.005 -0.047,0.008 -0.071,0.008 -0.025,0 -0.05,-0.003 -0.072,-0.008 -0.005,-0.001 -0.01,-0.003 -0.015,-0.004z"/>
   <path class="fil0" d="M0.343 0.011c0.036,0 0.069,0.015 0.093,0.039 0.024,0.024 0.039,0.057 0.039,0.093 0,0.036 -0.015,0.069 -0.039,0.093 -0.024,0.024 -0.057,0.039 -0.093,0.039 -0.036,0 -0.069,-0.015 -0.093,-0.039 -0.024,-0.024 -0.039,-0.057 -0.039,-0.093 0,-0.036 0.015,-0.069 0.039,-0.093 0.024,-0.024 0.057,-0.039 0.093,-0.039zm0.077 0.055c-0.019,-0.02 -0.047,-0.033 -0.077,-0.033 -0.03,0 -0.058,0.013 -0.077,0.033 -0.02,0.019 -0.033,0.047 -0.033,0.077 0,0.03 0.013,0.058 0.033,0.077 0.019,0.02 0.047,0.033 0.077,0.033 0.03,0 0.058,-0.013 0.077,-0.033 0.02,-0.019 0.033,-0.047 0.033,-0.077 0,-0.03 -0.013,-0.058 -0.033,-0.077z"/>
   <path class="fil0" d="M0.121 0.389c0.007,0 0.011,0.005 0.011,0.011 0,0.006 -0.004,0.011 -0.011,0.011l-0.096 0 -0.003 0c-0.005,-0.001 -0.011,-0.003 -0.015,-0.007 -0.004,-0.004 -0.007,-0.01 -0.007,-0.017 0.002,-0.028 0.005,-0.06 0.008,-0.088 0.001,-0.015 0.007,-0.027 0.014,-0.036 0.011,-0.013 0.025,-0.022 0.034,-0.024 0.011,-0.003 0.027,0.001 0.042,0.006 0.004,0.001 0.009,0.002 0.011,0.003 0.011,0.002 0.023,0.004 0.035,0.005 0.012,0.001 0.024,0.001 0.036,0.001 0.006,-0.001 0.012,0.004 0.012,0.01 0,0.006 -0.005,0.012 -0.011,0.012 -0.013,0 -0.026,0 -0.039,-0.001 -0.013,-0.001 -0.026,-0.003 -0.038,-0.006 -0.004,-0.001 -0.008,-0.002 -0.012,-0.003 -0.012,-0.004 -0.025,-0.007 -0.031,-0.006 -0.005,0.001 -0.014,0.007 -0.021,0.017 -0.005,0.006 -0.009,0.014 -0.01,0.024l-0.008 0.086c0,0.001 0,0.001 0,0.001 0.001,0 0.002,0.001 0.002,0.001l0.097 0z"/>
   <path class="fil0" d="M0.19 0.206c0.006,-0.002 0.012,0.002 0.014,0.008 0.001,0.006 -0.002,0.012 -0.008,0.013 -0.005,0.001 -0.01,0.002 -0.015,0.003 -0.005,0.001 -0.01,0.001 -0.015,0.001 -0.032,0 -0.06,-0.013 -0.081,-0.034 -0.021,-0.021 -0.034,-0.05 -0.034,-0.082 0,-0.031 0.013,-0.06 0.034,-0.081 0.021,-0.021 0.049,-0.034 0.081,-0.034 0.011,0 0.022,0.002 0.033,0.005 0.01,0.003 0.02,0.007 0.029,0.013 0.005,0.003 0.007,0.01 0.004,0.015 -0.004,0.005 -0.01,0.007 -0.016,0.004 -0.007,-0.005 -0.015,-0.009 -0.024,-0.011 -0.008,-0.003 -0.017,-0.004 -0.026,-0.004 -0.026,0 -0.049,0.011 -0.066,0.027 -0.017,0.017 -0.027,0.041 -0.027,0.066 0,0.026 0.01,0.05 0.027,0.067 0.017,0.016 0.04,0.027 0.066,0.027 0.005,0 0.009,0 0.012,-0.001 0.004,0 0.008,-0.001 0.012,-0.002z"/>
   <path class="fil0" d="M0.565 0.411c-0.007,0 -0.012,-0.005 -0.012,-0.011 0,-0.006 0.005,-0.011 0.012,-0.011l0.097 0c0,0 0.001,-0.001 0.001,-0.001 0.001,0 0.001,0 0.001,-0.001l-0.008 -0.086c-0.001,-0.01 -0.005,-0.018 -0.01,-0.024 -0.007,-0.01 -0.016,-0.016 -0.021,-0.017 -0.006,-0.001 -0.019,0.002 -0.031,0.006 -0.004,0.001 -0.008,0.002 -0.012,0.003 -0.012,0.003 -0.025,0.005 -0.038,0.006 -0.013,0.001 -0.026,0.001 -0.039,0.001 -0.006,0 -0.011,-0.006 -0.011,-0.012 0,-0.006 0.006,-0.011 0.012,-0.01 0.012,0 0.024,0 0.036,-0.001 0.012,-0.001 0.024,-0.003 0.035,-0.005 0.002,-0.001 0.007,-0.002 0.011,-0.003 0.015,-0.005 0.031,-0.009 0.042,-0.006 0.009,0.002 0.023,0.011 0.034,0.024 0.007,0.009 0.013,0.021 0.014,0.036 0.003,0.028 0.006,0.06 0.008,0.088 0,0.007 -0.003,0.013 -0.007,0.017 -0.004,0.004 -0.01,0.006 -0.016,0.007l-0.002 0 -0.096 0z"/>
   <path class="fil0" d="M0.49 0.227c-0.006,-0.001 -0.009,-0.007 -0.008,-0.013 0.002,-0.006 0.008,-0.01 0.014,-0.008 0.004,0.001 0.008,0.002 0.012,0.002 0.003,0.001 0.007,0.001 0.012,0.001 0.025,0 0.049,-0.011 0.066,-0.027 0.017,-0.017 0.027,-0.041 0.027,-0.067 0,-0.025 -0.01,-0.049 -0.027,-0.066 -0.017,-0.016 -0.041,-0.027 -0.066,-0.027 -0.01,0 -0.018,0.001 -0.027,0.004 -0.008,0.002 -0.016,0.006 -0.024,0.011 -0.005,0.003 -0.011,0.001 -0.015,-0.004 -0.003,-0.005 -0.001,-0.012 0.004,-0.015 0.009,-0.006 0.019,-0.01 0.029,-0.013 0.011,-0.003 0.022,-0.005 0.033,-0.005 0.032,0 0.06,0.013 0.081,0.034 0.021,0.021 0.034,0.05 0.034,0.081 0,0.032 -0.013,0.061 -0.034,0.082 -0.021,0.021 -0.049,0.034 -0.081,0.034 -0.005,0 -0.01,0 -0.015,-0.001 -0.005,-0.001 -0.01,-0.002 -0.015,-0.003z"/>
  </g>
 </g>
</svg>
