<?xml version="1.0" encoding="UTF-8"?>
<!DOCTYPE svg PUBLIC "-//W3C//DTD SVG 1.1//EN" "http://www.w3.org/Graphics/SVG/1.1/DTD/svg11.dtd">
<!-- Creator: CorelDRAW 2018 (64-Bit) -->
<svg xmlns="http://www.w3.org/2000/svg" xml:space="preserve" width="31px" height="29px" version="1.1" style="shape-rendering:geometricPrecision; text-rendering:geometricPrecision; image-rendering:optimizeQuality; fill-rule:evenodd; clip-rule:evenodd"
viewBox="0 0 0.611 0.568"
 xmlns:xlink="http://www.w3.org/1999/xlink">
 <defs>
  <style type="text/css">
   <![CDATA[
    .fil0 {fill:gray;fill-rule:nonzero}
   ]]>
  </style>
 </defs>
 <g id="Layer_x0020_1">
  <metadata id="CorelCorpID_0Corel-Layer"/>
  <g id="_2753329615968">
   <path class="fil0" d="M0.525 0.218l0.037 0c0.013,0 0.026,0.006 0.035,0.015 0.008,0.009 0.014,0.021 0.014,0.034l0 0.202c0,0.013 -0.006,0.025 -0.014,0.034l-0.001 0.001c-0.007,0.006 -0.015,0.011 -0.024,0.013l0 0.041c0,0.005 -0.005,0.01 -0.01,0.01 -0.003,0 -0.006,-0.002 -0.008,-0.005l-0.039 -0.045 -0.185 0c-0.013,0 -0.025,-0.006 -0.034,-0.015 -0.009,-0.009 -0.015,-0.021 -0.015,-0.034l0 -0.042 0.02 0 0 0.042c0,0.008 0.003,0.015 0.009,0.02 0.005,0.006 0.012,0.009 0.02,0.009l0.189 0c0.003,0 0.006,0.001 0.008,0.003l0.025 0.03 0 -0.023c0,-0.006 0.005,-0.01 0.01,-0.01 0.008,0 0.015,-0.003 0.02,-0.008l0.001 -0.001c0.005,-0.005 0.008,-0.012 0.008,-0.02l0 -0.202c0,-0.008 -0.003,-0.015 -0.008,-0.02 -0.006,-0.006 -0.013,-0.009 -0.021,-0.009l-0.037 0 0 -0.02z"/>
   <path class="fil0" d="M0.121 0.186l-0.059 0c-0.012,0 -0.022,0.005 -0.03,0.012 -0.008,0.008 -0.012,0.019 -0.012,0.03l0 0.146c0,0.012 0.004,0.022 0.012,0.03 0.008,0.007 0.018,0.012 0.03,0.012 0.005,0 0.01,0.005 0.01,0.01l0 0.04 0.039 -0.046c0.002,-0.003 0.005,-0.004 0.008,-0.004l0.198 0c0.012,0 0.022,-0.005 0.03,-0.012 0.008,-0.008 0.012,-0.018 0.012,-0.03l0 -0.073 0.02 0 0 0.073c0,0.017 -0.007,0.032 -0.018,0.044l0 0c-0.011,0.011 -0.027,0.018 -0.044,0.018l-0.194 0 -0.053 0.062c-0.002,0.003 -0.005,0.004 -0.008,0.004 -0.006,0 -0.01,-0.004 -0.01,-0.01l0 -0.057c-0.013,-0.002 -0.025,-0.008 -0.034,-0.017 -0.011,-0.012 -0.018,-0.027 -0.018,-0.044l0 -0.146c0,-0.017 0.007,-0.032 0.018,-0.043l0 0c0.011,-0.012 0.027,-0.019 0.044,-0.019l0.059 0 0 0.02z"/>
   <path class="fil0" d="M0.179 0l0.288 0c0.018,0 0.035,0.008 0.047,0.02 0.013,0.012 0.02,0.029 0.02,0.047l0 0.175c0,0.019 -0.007,0.035 -0.02,0.048 -0.01,0.01 -0.023,0.016 -0.037,0.019l0 0.064c0,0.005 -0.005,0.01 -0.01,0.01 -0.003,0 -0.006,-0.002 -0.008,-0.005l-0.059 -0.069 -0.221 0c-0.018,0 -0.035,-0.007 -0.047,-0.019l-0.001 -0.001c-0.011,-0.012 -0.019,-0.029 -0.019,-0.047l0 -0.175c0,-0.018 0.008,-0.035 0.02,-0.047 0.012,-0.012 0.029,-0.02 0.047,-0.02zm0.288 0.02l-0.288 0c-0.013,0 -0.025,0.005 -0.033,0.014 -0.009,0.008 -0.014,0.02 -0.014,0.033l0 0.175c0,0.013 0.005,0.025 0.013,0.033l0.001 0.001c0.008,0.008 0.02,0.014 0.033,0.014l0.226 0c0.002,0 0.005,0.001 0.007,0.003l0.045 0.053 0 -0.047c0,-0.005 0.005,-0.009 0.01,-0.009 0.013,0 0.025,-0.006 0.034,-0.014 0.008,-0.009 0.013,-0.021 0.013,-0.034l0 -0.175c0,-0.013 -0.005,-0.025 -0.013,-0.033 -0.009,-0.009 -0.021,-0.014 -0.034,-0.014z"/>
   <path class="fil0" d="M0.2 0.108c-0.005,0 -0.01,-0.005 -0.01,-0.01 0,-0.006 0.005,-0.01 0.01,-0.01l0.246 0c0.006,0 0.01,0.004 0.01,0.01 0,0.005 -0.004,0.01 -0.01,0.01l-0.246 0z"/>
   <path class="fil0" d="M0.2 0.171c-0.005,0 -0.01,-0.005 -0.01,-0.01 0,-0.006 0.005,-0.01 0.01,-0.01l0.246 0c0.006,0 0.01,0.004 0.01,0.01 0,0.005 -0.004,0.01 -0.01,0.01l-0.246 0z"/>
   <path class="fil0" d="M0.2 0.234c-0.005,0 -0.01,-0.004 -0.01,-0.01 0,-0.005 0.005,-0.01 0.01,-0.01l0.141 0c0.006,0 0.01,0.005 0.01,0.01 0,0.006 -0.004,0.01 -0.01,0.01l-0.141 0z"/>
  </g>
 </g>
</svg>
