<?xml version="1.0" encoding="UTF-8"?>
<!DOCTYPE svg PUBLIC "-//W3C//DTD SVG 1.1//EN" "http://www.w3.org/Graphics/SVG/1.1/DTD/svg11.dtd">
<!-- Creator: CorelDRAW 2018 (64-Bit) -->
<svg xmlns="http://www.w3.org/2000/svg" xml:space="preserve" width="30px" height="31px" version="1.1" style="shape-rendering:geometricPrecision; text-rendering:geometricPrecision; image-rendering:optimizeQuality; fill-rule:evenodd; clip-rule:evenodd"
viewBox="0 0 0.508 0.533"
 xmlns:xlink="http://www.w3.org/1999/xlink">
 <defs>
  <style type="text/css">
   <![CDATA[
    .fil0 {fill:gray;fill-rule:nonzero}
   ]]>
  </style>
 </defs>
 <g id="Layer_x0020_1">
  <metadata id="CorelCorpID_0Corel-Layer"/>
  <g id="_2789841876064">
   <path class="fil0" d="M0.186 0.415c-0.031,-0.013 -0.057,-0.035 -0.076,-0.063 -0.017,-0.027 -0.028,-0.06 -0.028,-0.094 0,-0.048 0.02,-0.09 0.051,-0.122 0.031,-0.031 0.074,-0.05 0.121,-0.05 0.047,0 0.09,0.019 0.121,0.05 0.031,0.032 0.051,0.074 0.051,0.122 0,0.034 -0.011,0.067 -0.028,0.094 -0.019,0.028 -0.045,0.05 -0.076,0.063l-0.006 -0.015c0.027,-0.013 0.051,-0.033 0.067,-0.058 0.016,-0.024 0.025,-0.053 0.025,-0.084 0,-0.043 -0.017,-0.081 -0.045,-0.109 -0.028,-0.028 -0.066,-0.046 -0.109,-0.046 -0.043,0 -0.081,0.018 -0.109,0.046 -0.028,0.028 -0.045,0.066 -0.045,0.109 0,0.031 0.009,0.06 0.025,0.084 0.016,0.025 0.04,0.045 0.067,0.058l-0.006 0.015z"/>
   <path class="fil0" d="M0.292 0.153c-0.004,-0.002 -0.006,-0.007 -0.005,-0.011 0.002,-0.005 0.007,-0.007 0.011,-0.005 0.022,0.008 0.04,0.021 0.055,0.038 0.014,0.017 0.024,0.038 0.028,0.06 0.001,0.005 -0.002,0.01 -0.007,0.01 -0.005,0.001 -0.009,-0.002 -0.01,-0.007 -0.003,-0.019 -0.012,-0.037 -0.024,-0.052 -0.013,-0.015 -0.029,-0.026 -0.048,-0.033z"/>
   <path class="fil0" d="M0.245 0.009c0,-0.005 0.004,-0.009 0.009,-0.009 0.005,0 0.009,0.004 0.009,0.009l0 0.055c0,0.004 -0.004,0.008 -0.009,0.008 -0.005,0 -0.009,-0.004 -0.009,-0.008l0 -0.055z"/>
   <path class="fil0" d="M0.408 0.061c0.003,-0.003 0.008,-0.004 0.012,-0.001 0.003,0.003 0.004,0.009 0.001,0.012l-0.036 0.043c-0.003,0.003 -0.008,0.004 -0.012,0.001 -0.003,-0.003 -0.004,-0.009 -0.001,-0.012l0.036 -0.043z"/>
   <path class="fil0" d="M0.498 0.206c0.005,-0.001 0.009,0.002 0.01,0.007 0.001,0.005 -0.002,0.009 -0.007,0.01l-0.054 0.01c-0.005,0 -0.009,-0.003 -0.01,-0.007 -0.001,-0.005 0.002,-0.01 0.007,-0.01l0.054 -0.01z"/>
   <path class="fil0" d="M0.474 0.375c0.004,0.002 0.006,0.008 0.003,0.012 -0.002,0.004 -0.007,0.005 -0.011,0.003l-0.048 -0.028c-0.004,-0.002 -0.006,-0.007 -0.003,-0.011 0.002,-0.004 0.007,-0.006 0.011,-0.004l0.048 0.028z"/>
   <path class="fil0" d="M0.087 0.072c-0.003,-0.003 -0.002,-0.009 0.001,-0.012 0.004,-0.003 0.009,-0.002 0.012,0.001l0.036 0.043c0.003,0.003 0.002,0.009 -0.001,0.012 -0.004,0.003 -0.009,0.002 -0.012,-0.001l-0.036 -0.043z"/>
   <path class="fil0" d="M0.007 0.223c-0.005,-0.001 -0.008,-0.005 -0.007,-0.01 0.001,-0.005 0.005,-0.008 0.01,-0.007l0.054 0.01c0.005,0 0.008,0.005 0.007,0.01 0,0.004 -0.005,0.007 -0.01,0.007l-0.054 -0.01z"/>
   <path class="fil0" d="M0.042 0.39c-0.004,0.002 -0.009,0.001 -0.011,-0.003 -0.003,-0.004 -0.001,-0.01 0.003,-0.012l0.048 -0.028c0.004,-0.002 0.009,0 0.011,0.004 0.003,0.004 0.001,0.009 -0.003,0.011l-0.048 0.028z"/>
   <path class="fil0" d="M0.171 0.399l0.166 0c0.005,0 0.01,0.002 0.014,0.006 0.004,0.003 0.006,0.008 0.006,0.014 0,0.006 -0.002,0.011 -0.006,0.014 -0.004,0.004 -0.009,0.006 -0.014,0.006l-0.166 0c-0.005,0 -0.01,-0.002 -0.014,-0.006 -0.004,-0.003 -0.006,-0.008 -0.006,-0.014 0,-0.006 0.002,-0.011 0.006,-0.014 0.004,-0.004 0.009,-0.006 0.014,-0.006zm0.166 0.017l-0.166 0c-0.001,0 -0.001,0 -0.002,0.001 0,0 -0.001,0.001 -0.001,0.002 0,0.001 0.001,0.002 0.001,0.002 0.001,0.001 0.001,0.001 0.002,0.001l0.166 0c0.001,0 0.001,0 0.002,-0.001 0,0 0.001,-0.001 0.001,-0.002 0,-0.001 -0.001,-0.002 -0.001,-0.002 -0.001,-0.001 -0.001,-0.001 -0.002,-0.001z"/>
   <path class="fil0" d="M0.171 0.445l0.166 0c0.005,0 0.01,0.003 0.014,0.006 0.004,0.004 0.006,0.009 0.006,0.015 0,0.005 -0.002,0.01 -0.006,0.014 -0.004,0.004 -0.009,0.006 -0.014,0.006l-0.166 0c-0.005,0 -0.01,-0.002 -0.014,-0.006 -0.004,-0.004 -0.006,-0.009 -0.006,-0.014 0,-0.006 0.002,-0.011 0.006,-0.015 0.004,-0.003 0.009,-0.006 0.014,-0.006zm0.166 0.018l-0.166 0c-0.001,0 -0.001,0 -0.002,0 0,0.001 -0.001,0.002 -0.001,0.003 0,0.001 0.001,0.001 0.001,0.002 0.001,0 0.001,0.001 0.002,0.001l0.166 0c0.001,0 0.001,-0.001 0.002,-0.001 0,-0.001 0.001,-0.001 0.001,-0.002 0,-0.001 -0.001,-0.002 -0.001,-0.003 -0.001,0 -0.001,0 -0.002,0z"/>
   <path class="fil0" d="M0.201 0.492l0.106 0c0.005,0 0.011,0.002 0.014,0.006l0 0c0.004,0.004 0.006,0.009 0.006,0.014 0,0.006 -0.002,0.011 -0.006,0.015l0 0c-0.004,0.003 -0.009,0.006 -0.014,0.006l-0.106 0c-0.005,0 -0.01,-0.003 -0.014,-0.006 -0.004,-0.004 -0.006,-0.009 -0.006,-0.015 0,-0.005 0.002,-0.01 0.006,-0.014l0 0c0.004,-0.004 0.009,-0.006 0.014,-0.006zm0.106 0.017l-0.106 0c-0.001,0 -0.002,0.001 -0.002,0.001 -0.001,0.001 -0.001,0.001 -0.001,0.002 0,0.001 0,0.002 0.001,0.002 0,0.001 0.001,0.001 0.002,0.001l0.106 0c0.001,0 0.001,0 0.002,0l0 -0.001c0.001,0 0.001,-0.001 0.001,-0.002 0,-0.001 0,-0.001 -0.001,-0.002 0,0 -0.001,-0.001 -0.002,-0.001z"/>
  </g>
 </g>
</svg>
