<?xml version="1.0" encoding="UTF-8"?>
<!DOCTYPE svg PUBLIC "-//W3C//DTD SVG 1.1//EN" "http://www.w3.org/Graphics/SVG/1.1/DTD/svg11.dtd">
<!-- Creator: CorelDRAW 2018 (64-Bit) -->
<svg xmlns="http://www.w3.org/2000/svg" xml:space="preserve" width="15px" height="19px" version="1.1" style="shape-rendering:geometricPrecision; text-rendering:geometricPrecision; image-rendering:optimizeQuality; fill-rule:evenodd; clip-rule:evenodd"
viewBox="0 0 1.419 1.755"
 xmlns:xlink="http://www.w3.org/1999/xlink">
 <defs>
  <style type="text/css">
   <![CDATA[
    .fil0 {fill:gray;fill-rule:nonzero}
   ]]>
  </style>
 </defs>
 <g id="Layer_x0020_1">
  <metadata id="CorelCorpID_0Corel-Layer"/>
  <g id="_1589449221680">
   <path class="fil0" d="M0.13 0.784c0,-0.126 0.041,-0.243 0.11,-0.339 0.065,-0.089 0.154,-0.159 0.258,-0.199l0 -0.056c0.006,-0.054 0.032,-0.102 0.07,-0.136 0.037,-0.033 0.087,-0.054 0.141,-0.054 0.055,0 0.105,0.021 0.142,0.054 0.038,0.034 0.064,0.082 0.07,0.136l0 0.056c0.104,0.04 0.193,0.11 0.258,0.199 0.069,0.096 0.109,0.213 0.109,0.339 0,0.073 -0.001,0.138 -0.003,0.191 -0.006,0.193 -0.007,0.232 0.125,0.498 0.006,0.011 0.009,0.024 0.009,0.036 0,0.014 -0.004,0.027 -0.01,0.039l-0.003 0.004c-0.007,0.011 -0.017,0.019 -0.029,0.025 -0.01,0.006 -0.021,0.009 -0.033,0.009l-1.269 0c-0.012,0 -0.023,-0.003 -0.034,-0.009 -0.013,-0.006 -0.024,-0.017 -0.031,-0.029 -0.006,-0.012 -0.01,-0.025 -0.01,-0.039 0,-0.012 0.003,-0.024 0.009,-0.036 0.132,-0.266 0.131,-0.305 0.125,-0.498 -0.002,-0.053 -0.004,-0.118 -0.004,-0.191zm0.185 -0.285c-0.058,0.08 -0.092,0.179 -0.092,0.285 0,0.083 0.001,0.141 0.003,0.189 0.006,0.206 0.007,0.252 -0.125,0.52l1.216 0c-0.132,-0.268 -0.13,-0.314 -0.124,-0.52 0.001,-0.048 0.003,-0.106 0.003,-0.189 0,-0.106 -0.034,-0.205 -0.092,-0.285 -0.06,-0.082 -0.145,-0.145 -0.243,-0.177 -0.018,-0.006 -0.032,-0.023 -0.032,-0.044l0 -0.08c-0.004,-0.03 -0.018,-0.056 -0.039,-0.075 -0.022,-0.019 -0.05,-0.031 -0.081,-0.031 -0.03,0 -0.059,0.012 -0.08,0.031 -0.021,0.019 -0.035,0.045 -0.039,0.075l0 0.078c0.001,0.02 -0.012,0.039 -0.032,0.046 -0.099,0.032 -0.183,0.095 -0.243,0.177z"/>
   <path class="fil0" d="M0.577 1.537c0.002,0.035 0.017,0.067 0.041,0.089 0.024,0.023 0.056,0.037 0.091,0.037 0.036,0 0.068,-0.014 0.092,-0.037 0.024,-0.022 0.039,-0.054 0.041,-0.089l0.092 0.005c-0.003,0.059 -0.029,0.113 -0.07,0.151 -0.04,0.038 -0.095,0.062 -0.155,0.062 -0.059,0 -0.114,-0.024 -0.154,-0.062 -0.041,-0.038 -0.067,-0.092 -0.07,-0.151l0.092 -0.005z"/>
  </g>
 </g>
</svg>
