<?xml version="1.0" encoding="UTF-8"?>
<!DOCTYPE svg PUBLIC "-//W3C//DTD SVG 1.1//EN" "http://www.w3.org/Graphics/SVG/1.1/DTD/svg11.dtd">
<!-- Creator: CorelDRAW 2018 (64-Bit) -->
<svg xmlns="http://www.w3.org/2000/svg" xml:space="preserve" width="32px" height="32px" version="1.1" style="shape-rendering:geometricPrecision; text-rendering:geometricPrecision; image-rendering:optimizeQuality; fill-rule:evenodd; clip-rule:evenodd"
viewBox="0 0 0.87 0.87"
 xmlns:xlink="http://www.w3.org/1999/xlink">
 <defs>
  <style type="text/css">
   <![CDATA[
    .fil1 {fill:none}
    .fil0 {fill:#00F4FF;fill-rule:nonzero}
   ]]>
  </style>
 </defs>
 <g id="Layer_x0020_1">
  <metadata id="CorelCorpID_0Corel-Layer"/>
  <g id="_1773220358848">
   <g>
    <path class="fil0" d="M0.371 0.432c0.011,-0.003 0.025,0.001 0.038,0.004 0.003,0.001 0.006,0.002 0.009,0.003l0.001 0c0.015,0.004 0.03,0.005 0.046,0.005 0.017,0 0.033,-0.002 0.048,-0.005l0.009 -0.003c0.013,-0.003 0.027,-0.007 0.038,-0.004 0.008,0.002 0.021,0.009 0.03,0.021 0.007,0.009 0.012,0.02 0.013,0.033l0.007 0.072 0 0.002c0,0.007 -0.003,0.013 -0.007,0.017 -0.005,0.004 -0.01,0.007 -0.016,0.007 -0.079,0.003 -0.162,0 -0.241,0l-0.002 0c-0.006,0 -0.011,-0.003 -0.016,-0.007 -0.004,-0.004 -0.007,-0.01 -0.007,-0.017 0.002,-0.024 0.005,-0.049 0.007,-0.074 0.001,-0.013 0.006,-0.024 0.013,-0.033 0.009,-0.012 0.022,-0.019 0.03,-0.021zm0.03 0.031c-0.009,-0.003 -0.02,-0.006 -0.023,-0.005 -0.004,0.001 -0.01,0.005 -0.016,0.012 -0.004,0.005 -0.007,0.011 -0.007,0.018l-0.006 0.069 0.233 0 -0.006 -0.069c0,-0.007 -0.003,-0.013 -0.007,-0.018 -0.006,-0.007 -0.012,-0.011 -0.016,-0.012 -0.004,-0.001 -0.014,0.002 -0.023,0.005 -0.004,0.001 -0.008,0.002 -0.011,0.002 -0.017,0.004 -0.035,0.006 -0.054,0.006 -0.017,0 -0.035,-0.002 -0.052,-0.005l-0.001 -0.001c-0.003,0 -0.007,-0.001 -0.011,-0.002z"/>
    <path class="fil0" d="M0.465 0.231c0.028,0 0.053,0.011 0.072,0.03 0.018,0.018 0.029,0.043 0.029,0.071 0,0.028 -0.011,0.054 -0.029,0.072 -0.019,0.018 -0.044,0.029 -0.072,0.029 -0.028,0 -0.053,-0.011 -0.071,-0.029 -0.019,-0.018 -0.03,-0.044 -0.03,-0.072 0,-0.028 0.011,-0.053 0.029,-0.071 0.019,-0.019 0.044,-0.03 0.072,-0.03zm0.052 0.049c-0.013,-0.013 -0.031,-0.022 -0.052,-0.022 -0.02,0 -0.039,0.009 -0.052,0.022 -0.014,0.013 -0.022,0.032 -0.022,0.052 0,0.021 0.008,0.039 0.022,0.053 0.013,0.013 0.032,0.021 0.052,0.021 0.021,0 0.039,-0.008 0.052,-0.021 0.014,-0.014 0.022,-0.032 0.022,-0.053 0,-0.02 -0.008,-0.039 -0.022,-0.052z"/>
    <path class="fil0" d="M0.162 0.144c0,0.007 -0.006,0.013 -0.013,0.013 -0.008,0 -0.014,-0.006 -0.014,-0.013l0 -0.095c0,-0.01 0.004,-0.019 0.01,-0.025 0.007,-0.006 0.016,-0.01 0.025,-0.01l0.591 0c0.009,0 0.018,0.004 0.025,0.01l0 0c0.006,0.006 0.01,0.015 0.01,0.025l0 0.718c0,0.009 -0.004,0.018 -0.01,0.025 -0.007,0.006 -0.016,0.01 -0.025,0.01l-0.591 0c-0.009,0 -0.018,-0.004 -0.025,-0.01 -0.006,-0.007 -0.01,-0.016 -0.01,-0.025l0 -0.06c0,-0.008 0.006,-0.014 0.014,-0.014 0.007,0 0.013,0.006 0.013,0.014l0 0.06c0,0.002 0.001,0.004 0.003,0.005 0.001,0.002 0.003,0.003 0.005,0.003l0.591 0c0.002,0 0.004,-0.001 0.005,-0.003 0.002,-0.001 0.003,-0.003 0.003,-0.005l0 -0.718c0,-0.002 -0.001,-0.004 -0.002,-0.006 -0.002,-0.001 -0.004,-0.002 -0.006,-0.002l-0.591 0c-0.002,0 -0.004,0.001 -0.005,0.002 -0.002,0.002 -0.003,0.004 -0.003,0.006l0 0.095z"/>
    <path class="fil0" d="M0.162 0.465c0,0.007 -0.006,0.013 -0.013,0.013 -0.008,0 -0.014,-0.006 -0.014,-0.013l0 -0.078c0,-0.008 0.006,-0.014 0.014,-0.014 0.007,0 0.013,0.006 0.013,0.014l0 0.078z"/>
    <path class="fil0" d="M0.162 0.305c0,0.007 -0.006,0.013 -0.013,0.013 -0.008,0 -0.014,-0.006 -0.014,-0.013l0 -0.078c0,-0.008 0.006,-0.014 0.014,-0.014 0.007,0 0.013,0.006 0.013,0.014l0 0.078z"/>
    <path class="fil0" d="M0.162 0.624c0,0.008 -0.006,0.014 -0.013,0.014 -0.008,0 -0.014,-0.006 -0.014,-0.014l0 -0.077c0,-0.008 0.006,-0.014 0.014,-0.014 0.007,0 0.013,0.006 0.013,0.014l0 0.077z"/>
    <path class="fil0" d="M0.074 0.648c0,-0.01 0.004,-0.019 0.011,-0.026 0.006,-0.006 0.015,-0.011 0.025,-0.011l0.077 0c0.01,0 0.019,0.005 0.026,0.011 0.006,0.007 0.01,0.016 0.01,0.026 0,0.01 -0.004,0.019 -0.01,0.026 -0.007,0.006 -0.016,0.011 -0.026,0.011l-0.077 0c-0.01,0 -0.019,-0.005 -0.025,-0.011 -0.007,-0.007 -0.011,-0.016 -0.011,-0.026zm0.027 0c0,0.003 0.001,0.005 0.003,0.007 0.002,0.001 0.004,0.002 0.006,0.002l0.077 0c0.002,0 0.005,-0.001 0.006,-0.002 0.002,-0.002 0.003,-0.004 0.003,-0.007 0,-0.003 -0.001,-0.005 -0.003,-0.007 -0.001,-0.001 -0.004,-0.002 -0.006,-0.002l-0.077 0c-0.002,0 -0.004,0.001 -0.006,0.002 -0.002,0.002 -0.003,0.004 -0.003,0.007z"/>
    <path class="fil0" d="M0.074 0.488c0,-0.01 0.004,-0.019 0.011,-0.026 0.006,-0.007 0.015,-0.011 0.025,-0.011l0.077 0c0.01,0 0.019,0.004 0.026,0.011 0.006,0.007 0.01,0.016 0.01,0.026 0,0.01 -0.004,0.019 -0.01,0.026 -0.007,0.006 -0.016,0.01 -0.026,0.01l-0.077 0c-0.01,0 -0.019,-0.004 -0.025,-0.01 -0.007,-0.007 -0.011,-0.016 -0.011,-0.026zm0.027 0c0,0.002 0.001,0.005 0.003,0.006 0.002,0.002 0.004,0.003 0.006,0.003l0.077 0c0.002,0 0.005,-0.001 0.006,-0.003 0.002,-0.001 0.003,-0.004 0.003,-0.006 0,-0.003 -0.001,-0.005 -0.003,-0.007 -0.001,-0.002 -0.004,-0.003 -0.006,-0.003l-0.077 0c-0.002,0 -0.004,0.001 -0.006,0.003 -0.002,0.002 -0.003,0.004 -0.003,0.007z"/>
    <path class="fil0" d="M0.074 0.328c0,-0.01 0.004,-0.02 0.011,-0.026 0.006,-0.007 0.015,-0.011 0.025,-0.011l0.077 0c0.01,0 0.019,0.004 0.026,0.011 0.006,0.006 0.01,0.016 0.01,0.026 0,0.01 -0.004,0.019 -0.01,0.026 -0.007,0.006 -0.016,0.01 -0.026,0.01l-0.077 0c-0.01,0 -0.019,-0.004 -0.025,-0.01 -0.007,-0.007 -0.011,-0.016 -0.011,-0.026zm0.027 0c0,0.002 0.001,0.005 0.003,0.006 0.002,0.002 0.004,0.003 0.006,0.003l0.077 0c0.002,0 0.005,-0.001 0.006,-0.003 0.002,-0.001 0.003,-0.004 0.003,-0.006 0,-0.003 -0.001,-0.005 -0.003,-0.007 -0.001,-0.002 -0.004,-0.003 -0.006,-0.003l-0.077 0c-0.002,0 -0.004,0.001 -0.006,0.003 -0.002,0.002 -0.003,0.004 -0.003,0.007z"/>
    <path class="fil0" d="M0.074 0.167c0,-0.01 0.004,-0.019 0.011,-0.025l0.001 -0.001c0.006,-0.006 0.015,-0.01 0.024,-0.01l0.077 0c0.01,0 0.019,0.004 0.026,0.011 0.006,0.006 0.01,0.015 0.01,0.025 0,0.011 -0.004,0.02 -0.01,0.026 -0.007,0.007 -0.016,0.011 -0.026,0.011l-0.077 0c-0.01,0 -0.019,-0.004 -0.025,-0.011 -0.007,-0.006 -0.011,-0.015 -0.011,-0.026zm0.027 0c0,0.003 0.001,0.005 0.003,0.007 0.002,0.002 0.004,0.003 0.006,0.003l0.077 0c0.002,0 0.005,-0.001 0.006,-0.003 0.002,-0.002 0.003,-0.004 0.003,-0.007 0,-0.002 -0.001,-0.004 -0.003,-0.006 -0.001,-0.002 -0.004,-0.003 -0.006,-0.003l-0.077 0c-0.002,0 -0.004,0.001 -0.006,0.002l0 0.001c-0.002,0.002 -0.003,0.004 -0.003,0.006z"/>
   </g>
   <rect class="fil1" width="0.87" height="0.87"/>
  </g>
 </g>
</svg>
