<?xml version="1.0" encoding="UTF-8"?>
<!DOCTYPE svg PUBLIC "-//W3C//DTD SVG 1.1//EN" "http://www.w3.org/Graphics/SVG/1.1/DTD/svg11.dtd">
<!-- Creator: CorelDRAW 2018 (64-Bit) -->
<svg xmlns="http://www.w3.org/2000/svg" xml:space="preserve" width="32px" height="32px" version="1.1" style="shape-rendering:geometricPrecision; text-rendering:geometricPrecision; image-rendering:optimizeQuality; fill-rule:evenodd; clip-rule:evenodd"
viewBox="0 0 0.87 0.87"
 xmlns:xlink="http://www.w3.org/1999/xlink">
 <defs>
  <style type="text/css">
   <![CDATA[
    .fil1 {fill:none}
    .fil0 {fill:#00F4FF;fill-rule:nonzero}
   ]]>
  </style>
 </defs>
 <g id="Layer_x0020_1">
  <metadata id="CorelCorpID_0Corel-Layer"/>
  <g id="_1773430364560">
   <g>
    <path class="fil0" d="M0.057 0.748c0,0.007 -0.006,0.013 -0.013,0.013 -0.008,0 -0.014,-0.006 -0.014,-0.013l0 -0.465c0,-0.007 0.006,-0.013 0.013,-0.013l0.394 -0.04c0.008,0 0.014,0.005 0.015,0.012 0.001,0.008 -0.005,0.015 -0.012,0.015l-0.383 0.038 0 0.453z"/>
    <path class="fil0" d="M0.123 0.678l0.237 -0.003c0.007,0 0.013,0.006 0.014,0.013l0 0.06c0,0.007 -0.006,0.013 -0.014,0.013l-0.238 0c-0.007,0 -0.013,-0.006 -0.013,-0.013l0 -0.056c0,-0.008 0.006,-0.014 0.013,-0.014l0.001 0zm0.223 0.024l-0.21 0.003 0 0.029 0.21 0 0 -0.032zm-0.224 -0.35l0.237 -0.02c0.007,0 0.014,0.005 0.015,0.013l0 0.06c0,0.007 -0.006,0.013 -0.014,0.013l-0.237 0.017c-0.007,0 -0.014,-0.006 -0.014,-0.013l0 -0.057c0,-0.007 0.005,-0.013 0.013,-0.013zm0.224 0.008l-0.21 0.018 0 0.028 0.21 -0.014 0 -0.032zm-0.223 0.155l0.236 -0.011c0.008,-0.001 0.014,0.005 0.015,0.012l0 0.06c0,0.008 -0.006,0.014 -0.014,0.014l-0.237 0.008c-0.008,0 -0.014,-0.006 -0.014,-0.013l0 -0.056c0,-0.008 0.006,-0.014 0.013,-0.014l0.001 0zm0.223 0.016l-0.21 0.011 0 0.028 0.21 -0.007 0 -0.032z"/>
    <path class="fil0" d="M0.444 0.232l0.165 0.059c0.006,0.002 0.009,0.007 0.009,0.012l0 0.445c0,0.007 -0.006,0.013 -0.013,0.013l-0.167 0c-0.007,0 -0.013,-0.006 -0.013,-0.013l0 -0.504c0,-0.008 0.006,-0.014 0.013,-0.014 0.003,0 0.005,0.001 0.006,0.002zm0.147 0.081l-0.139 -0.05 0 0.471 0.139 0 0 -0.421z"/>
    <path class="fil0" d="M0.392 0.25c0,0.007 -0.006,0.013 -0.014,0.013 -0.007,0 -0.013,-0.006 -0.013,-0.013l0 -0.178c0,-0.007 0.006,-0.013 0.013,-0.013l0.314 -0.032c0.008,0 0.014,0.005 0.015,0.012 0.001,0.008 -0.005,0.015 -0.012,0.015l-0.303 0.03 0 0.166z"/>
    <path class="fil0" d="M0.68 0.748l0 -0.707c0,-0.008 0.006,-0.014 0.013,-0.014 0.003,0 0.004,0.001 0.006,0.001l0.132 0.048c0.005,0.002 0.009,0.007 0.009,0.012l0 0.66c0,0.007 -0.006,0.013 -0.014,0.013l-0.133 0c-0.007,0 -0.013,-0.006 -0.013,-0.013zm0.027 -0.688l0 0.674 0.106 0 0 -0.636 -0.106 -0.038z"/>
   </g>
   <rect class="fil1" width="0.87" height="0.87"/>
  </g>
 </g>
</svg>
