<?xml version="1.0" encoding="UTF-8"?>
<!DOCTYPE svg PUBLIC "-//W3C//DTD SVG 1.1//EN" "http://www.w3.org/Graphics/SVG/1.1/DTD/svg11.dtd">
<!-- Creator: CorelDRAW 2018 (64-Bit) -->
<svg xmlns="http://www.w3.org/2000/svg" xml:space="preserve" width="20px" height="20px" version="1.1" style="shape-rendering:geometricPrecision; text-rendering:geometricPrecision; image-rendering:optimizeQuality; fill-rule:evenodd; clip-rule:evenodd"
viewBox="0 0 0.345 0.345"
 xmlns:xlink="http://www.w3.org/1999/xlink">
 <defs>
  <style type="text/css">
   <![CDATA[
    .fil0 {fill:gray}
   ]]>
  </style>
 </defs>
 <g id="Layer_x0020_1">
  <metadata id="CorelCorpID_0Corel-Layer"/>
  <path class="fil0" d="M0.244 0.294l0 -0.079c0,-0.019 0,-0.043 -0.026,-0.043 -0.027,0 -0.031,0.021 -0.031,0.042l0 0.08 -0.05 0 0 -0.162 0.048 0 0 0.022 0.001 0c0.007,-0.013 0.023,-0.026 0.048,-0.026 0.051,0 0.06,0.033 0.06,0.077l0 0.089 -0.05 0zm0.101 0.032l0 -0.307c0,-0.01 -0.008,-0.019 -0.019,-0.019l-0.307 0c-0.01,0 -0.019,0.009 -0.019,0.019l0 0.307c0,0.011 0.009,0.019 0.019,0.019l0.307 0c0.011,0 0.019,-0.008 0.019,-0.019zm-0.24 -0.194l0 0.162 -0.05 0 0 -0.162 0.05 0zm-0.025 -0.081c0.016,0 0.029,0.013 0.029,0.029 0,0.017 -0.013,0.03 -0.029,0.03 -0.016,0 -0.029,-0.013 -0.029,-0.03 0,-0.016 0.013,-0.029 0.029,-0.029z"/>
 </g>
</svg>
