<?xml version="1.0" encoding="UTF-8"?>
<!DOCTYPE svg PUBLIC "-//W3C//DTD SVG 1.1//EN" "http://www.w3.org/Graphics/SVG/1.1/DTD/svg11.dtd">
<!-- Creator: CorelDRAW 2018 (64-Bit) -->
<svg xmlns="http://www.w3.org/2000/svg" xml:space="preserve" width="32px" height="32px" version="1.1" style="shape-rendering:geometricPrecision; text-rendering:geometricPrecision; image-rendering:optimizeQuality; fill-rule:evenodd; clip-rule:evenodd"
viewBox="0 0 0.87 0.87"
 xmlns:xlink="http://www.w3.org/1999/xlink">
 <defs>
  <style type="text/css">
   <![CDATA[
    .fil1 {fill:none}
    .fil0 {fill:#00F4FF;fill-rule:nonzero}
   ]]>
  </style>
 </defs>
 <g id="Layer_x0020_1">
  <metadata id="CorelCorpID_0Corel-Layer"/>
  <g id="_1773160603808">
   <g>
    <path class="fil0" d="M0.436 0.736c0.008,0 0.014,0.006 0.014,0.013 0,0.008 -0.006,0.014 -0.014,0.014l-0.335 0c-0.009,0 -0.017,-0.004 -0.023,-0.01 -0.006,-0.005 -0.009,-0.013 -0.009,-0.022l0 -0.685c0,-0.009 0.003,-0.017 0.009,-0.023l0.001 -0.001c0.006,-0.005 0.014,-0.008 0.022,-0.008l0.388 0c0.003,0 0.007,0.001 0.009,0.004l0.156 0.155c0.003,0.003 0.004,0.007 0.004,0.011l0 0.324c0,0.007 -0.006,0.013 -0.014,0.013 -0.007,0 -0.013,-0.006 -0.013,-0.013l0 -0.32 -0.148 -0.147 -0.382 0c-0.001,0 -0.002,0 -0.003,0.001l-0.001 0c0,0.001 -0.001,0.002 -0.001,0.004l0 0.685c0,0.001 0.001,0.002 0.001,0.003 0.001,0.001 0.002,0.002 0.004,0.002l0.335 0z"/>
    <path class="fil0" d="M0.611 0.169l-0.109 -0.109 0 0.104c0,0.001 0.001,0.003 0.002,0.004 0.001,0.001 0.002,0.001 0.003,0.001l0.104 0zm-0.113 -0.151l0.156 0.155c0.002,0.002 0.004,0.006 0.004,0.01 0,0.007 -0.006,0.013 -0.014,0.013l-0.137 0c-0.009,0 -0.017,-0.003 -0.023,-0.009 -0.005,-0.006 -0.009,-0.014 -0.009,-0.023l0 -0.137c0,-0.003 0.001,-0.007 0.004,-0.009 0.005,-0.006 0.014,-0.006 0.019,0z"/>
    <path class="fil0" d="M0.526 0.612l0.236 0c0.011,0 0.02,0.005 0.027,0.012l0.001 0c0.007,0.007 0.011,0.017 0.011,0.027l0 0.166c0,0.011 -0.004,0.021 -0.011,0.028l-0.001 0c-0.007,0.007 -0.016,0.011 -0.027,0.011l-0.236 0c-0.01,0 -0.02,-0.004 -0.027,-0.011l0 0c-0.007,-0.007 -0.012,-0.017 -0.012,-0.028l0 -0.166c0,-0.01 0.005,-0.02 0.012,-0.027l0 0c0.007,-0.007 0.017,-0.012 0.027,-0.012zm0.236 0.027l-0.236 0c-0.003,0 -0.006,0.002 -0.008,0.004 -0.002,0.002 -0.004,0.005 -0.004,0.008l0 0.166c0,0.004 0.002,0.006 0.004,0.009 0.002,0.002 0.005,0.003 0.008,0.003l0.236 0c0.003,0 0.006,-0.001 0.008,-0.003 0.002,-0.003 0.004,-0.005 0.004,-0.009l0 -0.166c0,-0.003 -0.002,-0.006 -0.004,-0.008 -0.002,-0.002 -0.005,-0.004 -0.008,-0.004z"/>
    <path class="fil0" d="M0.496 0.694c-0.007,-0.002 -0.011,-0.01 -0.008,-0.017 0.003,-0.007 0.011,-0.01 0.018,-0.008 0.041,0.017 0.071,0.029 0.11,0.044 0.002,0.001 0.005,0.002 0.008,0.003 0.006,0.002 0.011,0.005 0.02,0.005 0.009,0 0.015,-0.003 0.021,-0.005l0.006 -0.002c0.019,-0.008 0.036,-0.015 0.054,-0.022 0.017,-0.007 0.035,-0.014 0.057,-0.023 0.007,-0.002 0.015,0.001 0.018,0.008 0.003,0.007 -0.001,0.015 -0.008,0.018 -0.021,0.008 -0.039,0.015 -0.057,0.022 -0.018,0.007 -0.035,0.014 -0.055,0.022l-0.005 0.002c-0.009,0.004 -0.017,0.007 -0.031,0.007 -0.014,0 -0.022,-0.003 -0.031,-0.007l-0.007 -0.003c-0.039,-0.015 -0.068,-0.026 -0.11,-0.044z"/>
    <path class="fil0" d="M0.662 0.728c0,-0.008 0.006,-0.014 0.014,-0.014 0.007,0 0.013,0.006 0.013,0.014l0 0.04c0,0.007 -0.006,0.014 -0.013,0.014l-0.063 0c-0.008,0 -0.014,-0.007 -0.014,-0.014l0 -0.04c0,-0.008 0.006,-0.014 0.014,-0.014 0.007,0 0.013,0.006 0.013,0.014l0 0.026 0.036 0 0 -0.026z"/>
    <path class="fil0" d="M0.595 0.609c0,0.008 -0.006,0.014 -0.014,0.014 -0.007,0 -0.013,-0.006 -0.013,-0.014 0,-0.012 0.005,-0.023 0.013,-0.031 0.008,-0.008 0.019,-0.013 0.031,-0.013l0.064 0c0.012,0 0.023,0.005 0.031,0.013 0.008,0.008 0.013,0.019 0.013,0.031 0,0.008 -0.006,0.014 -0.013,0.014 -0.008,0 -0.014,-0.006 -0.014,-0.014 0,-0.005 -0.002,-0.009 -0.005,-0.012 -0.003,-0.003 -0.007,-0.005 -0.012,-0.005l-0.064 0c-0.005,0 -0.009,0.002 -0.012,0.005 -0.003,0.003 -0.005,0.007 -0.005,0.012z"/>
    <path class="fil0" d="M0.774 0.673l0 -0.022c0,-0.003 -0.002,-0.006 -0.004,-0.008 -0.002,-0.002 -0.005,-0.004 -0.008,-0.004l-0.236 0c-0.003,0 -0.006,0.002 -0.008,0.004 -0.002,0.002 -0.004,0.005 -0.004,0.008l0 0.022c0.037,0.015 0.066,0.026 0.102,0.04l0.013 0.005 0.008 0.002 0.003 0.001c0.001,0 0.002,0 0.004,0 0.003,0 0.004,0 0.007,-0.001l0.009 -0.002 0.01 -0.004c0.019,-0.008 0.037,-0.015 0.054,-0.022 0.016,-0.006 0.031,-0.012 0.05,-0.019zm0.027 -0.022l0 0.04 -0.009 0.004c-0.021,0.008 -0.039,0.015 -0.058,0.023 -0.017,0.006 -0.034,0.013 -0.054,0.021l-0.004 0.002c-0.003,0.001 -0.005,0.002 -0.008,0.003 -0.004,0.001 -0.008,0.002 -0.012,0.003 -0.002,0 -0.004,0 -0.006,0.001 -0.002,0 -0.004,0 -0.006,0 -0.002,0 -0.004,0 -0.007,0 -0.002,-0.001 -0.004,-0.001 -0.006,-0.001 -0.003,-0.001 -0.007,-0.002 -0.01,-0.003 -0.003,-0.001 -0.005,-0.002 -0.008,-0.003l-0.007 -0.003c-0.039,-0.015 -0.068,-0.026 -0.11,-0.044l-0.009 -0.003 0 -0.04c0,-0.01 0.005,-0.02 0.012,-0.027 0.007,-0.007 0.017,-0.012 0.027,-0.012l0.236 0c0.011,0 0.02,0.005 0.027,0.012 0.008,0.007 0.012,0.017 0.012,0.027z"/>
    <path class="fil0" d="M0.292 0.353c-0.007,0 -0.013,-0.006 -0.013,-0.014 0,-0.007 0.006,-0.013 0.013,-0.013l0.265 0c0.007,0 0.014,0.006 0.014,0.013 0,0.008 -0.007,0.014 -0.014,0.014l-0.265 0z"/>
    <path class="fil0" d="M0.292 0.219c-0.007,0 -0.013,-0.006 -0.013,-0.014 0,-0.007 0.006,-0.013 0.013,-0.013l0.135 0c0.007,0 0.013,0.006 0.013,0.013 0,0.008 -0.006,0.014 -0.013,0.014l-0.135 0z"/>
    <path class="fil0" d="M0.292 0.469c-0.007,0 -0.013,-0.006 -0.013,-0.014 0,-0.007 0.006,-0.013 0.013,-0.013l0.265 0c0.007,0 0.014,0.006 0.014,0.013 0,0.008 -0.007,0.014 -0.014,0.014l-0.265 0z"/>
    <path class="fil0" d="M0.292 0.585c-0.007,0 -0.013,-0.006 -0.013,-0.014 0,-0.007 0.006,-0.014 0.013,-0.014l0.144 0c0.008,0 0.014,0.007 0.014,0.014 0,0.008 -0.006,0.014 -0.014,0.014l-0.144 0z"/>
    <path class="fil0" d="M0.146 0.208c-0.006,-0.005 -0.006,-0.014 0,-0.019 0.005,-0.006 0.014,-0.006 0.019,0l0.019 0.019 0.034 -0.034c0.005,-0.005 0.014,-0.005 0.019,0 0.005,0.005 0.005,0.014 0,0.019l-0.043 0.044c-0.006,0.005 -0.014,0.005 -0.019,0l-0.029 -0.029z"/>
    <path class="fil0" d="M0.146 0.342c-0.006,-0.006 -0.006,-0.014 0,-0.019 0.005,-0.006 0.014,-0.006 0.019,0l0.019 0.019 0.034 -0.034c0.005,-0.005 0.014,-0.005 0.019,0 0.005,0.005 0.005,0.014 0,0.019l-0.043 0.044c-0.006,0.005 -0.014,0.005 -0.019,0l-0.029 -0.029z"/>
    <path class="fil0" d="M0.146 0.458c-0.006,-0.006 -0.006,-0.014 0,-0.02 0.005,-0.005 0.014,-0.005 0.019,0l0.019 0.02 0.034 -0.034c0.005,-0.006 0.014,-0.006 0.019,0 0.005,0.005 0.005,0.014 0,0.019l-0.043 0.043c-0.006,0.006 -0.014,0.006 -0.019,0l-0.029 -0.028z"/>
    <path class="fil0" d="M0.146 0.574c-0.006,-0.006 -0.005,-0.014 0,-0.02 0.005,-0.005 0.014,-0.005 0.019,0l0.019 0.02 0.034 -0.034c0.005,-0.006 0.014,-0.006 0.019,0 0.005,0.005 0.005,0.014 0,0.019l-0.043 0.043c-0.006,0.006 -0.014,0.006 -0.019,0l-0.029 -0.028z"/>
   </g>
   <rect class="fil1" width="0.87" height="0.87"/>
  </g>
 </g>
</svg>
