<?xml version="1.0" encoding="UTF-8"?>
<!DOCTYPE svg PUBLIC "-//W3C//DTD SVG 1.1//EN" "http://www.w3.org/Graphics/SVG/1.1/DTD/svg11.dtd">
<!-- Creator: CorelDRAW 2018 (64-Bit) -->
<svg xmlns="http://www.w3.org/2000/svg" xml:space="preserve" width="16px" height="20px" version="1.1" style="shape-rendering:geometricPrecision; text-rendering:geometricPrecision; image-rendering:optimizeQuality; fill-rule:evenodd; clip-rule:evenodd"
viewBox="0 0 0.516 0.638"
 xmlns:xlink="http://www.w3.org/1999/xlink">
 <defs>
  <style type="text/css">
   <![CDATA[
    .fil0 {fill:gray;fill-rule:nonzero}
   ]]>
  </style>
 </defs>
 <g id="Layer_x0020_1">
  <metadata id="CorelCorpID_0Corel-Layer"/>
  <path class="fil0" d="M0.086 0.371c0.018,-0.004 0.042,0.003 0.064,0.009 0.007,0.002 0.014,0.004 0.018,0.005 0.028,0.006 0.059,0.01 0.09,0.01 0.031,0 0.062,-0.004 0.09,-0.01 0.003,-0.001 0.01,-0.003 0.017,-0.005l0.001 0c0.022,-0.007 0.047,-0.013 0.064,-0.009 0.013,0.003 0.035,0.016 0.051,0.037 0.012,0.015 0.021,0.033 0.023,0.055l0.012 0.135 0 0.003c0,0.009 -0.004,0.018 -0.011,0.024 -0.006,0.006 -0.014,0.01 -0.023,0.011 -0.144,0.005 -0.3,0 -0.445,0l-0.003 0c-0.009,-0.001 -0.017,-0.005 -0.023,-0.011 -0.007,-0.006 -0.011,-0.015 -0.011,-0.024 0.003,-0.046 0.008,-0.092 0.012,-0.138 0.002,-0.022 0.011,-0.04 0.022,-0.055 0.017,-0.021 0.039,-0.034 0.051,-0.037l0.001 0zm0.171 -0.371c0.049,0 0.094,0.02 0.126,0.052 0.032,0.032 0.052,0.077 0.052,0.126 0,0.049 -0.02,0.094 -0.052,0.126l-0.001 0.001c-0.032,0.032 -0.076,0.051 -0.125,0.051 -0.049,0 -0.094,-0.02 -0.126,-0.052l-0.001 -0.001c-0.032,-0.032 -0.051,-0.076 -0.051,-0.125 0,-0.049 0.02,-0.094 0.052,-0.126 0.032,-0.032 0.077,-0.052 0.126,-0.052zm0.104 0.075c-0.027,-0.027 -0.063,-0.043 -0.104,-0.043 -0.04,0 -0.077,0.016 -0.103,0.043 -0.027,0.026 -0.043,0.063 -0.043,0.103 0,0.04 0.016,0.077 0.042,0.103l0.001 0.001c0.026,0.026 0.063,0.043 0.103,0.043 0.04,0 0.076,-0.017 0.103,-0.043l0.001 0c0.026,-0.027 0.042,-0.063 0.042,-0.104 0,-0.04 -0.016,-0.077 -0.042,-0.103zm-0.219 0.335c-0.018,-0.005 -0.039,-0.01 -0.048,-0.008l-0.001 0c-0.008,0.002 -0.022,0.011 -0.034,0.026 -0.008,0.01 -0.014,0.023 -0.016,0.038l-0.011 0.135c0,0 0,0.001 0.001,0.001 0.001,0.001 0.002,0.002 0.003,0.002 0.001,0 0,0 0.001,0 0.134,0 0.313,0.01 0.442,0 0.002,0 0.003,-0.001 0.004,-0.002 0.001,0 0.001,-0.001 0.001,-0.001l-0.012 -0.135c-0.001,-0.015 -0.008,-0.028 -0.016,-0.038 -0.011,-0.015 -0.026,-0.024 -0.034,-0.026 -0.009,-0.003 -0.029,0.003 -0.047,0.008l-0.001 0c-0.006,0.002 -0.012,0.004 -0.019,0.006 -0.031,0.007 -0.064,0.011 -0.097,0.011 -0.033,0 -0.067,-0.004 -0.097,-0.011 -0.007,-0.002 -0.013,-0.004 -0.019,-0.006z"/>
 </g>
</svg>
