<?xml version="1.0" encoding="UTF-8"?>
<!DOCTYPE svg PUBLIC "-//W3C//DTD SVG 1.1//EN" "http://www.w3.org/Graphics/SVG/1.1/DTD/svg11.dtd">
<!-- Creator: CorelDRAW 2018 (64-Bit) -->
<svg xmlns="http://www.w3.org/2000/svg" xml:space="preserve" width="21px" height="21px" version="1.1" style="shape-rendering:geometricPrecision; text-rendering:geometricPrecision; image-rendering:optimizeQuality; fill-rule:evenodd; clip-rule:evenodd"
viewBox="0 0 1.056 1.056"
 xmlns:xlink="http://www.w3.org/1999/xlink">
 <defs>
  <style type="text/css">
   <![CDATA[
    .fil0 {fill:gray;fill-rule:nonzero}
   ]]>
  </style>
 </defs>
 <g id="Layer_x0020_1">
  <metadata id="CorelCorpID_0Corel-Layer"/>
  <g id="_1309273766880">
   <path class="fil0" d="M0.991 0.223c0.013,0.005 0.019,0.02 0.015,0.033 -0.005,0.013 -0.02,0.019 -0.033,0.014l-0.048 -0.018c-0.013,-0.005 -0.019,-0.019 -0.014,-0.032 0.004,-0.013 0.019,-0.02 0.032,-0.015l0.048 0.018zm-0.203 -0.076c0.013,0.005 0.019,0.019 0.015,0.032 -0.005,0.013 -0.02,0.02 -0.033,0.015l-0.242 -0.092 -0.445 0.168c-0.013,0.005 -0.028,-0.001 -0.033,-0.014 -0.005,-0.013 0.002,-0.028 0.015,-0.033l0.454 -0.171c0.006,-0.002 0.012,-0.002 0.018,0l0.251 0.095z"/>
   <path class="fil0" d="M0.957 0.729l-0.404 0.153 0 0.062 0.404 -0.152 0 -0.063zm-0.438 0.112l0.452 -0.171c0.004,-0.001 0.007,-0.002 0.011,-0.002 0.014,0 0.025,0.011 0.025,0.025l0 0.116c0,0.01 -0.006,0.02 -0.016,0.024l-0.452 0.17c-0.004,0.002 -0.007,0.003 -0.011,0.003 -0.014,0 -0.025,-0.012 -0.025,-0.025l0 -0.117c0,-0.01 0.006,-0.019 0.016,-0.023z"/>
   <path class="fil0" d="M0.352 0.825c-0.013,-0.005 -0.019,-0.02 -0.014,-0.032 0.005,-0.013 0.019,-0.02 0.032,-0.015l0.167 0.063c0.01,0.004 0.016,0.013 0.016,0.023l0 0.117c0,0.013 -0.011,0.025 -0.025,0.025 -0.004,0 -0.007,-0.001 -0.011,-0.003l-0.249 -0.094c-0.013,-0.005 -0.02,-0.019 -0.015,-0.032 0.005,-0.013 0.02,-0.02 0.033,-0.015l0.217 0.082 0 -0.062 -0.151 -0.057z"/>
   <path class="fil0" d="M0.131 0.804c0.013,0.005 0.019,0.019 0.014,0.032 -0.004,0.013 -0.019,0.02 -0.032,0.015l-0.048 -0.018c-0.01,-0.004 -0.016,-0.014 -0.016,-0.024l0 -0.116c0,-0.014 0.011,-0.025 0.025,-0.025 0.004,0 0.007,0.001 0.01,0.002l0.131 0.049c0.013,0.005 0.02,0.02 0.015,0.033 -0.005,0.013 -0.019,0.019 -0.032,0.014l-0.099 -0.037 0 0.063 0.032 0.012z"/>
   <path class="fil0" d="M0.957 0.506l-0.404 0.153 0 0.062 0.404 -0.152 0 -0.063zm-0.438 0.112l0.452 -0.171c0.004,-0.001 0.007,-0.002 0.011,-0.002 0.014,0 0.025,0.011 0.025,0.025l0 0.116c0,0.01 -0.006,0.02 -0.016,0.024l-0.452 0.17c-0.004,0.002 -0.007,0.003 -0.011,0.003 -0.014,0 -0.025,-0.012 -0.025,-0.025l0 -0.117c0,-0.01 0.006,-0.019 0.016,-0.023z"/>
   <path class="fil0" d="M0.503 0.641c0,-0.014 0.011,-0.025 0.025,-0.025 0.014,0 0.025,0.011 0.025,0.025l0 0.117c0,0.013 -0.011,0.025 -0.025,0.025 -0.004,0 -0.007,-0.001 -0.011,-0.003l-0.087 -0.033c-0.013,-0.005 -0.02,-0.019 -0.015,-0.032 0.005,-0.013 0.02,-0.019 0.033,-0.015l0.055 0.021 0 -0.08z"/>
   <path class="fil0" d="M0.293 0.642c0.013,0.005 0.019,0.019 0.014,0.032 -0.005,0.013 -0.019,0.02 -0.032,0.015l-0.21 -0.079c-0.01,-0.004 -0.016,-0.014 -0.016,-0.024l0 -0.116c0,-0.014 0.011,-0.025 0.025,-0.025 0.004,0 0.007,0.001 0.01,0.002l0.293 0.111c0.013,0.004 0.02,0.019 0.015,0.032 -0.005,0.013 -0.02,0.019 -0.033,0.014l-0.26 -0.098 0 0.063 0.194 0.073z"/>
   <path class="fil0" d="M0.698 0.497c-0.013,0.005 -0.028,-0.001 -0.033,-0.014 -0.004,-0.013 0.002,-0.028 0.015,-0.033l0.277 -0.104 0 -0.063 -0.073 0.027c-0.012,0.005 -0.027,-0.001 -0.032,-0.014 -0.005,-0.013 0.002,-0.028 0.015,-0.032l0.104 -0.04c0.004,-0.001 0.007,-0.002 0.011,-0.002 0.014,0 0.025,0.011 0.025,0.025l0 0.116c0,0.01 -0.006,0.02 -0.016,0.024l-0.293 0.11z"/>
   <path class="fil0" d="M0.455 0.48c0.013,0.005 0.019,0.019 0.014,0.032 -0.005,0.013 -0.019,0.02 -0.032,0.015l-0.372 -0.14c-0.01,-0.004 -0.016,-0.014 -0.016,-0.024l0 -0.116c0,-0.014 0.011,-0.025 0.025,-0.025 0.004,0 0.007,0.001 0.01,0.002l0.453 0.171c0.013,0.005 0.019,0.019 0.014,0.032 -0.004,0.013 -0.019,0.02 -0.032,0.015l-0.42 -0.159 0 0.063 0.356 0.134z"/>
   <path class="fil0" d="M1.013 0.007c0.01,-0.009 0.026,-0.009 0.036,0 0.009,0.01 0.009,0.026 0,0.036l-1.006 1.006c-0.01,0.009 -0.026,0.009 -0.036,0 -0.009,-0.01 -0.009,-0.026 0,-0.036l1.006 -1.006z"/>
  </g>
 </g>
</svg>
