<?xml version="1.0" encoding="UTF-8"?>
<!DOCTYPE svg PUBLIC "-//W3C//DTD SVG 1.1//EN" "http://www.w3.org/Graphics/SVG/1.1/DTD/svg11.dtd">
<!-- Creator: CorelDRAW 2018 (64-Bit) -->
<svg xmlns="http://www.w3.org/2000/svg" xml:space="preserve" width="19px" height="15px" version="1.1" style="shape-rendering:geometricPrecision; text-rendering:geometricPrecision; image-rendering:optimizeQuality; fill-rule:evenodd; clip-rule:evenodd"
viewBox="0 0 0.668 0.529"
 xmlns:xlink="http://www.w3.org/1999/xlink">
 <defs>
  <style type="text/css">
   <![CDATA[
    .fil0 {fill:gray;fill-rule:nonzero}
   ]]>
  </style>
 </defs>
 <g id="Layer_x0020_1">
  <metadata id="CorelCorpID_0Corel-Layer"/>
  <g id="_2019234057264">
   <path class="fil0" d="M0.159 0.359c0.008,0.004 0.011,0.015 0.006,0.023 -0.004,0.009 -0.015,0.012 -0.023,0.007 -0.025,-0.013 -0.05,-0.03 -0.072,-0.049 -0.024,-0.019 -0.045,-0.04 -0.066,-0.064 -0.006,-0.007 -0.005,-0.016 0,-0.023 0.045,-0.052 0.097,-0.093 0.154,-0.121 0.054,-0.028 0.114,-0.043 0.176,-0.043 0.013,0 0.026,0.001 0.04,0.002 0.013,0.002 0.026,0.004 0.039,0.007 0.009,0.002 0.015,0.011 0.013,0.02 -0.002,0.01 -0.011,0.016 -0.02,0.014 -0.012,-0.002 -0.024,-0.004 -0.036,-0.006 -0.012,-0.001 -0.024,-0.001 -0.036,-0.001 -0.057,0 -0.111,0.013 -0.161,0.038 -0.048,0.024 -0.093,0.059 -0.132,0.102 0.016,0.017 0.033,0.033 0.051,0.048 0.021,0.017 0.043,0.033 0.067,0.046z"/>
   <path class="fil0" d="M0.509 0.171c-0.008,-0.005 -0.011,-0.015 -0.007,-0.024 0.005,-0.008 0.016,-0.012 0.024,-0.007 0.025,0.014 0.049,0.03 0.072,0.049 0.023,0.019 0.045,0.041 0.066,0.064 0.005,0.007 0.005,0.017 0,0.023 -0.045,0.052 -0.097,0.094 -0.154,0.122 -0.055,0.027 -0.114,0.042 -0.176,0.042 -0.013,0 -0.026,-0.001 -0.04,-0.002 -0.013,-0.001 -0.026,-0.003 -0.039,-0.006 -0.009,-0.002 -0.016,-0.011 -0.014,-0.021 0.002,-0.009 0.012,-0.015 0.021,-0.014 0.012,0.003 0.024,0.005 0.036,0.006 0.011,0.001 0.024,0.002 0.036,0.002 0.056,0 0.111,-0.014 0.161,-0.039 0.048,-0.024 0.093,-0.058 0.132,-0.101 -0.016,-0.018 -0.033,-0.034 -0.051,-0.049 -0.021,-0.017 -0.043,-0.032 -0.067,-0.045z"/>
   <path class="fil0" d="M0.451 0.214c-0.004,-0.009 0,-0.02 0.009,-0.023 0.008,-0.004 0.019,0 0.023,0.009 0.004,0.01 0.007,0.02 0.01,0.031 0.002,0.011 0.003,0.022 0.003,0.034 0,0.045 -0.018,0.085 -0.047,0.115l-0.001 0c-0.03,0.029 -0.07,0.047 -0.114,0.047 -0.011,0 -0.022,-0.001 -0.033,-0.003 -0.011,-0.003 -0.022,-0.006 -0.032,-0.011 -0.009,-0.003 -0.013,-0.014 -0.009,-0.023 0.004,-0.009 0.014,-0.013 0.023,-0.009 0.008,0.004 0.016,0.006 0.025,0.008 0.008,0.002 0.017,0.003 0.026,0.003 0.035,0 0.066,-0.014 0.089,-0.036l0.001 -0.001c0.023,-0.023 0.037,-0.055 0.037,-0.09 0,-0.009 -0.001,-0.018 -0.003,-0.026 -0.001,-0.009 -0.004,-0.017 -0.007,-0.025z"/>
   <path class="fil0" d="M0.217 0.316c0.004,0.009 0,0.019 -0.009,0.023 -0.009,0.004 -0.019,0 -0.023,-0.009 -0.004,-0.01 -0.008,-0.021 -0.01,-0.032 -0.002,-0.011 -0.003,-0.022 -0.003,-0.033 0,-0.045 0.018,-0.086 0.047,-0.115 0.03,-0.029 0.07,-0.048 0.115,-0.048 0.011,0 0.022,0.002 0.033,0.004 0.011,0.002 0.022,0.006 0.032,0.01 0.009,0.004 0.013,0.014 0.009,0.023 -0.004,0.009 -0.014,0.013 -0.023,0.009 -0.008,-0.003 -0.016,-0.006 -0.025,-0.008 -0.008,-0.002 -0.017,-0.002 -0.026,-0.002 -0.035,0 -0.067,0.014 -0.09,0.037 -0.023,0.023 -0.037,0.055 -0.037,0.09 0,0.009 0.001,0.018 0.002,0.026 0.002,0.009 0.005,0.017 0.008,0.025z"/>
   <path class="fil0" d="M0.278 0.264c0,0.009 -0.008,0.017 -0.018,0.017 -0.009,0 -0.017,-0.008 -0.017,-0.018 0,-0.006 0.001,-0.011 0.002,-0.017l0 0c0.001,-0.006 0.003,-0.011 0.005,-0.016 0.004,-0.009 0.014,-0.013 0.023,-0.009 0.009,0.003 0.013,0.014 0.009,0.023 -0.001,0.003 -0.002,0.006 -0.002,0.009l-0.001 0c0,0.004 -0.001,0.007 -0.001,0.011z"/>
   <path class="fil0" d="M0.39 0.266c0,-0.01 0.008,-0.018 0.017,-0.017 0.01,0 0.018,0.008 0.018,0.017 -0.001,0.025 -0.011,0.047 -0.027,0.063l-0.001 0.001c-0.016,0.015 -0.038,0.025 -0.061,0.025 -0.01,0.001 -0.018,-0.007 -0.018,-0.017 0,-0.009 0.007,-0.017 0.017,-0.018 0.015,0 0.028,-0.006 0.037,-0.015l0.001 -0.001c0.01,-0.01 0.016,-0.023 0.017,-0.038z"/>
   <path class="fil0" d="M0.569 0.005c0.007,-0.007 0.018,-0.007 0.025,0 0.006,0.007 0.006,0.018 0,0.025l-0.495 0.494c-0.007,0.007 -0.018,0.007 -0.025,0 -0.006,-0.007 -0.006,-0.018 0,-0.025l0.495 -0.494z"/>
  </g>
 </g>
</svg>
