<?xml version="1.0" encoding="UTF-8"?>
<!DOCTYPE svg PUBLIC "-//W3C//DTD SVG 1.1//EN" "http://www.w3.org/Graphics/SVG/1.1/DTD/svg11.dtd">
<!-- Creator: CorelDRAW 2018 (64-Bit) -->
<svg xmlns="http://www.w3.org/2000/svg" xml:space="preserve" width="13px" height="13px" version="1.1" style="shape-rendering:geometricPrecision; text-rendering:geometricPrecision; image-rendering:optimizeQuality; fill-rule:evenodd; clip-rule:evenodd"
viewBox="0 0 0.143 0.143"
 xmlns:xlink="http://www.w3.org/1999/xlink">
 <defs>
  <style type="text/css">
   <![CDATA[
    .fil0 {fill:gray;fill-rule:nonzero}
   ]]>
  </style>
 </defs>
 <g id="Layer_x0020_1">
  <metadata id="CorelCorpID_0Corel-Layer"/>
  <path class="fil0" d="M0.009 0.141c-0.002,0.002 -0.005,0.002 -0.007,0 -0.003,-0.002 -0.003,-0.006 0,-0.008l0.062 -0.062 -0.062 -0.062c-0.003,-0.002 -0.003,-0.005 0,-0.007 0.002,-0.003 0.005,-0.003 0.007,0l0.062 0.062 0.062 -0.062c0.002,-0.003 0.006,-0.003 0.008,0 0.002,0.002 0.002,0.005 0,0.007l-0.062 0.062 0.062 0.062c0.002,0.002 0.002,0.006 0,0.008 -0.002,0.002 -0.006,0.002 -0.008,0l-0.062 -0.062 -0.062 0.062z"/>
 </g>
</svg>
