<?xml version="1.0" encoding="UTF-8"?>
<!DOCTYPE svg PUBLIC "-//W3C//DTD SVG 1.1//EN" "http://www.w3.org/Graphics/SVG/1.1/DTD/svg11.dtd">
<!-- Creator: CorelDRAW 2018 (64-Bit) -->
<svg xmlns="http://www.w3.org/2000/svg" xml:space="preserve" width="22px" height="22px" version="1.1" style="shape-rendering:geometricPrecision; text-rendering:geometricPrecision; image-rendering:optimizeQuality; fill-rule:evenodd; clip-rule:evenodd"
viewBox="0 0 0.324 0.324"
 xmlns:xlink="http://www.w3.org/1999/xlink">
 <defs>
  <style type="text/css">
   <![CDATA[
    .fil0 {fill:#00D4E3;fill-rule:nonzero}
    .fil1 {fill:white;fill-rule:nonzero}
   ]]>
  </style>
 </defs>
 <g id="Layer_x0020_1">
  <metadata id="CorelCorpID_0Corel-Layer"/>
  <g id="_2486793743888">
   <path class="fil0" d="M0.074 0l0.177 0c0.04,0 0.073,0.033 0.073,0.074l0 0.177c0,0.04 -0.033,0.073 -0.073,0.073l-0.177 0c-0.041,0 -0.074,-0.033 -0.074,-0.073l0 -0.177c0,-0.041 0.033,-0.074 0.074,-0.074z"/>
   <path class="fil1" d="M0.243 0.137l-0.064 0c-0.004,0 -0.007,-0.002 -0.01,-0.004 -0.002,-0.003 -0.004,-0.006 -0.004,-0.01l0 -0.064c0,-0.004 0.004,-0.007 0.008,-0.007 0.002,0 0.004,0 0.005,0.002l0.07 0.07c0.003,0.003 0.003,0.008 0,0.01 -0.001,0.002 -0.003,0.003 -0.005,0.003zm-0.063 -0.015l0.045 0 -0.045 -0.045 0 0.045z"/>
   <path class="fil1" d="M0.074 0.063c0,-0.003 0.001,-0.006 0.003,-0.008 0.003,-0.002 0.005,-0.003 0.009,-0.003l0.087 0c0.002,0 0.004,0 0.005,0.002l0.07 0.07c0.002,0.001 0.002,0.003 0.002,0.005l0 0.132c0,0.003 -0.001,0.006 -0.003,0.008 -0.002,0.002 -0.005,0.004 -0.008,0.004l-0.153 0c-0.004,0 -0.006,-0.002 -0.009,-0.004 -0.002,-0.002 -0.003,-0.005 -0.003,-0.008l0 -0.198zm0.096 0.003l-0.081 0 0 0.192 0.147 0 0 -0.126 -0.066 -0.066z"/>
  </g>
 </g>
</svg>
