<?xml version="1.0" encoding="UTF-8"?>
<!DOCTYPE svg PUBLIC "-//W3C//DTD SVG 1.1//EN" "http://www.w3.org/Graphics/SVG/1.1/DTD/svg11.dtd">
<!-- Creator: CorelDRAW 2018 (64-Bit) -->
<svg xmlns="http://www.w3.org/2000/svg" xml:space="preserve" width="20px" height="20px" version="1.1" style="shape-rendering:geometricPrecision; text-rendering:geometricPrecision; image-rendering:optimizeQuality; fill-rule:evenodd; clip-rule:evenodd"
viewBox="0 0 0.363 0.363"
 xmlns:xlink="http://www.w3.org/1999/xlink">
 <defs>
  <style type="text/css">
   <![CDATA[
    .fil0 {fill:gray}
   ]]>
  </style>
 </defs>
 <g id="Layer_x0020_1">
  <metadata id="CorelCorpID_0Corel-Layer"/>
  <g id="_2237815269328">
   <path class="fil0" d="M0.224 0.292c0.038,0 0.068,-0.03 0.068,-0.068l0 -0.085c0,-0.038 -0.03,-0.068 -0.068,-0.068l-0.085 0c-0.038,0 -0.068,0.03 -0.068,0.068l0 0.085c0,0.038 0.03,0.068 0.068,0.068l0.085 0zm0.033 -0.11c0,0.04 -0.032,0.072 -0.072,0.072 -0.04,0 -0.072,-0.032 -0.072,-0.072 0,-0.04 0.032,-0.072 0.072,-0.072 0.04,0 0.072,0.032 0.072,0.072zm0.014 -0.073c0,0.01 -0.008,0.018 -0.019,0.018 -0.01,0 -0.018,-0.008 -0.018,-0.018 0,-0.01 0.008,-0.019 0.018,-0.019 0.011,0 0.019,0.009 0.019,0.019z"/>
   <path class="fil0" d="M0.185 0.226c0.024,0 0.044,-0.02 0.044,-0.044 0,-0.024 -0.02,-0.043 -0.044,-0.043 -0.024,0 -0.043,0.019 -0.043,0.043 0,0.024 0.019,0.044 0.043,0.044z"/>
   <path class="fil0" d="M0.363 0.343l0 -0.323c0,-0.011 -0.009,-0.02 -0.02,-0.02l-0.323 0c-0.011,0 -0.02,0.009 -0.02,0.02l0 0.323c0,0.011 0.009,0.02 0.02,0.02l0.323 0c0.011,0 0.02,-0.009 0.02,-0.02zm-0.044 -0.214l0 0.105c0,0.047 -0.038,0.085 -0.085,0.085l-0.105 0c-0.047,0 -0.084,-0.038 -0.084,-0.085l0 -0.105c0,-0.047 0.037,-0.084 0.084,-0.084l0.105 0c0.047,0 0.085,0.037 0.085,0.084z"/>
  </g>
 </g>
</svg>
