<?xml version="1.0" encoding="UTF-8"?>
<!DOCTYPE svg PUBLIC "-//W3C//DTD SVG 1.1//EN" "http://www.w3.org/Graphics/SVG/1.1/DTD/svg11.dtd">
<!-- Creator: CorelDRAW 2018 (64-Bit) -->
<svg xmlns="http://www.w3.org/2000/svg" xml:space="preserve" width="21px" height="25px" version="1.1" style="shape-rendering:geometricPrecision; text-rendering:geometricPrecision; image-rendering:optimizeQuality; fill-rule:evenodd; clip-rule:evenodd"
viewBox="0 0 0.892 1.067"
 xmlns:xlink="http://www.w3.org/1999/xlink">
 <defs>
  <style type="text/css">
   <![CDATA[
    .fil0 {fill:gray;fill-rule:nonzero}
   ]]>
  </style>
 </defs>
 <g id="Layer_x0020_1">
  <metadata id="CorelCorpID_0Corel-Layer"/>
  <path class="fil0" d="M0.467 0.218c0.103,0.005 0.196,0.049 0.264,0.117 0.073,0.073 0.118,0.174 0.118,0.286 0,0.111 -0.045,0.212 -0.118,0.285 -0.073,0.073 -0.174,0.118 -0.285,0.118 -0.111,0 -0.212,-0.045 -0.285,-0.118 -0.073,-0.073 -0.118,-0.174 -0.118,-0.285 0,-0.012 -0.01,-0.022 -0.022,-0.022 -0.011,0 -0.021,0.01 -0.021,0.022 0,0.123 0.05,0.234 0.131,0.315 0.08,0.081 0.192,0.131 0.315,0.131 0.123,0 0.235,-0.05 0.315,-0.131 0.081,-0.081 0.131,-0.192 0.131,-0.315 0,-0.123 -0.05,-0.235 -0.131,-0.316 -0.076,-0.076 -0.179,-0.124 -0.294,-0.13l0 -0.154c0,-0.004 -0.001,-0.009 -0.004,-0.012 -0.007,-0.01 -0.02,-0.012 -0.03,-0.005l-0.234 0.175c-0.002,0.001 -0.003,0.002 -0.004,0.004 -0.007,0.01 -0.005,0.023 0.004,0.03l0.233 0.174c0.004,0.003 0.009,0.005 0.014,0.005 0.012,0 0.021,-0.01 0.021,-0.021l0 -0.153zm-0.22 -0.022l0.178 -0.132 0 0.132 0 0.132 -0.178 -0.132z"/>
 </g>
</svg>
