<?xml version="1.0" encoding="UTF-8"?>
<!DOCTYPE svg PUBLIC "-//W3C//DTD SVG 1.1//EN" "http://www.w3.org/Graphics/SVG/1.1/DTD/svg11.dtd">
<!-- Creator: CorelDRAW 2018 (64-Bit) -->
<svg xmlns="http://www.w3.org/2000/svg" xml:space="preserve" width="32px" height="32px" version="1.1" style="shape-rendering:geometricPrecision; text-rendering:geometricPrecision; image-rendering:optimizeQuality; fill-rule:evenodd; clip-rule:evenodd"
viewBox="0 0 0.571 0.571"
 xmlns:xlink="http://www.w3.org/1999/xlink">
 <defs>
  <style type="text/css">
   <![CDATA[
    .fil0 {fill:#052337}
    .fil1 {fill:#00F4FF;fill-rule:nonzero}
   ]]>
  </style>
 </defs>
 <g id="Layer_x0020_1">
  <metadata id="CorelCorpID_0Corel-Layer"/>
  <rect class="fil0" width="0.571" height="0.571" rx="0.089" ry="0.089"/>
  <path class="fil1" d="M0.438 0.28c0.003,0 0.006,-0.001 0.007,-0.001 0.001,-0.001 0.001,-0.001 0.001,-0.001 0.001,-0.001 0,-0.002 0,-0.003 0,-0.002 -0.002,-0.005 -0.004,-0.007l-0.15 -0.149c-0.001,-0.002 -0.004,-0.003 -0.006,-0.003 -0.003,0 -0.005,0.001 -0.007,0.003l-0.149 0.149c-0.003,0.002 -0.004,0.005 -0.005,0.007 0,0.001 0,0.002 0,0.003l0 0c0,0 0.001,0 0.001,0.001 0.002,0 0.004,0.001 0.007,0.001l0.067 0c0.007,0 0.014,0.003 0.019,0.008 0.006,0.005 0.009,0.012 0.009,0.02l0 0.137c0,0.003 0.001,0.005 0.003,0.007 0.002,0.002 0.004,0.003 0.007,0.003l0.095 0c0.003,0 0.006,-0.001 0.008,-0.003 0.001,-0.002 0.003,-0.004 0.003,-0.007l0 -0.137c0,-0.008 0.003,-0.015 0.008,-0.02 0.005,-0.005 0.012,-0.008 0.02,-0.008l0.066 0zm0.016 0.014c-0.004,0.003 -0.009,0.004 -0.016,0.004l-0.066 0c-0.003,0 -0.006,0.001 -0.007,0.003 -0.002,0.002 -0.003,0.004 -0.003,0.007l0 0.137c0,0.008 -0.004,0.015 -0.009,0.02 -0.005,0.005 -0.012,0.008 -0.02,0.008l-0.095 0c-0.008,0 -0.015,-0.003 -0.02,-0.008 -0.005,-0.005 -0.008,-0.012 -0.008,-0.02l0 -0.137c0,-0.003 -0.001,-0.005 -0.003,-0.007 -0.002,-0.002 -0.005,-0.003 -0.007,-0.003l-0.067 0c-0.006,0 -0.011,-0.001 -0.015,-0.004 -0.005,-0.002 -0.008,-0.006 -0.009,-0.01l-0.001 -0.001c-0.001,-0.004 -0.001,-0.008 0,-0.013 0.002,-0.005 0.005,-0.01 0.009,-0.015l0.149 -0.149c0.005,-0.005 0.013,-0.008 0.02,-0.008 0.007,0 0.013,0.003 0.019,0.008l0.149 0.149c0.005,0.005 0.008,0.01 0.009,0.015 0.002,0.005 0.002,0.009 0,0.013 -0.001,0.005 -0.005,0.009 -0.009,0.011z"/>
 </g>
</svg>
