<?xml version="1.0" encoding="UTF-8"?>
<!DOCTYPE svg PUBLIC "-//W3C//DTD SVG 1.1//EN" "http://www.w3.org/Graphics/SVG/1.1/DTD/svg11.dtd">
<!-- Creator: CorelDRAW 2018 (64-Bit) -->
<svg xmlns="http://www.w3.org/2000/svg" xml:space="preserve" width="28px" height="28px" version="1.1" style="shape-rendering:geometricPrecision; text-rendering:geometricPrecision; image-rendering:optimizeQuality; fill-rule:evenodd; clip-rule:evenodd"
viewBox="0 0 2.739 2.739"
 xmlns:xlink="http://www.w3.org/1999/xlink">
 <defs>
  <style type="text/css">
   <![CDATA[
    .fil0 {fill:none}
    .fil3 {fill:#00F4FF}
    .fil1 {fill:#EAEDF2}
    .fil4 {fill:white}
    .fil2 {fill:gray;fill-rule:nonzero}
   ]]>
  </style>
 </defs>
 <g id="Layer_x0020_1">
  <metadata id="CorelCorpID_0Corel-Layer"/>
  <g id="_2237865100752">
   <rect class="fil0" width="2.739" height="2.739"/>
   <g>
    <path class="fil1" d="M0.391 0.391l1.957 0c0.053,0 0.097,0.044 0.097,0.098l0 1.761c0,0.054 -0.044,0.098 -0.097,0.098l-1.957 0c-0.054,0 -0.098,-0.044 -0.098,-0.098l0 -1.761c0,-0.054 0.044,-0.098 0.098,-0.098z"/>
    <path class="fil2" d="M0.391 0.342l1.957 0c0.04,0 0.077,0.017 0.103,0.043 0.027,0.027 0.043,0.064 0.043,0.104l0 1.761c0,0.04 -0.016,0.077 -0.043,0.103 -0.026,0.027 -0.063,0.043 -0.103,0.043l-1.957 0c-0.04,0 -0.077,-0.016 -0.103,-0.043l-0.003 -0.003c-0.025,-0.026 -0.04,-0.062 -0.04,-0.1l0 -1.761c0,-0.04 0.016,-0.077 0.043,-0.104 0.026,-0.026 0.063,-0.043 0.103,-0.043zm1.957 0.098l-1.957 0c-0.013,0 -0.025,0.006 -0.034,0.015 -0.009,0.008 -0.015,0.021 -0.015,0.034l0 1.761c0,0.012 0.005,0.024 0.013,0.033l0.002 0.001c0.009,0.009 0.021,0.015 0.034,0.015l1.957 0c0.013,0 0.025,-0.006 0.034,-0.015 0.009,-0.008 0.014,-0.021 0.014,-0.034l0 -1.761c0,-0.013 -0.005,-0.026 -0.014,-0.034 -0.009,-0.009 -0.021,-0.015 -0.034,-0.015z"/>
    <path class="fil3" d="M2.445 2.252c-0.001,0.053 -0.044,0.096 -0.097,0.096l-1.957 0c-0.054,0 -0.098,-0.044 -0.098,-0.098l0 -0.653 0.587 -0.695 0.745 0.944 0.295 -0.304 0.525 0.496 0 0.214z"/>
    <path class="fil2" d="M2.494 2.259c-0.002,0.037 -0.019,0.071 -0.044,0.096 -0.027,0.026 -0.063,0.041 -0.102,0.041l-1.957 0c-0.04,0 -0.077,-0.016 -0.103,-0.043l-0.003 -0.003c-0.025,-0.026 -0.04,-0.062 -0.04,-0.1l0 -0.653c0,-0.013 0.005,-0.025 0.013,-0.034l0.585 -0.693c0.017,-0.02 0.048,-0.023 0.068,-0.006 0.003,0.003 0.005,0.005 0.007,0.008l0.71 0.901 0.257 -0.265c0.019,-0.019 0.049,-0.019 0.068,-0.001l0.526 0.495c0.01,0.01 0.015,0.023 0.015,0.036l0 0.214 0 0.007zm-0.112 0.026c0.008,-0.008 0.013,-0.019 0.014,-0.031l0 -0.195 -0.475 -0.448 -0.26 0.268c-0.002,0.002 -0.004,0.004 -0.006,0.006 -0.021,0.017 -0.052,0.013 -0.069,-0.008l-0.708 -0.898 -0.536 0.635 0 0.636c0,0.012 0.005,0.024 0.013,0.033l0.002 0.001c0.009,0.009 0.021,0.015 0.034,0.015l1.957 0c0.013,0 0.025,-0.006 0.034,-0.014z"/>
    <path class="fil4" d="M2.166 0.902c0,0 0,0 0,0 0,-0.111 -0.09,-0.201 -0.201,-0.201 -0.111,-0.001 -0.201,0.089 -0.201,0.2l0 0.001c0,0.111 0.09,0.201 0.201,0.201 0.111,0 0.201,-0.09 0.201,-0.201z"/>
    <path class="fil2" d="M2.117 0.902l0 0c0,-0.043 -0.017,-0.081 -0.044,-0.108 -0.028,-0.028 -0.066,-0.045 -0.108,-0.045l0 0c-0.042,0 -0.08,0.017 -0.108,0.045 -0.027,0.027 -0.044,0.065 -0.044,0.107l0 0.001c0,0.042 0.017,0.08 0.044,0.107 0.028,0.028 0.066,0.045 0.108,0.045l0 0c0.042,0 0.08,-0.017 0.108,-0.044 0.027,-0.028 0.044,-0.066 0.044,-0.108l0 0zm0.098 -0.001l0 0.001c0,0.069 -0.028,0.132 -0.074,0.177 -0.045,0.045 -0.107,0.073 -0.176,0.073l0 0c-0.069,-0.001 -0.132,-0.029 -0.177,-0.074 -0.045,-0.045 -0.073,-0.107 -0.073,-0.176l0 -0.001c0,-0.069 0.028,-0.131 0.073,-0.176 0.046,-0.045 0.108,-0.073 0.177,-0.073l0 0c0.069,0 0.132,0.028 0.177,0.073 0.045,0.045 0.073,0.107 0.073,0.176z"/>
    <polygon class="fil4" points="1.515,1.707 0.88,0.902 0.295,1.595 0.497,1.503 0.588,1.73 0.844,1.451 1.078,1.689 1.18,1.528 "/>
    <path class="fil2" d="M1.332 1.554l-0.454 -0.575 -0.407 0.483 0.006 -0.003c0.025,-0.011 0.054,0 0.065,0.024l0.063 0.157 0.203 -0.222c0.018,-0.02 0.049,-0.021 0.069,-0.003l0.193 0.196 0.068 -0.109c0.014,-0.022 0.042,-0.029 0.065,-0.017l0.129 0.069zm-0.414 -0.682l0.635 0.805c0.011,0.015 0.014,0.035 0.005,0.053 -0.013,0.024 -0.043,0.033 -0.066,0.02l-0.295 -0.158 -0.076 0.12c-0.002,0.004 -0.005,0.008 -0.008,0.012 -0.02,0.019 -0.05,0.018 -0.069,-0.001l-0.199 -0.201 -0.219 0.239c-0.005,0.006 -0.012,0.011 -0.02,0.014 -0.025,0.01 -0.053,-0.002 -0.063,-0.027l-0.072 -0.179 -0.156 0.07c-0.016,0.007 -0.036,0.005 -0.051,-0.007 -0.021,-0.018 -0.023,-0.048 -0.006,-0.069l0.583 -0.691c0.002,-0.003 0.005,-0.006 0.009,-0.009 0.021,-0.016 0.052,-0.013 0.068,0.009z"/>
    <polygon class="fil4" points="1.625,1.846 1.92,1.542 2.404,1.999 2.055,1.858 1.994,2.03 1.845,1.858 1.694,1.94 "/>
    <path class="fil2" d="M1.59 1.812l0.295 -0.304c0.019,-0.019 0.049,-0.019 0.068,-0.001l0.484 0.456c0.02,0.019 0.021,0.05 0.002,0.069 -0.014,0.016 -0.036,0.02 -0.055,0.012l-0.3 -0.121 -0.044 0.123c-0.008,0.025 -0.036,0.039 -0.062,0.03 -0.008,-0.003 -0.015,-0.008 -0.02,-0.014l-0.124 -0.142 -0.116 0.063c-0.022,0.012 -0.049,0.006 -0.063,-0.014l-0.07 -0.094c-0.014,-0.019 -0.012,-0.046 0.005,-0.063zm0.331 -0.201l-0.233 0.24 0.02 0.026 0.11 -0.059c0.021,-0.014 0.048,-0.01 0.064,0.008l0.094 0.109 0.033 -0.095c0.01,-0.025 0.039,-0.037 0.064,-0.027l0.11 0.044 -0.262 -0.246z"/>
   </g>
  </g>
 </g>
</svg>
