<?xml version="1.0" encoding="UTF-8"?>
<!DOCTYPE svg PUBLIC "-//W3C//DTD SVG 1.1//EN" "http://www.w3.org/Graphics/SVG/1.1/DTD/svg11.dtd">
<!-- Creator: CorelDRAW 2018 (64-Bit) -->
<svg xmlns="http://www.w3.org/2000/svg" xml:space="preserve" width="28px" height="28px" version="1.1" style="shape-rendering:geometricPrecision; text-rendering:geometricPrecision; image-rendering:optimizeQuality; fill-rule:evenodd; clip-rule:evenodd"
viewBox="0 0 1.989 1.989"
 xmlns:xlink="http://www.w3.org/1999/xlink">
 <defs>
  <style type="text/css">
   <![CDATA[
    .fil0 {fill:none}
    .fil2 {fill:#00F4FF}
    .fil3 {fill:white}
    .fil1 {fill:gray;fill-rule:nonzero}
   ]]>
  </style>
 </defs>
 <g id="Layer_x0020_1">
  <metadata id="CorelCorpID_0Corel-Layer"/>
  <g id="_2237841529984">
   <rect class="fil0" width="1.989" height="1.989"/>
   <g>
    <path class="fil1" d="M0.322 1.017l0.822 0c0.039,0 0.075,0.016 0.101,0.042 0.027,0.026 0.043,0.063 0.043,0.102l0 0.506c0,0.039 -0.016,0.076 -0.043,0.102 -0.026,0.026 -0.062,0.042 -0.101,0.042l-0.822 0c-0.04,0 -0.076,-0.016 -0.102,-0.042 -0.026,-0.026 -0.042,-0.063 -0.042,-0.102l0 -0.506c0,-0.039 0.016,-0.076 0.042,-0.102 0.026,-0.026 0.062,-0.042 0.102,-0.042zm0.822 0.071l-0.822 0c-0.02,0 -0.039,0.008 -0.052,0.021 -0.013,0.014 -0.021,0.032 -0.021,0.052l0 0.506c0,0.02 0.008,0.038 0.021,0.051 0.013,0.014 0.032,0.022 0.052,0.022l0.822 0c0.02,0 0.038,-0.008 0.051,-0.022 0.014,-0.013 0.022,-0.031 0.022,-0.051l0 -0.506c0,-0.02 -0.008,-0.038 -0.022,-0.052 -0.013,-0.013 -0.031,-0.021 -0.051,-0.021z"/>
    <path class="fil1" d="M1.74 1.135l-0.279 0.179 0 0.2 0.279 0.178 0 -0.557zm-0.333 0.13l0.347 -0.223c0.006,-0.004 0.014,-0.007 0.022,-0.007 0.019,0 0.035,0.016 0.035,0.036l0 0.686c0,0.007 -0.002,0.014 -0.006,0.019 -0.01,0.017 -0.032,0.022 -0.049,0.011l-0.347 -0.223c-0.011,-0.006 -0.019,-0.017 -0.019,-0.031l0 -0.238c0,-0.012 0.006,-0.023 0.017,-0.03z"/>
    <path class="fil2" d="M1.198 0.213c0.196,0 0.355,0.159 0.355,0.355 0,0.196 -0.159,0.355 -0.355,0.355 -0.197,0 -0.356,-0.159 -0.356,-0.355 0,-0.196 0.159,-0.355 0.356,-0.355z"/>
    <path class="fil1" d="M1.198 0.178c0.107,0 0.205,0.043 0.276,0.114 0.07,0.071 0.114,0.168 0.114,0.276 0,0.108 -0.044,0.206 -0.114,0.276 -0.071,0.071 -0.169,0.115 -0.276,0.115 -0.108,0 -0.206,-0.044 -0.277,-0.115 -0.07,-0.07 -0.114,-0.168 -0.114,-0.276 0,-0.108 0.044,-0.205 0.114,-0.276 0.071,-0.071 0.169,-0.114 0.277,-0.114zm0.226 0.164c-0.058,-0.058 -0.138,-0.093 -0.226,-0.093 -0.089,0 -0.169,0.035 -0.226,0.093 -0.058,0.058 -0.094,0.138 -0.094,0.226 0,0.088 0.036,0.168 0.094,0.226 0.057,0.058 0.137,0.094 0.226,0.094 0.088,0 0.168,-0.036 0.226,-0.094 0.057,-0.058 0.093,-0.137 0.093,-0.226 0,-0.088 -0.036,-0.168 -0.093,-0.226z"/>
    <path class="fil3" d="M1.198 0.391c0.098,0 0.177,0.079 0.177,0.177 0,0.098 -0.079,0.178 -0.177,0.178 -0.098,0 -0.178,-0.08 -0.178,-0.178 0,-0.098 0.08,-0.177 0.178,-0.177z"/>
    <path class="fil1" d="M1.198 0.355c0.058,0 0.112,0.024 0.15,0.063 0.039,0.038 0.063,0.091 0.063,0.15 0,0.059 -0.024,0.112 -0.063,0.151 -0.038,0.038 -0.092,0.062 -0.15,0.062 -0.059,0 -0.112,-0.024 -0.151,-0.062 -0.039,-0.039 -0.062,-0.092 -0.062,-0.151 0,-0.059 0.023,-0.112 0.062,-0.15 0.039,-0.039 0.092,-0.063 0.151,-0.063zm0.1 0.113c-0.026,-0.026 -0.061,-0.042 -0.1,-0.042 -0.04,0 -0.075,0.016 -0.101,0.042 -0.026,0.025 -0.041,0.061 -0.041,0.1 0,0.039 0.015,0.075 0.041,0.101 0.026,0.025 0.061,0.041 0.101,0.041 0.039,0 0.074,-0.016 0.1,-0.041 0.026,-0.026 0.042,-0.062 0.042,-0.101 0,-0.039 -0.016,-0.075 -0.042,-0.1z"/>
    <path class="fil2" d="M0.462 0.426c0.137,0 0.248,0.111 0.248,0.249 0,0.137 -0.111,0.248 -0.248,0.248 -0.138,0 -0.249,-0.111 -0.249,-0.248 0,-0.138 0.111,-0.249 0.249,-0.249z"/>
    <path class="fil1" d="M0.462 0.391c0.078,0 0.149,0.031 0.2,0.083 0.052,0.051 0.084,0.122 0.084,0.201 0,0.078 -0.032,0.149 -0.084,0.2 -0.051,0.052 -0.122,0.084 -0.2,0.084 -0.079,0 -0.15,-0.032 -0.201,-0.083 -0.052,-0.052 -0.083,-0.123 -0.083,-0.201 0,-0.079 0.031,-0.15 0.083,-0.201 0.051,-0.052 0.122,-0.083 0.201,-0.083zm0.15 0.133c-0.038,-0.039 -0.091,-0.062 -0.15,-0.062 -0.059,0 -0.113,0.023 -0.151,0.062 -0.039,0.039 -0.062,0.092 -0.062,0.151 0,0.059 0.023,0.112 0.062,0.15 0.038,0.039 0.092,0.063 0.151,0.063 0.059,0 0.112,-0.024 0.15,-0.062 0.039,-0.039 0.063,-0.092 0.063,-0.151 0,-0.059 -0.024,-0.112 -0.063,-0.151z"/>
    <path class="fil3" d="M0.462 0.604c0.039,0 0.071,0.031 0.071,0.071 0,0.039 -0.032,0.071 -0.071,0.071 -0.04,0 -0.071,-0.032 -0.071,-0.071 0,-0.04 0.031,-0.071 0.071,-0.071z"/>
    <path class="fil1" d="M0.462 0.568c0.029,0 0.056,0.012 0.075,0.031 0.019,0.02 0.031,0.046 0.031,0.076 0,0.029 -0.012,0.056 -0.031,0.075 -0.019,0.019 -0.046,0.031 -0.075,0.031 -0.03,0 -0.056,-0.012 -0.076,-0.031 -0.019,-0.019 -0.031,-0.046 -0.031,-0.075 0,-0.03 0.012,-0.056 0.031,-0.075 0.02,-0.02 0.046,-0.032 0.076,-0.032zm0.025 0.082c-0.007,-0.007 -0.016,-0.011 -0.025,-0.011 -0.01,0 -0.019,0.004 -0.026,0.011 -0.006,0.006 -0.01,0.015 -0.01,0.025 0,0.01 0.004,0.018 0.01,0.025 0.007,0.006 0.016,0.01 0.026,0.01 0.01,0 0.018,-0.004 0.025,-0.01 0.006,-0.006 0.01,-0.015 0.01,-0.025 0,-0.01 -0.004,-0.019 -0.01,-0.025z"/>
   </g>
  </g>
 </g>
</svg>
