<?xml version="1.0" encoding="UTF-8"?>
<!DOCTYPE svg PUBLIC "-//W3C//DTD SVG 1.1//EN" "http://www.w3.org/Graphics/SVG/1.1/DTD/svg11.dtd">
<!-- Creator: CorelDRAW 2018 (64-Bit) -->
<svg xmlns="http://www.w3.org/2000/svg" xml:space="preserve" width="28px" height="28px" version="1.1" style="shape-rendering:geometricPrecision; text-rendering:geometricPrecision; image-rendering:optimizeQuality; fill-rule:evenodd; clip-rule:evenodd"
viewBox="0 0 1.565 1.565"
 xmlns:xlink="http://www.w3.org/1999/xlink">
 <defs>
  <style type="text/css">
   <![CDATA[
    .fil0 {fill:none}
    .fil4 {fill:#00F4FF}
    .fil1 {fill:#EAEDF2}
    .fil3 {fill:white}
    .fil2 {fill:gray;fill-rule:nonzero}
   ]]>
  </style>
 </defs>
 <g id="Layer_x0020_1">
  <metadata id="CorelCorpID_0Corel-Layer"/>
  <g id="_2237860814464">
   <rect class="fil0" width="1.565" height="1.565"/>
   <g>
    <path class="fil1" d="M0.23 0.112l0.907 0c0.013,0 0.023,0.01 0.023,0.022l0 1.067c0,0.012 -0.01,0.022 -0.023,0.022l-0.907 0c-0.013,0 -0.023,-0.01 -0.023,-0.022l0 -1.067c0,-0.012 0.01,-0.022 0.023,-0.022z"/>
    <path class="fil2" d="M0.23 0.084l0.907 0c0.014,0 0.027,0.005 0.036,0.015 0.009,0.009 0.015,0.021 0.015,0.035l0 1.067c0,0.013 -0.006,0.026 -0.015,0.035 -0.009,0.009 -0.022,0.015 -0.036,0.015l-0.907 0c-0.014,0 -0.027,-0.006 -0.036,-0.015l-0.002 -0.002c-0.008,-0.009 -0.013,-0.021 -0.013,-0.033l0 -1.067c0,-0.014 0.006,-0.026 0.015,-0.035 0.009,-0.01 0.022,-0.015 0.036,-0.015zm0.902 0.056l-0.897 0 0 1.055 0.897 0 0 -1.055z"/>
    <path class="fil3" d="M0.428 0.231l0.908 0c0.012,0 0.022,0.01 0.022,0.022l0 0.766 -0.323 0.323 -0.607 0c-0.012,0 -0.022,-0.01 -0.022,-0.022l0 -1.067c0,-0.012 0.01,-0.022 0.022,-0.022z"/>
    <path class="fil2" d="M0.428 0.203l0.908 0c0.014,0 0.026,0.006 0.035,0.015l0.002 0.002c0.008,0.009 0.013,0.02 0.013,0.033l0 0.766c0,0.008 -0.003,0.015 -0.009,0.02l-0.322 0.323c-0.006,0.005 -0.013,0.008 -0.02,0.008l-0.607 0c-0.014,0 -0.026,-0.006 -0.035,-0.015 -0.01,-0.009 -0.015,-0.022 -0.015,-0.035l0 -1.067c0,-0.014 0.005,-0.026 0.015,-0.035 0.009,-0.009 0.021,-0.015 0.035,-0.015zm0.902 0.056l-0.896 0 0 1.055 0.589 0 0.307 -0.307 0 -0.748z"/>
    <path class="fil2" d="M0.576 0.609c-0.015,0 -0.028,-0.012 -0.028,-0.027 0,-0.016 0.013,-0.028 0.028,-0.028l0.611 0c0.016,0 0.028,0.012 0.028,0.028 0,0.015 -0.012,0.027 -0.028,0.027l-0.611 0z"/>
    <path class="fil2" d="M0.744 0.454c-0.016,0 -0.028,-0.012 -0.028,-0.028 0,-0.015 0.012,-0.028 0.028,-0.028l0.276 0c0.016,0 0.028,0.013 0.028,0.028 0,0.016 -0.012,0.028 -0.028,0.028l-0.276 0z"/>
    <path class="fil4" d="M1.358 1.019l-0.295 0c-0.016,0 -0.028,0.012 -0.028,0.027l0 0.296 0.323 -0.323z"/>
    <path class="fil2" d="M1.291 1.047l-0.228 0 0 0.227 0.228 -0.227zm-0.228 -0.056l0.295 0c0.007,0 0.014,0.003 0.02,0.008 0.011,0.011 0.011,0.029 0,0.04l-0.323 0.322c-0.005,0.005 -0.012,0.009 -0.02,0.009 -0.015,0 -0.028,-0.013 -0.028,-0.028l0 -0.296c0,-0.015 0.006,-0.029 0.016,-0.039 0.01,-0.01 0.024,-0.016 0.04,-0.016z"/>
    <path class="fil2" d="M0.576 0.765c-0.015,0 -0.028,-0.013 -0.028,-0.028 0,-0.016 0.013,-0.028 0.028,-0.028l0.611 0c0.016,0 0.028,0.012 0.028,0.028 0,0.015 -0.012,0.028 -0.028,0.028l-0.611 0z"/>
    <path class="fil2" d="M0.576 0.92c-0.015,0 -0.028,-0.013 -0.028,-0.028 0,-0.016 0.013,-0.028 0.028,-0.028l0.277 0c0.015,0 0.028,0.012 0.028,0.028 0,0.015 -0.013,0.028 -0.028,0.028l-0.277 0z"/>
   </g>
  </g>
 </g>
</svg>
