<?xml version="1.0" encoding="UTF-8"?>
<!DOCTYPE svg PUBLIC "-//W3C//DTD SVG 1.1//EN" "http://www.w3.org/Graphics/SVG/1.1/DTD/svg11.dtd">
<!-- Creator: CorelDRAW 2018 (64-Bit) -->
<svg xmlns="http://www.w3.org/2000/svg" xml:space="preserve" width="20px" height="20px" version="1.1" style="shape-rendering:geometricPrecision; text-rendering:geometricPrecision; image-rendering:optimizeQuality; fill-rule:evenodd; clip-rule:evenodd"
viewBox="0 0 0.383 0.383"
 xmlns:xlink="http://www.w3.org/1999/xlink">
 <defs>
  <style type="text/css">
   <![CDATA[
    .fil0 {fill:gray;fill-rule:nonzero}
   ]]>
  </style>
 </defs>
 <g id="Layer_x0020_1">
  <metadata id="CorelCorpID_0Corel-Layer"/>
  <path class="fil0" d="M0.021 0l0.341 0c0.012,0 0.021,0.01 0.021,0.021l0 0.341c0,0.012 -0.009,0.021 -0.021,0.021l-0.341 0c-0.011,0 -0.021,-0.009 -0.021,-0.021l0 -0.341c0,-0.011 0.01,-0.021 0.021,-0.021zm0.265 0.097c-0.025,-0.025 -0.058,-0.039 -0.094,-0.039 -0.073,0 -0.132,0.059 -0.132,0.132 0,0.024 0.006,0.047 0.017,0.067l-0.019 0.069 0.071 -0.019c0.019,0.011 0.041,0.016 0.063,0.016l0 0c0,0 0,0 0,0 0.073,0 0.133,-0.059 0.133,-0.132 0,-0.036 -0.014,-0.069 -0.039,-0.094zm-0.094 0.204l0 0 0 0c-0.02,0 -0.039,-0.005 -0.056,-0.016l-0.004 -0.002 -0.042 0.011 0.011 -0.041 -0.002 -0.004c-0.011,-0.017 -0.017,-0.038 -0.017,-0.059 0,-0.06 0.049,-0.11 0.11,-0.11 0.03,0 0.057,0.012 0.078,0.033 0.021,0.02 0.033,0.048 0.033,0.078 -0.001,0.06 -0.05,0.11 -0.111,0.11zm0.061 -0.083l0 0c-0.004,-0.001 -0.02,-0.009 -0.023,-0.011 -0.003,-0.001 -0.005,-0.001 -0.007,0.002 -0.003,0.003 -0.009,0.011 -0.011,0.013 -0.002,0.002 -0.004,0.003 -0.007,0.001 -0.003,-0.002 -0.014,-0.005 -0.027,-0.016 -0.01,-0.009 -0.016,-0.02 -0.018,-0.023 -0.002,-0.004 0,-0.006 0.001,-0.007 0.002,-0.002 0.004,-0.004 0.005,-0.006 0.002,-0.002 0.002,-0.003 0.004,-0.006 0.001,-0.002 0,-0.004 -0.001,-0.005 -0.001,-0.002 -0.007,-0.018 -0.01,-0.025 -0.003,-0.006 -0.005,-0.006 -0.007,-0.006 -0.002,0 -0.005,0 -0.007,0 -0.002,0 -0.006,0.001 -0.009,0.004 -0.003,0.004 -0.011,0.012 -0.011,0.028 0,0.016 0.012,0.032 0.013,0.034 0.002,0.003 0.024,0.036 0.057,0.05 0.008,0.004 0.014,0.006 0.019,0.007 0.008,0.003 0.015,0.003 0.021,0.002 0.006,-0.001 0.019,-0.008 0.022,-0.016 0.003,-0.008 0.003,-0.014 0.002,-0.016 -0.001,-0.001 -0.003,-0.002 -0.006,-0.004z"/>
 </g>
</svg>
