<?xml version="1.0" encoding="UTF-8"?>
<!DOCTYPE svg PUBLIC "-//W3C//DTD SVG 1.1//EN" "http://www.w3.org/Graphics/SVG/1.1/DTD/svg11.dtd">
<!-- Creator: CorelDRAW 2018 (64-Bit) -->
<svg xmlns="http://www.w3.org/2000/svg" xml:space="preserve" width="20px" height="20px" version="1.1" style="shape-rendering:geometricPrecision; text-rendering:geometricPrecision; image-rendering:optimizeQuality; fill-rule:evenodd; clip-rule:evenodd"
viewBox="0 0 0.406 0.406"
 xmlns:xlink="http://www.w3.org/1999/xlink">
 <defs>
  <style type="text/css">
   <![CDATA[
    .fil0 {fill:gray;fill-rule:nonzero}
   ]]>
  </style>
 </defs>
 <g id="Layer_x0020_1">
  <metadata id="CorelCorpID_0Corel-Layer"/>
  <path class="fil0" d="M0.023 0l0.36 0c0.013,0 0.023,0.01 0.023,0.023l0 0.36c0,0.013 -0.01,0.023 -0.023,0.023l-0.36 0c-0.013,0 -0.023,-0.01 -0.023,-0.023l0 -0.36c0,-0.013 0.01,-0.023 0.023,-0.023zm0.133 0.306c0.096,0 0.148,-0.079 0.148,-0.148 0,-0.002 0,-0.005 0,-0.007 0.01,-0.007 0.019,-0.016 0.026,-0.027 -0.01,0.004 -0.02,0.007 -0.03,0.008 0.011,-0.006 0.019,-0.016 0.023,-0.028 -0.01,0.006 -0.021,0.01 -0.033,0.012 -0.01,-0.01 -0.023,-0.016 -0.038,-0.016 -0.029,0 -0.052,0.023 -0.052,0.052 0,0.004 0,0.008 0.001,0.012 -0.043,-0.002 -0.082,-0.023 -0.107,-0.055 -0.005,0.008 -0.007,0.017 -0.007,0.027 0,0.018 0.009,0.034 0.023,0.043 -0.009,0 -0.017,-0.003 -0.024,-0.007 0,0.001 0,0.001 0,0.001 0,0.025 0.018,0.046 0.042,0.051 -0.004,0.001 -0.009,0.002 -0.014,0.002 -0.003,0 -0.006,0 -0.009,-0.001 0.006,0.021 0.025,0.036 0.048,0.036 -0.018,0.014 -0.04,0.022 -0.064,0.022 -0.005,0 -0.009,0 -0.013,0 0.023,0.014 0.05,0.023 0.08,0.023z"/>
 </g>
</svg>
