<?xml version="1.0" encoding="UTF-8"?>
<!DOCTYPE svg PUBLIC "-//W3C//DTD SVG 1.1//EN" "http://www.w3.org/Graphics/SVG/1.1/DTD/svg11.dtd">
<!-- Creator: CorelDRAW 2018 (64-Bit) -->
<svg xmlns="http://www.w3.org/2000/svg" xml:space="preserve" width="20px" height="20px" version="1.1" style="shape-rendering:geometricPrecision; text-rendering:geometricPrecision; image-rendering:optimizeQuality; fill-rule:evenodd; clip-rule:evenodd"
viewBox="0 0 0.431 0.431"
 xmlns:xlink="http://www.w3.org/1999/xlink">
 <defs>
  <style type="text/css">
   <![CDATA[
    .fil0 {fill:gray;fill-rule:nonzero}
   ]]>
  </style>
 </defs>
 <g id="Layer_x0020_1">
  <metadata id="CorelCorpID_0Corel-Layer"/>
  <path class="fil0" d="M0.024 0l0.383 0c0.013,0 0.024,0.011 0.024,0.024l0 0.383c0,0.013 -0.011,0.024 -0.024,0.024l-0.383 0c-0.013,0 -0.024,-0.011 -0.024,-0.024l0 -0.383c0,-0.013 0.011,-0.024 0.024,-0.024zm0.241 0.216l-0.081 0.046 0 -0.093 0.081 0.047zm0.099 -0.076c-0.003,-0.013 -0.014,-0.024 -0.027,-0.027 -0.024,-0.007 -0.121,-0.007 -0.121,-0.007 0,0 -0.098,0 -0.122,0.007 -0.013,0.003 -0.024,0.014 -0.027,0.027 -0.007,0.025 -0.007,0.076 -0.007,0.076 0,0 0,0.05 0.007,0.075 0.003,0.013 0.014,0.024 0.027,0.027 0.024,0.007 0.122,0.007 0.122,0.007 0,0 0.097,0 0.121,-0.007 0.013,-0.003 0.024,-0.014 0.027,-0.027 0.007,-0.025 0.007,-0.075 0.007,-0.075 0,0 0,-0.051 -0.007,-0.076z"/>
 </g>
</svg>
