<?xml version="1.0" encoding="UTF-8"?>
<!DOCTYPE svg PUBLIC "-//W3C//DTD SVG 1.1//EN" "http://www.w3.org/Graphics/SVG/1.1/DTD/svg11.dtd">
<!-- Creator: CorelDRAW 2018 (64-Bit) -->
<svg xmlns="http://www.w3.org/2000/svg" xml:space="preserve" width="92px" height="52px" version="1.1" style="shape-rendering:geometricPrecision; text-rendering:geometricPrecision; image-rendering:optimizeQuality; fill-rule:evenodd; clip-rule:evenodd"
viewBox="0 0 11.734 6.632"
 xmlns:xlink="http://www.w3.org/1999/xlink">
 <defs>
  <style type="text/css">
   <![CDATA[
    .fil1 {fill:none}
    .fil0 {fill:#00D4E3;fill-rule:nonzero}
   ]]>
  </style>
 </defs>
 <g id="Layer_x0020_1">
  <metadata id="CorelCorpID_0Corel-Layer"/>
  <g id="_1443273738896">
   <g>
    <path class="fil0" d="M2.392 1.403l6.949 0c0.114,0 0.218,0.047 0.294,0.122l0.003 0.004c0.073,0.075 0.119,0.177 0.119,0.289l0 4.398c0,0.114 -0.047,0.218 -0.122,0.294l-0.001 0c-0.075,0.075 -0.179,0.122 -0.293,0.122l-6.949 0c-0.114,0 -0.218,-0.047 -0.293,-0.122 -0.075,-0.075 -0.122,-0.179 -0.122,-0.294l0 -4.398c0,-0.114 0.047,-0.218 0.122,-0.293 0.075,-0.075 0.179,-0.122 0.293,-0.122zm6.949 0.127l-6.949 0c-0.079,0 -0.151,0.033 -0.203,0.085 -0.052,0.052 -0.085,0.124 -0.085,0.203l0 4.398c0,0.08 0.033,0.152 0.085,0.204 0.052,0.052 0.124,0.084 0.203,0.084l6.949 0c0.079,0 0.151,-0.032 0.203,-0.084 0.053,-0.052 0.085,-0.124 0.085,-0.204l0 -4.398c0,-0.077 -0.031,-0.148 -0.081,-0.2l-0.004 -0.003c-0.052,-0.052 -0.124,-0.085 -0.203,-0.085z"/>
    <path class="fil0" d="M8.405 2.798l0 -0.001c0,-0.127 -0.052,-0.242 -0.135,-0.325 -0.083,-0.084 -0.198,-0.135 -0.325,-0.135l-0.001 0c-0.128,0 -0.243,0.051 -0.326,0.134 -0.083,0.084 -0.134,0.198 -0.135,0.325l0.001 0.002c-0.001,0.127 0.051,0.242 0.134,0.326 0.083,0.083 0.198,0.134 0.325,0.135l0.001 -0.001c0.127,0.001 0.242,-0.051 0.326,-0.134 0.083,-0.083 0.135,-0.198 0.135,-0.325l0 -0.001zm0.127 -0.001l0 0.002c0,0.162 -0.066,0.309 -0.172,0.415 -0.107,0.106 -0.253,0.172 -0.416,0.172l-0.001 0c-0.162,0 -0.309,-0.066 -0.415,-0.173 -0.106,-0.106 -0.172,-0.253 -0.172,-0.415l0 -0.002c0.001,-0.162 0.066,-0.309 0.173,-0.415 0.106,-0.106 0.253,-0.172 0.415,-0.172l0.001 0c0.162,0.001 0.309,0.067 0.415,0.173 0.106,0.106 0.172,0.253 0.172,0.415l0 0z"/>
    <path class="fil0" d="M9.206 5.858c0.026,0.024 0.027,0.065 0.003,0.09 -0.024,0.026 -0.064,0.027 -0.09,0.003l-1.52 -1.42 -0.824 0.922 -2.649 -2.882 -1.508 1.665c-0.024,0.026 -0.064,0.028 -0.09,0.005 -0.026,-0.024 -0.028,-0.064 -0.004,-0.09l1.601 -1.769 2.649 2.881 0.817 -0.914 1.615 1.509z"/>
   </g>
   <rect class="fil1" width="11.734" height="6.632"/>
  </g>
 </g>
</svg>
