<?xml version="1.0" encoding="UTF-8"?>
<!DOCTYPE svg PUBLIC "-//W3C//DTD SVG 1.1//EN" "http://www.w3.org/Graphics/SVG/1.1/DTD/svg11.dtd">
<!-- Creator: CorelDRAW 2018 (64-Bit) -->
<svg xmlns="http://www.w3.org/2000/svg" xml:space="preserve" width="92px" height="52px" version="1.1" style="shape-rendering:geometricPrecision; text-rendering:geometricPrecision; image-rendering:optimizeQuality; fill-rule:evenodd; clip-rule:evenodd"
viewBox="0 0 91.976 51.986"
 xmlns:xlink="http://www.w3.org/1999/xlink">
 <defs>
  <style type="text/css">
   <![CDATA[
    .fil1 {fill:none}
    .fil0 {fill:#00D4E3;fill-rule:nonzero}
   ]]>
  </style>
 </defs>
 <g id="Layer_x0020_1">
  <metadata id="CorelCorpID_0Corel-Layer"/>
  <g id="_1443644813248">
   <g>
    <path class="fil0" d="M66.709 11.598c-3.193,2.963 -7.21,4.015 -10.553,4.889 -1.39,0.363 -2.661,0.695 -3.675,1.118l0 5.91c0,1.672 0.959,3.669 2.666,5.428 1.53,1.577 3.654,2.952 6.226,3.729 2.571,-0.777 4.695,-2.152 6.225,-3.729 1.707,-1.759 2.665,-3.756 2.665,-5.428l0 -6.015c-0.217,-0.189 -0.428,-0.349 -0.633,-0.506 -1.157,-0.88 -2.194,-1.669 -2.921,-5.396zm-10.803 3.924c3.462,-0.905 7.672,-2.006 10.764,-5.289 0.074,-0.077 0.172,-0.132 0.285,-0.15 0.272,-0.043 0.527,0.142 0.57,0.414 0.668,4.153 1.626,4.883 2.706,5.705 0.278,0.211 0.563,0.428 0.846,0.688 0.114,0.092 0.186,0.232 0.186,0.389l0 6.236c0,1.922 -1.06,4.176 -2.95,6.123 -1.666,1.717 -3.986,3.208 -6.796,4.031 -0.089,0.027 -0.187,0.029 -0.283,0.001 -2.813,-0.822 -5.135,-2.314 -6.802,-4.032 -1.89,-1.948 -2.95,-4.201 -2.95,-6.123l0 -6.236c0.002,-0.188 0.11,-0.369 0.293,-0.452 1.138,-0.522 2.56,-0.895 4.131,-1.305z"/>
    <path class="fil0" d="M70.763 23.22c-0.276,0 -0.5,-0.224 -0.5,-0.5 0,-0.276 0.224,-0.5 0.5,-0.5 0.449,0 0.855,-0.185 1.147,-0.484 0.297,-0.304 0.481,-0.725 0.481,-1.192 0,-0.466 -0.184,-0.888 -0.481,-1.191 -0.292,-0.3 -0.698,-0.485 -1.147,-0.485 -0.276,0 -0.5,-0.224 -0.5,-0.5 0,-0.276 0.224,-0.5 0.5,-0.5 0.726,0 1.385,0.302 1.862,0.79 0.473,0.484 0.766,1.151 0.766,1.886 0,0.736 -0.293,1.403 -0.766,1.886 -0.477,0.488 -1.136,0.79 -1.862,0.79z"/>
    <path class="fil0" d="M51.982 22.22c0.276,0 0.499,0.224 0.499,0.5 0,0.276 -0.223,0.5 -0.499,0.5 -0.727,0 -1.385,-0.302 -1.862,-0.79 -0.473,-0.483 -0.766,-1.15 -0.766,-1.886 0,-0.735 0.293,-1.402 0.766,-1.886 0.477,-0.488 1.135,-0.79 1.862,-0.79 0.276,0 0.499,0.224 0.499,0.5 0,0.276 -0.223,0.5 -0.499,0.5 -0.449,0 -0.855,0.185 -1.148,0.485 -0.296,0.303 -0.48,0.725 -0.48,1.191 0,0.467 0.184,0.888 0.48,1.192 0.293,0.299 0.699,0.484 1.148,0.484z"/>
    <path class="fil0" d="M55.505 37.583c0.177,0.21 0.151,0.525 -0.059,0.703 -0.21,0.177 -0.525,0.151 -0.703,-0.059 -1.855,-2.192 -3.77,-5.012 -5.13,-8.4 -1.078,-2.681 -1.807,-5.72 -1.885,-9.084 -0.007,-0.32 -0.004,-0.642 0.009,-0.963 0.145,-3.632 1.556,-7.522 3.868,-10.525 2.336,-3.034 5.595,-5.173 9.411,-5.26 0.223,-0.005 0.446,-0.003 0.667,0.005 4.318,0.173 8.233,1.856 10.994,5.1 2.48,2.913 4.019,7.077 4.065,12.522 0.029,3.493 -0.663,6.895 -1.758,10.062 -1.353,3.911 -3.322,7.464 -5.304,10.387 -1.148,1.692 -2.045,3.277 -2.158,4.767 -0.109,1.431 0.527,2.83 2.413,4.251 0.22,0.166 0.264,0.48 0.098,0.699 -0.105,0.139 -0.269,0.208 -0.431,0.197 -1.151,-0.077 -3.18,-0.336 -4.904,-1.394 -1.769,-1.084 -3.202,-2.976 -3.055,-6.289 0.141,-3.154 1.063,-4.439 2,-5.745 0.661,-0.921 1.331,-1.855 1.682,-3.564 0.103,-0.502 0.18,-1.078 0.224,-1.747 0.044,-0.676 0.053,-1.441 0.019,-2.311 -0.011,-0.275 0.203,-0.506 0.478,-0.517 0.275,-0.011 0.507,0.203 0.517,0.478 0.036,0.914 0.027,1.712 -0.019,2.413 -0.046,0.709 -0.13,1.331 -0.243,1.883 -0.395,1.925 -1.125,2.943 -1.846,3.947 -0.851,1.186 -1.688,2.354 -1.816,5.206 -0.127,2.861 1.083,4.479 2.578,5.395 0.925,0.567 1.964,0.878 2.876,1.052 -1.244,-1.311 -1.672,-2.647 -1.567,-4.028 0.13,-1.708 1.096,-3.431 2.33,-5.251 1.94,-2.862 3.866,-6.336 5.187,-10.153 1.061,-3.068 1.731,-6.359 1.703,-9.73 -0.044,-5.194 -1.493,-9.144 -3.826,-11.886 -2.57,-3.019 -6.23,-4.586 -10.276,-4.748 -0.207,-0.008 -0.41,-0.01 -0.609,-0.005 -3.48,0.079 -6.476,2.061 -8.641,4.873 -2.188,2.843 -3.524,6.523 -3.662,9.956 -0.011,0.306 -0.014,0.608 -0.008,0.904 0.074,3.229 0.777,6.151 1.814,8.732 1.315,3.273 3.169,6.002 4.967,8.127z"/>
    <path class="fil0" d="M56.053 31.211c-0.088,-0.26 0.053,-0.543 0.314,-0.63 0.261,-0.088 0.543,0.053 0.631,0.314 1.265,3.756 0.281,6.088 -1.81,7.586 -1.999,1.432 -5.009,2.04 -7.98,2.412 -0.624,0.078 -1.241,0.142 -1.796,0.198 -3.005,0.308 -3.988,0.409 -6.852,3.79 -0.178,0.21 -0.493,0.236 -0.703,0.058 -0.21,-0.178 -0.236,-0.493 -0.059,-0.703 3.125,-3.686 4.206,-3.798 7.513,-4.136 0.502,-0.052 1.065,-0.11 1.776,-0.199 2.835,-0.355 5.693,-0.923 7.52,-2.232 1.734,-1.243 2.536,-3.22 1.446,-6.458z"/>
    <path class="fil0" d="M70.706 39.928c-0.263,-0.079 -0.412,-0.358 -0.332,-0.621 0.08,-0.263 0.358,-0.411 0.621,-0.331 0.71,0.216 1.471,0.393 2.257,0.541 0.775,0.145 1.587,0.264 2.405,0.367 0.711,0.088 1.274,0.147 1.777,0.198 3.306,0.339 4.388,0.451 7.512,4.137 0.178,0.21 0.152,0.525 -0.058,0.702 -0.21,0.178 -0.525,0.152 -0.703,-0.058 -2.864,-3.38 -3.848,-3.481 -6.852,-3.789 -0.556,-0.057 -1.172,-0.121 -1.797,-0.199 -0.816,-0.102 -1.645,-0.224 -2.468,-0.378 -0.812,-0.153 -1.606,-0.339 -2.362,-0.569z"/>
    <path class="fil0" d="M65.579 31.416c0.076,-0.265 0.352,-0.417 0.617,-0.34 0.264,0.076 0.416,0.353 0.339,0.617 -0.19,0.659 -0.299,1.266 -0.334,1.823 -0.034,0.545 0.002,1.038 0.1,1.482 0.059,0.268 -0.11,0.534 -0.378,0.593 -0.269,0.059 -0.535,-0.11 -0.594,-0.379 -0.119,-0.538 -0.163,-1.123 -0.124,-1.759 0.04,-0.623 0.161,-1.301 0.374,-2.037z"/>
    <path class="fil0" d="M67.286 46.789c-0.271,0.051 -0.532,-0.128 -0.582,-0.398 -0.05,-0.27 0.128,-0.531 0.398,-0.582 2.316,-0.438 4.48,-1.135 6.423,-2.043 1.968,-0.92 3.714,-2.059 5.166,-3.366 0.205,-0.185 0.521,-0.168 0.705,0.037 0.184,0.204 0.168,0.52 -0.037,0.705 -1.521,1.369 -3.35,2.562 -5.413,3.526 -2.02,0.944 -4.264,1.668 -6.66,2.121z"/>
    <path class="fil0" d="M43.385 41.159c-0.204,-0.184 -0.221,-0.5 -0.037,-0.705 0.184,-0.204 0.5,-0.221 0.705,-0.037 2.04,1.832 4.663,3.333 7.674,4.365 2.908,0.997 6.178,1.557 9.635,1.557l0.471 -0.001 0.471 -0.011c0.275,-0.008 0.504,0.209 0.512,0.484 0.007,0.275 -0.21,0.504 -0.485,0.512l-0.969 0.016c-3.569,0 -6.949,-0.58 -9.959,-1.612 -3.138,-1.076 -5.877,-2.646 -8.018,-4.568z"/>
    <path class="fil0" d="M23.347 25.717c-0.087,-0.261 0.054,-0.544 0.314,-0.631 0.261,-0.087 0.544,0.054 0.631,0.314 1.141,3.387 0.251,5.492 -1.637,6.845 -1.797,1.288 -4.498,1.833 -7.162,2.167 -0.553,0.069 -1.109,0.126 -1.608,0.177 -2.671,0.274 -3.545,0.364 -6.094,3.371 -0.177,0.21 -0.493,0.236 -0.703,0.058 -0.21,-0.177 -0.236,-0.493 -0.058,-0.703 2.808,-3.313 3.781,-3.413 6.754,-3.718 0.447,-0.045 0.947,-0.097 1.588,-0.177 2.529,-0.317 5.077,-0.823 6.701,-1.987 1.533,-1.099 2.24,-2.848 1.274,-5.716z"/>
    <path class="fil0" d="M34.057 25.4c0.087,-0.26 0.37,-0.401 0.631,-0.314 0.26,0.087 0.401,0.37 0.314,0.631 -0.966,2.867 -0.259,4.617 1.274,5.716 1.624,1.164 4.172,1.67 6.701,1.987 0.641,0.08 1.141,0.132 1.588,0.177 2.973,0.305 3.946,0.405 6.754,3.718 0.178,0.21 0.152,0.526 -0.058,0.703 -0.21,0.178 -0.526,0.152 -0.703,-0.058 -2.548,-3.007 -3.423,-3.097 -6.094,-3.371 -0.499,-0.051 -1.055,-0.108 -1.608,-0.177 -2.664,-0.334 -5.365,-0.879 -7.162,-2.167 -1.888,-1.353 -2.778,-3.458 -1.637,-6.845z"/>
    <path class="fil0" d="M38.079 14.066l0.001 5.491c0,0.87 -0.236,1.763 -0.623,2.634 -0.435,0.985 -1.067,1.946 -1.763,2.811 -0.886,1.101 -1.93,2.058 -3.087,2.724 -1.058,0.608 -2.21,0.973 -3.423,0.984l-0.007 0c-1.213,-0.011 -2.365,-0.376 -3.423,-0.984 -1.157,-0.666 -2.201,-1.623 -3.087,-2.724 -0.697,-0.866 -1.328,-1.827 -1.764,-2.811 -0.386,-0.871 -0.622,-1.765 -0.622,-2.634l0.003 -5.628c0.017,-1.064 0.205,-2.219 0.493,-3.242 0.303,-1.078 0.725,-2.029 1.186,-2.602 0.872,-1.081 1.843,-1.597 3.063,-1.776 1.154,-0.17 2.509,-0.026 4.228,0.215 1.891,0.265 4.178,0.885 5.903,1.711 1.508,0.723 2.616,1.633 2.771,2.664 0.048,0.322 0.095,0.929 0.124,1.558 0.028,0.583 0.04,1.191 0.027,1.609zm-0.999 5.491l0.002 -5.508c0.013,-0.388 0.001,-0.974 -0.026,-1.545 -0.027,-0.59 -0.071,-1.159 -0.116,-1.46 -0.098,-0.657 -0.988,-1.324 -2.212,-1.911 -1.63,-0.781 -3.805,-1.368 -5.61,-1.621 -1.634,-0.229 -2.914,-0.367 -3.947,-0.215 -0.967,0.142 -1.737,0.552 -2.431,1.413 -0.376,0.467 -0.734,1.29 -1.003,2.246 -0.267,0.951 -0.441,2.016 -0.457,2.987l0.001 5.614c0,0.722 0.203,1.481 0.536,2.232 0.399,0.9 0.982,1.787 1.627,2.589 0.815,1.012 1.764,1.886 2.806,2.485 0.914,0.525 1.901,0.841 2.93,0.851 1.029,-0.01 2.017,-0.326 2.931,-0.851 1.041,-0.599 1.991,-1.473 2.806,-2.485 0.645,-0.802 1.228,-1.688 1.627,-2.589 0.333,-0.751 0.536,-1.51 0.536,-2.232z"/>
    <path class="fil0" d="M37.58 19.347c-0.276,0 -0.5,-0.224 -0.5,-0.5 0,-0.276 0.224,-0.5 0.5,-0.5 0.386,0 0.736,-0.16 0.988,-0.418 0.256,-0.262 0.415,-0.626 0.415,-1.029 0,-0.403 -0.159,-0.767 -0.415,-1.029 -0.254,-0.258 -0.603,-0.417 -0.988,-0.417 -0.276,0 -0.5,-0.224 -0.5,-0.5 0,-0.276 0.224,-0.5 0.5,-0.5 0.664,0 1.265,0.275 1.7,0.72l0.003 0.002c0.432,0.442 0.699,1.052 0.699,1.724 0,0.672 -0.267,1.282 -0.699,1.724 -0.437,0.446 -1.039,0.723 -1.703,0.723z"/>
    <path class="fil0" d="M20.781 18.347c0.276,0 0.5,0.224 0.5,0.5 0,0.276 -0.224,0.5 -0.5,0.5 -0.664,0 -1.267,-0.277 -1.703,-0.723 -0.432,-0.442 -0.7,-1.052 -0.7,-1.724 0,-0.672 0.268,-1.282 0.7,-1.724l0.003 -0.002c0.434,-0.445 1.036,-0.72 1.7,-0.72 0.276,0 0.5,0.224 0.5,0.5 0,0.276 -0.224,0.5 -0.5,0.5 -0.385,0 -0.735,0.159 -0.988,0.416 -0.256,0.263 -0.415,0.627 -0.415,1.03 0,0.403 0.159,0.767 0.415,1.029 0.252,0.258 0.602,0.418 0.988,0.418z"/>
    <path class="fil0" d="M20.734 14.559c0.058,0.269 -0.113,0.535 -0.382,0.593 -0.27,0.058 -0.536,-0.113 -0.594,-0.382 -0.088,-0.405 -0.211,-0.831 -0.34,-1.275 -0.637,-2.203 -1.397,-4.832 0.962,-6.38 0.037,-2.475 1.079,-3.997 2.523,-4.91 1.409,-0.891 3.188,-1.174 4.759,-1.2l0.399 -0.001c2.371,0.023 5.104,0.704 7.31,1.989 1.919,1.119 3.453,2.697 4.042,4.705l0.007 0.028c0.549,1.921 -0.125,5.041 -0.618,7.325l-0.009 0.04c-0.057,0.269 -0.322,0.441 -0.592,0.384 -0.269,-0.057 -0.441,-0.322 -0.384,-0.591l0.009 -0.044c0.471,-2.183 1.116,-5.168 0.635,-6.845l-0.005 -0.016c-0.509,-1.738 -1.872,-3.125 -3.585,-4.123 -2.059,-1.199 -4.607,-1.835 -6.818,-1.856l-0.375 0.001c-1.421,0.024 -3.016,0.271 -4.244,1.047 -1.184,0.749 -2.038,2.021 -2.059,4.12l0.001 0.189c0.014,0.186 -0.077,0.372 -0.25,0.471 -1.982,1.134 -1.31,3.455 -0.751,5.39 0.138,0.479 0.271,0.937 0.359,1.341z"/>
    <path class="fil0" d="M23.789 30.162c-0.241,-0.132 -0.33,-0.436 -0.197,-0.677 0.132,-0.242 0.436,-0.33 0.677,-0.197l5.152 2.844c0.228,0.126 0.319,0.404 0.216,0.638l-1.632 3.683c-0.111,0.252 -0.406,0.367 -0.658,0.256 -0.067,-0.03 -0.124,-0.072 -0.17,-0.123l-4.768 -4.702c-0.196,-0.193 -0.198,-0.509 -0.006,-0.705 0.193,-0.196 0.509,-0.198 0.705,-0.006l4.276 4.217 1.155 -2.605 -4.75 -2.623z"/>
    <path class="fil0" d="M34.092 29.288c0.242,-0.133 0.545,-0.045 0.678,0.197 0.132,0.241 0.044,0.545 -0.197,0.677l-4.751 2.623 1.155 2.605 4.276 -4.217c0.196,-0.192 0.512,-0.19 0.705,0.006 0.193,0.196 0.19,0.512 -0.006,0.705l-4.768 4.702c-0.045,0.051 -0.103,0.093 -0.169,0.123 -0.253,0.111 -0.547,-0.004 -0.658,-0.256l-1.633 -3.682c-0.103,-0.235 -0.012,-0.513 0.217,-0.639l5.151 -2.844z"/>
   </g>
   <rect class="fil1" width="91.976" height="51.986"/>
  </g>
 </g>
</svg>
