<?xml version="1.0" encoding="UTF-8"?>
<!DOCTYPE svg PUBLIC "-//W3C//DTD SVG 1.1//EN" "http://www.w3.org/Graphics/SVG/1.1/DTD/svg11.dtd">
<!-- Creator: CorelDRAW 2018 (64-Bit) -->
<svg xmlns="http://www.w3.org/2000/svg" xml:space="preserve" width="92px" height="52px" version="1.1" style="shape-rendering:geometricPrecision; text-rendering:geometricPrecision; image-rendering:optimizeQuality; fill-rule:evenodd; clip-rule:evenodd"
viewBox="0 0 15.753 8.904"
 xmlns:xlink="http://www.w3.org/1999/xlink">
 <defs>
  <style type="text/css">
   <![CDATA[
    .fil1 {fill:none}
    .fil0 {fill:#00D4E3;fill-rule:nonzero}
   ]]>
  </style>
 </defs>
 <g id="Layer_x0020_1">
  <metadata id="CorelCorpID_0Corel-Layer"/>
  <g id="_1443273007600">
   <g>
    <path class="fil0" d="M3.457 4.125l0 -0.887c0,-0.228 0.096,-0.436 0.252,-0.586 0.155,-0.149 0.369,-0.242 0.603,-0.242l7.129 0c0.234,0 0.448,0.093 0.603,0.242 0.155,0.15 0.252,0.358 0.252,0.586l0 0.909c0,0.037 -0.025,0.069 -0.058,0.081 -0.615,0.229 -1.175,0.441 -1.724,0.649 -0.527,0.199 -1.044,0.395 -1.67,0.628 -0.049,0.018 -0.097,0.038 -0.145,0.056 -0.243,0.097 -0.457,0.182 -0.823,0.182 -0.365,0 -0.579,-0.085 -0.822,-0.181 -0.055,-0.022 -0.111,-0.044 -0.146,-0.057 -0.601,-0.224 -1.122,-0.427 -1.653,-0.633 -0.546,-0.212 -1.102,-0.428 -1.743,-0.667 -0.034,-0.013 -0.055,-0.045 -0.055,-0.08zm0.171 -0.887l-0.001 0.828c0.631,0.236 1.165,0.443 1.69,0.647 0.536,0.208 1.063,0.413 1.651,0.632 0.067,0.025 0.109,0.042 0.149,0.058 0.227,0.089 0.427,0.168 0.759,0.168 0.333,0 0.533,-0.079 0.761,-0.169 0.047,-0.018 0.095,-0.037 0.148,-0.057 0.576,-0.215 1.117,-0.42 1.669,-0.628 0.51,-0.193 1.03,-0.39 1.671,-0.629l0 -0.85c0,-0.18 -0.077,-0.344 -0.2,-0.463 -0.124,-0.119 -0.295,-0.194 -0.484,-0.194l-7.129 0c-0.189,0 -0.36,0.075 -0.484,0.194 -0.124,0.119 -0.2,0.283 -0.2,0.463z"/>
    <path class="fil0" d="M4.205 3.681c0,0.047 -0.038,0.086 -0.085,0.086 -0.047,0 -0.085,-0.039 -0.085,-0.086l0 -0.188c0,-0.153 0.067,-0.292 0.176,-0.392 0.108,-0.099 0.255,-0.16 0.417,-0.16l0.743 0c0.047,0 0.085,0.038 0.085,0.086 0,0.047 -0.038,0.085 -0.085,0.085l-0.743 0c-0.118,0 -0.224,0.044 -0.301,0.114 -0.075,0.069 -0.121,0.163 -0.121,0.267l-0.001 0.188z"/>
    <path class="fil0" d="M11.968 4.917c0,-0.047 0.039,-0.085 0.086,-0.085 0.047,0 0.086,0.038 0.086,0.085l0 3.159c0,0.227 -0.093,0.434 -0.243,0.584l-0.001 0.001c-0.15,0.15 -0.357,0.243 -0.584,0.243l-6.871 0c-0.228,0 -0.435,-0.093 -0.585,-0.243l-0.005 -0.006c-0.147,-0.149 -0.238,-0.354 -0.238,-0.579l0 -3.18c0,-0.048 0.038,-0.086 0.086,-0.086 0.047,0 0.085,0.038 0.085,0.086l0 3.18c0,0.179 0.072,0.341 0.189,0.459l0.004 0.004c0.119,0.12 0.283,0.193 0.464,0.193l6.871 0c0.181,0 0.345,-0.073 0.463,-0.192 0.12,-0.119 0.193,-0.283 0.193,-0.464l0 -3.159z"/>
    <path class="fil0" d="M11.367 6.906c0,-0.047 0.039,-0.085 0.086,-0.085 0.047,0 0.085,0.038 0.085,0.085l0 0.873c0,0.172 -0.07,0.328 -0.183,0.441 -0.113,0.113 -0.27,0.184 -0.441,0.184l-1.069 0c-0.047,0 -0.085,-0.039 -0.085,-0.086 0,-0.047 0.038,-0.086 0.085,-0.086l1.069 0c0.124,0 0.238,-0.051 0.32,-0.133 0.082,-0.082 0.133,-0.196 0.133,-0.32l0 -0.873z"/>
    <path class="fil0" d="M8.71 5.465c0,-0.047 0.038,-0.085 0.086,-0.085 0.047,0 0.085,0.038 0.085,0.085l0 1.174c0,0.047 -0.038,0.086 -0.085,0.086l-1.839 0c-0.047,0 -0.086,-0.039 -0.086,-0.086l0 -1.174c0,-0.047 0.039,-0.085 0.086,-0.085 0.047,0 0.086,0.038 0.086,0.085l0 1.088 1.667 0 0 -1.088z"/>
    <path class="fil0" d="M6.135 2.008c0,0.047 -0.038,0.085 -0.086,0.085 -0.047,0 -0.085,-0.038 -0.085,-0.085 0,-0.27 0.11,-0.515 0.287,-0.692 0.178,-0.178 0.423,-0.289 0.693,-0.289l1.865 0c0.269,0 0.514,0.111 0.692,0.289 0.177,0.177 0.288,0.422 0.288,0.692 0,0.047 -0.039,0.085 -0.086,0.085 -0.047,0 -0.086,-0.038 -0.086,-0.085 0,-0.223 -0.091,-0.425 -0.237,-0.572 -0.147,-0.146 -0.349,-0.237 -0.571,-0.237l-1.865 0c-0.223,0 -0.425,0.091 -0.572,0.237 -0.146,0.147 -0.237,0.349 -0.237,0.572z"/>
   </g>
   <rect class="fil1" width="15.753" height="8.904"/>
  </g>
 </g>
</svg>
