<?xml version="1.0" encoding="UTF-8"?>
<!DOCTYPE svg PUBLIC "-//W3C//DTD SVG 1.1//EN" "http://www.w3.org/Graphics/SVG/1.1/DTD/svg11.dtd">
<!-- Creator: CorelDRAW 2018 (64-Bit) -->
<svg xmlns="http://www.w3.org/2000/svg" xml:space="preserve" width="92px" height="52px" version="1.1" style="shape-rendering:geometricPrecision; text-rendering:geometricPrecision; image-rendering:optimizeQuality; fill-rule:evenodd; clip-rule:evenodd"
viewBox="0 0 15.753 8.904"
 xmlns:xlink="http://www.w3.org/1999/xlink">
 <defs>
  <style type="text/css">
   <![CDATA[
    .fil1 {fill:none}
    .fil0 {fill:#A3AEBA;fill-rule:nonzero}
   ]]>
  </style>
 </defs>
 <g id="Layer_x0020_1">
  <metadata id="CorelCorpID_0Corel-Layer"/>
  <g id="_1443273732400">
   <g>
    <path class="fil0" d="M6.28 5.299c0,-0.047 0.038,-0.086 0.085,-0.086 0.047,0 0.086,0.039 0.086,0.086l0 3.488c0,0.048 -0.039,0.086 -0.086,0.086 -0.047,0 -0.085,-0.038 -0.085,-0.086l0 -3.488z"/>
    <path class="fil0" d="M5.582 6.822c-0.047,0 -0.086,-0.039 -0.086,-0.086 0,-0.047 0.039,-0.086 0.086,-0.086l0.261 0c0.047,0 0.086,0.039 0.086,0.086 0,0.047 -0.039,0.086 -0.086,0.086l-0.261 0z"/>
    <path class="fil0" d="M9.82 8.065c-0.034,0.033 -0.088,0.033 -0.121,0 -0.034,-0.034 -0.034,-0.088 0,-0.121l1.566 -1.567c0.034,-0.033 0.088,-0.033 0.121,0 0.034,0.034 0.034,0.088 0,0.121l-1.566 1.567z"/>
    <path class="fil0" d="M10.603 8.063c-0.033,0.034 -0.088,0.034 -0.121,0 -0.033,-0.033 -0.033,-0.087 0,-0.121l0.783 -0.783c0.034,-0.033 0.088,-0.033 0.121,0 0.034,0.034 0.034,0.088 0,0.121l-0.783 0.783z"/>
    <path class="fil0" d="M12.987 3.822c0,0.255 -0.104,0.486 -0.27,0.653 -0.168,0.167 -0.398,0.27 -0.653,0.27 -0.248,0 -0.451,-0.083 -0.607,-0.233 -0.09,-0.086 -0.164,-0.194 -0.221,-0.32 -0.045,0.112 -0.113,0.211 -0.197,0.294 -0.166,0.162 -0.395,0.259 -0.65,0.259l-0.001 0c-0.254,0 -0.485,-0.103 -0.652,-0.27 -0.076,-0.076 -0.139,-0.165 -0.185,-0.264 -0.046,0.099 -0.109,0.188 -0.185,0.264 -0.166,0.167 -0.397,0.27 -0.651,0.27l-0.002 0c-0.254,0 -0.485,-0.103 -0.652,-0.27 -0.076,-0.076 -0.139,-0.165 -0.185,-0.264 -0.046,0.099 -0.108,0.188 -0.184,0.264 -0.167,0.167 -0.397,0.27 -0.652,0.27l-0.001 0c-0.255,0 -0.486,-0.103 -0.653,-0.27 -0.076,-0.076 -0.139,-0.165 -0.185,-0.264 -0.045,0.099 -0.108,0.188 -0.184,0.264 -0.167,0.167 -0.397,0.27 -0.651,0.27l-0.002 0c-0.254,0 -0.481,-0.095 -0.645,-0.253 -0.086,-0.083 -0.155,-0.183 -0.201,-0.296 -0.056,0.119 -0.131,0.225 -0.221,0.311 -0.158,0.149 -0.362,0.238 -0.607,0.238 -0.255,0 -0.486,-0.103 -0.653,-0.27 -0.167,-0.167 -0.271,-0.398 -0.271,-0.653 0,-0.012 0.003,-0.025 0.008,-0.036l0.885 -2.422c0.043,-0.116 0.095,-0.199 0.171,-0.254 0.077,-0.057 0.171,-0.083 0.296,-0.083l7.5 0c0.125,0 0.22,0.026 0.297,0.083 0.075,0.055 0.128,0.138 0.17,0.254l0.888 2.429c0.004,0.01 0.005,0.02 0.006,0.029zm-0.392 0.532c0.133,-0.133 0.217,-0.315 0.22,-0.518l-0.882 -2.414c-0.031,-0.084 -0.065,-0.141 -0.112,-0.175 -0.045,-0.034 -0.107,-0.048 -0.195,-0.048l-7.5 0c-0.087,0 -0.15,0.014 -0.195,0.048 -0.046,0.034 -0.08,0.091 -0.111,0.175l-0.883 2.414c0.004,0.203 0.087,0.385 0.22,0.518 0.136,0.136 0.325,0.22 0.533,0.22 0.199,0 0.363,-0.071 0.489,-0.191 0.138,-0.131 0.232,-0.321 0.275,-0.539 0.005,-0.043 0.041,-0.075 0.085,-0.075 0.047,0 0.085,0.038 0.085,0.085l0 0.002c0,0.206 0.081,0.386 0.213,0.513 0.133,0.128 0.319,0.205 0.527,0.205l0.002 0c0.206,0 0.394,-0.084 0.53,-0.22 0.136,-0.135 0.22,-0.323 0.22,-0.531l0 -0.001 0.171 0 0 0.001c0,0.208 0.084,0.396 0.22,0.531 0.136,0.136 0.324,0.22 0.532,0.22l0.001 0c0.207,0 0.395,-0.084 0.531,-0.22 0.135,-0.136 0.22,-0.323 0.22,-0.531l0 -0.001 0.171 0 0 0.001c0,0.208 0.084,0.396 0.22,0.531 0.136,0.136 0.324,0.22 0.531,0.22l0.002 0c0.207,0 0.394,-0.084 0.53,-0.22 0.136,-0.136 0.22,-0.323 0.22,-0.531l0 -0.001 0.171 0 0 0.001c0,0.208 0.084,0.395 0.22,0.531 0.137,0.136 0.325,0.22 0.532,0.22l0.001 0c0.209,0 0.396,-0.079 0.53,-0.21 0.132,-0.129 0.213,-0.31 0.213,-0.516 0,-0.04 0.028,-0.075 0.068,-0.083 0.047,-0.01 0.092,0.02 0.101,0.066 0.048,0.237 0.139,0.429 0.274,0.558 0.124,0.119 0.287,0.185 0.489,0.185 0.208,0 0.396,-0.084 0.531,-0.22z"/>
    <path class="fil0" d="M11.992 5.299c0,-0.047 0.039,-0.086 0.086,-0.086 0.047,0 0.086,0.039 0.086,0.086l0 3.229c0,0.103 -0.043,0.197 -0.111,0.265 -0.068,0.068 -0.162,0.111 -0.265,0.111l-7.823 0c-0.103,0 -0.197,-0.043 -0.265,-0.111 -0.069,-0.068 -0.111,-0.162 -0.111,-0.265l0 -3.229c0,-0.047 0.038,-0.086 0.086,-0.086 0.047,0 0.085,0.039 0.085,0.086l0 3.229c0,0.056 0.023,0.107 0.06,0.144 0.037,0.037 0.088,0.06 0.145,0.06l7.823 0c0.056,0 0.107,-0.023 0.144,-0.06 0.037,-0.037 0.06,-0.088 0.06,-0.144l0 -3.229z"/>
    <path class="fil0" d="M6.315 1.171c0.004,-0.047 0.045,-0.083 0.092,-0.079 0.047,0.003 0.082,0.044 0.079,0.092l-0.209 2.772c-0.003,0.047 -0.044,0.082 -0.091,0.079 -0.047,-0.003 -0.083,-0.045 -0.079,-0.092l0.208 -2.772z"/>
    <path class="fil0" d="M9.266 1.184c-0.003,-0.048 0.032,-0.089 0.079,-0.092 0.047,-0.004 0.088,0.032 0.092,0.079l0.208 2.772c0.003,0.047 -0.032,0.089 -0.079,0.092 -0.047,0.003 -0.088,-0.032 -0.092,-0.079l-0.208 -2.772z"/>
    <path class="fil0" d="M10.517 1.15c-0.01,-0.046 0.019,-0.091 0.065,-0.102 0.046,-0.01 0.091,0.019 0.102,0.065l0.629 2.772c0.01,0.046 -0.019,0.092 -0.064,0.102 -0.046,0.011 -0.092,-0.018 -0.102,-0.064l-0.63 -2.773z"/>
    <path class="fil0" d="M5.063 1.158c0.011,-0.046 0.056,-0.075 0.102,-0.064 0.046,0.01 0.075,0.056 0.065,0.102l-0.63 2.772c-0.01,0.046 -0.056,0.075 -0.102,0.065 -0.045,-0.011 -0.074,-0.056 -0.064,-0.102l0.629 -2.773z"/>
    <path class="fil0" d="M7.791 1.121c0,-0.047 0.038,-0.085 0.085,-0.085 0.048,0 0.086,0.038 0.086,0.085l0 2.868c0,0.047 -0.038,0.085 -0.086,0.085 -0.047,0 -0.085,-0.038 -0.085,-0.085l0 -2.868z"/>
   </g>
   <rect class="fil1" width="15.753" height="8.904"/>
  </g>
 </g>
</svg>
