<?xml version="1.0" encoding="UTF-8"?>
<!DOCTYPE svg PUBLIC "-//W3C//DTD SVG 1.1//EN" "http://www.w3.org/Graphics/SVG/1.1/DTD/svg11.dtd">
<!-- Creator: CorelDRAW 2018 (64-Bit) -->
<svg xmlns="http://www.w3.org/2000/svg" xml:space="preserve" width="93px" height="52px" version="1.1" style="shape-rendering:geometricPrecision; text-rendering:geometricPrecision; image-rendering:optimizeQuality; fill-rule:evenodd; clip-rule:evenodd"
viewBox="0 0 94.154 52.551"
 xmlns:xlink="http://www.w3.org/1999/xlink">
 <defs>
  <style type="text/css">
   <![CDATA[
    .fil1 {fill:none}
    .fil0 {fill:#A3AEBA;fill-rule:nonzero}
   ]]>
  </style>
 </defs>
 <g id="Layer_x0020_1">
  <metadata id="CorelCorpID_0Corel-Layer"/>
  <g id="_1443271021152">
   <g>
    <path class="fil0" d="M3.809 51.719c-0.279,0 -0.505,-0.226 -0.505,-0.505 0,-0.279 0.226,-0.506 0.505,-0.506l12.447 0c0.279,0 0.505,0.227 0.505,0.506 0,0.279 -0.226,0.505 -0.505,0.505l-12.447 0z"/>
    <path class="fil0" d="M18.568 32.456c0.24,-0.138 0.548,-0.055 0.686,0.186 0.139,0.24 0.056,0.548 -0.185,0.686l-3.572 2.063c-0.241,0.138 -0.549,0.055 -0.687,-0.186 -0.138,-0.24 -0.055,-0.548 0.185,-0.686l3.573 -2.063z"/>
    <path class="fil0" d="M14.993 34.519c0.241,-0.14 0.549,-0.058 0.689,0.183 0.14,0.241 0.057,0.549 -0.183,0.689 -1.005,0.58 -1.553,1.778 -1.625,3.24 -0.076,1.54 0.373,3.357 1.365,5.074 0.14,0.241 0.058,0.55 -0.183,0.689 -0.241,0.14 -0.549,0.057 -0.689,-0.183 -1.091,-1.891 -1.584,-3.906 -1.5,-5.628 0.089,-1.801 0.805,-3.301 2.126,-4.064z"/>
    <path class="fil0" d="M14.367 44.211c-0.139,-0.241 -0.057,-0.549 0.184,-0.689 0.24,-0.139 0.549,-0.057 0.688,0.183l0.014 0.024 11.16 -6.443 -0.013 -0.022c-0.139,-0.241 -0.057,-0.55 0.183,-0.689 0.241,-0.14 0.55,-0.057 0.689,0.183l0.265 0.459c0.138,0.242 0.055,0.55 -0.185,0.688l-12.031 6.947c-0.241,0.14 -0.549,0.058 -0.689,-0.183l-0.265 -0.458z"/>
    <path class="fil0" d="M27.286 36.785c0.124,0.249 0.023,0.552 -0.225,0.676 -0.24,0.119 -0.529,0.03 -0.661,-0.199 -0.993,-1.719 -2.341,-3.016 -3.711,-3.719 -1.286,-0.661 -2.581,-0.791 -3.581,-0.237 -0.197,0.138 -0.471,0.119 -0.647,-0.056 -0.197,-0.198 -0.197,-0.518 0,-0.715 0.032,-0.029 0.068,-0.056 0.107,-0.079 1.321,-0.762 2.976,-0.632 4.579,0.191 1.535,0.788 3.034,2.222 4.124,4.11l0.015 0.028z"/>
    <path class="fil0" d="M15.008 28.643c0.24,-0.14 0.549,-0.058 0.688,0.183 0.14,0.241 0.058,0.549 -0.183,0.689l-1.538 0.888c-0.241,0.139 -0.549,0.057 -0.689,-0.184 -0.139,-0.24 -0.057,-0.549 0.184,-0.688l1.538 -0.888z"/>
    <path class="fil0" d="M13.47 29.531c0.24,-0.14 0.549,-0.058 0.688,0.183 0.14,0.241 0.058,0.549 -0.183,0.689 -0.312,0.18 -0.419,0.726 -0.34,1.461 0.093,0.871 0.46,1.946 1.077,3.015 0.139,0.241 0.057,0.549 -0.184,0.689 -0.24,0.139 -0.549,0.057 -0.688,-0.184 -0.689,-1.193 -1.101,-2.411 -1.208,-3.413 -0.122,-1.137 0.148,-2.042 0.838,-2.44z"/>
    <path class="fil0" d="M13.84 35.382c-0.139,-0.24 -0.056,-0.548 0.185,-0.686 0.188,-0.109 0.418,-0.081 0.575,0.051l4.361 -2.518c-0.036,-0.203 0.056,-0.416 0.245,-0.524 0.241,-0.139 0.548,-0.056 0.687,0.185l0.165 0.287c0.139,0.241 0.056,0.549 -0.185,0.687l-5.181 2.991c-0.24,0.138 -0.548,0.055 -0.686,-0.185l-0.166 -0.288z"/>
    <path class="fil0" d="M19.893 31.888c0.139,0.241 0.057,0.549 -0.184,0.689 -0.24,0.139 -0.549,0.057 -0.688,-0.184 -0.619,-1.071 -1.367,-1.927 -2.073,-2.442 -0.597,-0.436 -1.125,-0.617 -1.437,-0.436 -0.241,0.138 -0.548,0.055 -0.687,-0.186 -0.138,-0.24 -0.055,-0.548 0.186,-0.686 0.688,-0.398 1.607,-0.179 2.53,0.495 0.815,0.594 1.665,1.559 2.353,2.75z"/>
    <path class="fil0" d="M5.322 37.214c-0.44,0 -0.838,0.179 -1.126,0.466 -0.288,0.288 -0.466,0.687 -0.466,1.127 0,0.439 0.178,0.838 0.466,1.126 0.288,0.288 0.686,0.466 1.126,0.466 0.44,0 0.839,-0.178 1.126,-0.466 0.288,-0.288 0.467,-0.687 0.467,-1.126 0,-0.44 -0.179,-0.839 -0.467,-1.127 -0.287,-0.287 -0.686,-0.466 -1.126,-0.466zm-1.841 -0.248c0.471,-0.471 1.123,-0.763 1.841,-0.763 0.719,0 1.37,0.292 1.841,0.763 0.471,0.471 0.763,1.122 0.763,1.841 0,0.718 -0.292,1.369 -0.763,1.84 -0.471,0.471 -1.122,0.763 -1.841,0.763 -0.718,0 -1.37,-0.292 -1.841,-0.763 -0.47,-0.471 -0.762,-1.122 -0.762,-1.84 0,-0.719 0.292,-1.37 0.762,-1.841z"/>
    <path class="fil0" d="M13.19 32.881c0.238,-0.143 0.549,-0.066 0.692,0.172 0.144,0.239 0.067,0.549 -0.171,0.693l-6.645 4.009c-0.239,0.144 -0.549,0.067 -0.693,-0.171 -0.143,-0.239 -0.066,-0.549 0.172,-0.693l6.645 -4.01z"/>
    <path class="fil0" d="M5.941 41.01c-0.098,-0.26 0.033,-0.551 0.294,-0.649 0.26,-0.098 0.551,0.034 0.649,0.294l3.905 10.381c0.098,0.26 -0.033,0.551 -0.294,0.649 -0.26,0.098 -0.551,-0.033 -0.649,-0.294l-3.905 -10.381z"/>
    <path class="fil0" d="M24.952 30.193c0,0.279 -0.227,0.506 -0.506,0.506 -0.279,0 -0.505,-0.227 -0.505,-0.506l0 -19.821c0,-0.648 0.266,-1.238 0.692,-1.665 0.43,-0.429 1.019,-0.694 1.667,-0.694l48.175 0c0.649,0 1.24,0.265 1.666,0.692 0.428,0.427 0.693,1.018 0.693,1.667l0 31.242c0,0.648 -0.266,1.238 -0.693,1.665 -0.429,0.428 -1.018,0.694 -1.666,0.694l-48.175 0c-0.324,0 -0.636,-0.068 -0.921,-0.189 -0.294,-0.126 -0.558,-0.309 -0.777,-0.536 -0.192,-0.201 -0.186,-0.52 0.014,-0.713 0.201,-0.193 0.52,-0.186 0.713,0.014 0.125,0.13 0.276,0.235 0.445,0.307 0.16,0.068 0.338,0.106 0.526,0.106l48.175 0c0.371,0 0.709,-0.151 0.953,-0.395 0.244,-0.244 0.395,-0.582 0.395,-0.953l0 -31.242c0,-0.371 -0.152,-0.708 -0.396,-0.952 -0.244,-0.244 -0.582,-0.396 -0.952,-0.396l-48.175 0c-0.371,0 -0.709,0.151 -0.953,0.395 -0.244,0.244 -0.395,0.582 -0.395,0.953l0 19.821z"/>
    <path class="fil0" d="M39.147 51.719c-0.279,0 -0.505,-0.226 -0.505,-0.505 0,-0.279 0.226,-0.506 0.505,-0.506l22.482 0c0.279,0 0.505,0.227 0.505,0.506 0,0.279 -0.226,0.505 -0.505,0.505l-22.482 0z"/>
    <path class="fil0" d="M43.51 50.418c0,0.279 -0.226,0.506 -0.505,0.506 -0.279,0 -0.506,-0.227 -0.506,-0.506l0 -6.95c0,-0.279 0.227,-0.505 0.506,-0.505 0.279,0 0.505,0.226 0.505,0.505l0 6.95z"/>
    <path class="fil0" d="M58.277 50.418c0,0.279 -0.226,0.506 -0.505,0.506 -0.279,0 -0.506,-0.227 -0.506,-0.506l0 -6.95c0,-0.279 0.227,-0.505 0.506,-0.505 0.279,0 0.505,0.226 0.505,0.505l0 6.95z"/>
    <path class="fil0" d="M81.508 47.503c-0.025,-0.277 0.179,-0.522 0.456,-0.547 0.277,-0.025 0.522,0.179 0.547,0.456l0.39 4.321c0.025,0.277 -0.179,0.522 -0.456,0.547 -0.276,0.024 -0.521,-0.18 -0.546,-0.457l-0.391 -4.32z"/>
    <path class="fil0" d="M81.899 51.822c-0.024,-0.277 0.181,-0.521 0.457,-0.545 0.222,-0.019 0.423,0.109 0.507,0.303 0.182,0.076 0.31,0.256 0.31,0.466 0,0.279 -0.226,0.505 -0.505,0.505 -0.212,0 -0.399,-0.086 -0.537,-0.224 -0.129,-0.129 -0.215,-0.311 -0.232,-0.505z"/>
    <path class="fil0" d="M82.668 52.551c-0.279,0 -0.505,-0.226 -0.505,-0.505 0,-0.279 0.226,-0.505 0.505,-0.505l5.334 0c0.279,0 0.505,0.226 0.505,0.505 0,0.279 -0.226,0.505 -0.505,0.505l-5.334 0z"/>
    <path class="fil0" d="M88.002 52.551c-0.279,0 -0.506,-0.226 -0.506,-0.505 0,-0.209 0.127,-0.388 0.308,-0.465 0.083,-0.196 0.286,-0.325 0.509,-0.306 0.278,0.024 0.484,0.269 0.46,0.547 -0.017,0.195 -0.103,0.374 -0.234,0.505 -0.138,0.138 -0.325,0.224 -0.537,0.224z"/>
    <path class="fil0" d="M88.771 51.823c-0.025,0.277 -0.27,0.481 -0.547,0.457 -0.276,-0.025 -0.481,-0.27 -0.456,-0.547l0.391 -4.321c0.025,-0.277 0.27,-0.481 0.547,-0.456 0.276,0.025 0.48,0.27 0.456,0.547l-0.391 4.32z"/>
    <path class="fil0" d="M89.342 44.8c0.279,0 0.505,0.226 0.505,0.505 0,0.279 -0.226,0.505 -0.505,0.505l-8.015 0c-0.279,0 -0.505,-0.226 -0.505,-0.505 0,-0.279 0.226,-0.505 0.505,-0.505l8.015 0z"/>
    <path class="fil0" d="M81.3 44.802c0.278,-0.016 0.516,0.197 0.531,0.475 0.012,0.218 -0.117,0.412 -0.307,0.492 -0.073,0.171 -0.237,0.296 -0.435,0.307 -0.273,0.016 -0.508,-0.188 -0.532,-0.458l-0.004 -0.069c0,-0.205 0.088,-0.388 0.224,-0.522 0.122,-0.12 0.289,-0.203 0.468,-0.222l0.055 -0.003z"/>
    <path class="fil0" d="M80.558 45.626c-0.029,-0.277 0.172,-0.525 0.448,-0.555 0.277,-0.029 0.526,0.172 0.555,0.448l0.156 1.429c0.03,0.277 -0.171,0.526 -0.448,0.555 -0.276,0.029 -0.525,-0.171 -0.554,-0.448l-0.157 -1.429z"/>
    <path class="fil0" d="M80.715 47.055c-0.03,-0.277 0.171,-0.525 0.448,-0.555 0.225,-0.023 0.432,0.105 0.517,0.304 0.182,0.076 0.309,0.256 0.309,0.466 0,0.279 -0.226,0.505 -0.505,0.505 -0.19,0 -0.359,-0.069 -0.491,-0.183l-0.045 -0.04c-0.129,-0.129 -0.213,-0.307 -0.233,-0.497z"/>
    <path class="fil0" d="M81.484 47.775c-0.279,0 -0.505,-0.226 -0.505,-0.505 0,-0.279 0.226,-0.506 0.505,-0.506l7.701 0c0.279,0 0.506,0.227 0.506,0.506 0,0.279 -0.227,0.505 -0.506,0.505l-7.701 0z"/>
    <path class="fil0" d="M89.185 47.775c-0.279,0 -0.505,-0.226 -0.505,-0.505 0,-0.21 0.128,-0.39 0.309,-0.466 0.085,-0.199 0.293,-0.329 0.52,-0.304 0.277,0.031 0.476,0.28 0.446,0.557 -0.021,0.188 -0.104,0.363 -0.233,0.493 -0.14,0.139 -0.324,0.225 -0.537,0.225z"/>
    <path class="fil0" d="M89.955 47.055c-0.029,0.277 -0.278,0.477 -0.555,0.448 -0.277,-0.029 -0.477,-0.278 -0.448,-0.555l0.157 -1.429c0.029,-0.276 0.277,-0.477 0.554,-0.448 0.277,0.03 0.477,0.278 0.448,0.555l-0.156 1.429z"/>
    <path class="fil0" d="M90.113 45.596c-0.013,0.278 -0.249,0.493 -0.527,0.48 -0.2,-0.009 -0.367,-0.134 -0.44,-0.307 -0.19,-0.08 -0.32,-0.273 -0.308,-0.492 0.016,-0.278 0.253,-0.491 0.531,-0.475l0.056 0.003c0.177,0.019 0.346,0.101 0.467,0.222 0.137,0.134 0.224,0.317 0.224,0.522l-0.003 0.047z"/>
    <path class="fil0" d="M88.373 45.658c-0.208,0.184 -0.526,0.164 -0.71,-0.043 -0.184,-0.208 -0.165,-0.527 0.043,-0.711 0.417,-0.368 0.761,-0.836 1.004,-1.372 0.237,-0.522 0.378,-1.107 0.396,-1.723 0.007,-0.278 0.239,-0.497 0.517,-0.49 0.278,0.008 0.497,0.239 0.489,0.517 -0.022,0.758 -0.194,1.473 -0.482,2.11 -0.302,0.665 -0.733,1.249 -1.257,1.712z"/>
    <path class="fil0" d="M89.603 42.326c-0.278,-0.003 -0.5,-0.232 -0.497,-0.51 0.003,-0.277 0.231,-0.5 0.509,-0.497l0.024 0c0.278,0.004 0.501,0.232 0.498,0.51 -0.003,0.278 -0.232,0.5 -0.51,0.497l-0.024 0z"/>
    <path class="fil0" d="M89.633 42.328c-0.279,0 -0.505,-0.226 -0.505,-0.505 0,-0.279 0.226,-0.506 0.505,-0.506 0.527,0 1.087,-0.195 1.566,-0.511 0.478,-0.316 0.868,-0.745 1.056,-1.21 0.073,-0.182 0.108,-0.353 0.108,-0.51 0,-0.173 -0.045,-0.325 -0.128,-0.446 -0.084,-0.123 -0.214,-0.224 -0.383,-0.292l-0.019 -0.008c-0.153,-0.058 -0.338,-0.09 -0.552,-0.09 -0.369,0 -0.755,0.096 -1.117,0.263l-0.025 0.011c-0.374,0.175 -0.721,0.424 -0.998,0.719 -0.191,0.202 -0.51,0.212 -0.713,0.021 -0.027,-0.025 -0.05,-0.053 -0.07,-0.082 -0.345,-0.506 -0.792,-0.921 -1.304,-1.204 -0.488,-0.27 -1.04,-0.421 -1.623,-0.421 -1.007,0 -1.921,0.453 -2.584,1.185 -0.674,0.745 -1.092,1.781 -1.092,2.929 0,0.633 0.126,1.229 0.35,1.76 0.232,0.548 0.571,1.031 0.987,1.415 0.205,0.189 0.218,0.508 0.029,0.713 -0.188,0.204 -0.507,0.218 -0.712,0.029 -0.519,-0.479 -0.942,-1.082 -1.232,-1.767 -0.277,-0.656 -0.433,-1.385 -0.433,-2.15 0,-1.403 0.519,-2.678 1.357,-3.604 0.85,-0.94 2.028,-1.521 3.33,-1.521 0.757,0 1.473,0.197 2.108,0.548 0.488,0.27 0.928,0.631 1.3,1.061 0.268,-0.214 0.564,-0.398 0.876,-0.544l0.027 -0.014c0.493,-0.227 1.024,-0.358 1.539,-0.358 0.34,0 0.65,0.058 0.921,0.163l0.029 0.011c0.355,0.143 0.639,0.37 0.837,0.658 0.199,0.29 0.306,0.636 0.306,1.015 0,0.279 -0.059,0.577 -0.183,0.885 -0.267,0.66 -0.797,1.253 -1.436,1.675 -0.641,0.421 -1.398,0.682 -2.122,0.682z"/>
    <path class="fil0" d="M82.759 37.055c-0.153,-0.232 -0.09,-0.545 0.142,-0.698 0.232,-0.154 0.545,-0.09 0.699,0.142l0.345 0.519c0.153,0.232 0.09,0.544 -0.142,0.698 -0.232,0.153 -0.545,0.09 -0.699,-0.142l-0.345 -0.519z"/>
    <path class="fil0" d="M80.235 40.543c-0.269,-0.072 -0.429,-0.349 -0.357,-0.618 0.072,-0.269 0.349,-0.43 0.618,-0.358l0.633 0.172c0.269,0.072 0.43,0.349 0.358,0.618 -0.072,0.269 -0.349,0.429 -0.618,0.357l-0.634 -0.171z"/>
    <path class="fil0" d="M81.088 38.547c-0.234,-0.15 -0.302,-0.463 -0.152,-0.697 0.151,-0.234 0.463,-0.302 0.697,-0.152l0.541 0.35c0.234,0.15 0.302,0.462 0.152,0.696 -0.151,0.234 -0.463,0.303 -0.697,0.152l-0.541 -0.349z"/>
    <path class="fil0" d="M80.348 42.623c-0.275,0.038 -0.53,-0.155 -0.568,-0.43 -0.038,-0.276 0.155,-0.531 0.43,-0.569l0.654 -0.09c0.275,-0.038 0.53,0.154 0.568,0.43 0.038,0.276 -0.155,0.53 -0.43,0.568l-0.654 0.091z"/>
    <path class="fil0" d="M81.015 44.538c-0.246,0.129 -0.552,0.035 -0.681,-0.211 -0.13,-0.246 -0.035,-0.552 0.211,-0.681l0.572 -0.304c0.247,-0.129 0.552,-0.035 0.681,0.211 0.13,0.246 0.035,0.552 -0.211,0.681l-0.572 0.304z"/>
    <path class="fil0" d="M87.393 36.516c0.154,-0.232 0.467,-0.295 0.699,-0.142 0.232,0.154 0.295,0.466 0.142,0.699l-0.345 0.518c-0.154,0.232 -0.467,0.296 -0.699,0.142 -0.232,-0.153 -0.295,-0.466 -0.142,-0.698l0.345 -0.519z"/>
    <path class="fil0" d="M93.079 37.433c0.234,-0.15 0.546,-0.082 0.697,0.152 0.15,0.234 0.082,0.547 -0.152,0.697l-3.591 2.321c-0.234,0.15 -0.547,0.082 -0.697,-0.152 -0.15,-0.234 -0.082,-0.546 0.152,-0.697l3.591 -2.321z"/>
    <path class="fil0" d="M90.36 43.387c0.256,0.108 0.375,0.405 0.266,0.661 -0.109,0.256 -0.405,0.375 -0.661,0.266l-0.599 -0.256c-0.257,-0.109 -0.376,-0.405 -0.267,-0.661 0.109,-0.256 0.405,-0.375 0.661,-0.266l0.6 0.256z"/>
    <path class="fil0" d="M91.168 36.756c0.068,-0.27 0.342,-0.435 0.612,-0.367 0.27,0.067 0.434,0.341 0.367,0.611l-0.15 0.592c-0.068,0.27 -0.342,0.434 -0.612,0.367 -0.27,-0.067 -0.434,-0.341 -0.367,-0.611l0.15 -0.592z"/>
    <path class="fil0" d="M89.2 37.581c-0.154,-0.232 -0.09,-0.545 0.142,-0.699 0.232,-0.153 0.545,-0.09 0.698,0.142l0.345 0.519c0.154,0.232 0.09,0.545 -0.142,0.698 -0.232,0.154 -0.545,0.09 -0.698,-0.142l-0.345 -0.518z"/>
    <path class="fil0" d="M93.797 39.577c0.266,0.081 0.416,0.362 0.336,0.628 -0.081,0.266 -0.362,0.416 -0.628,0.335l-0.627 -0.192c-0.266,-0.08 -0.416,-0.361 -0.335,-0.627 0.08,-0.266 0.362,-0.416 0.627,-0.336l0.627 0.192z"/>
    <path class="fil0" d="M91.702 41.393c-0.154,-0.232 -0.09,-0.545 0.142,-0.698 0.232,-0.154 0.545,-0.09 0.698,0.142l0.345 0.518c0.154,0.232 0.09,0.545 -0.142,0.699 -0.232,0.153 -0.545,0.09 -0.698,-0.142l-0.345 -0.519z"/>
    <path class="fil0" d="M90.152 42.07c-0.063,-0.271 0.107,-0.541 0.378,-0.604 0.272,-0.062 0.542,0.108 0.604,0.379l0.137 0.595c0.062,0.271 -0.107,0.541 -0.379,0.603 -0.271,0.063 -0.541,-0.107 -0.603,-0.378l-0.137 -0.595z"/>
    <path class="fil0" d="M88.478 39.304c-0.224,-0.163 -0.274,-0.478 -0.111,-0.703 0.164,-0.224 0.479,-0.273 0.703,-0.11 0.217,0.158 0.479,0.619 0.679,1.32 0.143,0.502 0.276,1.161 0.361,1.958 0.03,0.277 -0.171,0.526 -0.448,0.555 -0.276,0.029 -0.525,-0.171 -0.554,-0.448 -0.079,-0.729 -0.2,-1.331 -0.33,-1.788 -0.137,-0.481 -0.246,-0.745 -0.3,-0.784z"/>
    <path class="fil0" d="M86.662 45.586c-0.155,0.231 -0.469,0.292 -0.7,0.137 -0.231,-0.156 -0.292,-0.47 -0.136,-0.701 0.214,-0.317 0.396,-0.791 0.524,-1.367 0.13,-0.579 0.204,-1.261 0.204,-1.997 0,-1.1 -0.167,-2.084 -0.437,-2.786 -0.214,-0.557 -0.455,-0.903 -0.67,-0.903 -0.216,0 -0.456,0.346 -0.67,0.903 -0.27,0.702 -0.437,1.686 -0.437,2.786 0,0.687 0.065,1.327 0.178,1.879 0.115,0.558 0.279,1.026 0.473,1.363 0.14,0.241 0.058,0.55 -0.183,0.689 -0.241,0.14 -0.549,0.057 -0.689,-0.183 -0.247,-0.428 -0.45,-1.002 -0.587,-1.668 -0.129,-0.627 -0.203,-1.336 -0.203,-2.08 0,-1.216 0.195,-2.33 0.508,-3.145 0.369,-0.96 0.935,-1.554 1.61,-1.554 0.675,0 1.241,0.594 1.61,1.554 0.314,0.816 0.508,1.929 0.508,3.145 0,0.798 -0.085,1.556 -0.232,2.214 -0.157,0.705 -0.39,1.298 -0.671,1.714z"/>
    <path class="fil0" d="M72.792 33.681c0,-0.279 0.226,-0.505 0.505,-0.505 0.279,0 0.506,0.226 0.506,0.505l0 5.164c0,0.576 -0.237,1.101 -0.616,1.481 -0.38,0.38 -0.905,0.616 -1.48,0.616l-10.385 0c-0.279,0 -0.506,-0.226 -0.506,-0.505 0,-0.279 0.227,-0.506 0.506,-0.506l10.385 0c0.297,0 0.568,-0.122 0.765,-0.319 0.197,-0.198 0.32,-0.469 0.32,-0.767l0 -5.164z"/>
    <path class="fil0" d="M27.983 16.486c0,0.279 -0.227,0.505 -0.506,0.505 -0.279,0 -0.505,-0.226 -0.505,-0.505l0 -3.346c0,-0.576 0.236,-1.101 0.616,-1.48 0.38,-0.38 0.904,-0.616 1.48,-0.616l6.444 0c0.279,0 0.505,0.226 0.505,0.505 0,0.279 -0.226,0.505 -0.505,0.505l-6.444 0c-0.297,0 -0.568,0.123 -0.766,0.32 -0.197,0.197 -0.319,0.469 -0.319,0.766l0 3.346z"/>
   </g>
   <rect class="fil1" width="92.976" height="52.551"/>
  </g>
 </g>
</svg>
