<?xml version="1.0" encoding="UTF-8"?>
<!DOCTYPE svg PUBLIC "-//W3C//DTD SVG 1.1//EN" "http://www.w3.org/Graphics/SVG/1.1/DTD/svg11.dtd">
<!-- Creator: CorelDRAW 2018 (64-Bit) -->
<svg xmlns="http://www.w3.org/2000/svg" xml:space="preserve" width="92px" height="52px" version="1.1" style="shape-rendering:geometricPrecision; text-rendering:geometricPrecision; image-rendering:optimizeQuality; fill-rule:evenodd; clip-rule:evenodd"
viewBox="0 0 11.734 6.632"
 xmlns:xlink="http://www.w3.org/1999/xlink">
 <defs>
  <style type="text/css">
   <![CDATA[
    .fil2 {fill:none}
    .fil1 {fill:#00D4E3}
    .fil0 {fill:#00D4E3;fill-rule:nonzero}
   ]]>
  </style>
 </defs>
 <g id="Layer_x0020_1">
  <metadata id="CorelCorpID_0Corel-Layer"/>
  <g id="_1443657398000">
   <g>
    <path class="fil0" d="M6.899 1.365c0.809,0 1.543,0.25 2.075,0.656 0.536,0.409 0.868,0.976 0.868,1.603 0,0.356 -0.107,0.693 -0.299,0.993 -0.191,0.3 -0.466,0.562 -0.801,0.768l0.095 1.178c0.003,0.035 -0.023,0.066 -0.058,0.069 -0.02,0.001 -0.038,-0.006 -0.05,-0.019l-0.857 -0.857c-0.148,0.04 -0.302,0.071 -0.46,0.092 -0.167,0.023 -0.339,0.035 -0.513,0.035 -0.809,0 -1.543,-0.251 -2.074,-0.656 -0.537,-0.409 -0.869,-0.976 -0.869,-1.603 0,-0.627 0.332,-1.194 0.869,-1.603 0.531,-0.406 1.265,-0.656 2.074,-0.656zm1.997 0.757c-0.51,-0.389 -1.216,-0.63 -1.997,-0.63 -0.781,0 -1.487,0.241 -1.997,0.63 -0.506,0.385 -0.818,0.916 -0.818,1.502 0,0.585 0.312,1.116 0.818,1.502 0.51,0.389 1.216,0.629 1.997,0.629 0.17,0 0.336,-0.011 0.496,-0.033 0.163,-0.022 0.322,-0.054 0.474,-0.097 0.023,-0.008 0.049,-0.003 0.067,0.015l0.76 0.761 -0.084 -1.045c-0.002,-0.023 0.01,-0.046 0.031,-0.059 0.334,-0.2 0.606,-0.455 0.793,-0.748 0.179,-0.28 0.279,-0.594 0.279,-0.925 0,-0.586 -0.313,-1.117 -0.819,-1.502z"/>
    <path class="fil0" d="M5.975 1.006c0.032,0.012 0.048,0.049 0.035,0.082 -0.013,0.033 -0.05,0.049 -0.082,0.036 -0.188,-0.075 -0.389,-0.134 -0.6,-0.173 -0.205,-0.038 -0.419,-0.058 -0.64,-0.058 -0.741,0 -1.41,0.228 -1.894,0.597 -0.479,0.365 -0.775,0.868 -0.775,1.423 0,0.314 0.095,0.611 0.264,0.876 0.177,0.277 0.435,0.52 0.751,0.709 0.022,0.013 0.033,0.036 0.031,0.059l-0.079 0.983 0.716 -0.716c0.018,-0.018 0.044,-0.023 0.066,-0.015 0.04,0.012 0.082,0.022 0.125,0.032 0.044,0.011 0.087,0.02 0.131,0.029 0.034,0.006 0.057,0.04 0.05,0.074 -0.006,0.035 -0.04,0.057 -0.074,0.051 -0.046,-0.009 -0.092,-0.019 -0.136,-0.03 -0.032,-0.007 -0.065,-0.016 -0.098,-0.024l-0.812 0.811c-0.013,0.013 -0.031,0.02 -0.05,0.019 -0.035,-0.003 -0.062,-0.034 -0.059,-0.069l0.09 -1.116c-0.317,-0.196 -0.578,-0.445 -0.759,-0.729 -0.182,-0.285 -0.285,-0.605 -0.285,-0.944 0,-0.597 0.316,-1.135 0.826,-1.524 0.505,-0.385 1.202,-0.624 1.971,-0.624 0.227,0 0.449,0.021 0.662,0.061 0.22,0.041 0.429,0.102 0.625,0.18z"/>
    <path class="fil1" d="M5.588 3.345c0.158,0 0.287,0.128 0.287,0.287 0,0.158 -0.129,0.287 -0.287,0.287 -0.159,0 -0.287,-0.129 -0.287,-0.287 0,-0.159 0.128,-0.287 0.287,-0.287z"/>
    <path class="fil1" d="M6.899 3.345c0.159,0 0.287,0.128 0.287,0.287 0,0.158 -0.128,0.287 -0.287,0.287 -0.158,0 -0.287,-0.129 -0.287,-0.287 0,-0.159 0.129,-0.287 0.287,-0.287z"/>
    <path class="fil1" d="M8.21 3.345c0.159,0 0.287,0.128 0.287,0.287 0,0.158 -0.128,0.287 -0.287,0.287 -0.158,0 -0.287,-0.129 -0.287,-0.287 0,-0.159 0.129,-0.287 0.287,-0.287z"/>
   </g>
   <rect class="fil2" width="11.734" height="6.632"/>
  </g>
 </g>
</svg>
