<?xml version="1.0" encoding="UTF-8"?>
<!DOCTYPE svg PUBLIC "-//W3C//DTD SVG 1.1//EN" "http://www.w3.org/Graphics/SVG/1.1/DTD/svg11.dtd">
<!-- Creator: CorelDRAW 2018 (64-Bit) -->
<svg xmlns="http://www.w3.org/2000/svg" xml:space="preserve" width="20px" height="20px" version="1.1" style="shape-rendering:geometricPrecision; text-rendering:geometricPrecision; image-rendering:optimizeQuality; fill-rule:evenodd; clip-rule:evenodd"
viewBox="0 0 0.46 0.46"
 xmlns:xlink="http://www.w3.org/1999/xlink">
 <defs>
  <style type="text/css">
   <![CDATA[
    .fil0 {fill:gray}
   ]]>
  </style>
 </defs>
 <g id="Layer_x0020_1">
  <metadata id="CorelCorpID_0Corel-Layer"/>
  <path class="fil0" d="M0.46 0.434l0 -0.408c0,-0.015 -0.012,-0.026 -0.026,-0.026l-0.408 0c-0.015,0 -0.026,0.011 -0.026,0.026l0 0.408c0,0.014 0.011,0.026 0.026,0.026l0.408 0c0.014,0 0.026,-0.012 0.026,-0.026zm-0.227 -0.366c0.014,0 0.062,0.004 0.085,0.055 0.008,0.017 0.006,0.046 0.005,0.07l-0.001 0.001c0,0.002 0,0.005 0,0.007 0.001,0.001 0.003,0.001 0.006,0.002 0.004,-0.001 0.009,-0.002 0.015,-0.005 0.002,-0.001 0.004,-0.001 0.006,-0.001 0.002,0 0.005,0 0.007,0.001 0.007,0.002 0.011,0.007 0.011,0.012 0,0.007 -0.006,0.012 -0.018,0.017 -0.001,0.001 -0.003,0.001 -0.005,0.002 -0.006,0.002 -0.016,0.005 -0.019,0.011 -0.001,0.004 -0.001,0.008 0.002,0.013 0,0 0,0 0,0 0.001,0.002 0.022,0.05 0.068,0.058 0.004,0.001 0.007,0.004 0.006,0.007 0,0.001 0,0.003 0,0.004 -0.004,0.008 -0.019,0.014 -0.046,0.018 -0.001,0.001 -0.001,0.006 -0.002,0.008 -0.001,0.003 -0.001,0.005 -0.002,0.008 -0.001,0.004 -0.004,0.006 -0.008,0.006l0 0 0 0c-0.002,0 -0.005,0 -0.008,-0.001 -0.005,-0.001 -0.011,-0.002 -0.018,-0.002 -0.005,0 -0.009,0.001 -0.014,0.001 -0.008,0.002 -0.016,0.007 -0.024,0.013 -0.012,0.009 -0.026,0.019 -0.047,0.019 -0.001,0 -0.002,0 -0.003,0 0,0 -0.001,0 -0.002,0 -0.021,0 -0.035,-0.01 -0.047,-0.019 -0.008,-0.006 -0.016,-0.011 -0.024,-0.013 -0.005,0 -0.009,-0.001 -0.014,-0.001 -0.007,0 -0.013,0.001 -0.018,0.002 -0.003,0.001 -0.005,0.001 -0.008,0.001 -0.005,0 -0.007,-0.003 -0.008,-0.006 -0.001,-0.002 -0.001,-0.005 -0.002,-0.008 -0.001,-0.002 -0.001,-0.007 -0.002,-0.008 -0.027,-0.004 -0.042,-0.01 -0.046,-0.018 0,-0.001 0,-0.002 0,-0.003 -0.001,-0.004 0.002,-0.007 0.006,-0.008 0.046,-0.008 0.067,-0.056 0.068,-0.058 0,0 0,0 0,0 0.003,-0.005 0.003,-0.009 0.002,-0.013 -0.003,-0.006 -0.013,-0.009 -0.019,-0.011 -0.002,-0.001 -0.004,-0.001 -0.005,-0.002 -0.016,-0.006 -0.018,-0.013 -0.018,-0.018 0.002,-0.007 0.01,-0.012 0.017,-0.012 0.002,0 0.004,0.001 0.006,0.001 0.006,0.003 0.011,0.005 0.015,0.005 0.004,0 0.006,-0.001 0.007,-0.002 0,-0.003 0,-0.006 0,-0.008 -0.002,-0.024 -0.004,-0.053 0.004,-0.07 0.023,-0.051 0.071,-0.055 0.085,-0.055l0.006 0 0.001 0z"/>
 </g>
</svg>
