<?xml version="1.0" encoding="UTF-8"?>
<!DOCTYPE svg PUBLIC "-//W3C//DTD SVG 1.1//EN" "http://www.w3.org/Graphics/SVG/1.1/DTD/svg11.dtd">
<!-- Creator: CorelDRAW 2018 (64-Bit) -->
<svg xmlns="http://www.w3.org/2000/svg" xml:space="preserve" width="20px" height="20px" version="1.1" style="shape-rendering:geometricPrecision; text-rendering:geometricPrecision; image-rendering:optimizeQuality; fill-rule:evenodd; clip-rule:evenodd"
viewBox="0 0 0.492 0.492"
 xmlns:xlink="http://www.w3.org/1999/xlink">
 <defs>
  <style type="text/css">
   <![CDATA[
    .fil0 {fill:gray;fill-rule:nonzero}
   ]]>
  </style>
 </defs>
 <g id="Layer_x0020_1">
  <metadata id="CorelCorpID_0Corel-Layer"/>
  <path class="fil0" d="M0.027 0l0.438 0c0.015,0 0.027,0.012 0.027,0.027l0 0.438c0,0.015 -0.012,0.027 -0.027,0.027l-0.438 0c-0.015,0 -0.027,-0.012 -0.027,-0.027l0 -0.438c0,-0.015 0.012,-0.027 0.027,-0.027zm0.219 0.047c-0.11,0 -0.199,0.089 -0.199,0.199 0,0.085 0.052,0.157 0.126,0.186 -0.001,-0.016 -0.003,-0.04 0.001,-0.057 0.004,-0.016 0.024,-0.1 0.024,-0.1 0,0 -0.006,-0.011 -0.006,-0.029 0,-0.028 0.016,-0.049 0.036,-0.049 0.017,0 0.025,0.013 0.025,0.029 0,0.017 -0.011,0.042 -0.017,0.066 -0.004,0.02 0.01,0.036 0.03,0.036 0.035,0 0.063,-0.037 0.063,-0.091 0,-0.048 -0.035,-0.081 -0.084,-0.081 -0.056,0 -0.09,0.042 -0.09,0.086 0,0.017 0.007,0.036 0.015,0.046 0.002,0.002 0.002,0.003 0.001,0.005 -0.001,0.007 -0.004,0.02 -0.005,0.023 -0.001,0.004 -0.003,0.004 -0.007,0.003 -0.025,-0.012 -0.04,-0.048 -0.04,-0.078 0,-0.063 0.045,-0.12 0.132,-0.12 0.069,0 0.122,0.049 0.122,0.115 0,0.069 -0.043,0.124 -0.103,0.124 -0.02,0 -0.039,-0.011 -0.046,-0.023 0,0 -0.01,0.038 -0.012,0.047 -0.005,0.018 -0.017,0.039 -0.025,0.053 0.019,0.005 0.038,0.009 0.059,0.009l0 0c0.11,0 0.2,-0.09 0.2,-0.2 0,-0.11 -0.09,-0.199 -0.2,-0.199l0 0z"/>
 </g>
</svg>
