<?xml version="1.0" encoding="UTF-8"?>
<!DOCTYPE svg PUBLIC "-//W3C//DTD SVG 1.1//EN" "http://www.w3.org/Graphics/SVG/1.1/DTD/svg11.dtd">
<!-- Creator: CorelDRAW 2018 (64-Bit) -->
<svg xmlns="http://www.w3.org/2000/svg" xml:space="preserve" width="20px" height="20px" version="1.1" style="shape-rendering:geometricPrecision; text-rendering:geometricPrecision; image-rendering:optimizeQuality; fill-rule:evenodd; clip-rule:evenodd"
viewBox="0 0 0.53 0.53"
 xmlns:xlink="http://www.w3.org/1999/xlink">
 <defs>
  <style type="text/css">
   <![CDATA[
    .fil0 {fill:gray}
   ]]>
  </style>
 </defs>
 <g id="Layer_x0020_1">
  <metadata id="CorelCorpID_0Corel-Layer"/>
  <path class="fil0" d="M0.5 0l-0.471 0c-0.016,0 -0.029,0.013 -0.029,0.029l0 0.471c0,0.017 0.013,0.03 0.029,0.03l0.254 0 0 -0.205 -0.069 0 0 -0.08 0.069 0 0 -0.059c0,-0.069 0.042,-0.106 0.103,-0.106 0.001,0 0.001,0 0.002,0 0.02,0 0.04,0.001 0.06,0.003l0 0.072 -0.043 0c-0.033,0 -0.039,0.015 -0.039,0.039l0 0.051 0.079 0 -0.01 0.08 -0.069 0 0 0.205 0.134 0c0.017,0 0.03,-0.013 0.03,-0.03l0 -0.471c0,-0.016 -0.013,-0.029 -0.03,-0.029l0 0z"/>
 </g>
</svg>
