<?xml version="1.0" encoding="UTF-8"?>
<!DOCTYPE svg PUBLIC "-//W3C//DTD SVG 1.1//EN" "http://www.w3.org/Graphics/SVG/1.1/DTD/svg11.dtd">
<!-- Creator: CorelDRAW 2018 (64-Bit) -->
<svg xmlns="http://www.w3.org/2000/svg" xml:space="preserve" width="88px" height="71px" version="1.1" style="shape-rendering:geometricPrecision; text-rendering:geometricPrecision; image-rendering:optimizeQuality; fill-rule:evenodd; clip-rule:evenodd"
viewBox="0 0 8.872 7.149"
 xmlns:xlink="http://www.w3.org/1999/xlink">
 <defs>
  <style type="text/css">
   <![CDATA[
    .fil4 {fill:#001428}
    .fil2 {fill:#00F4FF}
    .fil3 {fill:white}
    .fil1 {fill:#00F4FF;fill-rule:nonzero}
    .fil5 {fill:gray;fill-rule:nonzero}
    .fil0 {fill:white;fill-rule:nonzero}
   ]]>
  </style>
 </defs>
 <g id="Layer_x0020_1">
  <metadata id="CorelCorpID_0Corel-Layer"/>
  <g id="_2237748591008">
   <path class="fil0" d="M0.877 6.588l-0.62 0 0 0.55 -0.097 0 0 -0.551 -0.016 -0.001c-0.011,-0.001 -0.025,-0.004 -0.042,-0.008 -0.008,-0.002 -0.016,-0.004 -0.025,-0.007 -0.008,-0.003 -0.017,-0.007 -0.026,-0.01 -0.009,-0.004 -0.017,-0.009 -0.025,-0.014 -0.008,-0.006 -0.016,-0.012 -0.023,-0.018l-0.003 -0.003 0.069 -0.066 0.003 0.002c0.005,0.004 0.011,0.007 0.017,0.011 0.006,0.003 0.013,0.006 0.02,0.009 0.008,0.002 0.016,0.005 0.025,0.006 0.008,0.002 0.017,0.003 0.026,0.003l0 -0.366 0.097 0 0 0.366 0.62 0 0 -0.366 0.097 0 0 1.013 -0.097 0 0 -0.55zm0.242 -0.463l0.127 0 0.002 0.001 0.394 0.367 0.363 -0.368 0.133 0 -0.447 0.459 0 0.554 -0.097 0 0 -0.554 -0.477 -0.452 0.002 -0.007zm1.279 0.46l0 0.553 -0.096 0 0 -1.013 0.445 0c0.018,0 0.037,0.001 0.055,0.003 0.018,0.002 0.036,0.005 0.054,0.009 0.018,0.004 0.035,0.009 0.051,0.015 0.016,0.006 0.031,0.014 0.046,0.023 0.014,0.008 0.027,0.019 0.038,0.031 0.012,0.011 0.022,0.025 0.031,0.039 0.009,0.015 0.015,0.032 0.02,0.05 0.004,0.019 0.006,0.039 0.006,0.061 0,0.016 -0.001,0.031 -0.003,0.046 -0.003,0.014 -0.007,0.029 -0.012,0.043 -0.004,0.014 -0.011,0.027 -0.019,0.039 -0.008,0.012 -0.018,0.024 -0.03,0.034 -0.011,0.01 -0.024,0.02 -0.039,0.028 -0.016,0.008 -0.033,0.015 -0.051,0.021 -0.019,0.006 -0.04,0.01 -0.064,0.013 -0.023,0.003 -0.049,0.005 -0.077,0.005l-0.355 0zm0 -0.364l0 0.27 0.353 0c0.017,0 0.032,0 0.046,-0.001 0.015,-0.001 0.028,-0.002 0.041,-0.004 0.012,-0.002 0.024,-0.004 0.034,-0.007 0.011,-0.004 0.02,-0.008 0.029,-0.012 0.008,-0.005 0.015,-0.011 0.022,-0.017 0.006,-0.007 0.011,-0.015 0.016,-0.024 0.004,-0.008 0.007,-0.019 0.01,-0.03 0.002,-0.012 0.003,-0.025 0.003,-0.04 0,-0.025 -0.004,-0.047 -0.012,-0.065 -0.008,-0.017 -0.02,-0.031 -0.036,-0.04 -0.016,-0.01 -0.037,-0.017 -0.063,-0.022 -0.026,-0.005 -0.058,-0.008 -0.094,-0.008l-0.349 0zm0.781 0.913l0 -1.009 0.719 0 0 0.096 -0.623 0 0 0.27 0.537 0 0 0.097 -0.537 0 0 0.454 0.635 0 0 0.096 -0.731 0 0 -0.004zm1.035 -0.549l0 0.553 -0.097 0 0 -1.013 0.445 0c0.023,0 0.044,0.001 0.065,0.003 0.02,0.002 0.04,0.005 0.058,0.009 0.019,0.004 0.036,0.009 0.052,0.015 0.015,0.006 0.03,0.014 0.043,0.023 0.013,0.009 0.025,0.019 0.035,0.031 0.011,0.012 0.019,0.025 0.027,0.04 0.007,0.014 0.012,0.031 0.016,0.05 0.004,0.018 0.005,0.038 0.005,0.06 0,0.014 0,0.027 -0.002,0.04 -0.002,0.014 -0.004,0.027 -0.008,0.04 -0.003,0.013 -0.007,0.026 -0.013,0.038 -0.006,0.012 -0.012,0.023 -0.02,0.034 -0.008,0.011 -0.017,0.021 -0.027,0.03 -0.011,0.009 -0.022,0.017 -0.035,0.024 -0.013,0.007 -0.028,0.012 -0.044,0.016 -0.014,0.003 -0.03,0.006 -0.046,0.006l0.29 0.554 -0.111 0 -0.281 -0.553 -0.352 0zm0 -0.364l0 0.27 0.353 0c0.016,0 0.031,0 0.046,-0.001 0.014,-0.001 0.028,-0.002 0.04,-0.004 0.013,-0.002 0.024,-0.004 0.035,-0.007 0.01,-0.004 0.019,-0.008 0.028,-0.012 0.008,-0.005 0.016,-0.011 0.022,-0.017 0.006,-0.007 0.012,-0.015 0.016,-0.024 0.004,-0.008 0.008,-0.019 0.01,-0.03 0.002,-0.012 0.003,-0.025 0.003,-0.04 0,-0.025 -0.004,-0.047 -0.012,-0.065 -0.008,-0.017 -0.02,-0.031 -0.035,-0.04 -0.017,-0.01 -0.038,-0.017 -0.064,-0.022 -0.026,-0.005 -0.057,-0.008 -0.094,-0.008l-0.348 0z"/>
   <path class="fil1" d="M5.873 7.017c-0.027,0.022 -0.054,0.041 -0.08,0.057 -0.027,0.017 -0.054,0.03 -0.081,0.041 -0.027,0.011 -0.055,0.019 -0.085,0.024 -0.03,0.006 -0.061,0.008 -0.094,0.008 -0.072,0 -0.139,-0.013 -0.202,-0.04 -0.031,-0.014 -0.061,-0.03 -0.088,-0.049 -0.028,-0.018 -0.053,-0.039 -0.076,-0.063 -0.024,-0.023 -0.045,-0.049 -0.063,-0.076 -0.018,-0.028 -0.034,-0.057 -0.047,-0.088 -0.014,-0.031 -0.024,-0.064 -0.03,-0.097 -0.007,-0.033 -0.01,-0.067 -0.01,-0.101 0,-0.072 0.013,-0.14 0.04,-0.203 0.013,-0.031 0.029,-0.061 0.047,-0.088 0.018,-0.028 0.039,-0.053 0.063,-0.077 0.023,-0.023 0.048,-0.044 0.076,-0.063 0.027,-0.019 0.057,-0.035 0.088,-0.048 0.063,-0.027 0.13,-0.041 0.202,-0.041 0.027,0 0.054,0.002 0.08,0.006 0.026,0.005 0.051,0.011 0.075,0.019 0.025,0.009 0.05,0.02 0.076,0.034 0.027,0.014 0.053,0.031 0.081,0.05l0.004 0.003c-0.025,0.02 -0.05,0.039 -0.075,0.058l-0.002 -0.001c-0.02,-0.014 -0.039,-0.026 -0.058,-0.036 -0.019,-0.009 -0.038,-0.017 -0.057,-0.022 -0.018,-0.005 -0.038,-0.008 -0.059,-0.011 -0.02,-0.002 -0.042,-0.004 -0.065,-0.004 -0.058,0 -0.113,0.011 -0.164,0.033 -0.025,0.012 -0.049,0.025 -0.071,0.04 -0.022,0.015 -0.043,0.032 -0.062,0.051 -0.019,0.019 -0.036,0.039 -0.051,0.062 -0.015,0.022 -0.028,0.046 -0.039,0.073 -0.011,0.025 -0.019,0.052 -0.025,0.08 -0.005,0.028 -0.008,0.056 -0.008,0.085 0,0.057 0.011,0.111 0.033,0.161 0.011,0.026 0.024,0.05 0.039,0.072 0.015,0.022 0.032,0.043 0.051,0.062 0.019,0.019 0.04,0.036 0.062,0.051 0.022,0.015 0.046,0.028 0.071,0.039 0.026,0.011 0.052,0.019 0.079,0.025 0.027,0.005 0.056,0.008 0.085,0.008 0.013,0 0.026,0 0.038,-0.001 0.012,-0.001 0.024,-0.002 0.035,-0.004 0.012,-0.002 0.023,-0.004 0.034,-0.007 0.011,-0.003 0.022,-0.006 0.032,-0.01 0.011,-0.003 0.021,-0.008 0.031,-0.013 0.011,-0.005 0.021,-0.011 0.031,-0.018 0.01,-0.006 0.02,-0.013 0.031,-0.021 0.011,-0.008 0.021,-0.016 0.033,-0.026l0.002 -0.002 0.076 0.065 -0.003 0.003zm0.591 0.132c-0.029,0 -0.056,-0.003 -0.082,-0.008 -0.026,-0.005 -0.052,-0.013 -0.076,-0.024 -0.025,-0.01 -0.047,-0.022 -0.069,-0.037 -0.021,-0.014 -0.04,-0.03 -0.058,-0.047 -0.018,-0.018 -0.034,-0.037 -0.048,-0.058 -0.015,-0.021 -0.027,-0.043 -0.037,-0.067 -0.01,-0.024 -0.018,-0.049 -0.023,-0.074 -0.005,-0.025 -0.008,-0.051 -0.008,-0.078l0 -0.631 0.096 0 0 0.631c0,0.021 0.002,0.041 0.006,0.06 0.004,0.019 0.009,0.038 0.017,0.056 0.007,0.018 0.016,0.035 0.027,0.051 0.011,0.015 0.023,0.03 0.036,0.043 0.014,0.013 0.028,0.025 0.045,0.036 0.016,0.01 0.033,0.02 0.052,0.027 0.018,0.008 0.038,0.014 0.058,0.018 0.02,0.004 0.041,0.006 0.064,0.006 0.021,0 0.042,-0.002 0.063,-0.006 0.02,-0.004 0.04,-0.01 0.06,-0.018 0.019,-0.007 0.037,-0.017 0.054,-0.027 0.017,-0.011 0.032,-0.023 0.047,-0.036 0.014,-0.013 0.027,-0.028 0.038,-0.043 0.011,-0.016 0.021,-0.033 0.029,-0.051 0.009,-0.018 0.015,-0.037 0.019,-0.056 0.004,-0.019 0.006,-0.039 0.006,-0.06l0 -0.631 0.096 0 0 0.631c0,0.054 -0.011,0.104 -0.033,0.152 -0.011,0.024 -0.024,0.046 -0.039,0.067 -0.015,0.021 -0.031,0.04 -0.05,0.058 -0.019,0.017 -0.039,0.033 -0.061,0.047 -0.022,0.015 -0.046,0.027 -0.071,0.037 -0.025,0.011 -0.051,0.019 -0.077,0.024 -0.027,0.005 -0.054,0.008 -0.081,0.008zm0.646 -0.015l0 -1.009 0.444 0c0.02,0 0.039,0.001 0.058,0.002 0.018,0.002 0.037,0.004 0.055,0.007 0.018,0.003 0.036,0.007 0.052,0.012 0.016,0.006 0.031,0.013 0.045,0.022 0.014,0.008 0.026,0.019 0.038,0.03 0.011,0.012 0.02,0.026 0.029,0.041 0.008,0.015 0.014,0.032 0.018,0.052 0.005,0.019 0.007,0.041 0.007,0.065 0,0.017 -0.002,0.034 -0.005,0.05 -0.003,0.016 -0.007,0.031 -0.013,0.046 -0.006,0.016 -0.014,0.029 -0.024,0.042 -0.008,0.011 -0.019,0.022 -0.03,0.031 0.011,0.007 0.021,0.014 0.031,0.022 0.011,0.009 0.021,0.019 0.031,0.03 0.009,0.011 0.017,0.023 0.025,0.035 0.008,0.012 0.015,0.024 0.021,0.036 0.006,0.013 0.011,0.026 0.016,0.039 0.004,0.013 0.008,0.026 0.011,0.04 0.003,0.014 0.005,0.027 0.006,0.04 0.002,0.013 0.002,0.026 0.002,0.038 0,0.034 -0.006,0.07 -0.018,0.109 -0.006,0.02 -0.014,0.039 -0.023,0.057 -0.009,0.018 -0.019,0.035 -0.03,0.051 -0.012,0.017 -0.025,0.032 -0.039,0.046 -0.014,0.013 -0.03,0.026 -0.046,0.037 -0.017,0.011 -0.035,0.019 -0.054,0.025 -0.019,0.005 -0.038,0.008 -0.059,0.008l-0.548 0 0 -0.004zm0.548 -0.092c0.014,0 0.027,-0.002 0.039,-0.006 0.012,-0.004 0.024,-0.011 0.034,-0.019 0.011,-0.008 0.021,-0.018 0.03,-0.028 0.009,-0.01 0.017,-0.022 0.025,-0.034 0.007,-0.012 0.014,-0.024 0.02,-0.037 0.005,-0.013 0.01,-0.026 0.014,-0.04 0.004,-0.014 0.006,-0.027 0.008,-0.039 0.002,-0.012 0.003,-0.024 0.003,-0.034 0,-0.01 -0.001,-0.021 -0.002,-0.032 -0.002,-0.011 -0.004,-0.023 -0.007,-0.036 -0.003,-0.012 -0.007,-0.025 -0.012,-0.036 -0.005,-0.012 -0.01,-0.024 -0.017,-0.035 -0.007,-0.011 -0.015,-0.022 -0.024,-0.031 -0.009,-0.009 -0.019,-0.018 -0.03,-0.025 -0.011,-0.008 -0.023,-0.013 -0.037,-0.017 -0.013,-0.004 -0.028,-0.005 -0.044,-0.005l-0.452 0 0 0.454 0.452 0zm-0.452 -0.821l0 0.27 0.353 0c0.016,0 0.031,0 0.046,-0.001 0.014,-0.001 0.028,-0.002 0.04,-0.004 0.013,-0.002 0.024,-0.004 0.035,-0.007 0.01,-0.004 0.02,-0.008 0.028,-0.012 0.008,-0.005 0.016,-0.011 0.022,-0.017 0.006,-0.007 0.012,-0.015 0.016,-0.024 0.005,-0.008 0.008,-0.019 0.01,-0.03 0.002,-0.012 0.003,-0.025 0.003,-0.04 0,-0.025 -0.004,-0.047 -0.012,-0.065 -0.008,-0.017 -0.019,-0.031 -0.035,-0.04 -0.016,-0.01 -0.038,-0.017 -0.064,-0.022 -0.026,-0.005 -0.057,-0.008 -0.094,-0.008l-0.348 0zm0.935 0.913l0 -1.009 0.718 0 0 0.096 -0.622 0 0 0.27 0.537 0 0 0.097 -0.537 0 0 0.454 0.635 0 0 0.096 -0.731 0 0 -0.004z"/>
   <path class="fil2" d="M4.841 4.737l0.62 -0.358 0.486 -0.28 0.383 0.221 -1.872 1.08 0 -0.442 0.383 -0.221zm1.556 -0.924l0 0.026 -0.022 0.013 -1.489 -0.86 0 0.442 0.219 0.127 0 0 0.678 0.392 0.209 0.12 0.382 0.221 0.384 -0.221 0.022 -0.013 0 -0.026 0 -0.442 -1.107 -0.639 0 0 -0.382 -0.221 -0.383 0.222 1.489 0.859zm0.383 -2.434l0 2.162 -0.383 -0.221 0 -1.277 0 -0.443 0.383 -0.221zm-0.427 0.689l-1.512 0.873 0 1.745 -0.383 0.221 0 -2.187 1.895 -1.094 0 0.442z"/>
   <path class="fil3" d="M2.114 1.34l1.872 -1.08 0 0.442 -1.106 0.638 -0.383 0.221 -0.383 -0.221zm0.811 0.026l1.511 0.872 1.511 -0.872 0.383 0.221 -1.894 1.094 -1.895 -1.094 0.384 -0.221zm1.489 -0.911l0.022 -0.013 0.022 0.013 0 1.719 0.383 -0.221 0 -0.253 0 0 0 -0.784 0 -0.24 0 -0.442 -0.383 -0.221 -0.022 -0.013 -0.022 0.013 -0.383 0.221 0 1.278 -0.001 0 0 0.441 0.384 0.221 0 -1.719zm1.577 0.885l-0.619 -0.358 -0.486 -0.28 0 -0.442 1.872 1.08 -0.383 0.221 -0.384 -0.221z"/>
   <path class="fil4" d="M2.475 2.043l0 0.715 0 0.562 -0.383 0.221 0 -2.162 0.383 0.221 0 0.443zm0.022 1.809l-0.022 -0.013 0 -0.026 1.489 -0.859 -0.384 -0.222 -0.219 0.127 0 0 -0.678 0.392 -0.208 0.12 -0.383 0.221 0 0.442 0 0.026 0.022 0.013 0.383 0.221 1.107 -0.639 0 0 0.382 -0.221 0 -0.442 -1.489 0.86zm1.916 1.548l-1.872 -1.08 0.383 -0.222 1.106 0.639 0.383 0.221 0 0.442zm-0.383 -0.714l0 -1.745 -1.511 -0.873 0 -0.442 1.894 1.093 0 2.188 -0.383 -0.221z"/>
   <polygon class="fil5" points="2.968,4.073 4.413,4.907 4.413,4.958 2.924,4.098 "/>
   <polygon class="fil5" points="2.519,1.626 2.519,3.294 2.475,3.32 2.475,1.6 "/>
   <polygon class="fil5" points="2.475,3.813 3.964,2.954 3.986,2.966 3.986,2.992 2.497,3.852 2.475,3.839 "/>
  </g>
 </g>
</svg>
