<?xml version="1.0" encoding="UTF-8"?>
<!DOCTYPE svg PUBLIC "-//W3C//DTD SVG 1.1//EN" "http://www.w3.org/Graphics/SVG/1.1/DTD/svg11.dtd">
<!-- Creator: CorelDRAW 2018 (64-Bit) -->
<svg xmlns="http://www.w3.org/2000/svg" xml:space="preserve" width="17px" height="18px" version="1.1" style="shape-rendering:geometricPrecision; text-rendering:geometricPrecision; image-rendering:optimizeQuality; fill-rule:evenodd; clip-rule:evenodd"
viewBox="0 0 0.754 0.806"
 xmlns:xlink="http://www.w3.org/1999/xlink">
 <defs>
  <style type="text/css">
   <![CDATA[
    .str0 {stroke:#00F4FF;stroke-width:0.044;stroke-linecap:round;stroke-linejoin:round;stroke-miterlimit:2.61313}
    .fil0 {fill:none}
   ]]>
  </style>
 </defs>
 <g id="Layer_x0020_1">
  <metadata id="CorelCorpID_0Corel-Layer"/>
  <g id="_2237748604288">
   <path class="fil0 str0" d="M0.462 0.146c0.036,0.012 0.068,0.031 0.095,0.055l0.118 -0.035c0.023,0.029 0.043,0.062 0.057,0.098l-0.09 0.084c0.004,0.018 0.006,0.036 0.006,0.055 0,0.019 -0.002,0.038 -0.006,0.055l0.09 0.084c-0.014,0.036 -0.034,0.069 -0.057,0.099l-0.118 -0.036c-0.027,0.025 -0.059,0.044 -0.095,0.055l-0.028 0.12c-0.019,0.003 -0.038,0.004 -0.057,0.004 -0.019,0 -0.038,-0.001 -0.057,-0.004l-0.028 -0.12c-0.036,-0.011 -0.068,-0.03 -0.095,-0.055l-0.118 0.036c-0.023,-0.03 -0.043,-0.063 -0.057,-0.099l0.09 -0.084c-0.004,-0.017 -0.006,-0.036 -0.006,-0.055 0,-0.019 0.002,-0.037 0.006,-0.055l-0.09 -0.084c0.014,-0.036 0.034,-0.069 0.057,-0.098l0.118 0.035c0.027,-0.024 0.059,-0.043 0.095,-0.055l0.028 -0.12c0.019,-0.002 0.038,-0.004 0.057,-0.004 0.019,0 0.038,0.002 0.057,0.004l0.028 0.12z"/>
   <circle class="fil0 str0" cx="0.377" cy="0.403" r="0.12"/>
  </g>
 </g>
</svg>
