<?xml version="1.0" encoding="UTF-8"?>
<!DOCTYPE svg PUBLIC "-//W3C//DTD SVG 1.1//EN" "http://www.w3.org/Graphics/SVG/1.1/DTD/svg11.dtd">
<!-- Creator: CorelDRAW 2018 (64-Bit) -->
<svg xmlns="http://www.w3.org/2000/svg" xml:space="preserve" width="15px" height="19px" version="1.1" style="shape-rendering:geometricPrecision; text-rendering:geometricPrecision; image-rendering:optimizeQuality; fill-rule:evenodd; clip-rule:evenodd"
viewBox="0 0 0.134 0.165"
 xmlns:xlink="http://www.w3.org/1999/xlink">
 <defs>
  <style type="text/css">
   <![CDATA[
    .str1 {stroke:#00F4FF;stroke-width:0.009;stroke-miterlimit:2.61313}
    .str0 {stroke:#00F4FF;stroke-width:0.009;stroke-linecap:round;stroke-linejoin:round;stroke-miterlimit:2.61313}
    .fil0 {fill:none}
   ]]>
  </style>
 </defs>
 <g id="Layer_x0020_1">
  <metadata id="CorelCorpID_0Corel-Layer"/>
  <g id="_1836613375472">
   <path class="fil0 str0" d="M0.017 0.074c0,-0.022 0.014,-0.041 0.034,-0.048l0 -0.008c0.001,-0.008 0.008,-0.014 0.016,-0.014 0.008,0 0.015,0.006 0.015,0.014l0.001 0.008c0.02,0.007 0.034,0.026 0.034,0.048 0,0.036 -0.004,0.034 0.012,0.067 0.001,0.002 0,0.004 -0.002,0.004l-0.06 0 -0.06 0c-0.002,0 -0.003,-0.002 -0.002,-0.004 0.016,-0.033 0.012,-0.031 0.012,-0.067z"/>
   <path class="fil0 str1" d="M0.05 0.145c0.001,0.009 0.008,0.016 0.017,0.016 0.009,0 0.016,-0.007 0.017,-0.016"/>
  </g>
 </g>
</svg>
