<?xml version="1.0" encoding="UTF-8"?>
<!DOCTYPE svg PUBLIC "-//W3C//DTD SVG 1.1//EN" "http://www.w3.org/Graphics/SVG/1.1/DTD/svg11.dtd">
<!-- Creator: CorelDRAW 2018 (64-Bit) -->
<svg xmlns="http://www.w3.org/2000/svg" xml:space="preserve" width="21px" height="19px" version="1.1" style="shape-rendering:geometricPrecision; text-rendering:geometricPrecision; image-rendering:optimizeQuality; fill-rule:evenodd; clip-rule:evenodd"
viewBox="0 0 1.163 1.044"
 xmlns:xlink="http://www.w3.org/1999/xlink">
 <defs>
  <style type="text/css">
   <![CDATA[
    .str1 {stroke:#00F4FF;stroke-width:0.055;stroke-linecap:round;stroke-miterlimit:2.61313}
    .str0 {stroke:#00F4FF;stroke-width:0.055;stroke-linecap:round;stroke-linejoin:round;stroke-miterlimit:2.61313}
    .fil0 {fill:none}
    .fil1 {fill:#00F4FF}
   ]]>
  </style>
 </defs>
 <g id="Layer_x0020_1">
  <metadata id="CorelCorpID_0Corel-Layer"/>
  <g id="_2201222796976">
   <path class="fil0 str0" d="M0.581 0.028c0.306,0 0.554,0.189 0.554,0.422 0,0.135 -0.083,0.255 -0.212,0.332l0.019 0.234 -0.17 -0.17c-0.059,0.017 -0.124,0.026 -0.191,0.026 -0.305,0 -0.553,-0.189 -0.553,-0.422 0,-0.233 0.248,-0.422 0.553,-0.422z"/>
   <g>
    <circle class="fil1" cx="0.587" cy="0.697" r="0.046"/>
    <path class="fil0 str1" d="M0.447 0.343c0,-0.074 0.06,-0.134 0.134,-0.134 0.074,0 0.135,0.06 0.135,0.134 0,0.107 -0.129,0.114 -0.129,0.238"/>
   </g>
  </g>
 </g>
</svg>
