<?xml version="1.0" encoding="UTF-8"?>
<!DOCTYPE svg PUBLIC "-//W3C//DTD SVG 1.1//EN" "http://www.w3.org/Graphics/SVG/1.1/DTD/svg11.dtd">
<!-- Creator: CorelDRAW 2018 (64-Bit) -->
<svg xmlns="http://www.w3.org/2000/svg" xml:space="preserve" width="33px" height="31px" version="1.1" style="shape-rendering:geometricPrecision; text-rendering:geometricPrecision; image-rendering:optimizeQuality; fill-rule:evenodd; clip-rule:evenodd"
viewBox="0 0 3.371 3.211"
 xmlns:xlink="http://www.w3.org/1999/xlink">
 <defs>
  <style type="text/css">
   <![CDATA[
    .fil0 {fill:#A3AEBA;fill-rule:nonzero}
   ]]>
  </style>
 </defs>
 <g id="Layer_x0020_1">
  <metadata id="CorelCorpID_0Corel-Layer"/>
  <path class="fil0" d="M1.73 0.027l0.517 0.969 1.081 0.192c0.028,0.005 0.047,0.031 0.042,0.059 -0.002,0.011 -0.008,0.021 -0.016,0.029l-0.76 0.788 0.152 1.089c0.004,0.027 -0.016,0.053 -0.044,0.057 -0.01,0.001 -0.02,0 -0.029,-0.005l-0.988 -0.48 -0.987 0.48c-0.026,0.013 -0.056,0.002 -0.069,-0.023 -0.005,-0.011 -0.006,-0.022 -0.004,-0.033l0.152 -1.085 -0.763 -0.79c-0.019,-0.021 -0.019,-0.053 0.002,-0.072 0.007,-0.008 0.017,-0.012 0.026,-0.014l1.082 -0.192 0.516 -0.969c0.014,-0.025 0.044,-0.034 0.069,-0.021 0.01,0.005 0.017,0.013 0.021,0.021zm0.439 1.039l-0.484 -0.907 -0.481 0.904c-0.007,0.015 -0.021,0.027 -0.038,0.03l-1.012 0.179 0.713 0.74c0.011,0.01 0.016,0.026 0.014,0.042l-0.142 1.018 0.924 -0.45c0.014,-0.007 0.03,-0.007 0.045,0l0.924 0.45 -0.143 -1.018c-0.002,-0.015 0.003,-0.031 0.014,-0.042l0.713 -0.74 -1.011 -0.179c-0.015,-0.003 -0.029,-0.012 -0.036,-0.027z"/>
 </g>
</svg>
