<?xml version="1.0" encoding="UTF-8"?>
<!DOCTYPE svg PUBLIC "-//W3C//DTD SVG 1.1//EN" "http://www.w3.org/Graphics/SVG/1.1/DTD/svg11.dtd">
<!-- Creator: CorelDRAW 2018 (64-Bit) -->
<svg xmlns="http://www.w3.org/2000/svg" xml:space="preserve" width="40px" height="40px" version="1.1" style="shape-rendering:geometricPrecision; text-rendering:geometricPrecision; image-rendering:optimizeQuality; fill-rule:evenodd; clip-rule:evenodd"
viewBox="0 0 1.311 1.311"
 xmlns:xlink="http://www.w3.org/1999/xlink">
 <defs>
  <style type="text/css">
   <![CDATA[
    .fil0 {fill:#00D4E3}
    .fil1 {fill:white;fill-rule:nonzero}
   ]]>
  </style>
 </defs>
 <g id="Layer_x0020_1">
  <metadata id="CorelCorpID_0Corel-Layer"/>
  <g id="_1290250607200">
   <path class="fil0" d="M0.655 0c0.362,0 0.656,0.293 0.656,0.655 0,0.362 -0.294,0.656 -0.656,0.656 -0.362,0 -0.655,-0.294 -0.655,-0.656 0,-0.362 0.293,-0.655 0.655,-0.655z"/>
   <path class="fil1" d="M0.282 0.638c-0.025,-0.026 -0.025,-0.067 0,-0.093 0.026,-0.025 0.067,-0.025 0.093,0l0.214 0.214 0.347 -0.347c0.025,-0.025 0.067,-0.025 0.092,0 0.026,0.026 0.026,0.067 0,0.093l-0.393 0.393c-0.025,0.026 -0.067,0.026 -0.092,0l-0.261 -0.26z"/>
  </g>
 </g>
</svg>
