<?xml version="1.0" encoding="UTF-8"?>
<!DOCTYPE svg PUBLIC "-//W3C//DTD SVG 1.1//EN" "http://www.w3.org/Graphics/SVG/1.1/DTD/svg11.dtd">
<!-- Creator: CorelDRAW 2018 (64-Bit) -->
<svg xmlns="http://www.w3.org/2000/svg" xml:space="preserve" width="23px" height="22px" version="1.1" style="shape-rendering:geometricPrecision; text-rendering:geometricPrecision; image-rendering:optimizeQuality; fill-rule:evenodd; clip-rule:evenodd"
viewBox="0 0 0.596 0.566"
 xmlns:xlink="http://www.w3.org/1999/xlink">
 <defs>
  <style type="text/css">
   <![CDATA[
    .str1 {stroke:gray;stroke-width:0.026;stroke-linecap:round;stroke-linejoin:round;stroke-miterlimit:2.61313}
    .str0 {stroke:gray;stroke-width:0.026;stroke-linecap:round;stroke-linejoin:round;stroke-miterlimit:2.61313}
    .fil0 {fill:none}
   ]]>
  </style>
 </defs>
 <g id="Layer_x0020_1">
  <metadata id="CorelCorpID_0Corel-Layer"/>
  <g id="_2237741097552">
   <path class="fil0 str0" d="M0.434 0.292l0.039 -0.039c0.01,-0.01 0.01,-0.026 0,-0.035l-0.195 -0.195c-0.014,-0.015 -0.035,-0.014 -0.035,0.013l0 0.086c0,0.014 -0.012,0.026 -0.026,0.026l-0.179 0c-0.014,0 -0.025,0.011 -0.025,0.025l0 0.124c0,0.014 0.011,0.026 0.025,0.026l0.179 0c0.014,0 0.026,0.011 0.026,0.025l0 0.087c0,0.027 0.021,0.028 0.035,0.013l0.041 -0.041"/>
   <path class="fil0 str1" d="M0.329 0.342l0.043 -0.043c0.003,-0.003 0.009,-0.003 0.012,0l0.07 0.07 0.071 -0.07c0.003,-0.003 0.009,-0.003 0.012,0l0.043 0.043c0.004,0.004 0.004,0.009 0,0.012l-0.07 0.071 0.07 0.07c0.004,0.003 0.004,0.009 0,0.012l-0.043 0.043c-0.003,0.004 -0.009,0.004 -0.012,0l-0.071 -0.07 -0.07 0.07c-0.003,0.004 -0.009,0.004 -0.012,0l-0.043 -0.043c-0.004,-0.003 -0.004,-0.009 0,-0.012l0.07 -0.07 -0.07 -0.071c-0.004,-0.003 -0.004,-0.008 0,-0.012z"/>
  </g>
 </g>
</svg>
