<?xml version="1.0" encoding="UTF-8"?>
<!DOCTYPE svg PUBLIC "-//W3C//DTD SVG 1.1//EN" "http://www.w3.org/Graphics/SVG/1.1/DTD/svg11.dtd">
<!-- Creator: CorelDRAW 2018 (64-Bit) -->
<svg xmlns="http://www.w3.org/2000/svg" xml:space="preserve" width="40px" height="40px" version="1.1" style="shape-rendering:geometricPrecision; text-rendering:geometricPrecision; image-rendering:optimizeQuality; fill-rule:evenodd; clip-rule:evenodd"
viewBox="0 0 12 12"
 xmlns:xlink="http://www.w3.org/1999/xlink">
 <defs>
  <style type="text/css">
   <![CDATA[
    .fil0 {fill:none}
    .fil3 {fill:#00F4FF}
    .fil4 {fill:gray}
    .fil1 {fill:white}
    .fil2 {fill:gray;fill-rule:nonzero}
   ]]>
  </style>
 </defs>
 <g id="Layer_x0020_1">
  <metadata id="CorelCorpID_0Corel-Layer"/>
  <g id="_1743914949888">
   <rect class="fil0" width="12" height="12"/>
   <g>
    <path class="fil1" d="M1.179 9.847l0 -6.412 9.641 0 0 6.412c0,0.112 -0.091,0.203 -0.202,0.203l-9.236 0c-0.111,0 -0.203,-0.091 -0.203,-0.203z"/>
    <path class="fil2" d="M1.029 9.847l0 -6.412c0,-0.083 0.068,-0.15 0.15,-0.15l9.641 0c0.083,0 0.15,0.067 0.15,0.15l0 6.412c0,0.097 -0.04,0.186 -0.103,0.249 -0.064,0.064 -0.152,0.104 -0.249,0.104l-9.236 0c-0.097,0 -0.185,-0.04 -0.249,-0.104 -0.064,-0.064 -0.104,-0.152 -0.104,-0.249zm0.3 -6.262l0 6.262c0,0.014 0.006,0.028 0.016,0.037 0.009,0.01 0.022,0.016 0.037,0.016l9.236 0c0.014,0 0.027,-0.006 0.037,-0.016 0.009,-0.009 0.015,-0.023 0.015,-0.037l0 -6.262 -9.341 0z"/>
    <path class="fil3" d="M1.179 3.435l0 -1.283c0,-0.111 0.092,-0.202 0.203,-0.202l9.236 0c0.111,0 0.202,0.091 0.202,0.202l0 1.283 -9.641 0z"/>
    <path class="fil2" d="M1.029 3.435l0 -1.283c0,-0.097 0.04,-0.185 0.104,-0.249 0.064,-0.063 0.152,-0.103 0.249,-0.103l9.236 0c0.096,0 0.184,0.04 0.248,0.103 0.064,0.065 0.104,0.153 0.104,0.249l0 1.283c0,0.083 -0.067,0.15 -0.15,0.15l-9.641 0c-0.082,0 -0.15,-0.067 -0.15,-0.15zm0.3 -1.283l0 1.133 9.341 0 0 -1.133c0,-0.014 -0.006,-0.028 -0.015,-0.037 -0.009,-0.009 -0.023,-0.015 -0.037,-0.015l-9.236 0c-0.014,0 -0.028,0.006 -0.037,0.015 -0.01,0.01 -0.016,0.023 -0.016,0.037z"/>
    <path class="fil4" d="M7.915 2.45c0.152,0 0.275,0.124 0.275,0.276 0,0.152 -0.123,0.276 -0.275,0.276 -0.153,0 -0.276,-0.124 -0.276,-0.276 0,-0.152 0.123,-0.276 0.276,-0.276z"/>
    <path class="fil4" d="M8.906 2.45c0.153,0 0.276,0.124 0.276,0.276 0,0.152 -0.123,0.276 -0.276,0.276 -0.152,0 -0.275,-0.124 -0.275,-0.276 0,-0.152 0.123,-0.276 0.275,-0.276z"/>
    <path class="fil4" d="M9.898 2.45c0.152,0 0.276,0.124 0.276,0.276 0,0.152 -0.124,0.276 -0.276,0.276 -0.152,0 -0.275,-0.124 -0.275,-0.276 0,-0.152 0.123,-0.276 0.275,-0.276z"/>
    <path class="fil2" d="M7.418 7.671c-0.073,0.039 -0.164,0.012 -0.203,-0.061 -0.039,-0.073 -0.012,-0.164 0.061,-0.203l1.229 -0.665 -1.229 -0.665c-0.073,-0.039 -0.1,-0.13 -0.061,-0.203 0.039,-0.073 0.13,-0.1 0.203,-0.061l1.471 0.797c0.026,0.013 0.048,0.034 0.062,0.061 0.04,0.073 0.012,0.164 -0.06,0.203l-1.473 0.797z"/>
    <path class="fil2" d="M4.724 7.407c0.072,0.039 0.1,0.13 0.06,0.203 -0.039,0.073 -0.129,0.1 -0.202,0.061l-1.473 -0.797c-0.073,-0.039 -0.1,-0.13 -0.061,-0.203 0.015,-0.027 0.037,-0.048 0.062,-0.061l1.472 -0.797c0.073,-0.039 0.163,-0.012 0.202,0.061 0.04,0.073 0.012,0.164 -0.06,0.203l-1.23 0.665 1.23 0.665z"/>
    <path class="fil2" d="M6.514 5.071c0.03,-0.077 0.118,-0.114 0.194,-0.083 0.077,0.03 0.114,0.118 0.083,0.194l-1.305 3.231c-0.031,0.077 -0.118,0.114 -0.195,0.084 -0.076,-0.031 -0.114,-0.118 -0.083,-0.195l1.306 -3.231z"/>
   </g>
  </g>
 </g>
</svg>
