<?xml version="1.0" encoding="UTF-8"?>
<!DOCTYPE svg PUBLIC "-//W3C//DTD SVG 1.1//EN" "http://www.w3.org/Graphics/SVG/1.1/DTD/svg11.dtd">
<!-- Creator: CorelDRAW 2018 (64-Bit) -->
<svg xmlns="http://www.w3.org/2000/svg" xml:space="preserve" width="40px" height="40px" version="1.1" style="shape-rendering:geometricPrecision; text-rendering:geometricPrecision; image-rendering:optimizeQuality; fill-rule:evenodd; clip-rule:evenodd"
viewBox="0 0 1294.587 1294.587"
 xmlns:xlink="http://www.w3.org/1999/xlink">
 <defs>
  <style type="text/css">
   <![CDATA[
    .fil0 {fill:none}
    .fil3 {fill:#00F4FF}
    .fil1 {fill:white}
    .fil2 {fill:gray;fill-rule:nonzero}
   ]]>
  </style>
 </defs>
 <g id="Layer_x0020_1">
  <metadata id="CorelCorpID_0Corel-Layer"/>
  <g id="_1780345487072">
   <rect class="fil0" x="-0.005" y="-0.005" width="1294.596" height="1294.596"/>
   <g>
    <polygon class="fil1" points="387.624,1084.22 387.633,494.661 449.284,417.908 510.954,445.147 403.78,298.615 132.661,298.615 25.486,445.147 87.147,417.908 148.798,494.661 148.807,1084.22 206.55,1084.22 209.606,494.661 268.22,421.477 329.881,494.67 329.881,1084.22 "/>
    <path class="fil2" d="M41.651 1084.22c0,8.936 -7.247,16.184 -16.183,16.184 -8.936,0 -16.184,-7.248 -16.184,-16.184l0 -639.055c0,-4.073 1.496,-7.789 3.964,-10.633l241.954 -330.807c5.266,-7.184 15.376,-8.743 22.559,-3.477 1.441,1.055 2.652,2.302 3.633,3.688l241.78 330.596c2.468,2.844 3.964,6.56 3.964,10.615l0 639.073c0,8.936 -7.248,16.184 -16.184,16.184 -8.936,0 -16.183,-7.248 -16.183,-16.184l0 -633.835 -226.551 -309.779 -226.569 309.779 0 633.835z"/>
    <path class="fil3" d="M1269.128 371.624c-6.055,-146.596 -201.073,-129.707 -170.55,-258.358 -126.248,41.321 -231.606,145.174 -231.606,258.358 0,113.183 91.762,183.11 201.083,183.11 109.321,0 201.083,-69.927 201.073,-183.11z"/>
    <path class="fil2" d="M1252.954 371.156c-3.119,-63.44 -48.504,-93.422 -90.275,-121.009 -44.367,-29.303 -85.33,-56.367 -83.734,-112.532 -52.78,21.293 -100.376,53.816 -135.505,93.009 -37.201,41.495 -60.284,90.404 -60.284,141 0,49.899 19.468,90.477 50.771,118.982 33.853,30.834 81.724,47.944 134.128,47.944 50.826,0 97.349,-16.073 130.973,-45.128 33.137,-28.642 53.917,-70.239 53.917,-121.78l0.009 -0.486zm-72.44 -147.945c48.275,31.881 100.734,66.541 104.66,146.266l0.138 2.147c0,61.624 -25.11,111.587 -65.165,146.202 -39.56,34.183 -93.597,53.091 -152.074,53.091 -60.422,0 -116.045,-20.137 -155.89,-56.422 -37.853,-34.467 -61.394,-83.22 -61.394,-142.871 0,-58.936 26.284,-115.248 68.633,-162.486 44.083,-49.184 105.798,-88.67 173.184,-110.899 2.981,-1.193 6.348,-1.514 9.706,-0.716 8.688,2.055 14.064,10.789 12.009,19.477 -12.816,54.028 24.853,78.917 66.193,106.211z"/>
    <path class="fil2" d="M939.275 1086.303c-1.147,8.825 -9.247,15.055 -18.073,13.908 -8.826,-1.147 -15.055,-9.248 -13.908,-18.073l48.165 -367.615c1.055,-8.129 8.009,-14.055 15.991,-14.046l193.211 -0.055c8.688,0 15.77,6.844 16.165,15.431l47.991 366.285c1.146,8.825 -5.083,16.926 -13.909,18.073 -8.825,1.147 -16.926,-5.083 -18.073,-13.908l-46.321 -353.514 -164.918 0 -46.321 353.514z"/>
    <polygon class="fil1" points="967.468,547.009 1168.716,547.009 1184.239,716.606 951.862,716.606 "/>
    <path class="fil2" d="M967.468 530.853l201.248 -0.027c8.917,0 16.156,7.22 16.183,16.128l15.395 168.202c0.798,8.862 -5.744,16.706 -14.606,17.505l-233.826 0.128c-8.935,0 -16.183,-7.248 -16.183,-16.183l15.734 -171.046c0.752,-8.377 7.798,-14.679 16.055,-14.707zm186.541 32.34l-171.844 0 -12.624 137.229 197.028 0 -12.56 -137.229z"/>
    <polygon class="fil3" points="268.211,113.266 132.651,298.615 403.78,298.615 "/>
    <path class="fil2" d="M268.211 140.606l-103.725 141.825 207.459 0 -103.734 -141.825zm-148.578 148.467l135.404 -185.137c0.981,-1.386 2.192,-2.633 3.633,-3.688 7.183,-5.266 17.293,-3.707 22.559,3.477l134.899 184.431c2.395,2.816 3.835,6.468 3.835,10.459 0,8.935 -7.247,16.183 -16.183,16.183l-271.129 0c-3.321,-0.046 -6.66,-1.055 -9.541,-3.165 -7.183,-5.266 -8.743,-15.376 -3.477,-22.56z"/>
    <path class="fil2" d="M222.734 1084.22c0,8.936 -7.248,16.184 -16.184,16.184 -8.935,0 -16.183,-7.248 -16.183,-16.184l0 -589.55c0,-4.285 1.661,-8.165 4.358,-11.055l60.917 -75.826c5.587,-6.945 15.752,-8.046 22.697,-2.459 1.01,0.808 1.89,1.716 2.643,2.688l60.724 75.597c2.698,2.89 4.358,6.779 4.358,11.046l0 589.559c0,8.936 -7.247,16.184 -16.183,16.184 -8.936,0 -16.184,-7.248 -16.184,-16.184l0 -583.917 -45.477 -56.615 -45.486 56.615 0 583.917z"/>
    <path class="fil2" d="M527.073 1084.22c0,8.899 -7.22,16.119 -16.119,16.119 -8.899,0 -16.119,-7.22 -16.119,-16.119l-0.009 -628.514 -40.734 -18.009 -50.34 62.67 -0.009 583.853c0,8.899 -7.22,16.119 -16.119,16.119 -8.899,0 -16.119,-7.22 -16.119,-16.119l0.009 -588.715c-0.202,-3.835 0.954,-7.744 3.541,-10.964l61.156 -76.137c4.376,-6.028 12.495,-8.404 19.587,-5.285l61.661 27.257c5.651,2.532 9.605,8.202 9.605,14.789l0.009 639.055z"/>
    <path class="fil2" d="M41.596 1084.22c0,8.899 -7.22,16.119 -16.119,16.119 -8.899,0 -16.119,-7.22 -16.119,-16.119l0.009 -639.055c0,-6.587 3.954,-12.257 9.624,-14.752l61.642 -27.294c7.092,-3.119 15.211,-0.743 19.587,5.285l61.156 76.137c2.587,3.22 3.743,7.129 3.541,10.964l0.01 588.715c0,8.899 -7.221,16.119 -16.12,16.119 -8.899,0 -16.119,-7.22 -16.119,-16.119l-0.009 -583.853 -50.34 -62.67 -40.733 18.009 -0.01 628.514z"/>
   </g>
  </g>
 </g>
</svg>
