<?xml version="1.0" encoding="UTF-8"?>
<!DOCTYPE svg PUBLIC "-//W3C//DTD SVG 1.1//EN" "http://www.w3.org/Graphics/SVG/1.1/DTD/svg11.dtd">
<!-- Creator: CorelDRAW 2018 (64-Bit) -->
<svg xmlns="http://www.w3.org/2000/svg" xml:space="preserve" width="40px" height="40px" version="1.1" style="shape-rendering:geometricPrecision; text-rendering:geometricPrecision; image-rendering:optimizeQuality; fill-rule:evenodd; clip-rule:evenodd"
viewBox="0 0 13.373 13.373"
 xmlns:xlink="http://www.w3.org/1999/xlink">
 <defs>
  <style type="text/css">
   <![CDATA[
    .fil0 {fill:none}
    .fil4 {fill:#00F4FF}
    .fil3 {fill:#EAEDF2}
    .fil1 {fill:white}
    .fil5 {fill:gray;fill-rule:nonzero}
    .fil2 {fill:gray;fill-rule:nonzero}
   ]]>
  </style>
 </defs>
 <g id="Layer_x0020_1">
  <metadata id="CorelCorpID_0Corel-Layer"/>
  <g id="_1743930851920">
   <rect class="fil0" width="13.373" height="13.373"/>
   <g>
    <path class="fil1" d="M0.872 1.371c0,-0.111 0.09,-0.201 0.201,-0.201l5.37 0 2.271 2.27 0 7.559c0,0.11 -0.091,0.201 -0.201,0.201l-7.44 0c-0.11,0 -0.201,-0.09 -0.201,-0.201 0,-3.209 0,-6.419 0,-9.628z"/>
    <path class="fil2" d="M0.705 1.371c0,-0.101 0.041,-0.193 0.108,-0.26l0.001 0c0.067,-0.067 0.159,-0.108 0.259,-0.108l5.37 0c0.048,0 0.09,0.019 0.12,0.051l2.269 2.268c0.032,0.033 0.049,0.076 0.049,0.118l0 7.559c0,0.101 -0.042,0.193 -0.109,0.26 -0.066,0.066 -0.158,0.108 -0.259,0.108l-7.44 0c-0.101,0 -0.193,-0.041 -0.26,-0.108l-0.011 -0.013c-0.06,-0.065 -0.097,-0.152 -0.097,-0.247l0 -9.628zm0.344 -0.024c-0.006,0.006 -0.01,0.014 -0.01,0.024l0 9.628c0,0.008 0.003,0.015 0.007,0.02l0.003 0.004c0.007,0.006 0.015,0.01 0.024,0.01l7.44 0c0.009,0 0.017,-0.004 0.023,-0.01 0.007,-0.006 0.01,-0.015 0.01,-0.024l0 -7.489 -2.172 -2.173 -5.301 0c-0.01,0 -0.018,0.004 -0.024,0.01z"/>
    <path class="fil2" d="M2.219 5.045c-0.093,0 -0.168,-0.075 -0.168,-0.167 0,-0.093 0.075,-0.168 0.168,-0.168l5.148 0c0.092,0 0.167,0.075 0.167,0.168 0,0.092 -0.075,0.167 -0.167,0.167l-5.148 0z"/>
    <path class="fil2" d="M2.219 3.737c-0.093,0 -0.168,-0.075 -0.168,-0.167 0,-0.092 0.075,-0.167 0.168,-0.167l3.121 0c0.092,0 0.167,0.075 0.167,0.167 0,0.092 -0.075,0.167 -0.167,0.167l-3.121 0z"/>
    <path class="fil2" d="M2.219 6.352c-0.093,0 -0.168,-0.075 -0.168,-0.167 0,-0.092 0.075,-0.167 0.168,-0.167l5.148 0c0.092,0 0.167,0.075 0.167,0.167 0,0.092 -0.075,0.167 -0.167,0.167l-5.148 0z"/>
    <path class="fil2" d="M2.219 7.66c-0.093,0 -0.168,-0.075 -0.168,-0.167 0,-0.093 0.075,-0.168 0.168,-0.168l5.148 0c0.092,0 0.167,0.075 0.167,0.168 0,0.092 -0.075,0.167 -0.167,0.167l-5.148 0z"/>
    <path class="fil2" d="M2.219 8.967c-0.093,0 -0.168,-0.075 -0.168,-0.167 0,-0.092 0.075,-0.167 0.168,-0.167l2.33 0c0.092,0 0.167,0.075 0.167,0.167 0,0.092 -0.075,0.167 -0.167,0.167l-2.33 0z"/>
    <path class="fil3" d="M8.714 3.44l-2.077 0c-0.107,0 -0.194,-0.087 -0.194,-0.193l0 -2.077 2.271 2.27z"/>
    <path class="fil2" d="M8.714 3.608l-2.077 0c-0.099,0 -0.189,-0.041 -0.254,-0.106 -0.066,-0.066 -0.107,-0.156 -0.107,-0.255l0 -2.077c0,-0.092 0.075,-0.167 0.167,-0.167 0.048,0 0.09,0.019 0.12,0.051l2.269 2.268c0.065,0.065 0.065,0.171 0,0.237 -0.033,0.032 -0.076,0.049 -0.118,0.049zm-2.077 -0.335l1.673 0 -1.7 -1.699 0 1.673c0,0.007 0.003,0.014 0.008,0.019 0.005,0.004 0.011,0.007 0.019,0.007z"/>
    <path class="fil4" d="M11.03 1.896l0.556 0c0.157,0 0.285,0.128 0.285,0.285l0 7.104 -0.563 0.952 -0.563 -0.952 0 -7.104c0,-0.157 0.128,-0.285 0.285,-0.285z"/>
    <path class="fil5" d="M11.03 1.729l0.556 0c0.124,0 0.238,0.051 0.319,0.132l0.011 0.012c0.076,0.081 0.122,0.19 0.122,0.308l0 7.104c0,0.03 -0.009,0.059 -0.024,0.084l-0.563 0.953c-0.046,0.079 -0.149,0.105 -0.228,0.059 -0.026,-0.016 -0.046,-0.037 -0.06,-0.061l-0.562 -0.951c-0.018,-0.03 -0.025,-0.063 -0.023,-0.095l0 -7.093c-0.001,-0.124 0.05,-0.238 0.132,-0.32 0.082,-0.081 0.195,-0.132 0.32,-0.132zm0.556 0.334l-0.556 0c-0.032,0 -0.062,0.013 -0.083,0.035 -0.022,0.021 -0.035,0.051 -0.035,0.083l-0.001 7.057 0.397 0.671 0.397 -0.671 -0.001 -7.057c0,-0.03 -0.011,-0.057 -0.029,-0.078l-0.006 -0.005c-0.021,-0.021 -0.051,-0.035 -0.083,-0.035z"/>
    <path class="fil5" d="M11.871 2.563c-0.092,0 -0.167,-0.075 -0.167,-0.167 0,-0.093 0.075,-0.168 0.167,-0.168l0.438 0c0.099,0 0.189,0.041 0.254,0.106 0.065,0.065 0.105,0.155 0.105,0.254l0 2.263c0,0.093 -0.075,0.167 -0.167,0.167 -0.092,0 -0.167,-0.074 -0.167,-0.167l0 -2.263c0,-0.007 -0.003,-0.013 -0.008,-0.018 -0.004,-0.004 -0.011,-0.007 -0.017,-0.007l-0.438 0z"/>
    <path class="fil5" d="M10.745 5.233c-0.093,0 -0.168,-0.075 -0.168,-0.167 0,-0.092 0.075,-0.167 0.168,-0.167l1.126 0c0.092,0 0.167,0.075 0.167,0.167 0,0.092 -0.075,0.167 -0.167,0.167l-1.126 0z"/>
    <path class="fil5" d="M11.475 10.474c0,0.092 -0.075,0.167 -0.167,0.167 -0.092,0 -0.167,-0.075 -0.167,-0.167l0 -0.237c0,-0.092 0.075,-0.167 0.167,-0.167 0.092,0 0.167,0.075 0.167,0.167l0 0.237z"/>
    <polygon class="fil1" points="10.745,9.285 11.308,10.237 11.871,9.285 "/>
    <path class="fil2" d="M11.037 9.452l0.271 0.457 0.27 -0.457 -0.541 0zm0.127 0.87l-0.558 -0.944c-0.018,-0.027 -0.029,-0.059 -0.029,-0.093 0,-0.093 0.075,-0.168 0.168,-0.168l1.126 0c0.029,0.001 0.058,0.008 0.085,0.024 0.079,0.047 0.106,0.149 0.059,0.228l-0.563 0.951c-0.014,0.024 -0.034,0.045 -0.059,0.061 -0.08,0.046 -0.182,0.02 -0.229,-0.059z"/>
   </g>
  </g>
 </g>
</svg>
