<?xml version="1.0" encoding="UTF-8"?>
<!DOCTYPE svg PUBLIC "-//W3C//DTD SVG 1.1//EN" "http://www.w3.org/Graphics/SVG/1.1/DTD/svg11.dtd">
<!-- Creator: CorelDRAW 2018 (64-Bit) -->
<svg xmlns="http://www.w3.org/2000/svg" xml:space="preserve" width="40px" height="40px" version="1.1" style="shape-rendering:geometricPrecision; text-rendering:geometricPrecision; image-rendering:optimizeQuality; fill-rule:evenodd; clip-rule:evenodd"
viewBox="0 0 4.56 4.56"
 xmlns:xlink="http://www.w3.org/1999/xlink">
 <defs>
  <style type="text/css">
   <![CDATA[
    .fil0 {fill:none}
    .fil5 {fill:#00F4FF}
    .fil3 {fill:#EAEDF2}
    .fil1 {fill:white}
    .fil4 {fill:gray;fill-rule:nonzero}
    .fil2 {fill:gray;fill-rule:nonzero}
   ]]>
  </style>
 </defs>
 <g id="Layer_x0020_1">
  <metadata id="CorelCorpID_0Corel-Layer"/>
  <g id="_1781108037872">
   <rect class="fil0" width="4.56" height="4.56"/>
   <g>
    <path class="fil1" d="M0.539 0.741l3.482 0c0.077,0 0.14,0.063 0.14,0.14l0 2.384c0,0.077 -0.063,0.14 -0.14,0.14l-3.482 0c-0.077,0 -0.14,-0.063 -0.14,-0.14l0 -2.384c0,-0.077 0.063,-0.14 0.14,-0.14z"/>
    <path class="fil2" d="M0.539 0.684l3.482 0c0.054,0 0.104,0.022 0.139,0.058 0.036,0.036 0.058,0.085 0.058,0.139l0 2.384c0,0.054 -0.022,0.103 -0.057,0.139 -0.036,0.036 -0.086,0.058 -0.14,0.058l-3.482 0c-0.054,0 -0.103,-0.022 -0.139,-0.058 -0.036,-0.036 -0.058,-0.085 -0.058,-0.139l0 -2.384c0,-0.054 0.022,-0.103 0.058,-0.139 0.036,-0.036 0.085,-0.058 0.139,-0.058zm3.482 0.114l-3.482 0c-0.023,0 -0.044,0.009 -0.059,0.024 -0.015,0.016 -0.024,0.036 -0.024,0.059l0 2.384c0,0.023 0.009,0.044 0.024,0.059 0.015,0.015 0.036,0.024 0.059,0.024l3.482 0c0.023,0 0.044,-0.009 0.059,-0.024 0.015,-0.015 0.024,-0.036 0.024,-0.059l0 -2.384c0,-0.023 -0.009,-0.043 -0.024,-0.058 -0.015,-0.016 -0.036,-0.025 -0.059,-0.025z"/>
    <path class="fil3" d="M0.197 3.819l4.166 0c0.077,0 0.14,-0.063 0.14,-0.14l0 -0.134c0,-0.077 -0.063,-0.14 -0.14,-0.14l-4.166 0c-0.077,0 -0.14,0.063 -0.14,0.14l0 0.134c0,0.077 0.063,0.14 0.14,0.14z"/>
    <path class="fil2" d="M0.197 3.762l4.166 0c0.023,0 0.044,-0.009 0.059,-0.024 0.015,-0.015 0.024,-0.036 0.024,-0.059l0 -0.134c0,-0.023 -0.009,-0.043 -0.024,-0.058 -0.015,-0.016 -0.036,-0.025 -0.059,-0.025l-4.166 0c-0.023,0 -0.044,0.009 -0.059,0.024 -0.015,0.015 -0.024,0.036 -0.024,0.059l0 0.134c0,0.023 0.009,0.044 0.025,0.059 0.015,0.015 0.035,0.024 0.058,0.024zm4.166 0.114l-4.166 0c-0.054,0 -0.103,-0.022 -0.139,-0.057 -0.036,-0.036 -0.058,-0.086 -0.058,-0.14l0 -0.134c0,-0.054 0.022,-0.103 0.058,-0.139 0.036,-0.036 0.085,-0.058 0.139,-0.058l4.166 0c0.054,0 0.104,0.022 0.139,0.058 0.036,0.036 0.058,0.085 0.058,0.139l0 0.134c0,0.054 -0.022,0.104 -0.057,0.139 -0.036,0.036 -0.085,0.058 -0.14,0.058z"/>
    <path class="fil4" d="M2.117 3.669c-0.032,0 -0.057,-0.026 -0.057,-0.057 0,-0.032 0.025,-0.057 0.057,-0.057l0.327 0c0.031,0 0.057,0.025 0.057,0.057 0,0.031 -0.026,0.057 -0.057,0.057l-0.327 0z"/>
    <path class="fil5" d="M3.278 2.131c0.056,0.018 0.107,0.048 0.151,0.087l0.186 -0.056c0.038,0.047 0.068,0.099 0.09,0.156l-0.142 0.133c0.006,0.028 0.009,0.058 0.009,0.088 0,0.029 -0.003,0.059 -0.009,0.087l0.142 0.133c-0.022,0.057 -0.052,0.109 -0.09,0.156l-0.186 -0.056c-0.044,0.039 -0.095,0.069 -0.151,0.087l-0.045 0.19c-0.029,0.004 -0.059,0.006 -0.09,0.006 -0.031,0 -0.061,-0.002 -0.09,-0.006l-0.044 -0.19c-0.057,-0.018 -0.108,-0.048 -0.152,-0.087l-0.186 0.056c-0.037,-0.047 -0.068,-0.099 -0.09,-0.156l0.142 -0.133c-0.006,-0.028 -0.009,-0.058 -0.009,-0.087 0,-0.03 0.003,-0.06 0.009,-0.088l-0.142 -0.133c0.022,-0.057 0.053,-0.109 0.09,-0.156l0.186 0.056c0.044,-0.039 0.095,-0.069 0.152,-0.087l0.044 -0.19c0.029,-0.004 0.059,-0.006 0.09,-0.006 0.031,0 0.061,0.002 0.09,0.006l0.045 0.19zm-0.135 0.217c0.105,0 0.19,0.085 0.19,0.191 0,0.105 -0.085,0.19 -0.19,0.19 -0.105,0 -0.19,-0.085 -0.19,-0.19 0,-0.106 0.085,-0.191 0.19,-0.191z"/>
    <path class="fil2" d="M3.326 2.088c0.021,0.008 0.041,0.018 0.06,0.029 0.019,0.012 0.038,0.024 0.056,0.038l0.157 -0.048c0.024,-0.007 0.049,0.003 0.063,0.022 0.019,0.025 0.037,0.051 0.053,0.079 0.017,0.029 0.031,0.058 0.043,0.089 0.009,0.023 0.002,0.049 -0.015,0.064l-0.118 0.111 0.002 0.017c0.001,0.017 0.002,0.034 0.002,0.05 0,0.015 -0.001,0.032 -0.002,0.049l-0.002 0.017 0.119 0.113c0.018,0.016 0.023,0.041 0.014,0.062 -0.012,0.03 -0.026,0.06 -0.043,0.089 -0.016,0.029 -0.035,0.056 -0.055,0.082 -0.015,0.018 -0.04,0.025 -0.061,0.019l-0.158 -0.048c-0.017,0.014 -0.036,0.027 -0.055,0.038 -0.019,0.011 -0.039,0.021 -0.06,0.029l-0.037 0.16c-0.006,0.023 -0.025,0.04 -0.048,0.043 -0.016,0.002 -0.032,0.004 -0.049,0.006l-0.001 0c-0.017,0.001 -0.033,0.001 -0.048,0.001 -0.016,0 -0.032,0 -0.049,-0.001 -0.017,-0.002 -0.033,-0.004 -0.049,-0.006 -0.025,-0.003 -0.043,-0.022 -0.048,-0.045l-0.037 -0.158c-0.021,-0.008 -0.041,-0.018 -0.06,-0.029 -0.019,-0.011 -0.038,-0.024 -0.055,-0.038l-0.158 0.048c-0.025,0.007 -0.051,-0.003 -0.064,-0.024 -0.02,-0.025 -0.037,-0.051 -0.052,-0.077 -0.017,-0.029 -0.031,-0.058 -0.043,-0.089 -0.009,-0.023 -0.002,-0.049 0.016,-0.064l0.117 -0.111 -0.002 -0.017c-0.001,-0.017 -0.002,-0.034 -0.002,-0.049 0,-0.016 0.001,-0.033 0.002,-0.05l0.002 -0.017 -0.119 -0.113c-0.018,-0.016 -0.022,-0.041 -0.014,-0.062 0.012,-0.031 0.026,-0.06 0.043,-0.089 0.016,-0.029 0.035,-0.056 0.056,-0.082 0.015,-0.018 0.039,-0.025 0.06,-0.019l0.157 0.048c0.018,-0.014 0.037,-0.026 0.056,-0.038 0.019,-0.011 0.039,-0.021 0.06,-0.029l0.037 -0.16c0.006,-0.023 0.025,-0.04 0.047,-0.043 0.016,-0.002 0.033,-0.004 0.05,-0.005l0.001 -0.001c0.017,-0.001 0.033,-0.001 0.048,-0.001 0.016,0 0.032,0 0.049,0.002 0.017,0.001 0.034,0.003 0.05,0.005 0.024,0.004 0.043,0.023 0.047,0.046l0.037 0.157zm0.003 0.128c-0.021,-0.013 -0.045,-0.023 -0.069,-0.031 -0.018,-0.006 -0.033,-0.021 -0.038,-0.041l-0.035 -0.151 -0.003 0c-0.013,-0.001 -0.026,-0.001 -0.041,-0.001 -0.014,0 -0.027,0 -0.04,0.001l-0.004 0 -0.035 0.149c-0.003,0.019 -0.017,0.036 -0.038,0.043 -0.024,0.008 -0.048,0.018 -0.069,0.031 -0.022,0.012 -0.043,0.028 -0.062,0.045 -0.014,0.012 -0.034,0.018 -0.054,0.012l-0.148 -0.045c-0.009,0.012 -0.016,0.024 -0.024,0.037 -0.007,0.013 -0.014,0.025 -0.02,0.039l0.113 0.106c0.013,0.013 0.02,0.033 0.016,0.053 -0.002,0.012 -0.004,0.024 -0.005,0.036l0 0.001c-0.002,0.012 -0.002,0.025 -0.002,0.039 0,0.013 0,0.026 0.002,0.038 0.001,0.012 0.002,0.023 0.005,0.035 0.005,0.019 -0.001,0.041 -0.016,0.055l-0.113 0.106c0.006,0.013 0.013,0.026 0.02,0.039 0.008,0.013 0.015,0.025 0.024,0.037l0.148 -0.045c0.018,-0.005 0.039,-0.001 0.054,0.013 0.019,0.016 0.04,0.031 0.062,0.044 0.021,0.013 0.045,0.023 0.069,0.031 0.019,0.006 0.033,0.021 0.038,0.041l0.035 0.151 0.003 0c0.013,0.001 0.027,0.001 0.041,0.001 0.014,0 0.027,0 0.04,-0.001l0.004 0 0.035 -0.149c0.004,-0.019 0.018,-0.036 0.038,-0.043 0.024,-0.008 0.048,-0.018 0.069,-0.031 0.021,-0.012 0.041,-0.026 0.058,-0.041 0.015,-0.015 0.037,-0.022 0.058,-0.016l0.148 0.045c0.009,-0.012 0.017,-0.024 0.024,-0.037 0.007,-0.013 0.014,-0.026 0.02,-0.039l-0.112 -0.106c-0.014,-0.013 -0.021,-0.033 -0.017,-0.052 0.002,-0.012 0.004,-0.024 0.005,-0.037l0.001 -0.001c0.001,-0.012 0.001,-0.025 0.001,-0.038 0,-0.014 0,-0.027 -0.001,-0.039 -0.002,-0.012 -0.003,-0.024 -0.006,-0.035 -0.005,-0.019 0.001,-0.041 0.017,-0.055l0.112 -0.106c-0.006,-0.014 -0.013,-0.026 -0.02,-0.039 -0.008,-0.013 -0.015,-0.025 -0.024,-0.037l-0.148 0.045c-0.018,0.005 -0.039,0.001 -0.054,-0.013 -0.019,-0.016 -0.039,-0.031 -0.062,-0.044zm-0.186 0.075c0.068,0 0.13,0.028 0.175,0.073 0.045,0.044 0.072,0.106 0.072,0.175 0,0.068 -0.027,0.129 -0.072,0.174 -0.045,0.045 -0.107,0.073 -0.175,0.073 -0.068,0 -0.13,-0.028 -0.175,-0.073 -0.045,-0.044 -0.072,-0.106 -0.072,-0.174 0,-0.069 0.027,-0.131 0.072,-0.175l0.004 -0.004c0.044,-0.042 0.105,-0.069 0.171,-0.069zm0.094 0.153c-0.024,-0.024 -0.057,-0.039 -0.094,-0.039 -0.036,0 -0.068,0.014 -0.092,0.037l-0.002 0.002c-0.024,0.024 -0.039,0.058 -0.039,0.095 0,0.036 0.015,0.07 0.039,0.094 0.024,0.024 0.057,0.039 0.094,0.039 0.037,0 0.07,-0.015 0.094,-0.039 0.025,-0.024 0.039,-0.057 0.039,-0.094 0,-0.037 -0.015,-0.071 -0.039,-0.095z"/>
    <path class="fil5" d="M1.892 1.25c0.049,0.014 0.095,0.033 0.138,0.057l0.23 -0.112c0.047,0.039 0.091,0.082 0.129,0.13l-0.112 0.229c0.024,0.043 0.044,0.089 0.057,0.138l0.242 0.083c0.003,0.03 0.005,0.061 0.005,0.092 0,0.03 -0.002,0.061 -0.005,0.091l-0.242 0.083c-0.013,0.049 -0.033,0.095 -0.057,0.138l0.112 0.229c-0.038,0.048 -0.082,0.091 -0.129,0.13l-0.23 -0.112c-0.043,0.024 -0.089,0.043 -0.138,0.057l-0.083 0.241c-0.03,0.004 -0.06,0.005 -0.091,0.005 -0.031,0 -0.062,-0.001 -0.092,-0.005l-0.083 -0.241c-0.048,-0.014 -0.094,-0.033 -0.138,-0.057l-0.229 0.112c-0.048,-0.039 -0.091,-0.082 -0.13,-0.13l0.113 -0.229c-0.025,-0.043 -0.044,-0.089 -0.058,-0.138l-0.241 -0.083c-0.003,-0.03 -0.005,-0.061 -0.005,-0.091 0,-0.031 0.002,-0.062 0.005,-0.092l0.241 -0.083c0.014,-0.049 0.033,-0.095 0.058,-0.138l-0.113 -0.229c0.039,-0.048 0.082,-0.091 0.13,-0.13l0.229 0.112c0.044,-0.024 0.09,-0.043 0.138,-0.057l0.083 -0.241c0.03,-0.004 0.061,-0.005 0.092,-0.005 0.031,0 0.061,0.001 0.091,0.005l0.083 0.241zm-0.174 0.292c0.179,0 0.324,0.145 0.324,0.325 0,0.179 -0.145,0.324 -0.324,0.324 -0.179,0 -0.324,-0.145 -0.324,-0.324 0,-0.18 0.145,-0.325 0.324,-0.325z"/>
    <path class="fil4" d="M1.937 1.204c0.016,0.005 0.032,0.011 0.048,0.018 0.015,0.006 0.031,0.014 0.046,0.021l0.204 -0.099c0.021,-0.011 0.047,-0.006 0.063,0.009 0.025,0.02 0.048,0.041 0.07,0.063 0.023,0.023 0.045,0.048 0.066,0.073 0.014,0.018 0.016,0.041 0.006,0.061l-0.099 0.203c0.008,0.015 0.015,0.031 0.021,0.046 0.007,0.016 0.013,0.032 0.018,0.049l0.214 0.073c0.023,0.008 0.038,0.029 0.039,0.051 0.001,0.015 0.002,0.03 0.003,0.046 0.001,0.018 0.002,0.034 0.002,0.049 0,0.014 -0.001,0.031 -0.002,0.049 -0.001,0.016 -0.002,0.032 -0.004,0.048 -0.002,0.023 -0.017,0.041 -0.038,0.048l-0.214 0.074c-0.005,0.016 -0.011,0.032 -0.018,0.047 -0.006,0.016 -0.013,0.032 -0.021,0.047l0.099 0.203c0.011,0.022 0.007,0.047 -0.009,0.064 -0.02,0.025 -0.041,0.048 -0.063,0.07l-0.003 0.003c-0.022,0.022 -0.045,0.043 -0.07,0.062 -0.017,0.014 -0.041,0.016 -0.06,0.007l-0.204 -0.099c-0.015,0.007 -0.03,0.015 -0.046,0.021 -0.016,0.007 -0.032,0.013 -0.048,0.018l-0.074 0.214c-0.008,0.023 -0.028,0.037 -0.051,0.038 -0.015,0.002 -0.03,0.003 -0.045,0.004l-0.001 0c-0.018,0.001 -0.034,0.001 -0.048,0.001 -0.015,0 -0.031,0 -0.049,-0.001 -0.016,-0.001 -0.032,-0.002 -0.048,-0.004 -0.023,-0.002 -0.041,-0.018 -0.048,-0.038l-0.074 -0.214c-0.016,-0.005 -0.032,-0.011 -0.048,-0.018l-0.003 -0.001c-0.015,-0.006 -0.029,-0.013 -0.044,-0.02l-0.203 0.099c-0.022,0.011 -0.047,0.006 -0.063,-0.009 -0.025,-0.02 -0.048,-0.041 -0.07,-0.063 -0.023,-0.023 -0.045,-0.047 -0.066,-0.073 -0.015,-0.018 -0.016,-0.043 -0.006,-0.063l0.099 -0.201c-0.008,-0.015 -0.015,-0.031 -0.022,-0.047 -0.006,-0.015 -0.012,-0.031 -0.018,-0.047l-0.214 -0.074c-0.022,-0.008 -0.037,-0.029 -0.038,-0.052 -0.001,-0.014 -0.003,-0.029 -0.003,-0.044 -0.001,-0.018 -0.002,-0.035 -0.002,-0.049 0,-0.015 0.001,-0.032 0.002,-0.05l0 0c0,-0.016 0.002,-0.032 0.003,-0.048 0.003,-0.023 0.018,-0.041 0.039,-0.048l0.214 -0.073c0.005,-0.017 0.011,-0.033 0.017,-0.048 0.007,-0.016 0.014,-0.032 0.022,-0.047l-0.1 -0.203c-0.01,-0.022 -0.006,-0.047 0.01,-0.064 0.02,-0.025 0.041,-0.048 0.062,-0.07 0.023,-0.022 0.047,-0.044 0.073,-0.065 0.018,-0.014 0.042,-0.016 0.061,-0.007l0.203 0.099c0.016,-0.007 0.031,-0.015 0.047,-0.021 0.016,-0.007 0.032,-0.013 0.048,-0.018l0.073 -0.214c0.008,-0.023 0.029,-0.037 0.052,-0.038 0.015,-0.002 0.03,-0.003 0.045,-0.004 0.018,-0.001 0.034,-0.001 0.049,-0.001 0.014,0 0.031,0 0.049,0.001 0.016,0.001 0.032,0.002 0.048,0.004 0.023,0.002 0.041,0.018 0.048,0.038l0.074 0.214zm0.004 0.123c-0.02,-0.008 -0.041,-0.016 -0.062,-0.022 -0.018,-0.004 -0.034,-0.017 -0.04,-0.037l-0.071 -0.206 -0.007 0c-0.012,-0.001 -0.027,-0.001 -0.043,-0.001 -0.016,0 -0.031,0 -0.043,0.001l-0.007 0 -0.071 0.206c-0.006,0.018 -0.02,0.032 -0.038,0.037 -0.022,0.006 -0.043,0.013 -0.064,0.022 -0.021,0.008 -0.041,0.018 -0.06,0.029 -0.016,0.01 -0.037,0.011 -0.054,0.002l-0.197 -0.095c-0.012,0.01 -0.024,0.022 -0.036,0.034 -0.012,0.012 -0.023,0.024 -0.034,0.036l0.096 0.196c0.008,0.016 0.008,0.036 -0.002,0.053 -0.011,0.02 -0.021,0.04 -0.03,0.061 -0.008,0.02 -0.015,0.041 -0.021,0.062 -0.005,0.018 -0.018,0.034 -0.037,0.041l-0.206 0.071 -0.001 0.007c-0.001,0.012 -0.001,0.026 -0.001,0.043 0,0.016 0,0.03 0.001,0.043l0.001 0.006 0.206 0.071c0.017,0.006 0.031,0.02 0.036,0.039 0.006,0.021 0.014,0.043 0.022,0.064 0.009,0.02 0.019,0.04 0.029,0.06 0.01,0.016 0.012,0.036 0.003,0.054l-0.096 0.196c0.011,0.012 0.023,0.025 0.034,0.037 0.012,0.011 0.024,0.023 0.036,0.034l0.197 -0.096c0.016,-0.008 0.035,-0.008 0.052,0.001 0.02,0.011 0.039,0.021 0.059,0.029l0.003 0.001c0.02,0.008 0.041,0.016 0.062,0.022 0.018,0.004 0.034,0.017 0.04,0.037l0.071 0.206 0.007 0c0.012,0.001 0.027,0.001 0.043,0.001 0.016,0 0.03,0 0.042,-0.001l0.008 0 0.071 -0.206c0.006,-0.017 0.019,-0.031 0.038,-0.037 0.022,-0.006 0.043,-0.013 0.064,-0.022 0.021,-0.008 0.041,-0.018 0.06,-0.029 0.016,-0.01 0.036,-0.011 0.054,-0.002l0.197 0.096c0.011,-0.011 0.022,-0.021 0.033,-0.032l0.003 -0.003c0.012,-0.012 0.023,-0.024 0.034,-0.036l-0.096 -0.196c-0.008,-0.016 -0.008,-0.036 0.002,-0.053 0.011,-0.02 0.021,-0.04 0.029,-0.061 0.009,-0.02 0.016,-0.041 0.022,-0.062 0.004,-0.018 0.018,-0.034 0.037,-0.041l0.206 -0.071 0.001 -0.006c0,-0.013 0.001,-0.027 0.001,-0.043 0,-0.017 -0.001,-0.031 -0.001,-0.043l-0.001 -0.007 -0.206 -0.071c-0.017,-0.006 -0.031,-0.02 -0.036,-0.039 -0.007,-0.022 -0.014,-0.043 -0.023,-0.064 -0.008,-0.02 -0.018,-0.04 -0.029,-0.06 -0.009,-0.015 -0.011,-0.036 -0.002,-0.054l0.096 -0.196c-0.011,-0.013 -0.022,-0.025 -0.034,-0.036 -0.012,-0.012 -0.024,-0.023 -0.036,-0.034l-0.197 0.095c-0.016,0.008 -0.035,0.008 -0.052,-0.001 -0.02,-0.011 -0.04,-0.021 -0.062,-0.03zm-0.223 0.158c0.105,0 0.2,0.043 0.269,0.112l0.004 0.003c0.067,0.069 0.108,0.163 0.108,0.267 0,0.105 -0.043,0.2 -0.112,0.269 -0.069,0.069 -0.164,0.112 -0.269,0.112 -0.105,0 -0.2,-0.043 -0.269,-0.112 -0.07,-0.069 -0.112,-0.164 -0.112,-0.269 0,-0.106 0.042,-0.201 0.111,-0.27l0.004 -0.003c0.068,-0.067 0.162,-0.109 0.266,-0.109zm0.189 0.193c-0.048,-0.049 -0.115,-0.079 -0.189,-0.079 -0.073,0 -0.138,0.029 -0.186,0.076l-0.003 0.003c-0.048,0.048 -0.078,0.115 -0.078,0.189 0,0.073 0.03,0.14 0.078,0.189 0.048,0.048 0.115,0.078 0.189,0.078 0.074,0 0.141,-0.03 0.189,-0.078 0.048,-0.049 0.078,-0.116 0.078,-0.189 0,-0.073 -0.029,-0.139 -0.075,-0.187l-0.003 -0.002z"/>
   </g>
  </g>
 </g>
</svg>
