<?xml version="1.0" encoding="UTF-8"?>
<!DOCTYPE svg PUBLIC "-//W3C//DTD SVG 1.1//EN" "http://www.w3.org/Graphics/SVG/1.1/DTD/svg11.dtd">
<!-- Creator: CorelDRAW 2018 (64-Bit) -->
<svg xmlns="http://www.w3.org/2000/svg" xml:space="preserve" width="13px" height="13px" version="1.1" style="shape-rendering:geometricPrecision; text-rendering:geometricPrecision; image-rendering:optimizeQuality; fill-rule:evenodd; clip-rule:evenodd"
viewBox="0 0 0.425 0.425"
 xmlns:xlink="http://www.w3.org/1999/xlink">
 <defs>
  <style type="text/css">
   <![CDATA[
    .str1 {stroke:gray;stroke-width:0.033;stroke-miterlimit:22.9256}
    .str0 {stroke:gray;stroke-width:0.033;stroke-linecap:round;stroke-linejoin:round;stroke-miterlimit:22.9256}
    .fil0 {fill:none;fill-rule:nonzero}
   ]]>
  </style>
 </defs>
 <g id="Layer_x0020_1">
  <metadata id="CorelCorpID_0Corel-Layer"/>
  <g id="_2237500025328">
   <path class="fil0 str0" d="M0.213 0.016c0.108,0 0.196,0.088 0.196,0.197 0,0.108 -0.088,0.196 -0.196,0.196 -0.109,0 -0.197,-0.088 -0.197,-0.196 0,-0.109 0.088,-0.197 0.197,-0.197z"/>
   <line class="fil0 str0" x1="0.312" y1="0.118" x2="0.231" y2= "0.199" />
   <line class="fil0 str0" x1="0.191" y1="0.203" x2="0.121" y2= "0.162" />
   <path class="fil0 str1" d="M0.213 0.191c-0.013,0 -0.022,0.009 -0.022,0.022 0,0.012 0.009,0.022 0.022,0.022 0.012,0 0.022,-0.01 0.022,-0.022 0,-0.013 -0.01,-0.022 -0.022,-0.022z"/>
   <line class="fil0 str0" x1="0.213" y1="0.064" x2="0.213" y2= "0.077" />
   <line class="fil0 str0" x1="0.064" y1="0.213" x2="0.077" y2= "0.213" />
   <line class="fil0 str0" x1="0.213" y1="0.362" x2="0.213" y2= "0.348" />
   <line class="fil0 str0" x1="0.362" y1="0.213" x2="0.348" y2= "0.213" />
  </g>
 </g>
</svg>
