<?xml version="1.0" encoding="UTF-8"?>
<!DOCTYPE svg PUBLIC "-//W3C//DTD SVG 1.1//EN" "http://www.w3.org/Graphics/SVG/1.1/DTD/svg11.dtd">
<!-- Creator: CorelDRAW 2018 (64-Bit) -->
<svg xmlns="http://www.w3.org/2000/svg" xml:space="preserve" width="40px" height="40px" version="1.1" style="shape-rendering:geometricPrecision; text-rendering:geometricPrecision; image-rendering:optimizeQuality; fill-rule:evenodd; clip-rule:evenodd"
viewBox="0 0 3.469 3.469"
 xmlns:xlink="http://www.w3.org/1999/xlink">
 <defs>
  <style type="text/css">
   <![CDATA[
    .fil0 {fill:none}
    .fil3 {fill:#00F4FF}
    .fil5 {fill:#EAEDF2}
    .fil1 {fill:white}
    .fil4 {fill:gray;fill-rule:nonzero}
    .fil2 {fill:gray;fill-rule:nonzero}
   ]]>
  </style>
 </defs>
 <g id="Layer_x0020_1">
  <metadata id="CorelCorpID_0Corel-Layer"/>
  <g id="_1743960789728">
   <rect class="fil0" width="3.469" height="3.469"/>
   <g>
    <path class="fil1" d="M2.487 2.877c0.031,0 0.057,-0.026 0.057,-0.057l0 -1.682 -0.485 -0.485 -1.916 0c-0.032,0 -0.057,0.026 -0.057,0.057l0 2.11c0,0.031 0.025,0.057 0.057,0.057 0.91,0 1.434,0 2.344,0z"/>
    <path class="fil2" d="M2.487 2.835c0.004,0 0.008,-0.002 0.01,-0.005 0.003,-0.002 0.005,-0.006 0.005,-0.01l0 -1.664 -0.461 -0.46 -1.898 0c-0.004,0 -0.008,0.001 -0.011,0.004 -0.002,0.003 -0.004,0.006 -0.004,0.01l0 2.11c0,0.004 0.002,0.008 0.004,0.01 0.003,0.003 0.007,0.005 0.011,0.005l2.344 0zm0.07 0.055c-0.018,0.018 -0.043,0.029 -0.07,0.029l-2.344 0c-0.028,0 -0.053,-0.011 -0.071,-0.029 -0.017,-0.018 -0.029,-0.043 -0.029,-0.07l0 -2.11c0,-0.027 0.012,-0.052 0.029,-0.07l0.001 0c0.018,-0.018 0.043,-0.029 0.07,-0.029l1.916 0c0.011,0 0.021,0.004 0.03,0.012l0.484 0.485c0.008,0.008 0.013,0.018 0.013,0.03l0 1.682c0,0.027 -0.011,0.052 -0.029,0.07z"/>
    <polygon class="fil3" points="2.899,0.772 3.384,0.772 3.384,2.759 2.899,2.759 "/>
    <path class="fil2" d="M2.899 0.73l0.485 0c0.023,0 0.042,0.018 0.042,0.042l0 1.987c0,0.023 -0.019,0.042 -0.042,0.042l-0.485 0c-0.024,0 -0.043,-0.019 -0.043,-0.042l0 -1.987c0,-0.024 0.019,-0.042 0.043,-0.042zm0.443 0.084l-0.401 0 0 1.902 0.401 0 0 -1.902z"/>
    <path class="fil4" d="M2.899 1.07c-0.024,0 -0.043,-0.019 -0.043,-0.042 0,-0.023 0.019,-0.042 0.043,-0.042l0.135 0c0.023,0 0.042,0.019 0.042,0.042 0,0.023 -0.019,0.042 -0.042,0.042l-0.135 0z"/>
    <path class="fil4" d="M2.899 1.316c-0.024,0 -0.043,-0.019 -0.043,-0.042 0,-0.024 0.019,-0.043 0.043,-0.043l0.27 0c0.023,0 0.042,0.019 0.042,0.043 0,0.023 -0.019,0.042 -0.042,0.042l-0.27 0z"/>
    <path class="fil4" d="M2.899 1.562c-0.024,0 -0.043,-0.019 -0.043,-0.043 0,-0.023 0.019,-0.042 0.043,-0.042l0.135 0c0.023,0 0.042,0.019 0.042,0.042 0,0.024 -0.019,0.043 -0.042,0.043l-0.135 0z"/>
    <path class="fil4" d="M2.899 1.807c-0.024,0 -0.043,-0.018 -0.043,-0.042 0,-0.023 0.019,-0.042 0.043,-0.042l0.27 0c0.023,0 0.042,0.019 0.042,0.042 0,0.024 -0.019,0.042 -0.042,0.042l-0.27 0z"/>
    <path class="fil4" d="M2.899 2.053c-0.024,0 -0.043,-0.019 -0.043,-0.042 0,-0.023 0.019,-0.042 0.043,-0.042l0.135 0c0.023,0 0.042,0.019 0.042,0.042 0,0.023 -0.019,0.042 -0.042,0.042l-0.135 0z"/>
    <path class="fil4" d="M2.899 2.299c-0.024,0 -0.043,-0.019 -0.043,-0.042 0,-0.024 0.019,-0.043 0.043,-0.043l0.27 0c0.023,0 0.042,0.019 0.042,0.043 0,0.023 -0.019,0.042 -0.042,0.042l-0.27 0z"/>
    <path class="fil4" d="M2.899 2.545c-0.024,0 -0.043,-0.019 -0.043,-0.043 0,-0.023 0.019,-0.042 0.043,-0.042l0.135 0c0.023,0 0.042,0.019 0.042,0.042 0,0.024 -0.019,0.043 -0.042,0.043l-0.135 0z"/>
    <path class="fil2" d="M2.118 1.633c0,-0.023 0.019,-0.042 0.042,-0.042 0.024,0 0.043,0.019 0.043,0.042l0 0.744c0,0.023 -0.019,0.042 -0.043,0.042l-1.094 0c-0.023,0 -0.042,-0.019 -0.042,-0.042 0,-0.023 0.019,-0.042 0.042,-0.042l1.052 0 0 -0.702z"/>
    <path class="fil2" d="M0.729 2.335c0.024,0 0.043,0.019 0.043,0.042 0,0.023 -0.019,0.042 -0.043,0.042l-0.26 0c-0.023,0 -0.042,-0.019 -0.042,-0.042l0 -1.224c0,-0.023 0.019,-0.042 0.042,-0.042l1.293 0c0.023,0 0.042,0.019 0.042,0.042 0,0.023 -0.019,0.042 -0.042,0.042l-1.251 0 0 1.14 0.218 0z"/>
    <path class="fil2" d="M1.018 1.723c0.024,0 0.042,0.019 0.042,0.042 0,0.024 -0.018,0.042 -0.042,0.042l-0.513 0c-0.023,0 -0.042,-0.018 -0.042,-0.042 0,-0.023 0.019,-0.042 0.042,-0.042l0.513 0z"/>
    <path class="fil2" d="M2.16 1.591c0.024,0 0.043,0.019 0.043,0.042 0,0.023 -0.019,0.042 -0.043,0.042l-0.513 0c-0.023,0 -0.042,-0.019 -0.042,-0.042 0,-0.023 0.019,-0.042 0.042,-0.042l0.513 0z"/>
    <path class="fil2" d="M1.273 1.647c0,-0.024 0.019,-0.042 0.042,-0.042 0.023,0 0.042,0.018 0.042,0.042l0 0.73c0,0.023 -0.019,0.042 -0.042,0.042 -0.023,0 -0.042,-0.019 -0.042,-0.042l0 -0.73z"/>
    <path class="fil2" d="M1.357 1.36c0,0.023 -0.019,0.042 -0.042,0.042 -0.023,0 -0.042,-0.019 -0.042,-0.042l0 -0.207c0,-0.023 0.019,-0.042 0.042,-0.042 0.023,0 0.042,0.019 0.042,0.042l0 0.207z"/>
    <path class="fil2" d="M1.806 1.633c0,0.023 -0.019,0.042 -0.042,0.042 -0.023,0 -0.042,-0.019 -0.042,-0.042l0 -0.48c0,-0.023 0.019,-0.042 0.042,-0.042 0.023,0 0.042,0.019 0.042,0.042l0 0.48z"/>
    <path class="fil2" d="M1.537 1.894l0.468 0c0.023,0 0.042,0.019 0.042,0.042l0 0.441c0,0.023 -0.019,0.042 -0.042,0.042l-0.468 0c-0.023,0 -0.042,-0.019 -0.042,-0.042l0 -0.441c0,-0.023 0.019,-0.042 0.042,-0.042zm0.425 0.084l-0.383 0 0 0.357 0.383 0 0 -0.357z"/>
    <path class="fil5" d="M2.059 0.653l0 0.444c0,0.023 0.018,0.041 0.041,0.041l0.444 0 -0.485 -0.485z"/>
    <path class="fil2" d="M2.101 0.755l0 0.341 0.341 0 -0.341 -0.341zm-0.085 0.342l0 -0.444c0.001,-0.011 0.005,-0.021 0.013,-0.03 0.016,-0.016 0.043,-0.016 0.06,0l0.484 0.485c0.008,0.008 0.013,0.018 0.013,0.03 0,0.024 -0.019,0.043 -0.042,0.043l-0.444 0c-0.023,0 -0.044,-0.01 -0.059,-0.025 -0.015,-0.015 -0.025,-0.036 -0.025,-0.059z"/>
   </g>
  </g>
 </g>
</svg>
