<?xml version="1.0" encoding="UTF-8"?>
<!DOCTYPE svg PUBLIC "-//W3C//DTD SVG 1.1//EN" "http://www.w3.org/Graphics/SVG/1.1/DTD/svg11.dtd">
<!-- Creator: CorelDRAW 2018 (64-Bit) -->
<svg xmlns="http://www.w3.org/2000/svg" xml:space="preserve" width="40px" height="40px" version="1.1" style="shape-rendering:geometricPrecision; text-rendering:geometricPrecision; image-rendering:optimizeQuality; fill-rule:evenodd; clip-rule:evenodd"
viewBox="0 0 12 12"
 xmlns:xlink="http://www.w3.org/1999/xlink">
 <defs>
  <style type="text/css">
   <![CDATA[
    .fil0 {fill:none}
    .fil4 {fill:#00F4FF}
    .fil5 {fill:gray}
    .fil3 {fill:#EAEDF2}
    .fil1 {fill:white}
    .fil2 {fill:gray;fill-rule:nonzero}
   ]]>
  </style>
 </defs>
 <g id="Layer_x0020_1">
  <metadata id="CorelCorpID_0Corel-Layer"/>
  <g id="_1779829023248">
   <rect class="fil0" width="12" height="12"/>
   <g>
    <path class="fil1" d="M1.142 0.64c0,-0.099 0.081,-0.18 0.18,-0.18l4.819 0 2.037 2.037 0 6.783c0,0.098 -0.081,0.18 -0.18,0.18l-6.676 0c-0.099,0 -0.18,-0.082 -0.18,-0.18 0,-2.88 0,-5.76 0,-8.64z"/>
    <path class="fil2" d="M0.992 0.64c0,-0.09 0.037,-0.173 0.097,-0.233l0.001 -0.001c0.06,-0.059 0.142,-0.096 0.232,-0.096l4.819 0c0.042,0 0.081,0.017 0.108,0.045l2.035 2.036c0.029,0.029 0.044,0.068 0.044,0.106l0 6.783c0,0.089 -0.037,0.172 -0.097,0.232 -0.059,0.06 -0.142,0.098 -0.233,0.098l-6.676 0c-0.091,0 -0.173,-0.038 -0.233,-0.097l-0.01 -0.012c-0.054,-0.058 -0.087,-0.137 -0.087,-0.221l0 -8.64zm0.309 -0.022c-0.006,0.006 -0.009,0.013 -0.009,0.022l0 8.64c0,0.006 0.002,0.012 0.006,0.017l0.003 0.004c0.006,0.005 0.013,0.009 0.021,0.009l6.676 0c0.008,0 0.016,-0.004 0.021,-0.01 0.006,-0.005 0.009,-0.012 0.009,-0.02l0 -6.721 -1.949 -1.949 -4.757 0c-0.009,0 -0.016,0.003 -0.021,0.008z"/>
    <path class="fil3" d="M8.178 2.497l-1.863 0c-0.096,0 -0.174,-0.078 -0.174,-0.174l0 -1.863 2.037 2.037z"/>
    <path class="fil2" d="M8.178 2.647l-1.863 0c-0.089,0 -0.17,-0.037 -0.229,-0.095 -0.059,-0.058 -0.095,-0.139 -0.095,-0.229l0 -1.863c0,-0.083 0.067,-0.15 0.15,-0.15 0.042,0 0.08,0.017 0.108,0.046l2.035 2.035c0.059,0.058 0.059,0.154 0,0.212 -0.029,0.029 -0.067,0.044 -0.106,0.044zm-1.863 -0.3l1.501 0 -1.525 -1.525 0 1.501c0,0.007 0.003,0.013 0.007,0.017 0.004,0.004 0.01,0.007 0.017,0.007z"/>
    <path class="fil2" d="M6.682 3.746c0.052,0.064 0.042,0.158 -0.022,0.21 -0.064,0.052 -0.158,0.042 -0.21,-0.022 -0.183,-0.224 -0.416,-0.407 -0.68,-0.533 -0.255,-0.121 -0.54,-0.189 -0.841,-0.189 -0.082,0 -0.149,-0.067 -0.149,-0.15 0,-0.082 0.067,-0.149 0.149,-0.149 0.347,0 0.676,0.078 0.969,0.218 0.305,0.144 0.572,0.356 0.784,0.615z"/>
    <path class="fil2" d="M3.335 6.778c-0.059,-0.058 -0.059,-0.153 -0.001,-0.212 0.059,-0.058 0.153,-0.058 0.212,0 0.181,0.179 0.396,0.324 0.635,0.423 0.23,0.094 0.482,0.147 0.748,0.147 0.111,0 0.218,-0.009 0.321,-0.026 0.106,-0.017 0.21,-0.044 0.311,-0.078 0.078,-0.027 0.163,0.015 0.189,0.094 0.027,0.078 -0.015,0.163 -0.093,0.19 -0.115,0.039 -0.235,0.069 -0.359,0.089 -0.122,0.02 -0.245,0.031 -0.369,0.031 -0.304,0 -0.595,-0.061 -0.861,-0.171 -0.276,-0.113 -0.525,-0.28 -0.733,-0.487z"/>
    <path class="fil2" d="M4.779 3.062c0,-0.082 0.068,-0.15 0.15,-0.15 0.083,0 0.15,0.068 0.15,0.15l0 2.091 -0.001 0.022c0,0.041 -0.017,0.078 -0.043,0.104l-1.489 1.498c-0.058,0.059 -0.153,0.059 -0.211,0.001 -0.059,-0.058 -0.059,-0.153 -0.001,-0.212l1.445 -1.454 0 -2.05z"/>
    <path class="fil2" d="M2.131 5.112c0.001,-0.083 0.068,-0.149 0.151,-0.148 0.082,0.001 0.148,0.069 0.148,0.151l-0.001 0.021c-0.001,0.082 -0.068,0.148 -0.151,0.147 -0.082,-0.001 -0.148,-0.068 -0.148,-0.151l0.001 -0.02z"/>
    <path class="fil2" d="M2.13 5.134c0,-0.083 0.067,-0.15 0.15,-0.15 0.083,0 0.15,0.067 0.15,0.15 0,0.267 0.053,0.522 0.149,0.753 0.101,0.241 0.248,0.458 0.43,0.639 0.058,0.058 0.058,0.153 0,0.211 -0.058,0.059 -0.153,0.059 -0.211,0.001 -0.21,-0.209 -0.38,-0.459 -0.495,-0.736 -0.112,-0.268 -0.173,-0.561 -0.173,-0.868z"/>
    <path class="fil2" d="M3.009 6.737c-0.058,0.059 -0.153,0.059 -0.211,0.001 -0.059,-0.058 -0.059,-0.153 -0.001,-0.212l1.255 -1.263 -1.772 0c-0.083,0 -0.15,-0.067 -0.15,-0.15 0,-0.083 0.067,-0.15 0.15,-0.15l2.112 0c0.083,0.001 0.149,0.068 0.149,0.151l0 0.016c0.001,0.039 -0.013,0.079 -0.043,0.109l-1.489 1.498z"/>
    <path class="fil2" d="M4.552 2.484c0.082,0 0.15,0.067 0.15,0.15 0,0.082 -0.068,0.15 -0.15,0.15 -0.539,0 -1.027,0.216 -1.381,0.567 -0.355,0.351 -0.576,0.837 -0.581,1.375 -0.001,0.082 -0.068,0.149 -0.151,0.148 -0.082,-0.001 -0.149,-0.068 -0.148,-0.151 0.006,-0.62 0.261,-1.18 0.669,-1.584 0.409,-0.405 0.972,-0.655 1.592,-0.655z"/>
    <path class="fil2" d="M2.44 4.875c-0.083,0 -0.15,-0.068 -0.15,-0.15 0,-0.083 0.067,-0.151 0.15,-0.151l1.962 0 0 -1.94c0,-0.083 0.067,-0.15 0.15,-0.15 0.083,0 0.15,0.067 0.15,0.15l0 2.091c0,0.082 -0.067,0.15 -0.15,0.15l-2.112 0z"/>
    <path class="fil4" d="M6.293 4.428l4.368 0c0.108,0 0.197,0.088 0.197,0.196l0 5.323c0,0.108 -0.089,0.197 -0.197,0.197l-4.368 0c-0.108,0 -0.196,-0.089 -0.196,-0.197l0 -5.323c0,-0.108 0.088,-0.196 0.196,-0.196z"/>
    <path class="fil2" d="M6.293 4.278l4.368 0c0.096,0 0.182,0.039 0.245,0.101 0.063,0.063 0.102,0.15 0.102,0.245l0 5.323c0,0.096 -0.039,0.182 -0.102,0.245 -0.063,0.063 -0.149,0.102 -0.245,0.102l-4.368 0c-0.095,0 -0.182,-0.039 -0.244,-0.102 -0.063,-0.063 -0.102,-0.149 -0.102,-0.245l0 -5.323c0,-0.095 0.039,-0.182 0.102,-0.245 0.062,-0.062 0.149,-0.101 0.244,-0.101zm4.368 0.3l-4.368 0c-0.012,0 -0.024,0.005 -0.032,0.013 -0.009,0.009 -0.014,0.02 -0.014,0.033l0 5.323c0,0.013 0.005,0.025 0.014,0.033 0.008,0.008 0.02,0.013 0.032,0.013l4.368 0c0.013,0 0.025,-0.005 0.033,-0.013 0.008,-0.008 0.014,-0.02 0.014,-0.033l0 -5.323c0,-0.013 -0.006,-0.024 -0.014,-0.033 -0.008,-0.008 -0.02,-0.013 -0.033,-0.013z"/>
    <path class="fil1" d="M6.824 5.078l3.307 0c0.043,0 0.079,0.036 0.079,0.08l0 1.185c0,0.044 -0.036,0.08 -0.079,0.08l-3.307 0c-0.044,0 -0.079,-0.036 -0.079,-0.08l0 -1.185c0,-0.044 0.035,-0.08 0.079,-0.08z"/>
    <path class="fil2" d="M6.824 4.928l3.307 0c0.062,0 0.12,0.026 0.161,0.067 0.042,0.043 0.068,0.1 0.068,0.163l0 1.185c0,0.063 -0.026,0.12 -0.067,0.162 -0.042,0.042 -0.1,0.068 -0.162,0.068l-3.307 0c-0.063,0 -0.12,-0.026 -0.162,-0.067 -0.042,-0.043 -0.067,-0.1 -0.067,-0.163l0 -1.185c0,-0.063 0.025,-0.12 0.067,-0.162 0.042,-0.042 0.099,-0.068 0.162,-0.068zm3.236 0.3l-3.165 0 0 1.045 3.165 0 0 -1.045z"/>
    <path class="fil2" d="M7.036 8.744c-0.058,-0.059 -0.058,-0.154 0,-0.212 0.059,-0.059 0.154,-0.059 0.212,0l0.773 0.772c0.058,0.058 0.058,0.154 0,0.212 -0.059,0.059 -0.154,0.059 -0.213,0l-0.772 -0.772z"/>
    <path class="fil2" d="M7.248 9.516c-0.058,0.059 -0.153,0.059 -0.212,0 -0.058,-0.058 -0.058,-0.154 0,-0.212l0.772 -0.772c0.059,-0.059 0.154,-0.059 0.213,0 0.058,0.058 0.058,0.153 0,0.212l-0.773 0.772z"/>
    <path class="fil2" d="M9.146 9.516c-0.058,0.059 -0.153,0.059 -0.212,0 -0.058,-0.058 -0.058,-0.154 0,-0.212l0.772 -0.772c0.059,-0.059 0.154,-0.059 0.212,0 0.059,0.058 0.059,0.153 0,0.212l-0.772 0.772z"/>
    <path class="fil2" d="M7.378 6.984c0,-0.083 0.068,-0.15 0.15,-0.15 0.083,0 0.15,0.067 0.15,0.15l0 1.092c0,0.083 -0.067,0.15 -0.15,0.15 -0.082,0 -0.15,-0.067 -0.15,-0.15l0 -1.092z"/>
    <path class="fil2" d="M6.982 7.68c-0.083,0 -0.15,-0.067 -0.15,-0.15 0,-0.083 0.067,-0.15 0.15,-0.15l1.092 0c0.083,0 0.15,0.067 0.15,0.15 0,0.083 -0.067,0.15 -0.15,0.15l-1.092 0z"/>
    <path class="fil2" d="M8.88 7.68c-0.083,0 -0.15,-0.067 -0.15,-0.15 0,-0.083 0.067,-0.15 0.15,-0.15l1.092 0c0.083,0 0.15,0.067 0.15,0.15 0,0.083 -0.067,0.15 -0.15,0.15l-1.092 0z"/>
    <path class="fil5" d="M9.074 8.835c-0.091,0 -0.164,-0.073 -0.164,-0.164 0,-0.09 0.073,-0.164 0.164,-0.164 0.09,0 0.164,0.074 0.164,0.164 0,0.091 -0.074,0.164 -0.164,0.164z"/>
    <path class="fil5" d="M9.779 9.541c-0.09,0 -0.164,-0.074 -0.164,-0.164 0,-0.091 0.074,-0.164 0.164,-0.164 0.091,0 0.164,0.073 0.164,0.164 0,0.09 -0.073,0.164 -0.164,0.164z"/>
   </g>
  </g>
 </g>
</svg>
