<?xml version="1.0" encoding="UTF-8"?>
<!DOCTYPE svg PUBLIC "-//W3C//DTD SVG 1.1//EN" "http://www.w3.org/Graphics/SVG/1.1/DTD/svg11.dtd">
<!-- Creator: CorelDRAW 2018 (64-Bit) -->
<svg xmlns="http://www.w3.org/2000/svg" xml:space="preserve" width="40px" height="40px" version="1.1" style="shape-rendering:geometricPrecision; text-rendering:geometricPrecision; image-rendering:optimizeQuality; fill-rule:evenodd; clip-rule:evenodd"
viewBox="0 0 1294.606 1294.587"
 xmlns:xlink="http://www.w3.org/1999/xlink">
 <defs>
  <style type="text/css">
   <![CDATA[
    .fil0 {fill:none}
    .fil3 {fill:#00F4FF}
    .fil2 {fill:white}
    .fil1 {fill:gray;fill-rule:nonzero}
   ]]>
  </style>
 </defs>
 <g id="Layer_x0020_1">
  <metadata id="CorelCorpID_0Corel-Layer"/>
  <g id="_1743922010928">
   <rect class="fil0" x="-0.005" y="-0.005" width="1294.596" height="1294.596"/>
   <g>
    <path class="fil1" d="M631.128 250.67c0,-8.936 7.248,-16.184 16.184,-16.184 8.936,0 16.183,7.248 16.183,16.184l0 800.504c0,8.936 -7.247,16.184 -16.183,16.184 -8.936,0 -16.184,-7.248 -16.184,-16.184l0 -800.504z"/>
    <path class="fil2" d="M234.587 620.413l-218.385 0c0,92.422 97.77,167.339 218.385,167.339 120.606,0 218.385,-74.917 218.385,-167.339l-218.385 0z"/>
    <path class="fil1" d="M234.587 636.596l-201.037 0c4.955,34.523 25.597,65.698 56.413,89.312 36.798,28.193 87.936,45.661 144.624,45.661 56.679,0 107.807,-17.459 144.624,-45.661 30.817,-23.614 51.459,-54.789 56.413,-89.312l-201.037 0zm-218.385 -32.367l436.77 0c8.936,0 16.184,7.248 16.184,16.184 0,51.504 -26.89,97.871 -70.349,131.165 -42.211,32.339 -100.302,52.358 -164.22,52.358 -63.926,0 -122.018,-20.019 -164.22,-52.358 -43.459,-33.294 -70.349,-79.661 -70.349,-131.165 0,-8.936 7.248,-16.184 16.184,-16.184z"/>
    <path class="fil1" d="M218.404 250.67c0,-8.936 7.247,-16.184 16.183,-16.184 8.936,0 16.184,7.248 16.184,16.184l0 309.743c0,8.936 -7.248,16.183 -16.184,16.183 -8.936,0 -16.183,-7.247 -16.183,-16.183l0 -309.743z"/>
    <path class="fil1" d="M220.679 242.45c4.532,-7.679 14.449,-10.221 22.128,-5.689 7.679,4.533 10.221,14.45 5.688,22.129l-218.385 369.743c-4.532,7.679 -14.449,10.22 -22.128,5.688 -7.679,-4.532 -10.221,-14.449 -5.688,-22.128l218.385 -369.743z"/>
    <path class="fil1" d="M220.67 258.89c-4.532,-7.679 -1.991,-17.596 5.688,-22.129 7.679,-4.532 17.596,-1.99 22.128,5.689l218.386 369.743c4.532,7.679 1.99,17.596 -5.689,22.128 -7.678,4.532 -17.596,1.991 -22.128,-5.688l-218.385 -369.743z"/>
    <path class="fil2" d="M1060.037 620.413l218.385 0c0,92.422 -97.771,167.339 -218.385,167.339 -120.606,0 -218.386,-74.917 -218.386,-167.339l218.386 0z"/>
    <path class="fil1" d="M1060.037 604.229l218.385 0c8.936,0 16.184,7.248 16.184,16.184 0,51.504 -26.89,97.871 -70.349,131.165 -42.202,32.339 -100.294,52.358 -164.22,52.358 -63.918,0 -122.009,-20.019 -164.22,-52.358 -43.459,-33.294 -70.349,-79.661 -70.349,-131.165 0,-8.936 7.248,-16.184 16.183,-16.184l218.386 0zm201.036 32.367l-402.073 0c4.954,34.523 25.596,65.698 56.413,89.312 36.816,28.202 87.945,45.661 144.624,45.661 56.688,0 107.825,-17.468 144.624,-45.661 30.816,-23.614 51.458,-54.789 56.412,-89.312z"/>
    <path class="fil1" d="M1043.853 250.67c0,-8.936 7.248,-16.184 16.184,-16.184 8.935,0 16.183,7.248 16.183,16.184l0 309.743c0,8.936 -7.248,16.183 -16.183,16.183 -8.936,0 -16.184,-7.247 -16.184,-16.183l0 -309.743z"/>
    <path class="fil1" d="M1046.128 258.89c-4.532,-7.679 -1.99,-17.596 5.689,-22.129 7.678,-4.532 17.596,-1.99 22.128,5.689l218.385 369.743c4.532,7.679 1.991,17.596 -5.688,22.128 -7.679,4.532 -17.596,1.991 -22.128,-5.688l-218.386 -369.743z"/>
    <path class="fil1" d="M1046.138 242.45c4.532,-7.679 14.449,-10.221 22.128,-5.689 7.679,4.533 10.22,14.45 5.688,22.129l-218.385 369.743c-4.532,7.679 -14.45,10.22 -22.129,5.688 -7.679,-4.532 -10.22,-14.449 -5.688,-22.128l218.386 -369.743z"/>
    <path class="fil1" d="M136.358 266.853c-8.936,0 -16.184,-7.247 -16.184,-16.183 0,-8.936 7.248,-16.184 16.184,-16.184l1021.908 0c8.936,0 16.184,7.248 16.184,16.184 0,8.936 -7.248,16.183 -16.184,16.183l-1021.908 0z"/>
    <path class="fil3" d="M387.89 974.633l518.853 0c6.385,0 11.615,5.22 11.615,11.615l0 64.119c0,6.394 -5.23,11.615 -11.615,11.615l-518.853 0c-6.395,0 -11.615,-5.221 -11.615,-11.615l0 -64.119c0,-6.395 5.22,-11.615 11.615,-11.615z"/>
    <path class="fil1" d="M387.89 958.45l518.853 0c7.578,0 14.532,3.119 19.578,8.156l0.083 0.091c5.027,5.046 8.137,11.982 8.137,19.551l0 64.119c0,7.569 -3.11,14.532 -8.156,19.578l-0.091 0.083c-5.046,5.027 -11.982,8.137 -19.551,8.137l-518.853 0c-7.569,0 -14.532,-3.11 -19.578,-8.156l-0.083 -0.082c-5.036,-5.046 -8.137,-11.991 -8.137,-19.56l0 -64.119c0,-7.597 3.119,-14.532 8.156,-19.578l0.082 -0.083c5.046,-5.037 11.991,-8.137 19.56,-8.137zm514.284 32.367l-509.715 0 0 54.981 509.715 0 0 -54.981z"/>
    <path class="fil3" d="M545.844 206.991l202.927 0c6.394,0 11.614,5.229 11.614,11.624l0 64.119c0,6.394 -5.22,11.615 -11.614,11.615l-202.927 0c-6.394,0 -11.615,-5.221 -11.615,-11.615l0 -64.119c0,-6.395 5.221,-11.624 11.615,-11.624z"/>
    <path class="fil1" d="M545.844 190.807l202.927 0c7.596,0 14.559,3.138 19.605,8.193 5.074,5 8.193,11.945 8.193,19.615l0 64.119c0,7.569 -3.11,14.532 -8.156,19.578l-0.092 0.082c-5.046,5.028 -11.963,8.138 -19.55,8.138l-202.927 0c-7.569,0 -14.532,-3.11 -19.578,-8.156l-0.083 -0.082c-5.036,-5.046 -8.137,-11.991 -8.137,-19.56l0 -64.119c0,-7.67 3.119,-14.615 8.156,-19.652l1.358 -1.211c4.917,-4.33 11.339,-6.945 18.284,-6.945zm198.358 32.367l-193.789 0 0 54.991 193.789 0 0 -54.991z"/>
   </g>
  </g>
 </g>
</svg>
