<?xml version="1.0" encoding="UTF-8"?>
<!DOCTYPE svg PUBLIC "-//W3C//DTD SVG 1.1//EN" "http://www.w3.org/Graphics/SVG/1.1/DTD/svg11.dtd">
<!-- Creator: CorelDRAW 2018 (64-Bit) -->
<svg xmlns="http://www.w3.org/2000/svg" xml:space="preserve" width="40px" height="40px" version="1.1" style="shape-rendering:geometricPrecision; text-rendering:geometricPrecision; image-rendering:optimizeQuality; fill-rule:evenodd; clip-rule:evenodd"
viewBox="0 0 4.56 4.56"
 xmlns:xlink="http://www.w3.org/1999/xlink">
 <defs>
  <style type="text/css">
   <![CDATA[
    .fil0 {fill:none}
    .fil4 {fill:#00F4FF}
    .fil3 {fill:#EAEDF2}
    .fil1 {fill:white}
    .fil2 {fill:gray;fill-rule:nonzero}
   ]]>
  </style>
 </defs>
 <g id="Layer_x0020_1">
  <metadata id="CorelCorpID_0Corel-Layer"/>
  <g id="_1743965356976">
   <rect class="fil0" width="4.56" height="4.56"/>
   <g>
    <path class="fil1" d="M0.468 1.415l1.042 0c0.053,0 0.079,-0.046 0.097,-0.093l0.077 -0.212c0.017,-0.046 0.041,-0.09 0.091,-0.09l0.505 0 0.506 0c0.05,0 0.073,0.044 0.09,0.09l0.078 0.212c0.018,0.047 0.043,0.093 0.096,0.093l1.042 0c0.07,0 0.126,0.057 0.126,0.126l0 2.074c0,0.069 -0.056,0.126 -0.126,0.126l-3.624 0c-0.069,0 -0.126,-0.057 -0.126,-0.126l0 -2.074c0,-0.069 0.057,-0.126 0.126,-0.126z"/>
    <path class="fil2" d="M0.468 1.358l1.042 0c0.008,0 0.014,-0.004 0.019,-0.009 0.009,-0.011 0.017,-0.029 0.024,-0.047l0.078 -0.211c0.01,-0.029 0.023,-0.057 0.043,-0.08 0.024,-0.029 0.057,-0.048 0.101,-0.048l1.011 0c0.044,0 0.076,0.019 0.101,0.048l0.003 0.004c0.018,0.022 0.03,0.049 0.04,0.076l0.078 0.214c0.007,0.017 0.015,0.033 0.024,0.044 0.005,0.005 0.011,0.009 0.018,0.009l1.042 0c0.051,0 0.096,0.021 0.129,0.054l0.001 0c0.033,0.033 0.053,0.079 0.053,0.129l0 2.074c0,0.05 -0.02,0.096 -0.053,0.129l-0.001 0c-0.033,0.034 -0.078,0.054 -0.129,0.054l-3.624 0c-0.05,0 -0.096,-0.021 -0.129,-0.054l0 0c-0.033,-0.033 -0.054,-0.079 -0.054,-0.129l0 -2.074c0,-0.05 0.021,-0.096 0.054,-0.129l0 0c0.033,-0.033 0.079,-0.054 0.129,-0.054zm1.042 0.114l-1.042 0c-0.019,0 -0.036,0.008 -0.049,0.02 -0.012,0.013 -0.02,0.03 -0.02,0.049l0 2.074c0,0.019 0.008,0.036 0.02,0.049 0.013,0.012 0.03,0.02 0.049,0.02l3.624 0c0.019,0 0.037,-0.008 0.049,-0.02 0.013,-0.013 0.02,-0.03 0.02,-0.049l0 -2.074c0,-0.019 -0.007,-0.036 -0.02,-0.049 -0.012,-0.012 -0.03,-0.02 -0.049,-0.02l-1.042 0c-0.045,0 -0.079,-0.019 -0.104,-0.049 -0.019,-0.022 -0.033,-0.049 -0.043,-0.076l-0.08 -0.217c-0.006,-0.017 -0.013,-0.033 -0.021,-0.043l-0.002 -0.003c-0.004,-0.004 -0.009,-0.007 -0.014,-0.007l-1.011 0c-0.006,0 -0.011,0.003 -0.014,0.007 -0.009,0.01 -0.017,0.028 -0.023,0.046l-0.078 0.212c-0.011,0.029 -0.025,0.058 -0.045,0.081 -0.026,0.03 -0.059,0.049 -0.105,0.049z"/>
    <polygon class="fil3" points="0.342,1.955 4.218,1.955 4.218,3.201 0.342,3.201 "/>
    <path class="fil2" d="M0.342 1.898l3.876 0c0.032,0 0.057,0.025 0.057,0.057l0 1.246c0,0.032 -0.025,0.057 -0.057,0.057l-3.876 0c-0.031,0 -0.057,-0.025 -0.057,-0.057l0 -1.246c0,-0.032 0.026,-0.057 0.057,-0.057zm3.819 0.114l-3.762 0 0 1.132 3.762 0 0 -1.132z"/>
    <path class="fil4" d="M2.28 1.717c0.476,0 0.862,0.385 0.862,0.861 0,0.476 -0.386,0.862 -0.862,0.862 -0.476,0 -0.861,-0.386 -0.861,-0.862 0,-0.476 0.385,-0.861 0.861,-0.861z"/>
    <path class="fil2" d="M2.28 1.66c0.254,0 0.483,0.102 0.65,0.269 0.166,0.166 0.269,0.395 0.269,0.649 0,0.254 -0.103,0.483 -0.269,0.65 -0.167,0.166 -0.396,0.269 -0.65,0.269 -0.253,0 -0.483,-0.103 -0.649,-0.269 -0.166,-0.167 -0.269,-0.396 -0.269,-0.65 0,-0.254 0.103,-0.483 0.269,-0.649 0.166,-0.167 0.396,-0.269 0.649,-0.269zm0.569 0.349c-0.145,-0.145 -0.347,-0.235 -0.569,-0.235 -0.222,0 -0.423,0.09 -0.569,0.235 -0.145,0.146 -0.235,0.347 -0.235,0.569 0,0.222 0.09,0.423 0.235,0.569 0.146,0.146 0.347,0.236 0.569,0.236 0.222,0 0.424,-0.09 0.569,-0.236 0.146,-0.146 0.236,-0.347 0.236,-0.569 0,-0.222 -0.09,-0.423 -0.236,-0.569z"/>
    <path class="fil3" d="M2.28 1.955c0.344,0 0.623,0.279 0.623,0.623 0,0.344 -0.279,0.623 -0.623,0.623 -0.344,0 -0.623,-0.279 -0.623,-0.623 0,-0.344 0.279,-0.623 0.623,-0.623z"/>
    <path class="fil2" d="M2.28 1.898c0.188,0 0.358,0.076 0.481,0.199l0.003 0.004c0.121,0.122 0.196,0.291 0.196,0.477 0,0.188 -0.076,0.358 -0.199,0.481 -0.123,0.123 -0.293,0.199 -0.481,0.199 -0.188,0 -0.358,-0.076 -0.481,-0.199 -0.123,-0.123 -0.199,-0.293 -0.199,-0.481 0,-0.188 0.076,-0.358 0.199,-0.481 0.123,-0.123 0.293,-0.199 0.481,-0.199zm0.401 0.28c-0.103,-0.103 -0.244,-0.166 -0.401,-0.166 -0.156,0 -0.298,0.063 -0.4,0.166 -0.103,0.102 -0.166,0.244 -0.166,0.4 0,0.156 0.063,0.298 0.166,0.4 0.102,0.103 0.244,0.166 0.4,0.166 0.157,0 0.298,-0.063 0.401,-0.166 0.102,-0.102 0.165,-0.244 0.165,-0.4 0,-0.155 -0.062,-0.295 -0.163,-0.398l-0.002 -0.002z"/>
    <path class="fil1" d="M0.78 1.137l0.374 0c0.054,0 0.099,0.045 0.099,0.099l0 0.179 -0.572 0 0 -0.179c0,-0.054 0.045,-0.099 0.099,-0.099z"/>
    <path class="fil2" d="M0.78 1.08l0.374 0c0.043,0 0.082,0.018 0.11,0.046 0.028,0.028 0.046,0.067 0.046,0.11l0 0.179c0,0.032 -0.026,0.057 -0.057,0.057l-0.572 0c-0.031,0 -0.057,-0.025 -0.057,-0.057l0 -0.179c0,-0.043 0.018,-0.082 0.046,-0.11 0.028,-0.028 0.067,-0.046 0.11,-0.046zm0.374 0.114l-0.374 0c-0.011,0 -0.022,0.005 -0.029,0.013 -0.008,0.007 -0.013,0.018 -0.013,0.029l0 0.122 0.458 0 0 -0.122c0,-0.011 -0.005,-0.022 -0.012,-0.029 -0.008,-0.008 -0.018,-0.013 -0.03,-0.013z"/>
   </g>
  </g>
 </g>
</svg>
