<?xml version="1.0" encoding="UTF-8"?>
<!DOCTYPE svg PUBLIC "-//W3C//DTD SVG 1.1//EN" "http://www.w3.org/Graphics/SVG/1.1/DTD/svg11.dtd">
<!-- Creator: CorelDRAW 2018 (64-Bit) -->
<svg xmlns="http://www.w3.org/2000/svg" xml:space="preserve" width="32px" height="32px" version="1.1" style="shape-rendering:geometricPrecision; text-rendering:geometricPrecision; image-rendering:optimizeQuality; fill-rule:evenodd; clip-rule:evenodd"
viewBox="0 0 0.881 0.881"
 xmlns:xlink="http://www.w3.org/1999/xlink">
 <defs>
  <style type="text/css">
   <![CDATA[
    .fil0 {fill:none;fill-rule:nonzero}
    .fil2 {fill:#00F4FF;fill-rule:nonzero}
    .fil1 {fill:#052337;fill-rule:nonzero}
   ]]>
  </style>
 </defs>
 <g id="Layer_x0020_1">
  <metadata id="CorelCorpID_0Corel-Layer"/>
  <g id="_1781726187504">
   <rect class="fil0" width="0.881" height="0.881"/>
   <g>
    <path class="fil1" d="M0.022 0.656c-0.007,0 -0.013,-0.006 -0.013,-0.013 0,-0.008 0.006,-0.014 0.013,-0.014l0.182 0c0.008,0 0.014,0.006 0.014,0.014 0,0.007 -0.006,0.013 -0.014,0.013l-0.182 0z"/>
    <path class="fil2" d="M0.359 0.435c-0.031,-0.053 -0.083,-0.08 -0.117,-0.06l-0.053 0.03c-0.034,0.02 -0.036,0.079 -0.006,0.132l0.004 0.006 0.176 -0.101 -0.004 -0.007z"/>
    <path class="fil1" d="M0.344 0.437c-0.014,-0.022 -0.031,-0.038 -0.049,-0.047 -0.017,-0.009 -0.034,-0.011 -0.046,-0.003l-0.053 0.03c-0.012,0.007 -0.019,0.023 -0.02,0.042 -0.001,0.02 0.004,0.043 0.016,0.065l0.152 -0.087zm-0.036 -0.071c0.023,0.011 0.046,0.033 0.062,0.061l0.005 0.008c0.003,0.006 0.001,0.015 -0.005,0.019l-0.176 0.101c-0.007,0.004 -0.015,0.002 -0.019,-0.005l-0.004 -0.007c-0.016,-0.028 -0.024,-0.059 -0.023,-0.085 0.002,-0.029 0.013,-0.053 0.035,-0.065l0.052 -0.03c0.021,-0.012 0.048,-0.01 0.073,0.003z"/>
    <path class="fil2" d="M0.251 0.364c-0.019,-0.033 -0.047,-0.053 -0.061,-0.045l-0.023 0.013c-0.014,0.008 -0.011,0.042 0.008,0.076l0.003 0.004 0.075 -0.044 -0.002 -0.004z"/>
    <path class="fil1" d="M0.262 0.356l0.003 0.005c0.004,0.007 0.002,0.015 -0.005,0.019l-0.075 0.044c-0.007,0.003 -0.015,0.001 -0.019,-0.005l-0.003 -0.005c-0.01,-0.018 -0.016,-0.037 -0.018,-0.052 -0.002,-0.019 0.003,-0.035 0.015,-0.042l0.023 -0.013c0.012,-0.007 0.028,-0.004 0.044,0.008 0.012,0.009 0.025,0.023 0.035,0.041zm-0.028 0.007c-0.007,-0.011 -0.015,-0.02 -0.023,-0.026 -0.007,-0.005 -0.012,-0.007 -0.014,-0.006l-0.023 0.013c-0.002,0.001 -0.003,0.007 -0.002,0.015 0.001,0.01 0.005,0.022 0.011,0.034l0.051 -0.03z"/>
    <path class="fil2" d="M0.044 0.431c-0.017,0 -0.03,0.013 -0.03,0.03 0,0.017 0.013,0.031 0.03,0.031 0.017,0 0.031,-0.014 0.031,-0.031 0,-0.017 -0.014,-0.03 -0.031,-0.03z"/>
    <path class="fil1" d="M0.044 0.444c-0.004,0 -0.008,0.002 -0.012,0.005l0 0.001c-0.003,0.003 -0.004,0.007 -0.004,0.011 0,0.005 0.001,0.009 0.004,0.012 0.004,0.003 0.008,0.005 0.012,0.005 0.005,0 0.009,-0.002 0.012,-0.005 0.003,-0.003 0.005,-0.007 0.005,-0.012 0,-0.004 -0.002,-0.009 -0.005,-0.012 -0.003,-0.003 -0.007,-0.005 -0.012,-0.005zm-0.031 -0.014c0.008,-0.008 0.019,-0.013 0.031,-0.013 0.013,0 0.024,0.005 0.032,0.013 0.008,0.008 0.013,0.019 0.013,0.031 0,0.012 -0.005,0.024 -0.013,0.032 -0.008,0.008 -0.019,0.013 -0.032,0.013 -0.012,0 -0.023,-0.005 -0.031,-0.013 -0.008,-0.008 -0.013,-0.02 -0.013,-0.032 0,-0.012 0.005,-0.022 0.012,-0.03l0.001 -0.001z"/>
    <path class="fil1" d="M0.156 0.369c0.007,-0.004 0.015,-0.002 0.019,0.005 0.004,0.006 0.002,0.015 -0.005,0.019l-0.097 0.058c-0.006,0.004 -0.015,0.002 -0.019,-0.004 -0.004,-0.007 -0.001,-0.015 0.005,-0.019l0.097 -0.059z"/>
    <path class="fil1" d="M0.048 0.496c-0.003,-0.007 0,-0.015 0.008,-0.018 0.007,-0.003 0.015,0.001 0.017,0.008l0.057 0.152c0.003,0.007 -0.001,0.015 -0.008,0.017 -0.007,0.003 -0.015,-0.001 -0.017,-0.008l-0.057 -0.151z"/>
    <path class="fil1" d="M0.275 0.307c0,0.008 -0.006,0.014 -0.014,0.014 -0.007,0 -0.013,-0.006 -0.013,-0.014l0 -0.217c0,-0.009 0.004,-0.018 0.01,-0.025l0.001 0c0.006,-0.006 0.015,-0.01 0.024,-0.01l0.562 0c0.01,0 0.019,0.004 0.025,0.01 0.007,0.007 0.011,0.016 0.011,0.025l0 0.441c0,0.009 -0.004,0.018 -0.011,0.024l0 0.001c-0.006,0.006 -0.015,0.01 -0.025,0.01l-0.562 0c-0.007,0 -0.014,-0.002 -0.02,-0.006 -0.006,-0.004 -0.01,-0.01 -0.013,-0.017 -0.003,-0.007 0.001,-0.015 0.008,-0.017 0.007,-0.003 0.015,0 0.018,0.007 0,0.002 0.001,0.003 0.003,0.004 0.001,0.001 0.002,0.001 0.004,0.001l0.562 0c0.003,0 0.005,0 0.006,-0.002 0.001,-0.001 0.002,-0.003 0.002,-0.005l0 -0.441c0,-0.002 -0.001,-0.004 -0.002,-0.005 -0.001,-0.002 -0.003,-0.002 -0.006,-0.002l-0.562 0c-0.002,0 -0.004,0 -0.005,0.001l0 0.001c-0.002,0.001 -0.003,0.003 -0.003,0.005l0 0.217z"/>
    <path class="fil1" d="M0.806 0.425c0,-0.008 0.007,-0.014 0.014,-0.014 0.008,0 0.014,0.006 0.014,0.014l0 0.077c0,0.005 -0.002,0.009 -0.005,0.012 -0.004,0.004 -0.008,0.006 -0.013,0.006l-0.118 0c-0.008,0 -0.014,-0.006 -0.014,-0.014 0,-0.008 0.006,-0.014 0.014,-0.014l0.108 0 0 -0.067z"/>
    <path class="fil1" d="M0.324 0.168c0,0.008 -0.006,0.014 -0.014,0.014 -0.007,0 -0.013,-0.006 -0.013,-0.014l0 -0.041c0,-0.005 0.002,-0.01 0.005,-0.013l0 0c0.003,-0.004 0.008,-0.006 0.013,-0.006l0.08 0c0.008,0 0.014,0.006 0.014,0.014 0,0.008 -0.006,0.014 -0.014,0.014l-0.071 0 0 0.032z"/>
    <path class="fil1" d="M0.433 0.656c-0.008,0 -0.014,-0.006 -0.014,-0.013 0,-0.008 0.006,-0.014 0.014,-0.014l0.262 0c0.008,0 0.014,0.006 0.014,0.014 0,0.007 -0.006,0.013 -0.014,0.013l-0.262 0z"/>
    <path class="fil1" d="M0.492 0.633c0,0.008 -0.006,0.014 -0.014,0.014 -0.007,0 -0.014,-0.006 -0.014,-0.014l0 -0.081c0,-0.007 0.007,-0.014 0.014,-0.014 0.008,0 0.014,0.007 0.014,0.014l0 0.081z"/>
    <path class="fil1" d="M0.664 0.633c0,0.008 -0.006,0.014 -0.014,0.014 -0.007,0 -0.013,-0.006 -0.013,-0.014l0 -0.081c0,-0.007 0.006,-0.014 0.013,-0.014 0.008,0 0.014,0.007 0.014,0.014l0 0.081z"/>
   </g>
  </g>
 </g>
</svg>
