<?xml version="1.0" encoding="UTF-8"?>
<!DOCTYPE svg PUBLIC "-//W3C//DTD SVG 1.1//EN" "http://www.w3.org/Graphics/SVG/1.1/DTD/svg11.dtd">
<!-- Creator: CorelDRAW 2018 (64-Bit) -->
<svg xmlns="http://www.w3.org/2000/svg" xml:space="preserve" width="40px" height="40px" version="1.1" style="shape-rendering:geometricPrecision; text-rendering:geometricPrecision; image-rendering:optimizeQuality; fill-rule:evenodd; clip-rule:evenodd"
viewBox="0 0 3.469 3.469"
 xmlns:xlink="http://www.w3.org/1999/xlink">
 <defs>
  <style type="text/css">
   <![CDATA[
    .fil0 {fill:none}
    .fil1 {fill:white}
    .fil4 {fill:#00F4FF;fill-rule:nonzero}
    .fil3 {fill:gray;fill-rule:nonzero}
    .fil2 {fill:gray;fill-rule:nonzero}
   ]]>
  </style>
 </defs>
 <g id="Layer_x0020_1">
  <metadata id="CorelCorpID_0Corel-Layer"/>
  <g id="_1780239726896">
   <rect class="fil0" width="3.469" height="3.469"/>
   <g>
    <path class="fil1" d="M1.009 0.827l2.307 0c0.037,0 0.068,0.03 0.068,0.067l0 1.493c0,0.038 -0.031,0.068 -0.068,0.068l-2.307 0c-0.037,0 -0.068,-0.03 -0.068,-0.068l0 -1.493c0,-0.037 0.031,-0.067 0.068,-0.067z"/>
    <path class="fil2" d="M1.009 0.784l2.307 0c0.03,0 0.058,0.013 0.078,0.033 0.02,0.02 0.032,0.047 0.032,0.077l0 1.493c0,0.031 -0.012,0.058 -0.032,0.078l-0.003 0.003c-0.02,0.018 -0.046,0.03 -0.075,0.03l-2.307 0c-0.03,0 -0.058,-0.013 -0.078,-0.033 -0.02,-0.02 -0.032,-0.047 -0.032,-0.078l0 -1.493c0,-0.03 0.012,-0.057 0.032,-0.077 0.02,-0.02 0.048,-0.033 0.078,-0.033zm2.307 0.085l-2.307 0c-0.007,0 -0.014,0.003 -0.018,0.007 -0.005,0.005 -0.008,0.011 -0.008,0.018l0 1.493c0,0.007 0.003,0.014 0.008,0.018 0.004,0.005 0.011,0.008 0.018,0.008l2.307 0c0.006,0 0.012,-0.002 0.017,-0.006l0.001 -0.002c0.005,-0.004 0.008,-0.011 0.008,-0.018l0 -1.493c0,-0.007 -0.003,-0.013 -0.008,-0.018 -0.005,-0.004 -0.011,-0.007 -0.018,-0.007z"/>
    <path class="fil3" d="M0.118 2.863c-0.023,0 -0.042,-0.019 -0.042,-0.043 0,-0.023 0.019,-0.042 0.042,-0.042l0.693 0c0.024,0 0.042,0.019 0.042,0.042 0,0.024 -0.018,0.043 -0.042,0.043l-0.693 0z"/>
    <path class="fil4" d="M1.4 2.03c-0.116,-0.201 -0.317,-0.304 -0.446,-0.23l-0.199 0.115c-0.13,0.075 -0.141,0.301 -0.025,0.502l0.015 0.025 0.67 -0.387 -0.015 -0.025z"/>
    <path class="fil3" d="M1.357 2.04c-0.053,-0.088 -0.123,-0.154 -0.194,-0.191 -0.068,-0.035 -0.137,-0.042 -0.188,-0.012l-0.199 0.115c-0.051,0.029 -0.08,0.092 -0.083,0.169 -0.004,0.08 0.018,0.174 0.068,0.263l0.596 -0.344zm-0.156 -0.266c0.087,0.045 0.172,0.126 0.234,0.232l0.017 0.028c0.011,0.02 0.004,0.046 -0.016,0.058l-0.67 0.386c-0.02,0.012 -0.046,0.005 -0.057,-0.015l-0.015 -0.025c-0.062,-0.108 -0.09,-0.223 -0.086,-0.321 0.006,-0.105 0.048,-0.193 0.126,-0.238l0.199 -0.115c0.078,-0.045 0.175,-0.038 0.268,0.01z"/>
    <path class="fil4" d="M0.989 1.759c-0.072,-0.126 -0.177,-0.203 -0.233,-0.171l-0.086 0.049c-0.056,0.033 -0.042,0.162 0.031,0.288l0.009 0.016 0.289 -0.166 -0.01 -0.016z"/>
    <path class="fil3" d="M1.026 1.737c0,0.001 0.008,0.014 0.009,0.016 0.012,0.021 0.005,0.046 -0.015,0.058l-0.289 0.167c-0.02,0.011 -0.046,0.004 -0.057,-0.016l-0.01 -0.016c-0.039,-0.068 -0.062,-0.138 -0.069,-0.195 -0.007,-0.069 0.01,-0.125 0.054,-0.15l0.082 -0.047c0.003,-0.002 0.005,-0.003 0.008,-0.005 0.043,-0.022 0.098,-0.009 0.152,0.031 0.046,0.034 0.095,0.088 0.134,0.155l0.001 0.002zm-0.085 0.022c-0.031,-0.048 -0.066,-0.087 -0.1,-0.111 -0.028,-0.021 -0.052,-0.03 -0.064,-0.023l-0.086 0.049c-0.012,0.007 -0.015,0.032 -0.012,0.068 0.005,0.041 0.021,0.091 0.047,0.141l0.215 -0.124z"/>
    <path class="fil4" d="M0.202 2.013c-0.064,0 -0.116,0.052 -0.116,0.117 0,0.064 0.052,0.116 0.116,0.116 0.065,0 0.117,-0.052 0.117,-0.116 0,-0.065 -0.052,-0.117 -0.117,-0.117z"/>
    <path class="fil3" d="M0.202 2.055c-0.02,0 -0.039,0.009 -0.052,0.022 -0.014,0.013 -0.022,0.032 -0.022,0.053 0,0.02 0.008,0.039 0.022,0.052 0.013,0.014 0.032,0.022 0.052,0.022 0.021,0 0.04,-0.008 0.053,-0.022 0.014,-0.013 0.022,-0.032 0.022,-0.052 0,-0.021 -0.008,-0.04 -0.022,-0.053 -0.013,-0.013 -0.032,-0.022 -0.053,-0.022zm-0.112 -0.038c0.029,-0.029 0.069,-0.046 0.112,-0.046 0.044,0 0.084,0.017 0.113,0.046 0.029,0.029 0.047,0.069 0.047,0.113 0,0.044 -0.018,0.083 -0.047,0.112 -0.029,0.029 -0.069,0.047 -0.113,0.047 -0.043,0 -0.083,-0.018 -0.112,-0.047 -0.029,-0.029 -0.047,-0.068 -0.047,-0.112 0,-0.044 0.018,-0.084 0.047,-0.113z"/>
    <path class="fil3" d="M0.633 1.788c0.02,-0.012 0.046,-0.006 0.058,0.014 0.012,0.02 0.006,0.046 -0.014,0.058l-0.37 0.223c-0.02,0.012 -0.046,0.006 -0.058,-0.014 -0.012,-0.02 -0.006,-0.046 0.014,-0.058l0.37 -0.223z"/>
    <path class="fil3" d="M0.224 2.257c-0.008,-0.021 0.003,-0.046 0.024,-0.054 0.022,-0.008 0.046,0.003 0.055,0.025l0.217 0.578c0.008,0.021 -0.003,0.046 -0.025,0.054 -0.021,0.008 -0.046,-0.003 -0.054,-0.025l-0.217 -0.578z"/>
    <path class="fil3" d="M1.637 2.863c-0.024,0 -0.043,-0.019 -0.043,-0.043 0,-0.023 0.019,-0.042 0.043,-0.042l1.051 0c0.023,0 0.042,0.019 0.042,0.042 0,0.024 -0.019,0.043 -0.042,0.043l-1.051 0z"/>
    <path class="fil3" d="M1.859 2.783c0,0.024 -0.019,0.043 -0.042,0.043 -0.023,0 -0.042,-0.019 -0.042,-0.043l0 -0.325c0,-0.023 0.019,-0.042 0.042,-0.042 0.023,0 0.042,0.019 0.042,0.042l0 0.325z"/>
    <path class="fil3" d="M2.55 2.783c0,0.024 -0.019,0.043 -0.042,0.043 -0.024,0 -0.043,-0.019 -0.043,-0.043l0 -0.325c0,-0.023 0.019,-0.042 0.043,-0.042 0.023,0 0.042,0.019 0.042,0.042l0 0.325z"/>
    <path class="fil2" d="M1.559 1.949c-0.023,0 -0.042,-0.019 -0.042,-0.042 0,-0.023 0.019,-0.042 0.042,-0.042l1.207 0c0.023,0 0.042,0.019 0.042,0.042 0,0.023 -0.019,0.042 -0.042,0.042l-1.207 0z"/>
    <path class="fil2" d="M1.559 1.683c-0.023,0 -0.042,-0.019 -0.042,-0.042 0,-0.023 0.019,-0.042 0.042,-0.042l1.207 0c0.023,0 0.042,0.019 0.042,0.042 0,0.023 -0.019,0.042 -0.042,0.042l-1.207 0z"/>
    <path class="fil2" d="M1.559 1.417c-0.023,0 -0.042,-0.019 -0.042,-0.042 0,-0.024 0.019,-0.042 0.042,-0.042l1.207 0c0.023,0 0.042,0.018 0.042,0.042 0,0.023 -0.019,0.042 -0.042,0.042l-1.207 0z"/>
   </g>
  </g>
 </g>
</svg>
