<?xml version="1.0" encoding="UTF-8"?>
<!DOCTYPE svg PUBLIC "-//W3C//DTD SVG 1.1//EN" "http://www.w3.org/Graphics/SVG/1.1/DTD/svg11.dtd">
<!-- Creator: CorelDRAW 2018 (64-Bit) -->
<svg xmlns="http://www.w3.org/2000/svg" xml:space="preserve" width="19px" height="17px" version="1.1" style="shape-rendering:geometricPrecision; text-rendering:geometricPrecision; image-rendering:optimizeQuality; fill-rule:evenodd; clip-rule:evenodd"
viewBox="0 0 0.948 0.852"
 xmlns:xlink="http://www.w3.org/1999/xlink">
 <defs>
  <style type="text/css">
   <![CDATA[
    .fil0 {fill:gray;fill-rule:nonzero}
   ]]>
  </style>
 </defs>
 <g id="Layer_x0020_1">
  <metadata id="CorelCorpID_0Corel-Layer"/>
  <path class="fil0" d="M0.474 0c0.13,0 0.247,0.04 0.333,0.105 0.087,0.067 0.141,0.16 0.141,0.262 0,0.054 -0.015,0.106 -0.042,0.152 -0.025,0.044 -0.062,0.083 -0.106,0.116l-0.009 0.193c0,0.013 -0.012,0.024 -0.026,0.024 -0.006,-0.001 -0.011,-0.003 -0.015,-0.006l-0.152 -0.124c-0.018,0.004 -0.036,0.007 -0.055,0.009 -0.023,0.003 -0.046,0.004 -0.069,0.004 -0.129,0 -0.247,-0.04 -0.333,-0.106 -0.087,-0.066 -0.141,-0.159 -0.141,-0.262 0,-0.102 0.054,-0.195 0.141,-0.262 0.086,-0.065 0.204,-0.105 0.333,-0.105zm0.302 0.145c-0.077,-0.058 -0.184,-0.094 -0.302,-0.094 -0.118,0 -0.225,0.036 -0.302,0.094 -0.075,0.058 -0.121,0.136 -0.121,0.222 0,0.087 0.046,0.165 0.121,0.222 0.077,0.059 0.184,0.095 0.302,0.095 0.022,0 0.043,-0.001 0.064,-0.003 0.021,-0.002 0.041,-0.006 0.061,-0.011 0.007,-0.001 0.015,0 0.022,0.005l0.122 0.1 0.007 -0.155c0,-0.008 0.004,-0.015 0.011,-0.02 0.043,-0.029 0.078,-0.066 0.102,-0.107 0.022,-0.038 0.035,-0.081 0.035,-0.126 0,-0.086 -0.047,-0.164 -0.122,-0.222z"/>
 </g>
</svg>
