<?xml version="1.0" encoding="UTF-8"?>
<!DOCTYPE svg PUBLIC "-//W3C//DTD SVG 1.1//EN" "http://www.w3.org/Graphics/SVG/1.1/DTD/svg11.dtd">
<!-- Creator: CorelDRAW 2018 (64-Bit) -->
<svg xmlns="http://www.w3.org/2000/svg" xml:space="preserve" width="17px" height="17px" version="1.1" style="shape-rendering:geometricPrecision; text-rendering:geometricPrecision; image-rendering:optimizeQuality; fill-rule:evenodd; clip-rule:evenodd"
viewBox="0 0 64.511 64.508"
 xmlns:xlink="http://www.w3.org/1999/xlink">
 <defs>
  <style type="text/css">
   <![CDATA[
    .fil0 {fill:gray;fill-rule:nonzero}
    .fil1 {fill:gray;fill-rule:nonzero}
   ]]>
  </style>
 </defs>
 <g id="Layer_x0020_1">
  <metadata id="CorelCorpID_0Corel-Layer"/>
  <g id="_1510757148080">
   <path class="fil0" d="M27.376 11.034c0,-1.043 0.847,-1.89 1.89,-1.89 1.043,0 1.89,0.847 1.89,1.89l-0.002 23.303 17.05 0c1.048,0 1.898,0.849 1.898,1.897 0,1.048 -0.85,1.898 -1.898,1.898l-18.94 0c-1.044,-0.008 -1.89,-0.854 -1.89,-1.898l0.002 -25.2z"/>
   <path class="fil1" d="M16.128 4.326c0.903,-0.523 2.062,-0.215 2.586,0.689 0.523,0.903 0.215,2.062 -0.689,2.586 -4.405,2.543 -7.966,6.168 -10.423,10.423 -2.453,4.245 -3.807,9.137 -3.807,14.23 0,7.859 3.186,14.975 8.335,20.124 5.15,5.149 12.266,8.335 20.125,8.335 7.859,0 14.976,-3.186 20.125,-8.335 5.149,-5.149 8.336,-12.265 8.336,-20.124 0,-7.859 -3.187,-14.974 -8.336,-20.124 -5.149,-5.149 -12.266,-8.335 -20.125,-8.335 -1.047,0 -1.897,-0.85 -1.897,-1.898 0,-1.047 0.85,-1.897 1.897,-1.897 8.906,0 16.971,3.611 22.808,9.448 5.836,5.836 9.448,13.901 9.448,22.806 0,8.906 -3.612,16.97 -9.448,22.807 -5.837,5.836 -13.902,9.447 -22.808,9.447 -8.905,0 -16.971,-3.611 -22.807,-9.447 -5.837,-5.837 -9.448,-13.901 -9.448,-22.807 0,-5.749 1.54,-11.291 4.327,-16.12 2.782,-4.825 6.815,-8.929 11.801,-11.808z"/>
   <path class="fil1" d="M15.908 21.084c-0.207,1.023 -1.207,1.683 -2.23,1.475 -1.023,-0.208 -1.682,-1.207 -1.474,-2.23l2.51 -12.254 -12.466 1.093c-1.043,0.089 -1.964,-0.683 -2.053,-1.726 -0.09,-1.044 0.683,-1.965 1.726,-2.054l14.992 -1.314c0.177,-0.009 0.358,0.001 0.541,0.037 1.023,0.208 1.682,1.207 1.475,2.23l-3.021 14.743z"/>
  </g>
 </g>
</svg>
