<?xml version="1.0" encoding="UTF-8"?>
<!DOCTYPE svg PUBLIC "-//W3C//DTD SVG 1.1//EN" "http://www.w3.org/Graphics/SVG/1.1/DTD/svg11.dtd">
<!-- Creator: CorelDRAW 2018 (64-Bit) -->
<svg xmlns="http://www.w3.org/2000/svg" xml:space="preserve" width="17px" height="17px" version="1.1" style="shape-rendering:geometricPrecision; text-rendering:geometricPrecision; image-rendering:optimizeQuality; fill-rule:evenodd; clip-rule:evenodd"
viewBox="0 0 2.335 2.334"
 xmlns:xlink="http://www.w3.org/1999/xlink">
 <defs>
  <style type="text/css">
   <![CDATA[
    .fil0 {fill:#FF9452;fill-rule:nonzero}
   ]]>
  </style>
 </defs>
 <g id="Layer_x0020_1">
  <metadata id="CorelCorpID_0Corel-Layer"/>
  <g id="_1547021766448">
   <path class="fil0" d="M0.991 0.399c0,-0.037 0.03,-0.068 0.068,-0.068 0.038,0 0.068,0.031 0.068,0.068l0 0.844 0.617 0c0.038,0 0.069,0.03 0.069,0.068 0,0.038 -0.031,0.069 -0.069,0.069l-0.685 0c-0.038,0 -0.068,-0.031 -0.068,-0.069l0 -0.912z"/>
   <path class="fil0" d="M0.584 0.157c0.032,-0.019 0.074,-0.008 0.093,0.024 0.019,0.033 0.008,0.075 -0.025,0.094 -0.159,0.092 -0.288,0.223 -0.377,0.377 -0.089,0.154 -0.138,0.331 -0.138,0.515 0,0.285 0.116,0.542 0.302,0.728 0.186,0.187 0.444,0.302 0.728,0.302 0.285,0 0.542,-0.115 0.729,-0.302 0.186,-0.186 0.301,-0.443 0.301,-0.728 0,-0.284 -0.115,-0.542 -0.301,-0.728 -0.187,-0.186 -0.444,-0.302 -0.729,-0.302 -0.038,0 -0.068,-0.03 -0.068,-0.068 0,-0.038 0.03,-0.069 0.068,-0.069 0.323,0 0.614,0.131 0.826,0.342 0.211,0.211 0.342,0.503 0.342,0.825 0,0.323 -0.131,0.614 -0.342,0.826 -0.212,0.211 -0.503,0.341 -0.826,0.341 -0.322,0 -0.614,-0.13 -0.825,-0.341 -0.211,-0.212 -0.342,-0.503 -0.342,-0.826 0,-0.208 0.056,-0.408 0.157,-0.583 0.1,-0.175 0.246,-0.323 0.427,-0.427z"/>
   <path class="fil0" d="M0.576 0.763c-0.008,0.037 -0.044,0.061 -0.081,0.053 -0.037,-0.007 -0.061,-0.043 -0.053,-0.08l0.09 -0.444 -0.451 0.04c-0.037,0.003 -0.071,-0.025 -0.074,-0.063 -0.003,-0.037 0.025,-0.071 0.063,-0.074l0.542 -0.048c0.006,0 0.013,0 0.02,0.002 0.037,0.007 0.061,0.043 0.053,0.08l-0.109 0.534z"/>
  </g>
 </g>
</svg>
