<?xml version="1.0" encoding="UTF-8"?>
<!DOCTYPE svg PUBLIC "-//W3C//DTD SVG 1.1//EN" "http://www.w3.org/Graphics/SVG/1.1/DTD/svg11.dtd">
<!-- Creator: CorelDRAW 2018 (64-Bit) -->
<svg xmlns="http://www.w3.org/2000/svg" xml:space="preserve" width="0.27778in" height="0.27778in" version="1.1" style="shape-rendering:geometricPrecision; text-rendering:geometricPrecision; image-rendering:optimizeQuality; fill-rule:evenodd; clip-rule:evenodd"
viewBox="0 0 277.78 277.78"
 xmlns:xlink="http://www.w3.org/1999/xlink">
 <defs>
  <style type="text/css">
   <![CDATA[
    .fil0 {fill:none}
    .fil3 {fill:#00D4E3;fill-rule:nonzero}
    .fil2 {fill:gray;fill-rule:nonzero}
    .fil1 {fill:#FFE0BC;fill-rule:nonzero}
   ]]>
  </style>
 </defs>
 <g id="Layer_x0020_1">
  <metadata id="CorelCorpID_0Corel-Layer"/>
  <g id="_2742544345328">
   <rect class="fil0" width="277.78" height="277.78"/>
   <g>
    <g>
     <path class="fil1" d="M267.93 170.22c0,-16.81 -12.14,-19.9 -25.39,-20.12l0.04 -1.05c9.36,-0.78 16.77,-8.67 16.77,-18.22 0,-8.98 -6.83,-16.66 -15.32,-18l0 -0.06c-12,-2.11 -54.71,-1.21 -65.37,1.44 -14.69,3.64 -2.45,-30.96 -2.45,-36.25 0,-6.68 1.35,-19.11 -4.86,-39.15 -1.61,-5.19 -3.69,-8.89 -5.09,-11.98 -6.11,-13.49 -19.7,-6.04 -19.7,-6.04 -9.05,7.1 -5.94,20.12 -9.51,35.93 -2.59,11.47 -22.43,54.04 -36.19,71.26 -4.99,6.25 -8.72,10.34 -9.5,11.41 -3.57,4.91 -5.61,12.61 -5.61,12.61l0 99.49c8.14,11.95 113.5,14.02 126.09,12.93 21.04,-1.81 16.44,-1.35 25.25,-3.12l0.88 -0.22c13.13,-5.39 11.73,-13.79 11.73,-18l0.15 0.93c-1.55,-10.74 -7.17,-14.11 -11.87,-16.53 -0.64,-0.33 -0.57,0.11 0.11,-0.12 7.4,-2.49 21.42,-6.7 21.97,-18.75 -0.55,-15.97 -9.8,-17.27 -20.49,-18.34l0.32 -0.44c14.53,1.62 28.02,-9.56 28.02,-19.62z"/>
     <g>
      <path class="fil2" d="M200.81 269.53c-13.15,0 -34.3,-0.56 -53.98,-1.84 -58.48,-3.79 -63.1,-10.57 -65.07,-13.46 -0.55,-0.81 -0.84,-1.76 -0.84,-2.73l0 -99.49c0,-0.42 0.06,-0.83 0.16,-1.24 0.09,-0.35 2.32,-8.65 6.37,-14.22 0.39,-0.54 1,-1.26 2.34,-2.81 1.7,-1.98 4.26,-4.98 7.29,-8.76 13.32,-16.67 32.83,-58.56 35.25,-69.3 1.13,-5 1.55,-9.7 1.95,-14.24 0.84,-9.48 1.64,-18.43 9.3,-24.43 0.21,-0.17 0.43,-0.31 0.66,-0.44 0.83,-0.46 8.3,-4.36 16.01,-1.79 3.16,1.05 7.54,3.66 10.44,10.08 0.33,0.72 0.69,1.47 1.08,2.28 1.29,2.67 2.9,6 4.22,10.27 5.6,18.09 5.3,30.35 5.13,37.68 -0.03,1.07 -0.05,2.04 -0.05,2.91 0,1.7 -0.55,4.11 -1.59,8.59 -1.15,4.93 -4.61,19.7 -2.69,23.07 0.15,-0.01 0.39,-0.04 0.72,-0.12 11.2,-2.78 54.66,-3.75 67.39,-1.51 0.24,0.04 0.48,0.11 0.71,0.18 10.67,2.08 18.62,11.68 18.62,22.65 0,6.38 -2.66,12.24 -6.96,16.46 7.88,2.63 15.54,8.72 15.54,22.93 0,5.62 -3.01,11.54 -8.25,16.23 -2,1.79 -4.21,3.31 -6.56,4.56 3.87,3.25 6.65,8.56 6.95,17.44 0.01,0.13 0.01,0.26 0,0.39 -0.5,10.96 -8.96,16.65 -16.7,19.99 2.86,3.04 5.44,7.55 6.44,14.5 0.09,0.59 0.06,1.17 -0.06,1.72 0.07,4.98 -0.61,14.72 -14.78,20.53 -0.22,0.09 -0.44,0.16 -0.67,0.22l-0.88 0.22c-0.07,0.02 -0.14,0.04 -0.21,0.05 -1.42,0.28 -2.48,0.51 -3.36,0.7 -4.55,0.96 -4.82,0.98 -18.98,2.2l-3.44 0.3c-2.06,0.18 -6.1,0.27 -11.47,0.27zm-110.19 -20.16l0 0c2.83,1.63 14.27,5.94 57.93,8.71 28.78,1.82 57.07,2.02 62.89,1.51l3.44 -0.3c13.84,-1.19 13.84,-1.19 17.81,-2.03 0.88,-0.19 1.95,-0.41 3.35,-0.69l0.42 -0.1c8.64,-3.65 8.53,-8.16 8.43,-12.14 -0,-0.28 -0.01,-0.55 -0.02,-0.81 -1.28,-6.88 -4.48,-9.29 -8.52,-11.43 -1.16,-0.31 -2.17,-1.02 -2.85,-2.04 -1.21,-1.84 -1.03,-4.28 0.45,-5.93 0.73,-0.82 1.93,-1.54 3.37,-1.62l0.13 -0.05c8.73,-2.91 17.29,-6.39 17.76,-13.89 -0.45,-11.42 -5.29,-12.39 -16.11,-13.47 -1.74,-0.17 -3.24,-1.26 -3.95,-2.86 -0.71,-1.59 -0.5,-3.45 0.53,-4.85l0.32 -0.43c1.03,-1.39 2.72,-2.14 4.44,-1.94 6.2,0.68 12.79,-1.48 17.62,-5.8 3.14,-2.81 5.02,-6.18 5.02,-9 0,-10.88 -5.59,-15.02 -20.62,-15.27 -1.31,-0.02 -2.55,-0.57 -3.44,-1.52 -0.9,-0.95 -1.37,-2.22 -1.32,-3.53l0.04 -1.05c0.1,-2.44 2,-4.43 4.44,-4.63 6.91,-0.58 12.33,-6.46 12.33,-13.39 0,-6.41 -4.93,-12.21 -11.23,-13.21 -0.25,-0.04 -0.5,-0.1 -0.73,-0.17 -12.25,-1.87 -52.96,-0.95 -62.72,1.47 -5.22,1.3 -8.35,-0.81 -9.74,-2.19 -5.74,-5.67 -3.43,-18.02 -0.07,-32.38 0.58,-2.49 1.31,-5.58 1.34,-6.41 0,-0.91 0.02,-1.95 0.05,-3.11 0.17,-7.17 0.44,-17.99 -4.69,-34.57 -1.11,-3.57 -2.48,-6.41 -3.69,-8.92 -0.43,-0.88 -0.83,-1.71 -1.18,-2.5 -1.19,-2.63 -2.72,-4.22 -4.67,-4.87 -3.17,-1.06 -6.88,0.44 -7.96,0.94 -3.83,3.28 -4.48,8.54 -5.26,17.37 -0.41,4.63 -0.88,9.89 -2.15,15.52 -2.64,11.72 -22.83,55.33 -37.13,73.22 -3.13,3.91 -5.76,6.98 -7.5,9.02 -0.81,0.95 -1.66,1.94 -1.86,2.21 -2.27,3.12 -4.01,8.12 -4.68,10.42l0 96.7zm145.95 -26.61l0 0c-0,0 -0.01,0 -0.01,0l0.01 -0zm-60.02 -113.14l0 0 0 0z"/>
     </g>
    </g>
    <g>
     <path class="fil3" d="M50.57 264.4c-18.89,0 -34.35,-15.46 -34.35,-34.35l0 -74c0,-18.89 15.46,-34.34 34.35,-34.34 18.89,0 34.35,15.46 34.35,34.34l0 74c0,18.89 -15.46,34.35 -34.35,34.35z"/>
     <path class="fil2" d="M57.61 269.25l-14.06 0c-17.74,0 -32.17,-14.43 -32.17,-32.17l0 -88.06c0,-17.74 14.43,-32.17 32.17,-32.17l14.06 0c17.74,0 32.17,14.43 32.17,32.17l0 88.06c0,17.74 -14.43,32.17 -32.17,32.17zm-14.06 -142.69l0 0c-12.39,0 -22.47,10.08 -22.47,22.46l0 88.06c0,12.39 10.08,22.47 22.47,22.47l14.06 0c12.39,0 22.46,-10.08 22.46,-22.47l0 -88.06c0,-12.39 -10.08,-22.46 -22.46,-22.46l-14.06 0z"/>
    </g>
   </g>
  </g>
 </g>
</svg>
