<?xml version="1.0" encoding="UTF-8"?>
<!DOCTYPE svg PUBLIC "-//W3C//DTD SVG 1.1//EN" "http://www.w3.org/Graphics/SVG/1.1/DTD/svg11.dtd">
<!-- Creator: CorelDRAW 2018 (64-Bit) -->
<svg xmlns="http://www.w3.org/2000/svg" xml:space="preserve" width="0.27778in" height="0.27778in" version="1.1" style="shape-rendering:geometricPrecision; text-rendering:geometricPrecision; image-rendering:optimizeQuality; fill-rule:evenodd; clip-rule:evenodd"
viewBox="0 0 277.78 277.78"
 xmlns:xlink="http://www.w3.org/1999/xlink">
 <defs>
  <style type="text/css">
   <![CDATA[
    .fil0 {fill:none}
    .fil1 {fill:#FF8EB1}
    .fil2 {fill:gray;fill-rule:nonzero}
   ]]>
  </style>
 </defs>
 <g id="Layer_x0020_1">
  <metadata id="CorelCorpID_0Corel-Layer"/>
  <rect class="fil0" width="277.78" height="277.78"/>
  <g id="_2742857451328">
   <path class="fil1" d="M229.67 37.56c-12.36,-8.79 -26.62,-13.02 -40.8,-13.02 -18.35,0 -36.5,7.11 -49.98,20.57 -13.48,-13.46 -31.63,-20.57 -49.98,-20.57 -14.18,0 -28.44,4.23 -40.8,13.02 -31.63,22.5 -39.09,66.81 -16.59,98.42 13.8,19.38 29.22,37.57 46.08,54.36l61.29 61.03 61.29 -61.03c16.86,-16.79 32.28,-34.98 46.08,-54.36 22.5,-31.61 15.04,-75.91 -16.59,-98.42z"/>
   <path class="fil2" d="M226.99 41.32c-5.69,-4.04 -11.79,-7.05 -18.08,-9.06 -6.5,-2.07 -13.26,-3.09 -20.04,-3.09 -8.7,0 -17.33,1.7 -25.35,5 -7.85,3.23 -15.14,8 -21.37,14.21l-3.26 3.26 -3.26 -3.26c-6.23,-6.22 -13.52,-10.98 -21.37,-14.21 -8.02,-3.3 -16.65,-5 -25.35,-5 -6.78,0 -13.54,1.02 -20.04,3.09 -6.29,2.01 -12.39,5.02 -18.08,9.06l-0.03 0.02c-14.76,10.51 -23.88,26.11 -26.69,42.77 -2.81,16.67 0.7,34.4 11.19,49.16l0.02 0.02c6.81,9.57 14.04,18.86 21.66,27.85 7.61,8.98 15.59,17.63 23.92,25.91l58.03 57.78 58.03 -57.78c8.32,-8.28 16.3,-16.93 23.92,-25.91 7.62,-8.99 14.85,-18.28 21.66,-27.85l0.02 -0.02c10.49,-14.76 14,-32.48 11.19,-49.16 -2.81,-16.66 -11.93,-32.26 -26.69,-42.77l-0.02 -0.02zm-15.3 -17.86c7.22,2.3 14.19,5.74 20.65,10.33l0.02 0.02c16.85,11.99 27.26,29.78 30.46,48.78 3.2,18.99 -0.8,39.2 -12.78,56.04l-0.02 0.02c-6.99,9.82 -14.37,19.31 -22.13,28.46 -7.76,9.15 -15.92,17.99 -24.46,26.49l-64.55 64.28 -64.55 -64.28c-8.54,-8.5 -16.7,-17.34 -24.46,-26.49 -7.76,-9.15 -15.14,-18.65 -22.13,-28.46l-0.02 -0.02c-11.98,-16.84 -15.98,-37.05 -12.78,-56.04 3.2,-19 13.61,-36.79 30.46,-48.78l0.02 -0.02c6.46,-4.59 13.43,-8.03 20.65,-10.33 7.48,-2.39 15.19,-3.56 22.82,-3.56 9.86,0 19.69,1.94 28.87,5.72 7.62,3.14 14.78,7.54 21.12,13.15 6.34,-5.61 13.5,-10.01 21.12,-13.15 9.18,-3.78 19.01,-5.72 28.87,-5.72 7.64,0 15.34,1.17 22.82,3.56z"/>
  </g>
 </g>
</svg>
