<?xml version="1.0" encoding="UTF-8"?>
<!DOCTYPE svg PUBLIC "-//W3C//DTD SVG 1.1//EN" "http://www.w3.org/Graphics/SVG/1.1/DTD/svg11.dtd">
<!-- Creator: CorelDRAW 2018 (64-Bit) -->
<svg xmlns="http://www.w3.org/2000/svg" xml:space="preserve" width="0.27778in" height="0.27778in" version="1.1" style="shape-rendering:geometricPrecision; text-rendering:geometricPrecision; image-rendering:optimizeQuality; fill-rule:evenodd; clip-rule:evenodd"
viewBox="0 0 277.78 277.78"
 xmlns:xlink="http://www.w3.org/1999/xlink">
 <defs>
  <style type="text/css">
   <![CDATA[
    .fil0 {fill:none}
    .fil2 {fill:gray;fill-rule:nonzero}
    .fil1 {fill:#FFE0BC;fill-rule:nonzero}
   ]]>
  </style>
 </defs>
 <g id="Layer_x0020_1">
  <metadata id="CorelCorpID_0Corel-Layer"/>
  <rect class="fil0" width="277.78" height="277.78"/>
  <path class="fil1" d="M111.81 158.89l0 -104.14c0,-5.83 2.1,-11.55 6.16,-15.74 6.09,-6.29 11.82,-4.45 16.15,-0.82 5.02,4.21 7.77,14.3 7.82,20.85l0.89 65.39 0 -81.74c0,-6.38 1.77,-12.67 5.25,-18.01 3.85,-5.9 6.53,-6.69 11.12,-6.69 0.91,0 1.65,0.15 2.31,0.43 8.63,3.7 13.78,12.71 13.78,22.1l0 83.9 2.31 -62.22c0,-6.85 1.04,-15.09 5.86,-19.96 7.04,-7.11 12,-4.5 16.17,0 4.26,4.61 6.67,12.48 6.72,18.76l0.2 65.98 0.68 -35.44c0,-3.18 0.63,-6.36 2.04,-9.22 3.86,-7.8 8.83,-11.94 14.61,-9.63 6.82,2.73 8.08,8.27 9.15,13.17 0.83,3.8 1.25,7.68 1.25,11.57 0,20.34 -1.15,56.2 -1.15,107.03 0,19.54 -17.33,54.19 -61.95,55.28l-0.36 0c-25.64,-0.68 -42.7,-9.97 -56.69,-26.93 -18.27,-22.15 -42.9,-44.92 -54.56,-52.74 -5.78,-3.88 -10.74,-8.87 -14.21,-14.9 -4.7,-8.15 0.67,-23.21 14.77,-20.07 25.37,5.64 51.69,29.13 51.69,29.13l0 -15.36z"/>
  <path class="fil2" d="M107.69 158.89l0 -104.14c0,-3.45 0.64,-6.89 1.89,-10.09 1.22,-3.13 3.04,-6.03 5.43,-8.5l0.02 -0.02c3.53,-3.64 7.13,-5.19 10.62,-5.36 4.28,-0.22 8.02,1.66 11.11,4.26 0.83,0.69 1.6,1.5 2.32,2.39 0.25,-1.8 0.63,-3.59 1.15,-5.35 0.99,-3.4 2.46,-6.65 4.41,-9.63 2.33,-3.58 4.44,-5.67 6.78,-6.94 2.49,-1.35 4.87,-1.63 7.78,-1.63 0.7,0 1.37,0.07 2.03,0.19 0.67,0.13 1.3,0.32 1.89,0.58 5.05,2.16 9.08,5.82 11.87,10.3 2.86,4.59 4.42,10.04 4.42,15.59l0 0.08c0.36,-0.43 0.74,-0.85 1.14,-1.26 4.56,-4.59 8.72,-6.02 12.57,-5.54 3.8,0.47 6.84,2.76 9.52,5.65 2.44,2.63 4.34,6.08 5.65,9.73 1.39,3.88 2.14,8.07 2.17,11.78l0.04 12.08c1.07,-1.18 2.2,-2.17 3.39,-2.95 3.52,-2.32 7.38,-2.88 11.53,-1.22 4.43,1.77 7.07,4.49 8.79,7.59 1.6,2.89 2.26,5.8 2.85,8.53 0.44,2.01 0.77,4.07 1,6.19 0.23,2.13 0.34,4.22 0.34,6.26l-0.02 0c0,7.98 -0.17,18.24 -0.39,30.81 -0.33,19.33 -0.75,44.26 -0.75,76.22 0,12.18 -6.17,29.74 -20.57,42.59l-0.01 0.01 0.01 0.01c-10.51,9.38 -25.39,16.28 -45.4,16.78l-0.1 0 0 0.01 -0.36 0c-0.16,0 -0.32,-0.01 -0.48,-0.03 -13.27,-0.39 -24.38,-3.02 -34.04,-7.76 -9.78,-4.81 -17.99,-11.73 -25.35,-20.65 -8.41,-10.2 -18.23,-20.57 -27.48,-29.51 -10.49,-10.15 -20.17,-18.39 -26.19,-22.43 -3.21,-2.15 -6.19,-4.62 -8.83,-7.4 -2.53,-2.65 -4.78,-5.61 -6.65,-8.87 -2.17,-3.76 -2.72,-8.55 -1.74,-12.98 0.51,-2.31 1.43,-4.54 2.74,-6.48 1.35,-2.01 3.15,-3.75 5.37,-5.04 3.41,-1.96 7.71,-2.76 12.83,-1.62 18.35,4.07 36.98,16.95 46.69,24.46l0 -6.69zm8.24 -104.14l0 119.5 -0.02 0c0,0.97 -0.34,1.94 -1.03,2.72 -1.5,1.7 -4.1,1.85 -5.8,0.35 -0.07,-0.07 -25.53,-22.8 -49.85,-28.2 -2.92,-0.65 -5.24,-0.28 -6.97,0.72 -1.05,0.61 -1.93,1.48 -2.64,2.53 -0.74,1.1 -1.26,2.36 -1.55,3.65 -0.56,2.52 -0.3,5.16 0.84,7.12 1.52,2.63 3.37,5.07 5.49,7.29 2.23,2.34 4.74,4.43 7.45,6.24 6.4,4.3 16.5,12.88 27.31,23.33 9.43,9.11 19.46,19.72 28.13,30.22 6.63,8.04 13.95,14.24 22.61,18.5 8.61,4.23 18.63,6.57 30.68,6.93l0.24 -0 0.36 0 0 0.01c17.73,-0.46 30.83,-6.5 40.02,-14.71l0.01 0.01c12.45,-11.12 17.8,-26.13 17.8,-36.47 0,-30.16 0.44,-56.17 0.79,-76.35 0.21,-12.57 0.39,-22.83 0.39,-30.68l-0.02 0c0,-1.85 -0.09,-3.65 -0.28,-5.39 -0.19,-1.75 -0.48,-3.52 -0.87,-5.32 -0.48,-2.17 -0.99,-4.48 -1.98,-6.27 -0.88,-1.58 -2.28,-3 -4.67,-3.95 -1.41,-0.56 -2.74,-0.36 -3.96,0.44 -1.91,1.26 -3.74,3.77 -5.43,7.19 -0.54,1.1 -0.94,2.25 -1.2,3.43 -0.28,1.24 -0.4,2.57 -0.4,3.96l-0.02 0 -0.69 35.51c-0.04,2.24 -1.86,4.04 -4.1,4.04 -2.27,0 -4.1,-1.84 -4.1,-4.11l-0.2 -65.94c-0.02,-2.83 -0.61,-6.06 -1.69,-9.08 -0.96,-2.69 -2.3,-5.15 -3.94,-6.93 -1.49,-1.61 -3.01,-2.86 -4.5,-3.05 -1.43,-0.18 -3.26,0.65 -5.75,3.16 -1.82,1.83 -2.96,4.44 -3.66,7.3 -0.76,3.12 -1,6.57 -1,9.75l-0.01 0 -2.3 61.93 0 0.3c0,2.28 -1.85,4.12 -4.12,4.12 -2.28,0 -4.12,-1.85 -4.12,-4.12l0 -83.9c0,-4.03 -1.11,-7.96 -3.16,-11.24 -1.93,-3.09 -4.69,-5.62 -8.1,-7.08 -0.06,-0.02 -0.13,-0.04 -0.22,-0.06 -0.11,-0.02 -0.27,-0.03 -0.48,-0.03 -1.67,0 -2.93,0.11 -3.89,0.63 -1.11,0.6 -2.27,1.85 -3.78,4.17 -1.51,2.31 -2.65,4.82 -3.41,7.44 -0.77,2.65 -1.17,5.46 -1.17,8.33l0 81.74 -0.02 0c0,2.25 -1.8,4.08 -4.06,4.11 -2.26,0.02 -4.12,-1.79 -4.15,-4.06l0 -0.05 -0.02 0 0 -1.15 -0.87 -64.22c-0.02,-3.12 -0.76,-7.19 -2.14,-10.89 -1.07,-2.86 -2.5,-5.39 -4.21,-6.83 -1.69,-1.42 -3.58,-2.45 -5.44,-2.36 -1.49,0.07 -3.19,0.9 -5.1,2.87 -1.61,1.67 -2.85,3.65 -3.69,5.79 -0.87,2.22 -1.31,4.64 -1.31,7.1z"/>
 </g>
</svg>
