<?xml version="1.0" encoding="UTF-8"?>
<!DOCTYPE svg PUBLIC "-//W3C//DTD SVG 1.1//EN" "http://www.w3.org/Graphics/SVG/1.1/DTD/svg11.dtd">
<!-- Creator: CorelDRAW 2018 (64-Bit) -->
<svg xmlns="http://www.w3.org/2000/svg" xml:space="preserve" width="0.27778in" height="0.27778in" version="1.1" style="shape-rendering:geometricPrecision; text-rendering:geometricPrecision; image-rendering:optimizeQuality; fill-rule:evenodd; clip-rule:evenodd"
viewBox="0 0 277.78 277.78"
 xmlns:xlink="http://www.w3.org/1999/xlink">
 <defs>
  <style type="text/css">
   <![CDATA[
    .fil1 {fill:gray;fill-rule:nonzero}
    .fil0 {fill:#F2D430;fill-rule:nonzero}
    .fil2 {fill:white;fill-rule:nonzero}
   ]]>
  </style>
 </defs>
 <g id="Layer_x0020_1">
  <metadata id="CorelCorpID_0Corel-Layer"/>
  <g id="_2742542818416">
   <path class="fil0" d="M246.03 138.17c0,64.15 -50.41,116.52 -113.78,119.66 -4.33,-0.21 -8.61,-0.66 -12.81,-1.32 -51.05,-13.72 -88.62,-60.32 -88.62,-115.7 0,-66.17 53.64,-119.81 119.81,-119.81 0.22,0 0.44,0 0.65,0.01 2.06,0.43 4.1,0.93 6.12,1.46 51.05,13.72 88.62,60.33 88.62,115.71z"/>
   <path class="fil1" d="M255.73 138.17c0,33.37 -13.09,63.69 -34.41,86.11 -21.42,22.53 -51.17,37.07 -84.31,38.72 -0.93,0.04 -1.98,0.08 -3.16,0.11 -1.53,0.04 -2.57,0.06 -3.12,0.06 -3.28,0 -6.56,-0.13 -9.85,-0.39 -3.2,-0.25 -6.45,-0.64 -9.75,-1.17 -30.09,-4.74 -56.6,-20.2 -75.49,-42.34 -18.65,-21.84 -29.9,-50.17 -29.9,-81.11 0,-34.52 13.99,-65.77 36.61,-88.39 22.62,-22.62 53.87,-36.61 88.39,-36.61 4.36,0 8.76,0.24 13.16,0.7 4.43,0.46 8.76,1.16 12.98,2.06l0 0c0.88,0.18 1.96,0.43 3.2,0.72 1.44,0.35 2.49,0.61 3.19,0.8 26.93,7.24 50.28,23.26 66.77,44.79 16.13,21.05 25.71,47.37 25.71,75.93zm-41.91 78.98c19.54,-20.55 31.53,-48.36 31.53,-78.98 0,-26.2 -8.78,-50.35 -23.56,-69.64 -15.12,-19.74 -36.52,-34.42 -61.21,-41.06 -1.32,-0.35 -2.31,-0.61 -2.9,-0.76 -0.79,-0.19 -1.76,-0.41 -2.93,-0.65l-0.02 0c-3.93,-0.84 -7.89,-1.47 -11.88,-1.89 -3.9,-0.41 -7.94,-0.62 -12.11,-0.62 -31.65,0 -60.31,12.83 -81.05,33.57 -20.74,20.74 -33.57,49.4 -33.57,81.05 0,28.4 10.31,54.37 27.39,74.37 17.35,20.32 41.66,34.51 69.22,38.85l0.02 0c2.85,0.45 5.83,0.8 8.92,1.04l0.02 0c2.94,0.23 5.96,0.35 9.04,0.35 1.45,0 2.41,-0.01 2.88,-0.02 0.85,-0.02 1.82,-0.06 2.91,-0.11 30.38,-1.5 57.65,-14.85 77.3,-35.51z"/>
   <path class="fil1" d="M110.44 73.48c2.16,-3.2 -12.58,-14.5 -28.54,-8.77 -15.96,5.72 -30.15,17.5 -28.98,20.74 1.16,3.25 11,-8.36 26.96,-14.09 15.96,-5.73 28.65,4.95 30.56,2.11z"/>
   <path class="fil1" d="M166.37 67.24c-2.09,-3.39 13.1,-15.93 29.06,-10.2 15.96,5.72 29.96,18 28.7,21.53 -1.26,3.52 -10.88,-8.7 -26.84,-14.43 -15.96,-5.72 -29.06,6.1 -30.92,3.1z"/>
   <path class="fil2" d="M226.12 124.28c0,20.7 -16.78,37.48 -37.48,37.48 -20.7,0 -37.48,-16.78 -37.48,-37.48 0,-19.41 14.76,-35.37 33.65,-37.29 0.61,-0.06 1.22,-0.11 1.83,-0.14 0.66,-0.04 1.33,-0.05 2,-0.05 4.31,0 8.46,0.73 12.31,2.08 3.49,1.2 6.74,2.92 9.67,5.04 1.48,1.07 2.88,2.26 4.18,3.52 0.54,0.52 1.05,1.05 1.55,1.61 0.96,1.03 1.83,2.12 2.65,3.25 1.39,1.91 2.61,3.97 3.61,6.13 2.26,4.81 3.51,10.18 3.51,15.84z"/>
   <path class="fil1" d="M117 201.7c0.31,-4.6 5.97,-7.65 18.03,-4.63 12.06,3.02 26.58,11.63 24.87,15.7 -0.41,0.98 -13.85,-4.98 -25.91,-8.01 -12.06,-3.02 -17.3,1.39 -17,-3.07z"/>
   <path class="fil1" d="M117.15 101.94c-1.74,2.18 -4.09,3.92 -6.91,4.94 -8.22,2.99 -17.32,-1.25 -20.31,-9.47 -0.72,-2.01 -1.02,-4.07 -0.94,-6.06 0.66,-0.04 1.33,-0.06 2,-0.06 4.31,0 8.46,0.73 12.31,2.08 3.49,1.2 6.74,2.91 9.68,5.04 1.48,1.07 2.87,2.26 4.17,3.52z"/>
   <path class="fil2" d="M128.48 124.28c0,20.7 -16.78,37.48 -37.48,37.48 -20.7,0 -37.48,-16.78 -37.48,-37.48 0,-20.7 16.78,-37.48 37.48,-37.48 4.31,0 8.46,0.73 12.31,2.08 3.49,1.2 6.74,2.92 9.68,5.04 3.21,2.34 6.04,5.16 8.37,8.39 1.39,1.91 2.61,3.97 3.61,6.13 2.25,4.81 3.51,10.18 3.51,15.84z"/>
   <path class="fil1" d="M216.35 99.05c-1.9,2.11 -4.34,3.8 -7.2,4.83 -9.41,3.43 -19.82,-1.43 -23.25,-10.84 -0.72,-2 -1.07,-4.05 -1.09,-6.06 0.61,-0.06 1.22,-0.11 1.83,-0.14 0.66,-0.04 1.33,-0.05 2,-0.05 4.31,0 8.46,0.73 12.31,2.08 3.49,1.2 6.74,2.92 9.67,5.04 1.48,1.07 2.88,2.26 4.18,3.52 0.54,0.52 1.05,1.05 1.55,1.61z"/>
   <path class="fil1" d="M118.7 99.05c-1.9,2.11 -4.34,3.8 -7.2,4.83 -9.41,3.43 -19.82,-1.43 -23.25,-10.84 -0.72,-2 -1.07,-4.05 -1.09,-6.06 0.61,-0.06 1.22,-0.11 1.83,-0.14 0.66,-0.04 1.33,-0.05 2,-0.05 4.31,0 8.46,0.73 12.31,2.08 3.49,1.2 6.74,2.92 9.68,5.04 1.48,1.07 2.87,2.26 4.17,3.52 0.54,0.52 1.05,1.05 1.55,1.61z"/>
  </g>
 </g>
</svg>
