<?xml version="1.0" encoding="UTF-8"?>
<!DOCTYPE svg PUBLIC "-//W3C//DTD SVG 1.1//EN" "http://www.w3.org/Graphics/SVG/1.1/DTD/svg11.dtd">
<!-- Creator: CorelDRAW 2018 (64-Bit) -->
<svg xmlns="http://www.w3.org/2000/svg" xml:space="preserve" width="83px" height="83px" version="1.1" style="shape-rendering:geometricPrecision; text-rendering:geometricPrecision; image-rendering:optimizeQuality; fill-rule:evenodd; clip-rule:evenodd"
viewBox="0 0 83 83"
 xmlns:xlink="http://www.w3.org/1999/xlink">
 <defs>
  <style type="text/css">
   <![CDATA[
    .fil1 {fill:gray;fill-rule:nonzero}
    .fil0 {fill:#FFE0BB;fill-rule:nonzero}
   ]]>
  </style>
 </defs>
 <g id="__x0023_Layer_x0020_1">
  <metadata id="CorelCorpID_0Corel-Layer"/>
  <path class="fil0" d="M56.52 37.53l-21.63 -18.96c-1.21,-1.07 -2.78,-1.67 -4.39,-1.59 -2.42,0.12 -3.08,1.64 -3.11,3.2 -0.04,1.81 1.55,4.22 2.91,5.42l13.42 12.1 -16.98 -14.89c-1.32,-1.16 -2.95,-1.94 -4.7,-2.19 -1.92,-0.27 -2.58,0.14 -3.41,1.09 -0.17,0.19 -0.27,0.38 -0.33,0.56 -0.81,2.47 0.13,5.18 2.08,6.89l17.43 15.28 -13.35 -10.85c-1.42,-1.25 -3.32,-2.53 -5.21,-2.42 -2.76,0.17 -3.12,1.68 -2.94,3.36 0.18,1.73 1.38,3.66 2.67,4.81l13.67 12.06 -7.49 -6.31c-0.66,-0.58 -1.43,-1.03 -2.28,-1.26 -2.33,-0.62 -4.09,-0.34 -4.67,1.28 -0.67,1.92 0.25,3.19 1.08,4.3 0.63,0.87 1.36,1.66 2.17,2.37 4.22,3.7 11.89,9.99 22.44,19.25 4.06,3.56 14.42,6.27 22.77,-2.8l0.06 -0.07c4.01,-5.56 5.71,-10.69 4.73,-16.69 -1.27,-7.83 -1.52,-17.09 -1.02,-20.93 0.25,-1.91 0.12,-3.85 -0.51,-5.67 -0.83,-2.46 -4.94,-4.09 -6.86,-0.59 -3.45,6.3 -3.36,16.04 -3.36,16.04l-3.19 -2.79 0 0z"/>
  <path class="fil1" d="M55.73 38.44l-21.63 -18.97c-0.51,-0.44 -1.08,-0.79 -1.69,-1.01 -0.59,-0.21 -1.22,-0.31 -1.85,-0.28 -0.82,0.04 -1.3,0.28 -1.57,0.61 -0.28,0.36 -0.39,0.88 -0.4,1.42 -0.01,0.6 0.25,1.35 0.65,2.09 0.51,0.95 1.21,1.84 1.86,2.41l13.42 12.1c0.5,0.44 0.54,1.2 0.09,1.7 -0.44,0.49 -1.2,0.53 -1.7,0.09l-0.12 -0.11 -16.85 -14.77c-0.57,-0.51 -1.22,-0.93 -1.92,-1.26 -0.69,-0.31 -1.41,-0.54 -2.15,-0.64 -0.75,-0.11 -1.21,-0.09 -1.53,0.02 -0.27,0.1 -0.52,0.34 -0.81,0.67 -0.02,0.03 -0.04,0.06 -0.07,0.1l-0.01 0.02 -0.01 0.02c-0.31,0.96 -0.29,1.98 -0.01,2.94 0.31,1.02 0.92,1.95 1.74,2.67l17.43 15.28c0.5,0.44 0.55,1.2 0.11,1.69 -0.43,0.49 -1.16,0.55 -1.66,0.14l-13.35 -10.85 -0.05 -0.04c-0.64,-0.56 -1.39,-1.13 -2.18,-1.54 -0.71,-0.37 -1.45,-0.61 -2.16,-0.56 -0.95,0.05 -1.44,0.27 -1.64,0.58 -0.22,0.32 -0.24,0.86 -0.18,1.45 0.07,0.66 0.34,1.38 0.72,2.06 0.42,0.76 0.98,1.46 1.56,1.98l0.06 0.06 13.53 11.93 0.06 0.05 0.02 0.02c0.49,0.44 0.54,1.2 0.1,1.69 -0.43,0.49 -1.17,0.54 -1.67,0.12l0 0 -7.49 -6.31 -0.05 -0.05c-0.26,-0.22 -0.55,-0.42 -0.85,-0.59 -0.3,-0.16 -0.6,-0.28 -0.91,-0.37 -1.01,-0.27 -1.86,-0.34 -2.46,-0.18 -0.36,0.1 -0.63,0.32 -0.76,0.7 -0.23,0.65 -0.19,1.18 -0.03,1.64 0.19,0.54 0.57,1.06 0.93,1.54 0.29,0.39 0.6,0.77 0.94,1.14 0.34,0.37 0.7,0.72 1.06,1.04 1.57,1.38 3.76,3.23 6.44,5.5 4.14,3.51 9.48,8.03 16,13.75 2.14,1.87 6.21,3.48 10.77,2.92 3.37,-0.42 7,-2.03 10.32,-5.63l0.01 -0.02c1.91,-2.65 3.27,-5.19 4.02,-7.76 0.75,-2.55 0.92,-5.16 0.46,-7.97 -0.6,-3.71 -0.98,-7.73 -1.15,-11.35 -0.21,-4.15 -0.15,-7.82 0.13,-9.93 0.11,-0.89 0.13,-1.79 0.06,-2.68 -0.08,-0.82 -0.25,-1.65 -0.52,-2.45 -0.2,-0.58 -0.68,-1.09 -1.29,-1.43 -0.32,-0.17 -0.67,-0.29 -1.02,-0.34 -0.32,-0.04 -0.66,-0.01 -0.98,0.1 -0.5,0.17 -0.99,0.57 -1.37,1.27 -3.3,6.03 -3.22,15.44 -3.22,15.46 0,0.67 -0.53,1.21 -1.2,1.21 -0.3,0 -0.58,-0.11 -0.79,-0.3l-3.19 -2.79 0 0zm-20.05 -20.78l0 0 22.92 20.1c0.22,-3.42 0.95,-9.54 3.42,-14.05 0.71,-1.29 1.67,-2.05 2.71,-2.4 0.67,-0.23 1.37,-0.29 2.05,-0.2 0.66,0.08 1.3,0.3 1.87,0.62 1.12,0.61 2.03,1.61 2.42,2.76 0.33,0.98 0.54,1.99 0.63,3.02 0.09,1.06 0.06,2.13 -0.07,3.18 -0.26,1.98 -0.31,5.49 -0.11,9.52 0.17,3.54 0.54,7.46 1.12,11.08 0.52,3.18 0.33,6.13 -0.52,9.03 -0.84,2.85 -2.32,5.64 -4.4,8.52 -0.02,0.04 -0.06,0.07 -0.09,0.11l-0.02 0.03c-0.02,0.02 -0.04,0.04 -0.06,0.07 -3.76,4.08 -7.92,5.92 -11.8,6.4 -5.3,0.65 -10.1,-1.28 -12.64,-3.51 -6.38,-5.59 -11.78,-10.17 -15.97,-13.72 -2.62,-2.22 -4.76,-4.03 -6.47,-5.53 -0.45,-0.39 -0.86,-0.8 -1.25,-1.22 -0.39,-0.42 -0.76,-0.87 -1.1,-1.34 -0.47,-0.63 -0.97,-1.3 -1.27,-2.16 -0.33,-0.93 -0.42,-1.99 0.03,-3.25 0.41,-1.19 1.25,-1.9 2.4,-2.21 0.33,-0.1 0.69,-0.15 1.07,-0.17l-2.3 -2.03c-0.03,-0.02 -0.05,-0.04 -0.08,-0.06 -0.76,-0.69 -1.5,-1.61 -2.06,-2.62 -0.53,-0.95 -0.9,-1.98 -1.01,-2.97 -0.11,-1.09 -0.03,-2.15 0.58,-3.04 0.62,-0.91 1.69,-1.53 3.49,-1.64 0.1,-0.01 0.2,-0.01 0.3,-0.01 -1.11,-1.01 -1.92,-2.29 -2.34,-3.68 -0.43,-1.41 -0.45,-2.92 0.02,-4.38 0.05,-0.14 0.11,-0.28 0.18,-0.43 0.02,-0.03 0.03,-0.06 0.05,-0.08 0.08,-0.15 0.2,-0.3 0.34,-0.47 0.54,-0.62 1.04,-1.07 1.79,-1.34 0.69,-0.26 1.52,-0.32 2.7,-0.15 0.98,0.14 1.93,0.43 2.82,0.84 0.42,0.19 0.82,0.42 1.21,0.66 -0.04,-0.26 -0.06,-0.52 -0.06,-0.77 0.02,-1.02 0.27,-2.04 0.93,-2.87 0.67,-0.84 1.73,-1.43 3.33,-1.51 0.95,-0.05 1.89,0.1 2.77,0.42 0.91,0.33 1.74,0.82 2.47,1.46l0 -0.01z"/>
  <path class="fil0" d="M51.52 40.81l-21.63 -18.97c-1.21,-1.06 -2.78,-1.66 -4.39,-1.58 -2.41,0.12 -3.08,1.64 -3.11,3.2 -0.04,1.81 1.55,4.22 2.91,5.42l13.42 12.09 -16.98 -14.88c-1.33,-1.16 -2.95,-1.94 -4.7,-2.19 -1.92,-0.28 -2.57,0.14 -3.41,1.09 -0.17,0.19 -0.27,0.37 -0.33,0.56 -0.81,2.47 0.13,5.18 2.08,6.89l17.43 15.27 -13.35 -10.85c-1.42,-1.24 -3.32,-2.53 -5.21,-2.41 -2.76,0.17 -3.12,1.67 -2.94,3.36 0.18,1.72 1.37,3.65 2.67,4.81l13.67 12.05 -7.49 -6.31c-0.66,-0.58 -1.43,-1.03 -2.29,-1.25 -2.32,-0.62 -4.09,-0.34 -4.66,1.28 -0.67,1.91 0.25,3.18 1.07,4.3 0.64,0.86 1.37,1.65 2.18,2.36 4.23,3.71 11.88,10 22.44,19.25 4.06,3.56 14.41,6.27 22.77,-2.8l0.06 -0.07c4.01,-5.56 5.71,-10.69 4.73,-16.68 -1.27,-7.83 -1.51,-17.09 -1.02,-20.94 0.25,-1.9 0.12,-3.84 -0.51,-5.66 -0.83,-2.46 -4.94,-4.09 -6.86,-0.59 -3.44,6.29 -3.36,16.04 -3.36,16.04l-3.19 -2.8 0 0.01z"/>
  <path class="fil1" d="M50.73 41.71l-21.63 -18.96c-0.51,-0.44 -1.08,-0.79 -1.69,-1.01 -0.59,-0.21 -1.22,-0.31 -1.86,-0.28 -0.81,0.04 -1.29,0.28 -1.56,0.61 -0.29,0.36 -0.39,0.88 -0.4,1.42 -0.01,0.6 0.25,1.35 0.65,2.09 0.5,0.94 1.21,1.83 1.85,2.41l13.43 12.09c0.49,0.45 0.54,1.21 0.09,1.7 -0.44,0.49 -1.21,0.53 -1.7,0.09l-0.12 -0.11 -16.84 -14.77c-0.58,-0.5 -1.23,-0.93 -1.93,-1.25 -0.69,-0.32 -1.41,-0.54 -2.15,-0.65 -0.75,-0.1 -1.21,-0.09 -1.53,0.03 -0.28,0.1 -0.52,0.33 -0.81,0.66 -0.03,0.04 -0.06,0.08 -0.08,0.1 0,0.01 -0.01,0.02 -0.01,0.05l-0.02 0.05c-0.3,0.95 -0.27,1.95 0.01,2.88 0.31,1.02 0.92,1.96 1.74,2.68l17.42 15.27c0.5,0.44 0.55,1.2 0.12,1.7 -0.43,0.49 -1.16,0.55 -1.66,0.14l-13.35 -10.85 -0.05 -0.05c-0.65,-0.55 -1.39,-1.12 -2.18,-1.53 -0.71,-0.37 -1.45,-0.61 -2.15,-0.57 -0.95,0.06 -1.44,0.28 -1.65,0.59 -0.22,0.32 -0.24,0.85 -0.17,1.45 0.06,0.65 0.33,1.37 0.7,2.05 0.43,0.76 0.99,1.47 1.57,1.98l0.06 0.06 13.53 11.94 0.05 0.04 0 0.01 0.02 0.02c0.5,0.44 0.55,1.19 0.11,1.69 -0.43,0.49 -1.18,0.54 -1.67,0.12l-0.01 0 -7.49 -6.31 -0.05 -0.05c-0.26,-0.22 -0.55,-0.42 -0.85,-0.59 -0.29,-0.16 -0.6,-0.29 -0.92,-0.37l-0.04 -0.01c-0.99,-0.26 -1.82,-0.33 -2.41,-0.17 -0.36,0.1 -0.63,0.33 -0.76,0.7 -0.23,0.65 -0.19,1.18 -0.03,1.64 0.19,0.54 0.57,1.06 0.93,1.54l0 0.01c0.29,0.39 0.6,0.77 0.94,1.13 0.34,0.37 0.69,0.72 1.06,1.04 1.57,1.38 3.77,3.24 6.45,5.52 4.14,3.5 9.47,8.02 15.99,13.73 2.14,1.88 6.21,3.49 10.77,2.93 3.37,-0.42 7.01,-2.04 10.32,-5.64l0.01 -0.01c1.91,-2.65 3.27,-5.19 4.03,-7.76 0.75,-2.56 0.92,-5.16 0.46,-7.98 -0.61,-3.7 -0.98,-7.72 -1.16,-11.34 -0.2,-4.15 -0.14,-7.82 0.13,-9.94 0.11,-0.89 0.14,-1.79 0.06,-2.67 -0.07,-0.83 -0.24,-1.65 -0.51,-2.46 -0.2,-0.58 -0.68,-1.09 -1.29,-1.43 -0.32,-0.17 -0.67,-0.29 -1.02,-0.34 -0.33,-0.04 -0.66,-0.01 -0.98,0.1 -0.51,0.17 -0.99,0.57 -1.38,1.27 -3.3,6.03 -3.22,15.44 -3.22,15.47 0.01,0.66 -0.53,1.2 -1.19,1.2 -0.31,0 -0.58,-0.11 -0.8,-0.29l-3.19 -2.8 0.01 -0.01zm-20.05 -20.77l0 0 22.92 20.09c0.22,-3.41 0.95,-9.54 3.42,-14.04 0.7,-1.29 1.67,-2.05 2.71,-2.41 0.67,-0.23 1.37,-0.28 2.05,-0.19 0.66,0.08 1.3,0.29 1.87,0.61 1.12,0.61 2.03,1.61 2.42,2.76 0.33,0.98 0.53,1.99 0.62,3.02 0.1,1.06 0.07,2.13 -0.07,3.19 -0.25,1.98 -0.3,5.49 -0.11,9.52 0.17,3.54 0.54,7.46 1.13,11.07 0.52,3.18 0.32,6.14 -0.53,9.04 -0.84,2.85 -2.32,5.62 -4.39,8.5 -0.02,0.04 -0.06,0.08 -0.09,0.12l-0.03 0.03c-0.01,0.03 -0.03,0.05 -0.06,0.07 -3.75,4.08 -7.91,5.92 -11.79,6.4 -5.31,0.65 -10.1,-1.28 -12.64,-3.51 -6.38,-5.58 -11.78,-10.16 -15.96,-13.71 -2.63,-2.22 -4.77,-4.03 -6.49,-5.54 -0.44,-0.39 -0.86,-0.8 -1.25,-1.21 -0.39,-0.43 -0.76,-0.88 -1.1,-1.35 -0.47,-0.63 -0.96,-1.3 -1.27,-2.15 -0.33,-0.94 -0.41,-2 0.03,-3.26 0.42,-1.18 1.26,-1.9 2.4,-2.21 0.34,-0.09 0.7,-0.15 1.08,-0.17l-2.31 -2.03c-0.02,-0.02 -0.05,-0.04 -0.07,-0.06 -0.77,-0.69 -1.51,-1.61 -2.07,-2.62 -0.52,-0.94 -0.89,-1.98 -1,-2.97 -0.11,-1.09 -0.03,-2.15 0.58,-3.04 0.62,-0.91 1.68,-1.53 3.49,-1.64 0.1,0 0.2,-0.01 0.3,-0.01 -1.11,-1.01 -1.93,-2.29 -2.34,-3.68 -0.43,-1.39 -0.46,-2.88 0,-4.31l0.02 -0.07c0.05,-0.16 0.13,-0.33 0.23,-0.51 0.1,-0.16 0.21,-0.31 0.34,-0.46 0.54,-0.62 1.05,-1.07 1.79,-1.35 0.69,-0.25 1.52,-0.31 2.7,-0.14 0.98,0.14 1.93,0.42 2.82,0.83 0.41,0.2 0.82,0.42 1.21,0.67 -0.04,-0.26 -0.06,-0.52 -0.05,-0.78 0.02,-1.02 0.26,-2.04 0.92,-2.86 0.67,-0.85 1.73,-1.44 3.33,-1.52 0.95,-0.05 1.89,0.11 2.77,0.43 0.91,0.32 1.74,0.82 2.47,1.45l0 0z"/>
 </g>
</svg>
