<?xml version="1.0" encoding="UTF-8"?>
<!DOCTYPE svg PUBLIC "-//W3C//DTD SVG 1.1//EN" "http://www.w3.org/Graphics/SVG/1.1/DTD/svg11.dtd">
<!-- Creator: CorelDRAW 2018 (64-Bit) -->
<svg xmlns="http://www.w3.org/2000/svg" xml:space="preserve" width="0.27778in" height="0.27778in" version="1.1" style="shape-rendering:geometricPrecision; text-rendering:geometricPrecision; image-rendering:optimizeQuality; fill-rule:evenodd; clip-rule:evenodd"
viewBox="0 0 277.78 277.78"
 xmlns:xlink="http://www.w3.org/1999/xlink">
 <defs>
  <style type="text/css">
   <![CDATA[
    .fil3 {fill:gray;fill-rule:nonzero}
    .fil0 {fill:#A3B9FF;fill-rule:nonzero}
    .fil1 {fill:#FF8F54;fill-rule:nonzero}
    .fil2 {fill:white;fill-rule:nonzero}
   ]]>
  </style>
 </defs>
 <g id="Layer_x0020_1">
  <metadata id="CorelCorpID_0Corel-Layer"/>
  <g id="_2742542321984">
   <g>
    <polygon class="fil0" points="180.01,168.82 187.04,233.44 163.13,257.35 138.93,201.92 "/>
    <polygon class="fil0" points="108.44,97.25 43.82,90.22 19.91,114.13 75.34,138.33 "/>
    <path class="fil1" d="M88.33 225.61c-11.59,11.59 -56.2,17.61 -56.2,17.61 0,0 6.03,-44.61 17.61,-56.19 11.59,-11.59 19.46,-2.25 30.11,8.4 10.65,10.66 20.06,18.59 8.47,30.18z"/>
    <path class="fil0" d="M123.09 213.19l-60.18 -60.18c20.4,-27.81 47.79,-58.33 79.6,-86.67 48.48,-43.19 117.86,-48.37 117.86,-48.37 0,0 -4.25,70.23 -48.36,117.87 -29.6,31.97 -60.72,58.23 -88.92,77.34z"/>
    <path class="fil2" d="M197.3 116.64c-9.94,9.94 -26.05,9.94 -35.99,0 -9.94,-9.94 -9.94,-26.05 0,-35.99 9.94,-9.94 26.06,-9.94 35.99,0 9.94,9.94 9.94,26.05 0,35.99z"/>
   </g>
   <g>
    <path class="fil3" d="M183.74 168.43l7.22 66.41 -29.06 29.06 -27.54 -63.09 48.64 -39.19 0.74 6.82zm-0.62 63.63l-6.09 -56.01 -33.52 27 20.85 47.76 18.76 -18.75z"/>
    <path class="fil3" d="M101.22 100.24l-56.01 -6.09 -18.75 18.76 47.76 20.85 27 -33.52zm-57 -13.74l71.44 7.76 -39.19 48.64 -63.09 -27.54 29.06 -29.06 1.79 0.2z"/>
    <path class="fil3" d="M90.98 228.27c-12.47,12.48 -58.22,18.65 -58.35,18.67l-4.88 0.67 0.67 -4.88c0.02,-0.13 6.2,-45.88 18.67,-58.35 13.58,-13.59 22.37,-4.73 33.63,6.61 0.3,0.3 -0.56,-0.56 1.8,1.79 2.85,2.85 1.44,1.44 1.79,1.8 11.35,11.26 20.27,20.11 6.68,33.69zm-54.38 10.49c11.69,-1.9 40.59,-7.32 49.07,-15.8 8.27,-8.27 1.7,-14.78 -6.65,-23.07 -1.54,-1.53 -0.19,-0.16 -1.82,-1.8 -1.14,-1.14 -0.32,-0.33 -1.8,-1.82 -8.28,-8.34 -14.74,-14.85 -23,-6.59 -8.48,8.48 -13.91,37.39 -15.8,49.07z"/>
    <path class="fil3" d="M120.44 215.85l-62.45 -62.45 1.91 -2.6c10.58,-14.43 23.02,-29.57 36.97,-44.76 13.15,-14.32 27.64,-28.68 43.16,-42.5 49.43,-44.04 119.86,-49.3 120.06,-49.31l4.32 -0.34 -0.28 4.32c-0.01,0.21 -4.33,71.55 -49.35,120.18 -14.41,15.56 -29.15,29.76 -43.72,42.43l0 0.01c-15.59,13.56 -31.09,25.45 -45.86,35.46l-2.57 1.74 -2.18 -2.18zm-52.59 -63.21l55.7 55.7c13.64,-9.4 28,-20.52 42.56,-33.19l0.02 0c14.43,-12.54 28.97,-26.55 43.13,-41.85 36.69,-39.63 45.21,-95.18 46.96,-111.13 -15.85,1.94 -70.88,11.02 -111.22,46.96 -15.35,13.68 -29.66,27.85 -42.63,41.97 -12.93,14.07 -24.53,28.09 -34.53,41.52z"/>
    <path class="fil3" d="M199.96 119.3c-5.7,5.7 -13.18,8.56 -20.65,8.56 -7.47,0 -14.95,-2.85 -20.65,-8.56 -5.7,-5.7 -8.56,-13.18 -8.56,-20.65 0,-7.48 2.85,-14.95 8.56,-20.65 5.7,-5.7 13.18,-8.56 20.65,-8.56 7.48,0 14.95,2.85 20.65,8.56 5.7,5.7 8.56,13.18 8.56,20.65 0,7.47 -2.85,14.94 -8.56,20.65zm-20.65 1.04c5.55,0 11.11,-2.12 15.34,-6.35 4.24,-4.24 6.35,-9.79 6.35,-15.34 0,-5.56 -2.12,-11.11 -6.35,-15.34 -4.23,-4.23 -9.79,-6.35 -15.34,-6.35 -5.55,0 -11.1,2.12 -15.34,6.35 -4.24,4.24 -6.35,9.79 -6.35,15.34 0,5.55 2.12,11.1 6.35,15.34 4.24,4.24 9.79,6.35 15.34,6.35z"/>
   </g>
  </g>
 </g>
</svg>
