<?xml version="1.0" encoding="UTF-8"?>
<!DOCTYPE svg PUBLIC "-//W3C//DTD SVG 1.1//EN" "http://www.w3.org/Graphics/SVG/1.1/DTD/svg11.dtd">
<!-- Creator: CorelDRAW 2018 (64-Bit) -->
<svg xmlns="http://www.w3.org/2000/svg" xml:space="preserve" width="0.27778in" height="0.27778in" version="1.1" style="shape-rendering:geometricPrecision; text-rendering:geometricPrecision; image-rendering:optimizeQuality; fill-rule:evenodd; clip-rule:evenodd"
viewBox="0 0 277.78 277.78"
 xmlns:xlink="http://www.w3.org/1999/xlink">
 <defs>
  <style type="text/css">
   <![CDATA[
    .fil0 {fill:gray;fill-rule:nonzero}
   ]]>
  </style>
 </defs>
 <g id="Layer_x0020_1">
  <metadata id="CorelCorpID_0Corel-Layer"/>
  <g id="_2742850800368">
   <path class="fil0" d="M266.69 166.43c0,2.62 -2.13,4.74 -4.74,4.74 -2.62,0 -4.74,-2.12 -4.74,-4.74 0,-6.3 -2.08,-9.91 -5.3,-11.9 -3.71,-2.29 -9.12,-2.95 -14.86,-3.05 -2.61,-0.04 -4.69,-2.19 -4.65,-4.8 0.04,-2.61 2.19,-4.69 4.8,-4.65 7.21,0.12 14.21,1.07 19.68,4.46 5.96,3.69 9.81,9.8 9.81,19.94z"/>
   <path class="fil0" d="M241.84 146.94c-0.1,2.61 -2.3,4.64 -4.91,4.54 -2.61,-0.1 -4.64,-2.3 -4.54,-4.91l0.04 -1.02c0.1,-2.61 2.3,-4.65 4.91,-4.54 2.61,0.1 4.64,2.3 4.54,4.91l-0.04 1.02z"/>
   <path class="fil0" d="M237.55 150.46c-2.61,0.21 -4.9,-1.73 -5.11,-4.34 -0.21,-2.61 1.73,-4.9 4.34,-5.11 3.37,-0.28 6.4,-1.85 8.57,-4.22 2.15,-2.33 3.47,-5.45 3.47,-8.87 0,-2.62 2.13,-4.74 4.74,-4.74 2.62,0 4.74,2.12 4.74,4.74 0,5.87 -2.28,11.25 -5.99,15.28 -3.74,4.07 -8.95,6.77 -14.76,7.26z"/>
   <path class="fil0" d="M258.3 127.92c0,2.62 -2.13,4.74 -4.74,4.74 -2.62,0 -4.74,-2.13 -4.74,-4.74 0,-3.2 -1.2,-6.16 -3.15,-8.45 -2,-2.35 -4.76,-4 -7.81,-4.48 -2.58,-0.4 -4.35,-2.81 -3.94,-5.39 0.4,-2.58 2.81,-4.35 5.39,-3.95 5.33,0.84 10.13,3.68 13.56,7.7 3.37,3.96 5.45,9.07 5.45,14.57z"/>
   <path class="fil0" d="M243.3 110.56c-0.13,2.61 -2.36,4.62 -4.96,4.48 -2.61,-0.13 -4.62,-2.35 -4.48,-4.96l0 -0.05c0.13,-2.61 2.36,-4.62 4.97,-4.48 2.61,0.13 4.61,2.35 4.48,4.96l-0 0.05z"/>
   <path class="fil0" d="M79.09 148.62c0,-2.62 2.13,-4.74 4.74,-4.74 2.62,0 4.74,2.13 4.74,4.74l0 97.28c0,2.62 -2.12,4.74 -4.74,4.74 -2.62,0 -4.74,-2.12 -4.74,-4.74l0 -97.28z"/>
   <path class="fil0" d="M79.93 248.56c-1.47,-2.16 -0.92,-5.11 1.24,-6.58 2.16,-1.47 5.11,-0.92 6.58,1.24 2.03,2.98 16.77,5.43 35.13,7.31 33,3.38 76.21,3.94 83.86,3.28l3.38 -0.3c7.41,-0.64 10.8,-0.93 12.96,-1.2 1.79,-0.22 2.72,-0.42 4.43,-0.78 1.31,-0.28 2.94,-0.63 3.37,-0.71 2.57,-0.51 5.07,1.15 5.57,3.72 0.51,2.57 -1.15,5.07 -3.72,5.57 -2.38,0.48 -2.87,0.58 -3.3,0.67 -2.1,0.44 -3.24,0.69 -5.2,0.93 -2.3,0.28 -5.76,0.58 -13.33,1.24l-3.39 0.29c-7.85,0.68 -52.01,0.13 -85.6,-3.31 -20.85,-2.14 -38.11,-5.7 -41.98,-11.38z"/>
   <path class="fil0" d="M232.93 260.08c-2.54,0.63 -5.1,-0.93 -5.72,-3.46 -0.63,-2.54 0.93,-5.1 3.46,-5.72l0.86 -0.22c2.54,-0.62 5.1,0.93 5.72,3.47 0.62,2.54 -0.93,5.1 -3.46,5.72l-0.86 0.21z"/>
   <path class="fil0" d="M234.46 259.65c-2.41,0.99 -5.18,-0.16 -6.17,-2.58 -0.99,-2.41 0.16,-5.18 2.57,-6.17 8.78,-3.6 8.64,-8.88 8.56,-12.02 -0.02,-0.77 -0.04,-0.9 -0.04,-1.2 0,-2.62 2.13,-4.74 4.74,-4.74 2.62,0 4.74,2.13 4.74,4.74l0 0.98c0.14,5.56 0.38,14.93 -14.42,20.99z"/>
   <path class="fil0" d="M239.46 238.42c-0.41,-2.58 1.35,-5 3.93,-5.41 2.58,-0.41 5,1.35 5.41,3.93l0.15 0.9c0.41,2.58 -1.35,5 -3.93,5.41 -2.58,0.41 -5,-1.35 -5.41,-3.93l-0.15 -0.9z"/>
   <path class="fil0" d="M248.97 237.91c0.37,2.59 -1.43,4.99 -4.02,5.35 -2.59,0.37 -4.98,-1.43 -5.35,-4.02 -0.61,-4.2 -1.93,-6.87 -3.52,-8.68 -1.41,-1.61 -3.22,-2.7 -4.95,-3.62l-0.25 -0.07 0 -0 -0.04 -0.01c-1.71,-0.56 -2.8,-1.81 -3.18,-3.35 -0.04,-0.16 -0.07,-0.31 -0.1,-0.48 -0.46,-2.97 1.02,-5.25 4.46,-5.45l0.14 -0.04c6.28,-2.1 17.02,-5.69 17.39,-13.76 0.11,-2.61 2.32,-4.63 4.93,-4.52 2.61,0.11 4.63,2.32 4.52,4.93 -0.49,10.81 -8.67,16.3 -16.34,19.57 0.18,0.19 0.36,0.39 0.54,0.59 2.68,3.06 4.87,7.29 5.78,13.57z"/>
   <path class="fil0" d="M258.99 203.81c0.08,2.61 -1.96,4.8 -4.57,4.87 -2.61,0.08 -4.79,-1.96 -4.87,-4.57 -0.21,-5.98 -1.8,-9.05 -4.19,-10.63 -2.7,-1.78 -6.98,-2.28 -11.59,-2.74 -2.6,-0.26 -4.5,-2.57 -4.24,-5.17 0.26,-2.6 2.57,-4.5 5.17,-4.24 5.85,0.58 11.32,1.25 15.89,4.26 4.87,3.22 8.08,8.59 8.41,18.22z"/>
   <path class="fil0" d="M238.05 188.83c-1.54,2.11 -4.51,2.56 -6.61,1.02 -2.11,-1.54 -2.56,-4.51 -1.02,-6.61l0.31 -0.43c1.55,-2.11 4.51,-2.57 6.62,-1.02 2.11,1.54 2.56,4.51 1.02,6.61l-0.31 0.43z"/>
   <path class="fil0" d="M234.02 190.32c-2.6,-0.29 -4.47,-2.63 -4.19,-5.23 0.29,-2.6 2.63,-4.47 5.23,-4.19 0.7,0.08 1.46,0.11 2.26,0.11 5.17,0 10.04,-1.91 13.73,-4.74 3.45,-2.65 5.78,-5.99 6.12,-9.11 0.02,-0.2 0.03,-0.44 0.03,-0.74 0,-2.62 2.13,-4.74 4.74,-4.74 2.62,0 4.74,2.13 4.74,4.74 0,0.54 -0.04,1.14 -0.11,1.78 -0.64,5.72 -4.34,11.41 -9.79,15.59 -5.22,4 -12.13,6.7 -19.47,6.7 -1.04,0 -2.14,-0.06 -3.3,-0.19z"/>
   <polygon class="fil0" points="56.3,261.67 42.55,261.67 42.55,252.18 56.3,252.18 "/>
   <path class="fil0" d="M42.55 261.67c-8.65,0 -16.52,-3.54 -22.22,-9.24 -5.7,-5.7 -9.24,-13.56 -9.24,-22.22l9.49 0c0,6.04 2.47,11.53 6.46,15.51 3.98,3.98 9.47,6.46 15.51,6.46l0 9.49z"/>
   <polygon class="fil0" points="11.1,230.22 11.1,144.12 20.59,144.12 20.59,230.22 "/>
   <path class="fil0" d="M11.1 144.12c0,-8.65 3.54,-16.52 9.24,-22.22 5.7,-5.7 13.56,-9.24 22.22,-9.24l0 9.49c-6.04,0 -11.53,2.48 -15.51,6.46 -3.98,3.98 -6.46,9.48 -6.46,15.51l-9.49 0z"/>
   <polygon class="fil0" points="42.55,112.67 56.3,112.67 56.3,122.15 42.55,122.15 "/>
   <path class="fil0" d="M56.3 112.67c8.65,0 16.52,3.54 22.22,9.24 5.7,5.7 9.24,13.57 9.24,22.22l-9.49 0c0,-6.04 -2.47,-11.53 -6.46,-15.51 -3.98,-3.98 -9.47,-6.46 -15.51,-6.46l0 -9.49z"/>
   <polygon class="fil0" points="87.75,144.12 87.75,230.22 78.26,230.22 78.26,144.12 "/>
   <path class="fil0" d="M87.75 230.22c0,8.65 -3.54,16.52 -9.24,22.22 -5.7,5.7 -13.56,9.24 -22.22,9.24l0 -9.49c6.04,0 11.53,-2.47 15.51,-6.46 3.98,-3.98 6.46,-9.47 6.46,-15.51l9.49 0z"/>
   <path class="fil0" d="M239.4 105.59c2.58,0.45 4.3,2.91 3.85,5.48 -0.45,2.58 -2.91,4.3 -5.49,3.85 -5.63,-0.99 -18.71,-1.27 -31.67,-0.98 -12.85,0.28 -25.42,1.11 -30.3,2.31 -7.23,1.79 -10.88,-1.51 -12.35,-7.46 -1.74,-7.02 0.94,-18.45 2.78,-26.33 0.73,-3.11 1.3,-5.57 1.3,-6.24 0,-0.2 0.03,-1.57 0.07,-3.07 0.16,-6.69 0.43,-17.59 -4.6,-33.82 -1.07,-3.47 -2.45,-6.31 -3.61,-8.72 -0.44,-0.91 -0.85,-1.76 -1.16,-2.44 -3.39,-7.5 -10.63,-4.66 -12.33,-3.86 -3.98,3.41 -4.53,9.52 -5.2,17 -0.41,4.63 -0.86,9.71 -2.09,15.18 -1.47,6.53 -8.17,22.45 -16.17,38.19 -6.48,12.75 -13.88,25.55 -20.15,33.39 -3.27,4.09 -5.71,6.94 -7.33,8.83 -0.94,1.1 -1.59,1.86 -1.81,2.16 -2.97,4.09 -4.73,10.74 -4.74,10.76 -0.67,2.53 -3.26,4.04 -5.78,3.37 -2.53,-0.67 -4.04,-3.26 -3.37,-5.78 0,-0.02 2.22,-8.41 6.22,-13.91 0.36,-0.5 1.15,-1.41 2.29,-2.75 1.75,-2.04 4.39,-5.12 7.14,-8.56 5.78,-7.24 12.82,-19.46 19.07,-31.77 7.69,-15.14 14.07,-30.15 15.39,-36 1.11,-4.93 1.53,-9.63 1.91,-13.92 0.89,-9.95 1.61,-18.03 9.07,-23.89 0.21,-0.16 0.44,-0.31 0.69,-0.44 0.05,-0.03 17.74,-9.73 25.82,8.13 0.36,0.79 0.69,1.48 1.05,2.21 1.3,2.68 2.83,5.85 4.13,10.06 5.47,17.67 5.18,29.53 5,36.82 -0.02,0.69 -0.03,1.29 -0.03,2.85 0,1.71 -0.69,4.66 -1.56,8.39 -1.63,6.98 -4.01,17.12 -2.82,21.92 0.11,0.43 0.37,0.67 0.91,0.53 5.51,-1.37 18.9,-2.28 32.38,-2.57 13.54,-0.3 27.35,0.02 33.49,1.1z"/>
  </g>
 </g>
</svg>
