<?xml version="1.0" encoding="UTF-8"?>
<!DOCTYPE svg PUBLIC "-//W3C//DTD SVG 1.1//EN" "http://www.w3.org/Graphics/SVG/1.1/DTD/svg11.dtd">
<!-- Creator: CorelDRAW 2018 (64-Bit) -->
<svg xmlns="http://www.w3.org/2000/svg" xml:space="preserve" width="13px" height="16px" version="1.1" style="shape-rendering:geometricPrecision; text-rendering:geometricPrecision; image-rendering:optimizeQuality; fill-rule:evenodd; clip-rule:evenodd"
viewBox="0 0 0.213 0.252"
 xmlns:xlink="http://www.w3.org/1999/xlink">
 <defs>
  <style type="text/css">
   <![CDATA[
    .fil0 {fill:gray;fill-rule:nonzero}
   ]]>
  </style>
 </defs>
 <g id="Layer_x0020_1">
  <metadata id="CorelCorpID_0Corel-Layer"/>
  <g id="_2712834728224">
   <path class="fil0" d="M0.184 0.213l-0.155 0c-0.008,0 -0.015,-0.003 -0.021,-0.009 -0.005,-0.005 -0.008,-0.012 -0.008,-0.02l0 -0.155c0,-0.008 0.003,-0.015 0.008,-0.021 0.006,-0.005 0.013,-0.008 0.021,-0.008l0.155 0c0.008,0 0.015,0.003 0.02,0.008 0.006,0.006 0.009,0.013 0.009,0.021l0 0.155c0,0.008 -0.003,0.015 -0.009,0.02 -0.005,0.006 -0.012,0.009 -0.02,0.009zm-0.155 -0.015l0.155 0c0.004,0 0.007,-0.002 0.01,-0.004 0.002,-0.003 0.004,-0.006 0.004,-0.01l0 -0.155c0,-0.004 -0.002,-0.007 -0.004,-0.01 -0.003,-0.002 -0.006,-0.004 -0.01,-0.004l-0.155 0c-0.004,0 -0.007,0.002 -0.01,0.004 -0.002,0.003 -0.004,0.006 -0.004,0.01l0 0.155c0,0.004 0.002,0.007 0.004,0.01 0.003,0.002 0.006,0.004 0.01,0.004z"/>
   <path class="fil0" d="M0.205 0.237c0.004,0 0.008,0.004 0.008,0.008 0,0.004 -0.004,0.007 -0.008,0.007l-0.197 0c-0.005,0 -0.008,-0.003 -0.008,-0.007 0,-0.004 0.003,-0.008 0.008,-0.008l0.197 0z"/>
  </g>
 </g>
</svg>
