<?xml version="1.0" encoding="UTF-8"?>
<!DOCTYPE svg PUBLIC "-//W3C//DTD SVG 1.1//EN" "http://www.w3.org/Graphics/SVG/1.1/DTD/svg11.dtd">
<!-- Creator: CorelDRAW 2018 (64-Bit) -->
<svg xmlns="http://www.w3.org/2000/svg" xml:space="preserve" width="12px" height="15px" version="1.1" style="shape-rendering:geometricPrecision; text-rendering:geometricPrecision; image-rendering:optimizeQuality; fill-rule:evenodd; clip-rule:evenodd"
viewBox="0 0 0.315 0.388"
 xmlns:xlink="http://www.w3.org/1999/xlink">
 <defs>
  <style type="text/css">
   <![CDATA[
    .fil0 {fill:gray;fill-rule:nonzero}
   ]]>
  </style>
 </defs>
 <g id="Layer_x0020_1">
  <metadata id="CorelCorpID_0Corel-Layer"/>
  <g id="_2712627268240">
   <path class="fil0" d="M0.053 0.222c0.012,-0.003 0.027,0.002 0.041,0.006 0.004,0.001 0.008,0.002 0.011,0.002 0.016,0.004 0.034,0.006 0.053,0.006 0.018,0 0.036,-0.002 0.052,-0.006 0.003,0 0.007,-0.001 0.011,-0.002 0.014,-0.004 0.029,-0.009 0.041,-0.006 0.008,0.002 0.022,0.011 0.032,0.024 0.007,0.009 0.013,0.02 0.014,0.034l0.007 0.081 0 0.002c0,0.006 -0.003,0.012 -0.007,0.017 -0.004,0.004 -0.01,0.007 -0.016,0.007 -0.088,0.002 -0.178,0 -0.267,0l-0.002 0c-0.006,0 -0.012,-0.003 -0.016,-0.007 -0.004,-0.005 -0.007,-0.011 -0.007,-0.017 0.001,-0.026 0.005,-0.056 0.007,-0.083 0.001,-0.014 0.007,-0.025 0.014,-0.034 0.01,-0.013 0.024,-0.022 0.032,-0.024zm0.034 0.03c-0.01,-0.003 -0.023,-0.006 -0.027,-0.005 -0.004,0.001 -0.012,0.006 -0.019,0.014 -0.004,0.006 -0.008,0.013 -0.009,0.022l-0.006 0.079 0.264 0 -0.007 -0.079c-0.001,-0.009 -0.005,-0.016 -0.009,-0.022 -0.007,-0.008 -0.015,-0.013 -0.019,-0.014 -0.004,-0.001 -0.016,0.002 -0.027,0.005 -0.004,0.001 -0.007,0.002 -0.012,0.003 -0.018,0.005 -0.038,0.007 -0.058,0.007 -0.02,0 -0.041,-0.002 -0.059,-0.007 -0.005,-0.001 -0.008,-0.002 -0.012,-0.003z"/>
   <path class="fil0" d="M0.157 0c0.03,0 0.058,0.012 0.078,0.032 0.02,0.02 0.032,0.048 0.032,0.078 0,0.03 -0.012,0.058 -0.032,0.078l-0.001 0c-0.02,0.02 -0.047,0.032 -0.077,0.032 -0.03,0 -0.058,-0.013 -0.078,-0.032 -0.02,-0.02 -0.032,-0.048 -0.032,-0.078 0,-0.03 0.012,-0.058 0.032,-0.078 0.02,-0.02 0.048,-0.032 0.078,-0.032zm0.06 0.05c-0.016,-0.015 -0.037,-0.024 -0.06,-0.024 -0.023,0 -0.044,0.009 -0.06,0.024 -0.015,0.015 -0.024,0.037 -0.024,0.06 0,0.023 0.009,0.044 0.024,0.06 0.016,0.015 0.037,0.024 0.06,0.024 0.023,0 0.044,-0.009 0.059,-0.024l0.001 0c0.015,-0.016 0.024,-0.037 0.024,-0.06 0,-0.023 -0.009,-0.045 -0.024,-0.06z"/>
  </g>
 </g>
</svg>
