<?xml version="1.0" encoding="UTF-8"?>
<!DOCTYPE svg PUBLIC "-//W3C//DTD SVG 1.1//EN" "http://www.w3.org/Graphics/SVG/1.1/DTD/svg11.dtd">
<!-- Creator: CorelDRAW 2018 (64-Bit) -->
<svg xmlns="http://www.w3.org/2000/svg" xml:space="preserve" width="14px" height="14px" version="1.1" style="shape-rendering:geometricPrecision; text-rendering:geometricPrecision; image-rendering:optimizeQuality; fill-rule:evenodd; clip-rule:evenodd"
viewBox="0 0 0.359 0.359"
 xmlns:xlink="http://www.w3.org/1999/xlink">
 <defs>
  <style type="text/css">
   <![CDATA[
    .fil0 {fill:#052337}
    .fil1 {fill:white;fill-rule:nonzero}
   ]]>
  </style>
 </defs>
 <g id="Layer_x0020_1">
  <metadata id="CorelCorpID_0Corel-Layer"/>
  <path class="fil0" d="M0.072 0l0.215 0c0.04,0 0.072,0.032 0.072,0.072l0 0.215c0,0.04 -0.032,0.072 -0.072,0.072l-0.215 0c-0.04,0 -0.072,-0.032 -0.072,-0.072l0 -0.215c0,-0.04 0.032,-0.072 0.072,-0.072z"/>
  <path class="fil1" d="M0.072 0.192c-0.007,0 -0.013,-0.006 -0.013,-0.013 0,-0.007 0.006,-0.012 0.013,-0.012l0.095 0 0 -0.095c0,-0.007 0.005,-0.013 0.012,-0.013 0.007,0 0.013,0.006 0.013,0.013l0 0.095 0.095 0c0.007,0 0.013,0.005 0.013,0.012 0,0.007 -0.006,0.013 -0.013,0.013l-0.095 0 0 0.095c0,0.007 -0.006,0.013 -0.013,0.013 -0.007,0 -0.012,-0.006 -0.012,-0.013l0 -0.095 -0.095 0z"/>
 </g>
</svg>
