<?xml version="1.0" encoding="UTF-8"?>
<!DOCTYPE svg PUBLIC "-//W3C//DTD SVG 1.1//EN" "http://www.w3.org/Graphics/SVG/1.1/DTD/svg11.dtd">
<!-- Creator: CorelDRAW 2018 (64-Bit) -->
<svg xmlns="http://www.w3.org/2000/svg" xml:space="preserve" width="26px" height="29px" version="1.1" style="shape-rendering:geometricPrecision; text-rendering:geometricPrecision; image-rendering:optimizeQuality; fill-rule:evenodd; clip-rule:evenodd"
viewBox="0 0 1.216 1.349"
 xmlns:xlink="http://www.w3.org/1999/xlink">
 <defs>
  <style type="text/css">
   <![CDATA[
    .fil0 {fill:#00F4FF}
    .fil4 {fill:#264361}
    .fil2 {fill:white}
    .fil3 {fill:#052337;fill-rule:nonzero}
    .fil1 {fill:#052337;fill-rule:nonzero}
   ]]>
  </style>
 </defs>
 <g id="Layer_x0020_1">
  <metadata id="CorelCorpID_0Corel-Layer"/>
  <g id="_2118991190000">
   <path class="fil0" d="M1.186 1.027c-0.055,-0.064 -0.083,-0.079 -0.132,-0.086 -0.074,0.067 -0.181,0.117 -0.301,0.139 -0.008,0.045 0.007,0.089 0.064,0.132 -0.047,-0.004 -0.155,-0.019 -0.183,-0.118 -0.008,0 -0.019,0 -0.026,0 -0.181,0 -0.343,-0.06 -0.446,-0.153 -0.048,0.007 -0.077,0.022 -0.132,0.086 0.128,0.181 0.339,0.299 0.578,0.299 0.239,0 0.45,-0.118 0.578,-0.299z"/>
   <path class="fil1" d="M1.156 1.028c-0.02,-0.022 -0.036,-0.036 -0.051,-0.046 -0.014,-0.008 -0.027,-0.013 -0.044,-0.016 -0.037,0.032 -0.081,0.06 -0.131,0.083 -0.048,0.022 -0.1,0.039 -0.156,0.051 0,0.013 0.002,0.025 0.008,0.037 0.008,0.018 0.024,0.037 0.049,0.056l-0.016 0.042c-0.025,-0.002 -0.067,-0.007 -0.106,-0.025 -0.038,-0.017 -0.073,-0.046 -0.092,-0.092l-0.009 0c-0.092,0 -0.178,-0.015 -0.256,-0.042 -0.076,-0.026 -0.143,-0.064 -0.197,-0.11 -0.017,0.003 -0.03,0.008 -0.044,0.017 -0.015,0.009 -0.031,0.023 -0.051,0.045 0.062,0.083 0.142,0.15 0.234,0.198 0.094,0.049 0.201,0.076 0.314,0.076 0.113,0 0.22,-0.027 0.314,-0.076 0.092,-0.048 0.172,-0.116 0.234,-0.198zm-0.026 -0.086c0.022,0.014 0.045,0.035 0.074,0.069l0.012 0.014 -0.01 0.015c-0.068,0.095 -0.158,0.174 -0.262,0.228 -0.101,0.052 -0.215,0.081 -0.336,0.081 -0.121,0 -0.235,-0.029 -0.336,-0.081 -0.104,-0.054 -0.194,-0.132 -0.261,-0.228l-0.011 -0.015 0.012 -0.014c0.029,-0.033 0.052,-0.054 0.074,-0.068 0.024,-0.015 0.045,-0.021 0.072,-0.025l0.011 -0.002 0.008 0.008c0.051,0.045 0.116,0.082 0.191,0.108 0.072,0.024 0.154,0.038 0.24,0.038 0.015,0 0.029,0 0.044,0l0.005 0.017c0.012,0.042 0.04,0.066 0.071,0.08 0.007,0.003 0.014,0.006 0.021,0.008 -0.004,-0.006 -0.007,-0.012 -0.01,-0.019 -0.012,-0.026 -0.014,-0.053 -0.01,-0.08l0.003 -0.016 0.016 -0.003c0.058,-0.011 0.113,-0.028 0.162,-0.051 0.049,-0.023 0.093,-0.051 0.129,-0.083l0.008 -0.007 0.011 0.001c0.027,0.004 0.049,0.011 0.072,0.025z"/>
   <path class="fil2" d="M0.371 0.374l0 0.11 0 0.02c0,0.087 0.091,0.203 0.237,0.245 0.045,-0.013 0.085,-0.033 0.119,-0.057 0.075,-0.054 0.119,-0.128 0.119,-0.188l0 -0.02 0 -0.11 0 -0.027c-0.038,-0.035 -0.073,-0.034 -0.095,-0.17 -0.116,0.124 -0.289,0.128 -0.38,0.17l0 0.027z"/>
   <path class="fil3" d="M0.394 0.374l0 0.13c0,0.04 0.023,0.088 0.065,0.13 0.036,0.038 0.087,0.071 0.149,0.09 0.018,-0.005 0.036,-0.012 0.052,-0.02 0.019,-0.009 0.037,-0.02 0.053,-0.032 0.034,-0.024 0.061,-0.053 0.08,-0.083 0.019,-0.029 0.029,-0.059 0.029,-0.085l0 -0.147c-0.004,-0.003 -0.008,-0.006 -0.012,-0.009 -0.029,-0.022 -0.055,-0.042 -0.074,-0.124 -0.08,0.067 -0.176,0.092 -0.257,0.113 -0.032,0.009 -0.061,0.016 -0.085,0.025l0 0.012zm-0.047 0.11l0 -0.137c0,-0.009 0.005,-0.018 0.014,-0.022 0.03,-0.013 0.066,-0.023 0.106,-0.033 0.086,-0.023 0.191,-0.05 0.267,-0.131 0.004,-0.003 0.008,-0.006 0.014,-0.007 0.012,-0.002 0.024,0.007 0.026,0.02 0.017,0.1 0.039,0.118 0.065,0.137 0.007,0.005 0.014,0.011 0.021,0.017 0.006,0.005 0.009,0.011 0.009,0.019l0 0.157c0,0.035 -0.013,0.074 -0.036,0.111 -0.022,0.034 -0.053,0.067 -0.093,0.096 -0.018,0.013 -0.038,0.025 -0.06,0.035 -0.02,0.01 -0.042,0.019 -0.065,0.026 -0.004,0.001 -0.009,0.001 -0.013,0 -0.074,-0.022 -0.134,-0.06 -0.177,-0.105 -0.05,-0.051 -0.078,-0.111 -0.078,-0.163l0 -0.02z"/>
   <path class="fil2" d="M0.448 0.866c-0.048,0.039 -0.124,0.056 -0.2,0.065 -0.036,0.005 -0.063,0.007 -0.086,0.01 0.103,0.093 0.265,0.153 0.446,0.153 0.007,0 0.018,0 0.026,0 -0.005,-0.018 -0.008,-0.039 -0.006,-0.064 0.006,-0.134 0.071,-0.127 0.092,-0.233 0.006,-0.027 0.009,-0.06 0.007,-0.105 -0.034,0.024 -0.074,0.044 -0.119,0.057 -0.047,-0.014 -0.088,-0.035 -0.122,-0.06 0.028,0.086 0.008,0.141 -0.038,0.177zm0.36 0.1c-0.027,0.04 -0.049,0.078 -0.055,0.114 0.12,-0.022 0.227,-0.072 0.301,-0.139 -0.022,-0.004 -0.05,-0.006 -0.086,-0.01 -0.042,-0.005 -0.085,-0.012 -0.122,-0.024 -0.013,0.021 -0.026,0.041 -0.038,0.059z"/>
   <path class="fil3" d="M0.463 0.885c-0.027,0.021 -0.06,0.036 -0.098,0.047 -0.036,0.011 -0.075,0.018 -0.114,0.023l-0.03 0.003c0.042,0.03 0.092,0.055 0.147,0.074 0.071,0.024 0.152,0.038 0.237,0.038l0 -0.004c-0.001,-0.011 -0.002,-0.024 -0.001,-0.037 0.004,-0.082 0.028,-0.116 0.053,-0.151 0.016,-0.022 0.032,-0.045 0.04,-0.086 0.003,-0.012 0.005,-0.026 0.006,-0.042l0 -0.016c-0.007,0.005 -0.015,0.009 -0.023,0.012 -0.02,0.01 -0.042,0.019 -0.065,0.026 -0.005,0.001 -0.009,0.001 -0.014,0 -0.024,-0.007 -0.047,-0.016 -0.068,-0.027l-0.012 -0.006c0.003,0.023 0.001,0.044 -0.003,0.063 -0.009,0.034 -0.028,0.061 -0.055,0.083zm-0.111 0.002c0.032,-0.009 0.06,-0.022 0.082,-0.039 0.019,-0.015 0.032,-0.034 0.038,-0.058 0.006,-0.024 0.004,-0.055 -0.009,-0.094 -0.002,-0.007 -0.001,-0.015 0.004,-0.021 0.007,-0.011 0.022,-0.013 0.033,-0.005 0.016,0.012 0.034,0.023 0.054,0.033 0.017,0.008 0.035,0.016 0.054,0.021 0.018,-0.005 0.036,-0.012 0.052,-0.02 0.019,-0.009 0.036,-0.02 0.052,-0.031 0.004,-0.003 0.009,-0.005 0.014,-0.005 0.013,0 0.024,0.01 0.024,0.023 0.001,0.023 0.001,0.044 0,0.062 -0.001,0.018 -0.004,0.034 -0.007,0.049 -0.01,0.051 -0.029,0.077 -0.048,0.104 -0.021,0.028 -0.041,0.057 -0.044,0.125 0,0.011 0,0.021 0.001,0.03 0.001,0.01 0.002,0.018 0.005,0.026 0,0.002 0.001,0.004 0.001,0.006 0,0.013 -0.011,0.024 -0.024,0.024 -0.008,0 -0.018,0 -0.026,0.001 -0.092,0 -0.178,-0.015 -0.256,-0.042 -0.08,-0.027 -0.15,-0.067 -0.205,-0.117 -0.005,-0.003 -0.008,-0.008 -0.009,-0.014 -0.002,-0.013 0.007,-0.025 0.02,-0.027 0.012,-0.002 0.026,-0.003 0.042,-0.005l0.001 0c0.012,-0.001 0.025,-0.003 0.045,-0.005 0.036,-0.005 0.073,-0.011 0.106,-0.021zm0.475 0.093c-0.013,0.019 -0.024,0.037 -0.034,0.055 -0.002,0.005 -0.004,0.009 -0.006,0.014 0.044,-0.011 0.085,-0.025 0.123,-0.043 0.031,-0.014 0.059,-0.03 0.085,-0.048l-0.03 -0.004c-0.021,-0.002 -0.042,-0.005 -0.064,-0.01 -0.015,-0.002 -0.03,-0.005 -0.045,-0.009l-0.009 0.015c-0.007,0.01 -0.013,0.02 -0.02,0.03zm-0.076 0.034c0.01,-0.02 0.023,-0.04 0.037,-0.061 0.007,-0.009 0.013,-0.019 0.019,-0.029 0.006,-0.009 0.012,-0.018 0.018,-0.029 0.006,-0.009 0.017,-0.013 0.027,-0.01 0.018,0.005 0.037,0.01 0.057,0.013 0.02,0.004 0.041,0.007 0.062,0.009 0.019,0.003 0.032,0.004 0.044,0.005 0.017,0.002 0.031,0.003 0.043,0.005 0.005,0.001 0.01,0.004 0.014,0.008 0.009,0.01 0.008,0.024 -0.002,0.033 -0.039,0.035 -0.086,0.066 -0.14,0.091 -0.052,0.024 -0.11,0.043 -0.172,0.054 -0.003,0.001 -0.006,0.001 -0.009,0.001 -0.013,-0.003 -0.022,-0.015 -0.02,-0.028 0.004,-0.02 0.012,-0.041 0.022,-0.062z"/>
   <path class="fil2" d="M0.846 0.374l0 0.11c0.029,0 0.053,-0.024 0.053,-0.055 0,-0.03 -0.024,-0.055 -0.053,-0.055z"/>
   <path class="fil3" d="M0.869 0.41l0 0.039c0.004,-0.005 0.007,-0.012 0.007,-0.02 0,-0.007 -0.003,-0.014 -0.007,-0.019zm-0.047 0.074l0 -0.11c0,-0.013 0.011,-0.023 0.024,-0.023 0.021,0 0.04,0.009 0.054,0.023l0 0c0.014,0.014 0.023,0.034 0.023,0.055 0,0.022 -0.009,0.041 -0.023,0.056 -0.014,0.014 -0.033,0.023 -0.054,0.023 -0.013,0 -0.024,-0.011 -0.024,-0.024z"/>
   <path class="fil2" d="M0.317 0.429c0,0.031 0.024,0.055 0.054,0.055l0 -0.11c-0.03,0 -0.054,0.025 -0.054,0.055z"/>
   <path class="fil3" d="M0.34 0.429c0,0.008 0.003,0.015 0.007,0.02l0 -0.039c-0.004,0.005 -0.007,0.012 -0.007,0.019zm-0.024 0.056c-0.014,-0.015 -0.023,-0.034 -0.023,-0.056 0,-0.021 0.009,-0.041 0.023,-0.055 0.014,-0.014 0.033,-0.023 0.055,-0.023 0.013,0 0.023,0.01 0.023,0.023l0 0.11c0,0.013 -0.01,0.024 -0.023,0.024 -0.022,0 -0.041,-0.009 -0.055,-0.023l0 0z"/>
   <path class="fil4" d="M0.727 0.691c0,0.006 0,0.013 0,0.019 0.001,0.036 -0.002,0.064 -0.007,0.087 0,0 0,0 0,0 -0.021,0.106 -0.086,0.099 -0.092,0.233 -0.002,0.025 0.001,0.046 0.006,0.064 0.028,0.099 0.136,0.114 0.183,0.118 -0.057,-0.043 -0.072,-0.087 -0.064,-0.132 0.012,-0.069 0.062,-0.115 0.093,-0.173 0.075,-0.125 0.14,-0.284 0.138,-0.45 -0.002,-0.284 -0.167,-0.425 -0.369,-0.433 -0.201,-0.008 -0.344,0.221 -0.339,0.41 0.004,0.188 0.09,0.335 0.172,0.432 0.046,-0.036 0.066,-0.091 0.038,-0.177 -0.073,-0.054 -0.115,-0.126 -0.115,-0.185l0 -0.02c-0.03,0 -0.054,-0.024 -0.054,-0.055 0,-0.03 0.024,-0.055 0.054,-0.055l0 -0.027c0.091,-0.042 0.264,-0.046 0.38,-0.17 0.022,0.136 0.057,0.135 0.095,0.17l0 0.027c0.029,0 0.053,0.025 0.053,0.055 0,0.031 -0.024,0.055 -0.053,0.055l0 0.02c0,0.06 -0.044,0.133 -0.119,0.187z"/>
   <path class="fil3" d="M0.704 0.701l0 -0.01c0,-0.007 0.003,-0.014 0.009,-0.019 0.035,-0.024 0.062,-0.053 0.08,-0.083 0.019,-0.029 0.029,-0.059 0.029,-0.085l0 -0.02c0,-0.013 0.011,-0.023 0.024,-0.023 0.008,0 0.015,-0.004 0.021,-0.009 0.005,-0.006 0.009,-0.014 0.009,-0.023 0,-0.008 -0.004,-0.016 -0.009,-0.022 -0.006,-0.006 -0.013,-0.009 -0.021,-0.009 -0.013,0 -0.024,-0.011 -0.024,-0.024l0 -0.017c-0.004,-0.003 -0.008,-0.006 -0.012,-0.009 -0.029,-0.022 -0.055,-0.042 -0.074,-0.124 -0.08,0.067 -0.176,0.092 -0.257,0.113 -0.032,0.009 -0.061,0.016 -0.085,0.025l0 0.012c0,0.013 -0.01,0.024 -0.023,0.024 -0.009,0 -0.016,0.003 -0.021,0.009 -0.006,0.006 -0.01,0.014 -0.01,0.022 0,0.009 0.004,0.017 0.01,0.023 0.005,0.005 0.012,0.009 0.021,0.009 0.013,0 0.023,0.01 0.023,0.023l0 0.02c0,0.026 0.01,0.055 0.028,0.084 0.018,0.029 0.044,0.057 0.078,0.082 0.003,0.003 0.006,0.006 0.008,0.011 0.016,0.048 0.018,0.087 0.01,0.121 -0.009,0.034 -0.028,0.061 -0.055,0.083 -0.01,0.008 -0.024,0.006 -0.033,-0.004 -0.047,-0.056 -0.095,-0.128 -0.13,-0.214 -0.027,-0.069 -0.046,-0.146 -0.048,-0.232 0,-0.009 0,-0.017 0,-0.025 0.004,-0.094 0.041,-0.195 0.1,-0.273 0.061,-0.079 0.147,-0.135 0.247,-0.137 0.006,0 0.012,0 0.017,0 0.113,0.005 0.214,0.049 0.286,0.133 0.065,0.076 0.104,0.183 0.106,0.324 0,0.078 -0.013,0.155 -0.036,0.227 -0.026,0.086 -0.064,0.165 -0.106,0.234 -0.011,0.021 -0.023,0.039 -0.036,0.058 -0.023,0.033 -0.046,0.066 -0.054,0.107l0 0.001c-0.003,0.018 -0.002,0.036 0.006,0.053 0.008,0.018 0.023,0.036 0.048,0.055 0.007,0.004 0.011,0.012 0.011,0.021 -0.001,0.013 -0.013,0.023 -0.026,0.022 -0.025,-0.002 -0.067,-0.007 -0.106,-0.025 -0.042,-0.019 -0.081,-0.052 -0.097,-0.109l-0.001 -0.001c-0.003,-0.01 -0.005,-0.022 -0.006,-0.034 -0.001,-0.011 -0.002,-0.024 -0.001,-0.037 0.004,-0.082 0.028,-0.116 0.053,-0.151 0.016,-0.022 0.032,-0.044 0.04,-0.084l0 -0.002c0.002,-0.01 0.004,-0.022 0.005,-0.036 0.001,-0.014 0.002,-0.029 0.002,-0.046l0 -0.009zm0.047 0.002l0 0.007c0,0.019 -0.001,0.036 -0.002,0.05 -0.001,0.015 -0.003,0.029 -0.006,0.042l0 0.001c-0.01,0.05 -0.029,0.077 -0.048,0.103 -0.021,0.028 -0.041,0.057 -0.044,0.125 0,0.011 0,0.021 0.001,0.03 0.001,0.01 0.002,0.018 0.005,0.026l0 0.001c0.012,0.041 0.041,0.065 0.071,0.079 0.007,0.003 0.014,0.006 0.021,0.008 -0.004,-0.006 -0.007,-0.012 -0.01,-0.019 -0.012,-0.026 -0.014,-0.053 -0.01,-0.08l0.001 -0.002c0.01,-0.05 0.035,-0.088 0.061,-0.125 0.012,-0.017 0.024,-0.035 0.034,-0.053l0.001 -0.002c0.04,-0.066 0.076,-0.142 0.101,-0.224 0.021,-0.068 0.034,-0.14 0.034,-0.213 -0.002,-0.129 -0.037,-0.226 -0.095,-0.294 -0.062,-0.073 -0.152,-0.112 -0.251,-0.116 -0.006,0 -0.01,0 -0.015,0 -0.085,0.002 -0.157,0.05 -0.21,0.119 -0.051,0.066 -0.083,0.15 -0.09,0.231 0.004,-0.009 0.009,-0.016 0.016,-0.023l0 0c0.008,-0.009 0.019,-0.016 0.031,-0.02l0 -0.007c0,-0.011 0.007,-0.019 0.016,-0.023 0.029,-0.013 0.065,-0.022 0.104,-0.032 0.086,-0.023 0.191,-0.05 0.267,-0.131 0.009,-0.009 0.024,-0.01 0.033,-0.001 0.005,0.004 0.007,0.009 0.008,0.014 0.016,0.1 0.038,0.118 0.064,0.137 0.007,0.006 0.015,0.012 0.023,0.019 0.005,0.004 0.007,0.011 0.007,0.017l0 0.007c0.012,0.004 0.023,0.011 0.031,0.02 0.014,0.014 0.023,0.034 0.023,0.055 0,0.022 -0.009,0.041 -0.023,0.056l0 0c-0.008,0.009 -0.019,0.015 -0.031,0.019l0 0c0,0.035 -0.012,0.073 -0.036,0.11 -0.02,0.032 -0.048,0.062 -0.082,0.089zm-0.45 -0.24c0.004,0.068 0.02,0.13 0.043,0.186 0.028,0.072 0.067,0.133 0.107,0.183 0.01,-0.012 0.017,-0.026 0.021,-0.042 0.006,-0.023 0.004,-0.052 -0.007,-0.087 -0.035,-0.027 -0.063,-0.058 -0.083,-0.09 -0.023,-0.037 -0.035,-0.074 -0.035,-0.109l0 0c-0.012,-0.004 -0.023,-0.01 -0.031,-0.019 -0.006,-0.007 -0.012,-0.014 -0.015,-0.022z"/>
  </g>
 </g>
</svg>
