<?xml version="1.0" encoding="UTF-8"?>
<!DOCTYPE svg PUBLIC "-//W3C//DTD SVG 1.1//EN" "http://www.w3.org/Graphics/SVG/1.1/DTD/svg11.dtd">
<!-- Creator: CorelDRAW 2018 (64-Bit) -->
<svg xmlns="http://www.w3.org/2000/svg" xml:space="preserve" width="18px" height="25px" version="1.1" style="shape-rendering:geometricPrecision; text-rendering:geometricPrecision; image-rendering:optimizeQuality; fill-rule:evenodd; clip-rule:evenodd"
viewBox="0 0 0.596 0.829"
 xmlns:xlink="http://www.w3.org/1999/xlink">
 <defs>
  <style type="text/css">
   <![CDATA[
    .fil0 {fill:#00F4FF}
    .fil1 {fill:#052337;fill-rule:nonzero}
   ]]>
  </style>
 </defs>
 <g id="Layer_x0020_1">
  <metadata id="CorelCorpID_0Corel-Layer"/>
  <g id="_2117876485520">
   <path class="fil0" d="M0.298 0.812c-0.115,-0.214 -0.281,-0.359 -0.281,-0.514 0,-0.156 0.126,-0.281 0.281,-0.281 0.155,0 0.281,0.125 0.281,0.281 0,0.155 -0.166,0.3 -0.281,0.514zm0 -0.684c0.094,0 0.17,0.076 0.17,0.17 0,0.094 -0.076,0.17 -0.17,0.17 -0.094,0 -0.17,-0.076 -0.17,-0.17 0,-0.094 0.076,-0.17 0.17,-0.17z"/>
   <path class="fil1" d="M0.283 0.82c-0.041,-0.078 -0.09,-0.147 -0.135,-0.21 -0.08,-0.113 -0.148,-0.209 -0.148,-0.312 0,-0.082 0.033,-0.157 0.087,-0.211l0.001 -0.001c0.054,-0.053 0.128,-0.086 0.21,-0.086 0.082,0 0.157,0.033 0.21,0.087 0.054,0.054 0.088,0.129 0.088,0.211 0,0.103 -0.068,0.199 -0.148,0.312 -0.045,0.063 -0.094,0.132 -0.136,0.21 -0.004,0.008 -0.014,0.011 -0.022,0.007 -0.003,-0.002 -0.005,-0.004 -0.007,-0.007zm-0.108 -0.229c0.04,0.057 0.084,0.118 0.123,0.187 0.039,-0.069 0.083,-0.13 0.123,-0.187 0.076,-0.108 0.142,-0.2 0.142,-0.293 0,-0.073 -0.03,-0.139 -0.078,-0.187 -0.048,-0.048 -0.114,-0.078 -0.187,-0.078 -0.073,0 -0.139,0.029 -0.187,0.077l0 0.001c-0.048,0.048 -0.078,0.114 -0.078,0.187 0,0.093 0.065,0.185 0.142,0.293zm0.123 -0.48c0.051,0 0.098,0.021 0.132,0.055 0.033,0.034 0.054,0.08 0.054,0.132 0,0.051 -0.021,0.098 -0.054,0.132 -0.034,0.033 -0.081,0.054 -0.132,0.054 -0.052,0 -0.098,-0.021 -0.132,-0.054 -0.034,-0.034 -0.055,-0.081 -0.055,-0.132 0,-0.052 0.021,-0.098 0.055,-0.132 0.034,-0.034 0.08,-0.055 0.132,-0.055zm0.108 0.078c-0.027,-0.027 -0.066,-0.044 -0.108,-0.044 -0.042,0 -0.081,0.017 -0.109,0.044 -0.027,0.028 -0.044,0.067 -0.044,0.109 0,0.042 0.017,0.08 0.044,0.108 0.028,0.028 0.067,0.045 0.109,0.045 0.042,0 0.081,-0.017 0.108,-0.045 0.028,-0.028 0.045,-0.066 0.045,-0.108 0,-0.042 -0.017,-0.081 -0.045,-0.109z"/>
  </g>
 </g>
</svg>
