<?xml version="1.0" encoding="UTF-8"?>
<!DOCTYPE svg PUBLIC "-//W3C//DTD SVG 1.1//EN" "http://www.w3.org/Graphics/SVG/1.1/DTD/svg11.dtd">
<!-- Creator: CorelDRAW 2018 (64-Bit) -->
<svg xmlns="http://www.w3.org/2000/svg" xml:space="preserve" width="50px" height="40px" version="1.1" style="shape-rendering:geometricPrecision; text-rendering:geometricPrecision; image-rendering:optimizeQuality; fill-rule:evenodd; clip-rule:evenodd"
viewBox="0 0 18.204 14.563"
 xmlns:xlink="http://www.w3.org/1999/xlink">
 <defs>
  <style type="text/css">
   <![CDATA[
    .fil0 {fill:none}
    .fil3 {fill:#00F4FF}
    .fil2 {fill:#EAEDF2}
    .fil4 {fill:white}
    .fil1 {fill:gray;fill-rule:nonzero}
   ]]>
  </style>
 </defs>
 <g id="Layer_x0020_1">
  <metadata id="CorelCorpID_0Corel-Layer"/>
  <g id="_2724677137344">
   <rect class="fil0" width="18.204" height="14.563"/>
   <path class="fil1" d="M5.285 12.012c0.1,0 0.182,0.081 0.182,0.182 0,0.1 -0.082,0.182 -0.182,0.182l-4.339 0c-0.11,0 -0.21,-0.046 -0.282,-0.118 -0.073,-0.072 -0.118,-0.173 -0.118,-0.283l0 -10.485c0,-0.11 0.045,-0.21 0.117,-0.282l0.002 -0.001c0.072,-0.073 0.172,-0.118 0.281,-0.118l5.849 0c0.051,0 0.098,0.022 0.131,0.056l2.47 2.47c0.035,0.036 0.053,0.082 0.053,0.129l0 3.126c0,0.1 -0.081,0.182 -0.182,0.182 -0.1,0 -0.182,-0.082 -0.182,-0.182l0 -3.051 -2.366 -2.366 -5.773 0c-0.01,0 -0.019,0.004 -0.025,0.011 -0.007,0.007 -0.011,0.016 -0.011,0.026l0 10.485c0,0.01 0.004,0.019 0.011,0.026 0.007,0.006 0.016,0.011 0.025,0.011l4.339 0z"/>
   <path class="fil2" d="M9.267 3.744l-2.262 0c-0.115,0 -0.21,-0.095 -0.21,-0.211l0 -2.261 2.472 2.472z"/>
   <path class="fil1" d="M9.267 3.926l-2.262 0c-0.107,0 -0.205,-0.044 -0.276,-0.115 -0.072,-0.071 -0.116,-0.17 -0.116,-0.278l0 -2.261c0,-0.101 0.081,-0.183 0.182,-0.183 0.051,0 0.098,0.022 0.131,0.056l2.47 2.47c0.071,0.071 0.071,0.187 0,0.258 -0.036,0.035 -0.082,0.053 -0.129,0.053zm-2.262 -0.364l1.823 0 -1.851 -1.851 0 1.822c0,0.008 0.003,0.015 0.008,0.02 0.005,0.006 0.012,0.009 0.02,0.009z"/>
   <path class="fil3" d="M6.89 8.918l4.754 0c0.282,0 0.513,0.231 0.513,0.513l0 3.347c0,0.282 -0.231,0.513 -0.513,0.513l-4.754 0c-0.282,0 -0.513,-0.231 -0.513,-0.513l0 -3.347c0,-0.282 0.231,-0.513 0.513,-0.513z"/>
   <path class="fil1" d="M6.89 8.736l4.754 0c0.191,0 0.365,0.078 0.491,0.204 0.126,0.127 0.204,0.301 0.204,0.491l0 3.347c0,0.191 -0.078,0.364 -0.204,0.49 -0.126,0.127 -0.3,0.205 -0.491,0.205l-4.754 0c-0.191,0 -0.364,-0.078 -0.49,-0.204 -0.127,-0.127 -0.205,-0.3 -0.205,-0.491l0 -3.347c0,-0.191 0.078,-0.365 0.204,-0.491 0.126,-0.126 0.3,-0.204 0.491,-0.204zm4.754 0.364l-4.754 0c-0.091,0 -0.174,0.038 -0.234,0.098 -0.06,0.06 -0.097,0.143 -0.097,0.233l0 3.347c0,0.091 0.037,0.174 0.097,0.234 0.06,0.06 0.143,0.097 0.234,0.097l4.754 0c0.091,0 0.174,-0.037 0.234,-0.097 0.06,-0.06 0.097,-0.143 0.097,-0.234l0 -3.347c0,-0.091 -0.037,-0.174 -0.097,-0.234 -0.06,-0.059 -0.143,-0.097 -0.234,-0.097z"/>
   <path class="fil1" d="M6.308 10.216c-0.092,-0.038 -0.137,-0.144 -0.099,-0.236 0.038,-0.093 0.144,-0.137 0.237,-0.099 0.838,0.344 1.44,0.576 2.22,0.878l0.144 0.057c0.138,0.057 0.259,0.107 0.457,0.107 0.199,0 0.321,-0.05 0.459,-0.107l0.102 -0.041c0.39,-0.151 0.743,-0.293 1.103,-0.436 0.357,-0.144 0.722,-0.29 1.16,-0.46 0.094,-0.036 0.199,0.011 0.235,0.104 0.036,0.093 -0.01,0.199 -0.104,0.235 -0.422,0.163 -0.793,0.312 -1.156,0.458 -0.354,0.141 -0.702,0.281 -1.107,0.438l-0.096 0.038c-0.174,0.071 -0.329,0.135 -0.596,0.135 -0.266,0 -0.42,-0.064 -0.595,-0.135l-0.137 -0.054c-0.78,-0.302 -1.381,-0.535 -2.227,-0.882z"/>
   <polygon class="fil4" points="9.903,10.972 9.903,11.784 8.631,11.784 8.631,10.972 "/>
   <path class="fil1" d="M10.085 10.972l0 0.812c0,0.101 -0.081,0.182 -0.182,0.182l-1.272 0c-0.101,0 -0.182,-0.081 -0.182,-0.182l0 -0.812c0,-0.1 0.081,-0.182 0.182,-0.182l1.272 0c0.101,0 0.182,0.082 0.182,0.182zm-0.364 0.63l0 -0.448 -0.908 0 0 0.448 0.908 0z"/>
   <path class="fil1" d="M8.185 8.58c0,0.101 -0.081,0.182 -0.182,0.182 -0.1,0 -0.182,-0.081 -0.182,-0.182 0,-0.219 0.09,-0.419 0.235,-0.565l0.001 -0.001c0.146,-0.144 0.345,-0.234 0.565,-0.234l1.29 0c0.22,0 0.42,0.09 0.565,0.235 0.146,0.145 0.236,0.345 0.236,0.565 0,0.101 -0.082,0.182 -0.182,0.182 -0.101,0 -0.182,-0.081 -0.182,-0.182 0,-0.12 -0.049,-0.229 -0.129,-0.308 -0.078,-0.079 -0.187,-0.128 -0.308,-0.128l-1.29 0c-0.121,0 -0.23,0.049 -0.308,0.127 -0.08,0.08 -0.129,0.189 -0.129,0.309z"/>
   <path class="fil3" d="M12.157 10.049l0 -0.618c0,-0.282 -0.231,-0.513 -0.513,-0.513l-4.754 0c-0.282,0 -0.513,0.231 -0.513,0.513l0 0.618c0.856,0.351 1.464,0.586 2.264,0.895 0.089,0.034 0.166,0.069 0.247,0.098l0.164 0.044c0.063,0.012 0.133,0.019 0.215,0.019 0.072,0 0.135,-0.006 0.192,-0.015l0.201 -0.053c0.077,-0.028 0.15,-0.061 0.233,-0.093 0.8,-0.309 1.407,-0.564 2.264,-0.895z"/>
   <path class="fil1" d="M11.975 9.924l0 -0.493c0,-0.091 -0.037,-0.174 -0.096,-0.233 -0.061,-0.06 -0.144,-0.098 -0.235,-0.098l-4.754 0c-0.091,0 -0.174,0.038 -0.234,0.098 -0.06,0.059 -0.097,0.142 -0.097,0.233l-0.001 0.496c0.78,0.319 1.362,0.544 2.107,0.832l0.143 0.057c0.045,0.018 0.089,0.036 0.127,0.05l0.16 0.043c0.024,0.004 0.049,0.008 0.074,0.01 0.025,0.002 0.057,0.004 0.098,0.004 0.033,0 0.062,-0.002 0.087,-0.003l0.066 -0.008 0.19 -0.05 0.217 -0.087c0.387,-0.149 0.737,-0.29 1.093,-0.432 0.329,-0.132 0.664,-0.266 1.055,-0.419zm0.364 -0.493l0 0.742 -0.116 0.045c-0.428,0.165 -0.801,0.315 -1.168,0.462 -0.351,0.14 -0.695,0.278 -1.097,0.434l-0.096 0.038c-0.045,0.018 -0.088,0.036 -0.141,0.055 -0.067,0.023 -0.163,0.048 -0.233,0.062 -0.036,0.006 -0.071,0.01 -0.105,0.013 -0.039,0.003 -0.077,0.005 -0.116,0.005 -0.041,0 -0.084,-0.003 -0.13,-0.007 -0.044,-0.004 -0.083,-0.009 -0.119,-0.016 -0.054,-0.011 -0.136,-0.032 -0.189,-0.051 -0.058,-0.021 -0.108,-0.041 -0.159,-0.061l-0.135 -0.054c-0.781,-0.302 -1.382,-0.535 -2.227,-0.882l-0.113 -0.046 0 -0.739c0,-0.19 0.078,-0.364 0.204,-0.49 0.126,-0.127 0.3,-0.205 0.491,-0.205l4.754 0c0.191,0 0.365,0.078 0.491,0.204 0.126,0.127 0.204,0.301 0.204,0.491z"/>
   <path class="fil1" d="M4.144 6.218c-0.1,0 -0.182,-0.081 -0.182,-0.182 0,-0.1 0.082,-0.182 0.182,-0.182l3.768 0c0.1,0 0.182,0.082 0.182,0.182 0,0.101 -0.082,0.182 -0.182,0.182l-3.768 0z"/>
   <path class="fil1" d="M4.144 4.312c-0.1,0 -0.182,-0.082 -0.182,-0.183 0,-0.1 0.082,-0.182 0.182,-0.182l1.913 0c0.101,0 0.182,0.082 0.182,0.182 0,0.101 -0.081,0.183 -0.182,0.183l-1.913 0z"/>
   <path class="fil1" d="M4.144 7.868c-0.1,0 -0.182,-0.081 -0.182,-0.182 0,-0.1 0.082,-0.182 0.182,-0.182l3.04 0c0.1,0 0.182,0.082 0.182,0.182 0,0.101 -0.082,0.182 -0.182,0.182l-3.04 0z"/>
   <path class="fil1" d="M4.144 9.518c-0.1,0 -0.182,-0.081 -0.182,-0.182 0,-0.101 0.082,-0.182 0.182,-0.182l1.31 0c0.101,0 0.182,0.081 0.182,0.182 0,0.101 -0.081,0.182 -0.182,0.182l-1.31 0z"/>
   <path class="fil1" d="M2.066 4.157c-0.071,-0.071 -0.071,-0.186 0,-0.257 0.071,-0.071 0.186,-0.07 0.257,0.001l0.28 0.28 0.49 -0.49c0.071,-0.071 0.187,-0.071 0.258,0 0.071,0.071 0.071,0.187 0,0.258l-0.619 0.618c-0.071,0.07 -0.186,0.07 -0.257,-0.001l-0.409 -0.409z"/>
   <path class="fil1" d="M2.066 6.064c-0.071,-0.071 -0.071,-0.186 0,-0.257 0.071,-0.071 0.186,-0.07 0.257,0.001l0.28 0.28 0.49 -0.49c0.071,-0.071 0.187,-0.071 0.258,0 0.071,0.071 0.071,0.187 0,0.258l-0.619 0.618c-0.071,0.07 -0.186,0.07 -0.257,-0.001l-0.409 -0.409z"/>
   <path class="fil1" d="M2.066 7.714c-0.071,-0.071 -0.071,-0.186 0,-0.257 0.071,-0.071 0.186,-0.07 0.257,0.001l0.28 0.28 0.49 -0.49c0.071,-0.071 0.187,-0.071 0.258,0 0.071,0.071 0.071,0.187 0,0.258l-0.619 0.618c-0.071,0.07 -0.186,0.07 -0.257,-0.001l-0.409 -0.409z"/>
   <path class="fil1" d="M2.066 9.364c-0.071,-0.071 -0.071,-0.187 0,-0.257 0.071,-0.071 0.186,-0.07 0.257,0.001l0.28 0.28 0.49 -0.49c0.071,-0.071 0.187,-0.071 0.258,0 0.071,0.071 0.071,0.187 0,0.258l-0.619 0.618c-0.071,0.07 -0.186,0.07 -0.257,-0.001l-0.409 -0.409z"/>
  </g>
 </g>
</svg>
