<?xml version="1.0" encoding="UTF-8"?>
<!DOCTYPE svg PUBLIC "-//W3C//DTD SVG 1.1//EN" "http://www.w3.org/Graphics/SVG/1.1/DTD/svg11.dtd">
<!-- Creator: CorelDRAW 2018 (64-Bit) -->
<svg xmlns="http://www.w3.org/2000/svg" xml:space="preserve" width="50px" height="40px" version="1.1" style="shape-rendering:geometricPrecision; text-rendering:geometricPrecision; image-rendering:optimizeQuality; fill-rule:evenodd; clip-rule:evenodd"
viewBox="0 0 477.553 382.042"
 xmlns:xlink="http://www.w3.org/1999/xlink">
 <defs>
  <style type="text/css">
   <![CDATA[
    .fil0 {fill:none}
    .fil4 {fill:#00F4FF}
    .fil3 {fill:#EAEDF2}
    .fil1 {fill:white}
    .fil2 {fill:gray;fill-rule:nonzero}
   ]]>
  </style>
 </defs>
 <g id="Layer_x0020_1">
  <metadata id="CorelCorpID_0Corel-Layer"/>
  <g id="_2724709212480">
   <rect class="fil0" y="-0.001" width="477.553" height="382.042"/>
   <path class="fil1" d="M19.098 39.087c0,-3.155 2.577,-5.732 5.731,-5.732l153.425 0 64.858 64.861 0 215.941c0,3.138 -2.593,5.731 -5.728,5.731l-212.555 0c-3.146,0 -5.731,-2.582 -5.731,-5.731 0,-91.691 0,-183.379 0,-275.07z"/>
   <path class="fil2" d="M14.322 39.087c0,-2.873 1.18,-5.499 3.084,-7.405l0.027 -0.027c1.906,-1.898 4.527,-3.076 7.396,-3.076l153.425 0c1.349,0 2.564,0.558 3.433,1.457l64.802 64.804c0.931,0.931 1.397,2.152 1.397,3.376l0.002 215.941c0,2.864 -1.188,5.499 -3.1,7.407 -1.887,1.909 -4.521,3.1 -7.404,3.1l-212.555 0c-2.888,0 -5.52,-1.186 -7.421,-3.086l-0.324 -0.36c-1.709,-1.871 -2.762,-4.359 -2.762,-7.061l0 -275.07zm9.825 -0.68c-0.17,0.171 -0.273,0.409 -0.273,0.68l0 275.07c0,0.214 0.067,0.411 0.178,0.566l0.109 0.103c0.176,0.176 0.414,0.287 0.668,0.287l212.555 0c0.249,0 0.487,-0.114 0.663,-0.29 0.184,-0.165 0.29,-0.403 0.29,-0.666l0 -213.965 -62.059 -62.061 -151.449 0c-0.27,0 -0.509,0.103 -0.682,0.276z"/>
   <path class="fil3" d="M243.112 98.216l-59.335 0c-3.037,0 -5.523,-2.486 -5.523,-5.523l0 -59.335 64.858 64.858z"/>
   <path class="fil2" d="M243.112 102.992l-59.335 0c-2.818,0 -5.393,-1.162 -7.258,-3.022 -1.879,-1.884 -3.041,-4.459 -3.041,-7.277l0 -59.335c0,-2.637 2.139,-4.776 4.776,-4.776 1.349,0 2.564,0.558 3.433,1.456l64.802 64.802c1.862,1.862 1.862,4.889 0,6.752 -0.932,0.931 -2.153,1.397 -3.377,1.4zm-59.335 -9.552l47.807 0 -48.554 -48.554 0 47.807c0,0.208 0.084,0.4 0.214,0.533 0.133,0.13 0.325,0.214 0.533,0.214z"/>
   <path class="fil4" d="M66.859 119.187c2.228,-0.585 6.619,1.059 9.508,1.749 7.362,1.763 16.245,1.763 23.609,0 2.888,-0.69 7.277,-2.334 9.508,-1.749 2.231,0.585 7.31,4.205 7.808,9.926l1.473 16.983c0.127,1.451 -1.194,2.645 -2.645,2.645l-55.9 0c-1.448,0 -2.769,-1.194 -2.642,-2.645l1.473 -16.983c0.495,-5.721 5.577,-9.341 7.808,-9.926z"/>
   <path class="fil2" d="M65.665 114.579c2.937,-0.769 6.495,0.241 9.638,1.132l2.163 0.601c3.257,0.777 6.945,1.17 10.705,1.17 3.761,0 7.448,-0.393 10.705,-1.17l2.359 -0.658c3.094,-0.874 6.573,-1.827 9.443,-1.075 2.039,0.534 5.482,2.534 7.933,5.648 1.749,2.228 3.143,5.079 3.438,8.474l1.473 16.983 0.013 0.604c0.014,1.99 -0.828,3.761 -2.149,5.058 -1.211,1.196 -2.878,1.989 -4.622,2.141 -18.654,0.436 -37.83,0.024 -56.544,0.03l-0.641 -0.043c-1.749,-0.139 -3.398,-0.932 -4.603,-2.109l-0.027 -0.028c-1.316,-1.296 -2.155,-3.067 -2.155,-5.046 0.36,-5.772 0.899,-11.991 1.516,-17.742 0.322,-3.335 1.703,-6.135 3.422,-8.319 2.45,-3.117 5.897,-5.117 7.933,-5.651zm7.066 10.31c-1.992,-0.563 -4.256,-1.205 -4.678,-1.094 -0.577,0.152 -1.736,0.942 -2.821,2.326 -0.718,0.912 -1.292,2.041 -1.419,3.314l-1.259 14.53 51.235 0 -1.254 -14.441c-0.114,-1.318 -0.693,-2.477 -1.424,-3.406 -1.086,-1.381 -2.244,-2.171 -2.821,-2.323 -0.409,-0.105 -2.526,0.485 -4.456,1.032l-0.203 0.062c-0.675,0.19 -1.341,0.382 -2.556,0.671 -4.102,0.981 -8.542,1.473 -12.904,1.473 -4.361,0 -8.801,-0.492 -12.903,-1.473l-2.537 -0.671z"/>
   <path class="fil4" d="M88.069 72.331c11.335,0 20.524,9.188 20.524,20.522 0,11.335 -9.189,20.521 -20.524,20.521 -11.334,0 -20.522,-9.186 -20.522,-20.521 0,-11.334 9.188,-20.522 20.522,-20.522z"/>
   <path class="fil2" d="M88.069 67.555c6.982,0 13.312,2.832 17.89,7.41l0.271 0.295c4.415,4.554 7.139,10.759 7.139,17.593 0,6.982 -2.832,13.309 -7.41,17.887 -4.578,4.578 -10.905,7.41 -17.89,7.41 -6.983,0 -13.31,-2.832 -17.888,-7.41 -4.578,-4.578 -7.41,-10.905 -7.41,-17.887 0,-6.972 2.834,-13.291 7.41,-17.869 4.578,-4.597 10.905,-7.429 17.888,-7.429zm11.138 14.162c-2.848,-2.848 -6.79,-4.611 -11.138,-4.611 -4.349,0 -8.288,1.763 -11.136,4.611 -2.848,2.837 -4.611,6.782 -4.611,11.136 0,4.348 1.763,8.287 4.611,11.135 2.848,2.848 6.787,4.611 11.136,4.611 4.35,0 8.29,-1.763 11.138,-4.611 2.848,-2.848 4.61,-6.787 4.61,-11.135 0,-4.246 -1.673,-8.101 -4.388,-10.93l-0.222 -0.206z"/>
   <path class="fil2" d="M147.152 153.514c-2.637,0 -4.776,-2.139 -4.776,-4.776 0,-2.637 2.139,-4.775 4.776,-4.775l57.494 0c2.637,0 4.776,2.138 4.776,4.775 0,2.637 -2.139,4.776 -4.776,4.776l-57.494 0z"/>
   <path class="fil2" d="M57.564 190.865c-2.637,0 -4.775,-2.139 -4.775,-4.776 0,-2.637 2.138,-4.775 4.775,-4.775l147.082 0c2.637,0 4.776,2.138 4.776,4.775 0,2.637 -2.139,4.776 -4.776,4.776l-147.082 0z"/>
   <path class="fil2" d="M57.564 228.219c-2.637,0 -4.775,-2.139 -4.775,-4.776 0,-2.637 2.138,-4.776 4.775,-4.776l147.082 0c2.637,0 4.776,2.139 4.776,4.776 0,2.637 -2.139,4.776 -4.776,4.776l-147.082 0z"/>
   <path class="fil2" d="M57.564 265.57c-2.637,0 -4.775,-2.139 -4.775,-4.776 0,-2.637 2.138,-4.775 4.775,-4.775l66.564 0c2.637,0 4.776,2.138 4.776,4.775 0,2.637 -2.139,4.776 -4.776,4.776l-66.564 0z"/>
   <path class="fil4" d="M233.859 234.072c31.646,0 57.307,25.658 57.307,57.305 0,31.647 -25.661,57.305 -57.307,57.305 -31.647,0 -57.305,-25.658 -57.305,-57.305 0,-31.647 25.658,-57.305 57.305,-57.305z"/>
   <path class="fil2" d="M233.859 229.297c17.14,0 32.661,6.949 43.897,18.185 11.23,11.252 18.186,26.776 18.186,43.895 0,17.119 -6.956,32.643 -18.197,43.884 -11.225,11.246 -26.746,18.196 -43.886,18.196 -17.114,0 -32.635,-6.95 -43.876,-18.185 -11.255,-11.26 -18.205,-26.776 -18.205,-43.895 0,-17.113 6.95,-32.635 18.186,-43.876 11.26,-11.255 26.781,-18.204 43.895,-18.204zm37.153 24.937c-9.514,-9.505 -22.647,-15.386 -37.153,-15.386 -14.517,0 -27.651,5.873 -37.143,15.367 -9.514,9.511 -15.386,22.645 -15.386,37.162 0,14.517 5.872,27.651 15.367,37.143 9.511,9.513 22.645,15.386 37.162,15.386 14.506,0 27.639,-5.881 37.145,-15.386 9.514,-9.492 15.386,-22.626 15.386,-37.143 0,-14.517 -5.872,-27.651 -15.378,-37.143z"/>
   <path class="fil2" d="M203.365 294.252c-1.862,-1.862 -1.862,-4.889 0,-6.752 1.863,-1.863 4.89,-1.863 6.753,0l19.975 19.975 31.879 -31.877c1.863,-1.862 4.89,-1.862 6.752,0 1.863,1.863 1.863,4.89 0,6.753l-35.255 35.252c-1.863,1.863 -4.89,1.863 -6.753,0l-23.351 -23.351z"/>
  </g>
 </g>
</svg>
