<?xml version="1.0" encoding="UTF-8"?>
<!DOCTYPE svg PUBLIC "-//W3C//DTD SVG 1.1//EN" "http://www.w3.org/Graphics/SVG/1.1/DTD/svg11.dtd">
<!-- Creator: CorelDRAW 2018 (64-Bit) -->
<svg xmlns="http://www.w3.org/2000/svg" xml:space="preserve" width="50px" height="40px" version="1.1" style="shape-rendering:geometricPrecision; text-rendering:geometricPrecision; image-rendering:optimizeQuality; fill-rule:evenodd; clip-rule:evenodd"
viewBox="0 0 22.082 17.665"
 xmlns:xlink="http://www.w3.org/1999/xlink">
 <defs>
  <style type="text/css">
   <![CDATA[
    .fil0 {fill:none}
    .fil4 {fill:#00F4FF}
    .fil1 {fill:#EAEDF2}
    .fil5 {fill:white}
    .fil2 {fill:gray;fill-rule:nonzero}
    .fil3 {fill:white;fill-rule:nonzero}
   ]]>
  </style>
 </defs>
 <g id="Layer_x0020_1">
  <metadata id="CorelCorpID_0Corel-Layer"/>
  <g id="_2724462222896">
   <rect class="fil0" width="22.082" height="17.665"/>
   <path class="fil1" d="M1.657 8.757c-1.065,-1.175 -1.031,-2.991 0.102,-4.124 1.134,-1.133 2.95,-1.167 4.124,-0.102 -2.031,0.595 -3.631,2.195 -4.226,4.226z"/>
   <path class="fil2" d="M1.487 8.897c-0.568,-0.631 -0.843,-1.433 -0.823,-2.228 0.02,-0.795 0.333,-1.585 0.94,-2.191 0.606,-0.607 1.395,-0.92 2.191,-0.94 0.799,-0.02 1.604,0.257 2.236,0.83 0.09,0.081 0.097,0.22 0.015,0.31 -0.028,0.032 -0.064,0.053 -0.102,0.064 -0.977,0.287 -1.853,0.816 -2.557,1.52 -0.703,0.703 -1.233,1.578 -1.519,2.556 -0.034,0.117 -0.156,0.184 -0.272,0.15 -0.045,-0.013 -0.082,-0.038 -0.109,-0.071zm-0.383 -2.218c-0.014,0.565 0.143,1.133 0.472,1.62 0.326,-0.893 0.842,-1.692 1.499,-2.35 0.658,-0.657 1.458,-1.173 2.35,-1.499 -0.487,-0.329 -1.055,-0.486 -1.619,-0.472 -0.686,0.017 -1.366,0.287 -1.89,0.811 -0.525,0.524 -0.795,1.204 -0.812,1.89z"/>
   <path class="fil1" d="M13.618 8.757c1.065,-1.175 1.031,-2.991 -0.102,-4.124 -1.134,-1.133 -2.95,-1.167 -4.124,-0.102 2.031,0.595 3.632,2.195 4.226,4.226z"/>
   <path class="fil2" d="M13.699 8.298c0.329,-0.486 0.486,-1.054 0.472,-1.619 -0.017,-0.685 -0.288,-1.366 -0.811,-1.89l-0.011 -0.011c-0.522,-0.516 -1.199,-0.783 -1.879,-0.8 -0.565,-0.014 -1.133,0.143 -1.62,0.472 0.893,0.326 1.693,0.842 2.35,1.499 0.657,0.658 1.174,1.457 1.499,2.349zm0.912 -1.629c0.02,0.795 -0.254,1.597 -0.823,2.228 -0.027,0.033 -0.064,0.058 -0.108,0.071 -0.117,0.034 -0.239,-0.033 -0.273,-0.15 -0.286,-0.978 -0.816,-1.853 -1.519,-2.556 -0.703,-0.703 -1.579,-1.233 -2.557,-1.52 -0.038,-0.011 -0.073,-0.032 -0.102,-0.064 -0.081,-0.09 -0.074,-0.229 0.016,-0.31 0.631,-0.573 1.436,-0.85 2.235,-0.83 0.79,0.019 1.574,0.329 2.179,0.927l0.013 0.012c0.606,0.606 0.919,1.396 0.939,2.192z"/>
   <path class="fil1" d="M5.465 13.373l0 0c-0.224,-0.157 -0.536,-0.102 -0.693,0.122l-1.292 1.845c-0.157,0.224 -0.102,0.536 0.122,0.693l0 0c0.225,0.157 0.537,0.102 0.694,-0.122l1.291 -1.845c0.157,-0.224 0.102,-0.536 -0.122,-0.693z"/>
   <path class="fil2" d="M5.571 13.179c0.014,0.008 0.027,0.017 0.039,0.028 0.151,0.113 0.246,0.276 0.276,0.45 0.032,0.18 -0.005,0.373 -0.119,0.535l-1.291 1.845c-0.114,0.162 -0.283,0.263 -0.464,0.295 -0.18,0.032 -0.373,-0.005 -0.536,-0.119 -0.162,-0.113 -0.263,-0.283 -0.295,-0.464 -0.032,-0.18 0.005,-0.373 0.119,-0.535l1.28 -1.829c0.007,-0.012 0.016,-0.024 0.026,-0.035 0.113,-0.151 0.276,-0.246 0.449,-0.276 0.173,-0.031 0.358,0.002 0.516,0.105zm-0.234 0.373c-0.061,-0.042 -0.136,-0.056 -0.206,-0.044 -0.07,0.013 -0.136,0.052 -0.179,0.113l-1.292 1.845c-0.043,0.062 -0.057,0.137 -0.044,0.208 0.012,0.07 0.051,0.136 0.112,0.179 0.062,0.043 0.138,0.057 0.208,0.045 0.071,-0.013 0.137,-0.052 0.18,-0.113l1.291 -1.844c0.043,-0.062 0.057,-0.138 0.045,-0.209 -0.013,-0.07 -0.051,-0.136 -0.113,-0.179l-0.002 -0.001z"/>
   <path class="fil3" d="M7.638 5.191c2.938,0 5.32,2.382 5.32,5.32 0,2.939 -2.382,5.321 -5.32,5.321 -2.939,0 -5.321,-2.382 -5.321,-5.321 0,-2.938 2.382,-5.32 5.321,-5.32z"/>
   <path class="fil2" d="M7.638 4.97c1.53,0 2.915,0.62 3.918,1.623 1.003,1.003 1.623,2.388 1.623,3.918 0,1.531 -0.62,2.916 -1.623,3.919 -1.003,1.003 -2.388,1.623 -3.918,1.623 -1.531,0 -2.916,-0.62 -3.919,-1.623 -1.003,-1.003 -1.623,-2.388 -1.623,-3.919 0,-1.53 0.62,-2.915 1.623,-3.918 1.003,-1.003 2.388,-1.623 3.919,-1.623zm3.606 1.935c-0.923,-0.923 -2.198,-1.493 -3.606,-1.493 -1.409,0 -2.684,0.57 -3.607,1.493 -0.922,0.923 -1.493,2.198 -1.493,3.606 0,1.409 0.571,2.684 1.493,3.607 0.923,0.923 2.198,1.494 3.607,1.494 1.408,0 2.683,-0.571 3.606,-1.494 0.923,-0.923 1.494,-2.198 1.494,-3.607 0,-1.408 -0.571,-2.683 -1.494,-3.606z"/>
   <path class="fil2" d="M10.526 7.431c0.086,-0.086 0.226,-0.086 0.312,0 0.086,0.087 0.086,0.227 0,0.313l-2.56 2.56c-0.086,0.086 -0.226,0.086 -0.312,0 -0.086,-0.087 -0.086,-0.226 0,-0.313l2.56 -2.56z"/>
   <path class="fil2" d="M7.2 10.074c0.105,0.061 0.141,0.196 0.08,0.301 -0.061,0.105 -0.196,0.141 -0.301,0.08l-1.941 -1.121c-0.106,-0.061 -0.141,-0.196 -0.08,-0.301 0.06,-0.105 0.195,-0.141 0.3,-0.08l1.942 1.121z"/>
   <path class="fil4" d="M7.638 9.911c-0.332,0 -0.601,0.269 -0.601,0.601 0,0.331 0.269,0.6 0.601,0.6 0.331,0 0.6,-0.269 0.6,-0.6 0,-0.332 -0.269,-0.601 -0.6,-0.601z"/>
   <path class="fil2" d="M7.638 10.132c-0.105,0 -0.2,0.042 -0.269,0.111 -0.069,0.069 -0.111,0.164 -0.111,0.269 0,0.105 0.042,0.2 0.111,0.269 0.068,0.068 0.163,0.11 0.269,0.11 0.105,0 0.2,-0.042 0.269,-0.11 0.068,-0.069 0.11,-0.164 0.11,-0.269 0,-0.105 -0.042,-0.2 -0.111,-0.269 -0.068,-0.069 -0.163,-0.111 -0.268,-0.111zm-0.581 -0.201c0.148,-0.149 0.354,-0.241 0.581,-0.241 0.226,0 0.432,0.092 0.58,0.241 0.149,0.148 0.241,0.354 0.241,0.581 0,0.226 -0.092,0.431 -0.241,0.58 -0.149,0.149 -0.354,0.241 -0.58,0.241 -0.226,0 -0.432,-0.092 -0.58,-0.24 -0.15,-0.15 -0.242,-0.355 -0.242,-0.581 0,-0.227 0.092,-0.433 0.241,-0.581z"/>
   <path class="fil2" d="M7.417 6.47c0,-0.122 0.099,-0.221 0.221,-0.221 0.122,0 0.22,0.099 0.22,0.221l0 0.374c0,0.122 -0.098,0.221 -0.22,0.221 -0.122,0 -0.221,-0.099 -0.221,-0.221l0 -0.374z"/>
   <path class="fil2" d="M3.596 10.732c-0.122,0 -0.221,-0.099 -0.221,-0.221 0,-0.122 0.099,-0.22 0.221,-0.22l0.374 0c0.122,0 0.221,0.098 0.221,0.22 0,0.122 -0.099,0.221 -0.221,0.221l-0.374 0z"/>
   <path class="fil2" d="M7.858 14.554c0,0.121 -0.098,0.22 -0.22,0.22 -0.122,0 -0.221,-0.099 -0.221,-0.22l0 -0.375c0,-0.122 0.099,-0.221 0.221,-0.221 0.122,0 0.22,0.099 0.22,0.221l0 0.375z"/>
   <path class="fil4" d="M13.386 11.588c0.307,0.101 0.585,0.264 0.821,0.475l1.013 -0.306c0.203,0.254 0.369,0.54 0.49,0.848l-0.771 0.724c0.032,0.153 0.048,0.312 0.048,0.475 0,0.162 -0.016,0.321 -0.048,0.474l0.771 0.724c-0.121,0.309 -0.287,0.594 -0.49,0.849l-1.013 -0.306c-0.236,0.21 -0.514,0.374 -0.821,0.475l-0.242 1.029c-0.16,0.024 -0.323,0.036 -0.49,0.036 -0.166,0 -0.33,-0.012 -0.49,-0.036l-0.241 -1.029c-0.307,-0.101 -0.586,-0.265 -0.821,-0.475l-1.013 0.306c-0.203,-0.255 -0.37,-0.54 -0.491,-0.849l0.772 -0.724c-0.032,-0.153 -0.049,-0.312 -0.049,-0.474 0,-0.163 0.017,-0.322 0.049,-0.475l-0.772 -0.724c0.121,-0.308 0.288,-0.594 0.491,-0.848l1.013 0.306c0.235,-0.211 0.514,-0.374 0.821,-0.475l0.241 -1.03c0.16,-0.024 0.324,-0.036 0.49,-0.036 0.167,0 0.33,0.012 0.49,0.036l0.242 1.03z"/>
   <path class="fil2" d="M13.573 11.42c0.122,0.048 0.242,0.106 0.357,0.172 0.115,0.066 0.224,0.141 0.327,0.225l0.899 -0.272c0.097,-0.029 0.198,0.012 0.25,0.093 0.104,0.132 0.199,0.271 0.282,0.414 0.087,0.152 0.164,0.31 0.228,0.473 0.035,0.089 0.007,0.187 -0.062,0.247l-0.677 0.636c0.007,0.045 0.013,0.09 0.017,0.135 0.01,0.09 0.014,0.177 0.014,0.261 0,0.083 -0.004,0.17 -0.014,0.26 -0.004,0.046 -0.01,0.091 -0.017,0.135l0.684 0.643c0.068,0.063 0.086,0.159 0.054,0.241 -0.063,0.162 -0.14,0.32 -0.227,0.472 -0.087,0.15 -0.186,0.295 -0.297,0.433 -0.057,0.072 -0.151,0.098 -0.235,0.073l-0.899 -0.27c-0.103,0.083 -0.212,0.159 -0.327,0.224 -0.114,0.067 -0.234,0.124 -0.357,0.172l-0.214 0.912c-0.021,0.091 -0.096,0.155 -0.183,0.168 -0.084,0.013 -0.171,0.023 -0.259,0.029 -0.089,0.007 -0.177,0.01 -0.263,0.01 -0.086,0 -0.173,-0.003 -0.262,-0.01l-0.005 0c-0.086,-0.006 -0.171,-0.016 -0.255,-0.029 -0.094,-0.013 -0.165,-0.085 -0.184,-0.173l-0.212 -0.907c-0.124,-0.048 -0.243,-0.105 -0.358,-0.172 -0.114,-0.065 -0.223,-0.141 -0.327,-0.224l-0.898 0.271c-0.097,0.029 -0.198,-0.011 -0.25,-0.092 -0.105,-0.133 -0.199,-0.272 -0.282,-0.415 -0.088,-0.152 -0.164,-0.31 -0.228,-0.472 -0.035,-0.09 -0.007,-0.188 0.061,-0.248l0.678 -0.636c-0.007,-0.044 -0.013,-0.089 -0.018,-0.135 -0.009,-0.09 -0.013,-0.177 -0.013,-0.26 0,-0.084 0.004,-0.171 0.013,-0.261 0.005,-0.045 0.011,-0.09 0.018,-0.135l-0.685 -0.643c-0.067,-0.063 -0.085,-0.159 -0.054,-0.24 0.064,-0.163 0.14,-0.321 0.228,-0.473 0.087,-0.149 0.186,-0.294 0.296,-0.432 0.058,-0.073 0.152,-0.099 0.236,-0.074l0.898 0.271c0.103,-0.084 0.213,-0.159 0.327,-0.225 0.115,-0.066 0.234,-0.124 0.358,-0.172l0.214 -0.912c0.021,-0.091 0.095,-0.155 0.182,-0.168 0.085,-0.013 0.172,-0.022 0.26,-0.029 0.089,-0.007 0.176,-0.01 0.262,-0.01 0.086,0 0.174,0.003 0.263,0.01l0.005 0c0.086,0.007 0.171,0.017 0.254,0.029 0.094,0.014 0.166,0.085 0.184,0.173l0.213 0.907zm0.137 0.553c-0.121,-0.071 -0.253,-0.13 -0.393,-0.176 -0.071,-0.023 -0.128,-0.082 -0.146,-0.159l-0.206 -0.88 -0.081 -0.007c-0.073,-0.005 -0.15,-0.008 -0.23,-0.008 -0.079,0 -0.156,0.003 -0.229,0.008l-0.081 0.007 -0.204 0.872c-0.015,0.076 -0.069,0.141 -0.148,0.167 -0.139,0.046 -0.271,0.105 -0.393,0.176 -0.121,0.07 -0.234,0.151 -0.337,0.241 -0.055,0.059 -0.141,0.085 -0.224,0.06l-0.867 -0.262c-0.06,0.083 -0.116,0.17 -0.169,0.261 -0.051,0.089 -0.098,0.181 -0.141,0.276l0.66 0.62c0.053,0.05 0.08,0.127 0.064,0.204 -0.014,0.069 -0.025,0.141 -0.032,0.213 -0.007,0.067 -0.011,0.14 -0.011,0.218 0,0.077 0.004,0.15 0.011,0.217 0.007,0.069 0.017,0.137 0.03,0.203 0.019,0.075 -0.002,0.158 -0.062,0.215l-0.66 0.619c0.043,0.095 0.09,0.187 0.141,0.276 0.053,0.091 0.109,0.178 0.169,0.261l0.867 -0.262c0.071,-0.02 0.151,-0.005 0.21,0.048 0.107,0.095 0.224,0.18 0.351,0.253 0.122,0.071 0.254,0.13 0.393,0.176 0.071,0.024 0.128,0.082 0.146,0.16l0.206 0.879 0.081 0.007c0.073,0.006 0.15,0.009 0.229,0.009 0.08,0 0.157,-0.003 0.23,-0.009l0.081 -0.007 0.204 -0.872c0.015,-0.075 0.069,-0.141 0.148,-0.167 0.139,-0.046 0.27,-0.105 0.393,-0.176 0.121,-0.069 0.234,-0.151 0.337,-0.241 0.055,-0.059 0.141,-0.084 0.224,-0.06l0.867 0.262c0.06,-0.083 0.116,-0.17 0.169,-0.261 0.051,-0.089 0.098,-0.181 0.141,-0.276l-0.66 -0.619c-0.053,-0.051 -0.08,-0.127 -0.064,-0.205 0.014,-0.069 0.025,-0.14 0.032,-0.213 0.007,-0.067 0.011,-0.14 0.011,-0.217 0,-0.078 -0.004,-0.151 -0.011,-0.218 -0.007,-0.069 -0.017,-0.137 -0.03,-0.203 -0.019,-0.075 0.002,-0.158 0.062,-0.214l0.66 -0.62c-0.043,-0.095 -0.09,-0.187 -0.141,-0.276 -0.053,-0.091 -0.109,-0.178 -0.169,-0.261l-0.867 0.262c-0.071,0.02 -0.151,0.005 -0.21,-0.048 -0.107,-0.095 -0.225,-0.18 -0.351,-0.253z"/>
   <path class="fil5" d="M12.654 12.769c0.572,0 1.035,0.463 1.035,1.035 0,0.571 -0.463,1.034 -1.035,1.034 -0.571,0 -1.034,-0.463 -1.034,-1.034 0,-0.572 0.463,-1.035 1.034,-1.035z"/>
   <path class="fil2" d="M12.654 12.548c0.347,0 0.661,0.141 0.888,0.368 0.227,0.227 0.368,0.541 0.368,0.888 0,0.346 -0.141,0.659 -0.368,0.886 -0.227,0.228 -0.541,0.369 -0.888,0.369 -0.346,0 -0.66,-0.141 -0.887,-0.368l-0.013 -0.013c-0.219,-0.226 -0.355,-0.535 -0.355,-0.874 0,-0.347 0.141,-0.661 0.368,-0.888 0.227,-0.227 0.541,-0.368 0.887,-0.368zm0.576 0.68c-0.147,-0.147 -0.351,-0.238 -0.576,-0.238 -0.224,0 -0.428,0.091 -0.575,0.238 -0.147,0.147 -0.238,0.351 -0.238,0.576 0,0.22 0.087,0.419 0.228,0.565l0.01 0.01c0.147,0.147 0.351,0.238 0.575,0.238 0.225,0 0.429,-0.091 0.576,-0.238 0.147,-0.147 0.238,-0.35 0.238,-0.575 0,-0.225 -0.091,-0.429 -0.238,-0.576z"/>
  </g>
 </g>
</svg>
