<?xml version="1.0" encoding="UTF-8"?>
<!DOCTYPE svg PUBLIC "-//W3C//DTD SVG 1.1//EN" "http://www.w3.org/Graphics/SVG/1.1/DTD/svg11.dtd">
<!-- Creator: CorelDRAW 2018 (64-Bit) -->
<svg xmlns="http://www.w3.org/2000/svg" xml:space="preserve" width="50px" height="40px" version="1.1" style="shape-rendering:geometricPrecision; text-rendering:geometricPrecision; image-rendering:optimizeQuality; fill-rule:evenodd; clip-rule:evenodd"
viewBox="0 0 10.662 8.53"
 xmlns:xlink="http://www.w3.org/1999/xlink">
 <defs>
  <style type="text/css">
   <![CDATA[
    .fil0 {fill:none}
    .fil3 {fill:#00F4FF}
    .fil4 {fill:gray}
    .fil1 {fill:#EAEDF2}
    .fil2 {fill:gray;fill-rule:nonzero}
   ]]>
  </style>
 </defs>
 <g id="Layer_x0020_1">
  <metadata id="CorelCorpID_0Corel-Layer"/>
  <g id="_2724716317616">
   <rect class="fil0" width="10.662" height="8.53"/>
   <path class="fil1" d="M7.381 3.348c0.648,0.125 1.138,0.694 1.138,1.378 0,0.684 -0.49,1.254 -1.138,1.379 0.04,-0.895 0.04,-1.862 0,-2.757z"/>
   <path class="fil2" d="M7.401 3.244c0.352,0.067 0.66,0.257 0.879,0.522 0.216,0.262 0.345,0.596 0.345,0.96 0,0.365 -0.129,0.699 -0.345,0.96 -0.219,0.266 -0.528,0.456 -0.879,0.523 -0.058,0.011 -0.113,-0.027 -0.124,-0.084 -0.002,-0.01 -0.003,-0.02 -0.002,-0.03 0.019,-0.439 0.029,-0.901 0.029,-1.368 0,-0.469 -0.01,-0.933 -0.029,-1.374 -0.003,-0.059 0.043,-0.109 0.102,-0.111 0.008,0 0.016,0 0.024,0.002zm0.715 0.657c-0.16,-0.194 -0.376,-0.34 -0.623,-0.416 0.016,0.41 0.024,0.828 0.024,1.242 0,0.414 -0.008,0.832 -0.024,1.24 0.247,-0.075 0.463,-0.221 0.623,-0.415 0.185,-0.224 0.296,-0.512 0.296,-0.826 0,-0.313 -0.111,-0.601 -0.296,-0.825z"/>
   <polygon class="fil3" points="1.551,3.543 3.218,3.543 3.218,5.909 2.702,5.909 3.36,7.785 2.395,7.785 1.551,5.909 "/>
   <path class="fil2" d="M1.551 3.437l1.667 0c0.059,0 0.106,0.047 0.106,0.106l0 2.366c0,0.059 -0.047,0.107 -0.106,0.107l-0.366 0 0.608 1.734c0.02,0.055 -0.01,0.116 -0.065,0.135 -0.011,0.004 -0.023,0.006 -0.035,0.006l-0.965 0.001c-0.046,0 -0.085,-0.029 -0.1,-0.07l-0.841 -1.869c-0.007,-0.014 -0.01,-0.029 -0.01,-0.044l0 -2.366c0,-0.059 0.048,-0.106 0.107,-0.106zm1.56 0.213l-1.454 0 0 2.237 0.807 1.791 0.746 0 -0.606 -1.725c-0.006,-0.013 -0.009,-0.028 -0.009,-0.044 0,-0.058 0.048,-0.106 0.107,-0.106l0.409 0 0 -2.153z"/>
   <path class="fil2" d="M1.118 5.475c0.059,0 0.107,0.047 0.107,0.106 0,0.059 -0.048,0.107 -0.107,0.107l-0.385 0c-0.037,0 -0.069,-0.019 -0.088,-0.047 -0.102,-0.125 -0.184,-0.269 -0.24,-0.425 -0.055,-0.154 -0.085,-0.319 -0.085,-0.49 0,-0.171 0.03,-0.336 0.085,-0.49 0.057,-0.158 0.141,-0.304 0.246,-0.432 0.021,-0.025 0.051,-0.039 0.082,-0.039l0.385 0c0.059,0 0.107,0.048 0.107,0.107 0,0.059 -0.048,0.106 -0.107,0.106l-0.334 0c-0.075,0.1 -0.136,0.211 -0.179,0.33 -0.047,0.13 -0.072,0.271 -0.072,0.418 0,0.148 0.025,0.289 0.072,0.419 0.043,0.119 0.104,0.23 0.179,0.33l0.334 0z"/>
   <path class="fil2" d="M7.214 2.382l-3.89 1.239 0 2.211 3.89 1.239c0.06,-0.714 0.09,-1.528 0.09,-2.345 0,-0.816 -0.03,-1.63 -0.09,-2.344zm-4.028 1.06l4.086 -1.301c0.008,-0.003 0.017,-0.005 0.026,-0.006 0.059,-0.005 0.111,0.038 0.116,0.096 0.069,0.757 0.103,1.628 0.103,2.495 0,0.868 -0.034,1.738 -0.103,2.496 -0.001,0.007 -0.002,0.015 -0.005,0.022 -0.017,0.056 -0.077,0.087 -0.133,0.069l-4.081 -1.299c-0.048,-0.01 -0.084,-0.053 -0.084,-0.104l0 -2.367c0,-0.045 0.029,-0.087 0.075,-0.101z"/>
   <path class="fil4" d="M2.394 4.093c0.098,0 0.177,0.08 0.177,0.177 0,0.098 -0.079,0.177 -0.177,0.177 -0.097,0 -0.176,-0.079 -0.176,-0.177 0,-0.097 0.079,-0.177 0.176,-0.177z"/>
   <path class="fil2" d="M2.394 4.04c0.064,0 0.122,0.026 0.163,0.068 0.042,0.041 0.068,0.099 0.068,0.162 0,0.064 -0.026,0.121 -0.068,0.163 -0.041,0.042 -0.099,0.067 -0.163,0.067 -0.063,0 -0.121,-0.025 -0.162,-0.067 -0.042,-0.042 -0.068,-0.099 -0.068,-0.163 0,-0.063 0.026,-0.121 0.068,-0.162 0.042,-0.042 0.099,-0.068 0.162,-0.068zm0.088 0.143c-0.023,-0.022 -0.054,-0.036 -0.088,-0.036 -0.034,0 -0.065,0.014 -0.087,0.036 -0.022,0.022 -0.036,0.053 -0.036,0.087 0,0.034 0.014,0.065 0.036,0.088 0.022,0.022 0.053,0.036 0.087,0.036 0.034,0 0.065,-0.014 0.088,-0.036 0.022,-0.023 0.036,-0.054 0.036,-0.088 0,-0.034 -0.014,-0.065 -0.036,-0.087z"/>
   <path class="fil3" d="M5.978 2.664c0.107,1.276 0.107,2.849 0,4.125l1.33 0.423c0.137,-1.502 0.137,-3.469 0,-4.971l-1.33 0.423z"/>
   <path class="fil2" d="M6.092 2.739c0.049,0.62 0.073,1.304 0.073,1.987 0,0.684 -0.024,1.368 -0.073,1.987l1.122 0.358c0.06,-0.714 0.09,-1.528 0.09,-2.345 0,-0.816 -0.03,-1.63 -0.09,-2.344l-1.122 0.357zm-0.14 1.987c0,-0.709 -0.027,-1.419 -0.08,-2.053 -0.003,-0.049 0.026,-0.095 0.074,-0.11l1.326 -0.422c0.008,-0.003 0.017,-0.005 0.027,-0.006 0.058,-0.005 0.11,0.038 0.115,0.096 0.069,0.757 0.103,1.628 0.103,2.495 0,0.868 -0.034,1.738 -0.103,2.496 -0.001,0.007 -0.002,0.015 -0.005,0.022 -0.017,0.056 -0.077,0.087 -0.133,0.069l-1.321 -0.42c-0.051,-0.012 -0.087,-0.059 -0.083,-0.113 0.053,-0.634 0.08,-1.344 0.08,-2.054z"/>
  </g>
 </g>
</svg>
