<?xml version="1.0" encoding="UTF-8"?>
<!DOCTYPE svg PUBLIC "-//W3C//DTD SVG 1.1//EN" "http://www.w3.org/Graphics/SVG/1.1/DTD/svg11.dtd">
<!-- Creator: CorelDRAW 2018 (64-Bit) -->
<svg xmlns="http://www.w3.org/2000/svg" xml:space="preserve" width="30px" height="30px" version="1.1" style="shape-rendering:geometricPrecision; text-rendering:geometricPrecision; image-rendering:optimizeQuality; fill-rule:evenodd; clip-rule:evenodd"
viewBox="0 0 0.479 0.479"
 xmlns:xlink="http://www.w3.org/1999/xlink">
 <defs>
  <style type="text/css">
   <![CDATA[
    .fil0 {fill:none}
    .fil1 {fill:gray;fill-rule:nonzero}
   ]]>
  </style>
 </defs>
 <g id="Layer_x0020_1">
  <metadata id="CorelCorpID_0Corel-Layer"/>
  <g id="_2414289310096">
   <rect class="fil0" width="0.479" height="0.479"/>
   <g>
    <path class="fil1" d="M0.09 0.162c-0.003,-0.003 -0.003,-0.008 0,-0.011 0.003,-0.003 0.008,-0.003 0.011,0l0.098 0.097c0.008,0.008 0.013,0.011 0.019,0.013 0.005,0.002 0.011,0.002 0.022,0.002 0.02,0 0.024,0 0.041,-0.015l0.097 -0.097c0.003,-0.003 0.008,-0.003 0.011,0 0.003,0.003 0.003,0.008 0,0.011l-0.098 0.098c-0.021,0.019 -0.026,0.019 -0.051,0.019 -0.012,0 -0.02,0 -0.027,-0.003 -0.008,-0.002 -0.015,-0.007 -0.025,-0.016l-0.098 -0.098z"/>
    <path class="fil1" d="M0.295 0.246c-0.003,-0.003 -0.003,-0.008 0,-0.011 0.003,-0.003 0.008,-0.003 0.011,0l0.083 0.082c0.003,0.003 0.003,0.008 0,0.012 -0.003,0.003 -0.008,0.003 -0.011,0l-0.083 -0.083z"/>
    <path class="fil1" d="M0.101 0.329c-0.003,0.003 -0.008,0.003 -0.011,0 -0.003,-0.004 -0.003,-0.009 0,-0.012l0.082 -0.082c0.004,-0.003 0.009,-0.003 0.012,0 0.003,0.003 0.003,0.008 0,0.011l-0.083 0.083z"/>
    <path class="fil1" d="M0.094 0.107l0.291 0c0.014,0 0.027,0.005 0.036,0.014 0.009,0.009 0.014,0.022 0.014,0.035l0 0.167c0,0.014 -0.005,0.026 -0.014,0.035 -0.009,0.009 -0.022,0.015 -0.036,0.015l-0.291 0c-0.014,0 -0.026,-0.006 -0.035,-0.015 -0.009,-0.009 -0.015,-0.021 -0.015,-0.035l0 -0.167c0,-0.013 0.006,-0.026 0.015,-0.035 0.009,-0.009 0.021,-0.014 0.035,-0.014zm0.291 0.016l-0.291 0c-0.01,0 -0.018,0.003 -0.024,0.009 -0.006,0.007 -0.01,0.015 -0.01,0.024l0 0.167c0,0.009 0.004,0.018 0.01,0.024 0.006,0.006 0.015,0.01 0.024,0.01l0.291 0c0.01,0 0.018,-0.004 0.024,-0.01 0.006,-0.006 0.01,-0.015 0.01,-0.024l0 -0.167c0,-0.009 -0.004,-0.017 -0.01,-0.024 -0.006,-0.006 -0.014,-0.009 -0.024,-0.009z"/>
   </g>
  </g>
 </g>
</svg>
