<?xml version="1.0" encoding="UTF-8"?>
<!DOCTYPE svg PUBLIC "-//W3C//DTD SVG 1.1//EN" "http://www.w3.org/Graphics/SVG/1.1/DTD/svg11.dtd">
<!-- Creator: CorelDRAW 2018 (64-Bit) -->
<svg xmlns="http://www.w3.org/2000/svg" xml:space="preserve" width="30px" height="30px" version="1.1" style="shape-rendering:geometricPrecision; text-rendering:geometricPrecision; image-rendering:optimizeQuality; fill-rule:evenodd; clip-rule:evenodd"
viewBox="0 0 0.509 0.509"
 xmlns:xlink="http://www.w3.org/1999/xlink">
 <defs>
  <style type="text/css">
   <![CDATA[
    .fil0 {fill:none}
    .fil1 {fill:gray;fill-rule:nonzero}
   ]]>
  </style>
 </defs>
 <g id="Layer_x0020_1">
  <metadata id="CorelCorpID_0Corel-Layer"/>
  <g id="_2413833736592">
   <rect class="fil0" width="0.509" height="0.509"/>
   <path class="fil1" d="M0.233 0.254c-0.004,0.003 -0.009,0.003 -0.012,0 -0.004,-0.004 -0.004,-0.009 0,-0.012l0.149 -0.15c0.006,-0.005 0.013,-0.008 0.021,-0.008 0.007,0 0.014,0.003 0.02,0.008l0.041 0.041c0.006,0.006 0.009,0.013 0.009,0.021 0,0.007 -0.003,0.015 -0.009,0.02l-0.219 0.22c-0.004,0.003 -0.009,0.003 -0.012,0l-0.164 -0.164c-0.005,-0.006 -0.008,-0.013 -0.008,-0.02 0,-0.008 0.003,-0.015 0.008,-0.021l0.041 -0.041c0.006,-0.006 0.013,-0.008 0.021,-0.008 0.007,0 0.015,0.002 0.02,0.008l0.048 0.048c0.003,0.003 0.003,0.008 0,0.012 -0.004,0.003 -0.009,0.003 -0.012,0l-0.048 -0.048c-0.002,-0.002 -0.005,-0.003 -0.008,-0.003 -0.003,0 -0.006,0.001 -0.009,0.003l-0.041 0.041c-0.002,0.003 -0.003,0.006 -0.003,0.009 0,0.003 0.001,0.006 0.003,0.008l0.158 0.158 0.213 -0.214c0.002,-0.002 0.004,-0.005 0.004,-0.008 0,-0.003 -0.002,-0.006 -0.004,-0.009l-0.041 -0.041c-0.002,-0.002 -0.005,-0.003 -0.008,-0.003 -0.003,0 -0.007,0.001 -0.009,0.003l-0.149 0.15z"/>
  </g>
 </g>
</svg>
