<?xml version="1.0" encoding="UTF-8"?>
<!DOCTYPE svg PUBLIC "-//W3C//DTD SVG 1.1//EN" "http://www.w3.org/Graphics/SVG/1.1/DTD/svg11.dtd">
<!-- Creator: CorelDRAW 2018 (64-Bit) -->
<svg xmlns="http://www.w3.org/2000/svg" xml:space="preserve" width="21px" height="19px" version="1.1" style="shape-rendering:geometricPrecision; text-rendering:geometricPrecision; image-rendering:optimizeQuality; fill-rule:evenodd; clip-rule:evenodd"
viewBox="0 0 0.814 0.731"
 xmlns:xlink="http://www.w3.org/1999/xlink">
 <defs>
  <style type="text/css">
   <![CDATA[
    .fil0 {fill:#00F4FF}
    .fil2 {fill:#052337}
    .fil1 {fill:#052337;fill-rule:nonzero}
   ]]>
  </style>
 </defs>
 <g id="Layer_x0020_1">
  <metadata id="CorelCorpID_0Corel-Layer"/>
  <g id="_2118991212304">
   <path class="fil0" d="M0.407 0.019c0.214,0 0.388,0.133 0.388,0.296 0,0.094 -0.058,0.178 -0.149,0.233l0.014 0.163 -0.119 -0.118c-0.042,0.011 -0.087,0.018 -0.134,0.018 -0.214,0 -0.388,-0.133 -0.388,-0.296 0,-0.163 0.174,-0.296 0.388,-0.296z"/>
   <path class="fil1" d="M0.407 0c0.111,0 0.213,0.035 0.286,0.091 0.075,0.057 0.121,0.136 0.121,0.224 0,0.05 -0.015,0.097 -0.042,0.139 -0.025,0.04 -0.062,0.076 -0.106,0.104l0.013 0.152c0.001,0.011 -0.007,0.02 -0.018,0.021 -0.006,0 -0.011,-0.002 -0.015,-0.006l-0.111 -0.111c-0.019,0.005 -0.038,0.008 -0.057,0.011 -0.024,0.003 -0.047,0.005 -0.071,0.005 -0.111,0 -0.212,-0.035 -0.286,-0.091 -0.075,-0.057 -0.121,-0.136 -0.121,-0.224 0,-0.088 0.046,-0.167 0.121,-0.224 0.074,-0.056 0.175,-0.091 0.286,-0.091zm0.263 0.121c-0.067,-0.051 -0.16,-0.083 -0.263,-0.083 -0.103,0 -0.196,0.032 -0.263,0.083 -0.065,0.05 -0.106,0.119 -0.106,0.194 0,0.075 0.041,0.144 0.106,0.194 0.067,0.051 0.16,0.082 0.263,0.082 0.023,0 0.045,-0.001 0.066,-0.004 0.021,-0.003 0.041,-0.007 0.061,-0.013 0.007,-0.002 0.015,0 0.02,0.005l0.082 0.082 -0.009 -0.112c0,-0.007 0.003,-0.014 0.01,-0.018 0.043,-0.026 0.079,-0.059 0.103,-0.097 0.023,-0.036 0.036,-0.076 0.036,-0.119 0,-0.075 -0.041,-0.144 -0.106,-0.194z"/>
   <circle class="fil2" cx="0.23" cy="0.316" r="0.045"/>
   <circle class="fil2" cx="0.407" cy="0.316" r="0.045"/>
   <circle class="fil2" cx="0.584" cy="0.316" r="0.045"/>
  </g>
 </g>
</svg>
