<?xml version="1.0" encoding="UTF-8"?>
<!DOCTYPE svg PUBLIC "-//W3C//DTD SVG 1.1//EN" "http://www.w3.org/Graphics/SVG/1.1/DTD/svg11.dtd">
<!-- Creator: CorelDRAW 2018 (64-Bit) -->
<svg xmlns="http://www.w3.org/2000/svg" xml:space="preserve" width="30px" height="30px" version="1.1" style="shape-rendering:geometricPrecision; text-rendering:geometricPrecision; image-rendering:optimizeQuality; fill-rule:evenodd; clip-rule:evenodd"
viewBox="0 0 0.544 0.544"
 xmlns:xlink="http://www.w3.org/1999/xlink">
 <defs>
  <style type="text/css">
   <![CDATA[
    .fil0 {fill:none}
    .fil1 {fill:gray;fill-rule:nonzero}
   ]]>
  </style>
 </defs>
 <g id="Layer_x0020_1">
  <metadata id="CorelCorpID_0Corel-Layer"/>
  <g id="_2379154476192">
   <rect class="fil0" width="0.544" height="0.544"/>
   <g>
    <path class="fil1" d="M0.304 0.117c-0.005,0.001 -0.01,-0.002 -0.012,-0.006 -0.001,-0.005 0.002,-0.01 0.007,-0.012l0.109 -0.029c0.007,-0.001 0.013,0 0.018,0.003l0.001 0c0.005,0.003 0.008,0.008 0.01,0.014l0.067 0.251c0.002,0.006 0.001,0.013 -0.002,0.018 -0.003,0.005 -0.008,0.009 -0.014,0.011l-0.113 0.03c-0.005,0.001 -0.009,-0.002 -0.011,-0.007 -0.001,-0.004 0.002,-0.009 0.007,-0.011l0.112 -0.03c0.002,0 0.003,-0.001 0.003,-0.002 0.001,-0.001 0.001,-0.003 0.001,-0.004l-0.067 -0.252c-0.001,-0.001 -0.002,-0.002 -0.003,-0.003l0 0c-0.001,0 -0.003,-0.001 -0.004,0l-0.109 0.029z"/>
    <path class="fil1" d="M0.234 0.131c0.005,0 0.009,0.004 0.009,0.009 0,0.005 -0.004,0.009 -0.009,0.009l-0.171 0c-0.002,0 -0.003,0.001 -0.004,0.002 -0.001,0.001 -0.002,0.002 -0.002,0.004l0 0.157 0.115 0.114 0.186 0c0.002,0 0.003,0 0.004,-0.001l0.001 -0.001c0,-0.001 0.001,-0.002 0.001,-0.003l0 -0.266c0,-0.002 -0.001,-0.003 -0.002,-0.004l0 0c-0.001,-0.001 -0.002,-0.002 -0.004,-0.002l-0.057 0c-0.005,0 -0.009,-0.004 -0.009,-0.009 0,-0.005 0.004,-0.009 0.009,-0.009l0.057 0c0.006,0 0.012,0.003 0.016,0.007l0.001 0c0.004,0.004 0.007,0.01 0.007,0.017l0 0.266c0,0.006 -0.002,0.012 -0.006,0.016l-0.001 0.001c-0.004,0.004 -0.01,0.007 -0.017,0.007l-0.19 0c-0.002,0 -0.004,-0.001 -0.006,-0.003l-0.12 -0.12c-0.002,-0.002 -0.003,-0.004 -0.003,-0.006l0 -0.161c0,-0.006 0.003,-0.012 0.007,-0.017l0 0c0.005,-0.004 0.01,-0.007 0.017,-0.007l0.171 0z"/>
    <path class="fil1" d="M0.048 0.306l0.11 0c0.005,0 0.01,0.003 0.014,0.006 0.003,0.004 0.005,0.008 0.005,0.014l0 0.109c0,0.005 -0.004,0.01 -0.009,0.01 -0.002,0 -0.005,-0.002 -0.006,-0.003l-0.12 -0.12c-0.004,-0.004 -0.004,-0.009 0,-0.013 0.002,-0.002 0.004,-0.003 0.006,-0.003zm0.11 0.019l-0.088 0 0.089 0.089 0 -0.088c0,-0.001 0,-0.001 0,-0.001 0,0 -0.001,0 -0.001,0z"/>
    <path class="fil1" d="M0.204 0.109c0,0.005 -0.004,0.009 -0.009,0.009 -0.005,0 -0.009,-0.004 -0.009,-0.009 0,-0.012 0.005,-0.024 0.013,-0.032 0.008,-0.008 0.02,-0.013 0.032,-0.013 0.013,0 0.024,0.005 0.033,0.013l0 0c0.008,0.009 0.013,0.02 0.013,0.032l0 0.101c0,0.012 -0.005,0.024 -0.013,0.032 -0.009,0.008 -0.02,0.013 -0.033,0.013 -0.012,0 -0.024,-0.005 -0.032,-0.013 -0.008,-0.008 -0.013,-0.02 -0.013,-0.032l0 -0.028c0,-0.005 0.004,-0.009 0.009,-0.009 0.005,0 0.009,0.004 0.009,0.009l0 0.028c0,0.007 0.003,0.014 0.008,0.019 0.005,0.005 0.012,0.008 0.019,0.008 0.008,0 0.015,-0.003 0.02,-0.008 0.005,-0.005 0.008,-0.012 0.008,-0.019l0 -0.101c0,-0.007 -0.003,-0.014 -0.008,-0.019l0 0c-0.005,-0.005 -0.012,-0.008 -0.02,-0.008 -0.007,0 -0.014,0.003 -0.019,0.008 -0.005,0.005 -0.008,0.012 -0.008,0.019z"/>
   </g>
  </g>
 </g>
</svg>
