<?xml version="1.0" encoding="UTF-8"?>
<!DOCTYPE svg PUBLIC "-//W3C//DTD SVG 1.1//EN" "http://www.w3.org/Graphics/SVG/1.1/DTD/svg11.dtd">
<!-- Creator: CorelDRAW 2018 (64-Bit) -->
<svg xmlns="http://www.w3.org/2000/svg" xml:space="preserve" width="30px" height="30px" version="1.1" style="shape-rendering:geometricPrecision; text-rendering:geometricPrecision; image-rendering:optimizeQuality; fill-rule:evenodd; clip-rule:evenodd"
viewBox="0 0 0.585 0.585"
 xmlns:xlink="http://www.w3.org/1999/xlink">
 <defs>
  <style type="text/css">
   <![CDATA[
    .fil0 {fill:none}
    .fil1 {fill:gray;fill-rule:nonzero}
    .fil2 {fill:gray;fill-rule:nonzero}
   ]]>
  </style>
 </defs>
 <g id="Layer_x0020_1">
  <metadata id="CorelCorpID_0Corel-Layer"/>
  <g id="_2414010040976">
   <rect class="fil0" width="0.585" height="0.585"/>
   <g>
    <path class="fil1" d="M0.3 0.104c0.005,0.002 0.008,0.007 0.006,0.012 -0.002,0.005 -0.008,0.008 -0.013,0.006 -0.012,-0.005 -0.025,-0.009 -0.039,-0.011 -0.013,-0.002 -0.027,-0.004 -0.041,-0.004 -0.049,0 -0.094,0.015 -0.126,0.04 -0.031,0.024 -0.051,0.057 -0.051,0.093 0,0.02 0.007,0.039 0.018,0.056 0.011,0.019 0.028,0.034 0.049,0.047 0.003,0.002 0.005,0.005 0.005,0.009l-0.004 0.052 0.038 -0.038c0.004,-0.004 0.01,-0.004 0.014,0 0.003,0.004 0.003,0.01 0,0.014l-0.057 0.057c-0.002,0.002 -0.005,0.003 -0.008,0.003 -0.005,-0.001 -0.009,-0.005 -0.009,-0.011l0.006 -0.073c-0.021,-0.013 -0.039,-0.03 -0.051,-0.049 -0.013,-0.021 -0.02,-0.043 -0.02,-0.067 0,-0.043 0.022,-0.081 0.058,-0.109 0.036,-0.027 0.084,-0.043 0.138,-0.043 0.015,0 0.03,0.001 0.045,0.004 0.015,0.003 0.029,0.007 0.042,0.012z"/>
    <path class="fil1" d="M0.363 0.129c0.056,0 0.107,0.017 0.144,0.045 0.038,0.029 0.061,0.069 0.061,0.114 0,0.025 -0.007,0.049 -0.021,0.07 -0.013,0.02 -0.031,0.038 -0.053,0.052l0.006 0.077c0.001,0.005 -0.004,0.01 -0.009,0.011 -0.003,0 -0.006,-0.001 -0.008,-0.003l-0.056 -0.056c-0.009,0.002 -0.019,0.004 -0.028,0.005 -0.012,0.002 -0.024,0.003 -0.036,0.003 -0.056,0 -0.107,-0.018 -0.144,-0.046 -0.038,-0.029 -0.062,-0.069 -0.062,-0.113 0,-0.045 0.024,-0.085 0.062,-0.114 0.037,-0.028 0.088,-0.045 0.144,-0.045zm0.132 0.061c-0.033,-0.026 -0.08,-0.042 -0.132,-0.042 -0.052,0 -0.099,0.016 -0.133,0.042 -0.033,0.025 -0.053,0.06 -0.053,0.098 0,0.038 0.02,0.072 0.053,0.097 0.034,0.026 0.081,0.042 0.133,0.042 0.011,0 0.022,-0.001 0.033,-0.002 0.011,-0.001 0.021,-0.004 0.031,-0.006 0.003,-0.002 0.007,-0.001 0.01,0.002l0.042 0.041 -0.005 -0.056c0,-0.004 0.001,-0.007 0.005,-0.009 0.022,-0.013 0.04,-0.03 0.052,-0.049 0.011,-0.019 0.018,-0.039 0.018,-0.06 0,-0.038 -0.021,-0.073 -0.054,-0.098z"/>
    <path class="fil2" d="M0.276 0.264c0.007,0 0.013,0.002 0.017,0.007 0.005,0.004 0.007,0.01 0.007,0.017 0,0.007 -0.002,0.013 -0.007,0.017 -0.004,0.005 -0.01,0.008 -0.017,0.008 -0.007,0 -0.013,-0.003 -0.018,-0.007 -0.004,-0.005 -0.007,-0.011 -0.007,-0.018 0,-0.007 0.003,-0.013 0.007,-0.017 0.005,-0.005 0.011,-0.007 0.018,-0.007zm0.003 0.021c-0.001,-0.001 -0.002,-0.002 -0.003,-0.002 -0.002,0 -0.003,0.001 -0.004,0.002 -0.001,0 -0.001,0.002 -0.001,0.003 0,0.002 0,0.003 0.001,0.004 0.001,0.001 0.002,0.001 0.004,0.001 0.001,0 0.002,0 0.003,-0.001 0.001,-0.001 0.002,-0.002 0.002,-0.004 0,-0.001 -0.001,-0.003 -0.002,-0.003z"/>
    <path class="fil2" d="M0.363 0.264c0.007,0 0.013,0.002 0.017,0.007 0.005,0.004 0.007,0.01 0.007,0.017 0,0.007 -0.002,0.013 -0.007,0.017 -0.004,0.005 -0.01,0.008 -0.017,0.008 -0.007,0 -0.013,-0.003 -0.017,-0.007 -0.005,-0.005 -0.008,-0.011 -0.008,-0.018 0,-0.007 0.003,-0.013 0.008,-0.017 0.004,-0.005 0.01,-0.007 0.017,-0.007zm0.003 0.021c0,-0.001 -0.002,-0.002 -0.003,-0.002 -0.001,0 -0.003,0.001 -0.004,0.002 -0.001,0 -0.001,0.002 -0.001,0.003 0,0.002 0,0.003 0.001,0.004 0.001,0.001 0.003,0.001 0.004,0.001 0.001,0 0.003,0 0.003,-0.001 0.001,-0.001 0.002,-0.002 0.002,-0.004 0,-0.001 -0.001,-0.003 -0.002,-0.003z"/>
    <path class="fil2" d="M0.45 0.264c0.007,0 0.013,0.002 0.017,0.007 0.005,0.004 0.008,0.01 0.008,0.017 0,0.007 -0.003,0.013 -0.008,0.017 -0.004,0.005 -0.01,0.008 -0.017,0.008 -0.007,0 -0.013,-0.003 -0.017,-0.007 -0.005,-0.005 -0.008,-0.011 -0.008,-0.018 0,-0.007 0.003,-0.013 0.008,-0.017 0.004,-0.005 0.01,-0.007 0.017,-0.007zm0.004 0.021c-0.001,-0.001 -0.003,-0.002 -0.004,-0.002 -0.001,0 -0.003,0.001 -0.004,0.002 0,0 -0.001,0.002 -0.001,0.003 0,0.002 0.001,0.003 0.001,0.004 0.001,0.001 0.003,0.001 0.004,0.001 0.001,0 0.003,0 0.004,-0.001 0.001,-0.001 0.001,-0.002 0.001,-0.004 0,-0.001 0,-0.003 -0.001,-0.003z"/>
   </g>
  </g>
 </g>
</svg>
