<?xml version="1.0" encoding="UTF-8"?>
<!DOCTYPE svg PUBLIC "-//W3C//DTD SVG 1.1//EN" "http://www.w3.org/Graphics/SVG/1.1/DTD/svg11.dtd">
<!-- Creator: CorelDRAW 2018 (64-Bit) -->
<svg xmlns="http://www.w3.org/2000/svg" xml:space="preserve" width="11px" height="11px" version="1.1" style="shape-rendering:geometricPrecision; text-rendering:geometricPrecision; image-rendering:optimizeQuality; fill-rule:evenodd; clip-rule:evenodd"
viewBox="0 0 0.065 0.065"
 xmlns:xlink="http://www.w3.org/1999/xlink">
 <defs>
  <style type="text/css">
   <![CDATA[
    .fil0 {fill:#00F4FF;fill-rule:nonzero}
   ]]>
  </style>
 </defs>
 <g id="Layer_x0020_1">
  <metadata id="CorelCorpID_0Corel-Layer"/>
  <path class="fil0" d="M0.006 0.038c-0.003,0 -0.006,-0.002 -0.006,-0.006 0,-0.003 0.003,-0.005 0.006,-0.005l0.021 0 0 -0.021c0,-0.003 0.002,-0.006 0.005,-0.006 0.004,0 0.006,0.003 0.006,0.006l0 0.021 0.021 0c0.003,0 0.006,0.002 0.006,0.005 0,0.004 -0.003,0.006 -0.006,0.006l-0.021 0 0 0.021c0,0.003 -0.002,0.006 -0.006,0.006 -0.003,0 -0.005,-0.003 -0.005,-0.006l0 -0.021 -0.021 0z"/>
 </g>
</svg>
