<?xml version="1.0" encoding="UTF-8"?>
<!DOCTYPE svg PUBLIC "-//W3C//DTD SVG 1.1//EN" "http://www.w3.org/Graphics/SVG/1.1/DTD/svg11.dtd">
<!-- Creator: CorelDRAW 2018 (64-Bit) -->
<svg xmlns="http://www.w3.org/2000/svg" xml:space="preserve" width="24px" height="24px" version="1.1" style="shape-rendering:geometricPrecision; text-rendering:geometricPrecision; image-rendering:optimizeQuality; fill-rule:evenodd; clip-rule:evenodd"
viewBox="0 0 0.561 0.561"
 xmlns:xlink="http://www.w3.org/1999/xlink">
 <defs>
  <style type="text/css">
   <![CDATA[
    .fil0 {fill:none}
    .fil1 {fill:gray;fill-rule:nonzero}
   ]]>
  </style>
 </defs>
 <g id="Layer_x0020_1">
  <metadata id="CorelCorpID_0Corel-Layer"/>
  <g id="_2414956275296">
   <rect class="fil0" width="0.561" height="0.561"/>
   <g>
    <path class="fil1" d="M0.179 0.402c0.005,0.004 0.005,0.011 0.001,0.016 -0.004,0.005 -0.011,0.006 -0.016,0.002 -0.021,-0.018 -0.037,-0.039 -0.048,-0.063 -0.011,-0.023 -0.017,-0.05 -0.017,-0.076 0,-0.047 0.018,-0.091 0.048,-0.123 0.029,-0.032 0.071,-0.054 0.118,-0.058 0.006,-0.001 0.012,0.004 0.012,0.01 0.001,0.007 -0.004,0.012 -0.01,0.013 -0.041,0.004 -0.077,0.022 -0.103,0.051 -0.026,0.028 -0.042,0.066 -0.042,0.107 0,0.023 0.006,0.046 0.015,0.066 0.01,0.021 0.024,0.04 0.042,0.055zm0.203 -0.243c-0.005,-0.004 -0.005,-0.011 -0.001,-0.016 0.004,-0.005 0.011,-0.006 0.016,-0.002 0.021,0.018 0.037,0.039 0.048,0.063 0.011,0.024 0.017,0.05 0.017,0.077 0,0.047 -0.018,0.09 -0.048,0.122 -0.029,0.033 -0.071,0.054 -0.118,0.058 -0.006,0.001 -0.012,-0.004 -0.012,-0.01 -0.001,-0.007 0.004,-0.012 0.01,-0.013 0.041,-0.003 0.077,-0.022 0.103,-0.05 0.026,-0.029 0.042,-0.066 0.042,-0.107 0,-0.024 -0.005,-0.047 -0.015,-0.067 -0.01,-0.021 -0.024,-0.04 -0.042,-0.055z"/>
    <path class="fil1" d="M0.289 0.501l-0.071 -0.041c-0.005,-0.003 -0.007,-0.01 -0.004,-0.016 0.001,-0.002 0.003,-0.003 0.004,-0.004l0.072 -0.041c0.005,-0.004 0.012,-0.002 0.015,0.004 0.002,0.002 0.002,0.004 0.002,0.006l0 0.082c0,0.006 -0.005,0.012 -0.012,0.012 -0.002,0 -0.004,-0.001 -0.006,-0.002zm-0.042 -0.051l0.037 0.021 0 -0.042 -0.037 0.021z"/>
    <path class="fil1" d="M0.277 0.132l0.037 -0.021 -0.037 -0.021 0 0.042zm0.066 -0.011l-0.071 0.041c-0.002,0.001 -0.004,0.002 -0.006,0.002 -0.007,0 -0.012,-0.005 -0.012,-0.011l0 -0.083c0,-0.002 0.001,-0.004 0.002,-0.006 0.003,-0.005 0.01,-0.007 0.016,-0.004l0.07 0.041c0.002,0.001 0.004,0.002 0.005,0.004 0.003,0.006 0.002,0.013 -0.004,0.016z"/>
   </g>
  </g>
 </g>
</svg>
