<?xml version="1.0" encoding="UTF-8"?>
<!DOCTYPE svg PUBLIC "-//W3C//DTD SVG 1.1//EN" "http://www.w3.org/Graphics/SVG/1.1/DTD/svg11.dtd">
<!-- Creator: CorelDRAW 2018 (64-Bit) -->
<svg xmlns="http://www.w3.org/2000/svg" xml:space="preserve" width="24px" height="24px" version="1.1" style="shape-rendering:geometricPrecision; text-rendering:geometricPrecision; image-rendering:optimizeQuality; fill-rule:evenodd; clip-rule:evenodd"
viewBox="0 0 0.615 0.615"
 xmlns:xlink="http://www.w3.org/1999/xlink">
 <defs>
  <style type="text/css">
   <![CDATA[
    .fil0 {fill:none}
    .fil1 {fill:gray;fill-rule:nonzero}
   ]]>
  </style>
 </defs>
 <g id="Layer_x0020_1">
  <metadata id="CorelCorpID_0Corel-Layer"/>
  <g id="_2414988517552">
   <rect class="fil0" width="0.615" height="0.615"/>
   <path class="fil1" d="M0.152 0.384c0.003,0.006 0,0.014 -0.006,0.017 -0.006,0.003 -0.014,0.001 -0.017,-0.006 -0.007,-0.013 -0.012,-0.028 -0.015,-0.042 -0.004,-0.015 -0.005,-0.03 -0.005,-0.045 0,-0.052 0.019,-0.099 0.052,-0.135 0.032,-0.035 0.078,-0.059 0.129,-0.064 0.007,0 0.014,0.005 0.014,0.012 0.001,0.007 -0.004,0.013 -0.012,0.014 -0.044,0.004 -0.084,0.024 -0.112,0.055 -0.029,0.031 -0.046,0.073 -0.046,0.118 0,0.013 0.002,0.026 0.005,0.039 0.003,0.013 0.007,0.025 0.013,0.037zm0.309 -0.157c-0.003,-0.007 -0.001,-0.014 0.005,-0.018 0.007,-0.003 0.014,-0.001 0.018,0.006 0.007,0.014 0.013,0.029 0.017,0.045 0.004,0.015 0.006,0.031 0.006,0.048 0,0.051 -0.02,0.098 -0.053,0.134 -0.032,0.036 -0.078,0.059 -0.129,0.064 -0.007,0.001 -0.013,-0.005 -0.014,-0.012 -0.001,-0.007 0.005,-0.013 0.012,-0.014 0.045,-0.004 0.084,-0.024 0.113,-0.055 0.028,-0.031 0.045,-0.072 0.045,-0.117 0,-0.015 -0.002,-0.029 -0.005,-0.042 -0.003,-0.014 -0.008,-0.027 -0.015,-0.039z"/>
   <path class="fil1" d="M0.316 0.549l-0.077 -0.045c-0.006,-0.003 -0.008,-0.011 -0.004,-0.017 0.001,-0.002 0.002,-0.004 0.004,-0.005l0.078 -0.045c0.007,-0.004 0.014,-0.001 0.018,0.005 0.001,0.002 0.002,0.004 0.002,0.006l0 0.09c0,0.007 -0.006,0.013 -0.013,0.013 -0.003,0 -0.006,-0.001 -0.008,-0.002zm-0.045 -0.056l0.04 0.023 0 -0.046 -0.04 0.023z"/>
   <path class="fil1" d="M0.304 0.145l0.04 -0.023 -0.04 -0.023 0 0.046zm0.072 -0.012l-0.077 0.045c-0.002,0.001 -0.005,0.002 -0.008,0.002 -0.007,0 -0.012,-0.006 -0.012,-0.013l0 -0.09c0,-0.002 0,-0.004 0.001,-0.006 0.004,-0.007 0.012,-0.009 0.018,-0.005l0.078 0.045c0.002,0.001 0.003,0.003 0.005,0.005 0.003,0.006 0.001,0.014 -0.005,0.017z"/>
   <path class="fil1" d="M0.51 0.087c0.005,-0.005 0.013,-0.005 0.018,0 0.005,0.005 0.005,0.013 0,0.018l-0.423 0.423c-0.005,0.005 -0.013,0.005 -0.018,0 -0.005,-0.005 -0.005,-0.013 0,-0.018l0.423 -0.423z"/>
  </g>
 </g>
</svg>
