<?xml version="1.0" encoding="UTF-8"?>
<!DOCTYPE svg PUBLIC "-//W3C//DTD SVG 1.1//EN" "http://www.w3.org/Graphics/SVG/1.1/DTD/svg11.dtd">
<!-- Creator: CorelDRAW 2018 (64-Bit) -->
<svg xmlns="http://www.w3.org/2000/svg" xml:space="preserve" width="17px" height="13px" version="1.1" style="shape-rendering:geometricPrecision; text-rendering:geometricPrecision; image-rendering:optimizeQuality; fill-rule:evenodd; clip-rule:evenodd"
viewBox="0 0 2.082 1.588"
 xmlns:xlink="http://www.w3.org/1999/xlink">
 <defs>
  <style type="text/css">
   <![CDATA[
    .fil0 {fill:#052337;fill-rule:nonzero}
   ]]>
  </style>
 </defs>
 <g id="Layer_x0020_1">
  <metadata id="CorelCorpID_0Corel-Layer"/>
  <path class="fil0" d="M0.945 0.876c-0.023,0.024 -0.062,0.024 -0.086,0 -0.024,-0.024 -0.024,-0.063 0,-0.087l0.746 -0.746c0.031,-0.028 0.071,-0.043 0.111,-0.043 0.041,0 0.083,0.016 0.114,0.047l0.205 0.205c0.031,0.031 0.047,0.073 0.047,0.114 0,0.042 -0.016,0.083 -0.047,0.115l-1.09 1.089c-0.023,0.024 -0.062,0.024 -0.086,0l-0.816 -0.816c-0.028,-0.031 -0.043,-0.071 -0.043,-0.11 0,-0.042 0.016,-0.083 0.047,-0.114l0.205 -0.205c0.031,-0.032 0.073,-0.047 0.114,-0.047 0.042,0 0.083,0.015 0.115,0.047l0.236 0.236c0.024,0.024 0.024,0.062 0,0.086 -0.024,0.024 -0.063,0.024 -0.087,0l-0.236 -0.236c-0.007,-0.007 -0.017,-0.011 -0.028,-0.011 -0.01,0 -0.02,0.004 -0.028,0.011l-0.204 0.205c-0.008,0.007 -0.012,0.017 -0.012,0.028 0,0.009 0.003,0.019 0.01,0.026l0.77 0.77 1.046 -1.046c0.008,-0.007 0.012,-0.017 0.012,-0.028 0,-0.01 -0.004,-0.02 -0.012,-0.028l-0.204 -0.204c-0.008,-0.008 -0.018,-0.012 -0.028,-0.012 -0.01,0 -0.019,0.003 -0.027,0.01l-0.744 0.744z"/>
 </g>
</svg>
