<?xml version="1.0" encoding="UTF-8"?>
<!DOCTYPE svg PUBLIC "-//W3C//DTD SVG 1.1//EN" "http://www.w3.org/Graphics/SVG/1.1/DTD/svg11.dtd">
<!-- Creator: CorelDRAW 2018 (64-Bit) -->
<svg xmlns="http://www.w3.org/2000/svg" xml:space="preserve" width="12px" height="15px" version="1.1" style="shape-rendering:geometricPrecision; text-rendering:geometricPrecision; image-rendering:optimizeQuality; fill-rule:evenodd; clip-rule:evenodd"
viewBox="0 0 0.968 1.188"
 xmlns:xlink="http://www.w3.org/1999/xlink">
 <defs>
  <style type="text/css">
   <![CDATA[
    .fil0 {fill:#052337;fill-rule:nonzero}
   ]]>
  </style>
 </defs>
 <g id="Layer_x0020_1">
  <metadata id="CorelCorpID_0Corel-Layer"/>
  <g id="_2414305719008">
   <path class="fil0" d="M0.205 0.502l0.558 0c0.057,0 0.108,0.023 0.145,0.06 0.037,0.037 0.06,0.088 0.06,0.145l0 0.441c0,0.022 -0.018,0.04 -0.039,0.04l-0.889 0c-0.022,0 -0.04,-0.018 -0.04,-0.04l0 -0.441c0,-0.057 0.023,-0.108 0.06,-0.145 0.037,-0.037 0.089,-0.06 0.145,-0.06zm0.558 0.079l-0.558 0c-0.035,0 -0.066,0.014 -0.089,0.037 -0.023,0.023 -0.037,0.054 -0.037,0.089l0 0.402 0.81 0 0 -0.402c0,-0.035 -0.014,-0.066 -0.037,-0.089 -0.023,-0.023 -0.054,-0.037 -0.089,-0.037z"/>
   <path class="fil0" d="M0.071 0.799c-0.015,0.016 -0.041,0.016 -0.056,0 -0.015,-0.016 -0.015,-0.041 0.001,-0.056 0.011,-0.011 0.024,-0.021 0.041,-0.029 0.016,-0.008 0.035,-0.012 0.059,-0.012 0.066,0 0.094,0.033 0.122,0.065 0.016,0.02 0.033,0.039 0.062,0.038l0.001 0c0.03,0.001 0.046,-0.018 0.063,-0.038 0.028,-0.032 0.056,-0.065 0.122,-0.065l0 0c0.066,0 0.094,0.033 0.122,0.065 0.016,0.02 0.033,0.039 0.062,0.038l0.001 0c0.03,0.001 0.046,-0.018 0.063,-0.038 0.028,-0.032 0.056,-0.065 0.122,-0.065 0.023,0 0.042,0.004 0.059,0.012 0.016,0.008 0.029,0.018 0.041,0.029 0.015,0.015 0.016,0.04 0,0.056 -0.015,0.015 -0.04,0.016 -0.056,0.001 -0.005,-0.006 -0.012,-0.011 -0.018,-0.014 -0.007,-0.003 -0.016,-0.005 -0.026,-0.005l0 0c-0.03,0 -0.046,0.019 -0.062,0.038 -0.029,0.033 -0.057,0.066 -0.123,0.065 -0.067,0.001 -0.095,-0.032 -0.123,-0.065 -0.016,-0.019 -0.033,-0.038 -0.062,-0.038l0 0c-0.03,0 -0.046,0.019 -0.062,0.038 -0.029,0.033 -0.057,0.066 -0.123,0.065 -0.067,0.001 -0.095,-0.032 -0.123,-0.065 -0.017,-0.019 -0.033,-0.038 -0.062,-0.038l-0.001 0c-0.01,0 -0.018,0.002 -0.025,0.005 -0.007,0.003 -0.013,0.008 -0.019,0.013z"/>
   <path class="fil0" d="M0.435 0.064c0.01,-0.013 0.02,-0.027 0.028,-0.043 0.004,-0.007 0.009,-0.012 0.017,-0.016 0.019,-0.011 0.043,-0.003 0.053,0.016 0.008,0.015 0.018,0.029 0.028,0.043 0.021,0.03 0.039,0.056 0.039,0.09 0,0.029 -0.011,0.054 -0.03,0.073 -0.018,0.018 -0.044,0.03 -0.072,0.03 -0.028,0 -0.054,-0.012 -0.072,-0.03 -0.019,-0.019 -0.03,-0.044 -0.03,-0.073 0,-0.034 0.018,-0.06 0.039,-0.09zm0.063 0.048c-0.013,0.018 -0.023,0.033 -0.023,0.042 0,0.007 0.003,0.013 0.007,0.017 0.004,0.004 0.01,0.006 0.016,0.006 0.007,0 0.012,-0.002 0.016,-0.006 0.005,-0.004 0.007,-0.01 0.007,-0.017 0,-0.009 -0.01,-0.024 -0.023,-0.042z"/>
   <path class="fil0" d="M0.435 0.267l0.126 0c0.022,0 0.04,0.017 0.04,0.039l0 0.235c0,0.022 -0.018,0.04 -0.04,0.04l-0.126 0c-0.022,0 -0.039,-0.018 -0.039,-0.04l0 -0.235c0,-0.022 0.017,-0.039 0.039,-0.039zm0.086 0.079l-0.046 0 0 0.156 0.046 0 0 -0.156z"/>
  </g>
 </g>
</svg>
