<?xml version="1.0" encoding="UTF-8"?>
<!DOCTYPE svg PUBLIC "-//W3C//DTD SVG 1.1//EN" "http://www.w3.org/Graphics/SVG/1.1/DTD/svg11.dtd">
<!-- Creator: CorelDRAW 2018 (64-Bit) -->
<svg xmlns="http://www.w3.org/2000/svg" xml:space="preserve" width="24px" height="24px" version="1.1" style="shape-rendering:geometricPrecision; text-rendering:geometricPrecision; image-rendering:optimizeQuality; fill-rule:evenodd; clip-rule:evenodd"
viewBox="0 0 0.368 0.368"
 xmlns:xlink="http://www.w3.org/1999/xlink">
 <defs>
  <style type="text/css">
   <![CDATA[
    .fil0 {fill:none}
    .fil2 {fill:gray}
    .fil1 {fill:gray;fill-rule:nonzero}
   ]]>
  </style>
 </defs>
 <g id="Layer_x0020_1">
  <metadata id="CorelCorpID_0Corel-Layer"/>
  <g id="_2379162124864">
   <rect class="fil0" width="0.368" height="0.368"/>
   <g>
    <path class="fil1" d="M0.184 0.038c0.044,0 0.085,0.014 0.114,0.036 0.03,0.023 0.048,0.055 0.048,0.09 0,0.02 -0.006,0.039 -0.016,0.056 -0.011,0.016 -0.025,0.03 -0.043,0.041l0.005 0.06c0.001,0.005 -0.002,0.008 -0.007,0.009 -0.002,0 -0.004,-0.001 -0.006,-0.003l-0.044 -0.044c-0.007,0.002 -0.015,0.004 -0.023,0.005 -0.009,0.001 -0.018,0.002 -0.028,0.002 -0.044,0 -0.085,-0.014 -0.114,-0.037 -0.03,-0.022 -0.048,-0.054 -0.048,-0.089 0,-0.035 0.018,-0.067 0.048,-0.09 0.029,-0.022 0.07,-0.036 0.114,-0.036zm0.105 0.049c-0.027,-0.021 -0.064,-0.033 -0.105,-0.033 -0.041,0 -0.078,0.012 -0.105,0.033 -0.026,0.02 -0.042,0.047 -0.042,0.077 0,0.03 0.016,0.057 0.042,0.077 0.027,0.021 0.064,0.033 0.105,0.033 0.009,0 0.018,0 0.026,-0.002 0.009,-0.001 0.017,-0.002 0.025,-0.005 0.002,-0.001 0.006,0 0.008,0.002l0.032 0.033 -0.003 -0.045c0,-0.002 0.001,-0.005 0.004,-0.007 0.017,-0.01 0.031,-0.024 0.041,-0.039 0.009,-0.014 0.014,-0.03 0.014,-0.047 0,-0.03 -0.016,-0.057 -0.042,-0.077z"/>
    <path class="fil2" d="M0.186 0.22c0.007,0 0.012,0.006 0.012,0.013 0,0.007 -0.005,0.013 -0.012,0.013 -0.007,0 -0.013,-0.006 -0.013,-0.013 0,-0.007 0.006,-0.013 0.013,-0.013z"/>
    <path class="fil1" d="M0.154 0.134c0,0.004 -0.003,0.008 -0.007,0.008 -0.005,0 -0.008,-0.004 -0.008,-0.008 0,-0.012 0.005,-0.024 0.013,-0.032 0.008,-0.008 0.02,-0.013 0.032,-0.013 0.013,0 0.024,0.005 0.032,0.013 0.008,0.008 0.013,0.02 0.013,0.032 0,0.018 -0.009,0.027 -0.019,0.036 -0.008,0.008 -0.017,0.016 -0.017,0.031 0,0.004 -0.003,0.007 -0.007,0.007 -0.005,0 -0.008,-0.003 -0.008,-0.007 0,-0.022 0.011,-0.032 0.021,-0.042 0.008,-0.007 0.015,-0.014 0.015,-0.025 0,-0.008 -0.003,-0.016 -0.009,-0.021 -0.005,-0.005 -0.013,-0.009 -0.021,-0.009 -0.008,0 -0.016,0.004 -0.021,0.009 -0.005,0.005 -0.009,0.013 -0.009,0.021z"/>
   </g>
  </g>
 </g>
</svg>
