<?xml version="1.0" encoding="UTF-8"?>
<!DOCTYPE svg PUBLIC "-//W3C//DTD SVG 1.1//EN" "http://www.w3.org/Graphics/SVG/1.1/DTD/svg11.dtd">
<!-- Creator: CorelDRAW 2018 (64-Bit) -->
<svg xmlns="http://www.w3.org/2000/svg" xml:space="preserve" width="21px" height="19px" version="1.1" style="shape-rendering:geometricPrecision; text-rendering:geometricPrecision; image-rendering:optimizeQuality; fill-rule:evenodd; clip-rule:evenodd"
viewBox="0 0 1.219 1.129"
 xmlns:xlink="http://www.w3.org/1999/xlink">
 <defs>
  <style type="text/css">
   <![CDATA[
    .fil0 {fill:#00F4FF}
    .fil2 {fill:white}
    .fil1 {fill:#052337;fill-rule:nonzero}
   ]]>
  </style>
 </defs>
 <g id="Layer_x0020_1">
  <metadata id="CorelCorpID_0Corel-Layer"/>
  <g id="_2081094341536">
   <path class="fil0" d="M0.132 0.221l0.955 0c0.057,0 0.103,0.047 0.103,0.103l0 0.672c0,0.057 -0.046,0.104 -0.103,0.104l-0.955 0c-0.057,0 -0.103,-0.047 -0.103,-0.104l0 -0.672c0,-0.056 0.046,-0.103 0.103,-0.103z"/>
   <path class="fil1" d="M0.132 0.192l0.955 0c0.036,0 0.069,0.015 0.093,0.039 0.024,0.024 0.039,0.057 0.039,0.093l0 0.672c0,0.037 -0.015,0.07 -0.039,0.094 -0.024,0.024 -0.057,0.039 -0.093,0.039l-0.955 0c-0.036,0 -0.069,-0.015 -0.093,-0.039 -0.024,-0.024 -0.039,-0.057 -0.039,-0.094l0 -0.672c0,-0.036 0.015,-0.069 0.039,-0.093l0.002 -0.002c0.023,-0.023 0.056,-0.037 0.091,-0.037zm0.955 0.058l-0.955 0c-0.02,0 -0.038,0.008 -0.051,0.021l-0.001 0.001c-0.014,0.013 -0.022,0.032 -0.022,0.052l0 0.672c0,0.021 0.008,0.039 0.022,0.053 0.013,0.013 0.032,0.022 0.052,0.022l0.955 0c0.02,0 0.039,-0.009 0.052,-0.022 0.014,-0.014 0.022,-0.032 0.022,-0.053l0 -0.672c0,-0.02 -0.008,-0.039 -0.022,-0.052 -0.013,-0.013 -0.032,-0.022 -0.052,-0.022z"/>
   <path class="fil1" d="M0.018 0.475c-0.015,-0.006 -0.022,-0.023 -0.016,-0.038 0.006,-0.015 0.023,-0.022 0.038,-0.016 0.168,0.069 0.289,0.116 0.445,0.176l0.03 0.012c0.028,0.012 0.053,0.022 0.095,0.022 0.041,0 0.066,-0.01 0.095,-0.022l0.02 -0.008c0.078,-0.03 0.149,-0.058 0.221,-0.087 0.072,-0.029 0.146,-0.059 0.234,-0.093 0.015,-0.006 0.031,0.002 0.037,0.017 0.006,0.015 -0.002,0.031 -0.016,0.037 -0.086,0.033 -0.161,0.063 -0.234,0.093 -0.071,0.028 -0.14,0.056 -0.221,0.087l-0.019 0.008c-0.035,0.014 -0.065,0.026 -0.117,0.026 -0.052,0 -0.083,-0.012 -0.117,-0.026l-0.029 -0.012c-0.156,-0.06 -0.277,-0.107 -0.446,-0.176z"/>
   <polygon class="fil2" points="0.737,0.634 0.737,0.797 0.482,0.797 0.482,0.634 0.601,0.611 "/>
   <path class="fil1" d="M0.766 0.634l0 0.163c0,0.016 -0.013,0.029 -0.029,0.029l-0.255 0c-0.016,0 -0.029,-0.013 -0.029,-0.029l0 -0.163c0,-0.015 0.011,-0.027 0.026,-0.029l0.117 -0.022c0.003,-0.001 0.007,-0.001 0.01,0l0.136 0.022c0.014,0.003 0.024,0.015 0.024,0.029zm-0.058 0.134l0 -0.11 -0.107 -0.017 -0.09 0.017 0 0.11 0.197 0z"/>
   <path class="fil1" d="M0.385 0.153c0,0.016 -0.013,0.029 -0.029,0.029 -0.016,0 -0.029,-0.013 -0.029,-0.029 0,-0.042 0.017,-0.08 0.045,-0.108 0.027,-0.028 0.066,-0.045 0.108,-0.045l0.259 0c0.042,0 0.081,0.017 0.108,0.045 0.028,0.028 0.045,0.066 0.045,0.108 0,0.016 -0.013,0.029 -0.029,0.029 -0.016,0 -0.029,-0.013 -0.029,-0.029 0,-0.026 -0.01,-0.05 -0.028,-0.067 -0.017,-0.017 -0.041,-0.028 -0.067,-0.028l-0.259 0c-0.026,0 -0.05,0.011 -0.067,0.028 -0.018,0.017 -0.028,0.041 -0.028,0.067z"/>
   <path class="fil2" d="M1.19 0.448l0 -0.124c0,-0.056 -0.046,-0.103 -0.103,-0.103l-0.955 0c-0.057,0 -0.103,0.047 -0.103,0.103l0 0.124c0.172,0.071 0.294,0.118 0.455,0.18 0.018,0.007 0.033,0.014 0.05,0.02l0.032 0.009c0.013,0.002 0.027,0.003 0.044,0.003 0.014,0 0.027,-0.001 0.038,-0.003l0.041 -0.01c0.015,-0.006 0.03,-0.012 0.046,-0.019 0.161,-0.062 0.283,-0.113 0.455,-0.18z"/>
   <path class="fil1" d="M1.161 0.428l0 -0.104c0,-0.02 -0.008,-0.039 -0.022,-0.052 -0.013,-0.013 -0.032,-0.022 -0.052,-0.022l-0.955 0c-0.02,0 -0.039,0.009 -0.052,0.022 -0.014,0.013 -0.022,0.032 -0.022,0.052l0 0.105c0.159,0.065 0.276,0.11 0.427,0.169l0.03 0.011c0.009,0.004 0.018,0.008 0.026,0.011l0.032 0.008c0.006,0.001 0.011,0.002 0.016,0.003 0.006,0 0.012,0 0.021,0 0.006,0 0.012,0 0.018,0 0.005,-0.001 0.01,-0.001 0.014,-0.002l0.039 -0.01c0.008,-0.003 0.015,-0.006 0.023,-0.01l0.021 -0.008c0.078,-0.03 0.148,-0.058 0.219,-0.086 0.068,-0.028 0.136,-0.055 0.217,-0.087zm0.058 -0.104l0 0.144 -0.018 0.007c-0.087,0.034 -0.162,0.064 -0.236,0.093 -0.07,0.028 -0.139,0.056 -0.219,0.087l-0.02 0.008c-0.009,0.004 -0.018,0.008 -0.028,0.011 -0.013,0.004 -0.032,0.009 -0.045,0.012 -0.007,0.001 -0.014,0.002 -0.021,0.003 -0.007,0 -0.015,0 -0.022,0 -0.009,0 -0.017,0 -0.026,-0.001 -0.008,-0.001 -0.016,-0.002 -0.023,-0.003 -0.01,-0.002 -0.027,-0.006 -0.037,-0.01 -0.011,-0.004 -0.021,-0.008 -0.031,-0.012l-0.029 -0.011c-0.156,-0.061 -0.277,-0.108 -0.446,-0.177l-0.018 -0.007 0 -0.144c0,-0.036 0.015,-0.069 0.039,-0.093 0.024,-0.024 0.057,-0.039 0.093,-0.039l0.955 0c0.036,0 0.069,0.015 0.093,0.039 0.024,0.024 0.039,0.057 0.039,0.093z"/>
  </g>
 </g>
</svg>
