<?xml version="1.0" encoding="UTF-8"?>
<!DOCTYPE svg PUBLIC "-//W3C//DTD SVG 1.1//EN" "http://www.w3.org/Graphics/SVG/1.1/DTD/svg11.dtd">
<!-- Creator: CorelDRAW 2018 (64-Bit) -->
<svg xmlns="http://www.w3.org/2000/svg" xml:space="preserve" width="24px" height="24px" version="1.1" style="shape-rendering:geometricPrecision; text-rendering:geometricPrecision; image-rendering:optimizeQuality; fill-rule:evenodd; clip-rule:evenodd"
viewBox="0 0 0.368 0.368"
 xmlns:xlink="http://www.w3.org/1999/xlink">
 <defs>
  <style type="text/css">
   <![CDATA[
    .fil0 {fill:none}
    .fil1 {fill:gray;fill-rule:nonzero}
    .fil2 {fill:gray;fill-rule:nonzero}
   ]]>
  </style>
 </defs>
 <g id="Layer_x0020_1">
  <metadata id="CorelCorpID_0Corel-Layer"/>
  <g id="_2415128969952">
   <rect class="fil0" width="0.368" height="0.368"/>
   <g>
    <path class="fil1" d="M0.096 0.062c0.004,0 0.007,0.003 0.007,0.007 0,0.005 -0.003,0.008 -0.007,0.008l-0.044 0 -0.001 0 0 0 0 0.24 0 0.001 0.001 0 0.209 0c0.004,0 0.007,0.003 0.007,0.007 0,0.005 -0.003,0.008 -0.007,0.008l-0.209 0c-0.005,0 -0.009,-0.002 -0.011,-0.005 -0.003,-0.002 -0.005,-0.006 -0.005,-0.011l0 -0.24c0,-0.004 0.002,-0.008 0.005,-0.011 0.002,-0.003 0.006,-0.004 0.011,-0.004l0.044 0zm0.236 0.2c0,0.004 -0.003,0.007 -0.008,0.007 -0.004,0 -0.007,-0.003 -0.007,-0.007l0 -0.185 0 0 0 0 -0.044 0c-0.005,0 -0.008,-0.003 -0.008,-0.008 0,-0.004 0.003,-0.007 0.008,-0.007l0.044 0c0.004,0 0.008,0.001 0.011,0.004l0 0c0.002,0.003 0.004,0.007 0.004,0.011l0 0.185z"/>
    <path class="fil1" d="M0.306 0.269l-0.037 0 0 0 -0.001 0.001 0 0.037 0.038 -0.038zm-0.037 -0.015l0.055 0c0.002,0 0.004,0.001 0.006,0.002 0.003,0.003 0.003,0.008 0,0.011l-0.064 0.064c-0.001,0.001 -0.003,0.002 -0.005,0.002 -0.004,0 -0.008,-0.003 -0.008,-0.008l0 -0.055c0,-0.005 0.002,-0.009 0.005,-0.011 0.003,-0.003 0.006,-0.005 0.011,-0.005z"/>
    <path class="fil1" d="M0.242 0.062c0.004,0 0.008,0.003 0.008,0.007 0,0.005 -0.004,0.008 -0.008,0.008l-0.116 0c-0.004,0 -0.007,-0.003 -0.007,-0.008 0,-0.004 0.003,-0.007 0.007,-0.007l0.116 0z"/>
    <path class="fil1" d="M0.11 0.05c-0.002,0 -0.003,0.001 -0.004,0.002 -0.001,0.001 -0.001,0.002 -0.001,0.003l0 0.028c0,0.001 0,0.003 0.001,0.004 0.001,0.001 0.002,0.001 0.004,0.001 0.001,0 0.002,0 0.003,-0.001l0 -0.001c0.001,0 0.002,-0.002 0.002,-0.003l0 -0.028c0,-0.001 -0.001,-0.002 -0.002,-0.003 -0.001,-0.001 -0.002,-0.002 -0.003,-0.002zm0 -0.015c0.005,0 0.01,0.002 0.014,0.006l0 0c0.004,0.004 0.006,0.009 0.006,0.014l0 0.028c0,0.005 -0.002,0.01 -0.006,0.014l0 0c-0.004,0.004 -0.009,0.006 -0.014,0.006 -0.006,0 -0.011,-0.002 -0.015,-0.006 -0.004,-0.003 -0.006,-0.008 -0.006,-0.014l0 -0.028c0,-0.005 0.002,-0.01 0.006,-0.014 0.004,-0.004 0.009,-0.006 0.015,-0.006z"/>
    <path class="fil1" d="M0.259 0.05c-0.002,0 -0.003,0.001 -0.004,0.002 -0.001,0.001 -0.002,0.002 -0.002,0.003l0 0.028c0,0.001 0.001,0.003 0.002,0.004 0.001,0.001 0.002,0.001 0.004,0.001 0.001,0 0.002,0 0.003,-0.001l0 -0.001c0.001,0 0.002,-0.002 0.002,-0.003l0 -0.028c0,-0.001 -0.001,-0.002 -0.002,-0.003 -0.001,-0.001 -0.002,-0.002 -0.003,-0.002zm0 -0.015c0.005,0 0.01,0.002 0.014,0.006l0 0c0.004,0.004 0.006,0.009 0.006,0.014l0 0.028c0,0.005 -0.002,0.01 -0.006,0.014l0 0c-0.004,0.004 -0.009,0.006 -0.014,0.006 -0.006,0 -0.011,-0.002 -0.015,-0.006 -0.004,-0.003 -0.006,-0.008 -0.006,-0.014l0 -0.028c0,-0.005 0.002,-0.01 0.006,-0.014 0.004,-0.004 0.009,-0.006 0.015,-0.006z"/>
    <path class="fil2" d="M0.086 0.237l0 -0.016c0.006,0.004 0.012,0.006 0.02,0.006 0.005,0 0.009,-0.001 0.011,-0.003 0.003,-0.002 0.004,-0.005 0.004,-0.009 0,-0.003 -0.001,-0.006 -0.005,-0.008 -0.003,-0.003 -0.007,-0.004 -0.013,-0.004l-0.008 0 0 -0.014 0.007 0c0.011,0 0.017,-0.004 0.017,-0.011 0,-0.007 -0.004,-0.011 -0.013,-0.011 -0.006,0 -0.011,0.002 -0.017,0.006l0 -0.016c0.006,-0.003 0.013,-0.004 0.021,-0.004 0.009,0 0.016,0.002 0.021,0.006 0.005,0.004 0.007,0.009 0.007,0.015 0,0.011 -0.006,0.018 -0.017,0.021l0 0.001c0.006,0 0.011,0.003 0.014,0.006 0.004,0.004 0.006,0.008 0.006,0.014 0,0.008 -0.003,0.014 -0.009,0.019 -0.006,0.004 -0.014,0.007 -0.024,0.007 -0.009,0 -0.016,-0.002 -0.022,-0.005zm0.122 -0.082l0 0.016c-0.004,-0.002 -0.009,-0.004 -0.014,-0.004 -0.006,0 -0.012,0.003 -0.016,0.008 -0.003,0.004 -0.005,0.011 -0.006,0.019l0.001 0c0.004,-0.006 0.01,-0.009 0.018,-0.009 0.007,0 0.013,0.002 0.017,0.007 0.004,0.005 0.006,0.012 0.006,0.02 0,0.008 -0.003,0.015 -0.008,0.021 -0.006,0.006 -0.013,0.009 -0.021,0.009 -0.01,0 -0.018,-0.004 -0.023,-0.011 -0.006,-0.007 -0.008,-0.017 -0.008,-0.029 0,-0.015 0.003,-0.027 0.01,-0.036 0.007,-0.009 0.017,-0.013 0.029,-0.013 0.006,0 0.011,0.001 0.015,0.002zm-0.024 0.044c-0.003,0 -0.006,0.001 -0.008,0.004 -0.002,0.002 -0.003,0.005 -0.003,0.009 0,0.004 0.001,0.008 0.003,0.011 0.002,0.003 0.005,0.004 0.009,0.004 0.003,0 0.006,-0.001 0.008,-0.004 0.002,-0.002 0.003,-0.006 0.003,-0.01 0,-0.009 -0.004,-0.014 -0.012,-0.014zm0.044 0.039l0 -0.016c0.006,0.003 0.012,0.005 0.019,0.005 0.005,0 0.009,-0.001 0.012,-0.003 0.002,-0.003 0.004,-0.006 0.004,-0.01 0,-0.009 -0.006,-0.013 -0.018,-0.013 -0.004,0 -0.009,0.001 -0.014,0.001l0 -0.048 0.047 0 0 0.016 -0.031 0 0 0.017c0.002,0 0.005,0 0.007,0 0.009,0 0.016,0.002 0.021,0.007 0.005,0.004 0.007,0.01 0.007,0.018 0,0.009 -0.003,0.016 -0.009,0.021 -0.006,0.006 -0.014,0.009 -0.024,0.009 -0.008,0 -0.015,-0.001 -0.021,-0.004z"/>
   </g>
  </g>
 </g>
</svg>
