<?xml version="1.0" encoding="UTF-8"?>
<!DOCTYPE svg PUBLIC "-//W3C//DTD SVG 1.1//EN" "http://www.w3.org/Graphics/SVG/1.1/DTD/svg11.dtd">
<!-- Creator: CorelDRAW 2018 (64-Bit) -->
<svg xmlns="http://www.w3.org/2000/svg" xml:space="preserve" width="24px" height="24px" version="1.1" style="shape-rendering:geometricPrecision; text-rendering:geometricPrecision; image-rendering:optimizeQuality; fill-rule:evenodd; clip-rule:evenodd"
viewBox="0 0 0.368 0.368"
 xmlns:xlink="http://www.w3.org/1999/xlink">
 <defs>
  <style type="text/css">
   <![CDATA[
    .fil0 {fill:none}
    .fil1 {fill:gray;fill-rule:nonzero}
   ]]>
  </style>
 </defs>
 <g id="Layer_x0020_1">
  <metadata id="CorelCorpID_0Corel-Layer"/>
  <g id="_2414273700416">
   <rect class="fil0" width="0.368" height="0.368"/>
   <g>
    <path class="fil1" d="M0.073 0.077l0.018 0c0.004,0 0.008,0.002 0.01,0.004 0.003,0.003 0.004,0.006 0.004,0.01l0 0.018c0,0.004 -0.001,0.007 -0.004,0.01 -0.002,0.002 -0.006,0.004 -0.01,0.004l-0.018 0c-0.004,0 -0.007,-0.002 -0.01,-0.004 -0.002,-0.003 -0.004,-0.006 -0.004,-0.01l0 -0.018c0,-0.004 0.002,-0.007 0.004,-0.01 0.003,-0.002 0.006,-0.004 0.01,-0.004zm0.017 0.015l-0.016 0 0 0.016 0.016 0 0 -0.016z"/>
    <path class="fil1" d="M0.073 0.161l0.018 0c0.004,0 0.008,0.002 0.01,0.004 0.003,0.003 0.004,0.006 0.004,0.01l0 0.018c0,0.004 -0.001,0.007 -0.004,0.01 -0.002,0.002 -0.006,0.004 -0.01,0.004l-0.018 0c-0.004,0 -0.007,-0.002 -0.01,-0.004 -0.002,-0.003 -0.004,-0.006 -0.004,-0.01l0 -0.018c0,-0.004 0.002,-0.007 0.004,-0.01 0.003,-0.002 0.006,-0.004 0.01,-0.004zm0.017 0.015l-0.016 0 0 0.016 0.016 0 0 -0.016z"/>
    <path class="fil1" d="M0.073 0.245l0.018 0c0.004,0 0.008,0.002 0.01,0.004 0.003,0.003 0.004,0.006 0.004,0.01l0 0.018c0,0.004 -0.001,0.007 -0.004,0.01 -0.002,0.003 -0.006,0.004 -0.01,0.004l-0.018 0c-0.004,0 -0.007,-0.001 -0.01,-0.004 -0.002,-0.003 -0.004,-0.006 -0.004,-0.01l0 -0.018c0,-0.004 0.002,-0.007 0.004,-0.01 0.003,-0.002 0.006,-0.004 0.01,-0.004zm0.017 0.015l-0.016 0 0 0.016 0.016 0 0 -0.016z"/>
    <path class="fil1" d="M0.142 0.077l0.153 0c0.004,0 0.007,0.002 0.01,0.004 0.002,0.003 0.004,0.006 0.004,0.01l0 0.018c0,0.004 -0.002,0.007 -0.004,0.01 -0.003,0.002 -0.006,0.004 -0.01,0.004l-0.153 0c-0.004,0 -0.007,-0.002 -0.01,-0.004 -0.002,-0.003 -0.004,-0.006 -0.004,-0.01l0 -0.018c0,-0.004 0.002,-0.007 0.004,-0.01 0.003,-0.002 0.006,-0.004 0.01,-0.004zm0.152 0.015l-0.151 0 0 0.016 0.151 0 0 -0.016z"/>
    <path class="fil1" d="M0.142 0.161l0.153 0c0.004,0 0.007,0.002 0.01,0.004 0.002,0.003 0.004,0.006 0.004,0.01l0 0.018c0,0.004 -0.002,0.007 -0.004,0.01 -0.003,0.002 -0.006,0.004 -0.01,0.004l-0.153 0c-0.004,0 -0.007,-0.002 -0.01,-0.004 -0.002,-0.003 -0.004,-0.006 -0.004,-0.01l0 -0.018c0,-0.004 0.002,-0.007 0.004,-0.01 0.003,-0.002 0.006,-0.004 0.01,-0.004zm0.152 0.015l-0.151 0 0 0.016 0.151 0 0 -0.016z"/>
    <path class="fil1" d="M0.142 0.245l0.153 0c0.004,0 0.007,0.002 0.01,0.004 0.002,0.003 0.004,0.006 0.004,0.01l0 0.018c0,0.004 -0.002,0.007 -0.004,0.01 -0.003,0.003 -0.006,0.004 -0.01,0.004l-0.153 0c-0.004,0 -0.007,-0.001 -0.01,-0.004 -0.002,-0.003 -0.004,-0.006 -0.004,-0.01l0 -0.018c0,-0.004 0.002,-0.007 0.004,-0.01 0.003,-0.002 0.006,-0.004 0.01,-0.004zm0.152 0.015l-0.151 0 0 0.016 0.151 0 0 -0.016z"/>
   </g>
  </g>
 </g>
</svg>
