<?xml version="1.0" encoding="UTF-8"?>
<!DOCTYPE svg PUBLIC "-//W3C//DTD SVG 1.1//EN" "http://www.w3.org/Graphics/SVG/1.1/DTD/svg11.dtd">
<!-- Creator: CorelDRAW 2018 (64-Bit) -->
<svg xmlns="http://www.w3.org/2000/svg" xml:space="preserve" width="24px" height="24px" version="1.1" style="shape-rendering:geometricPrecision; text-rendering:geometricPrecision; image-rendering:optimizeQuality; fill-rule:evenodd; clip-rule:evenodd"
viewBox="0 0 0.368 0.368"
 xmlns:xlink="http://www.w3.org/1999/xlink">
 <defs>
  <style type="text/css">
   <![CDATA[
    .fil0 {fill:none}
    .fil1 {fill:gray;fill-rule:nonzero}
   ]]>
  </style>
 </defs>
 <g id="Layer_x0020_1">
  <metadata id="CorelCorpID_0Corel-Layer"/>
  <g id="_2415018039232">
   <rect class="fil0" width="0.368" height="0.368"/>
   <path class="fil1" d="M0.284 0.038c0.013,0 0.024,0.005 0.032,0.014 0.009,0.008 0.014,0.019 0.014,0.032 0,0.012 -0.005,0.024 -0.014,0.032 -0.008,0.008 -0.019,0.013 -0.032,0.013 -0.012,0 -0.024,-0.005 -0.032,-0.013 -0.008,-0.008 -0.013,-0.02 -0.013,-0.032 0,-0.013 0.005,-0.024 0.013,-0.032 0.008,-0.009 0.02,-0.014 0.032,-0.014zm0.021 0.025c-0.005,-0.006 -0.013,-0.009 -0.021,-0.009 -0.008,0 -0.016,0.003 -0.021,0.008 -0.006,0.006 -0.009,0.014 -0.009,0.022 0,0.008 0.003,0.016 0.009,0.021 0.005,0.006 0.013,0.009 0.021,0.009 0.008,0 0.016,-0.003 0.021,-0.009 0.006,-0.005 0.009,-0.013 0.009,-0.021 0,-0.008 -0.003,-0.016 -0.009,-0.021z"/>
   <path class="fil1" d="M0.284 0.239c0.013,0 0.024,0.005 0.032,0.013 0.009,0.008 0.014,0.02 0.014,0.032 0,0.013 -0.005,0.024 -0.014,0.032 -0.008,0.009 -0.019,0.014 -0.032,0.014 -0.012,0 -0.024,-0.005 -0.032,-0.014 -0.008,-0.008 -0.013,-0.019 -0.013,-0.032 0,-0.012 0.005,-0.024 0.013,-0.032 0.008,-0.008 0.02,-0.013 0.032,-0.013zm0.021 0.024c-0.005,-0.006 -0.013,-0.009 -0.021,-0.009 -0.008,0 -0.016,0.003 -0.021,0.009 -0.006,0.005 -0.009,0.013 -0.009,0.021 0,0.009 0.003,0.016 0.009,0.022 0.005,0.005 0.013,0.008 0.021,0.008 0.008,0 0.016,-0.003 0.021,-0.008 0.006,-0.006 0.009,-0.013 0.009,-0.022 0,-0.008 -0.003,-0.016 -0.009,-0.021z"/>
   <path class="fil1" d="M0.084 0.138c0.013,0 0.024,0.006 0.032,0.014 0.008,0.008 0.014,0.02 0.014,0.032 0,0.013 -0.006,0.024 -0.014,0.032 -0.008,0.008 -0.019,0.014 -0.032,0.014 -0.013,0 -0.024,-0.006 -0.032,-0.014 -0.008,-0.008 -0.014,-0.019 -0.014,-0.032 0,-0.012 0.006,-0.024 0.014,-0.032 0.008,-0.008 0.019,-0.014 0.032,-0.014zm0.021 0.025c-0.005,-0.006 -0.013,-0.009 -0.021,-0.009 -0.008,0 -0.016,0.003 -0.021,0.009 -0.006,0.005 -0.009,0.013 -0.009,0.021 0,0.008 0.003,0.016 0.009,0.021 0.005,0.006 0.013,0.009 0.021,0.009 0.008,0 0.016,-0.003 0.021,-0.009 0.006,-0.005 0.009,-0.013 0.009,-0.021 0,-0.008 -0.003,-0.016 -0.009,-0.021z"/>
   <polygon class="fil1" points="0.118,0.196 0.254,0.26 0.248,0.274 0.112,0.21 "/>
   <polygon class="fil1" points="0.254,0.112 0.118,0.175 0.112,0.161 0.248,0.098 "/>
  </g>
 </g>
</svg>
