<?xml version="1.0" encoding="UTF-8"?>
<!DOCTYPE svg PUBLIC "-//W3C//DTD SVG 1.1//EN" "http://www.w3.org/Graphics/SVG/1.1/DTD/svg11.dtd">
<!-- Creator: CorelDRAW 2018 (64-Bit) -->
<svg xmlns="http://www.w3.org/2000/svg" xml:space="preserve" width="24px" height="24px" version="1.1" style="shape-rendering:geometricPrecision; text-rendering:geometricPrecision; image-rendering:optimizeQuality; fill-rule:evenodd; clip-rule:evenodd"
viewBox="0 0 0.368 0.368"
 xmlns:xlink="http://www.w3.org/1999/xlink">
 <defs>
  <style type="text/css">
   <![CDATA[
    .fil0 {fill:none}
    .fil1 {fill:gray;fill-rule:nonzero}
   ]]>
  </style>
 </defs>
 <g id="Layer_x0020_1">
  <metadata id="CorelCorpID_0Corel-Layer"/>
  <g id="_2414688038992">
   <rect class="fil0" width="0.368" height="0.368"/>
   <g>
    <path class="fil1" d="M0.06 0.14l0.248 0c0.006,0 0.011,0.003 0.015,0.007 0.004,0.003 0.007,0.009 0.007,0.015l0 0.107c0,0.006 -0.003,0.012 -0.007,0.016 -0.004,0.004 -0.009,0.006 -0.015,0.006l-0.042 0 0 -0.015 0.042 0c0.002,0 0.003,-0.001 0.004,-0.002 0.002,-0.001 0.002,-0.003 0.002,-0.005l0 -0.107c0,-0.002 0,-0.003 -0.002,-0.005 -0.001,-0.001 -0.002,-0.001 -0.004,-0.001l-0.248 0c-0.002,0 -0.003,0 -0.004,0.001 -0.002,0.002 -0.002,0.003 -0.002,0.005l0 0.107c0,0.002 0,0.004 0.002,0.005 0.001,0.001 0.002,0.002 0.004,0.002l0.042 0 0 0.015 -0.042 0c-0.006,0 -0.011,-0.002 -0.015,-0.006 -0.004,-0.004 -0.007,-0.01 -0.007,-0.016l0 -0.107c0,-0.006 0.003,-0.012 0.007,-0.015 0.004,-0.004 0.009,-0.007 0.015,-0.007z"/>
    <path class="fil1" d="M0.094 0.234l0.18 0c0.004,0 0.008,0.004 0.008,0.008l0 0.074c0,0.005 -0.002,0.009 -0.005,0.012 -0.003,0.003 -0.007,0.004 -0.011,0.004l-0.163 0c-0.005,0 -0.009,-0.001 -0.012,-0.004 -0.003,-0.003 -0.005,-0.007 -0.005,-0.012l0 -0.074c0,-0.004 0.004,-0.008 0.008,-0.008zm0.172 0.016l-0.164 0 0 0.066c0,0 0,0.001 0,0.001 0,0 0,0 0.001,0l0.163 0c0,0 0,0 0,0 0,0 0,-0.001 0,-0.001l0 -0.066z"/>
    <path class="fil1" d="M0.102 0.036l0.164 0c0.004,0 0.008,0.001 0.011,0.004l0 0c0.003,0.003 0.005,0.007 0.005,0.011l0 0.097c0,0.004 -0.004,0.008 -0.008,0.008l-0.18 0c-0.004,0 -0.008,-0.004 -0.008,-0.008l0 -0.097c0,-0.004 0.002,-0.008 0.005,-0.011l0 0c0.003,-0.003 0.007,-0.004 0.011,-0.004zm0.164 0.015l-0.164 0 0 0 0 0 0 0.089 0.164 0 0 -0.089 0 0 0 0z"/>
    <path class="fil1" d="M0.281 0.171c0.005,0 0.009,0.002 0.013,0.005 0.003,0.004 0.005,0.008 0.005,0.013 0,0.005 -0.002,0.01 -0.005,0.013 -0.004,0.004 -0.008,0.006 -0.013,0.006 -0.005,0 -0.01,-0.002 -0.013,-0.006 -0.004,-0.003 -0.006,-0.008 -0.006,-0.013 0,-0.005 0.002,-0.009 0.006,-0.013 0.003,-0.003 0.008,-0.005 0.013,-0.005zm0.002 0.016c-0.001,0 -0.002,-0.001 -0.002,-0.001 -0.001,0 -0.002,0.001 -0.003,0.001 0,0.001 0,0.001 0,0.002 0,0.001 0,0.002 0,0.002 0.001,0.001 0.002,0.001 0.003,0.001 0,0 0.001,0 0.002,-0.001 0,0 0.001,-0.001 0.001,-0.002 0,-0.001 -0.001,-0.001 -0.001,-0.002z"/>
   </g>
  </g>
 </g>
</svg>
