<?xml version="1.0" encoding="UTF-8"?>
<!DOCTYPE svg PUBLIC "-//W3C//DTD SVG 1.1//EN" "http://www.w3.org/Graphics/SVG/1.1/DTD/svg11.dtd">
<!-- Creator: CorelDRAW 2018 (64-Bit) -->
<svg xmlns="http://www.w3.org/2000/svg" xml:space="preserve" width="15px" height="15px" version="1.1" style="shape-rendering:geometricPrecision; text-rendering:geometricPrecision; image-rendering:optimizeQuality; fill-rule:evenodd; clip-rule:evenodd"
viewBox="0 0 0.176 0.176"
 xmlns:xlink="http://www.w3.org/1999/xlink">
 <defs>
  <style type="text/css">
   <![CDATA[
    .fil0 {fill:white;fill-rule:nonzero}
   ]]>
  </style>
 </defs>
 <g id="Layer_x0020_1">
  <metadata id="CorelCorpID_0Corel-Layer"/>
  <g id="_2415260076144">
   <path class="fil0" d="M0.088 0c0.024,0 0.046,0.01 0.062,0.026l0 0c0.016,0.016 0.026,0.038 0.026,0.062 0,0.024 -0.01,0.046 -0.026,0.062l-0.001 0c-0.015,0.016 -0.037,0.026 -0.061,0.026 -0.024,0 -0.046,-0.01 -0.062,-0.026 -0.016,-0.016 -0.026,-0.038 -0.026,-0.062 0,-0.024 0.01,-0.046 0.026,-0.062 0.016,-0.016 0.038,-0.026 0.062,-0.026zm0.054 0.034c-0.014,-0.014 -0.033,-0.022 -0.054,-0.022 -0.021,0 -0.04,0.008 -0.054,0.022 -0.014,0.014 -0.022,0.033 -0.022,0.054 0,0.021 0.008,0.04 0.022,0.054 0.014,0.013 0.033,0.022 0.054,0.022 0.021,0 0.04,-0.009 0.053,-0.022l0.001 0c0.013,-0.014 0.022,-0.033 0.022,-0.054 0,-0.021 -0.009,-0.04 -0.022,-0.054z"/>
   <path class="fil0" d="M0.125 0.044c0.002,-0.002 0.006,-0.002 0.008,0 0.003,0.002 0.003,0.006 0,0.008l-0.034 0.034c-0.002,0.003 -0.006,0.003 -0.008,0 -0.002,-0.002 -0.002,-0.006 0,-0.008l0.034 -0.034z"/>
   <path class="fil0" d="M0.082 0.079c0.002,0.001 0.003,0.005 0.002,0.008 -0.002,0.002 -0.005,0.003 -0.008,0.002l-0.029 -0.017c-0.003,-0.002 -0.004,-0.005 -0.003,-0.008 0.002,-0.003 0.006,-0.004 0.008,-0.002l0.03 0.017z"/>
   <path class="fil0" d="M0.088 0.084c-0.001,0 -0.002,0.001 -0.003,0.001 0,0.001 -0.001,0.002 -0.001,0.003 0,0.001 0.001,0.002 0.001,0.002 0.001,0.001 0.002,0.001 0.003,0.001 0.001,0 0.002,0 0.002,-0.001 0.001,0 0.001,-0.001 0.001,-0.002 0,-0.001 0,-0.002 -0.001,-0.003 0,0 -0.001,-0.001 -0.002,-0.001zm-0.011 -0.007c0.003,-0.003 0.007,-0.004 0.011,-0.004 0.004,0 0.008,0.001 0.01,0.004 0.003,0.003 0.005,0.007 0.005,0.011 0,0.004 -0.002,0.008 -0.005,0.01 -0.002,0.003 -0.006,0.005 -0.01,0.005 -0.004,0 -0.008,-0.002 -0.011,-0.005 -0.003,-0.002 -0.004,-0.006 -0.004,-0.01 0,-0.004 0.001,-0.008 0.004,-0.011z"/>
   <path class="fil0" d="M0.082 0.026c0,-0.004 0.003,-0.006 0.006,-0.006 0.003,0 0.006,0.002 0.006,0.006l0 0.005c0,0.004 -0.003,0.006 -0.006,0.006 -0.003,0 -0.006,-0.002 -0.006,-0.006l0 -0.005z"/>
   <path class="fil0" d="M0.026 0.094c-0.004,0 -0.006,-0.003 -0.006,-0.006 0,-0.003 0.002,-0.006 0.006,-0.006l0.005 0c0.004,0 0.006,0.003 0.006,0.006 0,0.003 -0.002,0.006 -0.006,0.006l-0.005 0z"/>
   <path class="fil0" d="M0.094 0.15c0,0.003 -0.003,0.006 -0.006,0.006 -0.003,0 -0.006,-0.003 -0.006,-0.006l0 -0.006c0,-0.003 0.003,-0.006 0.006,-0.006 0.003,0 0.006,0.003 0.006,0.006l0 0.006z"/>
   <path class="fil0" d="M0.15 0.082c0.003,0 0.006,0.003 0.006,0.006 0,0.003 -0.003,0.006 -0.006,0.006l-0.006 0c-0.003,0 -0.006,-0.003 -0.006,-0.006 0,-0.003 0.003,-0.006 0.006,-0.006l0.006 0z"/>
  </g>
 </g>
</svg>
