<?xml version="1.0" encoding="UTF-8"?>
<!DOCTYPE svg PUBLIC "-//W3C//DTD SVG 1.1//EN" "http://www.w3.org/Graphics/SVG/1.1/DTD/svg11.dtd">
<!-- Creator: CorelDRAW 2018 (64-Bit) -->
<svg xmlns="http://www.w3.org/2000/svg" xml:space="preserve" width="24px" height="24px" version="1.1" style="shape-rendering:geometricPrecision; text-rendering:geometricPrecision; image-rendering:optimizeQuality; fill-rule:evenodd; clip-rule:evenodd"
viewBox="0 0 6.048 6.048"
 xmlns:xlink="http://www.w3.org/1999/xlink">
 <defs>
  <style type="text/css">
   <![CDATA[
    .fil0 {fill:none}
    .fil2 {fill:gray;fill-rule:nonzero}
    .fil1 {fill:gray;fill-rule:nonzero}
   ]]>
  </style>
 </defs>
 <g id="Layer_x0020_1">
  <metadata id="CorelCorpID_0Corel-Layer"/>
  <g id="_2415178403200">
   <rect class="fil0" width="6.048" height="6.048"/>
   <g>
    <path class="fil1" d="M1.111 2.77c-0.069,0 -0.126,-0.056 -0.126,-0.126 0,-0.069 0.057,-0.126 0.126,-0.126l0.297 0c0.069,0 0.126,0.057 0.126,0.126 0,0.07 -0.057,0.126 -0.126,0.126l-0.297 0z"/>
    <path class="fil1" d="M2.137 2.77c-0.07,0 -0.126,-0.056 -0.126,-0.126 0,-0.069 0.056,-0.126 0.126,-0.126l0.296 0c0.07,0 0.126,0.057 0.126,0.126 0,0.07 -0.056,0.126 -0.126,0.126l-0.296 0z"/>
    <path class="fil1" d="M1.111 3.777c-0.069,0 -0.126,-0.057 -0.126,-0.126 0,-0.07 0.057,-0.126 0.126,-0.126l0.297 0c0.069,0 0.126,0.056 0.126,0.126 0,0.069 -0.057,0.126 -0.126,0.126l-0.297 0z"/>
    <path class="fil2" d="M1.033 0.917c0.07,0 0.126,0.056 0.126,0.126 0,0.069 -0.056,0.126 -0.126,0.126l-0.655 0 0 3.595 2.326 0c0.07,0 0.127,0.056 0.127,0.126 0,0.07 -0.057,0.126 -0.127,0.126l-2.332 0c-0.068,0 -0.13,-0.028 -0.174,-0.072 -0.044,-0.045 -0.072,-0.106 -0.072,-0.174l0 -3.608c0,-0.067 0.028,-0.129 0.072,-0.173 0.044,-0.045 0.106,-0.072 0.174,-0.072l0.661 0zm3.565 1.125c0,0.07 -0.056,0.126 -0.126,0.126 -0.07,0 -0.126,-0.056 -0.126,-0.126l0 -0.873 -0.653 0c-0.07,0 -0.126,-0.057 -0.126,-0.126 0,-0.07 0.056,-0.126 0.126,-0.126l0.659 0c0.067,0 0.129,0.027 0.173,0.072 0.045,0.045 0.073,0.106 0.073,0.173l0 0.88z"/>
    <path class="fil2" d="M3.232 0.917c0.069,0 0.126,0.056 0.126,0.126 0,0.069 -0.057,0.126 -0.126,0.126l-1.738 0c-0.07,0 -0.126,-0.057 -0.126,-0.126 0,-0.07 0.056,-0.126 0.126,-0.126l1.738 0z"/>
    <path class="fil2" d="M1.243 0.77c-0.018,0 -0.034,0.008 -0.046,0.019 -0.012,0.012 -0.019,0.028 -0.019,0.046l0 0.415c0,0.018 0.007,0.034 0.019,0.046 0.012,0.012 0.028,0.019 0.046,0.019 0.017,0 0.034,-0.007 0.045,-0.019 0.012,-0.012 0.02,-0.028 0.02,-0.046l0 -0.415c0,-0.018 -0.008,-0.034 -0.02,-0.046 -0.011,-0.011 -0.028,-0.019 -0.045,-0.019zm0 -0.252c0.087,0 0.166,0.036 0.224,0.093 0.057,0.057 0.093,0.137 0.093,0.224l0 0.415c0,0.088 -0.036,0.167 -0.093,0.224 -0.058,0.058 -0.137,0.093 -0.224,0.093 -0.087,0 -0.167,-0.035 -0.224,-0.093 -0.057,-0.057 -0.093,-0.136 -0.093,-0.224l0 -0.415c0,-0.087 0.036,-0.167 0.093,-0.224 0.057,-0.057 0.137,-0.093 0.224,-0.093z"/>
    <path class="fil2" d="M3.481 0.77c-0.017,0 -0.034,0.008 -0.045,0.019 -0.012,0.012 -0.02,0.028 -0.02,0.046l0 0.415c0,0.018 0.008,0.034 0.02,0.046 0.011,0.012 0.028,0.019 0.045,0.019 0.018,0 0.034,-0.007 0.046,-0.019 0.012,-0.012 0.019,-0.028 0.019,-0.046l0 -0.415c0,-0.018 -0.007,-0.034 -0.019,-0.046 -0.012,-0.011 -0.028,-0.019 -0.046,-0.019zm-0.224 -0.159c0.058,-0.057 0.137,-0.093 0.224,-0.093 0.087,0 0.167,0.036 0.224,0.093 0.057,0.057 0.093,0.137 0.093,0.224l0 0.415c0,0.088 -0.036,0.167 -0.093,0.224 -0.057,0.058 -0.137,0.093 -0.224,0.093 -0.087,0 -0.166,-0.035 -0.224,-0.093 -0.057,-0.057 -0.093,-0.136 -0.093,-0.224l0 -0.415c0,-0.087 0.036,-0.167 0.093,-0.224z"/>
    <path class="fil2" d="M4.19 2.08l0.526 0.986 1.102 0.196c0.068,0.012 0.114,0.077 0.102,0.145 -0.005,0.029 -0.019,0.053 -0.038,0.071l-0.772 0.8 0.155 1.109c0.009,0.069 -0.039,0.132 -0.107,0.142 -0.026,0.003 -0.051,-0.001 -0.073,-0.012l-1.006 -0.489 -1.006 0.489c-0.062,0.031 -0.138,0.005 -0.168,-0.058 -0.013,-0.025 -0.016,-0.053 -0.011,-0.078l0.154 -1.103 -0.776 -0.805c-0.049,-0.05 -0.047,-0.13 0.003,-0.178 0.019,-0.018 0.042,-0.029 0.066,-0.033l1.101 -0.196 0.526 -0.987c0.033,-0.061 0.109,-0.084 0.17,-0.052 0.023,0.013 0.041,0.031 0.052,0.053zm0.333 1.159l-0.444 -0.834 -0.439 0.825c-0.017,0.038 -0.051,0.066 -0.094,0.074l-0.93 0.164 0.654 0.678c0.027,0.027 0.041,0.066 0.036,0.107l-0.131 0.935 0.849 -0.414c0.034,-0.016 0.074,-0.017 0.11,0l0.849 0.414 -0.131 -0.935c-0.005,-0.037 0.007,-0.076 0.034,-0.105l0.656 -0.68 -0.93 -0.164c-0.036,-0.007 -0.07,-0.03 -0.089,-0.065z"/>
   </g>
  </g>
 </g>
</svg>
