<?xml version="1.0" encoding="UTF-8"?>
<!DOCTYPE svg PUBLIC "-//W3C//DTD SVG 1.1//EN" "http://www.w3.org/Graphics/SVG/1.1/DTD/svg11.dtd">
<!-- Creator: CorelDRAW 2018 (64-Bit) -->
<svg xmlns="http://www.w3.org/2000/svg" xml:space="preserve" width="24px" height="24px" version="1.1" style="shape-rendering:geometricPrecision; text-rendering:geometricPrecision; image-rendering:optimizeQuality; fill-rule:evenodd; clip-rule:evenodd"
viewBox="0 0 0.561 0.561"
 xmlns:xlink="http://www.w3.org/1999/xlink">
 <defs>
  <style type="text/css">
   <![CDATA[
    .fil0 {fill:none}
    .fil1 {fill:gray;fill-rule:nonzero}
   ]]>
  </style>
 </defs>
 <g id="Layer_x0020_1">
  <metadata id="CorelCorpID_0Corel-Layer"/>
  <g id="_2414664787440">
   <rect class="fil0" width="0.561" height="0.561"/>
   <g>
    <path class="fil1" d="M0.281 0.098c0.054,0 0.103,0.022 0.139,0.057 0.036,0.036 0.058,0.085 0.058,0.14 0,0.054 -0.022,0.104 -0.058,0.139 -0.036,0.036 -0.085,0.058 -0.139,0.058 -0.055,0 -0.104,-0.022 -0.14,-0.058 -0.036,-0.035 -0.058,-0.085 -0.058,-0.139 0,-0.055 0.022,-0.104 0.058,-0.14 0.036,-0.035 0.085,-0.057 0.14,-0.057zm0.123 0.074c-0.032,-0.032 -0.075,-0.051 -0.123,-0.051 -0.048,0 -0.092,0.019 -0.123,0.051 -0.032,0.031 -0.051,0.075 -0.051,0.123 0,0.048 0.019,0.091 0.051,0.123 0.031,0.031 0.075,0.051 0.123,0.051 0.048,0 0.091,-0.02 0.123,-0.051 0.031,-0.032 0.051,-0.075 0.051,-0.123 0,-0.048 -0.02,-0.092 -0.051,-0.123z"/>
    <path class="fil1" d="M0.379 0.185c0.004,-0.005 0.012,-0.005 0.016,0 0.005,0.004 0.005,0.012 0,0.016l-0.089 0.089c-0.005,0.005 -0.012,0.005 -0.017,0 -0.004,-0.004 -0.004,-0.012 0,-0.016l0.09 -0.089z"/>
    <path class="fil1" d="M0.267 0.276c0.006,0.003 0.008,0.011 0.005,0.016 -0.004,0.006 -0.011,0.008 -0.016,0.004l-0.068 -0.039c-0.006,-0.003 -0.008,-0.01 -0.004,-0.016 0.003,-0.005 0.01,-0.007 0.016,-0.004l0.067 0.039z"/>
    <path class="fil1" d="M0.281 0.286c-0.003,0 -0.005,0.001 -0.007,0.002 -0.002,0.002 -0.003,0.004 -0.003,0.007 0,0.002 0.001,0.005 0.003,0.006 0.002,0.002 0.004,0.003 0.007,0.003 0.002,0 0.005,-0.001 0.006,-0.003 0.002,-0.001 0.003,-0.004 0.003,-0.006 0,-0.003 -0.001,-0.005 -0.003,-0.007 -0.001,-0.001 -0.004,-0.002 -0.006,-0.002zm-0.023 -0.014c0.005,-0.006 0.014,-0.01 0.023,-0.01 0.009,0 0.017,0.004 0.023,0.01 0.006,0.006 0.009,0.014 0.009,0.023 0,0.009 -0.003,0.017 -0.009,0.023 -0.006,0.006 -0.014,0.01 -0.023,0.01 -0.009,0 -0.018,-0.004 -0.023,-0.01 -0.006,-0.006 -0.01,-0.014 -0.01,-0.023 0,-0.009 0.004,-0.017 0.01,-0.023z"/>
    <path class="fil1" d="M0.269 0.154c0,-0.007 0.005,-0.012 0.012,-0.012 0.006,0 0.011,0.005 0.011,0.012l0 0.013c0,0.006 -0.005,0.012 -0.011,0.012 -0.007,0 -0.012,-0.006 -0.012,-0.012l0 -0.013z"/>
    <path class="fil1" d="M0.14 0.307c-0.007,0 -0.012,-0.006 -0.012,-0.012 0,-0.007 0.005,-0.012 0.012,-0.012l0.013 0c0.006,0 0.011,0.005 0.011,0.012 0,0.006 -0.005,0.012 -0.011,0.012l-0.013 0z"/>
    <path class="fil1" d="M0.292 0.436c0,0.006 -0.005,0.012 -0.011,0.012 -0.007,0 -0.012,-0.006 -0.012,-0.012l0 -0.013c0,-0.007 0.005,-0.012 0.012,-0.012 0.006,0 0.011,0.005 0.011,0.012l0 0.013z"/>
    <path class="fil1" d="M0.422 0.283c0.006,0 0.011,0.005 0.011,0.012 0,0.006 -0.005,0.012 -0.011,0.012l-0.013 0c-0.007,0 -0.012,-0.006 -0.012,-0.012 0,-0.007 0.005,-0.012 0.012,-0.012l0.013 0z"/>
    <path class="fil1" d="M0.384 0.097c-0.005,0.005 -0.012,0.004 -0.017,-0.001 -0.004,-0.005 -0.003,-0.012 0.002,-0.016 0.008,-0.007 0.017,-0.012 0.027,-0.016 0.01,-0.004 0.02,-0.006 0.031,-0.006 0.025,0 0.047,0.011 0.064,0.027 0.016,0.016 0.026,0.039 0.026,0.064 0,0.01 -0.002,0.021 -0.005,0.03 -0.004,0.01 -0.009,0.019 -0.016,0.028 -0.004,0.004 -0.012,0.005 -0.017,0.001 -0.004,-0.004 -0.005,-0.011 -0.001,-0.016 0.005,-0.006 0.009,-0.013 0.012,-0.021 0.002,-0.007 0.004,-0.014 0.004,-0.022 0,-0.019 -0.008,-0.036 -0.02,-0.048 -0.012,-0.012 -0.029,-0.019 -0.047,-0.019 -0.008,0 -0.016,0.001 -0.023,0.004 -0.007,0.002 -0.014,0.006 -0.02,0.011z"/>
    <path class="fil1" d="M0.192 0.08c0.005,0.004 0.006,0.011 0.002,0.016 -0.004,0.005 -0.012,0.006 -0.017,0.001 -0.006,-0.005 -0.013,-0.009 -0.02,-0.011 -0.007,-0.003 -0.015,-0.004 -0.023,-0.004 -0.018,0 -0.035,0.007 -0.047,0.019 -0.012,0.012 -0.019,0.029 -0.019,0.048 0,0.008 0.001,0.015 0.004,0.022 0.002,0.008 0.006,0.015 0.011,0.021 0.004,0.005 0.004,0.012 -0.001,0.016 -0.005,0.004 -0.013,0.003 -0.017,-0.001 -0.007,-0.009 -0.012,-0.018 -0.015,-0.028 -0.004,-0.009 -0.006,-0.02 -0.006,-0.03 0,-0.025 0.01,-0.048 0.027,-0.064 0.016,-0.016 0.038,-0.027 0.063,-0.027 0.011,0 0.021,0.002 0.031,0.006 0.01,0.004 0.019,0.009 0.027,0.016z"/>
    <path class="fil1" d="M0.379 0.452c-0.004,-0.005 -0.002,-0.013 0.003,-0.016 0.005,-0.004 0.013,-0.002 0.016,0.003l0.029 0.045c0.004,0.006 0.002,0.013 -0.003,0.016 -0.006,0.004 -0.013,0.002 -0.017,-0.003l-0.028 -0.045z"/>
    <path class="fil1" d="M0.163 0.439c0.003,-0.005 0.011,-0.007 0.016,-0.003 0.005,0.003 0.007,0.01 0.003,0.016l-0.029 0.045c-0.003,0.006 -0.011,0.007 -0.016,0.004 -0.005,-0.004 -0.007,-0.011 -0.004,-0.016l0.03 -0.046z"/>
   </g>
  </g>
 </g>
</svg>
