<?xml version="1.0" encoding="UTF-8"?>
<!DOCTYPE svg PUBLIC "-//W3C//DTD SVG 1.1//EN" "http://www.w3.org/Graphics/SVG/1.1/DTD/svg11.dtd">
<!-- Creator: CorelDRAW 2018 (64-Bit) -->
<svg xmlns="http://www.w3.org/2000/svg" xml:space="preserve" width="21px" height="19px" version="1.1" style="shape-rendering:geometricPrecision; text-rendering:geometricPrecision; image-rendering:optimizeQuality; fill-rule:evenodd; clip-rule:evenodd"
viewBox="0 0 1.219 1.107"
 xmlns:xlink="http://www.w3.org/1999/xlink">
 <defs>
  <style type="text/css">
   <![CDATA[
    .fil1 {fill:#00F4FF}
    .fil0 {fill:#052337;fill-rule:nonzero}
   ]]>
  </style>
 </defs>
 <g id="Layer_x0020_1">
  <metadata id="CorelCorpID_0Corel-Layer"/>
  <g id="_2080912998400">
   <path class="fil0" d="M0.058 1.078c0,0.016 -0.013,0.029 -0.029,0.029 -0.016,0 -0.029,-0.013 -0.029,-0.029l0 -0.689c0,-0.016 0.013,-0.029 0.028,-0.029l0.584 -0.059c0.016,-0.001 0.03,0.011 0.032,0.026 0.001,0.016 -0.01,0.031 -0.026,0.032l-0.56 0.056 0 0.663z"/>
   <path class="fil1" d="M0.145 0.995l0.353 -0.005 0 0.088 -0.353 0 0 -0.083zm0 -0.484l0.353 -0.03 0 0.088 -0.353 0.024 0 -0.082zm0 0.242l0.353 -0.017 0 0.087 -0.353 0.012 0 -0.082z"/>
   <path class="fil0" d="M0.148 0.966l0.35 -0.005c0.016,0 0.029,0.013 0.029,0.029l0 0.088c0,0.016 -0.013,0.029 -0.029,0.029l-0.353 0c-0.016,0 -0.029,-0.013 -0.029,-0.029l0 -0.083c0,-0.016 0.013,-0.029 0.029,-0.029l0.003 0zm0.321 0.053l-0.294 0.005 0 0.025 0.294 0 0 -0.03zm-0.325 -0.537l0.352 -0.03c0.016,-0.001 0.03,0.011 0.031,0.027l0 0.09c0,0.016 -0.012,0.029 -0.028,0.029l-0.352 0.024c-0.016,0.001 -0.029,-0.011 -0.03,-0.027l-0.001 -0.084c0,-0.016 0.013,-0.029 0.028,-0.029zm0.325 0.031l-0.294 0.024 0 0.025 0.294 -0.02 0 -0.029zm-0.323 0.211l0.351 -0.017c0.016,-0.001 0.03,0.011 0.03,0.027l0 0.089c0,0.016 -0.013,0.029 -0.029,0.029l-0.352 0.012c-0.016,0.001 -0.029,-0.012 -0.029,-0.028l-0.001 -0.083c0,-0.016 0.013,-0.029 0.029,-0.029l0.001 0zm0.323 0.042l-0.294 0.015 0 0.024 0.294 -0.01 0 -0.029z"/>
   <polygon class="fil1" points="0.615,0.33 0.862,0.419 0.862,1.078 0.615,1.078 "/>
   <path class="fil0" d="M0.627 0.304l0.244 0.088c0.012,0.004 0.019,0.015 0.019,0.027l0.001 0.659c0,0.016 -0.013,0.029 -0.029,0.029l-0.247 0c-0.016,0 -0.029,-0.013 -0.029,-0.029l0 -0.748c0,-0.016 0.013,-0.029 0.029,-0.029 0.004,0 0.009,0.001 0.012,0.003zm0.206 0.135l-0.189 -0.068 0 0.678 0.189 0 0 -0.61z"/>
   <path class="fil0" d="M0.554 0.339c0,0.016 -0.013,0.029 -0.029,0.029 -0.016,0 -0.029,-0.013 -0.029,-0.029l0 -0.263c0,-0.016 0.013,-0.029 0.029,-0.029l0.465 -0.047c0.016,-0.001 0.03,0.01 0.032,0.026 0.002,0.016 -0.01,0.03 -0.026,0.032l-0.442 0.044 0 0.237z"/>
   <polygon class="fil1" points="0.993,0.029 1.19,0.1 1.19,1.078 0.993,1.078 "/>
   <path class="fil0" d="M1.006 0.003l0.194 0.07c0.012,0.004 0.019,0.015 0.019,0.027l0 0.978c0,0.016 -0.013,0.029 -0.029,0.029l-0.197 0c-0.016,0 -0.029,-0.013 -0.029,-0.029l0 -1.049c0,-0.016 0.013,-0.029 0.029,-0.029 0.005,0 0.009,0.001 0.013,0.003zm0.155 0.117l-0.139 -0.05 0 0.979 0.139 0 0 -0.929z"/>
  </g>
 </g>
</svg>
