<?xml version="1.0" encoding="UTF-8"?>
<!DOCTYPE svg PUBLIC "-//W3C//DTD SVG 1.1//EN" "http://www.w3.org/Graphics/SVG/1.1/DTD/svg11.dtd">
<!-- Creator: CorelDRAW 2018 (64-Bit) -->
<svg xmlns="http://www.w3.org/2000/svg" xml:space="preserve" width="24px" height="24px" version="1.1" style="shape-rendering:geometricPrecision; text-rendering:geometricPrecision; image-rendering:optimizeQuality; fill-rule:evenodd; clip-rule:evenodd"
viewBox="0 0 0.561 0.561"
 xmlns:xlink="http://www.w3.org/1999/xlink">
 <defs>
  <style type="text/css">
   <![CDATA[
    .fil0 {fill:none}
    .fil1 {fill:gray;fill-rule:nonzero}
   ]]>
  </style>
 </defs>
 <g id="Layer_x0020_1">
  <metadata id="CorelCorpID_0Corel-Layer"/>
  <g id="_2414949808368">
   <rect class="fil0" width="0.561" height="0.561"/>
   <path class="fil1" d="M0.094 0.168c-0.007,0 -0.012,-0.006 -0.012,-0.012 0,-0.007 0.005,-0.012 0.012,-0.012l0.374 0c0.006,0 0.011,0.005 0.011,0.012 0,0.006 -0.005,0.012 -0.011,0.012l-0.374 0z"/>
   <path class="fil1" d="M0.094 0.417c-0.007,0 -0.012,-0.005 -0.012,-0.012 0,-0.006 0.005,-0.011 0.012,-0.011l0.187 0c0.006,0 0.011,0.005 0.011,0.011 0,0.007 -0.005,0.012 -0.011,0.012l-0.187 0z"/>
   <path class="fil1" d="M0.094 0.292c-0.007,0 -0.012,-0.005 -0.012,-0.011 0,-0.007 0.005,-0.012 0.012,-0.012l0.374 0c0.006,0 0.011,0.005 0.011,0.012 0,0.006 -0.005,0.011 -0.011,0.011l-0.374 0z"/>
  </g>
 </g>
</svg>
