<?xml version="1.0" encoding="UTF-8"?>
<!DOCTYPE svg PUBLIC "-//W3C//DTD SVG 1.1//EN" "http://www.w3.org/Graphics/SVG/1.1/DTD/svg11.dtd">
<!-- Creator: CorelDRAW 2018 (64-Bit) -->
<svg xmlns="http://www.w3.org/2000/svg" xml:space="preserve" width="24px" height="24px" version="1.1" style="shape-rendering:geometricPrecision; text-rendering:geometricPrecision; image-rendering:optimizeQuality; fill-rule:evenodd; clip-rule:evenodd"
viewBox="0 0 0.396 0.396"
 xmlns:xlink="http://www.w3.org/1999/xlink">
 <defs>
  <style type="text/css">
   <![CDATA[
    .fil0 {fill:none}
    .fil1 {fill:gray;fill-rule:nonzero}
   ]]>
  </style>
 </defs>
 <g id="Layer_x0020_1">
  <metadata id="CorelCorpID_0Corel-Layer"/>
  <g id="_1775897718656">
   <rect class="fil0" width="0.396" height="0.396"/>
   <g>
    <path class="fil1" d="M0.021 0.332l0 -0.175c0,-0.006 0.002,-0.012 0.006,-0.016 0.005,-0.005 0.01,-0.007 0.017,-0.007l0.038 0c0.007,0 0.012,0.002 0.017,0.007 0.004,0.004 0.006,0.01 0.006,0.016l0 0.175c0,0.007 -0.002,0.012 -0.006,0.016 -0.005,0.005 -0.01,0.007 -0.017,0.007l-0.038 0c-0.007,0 -0.012,-0.002 -0.017,-0.007l0 0c-0.004,-0.004 -0.006,-0.01 -0.006,-0.016zm0.016 -0.175l0 0.175c0,0.002 0.001,0.003 0.002,0.004l0 0.001c0.001,0.001 0.003,0.002 0.005,0.002l0.038 0c0.002,0 0.004,-0.001 0.005,-0.002 0.001,-0.001 0.002,-0.003 0.002,-0.005l0 -0.175c0,-0.002 -0.001,-0.004 -0.002,-0.005 -0.001,-0.001 -0.003,-0.002 -0.005,-0.002l-0.038 0c-0.002,0 -0.004,0.001 -0.005,0.002 -0.001,0.001 -0.002,0.003 -0.002,0.005z"/>
    <path class="fil1" d="M0.157 0.332l0 -0.268c0,-0.006 0.003,-0.012 0.007,-0.016l0 0c0.004,-0.004 0.01,-0.007 0.016,-0.007l0.039 0c0.006,0 0.012,0.003 0.016,0.007l0 0c0.004,0.004 0.007,0.01 0.007,0.016l0 0.268c0,0.007 -0.003,0.012 -0.007,0.016 -0.004,0.005 -0.01,0.007 -0.016,0.007l-0.039 0c-0.006,0 -0.012,-0.002 -0.016,-0.007l0 0c-0.004,-0.004 -0.007,-0.01 -0.007,-0.016zm0.016 -0.268l0 0.268c0,0.002 0.001,0.004 0.002,0.005 0.002,0.001 0.003,0.002 0.005,0.002l0.039 0c0.001,0 0.003,-0.001 0.004,-0.002 0.001,-0.001 0.002,-0.003 0.002,-0.005l0 -0.268c0,-0.002 -0.001,-0.003 -0.002,-0.004 -0.001,-0.001 -0.003,-0.002 -0.004,-0.002l-0.039 0c-0.002,0 -0.003,0.001 -0.005,0.002 -0.001,0.001 -0.002,0.002 -0.002,0.004z"/>
    <path class="fil1" d="M0.291 0.332l0 -0.102c0,-0.006 0.003,-0.012 0.007,-0.016 0.004,-0.005 0.01,-0.007 0.016,-0.007l0.039 0c0.006,0 0.012,0.002 0.016,0.007 0.004,0.004 0.007,0.01 0.007,0.016l0 0.102c0,0.006 -0.003,0.012 -0.007,0.016 -0.004,0.005 -0.01,0.007 -0.016,0.007l-0.039 0c-0.006,0 -0.012,-0.002 -0.016,-0.007l-0.001 0c-0.004,-0.004 -0.006,-0.01 -0.006,-0.016zm0.017 -0.102l0 0.102c0,0.002 0,0.003 0.001,0.004l0.001 0.001c0.001,0.001 0.002,0.002 0.004,0.002l0.039 0c0.002,0 0.003,-0.001 0.004,-0.002 0.002,-0.001 0.002,-0.003 0.002,-0.005l0 -0.102c0,-0.002 0,-0.004 -0.002,-0.005 -0.001,-0.001 -0.002,-0.002 -0.004,-0.002l-0.039 0c-0.002,0 -0.003,0.001 -0.004,0.002 -0.002,0.001 -0.002,0.003 -0.002,0.005z"/>
   </g>
  </g>
 </g>
</svg>
