<?xml version="1.0" encoding="UTF-8"?>
<!DOCTYPE svg PUBLIC "-//W3C//DTD SVG 1.1//EN" "http://www.w3.org/Graphics/SVG/1.1/DTD/svg11.dtd">
<!-- Creator: CorelDRAW 2018 (64-Bit) -->
<svg xmlns="http://www.w3.org/2000/svg" xml:space="preserve" width="21px" height="21px" version="1.1" style="shape-rendering:geometricPrecision; text-rendering:geometricPrecision; image-rendering:optimizeQuality; fill-rule:evenodd; clip-rule:evenodd"
viewBox="0 0 0.487 0.487"
 xmlns:xlink="http://www.w3.org/1999/xlink">
 <defs>
  <style type="text/css">
   <![CDATA[
    .fil0 {fill:#FF6633;fill-rule:nonzero}
   ]]>
  </style>
 </defs>
 <g id="Layer_x0020_1">
  <metadata id="CorelCorpID_0Corel-Layer"/>
  <g id="_1776127545072">
   <path class="fil0" d="M0.243 0c0.068,0 0.129,0.027 0.173,0.071 0.044,0.044 0.071,0.105 0.071,0.172 0,0.068 -0.027,0.129 -0.071,0.173 -0.044,0.044 -0.105,0.071 -0.173,0.071 -0.067,0 -0.128,-0.027 -0.172,-0.071 -0.044,-0.044 -0.071,-0.105 -0.071,-0.173 0,-0.067 0.027,-0.128 0.071,-0.172 0.044,-0.044 0.105,-0.071 0.172,-0.071zm0.156 0.088c-0.04,-0.04 -0.095,-0.065 -0.156,-0.065 -0.06,0 -0.115,0.025 -0.155,0.065 -0.04,0.04 -0.065,0.095 -0.065,0.155 0,0.061 0.025,0.116 0.065,0.156 0.04,0.04 0.095,0.065 0.155,0.065 0.061,0 0.116,-0.025 0.156,-0.065 0.04,-0.04 0.065,-0.095 0.065,-0.156 0,-0.06 -0.025,-0.115 -0.065,-0.155z"/>
   <path class="fil0" d="M0.159 0.344c-0.005,0.005 -0.012,0.005 -0.016,0 -0.005,-0.004 -0.005,-0.011 0,-0.016l0.185 -0.185c0.005,-0.005 0.012,-0.005 0.016,0 0.005,0.004 0.005,0.011 0,0.016l-0.185 0.185z"/>
   <path class="fil0" d="M0.344 0.328c0.005,0.005 0.005,0.012 0,0.016 -0.004,0.005 -0.011,0.005 -0.016,0l-0.185 -0.185c-0.005,-0.005 -0.005,-0.012 0,-0.016 0.004,-0.005 0.011,-0.005 0.016,0l0.185 0.185z"/>
  </g>
 </g>
</svg>
