<?xml version="1.0" encoding="UTF-8"?>
<!DOCTYPE svg PUBLIC "-//W3C//DTD SVG 1.1//EN" "http://www.w3.org/Graphics/SVG/1.1/DTD/svg11.dtd">
<!-- Creator: CorelDRAW 2018 (64-Bit) -->
<svg xmlns="http://www.w3.org/2000/svg" xml:space="preserve" width="21px" height="21px" version="1.1" style="shape-rendering:geometricPrecision; text-rendering:geometricPrecision; image-rendering:optimizeQuality; fill-rule:evenodd; clip-rule:evenodd"
viewBox="0 0 0.457 0.457"
 xmlns:xlink="http://www.w3.org/1999/xlink">
 <defs>
  <style type="text/css">
   <![CDATA[
    .fil0 {fill:#FFCC00;fill-rule:nonzero}
   ]]>
  </style>
 </defs>
 <g id="Layer_x0020_1">
  <metadata id="CorelCorpID_0Corel-Layer"/>
  <g id="_1775912458720">
   <path class="fil0" d="M0.228 0c0.063,0 0.12,0.026 0.162,0.067 0.041,0.041 0.067,0.098 0.067,0.161 0,0.063 -0.026,0.12 -0.067,0.162 -0.042,0.041 -0.099,0.067 -0.162,0.067 -0.063,0 -0.12,-0.026 -0.161,-0.067 -0.041,-0.042 -0.067,-0.099 -0.067,-0.162 0,-0.063 0.026,-0.12 0.067,-0.161 0.041,-0.041 0.098,-0.067 0.161,-0.067zm0.146 0.082c-0.037,-0.037 -0.089,-0.06 -0.146,-0.06 -0.057,0 -0.108,0.023 -0.146,0.06 -0.037,0.038 -0.06,0.089 -0.06,0.146 0,0.057 0.023,0.109 0.06,0.146 0.038,0.038 0.089,0.061 0.146,0.061 0.057,0 0.109,-0.023 0.146,-0.061 0.038,-0.037 0.061,-0.089 0.061,-0.146 0,-0.057 -0.023,-0.108 -0.061,-0.146z"/>
   <path class="fil0" d="M0.12 0.239c-0.006,0 -0.011,-0.005 -0.011,-0.011 0,-0.006 0.005,-0.011 0.011,-0.011l0.217 0c0.006,0 0.011,0.005 0.011,0.011 0,0.006 -0.005,0.011 -0.011,0.011l-0.217 0z"/>
  </g>
 </g>
</svg>
