<?xml version="1.0" encoding="UTF-8"?>
<!DOCTYPE svg PUBLIC "-//W3C//DTD SVG 1.1//EN" "http://www.w3.org/Graphics/SVG/1.1/DTD/svg11.dtd">
<!-- Creator: CorelDRAW 2018 (64-Bit) -->
<svg xmlns="http://www.w3.org/2000/svg" xml:space="preserve" width="21px" height="21px" version="1.1" style="shape-rendering:geometricPrecision; text-rendering:geometricPrecision; image-rendering:optimizeQuality; fill-rule:evenodd; clip-rule:evenodd"
viewBox="0 0 0.525 0.525"
 xmlns:xlink="http://www.w3.org/1999/xlink">
 <defs>
  <style type="text/css">
   <![CDATA[
    .fil0 {fill:#CCCCCC;fill-rule:nonzero}
   ]]>
  </style>
 </defs>
 <g id="Layer_x0020_1">
  <metadata id="CorelCorpID_0Corel-Layer"/>
  <g id="_1775911859456">
   <path class="fil0" d="M0.263 0c0.072,0 0.138,0.029 0.185,0.077 0.048,0.047 0.077,0.113 0.077,0.186 0,0.072 -0.029,0.138 -0.077,0.185 -0.047,0.048 -0.113,0.077 -0.185,0.077 -0.073,0 -0.139,-0.029 -0.186,-0.077 -0.048,-0.047 -0.077,-0.113 -0.077,-0.185 0,-0.073 0.029,-0.139 0.077,-0.186 0.047,-0.048 0.113,-0.077 0.186,-0.077zm0.168 0.095c-0.043,-0.043 -0.103,-0.07 -0.168,-0.07 -0.066,0 -0.125,0.027 -0.168,0.07 -0.043,0.043 -0.07,0.102 -0.07,0.168 0,0.065 0.027,0.125 0.07,0.168 0.043,0.043 0.102,0.069 0.168,0.069 0.065,0 0.125,-0.026 0.168,-0.069 0.043,-0.043 0.069,-0.103 0.069,-0.168 0,-0.066 -0.026,-0.125 -0.069,-0.168z"/>
   <path class="fil0" d="M0.129 0.247c-0.005,-0.005 -0.005,-0.013 0,-0.018 0.005,-0.005 0.013,-0.005 0.018,0l0.09 0.091 0.141 -0.141c0.005,-0.005 0.013,-0.005 0.018,0 0.005,0.005 0.005,0.013 0,0.017l-0.15 0.15c-0.005,0.005 -0.013,0.005 -0.018,0l-0.099 -0.099z"/>
  </g>
 </g>
</svg>
