<?xml version="1.0" encoding="UTF-8"?>
<!DOCTYPE svg PUBLIC "-//W3C//DTD SVG 1.1//EN" "http://www.w3.org/Graphics/SVG/1.1/DTD/svg11.dtd">
<!-- Creator: CorelDRAW 2018 (64-Bit) -->
<svg xmlns="http://www.w3.org/2000/svg" xml:space="preserve" width="30px" height="30px" version="1.1" style="shape-rendering:geometricPrecision; text-rendering:geometricPrecision; image-rendering:optimizeQuality; fill-rule:evenodd; clip-rule:evenodd"
viewBox="0 0 2.416 2.416"
 xmlns:xlink="http://www.w3.org/1999/xlink">
 <defs>
  <style type="text/css">
   <![CDATA[
    .fil0 {fill:none}
    .fil1 {fill:#00F4FF}
    .fil2 {fill:gray;fill-rule:nonzero}
   ]]>
  </style>
 </defs>
 <g id="Layer_x0020_1">
  <metadata id="CorelCorpID_0Corel-Layer"/>
  <g id="_1776624860000">
   <rect class="fil0" width="2.416" height="2.416"/>
   <path class="fil1" d="M0.081 2.1l0 -1.168c0,-0.054 0.044,-0.098 0.098,-0.098l0.257 0c0.054,0 0.098,0.044 0.098,0.098l0 1.168c0,0.054 -0.044,0.098 -0.098,0.098l-0.257 0c-0.054,0 -0.098,-0.044 -0.098,-0.098z"/>
   <path class="fil2" d="M0.04 2.1l0 -1.168c0,-0.038 0.016,-0.072 0.041,-0.097 0.025,-0.026 0.059,-0.041 0.098,-0.041l0.257 0c0.038,0 0.073,0.015 0.098,0.04l0.002 0.003c0.024,0.025 0.038,0.058 0.038,0.095l0 1.168c0,0.038 -0.015,0.073 -0.04,0.098 -0.025,0.025 -0.06,0.04 -0.098,0.04l-0.257 0c-0.039,0 -0.073,-0.015 -0.098,-0.04 -0.025,-0.025 -0.041,-0.06 -0.041,-0.098zm0.081 -1.168l0 1.168c0,0.016 0.006,0.03 0.017,0.041 0.01,0.01 0.025,0.017 0.041,0.017l0.257 0c0.016,0 0.031,-0.007 0.041,-0.017 0.01,-0.01 0.017,-0.025 0.017,-0.041l0 -1.168c0,-0.015 -0.006,-0.029 -0.015,-0.039l-0.002 -0.002c-0.01,-0.01 -0.025,-0.017 -0.041,-0.017l-0.257 0c-0.016,0 -0.031,0.007 -0.041,0.017 -0.011,0.011 -0.017,0.025 -0.017,0.041z"/>
   <path class="fil1" d="M0.988 2.1l0 -1.784c0,-0.054 0.044,-0.098 0.098,-0.098l0.258 0c0.054,0 0.098,0.044 0.098,0.098l0 1.784c0,0.054 -0.044,0.098 -0.098,0.098l-0.258 0c-0.054,0 -0.098,-0.044 -0.098,-0.098z"/>
   <path class="fil2" d="M0.948 2.1l0 -1.784c0,-0.038 0.015,-0.073 0.04,-0.098 0.025,-0.025 0.06,-0.041 0.098,-0.041l0.258 0c0.038,0 0.072,0.016 0.097,0.041 0.025,0.025 0.041,0.06 0.041,0.098l0 1.784c0,0.038 -0.016,0.073 -0.041,0.098 -0.025,0.025 -0.059,0.04 -0.097,0.04l-0.258 0c-0.038,0 -0.073,-0.015 -0.098,-0.04 -0.025,-0.025 -0.04,-0.06 -0.04,-0.098zm0.08 -1.784l0 1.784c0,0.016 0.007,0.03 0.017,0.041 0.011,0.01 0.025,0.017 0.041,0.017l0.258 0c0.015,0 0.03,-0.007 0.04,-0.017 0.011,-0.011 0.017,-0.025 0.017,-0.041l0 -1.784c0,-0.016 -0.006,-0.031 -0.017,-0.041 -0.01,-0.011 -0.025,-0.017 -0.04,-0.017l-0.258 0c-0.016,0 -0.03,0.006 -0.041,0.017 -0.01,0.01 -0.017,0.025 -0.017,0.041z"/>
   <path class="fil1" d="M1.882 2.1l0 -0.681c0,-0.054 0.044,-0.098 0.098,-0.098l0.257 0c0.054,0 0.098,0.044 0.098,0.098l0 0.681c0,0.054 -0.044,0.098 -0.098,0.098l-0.257 0c-0.054,0 -0.098,-0.044 -0.098,-0.098z"/>
   <path class="fil2" d="M1.841 2.1l0 -0.681c0,-0.038 0.016,-0.073 0.041,-0.098l0.003 -0.003c0.024,-0.023 0.058,-0.038 0.095,-0.038l0.257 0c0.038,0 0.073,0.016 0.098,0.041 0.025,0.025 0.041,0.06 0.041,0.098l0 0.681c0,0.038 -0.016,0.073 -0.041,0.098l-0.003 0.002c-0.024,0.024 -0.058,0.038 -0.095,0.038l-0.257 0c-0.038,0 -0.073,-0.015 -0.098,-0.04l-0.002 -0.003c-0.024,-0.025 -0.039,-0.058 -0.039,-0.095zm0.081 -0.681l0 0.681c0,0.015 0.006,0.029 0.015,0.039l0.002 0.002c0.01,0.01 0.025,0.017 0.041,0.017l0.257 0c0.015,0 0.029,-0.006 0.039,-0.015l0.002 -0.002c0.011,-0.011 0.017,-0.025 0.017,-0.041l0 -0.681c0,-0.016 -0.006,-0.031 -0.017,-0.041 -0.01,-0.011 -0.025,-0.017 -0.041,-0.017l-0.257 0c-0.015,0 -0.029,0.006 -0.04,0.015l-0.001 0.002c-0.011,0.01 -0.017,0.025 -0.017,0.041z"/>
  </g>
 </g>
</svg>
