<?xml version="1.0" encoding="UTF-8"?>
<!DOCTYPE svg PUBLIC "-//W3C//DTD SVG 1.1//EN" "http://www.w3.org/Graphics/SVG/1.1/DTD/svg11.dtd">
<!-- Creator: CorelDRAW 2018 (64-Bit) -->
<svg xmlns="http://www.w3.org/2000/svg" xml:space="preserve" width="30px" height="30px" version="1.1" style="shape-rendering:geometricPrecision; text-rendering:geometricPrecision; image-rendering:optimizeQuality; fill-rule:evenodd; clip-rule:evenodd"
viewBox="0 0 2.416 2.416"
 xmlns:xlink="http://www.w3.org/1999/xlink">
 <defs>
  <style type="text/css">
   <![CDATA[
    .fil0 {fill:none}
    .fil1 {fill:#00F4FF}
    .fil4 {fill:#00F4FF;fill-rule:nonzero}
    .fil2 {fill:gray;fill-rule:nonzero}
    .fil3 {fill:white;fill-rule:nonzero}
   ]]>
  </style>
 </defs>
 <g id="Layer_x0020_1">
  <metadata id="CorelCorpID_0Corel-Layer"/>
  <g id="_1775898131392">
   <rect class="fil0" width="2.416" height="2.416"/>
   <g>
    <path class="fil1" d="M0.21 1.01c-0.178,-0.196 -0.172,-0.499 0.017,-0.688 0.189,-0.189 0.492,-0.195 0.688,-0.017 -0.339,0.099 -0.606,0.366 -0.705,0.705z"/>
    <path class="fil2" d="M0.179 1.036c-0.096,-0.106 -0.142,-0.241 -0.138,-0.374 0.003,-0.134 0.056,-0.266 0.157,-0.368 0.102,-0.102 0.235,-0.155 0.369,-0.158 0.134,-0.003 0.269,0.043 0.375,0.139 0.016,0.015 0.018,0.041 0.003,0.057 -0.005,0.006 -0.012,0.01 -0.019,0.012 -0.162,0.047 -0.308,0.135 -0.425,0.252 -0.117,0.117 -0.205,0.263 -0.253,0.426 -0.006,0.021 -0.028,0.033 -0.049,0.027 -0.009,-0.002 -0.015,-0.007 -0.02,-0.013zm-0.058 -0.372c-0.002,0.091 0.022,0.183 0.074,0.262 0.055,-0.146 0.141,-0.278 0.249,-0.387 0.109,-0.108 0.24,-0.194 0.387,-0.248 -0.079,-0.052 -0.171,-0.077 -0.263,-0.075 -0.113,0.003 -0.226,0.048 -0.313,0.135 -0.087,0.086 -0.131,0.199 -0.134,0.313z"/>
    <path class="fil1" d="M2.206 1.01c0.178,-0.196 0.172,-0.499 -0.017,-0.688 -0.189,-0.189 -0.492,-0.195 -0.688,-0.017 0.339,0.099 0.606,0.366 0.705,0.705z"/>
    <path class="fil2" d="M2.221 0.926c0.052,-0.079 0.076,-0.171 0.074,-0.262 -0.003,-0.114 -0.048,-0.227 -0.134,-0.313 -0.087,-0.087 -0.2,-0.132 -0.314,-0.135 -0.091,-0.002 -0.183,0.023 -0.262,0.075 0.147,0.054 0.278,0.14 0.387,0.248 0.108,0.109 0.194,0.241 0.249,0.387zm0.154 -0.264c0.004,0.133 -0.042,0.268 -0.138,0.374 -0.005,0.006 -0.012,0.011 -0.02,0.013 -0.021,0.006 -0.043,-0.006 -0.049,-0.027 -0.048,-0.163 -0.136,-0.309 -0.253,-0.426 -0.117,-0.117 -0.263,-0.205 -0.425,-0.252 -0.007,-0.002 -0.014,-0.006 -0.019,-0.012 -0.015,-0.016 -0.014,-0.042 0.003,-0.057 0.106,-0.096 0.241,-0.142 0.375,-0.139 0.134,0.003 0.267,0.056 0.368,0.158 0.102,0.102 0.155,0.234 0.158,0.368z"/>
    <path class="fil1" d="M1.571 1.781l0 0c0.037,-0.026 0.089,-0.017 0.115,0.02l0.216 0.308c0.026,0.038 0.017,0.09 -0.021,0.116l0 0c-0.037,0.026 -0.089,0.017 -0.115,-0.02l-0.216 -0.308c-0.026,-0.038 -0.017,-0.09 0.021,-0.116z"/>
    <path class="fil2" d="M1.548 1.748c0.027,-0.019 0.061,-0.026 0.092,-0.02 0.031,0.005 0.06,0.022 0.079,0.05l0.216 0.308c0.019,0.028 0.026,0.061 0.02,0.092 -0.005,0.031 -0.023,0.06 -0.051,0.08 -0.027,0.019 -0.061,0.026 -0.092,0.02 -0.031,-0.005 -0.06,-0.023 -0.079,-0.051l-0.216 -0.307c-0.019,-0.028 -0.026,-0.061 -0.02,-0.092 0.005,-0.031 0.023,-0.06 0.051,-0.08zm0.078 0.059c-0.011,-0.002 -0.023,0 -0.032,0.007 -0.01,0.006 -0.016,0.017 -0.018,0.028 -0.002,0.01 0,0.022 0.007,0.032l0.216 0.308c0.006,0.009 0.016,0.015 0.027,0.017 0.011,0.002 0.023,0 0.032,-0.007 0.01,-0.007 0.016,-0.017 0.018,-0.028 0.002,-0.011 0,-0.022 -0.007,-0.032l-0.216 -0.308c-0.006,-0.009 -0.016,-0.015 -0.027,-0.017z"/>
    <path class="fil1" d="M0.845 1.781l0 0c-0.037,-0.026 -0.089,-0.017 -0.115,0.02l-0.216 0.308c-0.026,0.038 -0.017,0.09 0.02,0.116l0 0c0.038,0.026 0.09,0.017 0.116,-0.02l0.216 -0.308c0.026,-0.038 0.017,-0.09 -0.021,-0.116z"/>
    <path class="fil2" d="M0.822 1.814c-0.009,-0.007 -0.021,-0.009 -0.032,-0.007 -0.011,0.002 -0.021,0.008 -0.028,0.017l-0.215 0.308c-0.007,0.01 -0.009,0.021 -0.007,0.032 0.002,0.011 0.008,0.021 0.017,0.028 0.01,0.007 0.022,0.009 0.033,0.007 0.01,-0.002 0.021,-0.008 0.027,-0.017l0.216 -0.308c0.007,-0.01 0.009,-0.022 0.007,-0.032 -0.002,-0.011 -0.008,-0.022 -0.018,-0.028zm-0.046 -0.086c0.031,-0.006 0.064,0.001 0.092,0.02 0.028,0.02 0.046,0.049 0.051,0.08 0.005,0.031 -0.001,0.064 -0.02,0.092l-0.216 0.307c-0.02,0.028 -0.049,0.046 -0.08,0.051 -0.03,0.006 -0.064,-0.001 -0.092,-0.02 -0.027,-0.02 -0.045,-0.049 -0.05,-0.08 -0.006,-0.031 0.001,-0.064 0.02,-0.092l0.216 -0.308c0.019,-0.028 0.048,-0.045 0.079,-0.05z"/>
    <path class="fil3" d="M1.208 0.415c0.49,0 0.888,0.398 0.888,0.888 0,0.491 -0.398,0.888 -0.888,0.888 -0.491,0 -0.888,-0.397 -0.888,-0.888 0,-0.49 0.397,-0.888 0.888,-0.888z"/>
    <path class="fil2" d="M1.208 0.375c0.256,0 0.488,0.104 0.656,0.272 0.168,0.168 0.272,0.4 0.272,0.656 0,0.257 -0.104,0.489 -0.272,0.657 -0.168,0.168 -0.4,0.272 -0.656,0.272 -0.256,0 -0.489,-0.104 -0.656,-0.272 -0.168,-0.168 -0.272,-0.4 -0.272,-0.657 0,-0.256 0.104,-0.488 0.272,-0.656 0.168,-0.168 0.4,-0.272 0.656,-0.272zm0.599 0.329c-0.153,-0.154 -0.365,-0.249 -0.599,-0.249 -0.234,0 -0.446,0.095 -0.6,0.249 -0.153,0.153 -0.248,0.365 -0.248,0.599 0,0.234 0.095,0.446 0.248,0.6 0.154,0.153 0.366,0.248 0.6,0.248 0.234,0 0.446,-0.095 0.599,-0.248 0.154,-0.154 0.249,-0.366 0.249,-0.6 0,-0.234 -0.095,-0.446 -0.249,-0.599z"/>
    <path class="fil2" d="M1.688 0.787c0.015,-0.016 0.041,-0.016 0.057,0 0.015,0.015 0.015,0.041 0,0.057l-0.428 0.427c-0.015,0.016 -0.041,0.016 -0.057,0 -0.015,-0.016 -0.015,-0.041 0,-0.057l0.428 -0.427z"/>
    <path class="fil2" d="M1.137 1.227c0.019,0.011 0.025,0.036 0.014,0.055 -0.011,0.019 -0.035,0.026 -0.055,0.015l-0.324 -0.187c-0.019,-0.011 -0.025,-0.036 -0.014,-0.055 0.011,-0.019 0.035,-0.026 0.055,-0.015l0.324 0.187z"/>
    <path class="fil4" d="M1.208 1.158c-0.08,0 -0.145,0.065 -0.145,0.145 0,0.08 0.065,0.145 0.145,0.145 0.08,0 0.145,-0.065 0.145,-0.145 0,-0.08 -0.065,-0.145 -0.145,-0.145z"/>
    <path class="fil2" d="M1.208 1.198c-0.029,0 -0.055,0.012 -0.074,0.031 -0.019,0.019 -0.031,0.045 -0.031,0.074 0,0.029 0.012,0.056 0.031,0.074 0.019,0.019 0.045,0.031 0.074,0.031 0.029,0 0.055,-0.012 0.074,-0.031 0.019,-0.018 0.031,-0.045 0.031,-0.074 0,-0.029 -0.012,-0.055 -0.031,-0.074 -0.019,-0.019 -0.045,-0.031 -0.074,-0.031zm-0.131 -0.026c0.033,-0.033 0.08,-0.054 0.131,-0.054 0.051,0 0.097,0.021 0.131,0.054 0.034,0.034 0.054,0.08 0.054,0.131 0,0.051 -0.02,0.098 -0.054,0.131 -0.034,0.034 -0.08,0.055 -0.131,0.055 -0.051,0 -0.098,-0.021 -0.131,-0.055 -0.034,-0.033 -0.054,-0.08 -0.054,-0.131 0,-0.051 0.02,-0.097 0.054,-0.131z"/>
    <path class="fil2" d="M1.168 0.629c0,-0.023 0.018,-0.041 0.04,-0.041 0.022,0 0.04,0.018 0.04,0.041l0 0.062c0,0.022 -0.018,0.04 -0.04,0.04 -0.022,0 -0.04,-0.018 -0.04,-0.04l0 -0.062z"/>
    <path class="fil2" d="M0.533 1.344c-0.022,0 -0.04,-0.018 -0.04,-0.041 0,-0.022 0.018,-0.04 0.04,-0.04l0.063 0c0.022,0 0.04,0.018 0.04,0.04 0,0.023 -0.018,0.041 -0.04,0.041l-0.063 0z"/>
    <path class="fil2" d="M1.248 1.978c0,0.022 -0.018,0.04 -0.04,0.04 -0.022,0 -0.04,-0.018 -0.04,-0.04l0 -0.063c0,-0.022 0.018,-0.04 0.04,-0.04 0.022,0 0.04,0.018 0.04,0.04l0 0.063z"/>
    <path class="fil2" d="M1.883 1.263c0.022,0 0.04,0.018 0.04,0.04 0,0.023 -0.018,0.041 -0.04,0.041l-0.063 0c-0.022,0 -0.04,-0.018 -0.04,-0.041 0,-0.022 0.018,-0.04 0.04,-0.04l0.063 0z"/>
   </g>
  </g>
 </g>
</svg>
