<?xml version="1.0" encoding="UTF-8"?>
<!DOCTYPE svg PUBLIC "-//W3C//DTD SVG 1.1//EN" "http://www.w3.org/Graphics/SVG/1.1/DTD/svg11.dtd">
<!-- Creator: CorelDRAW 2018 (64-Bit) -->
<svg xmlns="http://www.w3.org/2000/svg" xml:space="preserve" width="30px" height="30px" version="1.1" style="shape-rendering:geometricPrecision; text-rendering:geometricPrecision; image-rendering:optimizeQuality; fill-rule:evenodd; clip-rule:evenodd"
viewBox="0 0 2.416 2.416"
 xmlns:xlink="http://www.w3.org/1999/xlink">
 <defs>
  <style type="text/css">
   <![CDATA[
    .fil0 {fill:none}
    .fil1 {fill:#00F4FF}
    .fil3 {fill:white}
    .fil2 {fill:gray;fill-rule:nonzero}
   ]]>
  </style>
 </defs>
 <g id="Layer_x0020_1">
  <metadata id="CorelCorpID_0Corel-Layer"/>
  <g id="_1776129637392">
   <rect class="fil0" width="2.416" height="2.416"/>
   <path class="fil1" d="M0.497 1.101l1.422 0c0.185,0 0.336,0.151 0.336,0.336l0 0.898 -2.094 0 0 -0.898c0,-0.185 0.151,-0.336 0.336,-0.336z"/>
   <path class="fil2" d="M0.497 1.06l1.422 0c0.103,0 0.198,0.043 0.266,0.111l0.002 0.002c0.067,0.068 0.108,0.161 0.108,0.264l0 0.898c0,0.023 -0.018,0.041 -0.04,0.041l-2.094 0c-0.022,0 -0.04,-0.018 -0.04,-0.041l0 -0.898c0,-0.104 0.042,-0.198 0.11,-0.266 0.068,-0.068 0.162,-0.111 0.266,-0.111zm1.422 0.081l-1.422 0c-0.081,0 -0.155,0.033 -0.209,0.087 -0.054,0.053 -0.087,0.127 -0.087,0.209l0 0.858 2.014 0 0 -0.858c0,-0.081 -0.033,-0.154 -0.085,-0.207l-0.002 -0.002c-0.054,-0.054 -0.128,-0.087 -0.209,-0.087z"/>
   <path class="fil3" d="M0.678 0.172c-0.04,0.075 -0.099,0.126 -0.099,0.181 0,0.055 0.045,0.099 0.099,0.099 0.055,0 0.099,-0.044 0.099,-0.099 0,-0.055 -0.058,-0.106 -0.099,-0.181z"/>
   <path class="fil2" d="M0.678 0.248l-0.015 0.022c-0.023,0.033 -0.043,0.061 -0.043,0.083 0,0.016 0.006,0.031 0.017,0.042 0.01,0.01 0.025,0.017 0.041,0.017 0.017,0 0.031,-0.007 0.042,-0.017 0.011,-0.011 0.017,-0.026 0.017,-0.042 0,-0.022 -0.02,-0.05 -0.043,-0.083l-0.016 -0.022zm-0.08 -0.025c0.015,-0.021 0.031,-0.044 0.045,-0.07 0.004,-0.007 0.009,-0.012 0.017,-0.016 0.019,-0.011 0.043,-0.003 0.054,0.016 0.013,0.025 0.029,0.048 0.044,0.068l0.001 0.002c0.032,0.045 0.059,0.083 0.059,0.13 0,0.039 -0.016,0.073 -0.041,0.099 -0.025,0.025 -0.06,0.04 -0.099,0.04 -0.038,0 -0.073,-0.015 -0.098,-0.04 -0.025,-0.026 -0.041,-0.06 -0.041,-0.099 0,-0.047 0.027,-0.085 0.059,-0.13z"/>
   <polygon class="fil3" points="0.593,0.593 0.764,0.593 0.764,1.095 0.593,1.095 "/>
   <path class="fil2" d="M0.593 0.553l0.171 0c0.022,0 0.04,0.018 0.04,0.04l0 0.502c0,0.022 -0.018,0.04 -0.04,0.04l-0.171 0c-0.022,0 -0.04,-0.018 -0.04,-0.04l0 -0.502c0,-0.022 0.018,-0.04 0.04,-0.04zm0.131 0.08l-0.091 0 0 0.422 0.091 0 0 -0.422z"/>
   <path class="fil3" d="M1.208 0.081c-0.04,0.075 -0.099,0.126 -0.099,0.181 0,0.054 0.044,0.099 0.099,0.099 0.055,0 0.099,-0.045 0.099,-0.099 0,-0.055 -0.059,-0.106 -0.099,-0.181z"/>
   <path class="fil2" d="M1.208 0.156l-0.015 0.022c-0.024,0.033 -0.044,0.062 -0.044,0.084 0,0.016 0.007,0.031 0.017,0.041 0.011,0.011 0.026,0.018 0.042,0.018 0.016,0 0.031,-0.007 0.042,-0.018l0.001 -0.001c0.01,-0.011 0.016,-0.025 0.016,-0.04 0,-0.022 -0.02,-0.051 -0.044,-0.084l-0.015 -0.022zm-0.081 -0.024c0.015,-0.021 0.032,-0.044 0.045,-0.07 0.004,-0.007 0.01,-0.013 0.017,-0.017 0.02,-0.01 0.044,-0.003 0.054,0.017 0.014,0.025 0.031,0.049 0.046,0.07 0.031,0.045 0.058,0.083 0.058,0.13 0,0.037 -0.014,0.071 -0.038,0.096l-0.003 0.002c-0.025,0.025 -0.06,0.041 -0.098,0.041 -0.039,0 -0.073,-0.016 -0.099,-0.041 -0.025,-0.025 -0.04,-0.06 -0.04,-0.098 0,-0.047 0.027,-0.085 0.058,-0.13z"/>
   <polygon class="fil3" points="1.122,0.502 1.294,0.502 1.294,1.101 1.122,1.101 "/>
   <path class="fil2" d="M1.122 0.461l0.172 0c0.022,0 0.04,0.018 0.04,0.041l0 0.599c0,0.022 -0.018,0.04 -0.04,0.04l-0.172 0c-0.022,0 -0.04,-0.018 -0.04,-0.04l0 -0.599c0,-0.023 0.018,-0.041 0.04,-0.041zm0.131 0.081l-0.09 0 0 0.518 0.09 0 0 -0.518z"/>
   <path class="fil3" d="M1.737 0.172c-0.04,0.075 -0.099,0.126 -0.099,0.181 0,0.055 0.045,0.099 0.099,0.099 0.055,0 0.099,-0.044 0.099,-0.099 0,-0.055 -0.058,-0.106 -0.099,-0.181z"/>
   <path class="fil2" d="M1.737 0.248l-0.015 0.022c-0.023,0.033 -0.043,0.061 -0.043,0.083 0,0.016 0.006,0.031 0.017,0.042 0.01,0.01 0.025,0.017 0.041,0.017 0.017,0 0.031,-0.007 0.042,-0.017 0.011,-0.011 0.017,-0.026 0.017,-0.042 0,-0.022 -0.02,-0.05 -0.043,-0.083l-0.016 -0.022zm-0.08 -0.025c0.015,-0.021 0.031,-0.044 0.045,-0.07 0.004,-0.007 0.009,-0.012 0.017,-0.016 0.019,-0.011 0.043,-0.003 0.054,0.016 0.013,0.025 0.029,0.048 0.044,0.068l0.001 0.002c0.032,0.045 0.059,0.083 0.059,0.13 0,0.039 -0.016,0.073 -0.041,0.099 -0.025,0.025 -0.06,0.04 -0.099,0.04 -0.038,0 -0.073,-0.015 -0.098,-0.04 -0.025,-0.026 -0.041,-0.06 -0.041,-0.099 0,-0.047 0.027,-0.085 0.059,-0.13z"/>
   <polygon class="fil3" points="1.652,0.593 1.823,0.593 1.823,1.101 1.652,1.101 "/>
   <path class="fil2" d="M1.652 0.553l0.171 0c0.022,0 0.04,0.018 0.04,0.04l0 0.508c0,0.022 -0.018,0.04 -0.04,0.04l-0.171 0c-0.022,0 -0.04,-0.018 -0.04,-0.04l0 -0.508c0,-0.022 0.018,-0.04 0.04,-0.04zm0.131 0.08l-0.091 0 0 0.427 0.091 0 0 -0.427z"/>
   <path class="fil3" d="M2.255 2.335l0 -0.693c-0.109,-0.051 -0.129,-0.195 -0.288,-0.194 -0.196,-0.001 -0.182,0.214 -0.378,0.211 -0.196,0.003 -0.183,-0.212 -0.378,-0.211 -0.195,-0.001 -0.182,0.214 -0.378,0.211 -0.196,0.003 -0.182,-0.212 -0.377,-0.211 -0.163,-0.001 -0.181,0.148 -0.295,0.197l0 0.69 2.094 0z"/>
   <path class="fil2" d="M2.215 2.295l0 -0.63c-0.038,-0.023 -0.064,-0.054 -0.091,-0.085 -0.039,-0.046 -0.079,-0.092 -0.157,-0.092l-0.001 0c-0.078,0 -0.118,0.046 -0.157,0.092 -0.052,0.061 -0.103,0.121 -0.22,0.12 -0.117,0.001 -0.169,-0.059 -0.22,-0.12 -0.04,-0.046 -0.079,-0.092 -0.158,-0.092l0 0c-0.079,0 -0.118,0.046 -0.157,0.092 -0.052,0.061 -0.104,0.121 -0.221,0.12 -0.116,0.001 -0.168,-0.059 -0.22,-0.12 -0.039,-0.046 -0.078,-0.092 -0.157,-0.092l0 0c-0.079,0 -0.118,0.046 -0.158,0.092 -0.028,0.033 -0.056,0.066 -0.097,0.089l0 0.626 2.014 0zm0.08 -0.653l0 0.734 -2.174 0 0 -0.758 0.024 -0.01c0.037,-0.016 0.065,-0.048 0.092,-0.08 0.052,-0.06 0.103,-0.12 0.219,-0.12l0 0c0.116,0 0.167,0.06 0.218,0.12 0.04,0.046 0.08,0.092 0.159,0.091l0.001 0c0.079,0.001 0.119,-0.045 0.159,-0.091 0.051,-0.06 0.102,-0.12 0.218,-0.12l0 0c0.116,0 0.167,0.06 0.219,0.12 0.039,0.046 0.079,0.092 0.158,0.091l0.001 0c0.08,0.001 0.119,-0.045 0.159,-0.091 0.051,-0.06 0.103,-0.12 0.218,-0.12l0.001 0c0.115,0 0.167,0.06 0.218,0.12 0.026,0.031 0.053,0.061 0.087,0.077l0.023 0.011 0 0.026z"/>
  </g>
 </g>
</svg>
