<?xml version="1.0" encoding="UTF-8"?>
<!DOCTYPE svg PUBLIC "-//W3C//DTD SVG 1.1//EN" "http://www.w3.org/Graphics/SVG/1.1/DTD/svg11.dtd">
<!-- Creator: CorelDRAW 2018 (64-Bit) -->
<svg xmlns="http://www.w3.org/2000/svg" xml:space="preserve" width="21px" height="16px" version="1.1" style="shape-rendering:geometricPrecision; text-rendering:geometricPrecision; image-rendering:optimizeQuality; fill-rule:evenodd; clip-rule:evenodd"
viewBox="0 0 1.219 0.942"
 xmlns:xlink="http://www.w3.org/1999/xlink">
 <defs>
  <style type="text/css">
   <![CDATA[
    .fil1 {fill:#00F4FF}
    .fil0 {fill:#052337;fill-rule:nonzero}
   ]]>
  </style>
 </defs>
 <g id="Layer_x0020_1">
  <metadata id="CorelCorpID_0Corel-Layer"/>
  <g id="_2117910092528">
   <path class="fil0" d="M0.071 0l1.078 0c0.019,0 0.037,0.008 0.05,0.021l0.001 0.002c0.012,0.012 0.019,0.029 0.019,0.048l0 0.8c0,0.019 -0.008,0.037 -0.02,0.05 -0.013,0.013 -0.031,0.021 -0.05,0.021l-1.078 0c-0.02,0 -0.037,-0.008 -0.05,-0.021l-0.002 -0.002c-0.012,-0.013 -0.019,-0.03 -0.019,-0.048l0 -0.8c0,-0.02 0.008,-0.037 0.021,-0.05 0.013,-0.013 0.03,-0.021 0.05,-0.021zm1.078 0.058l-1.078 0c-0.004,0 -0.007,0.001 -0.009,0.004 -0.003,0.002 -0.004,0.005 -0.004,0.009l0 0.8c0,0.003 0.001,0.006 0.003,0.008l0.001 0.001c0.002,0.002 0.005,0.004 0.009,0.004l1.078 0c0.003,0 0.006,-0.002 0.008,-0.004 0.003,-0.002 0.004,-0.005 0.004,-0.009l0 -0.8c0,-0.003 -0.001,-0.006 -0.003,-0.008l-0.001 -0.001c-0.002,-0.003 -0.005,-0.004 -0.008,-0.004z"/>
   <path class="fil1" d="M0.243 0.53c0.013,-0.004 0.039,0.006 0.056,0.01 0.043,0.01 0.095,0.01 0.138,0 0.017,-0.004 0.042,-0.014 0.055,-0.01 0.013,0.003 0.043,0.024 0.046,0.058l0.008 0.099c0.001,0.008 -0.007,0.015 -0.015,0.015l-0.326 0c-0.009,0 -0.016,-0.007 -0.016,-0.015l0.009 -0.099c0.003,-0.034 0.032,-0.055 0.045,-0.058z"/>
   <path class="fil0" d="M0.236 0.502c0.018,-0.005 0.039,0.001 0.057,0.006l0.013 0.004c0.019,0.004 0.04,0.006 0.062,0.006 0.022,0 0.043,-0.002 0.062,-0.006l0.013 -0.004c0.018,-0.005 0.039,-0.011 0.056,-0.006 0.013,0.003 0.033,0.015 0.047,0.033l0.002 0.002c0.01,0.013 0.017,0.029 0.019,0.048l0.008 0.099 0 0.004c0,0.012 -0.005,0.022 -0.013,0.03 -0.007,0.007 -0.017,0.012 -0.027,0.013 -0.108,0.003 -0.221,0 -0.33,0l-0.004 0c-0.011,-0.001 -0.021,-0.006 -0.028,-0.013 -0.008,-0.008 -0.013,-0.018 -0.013,-0.03 0.001,-0.033 0.006,-0.07 0.009,-0.103 0.002,-0.02 0.01,-0.037 0.02,-0.05 0.015,-0.018 0.035,-0.03 0.047,-0.033zm0.041 0.062c-0.011,-0.003 -0.024,-0.007 -0.026,-0.006 -0.003,0 -0.01,0.005 -0.016,0.013 -0.004,0.005 -0.008,0.012 -0.008,0.019l-0.007 0.083 0.296 0 -0.007 -0.083c-0.001,-0.007 -0.003,-0.013 -0.007,-0.018l-0.001 -0.001c-0.006,-0.008 -0.013,-0.013 -0.016,-0.013 -0.002,-0.001 -0.015,0.003 -0.027,0.006l-0.015 0.004c-0.024,0.006 -0.05,0.009 -0.075,0.009 -0.026,0 -0.052,-0.003 -0.076,-0.009 -0.006,-0.002 -0.01,-0.003 -0.015,-0.004z"/>
   <path class="fil1" d="M0.367 0.24c0.066,0 0.12,0.053 0.12,0.119 0,0.067 -0.054,0.12 -0.12,0.12 -0.066,0 -0.12,-0.053 -0.12,-0.12 0,-0.066 0.054,-0.119 0.12,-0.119z"/>
   <path class="fil0" d="M0.367 0.211c0.041,0 0.079,0.016 0.105,0.043l0.002 0.002c0.026,0.027 0.042,0.063 0.042,0.103 0,0.041 -0.017,0.079 -0.044,0.106 -0.026,0.027 -0.064,0.043 -0.105,0.043 -0.041,0 -0.078,-0.016 -0.105,-0.043 -0.027,-0.027 -0.044,-0.065 -0.044,-0.106 0,-0.041 0.017,-0.078 0.044,-0.105 0.027,-0.027 0.064,-0.043 0.105,-0.043zm0.064 0.084c-0.016,-0.016 -0.039,-0.026 -0.064,-0.026 -0.025,0 -0.048,0.01 -0.064,0.026 -0.016,0.017 -0.026,0.039 -0.026,0.064 0,0.025 0.01,0.048 0.026,0.065 0.016,0.016 0.039,0.026 0.064,0.026 0.025,0 0.048,-0.01 0.064,-0.026 0.017,-0.017 0.027,-0.04 0.027,-0.065 0,-0.024 -0.01,-0.046 -0.025,-0.062l-0.002 -0.002z"/>
   <path class="fil0" d="M1.03 0.256c0.016,0 0.029,0.013 0.029,0.03 0,0.016 -0.013,0.029 -0.029,0.029l-0.321 0c-0.016,0 -0.029,-0.013 -0.029,-0.029 0,-0.017 0.013,-0.03 0.029,-0.03l0.321 0zm0 0.186c0.016,0 0.029,0.013 0.029,0.029 0,0.016 -0.013,0.029 -0.029,0.029l-0.321 0c-0.016,0 -0.029,-0.013 -0.029,-0.029 0,-0.016 0.013,-0.029 0.029,-0.029l0.321 0zm0 0.185c0.016,0 0.029,0.013 0.029,0.029 0,0.016 -0.013,0.029 -0.029,0.029l-0.321 0c-0.016,0 -0.029,-0.013 -0.029,-0.029 0,-0.016 0.013,-0.029 0.029,-0.029l0.321 0z"/>
  </g>
 </g>
</svg>
