<?xml version="1.0" encoding="UTF-8"?>
<!DOCTYPE svg PUBLIC "-//W3C//DTD SVG 1.1//EN" "http://www.w3.org/Graphics/SVG/1.1/DTD/svg11.dtd">
<!-- Creator: CorelDRAW 2018 (64-Bit) -->
<svg xmlns="http://www.w3.org/2000/svg" xml:space="preserve" width="15px" height="13px" version="1.1" style="shape-rendering:geometricPrecision; text-rendering:geometricPrecision; image-rendering:optimizeQuality; fill-rule:evenodd; clip-rule:evenodd"
viewBox="0 0 0.213 0.189"
 xmlns:xlink="http://www.w3.org/1999/xlink">
 <defs>
  <style type="text/css">
   <![CDATA[
    .fil0 {fill:#052337;fill-rule:nonzero}
   ]]>
  </style>
 </defs>
 <g id="Layer_x0020_1">
  <metadata id="CorelCorpID_0Corel-Layer"/>
  <g id="_1775910847280">
   <path class="fil0" d="M0 0.173l0 -0.103c0,-0.004 0.002,-0.008 0.005,-0.011 0.003,-0.003 0.007,-0.005 0.011,-0.005l0.023 0c0.004,0 0.008,0.002 0.011,0.005 0.003,0.003 0.005,0.007 0.005,0.011l0 0.103c0,0.005 -0.002,0.009 -0.005,0.012 -0.003,0.002 -0.007,0.004 -0.011,0.004l-0.023 0c-0.004,0 -0.008,-0.002 -0.011,-0.004 -0.003,-0.003 -0.005,-0.007 -0.005,-0.012zm0.015 -0.103l0 0.103c0,0.001 0,0.001 0,0.001 0,0.001 0.001,0.001 0.001,0.001l0.023 0c0,0 0,0 0.001,-0.001 0,0 0,0 0,-0.001l0 -0.103c0,0 0,0 0,-0.001 -0.001,0 -0.001,0 -0.001,0l-0.023 0c0,0 -0.001,0 -0.001,0 0,0.001 0,0.001 0,0.001z"/>
   <path class="fil0" d="M0.08 0.173l0 -0.157c0,-0.004 0.002,-0.008 0.005,-0.011 0.003,-0.003 0.007,-0.005 0.011,-0.005l0.023 0c0.004,0 0.008,0.002 0.011,0.005l0 0c0.003,0.003 0.005,0.007 0.005,0.011l0 0.157c0,0.005 -0.002,0.009 -0.005,0.012 -0.003,0.002 -0.007,0.004 -0.011,0.004l-0.023 0c-0.004,0 -0.008,-0.002 -0.011,-0.004 -0.003,-0.003 -0.005,-0.007 -0.005,-0.012zm0.015 -0.157l0 0.157c0,0.001 0,0.001 0,0.001 0,0.001 0.001,0.001 0.001,0.001l0.023 0c0,0 0,0 0.001,-0.001 0,0 0,0 0,-0.001l0 -0.157c0,0 0,-0.001 0,-0.001 -0.001,0 -0.001,0 -0.001,0l-0.023 0c0,0 -0.001,0 -0.001,0 0,0 0,0.001 0,0.001z"/>
   <path class="fil0" d="M0.159 0.173l0 -0.06c0,-0.004 0.002,-0.008 0.005,-0.011 0.002,-0.003 0.006,-0.005 0.011,-0.005l0.023 0c0.004,0 0.008,0.002 0.011,0.005l0 0c0.003,0.003 0.004,0.007 0.004,0.011l0 0.06c0,0.005 -0.001,0.009 -0.004,0.012 -0.003,0.002 -0.007,0.004 -0.011,0.004l-0.023 0c-0.005,0 -0.009,-0.002 -0.011,-0.004 -0.003,-0.003 -0.005,-0.007 -0.005,-0.012zm0.014 -0.06l0 0.06c0,0.001 0.001,0.001 0.001,0.001 0,0.001 0,0.001 0.001,0.001l0.023 0c0,0 0,0 0,-0.001 0.001,0 0.001,0 0.001,-0.001l0 -0.06c0,0 0,-0.001 0,-0.001 -0.001,0 -0.001,0 -0.001,0l-0.023 0c-0.001,0 -0.001,0 -0.001,0 0,0 -0.001,0.001 -0.001,0.001z"/>
  </g>
 </g>
</svg>
