<?xml version="1.0" encoding="UTF-8"?>
<!DOCTYPE svg PUBLIC "-//W3C//DTD SVG 1.1//EN" "http://www.w3.org/Graphics/SVG/1.1/DTD/svg11.dtd">
<!-- Creator: CorelDRAW 2018 (64-Bit) -->
<svg xmlns="http://www.w3.org/2000/svg" xml:space="preserve" width="24px" height="24px" version="1.1" style="shape-rendering:geometricPrecision; text-rendering:geometricPrecision; image-rendering:optimizeQuality; fill-rule:evenodd; clip-rule:evenodd"
viewBox="0 0 0.368 0.368"
 xmlns:xlink="http://www.w3.org/1999/xlink">
 <defs>
  <style type="text/css">
   <![CDATA[
    .fil0 {fill:none}
    .fil1 {fill:#052337;fill-rule:nonzero}
   ]]>
  </style>
 </defs>
 <g id="Layer_x0020_1">
  <metadata id="CorelCorpID_0Corel-Layer"/>
  <g id="_1776328738272">
   <rect class="fil0" width="0.368" height="0.368"/>
   <g>
    <path class="fil1" d="M0.117 0.264c0.004,0.003 0.004,0.007 0.001,0.011 -0.002,0.003 -0.007,0.003 -0.01,0.001 -0.014,-0.012 -0.025,-0.026 -0.032,-0.041 -0.007,-0.016 -0.011,-0.033 -0.011,-0.051 0,-0.031 0.012,-0.059 0.031,-0.08 0.02,-0.022 0.047,-0.036 0.078,-0.039 0.004,0 0.008,0.003 0.008,0.007 0.001,0.005 -0.003,0.008 -0.007,0.009 -0.027,0.002 -0.05,0.015 -0.067,0.033 -0.017,0.019 -0.028,0.043 -0.028,0.07 0,0.016 0.004,0.031 0.01,0.044 0.006,0.014 0.016,0.026 0.027,0.036zm0.134 -0.159c-0.003,-0.003 -0.004,-0.008 -0.001,-0.011 0.003,-0.003 0.008,-0.004 0.011,-0.001 0.013,0.011 0.024,0.025 0.031,0.041 0.008,0.015 0.011,0.033 0.011,0.05 0,0.031 -0.011,0.059 -0.031,0.081 -0.019,0.021 -0.047,0.035 -0.077,0.038 -0.005,0 -0.008,-0.003 -0.009,-0.007 0,-0.004 0.003,-0.008 0.007,-0.008 0.027,-0.003 0.051,-0.015 0.068,-0.034 0.017,-0.018 0.027,-0.043 0.027,-0.07 0,-0.015 -0.003,-0.03 -0.01,-0.044 -0.006,-0.013 -0.015,-0.025 -0.027,-0.035z"/>
    <path class="fil1" d="M0.19 0.329l-0.047 -0.027c-0.003,-0.002 -0.005,-0.007 -0.002,-0.01 0,-0.002 0.001,-0.003 0.002,-0.003l0.047 -0.027c0.004,-0.002 0.008,-0.001 0.011,0.003 0,0.001 0.001,0.002 0.001,0.003l0 0.054c0,0.005 -0.004,0.008 -0.008,0.008 -0.002,0 -0.003,0 -0.004,-0.001zm-0.028 -0.034l0.024 0.014 0 -0.027 -0.024 0.013z"/>
    <path class="fil1" d="M0.182 0.087l0.024 -0.014 -0.024 -0.014 0 0.028zm0.043 -0.007l-0.046 0.026c-0.001,0.001 -0.003,0.002 -0.004,0.002 -0.005,0 -0.008,-0.004 -0.008,-0.008l0 -0.054c0,-0.001 0,-0.003 0.001,-0.004 0.002,-0.003 0.007,-0.005 0.01,-0.003l0.047 0.027c0.001,0.001 0.002,0.002 0.003,0.003 0.002,0.004 0.001,0.009 -0.003,0.011z"/>
   </g>
  </g>
 </g>
</svg>
