<?xml version="1.0" encoding="UTF-8"?>
<!DOCTYPE svg PUBLIC "-//W3C//DTD SVG 1.1//EN" "http://www.w3.org/Graphics/SVG/1.1/DTD/svg11.dtd">
<!-- Creator: CorelDRAW 2018 (64-Bit) -->
<svg xmlns="http://www.w3.org/2000/svg" xml:space="preserve" width="24px" height="24px" version="1.1" style="shape-rendering:geometricPrecision; text-rendering:geometricPrecision; image-rendering:optimizeQuality; fill-rule:evenodd; clip-rule:evenodd"
viewBox="0 0 0.348 0.348"
 xmlns:xlink="http://www.w3.org/1999/xlink">
 <defs>
  <style type="text/css">
   <![CDATA[
    .fil0 {fill:none}
    .fil1 {fill:#052337;fill-rule:nonzero}
   ]]>
  </style>
 </defs>
 <g id="Layer_x0020_1">
  <metadata id="CorelCorpID_0Corel-Layer"/>
  <g id="_1775908556256">
   <rect class="fil0" width="0.348" height="0.348"/>
   <g>
    <path class="fil1" d="M0.086 0.217c0.002,0.004 0,0.008 -0.003,0.01 -0.004,0.002 -0.008,0 -0.01,-0.003 -0.004,-0.008 -0.007,-0.016 -0.009,-0.024 -0.002,-0.009 -0.003,-0.017 -0.003,-0.026 0,-0.029 0.012,-0.056 0.03,-0.076 0.019,-0.02 0.044,-0.034 0.073,-0.036 0.004,0 0.008,0.003 0.008,0.006 0.001,0.004 -0.002,0.008 -0.006,0.008 -0.026,0.003 -0.048,0.014 -0.064,0.032 -0.016,0.017 -0.026,0.041 -0.026,0.066 0,0.008 0.001,0.015 0.002,0.022 0.002,0.008 0.005,0.015 0.008,0.021zm0.175 -0.089c-0.002,-0.003 0,-0.008 0.003,-0.009 0.004,-0.002 0.008,-0.001 0.01,0.003 0.004,0.008 0.007,0.016 0.01,0.025 0.002,0.009 0.003,0.018 0.003,0.027 0,0.029 -0.011,0.056 -0.03,0.076 -0.018,0.02 -0.044,0.034 -0.073,0.037 -0.004,0 -0.008,-0.003 -0.008,-0.007 0,-0.004 0.003,-0.008 0.007,-0.008 0.025,-0.002 0.048,-0.014 0.064,-0.031 0.016,-0.018 0.025,-0.041 0.025,-0.067 0,-0.008 -0.001,-0.016 -0.002,-0.023 -0.002,-0.008 -0.005,-0.016 -0.009,-0.023z"/>
    <path class="fil1" d="M0.179 0.311l-0.043 -0.025c-0.004,-0.002 -0.005,-0.007 -0.003,-0.01 0,-0.001 0.001,-0.002 0.002,-0.003l0.045 -0.026c0.003,-0.002 0.008,0 0.01,0.003 0,0.001 0.001,0.002 0.001,0.004l0 0.051c0,0.004 -0.004,0.007 -0.008,0.007 -0.001,0 -0.003,0 -0.004,-0.001zm-0.025 -0.032l0.022 0.013 0 -0.026 -0.022 0.013z"/>
    <path class="fil1" d="M0.172 0.082l0.023 -0.013 -0.023 -0.013 0 0.026zm0.041 -0.007l-0.044 0.026c-0.001,0 -0.002,0.001 -0.004,0.001 -0.004,0 -0.007,-0.003 -0.007,-0.007l0 -0.051c0,-0.002 0,-0.003 0.001,-0.004 0.002,-0.004 0.006,-0.005 0.01,-0.003l0.044 0.026c0.001,0 0.002,0.001 0.003,0.003 0.002,0.003 0,0.007 -0.003,0.009z"/>
    <path class="fil1" d="M0.289 0.049c0.003,-0.003 0.007,-0.003 0.01,0 0.003,0.003 0.003,0.008 0,0.011l-0.239 0.239c-0.003,0.003 -0.008,0.003 -0.011,0 -0.003,-0.003 -0.003,-0.007 0,-0.01l0.24 -0.24z"/>
   </g>
  </g>
 </g>
</svg>
