<?xml version="1.0" encoding="UTF-8"?>
<!DOCTYPE svg PUBLIC "-//W3C//DTD SVG 1.1//EN" "http://www.w3.org/Graphics/SVG/1.1/DTD/svg11.dtd">
<!-- Creator: CorelDRAW 2018 (64-Bit) -->
<svg xmlns="http://www.w3.org/2000/svg" xml:space="preserve" width="48px" height="38px" version="1.1" style="shape-rendering:geometricPrecision; text-rendering:geometricPrecision; image-rendering:optimizeQuality; fill-rule:evenodd; clip-rule:evenodd"
viewBox="0 0 4.116 3.292"
 xmlns:xlink="http://www.w3.org/1999/xlink">
 <defs>
  <style type="text/css">
   <![CDATA[
    .fil0 {fill:none}
    .fil2 {fill:#00F4FF}
    .fil1 {fill:gray;fill-rule:nonzero}
   ]]>
  </style>
 </defs>
 <g id="Layer_x0020_1">
  <metadata id="CorelCorpID_0Corel-Layer"/>
  <g id="_1781577982512">
   <rect class="fil0" width="4.116" height="3.292"/>
   <path class="fil1" d="M3.103 0.403l-2.09 0c-0.055,0 -0.104,0.022 -0.14,0.058 -0.036,0.036 -0.058,0.086 -0.058,0.14l0 2.09c0,0.055 0.022,0.104 0.058,0.14 0.036,0.036 0.085,0.058 0.14,0.058l2.09 0c0.054,0 0.104,-0.022 0.14,-0.058 0.036,-0.036 0.058,-0.085 0.058,-0.14l0 -2.09c0,-0.054 -0.022,-0.104 -0.058,-0.14 -0.036,-0.036 -0.086,-0.058 -0.14,-0.058zm-2.09 -0.086l2.09 0c0.078,0 0.149,0.032 0.2,0.084 0.052,0.051 0.084,0.122 0.084,0.2l0 2.09c0,0.078 -0.032,0.149 -0.084,0.201 -0.051,0.051 -0.122,0.083 -0.2,0.083l-2.09 0c-0.078,0 -0.149,-0.032 -0.201,-0.083 -0.051,-0.052 -0.083,-0.123 -0.083,-0.201l0 -2.09c0,-0.078 0.032,-0.149 0.083,-0.2 0.052,-0.052 0.123,-0.084 0.201,-0.084z"/>
   <path class="fil2" d="M2.043 0.916c0,-0.098 0.076,-0.101 0.13,-0.047l0.713 0.713c0.036,0.036 0.036,0.093 0,0.128l-0.713 0.713c-0.054,0.055 -0.13,0.051 -0.13,-0.047l0 -0.317c0,-0.051 -0.042,-0.092 -0.093,-0.092l-0.655 0c-0.051,0 -0.092,-0.042 -0.092,-0.093l0 -0.456c0,-0.05 0.041,-0.092 0.092,-0.092l0.655 0c0.051,0 0.093,-0.042 0.093,-0.093l0 -0.317z"/>
   <path class="fil1" d="M2 0.916c0,-0.031 0.006,-0.056 0.017,-0.075 0.012,-0.022 0.031,-0.037 0.052,-0.045 0.02,-0.007 0.042,-0.007 0.064,0 0.024,0.006 0.049,0.021 0.071,0.043l0.715 0.716c0.025,0.025 0.037,0.058 0.037,0.091 0,0.034 -0.013,0.068 -0.039,0.095l-0.713 0.713c-0.022,0.021 -0.047,0.036 -0.071,0.043 -0.022,0.006 -0.044,0.006 -0.064,-0.001 -0.021,-0.007 -0.04,-0.022 -0.052,-0.045 -0.011,-0.019 -0.017,-0.044 -0.017,-0.075l0 -0.317c0,-0.014 -0.006,-0.026 -0.015,-0.035l-0.001 -0.002c-0.009,-0.008 -0.021,-0.013 -0.034,-0.013l-0.655 0c-0.037,0 -0.071,-0.015 -0.096,-0.039l-0.002 -0.003c-0.023,-0.024 -0.037,-0.057 -0.037,-0.093l0 -0.456c0,-0.037 0.015,-0.071 0.039,-0.095 0.025,-0.025 0.059,-0.04 0.096,-0.04l0.655 0c0.014,0 0.026,-0.006 0.035,-0.014 0.009,-0.01 0.015,-0.022 0.015,-0.036l0 -0.317zm0.092 -0.033c-0.004,0.006 -0.007,0.018 -0.007,0.033l0 0.317c0,0.038 -0.015,0.072 -0.039,0.096 -0.025,0.025 -0.059,0.04 -0.096,0.04l-0.655 0c-0.014,0 -0.026,0.005 -0.035,0.014 -0.009,0.009 -0.014,0.022 -0.014,0.035l0 0.456c0,0.013 0.004,0.025 0.012,0.034l0.002 0.001c0.009,0.009 0.021,0.015 0.035,0.015l0.655 0c0.036,0 0.069,0.014 0.093,0.037l0.003 0.002c0.024,0.025 0.039,0.059 0.039,0.096l0 0.317c0,0.016 0.003,0.027 0.007,0.034 0.001,0.003 0.003,0.005 0.005,0.005 0.003,0.001 0.007,0.001 0.013,-0.001 0.01,-0.002 0.022,-0.01 0.033,-0.021l0.713 -0.713c0.009,-0.009 0.014,-0.022 0.014,-0.034 0,-0.011 -0.004,-0.023 -0.012,-0.032l-0.715 -0.715c-0.011,-0.011 -0.023,-0.018 -0.033,-0.021 -0.006,-0.002 -0.01,-0.002 -0.013,-0.001 -0.002,0.001 -0.004,0.003 -0.005,0.006z"/>
  </g>
 </g>
</svg>
