<?xml version="1.0" encoding="UTF-8"?>
<!DOCTYPE svg PUBLIC "-//W3C//DTD SVG 1.1//EN" "http://www.w3.org/Graphics/SVG/1.1/DTD/svg11.dtd">
<!-- Creator: CorelDRAW 2018 (64-Bit) -->
<svg xmlns="http://www.w3.org/2000/svg" xml:space="preserve" width="24px" height="24px" version="1.1" style="shape-rendering:geometricPrecision; text-rendering:geometricPrecision; image-rendering:optimizeQuality; fill-rule:evenodd; clip-rule:evenodd"
viewBox="0 0 1.538 1.538"
 xmlns:xlink="http://www.w3.org/1999/xlink">
 <defs>
  <style type="text/css">
   <![CDATA[
    .fil2 {fill:none}
    .fil0 {fill:#00F4FF}
    .fil1 {fill:gray;fill-rule:nonzero}
   ]]>
  </style>
 </defs>
 <g id="Layer_x0020_1">
  <metadata id="CorelCorpID_0Corel-Layer"/>
  <g id="_1817085291264">
   <path class="fil0" d="M0.912 0.336c0.06,0.02 0.114,0.052 0.16,0.093l0.198 -0.06c0.04,0.05 0.072,0.106 0.096,0.166l-0.151 0.141c0.007,0.03 0.01,0.061 0.01,0.093 0,0.032 -0.003,0.063 -0.01,0.093l0.151 0.141c-0.024,0.06 -0.056,0.116 -0.096,0.166l-0.198 -0.06c-0.046,0.041 -0.1,0.073 -0.16,0.093l-0.047 0.201c-0.031,0.005 -0.063,0.007 -0.096,0.007 -0.032,0 -0.064,-0.002 -0.096,-0.007l-0.047 -0.201c-0.06,-0.02 -0.114,-0.052 -0.16,-0.093l-0.198 0.06c-0.04,-0.05 -0.072,-0.106 -0.096,-0.166l0.151 -0.141c-0.006,-0.03 -0.009,-0.061 -0.009,-0.093 0,-0.032 0.003,-0.063 0.009,-0.093l-0.151 -0.141c0.024,-0.06 0.056,-0.116 0.096,-0.166l0.198 0.06c0.046,-0.041 0.1,-0.073 0.16,-0.093l0.047 -0.201c0.032,-0.004 0.064,-0.007 0.096,-0.007 0.033,0 0.065,0.003 0.096,0.007l0.047 0.201zm-0.143 0.231c0.112,0 0.202,0.091 0.202,0.202 0,0.112 -0.09,0.202 -0.202,0.202 -0.111,0 -0.202,-0.09 -0.202,-0.202 0,-0.111 0.091,-0.202 0.202,-0.202z"/>
   <path class="fil1" d="M0.939 0.312c0.026,0.009 0.05,0.021 0.074,0.035 0.023,0.013 0.046,0.029 0.067,0.046l0.181 -0.054c0.014,-0.004 0.028,0.001 0.036,0.012 0.02,0.026 0.038,0.053 0.055,0.082 0.017,0.029 0.032,0.059 0.044,0.09 0.005,0.013 0.001,0.028 -0.009,0.036l-0.137 0.129c0.002,0.01 0.003,0.021 0.004,0.031l0 0.001c0.002,0.017 0.003,0.033 0.003,0.049 0,0.016 -0.001,0.033 -0.003,0.05 -0.001,0.011 -0.002,0.021 -0.004,0.032l0.138 0.129c0.01,0.009 0.012,0.023 0.008,0.035 -0.012,0.031 -0.027,0.062 -0.044,0.091 -0.017,0.029 -0.036,0.056 -0.057,0.083 -0.008,0.01 -0.022,0.014 -0.034,0.01l-0.181 -0.054c-0.021,0.017 -0.044,0.033 -0.067,0.047 -0.024,0.013 -0.048,0.025 -0.074,0.034l-0.043 0.184c-0.003,0.013 -0.014,0.023 -0.026,0.025 -0.017,0.002 -0.033,0.004 -0.05,0.005 -0.017,0.002 -0.034,0.002 -0.051,0.002 -0.016,0 -0.033,0 -0.05,-0.002 -0.017,-0.001 -0.034,-0.003 -0.05,-0.005 -0.014,-0.002 -0.025,-0.013 -0.027,-0.026l-0.043 -0.183c-0.025,-0.009 -0.05,-0.021 -0.074,-0.034 -0.023,-0.014 -0.046,-0.03 -0.067,-0.047l-0.181 0.055c-0.013,0.004 -0.028,-0.002 -0.035,-0.013 -0.021,-0.025 -0.039,-0.053 -0.056,-0.081 -0.017,-0.029 -0.031,-0.06 -0.043,-0.091 -0.006,-0.013 -0.002,-0.027 0.008,-0.036l0.137 -0.128c-0.001,-0.011 -0.003,-0.021 -0.004,-0.032 -0.002,-0.017 -0.003,-0.034 -0.003,-0.05 0,-0.016 0.001,-0.033 0.003,-0.05 0.001,-0.01 0.003,-0.021 0.004,-0.031l-0.138 -0.13c-0.009,-0.009 -0.012,-0.023 -0.007,-0.035 0.012,-0.031 0.026,-0.061 0.043,-0.09 0.017,-0.03 0.036,-0.057 0.057,-0.084 0.008,-0.01 0.022,-0.014 0.034,-0.01l0.181 0.054c0.021,-0.017 0.044,-0.033 0.067,-0.046 0.024,-0.014 0.049,-0.026 0.074,-0.035l0.043 -0.184c0.003,-0.013 0.014,-0.023 0.027,-0.024 0.016,-0.003 0.033,-0.005 0.05,-0.006 0.017,-0.001 0.034,-0.002 0.05,-0.002 0.017,0 0.034,0.001 0.05,0.002 0.017,0.001 0.034,0.003 0.05,0.006 0.014,0.002 0.025,0.012 0.027,0.025l0.043 0.183zm0.042 0.09c-0.025,-0.014 -0.051,-0.026 -0.079,-0.035 -0.01,-0.004 -0.019,-0.012 -0.021,-0.023l-0.042 -0.18 -0.024 -0.002c-0.015,-0.001 -0.03,-0.002 -0.046,-0.002 -0.016,0 -0.031,0.001 -0.046,0.002l-0.023 0.002 -0.042 0.178c-0.002,0.011 -0.01,0.021 -0.022,0.025 -0.027,0.009 -0.054,0.021 -0.079,0.035 -0.024,0.014 -0.047,0.031 -0.068,0.049 -0.008,0.009 -0.02,0.012 -0.032,0.009l-0.177 -0.054c-0.014,0.019 -0.027,0.039 -0.038,0.059 -0.012,0.02 -0.022,0.04 -0.032,0.062l0.135 0.126c0.008,0.008 0.012,0.019 0.009,0.03 -0.003,0.014 -0.005,0.028 -0.006,0.043 -0.002,0.013 -0.002,0.028 -0.002,0.043 0,0.016 0,0.03 0.002,0.044 0.001,0.014 0.003,0.028 0.006,0.042 0.003,0.01 -0.001,0.022 -0.009,0.03l-0.135 0.126c0.01,0.022 0.02,0.043 0.032,0.063 0.011,0.02 0.024,0.039 0.038,0.058l0.177 -0.053c0.01,-0.003 0.022,-0.001 0.03,0.006 0.022,0.02 0.045,0.037 0.07,0.051 0.025,0.015 0.052,0.026 0.079,0.036 0.011,0.003 0.019,0.011 0.022,0.023l0.042 0.179 0.023 0.002c0.015,0.002 0.03,0.002 0.046,0.002 0.016,0 0.031,0 0.046,-0.002l0.024 -0.002 0.042 -0.178c0.002,-0.011 0.01,-0.021 0.021,-0.024 0.028,-0.01 0.054,-0.021 0.079,-0.036 0.024,-0.014 0.047,-0.03 0.068,-0.049 0.008,-0.008 0.021,-0.012 0.033,-0.008l0.176 0.053c0.014,-0.019 0.027,-0.038 0.039,-0.058 0.011,-0.02 0.022,-0.041 0.031,-0.063l-0.135 -0.126c-0.007,-0.007 -0.011,-0.018 -0.009,-0.029 0.003,-0.014 0.005,-0.029 0.007,-0.043 0.001,-0.014 0.002,-0.029 0.002,-0.044 0,-0.015 -0.001,-0.029 -0.002,-0.042l0 -0.001c-0.002,-0.014 -0.004,-0.028 -0.007,-0.042 -0.002,-0.011 0.001,-0.023 0.009,-0.031l0.135 -0.126c-0.009,-0.022 -0.02,-0.042 -0.031,-0.062 -0.012,-0.02 -0.025,-0.04 -0.039,-0.059l-0.176 0.054c-0.011,0.003 -0.022,0.001 -0.031,-0.007 -0.021,-0.019 -0.045,-0.036 -0.07,-0.051zm-0.212 0.133c0.065,0 0.123,0.026 0.166,0.069 0.042,0.042 0.068,0.101 0.068,0.165 0,0.065 -0.026,0.123 -0.068,0.166 -0.043,0.042 -0.101,0.068 -0.166,0.068 -0.064,0 -0.123,-0.026 -0.165,-0.068 -0.043,-0.043 -0.069,-0.101 -0.069,-0.166 0,-0.064 0.026,-0.123 0.069,-0.165l0.002 -0.002c0.042,-0.041 0.1,-0.067 0.163,-0.067zm0.12 0.114c-0.03,-0.031 -0.073,-0.05 -0.12,-0.05 -0.046,0 -0.088,0.019 -0.119,0.048l-0.001 0.002c-0.031,0.031 -0.05,0.073 -0.05,0.12 0,0.047 0.019,0.09 0.05,0.12 0.031,0.031 0.073,0.05 0.12,0.05 0.047,0 0.09,-0.019 0.12,-0.05 0.031,-0.03 0.05,-0.073 0.05,-0.12 0,-0.047 -0.019,-0.089 -0.05,-0.12z"/>
   <rect class="fil2" width="1.538" height="1.538"/>
  </g>
 </g>
</svg>
