<?xml version="1.0" encoding="UTF-8"?>
<!DOCTYPE svg PUBLIC "-//W3C//DTD SVG 1.0//EN" "http://www.w3.org/TR/2001/REC-SVG-20010904/DTD/svg10.dtd">
<!-- Creator: CorelDRAW 2018 (64-Bit) -->
<svg xmlns="http://www.w3.org/2000/svg" xml:space="preserve" width="0.23552in" height="0.291669in" version="1.0" style="shape-rendering:geometricPrecision; text-rendering:geometricPrecision; image-rendering:optimizeQuality; fill-rule:evenodd; clip-rule:evenodd"
viewBox="0 0 3.66 4.53"
 xmlns:xlink="http://www.w3.org/1999/xlink">
 <defs>
  <style type="text/css">
   <![CDATA[
    .str1 {stroke:gray;stroke-width:0.22;stroke-miterlimit:2.61313}
    .str0 {stroke:gray;stroke-width:0.22;stroke-linecap:round;stroke-linejoin:round;stroke-miterlimit:2.61313}
    .fil1 {fill:none}
    .fil0 {fill:#00F4FF}
   ]]>
  </style>
 </defs>
 <g id="Layer_x0020_1">
  <metadata id="CorelCorpID_0Corel-Layer"/>
  <g id="_2130486214672">
   <path class="fil0 str0" d="M0.45 1.83c0,-0.67 0.48,-1.23 1.12,-1.36l0 -0.13c0.01,-0.13 0.13,-0.24 0.27,-0.24 0.14,0 0.25,0.1 0.27,0.24l0 0.13c0.64,0.12 1.12,0.68 1.12,1.36 0,1 -0.12,1.14 0.33,2.03 0.03,0.05 -0,0.12 -0.07,0.12l-1.65 0 -1.65 0c-0.06,0 -0.09,-0.07 -0.07,-0.12 0.45,-0.9 0.33,-1.03 0.33,-2.03z"/>
   <path class="fil1 str0" d="M0.93 2.46l0 -0.56c0,-0.43 0.31,-0.8 0.72,-0.88"/>
   <path class="fil1 str1" d="M1.37 3.98c0.01,0.24 0.22,0.44 0.46,0.44 0.25,0 0.45,-0.19 0.46,-0.44"/>
  </g>
 </g>
</svg>
