<?xml version="1.0" encoding="UTF-8"?>
<!DOCTYPE svg PUBLIC "-//W3C//DTD SVG 1.1//EN" "http://www.w3.org/Graphics/SVG/1.1/DTD/svg11.dtd">
<!-- Creator: CorelDRAW 2018 (64-Bit) -->
<svg xmlns="http://www.w3.org/2000/svg" xml:space="preserve" width="26px" height="29px" version="1.1" style="shape-rendering:geometricPrecision; text-rendering:geometricPrecision; image-rendering:optimizeQuality; fill-rule:evenodd; clip-rule:evenodd"
viewBox="0 0 0.788 0.87"
 xmlns:xlink="http://www.w3.org/1999/xlink">
 <defs>
  <style type="text/css">
   <![CDATA[
    .fil2 {fill:#00F4FF}
    .fil4 {fill:#052337}
    .fil3 {fill:#32495E}
    .fil0 {fill:white}
    .fil1 {fill:#052337;fill-rule:nonzero}
   ]]>
  </style>
 </defs>
 <g id="Layer_x0020_1">
  <metadata id="CorelCorpID_0Corel-Layer"/>
  <g id="_2081094371008">
   <path class="fil0" d="M0.394 0.583l0.094 -0.052c-0.007,-0.02 -0.007,-0.045 0.004,-0.076 -0.028,0.028 -0.061,0.048 -0.098,0.048 -0.037,0 -0.071,-0.02 -0.098,-0.048 0.011,0.031 0.011,0.056 0.004,0.076l0.094 0.052z"/>
   <path class="fil1" d="M0.394 0.566l0.076 -0.043c-0.002,-0.008 -0.002,-0.017 -0.002,-0.026l0 -0.003c-0.005,0.004 -0.011,0.007 -0.017,0.01 -0.018,0.009 -0.037,0.014 -0.057,0.014l0 0c-0.02,0 -0.039,-0.005 -0.057,-0.014 -0.006,-0.003 -0.012,-0.007 -0.018,-0.01l0 0.003c0.001,0.009 0,0.018 -0.002,0.026l0.077 0.043zm0.101 -0.022l-0.101 0.056 -0.113 -0.062 0.005 -0.012c0.003,-0.008 0.004,-0.018 0.004,-0.028 -0.001,-0.012 -0.003,-0.024 -0.008,-0.039l0.025 -0.015c0.013,0.014 0.028,0.025 0.043,0.033 0.014,0.007 0.029,0.011 0.044,0.011 0.015,0 0.03,-0.004 0.043,-0.011 0.016,-0.008 0.031,-0.019 0.044,-0.032l0.025 0.015c-0.005,0.014 -0.008,0.027 -0.008,0.038 0,0.01 0.001,0.02 0.004,0.028l0.004 0.012 -0.011 0.006z"/>
   <path class="fil2" d="M0.773 0.654c-0.043,-0.044 -0.061,-0.038 -0.128,-0.047 -0.051,-0.006 -0.103,-0.017 -0.134,-0.043l-0.087 0.086 -0.03 -0.067 -0.03 0.067 -0.087 -0.086c-0.031,0.026 -0.083,0.037 -0.134,0.043 -0.067,0.009 -0.086,0.003 -0.128,0.047 0.082,0.121 0.221,0.201 0.379,0.201 0.157,0 0.296,-0.08 0.379,-0.201z"/>
   <path class="fil1" d="M0.753 0.656c-0.026,-0.025 -0.044,-0.027 -0.08,-0.031 -0.01,0 -0.02,-0.002 -0.03,-0.003 -0.026,-0.003 -0.052,-0.007 -0.077,-0.015 -0.02,-0.005 -0.038,-0.013 -0.054,-0.023l-0.078 0.077c-0.006,0.005 -0.015,0.005 -0.021,0 -0.001,-0.002 -0.002,-0.003 -0.003,-0.005l-0.016 -0.036 -0.016 0.036c-0.004,0.008 -0.012,0.011 -0.02,0.008 -0.002,-0.001 -0.004,-0.002 -0.005,-0.004l-0.078 -0.077c-0.015,0.011 -0.034,0.019 -0.054,0.024 -0.024,0.008 -0.05,0.012 -0.077,0.015 -0.009,0.001 -0.02,0.003 -0.029,0.003 -0.037,0.004 -0.054,0.006 -0.081,0.031 0.04,0.055 0.092,0.1 0.153,0.132 0.062,0.033 0.132,0.052 0.207,0.052 0.075,0 0.145,-0.019 0.207,-0.052 0.06,-0.032 0.112,-0.077 0.152,-0.132zm-0.077 -0.06c0.048,0.005 0.068,0.007 0.107,0.047 0.005,0.005 0.006,0.013 0.002,0.02 -0.043,0.063 -0.102,0.116 -0.17,0.152 -0.066,0.035 -0.141,0.055 -0.221,0.055 -0.08,0 -0.155,-0.02 -0.221,-0.055 -0.069,-0.036 -0.127,-0.089 -0.17,-0.152 -0.004,-0.006 -0.004,-0.014 0.001,-0.019 0.039,-0.041 0.06,-0.043 0.108,-0.048 0.008,-0.001 0.016,-0.002 0.029,-0.004 0.025,-0.003 0.05,-0.007 0.072,-0.013 0.021,-0.006 0.04,-0.015 0.054,-0.026 0.005,-0.006 0.014,-0.005 0.02,0l0.072 0.071 0.021 -0.047c0.002,-0.004 0.004,-0.006 0.008,-0.008 0.007,-0.003 0.016,0 0.02,0.008l0.021 0.047 0.071 -0.071c0.006,-0.005 0.015,-0.006 0.021,-0.001 0.014,0.012 0.032,0.021 0.054,0.027 0.022,0.006 0.047,0.01 0.072,0.013 0.012,0.002 0.021,0.003 0.029,0.004z"/>
   <path class="fil0" d="M0.506 0.439c0.023,-0.029 0.041,-0.063 0.041,-0.094l0 -0.013 0 -0.071 0 -0.016c0.001,-0.016 -0.001,-0.046 -0.002,-0.057 -0.005,-0.034 -0.09,-0.064 -0.151,-0.072 -0.061,-0.009 -0.096,-0.011 -0.125,0.025 -0.015,0.019 -0.028,0.064 -0.029,0.102l0 0.018 0 0.071 0 0.013c0,0.031 0.019,0.065 0.042,0.094 0.004,0.005 0.009,0.011 0.014,0.016 0.027,0.028 0.061,0.048 0.098,0.048 0.037,0 0.07,-0.02 0.098,-0.048 0.005,-0.005 0.009,-0.011 0.014,-0.016z"/>
   <path class="fil1" d="M0.494 0.429c0.012,-0.014 0.022,-0.03 0.029,-0.046 0.006,-0.013 0.009,-0.026 0.009,-0.038 0,-0.03 -0.003,-0.073 0,-0.101 0.001,-0.007 0,-0.017 0,-0.028 -0.001,-0.01 -0.001,-0.02 -0.002,-0.026 -0.002,-0.01 -0.017,-0.02 -0.037,-0.03 -0.029,-0.014 -0.069,-0.025 -0.101,-0.029 -0.029,-0.005 -0.052,-0.007 -0.071,-0.004 -0.016,0.002 -0.029,0.009 -0.04,0.023 -0.007,0.008 -0.013,0.023 -0.018,0.039 -0.004,0.017 -0.007,0.037 -0.008,0.054 0,0.034 0,0.068 0,0.102 0,0.012 0.004,0.025 0.01,0.038 0.007,0.016 0.017,0.032 0.029,0.046l0.006 0.008 0.007 0.007c0.013,0.014 0.028,0.025 0.043,0.033 0.014,0.007 0.029,0.011 0.044,0.011 0.015,0 0.03,-0.004 0.043,-0.011 0.016,-0.008 0.031,-0.019 0.044,-0.032l0.007 -0.008 0.006 -0.008zm0.057 -0.034c-0.009,0.019 -0.021,0.037 -0.034,0.053 -0.002,0.003 -0.004,0.006 -0.007,0.009 -0.003,0.003 -0.005,0.006 -0.008,0.008 -0.015,0.016 -0.033,0.03 -0.051,0.039 -0.018,0.009 -0.037,0.014 -0.057,0.014l0 0c-0.02,0 -0.039,-0.005 -0.057,-0.014 -0.019,-0.009 -0.036,-0.023 -0.052,-0.039 -0.003,-0.003 -0.005,-0.006 -0.007,-0.008l-0.008 -0.009c-0.013,-0.016 -0.025,-0.034 -0.033,-0.053 -0.007,-0.016 -0.012,-0.033 -0.012,-0.05 0,-0.016 -0.002,-0.095 0,-0.102 0.001,-0.02 0.004,-0.042 0.01,-0.062 0.005,-0.02 0.013,-0.038 0.022,-0.049 0.017,-0.021 0.036,-0.032 0.06,-0.035 0.022,-0.003 0.047,-0.001 0.079,0.004 0.035,0.005 0.078,0.016 0.11,0.032 0.029,0.014 0.05,0.032 0.054,0.053 0,0.006 0.001,0.017 0.002,0.029 0,0.011 0.001,0.022 0,0.03l0 0.1c0,0.017 -0.004,0.034 -0.011,0.05z"/>
   <path class="fil0" d="M0.582 0.296c0,-0.019 -0.015,-0.035 -0.035,-0.035l0 0.071c0.02,0 0.035,-0.016 0.035,-0.036z"/>
   <path class="fil1" d="M0.567 0.296c0,-0.005 -0.002,-0.01 -0.005,-0.013l0 0.027c0.003,-0.004 0.005,-0.008 0.005,-0.014zm0.016 -0.035c0.009,0.009 0.014,0.022 0.014,0.035 0,0.014 -0.005,0.027 -0.014,0.036 -0.009,0.009 -0.022,0.015 -0.036,0.015l-0.015 0 0 -0.101 0.015 0c0.014,0 0.027,0.006 0.036,0.015z"/>
   <path class="fil0" d="M0.24 0.332l0 -0.071c-0.019,0 -0.034,0.016 -0.034,0.035 0,0.02 0.015,0.036 0.034,0.036z"/>
   <path class="fil1" d="M0.225 0.31l0 -0.027c-0.003,0.003 -0.004,0.008 -0.004,0.013 0,0.006 0.001,0.01 0.004,0.014zm0.03 -0.049l0 0.086 -0.015 0c-0.013,0 -0.026,-0.006 -0.035,-0.015 -0.009,-0.009 -0.014,-0.022 -0.014,-0.036 0,-0.013 0.005,-0.026 0.014,-0.035 0.009,-0.009 0.022,-0.015 0.035,-0.015l0.015 0 0 0.015z"/>
   <path class="fil3" d="M0.572 0.131c-0.022,-0.075 -0.121,-0.115 -0.199,-0.116 -0.056,-0.001 -0.132,0.016 -0.131,0.108 -0.052,0.029 -0.02,0.098 -0.011,0.139 0.003,-0.001 0.006,-0.001 0.009,-0.001l0 -0.018c0.001,-0.038 0.014,-0.083 0.029,-0.102 0.029,-0.036 0.064,-0.034 0.125,-0.025 0.061,0.008 0.146,0.038 0.151,0.072 0.001,0.011 0.003,0.041 0.002,0.057l0 0.016c0.005,0 0.01,0.001 0.014,0.002 0.009,-0.041 0.021,-0.099 0.011,-0.132z"/>
   <path class="fil1" d="M0.558 0.135c-0.009,-0.03 -0.033,-0.054 -0.063,-0.072 -0.037,-0.021 -0.082,-0.033 -0.122,-0.033l-0.006 0c-0.026,0 -0.054,0.005 -0.075,0.018 -0.02,0.013 -0.035,0.035 -0.035,0.071l0 0.012 -0.007 0.005c-0.023,0.012 -0.024,0.037 -0.02,0.063 0.002,-0.006 0.003,-0.012 0.005,-0.018 0.005,-0.02 0.013,-0.038 0.022,-0.049 0.017,-0.021 0.036,-0.032 0.06,-0.035 0.022,-0.003 0.047,-0.001 0.079,0.004 0.035,0.005 0.078,0.016 0.11,0.032 0.028,0.013 0.05,0.031 0.053,0.052 0.002,-0.02 0.002,-0.037 -0.001,-0.05zm-0.048 -0.098c0.036,0.021 0.065,0.051 0.076,0.09 0.006,0.018 0.005,0.043 0.002,0.069 -0.003,0.024 -0.008,0.05 -0.013,0.071l-0.004 0.017 -0.016 -0.007c-0.001,0 -0.003,-0.001 -0.004,-0.001 -0.001,0 -0.002,0 -0.004,0l-0.015 0c0,-0.009 -0.001,-0.023 0,-0.032 0.001,-0.007 0,-0.017 0,-0.028 -0.001,-0.01 -0.001,-0.02 -0.002,-0.026 -0.002,-0.01 -0.017,-0.02 -0.037,-0.03 -0.029,-0.014 -0.069,-0.025 -0.101,-0.029 -0.029,-0.005 -0.052,-0.007 -0.071,-0.004 -0.016,0.002 -0.029,0.009 -0.04,0.023 -0.007,0.008 -0.013,0.023 -0.018,0.039 -0.004,0.017 -0.007,0.037 -0.008,0.054l0 0.033 -0.015 0 -0.002 0 -0.003 0.001 -0.016 0.004 -0.003 -0.016c-0.002,-0.007 -0.004,-0.014 -0.006,-0.021 -0.012,-0.043 -0.027,-0.098 0.017,-0.13 0.002,-0.045 0.022,-0.074 0.049,-0.091 0.027,-0.017 0.06,-0.022 0.09,-0.023l0.007 0c0.045,0 0.096,0.013 0.137,0.037z"/>
   <path class="fil2" d="M0.424 0.65l0.095 -0.094c-0.011,-0.009 -0.019,-0.02 -0.023,-0.033l-0.102 0.06 0.03 0.067z"/>
   <path class="fil1" d="M0.429 0.624l0.069 -0.068c-0.002,-0.002 -0.004,-0.004 -0.005,-0.006 -0.001,-0.002 -0.003,-0.004 -0.004,-0.006l-0.076 0.045 0.016 0.035zm0.1 -0.057l-0.094 0.093c-0.002,0.002 -0.003,0.003 -0.005,0.004 -0.008,0.003 -0.017,0 -0.02,-0.008l-0.03 -0.067c-0.003,-0.007 0,-0.015 0.006,-0.019l0.101 -0.059c0.001,-0.001 0.002,-0.002 0.004,-0.002 0.007,-0.003 0.016,0.001 0.019,0.009 0.002,0.005 0.004,0.01 0.007,0.014 0.004,0.005 0.007,0.009 0.012,0.013l0.001 0.001c0.005,0.005 0.005,0.015 -0.001,0.021z"/>
   <path class="fil2" d="M0.364 0.65l-0.095 -0.094c0.01,-0.009 0.018,-0.02 0.023,-0.033l0.102 0.06 -0.03 0.067z"/>
   <path class="fil1" d="M0.353 0.66l-0.095 -0.093c-0.006,-0.006 -0.006,-0.016 0,-0.021l0.001 -0.001c0.004,-0.004 0.008,-0.008 0.011,-0.013 0.004,-0.004 0.006,-0.009 0.008,-0.014 0.003,-0.008 0.011,-0.012 0.019,-0.009 0.001,0 0.002,0.001 0.003,0.002l0.101 0.059c0.007,0.004 0.01,0.012 0.007,0.019l-0.03 0.067c-0.004,0.008 -0.012,0.011 -0.02,0.008 -0.002,-0.001 -0.004,-0.002 -0.005,-0.004zm-0.063 -0.104l0.069 0.068 0.016 -0.035 -0.076 -0.045c-0.002,0.002 -0.003,0.004 -0.004,0.006 -0.002,0.002 -0.003,0.004 -0.005,0.006z"/>
   <path class="fil4" d="M0.398 0.686c0.008,0 0.015,0.007 0.015,0.015 0,0.008 -0.007,0.015 -0.015,0.015 -0.009,0 -0.016,-0.007 -0.016,-0.015 0,-0.008 0.007,-0.015 0.016,-0.015z"/>
   <path class="fil4" d="M0.398 0.775c0.008,0 0.015,0.007 0.015,0.016 0,0.008 -0.007,0.015 -0.015,0.015 -0.009,0 -0.016,-0.007 -0.016,-0.015 0,-0.009 0.007,-0.016 0.016,-0.016z"/>
  </g>
 </g>
</svg>
