<?xml version="1.0" encoding="UTF-8"?>
<!DOCTYPE svg PUBLIC "-//W3C//DTD SVG 1.1//EN" "http://www.w3.org/Graphics/SVG/1.1/DTD/svg11.dtd">
<!-- Creator: CorelDRAW 2018 (64-Bit) -->
<svg xmlns="http://www.w3.org/2000/svg" xml:space="preserve" width="36px" height="29px" version="1.1" style="shape-rendering:geometricPrecision; text-rendering:geometricPrecision; image-rendering:optimizeQuality; fill-rule:evenodd; clip-rule:evenodd"
viewBox="0 0 0.834 0.672"
 xmlns:xlink="http://www.w3.org/1999/xlink">
 <defs>
  <style type="text/css">
   <![CDATA[
    .fil1 {fill:#00F4FF}
    .fil2 {fill:white}
    .fil0 {fill:gray;fill-rule:nonzero}
   ]]>
  </style>
 </defs>
 <g id="Layer_x0020_1">
  <metadata id="CorelCorpID_0Corel-Layer"/>
  <g id="_2714474642832">
   <path class="fil0" d="M0.153 0l0.528 0c0.004,0 0.008,0.002 0.011,0.005 0.002,0.002 0.004,0.006 0.004,0.011l0 0.095c0,0.004 -0.002,0.008 -0.004,0.011 -0.003,0.002 -0.007,0.004 -0.011,0.004l-0.528 0c-0.004,0 -0.008,-0.002 -0.011,-0.004 -0.002,-0.003 -0.004,-0.007 -0.004,-0.011l0 -0.095c0,-0.005 0.002,-0.009 0.004,-0.011l0.002 -0.002c0.002,-0.002 0.006,-0.003 0.009,-0.003zm0.52 0.023l-0.512 0 0 0.08 0.512 0 0 -0.08z"/>
   <path class="fil0" d="M0.556 0.517c-0.006,0 -0.011,-0.005 -0.011,-0.011 0,-0.006 0.005,-0.012 0.011,-0.012l0.016 0c0.006,0 0.011,0.006 0.011,0.012 0,0.006 -0.005,0.011 -0.011,0.011l-0.016 0z"/>
   <path class="fil0" d="M0.074 0.333c0,-0.006 0.005,-0.011 0.011,-0.011 0.007,0 0.012,0.005 0.012,0.011l0 0.316 0.64 0 0 -0.316c0,-0.006 0.005,-0.011 0.012,-0.011 0.006,0 0.011,0.005 0.011,0.011l0 0.323c0,0.004 -0.002,0.009 -0.005,0.012 -0.003,0.002 -0.007,0.004 -0.012,0.004l-0.652 0c-0.004,0 -0.008,-0.001 -0.011,-0.003l-0.001 -0.001c-0.003,-0.003 -0.005,-0.008 -0.005,-0.012l0 -0.323z"/>
   <path class="fil1" d="M0.012 0.294c-0.004,-0.041 0.015,-0.084 0.086,-0.134l0.638 0c0.071,0.05 0.09,0.093 0.086,0.134 -0.27,0 -0.54,0 -0.81,0z"/>
   <path class="fil0" d="M0 0.294c-0.002,-0.022 0.003,-0.045 0.017,-0.069 0.014,-0.024 0.037,-0.048 0.074,-0.074 0.002,-0.002 0.005,-0.002 0.007,-0.002l0.638 0c0.003,0 0.005,0.001 0.007,0.002 0.037,0.026 0.06,0.05 0.074,0.074 0.015,0.024 0.019,0.047 0.016,0.07 0,0.006 -0.005,0.01 -0.011,0.01l-0.81 0c-0.006,0 -0.011,-0.005 -0.012,-0.011zm0.037 -0.058c-0.01,0.016 -0.014,0.031 -0.014,0.046l0.788 0c0,-0.015 -0.004,-0.03 -0.014,-0.046 -0.012,-0.02 -0.032,-0.041 -0.065,-0.064l-0.63 0c-0.033,0.023 -0.053,0.044 -0.065,0.064z"/>
   <path class="fil2" d="M0.16 0.294c-0.003,-0.041 0.009,-0.084 0.054,-0.134l0.406 0c0.045,0.05 0.057,0.093 0.054,0.134 -0.171,0 -0.343,0 -0.514,0z"/>
   <path class="fil0" d="M0.148 0.294c-0.001,-0.022 0.001,-0.044 0.01,-0.068 0.009,-0.023 0.024,-0.048 0.048,-0.073 0.002,-0.003 0.005,-0.004 0.008,-0.004l0.406 0c0.003,0 0.007,0.001 0.009,0.004 0.023,0.026 0.038,0.05 0.047,0.073 0.009,0.024 0.011,0.047 0.01,0.068 -0.001,0.006 -0.006,0.011 -0.012,0.011l-0.514 0c-0.007,0 -0.012,-0.005 -0.012,-0.011zm0.032 -0.06c-0.006,0.017 -0.009,0.033 -0.009,0.048l0.492 0c0,-0.015 -0.003,-0.031 -0.009,-0.048 -0.007,-0.019 -0.02,-0.04 -0.039,-0.062l-0.396 0c-0.019,0.022 -0.032,0.043 -0.039,0.062z"/>
   <path class="fil1" d="M0.333 0.294c-0.001,-0.041 0.003,-0.084 0.018,-0.134l0.132 0c0.015,0.05 0.019,0.093 0.018,0.134 -0.056,0 -0.112,0 -0.168,0z"/>
   <path class="fil0" d="M0.321 0.293c0,-0.021 0.001,-0.042 0.003,-0.064 0.003,-0.023 0.008,-0.047 0.016,-0.072 0.001,-0.005 0.006,-0.008 0.011,-0.008l0.132 0c0.006,0 0.01,0.004 0.012,0.009 0.007,0.025 0.012,0.049 0.015,0.071 0.002,0.022 0.003,0.044 0.003,0.065 0,0.006 -0.006,0.011 -0.012,0.011l-0.168 0c-0.007,0 -0.012,-0.005 -0.012,-0.011l0 -0.001zm0.026 -0.061c-0.002,0.017 -0.003,0.034 -0.003,0.05l0.146 0c0,-0.016 -0.001,-0.033 -0.003,-0.05 -0.003,-0.019 -0.006,-0.039 -0.012,-0.06l-0.116 0c-0.006,0.021 -0.009,0.041 -0.012,0.06z"/>
   <path class="fil0" d="M0.529 0.649l0.134 0 0 -0.286 -0.134 0 0 0.286zm0.143 0.023l-0.152 0c-0.004,0 -0.007,-0.001 -0.01,-0.004 -0.002,-0.003 -0.004,-0.006 -0.004,-0.01l0 -0.307c0,-0.006 0.005,-0.011 0.012,-0.011l0.157 0c0.006,0 0.011,0.005 0.011,0.011l0 0.307c0,0.004 -0.001,0.007 -0.004,0.01l0 0c-0.002,0.003 -0.006,0.004 -0.01,0.004z"/>
   <path class="fil0" d="M0.171 0.592l0.25 0 0 -0.229 -0.25 0 0 0.229zm0.258 0.023l-0.266 0c-0.004,0 -0.008,-0.002 -0.011,-0.005l0 0c-0.002,-0.003 -0.004,-0.007 -0.004,-0.011l0 -0.248c0,-0.006 0.005,-0.011 0.011,-0.011l0.273 0c0.007,0 0.012,0.005 0.012,0.011l0 0.248c0,0.004 -0.002,0.008 -0.005,0.011 -0.002,0.003 -0.006,0.005 -0.01,0.005z"/>
  </g>
 </g>
</svg>
