<?xml version="1.0" encoding="UTF-8"?>
<!DOCTYPE svg PUBLIC "-//W3C//DTD SVG 1.1//EN" "http://www.w3.org/Graphics/SVG/1.1/DTD/svg11.dtd">
<!-- Creator: CorelDRAW 2018 (64-Bit) -->
<svg xmlns="http://www.w3.org/2000/svg" xml:space="preserve" width="38px" height="24px" version="1.1" style="shape-rendering:geometricPrecision; text-rendering:geometricPrecision; image-rendering:optimizeQuality; fill-rule:evenodd; clip-rule:evenodd"
viewBox="0 0 1.042 0.643"
 xmlns:xlink="http://www.w3.org/1999/xlink">
 <defs>
  <style type="text/css">
   <![CDATA[
    .fil1 {fill:#00F4FF;fill-rule:nonzero}
    .fil0 {fill:gray;fill-rule:nonzero}
   ]]>
  </style>
 </defs>
 <g id="Layer_x0020_1">
  <metadata id="CorelCorpID_0Corel-Layer"/>
  <g id="_2714514238736">
   <path class="fil0" d="M0.025 0.643c-0.008,0 -0.014,-0.006 -0.014,-0.014 0,-0.007 0.006,-0.013 0.014,-0.013l0.231 0c0.008,0 0.014,0.006 0.014,0.013 0,0.008 -0.006,0.014 -0.014,0.014l-0.231 0z"/>
   <path class="fil0" d="M0.297 0.276c0.007,-0.004 0.015,-0.001 0.019,0.005 0.004,0.007 0.001,0.015 -0.005,0.019l-0.067 0.038c-0.006,0.004 -0.014,0.002 -0.018,-0.005 -0.004,-0.006 -0.002,-0.015 0.005,-0.019l0.066 -0.038z"/>
   <path class="fil1" d="M0.318 0.277c-0.024,-0.042 -0.061,-0.071 -0.08,-0.06l-0.029 0.016c-0.018,0.011 -0.012,0.058 0.013,0.1l0.096 -0.056z"/>
   <path class="fil0" d="M0.299 0.273c-0.01,-0.015 -0.021,-0.027 -0.032,-0.035 -0.01,-0.008 -0.018,-0.012 -0.022,-0.009l-0.029 0.016c-0.004,0.002 -0.005,0.012 -0.003,0.024 0.001,0.014 0.006,0.029 0.014,0.045l0.072 -0.041zm-0.015 -0.057c0.016,0.012 0.033,0.032 0.046,0.055 0.004,0.006 0.001,0.014 -0.005,0.018l-0.097 0.056c-0.006,0.004 -0.014,0.001 -0.018,-0.005 -0.013,-0.023 -0.022,-0.047 -0.024,-0.068 -0.003,-0.023 0.002,-0.042 0.016,-0.05l0.029 -0.017c0.015,-0.008 0.034,-0.003 0.053,0.011z"/>
   <path class="fil1" d="M0.229 0.494l0.005 0.009 0.225 -0.13 -0.005 -0.008c-0.039,-0.068 -0.106,-0.102 -0.15,-0.077l-0.066 0.038c-0.044,0.025 -0.047,0.101 -0.009,0.168z"/>
   <path class="fil0" d="M0.223 0.509l-0.005 -0.008c-0.021,-0.036 -0.031,-0.074 -0.029,-0.107 0.002,-0.035 0.016,-0.064 0.041,-0.079l0.067 -0.039c0.026,-0.015 0.059,-0.012 0.09,0.003 0.029,0.015 0.057,0.042 0.078,0.078l0.005 0.009c0.004,0.007 0.002,0.015 -0.005,0.019l-0.224 0.129c-0.006,0.004 -0.015,0.002 -0.018,-0.005zm0.016 -0.025l0.201 -0.116c-0.018,-0.03 -0.042,-0.052 -0.066,-0.064 -0.023,-0.012 -0.046,-0.014 -0.063,-0.004l-0.067 0.038c-0.017,0.011 -0.026,0.031 -0.028,0.057 -0.001,0.027 0.007,0.059 0.023,0.089z"/>
   <path class="fil1" d="M0.053 0.359c-0.022,0 -0.039,0.017 -0.039,0.039 0,0.022 0.017,0.039 0.039,0.039 0.021,0 0.039,-0.017 0.039,-0.039 0,-0.022 -0.018,-0.039 -0.039,-0.039z"/>
   <path class="fil0" d="M0.053 0.373c-0.007,0 -0.014,0.002 -0.018,0.007 -0.005,0.005 -0.008,0.011 -0.008,0.018 0,0.007 0.003,0.013 0.008,0.018l0 0.001c0.005,0.004 0.011,0.006 0.018,0.006 0.007,0 0.013,-0.002 0.018,-0.007 0.004,-0.005 0.007,-0.011 0.007,-0.018 0,-0.007 -0.003,-0.013 -0.007,-0.018 -0.005,-0.005 -0.011,-0.007 -0.018,-0.007zm-0.038 -0.012c0.01,-0.01 0.023,-0.016 0.038,-0.016 0.014,0 0.028,0.006 0.037,0.016 0.01,0.009 0.015,0.022 0.015,0.037 0,0.015 -0.005,0.028 -0.015,0.037 -0.009,0.01 -0.023,0.016 -0.037,0.016 -0.014,0 -0.027,-0.006 -0.037,-0.015l-0.001 -0.001c-0.009,-0.009 -0.015,-0.022 -0.015,-0.037 0,-0.015 0.006,-0.028 0.015,-0.037z"/>
   <path class="fil0" d="M0.197 0.284c0.007,-0.004 0.015,-0.002 0.019,0.005 0.004,0.006 0.002,0.014 -0.005,0.018l-0.124 0.075c-0.006,0.004 -0.014,0.002 -0.018,-0.005 -0.004,-0.006 -0.002,-0.014 0.004,-0.018l0.124 -0.075z"/>
   <path class="fil0" d="M0.06 0.441c-0.002,-0.007 0.001,-0.015 0.008,-0.018 0.007,-0.003 0.015,0.001 0.018,0.008l0.073 0.193c0.002,0.007 -0.001,0.015 -0.008,0.018 -0.007,0.003 -0.015,-0.001 -0.018,-0.008l-0.073 -0.193z"/>
   <path class="fil0" d="M0.333 0.184c0,0.007 -0.006,0.013 -0.013,0.013 -0.008,0 -0.014,-0.006 -0.014,-0.013l0 -0.144c0,-0.011 0.005,-0.021 0.012,-0.028l0.001 -0.001c0.007,-0.007 0.017,-0.011 0.027,-0.011l0.656 0c0.011,0 0.021,0.005 0.028,0.012 0.007,0.007 0.012,0.017 0.012,0.028l0 0.451c0,0.011 -0.005,0.021 -0.012,0.028 -0.007,0.008 -0.017,0.012 -0.028,0.012l-0.656 0c-0.007,0 -0.013,-0.006 -0.013,-0.013 0,-0.008 0.006,-0.014 0.013,-0.014l0.656 0c0.003,0 0.006,-0.002 0.009,-0.004 0.002,-0.002 0.004,-0.006 0.004,-0.009l0 -0.451c0,-0.003 -0.002,-0.006 -0.004,-0.009 -0.003,-0.002 -0.006,-0.004 -0.009,-0.004l-0.656 0c-0.003,0 -0.006,0.002 -0.008,0.004l-0.001 0c-0.002,0.003 -0.004,0.006 -0.004,0.009l0 0.144z"/>
   <path class="fil0" d="M0.512 0.643c-0.008,0 -0.014,-0.006 -0.014,-0.014 0,-0.007 0.006,-0.013 0.014,-0.013l0.324 0c0.008,0 0.014,0.006 0.014,0.013 0,0.008 -0.006,0.014 -0.014,0.014l-0.324 0z"/>
   <path class="fil0" d="M0.567 0.507l0.212 0c0.008,0 0.014,0.006 0.014,0.014l0 0.108c0,0.008 -0.006,0.014 -0.014,0.014l-0.212 0c-0.007,0 -0.013,-0.006 -0.013,-0.014l0 -0.108c0,-0.008 0.006,-0.014 0.013,-0.014zm0.199 0.027l-0.185 0 0 0.082 0.185 0 0 -0.082z"/>
  </g>
 </g>
</svg>
