<?xml version="1.0" encoding="UTF-8"?>
<!DOCTYPE svg PUBLIC "-//W3C//DTD SVG 1.1//EN" "http://www.w3.org/Graphics/SVG/1.1/DTD/svg11.dtd">
<!-- Creator: CorelDRAW 2018 (64-Bit) -->
<svg xmlns="http://www.w3.org/2000/svg" xml:space="preserve" width="31px" height="27px" version="1.1" style="shape-rendering:geometricPrecision; text-rendering:geometricPrecision; image-rendering:optimizeQuality; fill-rule:evenodd; clip-rule:evenodd"
viewBox="0 0 0.686 0.603"
 xmlns:xlink="http://www.w3.org/1999/xlink">
 <defs>
  <style type="text/css">
   <![CDATA[
    .fil1 {fill:#00F4FF}
    .fil0 {fill:gray;fill-rule:nonzero}
   ]]>
  </style>
 </defs>
 <g id="Layer_x0020_1">
  <metadata id="CorelCorpID_0Corel-Layer"/>
  <g id="_2714231037904">
   <path class="fil0" d="M0.601 0.131c-0.001,0.006 -0.007,0.01 -0.013,0.009 -0.006,-0.001 -0.01,-0.006 -0.009,-0.012l0.001 -0.006 -0.099 -0.099 -0.163 0.028 -0.294 0.294c-0.001,0.001 -0.002,0.003 -0.002,0.004 0,0.002 0.001,0.003 0.002,0.004l0.226 0.226c0.001,0.001 0.002,0.002 0.004,0.002 0.001,0 0.003,-0.001 0.004,-0.002l0.294 -0.294 0.013 -0.077c0.001,-0.006 0.007,-0.01 0.013,-0.009 0.006,0.001 0.01,0.007 0.009,0.013l-0.014 0.08c0,0.002 -0.001,0.004 -0.003,0.006l-0.297 0.297c-0.005,0.005 -0.012,0.008 -0.019,0.008 -0.007,0 -0.015,-0.003 -0.02,-0.008l-0.226 -0.226c-0.005,-0.006 -0.008,-0.013 -0.008,-0.02 0,-0.007 0.003,-0.014 0.008,-0.02l0.297 -0.296c0.001,-0.002 0.003,-0.003 0.005,-0.003l0.172 -0.03c0.004,-0.001 0.008,0 0.011,0.003l0.107 0.107c0.002,0.003 0.003,0.006 0.003,0.01l-0.002 0.011z"/>
   <path class="fil0" d="M0.484 0.087c0.006,0.001 0.009,0.007 0.008,0.013 -0.002,0.006 -0.008,0.01 -0.013,0.008 -0.004,-0.001 -0.008,-0.001 -0.012,0 -0.004,0.001 -0.007,0.003 -0.01,0.006 -0.005,0.004 -0.007,0.01 -0.007,0.016 0,0.006 0.002,0.011 0.007,0.016 0.004,0.004 0.01,0.006 0.016,0.006 0.006,0 0.011,-0.002 0.016,-0.006 0.004,-0.004 0.011,-0.004 0.015,0 0.005,0.004 0.005,0.011 0,0.016 -0.008,0.008 -0.02,0.013 -0.031,0.013 -0.012,0 -0.023,-0.005 -0.032,-0.013 -0.008,-0.009 -0.013,-0.021 -0.013,-0.032 0,-0.011 0.005,-0.023 0.013,-0.032 0.006,-0.005 0.013,-0.009 0.02,-0.011 0.008,-0.002 0.015,-0.002 0.023,0z"/>
   <path class="fil0" d="M0.585 0.319c-0.005,-0.004 -0.006,-0.011 -0.003,-0.016 0.003,-0.005 0.01,-0.006 0.015,-0.003 0.016,0.01 0.032,0.017 0.044,0.02 0.01,0.002 0.017,0.002 0.02,-0.002 0.006,-0.006 0.004,-0.021 -0.006,-0.041 -0.01,-0.023 -0.03,-0.051 -0.056,-0.077 -0.026,-0.026 -0.054,-0.046 -0.077,-0.057 -0.02,-0.009 -0.035,-0.011 -0.041,-0.005 -0.005,0.004 -0.012,0.004 -0.016,0 -0.004,-0.005 -0.004,-0.012 0,-0.016 0.014,-0.013 0.038,-0.012 0.066,0.001 0.026,0.012 0.055,0.034 0.083,0.062 0.028,0.027 0.05,0.057 0.061,0.082 0.014,0.029 0.015,0.053 0.002,0.067 -0.009,0.009 -0.024,0.011 -0.04,0.008 -0.015,-0.003 -0.033,-0.011 -0.052,-0.023z"/>
   <polygon class="fil1" points="0.359,0.244 0.288,0.265 0.228,0.223 0.226,0.297 0.167,0.341 0.237,0.366 0.261,0.435 0.306,0.376 0.38,0.375 0.337,0.314 "/>
   <path class="fil0" d="M0.342 0.26l-0.05 0.016c-0.004,0.001 -0.007,0 -0.01,-0.002l-0.044 -0.03 -0.001 0.053c0,0.004 -0.001,0.007 -0.004,0.009l-0.042 0.032 0.05 0.017c0.003,0.001 0.006,0.004 0.007,0.007l0.017 0.05 0.032 -0.042c0.002,-0.003 0.006,-0.005 0.009,-0.005l0.053 -0.001 -0.031 -0.043c-0.002,-0.003 -0.002,-0.007 -0.001,-0.01l0.015 -0.051zm-0.052 -0.007l0.066 -0.02c0.002,0 0.004,0 0.006,0 0.006,0.002 0.009,0.008 0.008,0.014l-0.02 0.066 0.039 0.055c0.001,0.002 0.002,0.004 0.002,0.007 0,0.006 -0.005,0.011 -0.011,0.011l-0.069 0.001 -0.041 0.055c-0.001,0.002 -0.003,0.003 -0.005,0.004 -0.006,0.002 -0.012,-0.001 -0.014,-0.007l-0.022 -0.065 -0.064 -0.022c-0.003,-0.001 -0.005,-0.002 -0.006,-0.004 -0.004,-0.005 -0.003,-0.012 0.002,-0.015l0.054 -0.042 0.002 -0.068c0,-0.002 0,-0.004 0.002,-0.006 0.003,-0.005 0.01,-0.007 0.015,-0.003l0.056 0.039z"/>
  </g>
 </g>
</svg>
