<?xml version="1.0" encoding="UTF-8"?>
<!DOCTYPE svg PUBLIC "-//W3C//DTD SVG 1.1//EN" "http://www.w3.org/Graphics/SVG/1.1/DTD/svg11.dtd">
<!-- Creator: CorelDRAW 2018 (64-Bit) -->
<svg xmlns="http://www.w3.org/2000/svg" xml:space="preserve" width="0.216602in" height="0.236094in" version="1.1" style="shape-rendering:geometricPrecision; text-rendering:geometricPrecision; image-rendering:optimizeQuality; fill-rule:evenodd; clip-rule:evenodd"
viewBox="0 0 7.09 7.73"
 xmlns:xlink="http://www.w3.org/1999/xlink">
 <defs>
  <style type="text/css">
   <![CDATA[
    .fil0 {fill:white;fill-rule:nonzero}
   ]]>
  </style>
 </defs>
 <g id="Layer_x0020_1">
  <metadata id="CorelCorpID_0Corel-Layer"/>
  <g id="_2457302225152">
   <path class="fil0" d="M6.16 0.22l0.73 0.73c0.14,0.14 0.2,0.33 0.2,0.51 0,0.19 -0.07,0.38 -0.22,0.53l-3.88 3.88c-0.03,0.03 -0.08,0.06 -0.12,0.06l-1.93 0.49c-0.12,0.03 -0.24,-0.04 -0.28,-0.16 -0.01,-0.04 -0.01,-0.08 0,-0.11l0.5 -1.94c0.01,-0.04 0.03,-0.08 0.06,-0.1l3.88 -3.89c0.15,-0.15 0.34,-0.22 0.53,-0.22 0.19,0 0.38,0.07 0.53,0.22zm0.39 1.03l-0.71 -0.71c-0.06,-0.06 -0.13,-0.08 -0.21,-0.08 -0.07,0 -0.15,0.03 -0.2,0.08l-3.84 3.84 -0.39 1.51 1.51 -0.39 3.84 -3.84c0.06,-0.06 0.08,-0.13 0.08,-0.2 0,-0.07 -0.03,-0.14 -0.08,-0.2l-0.01 -0.01z"/>
   <path class="fil0" d="M4.5 1.18c-0.09,-0.09 -0.09,-0.23 0,-0.32 0.09,-0.09 0.23,-0.09 0.32,0l1.41 1.41c0.09,0.09 0.09,0.23 0,0.32 -0.09,0.09 -0.23,0.09 -0.32,0l-1.41 -1.41z"/>
   <path class="fil0" d="M0.23 7.73c-0.13,0 -0.23,-0.1 -0.23,-0.23 0,-0.13 0.1,-0.23 0.23,-0.23l6.4 0c0.13,0 0.23,0.1 0.23,0.23 0,0.13 -0.1,0.23 -0.23,0.23l-6.4 0z"/>
  </g>
 </g>
</svg>
