<?xml version="1.0" encoding="UTF-8"?>
<!DOCTYPE svg PUBLIC "-//W3C//DTD SVG 1.1//EN" "http://www.w3.org/Graphics/SVG/1.1/DTD/svg11.dtd">
<!-- Creator: CorelDRAW 2018 (64-Bit) -->
<svg xmlns="http://www.w3.org/2000/svg" xml:space="preserve" width="16px" height="14px" version="1.1" style="shape-rendering:geometricPrecision; text-rendering:geometricPrecision; image-rendering:optimizeQuality; fill-rule:evenodd; clip-rule:evenodd"
viewBox="0 0 0.15 0.133"
 xmlns:xlink="http://www.w3.org/1999/xlink">
 <defs>
  <style type="text/css">
   <![CDATA[
    .fil0 {fill:#00D4E3;fill-rule:nonzero}
   ]]>
  </style>
 </defs>
 <g id="Layer_x0020_1">
  <metadata id="CorelCorpID_0Corel-Layer"/>
  <path class="fil0" d="M0.073 0.133l0 0c-0.025,-0.015 -0.043,-0.03 -0.055,-0.045 -0.013,-0.016 -0.018,-0.032 -0.018,-0.049 0,-0.01 0.005,-0.02 0.012,-0.028 0.007,-0.006 0.017,-0.011 0.027,-0.011 0.01,0 0.017,0.002 0.024,0.005 0.004,0.003 0.008,0.007 0.012,0.013 0.004,-0.006 0.008,-0.01 0.013,-0.013 0.006,-0.003 0.013,-0.005 0.023,-0.005 0.011,0 0.02,0.005 0.027,0.011 0.008,0.008 0.012,0.018 0.012,0.028 0,0.017 -0.005,0.033 -0.017,0.049 -0.012,0.015 -0.03,0.03 -0.056,0.045 -0.001,0 -0.002,0 -0.004,0l0 0zm-0.05 -0.049c0.011,0.014 0.028,0.028 0.052,0.042 0.024,-0.014 0.041,-0.028 0.052,-0.042 0.011,-0.015 0.016,-0.029 0.016,-0.045 0,-0.008 -0.003,-0.016 -0.01,-0.022 -0.006,-0.006 -0.013,-0.01 -0.022,-0.01 -0.008,0 -0.014,0.001 -0.019,0.004 -0.005,0.003 -0.01,0.008 -0.014,0.016 0,0 0,0 -0.001,0.001 -0.002,0.001 -0.004,0 -0.005,-0.001 -0.004,-0.008 -0.008,-0.013 -0.013,-0.016 -0.005,-0.003 -0.011,-0.004 -0.02,-0.004 -0.008,0 -0.016,0.004 -0.022,0.01 -0.006,0.006 -0.01,0.014 -0.01,0.022 0,0.016 0.005,0.03 0.016,0.045z"/>
 </g>
</svg>
