<?xml version="1.0" encoding="UTF-8"?>
<!DOCTYPE svg PUBLIC "-//W3C//DTD SVG 1.1//EN" "http://www.w3.org/Graphics/SVG/1.1/DTD/svg11.dtd">
<!-- Creator: CorelDRAW 2018 (64-Bit) -->
<svg xmlns="http://www.w3.org/2000/svg" xml:space="preserve" width="21px" height="21px" version="1.1" style="shape-rendering:geometricPrecision; text-rendering:geometricPrecision; image-rendering:optimizeQuality; fill-rule:evenodd; clip-rule:evenodd"
viewBox="0 0 1.518 1.518"
 xmlns:xlink="http://www.w3.org/1999/xlink">
 <defs>
  <style type="text/css">
   <![CDATA[
    .fil0 {fill:#00D4E3;fill-rule:nonzero}
   ]]>
  </style>
 </defs>
 <g id="Layer_x0020_1">
  <metadata id="CorelCorpID_0Corel-Layer"/>
  <g id="_2117909048960">
   <path class="fil0" d="M0.324 0l0.87 0c0.089,0 0.17,0.037 0.229,0.095 0.059,0.059 0.095,0.14 0.095,0.229l0 0.87c0,0.089 -0.036,0.17 -0.095,0.229 -0.059,0.059 -0.14,0.095 -0.229,0.095l-0.87 0c-0.089,0 -0.17,-0.036 -0.229,-0.095 -0.058,-0.059 -0.095,-0.14 -0.095,-0.229l0 -0.87c0,-0.089 0.037,-0.17 0.095,-0.229 0.059,-0.058 0.14,-0.095 0.229,-0.095zm0.87 0.07l-0.87 0c-0.07,0 -0.133,0.028 -0.18,0.074 -0.046,0.047 -0.074,0.11 -0.074,0.18l0 0.87c0,0.07 0.028,0.134 0.074,0.18 0.047,0.046 0.11,0.075 0.18,0.075l0.87 0c0.07,0 0.134,-0.029 0.18,-0.075 0.046,-0.046 0.075,-0.11 0.075,-0.18l0 -0.87c0,-0.07 -0.029,-0.133 -0.075,-0.18 -0.046,-0.046 -0.11,-0.074 -0.18,-0.074z"/>
   <path class="fil0" d="M0.324 0.831c-0.04,0 -0.072,-0.032 -0.072,-0.072 0,-0.04 0.032,-0.072 0.072,-0.072l0.363 0 0 -0.363c0,-0.04 0.032,-0.072 0.072,-0.072 0.04,0 0.072,0.032 0.072,0.072l0 0.363 0.363 0c0.04,0 0.072,0.032 0.072,0.072 0,0.04 -0.032,0.072 -0.072,0.072l-0.363 0 0 0.363c0,0.04 -0.032,0.072 -0.072,0.072 -0.04,0 -0.072,-0.032 -0.072,-0.072l0 -0.363 -0.363 0z"/>
  </g>
 </g>
</svg>
