<?xml version="1.0" encoding="UTF-8"?>
<!DOCTYPE svg PUBLIC "-//W3C//DTD SVG 1.1//EN" "http://www.w3.org/Graphics/SVG/1.1/DTD/svg11.dtd">
<!-- Creator: CorelDRAW 2018 (64-Bit) -->
<svg xmlns="http://www.w3.org/2000/svg" xml:space="preserve" width="21px" height="21px" version="1.1" style="shape-rendering:geometricPrecision; text-rendering:geometricPrecision; image-rendering:optimizeQuality; fill-rule:evenodd; clip-rule:evenodd"
viewBox="0 0 1.271 1.271"
 xmlns:xlink="http://www.w3.org/1999/xlink">
 <defs>
  <style type="text/css">
   <![CDATA[
    .fil0 {fill:#CCCCCC;fill-rule:nonzero}
   ]]>
  </style>
 </defs>
 <g id="Layer_x0020_1">
  <metadata id="CorelCorpID_0Corel-Layer"/>
  <g id="_2116996086048">
   <path class="fil0" d="M0.272 0l0.727 0c0.075,0 0.143,0.031 0.192,0.08 0.049,0.049 0.08,0.117 0.08,0.192l0 0.727c0,0.075 -0.031,0.143 -0.08,0.192 -0.049,0.049 -0.117,0.08 -0.192,0.08l-0.727 0c-0.075,0 -0.143,-0.031 -0.192,-0.08 -0.049,-0.049 -0.08,-0.117 -0.08,-0.192l0 -0.727c0,-0.075 0.031,-0.143 0.08,-0.192 0.049,-0.049 0.117,-0.08 0.192,-0.08zm0.727 0.058l-0.727 0c-0.059,0 -0.112,0.024 -0.151,0.063 -0.039,0.039 -0.063,0.092 -0.063,0.151l0 0.727c0,0.059 0.024,0.112 0.063,0.151 0.039,0.039 0.092,0.063 0.151,0.063l0.727 0c0.059,0 0.112,-0.024 0.151,-0.063 0.039,-0.039 0.063,-0.092 0.063,-0.151l0 -0.727c0,-0.059 -0.024,-0.112 -0.063,-0.151 -0.039,-0.039 -0.092,-0.063 -0.151,-0.063z"/>
   <polygon class="fil0" points="0.375,0.533 0.574,0.732 0.896,0.41 0.981,0.496 0.574,0.904 0.289,0.619 "/>
  </g>
 </g>
</svg>
