<?xml version="1.0" encoding="UTF-8"?>
<!DOCTYPE svg PUBLIC "-//W3C//DTD SVG 1.1//EN" "http://www.w3.org/Graphics/SVG/1.1/DTD/svg11.dtd">
<!-- Creator: CorelDRAW 2018 (64-Bit) -->
<svg xmlns="http://www.w3.org/2000/svg" xml:space="preserve" width="20px" height="19px" version="1.1" style="shape-rendering:geometricPrecision; text-rendering:geometricPrecision; image-rendering:optimizeQuality; fill-rule:evenodd; clip-rule:evenodd"
viewBox="0 0 4.586 4.245"
 xmlns:xlink="http://www.w3.org/1999/xlink">
 <defs>
  <style type="text/css">
   <![CDATA[
    .fil0 {fill:gray;fill-rule:nonzero}
   ]]>
  </style>
 </defs>
 <g id="Layer_x0020_1">
  <metadata id="CorelCorpID_0Corel-Layer"/>
  <g id="_2712949606880">
   <path class="fil0" d="M3.757 1.117c-0.064,0 -0.115,-0.051 -0.115,-0.114 0,-0.064 0.051,-0.115 0.115,-0.115l0.514 0c0.087,0 0.165,0.036 0.222,0.093 0.057,0.056 0.093,0.135 0.093,0.221l0 1.841c0,0.087 -0.036,0.165 -0.093,0.222 -0.056,0.057 -0.135,0.092 -0.222,0.092l-0.514 0c-0.064,0 -0.115,-0.051 -0.115,-0.114 0,-0.064 0.051,-0.115 0.115,-0.115l0.514 0c0.024,0 0.045,-0.01 0.06,-0.025 0.016,-0.016 0.025,-0.037 0.025,-0.06l0 -1.841c0,-0.023 -0.009,-0.044 -0.025,-0.06 -0.015,-0.015 -0.036,-0.025 -0.06,-0.025l-0.514 0z"/>
   <path class="fil0" d="M2.724 3.128c0.063,0 0.115,0.051 0.115,0.115 0,0.063 -0.052,0.114 -0.115,0.114l-2.41 0c-0.086,0 -0.165,-0.035 -0.222,-0.092l-0.007 -0.008c-0.053,-0.056 -0.085,-0.132 -0.085,-0.214l0 -1.841c0,-0.086 0.035,-0.164 0.092,-0.221 0.058,-0.058 0.136,-0.093 0.222,-0.093l2.41 0c0.063,0 0.115,0.051 0.115,0.115 0,0.063 -0.052,0.114 -0.115,0.114l-2.41 0c-0.023,0 -0.045,0.01 -0.06,0.025 -0.015,0.016 -0.025,0.037 -0.025,0.06l0 1.841c0,0.022 0.008,0.041 0.021,0.056l0.004 0.004c0.016,0.015 0.037,0.025 0.06,0.025l2.41 0z"/>
   <path class="fil0" d="M3.126 0.115c0,-0.064 0.051,-0.115 0.114,-0.115 0.064,0 0.115,0.051 0.115,0.115l0 4.016c0,0.063 -0.051,0.114 -0.115,0.114 -0.063,0 -0.114,-0.051 -0.114,-0.114l0 -4.016z"/>
   <path class="fil0" d="M2.529 0.229c-0.063,0 -0.115,-0.051 -0.115,-0.114 0,-0.064 0.052,-0.115 0.115,-0.115l1.423 0c0.063,0 0.115,0.051 0.115,0.115 0,0.063 -0.052,0.114 -0.115,0.114l-1.423 0z"/>
   <path class="fil0" d="M2.529 4.245c-0.063,0 -0.115,-0.051 -0.115,-0.114 0,-0.064 0.052,-0.115 0.115,-0.115l1.423 0c0.063,0 0.115,0.051 0.115,0.115 0,0.063 -0.052,0.114 -0.115,0.114l-1.423 0z"/>
  </g>
 </g>
</svg>
