<?xml version="1.0" encoding="UTF-8"?>
<!DOCTYPE svg PUBLIC "-//W3C//DTD SVG 1.1//EN" "http://www.w3.org/Graphics/SVG/1.1/DTD/svg11.dtd">
<!-- Creator: CorelDRAW 2018 (64-Bit) -->
<svg xmlns="http://www.w3.org/2000/svg" xml:space="preserve" width="20px" height="20px" version="1.1" style="shape-rendering:geometricPrecision; text-rendering:geometricPrecision; image-rendering:optimizeQuality; fill-rule:evenodd; clip-rule:evenodd"
viewBox="0 0 4.389 4.415"
 xmlns:xlink="http://www.w3.org/1999/xlink">
 <defs>
  <style type="text/css">
   <![CDATA[
    .fil1 {fill:gray}
    .fil0 {fill:gray;fill-rule:nonzero}
   ]]>
  </style>
 </defs>
 <g id="Layer_x0020_1">
  <metadata id="CorelCorpID_0Corel-Layer"/>
  <g id="_2712942523072">
   <path class="fil0" d="M2.588 4.148c-0.061,0 -0.111,-0.05 -0.111,-0.111 0,-0.061 0.05,-0.11 0.111,-0.11l0.292 0 0 -1.069c0,-0.061 0.049,-0.11 0.11,-0.11 0.061,0 0.11,0.049 0.11,0.11l0 1.179c0,0.061 -0.049,0.111 -0.11,0.111l-0.402 0z"/>
   <path class="fil0" d="M2.588 0.488c-0.061,0 -0.111,-0.049 -0.111,-0.11 0,-0.061 0.05,-0.11 0.111,-0.11l0.402 0c0.061,0 0.11,0.049 0.11,0.11l0 1.179c0,0.061 -0.049,0.11 -0.11,0.11 -0.061,0 -0.11,-0.049 -0.11,-0.11l0 -1.069 -0.292 0z"/>
   <path class="fil0" d="M2.114 0.235l-1.893 0.24 0 3.466 1.893 0.239 0 -3.945zm-2.017 0.034l2.103 -0.266c0.008,-0.002 0.016,-0.003 0.024,-0.003 0.061,0 0.11,0.049 0.11,0.11l0 4.195 -0.001 0.014c-0.007,0.06 -0.062,0.103 -0.123,0.095l-2.104 -0.266c-0.059,-0.002 -0.106,-0.051 -0.106,-0.111l0 -3.659c0,-0.055 0.041,-0.102 0.097,-0.109z"/>
   <path class="fil0" d="M3.359 3.013c-0.016,-0.029 -0.026,-0.064 -0.026,-0.106l0 -0.282 -0.606 0c-0.054,0 -0.104,-0.022 -0.14,-0.058 -0.036,-0.037 -0.059,-0.086 -0.059,-0.141l0 -0.437c0,-0.05 0.019,-0.096 0.05,-0.131l0.009 -0.009c0.036,-0.036 0.086,-0.059 0.14,-0.059l0.606 0 0 -0.282c0,-0.042 0.01,-0.077 0.026,-0.106 0.021,-0.037 0.051,-0.062 0.087,-0.074 0.034,-0.012 0.069,-0.012 0.103,-0.002 0.032,0.009 0.063,0.026 0.09,0.051l0.692 0.691c0.038,0.039 0.058,0.089 0.058,0.14 0,0.05 -0.02,0.101 -0.058,0.139l-0.684 0.684c-0.027,0.026 -0.058,0.046 -0.09,0.056l-0.008 0.003c-0.034,0.009 -0.069,0.009 -0.103,-0.002 -0.036,-0.013 -0.066,-0.037 -0.087,-0.075zm0.195 -0.201l0.604 -0.604 -0.604 -0.604 0 0.297c0,0.061 -0.049,0.11 -0.11,0.11l-0.695 0 0 0.393 0.695 0c0.061,0 0.11,0.05 0.11,0.111l0 0.297z"/>
   <path class="fil1" d="M1.59 2.094l0.14 0c0.062,0 0.113,0.051 0.113,0.114l0 0c0,0.062 -0.051,0.113 -0.113,0.113l-0.14 0c-0.062,0 -0.113,-0.051 -0.113,-0.113l0 0c0,-0.063 0.051,-0.114 0.113,-0.114z"/>
   <path class="fil0" d="M1.59 1.984l0.14 0c0.062,0 0.118,0.025 0.158,0.066 0.041,0.04 0.066,0.096 0.066,0.158 0,0.061 -0.025,0.117 -0.066,0.158 -0.041,0.04 -0.097,0.065 -0.158,0.065l-0.14 0c-0.061,0 -0.117,-0.025 -0.158,-0.065 -0.04,-0.041 -0.065,-0.097 -0.065,-0.158 0,-0.062 0.025,-0.118 0.065,-0.158 0.041,-0.041 0.097,-0.066 0.158,-0.066zm0.14 0.221l-0.14 0 -0.002 0.001 0 0.002 0 0.002 0.002 0.001 0.14 0 0.002 -0.001 0.001 -0.002 -0.001 -0.002 -0.002 -0.001z"/>
  </g>
 </g>
</svg>
