<?xml version="1.0" encoding="UTF-8"?>
<!DOCTYPE svg PUBLIC "-//W3C//DTD SVG 1.1//EN" "http://www.w3.org/Graphics/SVG/1.1/DTD/svg11.dtd">
<!-- Creator: CorelDRAW 2018 (64-Bit) -->
<svg xmlns="http://www.w3.org/2000/svg" xml:space="preserve" width="21px" height="20px" version="1.1" style="shape-rendering:geometricPrecision; text-rendering:geometricPrecision; image-rendering:optimizeQuality; fill-rule:evenodd; clip-rule:evenodd"
viewBox="0 0 0.497 0.473"
 xmlns:xlink="http://www.w3.org/1999/xlink">
 <defs>
  <style type="text/css">
   <![CDATA[
    .fil0 {fill:gray;fill-rule:nonzero}
   ]]>
  </style>
 </defs>
 <g id="Layer_x0020_1">
  <metadata id="CorelCorpID_0Corel-Layer"/>
  <path class="fil0" d="M0.233 0.035c0,-0.009 0.001,-0.016 0.004,-0.021 0.004,-0.006 0.009,-0.01 0.015,-0.012 0.005,-0.002 0.011,-0.002 0.017,-0.001 0.007,0.002 0.014,0.006 0.02,0.012l0.198 0.198c0.007,0.007 0.01,0.017 0.01,0.026 0,0.009 -0.003,0.019 -0.011,0.026l-0.197 0.197c-0.006,0.006 -0.013,0.01 -0.02,0.012 -0.006,0.002 -0.012,0.002 -0.017,0l-0.001 0c-0.006,-0.003 -0.01,-0.006 -0.014,-0.012 -0.003,-0.006 -0.004,-0.013 -0.004,-0.021l0 -0.088c0,-0.004 -0.002,-0.007 -0.005,-0.01 -0.002,-0.002 -0.005,-0.004 -0.009,-0.004l-0.182 0c-0.01,0 -0.019,-0.004 -0.026,-0.011 -0.007,-0.007 -0.011,-0.016 -0.011,-0.026l0 -0.126c0,-0.011 0.004,-0.02 0.011,-0.027 0.007,-0.007 0.016,-0.011 0.026,-0.011l0.182 0c0.004,0 0.007,-0.001 0.009,-0.004 0.003,-0.002 0.005,-0.006 0.005,-0.01l0 -0.087zm0.025 -0.01c-0.001,0.002 -0.002,0.005 -0.002,0.01l0 0.087c0,0.011 -0.004,0.02 -0.011,0.027 -0.007,0.007 -0.016,0.011 -0.026,0.011l-0.182 0c-0.003,0 -0.007,0.001 -0.009,0.004 -0.003,0.002 -0.004,0.006 -0.004,0.01l0 0.126c0,0.004 0.001,0.007 0.004,0.009 0.002,0.003 0.006,0.005 0.009,0.005l0.182 0c0.01,0 0.019,0.004 0.026,0.011 0.007,0.006 0.011,0.016 0.011,0.026l0 0.088c0,0.004 0.001,0.007 0.002,0.009 0,0.001 0.001,0.001 0.001,0.002l0 0c0.001,0 0.002,0 0.004,-0.001 0.003,0 0.006,-0.002 0.009,-0.005l0.198 -0.198c0.002,-0.002 0.003,-0.006 0.003,-0.009 0,-0.004 -0.001,-0.007 -0.003,-0.009l-0.198 -0.198c-0.003,-0.003 -0.006,-0.005 -0.009,-0.006 -0.002,0 -0.003,-0.001 -0.004,0 0,0 -0.001,0 -0.001,0.001z"/>
 </g>
</svg>
