<?xml version="1.0" encoding="UTF-8"?>
<!DOCTYPE svg PUBLIC "-//W3C//DTD SVG 1.1//EN" "http://www.w3.org/Graphics/SVG/1.1/DTD/svg11.dtd">
<!-- Creator: CorelDRAW 2018 (64-Bit) -->
<svg xmlns="http://www.w3.org/2000/svg" xml:space="preserve" width="21px" height="21px" version="1.1" style="shape-rendering:geometricPrecision; text-rendering:geometricPrecision; image-rendering:optimizeQuality; fill-rule:evenodd; clip-rule:evenodd"
viewBox="0 0 0.497 0.502"
 xmlns:xlink="http://www.w3.org/1999/xlink">
 <defs>
  <style type="text/css">
   <![CDATA[
    .fil0 {fill:gray;fill-rule:nonzero}
   ]]>
  </style>
 </defs>
 <g id="Layer_x0020_1">
  <metadata id="CorelCorpID_0Corel-Layer"/>
  <g id="_2118826295136">
   <path class="fil0" d="M0 0.373c0,-0.007 0.005,-0.012 0.012,-0.012 0.006,0 0.012,0.005 0.012,0.012l0 0.069c0,0.01 0.004,0.019 0.01,0.026l0.001 0c0.006,0.006 0.015,0.01 0.024,0.01l0.379 0c0.01,0 0.019,-0.004 0.025,-0.01 0.006,-0.007 0.01,-0.016 0.01,-0.026l0 -0.069c0,-0.007 0.006,-0.012 0.012,-0.012 0.007,0 0.012,0.005 0.012,0.012l0 0.069c0,0.017 -0.007,0.032 -0.017,0.042 -0.011,0.011 -0.026,0.018 -0.042,0.018l-0.379 0c-0.016,0 -0.03,-0.007 -0.041,-0.017l-0.001 -0.001c-0.01,-0.01 -0.017,-0.025 -0.017,-0.042l0 -0.069z"/>
   <path class="fil0" d="M0.402 0.176c0.007,0 0.013,0.002 0.017,0.004 0.005,0.003 0.009,0.008 0.011,0.013 0.001,0.005 0.001,0.01 0,0.015 -0.002,0.006 -0.005,0.011 -0.01,0.016l-0.15 0.151c-0.006,0.005 -0.014,0.008 -0.021,0.008 -0.008,0 -0.016,-0.003 -0.022,-0.009l-0.151 -0.151c-0.004,-0.004 -0.007,-0.01 -0.009,-0.015 -0.001,-0.005 -0.001,-0.01 0,-0.015 0.002,-0.005 0.006,-0.01 0.011,-0.013 0.005,-0.002 0.01,-0.004 0.017,-0.004l0.074 0 0 -0.145c0,-0.008 0.004,-0.016 0.01,-0.022 0.005,-0.005 0.013,-0.009 0.022,-0.009l0.095 0c0.009,0 0.017,0.004 0.022,0.009 0.006,0.006 0.01,0.014 0.01,0.022l0 0.145 0.074 0zm0.005 0.025c-0.001,-0.001 -0.002,-0.001 -0.005,-0.001l-0.086 0c-0.007,0 -0.012,-0.005 -0.012,-0.012l0 -0.157c0,-0.002 -0.001,-0.004 -0.002,-0.005 -0.002,-0.001 -0.003,-0.002 -0.006,-0.002l-0.095 0c-0.002,0 -0.004,0.001 -0.006,0.002 -0.001,0.001 -0.002,0.003 -0.002,0.005l0 0.157c0,0.007 -0.005,0.012 -0.012,0.012l-0.086 0c-0.002,0 -0.004,0 -0.005,0.001l0 0.001c0,0.001 0.001,0.003 0.003,0.005l0.15 0.15c0.002,0.002 0.004,0.002 0.006,0.002 0.001,0 0.003,0 0.004,-0.001l0.151 -0.151c0.001,-0.002 0.003,-0.004 0.003,-0.005l0 -0.001z"/>
  </g>
 </g>
</svg>
