<?xml version="1.0" encoding="UTF-8"?>
<!DOCTYPE svg PUBLIC "-//W3C//DTD SVG 1.1//EN" "http://www.w3.org/Graphics/SVG/1.1/DTD/svg11.dtd">
<!-- Creator: CorelDRAW 2019 (64-Bit) -->
<svg xmlns="http://www.w3.org/2000/svg" xml:space="preserve" width="21px" height="13px" version="1.1" style="shape-rendering:geometricPrecision; text-rendering:geometricPrecision; image-rendering:optimizeQuality; fill-rule:evenodd; clip-rule:evenodd"
viewBox="0 0 0.34 0.205"
 xmlns:xlink="http://www.w3.org/1999/xlink">
 <defs>
  <style type="text/css">
   <![CDATA[
    .fil0 {fill:gray;fill-rule:nonzero}
   ]]>
  </style>
 </defs>
 <g id="Layer_x0020_1">
  <metadata id="CorelCorpID_0Corel-Layer"/>
  <g id="_1812963839776">
   <path class="fil0" d="M0.011 0.205c-0.004,0 -0.008,-0.003 -0.008,-0.008 0,-0.004 0.004,-0.008 0.008,-0.008l0.072 0c0.004,0 0.008,0.004 0.008,0.008 0,0.005 -0.004,0.008 -0.008,0.008l-0.072 0z"/>
   <path class="fil0" d="M0.101 0.099l-0.02 0.012c-0.004,0.002 -0.006,0.008 -0.007,0.014 0,0.007 0.002,0.015 0.005,0.022l0.055 -0.031c-0.005,-0.007 -0.011,-0.013 -0.016,-0.016 -0.006,-0.003 -0.012,-0.003 -0.016,-0.001l-0.001 0zm-0.028 -0.002l0.02 -0.011c0,-0.001 0.001,-0.001 0.001,-0.001 0.009,-0.005 0.02,-0.004 0.031,0.001 0.009,0.005 0.019,0.014 0.025,0.025 0.001,0.001 0.002,0.002 0.002,0.003 0.002,0.004 0.001,0.009 -0.003,0.011l-0.069 0.04c-0.004,0.003 -0.009,0.001 -0.011,-0.003l-0.001 -0.002c-0.007,-0.012 -0.01,-0.025 -0.01,-0.035 0.001,-0.013 0.006,-0.023 0.015,-0.028z"/>
   <path class="fil0" d="M0.091 0.087c-0.002,-0.003 -0.005,-0.006 -0.007,-0.008 -0.002,-0.001 -0.003,-0.002 -0.003,-0.002l-0.009 0.005c0,0 0.001,0.002 0.001,0.004 0,0.003 0.001,0.006 0.003,0.009l0.015 -0.008zm0.002 -0.021c0.006,0.004 0.011,0.01 0.015,0.017l0.001 0.002c0.002,0.004 0.001,0.009 -0.003,0.011l-0.029 0.018c-0.004,0.002 -0.009,0.001 -0.011,-0.003l-0.001 -0.002c-0.005,-0.007 -0.007,-0.015 -0.008,-0.022 -0.001,-0.008 0.001,-0.015 0.007,-0.018l0.009 -0.006c0.006,-0.003 0.013,-0.002 0.02,0.003z"/>
   <path class="fil0" d="M0.02 0.122c-0.001,0 -0.002,0.001 -0.003,0.001 0,0.001 -0.001,0.002 -0.001,0.003 0,0.001 0.001,0.002 0.001,0.003l0.001 0c0,0.001 0.001,0.001 0.002,0.001 0.001,0 0.002,0 0.003,-0.001l0 0c0.001,-0.001 0.001,-0.002 0.001,-0.003 0,-0.001 0,-0.002 -0.001,-0.003 -0.001,0 -0.002,-0.001 -0.003,-0.001zm-0.014 -0.01c0.004,-0.004 0.009,-0.006 0.014,-0.006 0.006,0 0.011,0.002 0.014,0.006 0.004,0.004 0.006,0.009 0.006,0.014 0,0.005 -0.002,0.01 -0.005,0.014l-0.001 0c-0.003,0.004 -0.008,0.006 -0.014,0.006 -0.005,0 -0.01,-0.002 -0.014,-0.005l0 -0.001c-0.004,-0.003 -0.006,-0.008 -0.006,-0.014 0,-0.005 0.002,-0.01 0.006,-0.014z"/>
   <path class="fil0" d="M0.063 0.088c0.003,-0.003 0.008,-0.001 0.011,0.002 0.002,0.004 0.001,0.009 -0.003,0.011l-0.038 0.024c-0.004,0.002 -0.009,0.001 -0.011,-0.003 -0.003,-0.004 -0.001,-0.009 0.002,-0.011l0.039 -0.023z"/>
   <path class="fil0" d="M0.019 0.141c-0.002,-0.005 0,-0.009 0.005,-0.011 0.004,-0.001 0.008,0.001 0.01,0.005l0.022 0.06c0.002,0.004 0,0.008 -0.004,0.01 -0.004,0.001 -0.009,-0.001 -0.011,-0.005l-0.022 -0.059z"/>
   <path class="fil0" d="M0.11 0.047c0,0.004 -0.003,0.008 -0.008,0.008 -0.004,0 -0.008,-0.004 -0.008,-0.008l0 -0.031c0,-0.004 0.002,-0.008 0.005,-0.011 0.003,-0.003 0.007,-0.005 0.011,-0.005l0.214 0c0.004,0 0.009,0.002 0.011,0.005 0.003,0.003 0.005,0.007 0.005,0.011l0 0.139c0,0.004 -0.002,0.008 -0.005,0.011l0 0c-0.003,0.003 -0.007,0.005 -0.011,0.005l-0.214 0c-0.004,0 -0.008,-0.003 -0.008,-0.008 0,-0.004 0.004,-0.008 0.008,-0.008l0 0 0.215 0 0 -0.139 -0.215 0 0 0.031z"/>
   <path class="fil0" d="M0.167 0.205c-0.004,0 -0.008,-0.003 -0.008,-0.008 0,-0.004 0.004,-0.008 0.008,-0.008l0.1 0c0.004,0 0.008,0.004 0.008,0.008 0,0.005 -0.004,0.008 -0.008,0.008l-0.1 0z"/>
   <path class="fil0" d="M0.193 0.194c0,0.004 -0.004,0.008 -0.009,0.008 -0.004,0 -0.008,-0.004 -0.008,-0.008l0 -0.031c0,-0.004 0.004,-0.008 0.008,-0.008 0.005,0 0.009,0.004 0.009,0.008l0 0.031z"/>
   <path class="fil0" d="M0.258 0.194c0,0.004 -0.004,0.008 -0.008,0.008 -0.005,0 -0.008,-0.004 -0.008,-0.008l0 -0.031c0,-0.004 0.003,-0.008 0.008,-0.008 0.004,0 0.008,0.004 0.008,0.008l0 0.031z"/>
  </g>
 </g>
</svg>
