<?xml version="1.0" encoding="UTF-8"?>
<!DOCTYPE svg PUBLIC "-//W3C//DTD SVG 1.1//EN" "http://www.w3.org/Graphics/SVG/1.1/DTD/svg11.dtd">
<!-- Creator: CorelDRAW 2019 (64-Bit) -->
<svg xmlns="http://www.w3.org/2000/svg" xml:space="preserve" width="19px" height="13px" version="1.1" style="shape-rendering:geometricPrecision; text-rendering:geometricPrecision; image-rendering:optimizeQuality; fill-rule:evenodd; clip-rule:evenodd"
viewBox="0 0 0.3 0.202"
 xmlns:xlink="http://www.w3.org/1999/xlink">
 <defs>
  <style type="text/css">
   <![CDATA[
    .fil0 {fill:gray;fill-rule:nonzero}
   ]]>
  </style>
 </defs>
 <g id="Layer_x0020_1">
  <metadata id="CorelCorpID_0Corel-Layer"/>
  <g id="_1812719166176">
   <path class="fil0" d="M0.226 0.046c0,0.005 0.003,0.008 0.008,0.008 0.004,0 0.008,-0.003 0.008,-0.008l0 -0.03c0,-0.004 -0.002,-0.008 -0.005,-0.011 -0.003,-0.003 -0.007,-0.005 -0.011,-0.005l-0.21 0c-0.004,0 -0.008,0.002 -0.011,0.005 -0.003,0.003 -0.005,0.007 -0.005,0.011l0 0.136c0,0.004 0.002,0.008 0.005,0.011l0 0c0.003,0.003 0.007,0.005 0.011,0.005l0.137 0c0.004,0 0.008,-0.004 0.008,-0.008 0,-0.004 -0.004,-0.008 -0.008,-0.008l0 0 -0.138 0 0 -0.136 0.211 0 0 0.03z"/>
   <path class="fil0" d="M0.17 0.186c0.004,0 0.008,0.003 0.008,0.008 0,0.004 -0.004,0.008 -0.008,0.008l-0.098 0c-0.004,0 -0.008,-0.004 -0.008,-0.008 0,-0.005 0.004,-0.008 0.008,-0.008l0.098 0z"/>
   <path class="fil0" d="M0.161 0.19c0,0.005 -0.004,0.008 -0.008,0.008 -0.004,0 -0.008,-0.003 -0.008,-0.008l0 -0.03c0,-0.004 0.004,-0.008 0.008,-0.008 0.004,0 0.008,0.004 0.008,0.008l0 0.03z"/>
   <path class="fil0" d="M0.097 0.19c0,0.005 -0.004,0.008 -0.008,0.008 -0.005,0 -0.008,-0.003 -0.008,-0.008l0 -0.03c0,-0.004 0.003,-0.008 0.008,-0.008 0.004,0 0.008,0.004 0.008,0.008l0 0.03z"/>
   <path class="fil0" d="M0.222 0.096c-0.002,0.001 -0.005,0.002 -0.007,0.003 -0.002,0.002 -0.004,0.003 -0.006,0.005 -0.002,0.002 -0.005,0.002 -0.007,0.001l-0.014 -0.004 -0.002 0.003 -0.001 0.002 0.011 0.01c0.002,0.002 0.003,0.005 0.002,0.008 0,0.001 -0.001,0.002 -0.001,0.003 0,0.001 0,0.003 0,0.004 0,0.002 0,0.003 0,0.004 0,0.001 0.001,0.002 0.001,0.004 0,0.002 -0.001,0.005 -0.002,0.007l-0.011 0.01 0.001 0.002 0.002 0.003 0.014 -0.004c0.003,-0.001 0.006,0 0.008,0.002 0.002,0.001 0.003,0.003 0.005,0.004 0.003,0.001 0.005,0.002 0.007,0.003 0.003,0.001 0.005,0.003 0.006,0.006l0.003 0.014 0.003 0 0.003 0 0.003 -0.014c0.001,-0.003 0.003,-0.005 0.006,-0.006 0.002,-0.001 0.004,-0.002 0.006,-0.003 0.002,-0.001 0.004,-0.003 0.006,-0.005 0.002,-0.001 0.005,-0.002 0.008,-0.001l0.014 0.004 0.001 -0.003 0.002 -0.002 -0.011 -0.01c-0.002,-0.002 -0.003,-0.005 -0.002,-0.008 0,-0.001 0,-0.002 0,-0.003l0 0c0,-0.001 0,-0.003 0,-0.004 0,-0.001 0,-0.003 0,-0.004 0,-0.001 0,-0.002 0,-0.003 -0.001,-0.003 0,-0.006 0.002,-0.008l0.011 -0.01 -0.002 -0.002 -0.001 -0.003 -0.014 0.004c-0.003,0.001 -0.006,0.001 -0.008,-0.001 -0.002,-0.002 -0.004,-0.003 -0.006,-0.005 -0.002,-0.001 -0.004,-0.002 -0.007,-0.003 -0.003,-0.001 -0.004,-0.003 -0.005,-0.006l-0.003 -0.014 -0.003 0 -0.003 0 -0.003 0.015c-0.001,0.003 -0.003,0.005 -0.006,0.005zm-0.014 -0.01c0.001,-0.001 0.003,-0.002 0.005,-0.003l0.004 -0.015c0,-0.004 0.003,-0.006 0.006,-0.007 0.004,0 0.007,-0.001 0.011,-0.001 0.001,0 0.003,0.001 0.005,0.001l0 0c0.002,0 0.004,0 0.005,0 0.003,0.001 0.006,0.003 0.007,0.006l0.004 0.016c0.001,0.001 0.003,0.002 0.005,0.003 0.002,0.001 0.004,0.002 0.005,0.003l0.015 -0.005c0.003,0 0.007,0 0.009,0.003 0.002,0.003 0.004,0.006 0.006,0.009 0.002,0.003 0.003,0.006 0.005,0.009 0.001,0.003 0,0.007 -0.002,0.009l-0.012 0.011 0 0.001c0,0.002 0,0.003 0,0.005 0,0.002 0,0.003 0,0.005l0 0.001 0.011 0.011c0.003,0.002 0.004,0.006 0.003,0.009 -0.002,0.003 -0.003,0.006 -0.005,0.009 -0.002,0.003 -0.003,0.006 -0.006,0.009 -0.001,0.002 -0.005,0.004 -0.009,0.003l-0.015 -0.005c-0.001,0.001 -0.003,0.003 -0.005,0.004 -0.002,0.001 -0.004,0.002 -0.005,0.002l-0.004 0.016c-0.001,0.003 -0.003,0.005 -0.007,0.006 -0.001,0 -0.003,0 -0.005,0.001 -0.002,0 -0.004,0 -0.005,0 -0.002,0 -0.004,0 -0.006,0 -0.001,-0.001 -0.003,-0.001 -0.005,-0.001 -0.003,-0.001 -0.006,-0.003 -0.006,-0.006l-0.004 -0.016c-0.002,0 -0.004,-0.001 -0.005,-0.002 -0.002,-0.001 -0.004,-0.003 -0.006,-0.004l-0.015 0.005c-0.003,0.001 -0.006,0 -0.008,-0.003 -0.003,-0.003 -0.005,-0.005 -0.006,-0.009 -0.002,-0.003 -0.004,-0.006 -0.005,-0.009 -0.001,-0.003 0,-0.006 0.002,-0.009l0.012 -0.011 0 -0.001c-0.001,-0.001 -0.001,-0.003 -0.001,-0.005 0,-0.002 0,-0.003 0.001,-0.005l0 -0.001 -0.012 -0.011c-0.002,-0.002 -0.003,-0.005 -0.002,-0.009 0.001,-0.003 0.003,-0.006 0.005,-0.009 0.001,-0.003 0.003,-0.006 0.005,-0.008 0.002,-0.003 0.006,-0.005 0.009,-0.004l0.015 0.005c0.002,-0.001 0.004,-0.002 0.006,-0.003z"/>
   <path class="fil0" d="M0.234 0.112c0.005,0 0.01,0.002 0.013,0.006 0.004,0.003 0.006,0.008 0.006,0.013 0,0.005 -0.002,0.01 -0.006,0.013 -0.003,0.004 -0.008,0.006 -0.013,0.006 -0.005,0 -0.01,-0.002 -0.014,-0.006 -0.003,-0.003 -0.005,-0.008 -0.005,-0.013 0,-0.005 0.002,-0.01 0.005,-0.013 0.004,-0.004 0.009,-0.006 0.014,-0.006zm0.002 0.017c-0.001,-0.001 -0.001,-0.001 -0.002,-0.001 -0.001,0 -0.002,0 -0.002,0.001 -0.001,0.001 -0.001,0.001 -0.001,0.002 0,0.001 0,0.002 0.001,0.002 0,0.001 0.001,0.001 0.002,0.001 0.001,0 0.001,0 0.002,-0.001 0,0 0.001,-0.001 0.001,-0.002 0,-0.001 -0.001,-0.001 -0.001,-0.002z"/>
  </g>
 </g>
</svg>
