<?xml version="1.0" encoding="UTF-8"?>
<!DOCTYPE svg PUBLIC "-//W3C//DTD SVG 1.1//EN" "http://www.w3.org/Graphics/SVG/1.1/DTD/svg11.dtd">
<!-- Creator: CorelDRAW 2018 (64-Bit) -->
<svg xmlns="http://www.w3.org/2000/svg" xml:space="preserve" width="20px" height="15px" version="1.1" style="shape-rendering:geometricPrecision; text-rendering:geometricPrecision; image-rendering:optimizeQuality; fill-rule:evenodd; clip-rule:evenodd"
viewBox="0 0 0.35 0.252"
 xmlns:xlink="http://www.w3.org/1999/xlink">
 <defs>
  <style type="text/css">
   <![CDATA[
    .fil0 {fill:#052337}
    .fil1 {fill:white;fill-rule:nonzero}
   ]]>
  </style>
 </defs>
 <g id="Layer_x0020_1">
  <metadata id="CorelCorpID_0Corel-Layer"/>
  <path class="fil0" d="M0.053 0.004l0.244 0c0.027,0 0.049,0.022 0.049,0.049l0 0.146c0,0.027 -0.022,0.049 -0.049,0.049l-0.244 0c-0.027,0 -0.049,-0.022 -0.049,-0.049l0 -0.146c0,-0.027 0.022,-0.049 0.049,-0.049z"/>
  <path class="fil1" d="M0.053 0l0.244 0c0.015,0 0.028,0.006 0.037,0.016 0.01,0.009 0.016,0.022 0.016,0.037l0 0.146c0,0.015 -0.006,0.028 -0.016,0.038 -0.009,0.009 -0.022,0.015 -0.037,0.015l-0.244 0c-0.015,0 -0.028,-0.006 -0.037,-0.015 -0.01,-0.01 -0.016,-0.023 -0.016,-0.038l0 -0.146c0,-0.015 0.006,-0.028 0.016,-0.037 0.009,-0.01 0.022,-0.016 0.037,-0.016zm0.244 0.009l-0.244 0c-0.012,0 -0.023,0.005 -0.031,0.013 -0.008,0.008 -0.013,0.019 -0.013,0.031l0 0.146c0,0.013 0.005,0.024 0.013,0.032 0.008,0.008 0.019,0.013 0.031,0.013l0.244 0c0.012,0 0.023,-0.005 0.031,-0.013 0.008,-0.008 0.013,-0.019 0.013,-0.032l0 -0.146c0,-0.012 -0.005,-0.023 -0.013,-0.031 -0.008,-0.008 -0.019,-0.013 -0.031,-0.013z"/>
  <path class="fil1" d="M0.184 0.189l-0.016 0 -0.012 -0.034 -0.052 0 -0.012 0.034 -0.015 0 0.046 -0.121 0.015 0 0.046 0.121zm-0.033 -0.047l-0.019 -0.051c-0.001,-0.002 -0.001,-0.004 -0.002,-0.008l0 0c-0.001,0.003 -0.001,0.006 -0.002,0.008l-0.019 0.051 0.042 0zm0.122 0.047l-0.014 0 0 -0.015 0 0c-0.006,0.011 -0.016,0.017 -0.029,0.017 -0.011,0 -0.02,-0.004 -0.026,-0.012 -0.007,-0.007 -0.01,-0.018 -0.01,-0.031 0,-0.014 0.003,-0.026 0.011,-0.034 0.007,-0.009 0.016,-0.013 0.028,-0.013 0.012,0 0.021,0.005 0.026,0.014l0 0 0 -0.053 0.014 0 0 0.127zm-0.014 -0.039l0 -0.013c0,-0.007 -0.002,-0.012 -0.006,-0.017 -0.005,-0.005 -0.011,-0.008 -0.018,-0.008 -0.008,0 -0.015,0.004 -0.02,0.01 -0.005,0.006 -0.007,0.014 -0.007,0.025 0,0.01 0.002,0.018 0.007,0.024 0.005,0.005 0.011,0.008 0.019,0.008 0.007,0 0.013,-0.002 0.018,-0.008 0.005,-0.006 0.007,-0.013 0.007,-0.021z"/>
 </g>
</svg>
