<?xml version="1.0" encoding="UTF-8"?>
<!DOCTYPE svg PUBLIC "-//W3C//DTD SVG 1.1//EN" "http://www.w3.org/Graphics/SVG/1.1/DTD/svg11.dtd">
<!-- Creator: CorelDRAW 2018 (64-Bit) -->
<svg xmlns="http://www.w3.org/2000/svg" xml:space="preserve" width="20px" height="24px" version="1.1" style="shape-rendering:geometricPrecision; text-rendering:geometricPrecision; image-rendering:optimizeQuality; fill-rule:evenodd; clip-rule:evenodd"
viewBox="0 0 0.459 0.543"
 xmlns:xlink="http://www.w3.org/1999/xlink">
 <defs>
  <style type="text/css">
   <![CDATA[
    .fil0 {fill:gray;fill-rule:nonzero}
   ]]>
  </style>
 </defs>
 <g id="Layer_x0020_1">
  <metadata id="CorelCorpID_0Corel-Layer"/>
  <path class="fil0" d="M0.218 0.34l0.038 -0.038c0.004,-0.003 0.008,-0.005 0.013,-0.005 0.005,0 0.01,0.002 0.014,0.005l0.053 0.054 0.053 -0.054c0.004,-0.003 0.008,-0.005 0.013,-0.005 0.005,0 0.01,0.002 0.014,0.005l0.037 0.038c0.004,0.004 0.006,0.008 0.006,0.013 0,0.005 -0.002,0.01 -0.006,0.014l-0.053 0.053 0.053 0.053 0.001 0.001c0.003,0.004 0.005,0.008 0.005,0.012 0,0.005 -0.002,0.01 -0.006,0.014l-0.037 0.037c-0.004,0.004 -0.009,0.006 -0.014,0.006 -0.005,0 -0.009,-0.002 -0.013,-0.006l-0.053 -0.053 -0.053 0.053c-0.004,0.004 -0.009,0.006 -0.014,0.006 -0.005,0 -0.009,-0.002 -0.013,-0.006l-0.038 -0.037 -0.001 -0.001c-0.003,-0.004 -0.004,-0.008 -0.004,-0.013 0,-0.005 0.002,-0.009 0.005,-0.013l0.054 -0.053 -0.054 -0.053c-0.003,-0.004 -0.005,-0.009 -0.005,-0.014 0,-0.004 0.002,-0.009 0.005,-0.013zm0.051 -0.019l-0.032 0.032 0.059 0.059c0.004,0.004 0.004,0.011 0,0.016l-0.059 0.058 0.032 0.033 0.059 -0.059c0.004,-0.004 0.011,-0.004 0.016,0l0.058 0.059 0.033 -0.033 -0.059 -0.058c-0.004,-0.005 -0.004,-0.012 0,-0.016l0.059 -0.059 -0.033 -0.032 -0.058 0.059c-0.005,0.004 -0.012,0.004 -0.016,0l-0.059 -0.059z"/>
  <path class="fil0" d="M0.226 0.412c0.007,0 0.012,0.005 0.012,0.011 0,0.006 -0.005,0.011 -0.012,0.011l-0.2 0 -0.003 0c-0.006,0 -0.011,-0.003 -0.016,-0.007 -0.004,-0.005 -0.007,-0.011 -0.007,-0.017 0.001,-0.03 0.005,-0.064 0.008,-0.094 0.001,-0.015 0.008,-0.028 0.015,-0.038 0.012,-0.014 0.027,-0.023 0.035,-0.025 0.013,-0.003 0.03,0.002 0.045,0.006 0.004,0.001 0.008,0.002 0.012,0.003l0.001 0c0.019,0.005 0.039,0.007 0.06,0.007 0.021,0 0.042,-0.002 0.061,-0.007 0.004,-0.001 0.008,-0.002 0.012,-0.003 0.015,-0.004 0.033,-0.009 0.045,-0.006 0.008,0.002 0.02,0.009 0.031,0.021 0.007,0.008 0.014,0.019 0.017,0.031 0.002,0.006 -0.002,0.012 -0.008,0.014 -0.006,0.002 -0.012,-0.002 -0.013,-0.008 -0.003,-0.009 -0.007,-0.016 -0.013,-0.022 -0.007,-0.008 -0.015,-0.013 -0.02,-0.014 -0.006,-0.002 -0.02,0.002 -0.033,0.006 -0.004,0.001 -0.009,0.002 -0.013,0.003 -0.021,0.005 -0.043,0.008 -0.066,0.008 -0.022,0 -0.045,-0.003 -0.065,-0.008l-0.001 0c-0.004,-0.001 -0.008,-0.002 -0.013,-0.003 -0.013,-0.004 -0.027,-0.008 -0.033,-0.006 -0.005,0.001 -0.015,0.007 -0.023,0.017 -0.005,0.007 -0.01,0.016 -0.01,0.026l-0.008 0.092c0,0 0,0 0,0.001 0.001,0 0.001,0.001 0.002,0.001l0.201 0z"/>
  <path class="fil0" d="M0.176 0c0.033,0 0.064,0.014 0.086,0.036 0.022,0.022 0.035,0.052 0.035,0.086 0,0.034 -0.013,0.064 -0.035,0.086 -0.022,0.022 -0.053,0.036 -0.086,0.036 -0.034,0 -0.065,-0.014 -0.087,-0.036l0 -0.001c-0.022,-0.022 -0.035,-0.052 -0.035,-0.085 0,-0.034 0.013,-0.064 0.035,-0.086l0 0c0.023,-0.022 0.053,-0.036 0.087,-0.036zm0.07 0.052c-0.018,-0.018 -0.043,-0.029 -0.07,-0.029 -0.028,0 -0.053,0.011 -0.071,0.029 -0.018,0.018 -0.029,0.042 -0.029,0.07 0,0.027 0.011,0.052 0.029,0.07l0 0c0.018,0.018 0.043,0.029 0.071,0.029 0.027,0 0.052,-0.011 0.07,-0.029 0.018,-0.018 0.029,-0.043 0.029,-0.07 0,-0.028 -0.011,-0.052 -0.029,-0.07z"/>
 </g>
</svg>
