<?xml version="1.0" encoding="UTF-8"?>
<!DOCTYPE svg PUBLIC "-//W3C//DTD SVG 1.1//EN" "http://www.w3.org/Graphics/SVG/1.1/DTD/svg11.dtd">
<!-- Creator: CorelDRAW 2018 (64-Bit) -->
<svg xmlns="http://www.w3.org/2000/svg" xml:space="preserve" width="21px" height="16px" version="1.1" style="shape-rendering:geometricPrecision; text-rendering:geometricPrecision; image-rendering:optimizeQuality; fill-rule:evenodd; clip-rule:evenodd"
viewBox="0 0 0.498 0.383"
 xmlns:xlink="http://www.w3.org/1999/xlink">
 <defs>
  <style type="text/css">
   <![CDATA[
    .fil0 {fill:gray;fill-rule:nonzero}
   ]]>
  </style>
 </defs>
 <g id="Layer_x0020_1">
  <metadata id="CorelCorpID_0Corel-Layer"/>
  <path class="fil0" d="M0.027 0l0.444 0c0.007,0 0.014,0.003 0.019,0.008 0.005,0.005 0.008,0.012 0.008,0.019l0 0.254c0,0.007 -0.003,0.014 -0.008,0.019 -0.005,0.005 -0.012,0.008 -0.019,0.008l-0.04 0 0 0.063c0,0.007 -0.005,0.012 -0.012,0.012 -0.003,0 -0.006,-0.002 -0.009,-0.004l-0.077 -0.071 -0.306 0c-0.007,0 -0.014,-0.003 -0.019,-0.008 -0.005,-0.005 -0.008,-0.012 -0.008,-0.019l0 -0.254c0,-0.007 0.003,-0.014 0.008,-0.019l0 0c0.005,-0.005 0.012,-0.008 0.019,-0.008zm0.444 0.024l-0.444 0c-0.001,0 -0.002,0 -0.002,0.001 -0.001,0 -0.001,0.001 -0.001,0.002l0 0.254c0,0 0,0.001 0.001,0.002 0,0.001 0.001,0.001 0.002,0.001l0.311 0c0.003,0 0.005,0.001 0.008,0.003l0.061 0.057 0 -0.048c0,-0.007 0.006,-0.012 0.012,-0.012l0.052 0c0.001,0 0.002,0 0.002,-0.001 0.001,-0.001 0.002,-0.001 0.002,-0.002l0 -0.254c0,-0.001 -0.001,-0.002 -0.002,-0.002 0,-0.001 -0.001,-0.001 -0.002,-0.001z"/>
  <path class="fil0" d="M0.09 0.101c-0.007,0 -0.012,-0.005 -0.012,-0.011 0,-0.007 0.005,-0.012 0.012,-0.012l0.318 0c0.007,0 0.012,0.005 0.012,0.012 0,0.006 -0.005,0.011 -0.012,0.011l-0.318 0z"/>
  <path class="fil0" d="M0.09 0.165c-0.007,0 -0.012,-0.005 -0.012,-0.012 0,-0.007 0.005,-0.012 0.012,-0.012l0.318 0c0.007,0 0.012,0.005 0.012,0.012 0,0.007 -0.005,0.012 -0.012,0.012l-0.318 0z"/>
  <path class="fil0" d="M0.09 0.228c-0.007,0 -0.012,-0.005 -0.012,-0.012 0,-0.006 0.005,-0.011 0.012,-0.011l0.202 0c0.007,0 0.012,0.005 0.012,0.011 0,0.007 -0.005,0.012 -0.012,0.012l-0.202 0z"/>
 </g>
</svg>
