<?xml version="1.0" encoding="UTF-8"?>
<!DOCTYPE svg PUBLIC "-//W3C//DTD SVG 1.1//EN" "http://www.w3.org/Graphics/SVG/1.1/DTD/svg11.dtd">
<!-- Creator: CorelDRAW 2018 (64-Bit) -->
<svg xmlns="http://www.w3.org/2000/svg" xml:space="preserve" width="21px" height="22px" version="1.1" style="shape-rendering:geometricPrecision; text-rendering:geometricPrecision; image-rendering:optimizeQuality; fill-rule:evenodd; clip-rule:evenodd"
viewBox="0 0 0.498 0.521"
 xmlns:xlink="http://www.w3.org/1999/xlink">
 <defs>
  <style type="text/css">
   <![CDATA[
    .fil0 {fill:gray;fill-rule:nonzero}
   ]]>
  </style>
 </defs>
 <g id="Layer_x0020_1">
  <metadata id="CorelCorpID_0Corel-Layer"/>
  <path class="fil0" d="M0.13 0.235c0.007,0 0.012,0.005 0.012,0.012 0,0.006 -0.005,0.012 -0.012,0.012l-0.103 0c-0.007,0 -0.014,-0.004 -0.019,-0.008 -0.005,-0.005 -0.008,-0.012 -0.008,-0.02l0 -0.204c0,-0.007 0.003,-0.014 0.008,-0.019 0.005,-0.005 0.012,-0.008 0.019,-0.008l0.444 0c0.007,0 0.014,0.003 0.019,0.008 0.005,0.005 0.008,0.012 0.008,0.019l0 0.204c0,0.008 -0.003,0.015 -0.008,0.02 -0.005,0.004 -0.012,0.008 -0.019,0.008l-0.04 0 0 0.063c0,0.006 -0.005,0.012 -0.012,0.012 -0.003,0 -0.006,-0.002 -0.009,-0.004l-0.077 -0.071 -0.061 0c-0.006,0 -0.011,-0.006 -0.011,-0.012 0,-0.007 0.005,-0.012 0.011,-0.012l0.066 0c0.003,0 0.005,0.001 0.008,0.003l0.061 0.057 0 -0.048c0,-0.007 0.006,-0.012 0.012,-0.012l0.052 0c0.001,0 0.002,-0.001 0.002,-0.001 0.001,-0.001 0.002,-0.002 0.002,-0.003l0 -0.204c0,-0.001 -0.001,-0.002 -0.002,-0.002 0,-0.001 -0.001,-0.001 -0.002,-0.001l-0.444 0c-0.001,0 -0.002,0 -0.002,0.001 -0.001,0 -0.001,0.001 -0.001,0.002l0 0.204c0,0.001 0,0.002 0.001,0.003 0,0 0.001,0.001 0.002,0.001l0.103 0z"/>
  <path class="fil0" d="M0.09 0.116c-0.007,0 -0.012,-0.006 -0.012,-0.012 0,-0.007 0.005,-0.012 0.012,-0.012l0.318 0c0.007,0 0.012,0.005 0.012,0.012 0,0.006 -0.005,0.012 -0.012,0.012l-0.318 0z"/>
  <path class="fil0" d="M0.261 0.179c-0.007,0 -0.012,-0.005 -0.012,-0.012 0,-0.006 0.005,-0.012 0.012,-0.012l0.071 0c0.007,0 0.012,0.006 0.012,0.012 0,0.007 -0.005,0.012 -0.012,0.012l-0.071 0z"/>
  <path class="fil0" d="M0.09 0.179c-0.007,0 -0.012,-0.005 -0.012,-0.012 0,-0.006 0.005,-0.012 0.012,-0.012l0.04 0c0.007,0 0.012,0.006 0.012,0.012 0,0.007 -0.005,0.012 -0.012,0.012l-0.04 0z"/>
  <path class="fil0" d="M0.083 0.365c-0.006,0.003 -0.013,0 -0.015,-0.006 -0.003,-0.007 0,-0.013 0.006,-0.016 0.028,-0.011 0.047,-0.026 0.061,-0.043 0.016,-0.021 0.023,-0.044 0.024,-0.066 0.001,-0.005 0.001,-0.008 0.001,-0.012 0.002,-0.027 0.003,-0.049 0.031,-0.055 0.002,0 0.004,0 0.007,0 0.013,-0.001 0.023,0.006 0.03,0.016 0.006,0.008 0.009,0.019 0.011,0.028 0.001,0.005 0.002,0.011 0.002,0.015l0 0c0,0.002 0.001,0.012 0.002,0.025l0.004 0.051 0.062 -0.003c0.004,0 0.007,0.001 0.011,0.003 0.003,0.001 0.006,0.004 0.008,0.007l0 0.001c0.006,0.01 0.009,0.016 0.011,0.019 0.002,0.005 0.003,0.007 0.003,0.009 0,0.006 0,0.012 -0.002,0.018 -0.001,0.004 -0.002,0.008 -0.005,0.012l0.001 0.001c0,0.001 0.001,0.003 0.001,0.004 0.003,0.009 0.002,0.017 -0.002,0.025l0 0.001c-0.003,0.006 -0.007,0.011 -0.013,0.017 0.002,0.008 0.001,0.016 -0.002,0.024 -0.002,0.006 -0.006,0.011 -0.011,0.016l0.001 0.002c0,0.003 0,0.011 -0.001,0.018l-0.001 0.001c-0.001,0.005 -0.003,0.01 -0.006,0.015 -0.005,0.006 -0.013,0.01 -0.02,0.013 -0.009,0.003 -0.02,0.004 -0.026,0.004l-0.118 0c-0.007,0 -0.012,-0.005 -0.012,-0.012 0,-0.006 0.005,-0.011 0.012,-0.011l0.118 0c0.004,0 0.011,-0.001 0.018,-0.004 0.004,-0.001 0.007,-0.003 0.009,-0.005 0.001,-0.001 0.002,-0.003 0.002,-0.005l0 -0.001c0.001,-0.004 0.001,-0.009 0.001,-0.01l0 -0.002c-0.002,-0.004 -0.002,-0.008 0,-0.011 0.001,-0.003 0.003,-0.006 0.005,-0.008l0.001 -0.001c0.003,-0.002 0.005,-0.004 0.006,-0.007 0.001,-0.004 0.002,-0.007 0.001,-0.01l-0.001 -0.002c-0.001,-0.003 -0.001,-0.006 -0.001,-0.009l0 -0.001c0.001,-0.004 0.003,-0.007 0.006,-0.009 0.005,-0.005 0.009,-0.008 0.011,-0.012l0 -0.001c0.001,-0.003 0.001,-0.005 0.001,-0.008 -0.001,-0.002 -0.002,-0.003 -0.002,-0.005 -0.002,-0.003 -0.003,-0.006 -0.002,-0.009 0,-0.003 0.001,-0.007 0.003,-0.009 0.002,-0.002 0.003,-0.005 0.004,-0.007 0,-0.003 0.001,-0.006 0,-0.01 0,0 0,0.001 0,-0.001 -0.002,-0.003 -0.005,-0.008 -0.01,-0.017l-0.068 0.004c-0.003,0 -0.007,-0.001 -0.01,-0.003l-0.001 -0.001c-0.003,-0.003 -0.005,-0.006 -0.005,-0.011l0 0c-0.001,-0.011 -0.003,-0.037 -0.005,-0.059 -0.001,-0.012 -0.002,-0.022 -0.002,-0.025l0 0c0,-0.003 0,-0.007 -0.001,-0.011 -0.001,-0.007 -0.004,-0.014 -0.008,-0.019 -0.002,-0.004 -0.006,-0.007 -0.01,-0.007 0,0 -0.001,0.001 -0.002,0.001 -0.011,0.002 -0.011,0.015 -0.012,0.032l-0.001 0.013c-0.002,0.025 -0.01,0.054 -0.03,0.079 -0.015,0.02 -0.038,0.037 -0.07,0.05z"/>
  <path class="fil0" d="M0.02 0.319l0.045 0c0.005,0 0.01,0.002 0.014,0.005 0.004,0.004 0.006,0.009 0.006,0.015l0 0.162c0,0.006 -0.002,0.011 -0.006,0.014 -0.004,0.004 -0.009,0.006 -0.014,0.006l-0.045 0c-0.005,0 -0.01,-0.002 -0.014,-0.006 -0.004,-0.003 -0.006,-0.008 -0.006,-0.014l0 -0.162c0,-0.006 0.002,-0.011 0.006,-0.015l0.001 0c0.003,-0.004 0.008,-0.005 0.013,-0.005zm0.041 0.023l-0.037 0 0 0.155 0.037 0 0 -0.155z"/>
 </g>
</svg>
