<?xml version="1.0" encoding="UTF-8"?>
<!DOCTYPE svg PUBLIC "-//W3C//DTD SVG 1.1//EN" "http://www.w3.org/Graphics/SVG/1.1/DTD/svg11.dtd">
<!-- Creator: CorelDRAW 2018 (64-Bit) -->
<svg xmlns="http://www.w3.org/2000/svg" xml:space="preserve" width="21px" height="21px" version="1.1" style="shape-rendering:geometricPrecision; text-rendering:geometricPrecision; image-rendering:optimizeQuality; fill-rule:evenodd; clip-rule:evenodd"
viewBox="0 0 0.993 0.993"
 xmlns:xlink="http://www.w3.org/1999/xlink">
 <defs>
  <style type="text/css">
   <![CDATA[
    .fil0 {fill:gray;fill-rule:nonzero}
   ]]>
  </style>
 </defs>
 <g id="Layer_x0020_1">
  <metadata id="CorelCorpID_0Corel-Layer"/>
  <g id="_2080944896368">
   <path class="fil0" d="M0.473 0.66c0,-0.013 0.01,-0.023 0.023,-0.023 0.013,0 0.024,0.01 0.024,0.023l0 0.309c0,0.013 -0.011,0.024 -0.024,0.024 -0.013,0 -0.023,-0.011 -0.023,-0.024l0 -0.309z"/>
   <path class="fil0" d="M0.473 0.024c0,-0.013 0.01,-0.024 0.023,-0.024 0.013,0 0.024,0.011 0.024,0.024l0 0.308c0,0.013 -0.011,0.024 -0.024,0.024 -0.013,0 -0.023,-0.011 -0.023,-0.024l0 -0.308z"/>
   <path class="fil0" d="M0.66 0.52c-0.013,0 -0.023,-0.011 -0.023,-0.024 0,-0.013 0.01,-0.023 0.023,-0.023l0.309 0c0.013,0 0.024,0.01 0.024,0.023 0,0.013 -0.011,0.024 -0.024,0.024l-0.309 0z"/>
   <path class="fil0" d="M0.024 0.52c-0.013,0 -0.024,-0.011 -0.024,-0.024 0,-0.013 0.011,-0.023 0.024,-0.023l0.308 0c0.013,0 0.024,0.01 0.024,0.023 0,0.013 -0.011,0.024 -0.024,0.024l-0.308 0z"/>
   <path class="fil0" d="M0.198 0.649c0.01,0.009 0.01,0.024 0,0.033 -0.009,0.01 -0.024,0.01 -0.033,0l-0.152 -0.151c-0.009,-0.01 -0.013,-0.022 -0.013,-0.035 0,-0.013 0.005,-0.026 0.015,-0.036l0.15 -0.15c0.009,-0.009 0.024,-0.009 0.033,0 0.01,0.009 0.01,0.024 0,0.034l-0.15 0.15c0,0 -0.001,0.001 -0.001,0.002 0,0.001 0.001,0.002 0.001,0.003l0.15 0.15z"/>
   <path class="fil0" d="M0.31 0.828c-0.009,-0.01 -0.009,-0.025 0,-0.034 0.009,-0.009 0.024,-0.009 0.034,0l0.15 0.151c0.001,0 0.001,0 0.002,0 0.001,0 0.002,0 0.003,-0.001l0.15 -0.15c0.009,-0.009 0.024,-0.009 0.033,0 0.01,0.009 0.01,0.024 0,0.034l-0.15 0.15c-0.01,0.01 -0.023,0.015 -0.036,0.015 -0.012,0 -0.024,-0.005 -0.034,-0.014l-0.152 -0.151z"/>
   <path class="fil0" d="M0.682 0.165c0.01,0.009 0.01,0.024 0,0.033 -0.009,0.01 -0.024,0.01 -0.033,0l-0.151 -0.15c0,-0.001 -0.001,-0.001 -0.002,-0.001 -0.001,0 -0.002,0.001 -0.002,0.001l-0.15 0.15c-0.01,0.01 -0.025,0.01 -0.034,0 -0.009,-0.009 -0.009,-0.024 0,-0.033l0.15 -0.15c0.01,-0.01 0.023,-0.015 0.036,-0.015 0.013,0 0.025,0.004 0.035,0.013l0.151 0.152z"/>
   <path class="fil0" d="M0.794 0.344c-0.009,-0.01 -0.009,-0.025 0,-0.034 0.009,-0.009 0.024,-0.009 0.034,0l0.151 0.152c0.009,0.01 0.014,0.022 0.014,0.034 0,0.013 -0.005,0.026 -0.015,0.036l-0.15 0.15c-0.01,0.01 -0.025,0.01 -0.034,0 -0.009,-0.009 -0.009,-0.024 0,-0.033l0.15 -0.15c0.001,-0.001 0.001,-0.002 0.001,-0.003 0,-0.001 0,-0.001 0,-0.002l-0.151 -0.15z"/>
  </g>
 </g>
</svg>
