<?xml version="1.0" encoding="UTF-8"?>
<!DOCTYPE svg PUBLIC "-//W3C//DTD SVG 1.1//EN" "http://www.w3.org/Graphics/SVG/1.1/DTD/svg11.dtd">
<!-- Creator: CorelDRAW 2018 (64-Bit) -->
<svg xmlns="http://www.w3.org/2000/svg" xml:space="preserve" width="24px" height="24px" version="1.1" style="shape-rendering:geometricPrecision; text-rendering:geometricPrecision; image-rendering:optimizeQuality; fill-rule:evenodd; clip-rule:evenodd"
viewBox="0 0 0.991 0.991"
 xmlns:xlink="http://www.w3.org/1999/xlink">
 <defs>
  <style type="text/css">
   <![CDATA[
    .fil1 {fill:#00F4FF}
    .fil0 {fill:#052337}
    .fil3 {fill:#36587D}
    .fil2 {fill:white}
   ]]>
  </style>
 </defs>
 <g id="Layer_x0020_1">
  <metadata id="CorelCorpID_0Corel-Layer"/>
  <path class="fil0" d="M0.055 0l0.881 0c0.03,0 0.055,0.025 0.055,0.055l0 0.881c0,0.03 -0.025,0.055 -0.055,0.055l-0.881 0c-0.03,0 -0.055,-0.025 -0.055,-0.055l0 -0.881c0,-0.03 0.025,-0.055 0.055,-0.055z"/>
  <path class="fil1" d="M0.554 0.791l0.09 -0.052 0.071 -0.04 0.056 0.032 -0.272 0.157 0 -0.065 0.055 -0.032zm0.226 -0.134l0 0.004 -0.003 0.002 -0.216 -0.125 0 0.064 0.032 0.018 0 0 0.098 0.057 0.03 0.018 0.056 0.032 0.056 -0.032 0.003 -0.002 0 -0.004 0 -0.064 -0.161 -0.093 0 0 -0.055 -0.032 -0.056 0.032 0.216 0.125zm0.056 -0.353l0 0.314 -0.056 -0.033 0 -0.185 0 -0.064 0.056 -0.032zm-0.062 0.1l-0.22 0.126 0 0.254 -0.055 0.032 0 -0.318 0.275 -0.159 0 0.065z"/>
  <path class="fil2" d="M0.158 0.298l0.272 -0.157 0 0.064 -0.161 0.093 -0.055 0.032 -0.056 -0.032zm0.118 0.004l0.219 0.126 0.22 -0.126 0.056 0.032 -0.276 0.159 -0.275 -0.159 0.056 -0.032zm0.216 -0.133l0.003 -0.002 0.004 0.002 0 0.25 0.055 -0.032 0 -0.037 0 0 0 -0.114 0 -0.035 0 -0.064 -0.055 -0.032 -0.004 -0.002 -0.003 0.002 -0.055 0.032 0 0.186 0 0 0 0.064 0.055 0.032 0 -0.25zm0.229 0.129l-0.09 -0.052 -0.07 -0.041 0 -0.064 0.272 0.157 -0.056 0.032 -0.056 -0.032z"/>
  <path class="fil3" d="M0.211 0.4l0 0.104 0 0.081 -0.056 0.033 0 -0.314 0.056 0.032 0 0.064zm0.003 0.263l-0.003 -0.002 0 -0.004 0.216 -0.125 -0.056 -0.032 -0.032 0.018 0 0 -0.098 0.057 -0.03 0.018 -0.056 0.032 0 0.064 0 0.004 0.003 0.002 0.056 0.032 0.161 -0.093 0 0 0.055 -0.032 0 -0.064 -0.216 0.125zm0.278 0.225l-0.272 -0.157 0.056 -0.032 0.161 0.092 0.055 0.032 0 0.065zm-0.055 -0.104l0 -0.254 -0.22 -0.126 0 -0.065 0.275 0.159 0 0.318 -0.055 -0.032z"/>
 </g>
</svg>
