<?xml version="1.0" encoding="UTF-8"?>
<!DOCTYPE svg PUBLIC "-//W3C//DTD SVG 1.1//EN" "http://www.w3.org/Graphics/SVG/1.1/DTD/svg11.dtd">
<!-- Creator: CorelDRAW 2018 (64-Bit) -->
<svg xmlns="http://www.w3.org/2000/svg" xml:space="preserve" width="41px" height="41px" version="1.1" style="shape-rendering:geometricPrecision; text-rendering:geometricPrecision; image-rendering:optimizeQuality; fill-rule:evenodd; clip-rule:evenodd"
viewBox="0 0 1.546 1.546"
 xmlns:xlink="http://www.w3.org/1999/xlink">
 <defs>
  <style type="text/css">
   <![CDATA[
    .fil0 {fill:#00F4FF}
    .fil3 {fill:#264361}
    .fil2 {fill:white}
    .fil1 {fill:gray;fill-rule:nonzero}
   ]]>
  </style>
 </defs>
 <g id="Layer_x0020_1">
  <metadata id="CorelCorpID_0Corel-Layer"/>
  <g id="_2677512397888">
   <path class="fil0" d="M0.157 1.209c0.137,0.193 0.362,0.318 0.616,0.318 0.254,0 0.479,-0.125 0.616,-0.318 -0.059,-0.068 -0.089,-0.084 -0.141,-0.092 -0.079,0.072 -0.193,0.125 -0.321,0.149 -0.008,0.048 0.008,0.094 0.069,0.14 -0.051,-0.004 -0.165,-0.02 -0.195,-0.126 -0.009,0.001 -0.021,0.001 -0.028,0.001 -0.193,0 -0.365,-0.064 -0.475,-0.163 -0.051,0.008 -0.082,0.023 -0.141,0.091z"/>
   <path class="fil1" d="M0.182 1.21c0.066,0.09 0.153,0.165 0.254,0.217 0.101,0.052 0.215,0.082 0.337,0.082 0.122,0 0.237,-0.03 0.338,-0.082 0.1,-0.052 0.187,-0.127 0.254,-0.217 -0.023,-0.026 -0.042,-0.043 -0.059,-0.054 -0.017,-0.01 -0.033,-0.015 -0.052,-0.019 -0.04,0.035 -0.087,0.065 -0.141,0.09 -0.051,0.024 -0.109,0.042 -0.169,0.055 -0.001,0.016 0.001,0.032 0.008,0.047 0.01,0.02 0.027,0.041 0.055,0.062l-0.013 0.034c-0.026,-0.002 -0.07,-0.008 -0.111,-0.027 -0.04,-0.018 -0.077,-0.048 -0.096,-0.099l-0.014 0c-0.097,0.001 -0.188,-0.015 -0.27,-0.043 -0.082,-0.028 -0.154,-0.069 -0.211,-0.118 -0.019,0.003 -0.035,0.009 -0.051,0.019 -0.018,0.011 -0.036,0.027 -0.059,0.053zm0.237 0.25c-0.111,-0.057 -0.206,-0.139 -0.277,-0.24l-0.008 -0.012 0.009 -0.011c0.031,-0.036 0.055,-0.058 0.078,-0.072 0.024,-0.015 0.046,-0.022 0.074,-0.026l0.009 -0.001 0.006 0.006c0.055,0.049 0.125,0.089 0.205,0.116 0.078,0.027 0.165,0.042 0.258,0.042 0.014,0 0.028,0 0.042,-0.001l0.004 0.014c0.013,0.047 0.045,0.074 0.079,0.089 0.014,0.006 0.028,0.011 0.041,0.014 -0.009,-0.011 -0.016,-0.022 -0.021,-0.033 -0.012,-0.027 -0.014,-0.055 -0.01,-0.082l0.003 -0.013 0.013 -0.002c0.062,-0.012 0.121,-0.031 0.174,-0.055 0.053,-0.025 0.099,-0.055 0.138,-0.09l0.006 -0.006 0.009 0.002c0.028,0.004 0.051,0.01 0.075,0.026 0.023,0.014 0.046,0.036 0.077,0.071l0.01 0.012 -0.009 0.012c-0.071,0.1 -0.166,0.183 -0.276,0.24 -0.106,0.055 -0.227,0.086 -0.355,0.086 -0.128,0 -0.248,-0.031 -0.354,-0.086z"/>
   <path class="fil2" d="M0.52 0.514l0 0.117 0 0.022c0,0.091 0.098,0.215 0.253,0.26 0.048,-0.014 0.091,-0.035 0.127,-0.061 0.079,-0.057 0.126,-0.136 0.126,-0.199l0 -0.022 0 -0.117 0 -0.029c-0.04,-0.038 -0.077,-0.036 -0.1,-0.181 -0.124,0.132 -0.309,0.136 -0.406,0.181l0 0.029z"/>
   <path class="fil1" d="M0.539 0.514l0 0.139c0,0.043 0.025,0.096 0.07,0.142 0.041,0.042 0.097,0.078 0.164,0.099 0.02,-0.007 0.04,-0.014 0.058,-0.023 0.021,-0.01 0.04,-0.022 0.058,-0.034 0.037,-0.027 0.066,-0.058 0.087,-0.091 0.02,-0.032 0.031,-0.065 0.031,-0.093l0 -0.16c-0.005,-0.004 -0.01,-0.008 -0.015,-0.012 -0.031,-0.023 -0.059,-0.044 -0.079,-0.139 -0.085,0.076 -0.191,0.104 -0.279,0.127 -0.036,0.009 -0.068,0.018 -0.095,0.028l0 0.017zm-0.038 0.117l0 -0.146c0.001,-0.007 0.005,-0.014 0.012,-0.017 0.031,-0.015 0.069,-0.025 0.112,-0.036 0.092,-0.024 0.205,-0.053 0.287,-0.141 0.003,-0.002 0.006,-0.005 0.011,-0.005 0.01,-0.002 0.019,0.005 0.021,0.015 0.018,0.11 0.043,0.129 0.071,0.151 0.007,0.005 0.015,0.011 0.023,0.018 0.004,0.004 0.007,0.009 0.007,0.015l0 0.168c0,0.036 -0.013,0.075 -0.038,0.114 -0.022,0.036 -0.055,0.071 -0.097,0.1 -0.019,0.014 -0.04,0.027 -0.063,0.038 -0.021,0.01 -0.044,0.019 -0.068,0.026 -0.004,0.001 -0.007,0.001 -0.011,0 -0.077,-0.022 -0.14,-0.063 -0.186,-0.11 -0.051,-0.053 -0.081,-0.115 -0.081,-0.168l0 -0.022z"/>
   <path class="fil2" d="M0.603 1.038c-0.051,0.041 -0.132,0.059 -0.213,0.069 -0.039,0.005 -0.068,0.007 -0.092,0.011 0.11,0.099 0.282,0.163 0.475,0.163 0.007,0 0.019,0 0.028,-0.001 -0.006,-0.019 -0.008,-0.041 -0.007,-0.067 0.006,-0.143 0.076,-0.136 0.099,-0.249 0.006,-0.028 0.008,-0.064 0.007,-0.112 -0.036,0.026 -0.079,0.047 -0.127,0.061 -0.05,-0.014 -0.094,-0.037 -0.13,-0.064 0.03,0.091 0.009,0.15 -0.04,0.189zm0.383 0.107c-0.029,0.042 -0.052,0.082 -0.059,0.121 0.128,-0.024 0.242,-0.077 0.321,-0.149 -0.024,-0.003 -0.053,-0.005 -0.092,-0.01 -0.044,-0.006 -0.091,-0.013 -0.13,-0.025 -0.013,0.022 -0.027,0.043 -0.04,0.063z"/>
   <path class="fil1" d="M0.615 1.053c-0.028,0.022 -0.063,0.038 -0.102,0.049 -0.038,0.012 -0.08,0.019 -0.121,0.024l-0.001 0c-0.019,0.002 -0.034,0.004 -0.047,0.005 0.049,0.037 0.107,0.067 0.171,0.089 0.078,0.027 0.165,0.042 0.258,0.042l0.005 0c-0.001,-0.004 -0.002,-0.008 -0.002,-0.012 -0.001,-0.012 -0.002,-0.024 -0.001,-0.038 0.004,-0.086 0.029,-0.122 0.055,-0.157 0.017,-0.025 0.035,-0.049 0.044,-0.094 0.003,-0.014 0.005,-0.029 0.006,-0.047 0.001,-0.008 0.001,-0.018 0.001,-0.028 -0.011,0.007 -0.022,0.013 -0.034,0.019 -0.021,0.01 -0.044,0.019 -0.069,0.026 -0.003,0.001 -0.007,0.001 -0.01,0 -0.026,-0.007 -0.05,-0.017 -0.072,-0.027 -0.008,-0.004 -0.016,-0.009 -0.023,-0.013 0.004,0.029 0.003,0.054 -0.002,0.077 -0.009,0.035 -0.029,0.063 -0.056,0.085zm-0.113 0.013c0.035,-0.01 0.066,-0.024 0.089,-0.043 0.022,-0.017 0.037,-0.038 0.043,-0.064 0.007,-0.028 0.005,-0.062 -0.009,-0.104 -0.002,-0.006 -0.001,-0.012 0.003,-0.017 0.006,-0.009 0.018,-0.01 0.026,-0.004 0.018,0.013 0.037,0.025 0.059,0.036 0.019,0.009 0.039,0.017 0.06,0.024 0.02,-0.007 0.04,-0.014 0.058,-0.023 0.021,-0.01 0.04,-0.022 0.057,-0.034 0.003,-0.002 0.007,-0.004 0.011,-0.004 0.01,0 0.019,0.008 0.019,0.018 0.001,0.025 0.001,0.047 0,0.066 -0.001,0.019 -0.004,0.036 -0.007,0.051 -0.011,0.053 -0.031,0.081 -0.051,0.108 -0.022,0.032 -0.044,0.062 -0.047,0.138 -0.001,0.011 -0.001,0.022 0,0.032 0.002,0.011 0.003,0.02 0.006,0.029 0,0.002 0.001,0.003 0.001,0.005 0,0.011 -0.009,0.019 -0.019,0.019 -0.009,0 -0.019,0 -0.028,0.001 -0.097,0 -0.188,-0.016 -0.27,-0.044 -0.085,-0.029 -0.159,-0.072 -0.217,-0.124 -0.004,-0.003 -0.006,-0.007 -0.007,-0.011 -0.001,-0.011 0.006,-0.02 0.016,-0.022 0.013,-0.002 0.028,-0.003 0.045,-0.005 0.014,-0.002 0.03,-0.003 0.046,-0.005l0.002 0c0.039,-0.005 0.079,-0.012 0.114,-0.023zm0.499 0.089c-0.014,0.021 -0.026,0.041 -0.036,0.06 -0.005,0.009 -0.008,0.018 -0.012,0.026 0.052,-0.011 0.1,-0.028 0.145,-0.048 0.038,-0.018 0.073,-0.039 0.104,-0.062 -0.015,-0.002 -0.032,-0.003 -0.048,-0.006 -0.022,-0.002 -0.045,-0.006 -0.068,-0.01 -0.018,-0.003 -0.035,-0.007 -0.051,-0.011l-0.013 0.019c-0.007,0.011 -0.014,0.022 -0.021,0.032zm-0.07 0.043c0.011,-0.021 0.024,-0.042 0.039,-0.064 0.007,-0.01 0.014,-0.02 0.021,-0.031 0.006,-0.009 0.012,-0.02 0.019,-0.031 0.004,-0.007 0.013,-0.011 0.021,-0.008 0.019,0.006 0.04,0.01 0.062,0.014 0.021,0.004 0.043,0.007 0.065,0.01 0.02,0.003 0.035,0.004 0.048,0.005 0.017,0.002 0.032,0.004 0.045,0.006 0.004,0 0.008,0.002 0.011,0.006 0.007,0.007 0.007,0.019 -0.001,0.026 -0.041,0.037 -0.091,0.07 -0.148,0.096 -0.055,0.025 -0.116,0.045 -0.181,0.057 -0.003,0.001 -0.006,0.001 -0.008,0.001 -0.01,-0.002 -0.017,-0.012 -0.016,-0.022 0.004,-0.021 0.012,-0.043 0.023,-0.065z"/>
   <path class="fil2" d="M1.026 0.514l0 0.117c0.032,0 0.057,-0.026 0.057,-0.058 0,-0.033 -0.025,-0.059 -0.057,-0.059z"/>
   <path class="fil1" d="M1.045 0.538l0 0.069c0.003,-0.001 0.006,-0.003 0.008,-0.006 0.007,-0.007 0.011,-0.017 0.011,-0.028 0,-0.011 -0.004,-0.021 -0.011,-0.029 -0.002,-0.002 -0.005,-0.004 -0.008,-0.006zm-0.038 0.093l0 -0.117c0,-0.01 0.009,-0.019 0.019,-0.019 0.021,0 0.04,0.009 0.054,0.023l0 0c0.014,0.014 0.022,0.034 0.022,0.055 0,0.021 -0.008,0.04 -0.022,0.054 -0.014,0.014 -0.033,0.023 -0.054,0.023 -0.01,0 -0.019,-0.008 -0.019,-0.019z"/>
   <path class="fil2" d="M0.463 0.573c0,0.032 0.026,0.058 0.057,0.058l0 -0.117c-0.031,0 -0.057,0.026 -0.057,0.059z"/>
   <path class="fil1" d="M0.482 0.573c0,0.011 0.004,0.021 0.011,0.028 0.003,0.003 0.005,0.005 0.008,0.006l0 -0.069c-0.003,0.002 -0.005,0.004 -0.008,0.006 -0.007,0.008 -0.011,0.018 -0.011,0.029zm-0.016 0.054c-0.013,-0.014 -0.022,-0.033 -0.022,-0.054 0,-0.021 0.009,-0.041 0.022,-0.055 0.014,-0.014 0.033,-0.023 0.054,-0.023 0.011,0 0.019,0.009 0.019,0.019l0 0.117c0,0.011 -0.008,0.019 -0.019,0.019 -0.021,0 -0.04,-0.009 -0.054,-0.023z"/>
   <path class="fil3" d="M0.9 0.852c0,0.006 0,0.013 0,0.02 0.001,0.038 -0.002,0.068 -0.007,0.092 0,0 0,0 0,0 -0.023,0.113 -0.093,0.106 -0.099,0.249 -0.001,0.026 0.001,0.048 0.007,0.067 0.03,0.106 0.144,0.122 0.195,0.126 -0.061,-0.046 -0.077,-0.092 -0.069,-0.14 0.014,-0.074 0.066,-0.123 0.099,-0.184 0.08,-0.133 0.149,-0.303 0.148,-0.48 -0.003,-0.302 -0.179,-0.453 -0.393,-0.461 -0.214,-0.009 -0.366,0.236 -0.362,0.437 0.005,0.2 0.097,0.356 0.184,0.46 0.049,-0.039 0.07,-0.098 0.04,-0.189 -0.078,-0.057 -0.123,-0.134 -0.123,-0.196l0 -0.022c-0.031,0 -0.057,-0.026 -0.057,-0.058 0,-0.033 0.026,-0.059 0.057,-0.059l0 -0.029c0.097,-0.045 0.282,-0.049 0.406,-0.181 0.023,0.145 0.06,0.143 0.1,0.181l0 0.029c0.032,0 0.057,0.026 0.057,0.059 0,0.032 -0.025,0.058 -0.057,0.058l0 0.022c0,0.063 -0.046,0.141 -0.126,0.199z"/>
   <path class="fil1" d="M0.919 0.861l0 0.011c0,0.02 -0.001,0.037 -0.002,0.053 -0.001,0.015 -0.003,0.03 -0.006,0.043l0 0c-0.011,0.053 -0.031,0.081 -0.051,0.108 -0.022,0.032 -0.044,0.062 -0.047,0.138 -0.001,0.011 -0.001,0.022 0,0.032 0.002,0.011 0.003,0.02 0.006,0.029 0.013,0.047 0.045,0.074 0.079,0.089 0.014,0.006 0.028,0.011 0.041,0.014 -0.009,-0.011 -0.016,-0.022 -0.021,-0.033 -0.012,-0.027 -0.014,-0.055 -0.01,-0.082l0.001 -0.002c0.01,-0.052 0.037,-0.092 0.064,-0.131 0.013,-0.019 0.026,-0.037 0.036,-0.057l0.001 -0.002c0.043,-0.071 0.082,-0.152 0.109,-0.24 0.023,-0.073 0.036,-0.15 0.036,-0.229 -0.001,-0.138 -0.04,-0.244 -0.102,-0.317 -0.068,-0.08 -0.165,-0.121 -0.273,-0.125 -0.005,-0.001 -0.011,-0.001 -0.016,-0.001 -0.092,0.002 -0.171,0.055 -0.228,0.129 -0.059,0.076 -0.094,0.174 -0.098,0.265 0,0.009 0,0.017 0,0.024 0.002,0.086 0.021,0.164 0.048,0.232 0.032,0.08 0.075,0.148 0.119,0.202 0.014,-0.015 0.024,-0.032 0.029,-0.052 0.007,-0.027 0.005,-0.059 -0.007,-0.099 -0.038,-0.028 -0.068,-0.062 -0.089,-0.095 -0.024,-0.038 -0.037,-0.077 -0.037,-0.112l0 -0.005c-0.013,-0.004 -0.025,-0.011 -0.035,-0.021 -0.013,-0.014 -0.022,-0.033 -0.022,-0.054 0,-0.021 0.009,-0.041 0.022,-0.055l0 0c0.01,-0.01 0.022,-0.017 0.035,-0.02l0 -0.013c0,-0.008 0.006,-0.015 0.013,-0.018 0.031,-0.014 0.069,-0.024 0.111,-0.035 0.092,-0.024 0.205,-0.053 0.287,-0.141 0.007,-0.007 0.019,-0.007 0.026,0 0.004,0.003 0.006,0.007 0.006,0.011 0.018,0.109 0.043,0.128 0.071,0.15 0.008,0.006 0.016,0.012 0.024,0.019 0.004,0.004 0.006,0.009 0.006,0.014l0 0.013c0.013,0.003 0.025,0.01 0.035,0.02 0.014,0.014 0.022,0.034 0.022,0.055 0,0.021 -0.008,0.04 -0.022,0.054 -0.01,0.01 -0.022,0.017 -0.035,0.021l0 0.005c0,0.035 -0.013,0.075 -0.037,0.113 -0.022,0.034 -0.052,0.067 -0.089,0.095zm-0.038 0.001l0 -0.01c0,-0.006 0.003,-0.012 0.008,-0.016 0.037,-0.026 0.066,-0.058 0.087,-0.09 0.02,-0.032 0.031,-0.065 0.031,-0.093l0 -0.022c0,-0.01 0.009,-0.019 0.019,-0.019 0.011,0 0.02,-0.004 0.027,-0.011 0.007,-0.007 0.011,-0.017 0.011,-0.028 0,-0.011 -0.004,-0.021 -0.011,-0.029 -0.007,-0.007 -0.016,-0.011 -0.027,-0.011 -0.01,0 -0.019,-0.008 -0.019,-0.019l0 -0.021c-0.005,-0.004 -0.01,-0.008 -0.015,-0.012 -0.031,-0.023 -0.059,-0.044 -0.079,-0.139 -0.085,0.076 -0.191,0.104 -0.279,0.127 -0.036,0.009 -0.068,0.018 -0.095,0.028l0 0.017c0,0.011 -0.008,0.019 -0.019,0.019 -0.01,0 -0.02,0.004 -0.027,0.011 -0.007,0.008 -0.011,0.018 -0.011,0.029 0,0.011 0.004,0.021 0.011,0.028 0.007,0.007 0.017,0.011 0.027,0.011 0.011,0 0.019,0.009 0.019,0.019l0 0.022c0,0.028 0.011,0.06 0.031,0.092 0.019,0.031 0.048,0.062 0.084,0.089 0.003,0.002 0.005,0.005 0.006,0.009 0.017,0.049 0.019,0.09 0.011,0.125 -0.009,0.035 -0.029,0.063 -0.056,0.085 -0.008,0.006 -0.02,0.005 -0.026,-0.003 -0.05,-0.059 -0.102,-0.135 -0.138,-0.227 -0.029,-0.072 -0.048,-0.154 -0.051,-0.245 0,-0.009 0,-0.017 0.001,-0.026 0.004,-0.099 0.042,-0.205 0.105,-0.286 0.064,-0.083 0.153,-0.142 0.257,-0.144 0.007,0 0.013,0 0.019,0 0.117,0.005 0.224,0.051 0.3,0.139 0.067,0.08 0.109,0.193 0.11,0.341 0.001,0.083 -0.013,0.164 -0.037,0.24 -0.028,0.091 -0.068,0.175 -0.112,0.249 -0.012,0.021 -0.025,0.041 -0.039,0.06 -0.025,0.036 -0.05,0.073 -0.058,0.117l0 0.001c-0.004,0.021 -0.002,0.041 0.006,0.06 0.01,0.02 0.027,0.041 0.055,0.062 0.005,0.003 0.008,0.009 0.007,0.016 0,0.01 -0.009,0.018 -0.02,0.018 -0.026,-0.002 -0.07,-0.008 -0.111,-0.027 -0.043,-0.019 -0.084,-0.053 -0.1,-0.113 -0.003,-0.01 -0.006,-0.022 -0.007,-0.035 -0.001,-0.012 -0.002,-0.024 -0.001,-0.038 0.004,-0.086 0.029,-0.122 0.055,-0.157 0.017,-0.025 0.035,-0.049 0.044,-0.094l0 -0.001c0.003,-0.011 0.004,-0.023 0.006,-0.038 0.001,-0.015 0.001,-0.032 0.001,-0.05l0 -0.01z"/>
   <path class="fil1" d="M0.773 0c0.214,0 0.407,0.087 0.547,0.226 0.14,0.14 0.226,0.334 0.226,0.547 0,0.214 -0.086,0.407 -0.226,0.547 -0.14,0.14 -0.333,0.226 -0.547,0.226 -0.213,0 -0.407,-0.086 -0.547,-0.226 -0.139,-0.14 -0.226,-0.333 -0.226,-0.547 0,-0.213 0.087,-0.407 0.226,-0.547 0.14,-0.139 0.334,-0.226 0.547,-0.226zm0.52 0.253c-0.133,-0.133 -0.317,-0.215 -0.52,-0.215 -0.203,0 -0.387,0.082 -0.52,0.215 -0.133,0.133 -0.215,0.317 -0.215,0.52 0,0.203 0.082,0.387 0.215,0.52 0.133,0.133 0.317,0.216 0.52,0.216 0.203,0 0.387,-0.083 0.52,-0.216 0.133,-0.133 0.216,-0.317 0.216,-0.52 0,-0.203 -0.083,-0.387 -0.216,-0.52z"/>
  </g>
 </g>
</svg>
