<?xml version="1.0" encoding="UTF-8"?>
<!DOCTYPE svg PUBLIC "-//W3C//DTD SVG 1.1//EN" "http://www.w3.org/Graphics/SVG/1.1/DTD/svg11.dtd">
<!-- Creator: CorelDRAW 2018 (64-Bit) -->
<svg xmlns="http://www.w3.org/2000/svg" xml:space="preserve" width="41px" height="41px" version="1.1" style="shape-rendering:geometricPrecision; text-rendering:geometricPrecision; image-rendering:optimizeQuality; fill-rule:evenodd; clip-rule:evenodd"
viewBox="0 0 1.753 1.753"
 xmlns:xlink="http://www.w3.org/1999/xlink">
 <defs>
  <style type="text/css">
   <![CDATA[
    .fil2 {fill:gray}
    .fil0 {fill:white}
    .fil1 {fill:gray;fill-rule:nonzero}
   ]]>
  </style>
 </defs>
 <g id="Layer_x0020_1">
  <metadata id="CorelCorpID_0Corel-Layer"/>
  <g id="_2677513649072">
   <path class="fil0" d="M0.877 1.224l0.175 -0.097c-0.013,-0.037 -0.013,-0.083 0.007,-0.142 -0.051,0.053 -0.114,0.09 -0.182,0.09 -0.069,0 -0.132,-0.037 -0.183,-0.09 0.02,0.059 0.02,0.105 0.007,0.142l0.176 0.097z"/>
   <path class="fil1" d="M0.877 1.2l0.15 -0.083c-0.004,-0.017 -0.006,-0.034 -0.005,-0.053 0,-0.007 0,-0.013 0.001,-0.019 -0.014,0.01 -0.028,0.019 -0.044,0.026 -0.032,0.016 -0.066,0.025 -0.102,0.026l-0.001 0c-0.036,-0.001 -0.07,-0.01 -0.103,-0.026 -0.015,-0.008 -0.029,-0.017 -0.044,-0.027 0.001,0.007 0.002,0.013 0.002,0.019 0.001,0.02 -0.001,0.037 -0.005,0.054l0.151 0.083zm0.185 -0.054l-0.185 0.102 -0.202 -0.111 0.006 -0.017c0.005,-0.016 0.008,-0.034 0.007,-0.055 0,-0.022 -0.005,-0.046 -0.015,-0.073l0.036 -0.022c0.025,0.026 0.053,0.048 0.083,0.063 0.027,0.013 0.055,0.021 0.085,0.021 0.029,0 0.057,-0.008 0.084,-0.021 0.029,-0.015 0.057,-0.037 0.083,-0.062l0.035 0.021c-0.009,0.028 -0.014,0.052 -0.015,0.073 -0.001,0.021 0.002,0.039 0.008,0.055l0.006 0.017 -0.016 0.009z"/>
   <path class="fil1" d="M1.556 1.36c-0.053,-0.052 -0.087,-0.056 -0.159,-0.063 -0.017,-0.002 -0.036,-0.004 -0.055,-0.006 -0.048,-0.006 -0.097,-0.014 -0.142,-0.027 -0.039,-0.012 -0.074,-0.027 -0.103,-0.047l-0.15 0.148c-0.008,0.008 -0.022,0.008 -0.03,-0.001 -0.002,-0.001 -0.003,-0.004 -0.004,-0.006l-0.036 -0.081 -0.037 0.081c-0.004,0.011 -0.017,0.016 -0.028,0.011 -0.003,-0.001 -0.005,-0.003 -0.007,-0.005l-0.149 -0.147c-0.029,0.02 -0.064,0.035 -0.103,0.047 -0.045,0.013 -0.094,0.021 -0.143,0.027 -0.018,0.002 -0.038,0.004 -0.055,0.006 -0.072,0.007 -0.105,0.011 -0.158,0.063 0.075,0.105 0.175,0.193 0.29,0.254 0.116,0.061 0.249,0.096 0.389,0.096 0.141,0 0.274,-0.035 0.39,-0.096 0.115,-0.061 0.214,-0.149 0.29,-0.254zm-0.154 -0.105c0.088,0.009 0.125,0.013 0.196,0.087 0.008,0.007 0.009,0.018 0.003,0.027 -0.08,0.118 -0.189,0.215 -0.315,0.282 -0.123,0.065 -0.262,0.102 -0.41,0.102 -0.147,0 -0.287,-0.037 -0.409,-0.102 -0.127,-0.067 -0.235,-0.164 -0.315,-0.282 -0.006,-0.008 -0.005,-0.019 0.002,-0.026 0.071,-0.075 0.109,-0.079 0.197,-0.088 0.015,-0.002 0.032,-0.004 0.054,-0.006 0.047,-0.006 0.094,-0.014 0.136,-0.026 0.04,-0.012 0.076,-0.028 0.102,-0.05 0.009,-0.008 0.021,-0.008 0.029,0l0.142 0.14 0.043 -0.098c0.002,-0.004 0.006,-0.008 0.011,-0.011 0.011,-0.004 0.023,0.001 0.028,0.011l0.043 0.098 0.141 -0.139c0.008,-0.008 0.021,-0.009 0.029,-0.002 0.026,0.023 0.062,0.039 0.103,0.051 0.042,0.012 0.089,0.02 0.136,0.026 0.022,0.002 0.039,0.004 0.054,0.006z"/>
   <path class="fil0" d="M1.085 0.955c0.043,-0.053 0.078,-0.116 0.078,-0.175l0 -0.024 0 -0.133 0 -0.03c0.001,-0.028 -0.002,-0.085 -0.005,-0.106 -0.01,-0.064 -0.167,-0.119 -0.281,-0.135 -0.115,-0.016 -0.18,-0.019 -0.233,0.047 -0.029,0.036 -0.053,0.12 -0.054,0.191l0 0.033 0 0.133 0 0.024c0,0.059 0.035,0.122 0.078,0.175 0.008,0.01 0.017,0.02 0.026,0.03 0.051,0.053 0.114,0.09 0.183,0.09 0.068,0 0.131,-0.037 0.182,-0.09 0.009,-0.009 0.018,-0.019 0.026,-0.03z"/>
   <path class="fil1" d="M1.069 0.942c0.022,-0.027 0.041,-0.057 0.055,-0.088 0.011,-0.025 0.018,-0.05 0.018,-0.074 0,-0.056 -0.006,-0.136 0,-0.188 0,-0.013 0,-0.033 -0.001,-0.052 -0.001,-0.02 -0.003,-0.04 -0.004,-0.05 -0.003,-0.02 -0.033,-0.042 -0.073,-0.062 -0.055,-0.026 -0.129,-0.046 -0.19,-0.055 -0.056,-0.007 -0.099,-0.012 -0.134,-0.007 -0.031,0.005 -0.057,0.018 -0.08,0.047 -0.012,0.015 -0.024,0.043 -0.033,0.075 -0.009,0.032 -0.015,0.069 -0.016,0.102 0,0.063 0,0.127 0,0.19 0,0.024 0.007,0.049 0.018,0.074 0.014,0.031 0.033,0.061 0.055,0.088 0.004,0.004 0.008,0.009 0.012,0.014 0.005,0.005 0.009,0.01 0.013,0.014 0.025,0.026 0.053,0.048 0.083,0.063 0.027,0.013 0.055,0.021 0.085,0.021 0.029,0 0.057,-0.008 0.084,-0.021 0.029,-0.015 0.057,-0.037 0.082,-0.062 0.004,-0.005 0.009,-0.009 0.013,-0.014 0.005,-0.006 0.009,-0.011 0.013,-0.015zm0.094 -0.07c-0.015,0.034 -0.037,0.067 -0.061,0.097 -0.005,0.005 -0.009,0.011 -0.014,0.016 -0.004,0.005 -0.009,0.01 -0.014,0.015 -0.028,0.029 -0.06,0.054 -0.095,0.071 -0.032,0.016 -0.066,0.025 -0.102,0.026l-0.001 0c-0.036,-0.001 -0.07,-0.01 -0.103,-0.026 -0.034,-0.017 -0.066,-0.042 -0.095,-0.071 -0.005,-0.006 -0.009,-0.011 -0.014,-0.016 -0.004,-0.004 -0.008,-0.01 -0.013,-0.015 -0.024,-0.03 -0.046,-0.063 -0.061,-0.097 -0.013,-0.031 -0.021,-0.062 -0.021,-0.092 0,-0.03 -0.004,-0.178 0,-0.19 0,-0.038 0.007,-0.078 0.017,-0.114 0.01,-0.037 0.025,-0.07 0.041,-0.09 0.03,-0.038 0.064,-0.056 0.107,-0.062 0.04,-0.006 0.087,-0.001 0.146,0.007 0.064,0.009 0.143,0.031 0.202,0.059 0.053,0.025 0.092,0.057 0.097,0.094 0.002,0.011 0.003,0.032 0.004,0.054 0.001,0.02 0.002,0.04 0.001,0.055l0 0.187c0,0.03 -0.008,0.061 -0.021,0.092z"/>
   <path class="fil0" d="M1.228 0.689c0,-0.036 -0.029,-0.066 -0.065,-0.066l0 0.133c0.036,0 0.065,-0.03 0.065,-0.067z"/>
   <path class="fil1" d="M1.207 0.689c0,-0.012 -0.005,-0.024 -0.013,-0.032 -0.003,-0.002 -0.006,-0.005 -0.01,-0.007l0 0.079c0.004,-0.002 0.007,-0.005 0.01,-0.007 0.008,-0.009 0.013,-0.02 0.013,-0.033zm0.017 -0.061c0.016,0.015 0.025,0.037 0.025,0.061 0,0.025 -0.009,0.046 -0.025,0.062 -0.015,0.016 -0.037,0.026 -0.061,0.026l-0.021 0 0 -0.175 0.021 0c0.024,0 0.046,0.01 0.061,0.026z"/>
   <path class="fil0" d="M0.59 0.756l0 -0.133c-0.036,0 -0.065,0.03 -0.065,0.066 0,0.037 0.029,0.067 0.065,0.067z"/>
   <path class="fil1" d="M0.569 0.729l0 -0.079c-0.004,0.002 -0.007,0.005 -0.01,0.007 -0.008,0.009 -0.013,0.02 -0.013,0.032 0,0.013 0.005,0.024 0.013,0.033 0.003,0.002 0.006,0.005 0.01,0.007zm0.042 -0.106l0 0.154 -0.021 0c-0.024,0 -0.045,-0.01 -0.061,-0.026 -0.016,-0.016 -0.025,-0.037 -0.025,-0.062 0,-0.024 0.009,-0.045 0.025,-0.061 0.016,-0.016 0.037,-0.026 0.061,-0.026l0.021 0 0 0.021z"/>
   <path class="fil1" d="M1.189 0.386c-0.017,-0.058 -0.063,-0.104 -0.121,-0.138 -0.069,-0.04 -0.155,-0.062 -0.23,-0.063l-0.013 0.001c-0.047,0 -0.101,0.009 -0.142,0.035 -0.039,0.024 -0.068,0.067 -0.068,0.137l0 0.019 -0.011 0.007c-0.055,0.031 -0.047,0.098 -0.032,0.159 0.003,-0.023 0.008,-0.045 0.014,-0.067 0.01,-0.037 0.025,-0.07 0.041,-0.09 0.03,-0.038 0.064,-0.056 0.107,-0.062 0.04,-0.006 0.087,-0.001 0.146,0.007 0.064,0.009 0.143,0.031 0.202,0.059 0.053,0.025 0.092,0.057 0.097,0.094 0.002,0.011 0.003,0.032 0.004,0.054l0.001 0.002c0.002,-0.014 0.004,-0.029 0.006,-0.044 0.006,-0.042 0.007,-0.082 -0.001,-0.11zm-0.099 -0.175c0.066,0.039 0.119,0.094 0.14,0.163 0.01,0.035 0.009,0.08 0.003,0.127 -0.006,0.046 -0.016,0.093 -0.024,0.132l-0.006 0.025 -0.024 -0.01c-0.002,-0.001 -0.005,-0.002 -0.007,-0.003 -0.003,0 -0.006,-0.001 -0.009,-0.001l-0.021 0c0,-0.015 -0.002,-0.038 0,-0.052 0,-0.013 0,-0.033 -0.001,-0.052 -0.001,-0.02 -0.003,-0.04 -0.004,-0.05 -0.003,-0.02 -0.033,-0.042 -0.073,-0.062 -0.055,-0.026 -0.129,-0.046 -0.19,-0.055 -0.056,-0.007 -0.099,-0.012 -0.134,-0.007 -0.031,0.005 -0.057,0.018 -0.08,0.047 -0.012,0.015 -0.024,0.043 -0.033,0.075 -0.009,0.032 -0.015,0.069 -0.016,0.102l0 0.054 -0.021 0c-0.002,0 -0.004,0.001 -0.006,0.001 -0.002,0 -0.004,0.001 -0.006,0.001l-0.022 0.007 -0.005 -0.023c-0.003,-0.013 -0.007,-0.026 -0.011,-0.041 -0.022,-0.079 -0.05,-0.18 0.032,-0.236 0.002,-0.084 0.038,-0.137 0.088,-0.168 0.049,-0.031 0.11,-0.041 0.165,-0.042l0.013 0c0.082,0.001 0.176,0.024 0.252,0.068z"/>
   <path class="fil1" d="M0.939 1.313l0.14 -0.139c-0.004,-0.005 -0.008,-0.01 -0.012,-0.015 -0.004,-0.005 -0.007,-0.011 -0.01,-0.016l-0.153 0.09 0.035 0.08zm0.186 -0.124l-0.177 0.175c-0.002,0.002 -0.004,0.004 -0.007,0.005 -0.011,0.005 -0.024,0 -0.028,-0.011l-0.056 -0.125c-0.004,-0.01 -0.001,-0.022 0.009,-0.027l0.189 -0.111c0.001,-0.001 0.003,-0.002 0.004,-0.002 0.011,-0.004 0.024,0.001 0.028,0.012 0.003,0.011 0.008,0.02 0.015,0.029 0.006,0.009 0.013,0.017 0.022,0.024l0.001 0.001c0.008,0.009 0.008,0.022 0,0.03z"/>
   <path class="fil1" d="M0.805 1.364l-0.177 -0.175c-0.008,-0.008 -0.008,-0.021 0,-0.03l0.001 -0.001c0.009,-0.007 0.016,-0.015 0.023,-0.024 0.006,-0.009 0.011,-0.018 0.015,-0.029 0.004,-0.011 0.016,-0.016 0.027,-0.012 0.001,0 0.003,0.001 0.004,0.002l0.189 0.111c0.01,0.005 0.013,0.017 0.009,0.027l-0.056 0.125c-0.004,0.011 -0.017,0.016 -0.028,0.011 -0.003,-0.001 -0.005,-0.003 -0.007,-0.005zm-0.131 -0.19l0.14 0.139 0.035 -0.08 -0.153 -0.09c-0.003,0.005 -0.006,0.011 -0.01,0.016 -0.004,0.005 -0.008,0.01 -0.012,0.015z"/>
   <circle class="fil2" cx="0.883" cy="1.448" r="0.027"/>
   <circle class="fil2" cx="0.883" cy="1.608" r="0.027"/>
   <path class="fil1" d="M0.876 0c0.242,0 0.461,0.098 0.62,0.257 0.159,0.158 0.257,0.377 0.257,0.619 0,0.242 -0.098,0.461 -0.257,0.62 -0.159,0.159 -0.378,0.257 -0.62,0.257 -0.242,0 -0.461,-0.098 -0.619,-0.257 -0.159,-0.159 -0.257,-0.378 -0.257,-0.62 0,-0.242 0.098,-0.461 0.257,-0.619 0.158,-0.159 0.377,-0.257 0.619,-0.257zm0.59 0.287c-0.151,-0.151 -0.359,-0.244 -0.59,-0.244 -0.23,0 -0.438,0.093 -0.589,0.244 -0.151,0.151 -0.244,0.359 -0.244,0.589 0,0.231 0.093,0.439 0.244,0.59 0.151,0.151 0.359,0.244 0.589,0.244 0.231,0 0.439,-0.093 0.59,-0.244 0.151,-0.151 0.244,-0.359 0.244,-0.59 0,-0.23 -0.093,-0.438 -0.244,-0.589z"/>
  </g>
 </g>
</svg>
