<?xml version="1.0" encoding="UTF-8"?>
<!DOCTYPE svg PUBLIC "-//W3C//DTD SVG 1.1//EN" "http://www.w3.org/Graphics/SVG/1.1/DTD/svg11.dtd">
<!-- Creator: CorelDRAW 2018 (64-Bit) -->
<svg xmlns="http://www.w3.org/2000/svg" xml:space="preserve" width="21px" height="23px" version="1.1" style="shape-rendering:geometricPrecision; text-rendering:geometricPrecision; image-rendering:optimizeQuality; fill-rule:evenodd; clip-rule:evenodd"
viewBox="0 0 5.602 6.11"
 xmlns:xlink="http://www.w3.org/1999/xlink">
 <defs>
  <style type="text/css">
   <![CDATA[
    .fil0 {fill:gray;fill-rule:nonzero}
   ]]>
  </style>
 </defs>
 <g id="Layer_x0020_1">
  <metadata id="CorelCorpID_0Corel-Layer"/>
  <g id="_2080937137760">
   <path class="fil0" d="M2.304 3.211c0.09,-0.024 0.204,0.009 0.304,0.037l0.071 0.02c0.109,0.026 0.232,0.039 0.357,0.039 0.124,0 0.247,-0.013 0.356,-0.039l0.077 -0.022c0.099,-0.028 0.21,-0.058 0.299,-0.035 0.063,0.016 0.17,0.079 0.247,0.177 0.055,0.069 0.098,0.159 0.108,0.265l0.048 0.557 0 0.018c0.001,0.058 -0.024,0.11 -0.063,0.148 -0.036,0.035 -0.085,0.059 -0.137,0.063 -0.575,0.035 -1.264,0.002 -1.852,0.002l-0.029 -0.003c-0.048,-0.006 -0.093,-0.029 -0.127,-0.062 -0.038,-0.037 -0.063,-0.09 -0.063,-0.148 0.004,-0.182 0.033,-0.391 0.049,-0.575 0.009,-0.106 0.052,-0.196 0.107,-0.265 0.077,-0.098 0.184,-0.161 0.248,-0.177zm0.232 0.292c-0.068,-0.019 -0.146,-0.041 -0.166,-0.036 -0.022,0.006 -0.066,0.035 -0.105,0.085 -0.027,0.033 -0.048,0.075 -0.052,0.124l-0.043 0.499 1.731 0 -0.043 -0.499c-0.004,-0.049 -0.025,-0.091 -0.052,-0.124 -0.039,-0.05 -0.082,-0.079 -0.105,-0.085 -0.019,-0.005 -0.093,0.016 -0.16,0.034l-0.005 0.002c-0.023,0.007 -0.046,0.013 -0.083,0.022 -0.132,0.032 -0.276,0.047 -0.417,0.047 -0.142,0 -0.286,-0.015 -0.418,-0.047 -0.036,-0.009 -0.06,-0.015 -0.082,-0.022z"/>
   <path class="fil0" d="M3.032 1.67c0.223,0 0.424,0.09 0.57,0.236 0.146,0.146 0.236,0.347 0.236,0.569 0,0.223 -0.09,0.424 -0.236,0.57 -0.146,0.146 -0.347,0.236 -0.57,0.236 -0.222,0 -0.423,-0.09 -0.569,-0.236 -0.146,-0.146 -0.236,-0.347 -0.236,-0.57 0,-0.222 0.09,-0.423 0.236,-0.569 0.145,-0.146 0.347,-0.236 0.569,-0.236zm0.382 0.424c-0.098,-0.098 -0.233,-0.159 -0.382,-0.159 -0.149,0 -0.284,0.061 -0.382,0.159 -0.097,0.097 -0.158,0.232 -0.158,0.381 0,0.15 0.061,0.285 0.158,0.382 0.098,0.098 0.233,0.158 0.382,0.158 0.149,0 0.284,-0.06 0.382,-0.158 0.098,-0.097 0.158,-0.232 0.158,-0.382 0,-0.149 -0.06,-0.284 -0.158,-0.381z"/>
   <path class="fil0" d="M0.735 1.028c0,0.073 -0.059,0.133 -0.133,0.133 -0.073,0 -0.133,-0.06 -0.133,-0.133l0 -0.729c0,-0.082 0.034,-0.157 0.088,-0.211 0.055,-0.054 0.129,-0.088 0.211,-0.088l4.535 0c0.082,0 0.157,0.034 0.211,0.088 0.054,0.054 0.088,0.129 0.088,0.211l0 5.513c0,0.081 -0.034,0.156 -0.088,0.21l0 0.001c-0.055,0.054 -0.129,0.087 -0.211,0.087l-4.535 0c-0.082,0 -0.157,-0.033 -0.211,-0.087 -0.054,-0.054 -0.088,-0.129 -0.088,-0.211l0 -0.459c0,-0.073 0.06,-0.133 0.133,-0.133 0.074,0 0.133,0.06 0.133,0.133l0 0.459c0,0.009 0.004,0.017 0.01,0.023 0.006,0.006 0.014,0.01 0.023,0.01l4.535 0c0.01,0 0.018,-0.004 0.023,-0.01 0.007,-0.006 0.01,-0.014 0.01,-0.023l0 -5.513c0,-0.01 -0.003,-0.018 -0.009,-0.024 -0.006,-0.006 -0.015,-0.009 -0.024,-0.009l-4.535 0c-0.009,0 -0.018,0.003 -0.023,0.009 -0.006,0.006 -0.01,0.014 -0.01,0.024l0 0.729z"/>
   <path class="fil0" d="M0.735 3.494c0,0.073 -0.059,0.132 -0.133,0.132 -0.073,0 -0.133,-0.059 -0.133,-0.132l0 -0.601c0,-0.073 0.06,-0.133 0.133,-0.133 0.074,0 0.133,0.06 0.133,0.133l0 0.601z"/>
   <path class="fil0" d="M0.735 2.264c0,0.073 -0.059,0.132 -0.133,0.132 -0.073,0 -0.133,-0.059 -0.133,-0.132l0 -0.598c0,-0.073 0.06,-0.133 0.133,-0.133 0.074,0 0.133,0.06 0.133,0.133l0 0.598z"/>
   <path class="fil0" d="M0.735 4.717c0,0.074 -0.059,0.133 -0.133,0.133 -0.073,0 -0.133,-0.059 -0.133,-0.133l0 -0.594c0,-0.073 0.06,-0.133 0.133,-0.133 0.074,0 0.133,0.06 0.133,0.133l0 0.594z"/>
   <path class="fil0" d="M0 4.9c0,-0.085 0.035,-0.163 0.091,-0.218 0.056,-0.056 0.133,-0.091 0.218,-0.091l0.586 0c0.085,0 0.163,0.035 0.219,0.091 0.056,0.055 0.091,0.133 0.091,0.218 0,0.085 -0.035,0.163 -0.091,0.219 -0.056,0.056 -0.134,0.091 -0.219,0.091l-0.586 0c-0.085,0 -0.162,-0.035 -0.218,-0.091 -0.056,-0.056 -0.091,-0.134 -0.091,-0.219zm0.266 0c0,0.012 0.005,0.023 0.013,0.031 0.008,0.008 0.019,0.013 0.03,0.013l0.586 0c0.012,0 0.023,-0.005 0.031,-0.013 0.008,-0.008 0.013,-0.019 0.013,-0.031 0,-0.012 -0.005,-0.023 -0.013,-0.031 -0.008,-0.008 -0.019,-0.013 -0.031,-0.013l-0.586 0c-0.011,0 -0.022,0.005 -0.03,0.013 -0.008,0.008 -0.013,0.019 -0.013,0.031z"/>
   <path class="fil0" d="M0 3.67c0,-0.085 0.035,-0.163 0.091,-0.218 0.056,-0.056 0.133,-0.091 0.218,-0.091l0.586 0c0.085,0 0.163,0.035 0.219,0.091 0.056,0.055 0.091,0.133 0.091,0.218 0,0.085 -0.035,0.163 -0.091,0.219 -0.056,0.056 -0.134,0.091 -0.219,0.091l-0.586 0c-0.085,0 -0.162,-0.035 -0.218,-0.091 -0.056,-0.056 -0.091,-0.134 -0.091,-0.219zm0.266 0c0,0.012 0.005,0.023 0.013,0.031 0.008,0.008 0.019,0.013 0.03,0.013l0.586 0c0.012,0 0.023,-0.005 0.031,-0.013 0.008,-0.008 0.013,-0.019 0.013,-0.031 0,-0.012 -0.005,-0.023 -0.013,-0.031 -0.008,-0.008 -0.019,-0.013 -0.031,-0.013l-0.586 0c-0.011,0 -0.022,0.005 -0.03,0.013 -0.008,0.008 -0.013,0.019 -0.013,0.031z"/>
   <path class="fil0" d="M0 2.44c0,-0.085 0.035,-0.163 0.091,-0.218 0.056,-0.056 0.133,-0.091 0.218,-0.091l0.586 0c0.085,0 0.163,0.035 0.219,0.091 0.056,0.055 0.091,0.133 0.091,0.218 0,0.085 -0.035,0.163 -0.091,0.219 -0.056,0.056 -0.134,0.091 -0.219,0.091l-0.586 0c-0.085,0 -0.162,-0.035 -0.218,-0.091 -0.056,-0.056 -0.091,-0.134 -0.091,-0.219zm0.266 0c0,0.012 0.005,0.023 0.013,0.031 0.008,0.008 0.019,0.013 0.03,0.013l0.586 0c0.012,0 0.023,-0.005 0.031,-0.013 0.008,-0.008 0.013,-0.019 0.013,-0.031 0,-0.012 -0.005,-0.023 -0.013,-0.031 -0.008,-0.008 -0.019,-0.013 -0.031,-0.013l-0.586 0c-0.011,0 -0.022,0.005 -0.03,0.013 -0.008,0.008 -0.013,0.019 -0.013,0.031z"/>
   <path class="fil0" d="M0 1.21c0,-0.085 0.035,-0.163 0.091,-0.218l0.01 -0.009c0.055,-0.051 0.128,-0.082 0.208,-0.082l0.586 0c0.085,0 0.162,0.035 0.218,0.091 0.057,0.055 0.092,0.133 0.092,0.218 0,0.085 -0.035,0.163 -0.091,0.219l-0.01 0.009c-0.055,0.05 -0.129,0.082 -0.209,0.082l-0.586 0c-0.084,0 -0.162,-0.035 -0.218,-0.091 -0.056,-0.056 -0.091,-0.134 -0.091,-0.219zm0.266 0c0,0.012 0.005,0.023 0.013,0.031 0.007,0.008 0.018,0.013 0.03,0.013l0.586 0c0.011,0 0.02,-0.004 0.028,-0.01l0.003 -0.003c0.008,-0.008 0.013,-0.019 0.013,-0.031 0,-0.012 -0.005,-0.023 -0.013,-0.031 -0.008,-0.008 -0.019,-0.013 -0.031,-0.013l-0.586 0c-0.01,0 -0.02,0.004 -0.027,0.01l-0.003 0.003c-0.008,0.008 -0.013,0.019 -0.013,0.031z"/>
  </g>
 </g>
</svg>
