<?xml version="1.0" encoding="UTF-8"?>
<!DOCTYPE svg PUBLIC "-//W3C//DTD SVG 1.1//EN" "http://www.w3.org/Graphics/SVG/1.1/DTD/svg11.dtd">
<!-- Creator: CorelDRAW 2018 (64-Bit) -->
<svg xmlns="http://www.w3.org/2000/svg" xml:space="preserve" width="23px" height="23px" version="1.1" style="shape-rendering:geometricPrecision; text-rendering:geometricPrecision; image-rendering:optimizeQuality; fill-rule:evenodd; clip-rule:evenodd"
viewBox="0 0 0.733 0.747"
 xmlns:xlink="http://www.w3.org/1999/xlink">
 <defs>
  <style type="text/css">
   <![CDATA[
    .fil0 {fill:gray;fill-rule:nonzero}
   ]]>
  </style>
 </defs>
 <g id="Layer_x0020_1">
  <metadata id="CorelCorpID_0Corel-Layer"/>
  <g id="_2677517073600">
   <path class="fil0" d="M0.246 0.418c0.013,-0.003 0.03,0.001 0.044,0.005l0.011 0.003c0.017,0.004 0.036,0.007 0.055,0.007 0.019,0 0.038,-0.003 0.055,-0.007l0.011 -0.003c0.015,-0.004 0.031,-0.008 0.044,-0.005 0.009,0.002 0.024,0.011 0.036,0.025 0.007,0.01 0.014,0.023 0.015,0.038l0.007 0.085 0 0.002c0,0.008 -0.003,0.015 -0.008,0.02 -0.005,0.005 -0.011,0.008 -0.018,0.008 -0.087,0.006 -0.192,0.001 -0.281,0.001l-0.002 -0.001c-0.007,0 -0.014,-0.003 -0.019,-0.008 -0.005,-0.005 -0.008,-0.012 -0.008,-0.02 0.002,-0.029 0.005,-0.058 0.007,-0.087 0.002,-0.015 0.008,-0.028 0.016,-0.038 0.011,-0.014 0.026,-0.023 0.035,-0.025zm0.035 0.037c-0.01,-0.003 -0.023,-0.007 -0.027,-0.006 -0.004,0.001 -0.011,0.006 -0.018,0.014 -0.004,0.006 -0.008,0.013 -0.008,0.021l-0.007 0.08 0.271 0 -0.007 -0.08c-0.001,-0.008 -0.005,-0.015 -0.009,-0.021 -0.006,-0.008 -0.014,-0.013 -0.018,-0.014 -0.004,-0.001 -0.016,0.003 -0.027,0.006 -0.004,0.001 -0.008,0.002 -0.012,0.003 -0.02,0.005 -0.042,0.007 -0.063,0.007 -0.021,0 -0.042,-0.002 -0.062,-0.007 -0.005,-0.001 -0.008,-0.002 -0.012,-0.003l-0.001 0z"/>
   <path class="fil0" d="M0.356 0.184c0.032,0 0.062,0.014 0.083,0.035 0.022,0.022 0.035,0.051 0.035,0.084 0,0.032 -0.013,0.062 -0.035,0.083 -0.021,0.022 -0.051,0.035 -0.083,0.035 -0.033,0 -0.062,-0.013 -0.084,-0.035 -0.021,-0.021 -0.034,-0.051 -0.034,-0.083 0,-0.033 0.013,-0.062 0.034,-0.084 0.021,-0.021 0.051,-0.035 0.084,-0.035zm0.06 0.058c-0.015,-0.015 -0.037,-0.025 -0.06,-0.025 -0.024,0 -0.045,0.01 -0.061,0.025 -0.015,0.016 -0.025,0.037 -0.025,0.061 0,0.023 0.01,0.045 0.025,0.06 0.016,0.016 0.037,0.025 0.061,0.025 0.023,0 0.045,-0.009 0.06,-0.025 0.016,-0.015 0.025,-0.037 0.025,-0.06 0,-0.024 -0.009,-0.045 -0.025,-0.061z"/>
   <path class="fil0" d="M0.653 0.26c-0.004,-0.008 0,-0.018 0.008,-0.021 0.008,-0.004 0.018,0 0.021,0.008 0.01,0.022 0.018,0.046 0.023,0.07 0.005,0.024 0.007,0.048 0.007,0.074 0,0.098 -0.039,0.187 -0.104,0.251 -0.064,0.065 -0.153,0.105 -0.252,0.105 -0.098,0 -0.187,-0.04 -0.252,-0.105 -0.064,-0.064 -0.104,-0.153 -0.104,-0.251 0,-0.099 0.04,-0.188 0.104,-0.252 0.065,-0.065 0.154,-0.105 0.252,-0.105 0.023,0 0.046,0.003 0.068,0.007 0.023,0.004 0.045,0.011 0.066,0.019 0.008,0.004 0.012,0.013 0.009,0.021 -0.003,0.009 -0.013,0.013 -0.021,0.009 -0.019,-0.007 -0.039,-0.013 -0.06,-0.017 -0.02,-0.004 -0.04,-0.006 -0.062,-0.006 -0.089,0 -0.17,0.036 -0.229,0.095 -0.058,0.058 -0.095,0.139 -0.095,0.229 0,0.089 0.037,0.17 0.095,0.228 0.059,0.059 0.14,0.095 0.229,0.095 0.09,0 0.171,-0.036 0.229,-0.095 0.059,-0.058 0.095,-0.139 0.095,-0.228 0,-0.024 -0.002,-0.046 -0.007,-0.067 -0.005,-0.022 -0.011,-0.044 -0.02,-0.064z"/>
   <path class="fil0" d="M0.607 0.002c0.04,0.022 0.079,0.046 0.118,0.068 0.005,0.003 0.008,0.009 0.008,0.014l0 0.137c0,0.006 -0.004,0.012 -0.009,0.015l-0.117 0.067c-0.005,0.003 -0.011,0.003 -0.016,0l-0.118 -0.068c-0.005,-0.003 -0.008,-0.009 -0.008,-0.014l0 -0.137c0,-0.006 0.003,-0.012 0.009,-0.014l0.117 -0.068c0.005,-0.003 0.011,-0.003 0.016,0zm0.043 0.062l-0.051 -0.029 -0.102 0.059 0 0.118 0.102 0.058 0.102 -0.058 0 -0.118 -0.051 -0.03z"/>
  </g>
 </g>
</svg>
