<?xml version="1.0" encoding="UTF-8"?>
<!DOCTYPE svg PUBLIC "-//W3C//DTD SVG 1.1//EN" "http://www.w3.org/Graphics/SVG/1.1/DTD/svg11.dtd">
<!-- Creator: CorelDRAW 2018 (64-Bit) -->
<svg xmlns="http://www.w3.org/2000/svg" xml:space="preserve" width="23px" height="23px" version="1.1" style="shape-rendering:geometricPrecision; text-rendering:geometricPrecision; image-rendering:optimizeQuality; fill-rule:evenodd; clip-rule:evenodd"
viewBox="0 0 0.966 0.967"
 xmlns:xlink="http://www.w3.org/1999/xlink">
 <defs>
  <style type="text/css">
   <![CDATA[
    .fil0 {fill:gray;fill-rule:nonzero}
   ]]>
  </style>
 </defs>
 <g id="Layer_x0020_1">
  <metadata id="CorelCorpID_0Corel-Layer"/>
  <g id="_2677510099584">
   <path class="fil0" d="M0.818 0c0.041,0 0.078,0.017 0.105,0.043 0.027,0.027 0.043,0.064 0.043,0.105 0,0.041 -0.016,0.078 -0.043,0.104 -0.027,0.027 -0.064,0.044 -0.105,0.044 -0.04,0 -0.077,-0.017 -0.104,-0.044 -0.027,-0.026 -0.044,-0.063 -0.044,-0.104 0,-0.041 0.017,-0.078 0.044,-0.105 0.027,-0.026 0.064,-0.043 0.104,-0.043zm0.075 0.073c-0.019,-0.019 -0.045,-0.031 -0.075,-0.031 -0.029,0 -0.055,0.012 -0.075,0.031 -0.019,0.019 -0.031,0.046 -0.031,0.075 0,0.029 0.012,0.056 0.031,0.075 0.02,0.019 0.046,0.031 0.075,0.031 0.03,0 0.056,-0.012 0.075,-0.031 0.019,-0.019 0.031,-0.046 0.031,-0.075 0,-0.029 -0.012,-0.056 -0.031,-0.075z"/>
   <path class="fil0" d="M0.818 0.671c0.041,0 0.078,0.017 0.105,0.043 0.027,0.027 0.043,0.064 0.043,0.105 0,0.041 -0.016,0.078 -0.043,0.104 -0.027,0.027 -0.064,0.044 -0.105,0.044 -0.04,0 -0.077,-0.017 -0.104,-0.044 -0.027,-0.026 -0.044,-0.063 -0.044,-0.104 0,-0.041 0.017,-0.078 0.044,-0.105 0.027,-0.026 0.064,-0.043 0.104,-0.043zm0.075 0.073c-0.019,-0.019 -0.045,-0.031 -0.075,-0.031 -0.029,0 -0.055,0.012 -0.075,0.031 -0.019,0.019 -0.031,0.046 -0.031,0.075 0,0.029 0.012,0.056 0.031,0.075 0.02,0.019 0.046,0.031 0.075,0.031 0.03,0 0.056,-0.012 0.075,-0.031 0.019,-0.019 0.031,-0.046 0.031,-0.075 0,-0.029 -0.012,-0.056 -0.031,-0.075z"/>
   <path class="fil0" d="M0.148 0.336c0.041,0 0.078,0.016 0.104,0.043 0.027,0.027 0.044,0.064 0.044,0.104 0,0.041 -0.017,0.078 -0.044,0.105 -0.026,0.027 -0.063,0.043 -0.104,0.043 -0.041,0 -0.078,-0.016 -0.105,-0.043 -0.026,-0.027 -0.043,-0.064 -0.043,-0.105 0,-0.04 0.017,-0.077 0.043,-0.104 0.027,-0.027 0.064,-0.043 0.105,-0.043zm0.075 0.073c-0.019,-0.02 -0.046,-0.031 -0.075,-0.031 -0.029,0 -0.056,0.011 -0.075,0.03 -0.019,0.02 -0.031,0.046 -0.031,0.075 0,0.03 0.012,0.056 0.031,0.075 0.019,0.019 0.046,0.031 0.075,0.031 0.029,0 0.056,-0.012 0.075,-0.031 0.019,-0.019 0.031,-0.045 0.031,-0.075 0,-0.029 -0.012,-0.055 -0.031,-0.074z"/>
   <polygon class="fil0" points="0.26,0.529 0.716,0.741 0.698,0.779 0.242,0.567 "/>
   <polygon class="fil0" points="0.716,0.237 0.26,0.449 0.242,0.411 0.698,0.199 "/>
  </g>
 </g>
</svg>
