<?xml version="1.0" encoding="UTF-8"?>
<!DOCTYPE svg PUBLIC "-//W3C//DTD SVG 1.1//EN" "http://www.w3.org/Graphics/SVG/1.1/DTD/svg11.dtd">
<!-- Creator: CorelDRAW 2018 (64-Bit) -->
<svg xmlns="http://www.w3.org/2000/svg" xml:space="preserve" width="13px" height="23px" version="1.1" style="shape-rendering:geometricPrecision; text-rendering:geometricPrecision; image-rendering:optimizeQuality; fill-rule:evenodd; clip-rule:evenodd"
viewBox="0 0 0.243 0.422"
 xmlns:xlink="http://www.w3.org/1999/xlink">
 <defs>
  <style type="text/css">
   <![CDATA[
    .fil0 {fill:gray;fill-rule:nonzero}
   ]]>
  </style>
 </defs>
 <g id="Layer_x0020_1">
  <metadata id="CorelCorpID_0Corel-Layer"/>
  <g id="_2677514819664">
   <path class="fil0" d="M0.114 0.383c-0.005,0 -0.01,-0.004 -0.01,-0.009 0,-0.005 0.005,-0.009 0.01,-0.009l0.015 0c0.005,0 0.01,0.004 0.01,0.009 0,0.005 -0.005,0.009 -0.01,0.009l-0.015 0z"/>
   <path class="fil0" d="M0.035 0l0.173 0c0.01,0 0.018,0.004 0.025,0.01 0.006,0.007 0.01,0.015 0.01,0.025l0 0.352c0,0.01 -0.004,0.018 -0.01,0.025 -0.007,0.006 -0.015,0.01 -0.025,0.01l-0.173 0c-0.01,0 -0.018,-0.004 -0.025,-0.01 -0.006,-0.007 -0.01,-0.015 -0.01,-0.025l0 -0.352c0,-0.01 0.004,-0.018 0.01,-0.025l0 0c0.007,-0.006 0.015,-0.01 0.025,-0.01zm0.173 0.018l-0.173 0c-0.005,0 -0.009,0.002 -0.012,0.005 -0.003,0.003 -0.005,0.007 -0.005,0.012l0 0.352c0,0.005 0.002,0.009 0.005,0.012 0.003,0.003 0.007,0.005 0.012,0.005l0.173 0c0.005,0 0.009,-0.002 0.012,-0.005 0.003,-0.003 0.005,-0.007 0.005,-0.012l0 -0.352c0,-0.005 -0.002,-0.009 -0.005,-0.012 -0.003,-0.003 -0.007,-0.005 -0.012,-0.005z"/>
   <path class="fil0" d="M0.234 0.339c0.005,0 0.009,0.004 0.009,0.009 0,0.005 -0.004,0.009 -0.009,0.009l-0.225 0c-0.005,0 -0.009,-0.004 -0.009,-0.009 0,-0.005 0.004,-0.009 0.009,-0.009l0.225 0z"/>
   <path class="fil0" d="M0.009 0.083c-0.005,0 -0.009,-0.004 -0.009,-0.009 0,-0.005 0.004,-0.009 0.009,-0.009l0.225 0c0.005,0 0.009,0.004 0.009,0.009 0,0.005 -0.004,0.009 -0.009,0.009l-0.225 0z"/>
   <path class="fil0" d="M0.102 0.052c-0.005,0 -0.009,-0.004 -0.009,-0.009 0,-0.005 0.004,-0.009 0.009,-0.009l0.039 0c0.005,0 0.009,0.004 0.009,0.009 0,0.005 -0.004,0.009 -0.009,0.009l-0.039 0z"/>
  </g>
 </g>
</svg>
