<?xml version="1.0" encoding="UTF-8"?>
<!DOCTYPE svg PUBLIC "-//W3C//DTD SVG 1.1//EN" "http://www.w3.org/Graphics/SVG/1.1/DTD/svg11.dtd">
<!-- Creator: CorelDRAW 2018 (64-Bit) -->
<svg xmlns="http://www.w3.org/2000/svg" xml:space="preserve" width="34px" height="21px" version="1.1" style="shape-rendering:geometricPrecision; text-rendering:geometricPrecision; image-rendering:optimizeQuality; fill-rule:evenodd; clip-rule:evenodd"
viewBox="0 0 1.997 1.261"
 xmlns:xlink="http://www.w3.org/1999/xlink">
 <defs>
  <style type="text/css">
   <![CDATA[
    .fil0 {fill:gray;fill-rule:nonzero}
   ]]>
  </style>
 </defs>
 <g id="Layer_x0020_1">
  <metadata id="CorelCorpID_0Corel-Layer"/>
  <g id="_2677517051872">
   <path class="fil0" d="M0.265 0l1.467 0c0.03,0 0.057,0.012 0.077,0.032 0.019,0.019 0.032,0.047 0.032,0.077l0 0.881c0,0.03 -0.013,0.057 -0.032,0.077 -0.02,0.019 -0.047,0.032 -0.077,0.032l-1.467 0c-0.03,0 -0.057,-0.013 -0.077,-0.032l-0.001 -0.002c-0.019,-0.02 -0.03,-0.046 -0.03,-0.075l0 -0.881c0,-0.03 0.012,-0.057 0.031,-0.077l0.001 0c0.019,-0.02 0.046,-0.032 0.076,-0.032zm1.467 0.059l-1.467 0c-0.014,0 -0.026,0.005 -0.035,0.014 -0.009,0.009 -0.015,0.022 -0.015,0.036l0 0.881c0,0.013 0.005,0.025 0.014,0.034l0.001 0.001c0.009,0.009 0.021,0.015 0.035,0.015l1.467 0c0.014,0 0.026,-0.006 0.035,-0.015 0.009,-0.009 0.015,-0.021 0.015,-0.035l0 -0.881c0,-0.014 -0.006,-0.027 -0.015,-0.036 -0.009,-0.009 -0.021,-0.014 -0.035,-0.014z"/>
   <path class="fil0" d="M0.068 1.04l1.861 0c0.019,0 0.036,0.008 0.048,0.02l0.002 0.002c0.011,0.012 0.018,0.029 0.018,0.046l0 0.084c0,0.019 -0.007,0.036 -0.02,0.048 -0.012,0.013 -0.029,0.021 -0.048,0.021l-1.861 0c-0.018,0 -0.035,-0.008 -0.048,-0.021 -0.012,-0.012 -0.02,-0.029 -0.02,-0.048l0 -0.084c0,-0.018 0.008,-0.036 0.02,-0.048 0.012,-0.012 0.03,-0.02 0.048,-0.02zm1.861 0.059l-1.861 0c-0.002,0 -0.005,0.001 -0.006,0.003 -0.002,0.001 -0.003,0.004 -0.003,0.006l0 0.084c0,0.003 0.001,0.005 0.003,0.007 0.001,0.002 0.004,0.003 0.006,0.003l1.861 0c0.002,0 0.005,-0.001 0.007,-0.003 0.001,-0.002 0.002,-0.004 0.002,-0.007l0 -0.084c0,-0.002 0,-0.004 -0.002,-0.006l0 0c-0.002,-0.002 -0.005,-0.003 -0.007,-0.003z"/>
   <path class="fil0" d="M0.935 1.18c-0.016,0 -0.029,-0.014 -0.029,-0.03 0,-0.016 0.013,-0.029 0.029,-0.029l0.127 0c0.017,0 0.03,0.013 0.03,0.029 0,0.016 -0.013,0.03 -0.03,0.03l-0.127 0z"/>
  </g>
 </g>
</svg>
