<?xml version="1.0" encoding="UTF-8"?>
<!DOCTYPE svg PUBLIC "-//W3C//DTD SVG 1.1//EN" "http://www.w3.org/Graphics/SVG/1.1/DTD/svg11.dtd">
<!-- Creator: CorelDRAW 2018 (64-Bit) -->
<svg xmlns="http://www.w3.org/2000/svg" xml:space="preserve" width="24px" height="24px" version="1.1" style="shape-rendering:geometricPrecision; text-rendering:geometricPrecision; image-rendering:optimizeQuality; fill-rule:evenodd; clip-rule:evenodd"
viewBox="0 0 0.991 0.991"
 xmlns:xlink="http://www.w3.org/1999/xlink">
 <defs>
  <style type="text/css">
   <![CDATA[
    .fil0 {fill:#4267B2}
   ]]>
  </style>
 </defs>
 <g id="Layer_x0020_1">
  <metadata id="CorelCorpID_0Corel-Layer"/>
  <path class="fil0" d="M0.936 0l-0.881 0c-0.03,0 -0.055,0.025 -0.055,0.055l0 0.881c0,0.03 0.025,0.055 0.055,0.055l0.474 0 0 -0.383 -0.128 0 0 -0.15 0.128 0 0 -0.11c0,-0.128 0.078,-0.198 0.193,-0.198 0.001,0 0.002,0 0.003,0 0.038,0 0.075,0.002 0.112,0.006l0 0.133 -0.079 0c-0.062,0 -0.074,0.03 -0.074,0.073l0 0.095 0.149 0 -0.02 0.15 -0.129 0 0 0.384 0.252 0c0.03,0 0.055,-0.025 0.055,-0.055l0 -0.881c0,-0.03 -0.025,-0.055 -0.055,-0.055z"/>
 </g>
</svg>
