<?xml version="1.0" encoding="UTF-8"?>
<!DOCTYPE svg PUBLIC "-//W3C//DTD SVG 1.1//EN" "http://www.w3.org/Graphics/SVG/1.1/DTD/svg11.dtd">
<!-- Creator: CorelDRAW 2018 (64-Bit) -->
<svg xmlns="http://www.w3.org/2000/svg" xml:space="preserve" width="24px" height="24px" version="1.1" style="shape-rendering:geometricPrecision; text-rendering:geometricPrecision; image-rendering:optimizeQuality; fill-rule:evenodd; clip-rule:evenodd"
viewBox="0 0 0.991 0.991"
 xmlns:xlink="http://www.w3.org/1999/xlink">
 <defs>
  <style type="text/css">
   <![CDATA[
    .fil1 {fill:#FEFEFE;fill-rule:nonzero}
    .fil0 {fill:#4D9ED6;fill-rule:nonzero}
   ]]>
  </style>
 </defs>
 <g id="Layer_x0020_1">
  <metadata id="CorelCorpID_0Corel-Layer"/>
  <g id="_2118978267232">
   <rect class="fil0" width="0.991" height="0.991" rx="0.055" ry="0.055"/>
   <path class="fil1" d="M0.381 0.747c0.233,0 0.361,-0.194 0.361,-0.361 0,-0.006 0,-0.011 0,-0.017 0.025,-0.018 0.046,-0.04 0.063,-0.066 -0.023,0.01 -0.047,0.017 -0.073,0.02 0.026,-0.015 0.046,-0.04 0.056,-0.07 -0.025,0.015 -0.052,0.025 -0.081,0.031 -0.023,-0.025 -0.056,-0.04 -0.092,-0.04 -0.071,0 -0.128,0.057 -0.128,0.127 0,0.01 0.002,0.019 0.004,0.029 -0.106,-0.006 -0.199,-0.056 -0.262,-0.133 -0.011,0.019 -0.017,0.041 -0.017,0.064 0,0.044 0.022,0.083 0.056,0.106 -0.021,-0.001 -0.04,-0.007 -0.057,-0.016 0,0 0,0.001 0,0.001 0,0.062 0.043,0.113 0.102,0.125 -0.011,0.003 -0.022,0.004 -0.034,0.004 -0.008,0 -0.016,0 -0.024,-0.002 0.016,0.051 0.063,0.087 0.119,0.088 -0.044,0.034 -0.098,0.055 -0.158,0.055 -0.01,0 -0.02,-0.001 -0.03,-0.002 0.056,0.036 0.123,0.057 0.195,0.057z"/>
  </g>
 </g>
</svg>
