<?xml version="1.0" encoding="UTF-8"?>
<!DOCTYPE svg PUBLIC "-//W3C//DTD SVG 1.1//EN" "http://www.w3.org/Graphics/SVG/1.1/DTD/svg11.dtd">
<!-- Creator: CorelDRAW 2018 (64-Bit) -->
<svg xmlns="http://www.w3.org/2000/svg" xml:space="preserve" width="24px" height="24px" version="1.1" style="shape-rendering:geometricPrecision; text-rendering:geometricPrecision; image-rendering:optimizeQuality; fill-rule:evenodd; clip-rule:evenodd"
viewBox="0 0 0.991 0.991"
 xmlns:xlink="http://www.w3.org/1999/xlink">
 <defs>
  <style type="text/css">
   <![CDATA[
    .fil1 {fill:#FEFEFE}
    .fil0 {fill:#0077B5;fill-rule:nonzero}
   ]]>
  </style>
 </defs>
 <g id="Layer_x0020_1">
  <metadata id="CorelCorpID_0Corel-Layer"/>
  <g id="_2081083864736">
   <rect class="fil0" width="0.991" height="0.991" rx="0.055" ry="0.055"/>
   <path class="fil1" d="M0.158 0.378l0.145 0 0 0.466 -0.145 0 0 -0.466zm0.235 0l0.139 0 0 0.064 0.002 0c0.019,-0.037 0.067,-0.075 0.137,-0.075 0.147,0 0.174,0.096 0.174,0.222l0 0.255 -0.145 0 0 -0.226c0,-0.054 -0.001,-0.124 -0.075,-0.124 -0.076,0 -0.087,0.059 -0.087,0.12l0 0.23 -0.145 0 0 -0.466zm-0.163 -0.231l0 0c0.046,0 0.084,0.038 0.084,0.084 0,0.046 -0.038,0.084 -0.084,0.084 -0.046,0 -0.084,-0.038 -0.084,-0.084 0,-0.046 0.038,-0.084 0.084,-0.084z"/>
  </g>
 </g>
</svg>
