<?xml version="1.0" encoding="UTF-8"?>
<!DOCTYPE svg PUBLIC "-//W3C//DTD SVG 1.1//EN" "http://www.w3.org/Graphics/SVG/1.1/DTD/svg11.dtd">
<!-- Creator: CorelDRAW 2018 (64-Bit) -->
<svg xmlns="http://www.w3.org/2000/svg" xml:space="preserve" width="24px" height="24px" version="1.1" style="shape-rendering:geometricPrecision; text-rendering:geometricPrecision; image-rendering:optimizeQuality; fill-rule:evenodd; clip-rule:evenodd"
viewBox="0 0 0.991 0.991"
 xmlns:xlink="http://www.w3.org/1999/xlink">
 <defs>
  <style type="text/css">
   <![CDATA[
    .fil1 {fill:#FEFEFE}
    .fil0 {fill:#EE3537;fill-rule:nonzero}
   ]]>
  </style>
 </defs>
 <g id="Layer_x0020_1">
  <metadata id="CorelCorpID_0Corel-Layer"/>
  <g id="_2081109629312">
   <rect class="fil0" width="0.991" height="0.991" rx="0.055" ry="0.055"/>
   <path class="fil1" d="M0.609 0.495l-0.187 0.107 0 -0.213 0.187 0.106zm0.229 -0.173c-0.009,-0.031 -0.033,-0.055 -0.063,-0.063 -0.056,-0.015 -0.28,-0.015 -0.28,-0.015 0,0 -0.223,0 -0.279,0.015 -0.03,0.008 -0.055,0.032 -0.063,0.063 -0.015,0.056 -0.015,0.173 -0.015,0.173 0,0 0,0.117 0.015,0.174 0.008,0.03 0.033,0.055 0.063,0.063 0.056,0.015 0.279,0.015 0.279,0.015 0,0 0.224,0 0.28,-0.015 0.03,-0.008 0.054,-0.033 0.063,-0.063 0.015,-0.057 0.015,-0.174 0.015,-0.174 0,0 0,-0.117 -0.015,-0.173z"/>
  </g>
 </g>
</svg>
