<?xml version="1.0" encoding="UTF-8"?>
<!DOCTYPE svg PUBLIC "-//W3C//DTD SVG 1.1//EN" "http://www.w3.org/Graphics/SVG/1.1/DTD/svg11.dtd">
<!-- Creator: CorelDRAW 2018 (64-Bit) -->
<svg xmlns="http://www.w3.org/2000/svg" xml:space="preserve" width="25px" height="25px" version="1.1" style="shape-rendering:geometricPrecision; text-rendering:geometricPrecision; image-rendering:optimizeQuality; fill-rule:evenodd; clip-rule:evenodd"
viewBox="0 0 1.073 1.073"
 xmlns:xlink="http://www.w3.org/1999/xlink">
 <defs>
  <style type="text/css">
   <![CDATA[
    .fil2 {fill:#BD081C;fill-rule:nonzero}
    .fil1 {fill:#CCCCCC;fill-rule:nonzero}
    .fil0 {fill:white;fill-rule:nonzero}
   ]]>
  </style>
 </defs>
 <g id="Layer_x0020_1">
  <metadata id="CorelCorpID_0Corel-Layer"/>
  <rect class="fil0" x="0.021" y="0.021" width="1.03" height="1.03" rx="0.057" ry="0.057"/>
  <path class="fil1" d="M0.079 0l0.916 0c0.021,0 0.041,0.009 0.055,0.023 0.014,0.014 0.023,0.034 0.023,0.056l0 0.916c0,0.021 -0.009,0.041 -0.023,0.055 -0.014,0.014 -0.034,0.023 -0.055,0.023l-0.916 0c-0.022,0 -0.042,-0.009 -0.056,-0.023 -0.014,-0.014 -0.023,-0.034 -0.023,-0.055l0 -0.916c0,-0.022 0.009,-0.042 0.023,-0.056 0.014,-0.014 0.034,-0.023 0.056,-0.023zm0.916 0.043l-0.916 0c-0.01,0 -0.019,0.004 -0.026,0.01 -0.006,0.007 -0.01,0.016 -0.01,0.026l0 0.916c0,0.009 0.004,0.018 0.01,0.025 0.007,0.006 0.016,0.01 0.026,0.01l0.916 0c0.009,0 0.018,-0.004 0.025,-0.01 0.006,-0.007 0.01,-0.016 0.01,-0.025l0 -0.916c0,-0.01 -0.004,-0.019 -0.01,-0.026 -0.007,-0.006 -0.016,-0.01 -0.025,-0.01z"/>
  <g id="_2677516731888">
   <path class="fil0" d="M0.954 0.537c0,0.23 -0.187,0.417 -0.417,0.417 -0.231,0 -0.418,-0.187 -0.418,-0.417 0,-0.231 0.187,-0.418 0.418,-0.418l0 0c0.23,0 0.417,0.187 0.417,0.418z"/>
   <path class="fil2" d="M0.537 0.119c-0.231,0 -0.418,0.187 -0.418,0.418 0,0.177 0.11,0.328 0.266,0.389 -0.004,-0.033 -0.007,-0.084 0.001,-0.12 0.008,-0.033 0.049,-0.208 0.049,-0.208 0,0 -0.013,-0.025 -0.013,-0.062 0,-0.058 0.034,-0.101 0.076,-0.101 0.036,0 0.053,0.027 0.053,0.059 0,0.035 -0.023,0.089 -0.035,0.139 -0.01,0.041 0.021,0.075 0.062,0.075 0.074,0 0.131,-0.078 0.131,-0.191 0,-0.1 -0.072,-0.17 -0.174,-0.17 -0.119,0 -0.189,0.089 -0.189,0.181 0,0.036 0.014,0.075 0.031,0.095 0.004,0.005 0.004,0.008 0.003,0.012 -0.003,0.014 -0.01,0.042 -0.011,0.048 -0.002,0.007 -0.006,0.009 -0.014,0.005 -0.052,-0.024 -0.085,-0.1 -0.085,-0.161 0,-0.132 0.096,-0.253 0.276,-0.253 0.145,0 0.257,0.103 0.257,0.241 0,0.144 -0.09,0.26 -0.216,0.26 -0.043,0 -0.082,-0.022 -0.096,-0.048 0,0 -0.021,0.08 -0.026,0.099 -0.009,0.036 -0.035,0.082 -0.052,0.11 0.039,0.012 0.08,0.018 0.122,0.018l0.002 0c0.23,0 0.417,-0.187 0.417,-0.417 0,-0.231 -0.187,-0.418 -0.417,-0.418l0 0z"/>
  </g>
 </g>
</svg>
