<?xml version="1.0" encoding="UTF-8"?>
<!DOCTYPE svg PUBLIC "-//W3C//DTD SVG 1.1//EN" "http://www.w3.org/Graphics/SVG/1.1/DTD/svg11.dtd">
<!-- Creator: CorelDRAW 2018 (64-Bit) -->
<svg xmlns="http://www.w3.org/2000/svg" xml:space="preserve" width="87px" height="41px" version="1.1" style="shape-rendering:geometricPrecision; text-rendering:geometricPrecision; image-rendering:optimizeQuality; fill-rule:evenodd; clip-rule:evenodd"
viewBox="0 0 5.844 2.743"
 xmlns:xlink="http://www.w3.org/1999/xlink">
 <defs>
  <style type="text/css">
   <![CDATA[
    .fil0 {fill:#A3AEBA;fill-rule:nonzero}
   ]]>
  </style>
 </defs>
 <g id="Layer_x0020_1">
  <metadata id="CorelCorpID_0Corel-Layer"/>
  <g id="_2712825458368">
   <path class="fil0" d="M3.204 0.587c-0.171,0.153 -0.383,0.209 -0.559,0.255 -0.073,0.019 -0.139,0.036 -0.192,0.058l0 0.312c0,0.088 0.05,0.193 0.141,0.286 0.08,0.083 0.192,0.156 0.328,0.197 0.136,-0.041 0.248,-0.114 0.329,-0.197 0.09,-0.093 0.14,-0.198 0.14,-0.286l0 -0.319c-0.01,-0.009 -0.021,-0.017 -0.031,-0.025 -0.062,-0.047 -0.117,-0.089 -0.156,-0.281zm-0.576 0.19c0.184,-0.048 0.409,-0.106 0.573,-0.281 0.005,-0.005 0.011,-0.009 0.019,-0.01 0.018,-0.003 0.035,0.01 0.038,0.028 0.035,0.219 0.086,0.258 0.143,0.301 0.014,0.011 0.03,0.023 0.045,0.037 0.007,0.006 0.012,0.015 0.012,0.026l0 0.334c0,0.104 -0.057,0.227 -0.16,0.332 -0.089,0.093 -0.215,0.173 -0.366,0.218 -0.006,0.002 -0.013,0.002 -0.019,0 -0.152,-0.045 -0.277,-0.125 -0.367,-0.218 -0.103,-0.105 -0.16,-0.228 -0.16,-0.332l0 -0.334c0,-0.013 0.007,-0.025 0.02,-0.03 0.061,-0.029 0.137,-0.049 0.222,-0.071z"/>
   <path class="fil0" d="M3.425 1.203c-0.019,0 -0.034,-0.015 -0.034,-0.034 0,-0.018 0.015,-0.033 0.034,-0.033 0.022,0 0.042,-0.009 0.056,-0.024 0.015,-0.015 0.024,-0.036 0.024,-0.059 0,-0.023 -0.009,-0.044 -0.024,-0.059 -0.014,-0.015 -0.034,-0.024 -0.056,-0.024 -0.019,0 -0.034,-0.015 -0.034,-0.034 0,-0.018 0.015,-0.033 0.034,-0.033 0.041,0 0.077,0.017 0.104,0.044l0 0c0.027,0.027 0.043,0.065 0.043,0.106 0,0.041 -0.016,0.078 -0.043,0.105 -0.026,0.028 -0.063,0.045 -0.104,0.045z"/>
   <path class="fil0" d="M2.419 1.136c0.019,0 0.034,0.015 0.034,0.033 0,0.019 -0.015,0.034 -0.034,0.034 -0.04,0 -0.077,-0.017 -0.104,-0.044 -0.027,-0.028 -0.043,-0.065 -0.043,-0.106 0,-0.041 0.016,-0.079 0.043,-0.106l0 0c0.027,-0.027 0.064,-0.044 0.104,-0.044 0.019,0 0.034,0.015 0.034,0.033 0,0.019 -0.015,0.034 -0.034,0.034 -0.022,0 -0.042,0.009 -0.056,0.024 -0.015,0.015 -0.024,0.036 -0.024,0.059 0,0.023 0.009,0.044 0.024,0.059 0.014,0.015 0.034,0.024 0.056,0.024z"/>
   <path class="fil0" d="M2.613 1.961c0.012,0.014 0.01,0.035 -0.004,0.047 -0.014,0.011 -0.035,0.01 -0.047,-0.004 -0.1,-0.118 -0.202,-0.27 -0.276,-0.452 -0.058,-0.144 -0.097,-0.307 -0.101,-0.488 0,-0.018 0,-0.035 0,-0.052 0.008,-0.196 0.084,-0.406 0.209,-0.568 0.126,-0.164 0.302,-0.279 0.509,-0.284 0.012,0 0.024,0 0.036,0 0.233,0.01 0.444,0.101 0.593,0.276 0.134,0.157 0.217,0.381 0.22,0.674 0.001,0.188 -0.036,0.371 -0.095,0.541 -0.073,0.21 -0.178,0.401 -0.285,0.558 -0.06,0.09 -0.108,0.174 -0.114,0.252 -0.006,0.074 0.028,0.147 0.127,0.222 0.014,0.011 0.017,0.032 0.006,0.046 -0.007,0.01 -0.018,0.014 -0.029,0.014 -0.062,-0.005 -0.172,-0.019 -0.265,-0.076 -0.097,-0.059 -0.175,-0.162 -0.167,-0.343 0.008,-0.17 0.058,-0.24 0.108,-0.311 0.035,-0.049 0.071,-0.098 0.089,-0.188 0.006,-0.027 0.01,-0.057 0.012,-0.093 0.002,-0.036 0.003,-0.076 0.001,-0.123 -0.001,-0.018 0.014,-0.034 0.032,-0.034 0.018,-0.001 0.034,0.013 0.035,0.032 0.002,0.049 0.001,0.092 -0.001,0.129 -0.003,0.039 -0.007,0.072 -0.013,0.102 -0.022,0.105 -0.061,0.16 -0.1,0.214 -0.045,0.063 -0.09,0.124 -0.096,0.275 -0.007,0.15 0.056,0.235 0.134,0.283 0.043,0.026 0.089,0.042 0.132,0.051 -0.057,-0.066 -0.077,-0.135 -0.072,-0.205 0.007,-0.093 0.06,-0.186 0.126,-0.284 0.104,-0.153 0.207,-0.339 0.277,-0.542 0.057,-0.164 0.092,-0.339 0.091,-0.519 -0.002,-0.276 -0.079,-0.486 -0.203,-0.632 -0.137,-0.16 -0.331,-0.243 -0.546,-0.252 -0.011,0 -0.021,0 -0.032,0 -0.184,0.004 -0.342,0.109 -0.457,0.258 -0.117,0.151 -0.188,0.347 -0.195,0.529 -0.001,0.017 -0.001,0.033 0,0.048 0.004,0.172 0.041,0.328 0.096,0.465 0.07,0.175 0.169,0.32 0.265,0.434z"/>
   <path class="fil0" d="M2.631 1.626c-0.006,-0.018 0.004,-0.036 0.021,-0.042 0.018,-0.006 0.036,0.003 0.042,0.021 0.069,0.204 0.015,0.331 -0.099,0.413 -0.108,0.078 -0.27,0.111 -0.43,0.131 -0.033,0.004 -0.067,0.007 -0.097,0.01 -0.158,0.017 -0.21,0.022 -0.362,0.201 -0.012,0.014 -0.033,0.016 -0.047,0.004 -0.014,-0.012 -0.016,-0.033 -0.004,-0.047 0.169,-0.2 0.228,-0.206 0.407,-0.224 0.026,-0.003 0.056,-0.006 0.095,-0.011 0.15,-0.019 0.302,-0.049 0.399,-0.118 0.091,-0.065 0.132,-0.168 0.075,-0.338z"/>
   <path class="fil0" d="M3.42 2.097c-0.018,-0.006 -0.028,-0.024 -0.022,-0.042 0.005,-0.017 0.024,-0.027 0.041,-0.022 0.038,0.012 0.078,0.021 0.12,0.029 0.041,0.008 0.085,0.014 0.129,0.019 0.038,0.005 0.068,0.008 0.095,0.011 0.179,0.018 0.237,0.024 0.406,0.224 0.012,0.014 0.01,0.035 -0.004,0.047 -0.014,0.012 -0.035,0.01 -0.047,-0.004 -0.151,-0.179 -0.203,-0.184 -0.362,-0.201 -0.03,-0.003 -0.064,-0.006 -0.096,-0.01 -0.044,-0.006 -0.089,-0.012 -0.133,-0.021 -0.044,-0.008 -0.086,-0.018 -0.127,-0.03z"/>
   <path class="fil0" d="M3.141 1.633c0.005,-0.018 0.024,-0.028 0.041,-0.023 0.018,0.005 0.028,0.024 0.023,0.041 -0.01,0.035 -0.016,0.067 -0.018,0.097 -0.001,0.028 0,0.054 0.005,0.077 0.004,0.018 -0.007,0.036 -0.025,0.04 -0.018,0.004 -0.036,-0.008 -0.04,-0.026 -0.006,-0.029 -0.009,-0.061 -0.006,-0.096 0.002,-0.033 0.008,-0.07 0.02,-0.11z"/>
   <path class="fil0" d="M3.24 2.464c-0.018,0.004 -0.036,-0.008 -0.039,-0.026 -0.003,-0.018 0.009,-0.036 0.027,-0.039 0.123,-0.024 0.238,-0.061 0.342,-0.109 0.105,-0.049 0.198,-0.11 0.275,-0.179 0.013,-0.013 0.035,-0.011 0.047,0.002 0.012,0.014 0.011,0.035 -0.003,0.047 -0.081,0.074 -0.18,0.138 -0.291,0.19 -0.109,0.051 -0.229,0.09 -0.358,0.114z"/>
   <path class="fil0" d="M1.955 2.161c-0.014,-0.012 -0.015,-0.033 -0.003,-0.047 0.013,-0.014 0.034,-0.015 0.047,-0.002 0.109,0.097 0.249,0.177 0.409,0.232 0.155,0.053 0.329,0.083 0.514,0.083l0.025 0 0.025 -0.001c0.018,0 0.034,0.014 0.034,0.033 0.001,0.018 -0.014,0.033 -0.032,0.034l-0.052 0.001c-0.192,0 -0.374,-0.031 -0.536,-0.087 -0.169,-0.058 -0.316,-0.142 -0.431,-0.246z"/>
   <path class="fil0" d="M0.88 1.332c-0.006,-0.018 0.004,-0.037 0.021,-0.042 0.018,-0.006 0.037,0.003 0.042,0.021 0.063,0.184 0.014,0.299 -0.09,0.374 -0.097,0.069 -0.243,0.099 -0.386,0.117 -0.029,0.003 -0.059,0.006 -0.086,0.009 -0.141,0.015 -0.187,0.019 -0.322,0.178 -0.012,0.014 -0.033,0.016 -0.047,0.004 -0.014,-0.012 -0.016,-0.033 -0.004,-0.047 0.152,-0.179 0.205,-0.185 0.366,-0.201 0.023,-0.003 0.05,-0.005 0.085,-0.01 0.134,-0.016 0.27,-0.043 0.355,-0.105 0.08,-0.057 0.117,-0.148 0.066,-0.298z"/>
   <path class="fil0" d="M1.454 1.311c0.005,-0.018 0.024,-0.027 0.042,-0.021 0.017,0.005 0.027,0.024 0.021,0.042 -0.051,0.15 -0.014,0.241 0.066,0.298 0.085,0.062 0.221,0.089 0.355,0.105 0.035,0.005 0.061,0.007 0.085,0.01 0.161,0.016 0.214,0.022 0.366,0.201 0.012,0.014 0.01,0.035 -0.004,0.047 -0.014,0.012 -0.035,0.01 -0.047,-0.004 -0.135,-0.159 -0.181,-0.163 -0.322,-0.178 -0.027,-0.003 -0.057,-0.006 -0.086,-0.009 -0.143,-0.018 -0.289,-0.048 -0.386,-0.117 -0.104,-0.075 -0.153,-0.19 -0.09,-0.374z"/>
   <path class="fil0" d="M1.682 0.706l0 0.294c0,0.047 -0.013,0.096 -0.034,0.144 -0.024,0.053 -0.058,0.105 -0.095,0.152 -0.048,0.059 -0.105,0.111 -0.167,0.147 -0.058,0.033 -0.121,0.053 -0.187,0.054l-0.001 0c-0.066,-0.001 -0.128,-0.021 -0.186,-0.054 -0.063,-0.036 -0.119,-0.088 -0.167,-0.147 -0.038,-0.047 -0.072,-0.099 -0.095,-0.152 -0.021,-0.048 -0.034,-0.097 -0.034,-0.144l0 -0.302c0.001,-0.057 0.011,-0.12 0.026,-0.175 0.017,-0.058 0.04,-0.11 0.065,-0.141 0.048,-0.06 0.101,-0.088 0.168,-0.098 0.063,-0.009 0.136,-0.001 0.229,0.012 0.101,0.014 0.225,0.047 0.318,0.092 0.082,0.039 0.143,0.09 0.152,0.147l0 0.002c0.002,0.017 0.005,0.049 0.006,0.082 0.002,0.032 0.003,0.064 0.002,0.087zm-0.067 0.294l0 -0.295c0.001,-0.021 0,-0.052 -0.001,-0.082 -0.002,-0.031 -0.004,-0.061 -0.006,-0.077l0 -0.001c-0.005,-0.032 -0.052,-0.067 -0.115,-0.097 -0.087,-0.042 -0.202,-0.073 -0.298,-0.086 -0.087,-0.012 -0.155,-0.02 -0.21,-0.012 -0.05,0.008 -0.09,0.029 -0.126,0.073 -0.019,0.025 -0.038,0.068 -0.052,0.118 -0.014,0.05 -0.024,0.107 -0.025,0.158l0.001 0.301c0,0.038 0.01,0.077 0.028,0.117 0.021,0.047 0.052,0.094 0.086,0.137 0.043,0.053 0.093,0.1 0.148,0.131 0.048,0.028 0.1,0.044 0.154,0.045 0.054,-0.001 0.105,-0.017 0.153,-0.045 0.055,-0.031 0.106,-0.078 0.149,-0.131 0.034,-0.043 0.065,-0.09 0.086,-0.137 0.017,-0.04 0.028,-0.079 0.028,-0.117z"/>
   <path class="fil0" d="M1.648 0.995c-0.018,0 -0.033,-0.015 -0.033,-0.033 0,-0.019 0.015,-0.034 0.033,-0.034 0.019,0 0.036,-0.007 0.049,-0.02 0.012,-0.013 0.02,-0.031 0.02,-0.05 0,-0.02 -0.008,-0.038 -0.02,-0.051 -0.013,-0.012 -0.03,-0.02 -0.049,-0.02 -0.018,0 -0.033,-0.015 -0.033,-0.034 0,-0.018 0.015,-0.033 0.033,-0.033 0.038,0 0.072,0.016 0.096,0.041 0.025,0.025 0.04,0.059 0.04,0.097 0,0.037 -0.015,0.072 -0.04,0.097 -0.024,0.025 -0.058,0.04 -0.096,0.04z"/>
   <path class="fil0" d="M0.749 0.928c0.019,0 0.034,0.015 0.034,0.034 0,0.018 -0.015,0.033 -0.034,0.033 -0.037,0 -0.071,-0.015 -0.096,-0.04 -0.024,-0.025 -0.039,-0.06 -0.039,-0.097 0,-0.038 0.015,-0.072 0.039,-0.097 0.025,-0.025 0.059,-0.041 0.096,-0.041 0.019,0 0.034,0.015 0.034,0.033 0,0.019 -0.015,0.034 -0.034,0.034 -0.019,0 -0.036,0.008 -0.048,0.02 -0.013,0.013 -0.02,0.031 -0.02,0.051 0,0.019 0.007,0.037 0.02,0.05 0.012,0.013 0.029,0.02 0.048,0.02z"/>
   <path class="fil0" d="M0.753 0.731c0.004,0.018 -0.007,0.036 -0.025,0.04 -0.018,0.004 -0.036,-0.008 -0.04,-0.026 -0.005,-0.022 -0.011,-0.044 -0.018,-0.068 -0.035,-0.119 -0.076,-0.261 0.051,-0.347 0.003,-0.133 0.06,-0.215 0.138,-0.265 0.077,-0.048 0.173,-0.064 0.258,-0.065l0.022 0c0.128,0.001 0.275,0.038 0.395,0.107 0.104,0.061 0.187,0.147 0.219,0.256 0.031,0.105 -0.006,0.274 -0.033,0.397l0 0.002c-0.004,0.018 -0.022,0.03 -0.04,0.026 -0.018,-0.004 -0.029,-0.022 -0.025,-0.04l0 -0.002c0.025,-0.117 0.06,-0.276 0.034,-0.364 -0.027,-0.091 -0.099,-0.164 -0.189,-0.217 -0.109,-0.063 -0.244,-0.097 -0.362,-0.098l-0.019 0c-0.076,0.001 -0.16,0.014 -0.224,0.055 -0.062,0.039 -0.106,0.105 -0.107,0.215l0 0.009c0.001,0.013 -0.006,0.025 -0.017,0.032 -0.102,0.058 -0.066,0.179 -0.037,0.281 0.007,0.026 0.014,0.05 0.019,0.072z"/>
   <path class="fil0" d="M0.907 1.573c-0.016,-0.008 -0.022,-0.029 -0.013,-0.045 0.009,-0.016 0.029,-0.022 0.045,-0.013l0.276 0.152c0.015,0.009 0.021,0.027 0.014,0.043l-0.087 0.197c-0.007,0.017 -0.027,0.025 -0.044,0.017 -0.005,-0.002 -0.008,-0.005 -0.011,-0.008l-0.255 -0.251c-0.014,-0.013 -0.014,-0.034 -0.001,-0.048 0.013,-0.013 0.034,-0.013 0.047,0l0.222 0.219 0.056 -0.125 -0.249 -0.138z"/>
   <path class="fil0" d="M1.459 1.515c0.016,-0.009 0.036,-0.003 0.045,0.013 0.009,0.016 0.003,0.037 -0.013,0.045l-0.249 0.138 0.055 0.125 0.222 -0.219c0.013,-0.013 0.034,-0.013 0.047,0 0.013,0.014 0.013,0.035 0,0.048l-0.255 0.251c-0.003,0.003 -0.007,0.006 -0.011,0.008 -0.017,0.008 -0.037,0 -0.044,-0.017l-0.088 -0.197c-0.007,-0.016 -0.001,-0.034 0.015,-0.043l0.276 -0.152z"/>
   <path class="fil0" d="M4.328 1.332c-0.006,-0.018 0.003,-0.037 0.021,-0.042 0.017,-0.006 0.036,0.003 0.042,0.021 0.062,0.184 0.013,0.299 -0.09,0.374 -0.098,0.069 -0.243,0.099 -0.387,0.117 -0.029,0.003 -0.059,0.006 -0.086,0.009 -0.078,0.008 -0.128,0.013 -0.175,0.041 -0.016,0.009 -0.037,0.003 -0.046,-0.013 -0.009,-0.016 -0.004,-0.036 0.012,-0.045 0.06,-0.035 0.115,-0.04 0.202,-0.049 0.024,-0.003 0.05,-0.005 0.085,-0.01 0.135,-0.016 0.27,-0.043 0.356,-0.105 0.079,-0.057 0.116,-0.148 0.066,-0.298z"/>
   <path class="fil0" d="M4.901 1.311c0.006,-0.018 0.025,-0.027 0.042,-0.021 0.017,0.005 0.027,0.024 0.021,0.042 -0.05,0.15 -0.014,0.241 0.066,0.298 0.086,0.062 0.221,0.089 0.356,0.105 0.034,0.005 0.061,0.007 0.084,0.01 0.162,0.016 0.214,0.022 0.366,0.201 0.012,0.014 0.011,0.035 -0.004,0.047 -0.014,0.012 -0.035,0.01 -0.047,-0.004 -0.134,-0.159 -0.18,-0.163 -0.321,-0.178 -0.027,-0.003 -0.058,-0.006 -0.087,-0.009 -0.143,-0.018 -0.289,-0.048 -0.386,-0.117 -0.104,-0.075 -0.152,-0.19 -0.09,-0.374z"/>
   <path class="fil0" d="M5.129 0.706l0 0.294c0,0.047 -0.013,0.096 -0.034,0.144 -0.023,0.053 -0.057,0.105 -0.095,0.152 -0.048,0.059 -0.104,0.111 -0.167,0.147 -0.058,0.033 -0.121,0.053 -0.187,0.054l0 0c-0.066,-0.001 -0.129,-0.021 -0.187,-0.054 -0.062,-0.036 -0.119,-0.088 -0.167,-0.147 -0.037,-0.047 -0.072,-0.099 -0.095,-0.152 -0.021,-0.048 -0.034,-0.097 -0.034,-0.144l0 -0.302c0.001,-0.057 0.011,-0.12 0.027,-0.175 0.016,-0.058 0.039,-0.11 0.065,-0.141 0.047,-0.06 0.101,-0.088 0.168,-0.098 0.062,-0.009 0.135,-0.001 0.228,0.012 0.102,0.014 0.225,0.047 0.318,0.092 0.083,0.039 0.143,0.09 0.152,0.147 0.003,0.018 0.005,0.051 0.007,0.084l0 0.001c0.001,0.031 0.002,0.063 0.001,0.086zm-0.067 0.294l0 -0.295c0.001,-0.021 0,-0.052 -0.001,-0.082l0 0c-0.001,-0.032 -0.004,-0.062 -0.006,-0.078 -0.005,-0.033 -0.051,-0.067 -0.115,-0.097 -0.086,-0.042 -0.202,-0.073 -0.298,-0.086 -0.087,-0.012 -0.155,-0.02 -0.21,-0.012 -0.05,0.008 -0.089,0.029 -0.125,0.073 -0.02,0.025 -0.039,0.068 -0.053,0.118 -0.014,0.05 -0.023,0.107 -0.024,0.158l0 0.301c0,0.038 0.011,0.077 0.028,0.117 0.021,0.047 0.052,0.094 0.086,0.137 0.043,0.053 0.094,0.1 0.149,0.131 0.048,0.028 0.099,0.044 0.153,0.045 0.054,-0.001 0.106,-0.017 0.154,-0.045 0.055,-0.031 0.105,-0.078 0.148,-0.131 0.034,-0.043 0.065,-0.09 0.086,-0.137 0.018,-0.04 0.028,-0.079 0.028,-0.117z"/>
   <path class="fil0" d="M5.096 0.995c-0.019,0 -0.034,-0.015 -0.034,-0.033 0,-0.019 0.015,-0.034 0.034,-0.034 0.019,0 0.036,-0.007 0.048,-0.02 0.012,-0.013 0.02,-0.031 0.02,-0.05 0,-0.02 -0.008,-0.038 -0.02,-0.051 -0.012,-0.012 -0.029,-0.02 -0.048,-0.02 -0.019,0 -0.034,-0.015 -0.034,-0.034 0,-0.018 0.015,-0.033 0.034,-0.033 0.037,0 0.071,0.016 0.096,0.041 0.024,0.025 0.039,0.059 0.039,0.097 0,0.037 -0.015,0.072 -0.039,0.097 -0.025,0.025 -0.059,0.04 -0.096,0.04z"/>
   <path class="fil0" d="M4.196 0.928c0.019,0 0.034,0.015 0.034,0.034 0,0.018 -0.015,0.033 -0.034,0.033 -0.037,0 -0.071,-0.015 -0.095,-0.04 -0.025,-0.025 -0.04,-0.06 -0.04,-0.097 0,-0.038 0.015,-0.072 0.04,-0.097 0.024,-0.025 0.058,-0.041 0.095,-0.041 0.019,0 0.034,0.015 0.034,0.033 0,0.019 -0.015,0.034 -0.034,0.034 -0.018,0 -0.035,0.008 -0.048,0.02 -0.012,0.013 -0.02,0.031 -0.02,0.051 0,0.019 0.008,0.037 0.02,0.05 0.013,0.013 0.03,0.02 0.048,0.02z"/>
   <path class="fil0" d="M4.201 0.731c0.003,0.018 -0.008,0.036 -0.026,0.04 -0.018,0.004 -0.036,-0.008 -0.04,-0.026 -0.005,-0.022 -0.011,-0.044 -0.018,-0.068 -0.034,-0.119 -0.076,-0.261 0.051,-0.347 0.003,-0.133 0.06,-0.215 0.139,-0.265 0.076,-0.048 0.173,-0.064 0.258,-0.065l0.021 0c0.128,0.001 0.276,0.038 0.395,0.107 0.104,0.061 0.187,0.147 0.219,0.256 0.031,0.105 -0.006,0.274 -0.032,0.397l-0.001 0.002c-0.004,0.018 -0.021,0.03 -0.039,0.026 -0.019,-0.004 -0.03,-0.022 -0.026,-0.04l0 -0.002c0.026,-0.117 0.06,-0.276 0.034,-0.364 -0.026,-0.091 -0.098,-0.164 -0.189,-0.217 -0.109,-0.063 -0.244,-0.097 -0.361,-0.098l-0.02 0c-0.075,0.001 -0.159,0.014 -0.224,0.055 -0.062,0.039 -0.106,0.105 -0.107,0.215l0 0.009c0.001,0.013 -0.005,0.025 -0.017,0.032 -0.101,0.058 -0.066,0.179 -0.037,0.281 0.008,0.026 0.015,0.05 0.02,0.072z"/>
   <path class="fil0" d="M4.354 1.573c-0.016,-0.008 -0.022,-0.029 -0.013,-0.045 0.009,-0.016 0.029,-0.022 0.045,-0.013l0.276 0.152c0.016,0.009 0.022,0.027 0.015,0.043l-0.088 0.197c-0.007,0.017 -0.027,0.025 -0.044,0.017 -0.004,-0.002 -0.008,-0.005 -0.011,-0.008l-0.255 -0.251c-0.013,-0.013 -0.013,-0.034 0,-0.048 0.012,-0.013 0.034,-0.013 0.047,0l0.222 0.219 0.055 -0.125 -0.249 -0.138z"/>
   <path class="fil0" d="M4.906 1.515c0.016,-0.009 0.036,-0.003 0.045,0.013 0.009,0.016 0.003,0.037 -0.013,0.045l-0.249 0.138 0.056 0.125 0.222 -0.219c0.013,-0.013 0.034,-0.013 0.047,0 0.013,0.014 0.012,0.035 -0.001,0.048l-0.255 0.251c-0.003,0.003 -0.007,0.006 -0.011,0.008 -0.017,0.008 -0.037,0 -0.044,-0.017l-0.087 -0.197c-0.007,-0.016 -0.001,-0.034 0.014,-0.043l0.276 -0.152z"/>
  </g>
 </g>
</svg>
