<?xml version="1.0" encoding="UTF-8"?>
<!DOCTYPE svg PUBLIC "-//W3C//DTD SVG 1.1//EN" "http://www.w3.org/Graphics/SVG/1.1/DTD/svg11.dtd">
<!-- Creator: CorelDRAW 2018 (64-Bit) -->
<svg xmlns="http://www.w3.org/2000/svg" xml:space="preserve" width="93px" height="41px" version="1.1" style="shape-rendering:geometricPrecision; text-rendering:geometricPrecision; image-rendering:optimizeQuality; fill-rule:evenodd; clip-rule:evenodd"
viewBox="0 0 6.591 2.92"
 xmlns:xlink="http://www.w3.org/1999/xlink">
 <defs>
  <style type="text/css">
   <![CDATA[
    .fil0 {fill:#A3AEBA;fill-rule:nonzero}
   ]]>
  </style>
 </defs>
 <g id="Layer_x0020_1">
  <metadata id="CorelCorpID_0Corel-Layer"/>
  <g id="_2712824051216">
   <path class="fil0" d="M5.603 0.43c-0.169,0.15 -0.378,0.205 -0.552,0.25 -0.071,0.019 -0.136,0.036 -0.188,0.057l0 0.307c0,0.087 0.05,0.19 0.139,0.282 0.08,0.082 0.19,0.154 0.324,0.194 0.133,-0.04 0.244,-0.112 0.323,-0.194 0.089,-0.092 0.139,-0.195 0.139,-0.282l0 -0.314c-0.01,-0.009 -0.02,-0.017 -0.03,-0.024l-0.002 -0.002c-0.06,-0.046 -0.115,-0.089 -0.153,-0.274zm-0.57 0.182c0.183,-0.048 0.405,-0.106 0.567,-0.278 0.005,-0.006 0.012,-0.01 0.02,-0.011 0.02,-0.003 0.038,0.01 0.041,0.03 0.034,0.214 0.083,0.253 0.138,0.295l0.002 0.001c0.014,0.011 0.029,0.023 0.045,0.037 0.008,0.007 0.013,0.016 0.013,0.028l0 0.33c0,0.105 -0.057,0.226 -0.159,0.331 -0.089,0.092 -0.214,0.172 -0.364,0.216 -0.006,0.002 -0.013,0.003 -0.02,0.001 -0.151,-0.044 -0.276,-0.125 -0.365,-0.217 -0.102,-0.105 -0.159,-0.226 -0.159,-0.331l0 -0.33c0,-0.014 0.008,-0.027 0.021,-0.033 0.061,-0.028 0.137,-0.047 0.22,-0.069z"/>
   <path class="fil0" d="M5.824 1.038c-0.02,0 -0.036,-0.016 -0.036,-0.036 0,-0.019 0.016,-0.035 0.036,-0.035 0.021,0 0.04,-0.009 0.054,-0.023l0 -0.001c0.014,-0.014 0.023,-0.034 0.023,-0.056 0,-0.022 -0.009,-0.043 -0.023,-0.057 -0.014,-0.014 -0.033,-0.023 -0.054,-0.023 -0.02,0 -0.036,-0.016 -0.036,-0.036 0,-0.019 0.016,-0.035 0.036,-0.035 0.041,0 0.078,0.017 0.105,0.044 0.026,0.028 0.043,0.065 0.043,0.107 0,0.041 -0.016,0.079 -0.043,0.106l0 0c-0.027,0.028 -0.064,0.045 -0.105,0.045z"/>
   <path class="fil0" d="M4.828 0.967c0.019,0 0.035,0.016 0.035,0.035 0,0.02 -0.016,0.036 -0.035,0.036 -0.041,0 -0.079,-0.017 -0.106,-0.045 -0.026,-0.027 -0.043,-0.065 -0.043,-0.106 0,-0.042 0.017,-0.079 0.043,-0.107 0.027,-0.027 0.065,-0.044 0.106,-0.044 0.019,0 0.035,0.016 0.035,0.035 0,0.02 -0.016,0.036 -0.035,0.036 -0.022,0 -0.041,0.009 -0.055,0.023 -0.014,0.014 -0.023,0.035 -0.023,0.057 0,0.022 0.009,0.042 0.023,0.057 0.014,0.014 0.033,0.023 0.055,0.023z"/>
   <path class="fil0" d="M5.021 1.784c0.013,0.015 0.011,0.038 -0.004,0.051 -0.015,0.012 -0.037,0.01 -0.05,-0.005 -0.099,-0.116 -0.201,-0.267 -0.273,-0.448 -0.058,-0.143 -0.097,-0.305 -0.101,-0.484 0,-0.018 0,-0.035 0,-0.052 0.008,-0.194 0.084,-0.403 0.207,-0.563 0.126,-0.163 0.301,-0.278 0.506,-0.283 0.012,0 0.025,0 0.036,0 0.232,0.01 0.442,0.1 0.59,0.274 0.133,0.156 0.215,0.379 0.218,0.67 0.001,0.186 -0.036,0.368 -0.094,0.536 -0.072,0.209 -0.177,0.398 -0.282,0.553 -0.06,0.089 -0.107,0.172 -0.113,0.249 -0.006,0.073 0.027,0.144 0.124,0.217 0.016,0.012 0.019,0.034 0.007,0.05 -0.007,0.01 -0.019,0.015 -0.031,0.014 -0.062,-0.004 -0.171,-0.018 -0.264,-0.075 -0.096,-0.059 -0.174,-0.162 -0.166,-0.342 0.007,-0.17 0.057,-0.239 0.108,-0.309l0.001 -0.003c0.034,-0.047 0.068,-0.095 0.086,-0.183 0.006,-0.026 0.01,-0.056 0.012,-0.091 0.002,-0.036 0.003,-0.076 0.001,-0.122 -0.001,-0.019 0.014,-0.036 0.034,-0.037 0.02,0 0.036,0.015 0.037,0.034 0.002,0.049 0.001,0.092 -0.001,0.129 -0.003,0.038 -0.007,0.072 -0.013,0.101 -0.021,0.103 -0.06,0.157 -0.098,0.211l-0.002 0.002c-0.044,0.062 -0.088,0.123 -0.094,0.271 -0.007,0.148 0.055,0.231 0.132,0.278 0.039,0.024 0.082,0.039 0.123,0.049 -0.054,-0.065 -0.072,-0.131 -0.067,-0.2 0.007,-0.092 0.059,-0.185 0.125,-0.282 0.102,-0.152 0.204,-0.335 0.274,-0.537 0.056,-0.161 0.091,-0.335 0.09,-0.513 -0.003,-0.273 -0.079,-0.48 -0.201,-0.624 -0.135,-0.158 -0.326,-0.24 -0.538,-0.249 -0.011,0 -0.022,0 -0.032,0 -0.182,0.004 -0.338,0.108 -0.451,0.255 -0.115,0.149 -0.185,0.343 -0.193,0.523 0,0.016 0,0.032 0,0.047 0.004,0.17 0.041,0.324 0.095,0.46 0.07,0.172 0.168,0.316 0.262,0.428z"/>
   <path class="fil0" d="M5.035 1.455c-0.006,-0.018 0.004,-0.038 0.022,-0.045 0.019,-0.006 0.039,0.004 0.045,0.023 0.069,0.204 0.015,0.331 -0.099,0.412 -0.108,0.077 -0.269,0.11 -0.427,0.13 -0.033,0.004 -0.066,0.007 -0.096,0.01 -0.156,0.016 -0.208,0.022 -0.357,0.198 -0.013,0.015 -0.035,0.017 -0.05,0.004 -0.015,-0.012 -0.017,-0.035 -0.004,-0.05 0.168,-0.198 0.226,-0.204 0.404,-0.222 0.026,-0.003 0.055,-0.006 0.094,-0.011 0.149,-0.018 0.299,-0.048 0.395,-0.117 0.088,-0.063 0.129,-0.165 0.073,-0.332z"/>
   <path class="fil0" d="M5.818 1.923c-0.019,-0.005 -0.029,-0.025 -0.024,-0.044 0.006,-0.019 0.026,-0.029 0.044,-0.023 0.038,0.011 0.078,0.02 0.119,0.028 0.041,0.008 0.084,0.014 0.127,0.019 0.039,0.005 0.068,0.008 0.094,0.011 0.178,0.018 0.237,0.024 0.405,0.222 0.012,0.015 0.01,0.038 -0.005,0.05 -0.015,0.013 -0.037,0.011 -0.05,-0.004 -0.149,-0.176 -0.2,-0.181 -0.357,-0.198 -0.03,-0.003 -0.063,-0.006 -0.095,-0.01 -0.044,-0.005 -0.088,-0.012 -0.132,-0.02 -0.043,-0.008 -0.086,-0.018 -0.126,-0.031z"/>
   <path class="fil0" d="M5.54 1.461c0.005,-0.019 0.025,-0.03 0.044,-0.024 0.019,0.005 0.03,0.025 0.024,0.044 -0.01,0.034 -0.015,0.065 -0.017,0.094 -0.002,0.028 0,0.054 0.005,0.076 0.004,0.019 -0.008,0.038 -0.027,0.043 -0.019,0.004 -0.038,-0.008 -0.042,-0.027 -0.007,-0.03 -0.009,-0.062 -0.007,-0.096 0.002,-0.034 0.008,-0.071 0.02,-0.11z"/>
   <path class="fil0" d="M5.641 2.287c-0.019,0.004 -0.038,-0.009 -0.042,-0.028 -0.003,-0.019 0.009,-0.038 0.029,-0.041 0.122,-0.023 0.236,-0.06 0.338,-0.108 0.104,-0.048 0.196,-0.108 0.272,-0.177 0.014,-0.013 0.037,-0.012 0.05,0.003 0.013,0.014 0.012,0.037 -0.003,0.05 -0.081,0.073 -0.179,0.137 -0.289,0.188 -0.108,0.051 -0.227,0.089 -0.355,0.113z"/>
   <path class="fil0" d="M4.366 1.987c-0.015,-0.013 -0.016,-0.036 -0.003,-0.05 0.013,-0.015 0.036,-0.016 0.05,-0.003 0.108,0.096 0.246,0.175 0.404,0.229 0.153,0.053 0.326,0.083 0.508,0.083l0.025 -0.001 0.025 0c0.019,-0.001 0.036,0.015 0.036,0.034 0.001,0.02 -0.015,0.036 -0.034,0.037l-0.052 0.001c-0.19,0 -0.37,-0.031 -0.531,-0.086 -0.168,-0.058 -0.314,-0.142 -0.428,-0.244z"/>
   <path class="fil0" d="M1.025 1.546c-0.007,-0.018 0.004,-0.038 0.022,-0.045 0.019,-0.006 0.039,0.004 0.045,0.023 0.072,0.213 0.016,0.346 -0.104,0.431 -0.112,0.081 -0.282,0.116 -0.448,0.136 -0.034,0.005 -0.069,0.008 -0.1,0.011 -0.166,0.017 -0.22,0.023 -0.377,0.209 -0.013,0.015 -0.035,0.017 -0.05,0.004 -0.015,-0.012 -0.017,-0.035 -0.005,-0.05 0.177,-0.208 0.238,-0.214 0.424,-0.233 0.028,-0.003 0.059,-0.006 0.099,-0.011 0.157,-0.02 0.315,-0.051 0.416,-0.123 0.094,-0.068 0.137,-0.175 0.078,-0.352z"/>
   <path class="fil0" d="M1.692 1.524c0.006,-0.019 0.027,-0.029 0.045,-0.023 0.019,0.007 0.029,0.027 0.023,0.045 -0.06,0.177 -0.017,0.284 0.077,0.352 0.101,0.072 0.259,0.103 0.416,0.123 0.04,0.005 0.071,0.008 0.099,0.011 0.137,0.014 0.206,0.021 0.303,0.106l0 0.05c0,0.013 -0.005,0.026 -0.014,0.035 -0.102,-0.101 -0.162,-0.107 -0.296,-0.121 -0.032,-0.003 -0.067,-0.006 -0.101,-0.011 -0.166,-0.02 -0.335,-0.055 -0.448,-0.136 -0.119,-0.085 -0.176,-0.218 -0.104,-0.431z"/>
   <path class="fil0" d="M0.905 0.819l0 0.342c0,0.044 0.012,0.091 0.033,0.137 0.025,0.056 0.061,0.111 0.101,0.161 0.05,0.062 0.109,0.117 0.173,0.154 0.057,0.032 0.118,0.051 0.181,0.052 0.063,-0.001 0.124,-0.02 0.18,-0.052 0.065,-0.037 0.124,-0.092 0.174,-0.154 0.04,-0.05 0.076,-0.105 0.101,-0.161 0.02,-0.046 0.033,-0.093 0.033,-0.137l0 -0.35c-0.001,-0.06 -0.012,-0.126 -0.028,-0.185 -0.017,-0.059 -0.039,-0.11 -0.062,-0.138 -0.021,-0.026 -0.043,-0.045 -0.066,-0.059l-0.002 -0.001c-0.023,-0.013 -0.048,-0.021 -0.075,-0.026 -0.022,-0.004 -0.044,-0.005 -0.068,-0.005 -0.145,0 -0.309,0.067 -0.439,0.153 -0.129,0.085 -0.223,0.186 -0.235,0.257 -0.001,0.004 -0.001,0.008 -0.001,0.012zm-0.071 0.342l0 -0.342c0,-0.007 0,-0.015 0.002,-0.023 0.015,-0.091 0.122,-0.21 0.265,-0.305 0.141,-0.093 0.319,-0.165 0.479,-0.165 0.027,0 0.053,0.002 0.079,0.006 0.036,0.006 0.069,0.017 0.099,0.034l0.003 0.001c0.03,0.018 0.059,0.043 0.085,0.076 0.029,0.036 0.056,0.096 0.075,0.164 0.018,0.064 0.03,0.136 0.031,0.203l0 0.351c0,0.055 -0.015,0.111 -0.039,0.166 -0.027,0.062 -0.067,0.122 -0.111,0.176 -0.055,0.069 -0.121,0.129 -0.193,0.171 -0.067,0.038 -0.139,0.061 -0.215,0.062l-0.001 0c-0.077,-0.001 -0.149,-0.024 -0.216,-0.062 -0.073,-0.042 -0.138,-0.102 -0.194,-0.171 -0.043,-0.054 -0.083,-0.114 -0.11,-0.176 -0.024,-0.055 -0.039,-0.111 -0.039,-0.166z"/>
   <path class="fil0" d="M1.916 1.152c-0.02,0 -0.036,-0.016 -0.036,-0.035 0,-0.02 0.016,-0.036 0.036,-0.036 0.023,0 0.044,-0.009 0.058,-0.025 0.016,-0.015 0.025,-0.037 0.025,-0.061 0,-0.024 -0.009,-0.045 -0.025,-0.061 -0.014,-0.015 -0.035,-0.024 -0.058,-0.024 -0.02,0 -0.036,-0.016 -0.036,-0.036 0,-0.02 0.016,-0.036 0.036,-0.036 0.043,0 0.081,0.018 0.109,0.047 0.028,0.028 0.045,0.067 0.045,0.11 0,0.043 -0.017,0.083 -0.045,0.111 -0.028,0.029 -0.066,0.046 -0.109,0.046z"/>
   <path class="fil0" d="M0.869 1.081c0.02,0 0.036,0.016 0.036,0.036 0,0.019 -0.016,0.035 -0.036,0.035 -0.043,0 -0.081,-0.017 -0.109,-0.046 -0.028,-0.028 -0.045,-0.068 -0.045,-0.111 0,-0.043 0.017,-0.082 0.045,-0.11 0.028,-0.029 0.066,-0.047 0.109,-0.047 0.02,0 0.036,0.016 0.036,0.036 0,0.02 -0.016,0.036 -0.036,0.036 -0.023,0 -0.044,0.009 -0.058,0.024 -0.016,0.016 -0.025,0.037 -0.025,0.061 0,0.024 0.009,0.046 0.025,0.061 0.014,0.016 0.035,0.025 0.058,0.025z"/>
   <path class="fil0" d="M2.034 0.936c-0.011,0.016 -0.033,0.019 -0.049,0.008 -0.016,-0.012 -0.019,-0.034 -0.008,-0.05 0.026,-0.035 0.045,-0.077 0.057,-0.122 0.021,-0.079 0.02,-0.167 -0.003,-0.248 -0.023,-0.081 -0.069,-0.154 -0.139,-0.206 -0.035,-0.025 -0.075,-0.044 -0.122,-0.057 -0.013,-0.003 -0.022,-0.013 -0.025,-0.024 -0.025,-0.068 -0.054,-0.109 -0.096,-0.133 -0.044,-0.026 -0.107,-0.034 -0.197,-0.033 -0.078,0.001 -0.164,0.014 -0.247,0.039 -0.078,0.024 -0.153,0.058 -0.217,0.102 -0.106,0.073 -0.182,0.191 -0.216,0.32 -0.034,0.126 -0.027,0.262 0.031,0.374 0.009,0.018 0.003,0.039 -0.015,0.048 -0.017,0.009 -0.039,0.002 -0.048,-0.015 -0.067,-0.128 -0.075,-0.282 -0.037,-0.425 0.038,-0.145 0.124,-0.278 0.245,-0.36 0.07,-0.048 0.152,-0.086 0.237,-0.112 0.089,-0.027 0.181,-0.041 0.266,-0.042 0.103,-0.001 0.176,0.01 0.233,0.042 0.055,0.031 0.092,0.08 0.122,0.155 0.048,0.015 0.09,0.037 0.127,0.064 0.084,0.061 0.139,0.149 0.166,0.243 0.027,0.094 0.027,0.196 0.003,0.286 -0.014,0.053 -0.037,0.103 -0.068,0.146z"/>
   <path class="fil0" d="M1.958 2.014c-0.076,0.071 -0.164,0.128 -0.262,0.167 -0.094,0.037 -0.197,0.057 -0.304,0.057 -0.107,0 -0.21,-0.02 -0.304,-0.058 -0.098,-0.039 -0.187,-0.095 -0.262,-0.166l0.049 -0.052c0.069,0.065 0.15,0.117 0.239,0.152 0.086,0.034 0.18,0.053 0.278,0.053 0.098,0 0.192,-0.019 0.278,-0.053 0.089,-0.035 0.17,-0.087 0.239,-0.152l0.049 0.052z"/>
   <path class="fil0" d="M2.62 2.007c0,-0.019 0.004,-0.035 0.011,-0.048 0.009,-0.015 0.021,-0.025 0.036,-0.031 0.013,-0.004 0.028,-0.004 0.043,0 0.015,0.004 0.031,0.013 0.045,0.027l0.408 0.408c0.016,0.017 0.023,0.038 0.023,0.059 0,0.023 -0.008,0.045 -0.025,0.062l-0.406 0.406c-0.013,0.013 -0.029,0.023 -0.045,0.027l-0.002 0.001c-0.014,0.003 -0.028,0.003 -0.041,-0.001 -0.015,-0.006 -0.027,-0.016 -0.036,-0.031 -0.007,-0.013 -0.011,-0.029 -0.011,-0.048l0 -0.181c0,-0.004 -0.002,-0.009 -0.005,-0.012 -0.003,-0.003 -0.008,-0.005 -0.012,-0.005l-0.373 0c-0.024,0 -0.046,-0.01 -0.062,-0.026 -0.016,-0.015 -0.026,-0.038 -0.026,-0.062l0 -0.259c0,-0.024 0.01,-0.047 0.026,-0.062 0.016,-0.016 0.038,-0.026 0.062,-0.026l0.373 0c0.004,0 0.009,-0.002 0.012,-0.005 0.003,-0.003 0.005,-0.008 0.005,-0.012l0 -0.181zm0.072 -0.01c-0.001,0.002 -0.001,0.006 -0.001,0.01l0 0.181c0,0.024 -0.01,0.046 -0.026,0.062 -0.016,0.016 -0.038,0.026 -0.062,0.026l-0.373 0c-0.005,0 -0.009,0.002 -0.012,0.005 -0.003,0.003 -0.005,0.007 -0.005,0.012l0 0.259c0,0.005 0.002,0.009 0.005,0.012 0.003,0.003 0.007,0.005 0.012,0.005l0.373 0c0.024,0 0.046,0.01 0.062,0.026 0.016,0.016 0.026,0.038 0.026,0.062l0 0.181c0,0.004 0,0.008 0.001,0.01 0.004,-0.001 0.008,-0.004 0.013,-0.008l0.405 -0.406c0.004,-0.003 0.005,-0.007 0.005,-0.012 0,-0.003 -0.001,-0.007 -0.004,-0.01l-0.406 -0.407c-0.005,-0.004 -0.009,-0.007 -0.013,-0.008z"/>
  </g>
 </g>
</svg>
