<?xml version="1.0" encoding="UTF-8"?>
<!DOCTYPE svg PUBLIC "-//W3C//DTD SVG 1.1//EN" "http://www.w3.org/Graphics/SVG/1.1/DTD/svg11.dtd">
<!-- Creator: CorelDRAW 2018 (64-Bit) -->
<svg xmlns="http://www.w3.org/2000/svg" xml:space="preserve" width="93px" height="41px" version="1.1" style="shape-rendering:geometricPrecision; text-rendering:geometricPrecision; image-rendering:optimizeQuality; fill-rule:evenodd; clip-rule:evenodd"
viewBox="0 0 6.591 2.92"
 xmlns:xlink="http://www.w3.org/1999/xlink">
 <defs>
  <style type="text/css">
   <![CDATA[
    .fil0 {fill:#A3AEBA;fill-rule:nonzero}
   ]]>
  </style>
 </defs>
 <g id="Layer_x0020_1">
  <metadata id="CorelCorpID_0Corel-Layer"/>
  <g id="_2712824979280">
   <path class="fil0" d="M1.025 1.546c-0.007,-0.018 0.004,-0.038 0.022,-0.045 0.019,-0.006 0.039,0.004 0.045,0.023 0.072,0.213 0.016,0.346 -0.104,0.431 -0.112,0.081 -0.282,0.115 -0.448,0.136 -0.034,0.005 -0.069,0.008 -0.1,0.011 -0.166,0.017 -0.22,0.023 -0.377,0.209 -0.013,0.015 -0.035,0.017 -0.05,0.004 -0.015,-0.013 -0.017,-0.035 -0.005,-0.05 0.177,-0.208 0.238,-0.214 0.424,-0.233 0.028,-0.003 0.059,-0.006 0.099,-0.011 0.157,-0.02 0.315,-0.051 0.416,-0.123 0.094,-0.068 0.137,-0.175 0.078,-0.352z"/>
   <path class="fil0" d="M1.692 1.524c0.006,-0.019 0.027,-0.029 0.045,-0.023 0.019,0.007 0.029,0.027 0.023,0.045 -0.06,0.177 -0.017,0.284 0.077,0.352 0.101,0.072 0.259,0.103 0.416,0.123 0.04,0.005 0.071,0.008 0.099,0.011 0.069,0.007 0.121,0.012 0.168,0.027l-0.059 0.059c-0.033,-0.007 -0.071,-0.011 -0.116,-0.016 -0.032,-0.003 -0.067,-0.006 -0.101,-0.011 -0.166,-0.021 -0.335,-0.055 -0.448,-0.136 -0.119,-0.085 -0.176,-0.218 -0.104,-0.431z"/>
   <path class="fil0" d="M0.905 0.819l0 0.342c0,0.044 0.012,0.091 0.033,0.137 0.025,0.056 0.061,0.111 0.101,0.161 0.05,0.062 0.109,0.117 0.173,0.154 0.057,0.032 0.118,0.051 0.181,0.052 0.063,-0.001 0.124,-0.02 0.18,-0.052 0.065,-0.037 0.124,-0.092 0.174,-0.154 0.04,-0.05 0.076,-0.105 0.101,-0.161 0.02,-0.046 0.033,-0.093 0.033,-0.137l0 -0.35c-0.001,-0.06 -0.012,-0.126 -0.028,-0.185 -0.017,-0.059 -0.039,-0.11 -0.062,-0.138 -0.021,-0.026 -0.043,-0.045 -0.066,-0.059l-0.002 -0.001c-0.023,-0.013 -0.048,-0.021 -0.075,-0.026 -0.022,-0.004 -0.044,-0.005 -0.068,-0.005 -0.145,0 -0.309,0.067 -0.439,0.153 -0.129,0.085 -0.223,0.186 -0.235,0.257 -0.001,0.004 -0.001,0.008 -0.001,0.012zm-0.071 0.342l0 -0.342c0,-0.007 0,-0.015 0.002,-0.023 0.015,-0.091 0.122,-0.21 0.265,-0.305 0.141,-0.093 0.319,-0.165 0.479,-0.165 0.027,0 0.053,0.002 0.079,0.006 0.036,0.006 0.069,0.017 0.099,0.034l0.003 0.001c0.03,0.018 0.059,0.043 0.085,0.076 0.029,0.036 0.056,0.096 0.075,0.164 0.018,0.064 0.03,0.136 0.031,0.203l0 0.351c0,0.055 -0.015,0.111 -0.039,0.166 -0.027,0.062 -0.067,0.122 -0.111,0.176 -0.055,0.069 -0.121,0.129 -0.193,0.171 -0.067,0.038 -0.139,0.061 -0.215,0.062l-0.001 0c-0.077,-0.001 -0.149,-0.024 -0.216,-0.062 -0.073,-0.042 -0.138,-0.102 -0.194,-0.171 -0.043,-0.054 -0.083,-0.114 -0.11,-0.176 -0.024,-0.055 -0.039,-0.111 -0.039,-0.166z"/>
   <path class="fil0" d="M1.916 1.152c-0.02,0 -0.036,-0.016 -0.036,-0.035 0,-0.02 0.016,-0.036 0.036,-0.036 0.023,0 0.044,-0.009 0.058,-0.025 0.016,-0.015 0.025,-0.037 0.025,-0.061 0,-0.024 -0.009,-0.045 -0.025,-0.061 -0.014,-0.015 -0.035,-0.024 -0.058,-0.024 -0.02,0 -0.036,-0.016 -0.036,-0.036 0,-0.02 0.016,-0.036 0.036,-0.036 0.043,0 0.081,0.018 0.109,0.047 0.028,0.028 0.045,0.067 0.045,0.11 0,0.043 -0.017,0.083 -0.045,0.111 -0.028,0.029 -0.066,0.046 -0.109,0.046z"/>
   <path class="fil0" d="M0.869 1.081c0.02,0 0.036,0.016 0.036,0.036 0,0.019 -0.016,0.035 -0.036,0.035 -0.043,0 -0.081,-0.017 -0.109,-0.046 -0.028,-0.028 -0.045,-0.068 -0.045,-0.111 0,-0.043 0.017,-0.082 0.045,-0.11 0.028,-0.029 0.066,-0.047 0.109,-0.047 0.02,0 0.036,0.016 0.036,0.036 0,0.02 -0.016,0.036 -0.036,0.036 -0.023,0 -0.044,0.009 -0.058,0.024 -0.016,0.016 -0.025,0.037 -0.025,0.061 0,0.024 0.009,0.046 0.025,0.061 0.014,0.016 0.035,0.025 0.058,0.025z"/>
   <path class="fil0" d="M2.034 0.936c-0.011,0.016 -0.033,0.019 -0.049,0.008 -0.016,-0.012 -0.019,-0.034 -0.008,-0.05 0.026,-0.035 0.045,-0.077 0.057,-0.122 0.021,-0.079 0.02,-0.167 -0.003,-0.248 -0.023,-0.081 -0.069,-0.154 -0.139,-0.206 -0.035,-0.025 -0.075,-0.044 -0.122,-0.057 -0.013,-0.003 -0.022,-0.013 -0.025,-0.024 -0.025,-0.068 -0.054,-0.109 -0.096,-0.133 -0.044,-0.026 -0.107,-0.034 -0.197,-0.033 -0.078,0.001 -0.164,0.014 -0.247,0.039 -0.078,0.024 -0.153,0.058 -0.217,0.102 -0.106,0.073 -0.182,0.191 -0.216,0.32 -0.034,0.126 -0.027,0.262 0.031,0.374 0.009,0.018 0.003,0.039 -0.015,0.048 -0.017,0.009 -0.039,0.002 -0.048,-0.015 -0.067,-0.128 -0.075,-0.282 -0.037,-0.425 0.038,-0.145 0.124,-0.278 0.245,-0.36 0.07,-0.049 0.152,-0.086 0.237,-0.112 0.089,-0.027 0.181,-0.041 0.266,-0.042 0.103,-0.001 0.176,0.01 0.233,0.042 0.055,0.031 0.092,0.08 0.122,0.155 0.048,0.015 0.09,0.037 0.127,0.064 0.084,0.061 0.139,0.149 0.166,0.243 0.027,0.094 0.027,0.196 0.003,0.286 -0.014,0.053 -0.037,0.103 -0.068,0.146z"/>
   <path class="fil0" d="M1.958 2.014c-0.076,0.071 -0.164,0.128 -0.262,0.167 -0.094,0.037 -0.197,0.057 -0.304,0.057 -0.107,0 -0.21,-0.02 -0.304,-0.058 -0.098,-0.039 -0.187,-0.095 -0.262,-0.166l0.049 -0.052c0.069,0.065 0.15,0.117 0.239,0.152 0.086,0.034 0.18,0.053 0.278,0.053 0.098,0 0.192,-0.019 0.278,-0.053 0.089,-0.035 0.17,-0.087 0.239,-0.152l0.049 0.052z"/>
   <path class="fil0" d="M2.637 2.007c0,-0.004 0,-0.008 -0.001,-0.011 -0.004,0.002 -0.008,0.005 -0.012,0.009l-0.407 0.407c-0.003,0.003 -0.004,0.007 -0.004,0.01 0,0.005 0.002,0.009 0.005,0.012l0.406 0.406c0.004,0.004 0.008,0.007 0.012,0.008 0.001,-0.002 0.001,-0.006 0.001,-0.01l0 -0.181c0,-0.024 0.01,-0.046 0.026,-0.062 0.016,-0.016 0.038,-0.026 0.062,-0.026l0.373 0c0.005,0 0.009,-0.002 0.012,-0.005 0.003,-0.003 0.005,-0.007 0.005,-0.012l0 -0.259c0,-0.005 -0.002,-0.009 -0.005,-0.012 -0.003,-0.003 -0.007,-0.005 -0.012,-0.005l-0.373 0c-0.024,0 -0.046,-0.01 -0.062,-0.026 -0.016,-0.016 -0.026,-0.038 -0.026,-0.062l0 -0.181zm0.06 -0.048c0.007,0.013 0.011,0.029 0.011,0.048l0 0.181c0,0.004 0.002,0.009 0.005,0.012 0.004,0.003 0.008,0.005 0.012,0.005l0.373 0c0.024,0 0.047,0.01 0.062,0.025 0.016,0.016 0.026,0.039 0.026,0.063l0 0.259c0,0.024 -0.01,0.047 -0.026,0.062 -0.015,0.016 -0.038,0.026 -0.062,0.026l-0.373 0c-0.004,0 -0.008,0.002 -0.012,0.005 -0.003,0.003 -0.005,0.008 -0.005,0.012l0 0.181c0,0.019 -0.004,0.035 -0.011,0.048 -0.008,0.015 -0.021,0.025 -0.035,0.031 -0.014,0.004 -0.028,0.004 -0.042,0.001l-0.002 -0.001c-0.015,-0.004 -0.031,-0.014 -0.045,-0.027l-0.405 -0.406c-0.018,-0.017 -0.026,-0.039 -0.026,-0.062 0,-0.021 0.008,-0.042 0.023,-0.059l0.408 -0.408c0.014,-0.014 0.03,-0.023 0.045,-0.027 0.015,-0.004 0.03,-0.004 0.044,0 0.014,0.005 0.027,0.016 0.035,0.031z"/>
   <path class="fil0" d="M4.831 1.546c-0.006,-0.018 0.004,-0.038 0.023,-0.045 0.018,-0.006 0.039,0.004 0.045,0.023 0.072,0.213 0.015,0.346 -0.104,0.431 -0.113,0.081 -0.282,0.115 -0.448,0.136 -0.034,0.005 -0.069,0.008 -0.101,0.011 -0.165,0.017 -0.219,0.023 -0.377,0.209 -0.012,0.015 -0.035,0.017 -0.05,0.004 -0.015,-0.013 -0.017,-0.035 -0.004,-0.05 0.176,-0.208 0.237,-0.214 0.424,-0.233 0.028,-0.003 0.059,-0.006 0.099,-0.011 0.157,-0.02 0.315,-0.051 0.416,-0.123 0.094,-0.068 0.137,-0.175 0.077,-0.352z"/>
   <path class="fil0" d="M5.499 1.524c0.006,-0.019 0.026,-0.029 0.045,-0.023 0.018,0.007 0.029,0.027 0.022,0.045 -0.059,0.177 -0.016,0.284 0.078,0.352 0.101,0.072 0.259,0.103 0.416,0.123 0.04,0.005 0.071,0.008 0.099,0.011 0.186,0.019 0.247,0.025 0.424,0.233 0.012,0.015 0.01,0.037 -0.005,0.05 -0.015,0.013 -0.037,0.011 -0.05,-0.004 -0.157,-0.186 -0.211,-0.192 -0.377,-0.209 -0.031,-0.003 -0.066,-0.006 -0.1,-0.011 -0.167,-0.021 -0.336,-0.055 -0.448,-0.136 -0.12,-0.085 -0.176,-0.218 -0.104,-0.431z"/>
   <path class="fil0" d="M5.758 0.819l0 0.342c0,0.055 -0.014,0.111 -0.039,0.166 -0.027,0.062 -0.067,0.122 -0.11,0.176 -0.056,0.069 -0.121,0.129 -0.194,0.171 -0.067,0.038 -0.139,0.061 -0.215,0.062l-0.001 0c-0.077,-0.001 -0.149,-0.024 -0.216,-0.062 -0.072,-0.042 -0.138,-0.102 -0.193,-0.171 -0.044,-0.054 -0.083,-0.114 -0.111,-0.176 -0.024,-0.055 -0.039,-0.111 -0.039,-0.166l0 -0.351c0.001,-0.067 0.013,-0.139 0.031,-0.203 0.019,-0.068 0.046,-0.128 0.075,-0.164 0.055,-0.068 0.116,-0.101 0.194,-0.112 0.072,-0.011 0.157,-0.002 0.264,0.013 0.119,0.017 0.262,0.056 0.37,0.107 0.095,0.046 0.165,0.104 0.175,0.17 0.003,0.02 0.006,0.058 0.008,0.097l0 0.001c0.001,0.036 0.002,0.074 0.001,0.1zm-0.071 0.342l0 -0.344c0.001,-0.023 0,-0.06 -0.001,-0.095l0 -0.001c-0.002,-0.036 -0.005,-0.071 -0.007,-0.09 -0.006,-0.039 -0.061,-0.08 -0.136,-0.116 -0.101,-0.048 -0.236,-0.085 -0.348,-0.1 -0.102,-0.015 -0.181,-0.023 -0.245,-0.014 -0.059,0.009 -0.106,0.034 -0.149,0.087 -0.023,0.028 -0.045,0.079 -0.061,0.138 -0.017,0.059 -0.028,0.125 -0.029,0.185l0 0.35c0,0.044 0.013,0.091 0.033,0.137 0.025,0.056 0.061,0.111 0.101,0.161 0.051,0.062 0.109,0.116 0.174,0.154 0.056,0.032 0.117,0.051 0.18,0.052 0.064,-0.001 0.124,-0.02 0.181,-0.052 0.064,-0.038 0.123,-0.092 0.173,-0.154 0.04,-0.05 0.076,-0.105 0.101,-0.161 0.021,-0.046 0.033,-0.093 0.033,-0.137z"/>
   <path class="fil0" d="M5.723 1.152c-0.02,0 -0.036,-0.016 -0.036,-0.035 0,-0.02 0.016,-0.036 0.036,-0.036 0.023,0 0.043,-0.009 0.058,-0.025 0.015,-0.015 0.025,-0.037 0.025,-0.061 0,-0.024 -0.01,-0.045 -0.025,-0.061 -0.015,-0.015 -0.035,-0.024 -0.058,-0.024 -0.02,0 -0.036,-0.016 -0.036,-0.036 0,-0.02 0.016,-0.036 0.036,-0.036 0.042,0 0.081,0.018 0.109,0.047 0.028,0.028 0.045,0.067 0.045,0.11 0,0.043 -0.017,0.083 -0.045,0.111 -0.028,0.029 -0.067,0.046 -0.109,0.046z"/>
   <path class="fil0" d="M4.676 1.081c0.019,0 0.035,0.016 0.035,0.036 0,0.019 -0.016,0.035 -0.035,0.035 -0.043,0 -0.082,-0.017 -0.11,-0.046 -0.027,-0.028 -0.045,-0.068 -0.045,-0.111 0,-0.043 0.018,-0.082 0.045,-0.11 0.028,-0.029 0.067,-0.047 0.11,-0.047 0.019,0 0.035,0.016 0.035,0.036 0,0.02 -0.016,0.036 -0.035,0.036 -0.023,0 -0.044,0.009 -0.059,0.024 -0.015,0.016 -0.024,0.037 -0.024,0.061 0,0.024 0.009,0.046 0.024,0.061 0.015,0.016 0.036,0.025 0.059,0.025z"/>
   <path class="fil0" d="M4.677 0.848c0.004,0.02 -0.008,0.039 -0.027,0.043 -0.019,0.004 -0.038,-0.008 -0.042,-0.027 -0.006,-0.026 -0.014,-0.052 -0.022,-0.08 -0.04,-0.138 -0.087,-0.303 0.06,-0.401 0.003,-0.155 0.069,-0.25 0.16,-0.307 0.088,-0.056 0.2,-0.074 0.299,-0.076l0.024 0c0.149,0.001 0.32,0.044 0.458,0.125 0.121,0.07 0.217,0.169 0.254,0.296 0.036,0.12 -0.007,0.317 -0.038,0.46l0 0.003c-0.004,0.019 -0.023,0.031 -0.043,0.027 -0.019,-0.004 -0.031,-0.023 -0.027,-0.042l0.001 -0.003c0.029,-0.136 0.069,-0.322 0.039,-0.426 -0.031,-0.107 -0.115,-0.192 -0.221,-0.254 -0.128,-0.074 -0.286,-0.114 -0.423,-0.115l-0.023 0c-0.088,0.002 -0.187,0.017 -0.263,0.065 -0.072,0.046 -0.125,0.124 -0.126,0.253l0 0.011c0.001,0.013 -0.005,0.027 -0.018,0.034 -0.12,0.069 -0.079,0.212 -0.044,0.331 0.008,0.03 0.017,0.058 0.022,0.083z"/>
   <path class="fil0" d="M4.861 1.826c-0.017,-0.01 -0.023,-0.031 -0.014,-0.048 0.009,-0.018 0.031,-0.024 0.048,-0.014l0.321 0.177c0.017,0.009 0.023,0.029 0.016,0.045l-0.102 0.23c-0.008,0.018 -0.029,0.026 -0.047,0.018 -0.005,-0.002 -0.009,-0.005 -0.012,-0.009l-0.297 -0.292c-0.014,-0.014 -0.014,-0.037 0,-0.051 0.013,-0.014 0.036,-0.014 0.05,0l0.262 0.258 0.068 -0.153 -0.293 -0.161z"/>
   <path class="fil0" d="M5.503 1.764c0.017,-0.01 0.039,-0.004 0.049,0.014 0.009,0.017 0.003,0.038 -0.015,0.048l-0.292 0.161 0.068 0.153 0.262 -0.258c0.014,-0.014 0.036,-0.014 0.05,0 0.014,0.014 0.013,0.037 -0.001,0.051l-0.297 0.292c-0.003,0.004 -0.007,0.007 -0.012,0.009 -0.018,0.008 -0.039,0 -0.047,-0.018l-0.101 -0.23c-0.008,-0.016 -0.001,-0.036 0.015,-0.045l0.321 -0.177z"/>
  </g>
 </g>
</svg>
