<?xml version="1.0" encoding="UTF-8"?>
<!DOCTYPE svg PUBLIC "-//W3C//DTD SVG 1.1//EN" "http://www.w3.org/Graphics/SVG/1.1/DTD/svg11.dtd">
<!-- Creator: CorelDRAW 2018 (64-Bit) -->
<svg xmlns="http://www.w3.org/2000/svg" xml:space="preserve" width="49px" height="56px" version="1.1" style="shape-rendering:geometricPrecision; text-rendering:geometricPrecision; image-rendering:optimizeQuality; fill-rule:evenodd; clip-rule:evenodd"
viewBox="0 0 1.889 2.175"
 xmlns:xlink="http://www.w3.org/1999/xlink">
 <defs>
  <style type="text/css">
   <![CDATA[
    .fil0 {fill:#A3AEBA;fill-rule:nonzero}
   ]]>
  </style>
 </defs>
 <g id="Layer_x0020_1">
  <metadata id="CorelCorpID_0Corel-Layer"/>
  <g id="_2712824787552">
   <path class="fil0" d="M0.944 1.887l0.692 -0.4 0 -0.799 -0.692 -0.4 -0.692 0.4 0 0.799 0.692 0.4zm0.366 -0.167l-0.355 0.205c-0.006,0.004 -0.014,0.004 -0.02,0.001l-0.71 -0.41c-0.007,-0.003 -0.012,-0.01 -0.012,-0.018l0 -0.821c0.001,-0.007 0.004,-0.014 0.01,-0.017l0.711 -0.411c0.006,-0.003 0.014,-0.004 0.02,0l0.71 0.41c0.007,0.003 0.011,0.01 0.011,0.018l0 0.821c0,0.007 -0.003,0.013 -0.01,0.017l-0.355 0.205z"/>
   <path class="fil0" d="M0.217 1.487l0.711 -1.231c0.005,-0.009 0.017,-0.012 0.026,-0.007 0.003,0.002 0.006,0.004 0.007,0.007l0.712 1.232c0.005,0.01 0.002,0.022 -0.007,0.027 -0.004,0.002 -0.007,0.002 -0.01,0.002l-1.423 0.001c-0.011,0 -0.02,-0.009 -0.02,-0.02 0,-0.004 0.002,-0.008 0.004,-0.011zm0.727 -1.182l-0.678 1.174 1.356 0 -0.678 -1.174z"/>
   <path class="fil0" d="M0.964 1.909c0,0.011 -0.009,0.019 -0.02,0.019 -0.01,0 -0.019,-0.008 -0.019,-0.019l0 -1.643c0,-0.011 0.009,-0.02 0.019,-0.02 0.011,0 0.02,0.009 0.02,0.02l0 1.643z"/>
   <path class="fil0" d="M0.243 1.515c-0.01,0.005 -0.022,0.002 -0.027,-0.007 -0.005,-0.009 -0.002,-0.021 0.007,-0.027l1.423 -0.821c0.009,-0.005 0.021,-0.002 0.027,0.007 0.005,0.009 0.002,0.021 -0.008,0.026l-1.422 0.822z"/>
   <path class="fil0" d="M0.223 0.693c-0.009,-0.005 -0.012,-0.017 -0.007,-0.026 0.005,-0.009 0.017,-0.012 0.027,-0.007l1.422 0.821c0.01,0.006 0.013,0.018 0.008,0.027 -0.006,0.009 -0.018,0.012 -0.027,0.007l-1.423 -0.822z"/>
   <path class="fil0" d="M0.944 2.133l0.906 -0.523 0 -1.045 -0.906 -0.523 -0.905 0.523 0 1.045 0.905 0.523zm0.473 -0.228l-0.463 0.267c-0.006,0.003 -0.013,0.004 -0.019,0l-0.924 -0.533c-0.006,-0.003 -0.011,-0.01 -0.011,-0.018l0 -1.068c0,-0.006 0.004,-0.013 0.01,-0.016l0.924 -0.534c0.006,-0.004 0.014,-0.004 0.02,0l0.924 0.533c0.006,0.003 0.011,0.01 0.011,0.017l0 1.068c0,0.007 -0.004,0.014 -0.01,0.017l-0.462 0.267z"/>
  </g>
 </g>
</svg>
