<?xml version="1.0" encoding="UTF-8"?>
<!DOCTYPE svg PUBLIC "-//W3C//DTD SVG 1.1//EN" "http://www.w3.org/Graphics/SVG/1.1/DTD/svg11.dtd">
<!-- Creator: CorelDRAW 2018 (64-Bit) -->
<svg xmlns="http://www.w3.org/2000/svg" xml:space="preserve" width="54px" height="51px" version="1.1" style="shape-rendering:geometricPrecision; text-rendering:geometricPrecision; image-rendering:optimizeQuality; fill-rule:evenodd; clip-rule:evenodd"
viewBox="0 0 2.294 2.183"
 xmlns:xlink="http://www.w3.org/1999/xlink">
 <defs>
  <style type="text/css">
   <![CDATA[
    .fil0 {fill:#A3AEBA;fill-rule:nonzero}
   ]]>
  </style>
 </defs>
 <g id="Layer_x0020_1">
  <metadata id="CorelCorpID_0Corel-Layer"/>
  <g id="_2712824798272">
   <path class="fil0" d="M0.81 0l0.144 0c0.01,0 0.018,0.006 0.021,0.015l0.058 0.153 0.071 0.019 0.135 -0.104c0.007,-0.006 0.017,-0.006 0.024,-0.002l0.125 0.072c0.008,0.005 0.012,0.014 0.01,0.023l-0.026 0.162 0.052 0.052 0.169 -0.023c0.009,-0.001 0.018,0.004 0.022,0.012l0.071 0.124c0.005,0.008 0.004,0.018 -0.002,0.024l-0.104 0.128 0.019 0.071 0.158 0.065c0.008,0.003 0.013,0.011 0.013,0.019l0 0.144c0,0.01 -0.006,0.018 -0.015,0.021l-0.153 0.058 -0.019 0.071 0.104 0.135c0.006,0.007 0.006,0.017 0.002,0.024l-0.072 0.125c-0.005,0.007 -0.013,0.011 -0.022,0.01l-0.163 -0.026 -0.052 0.052 0.023 0.169c0.001,0.009 -0.004,0.018 -0.012,0.022l-0.123 0.071c-0.008,0.005 -0.018,0.004 -0.025,-0.002l-0.127 -0.104 -0.072 0.019 -0.065 0.158c-0.003,0.008 -0.011,0.013 -0.019,0.013l-0.144 0c-0.01,0 -0.018,-0.006 -0.021,-0.015l-0.058 -0.153 -0.071 -0.019 -0.135 0.104c-0.007,0.006 -0.018,0.006 -0.025,0.001l-0.123 -0.071c-0.009,-0.005 -0.012,-0.014 -0.011,-0.023l0.027 -0.162 -0.053 -0.052 -0.169 0.023c-0.009,0.001 -0.018,-0.004 -0.022,-0.012l-0.071 -0.123c-0.004,-0.008 -0.003,-0.018 0.002,-0.024l0.104 -0.128 -0.019 -0.072 -0.158 -0.065c-0.008,-0.003 -0.013,-0.011 -0.013,-0.019l0 -0.144c0,-0.01 0.006,-0.018 0.015,-0.021l0.153 -0.058 0.019 -0.071 -0.104 -0.135c-0.006,-0.007 -0.006,-0.018 -0.001,-0.025l0.071 -0.123c0.005,-0.008 0.014,-0.012 0.022,-0.011l0.163 0.027 0.052 -0.053 -0.023 -0.169c-0.001,-0.009 0.004,-0.018 0.012,-0.022l0.124 -0.071c0.008,-0.005 0.018,-0.003 0.024,0.002l0.128 0.104 0.071 -0.019 0.065 -0.158c0.003,-0.008 0.011,-0.013 0.019,-0.013zm0.075 0.043l-0.06 0 -0.063 0.153c-0.002,0.006 -0.008,0.012 -0.015,0.014l-0.092 0.024c-0.006,0.002 -0.013,0.001 -0.019,-0.004l-0.125 -0.102 -0.099 0.058 0.022 0.165c0.001,0.007 -0.001,0.013 -0.006,0.018l-0.067 0.067c-0.005,0.005 -0.012,0.007 -0.019,0.006l-0.159 -0.025 -0.058 0.099 0.102 0.131c0.004,0.005 0.006,0.013 0.004,0.02l-0.024 0.092c-0.002,0.006 -0.007,0.012 -0.013,0.014l-0.151 0.058 0 0.114 0.153 0.063c0.006,0.002 0.012,0.008 0.014,0.015l0.024 0.092c0.002,0.006 0.001,0.013 -0.004,0.019l-0.102 0.125 0.058 0.1 0.165 -0.023c0.007,-0.001 0.013,0.001 0.018,0.006l0.067 0.068c0.005,0.004 0.008,0.011 0.006,0.018l-0.025 0.159 0.099 0.058 0.131 -0.102c0.005,-0.004 0.013,-0.006 0.02,-0.004l0.092 0.025c0.006,0.001 0.012,0.006 0.014,0.013l0.058 0.15 0.114 0 0.063 -0.153c0.002,-0.006 0.008,-0.012 0.015,-0.013l0.092 -0.025c0.006,-0.002 0.013,0 0.019,0.004l0.125 0.102 0.1 -0.057 -0.023 -0.166c-0.001,-0.006 0.001,-0.013 0.006,-0.018l0.068 -0.067c0.004,-0.005 0.011,-0.007 0.018,-0.006l0.159 0.026 0.058 -0.1 -0.102 -0.131c-0.004,-0.005 -0.006,-0.012 -0.004,-0.02l0.025 -0.092c0.001,-0.006 0.006,-0.011 0.013,-0.014l0.15 -0.057 0 -0.115 -0.153 -0.063c-0.006,-0.002 -0.012,-0.008 -0.013,-0.015l-0.025 -0.092c-0.002,-0.006 0,-0.013 0.004,-0.019l0.102 -0.125 -0.057 -0.099 -0.164 0.022c-0.007,0.001 -0.015,-0.001 -0.02,-0.006l-0.067 -0.067c-0.005,-0.005 -0.007,-0.012 -0.006,-0.019l0.026 -0.159 -0.1 -0.058 -0.131 0.102c-0.005,0.004 -0.012,0.006 -0.02,0.004l-0.092 -0.024c-0.006,-0.002 -0.011,-0.007 -0.014,-0.013l-0.057 -0.151 -0.055 0z"/>
   <path class="fil0" d="M0.885 0.409c0.132,0 0.251,0.053 0.337,0.139 0.086,0.086 0.14,0.206 0.14,0.337 0,0.132 -0.054,0.251 -0.14,0.337 -0.086,0.086 -0.205,0.14 -0.337,0.14 -0.131,0 -0.251,-0.054 -0.337,-0.14 -0.086,-0.086 -0.139,-0.205 -0.139,-0.337 0,-0.131 0.053,-0.251 0.139,-0.337 0.086,-0.086 0.206,-0.139 0.337,-0.139zm0.307 0.169c-0.079,-0.078 -0.187,-0.127 -0.307,-0.127 -0.12,0 -0.228,0.049 -0.307,0.127 -0.078,0.079 -0.127,0.187 -0.127,0.307 0,0.12 0.049,0.228 0.127,0.307 0.079,0.078 0.187,0.127 0.307,0.127 0.12,0 0.228,-0.049 0.307,-0.127 0.078,-0.079 0.127,-0.187 0.127,-0.307 0,-0.12 -0.049,-0.228 -0.127,-0.307z"/>
   <path class="fil0" d="M1.986 1.425c0.017,0.007 0.034,0.014 0.05,0.024 0.016,0.009 0.031,0.019 0.045,0.031l0.121 -0.037c0.009,-0.003 0.019,0.001 0.024,0.008 0.014,0.018 0.026,0.036 0.037,0.055 0.011,0.02 0.021,0.04 0.03,0.061 0.003,0.009 0,0.018 -0.006,0.024l-0.092 0.086c0.001,0.007 0.002,0.014 0.003,0.021 0.001,0.012 0.001,0.023 0.001,0.034 0,0.011 0,0.022 -0.001,0.033 -0.001,0.007 -0.002,0.014 -0.003,0.021l0.092 0.087c0.007,0.006 0.009,0.016 0.006,0.023 -0.009,0.022 -0.019,0.042 -0.03,0.061 -0.011,0.02 -0.024,0.039 -0.038,0.056 -0.005,0.007 -0.015,0.01 -0.023,0.007l-0.121 -0.036c-0.014,0.011 -0.029,0.022 -0.045,0.031 -0.016,0.009 -0.033,0.017 -0.05,0.023l-0.029 0.124c-0.002,0.008 -0.009,0.015 -0.017,0.016 -0.011,0.002 -0.023,0.003 -0.034,0.004 -0.011,0.001 -0.023,0.001 -0.034,0.001 -0.011,0 -0.022,0 -0.033,-0.001 -0.012,-0.001 -0.023,-0.002 -0.034,-0.004 -0.009,-0.001 -0.016,-0.008 -0.018,-0.017l-0.028 -0.123c-0.018,-0.006 -0.034,-0.014 -0.05,-0.023 -0.016,-0.009 -0.031,-0.02 -0.045,-0.031l-0.121 0.036c-0.01,0.003 -0.02,-0.001 -0.025,-0.009 -0.013,-0.017 -0.026,-0.035 -0.036,-0.054 -0.012,-0.019 -0.022,-0.039 -0.03,-0.061 -0.003,-0.008 0,-0.018 0.006,-0.023l0.092 -0.087c-0.001,-0.007 -0.002,-0.014 -0.003,-0.021 -0.001,-0.011 -0.002,-0.022 -0.002,-0.033 0,-0.011 0.001,-0.022 0.002,-0.034 0.001,-0.007 0.002,-0.014 0.003,-0.021l-0.092 -0.087c-0.007,-0.006 -0.009,-0.015 -0.006,-0.023 0.008,-0.021 0.018,-0.041 0.03,-0.061 0.011,-0.02 0.024,-0.038 0.038,-0.056 0.005,-0.007 0.014,-0.009 0.023,-0.007l0.121 0.037c0.014,-0.012 0.029,-0.022 0.045,-0.031 0.016,-0.01 0.032,-0.017 0.05,-0.024l0.028 -0.123c0.002,-0.009 0.01,-0.015 0.018,-0.016 0.011,-0.002 0.022,-0.003 0.034,-0.004 0.011,-0.001 0.022,-0.002 0.033,-0.002 0.011,0 0.023,0.001 0.034,0.002 0.011,0.001 0.023,0.002 0.034,0.004 0.009,0.001 0.016,0.008 0.018,0.016l0.028 0.123zm0.028 0.06c-0.016,-0.009 -0.034,-0.017 -0.053,-0.023 -0.006,-0.002 -0.012,-0.008 -0.014,-0.016l-0.028 -0.12 -0.016 -0.002c-0.01,0 -0.02,-0.001 -0.031,-0.001 -0.01,0 -0.02,0.001 -0.03,0.001l-0.016 0.002 -0.028 0.12c-0.002,0.007 -0.007,0.013 -0.015,0.016 -0.018,0.006 -0.036,0.014 -0.053,0.023 -0.016,0.01 -0.032,0.021 -0.046,0.034 -0.005,0.005 -0.013,0.007 -0.021,0.005l-0.119 -0.036c-0.009,0.013 -0.018,0.026 -0.025,0.04 -0.008,0.013 -0.015,0.027 -0.021,0.041l0.09 0.085c0.005,0.005 0.008,0.012 0.006,0.02 -0.002,0.009 -0.003,0.019 -0.004,0.029 -0.001,0.009 -0.002,0.019 -0.002,0.029 0,0.01 0.001,0.02 0.002,0.029 0.001,0.009 0.002,0.019 0.004,0.028 0.002,0.007 0,0.015 -0.006,0.02l-0.09 0.085c0.006,0.015 0.013,0.029 0.021,0.042 0.007,0.014 0.016,0.027 0.025,0.039l0.119 -0.036c0.007,-0.002 0.014,0 0.02,0.005 0.015,0.013 0.031,0.024 0.047,0.034 0.017,0.01 0.035,0.018 0.053,0.024 0.007,0.002 0.013,0.008 0.014,0.015l0.029 0.121 0.016 0.001c0.01,0.001 0.02,0.001 0.03,0.001 0.011,0 0.021,0 0.031,-0.001l0.016 -0.001 0.028 -0.12c0.002,-0.007 0.007,-0.014 0.014,-0.016 0.019,-0.006 0.037,-0.014 0.053,-0.024 0.017,-0.01 0.032,-0.021 0.047,-0.034 0.005,-0.005 0.013,-0.007 0.021,-0.005l0.118 0.036c0.01,-0.012 0.018,-0.026 0.026,-0.039 0.008,-0.013 0.015,-0.027 0.021,-0.042l-0.09 -0.085c-0.005,-0.004 -0.008,-0.012 -0.006,-0.019 0.002,-0.01 0.003,-0.019 0.004,-0.029 0.001,-0.009 0.002,-0.019 0.002,-0.029 0,-0.011 -0.001,-0.02 -0.002,-0.029 -0.001,-0.01 -0.002,-0.019 -0.004,-0.028 -0.002,-0.007 0,-0.015 0.006,-0.021l0.09 -0.085c-0.006,-0.014 -0.013,-0.028 -0.021,-0.041 -0.008,-0.014 -0.016,-0.027 -0.026,-0.04l-0.118 0.036c-0.007,0.002 -0.015,0.001 -0.02,-0.004 -0.015,-0.013 -0.031,-0.025 -0.048,-0.035z"/>
   <path class="fil0" d="M1.872 1.575c0.044,0 0.083,0.017 0.111,0.046 0.029,0.028 0.046,0.067 0.046,0.111 0,0.043 -0.017,0.082 -0.046,0.111 -0.028,0.028 -0.067,0.046 -0.111,0.046 -0.043,0 -0.082,-0.018 -0.111,-0.046 -0.028,-0.029 -0.045,-0.068 -0.045,-0.111 0,-0.044 0.017,-0.083 0.045,-0.111 0.029,-0.029 0.068,-0.046 0.111,-0.046zm0.081 0.076c-0.021,-0.021 -0.049,-0.033 -0.081,-0.033 -0.031,0 -0.06,0.012 -0.08,0.033 -0.021,0.021 -0.034,0.049 -0.034,0.081 0,0.031 0.013,0.06 0.034,0.08 0.02,0.021 0.049,0.034 0.08,0.034 0.032,0 0.06,-0.013 0.081,-0.034 0.021,-0.02 0.033,-0.049 0.033,-0.08 0,-0.032 -0.012,-0.06 -0.033,-0.081z"/>
  </g>
 </g>
</svg>
