<?xml version="1.0" encoding="UTF-8"?>
<!DOCTYPE svg PUBLIC "-//W3C//DTD SVG 1.1//EN" "http://www.w3.org/Graphics/SVG/1.1/DTD/svg11.dtd">
<!-- Creator: CorelDRAW 2018 (64-Bit) -->
<svg xmlns="http://www.w3.org/2000/svg" xml:space="preserve" width="16px" height="16px" version="1.1" style="shape-rendering:geometricPrecision; text-rendering:geometricPrecision; image-rendering:optimizeQuality; fill-rule:evenodd; clip-rule:evenodd"
viewBox="0 0 0.226 0.225"
 xmlns:xlink="http://www.w3.org/1999/xlink">
 <defs>
  <style type="text/css">
   <![CDATA[
    .fil0 {fill:#5682FC}
    .fil1 {fill:#9666C9}
    .fil4 {fill:#CCCCCC}
    .fil3 {fill:#FF8FB1}
    .fil5 {fill:#FF9452}
    .fil2 {fill:#FFE552}
   ]]>
  </style>
 </defs>
 <g id="Layer_x0020_1">
  <metadata id="CorelCorpID_0Corel-Layer"/>
  <g id="_2080929179872">
   <path class="fil0" d="M0.032 0.192c0.018,0.018 0.041,0.029 0.067,0.033l0 -0.029c-0.018,-0.003 -0.034,-0.012 -0.046,-0.024l0 0c-0.002,-0.002 -0.004,-0.004 -0.006,-0.006l-0.025 0.014c0.003,0.004 0.007,0.008 0.01,0.012l0 0z"/>
   <path class="fil1" d="M0.141 0.222c0.024,-0.006 0.046,-0.021 0.062,-0.041l-0.025 -0.015c-0.011,0.014 -0.027,0.024 -0.044,0.029l0 0c-0.002,0 -0.005,0.001 -0.008,0.001l0 0.029c0.005,-0.001 0.01,-0.002 0.015,-0.003l0 0z"/>
   <path class="fil2" d="M0.222 0.143c0.006,-0.024 0.005,-0.05 -0.005,-0.074l-0.025 0.014c0.007,0.017 0.007,0.035 0.003,0.052l0 0c-0.001,0.003 -0.002,0.006 -0.003,0.008l0.025 0.015c0.002,-0.005 0.004,-0.01 0.005,-0.015l0 0z"/>
   <path class="fil3" d="M0.194 0.033c-0.018,-0.017 -0.041,-0.029 -0.067,-0.033l0 0.029c0.018,0.003 0.034,0.012 0.046,0.024l0 0c0.002,0.002 0.004,0.004 0.006,0.006l0.025 -0.014c-0.003,-0.004 -0.007,-0.008 -0.01,-0.012l0 0z"/>
   <path class="fil4" d="M0.085 0.003c-0.024,0.006 -0.046,0.021 -0.062,0.041l0.025 0.015c0.011,-0.014 0.027,-0.024 0.044,-0.028l0 0c0.002,-0.001 0.005,-0.002 0.008,-0.002l0 -0.029c-0.005,0.001 -0.01,0.002 -0.015,0.003l0 0z"/>
   <path class="fil5" d="M0.004 0.082c-0.006,0.024 -0.005,0.051 0.005,0.075l0.025 -0.015c-0.007,-0.017 -0.007,-0.035 -0.003,-0.052l0 0c0.001,-0.003 0.002,-0.005 0.003,-0.008l-0.025 -0.014c-0.002,0.004 -0.004,0.009 -0.005,0.014l0 0z"/>
  </g>
 </g>
</svg>
