<?xml version="1.0" encoding="UTF-8"?>
<!DOCTYPE svg PUBLIC "-//W3C//DTD SVG 1.1//EN" "http://www.w3.org/Graphics/SVG/1.1/DTD/svg11.dtd">
<!-- Creator: CorelDRAW 2018 (64-Bit) -->
<svg xmlns="http://www.w3.org/2000/svg" xml:space="preserve" width="32px" height="32px" version="1.1" style="shape-rendering:geometricPrecision; text-rendering:geometricPrecision; image-rendering:optimizeQuality; fill-rule:evenodd; clip-rule:evenodd"
viewBox="0 0 5.647 5.647"
 xmlns:xlink="http://www.w3.org/1999/xlink">
 <defs>
  <style type="text/css">
   <![CDATA[
    .fil0 {fill:#00A8FF}
    .fil1 {fill:white}
   ]]>
  </style>
 </defs>
 <g id="Layer_x0020_1">
  <metadata id="CorelCorpID_0Corel-Layer"/>
  <g id="_2418481081168">
   <rect class="fil0" width="5.647" height="5.647" rx="0.314" ry="0.314"/>
   <path class="fil1" d="M4.904 3.18c-0.152,0 -0.275,0.123 -0.275,0.274 0,0.152 0.123,0.275 0.275,0.275 0.152,0 0.274,-0.123 0.274,-0.275 -0.001,-0.151 -0.124,-0.274 -0.274,-0.274zm-3.716 -1.289l-0.719 1.825 0.487 0 0.096 -0.263 0.634 0 0.089 0.263 0.491 0 -0.711 -1.825 -0.367 0zm-0.008 1.191l0.191 -0.636 0.191 0.636 -0.382 0zm2.817 0.634l0.413 0 0 -1.825 -0.413 0 0 1.825zm-0.964 -1.416c-0.496,0 -0.734,0.393 -0.734,0.728 0,0.335 0.238,0.728 0.734,0.728 0.496,0 0.734,-0.393 0.734,-0.728 0,-0.337 -0.238,-0.728 -0.734,-0.728zm0 1.072c-0.177,0 -0.327,-0.145 -0.327,-0.345 0,-0.2 0.15,-0.346 0.327,-0.346 0.177,0 0.327,0.146 0.327,0.346 0,0.2 -0.151,0.345 -0.327,0.345z"/>
  </g>
 </g>
</svg>
