<?xml version="1.0" encoding="UTF-8"?>
<!DOCTYPE svg PUBLIC "-//W3C//DTD SVG 1.1//EN" "http://www.w3.org/Graphics/SVG/1.1/DTD/svg11.dtd">
<!-- Creator: CorelDRAW 2018 (64-Bit) -->
<svg xmlns="http://www.w3.org/2000/svg" xml:space="preserve" width="283px" height="189px" version="1.1" style="shape-rendering:geometricPrecision; text-rendering:geometricPrecision; image-rendering:optimizeQuality; fill-rule:evenodd; clip-rule:evenodd"
viewBox="0 0 2503.477 1673.909"
 xmlns:xlink="http://www.w3.org/1999/xlink">
 <defs>
  <style type="text/css">
   <![CDATA[
    .fil2 {fill:#8D9AA8}
    .fil0 {fill:#A3AEBA}
    .fil3 {fill:#EAEDF2;fill-rule:nonzero}
    .fil1 {fill:white;fill-rule:nonzero}
   ]]>
  </style>
 </defs>
 <g id="Layer_x0020_1">
  <metadata id="CorelCorpID_0Corel-Layer"/>
  <g id="_3028622897056">
   <rect class="fil0" y="-0.001" width="2503.477" height="1673.909"/>
   <path class="fil1" d="M1127.775 1241.97l-14.479 0 -11.824 -31.299 -47.349 0 -11.132 31.299 -14.534 0 42.805 -111.622 13.55 0 42.963 111.622zm-30.609 -43.044l-17.509 -47.56c-0.557,-1.569 -1.142,-4.064 -1.699,-7.466l-0.319 0c-0.505,3.161 -1.117,5.634 -1.78,7.466l-17.378 47.56 38.685 0zm86.885 -23.754c-2.232,-1.7 -5.445,-2.551 -9.643,-2.551 -5.473,0 -10.017,2.551 -13.685,7.707 -3.64,5.127 -5.473,12.141 -5.473,21.016l0 40.626 -12.778 0 0 -79.71 12.778 0 0 16.419 0.319 0c1.808,-5.606 4.569,-9.962 8.318,-13.125 3.745,-3.136 7.918,-4.703 12.54,-4.703 3.321,0 5.844,0.372 7.624,1.09l0 13.231zm55.428 66.027c-3.002,1.647 -6.989,2.471 -11.905,2.471 -13.976,0 -20.935,-7.786 -20.935,-23.354l0 -47.163 -13.71 0 0 -10.893 13.71 0 0 -19.45 12.753 -4.144 0 23.594 20.087 0 0 10.893 -20.087 0 0 44.931c0,5.34 0.902,9.139 2.737,11.424 1.805,2.287 4.808,3.429 9.033,3.429 3.216,0 5.978,-0.879 8.317,-2.659l0 10.921zm22.716 -99.187c-2.285,0 -4.223,-0.768 -5.845,-2.337 -1.594,-1.542 -2.39,-3.507 -2.39,-5.898 0,-2.392 0.796,-4.385 2.39,-5.952 1.622,-1.594 3.56,-2.393 5.845,-2.393 2.34,0 4.331,0.799 5.952,2.393 1.647,1.567 2.471,3.56 2.471,5.952 0,2.285 -0.824,4.223 -2.471,5.817 -1.621,1.622 -3.612,2.418 -5.952,2.418zm6.244 77.692c0,7.308 2.817,10.973 8.478,10.973 2.284,0 4.331,-0.291 6.136,-0.851l0 11.534c-0.982,0.238 -2.285,0.504 -3.932,0.715 -1.622,0.241 -3.349,0.374 -5.154,0.374 -2.551,0 -4.943,-0.426 -7.175,-1.25 -2.232,-0.851 -4.17,-2.099 -5.792,-3.826 -1.647,-1.7 -2.95,-3.854 -3.906,-6.429 -0.957,-2.551 -1.434,-5.554 -1.434,-8.981l0 -59.703 12.779 0 0 57.444zm82.818 18.598c-6.111,3.696 -13.391,5.528 -21.787,5.528 -11.372,0 -20.539,-3.693 -27.525,-11.079 -6.962,-7.388 -10.469,-16.979 -10.469,-28.776 0,-13.125 3.773,-23.674 11.292,-31.645 7.519,-7.944 17.561,-11.931 30.129,-11.931 7.015,0 13.181,1.276 18.521,3.879l0 13.073c-5.925,-4.145 -12.249,-6.216 -18.998,-6.216 -8.131,0 -14.827,2.922 -20.034,8.766 -5.207,5.82 -7.838,13.5 -7.838,22.985 0,9.351 2.47,16.712 7.361,22.105 4.913,5.395 11.478,8.104 19.741,8.104 6.961,0 13.496,-2.312 19.607,-6.934l0 12.141zm31.219 -18.598c0,7.308 2.817,10.973 8.478,10.973 2.284,0 4.331,-0.291 6.136,-0.851l0 11.534c-0.982,0.238 -2.285,0.504 -3.932,0.715 -1.622,0.241 -3.349,0.374 -5.154,0.374 -2.551,0 -4.943,-0.426 -7.175,-1.25 -2.232,-0.851 -4.17,-2.099 -5.792,-3.826 -1.647,-1.7 -2.95,-3.854 -3.906,-6.429 -0.957,-2.551 -1.434,-5.554 -1.434,-8.981l0 -97.992 12.779 0 0 95.733zm92.544 -14.401l-56.277 0c0.214,8.875 2.606,15.729 7.175,20.564 4.57,4.81 10.841,7.228 18.84,7.228 8.98,0 17.217,-2.95 24.761,-8.875l0 11.983c-7.014,5.102 -16.286,7.627 -27.792,7.627 -11.264,0 -20.114,-3.615 -26.544,-10.84 -6.454,-7.253 -9.67,-17.431 -9.67,-30.556 0,-12.408 3.534,-22.505 10.549,-30.318 7.04,-7.81 15.781,-11.717 26.198,-11.717 10.441,0 18.492,3.375 24.204,10.123 5.714,6.723 8.556,16.103 8.556,28.086l0 6.695zm-13.073 -10.813c-0.052,-7.361 -1.832,-13.1 -5.314,-17.217 -3.508,-4.092 -8.368,-6.138 -14.614,-6.138 -6.003,0 -11.132,2.151 -15.33,6.457 -4.197,4.303 -6.801,9.936 -7.785,16.898l43.043 0z"/>
   <ellipse class="fil2" cx="1251.738" cy="962.33" rx="628.839" ry="68.474"/>
   <path class="fil2" d="M928.163 961.686c-20.333,0 -36.963,-16.63 -36.963,-36.963l0 -381.228 0 -76.245c0,-20.333 16.63,-36.963 36.963,-36.963l235.666 0c20.335,0 36.965,16.63 36.965,36.963l0 6.289c0,18.149 14.843,32.991 32.992,32.991l267.366 0c20.333,0 36.963,16.635 36.963,36.965l0 16.173 2.709 402.018 -612.661 0z"/>
   <path class="fil3" d="M928.163 970.544c-12.583,0 -24.031,-5.155 -32.334,-13.452l-0.035 -0.035c-8.297,-8.303 -13.451,-19.751 -13.451,-32.334l0 -457.473c0,-12.586 5.154,-24.031 13.451,-32.334l0.035 -0.035c8.303,-8.297 19.751,-13.451 32.334,-13.451l235.666 0c12.61,0 24.071,5.154 32.368,13.451 8.3,8.3 13.455,19.758 13.455,32.369l0 6.289c0,6.653 2.706,12.686 7.059,17.039l0.035 0.035c4.354,4.353 10.387,7.06 17.04,7.06l267.366 0c12.576,0 24.034,5.161 32.349,13.471 8.317,8.283 13.471,19.743 13.471,32.351l0 16.173 -0.03 0.728 2.704 401.255c0.018,4.871 -3.916,8.84 -8.787,8.857l-0.035 0.036 -612.661 0zm-19.864 -25.957c5.094,5.084 12.129,8.242 19.864,8.242l603.779 0 -2.644 -392.312 -0.04 -0.849 0 -16.173c0,-7.72 -3.166,-14.749 -8.262,-19.846l0 -0.035c-5.074,-5.074 -12.099,-8.227 -19.844,-8.227l-267.366 0c-11.466,0 -21.913,-4.697 -29.507,-12.266l-0.055 -0.056c-7.582,-7.597 -12.287,-18.051 -12.287,-29.526l0 -6.289c0,-7.723 -3.166,-14.75 -8.262,-19.846 -5.094,-5.094 -12.124,-8.26 -19.846,-8.26l-235.666 0c-7.735,0 -14.77,3.158 -19.864,8.242 -5.084,5.094 -8.242,12.129 -8.242,19.864l0 457.473c0,7.735 3.158,14.77 8.242,19.864z"/>
   <path class="fil0" d="M965.362 840.542l0 84.181c0,20.333 -16.63,36.963 -36.963,36.963l68.741 0 166.689 0 337.323 0 79.349 0c17.478,0 31.779,-14.297 31.779,-31.776l0 -338.466c0,-17.478 -14.301,-31.776 -31.779,-31.776l-583.361 0c-17.478,0 -31.778,14.298 -31.778,31.776l0 249.098z"/>
   <path class="fil3" d="M974.219 840.542l0 84.181c0,10.565 -3.635,20.331 -9.711,28.106l615.993 0c6.294,0 12.028,-2.583 16.183,-6.738 4.155,-4.155 6.738,-9.887 6.738,-16.181l0 -338.466c0,-6.293 -2.583,-12.025 -6.738,-16.18 -4.155,-4.155 -9.889,-6.738 -16.183,-6.738l-583.361 0c-6.294,0 -12.028,2.583 -16.183,6.738 -4.155,4.155 -6.738,9.887 -6.738,16.18l0 249.098zm-17.714 84.181l0 -333.279c0,-11.182 4.571,-21.344 11.93,-28.703 7.358,-7.358 17.523,-11.93 28.705,-11.93l583.361 0c11.182,0 21.347,4.572 28.706,11.93 7.358,7.359 11.93,17.521 11.93,28.703l0 338.466c0,11.182 -4.572,21.345 -11.93,28.703 -7.359,7.359 -17.524,11.931 -28.706,11.931l-652.102 0 0 -17.715c7.735,0 14.769,-3.158 19.863,-8.242 5.084,-5.094 8.243,-12.129 8.243,-19.864z"/>
   <path class="fil3" d="M1151.723 686.878c-4.891,0 -8.857,-3.966 -8.857,-8.857 0,-4.891 3.966,-8.857 8.857,-8.857l274.193 0c4.89,0 8.857,3.966 8.857,8.857 0,4.891 -3.967,8.857 -8.857,8.857l-274.193 0z"/>
   <path class="fil3" d="M1151.723 741.982c-4.891,0 -8.857,-3.966 -8.857,-8.857 0,-4.89 3.966,-8.857 8.857,-8.857l274.193 0c4.89,0 8.857,3.967 8.857,8.857 0,4.891 -3.967,8.857 -8.857,8.857l-274.193 0z"/>
   <path class="fil3" d="M1151.723 797.089c-4.891,0 -8.857,-3.966 -8.857,-8.857 0,-4.891 3.966,-8.857 8.857,-8.857l274.193 0c4.89,0 8.857,3.966 8.857,8.857 0,4.891 -3.967,8.857 -8.857,8.857l-274.193 0z"/>
   <path class="fil3" d="M1151.723 852.193c-4.891,0 -8.857,-3.966 -8.857,-8.857 0,-4.89 3.966,-8.857 8.857,-8.857l124.089 0c4.891,0 8.857,3.967 8.857,8.857 0,4.891 -3.966,8.857 -8.857,8.857l-124.089 0z"/>
  </g>
 </g>
</svg>
