<?xml version="1.0" encoding="UTF-8"?>
<!DOCTYPE svg PUBLIC "-//W3C//DTD SVG 1.1//EN" "http://www.w3.org/Graphics/SVG/1.1/DTD/svg11.dtd">
<!-- Creator: CorelDRAW 2018 (64-Bit) -->
<svg xmlns="http://www.w3.org/2000/svg" xml:space="preserve" width="283px" height="189px" version="1.1" style="shape-rendering:geometricPrecision; text-rendering:geometricPrecision; image-rendering:optimizeQuality; fill-rule:evenodd; clip-rule:evenodd"
viewBox="0 0 133.909 89.536"
 xmlns:xlink="http://www.w3.org/1999/xlink">
 <defs>
  <style type="text/css">
   <![CDATA[
    .fil2 {fill:#8D9AA8}
    .fil0 {fill:#A3AEBA}
    .fil3 {fill:#EAEDF2;fill-rule:nonzero}
    .fil1 {fill:white;fill-rule:nonzero}
   ]]>
  </style>
 </defs>
 <g id="Layer_x0020_1">
  <metadata id="CorelCorpID_0Corel-Layer"/>
  <g id="_3028622914240">
   <rect class="fil0" width="133.909" height="89.536"/>
   <path class="fil1" d="M61.26 66.432l-0.774 0 -0.633 -1.674 -2.532 0 -0.596 1.674 -0.777 0 2.29 -5.97 0.724 0 2.298 5.97zm-1.637 -2.302l-0.936 -2.544c-0.03,-0.084 -0.061,-0.218 -0.091,-0.4l-0.017 0c-0.027,0.169 -0.06,0.302 -0.096,0.4l-0.929 2.544 2.069 0zm5.871 2.302l-0.682 0 0 -0.675 -0.017 0c-0.283,0.517 -0.722,0.775 -1.316,0.775 -1.016,0 -1.524,-0.604 -1.524,-1.815l0 -2.549 0.678 0 0 2.441c0,0.899 0.346,1.348 1.034,1.348 0.332,0 0.607,-0.122 0.822,-0.368 0.215,-0.246 0.323,-0.567 0.323,-0.965l0 -2.456 0.682 0 0 4.264zm5.019 0l-0.684 0 0 -0.725 -0.016 0c-0.317,0.55 -0.805,0.825 -1.466,0.825 -0.535,0 -0.964,-0.191 -1.284,-0.573 -0.321,-0.381 -0.481,-0.901 -0.481,-1.559 0,-0.705 0.177,-1.269 0.533,-1.694 0.355,-0.425 0.828,-0.637 1.419,-0.637 0.586,0 1.012,0.23 1.279,0.691l0.016 0 0 -2.64 0.684 0 0 6.312zm-0.684 -1.927l0 -0.63c0,-0.344 -0.114,-0.635 -0.341,-0.874 -0.227,-0.238 -0.516,-0.358 -0.866,-0.358 -0.416,0 -0.744,0.152 -0.983,0.458 -0.239,0.305 -0.358,0.727 -0.358,1.266 0,0.492 0.115,0.878 0.344,1.164 0.229,0.284 0.537,0.426 0.922,0.426 0.381,0 0.689,-0.137 0.927,-0.412 0.237,-0.274 0.355,-0.622 0.355,-1.04zm2.369 -3.42c-0.122,0 -0.226,-0.041 -0.312,-0.125 -0.086,-0.082 -0.128,-0.187 -0.128,-0.315 0,-0.128 0.042,-0.235 0.128,-0.318 0.086,-0.086 0.19,-0.128 0.312,-0.128 0.125,0 0.232,0.042 0.319,0.128 0.088,0.083 0.132,0.19 0.132,0.318 0,0.122 -0.044,0.226 -0.132,0.311 -0.087,0.087 -0.194,0.129 -0.319,0.129zm0.334 4.156c0,0.391 0.151,0.587 0.454,0.587 0.122,0 0.231,-0.015 0.328,-0.045l0 0.616c-0.053,0.013 -0.122,0.027 -0.21,0.039 -0.087,0.013 -0.18,0.02 -0.276,0.02 -0.137,0 -0.265,-0.023 -0.384,-0.067 -0.119,-0.046 -0.223,-0.112 -0.31,-0.205 -0.088,-0.091 -0.158,-0.206 -0.209,-0.344 -0.051,-0.136 -0.076,-0.297 -0.076,-0.48l0 -3.194 0.683 0 0 3.073zm3.306 1.291c-0.63,0 -1.133,-0.199 -1.509,-0.597 -0.376,-0.398 -0.565,-0.927 -0.565,-1.585 0,-0.716 0.196,-1.275 0.587,-1.678 0.393,-0.403 0.921,-0.603 1.588,-0.603 0.635,0 1.131,0.195 1.488,0.587 0.357,0.391 0.534,0.934 0.534,1.627 0,0.681 -0.192,1.225 -0.575,1.635 -0.386,0.409 -0.902,0.614 -1.548,0.614zm0.05 -3.889c-0.438,0 -0.785,0.149 -1.041,0.448 -0.256,0.298 -0.383,0.709 -0.383,1.235 0,0.504 0.129,0.902 0.388,1.194 0.258,0.291 0.604,0.437 1.036,0.437 0.442,0 0.781,-0.143 1.019,-0.429 0.237,-0.285 0.355,-0.692 0.355,-1.219 0,-0.533 -0.118,-0.944 -0.355,-1.232 -0.238,-0.29 -0.577,-0.434 -1.019,-0.434z"/>
   <path class="fil2" d="M66.955 47.812c18.576,0 33.636,1.64 33.636,3.662 0,2.023 -15.06,3.663 -33.636,3.663 -18.577,0 -33.637,-1.64 -33.637,-3.663 0,-2.022 15.06,-3.662 33.637,-3.662z"/>
   <path class="fil2" d="M49.647 51.44c-1.088,0 -1.977,-0.89 -1.977,-1.977l0 -20.392 0 -4.078c0,-1.088 0.889,-1.977 1.977,-1.977l12.605 0c1.088,0 1.978,0.889 1.978,1.977l0 0.336c0,0.971 0.794,1.765 1.764,1.765l14.302 0c1.087,0 1.977,0.89 1.977,1.977l0 0.865 0.145 21.504 -32.771 0z"/>
   <path class="fil3" d="M49.647 51.914c-0.673,0 -1.286,-0.276 -1.73,-0.72l-0.002 -0.002c-0.443,-0.444 -0.719,-1.056 -0.719,-1.729l0 -24.47c0,-0.673 0.276,-1.286 0.719,-1.73l0.002 -0.002c0.444,-0.443 1.057,-0.719 1.73,-0.719l12.605 0c0.675,0 1.288,0.276 1.732,0.719 0.444,0.444 0.719,1.057 0.719,1.732l0 0.336c0,0.356 0.145,0.679 0.378,0.912l0.002 0.002c0.233,0.232 0.555,0.377 0.911,0.377l14.302 0c0.672,0 1.285,0.276 1.73,0.721 0.445,0.443 0.72,1.056 0.72,1.73l0 0.865 -0.001 0.039 0.144 21.463c0.001,0.261 -0.209,0.473 -0.47,0.474l-0.001 0.002 -32.771 0zm-1.063 -1.389c0.273,0.272 0.649,0.441 1.063,0.441l32.295 0 -0.141 -20.984 -0.002 -0.046 0 -0.865c0,-0.413 -0.169,-0.789 -0.442,-1.061l0 -0.002c-0.271,-0.272 -0.647,-0.44 -1.061,-0.44l-14.302 0c-0.613,0 -1.172,-0.252 -1.578,-0.656l-0.003 -0.003c-0.405,-0.407 -0.657,-0.966 -0.657,-1.58l0 -0.336c0,-0.413 -0.169,-0.789 -0.442,-1.062 -0.273,-0.272 -0.649,-0.441 -1.062,-0.441l-12.605 0c-0.414,0 -0.79,0.168 -1.063,0.44 -0.272,0.273 -0.441,0.649 -0.441,1.063l0 24.47c0,0.414 0.169,0.79 0.441,1.062z"/>
   <path class="fil0" d="M51.637 44.96l0 4.503c0,1.087 -0.89,1.977 -1.978,1.977l3.677 0 8.916 0 18.044 0 4.244 0c0.935,0 1.7,-0.765 1.7,-1.7l0 -18.104c0,-0.935 -0.765,-1.7 -1.7,-1.7l-31.204 0c-0.935,0 -1.699,0.765 -1.699,1.7l0 13.324z"/>
   <path class="fil3" d="M52.11 44.96l0 4.503c0,0.565 -0.194,1.087 -0.519,1.503l32.949 0c0.337,0 0.643,-0.138 0.866,-0.36 0.222,-0.223 0.36,-0.529 0.36,-0.866l0 -18.104c0,-0.337 -0.138,-0.643 -0.36,-0.866 -0.223,-0.222 -0.529,-0.36 -0.866,-0.36l-31.204 0c-0.336,0 -0.643,0.138 -0.865,0.36 -0.223,0.223 -0.361,0.529 -0.361,0.866l0 13.324zm-0.947 4.503l0 -17.827c0,-0.598 0.244,-1.142 0.638,-1.535 0.393,-0.394 0.937,-0.638 1.535,-0.638l31.204 0c0.598,0 1.142,0.244 1.535,0.638 0.394,0.393 0.638,0.937 0.638,1.535l0 18.104c0,0.598 -0.244,1.142 -0.638,1.536 -0.393,0.393 -0.937,0.638 -1.535,0.638l-34.881 0 0 -0.948c0.414,0 0.79,-0.169 1.063,-0.441 0.272,-0.272 0.441,-0.648 0.441,-1.062z"/>
   <path class="fil3" d="M65.715 41.598c0.723,0 1.378,0.294 1.853,0.768l0.001 0.002c0.475,0.475 0.769,1.13 0.769,1.853 0,0.724 -0.294,1.379 -0.769,1.854 -0.474,0.474 -1.13,0.768 -1.854,0.768 -0.723,0 -1.378,-0.294 -1.852,-0.768l-0.002 -0.002c-0.475,-0.474 -0.768,-1.13 -0.768,-1.852 0,-0.723 0.293,-1.378 0.768,-1.853l0 -0.002c0.474,-0.474 1.13,-0.768 1.854,-0.768zm1.186 1.437c-0.303,-0.302 -0.723,-0.489 -1.186,-0.489 -0.462,0 -0.881,0.188 -1.184,0.49 -0.303,0.302 -0.491,0.721 -0.491,1.185 0,0.463 0.188,0.882 0.49,1.185 0.303,0.302 0.722,0.49 1.185,0.49 0.463,0 0.882,-0.188 1.184,-0.491 0.304,-0.303 0.491,-0.722 0.491,-1.184 0,-0.464 -0.187,-0.883 -0.489,-1.186z"/>
   <path class="fil3" d="M72.161 40.355c0.723,0 1.378,0.293 1.852,0.768l0.002 0.002c0.475,0.474 0.768,1.129 0.768,1.852 0,0.724 -0.293,1.38 -0.768,1.854 -0.474,0.475 -1.13,0.768 -1.854,0.768 -0.723,0 -1.378,-0.293 -1.853,-0.768l-0.001 -0.002c-0.475,-0.474 -0.769,-1.129 -0.769,-1.852 0,-0.723 0.294,-1.378 0.769,-1.852l0.001 -0.002c0.475,-0.475 1.13,-0.768 1.853,-0.768zm1.185 1.437c-0.303,-0.303 -0.722,-0.49 -1.185,-0.49 -0.463,0 -0.883,0.187 -1.186,0.49 -0.302,0.303 -0.489,0.722 -0.489,1.185 0,0.463 0.187,0.883 0.489,1.185 0.303,0.303 0.723,0.49 1.186,0.49 0.462,0 0.881,-0.188 1.184,-0.49 0.303,-0.304 0.491,-0.722 0.491,-1.185 0,-0.463 -0.187,-0.882 -0.49,-1.185z"/>
   <path class="fil3" d="M68.338 44.221c0,0.261 -0.213,0.473 -0.474,0.473 -0.262,0 -0.474,-0.212 -0.474,-0.473l0 -8.008c0,-0.244 0.184,-0.444 0.42,-0.471l6.413 -1.199c0.256,-0.048 0.503,0.121 0.551,0.377 0.006,0.029 0.008,0.058 0.008,0.087l0.001 7.97c0,0.262 -0.212,0.474 -0.473,0.474 -0.262,0 -0.474,-0.212 -0.474,-0.474l0 -7.401 -5.498 1.029 0 7.616z"/>
  </g>
 </g>
</svg>
