<?xml version="1.0" encoding="UTF-8"?>
<!DOCTYPE svg PUBLIC "-//W3C//DTD SVG 1.1//EN" "http://www.w3.org/Graphics/SVG/1.1/DTD/svg11.dtd">
<!-- Creator: CorelDRAW 2018 (64-Bit) -->
<svg xmlns="http://www.w3.org/2000/svg" xml:space="preserve" width="16px" height="16px" version="1.1" style="shape-rendering:geometricPrecision; text-rendering:geometricPrecision; image-rendering:optimizeQuality; fill-rule:evenodd; clip-rule:evenodd"
viewBox="0 0 0.494 0.494"
 xmlns:xlink="http://www.w3.org/1999/xlink">
 <defs>
  <style type="text/css">
   <![CDATA[
    .fil0 {fill:gray;fill-rule:nonzero}
   ]]>
  </style>
 </defs>
 <g id="Layer_x0020_1">
  <metadata id="CorelCorpID_0Corel-Layer"/>
  <g id="_2712834729024">
   <path class="fil0" d="M0.057 0l0.108 0c0.015,0 0.029,0.006 0.04,0.017 0.01,0.01 0.016,0.024 0.016,0.04l0 0.108c0,0.015 -0.006,0.029 -0.016,0.04 -0.011,0.01 -0.025,0.016 -0.04,0.016l-0.108 0c-0.016,0 -0.03,-0.006 -0.04,-0.016 -0.011,-0.011 -0.017,-0.025 -0.017,-0.04l0 -0.108c0,-0.016 0.006,-0.03 0.017,-0.04 0.01,-0.011 0.024,-0.017 0.04,-0.017zm0.108 0.031l-0.108 0c-0.007,0 -0.014,0.003 -0.019,0.007 -0.004,0.005 -0.007,0.011 -0.007,0.019l0 0.108c0,0.007 0.003,0.013 0.007,0.018 0.005,0.005 0.011,0.007 0.019,0.007l0.108 0c0.007,0 0.013,-0.003 0.018,-0.007 0.004,-0.005 0.007,-0.011 0.007,-0.018l0 -0.108c0,-0.007 -0.003,-0.014 -0.007,-0.019 -0.005,-0.004 -0.011,-0.007 -0.018,-0.007z"/>
   <path class="fil0" d="M0.057 0.273l0.108 0c0.015,0 0.029,0.006 0.04,0.016 0.01,0.01 0.016,0.025 0.016,0.04l0 0.108c0,0.016 -0.006,0.03 -0.016,0.04 -0.011,0.011 -0.025,0.017 -0.04,0.017l-0.108 0c-0.016,0 -0.03,-0.006 -0.04,-0.017 -0.011,-0.01 -0.017,-0.024 -0.017,-0.04l0 -0.108c0,-0.015 0.006,-0.029 0.017,-0.04 0.01,-0.01 0.024,-0.016 0.04,-0.016zm0.108 0.031l-0.108 0c-0.007,0 -0.014,0.002 -0.019,0.007 -0.004,0.005 -0.007,0.011 -0.007,0.018l0 0.108c0,0.007 0.003,0.014 0.007,0.019 0.005,0.004 0.011,0.007 0.019,0.007l0.108 0c0.007,0 0.013,-0.003 0.018,-0.008 0.004,-0.004 0.007,-0.011 0.007,-0.018l0 -0.108c0,-0.007 -0.003,-0.013 -0.007,-0.018 -0.005,-0.005 -0.011,-0.007 -0.018,-0.007z"/>
   <path class="fil0" d="M0.329 0l0.108 0c0.016,0 0.03,0.006 0.04,0.017 0.011,0.01 0.017,0.024 0.017,0.04l0 0.108c0,0.015 -0.006,0.029 -0.017,0.04 -0.01,0.01 -0.024,0.016 -0.04,0.016l-0.108 0c-0.015,0 -0.029,-0.006 -0.04,-0.016 -0.01,-0.011 -0.016,-0.025 -0.016,-0.04l0 -0.108c0,-0.016 0.006,-0.03 0.016,-0.04 0.01,-0.011 0.025,-0.017 0.04,-0.017zm0.108 0.031l-0.108 0c-0.007,0 -0.013,0.003 -0.018,0.007 -0.005,0.005 -0.007,0.011 -0.007,0.019l0 0.108c0,0.007 0.002,0.013 0.007,0.018 0.005,0.005 0.011,0.007 0.018,0.007l0.108 0c0.007,0 0.014,-0.003 0.018,-0.007 0.005,-0.005 0.008,-0.011 0.008,-0.018l0 -0.108c0,-0.007 -0.003,-0.014 -0.008,-0.019 -0.004,-0.004 -0.011,-0.007 -0.018,-0.007z"/>
   <path class="fil0" d="M0.329 0.273l0.108 0c0.016,0 0.03,0.006 0.04,0.016 0.011,0.01 0.017,0.025 0.017,0.04l0 0.108c0,0.016 -0.006,0.03 -0.017,0.04 -0.01,0.011 -0.024,0.017 -0.04,0.017l-0.108 0c-0.015,0 -0.029,-0.006 -0.04,-0.017 -0.01,-0.01 -0.016,-0.024 -0.016,-0.04l0 -0.108c0,-0.015 0.006,-0.029 0.016,-0.04 0.01,-0.01 0.025,-0.016 0.04,-0.016zm0.108 0.031l-0.108 0c-0.007,0 -0.013,0.002 -0.018,0.007 -0.005,0.005 -0.007,0.011 -0.007,0.018l0 0.108c0,0.007 0.002,0.014 0.007,0.019 0.005,0.004 0.011,0.007 0.018,0.007l0.108 0c0.007,0 0.014,-0.003 0.018,-0.008 0.005,-0.004 0.008,-0.011 0.008,-0.018l0 -0.108c0,-0.007 -0.003,-0.013 -0.008,-0.018 -0.004,-0.005 -0.011,-0.007 -0.018,-0.007z"/>
  </g>
 </g>
</svg>
