<?xml version="1.0" encoding="UTF-8"?>
<!DOCTYPE svg PUBLIC "-//W3C//DTD SVG 1.1//EN" "http://www.w3.org/Graphics/SVG/1.1/DTD/svg11.dtd">
<!-- Creator: CorelDRAW 2018 (64-Bit) -->
<svg xmlns="http://www.w3.org/2000/svg" xml:space="preserve" width="90px" height="52px" version="1.1" style="shape-rendering:geometricPrecision; text-rendering:geometricPrecision; image-rendering:optimizeQuality; fill-rule:evenodd; clip-rule:evenodd"
viewBox="0 0 14.177 8.191"
 xmlns:xlink="http://www.w3.org/1999/xlink">
 <defs>
  <style type="text/css">
   <![CDATA[
    .fil0 {fill:none}
    .fil3 {fill:#00F4FF}
    .fil2 {fill:#EAEDF2}
    .fil4 {fill:white}
    .fil1 {fill:gray;fill-rule:nonzero}
   ]]>
  </style>
 </defs>
 <g id="Layer_x0020_1">
  <metadata id="CorelCorpID_0Corel-Layer"/>
  <g id="_2714400827792">
   <polygon class="fil0" points="0,0 14.177,0 14.177,8.191 0,8.191 "/>
   <path class="fil1" d="M7.296 7.197c0.043,0 0.078,0.035 0.078,0.078 0,0.044 -0.035,0.079 -0.078,0.079l-3.093 0c-0.06,0 -0.116,-0.025 -0.156,-0.065 -0.04,-0.04 -0.065,-0.095 -0.065,-0.156l0 -6.833c0,-0.061 0.025,-0.116 0.065,-0.156 0.04,-0.04 0.095,-0.065 0.156,-0.065l3.811 0c0.023,0 0.043,0.009 0.057,0.024l1.61 1.61c0.016,0.015 0.023,0.036 0.023,0.056l0 2.675c0,0.043 -0.035,0.078 -0.079,0.078 -0.043,0 -0.078,-0.035 -0.078,-0.078l0 -2.643 -1.565 -1.565 -3.779 0c-0.017,0 -0.033,0.007 -0.045,0.019 -0.011,0.011 -0.018,0.027 -0.018,0.045l0 6.833c0,0.017 0.007,0.033 0.018,0.045 0.012,0.011 0.028,0.019 0.045,0.019l3.093 0z"/>
   <path class="fil2" d="M9.625 1.769l-1.473 0c-0.076,0 -0.138,-0.062 -0.138,-0.138l0 -1.473 1.611 1.611z"/>
   <path class="fil1" d="M9.625 1.848l-1.473 0c-0.06,0 -0.114,-0.025 -0.153,-0.064 -0.039,-0.039 -0.063,-0.093 -0.063,-0.153l0 -1.473c0,-0.044 0.035,-0.079 0.078,-0.079 0.023,0 0.043,0.009 0.057,0.024l1.61 1.61c0.031,0.031 0.031,0.081 0,0.111 -0.015,0.016 -0.035,0.023 -0.056,0.024zm-1.473 -0.158l1.283 0 -1.342 -1.342 0 1.283c0,0.016 0.007,0.031 0.017,0.042 0.011,0.01 0.026,0.017 0.042,0.017z"/>
   <path class="fil3" d="M5.247 2.29c0.056,-0.015 0.165,0.026 0.236,0.043 0.183,0.044 0.404,0.044 0.587,0 0.072,-0.017 0.181,-0.058 0.236,-0.043 0.055,0.014 0.182,0.104 0.194,0.246l0.037 0.422c0.003,0.036 -0.03,0.066 -0.066,0.066l-1.389 0c-0.036,0 -0.069,-0.03 -0.065,-0.066l0.036 -0.422c0.013,-0.142 0.139,-0.232 0.194,-0.246z"/>
   <path class="fil1" d="M5.227 2.214c0.063,-0.017 0.146,0.007 0.219,0.028 0.019,0.005 0.037,0.01 0.055,0.015l0.007 0.001c0.083,0.02 0.175,0.029 0.269,0.029 0.096,0 0.19,-0.01 0.275,-0.03l0.055 -0.015c0.073,-0.021 0.156,-0.045 0.219,-0.028l0.005 0.001c0.045,0.014 0.117,0.058 0.17,0.125 0.04,0.05 0.071,0.114 0.077,0.189l0.037 0.422 0 0.012c0.001,0.038 -0.016,0.072 -0.041,0.097 -0.024,0.023 -0.056,0.039 -0.091,0.042 -0.458,0.014 -0.939,0 -1.401,0.001l-0.012 -0.001c-0.034,-0.003 -0.067,-0.019 -0.091,-0.042 -0.025,-0.025 -0.041,-0.059 -0.041,-0.097 0.009,-0.144 0.024,-0.29 0.037,-0.434 0.006,-0.075 0.038,-0.139 0.077,-0.189 0.055,-0.07 0.131,-0.114 0.175,-0.126zm0.177 0.179c-0.054,-0.015 -0.116,-0.033 -0.137,-0.027 -0.021,0.005 -0.059,0.03 -0.092,0.071 -0.022,0.029 -0.04,0.065 -0.043,0.106l-0.035 0.402 1.359 0 -0.034 -0.402c-0.004,-0.041 -0.022,-0.077 -0.044,-0.106 -0.032,-0.04 -0.069,-0.064 -0.09,-0.071l-0.002 0c-0.021,-0.006 -0.082,0.012 -0.137,0.027 -0.022,0.006 -0.044,0.013 -0.061,0.017 -0.098,0.023 -0.206,0.035 -0.311,0.035 -0.104,0 -0.208,-0.012 -0.305,-0.034l-0.007 -0.001c-0.017,-0.004 -0.039,-0.011 -0.061,-0.017z"/>
   <path class="fil3" d="M5.774 1.126c0.282,0 0.51,0.228 0.51,0.51 0,0.281 -0.228,0.509 -0.51,0.509 -0.281,0 -0.51,-0.228 -0.51,-0.509 0,-0.282 0.229,-0.51 0.51,-0.51z"/>
   <path class="fil1" d="M5.774 1.047c0.163,0 0.31,0.066 0.416,0.172 0.107,0.107 0.173,0.254 0.173,0.417 0,0.162 -0.066,0.309 -0.173,0.416 -0.106,0.106 -0.253,0.172 -0.416,0.172 -0.162,0 -0.31,-0.066 -0.416,-0.172 -0.107,-0.107 -0.172,-0.254 -0.172,-0.416 0,-0.163 0.065,-0.31 0.172,-0.417 0.106,-0.106 0.254,-0.172 0.416,-0.172zm0.305 0.284c-0.078,-0.078 -0.186,-0.127 -0.305,-0.127 -0.119,0 -0.227,0.049 -0.305,0.127 -0.078,0.078 -0.126,0.185 -0.126,0.305 0,0.119 0.048,0.226 0.126,0.304 0.078,0.078 0.186,0.127 0.305,0.127 0.119,0 0.227,-0.049 0.305,-0.127 0.078,-0.078 0.126,-0.185 0.126,-0.304 0,-0.12 -0.048,-0.227 -0.126,-0.305z"/>
   <path class="fil1" d="M5.016 4.03c-0.043,0 -0.078,-0.035 -0.078,-0.078 0,-0.044 0.035,-0.079 0.078,-0.079l3.654 0c0.043,0 0.079,0.035 0.079,0.079 0,0.043 -0.036,0.078 -0.079,0.078l-3.654 0z"/>
   <path class="fil1" d="M5.016 4.958c-0.043,0 -0.078,-0.035 -0.078,-0.078 0,-0.044 0.035,-0.079 0.078,-0.079l1.827 0c0.044,0 0.079,0.035 0.079,0.079 0,0.043 -0.035,0.078 -0.079,0.078l-1.827 0z"/>
   <path class="fil1" d="M7.016 3.131c-0.043,0 -0.078,-0.035 -0.078,-0.079 0,-0.043 0.035,-0.079 0.078,-0.079l1.654 0c0.043,0 0.079,0.036 0.079,0.079 0,0.044 -0.036,0.079 -0.079,0.079l-1.654 0z"/>
   <path class="fil1" d="M5.016 5.886c-0.043,0 -0.078,-0.035 -0.078,-0.079 0,-0.043 0.035,-0.078 0.078,-0.078l1.827 0c0.044,0 0.079,0.035 0.079,0.078 0,0.044 -0.035,0.079 -0.079,0.079l-1.827 0z"/>
   <polygon class="fil3" points="7.452,5.836 7.73,5.509 7.707,5.053 8.124,4.951 8.373,4.569 8.77,4.732 9.196,4.569 9.422,4.935 9.862,5.053 9.83,5.482 10.117,5.836 9.839,6.164 9.862,6.62 9.445,6.722 9.196,7.103 8.799,6.941 8.373,7.103 8.147,6.738 7.707,6.62 7.738,6.191 "/>
   <path class="fil1" d="M7.392 5.786l0.258 -0.304 -0.022 -0.425c-0.002,-0.039 0.025,-0.073 0.063,-0.081l0.384 -0.094 0.232 -0.355c0.022,-0.034 0.065,-0.045 0.1,-0.028l0.364 0.149 0.397 -0.152c0.038,-0.014 0.08,0.002 0.098,0.037l0.206 0.334 0.41 0.11c0.038,0.01 0.062,0.046 0.058,0.084l-0.029 0.396 0.267 0.33c0.024,0.03 0.022,0.072 -0.001,0.1l-0.258 0.304 0.022 0.425c0.001,0.039 -0.026,0.073 -0.063,0.08l-0.384 0.094 -0.232 0.356c-0.022,0.034 -0.065,0.045 -0.1,0.028l-0.364 -0.149 -0.397 0.152c-0.038,0.014 -0.08,-0.002 -0.098,-0.038l-0.207 -0.333 -0.41 -0.11c-0.037,-0.011 -0.061,-0.046 -0.058,-0.084l0.03 -0.396 -0.267 -0.33c-0.024,-0.03 -0.023,-0.072 0.001,-0.1zm0.398 -0.227l-0.236 0.279 0.244 0.301c0.013,0.016 0.02,0.036 0.019,0.058l-0.027 0.363 0.377 0.102c0.019,0.005 0.036,0.017 0.046,0.035l0.192 0.31 0.366 -0.14c0.018,-0.006 0.038,-0.007 0.057,0.001l0.338 0.138 0.213 -0.327c0.011,-0.016 0.027,-0.029 0.048,-0.034l0.353 -0.086 -0.019 -0.388c-0.002,-0.02 0.004,-0.041 0.018,-0.058l0.236 -0.278 -0.244 -0.302c-0.013,-0.015 -0.021,-0.035 -0.019,-0.057l0.027 -0.364 -0.377 -0.101c-0.019,-0.006 -0.036,-0.017 -0.047,-0.035l-0.191 -0.31 -0.366 0.14c-0.018,0.006 -0.038,0.006 -0.057,-0.001l-0.338 -0.138 -0.213 0.327c-0.011,0.016 -0.028,0.029 -0.048,0.034l-0.354 0.086 0.02 0.388c0.002,0.02 -0.004,0.041 -0.018,0.057z"/>
   <path class="fil1" d="M8.772 6.926c0.018,-0.04 0.065,-0.057 0.104,-0.038 0.04,0.018 0.057,0.065 0.038,0.104l-0.501 1.075c-0.018,0.039 -0.065,0.057 -0.104,0.038 -0.017,-0.008 -0.03,-0.02 -0.038,-0.036l-0.223 -0.362 -0.427 0.063c-0.043,0.006 -0.083,-0.023 -0.09,-0.066 -0.002,-0.016 0.001,-0.031 0.007,-0.045l0.455 -0.976c0.018,-0.04 0.065,-0.057 0.105,-0.038 0.039,0.018 0.056,0.065 0.038,0.104l-0.394 0.844 0.334 -0.049c0.03,-0.004 0.062,0.01 0.079,0.037l0.177 0.288 0.44 -0.943z"/>
   <path class="fil1" d="M8.919 7.575c-0.018,-0.039 -0.001,-0.086 0.039,-0.105 0.039,-0.018 0.086,-0.001 0.104,0.039l0.168 0.36 0.177 -0.288c0.017,-0.027 0.048,-0.041 0.078,-0.036l0.335 0.048 -0.394 -0.844c-0.018,-0.039 -0.001,-0.086 0.038,-0.104 0.04,-0.019 0.087,-0.002 0.105,0.038l0.455 0.976c0.006,0.014 0.009,0.029 0.006,0.045 -0.006,0.043 -0.046,0.072 -0.089,0.066l-0.427 -0.063 -0.224 0.362c-0.007,0.016 -0.02,0.028 -0.037,0.036 -0.039,0.019 -0.086,0.001 -0.104,-0.038l-0.23 -0.492z"/>
   <path class="fil4" d="M8.784 5.134c0.388,0 0.702,0.315 0.702,0.702 0,0.388 -0.314,0.702 -0.702,0.702 -0.387,0 -0.702,-0.314 -0.702,-0.702 0,-0.387 0.315,-0.702 0.702,-0.702z"/>
   <path class="fil1" d="M8.784 5.056c0.216,0 0.411,0.087 0.552,0.228 0.142,0.142 0.229,0.337 0.229,0.552 0,0.216 -0.087,0.411 -0.229,0.552l-0.004 0.005c-0.141,0.139 -0.335,0.224 -0.548,0.224 -0.215,0 -0.41,-0.087 -0.552,-0.229 -0.141,-0.141 -0.228,-0.336 -0.228,-0.552 0,-0.215 0.087,-0.41 0.229,-0.551 0.141,-0.142 0.336,-0.229 0.551,-0.229zm0.441 0.34c-0.113,-0.113 -0.268,-0.183 -0.441,-0.183 -0.172,0 -0.328,0.07 -0.44,0.183 -0.113,0.112 -0.183,0.268 -0.183,0.44 0,0.173 0.07,0.328 0.183,0.441 0.112,0.113 0.268,0.183 0.44,0.183 0.171,0 0.325,-0.069 0.437,-0.179l0.004 -0.004c0.113,-0.113 0.183,-0.268 0.183,-0.441 0,-0.172 -0.07,-0.328 -0.183,-0.44z"/>
  </g>
 </g>
</svg>
