<?xml version="1.0" encoding="UTF-8"?>
<!DOCTYPE svg PUBLIC "-//W3C//DTD SVG 1.1//EN" "http://www.w3.org/Graphics/SVG/1.1/DTD/svg11.dtd">
<!-- Creator: CorelDRAW 2018 (64-Bit) -->
<svg xmlns="http://www.w3.org/2000/svg" xml:space="preserve" width="283px" height="189px" version="1.1" style="shape-rendering:geometricPrecision; text-rendering:geometricPrecision; image-rendering:optimizeQuality; fill-rule:evenodd; clip-rule:evenodd"
viewBox="0 0 2503.477 1673.909"
 xmlns:xlink="http://www.w3.org/1999/xlink">
 <defs>
  <style type="text/css">
   <![CDATA[
    .fil2 {fill:#8D9AA8}
    .fil0 {fill:#A3AEBA}
    .fil3 {fill:#EAEDF2;fill-rule:nonzero}
    .fil1 {fill:white;fill-rule:nonzero}
   ]]>
  </style>
 </defs>
 <g id="Layer_x0020_1">
  <metadata id="CorelCorpID_0Corel-Layer"/>
  <g id="_3028485585248">
   <rect class="fil0" y="-0.001" width="2503.477" height="1673.909"/>
   <path class="fil1" d="M1157.203 1237.293c-8.237,4.358 -18.517,6.537 -30.819,6.537 -15.889,0 -28.59,-5.101 -38.13,-15.332 -9.566,-10.228 -14.348,-23.647 -14.348,-40.254 0,-17.827 5.395,-32.256 16.13,-43.254 10.733,-11.027 24.362,-16.527 40.864,-16.527 10.575,0 19.342,1.541 26.303,4.596l0 13.949c-7.996,-4.464 -16.818,-6.696 -26.463,-6.696 -12.807,0 -23.195,4.278 -31.166,12.834 -7.971,8.556 -11.958,20.007 -11.958,34.33 0,13.602 3.721,24.443 11.159,32.494 7.467,8.076 17.218,12.116 29.334,12.116 11.187,0 20.913,-2.498 29.094,-7.467l0 12.674zm54.336 6.537c-11.769,0 -21.176,-3.72 -28.216,-11.159 -7.014,-7.441 -10.549,-17.326 -10.549,-29.627 0,-13.392 3.665,-23.833 10.974,-31.38 7.333,-7.519 17.217,-11.265 29.677,-11.265 11.877,0 21.151,3.641 27.819,10.974 6.671,7.306 9.992,17.456 9.992,30.423 0,12.726 -3.587,22.904 -10.762,30.556 -7.201,7.652 -16.846,11.478 -28.935,11.478zm0.929 -72.695c-8.182,0 -14.666,2.789 -19.449,8.37 -4.783,5.578 -7.173,13.258 -7.173,23.087 0,9.435 2.418,16.873 7.253,22.319 4.836,5.448 11.293,8.184 19.369,8.184 8.265,0 14.614,-2.684 19.053,-8.024 4.436,-5.34 6.643,-12.939 6.643,-22.798 0,-9.962 -2.207,-17.642 -6.643,-23.034 -4.439,-5.421 -10.788,-8.104 -19.053,-8.104zm127.218 70.835l-12.779 0 0 -13.552 -0.294 0c-5.925,10.283 -15.063,15.412 -27.42,15.412 -9.989,0 -18.013,-3.56 -23.991,-10.707 -6.005,-7.123 -9.008,-16.846 -9.008,-29.148 0,-13.18 3.322,-23.727 9.965,-31.673 6.643,-7.943 15.49,-11.903 26.541,-11.903 10.949,0 18.92,4.306 23.913,12.915l0.294 0 0 -49.343 12.779 0 0 117.999zm-12.779 -36.029l0 -11.77c0,-6.432 -2.126,-11.877 -6.377,-16.341 -4.25,-4.464 -9.645,-6.695 -16.18,-6.695 -7.786,0 -13.924,2.842 -18.388,8.556 -4.463,5.711 -6.695,13.602 -6.695,23.672 0,9.193 2.151,16.421 6.429,21.761 4.278,5.315 10.045,7.971 17.245,7.971 7.12,0 12.887,-2.576 17.323,-7.705 4.436,-5.129 6.643,-11.639 6.643,-19.449zm102.667 -0.638l-56.277 0c0.214,8.875 2.606,15.729 7.175,20.564 4.57,4.81 10.841,7.228 18.84,7.228 8.98,0 17.217,-2.95 24.761,-8.875l0 11.983c-7.014,5.102 -16.286,7.627 -27.792,7.627 -11.265,0 -20.114,-3.615 -26.544,-10.84 -6.454,-7.253 -9.67,-17.431 -9.67,-30.556 0,-12.408 3.534,-22.505 10.549,-30.318 7.039,-7.81 15.781,-11.717 26.198,-11.717 10.441,0 18.492,3.375 24.204,10.123 5.714,6.723 8.556,16.103 8.556,28.086l0 6.695zm-13.073 -10.813c-0.052,-7.361 -1.832,-13.1 -5.315,-17.217 -3.507,-4.092 -8.367,-6.138 -14.613,-6.138 -6.003,0 -11.132,2.151 -15.33,6.457 -4.198,4.303 -6.801,9.936 -7.785,16.898l43.043 0z"/>
   <ellipse class="fil2" cx="1251.738" cy="962.33" rx="628.839" ry="68.474"/>
   <path class="fil2" d="M928.163 961.686c-20.333,0 -36.963,-16.63 -36.963,-36.963l0 -381.228 0 -76.245c0,-20.333 16.63,-36.963 36.963,-36.963l235.666 0c20.335,0 36.965,16.63 36.965,36.963l0 6.289c0,18.149 14.843,32.991 32.992,32.991l267.366 0c20.333,0 36.963,16.635 36.963,36.965l0 16.173 2.709 402.018 -612.661 0z"/>
   <path class="fil3" d="M928.163 970.544c-12.583,0 -24.031,-5.155 -32.334,-13.452l-0.035 -0.035c-8.297,-8.303 -13.451,-19.748 -13.451,-32.334l0 -457.473c0,-12.583 5.154,-24.031 13.451,-32.334l0.035 -0.035c8.303,-8.297 19.751,-13.451 32.334,-13.451l235.666 0c12.61,0 24.071,5.154 32.368,13.451 8.3,8.3 13.455,19.758 13.455,32.369l0 6.289c0,6.653 2.706,12.686 7.059,17.039l0.035 0.035c4.354,4.353 10.387,7.06 17.04,7.06l267.366 0c12.576,0 24.034,5.161 32.349,13.471 8.317,8.283 13.471,19.743 13.471,32.351l0 16.173 -0.03 0.728 2.704 401.255c0.018,4.871 -3.916,8.84 -8.787,8.857l-0.035 0.036 -612.661 0zm-19.864 -25.957c5.094,5.084 12.129,8.242 19.864,8.242l603.779 0 -2.644 -392.312 -0.04 -0.849 0 -16.173c0,-7.72 -3.166,-14.749 -8.262,-19.846l0 -0.035c-5.074,-5.074 -12.099,-8.227 -19.844,-8.227l-267.366 0c-11.466,0 -21.91,-4.697 -29.507,-12.266l-0.055 -0.056c-7.582,-7.597 -12.287,-18.048 -12.287,-29.526l0 -6.289c0,-7.723 -3.166,-14.75 -8.262,-19.846 -5.094,-5.094 -12.124,-8.26 -19.846,-8.26l-235.666 0c-7.735,0 -14.77,3.158 -19.864,8.242 -5.084,5.094 -8.242,12.129 -8.242,19.864l0 457.473c0,7.735 3.158,14.77 8.242,19.864z"/>
   <path class="fil0" d="M965.362 840.542l0 84.181c0,20.333 -16.63,36.963 -36.963,36.963l68.741 0 166.689 0 337.323 0 79.349 0c17.478,0 31.779,-14.297 31.779,-31.776l0 -338.466c0,-17.478 -14.301,-31.776 -31.779,-31.776l-583.361 0c-17.478,0 -31.778,14.298 -31.778,31.776l0 249.098z"/>
   <path class="fil3" d="M974.219 840.542l0 84.181c0,10.567 -3.635,20.331 -9.711,28.106l615.993 0c6.294,0 12.028,-2.583 16.183,-6.738 4.155,-4.155 6.738,-9.887 6.738,-16.181l0 -338.466c0,-6.293 -2.583,-12.025 -6.738,-16.18 -4.155,-4.155 -9.889,-6.738 -16.183,-6.738l-583.361 0c-6.294,0 -12.028,2.583 -16.183,6.738 -4.155,4.155 -6.738,9.887 -6.738,16.18l0 249.098zm-17.714 84.181l0 -333.279c0,-11.182 4.571,-21.344 11.93,-28.703 7.358,-7.358 17.523,-11.93 28.705,-11.93l583.361 0c11.182,0 21.347,4.572 28.706,11.93 7.358,7.359 11.93,17.521 11.93,28.703l0 338.466c0,11.182 -4.572,21.345 -11.93,28.703 -7.359,7.359 -17.524,11.931 -28.706,11.931l-652.102 0 0 -17.715c7.735,0 14.769,-3.158 19.863,-8.242 5.084,-5.094 8.243,-12.129 8.243,-19.864z"/>
   <path class="fil3" d="M1381.627 820.884c-4.298,2.31 -9.658,0.701 -11.968,-3.597 -2.309,-4.298 -0.7,-9.658 3.598,-11.968l82.492 -44.64 -82.492 -44.641c-4.298,-2.309 -5.907,-7.669 -3.598,-11.967 2.31,-4.298 7.67,-5.908 11.968,-3.598l96.8 52.383c1.509,0.788 2.807,2.023 3.673,3.638 2.309,4.298 0.7,9.658 -3.598,11.967l-96.875 52.423z"/>
   <path class="fil3" d="M1204.387 805.319c4.298,2.31 5.907,7.67 3.598,11.968 -2.31,4.298 -7.67,5.907 -11.968,3.597l-96.878 -52.423c-4.298,-2.309 -5.907,-7.669 -3.597,-11.967 0.866,-1.615 2.164,-2.85 3.673,-3.638l96.802 -52.383c4.298,-2.31 9.658,-0.7 11.968,3.598 2.309,4.298 0.7,9.658 -3.598,11.967l-82.495 44.641 82.495 44.64z"/>
   <path class="fil3" d="M1323.561 651.115c1.812,-4.526 6.959,-6.725 11.485,-4.913 4.527,1.813 6.726,6.96 4.913,11.486l-85.878 212.554c-1.813,4.526 -6.959,6.726 -11.486,4.913 -4.526,-1.813 -6.726,-6.959 -4.913,-11.486l85.879 -212.554z"/>
  </g>
 </g>
</svg>
