<?xml version="1.0" encoding="UTF-8"?>
<!DOCTYPE svg PUBLIC "-//W3C//DTD SVG 1.1//EN" "http://www.w3.org/Graphics/SVG/1.1/DTD/svg11.dtd">
<!-- Creator: CorelDRAW 2018 (64-Bit) -->
<svg xmlns="http://www.w3.org/2000/svg" xml:space="preserve" width="0.504165in" height="0.406256in" version="1.1" style="shape-rendering:geometricPrecision; text-rendering:geometricPrecision; image-rendering:optimizeQuality; fill-rule:evenodd; clip-rule:evenodd"
viewBox="0 0 11.68 9.41"
 xmlns:xlink="http://www.w3.org/1999/xlink">
 <defs>
  <style type="text/css">
   <![CDATA[
    .str0 {stroke:gray;stroke-width:0.32;stroke-linecap:round;stroke-linejoin:round;stroke-miterlimit:2.61313}
    .str1 {stroke:gray;stroke-width:0.32;stroke-linecap:round;stroke-linejoin:round;stroke-miterlimit:10}
    .fil0 {fill:none}
    .fil1 {fill:none;fill-rule:nonzero}
    .fil2 {fill:#00F4FF}
    .fil3 {fill:white}
   ]]>
  </style>
 </defs>
 <g id="Layer_x0020_1">
  <metadata id="CorelCorpID_0Corel-Layer"/>
  <g id="_2855232968608">
   <rect class="fil0 str0" x="2.09" y="0.16" width="7.5" height="1.45" rx="0.05" ry="0.06"/>
   <line class="fil1 str1" x1="7.79" y1="7.08" x2="8.01" y2= "7.08" />
   <path class="fil0 str0" d="M1.19 4.66l0 4.52c0,0.04 0.03,0.07 0.08,0.07l9.14 0c0.04,0 0.08,-0.03 0.08,-0.07l0 -4.52"/>
   <path class="fil2 str0" d="M0.17 4.11c-0.06,-0.57 0.21,-1.17 1.2,-1.87l8.94 0c1,0.7 1.26,1.3 1.2,1.87 -3.78,0 -7.56,0 -11.34,0z"/>
   <path class="fil3 str0" d="M2.24 4.11c-0.04,-0.57 0.13,-1.17 0.77,-1.87l5.68 0c0.63,0.7 0.8,1.3 0.77,1.87 -2.4,0 -4.81,0 -7.21,0z"/>
   <path class="fil2 str0" d="M4.66 4.11c-0.01,-0.57 0.04,-1.17 0.25,-1.87l1.86 0c0.21,0.7 0.26,1.3 0.25,1.87 -0.79,0 -1.57,0 -2.36,0z"/>
   <path class="fil0 str0" d="M7.28 9.25l2.13 0c0.02,0 0.03,-0.01 0.03,-0.03l0 -4.3 -2.2 0 0 4.3c0,0.02 0.01,0.03 0.03,0.03z"/>
   <path class="fil0 str0" d="M2.28 8.45l3.72 0c0.03,0 0.05,-0.02 0.05,-0.05l0 -3.48 -3.83 0 0 3.48c0,0.03 0.02,0.05 0.05,0.05z"/>
  </g>
 </g>
</svg>
