<?xml version="1.0" encoding="UTF-8"?>
<!DOCTYPE svg PUBLIC "-//W3C//DTD SVG 1.1//EN" "http://www.w3.org/Graphics/SVG/1.1/DTD/svg11.dtd">
<!-- Creator: CorelDRAW 2018 (64-Bit) -->
<svg xmlns="http://www.w3.org/2000/svg" xml:space="preserve" width="180px" height="180px" version="1.1" style="shape-rendering:geometricPrecision; text-rendering:geometricPrecision; image-rendering:optimizeQuality; fill-rule:evenodd; clip-rule:evenodd"
viewBox="0 0 20.57 20.57"
 xmlns:xlink="http://www.w3.org/1999/xlink">
 <defs>
  <style type="text/css">
   <![CDATA[
    .fil0 {fill:#DCE1E6}
    .fil1 {fill:white}
    .fil2 {fill:white;fill-rule:nonzero}
   ]]>
  </style>
 </defs>
 <g id="Layer_x0020_1">
  <metadata id="CorelCorpID_0Corel-Layer"/>
  <g id="_2044678931600">
   <rect class="fil0" width="20.57" height="20.57" rx="10.285" ry="10.285"/>
   <g>
    <path class="fil1" d="M7.202 6.472l8.433 0c0.178,0 0.324,0.146 0.324,0.324l0 5.469c0,0.179 -0.146,0.324 -0.324,0.324l-8.433 0c-0.178,0 -0.324,-0.145 -0.324,-0.324l0 -0.279 2.008 -1.16c0.073,-0.042 0.098,-0.135 0.056,-0.207l-0.062 -0.11c-0.261,-0.452 -0.621,-0.795 -0.99,-0.985 -0.349,-0.179 -0.709,-0.222 -1.012,-0.095l0 -2.633c0,-0.178 0.146,-0.324 0.324,-0.324zm-0.324 5.163l0 -1.863 0.041 -0.024 0.009 -0.005c0.227,-0.131 0.526,-0.102 0.824,0.052 0.313,0.16 0.621,0.454 0.851,0.844l-1.725 0.996z"/>
    <path class="fil1" d="M10.158 12.886l2.521 0c0.018,0 0.032,0.015 0.032,0.033l0 0.545c0,0.017 -0.014,0.032 -0.032,0.032l-2.521 0c-0.017,0 -0.032,-0.015 -0.032,-0.032l0 -0.545c0,-0.018 0.015,-0.033 0.032,-0.033z"/>
    <path class="fil2" d="M9.598 14.098c-0.084,0 -0.152,-0.069 -0.152,-0.153 0,-0.084 0.068,-0.152 0.152,-0.152l3.641 0c0.084,0 0.152,0.068 0.152,0.152 0,0.084 -0.068,0.153 -0.152,0.153l-3.641 0z"/>
    <path class="fil2" d="M6.919 9.748l-0.837 0.483c-0.227,0.131 -0.351,0.405 -0.367,0.739 -0.017,0.352 0.083,0.766 0.305,1.16l2.583 -1.491c-0.23,-0.39 -0.538,-0.684 -0.851,-0.844 -0.298,-0.154 -0.597,-0.183 -0.824,-0.052l-0.009 0.005z"/>
    <path class="fil2" d="M5.722 9.653c0.003,0.007 0.006,0.014 0.008,0.022l-0.008 -0.022zm-0.217 0.283l-1.274 0.768c-0.03,-0.056 -0.068,-0.107 -0.113,-0.152 -0.029,-0.029 -0.06,-0.055 -0.094,-0.078l1.379 -0.832c0.025,0.094 0.059,0.193 0.102,0.294zm-1.597 0.837l-0.005 -0.006 0 0 0.005 0.006z"/>
    <path class="fil2" d="M4.084 11.501l0.75 1.995 -0.324 0 -0.698 -1.855c0.102,-0.024 0.195,-0.073 0.272,-0.14z"/>
    <path class="fil2" d="M6.833 9.447c-0.136,-0.22 -0.294,-0.396 -0.443,-0.505 -0.131,-0.095 -0.242,-0.136 -0.304,-0.101l-0.364 0.21c-0.061,0.036 -0.081,0.153 -0.064,0.314 0.02,0.185 0.093,0.409 0.215,0.636l0.96 -0.554z"/>
    <path class="fil2" d="M3.659 10.667c-0.095,0 -0.181,0.038 -0.243,0.1l-0.007 0.007c-0.058,0.061 -0.093,0.144 -0.093,0.237 0,0.095 0.038,0.181 0.1,0.243 0.062,0.062 0.148,0.1 0.243,0.1 0.095,0 0.181,-0.038 0.244,-0.1 0.062,-0.062 0.1,-0.148 0.1,-0.243 0,-0.096 -0.038,-0.182 -0.1,-0.244l0 0c-0.063,-0.062 -0.149,-0.1 -0.244,-0.1z"/>
    <path class="fil2" d="M3.301 14.098c-0.084,0 -0.152,-0.069 -0.152,-0.153 0,-0.084 0.068,-0.152 0.152,-0.152l2.945 0c0.084,0 0.152,0.068 0.152,0.152 0,0.084 -0.068,0.153 -0.152,0.153l-2.945 0z"/>
   </g>
  </g>
 </g>
</svg>
