<?xml version="1.0" encoding="UTF-8"?>
<!DOCTYPE svg PUBLIC "-//W3C//DTD SVG 1.1//EN" "http://www.w3.org/Graphics/SVG/1.1/DTD/svg11.dtd">
<!-- Creator: CorelDRAW 2018 (64-Bit) -->
<svg xmlns="http://www.w3.org/2000/svg" xml:space="preserve" width="20px" height="20px" version="1.1" style="shape-rendering:geometricPrecision; text-rendering:geometricPrecision; image-rendering:optimizeQuality; fill-rule:evenodd; clip-rule:evenodd"
viewBox="0 0 2.815 2.798"
 xmlns:xlink="http://www.w3.org/1999/xlink">
 <defs>
  <style type="text/css">
   <![CDATA[
    .fil0 {fill:#1877F2}
   ]]>
  </style>
 </defs>
 <g id="Layer_x0020_1">
  <metadata id="CorelCorpID_0Corel-Layer"/>
  <path class="fil0" d="M1.407 0c0.778,0 1.408,0.63 1.408,1.407 0,0.703 -0.515,1.285 -1.188,1.391l0 -0.968 0.367 0 0.055 -0.427 -0.422 0 0 -0.271c0,-0.123 0.035,-0.207 0.211,-0.207l0.224 0 0 -0.378c-0.105,-0.011 -0.212,-0.017 -0.318,-0.017 -0.003,0 -0.007,0 -0.009,0 -0.326,0 -0.548,0.198 -0.548,0.562l0 0.312 -0.365 0 0 0.426 0.365 0 0 0.968c-0.672,-0.106 -1.187,-0.688 -1.187,-1.391 0,-0.777 0.63,-1.407 1.407,-1.407z"/>
 </g>
</svg>
