<?xml version="1.0" encoding="UTF-8"?>
<!DOCTYPE svg PUBLIC "-//W3C//DTD SVG 1.1//EN" "http://www.w3.org/Graphics/SVG/1.1/DTD/svg11.dtd">
<!-- Creator: CorelDRAW 2018 (64-Bit) -->
<svg xmlns="http://www.w3.org/2000/svg" xml:space="preserve" width="17px" height="13px" version="1.1" style="shape-rendering:geometricPrecision; text-rendering:geometricPrecision; image-rendering:optimizeQuality; fill-rule:evenodd; clip-rule:evenodd"
viewBox="0 0 0.67 0.511"
 xmlns:xlink="http://www.w3.org/1999/xlink">
 <defs>
  <style type="text/css">
   <![CDATA[
    .fil0 {fill:#ffffff;fill-rule:nonzero}
   ]]>
  </style>
 </defs>
 <g id="Layer_x0020_1">
  <metadata id="CorelCorpID_0Corel-Layer"/>
  <g id="_2712936566464">
   <path class="fil0" d="M0.092 0.384c0.011,0 0.02,0.009 0.02,0.02 0,0.011 -0.009,0.02 -0.02,0.02l-0.072 0c-0.011,0 -0.02,-0.009 -0.02,-0.02 0,-0.011 0.009,-0.02 0.02,-0.02l0.072 0z"/>
   <path class="fil0" d="M0.65 0.384c0.011,0 0.02,0.009 0.02,0.02 0,0.011 -0.009,0.02 -0.02,0.02l-0.389 0c-0.011,0 -0.02,-0.009 -0.02,-0.02 0,-0.011 0.009,-0.02 0.02,-0.02l0.389 0z"/>
   <path class="fil0" d="M0.177 0.511c-0.029,0 -0.055,-0.012 -0.074,-0.031 -0.019,-0.019 -0.031,-0.045 -0.031,-0.074l0 -0.004c0,-0.029 0.012,-0.055 0.031,-0.074 0.019,-0.019 0.045,-0.03 0.074,-0.03 0.028,0 0.054,0.011 0.073,0.03 0.019,0.019 0.031,0.045 0.031,0.074l0 0.004c0,0.029 -0.012,0.055 -0.031,0.074 -0.019,0.019 -0.045,0.031 -0.073,0.031zm0 -0.04c0.017,0 0.034,-0.007 0.045,-0.019 0.012,-0.012 0.02,-0.028 0.02,-0.046l0 -0.004c0,-0.018 -0.008,-0.034 -0.02,-0.046 -0.011,-0.012 -0.028,-0.019 -0.045,-0.019 -0.018,0 -0.035,0.007 -0.046,0.019 -0.012,0.012 -0.019,0.028 -0.019,0.046l0 0.004c0,0.018 0.007,0.034 0.019,0.046 0.011,0.012 0.028,0.019 0.046,0.019z"/>
   <path class="fil0" d="M0.56 0.126c-0.011,0 -0.02,-0.009 -0.02,-0.019 0,-0.011 0.009,-0.02 0.02,-0.02l0.09 0c0.011,0 0.02,0.009 0.02,0.02 0,0.01 -0.009,0.019 -0.02,0.019l-0.09 0z"/>
   <path class="fil0" d="M0.02 0.126c-0.011,0 -0.02,-0.009 -0.02,-0.019 0,-0.011 0.009,-0.02 0.02,-0.02l0.361 0c0.01,0 0.019,0.009 0.019,0.02 0,0.01 -0.009,0.019 -0.019,0.019l-0.361 0z"/>
   <path class="fil0" d="M0.475 0.174c0.018,0 0.034,-0.008 0.046,-0.02 0.012,-0.011 0.019,-0.028 0.019,-0.045l0 -0.005c0,-0.017 -0.007,-0.034 -0.019,-0.045 -0.012,-0.012 -0.028,-0.02 -0.046,-0.02 -0.018,0 -0.034,0.008 -0.046,0.02l-0.001 0c-0.011,0.012 -0.018,0.028 -0.018,0.045l0 0.005c0,0.017 0.008,0.034 0.019,0.046 0.012,0.011 0.028,0.019 0.046,0.019zm0 0.039c-0.028,0 -0.054,-0.012 -0.073,-0.031 -0.019,-0.019 -0.031,-0.045 -0.031,-0.073l0 -0.005c0,-0.028 0.011,-0.053 0.029,-0.072l0.002 -0.001c0.018,-0.019 0.045,-0.031 0.073,-0.031 0.029,0 0.055,0.012 0.074,0.031 0.019,0.019 0.031,0.045 0.031,0.073l0 0.005c0,0.028 -0.012,0.054 -0.031,0.073 -0.019,0.019 -0.045,0.031 -0.074,0.031z"/>
  </g>
 </g>
</svg>
