<?xml version="1.0" encoding="UTF-8"?>
<!DOCTYPE svg PUBLIC "-//W3C//DTD SVG 1.1//EN" "http://www.w3.org/Graphics/SVG/1.1/DTD/svg11.dtd">
<!-- Creator: CorelDRAW 2018 (64-Bit) -->
<svg xmlns="http://www.w3.org/2000/svg" xml:space="preserve" width="73px" height="71px" version="1.1" style="shape-rendering:geometricPrecision; text-rendering:geometricPrecision; image-rendering:optimizeQuality; fill-rule:evenodd; clip-rule:evenodd"
viewBox="0 0 4.384 4.253"
 xmlns:xlink="http://www.w3.org/1999/xlink">
 <defs>
  <style type="text/css">
   <![CDATA[
    .fil2 {fill:#001428}
    .fil0 {fill:#00F4FF}
    .fil1 {fill:white}
    .fil4 {fill:#00F4FF;fill-rule:nonzero}
    .fil3 {fill:white;fill-rule:nonzero}
   ]]>
  </style>
 </defs>
 <g id="Layer_x0020_1">
  <metadata id="CorelCorpID_0Corel-Layer"/>
  <g id="_1514112840080">
   <g>
    <path class="fil0" d="M2.433 2.817l0.368 -0.213 0.29 -0.167 0.227 0.132 -1.113 0.642 0 -0.263 0.228 -0.131zm0.925 -0.549l0 0.015 -0.013 0.007 -0.886 -0.511 0 0.263 0.131 0.076 0 0 0.403 0.232 0.124 0.072 0.228 0.131 0.228 -0.131 0.013 -0.008 0 -0.015 0 -0.263 -0.659 -0.38 0 0 -0.227 -0.131 -0.227 0.131 0.885 0.512zm0.228 -1.448l0 1.285 -0.228 -0.131 0 -0.759 0 -0.263 0.228 -0.132zm-0.254 0.41l-0.899 0.519 0 1.037 -0.228 0.132 0 -1.301 1.127 -0.65 0 0.263z"/>
    <path class="fil1" d="M0.811 0.797l1.113 -0.643 0 0.263 -0.657 0.38 -0.228 0.131 -0.228 -0.131zm0.482 0.015l0.899 0.519 0.899 -0.519 0.227 0.132 -1.126 0.65 -1.127 -0.65 0.228 -0.132zm0.886 -0.541l0.013 -0.008 0.013 0.007 0 1.023 0.228 -0.132 0 -0.15 0 0 0 -0.466 0 -0.143 0 -0.263 -0.228 -0.131 -0.013 -0.008 -0.013 0.008 -0.228 0.131 0 0.76 0 0 0 0.262 0.228 0.132 0 -1.022zm0.938 0.526l-0.369 -0.213 -0.289 -0.167 0 -0.263 1.113 0.643 -0.227 0.131 -0.228 -0.131z"/>
    <path class="fil2" d="M1.026 1.215l0 0.425 0 0.334 -0.228 0.131 0 -1.285 0.228 0.131 0 0.264zm0.013 1.075l-0.013 -0.007 0 -0.015 0.885 -0.512 -0.228 -0.131 -0.13 0.075 0 0 -0.404 0.233 -0.123 0.071 -0.228 0.132 0 0.263 0 0.015 0.013 0.008 0.228 0.131 0.658 -0.38 0 0 0.227 -0.131 0 -0.263 -0.885 0.511zm1.139 0.921l-1.113 -0.642 0.228 -0.132 0.658 0.38 0.227 0.131 0 0.263zm-0.227 -0.425l0 -1.037 -0.899 -0.519 0 -0.263 1.126 0.65 0 1.301 -0.227 -0.132z"/>
   </g>
   <g>
    <path class="fil3" d="M0.137 3.939l0 0.306 -0.049 0 0 -0.305c-0.001,0 -0.005,0 -0.011,-0.001 -0.006,0 -0.014,-0.002 -0.023,-0.004 -0.009,-0.002 -0.018,-0.005 -0.028,-0.01 -0.009,-0.004 -0.018,-0.01 -0.026,-0.017l0.035 -0.034c0.006,0.005 0.013,0.009 0.022,0.012 0.008,0.003 0.018,0.005 0.031,0.005l0 -0.202 0.243 0c0.025,0 0.048,0.002 0.068,0.006 0.02,0.004 0.037,0.011 0.052,0.021 0.014,0.009 0.025,0.022 0.033,0.038 0.008,0.016 0.012,0.036 0.012,0.061 0,0.014 -0.002,0.029 -0.006,0.043 -0.003,0.014 -0.009,0.027 -0.018,0.039 -0.008,0.012 -0.019,0.022 -0.033,0.029 -0.015,0.008 -0.032,0.012 -0.053,0.013l0.16 0.306 -0.056 0 -0.155 -0.306 -0.198 0zm0 -0.201l0 0.153 0.197 0c0.018,0 0.034,-0.001 0.048,-0.003 0.014,-0.002 0.026,-0.005 0.035,-0.011 0.01,-0.005 0.017,-0.013 0.022,-0.023 0.005,-0.01 0.008,-0.023 0.008,-0.039 0,-0.03 -0.009,-0.05 -0.027,-0.061 -0.019,-0.011 -0.048,-0.016 -0.089,-0.016l-0.194 0zm0.58 -0.049l0 0.556 -0.049 0 0 -0.556 0.049 0zm0.662 0.202c0,0.001 0,0.002 0,0.003 0,0.002 0,0.004 0,0.007 0.001,0.004 0.001,0.009 0.002,0.015 0,0.006 0.001,0.014 0.001,0.024 0,0.002 0,0.004 0.001,0.006 0,0.002 0,0.004 0,0.006 0.001,0.006 0.001,0.012 0.001,0.018 0,0.005 0,0.011 0,0.017 0,0.015 -0.001,0.029 -0.003,0.043 -0.001,0.014 -0.005,0.028 -0.01,0.043 -0.009,0.027 -0.023,0.052 -0.041,0.074 -0.018,0.022 -0.039,0.04 -0.062,0.055 -0.023,0.016 -0.048,0.027 -0.075,0.035 -0.026,0.009 -0.053,0.013 -0.079,0.013 -0.038,0 -0.074,-0.008 -0.108,-0.023 -0.034,-0.015 -0.064,-0.036 -0.09,-0.062 -0.025,-0.026 -0.046,-0.056 -0.06,-0.09 -0.015,-0.034 -0.023,-0.07 -0.023,-0.109 0,-0.038 0.008,-0.075 0.023,-0.11 0.015,-0.034 0.036,-0.064 0.062,-0.09 0.025,-0.026 0.055,-0.047 0.089,-0.062 0.034,-0.014 0.07,-0.022 0.107,-0.022 0.02,0 0.042,0.002 0.066,0.004 0.024,0.003 0.048,0.01 0.072,0.021l-0.019 0.047c-0.021,-0.01 -0.043,-0.017 -0.064,-0.019 -0.022,-0.003 -0.04,-0.004 -0.054,-0.004 -0.033,0 -0.063,0.007 -0.092,0.019 -0.028,0.013 -0.053,0.031 -0.073,0.053 -0.021,0.022 -0.038,0.047 -0.05,0.075 -0.012,0.029 -0.018,0.058 -0.018,0.088 0,0.034 0.006,0.064 0.019,0.093 0.013,0.028 0.03,0.053 0.052,0.074 0.021,0.021 0.046,0.038 0.074,0.05 0.028,0.012 0.057,0.018 0.087,0.018 0.025,0 0.051,-0.005 0.078,-0.016 0.026,-0.01 0.05,-0.024 0.072,-0.042 0.021,-0.018 0.039,-0.04 0.052,-0.064 0.014,-0.025 0.021,-0.051 0.021,-0.079 0,-0.008 -0.001,-0.017 -0.001,-0.026 -0.001,-0.008 -0.001,-0.017 -0.002,-0.025 0,-0.001 0,-0.003 0,-0.004 -0.001,-0.002 -0.001,-0.003 -0.001,-0.005l-0.2 0 0 -0.049 0.246 0zm0.513 0.051l-0.348 0 0 0.303 -0.049 0 0 -0.556 0.049 0 0 0.204 0.348 0 0 -0.204 0.048 0 0 0.556 -0.048 0 0 -0.303zm0.636 -0.253l0 0.049 -0.197 0 0 0.507 -0.049 0 0 -0.507 -0.199 0 0 -0.049 0.445 0z"/>
    <path class="fil4" d="M3.116 3.689l0 0.564 -0.396 -0.453 0 0.445 -0.049 0 0 -0.568 0.396 0.45 0 -0.438 0.049 0zm0.446 0.25l-0.146 0 -0.148 0.306 -0.057 0 0.278 -0.558 0.274 0.558 -0.055 0 -0.146 -0.306zm-0.123 -0.048l0.101 0 -0.05 -0.103 -0.051 0.103zm0.663 -0.207c0.039,0 0.075,0.007 0.11,0.022 0.034,0.015 0.064,0.035 0.089,0.061 0.026,0.025 0.046,0.056 0.061,0.09 0.014,0.035 0.022,0.071 0.022,0.11 0,0.039 -0.008,0.076 -0.022,0.11 -0.015,0.035 -0.035,0.065 -0.061,0.09 -0.025,0.026 -0.055,0.046 -0.089,0.061 -0.035,0.015 -0.071,0.023 -0.11,0.023 -0.039,0 -0.076,-0.008 -0.111,-0.023 -0.035,-0.015 -0.065,-0.035 -0.09,-0.061 -0.026,-0.025 -0.046,-0.055 -0.061,-0.09 -0.015,-0.034 -0.022,-0.071 -0.022,-0.11 0,-0.039 0.007,-0.075 0.022,-0.11 0.015,-0.034 0.035,-0.065 0.061,-0.09 0.025,-0.026 0.055,-0.046 0.09,-0.061 0.035,-0.015 0.072,-0.022 0.111,-0.022zm0.233 0.283c0,-0.032 -0.006,-0.063 -0.018,-0.091 -0.013,-0.029 -0.029,-0.053 -0.05,-0.075 -0.021,-0.021 -0.046,-0.037 -0.074,-0.05 -0.029,-0.012 -0.059,-0.018 -0.091,-0.018 -0.033,0 -0.063,0.006 -0.092,0.018 -0.029,0.013 -0.054,0.029 -0.075,0.05 -0.021,0.022 -0.037,0.046 -0.05,0.075 -0.012,0.028 -0.018,0.059 -0.018,0.091 0,0.033 0.006,0.063 0.018,0.092 0.013,0.028 0.029,0.053 0.05,0.074 0.021,0.021 0.046,0.038 0.075,0.05 0.029,0.012 0.059,0.019 0.092,0.019 0.032,0 0.062,-0.007 0.091,-0.019 0.028,-0.012 0.053,-0.029 0.074,-0.05 0.021,-0.021 0.037,-0.046 0.05,-0.074 0.012,-0.029 0.018,-0.059 0.018,-0.092z"/>
   </g>
  </g>
 </g>
</svg>
