<?xml version="1.0" encoding="UTF-8"?>
<!DOCTYPE svg PUBLIC "-//W3C//DTD SVG 1.1//EN" "http://www.w3.org/Graphics/SVG/1.1/DTD/svg11.dtd">
<!-- Creator: CorelDRAW 2018 (64-Bit) -->
<svg xmlns="http://www.w3.org/2000/svg" xml:space="preserve" width="32px" height="32px" version="1.1" style="shape-rendering:geometricPrecision; text-rendering:geometricPrecision; image-rendering:optimizeQuality; fill-rule:evenodd; clip-rule:evenodd"
viewBox="0 0 0.881 0.881"
 xmlns:xlink="http://www.w3.org/1999/xlink">
 <defs>
  <style type="text/css">
   <![CDATA[
    .fil0 {fill:none;fill-rule:nonzero}
    .fil3 {fill:#00F4FF}
    .fil4 {fill:#052337}
    .fil1 {fill:white}
    .fil2 {fill:#052337;fill-rule:nonzero}
   ]]>
  </style>
 </defs>
 <g id="Layer_x0020_1">
  <metadata id="CorelCorpID_0Corel-Layer"/>
  <g id="_1780949060336">
   <rect class="fil0" width="0.881" height="0.881"/>
   <g>
    <path class="fil1" d="M0.028 0.644l0 -0.436 0.655 0 0 0.436c0,0.007 -0.006,0.013 -0.014,0.013l-0.628 0c-0.007,0 -0.013,-0.006 -0.013,-0.013z"/>
    <path class="fil2" d="M0.014 0.644l0 -0.436c0,-0.008 0.006,-0.014 0.014,-0.014l0.655 0c0.007,0 0.014,0.006 0.014,0.014l0 0.436c0,0.007 -0.004,0.014 -0.009,0.019l-0.001 0.001c-0.005,0.004 -0.011,0.007 -0.018,0.007l-0.628 0c-0.007,0 -0.014,-0.003 -0.019,-0.008 -0.005,-0.005 -0.008,-0.012 -0.008,-0.019zm0.027 -0.423l0 0.423 0.628 0 0 -0.423 -0.628 0z"/>
    <path class="fil3" d="M0.028 0.208l0 -0.088c0,-0.007 0.006,-0.013 0.013,-0.013l0.628 0c0.008,0 0.014,0.006 0.014,0.013l0 0.088 -0.655 0z"/>
    <path class="fil2" d="M0.014 0.208l0 -0.088c0,-0.007 0.003,-0.014 0.008,-0.019l0 0c0.005,-0.005 0.012,-0.008 0.019,-0.008l0.628 0c0.008,0 0.014,0.003 0.019,0.008l0 0c0.005,0.005 0.009,0.012 0.009,0.019l0 0.088c0,0.007 -0.007,0.013 -0.014,0.013l-0.655 0c-0.008,0 -0.014,-0.006 -0.014,-0.013zm0.027 -0.088l0 0.074 0.628 0 0 -0.074 -0.628 0z"/>
    <path class="fil4" d="M0.485 0.141c0.011,0 0.019,0.008 0.019,0.018 0,0.011 -0.008,0.019 -0.019,0.019 -0.01,0 -0.018,-0.008 -0.018,-0.019 0,-0.01 0.008,-0.018 0.018,-0.018z"/>
    <path class="fil4" d="M0.553 0.141c0.01,0 0.018,0.008 0.018,0.018 0,0.011 -0.008,0.019 -0.018,0.019 -0.011,0 -0.019,-0.008 -0.019,-0.019 0,-0.01 0.008,-0.018 0.019,-0.018z"/>
    <path class="fil4" d="M0.62 0.141c0.01,0 0.019,0.008 0.019,0.018 0,0.011 -0.009,0.019 -0.019,0.019 -0.01,0 -0.019,-0.008 -0.019,-0.019 0,-0.01 0.009,-0.018 0.019,-0.018z"/>
    <path class="fil2" d="M0.348 0.265c0.037,0 0.07,0.015 0.094,0.039l0.001 0.001c0.024,0.024 0.038,0.057 0.038,0.093 0,0.037 -0.015,0.07 -0.039,0.094 -0.024,0.024 -0.057,0.039 -0.094,0.039 -0.036,0 -0.069,-0.015 -0.094,-0.039l0 0c-0.024,-0.024 -0.039,-0.057 -0.039,-0.094 0,-0.036 0.015,-0.07 0.039,-0.094l0.001 0c0.024,-0.024 0.057,-0.039 0.093,-0.039zm0.075 0.059c-0.019,-0.019 -0.045,-0.031 -0.075,-0.031 -0.029,0 -0.055,0.012 -0.074,0.031 -0.019,0.019 -0.031,0.045 -0.031,0.074 0,0.029 0.012,0.056 0.031,0.075 0.019,0.019 0.045,0.031 0.074,0.031 0.03,0 0.056,-0.012 0.075,-0.031 0.019,-0.019 0.031,-0.046 0.031,-0.075 0,-0.029 -0.012,-0.055 -0.03,-0.074l-0.001 0z"/>
    <path class="fil2" d="M0.378 0.347c-0.007,-0.004 -0.009,-0.012 -0.005,-0.019 0.004,-0.006 0.012,-0.008 0.019,-0.005 0.008,0.006 0.016,0.012 0.023,0.02 0.006,0.007 0.011,0.016 0.015,0.026 0.002,0.007 -0.002,0.015 -0.009,0.017 -0.007,0.003 -0.015,-0.001 -0.017,-0.008 -0.003,-0.006 -0.006,-0.012 -0.01,-0.018 -0.005,-0.005 -0.01,-0.009 -0.016,-0.013z"/>
    <path class="fil2" d="M0.423 0.492c-0.005,-0.005 -0.005,-0.014 0,-0.019 0.005,-0.006 0.014,-0.006 0.019,0l0.05 0.05c0.006,0.005 0.006,0.014 0,0.019 -0.005,0.006 -0.014,0.006 -0.019,0l-0.05 -0.05z"/>
    <path class="fil3" d="M0.465 0.515l0 0c0.009,-0.009 0.023,-0.009 0.032,0l0.032 0.032c0.009,0.009 0.009,0.023 0,0.032l0 0c-0.008,0.009 -0.023,0.009 -0.032,0l-0.032 -0.032c-0.009,-0.009 -0.009,-0.023 0,-0.032z"/>
    <path class="fil2" d="M0.455 0.505c0.007,-0.007 0.017,-0.011 0.026,-0.011 0.009,0 0.019,0.004 0.026,0.011l0.032 0.032c0.007,0.007 0.011,0.017 0.011,0.026 0,0.009 -0.004,0.019 -0.011,0.026 -0.007,0.007 -0.016,0.011 -0.026,0.011 -0.009,0 -0.018,-0.004 -0.026,-0.011l-0.032 -0.032c-0.007,-0.007 -0.011,-0.017 -0.011,-0.026 0,-0.01 0.004,-0.019 0.011,-0.026zm0.026 0.017c-0.002,0 -0.005,0.001 -0.006,0.002 -0.002,0.002 -0.003,0.004 -0.003,0.007 0,0.002 0.001,0.004 0.003,0.006l0.032 0.032c0.002,0.002 0.004,0.003 0.006,0.003 0.003,0 0.005,-0.001 0.007,-0.003 0.001,-0.001 0.002,-0.004 0.002,-0.006 0,-0.002 -0.001,-0.005 -0.002,-0.006l-0.033 -0.033c-0.001,-0.001 -0.004,-0.002 -0.006,-0.002z"/>
   </g>
  </g>
 </g>
</svg>
