<?xml version="1.0" encoding="UTF-8"?>
<!DOCTYPE svg PUBLIC "-//W3C//DTD SVG 1.1//EN" "http://www.w3.org/Graphics/SVG/1.1/DTD/svg11.dtd">
<!-- Creator: CorelDRAW 2018 (64-Bit) -->
<svg xmlns="http://www.w3.org/2000/svg" xml:space="preserve" width="30px" height="30px" version="1.1" style="shape-rendering:geometricPrecision; text-rendering:geometricPrecision; image-rendering:optimizeQuality; fill-rule:evenodd; clip-rule:evenodd"
viewBox="0 0 2.741 2.741"
 xmlns:xlink="http://www.w3.org/1999/xlink">
 <defs>
  <style type="text/css">
   <![CDATA[
    .fil2 {fill:#00AA63;fill-rule:nonzero}
    .fil1 {fill:#1D85FF;fill-rule:nonzero}
    .fil4 {fill:#E34542;fill-rule:nonzero}
    .fil3 {fill:#EFBF29;fill-rule:nonzero}
    .fil0 {fill:white;fill-rule:nonzero}
   ]]>
  </style>
 </defs>
 <g id="Layer_x0020_1">
  <metadata id="CorelCorpID_0Corel-Layer"/>
  <g id="_1775983115472">
   <path class="fil0" d="M0.137 0c-0.076,0 -0.137,0.061 -0.137,0.137l0 2.467c0,0.075 0.061,0.137 0.137,0.137l2.467 0c0.075,0 0.137,-0.062 0.137,-0.137l0 -2.467c0,-0.076 -0.061,-0.137 -0.137,-0.137l-2.467 0z"/>
   <path class="fil1" d="M2.164 1.389c0,-0.058 -0.006,-0.114 -0.015,-0.168l-0.775 0 0 0.318 0.443 0c-0.019,0.103 -0.077,0.19 -0.164,0.248l0 0.206 0.266 0c0.155,-0.143 0.245,-0.354 0.245,-0.604l0 0z"/>
   <path class="fil2" d="M1.374 2.192c0.222,0 0.408,-0.073 0.545,-0.199l-0.266 -0.206c-0.074,0.049 -0.168,0.078 -0.279,0.078 -0.214,0 -0.395,-0.144 -0.46,-0.339l-0.274 0 0 0.214c0.135,0.268 0.413,0.452 0.734,0.452l0 0z"/>
   <path class="fil3" d="M0.914 1.526c-0.016,-0.049 -0.025,-0.102 -0.025,-0.156 0,-0.054 0.009,-0.107 0.025,-0.156l0 -0.213 -0.274 0c-0.056,0.111 -0.088,0.237 -0.088,0.369 0,0.133 0.032,0.259 0.088,0.37l0.274 -0.214 0 0z"/>
   <path class="fil4" d="M1.374 0.875c0.121,0 0.23,0.042 0.315,0.123l0.236 -0.236c-0.143,-0.132 -0.329,-0.214 -0.551,-0.214 -0.321,0 -0.599,0.184 -0.734,0.453l0.274 0.213c0.065,-0.194 0.246,-0.339 0.46,-0.339l0 0z"/>
  </g>
 </g>
</svg>
