<?xml version="1.0" encoding="UTF-8"?>
<!DOCTYPE svg PUBLIC "-//W3C//DTD SVG 1.1//EN" "http://www.w3.org/Graphics/SVG/1.1/DTD/svg11.dtd">
<!-- Creator: CorelDRAW 2018 (64-Bit) -->
<svg xmlns="http://www.w3.org/2000/svg" xml:space="preserve" width="80px" height="48px" version="1.1" style="shape-rendering:geometricPrecision; text-rendering:geometricPrecision; image-rendering:optimizeQuality; fill-rule:evenodd; clip-rule:evenodd"
viewBox="0 0 33.337 20.003"
 xmlns:xlink="http://www.w3.org/1999/xlink">
 <defs>
  <style type="text/css">
   <![CDATA[
    .fil2 {fill:none}
    .fil1 {fill:#00F4FF}
    .fil0 {fill:#00F4FF;fill-rule:nonzero}
   ]]>
  </style>
 </defs>
 <g id="Layer_x0020_1">
  <metadata id="CorelCorpID_0Corel-Layer"/>
  <g id="_1916754527904">
   <g>
    <path class="fil0" d="M12.481 5.596l4.76 0c0.115,0 0.209,0.093 0.209,0.208l0 6.758c0,0.115 -0.094,0.208 -0.209,0.208l-1.18 0 1.783 5.081c0.038,0.108 -0.019,0.226 -0.127,0.264 -0.023,0.008 -0.046,0.012 -0.069,0.012l-2.756 0c-0.089,0 -0.166,-0.056 -0.195,-0.136l-2.406 -5.343c-0.013,-0.028 -0.018,-0.057 -0.018,-0.086l-0.001 -6.758c0,-0.115 0.094,-0.208 0.209,-0.208zm4.552 0.416l-4.344 0 0 6.506 2.338 5.193 2.328 0 -1.777 -5.064c-0.012,-0.026 -0.018,-0.055 -0.018,-0.085 0,-0.115 0.093,-0.208 0.208,-0.208l1.265 0 0 -6.342z"/>
    <path class="fil0" d="M10.793 11.416c0.115,0 0.208,0.093 0.208,0.208 0,0.115 -0.093,0.209 -0.208,0.209l-0.648 0c-0.071,0 -0.134,-0.036 -0.172,-0.091 -0.288,-0.352 -0.517,-0.755 -0.674,-1.192 -0.154,-0.429 -0.238,-0.889 -0.238,-1.367 0,-0.478 0.084,-0.938 0.238,-1.367 0.159,-0.443 0.393,-0.85 0.686,-1.206 0.041,-0.05 0.1,-0.076 0.16,-0.076l0.648 -0.001c0.115,0 0.208,0.094 0.208,0.209 0,0.115 -0.093,0.208 -0.208,0.208l-0.549 0c-0.235,0.301 -0.424,0.64 -0.555,1.006 -0.137,0.381 -0.211,0.795 -0.211,1.227 0,0.433 0.074,0.846 0.211,1.227 0.131,0.366 0.32,0.705 0.555,1.006l0.549 0z"/>
    <path class="fil0" d="M28.74 2.36l-11.29 3.595 0 6.456 11.29 3.595c0.179,-2.073 0.269,-4.445 0.269,-6.823 0,-2.377 -0.09,-4.75 -0.269,-6.823zm-11.561 3.246l11.674 -3.717c0.016,-0.006 0.034,-0.01 0.052,-0.012 0.114,-0.01 0.215,0.074 0.226,0.188 0.196,2.158 0.294,4.641 0.294,7.118 0,2.477 -0.098,4.961 -0.294,7.118 -0.002,0.015 -0.005,0.03 -0.009,0.044 -0.035,0.109 -0.152,0.17 -0.261,0.135l-11.663 -3.714c-0.094,-0.02 -0.165,-0.104 -0.165,-0.204l0 -6.758c0.001,-0.088 0.057,-0.17 0.146,-0.198z"/>
    <path class="fil0" d="M25.269 14.837c-0.013,0.114 -0.117,0.196 -0.231,0.183 -0.114,-0.013 -0.196,-0.116 -0.183,-0.23 0.195,-1.692 0.292,-3.648 0.292,-5.607 0,-1.958 -0.097,-3.915 -0.292,-5.607 -0.013,-0.114 0.069,-0.217 0.183,-0.23 0.114,-0.013 0.218,0.069 0.231,0.183 0.196,1.711 0.295,3.684 0.295,5.654 0,1.97 -0.099,3.943 -0.295,5.654z"/>
    <path class="fil0" d="M31.51 11.868c-0.079,0.083 -0.211,0.086 -0.294,0.006 -0.082,-0.079 -0.085,-0.211 -0.005,-0.294 0.304,-0.317 0.548,-0.691 0.714,-1.106 0.16,-0.398 0.248,-0.833 0.248,-1.291 0,-0.457 -0.088,-0.893 -0.248,-1.291 -0.166,-0.414 -0.411,-0.789 -0.714,-1.106 -0.08,-0.083 -0.077,-0.214 0.005,-0.294 0.083,-0.079 0.215,-0.077 0.294,0.006 0.341,0.355 0.615,0.775 0.801,1.239 0.18,0.448 0.279,0.936 0.279,1.446 0,0.51 -0.099,0.998 -0.279,1.446 -0.186,0.464 -0.46,0.884 -0.801,1.239z"/>
    <path class="fil1" d="M14.89 7.375c0.279,0 0.505,0.227 0.505,0.505 0,0.279 -0.226,0.505 -0.505,0.505 -0.279,0 -0.505,-0.226 -0.505,-0.505 0,-0.278 0.226,-0.505 0.505,-0.505z"/>
   </g>
   <rect class="fil2" width="33.337" height="20.002"/>
  </g>
 </g>
</svg>
