<?xml version="1.0" encoding="UTF-8"?>
<!DOCTYPE svg PUBLIC "-//W3C//DTD SVG 1.1//EN" "http://www.w3.org/Graphics/SVG/1.1/DTD/svg11.dtd">
<!-- Creator: CorelDRAW 2018 (64-Bit) -->
<svg xmlns="http://www.w3.org/2000/svg" xml:space="preserve" width="80px" height="48px" version="1.1" style="shape-rendering:geometricPrecision; text-rendering:geometricPrecision; image-rendering:optimizeQuality; fill-rule:evenodd; clip-rule:evenodd"
viewBox="0 0 9.897 5.938"
 xmlns:xlink="http://www.w3.org/1999/xlink">
 <defs>
  <style type="text/css">
   <![CDATA[
    .fil1 {fill:none}
    .fil0 {fill:#00F4FF;fill-rule:nonzero}
   ]]>
  </style>
 </defs>
 <g id="Layer_x0020_1">
  <metadata id="CorelCorpID_0Corel-Layer"/>
  <g id="_1916064472912">
   <g>
    <path class="fil0" d="M3.804 2.456l0 -0.541c0,-0.142 0.06,-0.271 0.157,-0.364 0.096,-0.093 0.229,-0.151 0.375,-0.151l4.349 0c0.146,0 0.278,0.058 0.374,0.151 0.097,0.093 0.158,0.222 0.158,0.364l-0.001 0.555c0,0.027 -0.017,0.05 -0.042,0.058 -0.371,0.139 -0.714,0.268 -1.05,0.396 -0.321,0.121 -0.635,0.24 -1.02,0.383l-0.088 0.035c-0.149,0.059 -0.281,0.111 -0.506,0.111 -0.224,0 -0.356,-0.052 -0.505,-0.111 -0.034,-0.014 -0.069,-0.027 -0.089,-0.035 -0.367,-0.137 -0.685,-0.26 -1.008,-0.386 -0.334,-0.129 -0.673,-0.261 -1.064,-0.407 -0.024,-0.009 -0.04,-0.033 -0.04,-0.058zm0.124 -0.541l0 0.499c0.382,0.143 0.706,0.269 1.024,0.392 0.328,0.127 0.649,0.252 1.007,0.386 0.043,0.016 0.068,0.026 0.092,0.035 0.137,0.054 0.258,0.102 0.459,0.102 0.202,0 0.323,-0.048 0.461,-0.102 0.023,-0.009 0.047,-0.019 0.09,-0.035 0.35,-0.131 0.681,-0.256 1.019,-0.384 0.308,-0.116 0.622,-0.235 1.013,-0.381l0 -0.512c0,-0.107 -0.046,-0.205 -0.119,-0.275 -0.074,-0.072 -0.176,-0.116 -0.289,-0.116l-4.349 0c-0.113,0 -0.215,0.044 -0.289,0.116 -0.074,0.07 -0.119,0.168 -0.119,0.275z"/>
    <path class="fil0" d="M4.28 2.186c0,0.034 -0.027,0.061 -0.061,0.061 -0.034,0 -0.062,-0.027 -0.062,-0.061l0 -0.116c0,-0.096 0.042,-0.183 0.111,-0.246 0.067,-0.061 0.159,-0.1 0.26,-0.1l0.454 0c0.034,0 0.061,0.028 0.061,0.062 0,0.034 -0.027,0.062 -0.061,0.062l-0.454 0c-0.069,0 -0.132,0.026 -0.177,0.067 -0.043,0.04 -0.071,0.095 -0.071,0.155l0 0.116z"/>
    <path class="fil0" d="M8.997 2.94c0,-0.035 0.028,-0.062 0.062,-0.062 0.034,0 0.062,0.027 0.062,0.062l0 1.927c0,0.141 -0.058,0.27 -0.151,0.363 -0.093,0.094 -0.222,0.152 -0.364,0.152l-4.192 0c-0.141,0 -0.27,-0.058 -0.363,-0.152l-0.004 -0.003c-0.091,-0.093 -0.147,-0.22 -0.147,-0.36l0 -1.941c0,-0.034 0.027,-0.061 0.061,-0.061 0.035,0 0.062,0.027 0.062,0.061l0 1.941c0,0.106 0.043,0.202 0.112,0.273l0.003 0.003c0.071,0.071 0.169,0.115 0.276,0.115l4.192 0c0.108,0 0.206,-0.044 0.277,-0.115 0.07,-0.071 0.114,-0.169 0.114,-0.276l0 -1.927z"/>
    <path class="fil0" d="M8.631 4.153c0,-0.034 0.027,-0.062 0.061,-0.062 0.035,0 0.062,0.028 0.062,0.062l0 0.533c0,0.107 -0.044,0.205 -0.114,0.275 -0.072,0.071 -0.169,0.115 -0.276,0.115l-0.652 0c-0.034,0 -0.062,-0.027 -0.062,-0.061 0,-0.035 0.028,-0.062 0.062,-0.062l0.652 0c0.073,0 0.14,-0.03 0.188,-0.079 0.048,-0.048 0.079,-0.115 0.079,-0.188l0 -0.533z"/>
    <path class="fil0" d="M7.009 3.274c0,-0.034 0.028,-0.062 0.062,-0.062 0.034,0 0.062,0.028 0.062,0.062l0 0.716c0,0.034 -0.028,0.062 -0.062,0.062l-1.122 0c-0.034,0 -0.061,-0.028 -0.061,-0.062l0 -0.716c0,-0.034 0.027,-0.062 0.061,-0.062 0.035,0 0.062,0.028 0.062,0.062l0 0.654 0.998 0 0 -0.654z"/>
    <path class="fil0" d="M5.457 1.164c0,0.035 -0.027,0.062 -0.061,0.062 -0.035,0 -0.062,-0.027 -0.062,-0.062 0,-0.167 0.068,-0.319 0.178,-0.429l0.004 -0.003c0.11,-0.108 0.26,-0.175 0.425,-0.175l1.138 0c0.167,0 0.319,0.068 0.429,0.178 0.11,0.11 0.179,0.262 0.179,0.429 0,0.035 -0.028,0.062 -0.062,0.062 -0.034,0 -0.062,-0.027 -0.062,-0.062 0,-0.133 -0.055,-0.254 -0.142,-0.341 -0.088,-0.088 -0.209,-0.143 -0.342,-0.143l-1.138 0c-0.131,0 -0.251,0.054 -0.339,0.14l-0.002 0.003c-0.088,0.087 -0.143,0.208 -0.143,0.341z"/>
   </g>
   <rect class="fil1" width="9.897" height="5.938"/>
  </g>
 </g>
</svg>
