<?xml version="1.0" encoding="UTF-8"?>
<!DOCTYPE svg PUBLIC "-//W3C//DTD SVG 1.1//EN" "http://www.w3.org/Graphics/SVG/1.1/DTD/svg11.dtd">
<!-- Creator: CorelDRAW 2018 (64-Bit) -->
<svg xmlns="http://www.w3.org/2000/svg" xml:space="preserve" width="80px" height="48px" version="1.1" style="shape-rendering:geometricPrecision; text-rendering:geometricPrecision; image-rendering:optimizeQuality; fill-rule:evenodd; clip-rule:evenodd"
viewBox="0 0 33.337 20.003"
 xmlns:xlink="http://www.w3.org/1999/xlink">
 <defs>
  <style type="text/css">
   <![CDATA[
    .fil1 {fill:none}
    .fil0 {fill:#00F4FF;fill-rule:nonzero}
   ]]>
  </style>
 </defs>
 <g id="Layer_x0020_1">
  <metadata id="CorelCorpID_0Corel-Layer"/>
  <g id="_1916602698672">
   <g>
    <path class="fil0" d="M14.136 18.336c0,0.115 -0.093,0.208 -0.208,0.208 -0.115,0 -0.209,-0.093 -0.209,-0.208l0 -10.953c0,-0.114 0.092,-0.206 0.205,-0.208l9.294 -0.927c0.114,-0.011 0.216,0.073 0.227,0.187 0.011,0.114 -0.072,0.216 -0.186,0.227l-9.123 0.909 0 10.765z"/>
    <path class="fil0" d="M15.794 16.817l5.591 -0.081c0.114,-0.001 0.209,0.09 0.21,0.205l0.001 1.395c0,0.115 -0.094,0.208 -0.209,0.208l-5.608 0c-0.115,0 -0.209,-0.093 -0.209,-0.208l0 -1.311c0,-0.115 0.094,-0.208 0.209,-0.208l0.015 0zm5.385 0.337l-5.192 0.076 0 0.897 5.192 0 0 -0.973zm-5.41 -8.039l5.601 -0.465c0.115,-0.009 0.215,0.076 0.225,0.191l0.001 1.409c0,0.114 -0.092,0.207 -0.207,0.208l-5.596 0.383c-0.115,0.008 -0.214,-0.079 -0.222,-0.193l-0.001 -1.325c0,-0.111 0.088,-0.203 0.199,-0.208zm5.41 -0.031l-5.192 0.431 0 0.896 5.192 -0.355 0 -0.972zm-5.395 3.882l5.594 -0.273c0.114,-0.005 0.212,0.083 0.217,0.198l0.001 1.402c0,0.115 -0.094,0.208 -0.209,0.208l-5.602 0.191c-0.114,0.004 -0.21,-0.086 -0.214,-0.201l-0.001 -1.317c0,-0.115 0.094,-0.208 0.209,-0.208l0.005 0zm5.395 0.153l-5.192 0.253 0 0.898 5.192 -0.178 0 -0.973z"/>
    <path class="fil0" d="M23.328 6.267l3.901 1.4c0.084,0.03 0.137,0.11 0.137,0.195l0.001 10.474c0,0.115 -0.093,0.208 -0.208,0.208l-3.92 0c-0.115,0 -0.209,-0.093 -0.209,-0.208l0 -11.881c0,-0.115 0.094,-0.208 0.209,-0.208 0.031,0 0.062,0.007 0.089,0.02zm3.623 1.741l-3.504 -1.258 0 11.377 3.504 0 0 -10.119z"/>
    <path class="fil0" d="M22.024 6.597c0,0.115 -0.094,0.208 -0.209,0.208 -0.115,0 -0.208,-0.093 -0.208,-0.208l0 -4.189c0,-0.113 0.091,-0.206 0.204,-0.208l7.42 -0.74c0.114,-0.011 0.215,0.073 0.227,0.187 0.011,0.114 -0.073,0.216 -0.187,0.227l-7.247 0.722 0 4.001z"/>
    <path class="fil0" d="M29.043 18.336l0 -16.669c0,-0.115 0.093,-0.208 0.208,-0.208 0.032,0 0.062,0.007 0.089,0.02l3.112 1.116c0.084,0.031 0.137,0.111 0.137,0.196l0.001 15.545c0,0.115 -0.093,0.208 -0.208,0.208l-3.131 0c-0.115,0 -0.208,-0.093 -0.208,-0.208zm0.416 -16.374l0 16.165 2.714 0 0 -15.191 -2.714 -0.974z"/>
   </g>
   <rect class="fil1" width="33.337" height="20.002"/>
  </g>
 </g>
</svg>
