<?xml version="1.0" encoding="UTF-8"?>
<!DOCTYPE svg PUBLIC "-//W3C//DTD SVG 1.1//EN" "http://www.w3.org/Graphics/SVG/1.1/DTD/svg11.dtd">
<!-- Creator: CorelDRAW 2018 (64-Bit) -->
<svg xmlns="http://www.w3.org/2000/svg" xml:space="preserve" width="80px" height="48px" version="1.1" style="shape-rendering:geometricPrecision; text-rendering:geometricPrecision; image-rendering:optimizeQuality; fill-rule:evenodd; clip-rule:evenodd"
viewBox="0 0 6.21 3.726"
 xmlns:xlink="http://www.w3.org/1999/xlink">
 <defs>
  <style type="text/css">
   <![CDATA[
    .fil1 {fill:none}
    .fil0 {fill:#00F4FF;fill-rule:nonzero}
   ]]>
  </style>
 </defs>
 <g id="Layer_x0020_1">
  <metadata id="CorelCorpID_0Corel-Layer"/>
  <g id="_1916604909856">
   <g>
    <path class="fil0" d="M5.267 1.196c-0.021,0 -0.038,-0.017 -0.038,-0.039 0,-0.021 0.017,-0.039 0.038,-0.039l0.341 0c0.048,0 0.092,0.02 0.123,0.052l0.003 0.002c0.03,0.032 0.049,0.074 0.049,0.121l0 1.792c0,0.048 -0.02,0.092 -0.052,0.124 -0.031,0.031 -0.075,0.051 -0.123,0.051l-2.996 0c-0.048,0 -0.091,-0.02 -0.123,-0.051 -0.032,-0.032 -0.051,-0.076 -0.051,-0.124l0 -0.309c0,-0.021 0.017,-0.039 0.038,-0.039 0.022,0 0.039,0.018 0.039,0.039l0 0.309c0,0.027 0.011,0.051 0.029,0.069 0.017,0.017 0.042,0.028 0.068,0.028l2.996 0c0.027,0 0.051,-0.011 0.069,-0.028 0.017,-0.018 0.028,-0.042 0.028,-0.069l0 -1.792c0,-0.026 -0.01,-0.049 -0.027,-0.067l-0.001 -0.001c-0.018,-0.018 -0.042,-0.029 -0.069,-0.029l-0.341 0z"/>
    <path class="fil0" d="M1.912 0.466l2.996 0c0.048,0 0.092,0.019 0.123,0.051 0.032,0.032 0.052,0.075 0.052,0.123l0 1.793c0,0.048 -0.02,0.091 -0.052,0.123 -0.031,0.032 -0.075,0.051 -0.123,0.051l-2.996 0c-0.048,0 -0.092,-0.019 -0.123,-0.051 -0.032,-0.032 -0.051,-0.075 -0.051,-0.123l0 -1.793c0,-0.048 0.019,-0.091 0.051,-0.123 0.032,-0.032 0.075,-0.051 0.123,-0.051zm2.996 0.077l-2.996 0c-0.027,0 -0.051,0.011 -0.068,0.029 -0.018,0.017 -0.029,0.042 -0.029,0.068l0 1.793c0,0.026 0.011,0.051 0.029,0.068 0.017,0.018 0.042,0.029 0.068,0.029l2.996 0c0.027,0 0.051,-0.011 0.068,-0.029 0.018,-0.017 0.029,-0.042 0.029,-0.068l0 -1.793c0,-0.026 -0.011,-0.051 -0.029,-0.068 -0.017,-0.018 -0.041,-0.029 -0.068,-0.029z"/>
    <path class="fil0" d="M2.137 2.075c-0.022,0 -0.039,-0.017 -0.039,-0.039 0,-0.021 0.017,-0.039 0.039,-0.039l0.432 0c0.021,0 0.039,0.018 0.039,0.039 0,0.022 -0.018,0.039 -0.039,0.039l-0.432 0zm2.114 0c-0.021,0 -0.039,-0.017 -0.039,-0.039 0,-0.021 0.018,-0.039 0.039,-0.039l0.432 0c0.022,0 0.039,0.018 0.039,0.039 0,0.022 -0.017,0.039 -0.039,0.039l-0.432 0zm-0.705 0c-0.021,0 -0.038,-0.017 -0.038,-0.039 0,-0.021 0.017,-0.039 0.038,-0.039l0.432 0c0.022,0 0.039,0.018 0.039,0.039 0,0.022 -0.017,0.039 -0.039,0.039l-0.432 0zm-0.704 0c-0.022,0 -0.039,-0.017 -0.039,-0.039 0,-0.021 0.017,-0.039 0.039,-0.039l0.432 0c0.021,0 0.038,0.018 0.038,0.039 0,0.022 -0.017,0.039 -0.038,0.039l-0.432 0z"/>
    <path class="fil0" d="M2.476 2.893c-0.021,0 -0.038,-0.018 -0.038,-0.039 0,-0.021 0.017,-0.039 0.038,-0.039l3.268 0c0.021,0 0.039,0.018 0.039,0.039 0,0.021 -0.018,0.039 -0.039,0.039l-3.268 0z"/>
    <path class="fil0" d="M4.198 0.918l0.485 0c0.022,0 0.039,0.017 0.039,0.038l0 0.402c0,0.022 -0.017,0.039 -0.039,0.039l-0.485 0c-0.021,0 -0.038,-0.017 -0.038,-0.039l0 -0.402c0,-0.021 0.017,-0.038 0.038,-0.038zm0.446 0.077l-0.407 0 0 0.324 0.407 0 0 -0.324z"/>
   </g>
   <rect class="fil1" width="6.21" height="3.726"/>
  </g>
 </g>
</svg>
