<?xml version="1.0" encoding="UTF-8"?>
<!DOCTYPE svg PUBLIC "-//W3C//DTD SVG 1.1//EN" "http://www.w3.org/Graphics/SVG/1.1/DTD/svg11.dtd">
<!-- Creator: CorelDRAW 2018 (64-Bit) -->
<svg xmlns="http://www.w3.org/2000/svg" xml:space="preserve" width="80px" height="48px" version="1.1" style="shape-rendering:geometricPrecision; text-rendering:geometricPrecision; image-rendering:optimizeQuality; fill-rule:evenodd; clip-rule:evenodd"
viewBox="0 0 6.21 3.726"
 xmlns:xlink="http://www.w3.org/1999/xlink">
 <defs>
  <style type="text/css">
   <![CDATA[
    .fil1 {fill:none}
    .fil0 {fill:#00F4FF;fill-rule:nonzero}
   ]]>
  </style>
 </defs>
 <g id="Layer_x0020_1">
  <metadata id="CorelCorpID_0Corel-Layer"/>
  <g id="_1915939780624">
   <g>
    <path class="fil0" d="M4.399 3.371l1.306 -0.754 0 -1.508 -1.306 -0.754 -1.305 0.754 0 1.508 1.305 0.754zm0.692 -0.31l-0.672 0.388c-0.012,0.006 -0.026,0.007 -0.039,0l-1.342 -0.775c-0.013,-0.006 -0.022,-0.019 -0.022,-0.035l0 -1.552c0,-0.014 0.007,-0.027 0.02,-0.034l1.342 -0.775c0.012,-0.008 0.028,-0.009 0.041,-0.001l1.341 0.774c0.013,0.006 0.023,0.02 0.023,0.036l0 1.552c0,0.013 -0.007,0.026 -0.02,0.034l-0.672 0.388z"/>
    <path class="fil0" d="M3.023 2.617l1.343 -2.326c0.011,-0.018 0.034,-0.025 0.053,-0.014 0.006,0.004 0.011,0.009 0.014,0.014l1.344 2.329c0.011,0.018 0.005,0.042 -0.014,0.053 -0.006,0.003 -0.013,0.005 -0.019,0.005l-2.689 0c-0.021,0 -0.039,-0.017 -0.039,-0.039 0,-0.008 0.003,-0.016 0.007,-0.022zm1.377 -2.229l-1.278 2.212 2.555 0 -1.277 -2.212z"/>
    <path class="fil0" d="M4.438 3.415c0,0.022 -0.017,0.039 -0.039,0.039 -0.021,0 -0.038,-0.017 -0.038,-0.039l0 -3.104c0,-0.022 0.017,-0.039 0.038,-0.039 0.022,0 0.039,0.017 0.039,0.039l0 3.104z"/>
    <path class="fil0" d="M3.074 2.673c-0.018,0.01 -0.042,0.004 -0.052,-0.014 -0.011,-0.019 -0.005,-0.043 0.014,-0.053l2.688 -1.553c0.019,-0.01 0.043,-0.004 0.053,0.014 0.011,0.019 0.005,0.042 -0.014,0.053l-2.689 1.553z"/>
    <path class="fil0" d="M3.036 1.12c-0.019,-0.011 -0.025,-0.034 -0.014,-0.053 0.01,-0.018 0.034,-0.024 0.052,-0.014l2.689 1.553c0.019,0.01 0.025,0.034 0.014,0.053 -0.01,0.018 -0.034,0.024 -0.053,0.014l-2.688 -1.553z"/>
   </g>
   <rect class="fil1" width="6.21" height="3.726"/>
  </g>
 </g>
</svg>
