<?xml version="1.0" encoding="UTF-8"?>
<!DOCTYPE svg PUBLIC "-//W3C//DTD SVG 1.1//EN" "http://www.w3.org/Graphics/SVG/1.1/DTD/svg11.dtd">
<!-- Creator: CorelDRAW 2018 (64-Bit) -->
<svg xmlns="http://www.w3.org/2000/svg" xml:space="preserve" width="283px" height="159px" version="1.1" style="shape-rendering:geometricPrecision; text-rendering:geometricPrecision; image-rendering:optimizeQuality; fill-rule:evenodd; clip-rule:evenodd"
viewBox="0 0 812.195 456.86"
 xmlns:xlink="http://www.w3.org/1999/xlink">
 <defs>
  <style type="text/css">
   <![CDATA[
    .fil1 {fill:#8D9AA8}
    .fil2 {fill:#8D9AA8}
    .fil0 {fill:#A3AEBA}
    .fil3 {fill:#8D9AA8;fill-rule:nonzero}
    .fil5 {fill:#A3AEBA;fill-rule:nonzero}
    .fil4 {fill:#EAEDF2;fill-rule:nonzero}
   ]]>
  </style>
 </defs>
 <g id="Layer_x0020_1">
  <metadata id="CorelCorpID_0Corel-Layer"/>
  <g id="_2388179197824">
   <rect class="fil0" width="812.195" height="456.86"/>
   <ellipse class="fil1" cx="409.743" cy="334.861" rx="260.192" ry="29.507"/>
   <path class="fil2" d="M101.817 245.108l0.002 0c1.579,0 2.871,1.292 2.871,2.872l0 7.771 7.772 0c1.58,0 2.872,1.292 2.872,2.871l0 0.002c0,1.581 -1.292,2.873 -2.872,2.873l-7.772 0 0 7.772c0,1.58 -1.292,2.872 -2.871,2.872l-0.002 0c-1.58,0 -2.872,-1.292 -2.872,-2.872l0 -7.772 -7.772 0c-1.58,0 -2.872,-1.292 -2.872,-2.873l0 -0.002c0,-1.579 1.292,-2.871 2.872,-2.871l7.772 0 0 -7.771c0,-1.58 1.292,-2.872 2.872,-2.872z"/>
   <path class="fil2" d="M614.038 139.841l0.001 -0.001c1.117,-1.116 2.944,-1.116 4.062,0l5.494 5.496 5.496 -5.496c1.117,-1.117 2.945,-1.117 4.061,-0.001l0.002 0.001c1.117,1.118 1.117,2.946 0,4.063l-5.496 5.496 5.496 5.495c1.117,1.117 1.117,2.945 0.001,4.061l-0.001 0.002c-1.118,1.117 -2.946,1.117 -4.062,0l-5.496 -5.495 -5.495 5.495c-1.118,1.117 -2.945,1.117 -4.063,-0.001l-0.001 -0.001c-1.117,-1.117 -1.117,-2.944 0,-4.062l5.495 -5.495 -5.494 -5.495c-1.118,-1.117 -1.118,-2.945 0,-4.062z"/>
   <circle class="fil2" cx="683.49" cy="278.95" r="6.644"/>
   <circle class="fil2" cx="512.667" cy="81.853" r="6.644"/>
   <path class="fil3" d="M224.726 165.356c3.163,0 6.028,1.284 8.099,3.356 2.072,2.071 3.356,4.936 3.356,8.099 0,3.162 -1.284,6.027 -3.356,8.099 -2.071,2.071 -4.936,3.355 -8.099,3.355 -3.162,0 -6.027,-1.284 -8.099,-3.355 -2.071,-2.072 -3.355,-4.937 -3.355,-8.099 0,-3.163 1.284,-6.028 3.355,-8.099 2.072,-2.072 4.937,-3.356 8.099,-3.356zm6.068 5.387c-1.552,-1.552 -3.698,-2.513 -6.068,-2.513 -2.37,0 -4.515,0.961 -6.068,2.513 -1.552,1.552 -2.513,3.698 -2.513,6.068 0,2.37 0.961,4.515 2.513,6.068 1.553,1.552 3.698,2.513 6.068,2.513 2.37,0 4.516,-0.961 6.068,-2.513 1.552,-1.553 2.513,-3.698 2.513,-6.068 0,-2.37 -0.961,-4.516 -2.513,-6.068z"/>
   <polygon class="fil2" points="136.035,121.74 149.552,101.592 163.068,121.74 "/>
   <path class="fil3" d="M726.295 182.695c3.927,0 7.483,1.592 10.057,4.166 2.573,2.573 4.165,6.131 4.165,10.057 0,3.927 -1.592,7.484 -4.165,10.057 -2.574,2.574 -6.13,4.166 -10.057,4.166 -3.927,0 -7.484,-1.592 -10.058,-4.166 -2.573,-2.573 -4.165,-6.13 -4.165,-10.057 0,-3.927 1.592,-7.484 4.165,-10.057 2.574,-2.574 6.131,-4.166 10.058,-4.166zm8.026 6.197c-2.053,-2.053 -4.891,-3.324 -8.026,-3.324 -3.134,0 -5.973,1.271 -8.026,3.324 -2.054,2.053 -3.324,4.891 -3.324,8.026 0,3.135 1.27,5.973 3.324,8.026 2.053,2.053 4.892,3.324 8.026,3.324 3.135,0 5.973,-1.271 8.026,-3.324 2.053,-2.053 3.323,-4.891 3.323,-8.026 0,-3.134 -1.27,-5.973 -3.323,-8.026z"/>
   <path class="fil4" d="M305.279 132.185l219.395 0c3.101,0 5.927,1.272 7.981,3.322l0.018 0.018c2.046,2.053 3.316,4.876 3.316,7.974l0 142.284c0,3.1 -1.273,5.927 -3.322,7.981l-0.018 0.018c-2.053,2.045 -4.877,3.315 -7.975,3.315l-219.395 0c-3.1,0 -5.927,-1.272 -7.981,-3.322l-0.018 -0.018c-2.046,-2.053 -3.315,-4.877 -3.315,-7.974l0 -142.284c0,-3.101 1.272,-5.927 3.322,-7.981l0.018 -0.018c2.053,-2.045 4.877,-3.315 7.974,-3.315zm219.395 5.746l-219.395 0c-1.536,0 -2.929,0.624 -3.93,1.627l-0.012 0.011c-1.003,1.003 -1.626,2.394 -1.626,3.93l0 142.284c0,1.536 0.624,2.928 1.626,3.93l0.012 0.011c1.001,1.003 2.394,1.627 3.93,1.627l219.395 0c1.536,0 2.928,-0.623 3.931,-1.627l0.011 -0.011c1.002,-1.002 1.626,-2.394 1.626,-3.93l0 -142.284c0,-1.536 -0.623,-2.927 -1.626,-3.93l-0.011 -0.011c-1.003,-1.004 -2.395,-1.627 -3.931,-1.627z"/>
   <path class="fil4" d="M202.853 332.372c-1.587,0 -2.873,-1.287 -2.873,-2.873 0,-1.587 1.286,-2.874 2.873,-2.874l56.684 0c1.586,0 2.873,1.287 2.873,2.874 0,1.586 -1.287,2.873 -2.873,2.873l-56.684 0z"/>
   <path class="fil3" d="M271.207 246.061l-16.269 9.392c-10.597,6.119 -11.504,24.567 -2.015,41.003l1.205 2.086 54.799 -31.637 -1.207 -2.088c-9.486,-16.435 -25.918,-24.873 -36.513,-18.756z"/>
   <path class="fil4" d="M272.631 248.542l-16.26 9.386c-4.395,2.545 -6.794,7.828 -7.111,14.292 -0.334,6.801 1.612,14.803 5.916,22.415l49.837 -28.772c-4.443,-7.544 -10.393,-13.231 -16.436,-16.334 -5.764,-2.961 -11.544,-3.528 -15.946,-0.987zm-19.118 4.431l16.349 -9.437c6.18,-3.525 13.881,-2.922 21.318,0.898 7.086,3.639 13.997,10.248 19.017,18.94l1.21 2.106c0.787,1.369 0.315,3.119 -1.054,3.905l-54.789 31.637c-1.369,0.793 -3.123,0.326 -3.916,-1.043l-1.205 -2.098c-5.026,-8.706 -7.296,-17.989 -6.906,-25.93 0.412,-8.397 3.768,-15.4 9.965,-18.978l0.011 0z"/>
   <path class="fil3" d="M274.113 242.638c-5.949,-10.304 -14.547,-16.579 -19.11,-13.946l-7.004 4.045c-4.562,2.636 -3.429,13.219 2.52,23.522l0.756 1.309 23.594 -13.622 -0.756 -1.308z"/>
   <path class="fil4" d="M270.94 242.912c-2.631,-4.267 -5.691,-7.675 -8.585,-9.787 -2.531,-1.846 -4.707,-2.646 -5.918,-1.958l-7.002 4.05c-1.205,0.696 -1.602,2.982 -1.268,6.103 0.383,3.577 1.801,7.931 4.172,12.331l18.601 -10.739zm-5.219 -14.411c3.774,2.754 7.702,7.21 10.872,12.7l0.756 1.32c0.787,1.369 0.314,3.119 -1.055,3.905l-23.582 13.622c-1.369,0.793 -3.124,0.325 -3.917,-1.044l-0.755 -1.32c-3.179,-5.506 -5.078,-11.132 -5.573,-15.758 -0.579,-5.405 0.741,-9.731 4.095,-11.668l7.016 -4.045c3.353,-1.935 7.755,-0.914 12.143,2.288z"/>
   <path class="fil3" d="M209.744 263.442c-5.275,0 -9.553,4.276 -9.553,9.553 0,5.278 4.278,9.554 9.553,9.554 5.277,0 9.554,-4.276 9.554,-9.554 0,-5.277 -4.277,-9.553 -9.554,-9.553z"/>
   <path class="fil4" d="M209.744 266.315c-1.844,0 -3.516,0.748 -4.724,1.956 -1.208,1.208 -1.956,2.879 -1.956,4.724 0,1.846 0.748,3.517 1.956,4.725 1.208,1.207 2.88,1.956 4.724,1.956 1.846,0 3.517,-0.749 4.725,-1.956l0.132 -0.124c1.13,-1.189 1.824,-2.81 1.824,-4.601 0,-1.853 -0.743,-3.523 -1.944,-4.724l-0.012 0c-1.208,-1.208 -2.879,-1.956 -4.725,-1.956zm-8.786 -2.106c2.248,-2.248 5.356,-3.64 8.786,-3.64 3.431,0 6.539,1.392 8.787,3.64 2.246,2.259 3.641,5.366 3.641,8.786 0,3.332 -1.323,6.365 -3.473,8.603l-0.168 0.184c-2.248,2.248 -5.356,3.64 -8.787,3.64 -3.43,0 -6.538,-1.392 -8.786,-3.64 -2.249,-2.249 -3.64,-5.356 -3.64,-8.787 0,-3.431 1.391,-6.537 3.64,-8.786z"/>
   <path class="fil4" d="M245.279 245.522c1.357,-0.817 3.121,-0.38 3.939,0.977 0.818,1.356 0.38,3.121 -0.977,3.939l-30.259 18.259c-1.357,0.818 -3.122,0.38 -3.94,-0.976 -0.817,-1.357 -0.38,-3.122 0.977,-3.94l30.26 -18.259z"/>
   <path class="fil4" d="M212.027 283.233c-0.557,-1.481 0.191,-3.135 1.672,-3.692 1.48,-0.557 3.134,0.192 3.691,1.672l17.786 47.276c0.557,1.48 -0.191,3.134 -1.672,3.691 -1.48,0.557 -3.134,-0.191 -3.691,-1.672l-17.786 -47.275z"/>
   <path class="fil4" d="M363.786 332.372c-1.586,0 -2.873,-1.287 -2.873,-2.873 0,-1.587 1.287,-2.874 2.873,-2.874l102.384 0c1.587,0 2.873,1.287 2.873,2.874 0,1.586 -1.286,2.873 -2.873,2.873l-102.384 0z"/>
   <path class="fil5" d="M558.986 311.966l1.779 20.104c0.059,0.653 0.564,1.22 1.221,1.22l24.29 0c0.656,0 1.16,-0.553 1.22,-1.22l1.78 -20.104 -30.29 0z"/>
   <path class="fil4" d="M562.124 314.839l1.378 15.577 21.257 0 1.379 -15.577 -24.014 0zm-4.221 17.477l-1.772 -20.028 -0.018 -0.322c0,-1.587 1.286,-2.873 2.873,-2.873l30.29 0 0.247 0.011c1.579,0.136 2.75,1.529 2.614,3.109l-1.779 20.103 -0.011 0.012c-0.093,1.023 -0.539,1.966 -1.219,2.646 -0.733,0.733 -1.725,1.189 -2.852,1.189l-24.29 0c-0.982,0 -1.867,-0.357 -2.565,-0.941 -0.099,-0.076 -0.194,-0.16 -0.285,-0.25 -0.576,-0.577 -0.987,-1.349 -1.154,-2.193 -0.039,-0.15 -0.065,-0.304 -0.079,-0.463z"/>
   <path class="fil4" d="M592.379 299.716c1.587,0 2.873,1.287 2.873,2.873 0,1.586 -1.286,2.873 -2.873,2.873l-36.498 0c-1.586,0 -2.873,-1.287 -2.873,-2.873 0,-1.586 1.287,-2.873 2.873,-2.873l36.498 0z"/>
   <path class="fil4" d="M555.881 299.716c1.587,0 2.873,1.287 2.873,2.873 0,1.113 -0.632,2.078 -1.557,2.555 -0.456,0.865 -1.343,1.474 -2.39,1.527 -1.524,0.077 -2.832,-1.052 -2.994,-2.551 -0.02,-0.136 -0.03,-0.276 -0.03,-0.418 0,-1.097 0.463,-2.069 1.192,-2.786 0.647,-0.637 1.524,-1.066 2.457,-1.17l0.449 -0.03z"/>
   <path class="fil4" d="M551.811 304.112c-0.167,-1.573 0.974,-2.986 2.547,-3.153 1.574,-0.167 2.987,0.974 3.154,2.547l0.711 6.508c0.167,1.573 -0.974,2.986 -2.547,3.153 -1.573,0.167 -2.986,-0.974 -3.153,-2.547l-0.712 -6.508z"/>
   <path class="fil4" d="M552.523 310.62c-0.167,-1.574 0.974,-2.987 2.547,-3.154 1.202,-0.127 2.311,0.509 2.842,1.518 0.923,0.478 1.554,1.443 1.554,2.553 0,1.587 -1.286,2.874 -2.873,2.874 -1.137,0 -2.116,-0.456 -2.845,-1.184 -0.678,-0.678 -1.116,-1.61 -1.225,-2.607z"/>
   <path class="fil4" d="M556.593 314.411c-1.586,0 -2.873,-1.287 -2.873,-2.874 0,-1.586 1.287,-2.873 2.873,-2.873l35.075 0c1.586,0 2.873,1.287 2.873,2.873 0,1.587 -1.287,2.874 -2.873,2.874l-35.075 0z"/>
   <path class="fil4" d="M591.668 314.411c-1.587,0 -2.874,-1.287 -2.874,-2.874 0,-1.111 0.632,-2.075 1.556,-2.553 0.531,-1.009 1.639,-1.645 2.841,-1.518 1.574,0.167 2.715,1.58 2.548,3.154 -0.109,1.001 -0.548,1.93 -1.226,2.607 -0.739,0.729 -1.717,1.184 -2.845,1.184z"/>
   <path class="fil4" d="M595.739 310.62c-0.167,1.573 -1.58,2.714 -3.154,2.547 -1.573,-0.167 -2.714,-1.58 -2.547,-3.153l0.712 -6.508c0.167,-1.573 1.58,-2.714 3.153,-2.547 1.573,0.167 2.714,1.58 2.547,3.153l-0.711 6.508z"/>
   <path class="fil4" d="M596.462 303.955c-0.08,1.58 -1.428,2.796 -3.008,2.716 -1.046,-0.053 -1.933,-0.662 -2.389,-1.526 -0.925,-0.478 -1.559,-1.443 -1.559,-2.556 0,-1.586 1.287,-2.873 2.873,-2.873l0.448 0.03c0.937,0.105 1.814,0.535 2.459,1.17 0.727,0.712 1.193,1.689 1.193,2.787l-0.017 0.252z"/>
   <path class="fil3" d="M586.45 302.481c4.209,-3.722 6.96,-9.379 7.201,-15.75 5.755,0 12.053,-4.158 14.125,-9.288 2.073,-5.128 -0.866,-9.285 -6.565,-9.285 -4.092,0 -8.493,2.143 -11.418,5.251 -3.474,-5.105 -9.001,-8.408 -15.226,-8.408 -10.517,0 -19.041,9.42 -19.041,21.041 0,6.486 2.658,12.289 6.835,16.148l0.811 0.399 23.278 -0.108z"/>
   <path class="fil4" d="M585.311 299.624c1.5,-1.501 2.754,-3.311 3.682,-5.341 1.056,-2.31 1.693,-4.905 1.797,-7.652 0.054,-1.547 1.326,-2.764 2.861,-2.763l0 -0.01c2.315,0 4.768,-0.853 6.864,-2.232 2.09,-1.373 3.788,-3.233 4.601,-5.249l0.004 -0.009c0.302,-0.758 0.447,-1.465 0.447,-2.099 0,-0.673 -0.169,-1.256 -0.483,-1.713 -0.322,-0.469 -0.823,-0.855 -1.474,-1.118 -0.649,-0.262 -1.455,-0.407 -2.399,-0.407 -1.603,0 -3.282,0.42 -4.859,1.146 -1.676,0.77 -3.234,1.88 -4.472,3.196 -1.084,1.152 -2.898,1.207 -4.051,0.123 -0.154,-0.145 -0.289,-0.303 -0.403,-0.471 -1.518,-2.231 -3.484,-4.056 -5.742,-5.303 -2.141,-1.181 -4.559,-1.847 -7.117,-1.847 -4.42,0 -8.432,1.991 -11.343,5.207 -2.98,3.293 -4.825,7.875 -4.825,12.96 0,2.806 0.556,5.447 1.548,7.792 0.953,2.253 2.317,4.255 3.982,5.89l21.382 -0.1zm8.889 -2.961c-1.413,3.092 -3.418,5.808 -5.853,7.961 -0.503,0.445 -1.163,0.716 -1.886,0.718l-23.136 0.108c-0.476,0.026 -0.964,-0.066 -1.421,-0.292l-0.697 -0.342c-0.281,-0.124 -0.548,-0.296 -0.787,-0.516 -2.42,-2.236 -4.395,-5.048 -5.747,-8.245 -1.295,-3.061 -2.02,-6.457 -2.02,-10.013 0,-6.536 2.42,-12.477 6.329,-16.797 3.98,-4.397 9.49,-7.117 15.585,-7.117 3.549,0 6.905,0.925 9.878,2.566 2.129,1.176 4.059,2.72 5.717,4.555 1.181,-0.891 2.467,-1.662 3.81,-2.279 2.32,-1.067 4.819,-1.685 7.239,-1.685 1.675,0 3.201,0.296 4.532,0.834 1.729,0.698 3.113,1.803 4.076,3.206 0.973,1.416 1.495,3.099 1.495,4.944 0,1.345 -0.283,2.78 -0.878,4.252 -1.264,3.112 -3.759,5.901 -6.779,7.886 -2.236,1.471 -4.788,2.524 -7.362,2.966 -0.347,2.586 -1.066,5.04 -2.095,7.29z"/>
   <path class="fil4" d="M593.563 289.592c-1.58,-0.018 -2.847,-1.316 -2.829,-2.896 0.018,-1.579 1.316,-2.846 2.895,-2.828l0.111 0.002c1.58,0.018 2.846,1.315 2.829,2.895 -0.018,1.58 -1.316,2.846 -2.896,2.828l-0.11 -0.001z"/>
   <path class="fil4" d="M561.925 265.336c-0.874,-1.319 -0.512,-3.099 0.808,-3.972 1.319,-0.874 3.098,-0.512 3.972,0.807l1.571 2.361c0.874,1.319 0.512,3.098 -0.808,3.972 -1.319,0.874 -3.098,0.511 -3.972,-0.808l-1.571 -2.36z"/>
   <path class="fil4" d="M550.759 281.453c-1.53,-0.409 -2.44,-1.982 -2.031,-3.512 0.409,-1.53 1.981,-2.44 3.511,-2.031l2.887 0.782c1.531,0.409 2.44,1.981 2.031,3.511 -0.408,1.531 -1.981,2.44 -3.511,2.031l-2.887 -0.781z"/>
   <path class="fil4" d="M554.483 272.282c-1.326,-0.855 -1.708,-2.625 -0.853,-3.951 0.855,-1.325 2.625,-1.707 3.951,-0.852l2.462 1.591c1.326,0.855 1.708,2.625 0.852,3.951 -0.855,1.325 -2.624,1.707 -3.95,0.852l-2.462 -1.591z"/>
   <path class="fil4" d="M551.5 290.941c-1.568,0.217 -3.015,-0.879 -3.231,-2.446 -0.217,-1.568 0.878,-3.015 2.446,-3.232l2.976 -0.412c1.567,-0.217 3.014,0.879 3.231,2.446 0.217,1.568 -0.879,3.015 -2.446,3.232l-2.976 0.412z"/>
   <path class="fil4" d="M554.723 299.601c-1.4,0.737 -3.134,0.2 -3.871,-1.2 -0.737,-1.4 -0.2,-3.135 1.2,-3.872l2.607 -1.382c1.4,-0.737 3.135,-0.199 3.872,1.201 0.737,1.399 0.199,3.134 -1.201,3.871l-2.607 1.382z"/>
   <path class="fil4" d="M583.029 262.25c0.873,-1.32 2.653,-1.682 3.972,-0.808 1.32,0.874 1.682,2.653 0.808,3.972l-1.57 2.361c-0.874,1.319 -2.653,1.682 -3.973,0.808 -1.319,-0.874 -1.681,-2.653 -0.807,-3.972l1.57 -2.361z"/>
   <path class="fil4" d="M609.09 266.261c1.333,-0.855 3.107,-0.468 3.962,0.864 0.855,1.333 0.469,3.107 -0.864,3.962l-16.355 10.57c-1.332,0.855 -3.107,0.468 -3.962,-0.864 -0.855,-1.332 -0.468,-3.107 0.864,-3.962l16.355 -10.57z"/>
   <path class="fil4" d="M597.237 293.329c1.456,0.62 2.135,2.303 1.515,3.759 -0.62,1.456 -2.303,2.134 -3.759,1.515l-2.729 -1.167c-1.456,-0.62 -2.135,-2.303 -1.515,-3.759 0.62,-1.457 2.303,-2.135 3.759,-1.515l2.729 1.167z"/>
   <path class="fil4" d="M600.143 263.517c0.383,-1.537 1.941,-2.471 3.478,-2.087 1.537,0.383 2.471,1.941 2.087,3.478l-0.684 2.695c-0.383,1.537 -1.941,2.471 -3.478,2.088 -1.537,-0.384 -2.471,-1.942 -2.087,-3.479l0.684 -2.695z"/>
   <path class="fil4" d="M591.256 267.728c-0.874,-1.319 -0.512,-3.099 0.807,-3.973 1.32,-0.873 3.099,-0.511 3.973,0.808l1.571 2.361c0.874,1.319 0.511,3.099 -0.808,3.973 -1.319,0.874 -3.099,0.511 -3.973,-0.808l-1.57 -2.361z"/>
   <path class="fil4" d="M612.835 275.96c1.511,0.458 2.366,2.057 1.907,3.568 -0.458,1.512 -2.057,2.366 -3.568,1.908l-2.855 -0.874c-1.511,-0.459 -2.366,-2.057 -1.907,-3.569 0.458,-1.511 2.057,-2.366 3.569,-1.907l2.854 0.874z"/>
   <path class="fil4" d="M602.65 285.091c-0.874,-1.319 -0.511,-3.098 0.808,-3.972 1.319,-0.874 3.099,-0.512 3.973,0.808l1.57 2.361c0.874,1.319 0.511,3.098 -0.808,3.972 -1.319,0.874 -3.099,0.512 -3.973,-0.808l-1.57 -2.361z"/>
   <path class="fil4" d="M595.511 287.985c-0.353,-1.543 0.612,-3.081 2.155,-3.434 1.542,-0.352 3.08,0.613 3.433,2.155l0.624 2.708c0.352,1.542 -0.613,3.081 -2.155,3.433 -1.543,0.353 -3.081,-0.612 -3.434,-2.154l-0.623 -2.708z"/>
   <path class="fil4" d="M588.11 275.72c-1.276,-0.929 -1.558,-2.719 -0.628,-3.995 0.929,-1.276 2.719,-1.558 3.995,-0.629 1.082,0.788 2.357,2.996 3.305,6.317 0.658,2.308 1.269,5.344 1.664,9.014 0.167,1.573 -0.974,2.986 -2.547,3.153 -1.573,0.167 -2.986,-0.974 -3.153,-2.547 -0.355,-3.281 -0.899,-5.99 -1.486,-8.049 -0.588,-2.06 -0.993,-3.15 -1.15,-3.264z"/>
   <path class="fil3" d="M578.273 302.587c2.216,-3.286 3.712,-9.493 3.712,-16.606 0,-10.549 -3.288,-19.1 -7.344,-19.1 -4.054,0 -7.342,8.551 -7.342,19.1 0,6.643 1.305,12.495 3.283,15.917l0.217 0.689 7.474 0z"/>
   <path class="fil4" d="M576.618 299.714c0.626,-1.278 1.165,-2.896 1.582,-4.763 0.58,-2.592 0.912,-5.655 0.912,-8.97 0,-4.944 -0.744,-9.354 -1.948,-12.484 -0.888,-2.312 -1.8,-3.743 -2.523,-3.743 -0.722,0 -1.632,1.431 -2.521,3.743 -1.204,3.13 -1.948,7.54 -1.948,12.484 0,3.093 0.291,5.967 0.801,8.442 0.43,2.087 1.009,3.888 1.693,5.291l3.952 0zm7.17 -3.528c-0.715,3.201 -1.766,5.915 -3.04,7.86 -0.5,0.846 -1.422,1.414 -2.475,1.414l-7.474 0c-1.22,-0.002 -2.352,-0.785 -2.738,-2.009l-0.136 -0.43c-1.076,-1.964 -1.958,-4.518 -2.563,-7.453 -0.597,-2.893 -0.936,-6.16 -0.936,-9.587 0,-5.602 0.9,-10.745 2.353,-14.526 1.768,-4.601 4.53,-7.447 7.862,-7.447 3.334,0 6.095,2.846 7.864,7.447 1.454,3.781 2.354,8.924 2.354,14.526 0,3.673 -0.391,7.164 -1.071,10.205z"/>
   <rect class="fil0" x="381.235" y="294.223" width="67.486" height="35.275"/>
   <path class="fil4" d="M381.235 291.351l70.359 0 0 41.021 -73.232 0 0 -41.021 2.873 0zm64.613 5.746l-61.74 0 0 29.528 61.74 0 0 -29.528z"/>
   <path class="fil4" d="M356.137 243.47c-1.586,0 -2.873,-1.287 -2.873,-2.873 0,-1.587 1.287,-2.873 2.873,-2.873l117.679 0c1.586,0 2.873,1.286 2.873,2.873 0,1.586 -1.287,2.873 -2.873,2.873l-117.679 0z"/>
   <path class="fil4" d="M356.137 217.515c-1.586,0 -2.873,-1.287 -2.873,-2.873 0,-1.587 1.287,-2.873 2.873,-2.873l117.679 0c1.586,0 2.873,1.286 2.873,2.873 0,1.586 -1.287,2.873 -2.873,2.873l-117.679 0z"/>
   <path class="fil4" d="M356.137 191.559c-1.586,0 -2.873,-1.287 -2.873,-2.873 0,-1.586 1.287,-2.873 2.873,-2.873l117.679 0c1.586,0 2.873,1.287 2.873,2.873 0,1.586 -1.287,2.873 -2.873,2.873l-117.679 0z"/>
  </g>
 </g>
</svg>
