<?xml version="1.0" encoding="UTF-8"?>
<!DOCTYPE svg PUBLIC "-//W3C//DTD SVG 1.1//EN" "http://www.w3.org/Graphics/SVG/1.1/DTD/svg11.dtd">
<!-- Creator: CorelDRAW 2018 (64-Bit) -->
<svg xmlns="http://www.w3.org/2000/svg" xml:space="preserve" width="283px" height="159px" version="1.1" style="shape-rendering:geometricPrecision; text-rendering:geometricPrecision; image-rendering:optimizeQuality; fill-rule:evenodd; clip-rule:evenodd"
viewBox="0 0 76.783 43.191"
 xmlns:xlink="http://www.w3.org/1999/xlink">
 <defs>
  <style type="text/css">
   <![CDATA[
    .fil1 {fill:#8D9AA8}
    .fil2 {fill:#8D9AA8}
    .fil0 {fill:#A3AEBA}
    .fil3 {fill:#8D9AA8;fill-rule:nonzero}
    .fil4 {fill:#EAEDF2;fill-rule:nonzero}
   ]]>
  </style>
 </defs>
 <g id="Layer_x0020_1">
  <metadata id="CorelCorpID_0Corel-Layer"/>
  <rect class="fil0" width="76.783" height="43.191"/>
  <ellipse class="fil1" cx="38.736" cy="31.657" rx="19.331" ry="2.79"/>
  <path class="fil2" d="M9.151 19.747l0 0c0.149,0 0.272,0.122 0.272,0.271l0 0.735 0.734 0c0.15,0 0.272,0.122 0.272,0.271l0 0.001c0,0.149 -0.122,0.271 -0.272,0.271l-0.734 0 0 0.735c0,0.149 -0.123,0.271 -0.272,0.271l0 0c-0.149,0 -0.272,-0.122 -0.272,-0.271l0 -0.735 -0.734 0c-0.15,0 -0.272,-0.122 -0.272,-0.271l0 -0.001c0,-0.149 0.122,-0.271 0.272,-0.271l0.734 0 0 -0.735c0,-0.149 0.123,-0.271 0.272,-0.271z"/>
  <path class="fil2" d="M63.518 12.942l0 0c0.106,-0.106 0.279,-0.106 0.384,0l0.52 0.519 0.519 -0.519c0.106,-0.106 0.279,-0.106 0.384,0l0 0c0.106,0.106 0.106,0.278 0,0.384l-0.519 0.519 0.519 0.52c0.106,0.106 0.106,0.278 0.001,0.384l-0.001 0c-0.105,0.106 -0.278,0.106 -0.384,0l-0.519 -0.519 -0.52 0.519c-0.105,0.106 -0.278,0.106 -0.384,0l0 0c-0.105,-0.106 -0.105,-0.278 0,-0.384l0.52 -0.52 -0.52 -0.519c-0.105,-0.106 -0.105,-0.278 0,-0.384z"/>
  <circle class="fil2" cx="19.405" cy="25.743" r="0.628"/>
  <circle class="fil2" cx="43.141" cy="8.366" r="0.628"/>
  <path class="fil3" d="M20.582 10.296c0.299,0 0.57,0.122 0.766,0.318 0.196,0.195 0.317,0.466 0.317,0.765 0,0.299 -0.121,0.57 -0.317,0.766 -0.196,0.196 -0.467,0.317 -0.766,0.317 -0.299,0 -0.57,-0.121 -0.765,-0.317 -0.196,-0.196 -0.318,-0.467 -0.318,-0.766 0,-0.299 0.122,-0.57 0.318,-0.765 0.195,-0.196 0.466,-0.318 0.765,-0.318zm0.574 0.51c-0.147,-0.147 -0.35,-0.238 -0.574,-0.238 -0.224,0 -0.427,0.091 -0.573,0.238 -0.147,0.146 -0.238,0.349 -0.238,0.573 0,0.224 0.091,0.427 0.238,0.574 0.146,0.147 0.349,0.237 0.573,0.237 0.224,0 0.427,-0.09 0.574,-0.237 0.147,-0.147 0.237,-0.35 0.237,-0.574 0,-0.224 -0.09,-0.427 -0.237,-0.573z"/>
  <polygon class="fil2" points="64.422,29.592 65.7,31.497 66.978,29.592 "/>
  <rect class="fil0" x="28.103" y="20.048" width="20.577" height="11.524" rx="0.349" ry="0.382"/>
  <path class="fil4" d="M28.485 19.776l19.813 0c0.18,0 0.343,0.074 0.461,0.192l0.001 0.001c0.118,0.118 0.192,0.281 0.192,0.46l0 10.761c0,0.179 -0.074,0.342 -0.192,0.461l-0.001 0.001c-0.118,0.118 -0.281,0.192 -0.461,0.192l-19.813 0c-0.179,0 -0.342,-0.074 -0.461,-0.192l-0.001 -0.001c-0.118,-0.119 -0.192,-0.282 -0.192,-0.461l0 -10.761c0,-0.179 0.074,-0.342 0.192,-0.46l0.001 -0.001c0.119,-0.118 0.282,-0.192 0.461,-0.192zm19.813 0.543l-19.813 0c-0.031,0 -0.058,0.013 -0.078,0.032 -0.02,0.02 -0.032,0.048 -0.032,0.078l0 10.761c0,0.031 0.012,0.058 0.032,0.078 0.02,0.02 0.047,0.032 0.078,0.032l19.813 0c0.031,0 0.059,-0.012 0.079,-0.032 0.019,-0.02 0.032,-0.047 0.032,-0.078l0 -10.761c0,-0.03 -0.013,-0.058 -0.032,-0.078 -0.02,-0.019 -0.048,-0.032 -0.079,-0.032z"/>
  <path class="fil3" d="M59.276 23.818c0.371,0 0.707,0.151 0.951,0.394 0.243,0.243 0.394,0.579 0.394,0.951 0,0.371 -0.151,0.707 -0.394,0.95 -0.244,0.244 -0.58,0.394 -0.951,0.394 -0.371,0 -0.708,-0.15 -0.951,-0.394 -0.243,-0.243 -0.394,-0.579 -0.394,-0.95 0,-0.372 0.151,-0.708 0.394,-0.951 0.243,-0.243 0.58,-0.394 0.951,-0.394zm0.759 0.586c-0.194,-0.194 -0.463,-0.314 -0.759,-0.314 -0.296,0 -0.565,0.12 -0.759,0.314 -0.194,0.194 -0.314,0.462 -0.314,0.759 0,0.296 0.12,0.564 0.314,0.758 0.194,0.195 0.463,0.315 0.759,0.315 0.296,0 0.565,-0.12 0.759,-0.315 0.194,-0.194 0.314,-0.462 0.314,-0.758 0,-0.297 -0.12,-0.565 -0.314,-0.759z"/>
  <path class="fil4" d="M34.42 20.643c0,-0.15 0.122,-0.272 0.271,-0.272 0.15,0 0.272,0.122 0.272,0.272l0 10.854c0,0.15 -0.122,0.271 -0.272,0.271 -0.149,0 -0.271,-0.121 -0.271,-0.271l0 -10.854z"/>
  <path class="fil4" d="M32.774 26.745c-0.15,0 -0.272,-0.121 -0.272,-0.271 0,-0.15 0.122,-0.272 0.272,-0.272l0.639 0c0.15,0 0.272,0.122 0.272,0.272 0,0.15 -0.122,0.271 -0.272,0.271l-0.639 0z"/>
  <path class="fil4" d="M43.194 29.771c-0.106,0.106 -0.278,0.106 -0.384,0 -0.106,-0.106 -0.106,-0.278 0,-0.384l3.836 -3.836c0.106,-0.106 0.278,-0.106 0.384,0 0.106,0.106 0.106,0.278 0,0.384l-3.836 3.836z"/>
  <path class="fil4" d="M45.112 29.768c-0.106,0.106 -0.278,0.106 -0.384,0 -0.106,-0.106 -0.106,-0.278 0,-0.384l1.918 -1.918c0.106,-0.106 0.278,-0.106 0.384,0 0.106,0.106 0.106,0.278 0,0.384l-1.918 1.918z"/>
  <path class="fil3" d="M50.695 19.34c0,1.133 -0.918,2.05 -2.049,2.05 -1.134,0 -1.829,-0.776 -2.074,-1.987 0,1.133 -0.897,1.987 -2.028,1.987 -1.134,0 -2.053,-0.917 -2.052,-2.05 0.001,1.133 -0.918,2.05 -2.049,2.05 -1.133,0 -2.053,-0.917 -2.052,-2.05 0.001,1.133 -0.917,2.05 -2.049,2.05 -1.133,0 -2.053,-0.917 -2.052,-2.05 0.001,1.133 -0.917,2.05 -2.048,2.05 -1.134,0 -2.024,-0.839 -2.023,-1.972 -0.214,1.12 -0.947,1.972 -2.078,1.972 -1.133,0 -2.053,-0.917 -2.053,-2.05l2.175 -5.949c0.178,-0.489 0.426,-0.686 0.947,-0.686l18.364 0c0.521,0 0.768,0.197 0.947,0.686l2.174 5.949z"/>
  <path class="fil4" d="M50.966 19.34c0.001,0.64 -0.259,1.22 -0.679,1.64l0 0.002c-0.42,0.42 -1,0.68 -1.641,0.68 -0.626,0 -1.137,-0.212 -1.53,-0.589 -0.197,-0.188 -0.362,-0.417 -0.495,-0.681 -0.112,0.231 -0.262,0.439 -0.443,0.616 -0.416,0.408 -0.993,0.654 -1.634,0.654l-0.001 0 0 -0.001c-0.641,-0.001 -1.222,-0.26 -1.641,-0.679 -0.163,-0.162 -0.301,-0.348 -0.409,-0.552 -0.109,0.204 -0.247,0.39 -0.409,0.552 -0.419,0.419 -0.999,0.678 -1.639,0.679l0 0.001 -0.004 0 0 -0.001c-0.641,-0.001 -1.221,-0.26 -1.64,-0.679 -0.162,-0.162 -0.3,-0.348 -0.409,-0.552 -0.109,0.204 -0.247,0.39 -0.409,0.552 -0.419,0.419 -0.999,0.678 -1.639,0.679l0 0.001 -0.004 0 0 -0.001c-0.64,-0.001 -1.22,-0.26 -1.64,-0.679 -0.162,-0.162 -0.3,-0.348 -0.409,-0.551 -0.109,0.204 -0.247,0.389 -0.408,0.551 -0.419,0.419 -0.999,0.678 -1.639,0.679l0 0.001 -0.005 0 0 -0.001c-0.638,-0.001 -1.21,-0.239 -1.622,-0.637 -0.186,-0.179 -0.339,-0.39 -0.452,-0.626 -0.133,0.252 -0.299,0.476 -0.496,0.663 -0.396,0.376 -0.911,0.601 -1.528,0.601 -0.641,0 -1.222,-0.26 -1.643,-0.68 -0.421,-0.421 -0.682,-1.002 -0.682,-1.642 0,-0.041 0.009,-0.079 0.025,-0.113l2.167 -5.928c0.108,-0.295 0.243,-0.507 0.439,-0.652 0.199,-0.148 0.443,-0.214 0.763,-0.214l18.364 0c0.32,0 0.563,0.066 0.763,0.214 0.196,0.145 0.331,0.357 0.438,0.652l2.175 5.949c0.011,0.03 0.016,0.061 0.016,0.092zm-1.063 1.258c0.312,-0.312 0.509,-0.74 0.52,-1.214l-2.157 -5.901c-0.071,-0.193 -0.149,-0.325 -0.252,-0.401 -0.098,-0.073 -0.239,-0.105 -0.44,-0.105l-18.364 0c-0.201,0 -0.342,0.032 -0.441,0.105 -0.103,0.076 -0.181,0.208 -0.252,0.401l-2.157 5.901c0.012,0.474 0.208,0.902 0.52,1.214 0.322,0.321 0.768,0.52 1.261,0.52 0.469,0 0.858,-0.168 1.154,-0.449 0.329,-0.313 0.553,-0.766 0.655,-1.287 0.017,-0.133 0.131,-0.236 0.269,-0.236 0.15,0 0.272,0.122 0.272,0.272l0 0.003c0,0.488 0.19,0.912 0.502,1.213 0.314,0.303 0.753,0.485 1.246,0.486l0 -0.002 0.005 0 0 0.002c0.489,-0.001 0.933,-0.2 1.255,-0.522 0.321,-0.321 0.519,-0.765 0.519,-1.256l0 -0.002 0.544 0 0 0.002c0,0.491 0.199,0.935 0.52,1.256 0.322,0.322 0.768,0.521 1.258,0.522l0 -0.002 0.004 0 0 0.002c0.489,-0.001 0.933,-0.2 1.255,-0.522 0.322,-0.322 0.521,-0.766 0.521,-1.256l0 -0.002 0.543 0 -0.001 0.048c0.012,0.472 0.209,0.899 0.521,1.21 0.322,0.322 0.767,0.521 1.258,0.522l0 -0.002 0.004 0 0 0.002c0.489,-0.001 0.933,-0.2 1.255,-0.522 0.321,-0.322 0.52,-0.766 0.52,-1.256l0 -0.002 0.543 0 0 0.047c0.012,0.473 0.209,0.899 0.52,1.211 0.323,0.322 0.768,0.521 1.26,0.522l0 -0.002 0.001 0c0.496,0 0.938,-0.186 1.254,-0.496 0.312,-0.305 0.502,-0.732 0.502,-1.219l0.001 0c0,-0.127 0.089,-0.24 0.218,-0.266 0.146,-0.029 0.289,0.066 0.318,0.213 0.115,0.567 0.333,1.025 0.654,1.333 0.292,0.279 0.677,0.435 1.155,0.435 0.491,0 0.935,-0.199 1.257,-0.52z"/>
  <path class="fil4" d="M34.507 12.842c0.011,-0.149 0.141,-0.261 0.291,-0.25 0.149,0.011 0.261,0.141 0.25,0.291l-0.51 6.789c-0.011,0.149 -0.141,0.261 -0.29,0.25 -0.15,-0.011 -0.262,-0.141 -0.251,-0.291l0.51 -6.789z"/>
  <path class="fil4" d="M41.733 12.883c-0.011,-0.15 0.101,-0.28 0.25,-0.291 0.149,-0.011 0.28,0.101 0.291,0.25l0.509 6.789c0.011,0.15 -0.101,0.28 -0.25,0.291 -0.149,0.011 -0.28,-0.101 -0.291,-0.25l-0.509 -6.789z"/>
  <path class="fil4" d="M44.798 12.81c-0.033,-0.146 0.059,-0.291 0.205,-0.324 0.146,-0.032 0.291,0.059 0.323,0.205l1.541 6.789c0.033,0.146 -0.059,0.291 -0.205,0.324 -0.146,0.032 -0.29,-0.059 -0.323,-0.205l-1.541 -6.789z"/>
  <path class="fil4" d="M31.443 12.802c0.033,-0.146 0.178,-0.237 0.324,-0.205 0.145,0.033 0.237,0.178 0.204,0.324l-1.54 6.789c-0.033,0.146 -0.178,0.237 -0.324,0.205 -0.146,-0.033 -0.237,-0.178 -0.205,-0.324l1.541 -6.789z"/>
  <path class="fil4" d="M38.12 12.726c0,-0.15 0.122,-0.272 0.272,-0.272 0.15,0 0.271,0.122 0.271,0.272l0 7.021c0,0.15 -0.121,0.271 -0.271,0.271 -0.15,0 -0.272,-0.121 -0.272,-0.271l0 -7.021z"/>
 </g>
</svg>
