<?xml version="1.0" encoding="UTF-8"?>
<!DOCTYPE svg PUBLIC "-//W3C//DTD SVG 1.1//EN" "http://www.w3.org/Graphics/SVG/1.1/DTD/svg11.dtd">
<!-- Creator: CorelDRAW 2018 (64-Bit) -->
<svg xmlns="http://www.w3.org/2000/svg" xml:space="preserve" width="283px" height="159px" version="1.1" style="shape-rendering:geometricPrecision; text-rendering:geometricPrecision; image-rendering:optimizeQuality; fill-rule:evenodd; clip-rule:evenodd"
viewBox="0 0 100.701 56.645"
 xmlns:xlink="http://www.w3.org/1999/xlink">
 <defs>
  <style type="text/css">
   <![CDATA[
    .fil1 {fill:#8D9AA8}
    .fil2 {fill:#8D9AA8}
    .fil0 {fill:#A3AEBA}
    .fil4 {fill:#8D9AA8;fill-rule:nonzero}
    .fil3 {fill:#EAEDF2;fill-rule:nonzero}
   ]]>
  </style>
 </defs>
 <g id="Layer_x0020_1">
  <metadata id="CorelCorpID_0Corel-Layer"/>
  <g id="_2388179193888">
   <rect class="fil0" width="100.701" height="56.645"/>
   <ellipse class="fil1" cx="50.803" cy="41.518" rx="23.153" ry="3.658"/>
   <ellipse class="fil2" cx="50.803" cy="41.518" rx="3.305" ry="0.824"/>
   <path class="fil3" d="M50.803 40.338c0.939,0 1.796,0.097 2.422,0.253 0.766,0.191 1.239,0.515 1.239,0.927 0,0.413 -0.473,0.737 -1.239,0.928 -0.626,0.156 -1.483,0.252 -2.422,0.252 -0.94,0 -1.797,-0.096 -2.422,-0.252 -0.766,-0.191 -1.24,-0.515 -1.24,-0.928 0,-0.412 0.474,-0.736 1.24,-0.927 0.625,-0.156 1.482,-0.253 2.422,-0.253zm2.252 0.943c-0.57,-0.142 -1.366,-0.23 -2.252,-0.23 -0.886,0 -1.682,0.088 -2.253,0.23 -0.43,0.107 -0.696,0.195 -0.696,0.237 0,0.043 0.266,0.131 0.696,0.238 0.571,0.142 1.367,0.23 2.253,0.23 0.886,0 1.682,-0.088 2.252,-0.23 0.431,-0.107 0.697,-0.195 0.697,-0.238 0,-0.042 -0.266,-0.13 -0.697,-0.237z"/>
   <path class="fil2" d="M85.912 17.234l0 0c0.196,0 0.356,0.161 0.356,0.356l0 0.964 0.964 0c0.196,0 0.356,0.16 0.356,0.356l0 0c0,0.196 -0.16,0.356 -0.356,0.356l-0.964 0 0 0.964c0,0.196 -0.16,0.356 -0.356,0.356l0 0c-0.196,0 -0.356,-0.16 -0.356,-0.356l0 -0.964 -0.964 0c-0.196,0 -0.356,-0.16 -0.356,-0.356l0 0c0,-0.196 0.16,-0.356 0.356,-0.356l0.964 0 0 -0.964c0,-0.195 0.16,-0.356 0.356,-0.356z"/>
   <path class="fil2" d="M31.186 28.426l0 0c0.139,-0.138 0.366,-0.138 0.504,0l0.681 0.682 0.682 -0.682c0.138,-0.138 0.365,-0.138 0.503,0l0 0c0.139,0.139 0.139,0.366 0,0.504l-0.681 0.681 0.681 0.682c0.139,0.138 0.139,0.365 0.001,0.503l-0.001 0.001c-0.138,0.138 -0.365,0.138 -0.503,0l-0.682 -0.682 -0.681 0.682c-0.138,0.138 -0.365,0.138 -0.504,-0.001l0 0c-0.138,-0.138 -0.138,-0.365 0,-0.503l0.682 -0.682 -0.682 -0.681c-0.138,-0.138 -0.138,-0.365 0,-0.504z"/>
   <circle class="fil2" cx="13.017" cy="40.695" r="0.824"/>
   <circle class="fil2" cx="67.019" cy="9.331" r="0.824"/>
   <path class="fil4" d="M79.642 34.006c0.392,0 0.747,0.159 1.004,0.416 0.257,0.256 0.416,0.612 0.416,1.004 0,0.392 -0.159,0.747 -0.416,1.004 -0.257,0.257 -0.612,0.416 -1.004,0.416 -0.392,0 -0.747,-0.159 -1.004,-0.416 -0.257,-0.257 -0.416,-0.612 -0.416,-1.004 0,-0.392 0.159,-0.748 0.416,-1.004 0.257,-0.257 0.612,-0.416 1.004,-0.416zm0.753 0.667c-0.193,-0.192 -0.459,-0.311 -0.753,-0.311 -0.294,0 -0.56,0.119 -0.752,0.311 -0.193,0.193 -0.312,0.459 -0.312,0.753 0,0.294 0.119,0.56 0.312,0.752 0.192,0.193 0.458,0.312 0.752,0.312 0.294,0 0.56,-0.119 0.753,-0.312 0.192,-0.192 0.311,-0.458 0.311,-0.752 0,-0.294 -0.119,-0.56 -0.311,-0.753z"/>
   <polygon class="fil2" points="35.403,14.642 37.079,12.144 38.755,14.642 "/>
   <polygon class="fil2" points="87.224,45.042 89.248,43.685 87.224,42.327 "/>
   <path class="fil4" d="M15.75 23.797c0,-0.487 0.198,-0.928 0.517,-1.247 0.319,-0.319 0.76,-0.517 1.247,-0.517 0.487,0 0.927,0.198 1.247,0.517 0.319,0.319 0.516,0.76 0.516,1.247 0,0.487 -0.197,0.928 -0.516,1.247 -0.32,0.319 -0.76,0.516 -1.247,0.516 -0.487,0 -0.928,-0.197 -1.247,-0.516 -0.319,-0.319 -0.517,-0.76 -0.517,-1.247zm0.768 -0.995c-0.254,0.254 -0.412,0.606 -0.412,0.995 0,0.388 0.158,0.74 0.412,0.995 0.255,0.254 0.607,0.412 0.996,0.412 0.388,0 0.74,-0.158 0.995,-0.412 0.254,-0.255 0.412,-0.607 0.412,-0.995 0,-0.389 -0.158,-0.741 -0.412,-0.995 -0.255,-0.255 -0.607,-0.413 -0.995,-0.413 -0.389,0 -0.741,0.158 -0.996,0.413z"/>
   <path class="fil2" d="M71.879 27.402l-3.49 -4.893 3.49 -4.892 -11.726 0 -1.289 0.582 0 7.856 -0.219 0c-0.37,0 -0.673,0.303 -0.673,0.674l0 0c0,0.37 0.303,0.673 0.673,0.673 4.411,0 8.823,0 13.234,0z"/>
   <path class="fil3" d="M71.188 27.046l-3.088 -4.331c-0.091,-0.128 -0.085,-0.296 0.003,-0.416l3.085 -4.326 -10.959 0 -1.008 0.455 0 7.627c0,0.197 -0.16,0.357 -0.357,0.357l-0.219 0c-0.087,0 -0.166,0.035 -0.224,0.092 -0.057,0.058 -0.093,0.137 -0.093,0.225 0,0.086 0.036,0.166 0.094,0.223 0.057,0.058 0.137,0.094 0.223,0.094l12.543 0zm-2.362 -4.537l3.326 4.664c0.052,0.062 0.083,0.142 0.083,0.229 0,0.197 -0.16,0.356 -0.356,0.356l-13.234 0c-0.283,0 -0.541,-0.116 -0.727,-0.302 -0.186,-0.186 -0.302,-0.444 -0.302,-0.727 0,-0.283 0.116,-0.54 0.302,-0.726l0.002 -0.002c0.155,-0.155 0.36,-0.262 0.588,-0.293l0 -7.509c0.001,-0.136 0.079,-0.265 0.21,-0.324l1.27 -0.573c0.049,-0.026 0.106,-0.041 0.165,-0.041l11.726 0 0 0.001c0.071,0 0.143,0.021 0.205,0.066 0.16,0.113 0.198,0.335 0.084,0.495l-3.342 4.686z"/>
   <path class="fil0" d="M50.803 12.995l0 0c0.349,0 0.634,0.286 0.634,0.635l0 28.697 -1.269 0 0 -28.697c0,-0.349 0.286,-0.635 0.635,-0.635z"/>
   <path class="fil3" d="M50.803 12.639c0.272,0 0.52,0.112 0.7,0.291l0.021 0.024c0.167,0.177 0.27,0.415 0.27,0.676l0 28.697c0,0.197 -0.16,0.356 -0.357,0.356l-1.269 0c-0.197,0 -0.356,-0.159 -0.356,-0.356l0 -28.697c0,-0.273 0.111,-0.521 0.291,-0.7 0.179,-0.179 0.427,-0.291 0.7,-0.291zm0 0.713c-0.077,0 -0.146,0.031 -0.197,0.082 -0.05,0.05 -0.082,0.12 -0.082,0.196l0 28.341 0.557 0 0 -28.341c0,-0.071 -0.026,-0.136 -0.07,-0.185l-0.012 -0.011c-0.05,-0.051 -0.12,-0.082 -0.196,-0.082z"/>
   <circle class="fil0" cx="50.803" cy="12.995" r="1.585"/>
   <path class="fil3" d="M50.803 11.054c0.535,0 1.02,0.217 1.371,0.569l0.002 0c0.351,0.351 0.568,0.836 0.568,1.372 0,0.535 -0.217,1.021 -0.568,1.372l-0.002 0.001c-0.351,0.352 -0.836,0.569 -1.371,0.569 -0.536,0 -1.022,-0.217 -1.373,-0.569l-0.02 -0.021c-0.339,-0.35 -0.549,-0.827 -0.549,-1.352 0,-0.536 0.218,-1.021 0.569,-1.372 0.351,-0.352 0.837,-0.569 1.373,-0.569zm0.869 1.072c-0.222,-0.222 -0.529,-0.36 -0.869,-0.36 -0.34,0 -0.647,0.138 -0.869,0.36 -0.223,0.223 -0.36,0.53 -0.36,0.869 0,0.332 0.131,0.634 0.344,0.855l0.016 0.015c0.222,0.222 0.529,0.359 0.869,0.359 0.34,0 0.647,-0.137 0.87,-0.359 0.221,-0.222 0.359,-0.53 0.359,-0.87 0,-0.339 -0.138,-0.646 -0.36,-0.869z"/>
   <path class="fil0" d="M51.437 14.924l9.725 0c0.709,0 1.289,0.58 1.289,1.289l0 8.496 0 0.673c0,-0.37 -0.303,-0.673 -0.674,-0.673l-10.34 0 0 -9.785z"/>
   <path class="fil3" d="M51.437 14.568l9.725 0c0.452,0 0.864,0.185 1.162,0.483l0.02 0.022c0.286,0.297 0.463,0.699 0.463,1.14l0 9.169 -0.713 0c0,-0.087 -0.036,-0.166 -0.093,-0.224 -0.058,-0.057 -0.137,-0.093 -0.224,-0.093l-10.34 0c-0.196,0 -0.356,-0.16 -0.356,-0.356l0 -9.785c0,-0.197 0.16,-0.356 0.356,-0.356zm9.725 0.712l-9.368 0 0 9.072 9.983 0c0.111,0 0.217,0.018 0.317,0.051l0 -8.19c0,-0.249 -0.098,-0.476 -0.257,-0.643l-0.017 -0.016c-0.169,-0.169 -0.402,-0.274 -0.658,-0.274z"/>
   <path class="fil2" d="M57.972 24.709l3.805 0c0.371,0 0.674,0.303 0.674,0.673l0 0c0,0.37 -0.303,0.673 -0.674,0.673l-3.132 0c-0.37,0 -0.673,0.303 -0.673,0.674l0 -0.674 0 -1.346z"/>
   <path class="fil3" d="M57.972 24.352l3.805 0c0.284,0 0.541,0.116 0.728,0.303 0.186,0.186 0.302,0.444 0.302,0.727 0,0.282 -0.116,0.539 -0.302,0.726l-0.002 0.001c-0.188,0.187 -0.444,0.303 -0.726,0.303l-3.132 0c-0.087,0 -0.166,0.035 -0.224,0.092 -0.057,0.058 -0.093,0.137 -0.093,0.225l-0.712 0 0 -2.02c0,-0.197 0.16,-0.357 0.356,-0.357zm3.805 0.713l-3.449 0 0 0.685c0.1,-0.033 0.207,-0.051 0.317,-0.051l3.132 0c0.088,0 0.167,-0.035 0.224,-0.092l0.001 -0.001c0.057,-0.057 0.092,-0.136 0.092,-0.224 0,-0.087 -0.036,-0.166 -0.093,-0.224 -0.058,-0.057 -0.137,-0.093 -0.224,-0.093z"/>
  </g>
 </g>
</svg>
