<?xml version="1.0" encoding="UTF-8"?>
<!DOCTYPE svg PUBLIC "-//W3C//DTD SVG 1.1//EN" "http://www.w3.org/Graphics/SVG/1.1/DTD/svg11.dtd">
<!-- Creator: CorelDRAW 2018 (64-Bit) -->
<svg xmlns="http://www.w3.org/2000/svg" xml:space="preserve" width="283px" height="159px" version="1.1" style="shape-rendering:geometricPrecision; text-rendering:geometricPrecision; image-rendering:optimizeQuality; fill-rule:evenodd; clip-rule:evenodd"
viewBox="0 0 49.774 27.998"
 xmlns:xlink="http://www.w3.org/1999/xlink">
 <defs>
  <style type="text/css">
   <![CDATA[
    .fil1 {fill:#8D9AA8}
    .fil2 {fill:#8D9AA8}
    .fil0 {fill:#A3AEBA}
    .fil5 {fill:#EAEDF2}
    .fil3 {fill:#8D9AA8;fill-rule:nonzero}
    .fil4 {fill:#EAEDF2;fill-rule:nonzero}
   ]]>
  </style>
 </defs>
 <g id="Layer_x0020_1">
  <metadata id="CorelCorpID_0Corel-Layer"/>
  <rect class="fil0" width="49.774" height="27.998"/>
  <ellipse class="fil1" cx="24.887" cy="19.193" rx="12.625" ry="1.803"/>
  <path class="fil2" d="M9.201 20.819l0 0c0.097,0 0.176,0.08 0.176,0.176l0 0.477 0.476 0c0.097,0 0.176,0.079 0.176,0.176l0 0c0,0.097 -0.079,0.176 -0.176,0.176l-0.476 0 0 0.476c0,0.097 -0.079,0.176 -0.176,0.176l0 0c-0.097,0 -0.176,-0.079 -0.176,-0.176l0 -0.476 -0.476 0c-0.097,0 -0.176,-0.079 -0.176,-0.176l0 0c0,-0.097 0.079,-0.176 0.176,-0.176l0.476 0 0 -0.477c0,-0.096 0.079,-0.176 0.176,-0.176z"/>
  <path class="fil2" d="M36.289 9.561l0 0c0.068,-0.069 0.18,-0.069 0.249,0l0.337 0.336 0.336 -0.336c0.069,-0.069 0.181,-0.069 0.249,0l0 0c0.069,0.068 0.069,0.18 0,0.249l-0.336 0.336 0.336 0.337c0.069,0.069 0.069,0.181 0,0.249l0 0c-0.068,0.069 -0.18,0.069 -0.248,0l-0.337 -0.337 -0.337 0.337c-0.069,0.069 -0.181,0.069 -0.249,0l0 0c-0.069,-0.068 -0.069,-0.18 0,-0.249l0.337 -0.337 -0.337 -0.336c-0.069,-0.069 -0.069,-0.181 0,-0.249z"/>
  <circle class="fil2" cx="28.533" cy="4.481" r="0.407"/>
  <path class="fil3" d="M13.342 6.675c0.194,0 0.37,0.078 0.497,0.205 0.127,0.127 0.205,0.303 0.205,0.496 0,0.194 -0.078,0.37 -0.205,0.497 -0.127,0.127 -0.303,0.205 -0.497,0.205 -0.194,0 -0.369,-0.078 -0.496,-0.205 -0.127,-0.127 -0.206,-0.303 -0.206,-0.497 0,-0.193 0.079,-0.369 0.206,-0.496 0.127,-0.127 0.302,-0.205 0.496,-0.205zm0.372 0.33c-0.095,-0.096 -0.227,-0.154 -0.372,-0.154 -0.145,0 -0.277,0.058 -0.372,0.154 -0.095,0.095 -0.154,0.226 -0.154,0.371 0,0.146 0.059,0.277 0.154,0.372 0.095,0.095 0.227,0.154 0.372,0.154 0.145,0 0.277,-0.059 0.372,-0.154 0.095,-0.095 0.154,-0.226 0.154,-0.372 0,-0.145 -0.059,-0.276 -0.154,-0.371z"/>
  <polygon class="fil2" points="5.235,13.999 6.064,12.764 6.892,13.999 "/>
  <polygon class="fil2" points="39.974,21.471 40.802,22.705 41.63,21.471 "/>
  <path class="fil3" d="M44.068 15.735c0.24,0 0.458,0.097 0.616,0.255 0.158,0.158 0.255,0.376 0.255,0.616 0,0.241 -0.097,0.459 -0.255,0.617 -0.158,0.157 -0.376,0.255 -0.616,0.255 -0.241,0 -0.459,-0.098 -0.617,-0.255 -0.157,-0.158 -0.255,-0.376 -0.255,-0.617 0,-0.24 0.098,-0.458 0.255,-0.616 0.158,-0.158 0.376,-0.255 0.617,-0.255zm0.491 0.38c-0.125,-0.126 -0.299,-0.204 -0.491,-0.204 -0.193,0 -0.366,0.078 -0.492,0.204 -0.126,0.125 -0.204,0.299 -0.204,0.491 0,0.193 0.078,0.366 0.204,0.492 0.126,0.126 0.3,0.204 0.492,0.204 0.192,0 0.366,-0.078 0.491,-0.204 0.126,-0.126 0.204,-0.299 0.204,-0.492 0,-0.192 -0.078,-0.366 -0.204,-0.491z"/>
  <rect class="fil0" x="17.624" y="9.509" width="14.525" height="9.684" rx="0.754" ry="0.668"/>
  <path class="fil4" d="M18.292 9.333l13.19 0c0.232,0 0.443,0.095 0.596,0.248l0.01 0.011c0.147,0.152 0.238,0.359 0.238,0.585l0 8.348c0,0.232 -0.095,0.443 -0.248,0.596 -0.153,0.153 -0.364,0.248 -0.596,0.248l-13.19 0c-0.232,0 -0.443,-0.095 -0.596,-0.248l-0.01 -0.011c-0.147,-0.152 -0.238,-0.359 -0.238,-0.585l0 -8.348c0,-0.232 0.095,-0.442 0.248,-0.596 0.153,-0.153 0.364,-0.248 0.596,-0.248zm13.19 0.352l-13.19 0c-0.135,0 -0.258,0.056 -0.347,0.145l-0.001 0c-0.088,0.089 -0.144,0.211 -0.144,0.347l0 8.348c0,0.132 0.053,0.251 0.137,0.339l0.008 0.008c0.089,0.089 0.212,0.145 0.347,0.145l13.19 0c0.135,0 0.258,-0.056 0.347,-0.145l0.001 0c0.088,-0.089 0.144,-0.211 0.144,-0.347l0 -8.348c0,-0.132 -0.052,-0.251 -0.137,-0.339l-0.008 -0.008c-0.089,-0.089 -0.212,-0.145 -0.347,-0.145z"/>
  <path class="fil5" d="M29.825 12.037c0,0 0,-0.001 0,-0.002 0.001,-0.55 -0.444,-0.995 -0.994,-0.995 -0.55,-0.001 -0.996,0.445 -0.996,0.994l0 0.001c-0.001,0.55 0.445,0.996 0.994,0.996 0.55,0.001 0.996,-0.444 0.996,-0.994z"/>
  <path class="fil4" d="M29.649 12.037l0 -0.002c0,-0.227 -0.091,-0.431 -0.239,-0.579 -0.148,-0.148 -0.353,-0.24 -0.578,-0.24l0 0 -0.003 0c-0.226,0 -0.431,0.092 -0.578,0.239 -0.148,0.148 -0.24,0.352 -0.24,0.578l0 0 0 0.004 0 0c0,0.225 0.091,0.43 0.239,0.579 0.148,0.148 0.353,0.24 0.578,0.24l0 -0.001 0.003 0 0 0.001c0.226,0 0.43,-0.092 0.579,-0.24 0.148,-0.148 0.24,-0.352 0.24,-0.578l-0.001 0 0 -0.001zm0.353 -0.002l0 0.003 -0.001 0c-0.001,0.323 -0.132,0.616 -0.344,0.827 -0.211,0.211 -0.503,0.342 -0.826,0.342l0 0 -0.003 0 0 0c-0.323,-0.001 -0.615,-0.132 -0.827,-0.344 -0.211,-0.211 -0.341,-0.504 -0.341,-0.826l-0.001 0 0 -0.004 0.001 0c0,-0.323 0.131,-0.615 0.343,-0.826 0.212,-0.212 0.504,-0.343 0.826,-0.343l0.003 0 0 0.001c0.323,0 0.616,0.131 0.827,0.342l0 0.001c0.212,0.212 0.343,0.504 0.343,0.827l0 0z"/>
  <path class="fil2" d="M26.609 16.896l-5.027 -5.469 -3.958 4.023 0 3.075c0,0.367 0.301,0.668 0.668,0.668l13.19 0c0.367,0 0.668,-0.301 0.668,-0.668l0 -0.521 -3.547 -2.869 -1.994 1.761z"/>
  <path class="fil4" d="M26.48 17.014l-4.902 -5.333 -3.778 3.84 0 3.004c0,0.136 0.056,0.258 0.144,0.347 0.089,0.089 0.213,0.145 0.348,0.145l13.19 0c0.135,0 0.259,-0.056 0.348,-0.145 0.088,-0.089 0.144,-0.211 0.144,-0.347l0 -0.437 -3.366 -2.723 -1.882 1.662c-0.072,0.063 -0.181,0.057 -0.246,-0.013zm-4.769 -5.706l4.911 5.342 1.854 -1.637c0.063,-0.065 0.166,-0.073 0.238,-0.015l3.543 2.867c0.042,0.032 0.069,0.082 0.069,0.139l0 0.521c0,0.232 -0.095,0.443 -0.249,0.596 -0.153,0.153 -0.363,0.248 -0.595,0.248l-13.19 0c-0.232,0 -0.442,-0.095 -0.595,-0.248 -0.154,-0.153 -0.249,-0.364 -0.249,-0.596l0 -3.075 0.001 0c0,-0.045 0.017,-0.089 0.05,-0.123l3.964 -4.03c0.071,-0.065 0.183,-0.061 0.248,0.011z"/>
  <polygon class="fil5" points="25.867,16.088 21.582,11.427 17.637,15.437 19.001,14.91 19.614,16.221 21.341,14.605 22.923,15.984 23.606,15.049 "/>
  <path class="fil4" d="M25.146 15.564l-3.568 -3.883 -3.245 3.299 0.604 -0.234c0.089,-0.034 0.188,0.008 0.225,0.094l0.509 1.088 1.55 -1.451c0.066,-0.062 0.168,-0.062 0.235,-0.004l0 0 1.438 1.253 0.57 -0.781c0.053,-0.071 0.148,-0.091 0.224,-0.051l1.458 0.67zm-3.435 -4.256l4.285 4.661c0.046,0.05 0.061,0.126 0.03,0.192 -0.04,0.088 -0.144,0.127 -0.232,0.086l-2.131 -0.978 -0.592 0.811c-0.005,0.007 -0.01,0.013 -0.015,0.02 -0.064,0.073 -0.175,0.081 -0.249,0.017l-1.463 -1.275 -1.604 1.501c-0.014,0.015 -0.031,0.027 -0.051,0.037 -0.088,0.041 -0.192,0.003 -0.233,-0.085l-0.545 -1.163 -1.205 0.467c-0.063,0.027 -0.14,0.015 -0.192,-0.037 -0.069,-0.068 -0.07,-0.179 -0.002,-0.248l3.951 -4.017c0.071,-0.065 0.183,-0.061 0.248,0.011z"/>
  <polygon class="fil5" points="26.609,16.896 28.603,15.135 31.87,17.778 29.512,16.965 29.106,17.958 28.098,16.965 27.081,17.439 "/>
  <path class="fil4" d="M26.497 16.76l1.99 -1.756c0.065,-0.058 0.161,-0.058 0.227,-0.005l0 -0.001 3.267 2.643c0.075,0.061 0.087,0.172 0.026,0.247 -0.049,0.061 -0.13,0.08 -0.199,0.054l-2.197 -0.757 -0.343 0.839c-0.036,0.09 -0.139,0.133 -0.228,0.096 -0.022,-0.009 -0.041,-0.021 -0.057,-0.037l-0.921 -0.907 -0.907 0.423c-0.077,0.036 -0.167,0.011 -0.216,-0.055l-0.463 -0.534c-0.063,-0.073 -0.055,-0.184 0.018,-0.247l0.003 -0.003zm2.111 -1.395l-1.752 1.547 0.27 0.312 0.898 -0.419c0.065,-0.029 0.144,-0.018 0.197,0.035l0.822 0.809 0.303 -0.741c0.031,-0.092 0.131,-0.141 0.223,-0.109l1.412 0.486 -2.373 -1.92z"/>
 </g>
</svg>
