<?xml version="1.0" encoding="UTF-8"?>
<!DOCTYPE svg PUBLIC "-//W3C//DTD SVG 1.1//EN" "http://www.w3.org/Graphics/SVG/1.1/DTD/svg11.dtd">
<!-- Creator: CorelDRAW 2018 (64-Bit) -->
<svg xmlns="http://www.w3.org/2000/svg" xml:space="preserve" width="20px" height="20px" version="1.1" style="shape-rendering:geometricPrecision; text-rendering:geometricPrecision; image-rendering:optimizeQuality; fill-rule:evenodd; clip-rule:evenodd"
viewBox="0 0 5.705 5.705"
 xmlns:xlink="http://www.w3.org/1999/xlink">
 <defs>
  <style type="text/css">
   <![CDATA[
    .fil0 {fill:#2867B2}
   ]]>
  </style>
 </defs>
 <g id="Layer_x0020_1">
  <metadata id="CorelCorpID_0Corel-Layer"/>
  <path class="fil0" d="M4.03 4.859l0 -1.303c0,-0.311 -0.005,-0.711 -0.433,-0.711 -0.434,0 -0.5,0.339 -0.5,0.688l0 1.326 -0.833 0 0 -2.681 0.8 0 0 0.367 0.011 0c0.111,-0.211 0.383,-0.433 0.788,-0.433 0.844,0 1,0.555 1,1.277l0 1.47 -0.833 0zm1.675 0.529l0 -5.071c0,-0.174 -0.143,-0.317 -0.317,-0.317l-5.071 0c-0.174,0 -0.317,0.143 -0.317,0.317l0 5.071c0,0.174 0.143,0.317 0.317,0.317l5.071 0c0.174,0 0.317,-0.143 0.317,-0.317zm-3.963 -3.21l0 2.681 -0.834 0 0 -2.681 0.834 0zm-0.417 -1.332c0.266,0 0.483,0.216 0.483,0.483 0,0.267 -0.217,0.483 -0.483,0.483 -0.267,0 -0.483,-0.216 -0.483,-0.483 0,-0.267 0.216,-0.483 0.483,-0.483z"/>
 </g>
</svg>
