<svg xmlns="http://www.w3.org/2000/svg" width="40" height="40" viewBox="0 0 40 40">
  <g id="Group_1531" data-name="Group 1531" transform="translate(-1516 -239)">
    <rect id="Rectangle_101" data-name="Rectangle 101" width="40" height="40" rx="20" transform="translate(1516 239)" fill="#264361"/>
    <g id="Group_1530" data-name="Group 1530" transform="translate(1518 243.857)">
      <path id="Path_1751" data-name="Path 1751" d="M11.6.8h1.767a.483.483,0,0,1,.462.339L14.5,2.9l.657.174,1.568-1.212a.484.484,0,0,1,.564-.017l1.5.864a.488.488,0,0,1,.237.5L18.72,5.091l.479.483,1.966-.267a.478.478,0,0,1,.5.267l.869,1.5a.485.485,0,0,1-.055.564L21.28,9.1l.178.661,1.831.75a.487.487,0,0,1,.3.449v1.763a.479.479,0,0,1-.339.462l-1.759.67-.174.657,1.208,1.568a.482.482,0,0,1,.038.538l-.881,1.526a.488.488,0,0,1-.5.237L19.3,18.075l-.483.483.267,1.962a.489.489,0,0,1-.267.5l-1.5.864a.479.479,0,0,1-.547-.042l-1.479-1.2-.661.174-.75,1.831a.48.48,0,0,1-.449.3l-1.763,0a.485.485,0,0,1-.462-.339l-.67-1.763-.657-.174L8.313,21.885a.484.484,0,0,1-.564.017l-1.5-.864a.484.484,0,0,1-.229-.517l.3-1.865-.483-.483-1.962.267a.486.486,0,0,1-.5-.263l-.864-1.5a.479.479,0,0,1,.042-.547l1.2-1.479-.174-.661-1.835-.75a.483.483,0,0,1-.3-.449l0-1.763a.485.485,0,0,1,.339-.462l1.759-.67.178-.657L2.508,7.668a.481.481,0,0,1-.034-.538L3.355,5.6a.485.485,0,0,1,.5-.237l1.886.305.479-.483L5.953,3.227a.49.49,0,0,1,.263-.5l1.5-.864a.478.478,0,0,1,.564.055L9.745,3.112l.657-.178L11.156,1.1A.481.481,0,0,1,11.6.8Zm.915.97h-.589L11.22,3.5a.5.5,0,0,1-.335.314l-1.127.3a.491.491,0,0,1-.432-.093L7.915,2.867l-.958.551.25,1.848a.484.484,0,0,1-.136.441l-.822.826a.491.491,0,0,1-.42.136L4.025,6.375l-.551.958L4.618,8.812a.491.491,0,0,1,.1.445l-.3,1.127a.5.5,0,0,1-.3.326l-1.7.648v1.106l1.72.708a.472.472,0,0,1,.314.335l.305,1.127a.491.491,0,0,1-.093.432L3.512,16.482l.551.953,1.843-.25a.489.489,0,0,1,.445.136l.826.822a.5.5,0,0,1,.136.42l-.292,1.8.958.555,1.479-1.144a.483.483,0,0,1,.441-.1l1.127.3a.5.5,0,0,1,.331.3l.648,1.7H13.11l.708-1.725a.482.482,0,0,1,.331-.314l1.131-.3a.479.479,0,0,1,.428.093l1.415,1.153.958-.551-.254-1.881a.469.469,0,0,1,.14-.407l.822-.822a.485.485,0,0,1,.42-.14l1.8.292.555-.958L20.42,14.935a.483.483,0,0,1-.1-.441l.3-1.131a.484.484,0,0,1,.3-.326l1.7-.648V11.282l-1.725-.708a.488.488,0,0,1-.314-.335l-.3-1.127a.479.479,0,0,1,.093-.428l1.153-1.415-.551-.958-1.881.254a.491.491,0,0,1-.407-.136L17.86,5.6a.479.479,0,0,1-.136-.415l.292-1.805-.958-.551L15.58,3.973a.491.491,0,0,1-.445.1l-1.127-.3a.475.475,0,0,1-.326-.3l-.648-1.7h-.517Z" transform="translate(5.643 3.138)" fill="#00f4ff"/>
      <path id="Path_1752" data-name="Path 1752" d="M8.69,1.985A6.064,6.064,0,1,1,4.406,12.333l-.03-.025A6.064,6.064,0,0,1,8.69,1.985Zm3.6,2.462a5.092,5.092,0,0,0-7.225,7.178l.025.021a5.091,5.091,0,1,0,7.2-7.2Z" transform="translate(9.47 6.965)" fill="#00f4ff"/>
    </g>
  </g>
</svg>
