<?xml version="1.0" encoding="UTF-8"?>
<!DOCTYPE svg PUBLIC "-//W3C//DTD SVG 1.1//EN" "http://www.w3.org/Graphics/SVG/1.1/DTD/svg11.dtd">
<!-- Creator: CorelDRAW 2018 (64-Bit) -->
<svg xmlns="http://www.w3.org/2000/svg" xml:space="preserve" width="150px" height="72px" version="1.1" style="shape-rendering:geometricPrecision; text-rendering:geometricPrecision; image-rendering:optimizeQuality; fill-rule:evenodd; clip-rule:evenodd"
viewBox="0 0 149.927 71.965"
 xmlns:xlink="http://www.w3.org/1999/xlink">
 <defs>
  <style type="text/css">
   <![CDATA[
    .fil0 {fill:none}
    .fil1 {fill:#EAEDF2}
    .fil3 {fill:white}
    .fil4 {fill:gray;fill-rule:nonzero}
    .fil2 {fill:#EAEDF2;fill-rule:nonzero}
   ]]>
  </style>
 </defs>
 <g id="Layer_x0020_1">
  <metadata id="CorelCorpID_0Corel-Layer"/>
  <g id="_3034467610496">
   <rect class="fil0" width="149.927" height="71.965"/>
   <path class="fil1" d="M8.287 53.65l0 0c0.389,0.389 1.025,0.389 1.413,0l1.912 -1.911 1.912 1.911c0.388,0.389 1.024,0.389 1.413,0.001l0 -0.001c0.389,-0.389 0.389,-1.024 0,-1.413l-1.912 -1.912 1.912 -1.912c0.389,-0.389 0.389,-1.024 0.001,-1.413l-0.001 0c-0.388,-0.389 -1.025,-0.389 -1.413,0l-1.912 1.912 -1.912 -1.912c-0.388,-0.389 -1.024,-0.389 -1.413,0l-0.001 0.001c-0.388,0.388 -0.388,1.024 0,1.412l1.912 1.912 -1.911 1.912c-0.389,0.389 -0.389,1.024 0,1.413z"/>
   <path class="fil1" d="M137.23 43.978l0 0c0.55,0 0.999,-0.45 0.999,-1l0 -2.703 2.704 0c0.55,0 0.999,-0.45 0.999,-0.999l0 -0.001c0,-0.55 -0.449,-0.999 -0.999,-0.999l-2.704 0 0 -2.704c0,-0.55 -0.449,-0.999 -0.999,-0.999l0 0c-0.55,0 -1,0.449 -1,0.999l0 2.704 -2.703 0c-0.55,0 -1,0.449 -1,0.999l0 0.001c0,0.549 0.45,0.999 1,0.999l2.703 0 0 2.703c0,0.55 0.45,1 1,1z"/>
   <path class="fil1" d="M102.38 52.61c1.935,0 3.504,1.569 3.504,3.505 0,1.936 -1.569,3.505 -3.504,3.505 -1.936,0 -3.505,-1.569 -3.505,-3.505 0,-1.936 1.569,-3.505 3.505,-3.505z"/>
   <polygon class="fil1" points="114.784,15.002 119.487,7.993 124.189,15.002 "/>
   <path class="fil2" d="M25.954 16.446c1.366,0 2.604,-0.554 3.499,-1.45 0.895,-0.895 1.449,-2.132 1.449,-3.499 0,-1.366 -0.554,-2.603 -1.449,-3.498 -0.895,-0.896 -2.133,-1.45 -3.499,-1.45 -1.366,0 -2.604,0.554 -3.499,1.45 -0.895,0.895 -1.449,2.132 -1.449,3.498 0,1.367 0.554,2.604 1.449,3.499 0.895,0.896 2.133,1.45 3.499,1.45zm2.792 -2.156c-0.714,0.714 -1.701,1.156 -2.792,1.156 -1.091,0 -2.078,-0.442 -2.792,-1.156 -0.715,-0.714 -1.157,-1.702 -1.157,-2.793 0,-1.09 0.442,-2.078 1.157,-2.792 0.714,-0.714 1.702,-1.156 2.792,-1.156 1.091,0 2.078,0.442 2.792,1.156 0.715,0.714 1.157,1.702 1.157,2.792 0,1.091 -0.442,2.079 -1.157,2.793z"/>
   <path class="fil1" d="M57.981 65.416c-11.568,0 -24.608,-8.109 -23.366,-28.682 1.242,-20.573 16.055,-29.015 39.039,-28.835 22.984,0.181 34.635,12.34 34.636,23.353 0,11.012 -10.848,11.27 -25.009,16.925 -14.162,5.654 -13.732,17.239 -25.3,17.239z"/>
   <path class="fil3" d="M51.135 18.166l40.553 0c0.833,0 1.514,0.682 1.514,1.514l0 35.953c0,0.833 -0.681,1.514 -1.514,1.514l-40.553 0c-0.833,0 -1.515,-0.681 -1.515,-1.514l0 -35.953c0,-0.832 0.682,-1.514 1.515,-1.514z"/>
   <path class="fil4" d="M51.135 17.667l40.553 0c0.552,0 1.056,0.226 1.421,0.591l0.003 0.003c0.364,0.365 0.59,0.868 0.59,1.419l0 35.953c0,0.554 -0.227,1.058 -0.591,1.422l-0.032 0.03c-0.363,0.347 -0.854,0.562 -1.391,0.562l-40.553 0c-0.552,0 -1.056,-0.227 -1.421,-0.592l-0.003 -0.003c-0.364,-0.365 -0.59,-0.867 -0.59,-1.419l0 -35.953c0,-0.551 0.226,-1.055 0.591,-1.42l0.003 -0.003c0.365,-0.364 0.868,-0.59 1.42,-0.59zm40.553 0.999l-40.553 0c-0.28,0 -0.534,0.114 -0.716,0.296 -0.185,0.185 -0.299,0.439 -0.299,0.718l0 35.953c0,0.28 0.114,0.533 0.297,0.716 0.184,0.185 0.438,0.298 0.718,0.298l40.553 0c0.269,0 0.514,-0.105 0.695,-0.276l0.021 -0.022c0.184,-0.184 0.299,-0.438 0.299,-0.716l0 -35.953c0,-0.279 -0.114,-0.533 -0.297,-0.716 -0.184,-0.184 -0.438,-0.298 -0.718,-0.298z"/>
   <path class="fil4" d="M65.561 46.36c-0.276,0 -0.5,-0.223 -0.5,-0.499 0,-0.276 0.224,-0.5 0.5,-0.5l11.701 0c0.276,0 0.5,0.224 0.5,0.5 0,0.276 -0.224,0.499 -0.5,0.499l-11.701 0z"/>
   <path class="fil4" d="M60.916 35.802c-0.195,0.195 -0.511,0.195 -0.706,0 -0.195,-0.195 -0.195,-0.511 0,-0.706l1.646 -1.646 -1.646 -1.646c-0.195,-0.195 -0.195,-0.512 0,-0.707 0.195,-0.195 0.511,-0.195 0.706,0l1.646 1.646 1.646 -1.646c0.195,-0.195 0.512,-0.195 0.707,0 0.195,0.195 0.195,0.512 0,0.707l-1.646 1.646 1.646 1.646c0.195,0.195 0.195,0.511 0,0.706 -0.195,0.195 -0.512,0.195 -0.707,0l-1.646 -1.646 -1.646 1.646z"/>
   <path class="fil4" d="M78.614 35.802c-0.195,0.195 -0.511,0.195 -0.706,0 -0.195,-0.195 -0.195,-0.511 0,-0.706l1.646 -1.646 -1.646 -1.646c-0.195,-0.195 -0.195,-0.512 0,-0.707 0.195,-0.195 0.511,-0.195 0.706,0l1.646 1.646 1.646 -1.646c0.195,-0.195 0.512,-0.195 0.707,0 0.195,0.195 0.195,0.512 0,0.707l-1.646 1.646 1.646 1.646c0.195,0.195 0.195,0.511 0,0.706 -0.195,0.195 -0.512,0.195 -0.707,0l-1.646 -1.646 -1.646 1.646z"/>
  </g>
 </g>
</svg>
