<?xml version="1.0" encoding="UTF-8"?>
<!DOCTYPE svg PUBLIC "-//W3C//DTD SVG 1.1//EN" "http://www.w3.org/Graphics/SVG/1.1/DTD/svg11.dtd">
<!-- Creator: CorelDRAW 2018 (64-Bit) -->
<svg xmlns="http://www.w3.org/2000/svg" xml:space="preserve" width="0.343728in" height="0.330394in" version="1.1" style="shape-rendering:geometricPrecision; text-rendering:geometricPrecision; image-rendering:optimizeQuality; fill-rule:evenodd; clip-rule:evenodd"
viewBox="0 0 31.75 30.52"
 xmlns:xlink="http://www.w3.org/1999/xlink">
 <defs>
  <style type="text/css">
   <![CDATA[
    .str1 {stroke:gray;stroke-width:1.28;stroke-linecap:round;stroke-linejoin:round;stroke-miterlimit:2.61313}
    .str0 {stroke:gray;stroke-width:1.28;stroke-linecap:round;stroke-linejoin:round;stroke-miterlimit:2.61313}
    .fil0 {fill:none}
   ]]>
  </style>
 </defs>
 <g id="Layer_x0020_1">
  <metadata id="CorelCorpID_0Corel-Layer"/>
  <g id="_2833689616368">
   <g>
    <path class="fil0 str0" d="M9.7 25.29l-8.68 0c-0.21,0 -0.38,-0.17 -0.38,-0.38l0 -19.77c0,-0.21 0.17,-0.38 0.38,-0.38l19.77 0c0.21,0 0.38,0.17 0.38,0.38l0 8.81"/>
    <path class="fil0 str1" d="M17.38 16.44l3.32 0c0.26,0 0.47,0.21 0.47,0.47l0 4.12 4.12 0c0.26,0 0.47,0.21 0.47,0.47l0 3.32c0,0.26 -0.21,0.47 -0.47,0.47l-4.12 0 0 4.12c0,0.26 -0.21,0.47 -0.47,0.47l-3.32 0c-0.26,0 -0.47,-0.21 -0.47,-0.47l0 -4.12 -4.12 0c-0.26,0 -0.47,-0.21 -0.47,-0.47l0 -3.32c0,-0.26 0.21,-0.47 0.47,-0.47l4.12 0 0 -4.12c0,-0.26 0.21,-0.47 0.47,-0.47z"/>
   </g>
   <rect class="fil0" x="3.16" y="-0" width="28.59" height="30.23"/>
  </g>
 </g>
</svg>
