<?xml version="1.0" encoding="UTF-8"?>
<!DOCTYPE svg PUBLIC "-//W3C//DTD SVG 1.0//EN" "http://www.w3.org/TR/2001/REC-SVG-20010904/DTD/svg10.dtd">
<!-- Creator: CorelDRAW 2018 (64-Bit) -->
<svg xmlns="http://www.w3.org/2000/svg" xml:space="preserve" width="25px" height="24px" version="1.0" style="shape-rendering:geometricPrecision; text-rendering:geometricPrecision; image-rendering:optimizeQuality; fill-rule:evenodd; clip-rule:evenodd"
viewBox="0 0 13.94 13.399"
 xmlns:xlink="http://www.w3.org/1999/xlink">
 <defs>
  <style type="text/css">
   <![CDATA[
    .str1 {stroke:gray;stroke-width:0.563;stroke-linecap:round;stroke-linejoin:round;stroke-miterlimit:2.61313}
    .str0 {stroke:gray;stroke-width:0.563;stroke-linecap:round;stroke-linejoin:round;stroke-miterlimit:2.61313}
    .fil0 {fill:none}
   ]]>
  </style>
 </defs>
 <g id="Layer_x0020_1">
  <metadata id="CorelCorpID_0Corel-Layer"/>
  <g id="_2713196025184">
   <g>
    <path class="fil0 str0" d="M4.26 11.103l-3.812 0c-0.091,0 -0.166,-0.075 -0.166,-0.167l0 -8.679c0,-0.092 0.074,-0.167 0.166,-0.167l8.68 0c0.091,0 0.166,0.076 0.166,0.167l0 3.87"/>
    <path class="fil0 str1" d="M7.63 7.218l1.457 0c0.114,0 0.207,0.093 0.207,0.207l0 1.807 1.808 0c0.114,0 0.207,0.094 0.207,0.207l0 1.457c0,0.113 -0.094,0.207 -0.207,0.207l-1.808 0 0 1.808c0,0.113 -0.094,0.207 -0.207,0.207l-1.457 0c-0.113,0 -0.207,-0.093 -0.207,-0.207l0 -1.808 -1.807 0c-0.114,0 -0.207,-0.093 -0.207,-0.207l0 -1.457c0,-0.114 0.093,-0.207 0.207,-0.207l1.807 0 0 -1.807c0,-0.114 0.094,-0.207 0.207,-0.207z"/>
   </g>
   <rect class="fil0" x="1.389" width="12.551" height="13.275"/>
  </g>
 </g>
</svg>
