<?xml version="1.0" encoding="UTF-8"?>
<!DOCTYPE svg PUBLIC "-//W3C//DTD SVG 1.1//EN" "http://www.w3.org/Graphics/SVG/1.1/DTD/svg11.dtd">
<!-- Creator: CorelDRAW 2018 (64-Bit) -->
<svg xmlns="http://www.w3.org/2000/svg" xml:space="preserve" width="283px" height="189px" version="1.1" style="shape-rendering:geometricPrecision; text-rendering:geometricPrecision; image-rendering:optimizeQuality; fill-rule:evenodd; clip-rule:evenodd"
viewBox="0 0 2503.477 1673.909"
 xmlns:xlink="http://www.w3.org/1999/xlink">
 <defs>
  <style type="text/css">
   <![CDATA[
    .fil2 {fill:#8D9AA8}
    .fil0 {fill:#A3AEBA}
    .fil3 {fill:#EAEDF2;fill-rule:nonzero}
    .fil1 {fill:white;fill-rule:nonzero}
   ]]>
  </style>
 </defs>
 <g id="Layer_x0020_1">
  <metadata id="CorelCorpID_0Corel-Layer"/>
  <g id="_3028340618000">
   <rect class="fil0" y="-0.001" width="2503.477" height="1673.909"/>
   <path class="fil1" d="M1106.561 1243.83c-15.837,0 -28.51,-5.209 -38.023,-15.651 -9.512,-10.413 -14.295,-23.993 -14.295,-40.703 0,-17.963 4.863,-32.283 14.561,-42.966 9.699,-10.68 22.932,-16.047 39.642,-16.047 15.412,0 27.819,5.207 37.226,15.57 9.433,10.389 14.135,23.966 14.135,40.731 0,18.202 -4.835,32.602 -14.481,43.205 -9.646,10.574 -22.557,15.861 -38.765,15.861zm0.928 -103.518c-11.716,0 -21.229,4.226 -28.562,12.674 -7.306,8.475 -10.974,19.582 -10.974,33.32 0,13.763 3.563,24.817 10.71,33.212 7.12,8.37 16.447,12.568 27.898,12.568 12.249,0 21.894,-3.987 28.961,-11.983 7.068,-7.999 10.575,-19.183 10.575,-33.559 0,-14.747 -3.402,-26.117 -10.256,-34.168 -6.856,-8.052 -16.313,-12.064 -28.352,-12.064zm109.523 100.887c-3.002,1.647 -6.989,2.471 -11.905,2.471 -13.976,0 -20.935,-7.786 -20.935,-23.354l0 -47.163 -13.71 0 0 -10.893 13.71 0 0 -19.45 12.754 -4.144 0 23.594 20.086 0 0 10.893 -20.086 0 0 44.931c0,5.34 0.901,9.139 2.736,11.424 1.805,2.287 4.808,3.429 9.033,3.429 3.216,0 5.978,-0.879 8.317,-2.659l0 10.921zm83.218 0.771l-12.781 0 0 -45.941c0,-16.605 -6.164,-24.894 -18.521,-24.894 -6.216,0 -11.478,2.39 -15.728,7.2 -4.251,4.808 -6.377,10.973 -6.377,18.493l0 45.142 -12.779 0 0 -117.999 12.779 0 0 51.519 0.319 0c6.11,-10.069 14.827,-15.091 26.145,-15.091 17.96,0 26.943,10.816 26.943,32.442l0 49.129zm88.105 -36.667l-56.276 0c0.213,8.875 2.606,15.729 7.175,20.564 4.569,4.81 10.84,7.228 18.839,7.228 8.98,0 17.218,-2.95 24.762,-8.875l0 11.983c-7.015,5.102 -16.286,7.627 -27.792,7.627 -11.265,0 -20.115,-3.615 -26.544,-10.84 -6.455,-7.253 -9.671,-17.431 -9.671,-30.556 0,-12.408 3.535,-22.505 10.549,-30.318 7.04,-7.81 15.782,-11.717 26.198,-11.717 10.442,0 18.493,3.375 24.204,10.123 5.714,6.723 8.556,16.103 8.556,28.086l0 6.695zm-13.072 -10.813c-0.053,-7.361 -1.833,-13.1 -5.315,-17.217 -3.507,-4.092 -8.368,-6.138 -14.614,-6.138 -6.003,0 -11.132,2.151 -15.329,6.457 -4.198,4.303 -6.801,9.936 -7.786,16.898l43.044 0zm73.971 -19.318c-2.232,-1.7 -5.445,-2.551 -9.643,-2.551 -5.473,0 -10.017,2.551 -13.685,7.707 -3.64,5.127 -5.473,12.141 -5.473,21.016l0 40.626 -12.779 0 0 -79.71 12.779 0 0 16.419 0.319 0c1.807,-5.606 4.569,-9.962 8.317,-13.125 3.746,-3.136 7.918,-4.703 12.54,-4.703 3.322,0 5.845,0.372 7.625,1.09l0 13.231z"/>
   <path class="fil2" d="M1251.738 893.856c347.298,0 628.84,30.657 628.84,68.476 0,37.816 -281.542,68.472 -628.84,68.472 -347.297,0 -628.839,-30.656 -628.839,-68.472 0,-37.819 281.542,-68.476 628.839,-68.476z"/>
   <path class="fil2" d="M928.163 961.686c-20.333,0 -36.963,-16.63 -36.963,-36.963l0 -381.228 0 -76.245c0,-20.333 16.63,-36.963 36.963,-36.963l235.666 0c20.335,0 36.965,16.63 36.965,36.963l0 6.289c0,18.149 14.843,32.991 32.992,32.991l267.366 0c20.333,0 36.963,16.635 36.963,36.965l0 16.173 2.709 402.018 -612.661 0z"/>
   <path class="fil3" d="M928.163 970.544c-12.583,0 -24.031,-5.155 -32.334,-13.452l-0.035 -0.035c-8.297,-8.303 -13.451,-19.748 -13.451,-32.334l0 -457.473c0,-12.583 5.154,-24.031 13.451,-32.334l0.035 -0.035c8.303,-8.297 19.751,-13.451 32.334,-13.451l235.666 0c12.61,0 24.071,5.154 32.368,13.451 8.3,8.3 13.455,19.758 13.455,32.369l0 6.289c0,6.653 2.706,12.686 7.059,17.039l0.035 0.035c4.354,4.353 10.387,7.06 17.04,7.06l267.366 0c12.576,0 24.034,5.161 32.349,13.471 8.317,8.283 13.471,19.743 13.471,32.351l0 16.173 -0.03 0.728 2.704 401.255c0.018,4.871 -3.916,8.84 -8.787,8.857l-0.035 0.036 -612.661 0zm-19.864 -25.957c5.094,5.084 12.129,8.242 19.864,8.242l603.779 0 -2.644 -392.312 -0.04 -0.849 0 -16.173c0,-7.72 -3.166,-14.749 -8.262,-19.846l0 -0.035c-5.074,-5.074 -12.099,-8.227 -19.844,-8.227l-267.366 0c-11.466,0 -21.913,-4.697 -29.507,-12.266l-0.055 -0.056c-7.582,-7.597 -12.287,-18.048 -12.287,-29.526l0 -6.289c0,-7.723 -3.166,-14.75 -8.262,-19.846 -5.094,-5.094 -12.124,-8.26 -19.846,-8.26l-235.666 0c-7.735,0 -14.77,3.158 -19.864,8.242 -5.084,5.094 -8.242,12.129 -8.242,19.864l0 457.473c0,7.735 3.158,14.77 8.242,19.864z"/>
   <path class="fil0" d="M965.362 840.542l0 84.181c0,20.333 -16.63,36.963 -36.963,36.963l68.741 0 166.689 0 337.323 0 79.349 0c17.478,0 31.779,-14.297 31.779,-31.776l0 -338.466c0,-17.478 -14.301,-31.776 -31.779,-31.776l-583.361 0c-17.478,0 -31.778,14.298 -31.778,31.776l0 249.098z"/>
   <path class="fil3" d="M974.219 840.542l0 84.181c0,10.567 -3.635,20.331 -9.711,28.106l615.993 0c6.294,0 12.028,-2.583 16.183,-6.738 4.155,-4.155 6.738,-9.887 6.738,-16.181l0 -338.466c0,-6.293 -2.583,-12.025 -6.738,-16.18 -4.155,-4.155 -9.889,-6.738 -16.183,-6.738l-583.361 0c-6.294,0 -12.028,2.583 -16.183,6.738 -4.155,4.155 -6.738,9.887 -6.738,16.18l0 249.098zm-17.714 84.181l0 -333.279c0,-11.182 4.571,-21.344 11.93,-28.703 7.358,-7.358 17.523,-11.93 28.705,-11.93l583.361 0c11.182,0 21.347,4.572 28.706,11.93 7.358,7.359 11.93,17.521 11.93,28.703l0 338.466c0,11.182 -4.572,21.345 -11.93,28.703 -7.359,7.359 -17.524,11.931 -28.706,11.931l-652.102 0 0 -17.715c7.735,0 14.769,-3.158 19.863,-8.242 5.084,-5.094 8.243,-12.129 8.243,-19.864z"/>
   <path class="fil3" d="M1371.911 743.655l-73.549 0c-4.326,0 -8.257,-1.768 -11.097,-4.607l-0.66 -0.741c-2.448,-2.769 -3.946,-6.404 -3.946,-10.359l0 -73.546c0,-4.891 3.966,-8.858 8.857,-8.858 2.498,0 4.757,1.037 6.367,2.702l80.29 80.29c3.457,3.457 3.457,9.066 0,12.523 -1.728,1.729 -3.995,2.593 -6.262,2.596zm-71.538 -17.715l50.158 0 -50.158 -50.158 0 50.158z"/>
   <path class="fil3" d="M1196.87 658.652c0,-3.615 1.479,-6.896 3.846,-9.264 2.368,-2.367 5.649,-3.846 9.264,-3.846l81.536 0c2.498,0 4.757,1.037 6.367,2.701l80.29 80.293c1.729,1.73 2.593,3.994 2.593,6.261l0.003 127.913c0,3.613 -1.479,6.894 -3.847,9.262 -0.273,0.273 -0.562,0.527 -0.863,0.758 -2.28,1.92 -5.212,3.088 -8.401,3.088l-157.678 0c-3.607,0 -6.896,-1.479 -9.264,-3.846 -2.367,-2.368 -3.846,-5.649 -3.846,-9.262l0 -204.058zm90.98 4.604l-73.265 0 0 194.847 148.469 0 0 -119.64 -75.204 -75.207z"/>
  </g>
 </g>
</svg>
