<?xml version="1.0" encoding="UTF-8"?>
<!DOCTYPE svg PUBLIC "-//W3C//DTD SVG 1.1//EN" "http://www.w3.org/Graphics/SVG/1.1/DTD/svg11.dtd">
<!-- Creator: CorelDRAW 2018 (64-Bit) -->
<svg xmlns="http://www.w3.org/2000/svg" xml:space="preserve" width="32px" height="32px" version="1.1" style="shape-rendering:geometricPrecision; text-rendering:geometricPrecision; image-rendering:optimizeQuality; fill-rule:evenodd; clip-rule:evenodd"
viewBox="0 0 0.881 0.881"
 xmlns:xlink="http://www.w3.org/1999/xlink">
 <defs>
  <style type="text/css">
   <![CDATA[
    .fil0 {fill:none;fill-rule:nonzero}
    .fil3 {fill:#00F4FF}
    .fil1 {fill:white}
    .fil2 {fill:#052337;fill-rule:nonzero}
   ]]>
  </style>
 </defs>
 <g id="Layer_x0020_1">
  <metadata id="CorelCorpID_0Corel-Layer"/>
  <g id="_1780951786128">
   <rect class="fil0" width="0.881" height="0.881"/>
   <g>
    <path class="fil1" d="M0.028 0.042c0,-0.008 0.006,-0.014 0.014,-0.014l0.383 0 0.162 0.162 0 0.539c0,0.008 -0.006,0.014 -0.014,0.014l-0.531 0c-0.008,0 -0.014,-0.006 -0.014,-0.014 0,-0.229 0,-0.458 0,-0.687z"/>
    <path class="fil2" d="M0.014 0.042c0,-0.008 0.003,-0.015 0.008,-0.02l0 0c0.005,-0.005 0.012,-0.008 0.02,-0.008l0.383 0c0.004,0 0.007,0.001 0.01,0.004l0.162 0.162c0.002,0.002 0.004,0.006 0.004,0.01l0 0.539c0,0.008 -0.003,0.015 -0.008,0.02 -0.006,0.005 -0.013,0.008 -0.02,0.008l-0.531 0c-0.008,0 -0.015,-0.003 -0.02,-0.008 -0.005,-0.005 -0.008,-0.012 -0.008,-0.02l0 -0.687zm0.027 -0.001l0 0.001 0 0.687 0 0 0.001 0 0.531 0 0 0 0 0 0 -0.534 -0.154 -0.154 -0.377 0 -0.001 0z"/>
    <path class="fil2" d="M0.587 0.203l-0.148 0c-0.008,0 -0.015,-0.003 -0.02,-0.008l0 0c-0.005,-0.005 -0.008,-0.012 -0.008,-0.019l0 -0.148c0,-0.008 0.006,-0.014 0.014,-0.014 0.004,0 0.007,0.001 0.01,0.004l0.162 0.162c0.005,0.005 0.005,0.014 0,0.019 -0.003,0.003 -0.006,0.004 -0.01,0.004zm-0.148 -0.027l0.115 0 -0.115 -0.115 0 0.115z"/>
    <path class="fil2" d="M0.266 0.227c-0.008,0 -0.014,-0.006 -0.014,-0.014 0,-0.007 0.006,-0.014 0.014,-0.014l0.109 0c0.008,0 0.014,0.007 0.014,0.014 0,0.008 -0.006,0.014 -0.014,0.014l-0.109 0z"/>
    <path class="fil2" d="M0.266 0.399c-0.008,0 -0.014,-0.006 -0.014,-0.014 0,-0.007 0.006,-0.013 0.014,-0.013l0.219 0c0.007,0 0.013,0.006 0.013,0.013 0,0.008 -0.006,0.014 -0.013,0.014l-0.219 0z"/>
    <path class="fil2" d="M0.266 0.571c-0.008,0 -0.014,-0.006 -0.014,-0.013 0,-0.008 0.006,-0.014 0.014,-0.014l0.219 0c0.007,0 0.013,0.006 0.013,0.014 0,0.007 -0.006,0.013 -0.013,0.013l-0.219 0z"/>
    <polygon class="fil3" points="0.13,0.519 0.207,0.519 0.207,0.596 0.13,0.596 "/>
    <path class="fil2" d="M0.13 0.505l0.077 0c0.008,0 0.014,0.006 0.014,0.014l0 0.077c0,0.008 -0.006,0.014 -0.014,0.014l-0.077 0c-0.008,0 -0.014,-0.006 -0.014,-0.014l0 -0.077c0,-0.008 0.006,-0.014 0.014,-0.014zm0.064 0.028l-0.05 0 0 0.05 0.05 0 0 -0.05z"/>
    <polygon class="fil3" points="0.13,0.347 0.207,0.347 0.207,0.424 0.13,0.424 "/>
    <path class="fil2" d="M0.13 0.333l0.077 0c0.008,0 0.014,0.006 0.014,0.014l0 0.077c0,0.008 -0.006,0.014 -0.014,0.014l-0.077 0c-0.008,0 -0.014,-0.006 -0.014,-0.014l0 -0.077c0,-0.008 0.006,-0.014 0.014,-0.014zm0.064 0.027l-0.05 0 0 0.05 0.05 0 0 -0.05z"/>
    <polygon class="fil3" points="0.13,0.174 0.207,0.174 0.207,0.252 0.13,0.252 "/>
    <path class="fil2" d="M0.13 0.161l0.077 0c0.008,0 0.014,0.006 0.014,0.013l0 0.078c0,0.007 -0.006,0.014 -0.014,0.014l-0.077 0c-0.008,0 -0.014,-0.007 -0.014,-0.014l0 -0.078c0,-0.007 0.006,-0.013 0.014,-0.013zm0.064 0.027l-0.05 0 0 0.05 0.05 0 0 -0.05z"/>
   </g>
  </g>
 </g>
</svg>
