<?xml version="1.0" encoding="UTF-8"?>
<!DOCTYPE svg PUBLIC "-//W3C//DTD SVG 1.1//EN" "http://www.w3.org/Graphics/SVG/1.1/DTD/svg11.dtd">
<!-- Creator: CorelDRAW 2018 (64-Bit) -->
<svg xmlns="http://www.w3.org/2000/svg" xml:space="preserve" width="20px" height="20px" version="1.1" style="shape-rendering:geometricPrecision; text-rendering:geometricPrecision; image-rendering:optimizeQuality; fill-rule:evenodd; clip-rule:evenodd"
viewBox="0 0 0.668 0.669"
 xmlns:xlink="http://www.w3.org/1999/xlink">
 <defs>
  <style type="text/css">
   <![CDATA[
    .str1 {stroke:#052337;stroke-width:0.033;stroke-miterlimit:2.61313}
    .str0 {stroke:#052337;stroke-width:0.033;stroke-linecap:round;stroke-miterlimit:2.61313}
    .fil0 {fill:none}
   ]]>
  </style>
 </defs>
 <g id="Layer_x0020_1">
  <metadata id="CorelCorpID_0Corel-Layer"/>
  <g id="_1801068100240">
   <path class="fil0 str0" d="M0.384 0.017c0.068,0.002 0.135,0.03 0.186,0.081 0.052,0.052 0.079,0.119 0.082,0.187"/>
   <path class="fil0 str0" d="M0.53 0.282c-0.003,-0.035 -0.018,-0.071 -0.046,-0.098 -0.027,-0.027 -0.062,-0.043 -0.098,-0.046"/>
   <path class="fil0 str1" d="M0.271 0.398c-0.032,-0.033 -0.048,-0.054 -0.062,-0.083 -0.009,-0.019 -0.005,-0.038 0.001,-0.048 0.004,-0.006 0.01,-0.01 0.016,-0.015 0.007,-0.005 0.014,-0.01 0.021,-0.019 0.019,-0.021 0.014,-0.051 0.008,-0.061 -0.014,-0.024 -0.037,-0.059 -0.062,-0.096l-0.014 -0.021c-0.01,-0.015 -0.024,-0.023 -0.041,-0.023 -0.011,0 -0.021,0.004 -0.027,0.006 -0.012,0.005 -0.057,0.039 -0.083,0.089 -0.026,0.049 -0.021,0.179 0.157,0.357 0.152,0.152 0.262,0.168 0.302,0.168 0.021,0 0.04,-0.004 0.055,-0.012 0.049,-0.026 0.083,-0.071 0.088,-0.082 0.006,-0.014 0.016,-0.047 -0.017,-0.069l-0.021 -0.014c-0.036,-0.024 -0.071,-0.048 -0.096,-0.061 -0.004,-0.003 -0.014,-0.006 -0.025,-0.006 -0.01,0 -0.024,0.002 -0.036,0.013 -0.008,0.008 -0.014,0.015 -0.019,0.021 -0.004,0.007 -0.009,0.012 -0.015,0.016 -0.002,0.002 -0.011,0.007 -0.024,0.007 -0.008,0 -0.016,-0.002 -0.024,-0.006 -0.028,-0.013 -0.05,-0.029 -0.082,-0.061z"/>
  </g>
 </g>
</svg>
