<?xml version="1.0" encoding="UTF-8"?>
<!DOCTYPE svg PUBLIC "-//W3C//DTD SVG 1.1//EN" "http://www.w3.org/Graphics/SVG/1.1/DTD/svg11.dtd">
<!-- Creator: CorelDRAW 2018 (64-Bit) -->
<svg xmlns="http://www.w3.org/2000/svg" xml:space="preserve" width="1.25in" height="0.72222in" version="1.1" style="shape-rendering:geometricPrecision; text-rendering:geometricPrecision; image-rendering:optimizeQuality; fill-rule:evenodd; clip-rule:evenodd"
viewBox="0 0 196.91 113.77"
 xmlns:xlink="http://www.w3.org/1999/xlink">
 <defs>
  <style type="text/css">
   <![CDATA[
    .str1 {stroke:gray;stroke-width:2.19;stroke-miterlimit:2.61313}
    .str0 {stroke:gray;stroke-width:2.19;stroke-linecap:round;stroke-linejoin:round;stroke-miterlimit:2.61313}
    .fil0 {fill:none}
    .fil1 {fill:#00F4FF}
    .fil2 {fill:#EAEDF2}
   ]]>
  </style>
 </defs>
 <g id="Layer_x0020_1">
  <metadata id="CorelCorpID_0Corel-Layer"/>
  <g id="_2855296013488">
   <rect class="fil0" width="196.91" height="113.77"/>
   <line class="fil0 str0" x1="98.45" y1="21.83" x2="98.45" y2= "34.13" />
   <line class="fil0 str0" x1="68.09" y1="39.36" x2="78.75" y2= "45.51" />
   <line class="fil0 str0" x1="57" y1="39.78" x2="57" y2= "67.37" />
   <line class="fil0 str0" x1="62.6" y1="84.05" x2="86.5" y2= "97.85" />
   <line class="fil0 str0" x1="104.37" y1="101.34" x2="128.26" y2= "87.54" />
   <g>
    <line class="fil0 str0" x1="139.91" y1="73.99" x2="139.91" y2= "46.4" />
    <line class="fil0 str0" x1="134.31" y1="29.71" x2="110.41" y2= "15.92" />
    <line class="fil0 str0" x1="92.54" y1="12.43" x2="68.64" y2= "26.23" />
   </g>
   <line class="fil0 str0" x1="68.09" y1="74.41" x2="78.75" y2= "68.26" />
   <line class="fil0 str0" x1="98.45" y1="91.94" x2="98.45" y2= "79.64" />
   <line class="fil0 str0" x1="128.81" y1="74.41" x2="118.16" y2= "68.26" />
   <line class="fil0 str0" x1="128.81" y1="39.36" x2="118.16" y2= "45.51" />
   <circle class="fil1 str1" cx="98.45" cy="56.88" r="16.17"/>
   <circle class="fil2 str1" cx="57" cy="32.95" r="6.83"/>
   <circle class="fil2 str1" cx="57" cy="80.15" r="6.83"/>
   <circle class="fil2 str1" cx="98.45" cy="104.75" r="6.83"/>
   <circle class="fil2 str1" cx="139.91" cy="80.82" r="6.83"/>
   <circle class="fil2 str1" cx="139.91" cy="32.95" r="6.83"/>
   <circle class="fil2 str1" cx="98.45" cy="9.02" r="6.83"/>
  </g>
 </g>
</svg>
