<?xml version="1.0" encoding="UTF-8"?>
<!DOCTYPE svg PUBLIC "-//W3C//DTD SVG 1.1//EN" "http://www.w3.org/Graphics/SVG/1.1/DTD/svg11.dtd">
<!-- Creator: CorelDRAW 2018 (64-Bit) -->
<svg xmlns="http://www.w3.org/2000/svg" xml:space="preserve" width="30px" height="30px" version="1.1" style="shape-rendering:geometricPrecision; text-rendering:geometricPrecision; image-rendering:optimizeQuality; fill-rule:evenodd; clip-rule:evenodd"
viewBox="0 0 1.38 1.38"
 xmlns:xlink="http://www.w3.org/1999/xlink">
 <defs>
  <style type="text/css">
   <![CDATA[
    .fil2 {fill:#005DAC;fill-rule:nonzero}
    .fil3 {fill:#FF3333;fill-rule:nonzero}
    .fil1 {fill:white;fill-rule:nonzero}
    .fil0 {fill:white;fill-rule:nonzero}
   ]]>
  </style>
 </defs>
 <g id="Layer_x0020_1">
  <metadata id="CorelCorpID_0Corel-Layer"/>
  <g id="_1775898110496">
   <path class="fil0" d="M0.069 0c-0.038,0 -0.069,0.031 -0.069,0.069l0 1.242c0,0.038 0.031,0.069 0.069,0.069l1.242 0c0.038,0 0.069,-0.031 0.069,-0.069l0 -1.242c0,-0.038 -0.031,-0.069 -0.069,-0.069l-1.242 0z"/>
   <g>
    <path class="fil1" d="M0.761 0.69c0,0.168 -0.136,0.304 -0.305,0.304 -0.168,0 -0.304,-0.136 -0.304,-0.304 0,-0.168 0.136,-0.305 0.304,-0.305 0.169,0 0.305,0.137 0.305,0.305z"/>
    <path class="fil1" d="M1.228 0.69c0,0.168 -0.137,0.304 -0.305,0.304 -0.168,0 -0.304,-0.136 -0.304,-0.304 0,-0.168 0.136,-0.305 0.304,-0.305 0.168,0 0.305,0.137 0.305,0.305z"/>
    <path class="fil2" d="M0.406 0.582l0 -0.192c-0.144,0.024 -0.254,0.149 -0.254,0.3 0,0.075 0.027,0.143 0.072,0.196 0.107,-0.051 0.181,-0.168 0.182,-0.304z"/>
    <path class="fil2" d="M0.456 0.767c-0.019,0.078 -0.075,0.145 -0.146,0.19 0.044,0.024 0.093,0.037 0.146,0.037 0.053,0 0.103,-0.013 0.147,-0.037 -0.071,-0.045 -0.128,-0.112 -0.147,-0.19z"/>
    <path class="fil2" d="M0.689 0.493c-0.046,-0.053 -0.109,-0.091 -0.182,-0.103l0 0.191 0 0c0,0.136 0.075,0.254 0.182,0.305 -0.045,-0.053 -0.072,-0.121 -0.072,-0.196 0,-0.075 0.027,-0.144 0.072,-0.197z"/>
    <path class="fil2" d="M0.689 0.493c0.045,0.053 0.074,0.122 0.074,0.197 0,0.075 -0.029,0.143 -0.074,0.196 0,0 0,0 0,0 0,0 0,0 0,0 0.106,-0.051 0.183,-0.168 0.183,-0.304l0 -0.192c-0.072,0.012 -0.138,0.049 -0.183,0.103z"/>
    <path class="fil3" d="M0.617 0.69c0,0.075 0.027,0.143 0.072,0.196 0,0 0,0 0,0 0.045,-0.053 0.074,-0.121 0.074,-0.196 0,-0.075 -0.029,-0.144 -0.074,-0.197 -0.045,0.053 -0.072,0.122 -0.072,0.197z"/>
    <path class="fil2" d="M0.974 0.581l0 0c0,0.136 0.075,0.254 0.181,0.305 0.045,-0.053 0.073,-0.121 0.073,-0.196 0,-0.151 -0.11,-0.276 -0.254,-0.3l0 0.191z"/>
    <path class="fil2" d="M0.923 0.767c-0.019,0.078 -0.075,0.145 -0.146,0.19 0.043,0.024 0.093,0.037 0.146,0.037 0.053,0 0.103,-0.013 0.146,-0.037 -0.07,-0.045 -0.127,-0.112 -0.146,-0.19z"/>
   </g>
  </g>
 </g>
</svg>
