<?xml version="1.0" encoding="utf-8"?>
<!-- Generator: Adobe Illustrator 22.1.0, SVG Export Plug-In . SVG Version: 6.00 Build 0)  -->
<svg version="1.1" id="Layer_1" xmlns="http://www.w3.org/2000/svg" xmlns:xlink="http://www.w3.org/1999/xlink" x="0px" y="0px"
	 viewBox="0 0 283 159" style="enable-background:new 0 0 283 159;" xml:space="preserve">
<style type="text/css">
	.st0{fill:#808080;}
</style>
<g id="Layer_x0020_1">
	<g id="_2118561106912">
		<path class="st0" d="M137.6,78.9c0.4,0,0.6,0.2,0.6,0.4c0,0.4-0.2,0.6-0.6,0.6h-6.2c-0.4,0-0.6-0.2-0.6-0.6c0-0.2,0.2-0.4,0.6-0.4
			C131.4,78.9,137.6,78.9,137.6,78.9z"/>
		<path class="st0" d="M150.9,78.9c0.2,0,0.4,0.2,0.4,0.4c0,0.4-0.2,0.6-0.4,0.6h-6.4c-0.2,0-0.6-0.2-0.6-0.6c0-0.2,0.4-0.4,0.6-0.4
			C144.4,78.9,150.9,78.9,150.9,78.9z"/>
		<path class="st0" d="M134.3,75.6c0.2-0.2,0.4-0.2,0.6,0c0.2,0.2,0.2,0.4,0,0.6l-3.1,3.1l0,0v0.2l3.1,2.9c0.2,0.2,0.2,0.6,0,0.8
			c-0.2,0.2-0.4,0.2-0.6,0l-3.1-3.1c-0.2-0.2-0.4-0.4-0.4-0.8c0-0.2,0.2-0.4,0.4-0.6C131.2,78.7,134.3,75.6,134.3,75.6z"/>
		<path class="st0" d="M147.9,83.2c-0.2,0.2-0.6,0.2-0.8,0c-0.2-0.2-0.2-0.6,0-0.8l3.1-2.9v-0.2l0,0l-3.1-3.1
			c-0.2-0.2-0.2-0.4,0-0.6c0.2-0.2,0.6-0.2,0.8,0l2.9,3.1c0.2,0.2,0.4,0.4,0.4,0.6c0,0.4,0,0.6-0.2,0.8
			C151.1,80.1,147.9,83.2,147.9,83.2z"/>
	</g>
</g>
</svg>
