<?xml version="1.0" encoding="UTF-8"?>
<!DOCTYPE svg PUBLIC "-//W3C//DTD SVG 1.1//EN" "http://www.w3.org/Graphics/SVG/1.1/DTD/svg11.dtd">
<!-- Creator: CorelDRAW 2018 (64-Bit) -->
<svg xmlns="http://www.w3.org/2000/svg" xml:space="preserve" width="40px" height="40px" version="1.1" style="shape-rendering:geometricPrecision; text-rendering:geometricPrecision; image-rendering:optimizeQuality; fill-rule:evenodd; clip-rule:evenodd"
viewBox="0 0 1.359 1.359"
 xmlns:xlink="http://www.w3.org/1999/xlink">
 <defs>
  <style type="text/css">
   <![CDATA[
    .fil0 {fill:none}
    .fil3 {fill:#00F4FF}
    .fil5 {fill:#EAEDF2}
    .fil1 {fill:white}
    .fil4 {fill:gray;fill-rule:nonzero}
    .fil2 {fill:gray;fill-rule:nonzero}
   ]]>
  </style>
 </defs>
 <g id="Layer_x0020_1">
  <metadata id="CorelCorpID_0Corel-Layer"/>
  <g id="_1289650527712">
   <rect class="fil0" width="1.359" height="1.359"/>
   <g>
    <path class="fil1" d="M0.112 0.282l0.958 0c0.018,0 0.034,0.015 0.034,0.034l0 0.748c0,0.018 -0.016,0.033 -0.034,0.033l-0.958 0c-0.018,0 -0.034,-0.015 -0.034,-0.033l0 -0.748c0,-0.019 0.016,-0.034 0.034,-0.034z"/>
    <path class="fil2" d="M0.112 0.265l0.958 0c0.014,0 0.027,0.006 0.036,0.015 0.009,0.009 0.015,0.022 0.015,0.036l0 0.748c0,0.014 -0.006,0.026 -0.015,0.036l-0.001 0.001c-0.009,0.008 -0.022,0.013 -0.035,0.013l-0.958 0c-0.014,0 -0.026,-0.005 -0.035,-0.014 -0.01,-0.01 -0.015,-0.022 -0.015,-0.036l0 -0.748c0,-0.014 0.005,-0.027 0.014,-0.036l0.002 -0.001c0.009,-0.009 0.021,-0.014 0.034,-0.014zm0.958 0.034l-0.958 0c-0.004,0 -0.008,0.002 -0.011,0.004l-0.001 0.001c-0.003,0.003 -0.005,0.007 -0.005,0.012l0 0.748c0,0.004 0.002,0.008 0.005,0.011 0.004,0.004 0.008,0.005 0.012,0.005l0.958 0c0.004,0 0.008,-0.001 0.011,-0.004l0.001 -0.001c0.003,-0.003 0.005,-0.007 0.005,-0.011l0 -0.748c0,-0.005 -0.002,-0.009 -0.005,-0.012 -0.003,-0.003 -0.008,-0.005 -0.012,-0.005z"/>
    <path class="fil2" d="M0.633 0.465c-0.009,0 -0.017,-0.007 -0.017,-0.017 0,-0.009 0.008,-0.017 0.017,-0.017l0.308 0c0.009,0 0.017,0.008 0.017,0.017 0,0.01 -0.008,0.017 -0.017,0.017l-0.308 0z"/>
    <path class="fil2" d="M0.633 0.684c-0.009,0 -0.017,-0.007 -0.017,-0.017 0,-0.009 0.008,-0.017 0.017,-0.017l0.183 0c0.009,0 0.017,0.008 0.017,0.017 0,0.01 -0.008,0.017 -0.017,0.017l-0.183 0z"/>
    <path class="fil2" d="M0.214 0.903c-0.009,0 -0.017,-0.007 -0.017,-0.017 0,-0.009 0.008,-0.017 0.017,-0.017l0.475 0c0.01,0 0.017,0.008 0.017,0.017 0,0.01 -0.007,0.017 -0.017,0.017l-0.475 0z"/>
    <path class="fil3" d="M1.224 0.269l0.049 0.028c0.014,0.008 0.019,0.026 0.011,0.04l-0.361 0.625 -0.098 0.055 -0.002 -0.112 0.361 -0.625c0.008,-0.014 0.026,-0.019 0.04,-0.011z"/>
    <path class="fil4" d="M1.233 0.254l0.05 0.029c0.01,0.007 0.017,0.017 0.02,0.027 0.003,0.011 0.002,0.023 -0.004,0.034 0,0.001 -0.001,0.002 -0.002,0.003l-0.36 0.623c-0.001,0.003 -0.004,0.005 -0.006,0.007l-0.098 0.055c-0.008,0.005 -0.019,0.002 -0.023,-0.007 -0.002,-0.002 -0.002,-0.006 -0.002,-0.009l-0.001 -0.111c0,-0.004 0.001,-0.007 0.002,-0.009l0.361 -0.625c0.006,-0.011 0.016,-0.018 0.028,-0.021 0.011,-0.003 0.024,-0.002 0.035,0.004zm0.031 0.058l-0.048 -0.028c-0.003,-0.002 -0.007,-0.002 -0.01,-0.002 -0.003,0.001 -0.005,0.003 -0.007,0.006l-0.359 0.621 0.001 0.079 0.069 -0.039 0.359 -0.621c0.002,-0.003 0.002,-0.006 0.001,-0.009 -0.001,-0.003 -0.003,-0.005 -0.005,-0.007l-0.001 0z"/>
    <path class="fil4" d="M1.264 0.37c-0.008,-0.004 -0.011,-0.015 -0.006,-0.023 0.005,-0.008 0.015,-0.011 0.023,-0.006l0.039 0.022c0.008,0.005 0.014,0.013 0.017,0.022l0 0.001c0.002,0.009 0.001,0.019 -0.004,0.027l-0.115 0.199c-0.005,0.008 -0.015,0.011 -0.023,0.006 -0.008,-0.004 -0.011,-0.015 -0.006,-0.023l0.115 -0.199c0,0 0,-0.001 0,-0.002l0 0c0,-0.001 -0.001,-0.001 -0.001,-0.001l-0.039 -0.023z"/>
    <path class="fil4" d="M1.029 0.548c-0.008,-0.005 -0.01,-0.015 -0.006,-0.023 0.005,-0.008 0.015,-0.011 0.023,-0.006l0.099 0.057c0.009,0.005 0.011,0.015 0.007,0.023 -0.005,0.008 -0.015,0.011 -0.023,0.006l-0.1 -0.057z"/>
    <path class="fil4" d="M0.827 1.046c-0.004,0.009 -0.015,0.011 -0.023,0.007 -0.008,-0.005 -0.011,-0.015 -0.006,-0.023l0.012 -0.021c0.005,-0.008 0.015,-0.011 0.023,-0.007 0.008,0.005 0.011,0.015 0.006,0.024l-0.012 0.02z"/>
    <polygon class="fil1" points="0.823,0.905 0.825,1.017 0.923,0.962 "/>
    <path class="fil2" d="M0.841 0.934l0 0.054 0.047 -0.026 -0.047 -0.028zm-0.033 0.083l-0.001 -0.111c-0.001,-0.004 0,-0.007 0.002,-0.01 0.005,-0.008 0.015,-0.011 0.023,-0.006l0.098 0.057c0.003,0.001 0.006,0.004 0.007,0.007 0.005,0.008 0.002,0.018 -0.006,0.023l-0.098 0.055c-0.002,0.001 -0.005,0.002 -0.008,0.002 -0.01,0 -0.017,-0.007 -0.017,-0.017z"/>
    <path class="fil5" d="M0.236 0.708l0.247 0c0.012,0 0.021,-0.01 0.021,-0.021l0 -0.248c0,-0.012 -0.009,-0.021 -0.021,-0.021l-0.247 0c-0.012,0 -0.022,0.009 -0.022,0.021l0 0.248c0,0.011 0.01,0.021 0.022,0.021z"/>
    <path class="fil4" d="M0.236 0.691l0.247 0c0.001,0 0.002,-0.001 0.003,-0.001 0.001,-0.001 0.001,-0.002 0.001,-0.003l0 -0.248c0,-0.001 0,-0.002 -0.001,-0.003 -0.001,-0.001 -0.002,-0.001 -0.003,-0.001l-0.247 0c-0.002,0 -0.003,0 -0.003,0.001 -0.001,0.001 -0.002,0.002 -0.002,0.003l0 0.248c0,0.001 0.001,0.002 0.002,0.003 0,0 0.001,0.001 0.003,0.001zm0.247 0.034l-0.247 0c-0.011,0 -0.02,-0.004 -0.027,-0.011 -0.007,-0.007 -0.012,-0.017 -0.012,-0.027l0 -0.248c0,-0.01 0.005,-0.02 0.012,-0.027 0.007,-0.007 0.016,-0.011 0.027,-0.011l0.247 0c0.011,0 0.02,0.004 0.027,0.011 0.007,0.007 0.011,0.017 0.011,0.027l0 0.248c0,0.01 -0.004,0.02 -0.011,0.027 -0.007,0.007 -0.016,0.011 -0.027,0.011z"/>
   </g>
  </g>
 </g>
</svg>
