<?xml version="1.0" encoding="UTF-8"?>
<!DOCTYPE svg PUBLIC "-//W3C//DTD SVG 1.1//EN" "http://www.w3.org/Graphics/SVG/1.1/DTD/svg11.dtd">
<!-- Creator: CorelDRAW 2018 (64-Bit) -->
<svg xmlns="http://www.w3.org/2000/svg" xml:space="preserve" width="16px" height="14px" version="1.1" style="shape-rendering:geometricPrecision; text-rendering:geometricPrecision; image-rendering:optimizeQuality; fill-rule:evenodd; clip-rule:evenodd"
viewBox="0 0 0.493 0.422"
 xmlns:xlink="http://www.w3.org/1999/xlink">
 <defs>
  <style type="text/css">
   <![CDATA[
    .fil0 {fill:gray;fill-rule:nonzero}
   ]]>
  </style>
 </defs>
 <g id="Layer_x0020_1">
  <metadata id="CorelCorpID_0Corel-Layer"/>
  <g id="_2712942521760">
   <path class="fil0" d="M0.028 0l0.035 0c0.008,0 0.015,0.003 0.02,0.008 0.005,0.005 0.008,0.012 0.008,0.02l0 0.035c0,0.008 -0.003,0.015 -0.008,0.02 -0.005,0.005 -0.012,0.008 -0.02,0.008l-0.035 0c-0.008,0 -0.015,-0.003 -0.02,-0.008 -0.005,-0.005 -0.008,-0.012 -0.008,-0.02l0 -0.035c0,-0.008 0.003,-0.015 0.008,-0.02 0.005,-0.005 0.012,-0.008 0.02,-0.008zm0.034 0.03l-0.032 0 0 0.032 0.032 0 0 -0.032z"/>
   <path class="fil0" d="M0.028 0.165l0.035 0c0.008,0 0.015,0.004 0.02,0.009 0.005,0.005 0.008,0.012 0.008,0.02l0 0.035c0,0.007 -0.003,0.015 -0.008,0.02 -0.005,0.005 -0.012,0.008 -0.02,0.008l-0.035 0c-0.008,0 -0.015,-0.003 -0.02,-0.008 -0.005,-0.005 -0.008,-0.013 -0.008,-0.02l0 -0.035c0,-0.008 0.003,-0.015 0.008,-0.02 0.005,-0.005 0.012,-0.009 0.02,-0.009zm0.034 0.03l-0.032 0 0 0.032 0.032 0 0 -0.032z"/>
   <path class="fil0" d="M0.028 0.331l0.035 0c0.008,0 0.015,0.003 0.02,0.008 0.005,0.005 0.008,0.012 0.008,0.02l0 0.035c0,0.008 -0.003,0.015 -0.008,0.02 -0.005,0.005 -0.012,0.008 -0.02,0.008l-0.035 0c-0.008,0 -0.015,-0.003 -0.02,-0.008 -0.005,-0.005 -0.008,-0.012 -0.008,-0.02l0 -0.035c0,-0.008 0.003,-0.015 0.008,-0.02 0.005,-0.005 0.012,-0.008 0.02,-0.008zm0.034 0.03l-0.032 0 0 0.032 0.032 0 0 -0.032z"/>
   <path class="fil0" d="M0.164 0l0.3 0c0.008,0 0.015,0.003 0.02,0.008l0.001 0.001c0.005,0.005 0.008,0.012 0.008,0.019l0 0.035c0,0.008 -0.004,0.015 -0.009,0.02 -0.005,0.005 -0.012,0.008 -0.02,0.008l-0.3 0c-0.008,0 -0.015,-0.003 -0.02,-0.008 -0.005,-0.005 -0.009,-0.012 -0.009,-0.02l0 -0.035c0,-0.008 0.004,-0.015 0.009,-0.02 0.005,-0.005 0.012,-0.008 0.02,-0.008zm0.299 0.03l-0.298 0 0 0.032 0.298 0 0 -0.032z"/>
   <path class="fil0" d="M0.164 0.165l0.3 0c0.008,0 0.015,0.004 0.02,0.009l0.001 0.001c0.005,0.005 0.008,0.011 0.008,0.019l0 0.035c0,0.007 -0.004,0.014 -0.009,0.02 -0.005,0.005 -0.012,0.008 -0.02,0.008l-0.3 0c-0.008,0 -0.015,-0.003 -0.02,-0.008 -0.005,-0.005 -0.009,-0.013 -0.009,-0.02l0 -0.035c0,-0.008 0.004,-0.015 0.009,-0.02 0.005,-0.005 0.012,-0.009 0.02,-0.009zm0.299 0.03l-0.298 0 0 0.032 0.298 0 0 -0.032z"/>
   <path class="fil0" d="M0.164 0.331l0.3 0c0.008,0 0.015,0.003 0.02,0.008l0.001 0.001c0.005,0.005 0.008,0.012 0.008,0.019l0 0.035c0,0.008 -0.004,0.015 -0.009,0.02 -0.005,0.005 -0.012,0.008 -0.02,0.008l-0.3 0c-0.008,0 -0.015,-0.003 -0.02,-0.008 -0.005,-0.005 -0.009,-0.012 -0.009,-0.02l0 -0.035c0,-0.008 0.004,-0.015 0.009,-0.02 0.005,-0.005 0.012,-0.008 0.02,-0.008zm0.299 0.03l-0.298 0 0 0.032 0.298 0 0 -0.032z"/>
  </g>
 </g>
</svg>
