<?xml version="1.0" encoding="UTF-8"?>
<!DOCTYPE svg PUBLIC "-//W3C//DTD SVG 1.1//EN" "http://www.w3.org/Graphics/SVG/1.1/DTD/svg11.dtd">
<!-- Creator: CorelDRAW 2018 (64-Bit) -->
<svg xmlns="http://www.w3.org/2000/svg" xml:space="preserve" width="0.220811in" height="0.23611in" version="1.1" style="shape-rendering:geometricPrecision; text-rendering:geometricPrecision; image-rendering:optimizeQuality; fill-rule:evenodd; clip-rule:evenodd"
viewBox="0 0 5.32 5.69"
 xmlns:xlink="http://www.w3.org/1999/xlink">
 <defs>
  <style type="text/css">
   <![CDATA[
    .str0 {stroke:gray;stroke-width:0.33;stroke-linecap:round;stroke-linejoin:round;stroke-miterlimit:2.61313}
    .fil0 {fill:none}
   ]]>
  </style>
 </defs>
 <g id="Layer_x0020_1">
  <metadata id="CorelCorpID_0Corel-Layer"/>
  <g id="_2000465423120">
   <path class="fil0 str0" d="M3.26 1.04c0.25,0.08 0.48,0.22 0.67,0.39l0.83 -0.25c0.17,0.21 0.3,0.44 0.4,0.69l-0.63 0.59c0.03,0.12 0.04,0.25 0.04,0.39 0,0.13 -0.01,0.26 -0.04,0.39l0.63 0.59c-0.1,0.25 -0.23,0.48 -0.4,0.69l-0.83 -0.25c-0.19,0.17 -0.42,0.3 -0.67,0.39l-0.2 0.84c-0.13,0.02 -0.26,0.03 -0.4,0.03 -0.14,0 -0.27,-0.01 -0.4,-0.03l-0.2 -0.84c-0.25,-0.08 -0.48,-0.22 -0.67,-0.39l-0.83 0.25c-0.17,-0.21 -0.3,-0.44 -0.4,-0.69l0.63 -0.59c-0.03,-0.12 -0.04,-0.25 -0.04,-0.39 0,-0.13 0.01,-0.26 0.04,-0.39l-0.63 -0.59c0.1,-0.25 0.23,-0.48 0.4,-0.69l0.83 0.25c0.19,-0.17 0.42,-0.3 0.67,-0.39l0.2 -0.84c0.13,-0.02 0.26,-0.03 0.4,-0.03 0.14,0 0.27,0.01 0.4,0.03l0.2 0.84z"/>
   <circle class="fil0 str0" cx="2.66" cy="2.84" r="0.84"/>
  </g>
 </g>
</svg>
