<?xml version="1.0" encoding="utf-8"?>
<!-- Generator: Adobe Illustrator 22.1.0, SVG Export Plug-In . SVG Version: 6.00 Build 0)  -->
<svg version="1.1" id="Layer_1" xmlns="http://www.w3.org/2000/svg" xmlns:xlink="http://www.w3.org/1999/xlink" x="0px" y="0px"
	 viewBox="0 0 20 20" style="enable-background:new 0 0 20 20;" xml:space="preserve">
<style type="text/css">
	.st0{fill:#A3761D;stroke:#72654C;stroke-width:0.5;stroke-miterlimit:10;}
</style>
<path class="st0" d="M3.2,17c-1.3,0-1.3-3.9,0.1-3.9c4.5-0.1,8.1,0,13.5,0c1.5,0,1.5,3.9-0.3,3.9L3.2,17z"/>
<path class="st0" d="M4,13.1c-1.2,0-1.2-2.8,0-2.9c4-0.1,7.1,0,11.8,0c1.3,0,1.3,2.9-0.2,2.9L4,13.1z"/>
<path class="st0" d="M5.4,10.1c-0.9,0-0.9-2.7,0-2.8c3-0.1,5.5,0,9.1,0c1,0,1,2.8-0.2,2.8L5.4,10.1z"/>
<path class="st0" d="M8.4,7.3c-0.1,0-0.2,0-0.2-0.1C7.8,7.1,7,6.5,6.8,5.8C6.6,4.9,7,4.4,8.2,4.6c1.1,0.2,2.4,0.7,2.9-0.2
	C11.3,3.9,12,3.1,12.3,3c0.3-0.1,0.6,0.1,0.6,0.4c0.1,0.5-0.2,1.8-0.1,2c0.1,1.1,0.4,1.5-0.3,1.8c-0.2,0.1-0.7,0.1-0.9,0.1L8.4,7.3z
	"/>
</svg>
