<?xml version="1.0" encoding="UTF-8"?>
<!DOCTYPE svg PUBLIC "-//W3C//DTD SVG 1.0//EN" "http://www.w3.org/TR/2001/REC-SVG-20010904/DTD/svg10.dtd">
<!-- Creator: CorelDRAW 2018 (64-Bit) -->
<svg xmlns="http://www.w3.org/2000/svg" xml:space="preserve" width="0.208339in" height="0.208339in" version="1.0" style="shape-rendering:geometricPrecision; text-rendering:geometricPrecision; image-rendering:optimizeQuality; fill-rule:evenodd; clip-rule:evenodd"
viewBox="0 0 3.6 3.6"
 xmlns:xlink="http://www.w3.org/1999/xlink">
 <defs>
  <style type="text/css">
   <![CDATA[
    .str1 {stroke:gray;stroke-width:0.24;stroke-linecap:round;stroke-miterlimit:2.61313}
    .str0 {stroke:gray;stroke-width:0.24;stroke-linecap:round;stroke-linejoin:round;stroke-miterlimit:2.61313}
    .fil0 {fill:none}
   ]]>
  </style>
 </defs>
 <g id="Layer_x0020_1">
  <metadata id="CorelCorpID_0Corel-Layer"/>
  <g id="_1924676228816">
   <path class="fil0 str0" d="M1.83 3.48l1.52 0c0.07,0 0.13,-0.06 0.13,-0.13l0 -3.1c0,-0.07 -0.06,-0.13 -0.13,-0.13l-3.1 0c-0.07,0 -0.13,0.06 -0.13,0.13l0 1.52"/>
   <path class="fil0 str0" d="M0.25 2.28c-0.07,0 -0.13,0.06 -0.13,0.13l0 0.93c0,0.07 0.06,0.13 0.13,0.13l0.93 0c0.07,0 0.13,-0.06 0.13,-0.13m-0.13 0.13c0.07,0 0.13,-0.06 0.13,-0.13l0 -0.93c0,-0.07 -0.06,-0.13 -0.13,-0.13l-0.93 0c-0.07,0 -0.13,0.06 -0.13,0.13"/>
   <path class="fil0 str1" d="M1.66 1.94l1.06 -1.06"/>
   <path class="fil0 str0" d="M1.79 0.84l0.84 0c0.08,0 0.14,0.06 0.14,0.14l0 0.84"/>
  </g>
 </g>
</svg>
