<?xml version="1.0" encoding="UTF-8"?>
<!DOCTYPE svg PUBLIC "-//W3C//DTD SVG 1.1//EN" "http://www.w3.org/Graphics/SVG/1.1/DTD/svg11.dtd">
<!-- Creator: CorelDRAW 2018 (64-Bit) -->
<svg xmlns="http://www.w3.org/2000/svg" xml:space="preserve" width="32px" height="32px" version="1.1" style="shape-rendering:geometricPrecision; text-rendering:geometricPrecision; image-rendering:optimizeQuality; fill-rule:evenodd; clip-rule:evenodd"
viewBox="0 0 1.11 1.11"
 xmlns:xlink="http://www.w3.org/1999/xlink">
 <defs>
  <style type="text/css">
   <![CDATA[
    .fil1 {fill:white}
    .fil0 {fill:#1DA1F2;fill-rule:nonzero}
   ]]>
  </style>
 </defs>
 <g id="Layer_x0020_1">
  <metadata id="CorelCorpID_0Corel-Layer"/>
  <g id="_1510540322048">
   <path class="fil0" d="M0.555 0c0.306,0 0.555,0.248 0.555,0.555 0,0.306 -0.249,0.555 -0.555,0.555 -0.307,0 -0.555,-0.249 -0.555,-0.555 0,-0.307 0.248,-0.555 0.555,-0.555z"/>
   <path class="fil1" d="M0.8 0.355c-0.024,-0.025 -0.058,-0.041 -0.096,-0.041 -0.073,0 -0.132,0.059 -0.132,0.132 0,0.01 0.001,0.02 0.003,0.03 -0.11,-0.006 -0.207,-0.058 -0.272,-0.138 -0.011,0.019 -0.018,0.042 -0.018,0.066 0,0.046 0.023,0.087 0.059,0.11 -0.022,-0.001 -0.042,-0.006 -0.06,-0.016 0,0 0,0.001 0,0.001 0,0.064 0.046,0.118 0.106,0.13 -0.011,0.003 -0.023,0.004 -0.035,0.004 -0.008,0 -0.017,0 -0.025,-0.002 0.017,0.052 0.066,0.091 0.124,0.092 -0.046,0.035 -0.102,0.056 -0.164,0.056 -0.011,0 -0.021,0 -0.032,-0.002 0.059,0.038 0.128,0.06 0.203,0.06 0.242,0 0.375,-0.201 0.375,-0.376 0,-0.006 0,-0.011 0,-0.017 0.026,-0.019 0.048,-0.042 0.066,-0.068 -0.024,0.01 -0.049,0.017 -0.076,0.02 0.027,-0.016 0.048,-0.042 0.058,-0.073 -0.026,0.016 -0.054,0.027 -0.084,0.032z"/>
  </g>
 </g>
</svg>
