<?xml version="1.0" encoding="UTF-8"?>
<!DOCTYPE svg PUBLIC "-//W3C//DTD SVG 1.1//EN" "http://www.w3.org/Graphics/SVG/1.1/DTD/svg11.dtd">
<!-- Creator: CorelDRAW 2018 (64-Bit) -->
<svg xmlns="http://www.w3.org/2000/svg" xml:space="preserve" width="1.25in" height="0.72222in" version="1.1" style="shape-rendering:geometricPrecision; text-rendering:geometricPrecision; image-rendering:optimizeQuality; fill-rule:evenodd; clip-rule:evenodd"
viewBox="0 0 1939.8 1120.77"
 xmlns:xlink="http://www.w3.org/1999/xlink">
 <defs>
  <style type="text/css">
   <![CDATA[
    .str0 {stroke:gray;stroke-width:21.55;stroke-miterlimit:2.61313}
    .str1 {stroke:gray;stroke-width:21.55;stroke-linecap:round;stroke-linejoin:round;stroke-miterlimit:2.61313}
    .fil0 {fill:none}
    .fil3 {fill:#00F4FF}
    .fil2 {fill:#EAEDF2}
    .fil1 {fill:white}
   ]]>
  </style>
 </defs>
 <g id="Layer_x0020_1">
  <metadata id="CorelCorpID_0Corel-Layer"/>
  <g id="_2855314808880">
   <rect class="fil0" x="0" width="1939.8" height="1120.77"/>
   <g>
    <path class="fil1 str0" d="M669.71 677.55l108.56 -59.94c-8.24,-22.72 -7.93,-51.37 4.25,-87.71 -31.59,32.59 -70.44,55.24 -112.81,55.65 -42.54,-0.42 -81.53,-23.23 -113.19,-56.04 12.28,36.47 12.65,65.2 4.42,87.98l108.77 60.05z"/>
    <path class="fil1" d="M1107.22 760.05c-48.94,-51.22 -70.24,-44.38 -147.49,-54.06 -59.17,-7.42 -119,-19.75 -154.55,-50.28l-101 99.6 -34.48 -77.76 -34.47 77.76 -101.12 -99.73c-35.55,30.62 -95.46,42.97 -154.7,50.4 -77.25,9.68 -98.55,2.85 -147.49,54.06 175.12,241.55 704,241.43 875.29,0z"/>
    <path class="fil0 str1" d="M1107.22 760.05c-48.94,-51.22 -70.24,-44.39 -147.49,-54.07 -59.17,-7.41 -118.99,-19.75 -154.55,-50.28l-101 99.61 -34.47 -77.76 -34.47 77.76 -101.12 -99.73c-35.55,30.62 -95.46,42.97 -154.7,50.4 -77.25,9.68 -98.55,2.85 -147.49,54.07"/>
    <path class="fil1 str0" d="M799.03 511.18c26.37,-32.77 48.03,-72.04 48.03,-108.38l0 -15 0 -82.19 0 -18.74c0.63,-17.46 -1.15,-52.48 -3.07,-65.35 -5.96,-39.72 -103.36,-73.55 -174.16,-83.48 -70.81,-9.92 -111.23,-11.89 -144.3,29.14 -17.55,21.78 -32.63,74.04 -33.16,117.87l0 20.56 0 82.19 0 15c0,36.35 21.66,75.61 48.03,108.38 5.13,6.38 10.52,12.51 16.14,18.33 31.65,32.81 70.65,55.63 113.19,56.04 42.37,-0.42 81.22,-23.06 112.81,-55.65 5.76,-5.94 11.27,-12.2 16.51,-18.73z"/>
    <path class="fil1 str0" d="M887.23 346.7c0,-22.7 -17.99,-41.09 -40.18,-41.09l0 82.19c22.19,0 40.18,-18.4 40.18,-41.1z"/>
    <path class="fil1 str0" d="M492.35 387.8l0 -82.19c-22.19,0 -40.18,18.4 -40.18,41.09 0,22.7 17.99,41.1 40.18,41.1z"/>
    <path class="fil2 str1" d="M875.66 155.37c-25.21,-85.99 -140.06,-132.93 -229.68,-133.81 -65.32,-0.64 -153.34,18.77 -151.57,124.44 -59.79,34.2 -23.72,113.8 -13.34,161.24 3.59,-1.07 7.37,-1.64 11.29,-1.64l0 -20.56c0.53,-43.83 15.61,-96.09 33.16,-117.87 33.07,-41.03 73.49,-39.06 144.3,-29.14 70.8,9.93 168.2,43.76 174.16,83.48 1.92,12.87 3.7,47.89 3.07,65.35l0 18.74c5.43,0 10.59,1.1 15.31,3.1 10.24,-47.45 24.47,-115.17 13.29,-153.33z"/>
    <path class="fil3 str1" d="M704.19 755.31l110 -108.6c-12.12,-10.41 -21.42,-22.93 -26.92,-38.09l-117.55 68.93 34.48 77.76z"/>
    <path class="fil3 str1" d="M635.24 755.31l-110 -108.6c12.12,-10.41 21.42,-22.93 26.92,-38.09l117.55 68.93 -34.47 77.76z"/>
    <path class="fil3" d="M1707.86 901.61c-45.19,-52.01 -68.35,-64.02 -107.6,-70 -60.74,54.69 -148.01,95.34 -245.95,113.88 -6.46,36.66 5.94,71.82 52.48,106.87 -38.42,-2.58 -126.2,-15.34 -149.06,-95.96 -6.57,0.13 -15.66,0.22 -21.37,0.22 -147.58,0 -278.98,-48.77 -363.52,-124.65 -39.17,5.99 -62.35,17.97 -107.44,69.85 186.78,263.27 755.78,263.16 942.46,-0.21z"/>
    <path class="fil0 str1" d="M1707.86 901.62c-45.19,-52.01 -68.35,-64.03 -107.59,-70.01 -60.75,54.69 -148.01,95.34 -245.95,113.88 -6.47,36.66 5.93,71.82 52.48,106.88 -38.42,-2.58 -126.21,-15.34 -149.07,-95.96 -6.57,0.13 -15.66,0.22 -21.37,0.22 -147.58,0 -278.98,-48.76 -363.52,-124.65 -39.17,5.99 -62.34,17.97 -107.44,69.85"/>
    <path class="fil1 str1" d="M1043.07 370.13l0 89.66 0 16.36c0,70.22 74.77,164.66 193.49,199.34 36.74,-10.73 69.28,-27.19 96.69,-46.89 61.15,-43.93 96.79,-103.96 96.79,-152.45l0 -16.36 0 -89.66 0 -22.42c-30.87,-28.73 -59.1,-27.62 -76.85,-138.11 -94.63,100.44 -236.04,104.13 -310.12,138.11l0 22.42z"/>
    <path class="fil1 str1" d="M1106.45 770.96c-39.29,31.31 -101.46,45.25 -162.97,52.96 -29.86,3.75 -52.05,5.22 -70.64,8.05 84.54,75.89 215.94,124.64 363.52,124.64 5.73,0 14.81,-0.08 21.38,-0.22 -4.2,-14.8 -6.21,-31.88 -5.33,-51.6 4.89,-109.65 58.03,-104.25 75.64,-190.14 4.45,-21.73 6.65,-49.3 5.21,-86.05 -27.41,19.7 -59.95,36.16 -96.69,46.89 -38.18,-11.15 -71.81,-28.48 -99.87,-49.21 23.58,69.99 6.89,115.09 -30.24,144.67zm292.78 81.69c-21.98,32.41 -39.67,63.12 -44.92,92.85 97.94,-18.54 185.21,-59.19 245.95,-113.88 -18.59,-2.84 -40.78,-4.32 -70.63,-8.06 -33.69,-4.22 -69.41,-9.9 -99.62,-19.1 -10.11,16.84 -20.44,32.94 -30.79,48.2z"/>
    <path class="fil1 str1" d="M1430.05 370.13l0 89.66c24.21,0 43.84,-20.07 43.84,-44.83 0,-24.76 -19.62,-44.83 -43.84,-44.83z"/>
    <path class="fil1 str1" d="M999.24 414.96c0,24.76 19.63,44.83 43.84,44.83l0 -89.66c-24.21,0 -43.84,20.07 -43.84,44.83z"/>
    <path class="fil2 str1" d="M1333.65 628.32c0.07,5.13 0.07,10.29 0.01,15.44 0.37,29.25 -1.78,52.13 -5.57,70.74 -0.01,0.05 -0.02,0.1 -0.04,0.15 -17.61,85.88 -70.75,80.49 -75.64,190.14 -0.88,19.72 1.13,36.8 5.33,51.6 22.87,80.63 110.64,93.39 149.07,95.98 -46.54,-35.06 -58.96,-70.22 -52.49,-106.88 10.44,-56.65 50.47,-94.03 75.71,-141.05 61.18,-101.98 114.09,-231.3 112.94,-367.19 -1.96,-230.97 -136.43,-346.27 -300.41,-352.83 -163.98,-6.56 -280.39,180.59 -276.85,334.43 3.52,152.81 73.79,272.48 140.75,352.1 37.12,-29.58 53.82,-74.68 30.24,-144.66 -59.2,-43.71 -93.62,-102.5 -93.62,-150.14l0 -16.36c-24.21,0 -43.84,-20.07 -43.84,-44.83 0,-24.76 19.63,-44.83 43.84,-44.83l0 -22.42c74.08,-33.99 215.49,-37.68 310.12,-138.11 17.75,110.5 45.99,109.38 76.85,138.11l0 22.42c24.21,0 43.84,20.07 43.84,44.83 0,24.76 -19.62,44.83 -43.84,44.83l0 16.36c0,48.39 -35.49,108.27 -96.4,152.17z"/>
   </g>
  </g>
 </g>
</svg>
