<?xml version="1.0" encoding="UTF-8"?>
<!DOCTYPE svg PUBLIC "-//W3C//DTD SVG 1.1//EN" "http://www.w3.org/Graphics/SVG/1.1/DTD/svg11.dtd">
<!-- Creator: CorelDRAW 2018 (64-Bit) -->
<svg xmlns="http://www.w3.org/2000/svg" xml:space="preserve" width="0.323024in" height="0.194437in" version="1.1" style="shape-rendering:geometricPrecision; text-rendering:geometricPrecision; image-rendering:optimizeQuality; fill-rule:evenodd; clip-rule:evenodd"
viewBox="0 0 18.66 11.23"
 xmlns:xlink="http://www.w3.org/1999/xlink">
 <defs>
  <style type="text/css">
   <![CDATA[
    .str1 {stroke:gray;stroke-width:0.8;stroke-linecap:round;stroke-linejoin:round;stroke-miterlimit:22.9256}
    .str0 {stroke:gray;stroke-width:0.8;stroke-linecap:round;stroke-linejoin:round;stroke-miterlimit:2.61313}
    .fil0 {fill:none}
    .fil1 {fill:none;fill-rule:nonzero}
   ]]>
  </style>
 </defs>
 <g id="Layer_x0020_1">
  <metadata id="CorelCorpID_0Corel-Layer"/>
  <g id="_2833547151168">
   <line class="fil0 str0" x1="0.54" y1="10.83" x2="3.59" y2= "10.83" />
   <path class="fil1 str1" d="M6.17 7.36c-0.51,-0.88 -1.39,-1.33 -1.96,-1.01l-0.87 0.5c-0.57,0.33 -0.62,1.32 -0.11,2.2l0.06 0.11 2.94 -1.7 -0.06 -0.11z"/>
   <path class="fil1 str1" d="M4.37 6.17c-0.32,-0.55 -0.78,-0.89 -1.03,-0.75l-0.38 0.22c-0.24,0.14 -0.18,0.71 0.14,1.26l0.04 0.07 1.27 -0.73 -0.04 -0.07z"/>
   <path class="fil1 str1" d="M0.91 7.29c-0.28,0 -0.51,0.23 -0.51,0.51 0,0.28 0.23,0.51 0.51,0.51 0.28,0 0.51,-0.23 0.51,-0.51 0,-0.28 -0.23,-0.51 -0.51,-0.51z"/>
   <line class="fil1 str1" x1="2.9" y1="6.46" x2="1.28" y2= "7.44" />
   <line class="fil1 str1" x1="1.18" y1="8.3" x2="2.13" y2= "10.83" />
   <path class="fil0 str0" d="M5.59 5.83l0 -4.97c0,-0.25 0.2,-0.45 0.45,-0.45l11.77 0c0.25,0 0.45,0.2 0.45,0.45l0 7.63c0,0.25 -0.2,0.45 -0.45,0.45l-11.77 0c-0.19,0 -0.36,-0.12 -0.42,-0.29"/>
   <line class="fil0 str0" x1="9.18" y1="10.83" x2="14.67" y2= "10.83" />
   <line class="fil0 str0" x1="10.12" y1="10.64" x2="10.12" y2= "8.94" />
   <line class="fil0 str0" x1="13.73" y1="10.64" x2="13.73" y2= "8.94" />
  </g>
 </g>
</svg>
