<?xml version="1.0" encoding="UTF-8"?>
<!DOCTYPE svg PUBLIC "-//W3C//DTD SVG 1.1//EN" "http://www.w3.org/Graphics/SVG/1.1/DTD/svg11.dtd">
<!-- Creator: CorelDRAW 2018 (64-Bit) -->
<svg xmlns="http://www.w3.org/2000/svg" xml:space="preserve" width="283px" height="189px" version="1.1" style="shape-rendering:geometricPrecision; text-rendering:geometricPrecision; image-rendering:optimizeQuality; fill-rule:evenodd; clip-rule:evenodd"
viewBox="0 0 133.909 89.536"
 xmlns:xlink="http://www.w3.org/1999/xlink">
 <defs>
  <style type="text/css">
   <![CDATA[
    .fil2 {fill:#8D9AA8}
    .fil0 {fill:#A3AEBA}
    .fil3 {fill:#EAEDF2;fill-rule:nonzero}
    .fil1 {fill:white;fill-rule:nonzero}
   ]]>
  </style>
 </defs>
 <g id="Layer_x0020_1">
  <metadata id="CorelCorpID_0Corel-Layer"/>
  <g id="_2993524670912">
   <rect class="fil0" width="133.909" height="89.536"/>
   <path class="fil1" d="M61.991 61.125l-1.966 5.307 -0.684 0 -1.924 -5.307 0.692 0 1.469 4.208c0.047,0.135 0.082,0.292 0.108,0.47l0.014 0c0.02,-0.148 0.06,-0.307 0.122,-0.478l1.5 -4.2 0.669 0zm0.951 0.555c-0.108,0 -0.201,-0.037 -0.277,-0.112 -0.076,-0.073 -0.114,-0.166 -0.114,-0.28 0,-0.114 0.038,-0.208 0.114,-0.283 0.076,-0.076 0.169,-0.114 0.277,-0.114 0.112,0 0.206,0.038 0.283,0.114 0.079,0.075 0.118,0.169 0.118,0.283 0,0.109 -0.039,0.201 -0.118,0.277 -0.077,0.077 -0.171,0.115 -0.283,0.115zm0.297 3.694c0,0.347 0.134,0.521 0.403,0.521 0.109,0 0.206,-0.014 0.292,-0.04l0 0.548c-0.047,0.011 -0.109,0.024 -0.187,0.034 -0.077,0.011 -0.159,0.018 -0.245,0.018 -0.121,0 -0.235,-0.02 -0.341,-0.06 -0.106,-0.04 -0.198,-0.099 -0.275,-0.181 -0.079,-0.081 -0.141,-0.184 -0.186,-0.306 -0.046,-0.121 -0.068,-0.264 -0.068,-0.427l0 -2.839 0.607 0 0 2.732zm4.59 1.058l-0.608 0 0 -0.644 -0.014 0c-0.281,0.489 -0.716,0.733 -1.303,0.733 -0.475,0 -0.857,-0.17 -1.141,-0.51 -0.286,-0.338 -0.428,-0.801 -0.428,-1.385 0,-0.627 0.157,-1.128 0.473,-1.506 0.316,-0.378 0.737,-0.566 1.262,-0.566 0.521,0 0.9,0.204 1.137,0.614l0.014 0 0 -2.346 0.608 0 0 5.61zm-0.608 -1.713l0 -0.56c0,-0.305 -0.101,-0.564 -0.303,-0.776 -0.202,-0.213 -0.458,-0.319 -0.769,-0.319 -0.37,0 -0.662,0.135 -0.874,0.407 -0.213,0.272 -0.319,0.647 -0.319,1.126 0,0.437 0.102,0.78 0.306,1.034 0.203,0.253 0.477,0.379 0.82,0.379 0.338,0 0.612,-0.122 0.823,-0.366 0.211,-0.244 0.316,-0.554 0.316,-0.925zm4.882 -0.03l-2.676 0c0.01,0.422 0.124,0.748 0.341,0.978 0.217,0.228 0.515,0.343 0.896,0.343 0.427,0 0.818,-0.14 1.177,-0.422l0 0.57c-0.333,0.243 -0.774,0.363 -1.321,0.363 -0.536,0 -0.957,-0.172 -1.262,-0.516 -0.307,-0.345 -0.46,-0.829 -0.46,-1.453 0,-0.59 0.168,-1.07 0.501,-1.441 0.335,-0.372 0.751,-0.557 1.246,-0.557 0.496,0 0.879,0.16 1.151,0.481 0.271,0.32 0.407,0.766 0.407,1.335l0 0.319zm-0.622 -0.514c-0.002,-0.35 -0.087,-0.623 -0.253,-0.819 -0.166,-0.195 -0.398,-0.292 -0.694,-0.292 -0.286,0 -0.53,0.102 -0.729,0.307 -0.2,0.205 -0.324,0.473 -0.37,0.804l2.046 0zm3.124 2.346c-0.56,0 -1.007,-0.177 -1.342,-0.531 -0.333,-0.354 -0.501,-0.824 -0.501,-1.409 0,-0.636 0.174,-1.133 0.522,-1.492 0.348,-0.357 0.818,-0.535 1.411,-0.535 0.565,0 1.005,0.173 1.322,0.522 0.317,0.347 0.475,0.829 0.475,1.446 0,0.605 -0.17,1.089 -0.511,1.453 -0.343,0.364 -0.801,0.546 -1.376,0.546zm0.044 -3.457c-0.389,0 -0.697,0.133 -0.924,0.398 -0.228,0.265 -0.341,0.631 -0.341,1.098 0,0.448 0.114,0.802 0.344,1.061 0.23,0.259 0.537,0.389 0.921,0.389 0.393,0 0.695,-0.127 0.906,-0.381 0.211,-0.254 0.316,-0.616 0.316,-1.084 0,-0.474 -0.105,-0.839 -0.316,-1.096 -0.211,-0.257 -0.513,-0.385 -0.906,-0.385z"/>
   <path class="fil2" d="M66.955 47.812c18.576,0 33.636,1.64 33.636,3.662 0,2.023 -15.06,3.663 -33.636,3.663 -18.577,0 -33.637,-1.64 -33.637,-3.663 0,-2.022 15.06,-3.662 33.637,-3.662z"/>
   <path class="fil2" d="M49.647 51.44c-1.088,0 -1.977,-0.89 -1.977,-1.977l0 -20.392 0 -4.078c0,-1.088 0.889,-1.977 1.977,-1.977l12.605 0c1.088,0 1.978,0.889 1.978,1.977l0 0.336c0,0.971 0.794,1.765 1.764,1.765l14.302 0c1.087,0 1.977,0.89 1.977,1.977l0 0.865 0.145 21.504 -32.771 0z"/>
   <path class="fil3" d="M49.647 51.914c-0.673,0 -1.286,-0.276 -1.73,-0.72l-0.002 -0.002c-0.443,-0.444 -0.719,-1.056 -0.719,-1.729l0 -24.47c0,-0.673 0.276,-1.286 0.719,-1.73l0.002 -0.002c0.444,-0.443 1.057,-0.719 1.73,-0.719l12.605 0c0.675,0 1.288,0.276 1.732,0.719 0.444,0.444 0.719,1.057 0.719,1.732l0 0.336c0,0.356 0.145,0.679 0.378,0.912l0.002 0.002c0.233,0.232 0.555,0.377 0.911,0.377l14.302 0c0.672,0 1.285,0.276 1.73,0.721 0.445,0.443 0.72,1.056 0.72,1.73l0 0.865 -0.001 0.039 0.144 21.463c0.001,0.261 -0.209,0.473 -0.47,0.474l-0.001 0.002 -32.771 0zm-1.063 -1.389c0.273,0.272 0.649,0.441 1.063,0.441l32.295 0 -0.141 -20.984 -0.002 -0.046 0 -0.865c0,-0.413 -0.169,-0.789 -0.442,-1.061l0 -0.002c-0.271,-0.272 -0.647,-0.44 -1.061,-0.44l-14.302 0c-0.613,0 -1.172,-0.252 -1.578,-0.656l-0.003 -0.003c-0.405,-0.407 -0.657,-0.966 -0.657,-1.58l0 -0.336c0,-0.413 -0.169,-0.789 -0.442,-1.062 -0.273,-0.272 -0.649,-0.441 -1.062,-0.441l-12.605 0c-0.414,0 -0.79,0.168 -1.063,0.44 -0.272,0.273 -0.441,0.649 -0.441,1.063l0 24.47c0,0.414 0.169,0.79 0.441,1.062z"/>
   <path class="fil0" d="M51.637 44.96l0 4.503c0,1.087 -0.89,1.977 -1.978,1.977l3.677 0 8.916 0 18.044 0 4.244 0c0.935,0 1.7,-0.765 1.7,-1.7l0 -18.104c0,-0.935 -0.765,-1.7 -1.7,-1.7l-31.204 0c-0.935,0 -1.699,0.765 -1.699,1.7l0 13.324z"/>
   <path class="fil3" d="M52.11 44.96l0 4.503c0,0.565 -0.194,1.087 -0.519,1.503l32.949 0c0.337,0 0.643,-0.138 0.866,-0.36 0.222,-0.223 0.36,-0.529 0.36,-0.866l0 -18.104c0,-0.337 -0.138,-0.643 -0.36,-0.866 -0.223,-0.222 -0.529,-0.36 -0.866,-0.36l-31.204 0c-0.336,0 -0.643,0.138 -0.865,0.36 -0.223,0.223 -0.361,0.529 -0.361,0.866l0 13.324zm-0.947 4.503l0 -17.827c0,-0.598 0.244,-1.142 0.638,-1.535 0.393,-0.394 0.937,-0.638 1.535,-0.638l31.204 0c0.598,0 1.142,0.244 1.535,0.638 0.394,0.393 0.638,0.937 0.638,1.535l0 18.104c0,0.598 -0.244,1.142 -0.638,1.536 -0.393,0.393 -0.937,0.638 -1.535,0.638l-34.881 0 0 -0.948c0.414,0 0.79,-0.169 1.063,-0.441 0.272,-0.272 0.441,-0.648 0.441,-1.062z"/>
   <path class="fil3" d="M68.938 34.53c1.7,0 3.24,0.689 4.355,1.804 1.114,1.114 1.804,2.654 1.804,4.354 0,1.701 -0.69,3.24 -1.804,4.355 -1.115,1.114 -2.655,1.804 -4.355,1.804 -1.7,0 -3.24,-0.69 -4.354,-1.804 -1.115,-1.115 -1.804,-2.654 -1.804,-4.355 0,-1.7 0.689,-3.24 1.804,-4.354 1.114,-1.115 2.654,-1.804 4.354,-1.804zm3.685 2.473c-0.943,-0.942 -2.246,-1.526 -3.685,-1.526 -1.439,0 -2.742,0.584 -3.685,1.526 -0.942,0.943 -1.526,2.246 -1.526,3.685 0,1.439 0.584,2.742 1.526,3.685 0.943,0.943 2.246,1.526 3.685,1.526 1.439,0 2.742,-0.583 3.685,-1.526 0.943,-0.943 1.526,-2.246 1.526,-3.685 0,-1.439 -0.583,-2.742 -1.526,-3.685z"/>
   <path class="fil3" d="M70.831 40.688l-2.936 -1.927 0 3.854 2.936 -1.927zm-1.015 -1.798l2.131 1.398c0.055,0.036 0.104,0.083 0.142,0.141 0.143,0.219 0.082,0.512 -0.137,0.655l-4.253 2.792c-0.078,0.056 -0.174,0.09 -0.278,0.09 -0.261,0 -0.474,-0.212 -0.474,-0.474l0 -5.608c0.001,-0.089 0.026,-0.179 0.078,-0.259 0.143,-0.218 0.437,-0.28 0.655,-0.137l2.136 1.402z"/>
  </g>
 </g>
</svg>
