<?xml version="1.0" encoding="UTF-8"?>
<!DOCTYPE svg PUBLIC "-//W3C//DTD SVG 1.1//EN" "http://www.w3.org/Graphics/SVG/1.1/DTD/svg11.dtd">
<!-- Creator: CorelDRAW 2018 (64-Bit) -->
<svg xmlns="http://www.w3.org/2000/svg" xml:space="preserve" width="20px" height="20px" version="1.1" style="shape-rendering:geometricPrecision; text-rendering:geometricPrecision; image-rendering:optimizeQuality; fill-rule:evenodd; clip-rule:evenodd"
viewBox="0 0 1.868 1.868"
 xmlns:xlink="http://www.w3.org/1999/xlink">
 <defs>
  <style type="text/css">
   <![CDATA[
    .fil0 {fill:#4680C2}
    .fil1 {fill:white}
   ]]>
  </style>
 </defs>
 <g id="Layer_x0020_1">
  <metadata id="CorelCorpID_0Corel-Layer"/>
  <g id="_2968403401776">
   <path class="fil0" d="M0.648 0l0.573 0c0.523,0 0.647,0.125 0.647,0.648l0 0.573c0,0.523 -0.124,0.647 -0.647,0.647l-0.573 0c-0.523,0 -0.648,-0.124 -0.648,-0.647l0 -0.573c0,-0.523 0.125,-0.648 0.648,-0.648z"/>
   <path class="fil1" d="M1.53 0.644c0.009,-0.029 0,-0.05 -0.041,-0.05l-0.136 0c-0.035,0 -0.051,0.018 -0.059,0.038 0,0 -0.07,0.169 -0.168,0.279 -0.032,0.031 -0.046,0.042 -0.063,0.042 -0.009,0 -0.022,-0.011 -0.022,-0.039l0 -0.27c0,-0.035 -0.01,-0.05 -0.038,-0.05l-0.215 0c-0.021,0 -0.034,0.016 -0.034,0.031 0,0.033 0.049,0.04 0.054,0.133l0 0.2c0,0.044 -0.008,0.052 -0.025,0.052 -0.047,0 -0.159,-0.169 -0.226,-0.363 -0.013,-0.038 -0.026,-0.053 -0.061,-0.053l-0.136 0c-0.039,0 -0.046,0.018 -0.046,0.038 0,0.036 0.046,0.215 0.215,0.452 0.112,0.162 0.271,0.249 0.415,0.249 0.087,0 0.097,-0.019 0.097,-0.053l0 -0.122c0,-0.039 0.009,-0.047 0.036,-0.047 0.02,0 0.055,0.01 0.136,0.088 0.092,0.093 0.107,0.134 0.159,0.134l0.137 0c0.038,0 0.058,-0.019 0.047,-0.058 -0.013,-0.038 -0.057,-0.093 -0.115,-0.159 -0.032,-0.038 -0.08,-0.078 -0.094,-0.098 -0.02,-0.026 -0.014,-0.038 0,-0.061 0,0 0.166,-0.234 0.183,-0.313z"/>
  </g>
 </g>
</svg>
