<?xml version="1.0" encoding="UTF-8"?>
<!DOCTYPE svg PUBLIC "-//W3C//DTD SVG 1.1//EN" "http://www.w3.org/Graphics/SVG/1.1/DTD/svg11.dtd">
<!-- Creator: CorelDRAW 2018 (64-Bit) -->
<svg xmlns="http://www.w3.org/2000/svg" xml:space="preserve" width="40px" height="40px" version="1.1" style="shape-rendering:geometricPrecision; text-rendering:geometricPrecision; image-rendering:optimizeQuality; fill-rule:evenodd; clip-rule:evenodd"
viewBox="0 0 1.359 1.359"
 xmlns:xlink="http://www.w3.org/1999/xlink">
 <defs>
  <style type="text/css">
   <![CDATA[
    .fil0 {fill:none}
    .fil4 {fill:#00F4FF}
    .fil3 {fill:#EAEDF2}
    .fil1 {fill:white}
    .fil2 {fill:gray;fill-rule:nonzero}
   ]]>
  </style>
 </defs>
 <g id="Layer_x0020_1">
  <metadata id="CorelCorpID_0Corel-Layer"/>
  <g id="_1289439091408">
   <rect class="fil0" width="1.359" height="1.359"/>
   <g>
    <path class="fil1" d="M0.18 0.301c0,-0.016 0.013,-0.029 0.029,-0.029l0.791 0c0.016,0 0.029,0.013 0.029,0.029l0 0.68 -0.231 0.231 -0.589 0c-0.016,0 -0.029,-0.013 -0.029,-0.029 0,-0.32 0,-0.562 0,-0.882z"/>
    <path class="fil2" d="M0.163 0.301c0,-0.013 0.006,-0.024 0.014,-0.033 0.008,-0.008 0.02,-0.013 0.032,-0.013l0.791 0c0.013,0 0.024,0.005 0.033,0.013 0.008,0.009 0.013,0.02 0.013,0.033l0 0.68c0,0.005 -0.002,0.01 -0.005,0.013l-0.231 0.23c-0.003,0.003 -0.007,0.005 -0.012,0.005l-0.589 0c-0.012,0 -0.024,-0.005 -0.032,-0.013l-0.001 -0.002c-0.008,-0.008 -0.013,-0.019 -0.013,-0.031l0 -0.882zm0.038 -0.009c-0.002,0.002 -0.004,0.005 -0.004,0.009l0 0.882c0,0.003 0.002,0.006 0.003,0.008l0.001 0.001c0.002,0.002 0.005,0.003 0.008,0.003l0.582 0 0.221 -0.221 0 -0.673c0,-0.004 -0.001,-0.007 -0.003,-0.009 -0.002,-0.002 -0.005,-0.003 -0.009,-0.003l-0.791 0c-0.003,0 -0.006,0.001 -0.008,0.003z"/>
    <path class="fil3" d="M0.079 1.063l0 0c0,-0.022 0.017,-0.039 0.038,-0.039l0.126 0c0.022,0 0.039,0.017 0.039,0.039l0 0c0,0.021 -0.017,0.039 -0.039,0.039l-0.126 0c-0.021,0 -0.038,-0.018 -0.038,-0.039z"/>
    <path class="fil2" d="M0.062 1.063c0,-0.016 0.006,-0.03 0.016,-0.04 0.01,-0.01 0.024,-0.016 0.039,-0.016l0.126 0c0.016,0 0.03,0.006 0.04,0.016 0.01,0.01 0.016,0.024 0.016,0.04 0,0.015 -0.006,0.029 -0.016,0.039l0 0c-0.01,0.01 -0.024,0.017 -0.04,0.017l-0.126 0c-0.015,0 -0.029,-0.007 -0.039,-0.017 -0.01,-0.01 -0.016,-0.024 -0.016,-0.039zm0.033 0c0,0.006 0.003,0.011 0.007,0.015 0.004,0.004 0.009,0.007 0.015,0.007l0.126 0c0.006,0 0.012,-0.003 0.016,-0.007 0.004,-0.004 0.006,-0.009 0.006,-0.015 0,-0.006 -0.002,-0.012 -0.006,-0.016 -0.004,-0.004 -0.01,-0.006 -0.016,-0.006l-0.126 0c-0.006,0 -0.011,0.002 -0.015,0.006 -0.004,0.004 -0.007,0.01 -0.007,0.016z"/>
    <path class="fil3" d="M0.079 0.849l0 0c0,-0.022 0.017,-0.039 0.038,-0.039l0.126 0c0.022,0 0.039,0.017 0.039,0.039l0 0c0,0.021 -0.017,0.039 -0.039,0.039l-0.126 0c-0.021,0 -0.038,-0.018 -0.038,-0.039z"/>
    <path class="fil2" d="M0.062 0.849c0,-0.015 0.006,-0.029 0.016,-0.04 0.01,-0.01 0.024,-0.016 0.039,-0.016l0.126 0c0.016,0 0.03,0.006 0.04,0.016 0.01,0.01 0.016,0.024 0.016,0.04 0,0.015 -0.006,0.029 -0.016,0.039l0 0c-0.01,0.011 -0.024,0.017 -0.04,0.017l-0.126 0c-0.015,0 -0.029,-0.006 -0.039,-0.017 -0.01,-0.01 -0.016,-0.024 -0.016,-0.039zm0.033 0c0,0.006 0.003,0.011 0.007,0.015 0.004,0.004 0.009,0.007 0.015,0.007l0.126 0c0.006,0 0.012,-0.003 0.016,-0.007 0.004,-0.004 0.006,-0.009 0.006,-0.015 0,-0.006 -0.002,-0.012 -0.006,-0.016 -0.004,-0.004 -0.01,-0.006 -0.016,-0.006l-0.126 0c-0.006,0 -0.011,0.002 -0.015,0.006 -0.004,0.004 -0.007,0.01 -0.007,0.016z"/>
    <path class="fil3" d="M0.079 0.635l0 0c0,-0.021 0.017,-0.039 0.038,-0.039l0.126 0c0.022,0 0.039,0.018 0.039,0.039l0 0c0,0.022 -0.017,0.039 -0.039,0.039l-0.126 0c-0.021,0 -0.038,-0.017 -0.038,-0.039z"/>
    <path class="fil2" d="M0.062 0.635c0,-0.015 0.006,-0.029 0.016,-0.039 0.01,-0.011 0.024,-0.017 0.039,-0.017l0.126 0c0.016,0 0.03,0.006 0.04,0.017 0.01,0.01 0.016,0.024 0.016,0.039 0,0.015 -0.006,0.029 -0.016,0.04l0 0c-0.01,0.01 -0.024,0.016 -0.04,0.016l-0.126 0c-0.015,0 -0.029,-0.006 -0.039,-0.016 -0.01,-0.011 -0.016,-0.025 -0.016,-0.04zm0.033 0c0,0.006 0.003,0.012 0.007,0.016 0.004,0.004 0.009,0.006 0.015,0.006l0.126 0c0.006,0 0.012,-0.002 0.016,-0.006 0.004,-0.004 0.006,-0.01 0.006,-0.016 0,-0.006 -0.002,-0.011 -0.006,-0.015 -0.004,-0.004 -0.01,-0.007 -0.016,-0.007l-0.126 0c-0.006,0 -0.011,0.003 -0.015,0.007 -0.004,0.004 -0.007,0.009 -0.007,0.015z"/>
    <path class="fil3" d="M0.079 0.421l0 0c0,-0.021 0.017,-0.039 0.038,-0.039l0.126 0c0.022,0 0.039,0.018 0.039,0.039l0 0c0,0.022 -0.017,0.039 -0.039,0.039l-0.126 0c-0.021,0 -0.038,-0.017 -0.038,-0.039z"/>
    <path class="fil2" d="M0.062 0.421c0,-0.015 0.006,-0.029 0.016,-0.039l0.001 -0.001c0.01,-0.01 0.024,-0.016 0.038,-0.016l0.126 0c0.016,0 0.03,0.007 0.04,0.017 0.01,0.01 0.016,0.024 0.016,0.039 0,0.016 -0.006,0.03 -0.016,0.04l0 0c-0.01,0.01 -0.024,0.016 -0.04,0.016l-0.126 0c-0.015,0 -0.029,-0.006 -0.039,-0.016 -0.01,-0.01 -0.016,-0.024 -0.016,-0.04zm0.033 0c0,0.006 0.003,0.012 0.007,0.016 0.004,0.004 0.009,0.006 0.015,0.006l0.126 0c0.006,0 0.012,-0.002 0.016,-0.006 0.004,-0.004 0.006,-0.01 0.006,-0.016 0,-0.006 -0.002,-0.011 -0.006,-0.015 -0.004,-0.004 -0.01,-0.007 -0.016,-0.007l-0.126 0c-0.005,0 -0.01,0.003 -0.014,0.006l-0.001 0.001c-0.004,0.004 -0.007,0.009 -0.007,0.015z"/>
    <path class="fil3" d="M1.029 0.981l-0.211 0c-0.011,0 -0.02,0.009 -0.02,0.02l0 0.211 0.231 -0.231z"/>
    <path class="fil2" d="M0.988 0.998l-0.17 0c-0.001,0 -0.001,0.001 -0.002,0.001 0,0.001 -0.001,0.001 -0.001,0.002l0 0.17 0.173 -0.173zm-0.17 -0.034l0.211 0c0.005,0 0.009,0.002 0.012,0.005 0.007,0.007 0.007,0.018 0,0.024l-0.23 0.231c-0.003,0.003 -0.008,0.005 -0.013,0.005 -0.009,0 -0.017,-0.007 -0.017,-0.017l0 -0.211c0,-0.01 0.005,-0.019 0.011,-0.026 0.007,-0.006 0.016,-0.011 0.026,-0.011z"/>
    <path class="fil4" d="M0.491 0.754c0.012,-0.003 0.035,0.006 0.051,0.01 0.039,0.009 0.087,0.009 0.126,0 0.015,-0.004 0.039,-0.013 0.051,-0.01 0.011,0.003 0.039,0.023 0.041,0.053l0.008 0.091c0.001,0.007 -0.006,0.014 -0.014,0.014l-0.298 0c-0.008,0 -0.015,-0.007 -0.014,-0.014l0.007 -0.091c0.003,-0.03 0.03,-0.05 0.042,-0.053z"/>
    <path class="fil2" d="M0.487 0.738c0.013,-0.004 0.031,0.001 0.047,0.006l0.012 0.003c0.018,0.004 0.038,0.007 0.059,0.007 0.02,0 0.041,-0.003 0.059,-0.007l0.012 -0.003c0.015,-0.005 0.033,-0.01 0.047,-0.006 0.009,0.002 0.026,0.012 0.038,0.027 0.008,0.011 0.015,0.024 0.016,0.041l0.008 0.09 0 0.003c0,0.008 -0.003,0.015 -0.009,0.021 -0.005,0.005 -0.012,0.008 -0.019,0.009 -0.099,0.003 -0.202,0 -0.301,0l-0.003 0c-0.007,-0.001 -0.014,-0.004 -0.019,-0.009 -0.006,-0.006 -0.009,-0.013 -0.009,-0.021 0.001,-0.031 0.005,-0.062 0.008,-0.093 0.001,-0.017 0.008,-0.03 0.016,-0.041 0.012,-0.015 0.028,-0.025 0.038,-0.027zm0.038 0.038c-0.012,-0.003 -0.025,-0.007 -0.03,-0.005 -0.004,0.001 -0.012,0.006 -0.019,0.015 -0.005,0.006 -0.009,0.014 -0.01,0.023l-0.007 0.086 0.292 0 -0.008 -0.086c0,-0.009 -0.004,-0.017 -0.009,-0.023 -0.007,-0.009 -0.015,-0.014 -0.02,-0.015 -0.004,-0.002 -0.017,0.002 -0.029,0.005 -0.004,0.002 -0.008,0.003 -0.013,0.004 -0.021,0.005 -0.044,0.008 -0.067,0.008 -0.023,0 -0.046,-0.003 -0.067,-0.008 -0.005,-0.001 -0.009,-0.002 -0.013,-0.004z"/>
    <path class="fil4" d="M0.604 0.504c0.061,0 0.11,0.049 0.11,0.11 0,0.06 -0.049,0.109 -0.11,0.109 -0.06,0 -0.109,-0.049 -0.109,-0.109 0,-0.061 0.049,-0.11 0.109,-0.11z"/>
    <path class="fil2" d="M0.604 0.487c0.035,0 0.067,0.014 0.09,0.037 0.023,0.023 0.037,0.055 0.037,0.09 0,0.035 -0.014,0.066 -0.037,0.089 -0.023,0.023 -0.055,0.037 -0.09,0.037 -0.035,0 -0.066,-0.014 -0.089,-0.037 -0.023,-0.023 -0.037,-0.054 -0.037,-0.089 0,-0.035 0.014,-0.067 0.037,-0.09 0.023,-0.023 0.054,-0.037 0.089,-0.037zm0.066 0.061c-0.017,-0.017 -0.04,-0.027 -0.066,-0.027 -0.025,0 -0.048,0.01 -0.065,0.027 -0.017,0.017 -0.027,0.04 -0.027,0.066 0,0.025 0.01,0.048 0.027,0.065 0.017,0.017 0.04,0.027 0.065,0.027 0.026,0 0.049,-0.01 0.066,-0.027 0.016,-0.017 0.027,-0.04 0.027,-0.065 0,-0.026 -0.011,-0.049 -0.027,-0.066z"/>
   </g>
  </g>
 </g>
</svg>
