<?xml version="1.0" encoding="UTF-8"?>
<!DOCTYPE svg PUBLIC "-//W3C//DTD SVG 1.0//EN" "http://www.w3.org/TR/2001/REC-SVG-20010904/DTD/svg10.dtd">
<!-- Creator: CorelDRAW 2018 (64-Bit) -->
<svg xmlns="http://www.w3.org/2000/svg" xml:space="preserve" width="0.435772in" height="0.38889in" version="1.0" style="shape-rendering:geometricPrecision; text-rendering:geometricPrecision; image-rendering:optimizeQuality; fill-rule:evenodd; clip-rule:evenodd"
viewBox="0 0 9.21 8.22"
 xmlns:xlink="http://www.w3.org/1999/xlink">
 <defs>
  <style type="text/css">
   <![CDATA[
    .str0 {stroke:#00F4FF;stroke-width:0.29;stroke-linecap:round;stroke-linejoin:round;stroke-miterlimit:2.61313}
    .fil1 {fill:none}
    .fil0 {fill:#052337}
   ]]>
  </style>
 </defs>
 <g id="Layer_x0020_1">
  <metadata id="CorelCorpID_0Corel-Layer"/>
  <g id="_1924577563008">
   <path class="fil0 str0" d="M8.9 3.18l0 4.12c0,0.42 -0.34,0.76 -0.76,0.76l-7.07 0c-0.42,0 -0.76,-0.34 -0.76,-0.76l0 -4.15 8.59 0.02z"/>
   <path class="fil0 str0" d="M5.55 4.62l0 1.21 -1.89 0 0 -1.21 1.89 0z"/>
   <path class="fil0 str0" d="M0.15 3.24l0 -0.91c0,-0.42 0.36,-0.76 0.79,-0.76l7.33 0c0.44,0 0.79,0.34 0.79,0.76l-0 0.93c-1.32,0.49 -2.26,0.85 -3.49,1.31 -0.31,0.12 -0.53,0.24 -0.97,0.24 -0.43,0 -0.65,-0.12 -0.97,-0.24 -1.23,-0.46 -2.17,-0.84 -3.49,-1.34z"/>
   <path class="fil1 str0" d="M0.74 2.79l0 -0.19c0,-0.26 0.23,-0.48 0.52,-0.48l0.76 0"/>
   <path class="fil1 str0" d="M8.28 6.11l0 0.9c0,0.3 -0.25,0.55 -0.55,0.55l-1.1 0"/>
   <path class="fil1 str0" d="M2.73 1.07c0,-0.51 0.41,-0.92 0.92,-0.92l1.92 0c0.51,0 0.92,0.41 0.92,0.92"/>
  </g>
 </g>
</svg>
