<?xml version="1.0" encoding="UTF-8"?>
<!DOCTYPE svg PUBLIC "-//W3C//DTD SVG 1.0//EN" "http://www.w3.org/TR/2001/REC-SVG-20010904/DTD/svg10.dtd">
<!-- Creator: CorelDRAW 2018 (64-Bit) -->
<svg xmlns="http://www.w3.org/2000/svg" xml:space="preserve" width="0.208339in" height="0.208339in" version="1.0" style="shape-rendering:geometricPrecision; text-rendering:geometricPrecision; image-rendering:optimizeQuality; fill-rule:evenodd; clip-rule:evenodd"
viewBox="0 0 13.77 13.77"
 xmlns:xlink="http://www.w3.org/1999/xlink">
 <defs>
  <style type="text/css">
   <![CDATA[
    .str1 {stroke:gray;stroke-width:0.92;stroke-linecap:round;stroke-miterlimit:2.61313}
    .str0 {stroke:gray;stroke-width:0.92;stroke-linecap:round;stroke-linejoin:round;stroke-miterlimit:2.61313}
    .fil0 {fill:none}
   ]]>
  </style>
 </defs>
 <g id="Layer_x0020_1">
  <metadata id="CorelCorpID_0Corel-Layer"/>
  <g id="_1924574916880">
   <path class="fil0 str0" d="M6.98 13.31l5.82 0c0.28,0 0.51,-0.23 0.51,-0.51l0 -11.82c0,-0.28 -0.23,-0.51 -0.51,-0.51l-11.82 0c-0.28,0 -0.51,0.23 -0.51,0.51l0 5.82"/>
   <path class="fil0 str0" d="M0.97 8.72c-0.28,0 -0.51,0.23 -0.51,0.51l0 3.56c0,0.28 0.23,0.51 0.51,0.51l3.56 0c0.28,0 0.51,-0.23 0.51,-0.51m-0.51 0.51c0.28,0 0.51,-0.23 0.51,-0.51l0 -3.56c0,-0.28 -0.23,-0.51 -0.51,-0.51l-3.56 0c-0.28,0 -0.51,0.23 -0.51,0.51"/>
   <path class="fil0 str1" d="M6.34 7.42l4.05 -4.05"/>
   <path class="fil0 str0" d="M6.82 3.21l3.2 0c0.29,0 0.53,0.24 0.53,0.53l0 3.2"/>
  </g>
 </g>
</svg>
