<?xml version="1.0" encoding="UTF-8"?>
<!DOCTYPE svg PUBLIC "-//W3C//DTD SVG 1.1//EN" "http://www.w3.org/Graphics/SVG/1.1/DTD/svg11.dtd">
<!-- Creator: CorelDRAW 2018 (64-Bit) -->
<svg xmlns="http://www.w3.org/2000/svg" xml:space="preserve" width="100px" height="100px" version="1.1" style="shape-rendering:geometricPrecision; text-rendering:geometricPrecision; image-rendering:optimizeQuality; fill-rule:evenodd; clip-rule:evenodd"
viewBox="0 0 5.516 5.516"
 xmlns:xlink="http://www.w3.org/1999/xlink">
 <defs>
  <style type="text/css">
   <![CDATA[
    .fil4 {fill:#00F4FF}
    .fil0 {fill:#FC9F9F}
    .fil2 {fill:white}
    .fil3 {fill:gray;fill-rule:nonzero}
    .fil1 {fill:white;fill-rule:nonzero}
   ]]>
  </style>
 </defs>
 <g id="Layer_x0020_1">
  <metadata id="CorelCorpID_0Corel-Layer"/>
  <g id="_2117787196448">
   <path class="fil0" d="M2.196 0.015l0.562 0.185 0.562 -0.185c0.128,-0.042 0.263,0.005 0.339,0.107l0.377 0.421 0.58 0.121c0.124,0.026 0.215,0.124 0.237,0.242l0.12 0.574 0.441 0.394c0.093,0.083 0.122,0.211 0.086,0.322l0.001 0 -0.185 0.562 0.185 0.562c0.042,0.128 -0.005,0.263 -0.107,0.339l-0.421 0.377 -0.121 0.58c-0.026,0.124 -0.124,0.215 -0.242,0.237l-0.574 0.12 -0.394 0.441c-0.083,0.093 -0.21,0.122 -0.322,0.086l0 0.001 -0.562 -0.185 -0.562 0.185c-0.128,0.042 -0.263,-0.005 -0.339,-0.107l-0.377 -0.421 -0.58 -0.121c-0.124,-0.026 -0.215,-0.124 -0.237,-0.242l-0.12 -0.574 -0.441 -0.394c-0.092,-0.083 -0.122,-0.21 -0.086,-0.322l-0.001 0 0.185 -0.562 -0.185 -0.562c-0.042,-0.128 0.005,-0.263 0.107,-0.339l0.421 -0.377 0.121 -0.58c0.026,-0.124 0.124,-0.215 0.242,-0.237l0.574 -0.12 0.394 -0.441c0.083,-0.092 0.211,-0.122 0.322,-0.086l0 -0.001z"/>
   <path class="fil1" d="M2.758 0.496c0.625,0 1.19,0.254 1.599,0.663 0.409,0.409 0.663,0.975 0.663,1.599 0,0.625 -0.254,1.19 -0.663,1.599 -0.409,0.409 -0.974,0.663 -1.599,0.663 -0.624,0 -1.19,-0.254 -1.599,-0.663 -0.409,-0.409 -0.663,-0.974 -0.663,-1.599 0,-0.624 0.254,-1.19 0.663,-1.599 0.409,-0.409 0.975,-0.663 1.599,-0.663zm1.521 0.741c-0.389,-0.389 -0.927,-0.63 -1.521,-0.63 -0.594,0 -1.132,0.241 -1.521,0.63 -0.389,0.389 -0.63,0.927 -0.63,1.521 0,0.594 0.241,1.132 0.63,1.521 0.389,0.389 0.927,0.63 1.521,0.63 0.594,0 1.132,-0.241 1.521,-0.63 0.389,-0.389 0.63,-0.927 0.63,-1.521 0,-0.594 -0.241,-1.132 -0.63,-1.521z"/>
   <path class="fil2" d="M2.066 2.88c0.072,-0.019 0.215,0.035 0.309,0.057 0.239,0.057 0.527,0.057 0.766,0 0.094,-0.022 0.237,-0.076 0.309,-0.057 0.073,0.019 0.238,0.137 0.254,0.323l0.048 0.551c0.004,0.047 -0.039,0.086 -0.086,0.086l-1.816 0c-0.047,0 -0.09,-0.039 -0.086,-0.086l0.048 -0.551c0.016,-0.186 0.181,-0.304 0.254,-0.323z"/>
   <path class="fil3" d="M2.059 2.854c0.062,-0.017 0.16,0.011 0.247,0.036 0.027,0.008 0.054,0.015 0.075,0.02 0.117,0.028 0.247,0.042 0.377,0.042 0.13,0 0.26,-0.014 0.377,-0.042 0.021,-0.005 0.048,-0.012 0.075,-0.02 0.087,-0.025 0.185,-0.053 0.247,-0.036 0.047,0.012 0.128,0.06 0.19,0.139 0.043,0.055 0.077,0.125 0.084,0.207 0.016,0.183 0.04,0.379 0.049,0.56 0,0.029 -0.013,0.055 -0.032,0.074 -0.019,0.019 -0.045,0.031 -0.072,0.033l-0.01 0.001 -1.816 0 -0.01 -0.001c-0.027,-0.002 -0.053,-0.014 -0.072,-0.033 -0.019,-0.019 -0.032,-0.045 -0.032,-0.074 0,-0.002 0.001,-0.004 0.001,-0.008l0.048 -0.552c0.007,-0.082 0.041,-0.152 0.084,-0.207 0.062,-0.079 0.143,-0.127 0.19,-0.139zm0.232 0.089c-0.08,-0.023 -0.171,-0.049 -0.218,-0.036 -0.039,0.01 -0.107,0.052 -0.16,0.12 -0.038,0.047 -0.067,0.107 -0.073,0.178l-0.048 0.552 0 0.003c-0.001,0.014 0.005,0.026 0.015,0.035 0.01,0.01 0.023,0.016 0.038,0.017l0.005 0.001 1.816 0 0.005 -0.001c0.015,-0.001 0.028,-0.007 0.038,-0.017 0.01,-0.009 0.016,-0.021 0.016,-0.035 -0.002,-0.166 -0.034,-0.384 -0.049,-0.555 -0.006,-0.071 -0.035,-0.131 -0.073,-0.178 -0.053,-0.068 -0.121,-0.11 -0.16,-0.12 -0.047,-0.013 -0.138,0.013 -0.218,0.036 -0.026,0.007 -0.052,0.015 -0.077,0.021 -0.122,0.029 -0.256,0.043 -0.39,0.043 -0.134,0 -0.268,-0.014 -0.39,-0.043 -0.025,-0.006 -0.051,-0.014 -0.077,-0.021z"/>
   <path class="fil2" d="M2.755 1.358c0.368,0 0.666,0.298 0.666,0.667 0,0.368 -0.298,0.666 -0.666,0.666 -0.368,0 -0.667,-0.298 -0.667,-0.666 0,-0.369 0.299,-0.667 0.667,-0.667z"/>
   <path class="fil3" d="M2.755 1.33c0.191,0 0.365,0.078 0.491,0.204 0.125,0.125 0.203,0.299 0.203,0.491 0,0.191 -0.078,0.365 -0.203,0.491 -0.126,0.125 -0.3,0.203 -0.491,0.203 -0.192,0 -0.366,-0.078 -0.491,-0.203 -0.126,-0.126 -0.204,-0.3 -0.204,-0.491 0,-0.192 0.078,-0.366 0.204,-0.491 0.125,-0.126 0.299,-0.204 0.491,-0.204zm0.452 0.243c-0.116,-0.116 -0.276,-0.187 -0.452,-0.187 -0.177,0 -0.337,0.071 -0.452,0.187 -0.116,0.115 -0.187,0.275 -0.187,0.452 0,0.176 0.071,0.336 0.187,0.452 0.115,0.115 0.275,0.187 0.452,0.187 0.176,0 0.336,-0.072 0.452,-0.187 0.115,-0.116 0.187,-0.276 0.187,-0.452 0,-0.177 -0.072,-0.337 -0.187,-0.452z"/>
   <path class="fil4" d="M3.652 3.129c0.282,0 0.511,0.229 0.511,0.511 0,0.282 -0.229,0.511 -0.511,0.511 -0.283,0 -0.512,-0.229 -0.512,-0.511 0,-0.282 0.229,-0.511 0.512,-0.511z"/>
   <path class="fil3" d="M3.652 3.101c0.149,0 0.283,0.061 0.381,0.158 0.097,0.098 0.158,0.232 0.158,0.381 0,0.149 -0.061,0.284 -0.158,0.381 -0.098,0.098 -0.232,0.158 -0.381,0.158 -0.149,0 -0.284,-0.06 -0.381,-0.158 -0.098,-0.097 -0.158,-0.232 -0.158,-0.381 0,-0.149 0.06,-0.283 0.158,-0.381 0.097,-0.097 0.232,-0.158 0.381,-0.158zm0.342 0.197c-0.088,-0.088 -0.209,-0.142 -0.342,-0.142 -0.134,0 -0.255,0.055 -0.342,0.142 -0.088,0.088 -0.142,0.208 -0.142,0.342 0,0.134 0.054,0.255 0.142,0.342 0.087,0.088 0.208,0.142 0.342,0.142 0.133,0 0.254,-0.054 0.342,-0.142 0.087,-0.087 0.141,-0.208 0.141,-0.342 0,-0.134 -0.054,-0.254 -0.141,-0.342z"/>
   <polygon class="fil3" points="3.407,3.542 3.61,3.745 3.936,3.419 4.014,3.497 3.61,3.901 3.329,3.62 "/>
  </g>
 </g>
</svg>
