<?xml version="1.0" encoding="UTF-8"?>
<!DOCTYPE svg PUBLIC "-//W3C//DTD SVG 1.1//EN" "http://www.w3.org/Graphics/SVG/1.1/DTD/svg11.dtd">
<!-- Creator: CorelDRAW 2018 (64-Bit) -->
<svg xmlns="http://www.w3.org/2000/svg" xml:space="preserve" width="100px" height="100px" version="1.1" style="shape-rendering:geometricPrecision; text-rendering:geometricPrecision; image-rendering:optimizeQuality; fill-rule:evenodd; clip-rule:evenodd"
viewBox="0 0 7.366 7.366"
 xmlns:xlink="http://www.w3.org/1999/xlink">
 <defs>
  <style type="text/css">
   <![CDATA[
    .fil5 {fill:#00F4FF}
    .fil2 {fill:#EAEDF2}
    .fil0 {fill:#FC9F9F}
    .fil4 {fill:white}
    .fil3 {fill:gray;fill-rule:nonzero}
    .fil6 {fill:gray;fill-rule:nonzero}
    .fil1 {fill:white;fill-rule:nonzero}
   ]]>
  </style>
 </defs>
 <g id="Layer_x0020_1">
  <metadata id="CorelCorpID_0Corel-Layer"/>
  <g id="_2117473469488">
   <path class="fil0" d="M2.932 0.021l0.751 0.247 0.751 -0.247c0.17,-0.057 0.351,0.006 0.452,0.142l0.503 0.563 0.775 0.161c0.166,0.035 0.287,0.166 0.316,0.322l0.16 0.768 0.589 0.526c0.124,0.111 0.164,0.281 0.115,0.429l0.001 0 -0.247 0.751 0.247 0.751c0.056,0.17 -0.006,0.351 -0.142,0.452l-0.563 0.503 -0.161 0.775c-0.035,0.166 -0.166,0.287 -0.322,0.316l-0.768 0.16 -0.526 0.589c-0.111,0.124 -0.281,0.164 -0.429,0.115l0 0.001 -0.751 -0.247 -0.751 0.247c-0.17,0.056 -0.351,-0.006 -0.452,-0.142l-0.503 -0.563 -0.775 -0.161c-0.166,-0.035 -0.287,-0.166 -0.316,-0.322l-0.16 -0.768 -0.589 -0.526c-0.124,-0.111 -0.164,-0.281 -0.115,-0.429l-0.001 0 0.247 -0.751 -0.247 -0.751c-0.057,-0.17 0.006,-0.351 0.142,-0.452l0.563 -0.503 0.161 -0.775c0.035,-0.166 0.166,-0.287 0.322,-0.316l0.768 -0.16 0.526 -0.589c0.111,-0.124 0.281,-0.164 0.429,-0.115l0 -0.001z"/>
   <path class="fil1" d="M3.683 0.663c0.834,0 1.589,0.338 2.135,0.884 0.547,0.547 0.885,1.302 0.885,2.136 0,0.834 -0.338,1.589 -0.885,2.135 -0.546,0.547 -1.301,0.885 -2.135,0.885 -0.834,0 -1.589,-0.338 -2.136,-0.885 -0.546,-0.546 -0.884,-1.301 -0.884,-2.135 0,-0.834 0.338,-1.589 0.884,-2.136 0.547,-0.546 1.302,-0.884 2.136,-0.884zm2.031 0.989c-0.52,-0.52 -1.238,-0.842 -2.031,-0.842 -0.793,0 -1.512,0.322 -2.031,0.842 -0.52,0.519 -0.842,1.238 -0.842,2.031 0,0.793 0.322,1.511 0.842,2.031 0.519,0.52 1.238,0.842 2.031,0.842 0.793,0 1.511,-0.322 2.031,-0.842 0.52,-0.52 0.842,-1.238 0.842,-2.031 0,-0.793 -0.322,-1.512 -0.842,-2.031z"/>
   <path class="fil2" d="M3.369 3.106l1.814 0c0.199,0 0.361,0.163 0.361,0.361l0 1.014c0,0.198 -0.162,0.361 -0.361,0.361l0 0.461 -0.394 -0.461 -1.42 0c-0.199,0 -0.361,-0.163 -0.361,-0.361l0 -1.014c0,-0.198 0.162,-0.361 0.361,-0.361z"/>
   <path class="fil3" d="M3.369 3.07l1.814 0c0.11,0 0.209,0.044 0.281,0.116 0.072,0.072 0.117,0.172 0.117,0.281l0 1.014c0,0.109 -0.045,0.208 -0.117,0.281 -0.064,0.063 -0.149,0.106 -0.244,0.115l0 0.426c0,0.021 -0.016,0.037 -0.037,0.037 -0.012,0 -0.023,-0.006 -0.03,-0.015l-0.381 -0.447 -1.403 0c-0.11,0 -0.209,-0.044 -0.281,-0.116 -0.072,-0.073 -0.117,-0.172 -0.117,-0.281l0 -1.014c0,-0.109 0.045,-0.209 0.117,-0.281 0.072,-0.072 0.171,-0.116 0.281,-0.116zm1.814 0.073l-1.814 0c-0.089,0 -0.171,0.037 -0.229,0.095 -0.059,0.059 -0.096,0.14 -0.096,0.229l0 1.014c0,0.089 0.037,0.17 0.096,0.228 0.058,0.059 0.14,0.096 0.229,0.096l1.42 0c0.01,0 0.02,0.004 0.028,0.013l0.329 0.386 0 -0.362c0,-0.021 0.017,-0.037 0.037,-0.037 0.089,0 0.17,-0.037 0.229,-0.096 0.059,-0.058 0.095,-0.139 0.095,-0.228l0 -1.014c0,-0.089 -0.036,-0.17 -0.095,-0.229 -0.059,-0.058 -0.14,-0.095 -0.229,-0.095z"/>
   <path class="fil4" d="M4.393 2.357l-2.022 0c-0.221,0 -0.402,0.181 -0.402,0.402l0 1.129c0,0.222 0.181,0.403 0.402,0.403l0 0.514 0.44 -0.514 1.582 0c0.222,0 0.403,-0.181 0.403,-0.403l0 -1.129c0,-0.221 -0.181,-0.402 -0.403,-0.402z"/>
   <path class="fil3" d="M4.393 2.394l-2.022 0c-0.1,0 -0.192,0.041 -0.258,0.107 -0.066,0.067 -0.107,0.158 -0.107,0.258l0 1.129c0,0.101 0.041,0.192 0.107,0.258 0.067,0.067 0.158,0.108 0.258,0.108 0.021,0 0.037,0.016 0.037,0.037l0 0.415 0.375 -0.439c0.007,-0.009 0.017,-0.013 0.028,-0.013l1.582 0c0.101,0 0.192,-0.041 0.258,-0.108 0.067,-0.066 0.108,-0.157 0.108,-0.258l0 -1.129c0,-0.1 -0.041,-0.191 -0.108,-0.258l-0.001 -0.002c-0.066,-0.065 -0.157,-0.105 -0.257,-0.105zm-2.022 -0.074l2.022 0c0.12,0 0.229,0.049 0.308,0.127l0.003 0.002c0.079,0.08 0.129,0.19 0.129,0.31l0 1.129c0,0.121 -0.05,0.231 -0.129,0.31 -0.08,0.08 -0.19,0.129 -0.311,0.129l-1.565 0 -0.427 0.5c-0.007,0.009 -0.017,0.015 -0.03,0.015 -0.02,0 -0.036,-0.016 -0.036,-0.037l0 -0.479c-0.107,-0.009 -0.202,-0.056 -0.274,-0.128 -0.079,-0.079 -0.129,-0.189 -0.129,-0.31l0 -1.129c0,-0.12 0.05,-0.23 0.129,-0.31 0.08,-0.079 0.19,-0.129 0.31,-0.129z"/>
   <path class="fil5" d="M2.701 3.154c0.094,0 0.17,0.076 0.17,0.17 0,0.094 -0.076,0.17 -0.17,0.17 -0.094,0 -0.17,-0.076 -0.17,-0.17 0,-0.094 0.076,-0.17 0.17,-0.17z"/>
   <path class="fil6" d="M2.701 3.117c0.057,0 0.109,0.023 0.146,0.061l0.002 0.002c0.037,0.037 0.059,0.088 0.059,0.144 0,0.057 -0.023,0.109 -0.061,0.146 -0.037,0.038 -0.089,0.061 -0.146,0.061 -0.057,0 -0.109,-0.023 -0.146,-0.061 -0.038,-0.037 -0.061,-0.089 -0.061,-0.146 0,-0.057 0.023,-0.109 0.061,-0.146 0.037,-0.038 0.089,-0.061 0.146,-0.061zm0.094 0.113c-0.024,-0.024 -0.057,-0.039 -0.094,-0.039 -0.037,0 -0.07,0.015 -0.094,0.039 -0.024,0.024 -0.039,0.057 -0.039,0.094 0,0.037 0.015,0.07 0.039,0.094 0.024,0.024 0.057,0.039 0.094,0.039 0.037,0 0.07,-0.015 0.094,-0.039 0.024,-0.024 0.039,-0.057 0.039,-0.094 0,-0.036 -0.014,-0.069 -0.037,-0.093l-0.002 -0.001z"/>
   <path class="fil5" d="M3.382 3.154c0.094,0 0.17,0.076 0.17,0.17 0,0.094 -0.076,0.17 -0.17,0.17 -0.094,0 -0.17,-0.076 -0.17,-0.17 0,-0.094 0.076,-0.17 0.17,-0.17z"/>
   <path class="fil6" d="M3.382 3.117c0.057,0 0.109,0.023 0.147,0.061l0.002 0.002c0.036,0.037 0.058,0.088 0.058,0.144 0,0.057 -0.023,0.109 -0.06,0.146 -0.038,0.038 -0.09,0.061 -0.147,0.061 -0.057,0 -0.108,-0.023 -0.146,-0.061 -0.037,-0.037 -0.061,-0.089 -0.061,-0.146 0,-0.057 0.024,-0.109 0.061,-0.146 0.038,-0.038 0.089,-0.061 0.146,-0.061zm0.095 0.113c-0.025,-0.024 -0.058,-0.039 -0.095,-0.039 -0.036,0 -0.07,0.015 -0.094,0.039 -0.024,0.024 -0.039,0.057 -0.039,0.094 0,0.037 0.015,0.07 0.039,0.094 0.024,0.024 0.058,0.039 0.094,0.039 0.037,0 0.07,-0.015 0.095,-0.039 0.024,-0.024 0.039,-0.057 0.039,-0.094 0,-0.036 -0.015,-0.069 -0.038,-0.093l-0.001 -0.001z"/>
   <path class="fil5" d="M4.064 3.154c0.093,0 0.17,0.076 0.17,0.17 0,0.094 -0.077,0.17 -0.17,0.17 -0.094,0 -0.17,-0.076 -0.17,-0.17 0,-0.094 0.076,-0.17 0.17,-0.17z"/>
   <path class="fil6" d="M4.064 3.117c0.056,0 0.108,0.023 0.146,0.061 0.037,0.037 0.06,0.089 0.06,0.146 0,0.057 -0.023,0.108 -0.06,0.146l0 0c-0.038,0.038 -0.09,0.061 -0.146,0.061 -0.058,0 -0.109,-0.023 -0.147,-0.061 -0.037,-0.037 -0.06,-0.089 -0.06,-0.146 0,-0.057 0.023,-0.109 0.06,-0.146 0.038,-0.038 0.089,-0.061 0.147,-0.061zm0.094 0.113c-0.024,-0.024 -0.058,-0.039 -0.094,-0.039 -0.037,0 -0.071,0.015 -0.095,0.039 -0.024,0.024 -0.039,0.057 -0.039,0.094 0,0.037 0.015,0.07 0.039,0.094 0.024,0.024 0.058,0.039 0.095,0.039 0.036,0 0.07,-0.015 0.094,-0.039 0.024,-0.024 0.039,-0.057 0.039,-0.094 0,-0.037 -0.015,-0.07 -0.039,-0.094z"/>
  </g>
 </g>
</svg>
