<?xml version="1.0" encoding="UTF-8"?>
<!DOCTYPE svg PUBLIC "-//W3C//DTD SVG 1.1//EN" "http://www.w3.org/Graphics/SVG/1.1/DTD/svg11.dtd">
<!-- Creator: CorelDRAW 2018 (64-Bit) -->
<svg xmlns="http://www.w3.org/2000/svg" xml:space="preserve" width="88px" height="100px" version="1.1" style="shape-rendering:geometricPrecision; text-rendering:geometricPrecision; image-rendering:optimizeQuality; fill-rule:evenodd; clip-rule:evenodd"
viewBox="0 0 8.719 9.899"
 xmlns:xlink="http://www.w3.org/1999/xlink">
 <defs>
  <style type="text/css">
   <![CDATA[
    .fil4 {fill:#00F4FF}
    .fil3 {fill:#EAEDF2}
    .fil0 {fill:#FFE552}
    .fil1 {fill:white}
    .fil2 {fill:gray;fill-rule:nonzero}
   ]]>
  </style>
 </defs>
 <g id="Layer_x0020_1">
  <metadata id="CorelCorpID_0Corel-Layer"/>
  <g id="_2082071144944">
   <path class="fil0" d="M4.63 0.074l3.822 2.207c0.169,0.098 0.264,0.275 0.265,0.458l0.002 0 0 4.421c0,0.215 -0.127,0.399 -0.31,0.483l-3.786 2.186c-0.172,0.098 -0.375,0.09 -0.534,-0.004l-3.822 -2.207c-0.169,-0.097 -0.265,-0.275 -0.265,-0.458l-0.002 0 0 -4.421c0,-0.214 0.127,-0.399 0.31,-0.483l3.786 -2.186c0.172,-0.098 0.375,-0.09 0.534,0.004z"/>
   <path class="fil1" d="M4.53 7.013l-2.281 0c-0.05,0 -0.092,-0.041 -0.092,-0.092 0,-1.468 0,-2.936 0,-4.404 0,-0.05 0.041,-0.092 0.092,-0.092l2.456 0 1.039 1.039 0 2.287 -1.214 1.262z"/>
   <path class="fil2" d="M4.53 6.963c0.027,0 0.049,0.023 0.049,0.05 0,0.027 -0.022,0.049 -0.049,0.049l-2.281 0c-0.039,0 -0.074,-0.016 -0.1,-0.041l-0.003 -0.004c-0.024,-0.025 -0.038,-0.059 -0.038,-0.096l0 -4.404c0,-0.039 0.016,-0.074 0.041,-0.1 0.026,-0.025 0.061,-0.041 0.1,-0.041l2.456 0c0.014,0 0.027,0.006 0.036,0.015l1.038 1.038c0.009,0.009 0.014,0.022 0.014,0.035l0 1.508c0,0.027 -0.022,0.049 -0.049,0.049 -0.028,0 -0.05,-0.022 -0.05,-0.049l0 -1.488 -1.009 -1.009 -2.436 0c-0.012,0 -0.022,0.005 -0.03,0.012 -0.008,0.008 -0.012,0.018 -0.012,0.03l0 4.404c0,0.011 0.004,0.021 0.01,0.028l0.002 0.002c0.008,0.008 0.018,0.012 0.03,0.012l2.281 0z"/>
   <path class="fil3" d="M5.744 3.464l-0.95 0c-0.049,0 -0.089,-0.04 -0.089,-0.089l0 -0.95 1.039 1.039z"/>
   <path class="fil2" d="M5.744 3.513l-0.95 0c-0.038,0 -0.073,-0.015 -0.098,-0.04l-0.003 -0.004c-0.023,-0.024 -0.037,-0.058 -0.037,-0.094l0 -0.95c0,-0.027 0.022,-0.049 0.049,-0.049 0.014,0 0.027,0.006 0.036,0.015l1.038 1.038c0.019,0.019 0.019,0.05 0,0.07 -0.01,0.009 -0.023,0.014 -0.035,0.014zm-0.95 -0.099l0.83 0 -0.869 -0.869 0 0.83c0,0.01 0.003,0.019 0.009,0.026l0.002 0.002c0.007,0.007 0.017,0.011 0.028,0.011z"/>
   <path class="fil4" d="M4.745 5.637l1.997 0c0.119,0 0.216,0.097 0.216,0.216l0 1.405c0,0.119 -0.097,0.216 -0.216,0.216l-1.997 0c-0.118,0 -0.215,-0.097 -0.215,-0.216l0 -1.405c0,-0.119 0.097,-0.216 0.215,-0.216z"/>
   <path class="fil2" d="M4.745 5.588l1.997 0c0.073,0 0.139,0.029 0.187,0.077 0.048,0.048 0.078,0.115 0.078,0.188l0 1.405c0,0.073 -0.03,0.139 -0.078,0.187 -0.048,0.048 -0.114,0.078 -0.187,0.078l-1.997 0c-0.072,0 -0.139,-0.029 -0.187,-0.078l0 0c-0.048,-0.048 -0.078,-0.114 -0.078,-0.187l0 -1.405c0,-0.073 0.03,-0.14 0.078,-0.188l0.003 -0.002c0.048,-0.047 0.113,-0.075 0.184,-0.075zm1.997 0.099l-1.997 0c-0.044,0 -0.085,0.017 -0.115,0.046l-0.002 0.002c-0.03,0.03 -0.049,0.072 -0.049,0.118l0 1.405c0,0.046 0.019,0.088 0.049,0.117 0.03,0.031 0.072,0.049 0.117,0.049l1.997 0c0.046,0 0.087,-0.018 0.117,-0.049 0.031,-0.029 0.049,-0.071 0.049,-0.117l0 -1.405c0,-0.046 -0.019,-0.088 -0.049,-0.118 -0.03,-0.03 -0.071,-0.048 -0.117,-0.048z"/>
   <path class="fil2" d="M4.511 6.157c-0.025,-0.01 -0.037,-0.039 -0.027,-0.064 0.011,-0.025 0.039,-0.037 0.065,-0.027 0.35,0.144 0.602,0.242 0.927,0.367l0.065 0.026c0.061,0.025 0.114,0.047 0.203,0.047 0.088,0 0.142,-0.022 0.202,-0.047l0.043 -0.017c0.164,-0.064 0.312,-0.123 0.462,-0.183 0.151,-0.06 0.305,-0.122 0.489,-0.193 0.025,-0.01 0.054,0.003 0.063,0.028 0.01,0.025 -0.002,0.054 -0.028,0.064 -0.179,0.069 -0.335,0.132 -0.487,0.193 -0.149,0.059 -0.295,0.118 -0.464,0.183l-0.04 0.016c-0.071,0.029 -0.133,0.055 -0.24,0.055 -0.107,0 -0.17,-0.026 -0.24,-0.055l-0.063 -0.025c-0.325,-0.125 -0.577,-0.223 -0.93,-0.368z"/>
   <polygon class="fil1" points="6.011,6.5 6.011,6.841 5.477,6.841 5.477,6.5 "/>
   <path class="fil2" d="M6.06 6.5l0 0.341c0,0.027 -0.022,0.049 -0.049,0.049l-0.534 0c-0.028,0 -0.05,-0.022 -0.05,-0.049l0 -0.341c0,-0.028 0.022,-0.05 0.05,-0.05l0.534 0c0.027,0 0.049,0.022 0.049,0.05zm-0.099 0.291l0 -0.242 -0.435 0 0 0.242 0.435 0z"/>
   <path class="fil2" d="M5.262 5.495c0,0.028 -0.022,0.05 -0.049,0.05 -0.028,0 -0.05,-0.022 -0.05,-0.05 0,-0.085 0.035,-0.162 0.091,-0.218 0.056,-0.056 0.134,-0.091 0.219,-0.091l0.542 0c0.085,0 0.162,0.035 0.218,0.091 0.056,0.056 0.091,0.133 0.091,0.218 0,0.028 -0.022,0.05 -0.049,0.05 -0.028,0 -0.05,-0.022 -0.05,-0.05 0,-0.058 -0.024,-0.11 -0.062,-0.148 -0.038,-0.039 -0.09,-0.062 -0.148,-0.062l-0.542 0c-0.058,0 -0.111,0.024 -0.149,0.062 -0.038,0.038 -0.062,0.09 -0.062,0.148z"/>
   <path class="fil4" d="M6.958 6.112l0 -0.259c0,-0.119 -0.097,-0.216 -0.216,-0.216l-1.997 0c-0.118,0 -0.215,0.097 -0.215,0.216l0 0.259c0.359,0.147 0.615,0.246 0.951,0.376 0.037,0.014 0.069,0.029 0.104,0.041l0.068 0.019c0.027,0.005 0.056,0.007 0.091,0.007 0.03,0 0.056,-0.002 0.08,-0.006l0.085 -0.022c0.032,-0.012 0.063,-0.025 0.097,-0.039 0.337,-0.13 0.591,-0.237 0.952,-0.376z"/>
   <path class="fil2" d="M6.908 6.078l0 -0.225c0,-0.046 -0.019,-0.088 -0.049,-0.118 -0.03,-0.03 -0.071,-0.048 -0.117,-0.048l-1.997 0c-0.045,0 -0.087,0.018 -0.117,0.048 -0.03,0.03 -0.049,0.072 -0.049,0.118l0 0.226c0.336,0.137 0.582,0.233 0.899,0.355l0.063 0.025c0.019,0.008 0.037,0.015 0.057,0.022l0.067 0.019c0.012,0.002 0.023,0.003 0.035,0.004 0.012,0.001 0.027,0.002 0.044,0.002 0.014,0 0.027,-0.001 0.038,-0.001 0.012,-0.001 0.022,-0.003 0.032,-0.004l0.081 -0.022c0.017,-0.006 0.034,-0.013 0.051,-0.02l0.043 -0.017c0.163,-0.063 0.309,-0.122 0.458,-0.181 0.144,-0.058 0.29,-0.116 0.461,-0.183zm0.099 -0.225l0 0.293 -0.032 0.012c-0.181,0.07 -0.337,0.133 -0.491,0.194 -0.148,0.059 -0.292,0.117 -0.46,0.182l-0.04 0.016c-0.02,0.008 -0.039,0.016 -0.059,0.023l-0.004 0.002 -0.089 0.023c-0.014,0.002 -0.028,0.004 -0.042,0.005 -0.015,0.001 -0.03,0.002 -0.046,0.002 -0.018,0 -0.035,-0.001 -0.053,-0.003 -0.017,-0.001 -0.032,-0.003 -0.047,-0.006 -0.021,-0.004 -0.055,-0.013 -0.076,-0.02 -0.02,-0.008 -0.042,-0.016 -0.064,-0.025l-0.061 -0.025c-0.327,-0.126 -0.579,-0.224 -0.932,-0.369l-0.031 -0.012 0 -0.292c0,-0.073 0.03,-0.139 0.078,-0.187 0.048,-0.049 0.114,-0.078 0.187,-0.078l1.997 0c0.073,0 0.139,0.029 0.187,0.077 0.048,0.048 0.078,0.115 0.078,0.188z"/>
   <path class="fil2" d="M3.592 4.476c-0.027,0 -0.049,-0.022 -0.049,-0.049 0,-0.028 0.022,-0.05 0.049,-0.05l1.582 0c0.028,0 0.05,0.022 0.05,0.05 0,0.027 -0.022,0.049 -0.05,0.049l-1.582 0z"/>
   <path class="fil2" d="M3.592 3.675c-0.027,0 -0.049,-0.022 -0.049,-0.049 0,-0.028 0.022,-0.05 0.049,-0.05l0.803 0c0.028,0 0.05,0.022 0.05,0.05 0,0.027 -0.022,0.049 -0.05,0.049l-0.803 0z"/>
   <path class="fil2" d="M3.592 5.169c-0.027,0 -0.049,-0.022 -0.049,-0.049 0,-0.028 0.022,-0.05 0.049,-0.05l1.277 0c0.027,0 0.049,0.022 0.049,0.05 0,0.027 -0.022,0.049 -0.049,0.049l-1.277 0z"/>
   <path class="fil2" d="M3.592 5.862c-0.027,0 -0.049,-0.022 -0.049,-0.049 0,-0.028 0.022,-0.05 0.049,-0.05l0.55 0c0.028,0 0.05,0.022 0.05,0.05 0,0.027 -0.022,0.049 -0.05,0.049l-0.55 0z"/>
   <path class="fil2" d="M2.738 3.618c-0.019,-0.019 -0.019,-0.05 0,-0.07 0.019,-0.019 0.051,-0.019 0.07,0l0.137 0.137 0.225 -0.224c0.019,-0.02 0.05,-0.02 0.07,0 0.019,0.019 0.019,0.05 0,0.07l-0.26 0.259c-0.019,0.02 -0.051,0.02 -0.07,0l-0.172 -0.172z"/>
   <path class="fil2" d="M2.738 4.419c-0.019,-0.019 -0.019,-0.05 0,-0.07 0.019,-0.019 0.051,-0.019 0.07,0l0.137 0.137 0.225 -0.224c0.019,-0.02 0.05,-0.02 0.07,0 0.019,0.019 0.019,0.05 0,0.07l-0.26 0.259c-0.019,0.02 -0.051,0.02 -0.07,0l-0.172 -0.172z"/>
   <path class="fil2" d="M2.738 5.112c-0.019,-0.019 -0.019,-0.05 0,-0.07 0.019,-0.019 0.051,-0.019 0.07,0l0.137 0.137 0.225 -0.224c0.019,-0.02 0.05,-0.02 0.07,0 0.019,0.019 0.019,0.05 0,0.07l-0.26 0.259c-0.019,0.02 -0.051,0.02 -0.07,0l-0.172 -0.172z"/>
   <path class="fil2" d="M2.738 5.805c-0.019,-0.019 -0.019,-0.05 0,-0.07 0.019,-0.019 0.051,-0.019 0.07,0l0.137 0.137 0.225 -0.224c0.019,-0.02 0.05,-0.02 0.07,0 0.019,0.019 0.019,0.05 0,0.07l-0.26 0.259c-0.019,0.02 -0.051,0.02 -0.07,0l-0.172 -0.172z"/>
  </g>
 </g>
</svg>
