<?xml version="1.0" encoding="UTF-8"?>
<!DOCTYPE svg PUBLIC "-//W3C//DTD SVG 1.1//EN" "http://www.w3.org/Graphics/SVG/1.1/DTD/svg11.dtd">
<!-- Creator: CorelDRAW 2018 (64-Bit) -->
<svg xmlns="http://www.w3.org/2000/svg" xml:space="preserve" width="88px" height="100px" version="1.1" style="shape-rendering:geometricPrecision; text-rendering:geometricPrecision; image-rendering:optimizeQuality; fill-rule:evenodd; clip-rule:evenodd"
viewBox="0 0 17.901 20.325"
 xmlns:xlink="http://www.w3.org/1999/xlink">
 <defs>
  <style type="text/css">
   <![CDATA[
    .fil4 {fill:#00F4FF}
    .fil3 {fill:#EAEDF2}
    .fil0 {fill:#FFE552}
    .fil1 {fill:white}
    .fil2 {fill:gray;fill-rule:nonzero}
   ]]>
  </style>
 </defs>
 <g id="Layer_x0020_1">
  <metadata id="CorelCorpID_0Corel-Layer"/>
  <g id="_2117647749872">
   <path class="fil0" d="M9.506 0.153l7.847 4.53c0.348,0.201 0.543,0.565 0.544,0.941l0.004 0 0 9.077c0,0.44 -0.261,0.819 -0.636,0.991l-7.774 4.488c-0.352,0.202 -0.77,0.185 -1.095,-0.008l-7.847 -4.53c-0.349,-0.201 -0.544,-0.566 -0.544,-0.941l-0.005 0 0 -9.077c0,-0.441 0.261,-0.82 0.637,-0.992l7.773 -4.488c0.352,-0.202 0.77,-0.185 1.096,0.009z"/>
   <path class="fil1" d="M5.292 5.168c0,-0.104 0.084,-0.188 0.188,-0.188l5.044 0 2.132 2.132 0 7.098c0,0.103 -0.086,0.189 -0.189,0.189l-6.987 0c-0.103,0 -0.188,-0.085 -0.188,-0.189 0,-3.014 0,-6.028 0,-9.042z"/>
   <path class="fil2" d="M5.19 5.168c0,-0.08 0.033,-0.152 0.085,-0.205 0.053,-0.052 0.125,-0.085 0.205,-0.085l5.044 0c0.028,0 0.054,0.012 0.073,0.031l2.13 2.131c0.02,0.02 0.03,0.046 0.03,0.072l0 7.098c0,0.08 -0.033,0.153 -0.085,0.205 -0.053,0.053 -0.125,0.085 -0.205,0.085l-6.987 0c-0.08,0 -0.152,-0.032 -0.205,-0.085 -0.052,-0.052 -0.085,-0.125 -0.085,-0.205l0 -9.042zm0.229 -0.062c-0.016,0.016 -0.026,0.038 -0.026,0.062l0 9.042c0,0.024 0.01,0.046 0.026,0.061 0.016,0.016 0.037,0.026 0.061,0.026l6.987 0c0.024,0 0.045,-0.01 0.061,-0.026 0.016,-0.015 0.026,-0.037 0.026,-0.061l0 -7.056 -2.072 -2.073 -5.002 0c-0.024,0 -0.046,0.01 -0.061,0.025z"/>
   <path class="fil3" d="M12.656 7.112l-1.951 0c-0.1,0 -0.181,-0.082 -0.181,-0.182l0 -1.95 2.132 2.132z"/>
   <path class="fil2" d="M12.656 7.213l-1.951 0c-0.078,0 -0.149,-0.032 -0.2,-0.083 -0.051,-0.051 -0.083,-0.122 -0.083,-0.2l0 -1.95c0,-0.056 0.045,-0.102 0.102,-0.102 0.028,0 0.054,0.012 0.073,0.031l2.131 2.131c0.039,0.039 0.039,0.104 0,0.144 -0.02,0.019 -0.046,0.029 -0.072,0.029zm-1.951 -0.203l1.705 0 -1.785 -1.785 0 1.705c0,0.022 0.009,0.042 0.024,0.057 0.014,0.014 0.034,0.023 0.056,0.023z"/>
   <path class="fil4" d="M6.862 7.801c0.073,-0.019 0.217,0.035 0.312,0.058 0.242,0.058 0.534,0.058 0.776,0 0.095,-0.023 0.24,-0.077 0.313,-0.058 0.073,0.019 0.24,0.138 0.257,0.326l0.048 0.559c0.004,0.047 -0.039,0.087 -0.087,0.087l-1.837 0c-0.048,0 -0.092,-0.04 -0.087,-0.087l0.048 -0.559c0.016,-0.188 0.183,-0.307 0.257,-0.326z"/>
   <path class="fil2" d="M6.836 7.703c0.082,-0.021 0.192,0.01 0.288,0.037l0.074 0.02c0.112,0.027 0.237,0.04 0.364,0.04 0.127,0 0.253,-0.013 0.365,-0.04l0.073 -0.02c0.097,-0.027 0.206,-0.058 0.288,-0.037 0.059,0.015 0.159,0.074 0.231,0.166 0.052,0.066 0.093,0.15 0.102,0.25l0.048 0.558 0.001 0.015c0,0.05 -0.021,0.094 -0.055,0.127 -0.031,0.03 -0.073,0.051 -0.118,0.054 -0.607,0.018 -1.243,0.001 -1.853,0.001l-0.017 -0.001c-0.044,-0.003 -0.086,-0.024 -0.117,-0.054 -0.034,-0.033 -0.055,-0.077 -0.055,-0.127 0.012,-0.19 0.032,-0.384 0.049,-0.573 0.008,-0.1 0.049,-0.184 0.101,-0.25 0.073,-0.092 0.173,-0.151 0.231,-0.166zm0.234 0.232c-0.072,-0.02 -0.154,-0.043 -0.183,-0.036 -0.027,0.007 -0.079,0.04 -0.122,0.096 -0.03,0.038 -0.054,0.086 -0.059,0.141l-0.046 0.535 1.805 0 -0.047 -0.535c-0.004,-0.055 -0.028,-0.103 -0.058,-0.141 -0.044,-0.056 -0.095,-0.089 -0.122,-0.096 -0.029,-0.007 -0.111,0.016 -0.183,0.036 -0.025,0.007 -0.049,0.014 -0.081,0.022 -0.13,0.031 -0.272,0.047 -0.412,0.047 -0.14,0 -0.281,-0.016 -0.411,-0.047 -0.033,-0.008 -0.056,-0.015 -0.081,-0.022z"/>
   <path class="fil4" d="M7.559 6.261c0.373,0 0.675,0.302 0.675,0.674 0,0.373 -0.302,0.675 -0.675,0.675 -0.373,0 -0.675,-0.302 -0.675,-0.675 0,-0.372 0.302,-0.674 0.675,-0.674z"/>
   <path class="fil2" d="M7.559 6.159c0.214,0 0.408,0.087 0.549,0.228 0.14,0.14 0.227,0.334 0.227,0.548 0,0.215 -0.087,0.409 -0.227,0.549 -0.141,0.141 -0.335,0.228 -0.549,0.228 -0.214,0 -0.408,-0.087 -0.549,-0.228l-0.006 -0.006c-0.137,-0.14 -0.221,-0.332 -0.221,-0.543 0,-0.214 0.087,-0.408 0.227,-0.548 0.141,-0.141 0.335,-0.228 0.549,-0.228zm0.405 0.371c-0.103,-0.103 -0.247,-0.168 -0.405,-0.168 -0.158,0 -0.302,0.065 -0.405,0.168 -0.104,0.104 -0.168,0.247 -0.168,0.405 0,0.156 0.062,0.298 0.163,0.401l0.005 0.005c0.103,0.103 0.247,0.167 0.405,0.167 0.158,0 0.302,-0.064 0.405,-0.167 0.104,-0.104 0.168,-0.247 0.168,-0.406 0,-0.158 -0.064,-0.301 -0.168,-0.405z"/>
   <path class="fil2" d="M9.501 8.874c-0.056,0 -0.101,-0.045 -0.101,-0.102 0,-0.056 0.045,-0.101 0.101,-0.101l1.89 0c0.056,0 0.102,0.045 0.102,0.101 0,0.057 -0.046,0.102 -0.102,0.102l-1.89 0z"/>
   <path class="fil2" d="M6.556 10.102c-0.056,0 -0.101,-0.046 -0.101,-0.102 0,-0.056 0.045,-0.101 0.101,-0.101l4.835 0c0.056,0 0.102,0.045 0.102,0.101 0,0.056 -0.046,0.102 -0.102,0.102l-4.835 0z"/>
   <path class="fil2" d="M6.556 11.33c-0.056,0 -0.101,-0.046 -0.101,-0.102 0,-0.056 0.045,-0.101 0.101,-0.101l4.835 0c0.056,0 0.102,0.045 0.102,0.101 0,0.056 -0.046,0.102 -0.102,0.102l-4.835 0z"/>
   <path class="fil2" d="M6.556 12.558c-0.056,0 -0.101,-0.046 -0.101,-0.102 0,-0.056 0.045,-0.102 0.101,-0.102l2.188 0c0.056,0 0.102,0.046 0.102,0.102 0,0.056 -0.046,0.102 -0.102,0.102l-2.188 0z"/>
   <path class="fil4" d="M12.352 11.578c1.04,0 1.883,0.843 1.883,1.883 0,1.041 -0.843,1.884 -1.883,1.884 -1.041,0 -1.884,-0.843 -1.884,-1.884 0,-1.04 0.843,-1.883 1.884,-1.883z"/>
   <path class="fil2" d="M12.352 11.476c0.548,0 1.044,0.222 1.403,0.582 0.36,0.359 0.582,0.855 0.582,1.403 0,0.549 -0.222,1.045 -0.582,1.404 -0.359,0.359 -0.855,0.582 -1.403,0.582 -0.549,0 -1.045,-0.223 -1.404,-0.582 -0.36,-0.359 -0.582,-0.855 -0.582,-1.404 0,-0.548 0.222,-1.044 0.582,-1.403 0.359,-0.36 0.855,-0.582 1.404,-0.582zm1.26 0.725c-0.323,-0.322 -0.768,-0.522 -1.26,-0.522 -0.493,0 -0.938,0.2 -1.261,0.522 -0.322,0.323 -0.522,0.768 -0.522,1.26 0,0.492 0.2,0.938 0.522,1.261 0.323,0.322 0.768,0.522 1.261,0.522 0.492,0 0.937,-0.2 1.26,-0.522 0.322,-0.323 0.522,-0.769 0.522,-1.261 0,-0.492 -0.2,-0.937 -0.522,-1.26z"/>
   <path class="fil2" d="M11.388 13.517c-0.039,-0.04 -0.039,-0.104 0,-0.144 0.04,-0.04 0.104,-0.04 0.144,0l0.696 0.696 1.087 -1.087c0.039,-0.04 0.104,-0.04 0.143,0 0.04,0.039 0.04,0.104 0,0.144l-1.158 1.158c-0.04,0.04 -0.105,0.04 -0.144,0l-0.768 -0.767z"/>
  </g>
 </g>
</svg>
