<?xml version="1.0" encoding="UTF-8"?>
<!DOCTYPE svg PUBLIC "-//W3C//DTD SVG 1.1//EN" "http://www.w3.org/Graphics/SVG/1.1/DTD/svg11.dtd">
<!-- Creator: CorelDRAW 2018 (64-Bit) -->
<svg xmlns="http://www.w3.org/2000/svg" xml:space="preserve" width="88px" height="100px" version="1.1" style="shape-rendering:geometricPrecision; text-rendering:geometricPrecision; image-rendering:optimizeQuality; fill-rule:evenodd; clip-rule:evenodd"
viewBox="0 0 4.304 4.886"
 xmlns:xlink="http://www.w3.org/1999/xlink">
 <defs>
  <style type="text/css">
   <![CDATA[
    .fil5 {fill:#00F4FF}
    .fil4 {fill:#EAEDF2}
    .fil0 {fill:#FFE552}
    .fil1 {fill:white}
    .fil3 {fill:white}
    .fil2 {fill:gray;fill-rule:nonzero}
   ]]>
  </style>
 </defs>
 <g id="Layer_x0020_1">
  <metadata id="CorelCorpID_0Corel-Layer"/>
  <g id="_2082071180016">
   <path class="fil0" d="M2.285 0.037l1.887 1.089c0.084,0.048 0.131,0.136 0.131,0.226l0.001 0 0 2.182c0,0.106 -0.063,0.197 -0.153,0.239l-1.869 1.079c-0.085,0.048 -0.185,0.044 -0.264,-0.002l-1.886 -1.09c-0.084,-0.048 -0.131,-0.135 -0.131,-0.226l-0.001 0 0 -2.182c0,-0.106 0.063,-0.197 0.153,-0.238l1.869 -1.079c0.085,-0.049 0.185,-0.045 0.263,0.002z"/>
   <path class="fil1" d="M1.564 2.651l0.22 -0.122c-0.017,-0.046 -0.016,-0.104 0.009,-0.178 -0.065,0.066 -0.143,0.112 -0.229,0.113 -0.087,-0.001 -0.166,-0.047 -0.23,-0.114 0.025,0.074 0.026,0.133 0.009,0.179l0.221 0.122z"/>
   <path class="fil2" d="M1.564 2.623l0.191 -0.106c-0.005,-0.02 -0.008,-0.043 -0.007,-0.067 0.001,-0.01 0.002,-0.02 0.003,-0.03 -0.019,0.014 -0.039,0.027 -0.059,0.037 -0.04,0.02 -0.083,0.031 -0.128,0.032l-0.001 0c-0.045,-0.001 -0.088,-0.013 -0.128,-0.032 -0.021,-0.011 -0.04,-0.023 -0.059,-0.037 0.001,0.01 0.002,0.02 0.002,0.029 0.001,0.025 -0.001,0.047 -0.006,0.068l0.192 0.106zm0.232 -0.072l-0.232 0.128 -0.251 -0.139 0.007 -0.019c0.007,-0.02 0.011,-0.043 0.01,-0.07 -0.001,-0.027 -0.008,-0.058 -0.019,-0.093l0.04 -0.024c0.032,0.032 0.068,0.06 0.106,0.079 0.034,0.017 0.069,0.026 0.107,0.027 0.037,-0.001 0.072,-0.01 0.106,-0.027 0.038,-0.019 0.073,-0.046 0.105,-0.079l0.041 0.025c-0.012,0.035 -0.018,0.065 -0.019,0.093 -0.001,0.026 0.003,0.049 0.01,0.069l0.007 0.02 -0.018 0.01z"/>
   <path class="fil3" d="M2.452 2.818c-0.1,-0.104 -0.143,-0.09 -0.3,-0.109 -0.12,-0.015 -0.241,-0.04 -0.313,-0.102l-0.205 0.202 -0.07 -0.158 -0.07 0.158 -0.206 -0.203c-0.072,0.062 -0.193,0.088 -0.314,0.103 -0.156,0.019 -0.2,0.005 -0.299,0.109 0.355,0.491 1.429,0.49 1.777,0z"/>
   <path class="fil2" d="M2.469 2.802c0.01,0.009 0.009,0.025 0,0.034 -0.01,0.009 -0.026,0.009 -0.035,-0.001 -0.077,-0.08 -0.118,-0.085 -0.216,-0.095 -0.021,-0.002 -0.045,-0.004 -0.069,-0.007 -0.061,-0.008 -0.122,-0.018 -0.178,-0.034 -0.049,-0.015 -0.094,-0.034 -0.131,-0.06l-0.189 0.187c-0.01,0.01 -0.025,0.009 -0.035,0 -0.002,-0.002 -0.004,-0.005 -0.005,-0.007l-0.047 -0.108 -0.048 0.108c-0.005,0.012 -0.02,0.018 -0.032,0.012 -0.003,-0.001 -0.006,-0.003 -0.008,-0.006l-0.189 -0.186c-0.037,0.026 -0.082,0.045 -0.131,0.06 -0.056,0.016 -0.118,0.026 -0.179,0.034 -0.023,0.003 -0.047,0.005 -0.069,0.007 -0.097,0.01 -0.139,0.015 -0.215,0.095 -0.01,0.01 -0.025,0.01 -0.035,0.001 -0.01,-0.009 -0.01,-0.025 -0.001,-0.034 0.09,-0.094 0.136,-0.099 0.246,-0.11 0.019,-0.002 0.041,-0.004 0.068,-0.008 0.06,-0.007 0.119,-0.017 0.172,-0.032 0.051,-0.015 0.096,-0.035 0.129,-0.064 0.01,-0.008 0.024,-0.008 0.033,0.001l0.181 0.178 0.055 -0.126c0.003,-0.005 0.007,-0.01 0.013,-0.012 0.012,-0.006 0.027,0 0.032,0.012l0.056 0.126 0.179 -0.178c0.009,-0.009 0.024,-0.009 0.033,-0.001 0.034,0.029 0.079,0.049 0.13,0.064 0.053,0.015 0.112,0.025 0.171,0.032 0.028,0.004 0.049,0.006 0.068,0.008 0.111,0.011 0.157,0.016 0.246,0.11z"/>
   <path class="fil1" d="M1.826 2.313c0.054,-0.066 0.098,-0.146 0.098,-0.22l0 -0.03 0 -0.167 0 -0.038c0.001,-0.036 -0.003,-0.107 -0.007,-0.133 -0.012,-0.08 -0.209,-0.149 -0.353,-0.169 -0.144,-0.02 -0.226,-0.024 -0.293,0.059 -0.036,0.044 -0.066,0.15 -0.067,0.239l0 0.042 0 0.167 0 0.03c0,0.074 0.044,0.154 0.097,0.22 0.011,0.013 0.021,0.026 0.033,0.037 0.064,0.067 0.143,0.113 0.23,0.114 0.086,-0.001 0.164,-0.047 0.229,-0.113 0.011,-0.012 0.022,-0.025 0.033,-0.038z"/>
   <path class="fil2" d="M1.807 2.298c0.028,-0.034 0.052,-0.072 0.069,-0.11 0.015,-0.032 0.023,-0.064 0.023,-0.095 0,-0.07 -0.007,-0.171 0,-0.236 0.001,-0.016 0,-0.042 -0.001,-0.066 -0.001,-0.025 -0.003,-0.049 -0.005,-0.062 -0.004,-0.027 -0.041,-0.055 -0.093,-0.08 -0.069,-0.033 -0.162,-0.058 -0.239,-0.069 -0.07,-0.01 -0.125,-0.016 -0.169,-0.009 -0.04,0.006 -0.073,0.023 -0.102,0.059 -0.016,0.02 -0.031,0.055 -0.042,0.095 -0.012,0.041 -0.019,0.087 -0.02,0.129 0,0.08 0,0.16 0,0.239 0,0.031 0.009,0.063 0.023,0.095 0.017,0.038 0.042,0.076 0.069,0.11 0.005,0.006 0.01,0.012 0.016,0.018 0.005,0.007 0.01,0.012 0.015,0.018 0.032,0.032 0.068,0.06 0.106,0.079 0.034,0.017 0.069,0.026 0.107,0.027 0.037,-0.001 0.072,-0.01 0.106,-0.027 0.038,-0.019 0.073,-0.046 0.105,-0.079 0.005,-0.005 0.011,-0.011 0.016,-0.017 0.005,-0.006 0.011,-0.012 0.016,-0.019zm0.114 -0.091c-0.019,0.043 -0.046,0.084 -0.076,0.121 -0.005,0.007 -0.011,0.014 -0.017,0.021 -0.005,0.006 -0.011,0.012 -0.018,0.019 -0.035,0.037 -0.075,0.067 -0.118,0.089 -0.04,0.02 -0.083,0.031 -0.128,0.032l-0.001 0c-0.045,-0.001 -0.088,-0.013 -0.128,-0.032 -0.043,-0.022 -0.083,-0.053 -0.119,-0.09 -0.006,-0.006 -0.012,-0.013 -0.017,-0.019 -0.005,-0.006 -0.011,-0.012 -0.017,-0.02 -0.03,-0.037 -0.057,-0.078 -0.076,-0.121 -0.017,-0.037 -0.027,-0.076 -0.027,-0.114 0,-0.037 -0.005,-0.223 0,-0.239 0.001,-0.047 0.009,-0.097 0.022,-0.142 0.013,-0.046 0.031,-0.088 0.051,-0.112 0.038,-0.047 0.08,-0.07 0.133,-0.078 0.05,-0.007 0.108,-0.001 0.182,0.01 0.081,0.011 0.18,0.038 0.254,0.073 0.066,0.032 0.114,0.071 0.121,0.117 0.002,0.014 0.004,0.04 0.005,0.067 0.001,0.025 0.002,0.051 0.001,0.069l0 0.235c0,0.038 -0.01,0.077 -0.027,0.114z"/>
   <path class="fil1" d="M2.005 1.979c0,-0.046 -0.036,-0.083 -0.081,-0.083l0 0.167c0.045,0 0.081,-0.038 0.081,-0.084z"/>
   <path class="fil2" d="M1.981 1.979c0,-0.016 -0.007,-0.031 -0.017,-0.042 -0.005,-0.004 -0.01,-0.008 -0.016,-0.011l0 0.107c0.006,-0.003 0.011,-0.007 0.016,-0.012 0.01,-0.01 0.017,-0.025 0.017,-0.042zm0.018 -0.076c0.019,0.02 0.031,0.047 0.031,0.076 0,0.03 -0.012,0.057 -0.031,0.076 -0.019,0.02 -0.046,0.032 -0.075,0.032l-0.025 0 0 -0.216 0.025 0c0.029,0 0.056,0.013 0.075,0.032z"/>
   <path class="fil1" d="M1.204 2.063l0 -0.167c-0.045,0 -0.082,0.037 -0.082,0.083 0,0.046 0.037,0.084 0.082,0.084z"/>
   <path class="fil2" d="M1.179 2.033l0 -0.107c-0.006,0.003 -0.011,0.007 -0.016,0.011 -0.01,0.011 -0.017,0.026 -0.017,0.042 0,0.017 0.007,0.032 0.017,0.042 0.005,0.005 0.01,0.009 0.016,0.012zm0.049 -0.137l0 0.191 -0.024 0c-0.03,0 -0.056,-0.012 -0.076,-0.032 -0.019,-0.019 -0.03,-0.046 -0.03,-0.076 0,-0.029 0.011,-0.056 0.03,-0.076 0.02,-0.019 0.046,-0.032 0.076,-0.032l0.024 0 0 0.025z"/>
   <path class="fil4" d="M1.982 1.591c-0.051,-0.175 -0.285,-0.27 -0.467,-0.272 -0.132,-0.001 -0.311,0.038 -0.307,0.253 -0.122,0.069 -0.048,0.231 -0.027,0.327 0.007,-0.002 0.015,-0.003 0.023,-0.003l0 -0.042c0.001,-0.089 0.031,-0.195 0.067,-0.239 0.067,-0.083 0.149,-0.079 0.293,-0.059 0.144,0.02 0.341,0.089 0.353,0.169 0.004,0.026 0.008,0.097 0.007,0.133l0 0.038c0.011,0 0.021,0.002 0.031,0.006 0.02,-0.096 0.049,-0.234 0.027,-0.311z"/>
   <path class="fil2" d="M1.958 1.598c-0.021,-0.074 -0.079,-0.133 -0.152,-0.175 -0.088,-0.051 -0.196,-0.078 -0.291,-0.079l-0.016 0c-0.06,0.001 -0.128,0.011 -0.18,0.044 -0.05,0.032 -0.086,0.085 -0.087,0.174l0 0.01c0,0.009 -0.005,0.017 -0.012,0.021 -0.075,0.043 -0.059,0.135 -0.038,0.216 0.003,-0.033 0.01,-0.066 0.019,-0.097 0.013,-0.046 0.031,-0.088 0.051,-0.112 0.038,-0.047 0.08,-0.07 0.133,-0.078 0.05,-0.007 0.108,-0.001 0.182,0.01 0.081,0.011 0.18,0.038 0.254,0.073 0.066,0.032 0.114,0.071 0.121,0.117 0.002,0.014 0.004,0.04 0.005,0.067l0.001 0.025c0.005,-0.025 0.009,-0.052 0.012,-0.077 0.007,-0.054 0.009,-0.104 -0.002,-0.139zm-0.128 -0.217c0.083,0.048 0.15,0.116 0.175,0.203 0.012,0.043 0.011,0.1 0.004,0.158 -0.007,0.057 -0.02,0.116 -0.03,0.165l-0.002 0.005c-0.005,0.012 -0.019,0.018 -0.032,0.013 -0.003,-0.002 -0.007,-0.003 -0.01,-0.004 -0.004,0 -0.007,-0.001 -0.011,-0.001 -0.014,0 -0.025,-0.011 -0.025,-0.024l0 -0.039c0.001,-0.016 0,-0.042 -0.001,-0.066 -0.001,-0.025 -0.003,-0.049 -0.005,-0.062 -0.004,-0.027 -0.041,-0.055 -0.093,-0.08 -0.069,-0.033 -0.162,-0.058 -0.239,-0.069 -0.07,-0.01 -0.125,-0.016 -0.169,-0.009 -0.04,0.006 -0.073,0.023 -0.102,0.059 -0.016,0.02 -0.031,0.055 -0.042,0.095 -0.012,0.041 -0.019,0.086 -0.02,0.127l0 0.044c0,0.013 -0.011,0.024 -0.024,0.024 -0.003,0 -0.006,0.001 -0.008,0.001l0 0c-0.003,0 -0.006,0.001 -0.008,0.002l-0.002 0c-0.013,0.003 -0.026,-0.005 -0.029,-0.019 -0.004,-0.016 -0.009,-0.033 -0.014,-0.051 -0.027,-0.099 -0.062,-0.226 0.04,-0.295 0.002,-0.106 0.048,-0.172 0.11,-0.211 0.061,-0.039 0.138,-0.051 0.206,-0.052l0.017 0c0.102,0.001 0.219,0.03 0.314,0.086z"/>
   <path class="fil5" d="M1.634 2.809l0.223 -0.221c-0.025,-0.021 -0.044,-0.046 -0.055,-0.077l-0.238 0.14 0.07 0.158z"/>
   <path class="fil2" d="M1.642 2.767l0.18 -0.178c-0.006,-0.007 -0.012,-0.014 -0.017,-0.022 -0.005,-0.006 -0.01,-0.014 -0.014,-0.021l-0.196 0.115 0.047 0.106zm0.232 -0.161l-0.222 0.219c-0.002,0.003 -0.005,0.005 -0.009,0.006 -0.012,0.006 -0.026,0 -0.032,-0.012l-0.07 -0.158c-0.005,-0.011 0,-0.025 0.01,-0.031l0.238 -0.14c0.002,-0.001 0.003,-0.001 0.005,-0.002 0.013,-0.004 0.027,0.002 0.031,0.015 0.005,0.013 0.011,0.025 0.019,0.036 0.008,0.011 0.018,0.022 0.029,0.031l0.001 0.001c0.01,0.01 0.01,0.025 0,0.035z"/>
   <path class="fil5" d="M1.494 2.809l-0.224 -0.221c0.025,-0.021 0.044,-0.046 0.055,-0.077l0.239 0.14 -0.07 0.158z"/>
   <path class="fil2" d="M1.476 2.825l-0.223 -0.219c-0.009,-0.01 -0.009,-0.025 0,-0.035l0.002 -0.001c0.01,-0.009 0.02,-0.02 0.028,-0.031l0.001 -0.001c0.007,-0.011 0.013,-0.023 0.018,-0.035 0.005,-0.013 0.019,-0.019 0.031,-0.015 0.002,0.001 0.004,0.001 0.005,0.002l0.238 0.14c0.011,0.006 0.015,0.02 0.01,0.031l-0.07 0.158c-0.005,0.012 -0.02,0.018 -0.032,0.012 -0.003,-0.001 -0.006,-0.003 -0.008,-0.006zm-0.171 -0.236l0.181 0.178 0.047 -0.106 -0.197 -0.115c-0.004,0.007 -0.008,0.014 -0.013,0.02l0 0.001c-0.006,0.008 -0.011,0.015 -0.018,0.022z"/>
   <path class="fil5" d="M3.629 3.166c-0.092,-0.106 -0.139,-0.13 -0.219,-0.142 -0.123,0.111 -0.3,0.193 -0.499,0.231 -0.013,0.074 0.012,0.146 0.107,0.217 -0.078,-0.005 -0.257,-0.031 -0.303,-0.195 -0.013,0 -0.032,0.001 -0.043,0.001 -0.3,0 -0.567,-0.099 -0.738,-0.254 -0.08,0.013 -0.127,0.037 -0.218,0.142 0.379,0.535 1.534,0.534 1.913,0z"/>
   <path class="fil2" d="M3.647 3.15c0.009,0.01 0.008,0.025 -0.002,0.034 -0.011,0.009 -0.026,0.008 -0.035,-0.002 -0.044,-0.051 -0.077,-0.082 -0.108,-0.102 -0.027,-0.016 -0.053,-0.025 -0.084,-0.03 -0.062,0.054 -0.136,0.101 -0.219,0.139 -0.082,0.038 -0.171,0.067 -0.266,0.086 -0.002,0.027 0.001,0.054 0.013,0.08 0.015,0.032 0.042,0.064 0.086,0.097 0.011,0.008 0.013,0.024 0.005,0.034 -0.005,0.007 -0.013,0.011 -0.021,0.01 -0.041,-0.003 -0.108,-0.011 -0.172,-0.04 -0.061,-0.028 -0.118,-0.075 -0.147,-0.154l-0.025 0c-0.15,0 -0.292,-0.024 -0.418,-0.068 -0.127,-0.043 -0.239,-0.106 -0.328,-0.184 -0.031,0.006 -0.057,0.014 -0.084,0.031 -0.031,0.019 -0.064,0.05 -0.108,0.101 -0.009,0.01 -0.024,0.012 -0.034,0.003 -0.011,-0.009 -0.012,-0.024 -0.003,-0.035 0.048,-0.054 0.084,-0.088 0.119,-0.11 0.037,-0.023 0.071,-0.033 0.114,-0.04 0.007,-0.001 0.014,0.001 0.02,0.006 0.085,0.077 0.194,0.139 0.32,0.182 0.121,0.042 0.257,0.065 0.402,0.065l0.021 0 0.02 0c0.012,-0.001 0.022,0.006 0.025,0.017 0.021,0.074 0.072,0.117 0.127,0.142 0.026,0.012 0.053,0.02 0.078,0.025 -0.018,-0.02 -0.032,-0.041 -0.041,-0.062 -0.019,-0.041 -0.022,-0.082 -0.015,-0.124 0.002,-0.01 0.009,-0.018 0.02,-0.02 0.097,-0.018 0.189,-0.048 0.271,-0.086 0.082,-0.038 0.155,-0.085 0.215,-0.139 0.006,-0.005 0.013,-0.008 0.021,-0.006 0.043,0.006 0.077,0.016 0.114,0.039 0.035,0.022 0.072,0.056 0.119,0.111z"/>
   <path class="fil1" d="M2.279 2.087l0 0.182 0 0.033c0,0.143 0.152,0.334 0.393,0.405 0.075,-0.022 0.141,-0.055 0.196,-0.095 0.124,-0.089 0.197,-0.211 0.197,-0.31l0 -0.033 0 -0.182 0 -0.045c-0.063,-0.059 -0.12,-0.057 -0.156,-0.281 -0.192,0.204 -0.479,0.212 -0.63,0.281l0 0.045z"/>
   <path class="fil2" d="M2.304 2.087l0 0.215c0,0.069 0.039,0.152 0.11,0.225 0.064,0.065 0.152,0.122 0.258,0.154 0.032,-0.009 0.063,-0.022 0.092,-0.036 0.033,-0.015 0.063,-0.033 0.09,-0.053 0.058,-0.042 0.104,-0.091 0.137,-0.142 0.032,-0.051 0.049,-0.102 0.049,-0.148l0 -0.25c-0.008,-0.007 -0.017,-0.013 -0.025,-0.02 -0.048,-0.036 -0.091,-0.069 -0.122,-0.221 -0.133,0.121 -0.3,0.165 -0.438,0.201 -0.057,0.015 -0.11,0.028 -0.151,0.045l0 0.03zm-0.049 0.182l0 -0.227c0,-0.01 0.005,-0.019 0.014,-0.023 0.048,-0.022 0.108,-0.037 0.174,-0.054 0.144,-0.038 0.319,-0.084 0.448,-0.221 0.004,-0.003 0.008,-0.006 0.014,-0.007 0.013,-0.002 0.026,0.007 0.028,0.02 0.027,0.173 0.067,0.203 0.112,0.237 0.011,0.008 0.023,0.018 0.035,0.028 0.006,0.005 0.009,0.012 0.009,0.02l0 0.26c0,0.055 -0.02,0.116 -0.057,0.175 -0.035,0.055 -0.086,0.109 -0.15,0.154 -0.029,0.022 -0.062,0.041 -0.097,0.058 -0.033,0.016 -0.068,0.03 -0.106,0.041 -0.004,0.001 -0.009,0.002 -0.014,0 -0.118,-0.034 -0.216,-0.097 -0.286,-0.169 -0.079,-0.082 -0.124,-0.178 -0.124,-0.259l0 -0.033z"/>
   <path class="fil1" d="M2.408 2.901c-0.08,0.063 -0.206,0.092 -0.331,0.107 -0.061,0.008 -0.106,0.011 -0.143,0.016 0.171,0.155 0.438,0.254 0.738,0.254 0.011,0 0.03,-0.001 0.043,-0.001 -0.009,-0.03 -0.013,-0.065 -0.011,-0.105 0.01,-0.222 0.118,-0.211 0.154,-0.386 0.009,-0.044 0.013,-0.1 0.01,-0.174 -0.055,0.04 -0.121,0.073 -0.196,0.095 -0.077,-0.023 -0.146,-0.058 -0.203,-0.1 0.048,0.142 0.014,0.234 -0.061,0.294zm0.594 0.165c-0.044,0.066 -0.08,0.129 -0.091,0.189 0.199,-0.038 0.376,-0.12 0.499,-0.231 -0.037,-0.006 -0.082,-0.009 -0.143,-0.017 -0.068,-0.008 -0.141,-0.02 -0.202,-0.038 -0.021,0.034 -0.042,0.066 -0.063,0.097z"/>
   <path class="fil2" d="M2.423 2.92c-0.042,0.034 -0.097,0.058 -0.157,0.076 -0.058,0.017 -0.123,0.028 -0.186,0.036 -0.026,0.004 -0.052,0.006 -0.075,0.009l-0.012 0.001c0.077,0.06 0.171,0.11 0.277,0.146 0.121,0.042 0.257,0.065 0.402,0.065l0.013 0c-0.002,-0.007 -0.003,-0.014 -0.004,-0.022 -0.001,-0.019 -0.002,-0.038 -0.001,-0.06 0.006,-0.133 0.045,-0.187 0.084,-0.242 0.028,-0.038 0.055,-0.077 0.07,-0.148 0.004,-0.02 0.007,-0.044 0.009,-0.072 0.001,-0.016 0.002,-0.034 0.002,-0.052 -0.019,0.011 -0.039,0.022 -0.06,0.032 -0.033,0.016 -0.068,0.03 -0.106,0.041 -0.005,0.002 -0.01,0.001 -0.014,0 -0.039,-0.011 -0.076,-0.026 -0.11,-0.043 -0.016,-0.007 -0.031,-0.016 -0.046,-0.024 0.01,0.048 0.009,0.09 -0.001,0.127 -0.013,0.054 -0.043,0.096 -0.085,0.13zm-0.17 0.029c0.054,-0.016 0.103,-0.038 0.14,-0.067 0.033,-0.027 0.058,-0.061 0.068,-0.103 0.011,-0.044 0.008,-0.098 -0.015,-0.164 -0.002,-0.008 -0.001,-0.016 0.004,-0.023 0.008,-0.01 0.023,-0.013 0.034,-0.005 0.028,0.021 0.059,0.04 0.092,0.057 0.03,0.014 0.062,0.027 0.096,0.037 0.032,-0.009 0.063,-0.022 0.092,-0.036 0.032,-0.015 0.062,-0.033 0.089,-0.053 0.004,-0.003 0.009,-0.004 0.014,-0.005 0.014,0 0.025,0.01 0.026,0.024 0.001,0.038 0.001,0.072 -0.001,0.101 -0.002,0.03 -0.006,0.056 -0.01,0.079 -0.017,0.081 -0.048,0.124 -0.078,0.167 -0.036,0.049 -0.07,0.097 -0.075,0.215 -0.001,0.019 -0.001,0.037 0.001,0.053 0.002,0.016 0.005,0.031 0.008,0.044 0.001,0.002 0.001,0.004 0.001,0.007 0.001,0.013 -0.01,0.024 -0.024,0.024 -0.014,0.001 -0.029,0 -0.043,0.001 -0.15,0 -0.292,-0.024 -0.418,-0.068 -0.131,-0.045 -0.246,-0.11 -0.336,-0.191 -0.004,-0.003 -0.008,-0.009 -0.008,-0.015 -0.002,-0.013 0.007,-0.026 0.02,-0.028 0.02,-0.003 0.043,-0.005 0.07,-0.008 0.021,-0.002 0.044,-0.004 0.074,-0.008 0.061,-0.008 0.123,-0.019 0.179,-0.035zm0.769 0.131c-0.021,0.032 -0.041,0.063 -0.056,0.094 -0.009,0.016 -0.016,0.033 -0.022,0.049 0.084,-0.018 0.162,-0.045 0.234,-0.078 0.064,-0.03 0.122,-0.064 0.173,-0.104l-0.012 -0.001c-0.023,-0.002 -0.049,-0.005 -0.075,-0.008 -0.034,-0.005 -0.069,-0.01 -0.105,-0.016 -0.029,-0.005 -0.057,-0.012 -0.083,-0.019l-0.021 0.034c-0.011,0.017 -0.022,0.033 -0.033,0.049zm-0.1 0.072c0.016,-0.032 0.037,-0.065 0.06,-0.099 0.011,-0.016 0.021,-0.032 0.032,-0.048 0.01,-0.016 0.02,-0.032 0.03,-0.049 0.005,-0.009 0.017,-0.014 0.028,-0.011 0.029,0.009 0.062,0.017 0.096,0.023 0.032,0.006 0.067,0.011 0.102,0.015 0.03,0.004 0.053,0.006 0.074,0.008 0.027,0.003 0.05,0.006 0.07,0.009 0.005,0 0.01,0.003 0.014,0.007 0.009,0.01 0.009,0.026 -0.001,0.035 -0.064,0.057 -0.141,0.107 -0.228,0.147 -0.086,0.04 -0.181,0.07 -0.282,0.09 -0.003,0 -0.007,0.001 -0.01,0 -0.013,-0.002 -0.022,-0.015 -0.02,-0.028 0.006,-0.033 0.018,-0.066 0.035,-0.099z"/>
   <path class="fil1" d="M3.065 2.087l0 0.182c0.049,0 0.089,-0.041 0.089,-0.091 0,-0.05 -0.04,-0.091 -0.089,-0.091z"/>
   <path class="fil2" d="M3.089 2.116l0 0.124c0.008,-0.004 0.015,-0.009 0.021,-0.015l0.001 -0.001c0.011,-0.012 0.018,-0.028 0.018,-0.046 0,-0.018 -0.007,-0.035 -0.019,-0.047l-0.001 -0.001c-0.006,-0.006 -0.012,-0.011 -0.02,-0.014zm-0.049 0.153l0 -0.182c0,-0.013 0.011,-0.024 0.025,-0.024 0.03,0 0.058,0.012 0.079,0.032l0.001 0.002c0.021,0.02 0.033,0.049 0.033,0.081 0,0.031 -0.012,0.059 -0.031,0.08l-0.002 0.001c-0.02,0.021 -0.049,0.034 -0.08,0.034 -0.014,0 -0.025,-0.011 -0.025,-0.024z"/>
   <path class="fil1" d="M2.19 2.178c0,0.05 0.04,0.091 0.089,0.091l0 -0.182c-0.049,0 -0.089,0.041 -0.089,0.091z"/>
   <path class="fil2" d="M2.215 2.178c0,0.019 0.007,0.035 0.019,0.047 0.006,0.006 0.013,0.011 0.021,0.015l0 -0.124c-0.008,0.004 -0.015,0.009 -0.021,0.015 -0.012,0.012 -0.019,0.029 -0.019,0.047zm-0.016 0.081c-0.021,-0.021 -0.033,-0.049 -0.033,-0.081 0,-0.032 0.012,-0.061 0.033,-0.081 0.02,-0.021 0.049,-0.034 0.08,-0.034 0.014,0 0.025,0.011 0.025,0.024l0 0.182c0,0.013 -0.011,0.024 -0.025,0.024 -0.031,0 -0.06,-0.013 -0.08,-0.034z"/>
   <path class="fil4" d="M2.869 2.611c0,0.011 0,0.021 0,0.031 0.001,0.06 -0.004,0.106 -0.011,0.144 0,0 0,0 0,0 -0.036,0.175 -0.144,0.164 -0.154,0.386 -0.002,0.04 0.002,0.075 0.011,0.105 0.046,0.164 0.225,0.19 0.303,0.195 -0.095,-0.071 -0.12,-0.143 -0.107,-0.217 0.021,-0.115 0.102,-0.191 0.154,-0.286 0.124,-0.207 0.231,-0.47 0.229,-0.746 -0.004,-0.469 -0.277,-0.703 -0.61,-0.716 -0.333,-0.013 -0.569,0.367 -0.562,0.679 0.007,0.31 0.15,0.553 0.286,0.715 0.075,-0.06 0.109,-0.152 0.061,-0.294 -0.12,-0.089 -0.19,-0.208 -0.19,-0.305l0 -0.033c-0.049,0 -0.089,-0.041 -0.089,-0.091 0,-0.05 0.04,-0.091 0.089,-0.091l0 -0.045c0.151,-0.069 0.438,-0.077 0.63,-0.281 0.036,0.224 0.093,0.222 0.156,0.281l0 0.045c0.049,0 0.089,0.041 0.089,0.091 0,0.05 -0.04,0.091 -0.089,0.091l0 0.033c0,0.098 -0.072,0.22 -0.196,0.309z"/>
   <path class="fil2" d="M2.893 2.623l0 0.019c0.001,0.031 0,0.058 -0.002,0.082 -0.002,0.025 -0.005,0.047 -0.009,0.067l-0.001 0.002c-0.017,0.08 -0.047,0.123 -0.077,0.165 -0.036,0.049 -0.07,0.097 -0.075,0.215 -0.001,0.019 -0.001,0.037 0.001,0.053 0.002,0.016 0.005,0.031 0.008,0.044 0.021,0.074 0.072,0.117 0.127,0.142 0.026,0.012 0.053,0.02 0.078,0.025 -0.018,-0.02 -0.032,-0.041 -0.041,-0.062 -0.019,-0.041 -0.022,-0.082 -0.015,-0.124l0 -0.002c0.016,-0.081 0.058,-0.142 0.1,-0.203 0.02,-0.029 0.04,-0.058 0.056,-0.089l0.001 -0.002c0.067,-0.111 0.128,-0.238 0.17,-0.374 0.035,-0.114 0.057,-0.235 0.056,-0.358 -0.002,-0.216 -0.062,-0.38 -0.16,-0.494 -0.106,-0.126 -0.259,-0.191 -0.427,-0.198 -0.008,0 -0.017,0 -0.025,0 -0.144,0.003 -0.269,0.086 -0.359,0.203 -0.091,0.118 -0.146,0.271 -0.152,0.414 -0.001,0.013 -0.001,0.025 0,0.037 0.003,0.134 0.032,0.255 0.074,0.363 0.051,0.126 0.12,0.232 0.19,0.318 0.024,-0.024 0.042,-0.053 0.05,-0.087 0.011,-0.042 0.008,-0.094 -0.012,-0.157 -0.059,-0.045 -0.106,-0.096 -0.139,-0.149 -0.036,-0.057 -0.055,-0.117 -0.055,-0.171l0 -0.011c-0.022,-0.005 -0.041,-0.016 -0.056,-0.032l-0.002 -0.001c-0.019,-0.021 -0.031,-0.049 -0.031,-0.08 0,-0.032 0.012,-0.061 0.033,-0.081l0.001 -0.002c0.015,-0.014 0.034,-0.025 0.055,-0.03l0 -0.023c0,-0.011 0.007,-0.02 0.016,-0.024 0.048,-0.021 0.107,-0.036 0.172,-0.053 0.144,-0.038 0.319,-0.084 0.448,-0.221 0.009,-0.009 0.025,-0.01 0.034,-0.001 0.005,0.004 0.007,0.01 0.008,0.015 0.028,0.172 0.067,0.202 0.112,0.236 0.012,0.009 0.024,0.018 0.036,0.03 0.006,0.004 0.008,0.011 0.008,0.018l0 0.023c0.022,0.005 0.041,0.016 0.056,0.032 0.021,0.02 0.033,0.049 0.033,0.081 0,0.032 -0.012,0.06 -0.033,0.081 -0.015,0.016 -0.034,0.027 -0.056,0.032l0 0.011c0,0.055 -0.02,0.115 -0.057,0.174 -0.033,0.052 -0.08,0.103 -0.139,0.147zm-0.048 0.004l0 -0.016c0,-0.007 0.003,-0.015 0.01,-0.02 0.058,-0.041 0.104,-0.091 0.136,-0.141 0.032,-0.051 0.049,-0.102 0.049,-0.148l0 -0.033c0,-0.013 0.011,-0.024 0.025,-0.024 0.017,0 0.034,-0.008 0.045,-0.02 0.012,-0.012 0.019,-0.028 0.019,-0.047 0,-0.018 -0.007,-0.035 -0.019,-0.047 -0.011,-0.012 -0.027,-0.02 -0.045,-0.02 -0.014,0 -0.025,-0.011 -0.025,-0.024l0 -0.035c-0.008,-0.007 -0.017,-0.013 -0.025,-0.02 -0.048,-0.036 -0.091,-0.069 -0.122,-0.221 -0.133,0.121 -0.3,0.165 -0.438,0.201 -0.057,0.015 -0.11,0.028 -0.151,0.045l0 0.03c0,0.013 -0.011,0.024 -0.025,0.024 -0.017,0 -0.033,0.007 -0.044,0.019l-0.001 0.001c-0.012,0.012 -0.019,0.029 -0.019,0.047 0,0.018 0.007,0.034 0.018,0.046l0.001 0.001c0.011,0.012 0.028,0.02 0.045,0.02 0.014,0 0.025,0.011 0.025,0.024l0 0.033c0,0.045 0.016,0.096 0.048,0.146 0.031,0.049 0.075,0.098 0.132,0.139 0.004,0.003 0.007,0.007 0.008,0.012 0.026,0.076 0.029,0.139 0.016,0.191 -0.013,0.054 -0.043,0.096 -0.085,0.13 -0.01,0.008 -0.025,0.006 -0.034,-0.004 -0.077,-0.092 -0.156,-0.209 -0.213,-0.35 -0.045,-0.112 -0.075,-0.239 -0.078,-0.38 0,-0.013 0,-0.027 0,-0.04 0.006,-0.153 0.066,-0.316 0.163,-0.442 0.098,-0.128 0.235,-0.218 0.396,-0.222 0.009,0 0.019,0 0.028,0.001 0.182,0.007 0.346,0.078 0.462,0.214 0.105,0.123 0.169,0.297 0.171,0.526 0.001,0.129 -0.021,0.254 -0.057,0.372 -0.043,0.141 -0.107,0.271 -0.175,0.385 -0.017,0.033 -0.038,0.063 -0.059,0.094 -0.039,0.056 -0.078,0.113 -0.092,0.184l0 0.001c-0.006,0.033 -0.003,0.064 0.011,0.096 0.015,0.032 0.042,0.064 0.086,0.097 0.006,0.005 0.01,0.013 0.01,0.022 -0.001,0.013 -0.013,0.023 -0.026,0.022 -0.041,-0.003 -0.108,-0.011 -0.172,-0.04 -0.065,-0.03 -0.127,-0.082 -0.152,-0.172 -0.005,-0.017 -0.009,-0.034 -0.011,-0.053 -0.001,-0.019 -0.002,-0.038 -0.001,-0.06 0.006,-0.133 0.045,-0.187 0.084,-0.242 0.027,-0.038 0.055,-0.076 0.07,-0.146l0 -0.002c0.004,-0.018 0.006,-0.038 0.008,-0.061 0.002,-0.023 0.003,-0.049 0.003,-0.077l0 -0.016z"/>
  </g>
 </g>
</svg>
