<?xml version="1.0" encoding="UTF-8"?>
<!DOCTYPE svg PUBLIC "-//W3C//DTD SVG 1.1//EN" "http://www.w3.org/Graphics/SVG/1.1/DTD/svg11.dtd">
<!-- Creator: CorelDRAW 2018 (64-Bit) -->
<svg xmlns="http://www.w3.org/2000/svg" xml:space="preserve" width="88px" height="100px" version="1.1" style="shape-rendering:geometricPrecision; text-rendering:geometricPrecision; image-rendering:optimizeQuality; fill-rule:evenodd; clip-rule:evenodd"
viewBox="0 0 5.757 6.536"
 xmlns:xlink="http://www.w3.org/1999/xlink">
 <defs>
  <style type="text/css">
   <![CDATA[
    .fil4 {fill:#00F4FF}
    .fil0 {fill:#99F0FF}
    .fil3 {fill:#EAEDF2}
    .fil5 {fill:white}
    .fil1 {fill:white}
    .fil2 {fill:gray;fill-rule:nonzero}
   ]]>
  </style>
 </defs>
 <g id="Layer_x0020_1">
  <metadata id="CorelCorpID_0Corel-Layer"/>
  <g id="_2082017977984">
   <path class="fil0" d="M3.057 0.049l2.523 1.457c0.112,0.064 0.175,0.182 0.175,0.302l0.002 0 0 2.92c0,0.141 -0.084,0.263 -0.205,0.318l-2.5 1.443c-0.113,0.066 -0.247,0.06 -0.352,-0.002l-2.523 -1.457c-0.113,-0.065 -0.175,-0.182 -0.176,-0.302l-0.001 0 0 -2.92c0,-0.141 0.084,-0.263 0.205,-0.318l2.5 -1.444c0.113,-0.065 0.247,-0.059 0.352,0.003z"/>
   <path class="fil1" d="M3.328 4.587l-1.582 0c-0.032,0 -0.059,-0.026 -0.059,-0.059 0,-0.945 0,-1.89 0,-2.835 0,-0.032 0.027,-0.059 0.059,-0.059l1.582 0 0.668 0.668 0 1.397 -0.668 0.888z"/>
   <path class="fil2" d="M3.029 4.555c0.019,0 0.033,0.014 0.033,0.032 0,0.018 -0.014,0.033 -0.033,0.033l-1.283 0c-0.025,0 -0.048,-0.01 -0.064,-0.027 -0.017,-0.017 -0.027,-0.04 -0.027,-0.065l0 -2.835c0,-0.025 0.01,-0.048 0.027,-0.065 0.016,-0.016 0.039,-0.027 0.064,-0.027l1.582 0c0.009,0 0.017,0.004 0.023,0.01l0.668 0.668c0.007,0.007 0.01,0.015 0.01,0.023l0 1.11c0,0.018 -0.015,0.033 -0.033,0.033 -0.018,0 -0.032,-0.015 -0.032,-0.033l0 -1.096 -0.65 -0.649 -1.568 0c-0.007,0 -0.013,0.003 -0.018,0.007 -0.005,0.005 -0.008,0.012 -0.008,0.019l0 2.835c0,0.007 0.003,0.014 0.008,0.019 0.005,0.005 0.011,0.008 0.018,0.008l1.283 0z"/>
   <path class="fil3" d="M3.996 2.302l-0.611 0c-0.032,0 -0.057,-0.025 -0.057,-0.056l0 -0.612 0.668 0.668z"/>
   <path class="fil2" d="M3.996 2.335l-0.611 0c-0.025,0 -0.047,-0.01 -0.064,-0.026 -0.016,-0.016 -0.026,-0.039 -0.026,-0.063l0 -0.612c0,-0.018 0.015,-0.033 0.033,-0.033 0.009,0 0.017,0.004 0.023,0.01l0.668 0.668c0.013,0.013 0.013,0.034 0,0.047 -0.006,0.006 -0.014,0.009 -0.023,0.009zm-0.611 -0.065l0.532 0 -0.557 -0.557 0 0.533c0,0.006 0.003,0.012 0.008,0.017 0.004,0.004 0.01,0.007 0.017,0.007z"/>
   <path class="fil4" d="M2.18 2.519c0.023,-0.006 0.068,0.011 0.098,0.018 0.075,0.018 0.167,0.018 0.243,0 0.03,-0.007 0.075,-0.024 0.098,-0.018 0.023,0.006 0.075,0.043 0.08,0.102l0.016 0.175c0.001,0.015 -0.013,0.027 -0.028,0.027l-0.576 0c-0.015,0 -0.028,-0.012 -0.027,-0.027l0.015 -0.175c0.005,-0.059 0.058,-0.096 0.081,-0.102z"/>
   <path class="fil2" d="M2.171 2.487c0.026,-0.007 0.061,0.003 0.091,0.012 0.008,0.002 0.016,0.004 0.023,0.006l0.003 0.001c0.034,0.008 0.073,0.012 0.111,0.012 0.04,0 0.079,-0.005 0.114,-0.013l0.023 -0.006c0.031,-0.009 0.065,-0.019 0.091,-0.012l0.002 0.001c0.019,0.005 0.049,0.024 0.071,0.052 0.016,0.02 0.029,0.047 0.032,0.078l0.015 0.175 0 0.005c0,0.016 -0.006,0.03 -0.017,0.04 -0.01,0.01 -0.023,0.016 -0.037,0.018 -0.191,0.005 -0.39,0 -0.582,0l-0.005 0c-0.014,-0.002 -0.028,-0.008 -0.037,-0.018 -0.011,-0.01 -0.018,-0.024 -0.018,-0.04 0.004,-0.06 0.01,-0.12 0.016,-0.18 0.002,-0.031 0.015,-0.058 0.032,-0.078 0.022,-0.029 0.054,-0.048 0.072,-0.053zm0.074 0.075c-0.023,-0.007 -0.048,-0.014 -0.057,-0.012 -0.009,0.002 -0.025,0.013 -0.038,0.03 -0.009,0.012 -0.017,0.027 -0.018,0.044l-0.015 0.167 0.564 0 -0.014 -0.167c-0.002,-0.017 -0.009,-0.032 -0.018,-0.044 -0.013,-0.017 -0.029,-0.027 -0.037,-0.03l-0.001 0c-0.009,-0.002 -0.035,0.005 -0.057,0.012 -0.009,0.002 -0.018,0.005 -0.026,0.006 -0.04,0.01 -0.085,0.015 -0.129,0.015 -0.043,0 -0.086,-0.005 -0.126,-0.014l-0.003 -0.001c-0.007,-0.001 -0.016,-0.004 -0.025,-0.006z"/>
   <path class="fil4" d="M2.398 2.036c0.117,0 0.212,0.094 0.212,0.211 0,0.117 -0.095,0.212 -0.212,0.212 -0.117,0 -0.211,-0.095 -0.211,-0.212 0,-0.117 0.094,-0.211 0.211,-0.211z"/>
   <path class="fil2" d="M2.398 2.003c0.068,0 0.129,0.027 0.173,0.072 0.044,0.044 0.071,0.105 0.071,0.172 0,0.068 -0.027,0.129 -0.071,0.173 -0.044,0.044 -0.105,0.071 -0.173,0.071 -0.067,0 -0.128,-0.027 -0.172,-0.071 -0.045,-0.044 -0.072,-0.105 -0.072,-0.173 0,-0.067 0.027,-0.128 0.072,-0.172 0.044,-0.045 0.105,-0.072 0.172,-0.072zm0.127 0.118c-0.033,-0.033 -0.077,-0.053 -0.127,-0.053 -0.049,0 -0.094,0.02 -0.126,0.053 -0.033,0.032 -0.053,0.077 -0.053,0.126 0,0.05 0.02,0.094 0.053,0.127 0.032,0.032 0.077,0.052 0.126,0.052 0.05,0 0.094,-0.02 0.127,-0.052 0.032,-0.033 0.052,-0.077 0.052,-0.127 0,-0.049 -0.02,-0.094 -0.052,-0.126z"/>
   <path class="fil2" d="M2.084 3.241c-0.018,0 -0.033,-0.015 -0.033,-0.033 0,-0.018 0.015,-0.032 0.033,-0.032l1.516 0c0.018,0 0.032,0.014 0.032,0.032 0,0.018 -0.014,0.033 -0.032,0.033l-1.516 0z"/>
   <path class="fil2" d="M2.084 3.626c-0.018,0 -0.033,-0.015 -0.033,-0.033 0,-0.018 0.015,-0.033 0.033,-0.033l0.758 0c0.018,0 0.032,0.015 0.032,0.033 0,0.018 -0.014,0.033 -0.032,0.033l-0.758 0z"/>
   <path class="fil2" d="M2.914 2.868c-0.018,0 -0.033,-0.015 -0.033,-0.033 0,-0.018 0.015,-0.033 0.033,-0.033l0.686 0c0.018,0 0.032,0.015 0.032,0.033 0,0.018 -0.014,0.033 -0.032,0.033l-0.686 0z"/>
   <path class="fil2" d="M2.084 4.011c-0.018,0 -0.033,-0.015 -0.033,-0.033 0,-0.018 0.015,-0.033 0.033,-0.033l0.758 0c0.018,0 0.032,0.015 0.032,0.033 0,0.018 -0.014,0.033 -0.032,0.033l-0.758 0z"/>
   <polygon class="fil5" points="3.62,4.456 3.828,4.902 3.933,4.731 4.132,4.76 3.943,4.355 "/>
   <polygon class="fil5" points="3.672,4.456 3.464,4.902 3.358,4.731 3.16,4.76 3.349,4.355 "/>
   <path class="fil2" d="M3.701 4.47l-0.208 0.446c-0.007,0.016 -0.027,0.023 -0.043,0.016 -0.007,-0.004 -0.012,-0.009 -0.016,-0.015l-0.092 -0.15 -0.178 0.025c-0.017,0.003 -0.034,-0.009 -0.037,-0.027 -0.001,-0.007 0,-0.013 0.003,-0.019l0.189 -0.405c0.007,-0.015 0.025,-0.022 0.041,-0.016l0.321 0.1c0.017,0.005 0.027,0.023 0.022,0.041l-0.002 0.004zm-0.241 0.363l0.166 -0.357 -0.26 -0.081 -0.151 0.324 0.139 -0.02c0.012,-0.002 0.025,0.004 0.032,0.015l0.074 0.119z"/>
   <path class="fil2" d="M3.703 4.712c-0.007,-0.017 0,-0.036 0.016,-0.044 0.016,-0.007 0.036,0 0.043,0.016l0.07 0.149 0.074 -0.119c0.007,-0.011 0.02,-0.017 0.032,-0.015l0.139 0.02 -0.164 -0.35c-0.007,-0.016 0,-0.036 0.016,-0.043 0.017,-0.008 0.036,-0.001 0.044,0.015l0.189 0.405c0.002,0.006 0.003,0.012 0.002,0.019 -0.002,0.018 -0.019,0.03 -0.037,0.027l-0.177 -0.025 -0.093 0.15c-0.003,0.006 -0.008,0.011 -0.015,0.015 -0.017,0.007 -0.036,0 -0.044,-0.016l-0.095 -0.204z"/>
   <polygon class="fil4" points="3.094,3.99 3.21,3.854 3.2,3.665 3.373,3.623 3.476,3.465 3.641,3.532 3.818,3.465 3.912,3.616 4.094,3.665 4.081,3.843 4.2,3.99 4.085,4.126 4.094,4.315 3.921,4.357 3.818,4.516 3.653,4.448 3.476,4.516 3.383,4.364 3.2,4.315 3.213,4.137 "/>
   <path class="fil2" d="M3.07 3.969l0.106 -0.126 -0.009 -0.176c0,-0.016 0.011,-0.03 0.026,-0.034l0.16 -0.039 0.096 -0.147c0.009,-0.014 0.027,-0.019 0.042,-0.012l0.151 0.062 0.164 -0.063c0.016,-0.006 0.034,0.001 0.041,0.016l0.086 0.138 0.17 0.046c0.015,0.004 0.025,0.019 0.024,0.034l-0.012 0.165 0.11 0.137c0.01,0.012 0.01,0.03 0,0.041l-0.107 0.126 0.009 0.177c0.001,0.016 -0.011,0.03 -0.026,0.033l-0.159 0.039 -0.097 0.148c-0.009,0.014 -0.027,0.018 -0.041,0.011l-0.151 -0.062 -0.165 0.063c-0.016,0.006 -0.033,-0.001 -0.041,-0.015l-0.085 -0.138 -0.17 -0.046c-0.016,-0.005 -0.026,-0.019 -0.024,-0.035l0.012 -0.164 -0.111 -0.137c-0.01,-0.013 -0.009,-0.03 0.001,-0.042zm0.165 -0.094l-0.098 0.116 0.101 0.125c0.005,0.006 0.008,0.015 0.008,0.024l-0.011 0.151 0.156 0.042c0.008,0.002 0.015,0.007 0.019,0.014l0.08 0.129 0.152 -0.058c0.007,-0.003 0.015,-0.003 0.023,0l0.14 0.058 0.089 -0.136c0.004,-0.007 0.011,-0.012 0.02,-0.014l0.146 -0.036 -0.008 -0.161c0,-0.008 0.002,-0.017 0.008,-0.024l0.098 -0.115 -0.101 -0.125c-0.006,-0.007 -0.009,-0.015 -0.008,-0.024l0.011 -0.151 -0.157 -0.042c-0.007,-0.003 -0.014,-0.008 -0.019,-0.015l-0.079 -0.128 -0.152 0.058c-0.008,0.002 -0.016,0.002 -0.024,-0.001l-0.14 -0.057 -0.089 0.136c-0.004,0.006 -0.011,0.012 -0.019,0.014l-0.147 0.036 0.008 0.16c0.001,0.009 -0.002,0.017 -0.007,0.024z"/>
   <path class="fil5" d="M3.647 3.699c0.161,0 0.291,0.13 0.291,0.291 0,0.161 -0.13,0.291 -0.291,0.291 -0.161,0 -0.291,-0.13 -0.291,-0.291 0,-0.161 0.13,-0.291 0.291,-0.291z"/>
   <path class="fil2" d="M3.647 3.666c0.09,0 0.171,0.037 0.229,0.095l0.002 0.002c0.058,0.059 0.093,0.139 0.093,0.227 0,0.09 -0.036,0.171 -0.095,0.229l-0.002 0.002c-0.058,0.058 -0.138,0.093 -0.227,0.093 -0.089,0 -0.17,-0.036 -0.229,-0.095 -0.058,-0.058 -0.095,-0.139 -0.095,-0.229 0,-0.089 0.037,-0.17 0.095,-0.229 0.059,-0.058 0.14,-0.095 0.229,-0.095zm0.183 0.141c-0.047,-0.046 -0.111,-0.075 -0.183,-0.075 -0.071,0 -0.136,0.029 -0.183,0.075 -0.046,0.047 -0.075,0.112 -0.075,0.183 0,0.072 0.029,0.136 0.075,0.183 0.047,0.047 0.112,0.076 0.183,0.076 0.071,0 0.135,-0.029 0.182,-0.074l0.001 -0.002c0.047,-0.047 0.076,-0.111 0.076,-0.183 0,-0.07 -0.028,-0.134 -0.074,-0.181l-0.002 -0.002z"/>
  </g>
 </g>
</svg>
