<?xml version="1.0" encoding="UTF-8"?>
<!DOCTYPE svg PUBLIC "-//W3C//DTD SVG 1.1//EN" "http://www.w3.org/Graphics/SVG/1.1/DTD/svg11.dtd">
<!-- Creator: CorelDRAW 2018 (64-Bit) -->
<svg xmlns="http://www.w3.org/2000/svg" xml:space="preserve" width="88px" height="100px" version="1.1" style="shape-rendering:geometricPrecision; text-rendering:geometricPrecision; image-rendering:optimizeQuality; fill-rule:evenodd; clip-rule:evenodd"
viewBox="0 0 8.712 9.891"
 xmlns:xlink="http://www.w3.org/1999/xlink">
 <defs>
  <style type="text/css">
   <![CDATA[
    .fil3 {fill:#00F4FF}
    .fil0 {fill:#B0C2FC}
    .fil4 {fill:#EAEDF2}
    .fil1 {fill:white}
    .fil2 {fill:gray;fill-rule:nonzero}
   ]]>
  </style>
 </defs>
 <g id="Layer_x0020_1">
  <metadata id="CorelCorpID_0Corel-Layer"/>
  <g id="_2082106829728">
   <path class="fil0" d="M4.626 0.074l3.819 2.205c0.169,0.098 0.264,0.275 0.264,0.458l0.003 0 0 4.417c0,0.214 -0.127,0.399 -0.31,0.483l-3.783 2.184c-0.171,0.098 -0.375,0.09 -0.533,-0.004l-3.819 -2.205c-0.17,-0.098 -0.265,-0.275 -0.265,-0.458l-0.002 0 0 -4.417c0,-0.215 0.127,-0.399 0.31,-0.483l3.783 -2.184c0.171,-0.098 0.374,-0.09 0.533,0.004z"/>
   <polygon class="fil1" points="3.915,3.008 5.812,2.819 5.812,7.072 1.903,7.072 1.903,4.277 3.915,4.077 "/>
   <path class="fil2" d="M1.952 7.072c0,0.027 -0.022,0.049 -0.049,0.049 -0.028,0 -0.05,-0.022 -0.05,-0.049l0 -2.795c0,-0.027 0.022,-0.049 0.049,-0.049l2.372 -0.236c0.027,-0.003 0.051,0.017 0.053,0.044 0.003,0.027 -0.017,0.051 -0.044,0.054l-2.331 0.232 0 2.75z"/>
   <path class="fil3" d="M2.357 6.729l1.467 -0.012 0 0.355 -1.467 0 0 -0.343zm0 -2.002l1.467 -0.084 0 0.355 -1.467 0.072 0 -0.343zm0 0.667l1.467 -0.06 0 0.355 -1.467 0.048 0 -0.343zm0 0.668l1.467 -0.036 0 0.355 -1.467 0.024 0 -0.343z"/>
   <path class="fil2" d="M2.361 6.68l1.463 -0.012c0.027,-0.001 0.049,0.021 0.05,0.048l0 0.356c0,0.027 -0.022,0.049 -0.05,0.049l-1.467 0c-0.028,0 -0.05,-0.022 -0.05,-0.049l0 -0.343c0,-0.027 0.022,-0.049 0.05,-0.049l0.004 0zm1.414 0.087l-1.369 0.011 0 0.245 1.369 0 0 -0.256zm-1.418 -2.09l1.465 -0.083c0.027,-0.002 0.05,0.019 0.052,0.046l0 0.358c0,0.027 -0.022,0.05 -0.05,0.05l-1.465 0.071c-0.027,0.001 -0.05,-0.02 -0.052,-0.047l0 -0.345c0,-0.027 0.022,-0.05 0.05,-0.05l0 0zm1.418 0.018l-1.369 0.078 0 0.245 1.369 -0.067 0 -0.256zm-1.416 0.65l1.463 -0.06c0.028,-0.001 0.05,0.02 0.052,0.047l0 0.357c0,0.028 -0.022,0.05 -0.05,0.05l-1.466 0.047c-0.027,0.001 -0.05,-0.02 -0.051,-0.047l0 -0.345c0,-0.027 0.022,-0.049 0.05,-0.049l0.002 0zm1.416 0.041l-1.369 0.056 0 0.244 1.369 -0.044 0 -0.256zm-1.415 0.626l1.463 -0.036c0.027,0 0.05,0.021 0.051,0.048l0 0.357c0,0.027 -0.022,0.049 -0.05,0.049l-1.466 0.024c-0.028,0 -0.05,-0.021 -0.051,-0.049l0 -0.343c0,-0.028 0.022,-0.05 0.05,-0.05l0.003 0zm1.415 0.064l-1.369 0.034 0 0.245 1.369 -0.023 0 -0.256z"/>
   <polygon class="fil4" points="4.278,4.041 5.279,4.4 5.279,7.072 4.278,7.072 "/>
   <path class="fil2" d="M4.3 3.996l0.995 0.357c0.02,0.007 0.033,0.026 0.033,0.047l0 2.672c0,0.027 -0.022,0.049 -0.049,0.049l-1.001 0c-0.027,0 -0.049,-0.022 -0.049,-0.049l0 -3.031c0,-0.028 0.022,-0.05 0.049,-0.05 0.008,0 0.015,0.002 0.022,0.005zm0.929 0.438l-0.901 -0.323 0 2.912 0.901 0 0 -2.589z"/>
   <path class="fil2" d="M3.965 4.077c0,0.027 -0.022,0.049 -0.05,0.049 -0.027,0 -0.049,-0.022 -0.049,-0.049l0 -1.069c0,-0.027 0.021,-0.049 0.048,-0.049l1.894 -0.189c0.027,-0.003 0.051,0.017 0.053,0.044 0.003,0.027 -0.017,0.051 -0.044,0.054l-1.852 0.185 0 1.024z"/>
   <polygon class="fil4" points="5.812,2.819 6.611,3.106 6.611,7.072 5.812,7.072 "/>
   <path class="fil2" d="M5.834 2.774l0.794 0.285c0.02,0.007 0.032,0.026 0.032,0.047l0.001 3.966c0,0.027 -0.022,0.049 -0.05,0.049l-0.799 0c-0.027,0 -0.049,-0.022 -0.049,-0.049l0 -4.253c0,-0.027 0.022,-0.05 0.049,-0.05 0.008,0 0.015,0.002 0.022,0.005zm0.728 0.366l-0.7 -0.251 0 4.134 0.7 0 0 -3.883z"/>
  </g>
 </g>
</svg>
