<?xml version="1.0" encoding="UTF-8"?>
<!DOCTYPE svg PUBLIC "-//W3C//DTD SVG 1.1//EN" "http://www.w3.org/Graphics/SVG/1.1/DTD/svg11.dtd">
<!-- Creator: CorelDRAW 2018 (64-Bit) -->
<svg xmlns="http://www.w3.org/2000/svg" xml:space="preserve" width="88px" height="100px" version="1.1" style="shape-rendering:geometricPrecision; text-rendering:geometricPrecision; image-rendering:optimizeQuality; fill-rule:evenodd; clip-rule:evenodd"
viewBox="0 0 17.871 20.29"
 xmlns:xlink="http://www.w3.org/1999/xlink">
 <defs>
  <style type="text/css">
   <![CDATA[
    .fil3 {fill:#00F4FF}
    .fil0 {fill:#7FB0FF}
    .fil1 {fill:white}
    .fil4 {fill:white}
    .fil2 {fill:gray;fill-rule:nonzero}
   ]]>
  </style>
 </defs>
 <g id="Layer_x0020_1">
  <metadata id="CorelCorpID_0Corel-Layer"/>
  <g id="_2082017963296">
   <path class="fil0" d="M9.49 0.153l7.833 4.522c0.348,0.2 0.543,0.564 0.544,0.939l0.004 0 0 9.062c0,0.44 -0.261,0.818 -0.635,0.99l-7.761 4.48c-0.351,0.202 -0.768,0.185 -1.094,-0.008l-7.833 -4.523c-0.348,-0.2 -0.543,-0.564 -0.543,-0.939l-0.005 0 0 -9.062c0,-0.439 0.261,-0.818 0.636,-0.989l7.76 -4.481c0.351,-0.202 0.768,-0.185 1.094,0.009z"/>
   <polygon class="fil1" points="8.936,5.506 10.944,6.666 12.953,7.825 12.953,10.145 12.953,12.465 10.944,13.624 8.936,14.784 6.927,13.624 4.918,12.465 4.918,10.145 4.918,7.825 6.927,6.666 "/>
   <path class="fil2" d="M8.834 6.764c0,-0.056 0.046,-0.102 0.102,-0.102 0.056,0 0.101,0.046 0.101,0.102l0 1.186c0,0.056 -0.045,0.102 -0.101,0.102 -0.056,0 -0.102,-0.046 -0.102,-0.102l0 -1.186z"/>
   <path class="fil2" d="M5.957 8.542c-0.048,-0.028 -0.065,-0.089 -0.037,-0.138 0.028,-0.048 0.089,-0.065 0.138,-0.037l1.027 0.593c0.048,0.028 0.065,0.09 0.037,0.138 -0.028,0.048 -0.089,0.065 -0.138,0.037l-1.027 -0.593z"/>
   <path class="fil2" d="M4.836 8.495c0,-0.056 0.045,-0.101 0.101,-0.101 0.056,0 0.102,0.045 0.102,0.101l0 2.662c0,0.056 -0.046,0.101 -0.102,0.101 -0.056,0 -0.101,-0.045 -0.101,-0.101l0 -2.662z"/>
   <path class="fil2" d="M5.427 12.853c-0.048,-0.028 -0.065,-0.09 -0.037,-0.138 0.028,-0.049 0.09,-0.065 0.138,-0.037l2.305 1.331c0.049,0.028 0.065,0.09 0.037,0.138 -0.028,0.048 -0.09,0.065 -0.138,0.037l-2.305 -1.331z"/>
   <path class="fil2" d="M9.557 14.52c-0.049,0.028 -0.111,0.012 -0.139,-0.037 -0.028,-0.048 -0.011,-0.11 0.037,-0.138l2.305 -1.331c0.048,-0.028 0.11,-0.011 0.138,0.037 0.028,0.048 0.012,0.11 -0.037,0.138l-2.304 1.331z"/>
   <path class="fil2" d="M13.035 11.795c0,0.056 -0.045,0.101 -0.101,0.101 -0.056,0 -0.102,-0.045 -0.102,-0.101l0 -2.661c0,-0.056 0.046,-0.102 0.102,-0.102 0.056,0 0.101,0.046 0.101,0.102l0 2.661z"/>
   <path class="fil2" d="M12.444 7.437c0.048,0.028 0.065,0.09 0.037,0.138 -0.028,0.049 -0.09,0.065 -0.138,0.037l-2.305 -1.331c-0.048,-0.028 -0.065,-0.089 -0.037,-0.138 0.028,-0.048 0.09,-0.065 0.138,-0.037l2.305 1.331z"/>
   <path class="fil2" d="M8.314 5.77c0.049,-0.028 0.111,-0.011 0.139,0.037 0.028,0.048 0.011,0.11 -0.037,0.138l-2.305 1.331c-0.048,0.028 -0.11,0.011 -0.138,-0.037 -0.028,-0.048 -0.012,-0.11 0.037,-0.138l2.304 -1.331z"/>
   <path class="fil2" d="M6.058 11.923c-0.049,0.028 -0.11,0.011 -0.138,-0.037 -0.028,-0.048 -0.011,-0.11 0.037,-0.138l1.027 -0.593c0.049,-0.028 0.11,-0.011 0.138,0.037 0.028,0.049 0.011,0.11 -0.037,0.138l-1.027 0.593z"/>
   <path class="fil2" d="M9.037 13.526c0,0.056 -0.045,0.102 -0.101,0.102 -0.056,0 -0.102,-0.046 -0.102,-0.102l0 -1.186c0,-0.056 0.046,-0.101 0.102,-0.101 0.056,0 0.101,0.045 0.101,0.101l0 1.186z"/>
   <path class="fil2" d="M11.914 11.748c0.048,0.028 0.065,0.09 0.037,0.138 -0.028,0.048 -0.089,0.065 -0.138,0.037l-1.027 -0.593c-0.048,-0.028 -0.065,-0.089 -0.037,-0.138 0.028,-0.048 0.089,-0.065 0.138,-0.037l1.027 0.593z"/>
   <path class="fil2" d="M11.813 8.367c0.049,-0.028 0.11,-0.011 0.138,0.037 0.028,0.049 0.011,0.11 -0.037,0.138l-1.027 0.593c-0.049,0.028 -0.11,0.011 -0.138,-0.037 -0.028,-0.048 -0.011,-0.11 0.037,-0.138l1.027 -0.593z"/>
   <path class="fil3" d="M8.936 8.586c0.861,0 1.559,0.698 1.559,1.559 0,0.861 -0.698,1.559 -1.559,1.559 -0.862,0 -1.56,-0.698 -1.56,-1.559 0,-0.861 0.698,-1.559 1.56,-1.559z"/>
   <path class="fil2" d="M8.936 8.484c0.458,0 0.873,0.186 1.174,0.487 0.3,0.3 0.486,0.716 0.486,1.174 0,0.459 -0.186,0.874 -0.486,1.174 -0.301,0.301 -0.716,0.487 -1.174,0.487 -0.459,0 -0.874,-0.186 -1.175,-0.487 -0.3,-0.3 -0.486,-0.715 -0.486,-1.174 0,-0.458 0.186,-0.874 0.486,-1.174 0.301,-0.301 0.716,-0.487 1.175,-0.487zm1.03 0.63c-0.263,-0.263 -0.628,-0.427 -1.03,-0.427 -0.403,0 -0.767,0.164 -1.031,0.427 -0.264,0.264 -0.427,0.629 -0.427,1.031 0,0.403 0.163,0.767 0.427,1.031 0.264,0.264 0.628,0.427 1.031,0.427 0.402,0 0.767,-0.163 1.03,-0.427 0.264,-0.264 0.427,-0.628 0.427,-1.031 0,-0.402 -0.163,-0.767 -0.427,-1.031z"/>
   <path class="fil4" d="M4.937 7.178c0.364,0 0.659,0.295 0.659,0.659 0,0.363 -0.295,0.658 -0.659,0.658 -0.363,0 -0.658,-0.295 -0.658,-0.658 0,-0.364 0.295,-0.659 0.658,-0.659z"/>
   <path class="fil2" d="M4.937 7.077c0.21,0 0.4,0.085 0.538,0.222 0.137,0.138 0.222,0.328 0.222,0.538 0,0.209 -0.085,0.4 -0.222,0.537 -0.138,0.138 -0.328,0.223 -0.538,0.223 -0.21,0 -0.4,-0.085 -0.537,-0.223 -0.138,-0.137 -0.223,-0.328 -0.223,-0.537 0,-0.21 0.085,-0.4 0.223,-0.538 0.137,-0.137 0.327,-0.222 0.537,-0.222zm0.394 0.366c-0.101,-0.101 -0.24,-0.163 -0.394,-0.163 -0.154,0 -0.293,0.062 -0.394,0.163 -0.1,0.1 -0.163,0.24 -0.163,0.394 0,0.153 0.063,0.293 0.163,0.394 0.101,0.1 0.24,0.163 0.394,0.163 0.154,0 0.294,-0.063 0.394,-0.163 0.101,-0.101 0.163,-0.241 0.163,-0.394 0,-0.154 -0.062,-0.294 -0.163,-0.394z"/>
   <path class="fil4" d="M4.937 11.73c0.364,0 0.659,0.295 0.659,0.659 0,0.364 -0.295,0.659 -0.659,0.659 -0.363,0 -0.658,-0.295 -0.658,-0.659 0,-0.364 0.295,-0.659 0.658,-0.659z"/>
   <path class="fil2" d="M4.937 11.629c0.21,0 0.4,0.085 0.538,0.223 0.137,0.137 0.222,0.327 0.222,0.537 0,0.21 -0.085,0.4 -0.222,0.537 -0.138,0.138 -0.328,0.223 -0.538,0.223 -0.21,0 -0.4,-0.085 -0.537,-0.223 -0.138,-0.137 -0.223,-0.327 -0.223,-0.537 0,-0.21 0.085,-0.4 0.223,-0.537 0.137,-0.138 0.327,-0.223 0.537,-0.223zm0.394 0.366c-0.101,-0.101 -0.24,-0.163 -0.394,-0.163 -0.154,0 -0.293,0.062 -0.394,0.163 -0.1,0.101 -0.163,0.24 -0.163,0.394 0,0.154 0.063,0.293 0.163,0.394 0.101,0.101 0.24,0.163 0.394,0.163 0.154,0 0.293,-0.062 0.394,-0.163 0.101,-0.101 0.163,-0.24 0.163,-0.394 0,-0.154 -0.062,-0.293 -0.163,-0.394z"/>
   <path class="fil4" d="M8.936 14.103c0.363,0 0.658,0.295 0.658,0.659 0,0.364 -0.295,0.659 -0.658,0.659 -0.364,0 -0.659,-0.295 -0.659,-0.659 0,-0.364 0.295,-0.659 0.659,-0.659z"/>
   <path class="fil2" d="M8.936 14.002c0.209,0 0.399,0.085 0.537,0.222 0.137,0.138 0.223,0.328 0.223,0.538 0,0.21 -0.086,0.4 -0.223,0.537 -0.138,0.138 -0.328,0.223 -0.537,0.223 -0.21,0 -0.4,-0.085 -0.538,-0.223 -0.137,-0.137 -0.223,-0.327 -0.223,-0.537 0,-0.21 0.086,-0.4 0.223,-0.538 0.138,-0.137 0.328,-0.222 0.538,-0.222zm0.394 0.366c-0.101,-0.101 -0.241,-0.163 -0.394,-0.163 -0.154,0 -0.294,0.062 -0.394,0.163 -0.101,0.101 -0.164,0.24 -0.164,0.394 0,0.154 0.063,0.293 0.164,0.394 0.1,0.101 0.24,0.163 0.394,0.163 0.153,0 0.293,-0.062 0.394,-0.163 0.1,-0.101 0.163,-0.24 0.163,-0.394 0,-0.154 -0.063,-0.293 -0.163,-0.394z"/>
   <path class="fil4" d="M12.934 11.795c0.363,0 0.658,0.295 0.658,0.659 0,0.363 -0.295,0.658 -0.658,0.658 -0.364,0 -0.659,-0.295 -0.659,-0.658 0,-0.364 0.295,-0.659 0.659,-0.659z"/>
   <path class="fil2" d="M12.934 11.693c0.21,0 0.4,0.086 0.537,0.223 0.138,0.138 0.223,0.328 0.223,0.538 0,0.209 -0.085,0.399 -0.223,0.537 -0.137,0.137 -0.327,0.223 -0.537,0.223 -0.21,0 -0.4,-0.086 -0.538,-0.223 -0.137,-0.138 -0.222,-0.328 -0.222,-0.537 0,-0.21 0.085,-0.4 0.222,-0.538 0.138,-0.137 0.328,-0.223 0.538,-0.223zm0.394 0.367c-0.101,-0.101 -0.24,-0.164 -0.394,-0.164 -0.154,0 -0.293,0.063 -0.394,0.164 -0.101,0.1 -0.163,0.24 -0.163,0.394 0,0.153 0.062,0.293 0.163,0.393 0.101,0.101 0.24,0.164 0.394,0.164 0.154,0 0.293,-0.063 0.394,-0.164 0.101,-0.1 0.163,-0.24 0.163,-0.393 0,-0.154 -0.062,-0.294 -0.163,-0.394z"/>
   <path class="fil4" d="M12.934 7.178c0.363,0 0.658,0.295 0.658,0.659 0,0.363 -0.295,0.658 -0.658,0.658 -0.364,0 -0.659,-0.295 -0.659,-0.658 0,-0.364 0.295,-0.659 0.659,-0.659z"/>
   <path class="fil2" d="M12.934 7.077c0.21,0 0.4,0.085 0.537,0.222 0.138,0.138 0.223,0.328 0.223,0.538 0,0.209 -0.085,0.4 -0.223,0.537 -0.137,0.138 -0.327,0.223 -0.537,0.223 -0.21,0 -0.4,-0.085 -0.538,-0.223 -0.137,-0.137 -0.222,-0.328 -0.222,-0.537 0,-0.21 0.085,-0.4 0.222,-0.538 0.138,-0.137 0.328,-0.222 0.538,-0.222zm0.394 0.366c-0.101,-0.101 -0.24,-0.163 -0.394,-0.163 -0.154,0 -0.293,0.062 -0.394,0.163 -0.101,0.1 -0.163,0.24 -0.163,0.394 0,0.153 0.062,0.293 0.163,0.394 0.101,0.1 0.24,0.163 0.394,0.163 0.154,0 0.293,-0.063 0.394,-0.163 0.101,-0.101 0.163,-0.241 0.163,-0.394 0,-0.154 -0.062,-0.294 -0.163,-0.394z"/>
   <path class="fil4" d="M8.936 4.87c0.363,0 0.658,0.295 0.658,0.658 0,0.364 -0.295,0.659 -0.658,0.659 -0.364,0 -0.659,-0.295 -0.659,-0.659 0,-0.363 0.295,-0.658 0.659,-0.658z"/>
   <path class="fil2" d="M8.936 4.768c0.209,0 0.399,0.085 0.537,0.223 0.137,0.137 0.223,0.327 0.223,0.537 0,0.21 -0.086,0.4 -0.223,0.538 -0.138,0.137 -0.328,0.222 -0.537,0.222 -0.21,0 -0.4,-0.085 -0.538,-0.222 -0.137,-0.138 -0.223,-0.328 -0.223,-0.538 0,-0.21 0.086,-0.4 0.223,-0.537 0.138,-0.138 0.328,-0.223 0.538,-0.223zm0.394 0.366c-0.101,-0.1 -0.241,-0.163 -0.394,-0.163 -0.154,0 -0.294,0.063 -0.394,0.163 -0.101,0.101 -0.164,0.24 -0.164,0.394 0,0.154 0.063,0.293 0.164,0.394 0.1,0.101 0.24,0.163 0.394,0.163 0.153,0 0.293,-0.062 0.394,-0.163 0.1,-0.101 0.163,-0.24 0.163,-0.394 0,-0.154 -0.063,-0.293 -0.163,-0.394z"/>
  </g>
 </g>
</svg>
