<?xml version="1.0" encoding="UTF-8"?>
<!DOCTYPE svg PUBLIC "-//W3C//DTD SVG 1.1//EN" "http://www.w3.org/Graphics/SVG/1.1/DTD/svg11.dtd">
<!-- Creator: CorelDRAW 2018 (64-Bit) -->
<svg xmlns="http://www.w3.org/2000/svg" xml:space="preserve" width="88px" height="100px" version="1.1" style="shape-rendering:geometricPrecision; text-rendering:geometricPrecision; image-rendering:optimizeQuality; fill-rule:evenodd; clip-rule:evenodd"
viewBox="0 0 4.304 4.886"
 xmlns:xlink="http://www.w3.org/1999/xlink">
 <defs>
  <style type="text/css">
   <![CDATA[
    .fil5 {fill:#00F4FF}
    .fil4 {fill:gray}
    .fil3 {fill:#EAEDF2}
    .fil0 {fill:#FFE552}
    .fil1 {fill:white}
    .fil6 {fill:gray;fill-rule:nonzero}
    .fil2 {fill:gray;fill-rule:nonzero}
   ]]>
  </style>
 </defs>
 <g id="Layer_x0020_1">
  <metadata id="CorelCorpID_0Corel-Layer"/>
  <g id="_2117500059072">
   <path class="fil0" d="M2.285 0.037l1.887 1.089c0.084,0.048 0.131,0.136 0.131,0.226l0.001 0 0 2.182c0,0.106 -0.063,0.197 -0.153,0.239l-1.869 1.079c-0.085,0.048 -0.185,0.044 -0.264,-0.002l-1.886 -1.09c-0.084,-0.048 -0.131,-0.135 -0.131,-0.226l-0.001 0 0 -2.182c0,-0.106 0.063,-0.197 0.153,-0.238l1.869 -1.079c0.085,-0.049 0.185,-0.045 0.263,0.002z"/>
   <path class="fil1" d="M0.989 3.372l0 -1.548 2.326 0 0 1.548c0,0.026 -0.022,0.048 -0.049,0.048l-2.228 0c-0.027,0 -0.049,-0.022 -0.049,-0.048z"/>
   <path class="fil2" d="M0.964 3.372l0 -1.548c0,-0.013 0.011,-0.024 0.025,-0.024l2.326 0c0.014,0 0.024,0.011 0.024,0.024l0 1.548c0,0.02 -0.008,0.038 -0.021,0.051 -0.013,0.014 -0.032,0.022 -0.052,0.022l-2.228 0c-0.021,0 -0.039,-0.008 -0.052,-0.022 -0.014,-0.013 -0.022,-0.031 -0.022,-0.051zm0.049 -1.523l0 1.523c0,0.006 0.003,0.012 0.007,0.017 0.005,0.004 0.011,0.007 0.018,0.007l2.228 0c0.007,0 0.013,-0.003 0.017,-0.007 0.005,-0.005 0.008,-0.011 0.008,-0.017l0 -1.523 -2.278 0z"/>
   <path class="fil3" d="M0.989 1.824l0 -0.309c0,-0.027 0.022,-0.049 0.049,-0.049l2.228 0c0.027,0 0.049,0.022 0.049,0.049l0 0.309 -2.326 0z"/>
   <path class="fil2" d="M0.964 1.824l0 -0.309c0,-0.02 0.008,-0.039 0.022,-0.052 0.013,-0.013 0.031,-0.022 0.052,-0.022l2.228 0c0.02,0 0.039,0.009 0.052,0.022l0.001 0.002c0.013,0.013 0.02,0.03 0.02,0.05l0 0.309c0,0.014 -0.01,0.025 -0.024,0.025l-2.326 0c-0.014,0 -0.025,-0.011 -0.025,-0.025zm0.049 -0.309l0 0.285 2.278 0 0 -0.285c0,-0.007 -0.003,-0.012 -0.007,-0.017l-0.001 -0.001c-0.004,-0.004 -0.01,-0.007 -0.017,-0.007l-2.228 0c-0.007,0 -0.013,0.003 -0.018,0.007 -0.004,0.005 -0.007,0.011 -0.007,0.018z"/>
   <path class="fil4" d="M2.614 1.587c0.037,0 0.066,0.029 0.066,0.066 0,0.037 -0.029,0.067 -0.066,0.067 -0.037,0 -0.067,-0.03 -0.067,-0.067 0,-0.037 0.03,-0.066 0.067,-0.066z"/>
   <path class="fil4" d="M2.853 1.587c0.037,0 0.067,0.029 0.067,0.066 0,0.037 -0.03,0.067 -0.067,0.067 -0.037,0 -0.066,-0.03 -0.066,-0.067 0,-0.037 0.029,-0.066 0.066,-0.066z"/>
   <path class="fil4" d="M3.093 1.587c0.036,0 0.066,0.029 0.066,0.066 0,0.037 -0.03,0.067 -0.066,0.067 -0.037,0 -0.067,-0.03 -0.067,-0.067 0,-0.037 0.03,-0.066 0.067,-0.066z"/>
   <path class="fil5" d="M1.879 2.733c0.029,-0.008 0.085,0.013 0.122,0.022 0.094,0.023 0.208,0.023 0.302,0 0.037,-0.009 0.093,-0.03 0.121,-0.022 0.029,0.007 0.094,0.054 0.1,0.127l0.019 0.217c0.002,0.019 -0.015,0.034 -0.034,0.034l-0.715 0c-0.018,0 -0.035,-0.015 -0.033,-0.034l0.018 -0.217c0.007,-0.073 0.072,-0.12 0.1,-0.127z"/>
   <path class="fil6" d="M1.873 2.71c0.028,-0.007 0.069,0.005 0.104,0.015 0.011,0.003 0.022,0.006 0.029,0.008 0.045,0.01 0.095,0.016 0.146,0.016 0.05,0 0.1,-0.006 0.145,-0.016 0.008,-0.002 0.018,-0.005 0.029,-0.008 0.036,-0.01 0.077,-0.022 0.104,-0.015 0.021,0.006 0.056,0.026 0.082,0.059 0.018,0.024 0.033,0.054 0.036,0.089l0.018 0.217 0.001 0.005c0,0.014 -0.007,0.028 -0.017,0.037 -0.009,0.01 -0.022,0.016 -0.036,0.017l-0.005 0 -0.715 0 -0.004 0c-0.014,-0.001 -0.027,-0.007 -0.037,-0.017 -0.01,-0.009 -0.016,-0.023 -0.016,-0.037 0.004,-0.074 0.013,-0.149 0.019,-0.222 0.003,-0.035 0.018,-0.065 0.036,-0.089 0.026,-0.033 0.061,-0.053 0.081,-0.059zm0.092 0.06c-0.03,-0.009 -0.065,-0.018 -0.08,-0.014 -0.013,0.003 -0.037,0.018 -0.056,0.042 -0.013,0.017 -0.024,0.039 -0.026,0.064l-0.019 0.218c0,0.001 0.001,0.003 0.002,0.004 0.002,0.002 0.005,0.003 0.007,0.003 0.227,0.007 0.491,0.007 0.717,0 0.003,0 0.006,-0.001 0.008,-0.003 0.001,-0.001 0.002,-0.003 0.002,-0.004l-0.019 -0.218c-0.002,-0.025 -0.013,-0.047 -0.026,-0.064 -0.02,-0.024 -0.043,-0.039 -0.056,-0.042 -0.016,-0.004 -0.05,0.005 -0.08,0.014 -0.01,0.003 -0.02,0.005 -0.031,0.008 -0.049,0.012 -0.103,0.018 -0.156,0.018 -0.054,0 -0.107,-0.006 -0.157,-0.018 -0.01,-0.003 -0.02,-0.005 -0.03,-0.008z"/>
   <path class="fil5" d="M2.151 2.134c0.145,0 0.262,0.117 0.262,0.262 0,0.145 -0.117,0.263 -0.262,0.263 -0.145,0 -0.263,-0.118 -0.263,-0.263 0,-0.145 0.118,-0.262 0.263,-0.262z"/>
   <path class="fil6" d="M2.151 2.11c0.078,0 0.15,0.032 0.202,0.084 0.051,0.052 0.083,0.123 0.083,0.202 0,0.079 -0.032,0.15 -0.083,0.202 -0.052,0.052 -0.124,0.084 -0.202,0.084 -0.079,0 -0.151,-0.032 -0.203,-0.084l-0.001 -0.001c-0.051,-0.052 -0.082,-0.123 -0.082,-0.201 0,-0.079 0.032,-0.15 0.083,-0.202 0.052,-0.052 0.124,-0.084 0.203,-0.084zm0.169 0.117c-0.044,-0.043 -0.103,-0.07 -0.169,-0.07 -0.066,0 -0.126,0.027 -0.169,0.07 -0.044,0.043 -0.07,0.103 -0.07,0.169 0,0.066 0.026,0.125 0.068,0.168l0.002 0.001c0.043,0.043 0.103,0.07 0.169,0.07 0.066,0 0.125,-0.027 0.169,-0.07 0.043,-0.043 0.07,-0.103 0.07,-0.169 0,-0.066 -0.027,-0.126 -0.07,-0.169z"/>
  </g>
 </g>
</svg>
