<?xml version="1.0" encoding="UTF-8"?>
<!DOCTYPE svg PUBLIC "-//W3C//DTD SVG 1.1//EN" "http://www.w3.org/Graphics/SVG/1.1/DTD/svg11.dtd">
<!-- Creator: CorelDRAW 2018 (64-Bit) -->
<svg xmlns="http://www.w3.org/2000/svg" xml:space="preserve" width="88px" height="100px" version="1.1" style="shape-rendering:geometricPrecision; text-rendering:geometricPrecision; image-rendering:optimizeQuality; fill-rule:evenodd; clip-rule:evenodd"
viewBox="0 0 5.757 6.536"
 xmlns:xlink="http://www.w3.org/1999/xlink">
 <defs>
  <style type="text/css">
   <![CDATA[
    .fil5 {fill:#00F4FF}
    .fil4 {fill:gray}
    .fil0 {fill:#99F0FF}
    .fil3 {fill:#EAEDF2}
    .fil1 {fill:white}
    .fil2 {fill:gray;fill-rule:nonzero}
   ]]>
  </style>
 </defs>
 <g id="Layer_x0020_1">
  <metadata id="CorelCorpID_0Corel-Layer"/>
  <g id="_2082093709760">
   <path class="fil0" d="M3.057 0.049l2.523 1.457c0.112,0.064 0.175,0.182 0.175,0.302l0.002 0 0 2.92c0,0.141 -0.084,0.263 -0.205,0.318l-2.5 1.443c-0.113,0.066 -0.247,0.06 -0.352,-0.002l-2.523 -1.457c-0.113,-0.065 -0.175,-0.182 -0.176,-0.302l-0.001 0 0 -2.92c0,-0.141 0.084,-0.263 0.205,-0.318l2.5 -1.444c0.113,-0.065 0.247,-0.059 0.352,0.003z"/>
   <path class="fil1" d="M1.322 4.51l0 -2.07 3.112 0 0 2.07c0,0.036 -0.029,0.065 -0.065,0.065l-2.981 0c-0.036,0 -0.066,-0.029 -0.066,-0.065z"/>
   <path class="fil2" d="M1.29 4.51l0 -2.07c0,-0.018 0.014,-0.033 0.032,-0.033l3.112 0c0.018,0 0.033,0.015 0.033,0.033l0 2.07c0,0.027 -0.011,0.051 -0.029,0.069 -0.018,0.018 -0.042,0.029 -0.069,0.029l-2.981 0c-0.027,0 -0.052,-0.011 -0.069,-0.029 -0.018,-0.018 -0.029,-0.042 -0.029,-0.069zm0.065 -2.037l0 2.037c0,0.009 0.004,0.017 0.01,0.023 0.006,0.006 0.014,0.009 0.023,0.009l2.981 0c0.009,0 0.017,-0.003 0.023,-0.009 0.006,-0.006 0.01,-0.014 0.01,-0.023l0 -2.037 -3.047 0z"/>
   <path class="fil3" d="M1.322 2.44l0 -0.414c0,-0.036 0.03,-0.065 0.066,-0.065l2.981 0c0.036,0 0.065,0.029 0.065,0.065l0 0.414 -3.112 0z"/>
   <path class="fil2" d="M1.29 2.44l0 -0.414c0,-0.027 0.011,-0.051 0.029,-0.069 0.017,-0.018 0.042,-0.029 0.069,-0.029l2.981 0c0.027,0 0.051,0.011 0.069,0.029l0.002 0.002c0.017,0.018 0.027,0.041 0.027,0.067l0 0.414c0,0.018 -0.015,0.033 -0.033,0.033l-3.112 0c-0.018,0 -0.032,-0.015 -0.032,-0.033zm0.065 -0.414l0 0.381 3.047 0 0 -0.381c0,-0.008 -0.004,-0.016 -0.009,-0.022l-0.001 -0.001c-0.006,-0.006 -0.014,-0.01 -0.023,-0.01l-2.981 0c-0.009,0 -0.017,0.004 -0.023,0.01 -0.006,0.006 -0.01,0.014 -0.01,0.023z"/>
   <path class="fil4" d="M3.496 2.122c0.049,0 0.089,0.04 0.089,0.089 0,0.049 -0.04,0.089 -0.089,0.089 -0.049,0 -0.089,-0.04 -0.089,-0.089 0,-0.049 0.04,-0.089 0.089,-0.089z"/>
   <path class="fil4" d="M3.816 2.122c0.05,0 0.089,0.04 0.089,0.089 0,0.049 -0.039,0.089 -0.089,0.089 -0.049,0 -0.088,-0.04 -0.088,-0.089 0,-0.049 0.039,-0.089 0.088,-0.089z"/>
   <path class="fil4" d="M4.137 2.122c0.049,0 0.089,0.04 0.089,0.089 0,0.049 -0.04,0.089 -0.089,0.089 -0.05,0 -0.089,-0.04 -0.089,-0.089 0,-0.049 0.039,-0.089 0.089,-0.089z"/>
   <path class="fil2" d="M2.967 4.173c0.018,0 0.033,0.014 0.033,0.032 0,0.018 -0.015,0.033 -0.033,0.033l-0.686 0c-0.018,0 -0.034,-0.007 -0.045,-0.019 -0.012,-0.012 -0.019,-0.028 -0.019,-0.045l0 -1.517c0,-0.018 0.007,-0.034 0.018,-0.046 0.012,-0.011 0.028,-0.018 0.046,-0.018l0.846 0c0.009,0 0.017,0.003 0.023,0.01l0.358 0.357c0.006,0.006 0.009,0.015 0.009,0.023l0 0.594c0,0.018 -0.014,0.032 -0.032,0.032 -0.018,0 -0.033,-0.014 -0.033,-0.032l0 -0.581 -0.339 -0.338 -0.831 0 0 1.515 0.685 0z"/>
   <path class="fil2" d="M3.485 3.016l-0.328 0c-0.017,0 -0.033,-0.008 -0.044,-0.019 -0.012,-0.011 -0.019,-0.027 -0.019,-0.045l0 -0.327c0,-0.018 0.015,-0.032 0.033,-0.032 0.009,0 0.017,0.003 0.023,0.01l0.358 0.357c0.012,0.013 0.012,0.033 0,0.046 -0.007,0.006 -0.015,0.01 -0.023,0.01zm-0.325 -0.066l0.246 0 -0.246 -0.246 0 0.246z"/>
   <path class="fil5" d="M2.513 3.163c0.012,-0.003 0.036,0.006 0.052,0.01 0.041,0.01 0.09,0.01 0.13,0 0.016,-0.004 0.04,-0.013 0.053,-0.01 0.012,0.003 0.04,0.023 0.043,0.055l0.008 0.094c0.001,0.008 -0.007,0.014 -0.015,0.014l-0.308 0c-0.008,0 -0.015,-0.006 -0.014,-0.014l0.008 -0.094c0.002,-0.032 0.03,-0.052 0.043,-0.055z"/>
   <path class="fil2" d="M2.505 3.132c0.017,-0.005 0.038,0.001 0.056,0.006l0.014 0.004c0.017,0.004 0.036,0.006 0.055,0.006 0.021,0 0.04,-0.003 0.058,-0.007l0.013 -0.003c0.017,-0.005 0.037,-0.011 0.055,-0.006 0.012,0.003 0.033,0.015 0.047,0.033 0.01,0.013 0.019,0.03 0.02,0.05l0.008 0.094 0.001 0.004c0,0.012 -0.006,0.024 -0.014,0.032 -0.008,0.008 -0.018,0.013 -0.03,0.014l-0.312 0 -0.004 0c-0.011,-0.001 -0.022,-0.006 -0.029,-0.014 -0.009,-0.008 -0.014,-0.02 -0.014,-0.032l0.008 -0.098c0.002,-0.02 0.01,-0.037 0.02,-0.05 0.015,-0.018 0.035,-0.03 0.048,-0.033zm0.038 0.069c-0.01,-0.003 -0.022,-0.006 -0.022,-0.006 -0.002,0 -0.007,0.004 -0.012,0.01 -0.004,0.005 -0.006,0.01 -0.007,0.016l-0.006 0.073 0.269 0 -0.007 -0.073c0,-0.006 -0.003,-0.011 -0.006,-0.016 -0.005,-0.006 -0.01,-0.01 -0.012,-0.01 -0.001,0 -0.012,0.003 -0.021,0.005l-0.016 0.005c-0.023,0.005 -0.048,0.008 -0.073,0.008 -0.023,0 -0.047,-0.003 -0.069,-0.008l-0.003 0 -0.015 -0.004z"/>
   <path class="fil5" d="M2.63 2.84c0.062,0 0.113,0.051 0.113,0.113 0,0.063 -0.051,0.113 -0.113,0.113 -0.063,0 -0.114,-0.05 -0.114,-0.113 0,-0.062 0.051,-0.113 0.114,-0.113z"/>
   <path class="fil2" d="M2.63 2.807c0.04,0 0.076,0.017 0.103,0.043l0.002 0.002c0.025,0.026 0.041,0.062 0.041,0.101 0,0.04 -0.017,0.077 -0.043,0.103 -0.027,0.027 -0.063,0.043 -0.103,0.043 -0.041,0 -0.077,-0.016 -0.103,-0.043 -0.027,-0.026 -0.043,-0.062 -0.043,-0.103 0,-0.04 0.016,-0.076 0.043,-0.103 0.026,-0.026 0.062,-0.043 0.103,-0.043zm0.057 0.089c-0.015,-0.014 -0.035,-0.023 -0.057,-0.023 -0.023,0 -0.043,0.009 -0.057,0.023 -0.015,0.015 -0.024,0.035 -0.024,0.057 0,0.023 0.009,0.043 0.024,0.057 0.014,0.015 0.034,0.024 0.057,0.024 0.022,0 0.042,-0.009 0.057,-0.024 0.014,-0.014 0.023,-0.034 0.023,-0.057 0,-0.021 -0.008,-0.041 -0.022,-0.055l-0.001 -0.002z"/>
   <path class="fil2" d="M2.461 3.618c-0.018,0 -0.032,-0.015 -0.032,-0.033 0,-0.018 0.014,-0.032 0.032,-0.032l0.338 0c0.018,0 0.033,0.014 0.033,0.032 0,0.018 -0.015,0.033 -0.033,0.033l-0.338 0z"/>
   <path class="fil2" d="M2.942 3.359c-0.018,0 -0.033,-0.015 -0.033,-0.033 0,-0.018 0.015,-0.032 0.033,-0.032l0.33 0c0.019,0 0.033,0.014 0.033,0.032 0,0.018 -0.014,0.033 -0.033,0.033l-0.33 0z"/>
   <path class="fil2" d="M2.461 3.877c-0.018,0 -0.032,-0.015 -0.032,-0.033 0,-0.018 0.014,-0.033 0.032,-0.033l0.338 0c0.018,0 0.033,0.015 0.033,0.033 0,0.018 -0.015,0.033 -0.033,0.033l-0.338 0z"/>
   <polygon class="fil5" points="3.122,3.612 3.231,3.648 3.349,3.614 3.4,3.716 3.507,3.775 3.471,3.884 3.505,4.001 3.403,4.053 3.344,4.16 3.235,4.124 3.118,4.158 3.066,4.056 2.959,3.997 2.995,3.888 2.961,3.77 3.063,3.719 "/>
   <path class="fil2" d="M3.133 3.581l0.099 0.033 0.108 -0.032c0.015,-0.004 0.031,0.003 0.038,0.017l0.047 0.093 0.098 0.054c0.014,0.008 0.02,0.025 0.015,0.039l-0.033 0.1 0.032 0.107c0.004,0.016 -0.003,0.032 -0.017,0.038l-0.093 0.048 -0.054 0.098c-0.008,0.014 -0.025,0.02 -0.039,0.015l-0.1 -0.033 -0.107 0.031c-0.016,0.005 -0.032,-0.003 -0.039,-0.016l-0.047 -0.094 -0.098 -0.054c-0.014,-0.007 -0.02,-0.024 -0.015,-0.039l0.033 -0.099 -0.031 -0.108c-0.005,-0.015 0.003,-0.031 0.016,-0.038l0.094 -0.047 0.054 -0.098c0.007,-0.014 0.024,-0.02 0.039,-0.015zm0.088 0.098l-0.083 -0.028 -0.046 0.083c-0.003,0.006 -0.008,0.011 -0.014,0.014l-0.078 0.039 0.026 0.089c0.002,0.007 0.002,0.015 0,0.022l-0.028 0.083 0.084 0.046c0.005,0.003 0.01,0.008 0.013,0.014l0.04 0.078 0.089 -0.026c0.006,-0.002 0.014,-0.002 0.021,0l0.083 0.028 0.046 -0.084c0.003,-0.005 0.008,-0.01 0.014,-0.013l0.079 -0.04 -0.026 -0.089c-0.003,-0.006 -0.003,-0.014 -0.001,-0.021l0.028 -0.083 -0.083 -0.046c-0.006,-0.003 -0.011,-0.008 -0.014,-0.014l-0.039 -0.079 -0.089 0.026c-0.007,0.003 -0.015,0.003 -0.022,0.001z"/>
   <path class="fil2" d="M3.29 4.153c0,-0.018 0.015,-0.033 0.033,-0.033 0.018,0 0.033,0.015 0.033,0.033l0 0.237c0,0.018 -0.015,0.033 -0.033,0.033 -0.008,0 -0.015,-0.003 -0.02,-0.008l-0.07 -0.045 -0.072 0.047c-0.015,0.01 -0.035,0.006 -0.045,-0.009 -0.003,-0.006 -0.005,-0.012 -0.005,-0.018l0 -0.239c0,-0.018 0.014,-0.033 0.032,-0.033 0.018,0 0.033,0.015 0.033,0.033l0 0.179 0.039 -0.026c0.01,-0.007 0.025,-0.008 0.036,0l0.039 0.025 0 -0.176z"/>
   <path class="fil1" d="M3.233 3.773c0.063,0 0.113,0.05 0.113,0.113 0,0.062 -0.05,0.113 -0.113,0.113 -0.062,0 -0.113,-0.051 -0.113,-0.113 0,-0.063 0.051,-0.113 0.113,-0.113z"/>
   <path class="fil2" d="M3.233 3.74c0.04,0 0.077,0.016 0.103,0.043 0.027,0.026 0.043,0.063 0.043,0.103 0,0.04 -0.016,0.076 -0.043,0.103 -0.026,0.026 -0.063,0.043 -0.103,0.043 -0.04,0 -0.076,-0.017 -0.103,-0.043 -0.026,-0.027 -0.043,-0.063 -0.043,-0.103 0,-0.04 0.017,-0.077 0.043,-0.103 0.027,-0.027 0.063,-0.043 0.103,-0.043zm0.057 0.089c-0.014,-0.015 -0.035,-0.024 -0.057,-0.024 -0.022,0 -0.042,0.009 -0.057,0.024 -0.014,0.014 -0.023,0.035 -0.023,0.057 0,0.022 0.009,0.042 0.023,0.057 0.015,0.014 0.035,0.023 0.057,0.023 0.022,0 0.043,-0.009 0.057,-0.023 0.015,-0.015 0.024,-0.035 0.024,-0.057 0,-0.022 -0.009,-0.043 -0.024,-0.057z"/>
  </g>
 </g>
</svg>
