<?xml version="1.0" encoding="UTF-8"?>
<!DOCTYPE svg PUBLIC "-//W3C//DTD SVG 1.1//EN" "http://www.w3.org/Graphics/SVG/1.1/DTD/svg11.dtd">
<!-- Creator: CorelDRAW 2018 (64-Bit) -->
<svg xmlns="http://www.w3.org/2000/svg" xml:space="preserve" width="88px" height="100px" version="1.1" style="shape-rendering:geometricPrecision; text-rendering:geometricPrecision; image-rendering:optimizeQuality; fill-rule:evenodd; clip-rule:evenodd"
viewBox="0 0 8.712 9.891"
 xmlns:xlink="http://www.w3.org/1999/xlink">
 <defs>
  <style type="text/css">
   <![CDATA[
    .fil6 {fill:#00F4FF}
    .fil4 {fill:gray}
    .fil0 {fill:#B0C2FC}
    .fil3 {fill:#EAEDF2}
    .fil1 {fill:white}
    .fil5 {fill:gray;fill-rule:nonzero}
    .fil2 {fill:gray;fill-rule:nonzero}
   ]]>
  </style>
 </defs>
 <g id="Layer_x0020_1">
  <metadata id="CorelCorpID_0Corel-Layer"/>
  <g id="_2117812054368">
   <path class="fil0" d="M4.626 0.074l3.819 2.205c0.169,0.098 0.264,0.275 0.264,0.458l0.003 0 0 4.417c0,0.214 -0.127,0.399 -0.31,0.483l-3.783 2.184c-0.171,0.098 -0.375,0.09 -0.533,-0.004l-3.819 -2.205c-0.17,-0.098 -0.265,-0.275 -0.265,-0.458l-0.002 0 0 -4.417c0,-0.215 0.127,-0.399 0.31,-0.483l3.783 -2.184c0.171,-0.098 0.374,-0.09 0.533,0.004z"/>
   <path class="fil1" d="M2.001 6.825l0 -3.132 4.709 0 0 3.132c0,0.054 -0.044,0.099 -0.099,0.099l-4.511 0c-0.054,0 -0.099,-0.045 -0.099,-0.099z"/>
   <path class="fil2" d="M1.952 6.825l0 -3.132c0,-0.028 0.022,-0.05 0.049,-0.05l4.709 0c0.028,0 0.05,0.022 0.05,0.05l0 3.132c0,0.041 -0.017,0.078 -0.044,0.105 -0.027,0.026 -0.064,0.043 -0.105,0.043l-4.511 0c-0.041,0 -0.078,-0.017 -0.105,-0.043 -0.026,-0.027 -0.043,-0.064 -0.043,-0.105zm0.099 -3.083l0 3.083c0,0.013 0.005,0.026 0.014,0.035 0.009,0.009 0.022,0.014 0.035,0.014l4.511 0c0.014,0 0.026,-0.005 0.035,-0.014 0.009,-0.009 0.015,-0.022 0.015,-0.035l0 -3.083 -4.61 0z"/>
   <path class="fil3" d="M2.001 3.693l0 -0.627c0,-0.054 0.045,-0.099 0.099,-0.099l4.511 0c0.055,0 0.099,0.045 0.099,0.099l0 0.627 -4.709 0z"/>
   <path class="fil2" d="M1.952 3.693l0 -0.627c0,-0.041 0.017,-0.078 0.043,-0.104 0.027,-0.027 0.064,-0.044 0.105,-0.044l4.511 0c0.041,0 0.078,0.017 0.105,0.043l0.003 0.004c0.025,0.026 0.041,0.062 0.041,0.101l0 0.627c0,0.027 -0.022,0.049 -0.05,0.049l-4.709 0c-0.027,0 -0.049,-0.022 -0.049,-0.049zm0.099 -0.627l0 0.577 4.61 0 0 -0.577c0,-0.013 -0.005,-0.024 -0.013,-0.033l-0.002 -0.002c-0.009,-0.009 -0.021,-0.014 -0.035,-0.014l-4.511 0c-0.013,0 -0.026,0.005 -0.035,0.014 -0.009,0.009 -0.014,0.022 -0.014,0.035z"/>
   <path class="fil4" d="M5.291 3.212c0.074,0 0.135,0.06 0.135,0.134 0,0.075 -0.061,0.135 -0.135,0.135 -0.074,0 -0.135,-0.06 -0.135,-0.135 0,-0.074 0.061,-0.134 0.135,-0.134z"/>
   <path class="fil4" d="M5.776 3.212c0.074,0 0.134,0.06 0.134,0.134 0,0.075 -0.06,0.135 -0.134,0.135 -0.075,0 -0.135,-0.06 -0.135,-0.135 0,-0.074 0.06,-0.134 0.135,-0.134z"/>
   <path class="fil4" d="M6.26 3.212c0.074,0 0.135,0.06 0.135,0.134 0,0.075 -0.061,0.135 -0.135,0.135 -0.074,0 -0.135,-0.06 -0.135,-0.135 0,-0.074 0.061,-0.134 0.135,-0.134z"/>
   <path class="fil5" d="M3.164 6.43c0,0.027 -0.022,0.049 -0.05,0.049 -0.027,0 -0.049,-0.022 -0.049,-0.049l0 -1.474c0,-0.027 0.021,-0.049 0.048,-0.05l1.249 -0.124c0.027,-0.003 0.052,0.017 0.054,0.044 0.003,0.027 -0.017,0.051 -0.044,0.054l-1.208 0.12 0 1.43z"/>
   <path class="fil6" d="M3.363 6.253l0.755 -0.011 0 0.188 -0.755 0 0 -0.177zm0 -1.036l0.755 -0.063 0 0.188 -0.755 0.051 0 -0.176zm0 0.518l0.755 -0.037 0 0.188 -0.755 0.025 0 -0.176z"/>
   <path class="fil5" d="M3.367 6.204l0.75 -0.011c0.028,0 0.05,0.021 0.05,0.049l0 0.188c0,0.027 -0.022,0.049 -0.049,0.049l-0.755 0c-0.027,0 -0.049,-0.022 -0.049,-0.049l0 -0.177c0,-0.027 0.022,-0.049 0.049,-0.049l0.004 0zm0.702 0.088l-0.656 0.01 0 0.078 0.656 0 0 -0.088zm-0.708 -1.125l0.753 -0.062c0.027,-0.002 0.051,0.018 0.053,0.045l0 0.192c0,0.027 -0.021,0.049 -0.048,0.049l-0.752 0.051c-0.028,0.002 -0.051,-0.018 -0.053,-0.046l0 -0.179c0,-0.027 0.021,-0.048 0.047,-0.05zm0.708 0.041l-0.656 0.054 0 0.078 0.656 -0.045 0 -0.087zm-0.704 0.478l0.751 -0.037c0.027,-0.001 0.05,0.02 0.051,0.047l0 0.19c0,0.027 -0.022,0.049 -0.049,0.049l-0.753 0.026c-0.027,0 -0.05,-0.021 -0.051,-0.048l0 -0.178c0,-0.027 0.022,-0.049 0.049,-0.049l0.002 0zm0.704 0.064l-0.656 0.032 0 0.078 0.656 -0.022 0 -0.088z"/>
   <polygon class="fil6" points="4.367,4.831 4.895,5.02 4.895,6.43 4.367,6.43 "/>
   <path class="fil5" d="M4.388 4.786l0.523 0.188c0.02,0.007 0.033,0.026 0.033,0.046l0 1.41c0,0.027 -0.022,0.049 -0.049,0.049l-0.528 0c-0.027,0 -0.049,-0.022 -0.049,-0.049l0 -1.599c0,-0.027 0.022,-0.05 0.049,-0.05 0.008,0 0.015,0.002 0.021,0.005zm0.457 0.269l-0.428 -0.154 0 1.479 0.428 0 0 -1.325z"/>
   <path class="fil5" d="M4.225 4.85c0,0.027 -0.022,0.049 -0.049,0.049 -0.028,0 -0.05,-0.022 -0.05,-0.049l0 -0.564c0,-0.027 0.022,-0.049 0.049,-0.049l0.996 -0.099c0.027,-0.003 0.052,0.017 0.054,0.044 0.003,0.027 -0.017,0.051 -0.044,0.054l-0.956 0.095 0 0.519z"/>
   <polygon class="fil6" points="5.176,6.43 5.176,4.187 5.597,4.338 5.597,6.43 "/>
   <path class="fil5" d="M5.127 6.43l0 -2.243c0,-0.028 0.022,-0.05 0.049,-0.05 0.008,0 0.015,0.002 0.021,0.005l0.417 0.149c0.02,0.008 0.033,0.027 0.033,0.047l0 2.092c0,0.027 -0.022,0.049 -0.05,0.049l-0.421 0c-0.027,0 -0.049,-0.022 -0.049,-0.049zm0.099 -2.173l0 2.123 0.322 0 0 -2.008 -0.322 -0.115z"/>
  </g>
 </g>
</svg>
