<?xml version="1.0" encoding="UTF-8"?>
<!DOCTYPE svg PUBLIC "-//W3C//DTD SVG 1.1//EN" "http://www.w3.org/Graphics/SVG/1.1/DTD/svg11.dtd">
<!-- Creator: CorelDRAW 2018 (64-Bit) -->
<svg xmlns="http://www.w3.org/2000/svg" xml:space="preserve" width="88px" height="100px" version="1.1" style="shape-rendering:geometricPrecision; text-rendering:geometricPrecision; image-rendering:optimizeQuality; fill-rule:evenodd; clip-rule:evenodd"
viewBox="0 0 17.871 20.29"
 xmlns:xlink="http://www.w3.org/1999/xlink">
 <defs>
  <style type="text/css">
   <![CDATA[
    .fil5 {fill:#00F4FF}
    .fil0 {fill:#7FB0FF}
    .fil4 {fill:gray}
    .fil3 {fill:#EAEDF2}
    .fil1 {fill:white}
    .fil6 {fill:white}
    .fil2 {fill:gray;fill-rule:nonzero}
   ]]>
  </style>
 </defs>
 <g id="Layer_x0020_1">
  <metadata id="CorelCorpID_0Corel-Layer"/>
  <g id="_2117747764800">
   <path class="fil0" d="M9.49 0.153l7.833 4.522c0.348,0.2 0.543,0.564 0.544,0.939l0.004 0 0 9.062c0,0.44 -0.261,0.818 -0.635,0.99l-7.761 4.48c-0.351,0.202 -0.768,0.185 -1.094,-0.008l-7.833 -4.523c-0.348,-0.2 -0.543,-0.564 -0.543,-0.939l-0.005 0 0 -9.062c0,-0.439 0.261,-0.818 0.636,-0.989l7.76 -4.481c0.351,-0.202 0.768,-0.185 1.094,0.009z"/>
   <path class="fil1" d="M4.105 14l0 -6.425 9.661 0 0 6.425c0,0.112 -0.092,0.203 -0.203,0.203l-9.255 0c-0.111,0 -0.203,-0.091 -0.203,-0.203z"/>
   <path class="fil2" d="M4.004 14l0 -6.425c0,-0.056 0.045,-0.102 0.101,-0.102l9.661 0c0.056,0 0.101,0.046 0.101,0.102l0 6.425c0,0.084 -0.034,0.16 -0.089,0.215 -0.055,0.055 -0.132,0.09 -0.215,0.09l-9.255 0c-0.084,0 -0.16,-0.035 -0.215,-0.09 -0.055,-0.055 -0.089,-0.131 -0.089,-0.215zm0.203 -6.324l0 6.324c0,0.028 0.011,0.053 0.03,0.072 0.018,0.018 0.044,0.03 0.071,0.03l9.255 0c0.028,0 0.053,-0.012 0.071,-0.03 0.019,-0.019 0.03,-0.044 0.03,-0.072l0 -6.324 -9.457 0z"/>
   <path class="fil3" d="M4.105 7.575l0 -1.285c0,-0.112 0.092,-0.203 0.203,-0.203l9.255 0c0.111,0 0.203,0.091 0.203,0.203l0 1.285 -9.661 0z"/>
   <path class="fil2" d="M4.004 7.575l0 -1.285c0,-0.084 0.034,-0.16 0.089,-0.215 0.055,-0.055 0.132,-0.089 0.215,-0.089l9.255 0c0.083,0 0.16,0.034 0.215,0.089l0.006 0.007c0.051,0.054 0.083,0.128 0.083,0.208l0 1.285c0,0.056 -0.045,0.101 -0.101,0.101l-9.661 0c-0.056,0 -0.101,-0.045 -0.101,-0.101zm0.203 -1.285l0 1.183 9.457 0 0 -1.183c0,-0.026 -0.01,-0.05 -0.026,-0.068l-0.004 -0.004c-0.018,-0.018 -0.043,-0.03 -0.071,-0.03l-9.255 0c-0.027,0 -0.053,0.012 -0.071,0.03 -0.019,0.019 -0.03,0.044 -0.03,0.072z"/>
   <path class="fil4" d="M10.854 6.589c0.153,0 0.276,0.123 0.276,0.276 0,0.152 -0.123,0.276 -0.276,0.276 -0.152,0 -0.276,-0.124 -0.276,-0.276 0,-0.153 0.124,-0.276 0.276,-0.276z"/>
   <path class="fil4" d="M11.848 6.589c0.152,0 0.276,0.123 0.276,0.276 0,0.152 -0.124,0.276 -0.276,0.276 -0.153,0 -0.276,-0.124 -0.276,-0.276 0,-0.153 0.123,-0.276 0.276,-0.276z"/>
   <path class="fil4" d="M12.842 6.589c0.152,0 0.276,0.123 0.276,0.276 0,0.152 -0.124,0.276 -0.276,0.276 -0.153,0 -0.276,-0.124 -0.276,-0.276 0,-0.153 0.123,-0.276 0.276,-0.276z"/>
   <path class="fil2" d="M8.834 9.198c0,-0.056 0.046,-0.101 0.102,-0.101 0.056,0 0.101,0.045 0.101,0.101l0 0.593c0,0.056 -0.045,0.102 -0.101,0.102 -0.056,0 -0.102,-0.046 -0.102,-0.102l0 -0.593z"/>
   <path class="fil2" d="M7.421 10.131c-0.048,-0.028 -0.065,-0.089 -0.037,-0.138 0.028,-0.048 0.089,-0.065 0.138,-0.037l0.513 0.297c0.049,0.027 0.065,0.089 0.038,0.137 -0.028,0.049 -0.09,0.065 -0.138,0.038l-0.514 -0.297z"/>
   <path class="fil2" d="M6.835 10.064c0,-0.056 0.045,-0.101 0.101,-0.101 0.056,0 0.102,0.045 0.102,0.101l0 1.331c0,0.056 -0.046,0.101 -0.102,0.101 -0.056,0 -0.101,-0.045 -0.101,-0.101l0 -1.331z"/>
   <path class="fil2" d="M7.156 12.287c-0.048,-0.028 -0.065,-0.09 -0.037,-0.139 0.028,-0.048 0.09,-0.064 0.138,-0.036l1.153 0.665c0.048,0.028 0.065,0.09 0.037,0.138 -0.028,0.049 -0.09,0.065 -0.139,0.037l-1.152 -0.665z"/>
   <path class="fil2" d="M9.271 13.12c-0.048,0.028 -0.11,0.011 -0.138,-0.037 -0.028,-0.048 -0.011,-0.11 0.037,-0.138l1.153 -0.665c0.048,-0.028 0.11,-0.011 0.138,0.037 0.027,0.048 0.011,0.11 -0.038,0.138l-1.152 0.665z"/>
   <path class="fil2" d="M11.036 11.714c0,0.056 -0.045,0.101 -0.101,0.101 -0.056,0 -0.102,-0.045 -0.102,-0.101l0 -1.331c0,-0.056 0.046,-0.101 0.102,-0.101 0.056,0 0.101,0.045 0.101,0.101l0 1.331z"/>
   <path class="fil2" d="M10.715 9.491c0.048,0.028 0.065,0.09 0.037,0.138 -0.028,0.049 -0.09,0.065 -0.138,0.037l-1.153 -0.665c-0.048,-0.028 -0.064,-0.09 -0.036,-0.138 0.028,-0.049 0.089,-0.065 0.138,-0.037l1.152 0.665z"/>
   <path class="fil2" d="M8.6 8.658c0.048,-0.028 0.11,-0.011 0.138,0.037 0.028,0.048 0.011,0.11 -0.037,0.138l-1.153 0.665c-0.048,0.028 -0.11,0.011 -0.138,-0.037 -0.027,-0.048 -0.011,-0.11 0.038,-0.138l1.152 -0.665z"/>
   <path class="fil2" d="M7.522 11.822c-0.049,0.028 -0.11,0.011 -0.138,-0.037 -0.028,-0.049 -0.011,-0.111 0.037,-0.138l0.514 -0.297c0.048,-0.028 0.11,-0.011 0.138,0.037 0.027,0.049 0.011,0.11 -0.038,0.138l-0.513 0.297z"/>
   <path class="fil2" d="M9.037 12.579c0,0.056 -0.045,0.102 -0.101,0.102 -0.056,0 -0.102,-0.046 -0.102,-0.102l0 -0.593c0,-0.056 0.046,-0.101 0.102,-0.101 0.056,0 0.101,0.045 0.101,0.101l0 0.593z"/>
   <path class="fil2" d="M10.45 11.647c0.048,0.027 0.065,0.089 0.037,0.138 -0.028,0.048 -0.089,0.065 -0.138,0.037l-0.513 -0.297c-0.049,-0.028 -0.065,-0.089 -0.038,-0.138 0.028,-0.048 0.09,-0.065 0.138,-0.037l0.514 0.297z"/>
   <path class="fil2" d="M10.349 9.956c0.049,-0.028 0.11,-0.011 0.138,0.037 0.028,0.049 0.011,0.11 -0.037,0.138l-0.514 0.297c-0.048,0.027 -0.11,0.011 -0.138,-0.038 -0.027,-0.048 -0.011,-0.11 0.038,-0.137l0.513 -0.297z"/>
   <path class="fil5" d="M8.936 10.109c0.43,0 0.779,0.349 0.779,0.78 0,0.43 -0.349,0.78 -0.779,0.78 -0.431,0 -0.78,-0.35 -0.78,-0.78 0,-0.431 0.349,-0.78 0.78,-0.78z"/>
   <path class="fil2" d="M8.936 10.008c0.243,0 0.463,0.099 0.622,0.258 0.16,0.159 0.259,0.38 0.259,0.623 0,0.243 -0.099,0.464 -0.259,0.623 -0.159,0.159 -0.379,0.258 -0.622,0.258 -0.244,0 -0.464,-0.099 -0.623,-0.258 -0.16,-0.159 -0.258,-0.38 -0.258,-0.623 0,-0.243 0.098,-0.464 0.258,-0.623 0.159,-0.159 0.379,-0.258 0.623,-0.258zm0.479 0.401c-0.123,-0.122 -0.292,-0.198 -0.479,-0.198 -0.188,0 -0.357,0.076 -0.48,0.198 -0.123,0.123 -0.199,0.293 -0.199,0.48 0,0.187 0.076,0.357 0.199,0.479 0.123,0.123 0.292,0.199 0.48,0.199 0.187,0 0.356,-0.076 0.479,-0.199 0.123,-0.122 0.199,-0.292 0.199,-0.479 0,-0.187 -0.076,-0.357 -0.199,-0.48z"/>
   <path class="fil6" d="M6.936 9.405c0.182,0 0.33,0.148 0.33,0.33 0,0.182 -0.148,0.329 -0.33,0.329 -0.181,0 -0.329,-0.147 -0.329,-0.329 0,-0.182 0.148,-0.33 0.329,-0.33z"/>
   <path class="fil2" d="M6.936 9.304c0.119,0 0.227,0.048 0.305,0.126 0.078,0.078 0.126,0.186 0.126,0.305 0,0.118 -0.048,0.226 -0.126,0.304 -0.078,0.078 -0.186,0.126 -0.305,0.126 -0.118,0 -0.226,-0.048 -0.304,-0.126 -0.078,-0.078 -0.126,-0.185 -0.126,-0.304 0,-0.119 0.048,-0.227 0.126,-0.305 0.078,-0.078 0.186,-0.126 0.304,-0.126zm0.162 0.27c-0.042,-0.042 -0.099,-0.067 -0.162,-0.067 -0.063,0 -0.12,0.025 -0.161,0.067 -0.041,0.041 -0.066,0.098 -0.066,0.161 0,0.063 0.025,0.12 0.066,0.161 0.041,0.041 0.098,0.067 0.161,0.067 0.063,0 0.121,-0.026 0.162,-0.067 0.041,-0.041 0.066,-0.098 0.066,-0.161 0,-0.063 -0.025,-0.12 -0.066,-0.161z"/>
   <path class="fil6" d="M6.936 11.682c0.182,0 0.33,0.147 0.33,0.329 0,0.182 -0.148,0.329 -0.33,0.329 -0.181,0 -0.329,-0.147 -0.329,-0.329 0,-0.182 0.148,-0.329 0.329,-0.329z"/>
   <path class="fil2" d="M6.936 11.58c0.119,0 0.227,0.048 0.305,0.126 0.078,0.078 0.126,0.186 0.126,0.305 0,0.119 -0.048,0.227 -0.126,0.304 -0.078,0.078 -0.186,0.127 -0.305,0.127 -0.118,0 -0.226,-0.049 -0.304,-0.127 -0.078,-0.077 -0.126,-0.185 -0.126,-0.304 0,-0.119 0.048,-0.227 0.126,-0.305 0.078,-0.078 0.186,-0.126 0.304,-0.126zm0.162 0.27c-0.041,-0.041 -0.099,-0.067 -0.162,-0.067 -0.063,0 -0.12,0.026 -0.161,0.067 -0.041,0.041 -0.066,0.098 -0.066,0.161 0,0.063 0.025,0.12 0.066,0.161 0.041,0.041 0.098,0.067 0.161,0.067 0.063,0 0.12,-0.026 0.162,-0.067 0.041,-0.041 0.066,-0.098 0.066,-0.161 0,-0.063 -0.025,-0.12 -0.066,-0.161z"/>
   <path class="fil6" d="M8.936 12.868c0.181,0 0.329,0.147 0.329,0.329 0,0.182 -0.148,0.33 -0.329,0.33 -0.182,0 -0.33,-0.148 -0.33,-0.33 0,-0.182 0.148,-0.329 0.33,-0.329z"/>
   <path class="fil2" d="M8.936 12.767c0.118,0 0.226,0.048 0.304,0.126 0.078,0.078 0.126,0.185 0.126,0.304 0,0.119 -0.048,0.227 -0.126,0.305 -0.078,0.078 -0.186,0.126 -0.304,0.126 -0.119,0 -0.227,-0.048 -0.305,-0.126 -0.078,-0.078 -0.126,-0.186 -0.126,-0.305 0,-0.119 0.048,-0.226 0.126,-0.304 0.078,-0.078 0.186,-0.126 0.305,-0.126zm0.161 0.269c-0.042,-0.041 -0.099,-0.067 -0.161,-0.067 -0.063,0 -0.12,0.026 -0.162,0.067 -0.041,0.041 -0.066,0.098 -0.066,0.161 0,0.063 0.025,0.12 0.066,0.161 0.042,0.042 0.099,0.067 0.162,0.067 0.062,0 0.119,-0.025 0.161,-0.067 0.041,-0.041 0.066,-0.098 0.066,-0.161 0,-0.063 -0.025,-0.12 -0.066,-0.161z"/>
   <path class="fil6" d="M10.935 11.714c0.182,0 0.329,0.147 0.329,0.329 0,0.182 -0.147,0.329 -0.329,0.329 -0.182,0 -0.33,-0.147 -0.33,-0.329 0,-0.182 0.148,-0.329 0.33,-0.329z"/>
   <path class="fil2" d="M10.935 11.612c0.119,0 0.226,0.049 0.304,0.127 0.078,0.077 0.126,0.185 0.126,0.304 0,0.119 -0.048,0.227 -0.126,0.305 -0.078,0.078 -0.185,0.126 -0.304,0.126 -0.119,0 -0.227,-0.048 -0.305,-0.126 -0.078,-0.078 -0.126,-0.186 -0.126,-0.305 0,-0.119 0.048,-0.227 0.126,-0.304 0.078,-0.078 0.186,-0.127 0.305,-0.127zm0.161 0.27c-0.041,-0.041 -0.098,-0.067 -0.161,-0.067 -0.063,0 -0.12,0.026 -0.162,0.067 -0.041,0.041 -0.066,0.098 -0.066,0.161 0,0.063 0.025,0.12 0.066,0.161 0.042,0.041 0.099,0.067 0.162,0.067 0.063,0 0.12,-0.026 0.161,-0.067 0.041,-0.041 0.066,-0.098 0.066,-0.161 0,-0.063 -0.025,-0.12 -0.066,-0.161z"/>
   <path class="fil6" d="M10.935 9.405c0.182,0 0.329,0.148 0.329,0.33 0,0.182 -0.147,0.329 -0.329,0.329 -0.182,0 -0.33,-0.147 -0.33,-0.329 0,-0.182 0.148,-0.33 0.33,-0.33z"/>
   <path class="fil2" d="M10.935 9.304c0.119,0 0.226,0.048 0.304,0.126 0.078,0.078 0.126,0.186 0.126,0.305 0,0.119 -0.048,0.226 -0.126,0.304 -0.078,0.078 -0.185,0.126 -0.304,0.126 -0.119,0 -0.227,-0.048 -0.305,-0.126 -0.078,-0.078 -0.126,-0.186 -0.126,-0.304 0,-0.119 0.048,-0.227 0.126,-0.305 0.078,-0.078 0.186,-0.126 0.305,-0.126zm0.161 0.27c-0.041,-0.042 -0.098,-0.067 -0.161,-0.067 -0.063,0 -0.12,0.025 -0.162,0.067 -0.041,0.041 -0.066,0.098 -0.066,0.161 0,0.063 0.025,0.12 0.066,0.161 0.042,0.041 0.099,0.067 0.162,0.067 0.063,0 0.12,-0.026 0.161,-0.067 0.041,-0.041 0.066,-0.098 0.066,-0.161 0,-0.063 -0.025,-0.12 -0.066,-0.161z"/>
   <path class="fil6" d="M8.936 8.251c0.181,0 0.329,0.148 0.329,0.329 0,0.182 -0.148,0.33 -0.329,0.33 -0.182,0 -0.33,-0.148 -0.33,-0.33 0,-0.181 0.148,-0.329 0.33,-0.329z"/>
   <path class="fil2" d="M8.936 8.15c0.118,0 0.226,0.048 0.304,0.126 0.078,0.078 0.126,0.186 0.126,0.304 0,0.119 -0.048,0.227 -0.126,0.305 -0.078,0.078 -0.186,0.126 -0.304,0.126 -0.119,0 -0.227,-0.048 -0.305,-0.126 -0.078,-0.078 -0.126,-0.186 -0.126,-0.305 0,-0.118 0.048,-0.226 0.126,-0.304 0.078,-0.078 0.186,-0.126 0.305,-0.126zm0.161 0.269c-0.042,-0.041 -0.099,-0.066 -0.161,-0.066 -0.063,0 -0.12,0.025 -0.162,0.066 -0.041,0.042 -0.066,0.099 -0.066,0.161 0,0.063 0.025,0.12 0.066,0.162 0.042,0.041 0.099,0.066 0.162,0.066 0.062,0 0.119,-0.025 0.161,-0.066 0.041,-0.042 0.066,-0.099 0.066,-0.162 0,-0.062 -0.025,-0.119 -0.066,-0.161z"/>
  </g>
 </g>
</svg>
