<?xml version="1.0" encoding="UTF-8"?>
<!DOCTYPE svg PUBLIC "-//W3C//DTD SVG 1.1//EN" "http://www.w3.org/Graphics/SVG/1.1/DTD/svg11.dtd">
<!-- Creator: CorelDRAW 2018 (64-Bit) -->
<svg xmlns="http://www.w3.org/2000/svg" xml:space="preserve" width="88px" height="100px" version="1.1" style="shape-rendering:geometricPrecision; text-rendering:geometricPrecision; image-rendering:optimizeQuality; fill-rule:evenodd; clip-rule:evenodd"
viewBox="0 0 4.304 4.886"
 xmlns:xlink="http://www.w3.org/1999/xlink">
 <defs>
  <style type="text/css">
   <![CDATA[
    .fil3 {fill:#00F4FF}
    .fil0 {fill:#99F0FF}
    .fil1 {fill:white}
    .fil2 {fill:gray;fill-rule:nonzero}
   ]]>
  </style>
 </defs>
 <g id="Layer_x0020_1">
  <metadata id="CorelCorpID_0Corel-Layer"/>
  <g id="_2082020307952">
   <path class="fil0" d="M2.285 0.037l1.887 1.089c0.084,0.048 0.131,0.136 0.131,0.226l0.001 0 0 2.182c0,0.106 -0.063,0.197 -0.153,0.239l-1.869 1.079c-0.085,0.048 -0.185,0.044 -0.264,-0.002l-1.886 -1.09c-0.084,-0.048 -0.131,-0.135 -0.131,-0.226l-0.001 0 0 -2.182c0,-0.106 0.063,-0.197 0.153,-0.238l1.869 -1.079c0.085,-0.049 0.185,-0.045 0.263,0.002z"/>
   <path class="fil1" d="M2.453 1.496c0,-0.094 0.072,-0.097 0.124,-0.046l0.68 0.68c0.034,0.034 0.034,0.088 0,0.122l-0.68 0.68c-0.052,0.052 -0.124,0.048 -0.124,-0.045l0 -0.302c0,-0.049 -0.04,-0.089 -0.089,-0.089l-0.624 0c-0.048,0 -0.088,-0.039 -0.088,-0.088l0 -0.434c0,-0.048 0.04,-0.088 0.088,-0.088l0.624 0c0.049,0 0.089,-0.04 0.089,-0.088l0 -0.302z"/>
   <path class="fil2" d="M2.428 1.496c0,-0.027 0.005,-0.048 0.014,-0.064 0.01,-0.018 0.024,-0.029 0.041,-0.035 0.016,-0.006 0.034,-0.006 0.051,-0.001 0.021,0.006 0.042,0.019 0.06,0.037l0.681 0.681c0.021,0.022 0.032,0.05 0.032,0.077 0,0.028 -0.011,0.057 -0.033,0.079l-0.681 0.681c-0.018,0.017 -0.039,0.029 -0.059,0.035 -0.017,0.005 -0.035,0.005 -0.051,0 -0.017,-0.006 -0.031,-0.018 -0.041,-0.036 -0.009,-0.016 -0.014,-0.037 -0.014,-0.063l0 -0.302c0,-0.018 -0.007,-0.034 -0.019,-0.045 -0.011,-0.012 -0.027,-0.019 -0.045,-0.019l-0.624 0c-0.031,0 -0.059,-0.013 -0.079,-0.033 -0.021,-0.021 -0.033,-0.049 -0.033,-0.08l0 -0.434c0,-0.031 0.012,-0.059 0.033,-0.079 0.02,-0.021 0.048,-0.033 0.079,-0.033l0.624 0c0.018,0 0.034,-0.008 0.045,-0.019l0.002 -0.001c0.01,-0.012 0.017,-0.027 0.017,-0.044l0 -0.302zm0.057 -0.04c-0.005,0.009 -0.008,0.022 -0.008,0.04l0 0.302c0,0.03 -0.012,0.058 -0.032,0.078l-0.001 0.001c-0.02,0.021 -0.049,0.033 -0.08,0.033l-0.624 0c-0.017,0 -0.033,0.008 -0.045,0.019 -0.011,0.012 -0.018,0.028 -0.018,0.045l0 0.434c0,0.018 0.007,0.034 0.018,0.045 0.012,0.012 0.028,0.019 0.045,0.019l0.624 0c0.031,0 0.06,0.013 0.08,0.033 0.02,0.021 0.033,0.049 0.033,0.08l0 0.302c0,0.018 0.003,0.031 0.008,0.04 0.004,0.006 0.009,0.011 0.014,0.013 0.006,0.002 0.014,0.001 0.022,-0.001 0.012,-0.003 0.026,-0.011 0.038,-0.023l0.68 -0.681c0.013,-0.012 0.019,-0.028 0.019,-0.044 0,-0.015 -0.006,-0.031 -0.017,-0.043l-0.681 -0.68c-0.013,-0.013 -0.026,-0.021 -0.039,-0.025 -0.008,-0.002 -0.016,-0.002 -0.022,0 -0.005,0.002 -0.01,0.006 -0.014,0.013z"/>
   <path class="fil3" d="M3.071 2.191l-0.444 -0.444 0 0.051c0,0.587 0,0.199 0,0.787l0 0.05 0.444 -0.444z"/>
   <path class="fil2" d="M3.036 2.191l-0.384 -0.385 0 0.77 0.384 -0.385zm-0.392 -0.461l0.444 0.444c0.01,0.009 0.01,0.025 0,0.034l-0.443 0.444c-0.005,0.005 -0.011,0.008 -0.018,0.008 -0.013,0 -0.024,-0.011 -0.024,-0.025l0 -0.888c0,-0.006 0.002,-0.012 0.007,-0.017 0.009,-0.009 0.025,-0.009 0.034,0z"/>
   <path class="fil2" d="M2.966 3.118c0,-0.013 0.01,-0.024 0.023,-0.024 0.013,0 0.023,0.011 0.023,0.024l0 0.13c0,0.067 -0.027,0.128 -0.071,0.173l-0.001 0c-0.044,0.044 -0.105,0.072 -0.172,0.072l-1.525 0c-0.067,0 -0.128,-0.028 -0.173,-0.072l0 0c-0.044,-0.045 -0.072,-0.106 -0.072,-0.173l0 -1.525c0,-0.067 0.028,-0.128 0.072,-0.173 0.044,-0.044 0.106,-0.072 0.173,-0.072l0.239 0c0.013,0 0.024,0.011 0.024,0.024 0,0.013 -0.011,0.023 -0.024,0.023l-0.239 0c-0.055,0 -0.104,0.023 -0.14,0.058 -0.036,0.036 -0.058,0.086 -0.058,0.14l0 1.525c0,0.054 0.022,0.104 0.058,0.14 0.036,0.036 0.085,0.058 0.14,0.058l1.525 0c0.054,0 0.104,-0.022 0.139,-0.058 0.036,-0.036 0.059,-0.086 0.059,-0.14l0 -0.13z"/>
  </g>
 </g>
</svg>
