<?xml version="1.0" encoding="UTF-8"?>
<!DOCTYPE svg PUBLIC "-//W3C//DTD SVG 1.1//EN" "http://www.w3.org/Graphics/SVG/1.1/DTD/svg11.dtd">
<!-- Creator: CorelDRAW 2018 (64-Bit) -->
<svg xmlns="http://www.w3.org/2000/svg" xml:space="preserve" width="88px" height="100px" version="1.1" style="shape-rendering:geometricPrecision; text-rendering:geometricPrecision; image-rendering:optimizeQuality; fill-rule:evenodd; clip-rule:evenodd"
viewBox="0 0 5.757 6.536"
 xmlns:xlink="http://www.w3.org/1999/xlink">
 <defs>
  <style type="text/css">
   <![CDATA[
    .fil3 {fill:#00F4FF}
    .fil0 {fill:#FFE552}
    .fil1 {fill:white}
    .fil2 {fill:gray;fill-rule:nonzero}
   ]]>
  </style>
 </defs>
 <g id="Layer_x0020_1">
  <metadata id="CorelCorpID_0Corel-Layer"/>
  <g id="_2082020280752">
   <path class="fil0" d="M3.057 0.049l2.523 1.457c0.112,0.064 0.175,0.182 0.175,0.302l0.002 0 0 2.92c0,0.141 -0.084,0.263 -0.205,0.318l-2.5 1.443c-0.113,0.066 -0.247,0.06 -0.352,-0.002l-2.523 -1.457c-0.113,-0.065 -0.175,-0.182 -0.176,-0.302l-0.001 0 0 -2.92c0,-0.141 0.084,-0.263 0.205,-0.318l2.5 -1.444c0.113,-0.065 0.247,-0.059 0.352,0.003z"/>
   <path class="fil1" d="M1.76 3.604c0.277,0 0.501,0.225 0.501,0.502 0,0.277 -0.224,0.502 -0.501,0.502 -0.278,0 -0.502,-0.225 -0.502,-0.502 0,-0.277 0.224,-0.502 0.502,-0.502z"/>
   <path class="fil2" d="M1.76 3.572c0.147,0 0.281,0.06 0.377,0.156 0.097,0.097 0.157,0.231 0.157,0.378 0,0.148 -0.06,0.281 -0.157,0.378 -0.096,0.097 -0.23,0.157 -0.377,0.157 -0.148,0 -0.282,-0.06 -0.378,-0.157 -0.097,-0.097 -0.157,-0.23 -0.157,-0.378 0,-0.147 0.06,-0.281 0.157,-0.378 0.096,-0.096 0.23,-0.156 0.378,-0.156zm0.331 0.202c-0.085,-0.084 -0.202,-0.137 -0.331,-0.137 -0.13,0 -0.247,0.053 -0.332,0.137 -0.085,0.085 -0.137,0.203 -0.137,0.332 0,0.13 0.052,0.247 0.137,0.332 0.085,0.085 0.202,0.137 0.332,0.137 0.129,0 0.246,-0.052 0.331,-0.137 0.085,-0.085 0.138,-0.202 0.138,-0.332 0,-0.129 -0.053,-0.247 -0.138,-0.332z"/>
   <path class="fil1" d="M2.878 1.667c0.277,0 0.502,0.224 0.502,0.501 0,0.278 -0.225,0.502 -0.502,0.502 -0.277,0 -0.501,-0.224 -0.501,-0.502 0,-0.277 0.224,-0.501 0.501,-0.501z"/>
   <path class="fil2" d="M2.878 1.634c0.148,0 0.282,0.06 0.378,0.157 0.097,0.096 0.157,0.23 0.157,0.377 0,0.148 -0.06,0.282 -0.157,0.378 -0.096,0.097 -0.23,0.157 -0.378,0.157 -0.147,0 -0.281,-0.06 -0.378,-0.157 -0.096,-0.096 -0.156,-0.23 -0.156,-0.378 0,-0.147 0.06,-0.281 0.156,-0.377 0.097,-0.097 0.231,-0.157 0.378,-0.157zm0.332 0.203c-0.085,-0.085 -0.202,-0.138 -0.332,-0.138 -0.129,0 -0.246,0.053 -0.331,0.138 -0.085,0.085 -0.138,0.202 -0.138,0.331 0,0.13 0.053,0.247 0.138,0.332 0.085,0.085 0.202,0.137 0.331,0.137 0.13,0 0.247,-0.052 0.332,-0.137 0.085,-0.085 0.137,-0.202 0.137,-0.332 0,-0.129 -0.052,-0.246 -0.137,-0.331z"/>
   <path class="fil3" d="M3.997 3.604c0.277,0 0.502,0.225 0.502,0.502 0,0.277 -0.225,0.502 -0.502,0.502 -0.277,0 -0.502,-0.225 -0.502,-0.502 0,-0.277 0.225,-0.502 0.502,-0.502z"/>
   <path class="fil2" d="M3.997 3.572c0.148,0 0.281,0.06 0.378,0.156 0.097,0.097 0.156,0.231 0.156,0.378 0,0.148 -0.059,0.281 -0.156,0.378 -0.097,0.097 -0.23,0.157 -0.378,0.157 -0.147,0 -0.281,-0.06 -0.378,-0.157 -0.097,-0.097 -0.156,-0.23 -0.156,-0.378 0,-0.147 0.059,-0.281 0.156,-0.378 0.097,-0.096 0.23,-0.156 0.378,-0.156zm0.332 0.202c-0.085,-0.084 -0.202,-0.137 -0.332,-0.137 -0.129,0 -0.247,0.053 -0.332,0.137 -0.084,0.085 -0.137,0.203 -0.137,0.332 0,0.13 0.053,0.247 0.137,0.332 0.085,0.085 0.203,0.137 0.332,0.137 0.13,0 0.247,-0.052 0.332,-0.137 0.085,-0.085 0.137,-0.202 0.137,-0.332 0,-0.129 -0.052,-0.247 -0.137,-0.332z"/>
   <path class="fil2" d="M2.543 4.139c-0.018,0 -0.033,-0.015 -0.033,-0.033 0,-0.018 0.015,-0.033 0.033,-0.033l0.918 0c0.018,0 0.032,0.015 0.032,0.033 0,0.018 -0.014,0.033 -0.032,0.033l-0.918 0z"/>
   <path class="fil2" d="M2.056 3.658c-0.009,0.015 -0.029,0.021 -0.044,0.012 -0.016,-0.009 -0.021,-0.029 -0.012,-0.045l0.458 -0.794c0.009,-0.016 0.029,-0.021 0.045,-0.012 0.015,0.008 0.021,0.028 0.012,0.044l-0.459 0.795z"/>
   <path class="fil2" d="M3.634 3.411c0.009,0.016 0.003,0.036 -0.012,0.045 -0.016,0.009 -0.036,0.004 -0.045,-0.012l-0.459 -0.795c-0.009,-0.015 -0.003,-0.035 0.012,-0.044 0.016,-0.009 0.036,-0.004 0.045,0.012l0.459 0.794z"/>
  </g>
 </g>
</svg>
