<?xml version="1.0" encoding="UTF-8"?>
<!DOCTYPE svg PUBLIC "-//W3C//DTD SVG 1.1//EN" "http://www.w3.org/Graphics/SVG/1.1/DTD/svg11.dtd">
<!-- Creator: CorelDRAW 2018 (64-Bit) -->
<svg xmlns="http://www.w3.org/2000/svg" xml:space="preserve" width="88px" height="100px" version="1.1" style="shape-rendering:geometricPrecision; text-rendering:geometricPrecision; image-rendering:optimizeQuality; fill-rule:evenodd; clip-rule:evenodd"
viewBox="0 0 8.712 9.891"
 xmlns:xlink="http://www.w3.org/1999/xlink">
 <defs>
  <style type="text/css">
   <![CDATA[
    .fil1 {fill:#00F4FF}
    .fil0 {fill:#FFE552}
    .fil3 {fill:white}
    .fil2 {fill:gray;fill-rule:nonzero}
   ]]>
  </style>
 </defs>
 <g id="Layer_x0020_1">
  <metadata id="CorelCorpID_0Corel-Layer"/>
  <g id="_2117585102352">
   <path class="fil0" d="M4.626 0.074l3.819 2.205c0.169,0.098 0.264,0.275 0.264,0.458l0.003 0 0 4.417c0,0.214 -0.127,0.399 -0.31,0.483l-3.783 2.184c-0.171,0.098 -0.375,0.09 -0.533,-0.004l-3.819 -2.205c-0.17,-0.098 -0.265,-0.275 -0.265,-0.458l-0.002 0 0 -4.417c0,-0.215 0.127,-0.399 0.31,-0.483l3.783 -2.184c0.171,-0.098 0.374,-0.09 0.533,0.004z"/>
   <path class="fil1" d="M5.602 5.809c0.376,0 0.681,0.305 0.681,0.681 0,0.376 -0.305,0.681 -0.681,0.681 -0.376,0 -0.681,-0.305 -0.681,-0.681 0,-0.376 0.305,-0.681 0.681,-0.681z"/>
   <path class="fil2" d="M5.602 5.759c0.202,0 0.384,0.082 0.517,0.214 0.132,0.133 0.214,0.315 0.214,0.517 0,0.202 -0.082,0.384 -0.214,0.516 -0.133,0.133 -0.315,0.214 -0.517,0.214 -0.202,0 -0.384,-0.081 -0.516,-0.214 -0.133,-0.132 -0.214,-0.314 -0.214,-0.516 0,-0.202 0.081,-0.385 0.214,-0.517 0.132,-0.132 0.314,-0.214 0.516,-0.214zm0.447 0.284c-0.115,-0.114 -0.272,-0.185 -0.447,-0.185 -0.174,0 -0.332,0.071 -0.447,0.185 -0.114,0.114 -0.185,0.272 -0.185,0.447 0,0.174 0.071,0.332 0.185,0.446 0.115,0.115 0.273,0.185 0.447,0.185 0.175,0 0.332,-0.07 0.447,-0.185 0.114,-0.114 0.185,-0.272 0.185,-0.446 0,-0.175 -0.071,-0.333 -0.185,-0.447z"/>
   <path class="fil2" d="M2.97 5.286c-0.024,-0.012 -0.035,-0.041 -0.024,-0.066 0.012,-0.025 0.041,-0.035 0.066,-0.024l1.781 0.831c0.025,0.011 0.035,0.04 0.024,0.065 -0.012,0.025 -0.041,0.036 -0.066,0.024l-1.781 -0.83z"/>
   <path class="fil2" d="M5.069 3.678c0.024,-0.012 0.054,-0.001 0.065,0.024 0.012,0.024 0.001,0.054 -0.024,0.065l-1.657 0.773c-0.025,0.012 -0.054,0.001 -0.066,-0.024 -0.011,-0.024 -0.001,-0.054 0.024,-0.065l1.658 -0.773z"/>
   <path class="fil3" d="M2.516 4.264c0.376,0 0.681,0.305 0.681,0.681 0,0.377 -0.305,0.682 -0.681,0.682 -0.376,0 -0.681,-0.305 -0.681,-0.682 0,-0.376 0.305,-0.681 0.681,-0.681z"/>
   <path class="fil2" d="M2.516 4.215c0.202,0 0.385,0.082 0.517,0.214 0.132,0.132 0.214,0.315 0.214,0.516 0,0.202 -0.082,0.385 -0.214,0.517 -0.133,0.132 -0.315,0.214 -0.517,0.214 -0.201,0 -0.384,-0.082 -0.516,-0.214 -0.133,-0.132 -0.214,-0.315 -0.214,-0.517 0,-0.201 0.082,-0.384 0.214,-0.516 0.132,-0.132 0.315,-0.214 0.516,-0.214zm0.447 0.284c-0.114,-0.114 -0.272,-0.185 -0.447,-0.185 -0.174,0 -0.332,0.071 -0.446,0.185 -0.115,0.114 -0.185,0.272 -0.185,0.446 0,0.175 0.07,0.333 0.185,0.447 0.114,0.114 0.272,0.185 0.446,0.185 0.175,0 0.333,-0.071 0.447,-0.185 0.114,-0.114 0.185,-0.272 0.185,-0.447 0,-0.174 -0.071,-0.332 -0.185,-0.446z"/>
   <path class="fil3" d="M5.602 2.72c0.376,0 0.681,0.305 0.681,0.681 0,0.376 -0.305,0.681 -0.681,0.681 -0.376,0 -0.681,-0.305 -0.681,-0.681 0,-0.376 0.305,-0.681 0.681,-0.681z"/>
   <path class="fil2" d="M5.602 2.671c0.202,0 0.384,0.081 0.517,0.214 0.132,0.132 0.214,0.315 0.214,0.516 0,0.202 -0.082,0.385 -0.214,0.517 -0.133,0.132 -0.315,0.214 -0.517,0.214 -0.202,0 -0.384,-0.082 -0.516,-0.214 -0.133,-0.132 -0.214,-0.315 -0.214,-0.517 0,-0.202 0.081,-0.384 0.214,-0.516 0.132,-0.133 0.314,-0.214 0.516,-0.214zm0.447 0.283c-0.115,-0.114 -0.272,-0.185 -0.447,-0.185 -0.174,0 -0.332,0.071 -0.447,0.185 -0.114,0.115 -0.185,0.273 -0.185,0.447 0,0.175 0.071,0.332 0.185,0.447 0.115,0.114 0.273,0.185 0.447,0.185 0.175,0 0.332,-0.071 0.447,-0.185 0.114,-0.115 0.185,-0.272 0.185,-0.447 0,-0.174 -0.071,-0.332 -0.185,-0.447z"/>
  </g>
 </g>
</svg>
