<?xml version="1.0" encoding="UTF-8"?>
<!DOCTYPE svg PUBLIC "-//W3C//DTD SVG 1.1//EN" "http://www.w3.org/Graphics/SVG/1.1/DTD/svg11.dtd">
<!-- Creator: CorelDRAW 2018 (64-Bit) -->
<svg xmlns="http://www.w3.org/2000/svg" xml:space="preserve" width="88px" height="100px" version="1.1" style="shape-rendering:geometricPrecision; text-rendering:geometricPrecision; image-rendering:optimizeQuality; fill-rule:evenodd; clip-rule:evenodd"
viewBox="0 0 4.304 4.886"
 xmlns:xlink="http://www.w3.org/1999/xlink">
 <defs>
  <style type="text/css">
   <![CDATA[
    .fil3 {fill:#00F4FF}
    .fil0 {fill:#7FB0FF}
    .fil1 {fill:white}
    .fil2 {fill:gray;fill-rule:nonzero}
   ]]>
  </style>
 </defs>
 <g id="Layer_x0020_1">
  <metadata id="CorelCorpID_0Corel-Layer"/>
  <g id="_2081717214576">
   <path class="fil0" d="M2.285 0.037l1.887 1.089c0.084,0.048 0.131,0.136 0.131,0.226l0.001 0 0 2.182c0,0.106 -0.063,0.197 -0.153,0.239l-1.869 1.079c-0.085,0.048 -0.185,0.044 -0.264,-0.002l-1.886 -1.09c-0.084,-0.048 -0.131,-0.135 -0.131,-0.226l-0.001 0 0 -2.182c0,-0.106 0.063,-0.197 0.153,-0.238l1.869 -1.079c0.085,-0.049 0.185,-0.045 0.263,0.002z"/>
   <path class="fil1" d="M2.986 1.417l-1.668 0c-0.106,0 -0.192,0.087 -0.192,0.192l0 1.668c0,0.106 0.086,0.192 0.192,0.192l1.668 0c0.105,0 0.192,-0.086 0.192,-0.192l0 -1.668c0,-0.105 -0.087,-0.192 -0.192,-0.192z"/>
   <path class="fil2" d="M2.986 1.441l-1.668 0c-0.046,0 -0.088,0.019 -0.118,0.05 -0.031,0.03 -0.05,0.072 -0.05,0.118l0 1.668c0,0.046 0.019,0.088 0.049,0.118 0.031,0.031 0.073,0.05 0.119,0.05l1.668 0c0.046,0 0.088,-0.019 0.118,-0.049 0.031,-0.031 0.05,-0.073 0.05,-0.119l0 -1.668c0,-0.046 -0.019,-0.088 -0.05,-0.118 -0.03,-0.031 -0.072,-0.05 -0.118,-0.05zm-1.668 -0.048l1.668 0c0.059,0 0.113,0.024 0.153,0.063 0.039,0.04 0.063,0.094 0.063,0.153l0 1.668c0,0.059 -0.024,0.114 -0.063,0.153 -0.04,0.039 -0.094,0.064 -0.153,0.064l-1.668 0c-0.059,0 -0.114,-0.025 -0.153,-0.064 -0.039,-0.039 -0.064,-0.094 -0.064,-0.153l0 -1.668c0,-0.059 0.025,-0.113 0.064,-0.153 0.039,-0.039 0.094,-0.063 0.153,-0.063z"/>
   <path class="fil3" d="M2.14 1.861c0,-0.078 0.061,-0.081 0.104,-0.038l0.569 0.569c0.028,0.028 0.028,0.074 0,0.102l-0.569 0.569c-0.043,0.044 -0.104,0.041 -0.104,-0.038l0 -0.253c0,-0.04 -0.034,-0.073 -0.074,-0.073l-0.523 0c-0.04,0 -0.073,-0.033 -0.073,-0.074l0 -0.364c0,-0.04 0.033,-0.073 0.073,-0.073l0.523 0c0.04,0 0.074,-0.034 0.074,-0.074l0 -0.253z"/>
   <path class="fil2" d="M2.115 1.861c0,-0.023 0.005,-0.041 0.013,-0.055 0.008,-0.016 0.021,-0.026 0.036,-0.032 0.014,-0.005 0.03,-0.005 0.045,0 0.018,0.005 0.036,0.016 0.052,0.032l0.571 0.57c0.018,0.019 0.027,0.043 0.027,0.067 0,0.025 -0.01,0.05 -0.029,0.069l-0.57 0.57c-0.016,0.015 -0.034,0.026 -0.051,0.03 -0.015,0.005 -0.031,0.005 -0.045,0 -0.015,-0.005 -0.028,-0.016 -0.036,-0.031 -0.008,-0.014 -0.013,-0.033 -0.013,-0.056l0 -0.253c0,-0.013 -0.005,-0.025 -0.014,-0.034 -0.009,-0.009 -0.022,-0.015 -0.035,-0.015l-0.523 0c-0.027,0 -0.051,-0.011 -0.069,-0.029 -0.018,-0.017 -0.029,-0.042 -0.029,-0.069l0 -0.364c0,-0.027 0.011,-0.051 0.029,-0.069 0.018,-0.018 0.042,-0.029 0.069,-0.029l0.523 0c0.013,0 0.026,-0.005 0.035,-0.014 0.009,-0.009 0.014,-0.022 0.014,-0.035l0 -0.253zm0.055 -0.032c-0.004,0.007 -0.006,0.017 -0.006,0.032l0 0.253c0,0.027 -0.011,0.051 -0.029,0.069 -0.017,0.018 -0.042,0.029 -0.069,0.029l-0.523 0c-0.013,0 -0.026,0.006 -0.034,0.015 -0.009,0.008 -0.015,0.021 -0.015,0.034l0 0.364c0,0.013 0.006,0.026 0.015,0.035 0.008,0.009 0.021,0.014 0.034,0.014l0.523 0c0.027,0 0.052,0.011 0.069,0.029 0.018,0.018 0.029,0.042 0.029,0.069l0 0.253c0,0.015 0.002,0.025 0.006,0.032 0.003,0.005 0.006,0.008 0.01,0.009 0.004,0.001 0.01,0.001 0.016,-0.001 0.01,-0.002 0.02,-0.009 0.03,-0.018l0.57 -0.57c0.009,-0.009 0.014,-0.022 0.014,-0.034 0,-0.012 -0.005,-0.024 -0.013,-0.033l-0.57 -0.57c-0.01,-0.01 -0.021,-0.016 -0.031,-0.019 -0.006,-0.002 -0.012,-0.002 -0.016,-0.001 -0.004,0.002 -0.007,0.005 -0.01,0.009z"/>
  </g>
 </g>
</svg>
