<?xml version="1.0" encoding="UTF-8"?>
<!DOCTYPE svg PUBLIC "-//W3C//DTD SVG 1.1//EN" "http://www.w3.org/Graphics/SVG/1.1/DTD/svg11.dtd">
<!-- Creator: CorelDRAW 2018 (64-Bit) -->
<svg xmlns="http://www.w3.org/2000/svg" xml:space="preserve" width="88px" height="100px" version="1.1" style="shape-rendering:geometricPrecision; text-rendering:geometricPrecision; image-rendering:optimizeQuality; fill-rule:evenodd; clip-rule:evenodd"
viewBox="0 0 5.757 6.536"
 xmlns:xlink="http://www.w3.org/1999/xlink">
 <defs>
  <style type="text/css">
   <![CDATA[
    .fil3 {fill:#00F4FF}
    .fil0 {fill:#B0C2FC}
    .fil1 {fill:white}
    .fil2 {fill:gray;fill-rule:nonzero}
   ]]>
  </style>
 </defs>
 <g id="Layer_x0020_1">
  <metadata id="CorelCorpID_0Corel-Layer"/>
  <g id="_2081717219376">
   <path class="fil0" d="M3.057 0.049l2.523 1.457c0.112,0.064 0.175,0.182 0.175,0.302l0.002 0 0 2.92c0,0.141 -0.084,0.263 -0.205,0.318l-2.5 1.443c-0.113,0.066 -0.247,0.06 -0.352,-0.002l-2.523 -1.457c-0.113,-0.065 -0.175,-0.182 -0.176,-0.302l-0.001 0 0 -2.92c0,-0.141 0.084,-0.263 0.205,-0.318l2.5 -1.444c0.113,-0.065 0.247,-0.059 0.352,0.003z"/>
   <path class="fil1" d="M1.763 1.895l2.231 0c0.141,0 0.257,0.116 0.257,0.258l0 2.23c0,0.142 -0.116,0.257 -0.257,0.257l-2.231 0c-0.141,0 -0.257,-0.115 -0.257,-0.257l0 -2.23c0,-0.142 0.116,-0.258 0.257,-0.258z"/>
   <path class="fil2" d="M1.763 1.863l2.231 0c0.079,0 0.152,0.032 0.204,0.085 0.053,0.053 0.086,0.125 0.086,0.205l0 2.23c0,0.08 -0.033,0.152 -0.086,0.205 -0.052,0.053 -0.125,0.085 -0.204,0.085l-2.231 0c-0.08,0 -0.152,-0.032 -0.205,-0.085 -0.052,-0.053 -0.085,-0.125 -0.085,-0.205l0 -2.23c0,-0.08 0.033,-0.152 0.085,-0.205 0.053,-0.053 0.125,-0.085 0.205,-0.085zm2.231 0.065l-2.231 0c-0.062,0 -0.118,0.025 -0.159,0.066 -0.04,0.041 -0.066,0.097 -0.066,0.159l0 2.23c0,0.062 0.026,0.118 0.066,0.159 0.041,0.041 0.097,0.066 0.159,0.066l2.231 0c0.061,0 0.118,-0.025 0.158,-0.066 0.041,-0.041 0.066,-0.097 0.066,-0.159l0 -2.23c0,-0.062 -0.025,-0.118 -0.066,-0.159 -0.04,-0.041 -0.097,-0.066 -0.158,-0.066z"/>
   <path class="fil3" d="M2.895 2.489c0,-0.105 -0.082,-0.109 -0.14,-0.051l-0.761 0.761c-0.038,0.038 -0.038,0.099 0,0.137l0.761 0.761c0.058,0.058 0.14,0.055 0.14,-0.05l0 -0.339c0,-0.054 0.044,-0.098 0.098,-0.098l0.699 0c0.055,0 0.099,-0.045 0.099,-0.099l0 -0.486c0,-0.054 -0.044,-0.099 -0.099,-0.099l-0.699 0c-0.054,0 -0.098,-0.044 -0.098,-0.098l0 -0.339z"/>
   <path class="fil2" d="M2.862 2.489c0,-0.019 -0.003,-0.033 -0.008,-0.042 -0.004,-0.006 -0.008,-0.01 -0.013,-0.012 -0.006,-0.002 -0.013,-0.002 -0.022,0 -0.013,0.004 -0.028,0.013 -0.041,0.026l-0.762 0.763c-0.012,0.012 -0.018,0.028 -0.018,0.044 0,0.016 0.007,0.033 0.019,0.045l0.763 0.763c0.013,0.012 0.026,0.021 0.039,0.024 0.009,0.003 0.016,0.003 0.022,0.001 0.005,-0.002 0.009,-0.006 0.013,-0.012 0.005,-0.009 0.008,-0.023 0.008,-0.042l0 -0.339c0,-0.036 0.015,-0.069 0.039,-0.092 0.023,-0.024 0.056,-0.039 0.092,-0.039l0.699 0c0.018,0 0.035,-0.007 0.047,-0.019 0.012,-0.012 0.019,-0.029 0.019,-0.047l0 -0.486c0,-0.018 -0.007,-0.035 -0.019,-0.047 -0.012,-0.012 -0.029,-0.019 -0.047,-0.019l-0.699 0c-0.036,0 -0.069,-0.015 -0.092,-0.039 -0.024,-0.023 -0.039,-0.056 -0.039,-0.092l0 -0.339zm0.049 -0.074c0.01,0.019 0.016,0.043 0.016,0.074l0 0.339c0,0.018 0.008,0.034 0.02,0.046 0.012,0.012 0.028,0.019 0.046,0.019l0.699 0c0.036,0 0.069,0.015 0.093,0.039 0.024,0.024 0.039,0.057 0.039,0.093l0 0.486c0,0.036 -0.015,0.069 -0.039,0.093 -0.024,0.024 -0.057,0.038 -0.093,0.038l-0.699 0c-0.018,0 -0.034,0.008 -0.046,0.02 -0.012,0.012 -0.02,0.028 -0.02,0.046l0 0.339c0,0.03 -0.006,0.055 -0.016,0.074 -0.012,0.021 -0.029,0.035 -0.049,0.041 -0.019,0.007 -0.039,0.007 -0.06,0.001 -0.023,-0.006 -0.047,-0.02 -0.068,-0.041l-0.763 -0.762c-0.025,-0.026 -0.038,-0.059 -0.038,-0.092 0,-0.032 0.012,-0.064 0.036,-0.09l0.763 -0.763c0.021,-0.021 0.046,-0.036 0.07,-0.042 0.021,-0.006 0.041,-0.006 0.06,0 0.02,0.007 0.037,0.021 0.049,0.042z"/>
  </g>
 </g>
</svg>
