<?xml version="1.0" encoding="UTF-8"?>
<!DOCTYPE svg PUBLIC "-//W3C//DTD SVG 1.1//EN" "http://www.w3.org/Graphics/SVG/1.1/DTD/svg11.dtd">
<!-- Creator: CorelDRAW 2018 (64-Bit) -->
<svg xmlns="http://www.w3.org/2000/svg" xml:space="preserve" width="88px" height="100px" version="1.1" style="shape-rendering:geometricPrecision; text-rendering:geometricPrecision; image-rendering:optimizeQuality; fill-rule:evenodd; clip-rule:evenodd"
viewBox="0 0 8.712 9.891"
 xmlns:xlink="http://www.w3.org/1999/xlink">
 <defs>
  <style type="text/css">
   <![CDATA[
    .fil4 {fill:#00F4FF}
    .fil3 {fill:#EAEDF2}
    .fil0 {fill:#FC9F9F}
    .fil1 {fill:white}
    .fil2 {fill:gray;fill-rule:nonzero}
   ]]>
  </style>
 </defs>
 <g id="Layer_x0020_1">
  <metadata id="CorelCorpID_0Corel-Layer"/>
  <g id="_2082074520560">
   <path class="fil0" d="M4.626 0.074l3.819 2.205c0.169,0.098 0.264,0.275 0.264,0.458l0.003 0 0 4.417c0,0.214 -0.127,0.399 -0.31,0.483l-3.783 2.184c-0.171,0.098 -0.375,0.09 -0.533,-0.004l-3.819 -2.205c-0.17,-0.098 -0.265,-0.275 -0.265,-0.458l-0.002 0 0 -4.417c0,-0.215 0.127,-0.399 0.31,-0.483l3.783 -2.184c0.171,-0.098 0.374,-0.09 0.533,0.004z"/>
   <path class="fil1" d="M2.256 2.967l4.2 0c0.114,0 0.208,0.094 0.208,0.208l0 3.54c0,0.115 -0.094,0.209 -0.208,0.209l-4.2 0c-0.114,0 -0.208,-0.094 -0.208,-0.209l0 -3.54c0,-0.114 0.094,-0.208 0.208,-0.208z"/>
   <path class="fil2" d="M2.256 2.918l4.2 0c0.07,0 0.135,0.029 0.182,0.075 0.046,0.047 0.075,0.112 0.075,0.182l0 3.54c0,0.071 -0.029,0.136 -0.075,0.182 -0.047,0.047 -0.112,0.076 -0.182,0.076l-4.2 0c-0.071,0 -0.135,-0.029 -0.182,-0.076 -0.047,-0.046 -0.076,-0.111 -0.076,-0.182l0 -3.54c0,-0.07 0.029,-0.135 0.076,-0.182 0.047,-0.046 0.111,-0.075 0.182,-0.075zm4.2 0.099l-4.2 0c-0.043,0 -0.083,0.018 -0.112,0.046 -0.029,0.029 -0.047,0.069 -0.047,0.112l0 3.54c0,0.044 0.018,0.084 0.047,0.113 0.029,0.028 0.069,0.046 0.112,0.046l4.2 0c0.043,0 0.083,-0.018 0.112,-0.046 0.028,-0.029 0.046,-0.069 0.046,-0.113l0 -3.54c0,-0.043 -0.018,-0.083 -0.046,-0.112 -0.029,-0.028 -0.069,-0.046 -0.112,-0.046z"/>
   <path class="fil3" d="M2.575 4.937l0 1.344c0,0.063 0.052,0.115 0.115,0.115l3.331 0c0.064,0 0.115,-0.052 0.115,-0.115l0 -1.344c0,-0.063 -0.051,-0.115 -0.115,-0.115l-3.331 0c-0.063,0 -0.115,0.052 -0.115,0.115z"/>
   <path class="fil2" d="M2.625 4.937l0 1.344c0,0.018 0.007,0.035 0.019,0.046 0.012,0.012 0.028,0.02 0.046,0.02l3.331 0c0.018,0 0.035,-0.008 0.047,-0.02 0.011,-0.011 0.019,-0.028 0.019,-0.046l0 -1.344c0,-0.018 -0.008,-0.034 -0.019,-0.046 -0.012,-0.012 -0.029,-0.019 -0.047,-0.019l-3.331 0c-0.018,0 -0.034,0.007 -0.046,0.019 -0.012,0.012 -0.019,0.028 -0.019,0.046zm-0.099 1.344l0 -1.344c0,-0.045 0.018,-0.086 0.048,-0.116 0.03,-0.03 0.071,-0.048 0.116,-0.048l3.331 0c0.046,0 0.087,0.018 0.117,0.048 0.029,0.03 0.048,0.071 0.048,0.116l0 1.344c0,0.046 -0.019,0.087 -0.048,0.116 -0.03,0.03 -0.071,0.049 -0.117,0.049l-3.331 0c-0.045,0 -0.086,-0.019 -0.116,-0.049 -0.03,-0.029 -0.048,-0.07 -0.048,-0.116z"/>
   <path class="fil4" d="M3.037 4.418c0.255,0 0.462,-0.207 0.462,-0.462 0,-0.254 -0.207,-0.461 -0.462,-0.461 -0.255,0 -0.462,0.207 -0.462,0.461 0,0.255 0.207,0.462 0.462,0.462z"/>
   <path class="fil2" d="M3.037 4.369c0.114,0 0.217,-0.047 0.291,-0.121l0.003 -0.002c0.073,-0.075 0.118,-0.177 0.118,-0.29 0,-0.113 -0.046,-0.216 -0.121,-0.291 -0.074,-0.075 -0.177,-0.121 -0.291,-0.121 -0.114,0 -0.217,0.046 -0.291,0.121 -0.075,0.075 -0.121,0.178 -0.121,0.291 0,0.114 0.046,0.217 0.121,0.292 0.074,0.074 0.177,0.121 0.291,0.121zm0.361 -0.051c-0.092,0.092 -0.22,0.15 -0.361,0.15 -0.141,0 -0.269,-0.058 -0.361,-0.15 -0.093,-0.093 -0.15,-0.22 -0.15,-0.362 0,-0.141 0.057,-0.268 0.15,-0.361 0.092,-0.092 0.22,-0.15 0.361,-0.15 0.141,0 0.269,0.058 0.361,0.15 0.093,0.093 0.15,0.22 0.15,0.361 0,0.14 -0.056,0.267 -0.147,0.359l-0.003 0.003z"/>
   <path class="fil2" d="M3.9 3.757c-0.027,0 -0.049,-0.022 -0.049,-0.049 0,-0.028 0.022,-0.05 0.049,-0.05l2.075 0c0.028,0 0.05,0.022 0.05,0.05 0,0.027 -0.022,0.049 -0.05,0.049l-2.075 0z"/>
   <path class="fil2" d="M3.9 4.255c-0.027,0 -0.049,-0.023 -0.049,-0.05 0,-0.027 0.022,-0.049 0.049,-0.049l0.94 0c0.027,0 0.049,0.022 0.049,0.049 0,0.027 -0.022,0.05 -0.049,0.05l-0.94 0z"/>
  </g>
 </g>
</svg>
