<?xml version="1.0" encoding="UTF-8"?>
<!DOCTYPE svg PUBLIC "-//W3C//DTD SVG 1.1//EN" "http://www.w3.org/Graphics/SVG/1.1/DTD/svg11.dtd">
<!-- Creator: CorelDRAW 2018 (64-Bit) -->
<svg xmlns="http://www.w3.org/2000/svg" xml:space="preserve" width="88px" height="100px" version="1.1" style="shape-rendering:geometricPrecision; text-rendering:geometricPrecision; image-rendering:optimizeQuality; fill-rule:evenodd; clip-rule:evenodd"
viewBox="0 0 17.871 20.29"
 xmlns:xlink="http://www.w3.org/1999/xlink">
 <defs>
  <style type="text/css">
   <![CDATA[
    .fil4 {fill:#00F4FF}
    .fil5 {fill:gray}
    .fil0 {fill:#99F0FF}
    .fil3 {fill:#EAEDF2}
    .fil1 {fill:white}
    .fil2 {fill:gray;fill-rule:nonzero}
   ]]>
  </style>
 </defs>
 <g id="Layer_x0020_1">
  <metadata id="CorelCorpID_0Corel-Layer"/>
  <g id="_2082075923136">
   <path class="fil0" d="M9.49 0.153l7.833 4.522c0.348,0.2 0.543,0.564 0.544,0.939l0.004 0 0 9.062c0,0.44 -0.261,0.818 -0.635,0.99l-7.761 4.48c-0.351,0.202 -0.768,0.185 -1.094,-0.008l-7.833 -4.523c-0.348,-0.2 -0.543,-0.564 -0.543,-0.939l-0.005 0 0 -9.062c0,-0.439 0.261,-0.818 0.636,-0.989l7.76 -4.481c0.351,-0.202 0.768,-0.185 1.094,0.009z"/>
   <path class="fil1" d="M4.105 14l0 -6.425 9.661 0 0 6.425c0,0.112 -0.092,0.203 -0.203,0.203l-9.255 0c-0.111,0 -0.203,-0.091 -0.203,-0.203z"/>
   <path class="fil2" d="M4.004 14l0 -6.425c0,-0.056 0.045,-0.102 0.101,-0.102l9.661 0c0.056,0 0.101,0.046 0.101,0.102l0 6.425c0,0.084 -0.034,0.16 -0.089,0.215 -0.055,0.055 -0.132,0.09 -0.215,0.09l-9.255 0c-0.084,0 -0.16,-0.035 -0.215,-0.09 -0.055,-0.055 -0.089,-0.131 -0.089,-0.215zm0.203 -6.324l0 6.324c0,0.028 0.011,0.053 0.03,0.072 0.018,0.018 0.044,0.03 0.071,0.03l9.255 0c0.028,0 0.053,-0.012 0.071,-0.03 0.019,-0.019 0.03,-0.044 0.03,-0.072l0 -6.324 -9.457 0z"/>
   <path class="fil3" d="M4.957 10.165l0 -1.364c0,-0.114 0.093,-0.207 0.207,-0.207l1.615 0c0.114,0 0.207,0.093 0.207,0.207l0 1.364c0,0.114 -0.093,0.207 -0.207,0.207l-1.615 0c-0.114,0 -0.207,-0.093 -0.207,-0.207z"/>
   <path class="fil2" d="M4.855 10.165l0 -1.364c0,-0.085 0.035,-0.162 0.091,-0.218 0.055,-0.055 0.133,-0.09 0.218,-0.09l1.615 0c0.085,0 0.162,0.035 0.218,0.09 0.055,0.056 0.09,0.133 0.09,0.218l0 1.364c0,0.085 -0.035,0.162 -0.09,0.218 -0.056,0.056 -0.133,0.09 -0.218,0.09l-1.615 0c-0.085,0 -0.163,-0.034 -0.218,-0.09 -0.056,-0.056 -0.091,-0.133 -0.091,-0.218zm0.203 -1.364l0 1.364c0,0.029 0.012,0.055 0.031,0.075 0.019,0.019 0.046,0.031 0.075,0.031l1.615 0c0.029,0 0.055,-0.012 0.074,-0.031 0.019,-0.02 0.031,-0.046 0.031,-0.075l0 -1.364c0,-0.029 -0.012,-0.055 -0.031,-0.074 -0.019,-0.019 -0.045,-0.031 -0.074,-0.031l-1.615 0c-0.029,0 -0.056,0.012 -0.075,0.031 -0.019,0.019 -0.031,0.045 -0.031,0.074z"/>
   <path class="fil1" d="M4.957 13.041l0 -1.364c0,-0.114 0.093,-0.207 0.207,-0.207l1.615 0c0.114,0 0.207,0.093 0.207,0.207l0 1.364c0,0.114 -0.093,0.207 -0.207,0.207l-1.615 0c-0.114,0 -0.207,-0.093 -0.207,-0.207z"/>
   <path class="fil2" d="M4.855 13.041l0 -1.364c0,-0.085 0.035,-0.162 0.091,-0.218 0.055,-0.055 0.133,-0.09 0.218,-0.09l1.615 0c0.085,0 0.162,0.035 0.218,0.09 0.055,0.056 0.09,0.133 0.09,0.218l0 1.364c0,0.085 -0.035,0.162 -0.09,0.218 -0.056,0.056 -0.133,0.091 -0.218,0.091l-1.615 0c-0.085,0 -0.163,-0.035 -0.218,-0.091 -0.056,-0.056 -0.091,-0.133 -0.091,-0.218zm0.203 -1.364l0 1.364c0,0.029 0.012,0.055 0.031,0.075 0.019,0.019 0.046,0.031 0.075,0.031l1.615 0c0.029,0 0.055,-0.012 0.074,-0.031 0.019,-0.02 0.031,-0.046 0.031,-0.075l0 -1.364c0,-0.029 -0.012,-0.055 -0.031,-0.074 -0.019,-0.019 -0.045,-0.031 -0.074,-0.031l-1.615 0c-0.029,0 -0.056,0.012 -0.075,0.031 -0.019,0.019 -0.031,0.045 -0.031,0.074z"/>
   <path class="fil1" d="M7.921 10.133l0 -1.364c0,-0.114 0.093,-0.207 0.207,-0.207l1.615 0c0.114,0 0.207,0.093 0.207,0.207l0 1.364c0,0.114 -0.093,0.207 -0.207,0.207l-1.615 0c-0.114,0 -0.207,-0.093 -0.207,-0.207z"/>
   <path class="fil2" d="M7.82 10.133l0 -1.364c0,-0.085 0.034,-0.162 0.09,-0.218 0.056,-0.056 0.133,-0.09 0.218,-0.09l1.615 0c0.085,0 0.162,0.034 0.218,0.09 0.056,0.056 0.09,0.133 0.09,0.218l0 1.364c0,0.085 -0.034,0.162 -0.09,0.218 -0.056,0.056 -0.133,0.09 -0.218,0.09l-1.615 0c-0.085,0 -0.162,-0.034 -0.218,-0.09 -0.056,-0.056 -0.09,-0.133 -0.09,-0.218zm0.202 -1.364l0 1.364c0,0.029 0.012,0.055 0.032,0.074 0.019,0.019 0.045,0.031 0.074,0.031l1.615 0c0.029,0 0.055,-0.012 0.075,-0.031 0.019,-0.019 0.031,-0.045 0.031,-0.074l0 -1.364c0,-0.029 -0.012,-0.055 -0.031,-0.074 -0.02,-0.02 -0.046,-0.032 -0.075,-0.032l-1.615 0c-0.029,0 -0.055,0.012 -0.074,0.032 -0.02,0.019 -0.032,0.045 -0.032,0.074z"/>
   <path class="fil3" d="M7.921 13.009l0 -1.364c0,-0.114 0.093,-0.207 0.207,-0.207l1.615 0c0.114,0 0.207,0.093 0.207,0.207l0 1.364c0,0.114 -0.093,0.207 -0.207,0.207l-1.615 0c-0.114,0 -0.207,-0.093 -0.207,-0.207z"/>
   <path class="fil2" d="M7.82 13.009l0 -1.364c0,-0.085 0.034,-0.162 0.09,-0.218 0.056,-0.056 0.133,-0.09 0.218,-0.09l1.615 0c0.085,0 0.162,0.034 0.218,0.09 0.056,0.056 0.09,0.133 0.09,0.218l0 1.364c0,0.085 -0.034,0.162 -0.09,0.218 -0.056,0.056 -0.133,0.09 -0.218,0.09l-1.615 0c-0.085,0 -0.162,-0.034 -0.218,-0.09 -0.056,-0.056 -0.09,-0.133 -0.09,-0.218zm0.202 -1.364l0 1.364c0,0.029 0.012,0.055 0.032,0.074 0.019,0.02 0.045,0.031 0.074,0.031l1.615 0c0.029,0 0.055,-0.011 0.075,-0.031 0.019,-0.019 0.031,-0.045 0.031,-0.074l0 -1.364c0,-0.029 -0.012,-0.055 -0.031,-0.074 -0.02,-0.02 -0.046,-0.031 -0.075,-0.031l-1.615 0c-0.029,0 -0.055,0.011 -0.074,0.031 -0.02,0.019 -0.032,0.045 -0.032,0.074z"/>
   <path class="fil3" d="M10.885 10.133l0 -1.364c0,-0.114 0.093,-0.207 0.207,-0.207l1.615 0c0.114,0 0.207,0.093 0.207,0.207l0 1.364c0,0.114 -0.093,0.207 -0.207,0.207l-1.615 0c-0.114,0 -0.207,-0.093 -0.207,-0.207z"/>
   <path class="fil2" d="M10.784 10.133l0 -1.364c0,-0.085 0.035,-0.162 0.09,-0.218 0.056,-0.056 0.133,-0.09 0.218,-0.09l1.615 0c0.085,0 0.163,0.034 0.218,0.09 0.056,0.056 0.091,0.133 0.091,0.218l0 1.364c0,0.085 -0.035,0.162 -0.091,0.218 -0.055,0.056 -0.133,0.09 -0.218,0.09l-1.615 0c-0.085,0 -0.162,-0.034 -0.218,-0.09 -0.055,-0.056 -0.09,-0.133 -0.09,-0.218zm0.203 -1.364l0 1.364c0,0.029 0.012,0.055 0.031,0.074 0.019,0.02 0.045,0.031 0.074,0.031l1.615 0c0.029,0 0.056,-0.011 0.075,-0.031 0.019,-0.019 0.031,-0.045 0.031,-0.074l0 -1.364c0,-0.029 -0.012,-0.055 -0.031,-0.074 -0.019,-0.02 -0.046,-0.032 -0.075,-0.032l-1.615 0c-0.029,0 -0.055,0.012 -0.074,0.032 -0.019,0.019 -0.031,0.045 -0.031,0.074z"/>
   <path class="fil1" d="M10.885 13.009l0 -1.364c0,-0.114 0.093,-0.207 0.207,-0.207l1.615 0c0.114,0 0.207,0.093 0.207,0.207l0 1.364c0,0.114 -0.093,0.207 -0.207,0.207l-1.615 0c-0.114,0 -0.207,-0.093 -0.207,-0.207z"/>
   <path class="fil2" d="M10.784 13.009l0 -1.364c0,-0.085 0.035,-0.162 0.091,-0.218 0.055,-0.056 0.132,-0.09 0.217,-0.09l1.615 0c0.085,0 0.163,0.034 0.218,0.09l0.007 0.007c0.052,0.055 0.084,0.13 0.084,0.211l0 1.364c0,0.085 -0.035,0.162 -0.091,0.218 -0.055,0.056 -0.133,0.09 -0.218,0.09l-1.615 0c-0.085,0 -0.162,-0.034 -0.218,-0.09 -0.055,-0.056 -0.09,-0.133 -0.09,-0.218zm0.203 -1.364l0 1.364c0,0.029 0.012,0.055 0.031,0.074 0.019,0.02 0.045,0.031 0.074,0.031l1.615 0c0.029,0 0.056,-0.011 0.075,-0.031 0.019,-0.019 0.031,-0.045 0.031,-0.074l0 -1.364c0,-0.027 -0.01,-0.052 -0.027,-0.071l-0.004 -0.003c-0.019,-0.02 -0.046,-0.031 -0.075,-0.031l-1.615 0c-0.029,0 -0.055,0.011 -0.074,0.031 -0.019,0.018 -0.031,0.045 -0.031,0.074z"/>
   <path class="fil4" d="M4.105 7.575l0 -1.285c0,-0.112 0.092,-0.203 0.203,-0.203l9.255 0c0.111,0 0.203,0.091 0.203,0.203l0 1.285 -9.661 0z"/>
   <path class="fil2" d="M4.004 7.575l0 -1.285c0,-0.084 0.034,-0.16 0.089,-0.215 0.055,-0.055 0.132,-0.089 0.215,-0.089l9.255 0c0.083,0 0.16,0.034 0.215,0.089l0.006 0.007c0.051,0.054 0.083,0.128 0.083,0.208l0 1.285c0,0.056 -0.045,0.101 -0.101,0.101l-9.661 0c-0.056,0 -0.101,-0.045 -0.101,-0.101zm0.203 -1.285l0 1.183 9.457 0 0 -1.183c0,-0.026 -0.01,-0.05 -0.026,-0.068l-0.004 -0.004c-0.018,-0.018 -0.043,-0.03 -0.071,-0.03l-9.255 0c-0.027,0 -0.053,0.012 -0.071,0.03 -0.019,0.018 -0.03,0.044 -0.03,0.072z"/>
   <path class="fil5" d="M10.854 6.589c0.153,0 0.276,0.123 0.276,0.276 0,0.152 -0.123,0.276 -0.276,0.276 -0.152,0 -0.276,-0.124 -0.276,-0.276 0,-0.153 0.124,-0.276 0.276,-0.276z"/>
   <path class="fil5" d="M11.848 6.589c0.152,0 0.276,0.123 0.276,0.276 0,0.152 -0.124,0.276 -0.276,0.276 -0.153,0 -0.276,-0.124 -0.276,-0.276 0,-0.153 0.123,-0.276 0.276,-0.276z"/>
   <path class="fil5" d="M12.842 6.589c0.152,0 0.276,0.123 0.276,0.276 0,0.152 -0.124,0.276 -0.276,0.276 -0.153,0 -0.276,-0.124 -0.276,-0.276 0,-0.153 0.123,-0.276 0.276,-0.276z"/>
  </g>
 </g>
</svg>
