<?xml version="1.0" encoding="UTF-8"?>
<!DOCTYPE svg PUBLIC "-//W3C//DTD SVG 1.1//EN" "http://www.w3.org/Graphics/SVG/1.1/DTD/svg11.dtd">
<!-- Creator: CorelDRAW 2018 (64-Bit) -->
<svg xmlns="http://www.w3.org/2000/svg" xml:space="preserve" width="88px" height="100px" version="1.1" style="shape-rendering:geometricPrecision; text-rendering:geometricPrecision; image-rendering:optimizeQuality; fill-rule:evenodd; clip-rule:evenodd"
viewBox="0 0 4.304 4.886"
 xmlns:xlink="http://www.w3.org/1999/xlink">
 <defs>
  <style type="text/css">
   <![CDATA[
    .fil0 {fill:#B0C2FC}
    .fil1 {fill:white}
    .fil2 {fill:gray;fill-rule:nonzero}
   ]]>
  </style>
 </defs>
 <g id="Layer_x0020_1">
  <metadata id="CorelCorpID_0Corel-Layer"/>
  <g id="_2117742622416">
   <path class="fil0" d="M2.285 0.037l1.887 1.089c0.084,0.048 0.131,0.136 0.131,0.226l0.001 0 0 2.182c0,0.106 -0.063,0.197 -0.153,0.239l-1.869 1.079c-0.085,0.048 -0.185,0.044 -0.264,-0.002l-1.886 -1.09c-0.084,-0.048 -0.131,-0.135 -0.131,-0.226l-0.001 0 0 -2.182c0,-0.106 0.063,-0.197 0.153,-0.238l1.869 -1.079c0.085,-0.049 0.185,-0.045 0.263,0.002z"/>
   <path class="fil1" d="M1.582 1.344l0.21 0c0.027,0 0.048,0.021 0.048,0.048l0 0.451 0.361 -0.079c0.026,-0.005 0.051,0.011 0.057,0.037 0,0.003 0.001,0.007 0.001,0.01l0 0.21c0,0.024 -0.018,0.043 -0.04,0.047l-0.379 0.083 0 0.392 0.823 -0.18 0 -0.971c0,-0.027 0.022,-0.048 0.048,-0.048l0.211 0c0.026,0 0.047,0.021 0.047,0.048l0 2.103c0,0.026 -0.021,0.048 -0.047,0.048l-0.211 0c-0.026,0 -0.048,-0.022 -0.048,-0.048l0 -0.824 -0.823 0.18 0 0.644c0,0.026 -0.021,0.048 -0.048,0.048l-0.21 0c-0.027,0 -0.048,-0.022 -0.048,-0.048l0 -0.577 -0.337 0.074c-0.026,0.005 -0.051,-0.011 -0.057,-0.037 -0.001,-0.003 -0.001,-0.007 -0.001,-0.01l0 -0.21c0,-0.024 0.017,-0.044 0.04,-0.048l0.355 -0.077 0 -0.392 -0.113 0.024c-0.026,0.006 -0.051,-0.01 -0.057,-0.036 0,-0.004 -0.001,-0.007 -0.001,-0.01l0 -0.211c0,-0.024 0.018,-0.043 0.04,-0.047l0.131 -0.028 0 -0.518c0,-0.027 0.021,-0.048 0.048,-0.048z"/>
   <path class="fil2" d="M1.582 1.319l0.21 0c0.02,0 0.038,0.008 0.051,0.022 0.013,0.013 0.021,0.031 0.021,0.051l0 0.421 0.332 -0.072c0.019,-0.005 0.039,-0.001 0.054,0.009 0.016,0.01 0.027,0.026 0.031,0.046 0.001,0.002 0.001,0.005 0.002,0.007 0,0.003 0,0.006 0,0.008l0 0.21c0,0.018 -0.006,0.034 -0.017,0.047 -0.011,0.012 -0.025,0.021 -0.042,0.024l-0.36 0.078 0 0.343 0.775 -0.17 0 -0.951c0,-0.02 0.008,-0.038 0.021,-0.052 0.013,-0.013 0.031,-0.021 0.051,-0.021l0.211 0c0.019,0 0.037,0.008 0.051,0.022 0.013,0.013 0.021,0.031 0.021,0.051l0 2.103c0,0.02 -0.008,0.038 -0.021,0.051 -0.014,0.013 -0.032,0.021 -0.051,0.021l-0.211 0c-0.02,0 -0.038,-0.008 -0.051,-0.021 -0.013,-0.013 -0.021,-0.031 -0.021,-0.051l0 -0.794 -0.775 0.17 0 0.624c0,0.02 -0.008,0.038 -0.021,0.051 -0.013,0.013 -0.031,0.021 -0.051,0.021l-0.21 0c-0.02,0 -0.038,-0.008 -0.051,-0.021 -0.013,-0.013 -0.021,-0.031 -0.021,-0.051l0 -0.547 -0.308 0.067c-0.019,0.005 -0.039,0 -0.054,-0.01 -0.016,-0.01 -0.028,-0.025 -0.032,-0.045l-0.001 -0.008 0 -0.007 0 -0.21c0,-0.018 0.006,-0.035 0.017,-0.047 0.01,-0.013 0.025,-0.021 0.042,-0.024l0.336 -0.074 0 -0.342 -0.084 0.018c-0.019,0.004 -0.039,0 -0.054,-0.01 -0.016,-0.01 -0.027,-0.026 -0.032,-0.045 0,-0.003 0,-0.005 -0.001,-0.008l0 -0.007 0 -0.211c0,-0.018 0.006,-0.034 0.017,-0.047 0.01,-0.012 0.025,-0.021 0.042,-0.024l0.112 -0.024 0 -0.498c0,-0.02 0.008,-0.038 0.021,-0.052 0.013,-0.013 0.031,-0.021 0.051,-0.021zm0.21 0.049l-0.21 0c-0.007,0 -0.012,0.003 -0.017,0.007 -0.004,0.004 -0.006,0.01 -0.006,0.017l0 0.537c-0.049,0.011 -0.105,0.026 -0.152,0.033 -0.005,0.001 -0.01,0.004 -0.014,0.008 -0.003,0.004 -0.005,0.009 -0.005,0.015l0 0.211 0 0.005c0.002,0.006 0.005,0.011 0.01,0.014 0.005,0.004 0.012,0.005 0.018,0.004l0.143 -0.032 0 0.442c-0.12,0.026 -0.258,0.064 -0.376,0.082 -0.006,0.001 -0.011,0.004 -0.014,0.008 -0.004,0.004 -0.006,0.01 -0.006,0.016l0 0.21c0,0.001 0.001,0.004 0.001,0.005 0.001,0.006 0.005,0.011 0.01,0.014 0.005,0.004 0.011,0.005 0.018,0.004l0.367 -0.08 0 0.607c0,0.006 0.002,0.012 0.006,0.016 0.005,0.004 0.01,0.007 0.017,0.007l0.21 0c0.007,0 0.013,-0.002 0.017,-0.007 0.004,-0.004 0.007,-0.01 0.007,-0.016l0 -0.664 0.872 -0.19 0 0.854c0,0.006 0.002,0.012 0.007,0.016 0.004,0.004 0.01,0.007 0.016,0.007l0.211 0c0.006,0 0.012,-0.002 0.016,-0.007 0.004,-0.004 0.007,-0.01 0.007,-0.016l0 -2.103c0,-0.007 -0.003,-0.013 -0.007,-0.017 -0.004,-0.004 -0.01,-0.007 -0.016,-0.007l-0.211 0c-0.006,0 -0.012,0.003 -0.016,0.007 -0.005,0.004 -0.007,0.01 -0.007,0.017l0 0.991c-0.291,0.063 -0.582,0.127 -0.872,0.19l0 -0.442c0.126,-0.027 0.273,-0.067 0.399,-0.087 0.005,-0.001 0.01,-0.004 0.014,-0.008 0.003,-0.004 0.005,-0.009 0.005,-0.015l0 -0.21 0 -0.005c-0.002,-0.006 -0.005,-0.011 -0.01,-0.015 -0.005,-0.003 -0.012,-0.004 -0.018,-0.003l-0.39 0.085 0 -0.481c0,-0.007 -0.003,-0.013 -0.007,-0.017 -0.004,-0.004 -0.01,-0.007 -0.017,-0.007z"/>
  </g>
 </g>
</svg>
