<?xml version="1.0" encoding="UTF-8"?>
<!DOCTYPE svg PUBLIC "-//W3C//DTD SVG 1.1//EN" "http://www.w3.org/Graphics/SVG/1.1/DTD/svg11.dtd">
<!-- Creator: CorelDRAW 2018 (64-Bit) -->
<svg xmlns="http://www.w3.org/2000/svg" xml:space="preserve" width="88px" height="100px" version="1.1" style="shape-rendering:geometricPrecision; text-rendering:geometricPrecision; image-rendering:optimizeQuality; fill-rule:evenodd; clip-rule:evenodd"
viewBox="0 0 5.757 6.536"
 xmlns:xlink="http://www.w3.org/1999/xlink">
 <defs>
  <style type="text/css">
   <![CDATA[
    .fil4 {fill:#00F4FF}
    .fil3 {fill:gray}
    .fil0 {fill:#FFE552}
    .fil1 {fill:white}
    .fil2 {fill:gray;fill-rule:nonzero}
   ]]>
  </style>
 </defs>
 <g id="Layer_x0020_1">
  <metadata id="CorelCorpID_0Corel-Layer"/>
  <g id="_2082095905264">
   <path class="fil0" d="M3.057 0.049l2.523 1.457c0.112,0.064 0.175,0.182 0.175,0.302l0.002 0 0 2.92c0,0.141 -0.084,0.263 -0.205,0.318l-2.5 1.443c-0.113,0.066 -0.247,0.06 -0.352,-0.002l-2.523 -1.457c-0.113,-0.065 -0.175,-0.182 -0.176,-0.302l-0.001 0 0 -2.92c0,-0.141 0.084,-0.263 0.205,-0.318l2.5 -1.444c0.113,-0.065 0.247,-0.059 0.352,0.003z"/>
   <polygon class="fil1" points="1.452,2.658 2.219,2.658 2.219,3.746 1.982,3.746 2.284,4.608 1.841,4.608 1.452,3.746 "/>
   <path class="fil2" d="M1.452 2.625l0.767 0c0.018,0 0.033,0.015 0.033,0.033l0 1.088c0,0.018 -0.015,0.032 -0.033,0.032l-0.191 0 0.287 0.819c0.006,0.017 -0.003,0.036 -0.02,0.042 -0.003,0.001 -0.007,0.001 -0.011,0.001l-0.443 0c-0.014,0 -0.026,-0.008 -0.031,-0.021l-0.387 -0.86c-0.002,-0.004 -0.003,-0.009 -0.003,-0.013l0 -1.088c0,-0.018 0.014,-0.033 0.032,-0.033zm0.734 0.065l-0.701 0 0 1.049 0.377 0.836 0.376 0 -0.286 -0.816c-0.002,-0.004 -0.003,-0.009 -0.003,-0.013 0,-0.019 0.015,-0.033 0.033,-0.033l0.204 0 0 -1.023z"/>
   <path class="fil2" d="M1.288 3.562c0.018,0 0.033,0.015 0.033,0.033 0,0.018 -0.015,0.032 -0.033,0.032l-0.177 0c-0.011,0 -0.021,-0.005 -0.027,-0.014 -0.046,-0.057 -0.083,-0.121 -0.109,-0.192 -0.024,-0.069 -0.038,-0.143 -0.038,-0.219 0,-0.077 0.014,-0.151 0.038,-0.22 0.026,-0.071 0.064,-0.137 0.111,-0.194 0.006,-0.008 0.016,-0.012 0.025,-0.012l0.177 0c0.018,0 0.033,0.015 0.033,0.033 0,0.018 -0.015,0.032 -0.033,0.032l-0.162 0c-0.038,0.049 -0.068,0.104 -0.089,0.163 -0.022,0.061 -0.034,0.128 -0.034,0.198 0,0.069 0.012,0.136 0.034,0.197 0.021,0.06 0.051,0.114 0.089,0.163l0.162 0z"/>
   <path class="fil1" d="M4.099 2.059l-1.88 0.599 0 1.088 1.88 0.598c0.063,-0.69 0.063,-1.594 0,-2.285z"/>
   <path class="fil2" d="M4.071 2.102l-1.819 0.579 0 1.041 1.819 0.579c0.028,-0.334 0.043,-0.716 0.043,-1.099 0,-0.384 -0.015,-0.766 -0.043,-1.1zm-1.862 0.525l1.879 -0.599c0.003,-0.001 0.006,-0.001 0.008,-0.002 0.018,-0.001 0.034,0.012 0.036,0.03 0.031,0.347 0.047,0.747 0.047,1.146 0,0.398 -0.016,0.798 -0.047,1.145 0,0.003 -0.001,0.005 -0.002,0.007 -0.005,0.017 -0.023,0.027 -0.04,0.021l-1.878 -0.598c-0.015,-0.003 -0.026,-0.016 -0.026,-0.031l0 -1.088c0,-0.014 0.009,-0.027 0.023,-0.031z"/>
   <path class="fil3" d="M1.84 2.925c0.037,0 0.067,0.03 0.067,0.067 0,0.037 -0.03,0.067 -0.067,0.067 -0.037,0 -0.067,-0.03 -0.067,-0.067 0,-0.037 0.03,-0.067 0.067,-0.067z"/>
   <path class="fil2" d="M1.84 2.908c0.023,0 0.044,0.01 0.059,0.025 0.015,0.015 0.025,0.036 0.025,0.059 0,0.023 -0.01,0.044 -0.025,0.059 -0.015,0.015 -0.036,0.024 -0.059,0.024 -0.023,0 -0.043,-0.009 -0.059,-0.024 -0.015,-0.015 -0.024,-0.036 -0.024,-0.059 0,-0.023 0.009,-0.044 0.024,-0.059 0.015,-0.015 0.036,-0.025 0.059,-0.025zm0.036 0.048c-0.009,-0.009 -0.022,-0.015 -0.036,-0.015 -0.014,0 -0.026,0.006 -0.036,0.015 -0.009,0.009 -0.014,0.022 -0.014,0.036 0,0.014 0.005,0.027 0.014,0.036 0.01,0.009 0.022,0.015 0.036,0.015 0.014,0 0.027,-0.006 0.036,-0.015 0.009,-0.009 0.015,-0.022 0.015,-0.036 0,-0.014 -0.006,-0.027 -0.015,-0.036z"/>
   <path class="fil4" d="M3.488 2.253c0.049,0.587 0.049,1.31 0,1.897l0.611 0.194c0.063,-0.69 0.063,-1.595 0,-2.285l-0.611 0.194z"/>
   <path class="fil2" d="M3.523 2.277c0.023,0.287 0.035,0.606 0.035,0.925 0,0.318 -0.012,0.637 -0.035,0.925l0.548 0.174c0.028,-0.334 0.043,-0.716 0.043,-1.099 0,-0.384 -0.015,-0.766 -0.043,-1.1l-0.548 0.175zm-0.031 0.925c0,-0.327 -0.012,-0.654 -0.036,-0.946 -0.002,-0.015 0.008,-0.029 0.022,-0.034l0.61 -0.194c0.003,-0.001 0.006,-0.001 0.008,-0.002 0.018,-0.001 0.034,0.012 0.036,0.03 0.031,0.347 0.047,0.747 0.047,1.146 0,0.398 -0.016,0.798 -0.047,1.145 0,0.003 -0.001,0.005 -0.002,0.007 -0.005,0.017 -0.023,0.027 -0.04,0.021l-0.609 -0.193c-0.016,-0.004 -0.027,-0.018 -0.025,-0.035 0.024,-0.292 0.036,-0.619 0.036,-0.945z"/>
   <path class="fil2" d="M4.298 2.691c-0.016,-0.007 -0.023,-0.027 -0.016,-0.043 0.008,-0.016 0.027,-0.023 0.044,-0.016 0.11,0.052 0.201,0.133 0.264,0.232 0.063,0.099 0.099,0.216 0.099,0.338 0,0.122 -0.036,0.238 -0.099,0.337 -0.063,0.099 -0.154,0.181 -0.264,0.232 -0.017,0.008 -0.036,0.001 -0.044,-0.016 -0.007,-0.016 0,-0.036 0.016,-0.043 0.1,-0.046 0.181,-0.119 0.237,-0.208 0.057,-0.088 0.088,-0.193 0.088,-0.302 0,-0.11 -0.031,-0.214 -0.088,-0.303 -0.056,-0.089 -0.137,-0.161 -0.237,-0.208z"/>
  </g>
 </g>
</svg>
