<?xml version="1.0" encoding="UTF-8"?>
<!DOCTYPE svg PUBLIC "-//W3C//DTD SVG 1.1//EN" "http://www.w3.org/Graphics/SVG/1.1/DTD/svg11.dtd">
<!-- Creator: CorelDRAW 2018 (64-Bit) -->
<svg xmlns="http://www.w3.org/2000/svg" xml:space="preserve" width="73px" height="82px" version="1.1" style="shape-rendering:geometricPrecision; text-rendering:geometricPrecision; image-rendering:optimizeQuality; fill-rule:evenodd; clip-rule:evenodd"
viewBox="0 0 5.253 5.884"
 xmlns:xlink="http://www.w3.org/1999/xlink">
 <defs>
  <style type="text/css">
   <![CDATA[
    .fil0 {fill:#00D4E3;fill-rule:nonzero}
   ]]>
  </style>
 </defs>
 <g id="Layer_x0020_1">
  <metadata id="CorelCorpID_0Corel-Layer"/>
  <g id="_2013300353040">
   <path class="fil0" d="M2.367 0.059c0.068,-0.039 0.165,-0.059 0.259,-0.059 0.095,0 0.191,0.02 0.259,0.059l2.109 1.219c0.067,0.038 0.132,0.112 0.18,0.195 0.047,0.082 0.079,0.175 0.079,0.253l0 2.432c0,0.078 -0.032,0.171 -0.079,0.254 -0.048,0.082 -0.113,0.156 -0.18,0.195l-2.113 1.221c-0.068,0.038 -0.162,0.056 -0.255,0.056 -0.094,0 -0.191,-0.019 -0.259,-0.058l-2.108 -1.219c-0.067,-0.039 -0.133,-0.113 -0.18,-0.195l-0.002 -0.004c-0.047,-0.082 -0.077,-0.173 -0.077,-0.25l0 -2.432c0,-0.078 0.031,-0.171 0.079,-0.253 0.048,-0.083 0.113,-0.157 0.18,-0.195l2.108 -1.219zm0.259 0.085c-0.072,0 -0.142,0.013 -0.187,0.039l-2.108 1.218c-0.046,0.027 -0.092,0.081 -0.128,0.143 -0.036,0.062 -0.059,0.129 -0.059,0.182l0 2.432c0,0.052 0.022,0.118 0.057,0.179l0.002 0.003c0.036,0.062 0.082,0.117 0.128,0.143l2.108 1.219c0.045,0.026 0.115,0.039 0.187,0.039 0.071,0 0.139,-0.012 0.185,-0.037l2.111 -1.221c0.046,-0.026 0.092,-0.08 0.128,-0.142 0.036,-0.062 0.059,-0.13 0.059,-0.183l0 -2.432c0,-0.053 -0.023,-0.12 -0.059,-0.182 -0.036,-0.062 -0.082,-0.116 -0.128,-0.143l-2.108 -1.218c-0.045,-0.026 -0.116,-0.039 -0.188,-0.039z"/>
   <polygon class="fil0" points="5.067,4.489 0.186,4.489 0.186,4.345 5.067,4.345 "/>
   <polygon class="fil0" points="2.736,0.039 5.196,4.299 5.072,4.371 2.612,0.11 "/>
   <polygon class="fil0" points="0.057,4.3 2.518,0.038 2.642,0.109 0.18,4.372 "/>
   <polygon class="fil0" points="2.555,5.791 2.555,0.094 2.698,0.094 2.698,5.791 "/>
   <polygon class="fil0" points="0.126,4.303 5.055,1.457 5.127,1.581 0.197,4.427 "/>
   <polygon class="fil0" points="0.177,1.446 5.147,4.315 5.075,4.439 0.106,1.57 "/>
  </g>
 </g>
</svg>
