<?xml version="1.0" encoding="UTF-8"?>
<!DOCTYPE svg PUBLIC "-//W3C//DTD SVG 1.1//EN" "http://www.w3.org/Graphics/SVG/1.1/DTD/svg11.dtd">
<!-- Creator: CorelDRAW 2018 (64-Bit) -->
<svg xmlns="http://www.w3.org/2000/svg" xml:space="preserve" width="91px" height="81px" version="1.1" style="shape-rendering:geometricPrecision; text-rendering:geometricPrecision; image-rendering:optimizeQuality; fill-rule:evenodd; clip-rule:evenodd"
viewBox="0 0 20.415 18.191"
 xmlns:xlink="http://www.w3.org/1999/xlink">
 <defs>
  <style type="text/css">
   <![CDATA[
    .fil1 {fill:#00D4E3}
    .fil0 {fill:#00D4E3;fill-rule:nonzero}
   ]]>
  </style>
 </defs>
 <g id="Layer_x0020_1">
  <metadata id="CorelCorpID_0Corel-Layer"/>
  <g id="_2013302215504">
   <path class="fil0" d="M14.345 7.308c1.664,0 3.174,0.516 4.27,1.352 1.112,0.848 1.8,2.025 1.8,3.329 0,0.742 -0.223,1.443 -0.622,2.068 -0.386,0.605 -0.937,1.136 -1.606,1.558l0.188 2.334c0.009,0.124 -0.083,0.232 -0.206,0.241 -0.068,0.006 -0.131,-0.02 -0.176,-0.065l-1.701 -1.701c-0.288,0.075 -0.586,0.134 -0.892,0.175 -0.346,0.047 -0.698,0.071 -1.055,0.071 -1.663,0 -3.173,-0.516 -4.268,-1.352 -1.113,-0.848 -1.801,-2.025 -1.801,-3.329 0,-1.304 0.688,-2.481 1.801,-3.329 1.095,-0.836 2.605,-1.352 4.268,-1.352zm3.998 1.707c-1.02,-0.778 -2.433,-1.259 -3.998,-1.259 -1.564,0 -2.977,0.481 -3.997,1.259 -1.003,0.765 -1.623,1.817 -1.623,2.974 0,1.157 0.62,2.209 1.623,2.974 1.02,0.778 2.433,1.259 3.997,1.259 0.343,0 0.676,-0.023 0.995,-0.066 0.325,-0.044 0.64,-0.108 0.942,-0.192 0.08,-0.029 0.172,-0.012 0.236,0.052l1.361 1.361 -0.15 -1.863c-0.006,-0.082 0.033,-0.164 0.108,-0.209 0.666,-0.398 1.208,-0.907 1.579,-1.488 0.353,-0.553 0.551,-1.173 0.551,-1.828 0,-1.157 -0.621,-2.209 -1.624,-2.974z"/>
   <circle class="fil1" cx="11.684" cy="12.005" r="0.685"/>
   <circle class="fil1" cx="14.346" cy="12.005" r="0.685"/>
   <circle class="fil1" cx="17.008" cy="12.005" r="0.685"/>
   <path class="fil0" d="M3.323 1.433c0.124,0 0.224,0.101 0.224,0.225 0,0.123 -0.1,0.224 -0.224,0.224l-2.669 0c-0.056,0 -0.107,0.023 -0.145,0.061 -0.037,0.037 -0.06,0.089 -0.06,0.145l0 12.978c0,0.056 0.023,0.107 0.061,0.145l0.008 0.009c0.036,0.032 0.084,0.052 0.136,0.052l7.251 0c0.124,0 0.224,0.1 0.224,0.224 0,0.124 -0.1,0.225 -0.224,0.225l-7.251 0c-0.171,0 -0.329,-0.069 -0.446,-0.179l-0.016 -0.014c-0.118,-0.118 -0.192,-0.282 -0.192,-0.462l0 -12.978c0,-0.18 0.074,-0.344 0.192,-0.462 0.119,-0.119 0.283,-0.193 0.462,-0.193l2.669 0zm12.304 3.75c0,0.124 -0.1,0.224 -0.224,0.224 -0.124,0 -0.224,-0.1 -0.224,-0.224l0 -3.095c0,-0.056 -0.024,-0.108 -0.061,-0.145 -0.038,-0.037 -0.09,-0.061 -0.145,-0.061l-1.794 0c-0.124,0 -0.225,-0.101 -0.225,-0.224 0,-0.124 0.101,-0.225 0.225,-0.225l1.794 0c0.179,0 0.343,0.074 0.462,0.193l0 0.001c0.118,0.118 0.192,0.282 0.192,0.461l0 3.095z"/>
   <path class="fil0" d="M11.231 1.433c0.124,0 0.224,0.101 0.224,0.225 0,0.124 -0.1,0.224 -0.224,0.224l-1.351 0c-0.124,0 -0.224,-0.1 -0.224,-0.224 0,-0.124 0.1,-0.225 0.224,-0.225l1.351 0z"/>
   <path class="fil0" d="M7.274 1.433c0.124,0 0.224,0.101 0.224,0.225 0,0.124 -0.1,0.224 -0.224,0.224l-1.309 0c-0.123,0 -0.224,-0.1 -0.224,-0.224 0,-0.124 0.101,-0.225 0.224,-0.225l1.309 0z"/>
   <path class="fil0" d="M11.77 0.449c-0.086,0 -0.165,0.035 -0.222,0.092 -0.057,0.057 -0.093,0.136 -0.093,0.223l0 1.788c0,0.086 0.036,0.165 0.093,0.222 0.057,0.057 0.136,0.093 0.222,0.093 0.087,0 0.166,-0.035 0.223,-0.092l0 -0.001c0.057,-0.057 0.093,-0.136 0.093,-0.222l0 -1.788c0,-0.087 -0.036,-0.166 -0.093,-0.223 -0.057,-0.057 -0.136,-0.092 -0.223,-0.092zm-0.538 -0.225c0.138,-0.138 0.329,-0.224 0.538,-0.224 0.211,0 0.402,0.086 0.54,0.224l0 0.001c0.138,0.138 0.224,0.329 0.224,0.539l0 1.788c0,0.21 -0.086,0.401 -0.224,0.539 -0.139,0.138 -0.33,0.225 -0.54,0.225 -0.21,0 -0.401,-0.086 -0.539,-0.225 -0.138,-0.138 -0.224,-0.329 -0.224,-0.539l0 -1.788c0,-0.211 0.086,-0.402 0.224,-0.54l0.001 0z"/>
   <path class="fil0" d="M7.814 0.449c-0.087,0 -0.166,0.035 -0.223,0.092l-0.009 0.009c-0.052,0.056 -0.084,0.131 -0.084,0.214l0 1.788c0,0.086 0.036,0.165 0.093,0.222l0.009 0.01c0.056,0.051 0.131,0.083 0.214,0.083 0.087,0 0.165,-0.035 0.222,-0.092l0 -0.001c0.057,-0.057 0.093,-0.136 0.093,-0.222l0 -1.788c0,-0.087 -0.036,-0.166 -0.092,-0.223 -0.058,-0.057 -0.137,-0.092 -0.223,-0.092zm-0.54 -0.225c0.138,-0.138 0.329,-0.224 0.54,-0.224 0.21,0 0.401,0.086 0.539,0.224l0 0.001c0.138,0.138 0.224,0.329 0.224,0.539l0 1.788c0,0.21 -0.086,0.401 -0.224,0.539 -0.139,0.138 -0.33,0.225 -0.539,0.225 -0.203,0 -0.388,-0.081 -0.525,-0.211l-0.015 -0.014c-0.138,-0.138 -0.224,-0.329 -0.224,-0.539l0 -1.788c0,-0.203 0.08,-0.388 0.211,-0.525l0.013 -0.015z"/>
   <path class="fil0" d="M3.862 0.449c-0.086,0 -0.165,0.035 -0.222,0.092l-0.009 0.009c-0.052,0.056 -0.084,0.131 -0.084,0.214l0 1.788c0,0.086 0.036,0.165 0.093,0.222l0.009 0.01c0.055,0.051 0.131,0.083 0.213,0.083 0.087,0 0.166,-0.035 0.223,-0.092l0 -0.001c0.057,-0.057 0.092,-0.136 0.092,-0.222l0 -1.788c0,-0.087 -0.035,-0.166 -0.092,-0.223 -0.058,-0.057 -0.136,-0.092 -0.223,-0.092zm-0.539 -0.225c0.138,-0.138 0.329,-0.224 0.539,-0.224 0.21,0 0.401,0.086 0.54,0.224l0 0.001c0.138,0.138 0.224,0.329 0.224,0.539l0 1.788c0,0.21 -0.086,0.401 -0.224,0.539 -0.139,0.138 -0.331,0.225 -0.54,0.225 -0.202,0 -0.387,-0.081 -0.525,-0.211l-0.014 -0.014c-0.139,-0.138 -0.225,-0.329 -0.225,-0.539l0 -1.788c0,-0.203 0.081,-0.388 0.211,-0.525l0.014 -0.015z"/>
   <path class="fil0" d="M2.927 6.091l1.317 0c0.112,0 0.214,0.046 0.289,0.121 0.074,0.073 0.12,0.175 0.12,0.288l0 1.317c0,0.113 -0.046,0.215 -0.12,0.289l-0.018 0.017c-0.073,0.064 -0.168,0.103 -0.271,0.103l-1.317 0c-0.113,0 -0.215,-0.046 -0.289,-0.12 -0.074,-0.074 -0.12,-0.176 -0.12,-0.289l0 -1.317c0,-0.112 0.046,-0.214 0.12,-0.288 0.074,-0.075 0.176,-0.121 0.289,-0.121zm1.278 0.449l-1.238 0 0 1.238 1.238 0 0 -1.238z"/>
   <path class="fil0" d="M7.155 6.091l1.318 0c0.111,0 0.214,0.046 0.288,0.121 0.074,0.073 0.12,0.175 0.12,0.288l0 1.317c0,0.113 -0.046,0.215 -0.12,0.289l-0.018 0.017c-0.073,0.064 -0.168,0.103 -0.27,0.103l-1.318 0c-0.113,0 -0.215,-0.046 -0.289,-0.12 -0.074,-0.074 -0.12,-0.176 -0.12,-0.289l0 -1.317c0,-0.112 0.046,-0.214 0.121,-0.288 0.073,-0.075 0.175,-0.121 0.288,-0.121zm1.278 0.449l-1.238 0 0 1.238 1.238 0 0 -1.238z"/>
   <path class="fil0" d="M2.927 10.405l1.317 0c0.112,0 0.214,0.046 0.289,0.12 0.074,0.073 0.12,0.176 0.12,0.288l0 1.318c0,0.112 -0.046,0.215 -0.12,0.289 -0.074,0.074 -0.176,0.12 -0.289,0.12l-1.317 0c-0.113,0 -0.215,-0.046 -0.289,-0.12 -0.074,-0.074 -0.12,-0.177 -0.12,-0.289l0 -1.318c0,-0.111 0.046,-0.214 0.12,-0.288 0.074,-0.075 0.176,-0.12 0.289,-0.12zm1.278 0.448l-1.238 0 0 1.238 1.238 0 0 -1.238z"/>
  </g>
 </g>
</svg>
