<?xml version="1.0" encoding="UTF-8"?>
<!DOCTYPE svg PUBLIC "-//W3C//DTD SVG 1.1//EN" "http://www.w3.org/Graphics/SVG/1.1/DTD/svg11.dtd">
<!-- Creator: CorelDRAW 2018 (64-Bit) -->
<svg xmlns="http://www.w3.org/2000/svg" xml:space="preserve" width="81px" height="72px" version="1.1" style="shape-rendering:geometricPrecision; text-rendering:geometricPrecision; image-rendering:optimizeQuality; fill-rule:evenodd; clip-rule:evenodd"
viewBox="0 0 27.969 24.938"
 xmlns:xlink="http://www.w3.org/1999/xlink">
 <defs>
  <style type="text/css">
   <![CDATA[
    .fil0 {fill:#00D4E3;fill-rule:nonzero}
   ]]>
  </style>
 </defs>
 <g id="Layer_x0020_1">
  <metadata id="CorelCorpID_0Corel-Layer"/>
  <g id="_2013300388816">
   <path class="fil0" d="M0.001 9.819l0 -2.786 -0.001 0c0,-0.739 0.314,-1.411 0.819,-1.898 0.501,-0.484 1.192,-0.784 1.95,-0.784l22.431 0c0.758,0 1.449,0.3 1.95,0.784 0.505,0.486 0.819,1.159 0.819,1.898l-0.002 0 0 2.86c0,0.15 -0.096,0.278 -0.231,0.325 -1.911,0.714 -3.689,1.387 -5.432,2.046 -1.645,0.623 -3.259,1.233 -5.247,1.975 -0.101,0.037 -0.281,0.108 -0.454,0.177 -0.773,0.306 -1.454,0.575 -2.619,0.575 -1.163,0 -1.843,-0.269 -2.614,-0.573 -0.176,-0.07 -0.354,-0.14 -0.459,-0.179 -1.886,-0.704 -3.528,-1.342 -5.2,-1.991 -1.715,-0.666 -3.461,-1.344 -5.485,-2.1 -0.141,-0.053 -0.227,-0.187 -0.225,-0.329zm0.69 -2.786l0 2.552c1.957,0.733 3.628,1.382 5.269,2.019 1.682,0.653 3.336,1.296 5.192,1.988 0.219,0.082 0.348,0.132 0.472,0.182 0.705,0.278 1.328,0.524 2.36,0.524 1.034,0 1.657,-0.246 2.364,-0.526 0.124,-0.049 0.25,-0.098 0.468,-0.18 1.792,-0.668 3.501,-1.315 5.245,-1.975 1.583,-0.599 3.195,-1.209 5.216,-1.964l0 -2.62 -0.001 0c0,-0.545 -0.232,-1.041 -0.605,-1.401 -0.376,-0.363 -0.897,-0.588 -1.471,-0.588l-22.431 0c-0.574,0 -1.095,0.225 -1.472,0.589 -0.373,0.359 -0.604,0.855 -0.604,1.4l-0.002 0z"/>
   <path class="fil0" d="M2.51 8.428c0,0.19 -0.155,0.345 -0.345,0.345 -0.191,0 -0.345,-0.155 -0.345,-0.345l0 -0.594 -0.002 0c0,-0.504 0.223,-0.96 0.582,-1.289 0.351,-0.323 0.833,-0.523 1.362,-0.523l2.338 0c0.191,0 0.346,0.155 0.346,0.346 0,0.192 -0.155,0.347 -0.346,0.347l-2.338 0c-0.35,0 -0.667,0.13 -0.894,0.338 -0.22,0.202 -0.357,0.479 -0.357,0.781l-0.001 0 0 0.594z"/>
   <path class="fil0" d="M26.784 12.317c0,-0.191 0.155,-0.346 0.346,-0.346 0.191,0 0.346,0.155 0.346,0.346l0 9.939c0,0.737 -0.301,1.407 -0.787,1.893l0 0.002c-0.486,0.485 -1.157,0.787 -1.894,0.787l-21.621 0c-0.738,0 -1.408,-0.302 -1.894,-0.788 -0.486,-0.485 -0.788,-1.156 -0.788,-1.894l0 -10.007c0,-0.191 0.155,-0.346 0.347,-0.346 0.191,0 0.346,0.155 0.346,0.346l0 10.007c0,0.547 0.224,1.044 0.585,1.405 0.36,0.36 0.858,0.584 1.404,0.584l21.621 0c0.546,0 1.044,-0.224 1.404,-0.584 0.361,-0.36 0.585,-0.858 0.585,-1.405l0 -9.939z"/>
   <path class="fil0" d="M24.892 18.576c0,-0.191 0.155,-0.346 0.346,-0.346 0.191,0 0.346,0.155 0.346,0.346l0 2.746c0,0.56 -0.229,1.07 -0.6,1.441l-0.002 0.002c-0.371,0.37 -0.88,0.6 -1.44,0.6l-3.362 0c-0.191,0 -0.346,-0.155 -0.346,-0.347 0,-0.191 0.155,-0.346 0.346,-0.346l3.362 0c0.371,0 0.709,-0.152 0.953,-0.396l0.001 -0.001c0.244,-0.244 0.396,-0.582 0.396,-0.953l0 -2.746z"/>
   <path class="fil0" d="M16.53 14.042c0,-0.191 0.155,-0.346 0.347,-0.346 0.191,0 0.346,0.155 0.346,0.346l0 3.693c0,0.192 -0.155,0.347 -0.346,0.347l-5.786 0c-0.191,0 -0.346,-0.155 -0.346,-0.347l0 -3.693c0,-0.191 0.155,-0.346 0.346,-0.346 0.192,0 0.347,0.155 0.347,0.346l0 3.347 5.092 0 0 -3.347z"/>
   <path class="fil0" d="M8.582 3.161c0,0.192 -0.156,0.347 -0.347,0.347 -0.191,0 -0.346,-0.155 -0.346,-0.347 0,-0.869 0.355,-1.659 0.928,-2.231 0.573,-0.574 1.364,-0.93 2.232,-0.93l5.869 0c0.869,0 1.66,0.356 2.232,0.928 0.573,0.573 0.928,1.364 0.928,2.233 0,0.192 -0.155,0.347 -0.346,0.347 -0.191,0 -0.346,-0.155 -0.346,-0.347 0,-0.678 -0.278,-1.295 -0.726,-1.743 -0.447,-0.447 -1.064,-0.725 -1.742,-0.725l-5.869 0c-0.679,0 -1.296,0.277 -1.742,0.724 -0.448,0.447 -0.725,1.065 -0.725,1.744z"/>
  </g>
 </g>
</svg>
