<?xml version="1.0" encoding="UTF-8"?>
<!DOCTYPE svg PUBLIC "-//W3C//DTD SVG 1.1//EN" "http://www.w3.org/Graphics/SVG/1.1/DTD/svg11.dtd">
<!-- Creator: CorelDRAW 2018 (64-Bit) -->
<svg xmlns="http://www.w3.org/2000/svg" xml:space="preserve" width="101px" height="70px" version="1.1" style="shape-rendering:geometricPrecision; text-rendering:geometricPrecision; image-rendering:optimizeQuality; fill-rule:evenodd; clip-rule:evenodd"
viewBox="0 0 12.044 8.327"
 xmlns:xlink="http://www.w3.org/1999/xlink">
 <defs>
  <style type="text/css">
   <![CDATA[
    .fil1 {fill:#00D4E3}
    .fil0 {fill:#00D4E3;fill-rule:nonzero}
   ]]>
  </style>
 </defs>
 <g id="Layer_x0020_1">
  <metadata id="CorelCorpID_0Corel-Layer"/>
  <g id="_2013885370000">
   <path class="fil0" d="M1.76 1.9l2.431 0c0.066,0 0.12,0.053 0.12,0.119l0 3.452c0,0.066 -0.054,0.12 -0.12,0.12l-0.584 0 0.905 2.577c0.022,0.062 -0.011,0.13 -0.074,0.152 -0.013,0.004 -0.026,0.006 -0.039,0.006l0 0.001 -1.407 0c-0.052,0 -0.095,-0.033 -0.112,-0.078l-1.229 -2.729c-0.007,-0.016 -0.011,-0.033 -0.011,-0.049l0 -3.452c0,-0.066 0.054,-0.119 0.12,-0.119zm2.311 0.239l-2.191 0 0 3.307 1.189 2.641 1.162 0 -0.902 -2.567c-0.006,-0.015 -0.01,-0.032 -0.01,-0.049 0,-0.066 0.054,-0.12 0.12,-0.12l0.632 0 0 -3.212z"/>
   <path class="fil0" d="M0.898 4.872c0.066,0 0.12,0.054 0.12,0.12 0,0.066 -0.054,0.12 -0.12,0.12l-0.331 0c-0.041,0 -0.077,-0.021 -0.099,-0.052 -0.147,-0.181 -0.265,-0.388 -0.346,-0.612 -0.079,-0.221 -0.122,-0.457 -0.122,-0.703 0,-0.245 0.043,-0.482 0.122,-0.702 0.082,-0.228 0.202,-0.438 0.353,-0.62 0.024,-0.029 0.058,-0.044 0.092,-0.044l0 0 0.331 0c0.066,0 0.12,0.053 0.12,0.119 0,0.067 -0.054,0.12 -0.12,0.12l-0.274 0c-0.117,0.152 -0.211,0.322 -0.277,0.505 -0.07,0.193 -0.107,0.403 -0.107,0.622 0,0.22 0.037,0.429 0.107,0.622 0.066,0.184 0.16,0.354 0.277,0.505l0.274 0z"/>
   <path class="fil0" d="M10.052 0.278l-5.741 1.828 0 3.278 5.741 1.828c0.091,-1.054 0.136,-2.259 0.136,-3.467 0,-1.208 -0.045,-2.413 -0.136,-3.467zm-5.897 1.628l5.962 -1.899c0.01,-0.003 0.02,-0.006 0.03,-0.006 0.066,-0.006 0.124,0.042 0.13,0.108 0.1,1.102 0.15,2.371 0.15,3.636 0,1.265 -0.05,2.534 -0.15,3.637 -0.001,0.008 -0.003,0.017 -0.005,0.025 -0.02,0.063 -0.087,0.098 -0.15,0.078l-5.956 -1.897c-0.054,-0.012 -0.095,-0.06 -0.095,-0.117l0 -3.452 0.001 0c0,-0.05 0.032,-0.097 0.083,-0.113z"/>
   <path class="fil0" d="M8.304 6.634c-0.007,0.066 -0.066,0.113 -0.132,0.106 -0.066,-0.008 -0.113,-0.067 -0.105,-0.133 0.099,-0.863 0.149,-1.862 0.149,-2.862 0,-1 -0.05,-1.998 -0.149,-2.862 -0.008,-0.065 0.039,-0.125 0.105,-0.132 0.066,-0.008 0.125,0.039 0.132,0.105 0.101,0.874 0.151,1.882 0.151,2.889 0,1.007 -0.05,2.015 -0.151,2.889z"/>
   <path class="fil0" d="M11.488 5.126c-0.045,0.047 -0.121,0.049 -0.168,0.003 -0.048,-0.046 -0.049,-0.121 -0.004,-0.169 0.154,-0.16 0.278,-0.35 0.362,-0.56 0.081,-0.202 0.126,-0.423 0.126,-0.655 0,-0.232 -0.045,-0.453 -0.126,-0.654 -0.084,-0.21 -0.208,-0.4 -0.362,-0.561 -0.045,-0.047 -0.044,-0.123 0.004,-0.169 0.047,-0.045 0.123,-0.044 0.168,0.004 0.175,0.182 0.316,0.398 0.412,0.637 0.093,0.23 0.144,0.481 0.144,0.743 0,0.262 -0.051,0.513 -0.144,0.744 -0.096,0.238 -0.237,0.454 -0.412,0.637z"/>
   <circle class="fil1" cx="2.991" cy="3.08" r="0.258"/>
  </g>
 </g>
</svg>
