<?xml version="1.0" encoding="UTF-8"?>
<!DOCTYPE svg PUBLIC "-//W3C//DTD SVG 1.1//EN" "http://www.w3.org/Graphics/SVG/1.1/DTD/svg11.dtd">
<!-- Creator: CorelDRAW 2018 (64-Bit) -->
<svg xmlns="http://www.w3.org/2000/svg" xml:space="preserve" width="75px" height="72px" version="1.1" style="shape-rendering:geometricPrecision; text-rendering:geometricPrecision; image-rendering:optimizeQuality; fill-rule:evenodd; clip-rule:evenodd"
viewBox="0 0 6.468 6.213"
 xmlns:xlink="http://www.w3.org/1999/xlink">
 <defs>
  <style type="text/css">
   <![CDATA[
    .fil0 {fill:#A3AEBA;fill-rule:nonzero}
   ]]>
  </style>
 </defs>
 <g id="Layer_x0020_1">
  <metadata id="CorelCorpID_0Corel-Layer"/>
  <g id="_2013895164464">
   <path class="fil0" d="M5.275 4.542c0.041,-0.023 0.094,-0.009 0.118,0.032 0.023,0.041 0.009,0.094 -0.032,0.117l-2.616 1.511c-0.027,0.016 -0.06,0.015 -0.086,-0.001l-2.616 -1.51c-0.027,-0.016 -0.043,-0.044 -0.043,-0.074l0 -3.021c0,-0.035 0.021,-0.065 0.051,-0.078l2.608 -1.507c0.028,-0.015 0.061,-0.014 0.087,0.001l2.615 1.51c0.041,0.023 0.055,0.076 0.032,0.117 -0.024,0.041 -0.077,0.055 -0.118,0.032l-2.573 -1.486 -2.529 1.461 0 2.921 2.529 1.461 2.573 -1.486z"/>
   <path class="fil0" d="M2.502 4.049c-0.048,0 -0.086,-0.039 -0.086,-0.087 0,-0.047 0.038,-0.086 0.086,-0.086l3.88 0c0.048,0 0.086,0.039 0.086,0.086 0,0.048 -0.038,0.087 -0.086,0.087l-3.88 0z"/>
   <path class="fil0" d="M2.502 3.193c-0.048,0 -0.086,-0.039 -0.086,-0.086 0,-0.048 0.038,-0.087 0.086,-0.087l3.88 0c0.048,0 0.086,0.039 0.086,0.087 0,0.047 -0.038,0.086 -0.086,0.086l-3.88 0z"/>
   <path class="fil0" d="M2.502 2.337c-0.048,0 -0.086,-0.039 -0.086,-0.086 0,-0.048 0.038,-0.087 0.086,-0.087l3.88 0c0.048,0 0.086,0.039 0.086,0.087 0,0.047 -0.038,0.086 -0.086,0.086l-3.88 0z"/>
  </g>
 </g>
</svg>
