<?xml version="1.0" encoding="UTF-8"?>
<!DOCTYPE svg PUBLIC "-//W3C//DTD SVG 1.1//EN" "http://www.w3.org/Graphics/SVG/1.1/DTD/svg11.dtd">
<!-- Creator: CorelDRAW 2018 (64-Bit) -->
<svg xmlns="http://www.w3.org/2000/svg" xml:space="preserve" width="84px" height="72px" version="1.1" style="shape-rendering:geometricPrecision; text-rendering:geometricPrecision; image-rendering:optimizeQuality; fill-rule:evenodd; clip-rule:evenodd"
viewBox="0 0 30.36 26.169"
 xmlns:xlink="http://www.w3.org/1999/xlink">
 <defs>
  <style type="text/css">
   <![CDATA[
    .fil0 {fill:#A3AEBA;fill-rule:nonzero}
   ]]>
  </style>
 </defs>
 <g id="Layer_x0020_1">
  <metadata id="CorelCorpID_0Corel-Layer"/>
  <g id="_2013890197264">
   <path class="fil0" d="M4.968 2.13c0.2,0 0.363,0.163 0.363,0.363 0,0.201 -0.163,0.364 -0.363,0.364l-3.966 0c-0.075,0 -0.144,0.031 -0.194,0.08 -0.05,0.05 -0.081,0.12 -0.081,0.196l0 19.285c0,0.075 0.031,0.144 0.081,0.194l0.013 0.014c0.048,0.042 0.112,0.068 0.181,0.068l11.741 0c0.201,0 0.364,0.163 0.364,0.363 0,0.201 -0.163,0.364 -0.364,0.364l-11.741 0c-0.262,0 -0.502,-0.104 -0.682,-0.272l-0.025 -0.023c-0.182,-0.181 -0.295,-0.432 -0.295,-0.708l0 -19.285c0,-0.275 0.113,-0.525 0.295,-0.707 0.182,-0.183 0.433,-0.296 0.707,-0.296l3.966 0zm18.314 4.9c0,0.201 -0.162,0.364 -0.363,0.364 -0.201,0 -0.364,-0.163 -0.364,-0.364l0 -3.897c0,-0.075 -0.031,-0.144 -0.081,-0.194l-0.013 -0.013c-0.049,-0.043 -0.112,-0.069 -0.181,-0.069l-2.667 0c-0.201,0 -0.363,-0.163 -0.363,-0.364 0,-0.2 0.162,-0.363 0.363,-0.363l2.667 0c0.261,0 0.502,0.104 0.682,0.272l0.025 0.023c0.182,0.181 0.295,0.432 0.295,0.708l0 3.897z"/>
   <path class="fil0" d="M16.719 2.13c0.201,0 0.364,0.163 0.364,0.364 0,0.2 -0.163,0.363 -0.364,0.363l-2.007 0c-0.201,0 -0.364,-0.163 -0.364,-0.363 0,-0.201 0.163,-0.364 0.364,-0.364l2.007 0z"/>
   <path class="fil0" d="M10.839 2.13c0.201,0 0.364,0.163 0.364,0.364 0,0.2 -0.163,0.363 -0.364,0.363l-1.944 0c-0.201,0 -0.364,-0.163 -0.364,-0.363 0,-0.201 0.163,-0.364 0.364,-0.364l1.944 0z"/>
   <path class="fil0" d="M17.521 0.727c-0.121,0 -0.231,0.049 -0.31,0.128 -0.079,0.08 -0.128,0.189 -0.128,0.31l0 2.657c0,0.12 0.049,0.23 0.129,0.309l0.013 0.015c0.078,0.071 0.182,0.114 0.296,0.114 0.12,0 0.23,-0.049 0.309,-0.129l0.014 -0.013c0.071,-0.078 0.115,-0.182 0.115,-0.296l0 -2.657c0,-0.121 -0.049,-0.23 -0.128,-0.31 -0.08,-0.079 -0.19,-0.128 -0.31,-0.128zm0 -0.727c0.321,0 0.612,0.131 0.823,0.342l0 0.001c0.211,0.211 0.342,0.502 0.342,0.822l0 2.657c0,0.309 -0.122,0.59 -0.32,0.799l-0.022 0.024c-0.211,0.211 -0.502,0.342 -0.823,0.342 -0.309,0 -0.59,-0.122 -0.799,-0.32l-0.024 -0.022c-0.211,-0.211 -0.342,-0.502 -0.342,-0.823l0 -2.657c0,-0.32 0.131,-0.611 0.342,-0.822l0.001 -0.001c0.211,-0.211 0.502,-0.342 0.822,-0.342z"/>
   <path class="fil0" d="M11.641 0.727c-0.121,0 -0.231,0.049 -0.31,0.128 -0.079,0.08 -0.128,0.189 -0.128,0.31l0 2.657c0,0.12 0.049,0.23 0.129,0.309l0.013 0.015c0.078,0.071 0.182,0.114 0.296,0.114 0.12,0 0.23,-0.049 0.309,-0.129l0.014 -0.013c0.071,-0.078 0.115,-0.182 0.115,-0.296l0 -2.657c0,-0.121 -0.049,-0.23 -0.128,-0.31 -0.08,-0.079 -0.19,-0.128 -0.31,-0.128zm0 -0.727c0.321,0 0.612,0.131 0.823,0.342l0 0.001c0.211,0.211 0.342,0.502 0.342,0.822l0 2.657c0,0.309 -0.122,0.59 -0.32,0.799l-0.022 0.024c-0.211,0.211 -0.502,0.342 -0.823,0.342 -0.308,0 -0.59,-0.122 -0.799,-0.32l-0.024 -0.022c-0.211,-0.211 -0.342,-0.502 -0.342,-0.823l0 -2.657c0,-0.32 0.131,-0.611 0.342,-0.822l0.001 -0.001c0.211,-0.211 0.502,-0.342 0.822,-0.342z"/>
   <path class="fil0" d="M5.769 0.727c-0.121,0 -0.23,0.049 -0.31,0.128 -0.079,0.08 -0.128,0.189 -0.128,0.31l0 2.657c0,0.12 0.049,0.23 0.129,0.309l0.013 0.015c0.078,0.071 0.182,0.114 0.296,0.114 0.12,0 0.23,-0.049 0.309,-0.129l0.015 -0.013c0.071,-0.078 0.114,-0.182 0.114,-0.296l0 -2.657c0,-0.121 -0.049,-0.23 -0.128,-0.31 -0.08,-0.079 -0.19,-0.128 -0.31,-0.128zm0 -0.727c0.321,0 0.612,0.131 0.823,0.342l0 0.001c0.211,0.211 0.342,0.502 0.342,0.822l0 2.657c0,0.309 -0.122,0.59 -0.32,0.799l-0.022 0.024c-0.211,0.211 -0.502,0.342 -0.823,0.342 -0.308,0 -0.59,-0.122 -0.799,-0.32l-0.024 -0.022c-0.211,-0.211 -0.342,-0.502 -0.342,-0.823l0 -2.657c0,-0.32 0.131,-0.611 0.342,-0.822l0.001 -0.001c0.212,-0.211 0.502,-0.342 0.822,-0.342z"/>
   <path class="fil0" d="M4.379 9.051l1.958 0c0.174,0 0.333,0.072 0.449,0.187l0.002 0.002c0.115,0.117 0.187,0.275 0.187,0.449l0 1.958c0,0.176 -0.072,0.335 -0.187,0.45 -0.116,0.116 -0.275,0.187 -0.451,0.187l-1.958 0c-0.174,0 -0.333,-0.071 -0.449,-0.187l-0.001 -0.001c-0.116,-0.117 -0.187,-0.276 -0.187,-0.449l0 -1.958c0,-0.175 0.072,-0.335 0.187,-0.451 0.115,-0.115 0.275,-0.187 0.45,-0.187zm1.869 0.727l-1.779 0 0 1.779 1.779 0 0 -1.779z"/>
   <path class="fil0" d="M10.662 9.051l1.958 0c0.174,0 0.333,0.072 0.449,0.187l0.002 0.002c0.115,0.117 0.187,0.275 0.187,0.449l0 1.958c0,0.176 -0.072,0.335 -0.187,0.45 -0.116,0.116 -0.275,0.187 -0.451,0.187l-1.958 0c-0.174,0 -0.333,-0.071 -0.449,-0.187l-0.001 -0.001c-0.116,-0.117 -0.187,-0.276 -0.187,-0.449l0 -1.958c0,-0.175 0.072,-0.335 0.187,-0.451 0.115,-0.115 0.275,-0.187 0.45,-0.187zm1.869 0.727l-1.779 0 0 1.779 1.779 0 0 -1.779z"/>
   <path class="fil0" d="M4.379 15.461l1.958 0c0.174,0 0.333,0.071 0.449,0.187l0.002 0.001c0.115,0.117 0.187,0.276 0.187,0.45l0 1.957c0,0.176 -0.072,0.336 -0.187,0.451 -0.116,0.115 -0.275,0.187 -0.451,0.187l-1.958 0c-0.174,0 -0.333,-0.072 -0.449,-0.187l-0.001 -0.002c-0.116,-0.116 -0.187,-0.275 -0.187,-0.449l0 -1.957c0,-0.176 0.072,-0.336 0.187,-0.451 0.115,-0.115 0.275,-0.187 0.45,-0.187zm1.869 0.727l-1.779 0 0 1.779 1.779 0 0 -1.779z"/>
   <path class="fil0" d="M21.14 8.181l2.881 5.409 6.038 1.069c0.198,0.035 0.33,0.223 0.295,0.42 -0.014,0.082 -0.055,0.153 -0.112,0.205l-4.241 4.398 0.849 6.074c0.028,0.198 -0.111,0.382 -0.309,0.409 -0.074,0.01 -0.146,-0.003 -0.209,-0.033l-5.513 -2.683 -5.513 2.683c-0.18,0.088 -0.398,0.013 -0.486,-0.167 -0.036,-0.074 -0.044,-0.154 -0.029,-0.229l0.846 -6.054 -4.257 -4.414c-0.139,-0.144 -0.134,-0.373 0.01,-0.512 0.054,-0.052 0.12,-0.084 0.189,-0.096l6.038 -1.07 2.883 -5.412c0.094,-0.176 0.313,-0.243 0.489,-0.149 0.067,0.036 0.118,0.09 0.151,0.152zm2.326 5.906l-2.647 -4.968 -2.633 4.943c-0.047,0.108 -0.146,0.191 -0.27,0.212l-5.541 0.982 3.899 4.043c0.079,0.078 0.122,0.19 0.105,0.309l-0.779 5.573 5.06 -2.463c0.097,-0.047 0.214,-0.051 0.318,0l5.06 2.463 -0.779 -5.573c-0.015,-0.107 0.018,-0.218 0.098,-0.301l3.906 -4.051 -5.54 -0.982 0 -0.001c-0.106,-0.018 -0.203,-0.084 -0.257,-0.186z"/>
  </g>
 </g>
</svg>
