<?xml version="1.0" encoding="UTF-8"?>
<!DOCTYPE svg PUBLIC "-//W3C//DTD SVG 1.1//EN" "http://www.w3.org/Graphics/SVG/1.1/DTD/svg11.dtd">
<!-- Creator: CorelDRAW 2018 (64-Bit) -->
<svg xmlns="http://www.w3.org/2000/svg" xml:space="preserve" width="85px" height="57px" version="1.1" style="shape-rendering:geometricPrecision; text-rendering:geometricPrecision; image-rendering:optimizeQuality; fill-rule:evenodd; clip-rule:evenodd"
viewBox="0 0 18.009 12.133"
 xmlns:xlink="http://www.w3.org/1999/xlink">
 <defs>
  <style type="text/css">
   <![CDATA[
    .fil0 {fill:#A3AEBA;fill-rule:nonzero}
   ]]>
  </style>
 </defs>
 <g id="Layer_x0020_1">
  <metadata id="CorelCorpID_0Corel-Layer"/>
  <g id="_2013300823504">
   <path class="fil0" d="M8.316 1.628c-0.285,0 -0.512,-0.155 -0.813,-0.361 -0.497,-0.341 -1.228,-0.841 -2.75,-0.841 -1.009,0 -2.001,0.81 -2.779,1.988 -0.857,1.298 -1.447,3.031 -1.521,4.636 -0.072,1.563 -0.015,2.76 0.235,3.558 0.227,0.725 0.621,1.101 1.239,1.101 0.7,0 1.548,-0.866 2.32,-1.656 0.704,-0.72 1.351,-1.381 1.903,-1.381l5.71 0c0.551,0 1.198,0.661 1.902,1.381 0.772,0.79 1.62,1.656 2.32,1.656 0.618,0 1.012,-0.376 1.239,-1.101 0.251,-0.798 0.307,-1.995 0.235,-3.558 -0.074,-1.605 -0.664,-3.338 -1.521,-4.636 -0.778,-1.178 -1.77,-1.988 -2.778,-1.988 -1.523,0 -2.253,0.5 -2.751,0.841 -0.3,0.206 -0.528,0.361 -0.812,0.361l-1.378 0zm-0.573 -0.712c0.238,0.163 0.418,0.287 0.573,0.287l1.378 0c0.154,0 0.335,-0.124 0.573,-0.287 0.542,-0.371 1.337,-0.916 2.99,-0.916 1.165,0 2.279,0.888 3.132,2.18 0.897,1.357 1.513,3.17 1.591,4.852 0.074,1.611 0.013,2.854 -0.253,3.702 -0.289,0.922 -0.811,1.399 -1.645,1.399 -0.879,0 -1.792,-0.933 -2.624,-1.784 -0.638,-0.652 -1.224,-1.252 -1.598,-1.252l-5.71 0c-0.375,0 -0.961,0.6 -1.599,1.252 -0.831,0.851 -1.745,1.784 -2.624,1.784 -0.833,0 -1.356,-0.477 -1.645,-1.399 -0.266,-0.848 -0.327,-2.091 -0.253,-3.702 0.078,-1.682 0.694,-3.495 1.591,-4.852 0.853,-1.292 1.968,-2.18 3.133,-2.18 1.652,0 2.448,0.545 2.99,0.916z"/>
   <path class="fil0" d="M11.504 2.725c0.255,0 0.486,0.103 0.652,0.27l0.013 0.013c0.159,0.166 0.257,0.391 0.257,0.639 0,0.254 -0.103,0.484 -0.27,0.651l0 0.001c-0.166,0.167 -0.397,0.27 -0.652,0.27 -0.254,0 -0.485,-0.103 -0.652,-0.27l-0.012 -0.013c-0.16,-0.166 -0.258,-0.391 -0.258,-0.639 0,-0.254 0.103,-0.484 0.27,-0.651l0 -0.001c0.167,-0.167 0.398,-0.27 0.652,-0.27zm0.351 0.571c-0.089,-0.09 -0.214,-0.146 -0.351,-0.146 -0.137,0 -0.261,0.056 -0.351,0.146 -0.09,0.089 -0.145,0.213 -0.145,0.351 0,0.133 0.052,0.253 0.136,0.342l0.009 0.009c0.09,0.09 0.214,0.145 0.351,0.145 0.137,0 0.262,-0.055 0.351,-0.145 0.09,-0.089 0.146,-0.214 0.146,-0.351 0,-0.133 -0.052,-0.253 -0.136,-0.342l-0.01 -0.009z"/>
   <path class="fil0" d="M11.504 5.287c0.255,0 0.486,0.103 0.652,0.27l0.013 0.013c0.159,0.166 0.257,0.391 0.257,0.639 0,0.255 -0.103,0.485 -0.27,0.652 -0.166,0.167 -0.397,0.27 -0.652,0.27 -0.254,0 -0.485,-0.103 -0.652,-0.27 -0.167,-0.167 -0.27,-0.397 -0.27,-0.652 0,-0.254 0.103,-0.484 0.27,-0.651l0 -0.001c0.167,-0.167 0.398,-0.27 0.652,-0.27zm0.351 0.571c-0.089,-0.09 -0.214,-0.145 -0.351,-0.145 -0.137,0 -0.261,0.055 -0.351,0.145 -0.09,0.089 -0.145,0.214 -0.145,0.351 0,0.137 0.055,0.261 0.145,0.351 0.09,0.09 0.214,0.145 0.351,0.145 0.137,0 0.262,-0.055 0.351,-0.145 0.09,-0.09 0.146,-0.214 0.146,-0.351 0,-0.133 -0.052,-0.253 -0.136,-0.342l-0.01 -0.009z"/>
   <path class="fil0" d="M14.144 2.725c0.254,0 0.485,0.103 0.652,0.27 0.167,0.167 0.27,0.397 0.27,0.652 0,0.255 -0.103,0.485 -0.27,0.652l-0.014 0.012c-0.166,0.16 -0.391,0.258 -0.638,0.258 -0.255,0 -0.486,-0.103 -0.652,-0.27l-0.013 -0.013c-0.159,-0.166 -0.258,-0.391 -0.258,-0.639 0,-0.254 0.104,-0.484 0.271,-0.651l0 -0.001c0.166,-0.167 0.397,-0.27 0.652,-0.27zm0.351 0.571c-0.09,-0.09 -0.214,-0.146 -0.351,-0.146 -0.137,0 -0.262,0.056 -0.351,0.146 -0.09,0.089 -0.146,0.213 -0.146,0.351 0,0.133 0.052,0.253 0.136,0.342l0.01 0.009c0.089,0.09 0.214,0.145 0.351,0.145 0.133,0 0.253,-0.051 0.342,-0.135l0.009 -0.01c0.089,-0.09 0.145,-0.214 0.145,-0.351 0,-0.137 -0.056,-0.261 -0.145,-0.351z"/>
   <path class="fil0" d="M14.144 5.287c0.254,0 0.485,0.103 0.652,0.27 0.167,0.167 0.27,0.397 0.27,0.652 0,0.255 -0.103,0.485 -0.27,0.652l-0.014 0.012c-0.165,0.16 -0.391,0.258 -0.638,0.258 -0.255,0 -0.486,-0.103 -0.652,-0.27 -0.167,-0.167 -0.271,-0.397 -0.271,-0.652 0,-0.254 0.104,-0.484 0.271,-0.651l0 -0.001c0.166,-0.167 0.397,-0.27 0.652,-0.27zm0.351 0.571c-0.09,-0.09 -0.214,-0.145 -0.351,-0.145 -0.137,0 -0.262,0.055 -0.351,0.145 -0.09,0.089 -0.146,0.214 -0.146,0.351 0,0.137 0.056,0.261 0.146,0.351 0.089,0.09 0.213,0.145 0.351,0.145 0.132,0 0.253,-0.051 0.342,-0.135l0.009 -0.01c0.089,-0.09 0.145,-0.214 0.145,-0.351 0,-0.137 -0.056,-0.261 -0.145,-0.351z"/>
   <path class="fil0" d="M4.651 2.467l0.933 0c0.095,0 0.181,0.039 0.244,0.101 0.062,0.063 0.101,0.149 0.101,0.244l0 1.305 1.304 0c0.096,0 0.182,0.039 0.244,0.101 0.063,0.062 0.102,0.149 0.102,0.244l0 0.932c0,0.095 -0.039,0.181 -0.102,0.243l0 0.001c-0.062,0.063 -0.149,0.101 -0.244,0.101l-1.304 0 0 1.305c0,0.095 -0.039,0.182 -0.101,0.244l-0.019 0.017c-0.061,0.052 -0.14,0.084 -0.225,0.084l-0.933 0c-0.095,0 -0.181,-0.039 -0.244,-0.101 -0.062,-0.062 -0.101,-0.149 -0.101,-0.244l0 -1.305 -1.304 0c-0.096,0 -0.182,-0.038 -0.244,-0.101 -0.063,-0.062 -0.102,-0.149 -0.102,-0.244l0 -0.932c0,-0.095 0.039,-0.182 0.102,-0.244l0.019 -0.017c0.06,-0.052 0.139,-0.084 0.225,-0.084l1.304 0 0 -1.305c0,-0.094 0.039,-0.181 0.102,-0.243 0.062,-0.063 0.148,-0.102 0.243,-0.102zm0.852 0.426l-0.771 0 0 1.437c0,0.117 -0.095,0.212 -0.213,0.212l-1.437 0 0 0.772 1.437 0c0.118,0 0.213,0.095 0.213,0.213l0 1.437 0.771 0 0 -1.437c0,-0.118 0.095,-0.213 0.213,-0.213l1.437 0 0 -0.772 -1.437 0c-0.118,0 -0.213,-0.095 -0.213,-0.212l0 -1.437z"/>
  </g>
 </g>
</svg>
