<?xml version="1.0" encoding="UTF-8"?>
<!DOCTYPE svg PUBLIC "-//W3C//DTD SVG 1.1//EN" "http://www.w3.org/Graphics/SVG/1.1/DTD/svg11.dtd">
<!-- Creator: CorelDRAW 2018 (64-Bit) -->
<svg xmlns="http://www.w3.org/2000/svg" xml:space="preserve" width="94px" height="67px" version="1.1" style="shape-rendering:geometricPrecision; text-rendering:geometricPrecision; image-rendering:optimizeQuality; fill-rule:evenodd; clip-rule:evenodd"
viewBox="0 0 8.486 6.069"
 xmlns:xlink="http://www.w3.org/1999/xlink">
 <defs>
  <style type="text/css">
   <![CDATA[
    .fil0 {fill:#A3AEBA;fill-rule:nonzero}
   ]]>
  </style>
 </defs>
 <g id="Layer_x0020_1">
  <metadata id="CorelCorpID_0Corel-Layer"/>
  <g id="_2013890207248">
   <path class="fil0" d="M6.434 2.151c0.386,0 0.735,0.156 0.987,0.409 0.253,0.252 0.409,0.601 0.409,0.986 0,0.386 -0.156,0.735 -0.409,0.987 -0.252,0.253 -0.601,0.409 -0.987,0.409 -0.385,0 -0.734,-0.156 -0.986,-0.409 -0.253,-0.252 -0.409,-0.601 -0.409,-0.987 0,-0.385 0.156,-0.734 0.409,-0.986 0.252,-0.253 0.601,-0.409 0.986,-0.409zm0.859 0.537c-0.22,-0.22 -0.523,-0.356 -0.859,-0.356 -0.335,0 -0.639,0.136 -0.858,0.356 -0.22,0.22 -0.356,0.523 -0.356,0.858 0,0.336 0.136,0.639 0.356,0.859 0.219,0.22 0.523,0.356 0.858,0.356 0.336,0 0.639,-0.136 0.859,-0.356 0.22,-0.22 0.356,-0.523 0.356,-0.859 0,-0.335 -0.136,-0.638 -0.356,-0.858z"/>
   <path class="fil0" d="M7.293 4.533c-0.035,-0.035 -0.035,-0.092 0,-0.128 0.035,-0.035 0.093,-0.035 0.128,0l1.039 1.039c0.035,0.035 0.035,0.092 0,0.128 -0.036,0.035 -0.093,0.035 -0.129,0l-1.038 -1.039z"/>
   <path class="fil0" d="M5.252 4.946c0.05,0 0.09,0.041 0.09,0.091 0,0.05 -0.04,0.091 -0.09,0.091l-4.945 0c-0.084,0 -0.161,-0.035 -0.217,-0.09l0 0c-0.055,-0.056 -0.09,-0.133 -0.09,-0.217l0 -4.514c0,-0.085 0.035,-0.161 0.09,-0.217 0.056,-0.055 0.133,-0.09 0.217,-0.09l7.191 0c0.084,0 0.161,0.035 0.216,0.09l0.006 0.006c0.052,0.055 0.085,0.13 0.085,0.211l0 1.639c0,0.05 -0.041,0.091 -0.091,0.091 -0.05,0 -0.091,-0.041 -0.091,-0.091l0 -1.639c0,-0.033 -0.012,-0.063 -0.033,-0.085l-0.004 -0.004c-0.023,-0.023 -0.054,-0.037 -0.088,-0.037l-7.191 0c-0.035,0 -0.066,0.014 -0.089,0.037 -0.023,0.023 -0.037,0.054 -0.037,0.089l0 4.514c0,0.034 0.014,0.066 0.037,0.088 0.023,0.023 0.054,0.037 0.089,0.037l4.945 0z"/>
   <path class="fil0" d="M1.18 1.223c0,-0.05 0.041,-0.091 0.091,-0.091 0.05,0 0.09,0.041 0.09,0.091l0 2.682c0,0.05 -0.04,0.09 -0.09,0.09 -0.05,0 -0.091,-0.04 -0.091,-0.09l0 -2.682z"/>
   <path class="fil0" d="M2.103 2.807c0,-0.05 0.041,-0.09 0.091,-0.09 0.05,0 0.09,0.04 0.09,0.09l0 1.098c0,0.05 -0.04,0.09 -0.09,0.09 -0.05,0 -0.091,-0.04 -0.091,-0.09l0 -1.098z"/>
   <path class="fil0" d="M3.026 1.71c0,-0.051 0.04,-0.091 0.09,-0.091 0.05,0 0.091,0.04 0.091,0.091l0 2.195c0,0.05 -0.041,0.09 -0.091,0.09 -0.05,0 -0.09,-0.04 -0.09,-0.09l0 -2.195z"/>
   <path class="fil0" d="M3.948 2.564c0,-0.05 0.041,-0.091 0.091,-0.091 0.05,0 0.091,0.041 0.091,0.091l0 1.341c0,0.05 -0.041,0.09 -0.091,0.09 -0.05,0 -0.091,-0.04 -0.091,-0.09l0 -1.341z"/>
   <path class="fil0" d="M2.238 6.069c-0.05,0 -0.091,-0.04 -0.091,-0.09 0,-0.05 0.041,-0.091 0.091,-0.091l3.329 0c0.05,0 0.091,0.041 0.091,0.091 0,0.05 -0.041,0.09 -0.091,0.09l-3.329 0z"/>
   <path class="fil0" d="M2.899 5.861c0,0.05 -0.04,0.09 -0.09,0.09 -0.05,0 -0.091,-0.04 -0.091,-0.09l0 -0.824c0,-0.05 0.041,-0.09 0.091,-0.09 0.05,0 0.09,0.04 0.09,0.09l0 0.824z"/>
   <path class="fil0" d="M5.086 5.861c0,0.05 -0.04,0.09 -0.09,0.09 -0.05,0 -0.091,-0.04 -0.091,-0.09l0 -0.824c0,-0.05 0.041,-0.09 0.091,-0.09 0.05,0 0.09,0.04 0.09,0.09l0 0.824z"/>
  </g>
 </g>
</svg>
