<?xml version="1.0" encoding="UTF-8"?>
<!DOCTYPE svg PUBLIC "-//W3C//DTD SVG 1.1//EN" "http://www.w3.org/Graphics/SVG/1.1/DTD/svg11.dtd">
<!-- Creator: CorelDRAW 2018 (64-Bit) -->
<svg xmlns="http://www.w3.org/2000/svg" xml:space="preserve" width="71px" height="87px" version="1.1" style="shape-rendering:geometricPrecision; text-rendering:geometricPrecision; image-rendering:optimizeQuality; fill-rule:evenodd; clip-rule:evenodd"
viewBox="0 0 5.783 7.077"
 xmlns:xlink="http://www.w3.org/1999/xlink">
 <defs>
  <style type="text/css">
   <![CDATA[
    .fil0 {fill:#A3AEBA;fill-rule:nonzero}
   ]]>
  </style>
 </defs>
 <g id="Layer_x0020_1">
  <metadata id="CorelCorpID_0Corel-Layer"/>
  <g id="_2010417493840">
   <path class="fil0" d="M4.244 4.042c-0.206,-0.384 -0.446,-0.724 -0.668,-1.037 -0.393,-0.554 -0.728,-1.028 -0.728,-1.537 0,-0.405 0.164,-0.772 0.429,-1.038 0.266,-0.266 0.633,-0.43 1.038,-0.43 0.406,0 0.773,0.164 1.038,0.43 0.266,0.266 0.43,0.633 0.43,1.038 0,0.509 -0.336,0.983 -0.728,1.537 -0.222,0.313 -0.463,0.653 -0.668,1.037 -0.021,0.04 -0.07,0.055 -0.11,0.034 -0.015,-0.008 -0.026,-0.02 -0.033,-0.034zm-0.536 -1.13c0.2,0.282 0.415,0.585 0.607,0.924 0.193,-0.339 0.408,-0.642 0.608,-0.924 0.376,-0.531 0.697,-0.985 0.697,-1.444 0,-0.361 -0.146,-0.687 -0.382,-0.923 -0.236,-0.236 -0.562,-0.382 -0.923,-0.382 -0.36,0 -0.686,0.146 -0.923,0.382 -0.236,0.236 -0.382,0.562 -0.382,0.923 0,0.459 0.322,0.913 0.698,1.444zm0.607 -2.363c0.254,0 0.484,0.103 0.65,0.269 0.166,0.166 0.269,0.396 0.269,0.65 0,0.253 -0.103,0.483 -0.269,0.649 -0.166,0.167 -0.396,0.27 -0.65,0.27 -0.253,0 -0.483,-0.103 -0.649,-0.27 -0.166,-0.166 -0.269,-0.396 -0.269,-0.649 0,-0.254 0.103,-0.484 0.269,-0.65 0.166,-0.166 0.396,-0.269 0.649,-0.269zm0.535 0.384c-0.137,-0.136 -0.326,-0.221 -0.535,-0.221 -0.208,0 -0.397,0.084 -0.534,0.221 -0.137,0.137 -0.222,0.326 -0.222,0.535 0,0.209 0.085,0.398 0.222,0.534 0.137,0.137 0.326,0.222 0.534,0.222 0.209,0 0.398,-0.085 0.535,-0.222 0.137,-0.136 0.221,-0.325 0.221,-0.534 0,-0.209 -0.084,-0.398 -0.221,-0.535z"/>
   <path class="fil0" d="M1.097 3.606c-0.021,-0.039 -0.006,-0.088 0.034,-0.109 0.039,-0.021 0.088,-0.005 0.109,0.034l0.05 0.096c0.087,-0.098 0.237,-0.25 0.421,-0.366 0.208,-0.132 0.481,-0.183 0.626,-0.202l-0.148 -0.482c-0.007,-0.025 -0.002,-0.05 0.012,-0.07l0.209 -0.296 -0.1 -0.085c-0.183,0.084 -0.867,0.418 -1.157,0.848 -0.169,0.25 -0.291,0.47 -0.327,0.695 -0.035,0.222 0.013,0.455 0.18,0.737 0.013,0.02 0.015,0.044 0.008,0.065l-0.08 0.335c0.079,0.111 0.353,0.499 0.424,0.68 0.04,0.101 0.091,0.226 0.148,0.338 0.055,0.107 0.115,0.202 0.177,0.251 0.069,0.054 0.166,0.096 0.242,0.122 -0.002,-0.103 0.018,-0.244 0.122,-0.339 0.112,-0.102 0.242,-0.171 0.307,-0.202l0.058 -0.267c0.003,-0.015 0.01,-0.028 0.019,-0.038l0.126 -0.165 -1.164 -0.864 -0.194 0.147c-0.036,0.027 -0.087,0.02 -0.114,-0.016 -0.027,-0.036 -0.02,-0.087 0.016,-0.114l0.243 -0.183c0.028,-0.021 0.067,-0.022 0.097,0l1.279 0.949c0.035,0.027 0.042,0.078 0.015,0.113l-0.168 0.222 -0.063 0.289 0 0c-0.006,0.025 -0.023,0.048 -0.049,0.058 0,0 -0.162,0.067 -0.299,0.191 -0.111,0.101 -0.059,0.313 -0.059,0.314 0.003,0.012 0.003,0.026 0,0.04 -0.012,0.043 -0.056,0.069 -0.099,0.058 -0.001,-0.001 -0.258,-0.064 -0.416,-0.188 -0.082,-0.065 -0.156,-0.179 -0.22,-0.305 -0.062,-0.12 -0.114,-0.249 -0.155,-0.352 -0.076,-0.193 -0.425,-0.673 -0.426,-0.674 -0.013,-0.019 -0.019,-0.043 -0.013,-0.066l0.082 -0.345c-0.175,-0.305 -0.224,-0.564 -0.184,-0.815 0.041,-0.255 0.171,-0.495 0.352,-0.762 0.347,-0.514 1.194,-0.892 1.268,-0.924 0.028,-0.015 0.064,-0.012 0.09,0.01l0.196 0.167c0.032,0.027 0.038,0.074 0.014,0.109l-0.23 0.323 0.164 0.534c0.002,0.007 0.004,0.015 0.004,0.023 0.003,0.044 -0.031,0.083 -0.076,0.086 -0.001,0 -0.389,0.022 -0.651,0.187 -0.266,0.168 -0.457,0.422 -0.457,0.423 -0.007,0.009 -0.017,0.017 -0.028,0.023 -0.039,0.02 -0.088,0.005 -0.109,-0.035l-0.106 -0.203z"/>
   <path class="fil0" d="M3.274 3.63c0.021,-0.039 0.07,-0.054 0.11,-0.032 0.039,0.021 0.054,0.07 0.032,0.11l-0.095 0.173 0 0.383 0.368 0.328 0.395 -0.126c0.038,-0.011 0.078,0.006 0.096,0.039l0.206 0.379c0.011,0.021 0.013,0.044 0.006,0.064l-0.106 0.324 0.005 0.436c0.188,-0.203 0.514,-0.582 0.606,-0.857 0.048,-0.143 0.09,-0.313 0.115,-0.481 0.021,-0.144 0.028,-0.286 0.014,-0.404 -0.005,-0.045 0.027,-0.085 0.072,-0.09 0.045,-0.005 0.085,0.027 0.09,0.071 0.015,0.133 0.007,0.289 -0.016,0.446 -0.025,0.177 -0.07,0.358 -0.121,0.509 -0.145,0.432 -0.78,1.062 -0.781,1.064l-0.001 0c-0.014,0.014 -0.034,0.023 -0.056,0.024 -0.045,0 -0.082,-0.036 -0.082,-0.081l-0.007 -0.644c0,-0.01 0.001,-0.02 0.004,-0.031l0.099 -0.303 -0.157 -0.29 -0.37 0.118c-0.028,0.011 -0.061,0.006 -0.085,-0.015l-0.426 -0.38c-0.018,-0.015 -0.03,-0.038 -0.03,-0.063l0 -0.44 0 0c0,-0.013 0.003,-0.026 0.01,-0.038l0.105 -0.193z"/>
   <path class="fil0" d="M5.46 3.453c-0.013,-0.043 0.012,-0.088 0.055,-0.101 0.043,-0.012 0.088,0.013 0.1,0.056 0.038,0.129 0.067,0.262 0.086,0.397 0.019,0.133 0.029,0.269 0.029,0.407 0,0.791 -0.321,1.507 -0.839,2.025 -0.519,0.519 -1.235,0.84 -2.026,0.84 -0.791,0 -1.507,-0.321 -2.026,-0.84 -0.518,-0.518 -0.839,-1.234 -0.839,-2.025 0,-0.685 0.241,-1.315 0.642,-1.808 0.409,-0.502 0.985,-0.863 1.643,-0.998 0.044,-0.009 0.087,0.019 0.095,0.063 0.009,0.044 -0.019,0.087 -0.063,0.095 -0.62,0.128 -1.163,0.469 -1.549,0.942 -0.378,0.465 -0.605,1.059 -0.605,1.706 0,0.746 0.302,1.421 0.791,1.91 0.489,0.489 1.165,0.792 1.911,0.792 0.746,0 1.422,-0.303 1.911,-0.792 0.489,-0.489 0.791,-1.164 0.791,-1.91 0,-0.131 -0.009,-0.26 -0.027,-0.384 -0.018,-0.129 -0.045,-0.254 -0.08,-0.375z"/>
  </g>
 </g>
</svg>
