<?xml version="1.0" encoding="UTF-8"?>
<!DOCTYPE svg PUBLIC "-//W3C//DTD SVG 1.1//EN" "http://www.w3.org/Graphics/SVG/1.1/DTD/svg11.dtd">
<!-- Creator: CorelDRAW 2018 (64-Bit) -->
<svg xmlns="http://www.w3.org/2000/svg" xml:space="preserve" width="68px" height="69px" version="1.1" style="shape-rendering:geometricPrecision; text-rendering:geometricPrecision; image-rendering:optimizeQuality; fill-rule:evenodd; clip-rule:evenodd"
viewBox="0 0 18.642 18.908"
 xmlns:xlink="http://www.w3.org/1999/xlink">
 <defs>
  <style type="text/css">
   <![CDATA[
    .fil0 {fill:#A3AEBA;fill-rule:nonzero}
   ]]>
  </style>
 </defs>
 <g id="Layer_x0020_1">
  <metadata id="CorelCorpID_0Corel-Layer"/>
  <g id="_2013890205040">
   <path class="fil0" d="M16.924 15.169c0,-0.152 0.123,-0.276 0.275,-0.276 0.152,0 0.276,0.124 0.276,0.276l0 2.049c0,0.465 -0.191,0.887 -0.497,1.193 -0.306,0.306 -0.728,0.497 -1.193,0.497l-14.096 0c-0.465,0 -0.887,-0.19 -1.193,-0.496 -0.306,-0.306 -0.496,-0.729 -0.496,-1.194l0 -14.342c0,-0.152 0.123,-0.276 0.275,-0.276l15.51 0c0.465,0 0.888,0.19 1.193,0.496l0.016 0.017c0.297,0.306 0.481,0.721 0.481,1.177l0 2.05c0,0.152 -0.124,0.275 -0.276,0.275 -0.152,0 -0.275,-0.123 -0.275,-0.275l0 -2.05c0,-0.307 -0.123,-0.587 -0.321,-0.792l-0.014 -0.012c-0.206,-0.207 -0.491,-0.335 -0.804,-0.335l-15.234 0 0 14.067c0,0.313 0.128,0.598 0.334,0.804 0.207,0.207 0.491,0.335 0.804,0.335l14.096 0c0.313,0 0.598,-0.129 0.804,-0.335 0.207,-0.206 0.335,-0.491 0.335,-0.804l0 -2.049z"/>
   <path class="fil0" d="M17.475 2c0,0.152 -0.124,0.276 -0.276,0.276 -0.152,0 -0.275,-0.124 -0.275,-0.276 0,-0.165 -0.067,-0.315 -0.175,-0.423l-0.001 0c-0.109,-0.109 -0.259,-0.177 -0.424,-0.177 -0.152,0 -0.275,-0.123 -0.275,-0.275 0,-0.152 0.123,-0.275 0.275,-0.275 0.317,0 0.604,0.129 0.813,0.337 0.208,0.21 0.338,0.498 0.338,0.813z"/>
   <polygon class="fil0" points="16.924,2 17.475,2 "/>
   <path class="fil0" d="M1.888 0.85c0.152,0 0.275,0.123 0.275,0.275 0,0.152 -0.123,0.275 -0.275,0.275l-0.737 0c-0.165,0 -0.315,0.068 -0.424,0.177l-0.012 0.011c-0.102,0.107 -0.164,0.253 -0.164,0.412l0 0.876c0,0.152 -0.124,0.275 -0.276,0.275 -0.152,0 -0.275,-0.123 -0.275,-0.275l0 -0.876c0,-0.307 0.123,-0.588 0.322,-0.795l0.016 -0.018c0.208,-0.208 0.496,-0.337 0.813,-0.337l0.737 0z"/>
   <path class="fil0" d="M17.783 8.695l-8.462 0c-0.569,0 -1.084,0.231 -1.456,0.603 -0.373,0.373 -0.603,0.888 -0.603,1.456 0,0.569 0.231,1.084 0.603,1.456 0.372,0.373 0.887,0.603 1.456,0.603l8.462 0c0.086,0 0.163,-0.034 0.218,-0.089 0.056,-0.056 0.09,-0.133 0.09,-0.219l0 -3.502c0,-0.085 -0.034,-0.162 -0.09,-0.218 -0.056,-0.055 -0.133,-0.09 -0.218,-0.09zm-8.462 -0.551l8.462 0c0.237,0 0.452,0.097 0.607,0.252 0.156,0.155 0.252,0.37 0.252,0.607l0 3.502c0,0.236 -0.096,0.451 -0.252,0.606 -0.156,0.156 -0.37,0.253 -0.607,0.253l-8.462 0c-0.721,0 -1.373,-0.292 -1.845,-0.765 -0.473,-0.472 -0.765,-1.124 -0.765,-1.845 0,-0.72 0.292,-1.373 0.765,-1.845 0.472,-0.472 1.124,-0.765 1.845,-0.765z"/>
   <path class="fil0" d="M10.472 10.754c0,0.318 -0.129,0.606 -0.337,0.814 -0.209,0.208 -0.496,0.337 -0.814,0.337 -0.317,0 -0.604,-0.129 -0.813,-0.338 -0.209,-0.207 -0.338,-0.495 -0.338,-0.813 0,-0.317 0.129,-0.604 0.337,-0.812l0.001 -0.002c0.209,-0.208 0.496,-0.337 0.813,-0.337 0.317,0 0.604,0.129 0.812,0.337l0.001 0c0.209,0.209 0.338,0.496 0.338,0.814zm-0.727 0.424c0.109,-0.108 0.176,-0.258 0.176,-0.424 0,-0.166 -0.067,-0.316 -0.176,-0.424 -0.108,-0.109 -0.258,-0.176 -0.424,-0.176 -0.166,0 -0.316,0.067 -0.425,0.175 -0.108,0.109 -0.175,0.259 -0.175,0.425 0,0.166 0.067,0.316 0.176,0.424l0 0.002c0.107,0.107 0.257,0.174 0.424,0.174 0.166,0 0.316,-0.067 0.424,-0.176z"/>
   <path class="fil0" d="M4.001 1.603c-0.151,0.015 -0.285,-0.096 -0.3,-0.247 -0.015,-0.15 0.096,-0.285 0.246,-0.3l10.745 -1.055c0.151,-0.014 0.285,0.096 0.3,0.247l0.119 0.918c0.019,0.15 -0.088,0.287 -0.238,0.306 -0.15,0.019 -0.288,-0.087 -0.307,-0.237l-0.085 -0.661 -10.48 1.029z"/>
  </g>
 </g>
</svg>
