<?xml version="1.0" encoding="UTF-8"?>
<!DOCTYPE svg PUBLIC "-//W3C//DTD SVG 1.1//EN" "http://www.w3.org/Graphics/SVG/1.1/DTD/svg11.dtd">
<!-- Creator: CorelDRAW 2018 (64-Bit) -->
<svg xmlns="http://www.w3.org/2000/svg" xml:space="preserve" width="87px" height="67px" version="1.1" style="shape-rendering:geometricPrecision; text-rendering:geometricPrecision; image-rendering:optimizeQuality; fill-rule:evenodd; clip-rule:evenodd"
viewBox="0 0 18.805 14.519"
 xmlns:xlink="http://www.w3.org/1999/xlink">
 <defs>
  <style type="text/css">
   <![CDATA[
    .fil0 {fill:#A3AEBA;fill-rule:nonzero}
   ]]>
  </style>
 </defs>
 <g id="Layer_x0020_1">
  <metadata id="CorelCorpID_0Corel-Layer"/>
  <g id="_2013895155760">
   <path class="fil0" d="M6.423 8.621c0,-0.119 0.097,-0.216 0.217,-0.216 0.12,0 0.217,0.097 0.217,0.216l0 5.626c0,0.119 -0.097,0.216 -0.217,0.216 -0.12,0 -0.217,-0.097 -0.217,-0.216l0 -5.626z"/>
   <path class="fil0" d="M5.208 10.713c-0.12,0 -0.217,-0.097 -0.217,-0.217 0,-0.119 0.097,-0.216 0.217,-0.216l0.477 0c0.12,0 0.217,0.097 0.217,0.216 0,0.12 -0.097,0.217 -0.217,0.217l-0.477 0z"/>
   <path class="fil0" d="M12.998 12.968c-0.085,0.085 -0.222,0.085 -0.306,0 -0.085,-0.085 -0.085,-0.222 0,-0.306l2.863 -2.864c0.085,-0.085 0.222,-0.085 0.307,0 0.084,0.084 0.084,0.222 0,0.306l-2.864 2.864z"/>
   <path class="fil0" d="M14.43 12.966c-0.085,0.084 -0.222,0.084 -0.306,0 -0.085,-0.085 -0.085,-0.222 0,-0.307l1.431 -1.432c0.085,-0.084 0.222,-0.084 0.307,0 0.084,0.085 0.084,0.222 0,0.307l-1.432 1.432z"/>
   <path class="fil0" d="M18.805 5.17c0,0.482 -0.196,0.919 -0.512,1.235 -0.316,0.317 -0.753,0.513 -1.235,0.513 -0.471,0 -0.855,-0.16 -1.152,-0.444 -0.141,-0.136 -0.261,-0.299 -0.359,-0.487 -0.083,0.164 -0.192,0.312 -0.322,0.439 -0.313,0.307 -0.747,0.492 -1.229,0.492l-0.001 0 0 -0.001c-0.483,-0.001 -0.919,-0.196 -1.235,-0.511 -0.116,-0.116 -0.216,-0.248 -0.296,-0.393 -0.08,0.144 -0.179,0.276 -0.295,0.392l0 0.001c-0.315,0.315 -0.752,0.51 -1.234,0.511l0 0.001 -0.002 0 0 -0.001c-0.483,-0.001 -0.919,-0.196 -1.235,-0.511 -0.116,-0.116 -0.216,-0.248 -0.295,-0.392 -0.08,0.144 -0.18,0.276 -0.295,0.392l-0.013 0.012c-0.315,0.308 -0.746,0.498 -1.221,0.499l0 0.001 -0.003 0 0 -0.001c-0.482,-0.001 -0.919,-0.196 -1.234,-0.511 -0.117,-0.116 -0.216,-0.248 -0.296,-0.393 -0.08,0.145 -0.18,0.276 -0.295,0.392l0 0.001c-0.315,0.315 -0.752,0.51 -1.234,0.511l0 0.001 -0.003 0 0 -0.001c-0.481,-0.001 -0.91,-0.18 -1.221,-0.479 -0.133,-0.129 -0.244,-0.279 -0.328,-0.447 -0.098,0.179 -0.218,0.34 -0.36,0.474 -0.299,0.283 -0.686,0.453 -1.151,0.453 -0.482,0 -0.919,-0.196 -1.236,-0.512 -0.317,-0.317 -0.513,-0.754 -0.513,-1.236 0,-0.032 0.007,-0.063 0.02,-0.09l1.617 -4.425c0.081,-0.223 0.184,-0.383 0.332,-0.493 0.152,-0.112 0.336,-0.162 0.578,-0.162l13.711 0c0.242,0 0.426,0.05 0.578,0.162 0.148,0.11 0.25,0.27 0.332,0.493l1.623 4.442c0.009,0.024 0.013,0.049 0.014,0.073zm-0.818 0.93c0.23,-0.23 0.375,-0.545 0.384,-0.895l-1.609 -4.403c-0.052,-0.142 -0.109,-0.238 -0.184,-0.293 -0.071,-0.052 -0.173,-0.076 -0.32,-0.076l-13.711 0c-0.147,0 -0.249,0.024 -0.32,0.076 -0.075,0.055 -0.132,0.151 -0.184,0.293l-1.609 4.403c0.009,0.35 0.154,0.665 0.384,0.894 0.238,0.238 0.567,0.385 0.931,0.385 0.347,0 0.634,-0.124 0.853,-0.332 0.243,-0.231 0.408,-0.566 0.484,-0.952 0.014,-0.106 0.105,-0.188 0.215,-0.188 0.12,0 0.217,0.097 0.217,0.216l0 0.003c0,0.361 0.14,0.673 0.37,0.895 0.232,0.224 0.557,0.359 0.921,0.359l0 -0.001 0.003 0 0 0.001c0.362,0 0.69,-0.148 0.927,-0.385 0.238,-0.237 0.385,-0.565 0.385,-0.928l0 -0.002 0.433 0 0 0.002c0,0.363 0.147,0.691 0.384,0.928 0.238,0.237 0.567,0.385 0.93,0.385l0 -0.001 0.003 0 0 0.001c0.356,0 0.68,-0.143 0.917,-0.375l0.01 -0.01c0.237,-0.238 0.384,-0.566 0.384,-0.928l0 -0.002 0.434 0 -0.001 0.037c0.01,0.348 0.155,0.663 0.385,0.893 0.238,0.237 0.567,0.385 0.93,0.385l0 -0.001 0.002 0 0 0.001c0.362,0 0.69,-0.148 0.928,-0.385 0.237,-0.237 0.384,-0.566 0.384,-0.929l0 -0.001 0.433 0 0 0.037c0.009,0.348 0.154,0.663 0.384,0.893 0.239,0.237 0.568,0.385 0.931,0.385l0 -0.001 0.001 0c0.366,0 0.693,-0.138 0.926,-0.366 0.23,-0.225 0.371,-0.541 0.371,-0.901l0.001 0c0,-0.101 0.071,-0.191 0.173,-0.212 0.117,-0.023 0.231,0.053 0.254,0.17 0.085,0.42 0.247,0.76 0.485,0.988 0.215,0.206 0.499,0.321 0.852,0.321 0.363,0 0.692,-0.147 0.929,-0.384z"/>
   <path class="fil0" d="M16.867 8.621c0,-0.119 0.097,-0.216 0.217,-0.216 0.119,0 0.217,0.097 0.217,0.216l0 5.151c0,0.205 -0.085,0.392 -0.22,0.528 -0.136,0.135 -0.322,0.219 -0.527,0.219l-14.303 0c-0.205,0 -0.392,-0.084 -0.527,-0.219 -0.135,-0.135 -0.22,-0.322 -0.22,-0.528l0 -5.151c0,-0.119 0.097,-0.216 0.217,-0.216 0.12,0 0.217,0.097 0.217,0.216l0 5.151c0,0.086 0.035,0.164 0.092,0.221 0.057,0.057 0.136,0.093 0.221,0.093l14.303 0c0.085,0 0.163,-0.036 0.22,-0.093 0.058,-0.057 0.093,-0.135 0.093,-0.221l0 -5.151z"/>
   <path class="fil0" d="M6.488 0.318c0.009,-0.119 0.113,-0.208 0.232,-0.2 0.119,0.009 0.209,0.113 0.2,0.232l-0.38 5.069c-0.009,0.119 -0.113,0.208 -0.232,0.2 -0.12,-0.009 -0.209,-0.113 -0.2,-0.232l0.38 -5.069z"/>
   <path class="fil0" d="M11.883 0.35c-0.009,-0.119 0.081,-0.223 0.2,-0.232 0.119,-0.008 0.223,0.081 0.232,0.2l0.38 5.069c0.009,0.119 -0.08,0.223 -0.199,0.232 -0.12,0.008 -0.224,-0.081 -0.232,-0.2l-0.381 -5.069z"/>
   <path class="fil0" d="M14.172 0.298c-0.026,-0.116 0.047,-0.232 0.163,-0.258 0.117,-0.026 0.232,0.047 0.258,0.163l1.151 5.069c0.026,0.116 -0.047,0.232 -0.164,0.258 -0.116,0.026 -0.232,-0.047 -0.258,-0.163l-1.15 -5.069z"/>
   <path class="fil0" d="M4.201 0.286c0.026,-0.116 0.142,-0.189 0.258,-0.163 0.117,0.026 0.19,0.142 0.164,0.258l-1.151 5.069c-0.026,0.116 -0.141,0.189 -0.258,0.163 -0.116,-0.026 -0.189,-0.142 -0.163,-0.258l1.15 -5.069z"/>
   <path class="fil0" d="M9.186 0.232c0,-0.119 0.097,-0.216 0.217,-0.216 0.119,0 0.216,0.097 0.216,0.216l0 5.242c0,0.12 -0.097,0.217 -0.216,0.217 -0.12,0 -0.217,-0.097 -0.217,-0.217l0 -5.242z"/>
  </g>
 </g>
</svg>
