<?xml version="1.0" encoding="UTF-8"?>
<!DOCTYPE svg PUBLIC "-//W3C//DTD SVG 1.1//EN" "http://www.w3.org/Graphics/SVG/1.1/DTD/svg11.dtd">
<!-- Creator: CorelDRAW 2018 (64-Bit) -->
<svg xmlns="http://www.w3.org/2000/svg" xml:space="preserve" width="301px" height="930px" version="1.1" style="shape-rendering:geometricPrecision; text-rendering:geometricPrecision; image-rendering:optimizeQuality; fill-rule:evenodd; clip-rule:evenodd"
viewBox="0 0 47.133 145.871"
 xmlns:xlink="http://www.w3.org/1999/xlink">
 <defs>
  <style type="text/css">
   <![CDATA[
    .fil0 {fill:#A3AEBA}
   ]]>
  </style>
 </defs>
 <g id="Layer_x0020_1">
  <metadata id="CorelCorpID_0Corel-Layer"/>
  <path class="fil0" d="M47.133 105.276l-13.389 -75.928 -12.079 10.136 10.65 60.398 14.818 5.394zm-47.133 -105.276l0 0.166 12.819 4.666 -11.803 9.904 -1.016 -0.37 0 0.167 1.048 0.381 12.079 -10.136 -13.127 -4.778zm0 17.854l0 0.204 14.871 -12.478 15.517 5.647 0.144 0.809 2.726 15.455 -33.258 27.907 0 0.204 33.428 -28.049 -2.741 -15.544 -0.161 -0.898 -15.686 -5.709 -14.84 12.452zm0 17.64l0 0.204 17.593 -14.762 0.854 0.311 0.159 0.9 -18.606 15.612 0 0.204 18.776 -15.755 -0.016 -0.088 -0.174 -0.989 -1.024 -0.373 -17.562 14.736zm0 38.08l0 0.166 27.722 10.091 2.678 15.188 -30.4 -11.065 0 0.167 30.602 11.138 -2.741 -15.544 -27.861 -10.141zm0 16.244l0 0.167 29.753 10.829 -11.814 9.913 -17.939 -6.529 0 0.167 17.97 6.54 12.091 -10.145 -30.061 -10.942zm0 38.227l0 0.204 0.234 -0.196 31.572 -26.492 14.477 5.27 -46.283 38.836 0 0.204 46.592 -39.095 -14.818 -5.393 -12.091 10.146 -19.683 16.516zm33.637 -98.402l13.294 75.393 -14.478 -5.27 -10.618 -60.22 11.802 -9.903z"/>
 </g>
</svg>
