<?xml version="1.0" encoding="UTF-8"?>
<!DOCTYPE svg PUBLIC "-//W3C//DTD SVG 1.1//EN" "http://www.w3.org/Graphics/SVG/1.1/DTD/svg11.dtd">
<!-- Creator: CorelDRAW 2018 (64-Bit) -->
<svg xmlns="http://www.w3.org/2000/svg" xml:space="preserve" width="646px" height="848px" version="1.1" style="shape-rendering:geometricPrecision; text-rendering:geometricPrecision; image-rendering:optimizeQuality; fill-rule:evenodd; clip-rule:evenodd"
viewBox="0 0 663.618 871.841"
 xmlns:xlink="http://www.w3.org/1999/xlink">
 <defs>
  <style type="text/css">
   <![CDATA[
    .fil0 {fill:#A3AEBA}
   ]]>
  </style>
 </defs>
 <g id="Layer_x0020_1">
  <metadata id="CorelCorpID_0Corel-Layer"/>
  <path class="fil0" d="M663.618 0l0 1.085 -316.31 0 40.431 70.033 103.978 -0.002 171.901 0.001 0 1.081 -39.004 0 -237.498 0.001c-13.89,-24.069 -27.785,-48.134 -41.682,-72.199l318.184 0zm0 79.347l0 1.072 -43.437 0 -162.067 280.702 -0.313 0.001 -323.817 0.002 -40.474 70.103 405.076 0.001 165.032 -285.842 0 2.201c-54.773,94.924 -109.544,189.851 -164.406,284.722 -135.858,0 -271.716,0.044 -407.574,-0.001 13.915,-24.084 27.82,-48.174 41.723,-72.265l0.311 0 323.817 -0.003 162.066 -280.703c14.687,0.015 29.376,0.014 44.063,0.01zm0 82.707l0 2.099 -156.908 271.77 156.908 271.77 0 2.156c-52.703,-91.318 -105.38,-182.652 -158.158,-273.926 52.768,-91.259 105.476,-182.558 158.158,-273.869zm0 142.309l0 2.16 -74.709 129.4 74.709 129.402 0 2.161 -75.956 -131.564 0.156 -0.269 75.8 -131.29zm0 55.72l0 1.086 -22.059 0 -40.473 70.103 62.532 0 0 1.081 -64.404 0c13.911,-24.088 27.822,-48.177 41.724,-72.27l22.68 0zm0 79.408l0 1.082 -62.534 -0.001 40.478 70.109 22.056 0 0 1.081 -22.68 0c-13.904,-24.093 -27.818,-48.18 -41.725,-72.271l64.405 0zm0 284.847l0 2.165 -165.055 -285.888 -405.081 0.002 40.474 70.101 324.13 0.003 0.156 0.269 161.911 280.434 43.465 -0.001 0 1.084c-14.697,0 -29.394,-0.002 -44.091,-0.002l-0.156 -0.27 -161.91 -280.433 -324.129 -0.003c-13.914,-24.084 -27.811,-48.177 -41.722,-72.264 135.857,0 271.72,0.133 407.576,-0.001 54.827,94.925 109.626,189.866 164.432,284.804zm0 75.306l0 1.081 -275.907 0.001 -40.434 70.032 316.341 0.002 0 1.081 -318.215 -0.002c13.9,-24.061 27.792,-48.127 41.682,-72.194l276.533 -0.001zm-538.998 -288.655c39.583,68.56 79.179,137.112 118.749,205.679 -13.889,24.068 -27.782,48.135 -41.683,72.197 -67.199,-116.46 -134.445,-232.894 -201.686,-349.33 27.788,0 55.578,0.026 83.366,-0.001l41.254 71.455zm65.511 115.633l-107.391 -186.007 -80.866 0.001 199.812 346.084 40.434 -70.032 -51.989 -90.046zm105.585 174.093l-5.072 -0.001 -2.679 -4.64 159.382 -276.054 -80.954 0.002 -159.335 275.982 43.152 74.744 4.439 0.012 81.885 0 118.863 -205.878 0.003 0.002 40.477 -70.108 -40.476 -70.105 -159.373 276.044 -0.312 0zm-4.448 -1.082l4.137 0.001 159.996 -277.124c13.912,24.088 27.814,48.18 41.724,72.268 -13.786,23.902 -27.586,47.797 -41.39,71.689l-0.004 -0.003 -118.574 205.377 -82.508 0 -5.064 -0.014c-14.581,-25.28 -29.181,-50.551 -43.777,-75.823 53.426,-92.291 106.66,-184.7 159.962,-277.063 27.817,0 55.634,0.007 83.451,-0.002l-160.007 277.137 2.054 3.557zm-290.773 -368.136l201.22 -348.519c13.899,24.061 27.78,48.134 41.682,72.195 -53.274,92.412 -106.613,184.794 -160.005,277.138l-83.367 0 0.47 -0.814zm201.222 -346.356l-199.815 346.085 80.869 0 159.378 -276.053 -40.432 -70.032zm86.437 -9.633l2.539 -4.393 5.354 0 159.381 276.056 40.477 -70.107c-53.117,-91.991 -106.227,-183.986 -159.342,-275.979l-86.306 0.001 -2.228 3.837 -40.943 70.914 118.825 205.807 -0.005 0.003 40.515 70.173 80.95 0 -159.373 -276.041 0.156 -0.271zm3.162 -3.308l-2.068 3.579 160 277.127c-27.816,0 -55.634,0.027 -83.45,-0.001 -13.791,-23.87 -27.563,-47.751 -41.352,-71.623l0.005 -0.003 -118.615 -205.442 41.257 -71.457 2.543 -4.38 87.553 0.004c45.399,78.506 90.689,157.079 136.033,235.618 8.056,13.756 15.957,27.636 23.933,41.442 -13.892,24.1 -27.811,48.186 -41.728,72.272l-160.003 -277.136 -4.108 0z"/>
 </g>
</svg>
