<?xml version="1.0" encoding="UTF-8"?>
<!DOCTYPE svg PUBLIC "-//W3C//DTD SVG 1.1//EN" "http://www.w3.org/Graphics/SVG/1.1/DTD/svg11.dtd">
<!-- Creator: CorelDRAW 2018 (64-Bit) -->
<svg xmlns="http://www.w3.org/2000/svg" xml:space="preserve" width="445px" height="806px" version="1.1" style="shape-rendering:geometricPrecision; text-rendering:geometricPrecision; image-rendering:optimizeQuality; fill-rule:evenodd; clip-rule:evenodd"
viewBox="0 0 103.071 186.945"
 xmlns:xlink="http://www.w3.org/1999/xlink">
 <defs>
  <style type="text/css">
   <![CDATA[
    .fil0 {fill:#A3AEBA;fill-rule:nonzero}
   ]]>
  </style>
 </defs>
 <g id="Layer_x0020_1">
  <metadata id="CorelCorpID_0Corel-Layer"/>
  <path class="fil0" d="M75.668 46.522c-12.758,-7.365 -25.514,-14.733 -38.273,-22.096 0,-5.171 0.001,-10.342 0,-15.513 21.672,12.502 43.337,25.018 65.004,37.53 -4.478,2.586 -8.958,5.169 -13.435,7.757l-13.296 -7.678zm-21.316 -12.538l34.613 19.983 13.031 -7.524 -64.4 -37.181 0 15.047 16.756 9.675zm-18.429 129.771c12.758,-7.365 25.514,-14.733 38.273,-22.097 4.479,2.585 8.957,5.17 13.434,7.757 -21.671,12.504 -43.337,25.018 -65.004,37.53 0,-5.171 0.005,-10.342 0,-15.513l13.297 -7.677zm21.517 -12.19l-34.613 19.984 0.001 15.047 64.4 -37.181 -13.032 -7.524 -16.756 9.674zm32.395 -19.647l0 0.943 -0.863 0.499 -51.369 -29.658 0.001 15.064 51.355 29.649 13.908 -8.029 0.003 -0.827 0 -15.237 -38.311 -22.118 0.001 -0.001 -13.046 -7.532 -13.045 7.532 51.366 29.657 0 0.058zm-0.201 0.827l0 -0.769 -51.567 -29.773c4.482,-2.589 8.965,-5.176 13.447,-7.764 4.448,2.565 8.895,5.133 13.34,7.702l0 0.001 38.217 22.064 0 15.353 -0.003 0.943c-4.704,2.713 -9.407,5.43 -14.109,8.146 -17.174,-9.942 -34.37,-19.848 -51.557,-29.766 0,-5.176 0.002,-10.353 0,-15.529l51.57 29.775 0.662 -0.383zm13.437 -84.96l-0.001 74.887c-4.477,-2.587 -8.955,-5.172 -13.434,-7.757l0 -59.547c4.477,-2.589 8.956,-5.172 13.435,-7.757l0 0.174zm-0.202 74.538l0.001 -74.363 -13.033 7.524 0 59.315 13.032 7.524zm-14.611 -50.632l-52.184 30.129 0 60.314c-4.482,2.59 -8.965,5.176 -13.447,7.764 0,-25.281 0.024,-50.562 -0.001,-75.842 21.892,-12.644 43.788,-25.281 65.681,-37.921 0.002,5.176 0.001,10.351 0.001,15.527l-0.05 0.029zm-52.335 29.984l52.184 -30.129 -0.001 -15.063 -65.279 37.689 0.001 75.378 13.044 -7.532 0.001 -60.314 0.05 -0.029zm-14.792 85.178l-21.131 -12.2 0 -0.233 21.08 12.171 0 -15.048 -21.08 -12.171 0 -0.243c7.095,4.098 14.189,8.197 21.282,12.298l0 15.513 -0.151 -0.087zm-13.297 -24.782l0 -60.256 -7.834 -4.523 0 -0.233 8.035 4.639 0 0.058 0.001 60.257 13.045 7.531 0 -75.377 -21.081 -12.171 0 -0.243c7.095,4.097 14.189,8.196 21.282,12.298 0,25.28 0.008,50.561 0,75.842 -4.482,-2.589 -8.965,-5.177 -13.448,-7.764l0 -0.058zm-7.834 -56.732l5.439 -3.141 -5.439 -3.14 0 -0.235c1.947,1.125 3.895,2.25 5.842,3.375l-5.842 3.373 0 -0.232zm0 17.062l6.304 -3.64 0 -15.064 -6.304 3.64 0 -0.232 6.506 -3.757c0,5.176 0.005,10.353 0,15.529 -2.168,1.252 -4.337,2.504 -6.506,3.756l0 -0.232zm21.139 -106.649l0.818 -0.472 0.863 0.498 -0.001 59.316 13.046 -7.532 0 -59.3 -13.908 -8.03 -0.717 0.412 -13.195 7.618 0 44.212 -0.001 0 0 15.088 13.045 7.532 0 -59.313 0.05 -0.029zm0.817 -0.24l-0.666 0.385 0 59.545c-4.482,-2.588 -8.965,-5.177 -13.448,-7.764l0 -15.379 0.001 0 0 -44.153 13.296 -7.677 0.817 -0.469c4.705,2.713 9.409,5.428 14.11,8.146l0.001 59.532c-4.484,2.587 -8.966,5.177 -13.449,7.764l0.001 -59.547 -0.663 -0.383zm-21.956 -2.838l6.515 -3.761c0,5.171 0.004,10.342 -0.001,15.512 -2.171,1.255 -4.342,2.509 -6.514,3.763l0 -0.234 6.313 -3.645 0 -15.048 -6.313 3.645 0 -0.232zm0 52.01l21.954 12.676 52.234 -30.157c4.484,2.585 8.966,5.175 13.448,7.763 -21.893,12.643 -43.796,25.267 -65.682,37.922 -7.317,-4.231 -14.635,-8.459 -21.954,-12.687l0 -0.221 21.954 12.675 65.279 -37.689 -13.044 -7.531 -52.235 30.157 -0.05 -0.029 -21.904 -12.647 0 -0.232z"/>
 </g>
</svg>
