<?xml version="1.0" encoding="UTF-8"?>
<!DOCTYPE svg PUBLIC "-//W3C//DTD SVG 1.1//EN" "http://www.w3.org/Graphics/SVG/1.1/DTD/svg11.dtd">
<!-- Creator: CorelDRAW 2018 (64-Bit) -->
<svg xmlns="http://www.w3.org/2000/svg" xml:space="preserve" width="700px" height="926px" version="1.1" style="shape-rendering:geometricPrecision; text-rendering:geometricPrecision; image-rendering:optimizeQuality; fill-rule:evenodd; clip-rule:evenodd"
viewBox="0 0 2212.044 2929.324"
 xmlns:xlink="http://www.w3.org/1999/xlink">
 <defs>
  <style type="text/css">
   <![CDATA[
    .fil7 {fill:#00D4E3}
    .fil4 {fill:#264361}
    .fil1 {fill:#A3AEBA}
    .fil2 {fill:#DCE1E6}
    .fil3 {fill:white}
    .fil0 {fill:white}
    .fil5 {fill:#00F4FF;fill-rule:nonzero}
    .fil8 {fill:#264361;fill-rule:nonzero}
    .fil6 {fill:white;fill-rule:nonzero}
   ]]>
  </style>
 </defs>
 <g id="Layer_x0020_1">
  <metadata id="CorelCorpID_0Corel-Layer"/>
  <g id="_2126004281280">
   <path class="fil0" d="M335.569 1447.911l1541.794 0c16.12,0 29.31,13.19 29.31,29.311l0 1025.909c0,16.122 -13.19,29.312 -29.31,29.312l-1541.794 0c-16.123,0 -29.313,-13.19 -29.313,-29.312l0 -1025.909c0,-16.121 13.19,-29.311 29.313,-29.311zm54.226 77.677l1433.342 0c8.06,0 14.655,6.594 14.655,14.654l0 899.87c0,8.059 -6.595,14.655 -14.655,14.655l-1433.342 0c-8.061,0 -14.655,-6.596 -14.655,-14.655l0 -899.87c0,-8.06 6.594,-14.654 14.655,-14.654z"/>
   <path class="fil1" d="M1106.023 2834.681c606.572,0 1098.298,21.187 1098.298,47.323 0,26.134 -491.726,47.32 -1098.298,47.32 -606.57,0 -1098.29,-21.186 -1098.29,-47.32 0,-26.136 491.72,-47.323 1098.29,-47.323z"/>
   <path class="fil2" d="M1838.096 2571.995l-1464.143 0c-29.062,0 -70.361,1.444 -89.83,17.957l-284.014 208.543c-0.184,39.927 -4.606,83.26 68.022,83.506l2075.789 0c72.477,0 68.205,-43.739 68.02,-83.506l-284.012 -208.543c-19.574,-16.604 -61.251,-17.957 -89.832,-17.957z"/>
   <path class="fil3" d="M1838.118 2532.365c-488.569,0 -977.136,0 -1465.708,0 -36.989,0 -73.453,5.935 -82.042,13.35 -95.281,82.27 -190.521,164.561 -285.815,246.822 -16,13.81 12.25,25.136 63.6,25.136 691.229,0 1382.456,0 2073.686,0 52.254,0 81.978,-11.82 65.635,-25.935 -94.775,-81.849 -189.54,-163.705 -284.342,-245.537 -8.795,-7.588 -47.382,-13.836 -85.014,-13.836z"/>
   <path class="fil2" d="M922.398 2705.564c122.415,0 244.831,0 367.246,0 6.422,32.15 12.842,49.325 19.264,81.464 -135.257,0 -270.515,0 -405.774,0 6.427,-32.137 12.845,-49.309 19.264,-81.464z"/>
   <path class="fil2" d="M373.922 2571.954c488.068,0 976.133,0 1464.201,0l93.2 103.063 -1651.084 0 93.683 -103.063z"/>
   <path class="fil4" d="M1534.776 433.656l-92.682 77.689 0 -77.689 -90.195 0c-24.635,0 -44.79,-20.156 -44.79,-44.792l0 -344.072c0,-24.636 20.154,-44.792 44.79,-44.792l487.859 0c24.636,0 44.792,20.157 44.792,44.792l0 344.072c0,24.634 -20.158,44.792 -44.792,44.792l-304.982 0z"/>
   <g>
    <path class="fil5" d="M1451.998 342.789l0 -5.503c0.635,0.561 1.393,1.054 2.267,1.5 0.882,0.446 1.811,0.825 2.779,1.129 0.977,0.303 1.954,0.54 2.932,0.711 0.986,0.162 1.897,0.247 2.723,0.247 2.874,0 5.018,-0.532 6.441,-1.604 1.414,-1.062 2.125,-2.598 2.125,-4.591 0,-1.081 -0.237,-2.012 -0.711,-2.809 -0.475,-0.797 -1.129,-1.527 -1.955,-2.181 -0.835,-0.665 -1.822,-1.29 -2.96,-1.897 -1.147,-0.598 -2.371,-1.234 -3.69,-1.898 -1.385,-0.702 -2.685,-1.423 -3.89,-2.144 -1.205,-0.721 -2.248,-1.518 -3.14,-2.391 -0.892,-0.873 -1.584,-1.859 -2.097,-2.96 -0.512,-1.101 -0.768,-2.39 -0.768,-3.87 0,-1.822 0.399,-3.397 1.196,-4.744 0.797,-1.347 1.849,-2.447 3.14,-3.32 1.3,-0.873 2.78,-1.518 4.44,-1.945 1.65,-0.427 3.349,-0.645 5.065,-0.645 3.928,0 6.793,0.474 8.596,1.422l0 5.257c-2.353,-1.632 -5.379,-2.448 -9.06,-2.448 -1.025,0 -2.04,0.105 -3.065,0.313 -1.014,0.218 -1.925,0.569 -2.722,1.044 -0.797,0.483 -1.442,1.11 -1.945,1.868 -0.503,0.759 -0.75,1.68 -0.75,2.78 0,1.015 0.19,1.898 0.57,2.638 0.379,0.74 0.939,1.413 1.678,2.029 0.741,0.608 1.652,1.205 2.714,1.774 1.062,0.579 2.296,1.206 3.68,1.889 1.434,0.711 2.78,1.451 4.061,2.229 1.281,0.778 2.401,1.642 3.359,2.58 0.967,0.95 1.726,1.993 2.296,3.14 0.569,1.149 0.844,2.467 0.844,3.947 0,1.964 -0.38,3.633 -1.148,4.991 -0.768,1.366 -1.812,2.475 -3.112,3.32 -1.309,0.854 -2.817,1.47 -4.516,1.85 -1.707,0.379 -3.5,0.569 -5.398,0.569 -0.625,0 -1.404,-0.047 -2.333,-0.151 -0.921,-0.105 -1.869,-0.248 -2.837,-0.447 -0.958,-0.19 -1.869,-0.436 -2.732,-0.72 -0.864,-0.285 -1.556,-0.608 -2.077,-0.959zm54.369 -11.479l-20.094 0c0.076,3.169 0.931,5.616 2.562,7.342 1.632,1.718 3.871,2.581 6.727,2.581 3.206,0 6.147,-1.053 8.841,-3.169l0 4.279c-2.505,1.821 -5.815,2.723 -9.923,2.723 -4.022,0 -7.182,-1.291 -9.478,-3.87 -2.304,-2.59 -3.453,-6.224 -3.453,-10.911 0,-4.43 1.262,-8.035 3.767,-10.825 2.513,-2.788 5.635,-4.183 9.354,-4.183 3.728,0 6.603,1.205 8.642,3.614 2.04,2.401 3.055,5.75 3.055,10.028l0 2.391zm-4.668 -3.861c-0.018,-2.628 -0.654,-4.677 -1.897,-6.147 -1.253,-1.461 -2.988,-2.192 -5.218,-2.192 -2.143,0 -3.975,0.768 -5.474,2.306 -1.498,1.536 -2.428,3.548 -2.779,6.033l15.368 0zm31.944 16.953l-4.564 0 0 -4.45 -0.104 0c-1.983,3.416 -4.905,5.114 -8.757,5.114 -2.836,0 -5.056,-0.749 -6.659,-2.248 -1.604,-1.5 -2.401,-3.491 -2.401,-5.977 0,-5.313 3.131,-8.415 9.393,-9.278l8.528 -1.196c0,-4.838 -1.954,-7.257 -5.863,-7.257 -3.424,0 -6.517,1.167 -9.278,3.5l0 -4.667c2.799,-1.784 6.015,-2.666 9.667,-2.666 6.689,0 10.038,3.539 10.038,10.616l0 18.509zm-4.564 -14.402l-6.859 0.95c-2.116,0.294 -3.709,0.815 -4.782,1.575 -1.072,0.749 -1.612,2.077 -1.612,3.984 0,1.385 0.493,2.524 1.49,3.406 0.986,0.882 2.304,1.318 3.955,1.318 2.259,0 4.128,-0.797 5.598,-2.372 1.48,-1.584 2.21,-3.595 2.21,-6.024l0 -2.837zm27.996 -9.449c-0.797,-0.606 -1.945,-0.91 -3.443,-0.91 -1.955,0 -3.577,0.91 -4.887,2.752 -1.299,1.83 -1.954,4.335 -1.954,7.503l0 14.506 -4.563 0 0 -28.461 4.563 0 0 5.863 0.114 0c0.645,-2.002 1.631,-3.557 2.97,-4.687 1.337,-1.119 2.827,-1.679 4.477,-1.679 1.186,0 2.087,0.133 2.723,0.389l0 4.724zm23.594 22.541c-2.182,1.32 -4.782,1.974 -7.779,1.974 -4.061,0 -7.334,-1.318 -9.828,-3.956 -2.486,-2.638 -3.738,-6.062 -3.738,-10.274 0,-4.687 1.347,-8.453 4.032,-11.299 2.684,-2.837 6.27,-4.26 10.757,-4.26 2.505,0 4.707,0.455 6.613,1.385l0 4.667c-2.115,-1.479 -4.373,-2.219 -6.783,-2.219 -2.903,0 -5.294,1.043 -7.153,3.13 -1.859,2.078 -2.799,4.82 -2.799,8.207 0,3.339 0.882,5.967 2.629,7.893 1.754,1.926 4.098,2.893 7.048,2.893 2.486,0 4.819,-0.825 7.001,-2.476l0 4.335zm30.52 1.31l-4.564 0 0 -16.403c0,-5.929 -2.201,-8.889 -6.613,-8.889 -2.219,0 -4.098,0.853 -5.616,2.571 -1.517,1.716 -2.277,3.918 -2.277,6.603l0 16.118 -4.562 0 0 -42.132 4.562 0 0 18.395 0.114 0c2.182,-3.595 5.294,-5.388 9.335,-5.388 6.413,0 9.621,3.862 9.621,11.583l0 17.542zm34.997 -14.288c0,4.725 -0.997,8.397 -2.999,11.024 -2.001,2.619 -4.686,3.928 -8.035,3.928 -1.556,0 -2.836,-0.219 -3.833,-0.664l0 -4.611c0.997,0.721 2.297,1.082 3.891,1.082 4.202,0 6.308,-3.567 6.308,-10.701l0 -25.625 4.668 0 0 25.567zm21.402 14.952c-4.202,0 -7.561,-1.328 -10.074,-3.984 -2.505,-2.657 -3.767,-6.186 -3.767,-10.579 0,-4.781 1.309,-8.509 3.918,-11.204 2.619,-2.685 6.148,-4.022 10.597,-4.022 4.24,0 7.552,1.3 9.933,3.918 2.381,2.609 3.567,6.233 3.567,10.863 0,4.544 -1.281,8.178 -3.843,10.91 -2.57,2.732 -6.014,4.098 -10.331,4.098zm0.332 -25.956c-2.921,0 -5.237,0.996 -6.944,2.989 -1.708,1.991 -2.561,4.734 -2.561,8.243 0,3.369 0.863,6.025 2.589,7.969 1.727,1.945 4.032,2.922 6.916,2.922 2.951,0 5.218,-0.958 6.803,-2.865 1.584,-1.906 2.372,-4.62 2.372,-8.14 0,-3.557 -0.788,-6.299 -2.372,-8.224 -1.585,-1.936 -3.852,-2.894 -6.803,-2.894zm25.805 21.175l-0.114 0 0 4.117 -4.563 0 0 -42.132 4.563 0 0 18.67 0.114 0c2.239,-3.775 5.522,-5.663 9.838,-5.663 3.643,0 6.508,1.271 8.567,3.823 2.068,2.543 3.102,5.959 3.102,10.237 0,4.762 -1.158,8.576 -3.472,11.441 -2.315,2.856 -5.484,4.288 -9.506,4.288 -3.767,0 -6.603,-1.594 -8.529,-4.781zm-0.114 -11.48l0 3.975c0,2.353 0.759,4.355 2.296,5.996 1.527,1.641 3.462,2.457 5.815,2.457 2.761,0 4.924,-1.053 6.49,-3.169 1.565,-2.115 2.353,-5.046 2.353,-8.813 0,-3.168 -0.731,-5.645 -2.202,-7.447 -1.461,-1.793 -3.444,-2.694 -5.939,-2.694 -2.656,0 -4.781,0.92 -6.394,2.761 -1.612,1.849 -2.419,4.155 -2.419,6.934zm27.18 14.572l0 -4.895c2.476,1.831 5.218,2.751 8.196,2.751 4.004,0 6.005,-1.337 6.005,-4.003 0,-0.759 -0.17,-1.404 -0.511,-1.926 -0.352,-0.531 -0.807,-0.996 -1.395,-1.404 -0.579,-0.408 -1.271,-0.778 -2.059,-1.1 -0.787,-0.323 -1.632,-0.664 -2.542,-1.016 -1.263,-0.503 -2.362,-1.006 -3.321,-1.517 -0.948,-0.503 -1.745,-1.082 -2.39,-1.718 -0.636,-0.644 -1.12,-1.366 -1.443,-2.182 -0.322,-0.815 -0.484,-1.774 -0.484,-2.865 0,-1.337 0.304,-2.514 0.911,-3.548 0.617,-1.024 1.433,-1.887 2.448,-2.58 1.025,-0.693 2.182,-1.224 3.492,-1.575 1.299,-0.351 2.656,-0.522 4.041,-0.522 2.466,0 4.667,0.427 6.612,1.271l0 4.62c-2.087,-1.375 -4.497,-2.058 -7.219,-2.058 -0.855,0 -1.623,0.095 -2.316,0.294 -0.683,0.19 -1.271,0.464 -1.764,0.816 -0.484,0.351 -0.863,0.778 -1.138,1.262 -0.266,0.493 -0.399,1.033 -0.399,1.631 0,0.74 0.133,1.357 0.399,1.859 0.275,0.503 0.664,0.95 1.186,1.339 0.511,0.388 1.147,0.739 1.887,1.052 0.74,0.314 1.584,0.655 2.534,1.025 1.252,0.484 2.39,0.977 3.386,1.49 0.996,0.511 1.85,1.081 2.561,1.726 0.703,0.636 1.244,1.376 1.623,2.211 0.38,0.834 0.569,1.821 0.569,2.969 0,1.413 -0.313,2.638 -0.93,3.671 -0.625,1.035 -1.451,1.898 -2.485,2.581 -1.044,0.693 -2.239,1.195 -3.586,1.537 -1.357,0.332 -2.771,0.493 -4.26,0.493 -2.922,0 -5.464,-0.56 -7.608,-1.689z"/>
    <path class="fil5" d="M1642.434 179.128c9.866,0 18.8,4 25.266,10.466 6.466,6.466 10.466,15.401 10.466,25.266 0,9.865 -4.001,18.801 -10.466,25.266 -6.466,6.466 -15.401,10.466 -25.266,10.466 -9.865,0 -18.8,-4 -25.265,-10.466 -6.466,-6.465 -10.467,-15.401 -10.467,-25.266 0,-9.865 4,-18.8 10.466,-25.266 6.465,-6.465 15.401,-10.466 25.266,-10.466zm23.03 12.702c-5.893,-5.894 -14.036,-9.54 -23.03,-9.54 -8.994,0 -17.137,3.646 -23.031,9.54 -5.892,5.892 -9.538,14.037 -9.538,23.03 0,8.994 3.645,17.137 9.539,23.031 5.892,5.892 14.036,9.538 23.03,9.538 8.993,0 17.138,-3.646 23.03,-9.538 5.894,-5.894 9.539,-14.037 9.539,-23.031 0,-8.993 -3.645,-17.137 -9.539,-23.03z"/>
    <path class="fil5" d="M1646.109 194.035c-0.859,-0.15 -1.434,-0.969 -1.285,-1.828 0.15,-0.858 0.969,-1.434 1.828,-1.284 3.531,0.622 6.841,2.015 9.719,4.03 2.873,2.012 5.312,4.647 7.108,7.759 0.433,0.753 0.173,1.716 -0.58,2.149 -0.753,0.433 -1.715,0.173 -2.148,-0.58 -1.561,-2.704 -3.683,-4.996 -6.184,-6.746 -2.493,-1.747 -5.375,-2.957 -8.458,-3.5z"/>
    <path class="fil5" d="M1665.464 240.125c-0.617,-0.616 -0.617,-1.619 0,-2.235 0.617,-0.617 1.619,-0.617 2.236,0l6.92 6.92c0.617,0.617 0.617,1.619 0,2.236 -0.617,0.616 -1.619,0.616 -2.236,0l-6.92 -6.921z"/>
    <path class="fil5" d="M1672.383 244.813c1.206,-1.209 2.794,-1.812 4.38,-1.812 1.585,0 3.173,0.603 4.379,1.809l8.718 8.718c1.206,1.206 1.809,2.794 1.809,4.379 0,1.586 -0.603,3.174 -1.809,4.38 -1.211,1.204 -2.798,1.809 -4.379,1.809 -1.585,0 -3.173,-0.603 -4.378,-1.809l-8.72 -8.719c-1.204,-1.205 -1.809,-2.793 -1.809,-4.379 0,-1.581 0.605,-3.167 1.809,-4.376zm4.38 1.351c-0.777,0 -1.556,0.294 -2.144,0.882 -0.588,0.583 -0.882,1.362 -0.882,2.143 0,0.777 0.295,1.556 0.882,2.143l8.719 8.719c0.588,0.589 1.366,0.883 2.143,0.883 0.781,0 1.561,-0.293 2.144,-0.876 0.588,-0.595 0.882,-1.374 0.882,-2.151 0,-0.777 -0.294,-1.555 -0.882,-2.143l-8.719 -8.718c-0.588,-0.588 -1.366,-0.882 -2.143,-0.882z"/>
    <path class="fil5" d="M1499.994 144.604l0.001 -16.498c-0.006,-4.239 1.793,-8.093 4.689,-10.884 2.879,-2.776 6.846,-4.5 11.205,-4.5l132.565 0c4.358,0 8.326,1.724 11.204,4.5 2.895,2.79 4.694,6.645 4.694,10.884l-0.007 16.901c0,0.694 -0.449,1.283 -1.072,1.493 -11.42,4.264 -21.851,8.211 -32.067,12.075 -9.802,3.709 -19.426,7.35 -31.038,11.681 -0.61,0.228 -1.672,0.649 -2.69,1.051 -4.525,1.789 -8.508,3.365 -15.309,3.365 -6.789,0 -10.768,-1.573 -15.281,-3.356 -1.021,-0.404 -2.055,-0.813 -2.718,-1.06 -11.186,-4.173 -20.873,-7.935 -30.732,-11.763 -10.154,-3.944 -20.497,-7.961 -32.418,-12.414 -0.634,-0.235 -1.025,-0.836 -1.026,-1.475zm3.154 -16.498l-0.004 15.406c11.733,4.391 21.669,8.25 31.431,12.041 9.967,3.87 19.762,7.675 30.694,11.752 1.245,0.464 2.032,0.775 2.78,1.071 4.214,1.664 7.931,3.133 14.12,3.133 6.202,0 9.922,-1.471 14.147,-3.142 0.737,-0.291 1.474,-0.584 2.753,-1.062 10.745,-4.008 20.779,-7.804 31.026,-11.681 9.491,-3.59 19.159,-7.249 31.1,-11.709l0.001 -15.809c-0.006,-3.351 -1.43,-6.402 -3.723,-8.611 -2.31,-2.227 -5.503,-3.61 -9.019,-3.61l-132.565 0c-3.516,0 -6.71,1.383 -9.02,3.61 -2.293,2.21 -3.717,5.26 -3.721,8.611z"/>
    <path class="fil5" d="M1513.891 136.35c0,0.869 -0.706,1.575 -1.575,1.575 -0.87,0 -1.575,-0.706 -1.575,-1.575l0 -3.51c-0.006,-2.841 1.254,-5.419 3.28,-7.278 1.992,-1.828 4.732,-2.965 7.735,-2.965l13.818 0c0.873,0 1.581,0.708 1.581,1.582 0,0.873 -0.708,1.581 -1.581,1.581l-13.818 0c-2.189,0 -4.171,0.814 -5.598,2.123 -1.393,1.279 -2.26,3.036 -2.26,4.957l-0.007 3.51z"/>
    <path class="fil5" d="M1600.081 230.297c0.873,0 1.582,0.708 1.582,1.581 0,0.874 -0.709,1.582 -1.582,1.582l-81.799 0c-4.23,0 -8.078,-1.731 -10.865,-4.518 -2.787,-2.787 -4.518,-6.634 -4.518,-10.865l0 -59.145c0,-0.873 0.708,-1.581 1.581,-1.581 0.873,0 1.581,0.708 1.581,1.581l0 59.145c0,3.358 1.376,6.414 3.591,8.629 2.215,2.215 5.272,3.591 8.63,3.591l81.799 0z"/>
    <path class="fil5" d="M1658.28 159.335c0,-0.873 0.708,-1.581 1.581,-1.581 0.874,0 1.582,0.708 1.582,1.581l0 14.385c0,0.873 -0.708,1.581 -1.582,1.581 -0.873,0 -1.581,-0.708 -1.581,-1.581l0 -14.385z"/>
    <path class="fil5" d="M1597.683 169.529c0,-0.873 0.708,-1.581 1.581,-1.581 0.873,0 1.581,0.708 1.581,1.581l0 21.828c0,0.873 -0.708,1.581 -1.581,1.581l-34.19 0c-0.873,0 -1.581,-0.708 -1.581,-1.581l0 -21.828c0,-0.873 0.708,-1.581 1.581,-1.581 0.873,0 1.581,0.708 1.581,1.581l0 20.246 31.028 0 0 -20.246z"/>
    <path class="fil5" d="M1549.774 105.225c0,0.873 -0.708,1.581 -1.581,1.581 -0.873,0 -1.581,-0.708 -1.581,-1.581 0,-5.009 2.049,-9.562 5.348,-12.862 3.304,-3.306 7.859,-5.356 12.864,-5.356l34.685 0c5.005,0 9.56,2.052 12.863,5.356 3.3,3.301 5.349,7.856 5.349,12.862 0,0.873 -0.708,1.581 -1.582,1.581 -0.873,0 -1.581,-0.708 -1.581,-1.581 0,-4.142 -1.694,-7.91 -4.422,-10.638 -2.724,-2.726 -6.487,-4.418 -10.627,-4.418l-34.685 0c-4.142,0 -7.904,1.692 -10.629,4.417 -2.726,2.728 -4.421,6.494 -4.421,10.639z"/>
   </g>
   <path class="fil4" d="M526.235 1173.049l84.256 70.627 0 -70.627 81.994 0c22.396,0 40.72,-18.323 40.72,-40.719l0 -312.794c0,-22.397 -18.323,-40.72 -40.72,-40.72l-453.635 0c-22.397,0 -40.72,18.325 -40.72,40.72l0 312.794c0,22.394 18.325,40.719 40.72,40.719l287.385 0z"/>
   <g>
    <path class="fil5" d="M329.078 1087.557l-4.596 0 -3.752 -9.934 -15.027 0 -3.534 9.934 -4.613 0 13.586 -35.426 4.3 0 13.636 35.426zm-9.714 -13.662l-5.558 -15.094c-0.177,-0.498 -0.362,-1.29 -0.54,-2.369l-0.101 0c-0.159,1.003 -0.354,1.787 -0.565,2.369l-5.514 15.094 12.278 0zm27.574 -7.538c-0.708,-0.54 -1.728,-0.81 -3.06,-0.81 -1.738,0 -3.18,0.81 -4.343,2.446 -1.156,1.627 -1.738,3.853 -1.738,6.67l0 12.894 -4.056 0 0 -25.299 4.056 0 0 5.212 0.102 0c0.572,-1.779 1.45,-3.163 2.639,-4.166 1.189,-0.996 2.513,-1.493 3.981,-1.493 1.053,0 1.854,0.118 2.419,0.346l0 4.2zm24.059 9.562l-17.86 0c0.068,2.817 0.826,4.993 2.276,6.527 1.451,1.527 3.441,2.294 5.979,2.294 2.851,0 5.465,-0.936 7.86,-2.816l0 3.803c-2.227,1.619 -5.17,2.42 -8.821,2.42 -3.575,0 -6.384,-1.147 -8.424,-3.441 -2.049,-2.302 -3.07,-5.532 -3.07,-9.697 0,-3.938 1.122,-7.143 3.348,-9.622 2.235,-2.48 5.009,-3.719 8.315,-3.719 3.314,0 5.869,1.071 7.682,3.213 1.813,2.134 2.715,5.111 2.715,8.913l0 2.125zm-4.148 -3.432c-0.017,-2.336 -0.582,-4.157 -1.687,-5.464 -1.114,-1.299 -2.656,-1.948 -4.638,-1.948 -1.906,0 -3.534,0.683 -4.866,2.049 -1.332,1.366 -2.158,3.154 -2.47,5.363l13.661 0zm44.28 -10.229l-11.637 29.347c-2.075,5.245 -4.993,7.858 -8.745,7.858 -1.054,0 -1.931,-0.109 -2.639,-0.32l0 -3.634c0.868,0.294 1.669,0.447 2.394,0.447 2.041,0 3.576,-1.215 4.596,-3.652l2.024 -4.798 -9.883 -25.248 4.495 0 6.847 19.472c0.085,0.244 0.253,0.885 0.514,1.922l0.152 0c0.085,-0.396 0.245,-1.02 0.489,-1.88l7.194 -19.514 4.199 0zm14.673 25.889c-3.737,0 -6.722,-1.181 -8.956,-3.542 -2.226,-2.361 -3.348,-5.498 -3.348,-9.403 0,-4.25 1.164,-7.564 3.483,-9.959 2.327,-2.386 5.464,-3.575 9.419,-3.575 3.77,0 6.713,1.155 8.829,3.483 2.116,2.319 3.171,5.54 3.171,9.655 0,4.039 -1.139,7.269 -3.416,9.698 -2.285,2.429 -5.346,3.643 -9.182,3.643zm0.294 -23.072c-2.596,0 -4.655,0.885 -6.172,2.656 -1.518,1.771 -2.277,4.208 -2.277,7.328 0,2.994 0.767,5.355 2.302,7.083 1.535,1.729 3.584,2.598 6.147,2.598 2.623,0 4.638,-0.852 6.047,-2.547 1.408,-1.695 2.108,-4.106 2.108,-7.235 0,-3.162 -0.7,-5.599 -2.108,-7.311 -1.409,-1.721 -3.424,-2.572 -6.047,-2.572zm39.238 22.482l-4.048 0 0 -4.006 -0.101 0c-1.678,3.07 -4.284,4.596 -7.808,4.596 -6.03,0 -9.041,-3.584 -9.041,-10.769l0 -15.12 4.023 0 0 14.479c0,5.338 2.049,8.003 6.13,8.003 1.974,0 3.601,-0.725 4.883,-2.184 1.274,-1.459 1.914,-3.365 1.914,-5.726l0 -14.572 4.048 0 0 25.299zm43.049 0l-4.056 0 0 -14.58c0,-5.271 -1.957,-7.902 -5.878,-7.902 -1.973,0 -3.642,0.759 -4.992,2.285 -1.35,1.526 -2.024,3.483 -2.024,5.869l0 14.328 -4.056 0 0 -37.45 4.056 0 0 16.351 0.102 0c1.939,-3.197 4.705,-4.79 8.298,-4.79 5.7,0 8.55,3.432 8.55,10.297l0 15.592zm9.436 -31.724c-0.725,0 -1.341,-0.245 -1.855,-0.742 -0.506,-0.49 -0.759,-1.114 -0.759,-1.873 0,-0.758 0.253,-1.391 0.759,-1.889 0.514,-0.505 1.13,-0.759 1.855,-0.759 0.742,0 1.375,0.254 1.889,0.759 0.523,0.498 0.784,1.131 0.784,1.889 0,0.725 -0.261,1.341 -0.784,1.848 -0.514,0.513 -1.147,0.767 -1.889,0.767zm1.982 24.657c0,2.319 0.894,3.483 2.69,3.483 0.725,0 1.374,-0.094 1.948,-0.27l0 3.66c-0.312,0.075 -0.725,0.159 -1.248,0.228 -0.514,0.075 -1.063,0.117 -1.636,0.117 -0.81,0 -1.569,-0.134 -2.277,-0.396 -0.709,-0.27 -1.324,-0.666 -1.838,-1.214 -0.523,-0.54 -0.936,-1.223 -1.24,-2.041 -0.304,-0.809 -0.455,-1.762 -0.455,-2.851l0 -18.948 4.056 0 0 18.232zm22.237 -14.133c-0.708,-0.54 -1.728,-0.81 -3.06,-0.81 -1.738,0 -3.18,0.81 -4.343,2.446 -1.156,1.627 -1.738,3.853 -1.738,6.67l0 12.894 -4.056 0 0 -25.299 4.056 0 0 5.212 0.102 0c0.572,-1.779 1.45,-3.163 2.639,-4.166 1.189,-0.996 2.513,-1.493 3.981,-1.493 1.053,0 1.854,0.118 2.419,0.346l0 4.2zm6.199 -10.524c-0.726,0 -1.341,-0.245 -1.855,-0.742 -0.507,-0.49 -0.759,-1.114 -0.759,-1.873 0,-0.758 0.252,-1.391 0.759,-1.889 0.514,-0.505 1.129,-0.759 1.855,-0.759 0.742,0 1.375,0.254 1.888,0.759 0.524,0.498 0.785,1.131 0.785,1.889 0,0.725 -0.261,1.341 -0.785,1.848 -0.513,0.513 -1.146,0.767 -1.888,0.767zm1.981 24.657c0,2.319 0.894,3.483 2.691,3.483 0.725,0 1.374,-0.094 1.947,-0.27l0 3.66c-0.312,0.075 -0.725,0.159 -1.247,0.228 -0.515,0.075 -1.063,0.117 -1.636,0.117 -0.811,0 -1.569,-0.134 -2.277,-0.396 -0.709,-0.27 -1.324,-0.666 -1.839,-1.214 -0.522,-0.54 -0.935,-1.223 -1.239,-2.041 -0.304,-0.809 -0.456,-1.762 -0.456,-2.851l0 -18.948 4.056 0 0 18.232zm30.047 7.067l-4.056 0 0 -14.429c0,-5.371 -1.957,-8.053 -5.878,-8.053 -2.024,0 -3.702,0.759 -5.026,2.285 -1.332,1.526 -1.99,3.449 -1.99,5.768l0 14.429 -4.056 0 0 -25.299 4.056 0 0 4.2 0.101 0c1.906,-3.197 4.671,-4.79 8.298,-4.79 2.766,0 4.882,0.894 6.349,2.682 1.468,1.779 2.202,4.368 2.202,7.741l0 15.466zm29.227 -2.025c0,9.285 -4.444,13.931 -13.34,13.931 -3.129,0 -5.861,-0.589 -8.206,-1.779l0 -4.047c2.851,1.577 5.566,2.369 8.155,2.369 6.223,0 9.335,-3.314 9.335,-9.934l0 -2.765 -0.092 0c-1.932,3.229 -4.833,4.84 -8.704,4.84 -3.145,0 -5.675,-1.122 -7.589,-3.373 -1.922,-2.244 -2.884,-5.263 -2.884,-9.048 0,-4.301 1.038,-7.716 3.103,-10.255 2.066,-2.538 4.9,-3.803 8.484,-3.803 3.415,0 5.937,1.366 7.59,4.098l0.092 0 0 -3.508 4.056 0 0 23.274zm-4.056 -9.41l0 -3.736c0,-2.007 -0.674,-3.727 -2.032,-5.161 -1.358,-1.433 -3.052,-2.15 -5.077,-2.15 -2.504,0 -4.469,0.911 -5.885,2.732 -1.418,1.822 -2.126,4.368 -2.126,7.64 0,2.817 0.683,5.068 2.041,6.763 1.358,1.687 3.162,2.53 5.397,2.53 2.277,0 4.123,-0.809 5.548,-2.42 1.426,-1.619 2.134,-3.685 2.134,-6.198zm16.427 1.602c-0.143,-0.43 -0.278,-0.987 -0.388,-1.67 -0.118,-0.683 -0.177,-1.357 -0.177,-2.032 0,-1.054 0.21,-2.007 0.633,-2.859 0.421,-0.843 0.944,-1.644 1.568,-2.386 0.624,-0.734 1.307,-1.45 2.049,-2.134 0.742,-0.683 1.425,-1.375 2.05,-2.074 0.624,-0.7 1.146,-1.434 1.567,-2.201 0.423,-0.768 0.633,-1.611 0.633,-2.53 0,-0.792 -0.151,-1.493 -0.455,-2.099 -0.304,-0.608 -0.725,-1.123 -1.248,-1.535 -0.531,-0.413 -1.138,-0.717 -1.83,-0.928 -0.691,-0.202 -1.426,-0.304 -2.201,-0.304 -2.783,0 -5.195,1.097 -7.236,3.281l0 -4.343c2.522,-1.586 5.128,-2.378 7.835,-2.378 1.248,0 2.428,0.168 3.524,0.497 1.105,0.329 2.075,0.818 2.91,1.468 0.827,0.658 1.484,1.467 1.965,2.436 0.472,0.97 0.716,2.101 0.716,3.382 0,1.223 -0.218,2.31 -0.649,3.263 -0.422,0.954 -0.962,1.831 -1.61,2.632 -0.658,0.801 -1.359,1.543 -2.117,2.235 -0.759,0.691 -1.459,1.382 -2.108,2.065 -0.658,0.683 -1.198,1.392 -1.619,2.134 -0.43,0.742 -0.65,1.56 -0.65,2.445 0,0.759 0.093,1.451 0.279,2.066 0.176,0.616 0.362,1.139 0.539,1.569l-3.98 0zm2.226 10.28c-0.725,0 -1.366,-0.27 -1.923,-0.793 -0.547,-0.531 -0.817,-1.172 -0.817,-1.931 0,-0.768 0.27,-1.417 0.817,-1.923 0.54,-0.548 1.181,-0.818 1.923,-0.818 0.742,0 1.383,0.27 1.931,0.818 0.54,0.506 0.81,1.155 0.81,1.923 0,0.759 -0.27,1.4 -0.81,1.931 -0.565,0.523 -1.206,0.793 -1.931,0.793z"/>
    <path class="fil5" d="M452.616 850.82c18.664,0 35.563,7.566 47.793,19.796 12.231,12.23 19.796,29.128 19.796,47.791 0,18.663 -7.566,35.562 -19.796,47.793 -12.23,12.23 -29.129,19.796 -47.793,19.796 -18.663,0 -35.561,-7.566 -47.791,-19.796 -12.232,-12.232 -19.797,-29.13 -19.797,-47.793 0,-18.663 7.565,-35.561 19.796,-47.791 12.23,-12.23 29.129,-19.796 47.792,-19.796zm45.557 22.031c-11.658,-11.657 -27.766,-18.869 -45.557,-18.869 -17.79,0 -33.898,7.212 -45.556,18.869 -11.658,11.658 -18.87,27.765 -18.87,45.556 0,17.791 7.212,33.899 18.87,45.557 11.658,11.658 27.766,18.87 45.556,18.87 17.791,0 33.899,-7.212 45.557,-18.87 11.658,-11.658 18.87,-27.766 18.87,-45.557 0,-17.791 -7.212,-33.898 -18.87,-45.556z"/>
    <path class="fil5" d="M485.418 879.321c-0.668,-0.56 -0.757,-1.556 -0.198,-2.223 0.56,-0.668 1.556,-0.757 2.223,-0.198 4.872,4.089 8.955,8.981 12.095,14.421 3.14,5.44 5.336,11.418 6.439,17.68 0.15,0.859 -0.425,1.678 -1.284,1.828 -0.859,0.15 -1.678,-0.426 -1.828,-1.284 -1.042,-5.917 -3.108,-11.548 -6.056,-16.656 -2.948,-5.106 -6.792,-9.708 -11.391,-13.568z"/>
    <path class="fil5" d="M498.172 966.198c-0.617,-0.617 -0.617,-1.619 0,-2.236 0.616,-0.616 1.618,-0.616 2.235,0l13.376 13.376c0.617,0.616 0.617,1.619 0,2.235 -0.616,0.617 -1.619,0.617 -2.235,0l-13.376 -13.375z"/>
    <path class="fil5" d="M511.546 977.339l0.009 -0.002c2.042,-2.041 4.729,-3.063 7.413,-3.063 2.688,0 5.379,1.022 7.421,3.064l16.853 16.852c2.042,2.042 3.064,4.733 3.064,7.421 0,2.688 -1.022,5.378 -3.063,7.42l-0.009 0.003c-2.042,2.042 -4.73,3.063 -7.414,3.063 -2.688,0 -5.378,-1.021 -7.42,-3.063l-16.853 -16.853c-2.042,-2.042 -3.064,-4.733 -3.064,-7.421 0,-2.688 1.021,-5.379 3.063,-7.421zm2.236 2.233c-1.424,1.427 -2.137,3.307 -2.137,5.188 0,1.881 0.714,3.762 2.137,5.186l16.853 16.851c1.424,1.424 3.305,2.138 5.185,2.138 1.875,0 3.748,-0.706 5.17,-2.116l0.016 -0.023c1.424,-1.423 2.137,-3.304 2.137,-5.185 0,-1.88 -0.713,-3.762 -2.137,-5.185l-16.852 -16.852c-1.425,-1.424 -3.305,-2.138 -5.186,-2.138 -1.881,0 -3.764,0.713 -5.186,2.136z"/>
    <path class="fil5" d="M439.527 921.749c-0.276,-0.825 0.17,-1.718 0.994,-1.994 0.825,-0.276 1.719,0.169 1.995,0.994 2.479,7.357 0.522,11.947 -3.617,14.912 -3.849,2.759 -9.576,3.92 -15.217,4.627 -1.107,0.138 -2.3,0.26 -3.37,0.37 -5.422,0.556 -7.197,0.739 -12.386,6.86 -0.562,0.664 -1.558,0.747 -2.223,0.185 -0.664,-0.562 -0.746,-1.559 -0.184,-2.223 6.009,-7.09 8.096,-7.306 14.472,-7.96 0.905,-0.092 1.917,-0.197 3.307,-0.37 5.214,-0.653 10.458,-1.69 13.761,-4.058 3.013,-2.158 4.395,-5.626 2.468,-11.343z"/>
    <path class="fil5" d="M461.914 920.749c0.276,-0.825 1.17,-1.27 1.994,-0.994 0.825,0.276 1.271,1.169 0.995,1.994 -1.926,5.717 -0.545,9.185 2.468,11.343 3.303,2.368 8.547,3.405 13.761,4.058 1.39,0.173 2.402,0.278 3.307,0.37 6.377,0.654 8.464,0.869 14.472,7.96 0.562,0.664 0.48,1.661 -0.185,2.223 -0.664,0.562 -1.661,0.479 -2.223,-0.185 -5.187,-6.121 -6.962,-6.304 -12.385,-6.86 -1.07,-0.11 -2.264,-0.232 -3.37,-0.37 -5.64,-0.707 -11.367,-1.868 -15.216,-4.627 -4.139,-2.965 -6.097,-7.555 -3.618,-14.912z"/>
    <path class="fil5" d="M436.265 897.227l0 11.477c0,1.43 0.408,2.945 1.074,4.45 0.814,1.838 2.007,3.651 3.328,5.292 1.664,2.068 3.599,3.85 5.713,5.066 1.833,1.055 3.809,1.687 5.861,1.71 2.051,-0.023 4.026,-0.655 5.859,-1.71 2.114,-1.215 4.051,-2.999 5.714,-5.066 1.322,-1.642 2.515,-3.455 3.329,-5.292 0.666,-1.504 1.074,-3.019 1.074,-4.45l0.004 -11.771c-0.039,-1.969 -0.395,-4.13 -0.939,-6.063 -0.543,-1.933 -1.255,-3.584 -1.997,-4.504 -0.669,-0.831 -1.366,-1.447 -2.11,-1.882 -0.746,-0.43 -1.557,-0.704 -2.456,-0.852 -0.691,-0.113 -1.427,-0.168 -2.196,-0.168 -4.792,0 -10.201,2.222 -14.528,5.084 -4.215,2.788 -7.328,6.069 -7.705,8.346 -0.016,0.099 -0.025,0.212 -0.025,0.333zm-3.162 11.477l0 -11.477c0,-0.256 0.026,-0.539 0.075,-0.839 0.517,-3.13 4.181,-7.232 9.076,-10.47 4.781,-3.162 10.821,-5.617 16.269,-5.617 0.901,0 1.804,0.071 2.702,0.219 1.291,0.213 2.461,0.608 3.541,1.239 1.079,0.636 2.061,1.494 2.977,2.632 1.01,1.252 1.927,3.309 2.578,5.627 0.608,2.162 1.008,4.606 1.049,6.864l0.009 11.822c0,1.897 -0.511,3.837 -1.346,5.722 -0.931,2.102 -2.277,4.152 -3.761,5.996 -1.889,2.347 -4.123,4.394 -6.604,5.819 -2.283,1.313 -4.774,2.101 -7.398,2.131l-0.042 0c-2.631,-0.026 -5.128,-0.815 -7.417,-2.131 -2.48,-1.427 -4.713,-3.472 -6.602,-5.819 -1.482,-1.843 -2.829,-3.893 -3.76,-5.995 -0.835,-1.887 -1.346,-3.827 -1.346,-5.723z"/>
    <path class="fil5" d="M469.784 908.801c-0.873,0 -1.581,-0.709 -1.581,-1.582 0,-0.873 0.708,-1.581 1.581,-1.581 0.655,0 1.252,-0.274 1.683,-0.715l0.064 -0.061c0.401,-0.446 0.649,-1.047 0.649,-1.711 0,-0.694 -0.273,-1.322 -0.713,-1.772 -0.431,-0.441 -1.027,-0.715 -1.683,-0.715 -0.873,0 -1.581,-0.708 -1.581,-1.581 0,-0.873 0.708,-1.582 1.581,-1.582 1.542,0 2.937,0.639 3.944,1.668 0.997,1.02 1.615,2.43 1.615,3.982 0,1.5 -0.582,2.867 -1.523,3.879l-0.092 0.103c-1.007,1.029 -2.404,1.668 -3.944,1.668z"/>
    <path class="fil5" d="M434.671 905.638c0.873,0 1.581,0.708 1.581,1.581 0,0.873 -0.708,1.582 -1.581,1.582 -1.542,0 -2.937,-0.639 -3.944,-1.668l-0.091 -0.101c-0.944,-1.013 -1.525,-2.381 -1.525,-3.881 0,-1.553 0.619,-2.962 1.616,-3.982 1.007,-1.029 2.402,-1.668 3.944,-1.668 0.873,0 1.581,0.709 1.581,1.582 0,0.873 -0.708,1.581 -1.581,1.581 -0.656,0 -1.252,0.274 -1.683,0.715 -0.44,0.45 -0.714,1.078 -0.714,1.772 0,0.663 0.248,1.264 0.65,1.71l0.064 0.062c0.431,0.441 1.027,0.715 1.683,0.715z"/>
    <path class="fil5" d="M474.063 901.377c-0.511,0.701 -1.496,0.857 -2.198,0.346 -0.702,-0.511 -0.857,-1.496 -0.346,-2.198 0.826,-1.135 1.444,-2.493 1.836,-3.963 0.685,-2.572 0.674,-5.457 -0.093,-8.118 -0.754,-2.621 -2.244,-5.024 -4.523,-6.684 -1.115,-0.813 -2.434,-1.455 -3.963,-1.862 -0.555,-0.146 -0.963,-0.571 -1.113,-1.085 -0.786,-2.147 -1.697,-3.479 -3.018,-4.229 -1.426,-0.811 -3.465,-1.073 -6.419,-1.046 -2.597,0.026 -5.429,0.467 -8.172,1.302 -2.565,0.781 -5.05,1.912 -7.183,3.372 -3.471,2.375 -5.968,6.265 -7.091,10.506 -1.098,4.142 -0.878,8.594 1.032,12.261 0.403,0.774 0.101,1.728 -0.673,2.131 -0.774,0.402 -1.728,0.1 -2.131,-0.673 -2.287,-4.393 -2.568,-9.661 -1.28,-14.522 1.309,-4.941 4.254,-9.497 8.365,-12.309 2.392,-1.638 5.175,-2.906 8.047,-3.78 3.029,-0.922 6.17,-1.41 9.061,-1.437 3.511,-0.035 6.028,0.333 8,1.453 1.875,1.066 3.151,2.721 4.167,5.237 1.586,0.51 2.993,1.24 4.223,2.137 2.884,2.101 4.759,5.105 5.698,8.364 0.927,3.215 0.942,6.691 0.117,9.785 -0.488,1.829 -1.275,3.545 -2.343,5.012z"/>
    <path class="fil5" d="M471.451 937.594c-2.557,2.403 -5.571,4.336 -8.896,5.653 -3.201,1.273 -6.692,1.971 -10.34,1.971 -3.642,0 -7.137,-0.701 -10.35,-1.976 -3.328,-1.318 -6.345,-3.255 -8.901,-5.662l2.162 -2.297c2.275,2.142 4.952,3.863 7.901,5.032 2.831,1.123 5.932,1.74 9.188,1.74 3.241,0 6.339,-0.619 9.178,-1.742 2.946,-1.161 5.621,-2.878 7.896,-5.016l2.162 2.297z"/>
   </g>
   <path class="fil1" d="M1698.925 1241.154l-59.307 49.714 0 -49.714 -57.717 0c-15.763,0 -28.661,-12.898 -28.661,-28.662l0 -286.681c0,-15.765 12.897,-28.664 28.661,-28.664l476.509 0c15.765,0 28.662,12.9 28.662,28.664l0 286.681c0,15.763 -12.898,28.662 -28.662,28.662l-359.485 0z"/>
   <g>
    <path class="fil6" d="M1658.65 1168.718l-3.609 0 0 -20.793c0,-0.827 0.023,-1.756 0.075,-2.804 0.051,-1.041 0.125,-2.162 0.228,-3.358l-0.088 0c-0.082,0.347 -0.215,0.73 -0.384,1.151 -0.177,0.428 -0.361,0.842 -0.553,1.232 -0.2,0.399 -0.376,0.753 -0.539,1.071 -0.17,0.317 -0.287,0.56 -0.362,0.715l-7.954 14.698 -1.771 0 -7.954 -14.653c-0.074,-0.17 -0.2,-0.421 -0.369,-0.746 -0.169,-0.324 -0.354,-0.686 -0.539,-1.085 -0.192,-0.39 -0.368,-0.797 -0.53,-1.217 -0.171,-0.42 -0.296,-0.812 -0.377,-1.166l-0.089 0c0.059,0.62 0.103,1.454 0.133,2.502 0.022,1.055 0.037,2.287 0.037,3.696l0 20.757 -3.497 0 0 -30.999 4.537 0 8.043 14.743c0.347,0.649 0.642,1.254 0.886,1.816 0.243,0.561 0.427,1.055 0.538,1.468l0.133 0c0.141,-0.428 0.333,-0.937 0.568,-1.512 0.244,-0.576 0.546,-1.196 0.923,-1.86l8.021 -14.655 4.493 0 0 30.999zm23.501 0l-3.549 0 0 -3.461 -0.081 0c-1.543,2.657 -3.815,3.977 -6.811,3.977 -2.206,0 -3.932,-0.583 -5.179,-1.749 -1.247,-1.165 -1.868,-2.715 -1.868,-4.649 0,-4.131 2.436,-6.544 7.305,-7.216l6.634 -0.929c0,-3.763 -1.52,-5.645 -4.56,-5.645 -2.664,0 -5.07,0.907 -7.216,2.722l0 -3.63c2.176,-1.387 4.678,-2.073 7.519,-2.073 5.201,0 7.806,2.753 7.806,8.256l0 14.397zm-3.549 -11.201l-5.335 0.738c-1.646,0.228 -2.884,0.634 -3.719,1.224 -0.834,0.583 -1.254,1.617 -1.254,3.099 0,1.078 0.384,1.963 1.158,2.65 0.767,0.686 1.794,1.025 3.077,1.025 1.756,0 3.21,-0.62 4.353,-1.844 1.152,-1.233 1.72,-2.797 1.72,-4.686l0 -2.206zm28.607 11.201l-3.548 0 0 -12.625c0,-4.701 -1.713,-7.047 -5.144,-7.047 -1.77,0 -3.239,0.664 -4.398,2 -1.165,1.335 -1.741,3.017 -1.741,5.047l0 12.625 -3.548 0 0 -22.137 3.548 0 0 3.675 0.089 0c1.667,-2.797 4.088,-4.191 7.26,-4.191 2.42,0 4.272,0.782 5.557,2.346 1.284,1.557 1.925,3.823 1.925,6.774l0 13.533zm22.528 0l-3.55 0 0 -3.461 -0.081 0c-1.542,2.657 -3.815,3.977 -6.81,3.977 -2.206,0 -3.933,-0.583 -5.18,-1.749 -1.247,-1.165 -1.867,-2.715 -1.867,-4.649 0,-4.131 2.435,-6.544 7.305,-7.216l6.633 -0.929c0,-3.763 -1.519,-5.645 -4.56,-5.645 -2.663,0 -5.069,0.907 -7.216,2.722l0 -3.63c2.177,-1.387 4.678,-2.073 7.519,-2.073 5.202,0 7.807,2.753 7.807,8.256l0 14.397zm-3.55 -11.201l-5.334 0.738c-1.646,0.228 -2.885,0.634 -3.72,1.224 -0.833,0.583 -1.254,1.617 -1.254,3.099 0,1.078 0.384,1.963 1.159,2.65 0.767,0.686 1.793,1.025 3.077,1.025 1.756,0 3.21,-0.62 4.353,-1.844 1.152,-1.233 1.719,-2.797 1.719,-4.686l0 -2.206zm29.124 9.429c0,8.124 -3.888,12.191 -11.673,12.191 -2.737,0 -5.128,-0.517 -7.179,-1.558l0 -3.541c2.494,1.379 4.87,2.073 7.135,2.073 5.446,0 8.168,-2.9 8.168,-8.692l0 -2.421 -0.081 0c-1.69,2.827 -4.228,4.236 -7.614,4.236 -2.753,0 -4.966,-0.982 -6.642,-2.951 -1.682,-1.963 -2.523,-4.605 -2.523,-7.918 0,-3.763 0.908,-6.752 2.715,-8.972 1.808,-2.221 4.288,-3.328 7.423,-3.328 2.989,0 5.195,1.195 6.641,3.586l0.081 0 0 -3.07 3.549 0 0 20.365zm-3.549 -8.234l0 -3.268c0,-1.757 -0.59,-3.262 -1.778,-4.516 -1.188,-1.255 -2.671,-1.882 -4.442,-1.882 -2.192,0 -3.911,0.797 -5.151,2.391 -1.239,1.594 -1.859,3.822 -1.859,6.685 0,2.464 0.598,4.435 1.786,5.917 1.188,1.477 2.767,2.214 4.722,2.214 1.993,0 3.608,-0.709 4.855,-2.118 1.248,-1.416 1.867,-3.224 1.867,-5.423zm28.512 -0.177l-15.629 0c0.06,2.465 0.724,4.369 1.993,5.711 1.269,1.336 3.01,2.007 5.232,2.007 2.493,0 4.781,-0.819 6.877,-2.465l0 3.329c-1.948,1.416 -4.524,2.117 -7.718,2.117 -3.13,0 -5.587,-1.003 -7.372,-3.01 -1.793,-2.014 -2.686,-4.841 -2.686,-8.485 0,-3.447 0.982,-6.251 2.929,-8.42 1.956,-2.17 4.383,-3.254 7.276,-3.254 2.9,0 5.135,0.937 6.722,2.811 1.586,1.867 2.376,4.472 2.376,7.799l0 1.86zm-3.63 -3.003c-0.015,-2.044 -0.509,-3.638 -1.477,-4.782 -0.973,-1.136 -2.323,-1.704 -4.058,-1.704 -1.667,0 -3.091,0.598 -4.257,1.793 -1.166,1.196 -1.889,2.76 -2.162,4.693l11.954 0zm42.7 11.887c-2.287,1.21 -5.143,1.815 -8.559,1.815 -4.413,0 -7.939,-1.416 -10.588,-4.257 -2.657,-2.841 -3.985,-6.567 -3.985,-11.179 0,-4.951 1.498,-8.958 4.479,-12.013 2.981,-3.062 6.766,-4.589 11.348,-4.589 2.937,0 5.372,0.427 7.305,1.276l0 3.874c-2.221,-1.239 -4.67,-1.86 -7.349,-1.86 -3.557,0 -6.441,1.189 -8.656,3.564 -2.213,2.377 -3.32,5.556 -3.32,9.534 0,3.778 1.034,6.788 3.099,9.024 2.073,2.243 4.781,3.365 8.147,3.365 3.106,0 5.806,-0.694 8.079,-2.074l0 3.52zm21.686 1.299l-3.549 0 0 -3.461 -0.081 0c-1.543,2.657 -3.815,3.977 -6.811,3.977 -2.206,0 -3.932,-0.583 -5.179,-1.749 -1.247,-1.165 -1.867,-2.715 -1.867,-4.649 0,-4.131 2.435,-6.544 7.304,-7.216l6.634 -0.929c0,-3.763 -1.52,-5.645 -4.56,-5.645 -2.663,0 -5.069,0.907 -7.216,2.722l0 -3.63c2.176,-1.387 4.678,-2.073 7.519,-2.073 5.202,0 7.806,2.753 7.806,8.256l0 14.397zm-3.549 -11.201l-5.335 0.738c-1.646,0.228 -2.884,0.634 -3.719,1.224 -0.834,0.583 -1.254,1.617 -1.254,3.099 0,1.078 0.384,1.963 1.158,2.65 0.767,0.686 1.794,1.025 3.078,1.025 1.756,0 3.21,-0.62 4.352,-1.844 1.152,-1.233 1.72,-2.797 1.72,-4.686l0 -2.206zm28.607 11.201l-3.548 0 0 -12.625c0,-4.701 -1.712,-7.047 -5.144,-7.047 -1.77,0 -3.239,0.664 -4.398,2 -1.165,1.335 -1.74,3.017 -1.74,5.047l0 12.625 -3.549 0 0 -22.137 3.549 0 0 3.675 0.088 0c1.668,-2.797 4.088,-4.191 7.26,-4.191 2.421,0 4.272,0.782 5.557,2.346 1.284,1.557 1.925,3.823 1.925,6.774l0 13.533zm25.575 0l-3.549 0 0 -3.763 -0.082 0c-1.644,2.855 -4.183,4.279 -7.614,4.279 -2.774,0 -5.002,-0.989 -6.663,-2.973 -1.668,-1.978 -2.501,-4.679 -2.501,-8.095 0,-3.66 0.922,-6.589 2.767,-8.795 1.845,-2.206 4.302,-3.306 7.371,-3.306 3.04,0 5.254,1.195 6.64,3.586l0.082 0 0 -13.702 3.549 0 0 32.769zm-3.549 -10.006l0 -3.268c0,-1.786 -0.59,-3.299 -1.771,-4.539 -1.181,-1.239 -2.679,-1.859 -4.494,-1.859 -2.161,0 -3.866,0.79 -5.106,2.376 -1.24,1.586 -1.859,3.778 -1.859,6.575 0,2.553 0.598,4.56 1.786,6.042 1.187,1.477 2.788,2.214 4.788,2.214 1.978,0 3.579,-0.716 4.811,-2.139 1.233,-1.425 1.845,-3.233 1.845,-5.402zm12.3 -17.753c-0.634,0 -1.173,-0.214 -1.623,-0.649 -0.443,-0.429 -0.664,-0.975 -0.664,-1.639 0,-0.664 0.221,-1.217 0.664,-1.653 0.45,-0.442 0.989,-0.663 1.623,-0.663 0.649,0 1.203,0.221 1.653,0.663 0.458,0.436 0.686,0.989 0.686,1.653 0,0.635 -0.228,1.174 -0.686,1.616 -0.45,0.45 -1.004,0.672 -1.653,0.672zm1.734 21.575c0,2.03 0.783,3.048 2.354,3.048 0.635,0 1.203,-0.082 1.705,-0.237l0 3.203c-0.273,0.067 -0.635,0.14 -1.092,0.199 -0.451,0.067 -0.93,0.103 -1.431,0.103 -0.709,0 -1.373,-0.118 -1.993,-0.347 -0.62,-0.235 -1.158,-0.582 -1.608,-1.062 -0.458,-0.472 -0.82,-1.07 -1.085,-1.785 -0.266,-0.709 -0.399,-1.542 -0.399,-2.494l0 -16.581 3.549 0 0 15.953zm26.807 6.184l-3.549 0 0 -3.763 -0.082 0c-1.644,2.855 -4.183,4.279 -7.614,4.279 -2.774,0 -5.002,-0.989 -6.662,-2.973 -1.669,-1.978 -2.502,-4.679 -2.502,-8.095 0,-3.66 0.922,-6.589 2.767,-8.795 1.845,-2.206 4.302,-3.306 7.371,-3.306 3.041,0 5.254,1.195 6.64,3.586l0.082 0 0 -13.702 3.549 0 0 32.769zm-3.549 -10.006l0 -3.268c0,-1.786 -0.59,-3.299 -1.771,-4.539 -1.181,-1.239 -2.679,-1.859 -4.494,-1.859 -2.161,0 -3.866,0.79 -5.106,2.376 -1.24,1.586 -1.859,3.778 -1.859,6.575 0,2.553 0.598,4.56 1.786,6.042 1.187,1.477 2.788,2.214 4.788,2.214 1.978,0 3.579,-0.716 4.811,-2.139 1.233,-1.425 1.845,-3.233 1.845,-5.402zm26.571 10.006l-3.55 0 0 -3.461 -0.08 0c-1.543,2.657 -3.815,3.977 -6.811,3.977 -2.206,0 -3.933,-0.583 -5.179,-1.749 -1.247,-1.165 -1.868,-2.715 -1.868,-4.649 0,-4.131 2.436,-6.544 7.305,-7.216l6.633 -0.929c0,-3.763 -1.519,-5.645 -4.56,-5.645 -2.663,0 -5.069,0.907 -7.216,2.722l0 -3.63c2.177,-1.387 4.679,-2.073 7.519,-2.073 5.202,0 7.807,2.753 7.807,8.256l0 14.397zm-3.55 -11.201l-5.334 0.738c-1.646,0.228 -2.885,0.634 -3.719,1.224 -0.834,0.583 -1.254,1.617 -1.254,3.099 0,1.078 0.383,1.963 1.158,2.65 0.767,0.686 1.794,1.025 3.077,1.025 1.756,0 3.21,-0.62 4.353,-1.844 1.152,-1.233 1.719,-2.797 1.719,-4.686l0 -2.206zm20.499 10.986c-0.833,0.458 -1.94,0.687 -3.306,0.687 -3.881,0 -5.814,-2.162 -5.814,-6.486l0 -13.098 -3.808 0 0 -3.025 3.808 0 0 -5.401 3.542 -1.151 0 6.552 5.578 0 0 3.025 -5.578 0 0 12.478c0,1.483 0.251,2.539 0.76,3.173 0.501,0.634 1.335,0.952 2.508,0.952 0.893,0 1.66,-0.243 2.31,-0.738l0 3.032zm22.174 -9.968l-15.629 0c0.059,2.465 0.723,4.369 1.993,5.711 1.269,1.336 3.01,2.007 5.231,2.007 2.494,0 4.782,-0.819 6.877,-2.465l0 3.329c-1.948,1.416 -4.523,2.117 -7.718,2.117 -3.129,0 -5.586,-1.003 -7.372,-3.01 -1.793,-2.014 -2.685,-4.841 -2.685,-8.485 0,-3.447 0.981,-6.251 2.929,-8.42 1.955,-2.17 4.383,-3.254 7.275,-3.254 2.9,0 5.136,0.937 6.722,2.811 1.587,1.867 2.377,4.472 2.377,7.799l0 1.86zm-3.631 -3.003c-0.015,-2.044 -0.509,-3.638 -1.476,-4.782 -0.974,-1.136 -2.324,-1.704 -4.058,-1.704 -1.667,0 -3.092,0.598 -4.257,1.793 -1.166,1.196 -1.89,2.76 -2.162,4.693l11.953 0zm7.659 12.389l0 -3.807c1.926,1.423 4.058,2.139 6.375,2.139 3.114,0 4.671,-1.04 4.671,-3.114 0,-0.59 -0.133,-1.091 -0.398,-1.498 -0.274,-0.413 -0.628,-0.774 -1.085,-1.091 -0.45,-0.318 -0.989,-0.605 -1.602,-0.856 -0.612,-0.251 -1.268,-0.517 -1.977,-0.79 -0.981,-0.391 -1.837,-0.782 -2.583,-1.181 -0.738,-0.391 -1.357,-0.841 -1.859,-1.335 -0.495,-0.502 -0.87,-1.063 -1.121,-1.697 -0.251,-0.635 -0.377,-1.38 -0.377,-2.229 0,-1.04 0.236,-1.955 0.708,-2.76 0.48,-0.797 1.114,-1.468 1.904,-2.007 0.797,-0.538 1.697,-0.951 2.715,-1.224 1.012,-0.274 2.067,-0.406 3.144,-0.406 1.918,0 3.631,0.332 5.143,0.988l0 3.594c-1.624,-1.07 -3.498,-1.601 -5.615,-1.601 -0.665,0 -1.262,0.074 -1.801,0.229 -0.531,0.148 -0.989,0.361 -1.373,0.634 -0.375,0.273 -0.671,0.605 -0.884,0.982 -0.207,0.384 -0.31,0.804 -0.31,1.269 0,0.576 0.103,1.055 0.31,1.446 0.213,0.391 0.516,0.738 0.922,1.041 0.398,0.302 0.893,0.575 1.468,0.818 0.576,0.244 1.232,0.509 1.97,0.797 0.974,0.377 1.86,0.76 2.634,1.159 0.775,0.398 1.439,0.841 1.993,1.343 0.546,0.494 0.966,1.069 1.261,1.719 0.295,0.649 0.443,1.417 0.443,2.309 0,1.1 -0.244,2.051 -0.723,2.856 -0.487,0.804 -1.129,1.476 -1.933,2.007 -0.812,0.539 -1.742,0.93 -2.79,1.195 -1.055,0.258 -2.154,0.384 -3.313,0.384 -2.272,0 -4.25,-0.435 -5.917,-1.313z"/>
    <path class="fil6" d="M1798.963 955.976l9.061 -0.002c0.707,0 1.306,0.465 1.509,1.105l3.623 9.522 4.261 1.142 8.408 -6.499c0.522,-0.403 1.216,-0.428 1.754,-0.117l7.846 4.531c0.603,0.348 0.888,1.036 0.754,1.682l-1.627 10.081 3.125 3.12 10.528 -1.425c0.687,-0.092 1.33,0.274 1.622,0.861l4.483 7.759c0.348,0.601 0.254,1.339 -0.182,1.834l-6.451 7.918 1.142 4.267 9.831 4.031c0.609,0.249 0.976,0.837 0.977,1.457l0.006 9.061c0,0.708 -0.466,1.306 -1.106,1.509l-9.521 3.623 -1.141 4.262 6.498 8.406c0.402,0.522 0.427,1.217 0.116,1.754l-4.53 7.841c-0.335,0.582 -0.985,0.87 -1.612,0.77l-10.153 -1.637 -3.117 3.125 1.424 10.528c0.092,0.687 -0.273,1.33 -0.86,1.622l-7.76 4.483c-0.601,0.349 -1.339,0.255 -1.834,-0.182l-7.919 -6.451 -4.266 1.143 -4.032 9.831c-0.249,0.609 -0.837,0.976 -1.457,0.977l-9.061 0.006c-0.707,0 -1.306,-0.466 -1.509,-1.106l-3.623 -9.521 -4.26 -1.141 -8.408 6.497c-0.548,0.423 -1.288,0.428 -1.836,0.066l-7.764 -4.479c-0.603,-0.349 -0.888,-1.036 -0.754,-1.683l1.625 -10.077 -3.123 -3.123 -10.529 1.424c-0.687,0.093 -1.329,-0.273 -1.622,-0.86l-4.483 -7.76c-0.348,-0.601 -0.254,-1.339 0.182,-1.834l6.452 -7.919 -1.143 -4.265 -9.832 -4.032c-0.609,-0.25 -0.976,-0.838 -0.977,-1.458l-0.005 -9.062c0,-0.707 0.465,-1.307 1.106,-1.508l9.521 -3.623 1.142 -4.26 -6.498 -8.407c-0.424,-0.548 -0.429,-1.288 -0.066,-1.836l4.478 -7.759c0.335,-0.582 0.986,-0.869 1.612,-0.77l10.148 1.636 3.124 -3.118 -1.425 -10.535c-0.092,-0.687 0.273,-1.329 0.861,-1.622l7.759 -4.482c0.601,-0.349 1.339,-0.255 1.834,0.182l7.919 6.45 4.267 -1.142 4.031 -9.831c0.249,-0.608 0.837,-0.976 1.457,-0.98zm4.7 3.16l-3.645 0 -3.887 9.481c-0.164,0.483 -0.56,0.878 -1.089,1.02l-5.794 1.551c-0.472,0.122 -0.995,0.028 -1.402,-0.303l-7.753 -6.316 -5.992 3.456 1.388 10.264c0.062,0.469 -0.086,0.961 -0.444,1.321l-4.24 4.247c-0.349,0.34 -0.848,0.521 -1.366,0.439l-9.879 -1.595 -3.456 5.989 6.28 8.124c0.33,0.383 0.47,0.916 0.331,1.44l-1.553 5.793c-0.127,0.472 -0.472,0.88 -0.964,1.067l-9.343 3.555 0 6.919 9.481 3.889c0.484,0.164 0.879,0.559 1.021,1.088l1.552 5.792c0.122,0.473 0.028,0.995 -0.303,1.402l-6.317 7.754 3.456 5.993 10.15 -1.374c0.504,-0.104 1.05,0.039 1.441,0.43l4.24 4.24c0.34,0.348 0.521,0.848 0.438,1.365l-1.592 9.876 5.987 3.46 8.126 -6.28c0.381,-0.329 0.916,-0.47 1.439,-0.33l5.793 1.551c0.472,0.128 0.88,0.472 1.067,0.964l3.555 9.343 6.919 0 3.888 -9.481c0.164,-0.483 0.56,-0.879 1.089,-1.02l5.792 -1.552c0.473,-0.122 0.995,-0.028 1.402,0.303l7.754 6.316 5.993 -3.455 -1.374 -10.149c-0.105,-0.505 0.039,-1.051 0.43,-1.442l4.24 -4.235c0.346,-0.345 0.846,-0.527 1.365,-0.444l9.878 1.595 3.456 -5.992 -6.279 -8.121c-0.33,-0.383 -0.47,-0.916 -0.33,-1.441l1.551 -5.793c0.128,-0.473 0.472,-0.881 0.964,-1.068l9.343 -3.555 0 -6.918 -9.48 -3.888c-0.483,-0.164 -0.879,-0.56 -1.02,-1.088l-1.552 -5.795c-0.122,-0.472 -0.028,-0.995 0.303,-1.402l6.316 -7.752 -3.456 -5.992 -10.149 1.373c-0.504,0.105 -1.05,-0.039 -1.441,-0.429l-4.241 -4.248c-0.341,-0.346 -0.52,-0.844 -0.438,-1.359l1.593 -9.874 -5.989 -3.459 -8.123 6.279c-0.383,0.33 -0.917,0.47 -1.441,0.331l-5.793 -1.553c-0.472,-0.127 -0.88,-0.471 -1.067,-0.964l-3.555 -9.343 -3.274 0z"/>
    <path class="fil6" d="M1803.663 981.709c8.349,0 15.909,3.384 21.38,8.855 5.471,5.472 8.856,13.032 8.856,21.38 0,8.348 -3.385,15.909 -8.857,21.379 -5.47,5.472 -13.031,8.857 -21.379,8.857 -8.348,0 -15.908,-3.386 -21.379,-8.857 -5.472,-5.47 -8.857,-13.031 -8.857,-21.379 0,-8.348 3.385,-15.908 8.857,-21.379 5.471,-5.472 13.031,-8.856 21.379,-8.856zm19.145 11.091c-4.898,-4.898 -11.668,-7.929 -19.145,-7.929 -7.476,0 -14.246,3.032 -19.143,7.93 -4.898,4.898 -7.93,11.667 -7.93,19.143 0,7.476 3.032,14.246 7.93,19.144 4.898,4.899 11.667,7.929 19.143,7.929 7.476,0 14.246,-3.031 19.144,-7.929 4.898,-4.898 7.929,-11.668 7.929,-19.144 0,-7.476 -3.031,-14.246 -7.928,-19.144z"/>
    <path class="fil6" d="M1873.205 1045.778c1.05,0.398 2.065,0.883 3.035,1.443 0.979,0.566 1.905,1.207 2.769,1.912l7.526 -2.273c0.672,-0.203 1.375,0.064 1.756,0.611 0.861,1.088 1.65,2.246 2.354,3.461 0.716,1.238 1.34,2.53 1.863,3.863 0.25,0.64 0.054,1.344 -0.439,1.769l-5.686 5.339c0.066,0.405 0.121,0.813 0.162,1.219l0.004 0.046c0.072,0.715 0.108,1.415 0.108,2.088 0,0.686 -0.038,1.397 -0.112,2.127 -0.041,0.412 -0.096,0.82 -0.162,1.225l5.736 5.386c0.482,0.454 0.615,1.141 0.388,1.723 -0.522,1.333 -1.146,2.625 -1.862,3.862 -0.721,1.246 -1.532,2.431 -2.418,3.541 -0.413,0.521 -1.091,0.71 -1.692,0.529l-7.532 -2.273c-0.87,0.712 -1.795,1.354 -2.764,1.915 -0.968,0.561 -1.983,1.045 -3.034,1.444l-1.792 7.646c-0.151,0.651 -0.686,1.112 -1.309,1.204 -0.694,0.104 -1.404,0.184 -2.125,0.236 -0.724,0.055 -1.441,0.083 -2.145,0.083 -0.705,0 -1.421,-0.028 -2.144,-0.082l-0.036 -0.002c-0.708,-0.053 -1.407,-0.133 -2.09,-0.235 -0.674,-0.098 -1.186,-0.611 -1.317,-1.241l-1.783 -7.609c-1.05,-0.399 -2.065,-0.883 -3.035,-1.444 -0.978,-0.565 -1.905,-1.207 -2.77,-1.913l-7.526 2.274c-0.672,0.202 -1.376,-0.064 -1.756,-0.612 -0.861,-1.087 -1.65,-2.245 -2.354,-3.461 -0.716,-1.237 -1.34,-2.529 -1.863,-3.862 -0.25,-0.64 -0.054,-1.345 0.439,-1.77l5.687 -5.339c-0.067,-0.406 -0.121,-0.815 -0.163,-1.227 -0.073,-0.729 -0.112,-1.44 -0.112,-2.125 0,-0.686 0.039,-1.398 0.112,-2.126 0.042,-0.414 0.095,-0.821 0.162,-1.227l-5.736 -5.385c-0.483,-0.455 -0.615,-1.141 -0.388,-1.723 0.522,-1.333 1.146,-2.625 1.862,-3.863 0.721,-1.245 1.531,-2.43 2.418,-3.541 0.413,-0.52 1.091,-0.709 1.691,-0.528l7.527 2.27c0.865,-0.705 1.792,-1.347 2.77,-1.913 0.97,-0.56 1.986,-1.045 3.035,-1.443l1.792 -7.647c0.151,-0.651 0.685,-1.112 1.308,-1.204 0.696,-0.103 1.407,-0.183 2.128,-0.236 0.723,-0.054 1.438,-0.082 2.142,-0.082 0.703,0 1.42,0.028 2.143,0.081l0.036 0.003c0.708,0.053 1.407,0.133 2.091,0.234 0.674,0.098 1.186,0.61 1.318,1.241l1.783 7.611zm1.454 4.172c-1.025,-0.592 -2.127,-1.088 -3.288,-1.47 -0.505,-0.168 -0.914,-0.587 -1.043,-1.142l-1.739 -7.423 -0.847 -0.076c-0.612,-0.045 -1.25,-0.069 -1.908,-0.069 -0.659,0 -1.295,0.024 -1.908,0.069l-0.846 0.076 -1.725 7.366c-0.107,0.543 -0.495,1.013 -1.057,1.198 -1.161,0.382 -2.263,0.878 -3.287,1.47 -1.024,0.591 -1.989,1.29 -2.88,2.078 -0.399,0.388 -0.991,0.554 -1.561,0.382l-7.307 -2.207c-0.545,0.743 -1.05,1.516 -1.511,2.312 -0.456,0.788 -0.872,1.608 -1.246,2.454l5.566 5.225c0.382,0.363 0.574,0.909 0.462,1.463 -0.118,0.575 -0.21,1.174 -0.273,1.788 -0.057,0.563 -0.087,1.169 -0.087,1.812 0,0.644 0.03,1.252 0.087,1.817 0.059,0.58 0.145,1.15 0.257,1.706 0.137,0.538 -0.014,1.132 -0.446,1.54l-5.566 5.225c0.374,0.846 0.79,1.665 1.246,2.454 0.461,0.796 0.966,1.569 1.511,2.312l7.307 -2.208c0.508,-0.15 1.082,-0.045 1.507,0.334 0.906,0.807 1.889,1.524 2.934,2.127 1.023,0.591 2.126,1.088 3.287,1.47 0.504,0.168 0.914,0.586 1.043,1.142l1.739 7.421 0.845 0.076c0.612,0.046 1.249,0.069 1.909,0.069 0.659,0 1.297,-0.023 1.91,-0.069l0.845 -0.076 1.725 -7.365c0.107,-0.543 0.495,-1.013 1.057,-1.198 1.161,-0.382 2.262,-0.878 3.287,-1.471 1.018,-0.587 1.967,-1.27 2.832,-2.03 0.398,-0.423 1.015,-0.609 1.608,-0.43l7.307 2.208c0.545,-0.743 1.05,-1.516 1.511,-2.312 0.456,-0.789 0.872,-1.608 1.246,-2.454l-5.566 -5.225c-0.382,-0.363 -0.574,-0.909 -0.462,-1.463 0.119,-0.577 0.211,-1.174 0.274,-1.788 0.056,-0.564 0.087,-1.169 0.087,-1.812 0,-0.629 -0.029,-1.22 -0.083,-1.774l-0.004 -0.039c-0.06,-0.586 -0.147,-1.158 -0.259,-1.711 -0.136,-0.538 0.015,-1.132 0.447,-1.539l5.566 -5.225c-0.374,-0.846 -0.79,-1.666 -1.246,-2.454 -0.461,-0.796 -0.966,-1.569 -1.511,-2.312l-7.306 2.207c-0.508,0.15 -1.082,0.044 -1.507,-0.334 -0.905,-0.807 -1.89,-1.522 -2.933,-2.125z"/>
    <path class="fil6" d="M1865.834 1055.144c2.789,0 5.315,1.133 7.145,2.961 1.836,1.83 2.968,4.359 2.968,7.151 0,2.791 -1.132,5.32 -2.962,7.15 -1.83,1.83 -4.36,2.962 -7.151,2.962 -2.791,0 -5.32,-1.132 -7.15,-2.962 -1.83,-1.83 -2.962,-4.359 -2.962,-7.15 0,-2.792 1.132,-5.321 2.961,-7.151l0.095 -0.088c1.823,-1.776 4.313,-2.873 7.056,-2.873zm4.917 5.195c-1.255,-1.256 -2.995,-2.033 -4.917,-2.033 -1.885,0 -3.593,0.747 -4.844,1.96l-0.071 0.075c-1.257,1.257 -2.035,2.996 -2.035,4.915 0,1.919 0.779,3.658 2.036,4.915 1.257,1.257 2.995,2.035 4.914,2.035 1.919,0 3.658,-0.778 4.915,-2.035 1.257,-1.257 2.036,-2.996 2.036,-4.915 0,-1.919 -0.778,-3.658 -2.034,-4.917z"/>
   </g>
   <path class="fil1" d="M826.394 573.101l68.08 57.068 0 -57.068 66.254 0c18.097,0 32.903,-14.806 32.903,-32.902l0 -278.2c0,-18.097 -14.806,-32.903 -32.903,-32.903l-391.266 0c-18.097,0 -32.903,14.808 -32.903,32.903l0 278.2c0,18.095 14.808,32.902 32.903,32.902l256.932 0z"/>
   <g>
    <path class="fil6" d="M647.604 502.081c-2.287,1.21 -5.143,1.815 -8.559,1.815 -4.413,0 -7.94,-1.416 -10.589,-4.257 -2.657,-2.841 -3.984,-6.567 -3.984,-11.179 0,-4.951 1.498,-8.958 4.478,-12.013 2.982,-3.062 6.766,-4.589 11.349,-4.589 2.936,0 5.372,0.427 7.305,1.276l0 3.874c-2.221,-1.239 -4.671,-1.86 -7.349,-1.86 -3.557,0 -6.442,1.189 -8.656,3.565 -2.213,2.376 -3.32,5.555 -3.32,9.533 0,3.778 1.033,6.788 3.099,9.024 2.073,2.244 4.781,3.365 8.146,3.365 3.106,0 5.807,-0.694 8.08,-2.073l0 3.519zm21.686 1.299l-3.55 0 0 -3.461 -0.08 0c-1.543,2.657 -3.815,3.977 -6.811,3.977 -2.206,0 -3.933,-0.583 -5.18,-1.749 -1.246,-1.165 -1.867,-2.715 -1.867,-4.649 0,-4.131 2.436,-6.544 7.305,-7.216l6.633 -0.929c0,-3.763 -1.519,-5.645 -4.56,-5.645 -2.663,0 -5.069,0.907 -7.216,2.723l0 -3.631c2.177,-1.387 4.679,-2.073 7.519,-2.073 5.202,0 7.807,2.753 7.807,8.256l0 14.397zm-3.55 -11.201l-5.334 0.738c-1.646,0.228 -2.885,0.635 -3.719,1.224 -0.834,0.583 -1.254,1.617 -1.254,3.099 0,1.078 0.383,1.963 1.158,2.65 0.767,0.686 1.794,1.025 3.077,1.025 1.756,0 3.21,-0.62 4.353,-1.844 1.152,-1.233 1.719,-2.797 1.719,-4.686l0 -2.206zm21.776 -7.349c-0.62,-0.473 -1.513,-0.709 -2.679,-0.709 -1.52,0 -2.782,0.709 -3.799,2.14 -1.012,1.424 -1.521,3.372 -1.521,5.837l0 11.282 -3.549 0 0 -22.137 3.549 0 0 4.561 0.089 0c0.501,-1.557 1.268,-2.767 2.309,-3.646 1.041,-0.87 2.199,-1.306 3.483,-1.306 0.922,0 1.623,0.103 2.118,0.303l0 3.675zm21.052 8.367l-15.629 0c0.059,2.465 0.723,4.369 1.993,5.711 1.269,1.336 3.01,2.007 5.231,2.007 2.494,0 4.782,-0.819 6.877,-2.465l0 3.329c-1.948,1.416 -4.523,2.117 -7.718,2.117 -3.129,0 -5.586,-1.003 -7.372,-3.01 -1.792,-2.014 -2.685,-4.841 -2.685,-8.485 0,-3.447 0.981,-6.251 2.929,-8.42 1.955,-2.17 4.383,-3.254 7.275,-3.254 2.9,0 5.136,0.937 6.722,2.811 1.587,1.867 2.377,4.472 2.377,7.799l0 1.86zm-3.631 -3.003c-0.015,-2.044 -0.509,-3.638 -1.476,-4.782 -0.973,-1.136 -2.323,-1.704 -4.058,-1.704 -1.667,0 -3.092,0.598 -4.257,1.793 -1.166,1.196 -1.89,2.76 -2.162,4.693l11.953 0zm26.785 3.003l-15.629 0c0.059,2.465 0.723,4.369 1.993,5.711 1.269,1.336 3.01,2.007 5.231,2.007 2.494,0 4.782,-0.819 6.877,-2.465l0 3.329c-1.947,1.416 -4.523,2.117 -7.718,2.117 -3.129,0 -5.586,-1.003 -7.372,-3.01 -1.792,-2.014 -2.685,-4.841 -2.685,-8.485 0,-3.447 0.981,-6.251 2.929,-8.42 1.955,-2.17 4.383,-3.254 7.275,-3.254 2.9,0 5.136,0.937 6.722,2.811 1.587,1.867 2.377,4.472 2.377,7.799l0 1.86zm-3.631 -3.003c-0.015,-2.044 -0.509,-3.638 -1.476,-4.782 -0.973,-1.136 -2.323,-1.704 -4.058,-1.704 -1.667,0 -3.092,0.598 -4.257,1.793 -1.166,1.196 -1.89,2.76 -2.162,4.693l11.953 0zm20.542 -5.364c-0.62,-0.473 -1.513,-0.709 -2.678,-0.709 -1.52,0 -2.783,0.709 -3.8,2.14 -1.011,1.424 -1.52,3.372 -1.52,5.837l0 11.282 -3.549 0 0 -22.137 3.549 0 0 4.561 0.089 0c0.501,-1.557 1.268,-2.767 2.309,-3.646 1.04,-0.87 2.199,-1.306 3.482,-1.306 0.923,0 1.624,0.103 2.118,0.303l0 3.675zm17.555 -9.209c-0.635,0 -1.174,-0.214 -1.624,-0.649 -0.443,-0.429 -0.664,-0.975 -0.664,-1.639 0,-0.664 0.221,-1.217 0.664,-1.653 0.45,-0.442 0.989,-0.663 1.624,-0.663 0.649,0 1.203,0.221 1.653,0.663 0.457,0.436 0.685,0.989 0.685,1.653 0,0.635 -0.228,1.174 -0.685,1.616 -0.45,0.45 -1.004,0.672 -1.653,0.672zm1.733 21.575c0,2.03 0.783,3.048 2.354,3.048 0.635,0 1.203,-0.081 1.705,-0.237l0 3.203c-0.273,0.067 -0.635,0.14 -1.092,0.199 -0.451,0.067 -0.93,0.103 -1.431,0.103 -0.709,0 -1.373,-0.118 -1.993,-0.347 -0.619,-0.235 -1.158,-0.582 -1.608,-1.062 -0.458,-0.472 -0.819,-1.07 -1.085,-1.785 -0.266,-0.709 -0.399,-1.542 -0.399,-2.494l0 -16.581 3.549 0 0 15.953zm26.291 6.184l-3.549 0 0 -12.625c0,-4.701 -1.712,-7.047 -5.144,-7.047 -1.77,0 -3.238,0.664 -4.397,2 -1.166,1.335 -1.741,3.017 -1.741,5.047l0 12.625 -3.549 0 0 -22.137 3.549 0 0 3.675 0.089 0c1.667,-2.796 4.087,-4.191 7.26,-4.191 2.42,0 4.272,0.782 5.556,2.347 1.284,1.557 1.926,3.822 1.926,6.773l0 13.533zm16.949 -0.215c-0.834,0.459 -1.941,0.687 -3.306,0.687 -3.881,0 -5.814,-2.162 -5.814,-6.486l0 -13.098 -3.808 0 0 -3.025 3.808 0 0 -5.401 3.542 -1.151 0 6.552 5.578 0 0 3.025 -5.578 0 0 12.478c0,1.483 0.251,2.539 0.76,3.173 0.501,0.634 1.335,0.952 2.508,0.952 0.893,0 1.66,-0.243 2.31,-0.738l0 3.032zm22.173 -9.968l-15.628 0c0.059,2.465 0.723,4.369 1.992,5.711 1.27,1.336 3.01,2.007 5.232,2.007 2.493,0 4.781,-0.819 6.877,-2.465l0 3.329c-1.948,1.416 -4.523,2.117 -7.718,2.117 -3.129,0 -5.587,-1.003 -7.372,-3.01 -1.793,-2.014 -2.686,-4.841 -2.686,-8.485 0,-3.447 0.982,-6.251 2.93,-8.42 1.955,-2.17 4.382,-3.254 7.275,-3.254 2.9,0 5.135,0.937 6.722,2.811 1.587,1.867 2.376,4.472 2.376,7.799l0 1.86zm-3.63 -3.003c-0.015,-2.044 -0.509,-3.638 -1.476,-4.782 -0.974,-1.136 -2.324,-1.704 -4.058,-1.704 -1.668,0 -3.092,0.598 -4.257,1.793 -1.167,1.196 -1.89,2.76 -2.163,4.693l11.954 0zm20.542 -5.364c-0.62,-0.473 -1.513,-0.709 -2.679,-0.709 -1.52,0 -2.782,0.709 -3.799,2.14 -1.012,1.424 -1.521,3.372 -1.521,5.837l0 11.282 -3.549 0 0 -22.137 3.549 0 0 4.561 0.089 0c0.501,-1.557 1.268,-2.767 2.309,-3.646 1.041,-0.87 2.199,-1.306 3.483,-1.306 0.922,0 1.623,0.103 2.118,0.303l0 3.675zm21.052 8.367l-15.629 0c0.059,2.465 0.723,4.369 1.993,5.711 1.269,1.336 3.01,2.007 5.231,2.007 2.494,0 4.782,-0.819 6.877,-2.465l0 3.329c-1.947,1.416 -4.523,2.117 -7.718,2.117 -3.129,0 -5.586,-1.003 -7.372,-3.01 -1.792,-2.014 -2.685,-4.841 -2.685,-8.485 0,-3.447 0.981,-6.251 2.929,-8.42 1.955,-2.17 4.383,-3.254 7.275,-3.254 2.9,0 5.136,0.937 6.723,2.811 1.586,1.867 2.376,4.472 2.376,7.799l0 1.86zm-3.631 -3.003c-0.015,-2.044 -0.509,-3.638 -1.476,-4.782 -0.973,-1.136 -2.323,-1.704 -4.058,-1.704 -1.667,0 -3.092,0.598 -4.257,1.793 -1.166,1.196 -1.89,2.76 -2.162,4.693l11.953 0zm7.659 12.389l0 -3.807c1.926,1.423 4.058,2.139 6.375,2.139 3.114,0 4.671,-1.04 4.671,-3.114 0,-0.59 -0.133,-1.091 -0.398,-1.498 -0.274,-0.413 -0.628,-0.774 -1.085,-1.091 -0.45,-0.318 -0.989,-0.605 -1.602,-0.856 -0.612,-0.251 -1.268,-0.517 -1.977,-0.79 -0.981,-0.391 -1.837,-0.782 -2.583,-1.181 -0.738,-0.391 -1.357,-0.841 -1.859,-1.335 -0.495,-0.502 -0.87,-1.063 -1.121,-1.697 -0.251,-0.635 -0.377,-1.38 -0.377,-2.229 0,-1.04 0.236,-1.955 0.708,-2.76 0.48,-0.797 1.115,-1.468 1.904,-2.007 0.797,-0.538 1.697,-0.951 2.716,-1.224 1.011,-0.274 2.066,-0.406 3.143,-0.406 1.919,0 3.631,0.332 5.143,0.988l0 3.594c-1.624,-1.07 -3.498,-1.601 -5.615,-1.601 -0.664,0 -1.262,0.074 -1.801,0.229 -0.531,0.148 -0.989,0.361 -1.372,0.634 -0.376,0.273 -0.672,0.605 -0.885,0.982 -0.207,0.384 -0.31,0.804 -0.31,1.269 0,0.576 0.103,1.055 0.31,1.446 0.213,0.391 0.516,0.738 0.922,1.041 0.398,0.302 0.893,0.575 1.468,0.818 0.576,0.244 1.232,0.509 1.97,0.797 0.974,0.377 1.86,0.76 2.634,1.159 0.775,0.398 1.439,0.841 1.993,1.343 0.546,0.494 0.966,1.069 1.261,1.719 0.295,0.649 0.443,1.417 0.443,2.309 0,1.1 -0.244,2.051 -0.723,2.856 -0.487,0.804 -1.129,1.476 -1.933,2.007 -0.812,0.539 -1.742,0.93 -2.789,1.195 -1.056,0.259 -2.155,0.384 -3.314,0.384 -2.272,0 -4.249,-0.435 -5.917,-1.313zm30.393 0.582c-0.834,0.459 -1.941,0.687 -3.306,0.687 -3.882,0 -5.814,-2.162 -5.814,-6.486l0 -13.098 -3.808 0 0 -3.025 3.808 0 0 -5.401 3.541 -1.151 0 6.552 5.579 0 0 3.025 -5.579 0 0 12.478c0,1.483 0.251,2.539 0.761,3.173 0.501,0.634 1.334,0.952 2.508,0.952 0.893,0 1.66,-0.243 2.31,-0.738l0 3.032z"/>
    <path class="fil6" d="M765.271 416.024c0.874,0 1.582,0.709 1.582,1.582 0,0.873 -0.708,1.581 -1.582,1.581l-55.394 0c-1.266,0 -2.421,-0.521 -3.258,-1.36 -0.835,-0.835 -1.352,-1.989 -1.352,-3.255l0 -113.239c0,-1.272 0.517,-2.426 1.352,-3.261l0.108 -0.097c0.827,-0.778 1.937,-1.255 3.15,-1.255l64.073 0.007c0.435,0 0.829,0.176 1.114,0.462l25.718 25.707c0.341,0.342 0.493,0.801 0.457,1.248l-0.003 53.607c0,0.869 -0.705,1.575 -1.575,1.575 -0.869,0 -1.575,-0.706 -1.575,-1.575l0.003 -53.076 -24.799 -24.798 -63.413 -0.001c-0.373,0.006 -0.711,0.145 -0.965,0.371l-0.057 0.061c-0.262,0.262 -0.425,0.626 -0.425,1.025l0 113.239c0,0.405 0.163,0.77 0.425,1.032 0.258,0.259 0.621,0.42 1.022,0.42l55.394 0z"/>
    <path class="fil6" d="M795.847 322.433l-20.315 -20.314 0 18.8c0,0.419 0.17,0.8 0.442,1.072 0.276,0.271 0.656,0.442 1.072,0.442l18.801 0zm-20.779 -25.249l25.695 25.694c0.297,0.287 0.482,0.69 0.482,1.136 0,0.873 -0.708,1.581 -1.581,1.581l-22.618 0c-1.29,0 -2.46,-0.526 -3.305,-1.371 -0.846,-0.853 -1.372,-2.021 -1.372,-3.305l0 -22.617c0.001,-0.405 0.155,-0.81 0.464,-1.118 0.616,-0.617 1.619,-0.617 2.235,0z"/>
    <path class="fil6" d="M780.189 395.661l38.947 0c1.586,0 3.032,0.651 4.082,1.699l0.009 0.009c1.046,1.05 1.696,2.493 1.696,4.078l0 27.417c0,1.593 -0.652,3.041 -1.699,4.088 -1.047,1.047 -2.496,1.699 -4.088,1.699l-38.947 0c-1.592,0 -3.04,-0.652 -4.087,-1.699 -1.047,-1.047 -1.699,-2.495 -1.699,-4.088l0 -27.417c0,-1.594 0.652,-3.04 1.699,-4.087l0.102 -0.094c1.043,-0.994 2.448,-1.605 3.985,-1.605zm38.947 3.162l-38.947 0c-0.691,0 -1.321,0.268 -1.786,0.703l-0.066 0.069c-0.476,0.476 -0.771,1.132 -0.771,1.852l0 27.417c0,0.72 0.295,1.376 0.771,1.852 0.476,0.476 1.133,0.772 1.852,0.772l38.947 0c0.72,0 1.376,-0.296 1.852,-0.772 0.476,-0.476 0.772,-1.132 0.772,-1.852l0 -27.417c0,-0.724 -0.293,-1.38 -0.766,-1.852 -0.477,-0.478 -1.133,-0.772 -1.858,-0.772z"/>
    <path class="fil6" d="M775.389 407.961c-0.805,-0.33 -1.188,-1.251 -0.859,-2.056 0.33,-0.805 1.252,-1.189 2.057,-0.859 6.847,2.81 11.767,4.714 18.138,7.178l1.22 0.485c1.121,0.459 2.111,0.865 3.721,0.865 1.611,0 2.602,-0.406 3.724,-0.866l0.834 -0.335c3.181,-1.231 6.066,-2.388 8.998,-3.563 2.941,-1.178 5.938,-2.38 9.546,-3.776 0.811,-0.314 1.724,0.09 2.038,0.901 0.314,0.812 -0.091,1.725 -0.902,2.039 -3.472,1.344 -6.519,2.566 -9.51,3.764 -2.885,1.156 -5.721,2.293 -9.034,3.575l-0.779 0.316c-1.44,0.586 -2.713,1.107 -4.915,1.107 -2.204,0 -3.477,-0.522 -4.919,-1.112l-1.159 -0.46c-6.369,-2.463 -11.288,-4.367 -18.199,-7.203z"/>
    <path class="fil6" d="M803.291 414.069c0,-0.874 0.708,-1.582 1.581,-1.582 0.873,0 1.581,0.708 1.581,1.582l0 6.653c0,0.873 -0.708,1.581 -1.581,1.581l-10.422 0c-0.873,0 -1.581,-0.708 -1.581,-1.581l0 -6.653c0,-0.874 0.708,-1.582 1.581,-1.582 0.873,0 1.582,0.708 1.582,1.582l0 5.071 7.259 0 0 -5.071z"/>
    <path class="fil6" d="M790.89 394.475c0,0.873 -0.708,1.581 -1.582,1.581 -0.873,0 -1.581,-0.708 -1.581,-1.581 0,-1.83 0.749,-3.494 1.953,-4.698l0.1 -0.092c1.198,-1.15 2.822,-1.86 4.597,-1.86l10.571 0c1.83,0 3.493,0.748 4.697,1.952 1.204,1.204 1.953,2.869 1.953,4.698 0,0.873 -0.709,1.581 -1.582,1.581 -0.873,0 -1.581,-0.708 -1.581,-1.581 0,-0.956 -0.394,-1.83 -1.025,-2.462 -0.632,-0.632 -1.505,-1.026 -2.462,-1.026l-10.571 0c-0.928,0 -1.772,0.364 -2.395,0.954l-0.067 0.072c-0.632,0.632 -1.025,1.504 -1.025,2.462z"/>
    <path class="fil6" d="M821.76 405.426l0 -3.979c0,-0.723 -0.294,-1.379 -0.766,-1.851 -0.476,-0.475 -1.136,-0.772 -1.86,-0.772l-38.945 0c-0.719,0 -1.376,0.296 -1.852,0.772 -0.476,0.476 -0.771,1.131 -0.771,1.851l-0.008 3.999c6.361,2.6 11.118,4.44 17.2,6.793l2.217 0.876 1.323 0.357 0.568 0.074c0.2,0.017 0.462,0.028 0.798,0.028 0.264,0 0.499,-0.009 0.707,-0.025l0.531 -0.059 1.548 -0.41 0.92 -0.364c0.156,-0.07 0.255,-0.113 0.851,-0.342 3.14,-1.217 5.997,-2.363 8.898,-3.523 2.696,-1.081 5.435,-2.179 8.641,-3.425zm3.163 -3.979l0 6.135 -1.013 0.392c-3.52,1.361 -6.595,2.593 -9.619,3.804 -2.851,1.141 -5.657,2.266 -8.934,3.535l-0.802 0.324c-0.387,0.153 -0.76,0.305 -1.143,0.442 -0.555,0.189 -1.346,0.393 -1.924,0.511 -0.298,0.048 -0.589,0.087 -0.87,0.109 -0.312,0.024 -0.63,0.037 -0.954,0.037 -0.331,0 -0.693,-0.019 -1.076,-0.053 -0.353,-0.031 -0.673,-0.077 -0.973,-0.131l-0.13 -0.025 -1.338 -0.363 -0.098 -0.037c-0.554,-0.192 -0.917,-0.342 -1.3,-0.497l-1.128 -0.451c-6.388,-2.471 -11.312,-4.377 -18.236,-7.218l-0.977 -0.399 0.001 -6.115c-0.006,-1.592 0.646,-3.04 1.693,-4.087 1.047,-1.047 2.495,-1.698 4.087,-1.698l38.945 0c1.588,0 3.034,0.651 4.083,1.698 1.051,1.051 1.706,2.499 1.706,4.087z"/>
    <path class="fil6" d="M741.532 351.45c-0.873,0 -1.581,-0.708 -1.581,-1.581 0,-0.873 0.708,-1.581 1.581,-1.581l43.731 0c0.873,0 1.581,0.708 1.581,1.581 0,0.873 -0.708,1.581 -1.581,1.581l-43.731 0z"/>
    <path class="fil6" d="M741.532 329.316c-0.873,0 -1.581,-0.708 -1.581,-1.581 0,-0.873 0.708,-1.581 1.581,-1.581l22.201 0c0.873,0 1.582,0.708 1.582,1.581 0,0.873 -0.709,1.581 -1.582,1.581l-22.201 0z"/>
    <path class="fil6" d="M741.532 370.604c-0.873,0 -1.581,-0.708 -1.581,-1.581 0,-0.874 0.708,-1.582 1.581,-1.582l43.731 0c0.873,0 1.581,0.708 1.581,1.582 0,0.873 -0.708,1.581 -1.581,1.581l-43.731 0z"/>
    <path class="fil6" d="M741.532 389.756c-0.873,0 -1.581,-0.708 -1.581,-1.581 0,-0.873 0.708,-1.581 1.581,-1.581l23.739 0c0.874,0 1.582,0.708 1.582,1.581 0,0.873 -0.708,1.581 -1.582,1.581l-23.739 0z"/>
    <path class="fil6" d="M717.774 327.683c-0.617,-0.617 -0.617,-1.619 0,-2.235 0.617,-0.617 1.619,-0.617 2.235,0l3.635 3.635 6.06 -6.058c0.617,-0.617 1.619,-0.617 2.236,0 0.616,0.616 0.616,1.618 0,2.235l-7.178 7.177c-0.617,0.617 -1.619,0.617 -2.235,0l-4.753 -4.754z"/>
    <path class="fil6" d="M717.774 349.821c-0.617,-0.617 -0.617,-1.619 0,-2.236 0.617,-0.617 1.619,-0.617 2.235,0l3.639 3.638 6.062 -6.062c0.617,-0.613 1.617,-0.61 2.23,0.006 0.613,0.617 0.61,1.617 -0.007,2.23l-7.171 7.176c-0.617,0.616 -1.619,0.616 -2.235,0l-4.753 -4.752z"/>
    <path class="fil6" d="M717.774 368.974c-0.617,-0.617 -0.617,-1.619 0,-2.235 0.617,-0.617 1.619,-0.617 2.235,0l3.639 3.637 6.062 -6.061c0.617,-0.614 1.617,-0.611 2.23,0.006 0.613,0.617 0.61,1.616 -0.007,2.229l-7.171 7.176c-0.617,0.617 -1.619,0.617 -2.235,0l-4.753 -4.752z"/>
    <path class="fil6" d="M717.774 388.128c-0.617,-0.616 -0.617,-1.618 0,-2.235 0.617,-0.617 1.619,-0.617 2.235,0l3.639 3.637 6.062 -6.061c0.617,-0.613 1.617,-0.611 2.23,0.006 0.613,0.617 0.61,1.616 -0.007,2.23l-7.171 7.175c-0.617,0.617 -1.619,0.617 -2.235,0l-4.753 -4.752z"/>
   </g>
   <path class="fil7" d="M1205.331 1004.443l49.298 41.324 0 -41.324 47.973 0c13.103,0 23.824,-10.721 23.824,-23.824l0 -232.555c0,-13.103 -10.72,-23.824 -23.824,-23.824l-259.49 0c-13.104,0 -23.824,10.721 -23.824,23.824l0 232.555c0,13.103 10.721,23.824 23.824,23.824l162.219 0z"/>
   <g>
    <path class="fil8" d="M1099.172 944.725l-4.021 0 -3.284 -8.693 -13.148 0 -3.092 8.693 -4.036 0 11.887 -30.999 3.763 0 11.931 30.999zm-8.5 -11.954l-4.863 -13.207c-0.155,-0.436 -0.317,-1.13 -0.472,-2.074l-0.088 0c-0.141,0.878 -0.31,1.565 -0.495,2.074l-4.825 13.207 10.743 0zm16.219 8.752l-0.089 0 0 13.384 -3.549 0 0 -32.319 3.549 0 0 3.89 0.089 0c1.741,-2.938 4.294,-4.406 7.652,-4.406 2.848,0 5.076,0.989 6.677,2.974 1.601,1.978 2.398,4.634 2.398,7.961 0,3.705 -0.9,6.671 -2.7,8.9 -1.801,2.22 -4.265,3.334 -7.394,3.334 -2.87,0 -5.077,-1.24 -6.633,-3.718zm-0.089 -8.929l0 3.091c0,1.831 0.59,3.388 1.786,4.664 1.188,1.277 2.693,1.912 4.523,1.912 2.147,0 3.83,-0.82 5.047,-2.466 1.217,-1.644 1.83,-3.925 1.83,-6.854 0,-2.464 -0.568,-4.39 -1.712,-5.792 -1.136,-1.395 -2.678,-2.096 -4.619,-2.096 -2.066,0 -3.719,0.716 -4.973,2.147 -1.254,1.439 -1.882,3.233 -1.882,5.394zm26.114 8.929l-0.088 0 0 13.384 -3.549 0 0 -32.319 3.549 0 0 3.89 0.088 0c1.741,-2.938 4.294,-4.406 7.652,-4.406 2.848,0 5.076,0.989 6.677,2.974 1.601,1.978 2.398,4.634 2.398,7.961 0,3.705 -0.9,6.671 -2.7,8.9 -1.801,2.22 -4.265,3.334 -7.393,3.334 -2.871,0 -5.078,-1.24 -6.634,-3.718zm-0.088 -8.929l0 3.091c0,1.831 0.589,3.388 1.785,4.664 1.188,1.277 2.693,1.912 4.523,1.912 2.147,0 3.83,-0.82 5.047,-2.466 1.217,-1.644 1.831,-3.925 1.831,-6.854 0,-2.464 -0.569,-4.39 -1.713,-5.792 -1.136,-1.395 -2.678,-2.096 -4.619,-2.096 -2.066,0 -3.719,0.716 -4.973,2.147 -1.254,1.439 -1.881,3.233 -1.881,5.394zm25.788 5.947c0,2.03 0.783,3.048 2.354,3.048 0.635,0 1.203,-0.081 1.705,-0.236l0 3.202c-0.273,0.067 -0.635,0.14 -1.092,0.199 -0.451,0.067 -0.93,0.103 -1.431,0.103 -0.709,0 -1.373,-0.118 -1.993,-0.346 -0.619,-0.236 -1.158,-0.583 -1.608,-1.063 -0.458,-0.472 -0.82,-1.07 -1.085,-1.785 -0.266,-0.708 -0.399,-1.542 -0.399,-2.494l0 -27.213 3.549 0 0 26.585zm9.489 -21.575c-0.634,0 -1.173,-0.214 -1.623,-0.649 -0.443,-0.429 -0.664,-0.974 -0.664,-1.639 0,-0.664 0.221,-1.217 0.664,-1.653 0.45,-0.442 0.989,-0.663 1.623,-0.663 0.649,0 1.203,0.221 1.653,0.663 0.458,0.436 0.686,0.989 0.686,1.653 0,0.635 -0.228,1.174 -0.686,1.617 -0.45,0.45 -1.004,0.671 -1.653,0.671zm1.734 21.575c0,2.03 0.783,3.048 2.354,3.048 0.635,0 1.203,-0.081 1.705,-0.236l0 3.202c-0.273,0.067 -0.635,0.14 -1.092,0.199 -0.451,0.067 -0.93,0.103 -1.431,0.103 -0.709,0 -1.373,-0.118 -1.993,-0.346 -0.62,-0.236 -1.158,-0.583 -1.608,-1.063 -0.458,-0.472 -0.82,-1.07 -1.085,-1.785 -0.266,-0.708 -0.399,-1.542 -0.399,-2.494l0 -16.581 3.549 0 0 15.953zm23 5.165c-1.697,1.026 -3.719,1.535 -6.051,1.535 -3.158,0 -5.704,-1.025 -7.644,-3.076 -1.933,-2.052 -2.907,-4.715 -2.907,-7.992 0,-3.645 1.048,-6.574 3.135,-8.788 2.089,-2.206 4.878,-3.313 8.368,-3.313 1.948,0 3.66,0.354 5.143,1.077l0 3.631c-1.645,-1.151 -3.401,-1.727 -5.275,-1.727 -2.259,0 -4.118,0.812 -5.564,2.435 -1.446,1.616 -2.177,3.749 -2.177,6.382 0,2.598 0.686,4.642 2.044,6.14 1.365,1.498 3.187,2.251 5.482,2.251 1.934,0 3.749,-0.642 5.446,-1.927l0 3.372zm21.206 1.019l-3.55 0 0 -3.461 -0.08 0c-1.543,2.657 -3.815,3.977 -6.811,3.977 -2.206,0 -3.933,-0.583 -5.18,-1.749 -1.247,-1.165 -1.867,-2.715 -1.867,-4.648 0,-4.132 2.436,-6.545 7.305,-7.217l6.633 -0.929c0,-3.763 -1.519,-5.645 -4.56,-5.645 -2.663,0 -5.069,0.907 -7.216,2.723l0 -3.631c2.177,-1.387 4.679,-2.073 7.519,-2.073 5.202,0 7.807,2.753 7.807,8.257l0 14.396zm-3.55 -11.201l-5.334 0.738c-1.646,0.229 -2.885,0.635 -3.719,1.224 -0.834,0.583 -1.254,1.617 -1.254,3.099 0,1.078 0.383,1.963 1.158,2.65 0.767,0.686 1.793,1.026 3.077,1.026 1.756,0 3.21,-0.621 4.353,-1.845 1.152,-1.233 1.719,-2.797 1.719,-4.686l0 -2.206zm28.608 11.201l-3.549 0 0 -12.625c0,-4.701 -1.712,-7.047 -5.143,-7.047 -1.771,0 -3.239,0.665 -4.398,2 -1.165,1.335 -1.741,3.017 -1.741,5.047l0 12.625 -3.549 0 0 -22.137 3.549 0 0 3.675 0.089 0c1.667,-2.796 4.087,-4.191 7.26,-4.191 2.42,0 4.272,0.782 5.557,2.347 1.283,1.557 1.925,3.822 1.925,6.773l0 13.533zm16.949 -0.214c-0.833,0.458 -1.94,0.686 -3.306,0.686 -3.881,0 -5.814,-2.162 -5.814,-6.486l0 -13.097 -3.808 0 0 -3.026 3.808 0 0 -5.401 3.542 -1.151 0 6.552 5.578 0 0 3.026 -5.578 0 0 12.477c0,1.483 0.251,2.539 0.76,3.173 0.501,0.634 1.335,0.952 2.508,0.952 0.893,0 1.66,-0.243 2.31,-0.738l0 3.033zm3.395 -0.583l0 -3.807c1.925,1.423 4.058,2.14 6.375,2.14 3.113,0 4.67,-1.041 4.67,-3.115 0,-0.59 -0.132,-1.091 -0.398,-1.497 -0.273,-0.414 -0.627,-0.775 -1.084,-1.092 -0.45,-0.318 -0.989,-0.605 -1.602,-0.856 -0.612,-0.251 -1.269,-0.517 -1.978,-0.79 -0.98,-0.391 -1.836,-0.782 -2.582,-1.181 -0.738,-0.39 -1.357,-0.84 -1.859,-1.335 -0.495,-0.502 -0.871,-1.062 -1.122,-1.697 -0.251,-0.635 -0.376,-1.38 -0.376,-2.229 0,-1.04 0.236,-1.955 0.708,-2.76 0.48,-0.796 1.114,-1.468 1.904,-2.007 0.797,-0.537 1.697,-0.951 2.715,-1.224 1.011,-0.273 2.066,-0.406 3.144,-0.406 1.918,0 3.63,0.332 5.142,0.989l0 3.593c-1.623,-1.07 -3.497,-1.601 -5.615,-1.601 -0.664,0 -1.262,0.074 -1.8,0.229 -0.531,0.148 -0.989,0.361 -1.373,0.635 -0.375,0.272 -0.671,0.605 -0.885,0.981 -0.207,0.384 -0.31,0.804 -0.31,1.269 0,0.576 0.103,1.055 0.31,1.446 0.214,0.391 0.517,0.738 0.923,1.041 0.398,0.302 0.893,0.575 1.468,0.818 0.576,0.244 1.232,0.51 1.97,0.797 0.974,0.377 1.86,0.76 2.634,1.159 0.775,0.398 1.439,0.841 1.993,1.343 0.546,0.494 0.966,1.07 1.261,1.719 0.295,0.649 0.443,1.417 0.443,2.31 0,1.099 -0.244,2.051 -0.724,2.856 -0.486,0.804 -1.128,1.475 -1.932,2.007 -0.812,0.538 -1.742,0.929 -2.79,1.194 -1.055,0.259 -2.154,0.384 -3.313,0.384 -2.272,0 -4.25,-0.435 -5.917,-1.313z"/>
    <path class="fil8" d="M1212.657 869.546c0.003,1.119 -0.456,2.137 -1.193,2.876 -0.74,0.742 -1.761,1.203 -2.881,1.203l-71.457 0c-1.124,0 -2.144,-0.459 -2.88,-1.196l-0.102 -0.112c-0.677,-0.729 -1.093,-1.705 -1.093,-2.771l0 -93.275c0,-1.118 0.458,-2.137 1.195,-2.875 0.737,-0.744 1.757,-1.202 2.88,-1.202l52.776 0.008c0.435,0 0.829,0.177 1.114,0.462l21.182 21.173c0.342,0.342 0.494,0.801 0.458,1.247l0.001 74.462zm-3.428 0.653c0.165,-0.165 0.269,-0.397 0.269,-0.653l0.008 -73.93 -20.264 -20.264 -52.116 -0.001c-0.251,0.006 -0.48,0.109 -0.645,0.274 -0.166,0.161 -0.268,0.393 -0.268,0.646l0 93.275c0,0.231 0.084,0.441 0.22,0.601l0.048 0.046c0.165,0.165 0.395,0.269 0.645,0.269l71.457 0c0.255,0 0.484,-0.101 0.646,-0.263z"/>
    <path class="fil8" d="M1174.728 815.067c-0.873,0 -1.581,-0.708 -1.581,-1.581 0,-0.873 0.708,-1.581 1.581,-1.581l24.489 0c0.873,0 1.581,0.708 1.581,1.581 0,0.873 -0.708,1.581 -1.581,1.581l-24.489 0z"/>
    <path class="fil8" d="M1174.728 804.648c-0.873,0 -1.581,-0.708 -1.581,-1.582 0,-0.873 0.708,-1.581 1.581,-1.581l12.245 0c0.873,0 1.581,0.708 1.581,1.581 0,0.874 -0.708,1.582 -1.581,1.582l-12.245 0z"/>
    <path class="fil8" d="M1146.499 832.355c-0.874,0 -1.582,-0.709 -1.582,-1.582 0,-0.873 0.708,-1.581 1.582,-1.581l52.72 0c0.874,0 1.582,0.708 1.582,1.581 0,0.873 -0.708,1.582 -1.582,1.582l-52.72 0z"/>
    <path class="fil8" d="M1146.499 846.957c-0.874,0 -1.582,-0.708 -1.582,-1.581 0,-0.873 0.708,-1.582 1.582,-1.582l52.72 0c0.874,0 1.582,0.709 1.582,1.582 0,0.873 -0.708,1.581 -1.582,1.581l-52.72 0z"/>
    <path class="fil8" d="M1146.499 861.558c-0.874,0 -1.582,-0.709 -1.582,-1.582 0,-0.873 0.708,-1.581 1.582,-1.581l32.837 0c0.873,0 1.581,0.708 1.581,1.581 0,0.873 -0.708,1.582 -1.581,1.582l-32.837 0z"/>
    <path class="fil8" d="M1148.95 802.231c0.97,-0.254 2.145,0.081 3.181,0.374l0.836 0.226c1.04,0.235 2.206,0.355 3.395,0.355 1.237,0 2.451,-0.129 3.522,-0.385l0.71 -0.197c1.038,-0.294 2.215,-0.628 3.185,-0.373l0.129 0.04c0.682,0.223 1.725,0.862 2.483,1.824 0.577,0.734 1.037,1.673 1.134,2.793l0.484 5.591 0.004 0.2c0.005,0.658 -0.272,1.243 -0.71,1.672 -0.402,0.396 -0.95,0.657 -1.528,0.708 -6.142,0.143 -12.455,0.008 -18.615,0.009l-0.203 -0.012c-0.58,-0.045 -1.132,-0.309 -1.535,-0.705 -0.435,-0.429 -0.716,-1.017 -0.716,-1.674l0.495 -5.789c0.097,-1.12 0.556,-2.061 1.133,-2.793 0.808,-1.029 1.944,-1.688 2.616,-1.864zm2.329 3.413c-0.655,-0.186 -1.401,-0.397 -1.538,-0.362 -0.188,0.05 -0.568,0.31 -0.923,0.763 -0.24,0.304 -0.43,0.683 -0.467,1.115l-0.413 4.746 16.847 0 -0.41 -4.746c-0.037,-0.431 -0.228,-0.811 -0.467,-1.115 -0.339,-0.431 -0.7,-0.687 -0.896,-0.754l-0.036 -0.009c-0.134,-0.035 -0.876,0.175 -1.53,0.361l-0.835 0.227c-1.35,0.316 -2.813,0.478 -4.249,0.478 -1.388,0 -2.799,-0.151 -4.11,-0.452l-0.14 -0.026 -0.833 -0.226z"/>
    <path class="fil8" d="M1156.328 786.022c2.302,0 4.388,0.935 5.896,2.443 1.508,1.508 2.443,3.594 2.443,5.896 0,2.301 -0.935,4.387 -2.443,5.895l-0.098 0.09c-1.499,1.454 -3.545,2.352 -5.798,2.352 -2.301,0 -4.387,-0.935 -5.894,-2.443 -1.508,-1.507 -2.443,-3.593 -2.443,-5.894 0,-2.301 0.935,-4.388 2.443,-5.896 1.507,-1.508 3.593,-2.443 5.894,-2.443zm3.66 4.679c-0.935,-0.936 -2.23,-1.516 -3.66,-1.516 -1.428,0 -2.723,0.58 -3.659,1.516 -0.935,0.935 -1.515,2.231 -1.515,3.66 0,1.428 0.58,2.723 1.515,3.659 0.936,0.936 2.231,1.516 3.659,1.516 1.396,0 2.663,-0.55 3.592,-1.442l0.068 -0.073c0.936,-0.936 1.516,-2.232 1.516,-3.66 0,-1.43 -0.58,-2.725 -1.516,-3.66z"/>
    <path class="fil8" d="M1207.264 793.374l-15.78 -15.78 0 14.812c0,0.265 0.11,0.509 0.285,0.684l0.046 0.049c0.171,0.145 0.393,0.235 0.637,0.235l14.812 0zm-16.244 -20.714l21.16 21.158c0.297,0.288 0.482,0.691 0.482,1.137 0,0.873 -0.708,1.581 -1.581,1.581l-18.629 0c-1.081,0 -2.072,-0.424 -2.809,-1.11l-0.11 -0.101c-0.749,-0.748 -1.212,-1.782 -1.212,-2.919l0 -18.629c0.001,-0.405 0.155,-0.809 0.463,-1.117 0.617,-0.617 1.619,-0.617 2.236,0z"/>
   </g>
  </g>
 </g>
</svg>
