<?xml version="1.0" encoding="UTF-8"?>
<!DOCTYPE svg PUBLIC "-//W3C//DTD SVG 1.1//EN" "http://www.w3.org/Graphics/SVG/1.1/DTD/svg11.dtd">
<!-- Creator: CorelDRAW 2018 (64-Bit) -->
<svg xmlns="http://www.w3.org/2000/svg" xml:space="preserve" width="840px" height="1021px" version="1.1" style="shape-rendering:geometricPrecision; text-rendering:geometricPrecision; image-rendering:optimizeQuality; fill-rule:evenodd; clip-rule:evenodd"
viewBox="0 0 8726.071 10606.338"
 xmlns:xlink="http://www.w3.org/1999/xlink">
 <defs>
  <style type="text/css">
   <![CDATA[
    .fil9 {fill:none}
    .fil7 {fill:#00D4E3}
    .fil4 {fill:#264361}
    .fil1 {fill:#A3AEBA}
    .fil2 {fill:#DCE1E6}
    .fil3 {fill:white}
    .fil0 {fill:white}
    .fil5 {fill:#00F4FF;fill-rule:nonzero}
    .fil8 {fill:#264361;fill-rule:nonzero}
    .fil6 {fill:white;fill-rule:nonzero}
   ]]>
  </style>
 </defs>
 <g id="Layer_x0020_1">
  <metadata id="CorelCorpID_0Corel-Layer"/>
  <g id="_2126848975552">
   <path class="fil0" d="M1832.096 5008.197l5064.797 0c52.957,0 96.285,43.328 96.285,96.289l0 3370.112c0,52.963 -43.328,96.291 -96.285,96.291l-5064.797 0c-52.963,0 -96.291,-43.328 -96.291,-96.291l0 -3370.112c0,-52.961 43.328,-96.289 96.291,-96.289zm178.132 255.169l4708.532 0c26.479,0 48.143,21.664 48.143,48.14l0 2956.075c0,26.475 -21.664,48.142 -48.143,48.142l-4708.532 0c-26.478,0 -48.142,-21.667 -48.142,-48.142l0 -2956.075c0,-26.476 21.664,-48.14 48.142,-48.14z"/>
   <path class="fil1" d="M4363.041 9563.741c1992.59,0 3607.91,69.601 3607.91,155.456 0,85.852 -1615.32,155.447 -3607.91,155.447 -1992.584,0 -3607.886,-69.595 -3607.886,-155.447 0,-85.855 1615.302,-155.456 3607.886,-155.456z"/>
   <path class="fil2" d="M6767.901 8700.817l-4809.714 0c-95.467,0 -231.134,4.744 -295.089,58.988l-932.988 685.065c-0.606,131.162 -15.132,273.508 223.452,274.318l6818.973 0c238.087,0 224.052,-143.683 223.446,-274.318l-932.981 -685.065c-64.301,-54.542 -201.211,-58.988 -295.099,-58.988z"/>
   <path class="fil3" d="M6767.975 8570.633c-1604.952,0 -3209.895,0 -4814.856,0 -121.509,0 -241.293,19.496 -269.509,43.855 -312.999,270.257 -625.86,540.584 -938.903,810.812 -52.559,45.366 40.242,82.569 208.925,82.569 2270.692,0 4541.374,0 6812.066,0 171.657,0 269.3,-38.829 215.612,-85.196 -311.335,-268.873 -622.641,-537.769 -934.065,-806.589 -28.89,-24.927 -155.65,-45.451 -279.27,-45.451z"/>
   <path class="fil2" d="M3759.832 9139.592c402.134,0 804.269,0 1206.404,0 21.095,105.614 42.185,162.034 63.281,267.61 -444.32,0 -888.64,0 -1332.966,0 21.11,-105.57 42.194,-161.981 63.281,-267.61z"/>
   <path class="fil2" d="M1958.087 8700.681c1603.303,0 3206.6,0 4809.902,0l306.165 338.562 -5423.816 0 307.749 -338.562z"/>
   <path class="fil4" d="M5771.494 1676.366l-304.459 255.21 0 -255.21 -296.291 0c-80.926,0 -147.137,-66.211 -147.137,-147.14l0 -1130.278c0,-80.931 66.208,-147.142 147.137,-147.142l1602.62 0c80.928,0 147.139,66.217 147.139,147.142l0 1130.278c0,80.923 -66.217,147.14 -147.139,147.14l-1001.87 0z"/>
   <g>
    <path class="fil5" d="M5499.568 1377.87l0 -18.078c2.087,1.841 4.579,3.46 7.447,4.927 2.897,1.463 5.951,2.709 9.131,3.707 3.21,0.998 6.42,1.776 9.629,2.338 3.242,0.53 6.234,0.81 8.946,0.81 9.441,0 16.485,-1.746 21.161,-5.268 4.644,-3.489 6.979,-8.537 6.979,-15.083 0,-3.551 -0.778,-6.608 -2.335,-9.225 -1.561,-2.618 -3.711,-5.018 -6.423,-7.168 -2.741,-2.182 -5.983,-4.237 -9.723,-6.231 -3.769,-1.964 -7.789,-4.052 -12.123,-6.234 -4.55,-2.305 -8.82,-4.676 -12.777,-7.043 -3.958,-2.368 -7.386,-4.986 -10.316,-7.854 -2.93,-2.868 -5.203,-6.107 -6.887,-9.723 -1.682,-3.616 -2.524,-7.854 -2.524,-12.715 0,-5.984 1.311,-11.158 3.928,-15.583 2.618,-4.423 6.075,-8.039 10.316,-10.908 4.269,-2.865 9.131,-4.985 14.585,-6.387 5.421,-1.404 11.001,-2.12 16.64,-2.12 12.904,0 22.315,1.558 28.237,4.673l0 17.268c-7.73,-5.362 -17.671,-8.042 -29.762,-8.042 -3.366,0 -6.702,0.345 -10.068,1.028 -3.334,0.718 -6.325,1.87 -8.943,3.43 -2.618,1.588 -4.738,3.646 -6.39,6.137 -1.652,2.494 -2.462,5.518 -2.462,9.132 0,3.336 0.624,6.233 1.87,8.666 1.246,2.429 3.086,4.641 5.515,6.667 2.433,1.996 5.424,3.957 8.914,5.827 3.489,1.902 7.541,3.961 12.091,6.205 4.708,2.335 9.131,4.767 13.339,7.323 4.208,2.553 7.886,5.392 11.034,8.475 3.177,3.118 5.671,6.546 7.541,10.315 1.87,3.772 2.774,8.104 2.774,12.965 0,6.452 -1.248,11.935 -3.772,16.393 -2.524,4.488 -5.951,8.134 -10.221,10.908 -4.302,2.806 -9.255,4.829 -14.835,6.077 -5.61,1.246 -11.499,1.87 -17.733,1.87 -2.056,0 -4.612,-0.156 -7.665,-0.497 -3.024,-0.345 -6.14,-0.813 -9.32,-1.467 -3.148,-0.624 -6.14,-1.434 -8.975,-2.367 -2.836,-0.937 -5.11,-1.997 -6.823,-3.148zm178.603 -37.71l-66.008 0c0.251,10.41 3.057,18.449 8.416,24.12 5.36,5.642 12.716,8.478 22.097,8.478 10.533,0 20.195,-3.46 29.044,-10.41l0 14.055c-8.228,5.984 -19.102,8.946 -32.598,8.946 -13.213,0 -23.593,-4.24 -31.134,-12.715 -7.571,-8.507 -11.343,-20.445 -11.343,-35.84 0,-14.552 4.146,-26.396 12.374,-35.56 8.256,-9.161 18.51,-13.742 30.727,-13.742 12.247,0 21.691,3.957 28.39,11.873 6.702,7.885 10.035,18.887 10.035,32.942l0 7.853zm-15.332 -12.683c-0.062,-8.633 -2.15,-15.365 -6.234,-20.194 -4.114,-4.8 -9.815,-7.2 -17.141,-7.2 -7.041,0 -13.057,2.524 -17.981,7.574 -4.923,5.047 -7.977,11.655 -9.131,19.82l50.487 0zm104.933 55.69l-14.991 0 0 -14.617 -0.342 0c-6.513,11.219 -16.113,16.799 -28.766,16.799 -9.317,0 -16.611,-2.462 -21.876,-7.385 -5.268,-4.926 -7.886,-11.47 -7.886,-19.635 0,-17.453 10.286,-27.642 30.854,-30.478l28.016 -3.928c0,-15.892 -6.42,-23.84 -19.261,-23.84 -11.249,0 -21.408,3.834 -30.478,11.499l0 -15.333c9.194,-5.86 19.759,-8.757 31.756,-8.757 21.973,0 32.974,11.625 32.974,34.873l0 60.802zm-14.991 -47.309l-22.533 3.118c-6.949,0.966 -12.185,2.68 -15.707,5.174 -3.522,2.462 -5.297,6.823 -5.297,13.089 0,4.55 1.619,8.29 4.894,11.187 3.239,2.898 7.571,4.332 12.995,4.332 7.417,0 13.557,-2.618 18.386,-7.792 4.862,-5.203 7.262,-11.811 7.262,-19.788l0 -9.32zm91.965 -31.04c-2.618,-1.993 -6.387,-2.992 -11.31,-2.992 -6.42,0 -11.75,2.992 -16.052,9.04 -4.27,6.013 -6.419,14.241 -6.419,24.65l0 47.651 -14.989 0 0 -93.493 14.989 0 0 19.258 0.374 0c2.12,-6.576 5.359,-11.685 9.756,-15.395 4.393,-3.678 9.287,-5.515 14.708,-5.515 3.896,0 6.855,0.435 8.943,1.278l0 15.518zm77.507 74.047c-7.167,4.335 -15.707,6.484 -25.554,6.484 -13.339,0 -24.09,-4.331 -32.285,-12.995 -8.166,-8.666 -12.28,-19.915 -12.28,-33.752 0,-15.394 4.426,-27.768 13.246,-37.117 8.819,-9.317 20.598,-13.993 35.339,-13.993 8.227,0 15.459,1.495 21.723,4.549l0 15.333c-6.95,-4.862 -14.367,-7.291 -22.283,-7.291 -9.538,0 -17.391,3.428 -23.498,10.283 -6.108,6.826 -9.194,15.833 -9.194,26.958 0,10.969 2.898,19.603 8.634,25.928 5.763,6.328 13.463,9.506 23.154,9.506 8.166,0 15.831,-2.712 22.998,-8.133l0 14.24zm100.258 4.302l-14.992 0 0 -53.885c0,-19.476 -7.229,-29.199 -21.722,-29.199 -7.291,0 -13.464,2.803 -18.449,8.445 -4.985,5.639 -7.479,12.872 -7.479,21.691l0 52.948 -14.989 0 0 -138.403 14.989 0 0 60.428 0.374 0c7.167,-11.811 17.391,-17.7 30.666,-17.7 21.066,0 31.602,12.685 31.602,38.051l0 57.624zm114.966 -46.935c0,15.521 -3.274,27.583 -9.85,36.214 -6.575,8.601 -15.395,12.903 -26.396,12.903 -5.112,0 -9.317,-0.718 -12.591,-2.182l0 -15.147c3.274,2.37 7.544,3.554 12.779,3.554 13.805,0 20.725,-11.717 20.725,-35.154l0 -84.176 15.333 0 0 83.988zm70.307 49.117c-13.804,0 -24.838,-4.364 -33.095,-13.089 -8.227,-8.728 -12.373,-20.321 -12.373,-34.75 0,-15.707 4.299,-27.954 12.871,-36.806 8.601,-8.819 20.194,-13.212 34.809,-13.212 13.931,0 24.809,4.269 32.63,12.871 7.824,8.569 11.72,20.474 11.72,35.683 0,14.927 -4.208,26.865 -12.624,35.84 -8.446,8.976 -19.759,13.463 -33.938,13.463zm1.09 -85.266c-9.597,0 -17.203,3.272 -22.813,9.818 -5.609,6.543 -8.413,15.55 -8.413,27.079 0,11.066 2.836,19.791 8.508,26.178 5.671,6.39 13.245,9.6 22.718,9.6 9.694,0 17.141,-3.148 22.347,-9.411 5.203,-6.264 7.792,-15.177 7.792,-26.741 0,-11.685 -2.589,-20.692 -7.792,-27.018 -5.206,-6.357 -12.653,-9.505 -22.347,-9.505zm84.768 69.559l-0.374 0 0 13.525 -14.988 0 0 -138.403 14.988 0 0 61.332 0.374 0c7.356,-12.403 18.14,-18.604 32.318,-18.604 11.968,0 21.379,4.175 28.143,12.559 6.793,8.354 10.191,19.573 10.191,33.628 0,15.642 -3.804,28.172 -11.408,37.583 -7.603,9.382 -18.012,14.087 -31.225,14.087 -12.373,0 -21.69,-5.235 -28.019,-15.707zm-0.374 -37.709l0 13.056c0,7.73 2.495,14.306 7.542,19.697 5.018,5.392 11.375,8.072 19.105,8.072 9.07,0 16.175,-3.46 21.316,-10.41 5.142,-6.949 7.73,-16.578 7.73,-28.952 0,-10.406 -2.4,-18.542 -7.232,-24.464 -4.8,-5.89 -11.313,-8.849 -19.508,-8.849 -8.726,0 -15.707,3.021 -21.005,9.07 -5.297,6.075 -7.948,13.648 -7.948,22.78zm89.286 47.868l0 -16.08c8.133,6.016 17.141,9.037 26.926,9.037 13.151,0 19.727,-4.394 19.727,-13.151 0,-2.494 -0.56,-4.612 -1.682,-6.325 -1.154,-1.747 -2.65,-3.275 -4.582,-4.615 -1.902,-1.34 -4.175,-2.556 -6.764,-3.613 -2.585,-1.06 -5.359,-2.182 -8.351,-3.336 -4.146,-1.652 -7.759,-3.304 -10.907,-4.985 -3.115,-1.652 -5.733,-3.555 -7.853,-5.642 -2.088,-2.118 -3.678,-4.488 -4.738,-7.168 -1.06,-2.68 -1.59,-5.827 -1.59,-9.411 0,-4.394 0.998,-8.26 2.991,-11.655 2.026,-3.366 4.709,-6.202 8.042,-8.478 3.366,-2.276 7.168,-4.019 11.47,-5.174 4.27,-1.151 8.725,-1.713 13.275,-1.713 8.103,0 15.333,1.401 21.722,4.175l0 15.177c-6.858,-4.517 -14.773,-6.761 -23.716,-6.761 -2.806,0 -5.33,0.312 -7.606,0.966 -2.244,0.624 -4.176,1.525 -5.795,2.68 -1.59,1.154 -2.836,2.556 -3.74,4.146 -0.872,1.619 -1.31,3.395 -1.31,5.359 0,2.429 0.438,4.455 1.31,6.107 0.904,1.652 2.182,3.119 3.896,4.397 1.681,1.275 3.769,2.429 6.201,3.457 2.43,1.03 5.204,2.152 8.322,3.365 4.114,1.591 7.853,3.21 11.125,4.895 3.272,1.681 6.078,3.551 8.413,5.671 2.309,2.088 4.084,4.52 5.33,7.262 1.248,2.741 1.87,5.983 1.87,9.755 0,4.641 -1.028,8.664 -3.054,12.059 -2.055,3.398 -4.767,6.234 -8.166,8.478 -3.427,2.276 -7.352,3.925 -11.778,5.05 -4.458,1.089 -9.102,1.619 -13.993,1.619 -9.6,0 -17.951,-1.84 -24.995,-5.548z"/>
    <path class="fil5" d="M6125.151 840.241c32.412,0 61.758,13.14 82.998,34.383 21.243,21.24 34.383,50.592 34.383,82.998 0,32.407 -13.143,61.759 -34.383,82.999 -21.24,21.24 -50.592,34.379 -82.998,34.379 -32.407,0 -61.756,-13.139 -82.996,-34.379 -21.24,-21.24 -34.382,-50.592 -34.382,-82.999 0,-32.406 13.139,-61.758 34.379,-82.998 21.24,-21.24 50.592,-34.383 82.999,-34.383zm75.654 41.727c-19.358,-19.362 -46.107,-31.338 -75.654,-31.338 -29.544,0 -56.294,11.976 -75.655,31.338 -19.355,19.355 -31.334,46.11 -31.334,75.654 0,29.544 11.976,56.294 31.337,75.655 19.355,19.356 46.108,31.335 75.652,31.335 29.544,0 56.299,-11.979 75.654,-31.335 19.362,-19.361 31.338,-46.111 31.338,-75.655 0,-29.544 -11.976,-56.296 -31.338,-75.654z"/>
    <path class="fil5" d="M6137.224 889.212c-2.821,-0.492 -4.712,-3.184 -4.22,-6.005 0.492,-2.821 3.183,-4.711 6.004,-4.219 11.599,2.043 22.474,6.619 31.927,13.239 9.437,6.608 17.45,15.265 23.351,25.489 1.422,2.474 0.568,5.636 -1.905,7.058 -2.474,1.423 -5.636,0.569 -7.059,-1.905 -5.126,-8.881 -12.096,-16.41 -20.312,-22.161 -8.192,-5.737 -17.659,-9.712 -27.786,-11.496z"/>
    <path class="fil5" d="M6200.805 1040.618c-2.026,-2.026 -2.026,-5.318 0,-7.344 2.026,-2.026 5.319,-2.026 7.344,0l22.733 22.733c2.026,2.026 2.026,5.318 0,7.344 -2.026,2.026 -5.318,2.026 -7.344,0l-22.733 -22.733z"/>
    <path class="fil5" d="M6223.535 1056.016c3.961,-3.969 9.179,-5.951 14.388,-5.951 5.206,0 10.424,1.982 14.385,5.942l28.64 28.64c3.961,3.961 5.942,9.179 5.942,14.385 0,5.209 -1.981,10.427 -5.942,14.388 -3.978,3.954 -9.193,5.942 -14.385,5.942 -5.209,0 -10.424,-1.982 -14.385,-5.942l-28.643 -28.643c-3.957,-3.958 -5.942,-9.176 -5.942,-14.385 0,-5.194 1.985,-10.404 5.942,-14.376zm14.388 4.438c-2.553,0 -5.112,0.965 -7.044,2.897 -1.931,1.917 -2.897,4.476 -2.897,7.041 0,2.553 0.969,5.112 2.897,7.041l28.643 28.643c1.932,1.931 4.488,2.897 7.041,2.897 2.565,0 5.127,-0.96 7.041,-2.877 1.932,-1.952 2.897,-4.511 2.897,-7.064 0,-2.553 -0.965,-5.109 -2.897,-7.041l-28.64 -28.64c-1.932,-1.932 -4.488,-2.897 -7.041,-2.897z"/>
    <path class="fil5" d="M5657.238 726.83l0.003 -54.197c-0.021,-13.925 5.889,-26.584 15.4,-35.754 9.459,-9.117 22.492,-14.78 36.812,-14.78l435.474 0c14.317,0 27.35,5.663 36.806,14.78 9.511,9.167 15.421,21.832 15.421,35.754l-0.024 55.522c0,2.279 -1.475,4.214 -3.521,4.903 -37.516,14.008 -71.78,26.973 -105.34,39.668 -32.201,12.182 -63.815,24.143 -101.96,38.372 -2.005,0.748 -5.495,2.132 -8.837,3.451 -14.865,5.878 -27.948,11.054 -50.289,11.054 -22.303,0 -35.375,-5.167 -50.201,-11.024 -3.354,-1.328 -6.75,-2.671 -8.929,-3.481 -36.743,-13.708 -68.566,-26.066 -100.952,-38.643 -33.357,-12.954 -67.333,-26.152 -106.495,-40.778 -2.081,-0.775 -3.365,-2.747 -3.368,-4.847zm10.359 -54.197l-0.012 50.61c38.543,14.423 71.182,27.1 103.25,39.553 32.742,12.715 64.918,25.213 100.829,38.608 4.09,1.522 6.675,2.544 9.134,3.516 13.843,5.468 26.052,10.295 46.385,10.295 20.371,0 32.591,-4.836 46.473,-10.324 2.42,-0.955 4.841,-1.917 9.043,-3.487 35.298,-13.166 68.257,-25.636 101.918,-38.372 31.178,-11.794 62.94,-23.814 102.166,-38.466l0.003 -51.933c-0.021,-11.007 -4.7,-21.028 -12.232,-28.287 -7.586,-7.314 -18.075,-11.858 -29.627,-11.858l-435.474 0c-11.552,0 -22.044,4.544 -29.632,11.858 -7.533,7.262 -12.212,17.28 -12.224,28.287z"/>
    <path class="fil5" d="M5702.886 699.715c0,2.857 -2.317,5.174 -5.174,5.174 -2.856,0 -5.173,-2.317 -5.173,-5.174l0.003 -11.528c-0.021,-9.335 4.116,-17.804 10.774,-23.911 6.543,-6.004 15.542,-9.738 25.407,-9.738l45.392 0c2.868,0 5.195,2.326 5.195,5.194 0,2.869 -2.327,5.195 -5.195,5.195l-45.392 0c-7.191,0 -13.699,2.674 -18.387,6.976 -4.579,4.199 -7.426,9.971 -7.426,16.284l-0.024 11.528z"/>
    <path class="fil5" d="M5986.023 1008.333c2.868,0 5.195,2.326 5.195,5.194 0,2.868 -2.327,5.195 -5.195,5.195l-268.711 0c-13.896,0 -26.537,-5.687 -35.692,-14.842 -9.155,-9.155 -14.841,-21.793 -14.841,-35.692l0 -194.29c0,-2.868 2.326,-5.195 5.194,-5.195 2.868,0 5.194,2.327 5.194,5.195l0 194.29c0,11.034 4.52,21.072 11.797,28.348 7.276,7.277 17.317,11.797 28.348,11.797l268.711 0z"/>
    <path class="fil5" d="M6177.207 775.223c0,-2.868 2.326,-5.195 5.194,-5.195 2.868,0 5.195,2.327 5.195,5.195l0 47.253c0,2.868 -2.327,5.195 -5.195,5.195 -2.868,0 -5.194,-2.327 -5.194,-5.195l0 -47.253z"/>
    <path class="fil5" d="M5978.143 808.71c0,-2.868 2.327,-5.195 5.195,-5.195 2.868,0 5.194,2.327 5.194,5.195l0 71.703c0,2.868 -2.326,5.194 -5.194,5.194l-112.313 0c-2.869,0 -5.195,-2.326 -5.195,-5.194l0 -71.703c0,-2.868 2.326,-5.195 5.195,-5.195 2.868,0 5.194,2.327 5.194,5.195l0 66.508 101.924 0 0 -66.508z"/>
    <path class="fil5" d="M5820.765 597.47c0,2.868 -2.327,5.195 -5.195,5.195 -2.868,0 -5.194,-2.327 -5.194,-5.195 0,-16.455 6.731,-31.411 17.568,-42.253 10.854,-10.857 25.816,-17.595 42.259,-17.595l113.939 0c16.443,0 31.405,6.744 42.256,17.598 10.839,10.842 17.571,25.807 17.571,42.25 0,2.868 -2.327,5.195 -5.195,5.195 -2.868,0 -5.194,-2.327 -5.194,-5.195 0,-13.607 -5.566,-25.984 -14.526,-34.947 -8.949,-8.952 -21.311,-14.512 -34.912,-14.512l-113.939 0c-13.607,0 -25.966,5.557 -34.915,14.509 -8.958,8.963 -14.523,21.334 -14.523,34.95z"/>
   </g>
   <path class="fil4" d="M2458.436 4105.275l276.779 232.009 0 -232.009 269.353 0c73.57,0 133.762,-60.192 133.762,-133.762l0 -1027.529c0,-73.573 -60.189,-133.765 -133.762,-133.765l-1490.195 0c-73.572,0 -133.765,60.198 -133.765,133.765l0 1027.529c0,73.564 60.198,133.762 133.765,133.762l944.063 0z"/>
   <g>
    <path class="fil5" d="M1810.773 3824.432l-15.097 0 -12.326 -32.633 -49.365 0 -11.608 32.633 -15.153 0 44.629 -116.374 14.126 0 44.794 116.374zm-31.911 -44.877l-18.257 -49.585c-0.58,-1.634 -1.19,-4.238 -1.773,-7.783l-0.333 0c-0.524,3.295 -1.163,5.872 -1.855,7.783l-18.115 49.585 40.333 0zm90.581 -24.764c-2.326,-1.773 -5.677,-2.659 -10.053,-2.659 -5.707,0 -10.445,2.659 -14.267,8.033 -3.796,5.347 -5.707,12.659 -5.707,21.911l0 42.356 -13.324 0 0 -83.105 13.324 0 0 17.121 0.333 0c1.882,-5.845 4.764,-10.389 8.669,-13.684 3.908,-3.272 8.257,-4.906 13.077,-4.906 3.46,0 6.093,0.389 7.948,1.137l0 13.796zm79.035 31.413l-58.672 0c0.223,9.253 2.715,16.399 7.479,21.441 4.765,5.014 11.302,7.535 19.641,7.535 9.364,0 17.951,-3.074 25.819,-9.252l0 12.494c-7.314,5.318 -16.982,7.951 -28.976,7.951 -11.746,0 -20.972,-3.769 -27.674,-11.305 -6.731,-7.562 -10.085,-18.171 -10.085,-31.855 0,-12.936 3.687,-23.464 10.998,-31.609 7.341,-8.145 16.455,-12.217 27.315,-12.217 10.887,0 19.279,3.519 25.236,10.557 5.954,7.008 8.919,16.787 8.919,29.279l0 6.981zm-13.628 -11.275c-0.055,-7.674 -1.911,-13.657 -5.541,-17.951 -3.658,-4.266 -8.726,-6.398 -15.236,-6.398 -6.261,0 -11.608,2.244 -15.984,6.731 -4.376,4.488 -7.091,10.36 -8.116,17.618l44.877 0zm145.462 -33.602l-38.228 96.403c-6.817,17.23 -16.402,25.817 -28.728,25.817 -3.463,0 -6.343,-0.36 -8.669,-1.052l0 -11.94c2.853,0.968 5.483,1.469 7.865,1.469 6.705,0 11.746,-3.99 15.097,-11.997l6.649 -15.76 -32.465 -82.94 14.765 0 22.494 63.965c0.277,0.801 0.831,2.906 1.687,6.313l0.501 0c0.277,-1.301 0.804,-3.351 1.605,-6.175l23.631 -64.103 13.796 0zm48.198 85.046c-12.273,0 -22.079,-3.881 -29.42,-11.638 -7.312,-7.756 -10.998,-18.059 -10.998,-30.886 0,-13.961 3.825,-24.848 11.443,-32.716 7.644,-7.838 17.951,-11.746 30.942,-11.746 12.383,0 22.05,3.796 29.003,11.443 6.952,7.618 10.415,18.198 10.415,31.717 0,13.269 -3.74,23.879 -11.219,31.859 -7.506,7.977 -17.562,11.967 -30.166,11.967zm0.969 -75.793c-8.531,0 -15.292,2.909 -20.277,8.725 -4.985,5.818 -7.479,13.825 -7.479,24.073 0,9.835 2.52,17.591 7.562,23.268 5.041,5.681 11.772,8.534 20.194,8.534 8.616,0 15.236,-2.797 19.862,-8.366 4.626,-5.568 6.926,-13.489 6.926,-23.769 0,-10.386 -2.3,-18.393 -6.926,-24.017 -4.626,-5.651 -11.246,-8.448 -19.862,-8.448zm128.895 73.852l-13.295 0 0 -13.157 -0.333 0c-5.513,10.083 -14.073,15.098 -25.651,15.098 -19.809,0 -29.697,-11.776 -29.697,-35.378l0 -49.668 13.212 0 0 47.563c0,17.536 6.732,26.29 20.139,26.29 6.484,0 11.829,-2.382 16.04,-7.176 4.184,-4.791 6.29,-11.051 6.29,-18.808l0 -47.869 13.295 0 0 83.105zm141.418 0l-13.324 0 0 -47.895c0,-17.315 -6.429,-25.957 -19.309,-25.957 -6.484,0 -11.967,2.494 -16.399,7.506 -4.434,5.014 -6.649,11.443 -6.649,19.281l0 47.065 -13.324 0 0 -123.023 13.324 0 0 53.714 0.333 0c6.369,-10.5 15.457,-15.736 27.259,-15.736 18.725,0 28.089,11.275 28.089,33.826l0 51.219zm30.996 -104.212c-2.382,0 -4.405,-0.804 -6.093,-2.438 -1.663,-1.608 -2.494,-3.657 -2.494,-6.152 0,-2.491 0.831,-4.57 2.494,-6.204 1.688,-1.661 3.711,-2.494 6.093,-2.494 2.438,0 4.517,0.833 6.204,2.494 1.72,1.634 2.577,3.713 2.577,6.204 0,2.383 -0.857,4.406 -2.577,6.069 -1.687,1.688 -3.766,2.521 -6.204,2.521zm6.511 80.999c0,7.618 2.935,11.44 8.837,11.44 2.382,0 4.514,-0.306 6.398,-0.886l0 12.023c-1.024,0.248 -2.382,0.524 -4.099,0.748 -1.69,0.248 -3.492,0.386 -5.374,0.386 -2.662,0 -5.153,-0.442 -7.479,-1.302 -2.329,-0.886 -4.349,-2.187 -6.04,-3.987 -1.716,-1.775 -3.074,-4.019 -4.072,-6.705 -0.998,-2.659 -1.496,-5.789 -1.496,-9.364l0 -62.245 13.325 0 0 59.892zm73.048 -46.428c-2.326,-1.773 -5.677,-2.659 -10.053,-2.659 -5.707,0 -10.445,2.659 -14.267,8.033 -3.795,5.347 -5.707,12.659 -5.707,21.911l0 42.356 -13.324 0 0 -83.105 13.324 0 0 17.121 0.333 0c1.882,-5.845 4.765,-10.389 8.669,-13.684 3.908,-3.272 8.257,-4.906 13.078,-4.906 3.46,0 6.092,0.389 7.947,1.137l0 13.796zm20.363 -34.571c-2.382,0 -4.405,-0.804 -6.093,-2.438 -1.663,-1.608 -2.494,-3.657 -2.494,-6.152 0,-2.491 0.831,-4.57 2.494,-6.204 1.688,-1.661 3.711,-2.494 6.093,-2.494 2.438,0 4.517,0.833 6.204,2.494 1.72,1.634 2.577,3.713 2.577,6.204 0,2.383 -0.857,4.406 -2.577,6.069 -1.687,1.688 -3.766,2.521 -6.204,2.521zm6.511 80.999c0,7.618 2.935,11.44 8.836,11.44 2.383,0 4.515,-0.306 6.399,-0.886l0 12.023c-1.024,0.248 -2.382,0.524 -4.099,0.748 -1.69,0.248 -3.492,0.386 -5.374,0.386 -2.662,0 -5.153,-0.442 -7.479,-1.302 -2.329,-0.886 -4.35,-2.187 -6.04,-3.987 -1.717,-1.775 -3.074,-4.019 -4.072,-6.705 -0.999,-2.659 -1.496,-5.789 -1.496,-9.364l0 -62.245 13.325 0 0 59.892zm98.702 23.213l-13.324 0 0 -47.397c0,-17.645 -6.429,-26.455 -19.309,-26.455 -6.649,0 -12.161,2.494 -16.511,7.506 -4.375,5.014 -6.537,11.331 -6.537,18.949l0 47.397 -13.324 0 0 -83.105 13.324 0 0 13.796 0.333 0c6.26,-10.5 15.345,-15.736 27.259,-15.736 9.084,0 16.037,2.939 20.857,8.81 4.821,5.846 7.232,14.35 7.232,25.431l0 50.804zm96.012 -6.649c0,30.501 -14.6,45.764 -43.823,45.764 -10.277,0 -19.252,-1.938 -26.956,-5.846l0 -13.295c9.364,5.18 18.284,7.783 26.788,7.783 20.445,0 30.666,-10.887 30.666,-32.633l0 -9.084 -0.303 0c-6.346,10.609 -15.875,15.901 -28.59,15.901 -10.333,0 -18.643,-3.687 -24.93,-11.081 -6.316,-7.371 -9.476,-17.288 -9.476,-29.724 0,-14.128 3.41,-25.347 10.195,-33.687 6.787,-8.336 16.095,-12.494 27.868,-12.494 11.219,0 19.503,4.488 24.933,13.463l0.303 0 0 -11.523 13.325 0 0 76.456zm-13.325 -30.913l0 -12.273c0,-6.594 -2.214,-12.244 -6.676,-16.953 -4.461,-4.709 -10.026,-7.064 -16.675,-7.064 -8.228,0 -14.683,2.991 -19.335,8.975 -4.656,5.984 -6.982,14.35 -6.982,25.098 0,9.252 2.244,16.649 6.702,22.217 4.461,5.539 10.389,8.31 17.73,8.31 7.48,0 13.546,-2.659 18.228,-7.951 4.682,-5.318 7.008,-12.105 7.008,-20.359zm53.964 5.262c-0.471,-1.413 -0.916,-3.242 -1.275,-5.486 -0.389,-2.244 -0.583,-4.458 -0.583,-6.675 0,-3.463 0.692,-6.594 2.079,-9.391 1.384,-2.771 3.101,-5.401 5.153,-7.839 2.05,-2.411 4.294,-4.764 6.732,-7.008 2.435,-2.244 4.679,-4.517 6.731,-6.814 2.05,-2.3 3.767,-4.712 5.151,-7.232 1.387,-2.521 2.079,-5.292 2.079,-8.31 0,-2.603 -0.498,-4.903 -1.496,-6.897 -0.999,-1.996 -2.383,-3.686 -4.099,-5.041 -1.747,-1.357 -3.74,-2.356 -6.013,-3.048 -2.271,-0.665 -4.682,-0.998 -7.23,-0.998 -9.143,0 -17.064,3.601 -23.769,10.778l0 -14.267c8.283,-5.209 16.844,-7.813 25.736,-7.813 4.099,0 7.978,0.554 11.579,1.635 3.628,1.08 6.814,2.685 9.558,4.82 2.715,2.162 4.874,4.821 6.455,8.004 1.549,3.186 2.353,6.899 2.353,11.11 0,4.017 -0.719,7.589 -2.132,10.719 -1.387,3.133 -3.16,6.013 -5.292,8.645 -2.161,2.63 -4.461,5.068 -6.952,7.341 -2.494,2.271 -4.794,4.541 -6.926,6.785 -2.161,2.244 -3.934,4.573 -5.318,7.008 -1.413,2.439 -2.135,5.127 -2.135,8.033 0,2.495 0.306,4.768 0.916,6.788 0.58,2.023 1.19,3.74 1.773,5.153l-13.075 0zm7.312 33.77c-2.382,0 -4.488,-0.887 -6.316,-2.606 -1.8,-1.744 -2.686,-3.849 -2.686,-6.343 0,-2.521 0.886,-4.653 2.686,-6.317 1.772,-1.799 3.878,-2.685 6.316,-2.685 2.438,0 4.544,0.886 6.343,2.685 1.772,1.664 2.662,3.796 2.662,6.317 0,2.494 -0.89,4.599 -2.662,6.343 -1.855,1.719 -3.961,2.606 -6.343,2.606z"/>
    <path class="fil5" d="M2216.598 3046.751c61.308,0 116.821,24.856 156.998,65.03 40.178,40.177 65.031,95.687 65.031,156.996 0,61.308 -24.856,116.821 -65.031,156.998 -40.177,40.175 -95.69,65.031 -156.998,65.031 -61.309,0 -116.819,-24.853 -156.996,-65.031 -40.18,-40.18 -65.033,-95.69 -65.033,-156.998 0,-61.309 24.853,-116.819 65.03,-156.996 40.177,-40.174 95.69,-65.03 156.999,-65.03zm149.654 72.374c-38.298,-38.296 -91.211,-61.986 -149.654,-61.986 -58.443,0 -111.356,23.69 -149.655,61.986 -38.296,38.296 -61.986,91.209 -61.986,149.652 0,58.443 23.69,111.356 61.989,149.654 38.296,38.296 91.209,61.986 149.652,61.986 58.443,0 111.356,-23.69 149.654,-61.986 38.296,-38.298 61.986,-91.211 61.986,-149.654 0,-58.443 -23.69,-111.356 -61.986,-149.652z"/>
    <path class="fil5" d="M2324.349 3140.377c-2.193,-1.838 -2.485,-5.109 -0.647,-7.303 1.837,-2.194 5.109,-2.485 7.302,-0.648 16.005,13.431 29.415,29.5 39.73,47.371 10.315,17.872 17.53,37.51 21.155,58.081 0.491,2.821 -1.399,5.513 -4.22,6.004 -2.821,0.492 -5.513,-1.398 -6.004,-4.219 -3.425,-19.435 -10.209,-37.934 -19.895,-54.713 -9.685,-16.775 -22.311,-31.893 -37.421,-44.573z"/>
    <path class="fil5" d="M2366.246 3425.769c-2.026,-2.025 -2.026,-5.318 0,-7.344 2.026,-2.026 5.318,-2.026 7.344,0l43.941 43.938c2.026,2.026 2.026,5.318 0,7.344 -2.026,2.026 -5.318,2.026 -7.344,0l-43.941 -43.938z"/>
    <path class="fil5" d="M2410.181 3462.369l0.029 -0.009c6.708,-6.705 15.537,-10.062 24.353,-10.062 8.831,0 17.668,3.357 24.376,10.065l55.363 55.36c6.708,6.708 10.065,15.548 10.065,24.379 0,8.828 -3.357,17.665 -10.062,24.373l-0.029 0.012c-6.708,6.705 -15.537,10.062 -24.353,10.062 -8.831,0 -17.668,-3.357 -24.376,-10.065l-55.363 -55.36c-6.708,-6.708 -10.065,-15.548 -10.065,-24.379 0,-8.831 3.354,-17.668 10.062,-24.376zm7.347 7.332c-4.679,4.688 -7.02,10.866 -7.02,17.044 0,6.178 2.344,12.359 7.02,17.035l55.36 55.357c4.679,4.679 10.857,7.023 17.035,7.023 6.157,0 12.312,-2.317 16.982,-6.949l0.053 -0.077c4.676,-4.676 7.02,-10.854 7.02,-17.032 0,-6.178 -2.344,-12.359 -7.02,-17.035l-55.36 -55.357c-4.679,-4.679 -10.857,-7.023 -17.035,-7.023 -6.181,0 -12.365,2.341 -17.035,7.014z"/>
    <path class="fil5" d="M2173.599 3279.754c-0.907,-2.709 0.557,-5.644 3.266,-6.551 2.709,-0.907 5.645,0.556 6.552,3.265 8.145,24.17 1.714,39.247 -11.882,48.988 -12.644,9.064 -31.458,12.877 -49.989,15.197 -3.633,0.454 -7.553,0.857 -11.069,1.217 -17.812,1.825 -23.643,2.429 -40.686,22.535 -1.847,2.182 -5.121,2.453 -7.303,0.607 -2.182,-1.846 -2.453,-5.121 -0.607,-7.303 19.741,-23.289 26.596,-23.999 47.542,-26.146 2.971,-0.303 6.296,-0.648 10.863,-1.216 17.129,-2.147 34.356,-5.554 45.207,-13.331 9.897,-7.09 14.435,-18.48 8.106,-37.262z"/>
    <path class="fil5" d="M2247.14 3276.468c0.907,-2.709 3.843,-4.172 6.552,-3.265 2.709,0.907 4.172,3.842 3.265,6.551 -6.325,18.782 -1.787,30.172 8.11,37.262 10.851,7.777 28.078,11.184 45.204,13.331 4.567,0.568 7.892,0.913 10.863,1.216 20.948,2.147 27.804,2.854 47.542,26.146 1.846,2.182 1.575,5.457 -0.607,7.303 -2.182,1.846 -5.456,1.575 -7.303,-0.607 -17.041,-20.106 -22.871,-20.71 -40.686,-22.535 -3.516,-0.36 -7.436,-0.763 -11.069,-1.217 -18.528,-2.32 -37.342,-6.133 -49.986,-15.197 -13.596,-9.741 -20.027,-24.818 -11.885,-48.988z"/>
    <path class="fil5" d="M2162.884 3199.2l0 37.701c0,4.699 1.34,9.676 3.527,14.62 2.674,6.036 6.594,11.994 10.931,17.382 5.468,6.794 11.823,12.648 18.769,16.644 6.022,3.463 12.512,5.542 19.253,5.615 6.737,-0.073 13.224,-2.149 19.246,-5.615 6.947,-3.993 13.307,-9.853 18.773,-16.644 4.34,-5.394 8.259,-11.348 10.933,-17.385 2.188,-4.938 3.528,-9.915 3.528,-14.617l0.015 -38.667c-0.127,-6.47 -1.299,-13.569 -3.083,-19.918 -1.785,-6.349 -4.126,-11.773 -6.561,-14.794 -2.2,-2.733 -4.488,-4.756 -6.932,-6.184 -2.45,-1.413 -5.115,-2.311 -8.068,-2.797 -2.271,-0.374 -4.688,-0.554 -7.215,-0.554 -15.742,0 -33.51,7.3 -47.724,16.702 -13.846,9.158 -24.073,19.936 -25.31,27.415 -0.053,0.327 -0.082,0.698 -0.082,1.096zm-10.389 37.701l0 -37.701c0,-0.842 0.085,-1.77 0.247,-2.756 1.699,-10.283 13.734,-23.758 29.815,-34.394 15.704,-10.389 35.548,-18.452 53.443,-18.452 2.96,0 5.928,0.233 8.875,0.719 4.244,0.701 8.087,1.996 11.635,4.069 3.542,2.091 6.77,4.909 9.779,8.646 3.316,4.114 6.328,10.872 8.469,18.487 1.997,7.099 3.31,15.129 3.445,22.547l0.03 38.835c0,6.23 -1.679,12.606 -4.423,18.798 -3.057,6.906 -7.48,13.637 -12.353,19.694 -6.207,7.713 -13.546,14.435 -21.694,19.117 -7.5,4.314 -15.683,6.903 -24.305,7l-0.135 0c-8.643,-0.086 -16.847,-2.677 -24.365,-7 -8.148,-4.688 -15.483,-11.404 -21.69,-19.117 -4.868,-6.051 -9.291,-12.785 -12.35,-19.691 -2.745,-6.198 -4.423,-12.573 -4.423,-18.801z"/>
    <path class="fil5" d="M2272.994 3237.219c-2.868,0 -5.194,-2.327 -5.194,-5.195 0,-2.868 2.326,-5.194 5.194,-5.194 2.15,0 4.111,-0.901 5.527,-2.35l0.209 -0.2c1.32,-1.464 2.135,-3.44 2.135,-5.622 0,-2.279 -0.898,-4.34 -2.344,-5.818 -1.416,-1.449 -3.374,-2.35 -5.527,-2.35 -2.868,0 -5.194,-2.327 -5.194,-5.195 0,-2.868 2.326,-5.194 5.194,-5.194 5.065,0 9.647,2.096 12.954,5.477 3.277,3.351 5.306,7.983 5.306,13.08 0,4.93 -1.911,9.42 -5.003,12.745l-0.303 0.338c-3.307,3.381 -7.895,5.478 -12.954,5.478z"/>
    <path class="fil5" d="M2157.645 3226.83c2.868,0 5.195,2.326 5.195,5.194 0,2.868 -2.327,5.195 -5.195,5.195 -5.065,0 -9.647,-2.097 -12.954,-5.478l-0.3 -0.332c-3.101,-3.328 -5.009,-7.821 -5.009,-12.751 0,-5.1 2.032,-9.729 5.309,-13.08 3.307,-3.381 7.889,-5.477 12.954,-5.477 2.868,0 5.195,2.326 5.195,5.194 0,2.868 -2.327,5.195 -5.195,5.195 -2.152,0 -4.111,0.901 -5.527,2.35 -1.446,1.478 -2.347,3.539 -2.347,5.818 0,2.179 0.816,4.155 2.138,5.619l0.209 0.203c1.416,1.449 3.375,2.35 5.527,2.35z"/>
    <path class="fil5" d="M2287.049 3212.831c-1.678,2.305 -4.915,2.815 -7.22,1.136 -2.306,-1.678 -2.815,-4.914 -1.137,-7.22 2.715,-3.728 4.744,-8.189 6.031,-13.018 2.253,-8.449 2.214,-17.925 -0.303,-26.668 -2.48,-8.61 -7.374,-16.504 -14.859,-21.955 -3.664,-2.671 -7.998,-4.779 -13.019,-6.116 -1.823,-0.48 -3.165,-1.879 -3.657,-3.566 -2.583,-7.053 -5.574,-11.428 -9.915,-13.893 -4.682,-2.662 -11.381,-3.525 -21.084,-3.434 -8.533,0.083 -17.836,1.532 -26.846,4.276 -8.425,2.565 -16.588,6.281 -23.596,11.078 -11.402,7.8 -19.606,20.58 -23.296,34.512 -3.604,13.607 -2.882,28.23 3.393,40.277 1.322,2.541 0.33,5.677 -2.212,6.999 -2.541,1.323 -5.677,0.33 -6.999,-2.211 -7.515,-14.429 -8.437,-31.735 -4.205,-47.704 4.299,-16.231 13.972,-31.199 27.477,-40.436 7.859,-5.38 17.002,-9.544 26.434,-12.415 9.95,-3.03 20.268,-4.632 29.768,-4.723 11.531,-0.112 19.8,1.095 26.278,4.776 6.16,3.501 10.351,8.937 13.69,17.203 5.209,1.675 9.832,4.072 13.872,7.02 9.473,6.902 15.634,16.77 18.717,27.474 3.045,10.562 3.095,21.982 0.386,32.144 -1.602,6.01 -4.188,11.646 -7.698,16.464z"/>
    <path class="fil5" d="M2278.468 3331.805c-8.398,7.894 -18.301,14.243 -29.223,18.569 -10.515,4.181 -21.982,6.475 -33.967,6.475 -11.964,0 -23.445,-2.303 -33.999,-6.49 -10.933,-4.332 -20.842,-10.692 -29.241,-18.601l7.103 -7.545c7.474,7.038 16.269,12.692 25.954,16.529 9.3,3.689 19.488,5.718 30.183,5.718 10.648,0 20.825,-2.034 30.151,-5.724 9.676,-3.813 18.466,-9.453 25.937,-16.476l7.102 7.545z"/>
   </g>
   <path class="fil1" d="M6310.725 4329.001l-194.824 163.309 0 -163.309 -189.599 0c-51.782,0 -94.153,-42.371 -94.153,-94.157l0 -941.747c0,-51.788 42.368,-94.159 94.153,-94.159l1565.331 0c51.788,0 94.157,42.374 94.157,94.159l0 941.747c0,51.783 -42.372,94.157 -94.157,94.157l-1180.908 0z"/>
   <g>
    <path class="fil6" d="M6178.42 4091.047l-11.852 0 0 -68.305c0,-2.715 0.073,-5.769 0.244,-9.211 0.168,-3.419 0.412,-7.103 0.751,-11.031l-0.292 0c-0.268,1.14 -0.703,2.4 -1.26,3.781 -0.583,1.408 -1.187,2.765 -1.817,4.049 -0.656,1.31 -1.237,2.474 -1.77,3.516 -0.559,1.042 -0.945,1.84 -1.189,2.35l-26.128 48.284 -5.819 0 -26.128 -48.137c-0.245,-0.559 -0.657,-1.384 -1.213,-2.45 -0.557,-1.066 -1.164,-2.253 -1.77,-3.563 -0.63,-1.284 -1.21,-2.618 -1.743,-3.999 -0.56,-1.381 -0.972,-2.668 -1.237,-3.831l-0.292 0c0.195,2.038 0.339,4.776 0.436,8.219 0.074,3.466 0.121,7.515 0.121,12.144l0 68.184 -11.487 0 0 -101.83 14.906 0 26.419 48.431c1.14,2.132 2.109,4.12 2.91,5.963 0.801,1.843 1.404,3.466 1.769,4.823l0.436 0c0.463,-1.404 1.093,-3.077 1.867,-4.967 0.801,-1.891 1.793,-3.929 3.03,-6.111l26.349 -48.139 14.759 0 0 101.83zm77.204 0l-11.661 0 0 -11.37 -0.265 0c-5.068,8.728 -12.533,13.066 -22.374,13.066 -7.247,0 -12.918,-1.914 -17.014,-5.745 -4.096,-3.828 -6.134,-8.92 -6.134,-15.271 0,-13.572 8.001,-21.499 23.996,-23.705l21.791 -3.054c0,-12.361 -4.992,-18.542 -14.98,-18.542 -8.749,0 -16.652,2.98 -23.705,8.943l0 -11.926c7.15,-4.556 15.369,-6.811 24.7,-6.811 17.088,0 25.646,9.043 25.646,27.123l0 47.292zm-11.661 -36.794l-17.524 2.423c-5.407,0.751 -9.476,2.085 -12.218,4.023 -2.738,1.914 -4.119,5.309 -4.119,10.18 0,3.539 1.26,6.448 3.804,8.704 2.521,2.253 5.893,3.369 10.109,3.369 5.769,0 10.545,-2.038 14.3,-6.06 3.784,-4.049 5.648,-9.188 5.648,-15.392l0 -7.247zm93.976 36.794l-11.658 0 0 -41.473c0,-15.442 -5.624,-23.148 -16.896,-23.148 -5.816,0 -10.639,2.182 -14.447,6.569 -3.828,4.385 -5.718,9.912 -5.718,16.579l0 41.473 -11.658 0 0 -72.719 11.658 0 0 12.073 0.291 0c5.477,-9.187 13.428,-13.769 23.849,-13.769 7.951,0 14.034,2.57 18.254,7.709 4.217,5.115 6.325,12.556 6.325,22.25l0 44.456zm74.003 0l-11.661 0 0 -11.37 -0.265 0c-5.068,8.728 -12.532,13.066 -22.374,13.066 -7.246,0 -12.918,-1.914 -17.014,-5.745 -4.096,-3.828 -6.134,-8.92 -6.134,-15.271 0,-13.572 8.001,-21.499 23.996,-23.705l21.791 -3.054c0,-12.361 -4.991,-18.542 -14.979,-18.542 -8.749,0 -16.653,2.98 -23.705,8.943l0 -11.926c7.15,-4.556 15.368,-6.811 24.7,-6.811 17.088,0 25.645,9.043 25.645,27.123l0 47.292zm-11.661 -36.794l-17.524 2.423c-5.406,0.751 -9.476,2.085 -12.217,4.023 -2.739,1.914 -4.12,5.309 -4.12,10.18 0,3.539 1.261,6.448 3.805,8.704 2.52,2.253 5.892,3.369 10.109,3.369 5.769,0 10.545,-2.038 14.299,-6.06 3.784,-4.049 5.648,-9.188 5.648,-15.392l0 -7.247zm95.673 30.975c0,26.688 -12.774,40.045 -38.346,40.045 -8.993,0 -16.846,-1.696 -23.584,-5.115l0 -11.635c8.192,4.532 15.999,6.812 23.44,6.812 17.889,0 26.832,-9.527 26.832,-28.555l0 -7.951 -0.268 0c-5.551,9.285 -13.887,13.914 -25.012,13.914 -9.043,0 -16.314,-3.225 -21.817,-9.694 -5.528,-6.449 -8.29,-15.127 -8.29,-26.01 0,-12.362 2.983,-22.18 8.92,-29.474 5.939,-7.297 14.084,-10.933 24.385,-10.933 9.817,0 17.064,3.928 21.814,11.781l0.268 0 0 -10.085 11.658 0 0 66.9zm-11.658 -27.05l0 -10.736c0,-5.772 -1.938,-10.716 -5.842,-14.835 -3.902,-4.123 -8.776,-6.181 -14.591,-6.181 -7.2,0 -12.848,2.618 -16.92,7.853 -4.073,5.236 -6.108,12.556 -6.108,21.962 0,8.095 1.964,14.567 5.866,19.437 3.902,4.85 9.09,7.274 15.513,7.274 6.546,0 11.852,-2.329 15.948,-6.958 4.099,-4.653 6.134,-10.592 6.134,-17.816zm93.661 -0.58l-51.34 0c0.194,8.095 2.376,14.35 6.546,18.761 4.17,4.387 9.888,6.593 17.185,6.593 8.192,0 15.707,-2.692 22.592,-8.098l0 10.934c-6.399,4.652 -14.859,6.955 -25.354,6.955 -10.28,0 -18.351,-3.295 -24.217,-9.888 -5.89,-6.617 -8.822,-15.902 -8.822,-27.875 0,-11.322 3.224,-20.533 9.623,-27.659 6.422,-7.126 14.396,-10.689 23.899,-10.689 9.526,0 16.87,3.08 22.082,9.234 5.212,6.134 7.806,14.691 7.806,25.622l0 6.11zm-11.926 -9.868c-0.05,-6.713 -1.672,-11.949 -4.849,-15.706 -3.198,-3.731 -7.633,-5.598 -13.331,-5.598 -5.477,0 -10.156,1.964 -13.984,5.889 -3.831,3.928 -6.208,9.067 -7.103,15.415l39.267 0zm140.27 39.05c-7.512,3.975 -16.893,5.963 -28.115,5.963 -14.497,0 -26.082,-4.653 -34.783,-13.984 -8.728,-9.332 -13.089,-21.573 -13.089,-36.724 0,-16.263 4.92,-29.426 14.711,-39.461 9.794,-10.059 22.227,-15.077 37.28,-15.077 9.647,0 17.648,1.405 23.996,4.193l0 12.727c-7.294,-4.072 -15.341,-6.11 -24.14,-6.11 -11.685,0 -21.161,3.905 -28.434,11.708 -7.27,7.806 -10.907,18.251 -10.907,31.317 0,12.412 3.395,22.3 10.18,29.644 6.811,7.37 15.707,11.054 26.761,11.054 10.203,0 19.076,-2.279 26.54,-6.811l0 11.561zm71.241 4.267l-11.661 0 0 -11.37 -0.265 0c-5.068,8.728 -12.532,13.066 -22.374,13.066 -7.246,0 -12.918,-1.914 -17.014,-5.745 -4.096,-3.828 -6.134,-8.92 -6.134,-15.271 0,-13.572 8.001,-21.499 23.996,-23.705l21.791 -3.054c0,-12.361 -4.991,-18.542 -14.98,-18.542 -8.748,0 -16.652,2.98 -23.704,8.943l0 -11.926c7.149,-4.556 15.368,-6.811 24.7,-6.811 17.088,0 25.645,9.043 25.645,27.123l0 47.292zm-11.661 -36.794l-17.524 2.423c-5.406,0.751 -9.476,2.085 -12.217,4.023 -2.739,1.914 -4.12,5.309 -4.12,10.18 0,3.539 1.261,6.448 3.805,8.704 2.52,2.253 5.892,3.369 10.109,3.369 5.768,0 10.545,-2.038 14.299,-6.06 3.784,-4.049 5.648,-9.188 5.648,-15.392l0 -7.247zm93.977 36.794l-11.658 0 0 -41.473c0,-15.442 -5.625,-23.148 -16.897,-23.148 -5.816,0 -10.639,2.182 -14.447,6.569 -3.828,4.385 -5.718,9.912 -5.718,16.579l0 41.473 -11.658 0 0 -72.719 11.658 0 0 12.073 0.291 0c5.478,-9.187 13.428,-13.769 23.849,-13.769 7.951,0 14.035,2.57 18.254,7.709 4.217,5.115 6.326,12.556 6.326,22.25l0 44.456zm84.011 0l-11.658 0 0 -12.362 -0.268 0c-5.403,9.382 -13.742,14.058 -25.012,14.058 -9.113,0 -16.434,-3.248 -21.887,-9.768 -5.481,-6.496 -8.219,-15.368 -8.219,-26.59 0,-12.023 3.03,-21.646 9.09,-28.893 6.06,-7.247 14.132,-10.86 24.214,-10.86 9.989,0 17.259,3.928 21.814,11.781l0.268 0 0 -45.012 11.658 0 0 107.646zm-11.658 -32.869l0 -10.736c0,-5.866 -1.937,-10.837 -5.818,-14.909 -3.878,-4.073 -8.799,-6.107 -14.762,-6.107 -7.1,0 -12.7,2.594 -16.773,7.803 -4.072,5.212 -6.107,12.412 -6.107,21.599 0,8.387 1.964,14.98 5.866,19.85 3.901,4.85 9.161,7.274 15.73,7.274 6.496,0 11.755,-2.353 15.804,-7.029 4.049,-4.679 6.06,-10.619 6.06,-17.745zm40.407 -58.319c-2.084,0 -3.854,-0.704 -5.332,-2.132 -1.455,-1.408 -2.182,-3.201 -2.182,-5.383 0,-2.182 0.727,-3.999 2.182,-5.43 1.478,-1.452 3.248,-2.179 5.332,-2.179 2.132,0 3.952,0.727 5.43,2.179 1.502,1.431 2.253,3.248 2.253,5.43 0,2.085 -0.751,3.855 -2.253,5.309 -1.478,1.478 -3.298,2.206 -5.43,2.206zm5.695 70.875c0,6.667 2.571,10.012 7.733,10.012 2.085,0 3.952,-0.268 5.601,-0.777l0 10.521c-0.898,0.218 -2.085,0.46 -3.587,0.654 -1.481,0.218 -3.056,0.339 -4.702,0.339 -2.33,0 -4.509,-0.389 -6.546,-1.14 -2.035,-0.774 -3.805,-1.914 -5.283,-3.489 -1.505,-1.552 -2.692,-3.516 -3.563,-5.866 -0.875,-2.327 -1.311,-5.065 -1.311,-8.192l0 -54.468 11.658 0 0 52.406zm88.061 20.313l-11.658 0 0 -12.362 -0.268 0c-5.403,9.382 -13.743,14.058 -25.012,14.058 -9.114,0 -16.434,-3.248 -21.888,-9.768 -5.48,-6.496 -8.218,-15.368 -8.218,-26.59 0,-12.023 3.03,-21.646 9.09,-28.893 6.06,-7.247 14.131,-10.86 24.214,-10.86 9.988,0 17.259,3.928 21.814,11.781l0.268 0 0 -45.012 11.658 0 0 107.646zm-11.658 -32.869l0 -10.736c0,-5.866 -1.937,-10.837 -5.819,-14.909 -3.878,-4.073 -8.798,-6.107 -14.761,-6.107 -7.1,0 -12.701,2.594 -16.773,7.803 -4.073,5.212 -6.107,12.412 -6.107,21.599 0,8.387 1.964,14.98 5.865,19.85 3.902,4.85 9.161,7.274 15.731,7.274 6.496,0 11.755,-2.353 15.804,-7.029 4.049,-4.679 6.06,-10.619 6.06,-17.745zm87.286 32.869l-11.661 0 0 -11.37 -0.265 0c-5.067,8.728 -12.532,13.066 -22.373,13.066 -7.247,0 -12.919,-1.914 -17.015,-5.745 -4.096,-3.828 -6.133,-8.92 -6.133,-15.271 0,-13.572 8,-21.499 23.996,-23.705l21.79 -3.054c0,-12.361 -4.991,-18.542 -14.979,-18.542 -8.749,0 -16.652,2.98 -23.705,8.943l0 -11.926c7.15,-4.556 15.368,-6.811 24.7,-6.811 17.088,0 25.645,9.043 25.645,27.123l0 47.292zm-11.661 -36.794l-17.523 2.423c-5.407,0.751 -9.476,2.085 -12.218,4.023 -2.738,1.914 -4.119,5.309 -4.119,10.18 0,3.539 1.26,6.448 3.804,8.704 2.521,2.253 5.892,3.369 10.109,3.369 5.769,0 10.545,-2.038 14.3,-6.06 3.783,-4.049 5.647,-9.188 5.647,-15.392l0 -7.247zm67.339 36.09c-2.738,1.505 -6.375,2.256 -10.86,2.256 -12.75,0 -19.099,-7.103 -19.099,-21.308l0 -43.025 -12.509 0 0 -9.938 12.509 0 0 -17.742 11.635 -3.781 0 21.523 18.324 0 0 9.938 -18.324 0 0 40.99c0,4.871 0.824,8.339 2.497,10.421 1.646,2.085 4.384,3.128 8.239,3.128 2.933,0 5.454,-0.798 7.588,-2.424l0 9.962zm72.84 -32.745l-51.34 0c0.194,8.095 2.376,14.35 6.546,18.761 4.169,4.387 9.888,6.593 17.185,6.593 8.192,0 15.707,-2.692 22.591,-8.098l0 10.934c-6.398,4.652 -14.859,6.955 -25.353,6.955 -10.28,0 -18.352,-3.295 -24.217,-9.888 -5.89,-6.617 -8.823,-15.902 -8.823,-27.875 0,-11.322 3.225,-20.533 9.624,-27.659 6.422,-7.126 14.396,-10.689 23.899,-10.689 9.526,0 16.87,3.08 22.082,9.234 5.212,6.134 7.806,14.691 7.806,25.622l0 6.11zm-11.926 -9.868c-0.05,-6.713 -1.672,-11.949 -4.85,-15.706 -3.198,-3.731 -7.632,-5.598 -13.33,-5.598 -5.477,0 -10.157,1.964 -13.985,5.889 -3.831,3.928 -6.207,9.067 -7.102,15.415l39.267 0zm25.159 40.699l0 -12.506c6.326,4.676 13.331,7.029 20.943,7.029 10.227,0 15.342,-3.419 15.342,-10.23 0,-1.941 -0.436,-3.587 -1.308,-4.921 -0.898,-1.357 -2.061,-2.544 -3.563,-3.586 -1.478,-1.043 -3.248,-1.988 -5.262,-2.812 -2.011,-0.825 -4.167,-1.696 -6.496,-2.595 -3.221,-1.283 -6.033,-2.567 -8.483,-3.878 -2.424,-1.284 -4.459,-2.762 -6.108,-4.387 -1.625,-1.649 -2.859,-3.49 -3.683,-5.575 -0.825,-2.084 -1.237,-4.531 -1.237,-7.32 0,-3.419 0.774,-6.422 2.326,-9.067 1.575,-2.618 3.66,-4.823 6.255,-6.593 2.617,-1.767 5.574,-3.124 8.919,-4.022 3.322,-0.898 6.788,-1.334 10.327,-1.334 6.302,0 11.926,1.092 16.894,3.248l0 11.805c-5.333,-3.516 -11.49,-5.259 -18.446,-5.259 -2.182,0 -4.146,0.241 -5.916,0.751 -1.743,0.485 -3.248,1.186 -4.508,2.084 -1.234,0.896 -2.206,1.988 -2.906,3.225 -0.681,1.26 -1.019,2.641 -1.019,4.17 0,1.89 0.338,3.465 1.019,4.749 0.7,1.284 1.696,2.424 3.03,3.419 1.307,0.992 2.933,1.891 4.823,2.689 1.891,0.801 4.046,1.672 6.47,2.617 3.2,1.237 6.11,2.497 8.654,3.808 2.544,1.307 4.726,2.762 6.546,4.411 1.793,1.623 3.174,3.513 4.143,5.648 0.969,2.132 1.455,4.653 1.455,7.585 0,3.614 -0.801,6.738 -2.377,9.382 -1.598,2.642 -3.707,4.847 -6.348,6.593 -2.668,1.77 -5.722,3.054 -9.164,3.926 -3.466,0.848 -7.076,1.26 -10.884,1.26 -7.464,0 -13.96,-1.428 -19.438,-4.314z"/>
    <path class="fil6" d="M6639.351 3392.191l29.765 -0.009c2.323,0 4.29,1.529 4.956,3.631l11.902 31.282 13.996 3.748 27.621 -21.349c1.714,-1.322 3.996,-1.404 5.763,-0.383l25.775 14.883c1.979,1.145 2.915,3.404 2.476,5.527l-5.344 33.116 10.265 10.247 34.585 -4.679c2.256,-0.303 4.367,0.898 5.327,2.827l14.727 25.489c1.145,1.976 0.836,4.4 -0.598,6.025l-21.19 26.011 3.751 14.016 32.295 13.242c1.999,0.819 3.206,2.751 3.209,4.789l0.018 29.764c0,2.324 -1.528,4.291 -3.631,4.956l-31.278 11.903 -3.749 13.999 21.346 27.615c1.322,1.714 1.405,3.996 0.383,5.763l-14.882 25.757c-1.099,1.911 -3.237,2.856 -5.295,2.529l-33.351 -5.377 -10.242 10.265 4.679 34.586c0.303,2.255 -0.898,4.367 -2.827,5.327l-25.489 14.726c-1.976,1.146 -4.399,0.836 -6.025,-0.598l-26.016 -21.19 -14.011 3.752 -13.245 32.297c-0.819,2 -2.75,3.207 -4.788,3.21l-29.765 0.017c-2.323,0 -4.29,-1.528 -4.956,-3.63l-11.902 -31.279 -13.996 -3.748 -27.618 21.343c-1.803,1.39 -4.232,1.407 -6.031,0.218l-25.507 -14.715c-1.979,-1.145 -2.915,-3.404 -2.476,-5.527l5.338 -33.104 -10.259 -10.259 -34.588 4.679c-2.256,0.303 -4.367,-0.898 -5.327,-2.827l-14.727 -25.489c-1.145,-1.976 -0.836,-4.4 0.598,-6.025l21.193 -26.017 -3.754 -14.01 -32.298 -13.245c-1.999,-0.819 -3.206,-2.751 -3.209,-4.789l-0.018 -29.767c0,-2.324 1.528,-4.294 3.634,-4.956l31.278 -11.9 3.749 -13.996 -21.346 -27.615c-1.39,-1.802 -1.408,-4.232 -0.215,-6.031l14.711 -25.489c1.099,-1.911 3.237,-2.856 5.295,-2.529l33.337 5.374 10.262 -10.242 -4.682 -34.609c-0.303,-2.255 0.898,-4.367 2.827,-5.327l25.489 -14.726c1.976,-1.146 4.399,-0.836 6.025,0.598l26.013 21.19 14.017 -3.752 13.242 -32.294c0.819,-2 2.75,-3.207 4.788,-3.219zm15.439 10.38l-11.973 0 -12.771 31.143c-0.539,1.587 -1.838,2.886 -3.575,3.351l-19.034 5.098c-1.552,0.4 -3.269,0.091 -4.606,-0.996l-25.468 -20.748 -19.686 11.352 4.562 33.716c0.203,1.54 -0.283,3.157 -1.461,4.341l-13.928 13.952c-1.146,1.116 -2.786,1.711 -4.485,1.44l-32.453 -5.239 -11.355 19.673 20.63 26.688c1.084,1.258 1.546,3.01 1.087,4.732l-5.1 19.029c-0.418,1.552 -1.549,2.891 -3.166,3.507l-30.692 11.676 0 22.73 31.146 12.774c1.587,0.538 2.886,1.837 3.351,3.574l5.1 19.029c0.4,1.552 0.091,3.269 -0.995,4.605l-20.751 25.472 11.351 19.685 33.343 -4.511c1.658,-0.345 3.451,0.127 4.735,1.41l13.928 13.929c1.116,1.145 1.711,2.785 1.44,4.485l-5.232 32.441 19.667 11.367 26.694 -20.628c1.254,-1.084 3.009,-1.546 4.729,-1.087l19.028 5.098c1.552,0.418 2.892,1.549 3.507,3.165l11.679 30.693 22.727 0 12.774 -31.146c0.539,-1.587 1.838,-2.886 3.575,-3.351l19.029 -5.098c1.551,-0.4 3.268,-0.091 4.605,0.996l25.471 20.748 19.686 -11.352 -4.512 -33.339c-0.344,-1.658 0.127,-3.452 1.411,-4.735l13.928 -13.911c1.137,-1.134 2.78,-1.732 4.485,-1.461l32.45 5.239 11.352 -19.682 -20.624 -26.679c-1.084,-1.258 -1.546,-3.01 -1.087,-4.732l5.097 -19.032c0.418,-1.552 1.549,-2.891 3.166,-3.507l30.692 -11.679 0 -22.727 -31.143 -12.771c-1.587,-0.539 -2.886,-1.837 -3.351,-3.575l-5.097 -19.034c-0.4,-1.552 -0.091,-3.269 0.995,-4.605l20.749 -25.466 -11.352 -19.685 -33.34 4.511c-1.658,0.345 -3.451,-0.127 -4.735,-1.41l-13.931 -13.955c-1.122,-1.134 -1.708,-2.771 -1.44,-4.464l5.235 -32.436 -19.676 -11.364 -26.685 20.628c-1.257,1.083 -3.009,1.546 -4.732,1.086l-19.028 -5.1c-1.552,-0.418 -2.892,-1.549 -3.507,-3.165l-11.679 -30.693 -10.754 0z"/>
    <path class="fil6" d="M6654.79 3476.721c27.427,0 52.259,11.119 70.234,29.091 17.971,17.974 29.09,42.81 29.09,70.233 0,27.424 -11.119,52.26 -29.093,70.231 -17.972,17.974 -42.807,29.094 -70.231,29.094 -27.424,0 -52.259,-11.123 -70.231,-29.094 -17.974,-17.971 -29.093,-42.807 -29.093,-70.231 0,-27.423 11.119,-52.259 29.093,-70.23 17.972,-17.975 42.807,-29.094 70.231,-29.094zm62.89 36.435c-16.09,-16.09 -38.328,-26.046 -62.89,-26.046 -24.559,0 -46.797,9.959 -62.887,26.049 -16.089,16.09 -26.048,38.328 -26.048,62.886 0,24.559 9.959,46.797 26.048,62.887 16.093,16.093 38.328,26.049 62.887,26.049 24.559,0 46.797,-9.959 62.887,-26.049 16.089,-16.09 26.048,-38.328 26.048,-62.887 0,-24.558 -9.956,-46.799 -26.045,-62.889z"/>
    <path class="fil6" d="M6883.236 3687.19c3.448,1.307 6.784,2.9 9.97,4.74 3.216,1.859 6.258,3.964 9.096,6.281l24.721 -7.467c2.208,-0.666 4.52,0.209 5.769,2.008 2.829,3.572 5.421,7.376 7.732,11.369 2.353,4.067 4.403,8.31 6.122,12.689 0.822,2.103 0.177,4.417 -1.443,5.813l-18.678 17.538c0.218,1.331 0.398,2.671 0.533,4.005l0.012 0.15c0.236,2.35 0.356,4.647 0.356,6.859 0,2.252 -0.126,4.59 -0.368,6.987 -0.135,1.355 -0.315,2.695 -0.533,4.026l18.843 17.691c1.585,1.493 2.02,3.749 1.275,5.66 -1.716,4.379 -3.766,8.622 -6.119,12.689 -2.367,4.09 -5.029,7.983 -7.942,11.631 -1.357,1.711 -3.583,2.332 -5.556,1.737l-24.744 -7.467c-2.857,2.341 -5.896,4.449 -9.079,6.29 -3.18,1.843 -6.516,3.433 -9.967,4.743l-5.887 25.119c-0.498,2.137 -2.253,3.651 -4.299,3.954 -2.282,0.342 -4.614,0.604 -6.982,0.778 -2.379,0.179 -4.732,0.271 -7.047,0.271 -2.314,0 -4.667,-0.092 -7.043,-0.268l-0.118 -0.009c-2.326,-0.174 -4.62,-0.436 -6.864,-0.772 -2.215,-0.321 -3.896,-2.005 -4.329,-4.075l-5.857 -24.998c-3.448,-1.31 -6.781,-2.9 -9.968,-4.74 -3.215,-1.859 -6.26,-3.967 -9.099,-6.287l-24.723 7.47c-2.209,0.666 -4.52,-0.209 -5.769,-2.008 -2.83,-3.572 -5.421,-7.376 -7.733,-11.369 -2.352,-4.067 -4.402,-8.31 -6.122,-12.689 -0.821,-2.103 -0.176,-4.417 1.443,-5.813l18.681 -17.538c-0.217,-1.334 -0.397,-2.68 -0.533,-4.032 -0.241,-2.394 -0.368,-4.732 -0.368,-6.981 0,-2.253 0.127,-4.591 0.368,-6.985 0.136,-1.358 0.313,-2.695 0.53,-4.029l-18.843 -17.691c-1.584,-1.493 -2.02,-3.749 -1.275,-5.66 1.717,-4.379 3.767,-8.622 6.119,-12.689 2.368,-4.09 5.03,-7.983 7.942,-11.631 1.358,-1.711 3.584,-2.332 5.557,-1.737l24.726 7.458c2.839,-2.317 5.884,-4.425 9.099,-6.283 3.187,-1.841 6.523,-3.434 9.968,-4.741l5.887 -25.122c0.497,-2.137 2.252,-3.651 4.299,-3.954 2.285,-0.339 4.62,-0.601 6.988,-0.775 2.376,-0.179 4.726,-0.271 7.037,-0.271 2.309,0 4.665,0.092 7.041,0.268l0.118 0.009c2.326,0.174 4.623,0.436 6.87,0.769 2.214,0.321 3.896,2.005 4.329,4.078l5.857 25.001zm4.776 13.704c-3.366,-1.943 -6.988,-3.575 -10.801,-4.829 -1.658,-0.551 -3.004,-1.926 -3.428,-3.752l-5.713 -24.382 -2.779 -0.25c-2.012,-0.15 -4.108,-0.227 -6.27,-0.227 -2.164,0 -4.255,0.077 -6.266,0.227l-2.78 0.25 -5.668 24.197c-0.351,1.781 -1.626,3.327 -3.472,3.934 -3.813,1.254 -7.432,2.886 -10.798,4.829 -3.363,1.941 -6.531,4.238 -9.458,6.826 -1.311,1.275 -3.257,1.82 -5.13,1.254l-24.002 -7.249c-1.791,2.441 -3.451,4.979 -4.965,7.594 -1.499,2.591 -2.865,5.283 -4.093,8.062l18.284 17.165c1.254,1.193 1.887,2.986 1.519,4.806 -0.389,1.89 -0.692,3.857 -0.898,5.874 -0.186,1.85 -0.286,3.84 -0.286,5.952 0,2.117 0.1,4.113 0.286,5.968 0.194,1.906 0.477,3.778 0.845,5.604 0.45,1.767 -0.047,3.719 -1.466,5.059l-18.284 17.165c1.228,2.779 2.594,5.471 4.093,8.062 1.514,2.615 3.174,5.153 4.965,7.594l24.002 -7.252c1.67,-0.495 3.554,-0.147 4.95,1.095 2.977,2.653 6.207,5.006 9.638,6.988 3.363,1.943 6.985,3.575 10.798,4.829 1.658,0.551 3.004,1.926 3.428,3.752l5.712 24.379 2.774 0.25c2.011,0.15 4.105,0.227 6.272,0.227 2.165,0 4.261,-0.077 6.276,-0.227l2.773 -0.25 5.669 -24.197c0.35,-1.781 1.625,-3.327 3.472,-3.934 3.813,-1.254 7.432,-2.883 10.798,-4.832 3.342,-1.929 6.46,-4.173 9.302,-6.67 1.308,-1.387 3.333,-1.999 5.283,-1.41l24.002 7.252c1.79,-2.441 3.451,-4.979 4.965,-7.594 1.499,-2.591 2.865,-5.283 4.093,-8.062l-18.284 -17.165c-1.254,-1.193 -1.887,-2.986 -1.519,-4.806 0.391,-1.893 0.695,-3.857 0.901,-5.871 0.185,-1.855 0.286,-3.843 0.286,-5.954 0,-2.065 -0.095,-4.008 -0.271,-5.828l-0.015 -0.127c-0.197,-1.925 -0.483,-3.804 -0.851,-5.621 -0.448,-1.767 0.05,-3.719 1.469,-5.056l18.284 -17.165c-1.228,-2.779 -2.594,-5.471 -4.093,-8.062 -1.514,-2.615 -3.175,-5.153 -4.965,-7.594l-23.999 7.249c-1.67,0.495 -3.554,0.148 -4.95,-1.095 -2.974,-2.653 -6.208,-5 -9.635,-6.982z"/>
    <path class="fil6" d="M6859.021 3717.956c9.161,0 17.459,3.722 23.472,9.729 6.031,6.01 9.75,14.32 9.75,23.49 0,9.169 -3.719,17.476 -9.732,23.489 -6.01,6.01 -14.32,9.729 -23.49,9.729 -9.169,0 -17.476,-3.719 -23.486,-9.729 -6.013,-6.013 -9.733,-14.32 -9.733,-23.489 0,-9.17 3.72,-17.48 9.73,-23.49l0.312 -0.289c5.986,-5.836 14.167,-9.44 23.177,-9.44zm16.152 17.067c-4.123,-4.126 -9.838,-6.679 -16.152,-6.679 -6.192,0 -11.802,2.453 -15.913,6.437l-0.232 0.248c-4.129,4.128 -6.685,9.841 -6.685,16.146 0,6.304 2.559,12.017 6.688,16.145 4.128,4.129 9.838,6.685 16.142,6.685 6.305,0 12.018,-2.556 16.146,-6.685 4.129,-4.128 6.687,-9.841 6.687,-16.145 0,-6.305 -2.556,-12.018 -6.681,-16.152z"/>
   </g>
   <path class="fil1" d="M3444.456 2134.444l223.646 187.47 0 -187.47 217.644 0c59.448,0 108.085,-48.637 108.085,-108.082l0 -913.888c0,-59.45 -48.637,-108.087 -108.085,-108.087l-1285.312 0c-59.447,0 -108.085,48.643 -108.085,108.087l0 913.888c0,59.442 48.644,108.082 108.085,108.082l844.022 0z"/>
   <g>
    <path class="fil6" d="M2857.131 1901.143c-7.512,3.975 -16.894,5.963 -28.116,5.963 -14.497,0 -26.081,-4.653 -34.783,-13.985 -8.728,-9.331 -13.089,-21.572 -13.089,-36.723 0,-16.263 4.921,-29.426 14.712,-39.461 9.794,-10.059 22.226,-15.077 37.28,-15.077 9.646,0 17.647,1.404 23.996,4.193l0 12.727c-7.294,-4.073 -15.342,-6.11 -24.141,-6.11 -11.684,0 -21.16,3.904 -28.434,11.708 -7.27,7.806 -10.907,18.251 -10.907,31.316 0,12.412 3.396,22.301 10.18,29.645 6.811,7.37 15.707,11.054 26.761,11.054 10.204,0 19.076,-2.279 26.541,-6.811l0 11.561zm71.24 4.267l-11.66 0 0 -11.37 -0.266 0c-5.067,8.728 -12.532,13.066 -22.373,13.066 -7.247,0 -12.919,-1.914 -17.015,-5.745 -4.096,-3.829 -6.133,-8.92 -6.133,-15.272 0,-13.572 8,-21.499 23.996,-23.704l21.791 -3.054c0,-12.362 -4.992,-18.543 -14.98,-18.543 -8.749,0 -16.652,2.98 -23.705,8.943l0 -11.925c7.15,-4.556 15.369,-6.812 24.7,-6.812 17.088,0 25.645,9.044 25.645,27.124l0 47.292zm-11.66 -36.794l-17.524 2.423c-5.407,0.751 -9.476,2.085 -12.218,4.023 -2.738,1.914 -4.119,5.309 -4.119,10.179 0,3.54 1.26,6.449 3.804,8.705 2.521,2.253 5.892,3.369 10.109,3.369 5.769,0 10.545,-2.038 14.3,-6.061 3.784,-4.049 5.648,-9.187 5.648,-15.391l0 -7.247zm71.532 -24.144c-2.038,-1.552 -4.971,-2.326 -8.799,-2.326 -4.994,0 -9.14,2.326 -12.482,7.029 -3.322,4.679 -4.995,11.078 -4.995,19.173l0 37.062 -11.658 0 0 -72.719 11.658 0 0 14.982 0.292 0c1.646,-5.115 4.167,-9.09 7.585,-11.976 3.419,-2.859 7.224,-4.29 11.44,-4.29 3.031,0 5.333,0.338 6.959,0.995l0 12.07zm69.156 27.489l-51.341 0c0.194,8.095 2.376,14.349 6.546,18.76 4.17,4.388 9.888,6.594 17.185,6.594 8.192,0 15.707,-2.692 22.592,-8.098l0 10.933c-6.399,4.653 -14.859,6.956 -25.354,6.956 -10.28,0 -18.351,-3.295 -24.217,-9.889 -5.889,-6.616 -8.822,-15.901 -8.822,-27.874 0,-11.322 3.224,-20.533 9.623,-27.659 6.422,-7.126 14.397,-10.69 23.899,-10.69 9.526,0 16.87,3.081 22.082,9.235 5.212,6.134 7.807,14.691 7.807,25.622l0 6.11zm-11.926 -9.868c-0.05,-6.714 -1.673,-11.949 -4.85,-15.707 -3.198,-3.731 -7.633,-5.598 -13.331,-5.598 -5.477,0 -10.156,1.965 -13.984,5.89 -3.831,3.928 -6.208,9.067 -7.103,15.415l39.268 0zm87.987 9.868l-51.341 0c0.195,8.095 2.377,14.349 6.546,18.76 4.17,4.388 9.888,6.594 17.185,6.594 8.192,0 15.707,-2.692 22.592,-8.098l0 10.933c-6.399,4.653 -14.859,6.956 -25.354,6.956 -10.28,0 -18.351,-3.295 -24.217,-9.889 -5.889,-6.616 -8.822,-15.901 -8.822,-27.874 0,-11.322 3.224,-20.533 9.623,-27.659 6.423,-7.126 14.397,-10.69 23.899,-10.69 9.526,0 16.87,3.081 22.082,9.235 5.212,6.134 7.807,14.691 7.807,25.622l0 6.11zm-11.926 -9.868c-0.05,-6.714 -1.673,-11.949 -4.85,-15.707 -3.198,-3.731 -7.633,-5.598 -13.331,-5.598 -5.477,0 -10.156,1.965 -13.984,5.89 -3.831,3.928 -6.207,9.067 -7.103,15.415l39.268 0zm67.48 -17.621c-2.038,-1.552 -4.971,-2.326 -8.799,-2.326 -4.994,0 -9.14,2.326 -12.482,7.029 -3.322,4.679 -4.994,11.078 -4.994,19.173l0 37.062 -11.658 0 0 -72.719 11.658 0 0 14.982 0.291 0c1.646,-5.115 4.167,-9.09 7.586,-11.976 3.418,-2.859 7.223,-4.29 11.44,-4.29 3.03,0 5.333,0.338 6.958,0.995l0 12.07zm57.666 -30.25c-2.085,0 -3.855,-0.704 -5.333,-2.132 -1.455,-1.408 -2.182,-3.201 -2.182,-5.383 0,-2.182 0.727,-3.999 2.182,-5.43 1.478,-1.452 3.248,-2.179 5.333,-2.179 2.132,0 3.952,0.727 5.43,2.179 1.502,1.431 2.252,3.248 2.252,5.43 0,2.085 -0.75,3.854 -2.252,5.309 -1.478,1.478 -3.298,2.206 -5.43,2.206zm5.695 70.875c0,6.667 2.571,10.012 7.733,10.012 2.084,0 3.951,-0.268 5.6,-0.777l0 10.521c-0.898,0.218 -2.084,0.459 -3.586,0.654 -1.481,0.218 -3.057,0.338 -4.703,0.338 -2.329,0 -4.508,-0.388 -6.546,-1.139 -2.035,-0.775 -3.805,-1.914 -5.283,-3.49 -1.504,-1.552 -2.691,-3.516 -3.563,-5.866 -0.874,-2.326 -1.31,-5.064 -1.31,-8.192l0 -54.467 11.658 0 0 52.406zm86.364 20.313l-11.658 0 0 -41.473c0,-15.442 -5.624,-23.149 -16.896,-23.149 -5.816,0 -10.639,2.182 -14.447,6.57 -3.828,4.385 -5.718,9.912 -5.718,16.579l0 41.473 -11.658 0 0 -72.719 11.658 0 0 12.073 0.291 0c5.477,-9.188 13.428,-13.77 23.849,-13.77 7.951,0 14.034,2.571 18.254,7.71 4.217,5.115 6.325,12.556 6.325,22.25l0 44.456zm55.678 -0.704c-2.738,1.504 -6.375,2.255 -10.86,2.255 -12.75,0 -19.099,-7.102 -19.099,-21.307l0 -43.025 -12.509 0 0 -9.938 12.509 0 0 -17.742 11.635 -3.781 0 21.523 18.324 0 0 9.938 -18.324 0 0 40.99c0,4.87 0.824,8.339 2.497,10.421 1.646,2.085 4.384,3.127 8.239,3.127 2.933,0 5.454,-0.798 7.588,-2.423l0 9.962zm72.84 -32.745l-51.34 0c0.194,8.095 2.376,14.349 6.546,18.76 4.169,4.388 9.888,6.594 17.185,6.594 8.192,0 15.707,-2.692 22.591,-8.098l0 10.933c-6.398,4.653 -14.859,6.956 -25.353,6.956 -10.28,0 -18.352,-3.295 -24.217,-9.889 -5.89,-6.616 -8.823,-15.901 -8.823,-27.874 0,-11.322 3.225,-20.533 9.624,-27.659 6.422,-7.126 14.396,-10.69 23.899,-10.69 9.526,0 16.87,3.081 22.082,9.235 5.212,6.134 7.806,14.691 7.806,25.622l0 6.11zm-11.926 -9.868c-0.05,-6.714 -1.672,-11.949 -4.85,-15.707 -3.198,-3.731 -7.632,-5.598 -13.33,-5.598 -5.477,0 -10.157,1.965 -13.985,5.89 -3.831,3.928 -6.207,9.067 -7.102,15.415l39.267 0zm67.48 -17.621c-2.037,-1.552 -4.97,-2.326 -8.798,-2.326 -4.994,0 -9.141,2.326 -12.483,7.029 -3.321,4.679 -4.994,11.078 -4.994,19.173l0 37.062 -11.658 0 0 -72.719 11.658 0 0 14.982 0.292 0c1.646,-5.115 4.166,-9.09 7.585,-11.976 3.419,-2.859 7.223,-4.29 11.44,-4.29 3.03,0 5.333,0.338 6.958,0.995l0 12.07zm69.156 27.489l-51.34 0c0.194,8.095 2.376,14.349 6.546,18.76 4.169,4.388 9.888,6.594 17.185,6.594 8.192,0 15.707,-2.692 22.592,-8.098l0 10.933c-6.399,4.653 -14.859,6.956 -25.354,6.956 -10.28,0 -18.351,-3.295 -24.217,-9.889 -5.89,-6.616 -8.822,-15.901 -8.822,-27.874 0,-11.322 3.224,-20.533 9.623,-27.659 6.422,-7.126 14.396,-10.69 23.899,-10.69 9.526,0 16.87,3.081 22.082,9.235 5.212,6.134 7.806,14.691 7.806,25.622l0 6.11zm-11.926 -9.868c-0.05,-6.714 -1.672,-11.949 -4.85,-15.707 -3.197,-3.731 -7.632,-5.598 -13.33,-5.598 -5.477,0 -10.156,1.965 -13.984,5.89 -3.831,3.928 -6.208,9.067 -7.103,15.415l39.267 0zm25.16 40.699l0 -12.506c6.325,4.676 13.33,7.029 20.942,7.029 10.227,0 15.342,-3.419 15.342,-10.23 0,-1.941 -0.436,-3.587 -1.307,-4.921 -0.898,-1.357 -2.062,-2.544 -3.563,-3.586 -1.479,-1.043 -3.248,-1.988 -5.263,-2.813 -2.011,-0.824 -4.166,-1.696 -6.496,-2.594 -3.221,-1.284 -6.033,-2.568 -8.483,-3.878 -2.424,-1.284 -4.458,-2.762 -6.107,-4.388 -1.626,-1.649 -2.86,-3.489 -3.684,-5.574 -0.825,-2.085 -1.237,-4.532 -1.237,-7.32 0,-3.419 0.774,-6.423 2.326,-9.067 1.576,-2.618 3.661,-4.823 6.255,-6.593 2.618,-1.767 5.574,-3.124 8.919,-4.023 3.322,-0.898 6.788,-1.334 10.327,-1.334 6.302,0 11.926,1.093 16.894,3.248l0 11.806c-5.333,-3.516 -11.49,-5.26 -18.446,-5.26 -2.182,0 -4.146,0.242 -5.915,0.751 -1.744,0.486 -3.248,1.187 -4.509,2.085 -1.234,0.895 -2.205,1.988 -2.906,3.225 -0.68,1.26 -1.019,2.641 -1.019,4.169 0,1.891 0.339,3.466 1.019,4.75 0.701,1.284 1.696,2.424 3.03,3.419 1.307,0.992 2.933,1.89 4.823,2.688 1.891,0.801 4.046,1.673 6.47,2.618 3.201,1.237 6.11,2.497 8.654,3.808 2.544,1.307 4.726,2.762 6.546,4.411 1.794,1.622 3.175,3.513 4.143,5.648 0.969,2.132 1.455,4.652 1.455,7.585 0,3.613 -0.801,6.738 -2.376,9.382 -1.599,2.641 -3.708,4.847 -6.349,6.593 -2.668,1.77 -5.722,3.054 -9.164,3.925 -3.466,0.848 -7.076,1.261 -10.883,1.261 -7.465,0 -13.961,-1.429 -19.438,-4.314zm99.839 1.914c-2.738,1.504 -6.375,2.255 -10.86,2.255 -12.75,0 -19.099,-7.102 -19.099,-21.307l0 -43.025 -12.509 0 0 -9.938 12.509 0 0 -17.742 11.634 -3.781 0 21.523 18.325 0 0 9.938 -18.325 0 0 40.99c0,4.87 0.825,8.339 2.498,10.421 1.646,2.085 4.384,3.127 8.239,3.127 2.933,0 5.453,-0.798 7.588,-2.423l0 9.962z"/>
    <path class="fil6" d="M3243.67 1618.447c2.868,0 5.195,2.327 5.195,5.195 0,2.868 -2.327,5.194 -5.195,5.194l-181.969 0c-4.161,0 -7.954,-1.711 -10.704,-4.467 -2.742,-2.744 -4.441,-6.534 -4.441,-10.692l0 -371.993c0,-4.175 1.699,-7.968 4.441,-10.71l0.353 -0.321c2.718,-2.556 6.364,-4.122 10.351,-4.122l210.48 0.023c1.428,0 2.721,0.58 3.657,1.517l84.483 84.45c1.122,1.122 1.622,2.63 1.502,4.099l-0.009 176.098c0,2.857 -2.318,5.174 -5.174,5.174 -2.856,0 -5.174,-2.317 -5.174,-5.174l0.009 -174.354 -81.464 -81.462 -208.31 -0.003c-1.228,0.021 -2.338,0.477 -3.172,1.219l-0.188 0.2c-0.86,0.86 -1.396,2.056 -1.396,3.366l0 371.993c0,1.328 0.536,2.529 1.396,3.389 0.848,0.851 2.041,1.381 3.36,1.381l181.969 0z"/>
    <path class="fil6" d="M3344.11 1310.999l-66.735 -66.732 0 61.758c0,1.376 0.56,2.627 1.452,3.522 0.907,0.89 2.155,1.452 3.522,1.452l61.761 0zm-68.257 -82.943l84.406 84.404c0.978,0.945 1.584,2.267 1.584,3.733 0,2.868 -2.326,5.195 -5.194,5.195l-74.3 0c-4.238,0 -8.08,-1.729 -10.857,-4.506 -2.777,-2.803 -4.506,-6.64 -4.506,-10.857l0 -74.297c0.003,-1.331 0.51,-2.659 1.523,-3.672 2.026,-2.026 5.318,-2.026 7.344,0z"/>
    <path class="fil6" d="M3292.676 1551.553l127.94 0c5.209,0 9.959,2.138 13.407,5.58l0.033 0.033c3.433,3.448 5.568,8.189 5.568,13.395l0 90.063c0,5.233 -2.141,9.991 -5.58,13.431 -3.439,3.439 -8.198,5.58 -13.428,5.58l-127.94 0c-5.23,0 -9.989,-2.141 -13.428,-5.58 -3.439,-3.44 -5.58,-8.198 -5.58,-13.431l0 -90.063c0,-5.236 2.141,-9.988 5.58,-13.428l0.336 -0.306c3.424,-3.266 8.042,-5.274 13.092,-5.274zm127.94 10.389l-127.94 0c-2.271,0 -4.341,0.877 -5.869,2.308l-0.215 0.227c-1.564,1.564 -2.535,3.719 -2.535,6.084l0 90.063c0,2.368 0.971,4.523 2.535,6.087 1.564,1.563 3.719,2.535 6.084,2.535l127.94 0c2.365,0 4.52,-0.972 6.084,-2.535 1.564,-1.564 2.535,-3.719 2.535,-6.087l0 -90.063c0,-2.379 -0.963,-4.535 -2.514,-6.084 -1.57,-1.572 -3.725,-2.535 -6.105,-2.535z"/>
    <path class="fil6" d="M3276.907 1591.96c-2.644,-1.084 -3.905,-4.111 -2.821,-6.755 1.084,-2.645 4.111,-3.905 6.755,-2.821 22.494,9.228 38.655,15.483 59.583,23.578l4.007 1.593c3.684,1.508 6.938,2.842 12.224,2.842 5.294,0 8.548,-1.334 12.235,-2.845l2.739 -1.101c10.45,-4.043 19.926,-7.842 29.558,-11.702 9.662,-3.87 19.506,-7.819 31.358,-12.406 2.665,-1.031 5.666,0.297 6.696,2.962 1.031,2.665 -0.297,5.665 -2.962,6.696 -11.408,4.417 -21.417,8.431 -31.24,12.365 -9.479,3.798 -18.793,7.532 -29.677,11.743l-2.559 1.04c-4.732,1.926 -8.913,3.636 -16.148,3.636 -7.238,0 -11.42,-1.713 -16.158,-3.654l-3.807 -1.511c-20.922,-8.092 -37.08,-14.346 -59.783,-23.66z"/>
    <path class="fil6" d="M3368.563 1612.022c0,-2.868 2.326,-5.194 5.195,-5.194 2.868,0 5.194,2.326 5.194,5.194l0 21.855c0,2.869 -2.326,5.195 -5.194,5.195l-34.235 0c-2.868,0 -5.195,-2.326 -5.195,-5.195l0 -21.855c0,-2.868 2.327,-5.194 5.195,-5.194 2.868,0 5.194,2.326 5.194,5.194l0 16.661 23.846 0 0 -16.661z"/>
    <path class="fil6" d="M3327.826 1547.657c0,2.868 -2.326,5.195 -5.194,5.195 -2.868,0 -5.194,-2.327 -5.194,-5.195 0,-6.013 2.458,-11.478 6.413,-15.433l0.33 -0.303c3.934,-3.775 9.27,-6.11 15.1,-6.11l34.727 0c6.01,0 11.475,2.458 15.43,6.413 3.955,3.955 6.414,9.426 6.414,15.433 0,2.868 -2.327,5.195 -5.195,5.195 -2.868,0 -5.194,-2.327 -5.194,-5.195 0,-3.142 -1.293,-6.013 -3.369,-8.089 -2.076,-2.076 -4.941,-3.369 -8.086,-3.369l-34.727 0c-3.048,0 -5.821,1.196 -7.865,3.134l-0.221 0.235c-2.076,2.076 -3.369,4.941 -3.369,8.089z"/>
    <path class="fil6" d="M3429.235 1583.632l0 -13.071c0,-2.376 -0.965,-4.532 -2.517,-6.081 -1.564,-1.561 -3.731,-2.535 -6.111,-2.535l-127.931 0c-2.365,0 -4.52,0.971 -6.084,2.535 -1.564,1.564 -2.535,3.716 -2.535,6.081l-0.024 13.136c20.896,8.54 36.52,14.585 56.5,22.315l7.282 2.877 4.346 1.172 1.867 0.244c0.657,0.056 1.52,0.092 2.621,0.092 0.869,0 1.64,-0.03 2.323,-0.083l1.744 -0.191 5.085 -1.349 3.024 -1.196c0.513,-0.229 0.837,-0.371 2.795,-1.121 10.315,-3.999 19.7,-7.763 29.229,-11.576 8.857,-3.548 17.856,-7.156 28.386,-11.249zm10.389 -13.071l0 20.153 -3.327 1.287c-11.561,4.47 -21.664,8.519 -31.597,12.497 -9.367,3.749 -18.584,7.445 -29.349,11.611l-2.633 1.066c-1.272,0.501 -2.497,1.001 -3.754,1.452 -1.826,0.621 -4.423,1.29 -6.323,1.678 -0.977,0.159 -1.934,0.286 -2.856,0.357 -1.025,0.079 -2.07,0.123 -3.136,0.123 -1.087,0 -2.276,-0.061 -3.534,-0.173 -1.16,-0.103 -2.211,-0.254 -3.195,-0.433l-0.427 -0.08 -4.396 -1.192 -0.324 -0.124c-1.817,-0.63 -3.012,-1.122 -4.27,-1.631l-3.704 -1.482c-20.984,-8.118 -37.159,-14.378 -59.907,-23.71l-3.209 -1.313 0.005 -20.086c-0.02,-5.23 2.121,-9.986 5.56,-13.425 3.439,-3.439 8.198,-5.58 13.428,-5.58l127.931 0c5.218,0 9.968,2.141 13.413,5.58 3.455,3.451 5.604,8.207 5.604,13.425z"/>
    <path class="fil6" d="M3165.686 1406.321c-2.868,0 -5.194,-2.326 -5.194,-5.194 0,-2.868 2.326,-5.195 5.194,-5.195l143.657 0c2.868,0 5.194,2.327 5.194,5.195 0,2.868 -2.326,5.194 -5.194,5.194l-143.657 0z"/>
    <path class="fil6" d="M3165.686 1333.611c-2.868,0 -5.194,-2.326 -5.194,-5.194 0,-2.868 2.326,-5.195 5.194,-5.195l72.931 0c2.868,0 5.195,2.327 5.195,5.195 0,2.868 -2.327,5.194 -5.195,5.194l-72.931 0z"/>
    <path class="fil6" d="M3165.686 1469.24c-2.868,0 -5.194,-2.326 -5.194,-5.194 0,-2.868 2.326,-5.195 5.194,-5.195l143.657 0c2.868,0 5.194,2.327 5.194,5.195 0,2.868 -2.326,5.194 -5.194,5.194l-143.657 0z"/>
    <path class="fil6" d="M3165.686 1532.156c-2.868,0 -5.194,-2.326 -5.194,-5.194 0,-2.868 2.326,-5.194 5.194,-5.194l77.984 0c2.868,0 5.195,2.326 5.195,5.194 0,2.868 -2.327,5.194 -5.195,5.194l-77.984 0z"/>
    <path class="fil6" d="M3087.64 1328.246c-2.025,-2.026 -2.025,-5.318 0,-7.344 2.026,-2.026 5.319,-2.026 7.345,0l11.94 11.944 19.906 -19.904c2.026,-2.026 5.318,-2.026 7.344,0 2.026,2.026 2.026,5.319 0,7.344l-23.578 23.576c-2.026,2.026 -5.318,2.026 -7.344,0l-15.613 -15.616z"/>
    <path class="fil6" d="M3087.64 1400.968c-2.025,-2.026 -2.025,-5.318 0,-7.344 2.026,-2.026 5.319,-2.026 7.345,0l11.952 11.949 19.915 -19.912c2.026,-2.014 5.309,-2.005 7.323,0.021 2.014,2.026 2.006,5.309 -0.02,7.323l-23.558 23.573c-2.026,2.026 -5.318,2.026 -7.344,0l-15.613 -15.61z"/>
    <path class="fil6" d="M3087.64 1463.887c-2.025,-2.026 -2.025,-5.318 0,-7.344 2.026,-2.026 5.319,-2.026 7.345,0l11.952 11.949 19.915 -19.912c2.026,-2.014 5.309,-2.005 7.323,0.021 2.014,2.026 2.006,5.309 -0.02,7.323l-23.558 23.573c-2.026,2.026 -5.318,2.026 -7.344,0l-15.613 -15.61z"/>
    <path class="fil6" d="M3087.64 1526.809c-2.025,-2.026 -2.025,-5.318 0,-7.344 2.026,-2.026 5.319,-2.026 7.345,0l11.952 11.949 19.915 -19.912c2.026,-2.014 5.309,-2.005 7.323,0.021 2.014,2.026 2.006,5.309 -0.02,7.323l-23.558 23.573c-2.026,2.026 -5.318,2.026 -7.344,0l-15.613 -15.61z"/>
   </g>
   <path class="fil7" d="M4689.268 3551.404l161.943 135.75 0 -135.75 157.593 0c43.042,0 78.261,-35.218 78.261,-78.26l0 -763.945c0,-43.046 -35.216,-78.264 -78.261,-78.264l-852.427 0c-43.045,0 -78.26,35.221 -78.26,78.264l0 763.945c0,43.042 35.218,78.26 78.26,78.26l532.891 0z"/>
   <g>
    <path class="fil8" d="M4340.535 3355.23l-13.21 0 -10.786 -28.555 -43.193 0 -10.156 28.555 -13.26 0 39.049 -101.83 12.362 0 39.194 101.83zm-27.922 -39.268l-15.974 -43.387c-0.51,-1.431 -1.043,-3.71 -1.552,-6.811l-0.289 0c-0.462,2.883 -1.019,5.139 -1.625,6.811l-15.852 43.387 35.292 0zm53.279 28.749l-0.292 0 0 43.967 -11.658 0 0 -106.167 11.658 0 0 12.777 0.292 0c5.718,-9.65 14.105,-14.473 25.135,-14.473 9.356,0 16.676,3.248 21.935,9.77 5.26,6.496 7.877,15.221 7.877,26.152 0,12.17 -2.956,21.914 -8.869,29.235 -5.916,7.294 -14.011,10.954 -24.288,10.954 -9.429,0 -16.678,-4.073 -21.79,-12.215zm-0.292 -29.332l0 10.156c0,6.013 1.938,11.128 5.866,15.322 3.902,4.193 8.846,6.278 14.859,6.278 7.052,0 12.579,-2.692 16.578,-8.098 3.999,-5.404 6.013,-12.895 6.013,-22.518 0,-8.095 -1.867,-14.42 -5.624,-19.026 -3.734,-4.582 -8.799,-6.884 -15.174,-6.884 -6.787,0 -12.217,2.349 -16.337,7.052 -4.12,4.726 -6.181,10.619 -6.181,17.718zm85.785 29.332l-0.292 0 0 43.967 -11.658 0 0 -106.167 11.658 0 0 12.777 0.292 0c5.718,-9.65 14.105,-14.473 25.135,-14.473 9.356,0 16.676,3.248 21.935,9.77 5.26,6.496 7.877,15.221 7.877,26.152 0,12.17 -2.956,21.914 -8.869,29.235 -5.916,7.294 -14.011,10.954 -24.288,10.954 -9.429,0 -16.678,-4.073 -21.79,-12.215zm-0.292 -29.332l0 10.156c0,6.013 1.938,11.128 5.866,15.322 3.902,4.193 8.846,6.278 14.859,6.278 7.052,0 12.579,-2.692 16.578,-8.098 3.999,-5.404 6.013,-12.895 6.013,-22.518 0,-8.095 -1.867,-14.42 -5.624,-19.026 -3.734,-4.582 -8.799,-6.884 -15.174,-6.884 -6.787,0 -12.217,2.349 -16.337,7.052 -4.12,4.726 -6.181,10.619 -6.181,17.718zm84.716 19.538c0,6.667 2.57,10.012 7.732,10.012 2.085,0 3.952,-0.268 5.601,-0.777l0 10.521c-0.898,0.218 -2.085,0.459 -3.587,0.654 -1.481,0.218 -3.056,0.338 -4.702,0.338 -2.329,0 -4.508,-0.388 -6.546,-1.139 -2.035,-0.775 -3.805,-1.914 -5.283,-3.49 -1.505,-1.551 -2.691,-3.516 -3.563,-5.865 -0.875,-2.327 -1.31,-5.065 -1.31,-8.193l0 -89.394 11.658 0 0 87.333zm31.172 -70.875c-2.085,0 -3.855,-0.704 -5.333,-2.132 -1.454,-1.408 -2.182,-3.201 -2.182,-5.383 0,-2.182 0.728,-3.999 2.182,-5.43 1.478,-1.452 3.248,-2.179 5.333,-2.179 2.132,0 3.952,0.727 5.43,2.179 1.502,1.431 2.253,3.248 2.253,5.43 0,2.085 -0.751,3.854 -2.253,5.309 -1.478,1.478 -3.298,2.206 -5.43,2.206zm5.695 70.875c0,6.667 2.571,10.012 7.733,10.012 2.085,0 3.952,-0.268 5.601,-0.777l0 10.521c-0.899,0.218 -2.085,0.459 -3.587,0.654 -1.481,0.218 -3.057,0.338 -4.703,0.338 -2.329,0 -4.508,-0.388 -6.546,-1.139 -2.035,-0.775 -3.804,-1.914 -5.283,-3.49 -1.504,-1.551 -2.691,-3.516 -3.563,-5.865 -0.874,-2.327 -1.31,-5.065 -1.31,-8.193l0 -54.467 11.658 0 0 52.406zm75.555 16.967c-5.575,3.369 -12.218,5.042 -19.877,5.042 -10.374,0 -18.737,-3.369 -25.112,-10.106 -6.349,-6.741 -9.55,-15.489 -9.55,-26.252 0,-11.973 3.443,-21.597 10.301,-28.87 6.861,-7.247 16.022,-10.883 27.488,-10.883 6.399,0 12.023,1.163 16.894,3.539l0 11.926c-5.404,-3.781 -11.172,-5.671 -17.329,-5.671 -7.418,0 -13.525,2.665 -18.278,7.997 -4.75,5.31 -7.15,12.315 -7.15,20.966 0,8.534 2.253,15.248 6.714,20.169 4.485,4.92 10.471,7.394 18.01,7.394 6.351,0 12.314,-2.109 17.889,-6.328l0 11.077zm69.662 3.346l-11.661 0 0 -11.37 -0.265 0c-5.068,8.728 -12.533,13.066 -22.374,13.066 -7.247,0 -12.918,-1.914 -17.014,-5.745 -4.096,-3.828 -6.134,-8.92 -6.134,-15.271 0,-13.572 8.001,-21.5 23.996,-23.705l21.791 -3.054c0,-12.362 -4.991,-18.542 -14.98,-18.542 -8.748,0 -16.652,2.98 -23.704,8.943l0 -11.926c7.149,-4.556 15.368,-6.811 24.7,-6.811 17.088,0 25.645,9.043 25.645,27.123l0 47.292zm-11.661 -36.794l-17.524 2.423c-5.406,0.751 -9.476,2.085 -12.217,4.023 -2.739,1.914 -4.12,5.309 -4.12,10.179 0,3.54 1.26,6.449 3.805,8.705 2.52,2.253 5.892,3.369 10.109,3.369 5.768,0 10.545,-2.038 14.299,-6.06 3.784,-4.049 5.648,-9.188 5.648,-15.392l0 -7.247zm93.977 36.794l-11.658 0 0 -41.473c0,-15.442 -5.625,-23.148 -16.897,-23.148 -5.816,0 -10.639,2.182 -14.447,6.569 -3.828,4.385 -5.718,9.912 -5.718,16.579l0 41.473 -11.658 0 0 -72.719 11.658 0 0 12.073 0.291 0c5.478,-9.188 13.428,-13.769 23.849,-13.769 7.951,0 14.035,2.57 18.254,7.709 4.217,5.115 6.326,12.556 6.326,22.25l0 44.456zm55.678 -0.704c-2.739,1.505 -6.376,2.255 -10.86,2.255 -12.751,0 -19.099,-7.102 -19.099,-21.307l0 -43.025 -12.51 0 0 -9.938 12.51 0 0 -17.742 11.634 -3.781 0 21.523 18.325 0 0 9.938 -18.325 0 0 40.99c0,4.87 0.824,8.339 2.497,10.421 1.646,2.085 4.385,3.127 8.239,3.127 2.933,0 5.454,-0.798 7.589,-2.423l0 9.962zm11.151 -1.914l0 -12.506c6.325,4.676 13.331,7.029 20.943,7.029 10.227,0 15.342,-3.419 15.342,-10.23 0,-1.941 -0.436,-3.587 -1.308,-4.921 -0.898,-1.357 -2.061,-2.544 -3.563,-3.586 -1.478,-1.043 -3.248,-1.988 -5.262,-2.812 -2.011,-0.825 -4.167,-1.697 -6.496,-2.595 -3.222,-1.284 -6.034,-2.568 -8.484,-3.878 -2.423,-1.284 -4.458,-2.762 -6.107,-4.387 -1.625,-1.65 -2.859,-3.49 -3.684,-5.575 -0.824,-2.085 -1.236,-4.532 -1.236,-7.32 0,-3.419 0.774,-6.423 2.326,-9.067 1.575,-2.618 3.66,-4.823 6.254,-6.593 2.618,-1.767 5.575,-3.124 8.92,-4.023 3.321,-0.898 6.787,-1.333 10.327,-1.333 6.301,0 11.926,1.092 16.893,3.248l0 11.805c-5.332,-3.516 -11.49,-5.259 -18.445,-5.259 -2.182,0 -4.146,0.241 -5.916,0.75 -1.743,0.486 -3.248,1.187 -4.508,2.085 -1.234,0.895 -2.206,1.988 -2.907,3.225 -0.68,1.26 -1.019,2.641 -1.019,4.169 0,1.891 0.339,3.466 1.019,4.75 0.701,1.284 1.696,2.424 3.03,3.419 1.308,0.992 2.933,1.89 4.824,2.688 1.89,0.801 4.046,1.673 6.469,2.618 3.201,1.237 6.11,2.497 8.655,3.808 2.544,1.307 4.726,2.762 6.546,4.411 1.793,1.622 3.174,3.513 4.143,5.648 0.969,2.132 1.455,4.652 1.455,7.585 0,3.613 -0.801,6.738 -2.377,9.382 -1.599,2.641 -3.707,4.847 -6.349,6.593 -2.667,1.77 -5.721,3.054 -9.163,3.925 -3.466,0.848 -7.076,1.261 -10.884,1.261 -7.465,0 -13.961,-1.428 -19.438,-4.314z"/>
    <path class="fil8" d="M4713.335 3108.268c0.008,3.675 -1.499,7.02 -3.92,9.447 -2.432,2.438 -5.786,3.951 -9.464,3.951l-234.738 0c-3.693,0 -7.041,-1.507 -9.461,-3.928l-0.333 -0.368c-2.226,-2.394 -3.593,-5.601 -3.593,-9.102l0 -306.409c0,-3.675 1.505,-7.02 3.926,-9.446 2.423,-2.445 5.771,-3.946 9.461,-3.946l173.371 0.026c1.428,0 2.721,0.58 3.657,1.517l69.586 69.553c1.122,1.122 1.622,2.63 1.502,4.096l0.006 244.609zm-11.264 2.144c0.542,-0.542 0.884,-1.305 0.884,-2.144l0.026 -242.863 -66.567 -66.564 -171.201 -0.006c-0.825,0.021 -1.576,0.359 -2.117,0.901 -0.545,0.53 -0.881,1.29 -0.881,2.123l0 306.409c0,0.757 0.274,1.449 0.722,1.973l0.159 0.153c0.541,0.542 1.295,0.883 2.117,0.883l234.738 0c0.836,0 1.59,-0.332 2.12,-0.865z"/>
    <path class="fil8" d="M4588.736 2929.305c-2.868,0 -5.194,-2.326 -5.194,-5.195 0,-2.868 2.326,-5.194 5.194,-5.194l80.446 0c2.868,0 5.194,2.326 5.194,5.194 0,2.869 -2.326,5.195 -5.194,5.195l-80.446 0z"/>
    <path class="fil8" d="M4588.736 2895.076c-2.868,0 -5.194,-2.326 -5.194,-5.194 0,-2.869 2.326,-5.195 5.194,-5.195l40.225 0c2.868,0 5.194,2.326 5.194,5.195 0,2.868 -2.326,5.194 -5.194,5.194l-40.225 0z"/>
    <path class="fil8" d="M4496.002 2986.093c-2.868,0 -5.194,-2.326 -5.194,-5.194 0,-2.868 2.326,-5.195 5.194,-5.195l173.189 0c2.868,0 5.194,2.327 5.194,5.195 0,2.868 -2.326,5.194 -5.194,5.194l-173.189 0z"/>
    <path class="fil8" d="M4496.002 3034.062c-2.868,0 -5.194,-2.326 -5.194,-5.194 0,-2.869 2.326,-5.195 5.194,-5.195l173.189 0c2.868,0 5.194,2.326 5.194,5.195 0,2.868 -2.326,5.194 -5.194,5.194l-173.189 0z"/>
    <path class="fil8" d="M4496.002 3082.025c-2.868,0 -5.194,-2.326 -5.194,-5.194 0,-2.869 2.326,-5.195 5.194,-5.195l107.87 0c2.868,0 5.194,2.326 5.194,5.195 0,2.868 -2.326,5.194 -5.194,5.194l-107.87 0z"/>
    <path class="fil8" d="M4504.056 2887.137c3.186,-0.833 7.047,0.265 10.448,1.228l2.747 0.742c3.416,0.775 7.247,1.166 11.152,1.166 4.063,0 8.053,-0.424 11.569,-1.263l2.336 -0.648c3.407,-0.966 7.276,-2.061 10.462,-1.225l0.424 0.133c2.238,0.73 5.666,2.829 8.154,5.989 1.896,2.412 3.407,5.498 3.725,9.176l1.59 18.366 0.015 0.659c0.014,2.159 -0.895,4.082 -2.332,5.492 -1.323,1.299 -3.122,2.159 -5.021,2.323 -20.174,0.472 -40.914,0.027 -61.149,0.033l-0.669 -0.041c-1.905,-0.148 -3.716,-1.013 -5.041,-2.315 -1.428,-1.41 -2.353,-3.342 -2.353,-5.501l1.628 -19.016c0.318,-3.678 1.826,-6.77 3.723,-9.176 2.653,-3.377 6.384,-5.545 8.592,-6.122zm7.65 11.21c-2.152,-0.609 -4.602,-1.304 -5.053,-1.186 -0.618,0.162 -1.864,1.016 -3.033,2.506 -0.786,0.998 -1.41,2.244 -1.531,3.663l-1.357 15.589 55.342 0 -1.349 -15.589c-0.12,-1.417 -0.748,-2.665 -1.534,-3.663 -1.113,-1.417 -2.297,-2.259 -2.942,-2.477l-0.117 -0.029c-0.442,-0.115 -2.88,0.574 -5.027,1.184l-2.742 0.745c-4.437,1.039 -9.243,1.572 -13.96,1.572 -4.559,0 -9.194,-0.498 -13.502,-1.484l-0.459 -0.088 -2.736 -0.743z"/>
    <path class="fil8" d="M4528.294 2833.891c7.562,0 14.414,3.072 19.367,8.025 4.953,4.953 8.024,11.805 8.024,19.367 0,7.559 -3.071,14.414 -8.024,19.367l-0.321 0.294c-4.926,4.777 -11.646,7.727 -19.046,7.727 -7.559,0 -14.412,-3.071 -19.364,-8.024 -4.953,-4.953 -8.025,-11.805 -8.025,-19.364 0,-7.559 3.072,-14.414 8.025,-19.367 4.952,-4.953 11.805,-8.025 19.364,-8.025zm12.023 15.369c-3.074,-3.075 -7.326,-4.98 -12.023,-4.98 -4.694,0 -8.946,1.905 -12.02,4.98 -3.075,3.074 -4.98,7.329 -4.98,12.023 0,4.694 1.905,8.946 4.98,12.02 3.074,3.074 7.326,4.979 12.02,4.979 4.585,0 8.745,-1.805 11.799,-4.735l0.224 -0.241c3.074,-3.074 4.979,-7.329 4.979,-12.023 0,-4.697 -1.905,-8.949 -4.979,-12.023z"/>
    <path class="fil8" d="M4695.616 2858.041l-51.838 -51.836 0 48.658c0,0.869 0.363,1.67 0.937,2.244l0.153 0.162c0.559,0.477 1.29,0.772 2.091,0.772l48.657 0zm-53.36 -68.046l69.509 69.506c0.978,0.945 1.584,2.268 1.584,3.734 0,2.868 -2.326,5.195 -5.194,5.195l-61.196 0c-3.552,0 -6.806,-1.393 -9.226,-3.649l-0.362 -0.33c-2.459,-2.459 -3.982,-5.854 -3.982,-9.588l0 -61.196c0.003,-1.331 0.51,-2.659 1.523,-3.672 2.026,-2.026 5.318,-2.026 7.344,0z"/>
   </g>
  </g>
  <rect class="fil9" x="-0.001" y="0.001" width="8726.073" height="10606.336"/>
 </g>
</svg>
