<?xml version="1.0" encoding="UTF-8"?>
<!DOCTYPE svg PUBLIC "-//W3C//DTD SVG 1.1//EN" "http://www.w3.org/Graphics/SVG/1.1/DTD/svg11.dtd">
<!-- Creator: CorelDRAW 2018 (64-Bit) -->
<svg xmlns="http://www.w3.org/2000/svg" xml:space="preserve" width="100px" height="100px" version="1.1" style="shape-rendering:geometricPrecision; text-rendering:geometricPrecision; image-rendering:optimizeQuality; fill-rule:evenodd; clip-rule:evenodd"
viewBox="0 0 9.578 9.578"
 xmlns:xlink="http://www.w3.org/1999/xlink">
 <defs>
  <style type="text/css">
   <![CDATA[
    .fil1 {fill:none}
    .fil0 {fill:#00D4E3;fill-rule:nonzero}
   ]]>
  </style>
 </defs>
 <g id="Layer_x0020_1">
  <metadata id="CorelCorpID_0Corel-Layer"/>
  <g id="_2127110813232">
   <g>
    <path class="fil0" d="M4.443 0.94c0.091,-0.052 0.22,-0.078 0.346,-0.078 0.126,0 0.255,0.026 0.345,0.078l2.815 1.627c0.09,0.052 0.176,0.151 0.24,0.261 0.063,0.11 0.105,0.234 0.105,0.338l0 3.246c0,0.104 -0.042,0.228 -0.105,0.338 -0.064,0.11 -0.15,0.209 -0.24,0.261l-2.821 1.63c-0.09,0.05 -0.216,0.075 -0.339,0.075 -0.126,0 -0.255,-0.026 -0.346,-0.078l-2.814 -1.627c-0.09,-0.052 -0.177,-0.151 -0.24,-0.26l-0.003 -0.006c-0.062,-0.109 -0.102,-0.231 -0.102,-0.333l0 -3.246c0,-0.104 0.042,-0.228 0.105,-0.338 0.064,-0.11 0.15,-0.209 0.24,-0.261l2.814 -1.627zm0.346 0.114c-0.096,0 -0.19,0.017 -0.25,0.052l-2.814 1.626c-0.061,0.036 -0.123,0.108 -0.171,0.191 -0.047,0.082 -0.079,0.172 -0.079,0.243l0 3.246c0,0.069 0.03,0.157 0.077,0.238l0.002 0.005c0.048,0.083 0.11,0.155 0.171,0.191l2.814 1.626c0.06,0.035 0.154,0.052 0.25,0.052 0.094,0 0.186,-0.016 0.246,-0.049l2.818 -1.629c0.061,-0.036 0.123,-0.108 0.171,-0.191 0.047,-0.082 0.079,-0.172 0.079,-0.243l0 -3.246c0,-0.071 -0.032,-0.161 -0.079,-0.243 -0.048,-0.083 -0.11,-0.155 -0.171,-0.191l-2.814 -1.626c-0.06,-0.035 -0.154,-0.052 -0.25,-0.052z"/>
    <polygon class="fil0" points="8.046,6.853 1.532,6.853 1.532,6.662 8.046,6.662 "/>
    <polygon class="fil0" points="4.935,0.914 8.218,6.6 8.053,6.696 4.77,1.009 "/>
    <polygon class="fil0" points="1.359,6.601 4.644,0.912 4.809,1.008 1.524,6.697 "/>
    <polygon class="fil0" points="4.693,8.591 4.693,0.987 4.885,0.987 4.885,8.591 "/>
    <polygon class="fil0" points="1.451,6.606 8.031,2.807 8.127,2.972 1.547,6.771 "/>
    <polygon class="fil0" points="1.52,2.792 8.153,6.621 8.058,6.786 1.425,2.957 "/>
   </g>
   <rect class="fil1" width="9.578" height="9.578"/>
  </g>
 </g>
</svg>
