<?xml version="1.0" encoding="UTF-8"?>
<!DOCTYPE svg PUBLIC "-//W3C//DTD SVG 1.1//EN" "http://www.w3.org/Graphics/SVG/1.1/DTD/svg11.dtd">
<!-- Creator: CorelDRAW 2018 (64-Bit) -->
<svg xmlns="http://www.w3.org/2000/svg" xml:space="preserve" width="100px" height="100px" version="1.1" style="shape-rendering:geometricPrecision; text-rendering:geometricPrecision; image-rendering:optimizeQuality; fill-rule:evenodd; clip-rule:evenodd"
viewBox="0 0 24.112 24.112"
 xmlns:xlink="http://www.w3.org/1999/xlink">
 <defs>
  <style type="text/css">
   <![CDATA[
    .fil2 {fill:none}
    .fil1 {fill:#00D4E3}
    .fil0 {fill:#00D4E3;fill-rule:nonzero}
   ]]>
  </style>
 </defs>
 <g id="Layer_x0020_1">
  <metadata id="CorelCorpID_0Corel-Layer"/>
  <g id="_2126835189936">
   <g>
    <path class="fil0" d="M16.505 10.134c1.789,0 3.412,0.556 4.59,1.454 1.196,0.912 1.936,2.177 1.936,3.579 0,0.798 -0.241,1.552 -0.669,2.223 -0.415,0.651 -1.007,1.222 -1.727,1.676l0.202 2.509c0.01,0.133 -0.089,0.249 -0.221,0.259 -0.074,0.006 -0.142,-0.022 -0.19,-0.07l-1.829 -1.828c-0.309,0.08 -0.63,0.144 -0.959,0.188 -0.371,0.05 -0.75,0.076 -1.133,0.076 -1.789,0 -3.412,-0.555 -4.59,-1.453 -1.196,-0.912 -1.935,-2.177 -1.935,-3.58 0,-1.402 0.739,-2.667 1.935,-3.579 1.178,-0.898 2.801,-1.454 4.59,-1.454zm4.298 1.836c-1.097,-0.836 -2.616,-1.354 -4.298,-1.354 -1.682,0 -3.201,0.518 -4.298,1.354 -1.078,0.822 -1.745,1.953 -1.745,3.197 0,1.244 0.667,2.375 1.745,3.197 1.097,0.837 2.616,1.354 4.298,1.354 0.368,0 0.726,-0.024 1.07,-0.071 0.348,-0.047 0.687,-0.116 1.012,-0.207 0.086,-0.03 0.185,-0.012 0.253,0.057l1.464 1.463 -0.162 -2.003c-0.006,-0.088 0.036,-0.177 0.117,-0.225 0.715,-0.428 1.299,-0.975 1.698,-1.6 0.379,-0.594 0.591,-1.26 0.591,-1.965 0,-1.244 -0.667,-2.375 -1.745,-3.197z"/>
    <circle class="fil1" cx="13.643" cy="15.185" r="0.736"/>
    <circle class="fil1" cx="16.505" cy="15.185" r="0.736"/>
    <circle class="fil1" cx="19.367" cy="15.185" r="0.736"/>
    <path class="fil0" d="M4.654 3.818c0.133,0 0.241,0.108 0.241,0.242 0,0.133 -0.108,0.241 -0.241,0.241l-2.869 0c-0.06,0 -0.115,0.025 -0.156,0.065 -0.04,0.04 -0.065,0.096 -0.065,0.156l0 13.953c0,0.06 0.025,0.116 0.065,0.156l0.009 0.01c0.039,0.034 0.091,0.056 0.147,0.056l7.795 0c0.133,0 0.241,0.108 0.241,0.241 0,0.133 -0.108,0.241 -0.241,0.241l-7.795 0c-0.185,0 -0.354,-0.073 -0.48,-0.192l-0.016 -0.015c-0.128,-0.127 -0.207,-0.304 -0.207,-0.497l0 -13.953c0,-0.193 0.079,-0.369 0.206,-0.497 0.128,-0.127 0.304,-0.207 0.497,-0.207l2.869 0zm13.229 4.032c0,0.133 -0.108,0.241 -0.241,0.241 -0.133,0 -0.241,-0.108 -0.241,-0.241l0 -3.328c0,-0.06 -0.025,-0.116 -0.065,-0.156 -0.042,-0.04 -0.097,-0.065 -0.157,-0.065l-1.929 0c-0.133,0 -0.241,-0.108 -0.241,-0.241 0,-0.134 0.108,-0.242 0.241,-0.242l1.929 0c0.193,0 0.369,0.08 0.497,0.208l0 0.001c0.127,0.127 0.207,0.303 0.207,0.495l0 3.328z"/>
    <path class="fil0" d="M13.156 3.819c0.134,0 0.242,0.108 0.242,0.241 0,0.133 -0.108,0.241 -0.242,0.241l-1.452 0c-0.133,0 -0.241,-0.108 -0.241,-0.241 0,-0.133 0.108,-0.241 0.241,-0.241l1.452 0z"/>
    <path class="fil0" d="M8.902 3.819c0.133,0 0.241,0.108 0.241,0.241 0,0.133 -0.108,0.241 -0.241,0.241l-1.407 0c-0.133,0 -0.241,-0.108 -0.241,-0.241 0,-0.133 0.108,-0.241 0.241,-0.241l1.407 0z"/>
    <path class="fil0" d="M13.736 2.76c-0.093,0 -0.178,0.038 -0.239,0.099 -0.061,0.062 -0.099,0.147 -0.099,0.239l0 1.923c0,0.093 0.038,0.178 0.099,0.239 0.062,0.062 0.147,0.1 0.239,0.1 0.094,0 0.179,-0.038 0.24,-0.099l0 -0.001c0.061,-0.061 0.099,-0.146 0.099,-0.239l0 -1.923c0,-0.093 -0.038,-0.178 -0.099,-0.239 -0.062,-0.061 -0.147,-0.099 -0.24,-0.099zm-0.579 -0.242c0.149,-0.148 0.354,-0.241 0.579,-0.241 0.226,0 0.432,0.093 0.581,0.241l0 0.001c0.148,0.149 0.241,0.354 0.241,0.579l0 1.923c0,0.226 -0.093,0.431 -0.242,0.58 -0.149,0.149 -0.354,0.241 -0.58,0.241 -0.226,0 -0.431,-0.092 -0.58,-0.241 -0.148,-0.149 -0.241,-0.354 -0.241,-0.58l0 -1.923c0,-0.225 0.093,-0.431 0.241,-0.58l0.001 0z"/>
    <path class="fil0" d="M9.482 2.76c-0.093,0 -0.177,0.038 -0.239,0.099l-0.01 0.01c-0.055,0.06 -0.09,0.141 -0.09,0.229l0 1.923c0,0.093 0.039,0.178 0.1,0.239l0.01 0.01c0.06,0.056 0.141,0.09 0.229,0.09 0.094,0 0.179,-0.038 0.239,-0.099l0 -0.001c0.062,-0.061 0.1,-0.146 0.1,-0.239l0 -1.923c0,-0.093 -0.038,-0.178 -0.099,-0.239 -0.062,-0.061 -0.147,-0.099 -0.24,-0.099zm-0.58 -0.242c0.149,-0.148 0.354,-0.241 0.58,-0.241 0.226,0 0.432,0.093 0.58,0.241l0 0.001c0.149,0.149 0.241,0.354 0.241,0.579l0 1.923c0,0.226 -0.092,0.431 -0.241,0.58 -0.149,0.149 -0.355,0.241 -0.58,0.241 -0.217,0 -0.416,-0.086 -0.564,-0.226l-0.016 -0.015c-0.148,-0.149 -0.241,-0.354 -0.241,-0.58l0 -1.923c0,-0.217 0.087,-0.417 0.227,-0.564l0.014 -0.016z"/>
    <path class="fil0" d="M5.234 2.76c-0.093,0 -0.178,0.038 -0.239,0.099l-0.01 0.01c-0.056,0.06 -0.09,0.141 -0.09,0.229l0 1.923c0,0.093 0.038,0.178 0.1,0.239l0.009 0.01c0.06,0.056 0.141,0.09 0.23,0.09 0.093,0 0.178,-0.038 0.239,-0.099l0 -0.001c0.061,-0.061 0.1,-0.146 0.1,-0.239l0 -1.923c0,-0.093 -0.038,-0.178 -0.099,-0.239 -0.062,-0.061 -0.147,-0.099 -0.24,-0.099zm-0.58 -0.242c0.149,-0.148 0.354,-0.241 0.58,-0.241 0.226,0 0.431,0.093 0.58,0.241l0 0.001c0.149,0.149 0.241,0.354 0.241,0.579l0 1.923c0,0.226 -0.092,0.431 -0.241,0.58 -0.15,0.149 -0.355,0.241 -0.58,0.241 -0.217,0 -0.416,-0.086 -0.564,-0.226l-0.016 -0.015c-0.149,-0.149 -0.241,-0.354 -0.241,-0.58l0 -1.923c0,-0.217 0.086,-0.417 0.227,-0.564l0.014 -0.016z"/>
    <path class="fil0" d="M4.228 8.826l1.417 0c0.12,0 0.23,0.05 0.31,0.13 0.08,0.079 0.129,0.189 0.129,0.31l0 1.416c0,0.121 -0.049,0.231 -0.129,0.311l-0.02 0.018c-0.077,0.069 -0.179,0.111 -0.29,0.111l-1.417 0c-0.121,0 -0.231,-0.05 -0.31,-0.129 -0.08,-0.08 -0.129,-0.19 -0.129,-0.311l0 -1.416c0,-0.12 0.049,-0.231 0.129,-0.31 0.079,-0.08 0.189,-0.13 0.31,-0.13zm1.374 0.483l-1.331 0 0 1.33 1.331 0 0 -1.33z"/>
    <path class="fil0" d="M8.774 8.826l1.417 0c0.12,0 0.23,0.05 0.31,0.13 0.08,0.079 0.129,0.189 0.129,0.31l0 1.416c0,0.121 -0.049,0.231 -0.129,0.311l-0.02 0.018c-0.078,0.069 -0.18,0.111 -0.29,0.111l-1.417 0c-0.121,0 -0.231,-0.05 -0.31,-0.129 -0.08,-0.08 -0.129,-0.19 -0.129,-0.311l0 -1.416c0,-0.12 0.049,-0.231 0.129,-0.31 0.079,-0.08 0.189,-0.13 0.31,-0.13zm1.374 0.483l-1.331 0 0 1.33 1.331 0 0 -1.33z"/>
    <path class="fil0" d="M4.228 13.464l1.417 0c0.12,0 0.23,0.049 0.31,0.129 0.08,0.079 0.129,0.189 0.129,0.31l0 1.417c0,0.121 -0.049,0.231 -0.129,0.31 -0.079,0.08 -0.189,0.129 -0.31,0.129l-1.417 0c-0.121,0 -0.231,-0.049 -0.31,-0.129 -0.08,-0.079 -0.129,-0.189 -0.129,-0.31l0 -1.417c0,-0.12 0.049,-0.23 0.129,-0.31 0.079,-0.08 0.189,-0.129 0.31,-0.129zm1.374 0.482l-1.331 0 0 1.331 1.331 0 0 -1.331z"/>
   </g>
   <rect class="fil2" width="24.113" height="24.113"/>
  </g>
 </g>
</svg>
