<?xml version="1.0" encoding="UTF-8"?>
<!DOCTYPE svg PUBLIC "-//W3C//DTD SVG 1.1//EN" "http://www.w3.org/Graphics/SVG/1.1/DTD/svg11.dtd">
<!-- Creator: CorelDRAW 2018 (64-Bit) -->
<svg xmlns="http://www.w3.org/2000/svg" xml:space="preserve" width="100px" height="100px" version="1.1" style="shape-rendering:geometricPrecision; text-rendering:geometricPrecision; image-rendering:optimizeQuality; fill-rule:evenodd; clip-rule:evenodd"
viewBox="0 0 46.596 46.596"
 xmlns:xlink="http://www.w3.org/1999/xlink">
 <defs>
  <style type="text/css">
   <![CDATA[
    .fil1 {fill:none}
    .fil0 {fill:#00D4E3;fill-rule:nonzero}
   ]]>
  </style>
 </defs>
 <g id="Layer_x0020_1">
  <metadata id="CorelCorpID_0Corel-Layer"/>
  <g id="_2126610807792">
   <g>
    <path class="fil0" d="M4.487 19.733l0 -3.748 -0.002 0c0,-0.995 0.422,-1.899 1.101,-2.554 0.675,-0.65 1.604,-1.054 2.624,-1.054l30.176 0c1.021,0 1.95,0.404 2.624,1.054 0.68,0.655 1.101,1.559 1.101,2.554l-0.002 0 0 3.847c0,0.203 -0.129,0.375 -0.31,0.438 -2.571,0.96 -4.963,1.865 -7.308,2.752 -2.214,0.838 -4.385,1.659 -7.059,2.657 -0.137,0.051 -0.378,0.146 -0.611,0.239 -1.04,0.411 -1.956,0.773 -3.523,0.773 -1.565,0 -2.48,-0.362 -3.517,-0.772 -0.236,-0.093 -0.476,-0.188 -0.617,-0.24 -2.538,-0.947 -4.747,-1.805 -6.997,-2.679 -2.306,-0.895 -4.655,-1.808 -7.378,-2.825 -0.189,-0.07 -0.305,-0.251 -0.302,-0.442zm0.928 -3.748l0 3.433c2.633,0.986 4.88,1.859 7.087,2.716 2.264,0.879 4.488,1.743 6.986,2.675 0.294,0.109 0.468,0.178 0.635,0.244 0.949,0.375 1.786,0.706 3.175,0.706 1.391,0 2.229,-0.332 3.18,-0.708 0.166,-0.065 0.336,-0.132 0.63,-0.242 2.41,-0.899 4.71,-1.769 7.055,-2.657 2.13,-0.805 4.299,-1.626 7.018,-2.642l0 -3.525 -0.002 0c0,-0.733 -0.311,-1.4 -0.813,-1.884 -0.507,-0.489 -1.207,-0.792 -1.98,-0.792l-30.176 0c-0.772,0 -1.473,0.303 -1.98,0.792 -0.501,0.484 -0.813,1.151 -0.813,1.884l-0.002 0z"/>
    <path class="fil0" d="M7.861 17.861c0,0.257 -0.208,0.465 -0.464,0.465 -0.256,0 -0.464,-0.208 -0.464,-0.465l0 -0.798 -0.002 0c0,-0.678 0.3,-1.293 0.782,-1.735 0.473,-0.434 1.122,-0.703 1.833,-0.703l3.145 0c0.257,0 0.466,0.209 0.466,0.466 0,0.257 -0.209,0.466 -0.466,0.466l-3.145 0c-0.471,0 -0.897,0.174 -1.203,0.455 -0.296,0.272 -0.48,0.644 -0.48,1.051l-0.002 0 0 0.798z"/>
    <path class="fil0" d="M40.517 23.094c0,-0.258 0.209,-0.466 0.466,-0.466 0.257,0 0.466,0.208 0.466,0.466l0 13.371c0,0.991 -0.406,1.893 -1.059,2.546l0 0.002c-0.654,0.654 -1.556,1.06 -2.548,1.06l-29.087 0c-0.992,0 -1.895,-0.406 -2.548,-1.06 -0.654,-0.653 -1.06,-1.556 -1.06,-2.548l0 -13.463c0,-0.257 0.209,-0.466 0.466,-0.466 0.257,0 0.466,0.209 0.466,0.466l0 13.463c0,0.735 0.301,1.404 0.786,1.889 0.486,0.485 1.155,0.787 1.89,0.787l29.087 0c0.735,0 1.404,-0.302 1.889,-0.787 0.485,-0.484 0.786,-1.153 0.786,-1.889l0 -13.371z"/>
    <path class="fil0" d="M37.972 31.514c0,-0.257 0.209,-0.466 0.466,-0.466 0.257,0 0.466,0.209 0.466,0.466l0 3.694c0,0.753 -0.309,1.44 -0.807,1.939l-0.003 0.003c-0.499,0.497 -1.185,0.806 -1.938,0.806l-4.523 0c-0.257,0 -0.466,-0.209 -0.466,-0.466 0,-0.257 0.209,-0.466 0.466,-0.466l4.523 0c0.5,0 0.954,-0.204 1.282,-0.532l0.002 -0.002c0.328,-0.328 0.532,-0.782 0.532,-1.282l0 -3.694z"/>
    <path class="fil0" d="M26.723 25.414c0,-0.257 0.209,-0.466 0.466,-0.466 0.257,0 0.466,0.209 0.466,0.466l0 4.969c0,0.257 -0.209,0.466 -0.466,0.466l-7.783 0c-0.257,0 -0.466,-0.209 -0.466,-0.466l0 -4.969c0,-0.257 0.209,-0.466 0.466,-0.466 0.258,0 0.466,0.209 0.466,0.466l0 4.503 6.851 0 0 -4.503z"/>
    <path class="fil0" d="M16.03 10.776c0,0.258 -0.209,0.466 -0.466,0.466 -0.258,0 -0.466,-0.208 -0.466,-0.466 0,-1.169 0.478,-2.231 1.248,-3.002 0.771,-0.772 1.835,-1.251 3.004,-1.251l7.895 0c1.169,0 2.232,0.479 3.003,1.249 0.77,0.771 1.248,1.835 1.248,3.004 0,0.258 -0.208,0.466 -0.466,0.466 -0.257,0 -0.465,-0.208 -0.465,-0.466 0,-0.912 -0.374,-1.743 -0.976,-2.345 -0.602,-0.602 -1.432,-0.976 -2.344,-0.976l-7.895 0c-0.915,0 -1.745,0.373 -2.345,0.974 -0.602,0.602 -0.975,1.433 -0.975,2.347z"/>
   </g>
   <rect class="fil1" width="46.596" height="46.596"/>
  </g>
 </g>
</svg>
