<?xml version="1.0" encoding="UTF-8"?>
<!DOCTYPE svg PUBLIC "-//W3C//DTD SVG 1.1//EN" "http://www.w3.org/Graphics/SVG/1.1/DTD/svg11.dtd">
<!-- Creator: CorelDRAW 2018 (64-Bit) -->
<svg xmlns="http://www.w3.org/2000/svg" xml:space="preserve" width="101px" height="100px" version="1.1" style="shape-rendering:geometricPrecision; text-rendering:geometricPrecision; image-rendering:optimizeQuality; fill-rule:evenodd; clip-rule:evenodd"
viewBox="0 0 12.044 11.976"
 xmlns:xlink="http://www.w3.org/1999/xlink">
 <defs>
  <style type="text/css">
   <![CDATA[
    .fil2 {fill:none}
    .fil1 {fill:#00D4E3}
    .fil0 {fill:#00D4E3;fill-rule:nonzero}
   ]]>
  </style>
 </defs>
 <g id="Layer_x0020_1">
  <metadata id="CorelCorpID_0Corel-Layer"/>
  <g id="_2127110862512">
   <g>
    <path class="fil0" d="M1.76 3.724l2.431 0c0.066,0 0.12,0.054 0.12,0.12l0 3.451c0,0.067 -0.054,0.12 -0.12,0.12l-0.584 0 0.905 2.577c0.022,0.062 -0.011,0.13 -0.074,0.152 -0.013,0.005 -0.026,0.007 -0.039,0.007l0 0 -1.407 0c-0.052,0 -0.095,-0.032 -0.112,-0.077l-1.229 -2.729c-0.007,-0.016 -0.011,-0.033 -0.011,-0.05l0 -3.451c0,-0.066 0.054,-0.12 0.12,-0.12zm2.311 0.24l-2.191 0 0 3.306 1.189 2.642 1.162 0 -0.902 -2.568c-0.006,-0.015 -0.01,-0.031 -0.01,-0.049 0,-0.066 0.054,-0.119 0.12,-0.119l0.632 0 0 -3.212z"/>
    <path class="fil0" d="M0.898 6.697c0.066,0 0.12,0.053 0.12,0.12 0,0.066 -0.054,0.119 -0.12,0.119l-0.331 0c-0.041,0 -0.077,-0.02 -0.099,-0.052 -0.147,-0.181 -0.265,-0.387 -0.346,-0.612 -0.079,-0.22 -0.122,-0.457 -0.122,-0.702 0,-0.246 0.043,-0.483 0.122,-0.703 0.082,-0.228 0.202,-0.437 0.353,-0.62 0.024,-0.028 0.058,-0.043 0.092,-0.043l0 -0.001 0.331 0c0.066,0 0.12,0.054 0.12,0.12 0,0.066 -0.054,0.12 -0.12,0.12l-0.274 0c-0.117,0.151 -0.211,0.321 -0.277,0.505 -0.07,0.193 -0.107,0.402 -0.107,0.622 0,0.219 0.037,0.429 0.107,0.622 0.066,0.183 0.16,0.353 0.277,0.505l0.274 0z"/>
    <path class="fil0" d="M10.052 2.103l-5.741 1.828 0 3.278 5.741 1.828c0.091,-1.054 0.136,-2.259 0.136,-3.467 0,-1.208 -0.045,-2.413 -0.136,-3.467zm-5.897 1.627l5.962 -1.898c0.01,-0.004 0.02,-0.006 0.03,-0.007 0.066,-0.006 0.124,0.043 0.13,0.108 0.1,1.103 0.15,2.371 0.15,3.637 0,1.265 -0.05,2.534 -0.15,3.636 -0.001,0.009 -0.003,0.017 -0.005,0.026 -0.02,0.062 -0.087,0.097 -0.15,0.077l-5.956 -1.896c-0.054,-0.012 -0.095,-0.06 -0.095,-0.117l0 -3.452 0.001 0c0,-0.051 0.032,-0.098 0.083,-0.114z"/>
    <path class="fil0" d="M8.304 8.459c-0.007,0.066 -0.066,0.113 -0.132,0.105 -0.066,-0.007 -0.113,-0.067 -0.105,-0.132 0.099,-0.864 0.149,-1.862 0.149,-2.862 0,-1 -0.05,-1.999 -0.149,-2.862 -0.008,-0.066 0.039,-0.125 0.105,-0.133 0.066,-0.007 0.125,0.04 0.132,0.105 0.101,0.875 0.151,1.883 0.151,2.89 0,1.006 -0.05,2.015 -0.151,2.889z"/>
    <path class="fil0" d="M11.488 6.95c-0.045,0.048 -0.121,0.049 -0.168,0.004 -0.048,-0.046 -0.049,-0.122 -0.004,-0.169 0.154,-0.161 0.278,-0.351 0.362,-0.561 0.081,-0.201 0.126,-0.422 0.126,-0.654 0,-0.232 -0.045,-0.453 -0.126,-0.655 -0.084,-0.21 -0.208,-0.4 -0.362,-0.56 -0.045,-0.048 -0.044,-0.123 0.004,-0.169 0.047,-0.046 0.123,-0.044 0.168,0.003 0.175,0.183 0.316,0.399 0.412,0.637 0.093,0.231 0.144,0.482 0.144,0.744 0,0.262 -0.051,0.513 -0.144,0.743 -0.096,0.239 -0.237,0.455 -0.412,0.637z"/>
    <circle class="fil1" cx="2.991" cy="4.904" r="0.258"/>
   </g>
   <rect class="fil2" x="0.034" width="11.976" height="11.976"/>
  </g>
 </g>
</svg>
