<?xml version="1.0" encoding="UTF-8"?>
<!DOCTYPE svg PUBLIC "-//W3C//DTD SVG 1.1//EN" "http://www.w3.org/Graphics/SVG/1.1/DTD/svg11.dtd">
<!-- Creator: CorelDRAW 2018 (64-Bit) -->
<svg xmlns="http://www.w3.org/2000/svg" xml:space="preserve" width="141px" height="100px" version="1.1" style="shape-rendering:geometricPrecision; text-rendering:geometricPrecision; image-rendering:optimizeQuality; fill-rule:evenodd; clip-rule:evenodd"
viewBox="0 0 18.446 13.065"
 xmlns:xlink="http://www.w3.org/1999/xlink">
 <defs>
  <style type="text/css">
   <![CDATA[
    .fil1 {fill:none}
    .fil0 {fill:#A3AEBA;fill-rule:nonzero}
   ]]>
  </style>
 </defs>
 <g id="Layer_x0020_1">
  <metadata id="CorelCorpID_0Corel-Layer"/>
  <g id="_2127059890912">
   <g>
    <path class="fil0" d="M0.248 10.873c-0.072,0 -0.13,-0.059 -0.13,-0.131 0,-0.072 0.058,-0.131 0.13,-0.131l2.503 0c0.072,0 0.131,0.059 0.131,0.131 0,0.072 -0.059,0.131 -0.131,0.131l-2.503 0z"/>
    <path class="fil0" d="M3.201 6.945c0.063,-0.036 0.142,-0.015 0.178,0.047 0.036,0.062 0.015,0.142 -0.047,0.178l-0.718 0.415c-0.063,0.036 -0.142,0.015 -0.179,-0.047 -0.036,-0.063 -0.014,-0.142 0.048,-0.179l0.718 -0.414z"/>
    <path class="fil0" d="M2.483 7.359c0.062,-0.036 0.142,-0.014 0.178,0.048 0.036,0.062 0.015,0.142 -0.047,0.178 -0.193,0.111 -0.299,0.344 -0.313,0.628 -0.015,0.304 0.074,0.664 0.271,1.005 0.036,0.062 0.015,0.142 -0.047,0.178 -0.063,0.036 -0.142,0.014 -0.178,-0.048 -0.223,-0.385 -0.323,-0.796 -0.306,-1.147 0.018,-0.372 0.167,-0.683 0.442,-0.842z"/>
    <path class="fil0" d="M2.347 9.348c-0.037,-0.062 -0.015,-0.142 0.047,-0.178 0.055,-0.032 0.124,-0.019 0.164,0.028l2.198 -1.269c-0.02,-0.058 0.003,-0.124 0.058,-0.156 0.062,-0.036 0.142,-0.015 0.178,0.047l0.053 0.093c0.036,0.062 0.015,0.142 -0.047,0.178l-2.42 1.397c-0.062,0.036 -0.142,0.015 -0.178,-0.048l-0.053 -0.092z"/>
    <path class="fil0" d="M4.995 7.828c0.033,0.064 0.007,0.142 -0.058,0.174 -0.062,0.031 -0.138,0.007 -0.172,-0.053 -0.196,-0.34 -0.462,-0.596 -0.733,-0.735 -0.253,-0.13 -0.507,-0.155 -0.7,-0.044 -0.021,0.012 -0.043,0.018 -0.065,0.018 -0.072,0 -0.131,-0.058 -0.131,-0.131 0,-0.052 0.031,-0.097 0.075,-0.118 0.273,-0.152 0.612,-0.125 0.939,0.043 0.313,0.161 0.618,0.452 0.84,0.836l0.005 0.01z"/>
    <path class="fil0" d="M2.486 6.178c0.063,-0.036 0.142,-0.015 0.178,0.048 0.036,0.062 0.014,0.142 -0.048,0.177l-0.309 0.179c-0.063,0.036 -0.142,0.014 -0.178,-0.048 -0.036,-0.062 -0.014,-0.142 0.048,-0.178l0.309 -0.178z"/>
    <path class="fil0" d="M2.177 6.356c0.062,-0.036 0.142,-0.015 0.178,0.048 0.036,0.062 0.014,0.142 -0.048,0.178 -0.052,0.03 -0.069,0.129 -0.054,0.266 0.018,0.171 0.091,0.383 0.213,0.595 0.036,0.062 0.015,0.142 -0.048,0.178 -0.062,0.036 -0.142,0.014 -0.178,-0.048 -0.14,-0.243 -0.224,-0.493 -0.246,-0.698 -0.026,-0.24 0.033,-0.432 0.183,-0.519z"/>
    <path class="fil0" d="M2.24 7.573c-0.035,-0.063 -0.014,-0.142 0.048,-0.178 0.042,-0.024 0.093,-0.022 0.132,0.001l0.845 -0.488c-0.001,-0.045 0.022,-0.09 0.065,-0.114 0.062,-0.037 0.142,-0.015 0.178,0.047l0.033 0.058c0.036,0.062 0.015,0.142 -0.047,0.178l-1.043 0.601c-0.062,0.036 -0.141,0.015 -0.177,-0.048l-0.034 -0.057z"/>
    <path class="fil0" d="M3.508 6.841c0.036,0.063 0.014,0.142 -0.048,0.178 -0.062,0.036 -0.142,0.014 -0.178,-0.048 -0.122,-0.211 -0.269,-0.38 -0.408,-0.482 -0.111,-0.081 -0.206,-0.116 -0.258,-0.086 -0.062,0.036 -0.142,0.015 -0.178,-0.048 -0.035,-0.062 -0.014,-0.141 0.048,-0.177 0.15,-0.087 0.346,-0.041 0.541,0.101 0.166,0.122 0.34,0.319 0.481,0.562z"/>
    <path class="fil0" d="M0.553 7.956c-0.081,0 -0.154,0.032 -0.206,0.084l-0.001 0.001c-0.052,0.052 -0.085,0.125 -0.085,0.206 0,0.081 0.033,0.153 0.085,0.206l0.001 0c0.052,0.053 0.125,0.085 0.206,0.085 0.08,0 0.153,-0.033 0.206,-0.085 0.052,-0.053 0.085,-0.126 0.085,-0.206 0,-0.081 -0.033,-0.154 -0.085,-0.206l0 -0.001c-0.053,-0.052 -0.126,-0.084 -0.206,-0.084zm-0.391 -0.099l0 -0.001c0.101,-0.1 0.239,-0.162 0.391,-0.162 0.151,0 0.289,0.062 0.389,0.162l0.001 0.001c0.1,0.1 0.162,0.238 0.162,0.39 0,0.152 -0.062,0.291 -0.162,0.391 -0.1,0.1 -0.238,0.161 -0.39,0.161 -0.152,0 -0.29,-0.061 -0.39,-0.161l-0.001 -0.001c-0.1,-0.1 -0.162,-0.238 -0.162,-0.39 0,-0.152 0.062,-0.29 0.162,-0.39l0 0z"/>
    <path class="fil0" d="M2.12 7.03c0.061,-0.037 0.142,-0.017 0.179,0.045 0.037,0.062 0.017,0.142 -0.044,0.179l-1.337 0.806c-0.061,0.037 -0.142,0.018 -0.179,-0.044 -0.037,-0.062 -0.017,-0.142 0.045,-0.179l1.336 -0.807z"/>
    <path class="fil0" d="M0.65 8.7c-0.026,-0.067 0.009,-0.142 0.076,-0.168 0.067,-0.025 0.142,0.009 0.168,0.076l0.785 2.088c0.025,0.067 -0.009,0.143 -0.076,0.168 -0.067,0.025 -0.142,-0.009 -0.168,-0.076l-0.785 -2.088z"/>
    <path class="fil0" d="M4.529 6.515c0,0.072 -0.058,0.13 -0.13,0.13 -0.073,0 -0.131,-0.058 -0.131,-0.13l0 -3.987c0,-0.138 0.056,-0.264 0.148,-0.355 0.091,-0.091 0.217,-0.148 0.355,-0.148l9.688 0c0.139,0 0.265,0.057 0.356,0.148 0.091,0.091 0.148,0.217 0.148,0.355l0 6.283c0,0.139 -0.057,0.265 -0.148,0.356 -0.091,0.091 -0.217,0.148 -0.356,0.148l-9.688 0c-0.069,0 -0.135,-0.015 -0.196,-0.041 -0.063,-0.026 -0.119,-0.066 -0.166,-0.114 -0.05,-0.052 -0.048,-0.134 0.004,-0.184 0.051,-0.05 0.134,-0.048 0.184,0.003 0.022,0.024 0.049,0.043 0.08,0.056 0.028,0.012 0.06,0.019 0.094,0.019l9.688 0c0.067,0 0.128,-0.028 0.171,-0.072 0.044,-0.044 0.072,-0.104 0.072,-0.171l0 -6.283c0,-0.066 -0.028,-0.127 -0.072,-0.17 -0.043,-0.044 -0.104,-0.072 -0.171,-0.072l-9.688 0c-0.066,0 -0.127,0.028 -0.171,0.072 -0.044,0.043 -0.071,0.104 -0.071,0.17l0 3.987z"/>
    <path class="fil0" d="M7.355 10.873c-0.072,0 -0.131,-0.059 -0.131,-0.131 0,-0.072 0.059,-0.131 0.131,-0.131l4.521 0c0.072,0 0.131,0.059 0.131,0.131 0,0.072 -0.059,0.131 -0.131,0.131l-4.521 0z"/>
    <path class="fil0" d="M8.261 10.582c0,0.072 -0.058,0.131 -0.13,0.131 -0.072,0 -0.131,-0.059 -0.131,-0.131l0 -1.398c0,-0.072 0.059,-0.13 0.131,-0.13 0.072,0 0.13,0.058 0.13,0.13l0 1.398z"/>
    <path class="fil0" d="M11.231 10.582c0,0.072 -0.059,0.131 -0.131,0.131 -0.072,0 -0.13,-0.059 -0.13,-0.131l0 -1.398c0,-0.072 0.058,-0.13 0.13,-0.13 0.072,0 0.131,0.058 0.131,0.13l0 1.398z"/>
    <path class="fil0" d="M15.845 9.998c-0.006,-0.071 0.046,-0.135 0.118,-0.141 0.071,-0.007 0.135,0.046 0.141,0.118l0.079 0.869c0.006,0.071 -0.047,0.135 -0.118,0.141 -0.072,0.007 -0.135,-0.046 -0.141,-0.118l-0.079 -0.869z"/>
    <path class="fil0" d="M15.924 10.867c-0.007,-0.071 0.046,-0.135 0.117,-0.141 0.054,-0.005 0.103,0.023 0.127,0.068 0.041,0.021 0.07,0.065 0.07,0.115 0,0.073 -0.059,0.131 -0.131,0.131 -0.044,0 -0.084,-0.016 -0.116,-0.042 -0.004,-0.004 -0.008,-0.008 -0.012,-0.012 -0.031,-0.03 -0.051,-0.073 -0.055,-0.119z"/>
    <path class="fil0" d="M16.107 11.04c-0.072,0 -0.131,-0.058 -0.131,-0.131 0,-0.072 0.059,-0.13 0.131,-0.13l1.073 0c0.072,0 0.13,0.058 0.13,0.13 0,0.073 -0.058,0.131 -0.13,0.131l-1.073 0z"/>
    <path class="fil0" d="M17.18 11.04c-0.072,0 -0.131,-0.058 -0.131,-0.131 0,-0.05 0.028,-0.094 0.07,-0.115 0.024,-0.045 0.073,-0.073 0.126,-0.068 0.072,0.006 0.125,0.07 0.118,0.141 -0.004,0.046 -0.024,0.089 -0.055,0.119 -0.033,0.033 -0.078,0.054 -0.128,0.054z"/>
    <path class="fil0" d="M17.363 10.867c-0.006,0.072 -0.07,0.125 -0.141,0.118 -0.072,-0.006 -0.125,-0.07 -0.118,-0.141l0.079 -0.869c0.006,-0.072 0.069,-0.125 0.141,-0.118 0.071,0.006 0.124,0.07 0.118,0.141l-0.079 0.869z"/>
    <path class="fil0" d="M17.449 9.423c0.072,0 0.131,0.059 0.131,0.131 0,0.072 -0.059,0.13 -0.131,0.13l-1.611 0c-0.073,0 -0.131,-0.058 -0.131,-0.13 0,-0.072 0.058,-0.131 0.131,-0.131l1.611 0z"/>
    <path class="fil0" d="M15.838 9.423c0.072,0 0.13,0.059 0.13,0.131 0,0.05 -0.028,0.093 -0.07,0.115 -0.02,0.039 -0.06,0.066 -0.107,0.069 -0.072,0.004 -0.134,-0.051 -0.138,-0.123l0 -0.012c0,-0.05 0.021,-0.094 0.054,-0.126 0.026,-0.026 0.062,-0.045 0.1,-0.051l0.01 -0.002c0.008,0 0.015,-0.001 0.021,-0.001z"/>
    <path class="fil0" d="M15.654 9.621c-0.008,-0.071 0.044,-0.135 0.116,-0.143 0.071,-0.008 0.136,0.044 0.143,0.116l0.032 0.287c0.007,0.072 -0.045,0.136 -0.116,0.144 -0.072,0.007 -0.136,-0.045 -0.144,-0.116l-0.031 -0.288z"/>
    <path class="fil0" d="M15.685 9.909c-0.007,-0.072 0.045,-0.136 0.116,-0.144 0.055,-0.005 0.105,0.023 0.129,0.068 0.041,0.022 0.07,0.066 0.07,0.116 0,0.072 -0.059,0.13 -0.131,0.13 -0.051,0 -0.095,-0.02 -0.128,-0.053l0 0c-0.031,-0.031 -0.051,-0.073 -0.056,-0.117z"/>
    <path class="fil0" d="M15.869 10.079c-0.072,0 -0.131,-0.058 -0.131,-0.13 0,-0.072 0.059,-0.131 0.131,-0.131l1.549 0c0.072,0 0.13,0.059 0.13,0.131 0,0.072 -0.058,0.13 -0.13,0.13l-1.549 0z"/>
    <path class="fil0" d="M17.418 10.079c-0.072,0 -0.131,-0.058 -0.131,-0.13 0,-0.05 0.028,-0.094 0.07,-0.116 0.024,-0.045 0.074,-0.073 0.128,-0.068 0.072,0.008 0.124,0.072 0.116,0.144 -0.005,0.045 -0.024,0.087 -0.055,0.117 -0.033,0.033 -0.077,0.053 -0.128,0.053z"/>
    <path class="fil0" d="M17.601 9.909c-0.007,0.071 -0.072,0.123 -0.143,0.116 -0.072,-0.008 -0.124,-0.072 -0.116,-0.144l0.032 -0.287c0.007,-0.072 0.071,-0.124 0.143,-0.116 0.071,0.008 0.123,0.072 0.116,0.143l-0.032 0.288z"/>
    <path class="fil0" d="M17.633 9.615c-0.004,0.072 -0.065,0.127 -0.137,0.123 -0.047,-0.003 -0.087,-0.03 -0.108,-0.069 -0.041,-0.022 -0.069,-0.065 -0.069,-0.115 0,-0.072 0.058,-0.131 0.13,-0.131l0.02 0.001c0.043,0.005 0.082,0.025 0.111,0.053 0.033,0.032 0.054,0.076 0.054,0.126l-0.001 0.012z"/>
    <path class="fil0" d="M17.274 9.646c-0.054,0.048 -0.136,0.043 -0.184,-0.011 -0.048,-0.054 -0.043,-0.136 0.011,-0.184 0.081,-0.071 0.148,-0.162 0.195,-0.266 0.046,-0.102 0.073,-0.215 0.077,-0.335 0.002,-0.072 0.062,-0.129 0.134,-0.127 0.071,0.002 0.128,0.062 0.126,0.134 -0.004,0.156 -0.04,0.304 -0.099,0.435 -0.063,0.138 -0.152,0.258 -0.26,0.354z"/>
    <path class="fil0" d="M17.502 8.983c-0.071,0 -0.129,-0.058 -0.129,-0.13 0,-0.072 0.059,-0.13 0.13,-0.13l0.005 0c0.072,0.001 0.13,0.059 0.13,0.131 0,0.072 -0.059,0.13 -0.131,0.13l-0.005 -0.001z"/>
    <path class="fil0" d="M17.508 8.984c-0.072,0 -0.131,-0.058 -0.131,-0.131 0,-0.072 0.059,-0.13 0.131,-0.13 0.1,0 0.207,-0.038 0.299,-0.098 0.091,-0.061 0.166,-0.142 0.201,-0.23 0.014,-0.033 0.02,-0.064 0.02,-0.092 0,-0.029 -0.007,-0.054 -0.021,-0.073 -0.014,-0.021 -0.035,-0.037 -0.063,-0.048 -0.029,-0.012 -0.064,-0.018 -0.105,-0.018 -0.07,0 -0.144,0.018 -0.213,0.05 -0.073,0.034 -0.142,0.083 -0.196,0.14 -0.049,0.053 -0.132,0.055 -0.184,0.006 -0.007,-0.007 -0.013,-0.014 -0.019,-0.021 -0.066,-0.098 -0.153,-0.179 -0.252,-0.233 -0.094,-0.052 -0.2,-0.081 -0.312,-0.081 -0.194,0 -0.371,0.087 -0.498,0.228 -0.131,0.145 -0.212,0.346 -0.212,0.57 0,0.123 0.024,0.239 0.068,0.343 0.044,0.106 0.11,0.2 0.191,0.274 0.053,0.049 0.056,0.131 0.008,0.184 -0.049,0.053 -0.132,0.057 -0.185,0.008 -0.107,-0.099 -0.194,-0.224 -0.254,-0.365 -0.058,-0.136 -0.09,-0.287 -0.09,-0.444 0,-0.29 0.107,-0.553 0.281,-0.744 0.176,-0.195 0.42,-0.316 0.691,-0.316 0.157,0 0.306,0.041 0.438,0.114 0.093,0.052 0.178,0.119 0.251,0.199 0.051,-0.038 0.107,-0.072 0.166,-0.099 0.103,-0.047 0.214,-0.074 0.321,-0.074 0.075,0 0.142,0.013 0.202,0.037 0.077,0.031 0.138,0.08 0.181,0.143 0.044,0.063 0.067,0.138 0.067,0.22 0,0.06 -0.012,0.123 -0.039,0.189 -0.056,0.138 -0.166,0.262 -0.3,0.35 -0.132,0.088 -0.291,0.142 -0.442,0.142z"/>
    <path class="fil0" d="M16.101 7.911c-0.04,-0.06 -0.023,-0.141 0.037,-0.181 0.06,-0.04 0.141,-0.023 0.181,0.037l0.069 0.104c0.04,0.06 0.023,0.141 -0.037,0.181 -0.06,0.039 -0.141,0.023 -0.18,-0.037l-0.07 -0.104z"/>
    <path class="fil0" d="M15.61 8.624c-0.069,-0.019 -0.111,-0.09 -0.092,-0.16 0.019,-0.069 0.09,-0.111 0.16,-0.092l0.127 0.034c0.07,0.019 0.111,0.091 0.093,0.16 -0.019,0.07 -0.091,0.111 -0.16,0.093l-0.128 -0.035z"/>
    <path class="fil0" d="M15.774 8.219c-0.061,-0.039 -0.078,-0.12 -0.04,-0.18 0.039,-0.061 0.12,-0.078 0.181,-0.039l0.108 0.07c0.061,0.039 0.078,0.119 0.04,0.18 -0.039,0.061 -0.12,0.078 -0.181,0.039l-0.108 -0.07z"/>
    <path class="fil0" d="M15.645 9.043c-0.072,0.01 -0.138,-0.04 -0.147,-0.111 -0.01,-0.071 0.04,-0.137 0.111,-0.147l0.131 -0.018c0.072,-0.01 0.137,0.04 0.147,0.111 0.01,0.071 -0.04,0.137 -0.111,0.147l-0.131 0.018z"/>
    <path class="fil0" d="M15.788 9.425c-0.064,0.034 -0.142,0.009 -0.176,-0.055 -0.033,-0.063 -0.009,-0.142 0.055,-0.176l0.115 -0.061c0.063,-0.033 0.142,-0.009 0.176,0.055 0.033,0.064 0.009,0.143 -0.055,0.176l-0.115 0.061z"/>
    <path class="fil0" d="M17.033 7.77c0.04,-0.06 0.121,-0.076 0.181,-0.036 0.06,0.039 0.076,0.12 0.037,0.18l-0.07 0.104c-0.04,0.06 -0.12,0.077 -0.18,0.037 -0.06,-0.04 -0.077,-0.12 -0.037,-0.18l0.069 -0.105z"/>
    <path class="fil0" d="M18.185 7.946c0.061,-0.039 0.141,-0.021 0.18,0.04 0.039,0.06 0.022,0.141 -0.039,0.18l-0.722 0.467c-0.061,0.038 -0.142,0.021 -0.18,-0.04 -0.039,-0.06 -0.022,-0.141 0.039,-0.18l0.722 -0.467z"/>
    <path class="fil0" d="M17.665 9.141c0.066,0.028 0.097,0.105 0.069,0.171 -0.028,0.066 -0.105,0.097 -0.171,0.069l-0.12 -0.051c-0.067,-0.029 -0.097,-0.105 -0.069,-0.171 0.028,-0.067 0.104,-0.097 0.171,-0.069l0.12 0.051z"/>
    <path class="fil0" d="M17.788 7.827c0.018,-0.07 0.089,-0.112 0.159,-0.095 0.069,0.018 0.112,0.089 0.095,0.159l-0.031 0.119c-0.017,0.07 -0.088,0.112 -0.158,0.095 -0.07,-0.018 -0.112,-0.089 -0.095,-0.159l0.03 -0.119z"/>
    <path class="fil0" d="M17.396 8.016c-0.039,-0.06 -0.023,-0.141 0.037,-0.18 0.06,-0.04 0.141,-0.024 0.181,0.036l0.069 0.105c0.04,0.06 0.023,0.141 -0.037,0.18 -0.06,0.04 -0.14,0.024 -0.18,-0.036l-0.07 -0.105z"/>
    <path class="fil0" d="M18.354 8.374c0.068,0.021 0.107,0.094 0.086,0.162 -0.02,0.069 -0.093,0.108 -0.162,0.087l-0.126 -0.038c-0.069,-0.021 -0.108,-0.094 -0.087,-0.163 0.021,-0.068 0.094,-0.107 0.163,-0.086l0.126 0.038z"/>
    <path class="fil0" d="M17.9 8.783c-0.04,-0.06 -0.024,-0.141 0.036,-0.181 0.06,-0.039 0.141,-0.023 0.181,0.037l0.069 0.104c0.04,0.06 0.024,0.141 -0.036,0.181 -0.06,0.04 -0.141,0.023 -0.181,-0.037l-0.069 -0.104z"/>
    <path class="fil0" d="M17.584 8.91c-0.016,-0.071 0.028,-0.14 0.098,-0.157 0.07,-0.016 0.14,0.028 0.156,0.098l0.027 0.12c0.017,0.07 -0.027,0.14 -0.098,0.156 -0.07,0.016 -0.14,-0.028 -0.156,-0.098l-0.027 -0.119z"/>
    <path class="fil0" d="M17.259 8.37c-0.059,-0.042 -0.071,-0.123 -0.029,-0.181 0.042,-0.058 0.124,-0.071 0.182,-0.029 0.048,0.035 0.105,0.133 0.147,0.281 0.029,0.102 0.056,0.236 0.074,0.399 0.007,0.071 -0.045,0.135 -0.116,0.143 -0.072,0.008 -0.136,-0.044 -0.144,-0.116 -0.015,-0.144 -0.039,-0.264 -0.065,-0.355 -0.026,-0.09 -0.043,-0.137 -0.049,-0.142z"/>
    <path class="fil0" d="M16.934 9.627c-0.04,0.059 -0.121,0.075 -0.181,0.035 -0.059,-0.041 -0.075,-0.122 -0.035,-0.181 0.041,-0.061 0.076,-0.153 0.101,-0.265 0.026,-0.115 0.041,-0.25 0.041,-0.396 0,-0.218 -0.033,-0.412 -0.086,-0.55 -0.039,-0.1 -0.078,-0.162 -0.108,-0.162 -0.03,0 -0.069,0.062 -0.108,0.162 -0.053,0.138 -0.086,0.332 -0.086,0.55 0,0.137 0.013,0.263 0.036,0.372 0.022,0.109 0.054,0.201 0.091,0.266 0.037,0.062 0.015,0.142 -0.047,0.178 -0.062,0.036 -0.142,0.015 -0.178,-0.048 -0.051,-0.088 -0.093,-0.207 -0.122,-0.344 -0.026,-0.128 -0.041,-0.272 -0.041,-0.424 0,-0.248 0.04,-0.475 0.104,-0.643 0.079,-0.204 0.202,-0.331 0.351,-0.331 0.149,0 0.272,0.127 0.351,0.331 0.064,0.168 0.104,0.395 0.104,0.643 0,0.163 -0.017,0.317 -0.047,0.452 -0.033,0.145 -0.081,0.268 -0.14,0.355z"/>
    <path class="fil0" d="M14.092 7.216c0,-0.072 0.058,-0.131 0.131,-0.131 0.072,0 0.13,0.059 0.13,0.131l0 1.039c0,0.123 -0.05,0.236 -0.132,0.317l0 0.001c-0.082,0.082 -0.194,0.132 -0.318,0.132l-2.089 0c-0.072,0 -0.13,-0.058 -0.13,-0.13 0,-0.072 0.058,-0.131 0.13,-0.131l2.089 0c0.051,0 0.099,-0.021 0.133,-0.056 0.035,-0.034 0.056,-0.081 0.056,-0.133l0 -1.039z"/>
    <path class="fil0" d="M5.139 3.758c0,0.072 -0.059,0.131 -0.131,0.131 -0.072,0 -0.131,-0.059 -0.131,-0.131l0 -0.673c0,-0.124 0.051,-0.236 0.133,-0.318 0.081,-0.082 0.194,-0.132 0.318,-0.132l1.296 0c0.072,0 0.13,0.058 0.13,0.13 0,0.072 -0.058,0.131 -0.13,0.131l-1.296 0c-0.052,0 -0.099,0.021 -0.133,0.056 -0.035,0.034 -0.056,0.081 -0.056,0.133l0 0.673z"/>
   </g>
   <rect class="fil1" x="2.69" width="13.065" height="13.065"/>
  </g>
 </g>
</svg>
