<?xml version="1.0" encoding="UTF-8"?>
<!DOCTYPE svg PUBLIC "-//W3C//DTD SVG 1.1//EN" "http://www.w3.org/Graphics/SVG/1.1/DTD/svg11.dtd">
<!-- Creator: CorelDRAW 2018 (64-Bit) -->
<svg xmlns="http://www.w3.org/2000/svg" xml:space="preserve" width="100px" height="100px" version="1.1" style="shape-rendering:geometricPrecision; text-rendering:geometricPrecision; image-rendering:optimizeQuality; fill-rule:evenodd; clip-rule:evenodd"
viewBox="0 0 24.114 24.114"
 xmlns:xlink="http://www.w3.org/1999/xlink">
 <defs>
  <style type="text/css">
   <![CDATA[
    .fil1 {fill:none}
    .fil0 {fill:#A3AEBA;fill-rule:nonzero}
   ]]>
  </style>
 </defs>
 <g id="Layer_x0020_1">
  <metadata id="CorelCorpID_0Corel-Layer"/>
  <g id="_2127059889120">
   <g>
    <path class="fil0" d="M8.742 13.572c0,-0.133 0.108,-0.241 0.241,-0.241 0.133,0 0.241,0.108 0.241,0.241l0 6.26c0,0.133 -0.108,0.241 -0.241,0.241 -0.133,0 -0.241,-0.108 -0.241,-0.241l0 -6.26z"/>
    <path class="fil0" d="M7.39 15.9c-0.133,0 -0.241,-0.108 -0.241,-0.241 0,-0.133 0.108,-0.241 0.241,-0.241l0.531 0c0.133,0 0.241,0.108 0.241,0.241 0,0.133 -0.108,0.241 -0.241,0.241l-0.531 0z"/>
    <path class="fil0" d="M16.058 18.409c-0.094,0.094 -0.247,0.094 -0.341,0 -0.094,-0.094 -0.094,-0.247 0,-0.341l3.187 -3.186c0.094,-0.095 0.247,-0.095 0.341,0 0.094,0.094 0.094,0.246 0,0.341l-3.187 3.186z"/>
    <path class="fil0" d="M17.652 18.407c-0.094,0.094 -0.247,0.094 -0.341,0 -0.094,-0.095 -0.094,-0.247 0,-0.341l1.593 -1.594c0.094,-0.094 0.247,-0.094 0.341,0 0.094,0.094 0.094,0.247 0,0.341l-1.593 1.594z"/>
    <path class="fil0" d="M22.52 9.732c0,0.537 -0.217,1.022 -0.569,1.374 -0.353,0.353 -0.839,0.571 -1.375,0.571 -0.524,0 -0.952,-0.178 -1.282,-0.494 -0.157,-0.151 -0.291,-0.333 -0.4,-0.543 -0.092,0.183 -0.213,0.348 -0.357,0.489 -0.349,0.342 -0.832,0.548 -1.368,0.548l-0.002 0 0 -0.001c-0.536,-0.001 -1.022,-0.218 -1.374,-0.569 -0.129,-0.129 -0.24,-0.276 -0.329,-0.437 -0.089,0.161 -0.199,0.307 -0.328,0.436l0 0.001c-0.351,0.351 -0.837,0.568 -1.373,0.569l0 0.001 -0.003 0 0 -0.001c-0.537,-0.001 -1.022,-0.218 -1.374,-0.569 -0.129,-0.129 -0.24,-0.276 -0.328,-0.436 -0.089,0.16 -0.2,0.307 -0.329,0.436l-0.014 0.013c-0.35,0.344 -0.83,0.555 -1.359,0.556l0 0.001 -0.003 0 0 -0.001c-0.536,-0.001 -1.022,-0.218 -1.374,-0.569 -0.129,-0.129 -0.24,-0.276 -0.329,-0.436 -0.089,0.16 -0.199,0.307 -0.328,0.435l0 0.001c-0.351,0.351 -0.836,0.568 -1.372,0.569l0 0.001 -0.005 0 0 -0.001c-0.534,-0.001 -1.012,-0.2 -1.358,-0.534 -0.148,-0.143 -0.272,-0.31 -0.365,-0.497 -0.109,0.2 -0.243,0.378 -0.401,0.528 -0.332,0.315 -0.763,0.504 -1.28,0.504 -0.537,0 -1.023,-0.218 -1.376,-0.57 -0.352,-0.352 -0.571,-0.838 -0.571,-1.375 0,-0.036 0.008,-0.07 0.022,-0.1l1.8 -4.924c0.091,-0.248 0.204,-0.426 0.37,-0.548 0.169,-0.125 0.374,-0.181 0.643,-0.181l15.257 0c0.269,0 0.474,0.056 0.643,0.181 0.165,0.122 0.279,0.3 0.37,0.548l1.806 4.942c0.01,0.027 0.014,0.055 0.015,0.082zm-0.91 1.035c0.256,-0.256 0.417,-0.607 0.427,-0.996l-1.791 -4.899c-0.057,-0.158 -0.121,-0.265 -0.203,-0.326 -0.08,-0.059 -0.194,-0.085 -0.357,-0.085l-15.257 0c-0.164,0 -0.278,0.026 -0.357,0.085 -0.083,0.061 -0.146,0.168 -0.204,0.326l-1.791 4.899c0.011,0.389 0.172,0.74 0.427,0.995 0.265,0.265 0.632,0.428 1.037,0.428 0.386,0 0.705,-0.138 0.949,-0.369 0.27,-0.257 0.454,-0.63 0.539,-1.06 0.015,-0.118 0.116,-0.209 0.239,-0.209 0.133,0 0.241,0.108 0.241,0.241l0 0.002c0,0.402 0.156,0.75 0.412,0.997 0.259,0.249 0.619,0.399 1.024,0.399l0 -0.001 0.005 0 0 0.001c0.402,0 0.767,-0.164 1.031,-0.429 0.264,-0.263 0.428,-0.628 0.428,-1.032l0 -0.002 0.482 0 0 0.002c0,0.404 0.163,0.769 0.427,1.032 0.266,0.265 0.632,0.429 1.035,0.429l0 -0.001 0.003 0 0 0.001c0.397,0 0.757,-0.159 1.021,-0.417l0.011 -0.012c0.264,-0.264 0.428,-0.629 0.428,-1.032l0 -0.002 0.482 0 0 0.041c0.01,0.388 0.171,0.738 0.427,0.993 0.265,0.265 0.631,0.429 1.035,0.429l0 -0.001 0.003 0 0 0.001c0.402,0 0.767,-0.164 1.032,-0.429 0.264,-0.263 0.428,-0.629 0.428,-1.033l0 -0.001 0.482 0 -0.001 0.041c0.011,0.387 0.172,0.738 0.428,0.993 0.265,0.265 0.632,0.429 1.035,0.429l0 -0.001 0.002 0c0.407,0 0.771,-0.153 1.031,-0.407 0.255,-0.251 0.412,-0.602 0.412,-1.003l0.001 0c0,-0.112 0.079,-0.212 0.193,-0.235 0.13,-0.026 0.257,0.058 0.283,0.188 0.094,0.468 0.275,0.846 0.539,1.1 0.239,0.229 0.555,0.357 0.948,0.357 0.404,0 0.77,-0.163 1.034,-0.427z"/>
    <path class="fil0" d="M20.364 13.572c0,-0.133 0.108,-0.241 0.241,-0.241 0.133,0 0.241,0.108 0.241,0.241l0 5.732c0,0.229 -0.094,0.436 -0.244,0.587 -0.151,0.151 -0.359,0.245 -0.587,0.245l-15.915 0c-0.229,0 -0.437,-0.094 -0.587,-0.245 -0.151,-0.15 -0.245,-0.358 -0.245,-0.587l0 -5.732c0,-0.133 0.108,-0.241 0.242,-0.241 0.133,0 0.241,0.108 0.241,0.241l0 5.732c0,0.096 0.039,0.183 0.103,0.246 0.063,0.064 0.15,0.103 0.246,0.103l15.915 0c0.095,0 0.182,-0.039 0.246,-0.103 0.063,-0.063 0.103,-0.151 0.103,-0.246l0 -5.732z"/>
    <path class="fil0" d="M8.815 4.333c0.009,-0.133 0.125,-0.232 0.258,-0.222 0.132,0.009 0.232,0.125 0.222,0.258l-0.424 5.64c-0.009,0.132 -0.125,0.232 -0.258,0.222 -0.132,-0.01 -0.232,-0.125 -0.222,-0.258l0.424 -5.64z"/>
    <path class="fil0" d="M14.818 4.369c-0.01,-0.133 0.089,-0.249 0.222,-0.258 0.132,-0.01 0.248,0.089 0.258,0.222l0.423 5.64c0.01,0.133 -0.089,0.248 -0.222,0.258 -0.133,0.01 -0.248,-0.09 -0.258,-0.222l-0.423 -5.64z"/>
    <path class="fil0" d="M17.365 4.311c-0.03,-0.13 0.052,-0.259 0.181,-0.288 0.13,-0.029 0.258,0.053 0.288,0.182l1.28 5.64c0.029,0.13 -0.053,0.258 -0.182,0.287 -0.13,0.03 -0.258,-0.052 -0.287,-0.181l-1.28 -5.64z"/>
    <path class="fil0" d="M6.269 4.297c0.03,-0.129 0.158,-0.211 0.288,-0.181 0.129,0.029 0.211,0.157 0.181,0.287l-1.28 5.64c-0.029,0.129 -0.157,0.211 -0.287,0.182 -0.129,-0.029 -0.211,-0.158 -0.182,-0.288l1.28 -5.64z"/>
    <path class="fil0" d="M11.816 4.237c0,-0.133 0.108,-0.241 0.241,-0.241 0.133,0 0.241,0.108 0.241,0.241l0 5.833c0,0.133 -0.108,0.241 -0.241,0.241 -0.133,0 -0.241,-0.108 -0.241,-0.241l0 -5.833z"/>
   </g>
   <rect class="fil1" width="24.114" height="24.114"/>
  </g>
 </g>
</svg>
