<?xml version="1.0" encoding="UTF-8"?>
<!DOCTYPE svg PUBLIC "-//W3C//DTD SVG 1.1//EN" "http://www.w3.org/Graphics/SVG/1.1/DTD/svg11.dtd">
<!-- Creator: CorelDRAW 2018 (64-Bit) -->
<svg xmlns="http://www.w3.org/2000/svg" xml:space="preserve" width="100px" height="100px" version="1.1" style="shape-rendering:geometricPrecision; text-rendering:geometricPrecision; image-rendering:optimizeQuality; fill-rule:evenodd; clip-rule:evenodd"
viewBox="0 0 46.589 46.589"
 xmlns:xlink="http://www.w3.org/1999/xlink">
 <defs>
  <style type="text/css">
   <![CDATA[
    .fil1 {fill:none}
    .fil0 {fill:#A3AEBA;fill-rule:nonzero}
   ]]>
  </style>
 </defs>
 <g id="Layer_x0020_1">
  <metadata id="CorelCorpID_0Corel-Layer"/>
  <g id="_2127110855216">
   <g>
    <path class="fil0" d="M36.158 32.964c0,-0.258 0.209,-0.466 0.466,-0.466 0.257,0 0.466,0.208 0.466,0.466l0 3.467c0,0.786 -0.322,1.501 -0.84,2.019 -0.518,0.518 -1.233,0.839 -2.018,0.839l-23.849 0c-0.787,0 -1.502,-0.321 -2.019,-0.839 -0.518,-0.517 -0.84,-1.232 -0.84,-2.019l0 -24.266c0,-0.257 0.209,-0.466 0.466,-0.466l26.242 0c0.786,0 1.501,0.322 2.018,0.839l0.026 0.029c0.503,0.516 0.814,1.22 0.814,1.99l0 3.469c0,0.257 -0.209,0.466 -0.466,0.466 -0.257,0 -0.466,-0.209 -0.466,-0.466l0 -3.469c0,-0.519 -0.208,-0.992 -0.544,-1.339l-0.022 -0.021c-0.35,-0.349 -0.831,-0.566 -1.36,-0.566l-25.776 0 0 23.8c0,0.53 0.217,1.011 0.566,1.36 0.35,0.35 0.831,0.567 1.361,0.567l23.849 0c0.528,0 1.01,-0.218 1.359,-0.567 0.35,-0.349 0.567,-0.831 0.567,-1.36l0 -3.467z"/>
    <path class="fil0" d="M37.09 10.684c0,0.257 -0.209,0.466 -0.466,0.466 -0.257,0 -0.466,-0.209 -0.466,-0.466 0,-0.28 -0.114,-0.534 -0.297,-0.717l-0.001 0c-0.184,-0.184 -0.438,-0.298 -0.717,-0.298 -0.257,0 -0.466,-0.209 -0.466,-0.466 0,-0.257 0.209,-0.466 0.466,-0.466 0.536,0 1.023,0.219 1.375,0.572 0.353,0.354 0.572,0.841 0.572,1.375z"/>
    <polygon class="fil0" points="36.158,10.684 37.09,10.684 "/>
    <path class="fil0" d="M10.719 8.737c0.257,0 0.465,0.209 0.465,0.466 0,0.257 -0.208,0.466 -0.465,0.466l-1.248 0c-0.278,0 -0.532,0.114 -0.716,0.298l-0.021 0.02c-0.172,0.181 -0.278,0.427 -0.278,0.697l0 1.481c0,0.257 -0.208,0.466 -0.466,0.466 -0.257,0 -0.466,-0.209 -0.466,-0.466l0 -1.481c0,-0.52 0.208,-0.995 0.545,-1.346l0.027 -0.029c0.353,-0.353 0.839,-0.572 1.375,-0.572l1.248 0z"/>
    <path class="fil0" d="M37.612 22.011l-14.317 0c-0.962,0 -1.834,0.39 -2.464,1.02 -0.63,0.63 -1.02,1.501 -1.02,2.463 0,0.962 0.39,1.834 1.02,2.464 0.63,0.63 1.502,1.02 2.464,1.02l14.317 0c0.145,0 0.275,-0.057 0.368,-0.151 0.094,-0.094 0.153,-0.225 0.153,-0.371l0 -5.924c0,-0.144 -0.059,-0.275 -0.153,-0.369 -0.094,-0.094 -0.224,-0.152 -0.368,-0.152zm-14.317 -0.932l14.317 0c0.401,0 0.764,0.163 1.027,0.426 0.263,0.263 0.426,0.626 0.426,1.027l0 5.924c0,0.4 -0.163,0.764 -0.426,1.026 -0.264,0.265 -0.627,0.428 -1.027,0.428l-14.317 0c-1.219,0 -2.324,-0.495 -3.123,-1.293 -0.799,-0.799 -1.293,-1.904 -1.293,-3.123 0,-1.219 0.494,-2.323 1.293,-3.122 0.799,-0.799 1.904,-1.293 3.123,-1.293z"/>
    <path class="fil0" d="M25.241 25.494c0,0.538 -0.218,1.025 -0.57,1.377 -0.352,0.352 -0.839,0.57 -1.377,0.57 -0.535,0 -1.022,-0.218 -1.375,-0.571 -0.353,-0.351 -0.571,-0.838 -0.571,-1.376 0,-0.536 0.218,-1.022 0.57,-1.374l0.002 -0.002c0.352,-0.352 0.838,-0.571 1.374,-0.571 0.537,0 1.023,0.219 1.375,0.571l0.002 0c0.352,0.352 0.57,0.839 0.57,1.376zm-1.229 0.718c0.184,-0.183 0.298,-0.437 0.298,-0.718 0,-0.28 -0.114,-0.534 -0.298,-0.718 -0.183,-0.183 -0.437,-0.297 -0.718,-0.297 -0.28,0 -0.535,0.114 -0.718,0.297 -0.183,0.183 -0.297,0.437 -0.297,0.718 0,0.281 0.114,0.535 0.298,0.718l0 0.002c0.182,0.183 0.436,0.296 0.717,0.296 0.281,0 0.535,-0.114 0.718,-0.298z"/>
    <path class="fil0" d="M14.294 10.011c-0.255,0.025 -0.483,-0.161 -0.508,-0.416 -0.025,-0.256 0.162,-0.483 0.417,-0.508l18.179 -1.785c0.255,-0.025 0.482,0.161 0.507,0.417l0.201 1.553c0.032,0.254 -0.148,0.487 -0.402,0.519 -0.254,0.032 -0.486,-0.148 -0.519,-0.402l-0.144 -1.119 -17.731 1.741z"/>
   </g>
   <rect class="fil1" width="46.589" height="46.589"/>
  </g>
 </g>
</svg>
