<?xml version="1.0" encoding="UTF-8"?>
<!DOCTYPE svg PUBLIC "-//W3C//DTD SVG 1.1//EN" "http://www.w3.org/Graphics/SVG/1.1/DTD/svg11.dtd">
<!-- Creator: CorelDRAW 2018 (64-Bit) -->
<svg xmlns="http://www.w3.org/2000/svg" xml:space="preserve" width="100px" height="100px" version="1.1" style="shape-rendering:geometricPrecision; text-rendering:geometricPrecision; image-rendering:optimizeQuality; fill-rule:evenodd; clip-rule:evenodd"
viewBox="0 0 11.849 11.849"
 xmlns:xlink="http://www.w3.org/1999/xlink">
 <defs>
  <style type="text/css">
   <![CDATA[
    .fil1 {fill:none}
    .fil0 {fill:#A3AEBA;fill-rule:nonzero}
   ]]>
  </style>
 </defs>
 <g id="Layer_x0020_1">
  <metadata id="CorelCorpID_0Corel-Layer"/>
  <g id="_2127059872768">
   <g>
    <path class="fil0" d="M7.894 6.658c-0.299,-0.56 -0.65,-1.054 -0.973,-1.51 -0.572,-0.808 -1.061,-1.498 -1.061,-2.24 0,-0.59 0.24,-1.125 0.626,-1.512 0.387,-0.386 0.922,-0.626 1.512,-0.626 0.591,0 1.125,0.24 1.512,0.626 0.387,0.387 0.626,0.922 0.626,1.512 0,0.742 -0.488,1.433 -1.06,2.24 -0.324,0.456 -0.674,0.951 -0.974,1.511 -0.03,0.057 -0.102,0.079 -0.159,0.048 -0.022,-0.012 -0.039,-0.029 -0.049,-0.049zm-0.78 -1.646c0.291,0.411 0.604,0.853 0.884,1.347 0.281,-0.494 0.594,-0.936 0.885,-1.347 0.548,-0.774 1.016,-1.435 1.016,-2.104 0,-0.525 -0.212,-1 -0.556,-1.344 -0.344,-0.344 -0.82,-0.557 -1.345,-0.557 -0.525,0 -1,0.213 -1.344,0.557 -0.344,0.344 -0.557,0.819 -0.557,1.344 0,0.669 0.469,1.33 1.017,2.104zm0.884 -3.442c0.37,0 0.704,0.15 0.947,0.392 0.242,0.242 0.392,0.577 0.392,0.946 0,0.37 -0.15,0.704 -0.392,0.947 -0.243,0.242 -0.577,0.392 -0.947,0.392 -0.369,0 -0.704,-0.15 -0.946,-0.392 -0.242,-0.243 -0.392,-0.577 -0.392,-0.947 0,-0.369 0.15,-0.704 0.392,-0.946 0.242,-0.242 0.577,-0.392 0.946,-0.392zm0.779 0.56c-0.199,-0.2 -0.475,-0.323 -0.779,-0.323 -0.304,0 -0.579,0.123 -0.778,0.323 -0.2,0.199 -0.323,0.474 -0.323,0.778 0,0.304 0.123,0.58 0.323,0.779 0.199,0.199 0.474,0.323 0.778,0.323 0.304,0 0.58,-0.124 0.779,-0.323 0.199,-0.199 0.323,-0.475 0.323,-0.779 0,-0.304 -0.124,-0.579 -0.323,-0.778z"/>
    <path class="fil0" d="M3.31 6.024c-0.031,-0.058 -0.008,-0.13 0.05,-0.16 0.057,-0.03 0.129,-0.007 0.159,0.05l0.073 0.139c0.126,-0.142 0.345,-0.364 0.613,-0.533 0.303,-0.191 0.7,-0.266 0.911,-0.294l-0.215 -0.701c-0.011,-0.037 -0.003,-0.075 0.017,-0.103l0.306 -0.431 -0.147 -0.124c-0.267,0.122 -1.263,0.608 -1.686,1.235 -0.246,0.364 -0.423,0.686 -0.475,1.013 -0.051,0.323 0.018,0.663 0.262,1.073 0.018,0.03 0.021,0.065 0.012,0.095l-0.117 0.488c0.115,0.161 0.514,0.726 0.618,0.991 0.058,0.146 0.132,0.329 0.215,0.492 0.08,0.155 0.168,0.295 0.257,0.365 0.101,0.079 0.243,0.14 0.353,0.179 -0.003,-0.151 0.026,-0.356 0.178,-0.494 0.164,-0.149 0.353,-0.25 0.447,-0.296l0.084 -0.388c0.005,-0.021 0.015,-0.04 0.028,-0.055l0.184 -0.241 -1.695 -1.258 -0.284 0.214c-0.052,0.039 -0.126,0.029 -0.166,-0.024 -0.039,-0.052 -0.028,-0.126 0.024,-0.165l0.354 -0.267c0.04,-0.031 0.098,-0.032 0.141,0l1.863 1.382c0.052,0.04 0.062,0.114 0.023,0.166l-0.246 0.322 -0.091 0.422 -0.001 0c-0.008,0.036 -0.033,0.069 -0.071,0.084 0,0 -0.236,0.098 -0.435,0.279 -0.161,0.147 -0.086,0.455 -0.086,0.456 0.005,0.019 0.005,0.039 0,0.059 -0.017,0.063 -0.082,0.1 -0.145,0.084 -0.001,0 -0.376,-0.093 -0.605,-0.274 -0.12,-0.094 -0.228,-0.261 -0.321,-0.443 -0.09,-0.176 -0.166,-0.364 -0.225,-0.513 -0.111,-0.282 -0.62,-0.981 -0.621,-0.983 -0.019,-0.027 -0.027,-0.061 -0.019,-0.096l0.12 -0.502c-0.255,-0.444 -0.326,-0.822 -0.268,-1.188 0.058,-0.371 0.249,-0.72 0.512,-1.11 0.506,-0.749 1.739,-1.298 1.847,-1.345 0.041,-0.022 0.093,-0.017 0.131,0.015l0.286 0.242c0.046,0.039 0.056,0.108 0.02,0.159l-0.335 0.471 0.239 0.778c0.003,0.01 0.006,0.021 0.006,0.033 0.004,0.065 -0.046,0.121 -0.111,0.125 -0.001,0 -0.566,0.032 -0.948,0.273 -0.388,0.245 -0.665,0.615 -0.666,0.616 -0.011,0.013 -0.024,0.025 -0.04,0.033 -0.058,0.03 -0.129,0.008 -0.159,-0.05l-0.155 -0.295z"/>
    <path class="fil0" d="M6.481 6.058c0.031,-0.057 0.103,-0.078 0.16,-0.047 0.057,0.031 0.079,0.103 0.047,0.16l-0.138 0.253 0 0.558 0.536 0.478 0.576 -0.184c0.055,-0.017 0.113,0.008 0.139,0.056l0.301 0.553c0.016,0.03 0.018,0.063 0.008,0.093l-0.154 0.472 0.007 0.635c0.274,-0.296 0.748,-0.848 0.883,-1.249 0.07,-0.207 0.131,-0.455 0.167,-0.7 0.03,-0.21 0.041,-0.416 0.021,-0.589 -0.007,-0.065 0.04,-0.124 0.104,-0.131 0.065,-0.008 0.124,0.039 0.131,0.104 0.023,0.194 0.011,0.421 -0.022,0.649 -0.037,0.259 -0.102,0.521 -0.177,0.742 -0.211,0.629 -1.136,1.547 -1.138,1.55l-0.001 -0.001c-0.021,0.022 -0.05,0.035 -0.082,0.035 -0.065,0 -0.119,-0.052 -0.119,-0.117l-0.01 -0.938c-0.001,-0.015 0.001,-0.03 0.006,-0.045l0.144 -0.442 -0.23 -0.422 -0.538 0.171c-0.04,0.017 -0.088,0.01 -0.123,-0.021l-0.621 -0.554c-0.027,-0.022 -0.045,-0.055 -0.045,-0.092l0 -0.64 0.001 0c0,-0.019 0.005,-0.039 0.014,-0.057l0.153 -0.28z"/>
    <path class="fil0" d="M9.665 5.8c-0.018,-0.063 0.018,-0.128 0.081,-0.146 0.062,-0.019 0.128,0.017 0.146,0.08 0.055,0.189 0.097,0.382 0.125,0.579 0.028,0.194 0.042,0.392 0.042,0.592 0,1.153 -0.467,2.196 -1.222,2.951 -0.756,0.755 -1.799,1.223 -2.951,1.223 -1.153,0 -2.196,-0.468 -2.951,-1.223 -0.756,-0.755 -1.223,-1.798 -1.223,-2.951 0,-0.998 0.351,-1.914 0.936,-2.633 0.595,-0.731 1.434,-1.257 2.393,-1.454 0.063,-0.013 0.126,0.028 0.139,0.092 0.013,0.064 -0.028,0.126 -0.092,0.139 -0.904,0.186 -1.695,0.682 -2.257,1.372 -0.551,0.677 -0.882,1.542 -0.882,2.484 0,1.087 0.441,2.071 1.153,2.784 0.712,0.712 1.697,1.153 2.784,1.153 1.087,0 2.071,-0.441 2.783,-1.153 0.712,-0.713 1.153,-1.697 1.153,-2.784 0,-0.191 -0.013,-0.378 -0.039,-0.559 -0.027,-0.188 -0.066,-0.37 -0.118,-0.546z"/>
   </g>
   <rect class="fil1" width="11.849" height="11.849"/>
  </g>
 </g>
</svg>
