<?xml version="1.0" encoding="UTF-8"?>
<!DOCTYPE svg PUBLIC "-//W3C//DTD SVG 1.1//EN" "http://www.w3.org/Graphics/SVG/1.1/DTD/svg11.dtd">
<!-- Creator: CorelDRAW 2018 (64-Bit) -->
<svg xmlns="http://www.w3.org/2000/svg" xml:space="preserve" width="100px" height="100px" version="1.1" style="shape-rendering:geometricPrecision; text-rendering:geometricPrecision; image-rendering:optimizeQuality; fill-rule:evenodd; clip-rule:evenodd"
viewBox="0 0 9.634 9.634"
 xmlns:xlink="http://www.w3.org/1999/xlink">
 <defs>
  <style type="text/css">
   <![CDATA[
    .fil1 {fill:none}
    .fil0 {fill:#A3AEBA;fill-rule:nonzero}
   ]]>
  </style>
 </defs>
 <g id="Layer_x0020_1">
  <metadata id="CorelCorpID_0Corel-Layer"/>
  <g id="_2127059885984">
   <g>
    <path class="fil0" d="M6.858 3.877c0.41,0 0.781,0.166 1.05,0.435 0.268,0.269 0.435,0.64 0.435,1.049 0,0.41 -0.167,0.781 -0.435,1.05 -0.269,0.269 -0.64,0.435 -1.05,0.435 -0.409,0 -0.781,-0.167 -1.049,-0.435 -0.269,-0.269 -0.435,-0.64 -0.435,-1.05 0,-0.409 0.166,-0.78 0.435,-1.049 0.268,-0.269 0.64,-0.435 1.049,-0.435zm0.914 0.571c-0.234,-0.234 -0.557,-0.378 -0.914,-0.378 -0.356,0 -0.679,0.144 -0.913,0.378 -0.234,0.234 -0.378,0.557 -0.378,0.913 0,0.357 0.144,0.68 0.378,0.914 0.234,0.233 0.557,0.378 0.913,0.378 0.357,0 0.68,-0.145 0.914,-0.378 0.233,-0.234 0.378,-0.557 0.378,-0.914 0,-0.356 -0.145,-0.679 -0.378,-0.913z"/>
    <path class="fil0" d="M7.772 6.411c-0.038,-0.038 -0.038,-0.099 0,-0.136 0.037,-0.038 0.098,-0.038 0.136,0l1.104 1.104c0.038,0.038 0.038,0.099 0,0.136 -0.037,0.038 -0.098,0.038 -0.136,0l-1.104 -1.104z"/>
    <path class="fil0" d="M5.601 6.85c0.053,0 0.096,0.043 0.096,0.097 0,0.053 -0.043,0.096 -0.096,0.096l-5.259 0c-0.09,0 -0.171,-0.037 -0.23,-0.096l-0.001 0c-0.059,-0.059 -0.096,-0.14 -0.096,-0.23l0 -4.801c0,-0.09 0.037,-0.171 0.097,-0.231 0.059,-0.059 0.14,-0.095 0.23,-0.095l7.647 0c0.09,0 0.172,0.036 0.231,0.096l0.006 0.006c0.055,0.059 0.09,0.138 0.09,0.224l0 1.744c0,0.053 -0.044,0.096 -0.097,0.096 -0.053,0 -0.096,-0.043 -0.096,-0.096l0 -1.744c0,-0.035 -0.014,-0.067 -0.035,-0.09l-0.005 -0.004c-0.024,-0.024 -0.057,-0.04 -0.094,-0.04l-7.647 0c-0.037,0 -0.071,0.015 -0.095,0.04 -0.024,0.024 -0.039,0.057 -0.039,0.094l0 4.801c0,0.036 0.015,0.07 0.039,0.094 0.025,0.024 0.058,0.039 0.095,0.039l5.259 0z"/>
    <path class="fil0" d="M1.271 2.89c0,-0.053 0.043,-0.096 0.096,-0.096 0.053,0 0.096,0.043 0.096,0.096l0 2.852c0,0.054 -0.043,0.097 -0.096,0.097 -0.053,0 -0.096,-0.043 -0.096,-0.097l0 -2.852z"/>
    <path class="fil0" d="M2.252 4.575c0,-0.053 0.043,-0.096 0.096,-0.096 0.053,0 0.097,0.043 0.097,0.096l0 1.167c0,0.054 -0.044,0.097 -0.097,0.097 -0.053,0 -0.096,-0.043 -0.096,-0.097l0 -1.167z"/>
    <path class="fil0" d="M3.233 3.408c0,-0.053 0.043,-0.097 0.097,-0.097 0.053,0 0.096,0.044 0.096,0.097l0 2.334c0,0.054 -0.043,0.097 -0.096,0.097 -0.054,0 -0.097,-0.043 -0.097,-0.097l0 -2.334z"/>
    <path class="fil0" d="M4.215 4.316c0,-0.053 0.043,-0.096 0.096,-0.096 0.053,0 0.096,0.043 0.096,0.096l0 1.426c0,0.054 -0.043,0.097 -0.096,0.097 -0.053,0 -0.096,-0.043 -0.096,-0.097l0 -1.426z"/>
    <path class="fil0" d="M2.395 8.044c-0.053,0 -0.096,-0.043 -0.096,-0.096 0,-0.053 0.043,-0.096 0.096,-0.096l3.541 0c0.053,0 0.096,0.043 0.096,0.096 0,0.053 -0.043,0.096 -0.096,0.096l-3.541 0z"/>
    <path class="fil0" d="M3.099 7.823c0,0.053 -0.043,0.096 -0.096,0.096 -0.054,0 -0.097,-0.043 -0.097,-0.096l0 -0.876c0,-0.054 0.043,-0.097 0.097,-0.097 0.053,0 0.096,0.043 0.096,0.097l0 0.876z"/>
    <path class="fil0" d="M5.425 7.823c0,0.053 -0.043,0.096 -0.097,0.096 -0.053,0 -0.096,-0.043 -0.096,-0.096l0 -0.876c0,-0.054 0.043,-0.097 0.096,-0.097 0.054,0 0.097,0.043 0.097,0.097l0 0.876z"/>
   </g>
   <rect class="fil1" width="9.634" height="9.634"/>
  </g>
 </g>
</svg>
