<?xml version="1.0" encoding="UTF-8"?>
<!DOCTYPE svg PUBLIC "-//W3C//DTD SVG 1.1//EN" "http://www.w3.org/Graphics/SVG/1.1/DTD/svg11.dtd">
<!-- Creator: CorelDRAW 2018 (64-Bit) -->
<svg xmlns="http://www.w3.org/2000/svg" xml:space="preserve" width="100px" height="100px" version="1.1" style="shape-rendering:geometricPrecision; text-rendering:geometricPrecision; image-rendering:optimizeQuality; fill-rule:evenodd; clip-rule:evenodd"
viewBox="0 0 24.114 24.114"
 xmlns:xlink="http://www.w3.org/1999/xlink">
 <defs>
  <style type="text/css">
   <![CDATA[
    .fil1 {fill:none}
    .fil0 {fill:#A3AEBA;fill-rule:nonzero}
   ]]>
  </style>
 </defs>
 <g id="Layer_x0020_1">
  <metadata id="CorelCorpID_0Corel-Layer"/>
  <g id="_2127059856512">
   <g>
    <path class="fil0" d="M11.277 7.03c-0.322,0 -0.58,-0.177 -0.92,-0.41 -0.564,-0.386 -1.392,-0.953 -3.116,-0.953 -1.142,0 -2.266,0.918 -3.148,2.253 -0.971,1.47 -1.639,3.433 -1.722,5.252 -0.082,1.77 -0.018,3.125 0.265,4.029 0.258,0.822 0.704,1.248 1.404,1.248 0.793,0 1.753,-0.982 2.628,-1.876 0.797,-0.816 1.53,-1.565 2.155,-1.565l6.468 0c0.625,0 1.358,0.749 2.156,1.565 0.874,0.894 1.834,1.876 2.628,1.876 0.699,0 1.145,-0.426 1.403,-1.248 0.284,-0.904 0.347,-2.259 0.266,-4.029 -0.084,-1.819 -0.752,-3.782 -1.723,-5.252 -0.881,-1.335 -2.005,-2.253 -3.147,-2.253 -1.724,0 -2.552,0.567 -3.116,0.953 -0.34,0.233 -0.598,0.41 -0.92,0.41l-1.561 0zm-0.649 -0.807c0.269,0.184 0.474,0.324 0.649,0.324l1.561 0c0.175,0 0.379,-0.14 0.649,-0.324 0.614,-0.421 1.515,-1.038 3.387,-1.038 1.32,0 2.582,1.006 3.549,2.469 1.015,1.537 1.714,3.592 1.801,5.497 0.084,1.824 0.015,3.233 -0.286,4.194 -0.328,1.043 -0.919,1.584 -1.863,1.584 -0.997,0 -2.031,-1.057 -2.973,-2.021 -0.723,-0.739 -1.387,-1.418 -1.811,-1.418l-6.468 0c-0.424,0 -1.088,0.679 -1.81,1.418 -0.943,0.964 -1.977,2.021 -2.973,2.021 -0.944,0 -1.536,-0.541 -1.863,-1.584 -0.302,-0.961 -0.371,-2.37 -0.287,-4.194 0.088,-1.905 0.786,-3.96 1.802,-5.497 0.967,-1.463 2.229,-2.469 3.549,-2.469 1.871,0 2.773,0.617 3.387,1.038z"/>
    <path class="fil0" d="M14.889 8.271c0.288,0 0.549,0.117 0.738,0.306l0.014 0.016c0.181,0.187 0.292,0.443 0.292,0.723 0,0.288 -0.117,0.549 -0.306,0.738l0 0.001c-0.189,0.189 -0.45,0.306 -0.738,0.306 -0.289,0 -0.55,-0.117 -0.739,-0.306l-0.014 -0.015c-0.181,-0.188 -0.292,-0.443 -0.292,-0.724 0,-0.288 0.117,-0.549 0.306,-0.738l0 -0.001c0.189,-0.189 0.45,-0.306 0.739,-0.306zm0.398 0.647c-0.102,-0.101 -0.243,-0.164 -0.398,-0.164 -0.155,0 -0.296,0.063 -0.398,0.164 -0.102,0.102 -0.164,0.242 -0.164,0.398 0,0.151 0.058,0.287 0.153,0.388l0.011 0.01c0.102,0.102 0.243,0.165 0.398,0.165 0.155,0 0.296,-0.063 0.398,-0.165 0.101,-0.101 0.164,-0.242 0.164,-0.398 0,-0.15 -0.058,-0.287 -0.154,-0.388l-0.01 -0.01z"/>
    <path class="fil0" d="M14.889 11.174c0.288,0 0.549,0.117 0.738,0.306l0.014 0.015c0.181,0.188 0.292,0.443 0.292,0.723 0,0.289 -0.117,0.55 -0.306,0.739 -0.189,0.189 -0.45,0.306 -0.738,0.306 -0.289,0 -0.55,-0.117 -0.739,-0.306 -0.189,-0.189 -0.306,-0.45 -0.306,-0.739 0,-0.287 0.117,-0.548 0.306,-0.737l0 -0.001c0.189,-0.189 0.45,-0.306 0.739,-0.306zm0.398 0.647c-0.102,-0.102 -0.243,-0.165 -0.398,-0.165 -0.155,0 -0.296,0.063 -0.398,0.165 -0.102,0.101 -0.164,0.242 -0.164,0.397 0,0.156 0.062,0.296 0.164,0.398 0.102,0.102 0.242,0.165 0.398,0.165 0.155,0 0.296,-0.063 0.398,-0.165 0.101,-0.102 0.164,-0.242 0.164,-0.398 0,-0.15 -0.058,-0.287 -0.154,-0.387l-0.01 -0.01z"/>
    <path class="fil0" d="M17.879 8.271c0.288,0 0.549,0.118 0.738,0.307 0.189,0.189 0.306,0.45 0.306,0.738 0,0.289 -0.117,0.55 -0.306,0.739l-0.015 0.014c-0.188,0.181 -0.443,0.292 -0.723,0.292 -0.289,0 -0.55,-0.117 -0.739,-0.306l-0.014 -0.015c-0.181,-0.188 -0.292,-0.443 -0.292,-0.724 0,-0.288 0.117,-0.549 0.306,-0.738l0 -0.001c0.189,-0.189 0.45,-0.306 0.739,-0.306zm0.397 0.647c-0.101,-0.101 -0.242,-0.164 -0.397,-0.164 -0.156,0 -0.296,0.063 -0.398,0.164 -0.102,0.102 -0.165,0.242 -0.165,0.398 0,0.151 0.059,0.287 0.154,0.388l0.011 0.01c0.102,0.102 0.242,0.165 0.398,0.165 0.15,0 0.287,-0.059 0.387,-0.154l0.01 -0.011c0.102,-0.102 0.165,-0.242 0.165,-0.398 0,-0.155 -0.063,-0.296 -0.165,-0.398z"/>
    <path class="fil0" d="M17.879 11.174c0.288,0 0.549,0.117 0.738,0.306 0.189,0.189 0.306,0.45 0.306,0.738 0,0.289 -0.117,0.55 -0.306,0.739l-0.015 0.014c-0.188,0.181 -0.443,0.292 -0.723,0.292 -0.289,0 -0.55,-0.117 -0.739,-0.306 -0.189,-0.189 -0.306,-0.45 -0.306,-0.739 0,-0.287 0.117,-0.548 0.306,-0.737l0 -0.001c0.189,-0.189 0.45,-0.306 0.739,-0.306zm0.397 0.647c-0.101,-0.102 -0.242,-0.165 -0.397,-0.165 -0.156,0 -0.296,0.063 -0.398,0.165 -0.102,0.101 -0.165,0.242 -0.165,0.397 0,0.156 0.063,0.296 0.165,0.398 0.102,0.102 0.242,0.165 0.398,0.165 0.15,0 0.287,-0.059 0.387,-0.154l0.01 -0.011c0.102,-0.102 0.165,-0.242 0.165,-0.398 0,-0.155 -0.063,-0.296 -0.165,-0.397z"/>
    <path class="fil0" d="M7.126 7.979l1.056 0c0.108,0 0.206,0.044 0.276,0.115 0.071,0.071 0.115,0.169 0.115,0.277l0 1.477 1.478 0c0.108,0 0.205,0.044 0.276,0.115 0.071,0.071 0.115,0.169 0.115,0.276l0 1.056c0,0.107 -0.044,0.205 -0.115,0.276l0 0.001c-0.071,0.071 -0.169,0.115 -0.276,0.115l-1.478 0 0 1.477c0,0.108 -0.044,0.206 -0.115,0.277l-0.021 0.019c-0.069,0.059 -0.158,0.095 -0.255,0.095l-1.056 0c-0.108,0 -0.206,-0.044 -0.276,-0.114 -0.071,-0.071 -0.115,-0.169 -0.115,-0.277l0 -1.477 -1.478 0c-0.108,0 -0.205,-0.044 -0.276,-0.115 -0.071,-0.071 -0.115,-0.169 -0.115,-0.277l0 -1.056c0,-0.107 0.044,-0.205 0.115,-0.276l0.021 -0.019c0.069,-0.06 0.158,-0.096 0.255,-0.096l1.478 0 0 -1.477c0,-0.107 0.044,-0.205 0.115,-0.276 0.07,-0.072 0.168,-0.116 0.276,-0.116zm0.965 0.483l-0.874 0 0 1.627c0,0.134 -0.108,0.242 -0.241,0.242l-1.628 0 0 0.873 1.628 0c0.133,0 0.241,0.108 0.241,0.241l0 1.628 0.874 0 0 -1.628c0,-0.133 0.108,-0.241 0.241,-0.241l1.628 0 0 -0.873 -1.628 0c-0.133,0 -0.241,-0.108 -0.241,-0.242l0 -1.627z"/>
   </g>
   <rect class="fil1" width="24.114" height="24.114"/>
  </g>
 </g>
</svg>
