<?xml version="1.0" encoding="UTF-8"?>
<!DOCTYPE svg PUBLIC "-//W3C//DTD SVG 1.1//EN" "http://www.w3.org/Graphics/SVG/1.1/DTD/svg11.dtd">
<!-- Creator: CorelDRAW 2018 (64-Bit) -->
<svg xmlns="http://www.w3.org/2000/svg" xml:space="preserve" width="100px" height="100px" version="1.1" style="shape-rendering:geometricPrecision; text-rendering:geometricPrecision; image-rendering:optimizeQuality; fill-rule:evenodd; clip-rule:evenodd"
viewBox="0 0 46.589 46.589"
 xmlns:xlink="http://www.w3.org/1999/xlink">
 <defs>
  <style type="text/css">
   <![CDATA[
    .fil1 {fill:none}
    .fil0 {fill:#A3AEBA;fill-rule:nonzero}
   ]]>
  </style>
 </defs>
 <g id="Layer_x0020_1">
  <metadata id="CorelCorpID_0Corel-Layer"/>
  <g id="_2127059862496">
   <g>
    <path class="fil0" d="M10.204 9.253c0.257,0 0.466,0.209 0.466,0.466 0,0.258 -0.209,0.466 -0.466,0.466l-5.083 0c-0.097,0 -0.185,0.04 -0.248,0.103 -0.065,0.064 -0.105,0.153 -0.105,0.251l0 24.72c0,0.096 0.04,0.185 0.105,0.249l0.016 0.017c0.061,0.055 0.143,0.088 0.232,0.088l15.05 0c0.257,0 0.466,0.208 0.466,0.466 0,0.257 -0.209,0.466 -0.466,0.466l-15.05 0c-0.336,0 -0.644,-0.133 -0.874,-0.348l-0.033 -0.03c-0.233,-0.233 -0.378,-0.555 -0.378,-0.908l0 -24.72c0,-0.352 0.145,-0.673 0.378,-0.906 0.234,-0.234 0.555,-0.38 0.907,-0.38l5.083 0zm23.476 6.282c0,0.257 -0.209,0.465 -0.466,0.465 -0.257,0 -0.466,-0.208 -0.466,-0.465l0 -4.996c0,-0.096 -0.04,-0.184 -0.105,-0.248l-0.016 -0.018c-0.062,-0.054 -0.144,-0.088 -0.232,-0.088l-3.418 0c-0.257,0 -0.466,-0.208 -0.466,-0.466 0,-0.257 0.209,-0.466 0.466,-0.466l3.418 0c0.335,0 0.643,0.133 0.875,0.349l0.032 0.03c0.232,0.232 0.378,0.554 0.378,0.907l0 4.996z"/>
    <path class="fil0" d="M25.267 9.254c0.258,0 0.466,0.208 0.466,0.466 0,0.257 -0.208,0.466 -0.466,0.466l-2.573 0c-0.257,0 -0.466,-0.209 -0.466,-0.466 0,-0.258 0.209,-0.466 0.466,-0.466l2.573 0z"/>
    <path class="fil0" d="M17.73 9.254c0.258,0 0.466,0.208 0.466,0.466 0,0.257 -0.208,0.466 -0.466,0.466l-2.492 0c-0.258,0 -0.466,-0.209 -0.466,-0.466 0,-0.258 0.208,-0.466 0.466,-0.466l2.492 0z"/>
    <path class="fil0" d="M26.295 7.455c-0.155,0 -0.296,0.063 -0.398,0.164 -0.101,0.102 -0.164,0.243 -0.164,0.398l0 3.406c0,0.154 0.064,0.294 0.165,0.396l0.018 0.018c0.1,0.091 0.233,0.147 0.379,0.147 0.154,0 0.294,-0.063 0.396,-0.165l0.018 -0.017c0.091,-0.1 0.147,-0.234 0.147,-0.379l0 -3.406c0,-0.155 -0.063,-0.296 -0.164,-0.398 -0.103,-0.1 -0.243,-0.164 -0.397,-0.164zm0 -0.932c0.411,0 0.785,0.168 1.055,0.439l0 0.001c0.27,0.271 0.438,0.644 0.438,1.054l0 3.406c0,0.395 -0.156,0.756 -0.41,1.024l-0.028 0.031c-0.27,0.27 -0.644,0.438 -1.055,0.438 -0.396,0 -0.757,-0.156 -1.024,-0.41l-0.031 -0.028c-0.271,-0.271 -0.439,-0.644 -0.439,-1.055l0 -3.406c0,-0.41 0.168,-0.783 0.439,-1.054l0.001 -0.001c0.271,-0.271 0.644,-0.439 1.054,-0.439z"/>
    <path class="fil0" d="M18.758 7.455c-0.155,0 -0.296,0.063 -0.397,0.164 -0.102,0.102 -0.165,0.243 -0.165,0.398l0 3.406c0,0.154 0.064,0.294 0.165,0.396l0.018 0.018c0.1,0.091 0.233,0.147 0.379,0.147 0.154,0 0.294,-0.063 0.396,-0.165l0.018 -0.017c0.092,-0.1 0.147,-0.234 0.147,-0.379l0 -3.406c0,-0.155 -0.063,-0.296 -0.164,-0.398 -0.103,-0.1 -0.243,-0.164 -0.397,-0.164zm0 -0.932c0.411,0 0.785,0.168 1.055,0.439l0 0.001c0.27,0.271 0.438,0.644 0.438,1.054l0 3.406c0,0.395 -0.156,0.756 -0.41,1.024l-0.028 0.031c-0.27,0.27 -0.644,0.438 -1.055,0.438 -0.395,0 -0.756,-0.156 -1.024,-0.41l-0.031 -0.028c-0.271,-0.271 -0.439,-0.644 -0.439,-1.055l0 -3.406c0,-0.41 0.168,-0.783 0.439,-1.054l0.002 -0.001c0.27,-0.271 0.643,-0.439 1.053,-0.439z"/>
    <path class="fil0" d="M11.231 7.455c-0.154,0 -0.295,0.063 -0.397,0.164 -0.101,0.102 -0.164,0.243 -0.164,0.398l0 3.406c0,0.154 0.063,0.294 0.165,0.396l0.017 0.018c0.1,0.091 0.234,0.147 0.379,0.147 0.154,0 0.295,-0.063 0.397,-0.165l0.018 -0.017c0.091,-0.1 0.147,-0.234 0.147,-0.379l0 -3.406c0,-0.155 -0.063,-0.296 -0.164,-0.398 -0.103,-0.1 -0.244,-0.164 -0.398,-0.164zm0 -0.932c0.411,0 0.785,0.168 1.055,0.439l0 0.001c0.271,0.271 0.439,0.644 0.439,1.054l0 3.406c0,0.395 -0.157,0.756 -0.41,1.024l-0.029 0.031c-0.27,0.27 -0.644,0.438 -1.055,0.438 -0.395,0 -0.756,-0.156 -1.024,-0.41l-0.031 -0.028c-0.27,-0.271 -0.438,-0.644 -0.438,-1.055l0 -3.406c0,-0.41 0.168,-0.783 0.438,-1.054l0.002 -0.001c0.271,-0.271 0.644,-0.439 1.053,-0.439z"/>
    <path class="fil0" d="M9.45 18.125l2.509 0c0.223,0 0.427,0.092 0.576,0.24l0.002 0.002c0.148,0.15 0.24,0.353 0.24,0.576l0 2.509c0,0.226 -0.092,0.43 -0.24,0.578 -0.148,0.148 -0.352,0.24 -0.578,0.24l-2.509 0c-0.223,0 -0.427,-0.092 -0.576,-0.24l-0.002 -0.002c-0.148,-0.15 -0.24,-0.353 -0.24,-0.576l0 -2.509c0,-0.225 0.093,-0.43 0.24,-0.578 0.148,-0.147 0.353,-0.24 0.578,-0.24zm2.395 0.932l-2.281 0 0 2.281 2.281 0 0 -2.281z"/>
    <path class="fil0" d="M17.503 18.125l2.51 0c0.223,0 0.427,0.092 0.576,0.24l0.001 0.002c0.149,0.15 0.24,0.353 0.24,0.576l0 2.509c0,0.226 -0.091,0.43 -0.239,0.578 -0.148,0.148 -0.353,0.24 -0.578,0.24l-2.51 0c-0.223,0 -0.426,-0.092 -0.575,-0.24l-0.002 -0.002c-0.148,-0.15 -0.24,-0.353 -0.24,-0.576l0 -2.509c0,-0.225 0.092,-0.43 0.24,-0.578 0.148,-0.147 0.353,-0.24 0.577,-0.24zm2.395 0.932l-2.28 0 0 2.281 2.28 0 0 -2.281z"/>
    <path class="fil0" d="M9.45 26.341l2.509 0c0.223,0 0.427,0.092 0.576,0.24l0.002 0.002c0.148,0.149 0.24,0.353 0.24,0.576l0 2.509c0,0.225 -0.092,0.43 -0.24,0.578 -0.148,0.148 -0.352,0.239 -0.578,0.239l-2.509 0c-0.223,0 -0.427,-0.091 -0.576,-0.239l-0.002 -0.002c-0.148,-0.15 -0.24,-0.353 -0.24,-0.576l0 -2.509c0,-0.225 0.093,-0.43 0.24,-0.578 0.148,-0.148 0.353,-0.24 0.578,-0.24zm2.395 0.932l-2.281 0 0 2.281 2.281 0 0 -2.281z"/>
    <path class="fil0" d="M30.934 17.01l3.693 6.933 7.74 1.371c0.253,0.044 0.422,0.285 0.378,0.538 -0.018,0.105 -0.07,0.196 -0.143,0.263l-5.437 5.638 1.089 7.785c0.035,0.254 -0.143,0.489 -0.397,0.524 -0.095,0.013 -0.187,-0.003 -0.267,-0.043l-7.067 -3.439 -7.067 3.44c-0.231,0.113 -0.51,0.016 -0.623,-0.215 -0.046,-0.094 -0.057,-0.197 -0.038,-0.293l1.085 -7.759 -5.456 -5.659c-0.178,-0.185 -0.173,-0.479 0.012,-0.657 0.07,-0.066 0.154,-0.107 0.243,-0.122l7.739 -1.372 3.695 -6.936c0.121,-0.227 0.402,-0.312 0.628,-0.191 0.086,0.045 0.151,0.114 0.193,0.194zm2.981 7.57l-3.392 -6.368 -3.376 6.336c-0.06,0.138 -0.187,0.245 -0.346,0.272l-7.102 1.258 4.998 5.183c0.101,0.1 0.156,0.244 0.135,0.396l-0.999 7.144 6.486 -3.157c0.124,-0.06 0.274,-0.065 0.407,0l6.486 3.157 -0.999 -7.144c-0.018,-0.136 0.023,-0.279 0.126,-0.386l5.007 -5.193 -7.102 -1.258 0.001 -0.001c-0.136,-0.024 -0.26,-0.107 -0.33,-0.239z"/>
   </g>
   <rect class="fil1" width="46.589" height="46.589"/>
  </g>
 </g>
</svg>
