<?xml version="1.0" encoding="UTF-8"?>
<!DOCTYPE svg PUBLIC "-//W3C//DTD SVG 1.1//EN" "http://www.w3.org/Graphics/SVG/1.1/DTD/svg11.dtd">
<!-- Creator: CorelDRAW 2018 (64-Bit) -->
<svg xmlns="http://www.w3.org/2000/svg" xml:space="preserve" width="100px" height="100px" version="1.1" style="shape-rendering:geometricPrecision; text-rendering:geometricPrecision; image-rendering:optimizeQuality; fill-rule:evenodd; clip-rule:evenodd"
viewBox="0 0 11.849 11.849"
 xmlns:xlink="http://www.w3.org/1999/xlink">
 <defs>
  <style type="text/css">
   <![CDATA[
    .fil1 {fill:none}
    .fil0 {fill:#A3AEBA;fill-rule:nonzero}
   ]]>
  </style>
 </defs>
 <g id="Layer_x0020_1">
  <metadata id="CorelCorpID_0Corel-Layer"/>
  <g id="_2127059862880">
   <g>
    <path class="fil0" d="M8.726 7.896c0.057,-0.033 0.129,-0.014 0.162,0.043 0.032,0.056 0.013,0.129 -0.043,0.161l-3.592 2.074c-0.038,0.022 -0.083,0.02 -0.119,0l-3.591 -2.074c-0.037,-0.022 -0.059,-0.061 -0.059,-0.102l0 -4.147c0,-0.048 0.029,-0.089 0.07,-0.108l3.581 -2.068c0.038,-0.022 0.084,-0.02 0.119,0.001l3.59 2.073c0.057,0.032 0.076,0.104 0.044,0.161 -0.033,0.056 -0.105,0.076 -0.161,0.043l-3.533 -2.039 -3.473 2.005 0 4.011 3.473 2.005 3.532 -2.039z"/>
    <path class="fil0" d="M4.919 7.218c-0.065,0 -0.118,-0.053 -0.118,-0.119 0,-0.065 0.053,-0.118 0.118,-0.118l5.327 0c0.065,0 0.118,0.053 0.118,0.118 0,0.066 -0.053,0.119 -0.118,0.119l-5.327 0z"/>
    <path class="fil0" d="M4.919 6.043c-0.065,0 -0.118,-0.053 -0.118,-0.118 0,-0.066 0.053,-0.119 0.118,-0.119l5.327 0c0.065,0 0.118,0.053 0.118,0.119 0,0.065 -0.053,0.118 -0.118,0.118l-5.327 0z"/>
    <path class="fil0" d="M4.919 4.868c-0.065,0 -0.118,-0.053 -0.118,-0.118 0,-0.066 0.053,-0.119 0.118,-0.119l5.327 0c0.065,0 0.118,0.053 0.118,0.119 0,0.065 -0.053,0.118 -0.118,0.118l-5.327 0z"/>
   </g>
   <rect class="fil1" width="11.849" height="11.849"/>
  </g>
 </g>
</svg>
