<?xml version="1.0" encoding="UTF-8"?>
<!DOCTYPE svg PUBLIC "-//W3C//DTD SVG 1.1//EN" "http://www.w3.org/Graphics/SVG/1.1/DTD/svg11.dtd">
<!-- Creator: CorelDRAW 2019 (64-Bit) -->
<svg xmlns="http://www.w3.org/2000/svg" xml:space="preserve" width="90px" height="52px" version="1.1" style="shape-rendering:geometricPrecision; text-rendering:geometricPrecision; image-rendering:optimizeQuality; fill-rule:evenodd; clip-rule:evenodd"
viewBox="0 0 4.611 2.664"
 xmlns:xlink="http://www.w3.org/1999/xlink">
 <defs>
  <style type="text/css">
   <![CDATA[
    .fil0 {fill:none}
    .fil4 {fill:#00F4FF}
    .fil3 {fill:#EAEDF2}
    .fil1 {fill:white}
    .fil2 {fill:gray;fill-rule:nonzero}
   ]]>
  </style>
 </defs>
 <g id="Layer_x0020_1">
  <metadata id="CorelCorpID_0Corel-Layer"/>
  <g id="_3018713409968">
   <rect class="fil0" width="4.611" height="2.664"/>
   <g>
    <path class="fil1" d="M1.592 1.611l0.258 -0.143c-0.02,-0.054 -0.019,-0.122 0.01,-0.208 -0.075,0.077 -0.167,0.131 -0.268,0.132 -0.101,-0.001 -0.194,-0.055 -0.269,-0.133 0.029,0.086 0.03,0.155 0.01,0.209l0.259 0.143z"/>
    <path class="fil2" d="M1.592 1.581l0.227 -0.125c-0.006,-0.025 -0.009,-0.052 -0.008,-0.081 0.001,-0.013 0.002,-0.027 0.004,-0.041 -0.023,0.018 -0.048,0.034 -0.074,0.047 -0.047,0.022 -0.097,0.036 -0.149,0.036l0 0c-0.053,0 -0.103,-0.014 -0.149,-0.037 -0.026,-0.013 -0.051,-0.029 -0.075,-0.047 0.002,0.015 0.003,0.028 0.004,0.041 0.001,0.03 -0.002,0.057 -0.008,0.081l0.228 0.126zm0.27 -0.09l-0.27 0.149 -0.29 -0.16 0.007 -0.021c0.009,-0.024 0.013,-0.051 0.012,-0.083 -0.001,-0.032 -0.009,-0.068 -0.022,-0.109l0.042 -0.026c0.038,0.039 0.079,0.071 0.124,0.093 0.04,0.02 0.083,0.032 0.127,0.032 0.044,0 0.086,-0.012 0.126,-0.031 0.045,-0.022 0.086,-0.055 0.124,-0.093l0.042 0.026c-0.013,0.041 -0.02,0.077 -0.022,0.109 -0.001,0.031 0.003,0.058 0.012,0.082l0.007 0.021 -0.019 0.011z"/>
    <path class="fil1" d="M2.632 1.807c-0.116,-0.122 -0.167,-0.106 -0.351,-0.129 -0.14,-0.017 -0.282,-0.047 -0.367,-0.119l-0.24 0.236 -0.082 -0.184 -0.082 0.184 -0.24 -0.237c-0.085,0.073 -0.227,0.103 -0.368,0.12 -0.184,0.023 -0.234,0.007 -0.351,0.129 0.417,0.574 1.674,0.574 2.081,0z"/>
    <path class="fil2" d="M2.65 1.789c0.01,0.01 0.01,0.026 0,0.036 -0.011,0.01 -0.027,0.01 -0.037,-0.001 -0.09,-0.095 -0.139,-0.1 -0.254,-0.112l-0.001 0c-0.025,-0.002 -0.053,-0.005 -0.08,-0.008 -0.071,-0.009 -0.143,-0.021 -0.208,-0.04 -0.059,-0.017 -0.112,-0.04 -0.154,-0.071l-0.224 0.221c-0.01,0.01 -0.026,0.009 -0.036,-0.001 -0.003,-0.002 -0.004,-0.005 -0.005,-0.007l-0.059 -0.132 -0.059 0.132c-0.005,0.013 -0.02,0.019 -0.033,0.013 -0.004,-0.002 -0.007,-0.004 -0.009,-0.006l-0.223 -0.221c-0.043,0.032 -0.096,0.054 -0.154,0.071 -0.066,0.02 -0.138,0.032 -0.209,0.041 -0.027,0.003 -0.055,0.006 -0.081,0.008 -0.115,0.012 -0.163,0.017 -0.254,0.112 -0.01,0.011 -0.026,0.011 -0.036,0.001 -0.01,-0.01 -0.011,-0.026 -0.001,-0.036 0.104,-0.109 0.158,-0.114 0.286,-0.127 0.022,-0.003 0.047,-0.005 0.08,-0.009 0.069,-0.009 0.139,-0.02 0.201,-0.039 0.06,-0.017 0.114,-0.041 0.153,-0.075 0.01,-0.009 0.025,-0.008 0.035,0.001l0.214 0.211 0.067 -0.151c0.002,-0.005 0.007,-0.01 0.013,-0.013 0.013,-0.006 0.028,0 0.033,0.013l0.067 0.151 0.214 -0.21c0.009,-0.01 0.024,-0.011 0.035,-0.002 0.039,0.034 0.092,0.058 0.153,0.075 0.062,0.019 0.131,0.03 0.2,0.039 0.033,0.004 0.057,0.006 0.079,0.009l0.001 0c0.128,0.013 0.183,0.018 0.286,0.127z"/>
    <path class="fil1" d="M1.899 1.215c0.063,-0.078 0.115,-0.171 0.115,-0.258l0 -0.035 0 -0.196 0 -0.044c0.001,-0.042 -0.003,-0.125 -0.008,-0.155 -0.014,-0.095 -0.245,-0.175 -0.414,-0.199 -0.168,-0.023 -0.264,-0.028 -0.343,0.069 -0.042,0.052 -0.077,0.176 -0.079,0.281l0 0.048 0 0.196 0 0.035c0,0.087 0.052,0.18 0.115,0.258 0.012,0.015 0.025,0.03 0.038,0.044 0.075,0.078 0.168,0.132 0.269,0.133 0.101,-0.001 0.193,-0.055 0.268,-0.132 0.014,-0.014 0.027,-0.029 0.039,-0.045z"/>
    <path class="fil2" d="M1.879 1.199c0.033,-0.04 0.062,-0.085 0.082,-0.13 0.017,-0.037 0.027,-0.075 0.027,-0.112 0,-0.082 -0.009,-0.2 0,-0.276 0.001,-0.019 0,-0.049 -0.001,-0.077 -0.002,-0.03 -0.004,-0.058 -0.006,-0.074 -0.005,-0.032 -0.05,-0.066 -0.111,-0.095 -0.082,-0.039 -0.191,-0.069 -0.281,-0.082 -0.082,-0.011 -0.146,-0.018 -0.198,-0.01 -0.049,0.007 -0.087,0.027 -0.122,0.07 -0.019,0.024 -0.037,0.065 -0.05,0.113 -0.014,0.048 -0.022,0.102 -0.023,0.152 0,0.093 0,0.186 0,0.279 0,0.037 0.01,0.075 0.027,0.112 0.02,0.045 0.049,0.09 0.081,0.13 0.007,0.008 0.013,0.015 0.019,0.022 0.006,0.007 0.012,0.014 0.018,0.02 0.038,0.039 0.079,0.071 0.124,0.093 0.04,0.02 0.083,0.032 0.127,0.032 0.044,0 0.086,-0.012 0.126,-0.031 0.045,-0.022 0.086,-0.055 0.124,-0.093 0.006,-0.006 0.012,-0.013 0.019,-0.021 0.007,-0.008 0.013,-0.015 0.018,-0.022zm0.129 -0.109c-0.022,0.049 -0.054,0.098 -0.089,0.141 -0.007,0.009 -0.013,0.017 -0.02,0.024 -0.006,0.007 -0.013,0.015 -0.021,0.022 -0.041,0.043 -0.087,0.079 -0.137,0.104 -0.047,0.022 -0.097,0.036 -0.149,0.036l0 0c-0.053,0 -0.103,-0.014 -0.149,-0.037 -0.051,-0.025 -0.097,-0.061 -0.139,-0.104 -0.007,-0.007 -0.014,-0.015 -0.02,-0.022 -0.007,-0.007 -0.013,-0.015 -0.019,-0.023 -0.035,-0.043 -0.067,-0.092 -0.089,-0.141 -0.019,-0.044 -0.031,-0.089 -0.031,-0.133 0,-0.043 -0.006,-0.261 0,-0.28 0,-0.054 0.01,-0.113 0.025,-0.165 0.015,-0.054 0.036,-0.102 0.059,-0.131 0.044,-0.054 0.093,-0.08 0.154,-0.089 0.058,-0.008 0.126,-0.001 0.213,0.011 0.095,0.013 0.21,0.044 0.296,0.086 0.076,0.036 0.132,0.082 0.14,0.134 0.002,0.016 0.004,0.047 0.006,0.078 0.001,0.029 0.002,0.06 0.001,0.081l0 0.275c0,0.044 -0.012,0.089 -0.031,0.133z"/>
    <path class="fil1" d="M2.109 0.824c0,-0.054 -0.043,-0.098 -0.095,-0.098l0 0.196c0.052,0 0.095,-0.044 0.095,-0.098z"/>
    <path class="fil2" d="M2.083 0.824c0,-0.02 -0.008,-0.038 -0.02,-0.051 -0.007,-0.007 -0.015,-0.012 -0.024,-0.016l0 0.134c0.009,-0.003 0.017,-0.009 0.024,-0.016 0.012,-0.013 0.02,-0.031 0.02,-0.051zm0.016 -0.087c0.022,0.023 0.036,0.053 0.036,0.087 0,0.034 -0.014,0.065 -0.036,0.087 -0.022,0.022 -0.052,0.036 -0.085,0.036l-0.026 0 0 -0.246 0.026 0c0.033,0 0.063,0.014 0.085,0.036z"/>
    <path class="fil1" d="M1.17 0.922l0 -0.196c-0.052,0 -0.095,0.044 -0.095,0.098 0,0.054 0.043,0.098 0.095,0.098z"/>
    <path class="fil2" d="M1.145 0.891l0 -0.134c-0.009,0.004 -0.017,0.009 -0.024,0.016 -0.013,0.013 -0.021,0.031 -0.021,0.051 0,0.02 0.008,0.038 0.021,0.051 0.007,0.007 0.015,0.013 0.024,0.016zm0.051 -0.165l0 0.221 -0.026 0c-0.033,0 -0.063,-0.013 -0.085,-0.036 -0.022,-0.022 -0.036,-0.053 -0.036,-0.087 0,-0.034 0.014,-0.064 0.036,-0.087 0.021,-0.022 0.052,-0.036 0.085,-0.036l0.026 0 0 0.025z"/>
    <path class="fil3" d="M2.082 0.369c-0.06,-0.204 -0.333,-0.316 -0.546,-0.318 -0.156,-0.001 -0.365,0.045 -0.361,0.296 -0.142,0.081 -0.056,0.271 -0.031,0.383 0.008,-0.002 0.017,-0.004 0.026,-0.004l0 -0.048c0.002,-0.105 0.037,-0.229 0.079,-0.281 0.079,-0.097 0.175,-0.092 0.343,-0.069 0.169,0.024 0.4,0.104 0.414,0.199 0.005,0.03 0.009,0.113 0.008,0.155l0 0.044c0.012,0 0.025,0.003 0.036,0.008 0.024,-0.113 0.058,-0.274 0.032,-0.365z"/>
    <path class="fil2" d="M2.057 0.377c-0.026,-0.088 -0.094,-0.157 -0.18,-0.207 -0.103,-0.06 -0.231,-0.092 -0.342,-0.093l-0.018 0c-0.072,0.001 -0.152,0.013 -0.213,0.052 -0.059,0.038 -0.102,0.102 -0.103,0.207l0 0.011c0,0.01 -0.005,0.018 -0.013,0.022 -0.095,0.054 -0.069,0.173 -0.042,0.272 0.004,-0.043 0.012,-0.088 0.024,-0.129 0.015,-0.054 0.036,-0.102 0.059,-0.131 0.044,-0.054 0.093,-0.08 0.154,-0.089 0.058,-0.008 0.126,-0.001 0.213,0.011 0.095,0.013 0.21,0.044 0.296,0.086 0.076,0.036 0.132,0.082 0.14,0.134l0 0.001c0.002,0.016 0.004,0.046 0.006,0.077 0.001,0.02 0.001,0.041 0.001,0.059 0.008,-0.039 0.015,-0.08 0.02,-0.12 0.008,-0.063 0.01,-0.122 -0.002,-0.163zm-0.154 -0.251c0.096,0.056 0.173,0.135 0.203,0.236 0.014,0.05 0.013,0.116 0.004,0.184 -0.008,0.067 -0.023,0.136 -0.035,0.193l-0.002 0.005c-0.005,0.013 -0.02,0.019 -0.033,0.013 -0.004,-0.001 -0.009,-0.003 -0.013,-0.004 -0.004,-0.001 -0.008,-0.001 -0.013,-0.001 -0.015,0 -0.026,-0.011 -0.026,-0.026l0 -0.045c0.001,-0.019 0,-0.049 -0.001,-0.077 -0.002,-0.03 -0.004,-0.058 -0.006,-0.073l0 -0.001c-0.005,-0.032 -0.05,-0.066 -0.111,-0.095 -0.082,-0.039 -0.191,-0.069 -0.281,-0.082 -0.082,-0.011 -0.146,-0.018 -0.198,-0.01 -0.049,0.007 -0.087,0.027 -0.122,0.07 -0.019,0.024 -0.037,0.065 -0.05,0.113 -0.014,0.048 -0.022,0.101 -0.023,0.15l0 0.05c0,0.015 -0.011,0.026 -0.026,0.026 -0.003,0 -0.006,0 -0.009,0.001l-0.001 0c-0.002,0 -0.005,0.001 -0.008,0.002l-0.003 0c-0.014,0.003 -0.028,-0.005 -0.03,-0.019 -0.005,-0.019 -0.01,-0.04 -0.016,-0.061 -0.032,-0.115 -0.073,-0.263 0.047,-0.342 0.002,-0.125 0.054,-0.201 0.127,-0.247 0.07,-0.045 0.16,-0.059 0.239,-0.06l0.02 0c0.119,0.001 0.256,0.035 0.367,0.1z"/>
    <path class="fil4" d="M1.674 1.795l0.261 -0.258c-0.028,-0.024 -0.051,-0.054 -0.064,-0.09l-0.279 0.164 0.082 0.184z"/>
    <path class="fil2" d="M1.682 1.751l0.217 -0.213c-0.008,-0.009 -0.016,-0.018 -0.022,-0.027 -0.007,-0.009 -0.012,-0.018 -0.017,-0.028l-0.235 0.138 0.057 0.13zm0.271 -0.196l-0.26 0.258c-0.002,0.002 -0.005,0.004 -0.009,0.006 -0.013,0.006 -0.028,0 -0.034,-0.013l-0.081 -0.185c-0.006,-0.012 -0.001,-0.026 0.01,-0.032l0.279 -0.164c0.001,-0.001 0.003,-0.002 0.005,-0.002 0.013,-0.005 0.028,0.002 0.032,0.015 0.006,0.016 0.014,0.03 0.023,0.043 0.01,0.014 0.021,0.026 0.034,0.037l0.002 0.001c0.009,0.01 0.009,0.027 -0.001,0.036z"/>
    <path class="fil4" d="M1.51 1.795l-0.261 -0.258c0.028,-0.024 0.05,-0.054 0.064,-0.09l0.279 0.164 -0.082 0.184z"/>
    <path class="fil2" d="M1.491 1.813l-0.26 -0.258c-0.01,-0.009 -0.011,-0.026 -0.001,-0.036l0.002 -0.001c0.013,-0.011 0.024,-0.023 0.034,-0.037 0.009,-0.013 0.017,-0.027 0.022,-0.043 0.005,-0.013 0.02,-0.02 0.033,-0.015 0.002,0 0.004,0.001 0.005,0.002l0.279 0.164c0.011,0.006 0.015,0.02 0.01,0.032l-0.082 0.185c-0.005,0.013 -0.02,0.019 -0.033,0.013 -0.004,-0.002 -0.007,-0.004 -0.009,-0.006zm-0.206 -0.275l0.217 0.213 0.057 -0.13 -0.235 -0.138c-0.005,0.01 -0.01,0.019 -0.017,0.028 -0.006,0.009 -0.014,0.018 -0.022,0.027z"/>
    <path class="fil4" d="M4.06 2.143c-0.108,-0.123 -0.163,-0.152 -0.256,-0.166 -0.144,0.13 -0.352,0.226 -0.585,0.27 -0.015,0.088 0.014,0.171 0.125,0.255 -0.091,-0.007 -0.3,-0.037 -0.354,-0.229 -0.016,0.001 -0.037,0.001 -0.051,0.001 -0.351,0 -0.663,-0.116 -0.864,-0.296 -0.093,0.014 -0.148,0.042 -0.256,0.166 0.444,0.626 1.797,0.625 2.241,-0.001z"/>
    <path class="fil2" d="M4.079 2.126c0.009,0.011 0.008,0.027 -0.003,0.037 -0.01,0.009 -0.026,0.008 -0.036,-0.003 -0.052,-0.06 -0.09,-0.096 -0.127,-0.119 -0.032,-0.02 -0.063,-0.03 -0.101,-0.037 -0.073,0.063 -0.16,0.119 -0.257,0.164 -0.096,0.044 -0.201,0.079 -0.313,0.101 -0.003,0.033 0.001,0.065 0.016,0.096 0.017,0.039 0.05,0.077 0.101,0.116 0.012,0.009 0.014,0.025 0.005,0.036 -0.005,0.007 -0.013,0.011 -0.022,0.01 -0.047,-0.003 -0.125,-0.013 -0.2,-0.047 -0.071,-0.033 -0.138,-0.088 -0.171,-0.181l-0.032 0c-0.175,0.001 -0.341,-0.028 -0.488,-0.078 -0.15,-0.052 -0.281,-0.126 -0.384,-0.216 -0.038,0.006 -0.069,0.016 -0.101,0.036 -0.037,0.023 -0.075,0.06 -0.127,0.119 -0.01,0.011 -0.026,0.012 -0.036,0.003 -0.011,-0.009 -0.012,-0.025 -0.003,-0.036 0.055,-0.064 0.098,-0.103 0.139,-0.129 0.042,-0.026 0.082,-0.038 0.132,-0.046 0.007,-0.001 0.015,0.001 0.021,0.007 0.1,0.089 0.228,0.163 0.375,0.213 0.143,0.049 0.303,0.076 0.472,0.076l0.025 0 0.024 0c0.012,-0.001 0.023,0.007 0.026,0.019 0.025,0.087 0.085,0.137 0.15,0.167 0.034,0.015 0.069,0.025 0.102,0.032 -0.025,-0.026 -0.043,-0.053 -0.055,-0.079 -0.021,-0.048 -0.025,-0.096 -0.017,-0.144 0.002,-0.01 0.01,-0.019 0.021,-0.021 0.114,-0.021 0.221,-0.056 0.318,-0.101 0.097,-0.044 0.183,-0.099 0.253,-0.163 0.006,-0.005 0.014,-0.008 0.022,-0.007 0.05,0.008 0.09,0.02 0.132,0.046 0.041,0.026 0.084,0.066 0.139,0.129z"/>
    <path class="fil1" d="M2.479 0.88l0 0.213 0 0.039c0,0.167 0.178,0.391 0.46,0.474 0.088,-0.026 0.165,-0.065 0.23,-0.112 0.146,-0.104 0.23,-0.247 0.23,-0.362l0 -0.039 0 -0.213 0 -0.053c-0.073,-0.069 -0.14,-0.066 -0.182,-0.329 -0.225,0.239 -0.561,0.248 -0.738,0.329l0 0.053z"/>
    <path class="fil2" d="M2.505 0.88l0 0.252c0,0.081 0.047,0.179 0.13,0.265 0.075,0.077 0.179,0.144 0.304,0.182 0.039,-0.012 0.075,-0.026 0.11,-0.043 0.038,-0.018 0.073,-0.039 0.105,-0.062 0.069,-0.05 0.123,-0.108 0.161,-0.167 0.038,-0.06 0.059,-0.121 0.059,-0.175l0 -0.294c-0.011,-0.009 -0.021,-0.017 -0.031,-0.025 -0.057,-0.043 -0.107,-0.081 -0.143,-0.262 -0.156,0.144 -0.352,0.195 -0.516,0.238 -0.068,0.018 -0.129,0.034 -0.179,0.054l0 0.037zm-0.051 0.213l0 -0.266c0,-0.01 0.005,-0.019 0.015,-0.024 0.056,-0.025 0.125,-0.044 0.202,-0.064 0.17,-0.044 0.376,-0.098 0.527,-0.258 0.004,-0.004 0.009,-0.007 0.015,-0.008 0.014,-0.002 0.027,0.007 0.029,0.021 0.032,0.203 0.079,0.239 0.132,0.279 0.014,0.01 0.028,0.021 0.041,0.034 0.006,0.004 0.01,0.011 0.01,0.02l0 0.305c0,0.063 -0.023,0.134 -0.067,0.202 -0.041,0.065 -0.1,0.128 -0.174,0.181 -0.035,0.025 -0.072,0.048 -0.113,0.067 -0.039,0.019 -0.08,0.035 -0.124,0.048 -0.005,0.002 -0.01,0.002 -0.015,0 -0.138,-0.04 -0.252,-0.113 -0.333,-0.198 -0.093,-0.095 -0.145,-0.206 -0.145,-0.3l0 -0.039z"/>
    <path class="fil1" d="M2.63 1.833c-0.093,0.074 -0.241,0.107 -0.387,0.126 -0.071,0.008 -0.124,0.012 -0.168,0.019 0.201,0.18 0.513,0.296 0.864,0.296 0.014,0 0.035,0 0.051,-0.001 -0.01,-0.035 -0.015,-0.075 -0.013,-0.122 0.012,-0.261 0.138,-0.248 0.18,-0.452 0.01,-0.052 0.016,-0.117 0.012,-0.205 -0.065,0.047 -0.142,0.086 -0.23,0.112 -0.09,-0.027 -0.17,-0.068 -0.237,-0.117 0.056,0.166 0.016,0.273 -0.072,0.344zm0.696 0.194c-0.052,0.077 -0.094,0.15 -0.107,0.22 0.233,-0.044 0.441,-0.14 0.585,-0.27 -0.044,-0.007 -0.097,-0.01 -0.168,-0.019 -0.08,-0.01 -0.165,-0.024 -0.237,-0.046 -0.024,0.04 -0.048,0.079 -0.073,0.115z"/>
    <path class="fil2" d="M2.646 1.853c-0.049,0.039 -0.113,0.067 -0.183,0.088 -0.068,0.02 -0.143,0.034 -0.217,0.043 -0.03,0.004 -0.061,0.007 -0.088,0.01l-0.022 0.002c0.093,0.073 0.205,0.133 0.331,0.176 0.143,0.049 0.303,0.076 0.472,0.076l0.019 0c-0.002,-0.009 -0.003,-0.019 -0.005,-0.029 -0.002,-0.021 -0.003,-0.045 -0.001,-0.069 0.006,-0.155 0.052,-0.218 0.098,-0.282 0.032,-0.045 0.065,-0.091 0.082,-0.174 0.005,-0.025 0.009,-0.053 0.011,-0.086 0.001,-0.02 0.002,-0.042 0.002,-0.067 -0.024,0.015 -0.048,0.029 -0.074,0.041 -0.039,0.019 -0.08,0.035 -0.124,0.048 -0.005,0.002 -0.01,0.002 -0.015,0 -0.046,-0.013 -0.089,-0.03 -0.129,-0.05 -0.02,-0.01 -0.04,-0.021 -0.058,-0.032 0.012,0.059 0.011,0.11 0,0.155 -0.015,0.062 -0.051,0.111 -0.099,0.15zm-0.197 0.039c0.064,-0.019 0.121,-0.044 0.165,-0.079 0.04,-0.032 0.069,-0.072 0.081,-0.122 0.013,-0.052 0.009,-0.116 -0.017,-0.194 -0.003,-0.008 -0.002,-0.017 0.003,-0.023 0.009,-0.012 0.025,-0.014 0.036,-0.006 0.033,0.025 0.07,0.047 0.109,0.066 0.036,0.018 0.073,0.033 0.113,0.045 0.039,-0.012 0.075,-0.026 0.11,-0.043 0.038,-0.018 0.073,-0.039 0.105,-0.062 0.004,-0.003 0.009,-0.005 0.014,-0.005 0.014,-0.001 0.026,0.01 0.027,0.024 0.002,0.045 0.001,0.084 -0.001,0.118 -0.002,0.035 -0.007,0.066 -0.012,0.093 -0.019,0.094 -0.055,0.144 -0.091,0.194 -0.041,0.057 -0.082,0.114 -0.088,0.254 -0.001,0.022 -0.001,0.043 0.001,0.062 0.002,0.019 0.006,0.036 0.01,0.053 0.001,0.002 0.001,0.004 0.001,0.006 0.001,0.014 -0.011,0.026 -0.025,0.026 -0.017,0 -0.034,0 -0.051,0.001 -0.175,0 -0.341,-0.029 -0.488,-0.079 -0.154,-0.053 -0.288,-0.13 -0.393,-0.224 -0.004,-0.004 -0.008,-0.009 -0.009,-0.016 -0.002,-0.014 0.008,-0.027 0.022,-0.029 0.023,-0.003 0.05,-0.006 0.082,-0.009 0.024,-0.003 0.051,-0.005 0.087,-0.01 0.072,-0.009 0.144,-0.022 0.209,-0.041zm0.898 0.149c-0.025,0.038 -0.048,0.074 -0.066,0.11 -0.011,0.022 -0.02,0.043 -0.027,0.063 0.099,-0.021 0.194,-0.053 0.279,-0.093 0.078,-0.035 0.148,-0.078 0.21,-0.126l-0.022 -0.002c-0.027,-0.003 -0.058,-0.006 -0.088,-0.01 -0.04,-0.005 -0.081,-0.011 -0.123,-0.019 -0.034,-0.006 -0.068,-0.013 -0.099,-0.022 -0.009,0.014 -0.018,0.028 -0.027,0.043 -0.012,0.019 -0.024,0.038 -0.037,0.056zm-0.112 0.087c0.019,-0.038 0.043,-0.076 0.07,-0.116 0.012,-0.017 0.024,-0.036 0.036,-0.055 0.012,-0.018 0.024,-0.038 0.036,-0.058 0.006,-0.01 0.018,-0.015 0.03,-0.011 0.034,0.01 0.073,0.019 0.112,0.026 0.039,0.007 0.08,0.013 0.12,0.018 0.035,0.005 0.063,0.007 0.087,0.01 0.031,0.003 0.059,0.006 0.082,0.009 0.005,0.001 0.011,0.004 0.015,0.009 0.009,0.01 0.009,0.026 -0.002,0.036 -0.074,0.067 -0.165,0.125 -0.266,0.172 -0.1,0.046 -0.212,0.082 -0.329,0.104 -0.004,0.001 -0.007,0.001 -0.011,0.001 -0.014,-0.003 -0.023,-0.016 -0.021,-0.03 0.007,-0.038 0.021,-0.076 0.041,-0.115z"/>
    <path class="fil1" d="M3.399 0.88l0 0.213c0.058,0 0.105,-0.048 0.105,-0.107 0,-0.058 -0.047,-0.106 -0.105,-0.106z"/>
    <path class="fil2" d="M3.425 0.91l0 0.153c0.011,-0.004 0.021,-0.011 0.03,-0.019 0.014,-0.015 0.023,-0.035 0.023,-0.058 0,-0.022 -0.009,-0.042 -0.023,-0.057l-0.001 -0.001c-0.008,-0.008 -0.018,-0.014 -0.029,-0.018zm-0.051 0.183l0 -0.213c0,-0.014 0.011,-0.026 0.025,-0.026 0.035,0 0.067,0.014 0.091,0.038l0.001 0.001c0.024,0.024 0.038,0.057 0.038,0.093 0,0.037 -0.014,0.07 -0.038,0.094 -0.023,0.024 -0.056,0.039 -0.092,0.039 -0.014,0 -0.025,-0.012 -0.025,-0.026z"/>
    <path class="fil1" d="M2.375 0.986c0,0.059 0.047,0.107 0.104,0.107l0 -0.213c-0.057,0 -0.104,0.048 -0.104,0.106z"/>
    <path class="fil2" d="M2.401 0.986c0,0.023 0.009,0.043 0.023,0.058l0.001 0.001c0.008,0.008 0.018,0.014 0.029,0.018l0 -0.153c-0.011,0.004 -0.022,0.01 -0.03,0.019 -0.014,0.015 -0.023,0.035 -0.023,0.057zm-0.014 0.094c-0.023,-0.024 -0.037,-0.057 -0.037,-0.094 0,-0.036 0.014,-0.069 0.037,-0.093 0.024,-0.024 0.057,-0.039 0.092,-0.039 0.015,0 0.026,0.012 0.026,0.026l0 0.213c0,0.014 -0.011,0.026 -0.026,0.026 -0.035,0 -0.067,-0.015 -0.09,-0.038l-0.002 -0.001z"/>
    <path class="fil3" d="M3.17 1.494c0,0.012 0,0.024 0,0.036 0.001,0.07 -0.004,0.124 -0.013,0.168 0,0.001 0,0.001 0,0.001 -0.042,0.204 -0.168,0.191 -0.18,0.452 -0.002,0.047 0.003,0.087 0.013,0.122 0.054,0.192 0.263,0.222 0.354,0.229 -0.111,-0.084 -0.14,-0.167 -0.125,-0.255 0.025,-0.134 0.12,-0.223 0.18,-0.335 0.146,-0.242 0.271,-0.55 0.269,-0.873 -0.005,-0.549 -0.325,-0.823 -0.714,-0.838 -0.39,-0.016 -0.667,0.429 -0.658,0.795 0.008,0.363 0.175,0.647 0.334,0.837 0.088,-0.071 0.128,-0.178 0.072,-0.344 -0.141,-0.104 -0.223,-0.244 -0.223,-0.357l0 -0.039c-0.057,0 -0.104,-0.048 -0.104,-0.107 0,-0.058 0.047,-0.106 0.104,-0.106l0 -0.053c0.177,-0.081 0.513,-0.09 0.738,-0.329 0.042,0.263 0.109,0.26 0.182,0.329l0 0.053c0.058,0 0.105,0.048 0.105,0.106 0,0.059 -0.047,0.107 -0.105,0.107l0 0.039c0,0.115 -0.084,0.257 -0.229,0.362z"/>
    <path class="fil2" d="M3.196 1.506l0 0.024c0,0.036 -0.001,0.068 -0.003,0.096 -0.003,0.028 -0.006,0.054 -0.011,0.077l-0.001 0.003c-0.019,0.093 -0.055,0.143 -0.09,0.192 -0.041,0.057 -0.082,0.114 -0.088,0.254 -0.001,0.022 -0.001,0.043 0.001,0.062 0.002,0.019 0.006,0.036 0.01,0.053 0.025,0.087 0.085,0.137 0.15,0.167 0.034,0.015 0.069,0.025 0.101,0.032 -0.024,-0.026 -0.042,-0.053 -0.054,-0.079 -0.021,-0.048 -0.025,-0.096 -0.017,-0.144l0.001 -0.002c0.017,-0.094 0.066,-0.165 0.115,-0.237 0.024,-0.034 0.047,-0.068 0.067,-0.104l0.001 -0.002c0.078,-0.13 0.15,-0.279 0.199,-0.439 0.041,-0.133 0.066,-0.275 0.065,-0.419 -0.002,-0.254 -0.073,-0.448 -0.187,-0.582 -0.126,-0.147 -0.304,-0.224 -0.502,-0.232 -0.01,0 -0.02,0 -0.03,0 -0.17,0.004 -0.317,0.101 -0.422,0.238 -0.107,0.139 -0.173,0.319 -0.18,0.487 0,0.015 0,0.03 0,0.044 0.004,0.157 0.038,0.299 0.088,0.425 0.06,0.149 0.142,0.276 0.224,0.376 0.03,-0.029 0.052,-0.063 0.062,-0.105 0.013,-0.051 0.009,-0.112 -0.015,-0.187 -0.068,-0.052 -0.123,-0.112 -0.162,-0.173 -0.042,-0.068 -0.064,-0.137 -0.064,-0.199l0 -0.016c-0.026,-0.005 -0.049,-0.018 -0.066,-0.036 -0.024,-0.024 -0.038,-0.057 -0.038,-0.094 0,-0.036 0.014,-0.069 0.037,-0.093l0.002 -0.001c0.018,-0.018 0.04,-0.03 0.065,-0.035l0 -0.03c0,-0.012 0.007,-0.021 0.017,-0.025 0.056,-0.025 0.124,-0.043 0.2,-0.063 0.17,-0.044 0.376,-0.098 0.527,-0.258 0.01,-0.011 0.026,-0.011 0.036,-0.001 0.005,0.004 0.007,0.009 0.008,0.015 0.033,0.202 0.079,0.238 0.132,0.278 0.014,0.011 0.028,0.022 0.043,0.035 0.005,0.005 0.008,0.012 0.008,0.019l0 0.03c0.026,0.005 0.048,0.018 0.066,0.036 0.024,0.024 0.038,0.057 0.038,0.093 0,0.037 -0.014,0.07 -0.038,0.094l-0.001 0.001c-0.018,0.018 -0.04,0.03 -0.065,0.035l0 0.016c0,0.063 -0.023,0.134 -0.067,0.202 -0.038,0.061 -0.093,0.121 -0.162,0.172zm-0.051 0.006l0 -0.018c0,-0.008 0.003,-0.016 0.01,-0.021 0.068,-0.049 0.123,-0.107 0.16,-0.166 0.038,-0.06 0.059,-0.121 0.059,-0.175l0 -0.039c0,-0.014 0.011,-0.026 0.025,-0.026 0.021,0 0.041,-0.008 0.055,-0.022l0.001 -0.001c0.014,-0.015 0.023,-0.035 0.023,-0.058 0,-0.022 -0.009,-0.042 -0.023,-0.057 -0.014,-0.015 -0.034,-0.024 -0.056,-0.024 -0.014,0 -0.025,-0.011 -0.025,-0.025l0 -0.042c-0.011,-0.009 -0.021,-0.017 -0.031,-0.025 -0.057,-0.043 -0.107,-0.081 -0.143,-0.262 -0.156,0.144 -0.352,0.195 -0.516,0.238 -0.068,0.018 -0.129,0.034 -0.179,0.054l0 0.037c0,0.014 -0.011,0.025 -0.026,0.025 -0.021,0 -0.04,0.009 -0.054,0.023l-0.001 0.001c-0.014,0.015 -0.023,0.035 -0.023,0.057 0,0.023 0.009,0.043 0.023,0.058 0.014,0.014 0.034,0.023 0.055,0.023 0.015,0 0.026,0.012 0.026,0.026l0 0.039c0,0.053 0.02,0.113 0.057,0.172 0.036,0.058 0.089,0.115 0.155,0.164 0.004,0.003 0.007,0.007 0.009,0.013 0.03,0.088 0.034,0.161 0.019,0.222 -0.015,0.062 -0.051,0.111 -0.099,0.15 -0.011,0.008 -0.026,0.007 -0.035,-0.004 -0.091,-0.107 -0.184,-0.245 -0.249,-0.41 -0.053,-0.131 -0.088,-0.279 -0.092,-0.443 0,-0.016 0,-0.031 0,-0.047 0.008,-0.178 0.077,-0.369 0.19,-0.516 0.115,-0.149 0.274,-0.253 0.461,-0.258l0.001 0c0.011,0 0.022,0 0.033,0 0.211,0.009 0.403,0.091 0.539,0.25 0.122,0.143 0.197,0.347 0.199,0.614 0.002,0.15 -0.024,0.297 -0.067,0.435 -0.05,0.164 -0.124,0.317 -0.204,0.45 -0.021,0.039 -0.045,0.074 -0.07,0.109 -0.045,0.067 -0.091,0.134 -0.107,0.217l0 0.002c-0.007,0.039 -0.004,0.076 0.013,0.113 0.017,0.039 0.05,0.077 0.101,0.116 0.007,0.005 0.011,0.013 0.011,0.022 -0.001,0.014 -0.014,0.025 -0.028,0.024 -0.047,-0.003 -0.125,-0.013 -0.2,-0.047 -0.076,-0.035 -0.147,-0.095 -0.177,-0.2 -0.005,-0.019 -0.009,-0.039 -0.012,-0.061 -0.002,-0.021 -0.003,-0.045 -0.001,-0.069 0.006,-0.155 0.052,-0.218 0.098,-0.282 0.032,-0.045 0.064,-0.09 0.081,-0.173l0.001 -0.002c0.004,-0.02 0.008,-0.044 0.01,-0.071 0.002,-0.028 0.003,-0.058 0.003,-0.091l0 -0.019z"/>
   </g>
  </g>
 </g>
</svg>
