<?xml version="1.0" encoding="UTF-8"?>
<!DOCTYPE svg PUBLIC "-//W3C//DTD SVG 1.1//EN" "http://www.w3.org/Graphics/SVG/1.1/DTD/svg11.dtd">
<!-- Creator: CorelDRAW 2019 (64-Bit) -->
<svg xmlns="http://www.w3.org/2000/svg" xml:space="preserve" width="90px" height="52px" version="1.1" style="shape-rendering:geometricPrecision; text-rendering:geometricPrecision; image-rendering:optimizeQuality; fill-rule:evenodd; clip-rule:evenodd"
viewBox="0 0 3.895 2.251"
 xmlns:xlink="http://www.w3.org/1999/xlink">
 <defs>
  <style type="text/css">
   <![CDATA[
    .fil0 {fill:none}
    .fil4 {fill:#00F4FF}
    .fil3 {fill:#EAEDF2}
    .fil5 {fill:white}
    .fil1 {fill:white}
    .fil2 {fill:gray;fill-rule:nonzero}
   ]]>
  </style>
 </defs>
 <g id="Layer_x0020_1">
  <metadata id="CorelCorpID_0Corel-Layer"/>
  <g id="_3018738387776">
   <rect class="fil0" width="3.895" height="2.251"/>
   <g>
    <path class="fil1" d="M2.23 1.999l-1.075 0c-0.022,0 -0.039,-0.018 -0.039,-0.039 0,-0.626 0,-1.252 0,-1.878 0,-0.021 0.017,-0.039 0.039,-0.039l1.047 0 0.443 0.443 0 0.934 -0.415 0.579z"/>
    <path class="fil2" d="M2.23 2.021l-1.075 0c-0.017,0 -0.032,-0.007 -0.043,-0.018 -0.011,-0.011 -0.018,-0.026 -0.018,-0.043l0 -1.878c0,-0.016 0.007,-0.031 0.018,-0.042 0.011,-0.012 0.026,-0.018 0.043,-0.018l1.047 0c0.006,0 0.012,0.002 0.016,0.006l0.442 0.443c0.004,0.004 0.006,0.009 0.006,0.015l0 0.934c0,0.005 -0.001,0.009 -0.004,0.013l-0.415 0.579c-0.004,0.005 -0.011,0.009 -0.017,0.009zm-1.075 -0.044l1.064 0 0.404 -0.564 0 -0.918 -0.43 -0.43 -1.038 0c-0.005,0 -0.009,0.002 -0.012,0.005 -0.004,0.003 -0.006,0.008 -0.006,0.012l0 1.878c0,0.005 0.002,0.009 0.006,0.012 0.003,0.003 0.007,0.005 0.012,0.005z"/>
    <path class="fil3" d="M2.645 0.486l-0.405 0c-0.021,0 -0.038,-0.017 -0.038,-0.038l0 -0.405 0.443 0.443z"/>
    <path class="fil2" d="M2.645 0.508l-0.405 0c-0.017,0 -0.031,-0.007 -0.042,-0.018 -0.011,-0.011 -0.018,-0.025 -0.018,-0.042l0 -0.405c0,-0.012 0.01,-0.021 0.022,-0.021 0.006,0 0.012,0.002 0.016,0.006l0.442 0.443c0.008,0.008 0.008,0.022 0,0.03 -0.004,0.005 -0.01,0.007 -0.015,0.007zm-0.405 -0.044l0.352 0 -0.368 -0.368 0 0.352c0,0.005 0.001,0.009 0.004,0.012 0.003,0.003 0.007,0.004 0.012,0.004z"/>
    <path class="fil4" d="M1.442 0.629c0.015,-0.004 0.045,0.007 0.065,0.012 0.05,0.012 0.11,0.012 0.161,0 0.019,-0.005 0.049,-0.016 0.065,-0.012 0.015,0.004 0.05,0.029 0.053,0.068l0.01 0.116c0.001,0.01 -0.008,0.018 -0.018,0.018l-0.382 0c-0.009,0 -0.019,-0.008 -0.018,-0.018l0.01 -0.116c0.004,-0.039 0.038,-0.064 0.054,-0.068z"/>
    <path class="fil2" d="M1.436 0.608c0.017,-0.004 0.04,0.002 0.06,0.008 0.006,0.001 0.011,0.003 0.016,0.004l0.001 0.001c0.023,0.005 0.048,0.007 0.074,0.007 0.027,0 0.053,-0.002 0.076,-0.008l0.015 -0.004c0.02,-0.006 0.043,-0.012 0.06,-0.008l0.002 0.001c0.012,0.003 0.032,0.015 0.046,0.034 0.011,0.014 0.02,0.031 0.021,0.052l0.011 0.116 0 0.003c0,0.011 -0.005,0.02 -0.012,0.027 -0.006,0.006 -0.015,0.01 -0.025,0.011 -0.126,0.004 -0.258,0 -0.385,0l-0.003 0c-0.009,-0.001 -0.018,-0.005 -0.025,-0.011 -0.007,-0.007 -0.011,-0.016 -0.011,-0.027 0.002,-0.039 0.006,-0.08 0.01,-0.119 0.002,-0.021 0.01,-0.038 0.021,-0.052 0.015,-0.019 0.036,-0.032 0.048,-0.035zm0.049 0.05c-0.015,-0.005 -0.032,-0.01 -0.038,-0.008 -0.005,0.001 -0.016,0.008 -0.025,0.02 -0.006,0.007 -0.011,0.017 -0.012,0.029l-0.01 0.11 0.374 0 -0.01 -0.11c-0.001,-0.012 -0.005,-0.022 -0.012,-0.029 -0.008,-0.011 -0.018,-0.018 -0.024,-0.02l-0.001 0c-0.006,-0.002 -0.023,0.003 -0.037,0.008 -0.007,0.001 -0.013,0.003 -0.017,0.004 -0.027,0.006 -0.057,0.01 -0.086,0.01 -0.028,0 -0.057,-0.003 -0.084,-0.01l-0.001 0c-0.005,-0.001 -0.011,-0.003 -0.017,-0.004z"/>
    <path class="fil4" d="M1.586 0.309c0.078,0 0.141,0.063 0.141,0.14 0,0.078 -0.063,0.14 -0.141,0.14 -0.077,0 -0.14,-0.062 -0.14,-0.14 0,-0.077 0.063,-0.14 0.14,-0.14z"/>
    <path class="fil2" d="M1.586 0.288c0.045,0 0.086,0.018 0.115,0.047 0.029,0.029 0.047,0.07 0.047,0.114 0,0.045 -0.018,0.085 -0.047,0.115 -0.029,0.029 -0.07,0.047 -0.115,0.047 -0.044,0 -0.085,-0.018 -0.114,-0.047 -0.029,-0.03 -0.047,-0.07 -0.047,-0.115 0,-0.044 0.018,-0.085 0.047,-0.114 0.029,-0.029 0.07,-0.047 0.114,-0.047zm0.084 0.078c-0.021,-0.022 -0.051,-0.035 -0.084,-0.035 -0.032,0 -0.062,0.013 -0.083,0.035 -0.022,0.021 -0.035,0.051 -0.035,0.083 0,0.033 0.013,0.063 0.035,0.084 0.021,0.022 0.051,0.035 0.083,0.035 0.033,0 0.063,-0.013 0.084,-0.035 0.022,-0.021 0.035,-0.051 0.035,-0.084 0,-0.032 -0.013,-0.062 -0.035,-0.083z"/>
    <path class="fil2" d="M1.378 1.107c-0.012,0 -0.021,-0.009 -0.021,-0.021 0,-0.012 0.009,-0.022 0.021,-0.022l1.004 0c0.012,0 0.022,0.01 0.022,0.022 0,0.012 -0.01,0.021 -0.022,0.021l-1.004 0z"/>
    <path class="fil2" d="M1.378 1.362c-0.012,0 -0.021,-0.009 -0.021,-0.021 0,-0.012 0.009,-0.022 0.021,-0.022l0.502 0c0.012,0 0.022,0.01 0.022,0.022 0,0.012 -0.01,0.021 -0.022,0.021l-0.502 0z"/>
    <path class="fil2" d="M1.928 0.86c-0.012,0 -0.022,-0.009 -0.022,-0.021 0,-0.012 0.01,-0.022 0.022,-0.022l0.454 0c0.012,0 0.022,0.01 0.022,0.022 0,0.012 -0.01,0.021 -0.022,0.021l-0.454 0z"/>
    <path class="fil2" d="M1.378 1.617c-0.012,0 -0.021,-0.009 -0.021,-0.021 0,-0.012 0.009,-0.022 0.021,-0.022l0.502 0c0.012,0 0.022,0.01 0.022,0.022 0,0.012 -0.01,0.021 -0.022,0.021l-0.502 0z"/>
    <polygon class="fil1" points="2.43,1.912 2.292,2.207 2.222,2.094 2.091,2.114 2.216,1.845 "/>
    <path class="fil2" d="M2.449 1.921l-0.137 0.296c-0.005,0.01 -0.018,0.015 -0.029,0.01 -0.005,-0.002 -0.008,-0.006 -0.01,-0.01l-0.062 -0.099 -0.117 0.017c-0.012,0.002 -0.023,-0.007 -0.025,-0.018 0,-0.005 0,-0.009 0.002,-0.013l0.125 -0.268c0.005,-0.01 0.017,-0.015 0.027,-0.011l0.213 0.066c0.012,0.004 0.018,0.016 0.014,0.027l-0.001 0.003zm-0.16 0.241l0.111 -0.237 -0.173 -0.053 -0.1 0.214 0.092 -0.013c0.008,-0.001 0.017,0.002 0.022,0.01l0.048 0.079z"/>
    <polygon class="fil1" points="2.396,1.912 2.533,2.207 2.603,2.094 2.735,2.114 2.61,1.845 "/>
    <polygon class="fil4" points="2.048,1.604 2.124,1.514 2.117,1.388 2.232,1.36 2.3,1.255 2.41,1.3 2.527,1.255 2.589,1.356 2.71,1.388 2.701,1.506 2.78,1.604 2.703,1.694 2.71,1.819 2.595,1.847 2.527,1.952 2.417,1.907 2.3,1.952 2.238,1.851 2.117,1.819 2.126,1.701 "/>
    <path class="fil2" d="M2.031 1.59l0.071 -0.084 -0.006 -0.117c-0.001,-0.01 0.007,-0.02 0.017,-0.022l0.106 -0.026 0.063 -0.097c0.006,-0.009 0.018,-0.013 0.028,-0.008l0.1 0.041 0.109 -0.042c0.01,-0.004 0.022,0.001 0.027,0.011l0.057 0.091 0.112 0.031c0.011,0.002 0.017,0.012 0.016,0.023l-0.008 0.108 0.073 0.091c0.007,0.008 0.007,0.02 0,0.028l-0.071 0.083 0.006 0.117c0.001,0.01 -0.007,0.02 -0.017,0.022l-0.105 0.026 -0.064 0.097c-0.006,0.01 -0.018,0.013 -0.028,0.008l-0.1 -0.041 -0.109 0.042c-0.01,0.004 -0.022,-0.001 -0.027,-0.01l-0.056 -0.092 -0.113 -0.03c-0.01,-0.003 -0.017,-0.013 -0.016,-0.023l0.008 -0.109 -0.073 -0.091c-0.007,-0.008 -0.006,-0.02 0,-0.027zm0.109 -0.062l-0.064 0.076 0.066 0.083c0.004,0.004 0.006,0.01 0.006,0.016l-0.008 0.1 0.104 0.028c0.005,0.001 0.01,0.004 0.013,0.009l0.052 0.085 0.101 -0.038c0.005,-0.002 0.01,-0.002 0.016,0l0.092 0.038 0.059 -0.09c0.003,-0.004 0.007,-0.008 0.013,-0.009l0.097 -0.024 -0.005 -0.107c-0.001,-0.005 0.001,-0.011 0.005,-0.015l0.065 -0.077 -0.067 -0.083c-0.004,-0.004 -0.006,-0.009 -0.006,-0.015l0.008 -0.1 -0.104 -0.028c-0.005,-0.002 -0.01,-0.005 -0.013,-0.01l-0.052 -0.085 -0.101 0.038c-0.005,0.002 -0.01,0.002 -0.015,0l-0.093 -0.038 -0.059 0.09c-0.003,0.005 -0.007,0.008 -0.013,0.009l-0.097 0.024 0.005 0.107c0.001,0.005 -0.001,0.011 -0.005,0.016z"/>
    <path class="fil5" d="M2.414 1.411c0.106,0 0.192,0.086 0.192,0.193 0,0.106 -0.086,0.192 -0.192,0.192 -0.107,0 -0.193,-0.086 -0.193,-0.192 0,-0.107 0.086,-0.193 0.193,-0.193z"/>
    <path class="fil2" d="M2.414 1.389c0.059,0 0.112,0.024 0.151,0.063l0.001 0.001c0.039,0.039 0.062,0.092 0.062,0.151 0,0.059 -0.024,0.112 -0.063,0.151l-0.001 0.001c-0.039,0.039 -0.092,0.062 -0.15,0.062 -0.06,0 -0.113,-0.024 -0.152,-0.063 -0.039,-0.039 -0.063,-0.092 -0.063,-0.151 0,-0.06 0.024,-0.113 0.063,-0.152 0.039,-0.039 0.092,-0.063 0.152,-0.063zm0.121 0.094c-0.031,-0.031 -0.074,-0.051 -0.121,-0.051 -0.048,0 -0.091,0.02 -0.121,0.051 -0.031,0.03 -0.051,0.073 -0.051,0.121 0,0.047 0.02,0.09 0.051,0.121 0.03,0.031 0.073,0.05 0.121,0.05 0.046,0 0.089,-0.019 0.12,-0.049l0.001 -0.001c0.031,-0.031 0.05,-0.074 0.05,-0.121 0,-0.047 -0.019,-0.09 -0.049,-0.12l-0.001 -0.001z"/>
    <path class="fil2" d="M2.451 2.081c-0.005,-0.01 -0.001,-0.023 0.01,-0.028 0.011,-0.005 0.024,-0.001 0.029,0.01l0.046 0.099 0.049 -0.079c0.004,-0.008 0.013,-0.011 0.021,-0.01l0.092 0.013 -0.108 -0.232c-0.005,-0.01 0,-0.023 0.01,-0.028 0.011,-0.005 0.024,-0.001 0.029,0.01l0.125 0.268c0.002,0.004 0.003,0.008 0.002,0.013 -0.002,0.011 -0.013,0.02 -0.025,0.018l-0.117 -0.017 -0.061 0.099c-0.002,0.004 -0.006,0.008 -0.011,0.01 -0.01,0.005 -0.023,0 -0.028,-0.01l-0.063 -0.136z"/>
   </g>
  </g>
 </g>
</svg>
