<?xml version="1.0" encoding="UTF-8"?>
<!DOCTYPE svg PUBLIC "-//W3C//DTD SVG 1.1//EN" "http://www.w3.org/Graphics/SVG/1.1/DTD/svg11.dtd">
<!-- Creator: CorelDRAW 2019 (64-Bit) -->
<svg xmlns="http://www.w3.org/2000/svg" xml:space="preserve" width="90px" height="52px" version="1.1" style="shape-rendering:geometricPrecision; text-rendering:geometricPrecision; image-rendering:optimizeQuality; fill-rule:evenodd; clip-rule:evenodd"
viewBox="0 0 4.599 2.657"
 xmlns:xlink="http://www.w3.org/1999/xlink">
 <defs>
  <style type="text/css">
   <![CDATA[
    .fil0 {fill:none}
    .fil3 {fill:#00F4FF}
    .fil1 {fill:white}
    .fil2 {fill:gray;fill-rule:nonzero}
   ]]>
  </style>
 </defs>
 <g id="Layer_x0020_1">
  <metadata id="CorelCorpID_0Corel-Layer"/>
  <g id="_3018706575616">
   <rect class="fil0" width="4.599" height="2.657"/>
   <g>
    <polygon class="fil1" points="3.294,0.061 2.154,0.174 2.154,2.616 3.294,2.616 "/>
    <polygon class="fil1" points="2.372,0.795 0.945,0.937 0.945,2.616 2.372,2.616 "/>
    <path class="fil2" d="M0.971 2.616c0,0.014 -0.012,0.025 -0.026,0.025 -0.014,0 -0.025,-0.011 -0.025,-0.025l0 -1.679c0,-0.014 0.011,-0.025 0.025,-0.026l1.425 -0.142c0.014,-0.001 0.026,0.009 0.028,0.023 0.001,0.014 -0.009,0.027 -0.023,0.028l-1.404 0.14 0 1.656z"/>
    <path class="fil3" d="M1.218 2.41l0.881 -0.008 0 0.214 -0.881 0 0 -0.206zm0 -1.203l0.881 -0.051 0 0.214 -0.881 0.043 0 -0.206zm0 0.401l0.881 -0.036 0 0.213 -0.881 0.029 0 -0.206zm0 0.401l0.881 -0.022 0 0.213 -0.881 0.015 0 -0.206z"/>
    <path class="fil2" d="M1.22 2.384l0.879 -0.007c0.014,0 0.026,0.011 0.026,0.025l0 0.214c0,0.014 -0.011,0.025 -0.026,0.025l-0.881 0c-0.014,0 -0.026,-0.011 -0.026,-0.025l0 -0.206c0,-0.014 0.012,-0.026 0.026,-0.026l0.002 0zm0.854 0.044l-0.831 0.007 0 0.155 0.831 0 0 -0.162zm-0.856 -1.247l0.88 -0.05c0.014,-0.001 0.026,0.01 0.027,0.024l0 0.215c0,0.014 -0.011,0.025 -0.026,0.025l-0.88 0.043c-0.014,0.001 -0.026,-0.01 -0.027,-0.024l0 -0.207c0,-0.014 0.012,-0.026 0.026,-0.026l0 0zm0.856 0.002l-0.831 0.048 0 0.155 0.831 -0.04 0 -0.163zm-0.855 0.399l0.879 -0.036c0.015,0 0.026,0.011 0.027,0.025l0 0.214c0,0.014 -0.011,0.026 -0.026,0.026l-0.88 0.028c-0.014,0.001 -0.026,-0.01 -0.027,-0.024l0 -0.207c0,-0.014 0.012,-0.026 0.026,-0.026l0.001 0zm0.855 0.016l-0.831 0.034 0 0.155 0.831 -0.027 0 -0.162zm-0.855 0.385l0.88 -0.021c0.014,-0.001 0.026,0.01 0.026,0.024l0 0.214c0,0.014 -0.011,0.026 -0.026,0.026l-0.881 0.014c-0.014,0 -0.025,-0.011 -0.026,-0.025l0 -0.206c0,-0.014 0.012,-0.026 0.026,-0.026l0.001 0zm0.855 0.03l-0.831 0.021 0 0.155 0.831 -0.014 0 -0.162z"/>
    <polygon class="fil1" points="2.372,0.795 2.973,1.01 2.973,2.616 2.372,2.616 "/>
    <path class="fil2" d="M2.383 0.771l0.599 0.215c0.01,0.004 0.017,0.014 0.017,0.024l0 1.606c0,0.014 -0.012,0.025 -0.026,0.025l-0.601 0c-0.014,0 -0.025,-0.011 -0.025,-0.025l0 -1.821c0,-0.015 0.011,-0.026 0.025,-0.026 0.004,0 0.008,0.001 0.011,0.002zm0.565 0.257l-0.55 -0.197 0 1.759 0.55 0 0 -1.562z"/>
    <path class="fil2" d="M2.18 0.816c0,0.014 -0.012,0.026 -0.026,0.026 -0.014,0 -0.025,-0.012 -0.025,-0.026l0 -0.642c0,-0.014 0.011,-0.025 0.025,-0.025l1.137 -0.114c0.014,-0.001 0.027,0.009 0.028,0.023 0.001,0.014 -0.009,0.027 -0.023,0.028l-1.116 0.111 0 0.619z"/>
    <polygon class="fil1" points="3.294,0.061 3.774,0.233 3.774,2.616 3.294,2.616 "/>
    <path class="fil2" d="M3.305 0.038l0.477 0.171c0.011,0.004 0.017,0.013 0.017,0.024l0 2.383c0,0.014 -0.011,0.025 -0.025,0.025l-0.48 0c-0.014,0 -0.026,-0.011 -0.026,-0.025l0 -2.555c0,-0.014 0.012,-0.026 0.026,-0.026 0.004,0 0.007,0.001 0.011,0.003zm0.443 0.213l-0.429 -0.154 0 2.493 0.429 0 0 -2.339z"/>
   </g>
  </g>
 </g>
</svg>
