<?xml version="1.0" encoding="UTF-8"?>
<!DOCTYPE svg PUBLIC "-//W3C//DTD SVG 1.1//EN" "http://www.w3.org/Graphics/SVG/1.1/DTD/svg11.dtd">
<!-- Creator: CorelDRAW 2019 (64-Bit) -->
<svg xmlns="http://www.w3.org/2000/svg" xml:space="preserve" width="90px" height="52px" version="1.1" style="shape-rendering:geometricPrecision; text-rendering:geometricPrecision; image-rendering:optimizeQuality; fill-rule:evenodd; clip-rule:evenodd"
viewBox="0 0 5.518 3.188"
 xmlns:xlink="http://www.w3.org/1999/xlink">
 <defs>
  <style type="text/css">
   <![CDATA[
    .fil0 {fill:none}
    .fil3 {fill:#00F4FF}
    .fil4 {fill:white}
    .fil1 {fill:white}
    .fil2 {fill:gray;fill-rule:nonzero}
   ]]>
  </style>
 </defs>
 <g id="Layer_x0020_1">
  <metadata id="CorelCorpID_0Corel-Layer"/>
  <g id="_3018863253408">
   <rect class="fil0" width="5.518" height="3.188"/>
   <g>
    <polygon class="fil1" points="2.759,0.252 3.34,0.588 3.921,0.923 3.921,1.594 3.921,2.265 3.34,2.6 2.759,2.936 2.178,2.6 1.597,2.265 1.597,1.594 1.597,0.923 2.178,0.588 "/>
    <path class="fil2" d="M2.728 0.612c0,-0.017 0.014,-0.031 0.031,-0.031 0.017,0 0.031,0.014 0.031,0.031l0 0.344c0,0.017 -0.014,0.031 -0.031,0.031 -0.017,0 -0.031,-0.014 -0.031,-0.031l0 -0.344z"/>
    <path class="fil2" d="M1.893 1.129c-0.015,-0.008 -0.02,-0.027 -0.011,-0.041 0.008,-0.015 0.027,-0.02 0.042,-0.012l0.298 0.173c0.015,0.008 0.02,0.027 0.011,0.042 -0.008,0.014 -0.027,0.019 -0.042,0.011l-0.298 -0.173z"/>
    <path class="fil2" d="M1.567 1.115c0,-0.017 0.013,-0.031 0.03,-0.031 0.017,0 0.031,0.014 0.031,0.031l0 0.773c0,0.017 -0.014,0.031 -0.031,0.031 -0.017,0 -0.03,-0.014 -0.03,-0.031l0 -0.773z"/>
    <path class="fil2" d="M1.739 2.382c-0.015,-0.009 -0.02,-0.027 -0.011,-0.042 0.008,-0.014 0.027,-0.019 0.042,-0.011l0.669 0.387c0.015,0.008 0.02,0.027 0.011,0.041 -0.008,0.015 -0.027,0.02 -0.041,0.012l-0.67 -0.387z"/>
    <path class="fil2" d="M2.94 2.866c-0.014,0.009 -0.033,0.004 -0.042,-0.011 -0.008,-0.014 -0.003,-0.033 0.011,-0.042l0.67 -0.386c0.015,-0.009 0.033,-0.004 0.042,0.011 0.008,0.014 0.003,0.033 -0.011,0.042l-0.67 0.386z"/>
    <path class="fil2" d="M3.951 2.073c0,0.017 -0.013,0.031 -0.03,0.031 -0.017,0 -0.031,-0.014 -0.031,-0.031l0 -0.773c0,-0.017 0.014,-0.03 0.031,-0.03 0.017,0 0.03,0.013 0.03,0.03l0 0.773z"/>
    <path class="fil2" d="M3.779 0.806c0.015,0.009 0.02,0.027 0.011,0.042 -0.008,0.015 -0.027,0.02 -0.042,0.011l-0.669 -0.386c-0.015,-0.009 -0.02,-0.028 -0.011,-0.042 0.008,-0.015 0.027,-0.02 0.041,-0.011l0.67 0.386z"/>
    <path class="fil2" d="M2.578 0.322c0.015,-0.009 0.033,-0.004 0.042,0.011 0.008,0.015 0.003,0.033 -0.011,0.042l-0.67 0.386c-0.015,0.009 -0.033,0.004 -0.042,-0.011 -0.008,-0.014 -0.003,-0.033 0.011,-0.041l0.67 -0.387z"/>
    <path class="fil2" d="M1.924 2.112c-0.015,0.008 -0.034,0.003 -0.042,-0.011 -0.009,-0.015 -0.004,-0.034 0.011,-0.042l0.298 -0.172c0.015,-0.009 0.034,-0.004 0.042,0.011 0.009,0.014 0.004,0.033 -0.011,0.041l-0.298 0.173z"/>
    <path class="fil2" d="M2.79 2.577c0,0.016 -0.014,0.03 -0.031,0.03 -0.017,0 -0.031,-0.014 -0.031,-0.03l0 -0.345c0,-0.017 0.014,-0.031 0.031,-0.031 0.017,0 0.031,0.014 0.031,0.031l0 0.345z"/>
    <path class="fil2" d="M3.625 2.059c0.015,0.008 0.02,0.027 0.011,0.042 -0.008,0.014 -0.027,0.019 -0.041,0.011l-0.299 -0.173c-0.015,-0.008 -0.02,-0.027 -0.011,-0.041 0.008,-0.015 0.027,-0.02 0.042,-0.011l0.298 0.172z"/>
    <path class="fil2" d="M3.595 1.076c0.014,-0.008 0.033,-0.003 0.041,0.012 0.009,0.014 0.004,0.033 -0.011,0.041l-0.298 0.173c-0.015,0.008 -0.034,0.003 -0.042,-0.011 -0.009,-0.015 -0.004,-0.034 0.011,-0.042l0.299 -0.173z"/>
    <path class="fil3" d="M2.759 1.141c0.25,0 0.453,0.203 0.453,0.453 0,0.25 -0.203,0.453 -0.453,0.453 -0.25,0 -0.453,-0.203 -0.453,-0.453 0,-0.25 0.203,-0.453 0.453,-0.453z"/>
    <path class="fil2" d="M2.759 1.11c0.134,0 0.255,0.055 0.342,0.142 0.088,0.088 0.142,0.209 0.142,0.342 0,0.134 -0.054,0.255 -0.142,0.342 -0.087,0.088 -0.208,0.142 -0.342,0.142 -0.134,0 -0.254,-0.054 -0.342,-0.142 -0.087,-0.087 -0.142,-0.208 -0.142,-0.342 0,-0.133 0.055,-0.254 0.142,-0.342 0.088,-0.087 0.208,-0.142 0.342,-0.142zm0.299 0.185c-0.077,-0.076 -0.182,-0.123 -0.299,-0.123 -0.117,0 -0.222,0.047 -0.299,0.123 -0.076,0.077 -0.123,0.182 -0.123,0.299 0,0.117 0.047,0.222 0.123,0.299 0.077,0.076 0.182,0.123 0.299,0.123 0.117,0 0.222,-0.047 0.299,-0.123 0.076,-0.077 0.123,-0.182 0.123,-0.299 0,-0.117 -0.047,-0.222 -0.123,-0.299z"/>
    <path class="fil4" d="M1.597 0.732c0.106,0 0.192,0.086 0.192,0.191 0,0.106 -0.086,0.192 -0.192,0.192 -0.105,0 -0.191,-0.086 -0.191,-0.192 0,-0.105 0.086,-0.191 0.191,-0.191z"/>
    <path class="fil2" d="M1.597 0.701c0.061,0 0.117,0.025 0.157,0.065 0.04,0.041 0.065,0.096 0.065,0.157 0,0.061 -0.025,0.117 -0.065,0.157 -0.04,0.041 -0.096,0.065 -0.157,0.065 -0.061,0 -0.116,-0.024 -0.157,-0.065 -0.04,-0.04 -0.065,-0.096 -0.065,-0.157 0,-0.061 0.025,-0.116 0.065,-0.157 0.041,-0.04 0.096,-0.065 0.157,-0.065zm0.114 0.109c-0.029,-0.029 -0.069,-0.047 -0.114,-0.047 -0.044,0 -0.084,0.018 -0.113,0.047 -0.029,0.029 -0.047,0.069 -0.047,0.113 0,0.045 0.018,0.085 0.047,0.114 0.029,0.029 0.069,0.047 0.113,0.047 0.045,0 0.085,-0.018 0.114,-0.047 0.029,-0.029 0.047,-0.069 0.047,-0.114 0,-0.044 -0.018,-0.084 -0.047,-0.113z"/>
    <path class="fil4" d="M1.597 2.055c0.106,0 0.192,0.085 0.192,0.191 0,0.106 -0.086,0.191 -0.192,0.191 -0.105,0 -0.191,-0.085 -0.191,-0.191 0,-0.106 0.086,-0.191 0.191,-0.191z"/>
    <path class="fil2" d="M1.597 2.024c0.061,0 0.117,0.025 0.157,0.065 0.04,0.04 0.065,0.096 0.065,0.157 0,0.061 -0.025,0.117 -0.065,0.157 -0.04,0.04 -0.096,0.065 -0.157,0.065 -0.061,0 -0.116,-0.025 -0.157,-0.065 -0.04,-0.04 -0.065,-0.096 -0.065,-0.157 0,-0.061 0.025,-0.117 0.065,-0.157 0.041,-0.04 0.096,-0.065 0.157,-0.065zm0.114 0.108c-0.029,-0.029 -0.069,-0.047 -0.114,-0.047 -0.044,0 -0.084,0.018 -0.113,0.047 -0.029,0.029 -0.047,0.07 -0.047,0.114 0,0.045 0.018,0.085 0.047,0.114 0.029,0.029 0.069,0.047 0.113,0.047 0.045,0 0.085,-0.018 0.114,-0.047 0.029,-0.029 0.047,-0.069 0.047,-0.114 0,-0.044 -0.018,-0.085 -0.047,-0.114z"/>
    <path class="fil4" d="M2.759 2.744c0.106,0 0.191,0.086 0.191,0.192 0,0.105 -0.085,0.191 -0.191,0.191 -0.106,0 -0.191,-0.086 -0.191,-0.191 0,-0.106 0.085,-0.192 0.191,-0.192z"/>
    <path class="fil2" d="M2.759 2.714c0.061,0 0.117,0.024 0.157,0.065 0.04,0.04 0.065,0.095 0.065,0.157 0,0.061 -0.025,0.116 -0.065,0.157 -0.04,0.04 -0.096,0.065 -0.157,0.065 -0.061,0 -0.117,-0.025 -0.157,-0.066 -0.04,-0.04 -0.065,-0.095 -0.065,-0.156 0,-0.062 0.025,-0.117 0.065,-0.157 0.04,-0.041 0.096,-0.065 0.157,-0.065zm0.114 0.108c-0.029,-0.029 -0.069,-0.047 -0.114,-0.047 -0.044,0 -0.085,0.018 -0.114,0.047 -0.029,0.029 -0.047,0.069 -0.047,0.114 0,0.044 0.018,0.084 0.047,0.113 0.029,0.029 0.07,0.047 0.114,0.047 0.045,0 0.085,-0.018 0.114,-0.047 0.029,-0.029 0.047,-0.069 0.047,-0.113 0,-0.045 -0.018,-0.085 -0.047,-0.114z"/>
    <path class="fil4" d="M3.921 2.073c0.105,0 0.191,0.086 0.191,0.192 0,0.106 -0.086,0.191 -0.191,0.191 -0.106,0 -0.192,-0.085 -0.192,-0.191 0,-0.106 0.086,-0.192 0.192,-0.192z"/>
    <path class="fil2" d="M3.921 2.043c0.061,0 0.116,0.025 0.157,0.065 0.04,0.04 0.065,0.096 0.065,0.157 0,0.061 -0.025,0.117 -0.065,0.157 -0.041,0.04 -0.096,0.065 -0.157,0.065 -0.061,0 -0.117,-0.025 -0.157,-0.065 -0.04,-0.04 -0.065,-0.096 -0.065,-0.157 0,-0.061 0.025,-0.117 0.065,-0.157 0.04,-0.04 0.096,-0.065 0.157,-0.065zm0.113 0.108c-0.029,-0.029 -0.069,-0.047 -0.113,-0.047 -0.045,0 -0.085,0.018 -0.114,0.047 -0.029,0.029 -0.047,0.069 -0.047,0.114 0,0.044 0.018,0.084 0.047,0.113 0.029,0.03 0.069,0.048 0.114,0.048 0.044,0 0.084,-0.018 0.113,-0.047 0.029,-0.03 0.047,-0.07 0.047,-0.114 0,-0.045 -0.017,-0.085 -0.047,-0.114z"/>
    <path class="fil4" d="M3.921 0.732c0.105,0 0.191,0.086 0.191,0.191 0,0.106 -0.086,0.192 -0.191,0.192 -0.106,0 -0.192,-0.086 -0.192,-0.192 0,-0.105 0.086,-0.191 0.192,-0.191z"/>
    <path class="fil2" d="M3.921 0.701c0.061,0 0.116,0.025 0.157,0.065 0.04,0.041 0.065,0.096 0.065,0.157 0,0.061 -0.025,0.117 -0.065,0.157 -0.041,0.041 -0.096,0.065 -0.157,0.065 -0.061,0 -0.117,-0.024 -0.157,-0.065 -0.04,-0.04 -0.065,-0.096 -0.065,-0.157 0,-0.061 0.025,-0.116 0.065,-0.157 0.04,-0.04 0.096,-0.065 0.157,-0.065zm0.113 0.109c-0.029,-0.029 -0.069,-0.047 -0.113,-0.047 -0.045,0 -0.085,0.018 -0.114,0.047 -0.029,0.029 -0.047,0.069 -0.047,0.113 0,0.045 0.018,0.085 0.047,0.114 0.029,0.029 0.069,0.047 0.114,0.047 0.044,0 0.084,-0.018 0.113,-0.047 0.03,-0.029 0.047,-0.069 0.047,-0.114 0,-0.044 -0.018,-0.084 -0.047,-0.113z"/>
    <path class="fil4" d="M2.759 0.061c0.106,0 0.191,0.086 0.191,0.192 0,0.105 -0.085,0.191 -0.191,0.191 -0.106,0 -0.191,-0.086 -0.191,-0.191 0,-0.106 0.085,-0.192 0.191,-0.192z"/>
    <path class="fil2" d="M2.759 0.031c0.061,0 0.117,0.025 0.157,0.065 0.04,0.04 0.065,0.095 0.065,0.157 0,0.061 -0.025,0.116 -0.065,0.157 -0.04,0.04 -0.096,0.065 -0.157,0.065 -0.061,0 -0.117,-0.025 -0.157,-0.065 -0.04,-0.041 -0.065,-0.096 -0.065,-0.157 0,-0.062 0.025,-0.117 0.065,-0.157 0.04,-0.04 0.096,-0.065 0.157,-0.065zm0.114 0.108c-0.029,-0.029 -0.069,-0.047 -0.114,-0.047 -0.044,0 -0.085,0.018 -0.114,0.047 -0.029,0.029 -0.047,0.069 -0.047,0.114 0,0.044 0.018,0.084 0.047,0.113 0.029,0.029 0.07,0.047 0.114,0.047 0.045,0 0.085,-0.018 0.114,-0.047 0.029,-0.029 0.047,-0.069 0.047,-0.113 0,-0.045 -0.018,-0.085 -0.047,-0.114z"/>
   </g>
  </g>
 </g>
</svg>
