<?xml version="1.0" encoding="UTF-8"?>
<!DOCTYPE svg PUBLIC "-//W3C//DTD SVG 1.1//EN" "http://www.w3.org/Graphics/SVG/1.1/DTD/svg11.dtd">
<!-- Creator: CorelDRAW 2019 (64-Bit) -->
<svg xmlns="http://www.w3.org/2000/svg" xml:space="preserve" width="90px" height="52px" version="1.1" style="shape-rendering:geometricPrecision; text-rendering:geometricPrecision; image-rendering:optimizeQuality; fill-rule:evenodd; clip-rule:evenodd"
viewBox="0 0 5.557 3.211"
 xmlns:xlink="http://www.w3.org/1999/xlink">
 <defs>
  <style type="text/css">
   <![CDATA[
    .fil0 {fill:none}
    .fil1 {fill:white}
    .fil3 {fill:#00F4FF;fill-rule:nonzero}
    .fil2 {fill:gray;fill-rule:nonzero}
   ]]>
  </style>
 </defs>
 <g id="Layer_x0020_1">
  <metadata id="CorelCorpID_0Corel-Layer"/>
  <g id="_3018845198112">
   <rect class="fil0" width="5.557" height="3.211"/>
   <g>
    <path class="fil1" d="M1.46 0.309l2.87 0c0.061,0 0.11,0.049 0.11,0.11l0 1.862c0,0.06 -0.049,0.11 -0.11,0.11l-2.87 0c-0.061,0 -0.111,-0.05 -0.111,-0.11l0 -1.862c0,-0.061 0.05,-0.11 0.111,-0.11z"/>
    <path class="fil2" d="M1.46 0.278l2.87 0c0.039,0 0.074,0.016 0.1,0.041 0.025,0.026 0.041,0.061 0.041,0.1l0 1.862c0,0.039 -0.016,0.074 -0.041,0.099 -0.026,0.026 -0.061,0.042 -0.1,0.042l-2.87 0c-0.039,0 -0.075,-0.016 -0.1,-0.042 -0.026,-0.025 -0.042,-0.06 -0.042,-0.099l0 -1.862c0,-0.039 0.016,-0.074 0.042,-0.1 0.025,-0.025 0.061,-0.041 0.1,-0.041zm2.87 0.062l-2.87 0c-0.022,0 -0.042,0.009 -0.056,0.023 -0.015,0.014 -0.024,0.034 -0.024,0.056l0 1.862c0,0.021 0.009,0.041 0.024,0.056 0.014,0.014 0.034,0.023 0.056,0.023l2.87 0c0.022,0 0.042,-0.009 0.056,-0.023 0.015,-0.015 0.024,-0.035 0.024,-0.056l0 -1.862c0,-0.022 -0.009,-0.042 -0.024,-0.056 -0.014,-0.014 -0.034,-0.023 -0.056,-0.023z"/>
    <polygon class="fil1" points="2.455,2.853 3.335,2.853 3.335,2.391 2.455,2.391 "/>
    <path class="fil2" d="M2.486 2.822l0.818 0 0 -0.4 -0.818 0 0 0.4zm0.849 0.061l-0.911 0 0 -0.523 0.942 0 0 0.523 -0.031 0z"/>
    <polygon class="fil1" points="4.751,2.616 4.779,2.629 4.81,2.894 5.143,2.9 5.175,2.629 5.216,2.615 5.227,2.501 4.73,2.501 "/>
    <path class="fil2" d="M0.12 2.883c-0.017,0 -0.031,-0.013 -0.031,-0.03 0,-0.017 0.014,-0.031 0.031,-0.031l0.741 0c0.017,0 0.031,0.014 0.031,0.031 0,0.017 -0.014,0.03 -0.031,0.03l-0.741 0z"/>
    <path class="fil3" d="M1.014 1.761l-0.213 0.123c-0.139,0.08 -0.15,0.321 -0.026,0.536l0.016 0.028 0.716 -0.414 -0.015 -0.028c-0.124,-0.215 -0.339,-0.325 -0.478,-0.245z"/>
    <path class="fil2" d="M1.027 1.789l-0.211 0.121c-0.059,0.035 -0.092,0.106 -0.096,0.193 -0.004,0.092 0.022,0.2 0.081,0.302l0.001 0.001 0.663 -0.384 0 -0.001c-0.059,-0.102 -0.139,-0.179 -0.221,-0.221 -0.076,-0.039 -0.153,-0.047 -0.212,-0.014 -0.002,0.001 -0.004,0.002 -0.005,0.003zm-0.241 0.068l0.213 -0.123c0.079,-0.045 0.178,-0.038 0.273,0.012 0.092,0.047 0.181,0.132 0.246,0.245l0.016 0.027c0.009,0.015 0.003,0.034 -0.011,0.042l-0.717 0.414c-0.015,0.009 -0.034,0.004 -0.042,-0.011l-0.016 -0.027c-0.065,-0.113 -0.094,-0.233 -0.089,-0.336 0.005,-0.108 0.048,-0.197 0.127,-0.243z"/>
    <path class="fil3" d="M1.052 1.716c-0.078,-0.135 -0.19,-0.217 -0.25,-0.182l-0.092 0.053c-0.059,0.034 -0.045,0.173 0.033,0.307l0.01 0.018 0.309 -0.179 -0.01 -0.017z"/>
    <path class="fil2" d="M1.02 1.722c-0.036,-0.059 -0.078,-0.107 -0.118,-0.136 -0.035,-0.025 -0.066,-0.036 -0.085,-0.026l-0.091 0.053c-0.019,0.011 -0.025,0.043 -0.02,0.087 0.005,0.049 0.025,0.109 0.059,0.169l0.255 -0.147zm-0.082 -0.185c0.049,0.035 0.1,0.093 0.141,0.164l0.01 0.017c0.008,0.015 0.003,0.034 -0.012,0.042l-0.308 0.178c-0.015,0.009 -0.034,0.004 -0.042,-0.011l-0.01 -0.017c-0.041,-0.072 -0.066,-0.144 -0.072,-0.204 -0.008,-0.068 0.009,-0.122 0.05,-0.146l0.092 -0.053c0.041,-0.024 0.096,-0.011 0.151,0.03z"/>
    <path class="fil3" d="M0.21 1.988c-0.069,0 -0.125,0.056 -0.125,0.125 0,0.069 0.056,0.125 0.125,0.125 0.069,0 0.125,-0.056 0.125,-0.125 0,-0.069 -0.056,-0.125 -0.125,-0.125z"/>
    <path class="fil2" d="M0.21 2.019c-0.026,0 -0.05,0.011 -0.067,0.028 -0.017,0.017 -0.027,0.04 -0.027,0.066 0,0.026 0.01,0.05 0.027,0.067 0.017,0.017 0.041,0.027 0.067,0.027 0.026,0 0.049,-0.01 0.066,-0.027l0.002 -0.001c0.016,-0.017 0.026,-0.04 0.026,-0.066 0,-0.026 -0.011,-0.049 -0.027,-0.066 -0.018,-0.017 -0.041,-0.028 -0.067,-0.028zm-0.11 -0.016c0.028,-0.028 0.067,-0.046 0.11,-0.046 0.043,0 0.082,0.018 0.11,0.046l0 0c0.028,0.029 0.046,0.067 0.046,0.11 0,0.042 -0.017,0.081 -0.044,0.109l-0.002 0.002c-0.028,0.028 -0.067,0.045 -0.11,0.045 -0.043,0 -0.082,-0.017 -0.11,-0.045 -0.029,-0.029 -0.046,-0.068 -0.046,-0.111 0,-0.043 0.017,-0.082 0.046,-0.11z"/>
    <path class="fil2" d="M0.678 1.76c0.015,-0.009 0.034,-0.004 0.043,0.01 0.008,0.015 0.004,0.034 -0.011,0.042l-0.396 0.239c-0.014,0.009 -0.033,0.004 -0.042,-0.01 -0.009,-0.015 -0.004,-0.034 0.01,-0.042l0.396 -0.239z"/>
    <path class="fil2" d="M0.246 2.245c-0.006,-0.016 0.002,-0.034 0.018,-0.04 0.016,-0.006 0.034,0.002 0.04,0.018l0.232 0.619c0.006,0.016 -0.002,0.033 -0.018,0.039 -0.016,0.006 -0.033,-0.002 -0.039,-0.018l-0.233 -0.618z"/>
    <path class="fil2" d="M2.225 2.883c-0.017,0 -0.031,-0.013 -0.031,-0.03 0,-0.017 0.014,-0.031 0.031,-0.031l1.34 0c0.017,0 0.031,0.014 0.031,0.031 0,0.017 -0.014,0.03 -0.031,0.03l-1.34 0z"/>
    <path class="fil2" d="M4.748 2.632c-0.001,-0.017 0.011,-0.032 0.028,-0.034 0.017,-0.001 0.032,0.011 0.034,0.028l0.023 0.257c0.001,0.017 -0.011,0.032 -0.028,0.034 -0.017,0.001 -0.032,-0.011 -0.033,-0.028l-0.024 -0.257z"/>
    <path class="fil2" d="M4.772 2.889c-0.002,-0.017 0.011,-0.032 0.027,-0.033 0.014,-0.002 0.026,0.006 0.031,0.018 0.011,0.005 0.019,0.015 0.019,0.028 0,0.017 -0.014,0.031 -0.031,0.031 -0.013,0 -0.024,-0.005 -0.032,-0.014 -0.008,-0.008 -0.013,-0.018 -0.014,-0.03z"/>
    <path class="fil2" d="M4.818 2.933c-0.017,0 -0.031,-0.014 -0.031,-0.031 0,-0.017 0.014,-0.031 0.031,-0.031l0.318 0c0.017,0 0.031,0.014 0.031,0.031 0,0.017 -0.014,0.031 -0.031,0.031l-0.318 0z"/>
    <path class="fil2" d="M5.136 2.933c-0.017,0 -0.031,-0.014 -0.031,-0.031 0,-0.013 0.008,-0.023 0.019,-0.028 0.005,-0.012 0.017,-0.02 0.031,-0.018 0.017,0.001 0.029,0.016 0.028,0.033 -0.001,0.01 -0.005,0.02 -0.012,0.027l-0.002 0.003c-0.009,0.009 -0.02,0.014 -0.033,0.014z"/>
    <path class="fil2" d="M5.183 2.889c-0.002,0.017 -0.017,0.029 -0.034,0.028 -0.017,-0.002 -0.029,-0.017 -0.028,-0.034l0.024 -0.257c0.001,-0.017 0.016,-0.029 0.033,-0.028 0.017,0.002 0.029,0.017 0.028,0.034l-0.023 0.257z"/>
    <path class="fil2" d="M5.216 2.47c0.017,0 0.031,0.013 0.031,0.031 0,0.017 -0.014,0.03 -0.031,0.03l-0.478 0c-0.017,0 -0.031,-0.013 -0.031,-0.03 0,-0.018 0.014,-0.031 0.031,-0.031l0.478 0z"/>
    <path class="fil2" d="M4.737 2.47c0.017,-0.001 0.031,0.012 0.032,0.029 0.001,0.013 -0.007,0.025 -0.018,0.03 -0.005,0.01 -0.015,0.018 -0.027,0.018 -0.017,0.001 -0.031,-0.011 -0.032,-0.028l-0.001 -0.004c0,-0.012 0.006,-0.023 0.014,-0.032 0.007,-0.007 0.017,-0.012 0.028,-0.013l0.004 0z"/>
    <path class="fil2" d="M4.692 2.52c-0.002,-0.017 0.01,-0.032 0.027,-0.034 0.017,-0.002 0.032,0.01 0.034,0.027l0.009 0.085c0.002,0.017 -0.01,0.032 -0.027,0.034 -0.017,0.002 -0.032,-0.01 -0.034,-0.027l-0.009 -0.085z"/>
    <path class="fil2" d="M4.701 2.605c-0.002,-0.017 0.011,-0.032 0.027,-0.034 0.014,-0.001 0.027,0.006 0.032,0.018 0.011,0.005 0.019,0.016 0.019,0.029 0,0.017 -0.014,0.03 -0.031,0.03 -0.013,0 -0.025,-0.005 -0.033,-0.013 -0.008,-0.008 -0.013,-0.019 -0.014,-0.03z"/>
    <path class="fil2" d="M4.748 2.648c-0.017,0 -0.031,-0.013 -0.031,-0.03 0,-0.017 0.014,-0.031 0.031,-0.031l0.459 0c0.017,0 0.03,0.014 0.03,0.031 0,0.017 -0.013,0.03 -0.03,0.03l-0.459 0z"/>
    <path class="fil2" d="M5.207 2.648c-0.018,0 -0.031,-0.013 -0.031,-0.03 0,-0.013 0.007,-0.024 0.018,-0.029 0.006,-0.012 0.018,-0.019 0.032,-0.018 0.017,0.002 0.029,0.017 0.027,0.034 -0.001,0.011 -0.006,0.022 -0.014,0.03 -0.008,0.008 -0.02,0.013 -0.032,0.013z"/>
    <path class="fil2" d="M5.253 2.605c-0.002,0.017 -0.017,0.029 -0.034,0.027 -0.017,-0.002 -0.029,-0.017 -0.027,-0.034l0.009 -0.085c0.002,-0.017 0.017,-0.029 0.034,-0.027 0.017,0.002 0.029,0.017 0.027,0.034l-0.009 0.085z"/>
    <path class="fil2" d="M5.263 2.518c-0.001,0.017 -0.016,0.03 -0.033,0.029 -0.012,0 -0.022,-0.008 -0.026,-0.018 -0.012,-0.005 -0.02,-0.017 -0.019,-0.03 0.001,-0.017 0.016,-0.03 0.033,-0.029l0.003 0c0.011,0.001 0.021,0.006 0.028,0.013 0.008,0.008 0.014,0.02 0.014,0.032l0 0.003z"/>
    <path class="fil3" d="M5.138 2.499c0.055,-0.049 0.091,-0.123 0.094,-0.206 0.076,0 0.158,-0.054 0.185,-0.121 0.027,-0.068 -0.011,-0.122 -0.086,-0.122 -0.053,0 -0.111,0.028 -0.149,0.069 -0.045,-0.067 -0.118,-0.11 -0.199,-0.11 -0.138,0 -0.249,0.123 -0.249,0.275 0,0.085 0.034,0.161 0.089,0.211l0.011 0.006 0.304 -0.002z"/>
    <path class="fil2" d="M5.126 2.468c0.021,-0.02 0.039,-0.045 0.052,-0.073 0.014,-0.031 0.022,-0.066 0.024,-0.103 0,-0.017 0.014,-0.03 0.03,-0.03 0.032,0 0.065,-0.011 0.094,-0.03 0.028,-0.019 0.052,-0.044 0.063,-0.072 0.004,-0.011 0.006,-0.021 0.006,-0.03 0,-0.01 -0.003,-0.019 -0.007,-0.026 -0.005,-0.007 -0.013,-0.013 -0.023,-0.017 -0.009,-0.004 -0.02,-0.006 -0.034,-0.006 -0.021,0 -0.044,0.006 -0.066,0.016l-0.001 0c-0.023,0.011 -0.043,0.025 -0.06,0.043 -0.011,0.012 -0.031,0.013 -0.043,0.001 -0.002,-0.001 -0.003,-0.003 -0.004,-0.005 -0.021,-0.03 -0.047,-0.055 -0.078,-0.071 -0.029,-0.016 -0.062,-0.025 -0.096,-0.025 -0.06,0 -0.114,0.027 -0.154,0.07 -0.04,0.044 -0.064,0.106 -0.064,0.174 0,0.038 0.007,0.073 0.02,0.105 0.014,0.031 0.033,0.058 0.056,0.081l0.285 -0.002zm0.108 -0.048c-0.019,0.04 -0.044,0.075 -0.075,0.102 -0.006,0.005 -0.013,0.008 -0.021,0.008l-0.304 0.001c-0.005,0 -0.009,-0.001 -0.014,-0.003l-0.009 -0.004c-0.003,-0.002 -0.006,-0.003 -0.009,-0.006 -0.031,-0.029 -0.056,-0.065 -0.073,-0.106 -0.017,-0.039 -0.026,-0.082 -0.026,-0.128 0,-0.084 0.031,-0.16 0.081,-0.215 0.051,-0.056 0.121,-0.091 0.199,-0.091 0.045,0 0.088,0.012 0.126,0.033 0.029,0.016 0.055,0.037 0.077,0.062 0.016,-0.012 0.033,-0.023 0.052,-0.032l0.001 0c0.03,-0.014 0.062,-0.022 0.092,-0.022 0.022,0 0.041,0.004 0.057,0.011 0.022,0.008 0.039,0.022 0.05,0.039 0.012,0.018 0.019,0.038 0.019,0.061 0,0.017 -0.004,0.035 -0.011,0.053 -0.016,0.039 -0.048,0.075 -0.086,0.1 -0.03,0.02 -0.065,0.034 -0.099,0.039 -0.004,0.035 -0.014,0.068 -0.027,0.098z"/>
    <path class="fil2" d="M5.231 2.324c-0.017,0 -0.03,-0.014 -0.03,-0.031 0,-0.017 0.014,-0.031 0.031,-0.031l0.002 0c0.017,0 0.03,0.014 0.03,0.031 0,0.017 -0.014,0.031 -0.031,0.031l-0.002 0z"/>
    <path class="fil2" d="M4.823 2.009c-0.009,-0.014 -0.006,-0.033 0.009,-0.042 0.014,-0.01 0.033,-0.006 0.042,0.008l0.021 0.031c0.009,0.015 0.005,0.034 -0.009,0.043 -0.014,0.009 -0.033,0.005 -0.042,-0.009l-0.021 -0.031z"/>
    <path class="fil2" d="M4.673 2.218c-0.016,-0.005 -0.026,-0.022 -0.022,-0.038 0.005,-0.017 0.022,-0.026 0.038,-0.022l0.038 0.01c0.016,0.005 0.026,0.022 0.022,0.038 -0.005,0.016 -0.022,0.026 -0.038,0.022l-0.038 -0.01z"/>
    <path class="fil2" d="M4.724 2.099c-0.015,-0.01 -0.019,-0.029 -0.01,-0.043 0.01,-0.014 0.029,-0.019 0.043,-0.009l0.032 0.02c0.014,0.01 0.019,0.029 0.009,0.043 -0.009,0.014 -0.028,0.019 -0.042,0.009l-0.032 -0.02z"/>
    <path class="fil2" d="M4.68 2.342c-0.017,0.002 -0.032,-0.01 -0.035,-0.027 -0.002,-0.017 0.01,-0.032 0.027,-0.035l0.039 -0.005c0.016,-0.002 0.032,0.01 0.034,0.026 0.003,0.017 -0.009,0.033 -0.026,0.035l-0.039 0.006z"/>
    <path class="fil2" d="M4.72 2.456c-0.015,0.007 -0.034,0.002 -0.042,-0.013 -0.007,-0.015 -0.002,-0.034 0.013,-0.042l0.034 -0.018c0.015,-0.008 0.034,-0.002 0.042,0.013 0.008,0.015 0.002,0.034 -0.013,0.041l-0.034 0.019z"/>
    <path class="fil2" d="M5.099 1.976c0.009,-0.014 0.029,-0.018 0.043,-0.008 0.014,0.009 0.018,0.028 0.008,0.042l-0.02 0.031c-0.009,0.015 -0.029,0.018 -0.043,0.009 -0.014,-0.009 -0.018,-0.028 -0.008,-0.043l0.02 -0.031z"/>
    <path class="fil2" d="M5.438 2.031c0.014,-0.009 0.033,-0.005 0.043,0.009 0.009,0.014 0.005,0.034 -0.01,0.043l-0.214 0.138c-0.014,0.009 -0.033,0.005 -0.042,-0.009 -0.009,-0.015 -0.005,-0.034 0.009,-0.043l0.214 -0.138z"/>
    <path class="fil2" d="M5.277 2.386c0.015,0.006 0.023,0.024 0.016,0.04 -0.007,0.016 -0.025,0.023 -0.04,0.016l-0.036 -0.015c-0.016,-0.007 -0.023,-0.025 -0.016,-0.04 0.006,-0.016 0.024,-0.023 0.04,-0.017l0.036 0.016z"/>
    <path class="fil2" d="M5.324 1.991c0.004,-0.017 0.021,-0.027 0.037,-0.022 0.017,0.004 0.027,0.02 0.023,0.037l-0.009 0.035c-0.004,0.017 -0.021,0.027 -0.038,0.023 -0.016,-0.005 -0.026,-0.021 -0.022,-0.038l0.009 -0.035z"/>
    <path class="fil2" d="M5.207 2.041c-0.01,-0.014 -0.006,-0.034 0.008,-0.043 0.015,-0.009 0.034,-0.005 0.043,0.009l0.021 0.031c0.009,0.014 0.005,0.033 -0.009,0.042 -0.014,0.01 -0.033,0.006 -0.043,-0.008l-0.02 -0.031z"/>
    <path class="fil2" d="M5.481 2.159c0.017,0.004 0.026,0.022 0.021,0.038 -0.005,0.016 -0.022,0.025 -0.038,0.02l-0.038 -0.011c-0.016,-0.005 -0.025,-0.022 -0.02,-0.038 0.005,-0.017 0.022,-0.026 0.038,-0.021l0.037 0.012z"/>
    <path class="fil2" d="M5.356 2.268c-0.01,-0.014 -0.006,-0.033 0.008,-0.043 0.015,-0.009 0.034,-0.005 0.043,0.009l0.021 0.031c0.009,0.014 0.005,0.033 -0.009,0.042 -0.014,0.01 -0.033,0.006 -0.043,-0.008l-0.02 -0.031z"/>
    <path class="fil2" d="M5.263 2.308c-0.003,-0.017 0.007,-0.033 0.023,-0.037 0.017,-0.004 0.034,0.007 0.037,0.023l0.009 0.036c0.003,0.016 -0.007,0.033 -0.024,0.037 -0.016,0.003 -0.033,-0.007 -0.037,-0.024l-0.008 -0.035z"/>
    <path class="fil2" d="M5.164 2.144c-0.014,-0.01 -0.017,-0.03 -0.007,-0.043 0.01,-0.014 0.029,-0.017 0.043,-0.007 0.013,0.009 0.029,0.037 0.041,0.079 0.008,0.03 0.016,0.069 0.021,0.117 0.002,0.017 -0.01,0.032 -0.027,0.034 -0.017,0.001 -0.032,-0.011 -0.034,-0.028 -0.005,-0.043 -0.012,-0.079 -0.02,-0.106 -0.008,-0.029 -0.014,-0.044 -0.017,-0.046z"/>
    <path class="fil3" d="M5.031 2.5c0.029,-0.042 0.049,-0.124 0.049,-0.217 0,-0.138 -0.043,-0.25 -0.096,-0.25 -0.053,0 -0.096,0.112 -0.096,0.25 0,0.087 0.017,0.164 0.043,0.208l0.002 0.009 0.098 0z"/>
    <path class="fil2" d="M5.014 2.47c0.009,-0.018 0.017,-0.041 0.023,-0.068 0.008,-0.034 0.012,-0.075 0.012,-0.119 0,-0.065 -0.01,-0.124 -0.026,-0.165 -0.013,-0.033 -0.027,-0.054 -0.039,-0.054 -0.013,0 -0.027,0.021 -0.039,0.054 -0.017,0.041 -0.026,0.1 -0.026,0.165 0,0.041 0.003,0.079 0.01,0.112 0.006,0.03 0.015,0.055 0.025,0.075l0.06 0zm0.083 -0.055c-0.009,0.041 -0.023,0.076 -0.039,0.101 -0.005,0.009 -0.015,0.015 -0.027,0.015l-0.098 0c-0.013,0 -0.025,-0.008 -0.029,-0.021l-0.002 -0.006c-0.014,-0.026 -0.025,-0.059 -0.033,-0.097 -0.008,-0.037 -0.012,-0.079 -0.012,-0.124 0,-0.072 0.011,-0.139 0.03,-0.187 0.022,-0.058 0.056,-0.094 0.097,-0.094 0.04,0 0.074,0.036 0.096,0.094 0.019,0.048 0.031,0.115 0.031,0.187 0,0.048 -0.005,0.093 -0.014,0.132z"/>
    <path class="fil2" d="M4.229 1.808c0,-0.017 0.014,-0.031 0.031,-0.031 0.017,0 0.031,0.014 0.031,0.031l0 0.308c0,0.034 -0.014,0.066 -0.037,0.088 -0.023,0.023 -0.054,0.037 -0.089,0.037l-0.619 0c-0.017,0 -0.031,-0.013 -0.031,-0.031 0,-0.017 0.014,-0.03 0.031,-0.03l0.619 0c0.018,0 0.034,-0.008 0.045,-0.019 0.012,-0.012 0.019,-0.028 0.019,-0.045l0 -0.308z"/>
    <path class="fil2" d="M1.561 0.783c0,0.018 -0.014,0.031 -0.031,0.031 -0.017,0 -0.031,-0.013 -0.031,-0.031l0 -0.199c0,-0.034 0.014,-0.066 0.037,-0.089 0.023,-0.022 0.054,-0.037 0.089,-0.037l0.384 0c0.017,0 0.03,0.014 0.03,0.031 0,0.017 -0.013,0.031 -0.03,0.031l-0.384 0c-0.018,0 -0.034,0.007 -0.045,0.019 -0.012,0.012 -0.019,0.028 -0.019,0.045l0 0.199z"/>
   </g>
  </g>
 </g>
</svg>
