<?xml version="1.0" encoding="UTF-8"?>
<!DOCTYPE svg PUBLIC "-//W3C//DTD SVG 1.1//EN" "http://www.w3.org/Graphics/SVG/1.1/DTD/svg11.dtd">
<!-- Creator: CorelDRAW 2019 (64-Bit) -->
<svg xmlns="http://www.w3.org/2000/svg" xml:space="preserve" width="90px" height="52px" version="1.1" style="shape-rendering:geometricPrecision; text-rendering:geometricPrecision; image-rendering:optimizeQuality; fill-rule:evenodd; clip-rule:evenodd"
viewBox="0 0 7.08 4.091"
 xmlns:xlink="http://www.w3.org/1999/xlink">
 <defs>
  <style type="text/css">
   <![CDATA[
    .fil0 {fill:none}
    .fil1 {fill:white}
    .fil3 {fill:#00F4FF;fill-rule:nonzero}
    .fil2 {fill:gray;fill-rule:nonzero}
    .fil4 {fill:white;fill-rule:nonzero}
   ]]>
  </style>
 </defs>
 <g id="Layer_x0020_1">
  <metadata id="CorelCorpID_0Corel-Layer"/>
  <g id="_3018713392112">
   <rect class="fil0" width="7.08" height="4.091"/>
   <g>
    <path class="fil1" d="M5.342 1.608l0 1.965c0,0.068 -0.056,0.124 -0.124,0.124l-3.355 0c-0.069,0 -0.125,-0.056 -0.125,-0.124l0 -1.965 3.604 0z"/>
    <path class="fil2" d="M5.381 1.608l0 1.965c0,0.045 -0.018,0.086 -0.048,0.116 -0.03,0.029 -0.071,0.048 -0.115,0.048l-3.355 0c-0.045,0 -0.086,-0.019 -0.116,-0.048 -0.03,-0.03 -0.048,-0.071 -0.048,-0.116l0 -1.965c0,-0.022 0.018,-0.04 0.039,-0.04l3.604 0c0.022,0 0.039,0.018 0.039,0.04zm-0.078 1.965l0 -1.926 -3.525 0 0 1.926c0,0.023 0.009,0.045 0.025,0.06 0.015,0.016 0.036,0.025 0.06,0.025l3.355 0c0.023,0 0.044,-0.01 0.06,-0.025 0.015,-0.015 0.025,-0.037 0.025,-0.06z"/>
    <path class="fil2" d="M2.853 2.188c0,-0.021 0.017,-0.039 0.039,-0.039 0.022,0 0.039,0.018 0.039,0.039l0 1.496c0,0.022 -0.017,0.04 -0.039,0.04 -0.022,0 -0.039,-0.018 -0.039,-0.04l0 -1.496z"/>
    <path class="fil2" d="M2.556 2.844c-0.021,0 -0.039,-0.018 -0.039,-0.039 0,-0.022 0.018,-0.04 0.039,-0.04l0.112 0c0.022,0 0.04,0.018 0.04,0.04 0,0.021 -0.018,0.039 -0.04,0.039l-0.112 0z"/>
    <path class="fil2" d="M4.375 3.376c-0.015,0.016 -0.04,0.016 -0.055,0 -0.016,-0.015 -0.016,-0.04 0,-0.055l0.672 -0.672c0.015,-0.015 0.04,-0.015 0.055,0 0.015,0.015 0.015,0.04 0,0.056l-0.672 0.671z"/>
    <path class="fil2" d="M4.711 3.376c-0.015,0.015 -0.04,0.015 -0.055,0 -0.016,-0.016 -0.016,-0.041 0,-0.056l0.336 -0.336c0.015,-0.015 0.04,-0.015 0.055,0 0.015,0.016 0.015,0.04 0,0.056l-0.336 0.336z"/>
    <path class="fil3" d="M5.695 1.555c0,0.199 -0.161,0.359 -0.359,0.359 -0.199,0 -0.32,-0.136 -0.363,-0.348 0,0.199 -0.157,0.348 -0.355,0.348 -0.199,0 -0.36,-0.16 -0.36,-0.359 0,0.199 -0.16,0.359 -0.359,0.359 -0.198,0 -0.359,-0.16 -0.359,-0.359 0,0.199 -0.161,0.359 -0.359,0.359 -0.198,0 -0.359,-0.16 -0.359,-0.359 0,0.199 -0.161,0.359 -0.359,0.359 -0.198,0 -0.354,-0.147 -0.354,-0.345 -0.038,0.196 -0.166,0.345 -0.364,0.345 -0.199,0 -0.36,-0.16 -0.36,-0.359l0.381 -1.042c0.032,-0.085 0.075,-0.12 0.166,-0.12l3.216 0c0.091,0 0.135,0.035 0.166,0.12l0.381 1.042z"/>
    <path class="fil2" d="M5.734 1.555c0,0.11 -0.044,0.21 -0.116,0.282 -0.073,0.072 -0.172,0.117 -0.282,0.117 -0.107,0 -0.195,-0.037 -0.262,-0.101 -0.038,-0.036 -0.069,-0.081 -0.093,-0.133 -0.02,0.046 -0.048,0.087 -0.083,0.122 -0.071,0.07 -0.17,0.112 -0.28,0.112l-0.001 -0.001c-0.11,0 -0.209,-0.044 -0.281,-0.116 -0.032,-0.032 -0.058,-0.068 -0.078,-0.109 -0.019,0.041 -0.046,0.077 -0.077,0.109 -0.072,0.072 -0.171,0.116 -0.281,0.116l-0.001 0.001c-0.11,-0.001 -0.209,-0.045 -0.281,-0.117 -0.032,-0.032 -0.058,-0.068 -0.078,-0.109 -0.019,0.041 -0.046,0.078 -0.077,0.109l-0.003 0.002c-0.071,0.071 -0.17,0.114 -0.279,0.114l0 0.001c-0.11,-0.001 -0.21,-0.045 -0.282,-0.117 -0.031,-0.032 -0.058,-0.068 -0.077,-0.109 -0.02,0.041 -0.046,0.077 -0.077,0.109 -0.072,0.072 -0.172,0.116 -0.282,0.116l0 0.001c-0.11,-0.001 -0.208,-0.041 -0.279,-0.11 -0.036,-0.034 -0.064,-0.076 -0.084,-0.122 -0.024,0.049 -0.055,0.093 -0.093,0.129 -0.068,0.064 -0.156,0.103 -0.262,0.103 -0.11,0 -0.21,-0.045 -0.282,-0.117 -0.072,-0.072 -0.117,-0.172 -0.117,-0.282 0,-0.006 0.001,-0.011 0.004,-0.016l0.379 -1.039c0.019,-0.05 0.041,-0.086 0.074,-0.11 0.034,-0.025 0.075,-0.036 0.129,-0.036l3.216 0c0.054,0 0.095,0.011 0.129,0.036 0.033,0.024 0.056,0.06 0.074,0.11l0.381 1.042c0.001,0.004 0.002,0.009 0.002,0.013zm-0.172 0.226c0.056,-0.056 0.092,-0.133 0.093,-0.219l-0.378 -1.035c-0.013,-0.036 -0.027,-0.06 -0.047,-0.074 -0.019,-0.014 -0.045,-0.02 -0.082,-0.02l-3.216 0c-0.037,0 -0.063,0.006 -0.082,0.02 -0.019,0.014 -0.034,0.038 -0.047,0.074l-0.378 1.035c0.001,0.086 0.037,0.163 0.093,0.219 0.058,0.058 0.138,0.094 0.227,0.094 0.084,0 0.154,-0.03 0.208,-0.081 0.059,-0.056 0.099,-0.137 0.117,-0.23 0.002,-0.019 0.019,-0.034 0.039,-0.034 0.022,0 0.039,0.017 0.039,0.039l0 0c0,0.088 0.034,0.165 0.091,0.219 0.056,0.054 0.135,0.087 0.224,0.087l0 0c0.088,0 0.168,-0.036 0.226,-0.093 0.058,-0.058 0.093,-0.138 0.093,-0.226l0 -0.001 0.079 0 0 0.008c0.002,0.085 0.037,0.162 0.094,0.218 0.058,0.058 0.138,0.094 0.226,0.094l0 0c0.088,0 0.167,-0.035 0.224,-0.092l0.002 -0.002c0.058,-0.057 0.094,-0.137 0.094,-0.225l0 -0.001 0.078 0 0 0.001c0,0.088 0.036,0.168 0.094,0.225 0.058,0.058 0.138,0.094 0.226,0.094l0.001 0c0.088,0 0.167,-0.036 0.225,-0.094 0.058,-0.057 0.094,-0.137 0.094,-0.225l0 -0.001 0.079 0 -0.001 0.008c0.002,0.085 0.038,0.162 0.094,0.218 0.058,0.058 0.138,0.094 0.226,0.094l0.001 0c0.089,0 0.168,-0.034 0.225,-0.089 0.056,-0.055 0.09,-0.132 0.09,-0.22 0.001,-0.018 0.013,-0.034 0.032,-0.038 0.021,-0.004 0.042,0.009 0.046,0.031 0.021,0.101 0.06,0.182 0.117,0.237 0.053,0.051 0.122,0.079 0.208,0.079 0.088,0 0.168,-0.036 0.226,-0.094z"/>
    <path class="fil4" d="M4.729 0.393l0.244 1.173c0.043,0.212 0.164,0.348 0.363,0.348 0.198,0 0.359,-0.16 0.359,-0.359l-0.381 -1.042c-0.031,-0.085 -0.075,-0.12 -0.166,-0.12l-0.419 0z"/>
    <path class="fil2" d="M4.777 0.433l0.234 1.127c0.021,0.101 0.06,0.182 0.117,0.236 0.053,0.051 0.122,0.079 0.208,0.079 0.088,0 0.168,-0.036 0.226,-0.094 0.056,-0.056 0.092,-0.133 0.093,-0.219l-0.378 -1.035c-0.013,-0.036 -0.027,-0.06 -0.047,-0.074 -0.019,-0.014 -0.045,-0.02 -0.082,-0.02l-0.371 0zm0.157 1.141l-0.243 -1.17c-0.001,-0.003 -0.001,-0.007 -0.001,-0.011 0,-0.021 0.017,-0.039 0.039,-0.039l0.419 0c0.054,0 0.095,0.011 0.129,0.036 0.033,0.024 0.056,0.06 0.074,0.11l0.38 1.039c0.002,0.005 0.003,0.01 0.003,0.016 0,0.11 -0.044,0.21 -0.116,0.282 -0.073,0.072 -0.172,0.117 -0.282,0.117 -0.107,0 -0.195,-0.037 -0.262,-0.101 -0.069,-0.066 -0.115,-0.161 -0.139,-0.277l-0.001 -0.002z"/>
    <path class="fil4" d="M3.54 0.393l0 1.162c0,0 0,0.001 0,0.001 0,0.198 0.161,0.358 0.359,0.358 0.198,0 0.359,-0.16 0.359,-0.358l-0.08 -1.163 -0.638 0z"/>
    <path class="fil2" d="M3.579 0.433l0 1.123c0,0.088 0.036,0.168 0.094,0.226 0.058,0.057 0.138,0.093 0.226,0.093 0.089,0 0.169,-0.036 0.226,-0.093 0.058,-0.058 0.093,-0.137 0.094,-0.224l-0.078 -1.125 -0.562 0zm-0.078 1.122l0 -1.162c0,-0.021 0.017,-0.039 0.039,-0.039l0.638 0c0.02,0 0.038,0.016 0.039,0.037l0.08 1.165c0,0.11 -0.044,0.209 -0.116,0.281 -0.072,0.072 -0.172,0.117 -0.282,0.117 -0.11,0 -0.209,-0.045 -0.281,-0.117 -0.072,-0.072 -0.117,-0.171 -0.117,-0.281l0 -0.001z"/>
    <path class="fil4" d="M2.902 0.393l-0.08 1.162c0,0 0,0.001 0,0.001 -0.001,0.198 -0.161,0.358 -0.36,0.358 -0.198,0 -0.355,-0.149 -0.355,-0.348l0.244 -1.173 0.551 0z"/>
    <path class="fil2" d="M2.941 0.398l-0.08 1.16c-0.001,0.109 -0.045,0.208 -0.117,0.279 -0.072,0.072 -0.172,0.117 -0.282,0.117 -0.11,0 -0.209,-0.042 -0.28,-0.112 -0.071,-0.07 -0.114,-0.166 -0.114,-0.276 0,-0.004 0,-0.007 0.001,-0.011l0.243 -1.17c0.004,-0.018 0.021,-0.031 0.039,-0.031l0.551 0c0.022,0 0.039,0.018 0.039,0.039l0 0.005zm-0.159 1.155l0.078 -1.12 -0.477 0 -0.237 1.137c0.001,0.086 0.035,0.162 0.091,0.216 0.057,0.055 0.136,0.089 0.225,0.089 0.089,0 0.169,-0.036 0.227,-0.093 0.057,-0.058 0.093,-0.137 0.093,-0.224l0 -0.005z"/>
   </g>
  </g>
 </g>
</svg>
