<?xml version="1.0" encoding="UTF-8"?>
<!DOCTYPE svg PUBLIC "-//W3C//DTD SVG 1.1//EN" "http://www.w3.org/Graphics/SVG/1.1/DTD/svg11.dtd">
<!-- Creator: CorelDRAW 2019 (64-Bit) -->
<svg xmlns="http://www.w3.org/2000/svg" xml:space="preserve" width="90px" height="52px" version="1.1" style="shape-rendering:geometricPrecision; text-rendering:geometricPrecision; image-rendering:optimizeQuality; fill-rule:evenodd; clip-rule:evenodd"
viewBox="0 0 13.8 7.973"
 xmlns:xlink="http://www.w3.org/1999/xlink">
 <defs>
  <style type="text/css">
   <![CDATA[
    .fil0 {fill:none}
    .fil1 {fill:#00F4FF}
    .fil4 {fill:#EAEDF2}
    .fil3 {fill:white}
    .fil2 {fill:gray;fill-rule:nonzero}
   ]]>
  </style>
 </defs>
 <g id="Layer_x0020_1">
  <metadata id="CorelCorpID_0Corel-Layer"/>
  <g id="_3018845208320">
   <rect class="fil0" width="13.8" height="7.973"/>
   <g>
    <path class="fil1" d="M8.202 2.924c-0.048,-0.125 -0.074,-0.26 -0.074,-0.402 0,-0.618 0.497,-1.117 1.112,-1.123 0.223,-0.378 0.634,-0.632 1.106,-0.632 0.675,0 1.228,0.521 1.278,1.184 0.453,0.144 0.78,0.568 0.78,1.069 0,0.161 -0.034,0.314 -0.095,0.452 0.324,0.097 0.559,0.396 0.559,0.751 0,0.433 -0.35,0.783 -0.783,0.783 -0.051,0 -0.1,-0.005 -0.147,-0.014 -0.034,0.402 -0.371,0.718 -0.781,0.718 -0.294,0 -0.55,-0.162 -0.684,-0.401 -0.039,0.441 -0.409,0.787 -0.86,0.787 -0.478,0 -0.865,-0.387 -0.865,-0.864 0,-0.039 0.003,-0.077 0.008,-0.115 -0.061,0.01 -0.123,0.016 -0.187,0.016 -0.627,0 -1.135,-0.508 -1.135,-1.135 0,-0.498 0.322,-0.921 0.768,-1.074z"/>
    <path class="fil2" d="M8.106 2.879c-0.014,-0.045 -0.026,-0.091 -0.035,-0.138 -0.013,-0.072 -0.02,-0.145 -0.02,-0.219 0,-0.329 0.133,-0.627 0.347,-0.844 0.205,-0.207 0.486,-0.34 0.798,-0.354 0.119,-0.188 0.283,-0.345 0.476,-0.455 0.198,-0.114 0.429,-0.179 0.674,-0.179 0.356,0 0.68,0.137 0.922,0.362 0.233,0.215 0.39,0.511 0.428,0.842 0.224,0.083 0.417,0.23 0.555,0.42 0.145,0.199 0.23,0.442 0.23,0.706 0,0.084 -0.009,0.167 -0.026,0.247 -0.011,0.055 -0.026,0.108 -0.045,0.16 0.146,0.059 0.272,0.158 0.365,0.283 0.107,0.144 0.17,0.321 0.17,0.513 0,0.237 -0.096,0.453 -0.252,0.608 -0.155,0.156 -0.371,0.252 -0.608,0.252 -0.026,0 -0.053,-0.001 -0.082,-0.004 -0.034,0.189 -0.129,0.356 -0.265,0.481 -0.153,0.14 -0.357,0.226 -0.581,0.226 -0.158,0 -0.307,-0.043 -0.434,-0.117 -0.078,-0.046 -0.148,-0.104 -0.208,-0.171 -0.049,0.167 -0.143,0.314 -0.268,0.428 -0.167,0.153 -0.39,0.247 -0.634,0.247 -0.26,0 -0.495,-0.105 -0.666,-0.276l-0.004 -0.004c-0.168,-0.17 -0.271,-0.404 -0.271,-0.661l0 -0.027 -0.003 0c-0.033,0.003 -0.067,0.004 -0.1,0.004 -0.335,0 -0.637,-0.135 -0.857,-0.354 -0.219,-0.22 -0.354,-0.522 -0.354,-0.857 0,-0.262 0.083,-0.505 0.225,-0.703 0.131,-0.183 0.312,-0.329 0.523,-0.416zm0.116 -0.166c0.011,0.062 0.028,0.122 0.05,0.179l0.003 0.008c0.013,0.04 -0.008,0.083 -0.048,0.097 -0.211,0.072 -0.392,0.209 -0.519,0.386 -0.124,0.173 -0.197,0.386 -0.197,0.615 0,0.292 0.118,0.557 0.31,0.748 0.191,0.192 0.456,0.31 0.748,0.31 0.03,0 0.059,-0.001 0.088,-0.004 0.03,-0.002 0.059,-0.006 0.087,-0.01 0.007,-0.001 0.014,-0.001 0.022,0 0.042,0.005 0.071,0.043 0.066,0.085 -0.002,0.016 -0.004,0.034 -0.005,0.053 -0.001,0.015 -0.002,0.033 -0.002,0.052 0,0.216 0.087,0.411 0.227,0.553l0.004 0.004c0.142,0.142 0.339,0.231 0.557,0.231 0.205,0 0.391,-0.078 0.531,-0.206 0.141,-0.129 0.235,-0.31 0.253,-0.512 0.002,-0.024 0.016,-0.047 0.039,-0.06 0.037,-0.02 0.083,-0.007 0.104,0.03 0.062,0.109 0.152,0.201 0.26,0.265 0.104,0.061 0.226,0.096 0.357,0.096 0.184,0 0.352,-0.07 0.478,-0.186 0.127,-0.116 0.211,-0.279 0.226,-0.461l0.001 -0.008c0.008,-0.041 0.048,-0.068 0.09,-0.061 0.022,0.004 0.044,0.008 0.065,0.01 0.021,0.002 0.043,0.003 0.068,0.003 0.195,0 0.372,-0.079 0.5,-0.207 0.128,-0.128 0.207,-0.305 0.207,-0.5 0,-0.158 -0.052,-0.304 -0.14,-0.422 -0.089,-0.12 -0.216,-0.211 -0.364,-0.255l-0.009 -0.004c-0.039,-0.017 -0.057,-0.062 -0.04,-0.101 0.029,-0.065 0.052,-0.134 0.067,-0.205 0.014,-0.069 0.022,-0.141 0.022,-0.216 0,-0.231 -0.075,-0.444 -0.2,-0.616 -0.129,-0.176 -0.311,-0.31 -0.522,-0.379 -0.031,-0.008 -0.055,-0.035 -0.058,-0.069 -0.024,-0.312 -0.167,-0.592 -0.383,-0.792 -0.215,-0.199 -0.503,-0.321 -0.819,-0.321 -0.218,0 -0.422,0.058 -0.598,0.159 -0.183,0.104 -0.336,0.255 -0.442,0.436 -0.014,0.022 -0.038,0.038 -0.066,0.038 -0.287,0.002 -0.546,0.12 -0.733,0.31 -0.187,0.188 -0.303,0.448 -0.303,0.736 0,0.066 0.006,0.13 0.018,0.191z"/>
    <path class="fil2" d="M9.14 2.049c0,0.042 -0.034,0.077 -0.077,0.077 -0.042,0 -0.076,-0.035 -0.076,-0.077 0,-0.375 0.152,-0.715 0.398,-0.961 0.246,-0.246 0.585,-0.398 0.961,-0.398 0.042,0 0.076,0.034 0.076,0.077 0,0.042 -0.034,0.076 -0.076,0.076 -0.333,0 -0.635,0.135 -0.853,0.353 -0.218,0.219 -0.353,0.52 -0.353,0.853z"/>
    <path class="fil2" d="M12.328 3.02c0,-0.042 0.034,-0.077 0.076,-0.077 0.043,0 0.077,0.035 0.077,0.077 0,0.206 -0.053,0.401 -0.145,0.572 -0.096,0.176 -0.234,0.325 -0.402,0.434 -0.035,0.023 -0.082,0.013 -0.105,-0.022 -0.023,-0.036 -0.013,-0.083 0.022,-0.106 0.146,-0.095 0.267,-0.226 0.351,-0.379 0.08,-0.148 0.126,-0.318 0.126,-0.499z"/>
    <path class="fil2" d="M9.251 1.476c-0.043,0 -0.077,-0.034 -0.077,-0.077 0,-0.042 0.034,-0.076 0.077,-0.076 0.151,0 0.296,0.028 0.43,0.079 0.138,0.054 0.265,0.132 0.373,0.23 0.031,0.028 0.034,0.077 0.005,0.108 -0.028,0.031 -0.076,0.033 -0.107,0.005 -0.095,-0.085 -0.205,-0.154 -0.326,-0.2 -0.116,-0.045 -0.242,-0.069 -0.375,-0.069z"/>
    <path class="fil2" d="M7.511 3.998c0,0.042 -0.034,0.077 -0.077,0.077 -0.042,0 -0.076,-0.035 -0.076,-0.077 0,-0.334 0.135,-0.637 0.354,-0.856 0.22,-0.22 0.523,-0.355 0.857,-0.355 0.042,0 0.077,0.034 0.077,0.077 0,0.042 -0.035,0.076 -0.077,0.076 -0.292,0 -0.557,0.119 -0.748,0.31 -0.192,0.191 -0.31,0.456 -0.31,0.748z"/>
    <path class="fil3" d="M1.977 3.301l2.747 -2.338 3.367 2.875 0.662 -0.527 1.748 1.487 0 2.319c0,0.049 -0.047,0.089 -0.103,0.089 -2.902,0 -5.375,0 -8.277,0 -0.079,0 -0.144,-0.055 -0.144,-0.124l0 -3.781z"/>
    <path class="fil2" d="M1.934 3.238l2.74 -2.333c0.029,-0.024 0.071,-0.024 0.099,0l3.32 2.834 0.613 -0.488c0.03,-0.025 0.074,-0.022 0.101,0.006l1.743 1.483c0.018,0.015 0.027,0.037 0.027,0.058l0.001 2.319c0,0.047 -0.022,0.09 -0.057,0.121 -0.033,0.028 -0.076,0.045 -0.123,0.045l-8.277 0c-0.059,0 -0.112,-0.021 -0.152,-0.055 -0.042,-0.037 -0.069,-0.088 -0.069,-0.146l0 -3.781c0,-0.026 0.014,-0.049 0.034,-0.063zm2.789 -2.174l-2.669 2.272 0 3.746c0,0.011 0.006,0.022 0.015,0.03 0.013,0.011 0.031,0.018 0.052,0.018l8.277 0c0.009,0 0.017,-0.003 0.023,-0.008 0.002,-0.002 0.003,-0.004 0.003,-0.005l0 -2.284 -1.672 -1.423 -0.613 0.488c-0.028,0.023 -0.069,0.023 -0.097,-0.002l-3.319 -2.832z"/>
    <path class="fil2" d="M3.054 3.383c-0.043,0 -0.077,-0.034 -0.077,-0.077 0,-0.042 0.034,-0.077 0.077,-0.077l3.34 0c0.042,0 0.076,0.035 0.076,0.077 0,0.043 -0.034,0.077 -0.076,0.077l-3.34 0z"/>
    <path class="fil2" d="M7.082 7.206c0,0.043 -0.034,0.077 -0.077,0.077 -0.042,0 -0.076,-0.034 -0.076,-0.077l0 -1.855c0,-0.042 0.034,-0.076 0.076,-0.076 0.043,0 0.077,0.034 0.077,0.076l0 1.855z"/>
    <polygon class="fil4" points="3.988,4.986 5.459,4.986 5.459,7.206 3.988,7.206 "/>
    <path class="fil2" d="M3.988 4.909l1.471 0c0.043,0 0.077,0.035 0.077,0.077l0 2.22c0,0.043 -0.034,0.077 -0.077,0.077l-1.471 0c-0.042,0 -0.077,-0.034 -0.077,-0.077l0 -2.22c0,-0.042 0.035,-0.077 0.077,-0.077zm1.395 0.154l-1.318 0 0 2.067 1.318 0 0 -2.067z"/>
    <polygon class="fil4" points="8.241,5.661 9.265,5.661 9.265,7.206 8.241,7.206 "/>
    <path class="fil2" d="M8.241 5.585l1.024 0c0.042,0 0.077,0.034 0.077,0.076l0 1.545c0,0.043 -0.035,0.077 -0.077,0.077l-1.024 0c-0.042,0 -0.076,-0.034 -0.076,-0.077l0 -1.545c0,-0.042 0.034,-0.076 0.076,-0.076zm0.947 0.153l-0.87 0 0 1.392 0.87 0 0 -1.392z"/>
    <path class="fil2" d="M1.594 3.727c-0.032,0.028 -0.08,0.024 -0.108,-0.008 -0.027,-0.032 -0.023,-0.081 0.009,-0.108l3.179 -2.706c0.032,-0.027 0.081,-0.023 0.108,0.009 0.027,0.032 0.023,0.08 -0.009,0.107l-3.179 2.706z"/>
    <path class="fil2" d="M6.632 5.216c-0.032,0.028 -0.081,0.024 -0.108,-0.008 -0.027,-0.032 -0.023,-0.081 0.009,-0.108l2.171 -1.848c0.029,-0.024 0.071,-0.023 0.099,0.001l2.17 1.847c0.033,0.027 0.036,0.076 0.009,0.108 -0.027,0.032 -0.075,0.036 -0.107,0.008l-2.122 -1.805 -2.121 1.805z"/>
   </g>
  </g>
 </g>
</svg>
