<?xml version="1.0" encoding="UTF-8"?>
<!DOCTYPE svg PUBLIC "-//W3C//DTD SVG 1.1//EN" "http://www.w3.org/Graphics/SVG/1.1/DTD/svg11.dtd">
<!-- Creator: CorelDRAW 2019 (64-Bit) -->
<svg xmlns="http://www.w3.org/2000/svg" xml:space="preserve" width="90px" height="52px" version="1.1" style="shape-rendering:geometricPrecision; text-rendering:geometricPrecision; image-rendering:optimizeQuality; fill-rule:evenodd; clip-rule:evenodd"
viewBox="0 0 30.279 17.495"
 xmlns:xlink="http://www.w3.org/1999/xlink">
 <defs>
  <style type="text/css">
   <![CDATA[
    .fil0 {fill:none}
    .fil4 {fill:#00F4FF}
    .fil1 {fill:#EAEDF2}
    .fil3 {fill:white}
    .fil2 {fill:gray;fill-rule:nonzero}
   ]]>
  </style>
 </defs>
 <g id="Layer_x0020_1">
  <metadata id="CorelCorpID_0Corel-Layer"/>
  <g id="_3018841374272">
   <rect class="fil0" width="30.279" height="17.495"/>
   <g>
    <path class="fil1" d="M22.84 12.794l-2.216 0c-0.269,0 -0.488,0.219 -0.488,0.488l0 1.201c0,0.269 0.219,0.488 0.488,0.488l2.216 0c0.269,0 0.489,-0.219 0.489,-0.488l0 -1.201c0,-0.269 -0.22,-0.488 -0.489,-0.488z"/>
    <path class="fil2" d="M22.84 12.962l-2.216 0c-0.088,0 -0.168,0.036 -0.226,0.094 -0.058,0.057 -0.094,0.138 -0.094,0.226l0 1.201c0,0.088 0.036,0.168 0.094,0.226l0.007 0.008c0.057,0.053 0.134,0.086 0.219,0.086l2.216 0c0.089,0 0.169,-0.036 0.226,-0.093 0.058,-0.059 0.094,-0.139 0.094,-0.227l0 -1.201c0,-0.088 -0.036,-0.168 -0.094,-0.226 -0.058,-0.058 -0.138,-0.094 -0.226,-0.094zm-2.216 -0.337l2.216 0c0.181,0 0.345,0.074 0.464,0.193 0.119,0.119 0.193,0.283 0.193,0.464l0 1.201c0,0.181 -0.074,0.345 -0.193,0.464 -0.119,0.119 -0.283,0.193 -0.464,0.193l-2.216 0c-0.175,0 -0.335,-0.07 -0.453,-0.183l-0.011 -0.01c-0.119,-0.119 -0.192,-0.283 -0.192,-0.464l0 -1.201c0,-0.18 0.073,-0.344 0.192,-0.463 0.12,-0.12 0.284,-0.194 0.464,-0.194z"/>
    <path class="fil1" d="M7.439 12.794l2.216 0c0.269,0 0.489,0.219 0.489,0.488l0 1.201c0,0.269 -0.22,0.488 -0.489,0.488l-2.216 0c-0.269,0 -0.488,-0.219 -0.488,-0.488l0 -1.201c0,-0.269 0.219,-0.488 0.488,-0.488z"/>
    <path class="fil2" d="M7.439 12.625l2.216 0c0.181,0 0.345,0.074 0.464,0.193 0.119,0.119 0.193,0.283 0.193,0.464l0 1.201c0,0.181 -0.074,0.345 -0.193,0.464l-0.011 0.01c-0.118,0.113 -0.278,0.183 -0.453,0.183l-2.216 0c-0.18,0 -0.344,-0.074 -0.463,-0.193 -0.12,-0.119 -0.193,-0.283 -0.193,-0.464l0 -1.201c0,-0.18 0.073,-0.344 0.192,-0.463 0.12,-0.12 0.284,-0.194 0.464,-0.194zm2.216 0.337l-2.216 0c-0.088,0 -0.168,0.036 -0.226,0.094 -0.058,0.057 -0.094,0.138 -0.094,0.226l0 1.201c0,0.088 0.036,0.168 0.094,0.226 0.058,0.058 0.138,0.094 0.226,0.094l2.216 0c0.085,0 0.162,-0.033 0.219,-0.086l0.007 -0.008c0.058,-0.058 0.094,-0.138 0.094,-0.226l0 -1.201c0,-0.088 -0.036,-0.168 -0.094,-0.226 -0.058,-0.058 -0.138,-0.094 -0.226,-0.094z"/>
    <path class="fil3" d="M7.763 13.438c-0.8,0 -1.456,-0.656 -1.456,-1.457l0 -2.812c0,-0.363 0.107,-0.507 0.279,-0.815l0.738 -1.322 -1.321 -0.168c-0.62,-0.079 -1.137,-0.512 -1.137,-1.138l0 -0.368c0,-0.282 0.23,-0.513 0.513,-0.513l2.201 0c0.241,0 0.439,0.198 0.439,0.439l0 0.504 1.376 -2.471c0.277,-0.499 0.749,-0.794 1.571,-0.794l8.347 0c0.823,0 1.294,0.295 1.572,0.794l1.376 2.471 0 -0.504c0,-0.241 0.197,-0.439 0.439,-0.439l2.201 0c0.282,0 0.513,0.231 0.513,0.513l0 0.368c0,0.626 -0.517,1.059 -1.137,1.138l-1.322 0.168 0.738 1.322c0.173,0.308 0.28,0.452 0.28,0.815l0 2.812c0,0.801 -0.657,1.457 -1.457,1.457l-14.753 0z"/>
    <path class="fil2" d="M7.763 13.606c-0.446,0 -0.852,-0.183 -1.147,-0.478 -0.294,-0.294 -0.477,-0.7 -0.477,-1.147l0 -2.812c0,-0.367 0.093,-0.531 0.247,-0.803 0.233,-0.382 0.451,-0.806 0.671,-1.199l-1.075 -0.137c-0.358,-0.046 -0.687,-0.198 -0.921,-0.432l-0.009 -0.01c-0.219,-0.224 -0.355,-0.518 -0.355,-0.862l0 -0.368c0,-0.187 0.077,-0.358 0.2,-0.481l0.011 -0.01c0.123,-0.117 0.289,-0.19 0.471,-0.19l2.201 0c0.167,0 0.319,0.068 0.429,0.178l0.01 0.011c0.077,0.081 0.132,0.183 0.156,0.297l1.073 -1.928c0.154,-0.277 0.363,-0.498 0.649,-0.65 0.28,-0.149 0.63,-0.23 1.069,-0.23l8.347 0c0.44,0 0.789,0.081 1.069,0.23 0.286,0.152 0.495,0.373 0.649,0.65l1.074 1.928c0.024,-0.118 0.083,-0.225 0.166,-0.307 0.11,-0.111 0.262,-0.179 0.429,-0.179l2.201 0c0.187,0 0.357,0.077 0.48,0.2 0.125,0.123 0.201,0.294 0.201,0.481l0 0.368c0,0.349 -0.139,0.647 -0.364,0.871 -0.234,0.235 -0.562,0.387 -0.92,0.433l-1.075 0.137c0.223,0.399 0.445,0.8 0.67,1.199 0.154,0.272 0.248,0.436 0.248,0.803l0 2.812c0,0.447 -0.183,0.853 -0.477,1.148l-0.011 0.009c-0.293,0.289 -0.696,0.468 -1.137,0.468l-14.753 0zm-0.909 -0.715c0.233,0.234 0.555,0.379 0.909,0.379l14.753 0c0.35,0 0.669,-0.142 0.902,-0.371l0.008 -0.008c0.233,-0.234 0.378,-0.556 0.378,-0.91l0 -2.812c0,-0.28 -0.076,-0.415 -0.203,-0.637l-0.792 -1.419c-0.01,-0.018 -0.017,-0.038 -0.02,-0.06 -0.011,-0.092 0.054,-0.176 0.145,-0.187l1.321 -0.169c0.285,-0.036 0.543,-0.155 0.726,-0.337 0.164,-0.163 0.265,-0.38 0.265,-0.634l0 -0.368c0,-0.094 -0.039,-0.181 -0.102,-0.243 -0.062,-0.063 -0.148,-0.102 -0.243,-0.102l-2.201 0c-0.074,0 -0.142,0.031 -0.191,0.08 -0.049,0.049 -0.08,0.117 -0.08,0.191l0 0.504c-0.001,0.059 -0.032,0.116 -0.087,0.146 -0.081,0.045 -0.183,0.016 -0.228,-0.065l-1.376 -2.471c-0.123,-0.222 -0.289,-0.398 -0.513,-0.517 -0.231,-0.123 -0.528,-0.19 -0.912,-0.19l-8.347 0c-0.383,0 -0.681,0.067 -0.911,0.19 -0.225,0.119 -0.39,0.295 -0.514,0.517l-1.369 2.459c-0.027,0.059 -0.085,0.099 -0.153,0.099 -0.093,0 -0.169,-0.075 -0.169,-0.168l0 -0.504c0,-0.071 -0.027,-0.136 -0.072,-0.184l-0.007 -0.007c-0.049,-0.049 -0.117,-0.08 -0.191,-0.08l-2.201 0c-0.092,0 -0.175,0.036 -0.237,0.095l-0.007 0.007c-0.062,0.062 -0.101,0.149 -0.101,0.243l0 0.368c0,0.25 0.098,0.464 0.256,0.626l0.009 0.008c0.182,0.182 0.441,0.301 0.725,0.337l1.315 0.168c0.022,0.002 0.045,0.008 0.066,0.02 0.081,0.045 0.11,0.147 0.066,0.228 -0.262,0.469 -0.544,0.945 -0.793,1.419 -0.126,0.222 -0.203,0.357 -0.203,0.637l0 2.812c0,0.354 0.145,0.676 0.379,0.91z"/>
    <path class="fil4" d="M7.704 7.98c0.938,0.214 1.933,0.273 2.899,0.372 0.395,0.04 0.68,0.29 0.68,0.635l0 0.515c0,0.247 -0.205,0.452 -0.452,0.452l-0.908 0c-1.911,0 -2.118,-1.493 -2.219,-1.974z"/>
    <path class="fil2" d="M7.741 7.817c0.733,0.166 1.504,0.238 2.268,0.309 0.215,0.02 0.429,0.041 0.611,0.059 0.237,0.024 0.443,0.114 0.59,0.251 0.152,0.142 0.241,0.332 0.241,0.551l0 0.515c0,0.169 -0.07,0.325 -0.183,0.437 -0.112,0.113 -0.267,0.183 -0.437,0.183l-0.908 0c-1.96,0 -2.252,-1.454 -2.369,-2.036l-0.014 -0.072c-0.018,-0.091 0.04,-0.179 0.131,-0.198 0.024,-0.005 0.048,-0.004 0.07,0.001zm2.238 0.643c-0.69,-0.064 -1.385,-0.129 -2.057,-0.262 0.131,0.573 0.49,1.588 2.001,1.588l0.908 0c0.077,0 0.148,-0.033 0.2,-0.084 0.052,-0.052 0.084,-0.122 0.084,-0.2l0 -0.515c0,-0.121 -0.05,-0.226 -0.134,-0.305 -0.095,-0.088 -0.232,-0.146 -0.395,-0.163 -0.222,-0.023 -0.415,-0.041 -0.607,-0.059z"/>
    <path class="fil2" d="M7.92 5.924c-0.075,-0.055 -0.092,-0.16 -0.037,-0.235 0.054,-0.075 0.159,-0.092 0.234,-0.037 1.15,0.833 1.808,0.831 3.24,0.828l4.603 -0.002c0.092,0 0.168,0.076 0.168,0.169 0,0.093 -0.076,0.168 -0.168,0.168l-4.603 0c-1.507,0.004 -2.2,0.006 -3.437,-0.891z"/>
    <path class="fil4" d="M22.575 7.98c-0.938,0.214 -1.932,0.273 -2.898,0.372 -0.396,0.04 -0.681,0.29 -0.681,0.635l0 0.515c0,0.247 0.205,0.452 0.453,0.452l0.907 0c1.912,0 2.118,-1.493 2.219,-1.974z"/>
    <path class="fil2" d="M22.358 8.198c-0.673,0.133 -1.368,0.198 -2.057,0.262 -0.193,0.018 -0.386,0.036 -0.607,0.059 -0.163,0.017 -0.301,0.075 -0.396,0.163 -0.084,0.079 -0.133,0.184 -0.133,0.305l0 0.515c0,0.078 0.032,0.148 0.083,0.2 0.052,0.051 0.123,0.084 0.201,0.084l0.907 0c1.512,0 1.871,-1.015 2.002,-1.588zm-2.087 -0.072c0.764,-0.071 1.535,-0.143 2.267,-0.309 0.022,-0.005 0.046,-0.006 0.07,-0.001 0.091,0.019 0.15,0.107 0.131,0.198l-0.014 0.073c-0.117,0.581 -0.408,2.035 -2.369,2.035l-0.907 0c-0.17,0 -0.326,-0.07 -0.438,-0.183 -0.112,-0.112 -0.183,-0.268 -0.183,-0.437l0 -0.515c0,-0.219 0.09,-0.409 0.242,-0.551 0.147,-0.137 0.353,-0.227 0.589,-0.251 0.183,-0.018 0.397,-0.039 0.612,-0.059z"/>
    <path class="fil2" d="M22.162 5.652c0.075,-0.055 0.18,-0.038 0.235,0.037 0.054,0.075 0.037,0.18 -0.038,0.235 -1.237,0.897 -1.929,0.895 -3.437,0.891l-4.602 0c-0.093,0 -0.168,-0.075 -0.168,-0.168 0,-0.093 0.075,-0.169 0.168,-0.169l4.282 0 0.32 0.002c1.433,0.003 2.09,0.005 3.24,-0.828z"/>
    <path class="fil1" d="M12.468 8.667l5.343 0c0.16,0 0.291,0.13 0.291,0.291l0 0.705c0,0.16 -0.131,0.291 -0.291,0.291l-5.343 0c-0.16,0 -0.291,-0.131 -0.291,-0.291l0 -0.705c0,-0.161 0.131,-0.291 0.291,-0.291z"/>
    <path class="fil2" d="M12.468 8.498l5.343 0c0.126,0 0.241,0.052 0.324,0.135 0.084,0.083 0.135,0.198 0.135,0.325l0 0.705c0,0.126 -0.051,0.241 -0.135,0.324 -0.083,0.083 -0.198,0.135 -0.324,0.135l-5.343 0c-0.126,0 -0.241,-0.052 -0.324,-0.135 -0.083,-0.083 -0.135,-0.198 -0.135,-0.324l0 -0.705c0,-0.127 0.052,-0.242 0.135,-0.325 0.083,-0.083 0.198,-0.135 0.324,-0.135zm5.343 0.337l-5.343 0c-0.033,0 -0.064,0.014 -0.086,0.036 -0.022,0.022 -0.036,0.053 -0.036,0.087l0 0.705c0,0.033 0.014,0.064 0.036,0.086 0.022,0.023 0.053,0.037 0.086,0.037l5.343 0c0.034,0 0.064,-0.014 0.087,-0.037 0.022,-0.022 0.036,-0.053 0.036,-0.086l0 -0.705c0,-0.034 -0.014,-0.065 -0.036,-0.087 -0.023,-0.022 -0.053,-0.036 -0.087,-0.036z"/>
    <path class="fil1" d="M13.215 11.592l3.849 0c0.683,0 0.951,0.412 1.226,0.769l0.83 1.077 -7.961 0 0.83 -1.077c0.275,-0.357 0.543,-0.769 1.226,-0.769z"/>
    <path class="fil2" d="M13.215 11.423l3.849 0c0.723,0 1.025,0.396 1.308,0.768 0.292,0.382 0.587,0.763 0.881,1.144 0.056,0.073 0.043,0.179 -0.031,0.236 -0.03,0.023 -0.066,0.035 -0.102,0.034l-7.961 0.001c-0.092,0 -0.168,-0.075 -0.168,-0.168 0,-0.043 0.016,-0.083 0.043,-0.113l0.873 -1.134c0.283,-0.371 0.585,-0.768 1.308,-0.768zm3.849 0.337l-3.849 0c-0.557,0 -0.807,0.328 -1.041,0.635l-0.673 0.875 7.278 0c-0.225,-0.292 -0.451,-0.583 -0.674,-0.875 -0.234,-0.308 -0.484,-0.635 -1.041,-0.635z"/>
    <path class="fil1" d="M9.395 3.317l-1.376 2.471c1.277,0.925 1.96,0.859 3.659,0.859l2.642 0 4.282 0c1.699,0 2.382,0.066 3.659,-0.859l-1.376 -2.471c-0.278,-0.499 -0.749,-0.794 -1.572,-0.794l-8.347 0c-0.822,0 -1.294,0.295 -1.571,0.794z"/>
    <path class="fil2" d="M9.541 3.398l-1.303 2.34c1.077,0.747 1.738,0.745 3.12,0.742 2.414,-0.005 4.829,-0.001 7.244,-0.001l0.32 0.001c1.381,0.003 2.042,0.005 3.119,-0.742l-1.303 -2.34c-0.123,-0.222 -0.289,-0.398 -0.513,-0.517 -0.231,-0.123 -0.528,-0.19 -0.912,-0.19l-8.347 0c-0.383,0 -0.681,0.067 -0.911,0.19 -0.225,0.119 -0.39,0.295 -0.514,0.517zm-1.669 2.308l1.376 -2.471c0.154,-0.277 0.363,-0.498 0.649,-0.65 0.28,-0.149 0.63,-0.23 1.069,-0.23l8.347 0c0.44,0 0.789,0.081 1.069,0.23 0.286,0.152 0.495,0.373 0.649,0.65l1.372 2.463c0.047,0.074 0.029,0.173 -0.043,0.226 -1.238,0.897 -1.93,0.895 -3.438,0.891 -2.522,-0.005 -5.043,0.001 -7.564,0 -1.508,0.004 -2.201,0.006 -3.438,-0.891 -0.068,-0.049 -0.09,-0.143 -0.048,-0.218z"/>
   </g>
  </g>
 </g>
</svg>
