<?xml version="1.0" encoding="UTF-8"?>
<!DOCTYPE svg PUBLIC "-//W3C//DTD SVG 1.1//EN" "http://www.w3.org/Graphics/SVG/1.1/DTD/svg11.dtd">
<!-- Creator: CorelDRAW 2019 (64-Bit) -->
<svg xmlns="http://www.w3.org/2000/svg" xml:space="preserve" width="90px" height="52px" version="1.1" style="shape-rendering:geometricPrecision; text-rendering:geometricPrecision; image-rendering:optimizeQuality; fill-rule:evenodd; clip-rule:evenodd"
viewBox="0 0 7.02 4.056"
 xmlns:xlink="http://www.w3.org/1999/xlink">
 <defs>
  <style type="text/css">
   <![CDATA[
    .fil0 {fill:none}
    .fil3 {fill:#00F4FF}
    .fil2 {fill:gray;fill-rule:nonzero}
    .fil1 {fill:white;fill-rule:nonzero}
   ]]>
  </style>
 </defs>
 <g id="Layer_x0020_1">
  <metadata id="CorelCorpID_0Corel-Layer"/>
  <g id="_3018837052304">
   <rect class="fil0" width="7.02" height="4.056"/>
   <g>
    <path class="fil1" d="M4.979 0.944l-0.632 -0.632 -1.019 0.176 -1.752 1.751c-0.039,0.039 -0.039,0.102 0,0.141l1.335 1.335c0.039,0.039 0.102,0.039 0.141,0l1.751 -1.752 0.176 -1.019z"/>
    <path class="fil2" d="M4.937 0.958l-0.604 -0.604 -0.986 0.17 -1.745 1.745c-0.011,0.011 -0.016,0.026 -0.016,0.041 0,0.015 0.006,0.031 0.018,0.042l1.335 1.335c0.011,0.012 0.027,0.018 0.042,0.018 0.016,0 0.031,-0.006 0.043,-0.018l1.743 -1.743 0.17 -0.986zm-0.563 -0.674l0.633 0.633c0.008,0.008 0.013,0.021 0.011,0.034l-0.176 1.017c-0.001,0.008 -0.005,0.016 -0.011,0.023l-1.752 1.752c-0.027,0.027 -0.062,0.04 -0.098,0.04 -0.035,0 -0.07,-0.013 -0.097,-0.04l-1.335 -1.335c-0.027,-0.027 -0.041,-0.063 -0.041,-0.098 0,-0.034 0.013,-0.069 0.038,-0.096l1.754 -1.754c0.006,-0.005 0.013,-0.009 0.021,-0.011l1.017 -0.175c0.013,-0.003 0.027,0.001 0.036,0.01z"/>
    <path class="fil2" d="M4.336 0.785c0.021,0.005 0.033,0.026 0.028,0.047 -0.005,0.021 -0.027,0.033 -0.047,0.028 -0.027,-0.007 -0.056,-0.007 -0.083,0 -0.025,0.007 -0.05,0.021 -0.07,0.042 -0.032,0.031 -0.047,0.072 -0.047,0.113 0,0.04 0.015,0.081 0.047,0.113 0.031,0.031 0.072,0.046 0.113,0.046 0.04,0 0.081,-0.015 0.113,-0.046 0.015,-0.016 0.039,-0.016 0.055,0 0.015,0.015 0.015,0.04 0,0.055 -0.047,0.046 -0.108,0.069 -0.168,0.069 -0.061,0 -0.122,-0.023 -0.169,-0.069 -0.046,-0.047 -0.069,-0.107 -0.069,-0.168 0,-0.061 0.023,-0.122 0.069,-0.168 0.031,-0.031 0.067,-0.051 0.106,-0.062 0.04,-0.01 0.082,-0.011 0.122,0z"/>
    <path class="fil2" d="M4.955 2.107c-0.019,-0.011 -0.024,-0.035 -0.012,-0.053 0.011,-0.018 0.035,-0.024 0.053,-0.012 0.1,0.064 0.194,0.106 0.27,0.123 0.065,0.014 0.115,0.009 0.142,-0.019 0.046,-0.045 0.032,-0.147 -0.028,-0.274 -0.065,-0.139 -0.184,-0.304 -0.341,-0.461 -0.157,-0.157 -0.321,-0.276 -0.46,-0.34 -0.128,-0.06 -0.23,-0.074 -0.275,-0.029 -0.015,0.015 -0.04,0.015 -0.055,0 -0.015,-0.015 -0.015,-0.04 0,-0.055 0.071,-0.071 0.204,-0.061 0.363,0.013 0.147,0.069 0.319,0.193 0.483,0.356 0.163,0.163 0.287,0.336 0.355,0.483 0.074,0.158 0.084,0.292 0.013,0.363 -0.047,0.047 -0.122,0.059 -0.213,0.039 -0.085,-0.018 -0.187,-0.065 -0.295,-0.134z"/>
    <polygon class="fil3" points="3.604,1.688 3.186,1.815 2.828,1.565 2.82,2.001 2.471,2.264 2.884,2.407 3.027,2.82 3.29,2.471 3.726,2.463 3.476,2.105 "/>
    <path class="fil2" d="M3.545 1.746l-0.348 0.106c-0.012,0.004 -0.024,0.001 -0.033,-0.005l-0.299 -0.209 -0.006 0.364c0,0.012 -0.006,0.023 -0.016,0.03l-0.29 0.22 0.344 0.118c0.012,0.004 0.02,0.013 0.024,0.024l0.119 0.344 0.219 -0.29c0.008,-0.011 0.02,-0.016 0.032,-0.016l0.362 -0.006 -0.209 -0.298c-0.007,-0.011 -0.008,-0.023 -0.005,-0.034l0.106 -0.348zm-0.352 0.026l0.399 -0.122c0.007,-0.002 0.015,-0.002 0.023,0 0.02,0.007 0.032,0.028 0.026,0.049l-0.122 0.4 0.239 0.341c0.004,0.006 0.007,0.014 0.007,0.023 0.001,0.021 -0.017,0.039 -0.038,0.039l-0.418 0.008 -0.251 0.333c-0.005,0.006 -0.011,0.011 -0.019,0.014 -0.02,0.006 -0.042,-0.004 -0.049,-0.025l-0.136 -0.394 -0.393 -0.136c-0.008,-0.002 -0.015,-0.007 -0.021,-0.014 -0.013,-0.017 -0.009,-0.042 0.008,-0.055l0.333 -0.251 0.008 -0.418c0,-0.007 0.002,-0.015 0.007,-0.022 0.012,-0.017 0.037,-0.021 0.054,-0.009l0.343 0.239z"/>
   </g>
  </g>
 </g>
</svg>
