<?xml version="1.0" encoding="UTF-8"?>
<!DOCTYPE svg PUBLIC "-//W3C//DTD SVG 1.1//EN" "http://www.w3.org/Graphics/SVG/1.1/DTD/svg11.dtd">
<!-- Creator: CorelDRAW 2019 (64-Bit) -->
<svg xmlns="http://www.w3.org/2000/svg" xml:space="preserve" width="90px" height="52px" version="1.1" style="shape-rendering:geometricPrecision; text-rendering:geometricPrecision; image-rendering:optimizeQuality; fill-rule:evenodd; clip-rule:evenodd"
viewBox="0 0 13.965 8.068"
 xmlns:xlink="http://www.w3.org/1999/xlink">
 <defs>
  <style type="text/css">
   <![CDATA[
    .fil0 {fill:none}
    .fil3 {fill:#00F4FF}
    .fil1 {fill:white}
    .fil2 {fill:gray;fill-rule:nonzero}
   ]]>
  </style>
 </defs>
 <g id="Layer_x0020_1">
  <metadata id="CorelCorpID_0Corel-Layer"/>
  <g id="_3019073187104">
   <rect class="fil0" width="13.965" height="8.068"/>
   <g>
    <path class="fil1" d="M3.801 7.189l0 0 0.001 0.004 0 0 0 0.003 0 0 0 0.004 0 0 0.001 0.003 0 0 0 0.003 0 0 0.001 0.004 0 0 0.001 0.003 0 0 0.001 0.003c0.012,0.046 0.048,0.083 0.094,0.097l0 0 0.003 0.001 0.001 0 0.003 0.001 0 0 0.003 0.001 0 0 0.004 0.001 0 0 0.003 0 0 0 0.003 0.001 0.007 0.001 0 0c0.005,0 0.01,0 0.015,0l5.21 0c0.077,0 0.14,-0.061 0.14,-0.137 0,-2.193 0,-4.386 0,-6.579l0 -0.007 0 0 0 -0.004 0 0 0 -0.003 0 0 -0.001 -0.004 0 0 0 -0.003 0 0 -0.001 -0.004 0 0 -0.001 -0.003 0 0 0 -0.003 0 0 -0.001 -0.003c-0.012,-0.046 -0.048,-0.083 -0.095,-0.097l0 0 -0.003 -0.001 0 0 -0.003 -0.001 0 0 -0.004 -0.001 0 0 -0.003 -0.001 0 0 -0.004 0 0 0 -0.003 -0.001 -0.007 -0.001 0 0c-0.005,0 -0.009,-0.001 -0.014,-0.001l-5.21 0c-0.077,0 -0.141,0.062 -0.141,0.138 0,2.193 0,4.386 0,6.579l0 0.007z"/>
    <path class="fil2" d="M3.724 7.198l0 -0.016 0 -6.579c0,-0.06 0.025,-0.114 0.065,-0.153 0.039,-0.038 0.093,-0.062 0.153,-0.062 0.49,0 5.214,-0.037 5.274,0.01 0.036,0.011 0.068,0.03 0.093,0.056 0.025,0.026 0.043,0.057 0.053,0.092 0.154,0.566 0.008,5.623 0.008,6.636 0,0.06 -0.025,0.113 -0.065,0.153 -0.04,0.038 -0.094,0.062 -0.153,0.062 -0.703,0 -4.962,0.109 -5.275,-0.01 -0.035,-0.011 -0.067,-0.031 -0.092,-0.056 -0.025,-0.026 -0.044,-0.058 -0.054,-0.093 -0.004,-0.015 -0.005,-0.025 -0.007,-0.04zm0.155 -0.013l0.002 0.012c0.002,0.01 0.008,0.018 0.015,0.026 0.006,0.006 0.014,0.011 0.023,0.015 0.365,0.101 4.497,0.004 5.233,0.004 0.017,0 0.033,-0.007 0.045,-0.018 0.011,-0.011 0.018,-0.026 0.018,-0.042 0,-0.951 0.127,-6.103 -0.002,-6.594 -0.003,-0.009 -0.008,-0.019 -0.015,-0.026 -0.006,-0.006 -0.014,-0.011 -0.022,-0.015 -0.376,-0.104 -4.489,-0.004 -5.234,-0.004 -0.018,0 -0.034,0.007 -0.045,0.018 -0.011,0.011 -0.018,0.026 -0.018,0.042l0 6.582z"/>
    <path class="fil2" d="M5.946 2.523c-0.043,0 -0.078,-0.035 -0.078,-0.078 0,-0.043 0.035,-0.077 0.078,-0.077l2.431 0c0.043,0 0.078,0.034 0.078,0.077 0,0.043 -0.035,0.078 -0.078,0.078l-2.431 0z"/>
    <path class="fil2" d="M5.946 1.936c-0.043,0 -0.078,-0.035 -0.078,-0.078 0,-0.043 0.035,-0.078 0.078,-0.078l1.782 0c0.043,0 0.078,0.035 0.078,0.078 0,0.043 -0.035,0.078 -0.078,0.078l-1.782 0z"/>
    <path class="fil2" d="M5.946 2.523c-0.043,0 -0.078,-0.035 -0.078,-0.078 0,-0.043 0.035,-0.077 0.078,-0.077l2.431 0c0.043,0 0.078,0.034 0.078,0.077 0,0.043 -0.035,0.078 -0.078,0.078l-2.431 0z"/>
    <path class="fil2" d="M5.946 1.936c-0.043,0 -0.078,-0.035 -0.078,-0.078 0,-0.043 0.035,-0.078 0.078,-0.078l1.782 0c0.043,0 0.078,0.035 0.078,0.078 0,0.043 -0.035,0.078 -0.078,0.078l-1.782 0z"/>
    <path class="fil2" d="M5.946 4.264c-0.043,0 -0.078,-0.035 -0.078,-0.078 0,-0.043 0.035,-0.078 0.078,-0.078l2.431 0c0.043,0 0.078,0.035 0.078,0.078 0,0.043 -0.035,0.078 -0.078,0.078l-2.431 0z"/>
    <path class="fil2" d="M5.946 3.676c-0.043,0 -0.078,-0.034 -0.078,-0.077 0,-0.043 0.035,-0.078 0.078,-0.078l1.782 0c0.043,0 0.078,0.035 0.078,0.078 0,0.043 -0.035,0.077 -0.078,0.077l-1.782 0z"/>
    <path class="fil2" d="M5.945 6.004c-0.042,0 -0.077,-0.034 -0.077,-0.077 0,-0.043 0.035,-0.078 0.077,-0.078l1.234 0c0.043,0 0.078,0.035 0.078,0.078 0,0.043 -0.035,0.077 -0.078,0.077l-1.234 0z"/>
    <path class="fil2" d="M5.945 5.417c-0.042,0 -0.077,-0.035 -0.077,-0.077 0,-0.043 0.035,-0.078 0.077,-0.078l1.783 0c0.043,0 0.078,0.035 0.078,0.078 0,0.042 -0.035,0.077 -0.078,0.077l-1.783 0z"/>
    <path class="fil1" d="M5.09 2.526c0.207,0 0.375,-0.168 0.375,-0.374 0,-0.207 -0.168,-0.375 -0.375,-0.375 -0.206,0 -0.374,0.168 -0.374,0.375 0,0.206 0.168,0.374 0.374,0.374z"/>
    <path class="fil2" d="M5.09 2.448c0.082,0 0.157,-0.033 0.21,-0.086 0.054,-0.054 0.087,-0.128 0.087,-0.21 0,-0.082 -0.033,-0.157 -0.087,-0.21l-0.003 -0.004c-0.053,-0.051 -0.126,-0.083 -0.207,-0.083 -0.082,0 -0.156,0.033 -0.209,0.087 -0.054,0.053 -0.087,0.128 -0.087,0.21 0,0.082 0.033,0.156 0.087,0.21 0.053,0.053 0.127,0.086 0.209,0.086zm0.32 0.023c-0.082,0.082 -0.195,0.133 -0.32,0.133 -0.124,0 -0.237,-0.051 -0.319,-0.133 -0.082,-0.082 -0.133,-0.195 -0.133,-0.319 0,-0.125 0.051,-0.238 0.133,-0.32 0.082,-0.082 0.195,-0.132 0.319,-0.132 0.123,0 0.234,0.049 0.315,0.128l0.005 0.004c0.082,0.082 0.132,0.195 0.132,0.32 0,0.124 -0.05,0.237 -0.132,0.319z"/>
    <path class="fil1" d="M5.09 2.526c0.207,0 0.375,-0.168 0.375,-0.374 0,-0.207 -0.168,-0.375 -0.375,-0.375 -0.206,0 -0.374,0.168 -0.374,0.375 0,0.206 0.168,0.374 0.374,0.374z"/>
    <path class="fil2" d="M5.09 2.448c0.082,0 0.157,-0.033 0.21,-0.086 0.054,-0.054 0.087,-0.128 0.087,-0.21 0,-0.082 -0.033,-0.157 -0.087,-0.21l-0.003 -0.004c-0.053,-0.051 -0.126,-0.083 -0.207,-0.083 -0.082,0 -0.156,0.033 -0.209,0.087 -0.054,0.053 -0.087,0.128 -0.087,0.21 0,0.082 0.033,0.156 0.087,0.21 0.053,0.053 0.127,0.086 0.209,0.086zm0.32 0.023c-0.082,0.082 -0.195,0.133 -0.32,0.133 -0.124,0 -0.237,-0.051 -0.319,-0.133 -0.082,-0.082 -0.133,-0.195 -0.133,-0.319 0,-0.125 0.051,-0.238 0.133,-0.32 0.082,-0.082 0.195,-0.132 0.319,-0.132 0.123,0 0.234,0.049 0.315,0.128l0.005 0.004c0.082,0.082 0.132,0.195 0.132,0.32 0,0.124 -0.05,0.237 -0.132,0.319z"/>
    <path class="fil1" d="M5.09 4.267c0.207,0 0.375,-0.168 0.375,-0.375 0,-0.206 -0.168,-0.374 -0.375,-0.374 -0.206,0 -0.374,0.168 -0.374,0.374 0,0.207 0.168,0.375 0.374,0.375z"/>
    <path class="fil2" d="M5.09 4.189c0.082,0 0.157,-0.033 0.21,-0.087 0.054,-0.053 0.087,-0.128 0.087,-0.21 0,-0.082 -0.033,-0.156 -0.087,-0.209 -0.053,-0.054 -0.128,-0.087 -0.21,-0.087 -0.082,0 -0.156,0.033 -0.209,0.087 -0.054,0.053 -0.087,0.127 -0.087,0.209 0,0.082 0.033,0.157 0.086,0.21 0.054,0.054 0.128,0.087 0.21,0.087zm0.32 0.023c-0.082,0.082 -0.195,0.132 -0.32,0.132 -0.124,0 -0.237,-0.05 -0.319,-0.132 -0.082,-0.082 -0.133,-0.195 -0.133,-0.32 0,-0.124 0.051,-0.237 0.133,-0.319 0.082,-0.082 0.195,-0.133 0.319,-0.133 0.125,0 0.238,0.051 0.32,0.133 0.082,0.082 0.132,0.195 0.132,0.319 0,0.125 -0.05,0.238 -0.132,0.32z"/>
    <path class="fil1" d="M5.09 6.007c0.207,0 0.375,-0.167 0.375,-0.374 0,-0.207 -0.168,-0.374 -0.375,-0.374 -0.206,0 -0.374,0.167 -0.374,0.374 0,0.207 0.168,0.374 0.374,0.374z"/>
    <path class="fil2" d="M5.09 5.93c0.082,0 0.157,-0.033 0.21,-0.087 0.054,-0.054 0.087,-0.128 0.087,-0.21 0,-0.082 -0.033,-0.156 -0.087,-0.21l-0.003 -0.003c-0.053,-0.052 -0.126,-0.084 -0.207,-0.084 -0.082,0 -0.156,0.034 -0.209,0.087 -0.054,0.054 -0.087,0.128 -0.087,0.21 0,0.082 0.033,0.156 0.087,0.21 0.053,0.054 0.127,0.087 0.209,0.087zm0.32 0.023c-0.082,0.081 -0.195,0.132 -0.32,0.132 -0.124,0 -0.237,-0.051 -0.319,-0.132 -0.082,-0.082 -0.133,-0.195 -0.133,-0.32 0,-0.125 0.051,-0.238 0.133,-0.319 0.082,-0.082 0.195,-0.133 0.319,-0.133 0.123,0 0.234,0.049 0.315,0.128l0.005 0.005c0.082,0.081 0.132,0.194 0.132,0.319 0,0.125 -0.05,0.238 -0.132,0.32z"/>
    <path class="fil3" d="M9.162 7.555c0.071,-0.02 0.138,-0.048 0.201,-0.083l0.334 0.163c0.069,-0.056 0.132,-0.119 0.188,-0.189l-0.163 -0.333c0.035,-0.063 0.063,-0.13 0.083,-0.201l0.351 -0.121c0.005,-0.043 0.007,-0.088 0.007,-0.133 0,-0.045 -0.002,-0.089 -0.007,-0.133l-0.351 -0.121c-0.02,-0.07 -0.048,-0.137 -0.083,-0.2l0.163 -0.334c-0.056,-0.069 -0.119,-0.132 -0.188,-0.188l-0.334 0.163c-0.063,-0.035 -0.13,-0.064 -0.201,-0.084l-0.12 -0.351c-0.044,-0.004 -0.089,-0.007 -0.134,-0.007 -0.045,0 -0.089,0.003 -0.133,0.007l-0.12 0.351c-0.071,0.02 -0.138,0.049 -0.201,0.084l-0.334 -0.163c-0.069,0.056 -0.132,0.119 -0.188,0.188l0.163 0.334c-0.035,0.063 -0.063,0.13 -0.083,0.2l-0.352 0.121c-0.004,0.044 -0.007,0.088 -0.007,0.133 0,0.045 0.003,0.09 0.007,0.133l0.352 0.121c0.02,0.071 0.048,0.138 0.083,0.201l-0.163 0.333c0.056,0.07 0.119,0.133 0.188,0.189l0.334 -0.163c0.063,0.035 0.13,0.063 0.201,0.083l0.12 0.351c0.044,0.005 0.088,0.007 0.133,0.007 0.045,0 0.09,-0.002 0.134,-0.007l0.12 -0.351zm-0.254 -0.425c0.261,0 0.472,-0.211 0.472,-0.472 0,-0.26 -0.211,-0.471 -0.472,-0.471 -0.26,0 -0.471,0.211 -0.471,0.471 0,0.261 0.211,0.472 0.471,0.472z"/>
    <path class="fil2" d="M9.145 7.479c0.031,-0.008 0.061,-0.019 0.09,-0.031 0.031,-0.013 0.061,-0.027 0.09,-0.044 0.023,-0.013 0.05,-0.013 0.072,-0.002l0.288 0.141c0.019,-0.017 0.038,-0.034 0.056,-0.052 0.018,-0.018 0.036,-0.037 0.052,-0.056l-0.141 -0.288c-0.012,-0.025 -0.01,-0.053 0.004,-0.075 0.015,-0.028 0.03,-0.057 0.042,-0.087 0.013,-0.03 0.024,-0.062 0.033,-0.094 0.007,-0.025 0.026,-0.044 0.049,-0.052l0.304 -0.105 0 -0.013c0.001,-0.018 0.002,-0.039 0.002,-0.063 0,-0.023 -0.001,-0.044 -0.002,-0.063l0 -0.013 -0.304 -0.104c-0.026,-0.009 -0.045,-0.031 -0.05,-0.057 -0.009,-0.03 -0.02,-0.06 -0.032,-0.089l-0.001 -0.004c-0.013,-0.03 -0.027,-0.059 -0.043,-0.087 -0.012,-0.023 -0.012,-0.049 -0.002,-0.071l0.141 -0.289c-0.016,-0.018 -0.034,-0.037 -0.052,-0.055 -0.018,-0.018 -0.037,-0.036 -0.056,-0.053l-0.288 0.141c-0.025,0.012 -0.053,0.01 -0.074,-0.003 -0.029,-0.016 -0.058,-0.03 -0.088,-0.042 -0.03,-0.013 -0.062,-0.024 -0.094,-0.033 -0.025,-0.007 -0.044,-0.026 -0.052,-0.049l-0.104 -0.304 -0.015 -0.001c-0.018,-0.001 -0.038,-0.001 -0.062,-0.001 -0.023,0 -0.044,0 -0.062,0.001l-0.014 0.001 -0.104 0.304c-0.009,0.026 -0.031,0.044 -0.056,0.05 -0.031,0.009 -0.061,0.019 -0.09,0.032l-0.004 0.001c-0.03,0.012 -0.058,0.027 -0.087,0.042 -0.022,0.013 -0.049,0.013 -0.071,0.002l-0.289 -0.141c-0.019,0.017 -0.037,0.035 -0.055,0.052 -0.018,0.019 -0.036,0.038 -0.052,0.056l0.141 0.289c0.012,0.025 0.009,0.054 -0.005,0.076 -0.015,0.027 -0.029,0.056 -0.041,0.086 -0.013,0.03 -0.024,0.061 -0.033,0.093 -0.007,0.026 -0.026,0.045 -0.049,0.053l-0.304 0.104 -0.001 0.013c-0.001,0.019 -0.001,0.04 -0.001,0.063 0,0.024 0,0.045 0.001,0.063l0.001 0.013 0.304 0.105c0.026,0.009 0.045,0.031 0.05,0.056 0.009,0.031 0.02,0.061 0.032,0.09 0.012,0.031 0.027,0.061 0.043,0.09 0.013,0.023 0.013,0.05 0.002,0.072l-0.14 0.288c0.016,0.019 0.034,0.037 0.052,0.056 0.018,0.018 0.037,0.035 0.055,0.052l0.289 -0.141c0.025,-0.012 0.052,-0.01 0.074,0.004 0.029,0.015 0.058,0.03 0.088,0.042 0.03,0.012 0.061,0.023 0.093,0.032 0.026,0.008 0.045,0.027 0.053,0.05l0.104 0.303 0.013 0.001c0.019,0.001 0.04,0.002 0.063,0.002 0.024,0 0.045,-0.001 0.063,-0.002l0.014 -0.001 0.104 -0.303c0.009,-0.027 0.031,-0.045 0.056,-0.051zm0.15 0.112c-0.024,0.01 -0.048,0.018 -0.072,0.027l-0.108 0.313c-0.01,0.028 -0.035,0.049 -0.066,0.052 -0.023,0.003 -0.046,0.005 -0.07,0.006 -0.026,0.001 -0.049,0.002 -0.071,0.002 -0.021,0 -0.045,-0.001 -0.071,-0.002 -0.021,-0.001 -0.043,-0.003 -0.064,-0.005 -0.032,-0.001 -0.06,-0.021 -0.071,-0.053l-0.108 -0.313c-0.024,-0.009 -0.048,-0.017 -0.072,-0.027 -0.024,-0.01 -0.047,-0.021 -0.07,-0.032l-0.298 0.146c-0.026,0.012 -0.058,0.01 -0.082,-0.01 -0.038,-0.03 -0.073,-0.062 -0.106,-0.095 -0.031,-0.031 -0.062,-0.065 -0.091,-0.101 -0.021,-0.023 -0.027,-0.057 -0.013,-0.086l0.146 -0.299c-0.012,-0.023 -0.022,-0.046 -0.032,-0.07 -0.01,-0.023 -0.019,-0.047 -0.027,-0.071l-0.314 -0.108c-0.027,-0.01 -0.048,-0.035 -0.052,-0.065 -0.002,-0.023 -0.004,-0.047 -0.005,-0.071 -0.001,-0.026 -0.002,-0.049 -0.002,-0.071 0,-0.021 0.001,-0.045 0.002,-0.071 0.001,-0.022 0.003,-0.044 0.005,-0.065 0.001,-0.031 0.021,-0.06 0.052,-0.07l0.314 -0.108c0.008,-0.025 0.017,-0.048 0.027,-0.072 0.009,-0.023 0.02,-0.047 0.032,-0.07l-0.146 -0.298c-0.012,-0.026 -0.01,-0.059 0.01,-0.083 0.03,-0.038 0.062,-0.073 0.094,-0.105 0.033,-0.032 0.067,-0.063 0.101,-0.091 0.023,-0.021 0.058,-0.027 0.087,-0.013l0.299 0.146c0.021,-0.011 0.043,-0.021 0.065,-0.031l0.004 -0.001c0.024,-0.01 0.048,-0.019 0.072,-0.027l0.108 -0.314c0.01,-0.027 0.034,-0.049 0.065,-0.052 0.024,-0.002 0.047,-0.004 0.07,-0.005 0.026,-0.002 0.05,-0.002 0.071,-0.002 0.021,0 0.045,0 0.07,0.002l0.002 0c0.021,0.001 0.043,0.003 0.064,0.005 0.031,0.001 0.06,0.021 0.071,0.052l0.108 0.314c0.024,0.008 0.048,0.017 0.072,0.027 0.023,0.009 0.047,0.02 0.069,0.032l0.299 -0.146c0.026,-0.013 0.058,-0.01 0.082,0.009 0.038,0.031 0.073,0.063 0.106,0.095 0.031,0.032 0.062,0.065 0.091,0.101 0.021,0.023 0.027,0.057 0.013,0.087l-0.146 0.299c0.011,0.021 0.021,0.043 0.03,0.065l0.002 0.004c0.01,0.024 0.019,0.048 0.027,0.072l0.314 0.108c0.027,0.009 0.048,0.034 0.051,0.065 0.003,0.023 0.005,0.047 0.006,0.07 0.001,0.026 0.002,0.05 0.002,0.071 0,0.022 -0.001,0.045 -0.002,0.071 -0.001,0.022 -0.003,0.044 -0.005,0.065 -0.001,0.031 -0.021,0.06 -0.052,0.071l-0.314 0.108c-0.008,0.024 -0.017,0.048 -0.027,0.072 -0.01,0.023 -0.021,0.047 -0.032,0.069l0.146 0.299c0.012,0.026 0.01,0.058 -0.01,0.082 -0.03,0.038 -0.062,0.073 -0.094,0.105 -0.032,0.032 -0.066,0.062 -0.102,0.092 -0.023,0.021 -0.057,0.027 -0.086,0.013l-0.299 -0.146c-0.022,0.011 -0.046,0.022 -0.069,0.032zm-0.387 -0.539c0.109,0 0.208,-0.044 0.279,-0.115 0.071,-0.071 0.115,-0.17 0.115,-0.279 0,-0.109 -0.044,-0.207 -0.115,-0.278 -0.071,-0.072 -0.17,-0.116 -0.279,-0.116 -0.109,0 -0.207,0.044 -0.278,0.115 -0.072,0.072 -0.116,0.17 -0.116,0.279 0,0.109 0.044,0.208 0.115,0.279 0.072,0.071 0.17,0.115 0.279,0.115zm0.389 -0.006c-0.1,0.1 -0.237,0.161 -0.389,0.161 -0.151,0 -0.288,-0.061 -0.387,-0.16l-0.001 -0.001c-0.099,-0.099 -0.161,-0.237 -0.161,-0.388 0,-0.151 0.062,-0.288 0.161,-0.388l0 0c0.1,-0.099 0.237,-0.161 0.388,-0.161 0.152,0 0.289,0.061 0.388,0.161l0.001 0c0.099,0.1 0.161,0.237 0.161,0.388 0,0.151 -0.062,0.289 -0.161,0.388z"/>
    <path class="fil1" d="M9.38 6.658c0,0.261 -0.211,0.472 -0.472,0.472 -0.26,0 -0.471,-0.211 -0.471,-0.472 0,-0.26 0.211,-0.471 0.471,-0.471 0.261,0 0.472,0.211 0.472,0.471z"/>
    <path class="fil2" d="M9.458 6.658c0,0.151 -0.062,0.289 -0.161,0.388l-0.001 0.001c-0.099,0.099 -0.237,0.16 -0.388,0.16 -0.151,0 -0.289,-0.061 -0.388,-0.16l-0.004 -0.005c-0.097,-0.099 -0.157,-0.234 -0.157,-0.384 0,-0.151 0.062,-0.288 0.161,-0.388 0.099,-0.099 0.237,-0.161 0.388,-0.161 0.152,0 0.289,0.062 0.388,0.161l0.001 0c0.099,0.1 0.161,0.237 0.161,0.388zm-0.271 0.279c0.071,-0.071 0.115,-0.17 0.115,-0.279 0,-0.109 -0.044,-0.207 -0.115,-0.278 -0.071,-0.072 -0.17,-0.116 -0.279,-0.116 -0.108,0 -0.207,0.044 -0.278,0.116 -0.072,0.071 -0.116,0.169 -0.116,0.278 0,0.107 0.043,0.204 0.112,0.275l0.004 0.004c0.071,0.071 0.17,0.115 0.278,0.115 0.109,0 0.208,-0.044 0.279,-0.115z"/>
   </g>
  </g>
 </g>
</svg>
