<?xml version="1.0" encoding="UTF-8"?>
<!DOCTYPE svg PUBLIC "-//W3C//DTD SVG 1.1//EN" "http://www.w3.org/Graphics/SVG/1.1/DTD/svg11.dtd">
<!-- Creator: CorelDRAW 2018 (64-Bit) -->
<svg xmlns="http://www.w3.org/2000/svg" xml:space="preserve" width="51px" height="64px" version="1.1" style="shape-rendering:geometricPrecision; text-rendering:geometricPrecision; image-rendering:optimizeQuality; fill-rule:evenodd; clip-rule:evenodd"
viewBox="0 0 10.722 13.451"
 xmlns:xlink="http://www.w3.org/1999/xlink">
 <defs>
  <style type="text/css">
   <![CDATA[
    .fil0 {fill:#7288A1}
   ]]>
  </style>
 </defs>
 <g id="Layer_x0020_1">
  <metadata id="CorelCorpID_0Corel-Layer"/>
  <path class="fil0" d="M10.722 0l0 13.451 -1.104 0c-0.161,0 -0.292,-0.131 -0.292,-0.293l0 -5.038 -5.038 1.1 0 3.938c0,0.162 -0.13,0.293 -0.292,0.293l-1.286 0c-0.162,0 -0.293,-0.131 -0.293,-0.293l0 -3.529 -2.063 0.451c-0.158,0.034 -0.313,-0.066 -0.347,-0.224 -0.004,-0.02 -0.007,-0.041 -0.007,-0.061l0 -1.287c0,-0.145 0.106,-0.266 0.245,-0.288l2.172 -0.475 0 -2.399 -0.691 0.151c-0.158,0.034 -0.313,-0.066 -0.347,-0.224 -0.005,-0.02 -0.007,-0.041 -0.007,-0.061l0 -1.288c0,-0.145 0.106,-0.266 0.245,-0.289l0.8 -0.173 0 -3.17c0,-0.161 0.131,-0.292 0.293,-0.292l1.286 0c0.162,0 0.292,0.131 0.292,0.292l0 2.762 2.208 -0.481c0.158,-0.034 0.313,0.066 0.347,0.224 0.005,0.021 0.007,0.041 0.007,0.062l0 1.284c0,0.145 -0.106,0.265 -0.245,0.288l-2.317 0.506 0 2.399 5.038 -1.101 0 -5.943c0,-0.161 0.131,-0.292 0.292,-0.292l1.104 0z"/>
 </g>
</svg>
