<?xml version="1.0" encoding="UTF-8"?>
<!DOCTYPE svg PUBLIC "-//W3C//DTD SVG 1.1//EN" "http://www.w3.org/Graphics/SVG/1.1/DTD/svg11.dtd">
<!-- Creator: CorelDRAW 2018 (64-Bit) -->
<svg xmlns="http://www.w3.org/2000/svg" xml:space="preserve" width="47px" height="64px" version="1.1" style="shape-rendering:geometricPrecision; text-rendering:geometricPrecision; image-rendering:optimizeQuality; fill-rule:evenodd; clip-rule:evenodd"
viewBox="0 0 1.422 1.918"
 xmlns:xlink="http://www.w3.org/1999/xlink">
 <defs>
  <style type="text/css">
   <![CDATA[
    .fil0 {fill:#4388F7}
   ]]>
  </style>
 </defs>
 <g id="Layer_x0020_1">
  <metadata id="CorelCorpID_0Corel-Layer"/>
  <path class="fil0" d="M1.422 0.157l0 0.283c-0.019,0.014 -0.046,0.012 -0.063,-0.005 -0.022,-0.022 -0.045,-0.043 -0.07,-0.061l-0.003 -0.002c-0.025,-0.018 -0.052,-0.034 -0.079,-0.047 -0.035,-0.017 -0.07,-0.03 -0.107,-0.039 -0.036,-0.008 -0.073,-0.012 -0.111,-0.012 -0.053,0 -0.102,0.008 -0.147,0.024 -0.048,0.016 -0.091,0.04 -0.13,0.07 -0.04,0.032 -0.076,0.07 -0.107,0.114 -0.032,0.046 -0.059,0.098 -0.08,0.153l0.636 0c0.027,0 0.048,0.022 0.048,0.048l0 0.129c0,0.026 -0.021,0.048 -0.048,0.048l-0.687 0 -0.003 0.049 -0.001 0.026 0 0.047c0.001,0.025 0.001,0.052 0.004,0.076l0.687 0c0.027,0 0.048,0.022 0.048,0.048l0 0.129c0,0.026 -0.021,0.048 -0.048,0.048l-0.636 0c0.021,0.055 0.047,0.105 0.078,0.15l0.002 0.003c0.031,0.044 0.067,0.082 0.107,0.114 0.039,0.03 0.082,0.054 0.13,0.07 0.045,0.016 0.094,0.024 0.147,0.024 0.038,0 0.075,-0.004 0.111,-0.012 0.037,-0.009 0.073,-0.022 0.107,-0.038 0.027,-0.014 0.054,-0.03 0.079,-0.049 0.026,-0.018 0.051,-0.039 0.073,-0.062 0.017,-0.017 0.044,-0.019 0.063,-0.005l0 0.283c-0.039,0.031 -0.08,0.057 -0.124,0.08 -0.049,0.025 -0.101,0.044 -0.155,0.057 -0.052,0.013 -0.107,0.02 -0.162,0.02 -0.083,0 -0.162,-0.015 -0.235,-0.044 -0.075,-0.029 -0.144,-0.072 -0.205,-0.127 -0.064,-0.056 -0.119,-0.125 -0.164,-0.204 -0.045,-0.078 -0.081,-0.166 -0.106,-0.26l-0.223 0c-0.027,0 -0.048,-0.022 -0.048,-0.048l0 -0.129c0,-0.026 0.021,-0.048 0.048,-0.048l0.186 0 -0.002 -0.049c-0.001,-0.017 -0.001,-0.033 -0.001,-0.05 0,-0.033 0.001,-0.066 0.003,-0.099l-0.186 0c-0.027,0 -0.048,-0.022 -0.048,-0.048l0 -0.129c0,-0.026 0.021,-0.048 0.048,-0.048l0.223 0c0.025,-0.094 0.061,-0.182 0.106,-0.26 0.045,-0.079 0.1,-0.148 0.164,-0.204 0.061,-0.055 0.13,-0.098 0.205,-0.127 0.073,-0.029 0.152,-0.044 0.235,-0.044 0.055,0 0.11,0.007 0.162,0.02 0.054,0.013 0.106,0.032 0.155,0.057 0.044,0.023 0.085,0.049 0.124,0.08z"/>
 </g>
</svg>
