<?xml version="1.0" encoding="UTF-8"?>
<!DOCTYPE svg PUBLIC "-//W3C//DTD SVG 1.1//EN" "http://www.w3.org/Graphics/SVG/1.1/DTD/svg11.dtd">
<!-- Creator: CorelDRAW 2018 (64-Bit) -->
<svg xmlns="http://www.w3.org/2000/svg" xml:space="preserve" width="32px" height="71px" version="1.1" style="shape-rendering:geometricPrecision; text-rendering:geometricPrecision; image-rendering:optimizeQuality; fill-rule:evenodd; clip-rule:evenodd"
viewBox="0 0 0.88 1.96"
 xmlns:xlink="http://www.w3.org/1999/xlink">
 <defs>
  <style type="text/css">
   <![CDATA[
    .fil0 {fill:#4FA664}
   ]]>
  </style>
 </defs>
 <g id="Layer_x0020_1">
  <metadata id="CorelCorpID_0Corel-Layer"/>
  <path class="fil0" d="M0.88 0.365l0 0.304 -0.062 0c-0.023,0 -0.044,-0.018 -0.046,-0.042 -0.002,-0.014 -0.004,-0.028 -0.007,-0.041 -0.002,-0.013 -0.006,-0.025 -0.01,-0.037 -0.007,-0.018 -0.015,-0.035 -0.024,-0.051 -0.01,-0.015 -0.021,-0.03 -0.034,-0.043 -0.013,-0.014 -0.026,-0.025 -0.04,-0.034 -0.014,-0.008 -0.028,-0.015 -0.044,-0.02l-0.002 0c-0.017,-0.005 -0.034,-0.009 -0.053,-0.011 -0.019,-0.002 -0.041,-0.003 -0.066,-0.003 -0.023,0 -0.044,0.002 -0.064,0.005 -0.019,0.003 -0.038,0.007 -0.054,0.013 -0.018,0.005 -0.033,0.013 -0.048,0.021 -0.014,0.009 -0.027,0.019 -0.039,0.03 -0.012,0.011 -0.022,0.022 -0.03,0.033l-0.002 0.003c-0.009,0.011 -0.016,0.023 -0.022,0.036 -0.005,0.013 -0.01,0.027 -0.013,0.041 -0.003,0.016 -0.004,0.033 -0.004,0.052 0,0.017 0.001,0.032 0.004,0.045 0.004,0.013 0.008,0.025 0.015,0.037 0.006,0.012 0.014,0.023 0.023,0.033 0.01,0.012 0.022,0.023 0.035,0.034 0.012,0.01 0.027,0.021 0.044,0.031 0.017,0.011 0.036,0.021 0.057,0.03 0.021,0.01 0.044,0.019 0.069,0.028 0.024,0.009 0.051,0.017 0.081,0.026 0.031,0.009 0.061,0.02 0.09,0.032 0.03,0.012 0.058,0.027 0.084,0.042 0.027,0.016 0.052,0.034 0.076,0.053 0.026,0.02 0.048,0.041 0.068,0.061 0.006,0.007 0.012,0.014 0.018,0.021l0 0.518c-0.012,0.014 -0.026,0.027 -0.04,0.039 -0.018,0.015 -0.036,0.028 -0.055,0.04 -0.02,0.011 -0.04,0.022 -0.061,0.03 -0.022,0.009 -0.045,0.017 -0.068,0.022 -0.023,0.006 -0.048,0.011 -0.073,0.014l0 0.156c0,0.026 -0.021,0.047 -0.047,0.047l-0.098 0c-0.026,0 -0.047,-0.021 -0.047,-0.047l0 -0.161c-0.022,-0.004 -0.044,-0.009 -0.065,-0.016 -0.022,-0.007 -0.043,-0.015 -0.063,-0.024 -0.02,-0.01 -0.04,-0.021 -0.059,-0.033 -0.02,-0.012 -0.039,-0.026 -0.057,-0.04 -0.025,-0.02 -0.047,-0.042 -0.066,-0.066 -0.019,-0.024 -0.035,-0.05 -0.047,-0.077 -0.01,-0.022 -0.017,-0.045 -0.023,-0.068 -0.005,-0.023 -0.009,-0.046 -0.011,-0.07l0 -0.007c0,-0.025 0.021,-0.046 0.047,-0.046l0.095 0c0.025,0 0.045,0.018 0.047,0.043 0.001,0.014 0.003,0.027 0.005,0.039 0.002,0.011 0.006,0.021 0.01,0.031 0.006,0.015 0.013,0.028 0.023,0.04 0.01,0.012 0.023,0.025 0.039,0.038 0.016,0.013 0.033,0.024 0.05,0.033 0.017,0.009 0.035,0.017 0.053,0.023l0.002 0.001c0.019,0.006 0.038,0.01 0.059,0.014l0.001 0c0.022,0.003 0.044,0.004 0.067,0.004 0.023,0 0.044,0 0.063,-0.001 0.018,-0.002 0.035,-0.004 0.051,-0.007 0.016,-0.004 0.031,-0.009 0.045,-0.016 0.014,-0.007 0.028,-0.015 0.041,-0.026 0.013,-0.011 0.025,-0.022 0.035,-0.034 0.01,-0.011 0.018,-0.022 0.024,-0.035 0.006,-0.012 0.011,-0.026 0.015,-0.041 0.003,-0.014 0.005,-0.031 0.005,-0.051 0,-0.018 -0.002,-0.033 -0.005,-0.047 -0.002,-0.014 -0.007,-0.027 -0.012,-0.04 -0.006,-0.012 -0.013,-0.023 -0.021,-0.034 -0.008,-0.012 -0.019,-0.024 -0.031,-0.036 -0.011,-0.011 -0.023,-0.023 -0.038,-0.033 -0.013,-0.01 -0.029,-0.02 -0.046,-0.029l-0.003 -0.002c-0.018,-0.009 -0.038,-0.019 -0.061,-0.027 -0.023,-0.009 -0.049,-0.018 -0.079,-0.026 -0.034,-0.009 -0.067,-0.019 -0.099,-0.031 -0.031,-0.012 -0.06,-0.025 -0.088,-0.039 -0.027,-0.014 -0.052,-0.029 -0.075,-0.045 -0.024,-0.016 -0.046,-0.034 -0.065,-0.052 -0.021,-0.02 -0.039,-0.041 -0.056,-0.064 -0.016,-0.023 -0.03,-0.048 -0.042,-0.073 -0.011,-0.025 -0.02,-0.051 -0.026,-0.078 -0.006,-0.026 -0.009,-0.053 -0.009,-0.079 0,-0.028 0.004,-0.056 0.01,-0.084 0.006,-0.028 0.015,-0.055 0.027,-0.081 0.013,-0.028 0.028,-0.053 0.045,-0.077 0.018,-0.024 0.038,-0.047 0.06,-0.067 0.015,-0.015 0.032,-0.028 0.049,-0.04 0.018,-0.012 0.036,-0.023 0.055,-0.032 0.019,-0.009 0.039,-0.017 0.06,-0.023 0.02,-0.007 0.042,-0.012 0.064,-0.016l0 -0.158c0,-0.026 0.021,-0.047 0.047,-0.047l0.098 0c0.026,0 0.047,0.021 0.047,0.047l0 0.157c0.027,0.003 0.053,0.009 0.079,0.017 0.025,0.007 0.049,0.016 0.072,0.027 0.023,0.011 0.044,0.023 0.064,0.038 0.02,0.014 0.038,0.03 0.054,0.047 0.01,0.01 0.019,0.021 0.028,0.032z"/>
 </g>
</svg>
