<?xml version="1.0" encoding="UTF-8"?>
<!DOCTYPE svg PUBLIC "-//W3C//DTD SVG 1.1//EN" "http://www.w3.org/Graphics/SVG/1.1/DTD/svg11.dtd">
<!-- Creator: CorelDRAW 2018 (64-Bit) -->
<svg xmlns="http://www.w3.org/2000/svg" xml:space="preserve" width="30px" height="30px" version="1.1" style="shape-rendering:geometricPrecision; text-rendering:geometricPrecision; image-rendering:optimizeQuality; fill-rule:evenodd; clip-rule:evenodd"
viewBox="0 0 2.708 2.708"
 xmlns:xlink="http://www.w3.org/1999/xlink">
 <defs>
  <style type="text/css">
   <![CDATA[
    .str0 {stroke:white;stroke-width:0.09;stroke-linecap:round;stroke-linejoin:round;stroke-miterlimit:2.61313}
    .fil0 {fill:#5BB370}
    .fil1 {fill:white;fill-rule:nonzero}
   ]]>
  </style>
 </defs>
 <g id="Layer_x0020_1">
  <metadata id="CorelCorpID_0Corel-Layer"/>
  <g id="_2081755655776">
   <circle class="fil0" cx="1.354" cy="1.354" r="1.354"/>
   <path class="fil1 str0" d="M1.661 1.613c0.013,0.03 0.02,0.063 0.02,0.102 0,0.043 -0.008,0.079 -0.024,0.11 -0.016,0.031 -0.039,0.056 -0.069,0.081 -0.031,0.026 -0.064,0.04 -0.102,0.049 -0.035,0.008 -0.073,0.01 -0.12,0.01 -0.049,0 -0.094,-0.007 -0.136,-0.021 -0.043,-0.014 -0.081,-0.034 -0.116,-0.062 -0.036,-0.03 -0.059,-0.058 -0.074,-0.094 -0.01,-0.024 -0.015,-0.05 -0.017,-0.081l-0.093 0c0.003,0.044 0.012,0.084 0.029,0.121 0.021,0.046 0.053,0.087 0.096,0.122 0.033,0.026 0.067,0.048 0.103,0.064 0.036,0.017 0.074,0.029 0.113,0.036l0.037 0.007 0 0.193 0.095 0 0 -0.191 0.04 -0.005c0.046,-0.005 0.087,-0.016 0.125,-0.031 0.037,-0.015 0.07,-0.036 0.1,-0.061 0.037,-0.031 0.065,-0.067 0.083,-0.108 0.019,-0.041 0.028,-0.088 0.028,-0.141 0,-0.049 -0.008,-0.094 -0.023,-0.135 -0.016,-0.04 -0.039,-0.077 -0.07,-0.109 -0.035,-0.037 -0.078,-0.072 -0.13,-0.103 -0.046,-0.027 -0.099,-0.05 -0.158,-0.067 -0.058,-0.017 -0.108,-0.035 -0.151,-0.054 -0.044,-0.021 -0.08,-0.043 -0.108,-0.067 -0.029,-0.024 -0.051,-0.048 -0.067,-0.077 -0.016,-0.029 -0.024,-0.062 -0.024,-0.101 0,-0.042 0.007,-0.077 0.021,-0.108 0.015,-0.031 0.035,-0.058 0.062,-0.084 0.028,-0.027 0.062,-0.047 0.101,-0.06 0.038,-0.012 0.081,-0.019 0.128,-0.019 0.051,0 0.092,0.004 0.129,0.015 0.039,0.012 0.072,0.032 0.103,0.064 0.029,0.031 0.051,0.067 0.065,0.107 0.01,0.027 0.016,0.056 0.019,0.086l0.094 0c-0.001,-0.044 -0.008,-0.087 -0.022,-0.127 -0.014,-0.044 -0.037,-0.086 -0.071,-0.122 -0.029,-0.029 -0.063,-0.054 -0.101,-0.072 -0.04,-0.019 -0.086,-0.032 -0.134,-0.039l-0.039 -0.006 0 -0.19 -0.095 0 0 0.191 -0.037 0.006c-0.039,0.007 -0.076,0.018 -0.109,0.034 -0.032,0.016 -0.062,0.037 -0.089,0.062 -0.038,0.035 -0.069,0.078 -0.091,0.125 -0.02,0.044 -0.032,0.092 -0.032,0.141 0,0.046 0.011,0.091 0.03,0.133 0.02,0.045 0.049,0.085 0.084,0.118 0.035,0.033 0.077,0.062 0.126,0.087 0.05,0.026 0.107,0.047 0.172,0.065 0.059,0.016 0.106,0.034 0.145,0.055 0.04,0.021 0.07,0.044 0.095,0.07 0.026,0.026 0.045,0.051 0.059,0.081z"/>
  </g>
 </g>
</svg>
