<?xml version="1.0" encoding="UTF-8"?>
<!DOCTYPE svg PUBLIC "-//W3C//DTD SVG 1.1//EN" "http://www.w3.org/Graphics/SVG/1.1/DTD/svg11.dtd">
<!-- Creator: CorelDRAW 2018 (64-Bit) -->
<svg xmlns="http://www.w3.org/2000/svg" xml:space="preserve" width="30px" height="30px" version="1.1" style="shape-rendering:geometricPrecision; text-rendering:geometricPrecision; image-rendering:optimizeQuality; fill-rule:evenodd; clip-rule:evenodd"
viewBox="0 0 2.104 2.104"
 xmlns:xlink="http://www.w3.org/1999/xlink">
 <defs>
  <style type="text/css">
   <![CDATA[
    .fil0 {fill:#5796FC}
    .fil1 {fill:white;fill-rule:nonzero}
   ]]>
  </style>
 </defs>
 <g id="Layer_x0020_1">
  <metadata id="CorelCorpID_0Corel-Layer"/>
  <g id="_2081673611456">
   <circle class="fil0" cx="1.052" cy="1.052" r="1.052"/>
   <path class="fil1" d="M1.287 1.481c0.018,-0.014 0.036,-0.029 0.053,-0.046 0.014,-0.014 0.036,-0.014 0.049,0l0.078 0.077c0.013,0.013 0.014,0.034 0.001,0.048 -0.025,0.029 -0.052,0.055 -0.081,0.077 -0.029,0.023 -0.06,0.043 -0.092,0.059 -0.036,0.019 -0.074,0.033 -0.113,0.043 -0.039,0.009 -0.078,0.014 -0.119,0.014 -0.06,0 -0.118,-0.011 -0.171,-0.032 -0.056,-0.021 -0.106,-0.053 -0.151,-0.093 -0.046,-0.041 -0.086,-0.092 -0.119,-0.149 -0.033,-0.057 -0.06,-0.121 -0.078,-0.191l-0.163 0c-0.019,0 -0.035,-0.015 -0.035,-0.035l0 -0.094c0,-0.019 0.016,-0.035 0.035,-0.035l0.136 0 -0.002 -0.036c0,-0.012 0,-0.024 0,-0.036 0,-0.025 0.001,-0.048 0.002,-0.073l-0.136 0c-0.019,0 -0.035,-0.015 -0.035,-0.035l0 -0.094c0,-0.019 0.016,-0.035 0.035,-0.035l0.163 0c0.018,-0.069 0.045,-0.133 0.078,-0.19 0.033,-0.058 0.073,-0.108 0.119,-0.15 0.045,-0.04 0.095,-0.071 0.151,-0.093 0.053,-0.02 0.111,-0.031 0.171,-0.031 0.041,0 0.08,0.005 0.119,0.014 0.039,0.009 0.077,0.024 0.113,0.042 0.032,0.017 0.063,0.037 0.092,0.059 0.028,0.023 0.055,0.048 0.081,0.077 0.013,0.013 0.012,0.035 -0.001,0.048l-0.078 0.078c-0.013,0.013 -0.035,0.013 -0.049,0 -0.016,-0.017 -0.034,-0.032 -0.052,-0.045l-0.002 -0.001c-0.018,-0.013 -0.037,-0.025 -0.058,-0.035 -0.025,-0.012 -0.051,-0.022 -0.078,-0.028 -0.026,-0.006 -0.053,-0.009 -0.081,-0.009 -0.038,0 -0.074,0.006 -0.108,0.017 -0.034,0.012 -0.066,0.03 -0.095,0.052 -0.029,0.023 -0.055,0.051 -0.078,0.083 -0.023,0.034 -0.043,0.071 -0.058,0.112l0.465 0c0.019,0 0.035,0.016 0.035,0.035l0 0.094c0,0.02 -0.016,0.035 -0.035,0.035l-0.502 0 -0.003 0.036 -0.001 0.02 0 0.034c0.001,0.018 0.002,0.037 0.004,0.055l0.502 0c0.019,0 0.035,0.016 0.035,0.035l0 0.094c0,0.02 -0.016,0.035 -0.035,0.035l-0.465 0c0.015,0.041 0.034,0.078 0.057,0.11l0.001 0.002c0.023,0.033 0.049,0.061 0.078,0.084 0.029,0.022 0.061,0.04 0.095,0.051 0.034,0.012 0.07,0.018 0.108,0.018 0.028,0 0.055,-0.003 0.081,-0.009 0.027,-0.007 0.054,-0.016 0.078,-0.028 0.02,-0.01 0.04,-0.022 0.059,-0.035z"/>
  </g>
 </g>
</svg>
