<?xml version="1.0" encoding="UTF-8"?>
<!DOCTYPE svg PUBLIC "-//W3C//DTD SVG 1.1//EN" "http://www.w3.org/Graphics/SVG/1.1/DTD/svg11.dtd">
<!-- Creator: CorelDRAW 2018 (64-Bit) -->
<svg xmlns="http://www.w3.org/2000/svg" xml:space="preserve" width="28px" height="32px" version="1.1" style="shape-rendering:geometricPrecision; text-rendering:geometricPrecision; image-rendering:optimizeQuality; fill-rule:evenodd; clip-rule:evenodd"
viewBox="0 0 7.108 8.208"
 xmlns:xlink="http://www.w3.org/1999/xlink">
 <defs>
  <style type="text/css">
   <![CDATA[
    .fil0 {fill:#FFCC00}
    .fil1 {fill:white}
   ]]>
  </style>
 </defs>
 <g id="Layer_x0020_1">
  <metadata id="CorelCorpID_0Corel-Layer"/>
  <g id="_2081727276016">
   <polygon class="fil0" points="3.554,0 5.331,1.026 7.108,2.052 7.108,4.104 7.108,6.156 5.331,7.182 3.554,8.208 1.777,7.182 0,6.156 0,4.104 0,2.052 1.777,1.026 "/>
   <path class="fil1" d="M2.335 1.744l0.452 0c0.056,0 0.102,0.046 0.102,0.103l0 0.969 0.775 -0.169c0.055,-0.012 0.11,0.023 0.122,0.079 0.001,0.007 0.002,0.014 0.002,0.021l0 0.451c0,0.051 -0.037,0.093 -0.086,0.101l-0.813 0.177 0 0.842 1.768 -0.386 0 -2.085c0,-0.057 0.046,-0.103 0.102,-0.103l0.452 0c0.056,0 0.102,0.046 0.102,0.103l0 4.514c0,0.057 -0.046,0.103 -0.102,0.103l-0.452 0c-0.056,0 -0.102,-0.046 -0.102,-0.103l0 -1.768 -1.768 0.386 0 1.382c0,0.057 -0.046,0.103 -0.102,0.103l-0.452 0c-0.056,0 -0.102,-0.046 -0.102,-0.103l0 -1.238 -0.724 0.158c-0.056,0.012 -0.11,-0.023 -0.122,-0.079 -0.002,-0.007 -0.002,-0.014 -0.002,-0.021l0 -0.452c0,-0.051 0.037,-0.093 0.085,-0.101l0.763 -0.167 0 -0.841 -0.243 0.053c-0.055,0.012 -0.11,-0.023 -0.122,-0.079 -0.001,-0.007 -0.002,-0.014 -0.002,-0.021l0 -0.452c0,-0.051 0.037,-0.093 0.086,-0.101l0.281 -0.061 0 -1.112c0,-0.057 0.046,-0.103 0.102,-0.103z"/>
  </g>
 </g>
</svg>
