<?xml version="1.0" encoding="UTF-8"?>
<!DOCTYPE svg PUBLIC "-//W3C//DTD SVG 1.1//EN" "http://www.w3.org/Graphics/SVG/1.1/DTD/svg11.dtd">
<!-- Creator: CorelDRAW 2018 (64-Bit) -->
<svg xmlns="http://www.w3.org/2000/svg" xml:space="preserve" width="28px" height="32px" version="1.1" style="shape-rendering:geometricPrecision; text-rendering:geometricPrecision; image-rendering:optimizeQuality; fill-rule:evenodd; clip-rule:evenodd"
viewBox="0 0 3.214 3.712"
 xmlns:xlink="http://www.w3.org/1999/xlink">
 <defs>
  <style type="text/css">
   <![CDATA[
    .fil0 {fill:#8397AB}
    .fil1 {fill:white}
   ]]>
  </style>
 </defs>
 <g id="Layer_x0020_1">
  <metadata id="CorelCorpID_0Corel-Layer"/>
  <g id="_2081763383472">
   <polygon class="fil0" points="1.607,0 2.411,0.464 3.214,0.928 3.214,1.856 3.214,2.784 2.411,3.248 1.607,3.712 0.804,3.248 0,2.784 0,1.856 0,0.928 0.804,0.464 "/>
   <path class="fil1" d="M1.056 0.789l0.204 0c0.026,0 0.047,0.021 0.047,0.046l0 0.438 0.35 -0.076c0.025,-0.005 0.05,0.011 0.055,0.036 0.001,0.003 0.001,0.006 0.001,0.009l0 0.204c0,0.023 -0.017,0.042 -0.039,0.046l-0.367 0.08 0 0.381 0.799 -0.175 0 -0.943c0,-0.025 0.021,-0.046 0.046,-0.046l0.204 0c0.026,0 0.047,0.021 0.047,0.046l0 2.042c0,0.025 -0.021,0.046 -0.047,0.046l-0.204 0c-0.025,0 -0.046,-0.021 -0.046,-0.046l0 -0.8 -0.799 0.175 0 0.625c0,0.025 -0.021,0.046 -0.047,0.046l-0.204 0c-0.026,0 -0.046,-0.021 -0.046,-0.046l0 -0.56 -0.328 0.071c-0.025,0.006 -0.049,-0.01 -0.055,-0.035 0,-0.004 -0.001,-0.007 -0.001,-0.01l0 -0.204c0,-0.023 0.017,-0.042 0.039,-0.046l0.345 -0.075 0 -0.381 -0.11 0.024c-0.025,0.005 -0.05,-0.011 -0.055,-0.036 -0.001,-0.003 -0.001,-0.006 -0.001,-0.009l0 -0.205c0,-0.023 0.017,-0.042 0.039,-0.045l0.127 -0.028 0 -0.503c0,-0.025 0.02,-0.046 0.046,-0.046z"/>
  </g>
 </g>
</svg>
