<?xml version="1.0" encoding="UTF-8"?>
<!DOCTYPE svg PUBLIC "-//W3C//DTD SVG 1.1//EN" "http://www.w3.org/Graphics/SVG/1.1/DTD/svg11.dtd">
<!-- Creator: CorelDRAW 2018 (64-Bit) -->
<svg xmlns="http://www.w3.org/2000/svg" xml:space="preserve" width="28px" height="32px" version="1.1" style="shape-rendering:geometricPrecision; text-rendering:geometricPrecision; image-rendering:optimizeQuality; fill-rule:evenodd; clip-rule:evenodd"
viewBox="0 0 25.187 29.084"
 xmlns:xlink="http://www.w3.org/1999/xlink">
 <defs>
  <style type="text/css">
   <![CDATA[
    .fil1 {fill:#FFCC00}
    .fil0 {fill:white}
   ]]>
  </style>
 </defs>
 <g id="Layer_x0020_1">
  <metadata id="CorelCorpID_0Corel-Layer"/>
  <g id="_2082159093472">
   <polygon class="fil0" points="12.594,0 18.89,3.635 25.187,7.271 25.187,14.542 25.187,21.813 18.89,25.448 12.594,29.084 6.297,25.448 0,21.813 0,14.542 0,7.271 6.297,3.635 "/>
   <path class="fil1" d="M8.275 6.18l1.599 0c0.201,0 0.364,0.163 0.364,0.364l0 3.434 2.745 -0.598c0.196,-0.043 0.389,0.082 0.431,0.278 0.006,0.026 0.009,0.051 0.009,0.077l0 1.596c0,0.181 -0.132,0.33 -0.305,0.359l-2.88 0.628 0 2.983 6.263 -1.369 0 -7.388c0,-0.201 0.162,-0.364 0.363,-0.364l1.6 0c0.2,0 0.363,0.163 0.363,0.364l0 15.996c0,0.201 -0.163,0.364 -0.363,0.364l-1.6 0c-0.201,0 -0.363,-0.163 -0.363,-0.364l0 -6.265 -6.263 1.369 0 4.896c0,0.201 -0.163,0.364 -0.364,0.364l-1.599 0c-0.201,0 -0.364,-0.163 -0.364,-0.364l0 -4.388 -2.565 0.561c-0.196,0.042 -0.389,-0.083 -0.431,-0.278 -0.006,-0.026 -0.008,-0.052 -0.008,-0.077l-0.001 -1.6c0,-0.18 0.132,-0.33 0.305,-0.359l2.7 -0.59 0 -2.982 -0.859 0.188c-0.196,0.042 -0.39,-0.082 -0.432,-0.278 -0.006,-0.026 -0.008,-0.052 -0.008,-0.077l-0.001 -1.601c0,-0.181 0.133,-0.331 0.305,-0.359l0.995 -0.216 0 -3.94c0,-0.201 0.163,-0.364 0.364,-0.364z"/>
  </g>
 </g>
</svg>
