<?xml version="1.0" encoding="UTF-8"?>
<!DOCTYPE svg PUBLIC "-//W3C//DTD SVG 1.1//EN" "http://www.w3.org/Graphics/SVG/1.1/DTD/svg11.dtd">
<!-- Creator: CorelDRAW 2018 (64-Bit) -->
<svg xmlns="http://www.w3.org/2000/svg" xml:space="preserve" width="28px" height="32px" version="1.1" style="shape-rendering:geometricPrecision; text-rendering:geometricPrecision; image-rendering:optimizeQuality; fill-rule:evenodd; clip-rule:evenodd"
viewBox="0 0 1.899 2.192"
 xmlns:xlink="http://www.w3.org/1999/xlink">
 <defs>
  <style type="text/css">
   <![CDATA[
    .fil1 {fill:#8397AB}
    .fil0 {fill:white}
   ]]>
  </style>
 </defs>
 <g id="Layer_x0020_1">
  <metadata id="CorelCorpID_0Corel-Layer"/>
  <g id="_2117479218544">
   <polygon class="fil0" points="0.949,0 1.424,0.274 1.899,0.548 1.899,1.096 1.899,1.644 1.424,1.918 0.949,2.192 0.475,1.918 0,1.644 0,1.096 0,0.548 0.475,0.274 "/>
   <path class="fil1" d="M0.624 0.466l0.12 0c0.015,0 0.028,0.012 0.028,0.027l0 0.259 0.207 -0.045c0.014,-0.003 0.029,0.006 0.032,0.021 0.001,0.002 0.001,0.004 0.001,0.006l0 0.12c0,0.014 -0.01,0.025 -0.023,0.027l-0.217 0.048 0 0.224 0.472 -0.103 0 -0.557c0,-0.015 0.012,-0.027 0.027,-0.027l0.121 0c0.015,0 0.027,0.012 0.027,0.027l0 1.206c0,0.015 -0.012,0.027 -0.027,0.027l-0.121 0c-0.015,0 -0.027,-0.012 -0.027,-0.027l0 -0.472 -0.472 0.103 0 0.369c0,0.015 -0.013,0.027 -0.028,0.027l-0.12 0c-0.015,0 -0.028,-0.012 -0.028,-0.027l0 -0.331 -0.193 0.043c-0.015,0.003 -0.029,-0.007 -0.033,-0.021 0,-0.002 0,-0.004 0,-0.006l0 -0.121c0,-0.013 0.01,-0.025 0.023,-0.027l0.203 -0.044 0 -0.225 -0.064 0.014c-0.015,0.003 -0.03,-0.006 -0.033,-0.021 0,-0.002 -0.001,-0.004 -0.001,-0.006l0 -0.12c0,-0.014 0.01,-0.025 0.023,-0.027l0.075 -0.017 0 -0.297c0,-0.015 0.013,-0.027 0.028,-0.027z"/>
  </g>
 </g>
</svg>
