<?xml version="1.0" encoding="UTF-8"?>
<!DOCTYPE svg PUBLIC "-//W3C//DTD SVG 1.1//EN" "http://www.w3.org/Graphics/SVG/1.1/DTD/svg11.dtd">
<!-- Creator: CorelDRAW 2018 (64-Bit) -->
<svg xmlns="http://www.w3.org/2000/svg" xml:space="preserve" width="30px" height="30px" version="1.1" style="shape-rendering:geometricPrecision; text-rendering:geometricPrecision; image-rendering:optimizeQuality; fill-rule:evenodd; clip-rule:evenodd"
viewBox="0 0 0.7 0.7"
 xmlns:xlink="http://www.w3.org/1999/xlink">
 <defs>
  <style type="text/css">
   <![CDATA[
    .fil0 {fill:white}
    .fil1 {fill:#5796FC;fill-rule:nonzero}
   ]]>
  </style>
 </defs>
 <g id="Layer_x0020_1">
  <metadata id="CorelCorpID_0Corel-Layer"/>
  <g id="_2117742630352">
   <circle class="fil0" cx="0.35" cy="0.35" r="0.35"/>
   <path class="fil1" d="M0.428 0.493c0.006,-0.005 0.012,-0.01 0.018,-0.015 0.005,-0.005 0.012,-0.005 0.016,0l0.026 0.025c0.005,0.005 0.005,0.012 0.001,0.016 -0.009,0.01 -0.018,0.018 -0.027,0.026 -0.01,0.008 -0.02,0.014 -0.031,0.02 -0.012,0.006 -0.025,0.011 -0.038,0.014 -0.012,0.003 -0.026,0.004 -0.039,0.004 -0.02,0 -0.039,-0.003 -0.057,-0.01 -0.019,-0.007 -0.035,-0.018 -0.05,-0.031 -0.016,-0.014 -0.029,-0.031 -0.04,-0.05 -0.011,-0.019 -0.02,-0.04 -0.026,-0.063l-0.054 0c-0.007,0 -0.012,-0.005 -0.012,-0.012l0 -0.031c0,-0.007 0.005,-0.012 0.012,-0.012l0.045 0 0 -0.012c-0.001,-0.004 -0.001,-0.008 -0.001,-0.012 0,-0.008 0.001,-0.016 0.001,-0.024l-0.045 0c-0.007,0 -0.012,-0.005 -0.012,-0.012l0 -0.031c0,-0.006 0.005,-0.012 0.012,-0.012l0.054 0c0.006,-0.023 0.015,-0.044 0.026,-0.063 0.011,-0.019 0.024,-0.036 0.04,-0.05 0.015,-0.013 0.031,-0.024 0.05,-0.031 0.018,-0.007 0.037,-0.01 0.057,-0.01 0.013,0 0.027,0.001 0.039,0.004 0.013,0.004 0.026,0.008 0.038,0.015 0.011,0.005 0.021,0.012 0.031,0.019 0.009,0.008 0.018,0.016 0.026,0.026 0.005,0.004 0.005,0.011 0,0.016l-0.026 0.026c-0.004,0.004 -0.011,0.004 -0.016,0 -0.005,-0.006 -0.011,-0.011 -0.017,-0.015l-0.001 -0.001c-0.006,-0.004 -0.012,-0.008 -0.019,-0.011 -0.009,-0.004 -0.017,-0.008 -0.026,-0.01 -0.009,-0.002 -0.018,-0.003 -0.027,-0.003 -0.013,0 -0.025,0.002 -0.036,0.006 -0.011,0.004 -0.022,0.01 -0.032,0.017 -0.009,0.008 -0.018,0.017 -0.026,0.028 -0.007,0.011 -0.014,0.024 -0.019,0.037l0.155 0c0.006,0 0.011,0.006 0.011,0.012l0 0.031c0,0.007 -0.005,0.012 -0.011,0.012l-0.167 0 -0.001 0.012 -0.001 0.006 0 0.012c0.001,0.006 0.001,0.012 0.002,0.018l0.167 0c0.006,0 0.011,0.005 0.011,0.012l0 0.031c0,0.007 -0.005,0.012 -0.011,0.012l-0.155 0c0.005,0.013 0.011,0.026 0.019,0.036l0 0.001c0.008,0.011 0.017,0.02 0.026,0.028 0.01,0.007 0.021,0.013 0.032,0.017 0.011,0.004 0.023,0.006 0.036,0.006 0.009,0 0.018,-0.001 0.027,-0.003 0.009,-0.002 0.018,-0.005 0.026,-0.009 0.006,-0.004 0.013,-0.008 0.019,-0.012z"/>
  </g>
 </g>
</svg>
