<?xml version="1.0" encoding="UTF-8"?>
<!DOCTYPE svg PUBLIC "-//W3C//DTD SVG 1.1//EN" "http://www.w3.org/Graphics/SVG/1.1/DTD/svg11.dtd">
<!-- Creator: CorelDRAW 2018 (64-Bit) -->
<svg xmlns="http://www.w3.org/2000/svg" xml:space="preserve" width="30px" height="30px" version="1.1" style="shape-rendering:geometricPrecision; text-rendering:geometricPrecision; image-rendering:optimizeQuality; fill-rule:evenodd; clip-rule:evenodd"
viewBox="0 0 1.064 1.064"
 xmlns:xlink="http://www.w3.org/1999/xlink">
 <defs>
  <style type="text/css">
   <![CDATA[
    .fil0 {fill:white}
    .fil1 {fill:#5BB370;fill-rule:nonzero}
   ]]>
  </style>
 </defs>
 <g id="Layer_x0020_1">
  <metadata id="CorelCorpID_0Corel-Layer"/>
  <g id="_2082168999488">
   <circle class="fil0" cx="0.532" cy="0.532" r="0.532"/>
   <path class="fil1" d="M0.641 0.656c-0.001,-0.005 -0.003,-0.01 -0.005,-0.015 -0.002,-0.005 -0.004,-0.009 -0.007,-0.013l-0.001 0c-0.003,-0.005 -0.007,-0.009 -0.011,-0.014 -0.004,-0.004 -0.009,-0.008 -0.015,-0.012 -0.005,-0.004 -0.011,-0.008 -0.018,-0.012 -0.007,-0.004 -0.015,-0.007 -0.024,-0.011 -0.008,-0.003 -0.018,-0.006 -0.029,-0.009 -0.013,-0.004 -0.026,-0.008 -0.038,-0.012 -0.012,-0.005 -0.023,-0.01 -0.033,-0.015 -0.011,-0.005 -0.02,-0.011 -0.029,-0.017 -0.009,-0.006 -0.018,-0.013 -0.025,-0.02 -0.008,-0.007 -0.015,-0.015 -0.021,-0.024 -0.006,-0.009 -0.012,-0.018 -0.016,-0.028 -0.004,-0.009 -0.008,-0.019 -0.01,-0.029 -0.002,-0.01 -0.003,-0.021 -0.003,-0.031 0,-0.01 0.001,-0.021 0.003,-0.031 0.003,-0.011 0.006,-0.021 0.011,-0.031 0.005,-0.011 0.01,-0.021 0.017,-0.03 0.006,-0.009 0.014,-0.017 0.022,-0.025 0.006,-0.006 0.013,-0.011 0.019,-0.015 0.007,-0.005 0.014,-0.009 0.021,-0.012 0.007,-0.004 0.015,-0.007 0.023,-0.009 0.008,-0.003 0.016,-0.005 0.024,-0.006l0 -0.06c0,-0.01 0.008,-0.018 0.018,-0.018l0.037 0c0.01,0 0.018,0.008 0.018,0.018l0 0.059c0.01,0.002 0.02,0.004 0.03,0.007 0.009,0.002 0.018,0.006 0.026,0.01l0.002 0c0.008,0.004 0.016,0.009 0.024,0.014 0.007,0.006 0.014,0.012 0.021,0.018 0.007,0.008 0.013,0.017 0.019,0.026 0.005,0.009 0.009,0.019 0.013,0.029 0.003,0.008 0.005,0.017 0.006,0.026 0.002,0.009 0.003,0.018 0.003,0.027l0 0.002c0,0.01 -0.008,0.018 -0.018,0.018l-0.036 0c-0.009,0 -0.017,-0.007 -0.018,-0.016 -0.001,-0.005 -0.001,-0.01 -0.002,-0.015 -0.001,-0.005 -0.003,-0.009 -0.004,-0.013l-0.001 -0.002c-0.002,-0.006 -0.005,-0.013 -0.009,-0.019 -0.003,-0.006 -0.008,-0.011 -0.012,-0.016 -0.005,-0.005 -0.01,-0.009 -0.015,-0.013l-0.001 0c-0.005,-0.003 -0.011,-0.006 -0.017,-0.008 -0.006,-0.002 -0.013,-0.003 -0.02,-0.004 -0.008,0 -0.016,-0.001 -0.026,-0.001 -0.008,0 -0.016,0.001 -0.024,0.002 -0.007,0.001 -0.014,0.003 -0.02,0.005 -0.007,0.002 -0.013,0.005 -0.018,0.008 -0.006,0.003 -0.011,0.007 -0.015,0.011 -0.005,0.005 -0.009,0.009 -0.013,0.014 -0.003,0.004 -0.005,0.009 -0.008,0.014 -0.002,0.004 -0.004,0.01 -0.005,0.015 -0.001,0.006 -0.001,0.013 -0.001,0.02 0,0.006 0,0.012 0.001,0.017 0.002,0.005 0.003,0.01 0.006,0.014 0.002,0.005 0.005,0.009 0.009,0.013 0.004,0.004 0.008,0.008 0.013,0.013 0.004,0.003 0.01,0.007 0.017,0.011 0.006,0.004 0.013,0.008 0.021,0.012 0.008,0.004 0.017,0.007 0.026,0.01 0.009,0.004 0.02,0.007 0.031,0.01 0.012,0.004 0.024,0.008 0.034,0.012 0.012,0.005 0.022,0.011 0.032,0.016 0.011,0.007 0.021,0.013 0.03,0.02 0.009,0.008 0.018,0.016 0.025,0.024 0.007,0.007 0.013,0.015 0.018,0.023 0.005,0.008 0.01,0.017 0.013,0.026 0.004,0.009 0.006,0.018 0.008,0.028 0.002,0.01 0.003,0.02 0.003,0.031 0,0.011 -0.001,0.022 -0.003,0.033 -0.002,0.01 -0.006,0.02 -0.01,0.03 -0.004,0.009 -0.009,0.018 -0.015,0.026 -0.007,0.008 -0.014,0.015 -0.022,0.022 -0.007,0.006 -0.014,0.011 -0.021,0.015 -0.007,0.005 -0.015,0.009 -0.023,0.012 -0.009,0.004 -0.017,0.006 -0.026,0.009 -0.009,0.002 -0.018,0.003 -0.028,0.005l0 0.059c0,0.01 -0.008,0.018 -0.018,0.018l-0.037 0c-0.01,0 -0.018,-0.008 -0.018,-0.018l0 -0.061c-0.008,-0.002 -0.017,-0.004 -0.025,-0.006 -0.008,-0.003 -0.015,-0.006 -0.023,-0.01 -0.008,-0.003 -0.015,-0.007 -0.023,-0.012 -0.008,-0.005 -0.015,-0.01 -0.021,-0.015 -0.01,-0.008 -0.018,-0.016 -0.025,-0.025 -0.008,-0.009 -0.014,-0.019 -0.018,-0.03 -0.004,-0.008 -0.007,-0.016 -0.009,-0.025 -0.002,-0.009 -0.004,-0.018 -0.004,-0.027l0 -0.002c0,-0.01 0.008,-0.018 0.017,-0.018l0.037 0c0.009,0 0.017,0.007 0.017,0.016 0.001,0.005 0.001,0.01 0.002,0.014l0 0.001c0.001,0.004 0.002,0.008 0.004,0.012 0.002,0.005 0.005,0.01 0.008,0.014l0.001 0.001c0.004,0.005 0.009,0.01 0.015,0.015 0.006,0.004 0.012,0.008 0.019,0.012 0.006,0.004 0.013,0.007 0.021,0.009 0.007,0.002 0.015,0.004 0.023,0.005 0.008,0.002 0.016,0.002 0.025,0.002 0.009,0 0.017,0 0.024,-0.001 0.007,0 0.013,-0.001 0.019,-0.002 0.006,-0.002 0.012,-0.003 0.017,-0.006 0.006,-0.003 0.011,-0.006 0.016,-0.01 0.005,-0.004 0.009,-0.008 0.013,-0.012l0 -0.001c0.004,-0.004 0.007,-0.008 0.009,-0.013 0.003,-0.005 0.005,-0.01 0.006,-0.016 0.001,-0.005 0.002,-0.012 0.002,-0.019 0,-0.007 -0.001,-0.013 -0.002,-0.018z"/>
  </g>
 </g>
</svg>
