<?xml version="1.0" encoding="UTF-8"?>
<!DOCTYPE svg PUBLIC "-//W3C//DTD SVG 1.1//EN" "http://www.w3.org/Graphics/SVG/1.1/DTD/svg11.dtd">
<!-- Creator: CorelDRAW 2018 (64-Bit) -->
<svg xmlns="http://www.w3.org/2000/svg" xml:space="preserve" width="30px" height="30px" version="1.1" style="shape-rendering:geometricPrecision; text-rendering:geometricPrecision; image-rendering:optimizeQuality; fill-rule:evenodd; clip-rule:evenodd"
viewBox="0 0 1.743 1.743"
 xmlns:xlink="http://www.w3.org/1999/xlink">
 <defs>
  <style type="text/css">
   <![CDATA[
    .fil0 {fill:#FF6633}
    .fil1 {fill:white;fill-rule:nonzero}
   ]]>
  </style>
 </defs>
 <g id="Layer_x0020_1">
  <metadata id="CorelCorpID_0Corel-Layer"/>
  <g id="_2117462178800">
   <circle class="fil0" cx="0.871" cy="0.871" r="0.871"/>
   <path class="fil1" d="M0.945 1.452l-0.147 0c-0.016,0 -0.029,-0.013 -0.029,-0.029l0 -0.159 -0.111 0c-0.016,0 -0.029,-0.013 -0.029,-0.029l0 -0.094c0,-0.016 0.013,-0.029 0.029,-0.029l0.111 0 0 -0.08 -0.111 0c-0.016,0 -0.029,-0.013 -0.029,-0.029l0 -0.094c0,-0.016 0.013,-0.029 0.029,-0.029l0.109 0 -0.311 -0.544c-0.003,-0.005 -0.005,-0.01 -0.005,-0.017 0,-0.016 0.013,-0.029 0.029,-0.029l0.15 0c0.01,0 0.02,0.006 0.025,0.016l0.216 0.391 0.215 -0.39c0.005,-0.01 0.015,-0.017 0.027,-0.017l0.15 0c0.005,0.001 0.01,0.002 0.014,0.004 0.014,0.008 0.019,0.026 0.011,0.04l-0.312 0.546 0.109 0c0.016,0 0.029,0.013 0.029,0.029l0 0.094c0,0.016 -0.013,0.029 -0.029,0.029l-0.111 0 0 0.08 0.111 0c0.016,0 0.029,0.013 0.029,0.029l0 0.094c0,0.016 -0.013,0.029 -0.029,0.029l-0.111 0 0 0.159c0,0.016 -0.013,0.029 -0.029,0.029z"/>
  </g>
 </g>
</svg>
