<?xml version="1.0" encoding="UTF-8"?>
<!DOCTYPE svg PUBLIC "-//W3C//DTD SVG 1.1//EN" "http://www.w3.org/Graphics/SVG/1.1/DTD/svg11.dtd">
<!-- Creator: CorelDRAW 2018 (64-Bit) -->
<svg xmlns="http://www.w3.org/2000/svg" xml:space="preserve" width="205px" height="74px" version="1.1" style="shape-rendering:geometricPrecision; text-rendering:geometricPrecision; image-rendering:optimizeQuality; fill-rule:evenodd; clip-rule:evenodd"
viewBox="0 0 29.537 10.633"
 xmlns:xlink="http://www.w3.org/1999/xlink">
 <defs>
  <style type="text/css">
   <![CDATA[
    .fil2 {fill:#00F4FF}
    .fil4 {fill:white}
    .fil0 {fill:white}
    .fil3 {fill:#052337;fill-rule:nonzero}
    .fil1 {fill:#052337;fill-rule:nonzero}
   ]]>
  </style>
 </defs>
 <g id="Layer_x0020_1">
  <metadata id="CorelCorpID_0Corel-Layer"/>
  <g id="_1467173914992">
   <rect class="fil0" width="29.537" height="10.633" rx="0.452" ry="0.72"/>
   <path class="fil1" d="M12.884 5.833c0,0.239 -0.051,0.425 -0.152,0.558 -0.101,0.132 -0.237,0.199 -0.406,0.199 -0.079,0 -0.144,-0.011 -0.194,-0.034l0 -0.233c0.05,0.036 0.116,0.054 0.196,0.054 0.213,0 0.32,-0.18 0.32,-0.541l0 -1.297 0.236 0 0 1.294zm1.083 0.757c-0.213,0 -0.383,-0.068 -0.51,-0.202 -0.127,-0.134 -0.19,-0.313 -0.19,-0.535 0,-0.242 0.066,-0.431 0.198,-0.567 0.132,-0.136 0.311,-0.204 0.536,-0.204 0.215,0 0.382,0.066 0.503,0.198 0.12,0.132 0.18,0.316 0.18,0.55 0,0.23 -0.064,0.414 -0.194,0.552 -0.13,0.138 -0.305,0.208 -0.523,0.208zm0.017 -1.314c-0.148,0 -0.265,0.05 -0.352,0.151 -0.086,0.101 -0.129,0.24 -0.129,0.417 0,0.171 0.043,0.305 0.131,0.404 0.087,0.098 0.204,0.148 0.35,0.148 0.149,0 0.264,-0.049 0.344,-0.145 0.08,-0.097 0.12,-0.234 0.12,-0.412 0,-0.18 -0.04,-0.319 -0.12,-0.417 -0.08,-0.098 -0.195,-0.146 -0.344,-0.146zm1.306 1.072l-0.006 0 0 0.208 -0.231 0 0 -2.132 0.231 0 0 0.945 0.006 0c0.113,-0.191 0.279,-0.287 0.498,-0.287 0.184,0 0.329,0.064 0.433,0.194 0.105,0.128 0.157,0.301 0.157,0.518 0,0.241 -0.058,0.434 -0.175,0.579 -0.118,0.144 -0.278,0.217 -0.482,0.217 -0.19,0 -0.334,-0.081 -0.431,-0.242zm-0.006 -0.581l0 0.201c0,0.119 0.038,0.22 0.116,0.303 0.077,0.083 0.175,0.125 0.295,0.125 0.139,0 0.249,-0.054 0.328,-0.161 0.079,-0.107 0.119,-0.255 0.119,-0.446 0,-0.16 -0.037,-0.285 -0.111,-0.377 -0.074,-0.09 -0.175,-0.136 -0.301,-0.136 -0.134,0 -0.242,0.047 -0.324,0.14 -0.081,0.093 -0.122,0.21 -0.122,0.351zm2.283 0.789l0 -2.017 0.557 0c0.711,0 1.066,0.327 1.066,0.983 0,0.311 -0.099,0.562 -0.296,0.751 -0.197,0.188 -0.461,0.283 -0.793,0.283l-0.534 0zm0.236 -1.803l0 1.589 0.301 0c0.265,0 0.47,-0.071 0.618,-0.212 0.147,-0.142 0.221,-0.343 0.221,-0.602 0,-0.517 -0.275,-0.775 -0.825,-0.775l-0.315 0zm2.91 1.14l-1.017 0c0.004,0.161 0.047,0.285 0.13,0.372 0.083,0.087 0.196,0.131 0.34,0.131 0.163,0 0.312,-0.054 0.448,-0.161l0 0.217c-0.127,0.092 -0.294,0.138 -0.502,0.138 -0.204,0 -0.364,-0.066 -0.48,-0.196 -0.117,-0.131 -0.175,-0.315 -0.175,-0.552 0,-0.225 0.064,-0.407 0.191,-0.548 0.127,-0.141 0.285,-0.212 0.473,-0.212 0.189,0 0.334,0.061 0.438,0.183 0.103,0.121 0.154,0.291 0.154,0.507l0 0.121zm-0.236 -0.195c-0.001,-0.133 -0.033,-0.237 -0.096,-0.311 -0.063,-0.074 -0.151,-0.111 -0.264,-0.111 -0.109,0 -0.201,0.039 -0.277,0.117 -0.076,0.077 -0.123,0.179 -0.141,0.305l0.778 0zm1.254 0.844c-0.055,0.03 -0.127,0.045 -0.215,0.045 -0.253,0 -0.379,-0.141 -0.379,-0.422l0 -0.853 -0.248 0 0 -0.196 0.248 0 0 -0.352 0.231 -0.075 0 0.427 0.363 0 0 0.196 -0.363 0 0 0.812c0,0.097 0.016,0.166 0.049,0.207 0.033,0.041 0.087,0.062 0.163,0.062 0.058,0 0.108,-0.016 0.151,-0.048l0 0.197zm1.339 0.014l-0.231 0 0 -0.225 -0.006 0c-0.1,0.173 -0.248,0.259 -0.443,0.259 -0.143,0 -0.256,-0.038 -0.337,-0.114 -0.081,-0.076 -0.121,-0.177 -0.121,-0.303 0,-0.269 0.158,-0.426 0.475,-0.469l0.432 -0.061c0,-0.245 -0.099,-0.367 -0.297,-0.367 -0.173,0 -0.33,0.059 -0.469,0.177l0 -0.236c0.141,-0.09 0.304,-0.135 0.489,-0.135 0.338,0 0.508,0.179 0.508,0.537l0 0.937zm-0.231 -0.729l-0.347 0.048c-0.107,0.015 -0.188,0.041 -0.242,0.08 -0.055,0.038 -0.082,0.105 -0.082,0.202 0,0.07 0.025,0.127 0.075,0.172 0.05,0.045 0.117,0.067 0.201,0.067 0.114,0 0.209,-0.041 0.283,-0.12 0.075,-0.081 0.112,-0.182 0.112,-0.305l0 -0.144zm0.768 -1.077c-0.041,0 -0.076,-0.014 -0.106,-0.042 -0.028,-0.028 -0.043,-0.064 -0.043,-0.107 0,-0.043 0.015,-0.079 0.043,-0.108 0.03,-0.028 0.065,-0.043 0.106,-0.043 0.042,0 0.078,0.015 0.108,0.043 0.029,0.029 0.044,0.065 0.044,0.108 0,0.041 -0.015,0.076 -0.044,0.105 -0.03,0.029 -0.066,0.044 -0.108,0.044zm0.113 1.404c0,0.132 0.051,0.198 0.153,0.198 0.041,0 0.078,-0.005 0.111,-0.015l0 0.208c-0.018,0.004 -0.041,0.009 -0.071,0.013 -0.029,0.004 -0.061,0.007 -0.093,0.007 -0.046,0 -0.09,-0.008 -0.13,-0.023 -0.04,-0.015 -0.075,-0.038 -0.105,-0.069 -0.029,-0.031 -0.053,-0.07 -0.07,-0.116 -0.018,-0.046 -0.026,-0.101 -0.026,-0.163l0 -1.078 0.231 0 0 1.038zm0.73 0c0,0.132 0.051,0.198 0.153,0.198 0.042,0 0.078,-0.005 0.111,-0.015l0 0.208c-0.018,0.004 -0.041,0.009 -0.071,0.013 -0.029,0.004 -0.06,0.007 -0.093,0.007 -0.046,0 -0.089,-0.008 -0.13,-0.023 -0.04,-0.015 -0.075,-0.038 -0.104,-0.069 -0.03,-0.031 -0.054,-0.07 -0.071,-0.116 -0.017,-0.046 -0.026,-0.101 -0.026,-0.163l0 -1.77 0.231 0 0 1.73zm0.428 0.35l0 -0.248c0.125,0.093 0.264,0.14 0.415,0.14 0.202,0 0.304,-0.068 0.304,-0.203 0,-0.038 -0.009,-0.071 -0.026,-0.097 -0.018,-0.027 -0.041,-0.051 -0.071,-0.072 -0.029,-0.02 -0.064,-0.039 -0.104,-0.055 -0.04,-0.017 -0.083,-0.034 -0.129,-0.052 -0.064,-0.025 -0.119,-0.05 -0.168,-0.076 -0.048,-0.026 -0.088,-0.055 -0.121,-0.087 -0.032,-0.033 -0.056,-0.069 -0.073,-0.111 -0.016,-0.041 -0.024,-0.089 -0.024,-0.145 0,-0.067 0.015,-0.127 0.046,-0.179 0.031,-0.052 0.072,-0.096 0.124,-0.131 0.052,-0.035 0.11,-0.062 0.176,-0.08 0.066,-0.017 0.135,-0.026 0.205,-0.026 0.125,0 0.236,0.022 0.335,0.064l0 0.234c-0.106,-0.069 -0.228,-0.104 -0.366,-0.104 -0.043,0 -0.082,0.005 -0.117,0.015 -0.035,0.009 -0.064,0.023 -0.089,0.041 -0.025,0.018 -0.044,0.04 -0.058,0.064 -0.013,0.025 -0.02,0.052 -0.02,0.083 0,0.037 0.007,0.068 0.02,0.094 0.014,0.025 0.034,0.048 0.06,0.067 0.026,0.02 0.058,0.038 0.096,0.054 0.037,0.016 0.08,0.033 0.128,0.052 0.063,0.024 0.121,0.049 0.171,0.075 0.051,0.026 0.094,0.055 0.13,0.087 0.035,0.032 0.063,0.07 0.082,0.112 0.019,0.042 0.029,0.092 0.029,0.15 0,0.072 -0.016,0.134 -0.047,0.186 -0.032,0.053 -0.074,0.096 -0.126,0.131 -0.053,0.035 -0.113,0.06 -0.182,0.078 -0.068,0.016 -0.14,0.025 -0.215,0.025 -0.148,0 -0.277,-0.029 -0.385,-0.086z"/>
   <rect class="fil2" x="3.708" y="3.231" width="5.305" height="4.013" rx="0.513" ry="0.471"/>
   <path class="fil3" d="M4.179 3.159l4.363 0c0.149,0 0.285,0.061 0.384,0.16l0.004 0.004c0.096,0.098 0.155,0.232 0.155,0.379l0 3.072c0,0.149 -0.061,0.285 -0.159,0.383 -0.099,0.099 -0.235,0.16 -0.384,0.16l-4.363 0c-0.149,0 -0.285,-0.061 -0.383,-0.16 -0.099,-0.098 -0.16,-0.234 -0.16,-0.383l0 -3.072c0,-0.149 0.061,-0.285 0.159,-0.383 0.099,-0.099 0.235,-0.16 0.384,-0.16zm4.363 0.144l-4.363 0c-0.11,0 -0.21,0.045 -0.282,0.118 -0.072,0.072 -0.117,0.172 -0.117,0.281l0 3.072c0,0.109 0.045,0.209 0.117,0.281 0.072,0.073 0.172,0.118 0.282,0.118l4.363 0c0.11,0 0.209,-0.045 0.282,-0.118 0.072,-0.072 0.117,-0.172 0.117,-0.281l0 -3.072c0,-0.108 -0.043,-0.206 -0.114,-0.278l-0.003 -0.003c-0.073,-0.073 -0.172,-0.118 -0.282,-0.118z"/>
   <path class="fil3" d="M3.681 4.335c-0.037,-0.015 -0.054,-0.057 -0.039,-0.094 0.015,-0.036 0.057,-0.054 0.093,-0.039 0.768,0.315 1.318,0.528 2.029,0.803l0.048 0.019c0.032,0.012 0.063,0.025 0.092,0.037 0.137,0.056 0.257,0.105 0.457,0.105 0.2,0 0.32,-0.049 0.456,-0.105l0.092 -0.037c0.362,-0.14 0.684,-0.269 1.011,-0.4 0.331,-0.133 0.667,-0.268 1.067,-0.422 0.037,-0.015 0.078,0.004 0.092,0.041 0.015,0.037 -0.004,0.078 -0.041,0.093 -0.393,0.152 -0.732,0.288 -1.064,0.421 -0.326,0.131 -0.646,0.259 -1.013,0.401 -0.035,0.013 -0.061,0.024 -0.086,0.034l-0.003 0.002c-0.151,0.061 -0.284,0.116 -0.511,0.116 -0.227,0 -0.36,-0.055 -0.511,-0.116 -0.029,-0.012 -0.058,-0.024 -0.089,-0.036l-0.048 -0.019c-0.712,-0.275 -1.262,-0.488 -2.032,-0.804z"/>
   <polygon class="fil4" points="6.944,5.116 6.944,5.862 5.777,5.862 5.777,5.116 6.321,5.014 "/>
   <path class="fil3" d="M7.016 5.116l0 0.746c0,0.039 -0.032,0.072 -0.072,0.072l-1.167 0c-0.04,0 -0.072,-0.033 -0.072,-0.072l0 -0.746c0,-0.037 0.028,-0.067 0.064,-0.071l0.539 -0.101c0.009,-0.002 0.018,-0.002 0.026,0l0.622 0.102c0.035,0.005 0.06,0.036 0.06,0.07zm-0.144 0.674l0 -0.613 -0.55 -0.09 -0.473 0.089 0 0.614 1.023 0z"/>
   <path class="fil3" d="M5.272 2.921c0,0.04 -0.032,0.072 -0.072,0.072 -0.039,0 -0.072,-0.032 -0.072,-0.072 0,-0.175 0.072,-0.335 0.188,-0.451l0.001 -0.001c0.116,-0.116 0.276,-0.188 0.451,-0.188l1.184 0c0.176,0 0.336,0.073 0.452,0.189 0.116,0.116 0.188,0.276 0.188,0.451 0,0.04 -0.032,0.072 -0.072,0.072 -0.039,0 -0.072,-0.032 -0.072,-0.072 0,-0.136 -0.056,-0.26 -0.145,-0.35 -0.09,-0.09 -0.214,-0.146 -0.351,-0.146l-1.184 0c-0.136,0 -0.26,0.056 -0.35,0.146 -0.09,0.09 -0.146,0.214 -0.146,0.35z"/>
   <path class="fil4" d="M9.013 4.269l0 -0.567c0,-0.259 -0.212,-0.471 -0.471,-0.471l-4.363 0c-0.259,0 -0.471,0.212 -0.471,0.471l0 0.567c0.786,0.322 1.343,0.538 2.078,0.822 0.081,0.031 0.152,0.063 0.227,0.089l0.15 0.041c0.058,0.011 0.122,0.017 0.197,0.017 0.066,0 0.124,-0.005 0.177,-0.014l0.184 -0.048c0.07,-0.026 0.137,-0.056 0.214,-0.085 0.734,-0.284 1.291,-0.518 2.078,-0.822z"/>
   <path class="fil3" d="M8.941 4.22l0 -0.518c0,-0.109 -0.045,-0.209 -0.117,-0.281 -0.073,-0.073 -0.172,-0.118 -0.282,-0.118l-4.363 0c-0.11,0 -0.21,0.045 -0.282,0.117 -0.072,0.073 -0.117,0.173 -0.117,0.282l-0.001 0.519c0.745,0.305 1.288,0.515 1.987,0.785l0.046 0.018c0.031,0.012 0.062,0.025 0.092,0.037 0.044,0.018 0.085,0.035 0.128,0.05l0.148 0.04c0.026,0.005 0.053,0.008 0.082,0.011 0.028,0.003 0.061,0.004 0.098,0.004 0.032,0 0.061,-0.001 0.088,-0.003 0.027,-0.002 0.051,-0.005 0.073,-0.009l0.178 -0.047c0.042,-0.015 0.079,-0.03 0.117,-0.046 0.03,-0.012 0.061,-0.025 0.093,-0.037 0.358,-0.139 0.677,-0.267 1.002,-0.397 0.321,-0.128 0.647,-0.259 1.03,-0.407zm0.144 -0.518l0 0.616 -0.046 0.018c-0.397,0.153 -0.739,0.29 -1.074,0.425 -0.323,0.129 -0.64,0.256 -1.004,0.397 -0.032,0.012 -0.061,0.024 -0.09,0.036 -0.044,0.018 -0.087,0.035 -0.126,0.049 -0.06,0.018 -0.136,0.04 -0.197,0.052 -0.029,0.005 -0.059,0.009 -0.089,0.011 -0.031,0.003 -0.064,0.004 -0.099,0.004 -0.037,0 -0.074,-0.002 -0.111,-0.005 -0.036,-0.003 -0.069,-0.008 -0.099,-0.014 -0.046,-0.009 -0.117,-0.028 -0.161,-0.043 -0.047,-0.016 -0.092,-0.035 -0.139,-0.054 -0.029,-0.012 -0.058,-0.024 -0.09,-0.036l-0.046 -0.018c-0.712,-0.276 -1.263,-0.489 -2.034,-0.805l-0.044 -0.018 0 -0.615c0,-0.149 0.061,-0.285 0.159,-0.383 0.099,-0.099 0.235,-0.16 0.384,-0.16l4.363 0c0.149,0 0.285,0.061 0.383,0.16 0.099,0.098 0.16,0.234 0.16,0.383z"/>
  </g>
 </g>
</svg>
