<?xml version="1.0" encoding="UTF-8"?>
<!DOCTYPE svg PUBLIC "-//W3C//DTD SVG 1.1//EN" "http://www.w3.org/Graphics/SVG/1.1/DTD/svg11.dtd">
<!-- Creator: CorelDRAW 2018 (64-Bit) -->
<svg xmlns="http://www.w3.org/2000/svg" xml:space="preserve" width="231px" height="74px" version="1.1" style="shape-rendering:geometricPrecision; text-rendering:geometricPrecision; image-rendering:optimizeQuality; fill-rule:evenodd; clip-rule:evenodd"
viewBox="0 0 51.596 16.553"
 xmlns:xlink="http://www.w3.org/1999/xlink">
 <defs>
  <style type="text/css">
   <![CDATA[
    .fil2 {fill:#CCCCCC}
    .fil0 {fill:white}
    .fil1 {fill:#00F4FF;fill-rule:nonzero}
    .fil4 {fill:gray;fill-rule:nonzero}
    .fil3 {fill:white;fill-rule:nonzero}
   ]]>
  </style>
 </defs>
 <g id="Layer_x0020_1">
  <metadata id="CorelCorpID_0Corel-Layer"/>
  <g id="_1467270549552">
   <path class="fil0" d="M50.478 16.553l-49.36 0c-0.615,0 -1.118,-0.503 -1.118,-1.118l0 -14.317c0,-0.615 0.503,-1.118 1.118,-1.118l49.36 0c0.615,0 1.118,0.503 1.118,1.118l0 14.317c0,0.615 -0.503,1.118 -1.118,1.118z"/>
   <path class="fil1" d="M43.33 5.301c1.644,0 2.976,1.332 2.976,2.975 0,1.644 -1.332,2.976 -2.976,2.976l-6.364 0c-1.643,0 -2.976,-1.332 -2.976,-2.976 0,-1.643 1.333,-2.975 2.976,-2.975l6.364 0z"/>
   <path class="fil2" d="M43.33 5.077c0.883,0 1.683,0.358 2.262,0.937 0.579,0.579 0.937,1.379 0.937,2.262 0,0.884 -0.358,1.684 -0.937,2.263 -0.579,0.579 -1.378,0.937 -2.262,0.937l-6.364 0c-0.883,0 -1.683,-0.358 -2.262,-0.937 -0.579,-0.579 -0.937,-1.379 -0.937,-2.263 0,-0.883 0.358,-1.683 0.937,-2.262 0.579,-0.579 1.379,-0.937 2.262,-0.937l6.364 0zm0 0.224c1.644,0 2.976,1.332 2.976,2.975 0,1.644 -1.332,2.976 -2.976,2.976l-6.364 0c-1.643,0 -2.976,-1.332 -2.976,-2.976 0,-1.643 1.333,-2.975 2.976,-2.975l6.364 0z"/>
   <path class="fil3" d="M43.227 5.737c-1.403,0 -2.54,1.137 -2.54,2.54 0,1.402 1.137,2.539 2.54,2.539 1.403,0 2.54,-1.137 2.54,-2.539 0,-1.403 -1.137,-2.54 -2.54,-2.54z"/>
   <path class="fil4" d="M19.209 9.963l-0.42 0 -0.344 -0.909 -1.374 0 -0.324 0.909 -0.422 0 1.243 -3.241 0.394 0 1.247 3.241zm-0.889 -1.25l-0.508 -1.381c-0.016,-0.046 -0.033,-0.118 -0.049,-0.217l-0.01 0c-0.014,0.092 -0.032,0.164 -0.051,0.217l-0.505 1.381 1.123 0zm1.662 0.603c0,0.212 0.082,0.319 0.246,0.319 0.067,0 0.126,-0.009 0.178,-0.025l0 0.335c-0.028,0.007 -0.066,0.015 -0.114,0.021 -0.047,0.007 -0.097,0.011 -0.149,0.011 -0.074,0 -0.144,-0.013 -0.209,-0.037 -0.064,-0.024 -0.121,-0.061 -0.168,-0.111 -0.048,-0.049 -0.085,-0.112 -0.113,-0.186 -0.028,-0.075 -0.042,-0.162 -0.042,-0.261l0 -2.846 0.371 0 0 2.78zm2.687 -0.418l-1.634 0c0.006,0.258 0.076,0.457 0.209,0.597 0.132,0.14 0.314,0.21 0.547,0.21 0.26,0 0.499,-0.086 0.719,-0.258l0 0.348c-0.204,0.148 -0.473,0.222 -0.807,0.222 -0.328,0 -0.584,-0.105 -0.771,-0.315 -0.188,-0.211 -0.281,-0.506 -0.281,-0.887 0,-0.361 0.103,-0.654 0.306,-0.881 0.205,-0.226 0.459,-0.34 0.761,-0.34 0.303,0 0.537,0.098 0.703,0.294 0.166,0.195 0.248,0.468 0.248,0.816l0 0.194zm-0.379 -0.314c-0.002,-0.214 -0.054,-0.38 -0.155,-0.5 -0.101,-0.119 -0.243,-0.178 -0.424,-0.178 -0.174,0 -0.323,0.062 -0.445,0.187 -0.122,0.125 -0.198,0.289 -0.226,0.491l1.25 0zm2.148 -0.561c-0.065,-0.049 -0.159,-0.074 -0.281,-0.074 -0.159,0 -0.29,0.074 -0.397,0.224 -0.106,0.149 -0.159,0.352 -0.159,0.61l0 1.18 -0.371 0 0 -2.315 0.371 0 0 0.477 0.009 0c0.053,-0.163 0.133,-0.289 0.242,-0.381 0.109,-0.091 0.23,-0.137 0.364,-0.137 0.096,0 0.17,0.011 0.222,0.032l0 0.384zm1.609 1.917c-0.087,0.048 -0.203,0.072 -0.346,0.072 -0.406,0 -0.608,-0.226 -0.608,-0.678l0 -1.37 -0.398 0 0 -0.316 0.398 0 0 -0.565 0.371 -0.12 0 0.685 0.583 0 0 0.316 -0.583 0 0 1.305c0,0.155 0.026,0.265 0.079,0.332 0.052,0.066 0.14,0.099 0.262,0.099 0.094,0 0.174,-0.025 0.242,-0.077l0 0.317z"/>
   <path class="fil4" d="M8.822 5.472c0.836,0 1.594,0.339 2.142,0.887 0.548,0.548 0.887,1.306 0.887,2.142 0,0.836 -0.339,1.594 -0.887,2.142 -0.548,0.548 -1.306,0.887 -2.142,0.887 -0.837,0 -1.594,-0.339 -2.142,-0.887 -0.548,-0.548 -0.887,-1.306 -0.887,-2.142 0,-0.836 0.339,-1.594 0.887,-2.142 0.548,-0.548 1.305,-0.887 2.142,-0.887zm1.984 1.045c-0.508,-0.507 -1.21,-0.821 -1.984,-0.821 -0.775,0 -1.476,0.314 -1.984,0.821 -0.508,0.508 -0.822,1.209 -0.822,1.984 0,0.775 0.314,1.476 0.822,1.984 0.508,0.507 1.209,0.821 1.984,0.821 0.775,0 1.476,-0.314 1.984,-0.821 0.507,-0.508 0.821,-1.209 0.821,-1.984 0,-0.775 -0.314,-1.476 -0.821,-1.984z"/>
   <path class="fil4" d="M10.412 6.819c0.044,-0.044 0.114,-0.044 0.158,0 0.044,0.044 0.044,0.114 0,0.158l-1.404 1.404c-0.043,0.043 -0.114,0.043 -0.158,0 -0.043,-0.044 -0.043,-0.115 0,-0.159l1.404 -1.403z"/>
   <path class="fil4" d="M8.577 8.269c0.054,0.031 0.072,0.099 0.041,0.153 -0.031,0.053 -0.099,0.071 -0.153,0.04l-1.064 -0.614c-0.053,-0.031 -0.072,-0.1 -0.041,-0.153 0.031,-0.053 0.1,-0.071 0.153,-0.04l1.064 0.614z"/>
   <path class="fil4" d="M8.822 8.284c-0.06,0 -0.115,0.024 -0.154,0.063 -0.039,0.04 -0.064,0.094 -0.064,0.154 0,0.06 0.024,0.115 0.064,0.154 0.039,0.039 0.094,0.064 0.154,0.064 0.06,0 0.114,-0.025 0.154,-0.064 0.039,-0.039 0.063,-0.094 0.063,-0.154 0,-0.06 -0.024,-0.114 -0.063,-0.154 -0.04,-0.039 -0.094,-0.063 -0.154,-0.063zm-0.312 -0.095c0.08,-0.08 0.19,-0.129 0.312,-0.129 0.122,0 0.232,0.049 0.312,0.129 0.08,0.08 0.129,0.19 0.129,0.312 0,0.122 -0.049,0.232 -0.129,0.312 -0.08,0.08 -0.19,0.129 -0.312,0.129 -0.122,0 -0.232,-0.049 -0.312,-0.129 -0.08,-0.08 -0.129,-0.19 -0.129,-0.312 0,-0.122 0.049,-0.232 0.129,-0.312z"/>
   <path class="fil4" d="M8.71 6.285c0,-0.062 0.05,-0.112 0.112,-0.112 0.062,0 0.112,0.05 0.112,0.112l0 0.205c0,0.062 -0.05,0.112 -0.112,0.112 -0.062,0 -0.112,-0.05 -0.112,-0.112l0 -0.205z"/>
   <path class="fil4" d="M6.606 8.613c-0.062,0 -0.112,-0.05 -0.112,-0.112 0,-0.062 0.05,-0.112 0.112,-0.112l0.205 0c0.062,0 0.112,0.05 0.112,0.112 0,0.062 -0.05,0.112 -0.112,0.112l-0.205 0z"/>
   <path class="fil4" d="M8.934 10.717c0,0.062 -0.05,0.112 -0.112,0.112 -0.062,0 -0.112,-0.05 -0.112,-0.112l0 -0.205c0,-0.062 0.05,-0.112 0.112,-0.112 0.062,0 0.112,0.05 0.112,0.112l0 0.205z"/>
   <path class="fil4" d="M11.038 8.389c0.062,0 0.112,0.05 0.112,0.112 0,0.062 -0.05,0.112 -0.112,0.112l-0.205 0c-0.062,0 -0.112,-0.05 -0.112,-0.112 0,-0.062 0.05,-0.112 0.112,-0.112l0.205 0z"/>
   <path class="fil4" d="M10.399 5.344c-0.047,0.04 -0.117,0.033 -0.157,-0.014 -0.04,-0.047 -0.033,-0.118 0.014,-0.157 0.121,-0.102 0.258,-0.18 0.404,-0.233 0.147,-0.054 0.303,-0.082 0.46,-0.082 0.371,0 0.708,0.151 0.951,0.394 0.243,0.244 0.394,0.58 0.394,0.951 0,0.157 -0.028,0.313 -0.081,0.46 -0.054,0.146 -0.133,0.283 -0.234,0.404 -0.039,0.047 -0.11,0.054 -0.157,0.014 -0.047,-0.04 -0.054,-0.11 -0.014,-0.157 0.085,-0.101 0.151,-0.216 0.195,-0.337 0.044,-0.122 0.067,-0.252 0.067,-0.384 0,-0.31 -0.125,-0.59 -0.328,-0.793 -0.203,-0.203 -0.483,-0.328 -0.793,-0.328 -0.132,0 -0.262,0.023 -0.384,0.067 -0.121,0.044 -0.236,0.11 -0.337,0.195z"/>
   <path class="fil4" d="M7.387 5.173c0.048,0.039 0.054,0.11 0.014,0.157 -0.039,0.047 -0.11,0.054 -0.157,0.014 -0.101,-0.085 -0.215,-0.151 -0.337,-0.195 -0.121,-0.044 -0.251,-0.067 -0.384,-0.067 -0.309,0 -0.59,0.125 -0.793,0.328 -0.202,0.203 -0.328,0.483 -0.328,0.793 0,0.132 0.023,0.262 0.067,0.384 0.045,0.121 0.11,0.236 0.195,0.337 0.04,0.047 0.034,0.117 -0.014,0.157 -0.047,0.04 -0.117,0.033 -0.157,-0.014 -0.101,-0.121 -0.18,-0.258 -0.233,-0.404 -0.054,-0.147 -0.082,-0.303 -0.082,-0.46 0,-0.371 0.151,-0.707 0.394,-0.951 0.244,-0.243 0.58,-0.394 0.951,-0.394 0.158,0 0.313,0.028 0.46,0.082 0.147,0.053 0.284,0.132 0.404,0.233z"/>
   <path class="fil4" d="M10.421 10.931c-0.034,-0.052 -0.019,-0.121 0.033,-0.154 0.052,-0.034 0.121,-0.018 0.154,0.033l0.455 0.707c0.033,0.052 0.018,0.121 -0.033,0.154 -0.052,0.034 -0.121,0.019 -0.155,-0.033l-0.454 -0.707z"/>
   <path class="fil4" d="M7.032 10.805c0.033,-0.052 0.102,-0.067 0.154,-0.034 0.052,0.034 0.067,0.103 0.034,0.155l-0.462 0.717c-0.033,0.052 -0.102,0.067 -0.154,0.034 -0.052,-0.033 -0.067,-0.103 -0.034,-0.154l0.462 -0.718z"/>
  </g>
 </g>
</svg>
