<?xml version="1.0" encoding="UTF-8"?>
<!DOCTYPE svg PUBLIC "-//W3C//DTD SVG 1.1//EN" "http://www.w3.org/Graphics/SVG/1.1/DTD/svg11.dtd">
<!-- Creator: CorelDRAW 2018 (64-Bit) -->
<svg xmlns="http://www.w3.org/2000/svg" xml:space="preserve" width="212px" height="74px" version="1.1" style="shape-rendering:geometricPrecision; text-rendering:geometricPrecision; image-rendering:optimizeQuality; fill-rule:evenodd; clip-rule:evenodd"
viewBox="0 0 34.258 11.917"
 xmlns:xlink="http://www.w3.org/1999/xlink">
 <defs>
  <style type="text/css">
   <![CDATA[
    .fil2 {fill:#00F4FF}
    .fil4 {fill:white}
    .fil0 {fill:white}
    .fil3 {fill:#052337;fill-rule:nonzero}
    .fil1 {fill:#052337;fill-rule:nonzero}
   ]]>
  </style>
 </defs>
 <g id="Layer_x0020_1">
  <metadata id="CorelCorpID_0Corel-Layer"/>
  <g id="_1467225548464">
   <rect class="fil0" width="34.258" height="11.917" rx="0.525" ry="0.807"/>
   <path class="fil1" d="M13.861 7.348l0 -2.261 0.625 0c0.796,0 1.195,0.367 1.195,1.102 0,0.349 -0.111,0.629 -0.332,0.841 -0.221,0.212 -0.517,0.318 -0.889,0.318l-0.599 0zm0.265 -2.021l0 1.781 0.337 0c0.297,0 0.527,-0.079 0.693,-0.238 0.165,-0.159 0.247,-0.384 0.247,-0.675 0,-0.579 -0.308,-0.868 -0.924,-0.868l-0.353 0zm3.262 1.278l-1.14 0c0.004,0.18 0.053,0.319 0.145,0.417 0.093,0.097 0.22,0.146 0.382,0.146 0.182,0 0.348,-0.06 0.501,-0.18l0 0.243c-0.142,0.103 -0.33,0.154 -0.563,0.154 -0.228,0 -0.407,-0.073 -0.537,-0.219 -0.131,-0.147 -0.196,-0.353 -0.196,-0.619 0,-0.251 0.071,-0.456 0.214,-0.614 0.142,-0.158 0.319,-0.237 0.53,-0.237 0.212,0 0.375,0.068 0.49,0.205 0.116,0.136 0.174,0.326 0.174,0.569l0 0.135zm-0.265 -0.219c-0.001,-0.149 -0.037,-0.265 -0.108,-0.349 -0.071,-0.082 -0.169,-0.124 -0.296,-0.124 -0.121,0 -0.225,0.044 -0.31,0.131 -0.085,0.087 -0.138,0.201 -0.158,0.342l0.872 0zm0.558 0.904l0 -0.278c0.141,0.104 0.296,0.156 0.465,0.156 0.227,0 0.341,-0.076 0.341,-0.227 0,-0.043 -0.01,-0.08 -0.029,-0.109 -0.02,-0.03 -0.046,-0.057 -0.079,-0.08 -0.033,-0.023 -0.072,-0.044 -0.117,-0.062 -0.045,-0.019 -0.093,-0.038 -0.144,-0.058 -0.072,-0.028 -0.134,-0.057 -0.189,-0.086 -0.053,-0.029 -0.099,-0.061 -0.135,-0.097 -0.036,-0.037 -0.064,-0.078 -0.082,-0.124 -0.018,-0.047 -0.027,-0.101 -0.027,-0.163 0,-0.076 0.017,-0.142 0.051,-0.201 0.035,-0.058 0.082,-0.107 0.139,-0.146 0.058,-0.04 0.124,-0.07 0.198,-0.09 0.074,-0.02 0.151,-0.029 0.229,-0.029 0.14,0 0.265,0.024 0.375,0.072l0 0.262c-0.118,-0.078 -0.255,-0.117 -0.409,-0.117 -0.048,0 -0.092,0.006 -0.131,0.017 -0.039,0.011 -0.072,0.026 -0.1,0.046 -0.028,0.02 -0.049,0.044 -0.065,0.072 -0.015,0.028 -0.023,0.058 -0.023,0.092 0,0.042 0.008,0.077 0.023,0.106 0.016,0.028 0.038,0.054 0.067,0.076 0.029,0.022 0.065,0.042 0.107,0.059 0.042,0.018 0.09,0.037 0.144,0.058 0.071,0.028 0.136,0.056 0.192,0.085 0.057,0.029 0.105,0.061 0.145,0.098 0.04,0.036 0.071,0.078 0.092,0.125 0.022,0.048 0.033,0.103 0.033,0.169 0,0.08 -0.018,0.149 -0.053,0.208 -0.036,0.059 -0.082,0.107 -0.141,0.146 -0.059,0.04 -0.127,0.068 -0.203,0.087 -0.077,0.019 -0.158,0.028 -0.242,0.028 -0.166,0 -0.31,-0.031 -0.432,-0.095zm1.583 -1.967c-0.046,0 -0.086,-0.015 -0.118,-0.047 -0.033,-0.031 -0.049,-0.071 -0.049,-0.119 0,-0.049 0.016,-0.089 0.049,-0.121 0.032,-0.032 0.072,-0.048 0.118,-0.048 0.047,0 0.088,0.016 0.121,0.048 0.033,0.032 0.05,0.072 0.05,0.121 0,0.046 -0.017,0.085 -0.05,0.117 -0.033,0.033 -0.074,0.049 -0.121,0.049zm0.126 1.574c0,0.148 0.057,0.222 0.172,0.222 0.046,0 0.088,-0.006 0.124,-0.017l0 0.233c-0.02,0.005 -0.046,0.011 -0.079,0.015 -0.033,0.005 -0.068,0.007 -0.105,0.007 -0.051,0 -0.1,-0.008 -0.145,-0.025 -0.045,-0.017 -0.084,-0.042 -0.117,-0.077 -0.034,-0.035 -0.06,-0.078 -0.079,-0.131 -0.02,-0.051 -0.029,-0.112 -0.029,-0.181l0 -1.21 0.258 0 0 1.164zm1.419 -0.902c-0.045,-0.035 -0.11,-0.052 -0.195,-0.052 -0.111,0 -0.203,0.052 -0.277,0.156 -0.074,0.104 -0.111,0.246 -0.111,0.426l0 0.823 -0.259 0 0 -1.615 0.259 0 0 0.333 0.007 0c0.036,-0.114 0.092,-0.202 0.168,-0.266 0.076,-0.063 0.16,-0.095 0.254,-0.095 0.067,0 0.118,0.007 0.154,0.022l0 0.268zm1.536 0.61l-1.14 0c0.004,0.18 0.053,0.319 0.145,0.417 0.093,0.097 0.22,0.146 0.382,0.146 0.182,0 0.348,-0.06 0.501,-0.18l0 0.243c-0.142,0.103 -0.33,0.154 -0.563,0.154 -0.228,0 -0.407,-0.073 -0.537,-0.219 -0.131,-0.147 -0.196,-0.353 -0.196,-0.619 0,-0.251 0.071,-0.456 0.214,-0.614 0.142,-0.158 0.319,-0.237 0.53,-0.237 0.212,0 0.375,0.068 0.49,0.205 0.116,0.136 0.174,0.326 0.174,0.569l0 0.135zm-0.265 -0.219c-0.001,-0.149 -0.037,-0.265 -0.108,-0.349 -0.071,-0.082 -0.169,-0.124 -0.296,-0.124 -0.121,0 -0.225,0.044 -0.31,0.131 -0.085,0.087 -0.138,0.201 -0.158,0.342l0.872 0zm2.034 0.962l-0.259 0 0 -0.275 -0.006 0c-0.12,0.209 -0.305,0.312 -0.555,0.312 -0.202,0 -0.365,-0.072 -0.486,-0.216 -0.122,-0.145 -0.182,-0.342 -0.182,-0.591 0,-0.267 0.067,-0.48 0.201,-0.641 0.135,-0.161 0.314,-0.241 0.538,-0.241 0.222,0 0.383,0.087 0.484,0.261l0.006 0 0 -0.999 0.259 0 0 2.39zm-0.259 -0.73l0 -0.238c0,-0.131 -0.043,-0.241 -0.129,-0.331 -0.086,-0.091 -0.195,-0.136 -0.328,-0.136 -0.157,0 -0.282,0.058 -0.372,0.173 -0.091,0.116 -0.136,0.276 -0.136,0.48 0,0.186 0.044,0.332 0.131,0.441 0.086,0.107 0.203,0.161 0.349,0.161 0.144,0 0.261,-0.052 0.351,-0.156 0.089,-0.104 0.134,-0.236 0.134,-0.394zm2.28 -0.081c0,0.268 -0.056,0.477 -0.17,0.626 -0.113,0.148 -0.266,0.222 -0.456,0.222 -0.088,0 -0.161,-0.012 -0.217,-0.037l0 -0.262c0.056,0.041 0.13,0.062 0.22,0.062 0.239,0 0.358,-0.203 0.358,-0.607l0 -1.454 0.265 0 0 1.45zm1.214 0.848c-0.238,0 -0.429,-0.075 -0.572,-0.226 -0.142,-0.15 -0.213,-0.35 -0.213,-0.6 0,-0.271 0.074,-0.482 0.222,-0.635 0.149,-0.152 0.349,-0.228 0.601,-0.228 0.241,0 0.429,0.073 0.564,0.222 0.135,0.148 0.202,0.353 0.202,0.616 0,0.258 -0.073,0.464 -0.218,0.619 -0.146,0.155 -0.341,0.232 -0.586,0.232zm0.019 -1.472c-0.166,0 -0.297,0.057 -0.394,0.17 -0.097,0.113 -0.145,0.268 -0.145,0.467 0,0.191 0.049,0.342 0.147,0.452 0.097,0.111 0.228,0.166 0.392,0.166 0.167,0 0.296,-0.054 0.386,-0.163 0.089,-0.108 0.134,-0.262 0.134,-0.461 0,-0.202 -0.045,-0.358 -0.134,-0.467 -0.09,-0.11 -0.219,-0.164 -0.386,-0.164zm1.463 1.201l-0.006 0 0 0.234 -0.259 0 0 -2.39 0.259 0 0 1.059 0.006 0c0.127,-0.214 0.314,-0.321 0.558,-0.321 0.207,0 0.37,0.072 0.486,0.217 0.118,0.144 0.176,0.338 0.176,0.58 0,0.27 -0.065,0.487 -0.197,0.649 -0.131,0.162 -0.311,0.243 -0.539,0.243 -0.213,0 -0.374,-0.09 -0.484,-0.271zm-0.006 -0.651l0 0.226c0,0.133 0.043,0.247 0.13,0.34 0.087,0.093 0.197,0.139 0.33,0.139 0.157,0 0.279,-0.06 0.368,-0.18 0.089,-0.12 0.134,-0.286 0.134,-0.5 0,-0.179 -0.042,-0.32 -0.125,-0.422 -0.083,-0.102 -0.196,-0.153 -0.337,-0.153 -0.151,0 -0.271,0.052 -0.363,0.157 -0.091,0.105 -0.137,0.235 -0.137,0.393z"/>
   <rect class="fil2" x="4.156" y="3.621" width="5.946" height="4.498" rx="0.575" ry="0.528"/>
   <path class="fil3" d="M4.684 3.541l4.889 0c0.168,0 0.32,0.068 0.43,0.179l0.005 0.004c0.108,0.11 0.174,0.261 0.174,0.426l0 3.442c0,0.167 -0.068,0.319 -0.179,0.43 -0.11,0.11 -0.262,0.178 -0.43,0.178l-4.889 0c-0.168,0 -0.32,-0.068 -0.43,-0.178 -0.111,-0.111 -0.179,-0.263 -0.179,-0.43l0 -3.442c0,-0.168 0.068,-0.32 0.179,-0.43 0.11,-0.111 0.262,-0.179 0.43,-0.179zm4.889 0.161l-4.889 0c-0.123,0 -0.235,0.051 -0.316,0.132 -0.081,0.081 -0.132,0.193 -0.132,0.316l0 3.442c0,0.123 0.051,0.234 0.132,0.316 0.081,0.081 0.193,0.131 0.316,0.131l4.889 0c0.123,0 0.235,-0.05 0.316,-0.131 0.081,-0.082 0.132,-0.193 0.132,-0.316l0 -3.442c0,-0.122 -0.049,-0.232 -0.128,-0.313l-0.004 -0.003c-0.081,-0.081 -0.193,-0.132 -0.316,-0.132z"/>
   <path class="fil3" d="M4.125 4.859c-0.041,-0.017 -0.06,-0.064 -0.043,-0.105 0.016,-0.041 0.063,-0.061 0.105,-0.044 0.86,0.353 1.476,0.591 2.273,0.9l0.054 0.021c0.036,0.013 0.07,0.027 0.103,0.041 0.153,0.063 0.288,0.118 0.512,0.118 0.224,0 0.359,-0.055 0.511,-0.118l0.005 -0.001c0.034,-0.015 0.071,-0.03 0.099,-0.04 0.405,-0.157 0.765,-0.302 1.133,-0.449 0.37,-0.148 0.747,-0.3 1.195,-0.473 0.041,-0.016 0.088,0.005 0.104,0.046 0.016,0.042 -0.005,0.088 -0.046,0.104 -0.441,0.171 -0.82,0.323 -1.193,0.473 -0.365,0.146 -0.724,0.289 -1.135,0.449 -0.04,0.015 -0.069,0.027 -0.097,0.038l-0.003 0.002c-0.169,0.069 -0.319,0.13 -0.573,0.13 -0.254,0 -0.404,-0.061 -0.573,-0.13 -0.032,-0.013 -0.064,-0.027 -0.1,-0.04l-0.054 -0.021c-0.797,-0.309 -1.413,-0.547 -2.277,-0.901z"/>
   <polygon class="fil4" points="7.783,5.734 7.783,6.569 6.474,6.569 6.474,5.734 7.085,5.62 "/>
   <path class="fil3" d="M7.863 5.734l0 0.835c0,0.045 -0.036,0.081 -0.08,0.081l-1.309 0c-0.044,0 -0.08,-0.036 -0.08,-0.081l0 -0.835c0,-0.041 0.031,-0.075 0.071,-0.08l0.605 -0.113c0.01,-0.002 0.02,-0.002 0.029,0l0.697 0.114c0.039,0.006 0.067,0.041 0.067,0.079zm-0.161 0.755l0 -0.686 -0.616 -0.101 -0.531 0.099 0 0.688 1.147 0z"/>
   <path class="fil3" d="M5.909 3.274c0,0.045 -0.036,0.081 -0.081,0.081 -0.044,0 -0.08,-0.036 -0.08,-0.081 0,-0.197 0.08,-0.376 0.21,-0.506l0.001 -0.001c0.13,-0.13 0.309,-0.21 0.506,-0.21l1.327 0c0.197,0 0.377,0.081 0.507,0.211 0.129,0.13 0.21,0.309 0.21,0.506 0,0.045 -0.036,0.081 -0.081,0.081 -0.044,0 -0.08,-0.036 -0.08,-0.081 0,-0.153 -0.063,-0.292 -0.164,-0.393 -0.1,-0.1 -0.239,-0.163 -0.392,-0.163l-1.327 0c-0.153,0 -0.292,0.063 -0.393,0.163 -0.1,0.101 -0.163,0.24 -0.163,0.393z"/>
   <path class="fil4" d="M10.101 4.784l0 -0.634c0,-0.291 -0.237,-0.528 -0.528,-0.528l-4.889 0c-0.291,0 -0.528,0.237 -0.528,0.528l0 0.634c0.881,0.362 1.505,0.603 2.329,0.922 0.091,0.035 0.17,0.071 0.254,0.1l0.168 0.045c0.065,0.012 0.137,0.02 0.221,0.02 0.074,0 0.139,-0.006 0.198,-0.016l0.207 -0.054c0.078,-0.029 0.154,-0.062 0.239,-0.095 0.824,-0.319 1.447,-0.58 2.329,-0.922z"/>
   <path class="fil3" d="M10.021 4.729l0 -0.579c0,-0.123 -0.051,-0.235 -0.132,-0.316 -0.081,-0.081 -0.193,-0.132 -0.316,-0.132l-4.889 0c-0.123,0 -0.235,0.051 -0.316,0.132 -0.081,0.081 -0.132,0.193 -0.132,0.316l0 0.58c0.835,0.342 1.443,0.578 2.226,0.88l0.052 0.021c0.035,0.013 0.07,0.027 0.103,0.041 0.049,0.02 0.096,0.039 0.144,0.056l0.165 0.045c0.03,0.005 0.06,0.01 0.092,0.012 0.032,0.003 0.069,0.005 0.11,0.005 0.036,0 0.069,-0.001 0.099,-0.004 0.03,-0.002 0.057,-0.005 0.082,-0.009l0.199 -0.053c0.047,-0.017 0.089,-0.034 0.132,-0.052 0.033,-0.014 0.068,-0.028 0.103,-0.041 0.402,-0.156 0.76,-0.299 1.123,-0.445 0.36,-0.144 0.726,-0.29 1.155,-0.457zm0.161 -0.579l0 0.689 -0.052 0.02c-0.444,0.172 -0.827,0.326 -1.204,0.477 -0.361,0.144 -0.717,0.287 -1.125,0.445 -0.035,0.013 -0.068,0.027 -0.1,0.04 -0.05,0.02 -0.098,0.04 -0.141,0.056 -0.068,0.019 -0.153,0.044 -0.221,0.058 -0.033,0.005 -0.066,0.009 -0.1,0.012 -0.035,0.003 -0.072,0.004 -0.111,0.004 -0.042,0 -0.083,-0.002 -0.125,-0.005 -0.039,-0.004 -0.076,-0.009 -0.111,-0.016 -0.05,-0.01 -0.131,-0.032 -0.179,-0.048 -0.054,-0.019 -0.104,-0.04 -0.157,-0.061 -0.032,-0.013 -0.065,-0.027 -0.1,-0.04l-0.052 -0.02c-0.798,-0.309 -1.415,-0.548 -2.279,-0.902l-0.05 -0.021 0 -0.688c0,-0.168 0.068,-0.32 0.179,-0.43 0.11,-0.111 0.262,-0.179 0.43,-0.179l4.889 0c0.168,0 0.32,0.068 0.43,0.179 0.111,0.11 0.179,0.262 0.179,0.43z"/>
  </g>
 </g>
</svg>
