<?xml version="1.0" encoding="UTF-8"?>
<!DOCTYPE svg PUBLIC "-//W3C//DTD SVG 1.1//EN" "http://www.w3.org/Graphics/SVG/1.1/DTD/svg11.dtd">
<!-- Creator: CorelDRAW 2018 (64-Bit) -->
<svg xmlns="http://www.w3.org/2000/svg" xml:space="preserve" width="421px" height="74px" version="1.1" style="shape-rendering:geometricPrecision; text-rendering:geometricPrecision; image-rendering:optimizeQuality; fill-rule:evenodd; clip-rule:evenodd"
viewBox="0 0 114.895 20.164"
 xmlns:xlink="http://www.w3.org/1999/xlink">
 <defs>
  <style type="text/css">
   <![CDATA[
    .fil2 {fill:#00F4FF}
    .fil0 {fill:white}
    .fil1 {fill:#052337;fill-rule:nonzero}
   ]]>
  </style>
 </defs>
 <g id="Layer_x0020_1">
  <metadata id="CorelCorpID_0Corel-Layer"/>
  <g id="_1467225547632">
   <rect class="fil0" width="114.895" height="20.164" rx="1.76" ry="1.366"/>
   <path class="fil1" d="M27.797 7.636l-1.08 3.825 -0.525 0 -0.787 -2.795c-0.034,-0.12 -0.054,-0.25 -0.061,-0.39l-0.011 0c-0.01,0.131 -0.034,0.259 -0.07,0.384l-0.792 2.801 -0.52 0 -1.12 -3.825 0.493 0 0.814 2.933c0.034,0.123 0.055,0.252 0.064,0.385l0.014 0c0.008,-0.094 0.036,-0.222 0.082,-0.385l0.845 -2.933 0.43 0 0.811 2.955c0.028,0.101 0.049,0.221 0.064,0.357l0.011 0c0.006,-0.092 0.031,-0.215 0.072,-0.368l0.781 -2.944 0.485 0zm2.777 3.825l-0.438 0 0 -1.574c0,-0.569 -0.211,-0.853 -0.634,-0.853 -0.213,0 -0.394,0.081 -0.539,0.246 -0.146,0.165 -0.219,0.376 -0.219,0.634l0 1.547 -0.438 0 0 -4.044 0.438 0 0 1.766 0.011 0c0.209,-0.345 0.508,-0.517 0.896,-0.517 0.615,0 0.923,0.37 0.923,1.111l0 1.684zm2.78 0l-0.438 0 0 -0.427 -0.01 0c-0.19,0.328 -0.471,0.491 -0.84,0.491 -0.273,0 -0.486,-0.072 -0.64,-0.216 -0.154,-0.144 -0.23,-0.335 -0.23,-0.574 0,-0.51 0.3,-0.807 0.901,-0.89l0.819 -0.115c0,-0.464 -0.188,-0.696 -0.563,-0.696 -0.329,0 -0.625,0.111 -0.89,0.335l0 -0.448c0.268,-0.171 0.577,-0.255 0.928,-0.255 0.641,0 0.963,0.339 0.963,1.019l0 1.776zm-0.438 -1.382l-0.658 0.091c-0.203,0.028 -0.356,0.078 -0.459,0.151 -0.103,0.072 -0.155,0.199 -0.155,0.382 0,0.133 0.047,0.242 0.143,0.327 0.095,0.085 0.221,0.127 0.38,0.127 0.216,0 0.396,-0.077 0.537,-0.228 0.142,-0.152 0.212,-0.345 0.212,-0.578l0 -0.272zm2.529 1.355c-0.103,0.057 -0.239,0.085 -0.408,0.085 -0.479,0 -0.717,-0.267 -0.717,-0.8l0 -1.616 -0.47 0 0 -0.374 0.47 0 0 -0.666 0.437 -0.142 0 0.808 0.688 0 0 0.374 -0.688 0 0 1.539c0,0.183 0.031,0.314 0.094,0.392 0.061,0.078 0.164,0.117 0.309,0.117 0.11,0 0.205,-0.03 0.285,-0.091l0 0.374zm4.036 0.027l-0.438 0 0 -0.427 -0.01 0c-0.19,0.328 -0.47,0.491 -0.84,0.491 -0.272,0 -0.485,-0.072 -0.639,-0.216 -0.154,-0.144 -0.231,-0.335 -0.231,-0.574 0,-0.51 0.301,-0.807 0.902,-0.89l0.818 -0.115c0,-0.464 -0.187,-0.696 -0.562,-0.696 -0.329,0 -0.626,0.111 -0.891,0.335l0 -0.448c0.269,-0.171 0.577,-0.255 0.928,-0.255 0.642,0 0.963,0.339 0.963,1.019l0 1.776zm-0.438 -1.382l-0.658 0.091c-0.203,0.028 -0.356,0.078 -0.459,0.151 -0.103,0.072 -0.155,0.199 -0.155,0.382 0,0.133 0.048,0.242 0.143,0.327 0.095,0.085 0.222,0.127 0.38,0.127 0.217,0 0.396,-0.077 0.537,-0.228 0.142,-0.152 0.212,-0.345 0.212,-0.578l0 -0.272zm2.687 -0.907c-0.076,-0.058 -0.187,-0.088 -0.33,-0.088 -0.188,0 -0.344,0.088 -0.469,0.264 -0.125,0.176 -0.188,0.417 -0.188,0.721l0 1.392 -0.438 0 0 -2.732 0.438 0 0 0.563 0.011 0c0.062,-0.192 0.157,-0.341 0.285,-0.45 0.128,-0.107 0.271,-0.161 0.43,-0.161 0.113,0 0.2,0.013 0.261,0.037l0 0.454zm2.598 1.032l-1.929 0c0.008,0.304 0.089,0.539 0.246,0.705 0.157,0.165 0.371,0.248 0.646,0.248 0.307,0 0.59,-0.101 0.848,-0.304l0 0.41c-0.24,0.175 -0.558,0.262 -0.952,0.262 -0.386,0 -0.689,-0.124 -0.91,-0.372 -0.221,-0.249 -0.331,-0.597 -0.331,-1.047 0,-0.425 0.121,-0.771 0.361,-1.039 0.242,-0.268 0.541,-0.401 0.898,-0.401 0.358,0 0.634,0.115 0.829,0.347 0.196,0.23 0.294,0.551 0.294,0.962l0 0.229zm-0.448 -0.37c-0.002,-0.252 -0.063,-0.449 -0.183,-0.59 -0.12,-0.14 -0.286,-0.21 -0.5,-0.21 -0.206,0 -0.382,0.073 -0.526,0.221 -0.143,0.147 -0.233,0.34 -0.266,0.579l1.475 0zm4.78 -1.105l-1.256 3.169c-0.224,0.566 -0.539,0.848 -0.944,0.848 -0.114,0 -0.209,-0.011 -0.285,-0.034l0 -0.393c0.094,0.032 0.18,0.049 0.258,0.049 0.221,0 0.386,-0.131 0.497,-0.395l0.218 -0.518 -1.067 -2.726 0.485 0 0.74 2.103c0.009,0.026 0.027,0.095 0.055,0.207l0.017 0c0.009,-0.043 0.026,-0.11 0.052,-0.203l0.777 -2.107 0.453 0zm1.585 2.796c-0.404,0 -0.726,-0.128 -0.967,-0.383 -0.241,-0.255 -0.362,-0.594 -0.362,-1.015 0,-0.459 0.126,-0.817 0.376,-1.075 0.252,-0.258 0.59,-0.386 1.017,-0.386 0.407,0 0.725,0.124 0.953,0.376 0.229,0.25 0.343,0.598 0.343,1.042 0,0.436 -0.123,0.785 -0.369,1.047 -0.247,0.262 -0.577,0.394 -0.991,0.394zm0.031 -2.491c-0.28,0 -0.502,0.095 -0.666,0.286 -0.164,0.191 -0.246,0.455 -0.246,0.792 0,0.323 0.083,0.578 0.249,0.764 0.165,0.187 0.387,0.281 0.663,0.281 0.284,0 0.501,-0.092 0.653,-0.275 0.152,-0.183 0.228,-0.444 0.228,-0.781 0,-0.342 -0.076,-0.605 -0.228,-0.79 -0.152,-0.186 -0.369,-0.277 -0.653,-0.277zm4.237 2.427l-0.437 0 0 -0.433 -0.011 0c-0.181,0.332 -0.463,0.497 -0.843,0.497 -0.651,0 -0.976,-0.387 -0.976,-1.163l0 -1.633 0.434 0 0 1.564c0,0.576 0.221,0.864 0.662,0.864 0.213,0 0.389,-0.079 0.527,-0.236 0.138,-0.158 0.207,-0.363 0.207,-0.618l0 -1.574 0.437 0 0 2.732zm2.308 -2.289c-0.077,-0.058 -0.187,-0.088 -0.331,-0.088 -0.187,0 -0.343,0.088 -0.468,0.264 -0.125,0.176 -0.188,0.417 -0.188,0.721l0 1.392 -0.438 0 0 -2.732 0.438 0 0 0.563 0.011 0c0.062,-0.192 0.157,-0.341 0.285,-0.45 0.128,-0.107 0.271,-0.161 0.43,-0.161 0.113,0 0.2,0.013 0.261,0.037l0 0.454zm1.806 2.19l0 -0.469c0.238,0.175 0.501,0.264 0.787,0.264 0.384,0 0.576,-0.129 0.576,-0.385 0,-0.072 -0.016,-0.134 -0.049,-0.184 -0.034,-0.051 -0.077,-0.096 -0.134,-0.135 -0.055,-0.039 -0.122,-0.075 -0.197,-0.106 -0.076,-0.031 -0.157,-0.063 -0.244,-0.097 -0.121,-0.048 -0.227,-0.097 -0.319,-0.146 -0.091,-0.048 -0.168,-0.104 -0.229,-0.165 -0.061,-0.061 -0.108,-0.131 -0.139,-0.209 -0.031,-0.078 -0.046,-0.17 -0.046,-0.275 0,-0.128 0.029,-0.241 0.087,-0.34 0.059,-0.099 0.138,-0.182 0.235,-0.248 0.098,-0.067 0.209,-0.118 0.335,-0.151 0.125,-0.034 0.255,-0.05 0.388,-0.05 0.237,0 0.448,0.041 0.634,0.122l0 0.443c-0.2,-0.132 -0.431,-0.197 -0.692,-0.197 -0.082,0 -0.156,0.009 -0.222,0.028 -0.066,0.018 -0.123,0.044 -0.17,0.078 -0.046,0.034 -0.083,0.075 -0.109,0.121 -0.026,0.047 -0.038,0.099 -0.038,0.157 0,0.071 0.012,0.13 0.038,0.178 0.026,0.048 0.064,0.091 0.114,0.129 0.049,0.037 0.11,0.071 0.181,0.101 0.071,0.03 0.152,0.062 0.243,0.098 0.12,0.046 0.229,0.094 0.325,0.143 0.096,0.049 0.178,0.104 0.246,0.166 0.067,0.061 0.119,0.132 0.155,0.212 0.037,0.08 0.055,0.174 0.055,0.285 0,0.135 -0.03,0.253 -0.089,0.352 -0.06,0.099 -0.139,0.182 -0.239,0.248 -0.1,0.066 -0.215,0.114 -0.344,0.147 -0.13,0.032 -0.266,0.048 -0.409,0.048 -0.28,0 -0.524,-0.054 -0.73,-0.163zm4.439 0.099l-0.438 0 0 -0.427 -0.01 0c-0.191,0.328 -0.471,0.491 -0.841,0.491 -0.272,0 -0.485,-0.072 -0.639,-0.216 -0.154,-0.144 -0.23,-0.335 -0.23,-0.574 0,-0.51 0.3,-0.807 0.901,-0.89l0.819 -0.115c0,-0.464 -0.188,-0.696 -0.563,-0.696 -0.329,0 -0.625,0.111 -0.89,0.335l0 -0.448c0.268,-0.171 0.577,-0.255 0.927,-0.255 0.642,0 0.964,0.339 0.964,1.019l0 1.776zm-0.438 -1.382l-0.659 0.091c-0.203,0.028 -0.356,0.078 -0.458,0.151 -0.103,0.072 -0.155,0.199 -0.155,0.382 0,0.133 0.047,0.242 0.143,0.327 0.094,0.085 0.221,0.127 0.379,0.127 0.217,0 0.396,-0.077 0.538,-0.228 0.142,-0.152 0.212,-0.345 0.212,-0.578l0 -0.272zm1.67 0.619c0,0.25 0.097,0.376 0.291,0.376 0.078,0 0.148,-0.01 0.21,-0.029l0 0.395c-0.033,0.008 -0.078,0.017 -0.135,0.024 -0.055,0.009 -0.114,0.013 -0.176,0.013 -0.088,0 -0.17,-0.014 -0.246,-0.043 -0.077,-0.029 -0.143,-0.072 -0.199,-0.131 -0.056,-0.058 -0.101,-0.132 -0.133,-0.22 -0.033,-0.087 -0.049,-0.19 -0.049,-0.308l0 -3.358 0.437 0 0 3.281zm2.932 0.763l-0.438 0 0 -0.427 -0.01 0c-0.19,0.328 -0.471,0.491 -0.84,0.491 -0.272,0 -0.485,-0.072 -0.639,-0.216 -0.154,-0.144 -0.231,-0.335 -0.231,-0.574 0,-0.51 0.301,-0.807 0.902,-0.89l0.818 -0.115c0,-0.464 -0.187,-0.696 -0.562,-0.696 -0.329,0 -0.626,0.111 -0.891,0.335l0 -0.448c0.269,-0.171 0.577,-0.255 0.928,-0.255 0.642,0 0.963,0.339 0.963,1.019l0 1.776zm-0.438 -1.382l-0.658 0.091c-0.203,0.028 -0.356,0.078 -0.459,0.151 -0.103,0.072 -0.155,0.199 -0.155,0.382 0,0.133 0.048,0.242 0.143,0.327 0.095,0.085 0.221,0.127 0.38,0.127 0.217,0 0.396,-0.077 0.537,-0.228 0.142,-0.152 0.212,-0.345 0.212,-0.578l0 -0.272zm2.687 -0.907c-0.077,-0.058 -0.187,-0.088 -0.331,-0.088 -0.187,0 -0.343,0.088 -0.468,0.264 -0.125,0.176 -0.188,0.417 -0.188,0.721l0 1.392 -0.438 0 0 -2.732 0.438 0 0 0.563 0.011 0c0.062,-0.192 0.157,-0.341 0.285,-0.45 0.128,-0.107 0.271,-0.161 0.43,-0.161 0.113,0 0.2,0.013 0.261,0.037l0 0.454zm2.867 -0.443l-1.257 3.169c-0.223,0.566 -0.538,0.848 -0.944,0.848 -0.113,0 -0.208,-0.011 -0.285,-0.034l0 -0.393c0.094,0.032 0.181,0.049 0.259,0.049 0.22,0 0.386,-0.131 0.496,-0.395l0.219 -0.518 -1.067 -2.726 0.485 0 0.739 2.103c0.009,0.026 0.027,0.095 0.056,0.207l0.016 0c0.009,-0.043 0.026,-0.11 0.053,-0.203l0.777 -2.107 0.453 0zm4.161 1.475l-1.929 0c0.008,0.304 0.09,0.539 0.246,0.705 0.157,0.165 0.372,0.248 0.646,0.248 0.307,0 0.59,-0.101 0.848,-0.304l0 0.41c-0.24,0.175 -0.558,0.262 -0.952,0.262 -0.386,0 -0.689,-0.124 -0.91,-0.372 -0.221,-0.249 -0.331,-0.597 -0.331,-1.047 0,-0.425 0.121,-0.771 0.361,-1.039 0.242,-0.268 0.541,-0.401 0.898,-0.401 0.358,0 0.634,0.115 0.83,0.347 0.195,0.23 0.293,0.551 0.293,0.962l0 0.229zm-0.448 -0.37c-0.002,-0.252 -0.063,-0.449 -0.182,-0.59 -0.121,-0.14 -0.287,-0.21 -0.501,-0.21 -0.206,0 -0.382,0.073 -0.525,0.221 -0.144,0.147 -0.233,0.34 -0.267,0.579l1.475 0zm3.105 -1.105l-0.917 1.383 0.901 1.349 -0.509 0 -0.536 -0.886c-0.034,-0.055 -0.074,-0.124 -0.12,-0.208l-0.011 0c-0.009,0.016 -0.05,0.086 -0.126,0.208l-0.546 0.886 -0.505 0 0.932 -1.34 -0.892 -1.392 0.51 0 0.528 0.934c0.039,0.07 0.078,0.141 0.115,0.214l0.01 0 0.683 -1.148 0.483 0zm0.961 2.337l-0.011 0 0 1.651 -0.438 0 0 -3.988 0.438 0 0 0.48 0.011 0c0.215,-0.362 0.53,-0.543 0.944,-0.543 0.352,0 0.626,0.122 0.824,0.367 0.198,0.244 0.296,0.571 0.296,0.982 0,0.457 -0.111,0.823 -0.333,1.098 -0.222,0.274 -0.527,0.412 -0.913,0.412 -0.354,0 -0.626,-0.153 -0.818,-0.459zm-0.011 -1.102l0 0.381c0,0.226 0.073,0.418 0.22,0.576 0.147,0.157 0.333,0.236 0.558,0.236 0.265,0 0.473,-0.101 0.623,-0.304 0.15,-0.203 0.226,-0.485 0.226,-0.846 0,-0.304 -0.07,-0.542 -0.211,-0.715 -0.14,-0.172 -0.331,-0.258 -0.57,-0.258 -0.255,0 -0.459,0.088 -0.614,0.264 -0.155,0.178 -0.232,0.399 -0.232,0.666zm4.968 0.24l-1.928 0c0.007,0.304 0.089,0.539 0.246,0.705 0.156,0.165 0.371,0.248 0.645,0.248 0.308,0 0.59,-0.101 0.849,-0.304l0 0.41c-0.24,0.175 -0.558,0.262 -0.952,0.262 -0.387,0 -0.69,-0.124 -0.91,-0.372 -0.221,-0.249 -0.331,-0.597 -0.331,-1.047 0,-0.425 0.121,-0.771 0.361,-1.039 0.241,-0.268 0.541,-0.401 0.898,-0.401 0.358,0 0.633,0.115 0.829,0.347 0.196,0.23 0.293,0.551 0.293,0.962l0 0.229zm-0.448 -0.37c-0.001,-0.252 -0.062,-0.449 -0.182,-0.59 -0.12,-0.14 -0.286,-0.21 -0.5,-0.21 -0.206,0 -0.382,0.073 -0.526,0.221 -0.144,0.147 -0.233,0.34 -0.267,0.579l1.475 0zm2.972 1.501c-0.209,0.127 -0.459,0.19 -0.746,0.19 -0.39,0 -0.704,-0.127 -0.944,-0.38 -0.238,-0.253 -0.358,-0.582 -0.358,-0.986 0,-0.45 0.129,-0.811 0.387,-1.085 0.257,-0.272 0.601,-0.408 1.032,-0.408 0.24,0 0.452,0.043 0.635,0.133l0 0.448c-0.203,-0.142 -0.42,-0.213 -0.651,-0.213 -0.279,0 -0.508,0.1 -0.687,0.3 -0.178,0.199 -0.268,0.462 -0.268,0.787 0,0.321 0.084,0.573 0.252,0.758 0.168,0.185 0.393,0.278 0.676,0.278 0.239,0 0.463,-0.08 0.672,-0.238l0 0.416zm1.929 0.099c-0.103,0.057 -0.24,0.085 -0.408,0.085 -0.479,0 -0.718,-0.267 -0.718,-0.8l0 -1.616 -0.47 0 0 -0.374 0.47 0 0 -0.666 0.437 -0.142 0 0.808 0.689 0 0 0.374 -0.689 0 0 1.539c0,0.183 0.031,0.314 0.094,0.392 0.062,0.078 0.165,0.117 0.31,0.117 0.11,0 0.204,-0.03 0.285,-0.091l0 0.374zm2.539 0.027l-0.438 0 0 -0.427 -0.01 0c-0.19,0.328 -0.471,0.491 -0.84,0.491 -0.273,0 -0.486,-0.072 -0.64,-0.216 -0.154,-0.144 -0.23,-0.335 -0.23,-0.574 0,-0.51 0.3,-0.807 0.901,-0.89l0.819 -0.115c0,-0.464 -0.188,-0.696 -0.563,-0.696 -0.328,0 -0.625,0.111 -0.89,0.335l0 -0.448c0.268,-0.171 0.577,-0.255 0.928,-0.255 0.641,0 0.963,0.339 0.963,1.019l0 1.776zm-0.438 -1.382l-0.658 0.091c-0.203,0.028 -0.356,0.078 -0.459,0.151 -0.103,0.072 -0.155,0.199 -0.155,0.382 0,0.133 0.047,0.242 0.143,0.327 0.095,0.085 0.221,0.127 0.38,0.127 0.216,0 0.396,-0.077 0.537,-0.228 0.142,-0.152 0.212,-0.345 0.212,-0.578l0 -0.272zm2.529 1.355c-0.103,0.057 -0.239,0.085 -0.408,0.085 -0.479,0 -0.717,-0.267 -0.717,-0.8l0 -1.616 -0.47 0 0 -0.374 0.47 0 0 -0.666 0.437 -0.142 0 0.808 0.688 0 0 0.374 -0.688 0 0 1.539c0,0.183 0.031,0.314 0.094,0.392 0.062,0.078 0.164,0.117 0.309,0.117 0.11,0 0.205,-0.03 0.285,-0.091l0 0.374zm0.779 -3.398c-0.079,0 -0.145,-0.027 -0.201,-0.08 -0.054,-0.053 -0.082,-0.121 -0.082,-0.203 0,-0.082 0.028,-0.15 0.082,-0.204 0.056,-0.054 0.122,-0.081 0.201,-0.081 0.08,0 0.148,0.027 0.204,0.081 0.056,0.054 0.084,0.122 0.084,0.204 0,0.079 -0.028,0.145 -0.084,0.2 -0.056,0.055 -0.124,0.083 -0.204,0.083zm0.214 2.662c0,0.25 0.096,0.376 0.29,0.376 0.078,0 0.148,-0.01 0.21,-0.029l0 0.395c-0.033,0.008 -0.078,0.017 -0.134,0.024 -0.056,0.009 -0.115,0.013 -0.177,0.013 -0.087,0 -0.169,-0.014 -0.246,-0.043 -0.076,-0.029 -0.143,-0.072 -0.198,-0.131 -0.057,-0.058 -0.101,-0.132 -0.134,-0.22 -0.033,-0.087 -0.049,-0.19 -0.049,-0.308l0 -2.046 0.438 0 0 1.969zm2.117 0.827c-0.403,0 -0.725,-0.128 -0.967,-0.383 -0.24,-0.255 -0.361,-0.594 -0.361,-1.015 0,-0.459 0.126,-0.817 0.376,-1.075 0.251,-0.258 0.59,-0.386 1.017,-0.386 0.407,0 0.725,0.124 0.953,0.376 0.229,0.25 0.343,0.598 0.343,1.042 0,0.436 -0.123,0.785 -0.369,1.047 -0.247,0.262 -0.577,0.394 -0.992,0.394zm0.032 -2.491c-0.28,0 -0.502,0.095 -0.666,0.286 -0.164,0.191 -0.246,0.455 -0.246,0.792 0,0.323 0.083,0.578 0.248,0.764 0.166,0.187 0.387,0.281 0.664,0.281 0.283,0 0.501,-0.092 0.653,-0.275 0.152,-0.183 0.228,-0.444 0.228,-0.781 0,-0.342 -0.076,-0.605 -0.228,-0.79 -0.152,-0.186 -0.37,-0.277 -0.653,-0.277zm4.296 2.427l-0.438 0 0 -1.558c0,-0.58 -0.211,-0.869 -0.635,-0.869 -0.218,0 -0.399,0.081 -0.542,0.246 -0.144,0.165 -0.215,0.373 -0.215,0.623l0 1.558 -0.438 0 0 -2.732 0.438 0 0 0.454 0.011 0c0.205,-0.345 0.504,-0.517 0.896,-0.517 0.298,0 0.527,0.096 0.685,0.289 0.159,0.192 0.238,0.472 0.238,0.836l0 1.67zm0.659 -0.099l0 -0.469c0.238,0.175 0.501,0.264 0.787,0.264 0.384,0 0.576,-0.129 0.576,-0.385 0,-0.072 -0.016,-0.134 -0.049,-0.184 -0.034,-0.051 -0.078,-0.096 -0.134,-0.135 -0.056,-0.039 -0.122,-0.075 -0.198,-0.106 -0.075,-0.031 -0.156,-0.063 -0.244,-0.097 -0.121,-0.048 -0.226,-0.097 -0.318,-0.146 -0.091,-0.048 -0.168,-0.104 -0.23,-0.165 -0.061,-0.061 -0.107,-0.131 -0.138,-0.209 -0.031,-0.078 -0.047,-0.17 -0.047,-0.275 0,-0.128 0.03,-0.241 0.088,-0.34 0.059,-0.099 0.137,-0.182 0.235,-0.248 0.098,-0.067 0.209,-0.118 0.335,-0.151 0.124,-0.034 0.255,-0.05 0.388,-0.05 0.236,0 0.448,0.041 0.634,0.122l0 0.443c-0.2,-0.132 -0.431,-0.197 -0.693,-0.197 -0.082,0 -0.155,0.009 -0.222,0.028 -0.065,0.018 -0.122,0.044 -0.169,0.078 -0.047,0.034 -0.083,0.075 -0.109,0.121 -0.026,0.047 -0.039,0.099 -0.039,0.157 0,0.071 0.013,0.13 0.039,0.178 0.026,0.048 0.063,0.091 0.113,0.129 0.05,0.037 0.111,0.071 0.182,0.101 0.071,0.03 0.152,0.062 0.243,0.098 0.12,0.046 0.229,0.094 0.325,0.143 0.095,0.049 0.177,0.104 0.246,0.166 0.067,0.061 0.119,0.132 0.155,0.212 0.037,0.08 0.055,0.174 0.055,0.285 0,0.135 -0.03,0.253 -0.089,0.352 -0.06,0.099 -0.14,0.182 -0.239,0.248 -0.1,0.066 -0.215,0.114 -0.344,0.147 -0.13,0.032 -0.266,0.048 -0.409,0.048 -0.28,0 -0.524,-0.054 -0.73,-0.163zm2.933 -0.963c-0.015,-0.046 -0.03,-0.106 -0.041,-0.18 -0.013,-0.074 -0.02,-0.147 -0.02,-0.22 0,-0.113 0.023,-0.216 0.069,-0.308 0.045,-0.091 0.102,-0.178 0.169,-0.258 0.067,-0.079 0.141,-0.156 0.221,-0.23 0.08,-0.074 0.154,-0.149 0.222,-0.224 0.067,-0.076 0.123,-0.155 0.169,-0.238 0.045,-0.083 0.068,-0.174 0.068,-0.273 0,-0.085 -0.016,-0.161 -0.049,-0.227 -0.033,-0.065 -0.078,-0.121 -0.135,-0.165 -0.057,-0.045 -0.123,-0.078 -0.197,-0.1 -0.075,-0.022 -0.154,-0.033 -0.238,-0.033 -0.3,0 -0.561,0.118 -0.781,0.354l0 -0.469c0.272,-0.171 0.553,-0.257 0.846,-0.257 0.134,0 0.262,0.018 0.38,0.054 0.12,0.036 0.224,0.088 0.314,0.158 0.09,0.071 0.161,0.159 0.213,0.264 0.051,0.104 0.077,0.226 0.077,0.365 0,0.132 -0.024,0.249 -0.07,0.352 -0.046,0.103 -0.104,0.198 -0.174,0.284 -0.071,0.087 -0.147,0.167 -0.229,0.241 -0.082,0.075 -0.157,0.15 -0.227,0.223 -0.071,0.074 -0.13,0.151 -0.175,0.231 -0.046,0.08 -0.07,0.168 -0.07,0.264 0,0.082 0.01,0.156 0.03,0.223 0.019,0.066 0.039,0.123 0.058,0.169l-0.43 0zm0.241 1.11c-0.078,0 -0.148,-0.029 -0.208,-0.086 -0.059,-0.057 -0.088,-0.126 -0.088,-0.208 0,-0.083 0.029,-0.153 0.088,-0.208 0.059,-0.059 0.128,-0.088 0.208,-0.088 0.08,0 0.149,0.029 0.208,0.088 0.059,0.055 0.088,0.125 0.088,0.208 0,0.082 -0.029,0.151 -0.088,0.208 -0.061,0.057 -0.13,0.086 -0.208,0.086z"/>
   <polygon class="fil2" points="17.691,6.42 17.691,7.598 17.687,7.659 17.673,7.718 17.65,7.777 17.619,7.835 17.579,7.892 17.53,7.948 17.474,8.003 17.409,8.056 17.337,8.109 17.258,8.159 17.172,8.209 17.078,8.256 16.978,8.303 16.872,8.347 16.759,8.39 16.64,8.431 16.515,8.47 16.385,8.507 16.25,8.542 16.109,8.574 15.963,8.605 15.813,8.633 15.658,8.659 15.499,8.683 15.336,8.704 15.169,8.723 14.999,8.738 14.825,8.752 14.649,8.762 14.469,8.77 14.287,8.774 14.102,8.776 13.917,8.774 13.735,8.77 13.555,8.762 13.378,8.752 13.205,8.738 13.034,8.723 12.868,8.704 12.705,8.683 12.546,8.659 12.391,8.633 12.241,8.605 12.095,8.574 11.954,8.542 11.819,8.507 11.688,8.47 11.564,8.431 11.445,8.39 11.332,8.347 11.225,8.303 11.125,8.256 11.032,8.209 10.946,8.159 10.866,8.109 10.794,8.056 10.73,8.003 10.674,7.948 10.625,7.892 10.585,7.835 10.554,7.777 10.531,7.718 10.517,7.659 10.512,7.598 10.512,6.42 10.517,6.481 10.531,6.541 10.554,6.6 10.585,6.658 10.625,6.715 10.674,6.771 10.73,6.825 10.794,6.879 10.866,6.931 10.946,6.982 11.032,7.031 11.125,7.079 11.225,7.125 11.332,7.169 11.445,7.212 11.564,7.253 11.688,7.292 11.819,7.329 11.954,7.364 12.095,7.397 12.241,7.427 12.391,7.456 12.546,7.482 12.705,7.505 12.868,7.526 13.034,7.545 13.205,7.561 13.378,7.574 13.555,7.584 13.735,7.592 13.917,7.596 14.102,7.598 14.287,7.596 14.469,7.592 14.649,7.584 14.825,7.574 14.999,7.561 15.169,7.545 15.336,7.526 15.499,7.505 15.658,7.482 15.813,7.456 15.963,7.427 16.109,7.397 16.25,7.364 16.385,7.329 16.515,7.292 16.64,7.253 16.759,7.212 16.872,7.169 16.978,7.125 17.078,7.079 17.172,7.031 17.258,6.982 17.337,6.931 17.409,6.879 17.474,6.825 17.53,6.771 17.579,6.715 17.619,6.658 17.65,6.6 17.673,6.541 17.687,6.481 "/>
   <path class="fil1" d="M17.828 6.42l0 1.178 -0.005 0.071c-0.001,0.009 -0.003,0.019 -0.005,0.028l-0.012 0.052c-0.002,0.008 -0.005,0.016 -0.008,0.024l-0.021 0.053c-0.028,0.058 -0.051,0.093 -0.087,0.145 -0.042,0.05 -0.074,0.084 -0.121,0.13 -0.052,0.043 -0.097,0.078 -0.152,0.118 -0.06,0.038 -0.115,0.072 -0.177,0.108 -1.535,0.752 -5.102,0.87 -6.526,-0.16 -0.105,-0.088 -0.161,-0.141 -0.24,-0.253 -0.005,-0.007 -0.009,-0.014 -0.013,-0.022l-0.027 -0.05 -0.007 -0.016 -0.023 -0.059 -0.006 -0.018 -0.014 -0.06 -0.003 -0.02c-0.031,-0.39 -0.005,-0.851 -0.005,-1.249 0,-0.075 0.061,-0.136 0.136,-0.136 0.074,0 0.135,0.059 0.137,0.132l0.003 0.045 0.01 0.04 0.016 0.042 0.022 0.04 0.034 0.049 0.038 0.045 0.051 0.049 0.051 0.042 0.07 0.051 0.074 0.047 0.081 0.047 0.083 0.042 0.097 0.044c0.071,0.03 0.138,0.057 0.21,0.084 0.081,0.028 0.158,0.053 0.24,0.079 0.086,0.024 0.169,0.047 0.256,0.069 0.094,0.022 0.186,0.043 0.281,0.063l0.147 0.027 0.152 0.026c0.107,0.016 0.211,0.03 0.318,0.044 0.111,0.012 0.22,0.024 0.332,0.034 0.237,0.018 0.467,0.029 0.705,0.035l0.182 0.002 0.181 -0.002 0.181 -0.004 0.177 -0.008 0.174 -0.01c0.114,-0.009 0.226,-0.018 0.339,-0.028 0.11,-0.013 0.217,-0.025 0.325,-0.039 0.155,-0.024 0.305,-0.048 0.459,-0.077l0.14 -0.03c0.091,-0.021 0.18,-0.043 0.271,-0.066l0.126 -0.036 0.121 -0.038c0.076,-0.026 0.148,-0.052 0.224,-0.08l0.105 -0.045c0.063,-0.028 0.118,-0.055 0.18,-0.086l0.085 -0.049 0.068 -0.043 0.071 -0.053 0.052 -0.042 0.05 -0.049 0.039 -0.045 0.034 -0.049 0.022 -0.04 0.016 -0.042 0.009 -0.04 0.004 -0.051c0.006,-0.075 0.072,-0.131 0.147,-0.126 0.071,0.006 0.126,0.066 0.126,0.136zm-0.273 1.175l0 -0.66 -0.066 0.054c-1.354,0.983 -5.539,1.028 -6.84,-0.054l0 0.66 0.003 0.044 0.01 0.04 0.016 0.042 0.022 0.04 0.034 0.049 0.038 0.044 0.051 0.049c0.042,0.035 0.076,0.061 0.121,0.093l0.07 0.045 0.086 0.049c0.061,0.032 0.116,0.058 0.179,0.087l0.105 0.044c0.076,0.029 0.147,0.054 0.224,0.081 0.084,0.026 0.164,0.049 0.248,0.073 0.091,0.024 0.178,0.045 0.27,0.067l0.14 0.029c0.154,0.029 0.303,0.054 0.458,0.077 0.11,0.014 0.216,0.027 0.325,0.039 0.114,0.011 0.226,0.02 0.34,0.029l0.174 0.01 0.177 0.007 0.18 0.005 0.182 0.002 0.181 -0.002c0.238,-0.006 0.468,-0.018 0.706,-0.036 0.112,-0.01 0.221,-0.021 0.332,-0.033 0.107,-0.014 0.211,-0.029 0.317,-0.045l0.153 -0.025 0.147 -0.028c0.095,-0.02 0.186,-0.04 0.281,-0.062 0.088,-0.023 0.172,-0.046 0.259,-0.071 0.081,-0.025 0.157,-0.05 0.237,-0.077 0.072,-0.028 0.139,-0.054 0.21,-0.084l0.096 -0.044c0.06,-0.031 0.111,-0.059 0.169,-0.092 0.051,-0.032 0.09,-0.06 0.139,-0.095l0.052 -0.043 0.05 -0.049 0.039 -0.044 0.034 -0.049 0.022 -0.04 0.016 -0.042 0.009 -0.04 0.004 -0.044z"/>
   <polygon class="fil2" points="17.691,7.598 17.691,8.776 17.687,8.836 17.673,8.896 17.65,8.955 17.619,9.013 17.579,9.07 17.53,9.126 17.474,9.181 17.409,9.234 17.337,9.286 17.258,9.337 17.172,9.386 17.078,9.434 16.978,9.48 16.872,9.525 16.759,9.567 16.64,9.608 16.515,9.647 16.385,9.684 16.25,9.719 16.109,9.752 15.963,9.783 15.813,9.811 15.658,9.837 15.499,9.861 15.336,9.882 15.169,9.9 14.999,9.916 14.825,9.929 14.649,9.94 14.469,9.947 14.287,9.952 14.102,9.953 13.917,9.952 13.735,9.947 13.555,9.94 13.378,9.929 13.205,9.916 13.034,9.9 12.868,9.882 12.705,9.861 12.546,9.837 12.391,9.811 12.241,9.783 12.095,9.752 11.954,9.719 11.819,9.684 11.688,9.647 11.564,9.608 11.445,9.567 11.332,9.525 11.225,9.48 11.125,9.434 11.032,9.386 10.946,9.337 10.866,9.286 10.794,9.234 10.73,9.181 10.674,9.126 10.625,9.07 10.585,9.013 10.554,8.955 10.531,8.896 10.517,8.836 10.512,8.776 10.512,7.598 10.517,7.659 10.531,7.718 10.554,7.777 10.585,7.835 10.625,7.892 10.674,7.948 10.73,8.003 10.794,8.056 10.866,8.109 10.946,8.159 11.032,8.209 11.125,8.256 11.225,8.303 11.332,8.347 11.445,8.39 11.564,8.431 11.688,8.47 11.819,8.507 11.954,8.542 12.095,8.574 12.241,8.605 12.391,8.633 12.546,8.659 12.705,8.683 12.868,8.704 13.034,8.723 13.205,8.738 13.378,8.752 13.555,8.762 13.735,8.77 13.917,8.774 14.102,8.776 14.287,8.774 14.469,8.77 14.649,8.762 14.825,8.752 14.999,8.738 15.169,8.723 15.336,8.704 15.499,8.683 15.658,8.659 15.813,8.633 15.963,8.605 16.109,8.574 16.25,8.542 16.385,8.507 16.515,8.47 16.64,8.431 16.759,8.39 16.872,8.347 16.978,8.303 17.078,8.256 17.172,8.209 17.258,8.159 17.337,8.109 17.409,8.056 17.474,8.003 17.53,7.948 17.579,7.892 17.619,7.835 17.65,7.777 17.673,7.718 17.687,7.659 "/>
   <path class="fil1" d="M17.828 7.598l0 1.178 -0.005 0.07c-0.001,0.01 -0.003,0.019 -0.005,0.028l-0.012 0.052 -0.008 0.024 -0.021 0.054c-0.028,0.057 -0.051,0.092 -0.087,0.144 -0.042,0.051 -0.075,0.085 -0.121,0.13 -0.052,0.044 -0.097,0.079 -0.152,0.119 -0.06,0.038 -0.115,0.072 -0.177,0.108 -1.532,0.754 -5.105,0.868 -6.526,-0.161 -0.05,-0.041 -0.088,-0.075 -0.135,-0.121 -0.043,-0.046 -0.07,-0.081 -0.105,-0.132 -0.005,-0.007 -0.009,-0.014 -0.013,-0.021l-0.027 -0.05 -0.007 -0.016 -0.023 -0.059 -0.006 -0.019 -0.014 -0.059 -0.003 -0.021c-0.031,-0.39 -0.005,-0.85 -0.005,-1.248 0,-0.075 0.061,-0.137 0.136,-0.137 0.074,0 0.135,0.059 0.137,0.133l0.003 0.045 0.01 0.04 0.016 0.042 0.022 0.04 0.034 0.049 0.038 0.044 0.051 0.049 0.051 0.043 0.07 0.05 0.07 0.045c0.058,0.033 0.109,0.061 0.168,0.092l0.097 0.044c0.071,0.03 0.138,0.056 0.21,0.084 0.08,0.027 0.156,0.052 0.237,0.077 0.087,0.025 0.171,0.048 0.259,0.071 0.094,0.022 0.186,0.042 0.281,0.062l0.147 0.028 0.152 0.026c0.107,0.015 0.211,0.03 0.318,0.044 0.111,0.012 0.22,0.023 0.332,0.034 0.238,0.017 0.467,0.029 0.705,0.035l0.182 0.002 0.181 -0.002 0.181 -0.004 0.177 -0.008 0.174 -0.01c0.114,-0.009 0.226,-0.018 0.339,-0.029 0.11,-0.012 0.217,-0.024 0.325,-0.039 0.155,-0.023 0.305,-0.048 0.459,-0.077l0.14 -0.029c0.091,-0.022 0.179,-0.043 0.27,-0.066 0.084,-0.024 0.165,-0.048 0.248,-0.074 0.076,-0.027 0.148,-0.052 0.224,-0.081l0.105 -0.044c0.062,-0.029 0.118,-0.055 0.179,-0.087 0.054,-0.031 0.101,-0.058 0.154,-0.092 0.045,-0.033 0.08,-0.059 0.123,-0.095l0.05 -0.049 0.039 -0.044 0.034 -0.049 0.022 -0.04 0.016 -0.042 0.009 -0.04 0.004 -0.051c0.006,-0.075 0.072,-0.132 0.147,-0.126 0.071,0.005 0.126,0.065 0.126,0.136zm-0.273 1.175l0 -0.661 -0.066 0.055c-0.056,0.04 -0.106,0.073 -0.163,0.111 -1.524,0.871 -4.803,0.82 -6.362,0.049 -0.121,-0.069 -0.208,-0.125 -0.315,-0.215l0 0.66 0.003 0.045 0.01 0.039 0.016 0.042 0.022 0.041 0.034 0.048 0.038 0.045 0.051 0.049c0.042,0.035 0.076,0.061 0.121,0.093l0.07 0.045 0.086 0.049c0.061,0.031 0.116,0.058 0.179,0.087l0.105 0.044c0.076,0.028 0.147,0.054 0.224,0.08l0.121 0.038 0.126 0.036c0.091,0.024 0.179,0.045 0.271,0.066l0.14 0.03c0.154,0.029 0.303,0.054 0.458,0.077 0.11,0.014 0.216,0.027 0.325,0.039 0.114,0.011 0.225,0.02 0.34,0.028l0.174 0.011 0.177 0.007 0.18 0.005 0.182 0.001 0.181 -0.001c0.238,-0.006 0.468,-0.018 0.706,-0.036 0.112,-0.01 0.221,-0.021 0.332,-0.034 0.107,-0.013 0.211,-0.028 0.317,-0.044l0.153 -0.025 0.147 -0.028c0.094,-0.02 0.186,-0.04 0.281,-0.063 0.087,-0.022 0.17,-0.044 0.256,-0.069 0.082,-0.025 0.159,-0.051 0.24,-0.079 0.072,-0.027 0.139,-0.053 0.21,-0.083l0.096 -0.045c0.06,-0.03 0.111,-0.058 0.169,-0.092 0.051,-0.032 0.09,-0.059 0.139,-0.094l0.052 -0.043 0.05 -0.049 0.039 -0.045 0.034 -0.048 0.022 -0.041 0.016 -0.042 0.009 -0.039 0.004 -0.044z"/>
   <polygon class="fil2" points="17.691,8.776 17.691,9.953 17.687,10.014 17.673,10.074 17.65,10.133 17.619,10.191 17.579,10.248 17.53,10.304 17.474,10.358 17.409,10.412 17.337,10.464 17.258,10.515 17.172,10.564 17.078,10.612 16.978,10.658 16.872,10.702 16.759,10.745 16.64,10.786 16.515,10.825 16.385,10.862 16.25,10.897 16.109,10.93 15.963,10.96 15.813,10.989 15.658,11.015 15.499,11.038 15.336,11.059 15.169,11.078 14.999,11.094 14.825,11.107 14.649,11.117 14.469,11.125 14.287,11.129 14.102,11.131 13.917,11.129 13.735,11.125 13.555,11.117 13.378,11.107 13.205,11.094 13.034,11.078 12.868,11.059 12.705,11.038 12.546,11.015 12.391,10.989 12.241,10.96 12.095,10.93 11.954,10.897 11.819,10.862 11.688,10.825 11.564,10.786 11.445,10.745 11.332,10.702 11.225,10.658 11.125,10.612 11.032,10.564 10.946,10.515 10.866,10.464 10.794,10.412 10.73,10.358 10.674,10.304 10.625,10.248 10.585,10.191 10.554,10.133 10.531,10.074 10.517,10.014 10.512,9.953 10.512,8.776 10.517,8.836 10.531,8.896 10.554,8.955 10.585,9.013 10.625,9.07 10.674,9.126 10.73,9.181 10.794,9.234 10.866,9.286 10.946,9.337 11.032,9.386 11.125,9.434 11.225,9.48 11.332,9.525 11.445,9.567 11.564,9.608 11.688,9.647 11.819,9.684 11.954,9.719 12.095,9.752 12.241,9.783 12.391,9.811 12.546,9.837 12.705,9.861 12.868,9.882 13.034,9.9 13.205,9.916 13.378,9.929 13.555,9.94 13.735,9.947 13.917,9.952 14.102,9.953 14.287,9.952 14.469,9.947 14.649,9.94 14.825,9.929 14.999,9.916 15.169,9.9 15.336,9.882 15.499,9.861 15.658,9.837 15.813,9.811 15.963,9.783 16.109,9.752 16.25,9.719 16.385,9.684 16.515,9.647 16.64,9.608 16.759,9.567 16.872,9.525 16.978,9.48 17.078,9.434 17.172,9.386 17.258,9.337 17.337,9.286 17.409,9.234 17.474,9.181 17.53,9.126 17.579,9.07 17.619,9.013 17.65,8.955 17.673,8.896 17.687,8.836 "/>
   <path class="fil1" d="M17.828 8.776l0 1.177 -0.005 0.071c-0.001,0.01 -0.003,0.019 -0.005,0.028l-0.012 0.052 -0.008 0.024 -0.021 0.054c-0.028,0.057 -0.051,0.092 -0.087,0.144 -0.042,0.051 -0.074,0.084 -0.121,0.13 -0.052,0.044 -0.097,0.078 -0.152,0.118 -1.451,0.913 -5.299,0.964 -6.703,-0.052 -0.049,-0.041 -0.088,-0.075 -0.135,-0.12 -0.042,-0.047 -0.069,-0.082 -0.105,-0.133 -0.005,-0.007 -0.009,-0.014 -0.013,-0.021l-0.027 -0.05 -0.007 -0.016 -0.023 -0.059 -0.006 -0.019 -0.014 -0.06 -0.003 -0.02c-0.031,-0.39 -0.005,-0.85 -0.005,-1.248 0,-0.076 0.061,-0.137 0.136,-0.137 0.074,0 0.135,0.059 0.137,0.133l0.003 0.045 0.01 0.039 0.016 0.042 0.022 0.041 0.034 0.048 0.038 0.045 0.051 0.049 0.051 0.043 0.07 0.05 0.07 0.045c0.058,0.033 0.109,0.061 0.168,0.091l0.097 0.045c0.071,0.03 0.138,0.056 0.21,0.084 0.081,0.027 0.158,0.053 0.24,0.078 0.086,0.025 0.169,0.047 0.256,0.07 0.094,0.022 0.186,0.042 0.281,0.062l0.147 0.028 0.152 0.025c0.107,0.016 0.211,0.031 0.318,0.045 0.111,0.012 0.221,0.023 0.332,0.033 0.238,0.018 0.467,0.03 0.705,0.036l0.182 0.001 0.181 -0.001 0.181 -0.005 0.177 -0.007 0.174 -0.011c0.114,-0.008 0.226,-0.017 0.339,-0.028 0.11,-0.012 0.217,-0.025 0.325,-0.039 0.155,-0.023 0.305,-0.048 0.459,-0.077l0.14 -0.03c0.091,-0.021 0.18,-0.042 0.271,-0.066l0.126 -0.036 0.121 -0.038c0.076,-0.026 0.148,-0.052 0.224,-0.08l0.105 -0.044c0.062,-0.029 0.118,-0.056 0.179,-0.087 0.054,-0.031 0.101,-0.059 0.154,-0.092 0.045,-0.033 0.08,-0.059 0.123,-0.095l0.05 -0.049 0.039 -0.045 0.034 -0.048 0.022 -0.041 0.016 -0.042 0.009 -0.039 0.004 -0.052c0.006,-0.075 0.072,-0.131 0.147,-0.125 0.071,0.005 0.126,0.065 0.126,0.136zm-0.273 1.174l0 -0.66 -0.066 0.054c-0.056,0.041 -0.106,0.073 -0.163,0.111 -1.527,0.873 -4.799,0.819 -6.362,0.05 -0.121,-0.069 -0.208,-0.126 -0.315,-0.215l0 0.66 0.003 0.044 0.01 0.04 0.016 0.042 0.022 0.04 0.034 0.049 0.038 0.045 0.051 0.049 0.051 0.042 0.07 0.051 0.074 0.047 0.081 0.047c0.061,0.031 0.117,0.058 0.18,0.086l0.105 0.044c0.076,0.029 0.147,0.055 0.224,0.081l0.121 0.038 0.126 0.036c0.091,0.023 0.179,0.045 0.271,0.066l0.14 0.03c0.154,0.029 0.303,0.053 0.458,0.076 0.11,0.015 0.216,0.027 0.325,0.039 0.114,0.011 0.226,0.02 0.34,0.029l0.174 0.01 0.177 0.008 0.18 0.004 0.182 0.002 0.181 -0.002c0.238,-0.006 0.468,-0.017 0.706,-0.035 0.112,-0.01 0.221,-0.022 0.332,-0.034 0.107,-0.014 0.211,-0.028 0.317,-0.044l0.153 -0.026 0.147 -0.027c0.094,-0.02 0.186,-0.041 0.281,-0.063 0.087,-0.022 0.17,-0.045 0.256,-0.069 0.082,-0.026 0.159,-0.051 0.24,-0.079 0.072,-0.027 0.139,-0.054 0.21,-0.084l0.096 -0.044 0.083 -0.042 0.086 -0.049c0.051,-0.033 0.091,-0.06 0.139,-0.096l0.052 -0.042 0.05 -0.049 0.039 -0.045 0.034 -0.049 0.022 -0.04 0.016 -0.042 0.009 -0.04 0.004 -0.044z"/>
   <polygon class="fil2" points="17.691,9.953 17.691,11.131 17.687,11.192 17.673,11.251 17.65,11.31 17.619,11.368 17.579,11.425 17.53,11.481 17.474,11.536 17.409,11.589 17.337,11.641 17.258,11.692 17.172,11.742 17.078,11.789 16.978,11.836 16.872,11.88 16.759,11.923 16.64,11.964 16.515,12.003 16.385,12.04 16.25,12.075 16.109,12.107 15.963,12.138 15.813,12.166 15.658,12.192 15.499,12.216 15.336,12.237 15.169,12.256 14.999,12.271 14.825,12.285 14.649,12.295 14.469,12.302 14.287,12.307 14.102,12.309 13.917,12.307 13.735,12.302 13.555,12.295 13.378,12.285 13.205,12.271 13.034,12.256 12.868,12.237 12.705,12.216 12.546,12.192 12.391,12.166 12.241,12.138 12.095,12.107 11.954,12.075 11.819,12.04 11.688,12.003 11.564,11.964 11.445,11.923 11.332,11.88 11.225,11.836 11.125,11.789 11.032,11.742 10.946,11.692 10.866,11.641 10.794,11.589 10.73,11.536 10.674,11.481 10.625,11.425 10.585,11.368 10.554,11.31 10.531,11.251 10.517,11.192 10.512,11.131 10.512,9.953 10.517,10.014 10.531,10.074 10.554,10.133 10.585,10.191 10.625,10.248 10.674,10.304 10.73,10.358 10.794,10.412 10.866,10.464 10.946,10.515 11.032,10.564 11.125,10.612 11.225,10.658 11.332,10.702 11.445,10.745 11.564,10.786 11.688,10.825 11.819,10.862 11.954,10.897 12.095,10.93 12.241,10.96 12.391,10.989 12.546,11.015 12.705,11.038 12.868,11.059 13.034,11.078 13.205,11.094 13.378,11.107 13.555,11.117 13.735,11.125 13.917,11.129 14.102,11.131 14.287,11.129 14.469,11.125 14.649,11.117 14.825,11.107 14.999,11.094 15.169,11.078 15.336,11.059 15.499,11.038 15.658,11.015 15.813,10.989 15.963,10.96 16.109,10.93 16.25,10.897 16.385,10.862 16.515,10.825 16.64,10.786 16.759,10.745 16.872,10.702 16.978,10.658 17.078,10.612 17.172,10.564 17.258,10.515 17.337,10.464 17.409,10.412 17.474,10.358 17.53,10.304 17.579,10.248 17.619,10.191 17.65,10.133 17.673,10.074 17.687,10.014 "/>
   <path class="fil1" d="M17.828 9.953l0 1.178 -0.005 0.071c-0.001,0.009 -0.003,0.019 -0.005,0.028l-0.012 0.052 -0.008 0.024 -0.021 0.053c-0.028,0.058 -0.051,0.092 -0.087,0.145 -0.042,0.05 -0.074,0.084 -0.121,0.13 -0.052,0.043 -0.097,0.078 -0.152,0.118 -0.06,0.038 -0.115,0.072 -0.177,0.108 -1.535,0.752 -5.102,0.87 -6.526,-0.16 -0.05,-0.042 -0.088,-0.076 -0.135,-0.121 -0.042,-0.046 -0.07,-0.082 -0.105,-0.132 -0.005,-0.007 -0.009,-0.014 -0.013,-0.022l-0.027 -0.05 -0.007 -0.016 -0.023 -0.059 -0.006 -0.018 -0.014 -0.06 -0.003 -0.02c-0.031,-0.39 -0.005,-0.851 -0.005,-1.249 0,-0.075 0.061,-0.136 0.136,-0.136 0.074,0 0.135,0.059 0.137,0.132l0.003 0.045 0.01 0.04 0.016 0.042 0.022 0.04 0.034 0.049 0.038 0.045 0.051 0.049 0.051 0.042 0.07 0.051 0.074 0.047 0.081 0.047 0.083 0.042 0.097 0.044c0.071,0.03 0.138,0.057 0.21,0.084 0.081,0.028 0.158,0.053 0.24,0.079 0.086,0.024 0.169,0.047 0.256,0.069 0.094,0.022 0.186,0.043 0.281,0.063l0.147 0.027 0.152 0.026c0.107,0.016 0.211,0.03 0.318,0.044 0.111,0.012 0.22,0.024 0.332,0.034 0.237,0.018 0.467,0.029 0.705,0.035l0.182 0.002 0.181 -0.002 0.181 -0.004 0.177 -0.008 0.174 -0.01c0.114,-0.009 0.226,-0.018 0.339,-0.028 0.11,-0.013 0.217,-0.025 0.325,-0.039 0.155,-0.024 0.305,-0.048 0.459,-0.077l0.14 -0.03c0.091,-0.021 0.18,-0.043 0.271,-0.066l0.126 -0.036 0.121 -0.038c0.076,-0.026 0.148,-0.052 0.224,-0.08l0.105 -0.045c0.063,-0.028 0.118,-0.055 0.18,-0.086l0.085 -0.049 0.068 -0.043 0.071 -0.053 0.052 -0.042 0.05 -0.049 0.039 -0.045 0.034 -0.049 0.022 -0.04 0.016 -0.042 0.009 -0.04 0.004 -0.051c0.006,-0.075 0.072,-0.131 0.147,-0.126 0.071,0.006 0.126,0.066 0.126,0.136zm-0.273 1.175l0 -0.66 -0.066 0.054c-1.354,0.983 -5.539,1.028 -6.84,-0.054l0 0.66 0.003 0.044 0.01 0.04 0.016 0.042 0.022 0.04 0.034 0.049 0.038 0.044 0.051 0.049c0.042,0.035 0.076,0.061 0.121,0.093l0.07 0.045 0.086 0.049c0.061,0.032 0.116,0.058 0.179,0.087l0.105 0.044c0.076,0.029 0.147,0.054 0.224,0.081 0.084,0.026 0.164,0.049 0.248,0.073 0.091,0.024 0.178,0.045 0.27,0.067l0.14 0.029c0.154,0.029 0.303,0.054 0.458,0.077 0.11,0.014 0.216,0.027 0.325,0.039 0.114,0.011 0.226,0.02 0.34,0.029l0.174 0.01 0.177 0.007 0.18 0.005 0.182 0.001 0.181 -0.001c0.238,-0.006 0.468,-0.018 0.706,-0.036 0.112,-0.01 0.221,-0.021 0.332,-0.033 0.107,-0.014 0.211,-0.029 0.317,-0.045l0.153 -0.025 0.147 -0.028c0.095,-0.02 0.186,-0.04 0.281,-0.062 0.088,-0.023 0.172,-0.046 0.259,-0.071 0.081,-0.025 0.157,-0.05 0.237,-0.077 0.072,-0.028 0.139,-0.054 0.21,-0.084l0.096 -0.044c0.06,-0.031 0.111,-0.059 0.169,-0.092 0.051,-0.032 0.09,-0.06 0.139,-0.095l0.052 -0.043 0.05 -0.049 0.039 -0.044 0.034 -0.049 0.022 -0.04 0.016 -0.042 0.009 -0.04 0.004 -0.044z"/>
   <polygon class="fil2" points="17.691,11.131 17.691,12.309 17.687,12.369 17.673,12.429 17.65,12.488 17.619,12.546 17.579,12.603 17.53,12.659 17.474,12.714 17.409,12.767 17.337,12.819 17.258,12.87 17.172,12.919 17.078,12.967 16.978,13.013 16.872,13.058 16.759,13.1 16.64,13.141 16.515,13.18 16.385,13.217 16.25,13.252 16.109,13.285 15.963,13.316 15.813,13.344 15.658,13.37 15.499,13.394 15.336,13.415 15.169,13.433 14.999,13.449 14.825,13.462 14.649,13.473 14.469,13.48 14.287,13.485 14.102,13.486 13.917,13.485 13.735,13.48 13.555,13.473 13.378,13.462 13.205,13.449 13.034,13.433 12.868,13.415 12.705,13.394 12.546,13.37 12.391,13.344 12.241,13.316 12.095,13.285 11.954,13.252 11.819,13.217 11.688,13.18 11.564,13.141 11.445,13.1 11.332,13.058 11.225,13.013 11.125,12.967 11.032,12.919 10.946,12.87 10.866,12.819 10.794,12.767 10.73,12.714 10.674,12.659 10.625,12.603 10.585,12.546 10.554,12.488 10.531,12.429 10.517,12.369 10.512,12.309 10.512,11.131 10.517,11.192 10.531,11.251 10.554,11.31 10.585,11.368 10.625,11.425 10.674,11.481 10.73,11.536 10.794,11.589 10.866,11.641 10.946,11.692 11.032,11.742 11.125,11.789 11.225,11.836 11.332,11.88 11.445,11.923 11.564,11.964 11.688,12.003 11.819,12.04 11.954,12.075 12.095,12.107 12.241,12.138 12.391,12.166 12.546,12.192 12.705,12.216 12.868,12.237 13.034,12.256 13.205,12.271 13.378,12.285 13.555,12.295 13.735,12.302 13.917,12.307 14.102,12.309 14.287,12.307 14.469,12.302 14.649,12.295 14.825,12.285 14.999,12.271 15.169,12.256 15.336,12.237 15.499,12.216 15.658,12.192 15.813,12.166 15.963,12.138 16.109,12.107 16.25,12.075 16.385,12.04 16.515,12.003 16.64,11.964 16.759,11.923 16.872,11.88 16.978,11.836 17.078,11.789 17.172,11.742 17.258,11.692 17.337,11.641 17.409,11.589 17.474,11.536 17.53,11.481 17.579,11.425 17.619,11.368 17.65,11.31 17.673,11.251 17.687,11.192 "/>
   <path class="fil1" d="M17.828 11.131l0 1.178 -0.005 0.07c-0.001,0.01 -0.003,0.019 -0.005,0.028l-0.012 0.052 -0.008 0.024 -0.021 0.054c-0.028,0.057 -0.051,0.092 -0.087,0.144 -0.042,0.051 -0.075,0.085 -0.121,0.13 -0.052,0.044 -0.097,0.079 -0.152,0.119 -0.06,0.038 -0.115,0.072 -0.177,0.108 -1.532,0.754 -5.105,0.867 -6.526,-0.161 -0.05,-0.041 -0.088,-0.075 -0.135,-0.121 -0.043,-0.046 -0.07,-0.081 -0.105,-0.132 -0.005,-0.007 -0.009,-0.014 -0.013,-0.021l-0.027 -0.05 -0.007 -0.016 -0.023 -0.059 -0.006 -0.019 -0.014 -0.059 -0.003 -0.021c-0.031,-0.39 -0.005,-0.85 -0.005,-1.248 0,-0.075 0.061,-0.137 0.136,-0.137 0.074,0 0.135,0.059 0.137,0.133l0.003 0.045 0.01 0.04 0.016 0.042 0.022 0.04 0.034 0.049 0.038 0.044 0.051 0.049 0.051 0.043 0.07 0.05 0.07 0.045c0.058,0.033 0.109,0.061 0.168,0.092l0.097 0.044c0.071,0.03 0.138,0.056 0.21,0.084 0.08,0.027 0.156,0.052 0.237,0.077 0.087,0.025 0.171,0.048 0.259,0.071 0.094,0.022 0.186,0.042 0.281,0.062l0.147 0.028 0.152 0.026c0.107,0.015 0.211,0.03 0.318,0.044 0.111,0.012 0.22,0.023 0.332,0.034 0.238,0.017 0.467,0.029 0.705,0.035l0.182 0.001 0.181 -0.001 0.181 -0.004 0.177 -0.008 0.174 -0.01c0.114,-0.009 0.226,-0.018 0.339,-0.029 0.11,-0.012 0.217,-0.024 0.325,-0.039 0.155,-0.023 0.305,-0.048 0.459,-0.077l0.14 -0.029c0.091,-0.022 0.179,-0.043 0.27,-0.066 0.084,-0.024 0.165,-0.048 0.248,-0.074 0.076,-0.027 0.148,-0.052 0.224,-0.081l0.105 -0.044c0.062,-0.029 0.118,-0.055 0.179,-0.087 0.054,-0.031 0.101,-0.058 0.154,-0.092 0.045,-0.033 0.08,-0.059 0.123,-0.095l0.05 -0.049 0.039 -0.044 0.034 -0.049 0.022 -0.04 0.016 -0.042 0.009 -0.04 0.004 -0.051c0.006,-0.075 0.072,-0.132 0.147,-0.126 0.071,0.005 0.126,0.065 0.126,0.136zm-0.273 1.174l0 -0.66 -0.066 0.055c-0.056,0.04 -0.106,0.073 -0.163,0.111 -1.524,0.871 -4.803,0.82 -6.362,0.049 -0.121,-0.069 -0.208,-0.125 -0.315,-0.215l0 0.66 0.003 0.045 0.01 0.039 0.016 0.042 0.022 0.041 0.034 0.048 0.038 0.045 0.051 0.049c0.042,0.035 0.076,0.061 0.121,0.093l0.07 0.045 0.086 0.049c0.061,0.031 0.116,0.058 0.179,0.087l0.105 0.044c0.076,0.028 0.147,0.054 0.224,0.08l0.121 0.038 0.126 0.036c0.091,0.024 0.179,0.045 0.271,0.066l0.14 0.03c0.154,0.029 0.303,0.054 0.458,0.077 0.11,0.014 0.216,0.027 0.325,0.039 0.114,0.011 0.225,0.02 0.34,0.028l0.174 0.011 0.177 0.007 0.18 0.005 0.182 0.001 0.181 -0.001c0.238,-0.006 0.468,-0.018 0.706,-0.036 0.112,-0.01 0.221,-0.021 0.332,-0.034 0.107,-0.013 0.211,-0.028 0.317,-0.044l0.153 -0.025 0.147 -0.028c0.094,-0.02 0.186,-0.04 0.281,-0.063 0.087,-0.022 0.17,-0.044 0.256,-0.069 0.082,-0.025 0.159,-0.051 0.24,-0.079 0.072,-0.027 0.139,-0.053 0.21,-0.083l0.096 -0.045c0.06,-0.03 0.111,-0.058 0.169,-0.092 0.051,-0.032 0.09,-0.059 0.139,-0.094l0.052 -0.043 0.05 -0.049 0.039 -0.045 0.034 -0.048 0.022 -0.041 0.016 -0.042 0.009 -0.039 0.004 -0.045z"/>
   <polygon class="fil0" points="14.102,5.243 14.287,5.244 14.469,5.249 14.649,5.256 14.825,5.267 14.999,5.28 15.169,5.296 15.336,5.314 15.499,5.335 15.658,5.359 15.813,5.385 15.963,5.413 16.109,5.444 16.25,5.477 16.385,5.512 16.515,5.549 16.64,5.588 16.759,5.629 16.872,5.671 16.978,5.716 17.078,5.762 17.172,5.81 17.258,5.859 17.337,5.91 17.409,5.962 17.474,6.015 17.53,6.07 17.579,6.126 17.619,6.183 17.65,6.241 17.673,6.3 17.687,6.36 17.691,6.42 17.687,6.481 17.673,6.541 17.65,6.6 17.619,6.658 17.579,6.715 17.53,6.771 17.474,6.825 17.409,6.879 17.337,6.931 17.258,6.982 17.172,7.031 17.078,7.079 16.978,7.125 16.872,7.169 16.759,7.212 16.64,7.253 16.515,7.292 16.385,7.329 16.25,7.364 16.109,7.397 15.963,7.427 15.813,7.456 15.658,7.482 15.499,7.505 15.336,7.526 15.169,7.545 14.999,7.561 14.825,7.574 14.649,7.584 14.469,7.592 14.287,7.596 14.102,7.598 13.917,7.596 13.735,7.592 13.555,7.584 13.378,7.574 13.205,7.561 13.034,7.545 12.868,7.526 12.705,7.505 12.546,7.482 12.391,7.456 12.241,7.427 12.095,7.397 11.954,7.364 11.819,7.329 11.688,7.292 11.564,7.253 11.445,7.212 11.332,7.169 11.225,7.125 11.125,7.079 11.032,7.031 10.946,6.982 10.866,6.931 10.794,6.879 10.73,6.825 10.674,6.771 10.625,6.715 10.585,6.658 10.554,6.6 10.531,6.541 10.517,6.481 10.512,6.42 10.517,6.36 10.531,6.3 10.554,6.241 10.585,6.183 10.625,6.126 10.674,6.07 10.73,6.015 10.794,5.962 10.866,5.91 10.946,5.859 11.032,5.81 11.125,5.762 11.225,5.716 11.332,5.671 11.445,5.629 11.564,5.588 11.688,5.549 11.819,5.512 11.954,5.477 12.095,5.444 12.241,5.413 12.391,5.385 12.546,5.359 12.705,5.335 12.868,5.314 13.034,5.296 13.205,5.28 13.378,5.267 13.555,5.256 13.735,5.249 13.917,5.244 "/>
   <path class="fil1" d="M14.103 5.107c1.01,0.009 2.541,0.134 3.386,0.745 0.105,0.087 0.162,0.14 0.241,0.253l0.04 0.071 0.007 0.016 0.023 0.059 0.006 0.018 0.014 0.06 0.003 0.021 0.004 0.06 0 0.022 -0.004 0.059c-0.001,0.01 -0.003,0.019 -0.005,0.028l-0.012 0.052c-0.002,0.008 -0.005,0.016 -0.008,0.024l-0.021 0.054c-0.028,0.057 -0.051,0.092 -0.087,0.144 -0.042,0.051 -0.074,0.084 -0.121,0.13 -0.052,0.044 -0.097,0.078 -0.152,0.118 -1.455,0.911 -5.296,0.966 -6.703,-0.052 -0.049,-0.041 -0.088,-0.075 -0.135,-0.12 -0.042,-0.046 -0.069,-0.082 -0.105,-0.133 -0.005,-0.007 -0.009,-0.014 -0.013,-0.021l-0.027 -0.05 -0.007 -0.016 -0.023 -0.059 -0.006 -0.019 -0.014 -0.06 -0.003 -0.02 -0.005 -0.06 0 -0.022 0.005 -0.059c0.001,-0.01 0.002,-0.019 0.005,-0.028l0.012 -0.053c0.002,-0.008 0.005,-0.016 0.008,-0.023l0.021 -0.054c0.028,-0.058 0.05,-0.092 0.087,-0.144 0.041,-0.051 0.074,-0.085 0.121,-0.13 0.777,-0.664 2.49,-0.811 3.468,-0.811zm0.18 0.273l-0.181 -0.001 -0.181 0.001c-0.239,0.006 -0.468,0.018 -0.706,0.036 -0.112,0.01 -0.221,0.021 -0.332,0.034 -0.107,0.013 -0.211,0.028 -0.318,0.044l-0.152 0.025 -0.147 0.028c-0.095,0.02 -0.186,0.04 -0.281,0.062 -0.087,0.023 -0.17,0.045 -0.256,0.07 -0.082,0.025 -0.159,0.051 -0.24,0.079 -0.072,0.027 -0.139,0.053 -0.21,0.083l-0.097 0.045 -0.083 0.042 -0.081 0.046 -0.074 0.048 -0.07 0.05 -0.051 0.043 -0.051 0.049 -0.038 0.045 -0.034 0.048 -0.022 0.04 -0.016 0.042 -0.01 0.04 -0.003 0.041 0.003 0.041 0.01 0.04 0.016 0.042 0.022 0.04 0.034 0.049 0.038 0.045 0.051 0.049 0.051 0.042 0.07 0.051 0.074 0.047 0.081 0.047c0.061,0.031 0.117,0.058 0.18,0.086l0.105 0.044c0.076,0.029 0.147,0.055 0.224,0.081l0.121 0.038 0.126 0.036c0.091,0.023 0.179,0.045 0.271,0.066l0.14 0.03c0.154,0.029 0.303,0.053 0.458,0.076 0.11,0.015 0.216,0.027 0.325,0.039 0.114,0.011 0.226,0.02 0.34,0.029l0.174 0.01 0.177 0.008 0.18 0.004 0.182 0.002 0.181 -0.002c0.238,-0.006 0.468,-0.017 0.706,-0.035 0.112,-0.01 0.221,-0.022 0.332,-0.034 0.107,-0.014 0.211,-0.028 0.317,-0.044l0.153 -0.026 0.147 -0.027c0.094,-0.02 0.186,-0.041 0.281,-0.063 0.087,-0.022 0.17,-0.045 0.256,-0.069 0.082,-0.026 0.159,-0.051 0.24,-0.079 0.072,-0.027 0.139,-0.054 0.21,-0.084l0.096 -0.044 0.083 -0.042 0.086 -0.049c0.051,-0.033 0.091,-0.06 0.139,-0.096l0.052 -0.042 0.05 -0.049 0.039 -0.045 0.034 -0.049 0.022 -0.04 0.016 -0.042 0.009 -0.04 0.004 -0.041 -0.004 -0.041 -0.009 -0.04 -0.016 -0.041 -0.022 -0.041 -0.034 -0.048 -0.039 -0.045 -0.05 -0.049 -0.051 -0.042 -0.07 -0.051 -0.075 -0.048 -0.08 -0.046c-0.062,-0.031 -0.117,-0.058 -0.18,-0.087l-0.105 -0.044c-0.076,-0.028 -0.148,-0.054 -0.224,-0.08l-0.121 -0.038 -0.127 -0.036c-0.091,-0.024 -0.178,-0.045 -0.27,-0.066l-0.14 -0.03c-0.154,-0.029 -0.304,-0.054 -0.459,-0.077 -0.109,-0.014 -0.215,-0.027 -0.325,-0.039 -0.113,-0.011 -0.225,-0.02 -0.339,-0.028l-0.174 -0.011 -0.177 -0.007 -0.181 -0.005z"/>
   <path class="fil0" d="M10.512 7.742c1.983,0 3.59,1.607 3.59,3.59 0,1.982 -1.607,3.589 -3.59,3.589 -1.982,0 -3.589,-1.607 -3.589,-3.589 0,-1.983 1.607,-3.59 3.589,-3.59z"/>
   <path class="fil1" d="M10.512 7.605c1.029,0 1.961,0.418 2.635,1.092 0.674,0.674 1.091,1.606 1.091,2.635 0,1.028 -0.417,1.96 -1.091,2.634 -0.674,0.675 -1.606,1.092 -2.635,1.092 -1.029,0 -1.96,-0.417 -2.634,-1.092 -0.675,-0.674 -1.092,-1.606 -1.092,-2.634 0,-1.029 0.417,-1.961 1.092,-2.635 0.674,-0.674 1.605,-1.092 2.634,-1.092zm2.442 1.285c-0.625,-0.625 -1.488,-1.011 -2.442,-1.011 -0.953,0 -1.817,0.386 -2.441,1.011 -0.625,0.625 -1.012,1.488 -1.012,2.442 0,0.953 0.387,1.816 1.012,2.441 0.624,0.625 1.488,1.011 2.441,1.011 0.954,0 1.817,-0.386 2.442,-1.011 0.625,-0.625 1.011,-1.488 1.011,-2.441 0,-0.954 -0.386,-1.817 -1.011,-2.442z"/>
   <path class="fil1" d="M10.239 13.166c0,-0.151 0.122,-0.273 0.273,-0.273 0.151,0 0.273,0.122 0.273,0.273l0 0.487c0,0.151 -0.122,0.273 -0.273,0.273 -0.151,0 -0.273,-0.122 -0.273,-0.273l0 -0.487zm0 -4.156c0,-0.151 0.122,-0.273 0.273,-0.273 0.151,0 0.273,0.122 0.273,0.273l0 0.488c0,0.151 -0.122,0.273 -0.273,0.273 -0.151,0 -0.273,-0.122 -0.273,-0.273l0 -0.488z"/>
   <path class="fil1" d="M9.879 10.481c0.008,0.035 0.019,0.067 0.034,0.098l0.005 0.009c0.009,0.017 0.018,0.034 0.028,0.048 0.008,0.014 0.018,0.027 0.028,0.039l0.007 0.008c0.013,0.016 0.027,0.031 0.04,0.045 0.014,0.013 0.028,0.026 0.042,0.038 0.041,0.031 0.078,0.059 0.121,0.088 0.017,0.012 0.038,0.025 0.062,0.039 0.079,0.045 0.158,0.086 0.239,0.128l0.284 0.144 0.098 0.052 0.099 0.056 0.089 0.052c0.034,0.021 0.063,0.04 0.088,0.057 0.027,0.019 0.055,0.039 0.082,0.06l0.002 0.002c0.027,0.02 0.053,0.041 0.078,0.063 0.029,0.025 0.053,0.047 0.073,0.067 0.022,0.022 0.044,0.045 0.065,0.068l0.003 0.004c0.019,0.023 0.038,0.046 0.055,0.068l0.004 0.005c0.018,0.026 0.035,0.052 0.051,0.078 0.016,0.025 0.031,0.053 0.045,0.082 0.015,0.031 0.027,0.06 0.037,0.088 0.01,0.031 0.019,0.062 0.026,0.094 0.013,0.064 0.02,0.133 0.02,0.205 0,0.045 -0.002,0.091 -0.007,0.137 -0.005,0.045 -0.012,0.087 -0.021,0.127 -0.008,0.038 -0.019,0.074 -0.032,0.109l-0.003 0.007c-0.012,0.034 -0.028,0.067 -0.046,0.099l-0.003 0.007c-0.016,0.028 -0.034,0.057 -0.055,0.086l-0.006 0.009c-0.019,0.026 -0.04,0.052 -0.064,0.078l-0.008 0.008c-0.025,0.028 -0.053,0.053 -0.081,0.077 -0.028,0.023 -0.058,0.046 -0.09,0.066 -0.034,0.023 -0.068,0.042 -0.1,0.059 -0.036,0.019 -0.071,0.035 -0.105,0.049 -0.036,0.014 -0.071,0.027 -0.106,0.038l-0.007 0.002c-0.034,0.011 -0.072,0.021 -0.111,0.03l-0.012 0.003c-0.035,0.008 -0.077,0.015 -0.123,0.023 -0.042,0.007 -0.084,0.012 -0.126,0.016 -0.041,0.005 -0.084,0.008 -0.129,0.01 -0.049,0.003 -0.094,0.004 -0.135,0.004 -0.08,-0.01 -0.189,-0.013 -0.274,-0.021 -0.072,-0.008 -0.166,-0.02 -0.228,-0.037l-0.062 -0.014c-0.086,-0.021 -0.168,-0.045 -0.252,-0.075 -0.024,-0.01 -0.048,-0.02 -0.071,-0.031 -0.051,-0.02 -0.087,-0.07 -0.087,-0.127l0 -0.254c0.001,-0.021 0.006,-0.044 0.017,-0.064 0.035,-0.066 0.118,-0.091 0.184,-0.056l0.059 0.032 0.061 0.03 0.062 0.026 0.066 0.025c0.069,0.023 0.132,0.041 0.203,0.06l0.071 0.016 0.072 0.014c0.046,0.007 0.089,0.013 0.129,0.016l0.003 0.001c0.037,0.003 0.075,0.005 0.115,0.005 0.069,0 0.132,-0.004 0.189,-0.01 0.058,-0.006 0.111,-0.015 0.161,-0.027 0.049,-0.012 0.095,-0.028 0.136,-0.047 0.04,-0.018 0.075,-0.039 0.106,-0.062l0.005 -0.004c0.031,-0.023 0.058,-0.05 0.081,-0.078 0.022,-0.028 0.041,-0.059 0.056,-0.092 0.016,-0.034 0.028,-0.071 0.036,-0.109 0.008,-0.039 0.012,-0.082 0.012,-0.129 0,-0.025 -0.001,-0.049 -0.004,-0.071 -0.002,-0.021 -0.006,-0.041 -0.01,-0.06l-0.002 -0.005c-0.005,-0.022 -0.012,-0.042 -0.019,-0.06 -0.008,-0.018 -0.017,-0.036 -0.028,-0.054 -0.027,-0.044 -0.049,-0.071 -0.081,-0.11 -0.013,-0.014 -0.028,-0.029 -0.046,-0.045 -0.039,-0.035 -0.07,-0.059 -0.112,-0.09 -0.049,-0.034 -0.09,-0.059 -0.141,-0.09l-0.088 -0.05c-0.062,-0.044 -0.206,-0.114 -0.335,-0.176 -0.064,-0.032 -0.126,-0.062 -0.18,-0.09 -0.049,-0.026 -0.149,-0.079 -0.19,-0.109 -0.027,-0.016 -0.055,-0.034 -0.082,-0.052l-0.08 -0.058c-0.025,-0.019 -0.049,-0.038 -0.073,-0.058 -0.023,-0.021 -0.046,-0.041 -0.067,-0.062 -0.022,-0.022 -0.043,-0.044 -0.062,-0.066 -0.017,-0.02 -0.034,-0.042 -0.05,-0.065l-0.004 -0.005c-0.017,-0.024 -0.033,-0.049 -0.048,-0.074 -0.015,-0.026 -0.028,-0.052 -0.041,-0.078l-0.003 -0.008c-0.012,-0.026 -0.023,-0.053 -0.031,-0.082 -0.009,-0.028 -0.017,-0.058 -0.023,-0.088 -0.012,-0.063 -0.018,-0.13 -0.018,-0.202 0,-0.042 0.002,-0.085 0.007,-0.127 0.005,-0.042 0.012,-0.082 0.022,-0.121 0.009,-0.039 0.022,-0.076 0.036,-0.111 0.013,-0.032 0.029,-0.064 0.047,-0.096l0.005 -0.008c0.019,-0.033 0.04,-0.064 0.062,-0.094 0.021,-0.028 0.045,-0.056 0.073,-0.085 0.023,-0.025 0.048,-0.048 0.073,-0.07l0.008 -0.007c0.026,-0.022 0.055,-0.044 0.086,-0.065l0.01 -0.007c0.032,-0.021 0.064,-0.041 0.094,-0.057 0.031,-0.017 0.064,-0.033 0.102,-0.049 0.039,-0.017 0.076,-0.032 0.112,-0.044 0.039,-0.013 0.077,-0.025 0.115,-0.034 0.043,-0.011 0.083,-0.02 0.12,-0.027 0.037,-0.007 0.078,-0.014 0.121,-0.019 0.043,-0.006 0.083,-0.01 0.121,-0.012 0.044,-0.003 0.086,-0.004 0.125,-0.004 0.091,0 0.178,0.003 0.261,0.009 0.081,0.005 0.157,0.014 0.226,0.025 0.052,0.009 0.099,0.019 0.143,0.03 0.041,0.011 0.08,0.024 0.116,0.037 0.055,0.018 0.096,0.07 0.096,0.131l0 0.242c0,0.02 -0.005,0.04 -0.014,0.059 -0.033,0.068 -0.114,0.097 -0.182,0.064 -0.033,-0.016 -0.069,-0.031 -0.106,-0.045 -0.036,-0.013 -0.075,-0.026 -0.116,-0.037 -0.07,-0.019 -0.144,-0.033 -0.221,-0.042 -0.079,-0.01 -0.161,-0.015 -0.247,-0.015l-0.07 0.002c-0.051,0.004 -0.094,0.008 -0.145,0.015l-0.07 0.012c-0.023,0.005 -0.045,0.011 -0.067,0.017 -0.021,0.006 -0.042,0.013 -0.062,0.021l-0.01 0.004c-0.02,0.008 -0.039,0.017 -0.057,0.025 -0.016,0.008 -0.034,0.018 -0.054,0.029 -0.017,0.011 -0.034,0.023 -0.05,0.035 -0.016,0.012 -0.031,0.025 -0.045,0.039 -0.013,0.012 -0.025,0.025 -0.036,0.037l-0.005 0.007c-0.014,0.017 -0.027,0.033 -0.037,0.05 -0.01,0.015 -0.019,0.031 -0.027,0.046l-0.002 0.007c-0.008,0.018 -0.015,0.037 -0.021,0.058 -0.011,0.041 -0.016,0.086 -0.016,0.136 0,0.048 0.004,0.092 0.012,0.13z"/>
   <path class="fil1" d="M14.102 6.028c-0.076,0 -0.137,-0.061 -0.137,-0.136 0,-0.076 0.061,-0.137 0.137,-0.137 0.691,0 1.318,0.061 1.775,0.158 0.513,0.11 0.831,0.288 0.831,0.507 0,0.076 -0.061,0.137 -0.136,0.137 -0.076,0 -0.137,-0.061 -0.137,-0.137 0,-0.072 -0.235,-0.159 -0.615,-0.24 -0.437,-0.094 -1.045,-0.152 -1.718,-0.152z"/>
  </g>
 </g>
</svg>
