<?xml version="1.0" encoding="UTF-8"?>
<!DOCTYPE svg PUBLIC "-//W3C//DTD SVG 1.1//EN" "http://www.w3.org/Graphics/SVG/1.1/DTD/svg11.dtd">
<!-- Creator: CorelDRAW 2018 (64-Bit) -->
<svg xmlns="http://www.w3.org/2000/svg" xml:space="preserve" width="175px" height="74px" version="1.1" style="shape-rendering:geometricPrecision; text-rendering:geometricPrecision; image-rendering:optimizeQuality; fill-rule:evenodd; clip-rule:evenodd"
viewBox="0 0 20.999 8.836"
 xmlns:xlink="http://www.w3.org/1999/xlink">
 <defs>
  <style type="text/css">
   <![CDATA[
    .fil2 {fill:#00F4FF}
    .fil0 {fill:white}
    .fil3 {fill:#052337;fill-rule:nonzero}
    .fil1 {fill:#052337;fill-rule:nonzero}
   ]]>
  </style>
 </defs>
 <g id="Layer_x0020_1">
  <metadata id="CorelCorpID_0Corel-Layer"/>
  <g id="_1467291413792">
   <rect class="fil0" width="20.999" height="8.836" rx="0.322" ry="0.598"/>
   <path class="fil1" d="M10.961 5.697l-0.195 0 0 -1.125c0,-0.044 0.001,-0.095 0.004,-0.151 0.003,-0.056 0.007,-0.117 0.012,-0.182l-0.005 0c-0.004,0.019 -0.011,0.04 -0.02,0.063 -0.01,0.023 -0.02,0.045 -0.03,0.066 -0.011,0.022 -0.021,0.041 -0.029,0.058 -0.01,0.017 -0.016,0.03 -0.02,0.039l-0.43 0.795 -0.096 0 -0.43 -0.793c-0.004,-0.009 -0.011,-0.023 -0.02,-0.04 -0.009,-0.018 -0.019,-0.037 -0.029,-0.059 -0.01,-0.021 -0.02,-0.043 -0.029,-0.066 -0.009,-0.022 -0.016,-0.044 -0.02,-0.063l-0.005 0c0.003,0.034 0.006,0.079 0.007,0.136 0.002,0.057 0.002,0.123 0.002,0.199l0 1.123 -0.189 0 0 -1.676 0.246 0 0.434 0.797c0.019,0.035 0.035,0.068 0.048,0.098 0.014,0.03 0.023,0.057 0.03,0.079l0.007 0c0.007,-0.023 0.018,-0.05 0.03,-0.081 0.014,-0.032 0.03,-0.065 0.05,-0.101l0.434 -0.792 0.243 0 0 1.676zm0.914 0.028c-0.177,0 -0.318,-0.056 -0.424,-0.168 -0.105,-0.112 -0.158,-0.26 -0.158,-0.445 0,-0.201 0.055,-0.358 0.165,-0.471 0.11,-0.113 0.258,-0.169 0.445,-0.169 0.179,0 0.318,0.055 0.418,0.165 0.1,0.109 0.15,0.262 0.15,0.457 0,0.191 -0.054,0.343 -0.161,0.458 -0.109,0.115 -0.253,0.173 -0.435,0.173zm0.014 -1.092c-0.123,0 -0.22,0.042 -0.292,0.126 -0.072,0.084 -0.108,0.199 -0.108,0.347 0,0.141 0.037,0.253 0.109,0.335 0.073,0.081 0.17,0.123 0.291,0.123 0.124,0 0.219,-0.041 0.286,-0.121 0.067,-0.08 0.1,-0.194 0.1,-0.342 0,-0.15 -0.033,-0.265 -0.1,-0.346 -0.067,-0.082 -0.162,-0.122 -0.286,-0.122zm1.085 0.891l-0.004 0 0 0.173 -0.192 0 0 -1.772 0.192 0 0 0.785 0.004 0c0.094,-0.159 0.233,-0.238 0.414,-0.238 0.153,0 0.274,0.053 0.36,0.161 0.087,0.107 0.131,0.25 0.131,0.43 0,0.201 -0.049,0.361 -0.146,0.481 -0.098,0.12 -0.231,0.181 -0.4,0.181 -0.158,0 -0.278,-0.067 -0.359,-0.201zm-0.004 -0.483l0 0.167c0,0.099 0.031,0.183 0.096,0.252 0.064,0.069 0.146,0.104 0.245,0.104 0.116,0 0.207,-0.045 0.273,-0.134 0.065,-0.089 0.099,-0.212 0.099,-0.37 0,-0.134 -0.031,-0.238 -0.093,-0.314 -0.061,-0.075 -0.145,-0.113 -0.25,-0.113 -0.112,0 -0.201,0.039 -0.269,0.116 -0.068,0.078 -0.101,0.175 -0.101,0.292zm1.3 -0.845c-0.034,0 -0.063,-0.012 -0.088,-0.035 -0.023,-0.023 -0.035,-0.053 -0.035,-0.089 0,-0.036 0.012,-0.066 0.035,-0.089 0.025,-0.024 0.054,-0.036 0.088,-0.036 0.035,0 0.065,0.012 0.09,0.036 0.024,0.023 0.037,0.053 0.037,0.089 0,0.034 -0.013,0.064 -0.037,0.087 -0.025,0.025 -0.055,0.037 -0.09,0.037zm0.094 1.166c0,0.11 0.042,0.165 0.127,0.165 0.035,0 0.065,-0.004 0.092,-0.013l0 0.174c-0.014,0.003 -0.034,0.007 -0.059,0.01 -0.024,0.004 -0.05,0.006 -0.077,0.006 -0.038,0 -0.074,-0.006 -0.108,-0.019 -0.033,-0.012 -0.062,-0.031 -0.087,-0.057 -0.024,-0.026 -0.044,-0.058 -0.058,-0.097 -0.015,-0.038 -0.022,-0.083 -0.022,-0.135l0 -0.896 0.192 0 0 0.862zm0.607 0c0,0.11 0.042,0.165 0.127,0.165 0.034,0 0.065,-0.004 0.092,-0.013l0 0.174c-0.014,0.003 -0.034,0.007 -0.059,0.01 -0.024,0.004 -0.05,0.006 -0.077,0.006 -0.038,0 -0.074,-0.006 -0.108,-0.019 -0.033,-0.012 -0.062,-0.031 -0.087,-0.057 -0.025,-0.026 -0.044,-0.058 -0.058,-0.097 -0.015,-0.038 -0.022,-0.083 -0.022,-0.135l0 -1.471 0.192 0 0 1.437zm0.513 -1.166c-0.034,0 -0.063,-0.012 -0.088,-0.035 -0.024,-0.023 -0.036,-0.053 -0.036,-0.089 0,-0.036 0.012,-0.066 0.036,-0.089 0.025,-0.024 0.054,-0.036 0.088,-0.036 0.035,0 0.065,0.012 0.089,0.036 0.025,0.023 0.037,0.053 0.037,0.089 0,0.034 -0.012,0.064 -0.037,0.087 -0.024,0.025 -0.054,0.037 -0.089,0.037zm0.094 1.166c0,0.11 0.042,0.165 0.127,0.165 0.034,0 0.065,-0.004 0.092,-0.013l0 0.174c-0.015,0.003 -0.034,0.007 -0.059,0.01 -0.024,0.004 -0.05,0.006 -0.077,0.006 -0.039,0 -0.074,-0.006 -0.108,-0.019 -0.034,-0.012 -0.063,-0.031 -0.087,-0.057 -0.025,-0.026 -0.044,-0.058 -0.059,-0.097 -0.014,-0.038 -0.021,-0.083 -0.021,-0.135l0 -0.896 0.192 0 0 0.862zm0.983 0.323c-0.045,0.025 -0.105,0.037 -0.179,0.037 -0.21,0 -0.314,-0.117 -0.314,-0.35l0 -0.709 -0.206 0 0 -0.163 0.206 0 0 -0.292 0.191 -0.062 0 0.354 0.302 0 0 0.163 -0.302 0 0 0.675c0,0.08 0.014,0.137 0.041,0.172 0.027,0.034 0.073,0.051 0.136,0.051 0.048,0 0.09,-0.013 0.125,-0.04l0 0.164zm1.208 -1.185l-0.55 1.388c-0.098,0.249 -0.236,0.372 -0.414,0.372 -0.05,0 -0.091,-0.005 -0.125,-0.015l0 -0.172c0.041,0.014 0.079,0.021 0.113,0.021 0.097,0 0.17,-0.057 0.218,-0.173l0.096 -0.227 -0.468 -1.194 0.213 0 0.324 0.921c0.004,0.012 0.012,0.042 0.024,0.091l0.007 0c0.004,-0.019 0.012,-0.048 0.023,-0.089l0.341 -0.923 0.198 0z"/>
   <path class="fil2" d="M4.862 6.892c-0.713,-1.332 -1.75,-2.233 -1.75,-3.199 0,-0.966 0.784,-1.749 1.75,-1.749 0.966,0 1.749,0.783 1.749,1.749 0,0.966 -1.037,1.867 -1.749,3.199zm0 -4.255c0.583,0 1.056,0.473 1.056,1.056 0,0.583 -0.473,1.056 -1.056,1.056 -0.584,0 -1.057,-0.473 -1.057,-1.056 0,-0.583 0.473,-1.056 1.057,-1.056z"/>
   <path class="fil3" d="M4.809 6.92c-0.26,-0.485 -0.565,-0.916 -0.846,-1.312 -0.491,-0.693 -0.91,-1.285 -0.91,-1.915 0,-0.499 0.202,-0.952 0.53,-1.279 0.327,-0.327 0.779,-0.53 1.279,-0.53 0.499,0 0.951,0.203 1.279,0.53 0.327,0.327 0.53,0.78 0.53,1.279 0,0.63 -0.42,1.222 -0.911,1.915 -0.281,0.397 -0.586,0.827 -0.846,1.313 -0.015,0.029 -0.051,0.04 -0.08,0.024 -0.011,-0.006 -0.02,-0.015 -0.025,-0.025zm-0.748 -1.381c0.264,0.373 0.549,0.775 0.801,1.229 0.251,-0.454 0.537,-0.856 0.801,-1.229 0.479,-0.676 0.888,-1.254 0.888,-1.846 0,-0.467 -0.189,-0.889 -0.494,-1.194 -0.306,-0.306 -0.729,-0.495 -1.195,-0.495 -0.467,0 -0.889,0.189 -1.195,0.495 -0.306,0.305 -0.495,0.727 -0.495,1.194 0,0.592 0.41,1.17 0.889,1.846zm0.801 -2.962c0.308,0 0.587,0.125 0.789,0.327l0.003 0.003c0.201,0.202 0.324,0.48 0.324,0.786 0,0.308 -0.125,0.587 -0.327,0.789 -0.202,0.202 -0.481,0.327 -0.789,0.327 -0.308,0 -0.588,-0.125 -0.79,-0.327 -0.202,-0.202 -0.327,-0.481 -0.327,-0.789 0,-0.308 0.125,-0.587 0.328,-0.789 0.201,-0.202 0.481,-0.327 0.789,-0.327zm0.705 0.411c-0.181,-0.18 -0.43,-0.291 -0.705,-0.291 -0.275,0 -0.525,0.111 -0.705,0.291 -0.18,0.18 -0.292,0.43 -0.292,0.705 0,0.275 0.112,0.524 0.292,0.705 0.18,0.18 0.43,0.291 0.705,0.291 0.275,0 0.524,-0.111 0.705,-0.291 0.18,-0.181 0.291,-0.43 0.291,-0.705 0,-0.274 -0.11,-0.522 -0.288,-0.702l-0.003 -0.003z"/>
  </g>
 </g>
</svg>
