<?xml version="1.0" encoding="UTF-8"?>
<!DOCTYPE svg PUBLIC "-//W3C//DTD SVG 1.1//EN" "http://www.w3.org/Graphics/SVG/1.1/DTD/svg11.dtd">
<!-- Creator: CorelDRAW 2018 (64-Bit) -->
<svg xmlns="http://www.w3.org/2000/svg" xml:space="preserve" width="197px" height="74px" version="1.1" style="shape-rendering:geometricPrecision; text-rendering:geometricPrecision; image-rendering:optimizeQuality; fill-rule:evenodd; clip-rule:evenodd"
viewBox="0 0 26.497 9.976"
 xmlns:xlink="http://www.w3.org/1999/xlink">
 <defs>
  <style type="text/css">
   <![CDATA[
    .fil2 {fill:#FF8FB1}
    .fil0 {fill:white}
    .fil1 {fill:#052337;fill-rule:nonzero}
   ]]>
  </style>
 </defs>
 <g id="Layer_x0020_1">
  <metadata id="CorelCorpID_0Corel-Layer"/>
  <g id="_1503315869360">
   <rect class="fil0" width="26.497" height="9.976" rx="0.405" ry="0.674"/>
   <path class="fil1" d="M9.967 5.928l0 -0.261c0.03,0.026 0.066,0.05 0.108,0.071 0.041,0.021 0.085,0.039 0.131,0.053 0.047,0.015 0.093,0.026 0.139,0.034 0.047,0.008 0.09,0.012 0.129,0.012 0.136,0 0.238,-0.025 0.305,-0.076 0.067,-0.05 0.101,-0.123 0.101,-0.218 0,-0.051 -0.011,-0.095 -0.034,-0.133 -0.022,-0.037 -0.053,-0.072 -0.092,-0.103 -0.04,-0.031 -0.087,-0.061 -0.141,-0.09 -0.054,-0.028 -0.112,-0.058 -0.174,-0.09 -0.066,-0.033 -0.128,-0.067 -0.185,-0.101 -0.057,-0.034 -0.106,-0.072 -0.148,-0.114 -0.043,-0.041 -0.075,-0.088 -0.1,-0.14 -0.024,-0.052 -0.036,-0.113 -0.036,-0.183 0,-0.086 0.019,-0.161 0.057,-0.225 0.037,-0.064 0.087,-0.116 0.148,-0.157 0.062,-0.041 0.132,-0.072 0.211,-0.092 0.078,-0.02 0.158,-0.031 0.24,-0.031 0.186,0 0.321,0.023 0.407,0.068l0 0.249c-0.112,-0.078 -0.255,-0.116 -0.429,-0.116 -0.049,0 -0.097,0.005 -0.146,0.015 -0.048,0.01 -0.091,0.027 -0.129,0.049 -0.037,0.023 -0.068,0.053 -0.092,0.089 -0.024,0.035 -0.035,0.079 -0.035,0.131 0,0.048 0.009,0.09 0.027,0.125 0.018,0.035 0.044,0.067 0.079,0.096 0.035,0.029 0.078,0.057 0.129,0.084 0.05,0.028 0.109,0.057 0.174,0.09 0.068,0.033 0.132,0.068 0.192,0.105 0.061,0.037 0.114,0.078 0.16,0.123 0.045,0.044 0.081,0.094 0.108,0.148 0.027,0.055 0.04,0.117 0.04,0.187 0,0.093 -0.018,0.172 -0.054,0.237 -0.036,0.064 -0.086,0.117 -0.147,0.157 -0.062,0.04 -0.134,0.069 -0.214,0.087 -0.081,0.018 -0.166,0.027 -0.256,0.027 -0.03,0 -0.067,-0.002 -0.111,-0.007 -0.043,-0.005 -0.088,-0.011 -0.134,-0.021 -0.045,-0.009 -0.088,-0.021 -0.129,-0.034 -0.041,-0.014 -0.074,-0.029 -0.099,-0.045zm2.457 0.076l-0.216 0 0 -0.211 -0.005 0c-0.094,0.162 -0.232,0.242 -0.414,0.242 -0.135,0 -0.24,-0.035 -0.316,-0.106 -0.076,-0.071 -0.114,-0.165 -0.114,-0.283 0,-0.252 0.149,-0.399 0.445,-0.44l0.404 -0.056c0,-0.229 -0.092,-0.344 -0.277,-0.344 -0.163,0 -0.309,0.055 -0.44,0.166l0 -0.221c0.133,-0.085 0.285,-0.127 0.458,-0.127 0.317,0 0.475,0.168 0.475,0.503l0 0.877zm-0.216 -0.682l-0.325 0.045c-0.1,0.014 -0.175,0.038 -0.226,0.074 -0.051,0.036 -0.077,0.099 -0.077,0.189 0,0.066 0.024,0.12 0.071,0.161 0.047,0.042 0.109,0.063 0.187,0.063 0.107,0 0.196,-0.038 0.265,-0.112 0.071,-0.075 0.105,-0.171 0.105,-0.286l0 -0.134zm1.683 -0.666l-0.537 1.348 -0.212 0 -0.511 -1.348 0.237 0 0.342 0.979c0.026,0.072 0.042,0.135 0.048,0.189l0.005 0c0.009,-0.068 0.023,-0.129 0.042,-0.184l0.358 -0.984 0.228 0zm1.299 0.728l-0.952 0c0.004,0.15 0.044,0.266 0.122,0.348 0.077,0.081 0.183,0.122 0.318,0.122 0.152,0 0.291,-0.05 0.419,-0.15l0 0.202c-0.119,0.087 -0.275,0.129 -0.47,0.129 -0.191,0 -0.34,-0.061 -0.449,-0.183 -0.109,-0.123 -0.163,-0.295 -0.163,-0.517 0,-0.21 0.059,-0.38 0.178,-0.512 0.119,-0.133 0.267,-0.199 0.443,-0.199 0.177,0 0.313,0.057 0.409,0.172 0.097,0.113 0.145,0.272 0.145,0.475l0 0.113zm-0.221 -0.183c-0.001,-0.124 -0.031,-0.222 -0.09,-0.291 -0.059,-0.069 -0.141,-0.104 -0.247,-0.104 -0.102,0 -0.188,0.036 -0.259,0.109 -0.071,0.073 -0.115,0.168 -0.132,0.286l0.728 0zm1.699 0.803l-0.217 0 0 -0.229 -0.005 0c-0.1,0.174 -0.254,0.26 -0.463,0.26 -0.169,0 -0.305,-0.06 -0.406,-0.181 -0.102,-0.12 -0.152,-0.285 -0.152,-0.493 0,-0.222 0.056,-0.401 0.168,-0.535 0.112,-0.135 0.262,-0.202 0.449,-0.202 0.185,0 0.32,0.073 0.404,0.219l0.005 0 0 -0.835 0.217 0 0 1.996zm-0.217 -0.609l0 -0.199c0,-0.109 -0.036,-0.201 -0.107,-0.277 -0.072,-0.075 -0.164,-0.113 -0.274,-0.113 -0.132,0 -0.236,0.048 -0.311,0.145 -0.076,0.096 -0.113,0.23 -0.113,0.4 0,0.156 0.036,0.278 0.108,0.368 0.073,0.09 0.17,0.135 0.292,0.135 0.121,0 0.218,-0.044 0.293,-0.13 0.075,-0.087 0.112,-0.197 0.112,-0.329zm1.904 -0.068c0,0.224 -0.047,0.398 -0.142,0.522 -0.094,0.124 -0.222,0.186 -0.38,0.186 -0.074,0 -0.135,-0.01 -0.182,-0.031l0 -0.218c0.047,0.034 0.109,0.051 0.184,0.051 0.2,0 0.299,-0.169 0.299,-0.507l0 -1.214 0.221 0 0 1.211zm1.014 0.708c-0.199,0 -0.358,-0.062 -0.477,-0.188 -0.119,-0.126 -0.179,-0.293 -0.179,-0.501 0,-0.227 0.062,-0.403 0.186,-0.531 0.124,-0.127 0.291,-0.191 0.502,-0.191 0.201,0 0.358,0.062 0.47,0.186 0.113,0.124 0.169,0.295 0.169,0.515 0,0.215 -0.06,0.387 -0.182,0.516 -0.121,0.13 -0.284,0.194 -0.489,0.194zm0.016 -1.229c-0.139,0 -0.248,0.047 -0.329,0.142 -0.081,0.094 -0.121,0.224 -0.121,0.39 0,0.16 0.04,0.285 0.122,0.377 0.082,0.093 0.191,0.139 0.328,0.139 0.14,0 0.247,-0.045 0.322,-0.136 0.075,-0.09 0.112,-0.219 0.112,-0.385 0,-0.169 -0.037,-0.299 -0.112,-0.39 -0.075,-0.092 -0.182,-0.137 -0.322,-0.137zm1.222 1.003l-0.005 0 0 0.195 -0.217 0 0 -1.996 0.217 0 0 0.885 0.005 0c0.106,-0.179 0.262,-0.269 0.466,-0.269 0.173,0 0.308,0.061 0.406,0.182 0.098,0.12 0.147,0.282 0.147,0.484 0,0.226 -0.055,0.407 -0.165,0.542 -0.109,0.136 -0.259,0.203 -0.45,0.203 -0.178,0 -0.313,-0.075 -0.404,-0.226zm-0.005 -0.544l0 0.189c0,0.111 0.036,0.206 0.108,0.284 0.073,0.077 0.164,0.116 0.276,0.116 0.131,0 0.233,-0.05 0.307,-0.15 0.074,-0.1 0.112,-0.239 0.112,-0.418 0,-0.15 -0.035,-0.267 -0.105,-0.352 -0.069,-0.085 -0.163,-0.128 -0.281,-0.128 -0.126,0 -0.226,0.044 -0.303,0.131 -0.076,0.087 -0.114,0.197 -0.114,0.328zm1.287 0.69l0 -0.231c0.117,0.086 0.247,0.13 0.388,0.13 0.19,0 0.285,-0.063 0.285,-0.19 0,-0.036 -0.008,-0.066 -0.025,-0.091 -0.016,-0.025 -0.038,-0.047 -0.066,-0.066 -0.027,-0.02 -0.06,-0.037 -0.097,-0.053 -0.037,-0.015 -0.077,-0.031 -0.121,-0.048 -0.059,-0.023 -0.111,-0.047 -0.157,-0.072 -0.045,-0.023 -0.082,-0.051 -0.113,-0.081 -0.03,-0.03 -0.053,-0.065 -0.068,-0.103 -0.016,-0.039 -0.023,-0.084 -0.023,-0.136 0,-0.063 0.014,-0.119 0.043,-0.168 0.029,-0.049 0.068,-0.089 0.116,-0.122 0.048,-0.033 0.103,-0.058 0.165,-0.075 0.062,-0.016 0.126,-0.025 0.192,-0.025 0.116,0 0.221,0.021 0.313,0.061l0 0.218c-0.099,-0.065 -0.213,-0.097 -0.342,-0.097 -0.041,0 -0.077,0.004 -0.11,0.014 -0.032,0.009 -0.06,0.022 -0.083,0.039 -0.023,0.016 -0.041,0.036 -0.054,0.059 -0.013,0.024 -0.019,0.049 -0.019,0.078 0,0.035 0.006,0.064 0.019,0.088 0.013,0.023 0.031,0.045 0.056,0.063 0.024,0.018 0.054,0.035 0.089,0.05 0.035,0.015 0.075,0.031 0.12,0.048 0.06,0.023 0.113,0.047 0.161,0.071 0.047,0.024 0.087,0.051 0.121,0.082 0.033,0.03 0.059,0.065 0.077,0.104 0.018,0.04 0.027,0.087 0.027,0.141 0,0.067 -0.015,0.125 -0.044,0.174 -0.03,0.049 -0.069,0.09 -0.118,0.122 -0.049,0.033 -0.106,0.057 -0.17,0.073 -0.064,0.016 -0.131,0.023 -0.202,0.023 -0.138,0 -0.258,-0.026 -0.36,-0.08z"/>
   <path class="fil2" d="M5.379 6.875c-1.507,-0.866 -2.145,-1.728 -2.145,-2.721 0,-0.512 0.48,-1.053 1.073,-1.053 0.536,0 0.804,0.169 1.072,0.633 0.269,-0.464 0.537,-0.633 1.073,-0.633 0.593,0 1.073,0.541 1.073,1.053 0,0.993 -0.638,1.855 -2.146,2.721z"/>
  </g>
 </g>
</svg>
