<?xml version="1.0" encoding="UTF-8"?>
<!DOCTYPE svg PUBLIC "-//W3C//DTD SVG 1.1//EN" "http://www.w3.org/Graphics/SVG/1.1/DTD/svg11.dtd">
<!-- Creator: CorelDRAW 2018 (64-Bit) -->
<svg xmlns="http://www.w3.org/2000/svg" xml:space="preserve" width="182px" height="74px" version="1.1" style="shape-rendering:geometricPrecision; text-rendering:geometricPrecision; image-rendering:optimizeQuality; fill-rule:evenodd; clip-rule:evenodd"
viewBox="0 0 21.474 8.738"
 xmlns:xlink="http://www.w3.org/1999/xlink">
 <defs>
  <style type="text/css">
   <![CDATA[
    .fil2 {fill:#00F4FF}
    .fil0 {fill:white}
    .fil4 {fill:#00F4FF;fill-rule:nonzero}
    .fil1 {fill:#052337;fill-rule:nonzero}
    .fil3 {fill:white;fill-rule:nonzero}
   ]]>
  </style>
 </defs>
 <g id="Layer_x0020_1">
  <metadata id="CorelCorpID_0Corel-Layer"/>
  <g id="_1467225582320">
   <rect class="fil0" width="21.474" height="8.738" rx="0.328" ry="0.59"/>
   <path class="fil1" d="M9.231 4.666c0,0.196 -0.041,0.349 -0.124,0.458 -0.083,0.108 -0.195,0.163 -0.334,0.163 -0.064,0 -0.117,-0.01 -0.159,-0.028l0 -0.191c0.042,0.03 0.096,0.045 0.162,0.045 0.174,0 0.261,-0.148 0.261,-0.444l0 -1.064 0.194 0 0 1.061zm0.888 0.621c-0.174,0 -0.314,-0.056 -0.418,-0.166 -0.104,-0.11 -0.156,-0.256 -0.156,-0.439 0,-0.198 0.054,-0.353 0.162,-0.464 0.109,-0.112 0.255,-0.167 0.44,-0.167 0.176,0 0.313,0.054 0.412,0.162 0.099,0.108 0.148,0.259 0.148,0.451 0,0.188 -0.053,0.339 -0.159,0.452 -0.107,0.114 -0.25,0.171 -0.429,0.171zm0.014 -1.077c-0.121,0 -0.217,0.041 -0.288,0.124 -0.071,0.082 -0.107,0.196 -0.107,0.342 0,0.139 0.036,0.25 0.108,0.33 0.072,0.081 0.167,0.121 0.287,0.121 0.122,0 0.216,-0.039 0.282,-0.118 0.066,-0.079 0.098,-0.192 0.098,-0.338 0,-0.148 -0.032,-0.261 -0.098,-0.341 -0.066,-0.081 -0.16,-0.12 -0.282,-0.12zm1.07 0.878l-0.004 0 0 0.171 -0.19 0 0 -1.748 0.19 0 0 0.775 0.004 0c0.093,-0.157 0.229,-0.235 0.409,-0.235 0.151,0 0.27,0.052 0.355,0.158 0.086,0.106 0.129,0.247 0.129,0.425 0,0.198 -0.048,0.356 -0.144,0.475 -0.096,0.118 -0.228,0.178 -0.395,0.178 -0.156,0 -0.274,-0.067 -0.354,-0.199zm-0.004 -0.476l0 0.165c0,0.097 0.031,0.18 0.095,0.249 0.063,0.068 0.144,0.101 0.241,0.101 0.115,0 0.205,-0.043 0.269,-0.131 0.065,-0.088 0.098,-0.209 0.098,-0.366 0,-0.131 -0.03,-0.234 -0.091,-0.309 -0.061,-0.074 -0.143,-0.111 -0.247,-0.111 -0.11,0 -0.198,0.038 -0.265,0.114 -0.067,0.077 -0.1,0.173 -0.1,0.288zm3.151 0.647l-0.214 0 -0.175 -0.464 -0.702 0 -0.165 0.464 -0.215 0 0.634 -1.654 0.201 0 0.636 1.654zm-0.453 -0.638l-0.26 -0.704c-0.008,-0.023 -0.017,-0.06 -0.025,-0.111l-0.004 0c-0.008,0.047 -0.017,0.084 -0.027,0.111l-0.257 0.704 0.573 0zm0.848 0.308c0,0.108 0.041,0.163 0.125,0.163 0.034,0 0.064,-0.005 0.091,-0.013l0 0.171c-0.014,0.003 -0.034,0.007 -0.058,0.011 -0.024,0.003 -0.05,0.005 -0.077,0.005 -0.037,0 -0.073,-0.006 -0.106,-0.018 -0.033,-0.013 -0.062,-0.032 -0.086,-0.057 -0.024,-0.025 -0.043,-0.057 -0.057,-0.095 -0.015,-0.038 -0.022,-0.083 -0.022,-0.133l0 -1.452 0.19 0 0 1.418zm1.371 -0.213l-0.834 0c0.003,0.131 0.038,0.233 0.106,0.304 0.068,0.072 0.161,0.107 0.279,0.107 0.133,0 0.255,-0.043 0.367,-0.131l0 0.178c-0.104,0.075 -0.241,0.113 -0.412,0.113 -0.167,0 -0.298,-0.054 -0.393,-0.161 -0.096,-0.108 -0.143,-0.258 -0.143,-0.453 0,-0.184 0.052,-0.333 0.156,-0.449 0.104,-0.116 0.234,-0.173 0.388,-0.173 0.155,0 0.274,0.05 0.359,0.15 0.084,0.099 0.127,0.238 0.127,0.416l0 0.099zm-0.194 -0.16c-0.001,-0.109 -0.027,-0.194 -0.079,-0.255 -0.052,-0.061 -0.124,-0.091 -0.216,-0.091 -0.089,0 -0.165,0.032 -0.227,0.095 -0.063,0.064 -0.101,0.147 -0.116,0.251l0.638 0zm1.096 -0.287c-0.033,-0.025 -0.081,-0.037 -0.143,-0.037 -0.081,0 -0.149,0.037 -0.203,0.114 -0.054,0.076 -0.081,0.18 -0.081,0.311l0 0.602 -0.189 0 0 -1.181 0.189 0 0 0.243 0.005 0c0.026,-0.083 0.067,-0.147 0.123,-0.194 0.055,-0.046 0.117,-0.07 0.186,-0.07 0.049,0 0.086,0.006 0.113,0.016l0 0.196zm0.821 0.979c-0.045,0.024 -0.104,0.036 -0.177,0.036 -0.207,0 -0.31,-0.115 -0.31,-0.346l0 -0.698 -0.203 0 0 -0.162 0.203 0 0 -0.288 0.189 -0.061 0 0.349 0.298 0 0 0.162 -0.298 0 0 0.665c0,0.079 0.014,0.136 0.041,0.169 0.026,0.034 0.071,0.051 0.133,0.051 0.048,0 0.089,-0.013 0.124,-0.039l0 0.162zm0.181 -0.032l0 -0.203c0.102,0.076 0.216,0.114 0.34,0.114 0.166,0 0.249,-0.055 0.249,-0.166 0,-0.031 -0.007,-0.058 -0.021,-0.079 -0.015,-0.023 -0.034,-0.042 -0.058,-0.059 -0.024,-0.017 -0.053,-0.032 -0.086,-0.045 -0.032,-0.014 -0.067,-0.028 -0.105,-0.043 -0.052,-0.02 -0.098,-0.041 -0.138,-0.062 -0.039,-0.021 -0.072,-0.045 -0.099,-0.072 -0.026,-0.026 -0.046,-0.056 -0.06,-0.09 -0.013,-0.034 -0.02,-0.074 -0.02,-0.119 0,-0.056 0.013,-0.104 0.038,-0.147 0.025,-0.043 0.059,-0.079 0.101,-0.107 0.043,-0.029 0.091,-0.051 0.145,-0.066 0.054,-0.014 0.11,-0.021 0.168,-0.021 0.102,0 0.194,0.017 0.274,0.052l0 0.192c-0.086,-0.057 -0.186,-0.085 -0.299,-0.085 -0.036,0 -0.068,0.004 -0.096,0.012 -0.029,0.008 -0.053,0.019 -0.073,0.034 -0.021,0.014 -0.036,0.032 -0.048,0.052 -0.011,0.021 -0.016,0.043 -0.016,0.068 0,0.03 0.005,0.056 0.016,0.077 0.012,0.021 0.028,0.039 0.049,0.055 0.022,0.017 0.048,0.031 0.079,0.044 0.031,0.013 0.066,0.027 0.105,0.043 0.052,0.02 0.099,0.04 0.14,0.061 0.042,0.022 0.077,0.045 0.107,0.072 0.029,0.026 0.051,0.057 0.067,0.092 0.016,0.034 0.024,0.075 0.024,0.123 0,0.059 -0.013,0.109 -0.039,0.152 -0.026,0.043 -0.06,0.079 -0.103,0.107 -0.043,0.029 -0.093,0.05 -0.149,0.064 -0.056,0.014 -0.115,0.021 -0.177,0.021 -0.121,0 -0.226,-0.024 -0.315,-0.071z"/>
   <path class="fil2" d="M2.943 4.03c-0.305,-0.336 -0.295,-0.857 0.03,-1.181 0.324,-0.325 0.845,-0.335 1.181,-0.03 -0.582,0.171 -1.04,0.629 -1.211,1.211z"/>
   <path class="fil1" d="M2.898 4.067c-0.162,-0.179 -0.24,-0.408 -0.235,-0.635 0.006,-0.227 0.095,-0.452 0.268,-0.625 0.173,-0.173 0.398,-0.262 0.625,-0.268 0.228,-0.005 0.457,0.073 0.637,0.237 0.025,0.022 0.026,0.059 0.005,0.083 -0.008,0.008 -0.017,0.014 -0.028,0.017 -0.28,0.082 -0.532,0.234 -0.734,0.436 -0.202,0.202 -0.354,0.454 -0.436,0.734 -0.009,0.032 -0.042,0.05 -0.073,0.041 -0.012,-0.004 -0.022,-0.011 -0.029,-0.02zm-0.117 -0.632c-0.004,0.165 0.043,0.331 0.14,0.473 0.093,-0.258 0.242,-0.49 0.432,-0.679 0.189,-0.19 0.421,-0.339 0.679,-0.432 -0.142,-0.097 -0.308,-0.144 -0.473,-0.14 -0.198,0.005 -0.394,0.083 -0.544,0.234 -0.151,0.15 -0.229,0.346 -0.234,0.544z"/>
   <path class="fil2" d="M6.37 4.03c0.305,-0.336 0.295,-0.857 -0.03,-1.181 -0.324,-0.325 -0.844,-0.335 -1.181,-0.03 0.582,0.171 1.041,0.629 1.211,1.211z"/>
   <path class="fil1" d="M6.392 3.908c0.098,-0.142 0.145,-0.308 0.14,-0.473 -0.004,-0.198 -0.082,-0.394 -0.233,-0.544 -0.151,-0.151 -0.347,-0.229 -0.545,-0.234 -0.165,-0.004 -0.331,0.043 -0.473,0.14 0.258,0.093 0.49,0.242 0.68,0.432 0.189,0.189 0.338,0.421 0.431,0.679zm0.258 -0.476c0.006,0.227 -0.073,0.456 -0.235,0.635 -0.007,0.009 -0.017,0.016 -0.029,0.02 -0.031,0.009 -0.064,-0.009 -0.073,-0.041 -0.082,-0.28 -0.234,-0.532 -0.436,-0.734 -0.202,-0.202 -0.453,-0.354 -0.734,-0.436 -0.01,-0.003 -0.02,-0.009 -0.027,-0.017 -0.022,-0.024 -0.02,-0.061 0.004,-0.083 0.18,-0.164 0.41,-0.242 0.637,-0.237 0.227,0.006 0.452,0.095 0.625,0.268 0.173,0.173 0.262,0.398 0.268,0.625z"/>
   <rect class="fil2" transform="matrix(0.772085 -0.540617 0.730274 1.04293 5.1622 5.43419)" width="0.303" height="0.731" rx="0.151" ry="0.151"/>
   <path class="fil1" d="M5.245 5.304c0.046,-0.032 0.1,-0.042 0.151,-0.033 0.05,0.009 0.098,0.037 0.13,0.083l0.37 0.528c0.032,0.046 0.042,0.1 0.033,0.15 -0.009,0.051 -0.037,0.099 -0.083,0.13 -0.045,0.032 -0.1,0.043 -0.15,0.034 -0.051,-0.009 -0.098,-0.037 -0.13,-0.083l-0.37 -0.528c-0.032,-0.046 -0.043,-0.1 -0.034,-0.151 0.009,-0.05 0.038,-0.098 0.083,-0.13zm0.13 0.083c-0.021,-0.004 -0.044,0 -0.062,0.014 -0.019,0.013 -0.031,0.032 -0.034,0.054 -0.004,0.021 0,0.044 0.013,0.062l0.37 0.529c0.013,0.018 0.033,0.03 0.054,0.034 0.021,0.003 0.044,-0.001 0.063,-0.014 0.019,-0.013 0.03,-0.033 0.034,-0.054 0.004,-0.021 0,-0.044 -0.014,-0.063l-0.37 -0.528c-0.013,-0.019 -0.032,-0.03 -0.054,-0.034z"/>
   <rect class="fil2" transform="matrix(-0.772085 -0.540617 -0.730274 1.04293 4.1511 5.43419)" width="0.303" height="0.731" rx="0.151" ry="0.151"/>
   <path class="fil1" d="M4.001 5.401c-0.019,-0.014 -0.042,-0.018 -0.063,-0.014 -0.021,0.004 -0.041,0.015 -0.054,0.034l-0.37 0.528c-0.013,0.019 -0.017,0.042 -0.014,0.063 0.004,0.021 0.016,0.041 0.034,0.054 0.019,0.013 0.042,0.017 0.063,0.014 0.021,-0.004 0.041,-0.016 0.054,-0.034l0.37 -0.529c0.013,-0.018 0.017,-0.041 0.014,-0.062 -0.004,-0.022 -0.016,-0.041 -0.034,-0.054zm-0.083 -0.13c0.05,-0.009 0.104,0.001 0.15,0.033 0.045,0.032 0.074,0.08 0.083,0.13 0.009,0.051 -0.002,0.105 -0.034,0.151l-0.369 0.528c-0.032,0.046 -0.08,0.074 -0.131,0.083 -0.05,0.009 -0.104,-0.002 -0.15,-0.033 -0.046,-0.032 -0.074,-0.08 -0.083,-0.131 -0.009,-0.05 0.002,-0.104 0.033,-0.15l0.37 -0.528c0.032,-0.046 0.08,-0.074 0.131,-0.083z"/>
   <path class="fil3" d="M4.657 3.008c0.841,0 1.524,0.683 1.524,1.525 0,0.841 -0.683,1.524 -1.524,1.524 -0.842,0 -1.525,-0.683 -1.525,-1.524 0,-0.842 0.683,-1.525 1.525,-1.525z"/>
   <path class="fil1" d="M4.657 2.949c0.437,0 0.833,0.178 1.119,0.464 0.287,0.287 0.464,0.683 0.464,1.12 0,0.437 -0.177,0.833 -0.464,1.119 -0.286,0.287 -0.682,0.464 -1.119,0.464 -0.437,0 -0.833,-0.177 -1.12,-0.464 -0.286,-0.286 -0.464,-0.682 -0.464,-1.119 0,-0.437 0.178,-0.833 0.464,-1.12 0.287,-0.286 0.683,-0.464 1.12,-0.464zm1.036 0.548c-0.265,-0.265 -0.632,-0.429 -1.036,-0.429 -0.405,0 -0.771,0.164 -1.036,0.429 -0.265,0.265 -0.429,0.631 -0.429,1.036 0,0.404 0.164,0.771 0.429,1.036 0.265,0.265 0.631,0.429 1.036,0.429 0.404,0 0.771,-0.164 1.036,-0.429 0.265,-0.265 0.429,-0.632 0.429,-1.036 0,-0.405 -0.164,-0.771 -0.429,-1.036z"/>
   <path class="fil1" d="M5.487 3.653c0.023,-0.023 0.06,-0.023 0.083,0 0.024,0.023 0.024,0.061 0,0.084l-0.733 0.733c-0.023,0.023 -0.06,0.023 -0.083,0 -0.023,-0.023 -0.023,-0.06 0,-0.083l0.733 -0.734z"/>
   <path class="fil1" d="M4.529 4.411c0.028,0.016 0.038,0.052 0.022,0.08 -0.017,0.029 -0.053,0.038 -0.081,0.022l-0.556 -0.321c-0.028,-0.017 -0.038,-0.053 -0.021,-0.081 0.016,-0.028 0.052,-0.037 0.08,-0.021l0.556 0.321z"/>
   <path class="fil4" d="M4.657 4.361c-0.095,0 -0.172,0.077 -0.172,0.172 0,0.095 0.077,0.172 0.172,0.172 0.095,0 0.172,-0.077 0.172,-0.172 0,-0.095 -0.077,-0.172 -0.172,-0.172z"/>
   <path class="fil1" d="M4.657 4.42c-0.032,0 -0.06,0.012 -0.08,0.033 -0.021,0.02 -0.033,0.048 -0.033,0.08 0,0.031 0.012,0.059 0.033,0.08 0.02,0.02 0.048,0.033 0.08,0.033 0.031,0 0.059,-0.013 0.08,-0.033 0.02,-0.021 0.033,-0.049 0.033,-0.08 0,-0.031 -0.013,-0.06 -0.033,-0.08 -0.021,-0.021 -0.049,-0.033 -0.08,-0.033zm-0.164 -0.051c0.042,-0.041 0.1,-0.067 0.164,-0.067 0.063,0 0.121,0.026 0.163,0.067 0.042,0.042 0.068,0.1 0.068,0.164 0,0.063 -0.026,0.121 -0.068,0.163 -0.042,0.042 -0.1,0.068 -0.163,0.068 -0.064,0 -0.122,-0.026 -0.164,-0.068 -0.042,-0.042 -0.067,-0.1 -0.067,-0.163 0,-0.064 0.025,-0.122 0.067,-0.164z"/>
   <path class="fil1" d="M4.598 3.375c0,-0.033 0.026,-0.059 0.059,-0.059 0.032,0 0.059,0.026 0.059,0.059l0 0.107c0,0.033 -0.027,0.059 -0.059,0.059 -0.033,0 -0.059,-0.026 -0.059,-0.059l0 -0.107z"/>
   <path class="fil1" d="M3.499 4.592c-0.033,0 -0.059,-0.027 -0.059,-0.059 0,-0.033 0.026,-0.059 0.059,-0.059l0.107 0c0.033,0 0.059,0.026 0.059,0.059 0,0.032 -0.026,0.059 -0.059,0.059l-0.107 0z"/>
   <path class="fil1" d="M4.716 5.691c0,0.032 -0.027,0.059 -0.059,0.059 -0.033,0 -0.059,-0.027 -0.059,-0.059l0 -0.108c0,-0.032 0.026,-0.059 0.059,-0.059 0.032,0 0.059,0.027 0.059,0.059l0 0.108z"/>
   <path class="fil1" d="M5.815 4.474c0.032,0 0.059,0.026 0.059,0.059 0,0.032 -0.027,0.059 -0.059,0.059l-0.108 0c-0.032,0 -0.059,-0.027 -0.059,-0.059 0,-0.033 0.027,-0.059 0.059,-0.059l0.108 0z"/>
  </g>
 </g>
</svg>
