<?xml version="1.0" encoding="UTF-8"?>
<!DOCTYPE svg PUBLIC "-//W3C//DTD SVG 1.1//EN" "http://www.w3.org/Graphics/SVG/1.1/DTD/svg11.dtd">
<!-- Creator: CorelDRAW 2018 (64-Bit) -->
<svg xmlns="http://www.w3.org/2000/svg" xml:space="preserve" width="198px" height="74px" version="1.1" style="shape-rendering:geometricPrecision; text-rendering:geometricPrecision; image-rendering:optimizeQuality; fill-rule:evenodd; clip-rule:evenodd"
viewBox="0 0 28.783 10.738"
 xmlns:xlink="http://www.w3.org/1999/xlink">
 <defs>
  <style type="text/css">
   <![CDATA[
    .fil2 {fill:#00D4E3}
    .fil0 {fill:white}
    .fil1 {fill:#052337;fill-rule:nonzero}
   ]]>
  </style>
 </defs>
 <g id="Layer_x0020_1">
  <metadata id="CorelCorpID_0Corel-Layer"/>
  <rect class="fil0" width="28.783" height="10.738" rx="0.44" ry="0.726"/>
  <path class="fil1" d="M11.164 6.463l-0.263 0 -0.216 -0.57 -0.862 0 -0.202 0.57 -0.265 0 0.779 -2.032 0.247 0 0.782 2.032zm-0.557 -0.784l-0.319 -0.866c-0.01,-0.028 -0.021,-0.074 -0.031,-0.136l-0.006 0c-0.009,0.058 -0.02,0.103 -0.032,0.136l-0.316 0.866 0.704 0zm1.063 0.574l-0.006 0 0 0.877 -0.232 0 0 -2.118 0.232 0 0 0.255 0.006 0c0.114,-0.193 0.282,-0.289 0.502,-0.289 0.186,0 0.333,0.065 0.437,0.195 0.105,0.129 0.158,0.304 0.158,0.522 0,0.242 -0.059,0.437 -0.177,0.583 -0.118,0.146 -0.28,0.219 -0.485,0.219 -0.188,0 -0.333,-0.082 -0.435,-0.244zm-0.006 -0.585l0 0.202c0,0.12 0.039,0.222 0.117,0.306 0.078,0.084 0.177,0.125 0.297,0.125 0.141,0 0.251,-0.053 0.331,-0.161 0.08,-0.108 0.12,-0.258 0.12,-0.45 0,-0.161 -0.038,-0.287 -0.113,-0.379 -0.074,-0.092 -0.175,-0.138 -0.302,-0.138 -0.136,0 -0.244,0.047 -0.326,0.141 -0.083,0.094 -0.124,0.212 -0.124,0.354zm1.712 0.585l-0.006 0 0 0.877 -0.232 0 0 -2.118 0.232 0 0 0.255 0.006 0c0.114,-0.193 0.282,-0.289 0.502,-0.289 0.186,0 0.332,0.065 0.437,0.195 0.105,0.129 0.158,0.304 0.158,0.522 0,0.242 -0.059,0.437 -0.177,0.583 -0.118,0.146 -0.28,0.219 -0.485,0.219 -0.188,0 -0.333,-0.082 -0.435,-0.244zm-0.006 -0.585l0 0.202c0,0.12 0.039,0.222 0.117,0.306 0.078,0.084 0.177,0.125 0.297,0.125 0.141,0 0.251,-0.053 0.331,-0.161 0.08,-0.108 0.12,-0.258 0.12,-0.45 0,-0.161 -0.038,-0.287 -0.113,-0.379 -0.074,-0.092 -0.175,-0.138 -0.302,-0.138 -0.136,0 -0.244,0.047 -0.326,0.141 -0.083,0.094 -0.124,0.212 -0.124,0.354zm1.691 0.389c0,0.133 0.051,0.2 0.154,0.2 0.042,0 0.079,-0.005 0.112,-0.015l0 0.21c-0.018,0.004 -0.042,0.009 -0.072,0.013 -0.029,0.004 -0.061,0.006 -0.094,0.006 -0.046,0 -0.09,-0.007 -0.13,-0.022 -0.041,-0.016 -0.076,-0.038 -0.106,-0.07 -0.03,-0.031 -0.053,-0.07 -0.071,-0.117 -0.017,-0.046 -0.026,-0.101 -0.026,-0.163l0 -1.784 0.233 0 0 1.742zm0.622 -1.414c-0.042,0 -0.077,-0.014 -0.107,-0.042 -0.029,-0.028 -0.043,-0.064 -0.043,-0.108 0,-0.043 0.014,-0.08 0.043,-0.108 0.03,-0.029 0.065,-0.044 0.107,-0.044 0.042,0 0.079,0.015 0.108,0.044 0.03,0.028 0.045,0.065 0.045,0.108 0,0.042 -0.015,0.077 -0.045,0.106 -0.029,0.03 -0.066,0.044 -0.108,0.044zm0.114 1.414c0,0.133 0.051,0.2 0.154,0.2 0.041,0 0.079,-0.005 0.112,-0.015l0 0.21c-0.018,0.004 -0.042,0.009 -0.072,0.013 -0.03,0.004 -0.061,0.006 -0.094,0.006 -0.046,0 -0.09,-0.007 -0.13,-0.022 -0.041,-0.016 -0.076,-0.038 -0.106,-0.07 -0.03,-0.031 -0.054,-0.07 -0.071,-0.117 -0.017,-0.046 -0.026,-0.101 -0.026,-0.163l0 -1.087 0.233 0 0 1.045zm1.684 -0.262l-1.024 0c0.004,0.162 0.047,0.287 0.13,0.375 0.084,0.087 0.198,0.131 0.343,0.131 0.164,0 0.314,-0.053 0.451,-0.161l0 0.218c-0.128,0.093 -0.296,0.139 -0.506,0.139 -0.205,0 -0.366,-0.066 -0.483,-0.198 -0.118,-0.132 -0.176,-0.317 -0.176,-0.556 0,-0.226 0.064,-0.41 0.192,-0.552 0.128,-0.142 0.287,-0.213 0.477,-0.213 0.19,0 0.336,0.061 0.44,0.184 0.104,0.122 0.156,0.293 0.156,0.511l0 0.122zm-0.238 -0.197c-0.001,-0.134 -0.033,-0.238 -0.097,-0.313 -0.063,-0.075 -0.152,-0.112 -0.266,-0.112 -0.109,0 -0.202,0.039 -0.279,0.118 -0.076,0.078 -0.123,0.181 -0.141,0.307l0.783 0zm1.829 0.865l-0.233 0 0 -0.247 -0.005 0c-0.108,0.187 -0.275,0.281 -0.5,0.281 -0.181,0 -0.327,-0.065 -0.436,-0.195 -0.11,-0.13 -0.164,-0.307 -0.164,-0.531 0,-0.24 0.06,-0.432 0.181,-0.576 0.121,-0.145 0.282,-0.217 0.483,-0.217 0.2,0 0.345,0.078 0.436,0.235l0.005 0 0 -0.898 0.233 0 0 2.148zm-0.233 -0.656l0 -0.214c0,-0.117 -0.039,-0.217 -0.116,-0.298 -0.078,-0.081 -0.176,-0.122 -0.295,-0.122 -0.141,0 -0.253,0.052 -0.334,0.156 -0.082,0.104 -0.122,0.248 -0.122,0.431 0,0.167 0.039,0.299 0.117,0.396 0.078,0.097 0.183,0.145 0.314,0.145 0.129,0 0.234,-0.047 0.315,-0.14 0.081,-0.093 0.121,-0.212 0.121,-0.354zm2.049 -0.073c0,0.241 -0.05,0.428 -0.152,0.562 -0.103,0.134 -0.239,0.201 -0.41,0.201 -0.08,0 -0.145,-0.012 -0.196,-0.034l0 -0.235c0.051,0.036 0.117,0.055 0.199,0.055 0.214,0 0.321,-0.182 0.321,-0.546l0 -1.306 0.238 0 0 1.303zm1.092 0.763c-0.215,0 -0.386,-0.068 -0.514,-0.204 -0.128,-0.135 -0.192,-0.315 -0.192,-0.539 0,-0.244 0.067,-0.434 0.2,-0.571 0.133,-0.137 0.313,-0.205 0.54,-0.205 0.216,0 0.385,0.066 0.506,0.2 0.122,0.133 0.182,0.317 0.182,0.553 0,0.232 -0.065,0.417 -0.196,0.557 -0.131,0.139 -0.306,0.209 -0.526,0.209zm0.016 -1.324c-0.149,0 -0.267,0.051 -0.354,0.153 -0.087,0.101 -0.13,0.241 -0.13,0.42 0,0.172 0.044,0.307 0.132,0.406 0.088,0.099 0.205,0.149 0.352,0.149 0.151,0 0.266,-0.049 0.347,-0.146 0.081,-0.097 0.121,-0.235 0.121,-0.415 0,-0.181 -0.04,-0.321 -0.121,-0.419 -0.081,-0.099 -0.196,-0.148 -0.347,-0.148zm1.316 1.08l-0.006 0 0 0.21 -0.232 0 0 -2.148 0.232 0 0 0.952 0.006 0c0.114,-0.193 0.282,-0.289 0.502,-0.289 0.185,0 0.332,0.065 0.436,0.195 0.106,0.129 0.159,0.304 0.159,0.522 0,0.242 -0.059,0.437 -0.177,0.583 -0.118,0.146 -0.28,0.219 -0.485,0.219 -0.192,0 -0.337,-0.082 -0.435,-0.244zm-0.006 -0.585l0 0.202c0,0.12 0.039,0.222 0.117,0.306 0.078,0.084 0.177,0.125 0.297,0.125 0.141,0 0.251,-0.053 0.331,-0.161 0.08,-0.108 0.12,-0.258 0.12,-0.45 0,-0.161 -0.038,-0.287 -0.113,-0.379 -0.074,-0.092 -0.175,-0.138 -0.302,-0.138 -0.136,0 -0.244,0.047 -0.326,0.141 -0.083,0.094 -0.124,0.212 -0.124,0.354zm1.386 0.743l0 -0.25c0.126,0.093 0.266,0.14 0.418,0.14 0.204,0 0.306,-0.068 0.306,-0.204 0,-0.039 -0.009,-0.071 -0.026,-0.098 -0.018,-0.027 -0.041,-0.051 -0.071,-0.072 -0.03,-0.02 -0.065,-0.039 -0.105,-0.056 -0.04,-0.016 -0.083,-0.034 -0.13,-0.052 -0.064,-0.025 -0.12,-0.051 -0.169,-0.077 -0.048,-0.026 -0.089,-0.055 -0.122,-0.088 -0.032,-0.032 -0.057,-0.069 -0.073,-0.111 -0.017,-0.041 -0.025,-0.09 -0.025,-0.146 0,-0.068 0.015,-0.128 0.046,-0.181 0.032,-0.052 0.073,-0.096 0.125,-0.131 0.052,-0.036 0.111,-0.063 0.178,-0.081 0.066,-0.017 0.136,-0.026 0.206,-0.026 0.126,0 0.238,0.022 0.337,0.065l0 0.235c-0.106,-0.07 -0.229,-0.105 -0.368,-0.105 -0.043,0 -0.082,0.005 -0.118,0.015 -0.035,0.01 -0.065,0.024 -0.09,0.042 -0.024,0.018 -0.044,0.039 -0.058,0.064 -0.013,0.025 -0.02,0.053 -0.02,0.083 0,0.038 0.007,0.07 0.02,0.095 0.014,0.026 0.034,0.049 0.061,0.068 0.026,0.02 0.058,0.038 0.096,0.054 0.038,0.016 0.081,0.033 0.129,0.052 0.064,0.025 0.122,0.05 0.173,0.076 0.051,0.026 0.094,0.055 0.13,0.088 0.036,0.033 0.064,0.07 0.083,0.113 0.019,0.042 0.029,0.093 0.029,0.151 0,0.072 -0.016,0.135 -0.047,0.188 -0.032,0.052 -0.074,0.096 -0.127,0.131 -0.053,0.035 -0.114,0.061 -0.183,0.078 -0.069,0.017 -0.141,0.026 -0.217,0.026 -0.149,0 -0.279,-0.029 -0.388,-0.086z"/>
  <path class="fil0" d="M6.867 7.435c0,0.061 -0.049,0.11 -0.11,0.11l-3.166 0c-0.061,0 -0.11,-0.049 -0.11,-0.11l0 -4.132c0,-0.061 0.049,-0.111 0.11,-0.111l2.338 0 0.938 0.939 0 3.304z"/>
  <path class="fil1" d="M6.94 7.435c0,0.05 -0.021,0.096 -0.054,0.129l-0.005 0.005c-0.033,0.03 -0.077,0.049 -0.124,0.049l-3.166 0c-0.05,0 -0.096,-0.021 -0.129,-0.054 -0.033,-0.033 -0.054,-0.079 -0.054,-0.129l0 -4.132c0,-0.051 0.021,-0.096 0.054,-0.13l0.005 -0.004c0.033,-0.031 0.077,-0.049 0.124,-0.049l2.338 0c0.021,0 0.039,0.008 0.052,0.022l0.938 0.937c0.015,0.016 0.022,0.037 0.021,0.057l0 3.299zm-0.156 0.027c0.006,-0.007 0.011,-0.017 0.011,-0.027l0 -3.274 -0.896 -0.896 -2.308 0c-0.009,0 -0.018,0.003 -0.024,0.009l-0.003 0.002c-0.006,0.007 -0.011,0.016 -0.011,0.027l0 4.132c0,0.01 0.005,0.02 0.011,0.027 0.007,0.007 0.017,0.011 0.027,0.011l3.166 0c0.009,0 0.018,-0.003 0.024,-0.009l0.003 -0.002z"/>
  <path class="fil1" d="M5.257 5.024c-0.04,0 -0.072,-0.033 -0.072,-0.073 0,-0.04 0.032,-0.072 0.072,-0.072l1.085 0c0.04,0 0.072,0.032 0.072,0.072 0,0.04 -0.032,0.073 -0.072,0.073l-1.085 0z"/>
  <path class="fil1" d="M5.257 4.562c-0.04,0 -0.072,-0.032 -0.072,-0.072 0,-0.04 0.032,-0.073 0.072,-0.073l0.542 0c0.041,0 0.073,0.033 0.073,0.073 0,0.04 -0.032,0.072 -0.073,0.072l-0.542 0z"/>
  <path class="fil1" d="M4.006 5.79c-0.04,0 -0.072,-0.033 -0.072,-0.073 0,-0.04 0.032,-0.072 0.072,-0.072l2.336 0c0.04,0 0.073,0.032 0.073,0.072 0,0.04 -0.033,0.073 -0.073,0.073l-2.336 0z"/>
  <path class="fil1" d="M4.006 6.437c-0.04,0 -0.072,-0.033 -0.072,-0.073 0,-0.04 0.032,-0.072 0.072,-0.072l2.336 0c0.04,0 0.073,0.032 0.073,0.072 0,0.04 -0.033,0.073 -0.073,0.073l-2.336 0z"/>
  <path class="fil1" d="M4.006 7.083c-0.04,0 -0.072,-0.032 -0.072,-0.072 0,-0.04 0.032,-0.073 0.072,-0.073l1.455 0c0.04,0 0.073,0.033 0.073,0.073 0,0.04 -0.033,0.072 -0.073,0.072l-1.455 0z"/>
  <path class="fil2" d="M4.133 4.52c0.032,-0.008 0.096,0.016 0.138,0.026 0.108,0.026 0.237,0.026 0.345,0 0.042,-0.01 0.106,-0.034 0.138,-0.026 0.033,0.009 0.107,0.062 0.114,0.145l0.022 0.248c0.001,0.021 -0.018,0.038 -0.039,0.038l-0.815 0c-0.021,0 -0.041,-0.017 -0.039,-0.038l0.022 -0.248c0.007,-0.083 0.081,-0.136 0.114,-0.145z"/>
  <circle class="fil2" cx="4.442" cy="4.104" r="0.299"/>
  <path class="fil0" d="M6.867 4.131c-0.312,-0.313 -0.625,-0.626 -0.938,-0.939 0,0.275 0,0.55 0,0.826 0,0.062 0.051,0.113 0.113,0.113l0.825 0z"/>
  <path class="fil1" d="M6.692 4.058l-0.69 -0.691 0 0.651c0,0.011 0.004,0.021 0.011,0.028 0.008,0.008 0.018,0.012 0.029,0.012l0.65 0zm-0.711 -0.917l0.937 0.937c0.013,0.014 0.022,0.032 0.022,0.053 0,0.04 -0.033,0.072 -0.073,0.072l-0.825 0c-0.051,0 -0.097,-0.021 -0.131,-0.054l0 -0.001c-0.034,-0.033 -0.054,-0.08 -0.054,-0.13l0 -0.826c0,-0.018 0.007,-0.037 0.021,-0.051 0.028,-0.028 0.074,-0.028 0.103,0z"/>
 </g>
</svg>
