<?xml version="1.0" encoding="UTF-8"?>
<!DOCTYPE svg PUBLIC "-//W3C//DTD SVG 1.1//EN" "http://www.w3.org/Graphics/SVG/1.1/DTD/svg11.dtd">
<!-- Creator: CorelDRAW 2018 (64-Bit) -->
<svg xmlns="http://www.w3.org/2000/svg" xml:space="preserve" width="209px" height="74px" version="1.1" style="shape-rendering:geometricPrecision; text-rendering:geometricPrecision; image-rendering:optimizeQuality; fill-rule:evenodd; clip-rule:evenodd"
viewBox="0 0 96.935 34.247"
 xmlns:xlink="http://www.w3.org/1999/xlink">
 <defs>
  <style type="text/css">
   <![CDATA[
    .fil4 {fill:#00D4E3}
    .fil3 {fill:#264361}
    .fil0 {fill:white}
    .fil5 {fill:#00D4E3;fill-rule:nonzero}
    .fil1 {fill:#052337;fill-rule:nonzero}
    .fil2 {fill:#264361;fill-rule:nonzero}
   ]]>
  </style>
 </defs>
 <g id="Layer_x0020_1">
  <metadata id="CorelCorpID_0Corel-Layer"/>
  <g id="_1467176872720">
   <rect class="fil0" width="96.935" height="34.246" rx="1.481" ry="2.314"/>
   <path class="fil1" d="M35.052 20.349l0 -0.894c0.103,0.091 0.227,0.171 0.369,0.243 0.143,0.073 0.294,0.135 0.452,0.184 0.159,0.049 0.318,0.088 0.476,0.116 0.161,0.026 0.309,0.04 0.443,0.04 0.468,0 0.816,-0.087 1.048,-0.261 0.229,-0.173 0.345,-0.423 0.345,-0.746 0,-0.176 -0.038,-0.328 -0.116,-0.457 -0.077,-0.13 -0.183,-0.248 -0.317,-0.355 -0.136,-0.108 -0.296,-0.21 -0.482,-0.309 -0.186,-0.097 -0.385,-0.2 -0.6,-0.308 -0.225,-0.114 -0.436,-0.231 -0.632,-0.349 -0.196,-0.117 -0.366,-0.247 -0.511,-0.388 -0.145,-0.142 -0.257,-0.303 -0.341,-0.482 -0.083,-0.179 -0.125,-0.388 -0.125,-0.629 0,-0.296 0.065,-0.552 0.195,-0.771 0.129,-0.219 0.301,-0.398 0.51,-0.54 0.212,-0.142 0.452,-0.247 0.722,-0.317 0.269,-0.069 0.545,-0.104 0.824,-0.104 0.639,0 1.105,0.077 1.398,0.231l0 0.855c-0.383,-0.266 -0.875,-0.398 -1.474,-0.398 -0.166,0 -0.331,0.017 -0.498,0.05 -0.165,0.036 -0.313,0.093 -0.443,0.17 -0.129,0.079 -0.234,0.181 -0.316,0.304 -0.082,0.124 -0.122,0.273 -0.122,0.452 0,0.165 0.031,0.309 0.093,0.429 0.062,0.12 0.153,0.23 0.273,0.33 0.12,0.099 0.268,0.196 0.441,0.289 0.173,0.094 0.373,0.195 0.599,0.306 0.233,0.116 0.452,0.236 0.66,0.363 0.208,0.127 0.39,0.267 0.546,0.42 0.157,0.154 0.281,0.324 0.373,0.51 0.093,0.187 0.138,0.401 0.138,0.642 0,0.319 -0.062,0.591 -0.187,0.811 -0.125,0.223 -0.295,0.403 -0.506,0.54 -0.213,0.139 -0.458,0.239 -0.734,0.301 -0.278,0.062 -0.57,0.093 -0.878,0.093 -0.102,0 -0.228,-0.008 -0.38,-0.025 -0.149,-0.017 -0.303,-0.04 -0.461,-0.073 -0.156,-0.03 -0.304,-0.071 -0.444,-0.117 -0.14,-0.046 -0.253,-0.098 -0.338,-0.156zm8.964 0.263l-1.039 0 -2.043 -2.223 -0.018 0 0 2.223 -0.742 0 0 -6.851 0.742 0 0 4.342 0.018 0 1.942 -2.119 0.972 0 -2.145 2.232 2.313 2.396zm1.088 -5.804c-0.133,0 -0.245,-0.044 -0.34,-0.135 -0.092,-0.09 -0.138,-0.204 -0.138,-0.343 0,-0.139 0.046,-0.254 0.138,-0.345 0.095,-0.093 0.207,-0.139 0.34,-0.139 0.136,0 0.251,0.046 0.346,0.139 0.095,0.091 0.143,0.206 0.143,0.345 0,0.133 -0.048,0.245 -0.143,0.338 -0.095,0.094 -0.21,0.14 -0.346,0.14zm0.362 4.511c0,0.424 0.164,0.637 0.493,0.637 0.132,0 0.251,-0.017 0.356,-0.049l0 0.669c-0.057,0.014 -0.133,0.03 -0.228,0.042 -0.095,0.014 -0.195,0.022 -0.3,0.022 -0.148,0 -0.287,-0.025 -0.416,-0.073 -0.13,-0.049 -0.242,-0.122 -0.337,-0.222 -0.095,-0.099 -0.171,-0.224 -0.226,-0.373 -0.056,-0.149 -0.084,-0.323 -0.084,-0.522l0 -3.466 0.742 0 0 3.335zm2.415 0.623l-0.019 0 0 2.799 -0.742 0 0 -6.757 0.742 0 0 0.813 0.019 0c0.364,-0.614 0.897,-0.921 1.599,-0.921 0.596,0 1.062,0.207 1.396,0.622 0.335,0.413 0.502,0.968 0.502,1.664 0,0.774 -0.188,1.395 -0.565,1.86 -0.376,0.465 -0.891,0.698 -1.545,0.698 -0.601,0 -1.062,-0.259 -1.387,-0.778zm-0.019 -1.866l0 0.646c0,0.383 0.124,0.708 0.373,0.975 0.249,0.267 0.564,0.399 0.946,0.399 0.449,0 0.801,-0.171 1.055,-0.515 0.255,-0.344 0.383,-0.82 0.383,-1.433 0,-0.515 -0.119,-0.918 -0.358,-1.211 -0.238,-0.291 -0.56,-0.438 -0.966,-0.438 -0.432,0 -0.777,0.15 -1.039,0.449 -0.263,0.301 -0.394,0.676 -0.394,1.128zm5.46 1.866l-0.019 0 0 2.799 -0.742 0 0 -6.757 0.742 0 0 0.813 0.019 0c0.364,-0.614 0.897,-0.921 1.599,-0.921 0.596,0 1.062,0.207 1.396,0.622 0.335,0.413 0.502,0.968 0.502,1.664 0,0.774 -0.188,1.395 -0.565,1.86 -0.376,0.465 -0.892,0.698 -1.546,0.698 -0.6,0 -1.061,-0.259 -1.386,-0.778zm-0.019 -1.866l0 0.646c0,0.383 0.123,0.708 0.373,0.975 0.249,0.267 0.563,0.399 0.946,0.399 0.449,0 0.801,-0.171 1.055,-0.515 0.255,-0.344 0.383,-0.82 0.383,-1.433 0,-0.515 -0.119,-0.918 -0.358,-1.211 -0.238,-0.291 -0.56,-0.438 -0.966,-0.438 -0.432,0 -0.777,0.15 -1.04,0.449 -0.262,0.301 -0.393,0.676 -0.393,1.128zm8.418 0.407l-3.267 0c0.012,0.515 0.151,0.913 0.416,1.194 0.266,0.279 0.63,0.419 1.094,0.419 0.522,0 1,-0.171 1.438,-0.515l0 0.696c-0.407,0.296 -0.946,0.443 -1.614,0.443 -0.654,0 -1.167,-0.21 -1.541,-0.63 -0.375,-0.421 -0.561,-1.012 -0.561,-1.774 0,-0.72 0.205,-1.306 0.612,-1.76 0.409,-0.453 0.916,-0.68 1.521,-0.68 0.606,0 1.074,0.196 1.405,0.588 0.332,0.39 0.497,0.934 0.497,1.63l0 0.389zm-0.759 -0.628c-0.003,-0.427 -0.106,-0.76 -0.308,-1 -0.204,-0.237 -0.486,-0.356 -0.849,-0.356 -0.348,0 -0.646,0.125 -0.89,0.375 -0.244,0.25 -0.395,0.577 -0.452,0.981l2.499 0zm5.832 2.757l-0.743 0 0 -0.787 -0.017 0c-0.343,0.597 -0.874,0.895 -1.592,0.895 -0.58,0 -1.045,-0.207 -1.392,-0.622 -0.349,-0.413 -0.524,-0.978 -0.524,-1.692 0,-0.765 0.193,-1.378 0.579,-1.839 0.386,-0.461 0.899,-0.691 1.541,-0.691 0.636,0 1.098,0.25 1.388,0.75l0.017 0 0 -2.865 0.743 0 0 6.851zm-0.743 -2.092l0 -0.683c0,-0.374 -0.123,-0.69 -0.37,-0.949 -0.247,-0.259 -0.56,-0.389 -0.939,-0.389 -0.452,0 -0.809,0.165 -1.068,0.497 -0.259,0.331 -0.388,0.79 -0.388,1.374 0,0.534 0.124,0.954 0.373,1.264 0.248,0.308 0.583,0.462 1.001,0.462 0.413,0 0.748,-0.149 1.006,-0.447 0.257,-0.298 0.385,-0.676 0.385,-1.129zm6.537 -0.232c0,0.769 -0.162,1.366 -0.488,1.793 -0.325,0.426 -0.762,0.639 -1.306,0.639 -0.253,0 -0.462,-0.036 -0.624,-0.108l0 -0.75c0.162,0.117 0.374,0.176 0.633,0.176 0.683,0 1.026,-0.58 1.026,-1.74l0 -4.167 0.759 0 0 4.157zm3.48 2.432c-0.684,0 -1.23,-0.216 -1.639,-0.648 -0.407,-0.432 -0.612,-1.006 -0.612,-1.72 0,-0.778 0.213,-1.384 0.637,-1.822 0.426,-0.437 1,-0.654 1.723,-0.654 0.69,0 1.228,0.211 1.615,0.637 0.388,0.424 0.581,1.013 0.581,1.766 0,0.739 -0.209,1.33 -0.625,1.774 -0.418,0.445 -0.978,0.667 -1.68,0.667zm0.054 -4.221c-0.475,0 -0.852,0.162 -1.129,0.486 -0.278,0.324 -0.417,0.77 -0.417,1.341 0,0.547 0.14,0.979 0.421,1.295 0.281,0.317 0.656,0.475 1.125,0.475 0.48,0 0.848,-0.155 1.106,-0.465 0.257,-0.311 0.385,-0.752 0.385,-1.324 0,-0.578 -0.128,-1.024 -0.385,-1.337 -0.258,-0.315 -0.626,-0.471 -1.106,-0.471zm4.196 3.443l-0.019 0 0 0.67 -0.742 0 0 -6.851 0.742 0 0 3.036 0.019 0c0.364,-0.614 0.898,-0.921 1.6,-0.921 0.592,0 1.058,0.207 1.392,0.622 0.337,0.413 0.505,0.968 0.505,1.664 0,0.774 -0.188,1.395 -0.565,1.86 -0.376,0.465 -0.891,0.698 -1.545,0.698 -0.613,0 -1.074,-0.259 -1.387,-0.778zm-0.019 -1.866l0 0.646c0,0.383 0.124,0.708 0.374,0.975 0.248,0.267 0.563,0.399 0.945,0.399 0.449,0 0.801,-0.171 1.055,-0.515 0.255,-0.344 0.383,-0.82 0.383,-1.433 0,-0.515 -0.119,-0.918 -0.358,-1.211 -0.238,-0.291 -0.56,-0.438 -0.966,-0.438 -0.432,0 -0.777,0.15 -1.039,0.449 -0.263,0.301 -0.394,0.676 -0.394,1.128zm4.42 2.369l0 -0.796c0.403,0.298 0.848,0.447 1.333,0.447 0.651,0 0.976,-0.217 0.976,-0.651 0,-0.123 -0.027,-0.228 -0.083,-0.313 -0.057,-0.086 -0.131,-0.162 -0.227,-0.228 -0.094,-0.066 -0.207,-0.127 -0.335,-0.179 -0.128,-0.052 -0.265,-0.108 -0.413,-0.165 -0.205,-0.082 -0.384,-0.163 -0.54,-0.247 -0.154,-0.082 -0.284,-0.176 -0.389,-0.279 -0.103,-0.105 -0.182,-0.222 -0.234,-0.355 -0.053,-0.133 -0.079,-0.288 -0.079,-0.466 0,-0.217 0.049,-0.409 0.148,-0.577 0.1,-0.166 0.233,-0.307 0.398,-0.419 0.167,-0.113 0.355,-0.199 0.568,-0.256 0.211,-0.057 0.432,-0.085 0.657,-0.085 0.401,0 0.759,0.069 1.075,0.207l0 0.751c-0.339,-0.224 -0.731,-0.335 -1.174,-0.335 -0.138,0 -0.263,0.015 -0.376,0.048 -0.111,0.031 -0.207,0.075 -0.287,0.132 -0.079,0.058 -0.14,0.127 -0.185,0.206 -0.043,0.08 -0.065,0.168 -0.065,0.265 0,0.12 0.022,0.221 0.065,0.302 0.045,0.082 0.108,0.155 0.193,0.218 0.083,0.063 0.186,0.12 0.307,0.171 0.12,0.051 0.257,0.107 0.412,0.167 0.203,0.078 0.388,0.159 0.55,0.242 0.162,0.083 0.301,0.176 0.417,0.281 0.114,0.103 0.202,0.223 0.264,0.359 0.061,0.136 0.092,0.296 0.092,0.483 0,0.23 -0.051,0.429 -0.151,0.597 -0.102,0.168 -0.236,0.309 -0.404,0.42 -0.17,0.112 -0.364,0.194 -0.583,0.25 -0.221,0.053 -0.451,0.08 -0.693,0.08 -0.475,0 -0.888,-0.091 -1.237,-0.275z"/>
   <path class="fil2" d="M12.947 17.712c0,0.127 -0.103,0.231 -0.231,0.231 -0.128,0 -0.232,-0.104 -0.232,-0.231 0,-1.768 0.717,-3.368 1.875,-4.526 1.158,-1.158 2.759,-1.875 4.526,-1.875 1.263,0 2.468,0.372 3.485,1.033 1.017,0.661 1.847,1.61 2.361,2.765 0.052,0.116 0,0.252 -0.116,0.304 -0.117,0.052 -0.253,0 -0.305,-0.117 -0.477,-1.071 -1.247,-1.952 -2.191,-2.565 -0.943,-0.612 -2.06,-0.957 -3.234,-0.957 -1.64,0 -3.124,0.665 -4.199,1.739 -1.074,1.074 -1.739,2.559 -1.739,4.199z"/>
   <polygon class="fil3" points="26.028,14.791 25.385,17.712 23.177,15.695 "/>
   <path class="fil2" d="M26.254 14.841l-0.644 2.92c-0.027,0.125 -0.15,0.204 -0.275,0.177 -0.049,-0.011 -0.091,-0.037 -0.122,-0.071l-2.192 -2.002c-0.093,-0.086 -0.1,-0.232 -0.014,-0.326 0.028,-0.031 0.063,-0.052 0.101,-0.064l2.85 -0.904c0.122,-0.039 0.252,0.029 0.29,0.151 0.013,0.04 0.014,0.081 0.006,0.119zm-1.009 2.431l0.471 -2.139 -2.088 0.661 1.617 1.478z"/>
   <rect class="fil3" x="11.101" y="19.883" width="3.23" height="3.23" rx="0.346" ry="0.346"/>
   <path class="fil2" d="M11.447 19.651l2.538 0c0.159,0 0.303,0.065 0.408,0.17 0.104,0.105 0.169,0.249 0.169,0.407l0 2.538c0,0.159 -0.065,0.304 -0.169,0.408 -0.105,0.105 -0.249,0.169 -0.408,0.169l-2.538 0c-0.159,0 -0.303,-0.064 -0.408,-0.169 -0.104,-0.104 -0.169,-0.249 -0.169,-0.408l0 -2.538c0,-0.158 0.065,-0.302 0.169,-0.407 0.105,-0.105 0.249,-0.17 0.408,-0.17zm2.538 0.463l-2.538 0c-0.031,0 -0.06,0.013 -0.081,0.034 -0.021,0.02 -0.033,0.049 -0.033,0.08l0 2.538c0,0.032 0.013,0.06 0.033,0.081 0.021,0.021 0.05,0.034 0.081,0.034l2.538 0c0.031,0 0.06,-0.013 0.081,-0.034 0.02,-0.021 0.033,-0.049 0.033,-0.081l0 -2.538c0,-0.031 -0.012,-0.06 -0.033,-0.081 -0.021,-0.02 -0.05,-0.033 -0.081,-0.033z"/>
   <rect class="fil3" x="23.439" y="19.883" width="3.23" height="3.23" rx="0.346" ry="0.346"/>
   <path class="fil2" d="M23.785 19.651l2.538 0c0.159,0 0.304,0.065 0.408,0.17 0.104,0.104 0.169,0.249 0.169,0.407l0 2.538c0,0.158 -0.065,0.303 -0.17,0.408 -0.103,0.105 -0.248,0.169 -0.407,0.169l-2.538 0c-0.159,0 -0.303,-0.064 -0.408,-0.169 -0.104,-0.104 -0.169,-0.249 -0.169,-0.408l0 -2.538c0,-0.158 0.065,-0.303 0.169,-0.407 0.106,-0.105 0.25,-0.17 0.408,-0.17zm2.538 0.463l-2.538 0c-0.031,0 -0.06,0.013 -0.081,0.033 -0.02,0.021 -0.033,0.05 -0.033,0.081l0 2.538c0,0.032 0.013,0.06 0.034,0.081 0.02,0.021 0.049,0.034 0.08,0.034l2.538 0c0.031,0 0.06,-0.013 0.081,-0.034 0.021,-0.02 0.033,-0.049 0.033,-0.081l0 -2.538c0,-0.031 -0.013,-0.06 -0.033,-0.08 -0.021,-0.021 -0.05,-0.034 -0.081,-0.034z"/>
   <rect class="fil4" x="17.27" y="19.883" width="3.23" height="3.23" rx="0.346" ry="0.346"/>
   <path class="fil5" d="M17.616 19.651l2.538 0c0.159,0 0.303,0.065 0.408,0.17 0.104,0.104 0.169,0.249 0.169,0.407l0 2.538c0,0.158 -0.065,0.303 -0.17,0.408 -0.104,0.105 -0.248,0.169 -0.407,0.169l-2.538 0c-0.159,0 -0.303,-0.064 -0.408,-0.169 -0.104,-0.104 -0.169,-0.249 -0.169,-0.408l0 -2.538c0,-0.158 0.065,-0.303 0.169,-0.407 0.106,-0.105 0.25,-0.17 0.408,-0.17zm2.538 0.463l-2.538 0c-0.032,0 -0.06,0.013 -0.081,0.033 -0.02,0.021 -0.033,0.05 -0.033,0.081l0 2.538c0,0.032 0.013,0.06 0.033,0.081 0.021,0.021 0.05,0.034 0.081,0.034l2.538 0c0.031,0 0.06,-0.013 0.081,-0.034 0.021,-0.02 0.033,-0.049 0.033,-0.081l0 -2.538c0,-0.031 -0.013,-0.06 -0.033,-0.08 -0.021,-0.021 -0.05,-0.034 -0.081,-0.034z"/>
  </g>
 </g>
</svg>
