<?xml version="1.0" encoding="UTF-8"?>
<!DOCTYPE svg PUBLIC "-//W3C//DTD SVG 1.1//EN" "http://www.w3.org/Graphics/SVG/1.1/DTD/svg11.dtd">
<!-- Creator: CorelDRAW 2018 (64-Bit) -->
<svg xmlns="http://www.w3.org/2000/svg" xml:space="preserve" width="19px" height="19px" version="1.1" style="shape-rendering:geometricPrecision; text-rendering:geometricPrecision; image-rendering:optimizeQuality; fill-rule:evenodd; clip-rule:evenodd"
viewBox="0 0 0.227 0.222"
 xmlns:xlink="http://www.w3.org/1999/xlink">
 <defs>
  <style type="text/css">
   <![CDATA[
    .fil0 {fill:gray;fill-rule:nonzero}
   ]]>
  </style>
 </defs>
 <g id="Layer_x0020_1">
  <metadata id="CorelCorpID_0Corel-Layer"/>
  <g id="_2117875614704">
   <path class="fil0" d="M0.014 0l0.199 0c0.004,0 0.007,0.002 0.01,0.004l0 0c0.002,0.002 0.004,0.006 0.004,0.01l0 0.195c0,0.003 -0.002,0.007 -0.004,0.009l0 0c-0.003,0.003 -0.006,0.004 -0.01,0.004l-0.199 0c-0.004,0 -0.008,-0.001 -0.01,-0.004l0 0c-0.002,-0.002 -0.004,-0.006 -0.004,-0.009l0 -0.195c0,-0.004 0.002,-0.008 0.004,-0.01l0 0c0.002,-0.002 0.006,-0.004 0.01,-0.004zm0.199 0.012l-0.199 0c-0.001,0 -0.001,0 -0.002,0 0,0.001 0,0.001 0,0.002l0 0.195c0,0 0,0.001 0,0.001 0.001,0 0.001,0 0.002,0l0.199 0c0,0 0.001,0 0.001,0 0,0 0.001,-0.001 0.001,-0.001l0 -0.195c0,-0.001 -0.001,-0.001 -0.001,-0.002 0,0 -0.001,0 -0.001,0z"/>
   <path class="fil0" d="M0.172 0.054l0 0c0,-0.004 -0.002,-0.007 -0.004,-0.01 -0.003,-0.002 -0.006,-0.004 -0.01,-0.004l0 0c-0.004,0 -0.007,0.002 -0.01,0.004 -0.002,0.003 -0.004,0.006 -0.004,0.01l0 0c0,0.004 0.002,0.008 0.004,0.01 0.003,0.003 0.006,0.004 0.01,0.004l0 0c0.004,0 0.007,-0.001 0.01,-0.004 0.002,-0.002 0.004,-0.006 0.004,-0.01zm0.012 0l0 0c0,0.007 -0.003,0.014 -0.008,0.019 -0.004,0.004 -0.011,0.007 -0.018,0.007l0 0c-0.007,0 -0.014,-0.003 -0.018,-0.008 -0.005,-0.004 -0.008,-0.011 -0.008,-0.018l0 0c0,-0.007 0.003,-0.014 0.008,-0.018 0.004,-0.005 0.011,-0.008 0.018,-0.008l0 0c0.007,0 0.014,0.003 0.018,0.008 0.005,0.005 0.008,0.011 0.008,0.018z"/>
   <path class="fil0" d="M0.224 0.17c0.003,0.002 0.003,0.006 0.001,0.009 -0.002,0.002 -0.006,0.002 -0.008,0l-0.047 -0.041 -0.023 0.024c-0.002,0.002 -0.006,0.002 -0.008,0l-0.082 -0.085 -0.047 0.049c-0.002,0.002 -0.006,0.002 -0.008,0 -0.002,-0.002 -0.002,-0.006 0,-0.008l0.051 -0.054c0.002,-0.002 0.006,-0.002 0.008,0.001l0.082 0.084 0.022 -0.024c0.002,-0.002 0.006,-0.002 0.008,0l0.051 0.045z"/>
  </g>
 </g>
</svg>
