<?xml version="1.0" encoding="UTF-8"?>
<!DOCTYPE svg PUBLIC "-//W3C//DTD SVG 1.1//EN" "http://www.w3.org/Graphics/SVG/1.1/DTD/svg11.dtd">
<!-- Creator: CorelDRAW 2018 (64-Bit) -->
<svg xmlns="http://www.w3.org/2000/svg" xml:space="preserve" width="17px" height="19px" version="1.1" style="shape-rendering:geometricPrecision; text-rendering:geometricPrecision; image-rendering:optimizeQuality; fill-rule:evenodd; clip-rule:evenodd"
viewBox="0 0 0.181 0.206"
 xmlns:xlink="http://www.w3.org/1999/xlink">
 <defs>
  <style type="text/css">
   <![CDATA[
    .fil0 {fill:gray;fill-rule:nonzero}
   ]]>
  </style>
 </defs>
 <g id="Layer_x0020_1">
  <metadata id="CorelCorpID_0Corel-Layer"/>
  <g id="_2081079715968">
   <path class="fil0" d="M0.158 0.029c0,-0.002 0.003,-0.005 0.006,-0.004 0.003,0 0.005,0.003 0.004,0.006l-0.02 0.161c0,0.004 -0.002,0.008 -0.005,0.01 -0.002,0.003 -0.006,0.004 -0.01,0.004l-0.085 0c-0.004,0 -0.008,-0.001 -0.01,-0.004 -0.003,-0.002 -0.005,-0.006 -0.005,-0.01l-0.02 -0.161c-0.001,-0.003 0.002,-0.006 0.004,-0.006 0.003,-0.001 0.006,0.002 0.006,0.004l0.02 0.162c0.001,0.001 0.001,0.003 0.002,0.004 0.001,0 0.002,0.001 0.003,0.001l0.085 0c0.001,0 0.002,-0.001 0.003,-0.001 0.001,-0.001 0.002,-0.003 0.002,-0.004l0.02 -0.162z"/>
   <path class="fil0" d="M0.005 0.035c-0.003,0 -0.005,-0.002 -0.005,-0.005 0,-0.003 0.002,-0.005 0.005,-0.005l0.171 0c0.003,0 0.005,0.002 0.005,0.005 0,0.003 -0.002,0.005 -0.005,0.005l-0.171 0z"/>
   <path class="fil0" d="M0.073 0.027c0,0.003 -0.002,0.005 -0.005,0.005 -0.003,0 -0.006,-0.002 -0.006,-0.005l0 -0.012c0,-0.004 0.002,-0.008 0.005,-0.011 0.003,-0.002 0.006,-0.004 0.011,-0.004l0.026 0c0.004,0 0.008,0.002 0.011,0.004 0.003,0.003 0.004,0.007 0.004,0.011l0 0.012c0,0.003 -0.002,0.005 -0.005,0.005 -0.003,0 -0.005,-0.002 -0.005,-0.005l0 -0.012c0,-0.001 -0.001,-0.002 -0.002,-0.003 0,-0.001 -0.002,-0.001 -0.003,-0.001l-0.026 0c-0.002,0 -0.003,0 -0.004,0.001 -0.001,0.001 -0.001,0.002 -0.001,0.003l0 0.012z"/>
   <path class="fil0" d="M0.085 0.055c0,-0.003 0.003,-0.005 0.006,-0.005 0.002,0 0.005,0.002 0.005,0.005l0 0.121c0,0.003 -0.003,0.005 -0.005,0.005 -0.003,0 -0.006,-0.002 -0.006,-0.005l0 -0.121z"/>
   <path class="fil0" d="M0.049 0.056c0,-0.003 0.002,-0.006 0.005,-0.006 0.003,0 0.005,0.002 0.005,0.005l0.01 0.121c0,0.003 -0.002,0.005 -0.005,0.005 -0.003,0.001 -0.005,-0.002 -0.005,-0.005l-0.01 -0.12z"/>
   <path class="fil0" d="M0.122 0.055c0,-0.003 0.002,-0.005 0.005,-0.005 0.003,0 0.005,0.003 0.005,0.006l-0.009 0.12c-0.001,0.003 -0.003,0.006 -0.006,0.005 -0.003,0 -0.005,-0.002 -0.005,-0.005l0.01 -0.121z"/>
  </g>
 </g>
</svg>
