<?xml version="1.0" encoding="UTF-8"?>
<!DOCTYPE svg PUBLIC "-//W3C//DTD SVG 1.1//EN" "http://www.w3.org/Graphics/SVG/1.1/DTD/svg11.dtd">
<!-- Creator: CorelDRAW 2018 (64-Bit) -->
<svg xmlns="http://www.w3.org/2000/svg" xml:space="preserve" width="32px" height="32px" version="1.1" style="shape-rendering:geometricPrecision; text-rendering:geometricPrecision; image-rendering:optimizeQuality; fill-rule:evenodd; clip-rule:evenodd"
viewBox="0 0 0.881 0.881"
 xmlns:xlink="http://www.w3.org/1999/xlink">
 <defs>
  <style type="text/css">
   <![CDATA[
    .fil0 {fill:none}
    .fil1 {fill:#00F4FF}
    .fil2 {fill:#052337;fill-rule:nonzero}
   ]]>
  </style>
 </defs>
 <g id="Layer_x0020_1">
  <metadata id="CorelCorpID_0Corel-Layer"/>
  <g id="_1288793568768">
   <rect class="fil0" width="0.881" height="0.881"/>
   <g>
    <path class="fil1" d="M0.391 0.576c0.011,0.013 0.039,0.009 0.039,0.018 0,0.01 -0.018,0.03 -0.072,0.045 -0.053,0.014 -0.079,0.009 -0.092,-0.017 -0.016,-0.033 0.045,-0.171 0.028,-0.187 -0.012,-0.011 -0.039,-0.009 -0.039,-0.018 0,-0.01 0.018,-0.03 0.072,-0.044 0.054,-0.015 0.082,-0.009 0.092,0.016 0.016,0.038 -0.045,0.166 -0.028,0.187z"/>
    <path class="fil2" d="M0.402 0.567c0.002,0.003 0.01,0.005 0.016,0.006 0.014,0.003 0.026,0.006 0.026,0.021 0,0.01 -0.008,0.024 -0.028,0.036 -0.012,0.008 -0.03,0.015 -0.054,0.022 -0.029,0.008 -0.051,0.01 -0.068,0.007 -0.019,-0.004 -0.032,-0.014 -0.04,-0.031 -0.011,-0.022 0.002,-0.069 0.014,-0.113 0.01,-0.035 0.019,-0.068 0.016,-0.07 -0.003,-0.003 -0.01,-0.005 -0.016,-0.006 -0.015,-0.004 -0.027,-0.007 -0.027,-0.022 0,-0.01 0.008,-0.024 0.028,-0.036 0.013,-0.008 0.03,-0.015 0.054,-0.022 0.029,-0.008 0.052,-0.01 0.069,-0.006 0.02,0.004 0.033,0.014 0.04,0.031 0.01,0.024 -0.003,0.07 -0.015,0.112 -0.01,0.034 -0.019,0.067 -0.015,0.071zm0.01 0.033c-0.011,-0.003 -0.023,-0.005 -0.031,-0.015 -0.013,-0.016 -0.002,-0.055 0.009,-0.096 0.011,-0.038 0.023,-0.079 0.017,-0.094 -0.004,-0.008 -0.01,-0.013 -0.02,-0.015 -0.013,-0.003 -0.032,-0.001 -0.057,0.006 -0.021,0.006 -0.036,0.012 -0.046,0.018 -0.011,0.007 -0.015,0.011 -0.015,0.013 0,0.006 0.002,-0.006 0.005,-0.005 0.01,0.002 0.021,0.005 0.029,0.013 0.014,0.014 0.003,0.054 -0.008,0.097 -0.011,0.039 -0.022,0.082 -0.017,0.094 0.005,0.009 0.011,0.014 0.021,0.016 0.013,0.002 0.031,0 0.056,-0.007 0.021,-0.005 0.036,-0.012 0.046,-0.018 0.005,-0.003 0.008,-0.005 0.011,-0.007zm0.004 -0.006c0,-0.004 -0.001,0 -0.002,0.004 0.002,-0.002 0.002,-0.003 0.002,-0.004z"/>
    <path class="fil1" d="M0.394 0.173c0.037,0 0.066,0.029 0.066,0.066 0,0.036 -0.029,0.066 -0.066,0.066 -0.036,0 -0.066,-0.03 -0.066,-0.066 0,-0.037 0.03,-0.066 0.066,-0.066z"/>
    <path class="fil2" d="M0.394 0.159c0.022,0 0.042,0.009 0.057,0.023 0.014,0.015 0.023,0.035 0.023,0.057 0,0.022 -0.009,0.042 -0.023,0.056 -0.015,0.015 -0.035,0.024 -0.057,0.024 -0.022,0 -0.042,-0.009 -0.056,-0.024 -0.015,-0.014 -0.024,-0.034 -0.024,-0.056 0,-0.022 0.009,-0.042 0.024,-0.057 0.014,-0.014 0.034,-0.023 0.056,-0.023zm0.037 0.043c-0.009,-0.01 -0.022,-0.016 -0.037,-0.016 -0.014,0 -0.027,0.006 -0.037,0.016 -0.009,0.009 -0.015,0.022 -0.015,0.037 0,0.014 0.006,0.027 0.015,0.037 0.01,0.009 0.023,0.015 0.037,0.015 0.015,0 0.028,-0.006 0.037,-0.015 0.01,-0.01 0.016,-0.023 0.016,-0.037 0,-0.015 -0.006,-0.028 -0.016,-0.037z"/>
    <path class="fil2" d="M0.358 0.065c0.095,0 0.181,0.039 0.243,0.101 0.062,0.062 0.101,0.148 0.101,0.244 0,0.095 -0.039,0.181 -0.101,0.243 -0.062,0.062 -0.148,0.101 -0.243,0.101 -0.095,0 -0.181,-0.039 -0.243,-0.101 -0.063,-0.062 -0.101,-0.148 -0.101,-0.243 0,-0.096 0.038,-0.182 0.101,-0.244 0.062,-0.062 0.148,-0.101 0.243,-0.101zm0.224 0.121c-0.058,-0.058 -0.137,-0.093 -0.224,-0.093 -0.088,0 -0.167,0.035 -0.224,0.093 -0.057,0.057 -0.093,0.136 -0.093,0.224 0,0.087 0.036,0.166 0.093,0.223 0.057,0.058 0.136,0.093 0.224,0.093 0.087,0 0.166,-0.035 0.224,-0.093 0.057,-0.057 0.092,-0.136 0.092,-0.223 0,-0.088 -0.035,-0.167 -0.092,-0.224z"/>
   </g>
  </g>
 </g>
</svg>
