<?xml version="1.0" encoding="UTF-8"?>
<!DOCTYPE svg PUBLIC "-//W3C//DTD SVG 1.1//EN" "http://www.w3.org/Graphics/SVG/1.1/DTD/svg11.dtd">
<!-- Creator: CorelDRAW 2018 (64-Bit) -->
<svg xmlns="http://www.w3.org/2000/svg" xml:space="preserve" width="40px" height="32px" version="1.1" style="shape-rendering:geometricPrecision; text-rendering:geometricPrecision; image-rendering:optimizeQuality; fill-rule:evenodd; clip-rule:evenodd"
viewBox="0 0 40 32"
 xmlns:xlink="http://www.w3.org/1999/xlink">
 <defs>
  <style type="text/css">
   <![CDATA[
    .fil0 {fill:none}
    .fil1 {fill:#00F4FF;fill-rule:nonzero}
   ]]>
  </style>
 </defs>
 <g id="Layer_x0020_1">
  <metadata id="CorelCorpID_0Corel-Layer"/>
  <rect class="fil0" width="40" height="32"/>
  <g id="_2652222852112">
   <path class="fil1" d="M30.266 23.123c0.238,-0.138 0.543,-0.056 0.681,0.182 0.139,0.238 0.057,0.543 -0.181,0.681l-11.717 6.765c-0.16,0.093 -0.351,0.087 -0.5,0l-11.718 -6.765c-0.159,-0.092 -0.248,-0.26 -0.248,-0.431l-0.002 -13.53c0,-0.203 0.121,-0.378 0.294,-0.456l11.676 -6.741c0.159,-0.091 0.347,-0.085 0.496,0l11.717 6.765c0.238,0.137 0.32,0.441 0.183,0.68 -0.136,0.238 -0.441,0.32 -0.679,0.183l-11.469 -6.622 -11.218 6.477 0 12.957 11.218 6.476 11.467 -6.621z"/>
   <path class="fil1" d="M17.902 21.123c-0.276,0 -0.5,-0.224 -0.5,-0.5 0,-0.276 0.224,-0.5 0.5,-0.5l17.379 0c0.276,0 0.5,0.224 0.5,0.5 0,0.276 -0.224,0.5 -0.5,0.5l-17.379 0z"/>
   <path class="fil1" d="M17.902 17.29c-0.276,0 -0.5,-0.224 -0.5,-0.5 0,-0.276 0.224,-0.5 0.5,-0.5l17.379 0c0.276,0 0.5,0.224 0.5,0.5 0,0.276 -0.224,0.5 -0.5,0.5l-17.379 0z"/>
   <path class="fil1" d="M17.902 13.456c-0.276,0 -0.5,-0.223 -0.5,-0.5 0,-0.276 0.224,-0.5 0.5,-0.5l17.379 0c0.276,0 0.5,0.224 0.5,0.5 0,0.277 -0.224,0.5 -0.5,0.5l-17.379 0z"/>
  </g>
 </g>
</svg>
