<?xml version="1.0" encoding="UTF-8"?>
<!DOCTYPE svg PUBLIC "-//W3C//DTD SVG 1.1//EN" "http://www.w3.org/Graphics/SVG/1.1/DTD/svg11.dtd">
<!-- Creator: CorelDRAW 2018 (64-Bit) -->
<svg xmlns="http://www.w3.org/2000/svg" xml:space="preserve" width="40px" height="32px" version="1.1" style="shape-rendering:geometricPrecision; text-rendering:geometricPrecision; image-rendering:optimizeQuality; fill-rule:evenodd; clip-rule:evenodd"
viewBox="0 0 40 32"
 xmlns:xlink="http://www.w3.org/1999/xlink">
 <defs>
  <style type="text/css">
   <![CDATA[
    .fil0 {fill:none}
    .fil1 {fill:white;fill-rule:nonzero}
   ]]>
  </style>
 </defs>
 <g id="Layer_x0020_1">
  <metadata id="CorelCorpID_0Corel-Layer"/>
  <rect class="fil0" width="40" height="32"/>
  <g id="_2652403643072">
   <path class="fil1" d="M10.745 5.995c0.276,0 0.5,0.224 0.5,0.5 0,0.276 -0.224,0.5 -0.5,0.5l-4.052 0c-0.041,0 -0.08,0.018 -0.108,0.046 -0.028,0.028 -0.045,0.067 -0.045,0.108l0 19.708c0,0.041 0.017,0.08 0.045,0.107 0.028,0.028 0.067,0.046 0.108,0.046l11.998 0c0.276,0 0.5,0.224 0.5,0.5 0,0.276 -0.224,0.5 -0.5,0.5l-11.998 0c-0.318,0 -0.606,-0.13 -0.815,-0.339 -0.208,-0.208 -0.338,-0.497 -0.338,-0.814l0 -19.708c0,-0.317 0.13,-0.606 0.338,-0.815 0.209,-0.209 0.498,-0.339 0.815,-0.339l4.052 0zm18.844 5.136c0,0.277 -0.224,0.5 -0.5,0.5 -0.276,0 -0.5,-0.223 -0.5,-0.5l0 -3.982c0,-0.041 -0.018,-0.079 -0.046,-0.107 -0.028,-0.029 -0.066,-0.047 -0.107,-0.047l-2.725 0c-0.276,0 -0.5,-0.224 -0.5,-0.5 0,-0.276 0.224,-0.5 0.5,-0.5l2.725 0c0.317,0 0.605,0.131 0.814,0.34 0.209,0.208 0.339,0.497 0.339,0.814l0 3.982z"/>
   <path class="fil1" d="M22.754 5.995c0.276,0 0.5,0.224 0.5,0.5 0,0.276 -0.224,0.5 -0.5,0.5l-2.051 0c-0.276,0 -0.5,-0.224 -0.5,-0.5 0,-0.276 0.224,-0.5 0.5,-0.5l2.051 0z"/>
   <path class="fil1" d="M16.745 5.995c0.276,0 0.5,0.224 0.5,0.5 0,0.276 -0.224,0.5 -0.5,0.5l-1.987 0c-0.276,0 -0.5,-0.224 -0.5,-0.5 0,-0.276 0.224,-0.5 0.5,-0.5l1.987 0z"/>
   <path class="fil1" d="M23.573 4.819c-0.089,0 -0.169,0.035 -0.225,0.092 -0.059,0.058 -0.094,0.138 -0.094,0.227l0 2.715c0,0.089 0.035,0.169 0.092,0.225 0.058,0.059 0.138,0.094 0.227,0.094 0.089,0 0.169,-0.035 0.225,-0.092 0.059,-0.058 0.094,-0.138 0.094,-0.227l0 -2.715c0,-0.089 -0.035,-0.169 -0.092,-0.225 -0.058,-0.059 -0.138,-0.094 -0.227,-0.094zm0 -1c0.36,0 0.69,0.148 0.929,0.386l0.003 0.003c0.239,0.239 0.387,0.569 0.387,0.93l0 2.715c0,0.361 -0.148,0.69 -0.386,0.929l-0.003 0.003c-0.239,0.239 -0.569,0.387 -0.93,0.387 -0.361,0 -0.69,-0.148 -0.929,-0.386l-0.003 -0.003c-0.239,-0.239 -0.387,-0.569 -0.387,-0.93l0 -2.715c0,-0.36 0.148,-0.69 0.386,-0.929l0.003 -0.003c0.239,-0.239 0.569,-0.387 0.93,-0.387z"/>
   <path class="fil1" d="M17.565 4.819c-0.089,0 -0.169,0.035 -0.226,0.092 -0.058,0.058 -0.094,0.138 -0.094,0.227l0 2.715c0,0.089 0.036,0.169 0.092,0.225 0.059,0.059 0.139,0.094 0.227,0.094 0.089,0 0.169,-0.035 0.226,-0.092 0.058,-0.058 0.094,-0.138 0.094,-0.227l0 -2.715c0,-0.089 -0.036,-0.169 -0.092,-0.225 -0.059,-0.059 -0.139,-0.094 -0.227,-0.094zm-0.001 -1c0.361,0 0.69,0.148 0.93,0.386l0.002 0.003c0.239,0.239 0.388,0.569 0.388,0.93l0 2.715c0,0.361 -0.148,0.69 -0.387,0.929l-0.002 0.003c-0.24,0.239 -0.57,0.387 -0.93,0.387 -0.361,0 -0.691,-0.148 -0.93,-0.386l-0.003 -0.003c-0.239,-0.239 -0.387,-0.569 -0.387,-0.93l0 -2.715c0,-0.36 0.148,-0.69 0.387,-0.929l0.002 -0.003c0.24,-0.239 0.569,-0.387 0.93,-0.387z"/>
   <path class="fil1" d="M11.564 4.819c-0.089,0 -0.169,0.035 -0.225,0.092 -0.059,0.058 -0.094,0.138 -0.094,0.227l0 2.715c0,0.089 0.035,0.169 0.092,0.225 0.058,0.059 0.138,0.094 0.226,0.094 0.089,0 0.169,-0.035 0.226,-0.092 0.058,-0.058 0.094,-0.138 0.094,-0.227l0 -2.715c0,-0.089 -0.036,-0.169 -0.092,-0.225 -0.059,-0.059 -0.139,-0.094 -0.227,-0.094zm-0.001 -1c0.361,0 0.691,0.148 0.93,0.386l0.003 0.003c0.239,0.239 0.387,0.569 0.387,0.93l0 2.715c0,0.361 -0.148,0.69 -0.386,0.929l-0.003 0.003c-0.239,0.239 -0.57,0.387 -0.93,0.387 -0.361,0 -0.69,-0.148 -0.929,-0.386l-0.003 -0.003c-0.239,-0.239 -0.388,-0.569 -0.388,-0.93l0 -2.715c0,-0.36 0.148,-0.69 0.387,-0.929l0.003 -0.003c0.239,-0.239 0.569,-0.387 0.929,-0.387z"/>
   <path class="fil1" d="M10.144 13.068l2 0c0.215,0 0.411,0.088 0.552,0.229 0.141,0.141 0.229,0.337 0.229,0.551l0 2.001c0,0.215 -0.088,0.411 -0.229,0.552 -0.141,0.141 -0.337,0.229 -0.552,0.229l-2 0c-0.215,0 -0.411,-0.088 -0.552,-0.229 -0.141,-0.141 -0.229,-0.337 -0.229,-0.552l0 -2.001c0,-0.214 0.088,-0.41 0.229,-0.551 0.141,-0.141 0.337,-0.229 0.552,-0.229zm1.781 1l-1.561 0 0 1.562 1.561 0 0 -1.562z"/>
   <path class="fil1" d="M16.564 13.068l2.001 0c0.215,0 0.411,0.088 0.551,0.229 0.141,0.141 0.229,0.337 0.229,0.551l0 2.001c0,0.215 -0.088,0.411 -0.229,0.552 -0.14,0.141 -0.336,0.229 -0.551,0.229l-2.001 0c-0.215,0 -0.41,-0.088 -0.551,-0.229 -0.141,-0.141 -0.229,-0.337 -0.229,-0.552l0 -2.001c0,-0.214 0.088,-0.41 0.229,-0.551 0.141,-0.141 0.336,-0.229 0.551,-0.229zm1.781 1l-1.561 0 0 1.562 1.561 0 0 -1.562z"/>
   <path class="fil1" d="M10.144 19.618l2 0c0.215,0 0.411,0.088 0.552,0.229 0.141,0.141 0.229,0.337 0.229,0.552l0 2.001c0,0.214 -0.088,0.41 -0.229,0.551 -0.141,0.141 -0.337,0.229 -0.552,0.229l-2 0c-0.215,0 -0.411,-0.088 -0.552,-0.229 -0.141,-0.141 -0.229,-0.337 -0.229,-0.551l0 -2.001c0,-0.215 0.088,-0.411 0.229,-0.552 0.141,-0.141 0.337,-0.229 0.552,-0.229zm1.781 1.001l-1.561 0 0 1.561 1.561 0 0 -1.561z"/>
   <path class="fil1" d="M27.385 12.248l2.914 5.471 6.11 1.082c0.271,0.048 0.453,0.307 0.406,0.578 -0.02,0.112 -0.075,0.209 -0.153,0.281l-4.287 4.445 0.859 6.146c0.038,0.272 -0.153,0.524 -0.426,0.562 -0.101,0.014 -0.2,-0.004 -0.286,-0.046l-5.578 -2.714 -5.578 2.715c-0.247,0.121 -0.547,0.018 -0.668,-0.23 -0.049,-0.101 -0.061,-0.21 -0.041,-0.313l0.855 -6.12 -4.307 -4.466c-0.19,-0.199 -0.184,-0.514 0.014,-0.705 0.074,-0.072 0.165,-0.115 0.26,-0.132l6.109 -1.083 2.916 -5.474c0.13,-0.243 0.432,-0.334 0.674,-0.205 0.092,0.049 0.162,0.122 0.207,0.208zm2.15 6.156l-2.591 -4.865 -2.574 4.831c-0.065,0.148 -0.2,0.261 -0.371,0.291l-5.425 0.961 3.817 3.958c0.107,0.107 0.165,0.261 0.143,0.422l-0.763 5.458 4.954 -2.412c0.133,-0.064 0.294,-0.07 0.438,0l4.954 2.412 -0.763 -5.458c-0.02,-0.146 0.024,-0.299 0.134,-0.414l3.825 -3.966 -5.424 -0.961c-0.146,-0.027 -0.279,-0.117 -0.354,-0.257z"/>
  </g>
 </g>
</svg>
