<?xml version="1.0" encoding="UTF-8"?>
<!DOCTYPE svg PUBLIC "-//W3C//DTD SVG 1.1//EN" "http://www.w3.org/Graphics/SVG/1.1/DTD/svg11.dtd">
<!-- Creator: CorelDRAW 2018 (64-Bit) -->
<svg xmlns="http://www.w3.org/2000/svg" xml:space="preserve" width="40px" height="32px" version="1.1" style="shape-rendering:geometricPrecision; text-rendering:geometricPrecision; image-rendering:optimizeQuality; fill-rule:evenodd; clip-rule:evenodd"
viewBox="0 0 40 32"
 xmlns:xlink="http://www.w3.org/1999/xlink">
 <defs>
  <style type="text/css">
   <![CDATA[
    .fil0 {fill:none}
    .fil1 {fill:#00F4FF;fill-rule:nonzero}
   ]]>
  </style>
 </defs>
 <g id="Layer_x0020_1">
  <metadata id="CorelCorpID_0Corel-Layer"/>
  <rect class="fil0" width="40" height="32"/>
  <g id="_2652406396224">
   <path class="fil1" d="M18.746 11.701c-0.552,0 -0.979,-0.292 -1.542,-0.678 -0.894,-0.612 -2.207,-1.511 -4.942,-1.511 -1.793,0 -3.566,1.454 -4.962,3.568 -1.549,2.345 -2.615,5.478 -2.749,8.38 -0.13,2.831 -0.029,4.996 0.422,6.435 0.398,1.268 1.081,1.926 2.147,1.926 1.23,-0.002 2.754,-1.561 4.142,-2.98 1.298,-1.329 2.492,-2.549 3.542,-2.549l10.392 0c1.05,0 2.244,1.22 3.542,2.549 1.388,1.419 2.912,2.978 4.142,2.978 1.066,0.002 1.749,-0.656 2.147,-1.924 0.451,-1.439 0.552,-3.604 0.422,-6.435 -0.134,-2.902 -1.2,-6.035 -2.749,-8.38 -1.396,-2.114 -3.169,-3.568 -4.962,-3.568 -2.735,0 -4.048,0.899 -4.942,1.511 -0.563,0.386 -0.99,0.678 -1.542,0.678l-2.508 0zm-0.979 -1.502c0.416,0.285 0.733,0.502 0.979,0.502l2.508 0c0.246,0 0.563,-0.217 0.979,-0.502 0.999,-0.684 2.464,-1.687 5.505,-1.687 2.161,0 4.221,1.637 5.794,4.018 1.641,2.485 2.771,5.807 2.913,8.887 0.136,2.943 0.023,5.218 -0.465,6.775 -0.542,1.728 -1.527,2.625 -3.1,2.625 -1.647,0.002 -3.327,-1.716 -4.857,-3.281 -1.143,-1.169 -2.193,-2.244 -2.827,-2.244l-10.392 0c-0.634,0 -1.684,1.075 -2.827,2.244 -1.53,1.565 -3.21,3.283 -4.857,3.283 -1.573,-0.002 -2.558,-0.898 -3.1,-2.627 -0.488,-1.557 -0.601,-3.832 -0.465,-6.775 0.142,-3.08 1.272,-6.402 2.913,-8.887 1.573,-2.381 3.633,-4.018 5.794,-4.018 3.041,0 4.506,1.003 5.505,1.687z"/>
   <path class="fil1" d="M24.549 13.471c0.494,0 0.942,0.201 1.266,0.525 0.323,0.323 0.524,0.771 0.524,1.266 0,0.493 -0.2,0.94 -0.524,1.264 -0.324,0.326 -0.772,0.527 -1.266,0.527 -0.492,0 -0.94,-0.201 -1.264,-0.525l-0.003 -0.003c-0.324,-0.325 -0.524,-0.772 -0.524,-1.263 0,-0.495 0.201,-0.943 0.525,-1.267 0.324,-0.324 0.771,-0.524 1.266,-0.524zm0.559 1.232c-0.143,-0.143 -0.341,-0.232 -0.559,-0.232 -0.219,0 -0.417,0.088 -0.559,0.231 -0.143,0.143 -0.232,0.341 -0.232,0.56 0,0.219 0.088,0.417 0.23,0.559 0.143,0.144 0.341,0.232 0.561,0.232 0.218,0 0.416,-0.089 0.559,-0.232 0.143,-0.142 0.231,-0.34 0.231,-0.559 0,-0.219 -0.088,-0.417 -0.231,-0.559z"/>
   <path class="fil1" d="M24.549 18.133c0.494,0 0.942,0.201 1.266,0.525 0.323,0.324 0.524,0.772 0.524,1.266 0,0.493 -0.201,0.94 -0.524,1.264 -0.324,0.326 -0.772,0.527 -1.266,0.527 -0.493,0 -0.941,-0.201 -1.265,-0.526 -0.325,-0.323 -0.526,-0.771 -0.526,-1.265 0,-0.494 0.201,-0.942 0.525,-1.266 0.324,-0.325 0.771,-0.525 1.266,-0.525zm0.559 1.232c-0.143,-0.143 -0.341,-0.232 -0.559,-0.232 -0.219,0 -0.417,0.089 -0.559,0.231 -0.143,0.143 -0.232,0.342 -0.232,0.56 0,0.219 0.089,0.416 0.232,0.559 0.141,0.144 0.339,0.232 0.559,0.232 0.218,0 0.416,-0.089 0.559,-0.232 0.143,-0.141 0.231,-0.34 0.231,-0.559 0,-0.218 -0.088,-0.416 -0.231,-0.559z"/>
   <path class="fil1" d="M29.352 13.471c0.494,0 0.942,0.2 1.266,0.524 0.324,0.324 0.525,0.772 0.525,1.267 0,0.494 -0.201,0.942 -0.525,1.266 -0.324,0.324 -0.772,0.525 -1.266,0.525 -0.495,0 -0.943,-0.201 -1.267,-0.525l-0.029 -0.032c-0.307,-0.322 -0.495,-0.757 -0.495,-1.234 0,-0.495 0.201,-0.943 0.524,-1.266 0.324,-0.324 0.772,-0.525 1.267,-0.525zm0.559 1.231c-0.143,-0.143 -0.341,-0.231 -0.559,-0.231 -0.219,0 -0.417,0.089 -0.56,0.232 -0.143,0.142 -0.231,0.34 -0.231,0.559 0,0.209 0.08,0.398 0.211,0.54l0.02 0.019c0.143,0.143 0.342,0.232 0.56,0.232 0.218,0 0.416,-0.089 0.559,-0.232 0.143,-0.143 0.231,-0.341 0.231,-0.559 0,-0.219 -0.088,-0.417 -0.231,-0.56z"/>
   <path class="fil1" d="M29.352 18.133c0.493,0 0.94,0.201 1.264,0.525 0.325,0.324 0.527,0.773 0.527,1.266 0,0.494 -0.201,0.942 -0.525,1.266 -0.324,0.324 -0.772,0.525 -1.266,0.525 -0.495,0 -0.943,-0.201 -1.267,-0.525 -0.323,-0.323 -0.524,-0.772 -0.524,-1.266 0,-0.494 0.201,-0.942 0.524,-1.266 0.324,-0.324 0.772,-0.525 1.267,-0.525zm0.561 1.231c-0.143,-0.142 -0.341,-0.231 -0.561,-0.231 -0.218,0 -0.417,0.089 -0.56,0.232 -0.143,0.143 -0.231,0.341 -0.231,0.559 0,0.218 0.088,0.416 0.231,0.559 0.143,0.143 0.341,0.232 0.56,0.232 0.218,0 0.416,-0.089 0.559,-0.232 0.143,-0.143 0.231,-0.34 0.231,-0.559 0,-0.22 -0.087,-0.418 -0.229,-0.56z"/>
   <path class="fil1" d="M12.078 13.001l1.697 0c0.203,0 0.388,0.085 0.522,0.219 0.135,0.133 0.218,0.319 0.218,0.523l0 2.261 2.262 0c0.205,0 0.39,0.083 0.524,0.217 0.134,0.134 0.217,0.32 0.217,0.524l0 1.696c0,0.204 -0.083,0.389 -0.217,0.523l-0.049 0.043c-0.129,0.109 -0.296,0.175 -0.475,0.175l-2.262 0 0 2.261c0,0.205 -0.083,0.39 -0.217,0.524 -0.134,0.134 -0.319,0.217 -0.523,0.217l-1.697 0c-0.202,0 -0.387,-0.084 -0.522,-0.217 -0.135,-0.134 -0.219,-0.319 -0.219,-0.524l0 -2.261 -2.261 0c-0.204,0 -0.39,-0.083 -0.524,-0.218 -0.134,-0.133 -0.218,-0.318 -0.218,-0.523l0 -1.696c0,-0.204 0.084,-0.39 0.218,-0.524l0.05 -0.044c0.128,-0.108 0.294,-0.173 0.474,-0.173l2.261 0 0 -2.261c0,-0.204 0.084,-0.39 0.217,-0.524l0.05 -0.044c0.129,-0.108 0.295,-0.174 0.474,-0.174zm1.437 1.001l-1.178 0 0 2.502c0,0.276 -0.224,0.5 -0.5,0.5l-2.502 0 0 1.178 2.502 0c0.276,0 0.5,0.223 0.5,0.5l0 2.502 1.178 0 0 -2.502c0,-0.277 0.224,-0.5 0.5,-0.5l2.503 0 0 -1.178 -2.503 0c-0.276,0 -0.5,-0.224 -0.5,-0.5l0 -2.502z"/>
  </g>
 </g>
</svg>
