<?xml version="1.0" encoding="UTF-8"?>
<!DOCTYPE svg PUBLIC "-//W3C//DTD SVG 1.1//EN" "http://www.w3.org/Graphics/SVG/1.1/DTD/svg11.dtd">
<!-- Creator: CorelDRAW 2018 (64-Bit) -->
<svg xmlns="http://www.w3.org/2000/svg" xml:space="preserve" width="40px" height="32px" version="1.1" style="shape-rendering:geometricPrecision; text-rendering:geometricPrecision; image-rendering:optimizeQuality; fill-rule:evenodd; clip-rule:evenodd"
viewBox="0 0 40 32"
 xmlns:xlink="http://www.w3.org/1999/xlink">
 <defs>
  <style type="text/css">
   <![CDATA[
    .fil0 {fill:none}
    .fil1 {fill:#00F4FF;fill-rule:nonzero}
   ]]>
  </style>
 </defs>
 <g id="Layer_x0020_1">
  <metadata id="CorelCorpID_0Corel-Layer"/>
  <rect class="fil0" width="40" height="32"/>
  <g id="_2652406381888">
   <path class="fil1" d="M29.267 15.221c1.545,0 2.945,0.626 3.958,1.639 1.013,1.013 1.639,2.413 1.639,3.958 0,1.545 -0.626,2.944 -1.639,3.957 -1.013,1.015 -2.413,1.641 -3.958,1.641 -1.545,0 -2.943,-0.626 -3.957,-1.639 -1.014,-1.015 -1.641,-2.414 -1.641,-3.959 0,-1.545 0.627,-2.945 1.639,-3.958l0.03 -0.027c1.011,-0.997 2.399,-1.612 3.929,-1.612zm3.251 2.346c-0.832,-0.831 -1.982,-1.346 -3.251,-1.346 -1.258,0 -2.399,0.504 -3.228,1.321l-0.024 0.025c-0.831,0.832 -1.346,1.982 -1.346,3.251 0,1.271 0.514,2.421 1.346,3.253 0.831,0.831 1.982,1.345 3.252,1.345 1.269,0 2.419,-0.515 3.251,-1.346 0.832,-0.831 1.346,-1.981 1.346,-3.252 0,-1.269 -0.514,-2.419 -1.346,-3.251z"/>
   <path class="fil1" d="M32.518 24.776c-0.195,-0.195 -0.195,-0.512 0,-0.707 0.195,-0.195 0.512,-0.195 0.707,0l4.056 4.057c0.195,0.195 0.195,0.512 0,0.707 -0.195,0.195 -0.512,0.195 -0.707,0l-4.056 -4.057z"/>
   <path class="fil1" d="M24.648 26.141c0.276,0 0.5,0.224 0.5,0.5 0,0.276 -0.224,0.5 -0.5,0.5l-19.317 0c-0.368,0 -0.705,-0.152 -0.948,-0.395 -0.245,-0.243 -0.397,-0.579 -0.397,-0.949l0 -17.634c0,-0.369 0.152,-0.705 0.396,-0.948 0.242,-0.245 0.579,-0.396 0.949,-0.396l28.09 0c0.368,0 0.704,0.152 0.947,0.394 0.246,0.244 0.398,0.581 0.398,0.95l0 6.405c0,0.276 -0.224,0.5 -0.501,0.5 -0.276,0 -0.5,-0.224 -0.5,-0.5l0 -6.405c0,-0.094 -0.039,-0.18 -0.102,-0.243 -0.061,-0.062 -0.147,-0.101 -0.242,-0.101l-28.09 0c-0.095,0 -0.181,0.039 -0.243,0.101 -0.063,0.061 -0.102,0.147 -0.102,0.243l0 17.634c0,0.094 0.04,0.18 0.102,0.242 0.061,0.063 0.148,0.102 0.243,0.102l19.317 0z"/>
   <path class="fil1" d="M8.597 11.742c0,-0.276 0.224,-0.5 0.5,-0.5 0.276,0 0.5,0.224 0.5,0.5l0 10.476c0,0.276 -0.224,0.5 -0.5,0.5 -0.276,0 -0.5,-0.224 -0.5,-0.5l0 -10.476z"/>
   <path class="fil1" d="M12.201 17.93c0,-0.276 0.224,-0.5 0.5,-0.5 0.276,0 0.5,0.224 0.5,0.5l0 4.288c0,0.276 -0.224,0.5 -0.5,0.5 -0.276,0 -0.5,-0.224 -0.5,-0.5l0 -4.288z"/>
   <path class="fil1" d="M15.806 13.643c0,-0.276 0.223,-0.5 0.5,-0.5 0.276,0 0.5,0.224 0.5,0.5l0 8.575c0,0.276 -0.224,0.5 -0.5,0.5 -0.277,0 -0.5,-0.224 -0.5,-0.5l0 -8.575z"/>
   <path class="fil1" d="M19.41 16.98c0,-0.276 0.224,-0.5 0.5,-0.5 0.276,0 0.5,0.224 0.5,0.5l0 5.238c0,0.276 -0.224,0.5 -0.5,0.5 -0.276,0 -0.5,-0.224 -0.5,-0.5l0 -5.238z"/>
   <path class="fil1" d="M12.873 30.819c-0.276,0 -0.5,-0.224 -0.5,-0.5 0,-0.276 0.224,-0.5 0.5,-0.5l13.005 0c0.276,0 0.5,0.224 0.5,0.5 0,0.276 -0.224,0.5 -0.5,0.5l-13.005 0z"/>
   <path class="fil1" d="M15.605 29.859c0,0.276 -0.224,0.5 -0.5,0.5 -0.277,0 -0.501,-0.224 -0.501,-0.5l0 -3.218c0,-0.276 0.224,-0.5 0.501,-0.5 0.276,0 0.5,0.224 0.5,0.5l0 3.218z"/>
   <path class="fil1" d="M24.147 29.859c0,0.276 -0.224,0.5 -0.5,0.5 -0.276,0 -0.5,-0.224 -0.5,-0.5l0 -3.218c0,-0.276 0.224,-0.5 0.5,-0.5 0.276,0 0.5,0.224 0.5,0.5l0 3.218z"/>
  </g>
 </g>
</svg>
