<?xml version="1.0" encoding="UTF-8"?>
<!DOCTYPE svg PUBLIC "-//W3C//DTD SVG 1.1//EN" "http://www.w3.org/Graphics/SVG/1.1/DTD/svg11.dtd">
<!-- Creator: CorelDRAW 2018 (64-Bit) -->
<svg xmlns="http://www.w3.org/2000/svg" xml:space="preserve" width="40px" height="32px" version="1.1" style="shape-rendering:geometricPrecision; text-rendering:geometricPrecision; image-rendering:optimizeQuality; fill-rule:evenodd; clip-rule:evenodd"
viewBox="0 0 40 32"
 xmlns:xlink="http://www.w3.org/1999/xlink">
 <defs>
  <style type="text/css">
   <![CDATA[
    .fil0 {fill:none}
    .fil2 {fill:#00F4FF}
    .fil1 {fill:#00F4FF;fill-rule:nonzero}
   ]]>
  </style>
 </defs>
 <g id="Layer_x0020_1">
  <metadata id="CorelCorpID_0Corel-Layer"/>
  <rect class="fil0" width="40" height="32"/>
  <g id="_2652527731664">
   <path class="fil1" d="M7.879 12.223l6.915 0c0.276,0 0.5,0.223 0.5,0.5l0 9.815c0,0.276 -0.224,0.5 -0.5,0.5l-1.436 0 2.497 7.117c0.091,0.259 -0.046,0.544 -0.306,0.634 -0.054,0.019 -0.11,0.028 -0.164,0.028l-4.003 0.002c-0.215,0 -0.398,-0.136 -0.469,-0.326l-3.489 -7.75c-0.03,-0.067 -0.044,-0.136 -0.044,-0.205l-0.001 -9.815c0,-0.277 0.224,-0.5 0.5,-0.5zm6.415 1l-5.915 0 0 9.21 3.325 7.386 2.977 0 -2.483 -7.076c-0.028,-0.063 -0.044,-0.132 -0.044,-0.205 0,-0.276 0.224,-0.5 0.5,-0.5l1.64 0 0 -8.815z"/>
   <path class="fil1" d="M5.428 20.676c0.276,0 0.5,0.224 0.5,0.5 0,0.276 -0.224,0.5 -0.5,0.5l-0.941 0c-0.172,0 -0.323,-0.087 -0.414,-0.219 -0.426,-0.525 -0.767,-1.124 -1,-1.774 -0.232,-0.646 -0.358,-1.337 -0.358,-2.053 0,-0.716 0.126,-1.407 0.357,-2.052 0.239,-0.665 0.591,-1.277 1.031,-1.81 0.098,-0.12 0.241,-0.181 0.384,-0.182l0.941 -0.002c0.276,0 0.5,0.224 0.5,0.5 0,0.276 -0.224,0.5 -0.5,0.5l-0.701 0c-0.302,0.402 -0.545,0.85 -0.717,1.33 -0.191,0.531 -0.295,1.109 -0.295,1.716 0,0.607 0.104,1.185 0.295,1.717 0.172,0.48 0.415,0.927 0.717,1.329l0.701 0z"/>
   <path class="fil1" d="M31.32 7.982l-16.026 5.104 0 9.089 16.026 5.104c0.245,-2.942 0.368,-6.289 0.368,-9.648 0,-3.36 -0.123,-6.707 -0.368,-9.649zm-16.676 4.266l16.947 -5.397c0.04,-0.015 0.082,-0.025 0.126,-0.029 0.274,-0.024 0.517,0.178 0.541,0.452 0.287,3.145 0.43,6.758 0.43,10.357 0,3.598 -0.143,7.211 -0.43,10.356 -0.003,0.035 -0.01,0.071 -0.021,0.105 -0.083,0.262 -0.363,0.407 -0.625,0.325l-16.923 -5.39c-0.225,-0.048 -0.395,-0.248 -0.395,-0.489l0 -9.815c0.002,-0.212 0.138,-0.408 0.35,-0.475z"/>
   <path class="fil1" d="M26.649 25.866c-0.031,0.274 -0.279,0.47 -0.552,0.439 -0.274,-0.031 -0.471,-0.279 -0.44,-0.553 0.281,-2.448 0.422,-5.282 0.422,-8.121 0,-2.84 -0.141,-5.674 -0.422,-8.122 -0.031,-0.274 0.166,-0.522 0.44,-0.553 0.273,-0.031 0.521,0.166 0.552,0.44 0.287,2.494 0.43,5.367 0.43,8.235 0,2.867 -0.143,5.74 -0.43,8.235z"/>
   <path class="fil1" d="M35.661 21.667c-0.191,0.199 -0.507,0.205 -0.705,0.014 -0.199,-0.191 -0.205,-0.506 -0.014,-0.705 0.424,-0.442 0.765,-0.965 0.997,-1.543 0.223,-0.554 0.346,-1.163 0.346,-1.802 0,-0.639 -0.123,-1.248 -0.346,-1.803 -0.232,-0.578 -0.573,-1.101 -0.997,-1.543 -0.191,-0.199 -0.185,-0.514 0.014,-0.705 0.198,-0.191 0.514,-0.185 0.705,0.014 0.512,0.533 0.924,1.165 1.204,1.863 0.271,0.674 0.42,1.408 0.42,2.174 0,0.765 -0.149,1.5 -0.42,2.173 -0.28,0.698 -0.692,1.33 -1.204,1.863z"/>
   <path class="fil2" d="M11.379 15.005c0.405,0 0.734,0.329 0.734,0.733 0,0.405 -0.329,0.734 -0.734,0.734 -0.405,0 -0.733,-0.329 -0.733,-0.734 0,-0.404 0.328,-0.733 0.733,-0.733z"/>
  </g>
 </g>
</svg>
