<?xml version="1.0" encoding="UTF-8"?>
<!DOCTYPE svg PUBLIC "-//W3C//DTD SVG 1.1//EN" "http://www.w3.org/Graphics/SVG/1.1/DTD/svg11.dtd">
<!-- Creator: CorelDRAW 2018 (64-Bit) -->
<svg xmlns="http://www.w3.org/2000/svg" xml:space="preserve" width="40px" height="32px" version="1.1" style="shape-rendering:geometricPrecision; text-rendering:geometricPrecision; image-rendering:optimizeQuality; fill-rule:evenodd; clip-rule:evenodd"
viewBox="0 0 40 32"
 xmlns:xlink="http://www.w3.org/1999/xlink">
 <defs>
  <style type="text/css">
   <![CDATA[
    .fil0 {fill:none}
    .fil1 {fill:white;fill-rule:nonzero}
   ]]>
  </style>
 </defs>
 <g id="Layer_x0020_1">
  <metadata id="CorelCorpID_0Corel-Layer"/>
  <rect class="fil0" width="40" height="32"/>
  <g id="_2615781950624">
   <path class="fil1" d="M25.737 17.753c-0.883,-1.65 -1.926,-3.122 -2.887,-4.478l-0.019 -0.029c-1.71,-2.414 -3.169,-4.482 -3.169,-6.73 0,-1.799 0.729,-3.428 1.908,-4.607 1.179,-1.179 2.809,-1.909 4.608,-1.909 1.796,0 3.425,0.73 4.605,1.909l0.003 0.003c1.179,1.18 1.908,2.808 1.908,4.604 0,2.256 -1.47,4.331 -3.188,6.756 -0.96,1.355 -2.001,2.824 -2.889,4.484 -0.129,0.242 -0.431,0.334 -0.674,0.205 -0.091,-0.049 -0.161,-0.122 -0.206,-0.208zm-2.074 -5.056c0.824,1.163 1.708,2.41 2.515,3.802 0.805,-1.387 1.69,-2.635 2.515,-3.801 1.618,-2.283 3.001,-4.235 3.001,-6.182 0,-1.524 -0.617,-2.904 -1.614,-3.9 -0.998,-0.999 -2.378,-1.616 -3.902,-1.616 -1.523,0 -2.903,0.618 -3.901,1.616 -0.997,0.997 -1.615,2.377 -1.615,3.9 0,1.939 1.372,3.884 2.981,6.155l0.02 0.026zm2.515 -10.314c1.139,0 2.172,0.463 2.92,1.211l0.004 0.003c0.747,0.749 1.209,1.781 1.209,2.92 0,1.139 -0.463,2.172 -1.212,2.921 -0.746,0.749 -1.78,1.211 -2.921,1.211 -1.141,0 -2.175,-0.463 -2.923,-1.21 -0.748,-0.748 -1.211,-1.782 -1.211,-2.922 0,-1.142 0.463,-2.175 1.211,-2.923l0.03 -0.027c0.745,-0.732 1.767,-1.184 2.893,-1.184zm2.216 1.917c-0.566,-0.566 -1.349,-0.917 -2.216,-0.917 -0.854,0 -1.628,0.341 -2.193,0.893l-0.023 0.025c-0.566,0.566 -0.918,1.35 -0.918,2.216 0,0.865 0.352,1.648 0.918,2.215 0.567,0.567 1.351,0.917 2.216,0.917 0.865,0 1.649,-0.351 2.215,-0.917 0.568,-0.566 0.918,-1.349 0.918,-2.215 0,-0.867 -0.35,-1.65 -0.917,-2.217z"/>
   <path class="fil1" d="M12.082 15.864c-0.128,-0.244 -0.033,-0.545 0.211,-0.672 0.243,-0.127 0.544,-0.033 0.671,0.211l0.12 0.228c0.395,-0.426 0.998,-1.007 1.715,-1.459 0.848,-0.535 1.932,-0.771 2.604,-0.873l-0.591 -1.927c-0.046,-0.153 -0.015,-0.311 0.071,-0.433l0.832 -1.172 -0.263 -0.222c-0.893,0.416 -3.678,1.814 -4.876,3.587 -0.722,1.069 -1.242,2.01 -1.393,2.962l-0.002 0.013c-0.142,0.923 0.062,1.899 0.766,3.083 0.017,-0.127 0.083,-0.249 0.194,-0.332l1.055 -0.795c0.172,-0.129 0.416,-0.137 0.597,-0.002l5.55 4.121c0.219,0.165 0.262,0.478 0.096,0.697l-0.711 0.934 -0.267 1.224c-0.036,0.16 -0.149,0.3 -0.314,0.362 -0.002,0 -0.666,0.278 -1.239,0.798 -0.413,0.376 -0.222,1.182 -0.216,1.204 0.023,0.083 0.024,0.173 0,0.263 -0.072,0.265 -0.346,0.421 -0.611,0.349 -0.004,-0.001 -1.145,-0.281 -1.854,-0.841 -0.375,-0.297 -0.709,-0.81 -0.996,-1.369 -0.273,-0.533 -0.501,-1.095 -0.677,-1.541 -0.322,-0.82 -1.827,-2.887 -1.831,-2.893 -0.081,-0.114 -0.115,-0.261 -0.08,-0.408l0.344 -1.437c-0.751,-1.326 -0.961,-2.464 -0.79,-3.567l0.002 -0.02c0.179,-1.132 0.755,-2.187 1.55,-3.364 1.544,-2.286 5.306,-3.948 5.571,-4.063 0.172,-0.081 0.383,-0.061 0.537,0.07l0.852 0.722c0.196,0.166 0.235,0.457 0.084,0.67l-0.956 1.345 0.685 2.234c0.017,0.047 0.028,0.097 0.031,0.148 0.015,0.275 -0.196,0.511 -0.471,0.526 -0.004,0 -1.648,0.094 -2.752,0.79 -1.112,0.702 -1.911,1.751 -1.946,1.797 -0.043,0.058 -0.1,0.108 -0.169,0.144 -0.243,0.127 -0.544,0.032 -0.672,-0.211l-0.461 -0.881zm-0.07 3.646l-0.347 1.459c0.388,0.544 1.514,2.153 1.819,2.93 0.171,0.435 0.392,0.978 0.634,1.451 0.23,0.449 0.481,0.846 0.726,1.04 0.231,0.183 0.542,0.331 0.821,0.441 0.023,-0.45 0.152,-0.99 0.571,-1.372 0.46,-0.418 0.991,-0.716 1.301,-0.871l0.237 -1.09c0.019,-0.089 0.062,-0.168 0.119,-0.231l0.448 -0.589 -4.842 -3.594 -0.757 0.57c-0.219,0.166 -0.533,0.122 -0.699,-0.097l-0.031 -0.047z"/>
   <path class="fil1" d="M21.53 15.829c0.131,-0.241 0.434,-0.33 0.675,-0.199 0.242,0.131 0.331,0.434 0.2,0.675l-0.393 0.72 0 1.56 1.485 1.323 1.635 -0.52c0.231,-0.073 0.476,0.031 0.587,0.237l0.896 1.646c0.068,0.125 0.077,0.267 0.036,0.392l-0.452 1.385 0.016 1.494c0.82,-0.91 1.994,-2.336 2.35,-3.393 0.205,-0.61 0.385,-1.34 0.489,-2.061 0.089,-0.614 0.121,-1.215 0.064,-1.717 -0.031,-0.274 0.165,-0.522 0.439,-0.553 0.274,-0.031 0.522,0.166 0.553,0.439 0.067,0.591 0.032,1.28 -0.067,1.972 -0.113,0.778 -0.309,1.57 -0.533,2.236 -0.642,1.907 -3.419,4.666 -3.427,4.673 -0.09,0.088 -0.213,0.144 -0.349,0.145 -0.275,0.002 -0.5,-0.219 -0.502,-0.494l-0.029 -2.786c-0.005,-0.062 0.003,-0.126 0.023,-0.189l0.411 -1.257 -0.596 -1.095 -1.477 0.47c-0.171,0.069 -0.374,0.041 -0.521,-0.09l-1.845 -1.644c-0.113,-0.092 -0.186,-0.232 -0.186,-0.39l0 -1.906c0.002,-0.081 0.022,-0.163 0.063,-0.238l0.455 -0.835z"/>
   <path class="fil1" d="M31.002 15.17c-0.077,-0.264 0.076,-0.541 0.34,-0.617 0.264,-0.077 0.54,0.076 0.617,0.34 0.166,0.569 0.293,1.151 0.377,1.743 0.084,0.588 0.127,1.184 0.127,1.786 0,3.473 -1.408,6.618 -3.684,8.894 -2.276,2.276 -5.421,3.684 -8.894,3.684 -3.473,0 -6.619,-1.408 -8.895,-3.684 -2.276,-2.276 -3.684,-5.421 -3.684,-8.894 0,-3.007 1.057,-5.77 2.821,-7.935 1.794,-2.205 4.322,-3.79 7.211,-4.384 0.27,-0.055 0.533,0.119 0.588,0.389 0.055,0.269 -0.119,0.533 -0.389,0.587 -2.658,0.547 -4.985,2.006 -6.637,4.036 -1.622,1.992 -2.594,4.535 -2.594,7.307 0,3.197 1.296,6.092 3.391,8.187 2.095,2.095 4.99,3.391 8.188,3.391 3.197,0 6.092,-1.296 8.187,-3.391 2.095,-2.095 3.391,-4.99 3.391,-8.187 0,-0.563 -0.039,-1.113 -0.115,-1.646 -0.078,-0.552 -0.195,-1.089 -0.346,-1.606z"/>
  </g>
 </g>
</svg>
