<?xml version="1.0" encoding="UTF-8"?>
<!DOCTYPE svg PUBLIC "-//W3C//DTD SVG 1.1//EN" "http://www.w3.org/Graphics/SVG/1.1/DTD/svg11.dtd">
<!-- Creator: CorelDRAW 2018 (64-Bit) -->
<svg xmlns="http://www.w3.org/2000/svg" xml:space="preserve" width="40px" height="32px" version="1.1" style="shape-rendering:geometricPrecision; text-rendering:geometricPrecision; image-rendering:optimizeQuality; fill-rule:evenodd; clip-rule:evenodd"
viewBox="0 0 40 32"
 xmlns:xlink="http://www.w3.org/1999/xlink">
 <defs>
  <style type="text/css">
   <![CDATA[
    .fil0 {fill:none}
    .fil1 {fill:white;fill-rule:nonzero}
   ]]>
  </style>
 </defs>
 <g id="Layer_x0020_1">
  <metadata id="CorelCorpID_0Corel-Layer"/>
  <rect class="fil0" width="40" height="32"/>
  <g id="_2616241565600">
   <path class="fil1" d="M30.229 25.602c0,-0.276 0.224,-0.5 0.5,-0.5 0.276,0 0.5,0.224 0.5,0.5l0 2.791c0,0.665 -0.274,1.272 -0.714,1.712 -0.438,0.441 -1.045,0.714 -1.711,0.714l-19.197 0c-0.667,0 -1.274,-0.273 -1.713,-0.712l-0.029 -0.032c-0.423,-0.437 -0.684,-1.031 -0.684,-1.682l0 -19.532c0,-0.276 0.224,-0.5 0.5,-0.5l21.123 0c0.665,0 1.271,0.273 1.711,0.712 0.441,0.442 0.714,1.048 0.714,1.713l0 2.792c0,0.276 -0.224,0.5 -0.5,0.5 -0.276,0 -0.5,-0.224 -0.5,-0.5l0 -2.792c0,-0.391 -0.161,-0.748 -0.418,-1.007 -0.258,-0.257 -0.616,-0.418 -1.007,-0.418l-20.623 0 0 19.032c0,0.382 0.152,0.73 0.396,0.985l0.024 0.022c0.258,0.258 0.615,0.419 1.006,0.419l19.197 0c0.391,0 0.747,-0.161 1.006,-0.42 0.259,-0.257 0.419,-0.613 0.419,-1.006l0 -2.791z"/>
   <path class="fil1" d="M31.229 7.669c0,0.276 -0.224,0.5 -0.5,0.5 -0.276,0 -0.5,-0.224 -0.5,-0.5 0,-0.19 -0.078,-0.363 -0.203,-0.489 -0.126,-0.125 -0.299,-0.203 -0.489,-0.203 -0.276,0 -0.5,-0.224 -0.5,-0.5 0,-0.276 0.224,-0.5 0.5,-0.5 0.465,0 0.889,0.19 1.196,0.496 0.306,0.306 0.496,0.73 0.496,1.196z"/>
   <polygon class="fil1" points="30.229,7.669 31.229,7.669 "/>
   <path class="fil1" d="M9.877 5.977c0.276,0 0.5,0.224 0.5,0.5 0,0.276 -0.224,0.5 -0.5,0.5l-1.003 0c-0.191,0 -0.365,0.078 -0.49,0.202 -0.124,0.127 -0.203,0.3 -0.203,0.49l0 1.192c0,0.276 -0.224,0.5 -0.5,0.5 -0.276,0 -0.5,-0.224 -0.5,-0.5l0 -1.192c0,-0.466 0.191,-0.89 0.497,-1.196 0.308,-0.306 0.731,-0.496 1.196,-0.496l1.003 0z"/>
   <path class="fil1" d="M31.524 16.911l-11.524 0c-0.741,0 -1.411,0.3 -1.894,0.783 -0.485,0.485 -0.785,1.155 -0.785,1.896 0,0.74 0.3,1.41 0.785,1.895l0.023 0.024c0.482,0.47 1.142,0.76 1.871,0.76l11.524 0c0.083,0 0.157,-0.033 0.21,-0.085 0.051,-0.054 0.085,-0.128 0.085,-0.21l0 -4.768c0,-0.082 -0.034,-0.156 -0.087,-0.209 -0.052,-0.052 -0.127,-0.086 -0.208,-0.086zm-11.524 -1l11.524 0c0.357,0 0.681,0.145 0.915,0.379 0.234,0.234 0.38,0.558 0.38,0.916l0 4.768c0,0.358 -0.145,0.682 -0.379,0.916 -0.237,0.234 -0.56,0.379 -0.916,0.379l-11.524 0c-0.999,0 -1.907,-0.4 -2.571,-1.05l-0.03 -0.028c-0.666,-0.665 -1.078,-1.585 -1.078,-2.601 0,-1.013 0.411,-1.931 1.077,-2.598l0.002 -0.002c0.667,-0.667 1.587,-1.079 2.6,-1.079z"/>
   <path class="fil1" d="M21.692 19.59c0,0.467 -0.19,0.891 -0.495,1.197 -0.306,0.305 -0.73,0.495 -1.197,0.495 -0.465,0 -0.888,-0.19 -1.195,-0.495 -0.307,-0.306 -0.497,-0.73 -0.497,-1.197 0,-0.465 0.19,-0.889 0.497,-1.195 0.304,-0.307 0.728,-0.497 1.195,-0.497 0.467,0 0.891,0.19 1.197,0.496 0.305,0.306 0.495,0.729 0.495,1.196zm-1.202 0.49c0.125,-0.125 0.202,-0.299 0.202,-0.49 0,-0.191 -0.077,-0.364 -0.202,-0.489 -0.125,-0.125 -0.299,-0.203 -0.49,-0.203 -0.191,0 -0.365,0.078 -0.49,0.203 -0.125,0.123 -0.202,0.297 -0.202,0.489 0,0.191 0.077,0.365 0.202,0.49 0.124,0.125 0.298,0.202 0.49,0.202 0.191,0 0.365,-0.077 0.49,-0.202z"/>
   <path class="fil1" d="M12.768 7.252c-0.274,0.026 -0.519,-0.174 -0.545,-0.448 -0.027,-0.273 0.173,-0.518 0.447,-0.544l14.632 -1.437c0.274,-0.027 0.519,0.173 0.545,0.447l0.161 1.247c0.035,0.273 -0.159,0.522 -0.431,0.556 -0.273,0.035 -0.523,-0.159 -0.557,-0.431l-0.101 -0.78 -14.151 1.39z"/>
  </g>
 </g>
</svg>
