<?xml version="1.0" encoding="UTF-8"?>
<!DOCTYPE svg PUBLIC "-//W3C//DTD SVG 1.1//EN" "http://www.w3.org/Graphics/SVG/1.1/DTD/svg11.dtd">
<!-- Creator: CorelDRAW 2018 (64-Bit) -->
<svg xmlns="http://www.w3.org/2000/svg" xml:space="preserve" width="40px" height="32px" version="1.1" style="shape-rendering:geometricPrecision; text-rendering:geometricPrecision; image-rendering:optimizeQuality; fill-rule:evenodd; clip-rule:evenodd"
viewBox="0 0 40 32"
 xmlns:xlink="http://www.w3.org/1999/xlink">
 <defs>
  <style type="text/css">
   <![CDATA[
    .fil0 {fill:none}
    .fil1 {fill:white;fill-rule:nonzero}
   ]]>
  </style>
 </defs>
 <g id="Layer_x0020_1">
  <metadata id="CorelCorpID_0Corel-Layer"/>
  <rect class="fil0" width="40" height="32"/>
  <g id="_2616241563456">
   <path class="fil1" d="M15.186 21.445c0,-0.276 0.224,-0.5 0.5,-0.5 0.276,0 0.5,0.224 0.5,0.5l0 8.786c0,0.277 -0.224,0.5 -0.5,0.5 -0.276,0 -0.5,-0.223 -0.5,-0.5l0 -8.786z"/>
   <path class="fil1" d="M13.449 24.874c-0.276,0 -0.5,-0.224 -0.5,-0.5 0,-0.276 0.224,-0.5 0.5,-0.5l0.746 0c0.276,0 0.5,0.224 0.5,0.5 0,0.276 -0.224,0.5 -0.5,0.5l-0.746 0z"/>
   <path class="fil1" d="M25.73 28.349c-0.195,0.195 -0.512,0.195 -0.707,0 -0.195,-0.195 -0.195,-0.512 0,-0.707l4.473 -4.473c0.195,-0.195 0.512,-0.195 0.707,0 0.195,0.195 0.195,0.512 0,0.707l-4.473 4.473z"/>
   <path class="fil1" d="M27.967 28.345c-0.195,0.195 -0.512,0.195 -0.707,0 -0.195,-0.195 -0.195,-0.512 0,-0.707l2.236 -2.236c0.195,-0.195 0.512,-0.195 0.707,0 0.195,0.195 0.195,0.512 0,0.707l-2.236 2.236z"/>
   <path class="fil1" d="M34.847 16.055c0,0.797 -0.323,1.519 -0.846,2.042 -0.522,0.525 -1.246,0.849 -2.044,0.849 -0.778,0 -1.417,-0.265 -1.91,-0.738 -0.169,-0.162 -0.319,-0.347 -0.45,-0.555 -0.112,0.174 -0.242,0.334 -0.389,0.478 -0.519,0.509 -1.237,0.815 -2.034,0.815 -0.799,-0.002 -1.521,-0.325 -2.044,-0.846 -0.128,-0.129 -0.245,-0.269 -0.347,-0.42 -0.103,0.151 -0.219,0.291 -0.347,0.419 -0.521,0.521 -1.243,0.844 -2.041,0.845l-0.003 0.002c-0.799,-0.002 -1.521,-0.325 -2.044,-0.847 -0.128,-0.128 -0.245,-0.269 -0.348,-0.42 -0.103,0.15 -0.219,0.291 -0.348,0.419 -0.519,0.522 -1.241,0.845 -2.039,0.846l-0.003 0.002c-0.799,-0.003 -1.522,-0.325 -2.043,-0.846 -0.129,-0.129 -0.246,-0.27 -0.349,-0.42 -0.102,0.149 -0.218,0.29 -0.346,0.417 -0.521,0.524 -1.243,0.846 -2.041,0.847l-0.005 0.002c-0.793,-0.003 -1.505,-0.3 -2.018,-0.795 -0.154,-0.149 -0.29,-0.314 -0.405,-0.495 -0.131,0.198 -0.28,0.379 -0.448,0.539 -0.496,0.469 -1.139,0.751 -1.908,0.751 -0.797,0 -1.521,-0.324 -2.045,-0.847 -0.524,-0.524 -0.849,-1.247 -0.849,-2.044 0,-0.075 0.017,-0.146 0.046,-0.21l2.521 -6.896c0.138,-0.378 0.315,-0.653 0.575,-0.845 0.267,-0.197 0.585,-0.285 0.998,-0.285l21.415 0c0.412,0 0.731,0.088 0.998,0.285 0.259,0.192 0.436,0.466 0.574,0.845l2.536 6.936c0.02,0.056 0.03,0.113 0.031,0.17zm-1.552 1.337c0.324,-0.323 0.531,-0.766 0.551,-1.258l-2.503 -6.846c-0.07,-0.191 -0.142,-0.318 -0.231,-0.383 -0.08,-0.059 -0.21,-0.086 -0.404,-0.086l-21.415 0c-0.194,0 -0.324,0.026 -0.405,0.086 -0.088,0.065 -0.161,0.192 -0.231,0.383l-2.502 6.846c0.02,0.492 0.227,0.935 0.55,1.258 0.343,0.342 0.818,0.554 1.342,0.554 0.498,0 0.908,-0.178 1.22,-0.474 0.353,-0.334 0.595,-0.824 0.708,-1.39 0.031,-0.246 0.241,-0.436 0.496,-0.436 0.276,0 0.5,0.224 0.5,0.5l0 0.003c0,0.519 0.2,0.966 0.528,1.283 0.334,0.322 0.801,0.515 1.327,0.516l0.003 -0.002c0.521,0.001 0.993,-0.211 1.336,-0.554 0.341,-0.339 0.553,-0.813 0.553,-1.335l1 -0.002c0,0.525 0.211,0.998 0.552,1.338 0.343,0.342 0.817,0.554 1.338,0.555l0.005 -0.002c0.519,0.001 0.991,-0.211 1.334,-0.554 0.341,-0.339 0.552,-0.811 0.552,-1.334l0 -0.003 1 0 0 0.069c0.017,0.495 0.225,0.942 0.552,1.268 0.344,0.343 0.818,0.556 1.339,0.556l0.005 -0.002c0.519,0.001 0.991,-0.211 1.334,-0.554 0.341,-0.341 0.552,-0.813 0.552,-1.335l1 -0.002c0,0.524 0.212,0.997 0.552,1.338 0.344,0.342 0.818,0.555 1.34,0.555 0.53,-0.002 1.001,-0.2 1.336,-0.528 0.328,-0.322 0.53,-0.774 0.53,-1.292 0.002,-0.232 0.165,-0.441 0.402,-0.488 0.27,-0.053 0.532,0.121 0.586,0.391 0.126,0.624 0.365,1.126 0.711,1.458 0.305,0.293 0.712,0.457 1.219,0.457 0.522,0 0.995,-0.212 1.338,-0.554z"/>
   <path class="fil1" d="M31.497 21.445c0,-0.276 0.224,-0.5 0.5,-0.5 0.277,0 0.5,0.224 0.5,0.5l0 8.046c0,0.364 -0.149,0.697 -0.39,0.937l-0.035 0.032c-0.238,0.222 -0.556,0.359 -0.903,0.359l-22.338 0c-0.363,0 -0.695,-0.15 -0.936,-0.39 -0.242,-0.243 -0.392,-0.574 -0.392,-0.938l0 -8.046c0,-0.276 0.224,-0.5 0.5,-0.5 0.276,0 0.5,0.224 0.5,0.5l0 8.046c0,0.09 0.037,0.172 0.096,0.232 0.059,0.059 0.142,0.096 0.232,0.096l22.338 0c0.082,0 0.157,-0.031 0.216,-0.081l0.015 -0.017c0.06,-0.059 0.097,-0.142 0.097,-0.23l0 -8.046z"/>
   <path class="fil1" d="M15.287 8.465c0.021,-0.275 0.261,-0.481 0.536,-0.461 0.275,0.02 0.481,0.26 0.46,0.535l-0.593 7.917c-0.021,0.274 -0.261,0.481 -0.536,0.46 -0.275,-0.02 -0.481,-0.26 -0.46,-0.535l0.593 -7.916z"/>
   <path class="fil1" d="M23.714 8.539c-0.021,-0.275 0.186,-0.515 0.461,-0.535 0.275,-0.02 0.514,0.186 0.535,0.461l0.594 7.916c0.02,0.275 -0.186,0.515 -0.461,0.535 -0.275,0.021 -0.515,-0.186 -0.535,-0.46l-0.594 -7.917z"/>
   <path class="fil1" d="M27.292 8.481c-0.06,-0.269 0.109,-0.535 0.377,-0.596 0.269,-0.06 0.535,0.108 0.596,0.377l1.796 7.917c0.061,0.268 -0.108,0.535 -0.376,0.595 -0.269,0.061 -0.536,-0.108 -0.596,-0.377l-1.797 -7.916z"/>
   <path class="fil1" d="M11.72 8.391c0.06,-0.268 0.327,-0.437 0.595,-0.376 0.269,0.06 0.437,0.327 0.377,0.595l-1.797 7.917c-0.06,0.268 -0.327,0.437 -0.596,0.377 -0.268,-0.061 -0.437,-0.327 -0.376,-0.596l1.797 -7.917z"/>
   <path class="fil1" d="M19.5 8.343c0,-0.276 0.224,-0.5 0.5,-0.5 0.276,0 0.5,0.224 0.5,0.5l0 8.187c0,0.276 -0.224,0.5 -0.5,0.5 -0.276,0 -0.5,-0.224 -0.5,-0.5l0 -8.187z"/>
  </g>
 </g>
</svg>
