<?xml version="1.0" encoding="UTF-8"?>
<!DOCTYPE svg PUBLIC "-//W3C//DTD SVG 1.1//EN" "http://www.w3.org/Graphics/SVG/1.1/DTD/svg11.dtd">
<!-- Creator: CorelDRAW 2018 (64-Bit) -->
<svg xmlns="http://www.w3.org/2000/svg" xml:space="preserve" width="40px" height="32px" version="1.1" style="shape-rendering:geometricPrecision; text-rendering:geometricPrecision; image-rendering:optimizeQuality; fill-rule:evenodd; clip-rule:evenodd"
viewBox="0 0 40 32"
 xmlns:xlink="http://www.w3.org/1999/xlink">
 <defs>
  <style type="text/css">
   <![CDATA[
    .fil0 {fill:none}
    .fil1 {fill:white;fill-rule:nonzero}
   ]]>
  </style>
 </defs>
 <g id="Layer_x0020_1">
  <metadata id="CorelCorpID_0Corel-Layer"/>
  <rect class="fil0" width="40" height="32"/>
  <g id="_2616241569632">
   <path class="fil1" d="M0.899 30.819c-0.277,0 -0.5,-0.224 -0.5,-0.501 0,-0.276 0.223,-0.5 0.5,-0.5l8.488 0c0.276,0 0.5,0.224 0.5,0.5 0,0.277 -0.224,0.501 -0.5,0.501l-8.488 0z"/>
   <path class="fil1" d="M10.885 17.392c0.238,-0.139 0.544,-0.057 0.682,0.181 0.138,0.238 0.056,0.543 -0.182,0.681l-2.436 1.407c-0.238,0.138 -0.544,0.057 -0.682,-0.181 -0.138,-0.238 -0.056,-0.544 0.182,-0.682l2.436 -1.406z"/>
   <path class="fil1" d="M10.948 17.266c-0.357,-0.529 -0.764,-0.97 -1.153,-1.267 -0.376,-0.287 -0.689,-0.43 -0.837,-0.345l-1.049 0.604c-0.144,0.084 -0.178,0.421 -0.121,0.881 0.061,0.49 0.24,1.07 0.522,1.65l2.638 -1.523zm-0.547 -2.059c0.585,0.447 1.196,1.152 1.674,1.98l0.001 0.003c0.137,0.238 0.055,0.543 -0.183,0.68l-3.532 2.04c-0.238,0.138 -0.543,0.056 -0.681,-0.182 -0.485,-0.839 -0.793,-1.732 -0.884,-2.467 -0.106,-0.859 0.083,-1.559 0.613,-1.865l1.049 -0.605c0.536,-0.31 1.245,-0.117 1.943,0.416z"/>
   <path class="fil1" d="M8.146 25.932l-0.181 -0.312c-0.759,-1.316 -1.102,-2.72 -1.043,-3.923 0.062,-1.266 0.566,-2.325 1.497,-2.88l2.466 -1.425c0.951,-0.548 2.134,-0.459 3.273,0.126 1.063,0.546 2.101,1.535 2.859,2.836l0.198 0.341c0.137,0.24 0.055,0.544 -0.183,0.681l-8.205 4.738c-0.238,0.138 -0.543,0.057 -0.681,-0.182zm0.615 -0.931l7.342 -4.238c-0.654,-1.087 -1.519,-1.907 -2.398,-2.359 -0.842,-0.432 -1.684,-0.517 -2.321,-0.15l-2.46 1.42c-0.621,0.372 -0.961,1.136 -1.006,2.07 -0.049,0.988 0.229,2.148 0.843,3.257z"/>
   <path class="fil1" d="M1.931 20.926c-0.257,0 -0.49,0.104 -0.659,0.272l-0.021 0.02c-0.155,0.167 -0.251,0.392 -0.251,0.639 0,0.257 0.104,0.49 0.272,0.658 0.169,0.168 0.402,0.272 0.659,0.272 0.257,0 0.491,-0.104 0.659,-0.271 0.168,-0.168 0.272,-0.402 0.272,-0.659 0,-0.259 -0.104,-0.491 -0.271,-0.658 -0.169,-0.169 -0.402,-0.273 -0.66,-0.273zm-1.365 -0.434c0.348,-0.349 0.832,-0.566 1.365,-0.566 0.53,0 1.012,0.216 1.362,0.565l0.002 0.002c0.35,0.351 0.567,0.834 0.567,1.364 0,0.531 -0.217,1.013 -0.566,1.363 -0.351,0.351 -0.834,0.567 -1.365,0.567 -0.533,0 -1.017,-0.216 -1.365,-0.565 -0.349,-0.349 -0.566,-0.832 -0.566,-1.365 0,-0.517 0.204,-0.986 0.536,-1.333l0.03 -0.032z"/>
   <path class="fil1" d="M7.216 17.683c0.236,-0.143 0.543,-0.066 0.686,0.17 0.142,0.236 0.066,0.543 -0.17,0.685l-4.532 2.735c-0.236,0.142 -0.543,0.066 -0.685,-0.17 -0.143,-0.236 -0.066,-0.543 0.17,-0.686l4.531 -2.734z"/>
   <path class="fil1" d="M2.208 23.415c-0.097,-0.258 0.033,-0.546 0.29,-0.643 0.258,-0.097 0.546,0.033 0.643,0.291l2.663 7.08c0.097,0.257 -0.033,0.545 -0.291,0.642 -0.257,0.097 -0.545,-0.033 -0.642,-0.291l-2.663 -7.079z"/>
   <path class="fil1" d="M12.2 14.009c0,0.277 -0.224,0.501 -0.5,0.501 -0.277,0 -0.501,-0.224 -0.501,-0.501l0 -5.244c0,-0.407 0.167,-0.777 0.434,-1.044l0.034 -0.032c0.266,-0.249 0.622,-0.402 1.011,-0.402l23.983 0c0.407,0 0.777,0.166 1.044,0.434 0.268,0.267 0.434,0.638 0.434,1.044l0 16.488c0,0.406 -0.166,0.776 -0.434,1.044 -0.268,0.267 -0.638,0.434 -1.044,0.434l-23.983 0c-0.276,0 -0.5,-0.224 -0.5,-0.5 0,-0.276 0.224,-0.5 0.5,-0.5l23.983 0c0.13,0 0.25,-0.055 0.337,-0.141 0.087,-0.087 0.141,-0.207 0.141,-0.337l0 -16.488c0,-0.131 -0.054,-0.251 -0.141,-0.337 -0.087,-0.087 -0.206,-0.141 -0.337,-0.141l-23.983 0c-0.123,0 -0.236,0.047 -0.32,0.122l-0.018 0.018c-0.086,0.087 -0.14,0.207 -0.14,0.338l0 5.244z"/>
   <path class="fil1" d="M18.737 30.819c-0.276,0 -0.5,-0.224 -0.5,-0.5 0,-0.276 0.224,-0.5 0.5,-0.5l11.864 0c0.276,0 0.5,0.224 0.5,0.5 0,0.276 -0.224,0.5 -0.5,0.5l-11.864 0z"/>
   <path class="fil1" d="M20.773 25.85l7.76 0c0.276,0 0.5,0.224 0.5,0.5l0 3.969c0,0.276 -0.224,0.5 -0.5,0.5l-7.76 0c-0.276,0 -0.5,-0.224 -0.5,-0.5l0 -3.969c0,-0.276 0.224,-0.5 0.5,-0.5zm7.26 1l-6.76 0 0 2.969 6.76 0 0 -2.969z"/>
  </g>
 </g>
</svg>
