<?xml version="1.0" encoding="UTF-8"?>
<!DOCTYPE svg PUBLIC "-//W3C//DTD SVG 1.1//EN" "http://www.w3.org/Graphics/SVG/1.1/DTD/svg11.dtd">
<!-- Creator: CorelDRAW 2018 (64-Bit) -->
<svg xmlns="http://www.w3.org/2000/svg" xml:space="preserve" width="40px" height="32px" version="1.1" style="shape-rendering:geometricPrecision; text-rendering:geometricPrecision; image-rendering:optimizeQuality; fill-rule:evenodd; clip-rule:evenodd"
viewBox="0 0 40 32"
 xmlns:xlink="http://www.w3.org/1999/xlink">
 <defs>
  <style type="text/css">
   <![CDATA[
    .fil0 {fill:none}
    .fil1 {fill:white;fill-rule:nonzero}
   ]]>
  </style>
 </defs>
 <g id="Layer_x0020_1">
  <metadata id="CorelCorpID_0Corel-Layer"/>
  <rect class="fil0" width="40" height="32"/>
  <g id="_2652532086064">
   <path class="fil1" d="M6.001 15.701l-0.001 -2.763c0,-0.776 0.33,-1.482 0.859,-1.992 0.524,-0.506 1.246,-0.82 2.039,-0.82l22.204 0c0.793,0 1.515,0.314 2.039,0.819 0.53,0.511 0.859,1.217 0.859,1.993l0 2.83c0,0.231 -0.157,0.426 -0.37,0.483 -1.834,0.685 -3.596,1.352 -5.331,2.008 -1.611,0.61 -3.196,1.209 -5.203,1.958l-0.447 0.176c-0.78,0.307 -1.466,0.579 -2.649,0.579 -1.182,0 -1.869,-0.271 -2.647,-0.579l-0.45 -0.176c-1.893,-0.706 -3.509,-1.334 -5.154,-1.973 -1.708,-0.663 -3.448,-1.339 -5.423,-2.076 -0.2,-0.075 -0.324,-0.265 -0.325,-0.467zm0.999 -2.763l0 2.419c1.914,0.717 3.525,1.343 5.108,1.957 1.679,0.652 3.328,1.293 5.143,1.97l0.47 0.179c0.683,0.271 1.286,0.509 2.279,0.509 0.993,0 1.597,-0.239 2.282,-0.509l0.467 -0.179c1.74,-0.649 3.45,-1.296 5.199,-1.958 1.516,-0.573 3.066,-1.16 5.052,-1.902l0 -2.486c0,-0.496 -0.211,-0.947 -0.55,-1.274 -0.345,-0.332 -0.822,-0.538 -1.348,-0.538l-22.204 0c-0.526,0 -1.003,0.206 -1.348,0.538 -0.339,0.327 -0.55,0.778 -0.55,1.274z"/>
   <path class="fil1" d="M32.513 19.292c0,-0.276 0.224,-0.5 0.5,-0.5 0.276,0 0.5,0.224 0.5,0.5l0 8.715c0,0.772 -0.317,1.475 -0.826,1.984 -0.511,0.511 -1.214,0.828 -1.986,0.828l-21.402 0c-0.773,0 -1.477,-0.317 -1.986,-0.826 -0.509,-0.509 -0.826,-1.212 -0.826,-1.986l0 -8.782c0,-0.276 0.224,-0.5 0.5,-0.5 0.277,0 0.5,0.224 0.5,0.5l0 8.782c0,0.498 0.205,0.951 0.533,1.279 0.328,0.328 0.782,0.533 1.279,0.533l21.402 0c0.498,0 0.952,-0.204 1.28,-0.532 0.328,-0.328 0.532,-0.782 0.532,-1.28l0 -8.715z"/>
   <path class="fil1" d="M22.363 19.876c0,-0.276 0.224,-0.5 0.5,-0.5 0.276,0 0.5,0.224 0.5,0.5l0 3.656c0,0.276 -0.224,0.5 -0.5,0.5l-5.726 0c-0.276,0 -0.5,-0.224 -0.5,-0.5l0 -3.656c0,-0.276 0.224,-0.5 0.5,-0.5 0.276,0 0.5,0.224 0.5,0.5l0 3.156 4.726 0 0 -3.156z"/>
   <path class="fil1" d="M14.809 9.105c0,0.276 -0.224,0.5 -0.5,0.5 -0.276,0 -0.5,-0.224 -0.5,-0.5 0,-0.904 0.37,-1.726 0.965,-2.321l0.03 -0.028c0.593,-0.579 1.403,-0.937 2.291,-0.937l5.809 0c0.901,0 1.723,0.369 2.319,0.965l0.003 0.003c0.595,0.596 0.964,1.417 0.964,2.318 0,0.276 -0.224,0.5 -0.5,0.5 -0.276,0 -0.5,-0.224 -0.5,-0.5 0,-0.63 -0.257,-1.201 -0.67,-1.614 -0.415,-0.415 -0.986,-0.672 -1.616,-0.672l-5.809 0c-0.618,0 -1.18,0.247 -1.591,0.647l-0.023 0.025c-0.414,0.414 -0.672,0.986 -0.672,1.614z"/>
  </g>
 </g>
</svg>
