<?xml version="1.0" encoding="UTF-8"?>
<!DOCTYPE svg PUBLIC "-//W3C//DTD SVG 1.1//EN" "http://www.w3.org/Graphics/SVG/1.1/DTD/svg11.dtd">
<!-- Creator: CorelDRAW 2018 (64-Bit) -->
<svg xmlns="http://www.w3.org/2000/svg" xml:space="preserve" width="40px" height="32px" version="1.1" style="shape-rendering:geometricPrecision; text-rendering:geometricPrecision; image-rendering:optimizeQuality; fill-rule:evenodd; clip-rule:evenodd"
viewBox="0 0 40 32"
 xmlns:xlink="http://www.w3.org/1999/xlink">
 <defs>
  <style type="text/css">
   <![CDATA[
    .fil0 {fill:none}
    .fil2 {fill:#00F4FF}
    .fil1 {fill:#00F4FF;fill-rule:nonzero}
   ]]>
  </style>
 </defs>
 <g id="Layer_x0020_1">
  <metadata id="CorelCorpID_0Corel-Layer"/>
  <rect class="fil0" width="40" height="32"/>
  <g id="_2652535370768">
   <path class="fil1" d="M27.465 13.973c2.562,0 4.889,0.798 6.58,2.086 1.727,1.318 2.797,3.15 2.797,5.183 0,1.157 -0.349,2.251 -0.971,3.225 -0.583,0.914 -1.407,1.718 -2.407,2.363l0.278 3.45c0.021,0.275 -0.184,0.516 -0.459,0.537 -0.151,0.012 -0.293,-0.045 -0.392,-0.145l-2.52 -2.519c-0.415,0.104 -0.845,0.188 -1.283,0.247 -0.534,0.072 -1.078,0.109 -1.623,0.109 -2.562,0 -4.889,-0.797 -6.579,-2.086 -1.728,-1.317 -2.797,-3.149 -2.797,-5.181 0,-2.033 1.069,-3.865 2.797,-5.183 1.69,-1.288 4.017,-2.086 6.579,-2.086zm5.974 2.879c-1.522,-1.161 -3.634,-1.879 -5.974,-1.879 -2.34,0 -4.452,0.718 -5.974,1.879 -1.484,1.131 -2.402,2.685 -2.402,4.39 0,1.705 0.918,3.257 2.402,4.389 1.522,1.16 3.634,1.878 5.974,1.878 0.515,0 1.014,-0.033 1.49,-0.097 0.48,-0.065 0.948,-0.161 1.397,-0.285 0.177,-0.064 0.382,-0.025 0.524,0.116l1.761 1.762 -0.193 -2.398c-0.013,-0.183 0.074,-0.367 0.242,-0.467 0.989,-0.592 1.795,-1.347 2.345,-2.208 0.519,-0.813 0.811,-1.726 0.811,-2.69 0,-1.705 -0.919,-3.258 -2.403,-4.39z"/>
   <circle class="fil2" cx="23.423" cy="21.266" r="1.04"/>
   <circle class="fil2" cx="27.465" cy="21.266" r="1.04"/>
   <circle class="fil2" cx="31.507" cy="21.266" r="1.04"/>
   <path class="fil1" d="M10.726 5.053c0.276,0 0.5,0.223 0.5,0.5 0,0.276 -0.224,0.5 -0.5,0.5l-4.052 0c-0.041,0 -0.08,0.017 -0.107,0.045 -0.028,0.028 -0.046,0.067 -0.046,0.108l0 19.708c0,0.041 0.018,0.08 0.046,0.108 0.028,0.027 0.066,0.045 0.107,0.045l11.01 0c0.276,0 0.5,0.224 0.5,0.5 0,0.276 -0.224,0.5 -0.5,0.5l-11.01 0c-0.317,0 -0.606,-0.13 -0.814,-0.338 -0.209,-0.209 -0.339,-0.499 -0.339,-0.815l0 -19.708c0,-0.317 0.13,-0.606 0.339,-0.815 0.208,-0.208 0.497,-0.338 0.814,-0.338l4.052 0zm18.845 5.853c0,0.276 -0.224,0.5 -0.5,0.5 -0.276,0 -0.5,-0.224 -0.5,-0.5l0 -4.7c0,-0.041 -0.018,-0.079 -0.046,-0.107 -0.029,-0.029 -0.067,-0.046 -0.107,-0.046l-2.725 0c-0.277,0 -0.5,-0.224 -0.5,-0.5 0,-0.277 0.223,-0.5 0.5,-0.5l2.725 0c0.315,0 0.604,0.13 0.814,0.339 0.208,0.209 0.339,0.497 0.339,0.814l0 4.7z"/>
   <path class="fil1" d="M22.735 5.053c0.276,0 0.5,0.223 0.5,0.5 0,0.276 -0.224,0.5 -0.5,0.5l-2.051 0c-0.276,0 -0.5,-0.224 -0.5,-0.5 0,-0.277 0.224,-0.5 0.5,-0.5l2.051 0z"/>
   <path class="fil1" d="M16.727 5.053c0.276,0 0.5,0.223 0.5,0.5 0,0.276 -0.224,0.5 -0.5,0.5l-1.988 0c-0.276,0 -0.5,-0.224 -0.5,-0.5 0,-0.277 0.224,-0.5 0.5,-0.5l1.988 0z"/>
   <path class="fil1" d="M23.555 3.876c-0.089,0 -0.169,0.035 -0.226,0.092 -0.058,0.058 -0.094,0.138 -0.094,0.227l0 2.716c0,0.088 0.036,0.168 0.092,0.224 0.059,0.059 0.139,0.095 0.227,0.095 0.089,0 0.169,-0.036 0.225,-0.093 0.059,-0.058 0.095,-0.138 0.095,-0.226l0 -2.716c0,-0.089 -0.036,-0.169 -0.093,-0.225 -0.058,-0.059 -0.138,-0.094 -0.226,-0.094zm-0.001 -1c0.361,0 0.69,0.148 0.93,0.386l0.002 0.003c0.239,0.239 0.388,0.569 0.388,0.93l0 2.716c0,0.36 -0.148,0.689 -0.387,0.929l-0.003 0.002c-0.239,0.239 -0.569,0.388 -0.929,0.388 -0.361,0 -0.691,-0.148 -0.93,-0.387l-0.003 -0.003c-0.239,-0.239 -0.387,-0.569 -0.387,-0.929l0 -2.716c0,-0.361 0.148,-0.69 0.387,-0.929l0.002 -0.003c0.24,-0.239 0.569,-0.387 0.93,-0.387z"/>
   <path class="fil1" d="M17.546 3.876c-0.089,0 -0.169,0.035 -0.225,0.092 -0.059,0.058 -0.094,0.138 -0.094,0.227l0 2.716c0,0.088 0.035,0.168 0.092,0.224 0.058,0.059 0.138,0.095 0.226,0.095 0.089,0 0.169,-0.036 0.226,-0.093 0.058,-0.058 0.094,-0.138 0.094,-0.226l0 -2.716c0,-0.089 -0.036,-0.169 -0.092,-0.225 -0.059,-0.059 -0.139,-0.094 -0.227,-0.094zm-0.001 -1c0.361,0 0.691,0.148 0.93,0.386l0.003 0.003c0.239,0.239 0.387,0.569 0.387,0.93l0 2.716c0,0.36 -0.148,0.689 -0.386,0.929l-0.003 0.002c-0.239,0.239 -0.57,0.388 -0.93,0.388 -0.361,0 -0.69,-0.148 -0.929,-0.387l-0.003 -0.003c-0.239,-0.239 -0.388,-0.569 -0.388,-0.929l0 -2.716c0,-0.361 0.148,-0.69 0.387,-0.929l0.003 -0.003c0.239,-0.239 0.569,-0.387 0.929,-0.387z"/>
   <path class="fil1" d="M11.545 3.876c-0.089,0 -0.169,0.035 -0.225,0.092 -0.059,0.058 -0.094,0.138 -0.094,0.227l0 2.716c0,0.088 0.035,0.168 0.092,0.224 0.058,0.059 0.138,0.095 0.227,0.095 0.089,0 0.169,-0.036 0.225,-0.093 0.059,-0.058 0.094,-0.138 0.094,-0.226l0 -2.716c0,-0.089 -0.035,-0.169 -0.092,-0.225 -0.058,-0.059 -0.138,-0.094 -0.227,-0.094zm0 -1c0.36,0 0.69,0.148 0.929,0.386l0.003 0.003c0.239,0.239 0.387,0.569 0.387,0.93l0 2.716c0,0.36 -0.148,0.689 -0.386,0.929l-0.003 0.002c-0.239,0.239 -0.569,0.388 -0.93,0.388 -0.361,0 -0.69,-0.148 -0.929,-0.387l-0.003 -0.003c-0.239,-0.239 -0.387,-0.569 -0.387,-0.929l0 -2.716c0,-0.361 0.148,-0.69 0.386,-0.929l0.003 -0.003c0.239,-0.239 0.569,-0.387 0.93,-0.387z"/>
   <path class="fil1" d="M10.125 12.126l2.001 0c0.214,0 0.41,0.087 0.551,0.228 0.141,0.141 0.229,0.337 0.229,0.552l0 2.001c0,0.215 -0.088,0.41 -0.229,0.551 -0.141,0.141 -0.337,0.229 -0.551,0.229l-2.001 0c-0.215,0 -0.411,-0.088 -0.551,-0.229 -0.141,-0.141 -0.229,-0.336 -0.229,-0.551l0 -2.001c0,-0.215 0.088,-0.411 0.229,-0.552 0.14,-0.141 0.336,-0.228 0.551,-0.228zm1.781 1l-1.561 0 0 1.561 1.561 0 0 -1.561z"/>
   <path class="fil1" d="M16.545 12.126l2.001 0c0.215,0 0.411,0.087 0.552,0.228 0.141,0.141 0.228,0.337 0.228,0.552l0 2.001c0,0.215 -0.087,0.41 -0.228,0.551 -0.141,0.141 -0.337,0.229 -0.552,0.229l-2.001 0c-0.214,0 -0.41,-0.088 -0.551,-0.229 -0.141,-0.141 -0.229,-0.336 -0.229,-0.551l0 -2.001c0,-0.215 0.088,-0.411 0.229,-0.552 0.141,-0.141 0.337,-0.228 0.551,-0.228zm1.781 1l-1.561 0 0 1.561 1.561 0 0 -1.561z"/>
   <path class="fil1" d="M10.125 18.676l2.001 0c0.214,0 0.41,0.088 0.551,0.228 0.141,0.141 0.229,0.337 0.229,0.552l0 2.001c0,0.215 -0.088,0.41 -0.229,0.551 -0.141,0.141 -0.337,0.229 -0.551,0.229l-2.001 0c-0.215,0 -0.411,-0.088 -0.551,-0.229 -0.141,-0.141 -0.229,-0.336 -0.229,-0.551l0 -2.001c0,-0.215 0.088,-0.411 0.229,-0.552 0.14,-0.14 0.336,-0.228 0.551,-0.228zm1.781 1l-1.561 0 0 1.561 1.561 0 0 -1.561z"/>
  </g>
 </g>
</svg>
