<?xml version="1.0" encoding="UTF-8"?>
<!DOCTYPE svg PUBLIC "-//W3C//DTD SVG 1.1//EN" "http://www.w3.org/Graphics/SVG/1.1/DTD/svg11.dtd">
<!-- Creator: CorelDRAW 2018 (64-Bit) -->
<svg xmlns="http://www.w3.org/2000/svg" xml:space="preserve" width="40px" height="32px" version="1.1" style="shape-rendering:geometricPrecision; text-rendering:geometricPrecision; image-rendering:optimizeQuality; fill-rule:evenodd; clip-rule:evenodd"
viewBox="0 0 40 32"
 xmlns:xlink="http://www.w3.org/1999/xlink">
 <defs>
  <style type="text/css">
   <![CDATA[
    .fil0 {fill:none}
    .fil1 {fill:white;fill-rule:nonzero}
   ]]>
  </style>
 </defs>
 <g id="Layer_x0020_1">
  <metadata id="CorelCorpID_0Corel-Layer"/>
  <rect class="fil0" width="40" height="32"/>
  <g id="_2652527716912">
   <path class="fil1" d="M18.691 2.873c0.346,-0.2 0.834,-0.301 1.309,-0.301 0.475,0 0.963,0.101 1.309,0.301l10.006 5.784c0.345,0.199 0.675,0.572 0.912,0.983l0.017 0.031c0.229,0.407 0.38,0.866 0.38,1.252l0 11.545c0,0.396 -0.158,0.867 -0.397,1.281 -0.237,0.414 -0.567,0.786 -0.912,0.985l-10.006 5.784c-0.346,0.2 -0.834,0.301 -1.309,0.301 -0.475,0 -0.963,-0.101 -1.309,-0.301l-10.006 -5.784c-0.345,-0.199 -0.675,-0.571 -0.912,-0.983l-0.017 -0.03c-0.229,-0.408 -0.38,-0.866 -0.38,-1.253l0 -11.545c0,-0.395 0.158,-0.867 0.397,-1.281 0.237,-0.413 0.567,-0.786 0.912,-0.985l10.006 -5.784zm1.309 0.7c-0.316,0 -0.62,0.054 -0.809,0.163l-10.006 5.785c-0.191,0.11 -0.391,0.346 -0.549,0.619 -0.157,0.271 -0.26,0.561 -0.26,0.783l0 11.545c0,0.215 0.097,0.496 0.245,0.759l0.015 0.024c0.158,0.273 0.358,0.509 0.549,0.619l10.006 5.785c0.189,0.109 0.493,0.164 0.809,0.164 0.316,0 0.62,-0.055 0.809,-0.164l10.006 -5.785c0.191,-0.11 0.391,-0.346 0.549,-0.619 0.157,-0.27 0.26,-0.561 0.26,-0.783l0 -11.545c0,-0.215 -0.097,-0.495 -0.246,-0.759l-0.014 -0.024c-0.158,-0.273 -0.358,-0.509 -0.549,-0.619l-10.006 -5.785c-0.189,-0.109 -0.493,-0.163 -0.809,-0.163z"/>
   <polygon class="fil1" points="31.581,24.195 8.419,24.195 8.419,23.195 31.581,23.195 "/>
   <polygon class="fil1" points="20.657,2.836 32.331,23.055 31.467,23.556 19.793,3.336 "/>
   <polygon class="fil1" points="7.666,23.06 19.346,2.831 20.209,3.331 8.53,23.56 "/>
   <polygon class="fil1" points="19.5,30.214 19.5,3.177 20.5,3.177 20.5,30.214 "/>
   <polygon class="fil1" points="8.052,23.018 31.447,9.51 31.947,10.374 8.552,23.881 "/>
   <polygon class="fil1" points="8.457,9.455 32.043,23.072 31.542,23.936 7.957,10.319 "/>
  </g>
 </g>
</svg>
