<svg xmlns="http://www.w3.org/2000/svg" width="53.066" height="23.122" viewBox="0 0 53.066 23.122">
  <g id="Commercial" transform="translate(0.5 0.5)">
    <path id="Path_764" data-name="Path 764" d="M51.324,12.283h-.742V6.291a2.986,2.986,0,0,0-.115-.811l-1-3.416A2.875,2.875,0,0,0,46.7,0H17.846a5.752,5.752,0,0,0-3.824,1.455L9.054,5.88a3.681,3.681,0,0,1-1.883.891L2.731,7.932A1.485,1.485,0,0,0,1.481,9.4v2.582H.742A.739.739,0,0,0,0,12.717V17.05a.742.742,0,0,0,.742.742H51.324c.408,0,.742-.529.742-1.179V13.458C52.066,12.809,51.732,12.283,51.324,12.283Z" transform="translate(0 0)" fill="none" stroke="gray" stroke-width="1"/>
    <path id="Path_765" data-name="Path 765" d="M114.98,61.88" transform="translate(-81.922 -44.089)" fill="none" stroke="#263238" stroke-linecap="round" stroke-linejoin="round" stroke-miterlimit="10" stroke-width="2"/>
    <path id="Path_769" data-name="Path 769" d="M0,9.261" transform="translate(26.721 5.655)" fill="#37474f" stroke="gray" stroke-linecap="round" stroke-width="2"/>
    <g id="Group_375" data-name="Group 375" transform="translate(11.209 1.15)">
      <path id="Path_766" data-name="Path 766" d="M39.275,8.73a.289.289,0,0,1-.193-.5l3.436-3.062A4.6,4.6,0,0,1,45.578,4H54.5V8.727H39.275Z" transform="translate(-38.987 -4)" fill="none" stroke="gray" stroke-width="1"/>
    </g>
    <g id="Group_376" data-name="Group 376" transform="translate(1.479 10.046)">
      <path id="Path_767" data-name="Path 767" d="M5.66,37.885V36.16H6.666a1.824,1.824,0,0,1,1.576,1.725Z" transform="translate(-5.516 -36.016)" fill="none" stroke="gray" stroke-width="0.5"/>
      <path id="Path_768" data-name="Path 768" d="M6.31,35.948a1.668,1.668,0,0,1,1.412,1.438H5.448V35.948H6.31m0-.288H5.16v2.013H8.035A1.994,1.994,0,0,0,6.31,35.66Z" transform="translate(-5.16 -35.66)" fill="none" stroke="gray" stroke-width="0.5"/>
    </g>
    <rect id="Rectangle_179" data-name="Rectangle 179" width="0.863" height="3.163" transform="translate(49.57 6.023)" fill="#fafafa" stroke="gray" stroke-width="1"/>
    <line id="Line_72" data-name="Line 72" x2="0.043" y2="4.493" transform="translate(16.486 1.387)" fill="none" stroke="gray" stroke-linecap="round" stroke-linejoin="round" stroke-miterlimit="10" stroke-width="1"/>
    <line id="Line_65_1_" x1="2.511" stroke-width="1" transform="translate(23.621 8.316)" stroke="gray" stroke-linecap="round" stroke-linejoin="round" stroke-miterlimit="10" fill="none"/>
    <g id="Group_419" data-name="Group 419" transform="translate(6.986 11.643)">
      <ellipse id="Ellipse_32" data-name="Ellipse 32" cx="4.99" cy="4.99" rx="4.99" ry="4.99" transform="translate(0 0)" fill="#fff" stroke="#fff" stroke-linecap="round" stroke-linejoin="round" stroke-miterlimit="10" stroke-width="2"/>
      <circle id="Ellipse_33" data-name="Ellipse 33" cx="3.992" cy="3.992" r="3.992" transform="translate(0.333 8.138) rotate(-76.714)" fill="#fff" stroke="#707070" stroke-width="1"/>
    </g>
    <g id="Group_420" data-name="Group 420" transform="translate(36.259 11.643)">
      <ellipse id="Ellipse_32-2" data-name="Ellipse 32" cx="4.99" cy="4.99" rx="4.99" ry="4.99" transform="translate(0 0)" fill="#fff" stroke="#fff" stroke-linecap="round" stroke-linejoin="round" stroke-miterlimit="10" stroke-width="2"/>
      <circle id="Ellipse_33-2" data-name="Ellipse 33" cx="3.992" cy="3.992" r="3.992" transform="translate(0.333 8.138) rotate(-76.714)" fill="#fff" stroke="#707070" stroke-width="1"/>
    </g>
  </g>
</svg>
