<svg xmlns="http://www.w3.org/2000/svg" width="62.571" height="25.783" viewBox="0 0 62.571 25.783">
  <g id="Group_1438" data-name="Group 1438" transform="translate(-373.501 -855.501)">
    <path id="Path_739_1_" d="M32.585,8a.405.405,0,0,1-.436-.378.4.4,0,0,1,.186-.372C34.786,5.594,38.5,2.724,44.26,2.724c0,0,16.258-1.121,20.022,3.16.261.3.174.732-.221.749Z" transform="translate(360.527 854.916)" fill="none" stroke="gray" stroke-linecap="round" stroke-width="1"/>
    <g id="Group_356_2_" transform="translate(374 868.544)">
      <path id="Path_740_2_" d="M.262,1.594A2.61,2.61,0,0,1,.471.3C.494.27.512.27.517.27h3.41a.246.246,0,0,1,.227.157A.3.3,0,0,1,4.1.758l-.7.755a.235.235,0,0,1-.174.081Z" transform="translate(-0.101 -0.113)" fill="none" stroke="gray" stroke-linecap="round" stroke-width="0.5"/>
      <path id="Path_741_2_" d="M.479.3h0m3.34.023A.087.087,0,0,1,3.9.383.141.141,0,0,1,3.877.54l-.7.755a.071.071,0,0,1-.058.029H.311a2.793,2.793,0,0,1,.145-1H3.819m0-.319H.409C-.079,0,0,1.644,0,1.644H3.116a.4.4,0,0,0,.29-.128L4.1.761A.456.456,0,0,0,4.08.122.4.4,0,0,0,3.819,0Z" transform="translate(0.007)" fill="none" stroke="gray" stroke-linecap="round" stroke-width="0.5"/>
    </g>
    <g id="Group_357_2_" transform="translate(430.653 863.677)">
      <path id="Path_742_2_" d="M.932,4.057A.662.662,0,0,1,.27,3.4a.867.867,0,0,1,.012-.122,3.25,3.25,0,0,1,2.945-3V4.051L.932,4.057Z" transform="translate(-0.111 -0.113)" fill="none" stroke="gray" stroke-linecap="round" stroke-width="0.5"/>
      <path id="Path_743_2_" d="M2.955.331V3.787H.818a.5.5,0,0,1-.494-.592C.556,1.952,1.207.494,2.955.331M3.269,0C.969,0,.243,1.917.01,3.137A.828.828,0,0,0,.667,4.1a.662.662,0,0,0,.151.012H3.269V0Z" transform="translate(0.003)" fill="none" stroke="gray" stroke-linecap="round" stroke-width="0.5"/>
    </g>
    <line id="Line_64_1_" y2="4.763" stroke-width="1" transform="translate(404.502 857.64)" stroke="gray" stroke-linecap="round" stroke-linejoin="round" stroke-miterlimit="10" fill="none"/>
    <line id="Line_65_1_" x1="2.341" stroke-width="1" transform="translate(400.982 864.93)" stroke="gray" stroke-linecap="round" stroke-linejoin="round" stroke-miterlimit="10" fill="none"/>
    <line id="Line_68_1_" x1="2.341" stroke-width="1" transform="translate(417.92 864.471)" stroke="gray" stroke-linecap="round" stroke-linejoin="round" stroke-miterlimit="10" fill="none"/>
    <line id="Line_66_1_" x1="0.029" y2="2.498" stroke-width="1" transform="translate(421.841 859.023)" stroke="gray" stroke-linecap="round" stroke-linejoin="round" stroke-miterlimit="10" fill="none"/>
    <line id="Line_67_1_" y2="1.987" stroke-width="1" transform="translate(394.808 860.852)" stroke="gray" stroke-linecap="round" stroke-linejoin="round" stroke-miterlimit="10" fill="none"/>
    <path id="Path_738" data-name="Path 738" d="M20.22,39.32" transform="translate(365.526 839.521)" fill="none" stroke="gray" stroke-linecap="round" stroke-miterlimit="10" stroke-width="1"/>
    <path id="Path_739" data-name="Path 739" d="M52.014,19.573c3.282-.006,4.968.017,5.45,0a6.02,6.02,0,0,0,4.107-1.789V13.259a1.637,1.637,0,0,0-1.644-1.638v-5.3a.818.818,0,0,0-.819-.819H55.483a1.65,1.65,0,0,1-1.127-.424C48.484-.263,40.695,0,30.785,0,24.373,0,18.791,3.832,16.653,5.5a8.106,8.106,0,0,1-2.265,1.26A92.172,92.172,0,0,1,4.107,10.018C0,10.826,0,13.3,0,13.3V17.93H0a1.637,1.637,0,0,0,1.644,1.638H7.283" transform="translate(374.001 856.004)" fill="none" stroke="gray" stroke-linecap="round" stroke-miterlimit="10" stroke-width="1"/>
    <path id="Path_740" data-name="Path 740" d="M88.65,33.75" transform="translate(336.844 841.856)" fill="none" stroke="gray" stroke-linecap="round" stroke-miterlimit="10" stroke-width="1"/>
    <path id="Path_741" data-name="Path 741" d="M88.28,35.15" transform="translate(336.999 841.269)" fill="none" stroke="gray" stroke-linecap="round" stroke-miterlimit="10" stroke-width="1"/>
    <path id="Path_743" data-name="Path 743" d="M82.22,39.32" transform="translate(339.539 839.521)" fill="none" stroke="gray" stroke-linecap="round" stroke-miterlimit="10" stroke-width="1"/>
    <path id="Path_744" data-name="Path 744" d="M26.65,34.078h30.9" transform="translate(363.409 841.516)" fill="none" stroke="gray" stroke-linecap="round" stroke-miterlimit="10" stroke-width="1"/>
    <path id="Path_745" data-name="Path 745" d="M26.65,33.73" transform="translate(362.831 841.864)" fill="none" stroke="gray" stroke-linecap="round" stroke-miterlimit="10" stroke-width="1"/>
    <path id="Path_746" data-name="Path 746" d="M26.47,34.59" transform="translate(362.907 841.504)" fill="none" stroke="gray" stroke-linecap="round" stroke-miterlimit="10" stroke-width="1"/>
    <path id="Path_747" data-name="Path 747" d="M26.26,35.21" transform="translate(362.995 841.244)" fill="none" stroke="gray" stroke-linecap="round" stroke-miterlimit="10" stroke-width="1"/>
    <path id="Path_748" data-name="Path 748" d="M25.6,36.46" transform="translate(363.271 840.72)" fill="none" stroke="gray" stroke-linecap="round" stroke-miterlimit="10" stroke-width="1"/>
    <g id="Group_362" data-name="Group 362" transform="translate(381.651 870.304)">
      <ellipse id="Ellipse_32" data-name="Ellipse 32" cx="4.99" cy="4.99" rx="4.99" ry="4.99" transform="translate(0 0)" fill="#fff" stroke="#fff" stroke-linecap="round" stroke-linejoin="round" stroke-miterlimit="10" stroke-width="2"/>
      <circle id="Ellipse_33" data-name="Ellipse 33" cx="3.992" cy="3.992" r="3.992" transform="translate(0.333 8.138) rotate(-76.714)" fill="#fff" stroke="#707070" stroke-width="1"/>
    </g>
    <g id="Group_412" data-name="Group 412" transform="translate(420.904 870.304)">
      <ellipse id="Ellipse_32-2" data-name="Ellipse 32" cx="4.99" cy="4.99" rx="4.99" ry="4.99" transform="translate(0 0)" fill="#fff" stroke="#fff" stroke-linecap="round" stroke-linejoin="round" stroke-miterlimit="10" stroke-width="2"/>
      <circle id="Ellipse_33-2" data-name="Ellipse 33" cx="3.992" cy="3.992" r="3.992" transform="translate(0.333 8.138) rotate(-76.714)" fill="#fff" stroke="#707070" stroke-width="1"/>
    </g>
  </g>
</svg>
