<svg xmlns="http://www.w3.org/2000/svg" width="45.567" height="21.792" viewBox="0 0 45.567 21.792">
  <g id="Van" transform="translate(0.5 0.5)">
    <g id="Group_394" data-name="Group 394">
      <path id="Path_799" data-name="Path 799" d="M1.372,16.457A1.372,1.372,0,0,1,0,15.085V14.4S0,8.856,7.364,7.691a10.376,10.376,0,0,0,5.159-2.33C15.1,3.149,19.558,0,24,0H37.711c6.856,0,6.856,7.476,6.856,7.476v7.609A1.372,1.372,0,0,1,43.2,16.457Z" fill="none" stroke="gray" stroke-width="1"/>
      <path id="Path_800" data-name="Path 800" d="M51.86,11.263a.686.686,0,0,1-.42-1.229C54.2,7.918,58.411,5.16,61.559,5.16H75.274c5.167,0,5.143,5.239,5.143,5.239a.687.687,0,0,1-.662.867Z" transform="translate(-37.563 -3.788)" fill="none" stroke="gray" stroke-width="1"/>
      <line id="Line_77" data-name="Line 77" y2="5.988" transform="translate(23.999 1.372)" fill="none" stroke="gray" stroke-linecap="round" stroke-linejoin="round" stroke-miterlimit="10" stroke-width="1"/>
      <line id="Line_79" data-name="Line 79" y2="2.713" transform="translate(15.93 4.763)" fill="none" stroke="gray" stroke-linecap="round" stroke-linejoin="round" stroke-miterlimit="10" stroke-width="1"/>
      <line id="Line_80" data-name="Line 80" y2="5.988" transform="translate(37.711 1.372)" fill="none" stroke="gray" stroke-linecap="round" stroke-linejoin="round" stroke-miterlimit="10" stroke-width="1"/>
    </g>
    <g id="Group_395" data-name="Group 395" transform="translate(0.487 10.97)">
      <path id="Path_801" data-name="Path 801" d="M2.56,42.856a5.907,5.907,0,0,1,.646-1.106h.963a.553.553,0,0,1,0,1.106Z" transform="translate(-2.366 -41.617)" fill="none" stroke="gray" stroke-width="0.5"/>
      <path id="Path_802" data-name="Path 802" d="M3.633,41.516a.42.42,0,0,1,0,.84h-1.4a5.954,5.954,0,0,1,.508-.84h.894m0-.266H2.6a5.654,5.654,0,0,0-.774,1.372h1.8a.686.686,0,0,0,0-1.372Z" transform="translate(-1.83 -41.25)" fill="none" stroke="gray" stroke-width="0.5"/>
    </g>
    <g id="Group_397" data-name="Group 397" transform="translate(43.195 8.915)">
      <path id="Path_803" data-name="Path 803" d="M163.473,37.182a.553.553,0,0,1-.553-.553V34.573a.553.553,0,0,1,.553-.553h.553v3.162h-.553Z" transform="translate(-162.787 -33.887)" fill="none" stroke="gray" stroke-width="0.5"/>
      <g id="Group_396" data-name="Group 396">
        <path id="Path_804" data-name="Path 804" d="M163.526,33.786v2.9h-.42a.421.421,0,0,1-.42-.42V34.206a.421.421,0,0,1,.42-.42h.42m.266-.266h-.686a.686.686,0,0,0-.686.686v2.056a.686.686,0,0,0,.686.686h.686V33.52Z" transform="translate(-162.42 -33.52)" fill="none" stroke="gray" stroke-width="0.5"/>
      </g>
    </g>
    <line id="Line_65_1_" x1="2.511" stroke-width="1" transform="translate(20.294 8.928)" stroke="gray" stroke-linecap="round" stroke-linejoin="round" stroke-miterlimit="10" fill="none"/>
    <line id="Line_65_1_2" data-name="Line_65_1_" x1="2.511" transform="translate(34.266 8.928)" fill="none" stroke="gray" stroke-linecap="round" stroke-linejoin="round" stroke-miterlimit="10" stroke-width="1"/>
    <g id="Group_423" data-name="Group 423" transform="translate(4.99 10.312)">
      <ellipse id="Ellipse_32" data-name="Ellipse 32" cx="4.99" cy="4.99" rx="4.99" ry="4.99" transform="translate(0 0)" fill="#fff" stroke="#fff" stroke-linecap="round" stroke-linejoin="round" stroke-miterlimit="10" stroke-width="2"/>
      <circle id="Ellipse_33" data-name="Ellipse 33" cx="3.992" cy="3.992" r="3.992" transform="translate(0.333 8.138) rotate(-76.714)" fill="#fff" stroke="#707070" stroke-width="1"/>
    </g>
    <g id="Group_424" data-name="Group 424" transform="translate(30.937 10.312)">
      <ellipse id="Ellipse_32-2" data-name="Ellipse 32" cx="4.99" cy="4.99" rx="4.99" ry="4.99" transform="translate(0 0)" fill="#fff" stroke="#fff" stroke-linecap="round" stroke-linejoin="round" stroke-miterlimit="10" stroke-width="2"/>
      <circle id="Ellipse_33-2" data-name="Ellipse 33" cx="3.992" cy="3.992" r="3.992" transform="translate(0.333 8.138) rotate(-76.714)" fill="#fff" stroke="#707070" stroke-width="1"/>
    </g>
  </g>
</svg>
