<?xml version="1.0" encoding="UTF-8"?>
<!DOCTYPE svg PUBLIC "-//W3C//DTD SVG 1.1//EN" "http://www.w3.org/Graphics/SVG/1.1/DTD/svg11.dtd">
<!-- Creator: CorelDRAW 2018 (64-Bit) -->
<svg xmlns="http://www.w3.org/2000/svg" xml:space="preserve" width="40px" height="40px" version="1.1" style="shape-rendering:geometricPrecision; text-rendering:geometricPrecision; image-rendering:optimizeQuality; fill-rule:evenodd; clip-rule:evenodd"
viewBox="0 0 1.456 1.456"
 xmlns:xlink="http://www.w3.org/1999/xlink">
 <defs>
  <style type="text/css">
   <![CDATA[
    .fil0 {fill:none}
    .fil4 {fill:#00F4FF}
    .fil1 {fill:#EAEDF2}
    .fil3 {fill:white}
    .fil2 {fill:gray;fill-rule:nonzero}
   ]]>
  </style>
 </defs>
 <g id="Layer_x0020_1">
  <metadata id="CorelCorpID_0Corel-Layer"/>
  <g id="_1539861335392">
   <rect class="fil0" width="1.456" height="1.456"/>
   <path class="fil1" d="M0.237 0.182l0.806 0c0.011,0 0.02,0.009 0.02,0.02l0 0.947c0,0.01 -0.009,0.019 -0.02,0.019l-0.806 0c-0.011,0 -0.02,-0.009 -0.02,-0.019l0 -0.947c0,-0.011 0.009,-0.02 0.02,-0.02z"/>
   <path class="fil2" d="M0.237 0.164l0.806 0c0.01,0 0.02,0.004 0.027,0.011 0.006,0.007 0.011,0.016 0.011,0.027l0 0.947c0,0.01 -0.005,0.019 -0.011,0.026 -0.007,0.007 -0.017,0.011 -0.027,0.011l-0.806 0c-0.01,0 -0.02,-0.004 -0.027,-0.011 -0.007,-0.007 -0.011,-0.016 -0.011,-0.026l0 -0.947c0,-0.011 0.004,-0.02 0.011,-0.027 0.007,-0.007 0.016,-0.011 0.027,-0.011zm0.806 0.036l-0.806 0c0,0 -0.001,0 -0.001,0.001 0,0 -0.001,0 -0.001,0.001l0 0.947c0,0 0.001,0 0.001,0.001 0,0 0,0 0.001,0l0.806 0c0,0 0.001,0 0.001,0 0,-0.001 0,-0.001 0,-0.001l0 -0.947c0,-0.001 0,-0.001 0,-0.001 0,-0.001 -0.001,-0.001 -0.001,-0.001z"/>
   <path class="fil3" d="M0.413 0.288l0.806 0c0.011,0 0.02,0.009 0.02,0.019l0 0.947c0,0.011 -0.009,0.02 -0.02,0.02l-0.806 0c-0.011,0 -0.02,-0.009 -0.02,-0.02l0 -0.947c0,-0.01 0.009,-0.019 0.02,-0.019z"/>
   <path class="fil2" d="M0.413 0.269l0.806 0c0.01,0 0.02,0.005 0.027,0.012 0.007,0.006 0.011,0.016 0.011,0.026l0 0.947c0,0.011 -0.004,0.02 -0.011,0.027 -0.007,0.007 -0.017,0.011 -0.027,0.011l-0.806 0c-0.01,0 -0.02,-0.004 -0.027,-0.011 -0.007,-0.007 -0.011,-0.016 -0.011,-0.027l0 -0.947c0,-0.01 0.004,-0.02 0.011,-0.026 0.007,-0.007 0.017,-0.012 0.027,-0.012zm0.806 0.037l-0.806 0c0,0 -0.001,0 -0.001,0 0,0.001 0,0.001 0,0.001l0 0.947c0,0.001 0,0.001 0,0.001 0,0 0.001,0.001 0.001,0.001l0.806 0c0,0 0.001,-0.001 0.001,-0.001 0,0 0,0 0,-0.001l0 -0.947c0,0 0,0 0,-0.001 0,0 -0.001,0 -0.001,0z"/>
   <path class="fil2" d="M0.545 0.617c-0.01,0 -0.018,-0.008 -0.018,-0.018 0,-0.01 0.008,-0.018 0.018,-0.018l0.542 0c0.01,0 0.018,0.008 0.018,0.018 0,0.01 -0.008,0.018 -0.018,0.018l-0.542 0z"/>
   <path class="fil2" d="M0.693 0.479c-0.01,0 -0.018,-0.008 -0.018,-0.018 0,-0.01 0.008,-0.018 0.018,-0.018l0.246 0c0.01,0 0.018,0.008 0.018,0.018 0,0.01 -0.008,0.018 -0.018,0.018l-0.246 0z"/>
   <path class="fil2" d="M0.545 0.755c-0.01,0 -0.018,-0.008 -0.018,-0.018 0,-0.01 0.008,-0.018 0.018,-0.018l0.542 0c0.01,0 0.018,0.008 0.018,0.018 0,0.01 -0.008,0.018 -0.018,0.018l-0.542 0z"/>
   <path class="fil2" d="M0.545 0.893c-0.01,0 -0.018,-0.008 -0.018,-0.019 0,-0.01 0.008,-0.018 0.018,-0.018l0.245 0c0.01,0 0.018,0.008 0.018,0.018 0,0.011 -0.008,0.019 -0.018,0.019l-0.245 0z"/>
   <path class="fil4" d="M0.987 0.877c0.081,0 0.146,0.065 0.146,0.145 0,0.081 -0.065,0.146 -0.146,0.146 -0.08,0 -0.146,-0.065 -0.146,-0.146 0,-0.08 0.066,-0.145 0.146,-0.145z"/>
   <path class="fil2" d="M0.987 0.859c0.045,0 0.086,0.018 0.116,0.048 0.03,0.029 0.048,0.07 0.048,0.115 0,0.046 -0.018,0.087 -0.048,0.116 -0.03,0.03 -0.071,0.048 -0.116,0.048 -0.045,0 -0.086,-0.018 -0.116,-0.048 -0.029,-0.029 -0.048,-0.07 -0.048,-0.116 0,-0.045 0.019,-0.086 0.048,-0.115 0.03,-0.03 0.071,-0.048 0.116,-0.048zm0.09 0.073c-0.023,-0.023 -0.055,-0.037 -0.09,-0.037 -0.035,0 -0.067,0.014 -0.09,0.037 -0.023,0.023 -0.037,0.055 -0.037,0.09 0,0.036 0.014,0.068 0.037,0.091 0.023,0.023 0.055,0.037 0.09,0.037 0.035,0 0.067,-0.014 0.09,-0.037 0.024,-0.023 0.038,-0.055 0.038,-0.091 0,-0.035 -0.014,-0.067 -0.038,-0.09z"/>
   <path class="fil2" d="M0.905 1.034c-0.007,-0.007 -0.007,-0.019 0,-0.026 0.007,-0.007 0.019,-0.007 0.026,0l0.047 0.047 0.076 -0.077c0.008,-0.007 0.019,-0.007 0.026,0 0.007,0.007 0.007,0.019 0,0.026l-0.089 0.089c-0.008,0.008 -0.019,0.008 -0.026,0l-0.06 -0.059z"/>
  </g>
 </g>
</svg>
