<?xml version="1.0" encoding="UTF-8"?>
<!DOCTYPE svg PUBLIC "-//W3C//DTD SVG 1.1//EN" "http://www.w3.org/Graphics/SVG/1.1/DTD/svg11.dtd">
<!-- Creator: CorelDRAW 2018 (64-Bit) -->
<svg xmlns="http://www.w3.org/2000/svg" xml:space="preserve" width="40px" height="40px" version="1.1" style="shape-rendering:geometricPrecision; text-rendering:geometricPrecision; image-rendering:optimizeQuality; fill-rule:evenodd; clip-rule:evenodd"
viewBox="0 0 1.456 1.456"
 xmlns:xlink="http://www.w3.org/1999/xlink">
 <defs>
  <style type="text/css">
   <![CDATA[
    .fil0 {fill:none}
    .fil4 {fill:#00F4FF}
    .fil5 {fill:#EAEDF2}
    .fil3 {fill:white}
    .fil2 {fill:gray;fill-rule:nonzero}
    .fil1 {fill:white;fill-rule:nonzero}
   ]]>
  </style>
 </defs>
 <g id="Layer_x0020_1">
  <metadata id="CorelCorpID_0Corel-Layer"/>
  <g id="_1539869133008">
   <rect class="fil0" width="1.456" height="1.456"/>
   <g>
    <path class="fil1" d="M1.02 0.922c0.065,0 0.118,0.052 0.118,0.118 0,0.065 -0.053,0.118 -0.118,0.118 -0.065,0 -0.118,-0.053 -0.118,-0.118 0,-0.066 0.053,-0.118 0.118,-0.118z"/>
    <path class="fil2" d="M1.02 0.903c0.038,0 0.072,0.015 0.097,0.04l0.001 0.001c0.024,0.025 0.039,0.058 0.039,0.096 0,0.038 -0.015,0.072 -0.04,0.097 -0.025,0.025 -0.059,0.04 -0.097,0.04 -0.038,0 -0.072,-0.015 -0.097,-0.04 -0.025,-0.025 -0.04,-0.059 -0.04,-0.097 0,-0.038 0.015,-0.072 0.04,-0.097 0.025,-0.025 0.059,-0.04 0.097,-0.04zm0.07 0.067c-0.018,-0.018 -0.043,-0.029 -0.07,-0.029 -0.027,0 -0.052,0.011 -0.07,0.029 -0.018,0.018 -0.029,0.042 -0.029,0.07 0,0.027 0.011,0.052 0.029,0.07 0.018,0.018 0.043,0.029 0.07,0.029 0.027,0 0.052,-0.011 0.07,-0.029 0.018,-0.018 0.029,-0.043 0.029,-0.07 0,-0.027 -0.011,-0.052 -0.028,-0.069l-0.001 -0.001z"/>
    <path class="fil2" d="M0.524 0.202c-0.002,-0.009 0.004,-0.019 0.013,-0.022 0.01,-0.003 0.02,0.003 0.023,0.013l0.269 1.004c0.002,0.01 -0.004,0.02 -0.013,0.022 -0.01,0.003 -0.02,-0.003 -0.023,-0.013l-0.269 -1.004z"/>
    <path class="fil3" d="M0.156 0.819c-0.059,-0.221 0.124,-0.461 0.408,-0.538 0.285,-0.076 0.564,0.041 0.623,0.262 0.011,0.04 -0.211,0.134 -0.496,0.21 -0.285,0.077 -0.524,0.106 -0.535,0.066z"/>
    <path class="fil2" d="M0.138 0.824c-0.031,-0.116 0.002,-0.237 0.079,-0.339 0.076,-0.1 0.196,-0.182 0.343,-0.221 0.146,-0.039 0.291,-0.029 0.407,0.02 0.118,0.049 0.207,0.138 0.238,0.254 0.008,0.03 -0.049,0.071 -0.148,0.113 -0.091,0.039 -0.218,0.082 -0.361,0.12 -0.144,0.038 -0.276,0.065 -0.373,0.077 -0.107,0.013 -0.177,0.006 -0.185,-0.024zm0.108 -0.317c-0.071,0.093 -0.1,0.203 -0.072,0.307 0.002,0.01 0.057,0.009 0.144,-0.002 0.097,-0.012 0.227,-0.038 0.368,-0.076 0.142,-0.038 0.268,-0.08 0.357,-0.118 0.08,-0.034 0.129,-0.061 0.127,-0.07 -0.029,-0.105 -0.109,-0.185 -0.217,-0.23 -0.109,-0.046 -0.246,-0.056 -0.384,-0.019 -0.138,0.037 -0.252,0.114 -0.323,0.208z"/>
    <path class="fil4" d="M1.045 0.637c-0.063,0.026 -0.142,0.054 -0.232,0.081 -0.073,-0.26 -0.183,-0.454 -0.248,-0.437 0.179,-0.048 0.381,0.107 0.48,0.356zm-0.477 0.147c-0.092,0.021 -0.175,0.037 -0.242,0.045 -0.038,-0.264 0.059,-0.499 0.238,-0.547 -0.065,0.018 -0.063,0.24 0.004,0.502z"/>
    <path class="fil2" d="M1.052 0.653c-0.032,0.014 -0.068,0.028 -0.108,0.042 -0.038,0.013 -0.08,0.027 -0.126,0.041 -0.009,0.003 -0.019,-0.003 -0.022,-0.012l0 -0.001c-0.037,-0.129 -0.082,-0.241 -0.126,-0.319 -0.04,-0.07 -0.076,-0.11 -0.1,-0.105l-0.002 0c-0.023,0.008 -0.034,0.061 -0.033,0.141 0,0.09 0.017,0.21 0.05,0.34 0.003,0.01 -0.003,0.019 -0.013,0.022l-0.001 0c-0.045,0.011 -0.088,0.02 -0.129,0.027 -0.041,0.008 -0.079,0.014 -0.113,0.018 -0.01,0.001 -0.019,-0.005 -0.021,-0.015 -0.02,-0.137 -0.004,-0.266 0.04,-0.367 0.044,-0.102 0.117,-0.176 0.211,-0.201l0.001 0c0.095,-0.025 0.195,0.002 0.284,0.068 0.088,0.065 0.166,0.17 0.217,0.298 0.004,0.009 0,0.02 -0.009,0.023zm-0.12 0.007c0.032,-0.011 0.062,-0.022 0.089,-0.033 -0.049,-0.115 -0.119,-0.207 -0.199,-0.266 -0.061,-0.045 -0.127,-0.07 -0.192,-0.07 0.024,0.021 0.048,0.054 0.071,0.095 0.044,0.077 0.088,0.185 0.125,0.31 0.037,-0.012 0.072,-0.024 0.106,-0.036zm-0.496 0.133c0.034,-0.006 0.071,-0.014 0.109,-0.022 -0.03,-0.126 -0.046,-0.242 -0.047,-0.33 0,-0.048 0.005,-0.088 0.014,-0.118 -0.056,0.032 -0.101,0.087 -0.131,0.156 -0.039,0.091 -0.054,0.207 -0.039,0.33 0.029,-0.004 0.06,-0.009 0.094,-0.016z"/>
    <path class="fil5" d="M0.457 1.166l0.689 0c0.087,0 0.165,0.041 0.165,0.092l0 0 -1.019 0 0 0c0,-0.051 0.078,-0.092 0.165,-0.092z"/>
    <path class="fil2" d="M0.457 1.148l0.689 0c0.047,0 0.092,0.011 0.125,0.03 0.035,0.02 0.058,0.048 0.058,0.08 0,0.01 -0.008,0.019 -0.018,0.019l-1.019 0c-0.01,0 -0.018,-0.009 -0.018,-0.019 0,-0.032 0.022,-0.06 0.058,-0.08 0.033,-0.019 0.078,-0.03 0.125,-0.03zm0.689 0.036l-0.689 0c-0.041,0 -0.079,0.01 -0.107,0.025 -0.016,0.009 -0.028,0.02 -0.035,0.031l0.973 0c-0.007,-0.011 -0.019,-0.022 -0.035,-0.031 -0.028,-0.015 -0.066,-0.025 -0.107,-0.025z"/>
   </g>
  </g>
 </g>
</svg>
