<?xml version="1.0" encoding="UTF-8"?>
<!DOCTYPE svg PUBLIC "-//W3C//DTD SVG 1.1//EN" "http://www.w3.org/Graphics/SVG/1.1/DTD/svg11.dtd">
<!-- Creator: CorelDRAW 2018 (64-Bit) -->
<svg xmlns="http://www.w3.org/2000/svg" xml:space="preserve" width="40px" height="40px" version="1.1" style="shape-rendering:geometricPrecision; text-rendering:geometricPrecision; image-rendering:optimizeQuality; fill-rule:evenodd; clip-rule:evenodd"
viewBox="0 0 1.456 1.456"
 xmlns:xlink="http://www.w3.org/1999/xlink">
 <defs>
  <style type="text/css">
   <![CDATA[
    .fil0 {fill:none}
    .fil3 {fill:#00F4FF}
    .fil4 {fill:#EAEDF2}
    .fil1 {fill:white}
    .fil5 {fill:gray;fill-rule:nonzero}
    .fil2 {fill:gray;fill-rule:nonzero}
   ]]>
  </style>
 </defs>
 <g id="Layer_x0020_1">
  <metadata id="CorelCorpID_0Corel-Layer"/>
  <g id="_1576229018160">
   <rect class="fil0" width="1.456" height="1.456"/>
   <g>
    <path class="fil1" d="M1.234 1.008l0 -0.665c0,-0.016 -0.013,-0.029 -0.028,-0.029l-0.956 0c-0.016,0 -0.029,0.013 -0.029,0.029l0 0.866c0,0.016 0.013,0.028 0.029,0.028l0.755 0 0.229 -0.229z"/>
    <path class="fil2" d="M1.216 1l0 -0.657c0,-0.003 -0.001,-0.006 -0.003,-0.008 -0.002,-0.002 -0.004,-0.003 -0.007,-0.003l-0.956 0c-0.003,0 -0.005,0.001 -0.007,0.003 -0.002,0.002 -0.003,0.005 -0.003,0.008l0 0.866c0,0.003 0.001,0.005 0.003,0.007 0.002,0.002 0.004,0.003 0.007,0.003l0.747 0 0.219 -0.219zm0.037 -0.657l0 0.665c0,0.004 -0.002,0.009 -0.006,0.013l-0.229 0.229c-0.004,0.004 -0.008,0.006 -0.013,0.006l-0.755 0c-0.013,0 -0.024,-0.006 -0.033,-0.014l0 0c-0.008,-0.009 -0.014,-0.02 -0.014,-0.033l0 -0.866c0,-0.013 0.006,-0.025 0.014,-0.033 0.009,-0.009 0.02,-0.014 0.033,-0.014l0.956 0c0.013,0 0.024,0.005 0.033,0.014 0.008,0.008 0.014,0.02 0.014,0.033z"/>
    <path class="fil3" d="M0.9 0.585l0.171 0c0.013,0 0.024,0.011 0.024,0.024l0 0.17c0,0.014 -0.011,0.024 -0.024,0.024l-0.171 0c-0.013,0 -0.024,-0.01 -0.024,-0.024l0 -0.17c0,-0.013 0.011,-0.024 0.024,-0.024z"/>
    <path class="fil2" d="M0.9 0.567l0.171 0c0.011,0 0.022,0.004 0.03,0.012l0.001 0.001c0.007,0.008 0.011,0.018 0.011,0.029l0 0.17c0,0.012 -0.005,0.022 -0.012,0.03l0 0c-0.008,0.008 -0.019,0.012 -0.03,0.012l-0.171 0c-0.011,0 -0.022,-0.004 -0.029,-0.012l0 0c-0.008,-0.008 -0.013,-0.018 -0.013,-0.03l0 -0.17c0,-0.012 0.005,-0.022 0.013,-0.03l0.001 -0.001c0.007,-0.007 0.017,-0.011 0.028,-0.011zm0.171 0.036l-0.171 0c-0.001,0 -0.002,0.001 -0.003,0.001l-0.001 0.001c-0.001,0.001 -0.001,0.002 -0.001,0.004l0 0.17c0,0.002 0,0.003 0.001,0.004 0.001,0.001 0.003,0.002 0.004,0.002l0.171 0c0.001,0 0.003,-0.001 0.004,-0.002 0.001,-0.001 0.002,-0.002 0.002,-0.004l0 -0.17c0,-0.002 -0.001,-0.003 -0.002,-0.004l0 0c-0.001,-0.001 -0.003,-0.002 -0.004,-0.002z"/>
    <path class="fil4" d="M1.234 1.008l-0.201 0c-0.016,0 -0.028,0.013 -0.028,0.028l0 0.201 0.229 -0.229z"/>
    <path class="fil2" d="M1.19 1.026l-0.157 0c-0.003,0 -0.005,0.001 -0.007,0.003 -0.002,0.002 -0.003,0.005 -0.003,0.007l0 0.158 0.167 -0.168zm-0.157 -0.037l0.201 0c0.005,0.001 0.01,0.002 0.013,0.006 0.007,0.007 0.007,0.018 0,0.026l-0.229 0.229c-0.004,0.004 -0.008,0.006 -0.013,0.006 -0.01,0 -0.019,-0.008 -0.019,-0.019l0 -0.201c0,-0.012 0.006,-0.024 0.014,-0.033 0.009,-0.008 0.02,-0.014 0.033,-0.014z"/>
    <path class="fil4" d="M0.992 0.218l0 0c-0.02,0 -0.036,0.017 -0.036,0.036l0 0.12c0,0.019 0.016,0.036 0.036,0.036l0 0c0.02,0 0.036,-0.017 0.036,-0.036l0 -0.12c0,-0.019 -0.016,-0.036 -0.036,-0.036z"/>
    <path class="fil2" d="M0.992 0.237c-0.005,0 -0.009,0.002 -0.013,0.005 -0.003,0.003 -0.005,0.007 -0.005,0.012l0 0.12c0,0.005 0.002,0.009 0.005,0.012 0.004,0.003 0.008,0.005 0.013,0.005 0.005,0 0.009,-0.002 0.013,-0.005 0.003,-0.003 0.005,-0.007 0.005,-0.012l0 -0.12c0,-0.004 -0.002,-0.009 -0.005,-0.012l-0.001 -0.001c-0.003,-0.003 -0.007,-0.004 -0.012,-0.004zm-0.038 -0.021c0.01,-0.01 0.023,-0.016 0.038,-0.016 0.014,0 0.027,0.006 0.037,0.015l0.001 0.001c0.01,0.01 0.016,0.023 0.016,0.038l0 0.12c0,0.015 -0.006,0.028 -0.016,0.038 -0.01,0.01 -0.023,0.016 -0.038,0.016 -0.015,0 -0.029,-0.006 -0.038,-0.016 -0.01,-0.01 -0.016,-0.023 -0.016,-0.038l0 -0.12c0,-0.014 0.006,-0.028 0.016,-0.038z"/>
    <path class="fil4" d="M0.728 0.218l0 0c-0.02,0 -0.036,0.017 -0.036,0.036l0 0.12c0,0.019 0.016,0.036 0.036,0.036l0 0c0.02,0 0.036,-0.017 0.036,-0.036l0 -0.12c0,-0.019 -0.016,-0.036 -0.036,-0.036z"/>
    <path class="fil2" d="M0.728 0.237c-0.005,0 -0.009,0.002 -0.013,0.005 -0.003,0.003 -0.005,0.007 -0.005,0.012l0 0.12c0,0.005 0.002,0.009 0.005,0.012 0.004,0.003 0.008,0.005 0.013,0.005 0.005,0 0.009,-0.002 0.012,-0.005 0.004,-0.003 0.006,-0.007 0.006,-0.012l0 -0.12c0,-0.004 -0.002,-0.009 -0.006,-0.012l0 -0.001c-0.003,-0.003 -0.007,-0.004 -0.012,-0.004zm-0.038 -0.021c0.01,-0.01 0.023,-0.016 0.038,-0.016 0.014,0 0.027,0.006 0.037,0.015l0.001 0.001c0.01,0.01 0.016,0.023 0.016,0.038l0 0.12c0,0.015 -0.006,0.028 -0.016,0.038 -0.01,0.01 -0.023,0.016 -0.038,0.016 -0.015,0 -0.029,-0.006 -0.038,-0.016 -0.01,-0.01 -0.016,-0.023 -0.016,-0.038l0 -0.12c0,-0.014 0.006,-0.028 0.016,-0.038z"/>
    <path class="fil4" d="M0.464 0.218l0 0c-0.02,0 -0.036,0.017 -0.036,0.036l0 0.12c0,0.019 0.016,0.036 0.036,0.036l0 0c0.02,0 0.036,-0.017 0.036,-0.036l0 -0.12c0,-0.019 -0.016,-0.036 -0.036,-0.036z"/>
    <path class="fil2" d="M0.464 0.237c-0.005,0 -0.009,0.002 -0.012,0.005 -0.004,0.003 -0.006,0.007 -0.006,0.012l0 0.12c0,0.005 0.002,0.009 0.006,0.012 0.003,0.003 0.007,0.005 0.012,0.005 0.005,0 0.01,-0.002 0.013,-0.005 0.003,-0.003 0.005,-0.007 0.005,-0.012l0 -0.12c0,-0.004 -0.002,-0.009 -0.005,-0.012l-0.001 -0.001c-0.003,-0.003 -0.007,-0.004 -0.012,-0.004zm-0.038 -0.021c0.01,-0.01 0.023,-0.016 0.038,-0.016 0.014,0 0.028,0.006 0.037,0.015l0.002 0.001c0.009,0.01 0.015,0.023 0.015,0.038l0 0.12c0,0.015 -0.006,0.028 -0.015,0.038 -0.01,0.01 -0.024,0.016 -0.039,0.016 -0.015,0 -0.028,-0.006 -0.038,-0.016 -0.01,-0.01 -0.016,-0.023 -0.016,-0.038l0 -0.12c0,-0.014 0.006,-0.028 0.016,-0.038z"/>
    <path class="fil5" d="M0.367 0.692c-0.01,0 -0.018,-0.008 -0.018,-0.018 0,-0.01 0.008,-0.018 0.018,-0.018l0.073 0c0.01,0 0.018,0.008 0.018,0.018 0,0.01 -0.008,0.018 -0.018,0.018l-0.073 0z"/>
    <path class="fil5" d="M0.619 0.692c-0.01,0 -0.018,-0.008 -0.018,-0.018 0,-0.01 0.008,-0.018 0.018,-0.018l0.073 0c0.01,0 0.018,0.008 0.018,0.018 0,0.01 -0.008,0.018 -0.018,0.018l-0.073 0z"/>
    <path class="fil5" d="M0.367 0.94c-0.01,0 -0.018,-0.009 -0.018,-0.019 0,-0.01 0.008,-0.018 0.018,-0.018l0.073 0c0.01,0 0.018,0.008 0.018,0.018 0,0.01 -0.008,0.019 -0.018,0.019l-0.073 0z"/>
    <path class="fil5" d="M0.619 0.94c-0.01,0 -0.018,-0.009 -0.018,-0.019 0,-0.01 0.008,-0.018 0.018,-0.018l0.073 0c0.01,0 0.018,0.008 0.018,0.018 0,0.01 -0.008,0.019 -0.018,0.019l-0.073 0z"/>
   </g>
  </g>
 </g>
</svg>
