<?xml version="1.0" encoding="UTF-8"?>
<!DOCTYPE svg PUBLIC "-//W3C//DTD SVG 1.1//EN" "http://www.w3.org/Graphics/SVG/1.1/DTD/svg11.dtd">
<!-- Creator: CorelDRAW 2018 (64-Bit) -->
<svg xmlns="http://www.w3.org/2000/svg" xml:space="preserve" width="40px" height="40px" version="1.1" style="shape-rendering:geometricPrecision; text-rendering:geometricPrecision; image-rendering:optimizeQuality; fill-rule:evenodd; clip-rule:evenodd"
viewBox="0 0 1.456 1.456"
 xmlns:xlink="http://www.w3.org/1999/xlink">
 <defs>
  <style type="text/css">
   <![CDATA[
    .fil0 {fill:none}
    .fil3 {fill:#00F4FF}
    .fil4 {fill:white}
    .fil2 {fill:gray;fill-rule:nonzero}
    .fil1 {fill:white;fill-rule:nonzero}
   ]]>
  </style>
 </defs>
 <g id="Layer_x0020_1">
  <metadata id="CorelCorpID_0Corel-Layer"/>
  <g id="_1539869140912">
   <rect class="fil0" width="1.456" height="1.456"/>
   <g>
    <path class="fil1" d="M0.659 0.211c0.268,0 0.486,0.218 0.486,0.486 0,0.268 -0.218,0.486 -0.486,0.486 -0.268,0 -0.486,-0.218 -0.486,-0.486 0,-0.268 0.218,-0.486 0.486,-0.486z"/>
    <path class="fil2" d="M0.659 0.193c0.139,0 0.265,0.056 0.356,0.147 0.092,0.092 0.148,0.218 0.148,0.357 0,0.139 -0.056,0.265 -0.148,0.356 -0.091,0.092 -0.217,0.148 -0.356,0.148 -0.139,0 -0.265,-0.056 -0.357,-0.148 -0.091,-0.091 -0.147,-0.217 -0.147,-0.356 0,-0.139 0.056,-0.265 0.147,-0.357 0.092,-0.091 0.218,-0.147 0.357,-0.147zm0.331 0.173c-0.085,-0.084 -0.202,-0.137 -0.331,-0.137 -0.129,0 -0.246,0.053 -0.331,0.137 -0.084,0.085 -0.137,0.202 -0.137,0.331 0,0.129 0.053,0.246 0.137,0.331 0.085,0.084 0.202,0.137 0.331,0.137 0.129,0 0.246,-0.053 0.331,-0.137 0.084,-0.085 0.137,-0.202 0.137,-0.331 0,-0.129 -0.053,-0.246 -0.137,-0.331z"/>
    <path class="fil2" d="M0.924 0.417c0.007,-0.007 0.019,-0.007 0.026,0 0.007,0.007 0.007,0.019 0,0.026l-0.234 0.234c-0.007,0.007 -0.019,0.007 -0.026,0 -0.007,-0.007 -0.007,-0.019 0,-0.026l0.234 -0.234z"/>
    <path class="fil2" d="M0.614 0.657c0.009,0.005 0.012,0.016 0.007,0.024 -0.005,0.009 -0.016,0.012 -0.025,0.007l-0.173 -0.1c-0.009,-0.005 -0.012,-0.016 -0.007,-0.025 0.005,-0.009 0.016,-0.012 0.025,-0.007l0.173 0.101z"/>
    <path class="fil2" d="M0.659 0.66c-0.01,0 -0.019,0.004 -0.026,0.011 -0.007,0.007 -0.011,0.016 -0.011,0.026 0,0.01 0.004,0.019 0.011,0.026 0.007,0.007 0.016,0.011 0.026,0.011 0.01,0 0.019,-0.004 0.026,-0.011 0.007,-0.007 0.011,-0.016 0.011,-0.026 0,-0.01 -0.004,-0.019 -0.011,-0.026 -0.007,-0.007 -0.016,-0.011 -0.026,-0.011zm-0.052 -0.015c0.014,-0.013 0.032,-0.021 0.052,-0.021 0.02,0 0.038,0.008 0.052,0.021 0.013,0.014 0.021,0.032 0.021,0.052 0,0.02 -0.008,0.038 -0.021,0.052 -0.014,0.013 -0.032,0.021 -0.052,0.021 -0.02,0 -0.038,-0.008 -0.052,-0.021 -0.013,-0.014 -0.021,-0.032 -0.021,-0.052 0,-0.02 0.008,-0.038 0.021,-0.052z"/>
    <path class="fil2" d="M0.641 0.328c0,-0.01 0.008,-0.018 0.018,-0.018 0.01,0 0.018,0.008 0.018,0.018l0 0.034c0,0.01 -0.008,0.018 -0.018,0.018 -0.01,0 -0.018,-0.008 -0.018,-0.018l0 -0.034z"/>
    <path class="fil2" d="M0.29 0.715c-0.01,0 -0.018,-0.008 -0.018,-0.018 0,-0.01 0.008,-0.018 0.018,-0.018l0.034 0c0.01,0 0.018,0.008 0.018,0.018 0,0.01 -0.008,0.018 -0.018,0.018l-0.034 0z"/>
    <path class="fil2" d="M0.677 1.066c0,0.01 -0.008,0.018 -0.018,0.018 -0.01,0 -0.018,-0.008 -0.018,-0.018l0 -0.034c0,-0.01 0.008,-0.018 0.018,-0.018 0.01,0 0.018,0.008 0.018,0.018l0 0.034z"/>
    <path class="fil3" d="M0.955 1.153c-0.026,-0.009 -0.05,-0.023 -0.071,-0.041l-0.087 0.026c-0.018,-0.022 -0.032,-0.047 -0.043,-0.073l0.067 -0.063c-0.003,-0.013 -0.004,-0.027 -0.004,-0.041 0,-0.014 0.001,-0.028 0.004,-0.041l-0.067 -0.062c0.011,-0.027 0.025,-0.052 0.043,-0.074l0.087 0.027c0.021,-0.019 0.045,-0.033 0.071,-0.041l0.021 -0.089c0.014,-0.002 0.028,-0.004 0.043,-0.004 0.014,0 0.028,0.002 0.042,0.004l0.021 0.089c0.026,0.008 0.051,0.022 0.071,0.041l0.087 -0.027c0.018,0.022 0.032,0.047 0.043,0.074l-0.067 0.062c0.003,0.013 0.004,0.027 0.004,0.041 0,0.014 -0.001,0.028 -0.004,0.041l0.067 0.063c-0.011,0.026 -0.025,0.051 -0.043,0.073l-0.087 -0.026c-0.02,0.018 -0.045,0.032 -0.071,0.041l-0.021 0.089c-0.014,0.002 -0.028,0.003 -0.042,0.003 -0.015,0 -0.029,-0.001 -0.043,-0.003l-0.021 -0.089zm0.064 -0.102c-0.05,0 -0.09,-0.04 -0.09,-0.09 0,-0.049 0.04,-0.089 0.09,-0.089 0.049,0 0.089,0.04 0.089,0.089 0,0.05 -0.04,0.09 -0.089,0.09z"/>
    <path class="fil2" d="M0.94 1.167c-0.011,-0.005 -0.021,-0.01 -0.031,-0.015 -0.01,-0.006 -0.02,-0.013 -0.029,-0.02l-0.078 0.024c-0.008,0.002 -0.016,-0.001 -0.02,-0.008 -0.009,-0.012 -0.018,-0.024 -0.025,-0.036 -0.007,-0.013 -0.014,-0.027 -0.019,-0.041 -0.003,-0.007 -0.001,-0.015 0.005,-0.02l0.059 -0.055c-0.001,-0.004 -0.002,-0.008 -0.002,-0.012 -0.001,-0.008 -0.001,-0.016 -0.001,-0.023 0,-0.007 0,-0.015 0.001,-0.022 0,-0.004 0.001,-0.008 0.002,-0.012l-0.06 -0.056c-0.005,-0.005 -0.007,-0.013 -0.004,-0.02 0.005,-0.014 0.012,-0.028 0.019,-0.041 0.008,-0.013 0.016,-0.025 0.026,-0.037 0.004,-0.006 0.012,-0.008 0.019,-0.006l0.078 0.023c0.009,-0.007 0.019,-0.013 0.029,-0.019 0.01,-0.006 0.02,-0.011 0.031,-0.015l0.019 -0.08c0.001,-0.007 0.008,-0.012 0.015,-0.013 0.007,-0.001 0.015,-0.002 0.022,-0.003 0.008,0 0.015,-0.001 0.023,-0.001 0.007,0 0.015,0.001 0.022,0.001 0.008,0.001 0.015,0.002 0.023,0.003 0.007,0.001 0.013,0.007 0.015,0.014l0.018 0.079c0.011,0.004 0.022,0.009 0.032,0.015 0.01,0.006 0.019,0.012 0.028,0.019l0.078 -0.023c0.008,-0.003 0.016,0.001 0.02,0.007 0.009,0.011 0.018,0.023 0.025,0.036 0.008,0.013 0.014,0.027 0.02,0.041 0.003,0.007 0,0.015 -0.005,0.02l-0.059 0.056c0,0.004 0.001,0.008 0.001,0.012 0.001,0.007 0.002,0.015 0.002,0.022 0,0.007 -0.001,0.015 -0.002,0.023l0 0c0,0.004 -0.001,0.008 -0.001,0.012l0.059 0.056c0.006,0.005 0.007,0.013 0.005,0.019 -0.006,0.014 -0.012,0.028 -0.02,0.041 -0.007,0.013 -0.016,0.026 -0.025,0.037 -0.005,0.006 -0.013,0.009 -0.02,0.006l-0.078 -0.023c-0.009,0.007 -0.018,0.014 -0.028,0.02l-0.002 0c-0.009,0.006 -0.019,0.011 -0.03,0.015l-0.018 0.079c-0.002,0.007 -0.008,0.013 -0.015,0.014 -0.008,0.001 -0.015,0.002 -0.023,0.002 -0.007,0.001 -0.015,0.001 -0.022,0.001 -0.008,0 -0.015,0 -0.023,-0.001 -0.007,0 -0.015,-0.001 -0.022,-0.002 -0.008,-0.001 -0.014,-0.007 -0.015,-0.015l-0.019 -0.078zm-0.013 -0.047c0.011,0.006 0.022,0.011 0.034,0.015 0.006,0.002 0.011,0.007 0.012,0.014l0.018 0.076 0.008 0.001c0.006,0 0.013,0.001 0.02,0.001 0.007,0 0.013,-0.001 0.02,-0.001l0.007 -0.001 0.018 -0.076c0.001,-0.006 0.006,-0.011 0.012,-0.014 0.012,-0.003 0.023,-0.008 0.033,-0.014l0.001 -0.001c0.011,-0.006 0.021,-0.013 0.03,-0.021 0.005,-0.005 0.012,-0.007 0.018,-0.005l0.076 0.023c0.005,-0.007 0.01,-0.015 0.015,-0.023 0.004,-0.008 0.008,-0.016 0.012,-0.025l-0.057 -0.054c-0.005,-0.004 -0.007,-0.01 -0.006,-0.016 0.002,-0.006 0.003,-0.012 0.003,-0.019l0 0c0.001,-0.006 0.001,-0.012 0.001,-0.019 0,-0.007 0,-0.013 -0.001,-0.019 0,-0.006 -0.001,-0.012 -0.002,-0.017 -0.002,-0.007 0,-0.013 0.005,-0.018l0.057 -0.054c-0.004,-0.009 -0.008,-0.017 -0.012,-0.025 -0.005,-0.008 -0.01,-0.015 -0.015,-0.023l-0.076 0.023c-0.006,0.002 -0.012,0.001 -0.017,-0.004 -0.01,-0.008 -0.02,-0.016 -0.031,-0.022 -0.01,-0.006 -0.022,-0.011 -0.033,-0.015 -0.006,-0.002 -0.011,-0.007 -0.013,-0.013l-0.018 -0.077 -0.007 -0.001c-0.007,0 -0.013,0 -0.02,0 -0.007,0 -0.014,0 -0.02,0l-0.008 0.001 -0.018 0.076c-0.001,0.006 -0.005,0.012 -0.012,0.014 -0.012,0.004 -0.023,0.009 -0.034,0.015 -0.011,0.006 -0.021,0.013 -0.03,0.022 -0.004,0.004 -0.011,0.006 -0.018,0.004l-0.075 -0.023c-0.006,0.008 -0.011,0.015 -0.015,0.023 -0.005,0.008 -0.009,0.016 -0.013,0.025l0.058 0.054c0.004,0.004 0.006,0.01 0.005,0.017 -0.001,0.006 -0.002,0.012 -0.003,0.018 -0.001,0.006 -0.001,0.012 -0.001,0.019 0,0.007 0,0.013 0.001,0.019 0.001,0.006 0.002,0.012 0.003,0.018 0.001,0.006 0,0.013 -0.005,0.017l-0.058 0.054c0.004,0.009 0.008,0.017 0.013,0.025 0.004,0.008 0.009,0.016 0.015,0.023l0.075 -0.023c0.006,-0.001 0.013,0 0.018,0.004 0.009,0.008 0.019,0.016 0.03,0.022zm0.092 -0.051c-0.03,0 -0.057,-0.012 -0.076,-0.032 -0.02,-0.019 -0.032,-0.046 -0.032,-0.076 0,-0.03 0.012,-0.056 0.032,-0.076l0.001 -0.001c0.019,-0.019 0.046,-0.03 0.075,-0.03 0.029,0 0.056,0.012 0.076,0.031 0.019,0.02 0.031,0.046 0.031,0.076 0,0.03 -0.012,0.057 -0.031,0.076 -0.02,0.02 -0.047,0.032 -0.076,0.032zm-0.051 -0.057c0.013,0.012 0.031,0.02 0.051,0.02 0.019,0 0.037,-0.008 0.05,-0.02 0.013,-0.013 0.021,-0.031 0.021,-0.051 0,-0.02 -0.008,-0.037 -0.021,-0.05 -0.013,-0.013 -0.031,-0.021 -0.05,-0.021 -0.02,0 -0.037,0.008 -0.05,0.02l-0.001 0.001c-0.013,0.013 -0.021,0.03 -0.021,0.05 0,0.02 0.008,0.038 0.021,0.051z"/>
    <path class="fil4" d="M1.108 0.961c0,-0.049 -0.04,-0.089 -0.089,-0.089 -0.05,0 -0.09,0.04 -0.09,0.089 0,0.05 0.04,0.09 0.09,0.09 0.049,0 0.089,-0.04 0.089,-0.09z"/>
    <path class="fil2" d="M1.09 0.961c0,-0.02 -0.008,-0.037 -0.021,-0.05 -0.013,-0.013 -0.031,-0.021 -0.05,-0.021 -0.02,0 -0.038,0.008 -0.051,0.021 -0.013,0.013 -0.021,0.03 -0.021,0.05 0,0.02 0.008,0.038 0.021,0.051 0.013,0.012 0.031,0.02 0.051,0.02 0.019,0 0.037,-0.008 0.05,-0.02 0.013,-0.013 0.021,-0.031 0.021,-0.051zm0.005 -0.076c0.019,0.02 0.031,0.046 0.031,0.076 0,0.03 -0.012,0.057 -0.031,0.076 -0.02,0.02 -0.047,0.032 -0.076,0.032 -0.03,0 -0.057,-0.012 -0.076,-0.032 -0.02,-0.019 -0.032,-0.046 -0.032,-0.076 0,-0.03 0.012,-0.056 0.032,-0.076 0.019,-0.019 0.046,-0.031 0.076,-0.031 0.029,0 0.056,0.012 0.076,0.031z"/>
   </g>
  </g>
 </g>
</svg>
