<?xml version="1.0" encoding="UTF-8"?>
<!DOCTYPE svg PUBLIC "-//W3C//DTD SVG 1.1//EN" "http://www.w3.org/Graphics/SVG/1.1/DTD/svg11.dtd">
<!-- Creator: CorelDRAW 2018 (64-Bit) -->
<svg xmlns="http://www.w3.org/2000/svg" xml:space="preserve" width="40px" height="40px" version="1.1" style="shape-rendering:geometricPrecision; text-rendering:geometricPrecision; image-rendering:optimizeQuality; fill-rule:evenodd; clip-rule:evenodd"
viewBox="0 0 1.456 1.456"
 xmlns:xlink="http://www.w3.org/1999/xlink">
 <defs>
  <style type="text/css">
   <![CDATA[
    .fil0 {fill:none}
    .fil3 {fill:#00F4FF}
    .fil1 {fill:white}
    .fil4 {fill:gray;fill-rule:nonzero}
    .fil2 {fill:gray;fill-rule:nonzero}
   ]]>
  </style>
 </defs>
 <g id="Layer_x0020_1">
  <metadata id="CorelCorpID_0Corel-Layer"/>
  <g id="_1576234431040">
   <rect class="fil0" width="1.456" height="1.456"/>
   <g>
    <path class="fil1" d="M0.7 1.31c-0.053,0 -0.045,-0.032 -0.067,-0.07 -0.045,-0.078 -0.137,-0.133 -0.236,-0.142 -0.009,-0.001 -0.021,-0.01 -0.02,-0.027 0.015,-0.178 0.031,-0.355 0.045,-0.533 0.001,-0.008 -0.002,-0.021 -0.019,-0.012l-0.154 0.078c-0.023,0.012 -0.053,0.004 -0.066,-0.016l-0.086 -0.13c-0.013,-0.02 -0.005,-0.046 0.018,-0.058 0.108,-0.055 0.215,-0.11 0.323,-0.164 0.029,-0.015 0.054,-0.018 0.087,-0.018l0.406 0c0.033,0 0.058,0.003 0.087,0.018 0.107,0.054 0.215,0.109 0.323,0.164 0.023,0.012 0.031,0.038 0.017,0.058l-0.085 0.13c-0.013,0.02 -0.043,0.028 -0.066,0.016l-0.154 -0.078c-0.017,-0.009 -0.02,0.004 -0.019,0.012 0.014,0.178 0.029,0.355 0.044,0.533 0.002,0.017 -0.01,0.026 -0.02,0.027 -0.098,0.009 -0.19,0.064 -0.235,0.142 -0.022,0.038 -0.014,0.07 -0.067,0.07 -0.019,0 -0.037,0 -0.056,0z"/>
    <path class="fil2" d="M0.7 1.328c-0.051,0 -0.059,-0.021 -0.07,-0.052 -0.004,-0.008 -0.007,-0.017 -0.012,-0.027 -0.022,-0.036 -0.054,-0.067 -0.092,-0.09 -0.039,-0.024 -0.084,-0.039 -0.13,-0.043 -0.01,-0.001 -0.021,-0.006 -0.028,-0.016 -0.006,-0.008 -0.01,-0.018 -0.009,-0.03l0.015 -0.178c0.01,-0.116 0.02,-0.233 0.029,-0.346l-0.146 0.074c-0.015,0.008 -0.033,0.009 -0.049,0.006 -0.016,-0.004 -0.031,-0.014 -0.041,-0.028l-0.085 -0.13c-0.001,-0.001 -0.002,-0.003 -0.003,-0.005 -0.007,-0.014 -0.008,-0.029 -0.004,-0.042 0.004,-0.013 0.013,-0.025 0.026,-0.034 0.001,-0.001 0.004,-0.002 0.006,-0.003l0.323 -0.164c0.016,-0.009 0.031,-0.013 0.047,-0.016 0.015,-0.003 0.03,-0.004 0.048,-0.004l0.406 0c0.018,0 0.033,0.001 0.048,0.004 0.016,0.003 0.031,0.007 0.047,0.016l0.323 0.164c0.002,0.001 0.004,0.002 0.006,0.003 0.013,0.009 0.022,0.021 0.026,0.034 0.004,0.014 0.003,0.028 -0.004,0.042l-0.003 0.005 -0.086 0.13c-0.009,0.014 -0.024,0.024 -0.04,0.028 -0.016,0.003 -0.034,0.002 -0.049,-0.006l-0.147 -0.074c0.01,0.113 0.02,0.23 0.03,0.346l0.015 0.178c0.001,0.012 -0.003,0.022 -0.009,0.03 -0.007,0.01 -0.018,0.015 -0.028,0.016 -0.046,0.004 -0.091,0.019 -0.13,0.043 -0.038,0.023 -0.07,0.054 -0.092,0.09l0 0.001c-0.005,0.009 -0.009,0.018 -0.012,0.026 -0.011,0.031 -0.019,0.052 -0.07,0.052l-0.056 0zm-0.036 -0.064c0.006,0.016 0.01,0.028 0.036,0.028l0.056 0c0.026,0 0.03,-0.012 0.036,-0.028 0.004,-0.01 0.008,-0.021 0.014,-0.032l0.001 -0.001c0.024,-0.042 0.061,-0.077 0.104,-0.103 0.043,-0.026 0.094,-0.043 0.146,-0.048 0.001,0 0.001,-0.001 0.002,-0.002 0.001,-0.001 0.002,-0.003 0.001,-0.005l-0.015 -0.178c-0.01,-0.117 -0.02,-0.235 -0.03,-0.355l0 -0.001c0,-0.005 0.001,-0.013 0.004,-0.019 0.002,-0.004 0.005,-0.007 0.008,-0.01 0.004,-0.003 0.009,-0.005 0.014,-0.005 0.006,-0.001 0.013,0.001 0.02,0.004l0.154 0.079c0.008,0.003 0.017,0.004 0.025,0.002 0.007,-0.002 0.014,-0.006 0.018,-0.012 0.023,-0.035 0.07,-0.098 0.086,-0.132 0.003,-0.005 0.003,-0.01 0.002,-0.015 -0.002,-0.005 -0.005,-0.01 -0.011,-0.013l-0.003 -0.002 -0.322 -0.164c-0.013,-0.007 -0.025,-0.01 -0.037,-0.013 -0.012,-0.002 -0.026,-0.002 -0.042,-0.002l-0.406 0c-0.016,0 -0.03,0 -0.042,0.002 -0.012,0.003 -0.024,0.006 -0.037,0.013l-0.323 0.164 -0.003 0.002c-0.005,0.003 -0.008,0.008 -0.01,0.013 -0.001,0.005 -0.001,0.01 0.001,0.015l0.002 0.002 0.085 0.13c0.004,0.006 0.011,0.01 0.018,0.012 0.008,0.002 0.017,0.001 0.025,-0.002l0.153 -0.079c0.008,-0.003 0.014,-0.005 0.02,-0.004l0.001 0c0.005,0 0.01,0.002 0.014,0.005 0.003,0.003 0.006,0.006 0.008,0.01 0.003,0.006 0.004,0.014 0.003,0.019 -0.009,0.121 -0.019,0.239 -0.029,0.356l-0.015 0.178c-0.001,0.002 0,0.004 0.001,0.005 0,0.001 0.001,0.002 0.002,0.002 0.052,0.005 0.103,0.022 0.146,0.048 0.043,0.026 0.08,0.061 0.104,0.103 0.007,0.012 0.011,0.023 0.015,0.033z"/>
    <path class="fil2" d="M0.51 0.2l0.436 0c0.01,0 0.019,0.008 0.019,0.018 0,0.004 -0.002,0.008 -0.004,0.011 -0.029,0.047 -0.064,0.086 -0.104,0.112 -0.04,0.027 -0.083,0.041 -0.129,0.041 -0.046,0 -0.09,-0.014 -0.129,-0.041 -0.04,-0.026 -0.076,-0.065 -0.105,-0.113 -0.005,-0.009 -0.002,-0.02 0.006,-0.025 0.003,-0.002 0.006,-0.003 0.01,-0.003zm0.402 0.037l-0.369 0c0.023,0.03 0.048,0.056 0.076,0.074 0.034,0.022 0.07,0.035 0.109,0.035 0.038,0 0.075,-0.013 0.109,-0.035 0.028,-0.018 0.053,-0.044 0.075,-0.074z"/>
    <polygon class="fil3" points="0.728,0.46 0.785,0.554 0.892,0.579 0.821,0.662 0.829,0.772 0.728,0.73 0.627,0.772 0.635,0.662 0.564,0.579 0.671,0.554 "/>
    <path class="fil4" d="M0.743 0.451l0.054 0.087 0.099 0.024c0.01,0.002 0.016,0.012 0.013,0.021 0,0.003 -0.002,0.006 -0.004,0.008l-0.066 0.077 0.008 0.102c0.001,0.01 -0.006,0.019 -0.016,0.02 -0.004,0 -0.007,-0.001 -0.01,-0.002l-0.093 -0.039 -0.094 0.039c-0.01,0.004 -0.02,0 -0.024,-0.009 -0.001,-0.003 -0.002,-0.006 -0.001,-0.009l0.008 -0.102 -0.067 -0.077c-0.006,-0.008 -0.005,-0.019 0.002,-0.026 0.003,-0.002 0.006,-0.003 0.009,-0.004l0.098 -0.023 0.053 -0.087c0.006,-0.009 0.017,-0.012 0.025,-0.006 0.003,0.001 0.005,0.003 0.006,0.006zm0.027 0.112l-0.042 -0.068 -0.042 0.068c-0.002,0.004 -0.006,0.007 -0.011,0.008l-0.078 0.019 0.051 0.06c0.004,0.004 0.006,0.009 0.005,0.014l-0.006 0.08 0.074 -0.031c0.004,-0.002 0.009,-0.002 0.014,0l0.074 0.031 -0.007 -0.08c0,-0.005 0.002,-0.01 0.005,-0.013l0.052 -0.061 -0.077 -0.019c-0.005,-0.001 -0.01,-0.003 -0.012,-0.008z"/>
   </g>
  </g>
 </g>
</svg>
