<?xml version="1.0" encoding="UTF-8"?>
<!DOCTYPE svg PUBLIC "-//W3C//DTD SVG 1.1//EN" "http://www.w3.org/Graphics/SVG/1.1/DTD/svg11.dtd">
<!-- Creator: CorelDRAW 2018 (64-Bit) -->
<svg xmlns="http://www.w3.org/2000/svg" xml:space="preserve" width="40px" height="40px" version="1.1" style="shape-rendering:geometricPrecision; text-rendering:geometricPrecision; image-rendering:optimizeQuality; fill-rule:evenodd; clip-rule:evenodd"
viewBox="0 0 1.456 1.456"
 xmlns:xlink="http://www.w3.org/1999/xlink">
 <defs>
  <style type="text/css">
   <![CDATA[
    .fil0 {fill:none}
    .fil4 {fill:#00F4FF}
    .fil3 {fill:#EAEDF2}
    .fil1 {fill:white}
    .fil2 {fill:gray;fill-rule:nonzero}
   ]]>
  </style>
 </defs>
 <g id="Layer_x0020_1">
  <metadata id="CorelCorpID_0Corel-Layer"/>
  <g id="_1576234682160">
   <rect class="fil0" width="1.456" height="1.456"/>
   <g>
    <path class="fil1" d="M0.414 0.455c0.057,-0.023 0.083,-0.058 0.094,-0.129l0.488 0c0.011,0.071 0.037,0.106 0.094,0.129 0.027,0.011 0.041,0.04 0.041,0.064l0 0.667c0,0.008 -0.007,0.015 -0.016,0.015l-0.726 0c-0.009,0 -0.016,-0.007 -0.016,-0.015l0 -0.667c0,-0.024 0.013,-0.053 0.041,-0.064z"/>
    <path class="fil2" d="M0.408 0.438c0.025,-0.01 0.043,-0.022 0.055,-0.04 0.014,-0.018 0.022,-0.042 0.027,-0.075 0.001,-0.009 0.009,-0.016 0.018,-0.016l0.488 0c0.01,0 0.017,0.008 0.018,0.017 0.005,0.032 0.014,0.056 0.027,0.074 0.012,0.018 0.03,0.03 0.055,0.04 0.017,0.007 0.03,0.018 0.038,0.032 0.01,0.015 0.015,0.033 0.015,0.049l0 0.667c0,0.009 -0.004,0.017 -0.01,0.023 -0.006,0.007 -0.015,0.01 -0.024,0.01l-0.726 0c-0.01,0 -0.018,-0.003 -0.024,-0.01 -0.006,-0.006 -0.01,-0.014 -0.01,-0.023l0 -0.667c0,-0.016 0.005,-0.034 0.015,-0.049 0.008,-0.014 0.021,-0.025 0.038,-0.032zm0.085 -0.019c-0.017,0.024 -0.04,0.04 -0.072,0.053 -0.009,0.003 -0.016,0.01 -0.021,0.017 -0.006,0.01 -0.009,0.02 -0.009,0.03l0 0.664 0.721 0 0 -0.664c0,-0.01 -0.002,-0.02 -0.008,-0.03 -0.005,-0.007 -0.012,-0.014 -0.021,-0.017 -0.032,-0.013 -0.055,-0.029 -0.072,-0.053 -0.014,-0.02 -0.024,-0.044 -0.03,-0.075l-0.458 0c-0.006,0.031 -0.016,0.055 -0.03,0.075z"/>
    <path class="fil1" d="M0.466 0.326l0.572 0c0.012,0 0.021,-0.01 0.021,-0.022l0 -0.1c0,-0.012 -0.009,-0.022 -0.021,-0.022l-0.572 0c-0.012,0 -0.021,0.01 -0.021,0.022l0 0.1c0,0.012 0.009,0.022 0.021,0.022z"/>
    <path class="fil2" d="M0.466 0.307l0.572 0c0.001,0 0.002,0 0.002,-0.001 0.001,0 0.001,-0.001 0.001,-0.002l0 -0.1c0,-0.001 0,-0.002 -0.001,-0.003 0,0 -0.001,-0.001 -0.002,-0.001l-0.572 0c-0.001,0 -0.002,0.001 -0.002,0.001 -0.001,0.001 -0.001,0.002 -0.001,0.003l0 0.1c0,0.001 0,0.002 0.001,0.002 0,0.001 0.001,0.001 0.002,0.001zm0.572 0.037l-0.572 0c-0.011,0 -0.021,-0.005 -0.028,-0.012l0 0c-0.007,-0.007 -0.012,-0.017 -0.012,-0.028l0 -0.1c0,-0.011 0.005,-0.021 0.012,-0.028l0 -0.001c0.007,-0.007 0.017,-0.011 0.028,-0.011l0.572 0c0.011,0 0.021,0.004 0.028,0.011l0 0.001c0.007,0.007 0.012,0.017 0.012,0.028l0 0.1c0,0.011 -0.005,0.021 -0.012,0.028l0 0c-0.007,0.007 -0.017,0.012 -0.028,0.012z"/>
    <path class="fil3" d="M0.504 0.585l0.496 0c0.007,0 0.012,0.006 0.012,0.013l0 0.331c0,0.007 -0.005,0.012 -0.012,0.012l-0.496 0c-0.007,0 -0.012,-0.005 -0.012,-0.012l0 -0.331c0,-0.007 0.005,-0.013 0.012,-0.013z"/>
    <path class="fil2" d="M0.504 0.567l0.496 0c0.008,0 0.016,0.004 0.021,0.009 0.006,0.006 0.01,0.014 0.01,0.022l0 0.331c0,0.008 -0.004,0.016 -0.01,0.021l-0.001 0.002c-0.006,0.005 -0.013,0.008 -0.02,0.008l-0.496 0c-0.008,0 -0.016,-0.004 -0.021,-0.01l-0.001 0c-0.005,-0.005 -0.009,-0.013 -0.009,-0.021l0 -0.331c0,-0.008 0.004,-0.016 0.01,-0.022 0.005,-0.005 0.013,-0.009 0.021,-0.009zm0.49 0.037l-0.484 0 0 0.319 0.484 0 0 -0.319z"/>
    <path class="fil1" d="M0.484 0.838l-0.369 0.129c-0.063,0.022 -0.096,0.091 -0.074,0.153l0 0c0.022,0.063 0.091,0.096 0.153,0.074l0.37 -0.128c0.062,-0.022 0.096,-0.091 0.074,-0.154l0 0c-0.022,-0.062 -0.091,-0.096 -0.154,-0.074z"/>
    <path class="fil2" d="M0.49 0.855l-0.369 0.129c-0.027,0.009 -0.047,0.028 -0.058,0.052 -0.012,0.024 -0.014,0.052 -0.005,0.078 0.009,0.027 0.028,0.047 0.052,0.059 0.024,0.011 0.052,0.014 0.078,0.004l0.37 -0.128c0.026,-0.01 0.047,-0.029 0.058,-0.052 0.011,-0.024 0.014,-0.052 0.005,-0.079l-0.001 0c-0.009,-0.026 -0.028,-0.047 -0.052,-0.058 -0.023,-0.011 -0.051,-0.014 -0.078,-0.005l0 0zm-0.381 0.095l0.371 -0.129c0.036,-0.012 0.073,-0.009 0.104,0.006 0.032,0.016 0.058,0.043 0.07,0.078 0.001,0.001 0.001,0.002 0.001,0.003 0.012,0.036 0.009,0.073 -0.006,0.104 -0.016,0.032 -0.043,0.058 -0.079,0.071l-0.37 0.129c-0.036,0.012 -0.074,0.009 -0.106,-0.007 -0.032,-0.015 -0.058,-0.043 -0.07,-0.078l0 -0.001c-0.013,-0.036 -0.01,-0.074 0.006,-0.106 0.015,-0.032 0.043,-0.058 0.079,-0.07z"/>
    <path class="fil4" d="M0.194 1.194c-0.062,0.022 -0.131,-0.011 -0.153,-0.074 -0.022,-0.062 0.011,-0.131 0.074,-0.153l0.185 -0.065 0.079 0.228 -0.185 0.064z"/>
    <path class="fil2" d="M0.2 1.212c-0.036,0.012 -0.074,0.009 -0.106,-0.007 -0.032,-0.015 -0.058,-0.043 -0.07,-0.079 -0.013,-0.036 -0.01,-0.074 0.006,-0.106 0.015,-0.032 0.043,-0.058 0.079,-0.07l0.185 -0.065c0.009,-0.003 0.019,0.002 0.023,0.012l0.079 0.227c0.003,0.01 -0.002,0.02 -0.011,0.023l-0.185 0.065zm-0.09 -0.039c0.024,0.011 0.052,0.014 0.078,0.004l0.168 -0.058 -0.068 -0.193 -0.167 0.058c-0.027,0.009 -0.047,0.028 -0.058,0.052 -0.012,0.024 -0.014,0.052 -0.005,0.078l0 0c0.009,0.027 0.028,0.047 0.052,0.059z"/>
    <path class="fil1" d="M0.29 1.033l0.391 0c0.066,0 0.121,0.054 0.121,0.12l0 0c0,0.067 -0.055,0.121 -0.121,0.121l-0.391 0c-0.066,0 -0.121,-0.054 -0.121,-0.121l0 0c0,-0.066 0.055,-0.12 0.121,-0.12z"/>
    <path class="fil2" d="M0.29 1.015l0.391 0c0.038,0 0.073,0.015 0.098,0.04 0.025,0.025 0.041,0.06 0.041,0.098 0,0.039 -0.016,0.073 -0.041,0.098 -0.025,0.025 -0.06,0.041 -0.098,0.041l-0.391 0c-0.038,0 -0.073,-0.016 -0.098,-0.041 -0.025,-0.025 -0.041,-0.059 -0.041,-0.098 0,-0.038 0.016,-0.073 0.041,-0.098 0.025,-0.025 0.06,-0.04 0.098,-0.04zm0.391 0.036l-0.391 0c-0.028,0 -0.054,0.012 -0.072,0.03 -0.019,0.019 -0.03,0.044 -0.03,0.072 0,0.028 0.011,0.054 0.03,0.073 0.018,0.018 0.044,0.03 0.072,0.03l0.391 0c0.028,0 0.054,-0.012 0.072,-0.03 0.019,-0.019 0.03,-0.045 0.03,-0.073 0,-0.028 -0.011,-0.053 -0.03,-0.072 -0.018,-0.018 -0.044,-0.03 -0.072,-0.03z"/>
    <path class="fil4" d="M0.681 1.274c0.066,0 0.121,-0.054 0.121,-0.121 0,-0.066 -0.055,-0.12 -0.121,-0.12l-0.195 0 0 0.241 0.195 0z"/>
    <path class="fil2" d="M0.681 1.256c0.028,0 0.054,-0.012 0.072,-0.03 0.019,-0.019 0.03,-0.044 0.03,-0.073 0,-0.028 -0.011,-0.053 -0.03,-0.072l0 -0.001c-0.019,-0.018 -0.044,-0.029 -0.072,-0.029l-0.177 0 0 0.205 0.177 0zm0.098 -0.005c-0.025,0.025 -0.06,0.041 -0.098,0.041l-0.195 0c-0.011,0 -0.019,-0.008 -0.019,-0.018l0 -0.241c0,-0.01 0.008,-0.018 0.019,-0.018l0.195 0c0.038,0 0.072,0.015 0.097,0.039l0.001 0.001c0.025,0.025 0.041,0.06 0.041,0.098 0,0.038 -0.016,0.073 -0.041,0.098z"/>
   </g>
  </g>
 </g>
</svg>
