<?xml version="1.0" encoding="UTF-8"?>
<!DOCTYPE svg PUBLIC "-//W3C//DTD SVG 1.1//EN" "http://www.w3.org/Graphics/SVG/1.1/DTD/svg11.dtd">
<!-- Creator: CorelDRAW 2018 (64-Bit) -->
<svg xmlns="http://www.w3.org/2000/svg" xml:space="preserve" width="40px" height="40px" version="1.1" style="shape-rendering:geometricPrecision; text-rendering:geometricPrecision; image-rendering:optimizeQuality; fill-rule:evenodd; clip-rule:evenodd"
viewBox="0 0 1.456 1.456"
 xmlns:xlink="http://www.w3.org/1999/xlink">
 <defs>
  <style type="text/css">
   <![CDATA[
    .fil0 {fill:none}
    .fil3 {fill:#00F4FF}
    .fil2 {fill:white}
    .fil1 {fill:gray;fill-rule:nonzero}
    .fil4 {fill:white;fill-rule:nonzero}
   ]]>
  </style>
 </defs>
 <g id="Layer_x0020_1">
  <metadata id="CorelCorpID_0Corel-Layer"/>
  <g id="_1576236620032">
   <rect class="fil0" width="1.456" height="1.456"/>
   <g>
    <path class="fil1" d="M0.71 0.182c0,-0.01 0.008,-0.018 0.018,-0.018 0.01,0 0.018,0.008 0.018,0.018l0 0.912c0,0.01 -0.008,0.018 -0.018,0.018 -0.01,0 -0.018,-0.008 -0.018,-0.018l0 -0.912z"/>
    <path class="fil1" d="M0.633 0.2c-0.01,0 -0.018,-0.008 -0.018,-0.018 0,-0.01 0.008,-0.018 0.018,-0.018l0.189 0c0.011,0 0.019,0.008 0.019,0.018 0,0.01 -0.008,0.018 -0.019,0.018l-0.189 0z"/>
    <path class="fil1" d="M0.322 0.455c0,-0.01 0.008,-0.018 0.018,-0.018 0.01,0 0.018,0.008 0.018,0.018l0 0.476c0,0.01 -0.008,0.018 -0.018,0.018 -0.01,0 -0.018,-0.008 -0.018,-0.018l0 -0.476z"/>
    <path class="fil1" d="M1.098 0.455c0,-0.01 0.008,-0.018 0.018,-0.018 0.01,0 0.018,0.008 0.018,0.018l0 0.476c0,0.01 -0.008,0.018 -0.018,0.018 -0.01,0 -0.018,-0.008 -0.018,-0.018l0 -0.476z"/>
    <path class="fil2" d="M1.116 0.974c0.026,0 0.047,0.021 0.047,0.048 0,0.026 -0.021,0.047 -0.047,0.047 -0.026,0 -0.047,-0.021 -0.047,-0.047 0,-0.027 0.021,-0.048 0.047,-0.048z"/>
    <path class="fil1" d="M1.116 0.956c0.018,0 0.035,0.007 0.046,0.019l0.001 0.001c0.012,0.012 0.019,0.028 0.019,0.046 0,0.018 -0.008,0.034 -0.02,0.046 -0.011,0.012 -0.028,0.019 -0.046,0.019 -0.018,0 -0.035,-0.007 -0.046,-0.019 -0.012,-0.012 -0.02,-0.028 -0.02,-0.046 0,-0.019 0.008,-0.035 0.02,-0.047 0.011,-0.012 0.028,-0.019 0.046,-0.019zm0.021 0.045c-0.006,-0.005 -0.013,-0.009 -0.021,-0.009 -0.008,0 -0.015,0.004 -0.021,0.009 -0.005,0.005 -0.008,0.012 -0.008,0.021 0,0.008 0.003,0.015 0.008,0.02 0.006,0.005 0.013,0.009 0.021,0.009 0.008,0 0.015,-0.004 0.021,-0.009 0.005,-0.005 0.008,-0.012 0.008,-0.02 0,-0.008 -0.003,-0.015 -0.008,-0.02l0 -0.001z"/>
    <path class="fil2" d="M0.34 0.714c0.026,0 0.047,0.021 0.047,0.047 0,0.026 -0.021,0.048 -0.047,0.048 -0.026,0 -0.048,-0.022 -0.048,-0.048 0,-0.026 0.022,-0.047 0.048,-0.047z"/>
    <path class="fil1" d="M0.34 0.696c0.018,0 0.034,0.007 0.046,0.019 0.012,0.012 0.019,0.028 0.019,0.046 0,0.018 -0.007,0.035 -0.019,0.047 -0.012,0.012 -0.028,0.019 -0.046,0.019 -0.018,0 -0.035,-0.007 -0.047,-0.019 -0.011,-0.012 -0.019,-0.029 -0.019,-0.047 0,-0.018 0.008,-0.034 0.019,-0.046 0.012,-0.012 0.029,-0.019 0.047,-0.019zm0.02 0.045c-0.005,-0.006 -0.012,-0.009 -0.02,-0.009 -0.008,0 -0.016,0.003 -0.021,0.009 -0.005,0.005 -0.008,0.012 -0.008,0.02 0,0.008 0.003,0.016 0.008,0.021 0.005,0.005 0.013,0.008 0.021,0.008 0.008,0 0.015,-0.003 0.02,-0.008 0.006,-0.005 0.009,-0.013 0.009,-0.021 0,-0.008 -0.003,-0.015 -0.009,-0.02z"/>
    <path class="fil2" d="M0.728 0.547c0.026,0 0.047,0.021 0.047,0.047 0,0.027 -0.021,0.048 -0.047,0.048 -0.026,0 -0.047,-0.021 -0.047,-0.048 0,-0.026 0.021,-0.047 0.047,-0.047z"/>
    <path class="fil1" d="M0.728 0.529c0.018,0 0.034,0.007 0.046,0.019 0.012,0.012 0.02,0.028 0.02,0.046 0,0.019 -0.008,0.035 -0.02,0.047 -0.012,0.012 -0.028,0.019 -0.046,0.019 -0.018,0 -0.035,-0.007 -0.046,-0.019 -0.012,-0.012 -0.02,-0.028 -0.02,-0.047 0,-0.018 0.008,-0.034 0.02,-0.046 0.011,-0.012 0.028,-0.019 0.046,-0.019zm0.021 0.045c-0.006,-0.005 -0.013,-0.009 -0.021,-0.009 -0.008,0 -0.015,0.004 -0.021,0.009 -0.005,0.005 -0.008,0.012 -0.008,0.02 0,0.008 0.003,0.016 0.008,0.021 0.006,0.005 0.013,0.009 0.021,0.009 0.008,0 0.015,-0.004 0.021,-0.009 0.005,-0.005 0.008,-0.013 0.008,-0.021 0,-0.008 -0.003,-0.015 -0.008,-0.02z"/>
    <path class="fil3" d="M0.728 1.017c0.071,0 0.128,0.058 0.128,0.129 0,0.07 -0.057,0.128 -0.128,0.128 -0.071,0 -0.128,-0.058 -0.128,-0.128 0,-0.071 0.057,-0.129 0.128,-0.129z"/>
    <path class="fil1" d="M0.728 0.999c0.04,0 0.077,0.017 0.103,0.043 0.027,0.027 0.043,0.063 0.043,0.104 0,0.04 -0.016,0.077 -0.043,0.103 -0.026,0.027 -0.063,0.043 -0.103,0.043 -0.04,0 -0.077,-0.016 -0.104,-0.043 -0.026,-0.026 -0.042,-0.063 -0.042,-0.103 0,-0.041 0.016,-0.077 0.042,-0.104 0.027,-0.026 0.064,-0.043 0.104,-0.043zm0.078 0.069c-0.02,-0.02 -0.048,-0.032 -0.078,-0.032 -0.03,0 -0.058,0.012 -0.078,0.032 -0.02,0.02 -0.032,0.047 -0.032,0.078 0,0.03 0.012,0.058 0.032,0.078 0.02,0.019 0.048,0.032 0.078,0.032 0.03,0 0.058,-0.013 0.078,-0.032 0.02,-0.02 0.032,-0.048 0.032,-0.078 0,-0.031 -0.012,-0.058 -0.032,-0.078z"/>
    <polygon class="fil3" points="0.34,0.814 0.399,0.909 0.507,0.935 0.435,1.021 0.443,1.132 0.34,1.09 0.237,1.132 0.245,1.021 0.173,0.935 0.281,0.909 "/>
    <path class="fil1" d="M0.355 0.805l0.055 0.088 0.101 0.025c0.01,0.002 0.016,0.012 0.013,0.022 0,0.003 -0.002,0.005 -0.003,0.007l-0.067 0.08 0.007 0.103c0.001,0.01 -0.007,0.019 -0.017,0.02 -0.003,0 -0.005,-0.001 -0.008,-0.002l-0.096 -0.039 -0.096 0.039c-0.01,0.004 -0.02,0 -0.024,-0.01 -0.001,-0.002 -0.002,-0.005 -0.001,-0.008l0.007 -0.103 -0.067 -0.08c-0.006,-0.007 -0.005,-0.019 0.002,-0.025 0.003,-0.002 0.005,-0.004 0.008,-0.004l0.101 -0.025 0.054 -0.088c0.006,-0.009 0.017,-0.011 0.025,-0.006 0.003,0.001 0.005,0.003 0.006,0.006zm0.028 0.113l-0.043 -0.069 -0.043 0.069c-0.003,0.004 -0.007,0.007 -0.012,0.008l-0.079 0.02 0.052 0.062c0.004,0.004 0.005,0.009 0.005,0.014l-0.006 0.082 0.076 -0.031c0.004,-0.002 0.009,-0.002 0.014,0l0.076 0.031 -0.006 -0.082c-0.001,-0.005 0.001,-0.009 0.004,-0.013l0.053 -0.063 -0.079 -0.019c-0.005,-0.001 -0.009,-0.004 -0.012,-0.009z"/>
    <polygon class="fil3" points="0.988,0.834 1.116,0.706 1.244,0.834 1.116,0.962 "/>
    <path class="fil1" d="M0.975 0.821l0.128 -0.128c0.007,-0.007 0.019,-0.007 0.026,0l0.128 0.128c0.007,0.007 0.007,0.019 0,0.026l-0.128 0.128c-0.007,0.007 -0.019,0.007 -0.026,0l-0.128 -0.128c-0.007,-0.007 -0.007,-0.019 0,-0.026zm0.141 -0.089l-0.102 0.102 0.102 0.102 0.102 -0.102 -0.102 -0.102z"/>
    <path class="fil4" d="M0.221 0.554c-0.027,0.018 -0.063,0.009 -0.081,-0.018 -0.017,-0.028 -0.009,-0.064 0.019,-0.081 0.076,-0.049 0.166,-0.087 0.265,-0.114 0.095,-0.025 0.197,-0.039 0.304,-0.039 0.107,0 0.209,0.014 0.304,0.039 0.099,0.027 0.188,0.065 0.265,0.114 0.028,0.017 0.036,0.053 0.019,0.081 -0.018,0.027 -0.054,0.036 -0.081,0.018 -0.067,-0.042 -0.146,-0.076 -0.233,-0.099 -0.085,-0.022 -0.177,-0.035 -0.274,-0.035 -0.097,0 -0.19,0.013 -0.274,0.035 -0.087,0.023 -0.166,0.057 -0.233,0.099z"/>
    <path class="fil1" d="M0.231 0.57c-0.018,0.011 -0.039,0.014 -0.058,0.01 -0.019,-0.005 -0.037,-0.017 -0.048,-0.035 -0.011,-0.017 -0.014,-0.038 -0.01,-0.057 0.004,-0.02 0.016,-0.037 0.034,-0.049 0.039,-0.024 0.082,-0.047 0.128,-0.066 0.045,-0.019 0.092,-0.036 0.142,-0.049 0.049,-0.013 0.1,-0.023 0.152,-0.03 0.051,-0.006 0.104,-0.01 0.157,-0.01 0.053,0 0.106,0.004 0.157,0.01 0.052,0.007 0.103,0.017 0.151,0.03 0.05,0.013 0.098,0.03 0.143,0.049 0.046,0.019 0.088,0.042 0.128,0.066 0.018,0.012 0.029,0.029 0.034,0.049 0.004,0.019 0.001,0.04 -0.01,0.057 -0.011,0.018 -0.029,0.03 -0.048,0.035 -0.019,0.004 -0.04,0.001 -0.058,-0.01 -0.033,-0.021 -0.069,-0.04 -0.107,-0.056 -0.038,-0.016 -0.078,-0.03 -0.121,-0.041 -0.042,-0.012 -0.086,-0.02 -0.131,-0.026 -0.044,-0.006 -0.09,-0.009 -0.138,-0.009 -0.048,0 -0.094,0.003 -0.138,0.009 -0.045,0.006 -0.089,0.014 -0.131,0.026 -0.043,0.011 -0.083,0.025 -0.121,0.041 -0.038,0.016 -0.074,0.035 -0.107,0.056zm-0.05 -0.026c0.01,0.002 0.021,0.001 0.031,-0.005 0.034,-0.022 0.072,-0.041 0.112,-0.058 0.039,-0.017 0.081,-0.032 0.125,-0.044 0.044,-0.011 0.089,-0.02 0.137,-0.026 0.046,-0.006 0.094,-0.009 0.142,-0.009 0.048,0 0.096,0.003 0.142,0.009 0.048,0.006 0.093,0.015 0.136,0.026 0.045,0.012 0.087,0.027 0.126,0.044 0.04,0.017 0.078,0.036 0.112,0.058 0.01,0.006 0.021,0.007 0.031,0.005 0.01,-0.002 0.019,-0.008 0.025,-0.018 0.006,-0.009 0.008,-0.02 0.005,-0.031 -0.002,-0.01 -0.008,-0.019 -0.018,-0.025 -0.037,-0.024 -0.078,-0.045 -0.122,-0.064 -0.044,-0.018 -0.09,-0.034 -0.138,-0.047 -0.047,-0.013 -0.096,-0.022 -0.147,-0.029 -0.049,-0.006 -0.1,-0.009 -0.152,-0.009 -0.052,0 -0.103,0.003 -0.152,0.009 -0.051,0.007 -0.1,0.016 -0.147,0.029 -0.049,0.013 -0.095,0.029 -0.138,0.047 -0.044,0.019 -0.085,0.04 -0.123,0.064 -0.009,0.006 -0.015,0.015 -0.018,0.025 -0.002,0.011 0,0.022 0.006,0.031 0.006,0.01 0.015,0.016 0.025,0.018z"/>
   </g>
  </g>
 </g>
</svg>
