<?xml version="1.0" encoding="UTF-8"?>
<!DOCTYPE svg PUBLIC "-//W3C//DTD SVG 1.1//EN" "http://www.w3.org/Graphics/SVG/1.1/DTD/svg11.dtd">
<!-- Creator: CorelDRAW 2018 (64-Bit) -->
<svg xmlns="http://www.w3.org/2000/svg" xml:space="preserve" width="40px" height="40px" version="1.1" style="shape-rendering:geometricPrecision; text-rendering:geometricPrecision; image-rendering:optimizeQuality; fill-rule:evenodd; clip-rule:evenodd"
viewBox="0 0 1.456 1.456"
 xmlns:xlink="http://www.w3.org/1999/xlink">
 <defs>
  <style type="text/css">
   <![CDATA[
    .fil0 {fill:none}
    .fil3 {fill:#00F4FF}
    .fil1 {fill:white}
    .fil2 {fill:gray;fill-rule:nonzero}
   ]]>
  </style>
 </defs>
 <g id="Layer_x0020_1">
  <metadata id="CorelCorpID_0Corel-Layer"/>
  <g id="_1576236974800">
   <rect class="fil0" width="1.456" height="1.456"/>
   <g>
    <path class="fil1" d="M1.247 0.184l0 0.826 -0.199 0c-0.042,-0.084 -0.134,-0.096 -0.134,-0.163 0,-0.269 0.064,-0.48 0.333,-0.663z"/>
    <path class="fil2" d="M1.265 0.184l0 0.826c0,0.01 -0.008,0.019 -0.018,0.019l-0.199 0c-0.007,0 -0.014,-0.005 -0.017,-0.012 -0.018,-0.035 -0.046,-0.056 -0.071,-0.076 -0.035,-0.027 -0.065,-0.049 -0.065,-0.094 0,-0.137 0.017,-0.259 0.068,-0.371 0.051,-0.112 0.136,-0.213 0.273,-0.307 0.009,-0.005 0.02,-0.003 0.026,0.005 0.002,0.003 0.003,0.007 0.003,0.01zm-0.037 0.808l0 -0.773c-0.114,0.084 -0.187,0.174 -0.232,0.272 -0.049,0.106 -0.064,0.224 -0.064,0.356 0,0.027 0.023,0.045 0.05,0.065 0.026,0.021 0.056,0.043 0.077,0.08l0.169 0z"/>
    <path class="fil1" d="M1.032 1.288c0.012,-0.068 0.021,-0.139 0.023,-0.27l0.184 0c0.003,0.13 0.012,0.202 0.024,0.27l-0.231 0z"/>
    <path class="fil2" d="M1.05 1.275c-0.002,0.01 -0.012,0.016 -0.021,0.014 -0.01,-0.001 -0.017,-0.011 -0.015,-0.021 0.006,-0.033 0.011,-0.067 0.015,-0.109 0.004,-0.043 0.007,-0.093 0.008,-0.157 0,-0.01 0.008,-0.018 0.018,-0.018l0.184 0c0.011,0 0.019,0.008 0.019,0.018l0 0.001c0.001,0.064 0.004,0.114 0.008,0.156 0.004,0.042 0.009,0.076 0.015,0.109 0.002,0.01 -0.005,0.02 -0.015,0.021 -0.009,0.002 -0.019,-0.004 -0.021,-0.014 -0.006,-0.035 -0.011,-0.07 -0.015,-0.113 -0.004,-0.039 -0.007,-0.085 -0.008,-0.142l-0.149 0c-0.001,0.057 -0.004,0.103 -0.008,0.142 -0.004,0.043 -0.009,0.078 -0.015,0.113z"/>
    <polygon class="fil3" points="1.023,1.002 1.271,1.002 1.271,1.166 1.023,1.166 "/>
    <path class="fil2" d="M1.023 0.984l0.248 0c0.01,0 0.019,0.008 0.019,0.018l0 0.164c0,0.01 -0.009,0.018 -0.019,0.018l-0.248 0c-0.01,0 -0.018,-0.008 -0.018,-0.018l0 -0.164c0,-0.01 0.008,-0.018 0.018,-0.018zm0.23 0.036l-0.211 0 0 0.128 0.211 0 0 -0.128z"/>
    <path class="fil1" d="M0.266 1.288c0.023,-0.113 0.043,-0.18 0.046,-0.363l0.181 0c0.004,0.183 0.024,0.25 0.046,0.363l-0.273 0z"/>
    <path class="fil2" d="M0.284 1.275c-0.002,0.01 -0.011,0.016 -0.021,0.014 -0.01,-0.002 -0.016,-0.011 -0.014,-0.021 0.005,-0.024 0.008,-0.039 0.011,-0.054 0.018,-0.081 0.031,-0.143 0.034,-0.293 0,-0.01 0.008,-0.018 0.018,-0.018l0.181 0c0.01,0 0.019,0.008 0.019,0.018l0 0.001c0.003,0.149 0.016,0.211 0.034,0.291 0.003,0.015 0.006,0.031 0.011,0.055 0.002,0.01 -0.004,0.019 -0.014,0.021 -0.01,0.002 -0.019,-0.004 -0.021,-0.014 -0.003,-0.015 -0.008,-0.035 -0.012,-0.054 -0.017,-0.079 -0.03,-0.141 -0.034,-0.282l-0.146 0c-0.004,0.141 -0.017,0.203 -0.034,0.283 -0.004,0.018 -0.009,0.038 -0.012,0.053z"/>
    <path class="fil1" d="M0.621 0.678c0,0.057 -0.061,0.103 -0.136,0.103l-0.164 0c-0.075,0 -0.137,-0.046 -0.137,-0.103 0,-0.155 0,-0.311 0,-0.466 0,-0.015 0.013,-0.028 0.028,-0.028l0 0c0.015,0 0.028,0.013 0.028,0.028l0 0.37c0,0.02 0.016,0.036 0.036,0.036l0 0c0.02,0 0.037,-0.016 0.037,-0.036l0 -0.37c0,-0.015 0.012,-0.028 0.027,-0.028l0 0c0.015,0 0.028,0.013 0.028,0.028l0 0.371c0,0.019 0.016,0.035 0.035,0.035l0 0c0.019,0 0.035,-0.016 0.035,-0.035l0 -0.371c0,-0.015 0.012,-0.028 0.027,-0.028l0 0c0.016,0 0.028,0.013 0.028,0.028l0 0.37c0,0.02 0.017,0.036 0.037,0.036l0 0c0.02,0 0.036,-0.016 0.036,-0.036l0 -0.37c0,-0.015 0.012,-0.028 0.028,-0.028l0 0c0.015,0 0.027,0.013 0.027,0.028 0,0.155 0,0.311 0,0.466z"/>
    <path class="fil2" d="M0.639 0.678c0,0.034 -0.018,0.065 -0.047,0.087 -0.028,0.021 -0.066,0.034 -0.107,0.034l-0.164 0c-0.042,0 -0.08,-0.013 -0.107,-0.034 -0.03,-0.022 -0.048,-0.053 -0.048,-0.087l0 -0.466c0,-0.013 0.005,-0.024 0.014,-0.032 0.008,-0.009 0.02,-0.014 0.032,-0.014 0.013,0 0.024,0.005 0.033,0.014l0.001 0.001c0.007,0.008 0.012,0.019 0.012,0.031l0 0.37c0,0.005 0.002,0.009 0.005,0.013 0.004,0.003 0.008,0.005 0.013,0.005 0.005,0 0.01,-0.002 0.013,-0.005l0.001 -0.001c0.003,-0.003 0.004,-0.008 0.004,-0.012l0 -0.37c0,-0.013 0.006,-0.024 0.014,-0.032 0.008,-0.009 0.02,-0.014 0.032,-0.014 0.013,0 0.024,0.005 0.033,0.014l0.001 0.001c0.007,0.008 0.012,0.019 0.012,0.031l0 0.371c0,0.005 0.002,0.009 0.005,0.012 0.003,0.003 0.007,0.005 0.012,0.005 0.004,0 0.009,-0.002 0.012,-0.005l0 -0.001c0.003,-0.003 0.005,-0.007 0.005,-0.011l0 -0.371c0,-0.013 0.005,-0.024 0.013,-0.032 0.008,-0.009 0.02,-0.014 0.032,-0.014 0.013,0 0.025,0.005 0.033,0.014l0.001 0.001c0.008,0.008 0.012,0.019 0.012,0.031l0 0.37c0,0.005 0.002,0.009 0.006,0.013 0.003,0.003 0.008,0.005 0.013,0.005 0.005,0 0.009,-0.002 0.012,-0.005l0.001 -0.001c0.003,-0.003 0.005,-0.008 0.005,-0.012l0 -0.37c0,-0.013 0.005,-0.024 0.013,-0.032 0.008,-0.009 0.02,-0.014 0.033,-0.014 0.012,0 0.024,0.005 0.032,0.014l0.001 0.001c0.008,0.008 0.012,0.019 0.012,0.031l0 0.466zm-0.069 0.058c0.02,-0.015 0.033,-0.036 0.033,-0.058l0 -0.466c0,-0.002 -0.001,-0.004 -0.002,-0.006l-0.001 -0.001c-0.001,-0.001 -0.004,-0.002 -0.006,-0.002 -0.003,0 -0.005,0.001 -0.007,0.002 -0.002,0.002 -0.003,0.004 -0.003,0.007l0 0.37c0,0.014 -0.006,0.027 -0.015,0.037l-0.001 0.001c-0.01,0.01 -0.023,0.016 -0.038,0.016 -0.015,0 -0.029,-0.006 -0.039,-0.016 -0.01,-0.01 -0.016,-0.023 -0.016,-0.038l0 -0.37c0,-0.002 -0.001,-0.004 -0.002,-0.006l-0.001 -0.001c-0.002,-0.001 -0.004,-0.002 -0.007,-0.002 -0.002,0 -0.004,0.001 -0.006,0.002 -0.002,0.002 -0.003,0.004 -0.003,0.007l0 0.371c0,0.014 -0.005,0.027 -0.014,0.037l-0.002 0.001c-0.009,0.009 -0.023,0.015 -0.037,0.015 -0.015,0 -0.028,-0.006 -0.038,-0.015 -0.009,-0.01 -0.015,-0.023 -0.015,-0.038l0 -0.371c0,-0.002 -0.001,-0.004 -0.003,-0.006l0 -0.001c-0.002,-0.001 -0.004,-0.002 -0.007,-0.002 -0.002,0 -0.005,0.001 -0.006,0.002 -0.002,0.002 -0.003,0.004 -0.003,0.007l0 0.37c0,0.014 -0.006,0.027 -0.015,0.037l-0.001 0.001c-0.01,0.01 -0.024,0.016 -0.039,0.016 -0.015,0 -0.029,-0.006 -0.038,-0.016 -0.01,-0.01 -0.016,-0.023 -0.016,-0.038l0 -0.37c0,-0.002 -0.001,-0.004 -0.003,-0.006l0 -0.001c-0.002,-0.001 -0.004,-0.002 -0.007,-0.002 -0.002,0 -0.005,0.001 -0.007,0.002 -0.001,0.002 -0.002,0.004 -0.002,0.007l0 0.466c0,0.022 0.012,0.043 0.033,0.058 0.021,0.017 0.051,0.027 0.085,0.027l0.164 0c0.033,0 0.063,-0.01 0.085,-0.027z"/>
    <polygon class="fil3" points="0.281,0.781 0.525,0.781 0.525,0.929 0.281,0.929 "/>
    <path class="fil2" d="M0.281 0.763l0.244 0c0.01,0 0.018,0.008 0.018,0.018l0 0.148c0,0.01 -0.008,0.018 -0.018,0.018l-0.244 0c-0.01,0 -0.018,-0.008 -0.018,-0.018l0 -0.148c0,-0.01 0.008,-0.018 0.018,-0.018zm0.226 0.036l-0.208 0 0 0.112 0.208 0 0 -0.112z"/>
   </g>
  </g>
 </g>
</svg>
