<?xml version="1.0" encoding="UTF-8"?>
<!DOCTYPE svg PUBLIC "-//W3C//DTD SVG 1.1//EN" "http://www.w3.org/Graphics/SVG/1.1/DTD/svg11.dtd">
<!-- Creator: CorelDRAW 2018 (64-Bit) -->
<svg xmlns="http://www.w3.org/2000/svg" xml:space="preserve" width="40px" height="40px" version="1.1" style="shape-rendering:geometricPrecision; text-rendering:geometricPrecision; image-rendering:optimizeQuality; fill-rule:evenodd; clip-rule:evenodd"
viewBox="0 0 1.456 1.456"
 xmlns:xlink="http://www.w3.org/1999/xlink">
 <defs>
  <style type="text/css">
   <![CDATA[
    .fil0 {fill:none}
    .fil4 {fill:#00F4FF}
    .fil1 {fill:#EAEDF2}
    .fil3 {fill:white}
    .fil2 {fill:gray;fill-rule:nonzero}
   ]]>
  </style>
 </defs>
 <g id="Layer_x0020_1">
  <metadata id="CorelCorpID_0Corel-Layer"/>
  <g id="_1576239598960">
   <rect class="fil0" width="1.456" height="1.456"/>
   <g>
    <path class="fil1" d="M1.021 0.368l0.067 0.067c0.015,0.015 0.015,0.039 0,0.053l-0.616 0.617c-0.015,0.015 -0.039,0.015 -0.054,0l-0.067 -0.067c-0.015,-0.015 -0.015,-0.039 0,-0.054l0.616 -0.616c0.015,-0.015 0.039,-0.015 0.054,0z"/>
    <path class="fil2" d="M1.034 0.355l0.067 0.067c0.011,0.011 0.016,0.025 0.016,0.04 0,0.014 -0.005,0.028 -0.016,0.039l-0.616 0.617c-0.011,0.011 -0.026,0.016 -0.04,0.016 -0.014,0 -0.029,-0.005 -0.04,-0.016l-0.067 -0.067c-0.011,-0.011 -0.016,-0.026 -0.016,-0.04 0,-0.014 0.005,-0.029 0.016,-0.04l0.617 -0.616c0.011,-0.011 0.025,-0.016 0.039,-0.016 0.015,0 0.029,0.005 0.04,0.016zm0.041 0.093l-0.067 -0.067c-0.004,-0.004 -0.009,-0.006 -0.014,-0.006 -0.005,0 -0.01,0.002 -0.014,0.006l-0.616 0.616c-0.004,0.004 -0.006,0.009 -0.006,0.014 0,0.005 0.002,0.01 0.006,0.014l0.067 0.067c0.004,0.004 0.009,0.006 0.014,0.006 0.005,0 0.01,-0.002 0.014,-0.006l0.616 -0.616c0.004,-0.004 0.006,-0.009 0.006,-0.014 0,-0.005 -0.002,-0.011 -0.006,-0.014z"/>
    <path class="fil3" d="M0.795 0.24l0.42 0.421c0.032,0.031 0.032,0.084 0,0.115l0 0c-0.031,0.032 -0.084,0.032 -0.115,0l-0.421 -0.42c-0.031,-0.032 -0.031,-0.084 0,-0.116l0 0c0.032,-0.031 0.084,-0.031 0.116,0z"/>
    <path class="fil2" d="M0.808 0.228l0.42 0.42c0.02,0.019 0.029,0.045 0.029,0.071 0,0.025 -0.009,0.051 -0.029,0.07 -0.019,0.02 -0.045,0.03 -0.071,0.03 -0.025,0 -0.051,-0.01 -0.07,-0.03l-0.42 -0.42c-0.02,-0.019 -0.03,-0.045 -0.03,-0.071 0,-0.025 0.01,-0.051 0.03,-0.07 0.019,-0.02 0.045,-0.03 0.07,-0.03 0.026,0 0.052,0.01 0.071,0.03zm0.395 0.445l-0.421 -0.42c-0.012,-0.012 -0.028,-0.018 -0.045,-0.018 -0.016,0 -0.032,0.006 -0.045,0.018 -0.012,0.013 -0.018,0.029 -0.018,0.045 0,0.017 0.006,0.033 0.018,0.045l0.42 0.421c0.013,0.012 0.029,0.018 0.045,0.018 0.017,0 0.033,-0.006 0.046,-0.018 0.012,-0.013 0.018,-0.029 0.018,-0.045 0,-0.017 -0.006,-0.033 -0.018,-0.046z"/>
    <path class="fil3" d="M0.24 0.795l0.421 0.42c0.031,0.032 0.084,0.032 0.115,0l0 0c0.032,-0.031 0.032,-0.084 0,-0.115l-0.42 -0.421c-0.032,-0.031 -0.084,-0.031 -0.116,0l0 0c-0.031,0.032 -0.031,0.084 0,0.116z"/>
    <path class="fil2" d="M0.253 0.782l0.42 0.421c0.013,0.012 0.029,0.018 0.046,0.018 0.016,0 0.032,-0.006 0.045,-0.018 0.012,-0.013 0.018,-0.029 0.018,-0.045 0,-0.017 -0.006,-0.033 -0.018,-0.046l-0.421 -0.42c-0.012,-0.012 -0.028,-0.018 -0.045,-0.018 -0.016,0 -0.032,0.006 -0.045,0.018 -0.012,0.013 -0.018,0.029 -0.018,0.045 0,0.017 0.006,0.033 0.018,0.045zm0.395 0.446l-0.42 -0.42c-0.02,-0.019 -0.03,-0.045 -0.03,-0.071 0,-0.025 0.01,-0.051 0.03,-0.07 0.019,-0.02 0.045,-0.03 0.07,-0.03 0.026,0 0.052,0.01 0.071,0.03l0.42 0.42c0.02,0.019 0.03,0.045 0.03,0.071 0,0.025 -0.01,0.051 -0.03,0.07 -0.019,0.02 -0.045,0.029 -0.07,0.029 -0.026,0 -0.052,-0.009 -0.071,-0.029z"/>
    <path class="fil3" d="M1.005 0.218l0.232 0.233c0.032,0.032 0.032,0.084 0,0.116l0 0c-0.031,0.032 -0.084,0.032 -0.115,0l-0.233 -0.233c-0.032,-0.032 -0.032,-0.084 0,-0.116l0 0c0.032,-0.031 0.084,-0.031 0.116,0z"/>
    <path class="fil2" d="M1.018 0.206l0.232 0.232c0.02,0.02 0.03,0.045 0.03,0.071 0,0.026 -0.01,0.051 -0.03,0.071 -0.019,0.019 -0.045,0.029 -0.07,0.029 -0.026,0 -0.052,-0.01 -0.071,-0.029l-0.233 -0.233c-0.019,-0.019 -0.029,-0.045 -0.029,-0.071 0,-0.025 0.01,-0.051 0.029,-0.07l0.006 -0.006 0 0c0.019,-0.016 0.042,-0.024 0.065,-0.024 0.026,0 0.051,0.01 0.071,0.03zm0.207 0.258l-0.233 -0.233c-0.012,-0.012 -0.029,-0.018 -0.045,-0.018 -0.016,0 -0.033,0.006 -0.045,0.018l-0.001 0.001c-0.012,0.012 -0.018,0.028 -0.018,0.044 0,0.017 0.007,0.033 0.019,0.045l0.232 0.233c0.013,0.012 0.029,0.018 0.046,0.018 0.016,0 0.032,-0.006 0.045,-0.018 0.012,-0.012 0.018,-0.029 0.018,-0.045 0,-0.016 -0.006,-0.033 -0.018,-0.045z"/>
    <path class="fil3" d="M0.218 1.005l0.233 0.232c0.032,0.032 0.084,0.032 0.116,0l0 0c0.032,-0.031 0.032,-0.084 0,-0.115l-0.233 -0.233c-0.032,-0.032 -0.084,-0.032 -0.116,0l0 0c-0.031,0.032 -0.031,0.084 0,0.116z"/>
    <path class="fil2" d="M0.231 0.992l0.233 0.233c0.012,0.012 0.029,0.018 0.045,0.018 0.016,0 0.033,-0.006 0.045,-0.018 0.012,-0.013 0.018,-0.029 0.018,-0.045 0,-0.017 -0.006,-0.033 -0.018,-0.046l-0.233 -0.232c-0.012,-0.012 -0.028,-0.019 -0.045,-0.019 -0.015,0 -0.031,0.006 -0.043,0.017l-0.002 0.002c-0.012,0.012 -0.018,0.029 -0.018,0.045 0,0.016 0.006,0.033 0.018,0.045zm0.207 0.258l-0.232 -0.232c-0.02,-0.02 -0.03,-0.045 -0.03,-0.071 0,-0.023 0.008,-0.046 0.024,-0.065l0 0 0.006 -0.006c0.019,-0.019 0.045,-0.029 0.07,-0.029 0.026,0 0.052,0.01 0.071,0.029l0.233 0.233c0.019,0.019 0.029,0.045 0.029,0.071 0,0.025 -0.01,0.051 -0.029,0.07 -0.02,0.02 -0.045,0.03 -0.071,0.03 -0.026,0 -0.051,-0.01 -0.071,-0.03z"/>
    <path class="fil4" d="M1.187 0.232l0.037 0.037c0.023,0.023 0.023,0.061 0,0.084l-0.001 0c-0.023,0.023 -0.06,0.023 -0.084,0l-0.036 -0.037c-0.023,-0.023 -0.023,-0.061 0,-0.084l0 0c0.023,-0.023 0.061,-0.023 0.084,0z"/>
    <path class="fil2" d="M1.2 0.219l0.036 0.037c0.015,0.015 0.023,0.035 0.023,0.055 0,0.02 -0.008,0.04 -0.023,0.055l-0.005 0.005 -0.001 0c-0.014,0.012 -0.031,0.017 -0.049,0.017 -0.019,0 -0.039,-0.007 -0.054,-0.022l-0.037 -0.037c-0.015,-0.015 -0.023,-0.035 -0.023,-0.055 0,-0.019 0.008,-0.039 0.023,-0.055 0.015,-0.015 0.035,-0.022 0.055,-0.022 0.02,0 0.04,0.007 0.055,0.022zm0.011 0.063l-0.037 -0.037c-0.008,-0.008 -0.018,-0.012 -0.029,-0.012 -0.011,0 -0.021,0.004 -0.029,0.012 -0.008,0.008 -0.012,0.019 -0.012,0.029 0,0.011 0.004,0.022 0.012,0.03l0.036 0.036c0.008,0.008 0.019,0.012 0.029,0.012 0.011,0 0.022,-0.004 0.03,-0.012l0 0c0.008,-0.008 0.012,-0.019 0.012,-0.029 0,-0.011 -0.004,-0.021 -0.012,-0.029z"/>
    <path class="fil4" d="M0.232 1.187l0.037 0.037c0.023,0.023 0.061,0.023 0.084,0l0 -0.001c0.023,-0.023 0.023,-0.06 0,-0.084l-0.037 -0.036c-0.023,-0.023 -0.061,-0.023 -0.084,0l0 0c-0.023,0.023 -0.023,0.061 0,0.084z"/>
    <path class="fil2" d="M0.245 1.174l0.037 0.037c0.008,0.008 0.018,0.012 0.029,0.012 0.01,0 0.021,-0.004 0.029,-0.012l0 0c0.008,-0.008 0.012,-0.019 0.012,-0.03 0,-0.01 -0.004,-0.021 -0.012,-0.029l-0.036 -0.036c-0.008,-0.008 -0.019,-0.012 -0.03,-0.012 -0.01,0 -0.021,0.004 -0.029,0.012 -0.008,0.008 -0.012,0.018 -0.012,0.029 0,0.011 0.004,0.021 0.012,0.029zm0.011 0.062l-0.037 -0.036c-0.015,-0.015 -0.022,-0.035 -0.022,-0.055 0,-0.02 0.007,-0.04 0.022,-0.055 0.016,-0.015 0.036,-0.023 0.055,-0.023 0.02,0 0.04,0.008 0.055,0.023l0.037 0.037c0.015,0.015 0.022,0.035 0.022,0.054 0,0.018 -0.005,0.035 -0.017,0.049l0 0.001 -0.005 0.005c-0.015,0.015 -0.035,0.023 -0.055,0.023 -0.02,0 -0.04,-0.008 -0.055,-0.023z"/>
   </g>
  </g>
 </g>
</svg>
