<?xml version="1.0" encoding="UTF-8"?>
<!DOCTYPE svg PUBLIC "-//W3C//DTD SVG 1.1//EN" "http://www.w3.org/Graphics/SVG/1.1/DTD/svg11.dtd">
<!-- Creator: CorelDRAW 2018 (64-Bit) -->
<svg xmlns="http://www.w3.org/2000/svg" xml:space="preserve" width="40px" height="40px" version="1.1" style="shape-rendering:geometricPrecision; text-rendering:geometricPrecision; image-rendering:optimizeQuality; fill-rule:evenodd; clip-rule:evenodd"
viewBox="0 0 3.096 3.096"
 xmlns:xlink="http://www.w3.org/1999/xlink">
 <defs>
  <style type="text/css">
   <![CDATA[
    .fil0 {fill:none}
    .fil4 {fill:gray}
    .fil1 {fill:white}
    .fil3 {fill:#00F4FF;fill-rule:nonzero}
    .fil2 {fill:gray;fill-rule:nonzero}
   ]]>
  </style>
 </defs>
 <g id="Layer_x0020_1">
  <metadata id="CorelCorpID_0Corel-Layer"/>
  <g id="_1576237181504">
   <rect class="fil0" width="3.096" height="3.096"/>
   <g>
    <path class="fil1" d="M0.464 0.488l2.168 0c0.042,0 0.077,0.035 0.077,0.077l0 1.966c0,0.042 -0.035,0.077 -0.077,0.077l-2.168 0c-0.042,0 -0.077,-0.035 -0.077,-0.077l0 -1.966c0,-0.042 0.035,-0.077 0.077,-0.077z"/>
    <path class="fil2" d="M0.464 0.449l2.168 0c0.032,0 0.061,0.013 0.082,0.034 0.021,0.021 0.034,0.051 0.034,0.082l0 1.966c0,0.032 -0.013,0.061 -0.034,0.082 -0.021,0.021 -0.05,0.034 -0.082,0.034l-2.168 0c-0.032,0 -0.061,-0.013 -0.082,-0.034 -0.021,-0.021 -0.034,-0.05 -0.034,-0.082l0 -1.966c0,-0.031 0.013,-0.061 0.034,-0.082 0.021,-0.021 0.05,-0.034 0.082,-0.034zm2.168 0.078l-2.168 0c-0.01,0 -0.02,0.004 -0.027,0.011 -0.007,0.007 -0.011,0.017 -0.011,0.027l0 1.966c0,0.01 0.004,0.02 0.011,0.027 0.007,0.007 0.017,0.011 0.027,0.011l2.168 0c0.01,0 0.02,-0.004 0.027,-0.011 0.007,-0.007 0.011,-0.017 0.011,-0.027l0 -1.966c0,-0.01 -0.004,-0.02 -0.011,-0.027 -0.007,-0.007 -0.017,-0.011 -0.027,-0.011z"/>
    <path class="fil3" d="M1.04 2.291l0 -1.331 0.502 0c0.088,0 0.156,0.005 0.203,0.013 0.065,0.011 0.12,0.032 0.164,0.062 0.044,0.031 0.08,0.073 0.107,0.128 0.027,0.055 0.04,0.115 0.04,0.181 0,0.113 -0.036,0.209 -0.108,0.287 -0.072,0.078 -0.202,0.117 -0.39,0.117l-0.342 0 0 0.543 -0.176 0zm0.176 -0.699l0.344 0c0.114,0 0.195,-0.021 0.243,-0.063 0.047,-0.043 0.071,-0.102 0.071,-0.179 0,-0.056 -0.014,-0.103 -0.042,-0.143 -0.028,-0.04 -0.065,-0.066 -0.111,-0.079 -0.03,-0.007 -0.085,-0.012 -0.164,-0.012l-0.341 0 0 0.476z"/>
    <path class="fil4" d="M0.963 2.291l0 -1.331c0,-0.042 0.034,-0.077 0.077,-0.077l0.502 0c0.044,0 0.084,0.001 0.121,0.004l0 0c0.038,0.002 0.069,0.005 0.095,0.01l0.004 0.001c0.036,0.006 0.069,0.015 0.1,0.026 0.033,0.013 0.064,0.029 0.091,0.047l0.003 0.003c0.027,0.019 0.051,0.041 0.072,0.067 0.022,0.026 0.041,0.055 0.057,0.088 0.016,0.033 0.028,0.068 0.036,0.104 0.009,0.036 0.013,0.074 0.013,0.111 0,0.066 -0.011,0.127 -0.033,0.184 -0.021,0.057 -0.053,0.108 -0.096,0.155 -0.046,0.05 -0.108,0.086 -0.186,0.11 -0.073,0.022 -0.16,0.033 -0.261,0.033l-0.264 0 0 0.465c0,0.042 -0.035,0.077 -0.078,0.077l-0.176 0c-0.043,0 -0.077,-0.035 -0.077,-0.077zm0.077 0l0 -1.331 0.502 0c0.088,0 0.156,0.005 0.203,0.013 0.065,0.011 0.12,0.032 0.164,0.062 0.044,0.031 0.08,0.073 0.107,0.128 0.027,0.055 0.04,0.115 0.04,0.181 0,0.113 -0.036,0.209 -0.108,0.287 -0.072,0.078 -0.202,0.117 -0.39,0.117l-0.342 0 0 0.543 -0.176 0zm0.176 -0.699l0.344 0c0.114,0 0.195,-0.021 0.243,-0.063 0.047,-0.043 0.071,-0.102 0.071,-0.179 0,-0.056 -0.014,-0.103 -0.042,-0.143 -0.028,-0.04 -0.065,-0.066 -0.111,-0.079 -0.03,-0.007 -0.085,-0.012 -0.164,-0.012l-0.341 0 0 0.476zm0.078 -0.077l0.266 0c0.051,0 0.093,-0.005 0.127,-0.013 0.028,-0.008 0.05,-0.018 0.064,-0.031 0.015,-0.013 0.026,-0.029 0.034,-0.048 0.008,-0.02 0.012,-0.044 0.012,-0.073 0,-0.021 -0.003,-0.04 -0.007,-0.056 -0.005,-0.015 -0.012,-0.03 -0.021,-0.042 -0.009,-0.013 -0.019,-0.023 -0.03,-0.031l-0.004 -0.003c-0.01,-0.007 -0.022,-0.012 -0.035,-0.015 -0.01,-0.003 -0.026,-0.005 -0.048,-0.006 -0.025,-0.002 -0.056,-0.003 -0.095,-0.003l-0.263 0 0 0.321z"/>
   </g>
  </g>
 </g>
</svg>
