<?xml version="1.0" encoding="UTF-8"?>
<!DOCTYPE svg PUBLIC "-//W3C//DTD SVG 1.1//EN" "http://www.w3.org/Graphics/SVG/1.1/DTD/svg11.dtd">
<!-- Creator: CorelDRAW 2018 (64-Bit) -->
<svg xmlns="http://www.w3.org/2000/svg" xml:space="preserve" width="40px" height="40px" version="1.1" style="shape-rendering:geometricPrecision; text-rendering:geometricPrecision; image-rendering:optimizeQuality; fill-rule:evenodd; clip-rule:evenodd"
viewBox="0 0 3.096 3.096"
 xmlns:xlink="http://www.w3.org/1999/xlink">
 <defs>
  <style type="text/css">
   <![CDATA[
    .fil0 {fill:none}
    .fil5 {fill:#00F4FF}
    .fil1 {fill:#EAEDF2}
    .fil2 {fill:gray;fill-rule:nonzero}
    .fil4 {fill:#EAEDF2;fill-rule:nonzero}
    .fil3 {fill:white;fill-rule:nonzero}
   ]]>
  </style>
 </defs>
 <g id="Layer_x0020_1">
  <metadata id="CorelCorpID_0Corel-Layer"/>
  <g id="_1576228647168">
   <rect class="fil0" width="3.096" height="3.096"/>
   <g>
    <path class="fil1" d="M0.624 2.442l0.462 0 0 0.223c0,0.048 -0.04,0.088 -0.089,0.088l-0.284 0c-0.049,0 -0.089,-0.04 -0.089,-0.088l0 -0.223z"/>
    <path class="fil2" d="M0.624 2.403l0.5 0 0 0.262c0,0.035 -0.014,0.066 -0.037,0.089 -0.023,0.023 -0.055,0.038 -0.09,0.038l-0.284 0c-0.035,0 -0.067,-0.015 -0.09,-0.038 -0.023,-0.023 -0.037,-0.054 -0.037,-0.089l0 -0.262 0.038 0zm0.423 0.077l-0.384 0 0 0.185c0,0.013 0.006,0.026 0.014,0.035 0.01,0.009 0.022,0.014 0.036,0.014l0.284 0c0.014,0 0.026,-0.005 0.035,-0.014 0.009,-0.009 0.015,-0.022 0.015,-0.035l0 -0.185z"/>
    <path class="fil1" d="M2.472 2.442l-0.461 0 0 0.223c0,0.048 0.039,0.088 0.088,0.088l0.284 0c0.049,0 0.089,-0.04 0.089,-0.088l0 -0.223z"/>
    <path class="fil2" d="M2.433 2.48l-0.384 0 0 0.185c0,0.013 0.006,0.026 0.015,0.035 0.009,0.009 0.021,0.014 0.035,0.014l0.284 0c0.014,0 0.027,-0.005 0.036,-0.014 0.009,-0.009 0.014,-0.022 0.014,-0.035l0 -0.185zm-0.422 -0.077l0.5 0 0 0.262c0,0.035 -0.015,0.066 -0.038,0.089 -0.023,0.023 -0.055,0.038 -0.09,0.038l-0.284 0c-0.035,0 -0.067,-0.015 -0.09,-0.038 -0.023,-0.023 -0.037,-0.054 -0.037,-0.089l0 -0.262 0.039 0z"/>
    <path class="fil3" d="M2.337 2.558l-1.578 0c-0.119,0 -0.215,-0.083 -0.215,-0.185l0 -1.845c0,-0.102 0.096,-0.185 0.215,-0.185l1.578 0c0.119,0 0.215,0.083 0.215,0.185l0 1.845c0,0.102 -0.096,0.185 -0.215,0.185z"/>
    <path class="fil2" d="M2.337 2.593l-1.578 0c-0.071,0 -0.135,-0.025 -0.182,-0.065 -0.046,-0.04 -0.075,-0.094 -0.075,-0.155l0 -1.845c0,-0.061 0.029,-0.116 0.075,-0.155 0.047,-0.04 0.111,-0.065 0.182,-0.065l1.578 0c0.071,0 0.135,0.025 0.182,0.065 0.046,0.039 0.075,0.094 0.075,0.155l0 1.845c0,0.061 -0.029,0.115 -0.075,0.155 -0.047,0.04 -0.111,0.065 -0.182,0.065zm-1.578 -0.07l1.578 0c0.048,0 0.091,-0.017 0.122,-0.044 0.032,-0.027 0.051,-0.064 0.051,-0.106l0 -1.845c0,-0.042 -0.019,-0.079 -0.051,-0.106 -0.031,-0.027 -0.074,-0.044 -0.122,-0.044l-1.578 0c-0.048,0 -0.091,0.017 -0.122,0.044 -0.032,0.027 -0.051,0.064 -0.051,0.106l0 1.845c0,0.042 0.019,0.079 0.051,0.106 0.031,0.027 0.074,0.044 0.122,0.044z"/>
    <polygon class="fil4" points="0.544,0.595 2.552,0.595 2.552,1.72 0.544,1.72 "/>
    <path class="fil2" d="M0.544 0.556l2.008 0c0.022,0 0.04,0.018 0.04,0.039l0 1.125c0,0.022 -0.018,0.039 -0.04,0.039l-2.008 0c-0.022,0 -0.04,-0.017 -0.04,-0.039l0 -1.125c0,-0.021 0.018,-0.039 0.04,-0.039zm1.968 0.077l-1.928 0 0 1.049 1.928 0 0 -1.049z"/>
    <path class="fil3" d="M2.552 0.785l0 -0.145 0.321 0.176c0.089,0.06 0.111,0.462 -0.056,0.462 -0.056,0 -0.106,-0.026 -0.106,-0.081l0 -0.318 -0.159 -0.094z"/>
    <path class="fil2" d="M2.51 0.785l0 -0.145c0,-0.019 0.019,-0.035 0.042,-0.035 0.01,0 0.019,0.003 0.026,0.008l0.32 0.176c0.052,0.034 0.085,0.148 0.085,0.258 0,0.037 -0.003,0.074 -0.011,0.108 -0.007,0.035 -0.019,0.067 -0.036,0.092 -0.027,0.041 -0.066,0.066 -0.119,0.066 -0.039,0 -0.078,-0.01 -0.106,-0.032l-0.002 -0.002c-0.025,-0.019 -0.04,-0.047 -0.04,-0.082l0 -0.3 -0.141 -0.084c-0.011,-0.006 -0.018,-0.017 -0.018,-0.028zm0.084 -0.08l0 0.062 0.138 0.082c0.013,0.006 0.021,0.018 0.021,0.03l0 0.318c0,0.014 0.005,0.024 0.013,0.031l0.001 0.001c0.012,0.009 0.03,0.013 0.05,0.013 0.018,0 0.034,-0.011 0.046,-0.029 0.012,-0.019 0.021,-0.043 0.027,-0.071 0.007,-0.029 0.01,-0.062 0.01,-0.095 0,-0.091 -0.021,-0.18 -0.053,-0.203l-0.253 -0.139z"/>
    <path class="fil3" d="M0.544 0.785l0 -0.145 -0.32 0.176c-0.09,0.06 -0.111,0.462 0.055,0.462 0.056,0 0.106,-0.026 0.106,-0.081l0 -0.318 0.159 -0.094z"/>
    <path class="fil2" d="M0.502 0.767l0 -0.062 -0.253 0.139c-0.032,0.023 -0.052,0.112 -0.052,0.203 0,0.033 0.003,0.066 0.009,0.095 0.006,0.028 0.015,0.052 0.027,0.071 0.013,0.018 0.028,0.029 0.046,0.029 0.02,0 0.038,-0.004 0.05,-0.013l0.001 -0.001c0.008,-0.007 0.014,-0.017 0.014,-0.031l0 -0.318c0,-0.012 0.008,-0.024 0.02,-0.03l0.138 -0.082zm0.084 -0.127l0 0.145c0,0.011 -0.006,0.022 -0.018,0.028l-0.141 0.084 0 0.3c0,0.035 -0.015,0.063 -0.039,0.082l-0.003 0.002c-0.028,0.022 -0.066,0.032 -0.106,0.032 -0.053,0 -0.092,-0.025 -0.118,-0.066 -0.017,-0.025 -0.03,-0.057 -0.037,-0.092 -0.008,-0.034 -0.011,-0.071 -0.011,-0.108 0,-0.11 0.033,-0.224 0.085,-0.258l0.32 -0.176c0.007,-0.005 0.016,-0.008 0.026,-0.008 0.023,0 0.042,0.016 0.042,0.035z"/>
    <path class="fil4" d="M1.263 2.342l0.57 0c0.101,0 0.141,0.048 0.181,0.09l0.123 0.126 -1.178 0 0.123 -0.126c0.041,-0.042 0.08,-0.09 0.181,-0.09z"/>
    <path class="fil2" d="M1.263 2.306l0.57 0c0.113,0 0.16,0.049 0.204,0.095 0.043,0.045 0.087,0.089 0.131,0.134 0.014,0.015 0.012,0.037 -0.005,0.05 -0.007,0.005 -0.017,0.008 -0.026,0.008l-1.178 0c-0.022,0 -0.04,-0.016 -0.04,-0.035 0,-0.01 0.004,-0.019 0.011,-0.025 0.043,-0.044 0.086,-0.088 0.129,-0.132 0.044,-0.046 0.091,-0.095 0.204,-0.095zm0.57 0.071l-0.57 0c-0.076,0 -0.11,0.036 -0.143,0.07 -0.025,0.025 -0.049,0.05 -0.073,0.075l1.003 0c-0.025,-0.025 -0.049,-0.05 -0.074,-0.075 -0.032,-0.034 -0.067,-0.07 -0.143,-0.07z"/>
    <path class="fil5" d="M0.811 1.939c0.067,0.007 0.169,0.046 0.339,0.111 0.051,0.02 0.048,0.052 0.048,0.082 0,0.03 0,0.077 -0.054,0.08 -0.115,0.006 -0.439,0.055 -0.439,-0.115 0,-0.065 0,-0.022 0,-0.086 0,-0.072 0.077,-0.074 0.106,-0.072z"/>
    <path class="fil2" d="M0.814 1.901c0.072,0.007 0.173,0.046 0.339,0.109l0.011 0.004c0.073,0.028 0.073,0.072 0.073,0.114l0 0.004c0,0.044 0,0.113 -0.091,0.118l-0.046 0.004c-0.043,0.003 -0.098,0.008 -0.152,0.008 -0.14,0 -0.282,-0.029 -0.282,-0.165l0 -0.086 0.001 -0.013c0.004,-0.043 0.027,-0.068 0.056,-0.082 0.024,-0.013 0.052,-0.016 0.073,-0.016 0.006,0 0.012,0.001 0.018,0.001zm0.312 0.181c-0.16,-0.061 -0.258,-0.099 -0.319,-0.104l-0.011 0c-0.012,0 -0.027,0.001 -0.038,0.007 -0.007,0.003 -0.013,0.01 -0.015,0.021 -0.002,0.026 0,0.063 0,0.091 0,0.072 0.103,0.087 0.205,0.087 0.052,0 0.105,-0.004 0.146,-0.007 0.017,-0.002 0.031,-0.003 0.047,-0.004 0.019,-0.001 0.019,-0.025 0.019,-0.041l0 -0.004c0,-0.016 0,-0.032 -0.024,-0.042l-0.01 -0.004z"/>
    <path class="fil5" d="M2.285 1.939c-0.067,0.007 -0.169,0.046 -0.339,0.111 -0.051,0.02 -0.048,0.052 -0.048,0.082 0,0.03 0,0.077 0.055,0.08 0.114,0.006 0.439,0.055 0.439,-0.115 0,-0.065 0,-0.022 0,-0.086 0,-0.072 -0.078,-0.074 -0.107,-0.072z"/>
    <path class="fil2" d="M2.289 1.978c-0.061,0.005 -0.159,0.043 -0.319,0.104l-0.01 0.004c-0.024,0.01 -0.024,0.026 -0.024,0.042l0 0.004c0,0.016 0,0.04 0.019,0.041 0.016,0.001 0.031,0.002 0.047,0.004 0.042,0.003 0.094,0.007 0.146,0.007 0.102,0 0.205,-0.015 0.205,-0.087 0,-0.028 0.002,-0.065 0,-0.091 -0.001,-0.011 -0.007,-0.018 -0.015,-0.021 -0.011,-0.006 -0.026,-0.007 -0.038,-0.007l-0.011 0zm-0.346 0.032c0.166,-0.063 0.267,-0.102 0.339,-0.109 0.006,0 0.012,-0.001 0.018,-0.001 0.021,0 0.049,0.003 0.074,0.016 0.028,0.014 0.051,0.039 0.055,0.082l0.001 0.013 0 0.086c0,0.136 -0.141,0.165 -0.282,0.165 -0.054,0 -0.109,-0.005 -0.152,-0.008l-0.045 -0.004c-0.092,-0.005 -0.092,-0.074 -0.092,-0.118l0 -0.004c0,-0.042 0,-0.086 0.074,-0.114l0.01 -0.004z"/>
   </g>
  </g>
 </g>
</svg>
