<?xml version="1.0" encoding="UTF-8"?>
<!DOCTYPE svg PUBLIC "-//W3C//DTD SVG 1.1//EN" "http://www.w3.org/Graphics/SVG/1.1/DTD/svg11.dtd">
<!-- Creator: CorelDRAW 2018 (64-Bit) -->
<svg xmlns="http://www.w3.org/2000/svg" xml:space="preserve" width="40px" height="40px" version="1.1" style="shape-rendering:geometricPrecision; text-rendering:geometricPrecision; image-rendering:optimizeQuality; fill-rule:evenodd; clip-rule:evenodd"
viewBox="0 0 3.096 3.096"
 xmlns:xlink="http://www.w3.org/1999/xlink">
 <defs>
  <style type="text/css">
   <![CDATA[
    .fil0 {fill:none}
    .fil6 {fill:#00F4FF}
    .fil5 {fill:#EAEDF2}
    .fil3 {fill:white}
    .fil2 {fill:gray;fill-rule:nonzero}
    .fil4 {fill:gray;fill-rule:nonzero}
    .fil1 {fill:white;fill-rule:nonzero}
   ]]>
  </style>
 </defs>
 <g id="Layer_x0020_1">
  <metadata id="CorelCorpID_0Corel-Layer"/>
  <g id="_1576237171104">
   <rect class="fil0" width="3.096" height="3.096"/>
   <g>
    <path class="fil1" d="M1.766 0.698c-0.226,-0.17 -0.5,-0.191 -0.61,-0.045l-0.169 0.223c-0.109,0.146 -0.015,0.404 0.211,0.574l0.029 0.022 0.567 -0.752 -0.028 -0.022z"/>
    <path class="fil2" d="M1.787 0.666l0.031 0.023c0.017,0.013 0.02,0.037 0.007,0.054l-0.568 0.752c-0.012,0.017 -0.037,0.02 -0.054,0.008l-0.028 -0.022c-0.119,-0.09 -0.204,-0.203 -0.244,-0.314 -0.043,-0.116 -0.038,-0.23 0.026,-0.314l0.168 -0.223c0.063,-0.084 0.172,-0.121 0.295,-0.111 0.117,0.008 0.249,0.058 0.367,0.147zm-0.047 0.061c-0.106,-0.079 -0.223,-0.124 -0.325,-0.131 -0.098,-0.008 -0.182,0.019 -0.228,0.08l-0.169 0.223c-0.046,0.062 -0.049,0.15 -0.015,0.242 0.036,0.096 0.11,0.196 0.216,0.277l0.521 -0.691z"/>
    <path class="fil1" d="M1.176 0.589c-0.141,-0.107 -0.296,-0.143 -0.343,-0.08l-0.073 0.096c-0.047,0.063 0.03,0.201 0.171,0.308l0.018 0.014 0.245 -0.324 -0.018 -0.014z"/>
    <path class="fil2" d="M1.14 0.61c-0.063,-0.044 -0.126,-0.074 -0.18,-0.087 -0.047,-0.011 -0.083,-0.009 -0.096,0.009l-0.073 0.096c-0.013,0.018 -0.006,0.053 0.018,0.096 0.027,0.048 0.073,0.101 0.133,0.148l0.198 -0.262zm-0.162 -0.162c0.067,0.016 0.146,0.054 0.221,0.11l0.018 0.014c0.017,0.013 0.021,0.037 0.008,0.054l-0.245 0.324c-0.013,0.017 -0.037,0.02 -0.054,0.007l-0.018 -0.013c-0.075,-0.057 -0.133,-0.123 -0.167,-0.183 -0.038,-0.069 -0.045,-0.135 -0.012,-0.179l0.073 -0.096c0.034,-0.045 0.099,-0.056 0.176,-0.038z"/>
    <path class="fil2" d="M0.799 0.798c0.013,-0.017 0.037,-0.019 0.054,-0.006 0.016,0.014 0.019,0.038 0.006,0.054l-0.587 0.729c-0.013,0.017 -0.038,0.02 -0.054,0.006 -0.017,-0.013 -0.02,-0.037 -0.006,-0.054l0.587 -0.729z"/>
    <path class="fil2" d="M0.211 1.575c-0.013,-0.017 -0.01,-0.041 0.007,-0.054 0.017,-0.013 0.041,-0.01 0.054,0.007l0.524 0.674c0.013,0.017 0.01,0.041 -0.007,0.054 -0.017,0.013 -0.041,0.01 -0.054,-0.007l-0.524 -0.674z"/>
    <path class="fil3" d="M0.625 2.226l0.281 0c0.13,0 0.237,0.107 0.237,0.237l0 0 -0.755 0 0 0c0,-0.13 0.106,-0.237 0.237,-0.237z"/>
    <path class="fil4" d="M0.625 2.187l0.281 0c0.076,0 0.145,0.031 0.195,0.081 0.05,0.05 0.081,0.119 0.081,0.195l0 0.039 -0.833 0 0 -0.039c0,-0.076 0.031,-0.145 0.081,-0.195 0.05,-0.05 0.119,-0.081 0.195,-0.081zm0.281 0.078l-0.281 0c-0.055,0 -0.104,0.022 -0.14,0.058 -0.028,0.027 -0.047,0.062 -0.055,0.102l0.671 0c-0.008,-0.04 -0.028,-0.075 -0.055,-0.102 -0.036,-0.036 -0.086,-0.058 -0.14,-0.058z"/>
    <path class="fil3" d="M2.31 0.728l0.382 0c0.038,0 0.069,0.032 0.069,0.07l0 1.665 -0.521 0 0 -1.665c0,-0.038 0.032,-0.07 0.07,-0.07z"/>
    <path class="fil4" d="M2.31 0.69l0.382 0c0.03,0 0.057,0.012 0.076,0.032 0.02,0.019 0.032,0.046 0.032,0.076l0 1.704 -0.598 0 0 -1.704c0,-0.03 0.012,-0.057 0.032,-0.076 0.019,-0.02 0.046,-0.032 0.076,-0.032zm0.382 0.077l-0.382 0c-0.008,0 -0.016,0.004 -0.022,0.009 -0.005,0.006 -0.009,0.014 -0.009,0.022l0 1.627 0.444 0 0 -1.627c0,-0.009 -0.004,-0.016 -0.009,-0.022 -0.006,-0.005 -0.014,-0.009 -0.022,-0.009z"/>
    <path class="fil5" d="M1.939 1.023l0.252 0.05c0.026,0.005 0.042,0.029 0.037,0.055l-0.264 1.335 -0.357 0c0,-0.003 0.001,-0.007 0.001,-0.01l0.276 -1.393c0.005,-0.026 0.03,-0.042 0.055,-0.037z"/>
    <path class="fil4" d="M1.947 0.985l0.252 0.05c0.023,0.004 0.042,0.018 0.054,0.036 0.013,0.018 0.018,0.041 0.013,0.064l-0.27 1.367 -0.426 0 -0.001 -0.037c0,-0.009 0,-0.012 0.001,-0.02l0.276 -1.393c0.005,-0.023 0.019,-0.042 0.037,-0.054 0.018,-0.013 0.041,-0.018 0.064,-0.013zm0.237 0.126l-0.252 -0.05c-0.002,-0.001 -0.005,0 -0.006,0.001 -0.002,0.001 -0.003,0.003 -0.004,0.005l-0.269 1.358 0.279 0 0.258 -1.305c0.001,-0.002 0,-0.004 -0.001,-0.006 -0.001,-0.002 -0.003,-0.003 -0.005,-0.003z"/>
    <path class="fil6" d="M2.364 0.979l0.274 0c0.009,0 0.016,0.008 0.016,0.016l0 0.182c0,0.009 -0.007,0.016 -0.016,0.016l-0.274 0c-0.009,0 -0.016,-0.007 -0.016,-0.016l0 -0.182c0,-0.008 0.007,-0.016 0.016,-0.016z"/>
    <path class="fil4" d="M2.364 0.941l0.274 0c0.015,0 0.029,0.006 0.039,0.016 0.01,0.01 0.016,0.023 0.016,0.038l0 0.182c0,0.015 -0.006,0.029 -0.016,0.038 -0.01,0.01 -0.024,0.016 -0.039,0.016l-0.274 0c-0.015,0 -0.029,-0.006 -0.039,-0.016 -0.01,-0.009 -0.016,-0.023 -0.016,-0.038l0 -0.182c0,-0.015 0.006,-0.028 0.016,-0.038 0.01,-0.01 0.024,-0.016 0.039,-0.016zm0.251 0.077l-0.228 0 0 0.136 0.228 0 0 -0.136z"/>
    <path class="fil6" d="M2.501 2.048l0 0c0.055,0 0.101,0.045 0.101,0.101l0 0c0,0.055 -0.046,0.101 -0.101,0.101l0 0c-0.055,0 -0.101,-0.046 -0.101,-0.101l0 0c0,-0.056 0.046,-0.101 0.101,-0.101z"/>
    <path class="fil4" d="M2.501 2.009c0.038,0 0.073,0.016 0.098,0.041 0.026,0.026 0.041,0.06 0.041,0.099 0,0.038 -0.015,0.073 -0.041,0.098 -0.025,0.026 -0.06,0.041 -0.098,0.041 -0.038,0 -0.073,-0.015 -0.099,-0.041 -0.025,-0.025 -0.04,-0.06 -0.04,-0.098 0,-0.039 0.015,-0.073 0.04,-0.099 0.026,-0.025 0.061,-0.041 0.099,-0.041zm0 0.078c-0.017,0 -0.033,0.007 -0.044,0.018 -0.011,0.011 -0.018,0.027 -0.018,0.044 0,0.017 0.007,0.032 0.018,0.044 0.011,0.011 0.027,0.018 0.044,0.018 0.017,0 0.033,-0.007 0.044,-0.018 0.011,-0.012 0.018,-0.027 0.018,-0.044 0,-0.017 -0.007,-0.033 -0.018,-0.044 -0.011,-0.011 -0.027,-0.018 -0.044,-0.018z"/>
    <path class="fil1" d="M0.242 1.387c-0.091,0 -0.165,0.073 -0.165,0.164 0,0.091 0.074,0.165 0.165,0.165 0.091,0 0.164,-0.074 0.164,-0.165 0,-0.091 -0.073,-0.164 -0.164,-0.164z"/>
    <path class="fil2" d="M0.242 1.425c-0.035,0 -0.066,0.014 -0.089,0.037 -0.023,0.023 -0.037,0.054 -0.037,0.089 0,0.035 0.014,0.067 0.037,0.089 0.023,0.023 0.054,0.037 0.089,0.037 0.035,0 0.066,-0.014 0.089,-0.037 0.023,-0.022 0.037,-0.054 0.037,-0.089 0,-0.035 -0.014,-0.066 -0.037,-0.089 -0.023,-0.023 -0.054,-0.037 -0.089,-0.037zm-0.144 -0.017c0.037,-0.037 0.088,-0.06 0.144,-0.06 0.056,0 0.107,0.023 0.143,0.059l0 0.001c0.037,0.037 0.06,0.087 0.06,0.143 0,0.056 -0.023,0.107 -0.059,0.144l-0.001 0c-0.036,0.037 -0.087,0.059 -0.143,0.059 -0.056,0 -0.107,-0.022 -0.144,-0.059l0 0c-0.037,-0.037 -0.059,-0.088 -0.059,-0.144 0,-0.056 0.022,-0.106 0.059,-0.143z"/>
    <path class="fil4" d="M0.158 2.502c-0.022,0 -0.039,-0.017 -0.039,-0.039 0,-0.021 0.017,-0.038 0.039,-0.038l2.861 0c0.021,0 0.039,0.017 0.039,0.038 0,0.022 -0.018,0.039 -0.039,0.039l-2.861 0z"/>
   </g>
  </g>
 </g>
</svg>
