<?xml version="1.0" encoding="UTF-8"?>
<!DOCTYPE svg PUBLIC "-//W3C//DTD SVG 1.1//EN" "http://www.w3.org/Graphics/SVG/1.1/DTD/svg11.dtd">
<!-- Creator: CorelDRAW 2018 (64-Bit) -->
<svg xmlns="http://www.w3.org/2000/svg" xml:space="preserve" width="40px" height="40px" version="1.1" style="shape-rendering:geometricPrecision; text-rendering:geometricPrecision; image-rendering:optimizeQuality; fill-rule:evenodd; clip-rule:evenodd"
viewBox="0 0 3.096 3.096"
 xmlns:xlink="http://www.w3.org/1999/xlink">
 <defs>
  <style type="text/css">
   <![CDATA[
    .fil0 {fill:none}
    .fil5 {fill:#00F4FF}
    .fil3 {fill:#EAEDF2}
    .fil1 {fill:white}
    .fil2 {fill:gray;fill-rule:nonzero}
    .fil4 {fill:gray;fill-rule:nonzero}
   ]]>
  </style>
 </defs>
 <g id="Layer_x0020_1">
  <metadata id="CorelCorpID_0Corel-Layer"/>
  <g id="_1539861306336">
   <rect class="fil0" width="3.096" height="3.096"/>
   <g>
    <path class="fil1" d="M2.625 2.143l0 -1.414c0,-0.034 -0.027,-0.061 -0.061,-0.061l-2.032 0c-0.033,0 -0.061,0.027 -0.061,0.061l0 1.842c0,0.033 0.028,0.061 0.061,0.061l1.604 0 0.489 -0.489z"/>
    <path class="fil2" d="M2.586 2.127l0 -1.398c0,-0.006 -0.002,-0.012 -0.006,-0.016 -0.004,-0.004 -0.01,-0.006 -0.016,-0.006l-2.032 0c-0.006,0 -0.012,0.002 -0.016,0.006 -0.004,0.004 -0.006,0.01 -0.006,0.016l0 1.842c0,0.006 0.002,0.012 0.006,0.015 0.004,0.005 0.01,0.007 0.016,0.007l1.588 0 0.466 -0.466zm0.078 -1.398l0 1.414c0,0.01 -0.004,0.02 -0.011,0.027l-0.489 0.489c-0.007,0.007 -0.017,0.011 -0.028,0.011l-1.604 0c-0.027,0 -0.052,-0.011 -0.07,-0.029l0 0c-0.018,-0.018 -0.03,-0.043 -0.03,-0.07l0 -1.842c0,-0.027 0.012,-0.052 0.03,-0.071 0.018,-0.018 0.043,-0.029 0.07,-0.029l2.032 0c0.027,0 0.052,0.011 0.07,0.029 0.019,0.019 0.03,0.044 0.03,0.071z"/>
    <path class="fil3" d="M2.625 2.143l-0.428 0c-0.033,0 -0.061,0.028 -0.061,0.061l0 0.428 0.489 -0.489z"/>
    <path class="fil2" d="M2.532 2.182l-0.335 0c-0.006,0 -0.011,0.002 -0.015,0.006 -0.004,0.004 -0.007,0.01 -0.007,0.016l0 0.334 0.357 -0.356zm-0.335 -0.078l0.428 0c0.01,0 0.02,0.004 0.028,0.012 0.015,0.015 0.015,0.039 0,0.054l-0.489 0.489c-0.007,0.007 -0.017,0.011 -0.028,0.011 -0.021,0 -0.038,-0.017 -0.038,-0.038l0 -0.428c0,-0.027 0.011,-0.052 0.029,-0.07 0.018,-0.018 0.043,-0.03 0.07,-0.03z"/>
    <path class="fil3" d="M2.11 0.464l0 0c-0.042,0 -0.077,0.035 -0.077,0.077l0 0.254c0,0.042 0.035,0.076 0.077,0.076l0 0c0.042,0 0.076,-0.034 0.076,-0.076l0 -0.254c0,-0.042 -0.034,-0.077 -0.076,-0.077z"/>
    <path class="fil2" d="M2.11 0.503c-0.011,0 -0.02,0.004 -0.027,0.011 -0.007,0.007 -0.011,0.017 -0.011,0.027l0 0.254c0,0.01 0.004,0.02 0.011,0.026 0.007,0.007 0.016,0.012 0.027,0.012 0.01,0 0.019,-0.005 0.026,-0.012 0.007,-0.006 0.011,-0.016 0.011,-0.026l0 -0.254c0,-0.01 -0.004,-0.02 -0.011,-0.027l-0.001 -0.001c-0.007,-0.006 -0.016,-0.01 -0.025,-0.01zm-0.082 -0.043c0.021,-0.021 0.05,-0.034 0.082,-0.034 0.03,0 0.058,0.012 0.078,0.031l0.003 0.003c0.021,0.02 0.034,0.049 0.034,0.081l0 0.254c0,0.031 -0.013,0.06 -0.034,0.081 -0.021,0.021 -0.05,0.034 -0.081,0.034 -0.032,0 -0.061,-0.013 -0.082,-0.034 -0.021,-0.021 -0.034,-0.05 -0.034,-0.081l0 -0.254c0,-0.032 0.013,-0.06 0.034,-0.081z"/>
    <path class="fil3" d="M1.548 0.464l0 0c-0.042,0 -0.076,0.035 -0.076,0.077l0 0.254c0,0.042 0.034,0.076 0.076,0.076l0 0c0.042,0 0.077,-0.034 0.077,-0.076l0 -0.254c0,-0.042 -0.035,-0.077 -0.077,-0.077z"/>
    <path class="fil2" d="M1.548 0.503c-0.01,0 -0.02,0.004 -0.027,0.011 -0.007,0.007 -0.011,0.017 -0.011,0.027l0 0.254c0,0.01 0.004,0.02 0.011,0.026 0.007,0.007 0.017,0.012 0.027,0.012 0.01,0 0.02,-0.005 0.027,-0.012 0.007,-0.006 0.011,-0.016 0.011,-0.026l0 -0.254c0,-0.01 -0.004,-0.02 -0.011,-0.027l-0.002 -0.001c-0.006,-0.006 -0.015,-0.01 -0.025,-0.01zm-0.081 -0.043c0.021,-0.021 0.05,-0.034 0.081,-0.034 0.03,0 0.058,0.012 0.079,0.031l0.003 0.003c0.02,0.02 0.033,0.049 0.033,0.081l0 0.254c0,0.031 -0.013,0.06 -0.033,0.081 -0.021,0.021 -0.05,0.034 -0.082,0.034 -0.032,0 -0.06,-0.013 -0.081,-0.034 -0.021,-0.021 -0.034,-0.05 -0.034,-0.081l0 -0.254c0,-0.032 0.013,-0.06 0.034,-0.081z"/>
    <path class="fil3" d="M0.987 0.464l0 0c-0.042,0 -0.076,0.035 -0.076,0.077l0 0.254c0,0.042 0.034,0.076 0.076,0.076l0 0c0.042,0 0.077,-0.034 0.077,-0.076l0 -0.254c0,-0.042 -0.035,-0.077 -0.077,-0.077z"/>
    <path class="fil2" d="M0.987 0.503c-0.01,0 -0.02,0.004 -0.026,0.011 -0.007,0.007 -0.012,0.017 -0.012,0.027l0 0.254c0,0.01 0.005,0.02 0.011,0.026 0.007,0.007 0.017,0.012 0.027,0.012 0.011,0 0.02,-0.005 0.027,-0.012 0.007,-0.006 0.011,-0.016 0.011,-0.026l0 -0.254c0,-0.01 -0.004,-0.02 -0.011,-0.027l-0.001 -0.001c-0.007,-0.006 -0.016,-0.01 -0.026,-0.01zm-0.081 -0.043c0.021,-0.021 0.05,-0.034 0.081,-0.034 0.031,0 0.058,0.012 0.079,0.031l0.003 0.003c0.021,0.02 0.034,0.049 0.034,0.081l0 0.254c0,0.031 -0.013,0.06 -0.034,0.081 -0.021,0.021 -0.05,0.034 -0.082,0.034 -0.031,0 -0.06,-0.013 -0.081,-0.034 -0.021,-0.021 -0.034,-0.05 -0.034,-0.081l0 -0.254c0,-0.032 0.013,-0.06 0.034,-0.081z"/>
    <path class="fil4" d="M0.781 1.472c-0.022,0 -0.039,-0.017 -0.039,-0.039 0,-0.021 0.017,-0.038 0.039,-0.038l0.154 0c0.022,0 0.039,0.017 0.039,0.038 0,0.022 -0.017,0.039 -0.039,0.039l-0.154 0z"/>
    <path class="fil4" d="M1.316 1.472c-0.021,0 -0.038,-0.017 -0.038,-0.039 0,-0.021 0.017,-0.038 0.038,-0.038l0.155 0c0.022,0 0.039,0.017 0.039,0.038 0,0.022 -0.017,0.039 -0.039,0.039l-0.155 0z"/>
    <path class="fil4" d="M0.781 1.998c-0.022,0 -0.039,-0.017 -0.039,-0.039 0,-0.021 0.017,-0.038 0.039,-0.038l0.154 0c0.022,0 0.039,0.017 0.039,0.038 0,0.022 -0.017,0.039 -0.039,0.039l-0.154 0z"/>
    <path class="fil4" d="M1.316 1.998c-0.021,0 -0.038,-0.017 -0.038,-0.039 0,-0.021 0.017,-0.038 0.038,-0.038l0.155 0c0.022,0 0.039,0.017 0.039,0.038 0,0.022 -0.017,0.039 -0.039,0.039l-0.155 0z"/>
    <polygon class="fil5" points="2.069,1.145 2.19,1.343 2.417,1.398 2.266,1.575 2.284,1.807 2.069,1.718 1.853,1.807 1.871,1.575 1.72,1.398 1.947,1.343 "/>
    <path class="fil2" d="M2.102 1.125l0.113 0.185 0.211 0.05c0.02,0.005 0.033,0.026 0.028,0.047 -0.001,0.006 -0.004,0.011 -0.008,0.016l-0.141 0.165 0.017 0.216c0.002,0.022 -0.014,0.04 -0.035,0.042 -0.007,0 -0.014,-0.001 -0.021,-0.004l-0.197 -0.082 -0.201 0.083c-0.02,0.008 -0.042,-0.001 -0.05,-0.021 -0.003,-0.006 -0.004,-0.012 -0.003,-0.018l0.017 -0.216 -0.141 -0.165c-0.014,-0.016 -0.012,-0.041 0.004,-0.054 0.005,-0.005 0.012,-0.008 0.018,-0.009l0.209 -0.05 0.114 -0.185c0.011,-0.018 0.034,-0.024 0.053,-0.013 0.005,0.003 0.009,0.008 0.013,0.013zm0.055 0.239l-0.088 -0.145 -0.089 0.145c-0.006,0.008 -0.014,0.014 -0.024,0.017l-0.166 0.04 0.109 0.127c0.008,0.008 0.012,0.019 0.011,0.03l-0.013 0.17 0.157 -0.065c0.009,-0.004 0.019,-0.004 0.029,0l0.157 0.065 -0.013 -0.17c-0.001,-0.01 0.002,-0.02 0.009,-0.028l0.111 -0.129 -0.164 -0.04c-0.01,-0.002 -0.02,-0.008 -0.026,-0.017z"/>
   </g>
  </g>
 </g>
</svg>
