<?xml version="1.0" encoding="UTF-8"?>
<!DOCTYPE svg PUBLIC "-//W3C//DTD SVG 1.1//EN" "http://www.w3.org/Graphics/SVG/1.1/DTD/svg11.dtd">
<!-- Creator: CorelDRAW 2018 (64-Bit) -->
<svg xmlns="http://www.w3.org/2000/svg" xml:space="preserve" width="40px" height="40px" version="1.1" style="shape-rendering:geometricPrecision; text-rendering:geometricPrecision; image-rendering:optimizeQuality; fill-rule:evenodd; clip-rule:evenodd"
viewBox="0 0 3.096 3.096"
 xmlns:xlink="http://www.w3.org/1999/xlink">
 <defs>
  <style type="text/css">
   <![CDATA[
    .fil0 {fill:none}
    .fil2 {fill:#00F4FF}
    .fil3 {fill:white}
    .fil1 {fill:gray;fill-rule:nonzero}
   ]]>
  </style>
 </defs>
 <g id="Layer_x0020_1">
  <metadata id="CorelCorpID_0Corel-Layer"/>
  <g id="_1576235752032">
   <rect class="fil0" width="3.096" height="3.096"/>
   <g>
    <path class="fil1" d="M1.45 2.139c-0.011,-0.018 -0.004,-0.042 0.014,-0.052 0.019,-0.011 0.042,-0.005 0.053,0.014l0.327 0.567c0.011,0.018 0.004,0.042 -0.014,0.053 -0.018,0.01 -0.042,0.004 -0.053,-0.015l-0.327 -0.567z"/>
    <path class="fil1" d="M1.033 2.101c0.01,-0.019 0.034,-0.025 0.052,-0.014 0.019,0.01 0.025,0.034 0.015,0.052l-0.328 0.567c-0.01,0.019 -0.034,0.025 -0.052,0.015 -0.019,-0.011 -0.025,-0.035 -0.015,-0.053l0.328 -0.567z"/>
    <path class="fil1" d="M1.924 2.081c0.022,0 0.039,0.018 0.039,0.039 0,0.021 -0.017,0.039 -0.039,0.039l-1.686 0c-0.026,0 -0.05,-0.011 -0.068,-0.029 -0.017,-0.017 -0.028,-0.041 -0.028,-0.068l0 -1.423c0,-0.027 0.011,-0.051 0.028,-0.068 0.018,-0.018 0.042,-0.028 0.068,-0.028l1.686 0c0.022,0 0.039,0.017 0.039,0.038 0,0.022 -0.017,0.039 -0.039,0.039l-1.686 0c-0.005,0 -0.01,0.002 -0.013,0.006 -0.004,0.003 -0.006,0.008 -0.006,0.013l0 1.423c0,0.006 0.002,0.01 0.006,0.014 0.003,0.003 0.008,0.005 0.013,0.005l1.686 0z"/>
    <path class="fil2" d="M1.075 0.368l0.4 0c0.045,0 0.081,0.037 0.081,0.082l0 0.123c0,0.005 -0.003,0.008 -0.008,0.008l-0.547 0c-0.004,0 -0.008,-0.003 -0.008,-0.008l0 -0.123c0,-0.045 0.037,-0.082 0.082,-0.082z"/>
    <path class="fil1" d="M1.075 0.33l0.4 0c0.033,0 0.063,0.013 0.085,0.035l0 0c0.022,0.022 0.035,0.052 0.035,0.085l0 0.123c0,0.013 -0.005,0.025 -0.014,0.033 -0.008,0.009 -0.02,0.014 -0.033,0.014l-0.547 0c-0.012,0 -0.024,-0.005 -0.033,-0.014 -0.008,-0.008 -0.013,-0.02 -0.013,-0.033l0 -0.123c0,-0.033 0.013,-0.063 0.035,-0.085l0 0c0.022,-0.022 0.052,-0.035 0.085,-0.035zm0.4 0.077l-0.4 0c-0.012,0 -0.023,0.005 -0.03,0.012 -0.008,0.008 -0.013,0.019 -0.013,0.031l0 0.093 0.486 0 0 -0.093c0,-0.012 -0.005,-0.023 -0.013,-0.03 -0.008,-0.008 -0.018,-0.013 -0.03,-0.013z"/>
    <path class="fil1" d="M1.236 2.12c0,-0.021 0.017,-0.039 0.039,-0.039 0.021,0 0.039,0.018 0.039,0.039l0 0.608c0,0.021 -0.018,0.039 -0.039,0.039 -0.022,0 -0.039,-0.018 -0.039,-0.039l0 -0.608z"/>
    <path class="fil1" d="M0.431 1.389c-0.021,0 -0.039,-0.017 -0.039,-0.038 0,-0.022 0.018,-0.039 0.039,-0.039l0.582 0c0.021,0 0.039,0.017 0.039,0.039 0,0.021 -0.018,0.038 -0.039,0.038l-0.582 0z"/>
    <path class="fil1" d="M0.431 1.012c-0.021,0 -0.039,-0.017 -0.039,-0.039 0,-0.021 0.018,-0.038 0.039,-0.038l0.582 0c0.021,0 0.039,0.017 0.039,0.038 0,0.022 -0.018,0.039 -0.039,0.039l-0.582 0z"/>
    <path class="fil1" d="M0.431 1.767c-0.021,0 -0.039,-0.018 -0.039,-0.039 0,-0.021 0.018,-0.039 0.039,-0.039l0.95 0c0.022,0 0.039,0.018 0.039,0.039 0,0.021 -0.017,0.039 -0.039,0.039l-0.95 0z"/>
    <path class="fil3" d="M2.393 0.406c0.146,0 0.265,0.118 0.265,0.264 0,0.146 -0.119,0.264 -0.265,0.264 -0.146,0 -0.264,-0.118 -0.264,-0.264 0,-0.146 0.118,-0.264 0.264,-0.264z"/>
    <path class="fil1" d="M2.393 0.367c0.084,0 0.16,0.034 0.215,0.089 0.054,0.055 0.088,0.13 0.088,0.214 0,0.084 -0.034,0.159 -0.088,0.214 -0.055,0.055 -0.131,0.089 -0.215,0.089 -0.083,0 -0.159,-0.034 -0.214,-0.089l-0.002 -0.002c-0.054,-0.055 -0.087,-0.13 -0.087,-0.212 0,-0.084 0.034,-0.159 0.089,-0.214l0.002 -0.002c0.055,-0.054 0.13,-0.087 0.212,-0.087zm0.16 0.143c-0.041,-0.04 -0.097,-0.066 -0.16,-0.066 -0.061,0 -0.117,0.025 -0.157,0.065l-0.002 0.001c-0.041,0.041 -0.066,0.098 -0.066,0.16 0,0.062 0.024,0.117 0.064,0.158l0.002 0.002c0.041,0.04 0.097,0.066 0.159,0.066 0.063,0 0.119,-0.026 0.16,-0.066 0.041,-0.041 0.066,-0.098 0.066,-0.16 0,-0.062 -0.025,-0.119 -0.066,-0.16z"/>
    <path class="fil3" d="M2.787 1.06c0.071,0 0.129,0.058 0.129,0.128l0 0.596c0,0.071 -0.058,0.128 -0.129,0.128l-0.128 0 0 0.816 -0.532 0 0 -1.412 -0.724 0c-0.071,0 -0.128,-0.057 -0.128,-0.128l0 -0.128c0.504,0 1.008,0 1.512,0z"/>
    <path class="fil1" d="M2.787 1.021c0.046,0 0.088,0.019 0.118,0.049 0.031,0.03 0.049,0.072 0.049,0.118l0 0.596c0,0.046 -0.018,0.088 -0.049,0.118 -0.03,0.03 -0.072,0.049 -0.118,0.049l-0.089 0 0 0.777c0,0.021 -0.017,0.039 -0.039,0.039l-0.532 0c-0.021,0 -0.038,-0.018 -0.038,-0.039l0 -1.373 -0.686 0c-0.046,0 -0.088,-0.019 -0.118,-0.049 -0.03,-0.03 -0.049,-0.072 -0.049,-0.118l0 -0.128c0,-0.021 0.017,-0.039 0.039,-0.039l1.512 0zm0.064 0.104c-0.017,-0.016 -0.039,-0.026 -0.064,-0.026l-1.473 0 0 0.089c0,0.025 0.01,0.047 0.026,0.063 0.016,0.016 0.038,0.027 0.063,0.027l0.724 0c0.022,0 0.039,0.017 0.039,0.038l0 1.373 0.455 0 0 -0.777c0,-0.021 0.017,-0.038 0.038,-0.038l0.128 0c0.025,0 0.047,-0.01 0.064,-0.027 0.016,-0.016 0.026,-0.038 0.026,-0.063l0 -0.596c0,-0.024 -0.01,-0.047 -0.026,-0.063z"/>
    <path class="fil1" d="M2.619 1.316c0,-0.021 0.017,-0.038 0.039,-0.038 0.021,0 0.038,0.017 0.038,0.038l0 0.866c0,0.021 -0.017,0.039 -0.038,0.039 -0.022,0 -0.039,-0.018 -0.039,-0.039l0 -0.866z"/>
    <path class="fil1" d="M2.355 1.862c0,-0.021 0.017,-0.039 0.038,-0.039 0.022,0 0.039,0.018 0.039,0.039l0 0.866c0,0.021 -0.017,0.039 -0.039,0.039 -0.021,0 -0.038,-0.018 -0.038,-0.039l0 -0.866z"/>
   </g>
  </g>
 </g>
</svg>
