<?xml version="1.0" encoding="UTF-8"?>
<!DOCTYPE svg PUBLIC "-//W3C//DTD SVG 1.1//EN" "http://www.w3.org/Graphics/SVG/1.1/DTD/svg11.dtd">
<!-- Creator: CorelDRAW 2018 (64-Bit) -->
<svg xmlns="http://www.w3.org/2000/svg" xml:space="preserve" width="40px" height="40px" version="1.1" style="shape-rendering:geometricPrecision; text-rendering:geometricPrecision; image-rendering:optimizeQuality; fill-rule:evenodd; clip-rule:evenodd"
viewBox="0 0 3.096 3.096"
 xmlns:xlink="http://www.w3.org/1999/xlink">
 <defs>
  <style type="text/css">
   <![CDATA[
    .fil0 {fill:none}
    .fil4 {fill:#00F4FF}
    .fil1 {fill:#EAEDF2}
    .fil3 {fill:white}
    .fil2 {fill:gray;fill-rule:nonzero}
   ]]>
  </style>
 </defs>
 <g id="Layer_x0020_1">
  <metadata id="CorelCorpID_0Corel-Layer"/>
  <g id="_1576228647008">
   <rect class="fil0" width="3.096" height="3.096"/>
   <g>
    <path class="fil1" d="M0.418 0.895l0.477 -0.477c0.041,-0.041 0.108,-0.041 0.15,0l1.633 1.634c0.041,0.041 0.041,0.108 0,0.149l-0.477 0.477c-0.041,0.041 -0.108,0.041 -0.149,0l-1.634 -1.633c-0.041,-0.042 -0.041,-0.109 0,-0.15z"/>
    <path class="fil2" d="M0.391 0.867l0.476 -0.476c0.029,-0.029 0.066,-0.043 0.103,-0.043 0.037,0 0.074,0.014 0.102,0.043l1.634 1.633c0.028,0.028 0.042,0.065 0.042,0.103 0,0.037 -0.014,0.074 -0.042,0.102l-0.477 0.477c-0.028,0.028 -0.065,0.042 -0.102,0.042 -0.038,0 -0.075,-0.014 -0.103,-0.042l-1.633 -1.634c-0.029,-0.028 -0.043,-0.065 -0.043,-0.102 0,-0.037 0.014,-0.075 0.043,-0.103zm0.531 -0.422l-0.477 0.477c-0.013,0.013 -0.019,0.031 -0.019,0.048 0,0.017 0.006,0.034 0.019,0.047l1.634 1.634c0.013,0.013 0.03,0.019 0.048,0.019 0.017,0 0.034,-0.006 0.047,-0.019l0.477 -0.477c0.013,-0.013 0.019,-0.03 0.019,-0.047 0,-0.018 -0.006,-0.035 -0.019,-0.048l-1.634 -1.634c-0.013,-0.013 -0.03,-0.019 -0.047,-0.019 -0.018,0 -0.035,0.006 -0.048,0.019z"/>
    <path class="fil3" d="M2.201 0.418l0.477 0.477c0.041,0.041 0.041,0.108 0,0.15l-1.633 1.633c-0.042,0.041 -0.109,0.041 -0.15,0l-0.477 -0.477c-0.041,-0.041 -0.041,-0.108 0,-0.149l1.634 -1.634c0.041,-0.041 0.108,-0.041 0.149,0z"/>
    <path class="fil2" d="M2.229 0.391l0.477 0.476c0.028,0.029 0.042,0.066 0.042,0.103 0,0.037 -0.014,0.074 -0.042,0.102l-1.634 1.634c-0.028,0.028 -0.065,0.042 -0.102,0.042 -0.037,0 -0.074,-0.014 -0.103,-0.042l-0.476 -0.477c-0.029,-0.028 -0.043,-0.065 -0.043,-0.102 0,-0.038 0.014,-0.075 0.043,-0.103l1.633 -1.633c0.028,-0.029 0.066,-0.043 0.103,-0.043 0.037,0 0.074,0.014 0.102,0.043zm0.422 0.531l-0.477 -0.477c-0.013,-0.013 -0.03,-0.019 -0.047,-0.019 -0.018,0 -0.035,0.006 -0.048,0.019l-1.634 1.634c-0.013,0.013 -0.019,0.03 -0.019,0.048 0,0.017 0.006,0.034 0.019,0.047l0.477 0.477c0.013,0.013 0.03,0.019 0.048,0.019 0.017,0 0.034,-0.006 0.047,-0.019l1.634 -1.634c0.013,-0.013 0.019,-0.03 0.019,-0.047 0,-0.018 -0.006,-0.035 -0.019,-0.048z"/>
    <path class="fil4" d="M1.62 1.187c0.04,0.039 0.04,0.104 0,0.144 -0.04,0.04 -0.104,0.04 -0.144,0 -0.04,-0.04 -0.04,-0.105 0,-0.144 0.04,-0.04 0.104,-0.04 0.144,0z"/>
    <path class="fil2" d="M1.648 1.159c0.027,0.028 0.041,0.064 0.041,0.1 0,0.036 -0.014,0.072 -0.041,0.099 -0.028,0.028 -0.064,0.042 -0.1,0.042 -0.036,0 -0.072,-0.014 -0.1,-0.042 -0.027,-0.027 -0.041,-0.063 -0.041,-0.099 0,-0.036 0.014,-0.072 0.041,-0.1 0.028,-0.027 0.064,-0.041 0.1,-0.041 0.036,0 0.072,0.014 0.1,0.041zm-0.036 0.1c0,-0.017 -0.007,-0.033 -0.019,-0.045 -0.012,-0.012 -0.029,-0.019 -0.045,-0.019 -0.016,0 -0.032,0.007 -0.045,0.019 -0.012,0.012 -0.018,0.029 -0.018,0.045 0,0.016 0.006,0.032 0.018,0.045 0.013,0.012 0.029,0.018 0.045,0.018 0.016,0 0.033,-0.006 0.045,-0.018 0.012,-0.013 0.019,-0.029 0.019,-0.045z"/>
    <path class="fil4" d="M1.331 1.476c0.04,0.04 0.04,0.104 0,0.144 -0.04,0.04 -0.105,0.04 -0.144,0 -0.04,-0.04 -0.04,-0.104 0,-0.144 0.039,-0.04 0.104,-0.04 0.144,0z"/>
    <path class="fil2" d="M1.358 1.448c0.028,0.028 0.042,0.064 0.042,0.1 0,0.036 -0.014,0.072 -0.042,0.1 -0.027,0.027 -0.063,0.041 -0.099,0.041 -0.036,0 -0.072,-0.014 -0.1,-0.041 -0.027,-0.028 -0.041,-0.064 -0.041,-0.1 0,-0.036 0.014,-0.072 0.041,-0.1 0.028,-0.027 0.064,-0.041 0.1,-0.041 0.036,0 0.072,0.014 0.099,0.041zm-0.036 0.1c0,-0.016 -0.006,-0.032 -0.018,-0.045 -0.013,-0.012 -0.029,-0.018 -0.045,-0.018 -0.016,0 -0.033,0.006 -0.045,0.018 -0.012,0.013 -0.019,0.029 -0.019,0.045 0,0.016 0.007,0.033 0.019,0.045 0.012,0.012 0.028,0.019 0.045,0.019 0.016,0 0.032,-0.007 0.045,-0.019 0.012,-0.012 0.018,-0.029 0.018,-0.045z"/>
    <path class="fil4" d="M1.91 1.476c0.04,0.04 0.04,0.104 0,0.144 -0.04,0.04 -0.105,0.04 -0.145,0 -0.04,-0.04 -0.04,-0.104 0,-0.144 0.04,-0.04 0.105,-0.04 0.145,0z"/>
    <path class="fil2" d="M1.937 1.448c0.028,0.028 0.041,0.064 0.041,0.1 0,0.036 -0.013,0.072 -0.041,0.1 -0.027,0.027 -0.064,0.041 -0.1,0.041 -0.036,0 -0.072,-0.014 -0.099,-0.041 -0.028,-0.028 -0.042,-0.064 -0.042,-0.1 0,-0.036 0.014,-0.072 0.042,-0.1 0.027,-0.027 0.063,-0.041 0.099,-0.041 0.036,0 0.072,0.014 0.1,0.041zm-0.036 0.1c0,-0.016 -0.006,-0.032 -0.019,-0.045 -0.012,-0.012 -0.028,-0.018 -0.045,-0.018 -0.016,0 -0.032,0.006 -0.045,0.018 -0.012,0.013 -0.018,0.029 -0.018,0.045 0,0.016 0.006,0.033 0.018,0.045 0.013,0.012 0.029,0.019 0.045,0.019 0.017,0 0.033,-0.007 0.045,-0.019 0.013,-0.012 0.019,-0.029 0.019,-0.045z"/>
    <path class="fil4" d="M1.62 1.765c0.04,0.04 0.04,0.105 0,0.145 -0.04,0.04 -0.104,0.04 -0.144,0 -0.04,-0.04 -0.04,-0.105 0,-0.145 0.04,-0.04 0.104,-0.04 0.144,0z"/>
    <path class="fil2" d="M1.648 1.738c0.027,0.027 0.041,0.063 0.041,0.099 0,0.036 -0.014,0.073 -0.041,0.1 -0.028,0.028 -0.064,0.041 -0.1,0.041 -0.036,0 -0.072,-0.013 -0.1,-0.041 -0.027,-0.028 -0.041,-0.064 -0.041,-0.1 0,-0.036 0.014,-0.072 0.041,-0.099 0.028,-0.028 0.064,-0.042 0.1,-0.042 0.036,0 0.072,0.014 0.1,0.042zm-0.036 0.099c0,-0.016 -0.007,-0.032 -0.019,-0.045 -0.012,-0.012 -0.029,-0.018 -0.045,-0.018 -0.016,0 -0.032,0.006 -0.045,0.018 -0.012,0.013 -0.018,0.029 -0.018,0.045 0,0.017 0.006,0.033 0.018,0.045 0.013,0.013 0.029,0.019 0.045,0.019 0.016,0 0.033,-0.006 0.045,-0.019 0.012,-0.012 0.019,-0.028 0.019,-0.045z"/>
    <path class="fil2" d="M1.617 1.045c-0.015,-0.015 -0.015,-0.039 0,-0.055 0.015,-0.015 0.04,-0.015 0.055,0l0.434 0.434c0.015,0.015 0.015,0.04 0,0.055 -0.015,0.015 -0.04,0.015 -0.055,0l-0.434 -0.434z"/>
    <path class="fil2" d="M0.99 1.672c-0.015,-0.015 -0.015,-0.04 0,-0.055 0.016,-0.015 0.04,-0.015 0.055,0l0.434 0.434c0.015,0.015 0.015,0.04 0,0.055 -0.015,0.015 -0.04,0.015 -0.055,0l-0.434 -0.434z"/>
   </g>
  </g>
 </g>
</svg>
