<?xml version="1.0" encoding="UTF-8"?>
<!DOCTYPE svg PUBLIC "-//W3C//DTD SVG 1.1//EN" "http://www.w3.org/Graphics/SVG/1.1/DTD/svg11.dtd">
<!-- Creator: CorelDRAW 2018 (64-Bit) -->
<svg xmlns="http://www.w3.org/2000/svg" xml:space="preserve" width="40px" height="40px" version="1.1" style="shape-rendering:geometricPrecision; text-rendering:geometricPrecision; image-rendering:optimizeQuality; fill-rule:evenodd; clip-rule:evenodd"
viewBox="0 0 3.096 3.096"
 xmlns:xlink="http://www.w3.org/1999/xlink">
 <defs>
  <style type="text/css">
   <![CDATA[
    .fil0 {fill:none}
    .fil4 {fill:#00F4FF}
    .fil3 {fill:#EAEDF2}
    .fil1 {fill:white}
    .fil2 {fill:gray;fill-rule:nonzero}
   ]]>
  </style>
 </defs>
 <g id="Layer_x0020_1">
  <metadata id="CorelCorpID_0Corel-Layer"/>
  <g id="_1539869130672">
   <rect class="fil0" width="3.096" height="3.096"/>
   <g>
    <path class="fil1" d="M1.439 0.887c-0.102,0 -0.183,-0.19 -0.566,-0.19 -0.357,0 -0.692,0.58 -0.715,1.083 -0.024,0.504 0.037,0.774 0.267,0.774 0.23,0 0.509,-0.481 0.67,-0.481l0.906 0c0.161,0 0.44,0.481 0.67,0.481 0.23,0 0.291,-0.27 0.268,-0.774 -0.024,-0.503 -0.359,-1.083 -0.716,-1.083 -0.382,0 -0.463,0.19 -0.566,0.19l-0.218 0z"/>
    <path class="fil2" d="M1.439 0.926c-0.047,0 -0.084,-0.025 -0.132,-0.058 -0.078,-0.054 -0.194,-0.133 -0.434,-0.133 -0.158,0 -0.314,0.128 -0.436,0.314 -0.136,0.205 -0.229,0.479 -0.241,0.733 -0.011,0.247 -0.002,0.436 0.037,0.563 0.036,0.112 0.097,0.171 0.192,0.171 0.109,0 0.243,-0.137 0.365,-0.261 0.112,-0.116 0.216,-0.221 0.305,-0.221l0.906 0c0.09,0 0.193,0.105 0.305,0.221 0.122,0.124 0.256,0.261 0.365,0.261 0.096,0 0.157,-0.059 0.192,-0.171 0.04,-0.127 0.048,-0.316 0.037,-0.563 -0.012,-0.254 -0.105,-0.528 -0.24,-0.733 -0.123,-0.186 -0.279,-0.314 -0.437,-0.314 -0.24,0 -0.355,0.079 -0.434,0.133 -0.048,0.033 -0.085,0.058 -0.132,0.058l-0.218 0zm-0.088 -0.122c0.037,0.026 0.065,0.045 0.088,0.045l0.218 0c0.023,0 0.052,-0.02 0.089,-0.045 0.086,-0.059 0.213,-0.146 0.477,-0.146 0.186,0 0.365,0.142 0.501,0.348 0.143,0.216 0.241,0.505 0.253,0.772 0.012,0.256 0.002,0.454 -0.04,0.59 -0.047,0.148 -0.131,0.225 -0.266,0.225 -0.142,0 -0.287,-0.149 -0.42,-0.285 -0.1,-0.102 -0.193,-0.197 -0.25,-0.197l-0.906 0c-0.057,0 -0.15,0.095 -0.25,0.197 -0.133,0.136 -0.278,0.285 -0.42,0.285 -0.135,0 -0.219,-0.077 -0.266,-0.225 -0.042,-0.136 -0.052,-0.334 -0.04,-0.59 0.012,-0.267 0.111,-0.556 0.253,-0.772 0.137,-0.206 0.315,-0.348 0.501,-0.348 0.264,0 0.391,0.087 0.478,0.146z"/>
    <path class="fil3" d="M1.945 1.129c0.062,0 0.112,0.05 0.112,0.113 0,0.062 -0.05,0.112 -0.112,0.112 -0.062,0 -0.113,-0.05 -0.113,-0.112 0,-0.063 0.051,-0.113 0.113,-0.113z"/>
    <path class="fil2" d="M1.945 1.09c0.041,0 0.079,0.017 0.107,0.045 0.027,0.027 0.044,0.065 0.044,0.107 0,0.041 -0.017,0.079 -0.044,0.106 -0.028,0.028 -0.066,0.045 -0.107,0.045 -0.042,0 -0.08,-0.017 -0.107,-0.045 -0.028,-0.027 -0.045,-0.065 -0.045,-0.106 0,-0.042 0.017,-0.08 0.045,-0.107l0.002 -0.003c0.027,-0.026 0.064,-0.042 0.105,-0.042zm0.052 0.099c-0.013,-0.013 -0.032,-0.021 -0.052,-0.021 -0.02,0 -0.038,0.007 -0.051,0.02l-0.002 0.001c-0.013,0.014 -0.021,0.032 -0.021,0.053 0,0.02 0.008,0.038 0.021,0.052 0.014,0.013 0.032,0.021 0.053,0.021 0.02,0 0.039,-0.008 0.052,-0.021 0.013,-0.014 0.022,-0.032 0.022,-0.052 0,-0.021 -0.009,-0.039 -0.022,-0.053z"/>
    <path class="fil3" d="M1.945 1.535c0.062,0 0.112,0.051 0.112,0.113 0,0.062 -0.05,0.113 -0.112,0.113 -0.062,0 -0.113,-0.051 -0.113,-0.113 0,-0.062 0.051,-0.113 0.113,-0.113z"/>
    <path class="fil2" d="M1.945 1.497c0.041,0 0.079,0.017 0.107,0.044 0.027,0.027 0.044,0.065 0.044,0.107 0,0.042 -0.017,0.08 -0.044,0.107 -0.028,0.027 -0.066,0.044 -0.107,0.044 -0.042,0 -0.08,-0.017 -0.107,-0.044 -0.028,-0.027 -0.045,-0.065 -0.045,-0.107 0,-0.042 0.017,-0.08 0.045,-0.107l0.002 -0.002c0.027,-0.026 0.064,-0.042 0.105,-0.042zm0.052 0.099c-0.013,-0.014 -0.032,-0.022 -0.052,-0.022 -0.02,0 -0.038,0.008 -0.051,0.02l-0.002 0.002c-0.013,0.013 -0.021,0.032 -0.021,0.052 0,0.02 0.008,0.039 0.021,0.052 0.014,0.014 0.032,0.022 0.053,0.022 0.02,0 0.039,-0.008 0.052,-0.022 0.013,-0.013 0.022,-0.032 0.022,-0.052 0,-0.02 -0.009,-0.039 -0.022,-0.052z"/>
    <path class="fil3" d="M2.363 1.129c0.063,0 0.113,0.05 0.113,0.113 0,0.062 -0.05,0.112 -0.113,0.112 -0.062,0 -0.112,-0.05 -0.112,-0.112 0,-0.063 0.05,-0.113 0.112,-0.113z"/>
    <path class="fil2" d="M2.363 1.09c0.042,0 0.08,0.017 0.107,0.045 0.028,0.027 0.045,0.065 0.045,0.107 0,0.041 -0.017,0.079 -0.045,0.106l-0.002 0.003c-0.027,0.026 -0.064,0.042 -0.105,0.042 -0.041,0 -0.079,-0.017 -0.106,-0.045 -0.028,-0.027 -0.045,-0.065 -0.045,-0.106 0,-0.042 0.017,-0.08 0.045,-0.107 0.027,-0.028 0.065,-0.045 0.106,-0.045zm0.053 0.099c-0.014,-0.013 -0.032,-0.021 -0.053,-0.021 -0.02,0 -0.038,0.008 -0.052,0.021 -0.013,0.014 -0.021,0.032 -0.021,0.053 0,0.02 0.008,0.038 0.021,0.052 0.014,0.013 0.032,0.021 0.052,0.021 0.02,0 0.038,-0.007 0.051,-0.02l0.002 -0.001c0.013,-0.014 0.021,-0.032 0.021,-0.052 0,-0.021 -0.008,-0.039 -0.021,-0.053z"/>
    <path class="fil3" d="M2.363 1.535c0.063,0 0.113,0.051 0.113,0.113 0,0.062 -0.05,0.113 -0.113,0.113 -0.062,0 -0.112,-0.051 -0.112,-0.113 0,-0.062 0.05,-0.113 0.112,-0.113z"/>
    <path class="fil2" d="M2.363 1.497c0.042,0 0.08,0.017 0.107,0.044 0.028,0.027 0.045,0.065 0.045,0.107 0,0.042 -0.017,0.08 -0.045,0.107l-0.002 0.002c-0.027,0.026 -0.064,0.042 -0.105,0.042 -0.041,0 -0.079,-0.017 -0.106,-0.044 -0.028,-0.027 -0.045,-0.065 -0.045,-0.107 0,-0.042 0.017,-0.08 0.045,-0.107 0.027,-0.027 0.065,-0.044 0.106,-0.044zm0.053 0.099c-0.014,-0.014 -0.032,-0.022 -0.053,-0.022 -0.02,0 -0.038,0.008 -0.052,0.022 -0.013,0.013 -0.021,0.032 -0.021,0.052 0,0.02 0.008,0.039 0.021,0.052 0.014,0.014 0.032,0.022 0.052,0.022 0.02,0 0.038,-0.008 0.051,-0.02l0.002 -0.002c0.013,-0.013 0.021,-0.032 0.021,-0.052 0,-0.02 -0.008,-0.039 -0.021,-0.052z"/>
    <path class="fil4" d="M0.857 1.088l0.148 0c0.012,0 0.021,0.009 0.021,0.021l0 0.241 0.241 0c0.012,0 0.021,0.009 0.021,0.021l0 0.148c0,0.011 -0.009,0.021 -0.021,0.021l-0.241 0 0 0.24c0,0.012 -0.009,0.022 -0.021,0.022l-0.148 0c-0.011,0 -0.021,-0.01 -0.021,-0.022l0 -0.24 -0.24 0c-0.012,0 -0.021,-0.01 -0.021,-0.021l0 -0.148c0,-0.012 0.009,-0.021 0.021,-0.021l0.24 0 0 -0.241c0,-0.012 0.01,-0.021 0.021,-0.021z"/>
    <path class="fil2" d="M0.857 1.049l0.148 0c0.017,0 0.032,0.007 0.042,0.018 0.011,0.011 0.018,0.026 0.018,0.042l0 0.202 0.202 0c0.016,0 0.031,0.007 0.042,0.018l0 0c0.011,0.011 0.018,0.026 0.018,0.042l0 0.148c0,0.016 -0.007,0.031 -0.018,0.042l0 0c-0.011,0.011 -0.026,0.017 -0.042,0.017l-0.202 0 0 0.202c0,0.017 -0.007,0.032 -0.018,0.043 -0.01,0.01 -0.025,0.017 -0.042,0.017l-0.148 0c-0.016,0 -0.031,-0.007 -0.042,-0.017 -0.011,-0.011 -0.017,-0.026 -0.017,-0.043l0 -0.202 -0.202 0c-0.017,0 -0.032,-0.006 -0.042,-0.017l-0.001 0c-0.01,-0.011 -0.017,-0.026 -0.017,-0.042l0 -0.148c0,-0.016 0.007,-0.031 0.017,-0.042 0.011,-0.011 0.026,-0.018 0.043,-0.018l0.202 0 0 -0.202c0,-0.016 0.006,-0.031 0.017,-0.042 0.011,-0.011 0.026,-0.018 0.042,-0.018zm0.131 0.078l-0.113 0 0 0.223c0,0.021 -0.017,0.039 -0.039,0.039l-0.223 0 0 0.112 0.223 0c0.022,0 0.039,0.017 0.039,0.039l0 0.223 0.113 0 0 -0.223c0,-0.022 0.017,-0.039 0.038,-0.039l0.223 0 0 -0.112 -0.223 0c-0.021,0 -0.038,-0.018 -0.038,-0.039l0 -0.223z"/>
   </g>
  </g>
 </g>
</svg>
