<?xml version="1.0" encoding="UTF-8"?>
<!DOCTYPE svg PUBLIC "-//W3C//DTD SVG 1.1//EN" "http://www.w3.org/Graphics/SVG/1.1/DTD/svg11.dtd">
<!-- Creator: CorelDRAW 2018 (64-Bit) -->
<svg xmlns="http://www.w3.org/2000/svg" xml:space="preserve" width="40px" height="40px" version="1.1" style="shape-rendering:geometricPrecision; text-rendering:geometricPrecision; image-rendering:optimizeQuality; fill-rule:evenodd; clip-rule:evenodd"
viewBox="0 0 3.096 3.096"
 xmlns:xlink="http://www.w3.org/1999/xlink">
 <defs>
  <style type="text/css">
   <![CDATA[
    .fil0 {fill:none}
    .fil4 {fill:#00F4FF}
    .fil1 {fill:#EAEDF2}
    .fil3 {fill:white}
    .fil2 {fill:gray;fill-rule:nonzero}
   ]]>
  </style>
 </defs>
 <g id="Layer_x0020_1">
  <metadata id="CorelCorpID_0Corel-Layer"/>
  <g id="_1576228671584">
   <rect class="fil0" width="3.096" height="3.096"/>
   <g>
    <path class="fil1" d="M2.195 1.189l0.15 0c0.141,0 0.256,0.114 0.256,0.255l0 0.66c0,0.141 -0.115,0.256 -0.256,0.256l-0.15 0 0 -0.179 0.112 0c0.072,0 0.131,-0.059 0.131,-0.131l0 -0.552c0,-0.072 -0.059,-0.131 -0.131,-0.131l-0.112 0 0 -0.178z"/>
    <path class="fil2" d="M2.195 1.15l0.15 0c0.081,0 0.155,0.033 0.208,0.086l0.002 0.002c0.052,0.054 0.084,0.126 0.084,0.206l0 0.66c0,0.081 -0.033,0.155 -0.086,0.208 -0.053,0.053 -0.127,0.086 -0.208,0.086l-0.15 0c-0.022,0 -0.039,-0.017 -0.039,-0.038l0 -0.179c0,-0.021 0.017,-0.039 0.039,-0.039l0.112 0c0.026,0 0.049,-0.01 0.065,-0.027 0.017,-0.017 0.028,-0.04 0.028,-0.065l0 -0.552c0,-0.025 -0.011,-0.048 -0.028,-0.065l-0.001 -0.002c-0.017,-0.015 -0.039,-0.025 -0.064,-0.025l-0.112 0c-0.022,0 -0.039,-0.017 -0.039,-0.039l0 -0.178c0,-0.022 0.017,-0.039 0.039,-0.039zm0.15 0.077l-0.112 0 0 0.101 0.074 0c0.045,0 0.087,0.019 0.118,0.048l0.002 0.002c0.031,0.031 0.05,0.074 0.05,0.12l0 0.552c0,0.047 -0.019,0.089 -0.05,0.12 -0.031,0.031 -0.073,0.05 -0.12,0.05l-0.074 0 0 0.101 0.112 0c0.06,0 0.114,-0.024 0.153,-0.064 0.039,-0.039 0.064,-0.093 0.064,-0.153l0 -0.66c0,-0.059 -0.024,-0.112 -0.062,-0.151l-0.002 -0.002c-0.039,-0.039 -0.093,-0.064 -0.153,-0.064z"/>
    <path class="fil3" d="M0.914 0.916l1.171 0c0.06,0 0.11,0.05 0.11,0.11l0 1.497c0,0.06 -0.05,0.109 -0.11,0.109l-1.171 0c-0.06,0 -0.109,-0.049 -0.109,-0.109l0 -1.497c0,-0.06 0.049,-0.11 0.109,-0.11z"/>
    <path class="fil2" d="M0.914 0.878l1.171 0c0.041,0 0.078,0.016 0.105,0.043 0.027,0.027 0.043,0.064 0.043,0.105l0 1.497c0,0.04 -0.016,0.077 -0.043,0.104l-0.003 0.002c-0.026,0.026 -0.062,0.041 -0.102,0.041l-1.171 0c-0.04,0 -0.077,-0.016 -0.104,-0.043 -0.027,-0.027 -0.043,-0.064 -0.043,-0.104l0 -1.497c0,-0.041 0.016,-0.078 0.043,-0.105l0.002 -0.002c0.027,-0.026 0.063,-0.041 0.102,-0.041zm1.171 0.077l-1.171 0c-0.018,0 -0.035,0.007 -0.048,0.019l-0.001 0.002c-0.013,0.013 -0.021,0.03 -0.021,0.05l0 1.497c0,0.019 0.008,0.037 0.021,0.049 0.012,0.013 0.03,0.021 0.049,0.021l1.171 0c0.019,0 0.036,-0.007 0.049,-0.019l0.001 -0.002c0.013,-0.012 0.021,-0.03 0.021,-0.049l0 -1.497c0,-0.02 -0.008,-0.037 -0.021,-0.05 -0.013,-0.013 -0.03,-0.021 -0.05,-0.021z"/>
    <path class="fil4" d="M1.597 1.531l0.156 -0.096 0.155 0.096c0.014,0.009 0.029,0.013 0.029,0.029l0 0.338c0,0.016 -0.013,0.029 -0.029,0.029l-0.311 0c-0.016,0 -0.029,-0.013 -0.029,-0.029l0 -0.338c0,-0.016 0.016,-0.02 0.029,-0.029z"/>
    <path class="fil2" d="M1.579 1.497l0.154 -0.095c0.013,-0.008 0.028,-0.007 0.04,0l0.156 0.096 0.006 0.004c0.021,0.012 0.041,0.023 0.041,0.058l0 0.338c0,0.018 -0.008,0.035 -0.02,0.047 -0.012,0.013 -0.029,0.02 -0.048,0.02l-0.311 0c-0.018,0 -0.035,-0.007 -0.047,-0.02 -0.013,-0.012 -0.02,-0.029 -0.02,-0.047l0 -0.338c0,-0.035 0.019,-0.046 0.041,-0.058l0.008 -0.005zm0.174 -0.017c-0.048,0.03 -0.096,0.062 -0.145,0.09l-0.001 -0.002 0 0.32 0.292 0 0 -0.32 -0.001 0.002c-0.002,-0.002 -0.005,-0.003 -0.01,-0.006l-0.135 -0.084zm0.146 0.08c0,-0.01 -0.001,0.008 -0.001,0.01l0.001 -0.002 0 -0.008zm-0.292 0l0 0.008 0.001 0.002c-0.001,-0.002 -0.001,-0.02 -0.001,-0.01z"/>
    <path class="fil2" d="M1.714 0.916c0,-0.021 0.017,-0.038 0.039,-0.038 0.021,0 0.039,0.017 0.039,0.038l0 0.519c0,0.021 -0.018,0.038 -0.039,0.038 -0.022,0 -0.039,-0.017 -0.039,-0.038l0 -0.519z"/>
    <path class="fil2" d="M1.523 0.673c0.016,0.014 0.016,0.039 0.001,0.054 -0.014,0.016 -0.039,0.016 -0.054,0.001 -0.134,-0.128 -0.074,-0.219 -0.008,-0.319 0.054,-0.082 0.114,-0.172 0.004,-0.307 -0.013,-0.017 -0.01,-0.041 0.006,-0.055 0.017,-0.013 0.041,-0.01 0.055,0.006 0.144,0.179 0.068,0.294 0,0.398 -0.048,0.072 -0.091,0.137 -0.004,0.222z"/>
    <path class="fil2" d="M1.89 0.706c0.015,0.015 0.016,0.039 0.001,0.055 -0.015,0.015 -0.039,0.015 -0.055,0.001 -0.12,-0.116 -0.066,-0.198 -0.007,-0.287 0.047,-0.071 0.098,-0.149 0.004,-0.265 -0.013,-0.017 -0.011,-0.041 0.006,-0.054 0.016,-0.014 0.041,-0.011 0.054,0.006 0.129,0.16 0.062,0.262 0,0.355 -0.04,0.062 -0.077,0.118 -0.003,0.189z"/>
    <path class="fil2" d="M1.156 0.705c0.016,0.014 0.018,0.039 0.004,0.054 -0.015,0.016 -0.039,0.018 -0.055,0.004 -0.123,-0.11 -0.068,-0.188 -0.008,-0.272 0.046,-0.064 0.096,-0.135 0.005,-0.24 -0.014,-0.016 -0.013,-0.041 0.003,-0.055 0.017,-0.014 0.041,-0.012 0.055,0.004 0.131,0.151 0.063,0.248 0,0.335 -0.039,0.056 -0.075,0.106 -0.004,0.17z"/>
   </g>
  </g>
 </g>
</svg>
