<?xml version="1.0" encoding="UTF-8"?>
<!DOCTYPE svg PUBLIC "-//W3C//DTD SVG 1.1//EN" "http://www.w3.org/Graphics/SVG/1.1/DTD/svg11.dtd">
<!-- Creator: CorelDRAW 2018 (64-Bit) -->
<svg xmlns="http://www.w3.org/2000/svg" xml:space="preserve" width="40px" height="40px" version="1.1" style="shape-rendering:geometricPrecision; text-rendering:geometricPrecision; image-rendering:optimizeQuality; fill-rule:evenodd; clip-rule:evenodd"
viewBox="0 0 3.096 3.096"
 xmlns:xlink="http://www.w3.org/1999/xlink">
 <defs>
  <style type="text/css">
   <![CDATA[
    .fil0 {fill:none}
    .fil4 {fill:#00F4FF}
    .fil3 {fill:white}
    .fil1 {fill:gray;fill-rule:nonzero}
    .fil2 {fill:gray;fill-rule:nonzero}
   ]]>
  </style>
 </defs>
 <g id="Layer_x0020_1">
  <metadata id="CorelCorpID_0Corel-Layer"/>
  <g id="_1576242051072">
   <rect class="fil0" width="3.096" height="3.096"/>
   <g>
    <path class="fil1" d="M1.241 2.476l-0.001 0c-0.406,-0.233 -0.695,-0.466 -0.883,-0.709 -0.191,-0.246 -0.279,-0.501 -0.279,-0.774 0,-0.151 0.073,-0.306 0.189,-0.42 0.11,-0.107 0.258,-0.179 0.421,-0.179 0.15,0 0.264,0.024 0.359,0.081 0.082,0.049 0.149,0.12 0.213,0.22 0.064,-0.1 0.131,-0.171 0.212,-0.22 0.096,-0.057 0.209,-0.081 0.359,-0.081 0.164,0 0.312,0.072 0.421,0.179 0.117,0.114 0.189,0.269 0.189,0.42 0,0.273 -0.087,0.528 -0.278,0.774 -0.189,0.243 -0.478,0.476 -0.884,0.709 -0.012,0.007 -0.027,0.007 -0.038,0zm-0.823 -0.756c0.179,0.23 0.455,0.454 0.842,0.678 0.387,-0.224 0.663,-0.448 0.842,-0.678 0.18,-0.232 0.262,-0.471 0.262,-0.727 0,-0.13 -0.064,-0.265 -0.166,-0.365 -0.095,-0.094 -0.225,-0.157 -0.367,-0.157 -0.136,0 -0.237,0.021 -0.319,0.07 -0.083,0.05 -0.151,0.13 -0.219,0.248 -0.003,0.006 -0.008,0.01 -0.014,0.014 -0.018,0.011 -0.042,0.004 -0.053,-0.014 -0.068,-0.118 -0.135,-0.198 -0.218,-0.248 -0.083,-0.049 -0.184,-0.07 -0.32,-0.07 -0.142,0 -0.271,0.063 -0.367,0.157 -0.102,0.1 -0.165,0.235 -0.165,0.365 0,0.256 0.082,0.495 0.262,0.727z"/>
    <path class="fil2" d="M0.158 1.34c-0.021,0 -0.038,-0.017 -0.038,-0.039 0,-0.021 0.017,-0.038 0.038,-0.038l0.342 0 0.107 -0.158c0.012,-0.018 0.036,-0.023 0.054,-0.011 0.008,0.006 0.014,0.015 0.016,0.024l0.073 0.331 0.096 -0.675c0.003,-0.021 0.022,-0.036 0.043,-0.033 0.019,0.003 0.033,0.018 0.034,0.037l0.085 0.912 0.083 -0.64c0.002,-0.021 0.022,-0.036 0.043,-0.033 0.013,0.002 0.024,0.01 0.03,0.021l0.108 0.226 0.394 0c0.021,0 0.038,0.017 0.038,0.038 0,0.022 -0.017,0.039 -0.038,0.039l-0.419 0c-0.014,0 -0.028,-0.008 -0.034,-0.022l-0.063 -0.13 -0.109 0.854c-0.002,0.018 -0.016,0.033 -0.035,0.034 -0.021,0.002 -0.04,-0.013 -0.042,-0.035l-0.088 -0.934 -0.08 0.562c-0.001,0.016 -0.013,0.031 -0.03,0.034 -0.021,0.005 -0.041,-0.009 -0.046,-0.029l-0.099 -0.453 -0.067 0.098c-0.006,0.012 -0.019,0.02 -0.033,0.02l-0.363 0z"/>
    <path class="fil3" d="M2.979 1.067c0,0.301 0,0.035 0,0.336 0,0.912 0.008,0.691 -0.738,1.261 -0.746,-0.57 -0.738,-0.349 -0.738,-1.261 0,-0.301 0,-0.035 0,-0.336 0.296,0 0.562,-0.072 0.738,-0.183 0.177,0.111 0.442,0.183 0.738,0.183z"/>
    <path class="fil2" d="M3.018 1.067l0 0.366c0,0.413 0,0.589 -0.079,0.723 -0.058,0.1 -0.156,0.168 -0.326,0.286 -0.092,0.065 -0.208,0.145 -0.349,0.253 -0.014,0.011 -0.033,0.01 -0.047,-0.001 -0.141,-0.107 -0.256,-0.187 -0.348,-0.252 -0.17,-0.118 -0.268,-0.186 -0.326,-0.286 -0.079,-0.134 -0.079,-0.31 -0.079,-0.723l0 -0.366c0,-0.022 0.017,-0.039 0.039,-0.039 0.142,0 0.277,-0.017 0.397,-0.047 0.125,-0.03 0.234,-0.075 0.32,-0.13 0.013,-0.008 0.03,-0.008 0.042,0 0.086,0.055 0.195,0.1 0.32,0.13 0.12,0.03 0.255,0.047 0.397,0.047 0.022,0 0.039,0.017 0.039,0.039zm-0.077 0.336l0 -0.298c-0.135,-0.003 -0.262,-0.02 -0.378,-0.049 -0.123,-0.03 -0.232,-0.074 -0.322,-0.127 -0.09,0.053 -0.199,0.097 -0.322,0.127 -0.116,0.029 -0.243,0.046 -0.377,0.049l0 0.328c-0.001,0.398 -0.001,0.568 0.067,0.684 0.05,0.085 0.143,0.15 0.304,0.262 0.087,0.061 0.195,0.136 0.328,0.236 0.133,-0.1 0.241,-0.175 0.328,-0.236 0.162,-0.112 0.254,-0.177 0.304,-0.262 0.068,-0.116 0.068,-0.286 0.068,-0.684l0 -0.03z"/>
    <path class="fil4" d="M2.16 1.315l0.162 0c0.013,0 0.023,0.01 0.023,0.023l0 0.264 0.264 0c0.013,0 0.023,0.011 0.023,0.023l0 0.163c0,0.012 -0.01,0.023 -0.023,0.023l-0.264 0 0 0.264c0,0.012 -0.01,0.023 -0.023,0.023l-0.162 0c-0.013,0 -0.023,-0.011 -0.023,-0.023l0 -0.264 -0.264 0c-0.013,0 -0.023,-0.011 -0.023,-0.023l0 -0.163c0,-0.012 0.01,-0.023 0.023,-0.023l0.264 0 0 -0.264c0,-0.013 0.01,-0.023 0.023,-0.023z"/>
    <path class="fil2" d="M2.16 1.276l0.162 0c0.017,0 0.032,0.007 0.044,0.018 0.011,0.012 0.018,0.027 0.018,0.044l0 0.226 0.225 0c0.017,0 0.033,0.006 0.044,0.018 0.011,0.011 0.018,0.026 0.018,0.043l0 0.163c0,0.016 -0.007,0.032 -0.018,0.043 -0.011,0.011 -0.027,0.018 -0.044,0.018l-0.225 0 0 0.226c0,0.017 -0.007,0.032 -0.018,0.043 -0.011,0.012 -0.027,0.018 -0.044,0.018l-0.162 0c-0.017,0 -0.032,-0.006 -0.044,-0.018 -0.011,-0.011 -0.018,-0.026 -0.018,-0.043l0 -0.226 -0.225 0c-0.017,0 -0.033,-0.007 -0.044,-0.018 -0.011,-0.011 -0.018,-0.027 -0.018,-0.043l0 -0.163c0,-0.017 0.007,-0.032 0.018,-0.043 0.011,-0.012 0.027,-0.018 0.044,-0.018l0.225 0 0 -0.226c0,-0.017 0.007,-0.032 0.018,-0.044 0.011,-0.011 0.027,-0.018 0.044,-0.018zm0.147 0.078l-0.131 0 0 0.287 -0.288 0 0 0.131 0.288 0 0 0.287 0.131 0 0 -0.287 0.287 0 0 -0.131 -0.287 0 0 -0.287z"/>
   </g>
  </g>
 </g>
</svg>
