<?xml version="1.0" encoding="UTF-8"?>
<!DOCTYPE svg PUBLIC "-//W3C//DTD SVG 1.1//EN" "http://www.w3.org/Graphics/SVG/1.1/DTD/svg11.dtd">
<!-- Creator: CorelDRAW 2018 (64-Bit) -->
<svg xmlns="http://www.w3.org/2000/svg" xml:space="preserve" width="40px" height="40px" version="1.1" style="shape-rendering:geometricPrecision; text-rendering:geometricPrecision; image-rendering:optimizeQuality; fill-rule:evenodd; clip-rule:evenodd"
viewBox="0 0 3.096 3.096"
 xmlns:xlink="http://www.w3.org/1999/xlink">
 <defs>
  <style type="text/css">
   <![CDATA[
    .fil0 {fill:none}
    .fil4 {fill:#00F4FF}
    .fil2 {fill:white}
    .fil1 {fill:gray;fill-rule:nonzero}
    .fil3 {fill:gray;fill-rule:nonzero}
   ]]>
  </style>
 </defs>
 <g id="Layer_x0020_1">
  <metadata id="CorelCorpID_0Corel-Layer"/>
  <g id="_1576240502528">
   <rect class="fil0" width="3.096" height="3.096"/>
   <g>
    <path class="fil1" d="M0.835 0.389c0.124,0 0.18,0.022 0.233,0.044 0.042,0.017 0.081,0.033 0.163,0.033 0.081,0 0.121,-0.016 0.163,-0.033 0.053,-0.022 0.109,-0.044 0.233,-0.044 0.135,0 0.297,0.044 0.412,0.165 0.088,0.092 0.148,0.228 0.148,0.422 0,0.135 -0.043,0.232 -0.093,0.345 -0.064,0.146 -0.141,0.321 -0.144,0.649 -0.001,0.161 -0.026,0.256 -0.075,0.313 -0.052,0.061 -0.123,0.076 -0.216,0.076 -0.148,0 -0.182,-0.129 -0.217,-0.267 -0.032,-0.124 -0.067,-0.258 -0.211,-0.258 -0.136,0 -0.134,0.184 -0.133,0.357 0.002,0.188 0.003,0.365 -0.154,0.365 -0.1,0 -0.217,-0.076 -0.304,-0.197 -0.074,-0.103 -0.127,-0.239 -0.129,-0.389 -0.003,-0.329 -0.079,-0.503 -0.144,-0.649 -0.049,-0.113 -0.092,-0.21 -0.092,-0.345 0,-0.194 0.06,-0.33 0.148,-0.422 0.115,-0.121 0.277,-0.165 0.412,-0.165zm0.204 0.116c-0.046,-0.019 -0.095,-0.039 -0.204,-0.039 -0.118,0 -0.258,0.038 -0.356,0.141 -0.075,0.079 -0.127,0.197 -0.127,0.369 0,0.119 0.04,0.209 0.086,0.314 0.067,0.152 0.147,0.334 0.15,0.679 0.002,0.133 0.049,0.254 0.114,0.345 0.073,0.101 0.166,0.165 0.242,0.165 0.079,0 0.078,-0.139 0.077,-0.288 -0.001,-0.21 -0.003,-0.434 0.21,-0.434 0.204,0 0.246,0.163 0.286,0.316 0.027,0.108 0.053,0.208 0.142,0.208 0.071,0 0.125,-0.009 0.157,-0.048 0.037,-0.042 0.056,-0.122 0.057,-0.264 0.003,-0.345 0.084,-0.527 0.151,-0.679 0.046,-0.105 0.085,-0.195 0.085,-0.314 0,-0.172 -0.051,-0.29 -0.126,-0.369 -0.098,-0.103 -0.238,-0.141 -0.356,-0.141 -0.11,0 -0.158,0.02 -0.205,0.039 -0.048,0.019 -0.095,0.038 -0.191,0.038 -0.096,0 -0.143,-0.019 -0.192,-0.038z"/>
    <path class="fil1" d="M0.628 1.143c0.008,0.02 -0.003,0.042 -0.023,0.05 -0.019,0.007 -0.042,-0.003 -0.049,-0.023 -0.009,-0.024 -0.017,-0.049 -0.022,-0.075 -0.006,-0.027 -0.009,-0.056 -0.009,-0.086 0,-0.11 0.028,-0.194 0.072,-0.256 0.054,-0.077 0.132,-0.12 0.21,-0.14 0.02,-0.005 0.042,0.007 0.047,0.028 0.005,0.021 -0.007,0.042 -0.028,0.047 -0.062,0.016 -0.124,0.05 -0.166,0.11 -0.035,0.05 -0.058,0.118 -0.058,0.211 0,0.026 0.003,0.048 0.007,0.07 0.005,0.022 0.011,0.043 0.019,0.064z"/>
    <path class="fil1" d="M0.835 0.466c-0.021,0 -0.039,-0.017 -0.039,-0.038 0,-0.022 0.018,-0.039 0.039,-0.039 0.136,0 0.209,0.047 0.282,0.093 0.051,0.032 0.101,0.064 0.173,0.075 0.084,0.013 0.136,0.017 0.176,0.015 0.038,-0.002 0.064,-0.01 0.094,-0.019 0.02,-0.006 0.042,0.005 0.048,0.025 0.006,0.021 -0.005,0.042 -0.026,0.049 -0.035,0.01 -0.066,0.019 -0.112,0.022 -0.044,0.002 -0.102,-0.002 -0.191,-0.016 -0.089,-0.013 -0.146,-0.05 -0.203,-0.086 -0.064,-0.04 -0.127,-0.081 -0.241,-0.081z"/>
    <path class="fil2" d="M2.783 1.071c0,0.301 0,0.035 0,0.337 0,0.911 0.008,0.69 -0.739,1.26 -0.746,-0.57 -0.738,-0.349 -0.738,-1.26 0,-0.302 0,-0.036 0,-0.337 0.297,0 0.562,-0.071 0.738,-0.183 0.177,0.112 0.442,0.183 0.739,0.183z"/>
    <path class="fil3" d="M2.821 1.071l0 0.366c0,0.413 0,0.59 -0.078,0.723 -0.059,0.101 -0.156,0.169 -0.326,0.287 -0.093,0.064 -0.208,0.145 -0.349,0.252 -0.015,0.011 -0.034,0.01 -0.048,0 -0.14,-0.108 -0.255,-0.188 -0.348,-0.252 -0.17,-0.118 -0.267,-0.186 -0.326,-0.287 -0.078,-0.133 -0.078,-0.31 -0.078,-0.723l-0.001 -0.366c0,-0.021 0.018,-0.039 0.039,-0.039 0.143,0 0.277,-0.016 0.398,-0.046 0.124,-0.031 0.233,-0.076 0.32,-0.13 0.013,-0.009 0.029,-0.008 0.041,0 0.087,0.054 0.196,0.099 0.32,0.13 0.12,0.03 0.255,0.046 0.398,0.046 0.021,0 0.038,0.018 0.038,0.039zm-0.077 0.337l0 -0.299c-0.134,-0.002 -0.262,-0.019 -0.377,-0.048 -0.123,-0.031 -0.233,-0.074 -0.323,-0.128 -0.089,0.054 -0.199,0.097 -0.322,0.128 -0.115,0.029 -0.243,0.046 -0.377,0.048l0 0.328c0,0.399 0,0.569 0.067,0.684 0.05,0.086 0.143,0.15 0.304,0.262 0.088,0.061 0.195,0.136 0.328,0.237 0.134,-0.101 0.241,-0.176 0.329,-0.237 0.161,-0.112 0.253,-0.176 0.303,-0.262 0.068,-0.115 0.068,-0.285 0.068,-0.684l0 -0.029z"/>
    <path class="fil4" d="M1.963 1.32l0.162 0c0.013,0 0.024,0.01 0.024,0.023l0 0.264 0.264 0c0.012,0 0.023,0.01 0.023,0.023l0 0.162c0,0.013 -0.011,0.023 -0.023,0.023l-0.264 0 0 0.264c0,0.013 -0.011,0.023 -0.024,0.023l-0.162 0c-0.012,0 -0.023,-0.01 -0.023,-0.023l0 -0.264 -0.264 0c-0.013,0 -0.023,-0.01 -0.023,-0.023l0 -0.162c0,-0.013 0.01,-0.023 0.023,-0.023l0.264 0 0 -0.264c0,-0.013 0.011,-0.023 0.023,-0.023z"/>
    <path class="fil3" d="M1.963 1.281l0.162 0c0.017,0 0.033,0.007 0.044,0.018 0.011,0.011 0.018,0.027 0.018,0.044l0 0.225 0.226 0c0.017,0 0.032,0.007 0.043,0.018 0.011,0.011 0.018,0.027 0.018,0.044l0 0.162c0,0.017 -0.007,0.032 -0.018,0.043 -0.011,0.012 -0.026,0.019 -0.043,0.019l-0.226 0 0 0.225c0,0.017 -0.007,0.033 -0.018,0.044 -0.011,0.011 -0.026,0.018 -0.044,0.018l-0.162 0c-0.017,0 -0.032,-0.007 -0.043,-0.018 -0.012,-0.012 -0.019,-0.027 -0.019,-0.044l0 -0.225 -0.225 0c-0.017,0 -0.032,-0.007 -0.043,-0.018 -0.012,-0.012 -0.019,-0.027 -0.019,-0.044l0 -0.162c0,-0.017 0.007,-0.033 0.018,-0.044 0.012,-0.011 0.027,-0.018 0.044,-0.018l0.225 0 0 -0.225c0,-0.017 0.007,-0.033 0.019,-0.044 0.011,-0.011 0.026,-0.018 0.043,-0.018zm0.147 0.077l-0.131 0 0 0.287 -0.287 0 0 0.131 0.287 0 0 0.288 0.131 0 0 -0.288 0.287 0 0 -0.131 -0.287 0 0 -0.287z"/>
   </g>
  </g>
 </g>
</svg>
