<?xml version="1.0" encoding="UTF-8"?>
<!DOCTYPE svg PUBLIC "-//W3C//DTD SVG 1.1//EN" "http://www.w3.org/Graphics/SVG/1.1/DTD/svg11.dtd">
<!-- Creator: CorelDRAW 2018 (64-Bit) -->
<svg xmlns="http://www.w3.org/2000/svg" xml:space="preserve" width="40px" height="40px" version="1.1" style="shape-rendering:geometricPrecision; text-rendering:geometricPrecision; image-rendering:optimizeQuality; fill-rule:evenodd; clip-rule:evenodd"
viewBox="0 0 25.192 25.192"
 xmlns:xlink="http://www.w3.org/1999/xlink">
 <defs>
  <style type="text/css">
   <![CDATA[
    .fil0 {fill:none}
    .fil4 {fill:#00F4FF}
    .fil1 {fill:#EAEDF2}
    .fil3 {fill:white}
    .fil2 {fill:gray;fill-rule:nonzero}
   ]]>
  </style>
 </defs>
 <g id="Layer_x0020_1">
  <metadata id="CorelCorpID_0Corel-Layer"/>
  <g id="_1539861219520">
   <rect class="fil0" width="25.192" height="25.192"/>
   <g>
    <path class="fil1" d="M3.756 16.716l2.7 0c0.327,0 0.595,0.268 0.595,0.595l0 1.463c0,0.327 -0.268,0.595 -0.595,0.595l-2.7 0c-0.327,0 -0.594,-0.268 -0.594,-0.595l0 -1.463c0,-0.327 0.267,-0.595 0.594,-0.595z"/>
    <path class="fil2" d="M3.756 16.409l2.7 0c0.247,0 0.472,0.101 0.636,0.265l0.001 0.002c0.163,0.163 0.265,0.388 0.265,0.635l0 1.463c0,0.247 -0.102,0.472 -0.265,0.636l-0.002 0.002c-0.163,0.163 -0.389,0.264 -0.635,0.264l-2.7 0c-0.247,0 -0.472,-0.102 -0.636,-0.265 -0.164,-0.164 -0.265,-0.39 -0.265,-0.637l0 -1.463c0,-0.249 0.101,-0.474 0.264,-0.637l0.021 -0.019c0.162,-0.152 0.379,-0.246 0.616,-0.246zm2.7 0.614l-2.7 0c-0.073,0 -0.141,0.028 -0.192,0.074l-0.011 0.011c-0.052,0.052 -0.084,0.124 -0.084,0.203l0 1.463c0,0.079 0.032,0.152 0.084,0.204 0.052,0.051 0.124,0.084 0.203,0.084l2.7 0c0.079,0 0.151,-0.032 0.203,-0.084 0.052,-0.052 0.085,-0.125 0.085,-0.204l0 -1.463c0,-0.08 -0.032,-0.152 -0.084,-0.203 -0.053,-0.053 -0.125,-0.085 -0.204,-0.085z"/>
    <path class="fil3" d="M4.151 17.501c-0.974,0 -1.774,-0.799 -1.774,-1.774l0 -3.426c0,-0.442 0.131,-0.617 0.34,-0.992l0.899 -1.611 -1.609 -0.204c-0.755,-0.097 -1.385,-0.624 -1.385,-1.386l0 -0.448c0,-0.344 0.281,-0.625 0.625,-0.625l2.681 0c0.294,0 0.534,0.24 0.534,0.534l0 0.614 1.677 -3.01c0.338,-0.607 0.912,-0.966 1.913,-0.966l10.168 0c1.001,0 1.576,0.359 1.914,0.966l1.676 3.01 0.846 1.515 0.899 1.611c0.209,0.375 0.34,0.551 0.34,0.992l0 3.426c0,0.975 -0.8,1.774 -1.774,1.774l-17.97 0z"/>
    <path class="fil2" d="M4.151 17.808c-0.57,0 -1.091,-0.235 -1.469,-0.612 -0.377,-0.376 -0.612,-0.897 -0.612,-1.469l0 -3.426c0,-0.473 0.119,-0.683 0.316,-1.028 0.259,-0.423 0.499,-0.893 0.742,-1.329l-1.159 -0.147c-0.459,-0.058 -0.881,-0.255 -1.182,-0.555 -0.291,-0.292 -0.472,-0.679 -0.472,-1.134l0 -0.448c0,-0.256 0.105,-0.489 0.273,-0.657 0.17,-0.17 0.403,-0.275 0.659,-0.275l2.681 0c0.23,0 0.44,0.094 0.593,0.247l0.002 0.002c0.059,0.059 0.109,0.127 0.149,0.201l1.199 -2.153c0.197,-0.354 0.465,-0.637 0.832,-0.833 0.356,-0.189 0.798,-0.292 1.349,-0.292l10.168 0c0.552,0 0.993,0.103 1.35,0.292 0.366,0.196 0.634,0.479 0.831,0.833 1.16,2.081 2.309,4.175 3.485,6.247 0.197,0.346 0.316,0.556 0.316,1.029l0 3.426c0,0.572 -0.235,1.093 -0.612,1.469l-0.018 0.017c-0.376,0.368 -0.89,0.595 -1.451,0.595l-17.97 0zm-1.035 -1.045c0.265,0.266 0.632,0.431 1.035,0.431l17.97 0c0.396,0 0.757,-0.16 1.021,-0.417l0.014 -0.015c0.266,-0.266 0.432,-0.632 0.432,-1.035l0 -3.426c0,-0.314 -0.089,-0.47 -0.235,-0.726 -1.174,-2.076 -2.326,-4.169 -3.487,-6.253 -0.141,-0.253 -0.329,-0.454 -0.584,-0.59 -0.266,-0.141 -0.613,-0.218 -1.062,-0.218l-10.168 0c-0.449,0 -0.796,0.077 -1.061,0.218 -0.255,0.136 -0.444,0.337 -0.585,0.59l-1.664 2.988c-0.048,0.106 -0.155,0.18 -0.28,0.18 -0.169,0 -0.307,-0.137 -0.307,-0.307l0 -0.614c0,-0.063 -0.025,-0.12 -0.066,-0.16 -0.041,-0.041 -0.098,-0.067 -0.161,-0.067l-2.681 0c-0.088,0 -0.168,0.036 -0.225,0.093 -0.057,0.057 -0.093,0.137 -0.093,0.225l0 0.448c0,0.28 0.112,0.519 0.293,0.699 0.206,0.207 0.5,0.342 0.824,0.383l1.597 0.203c0.042,0.004 0.083,0.016 0.122,0.038 0.148,0.082 0.201,0.268 0.119,0.416 -0.319,0.571 -0.662,1.151 -0.966,1.728 -0.145,0.256 -0.233,0.412 -0.233,0.726l0 3.426c0,0.403 0.165,0.769 0.431,1.036z"/>
    <path class="fil4" d="M4.08 10.854c1.142,0.259 2.353,0.332 3.53,0.452 0.481,0.049 0.829,0.354 0.829,0.773l0 0.628c0,0.301 -0.25,0.55 -0.551,0.55l-1.106 0c-2.328,0 -2.579,-1.818 -2.702,-2.403z"/>
    <path class="fil2" d="M4.147 10.555c0.886,0.202 1.822,0.289 2.748,0.375l0.756 0.073c0.307,0.033 0.575,0.151 0.768,0.331 0.205,0.192 0.327,0.449 0.327,0.745l0 0.628c0,0.234 -0.098,0.449 -0.253,0.604 -0.155,0.156 -0.37,0.253 -0.605,0.253l-1.106 0c-2.469,0 -2.837,-1.828 -2.984,-2.56l-0.018 -0.089c-0.034,-0.166 0.073,-0.328 0.239,-0.361 0.044,-0.009 0.087,-0.008 0.128,0.001zm2.693 0.985c-0.789,-0.074 -1.585,-0.148 -2.359,-0.291 0.184,0.683 0.666,1.701 2.301,1.701l1.106 0c0.066,0 0.127,-0.028 0.171,-0.072 0.045,-0.044 0.073,-0.105 0.073,-0.171l0 -0.628c0,-0.117 -0.049,-0.22 -0.131,-0.296 -0.098,-0.092 -0.243,-0.153 -0.414,-0.171l-0.747 -0.072z"/>
    <path class="fil4" d="M22.192 10.854c-1.142,0.259 -2.353,0.332 -3.53,0.452 -0.481,0.049 -0.828,0.354 -0.828,0.773l0 0.628c0,0.301 0.249,0.55 0.55,0.55l1.106 0c2.328,0 2.579,-1.818 2.702,-2.403z"/>
    <path class="fil2" d="M21.791 11.249c-0.774,0.143 -1.57,0.217 -2.359,0.291l-0.747 0.072c-0.171,0.018 -0.316,0.079 -0.414,0.171 -0.082,0.076 -0.131,0.179 -0.131,0.296l0 0.628c0,0.066 0.028,0.127 0.072,0.171 0.045,0.044 0.106,0.072 0.172,0.072l1.106 0c1.635,0 2.117,-1.018 2.301,-1.701zm-2.414 -0.319c0.926,-0.086 1.862,-0.173 2.748,-0.375 0.041,-0.009 0.084,-0.01 0.128,-0.001 0.166,0.033 0.273,0.195 0.239,0.361l-0.018 0.089c-0.147,0.732 -0.515,2.56 -2.984,2.56l-1.106 0c-0.235,0 -0.45,-0.097 -0.605,-0.252 -0.155,-0.156 -0.253,-0.371 -0.253,-0.605l0 -0.628c0,-0.296 0.122,-0.553 0.327,-0.745 0.193,-0.18 0.461,-0.298 0.768,-0.331l0.756 -0.073zm-0.692 0.682c-0.165,0.012 -0.311,-0.109 -0.328,-0.275l0.328 0.275z"/>
    <path class="fil1" d="M9.882 11.69l6.508 0c0.195,0 0.354,0.159 0.354,0.354l0 0.859c0,0.195 -0.159,0.354 -0.354,0.354l-6.508 0c-0.195,0 -0.354,-0.159 -0.354,-0.354l0 -0.859c0,-0.195 0.159,-0.354 0.354,-0.354z"/>
    <path class="fil2" d="M9.882 11.382l6.508 0c0.182,0 0.347,0.075 0.467,0.194 0.12,0.12 0.194,0.286 0.194,0.468l0 0.859c0,0.182 -0.074,0.348 -0.194,0.467 -0.12,0.12 -0.285,0.194 -0.467,0.194l-6.508 0c-0.182,0 -0.348,-0.074 -0.467,-0.194 -0.12,-0.119 -0.194,-0.285 -0.194,-0.467l0 -0.859c0,-0.182 0.074,-0.348 0.194,-0.468 0.119,-0.119 0.285,-0.194 0.467,-0.194zm6.508 0.615l-6.508 0c-0.012,0 -0.025,0.005 -0.033,0.014 -0.009,0.008 -0.014,0.02 -0.014,0.033l0 0.859c0,0.013 0.005,0.025 0.014,0.033 0.008,0.009 0.021,0.014 0.033,0.014l6.508 0c0.012,0 0.024,-0.005 0.033,-0.014 0.008,-0.008 0.014,-0.02 0.014,-0.033l0 -0.859c0,-0.013 -0.006,-0.025 -0.014,-0.033 -0.009,-0.009 -0.021,-0.014 -0.033,-0.014z"/>
    <path class="fil1" d="M10.792 15.252l4.688 0c0.832,0 1.158,0.502 1.493,0.937l1.011 1.312 -9.696 0 1.01 -1.312c0.336,-0.435 0.662,-0.937 1.494,-0.937z"/>
    <path class="fil2" d="M10.792 14.945l4.688 0c0.931,0 1.314,0.503 1.674,0.975l1.072 1.394c0.104,0.133 0.079,0.326 -0.055,0.429 -0.056,0.043 -0.122,0.064 -0.187,0.064l-9.696 0.001c-0.17,0 -0.307,-0.138 -0.307,-0.307 0,-0.079 0.03,-0.151 0.078,-0.205l1.059 -1.376c0.36,-0.472 0.743,-0.975 1.674,-0.975zm4.688 0.614l-4.688 0c-0.629,0 -0.917,0.379 -1.187,0.733l-0.694 0.902 8.45 0 -0.694 -0.902c-0.27,-0.354 -0.559,-0.733 -1.187,-0.733z"/>
    <path class="fil1" d="M6.139 5.173l-1.677 3.01c1.556,1.127 2.388,1.046 4.457,1.046l3.218 0 5.216 0c2.069,0 2.901,0.081 4.457,-1.046l-1.676 -3.01c-0.338,-0.607 -0.913,-0.966 -1.914,-0.966l-10.168 0c-1.001,0 -1.575,0.359 -1.913,0.966z"/>
    <path class="fil2" d="M6.406 5.322l-1.542 2.768c1.242,0.84 2.038,0.838 3.665,0.834 2.941,-0.005 5.883,-0.002 8.824,-0.002l0.39 0.002c1.627,0.004 2.423,0.006 3.665,-0.834l-1.542 -2.768c-0.141,-0.253 -0.329,-0.454 -0.584,-0.59 -0.266,-0.141 -0.613,-0.218 -1.062,-0.218l-10.168 0c-0.449,0 -0.796,0.077 -1.061,0.218 -0.255,0.136 -0.444,0.337 -0.585,0.59zm-2.211 2.712l1.676 -3.009c0.197,-0.354 0.465,-0.637 0.832,-0.833 0.356,-0.189 0.798,-0.292 1.349,-0.292l10.168 0c0.552,0 0.993,0.103 1.35,0.292 0.366,0.196 0.634,0.479 0.831,0.833l1.667 2.993c0.087,0.136 0.054,0.317 -0.078,0.413 -1.534,1.112 -2.388,1.11 -4.247,1.105 -3.071,-0.006 -6.143,0.004 -9.214,0 -1.859,0.005 -2.713,0.007 -4.247,-1.105 -0.123,-0.09 -0.163,-0.26 -0.087,-0.397z"/>
    <path class="fil3" d="M24.57 8.521c0,2.503 0,0.294 0,2.797 0,7.58 0.069,5.744 -6.137,10.484 -6.206,-4.74 -6.137,-2.904 -6.137,-10.484 0,-2.503 0,-0.294 0,-2.797 2.466,0 4.669,-0.592 6.137,-1.521 1.468,0.929 3.672,1.521 6.137,1.521z"/>
    <path class="fil2" d="M24.877 8.521l0 3.043c0,3.432 0,4.897 -0.65,6.006 -0.486,0.832 -1.295,1.395 -2.706,2.376 -0.772,0.537 -1.73,1.204 -2.902,2.099 -0.113,0.087 -0.269,0.082 -0.376,-0.003 -1.171,-0.894 -2.127,-1.559 -2.898,-2.096 -1.41,-0.981 -2.219,-1.544 -2.706,-2.376 -0.649,-1.109 -0.649,-2.574 -0.649,-6.006l-0.001 -3.043c0,-0.17 0.137,-0.307 0.307,-0.307 1.185,0 2.307,-0.139 3.308,-0.387 1.036,-0.257 1.946,-0.63 2.666,-1.086 0.103,-0.065 0.23,-0.061 0.327,0 0.721,0.456 1.629,0.829 2.665,1.086 1.002,0.248 2.123,0.387 3.308,0.387 0.17,0 0.307,0.137 0.307,0.307zm-0.614 2.797l0 -2.493c-1.119,-0.022 -2.183,-0.165 -3.147,-0.403 -1.024,-0.254 -1.936,-0.618 -2.683,-1.063 -0.746,0.445 -1.658,0.809 -2.682,1.063 -0.964,0.238 -2.028,0.381 -3.148,0.403l0 2.739c-0.001,3.316 -0.001,4.731 0.563,5.697 0.418,0.712 1.187,1.248 2.53,2.182 0.73,0.508 1.627,1.132 2.737,1.973 1.111,-0.842 2.007,-1.465 2.738,-1.974 1.342,-0.933 2.112,-1.469 2.529,-2.182 0.565,-0.965 0.565,-2.381 0.565,-5.696l-0.002 -0.246z"/>
    <path class="fil4" d="M17.759 10.586l1.349 0c0.105,0 0.191,0.087 0.191,0.192l0 2.196 2.196 0c0.106,0 0.192,0.086 0.192,0.191l0 1.349c0,0.106 -0.086,0.192 -0.192,0.192l-2.196 0 0 2.196c0,0.105 -0.086,0.192 -0.191,0.192l-1.349 0c-0.106,0 -0.192,-0.086 -0.192,-0.192l0 -2.196 -2.196 0c-0.105,0 -0.191,-0.086 -0.191,-0.192l0 -1.349c0,-0.105 0.086,-0.191 0.191,-0.191l2.196 0 0 -2.196c0,-0.106 0.086,-0.192 0.192,-0.192z"/>
    <path class="fil2" d="M17.759 10.279l1.349 0c0.136,0 0.261,0.057 0.351,0.147 0.091,0.091 0.148,0.216 0.148,0.352l0 1.889 1.888 0c0.136,0 0.261,0.056 0.351,0.146 0.092,0.091 0.148,0.217 0.148,0.352l0 1.349c0,0.137 -0.056,0.262 -0.146,0.353 -0.091,0.09 -0.217,0.146 -0.353,0.146l-1.888 0 0 1.889c0,0.136 -0.057,0.261 -0.148,0.352 -0.089,0.091 -0.214,0.147 -0.351,0.147l-1.349 0c-0.137,0 -0.261,-0.056 -0.352,-0.146 -0.091,-0.092 -0.147,-0.217 -0.147,-0.353l0 -1.889 -1.889 0c-0.136,0 -0.261,-0.056 -0.351,-0.146 -0.092,-0.092 -0.148,-0.217 -0.148,-0.353l0 -1.349c0,-0.136 0.057,-0.261 0.147,-0.351 0.091,-0.091 0.216,-0.147 0.352,-0.147l1.889 0 0 -1.889c0,-0.136 0.056,-0.261 0.146,-0.351 0.092,-0.091 0.216,-0.148 0.353,-0.148zm1.233 0.614l-1.118 0 0 2.388 -2.388 0 0 1.118 2.388 0 0 2.388 1.118 0 0 -2.388 2.388 0 0 -1.118 -2.388 0 0 -2.388z"/>
   </g>
  </g>
 </g>
</svg>
