<?xml version="1.0" encoding="UTF-8"?>
<!DOCTYPE svg PUBLIC "-//W3C//DTD SVG 1.1//EN" "http://www.w3.org/Graphics/SVG/1.1/DTD/svg11.dtd">
<!-- Creator: CorelDRAW 2018 (64-Bit) -->
<svg xmlns="http://www.w3.org/2000/svg" xml:space="preserve" width="40px" height="40px" version="1.1" style="shape-rendering:geometricPrecision; text-rendering:geometricPrecision; image-rendering:optimizeQuality; fill-rule:evenodd; clip-rule:evenodd"
viewBox="0 0 25.192 25.192"
 xmlns:xlink="http://www.w3.org/1999/xlink">
 <defs>
  <style type="text/css">
   <![CDATA[
    .fil0 {fill:none}
    .fil4 {fill:#00F4FF;fill-rule:nonzero}
    .fil2 {fill:gray;fill-rule:nonzero}
    .fil1 {fill:#EAEDF2;fill-rule:nonzero}
    .fil3 {fill:white;fill-rule:nonzero}
   ]]>
  </style>
 </defs>
 <g id="Layer_x0020_1">
  <metadata id="CorelCorpID_0Corel-Layer"/>
  <g id="_1576236625696">
   <rect class="fil0" width="25.192" height="25.192"/>
   <g>
    <path class="fil1" d="M4.941 11.354l0 5.341c0,0.213 0.077,0.418 0.217,0.579l0 0c0.167,0.192 1.795,1.877 7.438,1.877 5.644,0 7.271,-1.685 7.438,-1.877l0 0c0.14,-0.161 0.217,-0.366 0.217,-0.579l0 -5.341 -15.31 0z"/>
    <path class="fil2" d="M5.256 11.668l0 5.027c0,0.071 0.013,0.139 0.035,0.2 0.023,0.062 0.059,0.121 0.104,0.174 0.099,0.113 0.762,0.801 2.706,1.291 1.079,0.272 2.54,0.476 4.495,0.476 1.955,0 3.416,-0.204 4.496,-0.476 1.943,-0.49 2.606,-1.178 2.705,-1.291 0.045,-0.053 0.081,-0.112 0.104,-0.175 0.023,-0.06 0.035,-0.128 0.035,-0.199l0 -5.027 -14.68 0zm-0.629 5.027l0 -5.341c0,-0.174 0.141,-0.315 0.314,-0.315l15.31 0c0.174,0 0.315,0.141 0.315,0.315l0 5.341c0,0.141 -0.027,0.283 -0.077,0.418 -0.05,0.134 -0.124,0.259 -0.217,0.366 -0.118,0.136 -0.901,0.954 -3.028,1.491 -1.124,0.284 -2.638,0.496 -4.648,0.496 -2.01,0 -3.523,-0.212 -4.648,-0.496 -2.126,-0.537 -2.91,-1.355 -3.027,-1.491 -0.094,-0.107 -0.168,-0.232 -0.217,-0.365 -0.051,-0.136 -0.077,-0.278 -0.077,-0.419z"/>
    <path class="fil3" d="M23.409 7.947l-9.28 -2.816c-0.42,-0.127 -0.965,-0.198 -1.533,-0.198 -0.568,0 -1.113,0.071 -1.533,0.198l-9.28 2.816c-1.004,0.305 -1.153,0.903 -1.153,1.233 0,0.318 0.14,0.887 1.053,1.2 4.27,1.298 5.064,1.566 10.025,3.111 0.578,0.18 1.198,0.18 1.776,0 4.065,-1.266 6.229,-1.957 9.925,-3.079 1.003,-0.304 1.153,-0.903 1.153,-1.232 0,-0.33 -0.149,-0.928 -1.153,-1.233z"/>
    <path class="fil2" d="M23.318 8.247l-9.28 -2.815c-0.193,-0.059 -0.417,-0.105 -0.659,-0.136 -0.24,-0.031 -0.505,-0.048 -0.783,-0.048 -0.277,0 -0.543,0.017 -0.783,0.048 -0.242,0.031 -0.466,0.077 -0.659,0.136l-9.28 2.815c-0.352,0.107 -0.576,0.25 -0.714,0.398 -0.178,0.19 -0.215,0.396 -0.215,0.535 0,0.133 0.034,0.329 0.196,0.513 0.125,0.142 0.326,0.281 0.643,0.39l0.009 0.003c2.977,0.905 4.241,1.301 6.28,1.939l3.729 1.166c0.257,0.08 0.525,0.12 0.794,0.12 0.269,0 0.537,-0.04 0.795,-0.12l3.072 -0.96c2.294,-0.718 4.121,-1.289 6.855,-2.119 0.352,-0.107 0.576,-0.249 0.714,-0.398 0.178,-0.189 0.215,-0.395 0.215,-0.534 0,-0.139 -0.037,-0.345 -0.214,-0.535 -0.139,-0.148 -0.363,-0.291 -0.715,-0.398zm-9.097 -3.416l9.279 2.816c0.47,0.143 0.783,0.349 0.99,0.57 0.32,0.342 0.387,0.713 0.387,0.963 0,0.25 -0.067,0.62 -0.387,0.963 -0.207,0.221 -0.52,0.427 -0.99,0.569 -2.566,0.779 -4.465,1.373 -6.85,2.119l-3.072 0.96c-0.321,0.1 -0.652,0.15 -0.982,0.15 -0.329,0 -0.661,-0.05 -0.981,-0.15l-3.729 -1.165c-2.141,-0.671 -3.468,-1.087 -6.275,-1.94l-0.029 -0.008c-0.434,-0.149 -0.723,-0.355 -0.914,-0.572 -0.291,-0.332 -0.353,-0.685 -0.353,-0.926 0,-0.25 0.067,-0.621 0.387,-0.963 0.207,-0.221 0.52,-0.427 0.99,-0.57l9.279 -2.816c0.227,-0.069 0.486,-0.122 0.763,-0.158 0.279,-0.036 0.571,-0.054 0.862,-0.054 0.291,0 0.583,0.018 0.862,0.054 0.277,0.036 0.536,0.089 0.763,0.158z"/>
    <path class="fil3" d="M2.125 17.731l0 0c-0.548,0 -0.993,-0.445 -0.993,-0.993l0 -0.822c0,-0.174 0.046,-0.344 0.132,-0.495l0.861 -1.498 0.861 1.498c0.086,0.151 0.132,0.321 0.132,0.495l0 0.822c0,0.548 -0.445,0.993 -0.993,0.993z"/>
    <path class="fil2" d="M2.125 18.046c-0.36,0 -0.688,-0.147 -0.924,-0.383 -0.237,-0.237 -0.384,-0.564 -0.384,-0.925l0 -0.822c0,-0.113 0.016,-0.226 0.045,-0.336 0.029,-0.109 0.073,-0.215 0.13,-0.315l0.861 -1.498c0.086,-0.15 0.278,-0.202 0.428,-0.115 0.05,0.028 0.089,0.068 0.115,0.115l0.861 1.498c0.058,0.098 0.102,0.204 0.131,0.314l0.004 0.016c0.027,0.106 0.041,0.214 0.041,0.321l0 0.822c0,0.36 -0.147,0.687 -0.384,0.924 -0.236,0.237 -0.563,0.384 -0.924,0.384zm-0.48 -0.828c0.123,0.122 0.293,0.198 0.48,0.198 0.187,0 0.357,-0.076 0.48,-0.198 0.123,-0.122 0.198,-0.292 0.198,-0.48l0 -0.822c0,-0.057 -0.007,-0.113 -0.02,-0.165l-0.002 -0.01c-0.015,-0.056 -0.038,-0.112 -0.068,-0.164l-0.588 -1.025 -0.589 1.025c-0.029,0.05 -0.051,0.105 -0.067,0.163 -0.014,0.055 -0.022,0.115 -0.022,0.176l0 0.822c0,0.187 0.076,0.357 0.198,0.48z"/>
    <polygon class="fil2" points="2.44,10.371 2.44,13.923 1.81,13.923 1.81,10.371 "/>
    <path class="fil4" d="M20.525 13.96c2.087,0 3.779,1.692 3.779,3.779 0,2.087 -1.692,3.779 -3.779,3.779 -2.087,0 -3.779,-1.692 -3.779,-3.779 0,-2.087 1.692,-3.779 3.779,-3.779z"/>
    <path class="fil2" d="M20.525 13.645c1.129,0 2.153,0.459 2.894,1.2l0.002 0.002c0.74,0.741 1.198,1.764 1.198,2.892 0,1.129 -0.458,2.152 -1.199,2.894l-0.002 0.002c-0.741,0.74 -1.764,1.198 -2.893,1.198 -1.128,0 -2.152,-0.458 -2.893,-1.199l-0.002 -0.002c-0.741,-0.741 -1.198,-1.764 -1.198,-2.893 0,-1.129 0.458,-2.153 1.199,-2.893 0.742,-0.742 1.765,-1.201 2.894,-1.201zm2.45 1.644c-0.626,-0.626 -1.492,-1.014 -2.45,-1.014 -0.957,0 -1.823,0.388 -2.45,1.014 -0.626,0.627 -1.014,1.493 -1.014,2.45 0,0.958 0.388,1.824 1.014,2.45 0.627,0.627 1.493,1.014 2.45,1.014 0.958,0 1.824,-0.387 2.45,-1.013 0.627,-0.627 1.014,-1.493 1.014,-2.451 0,-0.957 -0.387,-1.823 -1.014,-2.45z"/>
    <path class="fil2" d="M19.898 16.793c0.008,0.035 0.02,0.069 0.036,0.099l0.028 0.048 0.033 0.045 0.041 0.044c0.058,0.053 0.102,0.086 0.167,0.131 0.109,0.067 0.21,0.119 0.324,0.179 0.256,0.129 0.486,0.245 0.728,0.4l0.095 0.069 0.09 0.073 0.082 0.076c0.057,0.06 0.093,0.102 0.145,0.167l0.061 0.09 0.052 0.095c0.017,0.036 0.032,0.071 0.043,0.105 0.011,0.034 0.021,0.069 0.029,0.101l0.002 0.009c0.007,0.034 0.013,0.072 0.017,0.112l0 0.005c0.005,0.044 0.007,0.084 0.007,0.122 0,0.05 -0.003,0.103 -0.009,0.156 -0.004,0.048 -0.012,0.094 -0.022,0.139l-0.002 0.01c-0.011,0.048 -0.025,0.094 -0.041,0.136 -0.014,0.037 -0.032,0.075 -0.053,0.114l-0.005 0.01c-0.023,0.041 -0.047,0.078 -0.071,0.111 -0.025,0.035 -0.053,0.069 -0.083,0.101 -0.031,0.033 -0.063,0.063 -0.096,0.091 -0.036,0.029 -0.072,0.055 -0.107,0.078 -0.04,0.025 -0.078,0.048 -0.114,0.067 -0.04,0.02 -0.08,0.04 -0.121,0.056 -0.044,0.018 -0.087,0.033 -0.128,0.046 -0.078,0.021 -0.139,0.035 -0.21,0.05l0 0.355c0,0.16 -0.13,0.29 -0.291,0.29 -0.16,0 -0.29,-0.13 -0.29,-0.29l0 -0.315c-0.077,-0.006 -0.163,-0.01 -0.235,-0.016 -0.08,-0.01 -0.184,-0.023 -0.257,-0.043 -0.092,-0.02 -0.2,-0.044 -0.287,-0.076 -0.043,-0.015 -0.082,-0.03 -0.116,-0.044l-0.034 -0.016c-0.078,-0.033 -0.133,-0.11 -0.133,-0.201l0 -0.277c0.001,-0.034 0.009,-0.069 0.026,-0.102 0.057,-0.106 0.188,-0.146 0.294,-0.089l0.128 0.065 0.135 0.055c0.182,0.059 0.317,0.088 0.506,0.112 0.036,0.003 0.077,0.005 0.121,0.005 0.074,0 0.141,-0.003 0.2,-0.01 0.06,-0.006 0.116,-0.016 0.167,-0.029 0.049,-0.011 0.096,-0.028 0.137,-0.046 0.038,-0.017 0.073,-0.038 0.104,-0.061l0.004 -0.003c0.03,-0.023 0.056,-0.048 0.077,-0.075 0.021,-0.026 0.039,-0.055 0.054,-0.086 0.015,-0.033 0.027,-0.069 0.034,-0.105 0.008,-0.037 0.012,-0.08 0.012,-0.128 -0.005,-0.082 -0.009,-0.11 -0.034,-0.188 -0.021,-0.044 -0.035,-0.065 -0.062,-0.107 -0.033,-0.041 -0.051,-0.06 -0.089,-0.098l-0.054 -0.047c-0.115,-0.086 -0.194,-0.126 -0.314,-0.2 -0.064,-0.045 -0.22,-0.121 -0.359,-0.189 -0.18,-0.089 -0.334,-0.171 -0.503,-0.279 -0.096,-0.068 -0.165,-0.123 -0.252,-0.203l-0.07 -0.076c-0.048,-0.061 -0.077,-0.102 -0.119,-0.168 -0.016,-0.03 -0.039,-0.067 -0.051,-0.098 -0.015,-0.032 -0.028,-0.066 -0.038,-0.099 -0.011,-0.037 -0.02,-0.071 -0.026,-0.104 -0.007,-0.033 -0.012,-0.071 -0.016,-0.114 -0.004,-0.044 -0.006,-0.085 -0.006,-0.12 0,-0.049 0.003,-0.098 0.008,-0.147 0.006,-0.049 0.015,-0.097 0.026,-0.141 0.01,-0.039 0.023,-0.079 0.039,-0.12l0.005 -0.013c0.017,-0.042 0.038,-0.083 0.061,-0.122 0.023,-0.04 0.048,-0.077 0.072,-0.109l0.084 -0.099c0.028,-0.029 0.059,-0.059 0.095,-0.089 0.035,-0.029 0.069,-0.056 0.101,-0.077l0.009 -0.006c0.035,-0.023 0.071,-0.045 0.109,-0.065 0.04,-0.023 0.079,-0.042 0.116,-0.058 0.047,-0.02 0.09,-0.036 0.129,-0.05 0.073,-0.021 0.134,-0.038 0.202,-0.054l0 -0.362c0,-0.161 0.13,-0.291 0.29,-0.291 0.161,0 0.291,0.13 0.291,0.291l0 0.308c0.064,0.002 0.127,0.005 0.188,0.009 0.091,0.006 0.176,0.016 0.254,0.029 0.054,0.008 0.105,0.019 0.153,0.032l0.012 0.002c0.048,0.013 0.092,0.027 0.132,0.043 0.087,0.028 0.15,0.11 0.15,0.207l0 0.265c0,0.032 -0.007,0.064 -0.022,0.094 -0.052,0.108 -0.182,0.154 -0.29,0.102 -0.035,-0.017 -0.072,-0.033 -0.111,-0.047 -0.038,-0.014 -0.078,-0.027 -0.12,-0.039 -0.071,-0.018 -0.147,-0.034 -0.227,-0.043l-0.007 -0.001c-0.082,-0.01 -0.17,-0.015 -0.262,-0.015l-0.073 0.001c-0.082,0.006 -0.143,0.014 -0.227,0.03l-0.066 0.016c-0.073,0.024 -0.118,0.044 -0.186,0.08 -0.057,0.039 -0.085,0.063 -0.131,0.114l-0.036 0.048c-0.025,0.044 -0.028,0.054 -0.045,0.102l-0.012 0.061c-0.003,0.018 -0.004,0.042 -0.004,0.071 0,0.048 0.004,0.091 0.012,0.128z"/>
   </g>
  </g>
 </g>
</svg>
