<?xml version="1.0" encoding="UTF-8"?>
<!DOCTYPE svg PUBLIC "-//W3C//DTD SVG 1.1//EN" "http://www.w3.org/Graphics/SVG/1.1/DTD/svg11.dtd">
<!-- Creator: CorelDRAW 2018 (64-Bit) -->
<svg xmlns="http://www.w3.org/2000/svg" xml:space="preserve" width="40px" height="40px" version="1.1" style="shape-rendering:geometricPrecision; text-rendering:geometricPrecision; image-rendering:optimizeQuality; fill-rule:evenodd; clip-rule:evenodd"
viewBox="0 0 25.192 25.192"
 xmlns:xlink="http://www.w3.org/1999/xlink">
 <defs>
  <style type="text/css">
   <![CDATA[
    .fil0 {fill:none}
    .fil1 {fill:white}
    .fil4 {fill:#00F4FF;fill-rule:nonzero}
    .fil2 {fill:gray;fill-rule:nonzero}
    .fil3 {fill:#EAEDF2;fill-rule:nonzero}
   ]]>
  </style>
 </defs>
 <g id="Layer_x0020_1">
  <metadata id="CorelCorpID_0Corel-Layer"/>
  <g id="_1576231272336">
   <rect class="fil0" width="25.192" height="25.192"/>
   <g>
    <path class="fil1" d="M7.096 8.275c0.826,0 1.495,0.772 1.495,1.495 0,0.723 -0.379,1.24 -0.917,1.509l0 0.399 3.903 0 0 3.539 -0.399 0c-0.269,-0.539 -0.786,-0.918 -1.51,-0.918 -0.723,0 -1.494,0.669 -1.494,1.495 0,0.825 0.771,1.495 1.494,1.495 0.724,0 1.241,-0.379 1.51,-0.918l0.399 0 0 3.495 -8.37 0c-0.329,0 -0.598,-0.269 -0.598,-0.598l0 -7.59 3.91 0 0 -0.399c-0.539,-0.269 -0.917,-0.786 -0.917,-1.509 0,-0.724 0.669,-1.495 1.494,-1.495z"/>
    <path class="fil2" d="M7.096 7.96c0.489,0 0.93,0.218 1.253,0.541l0.018 0.019c0.332,0.342 0.539,0.802 0.539,1.25 0,0.407 -0.104,0.762 -0.285,1.058l-0.011 0.017c-0.127,0.204 -0.289,0.378 -0.476,0.519l3.443 0c0.174,0 0.315,0.141 0.315,0.314l0 3.539c0,0.174 -0.141,0.315 -0.315,0.315l-0.399 0c-0.127,0 -0.237,-0.076 -0.287,-0.185 -0.114,-0.225 -0.279,-0.414 -0.49,-0.542 -0.199,-0.121 -0.444,-0.191 -0.733,-0.191 -0.29,0 -0.594,0.143 -0.823,0.371 -0.213,0.214 -0.356,0.499 -0.356,0.809 0,0.309 0.143,0.594 0.356,0.807l0.014 0.016c0.227,0.22 0.525,0.357 0.809,0.357 0.288,0 0.533,-0.07 0.732,-0.191 0.215,-0.131 0.382,-0.324 0.496,-0.552 0.055,-0.111 0.167,-0.175 0.282,-0.175l0.399 0c0.174,0 0.315,0.141 0.315,0.315l0 3.495c0,0.174 -0.141,0.315 -0.315,0.315l-8.37 0c-0.251,0 -0.479,-0.103 -0.645,-0.268 -0.165,-0.165 -0.268,-0.394 -0.268,-0.645l0 -7.59c0,-0.173 0.141,-0.314 0.315,-0.314l3.45 0c-0.193,-0.145 -0.359,-0.325 -0.487,-0.537 -0.18,-0.296 -0.285,-0.651 -0.285,-1.057 0,-0.458 0.214,-0.926 0.557,-1.269 0.323,-0.323 0.764,-0.541 1.252,-0.541zm0.808 0.986c-0.213,-0.213 -0.498,-0.356 -0.808,-0.356 -0.309,0 -0.594,0.143 -0.807,0.356 -0.229,0.229 -0.372,0.534 -0.372,0.824 0,0.288 0.07,0.533 0.191,0.732 0.128,0.211 0.317,0.376 0.541,0.49 0.109,0.05 0.185,0.16 0.185,0.287l0 0.399c0,0.174 -0.141,0.315 -0.315,0.315l-3.595 0 0 7.275c0,0.078 0.032,0.148 0.084,0.2 0.051,0.051 0.122,0.083 0.199,0.083l8.055 0 0 -2.72c-0.145,0.193 -0.324,0.359 -0.535,0.488 -0.297,0.18 -0.652,0.285 -1.059,0.285 -0.448,0 -0.907,-0.207 -1.249,-0.54l-0.019 -0.018c-0.323,-0.323 -0.541,-0.763 -0.541,-1.252 0,-0.489 0.218,-0.93 0.541,-1.253 0.344,-0.342 0.812,-0.557 1.268,-0.557 0.407,0 0.762,0.105 1.058,0.285 0.212,0.129 0.391,0.295 0.536,0.487l0 -2.763 -3.588 0c-0.174,0 -0.315,-0.141 -0.315,-0.315l0 -0.399c0,-0.115 0.064,-0.226 0.174,-0.281 0.225,-0.112 0.414,-0.275 0.544,-0.482l0.008 -0.015c0.121,-0.199 0.191,-0.444 0.191,-0.731 0,-0.285 -0.137,-0.583 -0.357,-0.809l-0.015 -0.015z"/>
    <path class="fil3" d="M8.174 15.794c0,-0.826 0.771,-1.495 1.494,-1.495 0.724,0 1.241,0.379 1.51,0.918l0.399 0 0 -3.539 3.915 0 0 0.4c-0.539,0.269 -0.917,0.786 -0.917,1.509 0,0.723 0.669,1.495 1.495,1.495 0.825,0 1.494,-0.772 1.494,-1.495 0,-0.723 -0.379,-1.241 -0.917,-1.509l0 -0.4 3.898 0 0 7.59c0,0.329 -0.269,0.598 -0.598,0.598l-8.37 0 0 -3.495 -0.399 0c-0.269,0.539 -0.786,0.918 -1.51,0.918 -0.723,0 -1.494,-0.67 -1.494,-1.495z"/>
    <path class="fil2" d="M7.859 15.794c0,-0.489 0.218,-0.93 0.541,-1.253l0.019 -0.017c0.342,-0.333 0.801,-0.54 1.249,-0.54 0.407,0 0.761,0.105 1.058,0.285 0.212,0.129 0.391,0.295 0.536,0.487l0 -3.078c0,-0.173 0.141,-0.314 0.315,-0.314l3.915 0c0.174,0 0.315,0.141 0.315,0.314l0 0.4c0,0.128 -0.076,0.238 -0.186,0.287 -0.224,0.114 -0.412,0.279 -0.54,0.489 -0.121,0.201 -0.191,0.446 -0.191,0.733 0,0.291 0.143,0.595 0.371,0.824 0.213,0.213 0.498,0.356 0.809,0.356 0.309,0 0.594,-0.144 0.807,-0.356l0.015 -0.015c0.22,-0.227 0.357,-0.524 0.357,-0.809 0,-0.288 -0.07,-0.534 -0.191,-0.733 -0.13,-0.213 -0.322,-0.38 -0.551,-0.495 -0.111,-0.054 -0.175,-0.166 -0.175,-0.281l0 -0.4c0,-0.173 0.141,-0.314 0.315,-0.314l3.898 0c0.174,0 0.315,0.141 0.315,0.314l0 7.59c0,0.251 -0.103,0.48 -0.268,0.645l-0.022 0.02c-0.163,0.153 -0.383,0.248 -0.623,0.248l-8.37 0c-0.174,0 -0.315,-0.141 -0.315,-0.315l0 -3.035c-0.145,0.193 -0.324,0.359 -0.535,0.488l-0.019 0.011c-0.293,0.173 -0.642,0.274 -1.04,0.274 -0.456,0 -0.924,-0.215 -1.268,-0.558 -0.323,-0.323 -0.541,-0.763 -0.541,-1.252zm0.986 -0.807c-0.213,0.212 -0.356,0.497 -0.356,0.807 0,0.309 0.143,0.594 0.356,0.807 0.229,0.23 0.533,0.373 0.823,0.373 0.281,0 0.522,-0.067 0.718,-0.182l0.014 -0.009c0.211,-0.129 0.377,-0.317 0.491,-0.541 0.049,-0.11 0.159,-0.186 0.287,-0.186l0.399 0c0.174,0 0.315,0.141 0.315,0.315l0 3.18 8.055 0c0.072,0 0.139,-0.027 0.189,-0.072l0.011 -0.011c0.051,-0.052 0.083,-0.122 0.083,-0.2l0 -7.275 -3.123 0c0.193,0.145 0.359,0.325 0.488,0.537 0.179,0.296 0.284,0.651 0.284,1.057 0,0.448 -0.206,0.908 -0.539,1.25l-0.018 0.019c-0.323,0.323 -0.764,0.541 -1.252,0.541 -0.487,0 -0.928,-0.218 -1.251,-0.541l-0.002 -0.001c-0.343,-0.344 -0.557,-0.812 -0.557,-1.268 0,-0.407 0.105,-0.762 0.285,-1.058 0.129,-0.212 0.295,-0.391 0.487,-0.536l-3.14 0 0 3.224c0,0.174 -0.141,0.315 -0.315,0.315l-0.399 0c-0.115,-0.001 -0.227,-0.065 -0.282,-0.175 -0.114,-0.229 -0.281,-0.422 -0.495,-0.552 -0.199,-0.121 -0.444,-0.191 -0.733,-0.191 -0.284,0 -0.582,0.137 -0.809,0.357l-0.014 0.016z"/>
    <path class="fil1" d="M16.058 15.082c-0.825,0 -1.495,-0.772 -1.495,-1.495 0,-0.723 0.379,-1.24 0.918,-1.509l0 -0.4 -3.904 0 0 -3.538 0.399 0c0.269,0.539 0.787,0.918 1.51,0.918 0.723,0 1.494,-0.669 1.494,-1.495 0,-0.826 -0.771,-1.495 -1.494,-1.495 -0.723,0 -1.241,0.379 -1.51,0.918l-0.399 0 0 -3.495 8.37 0c0.329,0 0.598,0.269 0.598,0.598l0 7.589 -3.91 0 0 0.4c0.539,0.268 0.918,0.786 0.918,1.509 0,0.723 -0.669,1.495 -1.495,1.495z"/>
    <path class="fil2" d="M16.058 15.397c-0.489,0 -0.929,-0.218 -1.252,-0.541l-0.018 -0.019c-0.333,-0.342 -0.54,-0.802 -0.54,-1.25 0,-0.407 0.105,-0.762 0.285,-1.058l0.011 -0.017c0.127,-0.204 0.289,-0.378 0.476,-0.519l-3.443 0c-0.174,0 -0.315,-0.141 -0.315,-0.315l0 -3.538c0,-0.174 0.141,-0.315 0.315,-0.315l0.399 0c0.128,0 0.237,0.076 0.287,0.185 0.114,0.225 0.28,0.414 0.49,0.542 0.199,0.12 0.445,0.191 0.733,0.191 0.291,0 0.595,-0.143 0.823,-0.371 0.213,-0.215 0.357,-0.499 0.357,-0.809 0,-0.31 -0.144,-0.595 -0.357,-0.807l-0.014 -0.016c-0.227,-0.22 -0.525,-0.357 -0.809,-0.357 -0.288,0 -0.533,0.07 -0.732,0.191 -0.215,0.131 -0.382,0.324 -0.496,0.552 -0.055,0.111 -0.166,0.175 -0.282,0.175l-0.399 0c-0.174,0 -0.315,-0.141 -0.315,-0.315l0 -3.495c0,-0.174 0.141,-0.315 0.315,-0.315l8.37 0c0.251,0 0.48,0.103 0.645,0.268 0.165,0.165 0.268,0.394 0.268,0.645l0 7.589c0,0.174 -0.141,0.315 -0.315,0.315l-3.449 0c0.192,0.145 0.358,0.325 0.487,0.537 0.18,0.296 0.285,0.651 0.285,1.057 0,0.457 -0.214,0.926 -0.557,1.269 -0.323,0.323 -0.764,0.541 -1.253,0.541zm-0.807 -0.986c0.213,0.212 0.498,0.356 0.807,0.356 0.31,0 0.595,-0.144 0.807,-0.356 0.23,-0.23 0.373,-0.534 0.373,-0.824 0,-0.288 -0.071,-0.534 -0.191,-0.732 -0.128,-0.211 -0.317,-0.376 -0.542,-0.49 -0.109,-0.05 -0.185,-0.16 -0.185,-0.287l0 -0.4c0,-0.173 0.141,-0.314 0.315,-0.314l3.595 0 0 -7.275c0,-0.078 -0.032,-0.149 -0.083,-0.2 -0.051,-0.051 -0.122,-0.083 -0.2,-0.083l-8.055 0 0 2.719c0.145,-0.193 0.324,-0.358 0.535,-0.487 0.298,-0.18 0.653,-0.285 1.059,-0.285 0.448,0 0.908,0.207 1.25,0.54l0.019 0.017c0.323,0.324 0.54,0.764 0.54,1.253 0,0.489 -0.217,0.929 -0.54,1.253 -0.345,0.342 -0.813,0.557 -1.269,0.557 -0.406,0 -0.761,-0.105 -1.058,-0.285 -0.211,-0.129 -0.391,-0.295 -0.536,-0.487l0 2.763 3.589 0c0.174,0 0.315,0.141 0.315,0.314l0 0.4c-0.001,0.115 -0.065,0.226 -0.175,0.281 -0.224,0.112 -0.413,0.275 -0.543,0.482l-0.009 0.015c-0.12,0.199 -0.191,0.444 -0.191,0.731 0,0.285 0.137,0.582 0.357,0.809l0.016 0.015z"/>
    <path class="fil1" d="M14.98 7.563c0,0.826 -0.771,1.495 -1.494,1.495 -0.723,0 -1.241,-0.379 -1.51,-0.918l-0.399 0 0 3.538 -3.915 0 0 -0.399c0.539,-0.269 0.918,-0.786 0.918,-1.509 0,-0.723 -0.67,-1.495 -1.495,-1.495 -0.826,0 -1.495,0.771 -1.495,1.495 0,0.723 0.379,1.24 0.918,1.509l0 0.399 -3.899 0 0 -7.589c0,-0.329 0.27,-0.598 0.598,-0.598l8.37 0 0 3.495 0.399 0c0.269,-0.539 0.787,-0.918 1.51,-0.918 0.723,0 1.494,0.669 1.494,1.495z"/>
    <path class="fil2" d="M15.295 7.563c0,0.489 -0.217,0.929 -0.54,1.253l-0.019 0.017c-0.342,0.333 -0.802,0.54 -1.25,0.54 -0.406,0 -0.761,-0.105 -1.058,-0.285 -0.211,-0.129 -0.391,-0.295 -0.536,-0.487l0 3.077c0,0.174 -0.141,0.315 -0.315,0.315l-3.915 0c-0.174,0 -0.315,-0.141 -0.315,-0.315l0 -0.399c0,-0.127 0.076,-0.237 0.185,-0.286 0.225,-0.115 0.413,-0.28 0.541,-0.491 0.121,-0.2 0.192,-0.445 0.192,-0.732 0,-0.291 -0.143,-0.595 -0.372,-0.824 -0.213,-0.213 -0.498,-0.356 -0.808,-0.356 -0.31,0 -0.595,0.143 -0.807,0.356l-0.016 0.015c-0.22,0.226 -0.357,0.524 -0.357,0.809 0,0.288 0.07,0.533 0.191,0.732 0.13,0.214 0.323,0.381 0.552,0.496 0.11,0.055 0.174,0.166 0.174,0.281l0.001 0.399c0,0.174 -0.141,0.315 -0.315,0.315l-3.899 0c-0.174,0 -0.315,-0.141 -0.315,-0.315l0 -7.589c0,-0.251 0.103,-0.48 0.268,-0.645l0.022 -0.02c0.164,-0.153 0.383,-0.248 0.623,-0.248l8.37 0c0.174,0 0.315,0.141 0.315,0.315l0 3.034c0.145,-0.193 0.324,-0.358 0.535,-0.487l0.018 -0.01c0.293,-0.174 0.642,-0.275 1.041,-0.275 0.456,0 0.924,0.215 1.268,0.558 0.324,0.323 0.541,0.763 0.541,1.252zm-0.986 0.807c0.213,-0.213 0.357,-0.497 0.357,-0.807 0,-0.31 -0.144,-0.595 -0.357,-0.807 -0.228,-0.23 -0.532,-0.373 -0.823,-0.373 -0.281,0 -0.522,0.067 -0.718,0.183l-0.014 0.008c-0.211,0.129 -0.377,0.318 -0.491,0.542 -0.05,0.109 -0.159,0.185 -0.287,0.185l-0.399 0c-0.174,0 -0.315,-0.141 -0.315,-0.315l0 -3.18 -8.055 0c-0.072,0 -0.138,0.027 -0.189,0.072l-0.01 0.011c-0.052,0.051 -0.084,0.122 -0.084,0.2l0 7.275 3.123 0c-0.192,-0.145 -0.358,-0.325 -0.487,-0.537 -0.18,-0.296 -0.285,-0.651 -0.285,-1.057 0,-0.448 0.207,-0.908 0.54,-1.25l0.017 -0.019c0.323,-0.323 0.764,-0.541 1.253,-0.541 0.487,0 0.927,0.217 1.25,0.54l0.002 0.002c0.343,0.344 0.557,0.812 0.557,1.268 0,0.407 -0.104,0.762 -0.284,1.058 -0.129,0.212 -0.295,0.391 -0.487,0.536l3.139 0 0 -3.224c0,-0.174 0.141,-0.315 0.315,-0.315l0.399 0c0.116,0.001 0.227,0.065 0.282,0.175 0.115,0.229 0.282,0.422 0.495,0.552 0.199,0.12 0.445,0.191 0.733,0.191 0.284,0 0.582,-0.137 0.809,-0.357l0.014 -0.016z"/>
    <path class="fil4" d="M20.784 14.144c2.087,0 3.778,1.691 3.778,3.778 0,2.087 -1.691,3.779 -3.778,3.779 -2.088,0 -3.779,-1.692 -3.779,-3.779 0,-2.087 1.691,-3.778 3.779,-3.778z"/>
    <path class="fil2" d="M20.784 13.829c1.128,0 2.152,0.458 2.893,1.199l0.002 0.002c0.74,0.741 1.198,1.764 1.198,2.892 0,1.129 -0.458,2.153 -1.199,2.894l-0.002 0.002c-0.741,0.74 -1.764,1.198 -2.892,1.198 -1.129,0 -2.153,-0.458 -2.894,-1.199l-0.002 -0.002c-0.74,-0.741 -1.198,-1.764 -1.198,-2.893 0,-1.129 0.458,-2.152 1.199,-2.893 0.742,-0.742 1.765,-1.2 2.895,-1.2zm2.45 1.643c-0.627,-0.626 -1.493,-1.014 -2.45,-1.014 -0.958,0 -1.824,0.388 -2.451,1.014 -0.626,0.627 -1.013,1.493 -1.013,2.45 0,0.958 0.387,1.824 1.013,2.45 0.627,0.627 1.493,1.014 2.451,1.014 0.957,0 1.823,-0.387 2.449,-1.013 0.627,-0.627 1.015,-1.493 1.015,-2.451 0,-0.957 -0.388,-1.823 -1.014,-2.45z"/>
    <path class="fil2" d="M20.156 16.976c0.008,0.035 0.02,0.069 0.036,0.1l0.028 0.048 0.033 0.044 0.041 0.044c0.058,0.054 0.102,0.086 0.167,0.131 0.109,0.067 0.21,0.119 0.324,0.18 0.256,0.128 0.486,0.245 0.728,0.399l0.096 0.069 0.09 0.073 0.081 0.076c0.057,0.061 0.093,0.102 0.145,0.168l0.061 0.089 0.052 0.096c0.017,0.035 0.032,0.07 0.044,0.104 0.011,0.035 0.021,0.069 0.028,0.102l0.002 0.009c0.007,0.034 0.013,0.071 0.017,0.111l0 0.005c0.005,0.044 0.007,0.085 0.007,0.122 0,0.05 -0.003,0.103 -0.008,0.157 -0.005,0.047 -0.013,0.094 -0.023,0.138l-0.002 0.01c-0.011,0.048 -0.024,0.094 -0.04,0.136 -0.015,0.037 -0.032,0.075 -0.054,0.114l-0.005 0.01c-0.023,0.042 -0.047,0.079 -0.071,0.111 -0.025,0.035 -0.053,0.069 -0.083,0.101 -0.031,0.033 -0.063,0.063 -0.096,0.091 -0.036,0.029 -0.071,0.055 -0.107,0.078 -0.04,0.026 -0.078,0.049 -0.114,0.067 -0.039,0.021 -0.08,0.04 -0.12,0.056 -0.045,0.018 -0.088,0.033 -0.129,0.046 -0.078,0.021 -0.139,0.036 -0.21,0.05l0 0.355c0,0.161 -0.13,0.291 -0.29,0.291 -0.161,0 -0.291,-0.13 -0.291,-0.291l0 -0.315c-0.077,-0.006 -0.163,-0.01 -0.235,-0.016 -0.079,-0.009 -0.183,-0.023 -0.256,-0.042 -0.093,-0.02 -0.201,-0.045 -0.288,-0.077 -0.043,-0.015 -0.082,-0.03 -0.116,-0.044l-0.034 -0.016c-0.078,-0.033 -0.133,-0.11 -0.133,-0.2l0 -0.278c0.001,-0.034 0.009,-0.069 0.026,-0.102 0.057,-0.106 0.188,-0.146 0.294,-0.089l0.128 0.065 0.135 0.055c0.182,0.06 0.318,0.088 0.506,0.112 0.037,0.003 0.077,0.005 0.121,0.005 0.074,0 0.141,-0.003 0.2,-0.01 0.06,-0.006 0.116,-0.016 0.167,-0.028 0.049,-0.012 0.096,-0.028 0.138,-0.047 0.038,-0.017 0.072,-0.038 0.103,-0.061l0.004 -0.003c0.03,-0.023 0.056,-0.048 0.077,-0.075 0.021,-0.026 0.039,-0.055 0.054,-0.086 0.015,-0.033 0.027,-0.068 0.034,-0.105 0.008,-0.037 0.012,-0.08 0.012,-0.128 -0.004,-0.082 -0.009,-0.109 -0.034,-0.188 -0.021,-0.044 -0.035,-0.065 -0.062,-0.106 -0.033,-0.042 -0.051,-0.061 -0.089,-0.099l-0.054 -0.046c-0.115,-0.087 -0.194,-0.127 -0.314,-0.201 -0.064,-0.045 -0.22,-0.121 -0.359,-0.189 -0.18,-0.089 -0.334,-0.171 -0.503,-0.279 -0.096,-0.068 -0.165,-0.123 -0.251,-0.203l-0.071 -0.076c-0.048,-0.061 -0.077,-0.102 -0.119,-0.168 -0.016,-0.03 -0.039,-0.067 -0.051,-0.098 -0.015,-0.032 -0.028,-0.065 -0.038,-0.099 -0.011,-0.037 -0.02,-0.071 -0.026,-0.104 -0.006,-0.032 -0.012,-0.071 -0.016,-0.114 -0.004,-0.044 -0.006,-0.085 -0.006,-0.12 0,-0.049 0.003,-0.098 0.008,-0.147 0.006,-0.049 0.015,-0.097 0.026,-0.141 0.01,-0.038 0.023,-0.079 0.039,-0.12l0.005 -0.013c0.017,-0.042 0.038,-0.083 0.061,-0.122 0.024,-0.04 0.048,-0.077 0.072,-0.109l0.085 -0.099c0.027,-0.029 0.058,-0.059 0.094,-0.089 0.035,-0.029 0.069,-0.055 0.101,-0.077l0.009 -0.006c0.035,-0.023 0.071,-0.045 0.109,-0.065 0.041,-0.022 0.08,-0.042 0.116,-0.058 0.047,-0.019 0.09,-0.036 0.129,-0.05 0.073,-0.021 0.134,-0.038 0.202,-0.054l0 -0.362c0,-0.161 0.13,-0.291 0.291,-0.291 0.16,0 0.29,0.13 0.29,0.291l0 0.309c0.064,0.001 0.127,0.004 0.189,0.008 0.09,0.006 0.175,0.016 0.253,0.029 0.054,0.009 0.105,0.02 0.154,0.032l0.011 0.002c0.048,0.013 0.092,0.027 0.132,0.043 0.087,0.028 0.151,0.11 0.151,0.207l0 0.265c-0.001,0.032 -0.008,0.064 -0.023,0.095 -0.051,0.108 -0.181,0.153 -0.29,0.101 -0.035,-0.017 -0.072,-0.033 -0.11,-0.047 -0.039,-0.014 -0.079,-0.027 -0.121,-0.038 -0.071,-0.019 -0.147,-0.034 -0.227,-0.044l-0.007 -0.001c-0.082,-0.01 -0.17,-0.015 -0.262,-0.015l-0.072 0.001c-0.083,0.007 -0.144,0.015 -0.228,0.03l-0.065 0.016c-0.073,0.024 -0.119,0.044 -0.187,0.08 -0.057,0.04 -0.084,0.063 -0.131,0.115l-0.036 0.048c-0.025,0.043 -0.028,0.053 -0.045,0.101l-0.012 0.061c-0.003,0.019 -0.004,0.042 -0.004,0.071 0,0.048 0.004,0.091 0.012,0.128z"/>
   </g>
  </g>
 </g>
</svg>
