<?xml version="1.0" encoding="UTF-8"?>
<!DOCTYPE svg PUBLIC "-//W3C//DTD SVG 1.1//EN" "http://www.w3.org/Graphics/SVG/1.1/DTD/svg11.dtd">
<!-- Creator: CorelDRAW 2018 (64-Bit) -->
<svg xmlns="http://www.w3.org/2000/svg" xml:space="preserve" width="40px" height="40px" version="1.1" style="shape-rendering:geometricPrecision; text-rendering:geometricPrecision; image-rendering:optimizeQuality; fill-rule:evenodd; clip-rule:evenodd"
viewBox="0 0 25.192 25.192"
 xmlns:xlink="http://www.w3.org/1999/xlink">
 <defs>
  <style type="text/css">
   <![CDATA[
    .fil0 {fill:none}
    .fil4 {fill:#00F4FF}
    .fil3 {fill:white}
    .fil1 {fill:white}
    .fil2 {fill:gray;fill-rule:nonzero}
   ]]>
  </style>
 </defs>
 <g id="Layer_x0020_1">
  <metadata id="CorelCorpID_0Corel-Layer"/>
  <g id="_1576235101504">
   <rect class="fil0" width="25.192" height="25.192"/>
   <g>
    <path class="fil1" d="M11.71 3.149c4.872,0 8.822,3.95 8.822,8.822 0,4.872 -3.95,8.822 -8.822,8.822 -4.872,0 -8.822,-3.95 -8.822,-8.822 0,-4.872 3.95,-8.822 8.822,-8.822z"/>
    <path class="fil2" d="M11.71 2.834c2.523,0 4.807,1.023 6.46,2.676 1.654,1.653 2.677,3.938 2.677,6.461 0,2.523 -1.023,4.807 -2.677,6.46 -1.653,1.654 -3.937,2.677 -6.46,2.677 -2.523,0 -4.808,-1.023 -6.461,-2.677 -1.653,-1.653 -2.676,-3.937 -2.676,-6.46 0,-2.523 1.023,-4.808 2.676,-6.461 1.653,-1.653 3.938,-2.676 6.461,-2.676zm6.015 3.122c-1.539,-1.54 -3.666,-2.492 -6.015,-2.492 -2.349,0 -4.476,0.952 -6.015,2.492 -1.54,1.539 -2.492,3.666 -2.492,6.015 0,2.349 0.952,4.476 2.492,6.015 1.539,1.539 3.666,2.492 6.015,2.492 2.349,0 4.476,-0.953 6.015,-2.492 1.539,-1.539 2.492,-3.666 2.492,-6.015 0,-2.349 -0.953,-4.476 -2.492,-6.015z"/>
    <polygon class="fil2" points="12.025,18.426 12.025,20.793 11.395,20.793 11.395,18.426 "/>
    <polygon class="fil2" points="12.025,3.149 12.025,5.514 11.395,5.514 11.395,3.149 "/>
    <polygon class="fil2" points="7.57,4.174 8.752,6.219 8.208,6.534 7.027,4.489 "/>
    <polygon class="fil2" points="4.227,7.288 6.273,8.469 5.958,9.013 3.912,7.832 "/>
    <polygon class="fil2" points="2.888,11.656 5.254,11.656 5.254,12.286 2.888,12.286 "/>
    <polygon class="fil2" points="17.147,8.47 19.193,7.288 19.506,7.832 17.46,9.013 "/>
    <polygon class="fil2" points="3.912,16.11 5.958,14.929 6.273,15.472 4.227,16.653 "/>
    <polygon class="fil2" points="7.027,19.453 8.14,17.525 8.684,17.84 7.57,19.768 "/>
    <polygon class="fil2" points="14.668,6.219 15.849,4.174 16.392,4.489 15.211,6.534 "/>
    <path class="fil3" d="M11.71 5.512c3.567,0 6.458,2.892 6.458,6.459 0,3.567 -2.891,6.458 -6.458,6.458 -3.567,0 -6.459,-2.891 -6.459,-6.458 0,-3.567 2.892,-6.459 6.459,-6.459z"/>
    <path class="fil2" d="M11.71 5.197c1.87,0 3.563,0.759 4.789,1.984 1.226,1.226 1.984,2.92 1.984,4.79 0,1.87 -0.758,3.564 -1.984,4.789 -1.225,1.226 -2.919,1.984 -4.789,1.984 -1.87,0 -3.564,-0.758 -4.79,-1.984 -1.225,-1.225 -1.984,-2.919 -1.984,-4.789 0,-1.87 0.759,-3.564 1.984,-4.79 1.226,-1.225 2.92,-1.984 4.79,-1.984zm4.344 2.43c-1.112,-1.112 -2.648,-1.8 -4.344,-1.8 -1.697,0 -3.233,0.688 -4.344,1.8 -1.112,1.111 -1.8,2.647 -1.8,4.344 0,1.696 0.688,3.232 1.8,4.344 1.111,1.112 2.647,1.799 4.344,1.799 1.696,0 3.232,-0.687 4.344,-1.799 1.112,-1.112 1.799,-2.648 1.799,-4.344 0,-1.697 -0.687,-3.233 -1.799,-4.344z"/>
    <path class="fil2" d="M10.763 10.64c0.012,0.052 0.029,0.101 0.05,0.145 0.053,0.098 0.084,0.135 0.16,0.218 0.06,0.055 0.096,0.084 0.161,0.134l0.087 0.06 0.097 0.06c0.121,0.069 0.243,0.132 0.367,0.197 0.2,0.101 0.398,0.2 0.596,0.305 0.265,0.15 0.453,0.263 0.688,0.456l0.115 0.106c0.041,0.039 0.077,0.078 0.107,0.113 0.036,0.042 0.067,0.081 0.094,0.118l0.081 0.122c0.024,0.04 0.049,0.084 0.073,0.133 0.023,0.049 0.044,0.096 0.059,0.141 0.014,0.043 0.028,0.09 0.039,0.14l0.002 0.01c0.01,0.048 0.018,0.102 0.024,0.158 0.006,0.06 0.009,0.116 0.009,0.168 0,0.07 -0.004,0.143 -0.012,0.216 -0.006,0.067 -0.017,0.132 -0.03,0.193l-0.003 0.011c-0.015,0.066 -0.033,0.128 -0.056,0.186 -0.021,0.055 -0.045,0.108 -0.073,0.157l-0.006 0.013c-0.028,0.048 -0.058,0.096 -0.091,0.142l-0.006 0.008c-0.034,0.047 -0.072,0.094 -0.114,0.138 -0.035,0.038 -0.075,0.075 -0.116,0.111l-0.015 0.012c-0.043,0.037 -0.092,0.073 -0.144,0.106 -0.055,0.036 -0.109,0.068 -0.159,0.094 -0.055,0.028 -0.111,0.054 -0.166,0.077 -0.064,0.025 -0.124,0.047 -0.179,0.064 -0.054,0.016 -0.112,0.032 -0.172,0.046 -0.053,0.014 -0.114,0.024 -0.171,0.033l0 0.551c0,0.193 -0.157,0.349 -0.349,0.349 -0.193,0 -0.349,-0.156 -0.349,-0.349l0 -0.499c-0.124,-0.012 -0.261,-0.012 -0.39,-0.028 -0.112,-0.014 -0.261,-0.032 -0.361,-0.061 -0.204,-0.043 -0.421,-0.099 -0.609,-0.189 -0.09,-0.038 -0.153,-0.128 -0.153,-0.232l0 -0.394c0.001,-0.04 0.01,-0.081 0.031,-0.118 0.065,-0.122 0.217,-0.168 0.339,-0.102l0.091 0.049c0.296,0.142 0.69,0.269 1.021,0.286 0.062,0.006 0.122,0.009 0.177,0.009 0.107,0 0.204,-0.005 0.29,-0.014 0.088,-0.01 0.17,-0.024 0.245,-0.043 0.075,-0.018 0.144,-0.042 0.206,-0.07 0.057,-0.025 0.11,-0.056 0.157,-0.093l0.009 -0.006c0.045,-0.034 0.084,-0.073 0.117,-0.114 0.032,-0.038 0.058,-0.079 0.079,-0.123l0.004 -0.011c0.024,-0.051 0.042,-0.105 0.053,-0.162 0.012,-0.057 0.018,-0.122 0.018,-0.193 0,-0.038 -0.002,-0.074 -0.006,-0.106 -0.004,-0.032 -0.01,-0.064 -0.018,-0.095 -0.006,-0.028 -0.014,-0.052 -0.023,-0.075l-0.006 -0.014c-0.011,-0.028 -0.025,-0.055 -0.04,-0.081 -0.098,-0.162 -0.21,-0.255 -0.359,-0.367 -0.12,-0.081 -0.235,-0.142 -0.357,-0.218 -0.093,-0.065 -0.316,-0.174 -0.517,-0.271 -0.098,-0.048 -0.191,-0.094 -0.278,-0.139 -0.148,-0.077 -0.291,-0.166 -0.432,-0.256l-0.124 -0.089 -0.115 -0.093 -0.107 -0.099c-0.035,-0.034 -0.068,-0.069 -0.098,-0.104 -0.032,-0.037 -0.061,-0.075 -0.087,-0.112 -0.029,-0.041 -0.054,-0.08 -0.076,-0.117 -0.024,-0.046 -0.051,-0.094 -0.072,-0.141 -0.018,-0.043 -0.035,-0.085 -0.048,-0.127 -0.013,-0.043 -0.025,-0.087 -0.034,-0.132l-0.002 -0.009c-0.009,-0.044 -0.016,-0.097 -0.022,-0.157 -0.005,-0.06 -0.008,-0.115 -0.008,-0.165 0,-0.065 0.004,-0.13 0.011,-0.194l0.001 -0.008c0.007,-0.061 0.018,-0.123 0.032,-0.182l0.003 -0.012c0.012,-0.051 0.03,-0.103 0.051,-0.157l0.007 -0.021c0.024,-0.058 0.052,-0.114 0.083,-0.167 0.026,-0.044 0.056,-0.089 0.088,-0.134l0.011 -0.015c0.035,-0.046 0.074,-0.092 0.115,-0.136 0.042,-0.044 0.085,-0.084 0.13,-0.122 0.042,-0.035 0.085,-0.067 0.128,-0.097l0.025 -0.018c0.05,-0.033 0.101,-0.064 0.152,-0.091 0.055,-0.03 0.108,-0.056 0.158,-0.078 0.067,-0.028 0.127,-0.052 0.179,-0.069 0.057,-0.019 0.114,-0.037 0.171,-0.052 0.05,-0.013 0.106,-0.026 0.16,-0.037l0 -0.557c0,-0.193 0.156,-0.349 0.349,-0.349 0.192,0 0.349,0.156 0.349,0.349l0 0.495c0.113,0.001 0.222,0.006 0.326,0.013 0.128,0.008 0.247,0.022 0.356,0.04 0.082,0.013 0.158,0.03 0.227,0.048 0.064,0.017 0.125,0.036 0.18,0.058 0.104,0.031 0.179,0.127 0.179,0.24l0 0.377c0,0.037 -0.009,0.074 -0.025,0.109 -0.06,0.125 -0.21,0.177 -0.335,0.117 -0.052,-0.025 -0.106,-0.048 -0.163,-0.069 -0.052,-0.02 -0.111,-0.039 -0.175,-0.056 -0.106,-0.029 -0.22,-0.05 -0.34,-0.065 -0.119,-0.015 -0.246,-0.022 -0.379,-0.022l-0.107 0.002c-0.078,0.006 -0.143,0.013 -0.221,0.023l-0.11 0.02 -0.096 0.024c-0.08,0.027 -0.121,0.042 -0.197,0.077 -0.097,0.051 -0.139,0.08 -0.223,0.152l-0.061 0.065 -0.054 0.075c-0.018,0.027 -0.032,0.052 -0.043,0.075 -0.011,0.025 -0.021,0.054 -0.03,0.086 -0.016,0.06 -0.024,0.128 -0.024,0.202 0,0.07 0.007,0.135 0.019,0.194z"/>
    <path class="fil4" d="M17.686 20.389c-0.477,-0.157 -0.91,-0.41 -1.276,-0.737l-1.571 0.475c-0.316,-0.395 -0.574,-0.838 -0.762,-1.317l1.197 -1.124c-0.049,-0.237 -0.075,-0.484 -0.075,-0.736 0,-0.253 0.026,-0.499 0.075,-0.737l-1.197 -1.124c0.188,-0.478 0.446,-0.921 0.762,-1.316l1.571 0.474c0.366,-0.326 0.799,-0.58 1.276,-0.737l0.374 -1.597c0.248,-0.037 0.502,-0.057 0.761,-0.057 0.258,0 0.512,0.02 0.76,0.057l0.374 1.597c0.477,0.157 0.91,0.411 1.276,0.737l1.571 -0.474c0.316,0.395 0.574,0.838 0.762,1.316l-1.198 1.124c0.05,0.238 0.076,0.484 0.076,0.737 0,0.252 -0.026,0.499 -0.076,0.736l1.198 1.124c-0.188,0.479 -0.446,0.922 -0.762,1.317l-1.571 -0.475c-0.366,0.327 -0.799,0.58 -1.276,0.737l-0.374 1.598c-0.248,0.037 -0.502,0.056 -0.76,0.056 -0.259,0 -0.513,-0.019 -0.761,-0.056l-0.374 -1.598zm1.135 -1.834c-0.887,0 -1.606,-0.719 -1.606,-1.605 0,-0.887 0.719,-1.606 1.606,-1.606 0.886,0 1.605,0.719 1.605,1.606 0,0.886 -0.719,1.605 -1.605,1.605z"/>
    <path class="fil2" d="M17.419 20.628c-0.196,-0.074 -0.385,-0.165 -0.565,-0.269 -0.181,-0.105 -0.353,-0.224 -0.516,-0.356l-1.408 0.425c-0.138,0.042 -0.282,-0.016 -0.356,-0.132 -0.162,-0.205 -0.309,-0.42 -0.437,-0.642 -0.135,-0.234 -0.253,-0.478 -0.352,-0.729 -0.05,-0.128 -0.011,-0.268 0.087,-0.353l1.063 -0.998c-0.012,-0.073 -0.022,-0.147 -0.029,-0.221l-0.001 -0.009c-0.014,-0.136 -0.021,-0.268 -0.021,-0.394 0,-0.129 0.008,-0.264 0.022,-0.402 0.007,-0.075 0.017,-0.149 0.029,-0.223l-1.073 -1.007c-0.096,-0.091 -0.122,-0.227 -0.077,-0.343 0.098,-0.252 0.217,-0.496 0.352,-0.73 0.136,-0.235 0.289,-0.458 0.456,-0.668 0.082,-0.104 0.217,-0.141 0.337,-0.105l1.407 0.424c0.162,-0.131 0.335,-0.25 0.517,-0.355 0.181,-0.105 0.37,-0.195 0.565,-0.27l0.335 -1.43c0.03,-0.129 0.136,-0.221 0.259,-0.239 0.131,-0.02 0.266,-0.035 0.403,-0.045 0.138,-0.01 0.273,-0.016 0.405,-0.016 0.131,0 0.267,0.006 0.403,0.016 0.137,0.01 0.271,0.025 0.403,0.044 0.134,0.02 0.236,0.122 0.262,0.248l0.333 1.422c0.195,0.075 0.384,0.165 0.565,0.269 0.182,0.106 0.355,0.225 0.517,0.356l1.407 -0.425c0.134,-0.04 0.274,0.013 0.35,0.122 0.162,0.205 0.311,0.423 0.443,0.652 0.135,0.234 0.254,0.478 0.353,0.73 0.049,0.127 0.01,0.268 -0.088,0.352l-1.063 0.998c0.012,0.073 0.022,0.147 0.029,0.221 0.014,0.138 0.022,0.273 0.022,0.404 0,0.13 -0.008,0.265 -0.022,0.403 -0.007,0.074 -0.017,0.148 -0.029,0.222l1.073 1.006c0.096,0.091 0.123,0.228 0.077,0.344 -0.098,0.251 -0.217,0.495 -0.352,0.729 -0.134,0.232 -0.287,0.455 -0.457,0.668 -0.082,0.103 -0.216,0.141 -0.335,0.105l-1.409 -0.424c-0.163,0.132 -0.335,0.251 -0.516,0.356 -0.18,0.104 -0.369,0.195 -0.565,0.269l-0.335 1.43c-0.03,0.13 -0.136,0.222 -0.26,0.24 -0.132,0.02 -0.266,0.035 -0.402,0.045 -0.137,0.01 -0.273,0.015 -0.404,0.015 -0.132,0 -0.268,-0.005 -0.405,-0.015 -0.136,-0.01 -0.271,-0.025 -0.402,-0.045 -0.134,-0.019 -0.236,-0.121 -0.262,-0.247l-0.333 -1.423zm-0.25 -0.813c0.191,0.111 0.397,0.204 0.615,0.275 0.1,0.034 0.182,0.117 0.208,0.228l0.324 1.385 0.144 0.012c0.115,0.009 0.235,0.013 0.361,0.013 0.125,0 0.245,-0.004 0.36,-0.013l0.144 -0.012 0.322 -1.374c0.021,-0.108 0.098,-0.202 0.21,-0.238 0.217,-0.072 0.424,-0.165 0.615,-0.276 0.191,-0.11 0.368,-0.237 0.53,-0.379 0.079,-0.084 0.202,-0.121 0.32,-0.085l1.364 0.412c0.098,-0.135 0.19,-0.276 0.275,-0.424 0.083,-0.144 0.16,-0.294 0.229,-0.449l-1.039 -0.975c-0.076,-0.072 -0.114,-0.181 -0.092,-0.291 0.022,-0.108 0.04,-0.22 0.051,-0.335 0.011,-0.105 0.017,-0.219 0.017,-0.339 0,-0.12 -0.006,-0.234 -0.017,-0.34 -0.011,-0.11 -0.028,-0.219 -0.049,-0.325 -0.025,-0.105 0.006,-0.221 0.09,-0.3l1.039 -0.975c-0.069,-0.155 -0.146,-0.305 -0.229,-0.45 -0.084,-0.145 -0.176,-0.287 -0.276,-0.423l-1.363 0.412c-0.101,0.03 -0.216,0.009 -0.3,-0.067 -0.17,-0.151 -0.354,-0.285 -0.55,-0.398 -0.192,-0.111 -0.398,-0.203 -0.615,-0.275 -0.101,-0.033 -0.182,-0.117 -0.208,-0.227l-0.324 -1.385 -0.145 -0.013c-0.115,-0.008 -0.235,-0.013 -0.359,-0.013 -0.126,0 -0.245,0.005 -0.36,0.013l-0.145 0.013 -0.322 1.374c-0.021,0.108 -0.098,0.201 -0.21,0.238 -0.217,0.072 -0.423,0.164 -0.615,0.275 -0.191,0.111 -0.372,0.241 -0.539,0.389 -0.079,0.077 -0.197,0.11 -0.311,0.076l-1.363 -0.412c-0.099,0.136 -0.192,0.278 -0.276,0.423 -0.083,0.145 -0.16,0.295 -0.228,0.449l1.038 0.976c0.076,0.072 0.114,0.181 0.092,0.291 -0.023,0.108 -0.04,0.22 -0.051,0.335 -0.011,0.105 -0.017,0.218 -0.017,0.339 0,0.117 0.006,0.228 0.016,0.331l0.001 0.008c0.011,0.109 0.027,0.216 0.048,0.32 0.027,0.107 -0.003,0.225 -0.089,0.306l-1.038 0.975c0.068,0.155 0.145,0.305 0.228,0.449 0.086,0.148 0.177,0.289 0.275,0.424l1.364 -0.412c0.102,-0.029 0.216,-0.008 0.3,0.067 0.167,0.149 0.352,0.283 0.55,0.397zm1.652 -0.945c-0.53,0 -1.011,-0.215 -1.358,-0.562l-0.018 -0.019c-0.337,-0.346 -0.545,-0.819 -0.545,-1.339 0,-0.53 0.216,-1.011 0.563,-1.358l0.019 -0.018c0.346,-0.337 0.819,-0.545 1.339,-0.545 0.529,0 1.009,0.216 1.356,0.563 0.349,0.347 0.564,0.828 0.564,1.358 0,0.529 -0.215,1.009 -0.562,1.356 -0.349,0.349 -0.829,0.564 -1.358,0.564zm-0.913 -1.008c0.233,0.234 0.556,0.378 0.913,0.378 0.356,0 0.679,-0.144 0.913,-0.377 0.233,-0.233 0.377,-0.556 0.377,-0.913 0,-0.357 -0.144,-0.679 -0.378,-0.913 -0.233,-0.233 -0.556,-0.378 -0.912,-0.378 -0.35,0 -0.667,0.139 -0.899,0.363l-0.014 0.015c-0.233,0.234 -0.378,0.556 -0.378,0.913 0,0.349 0.138,0.666 0.363,0.898l0.015 0.014z"/>
    <path class="fil3" d="M20.426 16.95c0,-0.887 -0.719,-1.606 -1.605,-1.606 -0.887,0 -1.606,0.719 -1.606,1.606 0,0.887 0.719,1.605 1.606,1.605 0.886,0 1.605,-0.718 1.605,-1.605z"/>
    <path class="fil2" d="M20.111 16.95c0,-0.358 -0.144,-0.68 -0.377,-0.913 -0.233,-0.234 -0.556,-0.378 -0.913,-0.378 -0.358,0 -0.681,0.144 -0.913,0.377 -0.233,0.235 -0.378,0.557 -0.378,0.914 0,0.357 0.144,0.68 0.377,0.912 0.233,0.234 0.556,0.378 0.914,0.378 0.356,0 0.679,-0.144 0.912,-0.378 0.234,-0.233 0.378,-0.556 0.378,-0.912zm0.066 -1.358c0.349,0.349 0.564,0.829 0.564,1.358 0,0.53 -0.215,1.01 -0.562,1.358 -0.348,0.347 -0.828,0.562 -1.358,0.562 -0.529,0 -1.009,-0.215 -1.357,-0.562 -0.349,-0.35 -0.564,-0.83 -0.564,-1.358 0,-0.53 0.216,-1.011 0.563,-1.358 0.348,-0.347 0.829,-0.563 1.358,-0.563 0.528,0 1.008,0.215 1.356,0.563z"/>
   </g>
  </g>
 </g>
</svg>
