<?xml version="1.0" encoding="UTF-8"?>
<!DOCTYPE svg PUBLIC "-//W3C//DTD SVG 1.1//EN" "http://www.w3.org/Graphics/SVG/1.1/DTD/svg11.dtd">
<!-- Creator: CorelDRAW 2018 (64-Bit) -->
<svg xmlns="http://www.w3.org/2000/svg" xml:space="preserve" width="40px" height="40px" version="1.1" style="shape-rendering:geometricPrecision; text-rendering:geometricPrecision; image-rendering:optimizeQuality; fill-rule:evenodd; clip-rule:evenodd"
viewBox="0 0 25.192 25.192"
 xmlns:xlink="http://www.w3.org/1999/xlink">
 <defs>
  <style type="text/css">
   <![CDATA[
    .fil0 {fill:none}
    .fil3 {fill:#00F4FF}
    .fil1 {fill:white}
    .fil2 {fill:gray;fill-rule:nonzero}
   ]]>
  </style>
 </defs>
 <g id="Layer_x0020_1">
  <metadata id="CorelCorpID_0Corel-Layer"/>
  <g id="_1576234977600">
   <rect class="fil0" width="25.192" height="25.192"/>
   <g>
    <path class="fil1" d="M12.596 3.149c5.217,0 9.447,4.23 9.447,9.447 0,5.218 -4.23,9.447 -9.447,9.447 -5.217,0 -9.447,-4.229 -9.447,-9.447 0,-5.217 4.23,-9.447 9.447,-9.447z"/>
    <path class="fil2" d="M12.596 2.834c2.695,0 5.136,1.093 6.903,2.859 1.766,1.767 2.859,4.208 2.859,6.903 0,2.696 -1.093,5.136 -2.859,6.903 -1.767,1.766 -4.208,2.859 -6.903,2.859 -2.696,0 -5.136,-1.093 -6.903,-2.859 -1.766,-1.767 -2.859,-4.207 -2.859,-6.903 0,-2.696 1.093,-5.136 2.859,-6.903 1.767,-1.766 4.208,-2.859 6.903,-2.859zm6.457 3.305c-1.652,-1.653 -3.935,-2.675 -6.457,-2.675 -2.522,0 -4.805,1.022 -6.457,2.675 -1.653,1.652 -2.675,3.935 -2.675,6.457 0,2.522 1.022,4.805 2.675,6.458 1.652,1.652 3.935,2.674 6.457,2.674 2.522,0 4.805,-1.022 6.457,-2.674 1.653,-1.653 2.675,-3.936 2.675,-6.458 0,-2.522 -1.022,-4.805 -2.675,-6.457z"/>
    <path class="fil3" d="M12.596 12.596l0 -9.447c3.375,0 6.494,1.801 8.181,4.724l-8.181 4.723z"/>
    <path class="fil2" d="M12.281 12.596l0 -9.762 0.315 0c1.743,0 3.42,0.466 4.881,1.309 1.459,0.842 2.7,2.062 3.572,3.572l0.157 0.273 -8.925 5.153 0 -0.545zm0.63 -9.127l0 8.583 7.433 -4.292c-0.805,-1.289 -1.904,-2.336 -3.182,-3.074 -1.276,-0.737 -2.732,-1.165 -4.251,-1.217z"/>
    <path class="fil1" d="M12.596 6.426c3.407,0 6.169,2.763 6.169,6.17 0,3.408 -2.762,6.17 -6.169,6.17 -3.408,0 -6.17,-2.762 -6.17,-6.17 0,-3.407 2.762,-6.17 6.17,-6.17z"/>
    <path class="fil2" d="M12.596 6.112c1.79,0 3.412,0.725 4.585,1.899 1.174,1.173 1.899,2.795 1.899,4.585 0,1.791 -0.725,3.412 -1.899,4.585 -1.173,1.174 -2.795,1.9 -4.585,1.9 -1.791,0 -3.412,-0.726 -4.585,-1.9 -1.174,-1.173 -1.9,-2.794 -1.9,-4.585 0,-1.79 0.726,-3.412 1.9,-4.585 1.173,-1.174 2.794,-1.899 4.585,-1.899zm4.14 2.344c-1.06,-1.059 -2.523,-1.715 -4.14,-1.715 -1.617,0 -3.081,0.656 -4.14,1.715 -1.059,1.06 -1.715,2.523 -1.715,4.14 0,1.617 0.656,3.081 1.715,4.14 1.059,1.06 2.523,1.715 4.14,1.715 1.617,0 3.081,-0.655 4.14,-1.715 1.059,-1.059 1.715,-2.523 1.715,-4.14 0,-1.617 -0.656,-3.08 -1.715,-4.14z"/>
    <path class="fil2" d="M11.705 11.344c0.011,0.049 0.026,0.094 0.047,0.136 0.05,0.092 0.079,0.127 0.15,0.205 0.057,0.052 0.091,0.079 0.152,0.126l0.082 0.057 0.091 0.056c0.114,0.065 0.229,0.125 0.346,0.186 0.188,0.095 0.374,0.188 0.56,0.287 0.25,0.141 0.427,0.248 0.648,0.429l0.109 0.099c0.037,0.038 0.071,0.074 0.1,0.107 0.034,0.039 0.064,0.076 0.088,0.111l0.077 0.115c0.022,0.038 0.046,0.079 0.068,0.125 0.022,0.046 0.041,0.091 0.056,0.133 0.014,0.04 0.026,0.084 0.036,0.132l0.002 0.009c0.01,0.046 0.018,0.096 0.023,0.149 0.005,0.056 0.008,0.109 0.008,0.158 0,0.066 -0.003,0.135 -0.011,0.203 -0.006,0.063 -0.016,0.124 -0.028,0.182l-0.003 0.011c-0.014,0.061 -0.031,0.12 -0.052,0.174 -0.02,0.052 -0.043,0.102 -0.069,0.148l-0.006 0.012c-0.026,0.046 -0.054,0.091 -0.086,0.134l-0.005 0.008c-0.032,0.044 -0.068,0.088 -0.107,0.129 -0.034,0.036 -0.07,0.071 -0.11,0.105l-0.013 0.012c-0.042,0.034 -0.087,0.068 -0.136,0.099 -0.052,0.034 -0.102,0.064 -0.15,0.089 -0.051,0.026 -0.104,0.051 -0.156,0.072 -0.06,0.023 -0.117,0.044 -0.169,0.06 -0.051,0.016 -0.105,0.03 -0.161,0.043 -0.051,0.014 -0.108,0.023 -0.162,0.032l0 0.518c0,0.181 -0.147,0.329 -0.328,0.329 -0.181,0 -0.329,-0.148 -0.329,-0.329l0 -0.469c-0.116,-0.012 -0.245,-0.012 -0.366,-0.027 -0.106,-0.013 -0.246,-0.03 -0.34,-0.057 -0.192,-0.041 -0.397,-0.094 -0.573,-0.178 -0.085,-0.036 -0.144,-0.12 -0.144,-0.218l0 -0.371c0,-0.038 0.009,-0.076 0.028,-0.112 0.062,-0.115 0.205,-0.158 0.32,-0.096l0.085 0.046c0.279,0.134 0.65,0.254 0.962,0.27 0.058,0.005 0.114,0.008 0.166,0.008 0.1,0 0.192,-0.005 0.273,-0.013 0.083,-0.009 0.16,-0.023 0.23,-0.04 0.071,-0.017 0.136,-0.04 0.194,-0.066 0.054,-0.024 0.104,-0.053 0.148,-0.087l0.009 -0.007c0.042,-0.032 0.079,-0.068 0.11,-0.106 0.029,-0.037 0.054,-0.075 0.074,-0.116l0.004 -0.011c0.022,-0.048 0.039,-0.099 0.05,-0.152 0.011,-0.054 0.017,-0.115 0.017,-0.182 0,-0.035 -0.002,-0.069 -0.006,-0.1 -0.003,-0.03 -0.009,-0.06 -0.017,-0.089 -0.006,-0.026 -0.013,-0.049 -0.021,-0.071l-0.006 -0.013c-0.01,-0.026 -0.023,-0.052 -0.038,-0.076 -0.092,-0.153 -0.198,-0.24 -0.338,-0.346 -0.113,-0.076 -0.221,-0.134 -0.336,-0.205 -0.087,-0.061 -0.297,-0.164 -0.486,-0.255 -0.093,-0.045 -0.18,-0.088 -0.262,-0.131 -0.139,-0.072 -0.274,-0.156 -0.406,-0.241l-0.117 -0.083 -0.109 -0.088 -0.101 -0.093c-0.033,-0.032 -0.064,-0.065 -0.092,-0.098 -0.03,-0.035 -0.057,-0.07 -0.081,-0.105 -0.028,-0.039 -0.052,-0.076 -0.072,-0.111 -0.022,-0.043 -0.048,-0.088 -0.068,-0.132 -0.017,-0.04 -0.033,-0.081 -0.045,-0.12 -0.013,-0.041 -0.023,-0.082 -0.032,-0.124l-0.002 -0.008c-0.008,-0.042 -0.015,-0.092 -0.02,-0.148 -0.005,-0.057 -0.008,-0.109 -0.008,-0.155 0,-0.062 0.004,-0.123 0.01,-0.184l0.001 -0.007c0.007,-0.058 0.017,-0.115 0.03,-0.171l0.003 -0.011c0.012,-0.048 0.028,-0.098 0.048,-0.148l0.007 -0.02c0.022,-0.054 0.048,-0.107 0.078,-0.157 0.024,-0.042 0.052,-0.084 0.083,-0.126l0.011 -0.015c0.032,-0.043 0.069,-0.086 0.108,-0.127 0.039,-0.041 0.079,-0.079 0.121,-0.115 0.04,-0.033 0.081,-0.064 0.121,-0.092l0.024 -0.017c0.046,-0.031 0.094,-0.059 0.142,-0.085 0.052,-0.028 0.102,-0.053 0.149,-0.073 0.064,-0.027 0.12,-0.049 0.169,-0.066 0.053,-0.018 0.107,-0.034 0.161,-0.048 0.046,-0.013 0.1,-0.025 0.15,-0.035l0 -0.525c0,-0.181 0.148,-0.328 0.329,-0.328 0.181,0 0.328,0.147 0.328,0.328l0 0.466c0.107,0.001 0.209,0.006 0.308,0.013 0.12,0.008 0.232,0.021 0.335,0.038 0.076,0.012 0.148,0.027 0.213,0.045 0.061,0.015 0.118,0.033 0.17,0.054 0.097,0.029 0.168,0.119 0.168,0.226l0 0.355c-0.001,0.034 -0.008,0.069 -0.024,0.102 -0.056,0.118 -0.198,0.167 -0.315,0.11 -0.048,-0.023 -0.1,-0.045 -0.153,-0.065 -0.049,-0.019 -0.105,-0.036 -0.165,-0.052 -0.1,-0.027 -0.207,-0.048 -0.32,-0.061 -0.112,-0.014 -0.232,-0.021 -0.357,-0.021l-0.1 0.002c-0.074,0.006 -0.135,0.012 -0.209,0.022l-0.103 0.018 -0.091 0.023c-0.074,0.025 -0.113,0.04 -0.185,0.072 -0.091,0.049 -0.13,0.075 -0.209,0.143l-0.058 0.062 -0.051 0.071c-0.017,0.025 -0.03,0.048 -0.04,0.07 -0.011,0.024 -0.02,0.051 -0.028,0.08 -0.015,0.057 -0.023,0.121 -0.023,0.191 0,0.066 0.006,0.127 0.018,0.183z"/>
   </g>
  </g>
 </g>
</svg>
