<?xml version="1.0" encoding="UTF-8"?>
<!DOCTYPE svg PUBLIC "-//W3C//DTD SVG 1.1//EN" "http://www.w3.org/Graphics/SVG/1.1/DTD/svg11.dtd">
<!-- Creator: CorelDRAW 2018 (64-Bit) -->
<svg xmlns="http://www.w3.org/2000/svg" xml:space="preserve" width="40px" height="40px" version="1.1" style="shape-rendering:geometricPrecision; text-rendering:geometricPrecision; image-rendering:optimizeQuality; fill-rule:evenodd; clip-rule:evenodd"
viewBox="0 0 25.192 25.192"
 xmlns:xlink="http://www.w3.org/1999/xlink">
 <defs>
  <style type="text/css">
   <![CDATA[
    .fil0 {fill:none}
    .fil1 {fill:#00F4FF}
    .fil4 {fill:white}
    .fil3 {fill:white}
    .fil2 {fill:gray;fill-rule:nonzero}
   ]]>
  </style>
 </defs>
 <g id="Layer_x0020_1">
  <metadata id="CorelCorpID_0Corel-Layer"/>
  <g id="_1576242912032">
   <rect class="fil0" width="25.192" height="25.192"/>
   <g>
    <polygon class="fil1" points="22.407,6.554 22.407,8.7 22.398,8.811 22.373,8.919 22.331,9.027 22.274,9.132 22.201,9.236 22.113,9.338 22.01,9.438 21.893,9.535 21.762,9.63 21.617,9.723 21.46,9.813 21.29,9.9 21.107,9.984 20.913,10.065 20.708,10.143 20.491,10.217 20.264,10.288 20.027,10.356 19.78,10.419 19.523,10.479 19.258,10.535 18.984,10.587 18.702,10.634 18.412,10.677 18.115,10.716 17.811,10.749 17.501,10.778 17.184,10.802 16.862,10.821 16.535,10.835 16.203,10.843 15.866,10.846 15.529,10.843 15.197,10.835 14.87,10.821 14.548,10.802 14.232,10.778 13.921,10.749 13.617,10.716 13.32,10.677 13.031,10.634 12.749,10.587 12.475,10.535 12.209,10.479 11.953,10.419 11.706,10.356 11.468,10.288 11.241,10.217 11.025,10.143 10.819,10.065 10.625,9.984 10.443,9.9 10.273,9.813 10.115,9.723 9.971,9.63 9.84,9.535 9.723,9.438 9.62,9.338 9.532,9.236 9.459,9.132 9.401,9.027 9.36,8.919 9.334,8.811 9.326,8.7 9.326,6.554 9.334,6.665 9.36,6.774 9.401,6.881 9.459,6.987 9.532,7.09 9.62,7.192 9.723,7.292 9.84,7.389 9.971,7.485 10.115,7.577 10.273,7.667 10.443,7.754 10.625,7.838 10.819,7.919 11.025,7.997 11.241,8.071 11.468,8.143 11.706,8.21 11.953,8.274 12.209,8.334 12.475,8.389 12.749,8.441 13.031,8.488 13.32,8.531 13.617,8.57 13.921,8.603 14.232,8.632 14.548,8.656 14.87,8.675 15.197,8.689 15.529,8.697 15.866,8.7 16.203,8.697 16.535,8.689 16.862,8.675 17.184,8.656 17.501,8.632 17.811,8.603 18.115,8.57 18.412,8.531 18.702,8.488 18.984,8.441 19.258,8.389 19.523,8.334 19.78,8.274 20.027,8.21 20.264,8.143 20.491,8.071 20.708,7.997 20.913,7.919 21.107,7.838 21.29,7.754 21.46,7.667 21.617,7.577 21.762,7.485 21.893,7.389 22.01,7.292 22.113,7.192 22.201,7.09 22.274,6.987 22.331,6.881 22.373,6.774 22.398,6.665 "/>
    <path class="fil2" d="M22.721 6.554l0.001 2.146 -0.01 0.134c-0.002,0.022 -0.006,0.044 -0.012,0.064l-0.021 0.092c-0.004,0.019 -0.01,0.037 -0.018,0.055 -0.036,0.093 -0.063,0.148 -0.11,0.237l-0.093 0.135c-0.078,0.095 -0.141,0.16 -0.229,0.246 -0.097,0.082 -0.181,0.147 -0.283,0.222 -0.112,0.071 -0.215,0.134 -0.33,0.201 -2.89,1.423 -8.827,1.506 -11.657,-0.09 -0.106,-0.07 -0.2,-0.132 -0.304,-0.206 -0.197,-0.165 -0.304,-0.266 -0.453,-0.477 -0.012,-0.016 -0.021,-0.032 -0.029,-0.049l-0.047 -0.087 -0.017 -0.037 -0.042 -0.107 -0.013 -0.042 -0.026 -0.109 -0.007 -0.048c-0.057,-0.715 -0.01,-1.551 -0.01,-2.28 0,-0.174 0.141,-0.315 0.315,-0.315 0.17,0 0.31,0.137 0.314,0.306l0.006 0.073 0.016 0.066 0.025 0.067 0.036 0.065 0.059 0.084 0.065 0.075 0.091 0.088 0.086 0.072c0.086,0.063 0.158,0.112 0.247,0.169 0.104,0.059 0.197,0.111 0.303,0.165l0.174 0.08c0.129,0.054 0.249,0.102 0.379,0.151 0.146,0.05 0.287,0.096 0.434,0.142 0.156,0.044 0.306,0.086 0.463,0.126 0.171,0.04 0.338,0.077 0.51,0.113l0.266 0.05 0.276 0.046c0.193,0.029 0.382,0.056 0.576,0.081 0.202,0.022 0.401,0.043 0.603,0.061 0.432,0.032 0.849,0.053 1.282,0.065l0.329 0.002 0.33 -0.002 0.327 -0.009 0.321 -0.013 0.317 -0.019c0.207,-0.016 0.41,-0.032 0.616,-0.051 0.198,-0.023 0.392,-0.046 0.59,-0.071 0.281,-0.043 0.552,-0.087 0.832,-0.14l0.253 -0.053c0.165,-0.039 0.326,-0.078 0.49,-0.12l0.229 -0.066 0.218 -0.068c0.137,-0.047 0.268,-0.094 0.404,-0.145l0.191 -0.08c0.111,-0.051 0.212,-0.099 0.32,-0.155 0.096,-0.055 0.181,-0.105 0.273,-0.164l0.131 -0.095 0.087 -0.072 0.09 -0.088 0.065 -0.075 0.054 -0.076 0.044 -0.081 0.024 -0.061 0.014 -0.062 0.007 -0.089c0.013,-0.173 0.164,-0.303 0.337,-0.29 0.165,0.012 0.291,0.15 0.291,0.313zm-0.629 2.139l0 -1.06c-0.107,0.082 -0.207,0.144 -0.318,0.217 -2.813,1.607 -8.779,1.501 -11.658,0.09 -0.116,-0.067 -0.217,-0.13 -0.33,-0.201l-0.145 -0.107 0 1.061 0.005 0.07 0.015 0.067 0.026 0.066 0.036 0.066 0.059 0.084 0.065 0.076 0.09 0.087c0.075,0.062 0.138,0.109 0.218,0.167 0.093,0.06 0.177,0.108 0.274,0.164 0.109,0.056 0.207,0.103 0.319,0.155l0.192 0.08c0.136,0.051 0.266,0.097 0.404,0.145 0.151,0.047 0.295,0.09 0.448,0.133 0.164,0.043 0.323,0.081 0.489,0.12l0.253 0.053c0.28,0.053 0.55,0.098 0.832,0.14 0.198,0.026 0.391,0.049 0.59,0.071 0.206,0.02 0.408,0.036 0.615,0.051l0.318 0.019 0.321 0.014 0.327 0.008 0.329 0.003 0.328 -0.003c0.434,-0.011 0.851,-0.032 1.283,-0.065 0.203,-0.018 0.401,-0.038 0.603,-0.061 0.194,-0.025 0.383,-0.051 0.576,-0.08l0.276 -0.046 0.267 -0.051c0.172,-0.036 0.338,-0.073 0.509,-0.113 0.16,-0.04 0.311,-0.082 0.47,-0.127 0.145,-0.046 0.283,-0.091 0.427,-0.141 0.131,-0.049 0.25,-0.097 0.379,-0.15l0.174 -0.081c0.107,-0.054 0.199,-0.105 0.303,-0.164 0.091,-0.058 0.16,-0.106 0.247,-0.169l0.087 -0.072 0.09 -0.087 0.065 -0.076 0.054 -0.077 0.044 -0.081 0.024 -0.06 0.014 -0.062 0.006 -0.073z"/>
    <polygon class="fil1" points="22.407,8.7 22.407,10.846 22.398,10.956 22.373,11.065 22.331,11.172 22.274,11.278 22.201,11.382 22.113,11.484 22.01,11.584 21.893,11.681 21.762,11.776 21.617,11.869 21.46,11.959 21.29,12.045 21.107,12.13 20.913,12.211 20.708,12.289 20.491,12.363 20.264,12.434 20.027,12.502 19.78,12.565 19.523,12.625 19.258,12.681 18.984,12.733 18.702,12.78 18.412,12.823 18.115,12.861 17.811,12.895 17.501,12.924 17.184,12.948 16.862,12.967 16.535,12.98 16.203,12.989 15.866,12.992 15.529,12.989 15.197,12.98 14.87,12.967 14.548,12.948 14.232,12.924 13.921,12.895 13.617,12.861 13.32,12.823 13.031,12.78 12.749,12.733 12.475,12.681 12.209,12.625 11.953,12.565 11.706,12.502 11.468,12.434 11.241,12.363 11.025,12.289 10.819,12.211 10.625,12.13 10.443,12.045 10.273,11.959 10.115,11.869 9.971,11.776 9.84,11.681 9.723,11.584 9.62,11.484 9.532,11.382 9.459,11.278 9.401,11.172 9.36,11.065 9.334,10.956 9.326,10.846 9.326,8.7 9.334,8.811 9.36,8.919 9.401,9.027 9.459,9.132 9.532,9.236 9.62,9.338 9.723,9.438 9.84,9.535 9.971,9.63 10.115,9.723 10.273,9.813 10.443,9.9 10.625,9.984 10.819,10.065 11.025,10.143 11.241,10.217 11.468,10.288 11.706,10.356 11.953,10.419 12.209,10.479 12.475,10.535 12.749,10.587 13.031,10.634 13.32,10.677 13.617,10.716 13.921,10.749 14.232,10.778 14.548,10.802 14.87,10.821 15.197,10.835 15.529,10.843 15.866,10.846 16.203,10.843 16.535,10.835 16.862,10.821 17.184,10.802 17.501,10.778 17.811,10.749 18.115,10.716 18.412,10.677 18.702,10.634 18.984,10.587 19.258,10.535 19.523,10.479 19.78,10.419 20.027,10.356 20.264,10.288 20.491,10.217 20.708,10.143 20.913,10.065 21.107,9.984 21.29,9.9 21.46,9.813 21.617,9.723 21.762,9.63 21.893,9.535 22.01,9.438 22.113,9.338 22.201,9.236 22.274,9.132 22.331,9.027 22.373,8.919 22.398,8.811 "/>
    <path class="fil2" d="M22.721 8.7l0.001 2.146 -0.01 0.134c-0.002,0.022 -0.006,0.043 -0.012,0.064l-0.021 0.091c-0.004,0.02 -0.01,0.038 -0.018,0.056 -0.036,0.093 -0.063,0.148 -0.11,0.237l-0.093 0.135c-0.079,0.095 -0.142,0.161 -0.231,0.247 -0.208,0.176 -0.375,0.286 -0.611,0.422 -2.821,1.382 -9.344,1.597 -11.961,-0.296 -0.092,-0.078 -0.166,-0.142 -0.253,-0.226 -0.08,-0.086 -0.133,-0.155 -0.2,-0.251 -0.012,-0.016 -0.021,-0.032 -0.029,-0.049l-0.047 -0.088 -0.017 -0.037 -0.042 -0.107 -0.013 -0.042 -0.026 -0.108 -0.007 -0.048c-0.057,-0.715 -0.01,-1.552 -0.01,-2.28 0,-0.174 0.141,-0.315 0.315,-0.315 0.17,0 0.31,0.136 0.314,0.306l0.006 0.072 0.015 0.067 0.026 0.066 0.036 0.066 0.059 0.084 0.065 0.076 0.09 0.087 0.087 0.072c0.086,0.062 0.158,0.112 0.247,0.169 0.103,0.059 0.197,0.111 0.303,0.165l0.174 0.08c0.128,0.053 0.249,0.101 0.379,0.151 0.144,0.049 0.283,0.094 0.428,0.14 0.157,0.045 0.31,0.087 0.469,0.128 0.171,0.039 0.338,0.076 0.51,0.112l0.266 0.051 0.276 0.046c0.193,0.029 0.383,0.056 0.576,0.081 0.202,0.022 0.401,0.042 0.603,0.061 0.432,0.032 0.849,0.053 1.282,0.064l0.329 0.003 0.33 -0.003 0.327 -0.008 0.321 -0.013 0.317 -0.019c0.207,-0.016 0.41,-0.032 0.616,-0.052 0.198,-0.022 0.392,-0.045 0.59,-0.07 0.281,-0.043 0.552,-0.088 0.832,-0.141l0.253 -0.053c0.165,-0.038 0.325,-0.077 0.489,-0.119 0.151,-0.044 0.297,-0.087 0.448,-0.134 0.137,-0.048 0.268,-0.094 0.404,-0.145l0.191 -0.08c0.111,-0.052 0.211,-0.099 0.32,-0.155 0.096,-0.055 0.181,-0.105 0.273,-0.164 0.08,-0.058 0.143,-0.105 0.218,-0.167l0.09 -0.087 0.065 -0.076 0.054 -0.077 0.044 -0.081 0.024 -0.06 0.014 -0.062 0.007 -0.089c0.013,-0.174 0.164,-0.303 0.337,-0.291 0.165,0.013 0.291,0.151 0.291,0.314zm-0.629 2.139l0 -1.06c-0.107,0.081 -0.207,0.143 -0.318,0.217 -2.806,1.603 -8.787,1.503 -11.658,0.09 -0.116,-0.067 -0.217,-0.13 -0.33,-0.201l-0.145 -0.108 0 1.062 0.005 0.07 0.015 0.067 0.026 0.066 0.036 0.065 0.059 0.085 0.065 0.075 0.09 0.088c0.074,0.061 0.135,0.106 0.213,0.163l0.123 0.078 0.156 0.09c0.109,0.056 0.207,0.103 0.319,0.154l0.192 0.08c0.136,0.052 0.265,0.098 0.404,0.145 0.151,0.048 0.295,0.091 0.448,0.134 0.164,0.043 0.323,0.081 0.489,0.12l0.253 0.053c0.28,0.053 0.55,0.098 0.832,0.14 0.198,0.026 0.391,0.049 0.59,0.071 0.206,0.019 0.409,0.036 0.615,0.051l0.318 0.019 0.321 0.014 0.327 0.008 0.329 0.003 0.328 -0.003c0.434,-0.011 0.851,-0.032 1.283,-0.065 0.203,-0.018 0.401,-0.039 0.603,-0.061 0.194,-0.025 0.383,-0.052 0.576,-0.08l0.276 -0.046 0.267 -0.051c0.172,-0.036 0.338,-0.073 0.509,-0.113 0.16,-0.041 0.311,-0.082 0.47,-0.127 0.145,-0.046 0.283,-0.092 0.427,-0.141 0.131,-0.049 0.251,-0.097 0.379,-0.151l0.174 -0.08c0.107,-0.054 0.197,-0.104 0.301,-0.164l0.123 -0.078 0.126 -0.092 0.087 -0.071 0.09 -0.088 0.065 -0.075 0.054 -0.077 0.044 -0.081 0.024 -0.06 0.014 -0.063 0.006 -0.072z"/>
    <polygon class="fil1" points="22.407,10.846 22.407,12.992 22.398,13.102 22.373,13.211 22.331,13.318 22.274,13.424 22.201,13.528 22.113,13.63 22.01,13.729 21.893,13.827 21.762,13.922 21.617,14.014 21.46,14.104 21.29,14.191 21.107,14.275 20.913,14.357 20.708,14.434 20.491,14.509 20.264,14.58 20.027,14.647 19.78,14.711 19.523,14.771 19.258,14.827 18.984,14.878 18.702,14.926 18.412,14.969 18.115,15.007 17.811,15.041 17.501,15.07 17.184,15.094 16.862,15.113 16.535,15.126 16.203,15.134 15.866,15.137 15.529,15.134 15.197,15.126 14.87,15.113 14.548,15.094 14.232,15.07 13.921,15.041 13.617,15.007 13.32,14.969 13.031,14.926 12.749,14.878 12.475,14.827 12.209,14.771 11.953,14.711 11.706,14.647 11.468,14.58 11.241,14.509 11.025,14.434 10.819,14.357 10.625,14.275 10.443,14.191 10.273,14.104 10.115,14.014 9.971,13.922 9.84,13.827 9.723,13.729 9.62,13.63 9.532,13.528 9.459,13.424 9.401,13.318 9.36,13.211 9.334,13.102 9.326,12.992 9.326,10.846 9.334,10.956 9.36,11.065 9.401,11.172 9.459,11.278 9.532,11.382 9.62,11.484 9.723,11.584 9.84,11.681 9.971,11.776 10.115,11.869 10.273,11.959 10.443,12.045 10.625,12.13 10.819,12.211 11.025,12.289 11.241,12.363 11.468,12.434 11.706,12.502 11.953,12.565 12.209,12.625 12.475,12.681 12.749,12.733 13.031,12.78 13.32,12.823 13.617,12.861 13.921,12.895 14.232,12.924 14.548,12.948 14.87,12.967 15.197,12.98 15.529,12.989 15.866,12.992 16.203,12.989 16.535,12.98 16.862,12.967 17.184,12.948 17.501,12.924 17.811,12.895 18.115,12.861 18.412,12.823 18.702,12.78 18.984,12.733 19.258,12.681 19.523,12.625 19.78,12.565 20.027,12.502 20.264,12.434 20.491,12.363 20.708,12.289 20.913,12.211 21.107,12.13 21.29,12.045 21.46,11.959 21.617,11.869 21.762,11.776 21.893,11.681 22.01,11.584 22.113,11.484 22.201,11.382 22.274,11.278 22.331,11.172 22.373,11.065 22.398,10.956 "/>
    <path class="fil2" d="M22.721 10.846l0.001 2.146 -0.01 0.133c-0.002,0.023 -0.006,0.044 -0.012,0.065l-0.021 0.091 -0.018 0.055 -0.037 0.096c-0.053,0.109 -0.097,0.177 -0.166,0.277 -0.079,0.095 -0.142,0.161 -0.231,0.247 -0.208,0.176 -0.375,0.286 -0.611,0.421 -2.823,1.384 -9.341,1.597 -11.961,-0.296 -0.092,-0.077 -0.166,-0.142 -0.253,-0.225 -0.08,-0.086 -0.133,-0.156 -0.2,-0.251l-0.076 -0.137 -0.017 -0.037 -0.042 -0.107 -0.013 -0.042 -0.026 -0.109 -0.007 -0.048c-0.057,-0.714 -0.01,-1.551 -0.01,-2.279 0,-0.174 0.141,-0.315 0.315,-0.315 0.17,0 0.31,0.136 0.314,0.306l0.006 0.072 0.015 0.067 0.026 0.066 0.036 0.065 0.059 0.085 0.065 0.075 0.09 0.088 0.087 0.072 0.126 0.091 0.123 0.078c0.104,0.06 0.195,0.11 0.301,0.165l0.174 0.079c0.128,0.054 0.249,0.102 0.379,0.151 0.144,0.049 0.283,0.095 0.428,0.141 0.157,0.045 0.31,0.087 0.469,0.128 0.171,0.039 0.338,0.076 0.51,0.112l0.266 0.051 0.276 0.046c0.193,0.028 0.383,0.055 0.576,0.08 0.202,0.022 0.401,0.043 0.603,0.062 0.432,0.032 0.849,0.053 1.282,0.064l0.329 0.003 0.33 -0.003 0.327 -0.008 0.321 -0.014 0.317 -0.018c0.206,-0.016 0.41,-0.033 0.616,-0.052 0.198,-0.022 0.392,-0.045 0.59,-0.071 0.281,-0.042 0.552,-0.087 0.832,-0.14l0.253 -0.053c0.165,-0.039 0.325,-0.077 0.489,-0.119 0.151,-0.044 0.297,-0.087 0.448,-0.135 0.138,-0.047 0.267,-0.093 0.404,-0.144l0.191 -0.081c0.111,-0.051 0.212,-0.099 0.32,-0.154l0.155 -0.09 0.123 -0.078c0.079,-0.057 0.139,-0.102 0.213,-0.163l0.09 -0.088 0.065 -0.075 0.054 -0.077 0.044 -0.081 0.024 -0.06 0.014 -0.063 0.007 -0.088c0.013,-0.174 0.164,-0.304 0.337,-0.291 0.165,0.013 0.291,0.151 0.291,0.314zm-0.629 2.138l0 -1.06c-2.512,1.93 -9.223,1.656 -11.976,0.308 -0.153,-0.088 -0.341,-0.194 -0.475,-0.309l0 1.061 0.005 0.071 0.016 0.066 0.025 0.067 0.036 0.065 0.059 0.085 0.065 0.075 0.091 0.087 0.085 0.071 0.127 0.092 0.123 0.079 0.156 0.089c0.109,0.057 0.207,0.104 0.319,0.155l0.192 0.08c0.136,0.052 0.266,0.098 0.404,0.145 0.151,0.048 0.295,0.09 0.448,0.134 0.164,0.043 0.323,0.081 0.489,0.12l0.253 0.053c0.28,0.053 0.55,0.098 0.832,0.139 0.198,0.027 0.391,0.049 0.59,0.071 0.206,0.02 0.408,0.036 0.615,0.052l0.318 0.019 0.321 0.014 0.327 0.008 0.329 0.003 0.328 -0.003c0.434,-0.011 0.851,-0.032 1.283,-0.065 0.203,-0.018 0.401,-0.039 0.603,-0.061 0.194,-0.025 0.383,-0.052 0.576,-0.08l0.276 -0.047 0.267 -0.05c0.172,-0.036 0.338,-0.073 0.509,-0.113 0.16,-0.041 0.311,-0.083 0.47,-0.128 0.145,-0.045 0.283,-0.091 0.427,-0.14 0.131,-0.05 0.25,-0.097 0.379,-0.151l0.174 -0.08c0.107,-0.054 0.197,-0.104 0.301,-0.164l0.124 -0.079 0.125 -0.091 0.087 -0.072 0.09 -0.087 0.065 -0.075 0.06 -0.085 0.035 -0.065 0.027 -0.068 0.014 -0.063 0.006 -0.073z"/>
    <polygon class="fil1" points="22.407,12.992 22.407,15.137 22.398,15.248 22.373,15.357 22.331,15.464 22.274,15.57 22.201,15.674 22.113,15.775 22.01,15.875 21.893,15.973 21.762,16.068 21.617,16.16 21.46,16.25 21.29,16.337 21.107,16.421 20.913,16.502 20.708,16.58 20.491,16.655 20.264,16.726 20.027,16.793 19.78,16.857 19.523,16.917 19.258,16.972 18.984,17.024 18.702,17.071 18.412,17.114 18.115,17.153 17.811,17.187 17.501,17.215 17.184,17.239 16.862,17.258 16.535,17.272 16.203,17.28 15.866,17.283 15.529,17.28 15.197,17.272 14.87,17.258 14.548,17.239 14.232,17.215 13.921,17.187 13.617,17.153 13.32,17.114 13.031,17.071 12.749,17.024 12.475,16.972 12.209,16.917 11.953,16.857 11.706,16.793 11.468,16.726 11.241,16.655 11.025,16.58 10.819,16.502 10.625,16.421 10.443,16.337 10.273,16.25 10.115,16.16 9.971,16.068 9.84,15.973 9.723,15.875 9.62,15.775 9.532,15.674 9.459,15.57 9.401,15.464 9.36,15.357 9.334,15.248 9.326,15.137 9.326,12.992 9.334,13.102 9.36,13.211 9.401,13.318 9.459,13.424 9.532,13.528 9.62,13.63 9.723,13.729 9.84,13.827 9.971,13.922 10.115,14.014 10.273,14.104 10.443,14.191 10.625,14.275 10.819,14.357 11.025,14.434 11.241,14.509 11.468,14.58 11.706,14.647 11.953,14.711 12.209,14.771 12.475,14.827 12.749,14.878 13.031,14.926 13.32,14.969 13.617,15.007 13.921,15.041 14.232,15.07 14.548,15.094 14.87,15.113 15.197,15.126 15.529,15.134 15.866,15.137 16.203,15.134 16.535,15.126 16.862,15.113 17.184,15.094 17.501,15.07 17.811,15.041 18.115,15.007 18.412,14.969 18.702,14.926 18.984,14.878 19.258,14.827 19.523,14.771 19.78,14.711 20.027,14.647 20.264,14.58 20.491,14.509 20.708,14.434 20.913,14.357 21.107,14.275 21.29,14.191 21.46,14.104 21.617,14.014 21.762,13.922 21.893,13.827 22.01,13.729 22.113,13.63 22.201,13.528 22.274,13.424 22.331,13.318 22.373,13.211 22.398,13.102 "/>
    <path class="fil2" d="M22.721 12.992l0.001 2.145 -0.01 0.134c-0.002,0.022 -0.006,0.044 -0.012,0.065l-0.021 0.091 -0.018 0.055c-0.036,0.093 -0.063,0.149 -0.11,0.238l-0.093 0.134c-0.079,0.096 -0.142,0.162 -0.231,0.247 -0.096,0.082 -0.179,0.147 -0.281,0.221 -0.112,0.071 -0.215,0.134 -0.33,0.201 -2.898,1.42 -8.82,1.509 -11.657,-0.09 -0.106,-0.07 -0.2,-0.132 -0.304,-0.206 -0.092,-0.077 -0.166,-0.142 -0.253,-0.225 -0.08,-0.087 -0.133,-0.156 -0.2,-0.251 -0.012,-0.016 -0.021,-0.033 -0.029,-0.05l-0.047 -0.087 -0.017 -0.037 -0.042 -0.107 -0.013 -0.042 -0.026 -0.109 -0.007 -0.048c-0.057,-0.714 -0.01,-1.551 -0.01,-2.279 0,-0.174 0.141,-0.315 0.315,-0.315 0.17,0 0.31,0.136 0.314,0.306l0.006 0.072 0.016 0.066 0.025 0.067 0.036 0.065 0.059 0.085 0.065 0.075 0.091 0.087 0.086 0.072 0.126 0.091 0.123 0.079c0.104,0.059 0.195,0.11 0.301,0.164l0.174 0.08c0.129,0.054 0.248,0.102 0.379,0.151 0.144,0.049 0.282,0.095 0.428,0.14 0.157,0.045 0.31,0.088 0.469,0.128 0.171,0.04 0.338,0.077 0.51,0.113l0.266 0.05 0.276 0.047c0.193,0.028 0.383,0.055 0.576,0.08 0.202,0.022 0.401,0.043 0.603,0.062 0.432,0.031 0.849,0.053 1.282,0.064l0.329 0.003 0.33 -0.003 0.327 -0.008 0.321 -0.014 0.317 -0.019c0.207,-0.016 0.41,-0.032 0.616,-0.051 0.198,-0.022 0.392,-0.045 0.59,-0.071 0.281,-0.042 0.552,-0.087 0.832,-0.14l0.253 -0.053c0.164,-0.039 0.325,-0.077 0.489,-0.119 0.151,-0.044 0.297,-0.087 0.448,-0.135 0.137,-0.047 0.268,-0.093 0.404,-0.145l0.191 -0.08c0.111,-0.051 0.212,-0.099 0.32,-0.154l0.155 -0.09 0.124 -0.079 0.125 -0.091 0.087 -0.072 0.09 -0.087 0.065 -0.075 0.06 -0.085 0.035 -0.065 0.027 -0.068 0.014 -0.063 0.007 -0.089c0.013,-0.173 0.164,-0.303 0.337,-0.29 0.165,0.012 0.291,0.151 0.291,0.314zm-0.629 2.138l0 -1.06c-2.512,1.93 -9.223,1.656 -11.976,0.307 -0.153,-0.087 -0.342,-0.194 -0.475,-0.308l0 1.061 0.005 0.071 0.016 0.066 0.025 0.067 0.036 0.065 0.059 0.084 0.065 0.076 0.091 0.087 0.085 0.071 0.132 0.096c0.093,0.06 0.177,0.109 0.274,0.164 0.109,0.056 0.207,0.103 0.319,0.155l0.192 0.08c0.136,0.052 0.266,0.097 0.404,0.145 0.151,0.047 0.295,0.09 0.448,0.133 0.164,0.044 0.323,0.082 0.489,0.12l0.253 0.054c0.279,0.053 0.55,0.097 0.832,0.139 0.198,0.027 0.391,0.049 0.59,0.071 0.206,0.02 0.408,0.036 0.615,0.052l0.318 0.019 0.321 0.013 0.327 0.008 0.329 0.003 0.328 -0.003c0.434,-0.01 0.851,-0.032 1.283,-0.064 0.203,-0.019 0.401,-0.039 0.603,-0.062 0.194,-0.024 0.383,-0.051 0.576,-0.08l0.276 -0.046 0.267 -0.05c0.172,-0.036 0.338,-0.074 0.509,-0.114 0.16,-0.04 0.311,-0.082 0.47,-0.127 0.145,-0.046 0.283,-0.091 0.427,-0.14 0.131,-0.05 0.25,-0.097 0.379,-0.151l0.174 -0.08c0.107,-0.055 0.199,-0.105 0.303,-0.165 0.091,-0.057 0.16,-0.106 0.247,-0.169l0.087 -0.072 0.09 -0.087 0.065 -0.076 0.054 -0.076 0.044 -0.081 0.024 -0.061 0.014 -0.062 0.006 -0.073z"/>
    <polygon class="fil1" points="22.407,15.137 22.407,17.283 22.398,17.393 22.373,17.503 22.331,17.61 22.274,17.716 22.201,17.819 22.113,17.921 22.01,18.021 21.893,18.118 21.762,18.213 21.617,18.306 21.46,18.396 21.29,18.483 21.107,18.567 20.913,18.648 20.708,18.726 20.491,18.8 20.264,18.872 20.027,18.939 19.78,19.003 19.523,19.062 19.258,19.118 18.984,19.17 18.702,19.217 18.412,19.26 18.115,19.299 17.811,19.332 17.501,19.361 17.184,19.385 16.862,19.404 16.535,19.418 16.203,19.426 15.866,19.429 15.529,19.426 15.197,19.418 14.87,19.404 14.548,19.385 14.232,19.361 13.921,19.332 13.617,19.299 13.32,19.26 13.031,19.217 12.749,19.17 12.475,19.118 12.209,19.062 11.953,19.003 11.706,18.939 11.468,18.872 11.241,18.8 11.025,18.726 10.819,18.648 10.625,18.567 10.443,18.483 10.273,18.396 10.115,18.306 9.971,18.213 9.84,18.118 9.723,18.021 9.62,17.921 9.532,17.819 9.459,17.716 9.401,17.61 9.36,17.503 9.334,17.393 9.326,17.283 9.326,15.137 9.334,15.248 9.36,15.357 9.401,15.464 9.459,15.57 9.532,15.674 9.62,15.775 9.723,15.875 9.84,15.973 9.971,16.068 10.115,16.16 10.273,16.25 10.443,16.337 10.625,16.421 10.819,16.502 11.025,16.58 11.241,16.655 11.468,16.726 11.706,16.793 11.953,16.857 12.209,16.917 12.475,16.972 12.749,17.024 13.031,17.071 13.32,17.114 13.617,17.153 13.921,17.187 14.232,17.215 14.548,17.239 14.87,17.258 15.197,17.272 15.529,17.28 15.866,17.283 16.203,17.28 16.535,17.272 16.862,17.258 17.184,17.239 17.501,17.215 17.811,17.187 18.115,17.153 18.412,17.114 18.702,17.071 18.984,17.024 19.258,16.972 19.523,16.917 19.78,16.857 20.027,16.793 20.264,16.726 20.491,16.655 20.708,16.58 20.913,16.502 21.107,16.421 21.29,16.337 21.46,16.25 21.617,16.16 21.762,16.068 21.893,15.973 22.01,15.875 22.113,15.775 22.201,15.674 22.274,15.57 22.331,15.464 22.373,15.357 22.398,15.248 "/>
    <path class="fil2" d="M22.721 15.137l0.001 2.146 -0.01 0.134c-0.002,0.022 -0.006,0.044 -0.012,0.064l-0.021 0.092c-0.004,0.019 -0.01,0.037 -0.018,0.055 -0.036,0.093 -0.063,0.148 -0.11,0.238l-0.093 0.134c-0.078,0.095 -0.141,0.16 -0.229,0.246 -0.097,0.082 -0.181,0.147 -0.283,0.222 -0.112,0.071 -0.215,0.134 -0.33,0.201 -2.898,1.42 -8.82,1.509 -11.657,-0.09 -0.106,-0.07 -0.2,-0.132 -0.304,-0.206 -0.197,-0.165 -0.304,-0.265 -0.453,-0.477 -0.012,-0.015 -0.021,-0.032 -0.029,-0.049l-0.047 -0.087 -0.017 -0.037 -0.042 -0.107 -0.013 -0.043 -0.026 -0.109 -0.007 -0.047c-0.058,-0.713 -0.01,-1.553 -0.01,-2.28 0,-0.173 0.141,-0.315 0.315,-0.315 0.17,0 0.31,0.137 0.314,0.306l0.006 0.073 0.016 0.066 0.025 0.067 0.036 0.065 0.059 0.084 0.065 0.076 0.091 0.087 0.086 0.072c0.086,0.063 0.158,0.112 0.247,0.17 0.104,0.058 0.197,0.11 0.303,0.164l0.174 0.08c0.129,0.054 0.248,0.102 0.379,0.151 0.144,0.049 0.282,0.095 0.428,0.14 0.157,0.045 0.31,0.087 0.469,0.128 0.171,0.04 0.338,0.077 0.51,0.113l0.266 0.05 0.276 0.046c0.193,0.029 0.382,0.056 0.576,0.081 0.202,0.022 0.401,0.043 0.603,0.062 0.432,0.031 0.849,0.053 1.282,0.063l0.329 0.003 0.33 -0.003 0.327 -0.008 0.321 -0.013 0.317 -0.019c0.207,-0.016 0.41,-0.032 0.616,-0.051 0.198,-0.023 0.392,-0.045 0.59,-0.071 0.281,-0.043 0.552,-0.087 0.832,-0.14l0.253 -0.053c0.164,-0.039 0.325,-0.077 0.489,-0.12 0.151,-0.043 0.297,-0.087 0.448,-0.134 0.137,-0.047 0.268,-0.093 0.404,-0.145l0.191 -0.08c0.111,-0.051 0.212,-0.099 0.32,-0.154 0.096,-0.056 0.181,-0.106 0.273,-0.165l0.131 -0.095 0.087 -0.072 0.09 -0.087 0.065 -0.076 0.054 -0.076 0.044 -0.081 0.024 -0.061 0.014 -0.062 0.007 -0.089c0.013,-0.173 0.164,-0.303 0.337,-0.29 0.165,0.012 0.291,0.15 0.291,0.313zm-0.629 2.139l0 -1.06c-0.107,0.082 -0.207,0.144 -0.318,0.217 -2.813,1.607 -8.779,1.501 -11.658,0.09 -0.116,-0.066 -0.217,-0.129 -0.33,-0.201l-0.145 -0.107 0 1.061 0.005 0.072 0.015 0.063 0.026 0.069 0.036 0.065 0.059 0.084 0.065 0.076 0.09 0.087c0.075,0.062 0.138,0.109 0.218,0.167 0.093,0.06 0.177,0.108 0.274,0.164 0.109,0.056 0.208,0.103 0.319,0.155l0.192 0.08c0.136,0.051 0.266,0.097 0.404,0.145l0.217 0.068 0.23 0.065c0.165,0.043 0.324,0.081 0.49,0.12l0.253 0.054c0.279,0.052 0.55,0.097 0.832,0.139 0.198,0.026 0.391,0.049 0.59,0.071 0.206,0.02 0.408,0.036 0.615,0.051l0.318 0.019 0.321 0.014 0.327 0.008 0.329 0.003 0.328 -0.003c0.434,-0.011 0.851,-0.032 1.283,-0.064 0.203,-0.019 0.401,-0.039 0.603,-0.062 0.194,-0.024 0.383,-0.051 0.576,-0.08l0.276 -0.046 0.267 -0.05c0.172,-0.036 0.338,-0.074 0.509,-0.114 0.157,-0.04 0.307,-0.08 0.463,-0.125 0.148,-0.046 0.288,-0.092 0.434,-0.143 0.131,-0.049 0.25,-0.096 0.379,-0.15l0.174 -0.081c0.107,-0.054 0.199,-0.105 0.303,-0.164 0.091,-0.058 0.16,-0.106 0.247,-0.169l0.087 -0.072 0.09 -0.087 0.065 -0.076 0.054 -0.076 0.044 -0.082 0.024 -0.06 0.014 -0.063 0.006 -0.072z"/>
    <polygon class="fil3" points="15.866,4.409 16.203,4.411 16.535,4.42 16.862,4.433 17.184,4.452 17.501,4.476 17.811,4.505 18.115,4.539 18.412,4.577 18.702,4.62 18.984,4.667 19.258,4.719 19.523,4.775 19.78,4.835 20.027,4.899 20.264,4.966 20.491,5.037 20.708,5.112 20.913,5.189 21.107,5.271 21.29,5.355 21.46,5.442 21.617,5.532 21.762,5.624 21.893,5.719 22.01,5.817 22.113,5.916 22.201,6.018 22.274,6.122 22.331,6.228 22.373,6.335 22.398,6.444 22.407,6.554 22.398,6.665 22.373,6.774 22.331,6.881 22.274,6.987 22.201,7.09 22.113,7.192 22.01,7.292 21.893,7.389 21.762,7.485 21.617,7.577 21.46,7.667 21.29,7.754 21.107,7.838 20.913,7.919 20.708,7.997 20.491,8.071 20.264,8.143 20.027,8.21 19.78,8.274 19.523,8.334 19.258,8.389 18.984,8.441 18.702,8.488 18.412,8.531 18.115,8.57 17.811,8.603 17.501,8.632 17.184,8.656 16.862,8.675 16.535,8.689 16.203,8.697 15.866,8.7 15.529,8.697 15.197,8.689 14.87,8.675 14.548,8.656 14.232,8.632 13.921,8.603 13.617,8.57 13.32,8.531 13.031,8.488 12.749,8.441 12.475,8.389 12.209,8.334 11.953,8.274 11.706,8.21 11.468,8.143 11.241,8.071 11.025,7.997 10.819,7.919 10.625,7.838 10.443,7.754 10.273,7.667 10.115,7.577 9.971,7.485 9.84,7.389 9.723,7.292 9.62,7.192 9.532,7.09 9.459,6.987 9.401,6.881 9.36,6.774 9.334,6.665 9.326,6.554 9.334,6.444 9.36,6.335 9.401,6.228 9.459,6.122 9.532,6.018 9.62,5.916 9.723,5.817 9.84,5.719 9.971,5.624 10.115,5.532 10.273,5.442 10.443,5.355 10.625,5.271 10.819,5.189 11.025,5.112 11.241,5.037 11.468,4.966 11.706,4.899 11.953,4.835 12.209,4.775 12.475,4.719 12.749,4.667 13.031,4.62 13.32,4.577 13.617,4.539 13.921,4.505 14.232,4.476 14.548,4.452 14.87,4.433 15.197,4.42 15.529,4.411 "/>
    <path class="fil2" d="M15.869 4.095c1.856,0.016 4.655,0.247 6.208,1.37 0.092,0.077 0.166,0.142 0.253,0.225 0.124,0.134 0.191,0.228 0.278,0.388 0.01,0.018 0.018,0.037 0.024,0.057l0.034 0.087 0.013 0.043 0.025 0.109 0.007 0.047 0.009 0.11 0 0.05 -0.008 0.107c-0.002,0.022 -0.006,0.044 -0.012,0.064l-0.021 0.092 -0.018 0.055c-0.036,0.093 -0.063,0.149 -0.11,0.238l-0.093 0.134c-0.079,0.096 -0.142,0.161 -0.231,0.247 -0.096,0.082 -0.179,0.147 -0.281,0.221 -0.112,0.071 -0.215,0.134 -0.33,0.201 -2.898,1.42 -8.82,1.51 -11.657,-0.09 -0.106,-0.07 -0.2,-0.132 -0.304,-0.206 -0.092,-0.077 -0.166,-0.142 -0.253,-0.225 -0.08,-0.087 -0.133,-0.156 -0.2,-0.251 -0.012,-0.016 -0.021,-0.033 -0.029,-0.05l-0.047 -0.087 -0.017 -0.037 -0.042 -0.107 -0.013 -0.042 -0.026 -0.109 -0.007 -0.048 -0.009 -0.11 0 -0.051 0.009 -0.106c0.001,-0.023 0.005,-0.045 0.011,-0.065l0.021 -0.091 0.018 -0.055 0.037 -0.096c0.054,-0.109 0.097,-0.177 0.167,-0.277 0.078,-0.095 0.141,-0.161 0.23,-0.247 1.456,-1.23 4.537,-1.495 6.364,-1.495zm0.327 0.63l-0.33 -0.003 -0.328 0.003c-0.433,0.011 -0.85,0.032 -1.283,0.065 -0.203,0.018 -0.401,0.039 -0.603,0.061 -0.194,0.025 -0.383,0.052 -0.576,0.08l-0.276 0.046 -0.266 0.051c-0.173,0.036 -0.338,0.073 -0.51,0.113 -0.159,0.041 -0.311,0.083 -0.469,0.128 -0.147,0.045 -0.283,0.09 -0.428,0.14 -0.131,0.049 -0.25,0.097 -0.379,0.151l-0.174 0.08 -0.146 0.074 -0.145 0.083 -0.133 0.086 -0.126 0.091 -0.086 0.072 -0.091 0.087 -0.065 0.075 -0.059 0.085 -0.036 0.065 -0.026 0.068 -0.015 0.063 -0.005 0.065 0.005 0.064 0.016 0.066 0.025 0.067 0.036 0.065 0.059 0.084 0.065 0.075 0.091 0.088 0.085 0.071 0.132 0.096c0.093,0.06 0.177,0.109 0.274,0.164 0.109,0.056 0.208,0.103 0.319,0.155l0.192 0.08c0.136,0.051 0.266,0.097 0.404,0.145l0.217 0.068 0.23 0.065c0.165,0.043 0.324,0.082 0.49,0.12l0.253 0.054c0.279,0.053 0.55,0.097 0.832,0.139 0.198,0.026 0.391,0.049 0.59,0.071 0.206,0.02 0.408,0.036 0.615,0.052l0.318 0.019 0.321 0.013 0.327 0.009 0.329 0.002 0.328 -0.002c0.434,-0.012 0.851,-0.033 1.283,-0.065 0.203,-0.019 0.401,-0.039 0.603,-0.062 0.194,-0.024 0.383,-0.051 0.576,-0.08l0.276 -0.046 0.267 -0.05c0.172,-0.036 0.338,-0.073 0.509,-0.113 0.157,-0.04 0.307,-0.081 0.463,-0.126 0.148,-0.046 0.288,-0.092 0.434,-0.143 0.131,-0.049 0.25,-0.096 0.379,-0.15l0.174 -0.08c0.107,-0.055 0.199,-0.105 0.303,-0.165 0.091,-0.057 0.16,-0.106 0.247,-0.169l0.087 -0.072 0.09 -0.088 0.065 -0.075 0.054 -0.076 0.044 -0.081 0.024 -0.061 0.014 -0.062 0.005 -0.066 -0.005 -0.065 -0.014 -0.063 -0.024 -0.06 -0.044 -0.081 -0.054 -0.077 -0.065 -0.075 -0.09 -0.087 -0.085 -0.071 -0.128 -0.092 -0.133 -0.086 -0.144 -0.082c-0.109,-0.056 -0.209,-0.104 -0.321,-0.155l-0.191 -0.08c-0.136,-0.052 -0.266,-0.098 -0.404,-0.145 -0.151,-0.048 -0.296,-0.09 -0.448,-0.134 -0.165,-0.043 -0.324,-0.081 -0.489,-0.12l-0.253 -0.053c-0.28,-0.053 -0.551,-0.098 -0.833,-0.14 -0.198,-0.026 -0.391,-0.048 -0.589,-0.07 -0.207,-0.02 -0.409,-0.036 -0.616,-0.052l-0.317 -0.019 -0.321 -0.014 -0.327 -0.008z"/>
    <path class="fil4" d="M9.326 8.962c3.612,0 6.54,2.929 6.54,6.541 0,3.612 -2.928,6.54 -6.54,6.54 -3.612,0 -6.541,-2.928 -6.541,-6.54 0,-3.612 2.929,-6.541 6.541,-6.541z"/>
    <path class="fil2" d="M9.326 8.648c1.893,0 3.606,0.767 4.847,2.007 1.241,1.241 2.008,2.955 2.008,4.848 0,1.893 -0.767,3.607 -2.008,4.847 -1.241,1.241 -2.954,2.008 -4.847,2.008 -1.893,0 -3.607,-0.767 -4.848,-2.008 -1.24,-1.24 -2.008,-2.954 -2.008,-4.847 0,-1.893 0.768,-3.607 2.008,-4.848 1.241,-1.24 2.955,-2.007 4.848,-2.007zm4.402 2.453c-1.127,-1.127 -2.683,-1.824 -4.402,-1.824 -1.719,0 -3.276,0.697 -4.402,1.824 -1.127,1.126 -1.824,2.683 -1.824,4.402 0,1.719 0.697,3.276 1.824,4.402 1.126,1.126 2.683,1.823 4.402,1.823 1.719,0 3.275,-0.697 4.402,-1.823 1.126,-1.126 1.823,-2.683 1.823,-4.402 0,-1.719 -0.697,-3.276 -1.823,-4.402z"/>
    <path class="fil2" d="M15.866 5.906c-0.174,0 -0.315,-0.141 -0.315,-0.315 0,-0.174 0.141,-0.315 0.315,-0.315 1.263,0 2.412,0.111 3.248,0.29 0.968,0.207 1.568,0.553 1.568,0.988 0,0.174 -0.141,0.315 -0.315,0.315 -0.174,0 -0.315,-0.141 -0.315,-0.315 0,-0.096 -0.409,-0.232 -1.069,-0.373 -0.792,-0.17 -1.894,-0.275 -3.117,-0.275z"/>
    <path class="fil2" d="M8.42 14.136c0.011,0.051 0.028,0.099 0.051,0.144l0.041 0.069 0.048 0.065 0.059 0.063c0.084,0.077 0.147,0.124 0.241,0.189 0.157,0.097 0.303,0.173 0.468,0.259 0.369,0.186 0.702,0.354 1.051,0.578l0.138 0.099 0.13 0.106 0.118 0.109c0.083,0.088 0.135,0.148 0.21,0.242l0.087 0.13 0.075 0.138c0.026,0.05 0.047,0.101 0.064,0.15 0.015,0.05 0.03,0.1 0.04,0.147l0.003 0.013c0.011,0.049 0.019,0.103 0.025,0.161l0.001 0.008c0.006,0.062 0.009,0.122 0.009,0.175 0,0.073 -0.004,0.149 -0.012,0.226 -0.007,0.069 -0.018,0.136 -0.032,0.201l-0.003 0.015c-0.016,0.069 -0.036,0.135 -0.059,0.196 -0.021,0.054 -0.046,0.109 -0.077,0.164l-0.008 0.015c-0.033,0.06 -0.067,0.113 -0.102,0.161 -0.036,0.049 -0.077,0.098 -0.12,0.145 -0.045,0.048 -0.091,0.091 -0.139,0.131 -0.052,0.042 -0.103,0.08 -0.153,0.113 -0.058,0.037 -0.114,0.07 -0.165,0.097 -0.058,0.029 -0.117,0.057 -0.175,0.081 -0.064,0.025 -0.127,0.048 -0.186,0.066 -0.112,0.03 -0.2,0.052 -0.303,0.072l0 0.513c0,0.232 -0.188,0.42 -0.419,0.42 -0.232,0 -0.42,-0.188 -0.42,-0.42l0 -0.455c-0.111,-0.009 -0.236,-0.014 -0.339,-0.023 -0.115,-0.014 -0.265,-0.032 -0.371,-0.061 -0.133,-0.029 -0.29,-0.064 -0.415,-0.111 -0.062,-0.021 -0.119,-0.043 -0.167,-0.064l-0.05 -0.022c-0.113,-0.048 -0.192,-0.16 -0.192,-0.29l0 -0.401c0.001,-0.05 0.013,-0.1 0.038,-0.147 0.082,-0.153 0.272,-0.211 0.424,-0.129l0.186 0.094 0.195 0.079c0.262,0.087 0.458,0.128 0.73,0.162 0.053,0.005 0.111,0.007 0.174,0.007 0.107,0 0.204,-0.004 0.289,-0.013 0.087,-0.01 0.168,-0.024 0.241,-0.042 0.072,-0.017 0.139,-0.04 0.2,-0.068 0.055,-0.024 0.105,-0.054 0.149,-0.087l0.006 -0.005c0.043,-0.033 0.08,-0.069 0.111,-0.108 0.031,-0.037 0.057,-0.079 0.078,-0.125 0.022,-0.048 0.039,-0.098 0.049,-0.151 0.011,-0.053 0.017,-0.116 0.017,-0.185 -0.006,-0.118 -0.012,-0.158 -0.048,-0.272 -0.031,-0.063 -0.051,-0.094 -0.091,-0.153 -0.047,-0.06 -0.073,-0.087 -0.127,-0.142l-0.078 -0.068c-0.167,-0.125 -0.281,-0.182 -0.454,-0.29 -0.093,-0.065 -0.318,-0.174 -0.519,-0.272 -0.259,-0.129 -0.482,-0.247 -0.726,-0.403 -0.139,-0.098 -0.238,-0.178 -0.363,-0.293l-0.103 -0.11c-0.069,-0.088 -0.111,-0.148 -0.172,-0.243 -0.022,-0.043 -0.055,-0.097 -0.073,-0.141 -0.022,-0.047 -0.04,-0.095 -0.055,-0.144 -0.016,-0.052 -0.029,-0.102 -0.038,-0.149 -0.009,-0.048 -0.017,-0.103 -0.023,-0.165 -0.005,-0.064 -0.008,-0.123 -0.008,-0.174 0,-0.07 0.004,-0.141 0.012,-0.212 0.008,-0.071 0.021,-0.14 0.037,-0.204 0.014,-0.055 0.033,-0.114 0.056,-0.173l0.007 -0.018c0.025,-0.062 0.055,-0.121 0.088,-0.178 0.034,-0.057 0.069,-0.11 0.104,-0.156l0.122 -0.144c0.04,-0.041 0.086,-0.084 0.137,-0.128 0.051,-0.043 0.1,-0.08 0.145,-0.111l0.014 -0.008c0.051,-0.034 0.103,-0.066 0.157,-0.095 0.059,-0.032 0.115,-0.06 0.168,-0.083 0.068,-0.029 0.13,-0.053 0.186,-0.072 0.106,-0.032 0.194,-0.055 0.292,-0.079l0 -0.523c0,-0.232 0.188,-0.42 0.42,-0.42 0.231,0 0.419,0.188 0.419,0.42l0 0.446c0.093,0.002 0.184,0.006 0.273,0.012 0.13,0.009 0.253,0.023 0.366,0.042 0.078,0.012 0.152,0.028 0.221,0.046l0.016 0.003c0.07,0.019 0.134,0.039 0.192,0.062 0.126,0.041 0.217,0.159 0.217,0.299l0 0.383c-0.001,0.046 -0.011,0.092 -0.032,0.136 -0.075,0.157 -0.263,0.222 -0.419,0.147 -0.051,-0.025 -0.104,-0.048 -0.16,-0.068 -0.056,-0.02 -0.114,-0.039 -0.174,-0.055 -0.103,-0.028 -0.213,-0.049 -0.328,-0.064l-0.01 -0.001c-0.119,-0.014 -0.245,-0.022 -0.378,-0.022l-0.105 0.002c-0.12,0.01 -0.208,0.021 -0.328,0.043l-0.095 0.023c-0.106,0.035 -0.172,0.065 -0.27,0.117 -0.082,0.056 -0.122,0.09 -0.189,0.164l-0.052 0.07c-0.036,0.062 -0.041,0.077 -0.065,0.147l-0.017 0.088c-0.004,0.026 -0.006,0.061 -0.006,0.102 0,0.07 0.006,0.132 0.018,0.185z"/>
   </g>
  </g>
 </g>
</svg>
