<?xml version="1.0" encoding="UTF-8"?>
<!DOCTYPE svg PUBLIC "-//W3C//DTD SVG 1.1//EN" "http://www.w3.org/Graphics/SVG/1.1/DTD/svg11.dtd">
<!-- Creator: CorelDRAW 2018 (64-Bit) -->
<svg xmlns="http://www.w3.org/2000/svg" xml:space="preserve" width="40px" height="40px" version="1.1" style="shape-rendering:geometricPrecision; text-rendering:geometricPrecision; image-rendering:optimizeQuality; fill-rule:evenodd; clip-rule:evenodd"
viewBox="0 0 25.192 25.192"
 xmlns:xlink="http://www.w3.org/1999/xlink">
 <defs>
  <style type="text/css">
   <![CDATA[
    .fil0 {fill:none}
    .fil3 {fill:#EAEDF2}
    .fil1 {fill:white}
    .fil4 {fill:#00F4FF;fill-rule:nonzero}
    .fil2 {fill:gray;fill-rule:nonzero}
   ]]>
  </style>
 </defs>
 <g id="Layer_x0020_1">
  <metadata id="CorelCorpID_0Corel-Layer"/>
  <g id="_1576234401472">
   <rect class="fil0" width="25.192" height="25.192"/>
   <g>
    <path class="fil1" d="M11.811 3.098c4.696,0 8.503,3.807 8.503,8.503 0,4.695 -3.807,8.502 -8.503,8.502 -4.695,0 -8.502,-3.807 -8.502,-8.502 0,-4.696 3.807,-8.503 8.502,-8.503z"/>
    <path class="fil2" d="M11.811 2.783c2.435,0 4.639,0.987 6.235,2.583 1.596,1.596 2.583,3.8 2.583,6.235 0,2.434 -0.987,4.639 -2.583,6.235 -1.596,1.595 -3.8,2.582 -6.235,2.582 -2.434,0 -4.639,-0.987 -6.234,-2.582 -1.596,-1.596 -2.583,-3.801 -2.583,-6.235 0,-2.435 0.987,-4.639 2.583,-6.235 1.595,-1.596 3.8,-2.583 6.234,-2.583zm5.79 3.028c-1.481,-1.481 -3.529,-2.398 -5.79,-2.398 -2.26,0 -4.308,0.917 -5.789,2.398 -1.481,1.482 -2.398,3.529 -2.398,5.79 0,2.261 0.917,4.308 2.398,5.789 1.481,1.482 3.529,2.398 5.789,2.398 2.261,0 4.309,-0.916 5.79,-2.398 1.481,-1.481 2.398,-3.528 2.398,-5.789 0,-2.261 -0.917,-4.308 -2.398,-5.79z"/>
    <path class="fil3" d="M11.811 11.601l0 -8.503c2.514,0 4.898,1.112 6.514,3.037l-6.514 5.466z"/>
    <path class="fil2" d="M11.497 11.601l0 -8.503c0,-0.174 0.141,-0.315 0.314,-0.315 1.303,0 2.573,0.289 3.727,0.826 1.152,0.538 2.19,1.326 3.028,2.325 0.111,0.133 0.093,0.331 -0.04,0.443l-6.513 5.465c-0.133,0.111 -0.331,0.094 -0.443,-0.039 -0.049,-0.059 -0.073,-0.131 -0.073,-0.202zm0.629 -8.182l0 7.507 5.751 -4.825c-0.739,-0.815 -1.627,-1.464 -2.605,-1.921 -0.978,-0.456 -2.046,-0.719 -3.146,-0.761z"/>
    <path class="fil4" d="M19.363 14.536c2.087,0 3.779,1.692 3.779,3.779 0,2.087 -1.692,3.779 -3.779,3.779 -2.087,0 -3.779,-1.692 -3.779,-3.779 0,-2.087 1.692,-3.779 3.779,-3.779z"/>
    <path class="fil2" d="M19.363 14.221c1.129,0 2.153,0.459 2.894,1.2l0.002 0.002c0.74,0.741 1.198,1.764 1.198,2.892 0,1.129 -0.458,2.152 -1.199,2.894l-0.002 0.002c-0.741,0.74 -1.764,1.198 -2.893,1.198 -1.128,0 -2.152,-0.458 -2.893,-1.199l-0.002 -0.002c-0.741,-0.741 -1.198,-1.764 -1.198,-2.893 0,-1.129 0.458,-2.153 1.199,-2.893 0.741,-0.742 1.765,-1.201 2.894,-1.201zm2.45 1.644c-0.626,-0.627 -1.492,-1.014 -2.45,-1.014 -0.957,0 -1.823,0.388 -2.45,1.014 -0.626,0.627 -1.014,1.493 -1.014,2.45 0,0.958 0.388,1.824 1.014,2.45 0.627,0.627 1.493,1.014 2.45,1.014 0.958,0 1.824,-0.387 2.45,-1.013 0.627,-0.627 1.014,-1.493 1.014,-2.451 0,-0.957 -0.387,-1.823 -1.014,-2.45z"/>
    <path class="fil2" d="M18.736 17.368c0.008,0.036 0.02,0.07 0.036,0.1l0.028 0.048 0.033 0.045 0.041 0.044c0.058,0.053 0.102,0.086 0.167,0.131 0.108,0.067 0.21,0.119 0.324,0.179 0.256,0.129 0.486,0.245 0.728,0.4l0.095 0.069 0.09 0.073 0.082 0.076c0.057,0.06 0.093,0.102 0.145,0.167l0.061 0.09 0.052 0.095c0.017,0.035 0.032,0.071 0.043,0.105 0.011,0.034 0.021,0.068 0.029,0.101l0.002 0.009c0.007,0.034 0.013,0.072 0.017,0.112l0 0.005c0.005,0.044 0.007,0.084 0.007,0.122 0,0.05 -0.003,0.103 -0.009,0.156 -0.004,0.048 -0.012,0.094 -0.022,0.139l-0.002 0.01c-0.011,0.048 -0.025,0.094 -0.041,0.136 -0.014,0.037 -0.032,0.075 -0.053,0.114l-0.005 0.01c-0.023,0.041 -0.047,0.078 -0.071,0.111 -0.025,0.035 -0.053,0.069 -0.083,0.101 -0.032,0.033 -0.063,0.063 -0.096,0.091 -0.036,0.029 -0.072,0.055 -0.107,0.078 -0.04,0.025 -0.078,0.048 -0.114,0.067 -0.04,0.02 -0.08,0.04 -0.121,0.056 -0.044,0.017 -0.088,0.033 -0.128,0.046 -0.078,0.021 -0.139,0.035 -0.21,0.05l0 0.355c0,0.16 -0.13,0.29 -0.291,0.29 -0.16,0 -0.29,-0.13 -0.29,-0.29l0 -0.315c-0.077,-0.006 -0.163,-0.01 -0.235,-0.016 -0.08,-0.01 -0.184,-0.023 -0.257,-0.043 -0.092,-0.02 -0.2,-0.044 -0.287,-0.076 -0.043,-0.015 -0.082,-0.03 -0.116,-0.044l-0.035 -0.016c-0.077,-0.033 -0.132,-0.11 -0.132,-0.201l0 -0.277c0.001,-0.035 0.009,-0.07 0.026,-0.102 0.057,-0.106 0.188,-0.146 0.294,-0.089l0.128 0.065 0.135 0.055c0.182,0.059 0.317,0.088 0.506,0.112 0.036,0.003 0.077,0.005 0.121,0.005 0.074,0 0.141,-0.003 0.2,-0.01 0.06,-0.006 0.116,-0.016 0.167,-0.029 0.049,-0.012 0.095,-0.028 0.137,-0.046 0.038,-0.017 0.073,-0.038 0.104,-0.061l0.004 -0.003c0.03,-0.023 0.056,-0.048 0.077,-0.075 0.021,-0.026 0.039,-0.055 0.054,-0.086 0.015,-0.034 0.027,-0.069 0.034,-0.105 0.008,-0.037 0.011,-0.08 0.011,-0.128 -0.004,-0.082 -0.008,-0.11 -0.033,-0.188 -0.021,-0.044 -0.035,-0.065 -0.062,-0.107 -0.033,-0.041 -0.051,-0.06 -0.089,-0.098l-0.054 -0.047c-0.115,-0.086 -0.194,-0.126 -0.314,-0.2 -0.064,-0.045 -0.22,-0.121 -0.359,-0.189 -0.18,-0.089 -0.334,-0.171 -0.503,-0.279 -0.096,-0.068 -0.165,-0.123 -0.252,-0.203l-0.07 -0.076c-0.048,-0.061 -0.077,-0.102 -0.119,-0.168 -0.016,-0.03 -0.039,-0.067 -0.051,-0.098 -0.015,-0.032 -0.028,-0.066 -0.038,-0.099 -0.011,-0.037 -0.02,-0.071 -0.026,-0.104 -0.007,-0.033 -0.012,-0.071 -0.016,-0.114 -0.004,-0.044 -0.006,-0.085 -0.006,-0.12 0,-0.049 0.003,-0.098 0.008,-0.147 0.006,-0.05 0.015,-0.097 0.026,-0.141 0.009,-0.039 0.023,-0.079 0.039,-0.12l0.005 -0.013c0.017,-0.042 0.038,-0.083 0.061,-0.122 0.023,-0.04 0.047,-0.077 0.072,-0.109l0.084 -0.099c0.028,-0.029 0.059,-0.059 0.095,-0.089 0.035,-0.03 0.069,-0.056 0.101,-0.077l0.009 -0.006c0.035,-0.023 0.071,-0.045 0.109,-0.065 0.04,-0.023 0.079,-0.042 0.116,-0.058 0.047,-0.02 0.09,-0.037 0.129,-0.05 0.073,-0.022 0.134,-0.038 0.202,-0.054l0 -0.362c0,-0.161 0.13,-0.291 0.29,-0.291 0.161,0 0.291,0.13 0.291,0.291l0 0.308c0.064,0.002 0.127,0.005 0.188,0.009 0.091,0.006 0.176,0.016 0.254,0.029 0.054,0.008 0.105,0.019 0.153,0.031l0.011 0.003c0.048,0.013 0.093,0.027 0.133,0.042 0.087,0.029 0.15,0.111 0.15,0.208l0 0.265c0,0.032 -0.007,0.064 -0.022,0.094 -0.052,0.108 -0.182,0.154 -0.29,0.102 -0.035,-0.017 -0.072,-0.033 -0.111,-0.047 -0.038,-0.014 -0.078,-0.027 -0.12,-0.039 -0.071,-0.019 -0.147,-0.034 -0.227,-0.044l-0.007 0c-0.082,-0.01 -0.17,-0.015 -0.262,-0.015l-0.073 0.001c-0.082,0.006 -0.143,0.014 -0.227,0.029l-0.066 0.017c-0.073,0.024 -0.118,0.044 -0.186,0.08 -0.057,0.039 -0.085,0.063 -0.131,0.114l-0.036 0.048c-0.025,0.044 -0.028,0.054 -0.045,0.102l-0.012 0.061c-0.003,0.018 -0.004,0.042 -0.004,0.071 0,0.048 0.004,0.091 0.012,0.127z"/>
   </g>
  </g>
 </g>
</svg>
