<?xml version="1.0" encoding="UTF-8"?>
<!DOCTYPE svg PUBLIC "-//W3C//DTD SVG 1.1//EN" "http://www.w3.org/Graphics/SVG/1.1/DTD/svg11.dtd">
<!-- Creator: CorelDRAW 2018 (64-Bit) -->
<svg xmlns="http://www.w3.org/2000/svg" xml:space="preserve" width="40px" height="40px" version="1.1" style="shape-rendering:geometricPrecision; text-rendering:geometricPrecision; image-rendering:optimizeQuality; fill-rule:evenodd; clip-rule:evenodd"
viewBox="0 0 25.192 25.192"
 xmlns:xlink="http://www.w3.org/1999/xlink">
 <defs>
  <style type="text/css">
   <![CDATA[
    .fil0 {fill:none}
    .fil3 {fill:#EAEDF2}
    .fil1 {fill:white}
    .fil5 {fill:#00F4FF;fill-rule:nonzero}
    .fil4 {fill:gray;fill-rule:nonzero}
    .fil2 {fill:gray;fill-rule:nonzero}
   ]]>
  </style>
 </defs>
 <g id="Layer_x0020_1">
  <metadata id="CorelCorpID_0Corel-Layer"/>
  <g id="_1576236641184">
   <rect class="fil0" width="25.192" height="25.192"/>
   <g>
    <path class="fil1" d="M12.031 21.413c-0.86,0 -0.721,-0.518 -1.078,-1.131 -0.735,-1.259 -2.217,-2.15 -3.809,-2.3 -0.154,-0.014 -0.345,-0.161 -0.323,-0.43 0.242,-2.871 0.49,-5.743 0.725,-8.615 0.01,-0.119 -0.041,-0.336 -0.317,-0.195l-2.481 1.261c-0.374,0.19 -0.857,0.076 -1.073,-0.253l-1.375 -2.096c-0.216,-0.33 -0.086,-0.755 0.288,-0.945 1.737,-0.883 3.475,-1.767 5.213,-2.65 0.465,-0.236 0.863,-0.28 1.397,-0.28l6.569 0c0.534,0 0.932,0.044 1.397,0.28 1.738,0.883 3.475,1.767 5.213,2.65 0.374,0.19 0.504,0.615 0.288,0.945l-1.375 2.096c-0.216,0.329 -0.699,0.443 -1.073,0.253l-2.481 -1.261c-0.276,-0.141 -0.328,0.076 -0.318,0.195 0.236,2.872 0.484,5.744 0.725,8.615 0.023,0.269 -0.168,0.416 -0.322,0.43 -1.592,0.15 -3.075,1.041 -3.809,2.3 -0.357,0.613 -0.218,1.131 -1.078,1.131 -0.301,0 -0.602,0 -0.903,0z"/>
    <path class="fil2" d="M12.031 21.728c-0.838,0 -0.97,-0.354 -1.157,-0.855 -0.049,-0.133 -0.105,-0.282 -0.193,-0.433 -0.34,-0.582 -0.856,-1.081 -1.471,-1.453 -0.624,-0.377 -1.347,-0.622 -2.094,-0.692 -0.164,-0.016 -0.349,-0.106 -0.47,-0.268 -0.096,-0.127 -0.155,-0.296 -0.138,-0.501l0.242 -2.866c0.159,-1.87 0.318,-3.74 0.467,-5.56l-2.327 1.183c-0.255,0.13 -0.546,0.156 -0.809,0.094 -0.27,-0.063 -0.515,-0.22 -0.669,-0.455l-1.375 -2.096c-0.017,-0.025 -0.034,-0.057 -0.054,-0.094 -0.112,-0.221 -0.129,-0.464 -0.063,-0.687 0.065,-0.219 0.209,-0.418 0.419,-0.555 1.558,-0.94 3.656,-1.865 5.32,-2.711 0.26,-0.132 0.504,-0.211 0.759,-0.258 0.251,-0.045 0.5,-0.057 0.78,-0.057l6.569 0c0.28,0 0.529,0.012 0.78,0.057 0.254,0.047 0.499,0.126 0.758,0.258l5.214 2.649c0.034,0.017 0.069,0.038 0.105,0.062 0.212,0.138 0.356,0.336 0.421,0.555 0.066,0.224 0.049,0.467 -0.063,0.688l-0.054 0.093 -1.375 2.096c-0.154,0.235 -0.399,0.392 -0.669,0.455 -0.263,0.062 -0.554,0.036 -0.81,-0.094l-2.327 -1.183c0.15,1.82 0.309,3.69 0.468,5.56l0.242 2.866c0.017,0.205 -0.042,0.374 -0.138,0.501 -0.122,0.162 -0.306,0.252 -0.47,0.268 -0.747,0.07 -1.47,0.315 -2.094,0.692 -0.616,0.372 -1.131,0.871 -1.471,1.454l-0.01 0.015c-0.082,0.145 -0.135,0.288 -0.183,0.417 -0.187,0.501 -0.319,0.855 -1.157,0.855l-0.903 0zm-0.569 -1.074c0.097,0.26 0.166,0.444 0.569,0.444l0.903 0c0.403,0 0.472,-0.184 0.568,-0.444 0.058,-0.155 0.123,-0.328 0.228,-0.512l0.01 -0.019c0.394,-0.674 0.986,-1.25 1.69,-1.675 0.7,-0.423 1.516,-0.699 2.362,-0.778 0.006,-0.001 0.016,-0.007 0.025,-0.019 0.01,-0.014 0.016,-0.037 0.013,-0.073l-0.243 -2.867c-0.161,-1.894 -0.322,-3.79 -0.482,-5.74l0 -0.008c-0.007,-0.084 0.003,-0.197 0.048,-0.299l0.012 -0.027c0.031,-0.062 0.077,-0.12 0.139,-0.166 0.065,-0.048 0.142,-0.08 0.234,-0.088 0.098,-0.008 0.211,0.013 0.339,0.079l2.483 1.26c0.118,0.061 0.256,0.072 0.381,0.043 0.119,-0.028 0.223,-0.093 0.285,-0.187 0.358,-0.546 1.147,-1.607 1.395,-2.13 0.037,-0.073 0.043,-0.153 0.021,-0.226 -0.023,-0.078 -0.078,-0.152 -0.161,-0.206l-0.047 -0.027 -5.211 -2.649c-0.205,-0.104 -0.393,-0.166 -0.587,-0.201 -0.198,-0.036 -0.416,-0.045 -0.669,-0.045l-6.569 0c-0.254,0 -0.471,0.009 -0.669,0.045 -0.194,0.035 -0.382,0.097 -0.587,0.201 -1.377,0.7 -4.117,1.891 -5.258,2.676 -0.083,0.054 -0.138,0.128 -0.161,0.206 -0.022,0.073 -0.016,0.154 0.021,0.227l1.394 2.129c0.062,0.094 0.167,0.159 0.286,0.187 0.125,0.029 0.263,0.018 0.381,-0.043l2.482 -1.26c0.124,-0.063 0.233,-0.085 0.328,-0.08l0.012 0.001c0.092,0.008 0.17,0.04 0.234,0.088 0.062,0.046 0.107,0.103 0.139,0.166 0.055,0.108 0.068,0.234 0.06,0.326 -0.16,1.953 -0.321,3.851 -0.482,5.748l-0.243 2.867c-0.003,0.036 0.003,0.059 0.013,0.073 0.009,0.012 0.018,0.018 0.024,0.019 0.847,0.079 1.662,0.355 2.362,0.778 0.705,0.425 1.297,1.001 1.691,1.675 0.111,0.192 0.178,0.371 0.237,0.531z"/>
    <path class="fil2" d="M8.955 3.464l7.054 0c0.174,0 0.315,0.141 0.315,0.315 0,0.068 -0.022,0.132 -0.059,0.183 -0.47,0.767 -1.044,1.39 -1.688,1.819 -0.639,0.427 -1.348,0.664 -2.095,0.664 -0.747,0 -1.455,-0.237 -2.095,-0.663l-0.016 -0.012c-0.643,-0.433 -1.215,-1.059 -1.684,-1.828 -0.09,-0.148 -0.043,-0.341 0.105,-0.431 0.051,-0.031 0.107,-0.046 0.163,-0.047zm6.465 0.63l-5.875 0c0.35,0.474 0.747,0.865 1.176,1.154l0.016 0.01c0.537,0.358 1.128,0.557 1.745,0.557 0.618,0 1.209,-0.199 1.746,-0.557 0.437,-0.29 0.838,-0.685 1.192,-1.164z"/>
    <polygon class="fil3" points="12.482,7.684 13.407,9.192 15.127,9.606 13.979,10.951 14.117,12.715 12.482,12.039 10.847,12.715 10.986,10.951 9.837,9.606 11.557,9.192 "/>
    <path class="fil4" d="M12.751 7.521l0.856 1.397 1.593 0.382c0.168,0.04 0.273,0.21 0.233,0.378 -0.012,0.05 -0.036,0.095 -0.067,0.131l-1.063 1.247 0.128 1.635c0.013,0.173 -0.116,0.324 -0.289,0.338 -0.06,0.004 -0.116,-0.008 -0.166,-0.032l-1.494 -0.619 -1.515 0.627c-0.161,0.066 -0.344,-0.01 -0.41,-0.171 -0.019,-0.047 -0.026,-0.096 -0.022,-0.143l0.127 -1.635 -1.064 -1.246c-0.112,-0.132 -0.097,-0.33 0.035,-0.443 0.044,-0.037 0.095,-0.061 0.147,-0.07l1.577 -0.379 0.857 -1.398c0.09,-0.148 0.284,-0.195 0.432,-0.105 0.045,0.028 0.08,0.064 0.105,0.106zm0.388 1.835l-0.657 -1.072 -0.656 1.072c-0.043,0.068 -0.111,0.121 -0.196,0.141l-1.222 0.294 0.806 0.943c0.059,0.063 0.093,0.149 0.086,0.242l-0.099 1.253 1.162 -0.481c0.074,-0.03 0.159,-0.032 0.239,0l1.161 0.481 -0.098 -1.253c-0.006,-0.081 0.019,-0.163 0.075,-0.229l0.816 -0.956 -1.208 -0.29c-0.084,-0.017 -0.161,-0.067 -0.209,-0.145z"/>
    <path class="fil5" d="M19.218 15.115c2.087,0 3.779,1.692 3.779,3.779 0,2.087 -1.692,3.779 -3.779,3.779 -2.087,0 -3.779,-1.692 -3.779,-3.779 0,-2.087 1.692,-3.779 3.779,-3.779z"/>
    <path class="fil2" d="M19.218 14.8c1.128,0 2.152,0.459 2.893,1.2l0.002 0.001c0.741,0.742 1.199,1.765 1.199,2.893 0,1.129 -0.459,2.152 -1.2,2.894l-0.002 0.002c-0.741,0.74 -1.764,1.198 -2.892,1.198 -1.129,0 -2.152,-0.458 -2.894,-1.199l-0.002 -0.002c-0.74,-0.741 -1.198,-1.765 -1.198,-2.893 0,-1.129 0.458,-2.153 1.199,-2.893 0.742,-0.742 1.765,-1.201 2.895,-1.201zm2.45 1.644c-0.627,-0.627 -1.493,-1.014 -2.45,-1.014 -0.957,0 -1.824,0.388 -2.45,1.014 -0.627,0.627 -1.014,1.493 -1.014,2.45 0,0.958 0.387,1.824 1.013,2.45 0.627,0.627 1.493,1.014 2.451,1.014 0.957,0 1.823,-0.387 2.449,-1.013 0.627,-0.627 1.015,-1.493 1.015,-2.451 0,-0.957 -0.388,-1.823 -1.014,-2.45z"/>
    <path class="fil2" d="M18.591 17.947c0.007,0.036 0.019,0.07 0.035,0.1l0.028 0.048 0.033 0.045 0.041 0.044c0.059,0.053 0.102,0.086 0.167,0.131 0.109,0.067 0.21,0.119 0.324,0.179 0.256,0.129 0.487,0.245 0.728,0.4l0.096 0.069 0.09 0.073 0.081 0.076c0.058,0.06 0.093,0.102 0.146,0.167l0.06 0.09 0.052 0.095c0.018,0.035 0.032,0.071 0.044,0.105 0.011,0.034 0.021,0.068 0.028,0.101l0.002 0.009c0.007,0.034 0.013,0.072 0.017,0.112l0.001 0.005c0.004,0.044 0.006,0.084 0.006,0.122 0,0.05 -0.003,0.103 -0.008,0.156 -0.005,0.048 -0.013,0.094 -0.022,0.139l-0.002 0.01c-0.012,0.048 -0.025,0.094 -0.041,0.136 -0.014,0.037 -0.032,0.075 -0.054,0.114l-0.005 0.01c-0.023,0.041 -0.047,0.078 -0.07,0.111 -0.025,0.035 -0.054,0.069 -0.084,0.101 -0.031,0.033 -0.063,0.063 -0.096,0.091 -0.036,0.029 -0.071,0.055 -0.106,0.078 -0.04,0.025 -0.079,0.048 -0.114,0.067 -0.04,0.02 -0.081,0.039 -0.121,0.056 -0.045,0.017 -0.088,0.033 -0.129,0.046 -0.078,0.02 -0.139,0.035 -0.21,0.05l0 0.355c0,0.16 -0.13,0.29 -0.29,0.29 -0.161,0 -0.291,-0.13 -0.291,-0.29l0 -0.315c-0.077,-0.006 -0.163,-0.01 -0.235,-0.016 -0.079,-0.01 -0.183,-0.023 -0.256,-0.043 -0.093,-0.02 -0.201,-0.044 -0.288,-0.076 -0.043,-0.015 -0.082,-0.03 -0.115,-0.044l-0.035 -0.016c-0.078,-0.033 -0.133,-0.111 -0.133,-0.201l0 -0.277c0.001,-0.035 0.009,-0.07 0.027,-0.102 0.056,-0.106 0.187,-0.146 0.293,-0.089l0.129 0.065 0.135 0.055c0.181,0.059 0.317,0.088 0.505,0.112 0.037,0.003 0.077,0.005 0.121,0.005 0.074,0 0.141,-0.003 0.2,-0.01 0.06,-0.006 0.116,-0.016 0.167,-0.029 0.05,-0.012 0.096,-0.028 0.138,-0.046 0.038,-0.018 0.072,-0.038 0.103,-0.061l0.005 -0.003c0.029,-0.023 0.055,-0.048 0.077,-0.075 0.02,-0.026 0.038,-0.055 0.053,-0.087 0.015,-0.033 0.027,-0.068 0.034,-0.104 0.008,-0.037 0.012,-0.08 0.012,-0.128 -0.004,-0.082 -0.009,-0.11 -0.033,-0.188 -0.022,-0.044 -0.036,-0.065 -0.063,-0.107 -0.033,-0.041 -0.051,-0.06 -0.089,-0.098l-0.054 -0.047c-0.115,-0.086 -0.194,-0.126 -0.314,-0.201 -0.064,-0.045 -0.22,-0.12 -0.359,-0.188 -0.179,-0.089 -0.334,-0.171 -0.503,-0.279 -0.096,-0.068 -0.164,-0.123 -0.251,-0.203l-0.071 -0.076c-0.048,-0.061 -0.077,-0.102 -0.119,-0.168 -0.016,-0.03 -0.038,-0.067 -0.051,-0.098 -0.015,-0.032 -0.027,-0.066 -0.038,-0.099 -0.011,-0.037 -0.02,-0.071 -0.026,-0.104 -0.006,-0.033 -0.012,-0.071 -0.016,-0.114 -0.004,-0.044 -0.006,-0.085 -0.006,-0.12 0,-0.049 0.003,-0.098 0.009,-0.147 0.005,-0.05 0.014,-0.097 0.025,-0.141 0.01,-0.039 0.023,-0.079 0.039,-0.12l0.005 -0.013c0.017,-0.042 0.038,-0.084 0.061,-0.122 0.024,-0.04 0.048,-0.077 0.072,-0.109l0.085 -0.099c0.027,-0.029 0.059,-0.059 0.094,-0.089 0.035,-0.03 0.069,-0.056 0.101,-0.077l0.009 -0.006c0.035,-0.023 0.072,-0.045 0.109,-0.065 0.041,-0.023 0.08,-0.042 0.116,-0.058 0.047,-0.02 0.09,-0.037 0.129,-0.05 0.073,-0.022 0.134,-0.038 0.202,-0.054l0 -0.362c0,-0.161 0.13,-0.291 0.291,-0.291 0.16,0 0.29,0.13 0.29,0.291l0 0.308c0.065,0.002 0.127,0.005 0.189,0.009 0.09,0.006 0.175,0.016 0.254,0.029 0.053,0.008 0.104,0.019 0.153,0.031l0.011 0.003c0.048,0.013 0.092,0.027 0.132,0.042 0.087,0.029 0.151,0.111 0.151,0.208l0 0.265c-0.001,0.032 -0.008,0.064 -0.022,0.094 -0.052,0.108 -0.182,0.154 -0.29,0.102 -0.036,-0.017 -0.073,-0.033 -0.111,-0.047 -0.039,-0.014 -0.079,-0.027 -0.121,-0.039 -0.071,-0.019 -0.147,-0.034 -0.227,-0.044l-0.007 0c-0.082,-0.01 -0.17,-0.015 -0.262,-0.015l-0.072 0.001c-0.083,0.006 -0.144,0.014 -0.228,0.029l-0.065 0.017c-0.073,0.024 -0.119,0.044 -0.187,0.08 -0.057,0.039 -0.084,0.063 -0.131,0.114l-0.036 0.048c-0.025,0.044 -0.028,0.054 -0.045,0.102l-0.012 0.061c-0.003,0.018 -0.004,0.042 -0.004,0.071 0,0.048 0.004,0.091 0.013,0.127z"/>
   </g>
  </g>
 </g>
</svg>
