<?xml version="1.0" encoding="UTF-8"?>
<!DOCTYPE svg PUBLIC "-//W3C//DTD SVG 1.1//EN" "http://www.w3.org/Graphics/SVG/1.1/DTD/svg11.dtd">
<!-- Creator: CorelDRAW 2018 (64-Bit) -->
<svg xmlns="http://www.w3.org/2000/svg" xml:space="preserve" width="40px" height="40px" version="1.1" style="shape-rendering:geometricPrecision; text-rendering:geometricPrecision; image-rendering:optimizeQuality; fill-rule:evenodd; clip-rule:evenodd"
viewBox="0 0 25.192 25.192"
 xmlns:xlink="http://www.w3.org/1999/xlink">
 <defs>
  <style type="text/css">
   <![CDATA[
    .fil0 {fill:none}
    .fil3 {fill:#00F4FF}
    .fil1 {fill:white}
    .fil2 {fill:gray;fill-rule:nonzero}
   ]]>
  </style>
 </defs>
 <g id="Layer_x0020_1">
  <metadata id="CorelCorpID_0Corel-Layer"/>
  <g id="_1576234168128">
   <rect class="fil0" width="25.192" height="25.192"/>
   <g>
    <path class="fil1" d="M4.405 3.149l13.946 0c0.187,0 0.341,0.153 0.341,0.341l0 16.384c0,0.187 -0.154,0.341 -0.341,0.341l-13.946 0c-0.188,0 -0.341,-0.154 -0.341,-0.341l0 -16.384c0,-0.188 0.153,-0.341 0.341,-0.341z"/>
    <path class="fil2" d="M4.405 2.834l13.946 0c0.18,0 0.345,0.074 0.463,0.192 0.119,0.119 0.193,0.283 0.193,0.464l0 16.384c0,0.18 -0.074,0.345 -0.193,0.463 -0.118,0.119 -0.283,0.193 -0.463,0.193l-13.946 0c-0.18,0 -0.344,-0.074 -0.463,-0.193 -0.119,-0.118 -0.193,-0.283 -0.193,-0.463l0 -16.384c0,-0.181 0.074,-0.345 0.192,-0.464 0.119,-0.118 0.283,-0.192 0.464,-0.192zm13.946 0.63l-13.946 0c-0.007,0 -0.014,0.003 -0.019,0.008 -0.004,0.004 -0.007,0.011 -0.007,0.018l0 16.384c0,0.007 0.003,0.013 0.007,0.018 0.005,0.005 0.011,0.008 0.019,0.008l13.946 0c0.007,0 0.013,-0.004 0.018,-0.008 0.005,-0.005 0.008,-0.011 0.008,-0.018l0 -16.384c0,-0.007 -0.003,-0.014 -0.008,-0.018 -0.005,-0.005 -0.011,-0.008 -0.018,-0.008z"/>
    <path class="fil2" d="M6.122 6.549c-0.174,0 -0.315,-0.141 -0.315,-0.315 0,-0.174 0.141,-0.315 0.315,-0.315l2.917 0c0.174,0 0.315,0.141 0.315,0.315 0,0.174 -0.141,0.315 -0.315,0.315l-2.917 0z"/>
    <path class="fil2" d="M9.989 9.368c-0.174,0 -0.315,-0.141 -0.315,-0.315 0,-0.174 0.141,-0.315 0.315,-0.315l1.943 0c0.174,0 0.315,0.141 0.315,0.315 0,0.174 -0.141,0.315 -0.315,0.315l-1.943 0z"/>
    <path class="fil2" d="M9.748 10.482c-0.059,0.163 -0.239,0.248 -0.402,0.189 -0.163,-0.059 -0.247,-0.239 -0.189,-0.402l1.508 -4.143c0.059,-0.163 0.24,-0.247 0.403,-0.188 0.091,0.033 0.157,0.104 0.188,0.188l1.508 4.143c0.059,0.163 -0.026,0.343 -0.189,0.402 -0.163,0.059 -0.343,-0.026 -0.402,-0.189l-1.212 -3.331 -1.213 3.331z"/>
    <path class="fil2" d="M7.896 10.376c0,0.173 -0.141,0.314 -0.315,0.314 -0.174,0 -0.315,-0.141 -0.315,-0.314l0 -4.142c0,-0.174 0.141,-0.315 0.315,-0.315 0.174,0 0.315,0.141 0.315,0.315l0 4.142z"/>
    <path class="fil2" d="M16.896 10.205c0.095,0.145 0.053,0.339 -0.092,0.434 -0.145,0.094 -0.34,0.053 -0.434,-0.092l-2.69 -4.143c-0.095,-0.145 -0.053,-0.34 0.092,-0.434 0.145,-0.094 0.34,-0.053 0.434,0.092l2.69 4.143z"/>
    <path class="fil2" d="M14.206 10.547c-0.094,0.145 -0.289,0.186 -0.434,0.092 -0.145,-0.095 -0.187,-0.289 -0.092,-0.434l2.69 -4.143c0.094,-0.145 0.289,-0.186 0.434,-0.092 0.145,0.094 0.187,0.289 0.092,0.434l-2.69 4.143z"/>
    <path class="fil2" d="M6.122 13.442c-0.174,0 -0.315,-0.141 -0.315,-0.315 0,-0.174 0.141,-0.315 0.315,-0.315l5.831 0c0.174,0 0.315,0.141 0.315,0.315 0,0.174 -0.141,0.315 -0.315,0.315l-5.831 0z"/>
    <path class="fil2" d="M6.122 16.194c-0.174,0 -0.315,-0.141 -0.315,-0.315 0,-0.174 0.141,-0.315 0.315,-0.315l2.643 0c0.174,0 0.315,0.141 0.315,0.315 0,0.174 -0.141,0.315 -0.315,0.315l-2.643 0z"/>
    <path class="fil3" d="M14.486 13.725l6.357 0c0.157,0 0.285,0.128 0.285,0.285l0 7.748c0,0.157 -0.128,0.285 -0.285,0.285l-6.357 0c-0.157,0 -0.285,-0.128 -0.285,-0.285l0 -7.748c0,-0.157 0.128,-0.285 0.285,-0.285z"/>
    <path class="fil2" d="M14.486 13.41l6.357 0c0.165,0 0.316,0.068 0.424,0.176 0.109,0.109 0.176,0.259 0.176,0.424l0 7.748c0,0.164 -0.067,0.314 -0.176,0.423 -0.11,0.11 -0.26,0.177 -0.424,0.177l-6.357 0c-0.165,0 -0.316,-0.067 -0.424,-0.176 -0.109,-0.108 -0.176,-0.259 -0.176,-0.424l0 -7.748c0,-0.163 0.067,-0.314 0.176,-0.423 0.11,-0.109 0.26,-0.177 0.424,-0.177zm6.328 0.63l-6.299 0 0 7.688 6.299 0 0 -7.688z"/>
    <path class="fil1" d="M15.258 14.671l4.813 0c0.063,0 0.115,0.052 0.115,0.116l0 1.726c0,0.064 -0.052,0.115 -0.115,0.115l-4.813 0c-0.063,0 -0.115,-0.051 -0.115,-0.115l0 -1.726c0,-0.064 0.052,-0.116 0.115,-0.116z"/>
    <path class="fil2" d="M15.258 14.356l4.813 0c0.117,0 0.225,0.049 0.303,0.127l0.006 0.005c0.075,0.078 0.121,0.184 0.121,0.299l0 1.726c0,0.117 -0.048,0.225 -0.126,0.303 -0.079,0.079 -0.187,0.127 -0.304,0.127l-4.813 0c-0.117,0 -0.224,-0.048 -0.303,-0.126 -0.079,-0.079 -0.127,-0.187 -0.127,-0.304l0 -1.726c0,-0.117 0.048,-0.225 0.126,-0.303l0.006 -0.006c0.078,-0.075 0.183,-0.122 0.298,-0.122zm4.613 0.63l-4.413 0 0 1.328 4.413 0 0 -1.328z"/>
    <path class="fil2" d="M15.75 18.645c-0.173,0 -0.314,-0.141 -0.314,-0.315 0,-0.174 0.141,-0.315 0.314,-0.315l1.066 0c0.174,0 0.315,0.141 0.315,0.315 0,0.174 -0.141,0.315 -0.315,0.315l-1.066 0z"/>
    <path class="fil2" d="M15.75 20.433c-0.173,0 -0.314,-0.141 -0.314,-0.315 0,-0.174 0.141,-0.315 0.314,-0.315l1.066 0c0.174,0 0.315,0.141 0.315,0.315 0,0.174 -0.141,0.315 -0.315,0.315l-1.066 0z"/>
    <path class="fil2" d="M18.513 18.645c-0.174,0 -0.315,-0.141 -0.315,-0.315 0,-0.174 0.141,-0.315 0.315,-0.315l1.065 0c0.174,0 0.315,0.141 0.315,0.315 0,0.174 -0.141,0.315 -0.315,0.315l-1.065 0z"/>
    <path class="fil2" d="M18.513 20.433c-0.174,0 -0.315,-0.141 -0.315,-0.315 0,-0.174 0.141,-0.315 0.315,-0.315l1.065 0c0.174,0 0.315,0.141 0.315,0.315 0,0.174 -0.141,0.315 -0.315,0.315l-1.065 0z"/>
   </g>
  </g>
 </g>
</svg>
