<?xml version="1.0" encoding="UTF-8"?>
<!DOCTYPE svg PUBLIC "-//W3C//DTD SVG 1.1//EN" "http://www.w3.org/Graphics/SVG/1.1/DTD/svg11.dtd">
<!-- Creator: CorelDRAW 2018 (64-Bit) -->
<svg xmlns="http://www.w3.org/2000/svg" xml:space="preserve" width="40px" height="40px" version="1.1" style="shape-rendering:geometricPrecision; text-rendering:geometricPrecision; image-rendering:optimizeQuality; fill-rule:evenodd; clip-rule:evenodd"
viewBox="0 0 25.192 25.192"
 xmlns:xlink="http://www.w3.org/1999/xlink">
 <defs>
  <style type="text/css">
   <![CDATA[
    .fil0 {fill:none}
    .fil4 {fill:#00F4FF}
    .fil1 {fill:#EAEDF2}
    .fil3 {fill:white}
    .fil2 {fill:gray;fill-rule:nonzero}
    .fil5 {fill:gray;fill-rule:nonzero}
   ]]>
  </style>
 </defs>
 <g id="Layer_x0020_1">
  <metadata id="CorelCorpID_0Corel-Layer"/>
  <g id="_1576238820928">
   <rect class="fil0" width="25.192" height="25.192"/>
   <g>
    <path class="fil1" d="M10.274 8.893l10.86 0c1.189,0 2.161,0.972 2.161,2.161l0 6.063c0,1.189 -0.972,2.161 -2.161,2.161l0 2.765 -2.36 -2.765 -8.5 0c-1.189,0 -2.161,-0.972 -2.161,-2.161l0 -6.063c0,-1.189 0.972,-2.161 2.161,-2.161z"/>
    <path class="fil2" d="M10.274 8.578l10.86 0c0.68,0 1.299,0.279 1.748,0.727 0.449,0.45 0.728,1.069 0.728,1.749l0 6.063c0,0.681 -0.279,1.3 -0.727,1.748 -0.379,0.379 -0.879,0.637 -1.434,0.708l0 2.47c0,0.174 -0.141,0.315 -0.315,0.315 -0.104,0 -0.197,-0.051 -0.254,-0.129l-2.25 -2.636 -8.356 0c-0.681,0 -1.3,-0.278 -1.749,-0.727l-0.017 -0.019c-0.439,-0.447 -0.71,-1.059 -0.71,-1.73l0 -6.063c0,-0.681 0.279,-1.3 0.727,-1.749 0.449,-0.448 1.068,-0.727 1.749,-0.727zm10.86 0.63l-10.86 0c-0.507,0 -0.969,0.208 -1.303,0.543 -0.335,0.334 -0.543,0.796 -0.543,1.303l0 6.063c0,0.501 0.201,0.957 0.527,1.289l0.016 0.015c0.334,0.334 0.796,0.542 1.303,0.542l8.5 0c0.088,0.002 0.176,0.039 0.238,0.111l1.807 2.117 0 -1.913c0,-0.173 0.141,-0.315 0.315,-0.315 0.508,0 0.97,-0.207 1.304,-0.541 0.334,-0.335 0.542,-0.797 0.542,-1.305l0 -6.063c0,-0.508 -0.208,-0.97 -0.542,-1.304 -0.334,-0.334 -0.796,-0.542 -1.304,-0.542z"/>
    <path class="fil3" d="M16.407 4.408l-12.102 0c-1.324,0 -2.408,1.084 -2.408,2.408l0 6.757c0,1.324 1.084,2.408 2.408,2.408l0 3.081 2.63 -3.081 9.472 0c1.324,0 2.408,-1.084 2.408,-2.408l0 -6.757c0,-1.324 -1.084,-2.408 -2.408,-2.408z"/>
    <path class="fil2" d="M16.407 4.723l-12.102 0c-0.575,0 -1.099,0.236 -1.478,0.615l-0.016 0.015c-0.37,0.377 -0.599,0.895 -0.599,1.463l0 6.757c0,0.576 0.235,1.1 0.614,1.478 0.38,0.379 0.904,0.615 1.479,0.615 0.174,0 0.315,0.141 0.315,0.315l0 2.228 2.077 -2.432c0.062,-0.073 0.15,-0.11 0.238,-0.11l9.472 -0.001c0.576,0 1.099,-0.235 1.478,-0.614 0.38,-0.379 0.615,-0.903 0.615,-1.479l0 -6.757c0,-0.576 -0.235,-1.099 -0.614,-1.478 -0.38,-0.38 -0.903,-0.615 -1.479,-0.615zm-12.102 -0.63l12.102 0c0.747,0 1.427,0.306 1.921,0.799l0.001 0.002c0.494,0.494 0.801,1.175 0.801,1.922l0 6.757c0,0.747 -0.306,1.427 -0.799,1.921l-0.002 0.002c-0.494,0.494 -1.175,0.8 -1.922,0.8l-9.328 0 -2.52 2.952c-0.057,0.078 -0.15,0.129 -0.254,0.129 -0.174,0 -0.315,-0.141 -0.315,-0.315l0 -2.784c-0.624,-0.073 -1.185,-0.359 -1.608,-0.782 -0.493,-0.494 -0.8,-1.175 -0.8,-1.923l0 -6.757c0,-0.738 0.299,-1.412 0.782,-1.904l0.018 -0.019c0.493,-0.493 1.174,-0.8 1.923,-0.8z"/>
    <path class="fil4" d="M6.278 9.177c0.562,0 1.018,0.456 1.018,1.018 0,0.562 -0.456,1.017 -1.018,1.017 -0.562,0 -1.017,-0.455 -1.017,-1.017 0,-0.562 0.455,-1.018 1.017,-1.018z"/>
    <path class="fil5" d="M6.278 8.862c0.368,0 0.701,0.15 0.943,0.391 0.24,0.241 0.39,0.574 0.39,0.942 0,0.368 -0.149,0.701 -0.391,0.942 -0.24,0.241 -0.574,0.39 -0.942,0.39 -0.367,0 -0.701,-0.149 -0.942,-0.39 -0.241,-0.241 -0.39,-0.574 -0.39,-0.942 0,-0.366 0.149,-0.699 0.39,-0.941l0.002 -0.002c0.242,-0.241 0.574,-0.39 0.94,-0.39zm0.497 0.836c-0.127,-0.127 -0.303,-0.206 -0.497,-0.206 -0.195,0 -0.37,0.079 -0.497,0.205 -0.127,0.127 -0.205,0.303 -0.205,0.498 0,0.194 0.078,0.37 0.205,0.497 0.127,0.127 0.303,0.205 0.497,0.205 0.194,0 0.37,-0.078 0.497,-0.205 0.127,-0.127 0.206,-0.303 0.206,-0.497 0,-0.194 -0.079,-0.37 -0.206,-0.497z"/>
    <path class="fil4" d="M10.356 9.177c0.562,0 1.017,0.456 1.017,1.018 0,0.562 -0.455,1.017 -1.017,1.017 -0.562,0 -1.018,-0.455 -1.018,-1.017 0,-0.562 0.456,-1.018 1.018,-1.018z"/>
    <path class="fil5" d="M10.356 8.862c0.367,0 0.701,0.15 0.942,0.391 0.241,0.241 0.39,0.574 0.39,0.942 0,0.368 -0.149,0.701 -0.39,0.942 -0.241,0.241 -0.575,0.39 -0.942,0.39 -0.368,0 -0.702,-0.149 -0.942,-0.39 -0.242,-0.241 -0.391,-0.574 -0.391,-0.942 0,-0.366 0.149,-0.699 0.391,-0.941l0.002 -0.002c0.241,-0.241 0.574,-0.39 0.94,-0.39zm0.497 0.836c-0.127,-0.127 -0.303,-0.206 -0.497,-0.206 -0.195,0 -0.371,0.079 -0.497,0.205 -0.128,0.127 -0.206,0.303 -0.206,0.498 0,0.194 0.079,0.37 0.206,0.497 0.127,0.127 0.303,0.205 0.497,0.205 0.194,0 0.37,-0.078 0.497,-0.205 0.127,-0.127 0.205,-0.303 0.205,-0.497 0,-0.194 -0.078,-0.37 -0.205,-0.497z"/>
    <path class="fil4" d="M14.433 9.177c0.562,0 1.018,0.456 1.018,1.018 0,0.562 -0.456,1.017 -1.018,1.017 -0.562,0 -1.018,-0.455 -1.018,-1.017 0,-0.562 0.456,-1.018 1.018,-1.018z"/>
    <path class="fil5" d="M14.433 8.862c0.368,0 0.701,0.15 0.942,0.391 0.241,0.241 0.39,0.574 0.39,0.942 0,0.368 -0.149,0.701 -0.39,0.942 -0.241,0.241 -0.574,0.39 -0.942,0.39 -0.368,0 -0.701,-0.149 -0.942,-0.39 -0.241,-0.241 -0.391,-0.574 -0.391,-0.942 0,-0.366 0.15,-0.699 0.391,-0.941l0.002 -0.002c0.241,-0.241 0.574,-0.39 0.94,-0.39zm0.497 0.836c-0.127,-0.127 -0.303,-0.206 -0.497,-0.206 -0.195,0 -0.371,0.079 -0.497,0.205 -0.127,0.127 -0.206,0.303 -0.206,0.498 0,0.194 0.079,0.37 0.206,0.497 0.127,0.127 0.303,0.205 0.497,0.205 0.194,0 0.37,-0.078 0.497,-0.205 0.127,-0.127 0.206,-0.303 0.206,-0.497 0,-0.194 -0.079,-0.37 -0.206,-0.497z"/>
   </g>
  </g>
 </g>
</svg>
