<?xml version="1.0" encoding="UTF-8"?>
<!DOCTYPE svg PUBLIC "-//W3C//DTD SVG 1.1//EN" "http://www.w3.org/Graphics/SVG/1.1/DTD/svg11.dtd">
<!-- Creator: CorelDRAW 2018 (64-Bit) -->
<svg xmlns="http://www.w3.org/2000/svg" xml:space="preserve" width="40px" height="40px" version="1.1" style="shape-rendering:geometricPrecision; text-rendering:geometricPrecision; image-rendering:optimizeQuality; fill-rule:evenodd; clip-rule:evenodd"
viewBox="0 0 25.192 25.192"
 xmlns:xlink="http://www.w3.org/1999/xlink">
 <defs>
  <style type="text/css">
   <![CDATA[
    .fil0 {fill:none}
    .fil3 {fill:#00F4FF}
    .fil1 {fill:white}
    .fil4 {fill:gray;fill-rule:nonzero}
    .fil2 {fill:gray;fill-rule:nonzero}
   ]]>
  </style>
 </defs>
 <g id="Layer_x0020_1">
  <metadata id="CorelCorpID_0Corel-Layer"/>
  <g id="_1576234928000">
   <rect class="fil0" width="25.192" height="25.192"/>
   <g>
    <path class="fil1" d="M3.332 5.172l18.528 0c0.427,0 0.776,0.349 0.776,0.776l0 11.296c0,0.427 -0.349,0.776 -0.776,0.776l-18.528 0c-0.427,0 -0.776,-0.349 -0.776,-0.776l0 -11.296c0,-0.427 0.349,-0.776 0.776,-0.776z"/>
    <path class="fil2" d="M3.332 4.865l18.528 0c0.298,0 0.569,0.122 0.765,0.318 0.196,0.196 0.318,0.467 0.318,0.765l0 11.296c0,0.298 -0.122,0.57 -0.318,0.765 -0.196,0.196 -0.467,0.319 -0.765,0.319l-18.528 0c-0.298,0 -0.569,-0.123 -0.765,-0.319 -0.196,-0.195 -0.318,-0.467 -0.318,-0.765l0 -11.296c0,-0.298 0.122,-0.569 0.318,-0.765 0.196,-0.196 0.467,-0.318 0.765,-0.318zm18.528 0.614l-18.528 0c-0.128,0 -0.246,0.053 -0.331,0.138 -0.085,0.085 -0.138,0.202 -0.138,0.331l0 11.296c0,0.129 0.053,0.246 0.138,0.331 0.085,0.085 0.203,0.138 0.331,0.138l18.528 0c0.129,0 0.246,-0.053 0.331,-0.138 0.085,-0.085 0.138,-0.202 0.138,-0.331l0 -11.296c0,-0.129 -0.053,-0.246 -0.138,-0.331 -0.085,-0.085 -0.202,-0.138 -0.331,-0.138z"/>
    <path class="fil1" d="M4.392 6.726l16.408 0c0.097,0 0.176,0.079 0.176,0.176l0 9.389c0,0.096 -0.079,0.176 -0.176,0.176l-16.408 0c-0.097,0 -0.176,-0.08 -0.176,-0.176l0 -9.389c0,-0.097 0.079,-0.176 0.176,-0.176z"/>
    <path class="fil2" d="M4.392 6.419l16.408 0c0.133,0 0.254,0.054 0.342,0.142 0.087,0.087 0.141,0.208 0.141,0.341l0 9.389c0,0.133 -0.054,0.254 -0.141,0.341 -0.088,0.088 -0.209,0.142 -0.342,0.142l-16.408 0c-0.133,0 -0.254,-0.054 -0.341,-0.142 -0.087,-0.087 -0.142,-0.208 -0.142,-0.341l0 -9.389c0,-0.133 0.055,-0.254 0.142,-0.341 0.087,-0.088 0.208,-0.142 0.341,-0.142zm16.277 0.614l-16.146 0 0 9.126 16.146 0 0 -9.126z"/>
    <path class="fil1" d="M1.104 18.02l22.984 0c0.265,0 0.482,0.217 0.482,0.483l0 1.034c0,0.266 -0.217,0.483 -0.482,0.483l-22.984 0c-0.265,0 -0.482,-0.217 -0.482,-0.483l0 -1.034c0,-0.266 0.217,-0.483 0.482,-0.483z"/>
    <path class="fil2" d="M1.104 17.713l22.984 0c0.218,0 0.415,0.089 0.558,0.232l0.019 0.022c0.132,0.141 0.212,0.33 0.212,0.536l0 1.034c0,0.216 -0.088,0.414 -0.231,0.557l-0.002 0.002c-0.143,0.142 -0.34,0.231 -0.556,0.231l-22.984 0c-0.216,0 -0.413,-0.089 -0.557,-0.233 -0.143,-0.142 -0.232,-0.339 -0.232,-0.557l0 -1.034c0,-0.218 0.089,-0.415 0.232,-0.558 0.142,-0.143 0.34,-0.232 0.557,-0.232zm22.984 0.614l-22.984 0c-0.048,0 -0.091,0.02 -0.123,0.052 -0.032,0.032 -0.052,0.076 -0.052,0.124l0 1.034c0,0.048 0.02,0.092 0.052,0.124 0.031,0.032 0.075,0.052 0.123,0.052l22.984 0c0.049,0 0.093,-0.02 0.124,-0.051 0.032,-0.032 0.051,-0.076 0.051,-0.125l0 -1.034c0,-0.044 -0.015,-0.084 -0.041,-0.114l-0.01 -0.01c-0.032,-0.032 -0.076,-0.052 -0.124,-0.052z"/>
    <path class="fil2" d="M11.809 19.327c-0.169,0 -0.307,-0.137 -0.307,-0.307 0,-0.169 0.138,-0.307 0.307,-0.307l1.574 0c0.17,0 0.307,0.138 0.307,0.307 0,0.17 -0.137,0.307 -0.307,0.307l-1.574 0z"/>
    <path class="fil3" d="M7.069 9.576l3.853 0c0.04,0 0.072,0.033 0.072,0.073l0 3.895c0,0.04 -0.032,0.072 -0.072,0.072l-3.853 0c-0.039,0 -0.072,-0.032 -0.072,-0.072l0 -3.895c0,-0.04 0.033,-0.073 0.072,-0.073z"/>
    <path class="fil2" d="M7.069 9.269l3.853 0c0.104,0 0.2,0.043 0.268,0.112 0.069,0.068 0.111,0.164 0.111,0.268l0 3.895c0,0.105 -0.043,0.2 -0.111,0.268 -0.069,0.069 -0.164,0.111 -0.268,0.111l-3.853 0c-0.104,0 -0.199,-0.042 -0.268,-0.111 -0.068,-0.068 -0.111,-0.163 -0.111,-0.268l0 -3.895c0,-0.104 0.042,-0.2 0.111,-0.268 0.069,-0.069 0.164,-0.112 0.268,-0.112zm3.618 0.615l-3.383 0 0 3.425 3.383 0 0 -3.425z"/>
    <path class="fil4" d="M13.071 10.764c-0.17,0 -0.307,-0.137 -0.307,-0.307 0,-0.169 0.137,-0.307 0.307,-0.307l5.124 0c0.169,0 0.307,0.138 0.307,0.307 0,0.17 -0.138,0.307 -0.307,0.307l-5.124 0z"/>
    <path class="fil4" d="M13.071 13.043c-0.17,0 -0.307,-0.138 -0.307,-0.307 0,-0.17 0.137,-0.307 0.307,-0.307l2.937 0c0.17,0 0.307,0.137 0.307,0.307 0,0.169 -0.137,0.307 -0.307,0.307l-2.937 0z"/>
   </g>
  </g>
 </g>
</svg>
