<?xml version="1.0" encoding="UTF-8"?>
<!DOCTYPE svg PUBLIC "-//W3C//DTD SVG 1.1//EN" "http://www.w3.org/Graphics/SVG/1.1/DTD/svg11.dtd">
<!-- Creator: CorelDRAW 2018 (64-Bit) -->
<svg xmlns="http://www.w3.org/2000/svg" xml:space="preserve" width="40px" height="40px" version="1.1" style="shape-rendering:geometricPrecision; text-rendering:geometricPrecision; image-rendering:optimizeQuality; fill-rule:evenodd; clip-rule:evenodd"
viewBox="0 0 2.474 2.474"
 xmlns:xlink="http://www.w3.org/1999/xlink">
 <defs>
  <style type="text/css">
   <![CDATA[
    .fil0 {fill:none}
    .fil4 {fill:#00F4FF}
    .fil1 {fill:white}
    .fil3 {fill:#00F4FF;fill-rule:nonzero}
    .fil2 {fill:gray;fill-rule:nonzero}
   ]]>
  </style>
 </defs>
 <g id="Layer_x0020_1">
  <metadata id="CorelCorpID_0Corel-Layer"/>
  <g id="_1576238132960">
   <rect class="fil0" width="2.474" height="2.474"/>
   <g>
    <path class="fil1" d="M0.114 0.474l2.246 0c0.029,0 0.052,0.024 0.052,0.053l0 0.456c-0.116,0 -0.21,0.114 -0.21,0.254 0,0.14 0.094,0.254 0.21,0.254l0 0.455c0,0.03 -0.023,0.053 -0.052,0.053l-2.246 0c-0.029,0 -0.053,-0.023 -0.053,-0.053l0 -0.455c0.117,0 0.211,-0.114 0.211,-0.254 0,-0.14 -0.094,-0.254 -0.211,-0.254l0 -0.456c0,-0.029 0.024,-0.053 0.053,-0.053z"/>
    <path class="fil2" d="M0.114 0.444l2.246 0c0.022,0 0.043,0.009 0.058,0.025 0.016,0.015 0.025,0.035 0.025,0.058l0 0.456c0,0.017 -0.014,0.03 -0.031,0.03 -0.048,0 -0.092,0.025 -0.125,0.064 -0.034,0.04 -0.054,0.097 -0.054,0.16 0,0.063 0.02,0.12 0.054,0.16 0.033,0.039 0.077,0.064 0.125,0.064 0.017,0 0.031,0.013 0.031,0.03l0 0.455c0,0.023 -0.009,0.044 -0.025,0.059 -0.015,0.016 -0.036,0.025 -0.058,0.025l-2.246 0c-0.022,0 -0.043,-0.009 -0.058,-0.025l-0.001 0c-0.015,-0.015 -0.024,-0.036 -0.024,-0.059l0 -0.455c0,-0.017 0.014,-0.03 0.03,-0.03 0.049,0 0.093,-0.025 0.126,-0.064 0.033,-0.04 0.054,-0.097 0.054,-0.16 0,-0.063 -0.021,-0.12 -0.054,-0.16 -0.033,-0.039 -0.077,-0.064 -0.126,-0.064 -0.016,0 -0.03,-0.013 -0.03,-0.03l0 -0.456c0,-0.023 0.009,-0.043 0.024,-0.059 0.016,-0.015 0.036,-0.024 0.059,-0.024zm2.246 0.061l-2.246 0c-0.006,0 -0.011,0.002 -0.015,0.007 -0.005,0.004 -0.007,0.009 -0.007,0.015l0 0.428c0.055,0.008 0.105,0.038 0.142,0.083 0.042,0.051 0.068,0.121 0.068,0.199 0,0.077 -0.026,0.148 -0.068,0.199 -0.037,0.045 -0.087,0.075 -0.142,0.083l0 0.427c0,0.007 0.002,0.012 0.006,0.016 0.005,0.004 0.01,0.007 0.016,0.007l2.246 0c0.006,0 0.011,-0.003 0.015,-0.007 0.004,-0.004 0.007,-0.009 0.007,-0.016l0 -0.427c-0.055,-0.008 -0.105,-0.038 -0.142,-0.083 -0.042,-0.051 -0.068,-0.122 -0.068,-0.199 0,-0.078 0.026,-0.148 0.068,-0.199 0.037,-0.045 0.087,-0.075 0.142,-0.083l0 -0.428c0,-0.006 -0.003,-0.011 -0.007,-0.015 -0.004,-0.005 -0.009,-0.007 -0.015,-0.007z"/>
    <path class="fil2" d="M1.939 0.474c0,-0.012 -0.006,-0.021 -0.016,-0.027 -0.021,-0.01 -0.045,0.005 -0.045,0.027l0 0.061c0,0.013 0.007,0.022 0.017,0.028 0.021,0.01 0.044,-0.005 0.044,-0.028l0 -0.061zm-0.061 1.525c0,0.013 0.007,0.022 0.017,0.028 0.021,0.01 0.044,-0.005 0.044,-0.028l0 -0.061c0,-0.012 -0.006,-0.021 -0.016,-0.027 -0.021,-0.01 -0.045,0.005 -0.045,0.027l0 0.061zm0 -0.244c0,0.013 0.007,0.022 0.017,0.028 0.021,0.01 0.044,-0.005 0.044,-0.028l0 -0.122c0,-0.012 -0.006,-0.021 -0.016,-0.027 -0.021,-0.01 -0.045,0.005 -0.045,0.027l0 0.122zm0 -0.305c0,0.013 0.007,0.022 0.017,0.028 0.021,0.01 0.044,-0.005 0.044,-0.028l0 -0.122c0,-0.012 -0.006,-0.021 -0.016,-0.027 -0.021,-0.01 -0.045,0.005 -0.045,0.027l0 0.122zm0 -0.305c0,0.013 0.007,0.022 0.017,0.028 0.021,0.01 0.044,-0.005 0.044,-0.028l0 -0.122c0,-0.012 -0.006,-0.021 -0.016,-0.027 -0.021,-0.01 -0.045,0.005 -0.045,0.027l0 0.122zm0 -0.305c0,0.013 0.007,0.022 0.017,0.028 0.021,0.01 0.044,-0.005 0.044,-0.028l0 -0.122c0,-0.012 -0.006,-0.021 -0.016,-0.027 -0.021,-0.01 -0.045,0.005 -0.045,0.027l0 0.122z"/>
    <path class="fil3" d="M0.899 0.933c0,0.084 -0.068,0.152 -0.152,0.152 -0.084,0 -0.153,-0.068 -0.153,-0.152 0,-0.084 0.069,-0.153 0.153,-0.153 0.084,0 0.152,0.069 0.152,0.153z"/>
    <path class="fil2" d="M0.93 0.933c0,0.05 -0.021,0.096 -0.054,0.129 -0.033,0.033 -0.079,0.054 -0.129,0.054 -0.051,0 -0.096,-0.021 -0.129,-0.054 -0.034,-0.033 -0.054,-0.079 -0.054,-0.129 0,-0.051 0.02,-0.096 0.053,-0.13l0.002 -0.001c0.033,-0.032 0.078,-0.052 0.128,-0.052 0.05,0 0.096,0.02 0.129,0.053 0.033,0.034 0.054,0.079 0.054,0.13zm-0.097 0.086c0.022,-0.022 0.036,-0.052 0.036,-0.086 0,-0.034 -0.014,-0.064 -0.036,-0.086 -0.022,-0.022 -0.052,-0.036 -0.086,-0.036 -0.033,0 -0.063,0.013 -0.085,0.034l-0.001 0.002c-0.022,0.022 -0.036,0.052 -0.036,0.086 0,0.034 0.014,0.064 0.036,0.086 0.022,0.022 0.052,0.036 0.086,0.036 0.034,0 0.064,-0.014 0.086,-0.036z"/>
    <path class="fil3" d="M1.461 1.541c0,0.084 -0.069,0.152 -0.153,0.152 -0.084,0 -0.152,-0.068 -0.152,-0.152 0,-0.084 0.068,-0.153 0.152,-0.153 0.084,0 0.153,0.069 0.153,0.153z"/>
    <path class="fil2" d="M1.491 1.541c0,0.05 -0.02,0.096 -0.054,0.129l0 0c-0.033,0.034 -0.079,0.054 -0.129,0.054 -0.05,0 -0.096,-0.02 -0.129,-0.054l0 0c-0.033,-0.033 -0.054,-0.079 -0.054,-0.129 0,-0.05 0.021,-0.096 0.054,-0.129l0 0c0.033,-0.034 0.079,-0.054 0.129,-0.054 0.05,0 0.096,0.02 0.129,0.054l0.001 0c0.033,0.033 0.053,0.079 0.053,0.129zm-0.097 0.086c0.022,-0.022 0.036,-0.052 0.036,-0.086 0,-0.034 -0.014,-0.064 -0.036,-0.086 -0.022,-0.022 -0.052,-0.036 -0.086,-0.036 -0.034,0 -0.064,0.014 -0.086,0.036 -0.022,0.022 -0.036,0.052 -0.036,0.086 0,0.034 0.014,0.064 0.036,0.086 0.022,0.022 0.052,0.036 0.086,0.036 0.034,0 0.064,-0.014 0.086,-0.036z"/>
    <path class="fil4" d="M1.447 0.751l0 0c0.025,0.021 0.028,0.059 0.007,0.084l-0.739 0.88c-0.021,0.025 -0.058,0.028 -0.083,0.007l0 0c-0.025,-0.021 -0.028,-0.058 -0.007,-0.083l0.738 -0.88c0.021,-0.025 0.059,-0.028 0.084,-0.008z"/>
    <path class="fil2" d="M1.466 0.728c0.019,0.016 0.03,0.038 0.032,0.061 0.002,0.023 -0.005,0.046 -0.021,0.065l-0.738 0.881c-0.016,0.019 -0.038,0.029 -0.061,0.031 -0.023,0.002 -0.047,-0.004 -0.066,-0.02l-0.002 -0.003c-0.017,-0.015 -0.027,-0.036 -0.029,-0.058 -0.002,-0.023 0.005,-0.047 0.02,-0.065l0.739 -0.881c0.016,-0.019 0.038,-0.029 0.061,-0.031 0.023,-0.002 0.046,0.004 0.065,0.02zm-0.029 0.066c0,-0.007 -0.004,-0.014 -0.01,-0.019 -0.006,-0.005 -0.013,-0.007 -0.021,-0.007 -0.007,0.001 -0.014,0.004 -0.019,0.01l-0.74 0.881c-0.004,0.006 -0.006,0.014 -0.005,0.021 0,0.006 0.003,0.013 0.008,0.018l0.002 0.002c0.006,0.004 0.014,0.006 0.021,0.006 0.007,-0.001 0.014,-0.004 0.019,-0.01l0.739 -0.881c0.005,-0.006 0.007,-0.013 0.006,-0.021z"/>
   </g>
  </g>
 </g>
</svg>
