<?xml version="1.0" encoding="UTF-8"?>
<!DOCTYPE svg PUBLIC "-//W3C//DTD SVG 1.1//EN" "http://www.w3.org/Graphics/SVG/1.1/DTD/svg11.dtd">
<!-- Creator: CorelDRAW 2018 (64-Bit) -->
<svg xmlns="http://www.w3.org/2000/svg" xml:space="preserve" width="40px" height="40px" version="1.1" style="shape-rendering:geometricPrecision; text-rendering:geometricPrecision; image-rendering:optimizeQuality; fill-rule:evenodd; clip-rule:evenodd"
viewBox="0 0 2.474 2.474"
 xmlns:xlink="http://www.w3.org/1999/xlink">
 <defs>
  <style type="text/css">
   <![CDATA[
    .fil0 {fill:none}
    .fil3 {fill:#00F4FF}
    .fil1 {fill:white}
    .fil2 {fill:gray;fill-rule:nonzero}
   ]]>
  </style>
 </defs>
 <g id="Layer_x0020_1">
  <metadata id="CorelCorpID_0Corel-Layer"/>
  <g id="_1576239574576">
   <rect class="fil0" width="2.474" height="2.474"/>
   <g>
    <path class="fil1" d="M0.114 0.474l2.246 0c0.029,0 0.052,0.024 0.052,0.053l0 0.456c-0.116,0 -0.21,0.114 -0.21,0.254 0,0.14 0.094,0.254 0.21,0.254l0 0.455c0,0.03 -0.023,0.053 -0.052,0.053l-2.246 0c-0.029,0 -0.053,-0.023 -0.053,-0.053l0 -0.455c0.117,0 0.211,-0.114 0.211,-0.254 0,-0.14 -0.094,-0.254 -0.211,-0.254l0 -0.456c0,-0.029 0.024,-0.053 0.053,-0.053z"/>
    <path class="fil2" d="M0.114 0.444l2.246 0c0.022,0 0.043,0.009 0.058,0.025 0.016,0.015 0.025,0.035 0.025,0.058l0 0.456c0,0.017 -0.014,0.03 -0.031,0.03 -0.048,0 -0.092,0.025 -0.125,0.064 -0.034,0.04 -0.054,0.097 -0.054,0.16 0,0.063 0.02,0.12 0.054,0.16 0.033,0.039 0.077,0.064 0.125,0.064 0.017,0 0.031,0.013 0.031,0.03l0 0.455c0,0.023 -0.009,0.044 -0.025,0.059 -0.015,0.016 -0.036,0.025 -0.058,0.025l-2.246 0c-0.022,0 -0.043,-0.009 -0.058,-0.025l-0.001 0c-0.015,-0.015 -0.024,-0.036 -0.024,-0.059l0 -0.455c0,-0.017 0.014,-0.03 0.03,-0.03 0.049,0 0.093,-0.025 0.126,-0.064 0.033,-0.04 0.054,-0.097 0.054,-0.16 0,-0.063 -0.021,-0.12 -0.054,-0.16 -0.033,-0.039 -0.077,-0.064 -0.126,-0.064 -0.016,0 -0.03,-0.013 -0.03,-0.03l0 -0.456c0,-0.023 0.009,-0.043 0.024,-0.059 0.016,-0.015 0.036,-0.024 0.059,-0.024zm2.246 0.061l-2.246 0c-0.006,0 -0.011,0.002 -0.015,0.007 -0.005,0.004 -0.007,0.009 -0.007,0.015l0 0.428c0.055,0.008 0.105,0.038 0.142,0.083 0.042,0.051 0.068,0.121 0.068,0.199 0,0.077 -0.026,0.148 -0.068,0.199 -0.037,0.045 -0.087,0.075 -0.142,0.083l0 0.427c0,0.007 0.002,0.012 0.006,0.016 0.005,0.004 0.01,0.007 0.016,0.007l2.246 0c0.006,0 0.011,-0.003 0.015,-0.007 0.004,-0.004 0.007,-0.009 0.007,-0.016l0 -0.427c-0.055,-0.008 -0.105,-0.038 -0.142,-0.083 -0.042,-0.051 -0.068,-0.122 -0.068,-0.199 0,-0.078 0.026,-0.148 0.068,-0.199 0.037,-0.045 0.087,-0.075 0.142,-0.083l0 -0.428c0,-0.006 -0.003,-0.011 -0.007,-0.015 -0.004,-0.005 -0.009,-0.007 -0.015,-0.007z"/>
    <path class="fil2" d="M1.939 0.474c0,-0.012 -0.006,-0.021 -0.016,-0.027 -0.021,-0.01 -0.045,0.005 -0.045,0.027l0 0.061c0,0.013 0.007,0.022 0.017,0.028 0.021,0.01 0.044,-0.005 0.044,-0.028l0 -0.061zm-0.061 1.525c0,0.013 0.007,0.022 0.017,0.028 0.021,0.01 0.044,-0.005 0.044,-0.028l0 -0.061c0,-0.012 -0.006,-0.021 -0.016,-0.027 -0.021,-0.01 -0.045,0.005 -0.045,0.027l0 0.061zm0 -0.244c0,0.013 0.007,0.022 0.017,0.028 0.021,0.01 0.044,-0.005 0.044,-0.028l0 -0.122c0,-0.012 -0.006,-0.021 -0.016,-0.027 -0.021,-0.01 -0.045,0.005 -0.045,0.027l0 0.122zm0 -0.305c0,0.013 0.007,0.022 0.017,0.028 0.021,0.01 0.044,-0.005 0.044,-0.028l0 -0.122c0,-0.012 -0.006,-0.021 -0.016,-0.027 -0.021,-0.01 -0.045,0.005 -0.045,0.027l0 0.122zm0 -0.305c0,0.013 0.007,0.022 0.017,0.028 0.021,0.01 0.044,-0.005 0.044,-0.028l0 -0.122c0,-0.012 -0.006,-0.021 -0.016,-0.027 -0.021,-0.01 -0.045,0.005 -0.045,0.027l0 0.122zm0 -0.305c0,0.013 0.007,0.022 0.017,0.028 0.021,0.01 0.044,-0.005 0.044,-0.028l0 -0.122c0,-0.012 -0.006,-0.021 -0.016,-0.027 -0.021,-0.01 -0.045,0.005 -0.045,0.027l0 0.122z"/>
    <path class="fil2" d="M0.795 0.746c-0.008,-0.014 -0.003,-0.033 0.011,-0.041 0.015,-0.009 0.033,-0.004 0.042,0.011l0.611 1.059c0.009,0.014 0.004,0.033 -0.011,0.041 -0.014,0.009 -0.033,0.004 -0.042,-0.011l-0.611 -1.059z"/>
    <path class="fil1" d="M1.661 0.923c0.018,0.031 -0.212,0.198 -0.514,0.372 -0.302,0.175 -0.561,0.29 -0.579,0.259 -0.135,-0.234 0,-0.565 0.302,-0.739 0.301,-0.175 0.656,-0.126 0.791,0.108z"/>
    <path class="fil2" d="M1.686 0.94c-0.015,0.034 -0.066,0.083 -0.144,0.14 -0.093,0.067 -0.226,0.153 -0.378,0.241l-0.004 0.002c-0.151,0.087 -0.292,0.16 -0.397,0.206 -0.12,0.054 -0.203,0.071 -0.222,0.04 -0.072,-0.126 -0.072,-0.276 -0.014,-0.419 0.057,-0.139 0.171,-0.271 0.327,-0.362l0.001 0c0.157,-0.09 0.327,-0.123 0.477,-0.103 0.152,0.021 0.282,0.097 0.355,0.222 0.006,0.011 0.005,0.023 -0.001,0.033zm-0.179 0.09l0.127 -0.092c-0.062,-0.108 -0.176,-0.174 -0.31,-0.192 -0.137,-0.019 -0.294,0.011 -0.439,0.095 -0.145,0.084 -0.25,0.205 -0.302,0.332 -0.051,0.125 -0.052,0.257 0.011,0.366l0.145 -0.065c0.103,-0.046 0.242,-0.118 0.391,-0.204l0.004 -0.002c0.149,-0.086 0.281,-0.171 0.373,-0.238z"/>
    <path class="fil3" d="M1.391 1.146c-0.072,0.047 -0.155,0.098 -0.244,0.149 -0.089,0.052 -0.174,0.098 -0.251,0.137 -0.142,-0.273 -0.156,-0.543 -0.026,-0.617 0.129,-0.075 0.355,0.072 0.521,0.331z"/>
    <path class="fil2" d="M1.407 1.172c-0.037,0.024 -0.076,0.049 -0.118,0.074 -0.039,0.024 -0.081,0.049 -0.127,0.076 -0.044,0.025 -0.087,0.05 -0.129,0.072 -0.045,0.024 -0.086,0.046 -0.123,0.065 -0.015,0.008 -0.033,0.002 -0.041,-0.013l-0.001 -0.002c-0.072,-0.14 -0.112,-0.28 -0.117,-0.395 -0.005,-0.122 0.028,-0.217 0.103,-0.261 0.075,-0.043 0.175,-0.024 0.278,0.041 0.097,0.062 0.199,0.167 0.284,0.301 0.009,0.014 0.005,0.033 -0.009,0.042zm-0.149 0.022c0.032,-0.019 0.062,-0.038 0.091,-0.057 -0.077,-0.114 -0.166,-0.203 -0.25,-0.257 -0.083,-0.053 -0.161,-0.07 -0.214,-0.039 -0.054,0.031 -0.078,0.106 -0.073,0.205 0.004,0.1 0.037,0.221 0.098,0.345 0.031,-0.017 0.063,-0.033 0.094,-0.05 0.042,-0.023 0.085,-0.047 0.128,-0.072 0.042,-0.024 0.084,-0.049 0.126,-0.075z"/>
   </g>
  </g>
 </g>
</svg>
