<?xml version="1.0" encoding="UTF-8"?>
<!DOCTYPE svg PUBLIC "-//W3C//DTD SVG 1.1//EN" "http://www.w3.org/Graphics/SVG/1.1/DTD/svg11.dtd">
<!-- Creator: CorelDRAW 2018 (64-Bit) -->
<svg xmlns="http://www.w3.org/2000/svg" xml:space="preserve" width="40px" height="40px" version="1.1" style="shape-rendering:geometricPrecision; text-rendering:geometricPrecision; image-rendering:optimizeQuality; fill-rule:evenodd; clip-rule:evenodd"
viewBox="0 0 2.474 2.474"
 xmlns:xlink="http://www.w3.org/1999/xlink">
 <defs>
  <style type="text/css">
   <![CDATA[
    .fil0 {fill:none}
    .fil1 {fill:#00F4FF}
    .fil4 {fill:#EAEDF2}
    .fil3 {fill:white}
    .fil2 {fill:gray;fill-rule:nonzero}
   ]]>
  </style>
 </defs>
 <g id="Layer_x0020_1">
  <metadata id="CorelCorpID_0Corel-Layer"/>
  <g id="_1576243963360">
   <rect class="fil0" width="2.474" height="2.474"/>
   <g>
    <path class="fil1" d="M1.243 0.814c-0.012,-0.031 -0.019,-0.065 -0.019,-0.1 0,-0.155 0.125,-0.28 0.279,-0.282 0.056,-0.095 0.159,-0.159 0.277,-0.159 0.17,0 0.308,0.131 0.321,0.297 0.113,0.037 0.195,0.143 0.195,0.268 0,0.041 -0.008,0.079 -0.023,0.114 0.081,0.024 0.14,0.099 0.14,0.188 0,0.109 -0.088,0.197 -0.197,0.197 -0.012,0 -0.025,-0.002 -0.037,-0.004 -0.008,0.101 -0.092,0.18 -0.195,0.18 -0.074,0 -0.138,-0.041 -0.172,-0.101 -0.009,0.111 -0.102,0.198 -0.216,0.198 -0.119,0 -0.216,-0.097 -0.216,-0.217 0,-0.01 0,-0.019 0.002,-0.029 -0.016,0.003 -0.031,0.004 -0.047,0.004 -0.157,0 -0.285,-0.127 -0.285,-0.284 0,-0.125 0.081,-0.231 0.193,-0.27z"/>
    <path class="fil2" d="M1.205 0.797c-0.002,-0.009 -0.004,-0.018 -0.006,-0.027 -0.003,-0.018 -0.005,-0.037 -0.005,-0.056 0,-0.086 0.034,-0.163 0.09,-0.22 0.052,-0.052 0.123,-0.086 0.202,-0.091 0.03,-0.047 0.072,-0.086 0.12,-0.113 0.051,-0.03 0.111,-0.047 0.174,-0.047 0.092,0 0.176,0.036 0.239,0.094 0.059,0.054 0.099,0.128 0.11,0.211 0.055,0.022 0.103,0.06 0.138,0.107 0.037,0.052 0.06,0.115 0.06,0.183 0,0.022 -0.003,0.044 -0.007,0.065 -0.002,0.01 -0.005,0.021 -0.008,0.031 0.034,0.016 0.064,0.041 0.086,0.071 0.028,0.038 0.045,0.085 0.045,0.135 0,0.063 -0.025,0.119 -0.066,0.16l-0.002 0.002c-0.041,0.04 -0.097,0.065 -0.159,0.065l-0.011 -0.001c-0.011,0.046 -0.035,0.087 -0.068,0.117 -0.04,0.037 -0.094,0.06 -0.153,0.06 -0.042,0 -0.081,-0.011 -0.115,-0.031 -0.015,-0.009 -0.029,-0.02 -0.042,-0.032 -0.013,0.037 -0.036,0.069 -0.064,0.095 -0.044,0.04 -0.102,0.065 -0.167,0.065 -0.068,0 -0.129,-0.028 -0.174,-0.072 -0.044,-0.044 -0.071,-0.104 -0.072,-0.17l-0.015 0c-0.087,0 -0.166,-0.035 -0.223,-0.092 -0.057,-0.057 -0.092,-0.136 -0.092,-0.222 0,-0.068 0.022,-0.131 0.059,-0.183 0.032,-0.045 0.076,-0.081 0.126,-0.104zm0.053 -0.037c0.003,0.014 0.007,0.028 0.012,0.042l0.001 0.003c0.006,0.015 -0.003,0.033 -0.019,0.038 -0.05,0.017 -0.094,0.05 -0.124,0.093 -0.03,0.041 -0.048,0.093 -0.048,0.148 0,0.07 0.029,0.134 0.075,0.18 0.046,0.046 0.11,0.074 0.18,0.074 0.007,0 0.014,0 0.021,-0.001 0.007,0 0.014,-0.001 0.021,-0.002 0.003,-0.001 0.006,-0.001 0.009,0 0.016,0.002 0.028,0.017 0.026,0.033l-0.002 0.013 0 0.012c0,0.052 0.021,0.098 0.055,0.132 0.033,0.034 0.08,0.055 0.131,0.055 0.049,0 0.093,-0.019 0.126,-0.049 0.034,-0.031 0.056,-0.073 0.06,-0.121 0.001,-0.01 0.007,-0.019 0.016,-0.024 0.014,-0.008 0.032,-0.003 0.041,0.012 0.014,0.026 0.035,0.047 0.061,0.062 0.024,0.014 0.053,0.023 0.084,0.023 0.043,0 0.083,-0.017 0.112,-0.044 0.03,-0.027 0.05,-0.066 0.053,-0.108l0.001 -0.004c0.003,-0.016 0.019,-0.027 0.035,-0.024 0.005,0.001 0.01,0.002 0.015,0.003l0.001 0c0.004,0 0.009,0 0.015,0 0.046,0 0.087,-0.018 0.117,-0.047l0.001 -0.001c0.03,-0.03 0.049,-0.072 0.049,-0.118 0,-0.037 -0.012,-0.072 -0.033,-0.099 -0.021,-0.028 -0.051,-0.05 -0.086,-0.06l-0.003 -0.002c-0.016,-0.006 -0.023,-0.024 -0.016,-0.039 0.007,-0.016 0.013,-0.033 0.016,-0.05 0.004,-0.016 0.005,-0.034 0.005,-0.052 0,-0.055 -0.017,-0.106 -0.048,-0.148 -0.03,-0.042 -0.074,-0.074 -0.124,-0.091 -0.013,-0.003 -0.022,-0.013 -0.023,-0.026 -0.006,-0.076 -0.04,-0.144 -0.093,-0.192 -0.052,-0.048 -0.121,-0.077 -0.198,-0.077 -0.052,0 -0.102,0.013 -0.144,0.038 -0.044,0.025 -0.081,0.062 -0.107,0.105 -0.005,0.009 -0.015,0.015 -0.026,0.015 -0.069,0.001 -0.131,0.029 -0.176,0.075 -0.045,0.045 -0.073,0.107 -0.073,0.177 0,0.016 0.002,0.031 0.004,0.046z"/>
    <path class="fil2" d="M1.489 0.595c0,0.017 -0.014,0.03 -0.03,0.03 -0.017,0 -0.03,-0.013 -0.03,-0.03 0,-0.097 0.039,-0.185 0.103,-0.249 0.063,-0.063 0.151,-0.103 0.248,-0.103 0.017,0 0.03,0.014 0.03,0.03 0,0.017 -0.013,0.031 -0.03,0.031 -0.08,0 -0.153,0.032 -0.206,0.085 -0.052,0.053 -0.085,0.125 -0.085,0.206z"/>
    <path class="fil2" d="M2.266 0.838c0,-0.016 0.014,-0.03 0.031,-0.03 0.016,0 0.03,0.014 0.03,0.03 0,0.054 -0.014,0.105 -0.038,0.149 -0.025,0.046 -0.061,0.085 -0.104,0.113 -0.014,0.009 -0.033,0.005 -0.042,-0.009 -0.009,-0.014 -0.005,-0.033 0.009,-0.042 0.035,-0.022 0.064,-0.054 0.084,-0.091 0.019,-0.035 0.03,-0.076 0.03,-0.12z"/>
    <path class="fil2" d="M1.506 0.462c-0.017,0 -0.03,-0.013 -0.03,-0.03 0,-0.017 0.013,-0.03 0.03,-0.03 0.039,0 0.077,0.007 0.111,0.021 0.037,0.014 0.069,0.034 0.097,0.059 0.013,0.011 0.014,0.03 0.003,0.043 -0.011,0.012 -0.03,0.013 -0.043,0.002 -0.022,-0.021 -0.049,-0.037 -0.078,-0.048 -0.028,-0.011 -0.058,-0.017 -0.09,-0.017z"/>
    <path class="fil3" d="M0.169 1.078l0.689 -0.586 0.845 0.721 0.166 -0.133 0.438 0.373 0 0.582c0,0.012 -0.012,0.022 -0.026,0.022 -0.728,0 -1.348,0 -2.076,0 -0.019,0 -0.036,-0.014 -0.036,-0.031l0 -0.948z"/>
    <path class="fil2" d="M0.152 1.053l0.687 -0.584c0.011,-0.01 0.028,-0.01 0.039,0l0.825 0.705 0.147 -0.117c0.012,-0.01 0.029,-0.009 0.04,0.002l0.436 0.371c0.007,0.006 0.011,0.015 0.011,0.023l0 0.582c0,0.015 -0.007,0.029 -0.018,0.038 -0.01,0.009 -0.024,0.014 -0.038,0.014l-2.076 0c-0.017,0 -0.033,-0.006 -0.045,-0.016 -0.013,-0.012 -0.021,-0.027 -0.021,-0.045l0 -0.948c0,-0.011 0.005,-0.02 0.013,-0.025zm0.706 -0.522l-0.658 0.561 0 0.933c0.001,0.001 0.003,0.002 0.005,0.002l2.072 0 0 -0.56 -0.409 -0.348 -0.147 0.117c-0.011,0.009 -0.027,0.009 -0.038,-0.001l-0.825 -0.704zm-0.658 1.495c0,0 0,-0.001 0,-0.001l0 0.001z"/>
    <path class="fil2" d="M0.439 1.109c-0.016,0 -0.03,-0.013 -0.03,-0.03 0,-0.017 0.014,-0.03 0.03,-0.03l0.838 0c0.017,0 0.03,0.013 0.03,0.03 0,0.017 -0.013,0.03 -0.03,0.03l-0.838 0z"/>
    <path class="fil2" d="M1.46 2.057c0,0.017 -0.013,0.03 -0.03,0.03 -0.016,0 -0.03,-0.013 -0.03,-0.03l0 -0.465c0,-0.017 0.014,-0.03 0.03,-0.03 0.017,0 0.03,0.013 0.03,0.03l0 0.465z"/>
    <polygon class="fil4" points="0.674,1.5 1.043,1.5 1.043,2.057 0.674,2.057 "/>
    <path class="fil2" d="M0.674 1.47l0.369 0c0.016,0 0.03,0.014 0.03,0.03l0 0.557c0,0.017 -0.014,0.03 -0.03,0.03l-0.369 0c-0.017,0 -0.03,-0.013 -0.03,-0.03l0 -0.557c0,-0.016 0.013,-0.03 0.03,-0.03zm0.338 0.06l-0.308 0 0 0.497 0.308 0 0 -0.497z"/>
    <polygon class="fil4" points="1.74,1.67 1.997,1.67 1.997,2.057 1.74,2.057 "/>
    <path class="fil2" d="M1.74 1.639l0.257 0c0.017,0 0.03,0.014 0.03,0.031l0 0.387c0,0.017 -0.013,0.03 -0.03,0.03l-0.257 0c-0.016,0 -0.03,-0.013 -0.03,-0.03l0 -0.387c0,-0.017 0.014,-0.031 0.03,-0.031zm0.227 0.061l-0.197 0 0 0.327 0.197 0 0 -0.327z"/>
    <path class="fil2" d="M0.08 1.193c-0.012,0.011 -0.031,0.009 -0.042,-0.003 -0.011,-0.013 -0.009,-0.032 0.004,-0.043l0.797 -0.678c0.012,-0.011 0.031,-0.009 0.042,0.003 0.011,0.013 0.009,0.032 -0.003,0.042l-0.798 0.679z"/>
    <path class="fil2" d="M1.344 1.566c-0.013,0.011 -0.032,0.01 -0.043,-0.003 -0.01,-0.013 -0.009,-0.032 0.004,-0.042l0.544 -0.464c0.012,-0.009 0.028,-0.009 0.039,0.001l0.544 0.463c0.013,0.01 0.014,0.029 0.004,0.042 -0.011,0.013 -0.03,0.014 -0.043,0.003l-0.524 -0.446 -0.525 0.446z"/>
   </g>
  </g>
 </g>
</svg>
