<?xml version="1.0" encoding="UTF-8"?>
<!DOCTYPE svg PUBLIC "-//W3C//DTD SVG 1.1//EN" "http://www.w3.org/Graphics/SVG/1.1/DTD/svg11.dtd">
<!-- Creator: CorelDRAW 2018 (64-Bit) -->
<svg xmlns="http://www.w3.org/2000/svg" xml:space="preserve" width="40px" height="40px" version="1.1" style="shape-rendering:geometricPrecision; text-rendering:geometricPrecision; image-rendering:optimizeQuality; fill-rule:evenodd; clip-rule:evenodd"
viewBox="0 0 2.474 2.474"
 xmlns:xlink="http://www.w3.org/1999/xlink">
 <defs>
  <style type="text/css">
   <![CDATA[
    .fil0 {fill:none}
    .fil4 {fill:#00F4FF}
    .fil3 {fill:#EAEDF2}
    .fil1 {fill:white}
    .fil2 {fill:gray;fill-rule:nonzero}
   ]]>
  </style>
 </defs>
 <g id="Layer_x0020_1">
  <metadata id="CorelCorpID_0Corel-Layer"/>
  <g id="_1540006025712">
   <rect class="fil0" width="2.474" height="2.474"/>
   <g>
    <path class="fil1" d="M0.808 0.247l0.858 0c0.07,0 0.127,0.058 0.127,0.128l0 1.724c0,0.07 -0.057,0.127 -0.127,0.127l-0.858 0c-0.07,0 -0.128,-0.057 -0.128,-0.127l0 -1.724c0,-0.07 0.058,-0.128 0.128,-0.128z"/>
    <path class="fil2" d="M0.808 0.216l0.858 0c0.043,0 0.083,0.018 0.112,0.047l0 0c0.029,0.029 0.046,0.069 0.046,0.112l0 1.724c0,0.043 -0.017,0.083 -0.046,0.112l-0.002 0.002c-0.029,0.027 -0.068,0.044 -0.11,0.044l-0.858 0c-0.043,0 -0.083,-0.017 -0.112,-0.046l0 0c-0.029,-0.029 -0.047,-0.069 -0.047,-0.112l0 -1.724c0,-0.043 0.018,-0.083 0.047,-0.112l0 0c0.029,-0.029 0.069,-0.047 0.112,-0.047zm0.858 0.062l-0.858 0c-0.027,0 -0.051,0.011 -0.068,0.029 -0.018,0.017 -0.029,0.042 -0.029,0.068l0 1.724c0,0.026 0.011,0.051 0.029,0.068 0.017,0.018 0.041,0.029 0.068,0.029l0.858 0c0.026,0 0.049,-0.011 0.067,-0.027l0.001 -0.002c0.018,-0.018 0.029,-0.042 0.029,-0.068l0 -1.724c0,-0.026 -0.011,-0.051 -0.029,-0.068 -0.017,-0.018 -0.042,-0.029 -0.068,-0.029z"/>
    <polygon class="fil3" points="0.68,0.618 1.794,0.618 1.794,1.796 0.68,1.796 "/>
    <path class="fil2" d="M0.68 0.588l1.114 0c0.017,0 0.03,0.013 0.03,0.03l0 1.178c0,0.017 -0.013,0.031 -0.03,0.031l-1.114 0c-0.017,0 -0.031,-0.014 -0.031,-0.031l0 -1.178c0,-0.017 0.014,-0.03 0.031,-0.03zm1.083 0.061l-1.052 0 0 1.116 1.052 0 0 -1.116z"/>
    <path class="fil2" d="M1.14 0.479c-0.017,0 -0.031,-0.014 -0.031,-0.031 0,-0.017 0.014,-0.031 0.031,-0.031l0.193 0c0.018,0 0.031,0.014 0.031,0.031 0,0.017 -0.013,0.031 -0.031,0.031l-0.193 0z"/>
    <path class="fil4" d="M1.237 1.922c0.051,0 0.093,0.041 0.093,0.092 0,0.052 -0.042,0.093 -0.093,0.093 -0.051,0 -0.093,-0.041 -0.093,-0.093 0,-0.051 0.042,-0.092 0.093,-0.092z"/>
    <path class="fil2" d="M1.237 1.891c0.034,0 0.065,0.014 0.087,0.036l0 0c0.023,0.023 0.037,0.053 0.037,0.087 0,0.034 -0.014,0.065 -0.037,0.088l0 0c-0.022,0.022 -0.053,0.036 -0.087,0.036 -0.034,0 -0.065,-0.014 -0.087,-0.036l-0.001 0c-0.022,-0.023 -0.036,-0.054 -0.036,-0.088 0,-0.034 0.014,-0.065 0.036,-0.087l0.001 0c0.022,-0.022 0.053,-0.036 0.087,-0.036zm0.044 0.08c-0.011,-0.012 -0.027,-0.018 -0.044,-0.018 -0.017,0 -0.033,0.006 -0.044,0.018 -0.011,0.011 -0.018,0.026 -0.018,0.043 0,0.018 0.007,0.033 0.018,0.044 0.011,0.011 0.027,0.018 0.044,0.018 0.017,0 0.033,-0.007 0.044,-0.018 0.011,-0.011 0.018,-0.026 0.018,-0.044 0,-0.017 -0.007,-0.032 -0.018,-0.043z"/>
   </g>
  </g>
 </g>
</svg>
