<?xml version="1.0" encoding="UTF-8"?>
<!DOCTYPE svg PUBLIC "-//W3C//DTD SVG 1.1//EN" "http://www.w3.org/Graphics/SVG/1.1/DTD/svg11.dtd">
<!-- Creator: CorelDRAW 2018 (64-Bit) -->
<svg xmlns="http://www.w3.org/2000/svg" xml:space="preserve" width="40px" height="40px" version="1.1" style="shape-rendering:geometricPrecision; text-rendering:geometricPrecision; image-rendering:optimizeQuality; fill-rule:evenodd; clip-rule:evenodd"
viewBox="0 0 2.474 2.474"
 xmlns:xlink="http://www.w3.org/1999/xlink">
 <defs>
  <style type="text/css">
   <![CDATA[
    .fil0 {fill:none}
    .fil3 {fill:#00F4FF}
    .fil1 {fill:white}
    .fil2 {fill:gray;fill-rule:nonzero}
   ]]>
  </style>
 </defs>
 <g id="Layer_x0020_1">
  <metadata id="CorelCorpID_0Corel-Layer"/>
  <g id="_1576238066208">
   <rect class="fil0" width="2.474" height="2.474"/>
   <g>
    <path class="fil1" d="M0.114 0.474l2.246 0c0.029,0 0.052,0.024 0.052,0.053l0 0.456c-0.116,0 -0.21,0.114 -0.21,0.254 0,0.14 0.094,0.254 0.21,0.254l0 0.455c0,0.03 -0.023,0.053 -0.052,0.053l-2.246 0c-0.029,0 -0.053,-0.023 -0.053,-0.053l0 -0.455c0.117,0 0.211,-0.114 0.211,-0.254 0,-0.14 -0.094,-0.254 -0.211,-0.254l0 -0.456c0,-0.029 0.024,-0.053 0.053,-0.053z"/>
    <path class="fil2" d="M0.114 0.444l2.246 0c0.022,0 0.043,0.009 0.058,0.025 0.016,0.015 0.025,0.035 0.025,0.058l0 0.456c0,0.017 -0.014,0.03 -0.031,0.03 -0.048,0 -0.092,0.024 -0.125,0.064 -0.034,0.04 -0.054,0.097 -0.054,0.16 0,0.063 0.02,0.12 0.054,0.16 0.033,0.039 0.077,0.064 0.125,0.064 0.017,0 0.031,0.013 0.031,0.03l0 0.455c0,0.023 -0.009,0.044 -0.025,0.059l-0.002 0.002c-0.015,0.014 -0.035,0.023 -0.056,0.023l-2.246 0c-0.022,0 -0.043,-0.009 -0.059,-0.025 -0.015,-0.015 -0.024,-0.036 -0.024,-0.059l0 -0.455c0,-0.017 0.014,-0.03 0.03,-0.03 0.049,0 0.093,-0.025 0.126,-0.064 0.033,-0.04 0.054,-0.097 0.054,-0.16 0,-0.063 -0.021,-0.12 -0.054,-0.16 -0.033,-0.04 -0.077,-0.064 -0.126,-0.064 -0.016,0 -0.03,-0.013 -0.03,-0.03l0 -0.456c0,-0.023 0.009,-0.043 0.024,-0.059l0.003 -0.001c0.014,-0.014 0.035,-0.023 0.056,-0.023zm2.246 0.061l-2.246 0c-0.005,0 -0.011,0.002 -0.014,0.005l-0.001 0.002c-0.005,0.004 -0.007,0.009 -0.007,0.015l0 0.428c0.055,0.008 0.105,0.038 0.142,0.083 0.042,0.051 0.068,0.121 0.068,0.199 0,0.077 -0.026,0.148 -0.068,0.199 -0.037,0.045 -0.087,0.075 -0.142,0.083l0 0.427c0,0.007 0.002,0.012 0.007,0.016 0.004,0.004 0.009,0.007 0.015,0.007l2.246 0c0.005,0 0.01,-0.002 0.014,-0.006l0.001 -0.001c0.004,-0.004 0.007,-0.009 0.007,-0.016l0 -0.427c-0.055,-0.008 -0.105,-0.038 -0.142,-0.083 -0.042,-0.051 -0.068,-0.122 -0.068,-0.199 0,-0.078 0.026,-0.148 0.068,-0.199 0.037,-0.045 0.087,-0.075 0.142,-0.083l0 -0.428c0,-0.006 -0.003,-0.011 -0.007,-0.015 -0.004,-0.005 -0.009,-0.007 -0.015,-0.007z"/>
    <path class="fil2" d="M1.939 0.474c0,-0.012 -0.006,-0.021 -0.016,-0.027 -0.021,-0.01 -0.045,0.005 -0.045,0.027l0 0.061c0,0.013 0.007,0.022 0.017,0.028 0.021,0.01 0.044,-0.005 0.044,-0.028l0 -0.061zm-0.061 1.525c0,0.013 0.007,0.022 0.017,0.028 0.021,0.01 0.044,-0.005 0.044,-0.028l0 -0.061c0,-0.012 -0.006,-0.021 -0.016,-0.027 -0.021,-0.01 -0.045,0.005 -0.045,0.027l0 0.061zm0 -0.244c0,0.013 0.007,0.022 0.017,0.028 0.021,0.01 0.044,-0.005 0.044,-0.028l0 -0.122c0,-0.012 -0.006,-0.021 -0.016,-0.027 -0.021,-0.01 -0.045,0.005 -0.045,0.027l0 0.122zm0 -0.305c0,0.013 0.007,0.022 0.017,0.028 0.021,0.01 0.044,-0.005 0.044,-0.028l0 -0.122c0,-0.012 -0.006,-0.021 -0.016,-0.027 -0.021,-0.01 -0.045,0.005 -0.045,0.027l0 0.122zm0 -0.305c0,0.013 0.007,0.022 0.017,0.028 0.021,0.01 0.044,-0.005 0.044,-0.028l0 -0.122c0,-0.012 -0.006,-0.021 -0.016,-0.027 -0.021,-0.01 -0.045,0.005 -0.045,0.027l0 0.122zm0 -0.305c0,0.013 0.007,0.022 0.017,0.028 0.021,0.01 0.044,-0.005 0.044,-0.028l0 -0.122c0,-0.012 -0.006,-0.021 -0.016,-0.027 -0.021,-0.01 -0.045,0.005 -0.045,0.027l0 0.122z"/>
    <path class="fil2" d="M0.6 0.965l0.977 0c0.011,0 0.02,0.004 0.027,0.011l0 0c0.007,0.007 0.011,0.017 0.011,0.027l0 0.207c0,0.01 -0.004,0.019 -0.011,0.026l0 0.001c-0.007,0.007 -0.016,0.011 -0.027,0.011l-0.977 0c-0.011,0 -0.02,-0.005 -0.027,-0.011 -0.007,-0.008 -0.012,-0.017 -0.012,-0.027l0 -0.207c0,-0.01 0.005,-0.02 0.012,-0.027 0.007,-0.007 0.016,-0.011 0.027,-0.011zm0.954 0.061l-0.932 0 0 0.161 0.932 0 0 -0.161z"/>
    <path class="fil2" d="M0.685 1.187l0.807 0c0.013,0 0.026,0.005 0.035,0.014 0.009,0.01 0.014,0.022 0.014,0.036l0 0.521c0,0.013 -0.005,0.026 -0.014,0.035 -0.009,0.009 -0.022,0.015 -0.035,0.015l-0.807 0c-0.013,0 -0.026,-0.006 -0.035,-0.015 -0.009,-0.009 -0.015,-0.022 -0.015,-0.035l0 -0.521c0,-0.014 0.006,-0.026 0.015,-0.036 0.009,-0.009 0.022,-0.014 0.035,-0.014zm0.795 0.061l-0.784 0 0 0.499 0.784 0 0 -0.499z"/>
    <path class="fil3" d="M1.088 0.995c0.085,0 0.204,-0.008 0.259,-0.062 0.054,-0.054 0.054,-0.142 0,-0.196 -0.055,-0.054 -0.142,-0.054 -0.196,0 -0.054,0.054 -0.063,0.174 -0.063,0.258z"/>
    <path class="fil2" d="M1.119 0.964c0.034,0 0.07,-0.003 0.104,-0.009 0.042,-0.008 0.08,-0.022 0.102,-0.044l0.001 -0.001c0.02,-0.021 0.031,-0.048 0.031,-0.075 0,-0.027 -0.011,-0.055 -0.032,-0.076 -0.021,-0.021 -0.049,-0.032 -0.076,-0.032 -0.028,0 -0.056,0.011 -0.077,0.032 -0.022,0.022 -0.035,0.06 -0.043,0.102 -0.006,0.033 -0.009,0.07 -0.01,0.103zm0.115 0.05c-0.049,0.01 -0.102,0.012 -0.146,0.012 -0.016,0 -0.03,-0.014 -0.03,-0.031 0,-0.043 0.002,-0.096 0.012,-0.146 0.009,-0.052 0.027,-0.101 0.059,-0.133 0.033,-0.033 0.076,-0.05 0.12,-0.05 0.043,0 0.086,0.017 0.119,0.05 0.033,0.033 0.05,0.076 0.05,0.119 0,0.042 -0.016,0.085 -0.048,0.118l-0.002 0.001c-0.032,0.032 -0.081,0.05 -0.134,0.06z"/>
    <path class="fil3" d="M1.088 0.995c0,-0.084 -0.008,-0.204 -0.062,-0.258 -0.054,-0.054 -0.142,-0.054 -0.196,0 -0.054,0.054 -0.054,0.142 0,0.196 0.054,0.054 0.174,0.062 0.258,0.062z"/>
    <path class="fil2" d="M1.058 0.964c-0.001,-0.033 -0.004,-0.07 -0.01,-0.103 -0.008,-0.042 -0.021,-0.08 -0.044,-0.102 -0.021,-0.021 -0.048,-0.032 -0.076,-0.032 -0.027,0 -0.055,0.011 -0.076,0.032 -0.021,0.021 -0.032,0.049 -0.032,0.076 0,0.028 0.011,0.055 0.032,0.076l0.001 0.002c0.023,0.021 0.06,0.034 0.101,0.042 0.034,0.006 0.07,0.009 0.104,0.009zm0.049 -0.115c0.01,0.05 0.012,0.103 0.012,0.146 0,0.017 -0.014,0.031 -0.031,0.031 -0.043,0 -0.096,-0.002 -0.145,-0.012 -0.052,-0.009 -0.1,-0.027 -0.132,-0.058l-0.002 -0.001c-0.033,-0.033 -0.05,-0.077 -0.05,-0.12 0,-0.043 0.017,-0.086 0.05,-0.119 0.033,-0.033 0.076,-0.05 0.119,-0.05 0.043,0 0.087,0.017 0.12,0.05 0.031,0.032 0.05,0.081 0.059,0.133z"/>
    <polygon class="fil3" points="0.985,0.995 1.192,0.995 1.192,1.777 0.985,1.777 "/>
    <path class="fil2" d="M0.985 0.965l0.207 0c0.017,0 0.031,0.013 0.031,0.03l0 0.782c0,0.017 -0.014,0.031 -0.031,0.031l-0.207 0c-0.017,0 -0.031,-0.014 -0.031,-0.031l0 -0.782c0,-0.017 0.014,-0.03 0.031,-0.03zm0.177 0.061l-0.147 0 0 0.72 0.147 0 0 -0.72z"/>
   </g>
  </g>
 </g>
</svg>
