<?xml version="1.0" encoding="UTF-8"?>
<!DOCTYPE svg PUBLIC "-//W3C//DTD SVG 1.1//EN" "http://www.w3.org/Graphics/SVG/1.1/DTD/svg11.dtd">
<!-- Creator: CorelDRAW 2018 (64-Bit) -->
<svg xmlns="http://www.w3.org/2000/svg" xml:space="preserve" width="40px" height="40px" version="1.1" style="shape-rendering:geometricPrecision; text-rendering:geometricPrecision; image-rendering:optimizeQuality; fill-rule:evenodd; clip-rule:evenodd"
viewBox="0 0 2.474 2.474"
 xmlns:xlink="http://www.w3.org/1999/xlink">
 <defs>
  <style type="text/css">
   <![CDATA[
    .fil0 {fill:none}
    .fil1 {fill:white}
    .fil3 {fill:#00F4FF;fill-rule:nonzero}
    .fil2 {fill:gray;fill-rule:nonzero}
   ]]>
  </style>
 </defs>
 <g id="Layer_x0020_1">
  <metadata id="CorelCorpID_0Corel-Layer"/>
  <g id="_1540004424192">
   <rect class="fil0" width="2.474" height="2.474"/>
   <g>
    <path class="fil1" d="M2.413 1.559c0,0.267 -0.217,0.483 -0.484,0.483 -0.267,0 -0.483,-0.216 -0.483,-0.483 0,-0.267 0.216,-0.483 0.483,-0.483 0.267,0 0.484,0.216 0.484,0.483z"/>
    <path class="fil2" d="M2.443 1.559c0,0.142 -0.058,0.27 -0.15,0.363 -0.093,0.093 -0.222,0.151 -0.364,0.151 -0.141,0 -0.27,-0.058 -0.363,-0.151 -0.093,-0.093 -0.15,-0.221 -0.15,-0.363 0,-0.142 0.057,-0.27 0.15,-0.363 0.093,-0.093 0.222,-0.15 0.363,-0.15 0.142,0 0.271,0.057 0.364,0.15 0.092,0.093 0.15,0.221 0.15,0.363zm-0.193 0.32c0.082,-0.082 0.133,-0.195 0.133,-0.32 0,-0.125 -0.051,-0.238 -0.133,-0.32 -0.082,-0.082 -0.195,-0.133 -0.321,-0.133 -0.125,0 -0.238,0.051 -0.32,0.133 -0.082,0.082 -0.133,0.195 -0.133,0.32 0,0.125 0.051,0.238 0.133,0.32 0.082,0.082 0.195,0.133 0.32,0.133 0.126,0 0.239,-0.051 0.321,-0.133z"/>
    <path class="fil3" d="M2.091 1.559c0,0.089 -0.073,0.161 -0.162,0.161 -0.089,0 -0.161,-0.072 -0.161,-0.161 0,-0.089 0.072,-0.161 0.161,-0.161 0.089,0 0.162,0.072 0.162,0.161z"/>
    <path class="fil2" d="M2.119 1.559c0,0.052 -0.021,0.1 -0.055,0.134 -0.035,0.035 -0.082,0.056 -0.135,0.056 -0.052,0 -0.099,-0.021 -0.134,-0.056 -0.034,-0.034 -0.056,-0.082 -0.056,-0.134 0,-0.052 0.022,-0.1 0.056,-0.134 0.035,-0.035 0.082,-0.056 0.134,-0.056 0.053,0 0.1,0.021 0.135,0.056 0.034,0.034 0.055,0.082 0.055,0.134zm-0.096 0.093c0.024,-0.023 0.039,-0.056 0.039,-0.093 0,-0.037 -0.015,-0.07 -0.039,-0.093 -0.024,-0.024 -0.057,-0.039 -0.094,-0.039 -0.036,0 -0.069,0.015 -0.093,0.038 -0.024,0.024 -0.039,0.057 -0.039,0.094 0,0.037 0.015,0.07 0.039,0.094 0.024,0.023 0.057,0.038 0.093,0.038 0.037,0 0.07,-0.015 0.094,-0.039z"/>
    <path class="fil1" d="M1.028 1.559c0,0.267 -0.217,0.483 -0.484,0.483 -0.267,0 -0.483,-0.216 -0.483,-0.483 0,-0.267 0.216,-0.483 0.483,-0.483 0.267,0 0.484,0.216 0.484,0.483z"/>
    <path class="fil2" d="M1.058 1.559c0,0.142 -0.058,0.27 -0.15,0.363 -0.093,0.093 -0.222,0.151 -0.364,0.151 -0.141,0 -0.27,-0.058 -0.363,-0.151 -0.093,-0.093 -0.15,-0.221 -0.15,-0.363 0,-0.142 0.057,-0.27 0.15,-0.363 0.093,-0.093 0.222,-0.15 0.363,-0.15 0.142,0 0.271,0.057 0.364,0.15 0.092,0.093 0.15,0.221 0.15,0.363zm-0.193 0.32c0.082,-0.082 0.133,-0.195 0.133,-0.32 0,-0.125 -0.051,-0.238 -0.133,-0.32 -0.082,-0.082 -0.195,-0.133 -0.321,-0.133 -0.125,0 -0.238,0.051 -0.32,0.133 -0.082,0.082 -0.133,0.195 -0.133,0.32 0,0.125 0.051,0.238 0.133,0.32 0.082,0.082 0.195,0.133 0.32,0.133 0.126,0 0.239,-0.051 0.321,-0.133z"/>
    <path class="fil3" d="M0.706 1.559c0,0.089 -0.073,0.161 -0.162,0.161 -0.089,0 -0.161,-0.072 -0.161,-0.161 0,-0.089 0.072,-0.161 0.161,-0.161 0.089,0 0.162,0.072 0.162,0.161z"/>
    <path class="fil2" d="M0.734 1.559c0,0.052 -0.021,0.1 -0.055,0.134 -0.035,0.035 -0.082,0.056 -0.135,0.056 -0.052,0 -0.099,-0.021 -0.134,-0.056 -0.034,-0.034 -0.056,-0.082 -0.056,-0.134 0,-0.052 0.022,-0.1 0.056,-0.134 0.035,-0.035 0.082,-0.056 0.134,-0.056 0.053,0 0.1,0.021 0.135,0.056 0.034,0.034 0.055,0.082 0.055,0.134zm-0.096 0.094c0.024,-0.024 0.039,-0.057 0.039,-0.094 0,-0.037 -0.015,-0.07 -0.039,-0.094 -0.024,-0.023 -0.057,-0.038 -0.094,-0.038 -0.036,0 -0.069,0.015 -0.093,0.038 -0.024,0.024 -0.039,0.057 -0.039,0.094 0,0.037 0.015,0.07 0.039,0.094 0.024,0.023 0.057,0.038 0.093,0.038 0.037,0 0.07,-0.015 0.094,-0.038z"/>
    <path class="fil2" d="M1.956 1.549c0.006,0.015 -0.002,0.031 -0.017,0.037 -0.014,0.006 -0.031,-0.002 -0.037,-0.017l-0.354 -0.945c-0.001,-0.002 -0.002,-0.004 -0.002,-0.006 -0.014,-0.094 0.039,-0.127 0.114,-0.138 0.036,-0.005 0.077,-0.005 0.117,-0.004 0.08,0.001 0.157,0.002 0.157,-0.044 0,-0.016 0.013,-0.029 0.029,-0.029 0.016,0 0.029,0.013 0.029,0.029 0,0.105 -0.106,0.103 -0.215,0.102 -0.038,-0.001 -0.077,-0.001 -0.109,0.003 -0.041,0.006 -0.071,0.023 -0.065,0.07l0.353 0.942z"/>
    <path class="fil2" d="M1.616 0.89l-0.731 0 -0.295 0.64 0.638 0 0.388 -0.64zm-0.749 -0.058l0.8 0c0.005,0 0.01,0.001 0.015,0.004 0.013,0.008 0.018,0.026 0.009,0.04l-0.421 0.695c-0.004,0.01 -0.014,0.017 -0.026,0.017l-0.7 0c-0.004,0 -0.008,-0.001 -0.012,-0.003 -0.014,-0.006 -0.02,-0.024 -0.014,-0.038l0.322 -0.696c0.004,-0.011 0.014,-0.019 0.027,-0.019z"/>
    <polygon class="fil2" points="0.945,0.7 0.623,0.7 0.685,0.771 "/>
    <path class="fil2" d="M0.73 0.729l-0.044 0 0.008 0.009 0.036 -0.009zm-0.107 -0.058l0.322 0c0.013,0 0.025,0.008 0.028,0.021 0.004,0.015 -0.005,0.031 -0.02,0.035l-0.26 0.071c-0.01,0.004 -0.022,0.001 -0.03,-0.008l-0.06 -0.07c-0.005,-0.005 -0.009,-0.012 -0.009,-0.02 0,-0.016 0.013,-0.029 0.029,-0.029z"/>
    <path class="fil2" d="M1.269 1.545c0.008,0.014 0.003,0.032 -0.011,0.039 -0.014,0.008 -0.032,0.003 -0.039,-0.011l-0.457 -0.829c-0.008,-0.014 -0.003,-0.032 0.011,-0.039 0.014,-0.008 0.032,-0.003 0.039,0.011l0.457 0.829z"/>
   </g>
  </g>
 </g>
</svg>
