<?xml version="1.0" encoding="UTF-8"?>
<!DOCTYPE svg PUBLIC "-//W3C//DTD SVG 1.1//EN" "http://www.w3.org/Graphics/SVG/1.1/DTD/svg11.dtd">
<!-- Creator: CorelDRAW 2018 (64-Bit) -->
<svg xmlns="http://www.w3.org/2000/svg" xml:space="preserve" width="40px" height="40px" version="1.1" style="shape-rendering:geometricPrecision; text-rendering:geometricPrecision; image-rendering:optimizeQuality; fill-rule:evenodd; clip-rule:evenodd"
viewBox="0 0 2.474 2.474"
 xmlns:xlink="http://www.w3.org/1999/xlink">
 <defs>
  <style type="text/css">
   <![CDATA[
    .fil0 {fill:none}
    .fil3 {fill:#00F4FF}
    .fil1 {fill:white}
    .fil2 {fill:gray;fill-rule:nonzero}
   ]]>
  </style>
 </defs>
 <g id="Layer_x0020_1">
  <metadata id="CorelCorpID_0Corel-Layer"/>
  <g id="_1540009208624">
   <rect class="fil0" width="2.474" height="2.474"/>
   <g>
    <path class="fil1" d="M0.114 0.474l2.246 0c0.029,0 0.052,0.024 0.052,0.053l0 0.456c-0.116,0 -0.21,0.114 -0.21,0.254 0,0.14 0.094,0.254 0.21,0.254l0 0.455c0,0.03 -0.023,0.053 -0.052,0.053l-2.246 0c-0.029,0 -0.053,-0.023 -0.053,-0.053l0 -0.455c0.117,0 0.211,-0.114 0.211,-0.254 0,-0.14 -0.094,-0.254 -0.211,-0.254l0 -0.456c0,-0.029 0.024,-0.053 0.053,-0.053z"/>
    <path class="fil2" d="M0.114 0.444l2.246 0c0.022,0 0.043,0.009 0.058,0.025 0.016,0.015 0.025,0.035 0.025,0.058l0 0.456c0,0.017 -0.014,0.03 -0.031,0.03 -0.048,0 -0.092,0.024 -0.125,0.064 -0.034,0.04 -0.054,0.097 -0.054,0.16 0,0.063 0.02,0.12 0.054,0.16 0.033,0.039 0.077,0.064 0.125,0.064 0.017,0 0.031,0.013 0.031,0.03l0 0.455c0,0.023 -0.009,0.044 -0.025,0.059l-0.002 0.002c-0.015,0.014 -0.035,0.023 -0.056,0.023l-2.246 0c-0.022,0 -0.043,-0.009 -0.059,-0.025 -0.015,-0.015 -0.024,-0.036 -0.024,-0.059l0 -0.455c0,-0.017 0.014,-0.03 0.03,-0.03 0.049,0 0.093,-0.025 0.126,-0.064 0.033,-0.04 0.054,-0.097 0.054,-0.16 0,-0.063 -0.021,-0.12 -0.054,-0.16 -0.033,-0.04 -0.077,-0.064 -0.126,-0.064 -0.016,0 -0.03,-0.013 -0.03,-0.03l0 -0.456c0,-0.023 0.009,-0.043 0.024,-0.059l0.003 -0.001c0.014,-0.014 0.035,-0.023 0.056,-0.023zm2.246 0.061l-2.246 0c-0.005,0 -0.011,0.002 -0.014,0.005l-0.001 0.002c-0.005,0.004 -0.007,0.009 -0.007,0.015l0 0.428c0.055,0.008 0.105,0.038 0.142,0.083 0.042,0.051 0.068,0.121 0.068,0.199 0,0.077 -0.026,0.148 -0.068,0.199 -0.037,0.045 -0.087,0.075 -0.142,0.083l0 0.427c0,0.007 0.002,0.012 0.007,0.016 0.004,0.004 0.009,0.007 0.015,0.007l2.246 0c0.005,0 0.01,-0.002 0.014,-0.006l0.001 -0.001c0.004,-0.004 0.007,-0.009 0.007,-0.016l0 -0.427c-0.055,-0.008 -0.105,-0.038 -0.142,-0.083 -0.042,-0.051 -0.068,-0.122 -0.068,-0.199 0,-0.078 0.026,-0.148 0.068,-0.199 0.037,-0.045 0.087,-0.075 0.142,-0.083l0 -0.428c0,-0.006 -0.003,-0.011 -0.007,-0.015 -0.004,-0.005 -0.009,-0.007 -0.015,-0.007z"/>
    <path class="fil2" d="M1.939 0.474c0,-0.012 -0.006,-0.021 -0.016,-0.027 -0.021,-0.01 -0.045,0.005 -0.045,0.027l0 0.061c0,0.013 0.007,0.022 0.017,0.028 0.021,0.01 0.044,-0.005 0.044,-0.028l0 -0.061zm-0.061 1.525c0,0.013 0.007,0.022 0.017,0.028 0.021,0.01 0.044,-0.005 0.044,-0.028l0 -0.061c0,-0.012 -0.006,-0.021 -0.016,-0.027 -0.021,-0.01 -0.045,0.005 -0.045,0.027l0 0.061zm0 -0.244c0,0.013 0.007,0.022 0.017,0.028 0.021,0.01 0.044,-0.005 0.044,-0.028l0 -0.122c0,-0.012 -0.006,-0.021 -0.016,-0.027 -0.021,-0.01 -0.045,0.005 -0.045,0.027l0 0.122zm0 -0.305c0,0.013 0.007,0.022 0.017,0.028 0.021,0.01 0.044,-0.005 0.044,-0.028l0 -0.122c0,-0.012 -0.006,-0.021 -0.016,-0.027 -0.021,-0.01 -0.045,0.005 -0.045,0.027l0 0.122zm0 -0.305c0,0.013 0.007,0.022 0.017,0.028 0.021,0.01 0.044,-0.005 0.044,-0.028l0 -0.122c0,-0.012 -0.006,-0.021 -0.016,-0.027 -0.021,-0.01 -0.045,0.005 -0.045,0.027l0 0.122zm0 -0.305c0,0.013 0.007,0.022 0.017,0.028 0.021,0.01 0.044,-0.005 0.044,-0.028l0 -0.122c0,-0.012 -0.006,-0.021 -0.016,-0.027 -0.021,-0.01 -0.045,0.005 -0.045,0.027l0 0.122z"/>
    <path class="fil3" d="M1.261 1.346c0.041,-0.012 0.082,-0.028 0.113,-0.028 0.039,-0.001 0.092,0.023 0.103,0.099l0.021 0.139c0.002,0.014 -0.01,0.024 -0.022,0.032 -0.207,0.142 -0.568,0.142 -0.776,0 -0.011,-0.008 -0.023,-0.018 -0.021,-0.032l0.021 -0.139c0.011,-0.076 0.063,-0.1 0.103,-0.099 0.031,0 0.072,0.016 0.113,0.028 0.125,0.035 0.22,0.035 0.345,0z"/>
    <path class="fil2" d="M1.252 1.316c0.013,-0.003 0.022,-0.006 0.031,-0.009 0.032,-0.01 0.063,-0.019 0.091,-0.02 0.029,0 0.063,0.01 0.09,0.036 0.021,0.02 0.037,0.049 0.043,0.09l0.021 0.138c0.002,0.017 -0.003,0.03 -0.012,0.042 -0.006,0.008 -0.014,0.015 -0.022,0.02 -0.109,0.075 -0.258,0.112 -0.406,0.112 -0.147,0 -0.296,-0.037 -0.405,-0.112 -0.008,-0.005 -0.016,-0.012 -0.022,-0.02 -0.009,-0.012 -0.014,-0.025 -0.012,-0.042l0.021 -0.138c0.006,-0.041 0.022,-0.07 0.043,-0.09 0.027,-0.026 0.061,-0.036 0.09,-0.036 0.028,0.001 0.059,0.01 0.091,0.02 0.009,0.003 0.018,0.006 0.031,0.009 0.059,0.017 0.111,0.026 0.163,0.026 0.053,0 0.105,-0.009 0.164,-0.026zm0.048 0.049l-0.031 0.01c-0.065,0.018 -0.123,0.028 -0.181,0.028 -0.057,0 -0.115,-0.01 -0.18,-0.028l-0.032 -0.01c-0.028,-0.008 -0.055,-0.017 -0.073,-0.017 -0.016,0 -0.034,0.005 -0.048,0.019 -0.012,0.011 -0.021,0.029 -0.025,0.054l-0.02 0.136c0.002,0.002 0.005,0.004 0.008,0.006 0.098,0.067 0.234,0.101 0.37,0.101 0.137,0 0.273,-0.034 0.371,-0.101 0.003,-0.002 0.006,-0.004 0.008,-0.006l-0.02 -0.136c-0.004,-0.025 -0.014,-0.043 -0.025,-0.054 -0.014,-0.014 -0.032,-0.019 -0.048,-0.019 -0.018,0 -0.045,0.009 -0.074,0.017z"/>
    <path class="fil3" d="M1.09 0.779c0.13,0 0.235,0.106 0.235,0.236 0,0.13 -0.105,0.236 -0.235,0.236 -0.13,0 -0.236,-0.106 -0.236,-0.236 0,-0.13 0.106,-0.236 0.236,-0.236z"/>
    <path class="fil2" d="M1.09 0.749c0.073,0 0.14,0.03 0.188,0.078 0.048,0.048 0.078,0.115 0.078,0.188 0,0.074 -0.03,0.14 -0.078,0.188 -0.048,0.048 -0.115,0.078 -0.188,0.078 -0.074,0 -0.14,-0.03 -0.188,-0.078 -0.049,-0.048 -0.078,-0.114 -0.078,-0.188 0,-0.073 0.029,-0.14 0.078,-0.188 0.048,-0.048 0.114,-0.078 0.188,-0.078zm0.145 0.121c-0.037,-0.037 -0.088,-0.06 -0.145,-0.06 -0.057,0 -0.108,0.023 -0.145,0.06 -0.037,0.037 -0.06,0.088 -0.06,0.145 0,0.057 0.023,0.108 0.06,0.145 0.037,0.037 0.088,0.06 0.145,0.06 0.056,0 0.108,-0.023 0.145,-0.06 0.037,-0.037 0.06,-0.088 0.06,-0.145 0,-0.057 -0.023,-0.108 -0.06,-0.145z"/>
   </g>
  </g>
 </g>
</svg>
