<?xml version="1.0" encoding="UTF-8"?>
<!DOCTYPE svg PUBLIC "-//W3C//DTD SVG 1.1//EN" "http://www.w3.org/Graphics/SVG/1.1/DTD/svg11.dtd">
<!-- Creator: CorelDRAW 2018 (64-Bit) -->
<svg xmlns="http://www.w3.org/2000/svg" xml:space="preserve" width="40px" height="40px" version="1.1" style="shape-rendering:geometricPrecision; text-rendering:geometricPrecision; image-rendering:optimizeQuality; fill-rule:evenodd; clip-rule:evenodd"
viewBox="0 0 2.474 2.474"
 xmlns:xlink="http://www.w3.org/1999/xlink">
 <defs>
  <style type="text/css">
   <![CDATA[
    .fil0 {fill:none}
    .fil4 {fill:#00F4FF}
    .fil1 {fill:#EAEDF2}
    .fil3 {fill:white}
    .fil2 {fill:gray;fill-rule:nonzero}
   ]]>
  </style>
 </defs>
 <g id="Layer_x0020_1">
  <metadata id="CorelCorpID_0Corel-Layer"/>
  <g id="_1576243205888">
   <rect class="fil0" width="2.474" height="2.474"/>
   <g>
    <path class="fil1" d="M1.887 0.819l0.445 0c0.045,0 0.081,0.036 0.081,0.08l0 1.063c0,0.044 -0.036,0.08 -0.081,0.08l-1.775 0c-0.045,0 -0.081,-0.036 -0.081,-0.08l0 -0.38 1.411 -0.763z"/>
    <path class="fil2" d="M1.887 0.789l0.445 -0.001c0.031,0 0.058,0.013 0.078,0.033l0.002 0.002c0.019,0.02 0.031,0.047 0.031,0.076l0 1.063c0,0.03 -0.013,0.058 -0.033,0.078l0 0c-0.02,0.02 -0.047,0.032 -0.078,0.032l-1.775 0c-0.031,0 -0.059,-0.012 -0.079,-0.032 -0.02,-0.02 -0.032,-0.048 -0.032,-0.078l0 -0.38c0,-0.012 0.007,-0.023 0.018,-0.028l1.409 -0.762c0.004,-0.002 0.009,-0.003 0.014,-0.003zm0.445 0.06l-0.437 0 -1.389 0.751 0 0.362c0,0.013 0.006,0.026 0.015,0.035 0.009,0.009 0.022,0.015 0.036,0.015l1.775 0c0.014,0 0.027,-0.006 0.036,-0.015 0.009,-0.009 0.015,-0.022 0.015,-0.035l0 -1.063c0,-0.013 -0.006,-0.025 -0.014,-0.034l-0.001 -0.001c-0.009,-0.01 -0.022,-0.015 -0.036,-0.015z"/>
    <path class="fil2" d="M0.476 1.855c-0.017,0 -0.03,-0.014 -0.03,-0.031 0,-0.016 0.013,-0.03 0.03,-0.03l1.937 0c0.016,0 0.03,0.014 0.03,0.03 0,0.017 -0.014,0.031 -0.03,0.031l-1.937 0z"/>
    <path class="fil3" d="M0.142 0.432l1.775 0c0.045,0 0.081,0.036 0.081,0.08l0 1.063c0,0.044 -0.036,0.08 -0.081,0.08l-1.775 0c-0.045,0 -0.081,-0.036 -0.081,-0.08l0 -1.063c0,-0.044 0.036,-0.08 0.081,-0.08z"/>
    <path class="fil2" d="M0.142 0.402l1.775 0c0.031,0 0.058,0.012 0.078,0.032 0.02,0.02 0.033,0.048 0.033,0.078l0 1.063c0,0.03 -0.013,0.058 -0.033,0.078 -0.02,0.02 -0.047,0.032 -0.078,0.032l-1.775 0c-0.031,0 -0.058,-0.012 -0.078,-0.032 -0.021,-0.02 -0.033,-0.048 -0.033,-0.078l0 -1.063c0,-0.03 0.012,-0.058 0.032,-0.078 0.021,-0.02 0.048,-0.032 0.079,-0.032zm1.775 0.06l-1.775 0c-0.014,0 -0.027,0.006 -0.036,0.015 -0.009,0.009 -0.015,0.021 -0.015,0.035l0 1.063c0,0.014 0.006,0.026 0.015,0.035 0.009,0.009 0.022,0.015 0.036,0.015l1.775 0c0.014,0 0.027,-0.006 0.036,-0.015 0.009,-0.009 0.015,-0.021 0.015,-0.035l0 -1.063c0,-0.014 -0.006,-0.026 -0.015,-0.035 -0.009,-0.009 -0.022,-0.015 -0.036,-0.015z"/>
    <path class="fil2" d="M0.275 1.37c-0.017,0 -0.03,-0.014 -0.03,-0.03 0,-0.017 0.013,-0.031 0.03,-0.031l0.256 0c0.016,0 0.03,0.014 0.03,0.031 0,0.016 -0.014,0.03 -0.03,0.03l-0.256 0zm1.253 0c-0.017,0 -0.03,-0.014 -0.03,-0.03 0,-0.017 0.013,-0.031 0.03,-0.031l0.256 0c0.017,0 0.03,0.014 0.03,0.031 0,0.016 -0.013,0.03 -0.03,0.03l-0.256 0zm-0.418 0c-0.016,0 -0.03,-0.014 -0.03,-0.03 0,-0.017 0.014,-0.031 0.03,-0.031l0.256 0c0.017,0 0.03,0.014 0.03,0.031 0,0.016 -0.013,0.03 -0.03,0.03l-0.256 0zm-0.417 0c-0.017,0 -0.031,-0.014 -0.031,-0.03 0,-0.017 0.014,-0.031 0.031,-0.031l0.256 0c0.016,0 0.03,0.014 0.03,0.031 0,0.016 -0.014,0.03 -0.03,0.03l-0.256 0z"/>
    <polygon class="fil4" points="1.431,0.7 1.784,0.7 1.784,0.992 1.431,0.992 "/>
    <path class="fil2" d="M1.431 0.669l0.353 0c0.017,0 0.03,0.014 0.03,0.031l0 0.292c0,0.017 -0.013,0.03 -0.03,0.03l-0.353 0c-0.017,0 -0.03,-0.013 -0.03,-0.03l0 -0.292c0,-0.017 0.013,-0.031 0.03,-0.031zm0.323 0.061l-0.293 0 0 0.232 0.293 0 0 -0.232z"/>
   </g>
  </g>
 </g>
</svg>
