<?xml version="1.0" encoding="UTF-8"?>
<!DOCTYPE svg PUBLIC "-//W3C//DTD SVG 1.1//EN" "http://www.w3.org/Graphics/SVG/1.1/DTD/svg11.dtd">
<!-- Creator: CorelDRAW 2018 (64-Bit) -->
<svg xmlns="http://www.w3.org/2000/svg" xml:space="preserve" width="40px" height="40px" version="1.1" style="shape-rendering:geometricPrecision; text-rendering:geometricPrecision; image-rendering:optimizeQuality; fill-rule:evenodd; clip-rule:evenodd"
viewBox="0 0 2.474 2.474"
 xmlns:xlink="http://www.w3.org/1999/xlink">
 <defs>
  <style type="text/css">
   <![CDATA[
    .fil0 {fill:none}
    .fil3 {fill:#00F4FF}
    .fil1 {fill:white}
    .fil2 {fill:gray;fill-rule:nonzero}
   ]]>
  </style>
 </defs>
 <g id="Layer_x0020_1">
  <metadata id="CorelCorpID_0Corel-Layer"/>
  <g id="_1576238099488">
   <rect class="fil0" width="2.474" height="2.474"/>
   <g>
    <path class="fil1" d="M0.121 0.423l2.051 0c0.033,0 0.06,0.027 0.06,0.06l0 1.327c0,0.033 -0.027,0.06 -0.06,0.06l-2.051 0c-0.033,0 -0.06,-0.027 -0.06,-0.06l0 -1.327c0,-0.033 0.027,-0.06 0.06,-0.06z"/>
    <path class="fil2" d="M0.121 0.393l2.051 0c0.025,0 0.047,0.01 0.064,0.026 0.016,0.017 0.026,0.039 0.026,0.064l0 1.327c0,0.025 -0.01,0.047 -0.026,0.064 -0.017,0.016 -0.039,0.026 -0.064,0.026l-2.051 0c-0.025,0 -0.047,-0.01 -0.064,-0.026 -0.016,-0.017 -0.026,-0.039 -0.026,-0.064l0 -1.327c0,-0.025 0.01,-0.047 0.026,-0.064 0.017,-0.016 0.039,-0.026 0.064,-0.026zm2.051 0.06l-2.051 0c-0.008,0 -0.015,0.003 -0.021,0.009 -0.005,0.005 -0.009,0.013 -0.009,0.021l0 1.327c0,0.008 0.004,0.016 0.009,0.021 0.006,0.006 0.013,0.009 0.021,0.009l2.051 0c0.008,0 0.015,-0.003 0.021,-0.009 0.005,-0.005 0.009,-0.013 0.009,-0.021l0 -1.327c0,-0.008 -0.004,-0.016 -0.009,-0.021 -0.006,-0.006 -0.013,-0.009 -0.021,-0.009z"/>
    <path class="fil2" d="M0.747 1.413c-0.017,0 -0.03,-0.013 -0.03,-0.03 0,-0.017 0.013,-0.03 0.03,-0.03l0.513 0c0.016,0 0.03,0.013 0.03,0.03 0,0.017 -0.014,0.03 -0.03,0.03l-0.513 0z"/>
    <path class="fil2" d="M0.566 1.353c0.017,0 0.03,0.013 0.03,0.03 0,0.017 -0.013,0.03 -0.03,0.03l-0.093 0c-0.016,0 -0.03,-0.013 -0.03,-0.03 0,-0.017 0.014,-0.03 0.03,-0.03l0.093 0z"/>
    <path class="fil2" d="M0.747 1.177c-0.017,0 -0.03,-0.014 -0.03,-0.031 0,-0.016 0.013,-0.03 0.03,-0.03l1.072 0c0.017,0 0.031,0.014 0.031,0.03 0,0.017 -0.014,0.031 -0.031,0.031l-1.072 0z"/>
    <path class="fil2" d="M0.566 1.116c0.017,0 0.03,0.014 0.03,0.03 0,0.017 -0.013,0.031 -0.03,0.031l-0.093 0c-0.016,0 -0.03,-0.014 -0.03,-0.031 0,-0.016 0.014,-0.03 0.03,-0.03l0.093 0z"/>
    <path class="fil2" d="M0.747 0.94c-0.017,0 -0.03,-0.013 -0.03,-0.03 0,-0.017 0.013,-0.03 0.03,-0.03l1.072 0c0.017,0 0.031,0.013 0.031,0.03 0,0.017 -0.014,0.03 -0.031,0.03l-1.072 0z"/>
    <path class="fil2" d="M0.566 0.88c0.017,0 0.03,0.013 0.03,0.03 0,0.017 -0.013,0.03 -0.03,0.03l-0.093 0c-0.016,0 -0.03,-0.013 -0.03,-0.03 0,-0.017 0.014,-0.03 0.03,-0.03l0.093 0z"/>
    <path class="fil3" d="M2.051 1.327c0.2,0 0.362,0.162 0.362,0.362 0,0.2 -0.162,0.362 -0.362,0.362 -0.2,0 -0.362,-0.162 -0.362,-0.362 0,-0.2 0.162,-0.362 0.362,-0.362z"/>
    <path class="fil2" d="M2.051 1.297c0.108,0 0.206,0.044 0.277,0.115 0.071,0.071 0.115,0.169 0.115,0.277 0,0.108 -0.044,0.206 -0.115,0.277 -0.071,0.071 -0.169,0.115 -0.277,0.115 -0.108,0 -0.206,-0.044 -0.277,-0.115 -0.071,-0.071 -0.115,-0.169 -0.115,-0.277 0,-0.108 0.044,-0.206 0.115,-0.277 0.071,-0.071 0.169,-0.115 0.277,-0.115zm0.235 0.158c-0.061,-0.06 -0.143,-0.097 -0.235,-0.097 -0.092,0 -0.175,0.037 -0.235,0.097 -0.06,0.06 -0.097,0.143 -0.097,0.234 0,0.092 0.037,0.175 0.097,0.235 0.06,0.06 0.143,0.097 0.235,0.097 0.092,0 0.174,-0.037 0.234,-0.097 0.061,-0.06 0.098,-0.143 0.098,-0.235 0,-0.091 -0.037,-0.174 -0.097,-0.234z"/>
    <path class="fil2" d="M1.858 1.707c-0.011,-0.011 -0.011,-0.031 0,-0.042 0.012,-0.012 0.031,-0.012 0.043,0l0.126 0.126 0.201 -0.201c0.012,-0.012 0.031,-0.012 0.043,0 0.012,0.011 0.012,0.03 0,0.042l-0.222 0.223c-0.012,0.012 -0.031,0.012 -0.043,0l-0.148 -0.148z"/>
   </g>
  </g>
 </g>
</svg>
