<?xml version="1.0" encoding="UTF-8"?>
<!DOCTYPE svg PUBLIC "-//W3C//DTD SVG 1.1//EN" "http://www.w3.org/Graphics/SVG/1.1/DTD/svg11.dtd">
<!-- Creator: CorelDRAW 2018 (64-Bit) -->
<svg xmlns="http://www.w3.org/2000/svg" xml:space="preserve" width="40px" height="40px" version="1.1" style="shape-rendering:geometricPrecision; text-rendering:geometricPrecision; image-rendering:optimizeQuality; fill-rule:evenodd; clip-rule:evenodd"
viewBox="0 0 1.483 1.483"
 xmlns:xlink="http://www.w3.org/1999/xlink">
 <defs>
  <style type="text/css">
   <![CDATA[
    .fil0 {fill:none}
    .fil1 {fill:#00F4FF}
    .fil3 {fill:#EAEDF2}
    .fil2 {fill:gray;fill-rule:nonzero}
   ]]>
  </style>
 </defs>
 <g id="Layer_x0020_1">
  <metadata id="CorelCorpID_0Corel-Layer"/>
  <g id="_1859024396448">
   <rect class="fil0" width="1.483" height="1.483"/>
   <path class="fil1" d="M1.085 1.26c-0.128,-0.24 -0.315,-0.402 -0.315,-0.576 0,-0.173 0.141,-0.314 0.315,-0.314 0.174,0 0.314,0.141 0.314,0.314 0,0.174 -0.186,0.336 -0.314,0.576zm0 -0.766l0 0 0 0zm0 0l0.005 0.001 0 0 0.005 0 0 0 0.005 0 0 0 0.004 0 0 0 0.005 0.001 0 0 0.005 0.001 0 0 0.005 0 0 0 0.004 0.001 0 0 0.005 0.001 0 0 0.004 0.001 0 0 0.005 0.002 0 0 0.004 0.001 0 0 0.005 0.001 0 0 0.004 0.002 0 0 0.005 0.002 0 0 0.004 0.001 0.004 0.002 0 0 0.004 0.002 0 0 0.004 0.002 0 0 0.004 0.002 0 0 0.004 0.003 0 0 0.004 0.002 0 0 0.004 0.002 0.004 0.003 0.004 0.002 0.004 0.003 0.003 0.003 0 0 0.004 0.003 0.003 0.003 0.004 0.003 0 0 0.003 0.003 0 0 0.003 0.003 0 0 0.003 0.003 0.004 0.004 0.003 0.003 0.002 0.004 0.003 0.003 0.003 0.004 0.003 0.003 0 0 0.002 0.004 0.003 0.004 0.002 0.004 0.003 0.004 0 0 0.002 0.004 0.002 0.004 0.002 0.004 0.002 0.004 0.002 0.004 0.002 0.005 0.001 0.004 0 0 0.002 0.004 0.001 0.005 0.002 0.004 0 0 0.001 0.005 0.001 0.005 0.001 0.004 0.001 0.005 0.001 0.004 0 0.005 0.001 0.005 0 0.005 0.001 0.005 0 0.005 0 0.004c0,0.105 -0.085,0.19 -0.19,0.19 -0.105,0 -0.19,-0.085 -0.19,-0.19l0 -0.004 0 -0.005 0.001 -0.005 0 -0.005 0 -0.005 0.001 -0.005 0.001 -0.004 0.001 -0.005 0.001 -0.004 0.001 -0.005 0.001 -0.005 0 0 0.001 -0.004 0.002 -0.005 0.001 -0.004 0 0 0.002 -0.004 0.002 -0.005 0.002 -0.004 0.002 -0.004 0.002 -0.004 0.002 -0.004 0.002 -0.004 0 0 0.002 -0.004 0.003 -0.004 0.002 -0.004 0.003 -0.004 0 0 0.003 -0.003 0.002 -0.004 0.003 -0.003 0.003 -0.004 0.003 -0.003 0.003 -0.004 0.004 -0.003 0 0 0.003 -0.003 0 0 0.003 -0.003 0 0 0.004 -0.003 0.003 -0.003 0.004 -0.003 0 0 0.003 -0.003 0.004 -0.003 0.004 -0.002 0.004 -0.003 0.003 -0.002 0 0 0.004 -0.002 0 0 0.004 -0.003 0 0 0.004 -0.002 0 0 0.005 -0.002 0 0 0.004 -0.002 0 0 0.004 -0.002 0.004 -0.001 0 0 0.005 -0.002 0 0 0.004 -0.002 0 0 0.004 -0.001 0 0 0.005 -0.001 0 0 0.004 -0.002 0 0 0.005 -0.001 0 0 0.005 -0.001 0 0 0.004 -0.001 0 0 0.005 0 0 0 0.005 -0.001 0 0 0.004 -0.001 0 0 0.005 0 0 0 0.005 0 0 0 0.005 0 0 0 0.005 -0.001z"/>
   <path class="fil2" d="M1.069 1.268c-0.047,-0.087 -0.102,-0.164 -0.152,-0.235 -0.089,-0.126 -0.165,-0.233 -0.165,-0.349 0,-0.092 0.037,-0.175 0.097,-0.235 0.061,-0.06 0.144,-0.098 0.236,-0.098 0.092,0 0.175,0.038 0.235,0.098 0.061,0.06 0.098,0.143 0.098,0.235 0,0.116 -0.076,0.223 -0.165,0.349 -0.051,0.071 -0.105,0.148 -0.152,0.235 -0.005,0.009 -0.016,0.013 -0.025,0.008 -0.003,-0.002 -0.006,-0.004 -0.007,-0.008zm-0.122 -0.256c0.046,0.064 0.094,0.133 0.138,0.21 0.044,-0.077 0.092,-0.146 0.138,-0.21 0.085,-0.121 0.158,-0.223 0.158,-0.328 0,-0.081 -0.033,-0.155 -0.087,-0.209 -0.053,-0.053 -0.127,-0.087 -0.209,-0.087 -0.082,0 -0.156,0.034 -0.209,0.087 -0.054,0.054 -0.087,0.128 -0.087,0.209 0,0.105 0.073,0.207 0.158,0.328zm0.138 -0.536c0.116,0.001 0.208,0.092 0.208,0.208 0,0.058 -0.023,0.11 -0.061,0.148 -0.037,0.038 -0.09,0.061 -0.147,0.061 -0.058,0 -0.11,-0.023 -0.148,-0.061 -0.037,-0.038 -0.061,-0.09 -0.061,-0.148 0.002,-0.039 0.008,-0.066 0.027,-0.102 0.001,-0.001 0.001,-0.002 0.002,-0.003 0.018,-0.031 0.04,-0.053 0.07,-0.072 0.001,-0.001 0.002,-0.001 0.003,-0.002l0.002 0c0.001,-0.001 0.002,-0.002 0.003,-0.002l0.001 -0.001c0.001,-0.001 0.002,-0.001 0.003,-0.002l0.001 0c0.001,-0.001 0.002,-0.001 0.003,-0.002l0.007 -0.003c0.001,-0.001 0.002,-0.001 0.003,-0.001l0.005 -0.003c0.002,0 0.003,-0.001 0.004,-0.001l0.002 -0.001c0.001,0 0.002,-0.001 0.003,-0.001l0.001 0c0.001,-0.001 0.003,-0.001 0.004,-0.002l0.001 0c0.001,-0.001 0.003,-0.001 0.004,-0.001 0.007,-0.002 0.014,-0.004 0.021,-0.005 0.001,-0.001 0.003,-0.001 0.004,-0.001l0.001 0c0.002,-0.001 0.003,-0.001 0.004,-0.001 0.01,-0.001 0.02,-0.002 0.03,-0.002zm0.003 0.037c-0.092,-0.001 -0.178,0.077 -0.174,0.171 0,0.048 0.019,0.091 0.05,0.122 0.031,0.031 0.074,0.05 0.121,0.05 0.047,0 0.09,-0.019 0.121,-0.05 0.031,-0.031 0.05,-0.074 0.05,-0.122 0.001,-0.096 -0.074,-0.166 -0.168,-0.171z"/>
   <path class="fil3" d="M0.322 0.705c-0.075,-0.139 -0.183,-0.234 -0.183,-0.335 0,-0.102 0.082,-0.184 0.183,-0.184 0.101,0 0.184,0.082 0.184,0.184 0,0.101 -0.109,0.196 -0.184,0.335zm0 -0.446l0 0 0 0zm0 0l0.003 0 0 0 0.003 0 0 0 0.003 0 0 0 0.002 0.001 0 0 0.003 0 0 0 0.003 0 0 0 0.003 0.001 0 0 0.002 0 0 0 0.003 0.001 0 0 0.003 0 0 0 0.002 0.001 0 0 0.003 0.001 0 0 0.003 0.001 0 0 0.002 0.001 0 0 0.003 0.001 0 0 0.002 0.001 0.003 0.001 0 0 0.002 0.001 0 0 0.003 0.001 0 0 0.002 0.001 0 0 0.002 0.002 0 0 0.003 0.001 0 0 0.002 0.001 0.002 0.002 0.002 0.001 0.002 0.002 0.003 0.002 0 0 0.002 0.001 0.002 0.002 0.002 0.002 0 0 0.002 0.002 0 0 0.001 0.001 0 0 0.002 0.002 0.002 0.002 0.002 0.002 0.002 0.002 0.001 0.002 0.002 0.002 0.001 0.003 0 0 0.002 0.002 0.001 0.002 0.002 0.002 0.001 0.003 0 0 0.002 0.002 0.001 0.002 0.001 0.003 0.001 0.002 0.001 0.003 0.001 0.002 0.001 0.003 0 0 0.001 0.002 0.001 0.003 0.001 0.002 0 0 0 0.003 0.001 0.003 0.001 0.002 0 0.003 0.001 0.003 0 0.003 0 0.002 0.001 0.003 0 0.003 0 0.003 0 0.003c0,0.061 -0.05,0.111 -0.111,0.111 -0.061,0 -0.111,-0.05 -0.111,-0.111l0 -0.003 0 -0.003 0.001 -0.003 0 -0.003 0 -0.002 0.001 -0.003 0 -0.003 0.001 -0.003 0 -0.002 0.001 -0.003 0.001 -0.003 0 0 0 -0.002 0.001 -0.003 0.001 -0.002 0 0 0.001 -0.003 0.001 -0.002 0.001 -0.003 0.001 -0.002 0.001 -0.003 0.002 -0.002 0.001 -0.002 0 0 0.001 -0.003 0.002 -0.002 0.001 -0.002 0.002 -0.002 0 0 0.001 -0.003 0.002 -0.002 0.002 -0.002 0.001 -0.002 0.002 -0.002 0.002 -0.002 0.002 -0.002 0 0 0.002 -0.001 0 0 0.002 -0.002 0 0 0.002 -0.002 0.002 -0.002 0.002 -0.001 0 0 0.002 -0.002 0.002 -0.002 0.002 -0.001 0.002 -0.002 0.003 -0.001 0 0 0.002 -0.001 0 0 0.002 -0.002 0 0 0.003 -0.001 0 0 0.002 -0.001 0 0 0.003 -0.001 0 0 0.002 -0.001 0.002 -0.001 0 0 0.003 -0.001 0 0 0.003 -0.001 0 0 0.002 -0.001 0 0 0.003 -0.001 0 0 0.002 -0.001 0 0 0.003 0 0 0 0.003 -0.001 0 0 0.003 0 0 0 0.002 -0.001 0 0 0.003 0 0 0 0.003 0 0 0 0.003 -0.001 0 0 0.002 0 0 0 0.003 0 0 0 0.003 0z"/>
   <path class="fil2" d="M0.306 0.714c-0.027,-0.05 -0.059,-0.095 -0.088,-0.136 -0.053,-0.075 -0.098,-0.138 -0.098,-0.208 0,-0.056 0.023,-0.106 0.059,-0.143 0.037,-0.037 0.087,-0.059 0.143,-0.059 0.056,0 0.106,0.022 0.143,0.059 0.037,0.037 0.059,0.087 0.059,0.143 0,0.07 -0.045,0.133 -0.098,0.208l0 0.001c-0.029,0.041 -0.061,0.085 -0.088,0.135 -0.004,0.009 -0.016,0.012 -0.025,0.008 -0.003,-0.002 -0.006,-0.005 -0.007,-0.008zm-0.058 -0.158c0.024,0.035 0.05,0.071 0.074,0.112 0.024,-0.04 0.049,-0.077 0.073,-0.111l0.001 -0.001c0.049,-0.069 0.091,-0.128 0.091,-0.186 0,-0.046 -0.018,-0.087 -0.048,-0.117 -0.03,-0.03 -0.071,-0.048 -0.117,-0.048 -0.045,0 -0.087,0.018 -0.117,0.048 -0.029,0.03 -0.048,0.071 -0.048,0.117 0,0.058 0.042,0.117 0.091,0.186zm0.074 -0.315c0.072,0 0.129,0.057 0.129,0.129 0,0.035 -0.014,0.068 -0.037,0.091l-0.001 0c-0.023,0.024 -0.055,0.038 -0.091,0.038 -0.035,0 -0.068,-0.014 -0.091,-0.038l0 0c-0.024,-0.023 -0.038,-0.056 -0.038,-0.091 0.001,-0.028 0.006,-0.051 0.023,-0.074 0,-0.001 0.001,-0.002 0.002,-0.002 0.012,-0.017 0.026,-0.029 0.044,-0.038 0,-0.001 0.002,-0.002 0.003,-0.002l0.002 -0.001c0.002,-0.001 0.003,-0.002 0.004,-0.002 0.006,-0.002 0.011,-0.004 0.018,-0.006 0.001,0 0.002,-0.001 0.003,-0.001l0.006 -0.001c0.001,0 0.002,-0.001 0.003,-0.001 0.007,-0.001 0.014,-0.001 0.021,-0.001zm0.001 0.036c-0.049,0 -0.095,0.042 -0.093,0.093 0,0.025 0.01,0.048 0.027,0.065 0.017,0.017 0.04,0.027 0.065,0.027 0.026,0 0.049,-0.01 0.065,-0.027 0.017,-0.017 0.027,-0.04 0.027,-0.065 0.002,-0.052 -0.041,-0.09 -0.091,-0.093z"/>
   <path class="fil2" d="M0.396 0.761c-0.01,0 -0.018,-0.008 -0.018,-0.019 0,-0.01 0.008,-0.018 0.018,-0.018l0.169 0c0.036,0 0.069,0.015 0.092,0.038 0.024,0.024 0.038,0.056 0.038,0.092 0,0.036 -0.014,0.069 -0.038,0.092 -0.023,0.024 -0.056,0.039 -0.092,0.039l-0.316 0c-0.04,0 -0.077,0.016 -0.104,0.043 -0.026,0.026 -0.043,0.063 -0.043,0.103 0,0.041 0.017,0.078 0.043,0.104 0.027,0.027 0.064,0.043 0.104,0.043l0.762 0c0.01,0 0.018,0.009 0.018,0.019 0,0.01 -0.008,0.018 -0.018,0.018l-0.762 0c-0.05,0 -0.096,-0.02 -0.13,-0.054 -0.033,-0.033 -0.054,-0.079 -0.054,-0.13 0,-0.05 0.021,-0.096 0.054,-0.129 0.034,-0.034 0.08,-0.055 0.13,-0.055l0.316 0c0.026,0 0.049,-0.01 0.066,-0.027 0.017,-0.017 0.027,-0.04 0.027,-0.066 0,-0.025 -0.01,-0.049 -0.027,-0.066 -0.017,-0.016 -0.04,-0.027 -0.066,-0.027l-0.169 0z"/>
  </g>
 </g>
</svg>
