<?xml version="1.0" encoding="UTF-8"?>
<!DOCTYPE svg PUBLIC "-//W3C//DTD SVG 1.1//EN" "http://www.w3.org/Graphics/SVG/1.1/DTD/svg11.dtd">
<!-- Creator: CorelDRAW 2018 (64-Bit) -->
<svg xmlns="http://www.w3.org/2000/svg" xml:space="preserve" width="150px" height="72px" version="1.1" style="shape-rendering:geometricPrecision; text-rendering:geometricPrecision; image-rendering:optimizeQuality; fill-rule:evenodd; clip-rule:evenodd"
viewBox="0 0 40.954 19.658"
 xmlns:xlink="http://www.w3.org/1999/xlink">
 <defs>
  <style type="text/css">
   <![CDATA[
    .fil0 {fill:none}
    .fil5 {fill:#00F4FF}
    .fil1 {fill:#EAEDF2}
    .fil3 {fill:white}
    .fil4 {fill:gray;fill-rule:nonzero}
    .fil2 {fill:#EAEDF2;fill-rule:nonzero}
   ]]>
  </style>
 </defs>
 <g id="Layer_x0020_1">
  <metadata id="CorelCorpID_0Corel-Layer"/>
  <g id="_1698809124800">
   <rect class="fil0" width="40.954" height="19.658"/>
   <path class="fil1" d="M2.539 14.655l0 0c0.106,0.106 0.279,0.106 0.386,0l0.522 -0.522 0.522 0.522c0.106,0.106 0.28,0.106 0.386,0l0 0c0.106,-0.106 0.106,-0.28 0,-0.386l-0.522 -0.522 0.522 -0.523c0.106,-0.106 0.106,-0.279 0,-0.386l0 0c-0.106,-0.106 -0.28,-0.106 -0.386,0l-0.522 0.522 -0.522 -0.522c-0.107,-0.106 -0.28,-0.106 -0.386,0l-0.001 0c-0.106,0.107 -0.106,0.28 0,0.386l0.523 0.523 -0.522 0.522c-0.107,0.106 -0.107,0.28 0,0.386z"/>
   <path class="fil1" d="M37.76 12.013l0 0c0.15,0 0.273,-0.123 0.273,-0.273l0 -0.739 0.739 0c0.15,0 0.273,-0.122 0.273,-0.273l0 0c0,-0.15 -0.123,-0.273 -0.273,-0.273l-0.739 0 0 -0.738c0,-0.15 -0.123,-0.273 -0.273,-0.273l0 0c-0.15,0 -0.273,0.123 -0.273,0.273l0 0.738 -0.738 0c-0.151,0 -0.273,0.123 -0.273,0.273l0 0c0,0.151 0.122,0.273 0.273,0.273l0.738 0 0 0.739c0,0.15 0.123,0.273 0.273,0.273z"/>
   <path class="fil1" d="M32.131 15.954c0.529,0 0.958,0.429 0.958,0.957 0,0.529 -0.429,0.958 -0.958,0.958 -0.529,0 -0.957,-0.429 -0.957,-0.958 0,-0.528 0.428,-0.957 0.957,-0.957z"/>
   <polygon class="fil1" points="31.629,4.098 32.913,2.183 34.198,4.098 "/>
   <path class="fil2" d="M7.365 4.492c0.373,0 0.711,-0.151 0.955,-0.396 0.245,-0.244 0.396,-0.582 0.396,-0.955 0,-0.374 -0.151,-0.712 -0.396,-0.956 -0.244,-0.245 -0.582,-0.396 -0.955,-0.396 -0.374,0 -0.712,0.151 -0.956,0.396 -0.245,0.244 -0.396,0.582 -0.396,0.956 0,0.373 0.151,0.711 0.396,0.955 0.244,0.245 0.582,0.396 0.956,0.396zm0.762 -0.589c-0.195,0.195 -0.465,0.316 -0.762,0.316 -0.298,0 -0.568,-0.121 -0.763,-0.316 -0.195,-0.195 -0.316,-0.464 -0.316,-0.762 0,-0.298 0.121,-0.568 0.316,-0.763 0.195,-0.195 0.465,-0.316 0.763,-0.316 0.297,0 0.567,0.121 0.762,0.316 0.195,0.195 0.316,0.465 0.316,0.763 0,0.297 -0.121,0.567 -0.316,0.762z"/>
   <path class="fil1" d="M23.188 17.869c3.16,0 6.722,-2.215 6.383,-7.835 -0.339,-5.62 -4.386,-7.926 -10.664,-7.876 -6.278,0.049 -9.461,3.371 -9.461,6.379 0,3.008 2.963,3.078 6.832,4.623 3.868,1.544 3.75,4.709 6.91,4.709z"/>
   <path class="fil3" d="M15.871 16.385c0.806,0 1.459,0.162 1.459,0.363 0,0.201 -0.653,0.364 -1.459,0.364 -0.805,0 -1.458,-0.163 -1.458,-0.364 0,-0.201 0.653,-0.363 1.458,-0.363z"/>
   <path class="fil4" d="M15.871 16.248c0.413,0 0.79,0.043 1.064,0.111 0.329,0.082 0.532,0.218 0.532,0.389 0,0.171 -0.203,0.308 -0.532,0.389 -0.274,0.069 -0.651,0.111 -1.064,0.111 -0.412,0 -0.789,-0.042 -1.064,-0.111 -0.328,-0.081 -0.531,-0.218 -0.531,-0.389 0,-0.171 0.203,-0.307 0.531,-0.389 0.275,-0.068 0.652,-0.111 1.064,-0.111zm0.999 0.375c-0.253,-0.063 -0.606,-0.102 -0.999,-0.102 -0.392,0 -0.745,0.039 -0.998,0.102 -0.2,0.05 -0.324,0.096 -0.324,0.125 0,0.03 0.124,0.075 0.323,0.125 0.254,0.063 0.607,0.102 0.999,0.102 0.393,0 0.746,-0.039 0.999,-0.102 0.2,-0.05 0.324,-0.095 0.324,-0.125 0,-0.029 -0.124,-0.075 -0.324,-0.125z"/>
   <path class="fil5" d="M25.173 10.518l-1.54 -2.159 1.54 -2.159 -5.175 0 -0.569 0.257 0 3.467 -0.096 0c-0.164,0 -0.297,0.134 -0.297,0.297l0 0c0,0.164 0.133,0.297 0.297,0.297 1.946,0 3.893,0 5.84,0z"/>
   <path class="fil4" d="M24.908 10.382l-1.386 -1.944c-0.035,-0.049 -0.033,-0.114 0.001,-0.16l1.385 -1.942 -4.881 0 -0.461 0.208 0 3.38c0,0.075 -0.061,0.136 -0.137,0.136l-0.096 0c-0.045,0 -0.085,0.018 -0.114,0.047 -0.029,0.03 -0.047,0.07 -0.047,0.114 0,0.044 0.018,0.085 0.047,0.114 0.029,0.029 0.069,0.047 0.114,0.047l5.575 0zm-1.108 -2.023l1.478 2.072c0.019,0.024 0.031,0.054 0.031,0.087 0,0.076 -0.061,0.137 -0.136,0.137l-5.84 0c-0.119,0 -0.228,-0.049 -0.306,-0.128 -0.079,-0.079 -0.128,-0.187 -0.128,-0.306 0,-0.119 0.049,-0.228 0.127,-0.306 0.07,-0.07 0.164,-0.116 0.267,-0.126l0 -3.332c0,-0.052 0.03,-0.102 0.08,-0.125l0.561 -0.253c0.019,-0.01 0.041,-0.016 0.064,-0.016l5.175 0c0.027,0.001 0.055,0.009 0.079,0.026 0.061,0.043 0.075,0.129 0.032,0.19l-1.484 2.08z"/>
   <path class="fil3" d="M15.871 4.16l0 0c0.154,0 0.281,0.126 0.281,0.28l0 12.665 -0.561 0 0 -12.665c0,-0.154 0.126,-0.28 0.28,-0.28z"/>
   <path class="fil4" d="M15.871 4.024c0.115,0 0.219,0.047 0.295,0.122 0.075,0.075 0.122,0.18 0.122,0.294l0 12.665c0,0.075 -0.061,0.137 -0.136,0.137l-0.561 0c-0.075,0 -0.136,-0.062 -0.136,-0.137l0 -12.665c0,-0.114 0.047,-0.219 0.122,-0.294 0.075,-0.075 0.18,-0.122 0.294,-0.122zm0 0.273c-0.039,0 -0.075,0.016 -0.101,0.042 -0.026,0.026 -0.042,0.062 -0.042,0.101l0 12.529 0.287 0 0 -12.529c0,-0.039 -0.016,-0.075 -0.042,-0.101 -0.026,-0.026 -0.062,-0.042 -0.102,-0.042z"/>
   <path class="fil3" d="M15.871 3.461c0.387,0 0.7,0.313 0.7,0.699 0,0.387 -0.313,0.7 -0.7,0.7 -0.386,0 -0.699,-0.313 -0.699,-0.7 0,-0.386 0.313,-0.699 0.699,-0.699z"/>
   <path class="fil4" d="M15.871 3.324c0.231,0 0.44,0.094 0.592,0.245 0.151,0.151 0.245,0.36 0.245,0.591 0,0.231 -0.094,0.44 -0.245,0.591 -0.152,0.152 -0.361,0.245 -0.592,0.245 -0.23,0 -0.439,-0.093 -0.591,-0.245 -0.151,-0.151 -0.245,-0.36 -0.245,-0.591 0,-0.231 0.094,-0.44 0.245,-0.591l0.009 -0.008c0.15,-0.146 0.356,-0.237 0.582,-0.237zm0.399 0.438c-0.102,-0.102 -0.243,-0.165 -0.399,-0.165 -0.152,0 -0.291,0.06 -0.392,0.158l-0.006 0.007c-0.101,0.102 -0.165,0.243 -0.165,0.398 0,0.156 0.064,0.297 0.165,0.398 0.102,0.102 0.243,0.165 0.398,0.165 0.156,0 0.297,-0.063 0.399,-0.165 0.101,-0.101 0.165,-0.242 0.165,-0.398 0,-0.155 -0.064,-0.296 -0.165,-0.398z"/>
   <path class="fil5" d="M16.152 5.011l4.291 0c0.313,0 0.569,0.256 0.569,0.569l0 3.75 0 0.297c0,-0.164 -0.134,-0.297 -0.297,-0.297l-4.563 0 0 -4.319z"/>
   <path class="fil4" d="M16.152 4.875l4.291 0c0.194,0 0.371,0.079 0.498,0.207 0.128,0.128 0.207,0.304 0.207,0.498l0 4.047 -0.273 0c0,-0.045 -0.018,-0.085 -0.046,-0.114 -0.03,-0.029 -0.07,-0.047 -0.114,-0.047l-4.563 0c-0.076,0 -0.137,-0.061 -0.137,-0.136l0 -4.319c0,-0.075 0.061,-0.136 0.137,-0.136zm4.291 0.273l-4.155 0 0 4.045 4.427 0c0.056,0 0.111,0.011 0.16,0.031l0 -3.644c0,-0.119 -0.048,-0.227 -0.127,-0.305 -0.078,-0.078 -0.186,-0.127 -0.305,-0.127z"/>
   <path class="fil3" d="M19.036 9.33l1.679 0c0.163,0 0.297,0.133 0.297,0.297l0 0c0,0.163 -0.134,0.297 -0.297,0.297l-1.382 0c-0.164,0 -0.297,0.134 -0.297,0.297l0 -0.297 0 -0.594z"/>
   <path class="fil4" d="M19.036 9.193l1.679 0c0.119,0 0.227,0.049 0.306,0.127l0 0.001c0.079,0.079 0.127,0.187 0.127,0.306 0,0.119 -0.048,0.228 -0.127,0.306 -0.078,0.079 -0.187,0.127 -0.306,0.127l-1.382 0c-0.045,0 -0.085,0.018 -0.114,0.047 -0.029,0.03 -0.047,0.07 -0.047,0.114l-0.273 0 0 -0.891c0,-0.076 0.061,-0.137 0.137,-0.137zm1.679 0.273l-1.543 0 0 0.353c0.05,-0.021 0.104,-0.032 0.161,-0.032l1.382 0c0.044,0 0.084,-0.018 0.113,-0.047 0.029,-0.029 0.047,-0.069 0.047,-0.113 0,-0.045 -0.018,-0.085 -0.046,-0.114 -0.03,-0.029 -0.07,-0.047 -0.114,-0.047z"/>
  </g>
 </g>
</svg>
