<?xml version="1.0" encoding="UTF-8"?>
<!DOCTYPE svg PUBLIC "-//W3C//DTD SVG 1.1//EN" "http://www.w3.org/Graphics/SVG/1.1/DTD/svg11.dtd">
<!-- Creator: CorelDRAW 2018 (64-Bit) -->
<svg xmlns="http://www.w3.org/2000/svg" xml:space="preserve" width="150px" height="72px" version="1.1" style="shape-rendering:geometricPrecision; text-rendering:geometricPrecision; image-rendering:optimizeQuality; fill-rule:evenodd; clip-rule:evenodd"
viewBox="0 0 40.954 19.658"
 xmlns:xlink="http://www.w3.org/1999/xlink">
 <defs>
  <style type="text/css">
   <![CDATA[
    .fil0 {fill:none}
    .fil5 {fill:#00F4FF}
    .fil1 {fill:#EAEDF2}
    .fil3 {fill:white}
    .fil4 {fill:gray;fill-rule:nonzero}
    .fil2 {fill:#EAEDF2;fill-rule:nonzero}
   ]]>
  </style>
 </defs>
 <g id="Layer_x0020_1">
  <metadata id="CorelCorpID_0Corel-Layer"/>
  <g id="_2492938482224">
   <rect class="fil0" width="40.954" height="19.658"/>
   <path class="fil1" d="M2.264 14.655l0 0c0.106,0.106 0.28,0.106 0.386,0l0.522 -0.522 0.522 0.522c0.107,0.106 0.28,0.106 0.386,0l0.001 0c0.106,-0.106 0.106,-0.28 0,-0.386l-0.523 -0.522 0.523 -0.523c0.106,-0.106 0.106,-0.279 0,-0.386l0 0c-0.107,-0.106 -0.28,-0.106 -0.387,0l-0.522 0.522 -0.522 -0.522c-0.106,-0.106 -0.28,-0.106 -0.386,0l0 0c-0.106,0.107 -0.106,0.28 0,0.386l0.522 0.523 -0.522 0.522c-0.106,0.106 -0.106,0.28 0,0.386z"/>
   <path class="fil1" d="M37.485 12.013l0.001 0c0.15,0 0.272,-0.123 0.272,-0.273l0 -0.739 0.739 0c0.15,0 0.273,-0.122 0.273,-0.273l0 0c0,-0.15 -0.123,-0.273 -0.273,-0.273l-0.739 0 0 -0.738c0,-0.15 -0.122,-0.273 -0.272,-0.273l-0.001 0c-0.15,0 -0.273,0.123 -0.273,0.273l0 0.738 -0.738 0c-0.15,0 -0.273,0.123 -0.273,0.273l0 0c0,0.151 0.123,0.273 0.273,0.273l0.738 0 0 0.739c0,0.15 0.123,0.273 0.273,0.273z"/>
   <path class="fil1" d="M27.966 14.371c0.529,0 0.957,0.428 0.957,0.957 0,0.529 -0.428,0.957 -0.957,0.957 -0.529,0 -0.957,-0.428 -0.957,-0.957 0,-0.529 0.428,-0.957 0.957,-0.957z"/>
   <polygon class="fil1" points="31.354,4.098 32.639,2.183 33.923,4.098 "/>
   <path class="fil2" d="M7.09 4.492c0.373,0 0.711,-0.151 0.956,-0.396 0.244,-0.244 0.395,-0.582 0.395,-0.955 0,-0.374 -0.151,-0.712 -0.395,-0.956 -0.245,-0.245 -0.583,-0.396 -0.956,-0.396 -0.373,0 -0.711,0.151 -0.956,0.396 -0.245,0.244 -0.396,0.582 -0.396,0.956 0,0.373 0.151,0.711 0.396,0.955 0.245,0.245 0.583,0.396 0.956,0.396zm0.763 -0.589c-0.196,0.195 -0.465,0.316 -0.763,0.316 -0.298,0 -0.568,-0.121 -0.763,-0.316 -0.195,-0.195 -0.316,-0.464 -0.316,-0.762 0,-0.298 0.121,-0.568 0.316,-0.763 0.195,-0.195 0.465,-0.316 0.763,-0.316 0.298,0 0.567,0.121 0.763,0.316 0.195,0.195 0.315,0.465 0.315,0.763 0,0.297 -0.12,0.567 -0.315,0.762z"/>
   <path class="fil1" d="M15.838 17.869c-3.16,0 -6.722,-2.215 -6.382,-7.835 0.339,-5.62 4.385,-7.926 10.663,-7.876 6.279,0.049 9.461,3.371 9.461,6.379 0,3.008 -2.963,3.078 -6.831,4.623 -3.868,1.544 -3.751,4.709 -6.911,4.709z"/>
   <polygon class="fil3" points="16.937,14.009 22.077,14.009 22.077,16.038 16.937,16.038 "/>
   <path class="fil4" d="M16.937 13.873l5.14 0c0.075,0 0.136,0.061 0.136,0.136l0 2.029c0,0.075 -0.061,0.136 -0.136,0.136l-5.14 0c-0.075,0 -0.136,-0.061 -0.136,-0.136l0 -2.029c0,-0.075 0.061,-0.136 0.136,-0.136zm5.003 0.273l-4.866 0 0 1.755 4.866 0 0 -1.755z"/>
   <polygon class="fil1" points="15.651,16.908 23.363,16.908 23.363,16.038 15.651,16.038 "/>
   <path class="fil4" d="M15.787 16.772l7.439 0 0 -0.598 -7.439 0 0 0.598zm7.576 0.273l-7.712 0c-0.076,0 -0.137,-0.062 -0.137,-0.137l0 -0.87c0,-0.075 0.061,-0.137 0.137,-0.137l7.712 0c0.075,0 0.136,0.062 0.136,0.137l0 0.87c0,0.075 -0.061,0.137 -0.136,0.137z"/>
   <polygon class="fil3" points="19.065,10.288 19.948,10.288 19.948,14.009 19.065,14.009 "/>
   <path class="fil4" d="M19.065 10.152l0.883 0c0.076,0 0.137,0.061 0.137,0.136l0 3.721c0,0.076 -0.061,0.137 -0.137,0.137l-0.883 0c-0.075,0 -0.136,-0.061 -0.136,-0.137l0 -3.721c0,-0.075 0.061,-0.136 0.136,-0.136zm0.747 0.273l-0.61 0 0 3.448 0.61 0 0 -3.448z"/>
   <polygon class="fil5" points="19.507,3.254 21.13,6.302 24.531,6.904 22.134,9.39 22.612,12.81 19.507,11.299 16.402,12.81 16.88,9.39 14.483,6.904 17.883,6.302 "/>
   <path class="fil4" d="M19.627 3.191l1.592 2.988 3.335 0.591c0.074,0.013 0.124,0.083 0.111,0.158 -0.005,0.03 -0.021,0.057 -0.042,0.076l-2.345 2.433 0.469 3.354c0.01,0.075 -0.042,0.144 -0.117,0.154 -0.027,0.004 -0.054,-0.001 -0.078,-0.013l-3.045 -1.482 -3.045 1.483c-0.068,0.032 -0.15,0.004 -0.183,-0.063 -0.013,-0.028 -0.017,-0.058 -0.011,-0.086l0.468 -3.347 -2.351 -2.439c-0.052,-0.054 -0.051,-0.14 0.004,-0.192 0.02,-0.02 0.045,-0.032 0.071,-0.036l3.335 -0.591 1.592 -2.989c0.035,-0.066 0.118,-0.091 0.184,-0.056 0.025,0.013 0.044,0.034 0.056,0.057zm1.383 3.175l-1.503 -2.823 -1.499 2.814c-0.018,0.04 -0.055,0.071 -0.101,0.079l-3.148 0.558 2.217 2.299c0.029,0.029 0.045,0.071 0.039,0.116l-0.443 3.166 2.875 -1.399c0.036,-0.018 0.08,-0.019 0.12,0l2.874 1.399 -0.442 -3.166c-0.006,-0.04 0.006,-0.082 0.036,-0.113l2.22 -2.302 -3.148 -0.558c-0.04,-0.007 -0.076,-0.032 -0.097,-0.07z"/>
   <polygon class="fil3" points="19.507,6.78 18.967,7.793 17.836,7.994 18.633,8.82 18.474,9.957 19.507,9.455 20.539,9.957 20.38,8.82 21.177,7.994 20.047,7.793 "/>
   <path class="fil4" d="M19.507 7.069l-0.42 0.788c-0.021,0.039 -0.057,0.063 -0.097,0.07l-0.878 0.156 0.619 0.643c0.03,0.031 0.043,0.073 0.037,0.113l-0.123 0.884 0.802 -0.391c0.039,-0.019 0.083,-0.017 0.12,0l0.802 0.391 -0.124 -0.884c-0.006,-0.044 0.01,-0.086 0.039,-0.115l0.617 -0.641 -0.878 -0.155c-0.047,-0.008 -0.084,-0.039 -0.101,-0.08l-0.415 -0.779zm-0.629 0.602l0.508 -0.954c0.013,-0.024 0.032,-0.044 0.057,-0.057 0.066,-0.035 0.148,-0.01 0.184,0.056l0.508 0.955 1.065 0.188c0.026,0.005 0.051,0.017 0.071,0.036 0.055,0.053 0.056,0.139 0.004,0.193l-0.751 0.779 0.149 1.065c0.005,0.028 0.002,0.058 -0.011,0.085 -0.033,0.068 -0.115,0.096 -0.183,0.063l-0.972 -0.474 -0.973 0.474c-0.024,0.011 -0.051,0.016 -0.078,0.012 -0.075,-0.01 -0.127,-0.079 -0.117,-0.153l0.15 -1.072 -0.745 -0.773c-0.021,-0.02 -0.037,-0.046 -0.042,-0.077 -0.013,-0.074 0.037,-0.145 0.111,-0.158l1.065 -0.188z"/>
  </g>
 </g>
</svg>
