<?xml version="1.0" encoding="UTF-8"?>
<!DOCTYPE svg PUBLIC "-//W3C//DTD SVG 1.1//EN" "http://www.w3.org/Graphics/SVG/1.1/DTD/svg11.dtd">
<!-- Creator: CorelDRAW 2018 (64-Bit) -->
<svg xmlns="http://www.w3.org/2000/svg" xml:space="preserve" width="150px" height="72px" version="1.1" style="shape-rendering:geometricPrecision; text-rendering:geometricPrecision; image-rendering:optimizeQuality; fill-rule:evenodd; clip-rule:evenodd"
viewBox="0 0 40.957 19.659"
 xmlns:xlink="http://www.w3.org/1999/xlink">
 <defs>
  <style type="text/css">
   <![CDATA[
    .fil0 {fill:none}
    .fil5 {fill:#00F4FF}
    .fil1 {fill:#EAEDF2}
    .fil3 {fill:white}
    .fil4 {fill:gray;fill-rule:nonzero}
    .fil2 {fill:#EAEDF2;fill-rule:nonzero}
   ]]>
  </style>
 </defs>
 <g id="Layer_x0020_1">
  <metadata id="CorelCorpID_0Corel-Layer"/>
  <g id="_2493368664192">
   <rect class="fil0" width="40.957" height="19.659"/>
   <path class="fil1" d="M2.264 14.656l0 0c0.106,0.106 0.28,0.106 0.386,0l0.522 -0.522 0.523 0.522c0.106,0.106 0.28,0.106 0.386,0l0 0c0.106,-0.106 0.106,-0.28 0,-0.386l-0.522 -0.522 0.522 -0.523c0.106,-0.106 0.106,-0.279 0,-0.386l0 0c-0.106,-0.106 -0.28,-0.106 -0.386,0l-0.522 0.523 -0.523 -0.523c-0.106,-0.106 -0.28,-0.106 -0.386,0l0 0.001c-0.106,0.106 -0.106,0.279 0,0.386l0.522 0.522 -0.522 0.522c-0.106,0.106 -0.106,0.28 0,0.386z"/>
   <path class="fil1" d="M37.489 12.014l0 0c0.15,0 0.273,-0.123 0.273,-0.273l0 -0.739 0.738 0c0.15,0 0.273,-0.123 0.273,-0.273l0 0c0,-0.15 -0.123,-0.273 -0.273,-0.273l-0.738 0 0 -0.738c0,-0.151 -0.123,-0.273 -0.273,-0.273l0 0c-0.151,0 -0.273,0.122 -0.273,0.273l0 0.738 -0.739 0c-0.15,0 -0.273,0.123 -0.273,0.273l0 0c0,0.15 0.123,0.273 0.273,0.273l0.739 0 0 0.739c0,0.15 0.122,0.273 0.273,0.273z"/>
   <path class="fil1" d="M30.399 14.372c0.529,0 0.958,0.429 0.958,0.957 0,0.529 -0.429,0.958 -0.958,0.958 -0.528,0 -0.957,-0.429 -0.957,-0.958 0,-0.528 0.429,-0.957 0.957,-0.957z"/>
   <polygon class="fil1" points="31.357,4.098 32.642,2.184 33.926,4.098 "/>
   <path class="fil2" d="M7.09 4.493c0.374,0 0.712,-0.152 0.956,-0.396 0.245,-0.245 0.396,-0.583 0.396,-0.956 0,-0.373 -0.151,-0.711 -0.396,-0.956 -0.244,-0.245 -0.582,-0.396 -0.956,-0.396 -0.373,0 -0.711,0.151 -0.955,0.396 -0.245,0.245 -0.396,0.583 -0.396,0.956 0,0.373 0.151,0.711 0.396,0.956 0.244,0.244 0.582,0.396 0.955,0.396zm0.763 -0.589c-0.195,0.195 -0.465,0.316 -0.763,0.316 -0.298,0 -0.567,-0.121 -0.762,-0.316 -0.196,-0.195 -0.316,-0.465 -0.316,-0.763 0,-0.298 0.12,-0.568 0.316,-0.763 0.195,-0.195 0.465,-0.316 0.762,-0.316 0.298,0 0.568,0.121 0.763,0.316 0.195,0.195 0.316,0.465 0.316,0.763 0,0.298 -0.121,0.568 -0.316,0.763z"/>
   <path class="fil1" d="M15.84 17.87c-3.161,0 -6.723,-2.215 -6.384,-7.835 0.34,-5.62 4.386,-7.926 10.665,-7.877 6.279,0.049 9.462,3.371 9.462,6.379 0,3.009 -2.964,3.079 -6.832,4.624 -3.869,1.545 -3.751,4.709 -6.911,4.709z"/>
   <path class="fil3" d="M12.773 5.099l12.379 0c0.2,0 0.364,0.164 0.364,0.364l0 8.01c0,0.2 -0.164,0.364 -0.364,0.364l-12.379 0c-0.2,0 -0.364,-0.164 -0.364,-0.364l0 -8.01c0,-0.2 0.164,-0.364 0.364,-0.364z"/>
   <path class="fil4" d="M12.773 4.962l12.379 0c0.137,0 0.262,0.057 0.353,0.147 0.091,0.092 0.147,0.217 0.147,0.354l0 8.01c0,0.137 -0.056,0.263 -0.147,0.353 -0.09,0.091 -0.216,0.147 -0.353,0.147l-12.379 0c-0.137,0 -0.263,-0.056 -0.353,-0.147 -0.091,-0.09 -0.147,-0.216 -0.147,-0.353l0 -8.01c0,-0.137 0.056,-0.262 0.147,-0.353 0.091,-0.091 0.216,-0.148 0.353,-0.148zm12.379 0.273l-12.379 0c-0.062,0 -0.119,0.026 -0.161,0.067 -0.041,0.041 -0.066,0.098 -0.066,0.161l0 8.01c0,0.062 0.025,0.119 0.067,0.16 0.041,0.041 0.098,0.067 0.16,0.067l12.379 0c0.062,0 0.119,-0.026 0.16,-0.067 0.041,-0.041 0.067,-0.098 0.067,-0.16l0 -8.01c0,-0.063 -0.026,-0.12 -0.067,-0.161 -0.041,-0.041 -0.098,-0.067 -0.16,-0.067z"/>
   <path class="fil4" d="M16.551 11.032c-0.075,0 -0.136,-0.061 -0.136,-0.136 0,-0.076 0.061,-0.137 0.136,-0.137l3.095 0c0.076,0 0.137,0.061 0.137,0.137 0,0.075 -0.061,0.136 -0.137,0.136l-3.095 0z"/>
   <path class="fil4" d="M15.459 10.759c0.076,0 0.137,0.061 0.137,0.137 0,0.075 -0.061,0.136 -0.137,0.136l-0.56 0c-0.075,0 -0.136,-0.061 -0.136,-0.136 0,-0.076 0.061,-0.137 0.136,-0.137l0.56 0z"/>
   <path class="fil4" d="M16.551 9.604c-0.075,0 -0.136,-0.061 -0.136,-0.136 0,-0.076 0.061,-0.137 0.136,-0.137l6.475 0c0.075,0 0.136,0.061 0.136,0.137 0,0.075 -0.061,0.136 -0.136,0.136l-6.475 0z"/>
   <path class="fil4" d="M15.459 9.331c0.076,0 0.137,0.061 0.137,0.137 0,0.075 -0.061,0.136 -0.137,0.136l-0.56 0c-0.075,0 -0.136,-0.061 -0.136,-0.136 0,-0.076 0.061,-0.137 0.136,-0.137l0.56 0z"/>
   <path class="fil4" d="M16.551 8.176c-0.075,0 -0.136,-0.061 -0.136,-0.136 0,-0.076 0.061,-0.137 0.136,-0.137l6.475 0c0.075,0 0.136,0.061 0.136,0.137 0,0.075 -0.061,0.136 -0.136,0.136l-6.475 0z"/>
   <path class="fil4" d="M15.459 7.903c0.076,0 0.137,0.061 0.137,0.137 0,0.075 -0.061,0.136 -0.137,0.136l-0.56 0c-0.075,0 -0.136,-0.061 -0.136,-0.136 0,-0.076 0.061,-0.137 0.136,-0.137l0.56 0z"/>
   <path class="fil5" d="M24.423 10.56c1.206,0 2.185,0.978 2.185,2.184 0,1.207 -0.979,2.185 -2.185,2.185 -1.206,0 -2.184,-0.978 -2.184,-2.185 0,-1.206 0.978,-2.184 2.184,-2.184z"/>
   <path class="fil4" d="M24.423 10.423c0.641,0 1.221,0.26 1.641,0.68 0.42,0.42 0.68,1 0.68,1.641 0,0.641 -0.26,1.221 -0.68,1.641 -0.42,0.42 -1,0.68 -1.641,0.68 -0.641,0 -1.221,-0.26 -1.641,-0.68 -0.42,-0.42 -0.68,-1 -0.68,-1.641 0,-0.641 0.26,-1.221 0.68,-1.641 0.42,-0.42 1,-0.68 1.641,-0.68zm1.448 0.873c-0.37,-0.37 -0.882,-0.6 -1.448,-0.6 -0.565,0 -1.077,0.23 -1.448,0.6 -0.37,0.371 -0.6,0.883 -0.6,1.448 0,0.566 0.23,1.078 0.6,1.448 0.371,0.371 0.883,0.6 1.448,0.6 0.566,0 1.078,-0.229 1.448,-0.6 0.371,-0.37 0.6,-0.882 0.6,-1.448 0,-0.565 -0.229,-1.077 -0.6,-1.448z"/>
   <path class="fil4" d="M23.293 12.822c-0.053,-0.054 -0.053,-0.14 0,-0.193 0.053,-0.054 0.14,-0.054 0.193,0l0.794 0.793 1.247 -1.247c0.053,-0.053 0.14,-0.053 0.193,0 0.053,0.053 0.053,0.14 0,0.193l-1.344 1.344c-0.053,0.053 -0.14,0.053 -0.193,0l-0.89 -0.89z"/>
  </g>
 </g>
</svg>
