<?xml version="1.0" encoding="UTF-8"?>
<!DOCTYPE svg PUBLIC "-//W3C//DTD SVG 1.1//EN" "http://www.w3.org/Graphics/SVG/1.1/DTD/svg11.dtd">
<!-- Creator: CorelDRAW 2018 (64-Bit) -->
<svg xmlns="http://www.w3.org/2000/svg" xml:space="preserve" width="150px" height="72px" version="1.1" style="shape-rendering:geometricPrecision; text-rendering:geometricPrecision; image-rendering:optimizeQuality; fill-rule:evenodd; clip-rule:evenodd"
viewBox="0 0 40.954 19.658"
 xmlns:xlink="http://www.w3.org/1999/xlink">
 <defs>
  <style type="text/css">
   <![CDATA[
    .fil0 {fill:none}
    .fil5 {fill:#00F4FF}
    .fil1 {fill:#EAEDF2}
    .fil3 {fill:white}
    .fil4 {fill:gray;fill-rule:nonzero}
    .fil6 {fill:gray;fill-rule:nonzero}
    .fil2 {fill:#EAEDF2;fill-rule:nonzero}
   ]]>
  </style>
 </defs>
 <g id="Layer_x0020_1">
  <metadata id="CorelCorpID_0Corel-Layer"/>
  <g id="_2493608853200">
   <rect class="fil0" width="40.954" height="19.658"/>
   <path class="fil1" d="M2.483 14.655l0 0c0.106,0.106 0.28,0.106 0.386,0l0.522 -0.522 0.523 0.522c0.106,0.106 0.279,0.106 0.386,0l0 0c0.106,-0.106 0.106,-0.28 0,-0.386l-0.523 -0.522 0.523 -0.523c0.106,-0.106 0.106,-0.279 0,-0.386l0 0c-0.106,-0.106 -0.28,-0.106 -0.386,0l-0.523 0.522 -0.522 -0.522c-0.106,-0.106 -0.28,-0.106 -0.386,0l0 0c-0.106,0.107 -0.106,0.28 0,0.386l0.522 0.523 -0.522 0.522c-0.106,0.106 -0.106,0.28 0,0.386z"/>
   <path class="fil1" d="M37.705 12.013l0 0c0.15,0 0.273,-0.123 0.273,-0.273l0 -0.739 0.738 0c0.15,0 0.273,-0.122 0.273,-0.273l0 0c0,-0.15 -0.123,-0.273 -0.273,-0.273l-0.738 0 0 -0.738c0,-0.15 -0.123,-0.273 -0.273,-0.273l0 0c-0.151,0 -0.273,0.123 -0.273,0.273l0 0.738 -0.739 0c-0.15,0 -0.273,0.123 -0.273,0.273l0 0c0,0.151 0.123,0.273 0.273,0.273l0.739 0 0 0.739c0,0.15 0.122,0.273 0.273,0.273z"/>
   <path class="fil1" d="M32.076 15.954c0.528,0 0.957,0.429 0.957,0.957 0,0.529 -0.429,0.958 -0.957,0.958 -0.529,0 -0.958,-0.429 -0.958,-0.958 0,-0.528 0.429,-0.957 0.958,-0.957z"/>
   <polygon class="fil1" points="31.573,4.098 32.858,2.183 34.142,4.098 "/>
   <path class="fil2" d="M7.309 4.492c0.373,0 0.711,-0.151 0.956,-0.396 0.244,-0.244 0.396,-0.582 0.396,-0.955 0,-0.374 -0.152,-0.712 -0.396,-0.956 -0.245,-0.245 -0.583,-0.396 -0.956,-0.396 -0.373,0 -0.711,0.151 -0.956,0.396 -0.244,0.244 -0.396,0.582 -0.396,0.956 0,0.373 0.152,0.711 0.396,0.955 0.245,0.245 0.583,0.396 0.956,0.396zm0.763 -0.589c-0.195,0.195 -0.465,0.316 -0.763,0.316 -0.298,0 -0.568,-0.121 -0.763,-0.316 -0.195,-0.195 -0.316,-0.464 -0.316,-0.762 0,-0.298 0.121,-0.568 0.316,-0.763 0.195,-0.195 0.465,-0.316 0.763,-0.316 0.298,0 0.568,0.121 0.763,0.316 0.195,0.195 0.316,0.465 0.316,0.763 0,0.297 -0.121,0.567 -0.316,0.762z"/>
   <path class="fil1" d="M15.796 17.869c-3.16,0 -6.722,-2.215 -6.383,-7.835 0.339,-5.62 4.386,-7.926 10.664,-7.876 6.278,0.049 9.461,3.371 9.461,6.379 0,3.008 -2.963,3.078 -6.832,4.623 -3.868,1.544 -3.75,4.709 -6.91,4.709z"/>
   <polygon class="fil3" points="19.945,12.617 18.168,16.429 17.267,14.969 15.57,15.218 17.184,11.756 "/>
   <path class="fil4" d="M20.069 12.675l-1.777 3.812c-0.032,0.068 -0.113,0.098 -0.182,0.066 -0.029,-0.014 -0.051,-0.036 -0.064,-0.062l-0.847 -1.374 -1.609 0.236c-0.075,0.01 -0.144,-0.041 -0.155,-0.116 -0.004,-0.027 0.001,-0.053 0.012,-0.077l1.614 -3.462c0.03,-0.065 0.105,-0.095 0.171,-0.07l2.754 0.859c0.072,0.022 0.112,0.099 0.09,0.171l-0.007 0.017zm-1.918 3.468l1.605 -3.442 -2.498 -0.78 -1.457 3.125 1.446 -0.212c0.052,-0.007 0.106,0.016 0.136,0.064l0.768 1.245z"/>
   <polygon class="fil3" points="19.505,12.617 21.283,16.429 22.183,14.969 23.88,15.218 22.266,11.756 "/>
   <path class="fil4" d="M19.695 12.701l1.605 3.442 0.768 -1.245c0.029,-0.048 0.083,-0.071 0.135,-0.063l1.447 0.211 -1.457 -3.125 -2.498 0.78zm1.464 3.786l-1.778 -3.812 -0.006 -0.017c-0.022,-0.072 0.018,-0.149 0.09,-0.171l2.753 -0.859c0.066,-0.025 0.142,0.005 0.172,0.07l1.614 3.462c0.011,0.024 0.015,0.05 0.011,0.077 -0.011,0.075 -0.08,0.126 -0.154,0.116l-1.609 -0.236 -0.848 1.374c-0.013,0.026 -0.035,0.048 -0.064,0.062 -0.068,0.032 -0.149,0.002 -0.181,-0.066z"/>
   <polygon class="fil5" points="15.013,8.636 15.997,7.474 15.915,5.859 17.394,5.497 18.277,4.143 19.687,4.72 21.197,4.143 21.999,5.438 23.559,5.859 23.447,7.378 24.462,8.636 23.478,9.799 23.559,11.413 22.08,11.775 21.197,13.13 19.788,12.553 18.277,13.13 17.476,11.834 15.915,11.413 16.028,9.895 "/>
   <path class="fil4" d="M14.909 8.548l0.949 -1.121 -0.079 -1.561c-0.003,-0.069 0.045,-0.128 0.11,-0.14l1.421 -0.348 0.853 -1.309c0.038,-0.058 0.112,-0.078 0.173,-0.049l1.352 0.554 1.461 -0.558c0.065,-0.025 0.137,0.003 0.169,0.064l0.768 1.24 1.509 0.408c0.065,0.017 0.107,0.079 0.1,0.145l-0.108 1.462 0.981 1.216c0.041,0.052 0.039,0.125 -0.002,0.173l-0.95 1.122 0.079 1.561c0.004,0.068 -0.044,0.127 -0.11,0.14l-1.42 0.348 -0.854 1.309c-0.037,0.058 -0.112,0.077 -0.172,0.048l-1.352 -0.553 -1.461 0.558c-0.065,0.025 -0.138,-0.004 -0.169,-0.064l-0.768 -1.241 -1.509 -0.407c-0.065,-0.017 -0.107,-0.08 -0.101,-0.145l0.109 -1.462 -0.981 -1.216c-0.042,-0.052 -0.04,-0.125 0.002,-0.174zm1.192 -0.986l-0.912 1.076 0.941 1.166c0.023,0.026 0.037,0.062 0.034,0.1l-0.105 1.407 1.452 0.392c0.032,0.009 0.062,0.029 0.081,0.06l0.742 1.199 1.405 -0.536c0.031,-0.012 0.067,-0.012 0.1,0.001l1.305 0.534 0.822 -1.26c0.018,-0.028 0.047,-0.049 0.082,-0.058l1.37 -0.335c-0.025,-0.489 -0.032,-1.02 -0.076,-1.503 -0.002,-0.033 0.009,-0.067 0.032,-0.094l0.911 -1.077 -0.94 -1.165c-0.024,-0.027 -0.037,-0.062 -0.034,-0.1l0.104 -1.407 -1.452 -0.392c-0.032,-0.009 -0.061,-0.03 -0.08,-0.06l-0.742 -1.199 -1.406 0.536c-0.031,0.012 -0.066,0.012 -0.099,-0.001l-1.306 -0.535 -0.822 1.261c-0.018,0.028 -0.047,0.049 -0.082,0.058l-1.369 0.335c0.025,0.489 0.032,1.019 0.076,1.503 0.001,0.033 -0.009,0.067 -0.032,0.094z"/>
   <path class="fil3" d="M19.737 6.147c1.375,0 2.49,1.114 2.49,2.489 0,1.375 -1.115,2.49 -2.49,2.49 -1.375,0 -2.489,-1.115 -2.489,-2.49 0,-1.375 1.114,-2.489 2.489,-2.489z"/>
   <path class="fil4" d="M19.737 6.01c0.725,0 1.382,0.294 1.857,0.769 0.475,0.476 0.769,1.132 0.769,1.857 0,0.725 -0.294,1.382 -0.769,1.857 -0.475,0.475 -1.132,0.769 -1.857,0.769 -0.725,0 -1.381,-0.294 -1.856,-0.769 -0.476,-0.475 -0.77,-1.132 -0.77,-1.857 0,-0.725 0.294,-1.381 0.77,-1.857 0.475,-0.475 1.131,-0.769 1.856,-0.769zm1.664 0.962c-0.425,-0.425 -1.014,-0.689 -1.664,-0.689 -0.649,0 -1.238,0.264 -1.663,0.689 -0.426,0.426 -0.69,1.015 -0.69,1.664 0,0.65 0.264,1.238 0.69,1.664 0.425,0.426 1.014,0.689 1.663,0.689 0.65,0 1.239,-0.263 1.664,-0.689 0.426,-0.426 0.689,-1.014 0.689,-1.664 0,-0.649 -0.263,-1.238 -0.689,-1.664z"/>
   <path class="fil6" d="M18.599 8.714c-0.053,-0.054 -0.053,-0.14 0,-0.193 0.053,-0.054 0.14,-0.054 0.193,0l0.801 0.8 1.258 -1.258c0.053,-0.053 0.14,-0.053 0.193,0 0.053,0.053 0.053,0.14 0,0.193l-1.355 1.355c-0.053,0.053 -0.14,0.053 -0.193,0l-0.897 -0.897z"/>
  </g>
 </g>
</svg>
