<?xml version="1.0" encoding="UTF-8"?>
<!DOCTYPE svg PUBLIC "-//W3C//DTD SVG 1.1//EN" "http://www.w3.org/Graphics/SVG/1.1/DTD/svg11.dtd">
<!-- Creator: CorelDRAW 2018 (64-Bit) -->
<svg xmlns="http://www.w3.org/2000/svg" xml:space="preserve" width="150px" height="72px" version="1.1" style="shape-rendering:geometricPrecision; text-rendering:geometricPrecision; image-rendering:optimizeQuality; fill-rule:evenodd; clip-rule:evenodd"
viewBox="0 0 40.954 19.658"
 xmlns:xlink="http://www.w3.org/1999/xlink">
 <defs>
  <style type="text/css">
   <![CDATA[
    .fil0 {fill:none}
    .fil7 {fill:#00F4FF}
    .fil1 {fill:#EAEDF2}
    .fil6 {fill:white}
    .fil5 {fill:#00F4FF;fill-rule:nonzero}
    .fil4 {fill:gray;fill-rule:nonzero}
    .fil2 {fill:#EAEDF2;fill-rule:nonzero}
    .fil3 {fill:white;fill-rule:nonzero}
   ]]>
  </style>
 </defs>
 <g id="Layer_x0020_1">
  <metadata id="CorelCorpID_0Corel-Layer"/>
  <g id="_1698334158608">
   <rect class="fil0" width="40.954" height="19.658"/>
   <path class="fil1" d="M14.411 1.984c-3.6,0 -7.018,2.102 -7.018,8.012 0,5.91 4.985,8.682 12.605,8.342 7.62,-0.341 10.78,-3.58 10.78,-6.774 0,-3.194 -3.376,-3.269 -7.784,-4.909 -4.408,-1.64 -4.983,-4.671 -8.583,-4.671z"/>
   <path class="fil1" d="M37.705 4.179l0 0c0.15,0 0.273,0.123 0.273,0.273l0 0.739 0.738 0c0.15,0 0.273,0.122 0.273,0.272l0 0.001c0,0.15 -0.123,0.273 -0.273,0.273l-0.738 0 0 0.738c0,0.15 -0.123,0.273 -0.273,0.273l0 0c-0.151,0 -0.273,-0.123 -0.273,-0.273l0 -0.738 -0.739 0c-0.15,0 -0.273,-0.123 -0.273,-0.273l0 -0.001c0,-0.15 0.123,-0.272 0.273,-0.272l0.739 0 0 -0.739c0,-0.15 0.122,-0.273 0.273,-0.273z"/>
   <path class="fil1" d="M3.269 15.181l0 0c0.15,0 0.273,0.122 0.273,0.273l0 0.738 0.739 0c0.15,0 0.273,0.123 0.273,0.273l0 0c0,0.15 -0.123,0.273 -0.273,0.273l-0.739 0 0 0.739c0,0.15 -0.123,0.273 -0.273,0.273l0 0c-0.15,0 -0.273,-0.123 -0.273,-0.273l0 -0.739 -0.738 0c-0.15,0 -0.273,-0.123 -0.273,-0.273l0 0c0,-0.15 0.123,-0.273 0.273,-0.273l0.738 0 0 -0.738c0,-0.151 0.123,-0.273 0.273,-0.273z"/>
   <path class="fil1" d="M5.449 2.545c0.348,0 0.631,0.283 0.631,0.632 0,0.348 -0.283,0.631 -0.631,0.631 -0.349,0 -0.632,-0.283 -0.632,-0.631 0,-0.349 0.283,-0.632 0.632,-0.632z"/>
   <polygon class="fil1" points="33.851,14.856 35.136,16.77 36.42,14.856 "/>
   <path class="fil2" d="M27.531 1.292c0.373,0 0.711,0.152 0.956,0.396 0.245,0.245 0.396,0.583 0.396,0.956 0,0.373 -0.151,0.711 -0.396,0.956 -0.245,0.244 -0.583,0.395 -0.956,0.395 -0.373,0 -0.711,-0.151 -0.956,-0.395 -0.244,-0.245 -0.395,-0.583 -0.395,-0.956 0,-0.373 0.151,-0.711 0.395,-0.956 0.245,-0.244 0.583,-0.396 0.956,-0.396zm0.763 0.589c-0.195,-0.195 -0.465,-0.316 -0.763,-0.316 -0.298,0 -0.567,0.121 -0.763,0.316 -0.195,0.195 -0.315,0.465 -0.315,0.763 0,0.298 0.12,0.567 0.315,0.763 0.196,0.195 0.465,0.315 0.763,0.315 0.298,0 0.568,-0.12 0.763,-0.315 0.195,-0.196 0.316,-0.465 0.316,-0.763 0,-0.298 -0.121,-0.568 -0.316,-0.763z"/>
   <path class="fil3" d="M12.32 8.083l0 3.248c0,0.129 0.047,0.254 0.132,0.352l0 0c0.101,0.117 1.091,1.141 4.522,1.141 3.432,0 4.422,-1.024 4.523,-1.141l0 0c0.085,-0.098 0.132,-0.223 0.132,-0.352l0 -3.248 -9.309 0z"/>
   <path class="fil4" d="M12.474 8.237l0 3.094c0,0.047 0.008,0.093 0.024,0.134 0.015,0.042 0.039,0.081 0.07,0.117l0.005 0.007c0.078,0.087 0.498,0.498 1.659,0.791 0.659,0.166 1.551,0.29 2.742,0.29 1.192,0 2.084,-0.124 2.743,-0.29 1.193,-0.301 1.603,-0.727 1.664,-0.798 0.031,-0.035 0.055,-0.075 0.07,-0.117 0.016,-0.041 0.024,-0.087 0.024,-0.134l0 -3.094 -9.001 0zm-0.308 3.094l0 -3.248c0,-0.085 0.069,-0.154 0.154,-0.154l9.309 0c0.085,0 0.154,0.069 0.154,0.154l0 3.248c0,0.082 -0.015,0.164 -0.044,0.241 -0.029,0.077 -0.071,0.149 -0.126,0.211 -0.07,0.081 -0.539,0.571 -1.821,0.895 -0.681,0.172 -1.598,0.3 -2.818,0.3 -1.219,0 -2.136,-0.128 -2.817,-0.3 -1.239,-0.313 -1.719,-0.781 -1.813,-0.885l-0.009 -0.009c-0.054,-0.062 -0.096,-0.134 -0.125,-0.212 -0.029,-0.077 -0.044,-0.159 -0.044,-0.241z"/>
   <path class="fil5" d="M10.607 11.961l0 0c-0.333,0 -0.603,-0.271 -0.603,-0.604l0 -0.5c0,-0.106 0.027,-0.209 0.08,-0.301l0.523 -0.911 0.524 0.911c0.052,0.092 0.08,0.195 0.08,0.301l0 0.5c0,0.333 -0.27,0.604 -0.604,0.604z"/>
   <path class="fil4" d="M10.607 12.115c-0.209,0 -0.398,-0.085 -0.536,-0.222 -0.137,-0.137 -0.221,-0.327 -0.221,-0.536l0 -0.5c0,-0.065 0.008,-0.131 0.025,-0.195 0.017,-0.063 0.042,-0.124 0.076,-0.182l0.523 -0.911c0.042,-0.073 0.136,-0.099 0.209,-0.057 0.025,0.015 0.044,0.035 0.057,0.058l0.523 0.91c0.034,0.058 0.059,0.119 0.076,0.182 0.017,0.063 0.026,0.129 0.026,0.195l0 0.5c0,0.209 -0.085,0.398 -0.222,0.535l-0.001 0.001c-0.137,0.137 -0.326,0.222 -0.535,0.222zm-0.318 -0.44c0.082,0.081 0.194,0.132 0.318,0.132 0.125,0 0.237,-0.05 0.318,-0.131l0.001 -0.001c0.081,-0.081 0.131,-0.193 0.131,-0.318l0 -0.5c0,-0.04 -0.005,-0.079 -0.015,-0.116 -0.01,-0.039 -0.025,-0.075 -0.044,-0.108l-0.391 -0.68 -0.39 0.68c-0.019,0.032 -0.034,0.069 -0.044,0.108 -0.01,0.037 -0.015,0.076 -0.015,0.116l0 0.5c0,0.124 0.05,0.237 0.131,0.318z"/>
   <path class="fil3" d="M23.55 6.012l-5.643 -1.713c-0.256,-0.077 -0.587,-0.12 -0.933,-0.12 -0.345,0 -0.676,0.043 -0.932,0.12l-5.643 1.713c-0.61,0.185 -0.701,0.549 -0.701,0.749 0,0.194 0.085,0.54 0.641,0.73 2.596,0.789 3.079,0.952 6.095,1.891 0.352,0.11 0.729,0.11 1.08,0 2.472,-0.77 3.788,-1.189 6.035,-1.872 0.611,-0.185 0.702,-0.548 0.702,-0.749 0,-0.2 -0.091,-0.564 -0.701,-0.749z"/>
   <path class="fil4" d="M23.505 6.158l-5.643 -1.712c-0.119,-0.036 -0.257,-0.065 -0.407,-0.084 -0.149,-0.019 -0.311,-0.029 -0.481,-0.029 -0.169,0 -0.332,0.01 -0.481,0.029 -0.149,0.019 -0.287,0.048 -0.407,0.084l-5.642 1.712c-0.222,0.068 -0.363,0.158 -0.451,0.253 -0.117,0.124 -0.141,0.259 -0.141,0.35 0,0.088 0.023,0.216 0.129,0.337 0.079,0.09 0.207,0.179 0.407,0.247l0.007 0.003c1.797,0.546 2.57,0.788 3.816,1.179 0.598,0.187 1.304,0.408 2.269,0.709 0.16,0.049 0.327,0.075 0.494,0.075 0.168,0 0.334,-0.026 0.495,-0.075l1.869 -0.584c1.401,-0.438 2.517,-0.788 4.167,-1.288 0.221,-0.067 0.362,-0.158 0.451,-0.252 0.116,-0.125 0.141,-0.26 0.141,-0.351 0,-0.091 -0.025,-0.226 -0.141,-0.35 -0.089,-0.095 -0.23,-0.185 -0.451,-0.253zm-5.554 -2.005l5.643 1.712c0.279,0.085 0.464,0.206 0.585,0.336 0.187,0.199 0.226,0.415 0.226,0.56 0,0.146 -0.039,0.361 -0.226,0.56 -0.121,0.13 -0.306,0.252 -0.585,0.336 -1.572,0.477 -2.721,0.837 -4.165,1.288l-1.869 0.584c-0.191,0.06 -0.389,0.089 -0.586,0.089 -0.196,0 -0.394,-0.029 -0.585,-0.089 -0.965,-0.3 -1.671,-0.522 -2.269,-0.709 -1.294,-0.405 -2.096,-0.656 -3.814,-1.179l-0.017 -0.005c-0.257,-0.087 -0.427,-0.208 -0.539,-0.337 -0.17,-0.192 -0.206,-0.398 -0.206,-0.538 0,-0.145 0.039,-0.361 0.225,-0.56 0.122,-0.13 0.307,-0.251 0.586,-0.336l5.642 -1.712c0.136,-0.042 0.292,-0.074 0.458,-0.095 0.167,-0.022 0.343,-0.033 0.519,-0.033 0.177,0 0.353,0.011 0.52,0.033 0.166,0.021 0.321,0.053 0.457,0.095z"/>
   <polygon class="fil4" points="10.761,7.485 10.761,9.645 10.453,9.645 10.453,7.485 "/>
   <path class="fil6" d="M16.64 16.465l11.81 -4.606c0.433,-0.163 0.563,-0.885 0.29,-1.615 -0.272,-0.729 -0.845,-1.19 -1.278,-1.028l-11.945 4.245c0.493,-0.184 1.144,0.339 1.454,1.169 0.309,0.829 0.161,1.65 -0.331,1.835z"/>
   <path class="fil4" d="M16.591 16.338l0.018 -0.007c0.188,-0.08 0.313,-0.289 0.363,-0.566 0.056,-0.309 0.017,-0.696 -0.129,-1.088 -0.146,-0.391 -0.37,-0.708 -0.616,-0.905 -0.217,-0.175 -0.446,-0.252 -0.639,-0.191l-0.025 0.008c-0.071,0.025 -0.149,-0.012 -0.174,-0.083 -0.025,-0.071 0.012,-0.148 0.083,-0.173l11.944 -4.246c0.265,-0.097 0.563,-0.013 0.831,0.203 0.249,0.2 0.476,0.518 0.621,0.907 0.145,0.388 0.182,0.776 0.125,1.091 -0.06,0.336 -0.228,0.594 -0.488,0.695 -3.142,1.328 -8.704,3.72 -11.817,4.609 -0.07,0.027 -0.148,-0.009 -0.175,-0.079 -0.026,-0.07 0.009,-0.148 0.078,-0.175zm0.558 -0.218l11.258 -4.391c0.165,-0.065 0.275,-0.247 0.319,-0.489 0.048,-0.27 0.015,-0.607 -0.113,-0.948 -0.127,-0.341 -0.323,-0.618 -0.537,-0.79 -0.194,-0.156 -0.398,-0.222 -0.567,-0.159l-11.379 4.045c0.091,0.044 0.181,0.101 0.268,0.171 0.281,0.226 0.537,0.585 0.7,1.024 0.164,0.437 0.206,0.875 0.142,1.23 -0.02,0.111 -0.05,0.214 -0.091,0.307z"/>
   <path class="fil4" d="M16.031 14.836c0.07,-0.026 0.148,0.01 0.175,0.08 0.026,0.07 -0.01,0.149 -0.08,0.175 -0.118,0.044 -0.246,0.02 -0.355,-0.053 -0.097,-0.065 -0.181,-0.17 -0.23,-0.301l0 -0.001c-0.05,-0.132 -0.055,-0.267 -0.025,-0.378l0.005 -0.014c0.036,-0.121 0.115,-0.217 0.229,-0.259l0.004 -0.001c0.191,-0.07 0.4,-0.03 0.583,0.093 0.171,0.114 0.321,0.302 0.409,0.537l0.001 0.004c0.086,0.234 0.097,0.473 0.043,0.67l-0.004 0.012c-0.06,0.208 -0.191,0.371 -0.38,0.442 -0.267,0.1 -0.561,0.042 -0.819,-0.131 -0.245,-0.164 -0.46,-0.435 -0.586,-0.773 -0.127,-0.339 -0.142,-0.685 -0.065,-0.969 0.082,-0.3 0.266,-0.535 0.534,-0.635 0.07,-0.026 0.148,0.009 0.175,0.08 0.026,0.07 -0.01,0.148 -0.08,0.174 -0.18,0.068 -0.306,0.236 -0.366,0.453 -0.063,0.233 -0.049,0.519 0.056,0.802 0.106,0.283 0.283,0.508 0.483,0.642 0.187,0.126 0.393,0.169 0.573,0.102 0.103,-0.038 0.177,-0.135 0.213,-0.261l0.003 -0.01c0.039,-0.144 0.031,-0.32 -0.032,-0.495 -0.004,-0.008 -0.006,-0.015 -0.009,-0.023 -0.067,-0.175 -0.177,-0.313 -0.3,-0.395 -0.109,-0.074 -0.228,-0.101 -0.331,-0.067l-0.017 0.007c-0.025,0.012 -0.045,0.04 -0.056,0.077l-0.002 0.009c-0.017,0.061 -0.013,0.136 0.015,0.211l0 0.001c0.029,0.076 0.075,0.136 0.127,0.171 0.038,0.025 0.078,0.036 0.109,0.024z"/>
   <path class="fil7" d="M22.021 14.456l1.844 -0.784c0.492,-0.185 0.64,-0.91 0.331,-1.74 -0.31,-0.829 -0.88,-1.252 -1.373,-1.068l-1.884 0.67c0.493,-0.184 1.103,0.258 1.412,1.087 0.31,0.829 0.162,1.65 -0.33,1.835z"/>
   <path class="fil4" d="M21.968 14.331l0.042 -0.018c0.177,-0.086 0.295,-0.29 0.343,-0.557 0.055,-0.307 0.018,-0.691 -0.126,-1.079l-0.006 -0.017c-0.145,-0.385 -0.358,-0.679 -0.589,-0.854 -0.207,-0.155 -0.426,-0.214 -0.62,-0.153l-0.019 0.006c-0.016,0.008 -0.035,0.012 -0.054,0.012 -0.056,-0.001 -0.109,-0.036 -0.129,-0.091 -0.025,-0.071 0.013,-0.149 0.083,-0.174l1.896 -0.674c0.29,-0.102 0.596,-0.034 0.872,0.178 0.262,0.201 0.497,0.534 0.661,0.973l0.001 0.002c0.163,0.436 0.206,0.848 0.143,1.178 -0.068,0.357 -0.256,0.622 -0.548,0.734l-1.849 0.786c-0.07,0.027 -0.149,-0.009 -0.175,-0.079 -0.026,-0.069 0.007,-0.145 0.074,-0.173zm0.572 -0.244l1.28 -0.543c0.198,-0.076 0.329,-0.269 0.378,-0.531 0.054,-0.284 0.015,-0.645 -0.129,-1.033l-0.001 0c-0.145,-0.39 -0.349,-0.682 -0.572,-0.854 -0.205,-0.157 -0.425,-0.209 -0.625,-0.134l-1.297 0.461c0.075,0.036 0.15,0.081 0.222,0.136 0.272,0.205 0.518,0.544 0.683,0.984l0.001 0.004c0.162,0.436 0.204,0.873 0.141,1.227 -0.019,0.101 -0.045,0.196 -0.081,0.283z"/>
   <polygon class="fil7" points="23.902,13.752 22.021,14.455 23.088,15.674 23.688,14.972 24.969,14.972 "/>
   <path class="fil4" d="M23.862 13.912l-1.609 0.601 0.833 0.953 0.499 -0.583c0.028,-0.033 0.068,-0.049 0.109,-0.047l0.976 0 -0.808 -0.924zm-1.889 0.415l1.877 -0.701c0.052,-0.021 0.115,-0.009 0.155,0.036l1.067 1.22c0.021,0.024 0.033,0.055 0.033,0.09 0,0.075 -0.06,0.136 -0.136,0.136l-1.218 0 -0.56 0.655 -0.014 0.014c-0.056,0.049 -0.142,0.043 -0.192,-0.013l-1.067 -1.22c-0.01,-0.012 -0.019,-0.026 -0.025,-0.042 -0.026,-0.07 0.01,-0.149 0.08,-0.175z"/>
  </g>
 </g>
</svg>
