<?xml version="1.0" encoding="UTF-8"?>
<!DOCTYPE svg PUBLIC "-//W3C//DTD SVG 1.1//EN" "http://www.w3.org/Graphics/SVG/1.1/DTD/svg11.dtd">
<!-- Creator: CorelDRAW 2018 (64-Bit) -->
<svg xmlns="http://www.w3.org/2000/svg" xml:space="preserve" width="150px" height="72px" version="1.1" style="shape-rendering:geometricPrecision; text-rendering:geometricPrecision; image-rendering:optimizeQuality; fill-rule:evenodd; clip-rule:evenodd"
viewBox="0 0 40.954 19.658"
 xmlns:xlink="http://www.w3.org/1999/xlink">
 <defs>
  <style type="text/css">
   <![CDATA[
    .fil0 {fill:none}
    .fil4 {fill:#00F4FF}
    .fil1 {fill:#EAEDF2}
    .fil2 {fill:white}
    .fil3 {fill:gray;fill-rule:nonzero}
    .fil5 {fill:#EAEDF2;fill-rule:nonzero}
   ]]>
  </style>
 </defs>
 <g id="Layer_x0020_1">
  <metadata id="CorelCorpID_0Corel-Layer"/>
  <g id="_1699171423200">
   <rect class="fil0" width="40.954" height="19.658"/>
   <path class="fil1" d="M15.835 2.917c-3.16,0 -6.382,2.269 -6.382,7.835 0,5.565 4.075,7.876 10.663,7.876 6.588,0 9.461,-3.371 9.461,-6.379 0,-3.008 -2.963,-3.079 -6.831,-4.623 -3.869,-1.545 -3.751,-4.709 -6.911,-4.709z"/>
   <path class="fil2" d="M26.177 8.798l0 6.394c0,0.651 -0.533,1.184 -1.184,1.184l-10.956 0c-0.651,0 -1.183,-0.533 -1.183,-1.184l0 -6.429 13.323 0.035z"/>
   <path class="fil3" d="M26.313 8.798l0 6.394c0,0.363 -0.149,0.693 -0.388,0.933l-0.008 0.007c-0.238,0.235 -0.565,0.38 -0.924,0.38l-10.956 0c-0.363,0 -0.693,-0.148 -0.932,-0.388 -0.239,-0.239 -0.388,-0.569 -0.388,-0.932l0 -6.429c0,-0.075 0.061,-0.137 0.137,-0.137l13.323 0.036c0.075,0 0.135,0.061 0.136,0.136zm-0.273 6.394l0 -6.259 -13.05 -0.034 0 6.293c0,0.288 0.118,0.55 0.308,0.739 0.189,0.19 0.451,0.308 0.739,0.308l10.956 0c0.285,0 0.544,-0.115 0.733,-0.301l0.006 -0.006c0.19,-0.19 0.308,-0.452 0.308,-0.74z"/>
   <polygon class="fil4" points="20.981,11.03 20.981,12.901 18.049,12.901 18.049,11.03 "/>
   <path class="fil3" d="M21.117 11.03l0 1.871c0,0.076 -0.061,0.137 -0.136,0.137l-2.932 0c-0.075,0 -0.136,-0.061 -0.136,-0.137l0 -1.871c0,-0.076 0.061,-0.137 0.136,-0.137l2.932 0c0.075,0 0.136,0.061 0.136,0.137zm-0.273 1.735l0 -1.599 -2.658 0 0 1.599 2.658 0z"/>
   <path class="fil2" d="M12.604 8.893l0 -1.415c0,-0.651 0.553,-1.183 1.228,-1.183l11.366 0c0.676,0 1.228,0.532 1.228,1.183l0 1.449c-2.048,0.765 -3.501,1.324 -5.415,2.039 -0.485,0.181 -0.827,0.369 -1.496,0.369 -0.669,0 -1.011,-0.189 -1.496,-0.369 -1.915,-0.715 -3.367,-1.309 -5.415,-2.073z"/>
   <path class="fil3" d="M12.468 8.893l0 -1.415c0,-0.364 0.154,-0.694 0.402,-0.934 0.247,-0.238 0.588,-0.386 0.962,-0.386l11.366 0c0.374,0 0.715,0.148 0.962,0.386 0.248,0.24 0.402,0.57 0.402,0.934l0 1.449c0,0.06 -0.039,0.111 -0.093,0.129 -0.978,0.365 -1.871,0.703 -2.746,1.034 -0.842,0.319 -1.665,0.63 -2.665,1.003 -0.053,0.02 -0.143,0.056 -0.23,0.09 -0.388,0.153 -0.73,0.289 -1.313,0.289 -0.582,0 -0.924,-0.135 -1.311,-0.288 -0.088,-0.035 -0.177,-0.07 -0.233,-0.091 -0.959,-0.358 -1.789,-0.68 -2.634,-1.009 -0.871,-0.338 -1.758,-0.682 -2.78,-1.064 -0.055,-0.02 -0.089,-0.072 -0.089,-0.127zm0.272 -1.415l0 1.32c1.006,0.377 1.858,0.708 2.695,1.033 0.855,0.331 1.694,0.658 2.631,1.007 0.108,0.04 0.174,0.067 0.238,0.092 0.362,0.143 0.68,0.269 1.211,0.269 0.531,0 0.85,-0.127 1.212,-0.27 0.064,-0.025 0.128,-0.05 0.237,-0.091 0.919,-0.343 1.783,-0.67 2.663,-1.002 0.812,-0.308 1.64,-0.621 2.663,-1.003l0 -1.355c-0.001,-0.287 -0.123,-0.548 -0.319,-0.738 -0.198,-0.19 -0.471,-0.309 -0.773,-0.309l-11.366 0c-0.301,0 -0.575,0.119 -0.773,0.309 -0.196,0.19 -0.318,0.451 -0.319,0.738z"/>
   <path class="fil3" d="M13.661 8.185c0,0.075 -0.061,0.136 -0.136,0.136 -0.075,0 -0.136,-0.061 -0.136,-0.136l0.001 -0.301c-0.001,-0.244 0.107,-0.465 0.281,-0.625 0.171,-0.157 0.406,-0.254 0.664,-0.254l1.185 0c0.075,0 0.136,0.061 0.136,0.136 0,0.076 -0.061,0.137 -0.136,0.137l-1.185 0c-0.188,0 -0.357,0.069 -0.48,0.182 -0.119,0.109 -0.193,0.259 -0.193,0.424l-0.001 0.301z"/>
   <path class="fil3" d="M25.081 13.327c0,-0.075 0.061,-0.136 0.137,-0.136 0.075,0 0.136,0.061 0.136,0.136l0 1.392c0,0.273 -0.112,0.522 -0.292,0.703 -0.181,0.181 -0.43,0.293 -0.704,0.293l-1.703 0c-0.076,0 -0.137,-0.061 -0.137,-0.137 0,-0.075 0.061,-0.136 0.137,-0.136l1.703 0c0.199,0 0.38,-0.082 0.511,-0.212 0.131,-0.132 0.212,-0.313 0.212,-0.511l0 -1.392z"/>
   <path class="fil3" d="M16.738 5.516c0,0.075 -0.061,0.137 -0.136,0.137 -0.076,0 -0.137,-0.062 -0.137,-0.137 0,-0.43 0.176,-0.82 0.459,-1.103 0.283,-0.284 0.674,-0.46 1.104,-0.46l2.974 0c0.429,0 0.82,0.176 1.103,0.459l0.008 0.008c0.278,0.283 0.451,0.67 0.451,1.096 0,0.075 -0.061,0.137 -0.136,0.137 -0.076,0 -0.137,-0.062 -0.137,-0.137 0,-0.351 -0.142,-0.671 -0.372,-0.904l-0.007 -0.007c-0.234,-0.234 -0.556,-0.379 -0.91,-0.379l-2.974 0c-0.355,0 -0.677,0.145 -0.911,0.379 -0.234,0.233 -0.379,0.556 -0.379,0.911z"/>
   <path class="fil1" d="M30.63 3.307l0 0c0.106,-0.106 0.279,-0.106 0.386,0l0.522 0.522 0.522 -0.522c0.106,-0.106 0.28,-0.106 0.386,0l0 0c0.106,0.106 0.106,0.28 0,0.386l-0.522 0.522 0.522 0.523c0.106,0.106 0.106,0.28 0,0.386l0 0c-0.106,0.106 -0.28,0.106 -0.386,0l-0.522 -0.522 -0.522 0.522c-0.107,0.106 -0.28,0.106 -0.386,0l-0.001 0c-0.106,-0.107 -0.106,-0.28 0,-0.386l0.523 -0.523 -0.522 -0.522c-0.107,-0.106 -0.107,-0.28 0,-0.386z"/>
   <path class="fil1" d="M23.595 1.03c0.349,0 0.631,0.282 0.631,0.631 0,0.349 -0.282,0.632 -0.631,0.632 -0.349,0 -0.631,-0.283 -0.631,-0.632 0,-0.349 0.282,-0.631 0.631,-0.631z"/>
   <path class="fil5" d="M6.069 3.371c0.3,0 0.572,0.121 0.769,0.318 0.197,0.197 0.319,0.47 0.319,0.77 0,0.301 -0.122,0.573 -0.319,0.77 -0.197,0.197 -0.469,0.319 -0.769,0.319 -0.301,0 -0.573,-0.122 -0.77,-0.319 -0.197,-0.197 -0.319,-0.469 -0.319,-0.77 0,-0.3 0.122,-0.573 0.319,-0.77 0.197,-0.197 0.469,-0.318 0.77,-0.318zm0.576 0.511c-0.147,-0.147 -0.351,-0.238 -0.576,-0.238 -0.226,0 -0.43,0.091 -0.577,0.238 -0.148,0.148 -0.239,0.352 -0.239,0.577 0,0.225 0.091,0.429 0.239,0.577 0.147,0.147 0.351,0.239 0.577,0.239 0.225,0 0.429,-0.092 0.576,-0.239 0.148,-0.148 0.239,-0.352 0.239,-0.577 0,-0.225 -0.091,-0.429 -0.239,-0.577z"/>
   <polygon class="fil1" points="1.527,14.701 2.811,12.787 4.096,14.701 "/>
   <path class="fil5" d="M34.819 12.518c0.374,0 0.711,0.151 0.956,0.396 0.245,0.244 0.396,0.582 0.396,0.955 0,0.374 -0.151,0.712 -0.396,0.956 -0.245,0.245 -0.582,0.396 -0.956,0.396 -0.373,0 -0.711,-0.151 -0.955,-0.396 -0.245,-0.244 -0.396,-0.582 -0.396,-0.956 0,-0.373 0.151,-0.711 0.396,-0.955 0.244,-0.245 0.582,-0.396 0.955,-0.396zm0.763 0.589c-0.195,-0.196 -0.465,-0.316 -0.763,-0.316 -0.298,0 -0.567,0.12 -0.762,0.316 -0.196,0.195 -0.316,0.464 -0.316,0.762 0,0.298 0.12,0.568 0.316,0.763 0.195,0.195 0.464,0.316 0.762,0.316 0.298,0 0.568,-0.121 0.763,-0.316 0.195,-0.195 0.316,-0.465 0.316,-0.763 0,-0.298 -0.121,-0.567 -0.316,-0.762z"/>
  </g>
 </g>
</svg>
