<?xml version="1.0" encoding="UTF-8"?>
<!DOCTYPE svg PUBLIC "-//W3C//DTD SVG 1.1//EN" "http://www.w3.org/Graphics/SVG/1.1/DTD/svg11.dtd">
<!-- Creator: CorelDRAW 2018 (64-Bit) -->
<svg xmlns="http://www.w3.org/2000/svg" xml:space="preserve" width="150px" height="72px" version="1.1" style="shape-rendering:geometricPrecision; text-rendering:geometricPrecision; image-rendering:optimizeQuality; fill-rule:evenodd; clip-rule:evenodd"
viewBox="0 0 40.957 19.659"
 xmlns:xlink="http://www.w3.org/1999/xlink">
 <defs>
  <style type="text/css">
   <![CDATA[
    .fil0 {fill:none}
    .fil5 {fill:#00F4FF}
    .fil1 {fill:#EAEDF2}
    .fil3 {fill:white}
    .fil6 {fill:gray;fill-rule:nonzero}
    .fil4 {fill:gray;fill-rule:nonzero}
    .fil2 {fill:#EAEDF2;fill-rule:nonzero}
   ]]>
  </style>
 </defs>
 <g id="Layer_x0020_1">
  <metadata id="CorelCorpID_0Corel-Layer"/>
  <g id="_2781328048288">
   <rect class="fil0" width="40.957" height="19.659"/>
   <path class="fil1" d="M23.164 2.77c3.16,0 6.383,2.27 6.383,7.836 0,5.566 -4.076,7.877 -10.665,7.877 -6.588,0 -9.462,-3.371 -9.462,-6.38 0,-3.008 2.964,-3.079 6.832,-4.623 3.869,-1.545 3.751,-4.71 6.912,-4.71z"/>
   <path class="fil1" d="M30.599 3.161l0 0c0.106,-0.107 0.28,-0.107 0.386,0l0.522 0.522 0.523 -0.522c0.106,-0.107 0.28,-0.107 0.386,-0.001l0 0.001c0.106,0.106 0.106,0.279 0,0.386l-0.523 0.522 0.523 0.522c0.106,0.106 0.106,0.28 0,0.386l0 0c-0.106,0.106 -0.28,0.106 -0.386,0l-0.523 -0.522 -0.522 0.522c-0.106,0.106 -0.28,0.106 -0.386,0l0 0c-0.106,-0.106 -0.106,-0.28 0,-0.386l0.522 -0.522 -0.522 -0.522c-0.106,-0.107 -0.106,-0.28 0,-0.386z"/>
   <path class="fil1" d="M11.293 6.08c0.349,0 0.631,0.282 0.631,0.631 0,0.349 -0.282,0.632 -0.631,0.632 -0.349,0 -0.631,-0.283 -0.631,-0.632 0,-0.349 0.282,-0.631 0.631,-0.631z"/>
   <path class="fil2" d="M6.036 1.04c0.3,0 0.573,0.122 0.77,0.319 0.197,0.197 0.319,0.469 0.319,0.77 0,0.3 -0.122,0.573 -0.319,0.769 -0.197,0.197 -0.47,0.319 -0.77,0.319 -0.301,0 -0.573,-0.122 -0.77,-0.319 -0.197,-0.196 -0.319,-0.469 -0.319,-0.769 0,-0.301 0.122,-0.573 0.319,-0.77 0.197,-0.197 0.469,-0.319 0.77,-0.319zm0.577 0.512c-0.148,-0.148 -0.352,-0.239 -0.577,-0.239 -0.225,0 -0.429,0.091 -0.577,0.239 -0.147,0.148 -0.239,0.351 -0.239,0.577 0,0.225 0.092,0.429 0.239,0.576 0.148,0.148 0.352,0.239 0.577,0.239 0.225,0 0.429,-0.091 0.577,-0.239 0.147,-0.147 0.239,-0.351 0.239,-0.576 0,-0.226 -0.092,-0.429 -0.239,-0.577z"/>
   <polygon class="fil1" points="1.494,12.372 2.778,10.457 4.063,12.372 "/>
   <path class="fil2" d="M34.789 12.372c0.373,0 0.711,0.151 0.956,0.396 0.245,0.244 0.396,0.582 0.396,0.956 0,0.373 -0.151,0.711 -0.396,0.955 -0.245,0.245 -0.583,0.396 -0.956,0.396 -0.373,0 -0.711,-0.151 -0.956,-0.396 -0.244,-0.244 -0.396,-0.582 -0.396,-0.955 0,-0.374 0.152,-0.712 0.396,-0.956 0.245,-0.245 0.583,-0.396 0.956,-0.396zm0.763 0.589c-0.195,-0.195 -0.465,-0.316 -0.763,-0.316 -0.298,0 -0.568,0.121 -0.763,0.316 -0.195,0.195 -0.316,0.465 -0.316,0.763 0,0.298 0.121,0.567 0.316,0.762 0.195,0.196 0.465,0.316 0.763,0.316 0.298,0 0.568,-0.12 0.763,-0.316 0.195,-0.195 0.316,-0.464 0.316,-0.762 0,-0.298 -0.121,-0.568 -0.316,-0.763z"/>
   <polygon class="fil1" points="18.736,4.804 23.107,4.369 24.948,5.029 24.948,8.721 23.107,9.27 18.784,9.27 "/>
   <polygon class="fil3" points="14.099,14.168 14.099,7.729 19.573,7.184 19.573,14.168 "/>
   <path class="fil4" d="M13.963 14.168l0 -6.439c0,-0.074 0.059,-0.135 0.133,-0.136l5.464 -0.545c0.074,-0.007 0.141,0.047 0.148,0.122l0.001 6.998c0,0.076 -0.061,0.137 -0.136,0.137l-5.474 0c-0.075,0 -0.136,-0.061 -0.136,-0.137zm0.273 -6.316l0 6.18 5.2 0 0 -6.698 -5.2 0.518z"/>
   <polygon class="fil3" points="15.146,10.547 18.527,10.408 18.527,11.226 15.146,11.337 "/>
   <path class="fil4" d="M15.151 10.41l3.37 -0.138c0.075,-0.003 0.139,0.056 0.142,0.131l0 0.823c0,0.076 -0.061,0.137 -0.136,0.137l-3.377 0.11c-0.075,0.002 -0.138,-0.057 -0.14,-0.132l-0.001 -0.794c0,-0.076 0.061,-0.137 0.137,-0.137l0.005 0zm3.239 0.14l-3.108 0.127 0 0.519 3.108 -0.101 0 -0.545z"/>
   <polygon class="fil3" points="15.146,12.383 18.527,12.3 18.527,13.118 15.146,13.173 "/>
   <path class="fil4" d="M15.154 12.247l3.37 -0.083c0.075,-0.002 0.137,0.057 0.139,0.133l0 0.821c0,0.076 -0.061,0.137 -0.136,0.137l-3.379 0.054c-0.075,0.001 -0.137,-0.059 -0.138,-0.134l-0.001 -0.792c0,-0.075 0.061,-0.136 0.137,-0.136l0.008 0zm3.236 0.192l-3.108 0.077 0 0.519 3.108 -0.051 0 -0.545z"/>
   <polygon class="fil3" points="15.146,8.765 18.527,8.571 18.527,9.39 15.146,9.555 "/>
   <path class="fil4" d="M15.147 8.628l3.372 -0.193c0.075,-0.004 0.14,0.054 0.144,0.129l0 0.826c0,0.075 -0.061,0.136 -0.136,0.136l-3.375 0.165c-0.075,0.004 -0.139,-0.054 -0.142,-0.13l-0.001 -0.796c0,-0.075 0.061,-0.137 0.137,-0.137l0.001 0zm3.243 0.088l-3.108 0.178 0 0.518 3.108 -0.152 0 -0.544z"/>
   <polygon class="fil3" points="19.573,7.184 21.878,8.011 21.878,14.168 19.573,14.168 "/>
   <path class="fil4" d="M19.631 7.06l2.292 0.823c0.056,0.02 0.09,0.072 0.091,0.128l0 6.157c0,0.076 -0.061,0.137 -0.136,0.137l-2.305 0c-0.075,0 -0.137,-0.061 -0.137,-0.137l0 -6.984c0,-0.076 0.062,-0.137 0.137,-0.137 0.021,0 0.041,0.005 0.058,0.013zm2.11 1.046l-2.032 -0.729 0 6.655 2.032 0 0 -5.926z"/>
   <path class="fil4" d="M18.873 7.267c0,0.075 -0.061,0.137 -0.137,0.137 -0.075,0 -0.136,-0.062 -0.136,-0.137l0 -2.463c0,-0.074 0.059,-0.135 0.133,-0.136l4.329 -0.431c0.075,-0.007 0.142,0.047 0.149,0.122l0.032 4.911c0.001,0.075 -0.06,0.136 -0.135,0.136 -0.075,0.001 -0.136,-0.06 -0.137,-0.135l-0.03 -4.748 -4.068 0.405 0 2.339z"/>
   <path class="fil4" d="M23.244 8.721c0,0.075 -0.061,0.136 -0.137,0.136 -0.075,0 -0.136,-0.061 -0.136,-0.136l0 -4.352c0,-0.076 0.061,-0.137 0.136,-0.137 0.021,0 0.041,0.005 0.059,0.013l1.828 0.656c0.055,0.02 0.09,0.073 0.09,0.128l0 3.692c0,0.075 -0.061,0.136 -0.136,0.136 -0.075,0 -0.137,-0.061 -0.137,-0.136l0 -3.596 -1.567 -0.563 0 4.159z"/>
   <path class="fil5" d="M23.068 13.055c0.168,-0.044 0.5,0.08 0.719,0.133 0.557,0.133 1.229,0.133 1.786,0 0.218,-0.053 0.55,-0.177 0.719,-0.133 0.168,0.045 0.553,0.318 0.59,0.751l0.112 1.285c0.009,0.109 -0.091,0.2 -0.2,0.2l-4.228 0c-0.11,0 -0.21,-0.091 -0.2,-0.2l0.111 -1.285c0.038,-0.433 0.422,-0.706 0.591,-0.751z"/>
   <path class="fil6" d="M23.034 12.924c0.163,-0.043 0.402,0.025 0.612,0.084 0.067,0.019 0.131,0.037 0.172,0.047 0.267,0.064 0.563,0.096 0.862,0.096 0.298,0 0.595,-0.032 0.861,-0.096 0.042,-0.01 0.106,-0.028 0.172,-0.047 0.211,-0.059 0.45,-0.127 0.613,-0.084 0.12,0.031 0.326,0.154 0.48,0.349 0.108,0.137 0.194,0.313 0.212,0.521 0.037,0.429 0.093,0.885 0.113,1.311 0,0.087 -0.038,0.165 -0.096,0.223 -0.056,0.054 -0.132,0.091 -0.212,0.098l-0.029 0.001 -4.228 0 -0.029 -0.002c-0.081,-0.006 -0.157,-0.042 -0.212,-0.097 -0.059,-0.058 -0.096,-0.136 -0.096,-0.223 0.026,-0.433 0.075,-0.878 0.112,-1.311 0.018,-0.208 0.104,-0.384 0.213,-0.521 0.153,-0.195 0.36,-0.318 0.48,-0.349zm0.539 0.347c-0.178,-0.051 -0.38,-0.108 -0.471,-0.084 -0.078,0.021 -0.219,0.109 -0.334,0.254 -0.079,0.101 -0.142,0.228 -0.155,0.377l-0.111 1.287c0,0.01 0.005,0.02 0.014,0.029 0.011,0.011 0.027,0.018 0.044,0.02 1.043,0.043 3.261,0.1 4.239,0 0.018,-0.002 0.034,-0.009 0.045,-0.02 0.008,-0.009 0.014,-0.019 0.014,-0.029 0.015,-0.28 -0.084,-0.967 -0.112,-1.287 -0.013,-0.149 -0.076,-0.276 -0.155,-0.377 -0.114,-0.145 -0.255,-0.233 -0.333,-0.254 -0.092,-0.024 -0.293,0.033 -0.471,0.084 -0.06,0.017 -0.117,0.033 -0.183,0.049 -0.291,0.069 -0.608,0.104 -0.924,0.104 -0.316,0 -0.634,-0.035 -0.925,-0.104 -0.065,-0.016 -0.122,-0.032 -0.182,-0.049z"/>
   <path class="fil5" d="M24.672 9.511c0.857,0 1.552,0.695 1.552,1.552 0,0.858 -0.695,1.553 -1.552,1.553 -0.857,0 -1.552,-0.695 -1.552,-1.553 0,-0.857 0.695,-1.552 1.552,-1.552z"/>
   <path class="fil6" d="M24.672 9.375c0.466,0 0.889,0.189 1.194,0.494 0.306,0.306 0.495,0.728 0.495,1.194 0,0.467 -0.189,0.889 -0.495,1.195 -0.305,0.305 -0.728,0.494 -1.194,0.494 -0.466,0 -0.888,-0.189 -1.194,-0.494 -0.305,-0.306 -0.495,-0.728 -0.495,-1.195 0,-0.466 0.19,-0.888 0.495,-1.194 0.306,-0.305 0.728,-0.494 1.194,-0.494zm1.001 0.687c-0.256,-0.256 -0.61,-0.414 -1.001,-0.414 -0.391,0 -0.745,0.158 -1.001,0.414 -0.256,0.257 -0.415,0.611 -0.415,1.001 0,0.391 0.159,0.745 0.415,1.002 0.256,0.256 0.61,0.414 1.001,0.414 0.391,0 0.745,-0.158 1.001,-0.414 0.256,-0.257 0.415,-0.611 0.415,-1.002 0,-0.39 -0.159,-0.744 -0.415,-1.001z"/>
  </g>
 </g>
</svg>
