<?xml version="1.0" encoding="UTF-8"?>
<!DOCTYPE svg PUBLIC "-//W3C//DTD SVG 1.1//EN" "http://www.w3.org/Graphics/SVG/1.1/DTD/svg11.dtd">
<!-- Creator: CorelDRAW 2018 (64-Bit) -->
<svg xmlns="http://www.w3.org/2000/svg" xml:space="preserve" width="150px" height="72px" version="1.1" style="shape-rendering:geometricPrecision; text-rendering:geometricPrecision; image-rendering:optimizeQuality; fill-rule:evenodd; clip-rule:evenodd"
viewBox="0 0 40.954 19.658"
 xmlns:xlink="http://www.w3.org/1999/xlink">
 <defs>
  <style type="text/css">
   <![CDATA[
    .fil0 {fill:none}
    .fil5 {fill:#00F4FF}
    .fil1 {fill:#EAEDF2}
    .fil3 {fill:white}
    .fil6 {fill:gray;fill-rule:nonzero}
    .fil4 {fill:gray;fill-rule:nonzero}
    .fil2 {fill:#EAEDF2;fill-rule:nonzero}
   ]]>
  </style>
 </defs>
 <g id="Layer_x0020_1">
  <metadata id="CorelCorpID_0Corel-Layer"/>
  <g id="_1698791078880">
   <rect class="fil0" width="40.954" height="19.658"/>
   <path class="fil1" d="M23.179 2.77c3.16,0 6.383,2.269 6.383,7.835 0,5.566 -4.076,7.876 -10.664,7.876 -6.588,0 -9.461,-3.371 -9.461,-6.379 0,-3.008 2.964,-3.078 6.832,-4.623 3.868,-1.544 3.751,-4.709 6.91,-4.709z"/>
   <path class="fil1" d="M30.614 3.16l0 0c0.107,-0.106 0.28,-0.106 0.386,0l0.523 0.522 0.522 -0.522c0.106,-0.106 0.28,-0.106 0.386,0l0 0c0.106,0.107 0.106,0.28 0,0.386l-0.522 0.523 0.522 0.522c0.106,0.106 0.106,0.28 0,0.386l0 0c-0.106,0.106 -0.28,0.106 -0.386,0l-0.522 -0.522 -0.523 0.522c-0.106,0.106 -0.279,0.106 -0.386,0l0 0c-0.106,-0.106 -0.106,-0.28 0,-0.386l0.522 -0.522 -0.522 -0.523c-0.106,-0.106 -0.106,-0.279 0,-0.386z"/>
   <path class="fil1" d="M11.31 6.079c0.349,0 0.631,0.283 0.631,0.632 0,0.348 -0.282,0.631 -0.631,0.631 -0.349,0 -0.631,-0.283 -0.631,-0.631 0,-0.349 0.282,-0.632 0.631,-0.632z"/>
   <path class="fil2" d="M6.053 1.04c0.301,0 0.573,0.122 0.77,0.319 0.197,0.197 0.319,0.469 0.319,0.77 0,0.3 -0.122,0.572 -0.319,0.769 -0.197,0.197 -0.469,0.319 -0.77,0.319 -0.3,0 -0.572,-0.122 -0.769,-0.319 -0.197,-0.197 -0.319,-0.469 -0.319,-0.769 0,-0.301 0.122,-0.573 0.319,-0.77 0.197,-0.197 0.469,-0.319 0.769,-0.319zm0.577 0.512c-0.148,-0.148 -0.351,-0.239 -0.577,-0.239 -0.225,0 -0.429,0.091 -0.576,0.239 -0.148,0.147 -0.239,0.351 -0.239,0.577 0,0.225 0.091,0.429 0.239,0.576 0.147,0.148 0.351,0.239 0.576,0.239 0.226,0 0.429,-0.091 0.577,-0.239 0.147,-0.147 0.239,-0.351 0.239,-0.576 0,-0.226 -0.092,-0.43 -0.239,-0.577z"/>
   <polygon class="fil1" points="1.512,12.371 2.796,10.456 4.081,12.371 "/>
   <path class="fil2" d="M34.804 12.371c0.373,0 0.711,0.151 0.956,0.396 0.244,0.244 0.396,0.582 0.396,0.956 0,0.373 -0.152,0.711 -0.396,0.955 -0.245,0.245 -0.583,0.396 -0.956,0.396 -0.373,0 -0.711,-0.151 -0.956,-0.396 -0.244,-0.244 -0.396,-0.582 -0.396,-0.955 0,-0.374 0.152,-0.712 0.396,-0.956 0.245,-0.245 0.583,-0.396 0.956,-0.396zm0.763 0.589c-0.195,-0.195 -0.465,-0.316 -0.763,-0.316 -0.298,0 -0.568,0.121 -0.763,0.316 -0.195,0.195 -0.316,0.465 -0.316,0.763 0,0.297 0.121,0.567 0.316,0.762 0.195,0.195 0.465,0.316 0.763,0.316 0.298,0 0.568,-0.121 0.763,-0.316 0.195,-0.195 0.316,-0.465 0.316,-0.762 0,-0.298 -0.121,-0.568 -0.316,-0.763z"/>
   <path class="fil3" d="M15.232 10.392c0.281,-0.074 0.834,0.133 1.199,0.221 0.928,0.222 2.048,0.222 2.977,0 0.364,-0.088 0.918,-0.295 1.199,-0.221 0.281,0.074 0.922,0.53 0.985,1.252l0.185 2.141c0.016,0.183 -0.15,0.334 -0.333,0.334l-7.049 0c-0.183,0 -0.35,-0.151 -0.334,-0.334l0.186 -2.141c0.063,-0.722 0.703,-1.178 0.985,-1.252z"/>
   <path class="fil4" d="M15.199 10.266c0.247,-0.065 0.632,0.044 0.972,0.141 0.107,0.03 0.211,0.06 0.29,0.079 0.452,0.108 0.955,0.162 1.458,0.162 0.504,0 1.006,-0.054 1.459,-0.162 0.079,-0.019 0.183,-0.049 0.29,-0.079 0.34,-0.097 0.725,-0.206 0.972,-0.141l0.007 0.002c0.186,0.051 0.502,0.242 0.741,0.546 0.17,0.217 0.306,0.492 0.334,0.819 0.061,0.707 0.158,1.475 0.187,2.177 0,0.118 -0.051,0.224 -0.13,0.302 -0.078,0.076 -0.183,0.126 -0.295,0.136l-0.04 0.002 -7.049 0 -0.041 -0.002c-0.112,-0.01 -0.217,-0.06 -0.294,-0.136 -0.08,-0.078 -0.131,-0.184 -0.131,-0.302l0.002 -0.035 0.186 -2.142c0.028,-0.327 0.163,-0.602 0.334,-0.819 0.241,-0.308 0.563,-0.5 0.748,-0.548zm0.901 0.393c-0.308,-0.088 -0.658,-0.187 -0.836,-0.14 -0.145,0.037 -0.403,0.197 -0.608,0.457 -0.142,0.181 -0.255,0.41 -0.278,0.679l-0.187 2.155c0,0.044 0.021,0.085 0.052,0.116 0.035,0.034 0.083,0.057 0.134,0.061 2.109,0.091 4.976,0.091 7.085,0 0.051,-0.004 0.099,-0.027 0.133,-0.061 0.032,-0.031 0.052,-0.072 0.052,-0.116l-0.186 -2.155c-0.023,-0.269 -0.136,-0.498 -0.279,-0.679 -0.202,-0.258 -0.457,-0.416 -0.603,-0.456l-0.005 -0.001c-0.178,-0.047 -0.527,0.052 -0.835,0.14 -0.103,0.029 -0.202,0.057 -0.301,0.081 -0.476,0.113 -0.998,0.17 -1.519,0.17 -0.52,0 -1.043,-0.057 -1.519,-0.17 -0.099,-0.024 -0.197,-0.052 -0.3,-0.081z"/>
   <path class="fil3" d="M17.907 4.483c1.429,0 2.588,1.159 2.588,2.588 0,1.429 -1.159,2.588 -2.588,2.588 -1.43,0 -2.588,-1.159 -2.588,-2.588 0,-1.429 1.158,-2.588 2.588,-2.588z"/>
   <path class="fil4" d="M17.907 4.352c0.75,0 1.43,0.304 1.922,0.796 0.492,0.492 0.797,1.172 0.797,1.923 0,0.751 -0.305,1.431 -0.797,1.923 -0.492,0.492 -1.172,0.796 -1.922,0.796 -0.751,0 -1.431,-0.304 -1.923,-0.796 -0.492,-0.492 -0.797,-1.172 -0.797,-1.923 0,-0.751 0.305,-1.431 0.797,-1.923 0.492,-0.492 1.172,-0.796 1.923,-0.796zm1.737 0.981c-0.445,-0.444 -1.059,-0.719 -1.737,-0.719 -0.679,0 -1.293,0.275 -1.738,0.719 -0.444,0.445 -0.719,1.059 -0.719,1.738 0,0.678 0.275,1.293 0.719,1.737 0.445,0.445 1.059,0.72 1.738,0.72 0.678,0 1.292,-0.275 1.737,-0.72 0.445,-0.444 0.72,-1.059 0.72,-1.737 0,-0.679 -0.275,-1.293 -0.72,-1.738z"/>
   <path class="fil5" d="M21.92 15.808c-1.527,-0.876 -2.173,-1.749 -2.173,-2.755 0,-0.519 0.487,-1.067 1.086,-1.067 0.544,0 0.815,0.172 1.087,0.641 0.272,-0.469 0.543,-0.641 1.086,-0.641 0.6,0 1.087,0.548 1.087,1.067 0,1.006 -0.646,1.879 -2.173,2.755z"/>
   <path class="fil6" d="M21.85 15.925c-0.779,-0.447 -1.335,-0.896 -1.697,-1.362 -0.372,-0.479 -0.543,-0.977 -0.543,-1.51 0,-0.304 0.146,-0.615 0.379,-0.844 0.219,-0.215 0.516,-0.36 0.844,-0.36 0.297,0 0.522,0.049 0.715,0.165 0.141,0.084 0.26,0.202 0.372,0.36 0.111,-0.158 0.23,-0.276 0.371,-0.36 0.193,-0.116 0.419,-0.165 0.715,-0.165 0.329,0 0.626,0.145 0.845,0.36 0.233,0.228 0.378,0.54 0.378,0.844 0,0.533 -0.17,1.031 -0.542,1.51 -0.363,0.467 -0.92,0.915 -1.699,1.363 -0.044,0.026 -0.097,0.023 -0.138,-0.001zm-1.482 -1.53c0.332,0.427 0.84,0.841 1.552,1.256 0.711,-0.415 1.22,-0.829 1.551,-1.256 0.333,-0.428 0.485,-0.87 0.485,-1.342 0,-0.231 -0.113,-0.471 -0.296,-0.65 -0.171,-0.168 -0.401,-0.28 -0.654,-0.28 -0.246,0 -0.428,0.037 -0.575,0.124 -0.147,0.089 -0.269,0.233 -0.393,0.448 -0.011,0.02 -0.028,0.038 -0.05,0.05 -0.065,0.038 -0.148,0.016 -0.186,-0.049 -0.124,-0.215 -0.246,-0.36 -0.393,-0.449 -0.147,-0.087 -0.329,-0.124 -0.576,-0.124 -0.252,0 -0.483,0.112 -0.654,0.28 -0.182,0.179 -0.296,0.419 -0.296,0.65 0,0.472 0.153,0.914 0.485,1.342z"/>
  </g>
 </g>
</svg>
