<?xml version="1.0" encoding="UTF-8"?>
<!DOCTYPE svg PUBLIC "-//W3C//DTD SVG 1.1//EN" "http://www.w3.org/Graphics/SVG/1.1/DTD/svg11.dtd">
<!-- Creator: CorelDRAW 2018 (64-Bit) -->
<svg xmlns="http://www.w3.org/2000/svg" xml:space="preserve" width="150px" height="72px" version="1.1" style="shape-rendering:geometricPrecision; text-rendering:geometricPrecision; image-rendering:optimizeQuality; fill-rule:evenodd; clip-rule:evenodd"
viewBox="0 0 40.957 19.659"
 xmlns:xlink="http://www.w3.org/1999/xlink">
 <defs>
  <style type="text/css">
   <![CDATA[
    .fil0 {fill:none}
    .fil6 {fill:#00F4FF}
    .fil1 {fill:#EAEDF2}
    .fil3 {fill:white}
    .fil5 {fill:white}
    .fil4 {fill:gray;fill-rule:nonzero}
    .fil2 {fill:#EAEDF2;fill-rule:nonzero}
   ]]>
  </style>
 </defs>
 <g id="Layer_x0020_1">
  <metadata id="CorelCorpID_0Corel-Layer"/>
  <g id="_2492941162624">
   <rect class="fil0" width="40.957" height="19.659"/>
   <path class="fil1" d="M15.875 1.852c-3.303,0 -7.147,3.141 -7.147,8.256 0,5.114 4.735,7.699 11.621,7.699 6.886,0 9.888,-3.423 9.888,-6.478 0,-3.054 -3.097,-3.126 -7.14,-4.695 -4.043,-1.568 -3.92,-4.782 -7.222,-4.782z"/>
   <path class="fil1" d="M30.599 3.307l0 0c0.106,-0.106 0.28,-0.106 0.386,0l0.522 0.523 0.523 -0.523c0.106,-0.106 0.28,-0.106 0.386,0l0 0c0.106,0.107 0.106,0.28 0,0.386l-0.523 0.523 0.523 0.522c0.106,0.106 0.106,0.28 0,0.386l0 0c-0.106,0.106 -0.28,0.106 -0.386,0l-0.523 -0.522 -0.522 0.522c-0.106,0.106 -0.28,0.106 -0.386,0l0 0c-0.106,-0.106 -0.106,-0.28 0,-0.386l0.522 -0.522 -0.522 -0.523c-0.106,-0.106 -0.106,-0.279 0,-0.386z"/>
   <circle class="fil1" cx="23.564" cy="1.661" r="0.631"/>
   <path class="fil2" d="M6.036 3.371c0.3,0 0.573,0.122 0.77,0.319 0.197,0.197 0.319,0.469 0.319,0.769 0,0.301 -0.122,0.573 -0.319,0.77 -0.197,0.197 -0.47,0.319 -0.77,0.319 -0.301,0 -0.573,-0.122 -0.77,-0.319 -0.197,-0.197 -0.319,-0.469 -0.319,-0.77 0,-0.3 0.122,-0.572 0.319,-0.769 0.197,-0.197 0.469,-0.319 0.77,-0.319zm0.577 0.512c-0.148,-0.148 -0.352,-0.239 -0.577,-0.239 -0.225,0 -0.429,0.091 -0.577,0.239 -0.147,0.147 -0.239,0.351 -0.239,0.576 0,0.226 0.092,0.43 0.239,0.577 0.148,0.148 0.352,0.239 0.577,0.239 0.225,0 0.429,-0.091 0.577,-0.239 0.147,-0.147 0.239,-0.351 0.239,-0.577 0,-0.225 -0.092,-0.429 -0.239,-0.576z"/>
   <polygon class="fil1" points="1.494,14.703 2.778,12.788 4.063,14.703 "/>
   <path class="fil2" d="M34.789 12.519c0.373,0 0.711,0.151 0.956,0.396 0.245,0.244 0.396,0.582 0.396,0.956 0,0.373 -0.151,0.711 -0.396,0.955 -0.245,0.245 -0.583,0.396 -0.956,0.396 -0.373,0 -0.711,-0.151 -0.956,-0.396 -0.244,-0.244 -0.396,-0.582 -0.396,-0.955 0,-0.374 0.152,-0.712 0.396,-0.956 0.245,-0.245 0.583,-0.396 0.956,-0.396zm0.763 0.589c-0.195,-0.195 -0.465,-0.316 -0.763,-0.316 -0.298,0 -0.568,0.121 -0.763,0.316 -0.195,0.195 -0.316,0.465 -0.316,0.763 0,0.297 0.121,0.567 0.316,0.762 0.195,0.195 0.465,0.316 0.763,0.316 0.298,0 0.568,-0.121 0.763,-0.316 0.195,-0.195 0.316,-0.465 0.316,-0.762 0,-0.298 -0.121,-0.568 -0.316,-0.763z"/>
   <path class="fil3" d="M16.061 11.57l1.238 -0.684c-0.094,-0.259 -0.091,-0.586 0.048,-1 -0.36,0.372 -0.803,0.63 -1.286,0.635 -0.485,-0.005 -0.93,-0.265 -1.291,-0.639 0.14,0.415 0.144,0.743 0.051,1.003l1.24 0.685z"/>
   <path class="fil4" d="M16.061 11.414l1.075 -0.594c-0.029,-0.116 -0.042,-0.243 -0.036,-0.381 0.002,-0.054 0.007,-0.109 0.014,-0.167 -0.106,0.08 -0.218,0.149 -0.334,0.206 -0.225,0.111 -0.466,0.176 -0.718,0.179l-0.002 0c-0.253,-0.003 -0.496,-0.068 -0.721,-0.18 -0.116,-0.057 -0.228,-0.127 -0.335,-0.207 0.008,0.057 0.013,0.113 0.015,0.166 0.006,0.139 -0.007,0.266 -0.036,0.383l1.078 0.595zm1.303 -0.408l-1.303 0.719 -1.408 -0.777 0.04 -0.109c0.041,-0.114 0.06,-0.243 0.054,-0.392 -0.006,-0.153 -0.04,-0.327 -0.106,-0.522l0.227 -0.138c0.179,0.185 0.378,0.34 0.592,0.446 0.19,0.094 0.392,0.149 0.601,0.152 0.208,-0.003 0.409,-0.057 0.599,-0.151 0.213,-0.105 0.411,-0.259 0.589,-0.443l0.227 0.138c-0.065,0.195 -0.099,0.367 -0.104,0.521 -0.006,0.147 0.014,0.277 0.055,0.39l0.039 0.109 -0.102 0.057z"/>
   <path class="fil5" d="M21.049 12.51c-0.558,-0.584 -0.801,-0.506 -1.681,-0.616 -0.675,-0.085 -1.357,-0.225 -1.763,-0.574l-1.151 1.136 -0.393 -0.887 -0.393 0.887 -1.153 -1.137c-0.405,0.349 -1.089,0.49 -1.764,0.575 -0.881,0.11 -1.124,0.032 -1.681,0.616 1.996,2.754 8.026,2.753 9.979,0z"/>
   <path class="fil4" d="M21.148 12.416c0.052,0.055 0.049,0.141 -0.005,0.193 -0.054,0.051 -0.141,0.049 -0.192,-0.005 -0.432,-0.452 -0.664,-0.476 -1.213,-0.532 -0.121,-0.013 -0.255,-0.026 -0.387,-0.043 -0.342,-0.043 -0.688,-0.1 -1.003,-0.193 -0.277,-0.08 -0.528,-0.188 -0.732,-0.335l-1.067 1.052c-0.053,0.053 -0.14,0.052 -0.192,-0.002 -0.012,-0.012 -0.021,-0.025 -0.028,-0.04l-0.268 -0.605 -0.268 0.605c-0.031,0.069 -0.111,0.1 -0.18,0.07 -0.018,-0.008 -0.034,-0.02 -0.047,-0.034l-1.061 -1.047c-0.204,0.148 -0.456,0.255 -0.733,0.336 -0.316,0.092 -0.662,0.15 -1.004,0.193 -0.132,0.017 -0.267,0.03 -0.388,0.043 -0.548,0.056 -0.78,0.08 -1.212,0.532 -0.052,0.054 -0.138,0.056 -0.192,0.005 -0.055,-0.052 -0.057,-0.138 -0.005,-0.193 0.502,-0.525 0.763,-0.552 1.382,-0.615 0.106,-0.011 0.225,-0.023 0.381,-0.043 0.333,-0.042 0.667,-0.097 0.962,-0.183 0.288,-0.084 0.543,-0.199 0.73,-0.359 0.053,-0.046 0.133,-0.044 0.184,0.006l1.013 0.999 0.313 -0.707c0.013,-0.03 0.037,-0.055 0.07,-0.069 0.069,-0.031 0.149,0.001 0.18,0.069l0.313 0.707 1.01 -0.996c0.049,-0.051 0.13,-0.055 0.185,-0.008 0.187,0.16 0.442,0.274 0.73,0.358 0.295,0.086 0.628,0.142 0.96,0.183 0.156,0.02 0.275,0.032 0.382,0.043 0.619,0.063 0.88,0.09 1.382,0.615z"/>
   <path class="fil3" d="M17.535 9.673c0.301,-0.374 0.548,-0.822 0.548,-1.236l0 -0.171 0 -0.937 0 -0.214c0.007,-0.199 -0.013,-0.598 -0.035,-0.745 -0.068,-0.453 -1.179,-0.839 -1.986,-0.952 -0.807,-0.113 -1.268,-0.135 -1.645,0.332 -0.2,0.249 -0.372,0.845 -0.378,1.344l0 0.235 0 0.937 0 0.171c0,0.414 0.247,0.862 0.547,1.236 0.059,0.072 0.12,0.142 0.184,0.209 0.361,0.374 0.806,0.634 1.291,0.639 0.483,-0.005 0.926,-0.263 1.286,-0.635 0.066,-0.068 0.128,-0.139 0.188,-0.213z"/>
   <path class="fil4" d="M17.429 9.587c0.155,-0.192 0.294,-0.404 0.39,-0.619 0.079,-0.179 0.127,-0.36 0.127,-0.531 0,-0.395 -0.041,-0.96 0.001,-1.327 0.003,-0.092 0,-0.233 -0.006,-0.37 -0.007,-0.142 -0.017,-0.278 -0.028,-0.35 -0.023,-0.152 -0.234,-0.309 -0.524,-0.448 -0.39,-0.187 -0.912,-0.328 -1.346,-0.389 -0.392,-0.055 -0.698,-0.088 -0.945,-0.052 -0.229,0.034 -0.411,0.131 -0.575,0.335 -0.089,0.11 -0.174,0.306 -0.238,0.535 -0.065,0.23 -0.107,0.489 -0.11,0.723 0.001,0.448 0,0.895 0,1.343 0,0.171 0.049,0.352 0.128,0.531 0.095,0.215 0.235,0.427 0.389,0.619 0.03,0.036 0.059,0.071 0.087,0.103 0.032,0.036 0.062,0.069 0.089,0.097 0.179,0.185 0.378,0.34 0.592,0.446 0.19,0.094 0.392,0.149 0.601,0.152 0.208,-0.003 0.409,-0.057 0.599,-0.151 0.213,-0.105 0.411,-0.259 0.589,-0.443 0.029,-0.029 0.059,-0.062 0.091,-0.098 0.029,-0.033 0.059,-0.068 0.089,-0.106zm0.639 -0.51c-0.105,0.239 -0.258,0.471 -0.427,0.681 -0.03,0.037 -0.062,0.076 -0.096,0.115 -0.03,0.034 -0.064,0.07 -0.1,0.108 -0.199,0.205 -0.423,0.378 -0.665,0.497 -0.225,0.111 -0.466,0.176 -0.718,0.179l-0.002 0c-0.253,-0.003 -0.496,-0.068 -0.721,-0.18 -0.243,-0.12 -0.468,-0.294 -0.667,-0.501 -0.036,-0.037 -0.068,-0.072 -0.098,-0.106 -0.033,-0.038 -0.064,-0.075 -0.094,-0.112 -0.168,-0.21 -0.321,-0.442 -0.427,-0.68 -0.093,-0.212 -0.151,-0.43 -0.151,-0.641 0,-0.21 -0.029,-1.256 0.001,-1.344 0.003,-0.261 0.049,-0.545 0.119,-0.796 0.074,-0.261 0.176,-0.492 0.289,-0.632 0.212,-0.264 0.449,-0.39 0.747,-0.434 0.28,-0.041 0.607,-0.006 1.023,0.052 0.456,0.064 1.009,0.214 1.426,0.414 0.367,0.176 0.638,0.399 0.676,0.653 0.011,0.078 0.023,0.225 0.03,0.377 0.006,0.14 0.009,0.287 0.006,0.388l0 1.322c0,0.211 -0.057,0.429 -0.151,0.64z"/>
   <path class="fil3" d="M18.541 7.797c0,-0.259 -0.205,-0.468 -0.458,-0.468l0 0.937c0.253,0 0.458,-0.21 0.458,-0.469z"/>
   <path class="fil4" d="M18.404 7.797c0,-0.092 -0.036,-0.176 -0.095,-0.236 -0.026,-0.027 -0.056,-0.049 -0.09,-0.065l0 0.602c0.034,-0.016 0.064,-0.038 0.09,-0.064 0.059,-0.06 0.095,-0.144 0.095,-0.237zm0.1 -0.426c0.107,0.109 0.173,0.26 0.173,0.426 0,0.166 -0.066,0.317 -0.173,0.426 -0.108,0.111 -0.257,0.179 -0.421,0.179l-0.137 0 0 -1.21 0.137 0c0.164,0 0.313,0.068 0.421,0.179z"/>
   <path class="fil3" d="M14.039 8.266l0 -0.937c-0.253,0 -0.458,0.209 -0.458,0.468 0,0.259 0.205,0.469 0.458,0.469z"/>
   <path class="fil4" d="M13.902 8.098l0 -0.602c-0.033,0.017 -0.064,0.039 -0.09,0.065 -0.058,0.06 -0.095,0.144 -0.095,0.236 0,0.093 0.037,0.176 0.095,0.236 0.026,0.027 0.057,0.049 0.09,0.065zm0.273 -0.769l0 1.073 -0.136 0c-0.165,0 -0.314,-0.068 -0.422,-0.178 -0.107,-0.11 -0.173,-0.261 -0.173,-0.427 0,-0.166 0.066,-0.317 0.173,-0.426 0.108,-0.111 0.257,-0.179 0.422,-0.179l0.136 0 0 0.137z"/>
   <path class="fil1" d="M18.409 5.616c-0.287,-0.981 -1.597,-1.516 -2.619,-1.526 -0.744,-0.007 -1.748,0.214 -1.728,1.419 -0.682,0.39 -0.27,1.297 -0.152,1.838 0.041,-0.012 0.084,-0.018 0.129,-0.018l0 -0.235c0.006,-0.499 0.178,-1.095 0.378,-1.344 0.377,-0.467 0.838,-0.445 1.645,-0.332 0.807,0.113 1.918,0.499 1.986,0.952 0.022,0.147 0.042,0.546 0.035,0.745l0 0.214c0.062,0 0.121,0.012 0.174,0.035 0.117,-0.541 0.279,-1.313 0.152,-1.748z"/>
   <path class="fil4" d="M18.278 5.654c-0.121,-0.414 -0.446,-0.745 -0.855,-0.983 -0.494,-0.287 -1.104,-0.44 -1.634,-0.445l-0.089 0c-0.34,0.006 -0.721,0.065 -1.014,0.25 -0.281,0.178 -0.483,0.48 -0.488,0.978l0 0.054c0,0.051 -0.027,0.095 -0.068,0.119 -0.422,0.242 -0.333,0.762 -0.213,1.217 0.02,-0.186 0.057,-0.374 0.105,-0.547 0.074,-0.261 0.176,-0.492 0.289,-0.632 0.212,-0.264 0.449,-0.39 0.747,-0.434 0.28,-0.041 0.607,-0.006 1.023,0.052 0.456,0.064 1.009,0.214 1.426,0.414 0.367,0.176 0.638,0.399 0.676,0.653 0.011,0.078 0.023,0.225 0.03,0.377l0.005 0.151c0.028,-0.146 0.053,-0.297 0.071,-0.444 0.038,-0.3 0.047,-0.584 -0.011,-0.78zm-0.719 -1.219c0.465,0.271 0.838,0.655 0.981,1.143 0.069,0.238 0.061,0.558 0.02,0.889 -0.039,0.318 -0.11,0.651 -0.169,0.925l-0.008 0.025c-0.029,0.069 -0.109,0.101 -0.178,0.072 -0.019,-0.008 -0.039,-0.014 -0.06,-0.018 -0.018,-0.004 -0.039,-0.006 -0.062,-0.006 -0.076,0 -0.137,-0.061 -0.137,-0.136l0.001 -0.219c0.003,-0.092 0,-0.233 -0.006,-0.37 -0.007,-0.142 -0.017,-0.278 -0.028,-0.35 -0.023,-0.152 -0.234,-0.309 -0.524,-0.448 -0.39,-0.187 -0.912,-0.328 -1.346,-0.389 -0.392,-0.055 -0.698,-0.088 -0.945,-0.052 -0.229,0.034 -0.411,0.131 -0.575,0.335 -0.089,0.11 -0.174,0.306 -0.238,0.535 -0.064,0.227 -0.106,0.481 -0.11,0.713l0 0.245c0,0.075 -0.061,0.136 -0.136,0.136 -0.017,0 -0.032,0.001 -0.046,0.003 -0.013,0.002 -0.026,0.005 -0.039,0.008l-0.015 0.005c-0.074,0.015 -0.146,-0.031 -0.162,-0.105 -0.02,-0.091 -0.047,-0.188 -0.076,-0.291 -0.154,-0.556 -0.351,-1.264 0.225,-1.652 0.011,-0.597 0.265,-0.966 0.615,-1.187 0.342,-0.216 0.773,-0.285 1.154,-0.292l0.096 0c0.574,0.006 1.235,0.171 1.768,0.481z"/>
   <path class="fil6" d="M16.454 12.456l1.254 -1.238c-0.138,-0.119 -0.244,-0.262 -0.307,-0.434l-1.34 0.786 0.393 0.886z"/>
   <path class="fil4" d="M16.499 12.221l1.014 -1.002c-0.035,-0.037 -0.068,-0.077 -0.097,-0.119 -0.028,-0.038 -0.054,-0.079 -0.077,-0.122l-1.104 0.647 0.264 0.596zm1.305 -0.906l-1.249 1.232c-0.012,0.014 -0.028,0.026 -0.046,0.034 -0.069,0.03 -0.15,-0.001 -0.18,-0.07l-0.393 -0.887c-0.027,-0.062 -0.004,-0.137 0.056,-0.172l1.336 -0.783c0.009,-0.006 0.017,-0.01 0.027,-0.013 0.07,-0.026 0.149,0.011 0.174,0.081 0.027,0.074 0.063,0.142 0.108,0.205 0.045,0.063 0.099,0.12 0.16,0.172l0.008 0.008c0.053,0.054 0.052,0.14 -0.001,0.193z"/>
   <path class="fil6" d="M15.668 12.456l-1.254 -1.238c0.138,-0.119 0.244,-0.262 0.307,-0.434l1.34 0.786 -0.393 0.886z"/>
   <path class="fil4" d="M15.566 12.547l-1.248 -1.232c-0.053,-0.053 -0.054,-0.139 -0.001,-0.193l0.008 -0.008c0.061,-0.052 0.115,-0.109 0.159,-0.172 0.045,-0.063 0.082,-0.131 0.109,-0.205 0.025,-0.07 0.103,-0.107 0.174,-0.081 0.009,0.003 0.018,0.007 0.026,0.013l1.337 0.783c0.06,0.035 0.083,0.11 0.055,0.172l-0.393 0.887c-0.03,0.069 -0.11,0.1 -0.179,0.07 -0.018,-0.008 -0.034,-0.02 -0.047,-0.034zm-0.957 -1.328l1.014 1.002 0.264 -0.596 -1.104 -0.647c-0.023,0.043 -0.049,0.084 -0.077,0.122 -0.03,0.042 -0.062,0.081 -0.097,0.119z"/>
   <path class="fil6" d="M27.897 14.124c-0.515,-0.593 -0.779,-0.73 -1.226,-0.798 -0.693,0.624 -1.688,1.087 -2.804,1.298 -0.074,0.418 0.067,0.819 0.598,1.219 -0.438,-0.03 -1.439,-0.175 -1.7,-1.094 -0.075,0.001 -0.178,0.002 -0.243,0.002 -1.683,0 -3.181,-0.556 -4.145,-1.421 -0.447,0.068 -0.711,0.205 -1.225,0.796 2.129,3.002 8.617,3.001 10.745,-0.002z"/>
   <path class="fil4" d="M28 14.035c0.05,0.057 0.043,0.143 -0.014,0.192 -0.056,0.049 -0.142,0.043 -0.191,-0.014 -0.249,-0.286 -0.434,-0.46 -0.609,-0.57 -0.15,-0.094 -0.296,-0.141 -0.473,-0.172 -0.348,0.303 -0.765,0.568 -1.232,0.784 -0.456,0.211 -0.96,0.376 -1.492,0.484 -0.014,0.151 0.007,0.3 0.074,0.445 0.083,0.182 0.237,0.365 0.483,0.55 0.06,0.045 0.073,0.131 0.028,0.191 -0.029,0.038 -0.074,0.056 -0.118,0.054 -0.229,-0.015 -0.606,-0.062 -0.964,-0.226 -0.344,-0.158 -0.667,-0.422 -0.826,-0.867l-0.144 0.001c-0.841,0.001 -1.637,-0.136 -2.346,-0.379 -0.715,-0.245 -1.343,-0.6 -1.84,-1.033 -0.178,0.032 -0.325,0.079 -0.474,0.172 -0.174,0.109 -0.359,0.283 -0.607,0.568 -0.049,0.057 -0.135,0.064 -0.192,0.014 -0.057,-0.049 -0.063,-0.135 -0.014,-0.192 0.266,-0.306 0.47,-0.496 0.669,-0.62 0.205,-0.129 0.398,-0.185 0.639,-0.222 0.038,-0.005 0.079,0.006 0.111,0.034 0.477,0.428 1.091,0.779 1.796,1.021 0.681,0.234 1.448,0.365 2.258,0.365l0.233 -0.002c0.063,-0.005 0.124,0.035 0.141,0.099 0.118,0.413 0.403,0.653 0.709,0.794 0.148,0.068 0.302,0.113 0.445,0.143 -0.103,-0.116 -0.18,-0.233 -0.235,-0.352 -0.105,-0.23 -0.124,-0.461 -0.083,-0.696 0.01,-0.054 0.052,-0.1 0.11,-0.11 0.545,-0.104 1.061,-0.268 1.525,-0.483 0.462,-0.214 0.872,-0.478 1.209,-0.78 0.03,-0.029 0.071,-0.043 0.115,-0.037 0.241,0.037 0.434,0.093 0.64,0.222 0.198,0.124 0.402,0.315 0.669,0.622z"/>
   <path class="fil3" d="M20.318 8.064l0 1.023 0 0.186c0,0.801 0.852,1.878 2.206,2.273 0.419,-0.122 0.79,-0.31 1.102,-0.535 0.698,-0.501 1.104,-1.185 1.104,-1.738l0 -0.186 0 -1.023 0 -0.255c-0.352,-0.328 -0.674,-0.315 -0.876,-1.575 -1.079,1.145 -2.692,1.187 -3.536,1.575l0 0.255z"/>
   <path class="fil4" d="M20.454 8.064l0 1.209c0,0.388 0.223,0.852 0.621,1.262 0.356,0.367 0.851,0.687 1.449,0.869 0.182,-0.055 0.355,-0.124 0.518,-0.203 0.182,-0.088 0.351,-0.19 0.505,-0.3 0.327,-0.235 0.587,-0.512 0.766,-0.795 0.182,-0.286 0.281,-0.577 0.281,-0.833l0 -1.404c-0.049,-0.041 -0.096,-0.077 -0.142,-0.112 -0.271,-0.206 -0.515,-0.392 -0.686,-1.246 -0.75,0.682 -1.684,0.926 -2.463,1.13 -0.32,0.084 -0.614,0.16 -0.849,0.257l0 0.166zm-0.273 1.023l0 -1.278c0.001,-0.052 0.03,-0.101 0.08,-0.124 0.269,-0.123 0.604,-0.211 0.974,-0.308 0.811,-0.211 1.797,-0.469 2.52,-1.236 0.02,-0.021 0.046,-0.036 0.077,-0.041 0.075,-0.012 0.144,0.039 0.156,0.113 0.156,0.968 0.378,1.137 0.629,1.328 0.065,0.049 0.132,0.1 0.199,0.161 0.031,0.025 0.051,0.064 0.051,0.107l0 1.464c0,0.308 -0.113,0.649 -0.323,0.979 -0.197,0.31 -0.481,0.613 -0.838,0.87 -0.167,0.12 -0.35,0.229 -0.546,0.325 -0.186,0.09 -0.385,0.167 -0.597,0.229 -0.024,0.008 -0.051,0.008 -0.077,0.001 -0.664,-0.194 -1.213,-0.547 -1.606,-0.952 -0.448,-0.461 -0.699,-0.995 -0.699,-1.452l0 -0.186z"/>
   <path class="fil3" d="M21.04 12.634c-0.448,0.357 -1.156,0.516 -1.858,0.604 -0.34,0.043 -0.593,0.06 -0.805,0.092 0.964,0.865 2.462,1.421 4.145,1.421 0.065,0 0.168,-0.001 0.243,-0.002 -0.048,-0.169 -0.071,-0.364 -0.06,-0.589 0.055,-1.25 0.661,-1.188 0.862,-2.168 0.051,-0.247 0.076,-0.562 0.059,-0.981 -0.312,0.225 -0.683,0.413 -1.102,0.535 -0.435,-0.127 -0.819,-0.325 -1.139,-0.561 0.269,0.798 0.079,1.312 -0.345,1.649zm3.339 0.932c-0.251,0.369 -0.453,0.719 -0.512,1.058 1.116,-0.211 2.111,-0.674 2.804,-1.298 -0.212,-0.032 -0.465,-0.049 -0.805,-0.092 -0.385,-0.048 -0.792,-0.113 -1.136,-0.218 -0.115,0.192 -0.233,0.376 -0.351,0.55z"/>
   <path class="fil4" d="M21.125 12.741c-0.238,0.19 -0.544,0.327 -0.88,0.427 -0.33,0.098 -0.69,0.161 -1.046,0.206 -0.144,0.018 -0.291,0.033 -0.424,0.046l-0.069 0.007c0.437,0.339 0.965,0.62 1.558,0.823 0.681,0.234 1.447,0.365 2.258,0.365l0.073 0c-0.007,-0.041 -0.013,-0.082 -0.017,-0.125 -0.011,-0.104 -0.015,-0.216 -0.009,-0.336 0.033,-0.745 0.251,-1.05 0.473,-1.359 0.154,-0.214 0.31,-0.432 0.392,-0.83 0.024,-0.117 0.042,-0.251 0.052,-0.407 0.006,-0.092 0.009,-0.19 0.009,-0.296 -0.106,0.066 -0.218,0.128 -0.335,0.185 -0.186,0.09 -0.386,0.168 -0.598,0.23 -0.026,0.007 -0.053,0.007 -0.077,-0.001 -0.22,-0.064 -0.427,-0.145 -0.619,-0.24 -0.089,-0.044 -0.174,-0.09 -0.257,-0.139 0.052,0.271 0.047,0.509 -0.004,0.718 -0.075,0.302 -0.246,0.539 -0.48,0.726zm-0.957 0.166c0.305,-0.091 0.578,-0.213 0.788,-0.379 0.188,-0.151 0.325,-0.34 0.384,-0.578 0.061,-0.246 0.042,-0.549 -0.084,-0.922 -0.013,-0.041 -0.008,-0.087 0.02,-0.124 0.045,-0.06 0.13,-0.073 0.19,-0.028 0.157,0.116 0.332,0.223 0.52,0.316 0.169,0.083 0.348,0.154 0.538,0.212 0.182,-0.055 0.355,-0.124 0.518,-0.203 0.181,-0.087 0.348,-0.188 0.501,-0.297 0.021,-0.017 0.048,-0.027 0.078,-0.029 0.075,-0.003 0.138,0.056 0.141,0.131 0.009,0.215 0.007,0.403 -0.004,0.569 -0.011,0.167 -0.031,0.314 -0.058,0.445 -0.093,0.455 -0.266,0.696 -0.437,0.934 -0.198,0.276 -0.393,0.547 -0.422,1.212 -0.005,0.105 -0.002,0.204 0.008,0.295 0.009,0.09 0.026,0.174 0.047,0.251 0.003,0.011 0.005,0.023 0.005,0.035 0.001,0.075 -0.059,0.137 -0.134,0.138 -0.079,0.001 -0.167,-0.001 -0.245,0.003 -0.841,0 -1.637,-0.137 -2.346,-0.38 -0.735,-0.252 -1.378,-0.619 -1.881,-1.069 -0.028,-0.021 -0.047,-0.052 -0.053,-0.089 -0.011,-0.074 0.04,-0.144 0.115,-0.155 0.111,-0.017 0.241,-0.03 0.391,-0.046 0.116,-0.011 0.247,-0.025 0.418,-0.046 0.345,-0.043 0.69,-0.104 1.002,-0.196zm4.323 0.735c-0.122,0.18 -0.232,0.355 -0.318,0.526 -0.048,0.094 -0.089,0.187 -0.12,0.279 0.468,-0.103 0.911,-0.252 1.314,-0.439 0.36,-0.167 0.688,-0.363 0.974,-0.585l-0.071 -0.007c-0.131,-0.013 -0.277,-0.028 -0.421,-0.046 -0.19,-0.024 -0.39,-0.053 -0.591,-0.09 -0.16,-0.029 -0.317,-0.063 -0.466,-0.104l-0.122 0.195c-0.059,0.093 -0.119,0.183 -0.179,0.271zm-0.562 0.403c0.092,-0.181 0.208,-0.366 0.337,-0.555 0.058,-0.086 0.117,-0.175 0.175,-0.265 0.056,-0.088 0.113,-0.181 0.172,-0.279 0.031,-0.052 0.095,-0.078 0.156,-0.06 0.167,0.051 0.35,0.092 0.538,0.127 0.185,0.033 0.381,0.061 0.575,0.086 0.168,0.021 0.299,0.034 0.416,0.046 0.15,0.016 0.281,0.029 0.393,0.046 0.03,0.005 0.059,0.019 0.081,0.044 0.05,0.056 0.046,0.142 -0.01,0.192 -0.357,0.322 -0.792,0.602 -1.281,0.828 -0.481,0.223 -1.016,0.394 -1.581,0.502 -0.018,0.004 -0.037,0.005 -0.057,0.002 -0.074,-0.013 -0.124,-0.084 -0.111,-0.158 0.032,-0.183 0.102,-0.368 0.197,-0.556z"/>
   <path class="fil3" d="M24.73 8.064l0 1.023c0.276,0 0.5,-0.229 0.5,-0.512 0,-0.282 -0.224,-0.511 -0.5,-0.511z"/>
   <path class="fil4" d="M24.867 8.228l0 0.695c0.045,-0.019 0.085,-0.047 0.119,-0.081 0.066,-0.068 0.107,-0.162 0.107,-0.267 0,-0.104 -0.041,-0.198 -0.107,-0.266 -0.034,-0.035 -0.075,-0.062 -0.119,-0.081zm-0.273 0.859l0 -1.023c0,-0.075 0.061,-0.136 0.136,-0.136 0.176,0 0.335,0.073 0.45,0.191l0.001 0c0.114,0.117 0.185,0.279 0.185,0.456 0,0.178 -0.071,0.34 -0.185,0.457 -0.116,0.118 -0.275,0.191 -0.451,0.191 -0.075,0 -0.136,-0.061 -0.136,-0.136z"/>
   <path class="fil3" d="M19.818 8.575c0,0.283 0.224,0.512 0.5,0.512l0 -1.023c-0.276,0 -0.5,0.229 -0.5,0.511z"/>
   <path class="fil4" d="M19.955 8.575c0,0.105 0.041,0.199 0.107,0.266l0.006 0.007c0.032,0.032 0.071,0.057 0.113,0.075l0 -0.695c-0.045,0.019 -0.085,0.046 -0.119,0.081 -0.066,0.068 -0.107,0.162 -0.107,0.266zm-0.088 0.457c-0.115,-0.117 -0.186,-0.278 -0.186,-0.457 0,-0.177 0.071,-0.339 0.186,-0.456 0.116,-0.118 0.275,-0.191 0.451,-0.191 0.075,0 0.136,0.061 0.136,0.136l0 1.023c0,0.075 -0.061,0.136 -0.136,0.136 -0.172,0 -0.328,-0.07 -0.443,-0.183l-0.008 -0.008z"/>
   <path class="fil1" d="M23.631 11.008c0.001,0.059 0.001,0.117 0,0.176 0.004,0.334 -0.02,0.595 -0.064,0.807 0,0 0,0.001 0,0.001 -0.201,0.98 -0.807,0.918 -0.862,2.168 -0.011,0.225 0.012,0.42 0.06,0.589 0.261,0.919 1.262,1.065 1.7,1.094 -0.531,-0.4 -0.672,-0.801 -0.598,-1.219 0.118,-0.646 0.575,-1.072 0.863,-1.608 0.697,-1.163 1.301,-2.637 1.287,-4.186 -0.022,-2.634 -1.555,-3.948 -3.425,-4.023 -1.869,-0.075 -3.197,2.059 -3.156,3.813 0.04,1.742 0.841,3.107 1.604,4.014 0.424,-0.337 0.614,-0.851 0.345,-1.649 -0.675,-0.498 -1.067,-1.169 -1.067,-1.712l0 -0.186c-0.276,0 -0.5,-0.229 -0.5,-0.512 0,-0.282 0.224,-0.511 0.5,-0.511l0 -0.255c0.844,-0.388 2.457,-0.43 3.536,-1.575 0.202,1.26 0.524,1.247 0.876,1.575l0 0.255c0.276,0 0.5,0.229 0.5,0.511 0,0.283 -0.224,0.512 -0.5,0.512l0 0.186c0,0.552 -0.405,1.235 -1.099,1.735z"/>
   <path class="fil4" d="M23.767 11.077l0 0.106c0.002,0.174 -0.003,0.327 -0.014,0.461 -0.011,0.137 -0.029,0.261 -0.052,0.374l-0.001 0.002c-0.093,0.455 -0.266,0.696 -0.437,0.934 -0.198,0.276 -0.393,0.547 -0.422,1.212 -0.005,0.105 -0.002,0.204 0.008,0.295 0.009,0.09 0.026,0.174 0.047,0.251 0.118,0.413 0.403,0.653 0.709,0.794 0.148,0.068 0.302,0.113 0.445,0.144 -0.103,-0.117 -0.18,-0.234 -0.235,-0.353 -0.105,-0.23 -0.124,-0.461 -0.083,-0.696l0.003 -0.011c0.086,-0.455 0.322,-0.797 0.557,-1.139 0.113,-0.163 0.225,-0.326 0.318,-0.499l0.006 -0.011c0.373,-0.623 0.719,-1.336 0.954,-2.101 0.197,-0.641 0.317,-1.318 0.311,-2.009 -0.01,-1.216 -0.348,-2.139 -0.894,-2.78 -0.6,-0.705 -1.455,-1.07 -2.4,-1.108 -0.049,-0.002 -0.096,-0.003 -0.142,-0.002 -0.811,0.019 -1.51,0.482 -2.015,1.138 -0.512,0.664 -0.824,1.525 -0.856,2.327 -0.003,0.072 -0.004,0.142 -0.002,0.211l0 0.001c0.017,0.751 0.18,1.431 0.42,2.033 0.284,0.709 0.674,1.309 1.064,1.789 0.137,-0.135 0.236,-0.296 0.284,-0.49 0.059,-0.237 0.043,-0.527 -0.071,-0.882 -0.329,-0.249 -0.592,-0.538 -0.776,-0.834 -0.203,-0.325 -0.312,-0.659 -0.312,-0.961l0 -0.065c-0.121,-0.027 -0.229,-0.089 -0.314,-0.176 -0.115,-0.117 -0.186,-0.278 -0.186,-0.457 0,-0.177 0.071,-0.339 0.186,-0.456l0 -0.001c0.085,-0.086 0.193,-0.148 0.314,-0.175l0 -0.134c0,-0.06 0.039,-0.111 0.092,-0.129 0.267,-0.121 0.598,-0.207 0.962,-0.303 0.811,-0.211 1.797,-0.469 2.52,-1.236 0.051,-0.055 0.137,-0.058 0.192,-0.006 0.024,0.023 0.038,0.052 0.042,0.082 0.155,0.964 0.377,1.133 0.628,1.324 0.067,0.051 0.137,0.104 0.206,0.168 0.029,0.027 0.043,0.063 0.043,0.1l0.001 0.134c0.121,0.027 0.229,0.089 0.314,0.176 0.114,0.117 0.185,0.279 0.185,0.456 0,0.178 -0.071,0.34 -0.185,0.457l-0.001 0c-0.084,0.087 -0.192,0.149 -0.313,0.176l0 0.065c0,0.307 -0.113,0.647 -0.322,0.977 -0.185,0.293 -0.449,0.579 -0.778,0.827zm-0.272 0.019l0 -0.087c0,-0.043 0.019,-0.085 0.056,-0.111 0.326,-0.235 0.585,-0.511 0.764,-0.794 0.181,-0.285 0.279,-0.575 0.279,-0.831l0 -0.186c0,-0.076 0.061,-0.137 0.136,-0.137 0.1,0 0.19,-0.041 0.256,-0.108 0.066,-0.068 0.107,-0.162 0.107,-0.267 0,-0.104 -0.041,-0.198 -0.107,-0.266 -0.066,-0.067 -0.156,-0.108 -0.256,-0.108 -0.075,0 -0.136,-0.061 -0.136,-0.137l0 -0.195c-0.049,-0.041 -0.096,-0.077 -0.142,-0.112 -0.271,-0.206 -0.515,-0.392 -0.686,-1.246 -0.75,0.682 -1.684,0.926 -2.463,1.13 -0.32,0.084 -0.614,0.16 -0.849,0.257l0 0.166c0,0.076 -0.061,0.137 -0.136,0.137 -0.1,0 -0.19,0.041 -0.256,0.108 -0.066,0.068 -0.107,0.162 -0.107,0.266 0,0.105 0.041,0.199 0.107,0.266 0.065,0.068 0.156,0.109 0.256,0.109 0.075,0 0.136,0.061 0.136,0.137l0 0.186c0,0.251 0.095,0.536 0.27,0.817 0.174,0.279 0.425,0.552 0.742,0.786 0.022,0.016 0.039,0.038 0.048,0.066 0.143,0.425 0.163,0.778 0.091,1.073 -0.075,0.302 -0.246,0.539 -0.48,0.726 -0.057,0.045 -0.141,0.037 -0.188,-0.019 -0.435,-0.516 -0.881,-1.178 -1.197,-1.97 -0.252,-0.628 -0.422,-1.34 -0.44,-2.127l0 -0.002c-0.002,-0.076 -0.001,-0.152 0.002,-0.228 0.034,-0.856 0.367,-1.774 0.912,-2.483 0.552,-0.716 1.323,-1.222 2.226,-1.243 0.053,-0.001 0.105,0 0.158,0.002 1.019,0.041 1.944,0.438 2.596,1.204 0.585,0.688 0.949,1.67 0.959,2.954 0.006,0.721 -0.118,1.426 -0.322,2.091 -0.243,0.788 -0.598,1.521 -0.981,2.16 -0.099,0.185 -0.216,0.355 -0.334,0.525 -0.219,0.319 -0.439,0.638 -0.514,1.035l-0.001 0.008c-0.032,0.183 -0.018,0.361 0.062,0.536 0.082,0.181 0.237,0.364 0.482,0.549 0.037,0.026 0.059,0.071 0.056,0.119 -0.005,0.075 -0.07,0.132 -0.145,0.127 -0.229,-0.015 -0.606,-0.062 -0.964,-0.226 -0.369,-0.169 -0.714,-0.462 -0.858,-0.968 -0.026,-0.091 -0.045,-0.189 -0.056,-0.295 -0.011,-0.104 -0.015,-0.216 -0.009,-0.336 0.033,-0.745 0.251,-1.05 0.473,-1.359 0.154,-0.214 0.31,-0.431 0.392,-0.829l0 -0.002c0.02,-0.099 0.036,-0.212 0.047,-0.342 0.011,-0.133 0.016,-0.277 0.014,-0.436l0 -0.09z"/>
  </g>
 </g>
</svg>
