<?xml version="1.0" encoding="UTF-8"?>
<!DOCTYPE svg PUBLIC "-//W3C//DTD SVG 1.1//EN" "http://www.w3.org/Graphics/SVG/1.1/DTD/svg11.dtd">
<!-- Creator: CorelDRAW 2018 (64-Bit) -->
<svg xmlns="http://www.w3.org/2000/svg" xml:space="preserve" width="150px" height="72px" version="1.1" style="shape-rendering:geometricPrecision; text-rendering:geometricPrecision; image-rendering:optimizeQuality; fill-rule:evenodd; clip-rule:evenodd"
viewBox="0 0 40.954 19.658"
 xmlns:xlink="http://www.w3.org/1999/xlink">
 <defs>
  <style type="text/css">
   <![CDATA[
    .fil0 {fill:none}
    .fil5 {fill:#00F4FF}
    .fil1 {fill:#EAEDF2}
    .fil3 {fill:white}
    .fil4 {fill:gray;fill-rule:nonzero}
    .fil6 {fill:gray;fill-rule:nonzero}
    .fil2 {fill:#EAEDF2;fill-rule:nonzero}
   ]]>
  </style>
 </defs>
 <g id="Layer_x0020_1">
  <metadata id="CorelCorpID_0Corel-Layer"/>
  <g id="_1698095383520">
   <rect class="fil0" width="40.954" height="19.658"/>
   <path class="fil1" d="M14.404 2.121c-3.6,0 -7.018,2.101 -7.018,8.012 0,5.91 4.985,8.681 12.605,8.341 7.62,-0.34 10.78,-3.579 10.78,-6.773 0,-3.195 -3.376,-3.27 -7.784,-4.91 -4.408,-1.64 -4.983,-4.67 -8.583,-4.67z"/>
   <path class="fil1" d="M37.698 4.316l0 0c0.15,0 0.273,0.122 0.273,0.273l0 0.738 0.738 0c0.15,0 0.273,0.123 0.273,0.273l0 0c0,0.15 -0.123,0.273 -0.273,0.273l-0.738 0 0 0.739c0,0.15 -0.123,0.273 -0.273,0.273l0 0c-0.151,0 -0.273,-0.123 -0.273,-0.273l0 -0.739 -0.739 0c-0.15,0 -0.273,-0.123 -0.273,-0.273l0 0c0,-0.15 0.123,-0.273 0.273,-0.273l0.739 0 0 -0.738c0,-0.151 0.122,-0.273 0.273,-0.273z"/>
   <path class="fil1" d="M3.262 15.317l0 0c0.15,0 0.273,0.123 0.273,0.273l0 0.739 0.739 0c0.15,0 0.273,0.122 0.273,0.272l0 0.001c0,0.15 -0.123,0.273 -0.273,0.273l-0.739 0 0 0.738c0,0.15 -0.123,0.273 -0.273,0.273l0 0c-0.15,0 -0.273,-0.123 -0.273,-0.273l0 -0.738 -0.738 0c-0.15,0 -0.273,-0.123 -0.273,-0.273l0 -0.001c0,-0.15 0.123,-0.272 0.273,-0.272l0.738 0 0 -0.739c0,-0.15 0.123,-0.273 0.273,-0.273z"/>
   <path class="fil1" d="M5.178 3.228c0.349,0 0.632,0.282 0.632,0.631 0,0.349 -0.283,0.631 -0.632,0.631 -0.349,0 -0.631,-0.282 -0.631,-0.631 0,-0.349 0.282,-0.631 0.631,-0.631z"/>
   <polygon class="fil1" points="33.844,14.992 35.129,16.907 36.413,14.992 "/>
   <path class="fil2" d="M27.524 1.156c0.373,0 0.711,0.151 0.956,0.396 0.245,0.244 0.396,0.582 0.396,0.955 0,0.374 -0.151,0.712 -0.396,0.956 -0.245,0.245 -0.583,0.396 -0.956,0.396 -0.373,0 -0.711,-0.151 -0.955,-0.396 -0.245,-0.244 -0.396,-0.582 -0.396,-0.956 0,-0.373 0.151,-0.711 0.396,-0.955 0.244,-0.245 0.582,-0.396 0.955,-0.396zm0.763 0.589c-0.195,-0.195 -0.465,-0.316 -0.763,-0.316 -0.298,0 -0.567,0.121 -0.762,0.316 -0.196,0.195 -0.316,0.464 -0.316,0.762 0,0.298 0.12,0.568 0.316,0.763 0.195,0.195 0.464,0.316 0.762,0.316 0.298,0 0.568,-0.121 0.763,-0.316 0.195,-0.195 0.316,-0.465 0.316,-0.763 0,-0.297 -0.121,-0.567 -0.316,-0.762z"/>
   <path class="fil3" d="M16.748 7.052l7.446 0c0.796,0 1.448,0.652 1.448,1.447l0 4.062c0,0.791 -0.644,1.44 -1.433,1.447 -0.005,0 -2.211,0 -2.216,0l0 2.116 -1.738 -2.116 -3.507 0c-0.795,0 -1.447,-0.651 -1.447,-1.447l0 -4.062c0,-0.796 0.651,-1.447 1.447,-1.447z"/>
   <path class="fil4" d="M16.748 6.916l7.446 0c0.436,0 0.831,0.178 1.118,0.465 0.288,0.287 0.466,0.683 0.466,1.118l0 4.062c0,0.432 -0.176,0.826 -0.46,1.113 -0.283,0.287 -0.676,0.466 -1.108,0.47l-2.081 0 0 1.98c0,0.075 -0.061,0.136 -0.136,0.136 -0.047,0 -0.088,-0.023 -0.113,-0.059l-1.689 -2.056 -3.443 0c-0.435,0 -0.831,-0.179 -1.118,-0.466l-0.008 -0.008c-0.282,-0.286 -0.458,-0.679 -0.458,-1.11l0 -4.062c0,-0.435 0.179,-0.831 0.466,-1.118 0.286,-0.287 0.682,-0.465 1.118,-0.465zm7.446 0.273l-7.446 0c-0.36,0 -0.688,0.147 -0.925,0.385 -0.238,0.237 -0.386,0.565 -0.386,0.925l0 4.062c0,0.357 0.145,0.682 0.379,0.919l0.007 0.006c0.237,0.238 0.565,0.386 0.925,0.386l3.507 0c0.039,0 0.078,0.017 0.105,0.05l1.496 1.821 0 -1.735c0.001,-0.075 0.062,-0.136 0.137,-0.136l2.215 0c0.357,-0.003 0.682,-0.152 0.917,-0.39 0.235,-0.237 0.38,-0.563 0.38,-0.921l0 -4.062c0,-0.36 -0.147,-0.688 -0.385,-0.925 -0.237,-0.238 -0.565,-0.385 -0.926,-0.385z"/>
   <path class="fil3" d="M20.178 3.838l-7.784 0c-0.851,0 -1.548,0.697 -1.548,1.549l0 4.346c0,0.851 0.697,1.548 1.548,1.548l0 1.982 1.692 -1.982 6.092 0c0.852,0 1.549,-0.697 1.549,-1.548l0 -4.346c0,-0.852 -0.697,-1.549 -1.549,-1.549z"/>
   <path class="fil4" d="M20.178 3.974l-7.784 0c-0.388,0 -0.741,0.159 -0.997,0.415l-0.007 0.007c-0.252,0.255 -0.408,0.605 -0.408,0.991l0 4.345c0,0.389 0.159,0.742 0.415,0.998 0.256,0.256 0.609,0.415 0.997,0.415 0.076,0 0.137,0.061 0.137,0.136l0 1.612 1.452 -1.7c0.027,-0.032 0.065,-0.048 0.103,-0.048l6.092 0c0.389,0 0.742,-0.159 0.998,-0.415 0.256,-0.256 0.415,-0.609 0.415,-0.998l0 -4.345c0,-0.389 -0.159,-0.742 -0.415,-0.998l-0.007 -0.007c-0.255,-0.252 -0.605,-0.408 -0.991,-0.408zm-7.784 -0.273l7.784 0c0.459,0 0.878,0.187 1.183,0.488l0.008 0.007c0.305,0.306 0.495,0.727 0.495,1.191l0 4.345c0,0.464 -0.19,0.886 -0.495,1.191 -0.306,0.305 -0.728,0.495 -1.191,0.495l-6.029 0 -1.644 1.926c-0.025,0.033 -0.065,0.055 -0.111,0.055 -0.075,0 -0.136,-0.061 -0.136,-0.136l0 -1.851c-0.409,-0.033 -0.779,-0.214 -1.054,-0.489 -0.305,-0.305 -0.495,-0.727 -0.495,-1.191l0 -4.345c0,-0.46 0.187,-0.878 0.488,-1.183l0.007 -0.008c0.305,-0.305 0.727,-0.495 1.19,-0.495z"/>
   <path class="fil5" d="M25.519 11.577c1.216,0 2.202,0.986 2.202,2.202 0,1.216 -0.986,2.202 -2.202,2.202 -1.216,0 -2.202,-0.986 -2.202,-2.202 0,-1.216 0.986,-2.202 2.202,-2.202z"/>
   <path class="fil6" d="M25.519 11.44c0.646,0 1.231,0.262 1.654,0.685 0.423,0.423 0.685,1.008 0.685,1.654 0,0.645 -0.262,1.23 -0.685,1.653 -0.423,0.423 -1.008,0.685 -1.654,0.685 -0.645,0 -1.23,-0.262 -1.653,-0.685 -0.423,-0.423 -0.685,-1.008 -0.685,-1.653 0,-0.646 0.262,-1.231 0.685,-1.654 0.423,-0.423 1.008,-0.685 1.653,-0.685zm1.461 0.878c-0.374,-0.373 -0.89,-0.605 -1.461,-0.605 -0.57,0 -1.087,0.232 -1.46,0.605 -0.374,0.374 -0.605,0.89 -0.605,1.461 0,0.57 0.231,1.086 0.605,1.46 0.373,0.374 0.89,0.605 1.46,0.605 0.571,0 1.087,-0.231 1.461,-0.605 0.373,-0.374 0.605,-0.89 0.605,-1.46 0,-0.571 -0.232,-1.087 -0.605,-1.461z"/>
   <path class="fil6" d="M24.381 13.856c-0.054,-0.053 -0.054,-0.14 0,-0.193 0.053,-0.053 0.139,-0.053 0.193,0l0.801 0.801 1.258 -1.258c0.053,-0.054 0.14,-0.054 0.193,0 0.053,0.053 0.053,0.139 0,0.193l-1.355 1.354c-0.053,0.054 -0.14,0.054 -0.193,0l-0.897 -0.897z"/>
   <path class="fil5" d="M13.278 6.809c0.415,0 0.751,0.336 0.751,0.751 0,0.414 -0.336,0.75 -0.751,0.75 -0.414,0 -0.75,-0.336 -0.75,-0.75 0,-0.415 0.336,-0.751 0.75,-0.751z"/>
   <path class="fil6" d="M13.278 6.672c0.245,0 0.467,0.1 0.627,0.26 0.161,0.161 0.261,0.383 0.261,0.628 0,0.244 -0.1,0.466 -0.26,0.627l-0.008 0.007c-0.16,0.156 -0.379,0.253 -0.62,0.253 -0.244,0 -0.466,-0.1 -0.627,-0.26 -0.161,-0.161 -0.26,-0.383 -0.26,-0.627 0,-0.245 0.099,-0.467 0.26,-0.627 0.161,-0.161 0.383,-0.261 0.627,-0.261zm0.435 0.453c-0.111,-0.111 -0.265,-0.18 -0.435,-0.18 -0.169,0 -0.323,0.069 -0.434,0.18 -0.111,0.111 -0.18,0.265 -0.18,0.435 0,0.169 0.069,0.323 0.18,0.434 0.111,0.111 0.265,0.18 0.434,0.18 0.167,0 0.318,-0.066 0.429,-0.174l0.006 -0.006c0.111,-0.111 0.18,-0.265 0.18,-0.434 0,-0.17 -0.069,-0.324 -0.18,-0.435z"/>
   <path class="fil5" d="M16.286 6.809c0.415,0 0.751,0.336 0.751,0.751 0,0.414 -0.336,0.75 -0.751,0.75 -0.414,0 -0.75,-0.336 -0.75,-0.75 0,-0.415 0.336,-0.751 0.75,-0.751z"/>
   <path class="fil6" d="M16.286 6.672c0.245,0 0.467,0.1 0.627,0.26 0.161,0.161 0.261,0.383 0.261,0.628 0,0.244 -0.1,0.466 -0.26,0.627l-0.008 0.007c-0.16,0.156 -0.379,0.253 -0.62,0.253 -0.244,0 -0.466,-0.1 -0.626,-0.26 -0.161,-0.161 -0.261,-0.383 -0.261,-0.627 0,-0.245 0.1,-0.467 0.26,-0.628l0.008 -0.007c0.16,-0.156 0.379,-0.253 0.619,-0.253zm0.435 0.453c-0.111,-0.111 -0.265,-0.18 -0.435,-0.18 -0.166,0 -0.317,0.066 -0.428,0.174l-0.006 0.006c-0.111,0.111 -0.18,0.265 -0.18,0.435 0,0.169 0.069,0.323 0.18,0.434 0.111,0.111 0.265,0.18 0.434,0.18 0.167,0 0.318,-0.066 0.429,-0.174l0.006 -0.006c0.111,-0.111 0.18,-0.265 0.18,-0.434 0,-0.17 -0.069,-0.324 -0.18,-0.435z"/>
   <path class="fil5" d="M19.294 6.809c0.415,0 0.751,0.336 0.751,0.751 0,0.414 -0.336,0.75 -0.751,0.75 -0.414,0 -0.75,-0.336 -0.75,-0.75 0,-0.415 0.336,-0.751 0.75,-0.751z"/>
   <path class="fil6" d="M19.294 6.672c0.245,0 0.467,0.1 0.627,0.26 0.161,0.161 0.261,0.383 0.261,0.628 0,0.244 -0.1,0.466 -0.26,0.627l-0.008 0.007c-0.16,0.156 -0.379,0.253 -0.62,0.253 -0.244,0 -0.466,-0.1 -0.626,-0.26 -0.161,-0.161 -0.261,-0.383 -0.261,-0.627 0,-0.245 0.1,-0.467 0.26,-0.628l0.008 -0.007c0.16,-0.156 0.379,-0.253 0.619,-0.253zm0.435 0.453c-0.111,-0.111 -0.265,-0.18 -0.435,-0.18 -0.166,0 -0.317,0.066 -0.428,0.174l-0.006 0.006c-0.111,0.111 -0.18,0.265 -0.18,0.435 0,0.169 0.069,0.323 0.18,0.434 0.111,0.111 0.265,0.18 0.434,0.18 0.167,0 0.318,-0.066 0.429,-0.174l0.006 -0.006c0.111,-0.111 0.18,-0.265 0.18,-0.434 0,-0.17 -0.069,-0.324 -0.18,-0.435z"/>
  </g>
 </g>
</svg>
