<?xml version="1.0" encoding="UTF-8"?>
<!DOCTYPE svg PUBLIC "-//W3C//DTD SVG 1.1//EN" "http://www.w3.org/Graphics/SVG/1.1/DTD/svg11.dtd">
<!-- Creator: CorelDRAW 2018 (64-Bit) -->
<svg xmlns="http://www.w3.org/2000/svg" xml:space="preserve" width="150px" height="72px" version="1.1" style="shape-rendering:geometricPrecision; text-rendering:geometricPrecision; image-rendering:optimizeQuality; fill-rule:evenodd; clip-rule:evenodd"
viewBox="0 0 40.957 19.659"
 xmlns:xlink="http://www.w3.org/1999/xlink">
 <defs>
  <style type="text/css">
   <![CDATA[
    .fil0 {fill:none}
    .fil5 {fill:#00F4FF}
    .fil1 {fill:#EAEDF2}
    .fil3 {fill:white}
    .fil4 {fill:gray;fill-rule:nonzero}
    .fil2 {fill:#EAEDF2;fill-rule:nonzero}
   ]]>
  </style>
 </defs>
 <g id="Layer_x0020_1">
  <metadata id="CorelCorpID_0Corel-Layer"/>
  <g id="_2492941158976">
   <rect class="fil0" width="40.957" height="19.659"/>
   <path class="fil1" d="M30.599 3.307l0 0c0.106,-0.106 0.28,-0.106 0.386,0l0.522 0.523 0.523 -0.523c0.106,-0.106 0.28,-0.106 0.386,0l0 0c0.106,0.107 0.106,0.28 0,0.386l-0.523 0.523 0.523 0.522c0.106,0.106 0.106,0.28 0,0.386l0 0c-0.106,0.106 -0.28,0.106 -0.386,0l-0.523 -0.522 -0.522 0.522c-0.106,0.106 -0.28,0.106 -0.386,0l0 0c-0.106,-0.106 -0.106,-0.28 0,-0.386l0.522 -0.522 -0.522 -0.523c-0.106,-0.106 -0.106,-0.279 0,-0.386z"/>
   <path class="fil1" d="M23.564 1.03c0.349,0 0.631,0.283 0.631,0.631 0,0.349 -0.282,0.632 -0.631,0.632 -0.349,0 -0.632,-0.283 -0.632,-0.632 0,-0.348 0.283,-0.631 0.632,-0.631z"/>
   <path class="fil2" d="M6.036 3.371c0.3,0 0.573,0.122 0.77,0.319 0.197,0.197 0.319,0.469 0.319,0.769 0,0.301 -0.122,0.573 -0.319,0.77 -0.197,0.197 -0.47,0.319 -0.77,0.319 -0.301,0 -0.573,-0.122 -0.77,-0.319 -0.197,-0.197 -0.319,-0.469 -0.319,-0.77 0,-0.3 0.122,-0.572 0.319,-0.769 0.197,-0.197 0.469,-0.319 0.77,-0.319zm0.577 0.512c-0.148,-0.148 -0.352,-0.239 -0.577,-0.239 -0.225,0 -0.429,0.091 -0.577,0.239 -0.147,0.147 -0.239,0.351 -0.239,0.576 0,0.226 0.092,0.43 0.239,0.577 0.148,0.148 0.352,0.239 0.577,0.239 0.225,0 0.429,-0.091 0.577,-0.239 0.147,-0.147 0.239,-0.351 0.239,-0.577 0,-0.225 -0.092,-0.429 -0.239,-0.576z"/>
   <polygon class="fil1" points="1.494,14.703 2.778,12.788 4.063,14.703 "/>
   <path class="fil2" d="M34.789 12.519c0.373,0 0.711,0.151 0.956,0.396 0.245,0.244 0.396,0.582 0.396,0.956 0,0.373 -0.151,0.711 -0.396,0.955 -0.245,0.245 -0.583,0.396 -0.956,0.396 -0.373,0 -0.711,-0.151 -0.956,-0.396 -0.244,-0.244 -0.396,-0.582 -0.396,-0.955 0,-0.374 0.152,-0.712 0.396,-0.956 0.245,-0.245 0.583,-0.396 0.956,-0.396zm0.763 0.589c-0.195,-0.195 -0.465,-0.316 -0.763,-0.316 -0.298,0 -0.568,0.121 -0.763,0.316 -0.195,0.195 -0.316,0.465 -0.316,0.763 0,0.297 0.121,0.567 0.316,0.762 0.195,0.195 0.465,0.316 0.763,0.316 0.298,0 0.568,-0.121 0.763,-0.316 0.195,-0.195 0.316,-0.465 0.316,-0.762 0,-0.298 -0.121,-0.568 -0.316,-0.763z"/>
   <path class="fil1" d="M15.803 3.039c-3.16,0 -6.383,2.269 -6.383,7.835 0,5.566 4.076,7.877 10.665,7.877 6.588,0 9.462,-3.371 9.462,-6.379 0,-3.009 -2.964,-3.079 -6.832,-4.624 -3.869,-1.545 -3.751,-4.709 -6.912,-4.709z"/>
   <path class="fil3" d="M20.832 12.592c2.276,0.156 3.991,0.846 3.991,1.674 0,0.943 -2.223,1.707 -4.965,1.707 -2.743,0 -4.966,-0.764 -4.966,-1.707 0,-0.817 1.673,-1.501 3.906,-1.668 0.351,0.523 0.698,1.076 1.015,1.668 0.318,-0.595 0.667,-1.15 1.019,-1.674z"/>
   <path class="fil4" d="M20.841 12.456c1.163,0.08 2.184,0.298 2.912,0.603 0.754,0.316 1.206,0.736 1.206,1.207 0,0.536 -0.591,1.008 -1.546,1.336 -0.912,0.314 -2.169,0.508 -3.555,0.508 -1.387,0 -2.644,-0.194 -3.556,-0.508 -0.955,-0.328 -1.546,-0.8 -1.546,-1.336 0,-0.465 0.441,-0.88 1.178,-1.194 0.712,-0.304 1.712,-0.524 2.854,-0.61 0.054,-0.004 0.103,0.024 0.128,0.068 0.175,0.262 0.349,0.53 0.518,0.805 0.129,0.21 0.255,0.425 0.379,0.647 0.124,-0.223 0.251,-0.44 0.38,-0.65 0.172,-0.279 0.348,-0.551 0.526,-0.816 0.028,-0.041 0.075,-0.063 0.122,-0.06zm2.806 0.855c-0.685,-0.288 -1.646,-0.496 -2.746,-0.577 -0.16,0.239 -0.319,0.485 -0.475,0.74 -0.171,0.278 -0.336,0.563 -0.493,0.855 -0.012,0.024 -0.031,0.044 -0.056,0.057 -0.066,0.036 -0.149,0.011 -0.184,-0.056 -0.156,-0.291 -0.321,-0.576 -0.491,-0.853 -0.156,-0.253 -0.314,-0.498 -0.473,-0.736 -1.079,0.087 -2.019,0.296 -2.688,0.581 -0.633,0.27 -1.012,0.6 -1.012,0.944 0,0.407 0.52,0.789 1.362,1.078 0.885,0.304 2.111,0.493 3.467,0.493 1.356,0 2.581,-0.189 3.466,-0.493 0.842,-0.289 1.362,-0.671 1.362,-1.078 0,-0.349 -0.39,-0.683 -1.039,-0.955z"/>
   <path class="fil5" d="M19.813 14.266c-1.524,-2.848 -3.74,-4.775 -3.74,-6.84 0,-2.066 1.674,-3.74 3.74,-3.74 2.065,0 3.74,1.674 3.74,3.74 0,2.065 -2.216,3.992 -3.74,6.84z"/>
   <path class="fil4" d="M19.692 14.33c-0.555,-1.038 -1.206,-1.958 -1.807,-2.805 -1.051,-1.483 -1.949,-2.751 -1.949,-4.099 0,-1.07 0.434,-2.039 1.136,-2.741 0.701,-0.701 1.67,-1.135 2.741,-1.135 1.07,0 2.039,0.434 2.74,1.135 0.702,0.702 1.137,1.671 1.137,2.741 0,1.348 -0.899,2.616 -1.95,4.099 -0.6,0.848 -1.252,1.767 -1.807,2.805 -0.036,0.067 -0.118,0.092 -0.184,0.056 -0.025,-0.013 -0.044,-0.033 -0.057,-0.056zm-1.585 -2.963c0.562,0.794 1.169,1.65 1.706,2.615 0.536,-0.965 1.143,-1.821 1.706,-2.615 1.023,-1.444 1.897,-2.678 1.897,-3.941 0,-0.996 -0.403,-1.896 -1.055,-2.548 -0.652,-0.652 -1.553,-1.055 -2.548,-1.055 -0.995,0 -1.896,0.403 -2.548,1.055 -0.653,0.652 -1.056,1.552 -1.056,2.548 0,1.263 0.875,2.497 1.898,3.941z"/>
   <path class="fil3" d="M19.813 5.788c0.905,0 1.638,0.733 1.638,1.638 0,0.904 -0.733,1.638 -1.638,1.638 -0.905,0 -1.638,-0.734 -1.638,-1.638 0,-0.905 0.733,-1.638 1.638,-1.638z"/>
   <path class="fil4" d="M19.813 5.651c0.489,0 0.933,0.199 1.254,0.52 0.322,0.321 0.521,0.765 0.521,1.255 0,0.489 -0.199,0.933 -0.521,1.254 -0.321,0.321 -0.765,0.52 -1.254,0.52 -0.49,0 -0.933,-0.199 -1.255,-0.52 -0.321,-0.321 -0.52,-0.765 -0.52,-1.254 0,-0.49 0.199,-0.934 0.52,-1.255l0.008 -0.008c0.321,-0.316 0.761,-0.512 1.247,-0.512zm1.062 0.713c-0.271,-0.272 -0.647,-0.44 -1.062,-0.44 -0.412,0 -0.785,0.166 -1.056,0.433l-0.006 0.007c-0.272,0.272 -0.44,0.647 -0.44,1.062 0,0.415 0.168,0.79 0.439,1.061 0.272,0.272 0.648,0.44 1.063,0.44 0.415,0 0.791,-0.168 1.062,-0.44 0.272,-0.271 0.44,-0.646 0.44,-1.061 0,-0.415 -0.168,-0.791 -0.44,-1.062z"/>
  </g>
 </g>
</svg>
