<?xml version="1.0" encoding="UTF-8"?>
<!DOCTYPE svg PUBLIC "-//W3C//DTD SVG 1.1//EN" "http://www.w3.org/Graphics/SVG/1.1/DTD/svg11.dtd">
<!-- Creator: CorelDRAW 2018 (64-Bit) -->
<svg xmlns="http://www.w3.org/2000/svg" xml:space="preserve" width="150px" height="72px" version="1.1" style="shape-rendering:geometricPrecision; text-rendering:geometricPrecision; image-rendering:optimizeQuality; fill-rule:evenodd; clip-rule:evenodd"
viewBox="0 0 40.954 19.658"
 xmlns:xlink="http://www.w3.org/1999/xlink">
 <defs>
  <style type="text/css">
   <![CDATA[
    .fil0 {fill:none}
    .fil5 {fill:#00F4FF}
    .fil1 {fill:#EAEDF2}
    .fil6 {fill:white}
    .fil3 {fill:white}
    .fil4 {fill:gray;fill-rule:nonzero}
    .fil2 {fill:#EAEDF2;fill-rule:nonzero}
   ]]>
  </style>
 </defs>
 <g id="Layer_x0020_1">
  <metadata id="CorelCorpID_0Corel-Layer"/>
  <g id="_1699171399680">
   <rect class="fil0" width="40.954" height="19.658"/>
   <path class="fil1" d="M23.255 2.77c3.16,0 6.383,2.269 6.383,7.835 0,5.566 -4.076,7.876 -10.664,7.876 -6.588,0 -9.461,-3.371 -9.461,-6.379 0,-3.008 2.963,-3.078 6.831,-4.623 3.869,-1.544 3.751,-4.709 6.911,-4.709z"/>
   <path class="fil1" d="M30.69 3.16l0 0c0.106,-0.106 0.28,-0.106 0.386,0l0.522 0.522 0.522 -0.522c0.107,-0.106 0.28,-0.106 0.386,0l0 0c0.107,0.107 0.107,0.28 0,0.386l-0.522 0.523 0.522 0.522c0.107,0.106 0.107,0.28 0.001,0.386l-0.001 0c-0.106,0.106 -0.279,0.106 -0.386,0l-0.522 -0.522 -0.522 0.522c-0.106,0.106 -0.28,0.106 -0.386,0l0 0c-0.106,-0.106 -0.106,-0.28 0,-0.386l0.522 -0.522 -0.522 -0.523c-0.106,-0.106 -0.106,-0.279 0,-0.386z"/>
   <path class="fil1" d="M11.385 6.079c0.349,0 0.632,0.283 0.632,0.632 0,0.348 -0.283,0.631 -0.632,0.631 -0.348,0 -0.631,-0.283 -0.631,-0.631 0,-0.349 0.283,-0.632 0.631,-0.632z"/>
   <path class="fil2" d="M6.129 1.04c0.3,0 0.573,0.122 0.77,0.319 0.196,0.197 0.318,0.469 0.318,0.77 0,0.3 -0.122,0.572 -0.318,0.769 -0.197,0.197 -0.47,0.319 -0.77,0.319 -0.301,0 -0.573,-0.122 -0.77,-0.319 -0.197,-0.197 -0.319,-0.469 -0.319,-0.769 0,-0.301 0.122,-0.573 0.319,-0.77 0.197,-0.197 0.469,-0.319 0.77,-0.319zm0.577 0.512c-0.148,-0.148 -0.352,-0.239 -0.577,-0.239 -0.225,0 -0.429,0.091 -0.577,0.239 -0.147,0.147 -0.239,0.351 -0.239,0.577 0,0.225 0.092,0.429 0.239,0.576 0.148,0.148 0.352,0.239 0.577,0.239 0.225,0 0.429,-0.091 0.577,-0.239 0.147,-0.147 0.238,-0.351 0.238,-0.576 0,-0.226 -0.091,-0.43 -0.238,-0.577z"/>
   <polygon class="fil1" points="1.587,12.371 2.872,10.456 4.156,12.371 "/>
   <path class="fil2" d="M34.88 12.371c0.373,0 0.711,0.151 0.955,0.396 0.245,0.244 0.396,0.582 0.396,0.956 0,0.373 -0.151,0.711 -0.396,0.955 -0.244,0.245 -0.582,0.396 -0.955,0.396 -0.374,0 -0.712,-0.151 -0.956,-0.396 -0.245,-0.244 -0.396,-0.582 -0.396,-0.955 0,-0.374 0.151,-0.712 0.396,-0.956 0.244,-0.245 0.582,-0.396 0.956,-0.396zm0.762 0.589c-0.195,-0.195 -0.465,-0.316 -0.762,-0.316 -0.298,0 -0.568,0.121 -0.763,0.316 -0.195,0.195 -0.316,0.465 -0.316,0.763 0,0.297 0.121,0.567 0.316,0.762 0.195,0.195 0.465,0.316 0.763,0.316 0.297,0 0.567,-0.121 0.762,-0.316 0.195,-0.195 0.316,-0.465 0.316,-0.762 0,-0.298 -0.121,-0.568 -0.316,-0.763z"/>
   <path class="fil3" d="M14.797 5.848l9.556 0c0.263,0 0.478,0.215 0.478,0.478l0 8.6c0,0.263 -0.215,0.478 -0.478,0.478l-9.556 0c-0.262,0 -0.477,-0.215 -0.477,-0.478l0 -8.6c0,-0.263 0.215,-0.478 0.477,-0.478z"/>
   <path class="fil4" d="M14.797 5.711l9.556 0c0.169,0 0.323,0.069 0.434,0.181 0.111,0.111 0.18,0.264 0.18,0.434l0 8.6c0,0.169 -0.069,0.323 -0.18,0.434 -0.111,0.111 -0.265,0.18 -0.434,0.18l-9.556 0c-0.169,0 -0.322,-0.069 -0.434,-0.18 -0.111,-0.111 -0.18,-0.265 -0.18,-0.434l0 -8.6c0,-0.17 0.069,-0.323 0.18,-0.434 0.112,-0.112 0.265,-0.181 0.434,-0.181zm9.556 0.273l-9.556 0c-0.093,0 -0.179,0.039 -0.241,0.101 -0.061,0.061 -0.1,0.147 -0.1,0.241l0 8.6c0,0.094 0.039,0.179 0.1,0.241 0.062,0.062 0.148,0.1 0.241,0.1l9.556 0c0.094,0 0.179,-0.038 0.241,-0.1 0.062,-0.062 0.1,-0.147 0.1,-0.241l0 -8.6c0,-0.094 -0.038,-0.18 -0.1,-0.241 -0.062,-0.062 -0.147,-0.101 -0.241,-0.101z"/>
   <path class="fil5" d="M24.831 14.938c-0.007,0.257 -0.219,0.466 -0.478,0.466l-9.556 0c-0.263,0 -0.477,-0.215 -0.477,-0.478l0 -3.19 2.864 -3.395 3.638 4.615 1.442 -1.486 2.567 2.421 0 1.047z"/>
   <path class="fil4" d="M24.966 14.955c-0.007,0.161 -0.077,0.305 -0.185,0.41 -0.111,0.108 -0.262,0.175 -0.428,0.175l-9.556 0c-0.169,0 -0.322,-0.069 -0.434,-0.18 -0.111,-0.111 -0.18,-0.265 -0.18,-0.434l0 -3.19c0,-0.037 0.015,-0.07 0.039,-0.095l2.858 -3.388c0.048,-0.057 0.134,-0.064 0.192,-0.016 0.007,0.006 0.013,0.013 0.019,0.02l3.541 4.493 1.335 -1.375c0.052,-0.053 0.137,-0.055 0.191,-0.004l2.566 2.421c0.029,0.027 0.043,0.063 0.043,0.099l0 1.047 -0.001 0.017zm-0.375 0.215c0.06,-0.058 0.099,-0.138 0.104,-0.225l-0.001 -0.995 -2.425 -2.289 -1.345 1.385c-0.005,0.006 -0.011,0.012 -0.018,0.017 -0.059,0.047 -0.145,0.036 -0.192,-0.023l-3.534 -4.483 -2.724 3.228 0 3.141c0,0.093 0.039,0.179 0.1,0.241 0.062,0.062 0.148,0.1 0.241,0.1l9.556 0c0.093,0 0.177,-0.037 0.238,-0.097z"/>
   <path class="fil6" d="M23.466 8.342c0,0 0,-0.001 0,-0.001 0.001,-0.543 -0.439,-0.982 -0.981,-0.982 -0.543,-0.001 -0.983,0.438 -0.983,0.981l0 0.001c-0.001,0.542 0.439,0.982 0.981,0.982 0.543,0.001 0.983,-0.438 0.983,-0.981z"/>
   <path class="fil4" d="M23.33 8.342l0 -0.003c0,-0.233 -0.095,-0.444 -0.247,-0.597 -0.153,-0.152 -0.364,-0.247 -0.597,-0.247l-0.003 0c-0.233,0 -0.444,0.095 -0.597,0.247 -0.153,0.152 -0.247,0.363 -0.248,0.596l0.001 0.004c0,0.233 0.094,0.445 0.247,0.597 0.152,0.153 0.363,0.248 0.596,0.248l0.003 0c0.233,0 0.444,-0.094 0.597,-0.247 0.153,-0.153 0.248,-0.364 0.248,-0.597l0 -0.001zm0.273 -0.001l0 0.002c-0.001,0.309 -0.127,0.588 -0.329,0.79 -0.202,0.202 -0.481,0.327 -0.789,0.326l-0.003 0.001c-0.308,-0.001 -0.588,-0.126 -0.789,-0.329 -0.202,-0.202 -0.327,-0.481 -0.327,-0.789l0 -0.004c0.001,-0.308 0.126,-0.587 0.328,-0.789 0.202,-0.202 0.481,-0.327 0.789,-0.327l0.003 0c0.309,0.001 0.588,0.126 0.79,0.328 0.202,0.202 0.327,0.481 0.327,0.789l0 0.002z"/>
   <polygon class="fil6" points="20.284,12.274 17.184,8.341 14.329,11.725 15.316,11.28 15.76,12.387 17.009,11.023 18.154,12.187 18.648,11.398 "/>
   <path class="fil4" d="M19.773 11.846l-2.593 -3.289 -2.36 2.797 0.44 -0.198c0.068,-0.031 0.149,-0.001 0.18,0.068l0.365 0.911 1.104 -1.203c0.05,-0.056 0.136,-0.059 0.191,-0.009l1.03 1.046 0.403 -0.643c0.038,-0.061 0.117,-0.081 0.179,-0.048l1.061 0.568zm-2.482 -3.589l3.1 3.933c0.032,0.041 0.039,0.099 0.013,0.148 -0.035,0.067 -0.118,0.092 -0.184,0.056l-1.524 -0.816 -0.422 0.673c-0.006,0.012 -0.015,0.023 -0.025,0.033 -0.053,0.053 -0.14,0.052 -0.192,-0.002l-1.045 -1.061 -1.146 1.251c-0.015,0.018 -0.033,0.032 -0.056,0.041 -0.07,0.028 -0.149,-0.006 -0.177,-0.076l-0.391 -0.974 -0.857 0.387c-0.047,0.02 -0.103,0.014 -0.144,-0.021 -0.058,-0.048 -0.065,-0.134 -0.016,-0.192l2.85 -3.379c0.007,-0.009 0.015,-0.017 0.024,-0.024 0.06,-0.047 0.145,-0.036 0.192,0.023z"/>
   <polygon class="fil6" points="20.822,12.956 22.264,11.47 24.628,13.7 22.922,13.014 22.628,13.852 21.899,13.014 21.163,13.415 "/>
   <path class="fil4" d="M20.724 12.861l1.443 -1.485c0.052,-0.054 0.137,-0.056 0.191,-0.005l2.364 2.23c0.054,0.051 0.057,0.138 0.006,0.192 -0.041,0.043 -0.103,0.054 -0.154,0.032l-1.57 -0.631 -0.247 0.703c-0.025,0.071 -0.103,0.109 -0.174,0.084 -0.023,-0.008 -0.043,-0.022 -0.058,-0.039l-0.657 -0.756 -0.64 0.348c-0.061,0.033 -0.135,0.015 -0.175,-0.038l-0.341 -0.459c-0.04,-0.054 -0.034,-0.129 0.012,-0.176zm1.545 -1.2l-1.269 1.307 0.201 0.271 0.623 -0.339c0.056,-0.037 0.133,-0.027 0.178,0.025l0.575 0.661 0.219 -0.622c0.028,-0.07 0.107,-0.104 0.177,-0.076l1.039 0.417 -1.743 -1.644z"/>
  </g>
 </g>
</svg>
