<?xml version="1.0" encoding="UTF-8"?>
<!DOCTYPE svg PUBLIC "-//W3C//DTD SVG 1.1//EN" "http://www.w3.org/Graphics/SVG/1.1/DTD/svg11.dtd">
<!-- Creator: CorelDRAW 2018 (64-Bit) -->
<svg xmlns="http://www.w3.org/2000/svg" xml:space="preserve" width="150px" height="72px" version="1.1" style="shape-rendering:geometricPrecision; text-rendering:geometricPrecision; image-rendering:optimizeQuality; fill-rule:evenodd; clip-rule:evenodd"
viewBox="0 0 40.954 19.658"
 xmlns:xlink="http://www.w3.org/1999/xlink">
 <defs>
  <style type="text/css">
   <![CDATA[
    .fil0 {fill:none}
    .fil1 {fill:#EAEDF2}
    .fil3 {fill:white}
    .fil5 {fill:#00F4FF;fill-rule:nonzero}
    .fil4 {fill:gray;fill-rule:nonzero}
    .fil2 {fill:#EAEDF2;fill-rule:nonzero}
    .fil6 {fill:white;fill-rule:nonzero}
   ]]>
  </style>
 </defs>
 <g id="Layer_x0020_1">
  <metadata id="CorelCorpID_0Corel-Layer"/>
  <g id="_2493386280752">
   <rect class="fil0" width="40.954" height="19.658"/>
   <g>
    <path class="fil1" d="M23.162 2.77c3.159,0 6.382,2.269 6.382,7.835 0,5.566 -4.076,7.876 -10.664,7.876 -6.588,0 -9.46,-3.371 -9.46,-6.379 -0.001,-3.008 2.963,-3.078 6.831,-4.623 3.868,-1.544 3.751,-4.709 6.911,-4.709z"/>
    <path class="fil1" d="M30.596 3.16l0.001 0c0.106,-0.106 0.279,-0.106 0.386,0l0.522 0.522 0.522 -0.522c0.106,-0.106 0.28,-0.106 0.386,0l0 0c0.106,0.107 0.106,0.28 0,0.386l-0.522 0.523 0.522 0.522c0.106,0.106 0.106,0.28 0,0.386l0 0c-0.106,0.106 -0.28,0.106 -0.386,0l-0.522 -0.522 -0.522 0.522c-0.107,0.106 -0.28,0.106 -0.387,0l0 0c-0.106,-0.106 -0.106,-0.28 0,-0.386l0.523 -0.522 -0.523 -0.523c-0.106,-0.106 -0.106,-0.279 0,-0.386z"/>
    <path class="fil1" d="M11.292 6.079c0.349,0 0.631,0.283 0.631,0.632 0,0.348 -0.282,0.631 -0.631,0.631 -0.349,0 -0.631,-0.283 -0.631,-0.631 0,-0.349 0.282,-0.632 0.631,-0.632z"/>
    <path class="fil2" d="M6.035 1.04c0.301,0 0.573,0.122 0.77,0.319 0.197,0.197 0.319,0.469 0.319,0.77 0,0.3 -0.122,0.572 -0.319,0.769 -0.197,0.197 -0.469,0.319 -0.77,0.319 -0.3,0 -0.572,-0.122 -0.769,-0.319 -0.197,-0.197 -0.319,-0.469 -0.319,-0.769 0,-0.301 0.122,-0.573 0.319,-0.77 0.197,-0.197 0.469,-0.319 0.769,-0.319zm0.577 0.512c-0.147,-0.148 -0.351,-0.239 -0.577,-0.239 -0.225,0 -0.429,0.091 -0.576,0.239 -0.148,0.147 -0.239,0.351 -0.239,0.577 0,0.225 0.091,0.429 0.239,0.576 0.147,0.148 0.351,0.239 0.576,0.239 0.226,0 0.43,-0.091 0.577,-0.239 0.148,-0.147 0.239,-0.351 0.239,-0.576 0,-0.226 -0.091,-0.43 -0.239,-0.577z"/>
    <polygon class="fil1" points="1.494,12.371 2.778,10.456 4.063,12.371 "/>
    <path class="fil2" d="M34.786 12.371c0.373,0 0.711,0.151 0.956,0.396 0.245,0.244 0.396,0.582 0.396,0.956 0,0.373 -0.151,0.711 -0.396,0.955 -0.245,0.245 -0.583,0.396 -0.956,0.396 -0.373,0 -0.711,-0.151 -0.956,-0.396 -0.244,-0.244 -0.395,-0.582 -0.395,-0.955 0,-0.374 0.151,-0.712 0.395,-0.956 0.245,-0.245 0.583,-0.396 0.956,-0.396zm0.763 0.589c-0.195,-0.195 -0.465,-0.316 -0.763,-0.316 -0.298,0 -0.567,0.121 -0.763,0.316 -0.195,0.195 -0.315,0.465 -0.315,0.763 0,0.297 0.12,0.567 0.315,0.762 0.196,0.195 0.465,0.316 0.763,0.316 0.298,0 0.568,-0.121 0.763,-0.316 0.195,-0.195 0.316,-0.465 0.316,-0.762 0,-0.298 -0.121,-0.568 -0.316,-0.763z"/>
    <path class="fil3" d="M24.693 9.35l0 5.694c0,0.197 -0.163,0.36 -0.36,0.36l-9.702 0c-0.198,0 -0.36,-0.162 -0.36,-0.36l0 -5.694 10.422 0z"/>
    <path class="fil4" d="M24.829 9.35l0 5.694c0,0.136 -0.056,0.26 -0.146,0.35 -0.089,0.09 -0.214,0.146 -0.35,0.146l-9.702 0c-0.137,0 -0.261,-0.056 -0.351,-0.146l-0.008 -0.008c-0.085,-0.09 -0.138,-0.21 -0.138,-0.342l0 -5.694c0,-0.076 0.061,-0.137 0.137,-0.137l10.422 0c0.075,0 0.136,0.061 0.136,0.137zm-0.273 5.694l0 -5.558 -10.149 0 0 5.558c0,0.058 0.023,0.112 0.06,0.152l0.006 0.005c0.04,0.041 0.096,0.066 0.158,0.066l9.702 0c0.061,0 0.117,-0.025 0.157,-0.066 0.041,-0.04 0.066,-0.096 0.066,-0.157z"/>
    <path class="fil4" d="M17.471 11.039c0,-0.075 0.061,-0.136 0.137,-0.136 0.075,0 0.136,0.061 0.136,0.136l0 4.327c0,0.075 -0.061,0.136 -0.136,0.136 -0.076,0 -0.137,-0.061 -0.137,-0.136l0 -4.327z"/>
    <path class="fil4" d="M16.636 12.958c-0.075,0 -0.136,-0.061 -0.136,-0.137 0,-0.075 0.061,-0.136 0.136,-0.136l0.324 0c0.076,0 0.137,0.061 0.137,0.136 0,0.076 -0.061,0.137 -0.137,0.137l-0.324 0z"/>
    <path class="fil4" d="M21.914 14.491c-0.054,0.053 -0.14,0.053 -0.193,0 -0.054,-0.053 -0.054,-0.14 0,-0.193l1.942 -1.943c0.054,-0.053 0.14,-0.053 0.193,0 0.054,0.053 0.054,0.14 0,0.193l-1.942 1.943z"/>
    <path class="fil4" d="M22.885 14.489c-0.053,0.053 -0.14,0.053 -0.193,0 -0.053,-0.053 -0.053,-0.14 0,-0.193l0.971 -0.971c0.054,-0.053 0.14,-0.053 0.193,0 0.054,0.053 0.054,0.14 0,0.193l-0.971 0.971z"/>
    <path class="fil5" d="M25.713 9.208c0,0.574 -0.465,1.039 -1.038,1.039 -0.574,0 -0.926,-0.393 -1.05,-1.007 0,0.574 -0.454,1.007 -1.027,1.007 -0.574,0 -1.04,-0.465 -1.04,-1.039 0.001,0.574 -0.464,1.039 -1.037,1.039 -0.574,0 -1.04,-0.465 -1.039,-1.039 0,0.574 -0.465,1.039 -1.038,1.039 -0.574,0 -1.04,-0.465 -1.04,-1.039 0.001,0.574 -0.464,1.039 -1.037,1.039 -0.574,0 -1.025,-0.425 -1.024,-0.999 -0.109,0.567 -0.48,0.999 -1.053,0.999 -0.574,0 -1.04,-0.465 -1.04,-1.039l1.102 -3.013c0.09,-0.247 0.215,-0.347 0.479,-0.347l9.301 0c0.264,0 0.39,0.1 0.48,0.347l1.101 3.013z"/>
    <path class="fil4" d="M25.85 9.208c0,0.325 -0.132,0.619 -0.344,0.831l-0.008 0.007c-0.212,0.209 -0.503,0.337 -0.823,0.337 -0.316,0 -0.575,-0.107 -0.774,-0.298 -0.1,-0.095 -0.184,-0.212 -0.251,-0.346 -0.057,0.117 -0.133,0.223 -0.225,0.314 -0.211,0.206 -0.503,0.33 -0.827,0.33l-0.001 0c-0.324,0 -0.618,-0.132 -0.83,-0.344 -0.083,-0.082 -0.153,-0.177 -0.208,-0.281 -0.055,0.104 -0.126,0.198 -0.208,0.281 -0.212,0.212 -0.506,0.344 -0.83,0.344l-0.001 0c-0.324,0 -0.618,-0.132 -0.83,-0.344 -0.083,-0.082 -0.153,-0.177 -0.208,-0.281 -0.055,0.104 -0.125,0.199 -0.208,0.281l-0.008 0.008c-0.212,0.207 -0.502,0.335 -0.821,0.336l-0.002 0c-0.324,-0.001 -0.618,-0.132 -0.83,-0.344 -0.083,-0.082 -0.153,-0.177 -0.208,-0.281 -0.055,0.104 -0.125,0.198 -0.208,0.281 -0.212,0.212 -0.505,0.343 -0.829,0.344l-0.003 0c-0.322,-0.001 -0.612,-0.121 -0.82,-0.322 -0.094,-0.092 -0.172,-0.199 -0.229,-0.319 -0.068,0.128 -0.153,0.242 -0.253,0.337 -0.2,0.19 -0.461,0.304 -0.773,0.304 -0.324,0 -0.618,-0.131 -0.831,-0.344 -0.213,-0.213 -0.345,-0.507 -0.345,-0.831 0,-0.02 0.004,-0.04 0.012,-0.057l1.098 -3.002c0.054,-0.149 0.122,-0.257 0.221,-0.33 0.101,-0.074 0.225,-0.108 0.386,-0.108l9.301 0c0.162,0 0.285,0.034 0.386,0.108 0.099,0.073 0.167,0.181 0.222,0.33l1.101 3.013c0.006,0.015 0.008,0.031 0.009,0.046zm-0.537 0.638c0.158,-0.158 0.258,-0.375 0.264,-0.616l-1.093 -2.988c-0.036,-0.099 -0.076,-0.166 -0.128,-0.204 -0.05,-0.037 -0.122,-0.054 -0.224,-0.054l-9.301 0c-0.102,0 -0.173,0.017 -0.224,0.054 -0.052,0.038 -0.092,0.105 -0.127,0.204l-1.093 2.988c0.006,0.241 0.106,0.458 0.264,0.616 0.163,0.163 0.389,0.264 0.639,0.264 0.238,0 0.435,-0.085 0.585,-0.228 0.167,-0.158 0.28,-0.388 0.332,-0.652 0.009,-0.067 0.066,-0.119 0.136,-0.119 0.075,0 0.136,0.061 0.136,0.137l0 0.001c0,0.247 0.096,0.463 0.255,0.615 0.159,0.154 0.382,0.246 0.631,0.247l0.003 -0.001c0.248,0.001 0.473,-0.101 0.636,-0.264 0.163,-0.162 0.264,-0.388 0.264,-0.637l0 -0.001 0.273 0 0 0.024c0.006,0.24 0.106,0.456 0.264,0.614 0.163,0.163 0.389,0.265 0.638,0.265l0.002 -0.001c0.245,0.001 0.467,-0.098 0.63,-0.257l0.006 -0.007c0.163,-0.163 0.264,-0.388 0.264,-0.637l0 -0.001 0.273 0 0 0.024c0.006,0.24 0.106,0.456 0.264,0.614 0.163,0.163 0.389,0.265 0.638,0.265l0.001 0c0.249,0 0.474,-0.101 0.637,-0.264 0.163,-0.163 0.264,-0.389 0.264,-0.638l0.273 -0.001 0 0.024c0.006,0.24 0.106,0.456 0.264,0.614 0.163,0.163 0.389,0.265 0.638,0.265l0.001 -0.001c0.251,0 0.476,-0.094 0.636,-0.251 0.158,-0.155 0.254,-0.372 0.254,-0.619 0.001,-0.064 0.046,-0.12 0.11,-0.133 0.074,-0.015 0.146,0.033 0.16,0.106 0.058,0.288 0.169,0.52 0.332,0.676 0.148,0.142 0.343,0.221 0.585,0.221 0.246,0 0.469,-0.098 0.631,-0.257l0.007 -0.007z"/>
    <path class="fil6" d="M22.92 5.848l0.705 3.392c0.124,0.614 0.476,1.007 1.05,1.007 0.573,0 1.038,-0.465 1.038,-1.039l-1.101 -3.013c-0.09,-0.247 -0.216,-0.347 -0.48,-0.347l-1.212 0z"/>
    <path class="fil4" d="M23.087 5.984l0.673 3.236c0.058,0.284 0.169,0.514 0.33,0.669 0.148,0.142 0.343,0.221 0.585,0.221 0.249,0 0.475,-0.101 0.638,-0.264l0.007 -0.006c0.154,-0.158 0.251,-0.372 0.257,-0.61l-1.093 -2.988c-0.036,-0.099 -0.076,-0.166 -0.128,-0.204 -0.05,-0.037 -0.122,-0.054 -0.224,-0.054l-1.045 0zm0.405 3.284l-0.703 -3.382c-0.004,-0.012 -0.006,-0.025 -0.006,-0.038 0,-0.076 0.062,-0.137 0.137,-0.137l1.212 0c0.162,0 0.285,0.034 0.386,0.108 0.099,0.073 0.167,0.181 0.222,0.33l1.097 3.002c0.008,0.017 0.013,0.037 0.013,0.057 0,0.32 -0.129,0.611 -0.337,0.823l-0.007 0.008c-0.213,0.213 -0.507,0.344 -0.831,0.344 -0.316,0 -0.575,-0.107 -0.774,-0.298 -0.202,-0.193 -0.338,-0.472 -0.408,-0.81l-0.001 -0.007z"/>
    <path class="fil6" d="M19.482 5.848l0 3.36c0,0.001 0,0.001 0,0.002 0,0.573 0.465,1.037 1.039,1.037 0.572,0 1.037,-0.464 1.038,-1.037l-0.232 -3.362 -1.845 0z"/>
    <path class="fil4" d="M19.618 5.984l0 3.226c0,0.248 0.101,0.474 0.264,0.637 0.163,0.162 0.389,0.263 0.639,0.263 0.249,0 0.474,-0.101 0.637,-0.264 0.162,-0.161 0.262,-0.383 0.265,-0.628l-0.224 -3.234 -1.581 0zm-0.273 3.224l0 -3.36c0,-0.076 0.061,-0.137 0.137,-0.137l1.845 0c0.071,0.001 0.131,0.056 0.135,0.128l0.233 3.371c-0.001,0.324 -0.132,0.617 -0.345,0.83 -0.212,0.212 -0.506,0.343 -0.829,0.343 -0.324,0 -0.618,-0.131 -0.831,-0.343 -0.212,-0.213 -0.344,-0.506 -0.344,-0.83l-0.001 -0.002z"/>
    <path class="fil6" d="M17.636 5.848l-0.232 3.36c0,0.001 0,0.001 0,0.002 -0.001,0.573 -0.466,1.037 -1.04,1.037 -0.573,0 -1.027,-0.433 -1.027,-1.007l0.705 -3.392 1.594 0z"/>
    <path class="fil4" d="M17.771 5.866l-0.231 3.351c-0.003,0.322 -0.134,0.612 -0.345,0.823 -0.213,0.212 -0.506,0.343 -0.831,0.343 -0.324,0 -0.616,-0.124 -0.826,-0.33 -0.209,-0.205 -0.337,-0.49 -0.337,-0.813 0,-0.013 0.002,-0.026 0.005,-0.038l0.703 -3.382c0.013,-0.064 0.07,-0.108 0.133,-0.108l1.594 -0.001c0.075,0 0.136,0.061 0.136,0.137l-0.001 0.018zm-0.503 3.333l0.222 -3.215 -1.337 0 -0.679 3.268c0.003,0.242 0.099,0.454 0.254,0.607 0.161,0.157 0.385,0.251 0.636,0.251 0.25,0 0.476,-0.101 0.639,-0.263 0.162,-0.162 0.263,-0.385 0.265,-0.63l0 -0.018z"/>
   </g>
  </g>
 </g>
</svg>
