<?xml version="1.0" encoding="UTF-8"?>
<!DOCTYPE svg PUBLIC "-//W3C//DTD SVG 1.1//EN" "http://www.w3.org/Graphics/SVG/1.1/DTD/svg11.dtd">
<!-- Creator: CorelDRAW 2018 (64-Bit) -->
<svg xmlns="http://www.w3.org/2000/svg" xml:space="preserve" width="150px" height="72px" version="1.1" style="shape-rendering:geometricPrecision; text-rendering:geometricPrecision; image-rendering:optimizeQuality; fill-rule:evenodd; clip-rule:evenodd"
viewBox="0 0 40.954 19.658"
 xmlns:xlink="http://www.w3.org/1999/xlink">
 <defs>
  <style type="text/css">
   <![CDATA[
    .fil0 {fill:none}
    .fil6 {fill:#00F4FF}
    .fil1 {fill:#EAEDF2}
    .fil3 {fill:white}
    .fil4 {fill:gray;fill-rule:nonzero}
    .fil2 {fill:#EAEDF2;fill-rule:nonzero}
    .fil5 {fill:white;fill-rule:nonzero}
   ]]>
  </style>
 </defs>
 <g id="Layer_x0020_1">
  <metadata id="CorelCorpID_0Corel-Layer"/>
  <g id="_1698095383520">
   <rect class="fil0" width="40.954" height="19.658"/>
   <path class="fil1" d="M14.471 2.394c-3.6,0 -7.017,2.101 -7.017,8.011 0,5.911 4.984,8.682 12.604,8.342 7.62,-0.34 10.78,-3.579 10.78,-6.773 0,-3.195 -3.376,-3.27 -7.784,-4.91 -4.408,-1.64 -4.982,-4.67 -8.583,-4.67z"/>
   <path class="fil1" d="M37.765 4.589l0 0c0.15,0 0.273,0.122 0.273,0.273l0 0.738 0.738 0c0.151,0 0.273,0.123 0.273,0.273l0 0c0,0.15 -0.122,0.273 -0.273,0.273l-0.738 0 0 0.739c0,0.15 -0.123,0.273 -0.273,0.273l0 0c-0.15,0 -0.273,-0.123 -0.273,-0.273l0 -0.739 -0.739 0c-0.15,0 -0.273,-0.123 -0.273,-0.273l0 0c0,-0.15 0.123,-0.273 0.273,-0.273l0.739 0 0 -0.738c0,-0.151 0.123,-0.273 0.273,-0.273z"/>
   <path class="fil1" d="M3.329 15.59l0.001 0c0.15,0 0.273,0.123 0.273,0.273l0 0.739 0.738 0c0.15,0 0.273,0.122 0.273,0.272l0 0.001c0,0.15 -0.123,0.273 -0.273,0.273l-0.738 0 0 0.738c0,0.15 -0.123,0.273 -0.273,0.273l-0.001 0c-0.15,0 -0.272,-0.123 -0.272,-0.273l0 -0.738 -0.739 0c-0.15,0 -0.273,-0.123 -0.273,-0.273l0 -0.001c0,-0.15 0.123,-0.272 0.273,-0.272l0.739 0 0 -0.739c0,-0.15 0.122,-0.273 0.272,-0.273z"/>
   <path class="fil1" d="M5.403 2.955c0.349,0 0.632,0.282 0.632,0.631 0,0.349 -0.283,0.631 -0.632,0.631 -0.348,0 -0.631,-0.282 -0.631,-0.631 0,-0.349 0.283,-0.631 0.631,-0.631z"/>
   <polygon class="fil1" points="33.911,15.265 35.196,17.18 36.48,15.265 "/>
   <path class="fil2" d="M27.592 0.883c0.373,0 0.711,0.151 0.955,0.396 0.245,0.244 0.396,0.582 0.396,0.955 0,0.374 -0.151,0.712 -0.396,0.956 -0.244,0.245 -0.582,0.396 -0.955,0.396 -0.374,0 -0.712,-0.151 -0.956,-0.396 -0.245,-0.244 -0.396,-0.582 -0.396,-0.956 0,-0.373 0.151,-0.711 0.396,-0.955 0.244,-0.245 0.582,-0.396 0.956,-0.396zm0.762 0.589c-0.195,-0.195 -0.465,-0.316 -0.762,-0.316 -0.298,0 -0.568,0.121 -0.763,0.316 -0.195,0.195 -0.316,0.465 -0.316,0.762 0,0.298 0.121,0.568 0.316,0.763 0.195,0.195 0.465,0.316 0.763,0.316 0.297,0 0.567,-0.121 0.762,-0.316 0.195,-0.195 0.316,-0.465 0.316,-0.763 0,-0.297 -0.121,-0.567 -0.316,-0.762z"/>
   <path class="fil3" d="M18.167 9.911l-4.295 0c-0.21,0 -0.382,-0.172 -0.382,-0.382l0 -5.037c0,-0.209 0.172,-0.381 0.382,-0.381l10.957 0c0.21,0 0.382,0.172 0.382,0.381l0 5.037c0,0.21 -0.172,0.382 -0.382,0.382l-1.28 0 0 1.853 -2.01 -1.853 -3.372 0z"/>
   <path class="fil4" d="M18.167 10.047l-4.295 0c-0.143,0 -0.272,-0.058 -0.366,-0.152 -0.094,-0.094 -0.152,-0.223 -0.152,-0.366l0 -5.037c0,-0.142 0.058,-0.272 0.152,-0.366l0.008 -0.008c0.094,-0.089 0.22,-0.144 0.358,-0.144l10.957 0c0.143,0 0.273,0.059 0.366,0.152 0.094,0.094 0.153,0.224 0.153,0.366l0 5.037c0,0.142 -0.059,0.271 -0.153,0.365l-0.001 0.001c-0.094,0.094 -0.223,0.152 -0.365,0.152l-1.144 0 0 1.717c0,0.075 -0.061,0.136 -0.136,0.136 -0.039,0 -0.074,-0.016 -0.099,-0.042l-1.964 -1.811 -3.319 0zm-4.295 -0.273l7.667 0c0.033,0 0.066,0.012 0.092,0.036l1.781 1.643 0 -1.542c0,-0.076 0.061,-0.137 0.137,-0.137l1.28 0c0.068,0 0.129,-0.028 0.173,-0.072 0.045,-0.044 0.073,-0.106 0.073,-0.173l0 -5.037c0,-0.067 -0.028,-0.128 -0.073,-0.173 -0.044,-0.044 -0.105,-0.072 -0.173,-0.072l-10.957 0c-0.065,0 -0.124,0.026 -0.168,0.067l-0.005 0.005c-0.045,0.045 -0.072,0.106 -0.072,0.173l0 5.037c0,0.067 0.027,0.128 0.072,0.173 0.044,0.044 0.106,0.072 0.173,0.072z"/>
   <path class="fil4" d="M15.417 6.515c-0.076,0 -0.137,-0.061 -0.137,-0.136 0,-0.076 0.061,-0.137 0.137,-0.137l7.861 0c0.076,0 0.137,0.061 0.137,0.137 0,0.075 -0.061,0.136 -0.137,0.136l-7.861 0z"/>
   <path class="fil4" d="M19.633 8.083c-0.076,0 -0.137,-0.061 -0.137,-0.136 0,-0.076 0.061,-0.137 0.137,-0.137l1.767 0c0.075,0 0.136,0.061 0.136,0.137 0,0.075 -0.061,0.136 -0.136,0.136l-1.767 0z"/>
   <path class="fil4" d="M15.417 8.083c-0.076,0 -0.137,-0.061 -0.137,-0.136 0,-0.076 0.061,-0.137 0.137,-0.137l1.001 0c0.076,0 0.137,0.061 0.137,0.137 0,0.075 -0.061,0.136 -0.137,0.136l-1.001 0z"/>
   <path class="fil5" d="M15.001 12.566c1.649,-0.653 2.346,-1.894 2.427,-2.94 0.054,-0.693 -0.013,-1.274 0.547,-1.385 0.643,-0.127 0.866,0.725 0.878,1.166 0.005,0.177 0.125,1.627 0.161,2.067 0.006,0.064 0.059,0.113 0.123,0.113l1.687 -0.099c0.089,0 0.171,0.047 0.216,0.122 0.3,0.503 0.302,0.528 0.308,0.59 0.023,0.235 -0.034,0.447 -0.163,0.612 -0.031,0.039 -0.035,0.092 -0.011,0.136 0.035,0.062 0.061,0.119 0.075,0.166 0.084,0.285 -0.041,0.556 -0.381,0.827 -0.044,0.035 -0.058,0.095 -0.036,0.146 0.011,0.024 0.019,0.047 0.025,0.069 0.078,0.28 -0.039,0.596 -0.277,0.751 -0.048,0.031 -0.068,0.092 -0.048,0.145 0.013,0.036 0.022,0.07 0.026,0.105 0.013,0.1 0.003,0.448 -0.136,0.618 -0.211,0.259 -0.683,0.328 -0.903,0.329l-4.518 0 0 -3.538z"/>
   <path class="fil4" d="M14.962 12.435c0.726,-0.289 1.26,-0.695 1.632,-1.147 0.44,-0.533 0.656,-1.13 0.698,-1.672 0.009,-0.111 0.014,-0.208 0.019,-0.301 0.032,-0.613 0.058,-1.093 0.638,-1.208 0.044,-0.008 0.088,-0.013 0.132,-0.015 0.271,-0.007 0.471,0.131 0.614,0.332 0.131,0.185 0.212,0.423 0.255,0.641 0.024,0.12 0.036,0.238 0.039,0.338l0 0.001c0.002,0.061 0.02,0.308 0.044,0.616 0.038,0.483 0.092,1.143 0.116,1.43l1.675 -0.099c0.068,0 0.134,0.018 0.192,0.051 0.057,0.033 0.106,0.08 0.141,0.138l0.004 0.008c0.151,0.253 0.226,0.385 0.265,0.461 0.05,0.1 0.053,0.132 0.057,0.178 0.013,0.134 0.003,0.262 -0.028,0.38 -0.031,0.118 -0.084,0.226 -0.158,0.321 0.017,0.031 0.033,0.062 0.047,0.093 0.015,0.034 0.027,0.065 0.035,0.094 0.052,0.175 0.04,0.346 -0.038,0.514 -0.071,0.155 -0.198,0.305 -0.38,0.452l0.013 0.034 0.015 0.045c0.046,0.168 0.035,0.346 -0.024,0.505 -0.058,0.157 -0.162,0.296 -0.301,0.391 0.006,0.018 0.012,0.038 0.017,0.057 0.005,0.022 0.009,0.044 0.012,0.067 0.009,0.07 0.009,0.241 -0.028,0.407 -0.024,0.114 -0.067,0.228 -0.137,0.314l-0.008 0.008c-0.104,0.124 -0.252,0.209 -0.409,0.265 -0.216,0.079 -0.452,0.105 -0.592,0.106l-4.518 0c-0.075,0 -0.136,-0.061 -0.136,-0.136l0 -3.538c0,-0.062 0.041,-0.114 0.097,-0.131zm1.842 -0.974c-0.387,0.469 -0.932,0.89 -1.666,1.196l0 3.31 4.381 0c0.118,0.001 0.316,-0.022 0.5,-0.089 0.115,-0.042 0.223,-0.101 0.292,-0.183l0.005 -0.007c0.04,-0.048 0.066,-0.122 0.083,-0.2 0.029,-0.13 0.03,-0.262 0.024,-0.314 -0.001,-0.012 -0.004,-0.024 -0.007,-0.037l-0.012 -0.038c-0.02,-0.056 -0.02,-0.116 -0.002,-0.17 0.018,-0.055 0.054,-0.103 0.104,-0.136 0.094,-0.061 0.164,-0.155 0.203,-0.262 0.04,-0.108 0.048,-0.227 0.017,-0.338 -0.005,-0.017 -0.011,-0.035 -0.019,-0.051 -0.023,-0.053 -0.028,-0.112 -0.014,-0.167 0.013,-0.054 0.044,-0.104 0.09,-0.14 0.153,-0.123 0.257,-0.242 0.311,-0.36 0.049,-0.106 0.056,-0.213 0.024,-0.323 -0.005,-0.017 -0.013,-0.038 -0.023,-0.06 -0.01,-0.022 -0.023,-0.049 -0.04,-0.078 -0.025,-0.045 -0.036,-0.097 -0.032,-0.147 0.004,-0.049 0.022,-0.098 0.054,-0.139 0.054,-0.068 0.092,-0.145 0.115,-0.23 0.023,-0.088 0.03,-0.184 0.02,-0.286 -0.001,-0.015 -0.002,-0.026 -0.029,-0.08 -0.039,-0.076 -0.112,-0.204 -0.255,-0.445l-0.004 -0.007c-0.011,-0.017 -0.026,-0.031 -0.043,-0.041 -0.016,-0.009 -0.036,-0.015 -0.057,-0.015l-1.687 0.099c-0.068,0 -0.129,-0.026 -0.176,-0.068 -0.045,-0.042 -0.076,-0.1 -0.082,-0.165l-0.001 -0.005c-0.022,-0.268 -0.076,-0.925 -0.117,-1.445 -0.024,-0.303 -0.042,-0.551 -0.044,-0.628l0 -0.001c-0.002,-0.083 -0.013,-0.185 -0.035,-0.294 -0.036,-0.186 -0.103,-0.386 -0.209,-0.535 -0.094,-0.131 -0.22,-0.222 -0.385,-0.218 -0.026,0.001 -0.054,0.005 -0.087,0.011 -0.372,0.073 -0.392,0.46 -0.418,0.954 -0.006,0.103 -0.011,0.21 -0.019,0.307 -0.046,0.593 -0.281,1.245 -0.76,1.825z"/>
   <path class="fil6" d="M13.694 11.98l1.104 0c0.112,0 0.203,0.092 0.203,0.204l0 4.009c0,0.112 -0.091,0.204 -0.203,0.204l-1.104 0c-0.112,0 -0.204,-0.092 -0.204,-0.204l0 -4.009c0,-0.112 0.092,-0.204 0.204,-0.204z"/>
   <path class="fil4" d="M13.694 11.844l1.104 0c0.094,0 0.179,0.038 0.24,0.099l0.009 0.01c0.056,0.061 0.091,0.142 0.091,0.231l0 4.009c0,0.094 -0.038,0.178 -0.1,0.24 -0.061,0.062 -0.147,0.1 -0.24,0.1l-1.104 0c-0.094,0 -0.179,-0.038 -0.241,-0.099l-0.009 -0.01c-0.056,-0.061 -0.09,-0.142 -0.09,-0.231l0 -4.009c0,-0.094 0.038,-0.179 0.099,-0.241l0.01 -0.008c0.061,-0.057 0.142,-0.091 0.231,-0.091zm1.104 0.273l-1.104 0c-0.017,0 -0.032,0.006 -0.044,0.016l-0.004 0.003c-0.012,0.013 -0.019,0.029 -0.019,0.048l0 4.009c0,0.017 0.006,0.032 0.015,0.043l0.004 0.005c0.012,0.012 0.029,0.019 0.048,0.019l1.104 0c0.018,0 0.035,-0.007 0.047,-0.019 0.012,-0.012 0.02,-0.029 0.02,-0.048l0 -4.009c0,-0.017 -0.006,-0.032 -0.016,-0.043l-0.004 -0.005c-0.012,-0.012 -0.029,-0.019 -0.047,-0.019z"/>
  </g>
 </g>
</svg>
