<?xml version="1.0" encoding="UTF-8"?>
<!DOCTYPE svg PUBLIC "-//W3C//DTD SVG 1.1//EN" "http://www.w3.org/Graphics/SVG/1.1/DTD/svg11.dtd">
<!-- Creator: CorelDRAW 2018 (64-Bit) -->
<svg xmlns="http://www.w3.org/2000/svg" xml:space="preserve" width="150px" height="72px" version="1.1" style="shape-rendering:geometricPrecision; text-rendering:geometricPrecision; image-rendering:optimizeQuality; fill-rule:evenodd; clip-rule:evenodd"
viewBox="0 0 40.954 19.658"
 xmlns:xlink="http://www.w3.org/1999/xlink">
 <defs>
  <style type="text/css">
   <![CDATA[
    .fil0 {fill:none}
    .fil1 {fill:#EAEDF2}
    .fil3 {fill:white}
    .fil6 {fill:#00F4FF;fill-rule:nonzero}
    .fil5 {fill:gray;fill-rule:nonzero}
    .fil4 {fill:gray;fill-rule:nonzero}
    .fil2 {fill:#EAEDF2;fill-rule:nonzero}
   ]]>
  </style>
 </defs>
 <g id="Layer_x0020_1">
  <metadata id="CorelCorpID_0Corel-Layer"/>
  <g id="_2493398634368">
   <rect class="fil0" width="40.954" height="19.658"/>
   <path class="fil1" d="M15.55 2.917c-3.377,0 -7.307,2.603 -7.307,8.255 0,5.652 4.841,7.699 11.882,7.699 7.04,0 10.11,-3.423 10.11,-6.478 0,-3.054 -3.167,-3.126 -7.301,-4.694 -4.133,-1.569 -4.008,-4.782 -7.384,-4.782z"/>
   <path class="fil1" d="M30.596 3.307l0.001 0c0.106,-0.106 0.279,-0.106 0.386,0l0.522 0.522 0.522 -0.522c0.106,-0.106 0.28,-0.106 0.386,0l0 0c0.106,0.106 0.106,0.28 0,0.386l-0.522 0.522 0.522 0.523c0.106,0.106 0.106,0.28 0,0.386l0 0c-0.106,0.106 -0.28,0.106 -0.386,0l-0.522 -0.522 -0.522 0.522c-0.107,0.106 -0.28,0.106 -0.387,0l0 0c-0.106,-0.107 -0.106,-0.28 0,-0.386l0.523 -0.523 -0.523 -0.522c-0.106,-0.106 -0.106,-0.28 0,-0.386z"/>
   <path class="fil1" d="M23.562 1.03c0.349,0 0.631,0.282 0.631,0.631 0,0.349 -0.282,0.632 -0.631,0.632 -0.349,0 -0.632,-0.283 -0.632,-0.632 0,-0.349 0.283,-0.631 0.632,-0.631z"/>
   <path class="fil2" d="M6.035 3.371c0.301,0 0.573,0.121 0.77,0.318 0.197,0.197 0.319,0.47 0.319,0.77 0,0.301 -0.122,0.573 -0.319,0.77 -0.197,0.197 -0.469,0.319 -0.77,0.319 -0.3,0 -0.572,-0.122 -0.769,-0.319 -0.197,-0.197 -0.319,-0.469 -0.319,-0.77 0,-0.3 0.122,-0.573 0.319,-0.77 0.197,-0.197 0.469,-0.318 0.769,-0.318zm0.577 0.511c-0.147,-0.147 -0.351,-0.238 -0.577,-0.238 -0.225,0 -0.429,0.091 -0.576,0.238 -0.148,0.148 -0.239,0.352 -0.239,0.577 0,0.225 0.091,0.429 0.239,0.577 0.147,0.147 0.351,0.239 0.576,0.239 0.226,0 0.43,-0.092 0.577,-0.239 0.148,-0.148 0.239,-0.352 0.239,-0.577 0,-0.225 -0.091,-0.429 -0.239,-0.577z"/>
   <polygon class="fil1" points="1.494,14.701 2.778,12.787 4.063,14.701 "/>
   <path class="fil2" d="M34.786 12.518c0.373,0 0.711,0.151 0.956,0.396 0.245,0.244 0.396,0.582 0.396,0.955 0,0.374 -0.151,0.712 -0.396,0.956 -0.245,0.245 -0.583,0.396 -0.956,0.396 -0.373,0 -0.711,-0.151 -0.956,-0.396 -0.244,-0.244 -0.395,-0.582 -0.395,-0.956 0,-0.373 0.151,-0.711 0.395,-0.955 0.245,-0.245 0.583,-0.396 0.956,-0.396zm0.763 0.589c-0.195,-0.196 -0.465,-0.316 -0.763,-0.316 -0.298,0 -0.567,0.12 -0.763,0.316 -0.195,0.195 -0.315,0.464 -0.315,0.762 0,0.298 0.12,0.568 0.315,0.763 0.196,0.195 0.465,0.316 0.763,0.316 0.298,0 0.568,-0.121 0.763,-0.316 0.195,-0.195 0.316,-0.465 0.316,-0.763 0,-0.298 -0.121,-0.567 -0.316,-0.762z"/>
   <path class="fil3" d="M14.63 6.131l10.536 0c0.171,0 0.31,0.139 0.31,0.31l0 6.817c0,0.171 -0.139,0.31 -0.31,0.31l-10.536 0c-0.17,0 -0.309,-0.139 -0.309,-0.31l0 -6.817c0,-0.171 0.139,-0.31 0.309,-0.31z"/>
   <path class="fil4" d="M14.63 5.995l10.536 0c0.123,0 0.235,0.05 0.316,0.131l0.008 0.009c0.076,0.08 0.123,0.188 0.123,0.306l0 6.817c0,0.123 -0.051,0.234 -0.132,0.315 -0.08,0.082 -0.192,0.132 -0.315,0.132l-10.536 0c-0.122,0 -0.234,-0.05 -0.315,-0.131 -0.081,-0.081 -0.131,-0.193 -0.131,-0.316l0 -6.817c0,-0.123 0.05,-0.235 0.131,-0.315 0.081,-0.081 0.193,-0.131 0.315,-0.131zm10.536 0.273l-10.536 0c-0.047,0 -0.091,0.019 -0.122,0.051 -0.031,0.031 -0.051,0.074 -0.051,0.122l0 6.817c0,0.048 0.02,0.091 0.051,0.123 0.031,0.031 0.075,0.051 0.122,0.051l10.536 0c0.048,0 0.091,-0.02 0.123,-0.051 0.031,-0.031 0.051,-0.075 0.051,-0.123l0 -6.817c0,-0.045 -0.018,-0.087 -0.046,-0.117l-0.005 -0.005c-0.032,-0.032 -0.075,-0.051 -0.123,-0.051z"/>
   <polygon class="fil3" points="18.321,15.236 21.475,15.236 21.475,13.568 18.321,13.568 "/>
   <path class="fil4" d="M18.458 15.099l2.881 0 0 -1.394 -2.881 0 0 1.394zm3.017 0.273l-3.154 0c-0.075,0 -0.136,-0.061 -0.136,-0.136l0 -1.668c0,-0.075 0.061,-0.136 0.136,-0.136l3.154 0c0.076,0 0.137,0.061 0.137,0.136l0 1.668c0,0.075 -0.061,0.136 -0.137,0.136z"/>
   <path class="fil4" d="M24.637 11.485c0,-0.075 0.061,-0.136 0.136,-0.136 0.075,0 0.137,0.061 0.137,0.136l0 1.099c0,0.131 -0.054,0.249 -0.14,0.335 -0.086,0.087 -0.205,0.14 -0.335,0.14l-2.21 0c-0.075,0 -0.137,-0.061 -0.137,-0.136 0,-0.075 0.062,-0.137 0.137,-0.137l2.21 0c0.055,0 0.105,-0.023 0.142,-0.059 0.037,-0.036 0.06,-0.087 0.06,-0.143l0 -1.099z"/>
   <path class="fil4" d="M15.16 7.827c0,0.075 -0.061,0.136 -0.136,0.136 -0.076,0 -0.137,-0.061 -0.137,-0.136l0 -0.712c0,-0.131 0.054,-0.25 0.14,-0.336 0.086,-0.086 0.205,-0.139 0.335,-0.139l1.371 0c0.076,0 0.137,0.061 0.137,0.136 0,0.076 -0.061,0.137 -0.137,0.137l-1.371 0c-0.055,0 -0.106,0.023 -0.142,0.059 -0.037,0.037 -0.06,0.088 -0.06,0.143l0 0.712z"/>
   <path class="fil5" d="M9.951 15.372c-0.076,0 -0.137,-0.061 -0.137,-0.136 0,-0.075 0.061,-0.137 0.137,-0.137l2.658 0c0.075,0 0.136,0.062 0.136,0.137 0,0.075 -0.061,0.136 -0.136,0.136l-2.658 0z"/>
   <path class="fil6" d="M14.868 12.203c-0.444,-0.771 -1.215,-1.167 -1.712,-0.88l-0.763 0.44c-0.497,0.287 -0.539,1.152 -0.094,1.923l0.056 0.098 2.57 -1.483 -0.057 -0.098z"/>
   <path class="fil5" d="M14.982 12.127l0.061 0.105c0.037,0.066 0.015,0.149 -0.05,0.186l-2.569 1.484c-0.065,0.038 -0.149,0.015 -0.186,-0.05l-0.057 -0.097c-0.236,-0.41 -0.342,-0.845 -0.324,-1.218 0.019,-0.394 0.177,-0.723 0.468,-0.891l0.752 -0.434c0.007,-0.005 0.014,-0.009 0.022,-0.013 0.289,-0.161 0.648,-0.132 0.995,0.046 0.329,0.169 0.65,0.475 0.885,0.878l0.003 0.004zm-0.243 0.124c-0.207,-0.352 -0.486,-0.618 -0.769,-0.764 -0.27,-0.138 -0.54,-0.165 -0.745,-0.046l-0.764 0.44c-0.205,0.119 -0.317,0.366 -0.332,0.669 -0.016,0.318 0.075,0.692 0.276,1.049l2.334 -1.348z"/>
   <path class="fil6" d="M13.292 11.163c-0.279,-0.484 -0.682,-0.778 -0.896,-0.654l-0.328 0.189c-0.214,0.124 -0.161,0.62 0.118,1.103l0.035 0.062 1.107 -0.639 -0.036 -0.061z"/>
   <path class="fil5" d="M13.41 11.094l0.036 0.062c0.037,0.065 0.015,0.148 -0.05,0.186l-1.106 0.638c-0.065,0.038 -0.149,0.016 -0.186,-0.049l-0.036 -0.061c-0.149,-0.259 -0.238,-0.524 -0.261,-0.741 -0.028,-0.254 0.035,-0.457 0.193,-0.549l0.317 -0.182c0.007,-0.006 0.015,-0.01 0.024,-0.014 0.156,-0.082 0.358,-0.032 0.559,0.114 0.175,0.128 0.358,0.335 0.506,0.589l0.004 0.007zm-0.269 0.081c-0.123,-0.199 -0.266,-0.359 -0.401,-0.457 -0.118,-0.086 -0.22,-0.124 -0.275,-0.092l-0.329 0.19c-0.056,0.032 -0.074,0.139 -0.059,0.284 0.018,0.168 0.085,0.371 0.195,0.577l0.869 -0.502z"/>
   <path class="fil6" d="M10.274 12.138c-0.248,0 -0.448,0.201 -0.448,0.448 0,0.248 0.2,0.448 0.448,0.448 0.247,0 0.448,-0.2 0.448,-0.448 0,-0.247 -0.201,-0.448 -0.448,-0.448z"/>
   <path class="fil5" d="M10.274 12.275c-0.086,0 -0.164,0.035 -0.22,0.091l-0.007 0.006c-0.052,0.055 -0.085,0.131 -0.085,0.214 0,0.086 0.035,0.164 0.091,0.221 0.057,0.056 0.135,0.091 0.221,0.091 0.086,0 0.164,-0.035 0.22,-0.092 0.056,-0.056 0.091,-0.134 0.091,-0.22 0,-0.086 -0.035,-0.164 -0.091,-0.22 -0.056,-0.056 -0.134,-0.091 -0.22,-0.091zm-0.413 -0.102c0.105,-0.106 0.251,-0.171 0.413,-0.171 0.161,0 0.307,0.065 0.413,0.171 0.106,0.106 0.171,0.252 0.171,0.413 0,0.161 -0.065,0.308 -0.171,0.413 -0.106,0.106 -0.252,0.172 -0.413,0.172 -0.162,0 -0.308,-0.066 -0.413,-0.172 -0.106,-0.106 -0.172,-0.252 -0.172,-0.413 0,-0.157 0.063,-0.299 0.164,-0.405l0.008 -0.008z"/>
   <path class="fil5" d="M11.939 11.296c0.065,-0.039 0.149,-0.018 0.187,0.047 0.039,0.064 0.019,0.148 -0.046,0.187l-1.419 0.856c-0.064,0.039 -0.148,0.018 -0.187,-0.046 -0.039,-0.065 -0.018,-0.149 0.046,-0.187l1.419 -0.857z"/>
   <path class="fil5" d="M10.379 13.067c-0.026,-0.07 0.009,-0.149 0.08,-0.175 0.07,-0.027 0.149,0.009 0.175,0.079l0.834 2.217c0.027,0.07 -0.009,0.149 -0.079,0.175 -0.071,0.027 -0.149,-0.009 -0.176,-0.079l-0.834 -2.217z"/>
   <path class="fil5" d="M17.498 15.372c-0.076,0 -0.137,-0.061 -0.137,-0.136 0,-0.075 0.061,-0.137 0.137,-0.137l4.801 0c0.075,0 0.137,0.062 0.137,0.137 0,0.075 -0.062,0.136 -0.137,0.136l-4.801 0z"/>
   <path class="fil3" d="M26.652 14.394l0.083 0.962c0.003,0.031 0.027,0.058 0.057,0.058l1.14 0c0.03,0 0.054,-0.026 0.057,-0.058l0.083 -0.962 -1.42 0z"/>
   <path class="fil4" d="M26.801 14.53l0.064 0.747 0.994 0 0.064 -0.747 -1.122 0zm-0.202 0.838l-0.084 -0.974c0,-0.076 0.061,-0.137 0.137,-0.137l1.432 0.001c0.075,0.006 0.131,0.072 0.124,0.147l-0.083 0.963c-0.004,0.042 -0.02,0.081 -0.046,0.112l-0.012 0.014c-0.035,0.035 -0.082,0.056 -0.135,0.056l-1.139 0c-0.054,0 -0.101,-0.022 -0.135,-0.056 -0.028,-0.027 -0.047,-0.064 -0.055,-0.104l-0.004 -0.022z"/>
   <path class="fil3" d="M28.184 14.394c0.032,0 0.054,-0.026 0.058,-0.058l0.033 -0.305c0.003,-0.031 -0.026,-0.057 -0.057,-0.057l-1.712 0c-0.031,0 -0.06,0.026 -0.057,0.057l0.033 0.305c0.004,0.032 0.026,0.058 0.058,0.058l1.644 0z"/>
   <path class="fil4" d="M28.319 14.474c-0.035,0.035 -0.081,0.056 -0.135,0.056l-1.644 0c-0.054,0 -0.101,-0.021 -0.135,-0.056 -0.03,-0.031 -0.051,-0.072 -0.057,-0.116 -0.014,-0.107 -0.028,-0.224 -0.036,-0.332 0,-0.052 0.022,-0.098 0.057,-0.132 0.03,-0.03 0.072,-0.05 0.116,-0.055l0.021 -0.001c0.525,0 1.23,-0.041 1.733,0.001 0.044,0.005 0.086,0.025 0.116,0.055 0.035,0.034 0.057,0.08 0.057,0.132 -0.007,0.108 -0.024,0.218 -0.035,0.325 -0.005,0.047 -0.026,0.091 -0.058,0.123zm-0.206 -0.217l0.016 -0.146 -1.534 0 0.016 0.146 1.502 0z"/>
   <path class="fil6" d="M27.945 13.974c0.197,-0.161 0.321,-0.445 0.332,-0.744 0.27,0 0.566,-0.195 0.663,-0.435 0.097,-0.241 -0.041,-0.436 -0.308,-0.436 -0.192,0 -0.398,0.101 -0.535,0.247 -0.163,-0.24 -0.423,-0.395 -0.715,-0.395 -0.493,0 -0.892,0.442 -0.892,0.987 0,0.304 0.129,0.595 0.325,0.776l1.13 0z"/>
   <path class="fil5" d="M27.894 13.837c0.065,-0.063 0.12,-0.144 0.162,-0.237 0.05,-0.113 0.08,-0.242 0.085,-0.374 0.003,-0.074 0.063,-0.132 0.136,-0.132 0.109,0 0.223,-0.04 0.321,-0.104 0.098,-0.065 0.177,-0.152 0.215,-0.246 0.015,-0.035 0.021,-0.068 0.021,-0.098 0,-0.032 -0.007,-0.059 -0.021,-0.079 -0.016,-0.022 -0.039,-0.04 -0.069,-0.052 -0.031,-0.012 -0.069,-0.019 -0.112,-0.019 -0.075,0 -0.153,0.019 -0.227,0.053l-0.007 0.003c-0.075,0.036 -0.146,0.087 -0.202,0.147 -0.052,0.055 -0.138,0.057 -0.193,0.006 -0.007,-0.007 -0.013,-0.015 -0.019,-0.023 -0.071,-0.104 -0.163,-0.19 -0.269,-0.248 -0.1,-0.055 -0.213,-0.086 -0.333,-0.086 -0.206,0 -0.394,0.093 -0.53,0.244 -0.14,0.154 -0.226,0.368 -0.226,0.606 0,0.131 0.028,0.26 0.076,0.375 0.042,0.101 0.1,0.191 0.169,0.264l1.023 0zm0.41 -0.126c-0.064,0.143 -0.154,0.268 -0.264,0.36 -0.025,0.024 -0.058,0.039 -0.095,0.039l-1.13 0c-0.033,0 -0.066,-0.012 -0.092,-0.036 -0.114,-0.106 -0.208,-0.242 -0.273,-0.395 -0.062,-0.148 -0.097,-0.313 -0.097,-0.481 0,-0.307 0.114,-0.586 0.297,-0.789 0.187,-0.206 0.446,-0.334 0.732,-0.334 0.167,0 0.325,0.043 0.464,0.12 0.1,0.055 0.19,0.128 0.268,0.213 0.053,-0.04 0.11,-0.074 0.17,-0.102l0.007 -0.004c0.109,-0.05 0.227,-0.079 0.341,-0.079 0.079,0 0.151,0.014 0.213,0.039 0.082,0.033 0.147,0.085 0.192,0.151 0.046,0.067 0.07,0.147 0.07,0.233 0,0.063 -0.013,0.13 -0.041,0.199 -0.059,0.147 -0.176,0.278 -0.318,0.372 -0.105,0.068 -0.224,0.118 -0.345,0.139 -0.016,0.125 -0.05,0.246 -0.099,0.355z"/>
   <path class="fil5" d="M28.273 13.366c-0.075,-0.001 -0.135,-0.062 -0.134,-0.137 0.001,-0.075 0.062,-0.136 0.138,-0.135l0.005 0c0.075,0.001 0.135,0.063 0.134,0.138 -0.001,0.075 -0.063,0.135 -0.138,0.134l-0.005 0z"/>
   <path class="fil5" d="M26.788 12.228c-0.041,-0.063 -0.024,-0.147 0.038,-0.189 0.063,-0.041 0.148,-0.024 0.189,0.039l0.074 0.11c0.041,0.063 0.024,0.148 -0.038,0.189 -0.063,0.041 -0.148,0.024 -0.189,-0.038l-0.074 -0.111z"/>
   <path class="fil5" d="M26.265 12.985c-0.072,-0.02 -0.115,-0.095 -0.096,-0.167 0.019,-0.073 0.094,-0.116 0.167,-0.097l0.135 0.037c0.073,0.019 0.116,0.094 0.097,0.167 -0.02,0.072 -0.094,0.116 -0.167,0.096l-0.136 -0.036z"/>
   <path class="fil5" d="M26.44 12.555c-0.064,-0.041 -0.082,-0.125 -0.041,-0.188 0.04,-0.064 0.125,-0.082 0.188,-0.041l0.115 0.074c0.064,0.041 0.082,0.125 0.041,0.188 -0.04,0.064 -0.125,0.082 -0.188,0.041l-0.115 -0.074z"/>
   <path class="fil5" d="M26.301 13.43c-0.075,0.01 -0.143,-0.042 -0.154,-0.117 -0.01,-0.074 0.042,-0.143 0.117,-0.153l0.139 -0.02c0.075,-0.01 0.143,0.042 0.154,0.117 0.01,0.074 -0.042,0.143 -0.117,0.153l-0.139 0.02z"/>
   <path class="fil5" d="M26.453 13.835c-0.067,0.035 -0.149,0.01 -0.184,-0.057 -0.035,-0.066 -0.01,-0.149 0.057,-0.184l0.122 -0.064c0.067,-0.035 0.149,-0.01 0.184,0.057 0.035,0.066 0.009,0.149 -0.057,0.184l-0.122 0.064z"/>
   <path class="fil5" d="M27.778 12.081c0.041,-0.062 0.126,-0.08 0.188,-0.038 0.063,0.041 0.08,0.126 0.039,0.189l-0.074 0.11c-0.041,0.063 -0.126,0.08 -0.188,0.039 -0.063,-0.042 -0.08,-0.126 -0.039,-0.189l0.074 -0.111z"/>
   <path class="fil5" d="M29.001 12.269c0.063,-0.041 0.147,-0.022 0.188,0.041 0.04,0.063 0.022,0.148 -0.041,0.188l-0.767 0.496c-0.064,0.04 -0.148,0.022 -0.189,-0.041 -0.04,-0.063 -0.022,-0.148 0.041,-0.188l0.768 -0.496z"/>
   <path class="fil5" d="M28.446 13.538c0.069,0.029 0.102,0.109 0.072,0.179 -0.029,0.069 -0.109,0.101 -0.178,0.072l-0.128 -0.055c-0.07,-0.029 -0.102,-0.11 -0.072,-0.179 0.029,-0.069 0.109,-0.101 0.178,-0.072l0.128 0.055z"/>
   <path class="fil5" d="M28.58 12.141c0.019,-0.073 0.093,-0.117 0.166,-0.099 0.073,0.019 0.117,0.093 0.099,0.166l-0.033 0.126c-0.018,0.073 -0.092,0.117 -0.165,0.099 -0.073,-0.019 -0.117,-0.093 -0.099,-0.166l0.032 -0.126z"/>
   <path class="fil5" d="M28.164 12.34c-0.042,-0.063 -0.025,-0.147 0.038,-0.189 0.063,-0.041 0.147,-0.024 0.189,0.039l0.073 0.111c0.042,0.062 0.025,0.147 -0.038,0.188 -0.063,0.042 -0.147,0.025 -0.189,-0.038l-0.073 -0.111z"/>
   <path class="fil5" d="M29.178 12.723c0.071,0.022 0.112,0.098 0.09,0.17 -0.022,0.072 -0.098,0.112 -0.169,0.091l-0.134 -0.041c-0.072,-0.022 -0.113,-0.098 -0.091,-0.17 0.022,-0.072 0.098,-0.112 0.17,-0.091l0.134 0.041z"/>
   <path class="fil5" d="M28.698 13.154c-0.041,-0.062 -0.024,-0.147 0.038,-0.188 0.063,-0.042 0.148,-0.025 0.189,0.038l0.074 0.111c0.041,0.062 0.024,0.147 -0.039,0.188 -0.062,0.042 -0.147,0.025 -0.188,-0.038l-0.074 -0.111z"/>
   <path class="fil5" d="M28.363 13.29c-0.017,-0.074 0.029,-0.147 0.102,-0.164 0.074,-0.016 0.147,0.029 0.163,0.103l0.03 0.127c0.016,0.073 -0.029,0.146 -0.103,0.163 -0.073,0.017 -0.146,-0.029 -0.163,-0.102l-0.029 -0.127z"/>
   <path class="fil5" d="M27.985 12.683c-0.043,-0.062 -0.028,-0.147 0.034,-0.189 0.062,-0.043 0.147,-0.028 0.19,0.034 0.026,0.039 0.075,0.11 0.118,0.227 0.042,0.112 0.078,0.266 0.084,0.472 0.001,0.075 -0.058,0.138 -0.133,0.139 -0.075,0.002 -0.138,-0.058 -0.139,-0.133 -0.005,-0.17 -0.034,-0.295 -0.067,-0.383 -0.031,-0.085 -0.067,-0.138 -0.087,-0.167z"/>
   <path class="fil5" d="M27.669 14.05c-0.042,0.062 -0.127,0.079 -0.189,0.037 -0.062,-0.042 -0.079,-0.127 -0.037,-0.189 0.044,-0.065 0.081,-0.163 0.108,-0.282 0.027,-0.122 0.043,-0.265 0.043,-0.421 0,-0.231 -0.035,-0.438 -0.091,-0.585 -0.042,-0.107 -0.084,-0.174 -0.117,-0.174 -0.033,0 -0.075,0.067 -0.117,0.174 -0.056,0.147 -0.091,0.354 -0.091,0.585 0,0.145 0.014,0.28 0.038,0.396 0.024,0.116 0.057,0.214 0.097,0.283 0.038,0.065 0.015,0.148 -0.05,0.185 -0.065,0.038 -0.148,0.015 -0.185,-0.05 -0.055,-0.094 -0.099,-0.219 -0.129,-0.364 -0.028,-0.136 -0.044,-0.289 -0.044,-0.45 0,-0.263 0.042,-0.504 0.11,-0.682 0.084,-0.216 0.214,-0.35 0.371,-0.35 0.157,0 0.287,0.134 0.37,0.35 0.069,0.178 0.111,0.419 0.111,0.682 0,0.172 -0.019,0.336 -0.05,0.479 -0.035,0.154 -0.086,0.284 -0.148,0.376z"/>
  </g>
 </g>
</svg>
