<?xml version="1.0" encoding="UTF-8"?>
<!DOCTYPE svg PUBLIC "-//W3C//DTD SVG 1.1//EN" "http://www.w3.org/Graphics/SVG/1.1/DTD/svg11.dtd">
<!-- Creator: CorelDRAW 2018 (64-Bit) -->
<svg xmlns="http://www.w3.org/2000/svg" xml:space="preserve" width="150px" height="72px" version="1.1" style="shape-rendering:geometricPrecision; text-rendering:geometricPrecision; image-rendering:optimizeQuality; fill-rule:evenodd; clip-rule:evenodd"
viewBox="0 0 40.954 19.658"
 xmlns:xlink="http://www.w3.org/1999/xlink">
 <defs>
  <style type="text/css">
   <![CDATA[
    .fil0 {fill:none}
    .fil5 {fill:#00F4FF}
    .fil1 {fill:#EAEDF2}
    .fil3 {fill:white}
    .fil4 {fill:gray;fill-rule:nonzero}
    .fil6 {fill:gray;fill-rule:nonzero}
    .fil2 {fill:#EAEDF2;fill-rule:nonzero}
   ]]>
  </style>
 </defs>
 <g id="Layer_x0020_1">
  <metadata id="CorelCorpID_0Corel-Layer"/>
  <g id="_1699171443360">
   <rect class="fil0" width="40.954" height="19.658"/>
   <path class="fil1" d="M23.188 2.361c3.16,0 6.382,2.269 6.382,7.834 0,5.566 -4.075,7.877 -10.663,7.877 -6.588,0 -9.461,-3.371 -9.461,-6.379 0,-3.008 2.963,-3.079 6.831,-4.623 3.868,-1.545 3.751,-4.709 6.911,-4.709z"/>
   <path class="fil1" d="M30.623 2.751l0 0c0.106,-0.106 0.279,-0.106 0.386,0l0.522 0.522 0.522 -0.522c0.106,-0.106 0.28,-0.106 0.386,0l0 0c0.106,0.106 0.106,0.28 0,0.386l-0.522 0.522 0.522 0.522c0.106,0.107 0.106,0.28 0,0.386l0 0c-0.106,0.107 -0.28,0.107 -0.386,0l-0.522 -0.522 -0.522 0.522c-0.107,0.107 -0.28,0.107 -0.386,0l-0.001 0c-0.106,-0.106 -0.106,-0.28 0,-0.386l0.523 -0.522 -0.522 -0.522c-0.107,-0.106 -0.107,-0.28 0,-0.386z"/>
   <path class="fil1" d="M11.318 5.67c0.349,0 0.632,0.282 0.632,0.631 0,0.349 -0.283,0.632 -0.632,0.632 -0.349,0 -0.631,-0.283 -0.631,-0.632 0,-0.349 0.282,-0.631 0.631,-0.631z"/>
   <path class="fil2" d="M6.062 1.449c0.3,0 0.572,0.122 0.769,0.319 0.197,0.197 0.319,0.469 0.319,0.77 0,0.3 -0.122,0.573 -0.319,0.77 -0.197,0.196 -0.469,0.318 -0.769,0.318 -0.301,0 -0.573,-0.122 -0.77,-0.318 -0.197,-0.197 -0.319,-0.47 -0.319,-0.77 0,-0.301 0.122,-0.573 0.319,-0.77 0.197,-0.197 0.469,-0.319 0.77,-0.319zm0.576 0.512c-0.147,-0.147 -0.351,-0.239 -0.576,-0.239 -0.226,0 -0.43,0.092 -0.577,0.239 -0.148,0.148 -0.239,0.352 -0.239,0.577 0,0.225 0.091,0.429 0.239,0.577 0.147,0.147 0.351,0.238 0.577,0.238 0.225,0 0.429,-0.091 0.576,-0.238 0.148,-0.148 0.239,-0.352 0.239,-0.577 0,-0.225 -0.091,-0.429 -0.239,-0.577z"/>
   <polygon class="fil1" points="1.52,12.78 2.804,10.866 4.089,12.78 "/>
   <path class="fil2" d="M34.812 11.961c0.374,0 0.712,0.152 0.956,0.396 0.245,0.245 0.396,0.583 0.396,0.956 0,0.373 -0.151,0.711 -0.396,0.956 -0.244,0.244 -0.582,0.396 -0.956,0.396 -0.373,0 -0.711,-0.152 -0.955,-0.396 -0.245,-0.245 -0.396,-0.583 -0.396,-0.956 0,-0.373 0.151,-0.711 0.396,-0.956 0.244,-0.244 0.582,-0.396 0.955,-0.396zm0.763 0.589c-0.195,-0.195 -0.465,-0.316 -0.763,-0.316 -0.298,0 -0.567,0.121 -0.762,0.316 -0.196,0.195 -0.316,0.465 -0.316,0.763 0,0.298 0.12,0.568 0.316,0.763 0.195,0.195 0.464,0.316 0.762,0.316 0.298,0 0.568,-0.121 0.763,-0.316 0.195,-0.195 0.316,-0.465 0.316,-0.763 0,-0.298 -0.121,-0.568 -0.316,-0.763z"/>
   <path class="fil3" d="M15.24 9.983c0.281,-0.074 0.835,0.133 1.199,0.22 0.928,0.222 2.049,0.222 2.977,0 0.364,-0.087 0.918,-0.294 1.199,-0.22 0.281,0.073 0.922,0.53 0.985,1.251l0.186 2.142c0.016,0.183 -0.151,0.333 -0.334,0.333l-7.049 0c-0.183,0 -0.349,-0.15 -0.334,-0.333l0.186 -2.142c0.063,-0.721 0.704,-1.178 0.985,-1.251z"/>
   <path class="fil4" d="M15.207 9.856c0.247,-0.064 0.632,0.045 0.972,0.141 0.108,0.031 0.211,0.06 0.29,0.079 0.453,0.108 0.955,0.163 1.459,0.163 0.503,0 1.005,-0.055 1.458,-0.163 0.08,-0.019 0.183,-0.048 0.291,-0.079 0.339,-0.096 0.725,-0.206 0.972,-0.141l0.006 0.002c0.187,0.052 0.502,0.243 0.741,0.546 0.171,0.217 0.306,0.493 0.334,0.819 0.062,0.709 0.157,1.473 0.188,2.177 0,0.118 -0.051,0.224 -0.131,0.303 -0.077,0.076 -0.183,0.126 -0.294,0.136l-0.041 0.002 -7.049 0 -0.041 -0.002c-0.111,-0.01 -0.217,-0.06 -0.294,-0.136 -0.08,-0.079 -0.131,-0.185 -0.131,-0.303l0.002 -0.035 0.186 -2.142c0.028,-0.326 0.163,-0.602 0.334,-0.819 0.242,-0.307 0.563,-0.499 0.748,-0.548zm0.901 0.393c-0.308,-0.087 -0.658,-0.187 -0.836,-0.14 -0.145,0.038 -0.403,0.197 -0.607,0.457 -0.143,0.181 -0.256,0.411 -0.279,0.68l-0.187 2.154c0,0.044 0.021,0.085 0.053,0.117 0.034,0.034 0.082,0.056 0.133,0.061 2.109,0.09 4.976,0.09 7.085,0 0.051,-0.005 0.099,-0.027 0.134,-0.061 0.031,-0.032 0.052,-0.073 0.052,-0.117l-0.187 -2.154c-0.023,-0.269 -0.136,-0.499 -0.279,-0.68 -0.202,-0.257 -0.457,-0.416 -0.603,-0.456l-0.005 -0.001c-0.177,-0.046 -0.527,0.053 -0.835,0.14 -0.103,0.029 -0.202,0.057 -0.301,0.081 -0.475,0.114 -0.998,0.171 -1.518,0.171 -0.521,0 -1.044,-0.057 -1.519,-0.171 -0.1,-0.024 -0.198,-0.052 -0.301,-0.081z"/>
   <path class="fil3" d="M17.915 4.073c1.429,0 2.588,1.159 2.588,2.588 0,1.43 -1.159,2.589 -2.588,2.589 -1.429,0 -2.588,-1.159 -2.588,-2.589 0,-1.429 1.159,-2.588 2.588,-2.588z"/>
   <path class="fil4" d="M17.915 3.942c0.751,0 1.431,0.305 1.923,0.797 0.492,0.492 0.796,1.172 0.796,1.922 0,0.751 -0.304,1.431 -0.796,1.923 -0.492,0.492 -1.172,0.797 -1.923,0.797 -0.751,0 -1.431,-0.305 -1.923,-0.797 -0.492,-0.492 -0.796,-1.172 -0.796,-1.923 0,-0.75 0.304,-1.43 0.796,-1.922 0.492,-0.492 1.172,-0.797 1.923,-0.797zm1.737 0.982c-0.444,-0.445 -1.059,-0.72 -1.737,-0.72 -0.679,0 -1.293,0.275 -1.738,0.72 -0.444,0.445 -0.719,1.059 -0.719,1.737 0,0.679 0.275,1.293 0.719,1.738 0.445,0.444 1.059,0.72 1.738,0.72 0.678,0 1.293,-0.276 1.737,-0.72 0.445,-0.445 0.72,-1.059 0.72,-1.738 0,-0.678 -0.275,-1.292 -0.72,-1.737z"/>
   <polygon class="fil5" points="21.928,10.616 22.904,12.448 24.947,12.81 23.507,14.304 23.794,16.359 21.928,15.451 20.062,16.359 20.349,14.304 18.909,12.81 20.952,12.448 "/>
   <path class="fil6" d="M22.049 10.553l0.944 1.772 1.978 0.35c0.074,0.013 0.124,0.084 0.111,0.158 -0.006,0.031 -0.021,0.057 -0.042,0.077l-1.389 1.441 0.278 1.99c0.01,0.074 -0.042,0.143 -0.116,0.153 -0.028,0.004 -0.055,-0.001 -0.078,-0.012l-1.807 -0.879 -1.806 0.879c-0.068,0.033 -0.149,0.005 -0.182,-0.063 -0.014,-0.028 -0.017,-0.057 -0.012,-0.085l0.277 -1.983 -1.394 -1.447c-0.052,-0.054 -0.051,-0.14 0.003,-0.192 0.021,-0.02 0.046,-0.032 0.071,-0.036l1.979 -0.351 0.944 -1.773c0.035,-0.066 0.118,-0.091 0.184,-0.056 0.025,0.014 0.044,0.034 0.057,0.057zm0.735 1.959l-0.856 -1.607 -0.851 1.598c-0.018,0.04 -0.055,0.071 -0.101,0.079l-1.792 0.318 1.261 1.307c0.03,0.029 0.045,0.071 0.039,0.115l-0.252 1.803 1.636 -0.797c0.037,-0.017 0.081,-0.019 0.12,0l1.636 0.797 -0.252 -1.803c-0.005,-0.039 0.007,-0.081 0.037,-0.113l1.263 -1.309 -1.792 -0.318c-0.039,-0.007 -0.076,-0.032 -0.096,-0.07z"/>
  </g>
 </g>
</svg>
