<?xml version="1.0" encoding="UTF-8"?>
<!DOCTYPE svg PUBLIC "-//W3C//DTD SVG 1.1//EN" "http://www.w3.org/Graphics/SVG/1.1/DTD/svg11.dtd">
<!-- Creator: CorelDRAW 2018 (64-Bit) -->
<svg xmlns="http://www.w3.org/2000/svg" xml:space="preserve" width="150px" height="72px" version="1.1" style="shape-rendering:geometricPrecision; text-rendering:geometricPrecision; image-rendering:optimizeQuality; fill-rule:evenodd; clip-rule:evenodd"
viewBox="0 0 40.954 19.658"
 xmlns:xlink="http://www.w3.org/1999/xlink">
 <defs>
  <style type="text/css">
   <![CDATA[
    .fil0 {fill:none}
    .fil5 {fill:#00F4FF}
    .fil1 {fill:#EAEDF2}
    .fil3 {fill:white}
    .fil4 {fill:gray;fill-rule:nonzero}
    .fil2 {fill:#EAEDF2;fill-rule:nonzero}
   ]]>
  </style>
 </defs>
 <g id="Layer_x0020_1">
  <metadata id="CorelCorpID_0Corel-Layer"/>
  <g id="_1699171419296">
   <rect class="fil0" width="40.954" height="19.658"/>
   <g>
    <path class="fil1" d="M2.264 14.655l0 0c0.106,0.106 0.28,0.106 0.386,0l0.522 -0.522 0.522 0.522c0.107,0.106 0.28,0.106 0.386,0l0.001 0c0.106,-0.106 0.106,-0.28 0,-0.386l-0.523 -0.522 0.523 -0.523c0.106,-0.106 0.106,-0.279 0,-0.386l0 0c-0.107,-0.106 -0.28,-0.106 -0.387,0l-0.522 0.522 -0.522 -0.522c-0.106,-0.106 -0.28,-0.106 -0.386,0l0 0c-0.106,0.107 -0.106,0.28 0,0.386l0.522 0.523 -0.522 0.522c-0.106,0.106 -0.106,0.28 0,0.386z"/>
    <path class="fil1" d="M37.485 12.013l0.001 0c0.15,0 0.272,-0.123 0.272,-0.273l0 -0.739 0.739 0c0.15,0 0.273,-0.122 0.273,-0.273l0 0c0,-0.15 -0.123,-0.273 -0.273,-0.273l-0.739 0 0 -0.738c0,-0.15 -0.122,-0.273 -0.272,-0.273l-0.001 0c-0.15,0 -0.273,0.123 -0.273,0.273l0 0.738 -0.738 0c-0.15,0 -0.273,0.123 -0.273,0.273l0 0c0,0.151 0.123,0.273 0.273,0.273l0.738 0 0 0.739c0,0.15 0.123,0.273 0.273,0.273z"/>
    <path class="fil1" d="M27.966 14.371c0.529,0 0.957,0.428 0.957,0.957 0,0.529 -0.428,0.957 -0.957,0.957 -0.529,0 -0.957,-0.428 -0.957,-0.957 0,-0.529 0.428,-0.957 0.957,-0.957z"/>
    <polygon class="fil1" points="31.354,4.098 32.639,2.183 33.923,4.098 "/>
    <path class="fil2" d="M7.09 4.492c0.373,0 0.711,-0.151 0.956,-0.396 0.244,-0.244 0.395,-0.582 0.395,-0.955 0,-0.374 -0.151,-0.712 -0.395,-0.956 -0.245,-0.245 -0.583,-0.396 -0.956,-0.396 -0.373,0 -0.711,0.151 -0.956,0.396 -0.245,0.244 -0.396,0.582 -0.396,0.956 0,0.373 0.151,0.711 0.396,0.955 0.245,0.245 0.583,0.396 0.956,0.396zm0.763 -0.589c-0.196,0.195 -0.465,0.316 -0.763,0.316 -0.298,0 -0.568,-0.121 -0.763,-0.316 -0.195,-0.195 -0.316,-0.464 -0.316,-0.762 0,-0.298 0.121,-0.568 0.316,-0.763 0.195,-0.195 0.465,-0.316 0.763,-0.316 0.298,0 0.567,0.121 0.763,0.316 0.195,0.195 0.315,0.465 0.315,0.763 0,0.297 -0.12,0.567 -0.315,0.762z"/>
    <path class="fil1" d="M15.838 17.869c-3.16,0 -6.722,-2.215 -6.382,-7.835 0.339,-5.62 4.385,-7.926 10.663,-7.876 6.279,0.049 9.461,3.371 9.461,6.379 0,3.008 -2.963,3.078 -6.831,4.623 -3.868,1.544 -3.751,4.709 -6.911,4.709z"/>
    <path class="fil3" d="M13.938 4.143l8.859 0c0.205,0 0.373,0.168 0.373,0.373l0 11.54c0,0.205 -0.168,0.373 -0.373,0.373l-8.859 0c-0.205,0 -0.373,-0.168 -0.373,-0.373l0 -11.54c0,-0.205 0.168,-0.373 0.373,-0.373z"/>
    <path class="fil4" d="M13.938 4.007l8.859 0c0.14,0 0.268,0.057 0.36,0.149 0.092,0.092 0.15,0.22 0.15,0.36l0 11.54c0,0.14 -0.058,0.268 -0.15,0.36 -0.092,0.092 -0.22,0.15 -0.36,0.15l-8.859 0c-0.14,0 -0.268,-0.058 -0.36,-0.15 -0.092,-0.092 -0.15,-0.22 -0.15,-0.36l0 -11.54c0,-0.14 0.058,-0.268 0.15,-0.36 0.092,-0.092 0.22,-0.149 0.36,-0.149zm8.859 0.273l-8.859 0c-0.065,0 -0.124,0.026 -0.167,0.069 -0.043,0.043 -0.07,0.102 -0.07,0.167l0 11.54c0,0.065 0.027,0.124 0.07,0.167 0.043,0.043 0.102,0.07 0.167,0.07l8.859 0c0.065,0 0.124,-0.027 0.167,-0.07 0.043,-0.043 0.07,-0.102 0.07,-0.167l0 -11.54c0,-0.065 -0.027,-0.124 -0.07,-0.167 -0.043,-0.043 -0.102,-0.069 -0.167,-0.069z"/>
    <path class="fil4" d="M15.214 6.621c-0.075,0 -0.136,-0.061 -0.136,-0.137 0,-0.075 0.061,-0.136 0.136,-0.136l6.307 0c0.075,0 0.136,0.061 0.136,0.136 0,0.076 -0.061,0.137 -0.136,0.137l-6.307 0z"/>
    <path class="fil4" d="M15.214 8.222c-0.075,0 -0.136,-0.061 -0.136,-0.136 0,-0.076 0.061,-0.137 0.136,-0.137l6.307 0c0.075,0 0.136,0.061 0.136,0.137 0,0.075 -0.061,0.136 -0.136,0.136l-6.307 0z"/>
    <path class="fil4" d="M15.214 9.824c-0.075,0 -0.136,-0.061 -0.136,-0.136 0,-0.076 0.061,-0.137 0.136,-0.137l5.188 0c0.075,0 0.136,0.061 0.136,0.137 0,0.075 -0.061,0.136 -0.136,0.136l-5.188 0z"/>
    <path class="fil4" d="M15.214 11.426c-0.075,0 -0.136,-0.061 -0.136,-0.137 0,-0.075 0.061,-0.136 0.136,-0.136l2.854 0c0.076,0 0.137,0.061 0.137,0.136 0,0.076 -0.061,0.137 -0.137,0.137l-2.854 0z"/>
    <path class="fil5" d="M26.216 6.153l0.578 0.578c0.164,0.164 0.163,0.431 0,0.594l-7.391 7.391 -1.577 0.405 0.405 -1.577 7.391 -7.391c0.164,-0.164 0.431,-0.164 0.594,0z"/>
    <path class="fil4" d="M26.312 6.056l0.587 0.588c0.103,0.107 0.154,0.246 0.154,0.384 0,0.142 -0.054,0.285 -0.162,0.393l-7.391 7.392c-0.021,0.02 -0.047,0.033 -0.074,0.038l-1.566 0.402c-0.073,0.018 -0.147,-0.026 -0.166,-0.098 -0.005,-0.023 -0.005,-0.046 0,-0.068l0.405 -1.577c0.007,-0.024 0.019,-0.045 0.036,-0.062l7.391 -7.392c0.108,-0.108 0.251,-0.162 0.393,-0.162 0.142,0 0.285,0.054 0.393,0.162zm0.386 0.772l-0.579 -0.579c-0.055,-0.055 -0.127,-0.082 -0.2,-0.082 -0.073,0 -0.145,0.027 -0.2,0.082l-7.366 7.366 -0.338 1.317 1.317 -0.338 7.366 -7.366c0.055,-0.055 0.082,-0.127 0.082,-0.2 0,-0.07 -0.025,-0.141 -0.076,-0.194l-0.006 -0.006z"/>
    <path class="fil4" d="M26.475 7.645c-0.054,-0.054 -0.054,-0.14 0,-0.194 0.053,-0.053 0.139,-0.053 0.193,0l0.455 0.456c0.082,0.081 0.123,0.189 0.123,0.296 -0.001,0.108 -0.042,0.216 -0.123,0.297l-2.355 2.355c-0.053,0.053 -0.14,0.053 -0.193,0 -0.053,-0.053 -0.053,-0.14 0,-0.193l2.355 -2.355c0.029,-0.029 0.043,-0.066 0.043,-0.104 0,-0.037 -0.015,-0.075 -0.043,-0.103l-0.455 -0.455z"/>
    <path class="fil4" d="M22.524 9.251c-0.053,-0.053 -0.053,-0.14 0,-0.193 0.053,-0.053 0.14,-0.053 0.193,0l1.172 1.172c0.053,0.053 0.053,0.14 0,0.193 -0.053,0.053 -0.14,0.053 -0.193,0l-1.172 -1.172z"/>
    <path class="fil4" d="M17.676 15.464c-0.053,0.053 -0.14,0.053 -0.193,0 -0.053,-0.053 -0.053,-0.14 0,-0.193l0.247 -0.246c0.053,-0.054 0.139,-0.054 0.193,0 0.053,0.053 0.053,0.139 0,0.193l-0.247 0.246z"/>
    <polygon class="fil3" points="18.231,13.544 17.826,15.121 19.403,14.716 "/>
    <path class="fil4" d="M18.303 13.809l-0.288 1.123 1.123 -0.288 -0.835 -0.835zm-0.609 1.278l0.403 -1.565c0.004,-0.028 0.017,-0.054 0.038,-0.075 0.053,-0.053 0.139,-0.053 0.193,0l1.172 1.173c0.016,0.017 0.029,0.038 0.035,0.062 0.018,0.073 -0.026,0.147 -0.098,0.166l-1.577 0.405c-0.022,0.005 -0.045,0.005 -0.068,0 -0.072,-0.019 -0.116,-0.093 -0.098,-0.166z"/>
   </g>
  </g>
 </g>
</svg>
