<?xml version="1.0" encoding="UTF-8"?>
<!DOCTYPE svg PUBLIC "-//W3C//DTD SVG 1.1//EN" "http://www.w3.org/Graphics/SVG/1.1/DTD/svg11.dtd">
<!-- Creator: CorelDRAW 2018 (64-Bit) -->
<svg xmlns="http://www.w3.org/2000/svg" xml:space="preserve" width="150px" height="72px" version="1.1" style="shape-rendering:geometricPrecision; text-rendering:geometricPrecision; image-rendering:optimizeQuality; fill-rule:evenodd; clip-rule:evenodd"
viewBox="0 0 40.954 19.658"
 xmlns:xlink="http://www.w3.org/1999/xlink">
 <defs>
  <style type="text/css">
   <![CDATA[
    .fil0 {fill:none}
    .fil6 {fill:#00F4FF}
    .fil1 {fill:#EAEDF2}
    .fil3 {fill:white}
    .fil5 {fill:gray;fill-rule:nonzero}
    .fil4 {fill:gray;fill-rule:nonzero}
    .fil2 {fill:#EAEDF2;fill-rule:nonzero}
   ]]>
  </style>
 </defs>
 <g id="Layer_x0020_1">
  <metadata id="CorelCorpID_0Corel-Layer"/>
  <g id="_1698671010848">
   <rect class="fil0" width="40.954" height="19.658"/>
   <path class="fil1" d="M2.483 14.655l0 0c0.106,0.106 0.28,0.106 0.386,0l0.522 -0.522 0.523 0.522c0.106,0.106 0.279,0.106 0.386,0l0 0c0.106,-0.106 0.106,-0.28 0,-0.386l-0.523 -0.522 0.523 -0.523c0.106,-0.106 0.106,-0.279 0,-0.386l0 0c-0.106,-0.106 -0.28,-0.106 -0.386,0l-0.523 0.522 -0.522 -0.522c-0.106,-0.106 -0.28,-0.106 -0.386,0l0 0c-0.106,0.107 -0.106,0.28 0,0.386l0.522 0.523 -0.522 0.522c-0.106,0.106 -0.106,0.28 0,0.386z"/>
   <path class="fil1" d="M37.705 12.013l0 0c0.15,0 0.273,-0.123 0.273,-0.273l0 -0.739 0.738 0c0.15,0 0.273,-0.122 0.273,-0.273l0 0c0,-0.15 -0.123,-0.273 -0.273,-0.273l-0.738 0 0 -0.738c0,-0.15 -0.123,-0.273 -0.273,-0.273l0 0c-0.151,0 -0.273,0.123 -0.273,0.273l0 0.738 -0.739 0c-0.15,0 -0.273,0.123 -0.273,0.273l0 0c0,0.151 0.123,0.273 0.273,0.273l0.739 0 0 0.739c0,0.15 0.122,0.273 0.273,0.273z"/>
   <path class="fil1" d="M32.076 15.954c0.528,0 0.957,0.429 0.957,0.957 0,0.529 -0.429,0.958 -0.957,0.958 -0.529,0 -0.958,-0.429 -0.958,-0.958 0,-0.528 0.429,-0.957 0.958,-0.957z"/>
   <polygon class="fil1" points="31.573,4.098 32.858,2.183 34.142,4.098 "/>
   <path class="fil2" d="M7.309 4.492c0.373,0 0.711,-0.151 0.956,-0.396 0.244,-0.244 0.396,-0.582 0.396,-0.955 0,-0.374 -0.152,-0.712 -0.396,-0.956 -0.245,-0.245 -0.583,-0.396 -0.956,-0.396 -0.373,0 -0.711,0.151 -0.956,0.396 -0.244,0.244 -0.396,0.582 -0.396,0.956 0,0.373 0.152,0.711 0.396,0.955 0.245,0.245 0.583,0.396 0.956,0.396zm0.763 -0.589c-0.195,0.195 -0.465,0.316 -0.763,0.316 -0.298,0 -0.568,-0.121 -0.763,-0.316 -0.195,-0.195 -0.316,-0.464 -0.316,-0.762 0,-0.298 0.121,-0.568 0.316,-0.763 0.195,-0.195 0.465,-0.316 0.763,-0.316 0.298,0 0.568,0.121 0.763,0.316 0.195,0.195 0.316,0.465 0.316,0.763 0,0.297 -0.121,0.567 -0.316,0.762z"/>
   <path class="fil1" d="M15.796 17.869c-3.16,0 -6.722,-2.215 -6.383,-7.835 0.339,-5.62 4.386,-7.926 10.664,-7.876 6.278,0.049 9.461,3.371 9.461,6.379 0,3.008 -2.963,3.078 -6.832,4.623 -3.868,1.544 -3.75,4.709 -6.91,4.709z"/>
   <path class="fil3" d="M13.121 5.099l13.232 0c0.26,0 0.473,0.212 0.473,0.472l0 8.034c0,0.26 -0.213,0.472 -0.473,0.472l-13.232 0c-0.26,0 -0.472,-0.212 -0.472,-0.472l0 -8.034c0,-0.26 0.212,-0.472 0.472,-0.472z"/>
   <path class="fil4" d="M13.121 4.962l13.232 0c0.168,0 0.32,0.069 0.43,0.179 0.111,0.11 0.179,0.263 0.179,0.43l0 8.034c0,0.167 -0.068,0.319 -0.179,0.43 -0.11,0.11 -0.262,0.179 -0.43,0.179l-13.232 0c-0.167,0 -0.32,-0.069 -0.43,-0.179 -0.11,-0.11 -0.179,-0.263 -0.179,-0.43l0 -8.034c0,-0.167 0.069,-0.319 0.179,-0.43 0.11,-0.11 0.263,-0.179 0.43,-0.179zm13.232 0.273l-13.232 0c-0.092,0 -0.176,0.038 -0.237,0.099 -0.061,0.061 -0.099,0.145 -0.099,0.237l0 8.034c0,0.092 0.038,0.176 0.099,0.237 0.061,0.061 0.145,0.099 0.237,0.099l13.232 0c0.092,0 0.177,-0.038 0.237,-0.099 0.061,-0.06 0.099,-0.145 0.099,-0.237l0 -8.034c0,-0.092 -0.038,-0.176 -0.099,-0.237 -0.06,-0.061 -0.145,-0.099 -0.237,-0.099z"/>
   <path class="fil3" d="M11.833 15.474l15.809 0c0.26,0 0.473,-0.213 0.473,-0.473l0 -0.451c0,-0.26 -0.213,-0.473 -0.473,-0.473l-15.809 0c-0.26,0 -0.473,0.213 -0.473,0.473l0 0.451c0,0.26 0.213,0.473 0.473,0.473z"/>
   <path class="fil4" d="M11.833 15.337l15.809 0c0.092,0 0.176,-0.038 0.237,-0.099 0.061,-0.06 0.099,-0.144 0.099,-0.237l0 -0.451c0,-0.093 -0.038,-0.177 -0.098,-0.237 -0.062,-0.061 -0.146,-0.099 -0.238,-0.099l-15.809 0c-0.093,0 -0.177,0.038 -0.238,0.099 -0.061,0.06 -0.099,0.144 -0.099,0.237l0 0.451c0,0.093 0.038,0.177 0.099,0.237 0.061,0.061 0.145,0.099 0.238,0.099zm15.809 0.273l-15.809 0c-0.168,0 -0.32,-0.068 -0.431,-0.179 -0.11,-0.11 -0.179,-0.263 -0.179,-0.43l0 -0.451c0,-0.167 0.069,-0.32 0.18,-0.43 0.11,-0.111 0.262,-0.179 0.43,-0.179l15.809 0c0.168,0 0.32,0.068 0.43,0.179 0.11,0.11 0.179,0.263 0.179,0.43l0 0.451c0,0.167 -0.069,0.32 -0.179,0.43 -0.11,0.111 -0.262,0.179 -0.43,0.179z"/>
   <path class="fil5" d="M19.186 14.911c-0.075,0 -0.136,-0.061 -0.136,-0.137 0,-0.075 0.061,-0.136 0.136,-0.136l1.102 0c0.075,0 0.136,0.061 0.136,0.136 0,0.076 -0.061,0.137 -0.136,0.137l-1.102 0z"/>
   <path class="fil6" d="M23.285 9.793c0.201,0.066 0.384,0.173 0.538,0.311l0.663 -0.2c0.133,0.166 0.242,0.353 0.321,0.555l-0.505 0.474c0.021,0.1 0.032,0.204 0.032,0.311 0,0.106 -0.011,0.21 -0.032,0.311l0.505 0.473c-0.079,0.202 -0.188,0.389 -0.321,0.556l-0.663 -0.201c-0.154,0.138 -0.337,0.245 -0.538,0.311l-0.158 0.674c-0.104,0.016 -0.211,0.024 -0.32,0.024 -0.11,0 -0.217,-0.008 -0.321,-0.024l-0.158 -0.674c-0.201,-0.066 -0.384,-0.173 -0.538,-0.311l-0.663 0.201c-0.133,-0.167 -0.242,-0.354 -0.321,-0.556l0.505 -0.473c-0.021,-0.101 -0.032,-0.205 -0.032,-0.311 0,-0.107 0.011,-0.211 0.032,-0.311l-0.505 -0.474c0.079,-0.202 0.188,-0.389 0.321,-0.555l0.663 0.2c0.154,-0.138 0.337,-0.245 0.538,-0.311l0.158 -0.674c0.104,-0.015 0.211,-0.024 0.321,-0.024 0.109,0 0.216,0.009 0.32,0.024l0.158 0.674zm-0.478 0.774c0.374,0 0.677,0.303 0.677,0.677 0,0.374 -0.303,0.677 -0.677,0.677 -0.374,0 -0.678,-0.303 -0.678,-0.677 0,-0.374 0.304,-0.677 0.678,-0.677z"/>
   <path class="fil4" d="M23.401 9.689c0.082,0.032 0.161,0.07 0.237,0.114 0.077,0.044 0.149,0.094 0.217,0.149l0.591 -0.179c0.06,-0.018 0.123,0.007 0.155,0.057 0.068,0.087 0.13,0.177 0.184,0.271 0.057,0.099 0.107,0.202 0.149,0.308 0.021,0.056 0.005,0.117 -0.038,0.153l-0.447 0.42c0.005,0.03 0.009,0.061 0.012,0.092 0.006,0.059 0.009,0.115 0.009,0.17 0,0.054 -0.003,0.111 -0.009,0.169 -0.003,0.031 -0.007,0.062 -0.012,0.093l0.451 0.423c0.042,0.039 0.053,0.099 0.034,0.149 -0.042,0.106 -0.092,0.209 -0.149,0.308 -0.057,0.099 -0.122,0.194 -0.193,0.283 -0.035,0.044 -0.094,0.061 -0.146,0.045l-0.592 -0.179c-0.068,0.056 -0.14,0.106 -0.216,0.15 -0.076,0.044 -0.155,0.082 -0.237,0.113l-0.141 0.601c-0.013,0.056 -0.059,0.096 -0.113,0.104 -0.056,0.008 -0.113,0.015 -0.17,0.019 -0.058,0.004 -0.115,0.007 -0.17,0.007 -0.057,0 -0.115,-0.003 -0.173,-0.007 -0.056,-0.004 -0.112,-0.011 -0.168,-0.019 -0.058,-0.008 -0.102,-0.053 -0.114,-0.107l-0.14 -0.598c-0.082,-0.031 -0.161,-0.069 -0.237,-0.113 -0.076,-0.044 -0.148,-0.094 -0.216,-0.15l-0.592 0.179c-0.06,0.018 -0.123,-0.006 -0.155,-0.057 -0.068,-0.086 -0.13,-0.177 -0.184,-0.271 -0.057,-0.098 -0.107,-0.202 -0.149,-0.308 -0.022,-0.055 -0.005,-0.116 0.038,-0.153l0.447 -0.419c-0.005,-0.03 -0.009,-0.061 -0.012,-0.092 -0.006,-0.058 -0.009,-0.115 -0.009,-0.17 0,-0.055 0.003,-0.112 0.009,-0.17 0.003,-0.032 0.007,-0.062 0.012,-0.092l-0.451 -0.424c-0.042,-0.039 -0.053,-0.098 -0.034,-0.149 0.042,-0.106 0.092,-0.209 0.149,-0.308 0.057,-0.099 0.122,-0.194 0.193,-0.282 0.036,-0.045 0.094,-0.061 0.146,-0.045l0.591 0.178c0.068,-0.055 0.141,-0.105 0.217,-0.149 0.076,-0.044 0.155,-0.082 0.237,-0.114l0.141 -0.601c0.013,-0.056 0.059,-0.096 0.113,-0.104 0.056,-0.008 0.113,-0.014 0.17,-0.019l0.003 0c0.057,-0.004 0.113,-0.006 0.168,-0.006 0.055,0 0.112,0.002 0.17,0.006 0.058,0.005 0.115,0.011 0.17,0.019 0.059,0.009 0.103,0.054 0.114,0.11l0.14 0.595zm0.101 0.349c-0.081,-0.046 -0.168,-0.085 -0.259,-0.116 -0.044,-0.014 -0.079,-0.05 -0.09,-0.098l-0.137 -0.581 -0.059 -0.006c-0.048,-0.003 -0.098,-0.005 -0.15,-0.005 -0.052,0 -0.101,0.002 -0.148,0.005l-0.062 0.006 -0.135 0.576c-0.009,0.047 -0.043,0.087 -0.091,0.103 -0.092,0.031 -0.179,0.07 -0.259,0.116 -0.081,0.047 -0.157,0.102 -0.227,0.164 -0.034,0.033 -0.085,0.048 -0.134,0.033l-0.573 -0.173c-0.041,0.056 -0.079,0.115 -0.114,0.175 -0.035,0.06 -0.067,0.123 -0.096,0.188l0.436 0.409c0.034,0.031 0.05,0.079 0.04,0.127 -0.009,0.045 -0.017,0.092 -0.021,0.14 -0.005,0.044 -0.007,0.092 -0.007,0.143 0,0.05 0.002,0.098 0.007,0.143 0.004,0.046 0.011,0.091 0.021,0.136 0.01,0.046 -0.003,0.096 -0.04,0.131l-0.436 0.409c0.029,0.064 0.061,0.127 0.096,0.187 0.035,0.061 0.073,0.12 0.114,0.176l0.573 -0.173c0.044,-0.013 0.093,-0.004 0.13,0.029 0.07,0.063 0.147,0.119 0.231,0.167 0.08,0.047 0.167,0.086 0.259,0.116 0.043,0.014 0.079,0.051 0.09,0.098l0.136 0.582 0.058 0.005c0.048,0.004 0.099,0.006 0.152,0.006 0.051,0 0.101,-0.002 0.149,-0.006l0.06 -0.005 0.135 -0.577c0.01,-0.047 0.043,-0.087 0.092,-0.103 0.091,-0.03 0.178,-0.069 0.259,-0.116 0.079,-0.046 0.154,-0.099 0.221,-0.159 0.035,-0.037 0.088,-0.053 0.139,-0.037l0.573 0.173c0.041,-0.057 0.08,-0.116 0.115,-0.176 0.034,-0.06 0.066,-0.123 0.095,-0.187l-0.436 -0.409c-0.033,-0.032 -0.05,-0.079 -0.04,-0.127 0.009,-0.045 0.017,-0.092 0.021,-0.141 0.005,-0.044 0.007,-0.091 0.007,-0.142 0,-0.051 -0.002,-0.099 -0.007,-0.143 -0.004,-0.046 -0.011,-0.091 -0.02,-0.134 -0.011,-0.047 0.002,-0.098 0.039,-0.133l0.436 -0.409c-0.029,-0.065 -0.061,-0.127 -0.096,-0.188 -0.035,-0.061 -0.073,-0.119 -0.114,-0.175l-0.572 0.173c-0.044,0.013 -0.094,0.004 -0.131,-0.029 -0.071,-0.064 -0.148,-0.12 -0.23,-0.168zm-0.695 0.392c0.224,0 0.427,0.091 0.575,0.239 0.147,0.147 0.238,0.35 0.238,0.575 0,0.224 -0.091,0.428 -0.239,0.575 -0.147,0.147 -0.35,0.238 -0.574,0.238 -0.225,0 -0.429,-0.091 -0.576,-0.238 -0.147,-0.147 -0.238,-0.351 -0.238,-0.575 0,-0.224 0.091,-0.428 0.238,-0.575 0.148,-0.148 0.351,-0.239 0.576,-0.239zm0.382 0.431c-0.097,-0.098 -0.233,-0.158 -0.382,-0.158 -0.15,0 -0.285,0.06 -0.383,0.158 -0.097,0.098 -0.158,0.233 -0.158,0.383 0,0.149 0.061,0.284 0.158,0.382 0.098,0.098 0.233,0.158 0.383,0.158 0.149,0 0.285,-0.06 0.383,-0.158 0.097,-0.097 0.157,-0.233 0.157,-0.382 0,-0.149 -0.06,-0.285 -0.158,-0.383z"/>
   <path class="fil6" d="M18.358 6.66c0.172,0.049 0.337,0.118 0.49,0.204l0.816 -0.399c0.17,0.137 0.324,0.291 0.461,0.461l-0.399 0.816c0.086,0.153 0.155,0.317 0.204,0.49l0.859 0.296c0.011,0.107 0.017,0.215 0.017,0.325 0,0.11 -0.006,0.219 -0.017,0.326l-0.859 0.295c-0.049,0.173 -0.118,0.337 -0.204,0.491l0.399 0.816c-0.137,0.169 -0.291,0.324 -0.461,0.461l-0.816 -0.399c-0.153,0.086 -0.318,0.155 -0.49,0.204l-0.296 0.858c-0.107,0.012 -0.215,0.018 -0.325,0.018 -0.11,0 -0.219,-0.006 -0.326,-0.018l-0.295 -0.858c-0.173,-0.049 -0.337,-0.118 -0.491,-0.204l-0.816 0.399c-0.169,-0.137 -0.324,-0.292 -0.461,-0.461l0.399 -0.816c-0.086,-0.154 -0.155,-0.318 -0.204,-0.491l-0.858 -0.295c-0.012,-0.107 -0.018,-0.216 -0.018,-0.326 0,-0.11 0.006,-0.218 0.018,-0.325l0.858 -0.296c0.049,-0.172 0.118,-0.337 0.204,-0.49l-0.399 -0.816c0.137,-0.17 0.292,-0.324 0.461,-0.461l0.816 0.399c0.154,-0.086 0.318,-0.155 0.491,-0.204l0.295 -0.859c0.107,-0.011 0.216,-0.017 0.326,-0.017 0.11,0 0.218,0.006 0.325,0.017l0.296 0.859zm-0.621 1.04c0.637,0 1.153,0.516 1.153,1.153 0,0.637 -0.516,1.154 -1.153,1.154 -0.637,0 -1.154,-0.517 -1.154,-1.154 0,-0.637 0.517,-1.153 1.154,-1.153z"/>
   <path class="fil5" d="M18.464 6.55c0.066,0.021 0.132,0.045 0.196,0.071 0.065,0.027 0.128,0.057 0.191,0.089l0.754 -0.368c0.052,-0.025 0.112,-0.014 0.152,0.022 0.085,0.07 0.168,0.144 0.246,0.223 0.079,0.078 0.155,0.163 0.228,0.253 0.034,0.043 0.039,0.099 0.016,0.145l-0.367 0.754c0.032,0.062 0.062,0.125 0.089,0.19 0.026,0.064 0.05,0.13 0.071,0.197l0.793 0.273c0.055,0.018 0.09,0.068 0.092,0.123 0.006,0.053 0.01,0.107 0.013,0.16 0.003,0.061 0.005,0.118 0.005,0.171 0,0.053 -0.002,0.11 -0.005,0.171 -0.003,0.057 -0.008,0.113 -0.014,0.169 -0.005,0.054 -0.042,0.098 -0.091,0.115l-0.793 0.272c-0.021,0.068 -0.045,0.133 -0.071,0.197 -0.027,0.065 -0.057,0.129 -0.089,0.191l0.368 0.753c0.025,0.052 0.014,0.112 -0.022,0.152 -0.072,0.088 -0.146,0.17 -0.223,0.247 -0.078,0.079 -0.163,0.155 -0.253,0.228 -0.043,0.034 -0.099,0.038 -0.145,0.016l-0.754 -0.368c-0.062,0.032 -0.125,0.062 -0.19,0.089 -0.064,0.027 -0.13,0.051 -0.197,0.072l-0.273 0.793c-0.018,0.054 -0.068,0.089 -0.123,0.092 -0.053,0.005 -0.108,0.009 -0.162,0.012 -0.06,0.003 -0.117,0.005 -0.169,0.005 -0.052,0 -0.109,-0.002 -0.17,-0.005 -0.057,-0.003 -0.114,-0.007 -0.17,-0.013 -0.054,-0.006 -0.098,-0.043 -0.115,-0.091l-0.272 -0.793c-0.067,-0.021 -0.133,-0.045 -0.197,-0.072 -0.065,-0.027 -0.129,-0.057 -0.191,-0.089l-0.753 0.368c-0.052,0.025 -0.112,0.015 -0.152,-0.022 -0.086,-0.069 -0.168,-0.144 -0.246,-0.222 -0.081,-0.08 -0.157,-0.165 -0.229,-0.253 -0.035,-0.044 -0.039,-0.104 -0.014,-0.151l0.366 -0.748c-0.032,-0.062 -0.062,-0.126 -0.089,-0.191 -0.027,-0.064 -0.051,-0.13 -0.072,-0.197l-0.793 -0.272c-0.054,-0.019 -0.089,-0.069 -0.092,-0.123 -0.005,-0.053 -0.009,-0.107 -0.012,-0.161 -0.003,-0.061 -0.005,-0.118 -0.005,-0.171 0,-0.053 0.002,-0.11 0.005,-0.171 0.003,-0.056 0.007,-0.113 0.013,-0.168 0.006,-0.055 0.043,-0.098 0.091,-0.115l0.793 -0.273c0.021,-0.067 0.045,-0.132 0.072,-0.196 0.026,-0.065 0.056,-0.128 0.089,-0.191l-0.368 -0.754c-0.026,-0.051 -0.015,-0.112 0.022,-0.152 0.069,-0.085 0.144,-0.168 0.222,-0.246 0.08,-0.081 0.165,-0.157 0.253,-0.228 0.044,-0.036 0.104,-0.04 0.151,-0.014l0.748 0.365c0.063,-0.032 0.127,-0.062 0.191,-0.089l0.007 -0.002c0.062,-0.026 0.126,-0.049 0.19,-0.069l0.272 -0.793c0.019,-0.055 0.069,-0.09 0.123,-0.092 0.053,-0.006 0.107,-0.01 0.161,-0.013 0.061,-0.003 0.118,-0.005 0.171,-0.005 0.052,0 0.109,0.002 0.169,0.005 0.057,0.003 0.114,0.008 0.17,0.014 0.055,0.005 0.098,0.042 0.115,0.091l0.273 0.793zm0.092 0.323c-0.074,-0.031 -0.151,-0.058 -0.23,-0.08 -0.044,-0.011 -0.082,-0.043 -0.097,-0.089l-0.267 -0.775 -0.07 -0.005c-0.047,-0.002 -0.099,-0.004 -0.155,-0.004 -0.057,0 -0.11,0.002 -0.157,0.004l-0.068 0.005 -0.267 0.775c-0.014,0.041 -0.048,0.075 -0.092,0.087 -0.079,0.022 -0.156,0.049 -0.229,0.079l-0.007 0.003c-0.075,0.031 -0.148,0.066 -0.217,0.105 -0.039,0.025 -0.09,0.03 -0.135,0.008l-0.736 -0.36c-0.058,0.049 -0.113,0.101 -0.166,0.154 -0.054,0.053 -0.105,0.108 -0.154,0.165l0.361 0.737c0.018,0.039 0.018,0.086 -0.004,0.126 -0.04,0.072 -0.077,0.147 -0.11,0.226 -0.031,0.075 -0.057,0.152 -0.08,0.23 -0.01,0.044 -0.042,0.082 -0.088,0.097l-0.776 0.267 -0.004 0.068c-0.003,0.048 -0.004,0.1 -0.004,0.157 0,0.057 0.001,0.11 0.004,0.157l0.004 0.069 0.776 0.266c0.041,0.014 0.074,0.048 0.087,0.092 0.022,0.081 0.05,0.159 0.081,0.236 0.032,0.076 0.068,0.15 0.108,0.221 0.023,0.039 0.027,0.087 0.006,0.13l-0.36 0.737c0.049,0.058 0.1,0.113 0.153,0.166 0.053,0.054 0.108,0.105 0.165,0.153l0.737 -0.36c0.039,-0.018 0.086,-0.019 0.127,0.004 0.072,0.041 0.148,0.077 0.225,0.109 0.075,0.032 0.152,0.059 0.23,0.081 0.044,0.01 0.082,0.042 0.098,0.088l0.267 0.776 0.069 0.004c0.047,0.003 0.099,0.004 0.156,0.004 0.057,0 0.108,-0.001 0.155,-0.004l0.07 -0.004 0.267 -0.776c0.014,-0.041 0.047,-0.074 0.092,-0.087 0.08,-0.022 0.159,-0.05 0.235,-0.081 0.076,-0.032 0.15,-0.068 0.222,-0.108 0.038,-0.023 0.087,-0.027 0.13,-0.006l0.737 0.36c0.056,-0.048 0.111,-0.099 0.165,-0.153 0.054,-0.054 0.106,-0.109 0.154,-0.165l-0.36 -0.738c-0.019,-0.038 -0.019,-0.085 0.003,-0.126 0.041,-0.073 0.078,-0.148 0.11,-0.225 0.031,-0.075 0.058,-0.152 0.08,-0.23 0.011,-0.044 0.043,-0.082 0.089,-0.098l0.775 -0.266 0.005 -0.069c0.002,-0.047 0.004,-0.1 0.004,-0.157 0,-0.057 -0.002,-0.109 -0.004,-0.157l-0.005 -0.068 -0.775 -0.267c-0.041,-0.014 -0.075,-0.047 -0.087,-0.092 -0.023,-0.08 -0.05,-0.159 -0.082,-0.235 -0.032,-0.076 -0.068,-0.15 -0.107,-0.222 -0.023,-0.038 -0.027,-0.087 -0.006,-0.13l0.36 -0.737c-0.048,-0.056 -0.1,-0.112 -0.154,-0.166 -0.052,-0.053 -0.108,-0.104 -0.165,-0.153l-0.737 0.36c-0.039,0.018 -0.086,0.019 -0.126,-0.004 -0.072,-0.04 -0.147,-0.076 -0.226,-0.109zm-0.819 0.69c0.355,0 0.678,0.145 0.911,0.378 0.234,0.233 0.379,0.556 0.379,0.912 0,0.356 -0.145,0.679 -0.378,0.912l-0.008 0.008c-0.233,0.229 -0.553,0.37 -0.904,0.37 -0.356,0 -0.678,-0.144 -0.912,-0.378 -0.234,-0.233 -0.378,-0.556 -0.378,-0.912 0,-0.356 0.144,-0.679 0.378,-0.912 0.233,-0.233 0.556,-0.378 0.912,-0.378zm0.719 0.571c-0.184,-0.184 -0.438,-0.298 -0.719,-0.298 -0.281,0 -0.535,0.114 -0.719,0.298 -0.184,0.184 -0.298,0.438 -0.298,0.719 0,0.281 0.114,0.535 0.298,0.719 0.183,0.184 0.437,0.298 0.719,0.298 0.278,0 0.529,-0.111 0.712,-0.291l0.007 -0.007c0.184,-0.184 0.298,-0.438 0.298,-0.719 0,-0.281 -0.114,-0.535 -0.298,-0.719z"/>
  </g>
 </g>
</svg>
