<?xml version="1.0" encoding="UTF-8"?>
<!DOCTYPE svg PUBLIC "-//W3C//DTD SVG 1.1//EN" "http://www.w3.org/Graphics/SVG/1.1/DTD/svg11.dtd">
<!-- Creator: CorelDRAW 2019 (64-Bit) -->
<svg xmlns="http://www.w3.org/2000/svg" xml:space="preserve" width="90px" height="64px" version="1.1" style="shape-rendering:geometricPrecision; text-rendering:geometricPrecision; image-rendering:optimizeQuality; fill-rule:evenodd; clip-rule:evenodd"
viewBox="0 0 13.871 9.864"
 xmlns:xlink="http://www.w3.org/1999/xlink">
 <defs>
  <style type="text/css">
   <![CDATA[
    .fil0 {fill:none}
    .fil2 {fill:#00F4FF}
    .fil3 {fill:#DCE1E6}
    .fil1 {fill:gray;fill-rule:nonzero}
   ]]>
  </style>
 </defs>
 <g id="Layer_x0020_1">
  <metadata id="CorelCorpID_0Corel-Layer"/>
  <g id="_1466661488512">
   <rect class="fil0" width="13.871" height="9.864"/>
   <g>
    <path class="fil1" d="M3.088 8.477c0,0.043 -0.034,0.077 -0.077,0.077 -0.042,0 -0.077,-0.034 -0.077,-0.077l0 -4.659c0,-0.042 0.034,-0.076 0.076,-0.077l3.954 -0.394c0.042,-0.004 0.08,0.027 0.084,0.069 0.004,0.042 -0.027,0.08 -0.069,0.084l-3.891 0.388 0 4.589z"/>
    <path class="fil2" d="M3.768 7.905l2.446 -0.02 0 0.592 -2.446 0 0 -0.572zm0 -3.337l2.446 -0.14 0 0.592 -2.446 0.119 0 -0.571zm0 1.112l2.446 -0.1 0 0.592 -2.446 0.08 0 -0.572zm0 1.113l2.446 -0.061 0 0.593 -2.446 0.039 0 -0.571z"/>
    <path class="fil1" d="M3.774 7.829l2.44 -0.021c0.042,0 0.077,0.034 0.077,0.076l0.001 0.593c0,0.043 -0.035,0.077 -0.078,0.077l-2.446 0c-0.042,0 -0.077,-0.034 -0.077,-0.077l0 -0.572c0,-0.042 0.035,-0.077 0.077,-0.077l0.006 0.001zm2.363 0.133l-2.292 0.019 0 0.419 2.292 0 0 -0.438zm-2.368 -3.471l2.441 -0.14c0.043,-0.002 0.079,0.03 0.081,0.072l0.001 0.597c0,0.042 -0.035,0.077 -0.078,0.077l-2.442 0.119c-0.043,0.002 -0.079,-0.031 -0.081,-0.073l0 -0.575c0,-0.043 0.035,-0.077 0.077,-0.077l0.001 0zm2.368 0.018l-2.292 0.131 0 0.419 2.292 -0.112 0 -0.438zm-2.366 1.094l2.44 -0.1c0.043,-0.001 0.079,0.032 0.08,0.074l0.001 0.595c0,0.043 -0.035,0.077 -0.078,0.077l-2.443 0.08c-0.043,0.001 -0.078,-0.032 -0.08,-0.075l0 -0.574c0,-0.042 0.035,-0.077 0.077,-0.077l0.003 0zm2.366 0.057l-2.292 0.094 0 0.419 2.292 -0.075 0 -0.438zm-2.364 1.056l2.44 -0.06c0.042,-0.001 0.077,0.032 0.078,0.075l0.001 0.594c0,0.042 -0.035,0.077 -0.078,0.077l-2.445 0.039c-0.042,0.001 -0.077,-0.033 -0.078,-0.075l0 -0.573c0,-0.043 0.035,-0.077 0.077,-0.077l0.005 0zm2.364 0.095l-2.292 0.057 0 0.418 2.292 -0.037 0 -0.438z"/>
    <polygon class="fil3" points="6.971,3.424 8.639,4.022 8.639,8.477 6.971,8.477 "/>
    <path class="fil1" d="M7.004 3.354l1.661 0.596c0.031,0.011 0.05,0.041 0.05,0.072l0.001 4.455c0,0.043 -0.035,0.077 -0.077,0.077l-1.668 0c-0.042,0 -0.077,-0.034 -0.077,-0.077l0 -5.053c0,-0.043 0.035,-0.077 0.077,-0.077 0.012,0 0.023,0.002 0.033,0.007zm1.558 0.722l-1.514 -0.543 0 4.867 1.514 0 0 -4.324z"/>
    <path class="fil1" d="M6.443 3.484c0,0.043 -0.034,0.077 -0.077,0.077 -0.043,0 -0.077,-0.034 -0.077,-0.077l0 -1.782c0,-0.042 0.034,-0.076 0.075,-0.077l3.157 -0.314c0.042,-0.004 0.08,0.026 0.084,0.069 0.004,0.042 -0.027,0.079 -0.069,0.084l-3.093 0.308 0 1.712z"/>
    <polygon class="fil3" points="9.529,1.387 10.86,1.865 10.86,8.477 9.529,8.477 "/>
    <path class="fil1" d="M9.562 1.318l1.324 0.475c0.031,0.011 0.051,0.041 0.051,0.072l0 6.612c0,0.043 -0.034,0.077 -0.077,0.077l-1.331 0c-0.043,0 -0.078,-0.034 -0.078,-0.077l0 -7.09c0,-0.042 0.035,-0.077 0.078,-0.077 0.011,0 0.023,0.003 0.033,0.008zm1.221 0.601l-1.177 -0.423 0 6.904 1.177 0 0 -6.481z"/>
   </g>
  </g>
 </g>
</svg>
