<?xml version="1.0" encoding="UTF-8"?>
<!DOCTYPE svg PUBLIC "-//W3C//DTD SVG 1.1//EN" "http://www.w3.org/Graphics/SVG/1.1/DTD/svg11.dtd">
<!-- Creator: CorelDRAW 2019 (64-Bit) -->
<svg xmlns="http://www.w3.org/2000/svg" xml:space="preserve" width="90px" height="64px" version="1.1" style="shape-rendering:geometricPrecision; text-rendering:geometricPrecision; image-rendering:optimizeQuality; fill-rule:evenodd; clip-rule:evenodd"
viewBox="0 0 13.871 9.864"
 xmlns:xlink="http://www.w3.org/1999/xlink">
 <defs>
  <style type="text/css">
   <![CDATA[
    .fil0 {fill:none}
    .fil1 {fill:#00F4FF}
    .fil4 {fill:#264361}
    .fil3 {fill:white}
    .fil2 {fill:gray;fill-rule:nonzero}
   ]]>
  </style>
 </defs>
 <g id="Layer_x0020_1">
  <metadata id="CorelCorpID_0Corel-Layer"/>
  <g id="_1466699682352">
   <rect class="fil0" width="13.871" height="9.864"/>
   <g>
    <polygon class="fil1" points="6.242,3.169 6.242,1 10.092,0.617 10.092,9.248 2.158,9.248 2.158,3.576 "/>
    <path class="fil2" d="M2.235 9.248c0,0.042 -0.034,0.077 -0.077,0.077 -0.042,0 -0.077,-0.035 -0.077,-0.077l0 -5.672c0,-0.042 0.034,-0.076 0.076,-0.077l4.815 -0.48c0.042,-0.004 0.079,0.027 0.084,0.069 0.004,0.042 -0.027,0.08 -0.069,0.084l-4.752 0.474 0 5.602z"/>
    <path class="fil3" d="M3.08 8.552l2.978 -0.025 0 0.721 -2.978 0 0 -0.696zm0 -4.063l2.978 -0.171 0 0.721 -2.978 0.145 0 -0.695zm0 1.354l2.978 -0.122 0 0.721 -2.978 0.097 0 -0.696zm0 1.354l2.978 -0.073 0 0.721 -2.978 0.048 0 -0.696z"/>
    <path class="fil2" d="M3.086 8.475l2.971 -0.025c0.042,0 0.077,0.034 0.077,0.076l0.001 0.722c0,0.042 -0.035,0.077 -0.077,0.077l-2.978 0c-0.043,0 -0.077,-0.035 -0.077,-0.077l0 -0.696c0,-0.043 0.034,-0.077 0.077,-0.077l0.006 0zm2.895 0.129l-2.824 0.024 0 0.542 2.824 0 0 -0.566zm-2.9 -4.193l2.972 -0.17c0.043,-0.002 0.079,0.03 0.081,0.073l0.001 0.725c0,0.042 -0.035,0.077 -0.077,0.077l-2.975 0.145c-0.042,0.002 -0.078,-0.031 -0.08,-0.073l0 -0.699c0,-0.043 0.034,-0.078 0.077,-0.078l0.001 0zm2.9 -0.012l-2.824 0.162 0 0.543 2.824 -0.138 0 -0.567zm-2.898 1.367l2.972 -0.122c0.042,-0.002 0.078,0.031 0.079,0.074l0.001 0.724c0,0.042 -0.035,0.077 -0.077,0.077l-2.976 0.097c-0.042,0.001 -0.078,-0.032 -0.079,-0.075l0 -0.698c0,-0.043 0.034,-0.077 0.077,-0.077l0.003 0zm2.898 0.035l-2.824 0.116 0 0.542 2.824 -0.092 0 -0.566zm-2.897 1.319l2.972 -0.073c0.042,-0.001 0.077,0.033 0.078,0.075l0.001 0.723c0,0.042 -0.035,0.077 -0.077,0.077l-2.977 0.048c-0.043,0.001 -0.078,-0.033 -0.078,-0.076l0 -0.697c0,-0.042 0.034,-0.077 0.077,-0.077l0.004 0zm2.897 0.083l-2.824 0.069 0 0.543 2.824 -0.046 0 -0.566z"/>
    <polygon class="fil4" points="6.979,3.096 9.009,3.824 9.009,9.248 6.979,9.248 "/>
    <path class="fil2" d="M7.012 3.026l2.023 0.726c0.031,0.011 0.051,0.041 0.051,0.072l0 5.424c0,0.042 -0.034,0.077 -0.077,0.077l-2.03 0c-0.042,0 -0.077,-0.035 -0.077,-0.077l0 -6.152c0,-0.043 0.035,-0.077 0.077,-0.077 0.012,0 0.023,0.002 0.033,0.007zm1.92 0.852l-1.876 -0.673 0 5.965 1.876 0 0 -5.292z"/>
    <path class="fil2" d="M6.319 3.169c0,0.043 -0.034,0.077 -0.077,0.077 -0.042,0 -0.077,-0.034 -0.077,-0.077l0 -2.169c0,-0.042 0.034,-0.076 0.076,-0.077l3.844 -0.383c0.042,-0.004 0.08,0.027 0.084,0.069 0.004,0.042 -0.027,0.08 -0.069,0.084l-3.781 0.377 0 2.099z"/>
    <polygon class="fil4" points="10.092,0.617 11.713,1.198 11.713,9.248 10.092,9.248 "/>
    <path class="fil2" d="M10.125 0.547l1.614 0.579c0.031,0.011 0.051,0.041 0.051,0.072l0 8.05c0,0.042 -0.034,0.077 -0.077,0.077l-1.621 0c-0.042,0 -0.077,-0.035 -0.077,-0.077l0 -8.631c0,-0.043 0.035,-0.078 0.077,-0.078 0.012,0 0.023,0.003 0.033,0.008zm1.511 0.705l-1.467 -0.526 0 8.444 1.467 0 0 -7.918z"/>
   </g>
  </g>
 </g>
</svg>
