<?xml version="1.0" encoding="UTF-8"?>
<!DOCTYPE svg PUBLIC "-//W3C//DTD SVG 1.1//EN" "http://www.w3.org/Graphics/SVG/1.1/DTD/svg11.dtd">
<!-- Creator: CorelDRAW 2019 (64-Bit) -->
<svg xmlns="http://www.w3.org/2000/svg" xml:space="preserve" width="90px" height="64px" version="1.1" style="shape-rendering:geometricPrecision; text-rendering:geometricPrecision; image-rendering:optimizeQuality; fill-rule:evenodd; clip-rule:evenodd"
viewBox="0 0 51.098 36.337"
 xmlns:xlink="http://www.w3.org/1999/xlink">
 <defs>
  <style type="text/css">
   <![CDATA[
    .fil0 {fill:none}
    .fil3 {fill:#00F4FF}
    .fil1 {fill:#264361}
    .fil4 {fill:white}
    .fil2 {fill:gray;fill-rule:nonzero}
   ]]>
  </style>
 </defs>
 <g id="Layer_x0020_1">
  <metadata id="CorelCorpID_0Corel-Layer"/>
  <g id="_1431842496464">
   <rect class="fil0" width="51.098" height="36.337"/>
   <g>
    <path class="fil1" d="M20.652 4.345c-7.363,0 -13.33,4.735 -13.33,10.576 0,3.378 1.996,6.386 5.105,8.322l-0.454 5.862 4.087 -4.253c1.432,0.417 2.979,0.644 4.592,0.644 7.362,0 13.329,-4.735 13.329,-10.575 0,-5.841 -5.967,-10.576 -13.329,-10.576z"/>
    <path class="fil2" d="M20.652 4.629c-3.616,0 -6.886,1.16 -9.25,3.035 -2.345,1.861 -3.796,4.427 -3.796,7.257 0,1.603 0.465,3.122 1.294,4.474 0.866,1.411 2.13,2.645 3.677,3.608 0.092,0.057 0.14,0.16 0.133,0.261l-0.393 5.075 3.539 -3.683c0.079,-0.082 0.196,-0.106 0.297,-0.072 0.705,0.205 1.441,0.363 2.201,0.47 0.743,0.104 1.511,0.158 2.298,0.158 3.615,0 6.885,-1.16 9.249,-3.035 2.345,-1.861 3.796,-4.427 3.796,-7.256 0,-2.83 -1.451,-5.396 -3.796,-7.257 -2.364,-1.875 -5.634,-3.035 -9.249,-3.035zm-9.602 2.592c2.46,-1.952 5.856,-3.16 9.602,-3.16 3.746,0 7.141,1.207 9.602,3.16 2.478,1.966 4.011,4.688 4.011,7.7 0,3.011 -1.533,5.733 -4.011,7.7 -2.461,1.952 -5.856,3.159 -9.602,3.159 -0.807,0 -1.601,-0.057 -2.376,-0.165 -0.73,-0.103 -1.442,-0.252 -2.129,-0.444l-3.96 4.12c-0.056,0.065 -0.142,0.104 -0.235,0.097 -0.156,-0.012 -0.273,-0.148 -0.262,-0.304l0.441 -5.692c-1.554,-0.996 -2.829,-2.259 -3.714,-3.702 -0.883,-1.44 -1.379,-3.059 -1.379,-4.769 0,-3.012 1.533,-5.734 4.012,-7.7z"/>
    <path class="fil3" d="M30.446 7.232c7.363,0 13.331,4.735 13.331,10.576 0,3.378 -1.997,6.386 -5.106,8.322l0.454 5.862 -4.087 -4.253c-1.432,0.417 -2.978,0.644 -4.592,0.644 -7.361,0 -13.329,-4.735 -13.329,-10.575 0,-5.841 5.968,-10.576 13.329,-10.576z"/>
    <path class="fil2" d="M30.446 6.948c3.747,0 7.142,1.207 9.603,3.159 2.478,1.967 4.011,4.689 4.011,7.701 0,1.71 -0.495,3.329 -1.379,4.769 -0.885,1.443 -2.16,2.706 -3.714,3.702l0.441 5.692c0.012,0.156 -0.106,0.292 -0.262,0.304 -0.092,0.007 -0.178,-0.032 -0.235,-0.097l-3.959 -4.12c-0.688,0.192 -1.4,0.341 -2.13,0.444 -0.775,0.108 -1.569,0.165 -2.376,0.165 -3.746,0 -7.141,-1.207 -9.601,-3.16 -2.479,-1.966 -4.012,-4.688 -4.012,-7.699 0,-3.012 1.533,-5.734 4.012,-7.701 2.46,-1.952 5.855,-3.159 9.601,-3.159zm9.25 3.603c-2.364,-1.875 -5.634,-3.035 -9.25,-3.035 -3.615,0 -6.885,1.16 -9.249,3.035 -2.345,1.861 -3.796,4.427 -3.796,7.257 0,2.829 1.451,5.395 3.797,7.256 2.363,1.875 5.633,3.035 9.248,3.035 0.787,0 1.555,-0.054 2.298,-0.158 0.76,-0.107 1.496,-0.265 2.202,-0.47 0.101,-0.034 0.217,-0.01 0.296,0.072l3.539 3.683 -0.393 -5.075c-0.007,-0.101 0.041,-0.204 0.134,-0.261 1.546,-0.964 2.81,-2.196 3.676,-3.608 0.829,-1.352 1.295,-2.87 1.295,-4.474 0,-2.83 -1.451,-5.396 -3.797,-7.257z"/>
    <path class="fil4" d="M24.13 16.22c0.898,0 1.625,0.728 1.625,1.626 0,0.898 -0.727,1.625 -1.625,1.625 -0.897,0 -1.625,-0.727 -1.625,-1.625 0,-0.898 0.728,-1.626 1.625,-1.626zm6.317 0c0.898,0 1.625,0.728 1.625,1.626 0,0.898 -0.727,1.625 -1.625,1.625 -0.898,0 -1.625,-0.727 -1.625,-1.625 0,-0.898 0.727,-1.626 1.625,-1.626zm6.316 0c0.898,0 1.626,0.728 1.626,1.626 0,0.898 -0.728,1.625 -1.626,1.625 -0.897,0 -1.625,-0.727 -1.625,-1.625 0,-0.898 0.728,-1.626 1.625,-1.626z"/>
    <path class="fil2" d="M24.13 15.937c0.526,0 1.003,0.213 1.349,0.559 0.347,0.347 0.56,0.824 0.56,1.35 0,0.525 -0.213,1.003 -0.559,1.349 -0.347,0.346 -0.824,0.56 -1.35,0.56 -0.525,0 -1.003,-0.214 -1.349,-0.559 -0.346,-0.347 -0.56,-0.825 -0.56,-1.35 0,-0.526 0.214,-1.003 0.559,-1.349 0.347,-0.347 0.825,-0.56 1.35,-0.56zm0.949 0.96c-0.242,-0.243 -0.578,-0.393 -0.949,-0.393 -0.371,0 -0.707,0.15 -0.948,0.392 -0.243,0.243 -0.393,0.579 -0.393,0.95 0,0.371 0.15,0.707 0.392,0.948 0.242,0.243 0.578,0.393 0.949,0.393 0.371,0 0.707,-0.15 0.949,-0.392 0.243,-0.242 0.393,-0.578 0.393,-0.949 0,-0.371 -0.15,-0.707 -0.393,-0.949zm5.368 -0.96c0.526,0 1.003,0.213 1.349,0.559 0.346,0.347 0.56,0.824 0.56,1.35 0,0.525 -0.214,1.003 -0.559,1.349 -0.347,0.346 -0.824,0.56 -1.35,0.56 -0.526,0 -1.003,-0.214 -1.349,-0.559 -0.347,-0.347 -0.56,-0.825 -0.56,-1.35 0,-0.526 0.213,-1.003 0.559,-1.349 0.347,-0.347 0.824,-0.56 1.35,-0.56zm0.949 0.96c-0.242,-0.243 -0.578,-0.393 -0.949,-0.393 -0.371,0 -0.707,0.15 -0.949,0.392 -0.243,0.243 -0.393,0.579 -0.393,0.95 0,0.371 0.15,0.707 0.392,0.948 0.243,0.243 0.579,0.393 0.95,0.393 0.371,0 0.707,-0.15 0.948,-0.392 0.243,-0.242 0.393,-0.578 0.393,-0.949 0,-0.371 -0.15,-0.707 -0.392,-0.949zm5.367 -0.96c0.526,0 1.003,0.213 1.349,0.559 0.347,0.347 0.561,0.824 0.561,1.35 0,0.525 -0.214,1.003 -0.56,1.349 -0.347,0.346 -0.824,0.56 -1.35,0.56 -0.527,0 -1.004,-0.214 -1.35,-0.559 -0.345,-0.346 -0.559,-0.823 -0.559,-1.35 0,-0.527 0.214,-1.005 0.559,-1.35 0.346,-0.346 0.823,-0.559 1.35,-0.559zm0.949 0.96c-0.242,-0.243 -0.577,-0.393 -0.949,-0.393 -0.37,0 -0.705,0.151 -0.948,0.393 -0.243,0.243 -0.393,0.578 -0.393,0.949 0,0.37 0.15,0.706 0.393,0.948 0.243,0.243 0.578,0.393 0.948,0.393 0.372,0 0.707,-0.15 0.949,-0.392 0.243,-0.242 0.393,-0.578 0.393,-0.949 0,-0.371 -0.15,-0.707 -0.393,-0.949z"/>
   </g>
  </g>
 </g>
</svg>
