<?xml version="1.0" encoding="UTF-8"?>
<!DOCTYPE svg PUBLIC "-//W3C//DTD SVG 1.1//EN" "http://www.w3.org/Graphics/SVG/1.1/DTD/svg11.dtd">
<!-- Creator: CorelDRAW 2019 (64-Bit) -->
<svg xmlns="http://www.w3.org/2000/svg" xml:space="preserve" width="90px" height="64px" version="1.1" style="shape-rendering:geometricPrecision; text-rendering:geometricPrecision; image-rendering:optimizeQuality; fill-rule:evenodd; clip-rule:evenodd"
viewBox="0 0 48.847 34.736"
 xmlns:xlink="http://www.w3.org/1999/xlink">
 <defs>
  <style type="text/css">
   <![CDATA[
    .fil0 {fill:none}
    .fil4 {fill:#00F4FF}
    .fil1 {fill:#DCE1E6}
    .fil3 {fill:white}
    .fil2 {fill:gray;fill-rule:nonzero}
   ]]>
  </style>
 </defs>
 <g id="Layer_x0020_1">
  <metadata id="CorelCorpID_0Corel-Layer"/>
  <g id="_1430380071968">
   <rect class="fil0" width="48.847" height="34.736"/>
   <g>
    <path class="fil1" d="M20.578 6.513c-5.781,0 -10.468,3.718 -10.468,8.305 0,2.652 1.568,5.015 4.009,6.535l-0.356 4.603 3.209 -3.34c1.125,0.327 2.339,0.506 3.606,0.506 5.781,0 10.467,-3.718 10.467,-8.304 0,-4.587 -4.686,-8.305 -10.467,-8.305z"/>
    <path class="fil2" d="M20.578 6.784c-2.828,0 -5.385,0.907 -7.233,2.373 -1.831,1.453 -2.963,3.454 -2.963,5.661 0,1.25 0.363,2.434 1.009,3.488 0.676,1.102 1.663,2.065 2.872,2.817 0.088,0.055 0.134,0.153 0.127,0.25l-0.298 3.85 2.685 -2.795c0.076,-0.078 0.187,-0.101 0.284,-0.068 0.551,0.16 1.126,0.283 1.719,0.367 0.581,0.081 1.182,0.124 1.798,0.124 2.828,0 5.385,-0.907 7.232,-2.373 1.831,-1.453 2.963,-3.454 2.963,-5.66 0,-2.206 -1.132,-4.208 -2.962,-5.661 -1.848,-1.466 -4.405,-2.373 -7.233,-2.373zm-7.57 1.949c1.94,-1.539 4.617,-2.491 7.57,-2.491 2.953,0 5.629,0.952 7.57,2.491 1.957,1.553 3.168,3.705 3.168,6.085 0,2.38 -1.211,4.531 -3.168,6.084 -1.941,1.539 -4.617,2.491 -7.57,2.491 -0.635,0 -1.261,-0.044 -1.872,-0.13 -0.566,-0.079 -1.117,-0.195 -1.651,-0.342l-3.087 3.212c-0.055,0.063 -0.137,0.1 -0.225,0.093 -0.149,-0.011 -0.261,-0.141 -0.25,-0.291l0.344 -4.441c-1.216,-0.783 -2.213,-1.774 -2.908,-2.906 -0.698,-1.139 -1.09,-2.418 -1.09,-3.77 0,-2.381 1.211,-4.532 3.169,-6.085z"/>
    <path class="fil3" d="M28.269 8.78c5.781,0 10.467,3.718 10.467,8.305 0,2.652 -1.567,5.015 -4.009,6.535l0.357 4.603 -3.21 -3.34c-1.124,0.327 -2.338,0.506 -3.605,0.506 -5.781,0 -10.467,-3.718 -10.467,-8.304 0,-4.587 4.686,-8.305 10.467,-8.305z"/>
    <path class="fil2" d="M28.269 8.509c2.953,0 5.63,0.952 7.57,2.491 1.958,1.553 3.169,3.704 3.169,6.085 0,1.352 -0.392,2.631 -1.09,3.77 -0.695,1.132 -1.692,2.123 -2.908,2.906l0.344 4.441c0.011,0.15 -0.101,0.28 -0.25,0.291 -0.089,0.006 -0.171,-0.03 -0.225,-0.093l-3.087 -3.212c-0.534,0.147 -1.085,0.263 -1.651,0.342 -0.611,0.086 -1.237,0.13 -1.872,0.13 -2.953,0 -5.63,-0.952 -7.57,-2.491 -1.957,-1.553 -3.168,-3.704 -3.168,-6.084 0,-2.38 1.211,-4.532 3.168,-6.085 1.94,-1.539 4.617,-2.491 7.57,-2.491zm7.233 2.915c-1.848,-1.466 -4.405,-2.373 -7.233,-2.373 -2.828,0 -5.385,0.907 -7.233,2.373 -1.83,1.453 -2.963,3.455 -2.963,5.661 0,2.206 1.133,4.207 2.963,5.66 1.848,1.466 4.405,2.373 7.233,2.373 0.616,0 1.217,-0.043 1.798,-0.124 0.593,-0.084 1.168,-0.207 1.719,-0.367 0.097,-0.033 0.208,-0.01 0.284,0.068l2.685 2.795 -0.298 -3.85c-0.007,-0.097 0.039,-0.195 0.127,-0.25 1.208,-0.752 2.196,-1.715 2.871,-2.817 0.647,-1.054 1.01,-2.238 1.01,-3.488 0,-2.207 -1.132,-4.208 -2.963,-5.661z"/>
    <path class="fil4" d="M23.309 15.838c0.705,0 1.276,0.572 1.276,1.277 0,0.704 -0.571,1.276 -1.276,1.276 -0.705,0 -1.276,-0.572 -1.276,-1.276 0,-0.705 0.571,-1.277 1.276,-1.277zm4.96 0c0.705,0 1.276,0.572 1.276,1.277 0,0.704 -0.571,1.276 -1.276,1.276 -0.705,0 -1.276,-0.572 -1.276,-1.276 0,-0.705 0.571,-1.277 1.276,-1.277zm4.96 0c0.705,0 1.277,0.572 1.277,1.277 0,0.704 -0.572,1.276 -1.277,1.276 -0.705,0 -1.276,-0.572 -1.276,-1.276 0,-0.705 0.571,-1.277 1.276,-1.277z"/>
    <path class="fil2" d="M23.309 15.567c0.426,0 0.813,0.173 1.093,0.453 0.282,0.282 0.455,0.669 0.455,1.095 0,0.425 -0.173,0.812 -0.454,1.093 -0.281,0.281 -0.668,0.454 -1.094,0.454 -0.426,0 -0.813,-0.173 -1.093,-0.454 -0.281,-0.279 -0.454,-0.666 -0.454,-1.093 0,-0.428 0.173,-0.815 0.453,-1.095 0.281,-0.28 0.668,-0.453 1.094,-0.453zm0.711 0.836c-0.181,-0.181 -0.433,-0.293 -0.711,-0.293 -0.278,0 -0.529,0.112 -0.71,0.293 -0.182,0.182 -0.295,0.434 -0.295,0.712 0,0.277 0.113,0.529 0.295,0.71 0.181,0.182 0.432,0.294 0.71,0.294 0.278,0 0.53,-0.112 0.711,-0.293 0.182,-0.182 0.294,-0.433 0.294,-0.711 0,-0.279 -0.112,-0.53 -0.294,-0.712zm4.249 -0.836c0.428,0 0.814,0.173 1.094,0.453 0.28,0.281 0.454,0.668 0.454,1.095 0,0.426 -0.174,0.813 -0.454,1.093 -0.28,0.281 -0.666,0.454 -1.094,0.454 -0.427,0 -0.814,-0.173 -1.094,-0.453 -0.28,-0.28 -0.453,-0.667 -0.453,-1.094 0,-0.428 0.173,-0.815 0.453,-1.095 0.281,-0.28 0.668,-0.453 1.094,-0.453zm0.711 0.837c-0.182,-0.182 -0.433,-0.294 -0.711,-0.294 -0.278,0 -0.529,0.112 -0.71,0.293 -0.182,0.183 -0.295,0.434 -0.295,0.712 0,0.277 0.113,0.528 0.295,0.71 0.181,0.182 0.433,0.294 0.71,0.294 0.278,0 0.529,-0.112 0.711,-0.294 0.182,-0.181 0.294,-0.432 0.294,-0.71 0,-0.279 -0.112,-0.53 -0.294,-0.711zm4.249 -0.837c0.426,0 0.813,0.173 1.093,0.453 0.282,0.282 0.455,0.669 0.455,1.095 0,0.426 -0.174,0.813 -0.454,1.093 -0.279,0.281 -0.667,0.454 -1.094,0.454 -0.427,0 -0.814,-0.173 -1.094,-0.453 -0.28,-0.281 -0.453,-0.668 -0.453,-1.094 0,-0.427 0.173,-0.814 0.454,-1.094 0.279,-0.281 0.666,-0.454 1.093,-0.454zm0.711 0.836c-0.181,-0.181 -0.432,-0.293 -0.711,-0.293 -0.277,0 -0.529,0.112 -0.71,0.294 -0.182,0.181 -0.295,0.432 -0.295,0.711 0,0.278 0.113,0.529 0.294,0.71 0.182,0.182 0.434,0.294 0.711,0.294 0.278,0 0.529,-0.112 0.711,-0.294 0.182,-0.181 0.294,-0.432 0.294,-0.71 0,-0.279 -0.112,-0.53 -0.294,-0.712z"/>
   </g>
  </g>
 </g>
</svg>
