<?xml version="1.0" encoding="UTF-8"?>
<!DOCTYPE svg PUBLIC "-//W3C//DTD SVG 1.1//EN" "http://www.w3.org/Graphics/SVG/1.1/DTD/svg11.dtd">
<!-- Creator: CorelDRAW 2019 (64-Bit) -->
<svg xmlns="http://www.w3.org/2000/svg" xml:space="preserve" width="90px" height="64px" version="1.1" style="shape-rendering:geometricPrecision; text-rendering:geometricPrecision; image-rendering:optimizeQuality; fill-rule:evenodd; clip-rule:evenodd"
viewBox="0 0 98.01 69.696"
 xmlns:xlink="http://www.w3.org/1999/xlink">
 <defs>
  <style type="text/css">
   <![CDATA[
    .fil0 {fill:none}
    .fil2 {fill:#00F4FF}
    .fil1 {fill:gray;fill-rule:nonzero}
   ]]>
  </style>
 </defs>
 <g id="Layer_x0020_1">
  <metadata id="CorelCorpID_0Corel-Layer"/>
  <g id="_1430382833040">
   <rect class="fil0" width="98.01" height="69.696"/>
   <g>
    <path class="fil1" d="M49.307 9.349l21.662 12.506c0.174,0.1 0.271,0.282 0.271,0.47l0.001 25.046c0,0.215 -0.125,0.401 -0.306,0.49l-21.66 12.504c-0.174,0.1 -0.38,0.093 -0.542,-0.001l-21.69 -12.522c-0.174,-0.1 -0.272,-0.283 -0.272,-0.471l-0.002 -25.046c0,-0.22 0.13,-0.409 0.318,-0.495l21.646 -12.499c0.185,-0.107 0.407,-0.093 0.574,0.018zm10.272 7.183l-10.573 -6.104 -21.148 12.208 0 24.424 21.148 12.208 21.146 -12.21 0 -24.42 -10.573 -6.106z"/>
    <path class="fil2" d="M40.66 20.446l2.755 0c0.345,0 0.626,0.281 0.626,0.627l0 5.914 4.728 -1.03c0.337,-0.073 0.67,0.141 0.743,0.479 0.01,0.045 0.014,0.088 0.014,0.132l0.001 2.749c0,0.312 -0.227,0.57 -0.525,0.618l-4.961 1.084 0 5.137 10.787 -2.358 0 -12.725c0,-0.346 0.28,-0.627 0.626,-0.627l2.755 0c0.346,0 0.626,0.281 0.626,0.627l0 27.551c0,0.346 -0.28,0.626 -0.626,0.626l-2.755 0c-0.346,0 -0.626,-0.28 -0.626,-0.626l0 -10.79 -10.787 2.357 0 8.433c0,0.346 -0.281,0.626 -0.626,0.626l-2.755 0c-0.346,0 -0.626,-0.28 -0.626,-0.626l0 -7.557 -4.418 0.965c-0.338,0.073 -0.671,-0.141 -0.744,-0.479 -0.009,-0.045 -0.014,-0.088 -0.014,-0.132l0 -2.755c0,-0.312 0.227,-0.57 0.524,-0.618l4.652 -1.017 0 -5.137 -1.481 0.324c-0.338,0.073 -0.671,-0.142 -0.743,-0.479 -0.01,-0.045 -0.015,-0.089 -0.015,-0.132l0 -2.758c0,-0.311 0.227,-0.57 0.525,-0.618l1.714 -0.372 0 -6.786c0,-0.346 0.28,-0.627 0.626,-0.627z"/>
    <path class="fil1" d="M40.66 19.902l2.755 0c0.322,0 0.616,0.131 0.827,0.343 0.212,0.212 0.343,0.505 0.343,0.828l0 5.238 4.069 -0.886c0.315,-0.068 0.629,-0.001 0.879,0.16 0.253,0.163 0.443,0.422 0.511,0.738 0.015,0.095 0.021,0.15 0.027,0.245l-0.002 2.749c0.003,0.288 -0.102,0.552 -0.276,0.756 -0.169,0.2 -0.407,0.343 -0.676,0.393l-4.532 0.991 0 4.023 9.698 -2.12 0 -12.287c0,-0.322 0.132,-0.614 0.343,-0.826 0.212,-0.214 0.505,-0.345 0.828,-0.345l2.755 0c0.321,0 0.613,0.131 0.826,0.343 0.214,0.214 0.345,0.506 0.345,0.828l0 27.551c0,0.323 -0.132,0.616 -0.343,0.828 -0.215,0.211 -0.507,0.343 -0.828,0.343l-2.755 0c-0.323,0 -0.616,-0.132 -0.828,-0.343 -0.211,-0.212 -0.343,-0.505 -0.343,-0.828l0 -10.114 -9.698 2.119 0 7.995c0,0.323 -0.131,0.616 -0.343,0.828 -0.214,0.211 -0.506,0.343 -0.827,0.343l-2.755 0c-0.323,0 -0.616,-0.132 -0.828,-0.343 -0.211,-0.212 -0.343,-0.505 -0.343,-0.828l0 -6.881 -3.758 0.821c-0.316,0.068 -0.629,0.001 -0.88,-0.16 -0.252,-0.163 -0.443,-0.422 -0.51,-0.738 -0.016,-0.095 -0.021,-0.15 -0.027,-0.245l0.001 -2.755c-0.002,-0.287 0.103,-0.552 0.276,-0.756 0.17,-0.2 0.407,-0.343 0.677,-0.393l4.221 -0.924 0 -4.023 -0.821 0.18c-0.316,0.067 -0.629,0.001 -0.88,-0.161 -0.252,-0.162 -0.442,-0.422 -0.51,-0.738l-0.018 -0.119 -0.009 -0.125 0.001 -2.758c-0.002,-0.288 0.103,-0.552 0.277,-0.756 0.171,-0.201 0.407,-0.343 0.677,-0.393l1.283 -0.28 0 -6.347c0,-0.322 0.131,-0.614 0.343,-0.826 0.212,-0.214 0.505,-0.345 0.828,-0.345zm2.755 1.089l-2.755 0c-0.023,0 -0.043,0.009 -0.058,0.024 -0.015,0.013 -0.024,0.034 -0.024,0.058l0 7.225c-0.693,0.15 -1.491,0.37 -2.17,0.469 -0.019,0.003 -0.036,0.013 -0.05,0.028 -0.011,0.013 -0.019,0.033 -0.019,0.054 0,0.44 -0.063,2.519 0.002,2.777 0.005,0.021 0.018,0.038 0.034,0.049 0.017,0.011 0.04,0.016 0.063,0.011l2.14 -0.467 0 6.25c-1.608,0.351 -3.531,0.884 -5.109,1.115 -0.018,0.002 -0.036,0.013 -0.048,0.028 -0.011,0.013 -0.019,0.033 -0.019,0.054 0,0.261 -0.011,2.747 0.002,2.774 0.005,0.021 0.018,0.039 0.034,0.049 0.017,0.011 0.04,0.016 0.063,0.012l5.077 -1.11 0 8.233c0,0.023 0.01,0.043 0.024,0.058 0.015,0.014 0.035,0.024 0.058,0.024l2.755 0c0.023,0 0.044,-0.009 0.059,-0.023 0.013,-0.016 0.022,-0.036 0.022,-0.059l0 -8.871 11.876 -2.595 0 11.466c0,0.023 0.01,0.043 0.024,0.058 0.015,0.014 0.035,0.024 0.058,0.024l2.755 0c0.023,0 0.045,-0.009 0.059,-0.023 0.014,-0.016 0.023,-0.036 0.023,-0.059l0 -27.551c0,-0.024 -0.009,-0.045 -0.023,-0.059 -0.014,-0.014 -0.036,-0.023 -0.059,-0.023l-2.755 0c-0.023,0 -0.043,0.009 -0.058,0.024 -0.015,0.013 -0.024,0.034 -0.024,0.058l0 13.163 -11.876 2.596 0 -6.251c1.703,-0.373 3.748,-0.938 5.419,-1.182 0.019,-0.002 0.036,-0.013 0.049,-0.028 0.011,-0.013 0.018,-0.033 0.018,-0.054 0,-0.26 0.012,-2.741 -0.002,-2.768 -0.004,-0.021 -0.017,-0.039 -0.034,-0.049 -0.017,-0.011 -0.04,-0.016 -0.063,-0.012l-5.387 1.175 0 -6.59c0,-0.023 -0.009,-0.044 -0.024,-0.058 -0.014,-0.015 -0.035,-0.024 -0.057,-0.024z"/>
   </g>
  </g>
 </g>
</svg>
