<?xml version="1.0" encoding="UTF-8"?>
<!DOCTYPE svg PUBLIC "-//W3C//DTD SVG 1.1//EN" "http://www.w3.org/Graphics/SVG/1.1/DTD/svg11.dtd">
<!-- Creator: CorelDRAW 2019 (64-Bit) -->
<svg xmlns="http://www.w3.org/2000/svg" xml:space="preserve" width="90px" height="64px" version="1.1" style="shape-rendering:geometricPrecision; text-rendering:geometricPrecision; image-rendering:optimizeQuality; fill-rule:evenodd; clip-rule:evenodd"
viewBox="0 0 98.01 69.696"
 xmlns:xlink="http://www.w3.org/1999/xlink">
 <defs>
  <style type="text/css">
   <![CDATA[
    .fil0 {fill:none}
    .fil3 {fill:#00F4FF}
    .fil1 {fill:#264361}
    .fil2 {fill:gray;fill-rule:nonzero}
   ]]>
  </style>
 </defs>
 <g id="Layer_x0020_1">
  <metadata id="CorelCorpID_0Corel-Layer"/>
  <g id="_1431733047472">
   <rect class="fil0" width="98.01" height="69.696"/>
   <g>
    <polygon class="fil1" points="49.005,4.356 62.209,11.979 75.412,19.602 75.412,34.848 75.412,50.094 62.209,57.717 49.005,65.34 35.802,57.717 22.598,50.094 22.598,34.848 22.598,19.602 35.802,11.979 "/>
    <path class="fil2" d="M49.283 3.889l26.401 15.243c0.174,0.1 0.271,0.283 0.271,0.47l0.001 30.492c0,0.215 -0.124,0.401 -0.305,0.489l-26.373 15.227c-0.177,0.102 -0.387,0.094 -0.55,-0.003l-26.4 -15.243c-0.174,-0.1 -0.272,-0.282 -0.272,-0.47l-0.002 -30.492c0,-0.22 0.13,-0.409 0.318,-0.495l26.361 -15.221c0.176,-0.102 0.386,-0.094 0.55,0.003zm12.653 8.56l-12.931 -7.466 -25.862 14.931 0 29.868 25.862 14.931 25.862 -14.932 0 -29.866 -12.931 -7.466z"/>
    <path class="fil3" d="M38.846 17.316l3.354 0c0.421,0 0.762,0.341 0.762,0.762l0 7.2 5.756 -1.254c0.41,-0.089 0.816,0.173 0.904,0.583 0.012,0.054 0.018,0.108 0.018,0.161l0.001 3.347c0,0.379 -0.277,0.693 -0.639,0.752l-6.04 1.319 0 6.254 13.132 -2.87 0 -15.492c0,-0.421 0.341,-0.762 0.762,-0.762l3.354 0c0.421,0 0.762,0.341 0.762,0.762l0 33.541c0,0.421 -0.341,0.762 -0.762,0.762l-3.354 0c-0.421,0 -0.762,-0.341 -0.762,-0.762l0 -13.136 -13.132 2.869 0 10.267c0,0.421 -0.341,0.762 -0.762,0.762l-3.354 0c-0.421,0 -0.762,-0.341 -0.762,-0.762l0 -9.2 -5.379 1.175c-0.41,0.088 -0.816,-0.173 -0.905,-0.584 -0.011,-0.054 -0.017,-0.107 -0.017,-0.16l-0.001 -3.354c0,-0.379 0.277,-0.694 0.639,-0.753l5.663 -1.237 0 -6.254 -1.803 0.394c-0.411,0.089 -0.816,-0.172 -0.905,-0.583 -0.012,-0.054 -0.017,-0.108 -0.017,-0.161l-0.001 -3.357c0,-0.379 0.277,-0.694 0.64,-0.753l2.086 -0.452 0 -8.262c0,-0.421 0.341,-0.762 0.762,-0.762z"/>
    <path class="fil2" d="M38.846 16.771l3.354 0c0.36,0 0.687,0.146 0.923,0.383 0.237,0.236 0.384,0.563 0.384,0.924l0 6.525 5.096 -1.111c0.351,-0.076 0.701,-0.002 0.981,0.179 0.281,0.181 0.494,0.47 0.57,0.822l0.022 0.139 0.008 0.136 -0.001 3.347c0.002,0.321 -0.115,0.616 -0.308,0.844 -0.191,0.224 -0.456,0.383 -0.759,0.44l-5.609 1.225 0 5.14 12.042 -2.632 0 -15.054c0,-0.361 0.147,-0.687 0.383,-0.924 0.236,-0.236 0.563,-0.383 0.924,-0.383l3.354 0c0.36,0 0.688,0.146 0.924,0.383 0.237,0.236 0.383,0.563 0.383,0.924l0 33.541c0,0.36 -0.146,0.687 -0.383,0.924 -0.236,0.236 -0.564,0.383 -0.924,0.383l-3.354 0c-0.361,0 -0.688,-0.147 -0.924,-0.383 -0.236,-0.237 -0.383,-0.564 -0.383,-0.924l0 -12.46 -12.042 2.632 0 9.828c0,0.361 -0.147,0.687 -0.384,0.924 -0.236,0.236 -0.563,0.383 -0.923,0.383l-3.354 0c-0.361,0 -0.688,-0.147 -0.924,-0.383 -0.236,-0.237 -0.383,-0.564 -0.383,-0.924l0 -8.524 -4.719 1.031c-0.351,0.076 -0.701,0.001 -0.982,-0.179 -0.28,-0.181 -0.493,-0.47 -0.569,-0.822l-0.022 -0.14 -0.009 -0.135 0.002 -3.354c-0.002,-0.321 0.115,-0.617 0.308,-0.844 0.191,-0.224 0.456,-0.384 0.759,-0.44l5.232 -1.144 0 -5.14 -1.143 0.25c-0.352,0.076 -0.702,0.002 -0.982,-0.179 -0.281,-0.181 -0.493,-0.47 -0.569,-0.821l-0.022 -0.14 -0.009 -0.136 0.002 -3.357c-0.003,-0.321 0.115,-0.616 0.308,-0.844 0.193,-0.224 0.458,-0.384 0.759,-0.439l1.656 -0.361 0 -7.823c0,-0.361 0.147,-0.687 0.383,-0.924 0.236,-0.236 0.563,-0.383 0.924,-0.383zm3.354 1.089l-3.354 0c-0.06,0 -0.115,0.025 -0.154,0.064 -0.039,0.039 -0.064,0.094 -0.064,0.154l0 8.7c-0.8,0.174 -1.768,0.445 -2.545,0.55 -0.051,0.009 -0.097,0.036 -0.13,0.074 -0.031,0.038 -0.05,0.088 -0.05,0.143 -0.001,0.615 -0.09,2.985 0.005,3.403 0.012,0.06 0.048,0.107 0.093,0.137 0.047,0.03 0.106,0.042 0.165,0.029l2.462 -0.537 0 7.367c-1.921,0.419 -4.234,1.06 -6.12,1.335 -0.05,0.008 -0.097,0.036 -0.13,0.075 -0.031,0.037 -0.051,0.087 -0.051,0.142 0,0.651 -0.095,2.933 0.005,3.4 0.012,0.059 0.048,0.107 0.093,0.136 0.047,0.031 0.107,0.043 0.166,0.03l6.037 -1.319 0 9.876c0,0.06 0.025,0.115 0.064,0.154 0.039,0.039 0.094,0.064 0.154,0.064l3.354 0c0.059,0 0.114,-0.025 0.154,-0.064 0.039,-0.039 0.063,-0.094 0.063,-0.154l0 -10.704 14.221 -3.108 0 13.812c0,0.06 0.025,0.115 0.064,0.154 0.039,0.039 0.094,0.064 0.154,0.064l3.354 0c0.06,0 0.115,-0.025 0.154,-0.064 0.039,-0.039 0.064,-0.094 0.064,-0.154l0 -33.541c0,-0.06 -0.025,-0.115 -0.064,-0.154 -0.039,-0.04 -0.094,-0.064 -0.154,-0.064l-3.354 0c-0.06,0 -0.115,0.025 -0.154,0.064 -0.039,0.039 -0.064,0.094 -0.064,0.154l0 15.93 -14.221 3.108 0 -7.368c2.039,-0.445 4.497,-1.124 6.498,-1.416 0.05,-0.009 0.097,-0.037 0.13,-0.075 0.031,-0.038 0.051,-0.088 0.051,-0.142 0,-0.614 0.089,-2.975 -0.006,-3.393 -0.012,-0.059 -0.047,-0.107 -0.093,-0.136 -0.046,-0.03 -0.106,-0.043 -0.165,-0.03l-6.415 1.398 0 -7.876c0,-0.06 -0.024,-0.115 -0.063,-0.154 -0.04,-0.04 -0.094,-0.064 -0.154,-0.064z"/>
   </g>
  </g>
 </g>
</svg>
