<?xml version="1.0" encoding="UTF-8"?>
<!DOCTYPE svg PUBLIC "-//W3C//DTD SVG 1.1//EN" "http://www.w3.org/Graphics/SVG/1.1/DTD/svg11.dtd">
<!-- Creator: CorelDRAW 2019 (64-Bit) -->
<svg xmlns="http://www.w3.org/2000/svg" xml:space="preserve" width="90px" height="64px" version="1.1" style="shape-rendering:geometricPrecision; text-rendering:geometricPrecision; image-rendering:optimizeQuality; fill-rule:evenodd; clip-rule:evenodd"
viewBox="0 0 19.196 13.651"
 xmlns:xlink="http://www.w3.org/1999/xlink">
 <defs>
  <style type="text/css">
   <![CDATA[
    .fil0 {fill:none}
    .fil3 {fill:#00F4FF}
    .fil1 {fill:white}
    .fil2 {fill:gray;fill-rule:nonzero}
   ]]>
  </style>
 </defs>
 <g id="Layer_x0020_1">
  <metadata id="CorelCorpID_0Corel-Layer"/>
  <g id="_1430828453968">
   <rect class="fil0" width="19.196" height="13.651"/>
   <g>
    <polygon class="fil1" points="7.54,11.305 7.54,5.865 8.109,5.157 8.678,5.408 7.689,4.056 5.188,4.056 4.199,5.408 4.768,5.157 5.337,5.865 5.337,11.305 5.869,11.305 5.898,5.865 6.438,5.19 7.007,5.865 7.007,11.305 "/>
    <path class="fil2" d="M4.305 11.305c0,0.059 -0.047,0.106 -0.106,0.106 -0.059,0 -0.107,-0.047 -0.107,-0.106l0 -5.897c0,-0.026 0.01,-0.051 0.026,-0.07l2.235 -3.055c0.034,-0.047 0.101,-0.057 0.148,-0.023 0.01,0.007 0.018,0.016 0.024,0.025l2.233 3.053c0.017,0.019 0.027,0.043 0.027,0.07l0 5.897c0,0.059 -0.048,0.106 -0.107,0.106 -0.059,0 -0.107,-0.047 -0.107,-0.106l0 -5.862 -2.133 -2.917 -2.133 2.917 0 5.862z"/>
    <path class="fil3" d="M14.998 4.73c-0.056,-1.353 -1.855,-1.197 -1.574,-2.384 -1.165,0.381 -2.137,1.34 -2.137,2.384 0,1.044 0.847,1.689 1.856,1.689 1.008,0 1.855,-0.645 1.855,-1.689z"/>
    <path class="fil2" d="M14.891 4.727c-0.028,-0.609 -0.457,-0.893 -0.852,-1.153 -0.415,-0.274 -0.796,-0.526 -0.749,-1.067 -0.518,0.198 -0.986,0.512 -1.329,0.894 -0.35,0.39 -0.567,0.851 -0.567,1.329 0,0.473 0.185,0.858 0.482,1.129 0.321,0.292 0.773,0.454 1.267,0.454 0.478,0 0.918,-0.152 1.236,-0.427 0.315,-0.272 0.512,-0.667 0.512,-1.156l0 -0.003zm-0.734 -1.331c0.437,0.289 0.913,0.603 0.947,1.32l0 0.014c0,0.555 -0.226,1.005 -0.586,1.317 -0.357,0.308 -0.845,0.479 -1.375,0.479 -0.547,0 -1.05,-0.182 -1.41,-0.509 -0.34,-0.311 -0.552,-0.749 -0.552,-1.287 0,-0.533 0.238,-1.043 0.622,-1.471 0.402,-0.449 0.966,-0.809 1.582,-1.012 0.02,-0.008 0.042,-0.01 0.064,-0.005 0.057,0.014 0.093,0.072 0.079,0.129 -0.125,0.527 0.234,0.765 0.629,1.025z"/>
    <path class="fil2" d="M11.912 11.318c-0.007,0.058 -0.061,0.1 -0.119,0.092 -0.058,-0.008 -0.099,-0.061 -0.091,-0.119l0.444 -3.392c0.007,-0.053 0.053,-0.092 0.105,-0.092l1.783 -0.001c0.057,0 0.104,0.045 0.106,0.102l0.444 3.383c0.007,0.058 -0.034,0.111 -0.092,0.119 -0.058,0.008 -0.111,-0.034 -0.119,-0.092l-0.432 -3.298 -1.596 0 -0.433 3.298z"/>
    <polygon class="fil1" points="12.215,6.348 14.071,6.348 14.215,7.913 12.071,7.913 "/>
    <path class="fil2" d="M12.215 6.242l1.856 -0.001c0.059,0 0.107,0.048 0.107,0.107l0.142 1.555c0.006,0.059 -0.037,0.11 -0.096,0.116l-2.153 0.001c-0.059,0 -0.107,-0.048 -0.107,-0.107l0.145 -1.574c0.005,-0.056 0.051,-0.097 0.106,-0.097zm1.759 0.213l-1.663 0 -0.124 1.351 1.911 0 -0.124 -1.351z"/>
    <polygon class="fil3" points="6.438,2.346 5.188,4.056 7.689,4.056 "/>
    <path class="fil2" d="M6.438 2.526l-1.041 1.424 2.082 0 -1.041 -1.424zm-1.336 1.467l1.249 -1.708c0.007,-0.009 0.015,-0.018 0.024,-0.025 0.048,-0.034 0.114,-0.024 0.149,0.023l1.246 1.704c0.016,0.019 0.026,0.043 0.026,0.069 0,0.059 -0.048,0.107 -0.107,0.107l-2.501 0c-0.022,0 -0.044,-0.007 -0.063,-0.021 -0.048,-0.035 -0.058,-0.101 -0.023,-0.149z"/>
    <path class="fil2" d="M5.976 11.305c0,0.059 -0.048,0.106 -0.107,0.106 -0.058,0 -0.106,-0.047 -0.106,-0.106l0 -5.44c0,-0.028 0.011,-0.054 0.028,-0.073l0.564 -0.702c0.037,-0.045 0.104,-0.053 0.15,-0.016 0.007,0.005 0.012,0.011 0.017,0.018l0.563 0.7c0.018,0.019 0.029,0.045 0.029,0.073l0 5.44c0,0.059 -0.048,0.106 -0.107,0.106 -0.059,0 -0.106,-0.047 -0.106,-0.106l0 -5.403 -0.463 -0.575 -0.462 0.575 0 5.403z"/>
    <path class="fil2" d="M8.784 11.305c0,0.058 -0.047,0.106 -0.106,0.106 -0.059,0 -0.106,-0.048 -0.106,-0.106l0 -5.827 -0.431 -0.191 -0.495 0.616 0 5.402c0,0.058 -0.047,0.106 -0.106,0.106 -0.059,0 -0.106,-0.048 -0.106,-0.106l0 -5.434c-0.001,-0.026 0.006,-0.051 0.023,-0.073l0.566 -0.704c0.029,-0.039 0.082,-0.055 0.129,-0.034l0.569 0.251c0.037,0.017 0.063,0.054 0.063,0.097l0 5.897z"/>
    <path class="fil2" d="M4.305 11.305c0,0.058 -0.048,0.106 -0.106,0.106 -0.059,0 -0.107,-0.048 -0.107,-0.106l0.001 -5.897c0,-0.043 0.026,-0.08 0.063,-0.097l0.569 -0.251c0.047,-0.021 0.1,-0.005 0.129,0.034l0.565 0.704c0.017,0.022 0.025,0.047 0.024,0.073l0 5.434c0,0.058 -0.048,0.106 -0.106,0.106 -0.059,0 -0.107,-0.048 -0.107,-0.106l0 -5.402 -0.494 -0.616 -0.431 0.191 0 5.827z"/>
   </g>
  </g>
 </g>
</svg>
