<?xml version="1.0" encoding="UTF-8"?>
<!DOCTYPE svg PUBLIC "-//W3C//DTD SVG 1.1//EN" "http://www.w3.org/Graphics/SVG/1.1/DTD/svg11.dtd">
<!-- Creator: CorelDRAW 2019 (64-Bit) -->
<svg xmlns="http://www.w3.org/2000/svg" xml:space="preserve" width="90px" height="64px" version="1.1" style="shape-rendering:geometricPrecision; text-rendering:geometricPrecision; image-rendering:optimizeQuality; fill-rule:evenodd; clip-rule:evenodd"
viewBox="0 0 19.127 13.601"
 xmlns:xlink="http://www.w3.org/1999/xlink">
 <defs>
  <style type="text/css">
   <![CDATA[
    .fil0 {fill:none}
    .fil4 {fill:#00F4FF}
    .fil3 {fill:#264361}
    .fil1 {fill:white}
    .fil2 {fill:gray;fill-rule:nonzero}
   ]]>
  </style>
 </defs>
 <g id="Layer_x0020_1">
  <metadata id="CorelCorpID_0Corel-Layer"/>
  <g id="_1430410343520">
   <rect class="fil0" width="19.127" height="13.601"/>
   <g>
    <polygon class="fil1" points="7.067,12.234 7.067,5.636 7.757,4.777 8.447,5.082 7.248,3.442 4.213,3.442 3.014,5.082 3.704,4.777 4.394,5.636 4.394,12.234 5.04,12.234 5.075,5.636 5.73,4.817 6.421,5.636 6.421,12.234 "/>
    <path class="fil2" d="M3.12 12.234c0,0.058 -0.047,0.106 -0.106,0.106 -0.059,0 -0.106,-0.048 -0.106,-0.106l0 -7.152c0,-0.027 0.01,-0.052 0.026,-0.07l2.711 -3.707c0.035,-0.047 0.101,-0.058 0.148,-0.023 0.01,0.007 0.018,0.015 0.024,0.024l2.709 3.705c0.017,0.019 0.027,0.044 0.027,0.071l0 7.152c0,0.058 -0.047,0.106 -0.106,0.106 -0.059,0 -0.106,-0.048 -0.106,-0.106l0 -7.118 -2.611 -3.569 -2.61 3.569 0 7.118z"/>
    <path class="fil3" d="M16.113 4.259c-0.068,-1.641 -2.251,-1.452 -1.909,-2.891 -1.413,0.462 -2.592,1.624 -2.592,2.891 0,1.266 1.027,2.049 2.25,2.049 1.224,0 2.251,-0.783 2.251,-2.049z"/>
    <path class="fil2" d="M16.006 4.256c-0.034,-0.752 -0.56,-1.099 -1.043,-1.419 -0.506,-0.334 -0.971,-0.641 -0.895,-1.31 -0.645,0.241 -1.23,0.63 -1.656,1.104 -0.428,0.478 -0.694,1.042 -0.694,1.628 0,0.581 0.228,1.054 0.593,1.387 0.393,0.357 0.947,0.556 1.551,0.556 0.587,0 1.125,-0.186 1.515,-0.524 0.387,-0.334 0.629,-0.819 0.629,-1.419l0 -0.003zm-0.926 -1.596c0.526,0.348 1.098,0.726 1.138,1.585l0.001 0.014c0,0.666 -0.271,1.206 -0.703,1.58 -0.429,0.37 -1.016,0.575 -1.653,0.575 -0.658,0 -1.262,-0.218 -1.695,-0.612 -0.408,-0.372 -0.662,-0.898 -0.662,-1.543 0,-0.641 0.287,-1.254 0.749,-1.769 0.485,-0.542 1.166,-0.977 1.91,-1.221 0.019,-0.008 0.041,-0.01 0.064,-0.005 0.057,0.014 0.092,0.071 0.078,0.128 -0.155,0.656 0.287,0.948 0.773,1.268z"/>
    <path class="fil2" d="M12.347 12.247c-0.007,0.058 -0.06,0.099 -0.118,0.092 -0.058,-0.008 -0.099,-0.061 -0.092,-0.119l0.539 -4.114c0.007,-0.053 0.053,-0.092 0.105,-0.092l2.163 -0.001c0.057,0 0.103,0.045 0.106,0.102l0.538 4.105c0.007,0.058 -0.034,0.111 -0.092,0.119 -0.058,0.007 -0.111,-0.034 -0.118,-0.092l-0.527 -4.021 -1.977 0 -0.527 4.021z"/>
    <polygon class="fil4" points="12.737,6.222 14.989,6.222 15.163,8.12 12.562,8.12 "/>
    <path class="fil2" d="M12.737 6.115l2.252 0c0.058,0 0.106,0.048 0.106,0.106l0.173 1.889c0.005,0.058 -0.038,0.11 -0.096,0.115l-2.61 0.001c-0.059,0 -0.106,-0.048 -0.106,-0.106l0.175 -1.908c0.005,-0.055 0.052,-0.096 0.106,-0.097zm2.155 0.213l-2.059 0 -0.155 1.685 2.369 0 -0.155 -1.685z"/>
    <polygon class="fil3" points="5.73,1.368 4.213,3.442 7.248,3.442 "/>
    <path class="fil2" d="M5.73 1.547l-1.308 1.788 2.617 0 -1.309 -1.788zm-1.602 1.832l1.516 -2.073c0.006,-0.009 0.014,-0.017 0.024,-0.024 0.047,-0.035 0.113,-0.024 0.148,0.023l1.513 2.068c0.015,0.019 0.025,0.043 0.025,0.069 0,0.058 -0.048,0.106 -0.106,0.106l-3.035 0c-0.021,0 -0.043,-0.007 -0.062,-0.021 -0.047,-0.034 -0.058,-0.101 -0.023,-0.148z"/>
    <polygon class="fil4" points="5.04,12.234 5.04,5.636 5.04,5.636 5.04,5.636 5.73,4.777 6.42,5.636 6.421,5.636 6.421,5.636 6.421,12.234 "/>
    <polygon class="fil4" points="8.447,12.234 8.447,5.082 7.757,4.777 7.067,5.636 7.067,12.234 "/>
    <polygon class="fil4" points="3.014,12.234 3.014,5.082 3.704,4.777 4.394,5.636 4.394,12.234 "/>
    <path class="fil2" d="M5.147 12.234c0,0.058 -0.048,0.106 -0.107,0.106 -0.058,0 -0.106,-0.048 -0.106,-0.106l0 -6.598c0,-0.028 0.011,-0.054 0.029,-0.073l0.685 -0.853c0.037,-0.045 0.103,-0.052 0.149,-0.016 0.007,0.006 0.012,0.011 0.017,0.018l0.684 0.851c0.018,0.019 0.029,0.044 0.029,0.073l0 6.598c0,0.058 -0.048,0.106 -0.106,0.106 -0.059,0 -0.107,-0.048 -0.107,-0.106l0 -6.561 -0.584 -0.727 -0.583 0.727 0 6.561z"/>
    <path class="fil2" d="M8.553 12.234c0,0.058 -0.048,0.105 -0.106,0.105 -0.058,0 -0.106,-0.047 -0.106,-0.105l0 -7.083 -0.553 -0.244 -0.615 0.766 0 6.561c0,0.058 -0.048,0.105 -0.106,0.105 -0.059,0 -0.106,-0.047 -0.106,-0.105l0 -6.593c-0.001,-0.025 0.006,-0.051 0.023,-0.072l0.687 -0.855c0.029,-0.039 0.082,-0.055 0.129,-0.034l0.69 0.305c0.037,0.016 0.063,0.054 0.063,0.097l0 7.152z"/>
    <path class="fil2" d="M3.12 12.234c0,0.058 -0.048,0.105 -0.106,0.105 -0.059,0 -0.106,-0.047 -0.106,-0.105l0 -7.152c0,-0.043 0.026,-0.081 0.063,-0.097l0.69 -0.305c0.047,-0.021 0.1,-0.005 0.129,0.034l0.687 0.855c0.017,0.021 0.024,0.047 0.023,0.072l0 6.593c0,0.058 -0.047,0.105 -0.106,0.105 -0.058,0 -0.106,-0.047 -0.106,-0.105l0 -6.561 -0.615 -0.766 -0.553 0.244 0 7.083z"/>
   </g>
  </g>
 </g>
</svg>
