<?xml version="1.0" encoding="UTF-8"?>
<!DOCTYPE svg PUBLIC "-//W3C//DTD SVG 1.1//EN" "http://www.w3.org/Graphics/SVG/1.1/DTD/svg11.dtd">
<!-- Creator: CorelDRAW 2019 (64-Bit) -->
<svg xmlns="http://www.w3.org/2000/svg" xml:space="preserve" width="90px" height="64px" version="1.1" style="shape-rendering:geometricPrecision; text-rendering:geometricPrecision; image-rendering:optimizeQuality; fill-rule:evenodd; clip-rule:evenodd"
viewBox="0 0 24.039 17.094"
 xmlns:xlink="http://www.w3.org/1999/xlink">
 <defs>
  <style type="text/css">
   <![CDATA[
    .fil0 {fill:none}
    .fil5 {fill:#00F4FF}
    .fil4 {fill:#00F4FF}
    .fil1 {fill:#264361}
    .fil6 {fill:white}
    .fil3 {fill:white}
    .fil2 {fill:gray;fill-rule:nonzero}
   ]]>
  </style>
 </defs>
 <g id="Layer_x0020_1">
  <metadata id="CorelCorpID_0Corel-Layer"/>
  <g id="_1431842726560">
   <rect class="fil0" width="24.039" height="17.094"/>
   <g>
    <path class="fil1" d="M14.714 14.585l-7.64 0c-0.148,0 -0.27,-0.122 -0.27,-0.27 0,-4.325 0,-8.651 0,-12.976 0,-0.149 0.121,-0.271 0.27,-0.271l7.238 0 3.059 3.06 0 6.392 -2.657 4.065z"/>
    <path class="fil2" d="M12.947 14.452c0.073,0 0.133,0.06 0.133,0.133 0,0.074 -0.06,0.134 -0.133,0.134l-5.873 0c-0.111,0 -0.212,-0.046 -0.285,-0.119 -0.073,-0.073 -0.119,-0.174 -0.119,-0.285l0 -12.976c0,-0.111 0.046,-0.213 0.119,-0.286 0.073,-0.073 0.174,-0.118 0.285,-0.118l7.238 0c0.037,0 0.071,0.015 0.096,0.041l3.058 3.058c0.026,0.026 0.039,0.06 0.039,0.094l0 5.08c0,0.073 -0.06,0.133 -0.134,0.133 -0.074,0 -0.133,-0.06 -0.133,-0.133l0 -5.025 -2.982 -2.981 -7.182 0c-0.037,0 -0.072,0.015 -0.097,0.04 -0.024,0.025 -0.04,0.059 -0.04,0.097l0 12.976c0,0.037 0.016,0.072 0.041,0.096 0.024,0.025 0.059,0.041 0.096,0.041l5.873 0z"/>
    <path class="fil3" d="M17.371 4.128l-2.799 0c-0.143,0 -0.26,-0.117 -0.26,-0.26l0 -2.8 3.059 3.06z"/>
    <path class="fil2" d="M17.371 4.262l-2.799 0c-0.108,0 -0.207,-0.045 -0.278,-0.116 -0.072,-0.071 -0.116,-0.17 -0.116,-0.278l0 -2.8c0,-0.073 0.06,-0.133 0.134,-0.133 0.037,0 0.071,0.016 0.096,0.041l3.058 3.058c0.052,0.052 0.052,0.137 0,0.189 -0.026,0.026 -0.061,0.039 -0.095,0.039zm-2.799 -0.267l2.477 0 -2.604 -2.604 0 2.477c0,0.034 0.014,0.066 0.037,0.089 0.023,0.023 0.055,0.038 0.09,0.038z"/>
    <path class="fil3" d="M9.057 5.117c0.105,-0.027 0.312,0.05 0.448,0.083 0.347,0.083 0.767,0.083 1.114,0 0.136,-0.033 0.343,-0.11 0.448,-0.083 0.106,0.028 0.345,0.199 0.369,0.469l0.069 0.801c0.006,0.068 -0.056,0.125 -0.124,0.125l-2.637 0c-0.069,0 -0.131,-0.057 -0.125,-0.125l0.069 -0.801c0.024,-0.27 0.263,-0.441 0.369,-0.469z"/>
    <path class="fil2" d="M9.031 4.987c0.114,-0.026 0.265,0.017 0.4,0.055l0.105 0.029c0.162,0.038 0.343,0.058 0.526,0.058 0.183,0 0.364,-0.02 0.526,-0.058l0.111 -0.031c0.136,-0.038 0.289,-0.081 0.402,-0.051 0.082,0.021 0.222,0.104 0.325,0.234 0.073,0.093 0.131,0.211 0.143,0.351l0.069 0.801 0.001 0.021c0,0.068 -0.029,0.129 -0.074,0.173 -0.043,0.042 -0.101,0.07 -0.162,0.075 -0.877,0.021 -1.78,0.001 -2.659,0.001l-0.023 -0.001c-0.061,-0.005 -0.119,-0.033 -0.162,-0.075 -0.045,-0.044 -0.074,-0.105 -0.074,-0.173 0.017,-0.272 0.047,-0.55 0.07,-0.822 0.012,-0.14 0.07,-0.258 0.143,-0.351 0.103,-0.13 0.243,-0.213 0.325,-0.234l0.008 -0.002zm0.327 0.311c-0.103,-0.029 -0.219,-0.062 -0.265,-0.052l-0.002 0c-0.042,0.011 -0.119,0.06 -0.183,0.142 -0.044,0.056 -0.08,0.127 -0.087,0.209l-0.067 0.781 2.617 0 -0.068 -0.781c-0.007,-0.082 -0.043,-0.153 -0.087,-0.209 -0.064,-0.082 -0.141,-0.131 -0.182,-0.142 -0.044,-0.011 -0.159,0.021 -0.262,0.051l-0.006 0.001c-0.035,0.01 -0.069,0.02 -0.116,0.031 -0.186,0.045 -0.388,0.067 -0.588,0.067 -0.2,0 -0.402,-0.022 -0.588,-0.067 -0.047,-0.011 -0.081,-0.021 -0.116,-0.031z"/>
    <path class="fil3" d="M10.057 2.907c0.535,0 0.968,0.433 0.968,0.968 0,0.535 -0.433,0.968 -0.968,0.968 -0.534,0 -0.968,-0.433 -0.968,-0.968 0,-0.535 0.434,-0.968 0.968,-0.968z"/>
    <path class="fil2" d="M10.057 2.773c0.304,0 0.58,0.124 0.779,0.323 0.2,0.199 0.323,0.475 0.323,0.779 0,0.304 -0.123,0.58 -0.323,0.779 -0.199,0.2 -0.475,0.323 -0.779,0.323 -0.304,0 -0.579,-0.123 -0.779,-0.323 -0.199,-0.199 -0.322,-0.475 -0.322,-0.779 0,-0.304 0.123,-0.58 0.322,-0.779 0.2,-0.199 0.475,-0.323 0.779,-0.323zm0.59 0.512c-0.151,-0.151 -0.359,-0.244 -0.59,-0.244 -0.23,0 -0.439,0.093 -0.59,0.244 -0.151,0.151 -0.244,0.36 -0.244,0.59 0,0.231 0.093,0.439 0.244,0.59 0.151,0.151 0.36,0.245 0.59,0.245 0.231,0 0.439,-0.094 0.59,-0.245 0.151,-0.151 0.245,-0.359 0.245,-0.59 0,-0.23 -0.094,-0.439 -0.245,-0.59z"/>
    <path class="fil2" d="M8.618 8.407c-0.074,0 -0.133,-0.06 -0.133,-0.133 0,-0.074 0.059,-0.134 0.133,-0.134l6.939 0c0.073,0 0.133,0.06 0.133,0.134 0,0.073 -0.06,0.133 -0.133,0.133l-6.939 0z"/>
    <path class="fil2" d="M8.618 10.169c-0.073,0 -0.133,-0.06 -0.133,-0.133 0,-0.074 0.06,-0.134 0.133,-0.134l3.469 0c0.074,0 0.134,0.06 0.134,0.134 0,0.073 -0.06,0.133 -0.134,0.133l-3.469 0z"/>
    <path class="fil2" d="M12.416 6.699c-0.073,0 -0.133,-0.06 -0.133,-0.134 0,-0.073 0.06,-0.133 0.133,-0.133l3.141 0c0.073,0 0.133,0.06 0.133,0.133 0,0.074 -0.06,0.134 -0.133,0.134l-3.141 0z"/>
    <path class="fil2" d="M8.618 11.931c-0.074,0 -0.133,-0.06 -0.133,-0.133 0,-0.074 0.059,-0.134 0.133,-0.134l3.469 0c0.074,0 0.134,0.06 0.134,0.134 0,0.073 -0.06,0.133 -0.134,0.133l-3.469 0z"/>
    <polygon class="fil4" points="15.65,13.985 16.601,16.026 17.084,15.244 17.992,15.377 17.128,13.523 "/>
    <polygon class="fil4" points="15.885,13.985 14.933,16.026 14.451,15.244 13.542,15.377 14.407,13.523 "/>
    <path class="fil2" d="M16.006 14.041l-0.951 2.041c-0.031,0.067 -0.111,0.096 -0.178,0.065 -0.028,-0.013 -0.05,-0.035 -0.063,-0.061l-0.43 -0.697 -0.822 0.12c-0.073,0.011 -0.141,-0.04 -0.152,-0.113 -0.003,-0.026 0.001,-0.052 0.012,-0.075l0.864 -1.854c0.029,-0.064 0.103,-0.093 0.168,-0.069l1.471 0.459c0.07,0.022 0.11,0.097 0.088,0.167l-0.007 0.017zm-1.089 1.705l0.783 -1.68 -1.221 -0.381 -0.711 1.524 0.664 -0.097c0.051,-0.007 0.104,0.016 0.132,0.062l0.353 0.572z"/>
    <polygon class="fil5" points="13.244,11.853 13.771,11.23 13.727,10.366 14.519,10.172 14.992,9.447 15.747,9.756 16.556,9.447 16.985,10.14 17.821,10.366 17.76,11.179 18.304,11.853 17.777,12.475 17.821,13.34 17.028,13.534 16.556,14.259 15.801,13.95 14.992,14.259 14.563,13.565 13.727,13.34 13.788,12.527 "/>
    <path class="fil2" d="M13.142 11.767l0.493 -0.583 -0.041 -0.812c-0.003,-0.066 0.043,-0.124 0.106,-0.137l0.736 -0.18 0.444 -0.681c0.037,-0.057 0.111,-0.076 0.17,-0.047l0.698 0.285 0.76 -0.29c0.064,-0.024 0.135,0.004 0.166,0.064l0.396 0.639 0.785 0.212c0.064,0.017 0.105,0.078 0.098,0.142l-0.056 0.758 0.511 0.632c0.04,0.051 0.038,0.122 -0.002,0.17l-0.494 0.582 0.042 0.813c0.003,0.066 -0.043,0.123 -0.106,0.136l-0.737 0.18 -0.444 0.682c-0.037,0.056 -0.11,0.076 -0.169,0.047l-0.698 -0.286 -0.76 0.291c-0.065,0.024 -0.136,-0.004 -0.166,-0.064l-0.396 -0.639 -0.785 -0.212c-0.064,-0.017 -0.105,-0.078 -0.099,-0.142l0.057 -0.758 -0.511 -0.633c-0.04,-0.05 -0.038,-0.121 0.002,-0.169zm0.731 -0.45l-0.456 0.538 0.471 0.584c0.022,0.026 0.035,0.06 0.033,0.097l-0.053 0.704 0.729 0.197c0.032,0.008 0.061,0.028 0.079,0.059l0.371 0.599 0.706 -0.27c0.031,-0.011 0.066,-0.011 0.098,0.002l0.653 0.267 0.413 -0.633c0.018,-0.027 0.046,-0.048 0.08,-0.057l0.685 -0.167 -0.038 -0.75c-0.003,-0.034 0.007,-0.07 0.031,-0.098l0.456 -0.538 -0.471 -0.584c-0.023,-0.026 -0.036,-0.06 -0.033,-0.097l0.052 -0.704 -0.729 -0.197c-0.031,-0.009 -0.06,-0.029 -0.078,-0.059l-0.371 -0.599 -0.707 0.269c-0.03,0.011 -0.065,0.012 -0.097,-0.001l-0.653 -0.267 -0.413 0.633c-0.018,0.027 -0.046,0.048 -0.08,0.056l-0.685 0.168 0.038 0.75c0.003,0.034 -0.008,0.069 -0.031,0.098z"/>
    <path class="fil2" d="M16.045 15.148c-0.031,-0.067 -0.002,-0.146 0.064,-0.177 0.067,-0.032 0.147,-0.003 0.178,0.064l0.331 0.711 0.353 -0.572c0.028,-0.046 0.081,-0.069 0.132,-0.061l0.664 0.096 -0.76 -1.629c-0.031,-0.067 -0.002,-0.147 0.065,-0.178 0.067,-0.031 0.146,-0.002 0.177,0.065l0.865 1.854c0.01,0.023 0.014,0.049 0.01,0.075 -0.01,0.073 -0.078,0.124 -0.151,0.113l-0.822 -0.12 -0.43 0.697c-0.013,0.026 -0.035,0.048 -0.063,0.061 -0.067,0.031 -0.147,0.002 -0.178,-0.065l-0.435 -0.934z"/>
    <path class="fil6" d="M15.774 10.52c0.736,0 1.333,0.597 1.333,1.333 0,0.736 -0.597,1.333 -1.333,1.333 -0.736,0 -1.333,-0.597 -1.333,-1.333 0,-0.736 0.597,-1.333 1.333,-1.333z"/>
    <path class="fil2" d="M15.774 10.386c0.405,0 0.772,0.164 1.037,0.43l0.007 0.008c0.261,0.265 0.423,0.628 0.423,1.029 0,0.405 -0.165,0.772 -0.43,1.037 -0.265,0.265 -0.632,0.43 -1.037,0.43 -0.405,0 -0.772,-0.165 -1.037,-0.43 -0.266,-0.265 -0.43,-0.632 -0.43,-1.037 0,-0.405 0.164,-0.771 0.43,-1.037 0.265,-0.266 0.632,-0.43 1.037,-0.43zm0.848 0.619c-0.217,-0.217 -0.517,-0.352 -0.848,-0.352 -0.331,0 -0.631,0.135 -0.848,0.352 -0.217,0.216 -0.352,0.516 -0.352,0.848 0,0.331 0.135,0.631 0.352,0.848 0.217,0.217 0.517,0.351 0.848,0.351 0.331,0 0.631,-0.134 0.848,-0.351 0.217,-0.217 0.351,-0.517 0.351,-0.848 0,-0.328 -0.131,-0.626 -0.344,-0.842l-0.007 -0.006z"/>
   </g>
  </g>
 </g>
</svg>
