<?xml version="1.0" encoding="UTF-8"?>
<!DOCTYPE svg PUBLIC "-//W3C//DTD SVG 1.1//EN" "http://www.w3.org/Graphics/SVG/1.1/DTD/svg11.dtd">
<!-- Creator: CorelDRAW 2019 (64-Bit) -->
<svg xmlns="http://www.w3.org/2000/svg" xml:space="preserve" width="90px" height="64px" version="1.1" style="shape-rendering:geometricPrecision; text-rendering:geometricPrecision; image-rendering:optimizeQuality; fill-rule:evenodd; clip-rule:evenodd"
viewBox="0 0 24.039 17.094"
 xmlns:xlink="http://www.w3.org/1999/xlink">
 <defs>
  <style type="text/css">
   <![CDATA[
    .fil0 {fill:none}
    .fil3 {fill:#00F4FF}
    .fil2 {fill:#EAEDF2}
    .fil4 {fill:white}
    .fil1 {fill:gray;fill-rule:nonzero}
   ]]>
  </style>
 </defs>
 <g id="Layer_x0020_1">
  <metadata id="CorelCorpID_0Corel-Layer"/>
  <g id="_1466661511424">
   <rect class="fil0" width="24.039" height="17.094"/>
   <g>
    <path class="fil1" d="M12.876 13.374c0.074,0 0.134,0.059 0.134,0.133 0,0.074 -0.06,0.134 -0.134,0.134l-4.824 0c-0.097,0 -0.186,-0.04 -0.25,-0.105 -0.065,-0.064 -0.105,-0.153 -0.105,-0.251l0 -10.659c0,-0.098 0.04,-0.187 0.104,-0.251 0.064,-0.065 0.154,-0.105 0.251,-0.105l5.946 0c0.037,0 0.071,0.016 0.096,0.041l2.511 2.512c0.026,0.026 0.039,0.06 0.039,0.094l0 4.173c0,0.074 -0.059,0.133 -0.133,0.133 -0.074,0 -0.134,-0.059 -0.134,-0.133l0 -4.117 -2.435 -2.436 -5.89 0c-0.024,0 -0.046,0.01 -0.062,0.026 -0.016,0.017 -0.026,0.039 -0.026,0.063l0 10.659c0,0.024 0.01,0.046 0.026,0.062 0.016,0.017 0.038,0.027 0.062,0.027l4.824 0z"/>
    <path class="fil2" d="M16.511 4.917l-2.299 0c-0.118,0 -0.214,-0.096 -0.214,-0.214l0 -2.299 2.513 2.513z"/>
    <path class="fil1" d="M16.511 5.051l-2.299 0c-0.096,0 -0.183,-0.039 -0.246,-0.102 -0.063,-0.063 -0.102,-0.15 -0.102,-0.246l0 -2.299c0,-0.074 0.06,-0.134 0.134,-0.134 0.037,0 0.071,0.016 0.096,0.041l2.511 2.512c0.052,0.052 0.052,0.137 0,0.189 -0.026,0.026 -0.06,0.039 -0.094,0.039zm-2.299 -0.267l1.977 0 -2.058 -2.058 0 1.977c0,0.022 0.009,0.042 0.024,0.057 0.014,0.015 0.034,0.024 0.057,0.024z"/>
    <path class="fil3" d="M9.681 5.73c0.087,-0.023 0.257,0.041 0.369,0.068 0.285,0.068 0.629,0.068 0.914,0 0.112,-0.027 0.282,-0.091 0.369,-0.068 0.086,0.023 0.283,0.163 0.302,0.385l0.057 0.658c0.005,0.056 -0.046,0.102 -0.102,0.102l-2.166 0c-0.056,0 -0.108,-0.046 -0.103,-0.102l0.058 -0.658c0.019,-0.222 0.216,-0.362 0.302,-0.385z"/>
    <path class="fil1" d="M9.648 5.601c0.1,-0.026 0.232,0.011 0.347,0.044l0.085 0.023c0.131,0.032 0.278,0.047 0.427,0.047 0.149,0 0.296,-0.015 0.427,-0.047l0.085 -0.023c0.116,-0.033 0.247,-0.07 0.347,-0.044 0.071,0.019 0.192,0.09 0.28,0.201 0.062,0.079 0.112,0.181 0.122,0.301l0.057 0.658 0.001 0.019c0,0.062 -0.026,0.118 -0.068,0.159 -0.039,0.038 -0.092,0.064 -0.147,0.069 -0.722,0.017 -1.463,0.001 -2.187,0.001l-0.021 -0.002c-0.056,-0.004 -0.108,-0.03 -0.147,-0.068 -0.042,-0.041 -0.068,-0.096 -0.068,-0.159 0.013,-0.224 0.038,-0.453 0.057,-0.677 0.011,-0.12 0.061,-0.222 0.123,-0.301 0.088,-0.111 0.208,-0.182 0.28,-0.201zm0.274 0.301c-0.083,-0.024 -0.178,-0.051 -0.208,-0.043 -0.03,0.008 -0.087,0.045 -0.136,0.108 -0.034,0.043 -0.061,0.097 -0.066,0.159l-0.054 0.616 2.098 0 -0.054 -0.616c-0.005,-0.062 -0.032,-0.116 -0.066,-0.159 -0.049,-0.063 -0.106,-0.1 -0.137,-0.108 -0.03,-0.008 -0.125,0.019 -0.208,0.043 -0.029,0.008 -0.057,0.016 -0.096,0.025 -0.154,0.037 -0.322,0.055 -0.488,0.055 -0.166,0 -0.334,-0.018 -0.488,-0.055 -0.037,-0.009 -0.064,-0.016 -0.091,-0.024l-0.006 -0.001z"/>
    <path class="fil3" d="M10.503 3.914c0.439,0 0.795,0.356 0.795,0.796 0,0.439 -0.356,0.795 -0.795,0.795 -0.439,0 -0.795,-0.356 -0.795,-0.795 0,-0.44 0.356,-0.796 0.795,-0.796z"/>
    <path class="fil1" d="M10.503 3.781c0.256,0 0.489,0.104 0.657,0.272l0.007 0.008c0.164,0.167 0.265,0.396 0.265,0.649 0,0.255 -0.104,0.488 -0.272,0.656 -0.169,0.168 -0.401,0.272 -0.657,0.272 -0.256,0 -0.488,-0.104 -0.656,-0.272 -0.169,-0.168 -0.273,-0.4 -0.273,-0.656 0,-0.257 0.104,-0.489 0.272,-0.657 0.169,-0.168 0.401,-0.272 0.657,-0.272zm0.468 0.461c-0.12,-0.12 -0.285,-0.194 -0.468,-0.194 -0.183,0 -0.349,0.074 -0.468,0.193 -0.12,0.12 -0.194,0.286 -0.194,0.469 0,0.182 0.074,0.348 0.194,0.467 0.119,0.12 0.285,0.194 0.468,0.194 0.183,0 0.349,-0.074 0.468,-0.193 0.12,-0.12 0.194,-0.286 0.194,-0.468 0,-0.18 -0.072,-0.343 -0.187,-0.462l-0.007 -0.006z"/>
    <path class="fil1" d="M9.321 8.456c-0.074,0 -0.134,-0.06 -0.134,-0.134 0,-0.073 0.06,-0.133 0.134,-0.133l5.699 0c0.074,0 0.134,0.06 0.134,0.133 0,0.074 -0.06,0.134 -0.134,0.134l-5.699 0z"/>
    <path class="fil1" d="M9.321 9.903c-0.074,0 -0.134,-0.059 -0.134,-0.133 0,-0.074 0.06,-0.134 0.134,-0.134l2.85 0c0.073,0 0.133,0.06 0.133,0.134 0,0.074 -0.06,0.133 -0.133,0.133l-2.85 0z"/>
    <path class="fil1" d="M12.441 7.053c-0.074,0 -0.134,-0.06 -0.134,-0.134 0,-0.073 0.06,-0.133 0.134,-0.133l2.579 0c0.074,0 0.134,0.06 0.134,0.133 0,0.074 -0.06,0.134 -0.134,0.134l-2.579 0z"/>
    <path class="fil1" d="M9.321 11.351c-0.074,0 -0.134,-0.06 -0.134,-0.134 0,-0.073 0.06,-0.133 0.134,-0.133l2.85 0c0.073,0 0.133,0.06 0.133,0.133 0,0.074 -0.06,0.134 -0.133,0.134l-2.85 0z"/>
    <polygon class="fil3" points="13.121,11.263 13.554,10.751 13.518,10.041 14.168,9.882 14.557,9.286 15.177,9.54 15.841,9.286 16.194,9.856 16.88,10.041 16.83,10.709 17.277,11.263 16.844,11.774 16.88,12.484 16.229,12.643 15.841,13.239 15.221,12.985 14.557,13.239 14.204,12.669 13.518,12.484 13.567,11.816 "/>
    <path class="fil1" d="M13.019 11.177l0.399 -0.472 -0.033 -0.658c-0.004,-0.066 0.042,-0.123 0.106,-0.136l0.594 -0.146 0.36 -0.551c0.037,-0.057 0.11,-0.077 0.17,-0.048l0.563 0.231 0.616 -0.235c0.064,-0.025 0.135,0.003 0.166,0.063l0.319 0.516 0.636 0.171c0.063,0.017 0.104,0.078 0.098,0.142l-0.046 0.613 0.414 0.512c0.04,0.051 0.038,0.122 -0.002,0.17l-0.399 0.471 0.033 0.658c0.003,0.066 -0.043,0.124 -0.106,0.137l-0.595 0.145 -0.359 0.552c-0.037,0.057 -0.11,0.076 -0.17,0.047l-0.563 -0.23 -0.616 0.235c-0.064,0.024 -0.135,-0.004 -0.166,-0.064l-0.319 -0.515 -0.636 -0.172c-0.064,-0.017 -0.104,-0.078 -0.098,-0.142l0.045 -0.612 -0.413 -0.513c-0.041,-0.05 -0.038,-0.122 0.002,-0.169zm0.636 -0.34l-0.361 0.428 0.374 0.463c0.022,0.026 0.035,0.061 0.032,0.097l-0.041 0.559 0.58 0.157c0.031,0.008 0.06,0.029 0.078,0.059l0.295 0.475 0.562 -0.214c0.03,-0.011 0.065,-0.012 0.097,0.001l0.518 0.212 0.329 -0.503c0.018,-0.028 0.046,-0.049 0.08,-0.057l0.544 -0.133 -0.031 -0.596c-0.003,-0.034 0.008,-0.069 0.031,-0.097l0.362 -0.427 -0.374 -0.464c-0.022,-0.026 -0.035,-0.06 -0.033,-0.097l0.042 -0.559 -0.58 -0.156c-0.032,-0.009 -0.06,-0.029 -0.079,-0.059l-0.294 -0.476 -0.562 0.215c-0.03,0.011 -0.065,0.011 -0.097,-0.002l-0.519 -0.212 -0.328 0.503c-0.018,0.028 -0.046,0.049 -0.08,0.057l-0.544 0.133 0.03 0.596c0.003,0.034 -0.007,0.069 -0.031,0.097z"/>
    <path class="fil1" d="M15.169 12.957c0.031,-0.066 0.111,-0.095 0.178,-0.064 0.067,0.031 0.096,0.11 0.064,0.177l-0.781 1.677c-0.031,0.067 -0.111,0.096 -0.178,0.065 -0.028,-0.014 -0.05,-0.036 -0.063,-0.061l-0.344 -0.558 -0.66 0.097c-0.073,0.01 -0.141,-0.04 -0.151,-0.113 -0.004,-0.027 0,-0.053 0.011,-0.076l0.71 -1.523c0.031,-0.066 0.11,-0.095 0.177,-0.064 0.067,0.031 0.096,0.11 0.065,0.177l-0.606 1.299 0.502 -0.074c0.051,-0.007 0.104,0.016 0.133,0.062l0.266 0.432 0.677 -1.453z"/>
    <path class="fil1" d="M15.4 13.979c-0.031,-0.066 -0.002,-0.146 0.064,-0.177 0.067,-0.031 0.147,-0.002 0.178,0.065l0.253 0.543 0.267 -0.432c0.028,-0.046 0.081,-0.069 0.132,-0.061l0.502 0.073 -0.606 -1.299c-0.031,-0.067 -0.002,-0.146 0.065,-0.177 0.067,-0.031 0.146,-0.002 0.177,0.064l0.71 1.523c0.011,0.023 0.015,0.049 0.011,0.076 -0.01,0.073 -0.078,0.123 -0.151,0.113l-0.66 -0.097 -0.344 0.558c-0.013,0.025 -0.035,0.047 -0.063,0.061 -0.067,0.031 -0.146,0.002 -0.178,-0.065l-0.357 -0.768z"/>
    <path class="fil4" d="M15.199 10.168c0.605,0 1.095,0.49 1.095,1.095 0,0.604 -0.49,1.095 -1.095,1.095 -0.605,0 -1.095,-0.491 -1.095,-1.095 0,-0.605 0.49,-1.095 1.095,-1.095z"/>
    <path class="fil1" d="M15.199 10.034c0.339,0 0.646,0.138 0.869,0.36 0.222,0.222 0.359,0.529 0.359,0.869 0,0.339 -0.137,0.646 -0.359,0.868 -0.223,0.223 -0.53,0.36 -0.869,0.36 -0.339,0 -0.647,-0.137 -0.869,-0.36 -0.222,-0.222 -0.36,-0.529 -0.36,-0.868 0,-0.34 0.138,-0.647 0.36,-0.869 0.222,-0.222 0.53,-0.36 0.869,-0.36zm0.68 0.549c-0.174,-0.174 -0.415,-0.282 -0.68,-0.282 -0.266,0 -0.506,0.108 -0.68,0.282 -0.174,0.174 -0.282,0.414 -0.282,0.68 0,0.265 0.108,0.506 0.282,0.68 0.174,0.173 0.414,0.281 0.68,0.281 0.265,0 0.506,-0.108 0.68,-0.281 0.174,-0.174 0.281,-0.415 0.281,-0.68 0,-0.266 -0.107,-0.506 -0.281,-0.68z"/>
   </g>
  </g>
 </g>
</svg>
