<?xml version="1.0" encoding="UTF-8"?>
<!DOCTYPE svg PUBLIC "-//W3C//DTD SVG 1.1//EN" "http://www.w3.org/Graphics/SVG/1.1/DTD/svg11.dtd">
<!-- Creator: CorelDRAW 2018 (64-Bit) -->
<svg xmlns="http://www.w3.org/2000/svg" xml:space="preserve" width="30px" height="30px" version="1.1" style="shape-rendering:geometricPrecision; text-rendering:geometricPrecision; image-rendering:optimizeQuality; fill-rule:evenodd; clip-rule:evenodd"
viewBox="0 0 2.062 2.062"
 xmlns:xlink="http://www.w3.org/1999/xlink">
 <defs>
  <style type="text/css">
   <![CDATA[
    .fil1 {fill:#1877F2}
    .fil0 {fill:white}
   ]]>
  </style>
 </defs>
 <g id="Layer_x0020_1">
  <metadata id="CorelCorpID_0Corel-Layer"/>
  <g id="_1776115970416">
   <path class="fil0" d="M1.031 0c0.57,0 1.031,0.462 1.031,1.031 0,0.57 -0.461,1.031 -1.031,1.031 -0.569,0 -1.031,-0.461 -1.031,-1.031 0,-0.569 0.462,-1.031 1.031,-1.031z"/>
   <path class="fil1" d="M1.031 0c0.57,0 1.031,0.462 1.031,1.031 0,0.515 -0.377,0.941 -0.87,1.019l0 -0.709 0.269 0 0.04 -0.313 -0.309 0 0 -0.198c0,-0.091 0.025,-0.152 0.155,-0.152l0.164 0 0 -0.277c-0.077,-0.008 -0.155,-0.013 -0.233,-0.013 -0.002,0 -0.005,0 -0.007,0 -0.238,0 -0.401,0.145 -0.401,0.412l0 0.229 -0.268 0 0 0.312 0.268 0 0 0.709c-0.493,-0.078 -0.87,-0.504 -0.87,-1.019 0,-0.569 0.462,-1.031 1.031,-1.031z"/>
  </g>
 </g>
</svg>
