<?xml version="1.0" encoding="UTF-8"?>
<!DOCTYPE svg PUBLIC "-//W3C//DTD SVG 1.1//EN" "http://www.w3.org/Graphics/SVG/1.1/DTD/svg11.dtd">
<!-- Creator: CorelDRAW 2018 (64-Bit) -->
<svg xmlns="http://www.w3.org/2000/svg" xml:space="preserve" width="30px" height="30px" version="1.1" style="shape-rendering:geometricPrecision; text-rendering:geometricPrecision; image-rendering:optimizeQuality; fill-rule:evenodd; clip-rule:evenodd"
viewBox="0 0 4.083 4.084"
 xmlns:xlink="http://www.w3.org/1999/xlink">
 <defs>
  <style type="text/css">
   <![CDATA[
    .fil0 {fill:#2867B2}
    .fil1 {fill:white}
   ]]>
  </style>
 </defs>
 <g id="Layer_x0020_1">
  <metadata id="CorelCorpID_0Corel-Layer"/>
  <g id="_1776118899600">
   <path class="fil0" d="M2.885 3.478l0 -0.933c0,-0.222 -0.004,-0.509 -0.311,-0.509 -0.31,0 -0.357,0.243 -0.357,0.493l0 0.949 -0.596 0 0 -1.919 0.572 0 0 0.263 0.008 0c0.08,-0.151 0.274,-0.31 0.564,-0.31 0.604,0 0.716,0.397 0.716,0.914l0 1.052 -0.596 0zm1.198 0.379l0 -3.63c0,-0.125 -0.102,-0.227 -0.226,-0.227l-3.63 0c-0.125,0 -0.227,0.102 -0.227,0.227l0 3.63c0,0.124 0.102,0.227 0.227,0.227l3.63 0c0.124,0 0.226,-0.103 0.226,-0.227zm-2.836 -2.298l0 1.919 -0.597 0 0 -1.919 0.597 0zm-0.299 -0.954c0.191,0 0.346,0.155 0.346,0.346 0,0.191 -0.155,0.346 -0.346,0.346 -0.191,0 -0.345,-0.155 -0.345,-0.346 0,-0.191 0.154,-0.346 0.345,-0.346z"/>
   <path class="fil1" d="M1.294 0.951c0,-0.191 -0.155,-0.346 -0.346,-0.346 -0.191,0 -0.345,0.155 -0.345,0.346 0,0.191 0.154,0.346 0.345,0.346 0.191,0 0.346,-0.155 0.346,-0.346z"/>
   <polygon class="fil1" points="1.247,1.559 0.65,1.559 0.65,3.478 1.247,3.478 "/>
   <path class="fil1" d="M1.621 1.559l0 1.919 0.596 0 0 -0.949c0,-0.25 0.047,-0.493 0.357,-0.493 0.307,0 0.311,0.287 0.311,0.509l0 0.933 0.596 0 0 -1.052c0,-0.517 -0.112,-0.914 -0.716,-0.914 -0.29,0 -0.484,0.159 -0.564,0.31l-0.008 0 0 -0.263 -0.572 0z"/>
  </g>
 </g>
</svg>
