<?xml version="1.0" encoding="UTF-8"?>
<!DOCTYPE svg PUBLIC "-//W3C//DTD SVG 1.1//EN" "http://www.w3.org/Graphics/SVG/1.1/DTD/svg11.dtd">
<!-- Creator: CorelDRAW 2018 (64-Bit) -->
<svg xmlns="http://www.w3.org/2000/svg" xml:space="preserve" width="30px" height="30px" version="1.1" style="shape-rendering:geometricPrecision; text-rendering:geometricPrecision; image-rendering:optimizeQuality; fill-rule:evenodd; clip-rule:evenodd"
viewBox="0 0 1.653 1.653"
 xmlns:xlink="http://www.w3.org/1999/xlink">
 <defs>
  <style type="text/css">
   <![CDATA[
    .fil0 {fill:#4680C2}
    .fil1 {fill:white}
   ]]>
  </style>
 </defs>
 <g id="Layer_x0020_1">
  <metadata id="CorelCorpID_0Corel-Layer"/>
  <g id="_1776116599888">
   <path class="fil0" d="M0.573 0l0.507 0c0.463,0 0.573,0.11 0.573,0.573l0 0.507c0,0.463 -0.11,0.573 -0.573,0.573l-0.507 0c-0.463,0 -0.573,-0.11 -0.573,-0.573l0 -0.507c0,-0.463 0.11,-0.573 0.573,-0.573z"/>
   <path class="fil1" d="M1.354 0.57c0.008,-0.026 0,-0.045 -0.036,-0.045l-0.121 0c-0.031,0 -0.045,0.016 -0.052,0.034 0,0 -0.062,0.15 -0.149,0.247 -0.028,0.028 -0.04,0.037 -0.056,0.037 -0.007,0 -0.019,-0.009 -0.019,-0.035l0 -0.238c0,-0.031 -0.008,-0.045 -0.034,-0.045l-0.189 0c-0.02,0 -0.031,0.014 -0.031,0.028 0,0.029 0.043,0.036 0.048,0.117l0 0.178c0,0.039 -0.007,0.046 -0.023,0.046 -0.04,0 -0.14,-0.15 -0.199,-0.322 -0.011,-0.033 -0.023,-0.047 -0.054,-0.047l-0.12 0c-0.035,0 -0.042,0.016 -0.042,0.034 0,0.032 0.041,0.191 0.191,0.4 0.099,0.143 0.24,0.221 0.367,0.221 0.077,0 0.086,-0.018 0.086,-0.047l0 -0.108c0,-0.035 0.008,-0.042 0.032,-0.042 0.018,0 0.048,0.009 0.12,0.078 0.082,0.082 0.095,0.119 0.141,0.119l0.121 0c0.034,0 0.051,-0.018 0.041,-0.052 -0.01,-0.033 -0.049,-0.083 -0.101,-0.141 -0.028,-0.033 -0.07,-0.069 -0.083,-0.087 -0.018,-0.023 -0.013,-0.033 0,-0.053 0,0 0.147,-0.207 0.162,-0.277z"/>
  </g>
 </g>
</svg>
