<?xml version="1.0" encoding="UTF-8"?>
<!DOCTYPE svg PUBLIC "-//W3C//DTD SVG 1.1//EN" "http://www.w3.org/Graphics/SVG/1.1/DTD/svg11.dtd">
<!-- Creator: CorelDRAW 2018 (64-Bit) -->
<svg xmlns="http://www.w3.org/2000/svg" xml:space="preserve" width="48px" height="48px" version="1.1" style="shape-rendering:geometricPrecision; text-rendering:geometricPrecision; image-rendering:optimizeQuality; fill-rule:evenodd; clip-rule:evenodd"
viewBox="0 0 1.708 1.708"
 xmlns:xlink="http://www.w3.org/1999/xlink">
 <defs>
  <style type="text/css">
   <![CDATA[
    .fil0 {fill:none}
    .fil2 {fill:#A3AEBA}
    .fil1 {fill:#A3AEBA;fill-rule:nonzero}
   ]]>
  </style>
 </defs>
 <g id="Layer_x0020_1">
  <metadata id="CorelCorpID_0Corel-Layer"/>
  <g id="_2381095587248">
   <rect class="fil0" width="1.708" height="1.708"/>
   <g>
    <path class="fil1" d="M0.854 0.036c0.226,0 0.431,0.091 0.579,0.239 0.148,0.148 0.24,0.353 0.24,0.579 0,0.226 -0.092,0.431 -0.24,0.579 -0.148,0.148 -0.353,0.24 -0.579,0.24 -0.226,0 -0.431,-0.092 -0.579,-0.24 -0.148,-0.148 -0.239,-0.353 -0.239,-0.579 0,-0.226 0.091,-0.431 0.239,-0.579 0.148,-0.148 0.353,-0.239 0.579,-0.239zm0.529 0.29c-0.136,-0.136 -0.322,-0.219 -0.529,-0.219 -0.206,0 -0.393,0.083 -0.528,0.219 -0.136,0.135 -0.219,0.322 -0.219,0.528 0,0.207 0.083,0.393 0.219,0.529 0.135,0.135 0.322,0.219 0.528,0.219 0.207,0 0.393,-0.084 0.529,-0.219 0.135,-0.136 0.219,-0.322 0.219,-0.529 0,-0.206 -0.084,-0.393 -0.219,-0.528z"/>
    <path class="fil2" d="M1.157 0.694c0.05,0 0.09,0.04 0.09,0.09 0,0.05 -0.04,0.091 -0.09,0.091 -0.051,0 -0.091,-0.041 -0.091,-0.091 0,-0.05 0.04,-0.09 0.091,-0.09z"/>
    <path class="fil2" d="M0.552 0.694c-0.05,0 -0.091,0.04 -0.091,0.09 0,0.05 0.041,0.091 0.091,0.091 0.05,0 0.091,-0.041 0.091,-0.091 0,-0.05 -0.041,-0.09 -0.091,-0.09z"/>
    <path class="fil1" d="M0.533 1.209c-0.014,0.013 -0.037,0.012 -0.05,-0.002 -0.013,-0.015 -0.012,-0.037 0.002,-0.05 0.045,-0.042 0.102,-0.076 0.166,-0.099 0.062,-0.022 0.131,-0.034 0.203,-0.034 0.073,0 0.141,0.012 0.203,0.034 0.064,0.023 0.121,0.057 0.166,0.099 0.015,0.013 0.015,0.035 0.002,0.05 -0.013,0.014 -0.036,0.015 -0.05,0.002 -0.038,-0.035 -0.086,-0.064 -0.142,-0.084 -0.054,-0.019 -0.115,-0.03 -0.179,-0.03 -0.064,0 -0.125,0.011 -0.179,0.03 -0.056,0.02 -0.104,0.049 -0.142,0.084z"/>
   </g>
  </g>
 </g>
</svg>
