<?xml version="1.0" encoding="UTF-8"?>
<!DOCTYPE svg PUBLIC "-//W3C//DTD SVG 1.1//EN" "http://www.w3.org/Graphics/SVG/1.1/DTD/svg11.dtd">
<!-- Creator: CorelDRAW 2018 (64-Bit) -->
<svg xmlns="http://www.w3.org/2000/svg" xml:space="preserve" width="48px" height="48px" version="1.1" style="shape-rendering:geometricPrecision; text-rendering:geometricPrecision; image-rendering:optimizeQuality; fill-rule:evenodd; clip-rule:evenodd"
viewBox="0 0 6.095 6.095"
 xmlns:xlink="http://www.w3.org/1999/xlink">
 <defs>
  <style type="text/css">
   <![CDATA[
    .fil0 {fill:none}
    .fil1 {fill:#00F4FF}
    .fil2 {fill:#008A90;fill-rule:nonzero}
   ]]>
  </style>
 </defs>
 <g id="Layer_x0020_1">
  <metadata id="CorelCorpID_0Corel-Layer"/>
  <g id="_2381149378112">
   <rect class="fil0" width="6.095" height="6.095"/>
   <g>
    <path class="fil1" d="M3.048 0.254c1.543,0 2.793,1.251 2.793,2.794 0,1.542 -1.25,2.793 -2.793,2.793 -1.543,0 -2.794,-1.251 -2.794,-2.793 0,-1.543 1.251,-2.794 2.794,-2.794z"/>
    <path class="fil2" d="M3.048 0.127c0.806,0 1.536,0.327 2.065,0.855 0.528,0.529 0.855,1.259 0.855,2.066 0,0.806 -0.327,1.536 -0.855,2.065 -0.529,0.528 -1.259,0.855 -2.065,0.855 -0.807,0 -1.537,-0.327 -2.066,-0.855 -0.528,-0.529 -0.855,-1.259 -0.855,-2.065 0,-0.807 0.327,-1.537 0.855,-2.066 0.529,-0.528 1.259,-0.855 2.066,-0.855zm1.885 1.035c-0.482,-0.483 -1.149,-0.781 -1.885,-0.781 -0.737,0 -1.404,0.298 -1.886,0.781 -0.483,0.482 -0.781,1.149 -0.781,1.886 0,0.736 0.298,1.403 0.781,1.885 0.482,0.483 1.149,0.781 1.886,0.781 0.736,0 1.403,-0.298 1.885,-0.781 0.483,-0.482 0.781,-1.149 0.781,-1.885 0,-0.737 -0.298,-1.404 -0.781,-1.886z"/>
    <path class="fil2" d="M4.122 2.165c0.062,-0.033 0.139,-0.011 0.172,0.051 0.033,0.061 0.011,0.138 -0.051,0.171l-0.396 0.218 0.397 0.222c0.062,0.034 0.084,0.111 0.05,0.172 -0.034,0.061 -0.111,0.083 -0.173,0.049l-0.597 -0.334c-0.021,-0.011 -0.038,-0.028 -0.05,-0.05 -0.033,-0.061 -0.011,-0.138 0.051,-0.172l0.597 -0.327z"/>
    <path class="fil2" d="M1.852 2.387c-0.061,-0.033 -0.084,-0.11 -0.051,-0.171 0.034,-0.062 0.111,-0.084 0.172,-0.051l0.598 0.327c0.061,0.034 0.084,0.111 0.05,0.172 -0.012,0.022 -0.029,0.039 -0.049,0.05l-0.598 0.334c-0.061,0.034 -0.138,0.012 -0.172,-0.049 -0.034,-0.061 -0.012,-0.138 0.049,-0.172l0.398 -0.222 -0.397 -0.218z"/>
    <path class="fil2" d="M3.048 3.546l1.067 0c0.07,0 0.127,0.057 0.127,0.127 0,0.33 -0.134,0.629 -0.35,0.845 -0.216,0.216 -0.515,0.35 -0.844,0.35 -0.33,0 -0.629,-0.134 -0.845,-0.35 -0.216,-0.216 -0.35,-0.515 -0.35,-0.845 0,-0.07 0.057,-0.127 0.127,-0.127l1.068 0zm0.932 0.254l-1.864 0c0.028,0.209 0.125,0.397 0.266,0.539 0.171,0.17 0.406,0.275 0.666,0.275 0.259,0 0.495,-0.105 0.665,-0.275 0.142,-0.142 0.239,-0.33 0.267,-0.539z"/>
   </g>
  </g>
 </g>
</svg>
