<?xml version="1.0" encoding="UTF-8"?>
<!DOCTYPE svg PUBLIC "-//W3C//DTD SVG 1.1//EN" "http://www.w3.org/Graphics/SVG/1.1/DTD/svg11.dtd">
<!-- Creator: CorelDRAW 2018 (64-Bit) -->
<svg xmlns="http://www.w3.org/2000/svg" xml:space="preserve" width="48px" height="48px" version="1.1" style="shape-rendering:geometricPrecision; text-rendering:geometricPrecision; image-rendering:optimizeQuality; fill-rule:evenodd; clip-rule:evenodd"
viewBox="0 0 2.725 2.725"
 xmlns:xlink="http://www.w3.org/1999/xlink">
 <defs>
  <style type="text/css">
   <![CDATA[
    .fil0 {fill:none}
    .fil1 {fill:#C2FF61}
    .fil2 {fill:#67A800;fill-rule:nonzero}
   ]]>
  </style>
 </defs>
 <g id="Layer_x0020_1">
  <metadata id="CorelCorpID_0Corel-Layer"/>
  <g id="_2381098041872">
   <rect class="fil0" width="2.725" height="2.725"/>
   <g>
    <path class="fil1" d="M1.362 0.114c0.69,0 1.249,0.559 1.249,1.248 0,0.69 -0.559,1.249 -1.249,1.249 -0.689,0 -1.248,-0.559 -1.248,-1.249 0,-0.689 0.559,-1.248 1.248,-1.248z"/>
    <path class="fil2" d="M1.362 0.057c0.361,0 0.687,0.146 0.923,0.382 0.237,0.236 0.383,0.563 0.383,0.923 0,0.361 -0.146,0.687 -0.383,0.923 -0.236,0.237 -0.562,0.383 -0.923,0.383 -0.36,0 -0.687,-0.146 -0.923,-0.383 -0.236,-0.236 -0.382,-0.562 -0.382,-0.923 0,-0.36 0.146,-0.687 0.382,-0.923 0.236,-0.236 0.563,-0.382 0.923,-0.382zm0.843 0.462c-0.216,-0.215 -0.514,-0.349 -0.843,-0.349 -0.329,0 -0.627,0.134 -0.843,0.349 -0.215,0.216 -0.349,0.514 -0.349,0.843 0,0.329 0.134,0.627 0.349,0.843 0.216,0.216 0.514,0.349 0.843,0.349 0.329,0 0.627,-0.133 0.843,-0.349 0.216,-0.216 0.349,-0.514 0.349,-0.843 0,-0.329 -0.133,-0.627 -0.349,-0.843z"/>
    <path class="fil2" d="M1.667 1.259c0,0.031 -0.026,0.056 -0.057,0.056 -0.032,0 -0.057,-0.025 -0.057,-0.056 0,-0.086 0.035,-0.164 0.091,-0.221 0.057,-0.056 0.135,-0.091 0.221,-0.091 0.086,0 0.163,0.035 0.22,0.091 0.056,0.057 0.091,0.135 0.091,0.221 0,0.031 -0.025,0.056 -0.057,0.056 -0.031,0 -0.056,-0.025 -0.056,-0.056 0,-0.055 -0.023,-0.105 -0.058,-0.141 -0.036,-0.035 -0.086,-0.057 -0.14,-0.057 -0.055,0 -0.105,0.022 -0.14,0.057 -0.036,0.036 -0.058,0.086 -0.058,0.141z"/>
    <path class="fil2" d="M1.797 1.687c0.009,-0.03 0.041,-0.047 0.071,-0.037 0.03,0.009 0.046,0.041 0.037,0.07 -0.032,0.107 -0.105,0.2 -0.203,0.264 -0.095,0.063 -0.212,0.1 -0.34,0.1 -0.127,0 -0.245,-0.037 -0.339,-0.1 -0.098,-0.064 -0.171,-0.157 -0.204,-0.264 -0.009,-0.03 0.008,-0.061 0.038,-0.07 0.03,-0.009 0.061,0.007 0.07,0.037 0.025,0.081 0.082,0.152 0.158,0.203 0.077,0.05 0.173,0.08 0.277,0.08 0.105,0 0.201,-0.03 0.277,-0.08 0.077,-0.051 0.133,-0.122 0.158,-0.203z"/>
    <path class="fil2" d="M1.171 1.259c0,0.031 -0.025,0.056 -0.056,0.056 -0.032,0 -0.057,-0.025 -0.057,-0.056 0,-0.055 -0.022,-0.105 -0.058,-0.141l-0.003 -0.002c-0.035,-0.034 -0.083,-0.055 -0.137,-0.055 -0.055,0 -0.104,0.022 -0.14,0.057 -0.036,0.036 -0.058,0.086 -0.058,0.141 0,0.031 -0.025,0.056 -0.057,0.056 -0.031,0 -0.057,-0.025 -0.057,-0.056 0,-0.086 0.035,-0.164 0.092,-0.221 0.056,-0.056 0.134,-0.091 0.22,-0.091 0.084,0 0.16,0.034 0.217,0.088l0.003 0.003c0.057,0.057 0.091,0.135 0.091,0.221z"/>
   </g>
  </g>
 </g>
</svg>
