<?xml version="1.0" encoding="UTF-8"?>
<!DOCTYPE svg PUBLIC "-//W3C//DTD SVG 1.1//EN" "http://www.w3.org/Graphics/SVG/1.1/DTD/svg11.dtd">
<!-- Creator: CorelDRAW 2018 (64-Bit) -->
<svg xmlns="http://www.w3.org/2000/svg" xml:space="preserve" width="48px" height="48px" version="1.1" style="shape-rendering:geometricPrecision; text-rendering:geometricPrecision; image-rendering:optimizeQuality; fill-rule:evenodd; clip-rule:evenodd"
viewBox="0 0 3.796 3.796"
 xmlns:xlink="http://www.w3.org/1999/xlink">
 <defs>
  <style type="text/css">
   <![CDATA[
    .fil0 {fill:none}
    .fil1 {fill:#A3AEBA;fill-rule:nonzero}
   ]]>
  </style>
 </defs>
 <g id="Layer_x0020_1">
  <metadata id="CorelCorpID_0Corel-Layer"/>
  <g id="_2381095315792">
   <rect class="fil0" width="3.796" height="3.796"/>
   <g>
    <path class="fil1" d="M1.898 0.079c0.502,0 0.957,0.204 1.286,0.533 0.33,0.329 0.533,0.784 0.533,1.286 0,0.502 -0.203,0.957 -0.533,1.286 -0.329,0.33 -0.784,0.533 -1.286,0.533 -0.502,0 -0.957,-0.203 -1.286,-0.533 -0.329,-0.329 -0.533,-0.784 -0.533,-1.286 0,-0.502 0.204,-0.957 0.533,-1.286 0.329,-0.329 0.784,-0.533 1.286,-0.533zm1.175 0.645c-0.301,-0.301 -0.716,-0.487 -1.175,-0.487 -0.459,0 -0.874,0.186 -1.174,0.487 -0.301,0.3 -0.487,0.716 -0.487,1.174 0,0.459 0.186,0.874 0.487,1.175 0.3,0.3 0.715,0.486 1.174,0.486 0.459,0 0.874,-0.186 1.175,-0.486 0.3,-0.301 0.486,-0.716 0.486,-1.175 0,-0.458 -0.186,-0.874 -0.486,-1.174z"/>
    <path class="fil1" d="M1.898 2.209l0.665 0c0.044,0 0.079,0.035 0.079,0.079 0,0.205 -0.083,0.391 -0.218,0.526 -0.134,0.135 -0.32,0.218 -0.526,0.218 -0.205,0 -0.391,-0.083 -0.526,-0.218 -0.135,-0.135 -0.218,-0.321 -0.218,-0.526 0,-0.044 0.036,-0.079 0.079,-0.079l0.665 0zm0.581 0.158l-1.161 0c0.017,0.13 0.077,0.247 0.166,0.335 0.106,0.106 0.252,0.172 0.414,0.172 0.162,0 0.308,-0.066 0.414,-0.172 0.089,-0.088 0.149,-0.205 0.167,-0.335z"/>
    <path class="fil1" d="M2.322 1.754c0,0.043 -0.035,0.079 -0.079,0.079 -0.044,0 -0.079,-0.036 -0.079,-0.079 0,-0.12 0.049,-0.228 0.127,-0.307 0.079,-0.079 0.187,-0.127 0.307,-0.127 0.12,0 0.228,0.048 0.307,0.127l0 0c0.079,0.079 0.127,0.187 0.127,0.307 0,0.043 -0.035,0.079 -0.079,0.079 -0.044,0 -0.079,-0.036 -0.079,-0.079 0,-0.077 -0.031,-0.146 -0.081,-0.195l0 -0.001c-0.05,-0.049 -0.119,-0.08 -0.195,-0.08 -0.076,0 -0.145,0.031 -0.195,0.08 -0.05,0.05 -0.081,0.119 -0.081,0.196z"/>
    <path class="fil1" d="M1.632 1.754c0,0.043 -0.035,0.079 -0.079,0.079 -0.043,0 -0.079,-0.036 -0.079,-0.079 0,-0.077 -0.031,-0.146 -0.081,-0.195l-0.003 -0.004c-0.05,-0.048 -0.117,-0.077 -0.192,-0.077 -0.076,0 -0.145,0.031 -0.195,0.081 -0.05,0.049 -0.081,0.118 -0.081,0.195 0,0.043 -0.035,0.079 -0.079,0.079 -0.043,0 -0.079,-0.036 -0.079,-0.079 0,-0.12 0.049,-0.229 0.127,-0.307 0.079,-0.079 0.187,-0.127 0.307,-0.127 0.117,0 0.224,0.046 0.302,0.122l0.005 0.005c0.079,0.078 0.127,0.187 0.127,0.307z"/>
   </g>
  </g>
 </g>
</svg>
