<?xml version="1.0" encoding="UTF-8"?>
<!DOCTYPE svg PUBLIC "-//W3C//DTD SVG 1.1//EN" "http://www.w3.org/Graphics/SVG/1.1/DTD/svg11.dtd">
<!-- Creator: CorelDRAW 2018 (64-Bit) -->
<svg xmlns="http://www.w3.org/2000/svg" xml:space="preserve" width="48px" height="48px" version="1.1" style="shape-rendering:geometricPrecision; text-rendering:geometricPrecision; image-rendering:optimizeQuality; fill-rule:evenodd; clip-rule:evenodd"
viewBox="0 0 2.093 2.093"
 xmlns:xlink="http://www.w3.org/1999/xlink">
 <defs>
  <style type="text/css">
   <![CDATA[
    .fil0 {fill:none}
    .fil3 {fill:#D69600}
    .fil1 {fill:#FFDD00}
    .fil2 {fill:#D69600;fill-rule:nonzero}
   ]]>
  </style>
 </defs>
 <g id="Layer_x0020_1">
  <metadata id="CorelCorpID_0Corel-Layer"/>
  <g id="_2380765938720">
   <rect class="fil0" width="2.093" height="2.093"/>
   <g>
    <path class="fil1" d="M1.047 0.087c0.529,0 0.959,0.43 0.959,0.96 0,0.529 -0.43,0.959 -0.959,0.959 -0.53,0 -0.96,-0.43 -0.96,-0.959 0,-0.53 0.43,-0.96 0.96,-0.96z"/>
    <path class="fil2" d="M1.047 0.044c0.277,0 0.527,0.112 0.709,0.293 0.181,0.182 0.294,0.433 0.294,0.71 0,0.277 -0.113,0.527 -0.294,0.709 -0.182,0.181 -0.432,0.294 -0.709,0.294 -0.277,0 -0.528,-0.113 -0.71,-0.294 -0.181,-0.182 -0.293,-0.432 -0.293,-0.709 0,-0.277 0.112,-0.528 0.293,-0.71 0.182,-0.181 0.433,-0.293 0.71,-0.293zm0.647 0.355c-0.166,-0.166 -0.395,-0.268 -0.647,-0.268 -0.253,0 -0.482,0.102 -0.648,0.268 -0.166,0.166 -0.268,0.395 -0.268,0.648 0,0.252 0.102,0.481 0.268,0.647 0.166,0.166 0.395,0.268 0.648,0.268 0.252,0 0.481,-0.102 0.647,-0.268 0.166,-0.166 0.268,-0.395 0.268,-0.647 0,-0.253 -0.102,-0.482 -0.268,-0.648z"/>
    <path class="fil3" d="M1.417 0.85c0.062,0 0.111,0.05 0.111,0.111 0,0.062 -0.049,0.111 -0.111,0.111 -0.061,0 -0.111,-0.049 -0.111,-0.111 0,-0.061 0.05,-0.111 0.111,-0.111z"/>
    <path class="fil3" d="M0.676 0.85c-0.061,0 -0.111,0.05 -0.111,0.111 0,0.062 0.05,0.111 0.111,0.111 0.061,0 0.111,-0.049 0.111,-0.111 0,-0.061 -0.05,-0.111 -0.111,-0.111z"/>
    <path class="fil2" d="M0.684 1.379c-0.024,0 -0.043,-0.02 -0.043,-0.044 0,-0.024 0.019,-0.043 0.043,-0.043l0.725 0c0.024,0 0.043,0.019 0.043,0.043 0,0.024 -0.019,0.044 -0.043,0.044l-0.725 0z"/>
   </g>
  </g>
 </g>
</svg>
