<?xml version="1.0" encoding="UTF-8"?>
<!DOCTYPE svg PUBLIC "-//W3C//DTD SVG 1.1//EN" "http://www.w3.org/Graphics/SVG/1.1/DTD/svg11.dtd">
<!-- Creator: CorelDRAW 2018 (64-Bit) -->
<svg xmlns="http://www.w3.org/2000/svg" xml:space="preserve" width="48px" height="48px" version="1.1" style="shape-rendering:geometricPrecision; text-rendering:geometricPrecision; image-rendering:optimizeQuality; fill-rule:evenodd; clip-rule:evenodd"
viewBox="0 0 1.431 1.431"
 xmlns:xlink="http://www.w3.org/1999/xlink">
 <defs>
  <style type="text/css">
   <![CDATA[
    .fil0 {fill:none}
    .fil1 {fill:#FF6633}
    .fil2 {fill:#6A1A00;fill-rule:nonzero}
   ]]>
  </style>
 </defs>
 <g id="Layer_x0020_1">
  <metadata id="CorelCorpID_0Corel-Layer"/>
  <g id="_2381084835264">
   <rect class="fil0" width="1.431" height="1.431"/>
   <g>
    <path class="fil1" d="M0.715 0.06c0.362,0 0.656,0.293 0.656,0.655 0,0.362 -0.294,0.656 -0.656,0.656 -0.362,0 -0.655,-0.294 -0.655,-0.656 0,-0.362 0.293,-0.655 0.655,-0.655z"/>
    <path class="fil2" d="M0.715 0.03c0.19,0 0.361,0.077 0.485,0.201 0.124,0.124 0.201,0.295 0.201,0.484 0,0.19 -0.077,0.361 -0.201,0.485 -0.124,0.124 -0.295,0.201 -0.485,0.201 -0.189,0 -0.36,-0.077 -0.484,-0.201 -0.124,-0.124 -0.201,-0.295 -0.201,-0.485 0,-0.189 0.077,-0.36 0.201,-0.484 0.124,-0.124 0.295,-0.201 0.484,-0.201zm0.443 0.243c-0.113,-0.114 -0.27,-0.184 -0.443,-0.184 -0.173,0 -0.329,0.07 -0.442,0.184 -0.114,0.113 -0.184,0.269 -0.184,0.442 0,0.173 0.07,0.33 0.184,0.443 0.113,0.113 0.269,0.183 0.442,0.183 0.173,0 0.33,-0.07 0.443,-0.183 0.113,-0.113 0.183,-0.27 0.183,-0.443 0,-0.173 -0.07,-0.329 -0.183,-0.442z"/>
    <path class="fil2" d="M0.968 0.586c0.014,-0.007 0.032,-0.002 0.04,0.012 0.008,0.015 0.002,0.033 -0.012,0.041l-0.038 0.021 0.047 0c0.017,0 0.03,0.013 0.03,0.029 0,0.017 -0.013,0.03 -0.03,0.03l-0.164 0 0 0c-0.01,0 -0.02,-0.006 -0.026,-0.015 -0.007,-0.015 -0.002,-0.033 0.012,-0.041l0.141 -0.077z"/>
    <path class="fil2" d="M0.715 1.005l0.177 0c-0.006,-0.038 -0.024,-0.072 -0.05,-0.097l0 0c-0.032,-0.033 -0.077,-0.053 -0.127,-0.053 -0.049,0 -0.094,0.02 -0.126,0.053 -0.026,0.026 -0.044,0.059 -0.05,0.097l0.176 0zm0.209 0.059l-0.418 0c-0.016,0 -0.029,-0.013 -0.029,-0.03 0,-0.066 0.026,-0.125 0.07,-0.168 0.043,-0.044 0.102,-0.07 0.168,-0.07 0.066,0 0.126,0.026 0.169,0.07 0.043,0.043 0.07,0.103 0.07,0.168 0,0.017 -0.013,0.03 -0.03,0.03z"/>
    <path class="fil2" d="M0.435 0.639c-0.015,-0.008 -0.02,-0.026 -0.012,-0.041 0.008,-0.014 0.026,-0.019 0.04,-0.012l0.14 0.077c0.015,0.008 0.02,0.026 0.012,0.041 -0.005,0.009 -0.015,0.015 -0.026,0.015l0 0 -0.164 0c-0.016,0 -0.029,-0.013 -0.029,-0.03 0,-0.016 0.013,-0.029 0.029,-0.029l0.048 0 -0.038 -0.021z"/>
   </g>
  </g>
 </g>
</svg>
