<svg xmlns="http://www.w3.org/2000/svg" width="37.035" height="26.26" viewBox="0 0 37.035 26.26">
  <g id="Bedroom" transform="translate(-436.982 -853)">
    <g id="Path_810" data-name="Path 810" transform="translate(441.328 853)" fill="#fff">
      <path d="M 26.79608917236328 18.71219062805176 C 26.42948532104492 18.42347526550293 25.9057559967041 17.92933082580566 25.5200309753418 17.56539154052734 C 24.10182189941406 16.2272834777832 23.18658638000488 15.41422939300537 22.44377326965332 15.41244506835938 L 1.778951287269592 15.20203113555908 L 1.776411294937134 15.20200157165527 L 1.773861289024353 15.20200157165527 C 1.22026526927948 15.20200157165527 0.8143137693405151 15.64481830596924 0.4941260814666748 16.32125282287598 L 0.5025213360786438 2.644421577453613 C 0.5025213360786438 1.461841583251953 1.302481293678284 0.5000016093254089 2.285771369934082 0.5000016093254089 L 25.11836051940918 0.5000016093254089 C 26.10165214538574 0.5000016093254089 26.901611328125 1.461841583251953 26.901611328125 2.644111633300781 L 26.79608917236328 18.71219062805176 Z" stroke="none"/>
      <path d="M 2.285770416259766 1.000001907348633 C 1.590171813964844 1.000001907348633 1.002511978149414 1.752912521362305 1.002511978149414 2.644721984863281 L 0.9949874877929688 14.91296005249023 C 1.223346710205078 14.77660179138184 1.480899810791016 14.70200157165527 1.773860931396484 14.70200157165527 L 1.778951644897461 14.70200157165527 L 1.784040451049805 14.70205116271973 L 22.44810104370117 14.91245651245117 C 23.39343643188477 14.91658687591553 24.36255264282227 15.78579044342041 25.86344146728516 17.20186233520508 C 25.99656295776367 17.32746124267578 26.14815139770508 17.47048187255859 26.30328369140625 17.61452484130859 L 26.40160942077637 2.640996932983398 C 26.40024757385254 1.751152038574219 25.81314468383789 1.000001907348633 25.11836051940918 1.000001907348633 L 2.285770416259766 1.000001907348633 M 2.285770416259766 1.9073486328125e-06 L 25.11836051940918 1.9073486328125e-06 C 26.37937164306641 1.9073486328125e-06 27.401611328125 1.183811187744141 27.401611328125 2.644111633300781 L 27.29317092895508 19.1581916809082 C 27.29317092895508 19.35427856445313 27.22833442687988 19.43922805786133 27.11318016052246 19.43922805786133 C 26.37075042724609 19.43922805786133 23.53300666809082 15.91244125366211 22.44132232666016 15.91244125366211 L 1.773860931396484 15.70200157165527 C 0.6673221588134766 15.70200157165527 0.1308498382568359 19.73054313659668 0.01602363586425781 19.73054313659668 C -5.7220458984375e-06 19.73054313659668 -0.007808685302734375 19.6521053314209 -0.007808685302734375 19.47322082519531 L 0.002511978149414063 2.644111633300781 C 0.002511978149414063 1.183811187744141 1.024761199951172 1.9073486328125e-06 2.285770416259766 1.9073486328125e-06 Z" stroke="none" fill="gray"/>
    </g>
    <g id="Rectangle_343" data-name="Rectangle 343" transform="translate(456.035 855.44)" fill="#00f4ff" stroke="gray" stroke-width="1">
      <rect width="9" height="13" rx="2" stroke="none"/>
      <rect x="0.5" y="0.5" width="8" height="12" rx="1.5" fill="none"/>
    </g>
    <g id="Rectangle_344" data-name="Rectangle 344" transform="translate(444.68 855.648)" fill="#00f4ff" stroke="gray" stroke-width="1">
      <rect width="9" height="13" rx="2" stroke="none"/>
      <rect x="0.5" y="0.5" width="8" height="12" rx="1.5" fill="none"/>
    </g>
    <path id="Path_808" data-name="Path 808" d="M-21686,10919v2.872" transform="translate(22159.357 -10043.111)" fill="none" stroke="gray" stroke-linecap="square" stroke-width="1"/>
    <path id="Path_809" data-name="Path 809" d="M-21686,10919v2.872" transform="translate(22123.594 -10043.111)" fill="none" stroke="gray" stroke-linecap="square" stroke-width="1"/>
    <g id="Path_811" data-name="Path 811" transform="translate(437 863.576)" fill="#fff">
      <path d="M 36.50347137451172 8.754397392272949 L 0.5141083002090454 8.754397392272949 C 0.7743207812309265 4.15912389755249 4.595147132873535 0.4999972581863403 9.254399299621582 0.4999972581863403 L 27.76317977905273 0.4999972581863403 C 32.42243194580078 0.4999972581863403 36.24325561523438 4.15912389755249 36.50347137451172 8.754397392272949 Z" stroke="none"/>
      <path d="M 9.254398345947266 0.9999971389770508 C 5.041271209716797 0.9999971389770508 1.555263519287109 4.172659397125244 1.060237884521484 8.254397392272949 L 35.95734024047852 8.254397392272949 C 35.46231460571289 4.172659397125244 31.9763069152832 0.9999971389770508 27.76317977905273 0.9999971389770508 L 9.254398345947266 0.9999971389770508 M 9.254398345947266 -2.86102294921875e-06 L 27.76317977905273 -2.86102294921875e-06 C 32.87424850463867 -2.86102294921875e-06 37.017578125 4.143337249755859 37.017578125 9.254397392272949 L 0 9.254397392272949 C 0 4.143337249755859 4.143329620361328 -2.86102294921875e-06 9.254398345947266 -2.86102294921875e-06 Z" stroke="none" fill="gray"/>
    </g>
    <path id="Path_813" data-name="Path 813" d="M-21656.668,10915.052l.137,2.988h35.715V10915" transform="translate(22094.15 -10042.491)" fill="#00f4ff" stroke="gray" stroke-width="1"/>
  </g>
</svg>
