<svg xmlns="http://www.w3.org/2000/svg" width="37" height="37.915" viewBox="0 0 37 37.915">
  <g id="Group_417" data-name="Group 417" transform="translate(-843 -837)">
    <g id="Path_864" data-name="Path 864" transform="translate(845 856)" fill="none">
      <path d="M0,0H33c0,8.284-.984,15-9.269,15H9.93C2.2,15,0,8.732,0,1Z" stroke="none"/>
      <path d="M 1 1 C 1 5.095060348510742 1.647150039672852 8.25298023223877 2.923469543457031 10.38603973388672 C 4.378549575805664 12.8178596496582 6.670309066772461 14 9.929689407348633 14 L 23.7314395904541 14 C 27.16508102416992 14 29.33745956420898 12.78606033325195 30.56805038452148 10.17965984344482 C 31.7120361328125 7.756655693054199 31.95870590209961 4.264581680297852 31.99480056762695 1 L 1 1 M 0 0 L 33 0 C 33 8.284269332885742 32.01572036743164 15 23.7314395904541 15 L 9.929689407348633 15 C 2.197700500488281 15 0 8.731989860534668 0 1 L 0 0 Z" stroke="none" fill="gray"/>
    </g>
    <g id="Rectangle_397" data-name="Rectangle 397" transform="translate(843 856)" fill="#00f4ff" stroke="gray" stroke-width="1">
      <rect width="37" height="1" rx="0.5" stroke="none"/>
      <rect x="0.5" y="0.5" width="36" fill="none"/>
    </g>
    <path id="Rectangle_399" data-name="Rectangle 399" d="M0,0H1A0,0,0,0,1,1,0V4.5A.5.5,0,0,1,.5,5h0A.5.5,0,0,1,0,4.5V0A0,0,0,0,1,0,0Z" transform="translate(851.317 870.085) rotate(30)" fill="gray"/>
    <path id="Rectangle_400" data-name="Rectangle 400" d="M0,0H1A0,0,0,0,1,1,0V4.5A.5.5,0,0,1,.5,5h0A.5.5,0,0,1,0,4.5V0A0,0,0,0,1,0,0Z" transform="translate(871.817 870.585) rotate(-30)" fill="gray"/>
    <g id="Ellipse_27" data-name="Ellipse 27" transform="translate(857 848)" fill="#fff" stroke="gray" stroke-width="1">
      <circle cx="3.5" cy="3.5" r="3.5" stroke="none"/>
      <circle cx="3.5" cy="3.5" r="3" fill="none"/>
    </g>
    <g id="Ellipse_28" data-name="Ellipse 28" transform="translate(855 837)" fill="#fff" stroke="gray" stroke-width="1">
      <circle cx="2.5" cy="2.5" r="2.5" stroke="none"/>
      <circle cx="2.5" cy="2.5" r="2" fill="none"/>
    </g>
    <g id="Ellipse_29" data-name="Ellipse 29" transform="translate(844 842)" fill="#fff" stroke="gray" stroke-width="1">
      <circle cx="3" cy="3" r="3" stroke="none"/>
      <circle cx="3" cy="3" r="2.5" fill="none"/>
    </g>
    <g id="Rectangle_401" data-name="Rectangle 401" transform="translate(867 854)" fill="#00f4ff" stroke="gray" stroke-width="1">
      <rect width="7" height="11" rx="1" stroke="none"/>
      <rect x="0.5" y="0.5" width="6" height="10" rx="0.5" fill="none"/>
    </g>
    <path id="Path_865" data-name="Path 865" d="M-10794.475,10765.062h5.882" transform="translate(11662 -9905)" fill="none" stroke="gray" stroke-width="1"/>
  </g>
</svg>
