<svg xmlns="http://www.w3.org/2000/svg" width="33" height="34" viewBox="0 0 33 34">
  <g id="New_Houses" data-name="New Houses" transform="translate(-378 -826)">
    <g id="Path_862" data-name="Path 862" transform="translate(404 834)" fill="#00f4ff">
      <path d="M 6.5 24.5 L 0.5 24.5 L 0.5 0.5 L 6.5 0.5 L 6.5 24.5 Z" stroke="none"/>
      <path d="M 1 1 L 1 24 L 6 24 L 6 1 L 1 1 M 0 0 L 7 0 L 7 25 L 0 25 L 0 0 Z" stroke="none" fill="gray"/>
    </g>
    <g id="Group_382" data-name="Group 382" transform="translate(110 -10)">
      <g id="Path_804" data-name="Path 804" transform="translate(268 853)" fill="#fff">
        <path d="M 4 7.500002861022949 C 2.070090055465698 7.500002861022949 0.5 5.929912567138672 0.5 4.000002861022949 C 0.5 2.980862617492676 0.9274700284004211 0.7214226722717285 1.642809987068176 -1.29557728767395 C 2.550960063934326 -3.856207370758057 3.455919981002808 -4.768557548522949 4 -4.768557548522949 C 4.544079780578613 -4.768557548522949 5.449039936065674 -3.856207370758057 6.357190132141113 -1.29557728767395 C 7.072529792785645 0.7214226722717285 7.5 2.980862617492676 7.5 4.000002861022949 C 7.5 5.929912567138672 5.929910182952881 7.500002861022949 4 7.500002861022949 Z" stroke="none"/>
        <path d="M 4 -4.268557548522949 C 3.8467698097229 -4.268557548522949 3.029550075531006 -3.709797382354736 2.114049911499023 -1.128447294235229 C 1.416709899902344 0.8377926349639893 1 3.023162603378296 1 4.000002861022949 C 1 5.654212951660156 2.345789909362793 7.000002861022949 4 7.000002861022949 C 5.654210090637207 7.000002861022949 7 5.654212951660156 7 4.000002861022949 C 7 3.023162603378296 6.583290100097656 0.8377926349639893 5.885950088500977 -1.128447294235229 C 4.970449924468994 -3.709797382354736 4.153229713439941 -4.268557548522949 4 -4.268557548522949 M 4 -5.268557548522949 C 6.209139823913574 -5.268557548522949 8 1.790862679481506 8 4.000002861022949 C 8 6.209142684936523 6.209139823913574 8.000002861022949 4 8.000002861022949 C 1.790860176086426 8.000002861022949 0 6.209142684936523 0 4.000002861022949 C 0 1.790862679481506 1.790860176086426 -5.268557548522949 4 -5.268557548522949 Z" stroke="none" fill="gray"/>
      </g>
      <path id="Path_805" data-name="Path 805" d="M-21822.137,10902.5v15.563" transform="translate(22094 -10048.93)" fill="none" stroke="gray" stroke-linecap="round" stroke-width="1"/>
      <path id="Path_806" data-name="Path 806" d="M-21822.137,10905.088l-2.088-2.984" transform="translate(22094 -10046)" fill="none" stroke="gray" stroke-linecap="round" stroke-width="1"/>
      <path id="Path_807" data-name="Path 807" d="M-21822.111,10902.342l1.875-1.77" transform="translate(22094 -10046)" fill="none" stroke="gray" stroke-linecap="round" stroke-width="1"/>
    </g>
    <rect id="Rectangle_338" data-name="Rectangle 338" width="32" height="2" transform="translate(379 858)" fill="gray"/>
    <g id="Rectangle_339" data-name="Rectangle 339" transform="translate(386 826)" fill="#fff" stroke="gray" stroke-linecap="round" stroke-width="1">
      <rect width="20" height="33" stroke="none"/>
      <rect x="0.5" y="0.5" width="19" height="32" fill="none"/>
    </g>
    <g id="Group_378" data-name="Group 378" transform="translate(96)">
      <g id="Rectangle_333" data-name="Rectangle 333" transform="translate(293 830)" fill="#00f4ff" stroke="gray" stroke-width="0.5">
        <rect width="5" height="5" rx="1" stroke="none"/>
        <rect x="0.25" y="0.25" width="4.5" height="4.5" rx="0.75" fill="none"/>
      </g>
      <g id="Rectangle_334" data-name="Rectangle 334" transform="translate(302 830)" fill="#00f4ff" stroke="gray" stroke-width="0.5">
        <rect width="5" height="5" rx="1" stroke="none"/>
        <rect x="0.25" y="0.25" width="4.5" height="4.5" rx="0.75" fill="none"/>
      </g>
    </g>
    <g id="Group_384" data-name="Group 384" transform="translate(96 8)">
      <g id="Rectangle_333-2" data-name="Rectangle 333" transform="translate(293 830)" fill="#00f4ff" stroke="gray" stroke-width="0.5">
        <rect width="5" height="5" rx="1" stroke="none"/>
        <rect x="0.25" y="0.25" width="4.5" height="4.5" rx="0.75" fill="none"/>
      </g>
      <g id="Rectangle_334-2" data-name="Rectangle 334" transform="translate(302 830)" fill="#00f4ff" stroke="gray" stroke-width="0.5">
        <rect width="5" height="5" rx="1" stroke="none"/>
        <rect x="0.25" y="0.25" width="4.5" height="4.5" rx="0.75" fill="none"/>
      </g>
    </g>
    <g id="Rectangle_340" data-name="Rectangle 340" transform="translate(393 848)" fill="#fff" stroke="gray" stroke-width="1">
      <rect width="6" height="11" stroke="none"/>
      <rect x="0.5" y="0.5" width="5" height="10" fill="none"/>
    </g>
  </g>
</svg>
