<svg xmlns="http://www.w3.org/2000/svg" width="28" height="26" viewBox="0 0 28 26">
  <g id="Subtraction_1" data-name="Subtraction 1" transform="translate(-0.002)" fill="#fff">
    <path d="M 27.501953125 25.5 L 0.5037935972213745 25.5 L 0.5020626783370972 17.59814071655273 L 7.468753337860107 17.59814071655273 L 7.968753337860107 17.59814071655273 L 7.968753337860107 17.09814071655273 L 7.968753337860107 12.14208984375 L 14.314453125 12.14208984375 L 14.814453125 12.14208984375 L 14.814453125 11.64208984375 L 14.814453125 5.824220180511475 L 21.15625381469727 5.824220180511475 L 21.65625381469727 5.824220180511475 L 21.65625381469727 5.324220180511475 L 21.65625381469727 0.5 L 27.501953125 0.5 L 27.501953125 25.5 Z" stroke="none"/>
    <path d="M 27.001953125 25 L 27.001953125 1 L 22.15625381469727 1 L 22.15625381469727 5.324220180511475 L 22.15625381469727 6.324220180511475 L 21.15625381469727 6.324220180511475 L 15.314453125 6.324220180511475 L 15.314453125 11.64208984375 L 15.314453125 12.64208984375 L 14.314453125 12.64208984375 L 8.468752861022949 12.64208984375 L 8.468752861022949 17.09814071655273 L 8.468752861022949 18.09814071655273 L 7.468753337860107 18.09814071655273 L 1.002172231674194 18.09814071655273 L 1.003684163093567 25 L 27.001953125 25 M 28.001953125 26 L 28.00000381469727 26 L 0.003903124947100878 26 L 0.001953125 17.09814071655273 L 7.468753337860107 17.09814071655273 L 7.468753337860107 11.64208984375 L 14.314453125 11.64208984375 L 14.314453125 5.324220180511475 L 21.15625381469727 5.324220180511475 L 21.15625381469727 -1.77635683940025e-15 L 28.001953125 -1.77635683940025e-15 L 28.001953125 25.99901962280273 L 28.001953125 26 Z" stroke="none" fill="gray"/>
  </g>
</svg>
