<?xml version="1.0" encoding="UTF-8"?>
<!DOCTYPE svg PUBLIC "-//W3C//DTD SVG 1.1//EN" "http://www.w3.org/Graphics/SVG/1.1/DTD/svg11.dtd">
<!-- Creator: CorelDRAW 2018 (64-Bit) -->
<svg xmlns="http://www.w3.org/2000/svg" xml:space="preserve" width="42px" height="32px" version="1.1" style="shape-rendering:geometricPrecision; text-rendering:geometricPrecision; image-rendering:optimizeQuality; fill-rule:evenodd; clip-rule:evenodd"
viewBox="0 0 1.668 1.271"
 xmlns:xlink="http://www.w3.org/1999/xlink">
 <defs>
  <style type="text/css">
   <![CDATA[
    .fil0 {fill:none}
    .fil2 {fill:white}
    .fil1 {fill:white;fill-rule:nonzero}
   ]]>
  </style>
 </defs>
 <g id="Layer_x0020_1">
  <metadata id="CorelCorpID_0Corel-Layer"/>
  <g id="_2815583900176">
   <rect class="fil0" width="1.668" height="1.271"/>
   <g>
    <path class="fil1" d="M0.353 0.473l0.274 0c0.011,0 0.02,0.009 0.02,0.02l0 0.389c0,0.011 -0.009,0.02 -0.02,0.02l-0.057 0 0.099 0.283c0.004,0.01 -0.002,0.021 -0.012,0.025 -0.002,0.001 -0.004,0.001 -0.006,0.001l-0.159 0c-0.009,0 -0.016,-0.005 -0.019,-0.013l-0.138 -0.308c-0.002,-0.002 -0.002,-0.005 -0.002,-0.008l0 -0.389c0,-0.011 0.009,-0.02 0.02,-0.02zm0.254 0.039l-0.235 0 0 0.366 0.132 0.293 0.119 0 -0.099 -0.281c-0.001,-0.002 -0.002,-0.005 -0.002,-0.008 0,-0.011 0.009,-0.02 0.02,-0.02l0.065 0 0 -0.35z"/>
    <path class="fil1" d="M0.255 0.808c0.011,0 0.02,0.009 0.02,0.02 0,0.011 -0.009,0.02 -0.02,0.02l-0.037 0c-0.007,0 -0.013,-0.003 -0.017,-0.009 -0.016,-0.02 -0.03,-0.044 -0.039,-0.07 -0.009,-0.026 -0.014,-0.053 -0.014,-0.082 0,-0.028 0.005,-0.055 0.014,-0.081 0.009,-0.026 0.023,-0.051 0.041,-0.072 0.004,-0.005 0.009,-0.007 0.015,-0.007l0.037 0c0.011,0 0.02,0.009 0.02,0.02 0,0.011 -0.009,0.019 -0.02,0.019l-0.028 0c-0.012,0.016 -0.021,0.034 -0.028,0.053 -0.008,0.021 -0.012,0.044 -0.012,0.068 0,0.025 0.004,0.047 0.012,0.069 0.007,0.019 0.016,0.036 0.028,0.052l0.028 0z"/>
    <path class="fil1" d="M1.283 0.304l-0.636 0.203 0 0.361 0.636 0.203c0.01,-0.117 0.015,-0.25 0.015,-0.384 0,-0.133 -0.005,-0.266 -0.015,-0.383zm-0.662 0.17l0.673 -0.215c0.002,0 0.003,-0.001 0.005,-0.001 0.011,-0.001 0.021,0.007 0.022,0.018 0.011,0.125 0.017,0.269 0.017,0.411 0,0.143 -0.006,0.287 -0.017,0.412 -0.001,0.001 -0.001,0.002 -0.001,0.004 -0.004,0.01 -0.015,0.016 -0.025,0.013l-0.672 -0.214c-0.009,-0.002 -0.016,-0.01 -0.016,-0.02l0 -0.389c0,-0.009 0.006,-0.017 0.014,-0.019z"/>
    <path class="fil1" d="M1.098 1.014c-0.001,0.011 -0.011,0.019 -0.022,0.018 -0.011,-0.001 -0.019,-0.011 -0.018,-0.022 0.012,-0.097 0.017,-0.21 0.017,-0.323 0,-0.112 -0.005,-0.225 -0.017,-0.322 -0.001,-0.011 0.007,-0.021 0.018,-0.022 0.011,-0.001 0.021,0.007 0.022,0.017 0.011,0.099 0.017,0.214 0.017,0.327 0,0.114 -0.006,0.228 -0.017,0.327z"/>
    <path class="fil1" d="M1.456 0.848c-0.008,0.008 -0.02,0.008 -0.028,0 -0.008,-0.007 -0.008,-0.02 -0.001,-0.028 0.017,-0.017 0.031,-0.038 0.04,-0.061 0.009,-0.022 0.013,-0.046 0.013,-0.072 0,-0.025 -0.004,-0.049 -0.013,-0.071 -0.009,-0.023 -0.023,-0.044 -0.04,-0.061 -0.007,-0.008 -0.007,-0.021 0.001,-0.028 0.008,-0.008 0.02,-0.008 0.028,0 0.02,0.021 0.036,0.046 0.048,0.074 0.01,0.027 0.016,0.056 0.016,0.086 0,0.031 -0.006,0.06 -0.016,0.087 -0.012,0.027 -0.028,0.053 -0.048,0.074z"/>
    <path class="fil2" d="M0.492 0.583c0.016,0 0.029,0.013 0.029,0.029 0,0.016 -0.013,0.029 -0.029,0.029 -0.017,0 -0.03,-0.013 -0.03,-0.029 0,-0.016 0.013,-0.029 0.03,-0.029z"/>
   </g>
  </g>
 </g>
</svg>
