<?xml version="1.0" encoding="UTF-8"?>
<!DOCTYPE svg PUBLIC "-//W3C//DTD SVG 1.1//EN" "http://www.w3.org/Graphics/SVG/1.1/DTD/svg11.dtd">
<!-- Creator: CorelDRAW 2018 (64-Bit) -->
<svg xmlns="http://www.w3.org/2000/svg" xml:space="preserve" width="42px" height="32px" version="1.1" style="shape-rendering:geometricPrecision; text-rendering:geometricPrecision; image-rendering:optimizeQuality; fill-rule:evenodd; clip-rule:evenodd"
viewBox="0 0 2.388 1.819"
 xmlns:xlink="http://www.w3.org/1999/xlink">
 <defs>
  <style type="text/css">
   <![CDATA[
    .fil0 {fill:none}
    .fil2 {fill:#00F4FF}
    .fil1 {fill:#00F4FF;fill-rule:nonzero}
   ]]>
  </style>
 </defs>
 <g id="Layer_x0020_1">
  <metadata id="CorelCorpID_0Corel-Layer"/>
  <g id="_2815933296240">
   <rect class="fil0" width="2.388" height="1.819"/>
   <g>
    <path class="fil1" d="M0.505 0.677l0.393 0c0.016,0 0.028,0.013 0.028,0.028l0 0.558c0,0.016 -0.012,0.029 -0.028,0.029l-0.082 0 0.142 0.404c0.005,0.015 -0.002,0.031 -0.017,0.036 -0.003,0.001 -0.006,0.002 -0.009,0.002l-0.228 0c-0.012,0 -0.023,-0.008 -0.027,-0.018l-0.198 -0.441c-0.002,-0.004 -0.003,-0.008 -0.003,-0.012l0 -0.558c0,-0.015 0.013,-0.028 0.029,-0.028zm0.365 0.057l-0.337 0 0 0.523 0.189 0.42 0.17 0 -0.142 -0.402c-0.001,-0.004 -0.002,-0.008 -0.002,-0.012 0,-0.015 0.013,-0.028 0.028,-0.028l0.094 0 0 -0.501z"/>
    <path class="fil1" d="M0.365 1.157c0.016,0 0.029,0.013 0.029,0.029 0,0.016 -0.013,0.028 -0.029,0.028l-0.053 0c-0.01,0 -0.018,-0.005 -0.024,-0.012 -0.024,-0.03 -0.043,-0.064 -0.056,-0.101 -0.014,-0.037 -0.021,-0.076 -0.021,-0.117 0,-0.04 0.007,-0.08 0.021,-0.116 0.013,-0.038 0.033,-0.073 0.058,-0.103 0.006,-0.007 0.014,-0.011 0.022,-0.011l0.053 0c0.016,0 0.029,0.013 0.029,0.029 0,0.015 -0.013,0.028 -0.029,0.028l-0.039 0c-0.018,0.023 -0.031,0.048 -0.041,0.076 -0.011,0.03 -0.017,0.063 -0.017,0.097 0,0.035 0.006,0.068 0.017,0.098 0.01,0.027 0.023,0.053 0.041,0.075l0.039 0z"/>
    <path class="fil1" d="M1.838 0.436l-0.912 0.29 0 0.517 0.912 0.29c0.013,-0.167 0.02,-0.358 0.02,-0.549 0,-0.191 -0.007,-0.381 -0.02,-0.548zm-0.949 0.242l0.964 -0.307c0.002,0 0.005,-0.001 0.007,-0.001 0.016,-0.002 0.029,0.01 0.031,0.025 0.016,0.179 0.024,0.385 0.024,0.589 0,0.205 -0.008,0.41 -0.024,0.589 0,0.002 -0.001,0.004 -0.001,0.006 -0.005,0.015 -0.021,0.023 -0.036,0.019l-0.962 -0.307c-0.013,-0.003 -0.022,-0.014 -0.022,-0.028l0 -0.558c0,-0.012 0.007,-0.023 0.019,-0.027z"/>
    <path class="fil1" d="M1.572 1.452c-0.002,0.016 -0.016,0.027 -0.031,0.025 -0.016,-0.001 -0.027,-0.015 -0.025,-0.031 0.016,-0.139 0.024,-0.3 0.024,-0.462 0,-0.161 -0.008,-0.322 -0.024,-0.461 -0.002,-0.016 0.009,-0.03 0.025,-0.032 0.015,-0.002 0.029,0.01 0.031,0.025 0.016,0.142 0.024,0.305 0.024,0.468 0,0.163 -0.008,0.327 -0.024,0.468z"/>
    <path class="fil1" d="M2.084 1.214c-0.011,0.011 -0.028,0.011 -0.04,0.001 -0.011,-0.011 -0.011,-0.029 -0.001,-0.041 0.025,-0.025 0.044,-0.054 0.057,-0.087 0.013,-0.032 0.02,-0.066 0.02,-0.103 0,-0.036 -0.007,-0.071 -0.02,-0.102 -0.013,-0.033 -0.032,-0.063 -0.057,-0.088 -0.01,-0.011 -0.01,-0.029 0.001,-0.04 0.012,-0.011 0.029,-0.01 0.04,0.001 0.029,0.03 0.053,0.066 0.069,0.106 0.015,0.038 0.024,0.08 0.024,0.123 0,0.044 -0.009,0.086 -0.024,0.124 -0.016,0.04 -0.04,0.075 -0.069,0.106z"/>
    <path class="fil2" d="M0.704 0.835c0.023,0 0.042,0.019 0.042,0.042 0,0.023 -0.019,0.041 -0.042,0.041 -0.023,0 -0.042,-0.018 -0.042,-0.041 0,-0.023 0.019,-0.042 0.042,-0.042z"/>
   </g>
  </g>
 </g>
</svg>
