<?xml version="1.0" encoding="UTF-8"?>
<!DOCTYPE svg PUBLIC "-//W3C//DTD SVG 1.1//EN" "http://www.w3.org/Graphics/SVG/1.1/DTD/svg11.dtd">
<!-- Creator: CorelDRAW 2018 (64-Bit) -->
<svg xmlns="http://www.w3.org/2000/svg" xml:space="preserve" width="42px" height="32px" version="1.1" style="shape-rendering:geometricPrecision; text-rendering:geometricPrecision; image-rendering:optimizeQuality; fill-rule:evenodd; clip-rule:evenodd"
viewBox="0 0 1.668 1.271"
 xmlns:xlink="http://www.w3.org/1999/xlink">
 <defs>
  <style type="text/css">
   <![CDATA[
    .fil0 {fill:none}
    .fil1 {fill:white;fill-rule:nonzero}
   ]]>
  </style>
 </defs>
 <g id="Layer_x0020_1">
  <metadata id="CorelCorpID_0Corel-Layer"/>
  <g id="_2814940347424">
   <rect class="fil0" width="1.668" height="1.271"/>
   <g>
    <path class="fil1" d="M0.447 0.218l0.774 0c0.007,0 0.013,0.003 0.018,0.008 0.005,0.005 0.008,0.011 0.008,0.018l0 0.14c0,0.007 -0.003,0.013 -0.008,0.018l0 0c-0.005,0.005 -0.011,0.008 -0.018,0.008l-0.774 0c-0.007,0 -0.014,-0.003 -0.018,-0.008l-0.002 -0.002c-0.004,-0.005 -0.006,-0.01 -0.006,-0.016l0 -0.14c0,-0.007 0.003,-0.013 0.008,-0.018 0.004,-0.005 0.011,-0.008 0.018,-0.008zm0.76 0.04l-0.746 0 0 0.112 0.746 0 0 -0.112z"/>
    <path class="fil1" d="M1.038 0.984c-0.011,0 -0.02,-0.009 -0.02,-0.02 0,-0.011 0.009,-0.02 0.02,-0.02l0.023 0c0.011,0 0.02,0.009 0.02,0.02 0,0.011 -0.009,0.02 -0.02,0.02l-0.023 0z"/>
    <path class="fil1" d="M0.327 0.757c0,-0.011 0.009,-0.02 0.02,-0.02 0.011,0 0.02,0.009 0.02,0.02l0 0.414 0.934 0 0 -0.414c0,-0.011 0.009,-0.02 0.02,-0.02 0.011,0 0.02,0.009 0.02,0.02l0 0.427c0,0.008 -0.004,0.015 -0.009,0.02l0 0c-0.005,0.004 -0.012,0.007 -0.019,0.007l-0.958 0c-0.006,0 -0.012,-0.002 -0.017,-0.005l-0.002 -0.002c-0.006,-0.005 -0.009,-0.012 -0.009,-0.02l0 -0.427z"/>
    <path class="fil1" d="M0.219 0.653c-0.003,-0.033 0.004,-0.068 0.025,-0.103 0.021,-0.035 0.055,-0.071 0.11,-0.11 0.004,-0.002 0.008,-0.003 0.011,-0.003l0.937 0c0.005,0 0.01,0.002 0.013,0.004 0.054,0.038 0.088,0.074 0.109,0.109 0.021,0.036 0.028,0.071 0.024,0.104 -0.001,0.011 -0.009,0.018 -0.019,0.018l-1.19 0c-0.011,0 -0.02,-0.008 -0.02,-0.019zm0.059 -0.083c-0.013,0.022 -0.019,0.042 -0.02,0.063l1.151 0c0,-0.021 -0.006,-0.041 -0.019,-0.063 -0.018,-0.029 -0.047,-0.06 -0.094,-0.094l-0.924 0c-0.047,0.034 -0.077,0.065 -0.094,0.094z"/>
    <path class="fil1" d="M0.436 0.652c-0.002,-0.032 0.002,-0.065 0.015,-0.099 0.013,-0.035 0.036,-0.071 0.071,-0.11 0.003,-0.004 0.009,-0.006 0.014,-0.006l0.595 0c0.007,0 0.012,0.003 0.016,0.007 0.034,0.038 0.056,0.074 0.069,0.109 0.014,0.035 0.018,0.068 0.016,0.101 -0.001,0.01 -0.01,0.018 -0.02,0.018l-0.756 0c-0.011,0 -0.02,-0.009 -0.02,-0.02zm0.052 -0.085c-0.008,0.022 -0.012,0.044 -0.013,0.066l0.717 0c0,-0.022 -0.004,-0.044 -0.013,-0.066 -0.01,-0.029 -0.028,-0.058 -0.056,-0.091l-0.578 0c-0.028,0.033 -0.046,0.062 -0.057,0.091z"/>
    <path class="fil1" d="M0.69 0.651c0,-0.03 0.001,-0.061 0.005,-0.094 0.004,-0.033 0.011,-0.068 0.022,-0.106 0.003,-0.009 0.011,-0.014 0.019,-0.014l0.195 0c0.01,0 0.018,0.006 0.02,0.015 0.011,0.037 0.018,0.072 0.022,0.105 0.004,0.033 0.005,0.065 0.004,0.096 0,0.011 -0.009,0.019 -0.019,0.019l-0.248 0c-0.011,0 -0.02,-0.009 -0.02,-0.02l0 -0.001zm0.044 -0.089c-0.003,0.025 -0.004,0.048 -0.004,0.071l0.208 0c0,-0.023 -0.002,-0.046 -0.005,-0.071 -0.003,-0.027 -0.008,-0.056 -0.017,-0.086l-0.165 0c-0.008,0.03 -0.013,0.059 -0.017,0.086z"/>
    <path class="fil1" d="M0.962 0.758c0,-0.011 0.009,-0.02 0.02,-0.02 0.01,0 0.019,0.009 0.019,0.02l0 0.43c0,0.011 -0.009,0.02 -0.019,0.02 -0.011,0 -0.02,-0.009 -0.02,-0.02l0 -0.43z"/>
   </g>
  </g>
 </g>
</svg>
