<?xml version="1.0" encoding="UTF-8"?>
<!DOCTYPE svg PUBLIC "-//W3C//DTD SVG 1.1//EN" "http://www.w3.org/Graphics/SVG/1.1/DTD/svg11.dtd">
<!-- Creator: CorelDRAW 2018 (64-Bit) -->
<svg xmlns="http://www.w3.org/2000/svg" xml:space="preserve" width="42px" height="32px" version="1.1" style="shape-rendering:geometricPrecision; text-rendering:geometricPrecision; image-rendering:optimizeQuality; fill-rule:evenodd; clip-rule:evenodd"
viewBox="0 0 2.388 1.819"
 xmlns:xlink="http://www.w3.org/1999/xlink">
 <defs>
  <style type="text/css">
   <![CDATA[
    .fil0 {fill:none}
    .fil1 {fill:#00F4FF;fill-rule:nonzero}
   ]]>
  </style>
 </defs>
 <g id="Layer_x0020_1">
  <metadata id="CorelCorpID_0Corel-Layer"/>
  <g id="_2815583867120">
   <rect class="fil0" width="2.388" height="1.819"/>
   <g>
    <path class="fil1" d="M0.64 0.313l1.108 0c0.01,0 0.019,0.004 0.026,0.011 0.007,0.006 0.011,0.016 0.011,0.026l0 0.2c0,0.01 -0.004,0.019 -0.011,0.026l0 0c-0.007,0.007 -0.016,0.011 -0.026,0.011l-1.108 0c-0.01,0 -0.02,-0.005 -0.026,-0.011l-0.003 -0.004c-0.005,-0.006 -0.008,-0.014 -0.008,-0.022l0 -0.2c0,-0.01 0.004,-0.02 0.011,-0.026 0.006,-0.007 0.016,-0.011 0.026,-0.011zm1.088 0.057l-1.068 0 0 0.16 1.068 0 0 -0.16z"/>
    <path class="fil1" d="M1.487 1.409c-0.016,0 -0.029,-0.013 -0.029,-0.029 0,-0.015 0.013,-0.028 0.029,-0.028l0.032 0c0.016,0 0.029,0.013 0.029,0.028 0,0.016 -0.013,0.029 -0.029,0.029l-0.032 0z"/>
    <path class="fil1" d="M0.468 1.083c0,-0.015 0.013,-0.028 0.029,-0.028 0.015,0 0.028,0.013 0.028,0.028l0 0.594 1.338 0 0 -0.594c0,-0.015 0.013,-0.028 0.028,-0.028 0.016,0 0.029,0.013 0.029,0.028l0 0.612c0,0.012 -0.005,0.022 -0.013,0.029l0 0c-0.008,0.006 -0.017,0.01 -0.027,0.01l-1.372 0c-0.009,0 -0.017,-0.003 -0.024,-0.008l-0.003 -0.002c-0.008,-0.007 -0.013,-0.017 -0.013,-0.029l0 -0.612z"/>
    <path class="fil1" d="M0.314 0.935c-0.004,-0.048 0.005,-0.097 0.035,-0.148 0.03,-0.05 0.08,-0.102 0.158,-0.156 0.005,-0.004 0.011,-0.005 0.016,-0.005l1.342 -0.001c0.007,0 0.013,0.003 0.018,0.007 0.077,0.054 0.126,0.106 0.156,0.155 0.031,0.052 0.039,0.102 0.035,0.15 -0.002,0.015 -0.014,0.025 -0.029,0.025l-1.703 0.001c-0.015,0 -0.028,-0.013 -0.028,-0.028zm0.084 -0.119c-0.018,0.031 -0.027,0.061 -0.028,0.09l1.648 0c-0.001,-0.029 -0.01,-0.059 -0.028,-0.09 -0.025,-0.042 -0.067,-0.086 -0.134,-0.134l-1.324 0c-0.067,0.048 -0.109,0.092 -0.134,0.134z"/>
    <path class="fil1" d="M0.624 0.934c-0.002,-0.046 0.003,-0.093 0.022,-0.143 0.019,-0.049 0.051,-0.101 0.101,-0.156 0.005,-0.006 0.013,-0.01 0.021,-0.01l0.852 0c0.009,0 0.017,0.005 0.022,0.011 0.05,0.055 0.081,0.106 0.1,0.155 0.019,0.051 0.024,0.099 0.021,0.145 -0.001,0.015 -0.013,0.027 -0.028,0.027l-1.082 0c-0.016,0 -0.029,-0.013 -0.029,-0.029zm0.075 -0.123c-0.012,0.033 -0.018,0.064 -0.018,0.095l1.026 0c-0.001,-0.031 -0.006,-0.062 -0.018,-0.095 -0.016,-0.04 -0.041,-0.083 -0.082,-0.129l-0.827 0c-0.04,0.046 -0.065,0.089 -0.081,0.129z"/>
    <path class="fil1" d="M0.988 0.932c0,-0.043 0.001,-0.088 0.007,-0.134 0.006,-0.048 0.016,-0.098 0.032,-0.152 0.004,-0.013 0.015,-0.021 0.027,-0.021l0.279 0c0.014,0 0.025,0.01 0.028,0.022 0.016,0.054 0.026,0.104 0.032,0.151 0.006,0.047 0.007,0.093 0.006,0.137 0,0.015 -0.013,0.027 -0.028,0.027l-0.354 0.001c-0.016,0 -0.029,-0.013 -0.029,-0.029l0 -0.002zm0.064 -0.127c-0.005,0.035 -0.007,0.068 -0.007,0.101l0.298 0c0,-0.033 -0.002,-0.066 -0.007,-0.101 -0.004,-0.039 -0.012,-0.08 -0.024,-0.123l-0.236 0c-0.012,0.043 -0.02,0.084 -0.024,0.123z"/>
    <path class="fil1" d="M1.377 1.085c0,-0.016 0.013,-0.029 0.028,-0.029 0.016,0 0.029,0.013 0.029,0.029l0 0.616c0,0.015 -0.013,0.028 -0.029,0.028 -0.015,0 -0.028,-0.013 -0.028,-0.028l0 -0.616z"/>
   </g>
  </g>
 </g>
</svg>
