<?xml version="1.0" encoding="UTF-8"?>
<!DOCTYPE svg PUBLIC "-//W3C//DTD SVG 1.1//EN" "http://www.w3.org/Graphics/SVG/1.1/DTD/svg11.dtd">
<!-- Creator: CorelDRAW 2018 (64-Bit) -->
<svg xmlns="http://www.w3.org/2000/svg" xml:space="preserve" width="42px" height="32px" version="1.1" style="shape-rendering:geometricPrecision; text-rendering:geometricPrecision; image-rendering:optimizeQuality; fill-rule:evenodd; clip-rule:evenodd"
viewBox="0 0 58.454 44.536"
 xmlns:xlink="http://www.w3.org/1999/xlink">
 <defs>
  <style type="text/css">
   <![CDATA[
    .fil0 {fill:none}
    .fil1 {fill:#00F4FF;fill-rule:nonzero}
   ]]>
  </style>
 </defs>
 <g id="Layer_x0020_1">
  <metadata id="CorelCorpID_0Corel-Layer"/>
  <g id="_1612304616192">
   <rect class="fil0" width="58.454" height="44.536"/>
   <g>
    <path class="fil1" d="M19.405 10.79c0.384,0 0.696,0.312 0.696,0.696 0,0.385 -0.312,0.696 -0.696,0.696l-5.836 0c-0.067,0 -0.129,0.028 -0.174,0.072 -0.043,0.044 -0.071,0.106 -0.071,0.173l0 28.385c0,0.068 0.027,0.13 0.07,0.173 0.045,0.045 0.107,0.072 0.175,0.072l24.725 0c0.385,0 0.696,0.312 0.696,0.696 0,0.384 -0.311,0.696 -0.696,0.696l-24.725 0c-0.447,0 -0.855,-0.183 -1.152,-0.479l-0.004 -0.004c-0.297,-0.298 -0.481,-0.707 -0.481,-1.154l0 -28.385c0,-0.448 0.185,-0.857 0.481,-1.153 0.299,-0.299 0.707,-0.484 1.156,-0.484l5.836 0zm27.117 23.432c0,0.384 -0.312,0.696 -0.696,0.696 -0.384,0 -0.696,-0.312 -0.696,-0.696l0 -21.795c0,-0.067 -0.028,-0.129 -0.071,-0.173 -0.045,-0.044 -0.107,-0.072 -0.174,-0.072l-3.924 0c-0.384,0 -0.696,-0.311 -0.696,-0.696 0,-0.384 0.312,-0.696 0.696,-0.696l3.924 0c0.448,0 0.857,0.185 1.154,0.481 0.298,0.299 0.483,0.708 0.483,1.156l0 21.795z"/>
    <path class="fil1" d="M44.146 34.918l-4.911 0c-0.068,0 -0.13,0.027 -0.174,0.071 -0.044,0.044 -0.071,0.106 -0.071,0.174l0 4.91 5.156 -5.155zm-4.911 -1.392l6.591 0c0.178,0 0.356,0.068 0.492,0.204 0.271,0.271 0.271,0.712 0,0.984l-7.523 7.523c-0.127,0.131 -0.304,0.212 -0.501,0.212 -0.384,0 -0.696,-0.312 -0.696,-0.696l0 -6.59c0,-0.449 0.185,-0.858 0.481,-1.154 0.299,-0.299 0.708,-0.483 1.156,-0.483z"/>
    <path class="fil1" d="M36.701 10.79c0.385,0 0.696,0.312 0.696,0.696 0,0.385 -0.311,0.696 -0.696,0.696l-4.394 0c-0.384,0 -0.696,-0.311 -0.696,-0.696 0,-0.384 0.312,-0.696 0.696,-0.696l4.394 0z"/>
    <path class="fil1" d="M28.047 10.79c0.384,0 0.696,0.312 0.696,0.696 0,0.385 -0.312,0.696 -0.696,0.696l-4.302 0c-0.385,0 -0.696,-0.311 -0.696,-0.696 0,-0.384 0.311,-0.696 0.696,-0.696l4.302 0z"/>
    <path class="fil1" d="M37.881 9.047c-0.132,0 -0.254,0.055 -0.341,0.142 -0.088,0.088 -0.143,0.209 -0.143,0.341l0 3.912c0,0.132 0.055,0.254 0.143,0.341 0.087,0.088 0.208,0.143 0.341,0.143 0.132,0 0.254,-0.055 0.342,-0.143 0.087,-0.087 0.142,-0.209 0.142,-0.341l0 -3.912c0,-0.132 -0.055,-0.253 -0.142,-0.341 -0.088,-0.087 -0.21,-0.142 -0.342,-0.142zm0 -1.392c0.516,0 0.986,0.211 1.325,0.551 0.34,0.339 0.551,0.808 0.551,1.324l0 3.912c0,0.516 -0.211,0.986 -0.551,1.325 -0.339,0.339 -0.809,0.55 -1.325,0.55 -0.517,0 -0.986,-0.211 -1.325,-0.55 -0.34,-0.339 -0.551,-0.809 -0.551,-1.325l0 -3.912c0,-0.516 0.211,-0.985 0.551,-1.324 0.339,-0.34 0.809,-0.551 1.325,-0.551z"/>
    <path class="fil1" d="M29.227 9.047c-0.132,0 -0.254,0.055 -0.341,0.142 -0.088,0.088 -0.143,0.209 -0.143,0.341l0 3.912c0,0.132 0.055,0.254 0.143,0.341 0.087,0.088 0.208,0.143 0.341,0.143 0.132,0 0.254,-0.055 0.341,-0.143 0.088,-0.087 0.143,-0.209 0.143,-0.341l0 -3.912c0,-0.132 -0.055,-0.253 -0.143,-0.341 -0.087,-0.087 -0.209,-0.142 -0.341,-0.142zm0 -1.392c0.516,0 0.986,0.211 1.325,0.551 0.34,0.339 0.551,0.808 0.551,1.324l0 3.912c0,0.516 -0.211,0.986 -0.551,1.325 -0.339,0.339 -0.809,0.55 -1.325,0.55 -0.517,0 -0.986,-0.211 -1.325,-0.55 -0.34,-0.339 -0.551,-0.809 -0.551,-1.325l0 -3.912c0,-0.516 0.211,-0.985 0.551,-1.324 0.339,-0.34 0.809,-0.551 1.325,-0.551z"/>
    <path class="fil1" d="M20.585 9.047c-0.133,0 -0.254,0.055 -0.342,0.142 -0.088,0.088 -0.142,0.209 -0.142,0.341l0 3.912c0,0.132 0.054,0.254 0.142,0.341 0.088,0.088 0.209,0.143 0.341,0.143 0.133,0 0.254,-0.055 0.342,-0.143 0.087,-0.087 0.142,-0.209 0.142,-0.341l0 -3.912c0,-0.132 -0.055,-0.253 -0.142,-0.341 -0.088,-0.087 -0.209,-0.142 -0.341,-0.142zm-0.001 -1.392c0.517,0 0.986,0.211 1.326,0.551 0.339,0.339 0.55,0.808 0.55,1.324l0 3.912c0,0.516 -0.211,0.986 -0.55,1.325 -0.34,0.339 -0.809,0.55 -1.325,0.55 -0.517,0 -0.987,-0.211 -1.326,-0.55 -0.339,-0.339 -0.55,-0.809 -0.55,-1.325l0 -3.912c0,-0.516 0.211,-0.985 0.55,-1.324 0.339,-0.34 0.809,-0.551 1.325,-0.551z"/>
    <path class="fil1" d="M18.539 20.978l2.882 0c0.303,0 0.578,0.123 0.777,0.322 0.198,0.198 0.322,0.473 0.322,0.777l0 2.882c0,0.303 -0.124,0.578 -0.322,0.777 -0.199,0.198 -0.474,0.322 -0.777,0.322l-2.882 0c-0.304,0 -0.579,-0.124 -0.777,-0.322 -0.199,-0.199 -0.322,-0.474 -0.322,-0.777l0 -2.882c0,-0.304 0.123,-0.579 0.322,-0.777 0.198,-0.199 0.473,-0.322 0.777,-0.322zm2.589 1.391l-2.297 0 0 2.297 2.297 0 0 -2.297z"/>
    <path class="fil1" d="M27.786 20.978l2.882 0c0.303,0 0.579,0.123 0.777,0.322 0.199,0.198 0.322,0.473 0.322,0.777l0 2.882c0,0.303 -0.123,0.578 -0.322,0.777 -0.198,0.198 -0.474,0.322 -0.777,0.322l-2.882 0c-0.303,0 -0.578,-0.124 -0.777,-0.322 -0.198,-0.199 -0.322,-0.474 -0.322,-0.777l0 -2.882c0,-0.304 0.124,-0.579 0.322,-0.777 0.199,-0.199 0.474,-0.322 0.777,-0.322zm2.59 1.391l-2.297 0 0 2.297 2.297 0 0 -2.297z"/>
    <path class="fil1" d="M37.033 20.977l2.883 0c0.302,0 0.578,0.124 0.777,0.322 0.198,0.199 0.322,0.474 0.322,0.777l0 2.883c0,0.303 -0.124,0.578 -0.322,0.777 -0.199,0.198 -0.475,0.322 -0.777,0.322l-2.883 0c-0.303,0 -0.578,-0.124 -0.776,-0.322 -0.199,-0.199 -0.323,-0.474 -0.323,-0.777l0 -2.883c0,-0.303 0.124,-0.578 0.323,-0.777 0.198,-0.198 0.473,-0.322 0.776,-0.322zm2.59 1.392l-2.297 0 0 2.297 2.297 0 0 -2.297z"/>
    <path class="fil1" d="M18.539 30.412l2.882 0c0.303,0 0.578,0.123 0.777,0.322l0.055 0.062c0.166,0.193 0.267,0.443 0.267,0.714l0 2.883c0,0.303 -0.124,0.578 -0.322,0.777 -0.199,0.198 -0.474,0.322 -0.777,0.322l-2.882 0c-0.304,0 -0.579,-0.124 -0.777,-0.322 -0.199,-0.199 -0.322,-0.474 -0.322,-0.777l0 -2.883c0,-0.3 0.124,-0.576 0.323,-0.775 0.197,-0.2 0.472,-0.323 0.776,-0.323zm2.589 1.391l-2.297 0 0 2.297 2.297 0 0 -2.297z"/>
    <path class="fil1" d="M27.786 30.412l2.882 0c0.304,0 0.579,0.123 0.777,0.322l0.055 0.062c0.166,0.193 0.267,0.443 0.267,0.714l0 2.883c0,0.303 -0.123,0.578 -0.322,0.777 -0.198,0.198 -0.473,0.322 -0.777,0.322l-2.882 0c-0.303,0 -0.578,-0.124 -0.777,-0.322 -0.198,-0.199 -0.322,-0.474 -0.322,-0.777l0 -2.883c0,-0.3 0.125,-0.576 0.324,-0.775 0.197,-0.2 0.472,-0.323 0.775,-0.323zm2.59 1.391l-2.297 0 0 2.297 2.297 0 0 -2.297z"/>
   </g>
  </g>
 </g>
</svg>
