<?xml version="1.0" encoding="UTF-8"?>
<!DOCTYPE svg PUBLIC "-//W3C//DTD SVG 1.1//EN" "http://www.w3.org/Graphics/SVG/1.1/DTD/svg11.dtd">
<!-- Creator: CorelDRAW 2018 (64-Bit) -->
<svg xmlns="http://www.w3.org/2000/svg" xml:space="preserve" width="42px" height="32px" version="1.1" style="shape-rendering:geometricPrecision; text-rendering:geometricPrecision; image-rendering:optimizeQuality; fill-rule:evenodd; clip-rule:evenodd"
viewBox="0 0 5.247 3.998"
 xmlns:xlink="http://www.w3.org/1999/xlink">
 <defs>
  <style type="text/css">
   <![CDATA[
    .fil0 {fill:none}
    .fil1 {fill:gray;fill-rule:nonzero}
   ]]>
  </style>
 </defs>
 <g id="Layer_x0020_1">
  <metadata id="CorelCorpID_0Corel-Layer"/>
  <g id="_1612302690512">
   <rect class="fil0" width="5.247" height="3.998"/>
   <g>
    <path class="fil1" d="M1.742 0.969c0.034,0 0.062,0.028 0.062,0.062 0,0.035 -0.028,0.063 -0.062,0.063l-0.524 0c-0.006,0 -0.012,0.002 -0.016,0.006 -0.003,0.004 -0.006,0.01 -0.006,0.016l0 2.548c0,0.006 0.002,0.011 0.006,0.015 0.004,0.004 0.01,0.007 0.016,0.007l2.22 0c0.034,0 0.062,0.028 0.062,0.062 0,0.035 -0.028,0.063 -0.062,0.063l-2.22 0c-0.04,0 -0.077,-0.017 -0.103,-0.044l-0.001 0c-0.026,-0.027 -0.043,-0.063 -0.043,-0.103l0 -2.548c0,-0.041 0.017,-0.077 0.043,-0.104 0.027,-0.027 0.064,-0.043 0.104,-0.043l0.524 0zm2.434 2.103c0,0.034 -0.028,0.062 -0.062,0.062 -0.035,0 -0.063,-0.028 -0.063,-0.062l0 -1.956c0,-0.006 -0.002,-0.012 -0.006,-0.016 -0.004,-0.004 -0.01,-0.006 -0.016,-0.006l-0.352 0c-0.035,0 -0.063,-0.028 -0.063,-0.063 0,-0.034 0.028,-0.062 0.063,-0.062l0.352 0c0.04,0 0.077,0.016 0.104,0.043 0.027,0.027 0.043,0.063 0.043,0.104l0 1.956z"/>
    <path class="fil1" d="M3.963 3.134l-0.441 0c-0.006,0 -0.012,0.003 -0.016,0.007 -0.004,0.004 -0.006,0.009 -0.006,0.015l0 0.441 0.463 -0.463zm-0.441 -0.124l0.592 0c0.016,0 0.032,0.006 0.044,0.018 0.024,0.024 0.024,0.064 0,0.088l-0.676 0.675c-0.011,0.012 -0.027,0.02 -0.044,0.02 -0.035,0 -0.063,-0.028 -0.063,-0.063l0 -0.592c0,-0.04 0.017,-0.077 0.043,-0.103 0.027,-0.027 0.064,-0.043 0.104,-0.043z"/>
    <path class="fil1" d="M3.295 0.969c0.034,0 0.062,0.028 0.062,0.062 0,0.035 -0.028,0.063 -0.062,0.063l-0.395 0c-0.034,0 -0.062,-0.028 -0.062,-0.063 0,-0.034 0.028,-0.062 0.062,-0.062l0.395 0z"/>
    <path class="fil1" d="M2.518 0.969c0.034,0 0.062,0.028 0.062,0.062 0,0.035 -0.028,0.063 -0.062,0.063l-0.387 0c-0.034,0 -0.062,-0.028 -0.062,-0.063 0,-0.034 0.028,-0.062 0.062,-0.062l0.387 0z"/>
    <path class="fil1" d="M3.4 0.812c-0.011,0 -0.022,0.005 -0.03,0.013 -0.008,0.008 -0.013,0.019 -0.013,0.031l0 0.351c0,0.012 0.005,0.022 0.013,0.03 0.008,0.008 0.019,0.013 0.03,0.013 0.012,0 0.023,-0.005 0.031,-0.013 0.008,-0.008 0.013,-0.018 0.013,-0.03l0 -0.351c0,-0.012 -0.005,-0.023 -0.013,-0.031 -0.008,-0.008 -0.019,-0.013 -0.031,-0.013zm0 -0.125c0.047,0 0.089,0.019 0.119,0.05 0.031,0.03 0.05,0.072 0.05,0.119l0 0.351c0,0.046 -0.019,0.088 -0.05,0.119 -0.03,0.03 -0.072,0.049 -0.119,0.049 -0.046,0 -0.088,-0.019 -0.119,-0.049 -0.03,-0.031 -0.049,-0.073 -0.049,-0.119l0 -0.351c0,-0.047 0.019,-0.089 0.049,-0.119 0.031,-0.031 0.073,-0.05 0.119,-0.05z"/>
    <path class="fil1" d="M2.624 0.812c-0.012,0 -0.023,0.005 -0.031,0.013 -0.008,0.008 -0.013,0.019 -0.013,0.031l0 0.351c0,0.012 0.005,0.022 0.013,0.03 0.008,0.008 0.019,0.013 0.031,0.013 0.012,0 0.022,-0.005 0.03,-0.013 0.008,-0.008 0.013,-0.018 0.013,-0.03l0 -0.351c0,-0.012 -0.005,-0.023 -0.013,-0.031 -0.008,-0.008 -0.018,-0.013 -0.03,-0.013zm0 -0.125c0.046,0 0.088,0.019 0.119,0.05 0.03,0.03 0.049,0.072 0.049,0.119l0 0.351c0,0.046 -0.019,0.088 -0.049,0.119 -0.031,0.03 -0.073,0.049 -0.119,0.049 -0.047,0 -0.089,-0.019 -0.119,-0.049 -0.031,-0.031 -0.05,-0.073 -0.05,-0.119l0 -0.351c0,-0.047 0.019,-0.089 0.05,-0.119 0.03,-0.031 0.072,-0.05 0.119,-0.05z"/>
    <path class="fil1" d="M1.848 0.812c-0.012,0 -0.023,0.005 -0.031,0.013 -0.008,0.008 -0.013,0.019 -0.013,0.031l0 0.351c0,0.012 0.005,0.022 0.013,0.03 0.008,0.008 0.019,0.013 0.031,0.013 0.012,0 0.023,-0.005 0.03,-0.013 0.008,-0.008 0.013,-0.018 0.013,-0.03l0 -0.351c0,-0.012 -0.005,-0.023 -0.013,-0.031 -0.007,-0.008 -0.018,-0.013 -0.03,-0.013zm0 -0.125c0.046,0 0.088,0.019 0.119,0.05 0.03,0.03 0.049,0.072 0.049,0.119l0 0.351c0,0.046 -0.019,0.088 -0.049,0.119 -0.031,0.03 -0.073,0.049 -0.119,0.049 -0.047,0 -0.089,-0.019 -0.119,-0.049 -0.031,-0.031 -0.05,-0.073 -0.05,-0.119l0 -0.351c0,-0.047 0.019,-0.089 0.05,-0.119 0.03,-0.031 0.072,-0.05 0.119,-0.05z"/>
    <path class="fil1" d="M1.664 1.883l0.259 0c0.027,0 0.052,0.011 0.07,0.029 0.017,0.018 0.029,0.043 0.029,0.07l0 0.258c0,0.028 -0.012,0.052 -0.029,0.07 -0.018,0.018 -0.043,0.029 -0.07,0.029l-0.259 0c-0.027,0 -0.052,-0.011 -0.07,-0.029 -0.017,-0.018 -0.029,-0.042 -0.029,-0.07l0 -0.258c0,-0.027 0.012,-0.052 0.029,-0.07 0.018,-0.018 0.043,-0.029 0.07,-0.029zm0.233 0.125l-0.207 0 0 0.206 0.207 0 0 -0.206z"/>
    <path class="fil1" d="M2.494 1.883l0.259 0c0.027,0 0.052,0.011 0.07,0.029 0.018,0.018 0.029,0.043 0.029,0.07l0 0.258c0,0.028 -0.011,0.052 -0.029,0.07 -0.018,0.018 -0.043,0.029 -0.07,0.029l-0.259 0c-0.027,0 -0.052,-0.011 -0.069,-0.029 -0.018,-0.018 -0.029,-0.042 -0.029,-0.07l0 -0.258c0,-0.027 0.011,-0.052 0.029,-0.07 0.017,-0.018 0.042,-0.029 0.069,-0.029zm0.233 0.125l-0.206 0 0 0.206 0.206 0 0 -0.206z"/>
    <path class="fil1" d="M3.324 1.883l0.259 0c0.027,0 0.052,0.011 0.07,0.029 0.018,0.018 0.029,0.042 0.029,0.07l0 0.258c0,0.028 -0.011,0.052 -0.029,0.07 -0.018,0.018 -0.043,0.029 -0.07,0.029l-0.259 0c-0.027,0 -0.052,-0.011 -0.069,-0.029 -0.018,-0.018 -0.029,-0.042 -0.029,-0.07l0 -0.258c0,-0.028 0.011,-0.052 0.029,-0.07 0.017,-0.018 0.042,-0.029 0.069,-0.029zm0.233 0.125l-0.206 0 0 0.206 0.206 0 0 -0.206z"/>
    <path class="fil1" d="M1.664 2.73l0.259 0c0.027,0 0.052,0.011 0.07,0.029l0.005 0.005c0.014,0.018 0.024,0.04 0.024,0.065l0 0.258c0,0.028 -0.012,0.052 -0.029,0.07 -0.018,0.018 -0.043,0.029 -0.07,0.029l-0.259 0c-0.027,0 -0.052,-0.011 -0.07,-0.029 -0.017,-0.018 -0.029,-0.042 -0.029,-0.07l0 -0.258c0,-0.027 0.012,-0.052 0.03,-0.07 0.017,-0.018 0.042,-0.029 0.069,-0.029zm0.233 0.125l-0.207 0 0 0.206 0.207 0 0 -0.206z"/>
    <path class="fil1" d="M2.494 2.73l0.259 0c0.027,0 0.052,0.011 0.07,0.029l0.005 0.005c0.015,0.018 0.024,0.04 0.024,0.065l0 0.258c0,0.028 -0.011,0.052 -0.029,0.07 -0.018,0.018 -0.043,0.029 -0.07,0.029l-0.259 0c-0.027,0 -0.052,-0.011 -0.069,-0.029 -0.018,-0.018 -0.029,-0.042 -0.029,-0.07l0 -0.258c0,-0.027 0.011,-0.052 0.029,-0.07 0.017,-0.018 0.042,-0.029 0.069,-0.029zm0.233 0.125l-0.206 0 0 0.206 0.206 0 0 -0.206z"/>
   </g>
  </g>
 </g>
</svg>
