<?xml version="1.0" encoding="UTF-8"?>
<!DOCTYPE svg PUBLIC "-//W3C//DTD SVG 1.1//EN" "http://www.w3.org/Graphics/SVG/1.1/DTD/svg11.dtd">
<!-- Creator: CorelDRAW 2018 (64-Bit) -->
<svg xmlns="http://www.w3.org/2000/svg" xml:space="preserve" width="42px" height="32px" version="1.1" style="shape-rendering:geometricPrecision; text-rendering:geometricPrecision; image-rendering:optimizeQuality; fill-rule:evenodd; clip-rule:evenodd"
viewBox="0 0 9.63 7.337"
 xmlns:xlink="http://www.w3.org/1999/xlink">
 <defs>
  <style type="text/css">
   <![CDATA[
    .fil0 {fill:none}
    .fil1 {fill:white;fill-rule:nonzero}
   ]]>
  </style>
 </defs>
 <g id="Layer_x0020_1">
  <metadata id="CorelCorpID_0Corel-Layer"/>
  <g id="_1612305404400">
   <rect class="fil0" width="9.63" height="7.337"/>
   <g>
    <path class="fil1" d="M3.197 1.778c0.063,0 0.114,0.051 0.114,0.114 0,0.064 -0.051,0.115 -0.114,0.115l-0.962 0c-0.011,0 -0.021,0.005 -0.028,0.012 -0.007,0.007 -0.012,0.017 -0.012,0.028l0 4.677c0,0.011 0.004,0.021 0.012,0.028 0.007,0.008 0.017,0.012 0.028,0.012l4.074 0c0.063,0 0.114,0.051 0.114,0.115 0,0.063 -0.051,0.114 -0.114,0.114l-4.074 0c-0.073,0 -0.14,-0.03 -0.189,-0.079l-0.001 0c-0.049,-0.049 -0.079,-0.117 -0.079,-0.19l0 -4.677c0,-0.074 0.03,-0.141 0.079,-0.19 0.049,-0.049 0.117,-0.079 0.19,-0.079l0.962 0zm4.467 3.86c0,0.063 -0.051,0.115 -0.114,0.115 -0.064,0 -0.115,-0.052 -0.115,-0.115l0 -3.591c0,-0.011 -0.005,-0.021 -0.012,-0.028 -0.007,-0.007 -0.017,-0.012 -0.028,-0.012l-0.647 0c-0.063,0 -0.115,-0.051 -0.115,-0.115 0,-0.063 0.052,-0.114 0.115,-0.114l0.647 0c0.073,0 0.141,0.03 0.19,0.079 0.049,0.049 0.079,0.116 0.079,0.19l0 3.591z"/>
    <path class="fil1" d="M7.273 5.753l-0.809 0c-0.011,0 -0.022,0.004 -0.029,0.011 -0.007,0.007 -0.012,0.018 -0.012,0.029l0 0.809 0.85 -0.849zm-0.809 -0.23l1.086 0c0.029,0 0.058,0.011 0.081,0.034 0.044,0.045 0.044,0.117 0,0.162l-1.24 1.239c-0.021,0.022 -0.05,0.035 -0.082,0.035 -0.063,0 -0.115,-0.051 -0.115,-0.114l0 -1.086c0,-0.074 0.031,-0.141 0.079,-0.19 0.05,-0.049 0.117,-0.08 0.191,-0.08z"/>
    <path class="fil1" d="M6.046 1.778c0.064,0 0.115,0.051 0.115,0.114 0,0.064 -0.051,0.115 -0.115,0.115l-0.724 0c-0.063,0 -0.114,-0.051 -0.114,-0.115 0,-0.063 0.051,-0.114 0.114,-0.114l0.724 0z"/>
    <path class="fil1" d="M4.621 1.778c0.063,0 0.114,0.051 0.114,0.114 0,0.064 -0.051,0.115 -0.114,0.115l-0.709 0c-0.063,0 -0.115,-0.051 -0.115,-0.115 0,-0.063 0.052,-0.114 0.115,-0.114l0.709 0z"/>
    <path class="fil1" d="M6.241 1.49c-0.022,0 -0.042,0.009 -0.057,0.024 -0.014,0.014 -0.023,0.034 -0.023,0.056l0 0.644c0,0.022 0.009,0.042 0.023,0.057 0.015,0.014 0.035,0.023 0.057,0.023 0.022,0 0.042,-0.009 0.056,-0.023 0.014,-0.015 0.023,-0.035 0.023,-0.057l0 -0.644c0,-0.022 -0.009,-0.042 -0.023,-0.056 -0.014,-0.015 -0.034,-0.024 -0.056,-0.024zm0 -0.229c0.085,0 0.162,0.035 0.218,0.091 0.056,0.056 0.091,0.133 0.091,0.218l0 0.644c0,0.086 -0.035,0.163 -0.091,0.219 -0.056,0.056 -0.133,0.09 -0.218,0.09 -0.085,0 -0.163,-0.034 -0.219,-0.09 -0.056,-0.056 -0.09,-0.133 -0.09,-0.219l0 -0.644c0,-0.085 0.034,-0.162 0.09,-0.218 0.056,-0.056 0.134,-0.091 0.219,-0.091z"/>
    <path class="fil1" d="M4.815 1.49c-0.022,0 -0.042,0.009 -0.056,0.024 -0.015,0.014 -0.024,0.034 -0.024,0.056l0 0.644c0,0.022 0.009,0.042 0.024,0.057 0.014,0.014 0.034,0.023 0.056,0.023 0.022,0 0.042,-0.009 0.056,-0.023 0.015,-0.015 0.024,-0.035 0.024,-0.057l0 -0.644c0,-0.022 -0.009,-0.042 -0.024,-0.056 -0.014,-0.015 -0.034,-0.024 -0.056,-0.024zm0 -0.229c0.085,0 0.162,0.035 0.218,0.091 0.056,0.056 0.091,0.133 0.091,0.218l0 0.644c0,0.086 -0.035,0.163 -0.091,0.219 -0.056,0.056 -0.133,0.09 -0.218,0.09 -0.085,0 -0.162,-0.034 -0.218,-0.09 -0.056,-0.056 -0.091,-0.133 -0.091,-0.219l0 -0.644c0,-0.085 0.035,-0.162 0.091,-0.218 0.056,-0.056 0.133,-0.091 0.218,-0.091z"/>
    <path class="fil1" d="M3.391 1.49c-0.022,0 -0.042,0.009 -0.056,0.024 -0.015,0.014 -0.024,0.034 -0.024,0.056l0 0.644c0,0.022 0.009,0.042 0.024,0.057 0.014,0.014 0.034,0.023 0.056,0.023 0.022,0 0.042,-0.009 0.056,-0.023 0.015,-0.015 0.024,-0.035 0.024,-0.057l0 -0.644c0,-0.022 -0.009,-0.042 -0.024,-0.056 -0.014,-0.015 -0.034,-0.024 -0.056,-0.024zm0 -0.229c0.085,0 0.163,0.035 0.219,0.091 0.055,0.056 0.09,0.133 0.09,0.218l0 0.644c0,0.086 -0.035,0.163 -0.09,0.219 -0.056,0.056 -0.134,0.09 -0.219,0.09 -0.085,0 -0.162,-0.034 -0.218,-0.09 -0.056,-0.056 -0.091,-0.133 -0.091,-0.219l0 -0.644c0,-0.085 0.035,-0.162 0.091,-0.218 0.056,-0.056 0.133,-0.091 0.218,-0.091z"/>
    <path class="fil1" d="M3.054 3.456l0.475 0c0.05,0 0.095,0.02 0.128,0.053 0.033,0.033 0.053,0.078 0.053,0.128l0 0.475c0,0.05 -0.02,0.095 -0.053,0.128 -0.033,0.033 -0.078,0.053 -0.128,0.053l-0.475 0c-0.05,0 -0.095,-0.02 -0.128,-0.053 -0.033,-0.033 -0.053,-0.078 -0.053,-0.128l0 -0.475c0,-0.05 0.02,-0.095 0.053,-0.128 0.033,-0.033 0.078,-0.053 0.128,-0.053zm0.427 0.229l-0.379 0 0 0.379 0.379 0 0 -0.379z"/>
    <path class="fil1" d="M4.578 3.456l0.474 0c0.05,0 0.096,0.02 0.128,0.053 0.033,0.033 0.054,0.078 0.054,0.128l0 0.475c0,0.05 -0.021,0.095 -0.054,0.128 -0.032,0.033 -0.078,0.053 -0.128,0.053l-0.474 0c-0.05,0 -0.096,-0.02 -0.128,-0.053 -0.033,-0.033 -0.053,-0.078 -0.053,-0.128l0 -0.475c0,-0.05 0.02,-0.095 0.053,-0.128 0.032,-0.033 0.078,-0.053 0.128,-0.053zm0.426 0.229l-0.378 0 0 0.379 0.378 0 0 -0.379z"/>
    <path class="fil1" d="M6.101 3.456l0.475 0c0.05,0 0.095,0.02 0.128,0.053 0.033,0.033 0.053,0.078 0.053,0.128l0 0.475c0,0.05 -0.02,0.095 -0.053,0.128 -0.033,0.033 -0.078,0.053 -0.128,0.053l-0.475 0c-0.05,0 -0.095,-0.02 -0.128,-0.053 -0.033,-0.033 -0.053,-0.078 -0.053,-0.128l0 -0.475c0,-0.05 0.02,-0.095 0.053,-0.128 0.033,-0.033 0.078,-0.053 0.128,-0.053zm0.427 0.229l-0.379 0 0 0.379 0.379 0 0 -0.379z"/>
    <path class="fil1" d="M3.054 5.01l0.475 0c0.05,0 0.095,0.021 0.128,0.053l0.009 0.011c0.027,0.031 0.044,0.073 0.044,0.117l0 0.475c0,0.05 -0.02,0.095 -0.053,0.128 -0.033,0.033 -0.078,0.053 -0.128,0.053l-0.475 0c-0.05,0 -0.095,-0.02 -0.128,-0.053 -0.033,-0.033 -0.053,-0.078 -0.053,-0.128l0 -0.475c0,-0.049 0.021,-0.095 0.053,-0.127 0.033,-0.033 0.078,-0.054 0.128,-0.054zm0.427 0.229l-0.379 0 0 0.379 0.379 0 0 -0.379z"/>
    <path class="fil1" d="M4.578 5.01l0.474 0c0.05,0 0.096,0.021 0.128,0.053l0.01 0.011c0.027,0.031 0.044,0.073 0.044,0.117l0 0.475c0,0.05 -0.021,0.095 -0.054,0.128 -0.032,0.033 -0.078,0.053 -0.128,0.053l-0.474 0c-0.05,0 -0.096,-0.02 -0.128,-0.053 -0.033,-0.033 -0.053,-0.078 -0.053,-0.128l0 -0.475c0,-0.049 0.02,-0.095 0.053,-0.127 0.032,-0.033 0.078,-0.054 0.128,-0.054zm0.426 0.229l-0.378 0 0 0.379 0.378 0 0 -0.379z"/>
   </g>
  </g>
 </g>
</svg>
