<?xml version="1.0" encoding="UTF-8"?>
<!DOCTYPE svg PUBLIC "-//W3C//DTD SVG 1.1//EN" "http://www.w3.org/Graphics/SVG/1.1/DTD/svg11.dtd">
<!-- Creator: CorelDRAW 2018 (64-Bit) -->
<svg xmlns="http://www.w3.org/2000/svg" xml:space="preserve" width="42px" height="32px" version="1.1" style="shape-rendering:geometricPrecision; text-rendering:geometricPrecision; image-rendering:optimizeQuality; fill-rule:evenodd; clip-rule:evenodd"
viewBox="0 0 5.247 3.998"
 xmlns:xlink="http://www.w3.org/1999/xlink">
 <defs>
  <style type="text/css">
   <![CDATA[
    .fil0 {fill:none}
    .fil1 {fill:gray;fill-rule:nonzero}
   ]]>
  </style>
 </defs>
 <g id="Layer_x0020_1">
  <metadata id="CorelCorpID_0Corel-Layer"/>
  <g id="_1612304334544">
   <rect class="fil0" width="5.247" height="3.998"/>
   <g>
    <path class="fil1" d="M2.846 0.937c-0.034,-0.002 -0.061,-0.031 -0.06,-0.065 0.002,-0.034 0.031,-0.061 0.065,-0.06 0.164,0.007 0.326,0.044 0.479,0.111 0.147,0.064 0.285,0.156 0.405,0.276 0.12,0.12 0.212,0.258 0.277,0.406 0.066,0.152 0.103,0.315 0.11,0.478 0.001,0.035 -0.026,0.064 -0.06,0.065 -0.034,0.001 -0.063,-0.025 -0.065,-0.06 -0.006,-0.148 -0.039,-0.295 -0.1,-0.434 -0.058,-0.132 -0.141,-0.257 -0.251,-0.366 -0.109,-0.109 -0.233,-0.193 -0.366,-0.251 -0.138,-0.061 -0.286,-0.094 -0.434,-0.1z"/>
    <path class="fil1" d="M3.572 2.071c0.003,0.034 -0.023,0.065 -0.057,0.067 -0.034,0.003 -0.064,-0.022 -0.067,-0.057 -0.007,-0.075 -0.026,-0.15 -0.059,-0.22 -0.031,-0.067 -0.074,-0.13 -0.13,-0.186 -0.056,-0.056 -0.119,-0.099 -0.186,-0.13 -0.07,-0.033 -0.145,-0.052 -0.22,-0.059 -0.035,-0.002 -0.06,-0.033 -0.057,-0.067 0.003,-0.034 0.033,-0.06 0.067,-0.057 0.09,0.008 0.179,0.031 0.262,0.07 0.081,0.037 0.156,0.089 0.222,0.155 0.066,0.066 0.118,0.141 0.156,0.222 0.038,0.083 0.062,0.172 0.069,0.262z"/>
    <path class="fil1" d="M2.292 2.642c-0.075,-0.076 -0.131,-0.139 -0.177,-0.201 -0.046,-0.062 -0.082,-0.122 -0.114,-0.19 -0.023,-0.049 -0.031,-0.097 -0.03,-0.14 0.002,-0.056 0.019,-0.104 0.04,-0.137 0.012,-0.019 0.027,-0.035 0.043,-0.049 0.015,-0.014 0.029,-0.025 0.044,-0.036 0.014,-0.011 0.029,-0.022 0.042,-0.034 0.015,-0.012 0.03,-0.026 0.045,-0.043 0.025,-0.028 0.037,-0.062 0.041,-0.094 0.006,-0.049 -0.005,-0.091 -0.016,-0.11 -0.06,-0.109 -0.165,-0.264 -0.275,-0.429l-0.065 -0.096c-0.017,-0.026 -0.037,-0.045 -0.059,-0.057 -0.022,-0.012 -0.047,-0.018 -0.075,-0.018 -0.017,0 -0.033,0.002 -0.048,0.005 -0.02,0.005 -0.037,0.011 -0.051,0.017 -0.026,0.011 -0.104,0.067 -0.188,0.157 -0.056,0.06 -0.112,0.132 -0.155,0.215 -0.061,0.115 -0.078,0.348 0.066,0.676 0.107,0.243 0.302,0.534 0.632,0.864 0.266,0.266 0.501,0.438 0.7,0.548 0.303,0.169 0.518,0.196 0.622,0.196 0.044,0 0.085,-0.004 0.122,-0.012 0.036,-0.008 0.069,-0.019 0.096,-0.034 0.083,-0.043 0.156,-0.099 0.215,-0.154 0.09,-0.085 0.146,-0.163 0.157,-0.189 0.013,-0.029 0.031,-0.085 0.018,-0.139 -0.008,-0.032 -0.029,-0.066 -0.071,-0.094l-0.095 -0.064c-0.082,-0.055 -0.162,-0.109 -0.237,-0.158 -0.073,-0.047 -0.139,-0.088 -0.192,-0.118 -0.008,-0.004 -0.02,-0.009 -0.036,-0.013 -0.013,-0.003 -0.03,-0.005 -0.048,-0.005 -0.017,0 -0.038,0.002 -0.059,0.009 -0.02,0.006 -0.042,0.017 -0.062,0.035 -0.034,0.029 -0.056,0.059 -0.076,0.084l-0.001 0.002c-0.011,0.015 -0.022,0.029 -0.036,0.044 -0.014,0.016 -0.03,0.031 -0.048,0.043l-0.001 0c-0.007,0.005 -0.025,0.016 -0.05,0.024 -0.025,0.009 -0.057,0.016 -0.095,0.016 -0.022,0 -0.044,-0.002 -0.067,-0.007 -0.022,-0.005 -0.044,-0.013 -0.065,-0.023 -0.068,-0.032 -0.128,-0.068 -0.19,-0.114 -0.062,-0.046 -0.125,-0.102 -0.201,-0.176l0 -0.001zm-0.077 -0.275c0.042,0.056 0.095,0.116 0.165,0.187 0.072,0.07 0.131,0.123 0.187,0.165 0.055,0.041 0.109,0.072 0.169,0.101 0.013,0.006 0.027,0.011 0.04,0.014 0.013,0.003 0.026,0.005 0.039,0.005 0.022,0 0.04,-0.005 0.054,-0.009 0.013,-0.005 0.02,-0.009 0.024,-0.012 0.009,-0.005 0.017,-0.013 0.024,-0.021 0.008,-0.008 0.018,-0.022 0.029,-0.036l0 0c0.024,-0.031 0.05,-0.066 0.093,-0.105 0.035,-0.03 0.073,-0.049 0.109,-0.06 0.035,-0.011 0.068,-0.014 0.095,-0.014 0.027,0 0.052,0.003 0.075,0.008 0.029,0.006 0.053,0.016 0.069,0.025 0.057,0.032 0.125,0.075 0.2,0.123 0.073,0.048 0.154,0.102 0.238,0.159l0.095 0.064c0.073,0.048 0.108,0.108 0.123,0.168 0.021,0.089 -0.005,0.173 -0.024,0.217 -0.016,0.036 -0.083,0.134 -0.187,0.231 -0.066,0.061 -0.148,0.124 -0.242,0.174 -0.038,0.02 -0.082,0.035 -0.128,0.045 -0.046,0.009 -0.096,0.015 -0.148,0.015 -0.116,-0.001 -0.355,-0.029 -0.683,-0.212 -0.208,-0.116 -0.453,-0.295 -0.727,-0.569 -0.342,-0.342 -0.546,-0.646 -0.658,-0.902 -0.162,-0.369 -0.136,-0.643 -0.062,-0.784 0.049,-0.094 0.112,-0.176 0.173,-0.242 0.097,-0.103 0.196,-0.171 0.231,-0.186 0.019,-0.009 0.045,-0.018 0.074,-0.024 0.022,-0.006 0.048,-0.009 0.074,-0.009 0.049,0 0.094,0.011 0.135,0.034 0.039,0.022 0.074,0.054 0.102,0.097l0.065 0.096c0.112,0.167 0.218,0.324 0.281,0.437 0.02,0.035 0.04,0.109 0.031,0.185 -0.007,0.055 -0.028,0.112 -0.072,0.163 -0.02,0.022 -0.039,0.04 -0.057,0.055 -0.018,0.015 -0.033,0.027 -0.048,0.038 -0.014,0.011 -0.027,0.021 -0.036,0.029 -0.008,0.007 -0.015,0.015 -0.021,0.024 -0.011,0.017 -0.02,0.042 -0.021,0.073 0,0.025 0.005,0.054 0.019,0.084 0.029,0.061 0.06,0.114 0.101,0.169z"/>
   </g>
  </g>
 </g>
</svg>
