<?xml version="1.0" encoding="UTF-8"?>
<!DOCTYPE svg PUBLIC "-//W3C//DTD SVG 1.1//EN" "http://www.w3.org/Graphics/SVG/1.1/DTD/svg11.dtd">
<!-- Creator: CorelDRAW 2018 (64-Bit) -->
<svg xmlns="http://www.w3.org/2000/svg" xml:space="preserve" width="42px" height="32px" version="1.1" style="shape-rendering:geometricPrecision; text-rendering:geometricPrecision; image-rendering:optimizeQuality; fill-rule:evenodd; clip-rule:evenodd"
viewBox="0 0 9.63 7.337"
 xmlns:xlink="http://www.w3.org/1999/xlink">
 <defs>
  <style type="text/css">
   <![CDATA[
    .fil0 {fill:none}
    .fil1 {fill:white;fill-rule:nonzero}
   ]]>
  </style>
 </defs>
 <g id="Layer_x0020_1">
  <metadata id="CorelCorpID_0Corel-Layer"/>
  <g id="_1612302445408">
   <rect class="fil0" width="9.63" height="7.337"/>
   <g>
    <path class="fil1" d="M5.223 1.719c-0.063,-0.002 -0.112,-0.055 -0.11,-0.118 0.003,-0.063 0.056,-0.113 0.119,-0.11 0.3,0.012 0.599,0.079 0.879,0.202 0.27,0.118 0.523,0.288 0.743,0.508 0.221,0.22 0.39,0.473 0.508,0.744 0.123,0.28 0.191,0.578 0.203,0.878 0.002,0.063 -0.047,0.117 -0.11,0.119 -0.063,0.003 -0.116,-0.047 -0.119,-0.11 -0.011,-0.272 -0.072,-0.542 -0.183,-0.796 -0.107,-0.244 -0.261,-0.472 -0.461,-0.673 -0.2,-0.2 -0.429,-0.354 -0.673,-0.46 -0.253,-0.112 -0.524,-0.173 -0.796,-0.184z"/>
    <path class="fil1" d="M6.556 3.801c0.005,0.063 -0.042,0.118 -0.105,0.124 -0.063,0.005 -0.118,-0.042 -0.123,-0.105 -0.012,-0.139 -0.048,-0.276 -0.108,-0.404 -0.057,-0.123 -0.137,-0.239 -0.239,-0.341 -0.103,-0.103 -0.218,-0.183 -0.341,-0.24 -0.129,-0.059 -0.266,-0.095 -0.404,-0.107 -0.063,-0.005 -0.11,-0.061 -0.105,-0.124 0.005,-0.063 0.06,-0.11 0.124,-0.104 0.164,0.014 0.327,0.056 0.48,0.127 0.148,0.069 0.287,0.164 0.408,0.286 0.121,0.121 0.216,0.259 0.285,0.407 0.071,0.153 0.114,0.316 0.128,0.481z"/>
    <path class="fil1" d="M4.206 4.849c-0.137,-0.139 -0.24,-0.255 -0.324,-0.368 -0.085,-0.115 -0.15,-0.225 -0.209,-0.35 -0.043,-0.09 -0.058,-0.178 -0.056,-0.257 0.003,-0.103 0.035,-0.192 0.074,-0.252 0.022,-0.035 0.049,-0.063 0.078,-0.09 0.028,-0.025 0.054,-0.045 0.081,-0.065 0.025,-0.02 0.053,-0.04 0.078,-0.062 0.027,-0.023 0.054,-0.048 0.081,-0.079 0.047,-0.053 0.069,-0.115 0.076,-0.174 0.011,-0.089 -0.009,-0.167 -0.028,-0.202 -0.112,-0.199 -0.303,-0.484 -0.507,-0.786l-0.118 -0.177c-0.032,-0.047 -0.068,-0.081 -0.109,-0.104 -0.039,-0.022 -0.085,-0.033 -0.137,-0.033 -0.031,0 -0.06,0.004 -0.087,0.01 -0.037,0.008 -0.07,0.02 -0.094,0.03 -0.049,0.021 -0.192,0.123 -0.346,0.289 -0.102,0.109 -0.205,0.242 -0.284,0.394 -0.111,0.212 -0.143,0.639 0.121,1.24 0.196,0.446 0.554,0.981 1.16,1.586 0.487,0.488 0.92,0.804 1.284,1.007 0.557,0.31 0.951,0.358 1.143,0.358 0.08,0 0.155,-0.007 0.223,-0.022 0.066,-0.014 0.126,-0.035 0.177,-0.061 0.151,-0.079 0.285,-0.183 0.393,-0.284 0.166,-0.155 0.268,-0.298 0.289,-0.346 0.023,-0.054 0.057,-0.156 0.032,-0.255 -0.014,-0.06 -0.052,-0.12 -0.129,-0.173l-0.175 -0.117c-0.151,-0.101 -0.298,-0.2 -0.435,-0.289 -0.133,-0.087 -0.254,-0.163 -0.353,-0.218 -0.015,-0.008 -0.037,-0.016 -0.065,-0.023 -0.024,-0.005 -0.054,-0.009 -0.089,-0.009 -0.031,0 -0.069,0.004 -0.108,0.015 -0.037,0.012 -0.076,0.031 -0.113,0.064 -0.062,0.055 -0.103,0.109 -0.139,0.156l-0.002 0.003c-0.021,0.027 -0.04,0.053 -0.066,0.081 -0.026,0.03 -0.055,0.056 -0.089,0.078l-0.001 0.001c-0.014,0.009 -0.047,0.028 -0.092,0.044 -0.046,0.016 -0.105,0.03 -0.174,0.03 -0.041,0 -0.082,-0.005 -0.124,-0.015 -0.04,-0.009 -0.08,-0.023 -0.119,-0.041 -0.125,-0.06 -0.235,-0.125 -0.349,-0.21 -0.113,-0.084 -0.229,-0.187 -0.368,-0.323l-0.001 -0.001zm-0.14 -0.505c0.077,0.104 0.173,0.212 0.302,0.344 0.131,0.128 0.24,0.225 0.343,0.302 0.101,0.075 0.199,0.133 0.311,0.186 0.024,0.011 0.048,0.02 0.073,0.025 0.023,0.006 0.047,0.008 0.072,0.008 0.04,0 0.073,-0.007 0.098,-0.016 0.023,-0.008 0.038,-0.016 0.044,-0.02 0.017,-0.011 0.031,-0.024 0.045,-0.04 0.014,-0.015 0.032,-0.04 0.052,-0.066l0.001 0c0.043,-0.057 0.092,-0.122 0.171,-0.192 0.063,-0.056 0.133,-0.091 0.199,-0.111 0.065,-0.02 0.126,-0.026 0.174,-0.026 0.05,0 0.097,0.006 0.138,0.015 0.053,0.012 0.097,0.029 0.128,0.046 0.104,0.059 0.229,0.137 0.366,0.226 0.134,0.087 0.283,0.188 0.437,0.291l0.175 0.118c0.132,0.088 0.198,0.199 0.224,0.308 0.04,0.163 -0.009,0.318 -0.044,0.399 -0.028,0.065 -0.152,0.245 -0.343,0.423 -0.121,0.113 -0.271,0.229 -0.444,0.319 -0.07,0.037 -0.149,0.065 -0.235,0.083 -0.084,0.018 -0.175,0.027 -0.27,0.027 -0.214,0 -0.653,-0.052 -1.254,-0.387 -0.382,-0.214 -0.833,-0.542 -1.335,-1.044 -0.628,-0.628 -1.001,-1.188 -1.207,-1.657 -0.297,-0.677 -0.25,-1.179 -0.115,-1.438 0.091,-0.173 0.206,-0.323 0.319,-0.444 0.178,-0.19 0.358,-0.315 0.424,-0.343 0.035,-0.015 0.081,-0.032 0.134,-0.043 0.042,-0.01 0.089,-0.016 0.137,-0.016 0.091,0 0.173,0.02 0.247,0.061 0.073,0.041 0.136,0.1 0.189,0.178l0.119 0.177c0.205,0.306 0.399,0.595 0.515,0.802 0.036,0.065 0.074,0.199 0.057,0.34 -0.013,0.1 -0.051,0.206 -0.133,0.298 -0.036,0.041 -0.071,0.074 -0.103,0.102 -0.033,0.028 -0.062,0.05 -0.089,0.07 -0.026,0.02 -0.05,0.038 -0.066,0.053 -0.015,0.013 -0.028,0.027 -0.039,0.044 -0.02,0.03 -0.036,0.077 -0.037,0.133 -0.002,0.047 0.008,0.1 0.034,0.155 0.052,0.111 0.11,0.209 0.186,0.31z"/>
   </g>
  </g>
 </g>
</svg>
