<?xml version="1.0" encoding="UTF-8"?>
<!DOCTYPE svg PUBLIC "-//W3C//DTD SVG 1.1//EN" "http://www.w3.org/Graphics/SVG/1.1/DTD/svg11.dtd">
<!-- Creator: CorelDRAW 2018 (64-Bit) -->
<svg xmlns="http://www.w3.org/2000/svg" xml:space="preserve" width="42px" height="32px" version="1.1" style="shape-rendering:geometricPrecision; text-rendering:geometricPrecision; image-rendering:optimizeQuality; fill-rule:evenodd; clip-rule:evenodd"
viewBox="0 0 58.454 44.536"
 xmlns:xlink="http://www.w3.org/1999/xlink">
 <defs>
  <style type="text/css">
   <![CDATA[
    .fil0 {fill:none}
    .fil1 {fill:#00F4FF;fill-rule:nonzero}
   ]]>
  </style>
 </defs>
 <g id="Layer_x0020_1">
  <metadata id="CorelCorpID_0Corel-Layer"/>
  <g id="_1612302427520">
   <rect class="fil0" width="58.454" height="44.536"/>
   <g>
    <path class="fil1" d="M31.704 10.436c-0.383,-0.015 -0.681,-0.338 -0.666,-0.721 0.015,-0.382 0.338,-0.681 0.72,-0.666 1.823,0.074 3.635,0.484 5.334,1.228 1.641,0.719 3.176,1.747 4.513,3.084 1.337,1.337 2.366,2.872 3.085,4.513 0.744,1.699 1.154,3.511 1.227,5.334 0.015,0.383 -0.283,0.705 -0.666,0.72 -0.382,0.015 -0.705,-0.283 -0.72,-0.665 -0.067,-1.651 -0.438,-3.293 -1.113,-4.834 -0.648,-1.479 -1.581,-2.868 -2.797,-4.084 -1.216,-1.216 -2.605,-2.148 -4.083,-2.796 -1.541,-0.675 -3.183,-1.047 -4.834,-1.113z"/>
    <path class="fil1" d="M39.794 23.072c0.032,0.382 -0.253,0.718 -0.636,0.75 -0.382,0.032 -0.718,-0.253 -0.75,-0.636 -0.071,-0.842 -0.289,-1.673 -0.651,-2.452 -0.347,-0.746 -0.832,-1.449 -1.453,-2.071 -0.622,-0.622 -1.325,-1.107 -2.072,-1.454 -0.778,-0.362 -1.61,-0.579 -2.452,-0.65 -0.382,-0.032 -0.667,-0.368 -0.635,-0.751 0.031,-0.382 0.367,-0.667 0.75,-0.636 0.999,0.085 1.989,0.344 2.919,0.776 0.898,0.418 1.738,0.995 2.474,1.731 0.735,0.736 1.312,1.576 1.73,2.474 0.432,0.929 0.691,1.919 0.776,2.919z"/>
    <path class="fil1" d="M25.529 29.43c-0.827,-0.841 -1.453,-1.547 -1.964,-2.233 -0.519,-0.696 -0.914,-1.364 -1.271,-2.12 -0.258,-0.546 -0.35,-1.082 -0.337,-1.564 0.017,-0.621 0.209,-1.161 0.446,-1.528 0.137,-0.211 0.297,-0.384 0.474,-0.544 0.172,-0.155 0.328,-0.274 0.492,-0.398 0.155,-0.118 0.321,-0.243 0.475,-0.375 0.16,-0.137 0.326,-0.294 0.492,-0.479 0.284,-0.32 0.417,-0.696 0.46,-1.054 0.066,-0.54 -0.054,-1.014 -0.172,-1.227 -0.675,-1.208 -1.84,-2.939 -3.074,-4.773l-0.719 -1.072c-0.191,-0.285 -0.412,-0.497 -0.659,-0.634 -0.241,-0.132 -0.518,-0.2 -0.831,-0.2 -0.187,0 -0.368,0.025 -0.532,0.061 -0.225,0.047 -0.422,0.119 -0.571,0.184 -0.295,0.127 -1.161,0.748 -2.1,1.752 -0.616,0.66 -1.243,1.471 -1.724,2.39 -0.674,1.287 -0.865,3.879 0.738,7.529 1.191,2.706 3.364,5.954 7.039,9.629 2.959,2.959 5.583,4.876 7.796,6.11 3.377,1.882 5.774,2.176 6.934,2.176 0.488,-0.003 0.944,-0.048 1.355,-0.136 0.403,-0.086 0.766,-0.211 1.074,-0.372 0.918,-0.48 1.729,-1.107 2.389,-1.723 1.005,-0.939 1.626,-1.805 1.751,-2.098 0.141,-0.328 0.344,-0.95 0.198,-1.55 -0.088,-0.361 -0.315,-0.731 -0.786,-1.047l-1.062 -0.713c-0.915,-0.616 -1.806,-1.215 -2.638,-1.756 -0.811,-0.528 -1.545,-0.987 -2.144,-1.321 -0.089,-0.048 -0.223,-0.1 -0.395,-0.138 -0.149,-0.034 -0.33,-0.056 -0.538,-0.056 -0.192,0 -0.424,0.021 -0.656,0.092 -0.225,0.069 -0.465,0.189 -0.689,0.388 -0.378,0.333 -0.626,0.658 -0.843,0.944l-0.014 0.022c-0.125,0.164 -0.241,0.319 -0.398,0.493 -0.161,0.176 -0.334,0.335 -0.541,0.471l-0.006 0.002c-0.087,0.056 -0.287,0.174 -0.56,0.27 -0.277,0.097 -0.637,0.181 -1.057,0.181 -0.246,0 -0.497,-0.03 -0.749,-0.088 -0.244,-0.056 -0.486,-0.14 -0.723,-0.253 -0.757,-0.359 -1.425,-0.753 -2.121,-1.271 -0.685,-0.511 -1.39,-1.136 -2.23,-1.962l-0.009 -0.009zm-0.85 -3.059c0.467,0.626 1.052,1.286 1.836,2.082 0.795,0.782 1.453,1.367 2.079,1.833 0.617,0.459 1.211,0.81 1.887,1.131 0.145,0.068 0.294,0.12 0.444,0.155 0.139,0.033 0.285,0.049 0.436,0.049 0.245,0 0.446,-0.046 0.595,-0.098 0.144,-0.051 0.233,-0.101 0.272,-0.126 0.099,-0.065 0.186,-0.146 0.269,-0.238 0.086,-0.095 0.198,-0.243 0.317,-0.4l0.007 -0.005c0.26,-0.344 0.556,-0.735 1.037,-1.161 0.384,-0.344 0.806,-0.554 1.209,-0.677 0.396,-0.121 0.764,-0.158 1.058,-0.158 0.298,0 0.584,0.038 0.837,0.094 0.322,0.072 0.59,0.178 0.772,0.28 0.634,0.355 1.393,0.829 2.224,1.37 0.813,0.529 1.721,1.14 2.654,1.767l1.062 0.713c0.803,0.539 1.199,1.207 1.362,1.873 0.241,0.989 -0.058,1.93 -0.268,2.42 -0.169,0.396 -0.926,1.49 -2.083,2.57 -0.734,0.685 -1.645,1.387 -2.693,1.936 -0.427,0.223 -0.908,0.391 -1.428,0.502 -0.513,0.11 -1.066,0.166 -1.643,0.166 -1.299,-0.002 -3.96,-0.32 -7.607,-2.353 -2.322,-1.294 -5.056,-3.287 -8.107,-6.338 -3.809,-3.808 -6.074,-7.205 -7.326,-10.054 -1.804,-4.107 -1.518,-7.157 -0.696,-8.73 0.55,-1.05 1.252,-1.961 1.936,-2.694 1.082,-1.157 2.175,-1.912 2.571,-2.081 0.213,-0.091 0.495,-0.194 0.818,-0.265 0.254,-0.059 0.535,-0.096 0.831,-0.096 0.548,0 1.049,0.125 1.499,0.374 0.442,0.245 0.825,0.606 1.143,1.079l0.722 1.072c1.247,1.858 2.427,3.612 3.131,4.871 0.218,0.393 0.445,1.209 0.341,2.064 -0.074,0.606 -0.305,1.248 -0.803,1.809 -0.223,0.25 -0.431,0.447 -0.627,0.615 -0.203,0.173 -0.378,0.306 -0.541,0.43 -0.157,0.118 -0.302,0.228 -0.4,0.316 -0.091,0.082 -0.171,0.169 -0.235,0.267 -0.12,0.188 -0.219,0.472 -0.228,0.81 -0.007,0.285 0.049,0.607 0.206,0.939 0.32,0.676 0.671,1.271 1.13,1.887z"/>
   </g>
  </g>
 </g>
</svg>
