<?xml version="1.0" encoding="UTF-8"?>
<!DOCTYPE svg PUBLIC "-//W3C//DTD SVG 1.1//EN" "http://www.w3.org/Graphics/SVG/1.1/DTD/svg11.dtd">
<!-- Creator: CorelDRAW 2018 (64-Bit) -->
<svg xmlns="http://www.w3.org/2000/svg" xml:space="preserve" width="42px" height="32px" version="1.1" style="shape-rendering:geometricPrecision; text-rendering:geometricPrecision; image-rendering:optimizeQuality; fill-rule:evenodd; clip-rule:evenodd"
viewBox="0 0 6.602 5.03"
 xmlns:xlink="http://www.w3.org/1999/xlink">
 <defs>
  <style type="text/css">
   <![CDATA[
    .fil0 {fill:none}
    .fil1 {fill:#00F4FF;fill-rule:nonzero}
   ]]>
  </style>
 </defs>
 <g id="Layer_x0020_1">
  <metadata id="CorelCorpID_0Corel-Layer"/>
  <g id="_1612629299120">
   <rect class="fil0" width="6.602" height="5.03"/>
   <g>
    <path class="fil1" d="M1.563 0.557c0,-0.045 0.019,-0.086 0.048,-0.116 0.03,-0.03 0.071,-0.048 0.116,-0.048l2.273 0c0.022,0 0.042,0.009 0.056,0.024l0.96 0.96c0.015,0.015 0.023,0.035 0.023,0.055l0 3.199c0,0.045 -0.019,0.086 -0.048,0.115 -0.03,0.03 -0.071,0.049 -0.116,0.049l-3.148 0c-0.045,0 -0.086,-0.019 -0.115,-0.048 -0.03,-0.03 -0.049,-0.071 -0.049,-0.116l0 -4.074zm0.159 -0.005c-0.001,0.001 -0.001,0.003 -0.001,0.005l0 4.074c0,0.002 0,0.003 0.002,0.005 0.001,0.001 0.002,0.001 0.004,0.001l3.148 0c0.002,0 0.004,0 0.005,-0.002 0.001,-0.001 0.002,-0.002 0.002,-0.004l0 -3.166 -0.915 -0.915 -2.24 0c-0.002,0 -0.003,0.001 -0.005,0.002z"/>
    <path class="fil1" d="M4.96 1.511l-0.879 0c-0.044,0 -0.084,-0.018 -0.113,-0.047 -0.029,-0.029 -0.047,-0.069 -0.047,-0.113l0 -0.879c0,-0.044 0.035,-0.079 0.079,-0.079 0.022,0 0.042,0.009 0.056,0.024l0.96 0.96c0.031,0.031 0.031,0.08 0,0.111 -0.015,0.015 -0.036,0.023 -0.056,0.023zm-0.879 -0.157l0.69 0 -0.693 -0.693 0 0.69 0.001 0.002 0.002 0.001z"/>
    <path class="fil1" d="M2.33 1.798c0.045,-0.012 0.099,0.003 0.147,0.017l0.038 0.01c0.046,0.01 0.097,0.016 0.15,0.016 0.055,0 0.109,-0.006 0.157,-0.018l0.032 -0.008c0.047,-0.014 0.101,-0.029 0.147,-0.017 0.031,0.008 0.084,0.039 0.121,0.086 0.027,0.034 0.048,0.078 0.053,0.13l0.022 0.251 0 0.01c0,0.032 -0.013,0.06 -0.034,0.081 -0.019,0.018 -0.046,0.031 -0.074,0.033 -0.263,0.015 -0.57,0.001 -0.838,0.001l-0.016 -0.001c-0.026,-0.004 -0.05,-0.016 -0.067,-0.033 -0.021,-0.021 -0.035,-0.049 -0.035,-0.081l0.023 -0.261c0.004,-0.052 0.025,-0.096 0.052,-0.13 0.037,-0.047 0.09,-0.078 0.122,-0.086zm0.104 0.168c-0.028,-0.008 -0.06,-0.018 -0.065,-0.017 -0.007,0.002 -0.022,0.013 -0.037,0.032 -0.01,0.013 -0.018,0.029 -0.02,0.046l-0.018 0.206 0.742 0 -0.018 -0.206c-0.001,-0.017 -0.009,-0.033 -0.019,-0.046 -0.015,-0.019 -0.03,-0.03 -0.038,-0.032 -0.004,-0.001 -0.037,0.009 -0.065,0.017l-0.038 0.01c-0.061,0.014 -0.128,0.022 -0.193,0.022 -0.062,0 -0.126,-0.007 -0.186,-0.021l-0.007 -0.001 -0.038 -0.01z"/>
    <path class="fil1" d="M2.664 0.97c0.105,0 0.201,0.043 0.27,0.112 0.069,0.07 0.112,0.166 0.112,0.271 0,0.106 -0.043,0.201 -0.112,0.271 -0.069,0.069 -0.165,0.112 -0.27,0.112 -0.106,0 -0.201,-0.043 -0.271,-0.112l0 -0.001c-0.069,-0.069 -0.112,-0.165 -0.112,-0.27 0,-0.105 0.043,-0.201 0.112,-0.27 0.07,-0.07 0.165,-0.113 0.271,-0.113zm0.159 0.223c-0.041,-0.04 -0.097,-0.065 -0.159,-0.065 -0.063,0 -0.119,0.025 -0.16,0.065 -0.04,0.041 -0.066,0.098 -0.066,0.16 0,0.062 0.025,0.119 0.066,0.159 0.041,0.041 0.097,0.066 0.16,0.066 0.062,0 0.118,-0.025 0.159,-0.066 0.041,-0.04 0.066,-0.097 0.066,-0.159 0,-0.062 -0.025,-0.119 -0.066,-0.16z"/>
    <path class="fil1" d="M3.539 2.39c-0.044,0 -0.079,-0.035 -0.079,-0.079 0,-0.043 0.035,-0.078 0.079,-0.078l0.851 0c0.044,0 0.079,0.035 0.079,0.078 0,0.044 -0.035,0.079 -0.079,0.079l-0.851 0z"/>
    <path class="fil1" d="M2.212 3.155c-0.044,0 -0.079,-0.036 -0.079,-0.079 0,-0.043 0.035,-0.079 0.079,-0.079l2.179 0c0.043,0 0.078,0.036 0.078,0.079 0,0.043 -0.035,0.079 -0.078,0.079l-2.179 0z"/>
    <path class="fil1" d="M2.212 3.919c-0.044,0 -0.079,-0.035 -0.079,-0.078 0,-0.044 0.035,-0.079 0.079,-0.079l0.986 0c0.043,0 0.078,0.035 0.078,0.079 0,0.043 -0.035,0.078 -0.078,0.078l-0.986 0z"/>
   </g>
  </g>
 </g>
</svg>
