<?xml version="1.0" encoding="UTF-8"?>
<!DOCTYPE svg PUBLIC "-//W3C//DTD SVG 1.1//EN" "http://www.w3.org/Graphics/SVG/1.1/DTD/svg11.dtd">
<!-- Creator: CorelDRAW 2018 (64-Bit) -->
<svg xmlns="http://www.w3.org/2000/svg" xml:space="preserve" width="42px" height="32px" version="1.1" style="shape-rendering:geometricPrecision; text-rendering:geometricPrecision; image-rendering:optimizeQuality; fill-rule:evenodd; clip-rule:evenodd"
viewBox="0 0 4.198 3.199"
 xmlns:xlink="http://www.w3.org/1999/xlink">
 <defs>
  <style type="text/css">
   <![CDATA[
    .fil0 {fill:none}
    .fil1 {fill:white;fill-rule:nonzero}
   ]]>
  </style>
 </defs>
 <g id="Layer_x0020_1">
  <metadata id="CorelCorpID_0Corel-Layer"/>
  <g id="_1612772251744">
   <rect class="fil0" width="4.198" height="3.199"/>
   <g>
    <path class="fil1" d="M0.994 0.354c0,-0.029 0.012,-0.055 0.031,-0.073 0.018,-0.019 0.044,-0.031 0.073,-0.031l1.445 0c0.014,0 0.027,0.006 0.036,0.015l0.61 0.611c0.01,0.009 0.015,0.022 0.015,0.035l0 2.034c0,0.028 -0.012,0.054 -0.031,0.073 -0.018,0.019 -0.044,0.031 -0.073,0.031l-2.002 0c-0.028,0 -0.054,-0.012 -0.073,-0.031 -0.019,-0.019 -0.031,-0.045 -0.031,-0.073l0 -2.591zm0.101 -0.003c0,0.001 -0.001,0.002 -0.001,0.003l0 2.591c0,0.001 0.001,0.002 0.001,0.003 0.001,0 0.002,0.001 0.003,0.001l2.002 0c0.001,0 0.002,-0.001 0.003,-0.001 0.001,-0.001 0.001,-0.002 0.001,-0.003l0 -2.013 -0.581 -0.582 -1.425 0c-0.001,0 -0.002,0 -0.003,0.001z"/>
    <path class="fil1" d="M3.154 0.961l-0.559 0c-0.028,0 -0.053,-0.012 -0.072,-0.03 -0.018,-0.019 -0.03,-0.044 -0.03,-0.072l0 -0.559c0,-0.028 0.023,-0.05 0.05,-0.05 0.014,0 0.027,0.006 0.036,0.015l0.61 0.611c0.02,0.019 0.02,0.051 0,0.07 -0.009,0.01 -0.022,0.015 -0.035,0.015zm-0.559 -0.1l0.438 0 -0.44 -0.44 0 0.438 0.001 0.001 0.001 0.001z"/>
    <path class="fil1" d="M1.481 1.143c0.029,-0.007 0.064,0.002 0.094,0.011l0.024 0.006c0.029,0.007 0.062,0.01 0.096,0.01 0.035,0 0.069,-0.003 0.099,-0.011l0.02 -0.005c0.031,-0.009 0.065,-0.018 0.094,-0.011 0.02,0.005 0.054,0.025 0.077,0.055 0.017,0.022 0.031,0.05 0.034,0.083l0.014 0.159 0 0.007c0,0.02 -0.009,0.038 -0.022,0.051 -0.012,0.012 -0.029,0.02 -0.047,0.021 -0.167,0.01 -0.362,0.001 -0.533,0.001l-0.01 -0.001c-0.016,-0.003 -0.031,-0.01 -0.043,-0.021 -0.013,-0.013 -0.022,-0.031 -0.022,-0.051l0.015 -0.166c0.003,-0.033 0.016,-0.061 0.033,-0.083 0.024,-0.03 0.057,-0.05 0.077,-0.055zm0.067 0.107c-0.018,-0.005 -0.039,-0.011 -0.041,-0.01 -0.005,0.001 -0.015,0.008 -0.024,0.02 -0.007,0.008 -0.012,0.018 -0.013,0.029l-0.011 0.131 0.472 0 -0.012 -0.131c-0.001,-0.011 -0.006,-0.021 -0.012,-0.029 -0.01,-0.012 -0.019,-0.019 -0.024,-0.02 -0.003,-0.001 -0.023,0.005 -0.042,0.01l-0.024 0.006c-0.039,0.01 -0.081,0.014 -0.122,0.014 -0.04,0 -0.081,-0.004 -0.119,-0.013l-0.004 -0.001 -0.024 -0.006z"/>
    <path class="fil1" d="M1.694 0.617c0.067,0 0.128,0.027 0.172,0.071 0.044,0.045 0.071,0.105 0.071,0.172 0,0.067 -0.027,0.128 -0.071,0.172 -0.044,0.044 -0.105,0.072 -0.172,0.072 -0.067,0 -0.128,-0.028 -0.172,-0.072l0 0c-0.044,-0.044 -0.072,-0.105 -0.072,-0.172 0,-0.067 0.028,-0.127 0.072,-0.172 0.044,-0.044 0.105,-0.071 0.172,-0.071zm0.101 0.142c-0.026,-0.026 -0.062,-0.042 -0.101,-0.042 -0.04,0 -0.076,0.016 -0.102,0.042 -0.026,0.026 -0.042,0.062 -0.042,0.101 0,0.04 0.016,0.076 0.042,0.102 0.026,0.026 0.062,0.042 0.102,0.042 0.039,0 0.075,-0.016 0.101,-0.042 0.026,-0.026 0.042,-0.062 0.042,-0.102 0,-0.039 -0.016,-0.075 -0.042,-0.101z"/>
    <path class="fil1" d="M2.25 1.52c-0.027,0 -0.05,-0.023 -0.05,-0.05 0,-0.028 0.023,-0.05 0.05,-0.05l0.542 0c0.027,0 0.05,0.022 0.05,0.05 0,0.027 -0.023,0.05 -0.05,0.05l-0.542 0z"/>
    <path class="fil1" d="M1.406 2.006c-0.027,0 -0.05,-0.022 -0.05,-0.05 0,-0.028 0.023,-0.05 0.05,-0.05l1.386 0c0.027,0 0.05,0.022 0.05,0.05 0,0.028 -0.023,0.05 -0.05,0.05l-1.386 0z"/>
    <path class="fil1" d="M1.406 2.492c-0.027,0 -0.05,-0.022 -0.05,-0.05 0,-0.027 0.023,-0.05 0.05,-0.05l0.627 0c0.028,0 0.05,0.023 0.05,0.05 0,0.028 -0.022,0.05 -0.05,0.05l-0.627 0z"/>
   </g>
  </g>
 </g>
</svg>
