<?xml version="1.0" encoding="UTF-8"?>
<!DOCTYPE svg PUBLIC "-//W3C//DTD SVG 1.1//EN" "http://www.w3.org/Graphics/SVG/1.1/DTD/svg11.dtd">
<!-- Creator: CorelDRAW 2018 (64-Bit) -->
<svg xmlns="http://www.w3.org/2000/svg" xml:space="preserve" width="42px" height="32px" version="1.1" style="shape-rendering:geometricPrecision; text-rendering:geometricPrecision; image-rendering:optimizeQuality; fill-rule:evenodd; clip-rule:evenodd"
viewBox="0 0 9.63 7.337"
 xmlns:xlink="http://www.w3.org/1999/xlink">
 <defs>
  <style type="text/css">
   <![CDATA[
    .fil0 {fill:none}
    .fil1 {fill:#00F4FF;fill-rule:nonzero}
   ]]>
  </style>
 </defs>
 <g id="Layer_x0020_1">
  <metadata id="CorelCorpID_0Corel-Layer"/>
  <g id="_1612679543520">
   <rect class="fil0" width="9.63" height="7.337"/>
   <g>
    <path class="fil1" d="M4.448 6.428c0.063,0 0.115,0.051 0.115,0.115 0,0.063 -0.052,0.114 -0.115,0.114l-2.235 0c-0.062,0 -0.119,-0.025 -0.16,-0.066l-0.008 -0.009c-0.037,-0.041 -0.059,-0.094 -0.059,-0.152l0 -5.4c0,-0.062 0.026,-0.119 0.067,-0.16 0.041,-0.042 0.098,-0.067 0.16,-0.067l3.013 0c0.032,0 0.061,0.013 0.082,0.035l1.272 1.272c0.022,0.022 0.034,0.051 0.034,0.081l0 1.61c0,0.063 -0.052,0.114 -0.115,0.114 -0.063,0 -0.115,-0.051 -0.115,-0.114l0 -1.563 -1.206 -1.206 -2.962 0 0 5.396 2.232 0z"/>
    <path class="fil1" d="M6.499 2.305l-1.165 0c-0.061,0 -0.117,-0.025 -0.157,-0.065 -0.041,-0.041 -0.066,-0.097 -0.066,-0.158l0 -1.165c0,-0.063 0.051,-0.114 0.115,-0.114 0.032,0 0.061,0.013 0.082,0.035l1.272 1.272c0.045,0.044 0.045,0.117 0,0.162 -0.022,0.022 -0.052,0.033 -0.081,0.033zm-1.159 -0.229l0.882 0 -0.882 -0.882 0 0.882z"/>
    <path class="fil1" d="M5.275 4.741l2.448 0c0.104,0 0.199,0.043 0.268,0.111 0.068,0.069 0.111,0.164 0.111,0.268l0 1.724c0,0.104 -0.043,0.199 -0.111,0.267l-0.008 0.007c-0.068,0.065 -0.16,0.105 -0.26,0.105l-2.448 0c-0.104,0 -0.199,-0.043 -0.268,-0.112l0 0c-0.069,-0.069 -0.111,-0.164 -0.111,-0.267l0 -1.724c0,-0.104 0.042,-0.199 0.111,-0.268 0.068,-0.068 0.163,-0.111 0.268,-0.111zm2.448 0.229l-2.448 0c-0.041,0 -0.079,0.017 -0.106,0.044 -0.027,0.027 -0.044,0.065 -0.044,0.106l0 1.724c0,0.041 0.017,0.078 0.044,0.105 0.027,0.027 0.064,0.044 0.106,0.044l2.448 0c0.039,0 0.075,-0.015 0.101,-0.039l0.005 -0.005c0.027,-0.027 0.044,-0.064 0.044,-0.105l0 -1.724c0,-0.041 -0.017,-0.079 -0.044,-0.106 -0.027,-0.027 -0.065,-0.044 -0.106,-0.044z"/>
    <path class="fil1" d="M4.967 5.543c-0.058,-0.023 -0.086,-0.09 -0.062,-0.149 0.024,-0.058 0.091,-0.086 0.149,-0.062 0.43,0.177 0.739,0.296 1.14,0.451 0.027,0.011 0.056,0.022 0.083,0.033 0.066,0.028 0.126,0.051 0.222,0.051 0.099,0 0.159,-0.025 0.228,-0.053l0.053 -0.021c0.2,-0.077 0.381,-0.15 0.566,-0.224 0.184,-0.074 0.372,-0.15 0.6,-0.238 0.059,-0.023 0.125,0.007 0.148,0.066 0.023,0.058 -0.007,0.125 -0.066,0.147 -0.217,0.085 -0.409,0.162 -0.597,0.237 -0.181,0.073 -0.36,0.144 -0.568,0.225l-0.049 0.019c-0.093,0.038 -0.174,0.071 -0.315,0.071 -0.138,0 -0.219,-0.032 -0.309,-0.068l-0.079 -0.032c-0.4,-0.155 -0.709,-0.274 -1.144,-0.453z"/>
    <path class="fil1" d="M6.941 5.914l0 0.418c0,0.063 -0.051,0.114 -0.115,0.114l-0.655 0c-0.063,0 -0.114,-0.051 -0.114,-0.114l0 -0.418c0,-0.064 0.051,-0.115 0.114,-0.115l0.655 0c0.064,0 0.115,0.051 0.115,0.115zm-0.229 0.303l0 -0.189 -0.426 0 0 0.189 0.426 0z"/>
    <path class="fil1" d="M5.963 4.682c0,0.063 -0.052,0.114 -0.115,0.114 -0.063,0 -0.115,-0.051 -0.115,-0.114 0,-0.119 0.049,-0.228 0.128,-0.306 0.078,-0.079 0.186,-0.128 0.306,-0.128l0.664 0c0.119,0 0.227,0.049 0.306,0.128 0.079,0.078 0.127,0.187 0.127,0.306 0,0.063 -0.051,0.114 -0.114,0.114 -0.063,0 -0.115,-0.051 -0.115,-0.114 0,-0.056 -0.023,-0.108 -0.06,-0.145 -0.037,-0.036 -0.088,-0.059 -0.144,-0.059l-0.664 0c-0.056,0 -0.107,0.023 -0.144,0.06 -0.038,0.036 -0.06,0.087 -0.06,0.144z"/>
    <path class="fil1" d="M7.873 5.36l0 -0.24c0,-0.041 -0.017,-0.079 -0.044,-0.106 -0.027,-0.027 -0.065,-0.044 -0.106,-0.044l-2.448 0c-0.042,0 -0.079,0.017 -0.106,0.044 -0.027,0.027 -0.044,0.065 -0.044,0.106l0 0.241c0.394,0.161 0.691,0.276 1.069,0.422l0.141 0.056 0.08 0.022 0.035 0.004c0.012,0.001 0.028,0.002 0.049,0.002l0.043 -0.001 0.032 -0.004 0.091 -0.024c0.026,-0.009 0.043,-0.016 0.062,-0.024l0.053 -0.021c0.198,-0.077 0.378,-0.149 0.561,-0.223 0.166,-0.066 0.335,-0.134 0.532,-0.21zm0.229 -0.24l0 0.396 -0.073 0.028c-0.22,0.085 -0.413,0.163 -0.603,0.239 -0.179,0.072 -0.356,0.143 -0.564,0.223l-0.049 0.019c-0.027,0.012 -0.054,0.023 -0.073,0.03 -0.04,0.011 -0.084,0.023 -0.123,0.032 -0.019,0.003 -0.038,0.006 -0.057,0.007 -0.02,0.002 -0.04,0.002 -0.061,0.002 -0.021,0 -0.044,-0.001 -0.069,-0.003 -0.023,-0.002 -0.044,-0.005 -0.063,-0.009 -0.031,-0.006 -0.071,-0.017 -0.101,-0.027 -0.033,-0.011 -0.056,-0.021 -0.081,-0.031l-0.074 -0.03c-0.4,-0.155 -0.709,-0.274 -1.144,-0.453l-0.071 -0.029 0 -0.394c0,-0.104 0.042,-0.199 0.111,-0.268 0.069,-0.068 0.164,-0.111 0.268,-0.111l2.448 0c0.104,0 0.199,0.043 0.268,0.111 0.068,0.069 0.111,0.164 0.111,0.268z"/>
    <path class="fil1" d="M3.861 3.486c-0.064,0 -0.115,-0.051 -0.115,-0.115 0,-0.063 0.051,-0.114 0.115,-0.114l1.94 0c0.063,0 0.114,0.051 0.114,0.114 0,0.064 -0.051,0.115 -0.114,0.115l-1.94 0z"/>
    <path class="fil1" d="M3.861 2.504c-0.064,0 -0.115,-0.051 -0.115,-0.115 0,-0.063 0.051,-0.114 0.115,-0.114l0.985 0c0.063,0 0.114,0.051 0.114,0.114 0,0.064 -0.051,0.115 -0.114,0.115l-0.985 0z"/>
    <path class="fil1" d="M3.861 4.336c-0.064,0 -0.115,-0.052 -0.115,-0.115 0,-0.063 0.051,-0.115 0.115,-0.115l1.565 0c0.063,0 0.115,0.052 0.115,0.115 0,0.063 -0.052,0.115 -0.115,0.115l-1.565 0z"/>
    <path class="fil1" d="M3.861 5.186c-0.064,0 -0.115,-0.052 -0.115,-0.115 0,-0.063 0.051,-0.115 0.115,-0.115l0.674 0c0.063,0 0.115,0.052 0.115,0.115 0,0.063 -0.052,0.115 -0.115,0.115l-0.674 0z"/>
    <path class="fil1" d="M2.775 2.418c-0.045,-0.044 -0.045,-0.117 0,-0.162 0.045,-0.044 0.117,-0.044 0.162,0l0.13 0.13 0.237 -0.237c0.045,-0.045 0.118,-0.045 0.162,0 0.045,0.044 0.045,0.117 0,0.162l-0.318 0.318c-0.045,0.045 -0.117,0.045 -0.162,0l-0.211 -0.211z"/>
    <path class="fil1" d="M2.775 3.4c-0.044,-0.045 -0.044,-0.117 0,-0.162 0.045,-0.044 0.118,-0.044 0.162,0.001l0.13 0.13 0.237 -0.238c0.045,-0.045 0.118,-0.045 0.162,0 0.045,0.045 0.045,0.117 0,0.162l-0.318 0.318c-0.045,0.045 -0.118,0.045 -0.162,0l-0.211 -0.211z"/>
    <path class="fil1" d="M2.775 4.25c-0.045,-0.044 -0.045,-0.117 0,-0.162 0.045,-0.044 0.117,-0.044 0.162,0l0.13 0.13 0.237 -0.237c0.045,-0.045 0.118,-0.045 0.162,0 0.045,0.044 0.045,0.117 0,0.162l-0.318 0.318c-0.045,0.045 -0.117,0.045 -0.162,0l-0.211 -0.211z"/>
    <path class="fil1" d="M2.775 5.1c-0.045,-0.045 -0.045,-0.117 0,-0.162 0.045,-0.045 0.117,-0.045 0.162,0l0.13 0.13 0.237 -0.237c0.045,-0.045 0.118,-0.045 0.162,0 0.045,0.044 0.045,0.117 0,0.162l-0.318 0.318c-0.045,0.045 -0.117,0.045 -0.162,0l-0.211 -0.211z"/>
   </g>
  </g>
 </g>
</svg>
