<?xml version="1.0" encoding="UTF-8"?>
<!DOCTYPE svg PUBLIC "-//W3C//DTD SVG 1.1//EN" "http://www.w3.org/Graphics/SVG/1.1/DTD/svg11.dtd">
<!-- Creator: CorelDRAW 2018 (64-Bit) -->
<svg xmlns="http://www.w3.org/2000/svg" xml:space="preserve" width="42px" height="32px" version="1.1" style="shape-rendering:geometricPrecision; text-rendering:geometricPrecision; image-rendering:optimizeQuality; fill-rule:evenodd; clip-rule:evenodd"
viewBox="0 0 5.247 3.998"
 xmlns:xlink="http://www.w3.org/1999/xlink">
 <defs>
  <style type="text/css">
   <![CDATA[
    .fil0 {fill:none}
    .fil1 {fill:white;fill-rule:nonzero}
   ]]>
  </style>
 </defs>
 <g id="Layer_x0020_1">
  <metadata id="CorelCorpID_0Corel-Layer"/>
  <g id="_1612688411520">
   <rect class="fil0" width="5.247" height="3.998"/>
   <g>
    <path class="fil1" d="M2.424 3.503c0.034,0 0.062,0.027 0.062,0.062 0,0.034 -0.028,0.062 -0.062,0.062l-1.218 0c-0.034,0 -0.065,-0.013 -0.087,-0.036l-0.005 -0.005c-0.02,-0.022 -0.032,-0.051 -0.032,-0.082l0 -2.943c0,-0.034 0.014,-0.065 0.037,-0.087 0.022,-0.023 0.053,-0.037 0.087,-0.037l1.641 0c0.018,0 0.034,0.008 0.045,0.019l0.693 0.693c0.012,0.013 0.019,0.029 0.019,0.045l0 0.877c0,0.034 -0.028,0.062 -0.063,0.062 -0.034,0 -0.062,-0.028 -0.062,-0.062l0 -0.852 -0.658 -0.657 -1.614 0 0 2.941 1.217 0z"/>
    <path class="fil1" d="M3.541 1.256l-0.635 0c-0.033,0 -0.063,-0.014 -0.085,-0.036 -0.022,-0.022 -0.036,-0.052 -0.036,-0.085l0 -0.635c0,-0.035 0.028,-0.063 0.062,-0.063 0.018,0 0.034,0.008 0.045,0.019l0.693 0.693c0.025,0.025 0.025,0.064 0,0.089 -0.012,0.012 -0.028,0.018 -0.044,0.018zm-0.631 -0.125l0.48 0 -0.48 -0.48 0 0.48z"/>
    <path class="fil1" d="M2.874 2.583l1.334 0c0.057,0 0.109,0.024 0.146,0.061 0.037,0.037 0.061,0.089 0.061,0.146l0 0.939c0,0.057 -0.024,0.108 -0.061,0.146l-0.004 0.004c-0.037,0.035 -0.087,0.056 -0.142,0.056l-1.334 0c-0.056,0 -0.108,-0.023 -0.146,-0.06l0 -0.001c-0.037,-0.037 -0.06,-0.089 -0.06,-0.145l0 -0.939c0,-0.057 0.023,-0.108 0.06,-0.146 0.038,-0.037 0.089,-0.061 0.146,-0.061zm1.334 0.125l-1.334 0c-0.022,0 -0.043,0.009 -0.057,0.024 -0.015,0.015 -0.025,0.035 -0.025,0.058l0 0.939c0,0.022 0.01,0.043 0.024,0.058 0.015,0.014 0.036,0.024 0.058,0.024l1.334 0c0.022,0 0.041,-0.009 0.055,-0.022l0.003 -0.002c0.015,-0.015 0.024,-0.036 0.024,-0.058l0 -0.939c0,-0.023 -0.009,-0.043 -0.024,-0.058 -0.015,-0.015 -0.035,-0.024 -0.058,-0.024z"/>
    <path class="fil1" d="M2.706 3.021c-0.031,-0.013 -0.046,-0.05 -0.033,-0.082 0.013,-0.031 0.049,-0.047 0.081,-0.034 0.234,0.097 0.403,0.162 0.621,0.246 0.015,0.006 0.03,0.012 0.045,0.018 0.036,0.015 0.069,0.028 0.121,0.028 0.054,0 0.087,-0.014 0.125,-0.029l0.028 -0.012c0.109,-0.042 0.208,-0.081 0.308,-0.122 0.101,-0.04 0.204,-0.081 0.328,-0.129 0.032,-0.012 0.068,0.003 0.08,0.036 0.013,0.032 -0.003,0.068 -0.035,0.08 -0.119,0.046 -0.224,0.088 -0.326,0.129 -0.099,0.04 -0.196,0.078 -0.31,0.122l-0.026 0.011c-0.051,0.021 -0.095,0.039 -0.172,0.039 -0.075,0 -0.119,-0.018 -0.168,-0.038l-0.043 -0.017c-0.218,-0.084 -0.387,-0.149 -0.624,-0.246z"/>
    <path class="fil1" d="M3.782 3.222l0 0.228c0,0.035 -0.028,0.063 -0.062,0.063l-0.357 0c-0.035,0 -0.063,-0.028 -0.063,-0.063l0 -0.228c0,-0.034 0.028,-0.062 0.063,-0.062l0.357 0c0.034,0 0.062,0.028 0.062,0.062zm-0.125 0.166l0 -0.103 -0.232 0 0 0.103 0.232 0z"/>
    <path class="fil1" d="M3.249 2.551c0,0.034 -0.028,0.062 -0.063,0.062 -0.034,0 -0.062,-0.028 -0.062,-0.062 0,-0.065 0.027,-0.124 0.069,-0.167 0.043,-0.043 0.102,-0.069 0.167,-0.069l0.362 0c0.065,0 0.124,0.026 0.167,0.069 0.043,0.043 0.069,0.102 0.069,0.167 0,0.034 -0.028,0.062 -0.062,0.062 -0.035,0 -0.063,-0.028 -0.063,-0.062 0,-0.031 -0.012,-0.059 -0.032,-0.079 -0.02,-0.02 -0.048,-0.032 -0.079,-0.032l-0.362 0c-0.03,0 -0.058,0.012 -0.078,0.032 -0.021,0.02 -0.033,0.048 -0.033,0.079z"/>
    <path class="fil1" d="M4.29 2.92l0 -0.13c0,-0.023 -0.009,-0.043 -0.024,-0.058 -0.015,-0.015 -0.035,-0.024 -0.058,-0.024l-1.334 0c-0.022,0 -0.043,0.009 -0.058,0.024 -0.014,0.015 -0.024,0.035 -0.024,0.058l0 0.131c0.215,0.088 0.377,0.15 0.583,0.23l0.077 0.031 0.044 0.011 0.019 0.003c0.006,0.001 0.015,0.001 0.026,0.001l0.024 -0.001 0.017 -0.002 0.05 -0.013c0.014,-0.005 0.023,-0.009 0.033,-0.013l0.029 -0.012c0.108,-0.041 0.206,-0.081 0.306,-0.121 0.091,-0.036 0.182,-0.073 0.29,-0.115zm0.125 -0.13l0 0.216 -0.04 0.015c-0.12,0.046 -0.225,0.089 -0.329,0.13 -0.097,0.039 -0.194,0.078 -0.307,0.121l-0.027 0.011c-0.014,0.006 -0.029,0.012 -0.04,0.016 -0.021,0.006 -0.045,0.013 -0.067,0.018 -0.01,0.001 -0.02,0.003 -0.03,0.004 -0.011,0 -0.023,0.001 -0.034,0.001 -0.011,0 -0.024,-0.001 -0.037,-0.002 -0.013,-0.001 -0.024,-0.003 -0.035,-0.005 -0.016,-0.003 -0.038,-0.009 -0.055,-0.015 -0.018,-0.006 -0.03,-0.011 -0.044,-0.017l-0.04 -0.016c-0.218,-0.084 -0.387,-0.149 -0.624,-0.246l-0.038 -0.016 0 -0.215c0,-0.057 0.023,-0.109 0.06,-0.146 0.038,-0.037 0.089,-0.061 0.146,-0.061l1.334 0c0.057,0 0.109,0.024 0.146,0.061 0.037,0.037 0.061,0.089 0.061,0.146z"/>
    <path class="fil1" d="M2.104 1.899c-0.035,0 -0.063,-0.028 -0.063,-0.062 0,-0.035 0.028,-0.062 0.063,-0.062l1.057 0c0.034,0 0.062,0.027 0.062,0.062 0,0.034 -0.028,0.062 -0.062,0.062l-1.057 0z"/>
    <path class="fil1" d="M2.104 1.364c-0.035,0 -0.063,-0.028 -0.063,-0.062 0,-0.035 0.028,-0.063 0.063,-0.063l0.536 0c0.035,0 0.063,0.028 0.063,0.063 0,0.034 -0.028,0.062 -0.063,0.062l-0.536 0z"/>
    <path class="fil1" d="M2.104 2.362c-0.035,0 -0.063,-0.028 -0.063,-0.062 0,-0.035 0.028,-0.062 0.063,-0.062l0.852 0c0.035,0 0.063,0.027 0.063,0.062 0,0.034 -0.028,0.062 -0.063,0.062l-0.852 0z"/>
    <path class="fil1" d="M2.104 2.825c-0.035,0 -0.063,-0.027 -0.063,-0.062 0,-0.034 0.028,-0.062 0.063,-0.062l0.367 0c0.035,0 0.063,0.028 0.063,0.062 0,0.035 -0.028,0.062 -0.063,0.062l-0.367 0z"/>
    <path class="fil1" d="M1.512 1.318c-0.024,-0.025 -0.024,-0.064 0,-0.089 0.024,-0.024 0.064,-0.024 0.088,0l0.071 0.071 0.129 -0.129c0.025,-0.025 0.064,-0.025 0.089,0 0.024,0.024 0.024,0.064 0,0.088l-0.174 0.174c-0.024,0.024 -0.064,0.024 -0.088,0l-0.115 -0.115z"/>
    <path class="fil1" d="M1.512 1.853c-0.024,-0.025 -0.024,-0.064 0,-0.088 0.025,-0.025 0.064,-0.025 0.088,0l0.071 0.07 0.129 -0.129c0.025,-0.024 0.064,-0.024 0.089,0 0.024,0.024 0.024,0.064 0,0.088l-0.174 0.174c-0.024,0.024 -0.064,0.024 -0.088,0l-0.115 -0.115z"/>
    <path class="fil1" d="M1.512 2.316c-0.024,-0.024 -0.024,-0.064 0,-0.088 0.024,-0.025 0.064,-0.025 0.088,0l0.071 0.07 0.129 -0.129c0.025,-0.024 0.064,-0.024 0.089,0 0.024,0.024 0.024,0.064 0,0.088l-0.174 0.174c-0.024,0.024 -0.064,0.024 -0.088,0l-0.115 -0.115z"/>
    <path class="fil1" d="M1.512 2.779c-0.024,-0.024 -0.024,-0.064 0,-0.088 0.024,-0.025 0.064,-0.025 0.088,0l0.071 0.07 0.129 -0.129c0.025,-0.024 0.064,-0.024 0.089,0 0.024,0.024 0.024,0.064 0,0.088l-0.174 0.174c-0.024,0.024 -0.064,0.024 -0.088,0l-0.115 -0.115z"/>
   </g>
  </g>
 </g>
</svg>
