<?xml version="1.0" encoding="UTF-8"?>
<!DOCTYPE svg PUBLIC "-//W3C//DTD SVG 1.1//EN" "http://www.w3.org/Graphics/SVG/1.1/DTD/svg11.dtd">
<!-- Creator: CorelDRAW 2018 (64-Bit) -->
<svg xmlns="http://www.w3.org/2000/svg" xml:space="preserve" width="42px" height="32px" version="1.1" style="shape-rendering:geometricPrecision; text-rendering:geometricPrecision; image-rendering:optimizeQuality; fill-rule:evenodd; clip-rule:evenodd"
viewBox="0 0 58.454 44.536"
 xmlns:xlink="http://www.w3.org/1999/xlink">
 <defs>
  <style type="text/css">
   <![CDATA[
    .fil0 {fill:none}
    .fil1 {fill:#00F4FF;fill-rule:nonzero}
   ]]>
  </style>
 </defs>
 <g id="Layer_x0020_1">
  <metadata id="CorelCorpID_0Corel-Layer"/>
  <g id="_1612298525296">
   <rect class="fil0" width="58.454" height="44.536"/>
   <g>
    <path class="fil1" d="M29.8 11.729c0.357,0.136 0.536,0.537 0.399,0.894 -0.136,0.357 -0.537,0.536 -0.894,0.4 -1.007,-0.387 -2.084,-0.69 -3.21,-0.893 -1.084,-0.196 -2.228,-0.3 -3.413,-0.3 -4.062,0 -7.732,1.249 -10.378,3.266 -2.594,1.978 -4.199,4.696 -4.199,7.683 0,1.691 0.511,3.291 1.42,4.716 0.96,1.505 2.366,2.821 4.089,3.853 0.234,0.139 0.356,0.395 0.336,0.649l-0.366 4.571 3.345 -3.346c0.272,-0.271 0.713,-0.271 0.984,0 0.272,0.271 0.272,0.713 0,0.984l-4.683 4.683c-0.139,0.138 -0.335,0.218 -0.546,0.201 -0.383,-0.03 -0.669,-0.365 -0.639,-0.748l0.486 -6.033c-1.737,-1.105 -3.167,-2.491 -4.174,-4.069 -1.053,-1.649 -1.644,-3.502 -1.644,-5.461 0,-3.443 1.815,-6.549 4.748,-8.786 2.88,-2.196 6.849,-3.555 11.221,-3.555 1.247,0 2.473,0.114 3.658,0.328 1.212,0.218 2.372,0.545 3.46,0.963z"/>
    <path class="fil1" d="M34.984 13.781c4.589,0 8.754,1.426 11.777,3.731 3.076,2.345 4.979,5.6 4.979,9.21 0,2.052 -0.62,3.995 -1.723,5.723 -1.059,1.66 -2.566,3.118 -4.397,4.28l0.513 6.365c0.03,0.383 -0.256,0.718 -0.639,0.748 -0.21,0.017 -0.407,-0.063 -0.546,-0.202l-4.642 -4.641c-0.78,0.202 -1.588,0.361 -2.415,0.472 -0.954,0.128 -1.927,0.196 -2.907,0.196 -4.589,0 -8.754,-1.427 -11.777,-3.731 -3.075,-2.345 -4.978,-5.601 -4.978,-9.21 0,-3.609 1.903,-6.865 4.978,-9.21 3.023,-2.305 7.188,-3.731 11.777,-3.731zm10.935 4.834c-2.79,-2.127 -6.655,-3.442 -10.935,-3.442 -4.28,0 -8.145,1.315 -10.934,3.442 -2.736,2.086 -4.429,4.954 -4.429,8.107 0,3.153 1.693,6.021 4.429,8.107 2.789,2.126 6.654,3.442 10.934,3.442 0.939,0 1.849,-0.062 2.723,-0.179 0.885,-0.12 1.746,-0.297 2.573,-0.526 0.245,-0.088 0.531,-0.034 0.728,0.163l3.587 3.587 -0.395 -4.904c-0.018,-0.254 0.104,-0.51 0.337,-0.649 1.817,-1.088 3.299,-2.476 4.312,-4.063 0.96,-1.504 1.499,-3.194 1.499,-4.978 0,-3.153 -1.693,-6.021 -4.429,-8.107z"/>
    <path class="fil1" d="M27.835 24.856c0.527,0 1.005,0.213 1.35,0.559 0.346,0.346 0.56,0.824 0.56,1.351 0,0.527 -0.214,1.005 -0.559,1.351 -0.346,0.345 -0.824,0.559 -1.351,0.559 -0.528,0 -1.005,-0.214 -1.351,-0.559 -0.345,-0.349 -0.56,-0.827 -0.56,-1.351 0,-0.527 0.215,-1.005 0.56,-1.351 0.346,-0.346 0.824,-0.559 1.351,-0.559zm0.366 1.543c-0.093,-0.093 -0.223,-0.152 -0.366,-0.152 -0.143,0 -0.274,0.059 -0.367,0.152 -0.093,0.093 -0.152,0.224 -0.152,0.367 0,0.145 0.057,0.275 0.149,0.367 0.097,0.093 0.227,0.152 0.37,0.152 0.143,0 0.273,-0.059 0.367,-0.152 0.093,-0.093 0.151,-0.224 0.151,-0.367 0,-0.143 -0.058,-0.274 -0.152,-0.367z"/>
    <path class="fil1" d="M34.984 24.856c0.527,0 1.006,0.213 1.351,0.559 0.346,0.346 0.56,0.824 0.56,1.351 0,0.527 -0.214,1.005 -0.56,1.351 -0.345,0.345 -0.824,0.559 -1.351,0.559 -0.527,0 -1.005,-0.214 -1.35,-0.559 -0.346,-0.346 -0.56,-0.824 -0.56,-1.351 0,-0.527 0.214,-1.005 0.56,-1.351 0.345,-0.346 0.823,-0.559 1.35,-0.559zm0.367 1.543c-0.093,-0.093 -0.223,-0.152 -0.367,-0.152 -0.143,0 -0.273,0.059 -0.367,0.152 -0.093,0.093 -0.151,0.224 -0.151,0.367 0,0.143 0.058,0.274 0.151,0.367 0.094,0.093 0.224,0.152 0.367,0.152 0.144,0 0.274,-0.059 0.367,-0.152 0.094,-0.094 0.152,-0.224 0.152,-0.367 0,-0.143 -0.058,-0.274 -0.152,-0.367z"/>
    <path class="fil1" d="M42.134 24.856c0.527,0 1.005,0.213 1.351,0.559 0.345,0.346 0.559,0.824 0.559,1.351 0,0.527 -0.214,1.005 -0.559,1.351 -0.346,0.345 -0.824,0.559 -1.351,0.559 -0.527,0 -1.005,-0.214 -1.351,-0.559 -0.346,-0.346 -0.559,-0.824 -0.559,-1.351 0,-0.527 0.213,-1.005 0.559,-1.351 0.346,-0.346 0.824,-0.559 1.351,-0.559zm0.367 1.543c-0.093,-0.093 -0.224,-0.152 -0.367,-0.152 -0.143,0 -0.274,0.059 -0.367,0.152 -0.093,0.093 -0.152,0.224 -0.152,0.367 0,0.143 0.059,0.274 0.152,0.367 0.093,0.093 0.224,0.152 0.367,0.152 0.143,0 0.273,-0.059 0.367,-0.152 0.093,-0.094 0.152,-0.224 0.152,-0.367 0,-0.143 -0.059,-0.274 -0.152,-0.367z"/>
   </g>
  </g>
 </g>
</svg>
