<?xml version="1.0" encoding="UTF-8"?>
<!DOCTYPE svg PUBLIC "-//W3C//DTD SVG 1.1//EN" "http://www.w3.org/Graphics/SVG/1.1/DTD/svg11.dtd">
<!-- Creator: CorelDRAW 2018 (64-Bit) -->
<svg xmlns="http://www.w3.org/2000/svg" xml:space="preserve" width="42px" height="32px" version="1.1" style="shape-rendering:geometricPrecision; text-rendering:geometricPrecision; image-rendering:optimizeQuality; fill-rule:evenodd; clip-rule:evenodd"
viewBox="0 0 5.247 3.998"
 xmlns:xlink="http://www.w3.org/1999/xlink">
 <defs>
  <style type="text/css">
   <![CDATA[
    .fil0 {fill:none}
    .fil1 {fill:white;fill-rule:nonzero}
   ]]>
  </style>
 </defs>
 <g id="Layer_x0020_1">
  <metadata id="CorelCorpID_0Corel-Layer"/>
  <g id="_1612301227296">
   <rect class="fil0" width="5.247" height="3.998"/>
   <g>
    <path class="fil1" d="M2.675 1.053c0.032,0.012 0.048,0.048 0.036,0.08 -0.012,0.032 -0.048,0.048 -0.08,0.036 -0.091,-0.035 -0.187,-0.062 -0.289,-0.08 -0.097,-0.018 -0.2,-0.027 -0.306,-0.027 -0.365,0 -0.694,0.112 -0.931,0.293 -0.233,0.178 -0.377,0.422 -0.377,0.69 0,0.152 0.045,0.295 0.127,0.423 0.086,0.135 0.212,0.253 0.367,0.346 0.021,0.013 0.032,0.035 0.03,0.058l-0.033 0.411 0.301 -0.301c0.024,-0.024 0.064,-0.024 0.088,0 0.024,0.025 0.024,0.064 0,0.089l-0.42 0.42c-0.013,0.012 -0.03,0.019 -0.049,0.018 -0.035,-0.003 -0.06,-0.033 -0.058,-0.067l0.044 -0.542c-0.156,-0.099 -0.284,-0.223 -0.375,-0.365 -0.094,-0.148 -0.147,-0.314 -0.147,-0.49 0,-0.309 0.163,-0.588 0.426,-0.789 0.258,-0.197 0.615,-0.319 1.007,-0.319 0.112,0 0.222,0.01 0.328,0.029 0.109,0.02 0.213,0.049 0.311,0.087z"/>
    <path class="fil1" d="M3.14 1.237c0.412,0 0.786,0.128 1.058,0.335 0.276,0.21 0.447,0.503 0.447,0.827 0,0.184 -0.056,0.358 -0.155,0.514 -0.095,0.149 -0.23,0.279 -0.395,0.384l0.046 0.571c0.003,0.034 -0.023,0.065 -0.057,0.067 -0.019,0.002 -0.037,-0.005 -0.049,-0.018l-0.417 -0.417c-0.07,0.019 -0.142,0.033 -0.217,0.043 -0.085,0.011 -0.173,0.017 -0.261,0.017 -0.412,0 -0.785,-0.128 -1.057,-0.335 -0.276,-0.21 -0.447,-0.502 -0.447,-0.826 0,-0.324 0.171,-0.617 0.447,-0.827 0.272,-0.207 0.645,-0.335 1.057,-0.335zm0.982 0.434c-0.25,-0.191 -0.597,-0.309 -0.982,-0.309 -0.384,0 -0.731,0.118 -0.981,0.309 -0.246,0.187 -0.398,0.445 -0.398,0.728 0,0.283 0.152,0.54 0.398,0.727 0.25,0.191 0.597,0.309 0.981,0.309 0.085,0 0.166,-0.005 0.245,-0.016 0.079,-0.01 0.157,-0.026 0.231,-0.047 0.022,-0.008 0.047,-0.003 0.065,0.015l0.322 0.322 -0.035 -0.44c-0.002,-0.023 0.009,-0.046 0.03,-0.059 0.163,-0.097 0.296,-0.222 0.387,-0.364 0.086,-0.135 0.135,-0.287 0.135,-0.447 0,-0.283 -0.152,-0.541 -0.398,-0.728z"/>
    <path class="fil1" d="M2.499 2.231c0.047,0 0.09,0.019 0.121,0.05 0.031,0.031 0.05,0.074 0.05,0.122 0,0.047 -0.019,0.09 -0.05,0.121 -0.031,0.031 -0.074,0.05 -0.121,0.05 -0.048,0 -0.091,-0.019 -0.122,-0.05 -0.031,-0.031 -0.05,-0.074 -0.05,-0.121 0,-0.048 0.019,-0.091 0.05,-0.122 0.031,-0.031 0.074,-0.05 0.122,-0.05zm0.033 0.139c-0.009,-0.009 -0.02,-0.014 -0.033,-0.014 -0.013,0 -0.025,0.005 -0.033,0.014 -0.009,0.008 -0.014,0.02 -0.014,0.033 0,0.013 0.005,0.024 0.013,0.033 0.009,0.008 0.021,0.013 0.034,0.013 0.013,0 0.024,-0.005 0.033,-0.013 0.008,-0.009 0.013,-0.02 0.013,-0.033 0,-0.013 -0.005,-0.025 -0.013,-0.033z"/>
    <path class="fil1" d="M3.14 2.231c0.048,0 0.091,0.019 0.122,0.05 0.031,0.031 0.05,0.074 0.05,0.122 0,0.047 -0.019,0.09 -0.05,0.121 -0.031,0.031 -0.074,0.05 -0.122,0.05 -0.047,0 -0.09,-0.019 -0.121,-0.05 -0.031,-0.031 -0.05,-0.074 -0.05,-0.121 0,-0.048 0.019,-0.091 0.05,-0.122 0.031,-0.031 0.074,-0.05 0.121,-0.05zm0.033 0.139c-0.008,-0.009 -0.02,-0.014 -0.033,-0.014 -0.012,0 -0.024,0.005 -0.032,0.014 -0.009,0.008 -0.014,0.02 -0.014,0.033 0,0.013 0.005,0.024 0.014,0.033 0.008,0.008 0.02,0.013 0.032,0.013 0.013,0 0.025,-0.005 0.033,-0.013 0.009,-0.009 0.014,-0.02 0.014,-0.033 0,-0.013 -0.005,-0.025 -0.014,-0.033z"/>
    <path class="fil1" d="M3.782 2.231c0.048,0 0.09,0.019 0.121,0.05 0.031,0.031 0.051,0.074 0.051,0.122 0,0.047 -0.02,0.09 -0.051,0.121 -0.031,0.031 -0.073,0.05 -0.121,0.05 -0.047,0 -0.09,-0.019 -0.121,-0.05 -0.031,-0.031 -0.05,-0.074 -0.05,-0.121 0,-0.048 0.019,-0.091 0.05,-0.122 0.031,-0.031 0.074,-0.05 0.121,-0.05zm0.033 0.139c-0.008,-0.009 -0.02,-0.014 -0.033,-0.014 -0.013,0 -0.024,0.005 -0.033,0.014 -0.008,0.008 -0.013,0.02 -0.013,0.033 0,0.013 0.005,0.024 0.013,0.033 0.009,0.008 0.02,0.013 0.033,0.013 0.013,0 0.025,-0.005 0.033,-0.013 0.009,-0.009 0.014,-0.02 0.014,-0.033 0,-0.013 -0.005,-0.025 -0.014,-0.033z"/>
   </g>
  </g>
 </g>
</svg>
