<?xml version="1.0" encoding="UTF-8"?>
<!DOCTYPE svg PUBLIC "-//W3C//DTD SVG 1.1//EN" "http://www.w3.org/Graphics/SVG/1.1/DTD/svg11.dtd">
<!-- Creator: CorelDRAW 2018 (64-Bit) -->
<svg xmlns="http://www.w3.org/2000/svg" xml:space="preserve" width="42px" height="32px" version="1.1" style="shape-rendering:geometricPrecision; text-rendering:geometricPrecision; image-rendering:optimizeQuality; fill-rule:evenodd; clip-rule:evenodd"
viewBox="0 0 1.668 1.271"
 xmlns:xlink="http://www.w3.org/1999/xlink">
 <defs>
  <style type="text/css">
   <![CDATA[
    .fil0 {fill:none}
    .fil1 {fill:gray;fill-rule:nonzero}
   ]]>
  </style>
 </defs>
 <g id="Layer_x0020_1">
  <metadata id="CorelCorpID_0Corel-Layer"/>
  <g id="_2778922443296">
   <rect class="fil0" width="1.668" height="1.271"/>
   <g>
    <path class="fil1" d="M0.459 0.308c0,0.011 -0.008,0.02 -0.019,0.02 -0.011,0 -0.02,-0.009 -0.02,-0.02l0 -0.079c0,-0.014 0.005,-0.026 0.015,-0.036 0.009,-0.009 0.021,-0.014 0.035,-0.014l0.835 0c0.014,0 0.027,0.005 0.036,0.014l0 0.001c0.009,0.009 0.015,0.021 0.015,0.035l0 0.719c0,0.005 -0.003,0.01 -0.007,0.014l-0.243 0.243c-0.004,0.004 -0.009,0.006 -0.014,0.006l-0.622 0c-0.014,0 -0.026,-0.006 -0.035,-0.015 -0.01,-0.009 -0.015,-0.021 -0.015,-0.035l0 -0.015c0,-0.011 0.009,-0.02 0.02,-0.02 0.011,0 0.019,0.009 0.019,0.02l0 0.015c0,0.003 0.002,0.005 0.004,0.007 0.002,0.002 0.004,0.003 0.007,0.003l0.614 0 0.232 -0.232 0 -0.71c0,-0.003 -0.001,-0.006 -0.003,-0.007 -0.002,-0.002 -0.005,-0.004 -0.008,-0.004l-0.835 0c-0.003,0 -0.005,0.002 -0.007,0.004 -0.002,0.001 -0.004,0.004 -0.004,0.007l0 0.079z"/>
    <path class="fil1" d="M0.459 0.541c0,0.011 -0.008,0.02 -0.019,0.02 -0.011,0 -0.02,-0.009 -0.02,-0.02l0 -0.072c0,-0.011 0.009,-0.02 0.02,-0.02 0.011,0 0.019,0.009 0.019,0.02l0 0.072z"/>
    <path class="fil1" d="M0.459 0.767c0,0.011 -0.008,0.02 -0.019,0.02 -0.011,0 -0.02,-0.009 -0.02,-0.02l0 -0.072c0,-0.011 0.009,-0.02 0.02,-0.02 0.011,0 0.019,0.009 0.019,0.02l0 0.072z"/>
    <path class="fil1" d="M0.459 0.992c0,0.011 -0.008,0.02 -0.019,0.02 -0.011,0 -0.02,-0.009 -0.02,-0.02l0 -0.071c0,-0.011 0.009,-0.02 0.02,-0.02 0.011,0 0.019,0.009 0.019,0.02l0 0.071z"/>
    <path class="fil1" d="M0.312 1.033c0,-0.016 0.007,-0.031 0.018,-0.043 0.011,-0.011 0.026,-0.017 0.043,-0.017l0.133 0c0.017,0 0.032,0.006 0.043,0.017 0.011,0.012 0.018,0.027 0.018,0.043 0,0.017 -0.007,0.032 -0.018,0.043 -0.011,0.012 -0.026,0.018 -0.043,0.018l-0.133 0c-0.017,0 -0.032,-0.006 -0.043,-0.017l-0.001 -0.002c-0.01,-0.011 -0.017,-0.025 -0.017,-0.042zm0.04 0c0,0.006 0.002,0.011 0.005,0.015l0.001 0c0.004,0.004 0.009,0.007 0.015,0.007l0.133 0c0.006,0 0.011,-0.003 0.015,-0.006 0.004,-0.004 0.006,-0.01 0.006,-0.016 0,-0.005 -0.002,-0.011 -0.006,-0.015 -0.004,-0.003 -0.009,-0.006 -0.015,-0.006l-0.133 0c-0.006,0 -0.011,0.003 -0.015,0.006 -0.004,0.004 -0.006,0.01 -0.006,0.015z"/>
    <path class="fil1" d="M0.312 0.808c0,-0.017 0.007,-0.032 0.018,-0.043 0.011,-0.011 0.026,-0.018 0.043,-0.018l0.133 0c0.017,0 0.032,0.007 0.043,0.018 0.011,0.011 0.018,0.026 0.018,0.043 0,0.017 -0.007,0.032 -0.018,0.043 -0.011,0.011 -0.026,0.018 -0.043,0.018l-0.133 0c-0.017,0 -0.032,-0.007 -0.043,-0.018l-0.001 -0.001c-0.01,-0.011 -0.017,-0.026 -0.017,-0.042zm0.04 0c0,0.005 0.002,0.01 0.005,0.014l0.001 0.001c0.004,0.004 0.009,0.006 0.015,0.006l0.133 0c0.006,0 0.011,-0.002 0.015,-0.006 0.004,-0.004 0.006,-0.009 0.006,-0.015 0,-0.006 -0.002,-0.011 -0.006,-0.015 -0.004,-0.004 -0.009,-0.006 -0.015,-0.006l-0.133 0c-0.006,0 -0.011,0.002 -0.015,0.006 -0.004,0.004 -0.006,0.009 -0.006,0.015z"/>
    <path class="fil1" d="M0.312 0.582c0,-0.017 0.007,-0.032 0.018,-0.043 0.011,-0.011 0.026,-0.018 0.043,-0.018l0.133 0c0.017,0 0.032,0.007 0.043,0.018 0.011,0.011 0.018,0.026 0.018,0.043 0,0.017 -0.007,0.032 -0.018,0.043 -0.011,0.011 -0.026,0.018 -0.043,0.018l-0.133 0c-0.017,0 -0.032,-0.007 -0.043,-0.018l-0.001 -0.001c-0.01,-0.011 -0.017,-0.026 -0.017,-0.042zm0.04 0c0,0.006 0.002,0.011 0.005,0.014l0.001 0.001c0.004,0.004 0.009,0.006 0.015,0.006l0.133 0c0.006,0 0.011,-0.002 0.015,-0.006 0.004,-0.004 0.006,-0.009 0.006,-0.015 0,-0.006 -0.002,-0.011 -0.006,-0.015 -0.004,-0.004 -0.009,-0.006 -0.015,-0.006l-0.133 0c-0.006,0 -0.011,0.002 -0.015,0.006 -0.004,0.004 -0.006,0.009 -0.006,0.015z"/>
    <path class="fil1" d="M0.312 0.356c0,-0.016 0.007,-0.032 0.018,-0.043 0.011,-0.011 0.026,-0.018 0.043,-0.018l0.133 0c0.017,0 0.032,0.007 0.043,0.018 0.011,0.011 0.018,0.027 0.018,0.043 0,0.017 -0.007,0.032 -0.018,0.043 -0.011,0.011 -0.026,0.018 -0.043,0.018l-0.133 0c-0.017,0 -0.032,-0.007 -0.043,-0.018l-0.001 -0.001c-0.01,-0.011 -0.017,-0.026 -0.017,-0.042zm0.04 0c0,0.006 0.002,0.011 0.005,0.015l0.001 0c0.004,0.004 0.009,0.007 0.015,0.007l0.133 0c0.006,0 0.011,-0.003 0.015,-0.007 0.004,-0.003 0.006,-0.009 0.006,-0.015 0,-0.006 -0.002,-0.011 -0.006,-0.015 -0.004,-0.004 -0.009,-0.006 -0.015,-0.006l-0.133 0c-0.006,0 -0.011,0.002 -0.015,0.006 -0.004,0.004 -0.006,0.009 -0.006,0.015z"/>
    <path class="fil1" d="M1.288 0.968l-0.175 0 -0.001 0 0 0 0 0.175 0.176 -0.175zm-0.175 -0.04l0.223 0c0.005,0 0.01,0.002 0.014,0.006 0.007,0.007 0.007,0.02 0,0.028l-0.244 0.243c-0.003,0.004 -0.008,0.006 -0.014,0.006 -0.011,0 -0.02,-0.009 -0.02,-0.02l0 -0.223c0,-0.011 0.005,-0.021 0.012,-0.028 0.008,-0.008 0.018,-0.012 0.029,-0.012z"/>
    <path class="fil1" d="M0.763 0.689c0.014,-0.004 0.033,0.001 0.05,0.006l0.013 0.003c0.019,0.005 0.04,0.007 0.062,0.007 0.021,0 0.042,-0.002 0.062,-0.007l0.012 -0.003c0.017,-0.005 0.036,-0.01 0.051,-0.006 0.01,0.002 0.028,0.013 0.041,0.029 0.009,0.012 0.016,0.026 0.017,0.044l0.009 0.096 0 0.002c0,0.01 -0.004,0.018 -0.01,0.024 -0.006,0.005 -0.014,0.009 -0.022,0.01 -0.099,0.006 -0.217,0 -0.318,0l-0.003 0c-0.008,-0.001 -0.016,-0.004 -0.021,-0.01l-0.001 0c-0.006,-0.006 -0.01,-0.014 -0.01,-0.024 0.003,-0.032 0.006,-0.065 0.009,-0.098 0.001,-0.018 0.009,-0.032 0.018,-0.044 0.013,-0.016 0.03,-0.027 0.041,-0.029zm0.04 0.044c-0.012,-0.003 -0.026,-0.007 -0.03,-0.006 -0.005,0.001 -0.013,0.006 -0.02,0.015 -0.005,0.007 -0.009,0.014 -0.01,0.023l-0.007 0.089 0.304 0 -0.008 -0.089c-0.001,-0.009 -0.005,-0.016 -0.01,-0.023 -0.007,-0.009 -0.015,-0.014 -0.019,-0.015 -0.004,-0.001 -0.018,0.003 -0.03,0.006 -0.004,0.001 -0.008,0.002 -0.012,0.003l-0.002 0.001c-0.023,0.005 -0.047,0.008 -0.071,0.008 -0.024,0 -0.049,-0.003 -0.071,-0.008 -0.006,-0.002 -0.01,-0.003 -0.014,-0.004z"/>
    <path class="fil1" d="M0.887 0.424c0.037,0 0.071,0.015 0.096,0.04 0.024,0.024 0.04,0.058 0.04,0.095 0,0.038 -0.016,0.072 -0.04,0.096l0 0c-0.025,0.025 -0.059,0.04 -0.096,0.04 -0.037,0 -0.071,-0.015 -0.096,-0.04 -0.024,-0.024 -0.039,-0.058 -0.039,-0.096 0,-0.037 0.015,-0.071 0.039,-0.095 0.025,-0.025 0.059,-0.04 0.096,-0.04zm0.068 0.068c-0.017,-0.018 -0.041,-0.028 -0.068,-0.028 -0.026,0 -0.05,0.01 -0.068,0.028 -0.017,0.017 -0.028,0.041 -0.028,0.067 0,0.027 0.011,0.051 0.028,0.068 0.018,0.017 0.042,0.028 0.068,0.028 0.027,0 0.051,-0.011 0.068,-0.028 0.017,-0.017 0.028,-0.041 0.028,-0.068 0,-0.026 -0.011,-0.05 -0.028,-0.067z"/>
   </g>
  </g>
 </g>
</svg>
