<?xml version="1.0" encoding="UTF-8"?>
<!DOCTYPE svg PUBLIC "-//W3C//DTD SVG 1.1//EN" "http://www.w3.org/Graphics/SVG/1.1/DTD/svg11.dtd">
<!-- Creator: CorelDRAW 2018 (64-Bit) -->
<svg xmlns="http://www.w3.org/2000/svg" xml:space="preserve" width="42px" height="32px" version="1.1" style="shape-rendering:geometricPrecision; text-rendering:geometricPrecision; image-rendering:optimizeQuality; fill-rule:evenodd; clip-rule:evenodd"
viewBox="0 0 2.388 1.819"
 xmlns:xlink="http://www.w3.org/1999/xlink">
 <defs>
  <style type="text/css">
   <![CDATA[
    .fil0 {fill:none}
    .fil1 {fill:#00F4FF;fill-rule:nonzero}
   ]]>
  </style>
 </defs>
 <g id="Layer_x0020_1">
  <metadata id="CorelCorpID_0Corel-Layer"/>
  <g id="_2815529582112">
   <rect class="fil0" width="2.388" height="1.819"/>
   <g>
    <path class="fil1" d="M0.658 0.441c0,0.016 -0.013,0.028 -0.029,0.028 -0.015,0 -0.028,-0.012 -0.028,-0.028l0 -0.113c0,-0.02 0.008,-0.038 0.021,-0.051 0.013,-0.013 0.031,-0.021 0.051,-0.021l1.196 0c0.02,0 0.038,0.008 0.051,0.021l0 0c0.013,0.013 0.021,0.031 0.021,0.051l0 1.029c0,0.008 -0.003,0.015 -0.009,0.02l-0.348 0.349c-0.006,0.005 -0.013,0.008 -0.02,0.008l-0.891 0c-0.02,0 -0.038,-0.008 -0.051,-0.021 -0.013,-0.013 -0.021,-0.031 -0.021,-0.051l0 -0.021c0,-0.015 0.013,-0.028 0.028,-0.028 0.016,0 0.029,0.013 0.029,0.028l0 0.021c0,0.004 0.002,0.008 0.004,0.011 0.003,0.002 0.007,0.004 0.011,0.004l0.879 0 0.332 -0.332 0 -1.017c0,-0.004 -0.002,-0.008 -0.004,-0.011 -0.003,-0.003 -0.007,-0.004 -0.011,-0.004l-1.196 0c-0.004,0 -0.008,0.001 -0.011,0.004 -0.002,0.003 -0.004,0.007 -0.004,0.011l0 0.113z"/>
    <path class="fil1" d="M0.658 0.774c0,0.016 -0.013,0.029 -0.029,0.029 -0.015,0 -0.028,-0.013 -0.028,-0.029l0 -0.102c0,-0.016 0.013,-0.029 0.028,-0.029 0.016,0 0.029,0.013 0.029,0.029l0 0.102z"/>
    <path class="fil1" d="M0.658 1.098c0,0.015 -0.013,0.028 -0.029,0.028 -0.015,0 -0.028,-0.013 -0.028,-0.028l0 -0.103c0,-0.016 0.013,-0.028 0.028,-0.028 0.016,0 0.029,0.012 0.029,0.028l0 0.103z"/>
    <path class="fil1" d="M0.658 1.421c0,0.016 -0.013,0.028 -0.029,0.028 -0.015,0 -0.028,-0.012 -0.028,-0.028l0 -0.103c0,-0.016 0.013,-0.028 0.028,-0.028 0.016,0 0.029,0.012 0.029,0.028l0 0.103z"/>
    <path class="fil1" d="M0.447 1.48c0,-0.024 0.01,-0.046 0.026,-0.062 0.015,-0.016 0.037,-0.026 0.061,-0.026l0.191 0c0.024,0 0.045,0.01 0.061,0.026 0.016,0.016 0.026,0.038 0.026,0.062 0,0.024 -0.01,0.046 -0.026,0.061 -0.016,0.016 -0.037,0.026 -0.061,0.026l-0.191 0c-0.024,0 -0.046,-0.01 -0.061,-0.026l-0.002 -0.001c-0.015,-0.016 -0.024,-0.037 -0.024,-0.06zm0.057 0c0,0.008 0.003,0.015 0.008,0.02l0.001 0.001c0.005,0.006 0.013,0.009 0.021,0.009l0.191 0c0.008,0 0.016,-0.003 0.021,-0.009 0.006,-0.005 0.009,-0.013 0.009,-0.021 0,-0.009 -0.003,-0.016 -0.009,-0.022 -0.005,-0.005 -0.013,-0.009 -0.021,-0.009l-0.191 0c-0.008,0 -0.016,0.004 -0.021,0.009 -0.006,0.006 -0.009,0.013 -0.009,0.022z"/>
    <path class="fil1" d="M0.447 1.157c0,-0.024 0.01,-0.046 0.026,-0.062 0.015,-0.016 0.037,-0.026 0.061,-0.026l0.191 0c0.024,0 0.045,0.01 0.061,0.026 0.016,0.016 0.026,0.038 0.026,0.062 0,0.024 -0.01,0.045 -0.026,0.061 -0.016,0.016 -0.037,0.026 -0.061,0.026l-0.191 0c-0.024,0 -0.046,-0.01 -0.061,-0.026l-0.002 -0.002c-0.015,-0.015 -0.024,-0.036 -0.024,-0.059zm0.057 0c0,0.007 0.003,0.015 0.008,0.02l0.001 0.001c0.005,0.006 0.013,0.009 0.021,0.009l0.191 0c0.008,0 0.016,-0.003 0.021,-0.009 0.006,-0.005 0.009,-0.013 0.009,-0.021 0,-0.009 -0.003,-0.016 -0.009,-0.022 -0.005,-0.005 -0.013,-0.009 -0.021,-0.009l-0.191 0c-0.008,0 -0.016,0.004 -0.021,0.009 -0.006,0.006 -0.009,0.013 -0.009,0.022z"/>
    <path class="fil1" d="M0.447 0.833c0,-0.024 0.01,-0.045 0.026,-0.061 0.015,-0.016 0.037,-0.026 0.061,-0.026l0.191 0c0.024,0 0.045,0.01 0.061,0.026 0.016,0.016 0.026,0.037 0.026,0.061 0,0.024 -0.01,0.046 -0.026,0.062 -0.016,0.016 -0.037,0.026 -0.061,0.026l-0.191 0c-0.024,0 -0.046,-0.01 -0.061,-0.026l-0.002 -0.002c-0.015,-0.015 -0.024,-0.037 -0.024,-0.06zm0.057 0c0,0.008 0.003,0.015 0.008,0.021l0.001 0.001c0.005,0.005 0.013,0.009 0.021,0.009l0.191 0c0.008,0 0.016,-0.004 0.021,-0.009 0.006,-0.006 0.009,-0.013 0.009,-0.022 0,-0.008 -0.003,-0.016 -0.009,-0.021 -0.005,-0.006 -0.013,-0.009 -0.021,-0.009l-0.191 0c-0.008,0 -0.016,0.003 -0.021,0.009 -0.006,0.005 -0.009,0.013 -0.009,0.021z"/>
    <path class="fil1" d="M0.447 0.51c0,-0.024 0.01,-0.046 0.026,-0.061 0.015,-0.016 0.037,-0.026 0.061,-0.026l0.191 0c0.024,0 0.045,0.01 0.061,0.026 0.016,0.015 0.026,0.037 0.026,0.061 0,0.024 -0.01,0.046 -0.026,0.062 -0.016,0.016 -0.037,0.026 -0.061,0.026l-0.191 0c-0.024,0 -0.046,-0.01 -0.061,-0.026l-0.002 -0.002c-0.015,-0.016 -0.024,-0.037 -0.024,-0.06zm0.057 0c0,0.008 0.003,0.015 0.008,0.021l0.001 0.001c0.005,0.005 0.013,0.009 0.021,0.009l0.191 0c0.008,0 0.016,-0.004 0.021,-0.009 0.006,-0.006 0.009,-0.013 0.009,-0.022 0,-0.008 -0.003,-0.016 -0.009,-0.021 -0.005,-0.006 -0.013,-0.009 -0.021,-0.009l-0.191 0c-0.008,0 -0.016,0.003 -0.021,0.009 -0.006,0.005 -0.009,0.013 -0.009,0.021z"/>
    <path class="fil1" d="M1.844 1.385l-0.251 0 0 0.001 -0.001 0.001 0 0.25 0.252 -0.252zm-0.251 -0.057l0.319 0c0.008,0 0.015,0.003 0.021,0.009 0.011,0.011 0.011,0.029 0,0.04l-0.349 0.348c-0.005,0.006 -0.012,0.009 -0.02,0.009 -0.016,0 -0.029,-0.013 -0.029,-0.028l0 -0.319c0,-0.016 0.007,-0.031 0.017,-0.041 0.011,-0.011 0.025,-0.018 0.041,-0.018z"/>
    <path class="fil1" d="M1.092 0.986c0.021,-0.006 0.048,0.002 0.073,0.009l0.017 0.005c0.027,0.006 0.058,0.01 0.089,0.01 0.031,0 0.061,-0.004 0.089,-0.01l0.017 -0.005c0.025,-0.007 0.052,-0.015 0.073,-0.009 0.015,0.004 0.04,0.019 0.059,0.042 0.013,0.017 0.023,0.038 0.025,0.063l0.012 0.137 0 0.004c0,0.013 -0.005,0.025 -0.014,0.034 -0.008,0.008 -0.019,0.013 -0.031,0.014 -0.141,0.008 -0.311,0 -0.455,0l-0.005 0c-0.012,-0.001 -0.023,-0.006 -0.031,-0.014l0 0c-0.009,-0.009 -0.014,-0.021 -0.014,-0.034 0.003,-0.047 0.008,-0.094 0.012,-0.141 0.002,-0.025 0.012,-0.046 0.025,-0.063 0.019,-0.023 0.044,-0.038 0.059,-0.042zm0.057 0.064c-0.017,-0.005 -0.037,-0.011 -0.043,-0.009 -0.006,0.001 -0.018,0.009 -0.028,0.022 -0.007,0.009 -0.012,0.02 -0.014,0.033l-0.011 0.127 0.436 0 -0.011 -0.127c-0.002,-0.013 -0.007,-0.024 -0.014,-0.033 -0.01,-0.013 -0.022,-0.021 -0.028,-0.022 -0.006,-0.002 -0.026,0.004 -0.043,0.009 -0.006,0.001 -0.011,0.003 -0.018,0.004l-0.002 0.001c-0.032,0.008 -0.067,0.012 -0.102,0.012 -0.035,0 -0.07,-0.004 -0.102,-0.012 -0.008,-0.002 -0.014,-0.004 -0.02,-0.005z"/>
    <path class="fil1" d="M1.27 0.607c0.054,0 0.102,0.022 0.137,0.057 0.035,0.035 0.057,0.084 0.057,0.137 0,0.053 -0.022,0.102 -0.057,0.137l0 0c-0.035,0.035 -0.083,0.057 -0.137,0.057 -0.053,0 -0.102,-0.022 -0.137,-0.057 -0.035,-0.035 -0.057,-0.084 -0.057,-0.137 0,-0.054 0.022,-0.102 0.057,-0.137 0.035,-0.035 0.084,-0.057 0.137,-0.057zm0.097 0.097c-0.025,-0.025 -0.059,-0.04 -0.097,-0.04 -0.038,0 -0.072,0.015 -0.097,0.04 -0.025,0.025 -0.04,0.059 -0.04,0.097 0,0.038 0.015,0.072 0.04,0.097 0.025,0.025 0.059,0.04 0.097,0.04 0.038,0 0.072,-0.015 0.097,-0.04 0.025,-0.025 0.04,-0.059 0.04,-0.097 0,-0.038 -0.015,-0.072 -0.04,-0.097z"/>
   </g>
  </g>
 </g>
</svg>
