<?xml version="1.0" encoding="UTF-8"?>
<!DOCTYPE svg PUBLIC "-//W3C//DTD SVG 1.1//EN" "http://www.w3.org/Graphics/SVG/1.1/DTD/svg11.dtd">
<!-- Creator: CorelDRAW 2018 (64-Bit) -->
<svg xmlns="http://www.w3.org/2000/svg" xml:space="preserve" width="42px" height="32px" version="1.1" style="shape-rendering:geometricPrecision; text-rendering:geometricPrecision; image-rendering:optimizeQuality; fill-rule:evenodd; clip-rule:evenodd"
viewBox="0 0 1.964 1.496"
 xmlns:xlink="http://www.w3.org/1999/xlink">
 <defs>
  <style type="text/css">
   <![CDATA[
    .fil0 {fill:none}
    .fil1 {fill:white;fill-rule:nonzero}
   ]]>
  </style>
 </defs>
 <g id="Layer_x0020_1">
  <metadata id="CorelCorpID_0Corel-Layer"/>
  <g id="_2815748176592">
   <rect class="fil0" width="1.964" height="1.496"/>
   <g>
    <path class="fil1" d="M0.541 0.363c0,0.012 -0.01,0.023 -0.023,0.023 -0.013,0 -0.024,-0.011 -0.024,-0.023l0 -0.093c0,-0.017 0.007,-0.031 0.018,-0.042 0.01,-0.011 0.025,-0.018 0.042,-0.018l0.983 0c0.016,0 0.031,0.007 0.042,0.018l0 0c0.011,0.011 0.017,0.026 0.017,0.042l0 0.846c0,0.007 -0.002,0.012 -0.007,0.017l-0.286 0.286c-0.005,0.005 -0.011,0.007 -0.017,0.007l-0.732 0c-0.017,0 -0.032,-0.007 -0.042,-0.017 -0.011,-0.011 -0.018,-0.026 -0.018,-0.042l0 -0.017c0,-0.013 0.011,-0.024 0.024,-0.024 0.013,0 0.023,0.011 0.023,0.024l0 0.017c0,0.003 0.002,0.006 0.004,0.009 0.002,0.002 0.005,0.003 0.009,0.003l0.722 0 0.273 -0.273 0 -0.836c0,-0.004 -0.001,-0.007 -0.003,-0.009 -0.002,-0.002 -0.006,-0.004 -0.009,-0.004l-0.983 0c-0.004,0 -0.007,0.002 -0.009,0.004 -0.002,0.002 -0.004,0.005 -0.004,0.009l0 0.093z"/>
    <path class="fil1" d="M0.541 0.637c0,0.013 -0.01,0.023 -0.023,0.023 -0.013,0 -0.024,-0.01 -0.024,-0.023l0 -0.085c0,-0.012 0.011,-0.023 0.024,-0.023 0.013,0 0.023,0.011 0.023,0.023l0 0.085z"/>
    <path class="fil1" d="M0.541 0.903c0,0.013 -0.01,0.023 -0.023,0.023 -0.013,0 -0.024,-0.01 -0.024,-0.023l0 -0.085c0,-0.013 0.011,-0.023 0.024,-0.023 0.013,0 0.023,0.01 0.023,0.023l0 0.085z"/>
    <path class="fil1" d="M0.541 1.169c0,0.013 -0.01,0.023 -0.023,0.023 -0.013,0 -0.024,-0.01 -0.024,-0.023l0 -0.085c0,-0.013 0.011,-0.023 0.024,-0.023 0.013,0 0.023,0.01 0.023,0.023l0 0.085z"/>
    <path class="fil1" d="M0.368 1.217c0,-0.02 0.008,-0.038 0.021,-0.051 0.013,-0.013 0.031,-0.021 0.05,-0.021l0.157 0c0.02,0 0.038,0.008 0.051,0.021 0.013,0.013 0.021,0.031 0.021,0.051 0,0.02 -0.008,0.038 -0.021,0.051 -0.013,0.013 -0.031,0.021 -0.051,0.021l-0.157 0c-0.019,0 -0.037,-0.008 -0.05,-0.021l-0.002 -0.002c-0.012,-0.013 -0.019,-0.03 -0.019,-0.049zm0.046 0c0,0.006 0.003,0.012 0.007,0.017l0.001 0.001c0.004,0.004 0.011,0.007 0.017,0.007l0.157 0c0.007,0 0.013,-0.003 0.018,-0.007 0.004,-0.005 0.007,-0.011 0.007,-0.018 0,-0.007 -0.003,-0.013 -0.007,-0.018 -0.005,-0.004 -0.011,-0.007 -0.018,-0.007l-0.157 0c-0.006,0 -0.013,0.003 -0.017,0.007 -0.005,0.005 -0.008,0.011 -0.008,0.018z"/>
    <path class="fil1" d="M0.368 0.951c0,-0.019 0.008,-0.037 0.021,-0.05 0.013,-0.014 0.031,-0.022 0.05,-0.022l0.157 0c0.02,0 0.038,0.008 0.051,0.021 0.013,0.014 0.021,0.031 0.021,0.051 0,0.02 -0.008,0.038 -0.021,0.051 -0.013,0.013 -0.031,0.021 -0.051,0.021l-0.157 0c-0.019,0 -0.037,-0.008 -0.05,-0.021l-0.002 -0.002c-0.012,-0.012 -0.019,-0.03 -0.019,-0.049zm0.046 0c0,0.007 0.003,0.013 0.007,0.017l0.001 0.001c0.004,0.004 0.011,0.007 0.017,0.007l0.157 0c0.007,0 0.013,-0.003 0.018,-0.007 0.004,-0.005 0.007,-0.011 0.007,-0.018 0,-0.007 -0.003,-0.013 -0.007,-0.018 -0.005,-0.004 -0.011,-0.007 -0.018,-0.007l-0.157 0c-0.006,0 -0.013,0.003 -0.017,0.008 -0.005,0.004 -0.008,0.01 -0.008,0.017z"/>
    <path class="fil1" d="M0.368 0.685c0,-0.019 0.008,-0.037 0.021,-0.05 0.013,-0.013 0.031,-0.021 0.05,-0.021l0.157 0c0.02,0 0.038,0.008 0.051,0.021 0.013,0.013 0.021,0.031 0.021,0.05 0,0.02 -0.008,0.038 -0.021,0.051 -0.013,0.013 -0.031,0.021 -0.051,0.021l-0.157 0c-0.019,0 -0.037,-0.008 -0.05,-0.021l-0.002 -0.001c-0.012,-0.013 -0.019,-0.031 -0.019,-0.05zm0.046 0c0,0.007 0.003,0.013 0.007,0.017l0.001 0.001c0.004,0.005 0.011,0.007 0.017,0.007l0.157 0c0.007,0 0.013,-0.002 0.018,-0.007 0.004,-0.004 0.007,-0.011 0.007,-0.018 0,-0.007 -0.003,-0.013 -0.007,-0.017 -0.005,-0.005 -0.011,-0.008 -0.018,-0.008l-0.157 0c-0.006,0 -0.013,0.003 -0.017,0.008 -0.005,0.004 -0.008,0.01 -0.008,0.017z"/>
    <path class="fil1" d="M0.368 0.42c0,-0.02 0.008,-0.038 0.021,-0.051 0.013,-0.013 0.031,-0.021 0.05,-0.021l0.157 0c0.02,0 0.038,0.008 0.051,0.021 0.013,0.013 0.021,0.031 0.021,0.051 0,0.019 -0.008,0.037 -0.021,0.05 -0.013,0.013 -0.031,0.021 -0.051,0.021l-0.157 0c-0.019,0 -0.037,-0.008 -0.05,-0.021l-0.002 -0.001c-0.012,-0.013 -0.019,-0.03 -0.019,-0.049zm0.046 0c0,0.006 0.003,0.012 0.007,0.016l0.001 0.001c0.004,0.005 0.011,0.008 0.017,0.008l0.157 0c0.007,0 0.013,-0.003 0.018,-0.008 0.004,-0.004 0.007,-0.01 0.007,-0.017 0,-0.007 -0.003,-0.014 -0.007,-0.018 -0.005,-0.005 -0.011,-0.007 -0.018,-0.007l-0.157 0c-0.006,0 -0.013,0.002 -0.017,0.007 -0.005,0.004 -0.008,0.011 -0.008,0.018z"/>
    <path class="fil1" d="M1.516 1.139l-0.206 0 0 0.001 -0.001 0 0 0.206 0.207 -0.207zm-0.206 -0.046l0.263 0c0.006,0 0.012,0.002 0.016,0.006 0.01,0.01 0.01,0.024 0,0.033l-0.286 0.287c-0.004,0.004 -0.01,0.007 -0.017,0.007 -0.013,0 -0.023,-0.01 -0.023,-0.023l0 -0.263c0,-0.013 0.005,-0.025 0.014,-0.033 0.008,-0.009 0.02,-0.014 0.033,-0.014z"/>
    <path class="fil1" d="M0.898 0.811c0.017,-0.005 0.04,0.002 0.06,0.007l0.014 0.004c0.023,0.006 0.048,0.008 0.073,0.008 0.026,0 0.051,-0.002 0.073,-0.008l0.015 -0.004c0.02,-0.005 0.042,-0.012 0.06,-0.007 0.012,0.003 0.033,0.015 0.048,0.034 0.01,0.014 0.019,0.032 0.021,0.052l0.01 0.113 0 0.003c0,0.011 -0.005,0.021 -0.012,0.028 -0.007,0.006 -0.016,0.011 -0.026,0.012 -0.116,0.007 -0.255,0 -0.374,0l-0.004 0c-0.009,-0.001 -0.018,-0.005 -0.025,-0.012l0 0c-0.007,-0.007 -0.012,-0.017 -0.012,-0.028 0.002,-0.038 0.007,-0.077 0.01,-0.116 0.002,-0.02 0.01,-0.038 0.021,-0.051 0.015,-0.02 0.036,-0.032 0.048,-0.035zm0.047 0.052c-0.014,-0.004 -0.03,-0.008 -0.035,-0.007 -0.005,0.001 -0.015,0.008 -0.023,0.018 -0.006,0.008 -0.011,0.017 -0.012,0.027l-0.009 0.105 0.358 0 -0.009 -0.105c-0.001,-0.01 -0.005,-0.019 -0.011,-0.027 -0.008,-0.01 -0.018,-0.017 -0.023,-0.018 -0.005,-0.001 -0.021,0.003 -0.036,0.007 -0.004,0.002 -0.008,0.003 -0.014,0.004l-0.002 0.001c-0.026,0.006 -0.055,0.009 -0.084,0.009 -0.028,0 -0.057,-0.003 -0.083,-0.009 -0.007,-0.002 -0.012,-0.003 -0.017,-0.005z"/>
    <path class="fil1" d="M1.045 0.499c0.044,0 0.083,0.018 0.112,0.047 0.029,0.029 0.047,0.069 0.047,0.113 0,0.044 -0.018,0.084 -0.047,0.112l0 0.001c-0.029,0.028 -0.068,0.046 -0.112,0.046 -0.044,0 -0.084,-0.018 -0.113,-0.046 -0.029,-0.029 -0.047,-0.069 -0.047,-0.113 0,-0.044 0.018,-0.084 0.047,-0.113 0.029,-0.029 0.069,-0.047 0.113,-0.047zm0.079 0.08c-0.02,-0.02 -0.048,-0.033 -0.079,-0.033 -0.032,0 -0.06,0.013 -0.08,0.033 -0.021,0.02 -0.033,0.049 -0.033,0.08 0,0.031 0.012,0.059 0.033,0.08 0.02,0.02 0.048,0.033 0.08,0.033 0.031,0 0.059,-0.013 0.079,-0.033 0.021,-0.021 0.033,-0.049 0.033,-0.08 0,-0.031 -0.012,-0.06 -0.033,-0.08z"/>
   </g>
  </g>
 </g>
</svg>
