<?xml version="1.0" encoding="UTF-8"?>
<!DOCTYPE svg PUBLIC "-//W3C//DTD SVG 1.1//EN" "http://www.w3.org/Graphics/SVG/1.1/DTD/svg11.dtd">
<!-- Creator: CorelDRAW 2018 (64-Bit) -->
<svg xmlns="http://www.w3.org/2000/svg" xml:space="preserve" width="42px" height="32px" version="1.1" style="shape-rendering:geometricPrecision; text-rendering:geometricPrecision; image-rendering:optimizeQuality; fill-rule:evenodd; clip-rule:evenodd"
viewBox="0 0 1.008 0.768"
 xmlns:xlink="http://www.w3.org/1999/xlink">
 <defs>
  <style type="text/css">
   <![CDATA[
    .fil0 {fill:none}
    .fil1 {fill:white;fill-rule:nonzero}
   ]]>
  </style>
 </defs>
 <g id="Layer_x0020_1">
  <metadata id="CorelCorpID_0Corel-Layer"/>
  <g id="_2815449501616">
   <rect class="fil0" width="1.008" height="0.768"/>
   <g>
    <path class="fil1" d="M0.577 0.183c-0.045,0.039 -0.1,0.053 -0.146,0.065 -0.019,0.005 -0.036,0.009 -0.049,0.015l0 0.081c0,0.023 0.013,0.05 0.036,0.074 0.022,0.022 0.051,0.041 0.086,0.052 0.035,-0.011 0.065,-0.03 0.086,-0.052 0.023,-0.024 0.036,-0.051 0.036,-0.074l0 -0.084c-0.002,-0.002 -0.005,-0.004 -0.007,-0.005l0 -0.001c-0.017,-0.012 -0.031,-0.024 -0.042,-0.071zm-0.152 0.042c0.049,-0.013 0.108,-0.028 0.151,-0.074 0.002,-0.002 0.004,-0.003 0.007,-0.004 0.007,-0.001 0.013,0.004 0.014,0.01 0.009,0.057 0.022,0.067 0.036,0.078l0.001 0.001c0.004,0.003 0.008,0.006 0.012,0.01 0.003,0.002 0.004,0.005 0.004,0.009l0 0.089c0,0.029 -0.015,0.062 -0.043,0.091 -0.025,0.025 -0.058,0.047 -0.1,0.059 -0.002,0.001 -0.004,0.001 -0.006,0 -0.041,-0.012 -0.075,-0.034 -0.1,-0.059 -0.028,-0.029 -0.043,-0.062 -0.043,-0.091l0 -0.089c0,-0.005 0.002,-0.009 0.007,-0.011 0.016,-0.008 0.037,-0.013 0.06,-0.019z"/>
    <path class="fil1" d="M0.638 0.345c-0.006,0 -0.012,-0.006 -0.012,-0.012 0,-0.007 0.006,-0.012 0.012,-0.012 0.005,0 0.01,-0.002 0.013,-0.006l0 0c0.004,-0.003 0.006,-0.008 0.006,-0.013 0,-0.006 -0.002,-0.011 -0.006,-0.014 -0.003,-0.003 -0.008,-0.006 -0.013,-0.006 -0.006,0 -0.012,-0.005 -0.012,-0.012 0,-0.006 0.006,-0.012 0.012,-0.012 0.012,0 0.023,0.005 0.03,0.013 0.008,0.008 0.013,0.019 0.013,0.031 0,0.011 -0.005,0.022 -0.013,0.03l0 0c-0.007,0.008 -0.018,0.013 -0.03,0.013z"/>
    <path class="fil1" d="M0.37 0.321c0.006,0 0.012,0.005 0.012,0.012 0,0.006 -0.006,0.012 -0.012,0.012 -0.012,0 -0.023,-0.005 -0.03,-0.013l0 0c-0.008,-0.008 -0.013,-0.019 -0.013,-0.03 0,-0.012 0.005,-0.023 0.013,-0.031 0.007,-0.008 0.018,-0.013 0.03,-0.013 0.006,0 0.012,0.006 0.012,0.012 0,0.007 -0.006,0.012 -0.012,0.012 -0.005,0 -0.01,0.003 -0.013,0.006 -0.004,0.003 -0.006,0.008 -0.006,0.014 0,0.005 0.002,0.01 0.006,0.013l0 0c0.003,0.004 0.008,0.006 0.013,0.006z"/>
    <path class="fil1" d="M0.424 0.542c0.004,0.005 0.003,0.013 -0.002,0.017 -0.005,0.004 -0.012,0.004 -0.016,-0.001 -0.027,-0.032 -0.055,-0.073 -0.075,-0.122 -0.015,-0.039 -0.026,-0.083 -0.027,-0.131 0,-0.005 0,-0.01 0,-0.015 0.002,-0.052 0.023,-0.109 0.057,-0.153 0.034,-0.044 0.082,-0.076 0.138,-0.077 0.003,0 0.006,0 0.01,0 0.063,0.003 0.12,0.027 0.16,0.075 0.037,0.042 0.059,0.103 0.06,0.182 0,0.05 -0.01,0.1 -0.026,0.145 -0.019,0.057 -0.048,0.108 -0.076,0.15 -0.016,0.024 -0.029,0.046 -0.03,0.066 -0.002,0.019 0.007,0.037 0.032,0.056 0.006,0.004 0.007,0.012 0.003,0.017 -0.003,0.004 -0.007,0.005 -0.011,0.005 -0.017,-0.001 -0.046,-0.005 -0.072,-0.021 -0.027,-0.016 -0.048,-0.044 -0.046,-0.094 0.002,-0.046 0.016,-0.065 0.03,-0.085 0.009,-0.012 0.018,-0.025 0.023,-0.049 0.001,-0.007 0.002,-0.015 0.003,-0.024 0.001,-0.01 0.001,-0.02 0,-0.033 0,-0.006 0.005,-0.012 0.012,-0.012 0.006,0 0.012,0.005 0.012,0.011 0.001,0.014 0,0.025 0,0.035 -0.001,0.011 -0.002,0.02 -0.004,0.028 -0.006,0.028 -0.016,0.043 -0.027,0.058 -0.012,0.017 -0.023,0.033 -0.025,0.072 -0.002,0.039 0.014,0.061 0.035,0.073 0.008,0.005 0.016,0.008 0.025,0.011 -0.011,-0.016 -0.015,-0.033 -0.014,-0.05 0.002,-0.025 0.016,-0.051 0.034,-0.077 0.028,-0.041 0.055,-0.09 0.074,-0.144 0.015,-0.044 0.024,-0.09 0.024,-0.138 -0.001,-0.073 -0.021,-0.128 -0.054,-0.167 -0.036,-0.042 -0.087,-0.064 -0.143,-0.066 -0.003,0 -0.006,0 -0.009,0 -0.048,0.001 -0.089,0.029 -0.12,0.068 -0.03,0.04 -0.049,0.091 -0.051,0.139 0,0.005 0,0.009 0,0.013 0.001,0.046 0.011,0.087 0.026,0.123 0.018,0.046 0.044,0.085 0.07,0.115z"/>
    <path class="fil1" d="M0.423 0.456c-0.002,-0.007 0.002,-0.013 0.008,-0.016 0.006,-0.002 0.013,0.002 0.015,0.008 0.019,0.056 0.004,0.091 -0.028,0.114 -0.029,0.021 -0.073,0.03 -0.116,0.035 -0.008,0.001 -0.018,0.002 -0.026,0.003 -0.041,0.004 -0.055,0.006 -0.094,0.053 -0.005,0.005 -0.012,0.005 -0.017,0.001 -0.005,-0.004 -0.006,-0.012 -0.002,-0.017 0.046,-0.054 0.062,-0.056 0.111,-0.061 0.007,0 0.015,-0.001 0.025,-0.002 0.04,-0.005 0.08,-0.013 0.105,-0.031 0.024,-0.017 0.034,-0.044 0.019,-0.087z"/>
    <path class="fil1" d="M0.636 0.583c-0.006,-0.002 -0.01,-0.008 -0.008,-0.015 0.002,-0.006 0.009,-0.009 0.015,-0.007 0.01,0.003 0.021,0.005 0.032,0.007 0.011,0.002 0.022,0.004 0.034,0.005 0.01,0.002 0.018,0.002 0.025,0.003 0.049,0.005 0.065,0.007 0.111,0.061 0.004,0.005 0.003,0.013 -0.002,0.017 -0.005,0.004 -0.012,0.003 -0.016,-0.002 -0.04,-0.046 -0.054,-0.048 -0.095,-0.052 -0.008,-0.001 -0.018,-0.002 -0.026,-0.003 -0.012,-0.001 -0.024,-0.003 -0.036,-0.005 -0.011,-0.003 -0.023,-0.005 -0.034,-0.009z"/>
    <path class="fil1" d="M0.56 0.456c0.001,-0.007 0.008,-0.01 0.014,-0.008 0.007,0.001 0.01,0.008 0.008,0.014 -0.002,0.009 -0.004,0.018 -0.004,0.025 -0.001,0.008 0,0.014 0.001,0.02 0.002,0.007 -0.002,0.013 -0.009,0.014 -0.006,0.002 -0.013,-0.002 -0.014,-0.009 -0.002,-0.008 -0.003,-0.017 -0.002,-0.026 0.001,-0.009 0.002,-0.019 0.006,-0.03z"/>
    <path class="fil1" d="M0.589 0.682c-0.006,0.001 -0.012,-0.003 -0.014,-0.01 -0.001,-0.006 0.004,-0.013 0.01,-0.014 0.033,-0.006 0.063,-0.016 0.091,-0.029 0.027,-0.013 0.052,-0.029 0.072,-0.047 0.005,-0.005 0.013,-0.004 0.017,0.001 0.005,0.005 0.004,0.012 -0.001,0.017 -0.022,0.02 -0.048,0.037 -0.078,0.051 -0.029,0.014 -0.062,0.024 -0.097,0.031z"/>
    <path class="fil1" d="M0.244 0.6c-0.005,-0.004 -0.006,-0.012 -0.001,-0.017 0.004,-0.005 0.012,-0.005 0.017,-0.001 0.028,0.026 0.065,0.047 0.108,0.062 0.041,0.014 0.087,0.022 0.136,0.022l0.013 -0.001c0.007,0 0.012,0.005 0.012,0.012 0.001,0.007 -0.005,0.012 -0.011,0.012l-0.014 0.001c-0.052,0 -0.101,-0.009 -0.144,-0.024 -0.046,-0.015 -0.085,-0.038 -0.116,-0.066z"/>
   </g>
  </g>
 </g>
</svg>
