<?xml version="1.0" encoding="UTF-8"?>
<!DOCTYPE svg PUBLIC "-//W3C//DTD SVG 1.1//EN" "http://www.w3.org/Graphics/SVG/1.1/DTD/svg11.dtd">
<!-- Creator: CorelDRAW 2018 (64-Bit) -->
<svg xmlns="http://www.w3.org/2000/svg" xml:space="preserve" width="42px" height="32px" version="1.1" style="shape-rendering:geometricPrecision; text-rendering:geometricPrecision; image-rendering:optimizeQuality; fill-rule:evenodd; clip-rule:evenodd"
viewBox="0 0 1.235 0.941"
 xmlns:xlink="http://www.w3.org/1999/xlink">
 <defs>
  <style type="text/css">
   <![CDATA[
    .fil0 {fill:none}
    .fil1 {fill:#00F4FF;fill-rule:nonzero}
   ]]>
  </style>
 </defs>
 <g id="Layer_x0020_1">
  <metadata id="CorelCorpID_0Corel-Layer"/>
  <g id="_2815583881136">
   <rect class="fil0" width="1.235" height="0.941"/>
   <g>
    <path class="fil1" d="M0.707 0.224c-0.055,0.048 -0.123,0.065 -0.179,0.08 -0.023,0.006 -0.043,0.011 -0.06,0.018l0 0.1c0,0.027 0.016,0.061 0.045,0.091 0.026,0.026 0.061,0.049 0.105,0.063 0.043,-0.014 0.079,-0.037 0.104,-0.063 0.029,-0.03 0.045,-0.064 0.045,-0.091l0 -0.103c-0.003,-0.003 -0.005,-0.005 -0.008,-0.007l-0.001 -0.001c-0.02,-0.015 -0.038,-0.029 -0.051,-0.087zm-0.187 0.052c0.06,-0.016 0.133,-0.035 0.186,-0.091 0.002,-0.002 0.005,-0.004 0.008,-0.005 0.008,-0.001 0.016,0.005 0.017,0.013 0.011,0.069 0.027,0.082 0.045,0.095l0 0.001c0.005,0.003 0.01,0.007 0.015,0.012 0.004,0.003 0.006,0.007 0.006,0.011l0 0.11c0,0.035 -0.019,0.076 -0.054,0.111 -0.029,0.031 -0.071,0.057 -0.121,0.072 -0.003,0.001 -0.006,0.001 -0.009,0 -0.05,-0.015 -0.091,-0.041 -0.121,-0.072 -0.034,-0.035 -0.054,-0.076 -0.054,-0.111l0 -0.11c0,-0.005 0.004,-0.011 0.009,-0.013 0.02,-0.009 0.046,-0.016 0.073,-0.023z"/>
    <path class="fil1" d="M0.782 0.422c-0.008,0 -0.015,-0.006 -0.015,-0.014 0,-0.008 0.007,-0.015 0.015,-0.015 0.006,0 0.012,-0.003 0.016,-0.007l0 0c0.004,-0.004 0.007,-0.01 0.007,-0.016 0,-0.007 -0.003,-0.013 -0.007,-0.017 -0.004,-0.004 -0.01,-0.007 -0.016,-0.007 -0.008,0 -0.015,-0.006 -0.015,-0.015 0,-0.008 0.007,-0.014 0.015,-0.014 0.014,0 0.028,0.006 0.037,0.015 0.009,0.01 0.015,0.023 0.015,0.038 0,0.014 -0.006,0.027 -0.015,0.037l0 0c-0.009,0.009 -0.023,0.015 -0.037,0.015z"/>
    <path class="fil1" d="M0.453 0.393c0.008,0 0.015,0.007 0.015,0.015 0,0.008 -0.007,0.014 -0.015,0.014 -0.014,0 -0.027,-0.006 -0.037,-0.015l0 0c-0.009,-0.01 -0.015,-0.023 -0.015,-0.037 0,-0.015 0.006,-0.028 0.015,-0.038 0.01,-0.009 0.023,-0.015 0.037,-0.015 0.008,0 0.015,0.006 0.015,0.014 0,0.009 -0.007,0.015 -0.015,0.015 -0.006,0 -0.012,0.003 -0.016,0.007 -0.004,0.004 -0.007,0.01 -0.007,0.017 0,0.006 0.003,0.012 0.007,0.016l0 0c0.004,0.004 0.01,0.007 0.016,0.007z"/>
    <path class="fil1" d="M0.519 0.664c0.006,0.006 0.005,0.016 -0.001,0.021 -0.007,0.005 -0.016,0.004 -0.021,-0.002 -0.033,-0.039 -0.067,-0.089 -0.091,-0.149 -0.019,-0.047 -0.032,-0.101 -0.033,-0.161 -0.001,-0.006 0,-0.011 0,-0.017 0.002,-0.065 0.028,-0.134 0.069,-0.188 0.042,-0.054 0.1,-0.093 0.169,-0.094 0.004,0 0.008,0 0.012,0 0.078,0.003 0.148,0.033 0.197,0.091 0.044,0.052 0.072,0.126 0.073,0.223 0,0.062 -0.012,0.123 -0.031,0.179 -0.024,0.069 -0.059,0.131 -0.094,0.183 -0.02,0.029 -0.035,0.056 -0.037,0.081 -0.002,0.023 0.009,0.045 0.04,0.069 0.007,0.005 0.008,0.014 0.003,0.021 -0.003,0.004 -0.008,0.006 -0.013,0.005 -0.02,-0.001 -0.057,-0.006 -0.088,-0.025 -0.033,-0.02 -0.059,-0.055 -0.057,-0.115 0.003,-0.057 0.02,-0.081 0.037,-0.104 0.011,-0.016 0.022,-0.032 0.028,-0.061 0.002,-0.008 0.003,-0.018 0.004,-0.029 0.001,-0.012 0.001,-0.025 0,-0.04 0,-0.008 0.006,-0.015 0.014,-0.015 0.008,-0.001 0.015,0.006 0.015,0.014 0.001,0.016 0.001,0.03 0,0.043 -0.001,0.012 -0.002,0.023 -0.004,0.033 -0.007,0.035 -0.021,0.054 -0.034,0.072 -0.014,0.02 -0.028,0.04 -0.03,0.088 -0.002,0.047 0.017,0.074 0.042,0.089 0.01,0.006 0.021,0.01 0.031,0.014 -0.014,-0.02 -0.019,-0.041 -0.017,-0.062 0.002,-0.031 0.02,-0.062 0.042,-0.094 0.034,-0.05 0.067,-0.111 0.09,-0.177 0.018,-0.053 0.03,-0.11 0.029,-0.168 0,-0.09 -0.025,-0.158 -0.065,-0.205 -0.044,-0.051 -0.107,-0.078 -0.176,-0.081 -0.003,0 -0.007,0 -0.01,0 -0.059,0.001 -0.11,0.035 -0.147,0.083 -0.038,0.049 -0.061,0.112 -0.063,0.171 0,0.005 0,0.011 0,0.016 0.001,0.055 0.013,0.106 0.031,0.15 0.023,0.057 0.055,0.104 0.086,0.141z"/>
    <path class="fil1" d="M0.519 0.558c-0.003,-0.007 0.001,-0.016 0.009,-0.018 0.008,-0.003 0.016,0.001 0.019,0.009 0.023,0.069 0.004,0.112 -0.034,0.14 -0.036,0.025 -0.09,0.036 -0.143,0.043 -0.01,0.001 -0.021,0.002 -0.031,0.003 -0.051,0.006 -0.068,0.007 -0.117,0.065 -0.005,0.006 -0.014,0.007 -0.02,0.001 -0.006,-0.005 -0.007,-0.014 -0.002,-0.02 0.056,-0.067 0.076,-0.069 0.136,-0.075 0.008,-0.001 0.018,-0.002 0.031,-0.003 0.048,-0.006 0.098,-0.016 0.129,-0.038 0.028,-0.021 0.041,-0.053 0.023,-0.107z"/>
    <path class="fil1" d="M0.779 0.715c-0.007,-0.003 -0.012,-0.011 -0.009,-0.018 0.002,-0.008 0.01,-0.013 0.018,-0.01 0.012,0.003 0.025,0.007 0.039,0.009 0.013,0.003 0.027,0.005 0.042,0.006 0.013,0.002 0.022,0.003 0.031,0.004 0.059,0.006 0.079,0.008 0.135,0.074 0.005,0.007 0.005,0.016 -0.002,0.021 -0.006,0.005 -0.015,0.005 -0.02,-0.002 -0.049,-0.057 -0.066,-0.059 -0.116,-0.064 -0.01,-0.001 -0.022,-0.002 -0.032,-0.003 -0.014,-0.002 -0.029,-0.004 -0.044,-0.007 -0.014,-0.003 -0.028,-0.006 -0.042,-0.01z"/>
    <path class="fil1" d="M0.686 0.558c0.002,-0.007 0.01,-0.012 0.018,-0.01 0.008,0.003 0.012,0.011 0.01,0.018 -0.003,0.012 -0.005,0.022 -0.006,0.031 0,0.009 0,0.017 0.002,0.024 0.001,0.008 -0.004,0.016 -0.011,0.018 -0.008,0.002 -0.016,-0.003 -0.018,-0.011 -0.002,-0.01 -0.003,-0.021 -0.002,-0.033 0.001,-0.011 0.003,-0.023 0.007,-0.037z"/>
    <path class="fil1" d="M0.722 0.835c-0.008,0.002 -0.015,-0.004 -0.017,-0.012 -0.001,-0.007 0.004,-0.015 0.012,-0.017 0.04,-0.007 0.077,-0.019 0.111,-0.035 0.034,-0.016 0.064,-0.035 0.089,-0.058 0.006,-0.005 0.015,-0.005 0.021,0.001 0.005,0.006 0.005,0.015 -0.001,0.021 -0.027,0.024 -0.06,0.045 -0.097,0.063 -0.035,0.016 -0.075,0.029 -0.118,0.037z"/>
    <path class="fil1" d="M0.298 0.735c-0.006,-0.005 -0.006,-0.015 -0.001,-0.021 0.006,-0.006 0.015,-0.006 0.021,-0.001 0.035,0.032 0.08,0.058 0.133,0.076 0.05,0.017 0.106,0.027 0.166,0.027l0.017 -0.001c0.008,0 0.015,0.006 0.015,0.015 0,0.008 -0.006,0.014 -0.014,0.015l-0.018 0c-0.063,0 -0.123,-0.01 -0.176,-0.029 -0.056,-0.019 -0.104,-0.047 -0.143,-0.081z"/>
   </g>
  </g>
 </g>
</svg>
