<?xml version="1.0" encoding="UTF-8"?>
<!DOCTYPE svg PUBLIC "-//W3C//DTD SVG 1.1//EN" "http://www.w3.org/Graphics/SVG/1.1/DTD/svg11.dtd">
<!-- Creator: CorelDRAW 2018 (64-Bit) -->
<svg xmlns="http://www.w3.org/2000/svg" xml:space="preserve" width="42px" height="32px" version="1.1" style="shape-rendering:geometricPrecision; text-rendering:geometricPrecision; image-rendering:optimizeQuality; fill-rule:evenodd; clip-rule:evenodd"
viewBox="0 0 1.008 0.768"
 xmlns:xlink="http://www.w3.org/1999/xlink">
 <defs>
  <style type="text/css">
   <![CDATA[
    .fil0 {fill:none}
    .fil1 {fill:white;fill-rule:nonzero}
   ]]>
  </style>
 </defs>
 <g id="Layer_x0020_1">
  <metadata id="CorelCorpID_0Corel-Layer"/>
  <g id="_2814940317440">
   <rect class="fil0" width="1.008" height="0.768"/>
   <g>
    <path class="fil1" d="M0.4 0.515c-0.002,-0.006 0.001,-0.013 0.008,-0.015 0.006,-0.002 0.013,0.001 0.015,0.008 0.02,0.06 0.004,0.097 -0.03,0.122 -0.031,0.022 -0.078,0.032 -0.125,0.038 -0.009,0.001 -0.019,0.002 -0.028,0.003 -0.045,0.004 -0.06,0.006 -0.103,0.057 -0.004,0.005 -0.012,0.005 -0.017,0.001 -0.005,-0.004 -0.005,-0.012 -0.001,-0.017 0.049,-0.058 0.067,-0.06 0.119,-0.065 0.007,-0.001 0.016,-0.002 0.027,-0.003 0.043,-0.006 0.087,-0.014 0.114,-0.034 0.026,-0.018 0.037,-0.047 0.021,-0.095z"/>
    <path class="fil1" d="M0.585 0.508c0.002,-0.007 0.009,-0.01 0.015,-0.008 0.007,0.002 0.01,0.009 0.008,0.015 -0.016,0.048 -0.005,0.077 0.021,0.095 0.027,0.02 0.071,0.028 0.114,0.034 0.011,0.001 0.02,0.002 0.027,0.003 0.052,0.005 0.07,0.007 0.119,0.065 0.004,0.005 0.004,0.013 -0.001,0.017 -0.005,0.004 -0.013,0.004 -0.017,-0.001 -0.043,-0.051 -0.058,-0.053 -0.103,-0.057 -0.009,-0.001 -0.019,-0.002 -0.028,-0.003 -0.047,-0.006 -0.094,-0.016 -0.125,-0.038 -0.034,-0.025 -0.05,-0.062 -0.03,-0.122z"/>
    <path class="fil1" d="M0.661 0.313l0 0.095c0,0.015 -0.004,0.031 -0.011,0.047 -0.008,0.017 -0.019,0.034 -0.031,0.049 -0.015,0.019 -0.034,0.036 -0.054,0.048 -0.019,0.011 -0.039,0.017 -0.061,0.017l0 0c-0.022,0 -0.042,-0.006 -0.061,-0.017 -0.02,-0.012 -0.038,-0.029 -0.054,-0.048 -0.012,-0.015 -0.023,-0.032 -0.031,-0.049 -0.007,-0.016 -0.011,-0.032 -0.011,-0.047l0 -0.098c0,-0.018 0.004,-0.038 0.009,-0.056 0.005,-0.019 0.013,-0.036 0.021,-0.046 0.016,-0.02 0.033,-0.029 0.055,-0.032 0.02,-0.003 0.044,-0.001 0.074,0.003 0.033,0.005 0.073,0.016 0.103,0.03 0.027,0.013 0.047,0.03 0.05,0.049l0 0c0,0.006 0.001,0.016 0.002,0.027 0,0.01 0,0.021 0,0.028zm-0.024 0.095l0 -0.095c0,-0.007 0,-0.017 0,-0.027 -0.001,-0.01 -0.001,-0.019 -0.002,-0.024l0 -0.001c-0.002,-0.01 -0.016,-0.02 -0.037,-0.03 -0.027,-0.013 -0.065,-0.024 -0.095,-0.028 -0.028,-0.004 -0.05,-0.006 -0.068,-0.004 -0.015,0.003 -0.028,0.009 -0.039,0.024 -0.007,0.007 -0.013,0.021 -0.017,0.037 -0.005,0.016 -0.008,0.034 -0.008,0.051l0 0.097c0,0.012 0.003,0.024 0.009,0.037 0.007,0.015 0.017,0.03 0.028,0.044 0.014,0.017 0.03,0.032 0.047,0.042 0.015,0.009 0.032,0.014 0.049,0.014 0.017,0 0.034,-0.005 0.049,-0.014 0.018,-0.01 0.034,-0.025 0.048,-0.042 0.011,-0.014 0.02,-0.029 0.027,-0.044 0.006,-0.013 0.009,-0.025 0.009,-0.037z"/>
    <path class="fil1" d="M0.649 0.408c-0.006,0 -0.012,-0.006 -0.012,-0.012 0,-0.007 0.006,-0.012 0.012,-0.012 0.006,0 0.011,-0.003 0.015,-0.007 0.004,-0.004 0.006,-0.009 0.006,-0.015 0,-0.006 -0.002,-0.012 -0.006,-0.015 -0.004,-0.004 -0.009,-0.007 -0.015,-0.007 -0.006,0 -0.012,-0.005 -0.012,-0.012 0,-0.006 0.006,-0.012 0.012,-0.012 0.013,0 0.024,0.005 0.032,0.014 0.008,0.008 0.013,0.019 0.013,0.032 0,0.012 -0.005,0.024 -0.013,0.032 -0.008,0.008 -0.019,0.014 -0.032,0.014z"/>
    <path class="fil1" d="M0.359 0.384c0.007,0 0.012,0.005 0.012,0.012 0,0.006 -0.005,0.012 -0.012,0.012 -0.012,0 -0.024,-0.006 -0.032,-0.014 -0.008,-0.008 -0.013,-0.02 -0.013,-0.032 0,-0.013 0.005,-0.024 0.013,-0.032 0.008,-0.009 0.02,-0.014 0.032,-0.014 0.007,0 0.012,0.006 0.012,0.012 0,0.007 -0.005,0.012 -0.012,0.012 -0.006,0 -0.011,0.003 -0.015,0.007 -0.003,0.003 -0.006,0.009 -0.006,0.015 0,0.006 0.003,0.011 0.006,0.015 0.004,0.004 0.009,0.007 0.015,0.007z"/>
    <path class="fil1" d="M0.362 0.321c0.001,0.006 -0.003,0.013 -0.01,0.014 -0.006,0.001 -0.012,-0.003 -0.014,-0.009 -0.001,-0.007 -0.003,-0.014 -0.006,-0.022 -0.011,-0.039 -0.024,-0.085 0.017,-0.113 0.001,-0.043 0.019,-0.07 0.045,-0.086 0.025,-0.015 0.056,-0.02 0.084,-0.021l0.007 0c0.041,0 0.089,0.012 0.128,0.035 0.034,0.02 0.061,0.048 0.071,0.083l0 0.001c0.01,0.034 -0.002,0.088 -0.01,0.128l-0.001 0c-0.001,0.007 -0.007,0.011 -0.014,0.01 -0.006,-0.002 -0.01,-0.008 -0.009,-0.015l0 0c0.008,-0.038 0.019,-0.089 0.011,-0.117l0 0c-0.008,-0.029 -0.031,-0.053 -0.06,-0.069 -0.035,-0.021 -0.079,-0.032 -0.116,-0.032l-0.007 0c-0.024,0 -0.051,0.005 -0.071,0.018 -0.02,0.012 -0.034,0.033 -0.034,0.068l0 0.003c0,0.004 -0.002,0.009 -0.006,0.011 -0.032,0.018 -0.021,0.057 -0.012,0.089 0.003,0.009 0.005,0.017 0.007,0.024z"/>
    <path class="fil1" d="M0.409 0.594c-0.005,-0.003 -0.008,-0.011 -0.004,-0.016 0.003,-0.006 0.01,-0.008 0.016,-0.005l0.089 0.049c0.005,0.003 0.008,0.01 0.005,0.015l-0.028 0.064c-0.003,0.006 -0.01,0.009 -0.016,0.006 -0.001,-0.001 -0.003,-0.002 -0.004,-0.003l-0.082 -0.081c-0.005,-0.005 -0.005,-0.012 0,-0.017 0.004,-0.005 0.012,-0.005 0.017,0l0.07 0.069 0.017 -0.037 -0.08 -0.044z"/>
    <path class="fil1" d="M0.587 0.573c0.006,-0.003 0.013,-0.001 0.017,0.005 0.003,0.005 0.001,0.013 -0.005,0.016l-0.079 0.044 0.016 0.037 0.071 -0.069c0.004,-0.005 0.012,-0.005 0.017,0 0.004,0.005 0.004,0.012 -0.001,0.017l-0.082 0.081c-0.001,0.001 -0.002,0.002 -0.004,0.003 -0.006,0.003 -0.013,0 -0.016,-0.006l-0.028 -0.064c-0.002,-0.005 0,-0.012 0.005,-0.015l0.089 -0.049z"/>
   </g>
  </g>
 </g>
</svg>
