<?xml version="1.0" encoding="UTF-8"?>
<!DOCTYPE svg PUBLIC "-//W3C//DTD SVG 1.1//EN" "http://www.w3.org/Graphics/SVG/1.1/DTD/svg11.dtd">
<!-- Creator: CorelDRAW 2018 (64-Bit) -->
<svg xmlns="http://www.w3.org/2000/svg" xml:space="preserve" width="42px" height="32px" version="1.1" style="shape-rendering:geometricPrecision; text-rendering:geometricPrecision; image-rendering:optimizeQuality; fill-rule:evenodd; clip-rule:evenodd"
viewBox="0 0 1.235 0.941"
 xmlns:xlink="http://www.w3.org/1999/xlink">
 <defs>
  <style type="text/css">
   <![CDATA[
    .fil0 {fill:none}
    .fil1 {fill:#00F4FF;fill-rule:nonzero}
   ]]>
  </style>
 </defs>
 <g id="Layer_x0020_1">
  <metadata id="CorelCorpID_0Corel-Layer"/>
  <g id="_2815449826960">
   <rect class="fil0" width="1.235" height="0.941"/>
   <g>
    <path class="fil1" d="M0.49 0.631c-0.002,-0.007 0.002,-0.016 0.01,-0.018 0.007,-0.003 0.016,0.001 0.018,0.009 0.025,0.074 0.005,0.12 -0.036,0.15 -0.039,0.027 -0.096,0.039 -0.153,0.046 -0.012,0.001 -0.024,0.003 -0.035,0.004 -0.055,0.006 -0.073,0.007 -0.126,0.07 -0.005,0.006 -0.014,0.007 -0.02,0.001 -0.007,-0.005 -0.007,-0.014 -0.002,-0.02 0.06,-0.072 0.081,-0.074 0.146,-0.08 0.009,-0.001 0.019,-0.002 0.033,-0.004 0.053,-0.007 0.106,-0.017 0.14,-0.041 0.031,-0.023 0.045,-0.058 0.025,-0.117z"/>
    <path class="fil1" d="M0.717 0.622c0.003,-0.008 0.011,-0.012 0.019,-0.009 0.007,0.002 0.011,0.011 0.009,0.018 -0.02,0.059 -0.006,0.094 0.025,0.117 0.034,0.024 0.087,0.034 0.14,0.041 0.014,0.002 0.024,0.003 0.034,0.004 0.064,0.006 0.085,0.008 0.145,0.08 0.006,0.006 0.005,0.015 -0.001,0.02 -0.007,0.006 -0.016,0.005 -0.021,-0.001 -0.053,-0.063 -0.071,-0.064 -0.126,-0.07 -0.011,-0.001 -0.023,-0.003 -0.034,-0.004 -0.057,-0.007 -0.115,-0.019 -0.154,-0.046 -0.041,-0.03 -0.061,-0.076 -0.036,-0.15z"/>
    <path class="fil1" d="M0.81 0.384l0 0.116c0,0.019 -0.005,0.038 -0.013,0.057 -0.01,0.021 -0.023,0.042 -0.038,0.06 -0.019,0.024 -0.042,0.045 -0.067,0.059 -0.023,0.013 -0.048,0.021 -0.074,0.021l-0.001 0c-0.026,0 -0.051,-0.008 -0.074,-0.021 -0.025,-0.014 -0.047,-0.035 -0.066,-0.059 -0.015,-0.018 -0.029,-0.039 -0.038,-0.06 -0.009,-0.019 -0.014,-0.038 -0.014,-0.057l0 -0.12c0.001,-0.023 0.005,-0.047 0.011,-0.069 0.006,-0.023 0.016,-0.044 0.026,-0.057 0.019,-0.023 0.04,-0.035 0.067,-0.039 0.025,-0.003 0.054,0 0.091,0.005 0.04,0.005 0.089,0.019 0.126,0.036 0.033,0.016 0.057,0.037 0.061,0.06l0 0c0.001,0.007 0.002,0.02 0.003,0.033 0,0.013 0,0.026 0,0.035zm-0.029 0.116l0 -0.117c0,-0.008 0,-0.02 -0.001,-0.032 0,-0.012 -0.001,-0.024 -0.002,-0.03l0 -0.001c-0.002,-0.012 -0.02,-0.025 -0.045,-0.037 -0.034,-0.016 -0.079,-0.029 -0.117,-0.034 -0.034,-0.005 -0.061,-0.008 -0.083,-0.005 -0.019,0.003 -0.034,0.011 -0.048,0.029 -0.008,0.009 -0.015,0.026 -0.021,0.046 -0.005,0.02 -0.009,0.042 -0.009,0.062l0 0.119c0,0.014 0.004,0.03 0.011,0.045 0.008,0.019 0.02,0.037 0.034,0.054 0.016,0.021 0.036,0.039 0.058,0.052 0.018,0.01 0.039,0.017 0.06,0.017 0.021,0 0.041,-0.007 0.06,-0.017 0.021,-0.013 0.041,-0.031 0.058,-0.052 0.013,-0.017 0.025,-0.035 0.034,-0.054 0.007,-0.015 0.011,-0.031 0.011,-0.045z"/>
    <path class="fil1" d="M0.795 0.499c-0.008,0 -0.014,-0.006 -0.014,-0.014 0,-0.008 0.006,-0.015 0.014,-0.015 0.007,0 0.014,-0.003 0.018,-0.008 0.005,-0.004 0.008,-0.011 0.008,-0.019 0,-0.007 -0.003,-0.014 -0.008,-0.018 -0.004,-0.005 -0.011,-0.008 -0.018,-0.008 -0.008,0 -0.014,-0.007 -0.014,-0.015 0,-0.008 0.006,-0.014 0.014,-0.014 0.016,0 0.029,0.006 0.039,0.016 0.01,0.01 0.016,0.024 0.016,0.039 0,0.016 -0.006,0.03 -0.016,0.04 -0.01,0.01 -0.023,0.016 -0.039,0.016z"/>
    <path class="fil1" d="M0.44 0.47c0.008,0 0.015,0.007 0.015,0.015 0,0.008 -0.007,0.014 -0.015,0.014 -0.015,0 -0.029,-0.006 -0.039,-0.016 -0.01,-0.01 -0.016,-0.024 -0.016,-0.04 0,-0.015 0.006,-0.029 0.016,-0.039 0.01,-0.01 0.024,-0.016 0.039,-0.016 0.008,0 0.015,0.006 0.015,0.014 0,0.008 -0.007,0.015 -0.015,0.015 -0.007,0 -0.013,0.003 -0.018,0.008 -0.005,0.004 -0.008,0.011 -0.008,0.018 0,0.008 0.003,0.015 0.008,0.019 0.005,0.005 0.011,0.008 0.018,0.008z"/>
    <path class="fil1" d="M0.443 0.393c0.002,0.008 -0.003,0.016 -0.011,0.018 -0.008,0.001 -0.016,-0.004 -0.018,-0.012 -0.002,-0.008 -0.004,-0.017 -0.007,-0.026 -0.014,-0.048 -0.03,-0.104 0.02,-0.139 0.002,-0.053 0.024,-0.085 0.056,-0.105 0.03,-0.019 0.069,-0.025 0.103,-0.026l0.008 0c0.051,0.001 0.109,0.015 0.157,0.043 0.041,0.024 0.074,0.058 0.087,0.102l0 0c0.012,0.042 -0.002,0.108 -0.013,0.157l0 0.001c-0.002,0.008 -0.009,0.013 -0.017,0.011 -0.008,-0.001 -0.013,-0.009 -0.012,-0.017l0.001 -0.001c0.009,-0.046 0.023,-0.108 0.013,-0.143l0 0c-0.01,-0.036 -0.039,-0.064 -0.074,-0.085 -0.043,-0.025 -0.096,-0.038 -0.142,-0.039l-0.008 0c-0.029,0.001 -0.062,0.006 -0.088,0.022 -0.024,0.015 -0.041,0.041 -0.041,0.084l0 0.003c0,0.006 -0.003,0.011 -0.008,0.014 -0.039,0.023 -0.025,0.07 -0.014,0.109 0.003,0.011 0.006,0.021 0.008,0.029z"/>
    <path class="fil1" d="M0.502 0.728c-0.007,-0.004 -0.01,-0.013 -0.006,-0.02 0.004,-0.007 0.013,-0.01 0.02,-0.006l0.109 0.06c0.006,0.004 0.009,0.012 0.006,0.019l-0.034 0.078c-0.004,0.007 -0.012,0.011 -0.02,0.007 -0.002,0 -0.003,-0.002 -0.005,-0.003l-0.1 -0.1c-0.006,-0.005 -0.006,-0.015 -0.001,-0.02 0.006,-0.006 0.015,-0.006 0.021,0l0.086 0.085 0.021 -0.047 -0.097 -0.053z"/>
    <path class="fil1" d="M0.72 0.702c0.007,-0.004 0.016,-0.001 0.02,0.006 0.003,0.007 0.001,0.016 -0.006,0.02l-0.097 0.053 0.02 0.047 0.086 -0.085c0.006,-0.006 0.015,-0.006 0.021,0 0.006,0.005 0.006,0.015 0,0.02l-0.101 0.1c-0.001,0.001 -0.003,0.003 -0.005,0.003 -0.007,0.004 -0.016,0 -0.019,-0.007l-0.035 -0.078c-0.003,-0.007 0,-0.015 0.007,-0.019l0.109 -0.06z"/>
   </g>
  </g>
 </g>
</svg>
