<?xml version="1.0" encoding="UTF-8"?>
<!DOCTYPE svg PUBLIC "-//W3C//DTD SVG 1.1//EN" "http://www.w3.org/Graphics/SVG/1.1/DTD/svg11.dtd">
<!-- Creator: CorelDRAW 2018 (64-Bit) -->
<svg xmlns="http://www.w3.org/2000/svg" xml:space="preserve" width="42px" height="32px" version="1.1" style="shape-rendering:geometricPrecision; text-rendering:geometricPrecision; image-rendering:optimizeQuality; fill-rule:evenodd; clip-rule:evenodd"
viewBox="0 0 9.63 7.337"
 xmlns:xlink="http://www.w3.org/1999/xlink">
 <defs>
  <style type="text/css">
   <![CDATA[
    .fil0 {fill:none}
    .fil1 {fill:white;fill-rule:nonzero}
   ]]>
  </style>
 </defs>
 <g id="Layer_x0020_1">
  <metadata id="CorelCorpID_0Corel-Layer"/>
  <g id="_1612301174320">
   <rect class="fil0" width="9.63" height="7.337"/>
   <g>
    <path class="fil1" d="M2.227 3.329c-0.045,-0.044 -0.045,-0.117 -0.001,-0.161 0.045,-0.045 0.117,-0.045 0.162,-0.001l1.697 1.694c0.151,0.138 0.244,0.206 0.338,0.238 0.093,0.031 0.207,0.031 0.392,0.031 0.356,0 0.437,0 0.73,-0.269l1.697 -1.694c0.045,-0.044 0.117,-0.044 0.162,0.001 0.044,0.044 0.044,0.117 -0.001,0.161l-1.703 1.7c-0.36,0.33 -0.456,0.33 -0.885,0.33 -0.207,0 -0.334,0 -0.465,-0.043 -0.13,-0.044 -0.244,-0.126 -0.42,-0.287l-1.703 -1.7z"/>
    <path class="fil1" d="M5.798 4.793c-0.044,-0.045 -0.045,-0.117 0,-0.162 0.044,-0.045 0.117,-0.045 0.161,0l1.444 1.441c0.045,0.044 0.045,0.117 0.001,0.161 -0.045,0.045 -0.117,0.045 -0.162,0.001l-1.444 -1.441z"/>
    <path class="fil1" d="M2.388 6.234c-0.045,0.044 -0.117,0.044 -0.162,-0.001 -0.044,-0.044 -0.044,-0.117 0.001,-0.161l1.435 -1.433c0.044,-0.044 0.117,-0.044 0.161,0.001 0.045,0.045 0.045,0.117 0,0.162l-1.435 1.432z"/>
    <path class="fil1" d="M2.274 2.408l5.082 0c0.231,0 0.442,0.094 0.594,0.246 0.152,0.153 0.247,0.363 0.247,0.594l0 2.905c0,0.231 -0.095,0.441 -0.247,0.593 -0.153,0.153 -0.363,0.247 -0.594,0.247l-5.082 0c-0.231,0 -0.441,-0.094 -0.594,-0.247 -0.152,-0.152 -0.247,-0.362 -0.247,-0.593l0 -2.905c0,-0.231 0.094,-0.441 0.247,-0.594 0.152,-0.152 0.362,-0.246 0.594,-0.246zm5.082 0.229l-5.082 0c-0.168,0 -0.321,0.069 -0.432,0.18 -0.111,0.11 -0.18,0.263 -0.18,0.431l0 2.905c0,0.168 0.069,0.321 0.18,0.432 0.11,0.11 0.264,0.179 0.432,0.179l5.082 0c0.168,0 0.321,-0.069 0.432,-0.179 0.111,-0.111 0.18,-0.264 0.18,-0.432l0 -2.905c0,-0.168 -0.069,-0.321 -0.18,-0.432 -0.111,-0.11 -0.264,-0.179 -0.432,-0.179z"/>
   </g>
  </g>
 </g>
</svg>
