<?xml version="1.0" encoding="UTF-8"?>
<!DOCTYPE svg PUBLIC "-//W3C//DTD SVG 1.1//EN" "http://www.w3.org/Graphics/SVG/1.1/DTD/svg11.dtd">
<!-- Creator: CorelDRAW 2018 (64-Bit) -->
<svg xmlns="http://www.w3.org/2000/svg" xml:space="preserve" width="42px" height="32px" version="1.1" style="shape-rendering:geometricPrecision; text-rendering:geometricPrecision; image-rendering:optimizeQuality; fill-rule:evenodd; clip-rule:evenodd"
viewBox="0 0 58.454 44.536"
 xmlns:xlink="http://www.w3.org/1999/xlink">
 <defs>
  <style type="text/css">
   <![CDATA[
    .fil0 {fill:none}
    .fil1 {fill:#00F4FF;fill-rule:nonzero}
   ]]>
  </style>
 </defs>
 <g id="Layer_x0020_1">
  <metadata id="CorelCorpID_0Corel-Layer"/>
  <g id="_1612301264512">
   <rect class="fil0" width="58.454" height="44.536"/>
   <g>
    <path class="fil1" d="M13.517 20.208c-0.272,-0.27 -0.273,-0.71 -0.003,-0.981 0.27,-0.271 0.71,-0.273 0.981,-0.003l10.299 10.28c0.916,0.84 1.481,1.255 2.052,1.446 0.566,0.19 1.255,0.19 2.381,0.19 2.163,0 2.651,-0.001 4.432,-1.636l10.299 -10.28c0.272,-0.27 0.712,-0.268 0.982,0.003 0.269,0.271 0.268,0.711 -0.003,0.981l-10.337 10.318c-2.185,2.005 -2.771,2.006 -5.373,2.006 -1.257,0 -2.027,-0.001 -2.821,-0.266 -0.788,-0.264 -1.485,-0.76 -2.552,-1.74l-10.337 -10.318z"/>
    <path class="fil1" d="M35.195 29.092c-0.271,-0.27 -0.272,-0.709 -0.002,-0.981 0.27,-0.271 0.709,-0.272 0.981,-0.003l8.763 8.747c0.271,0.27 0.272,0.71 0.003,0.981 -0.27,0.272 -0.71,0.273 -0.982,0.003l-8.763 -8.747z"/>
    <path class="fil1" d="M14.495 37.839c-0.271,0.27 -0.711,0.269 -0.981,-0.003 -0.27,-0.271 -0.269,-0.711 0.003,-0.981l8.71 -8.694c0.271,-0.27 0.711,-0.268 0.981,0.003 0.27,0.271 0.269,0.711 -0.003,0.981l-8.71 8.694z"/>
    <path class="fil1" d="M13.801 14.614l30.851 0c1.404,0 2.68,0.574 3.605,1.498 0.924,0.927 1.498,2.203 1.498,3.605l0 17.629c0,1.402 -0.574,2.678 -1.498,3.602 -0.928,0.927 -2.203,1.501 -3.605,1.501l-30.851 0c-1.402,0 -2.677,-0.574 -3.602,-1.498 -0.926,-0.927 -1.501,-2.203 -1.501,-3.605l0 -17.629c0,-1.404 0.574,-2.68 1.499,-3.605 0.924,-0.924 2.2,-1.498 3.604,-1.498zm30.851 1.392l-30.851 0c-1.02,0 -1.948,0.418 -2.62,1.09 -0.673,0.673 -1.091,1.601 -1.091,2.621l0 17.629c0,1.021 0.418,1.95 1.089,2.623 0.673,0.671 1.602,1.089 2.622,1.089l30.851 0c1.021,0 1.95,-0.418 2.622,-1.09 0.671,-0.672 1.089,-1.601 1.089,-2.622l0 -17.629c0,-1.021 -0.417,-1.95 -1.089,-2.622 -0.674,-0.671 -1.602,-1.089 -2.622,-1.089z"/>
   </g>
  </g>
 </g>
</svg>
