<?xml version="1.0" encoding="UTF-8"?>
<!DOCTYPE svg PUBLIC "-//W3C//DTD SVG 1.1//EN" "http://www.w3.org/Graphics/SVG/1.1/DTD/svg11.dtd">
<!-- Creator: CorelDRAW 2018 (64-Bit) -->
<svg xmlns="http://www.w3.org/2000/svg" xml:space="preserve" width="42px" height="32px" version="1.1" style="shape-rendering:geometricPrecision; text-rendering:geometricPrecision; image-rendering:optimizeQuality; fill-rule:evenodd; clip-rule:evenodd"
viewBox="0 0 5.247 3.998"
 xmlns:xlink="http://www.w3.org/1999/xlink">
 <defs>
  <style type="text/css">
   <![CDATA[
    .fil0 {fill:none}
    .fil1 {fill:gray;fill-rule:nonzero}
   ]]>
  </style>
 </defs>
 <g id="Layer_x0020_1">
  <metadata id="CorelCorpID_0Corel-Layer"/>
  <g id="_1612301276736">
   <rect class="fil0" width="5.247" height="3.998"/>
   <g>
    <path class="fil1" d="M1.213 1.814c-0.024,-0.024 -0.024,-0.064 0,-0.088 0.024,-0.024 0.064,-0.025 0.088,0l0.925 0.922c0.082,0.076 0.133,0.113 0.184,0.13 0.051,0.017 0.113,0.017 0.214,0.017 0.194,0 0.238,0 0.397,-0.147l0.925 -0.922c0.024,-0.025 0.064,-0.024 0.088,0 0.024,0.024 0.024,0.064 0,0.088l-0.928 0.926c-0.196,0.18 -0.249,0.18 -0.482,0.18 -0.113,0 -0.182,0 -0.254,-0.024 -0.07,-0.023 -0.133,-0.068 -0.229,-0.156l-0.928 -0.926z"/>
    <path class="fil1" d="M3.159 2.612c-0.024,-0.025 -0.024,-0.064 0,-0.089 0.024,-0.024 0.064,-0.024 0.088,0l0.787 0.785c0.024,0.025 0.024,0.064 0,0.088 -0.024,0.025 -0.064,0.025 -0.088,0.001l-0.787 -0.785z"/>
    <path class="fil1" d="M1.301 3.397c-0.024,0.024 -0.064,0.024 -0.088,-0.001 -0.024,-0.024 -0.024,-0.063 0,-0.088l0.782 -0.78c0.025,-0.024 0.064,-0.024 0.088,0 0.025,0.025 0.024,0.064 0,0.088l-0.782 0.781z"/>
    <path class="fil1" d="M1.239 1.312l2.769 0c0.126,0 0.241,0.051 0.324,0.134 0.083,0.084 0.134,0.198 0.134,0.324l0 1.582c0,0.126 -0.051,0.241 -0.134,0.324 -0.083,0.083 -0.198,0.135 -0.324,0.135l-2.769 0c-0.126,0 -0.24,-0.052 -0.323,-0.135 -0.084,-0.083 -0.135,-0.198 -0.135,-0.324l0 -1.582c0,-0.126 0.051,-0.241 0.134,-0.324 0.083,-0.083 0.198,-0.134 0.324,-0.134zm2.769 0.125l-2.769 0c-0.092,0 -0.175,0.037 -0.235,0.098 -0.061,0.06 -0.098,0.143 -0.098,0.235l0 1.582c0,0.092 0.037,0.175 0.098,0.236 0.06,0.06 0.143,0.098 0.235,0.098l2.769 0c0.092,0 0.175,-0.038 0.236,-0.098 0.06,-0.061 0.097,-0.144 0.097,-0.236l0 -1.582c0,-0.092 -0.037,-0.175 -0.097,-0.235 -0.061,-0.061 -0.144,-0.098 -0.236,-0.098z"/>
   </g>
  </g>
 </g>
</svg>
