<?xml version="1.0" encoding="UTF-8"?>
<!DOCTYPE svg PUBLIC "-//W3C//DTD SVG 1.1//EN" "http://www.w3.org/Graphics/SVG/1.1/DTD/svg11.dtd">
<!-- Creator: CorelDRAW 2018 (64-Bit) -->
<svg xmlns="http://www.w3.org/2000/svg" xml:space="preserve" width="42px" height="32px" version="1.1" style="shape-rendering:geometricPrecision; text-rendering:geometricPrecision; image-rendering:optimizeQuality; fill-rule:evenodd; clip-rule:evenodd"
viewBox="0 0 9.196 7.006"
 xmlns:xlink="http://www.w3.org/1999/xlink">
 <defs>
  <style type="text/css">
   <![CDATA[
    .fil0 {fill:none}
    .fil1 {fill:gray;fill-rule:nonzero}
    .fil2 {fill:gray;fill-rule:nonzero}
   ]]>
  </style>
 </defs>
 <g id="Layer_x0020_1">
  <metadata id="CorelCorpID_0Corel-Layer"/>
  <g id="_1576619053424">
   <rect class="fil0" width="9.196" height="7.006"/>
   <g>
    <path class="fil1" d="M6.691 3.263c0.338,0 0.645,0.137 0.867,0.359 0.221,0.222 0.359,0.528 0.359,0.866 0,0.339 -0.138,0.645 -0.359,0.867 -0.222,0.222 -0.529,0.359 -0.867,0.359 -0.338,0 -0.644,-0.137 -0.866,-0.359l-0.001 -0.001c-0.222,-0.222 -0.359,-0.528 -0.359,-0.866 0,-0.338 0.138,-0.644 0.359,-0.866l0.007 -0.006c0.221,-0.218 0.525,-0.353 0.86,-0.353zm0.712 0.514c-0.182,-0.182 -0.434,-0.295 -0.712,-0.295 -0.275,0 -0.525,0.11 -0.707,0.289l-0.005 0.006c-0.182,0.182 -0.295,0.433 -0.295,0.711 0,0.279 0.113,0.53 0.295,0.712 0.182,0.183 0.434,0.295 0.712,0.295 0.278,0 0.53,-0.113 0.712,-0.295 0.182,-0.182 0.295,-0.433 0.295,-0.712 0,-0.278 -0.113,-0.529 -0.295,-0.711z"/>
    <path class="fil1" d="M7.403 5.355c-0.043,-0.043 -0.043,-0.112 0,-0.155 0.043,-0.042 0.112,-0.042 0.155,0l0.888 0.888c0.043,0.043 0.043,0.112 0,0.155 -0.043,0.043 -0.112,0.043 -0.155,0l-0.888 -0.888z"/>
    <path class="fil1" d="M5.68 5.654c0.06,0 0.109,0.049 0.109,0.109 0,0.061 -0.049,0.11 -0.109,0.11l-4.23 0c-0.08,0 -0.154,-0.033 -0.207,-0.087 -0.054,-0.053 -0.087,-0.126 -0.087,-0.207l0 -3.862c0,-0.08 0.033,-0.154 0.086,-0.207 0.053,-0.054 0.127,-0.087 0.208,-0.087l6.151 0c0.08,0 0.154,0.033 0.207,0.087 0.054,0.053 0.087,0.127 0.087,0.207l0 1.403c0,0.06 -0.049,0.109 -0.109,0.109 -0.061,0 -0.11,-0.049 -0.11,-0.109l0 -1.403c0,-0.02 -0.009,-0.039 -0.022,-0.053 -0.014,-0.013 -0.033,-0.022 -0.053,-0.022l-6.151 0c-0.02,0 -0.039,0.009 -0.053,0.022 -0.014,0.014 -0.022,0.033 -0.022,0.053l0 3.862c0,0.02 0.008,0.039 0.022,0.053 0.014,0.013 0.033,0.022 0.053,0.022l4.23 0z"/>
    <path class="fil1" d="M2.165 2.501c0,-0.06 0.049,-0.109 0.11,-0.109 0.06,0 0.109,0.049 0.109,0.109l0 2.294c0,0.06 -0.049,0.109 -0.109,0.109 -0.061,0 -0.11,-0.049 -0.11,-0.109l0 -2.294z"/>
    <path class="fil1" d="M2.954 3.856c0,-0.06 0.05,-0.109 0.11,-0.109 0.06,0 0.109,0.049 0.109,0.109l0 0.939c0,0.06 -0.049,0.109 -0.109,0.109 -0.06,0 -0.11,-0.049 -0.11,-0.109l0 -0.939z"/>
    <path class="fil1" d="M3.744 2.917c0,-0.06 0.049,-0.109 0.109,-0.109 0.061,0 0.11,0.049 0.11,0.109l0 1.878c0,0.06 -0.049,0.109 -0.11,0.109 -0.06,0 -0.109,-0.049 -0.109,-0.109l0 -1.878z"/>
    <path class="fil1" d="M4.533 3.648c0,-0.061 0.049,-0.11 0.109,-0.11 0.061,0 0.11,0.049 0.11,0.11l0 1.147c0,0.06 -0.049,0.109 -0.11,0.109 -0.06,0 -0.109,-0.049 -0.109,-0.109l0 -1.147z"/>
    <path class="fil2" d="M3.102 6.678c-0.061,0 -0.11,-0.049 -0.11,-0.109 0,-0.061 0.049,-0.11 0.11,-0.11l2.847 0c0.061,0 0.11,0.049 0.11,0.11 0,0.06 -0.049,0.109 -0.11,0.109l-2.847 0z"/>
    <path class="fil2" d="M3.7 6.468c0,0.06 -0.049,0.109 -0.11,0.109 -0.06,0 -0.109,-0.049 -0.109,-0.109l0 -0.705c0,-0.06 0.049,-0.109 0.109,-0.109 0.061,0 0.11,0.049 0.11,0.109l0 0.705z"/>
    <path class="fil2" d="M5.57 6.468c0,0.06 -0.049,0.109 -0.109,0.109 -0.061,0 -0.11,-0.049 -0.11,-0.109l0 -0.705c0,-0.06 0.049,-0.109 0.11,-0.109 0.06,0 0.109,0.049 0.109,0.109l0 0.705z"/>
   </g>
  </g>
 </g>
</svg>
