<?xml version="1.0" encoding="UTF-8"?>
<!DOCTYPE svg PUBLIC "-//W3C//DTD SVG 1.1//EN" "http://www.w3.org/Graphics/SVG/1.1/DTD/svg11.dtd">
<!-- Creator: CorelDRAW 2018 (64-Bit) -->
<svg xmlns="http://www.w3.org/2000/svg" xml:space="preserve" width="42px" height="32px" version="1.1" style="shape-rendering:geometricPrecision; text-rendering:geometricPrecision; image-rendering:optimizeQuality; fill-rule:evenodd; clip-rule:evenodd"
viewBox="0 0 3.417 2.604"
 xmlns:xlink="http://www.w3.org/1999/xlink">
 <defs>
  <style type="text/css">
   <![CDATA[
    .fil0 {fill:none}
    .fil1 {fill:#00F4FF;fill-rule:nonzero}
   ]]>
  </style>
 </defs>
 <g id="Layer_x0020_1">
  <metadata id="CorelCorpID_0Corel-Layer"/>
  <g id="_1576619055024">
   <rect class="fil0" width="3.417" height="2.604"/>
   <g>
    <path class="fil1" d="M2.486 1.213c0.126,0 0.24,0.051 0.323,0.133 0.082,0.082 0.133,0.196 0.133,0.322 0,0.126 -0.051,0.239 -0.133,0.322 -0.083,0.082 -0.197,0.133 -0.323,0.133 -0.125,0 -0.239,-0.051 -0.321,-0.133l-0.001 0c-0.082,-0.083 -0.133,-0.197 -0.133,-0.322 0,-0.126 0.051,-0.24 0.133,-0.322l0.003 -0.002c0.082,-0.081 0.195,-0.131 0.319,-0.131zm0.265 0.19c-0.068,-0.067 -0.161,-0.109 -0.265,-0.109 -0.102,0 -0.195,0.041 -0.262,0.107l-0.002 0.002c-0.068,0.068 -0.11,0.162 -0.11,0.265 0,0.103 0.042,0.197 0.11,0.264 0.068,0.068 0.161,0.11 0.264,0.11 0.104,0 0.197,-0.042 0.265,-0.11 0.068,-0.067 0.11,-0.161 0.11,-0.264 0,-0.103 -0.042,-0.197 -0.11,-0.265z"/>
    <path class="fil1" d="M2.751 1.99c-0.016,-0.016 -0.016,-0.042 0,-0.058 0.016,-0.015 0.042,-0.015 0.058,0l0.33 0.331c0.015,0.015 0.015,0.041 0,0.057 -0.016,0.016 -0.042,0.016 -0.058,0l-0.33 -0.33z"/>
    <path class="fil1" d="M2.111 2.101c0.022,0 0.04,0.018 0.04,0.041 0,0.022 -0.018,0.04 -0.04,0.04l-1.572 0c-0.03,0 -0.057,-0.012 -0.077,-0.032 -0.02,-0.02 -0.032,-0.047 -0.032,-0.077l0 -1.435c0,-0.03 0.012,-0.057 0.032,-0.077 0.019,-0.02 0.047,-0.032 0.077,-0.032l2.285 0c0.03,0 0.058,0.012 0.078,0.032 0.02,0.02 0.032,0.047 0.032,0.077l0 0.521c0,0.023 -0.018,0.041 -0.041,0.041 -0.022,0 -0.04,-0.018 -0.04,-0.041l0 -0.521c0,-0.007 -0.004,-0.014 -0.009,-0.019 -0.005,-0.006 -0.012,-0.009 -0.02,-0.009l-2.285 0c-0.008,0 -0.015,0.003 -0.02,0.009 -0.005,0.004 -0.008,0.011 -0.008,0.019l0 1.435c0,0.008 0.003,0.015 0.008,0.02 0.005,0.005 0.012,0.008 0.02,0.008l1.572 0z"/>
    <path class="fil1" d="M0.805 0.929c0,-0.022 0.018,-0.04 0.04,-0.04 0.023,0 0.041,0.018 0.041,0.04l0 0.853c0,0.022 -0.018,0.041 -0.041,0.041 -0.022,0 -0.04,-0.019 -0.04,-0.041l0 -0.853z"/>
    <path class="fil1" d="M1.098 1.433c0,-0.023 0.018,-0.041 0.041,-0.041 0.022,0 0.04,0.018 0.04,0.041l0 0.349c0,0.022 -0.018,0.041 -0.04,0.041 -0.023,0 -0.041,-0.019 -0.041,-0.041l0 -0.349z"/>
    <path class="fil1" d="M1.391 1.084c0,-0.022 0.018,-0.041 0.041,-0.041 0.022,0 0.041,0.019 0.041,0.041l0 0.698c0,0.022 -0.019,0.041 -0.041,0.041 -0.023,0 -0.041,-0.019 -0.041,-0.041l0 -0.698z"/>
    <path class="fil1" d="M1.684 1.356c0,-0.023 0.019,-0.041 0.041,-0.041 0.023,0 0.041,0.018 0.041,0.041l0 0.426c0,0.022 -0.018,0.041 -0.041,0.041 -0.022,0 -0.041,-0.019 -0.041,-0.041l0 -0.426z"/>
    <path class="fil1" d="M1.153 2.482c-0.023,0 -0.041,-0.019 -0.041,-0.041 0,-0.023 0.018,-0.041 0.041,-0.041l1.058 0c0.022,0 0.04,0.018 0.04,0.041 0,0.022 -0.018,0.041 -0.04,0.041l-1.058 0z"/>
    <path class="fil1" d="M1.375 2.404c0,0.022 -0.018,0.04 -0.041,0.04 -0.022,0 -0.041,-0.018 -0.041,-0.04l0 -0.262c0,-0.023 0.019,-0.041 0.041,-0.041 0.023,0 0.041,0.018 0.041,0.041l0 0.262z"/>
    <path class="fil1" d="M2.07 2.404c0,0.022 -0.018,0.04 -0.041,0.04 -0.022,0 -0.04,-0.018 -0.04,-0.04l0 -0.262c0,-0.023 0.018,-0.041 0.04,-0.041 0.023,0 0.041,0.018 0.041,0.041l0 0.262z"/>
   </g>
  </g>
 </g>
</svg>
