<?xml version="1.0" encoding="UTF-8"?>
<!DOCTYPE svg PUBLIC "-//W3C//DTD SVG 1.1//EN" "http://www.w3.org/Graphics/SVG/1.1/DTD/svg11.dtd">
<!-- Creator: CorelDRAW 2018 (64-Bit) -->
<svg xmlns="http://www.w3.org/2000/svg" xml:space="preserve" width="42px" height="32px" version="1.1" style="shape-rendering:geometricPrecision; text-rendering:geometricPrecision; image-rendering:optimizeQuality; fill-rule:evenodd; clip-rule:evenodd"
viewBox="0 0 4.983 3.797"
 xmlns:xlink="http://www.w3.org/1999/xlink">
 <defs>
  <style type="text/css">
   <![CDATA[
    .fil0 {fill:none}
    .fil1 {fill:white;fill-rule:nonzero}
   ]]>
  </style>
 </defs>
 <g id="Layer_x0020_1">
  <metadata id="CorelCorpID_0Corel-Layer"/>
  <g id="_1576619044048">
   <rect class="fil0" width="4.983" height="3.797"/>
   <g>
    <path class="fil1" d="M3.626 1.768c0.183,0 0.349,0.074 0.469,0.195 0.12,0.12 0.195,0.286 0.195,0.469 0,0.183 -0.075,0.349 -0.195,0.469 -0.12,0.121 -0.286,0.195 -0.469,0.195 -0.183,0 -0.349,-0.074 -0.47,-0.194l0 -0.001c-0.12,-0.12 -0.195,-0.286 -0.195,-0.469 0,-0.183 0.075,-0.349 0.195,-0.469l0.004 -0.004c0.119,-0.118 0.284,-0.191 0.466,-0.191zm0.385 0.278c-0.098,-0.098 -0.235,-0.159 -0.385,-0.159 -0.15,0 -0.285,0.06 -0.383,0.156l-0.003 0.003c-0.099,0.099 -0.16,0.235 -0.16,0.386 0,0.151 0.061,0.287 0.16,0.386 0.098,0.099 0.235,0.16 0.386,0.16 0.15,0 0.287,-0.061 0.385,-0.16 0.099,-0.099 0.16,-0.235 0.16,-0.386 0,-0.151 -0.061,-0.287 -0.16,-0.386z"/>
    <path class="fil1" d="M4.011 2.902c-0.023,-0.023 -0.023,-0.061 0,-0.084 0.023,-0.023 0.061,-0.023 0.084,0l0.481 0.481c0.024,0.023 0.024,0.061 0,0.084 -0.023,0.023 -0.06,0.023 -0.083,0l-0.482 -0.481z"/>
    <path class="fil1" d="M3.078 3.064c0.032,0 0.059,0.026 0.059,0.059 0,0.033 -0.027,0.059 -0.059,0.059l-2.292 0c-0.044,0 -0.084,-0.018 -0.113,-0.047 -0.029,-0.028 -0.047,-0.068 -0.047,-0.112l0 -2.092c0,-0.044 0.018,-0.084 0.047,-0.113 0.029,-0.029 0.069,-0.047 0.113,-0.047l3.332 0c0.044,0 0.084,0.018 0.113,0.047 0.029,0.029 0.047,0.069 0.047,0.113l0 0.76c0,0.032 -0.027,0.059 -0.059,0.059 -0.033,0 -0.06,-0.027 -0.06,-0.059l0 -0.76c0,-0.011 -0.004,-0.022 -0.012,-0.029 -0.007,-0.008 -0.017,-0.012 -0.029,-0.012l-3.332 0c-0.011,0 -0.022,0.004 -0.029,0.012 -0.008,0.007 -0.012,0.017 -0.012,0.029l0 2.092c0,0.011 0.005,0.021 0.012,0.029 0.007,0.007 0.018,0.012 0.029,0.012l2.292 0z"/>
    <path class="fil1" d="M1.173 1.355c0,-0.032 0.027,-0.059 0.06,-0.059 0.032,0 0.059,0.027 0.059,0.059l0 1.243c0,0.033 -0.027,0.059 -0.059,0.059 -0.033,0 -0.06,-0.026 -0.06,-0.059l0 -1.243z"/>
    <path class="fil1" d="M1.601 2.089c0,-0.032 0.026,-0.059 0.059,-0.059 0.033,0 0.06,0.027 0.06,0.059l0 0.509c0,0.033 -0.027,0.059 -0.06,0.059 -0.033,0 -0.059,-0.026 -0.059,-0.059l0 -0.509z"/>
    <path class="fil1" d="M2.029 1.581c0,-0.033 0.026,-0.06 0.059,-0.06 0.033,0 0.059,0.027 0.059,0.06l0 1.017c0,0.033 -0.026,0.059 -0.059,0.059 -0.033,0 -0.059,-0.026 -0.059,-0.059l0 -1.017z"/>
    <path class="fil1" d="M2.456 1.977c0,-0.033 0.027,-0.06 0.06,-0.06 0.032,0 0.059,0.027 0.059,0.06l0 0.621c0,0.033 -0.027,0.059 -0.059,0.059 -0.033,0 -0.06,-0.026 -0.06,-0.059l0 -0.621z"/>
    <path class="fil1" d="M1.681 3.619c-0.033,0 -0.06,-0.027 -0.06,-0.06 0,-0.033 0.027,-0.059 0.06,-0.059l1.543 0c0.032,0 0.059,0.026 0.059,0.059 0,0.033 -0.027,0.06 -0.059,0.06l-1.543 0z"/>
    <path class="fil1" d="M2.005 3.505c0,0.032 -0.027,0.059 -0.06,0.059 -0.032,0 -0.059,-0.027 -0.059,-0.059l0 -0.382c0,-0.033 0.027,-0.059 0.059,-0.059 0.033,0 0.06,0.026 0.06,0.059l0 0.382z"/>
    <path class="fil1" d="M3.018 3.505c0,0.032 -0.026,0.059 -0.059,0.059 -0.033,0 -0.059,-0.027 -0.059,-0.059l0 -0.382c0,-0.033 0.026,-0.059 0.059,-0.059 0.033,0 0.059,0.026 0.059,0.059l0 0.382z"/>
   </g>
  </g>
 </g>
</svg>
