<?xml version="1.0" encoding="UTF-8"?>
<!DOCTYPE svg PUBLIC "-//W3C//DTD SVG 1.1//EN" "http://www.w3.org/Graphics/SVG/1.1/DTD/svg11.dtd">
<!-- Creator: CorelDRAW 2018 (64-Bit) -->
<svg xmlns="http://www.w3.org/2000/svg" xml:space="preserve" width="42px" height="32px" version="1.1" style="shape-rendering:geometricPrecision; text-rendering:geometricPrecision; image-rendering:optimizeQuality; fill-rule:evenodd; clip-rule:evenodd"
viewBox="0 0 1.008 0.768"
 xmlns:xlink="http://www.w3.org/1999/xlink">
 <defs>
  <style type="text/css">
   <![CDATA[
    .fil0 {fill:none}
    .fil1 {fill:gray;fill-rule:nonzero}
   ]]>
  </style>
 </defs>
 <g id="Layer_x0020_1">
  <metadata id="CorelCorpID_0Corel-Layer"/>
  <g id="_2814718619312">
   <rect class="fil0" width="1.008" height="0.768"/>
   <g>
    <path class="fil1" d="M0.278 0.16c0.006,0 0.012,0.006 0.012,0.012 0,0.007 -0.006,0.012 -0.012,0.012l-0.098 0c-0.001,0 -0.002,0.001 -0.002,0.001 -0.001,0.001 -0.001,0.002 -0.001,0.003l0 0.473c0,0.001 0,0.002 0.001,0.003 0,0 0.001,0.001 0.002,0.001l0.288 0c0.007,0 0.012,0.005 0.012,0.012 0,0.006 -0.005,0.012 -0.012,0.012l-0.288 0c-0.007,0 -0.014,-0.003 -0.019,-0.008 -0.005,-0.006 -0.008,-0.012 -0.008,-0.02l0 -0.473c0,-0.008 0.003,-0.015 0.008,-0.02 0.005,-0.005 0.012,-0.008 0.019,-0.008l0.098 0zm0.452 0.124c0,0.006 -0.006,0.012 -0.012,0.012 -0.007,0 -0.012,-0.006 -0.012,-0.012l0 -0.096c0,-0.001 -0.001,-0.002 -0.001,-0.003 -0.001,0 -0.002,-0.001 -0.003,-0.001l-0.065 0c-0.007,0 -0.012,-0.005 -0.012,-0.012 0,-0.006 0.005,-0.012 0.012,-0.012l0.065 0c0.008,0 0.015,0.003 0.02,0.008 0.005,0.005 0.008,0.012 0.008,0.02l0 0.096z"/>
    <path class="fil1" d="M0.566 0.16c0.006,0 0.012,0.006 0.012,0.012 0,0.007 -0.006,0.012 -0.012,0.012l-0.049 0c-0.007,0 -0.012,-0.005 -0.012,-0.012 0,-0.006 0.005,-0.012 0.012,-0.012l0.049 0z"/>
    <path class="fil1" d="M0.422 0.16c0.006,0 0.012,0.006 0.012,0.012 0,0.007 -0.006,0.012 -0.012,0.012l-0.048 0c-0.007,0 -0.012,-0.005 -0.012,-0.012 0,-0.006 0.005,-0.012 0.012,-0.012l0.048 0z"/>
    <path class="fil1" d="M0.585 0.132c-0.002,0 -0.004,0.001 -0.005,0.002 -0.001,0.002 -0.002,0.004 -0.002,0.006l0 0.065c0,0.002 0.001,0.004 0.002,0.005 0.001,0.002 0.003,0.003 0.005,0.003 0.003,0 0.004,-0.001 0.006,-0.003 0.001,-0.001 0.002,-0.003 0.002,-0.005l0 -0.065c0,-0.002 -0.001,-0.004 -0.002,-0.006 -0.002,-0.001 -0.003,-0.002 -0.006,-0.002zm0 -0.024c0.009,0 0.017,0.004 0.023,0.009l0 0c0.006,0.006 0.009,0.014 0.009,0.023l0 0.065c0,0.009 -0.003,0.016 -0.009,0.022l0 0c-0.006,0.006 -0.014,0.01 -0.023,0.01 -0.008,0 -0.016,-0.004 -0.022,-0.01l0 0c-0.006,-0.006 -0.009,-0.013 -0.009,-0.022l0 -0.065c0,-0.009 0.003,-0.017 0.009,-0.023l0 0c0.006,-0.005 0.014,-0.009 0.022,-0.009z"/>
    <path class="fil1" d="M0.441 0.132c-0.002,0 -0.004,0.001 -0.005,0.002 -0.002,0.002 -0.002,0.004 -0.002,0.006l0 0.065c0,0.002 0,0.004 0.002,0.005 0.001,0.002 0.003,0.003 0.005,0.003 0.002,0 0.004,-0.001 0.006,-0.003 0.001,-0.001 0.002,-0.003 0.002,-0.005l0 -0.065c0,-0.002 -0.001,-0.004 -0.002,-0.006 -0.002,-0.001 -0.004,-0.002 -0.006,-0.002zm0 -0.024c0.009,0 0.017,0.004 0.023,0.009l0 0c0.005,0.006 0.009,0.014 0.009,0.023l0 0.065c0,0.009 -0.004,0.016 -0.009,0.022l0 0c-0.006,0.006 -0.014,0.01 -0.023,0.01 -0.008,0 -0.016,-0.004 -0.022,-0.01l0 0c-0.006,-0.006 -0.009,-0.013 -0.009,-0.022l0 -0.065c0,-0.009 0.003,-0.017 0.009,-0.023l0 0c0.006,-0.005 0.014,-0.009 0.022,-0.009z"/>
    <path class="fil1" d="M0.297 0.132c-0.002,0 -0.004,0.001 -0.005,0.002 -0.002,0.002 -0.002,0.004 -0.002,0.006l0 0.065c0,0.002 0,0.004 0.002,0.005 0.001,0.002 0.003,0.003 0.005,0.003 0.002,0 0.004,-0.001 0.006,-0.003 0.001,-0.001 0.002,-0.003 0.002,-0.005l0 -0.065c0,-0.002 -0.001,-0.004 -0.002,-0.006 -0.002,-0.001 -0.004,-0.002 -0.006,-0.002zm0 -0.024c0.009,0 0.017,0.004 0.022,0.009l0.001 0c0.005,0.006 0.009,0.014 0.009,0.023l0 0.065c0,0.009 -0.004,0.016 -0.009,0.022l0 0c-0.006,0.006 -0.014,0.01 -0.023,0.01 -0.008,0 -0.016,-0.004 -0.022,-0.01l0 0c-0.006,-0.006 -0.009,-0.013 -0.009,-0.022l0 -0.065c0,-0.009 0.003,-0.017 0.009,-0.023l0 0c0.006,-0.005 0.014,-0.009 0.022,-0.009z"/>
    <path class="fil1" d="M0.263 0.33l0.048 0c0.005,0 0.01,0.002 0.013,0.006 0.004,0.003 0.006,0.008 0.006,0.013l0 0.048c0,0.005 -0.002,0.01 -0.006,0.013 -0.003,0.003 -0.008,0.005 -0.013,0.005l-0.048 0c-0.005,0 -0.01,-0.002 -0.013,-0.005 -0.004,-0.003 -0.006,-0.008 -0.006,-0.013l0 -0.048c0,-0.005 0.002,-0.01 0.006,-0.013 0.003,-0.004 0.008,-0.006 0.013,-0.006zm0.043 0.024l-0.038 0 0 0.037 0.038 0 0 -0.037z"/>
    <path class="fil1" d="M0.417 0.33l0.048 0c0.005,0 0.01,0.002 0.013,0.006 0.004,0.003 0.006,0.008 0.006,0.013l0 0.048c0,0.005 -0.002,0.01 -0.006,0.013 -0.003,0.003 -0.008,0.005 -0.013,0.005l-0.048 0c-0.005,0 -0.01,-0.002 -0.013,-0.005 -0.003,-0.003 -0.006,-0.008 -0.006,-0.013l0 -0.048c0,-0.005 0.003,-0.01 0.006,-0.013 0.003,-0.004 0.008,-0.006 0.013,-0.006zm0.043 0.024l-0.038 0 0 0.037 0.038 0 0 -0.037z"/>
    <path class="fil1" d="M0.263 0.487l0.048 0c0.005,0 0.01,0.002 0.013,0.006 0.004,0.003 0.006,0.008 0.006,0.013l0 0.048c0,0.005 -0.002,0.01 -0.006,0.013 -0.003,0.004 -0.008,0.006 -0.013,0.006l-0.048 0c-0.005,0 -0.01,-0.002 -0.013,-0.006 -0.004,-0.003 -0.006,-0.008 -0.006,-0.013l0 -0.048c0,-0.005 0.002,-0.01 0.006,-0.013 0.003,-0.004 0.008,-0.006 0.013,-0.006zm0.043 0.024l-0.038 0 0 0.038 0.038 0 0 -0.038z"/>
    <path class="fil1" d="M0.677 0.31l0.07 0.132 0.146 0.026c0.007,0.001 0.011,0.007 0.01,0.013 0,0.003 -0.002,0.006 -0.003,0.007l-0.103 0.107 0.02 0.147c0.001,0.007 -0.003,0.013 -0.01,0.014 -0.002,0 -0.005,0 -0.007,-0.001l-0.134 -0.065 -0.134 0.065c-0.005,0.003 -0.013,0 -0.016,-0.006 -0.001,-0.002 -0.001,-0.005 -0.001,-0.007l0.021 -0.147 -0.103 -0.107c-0.005,-0.005 -0.005,-0.013 0,-0.017 0.002,-0.002 0.004,-0.003 0.006,-0.003l0.147 -0.026 0.07 -0.132c0.003,-0.006 0.01,-0.008 0.016,-0.005 0.002,0.002 0.004,0.003 0.005,0.005zm0.052 0.148l-0.063 -0.117 -0.061 0.116c-0.002,0.004 -0.005,0.007 -0.009,0.007l-0.131 0.023 0.092 0.095c0.003,0.003 0.004,0.007 0.003,0.01l-0.018 0.131 0.119 -0.057c0.003,-0.002 0.007,-0.002 0.011,0l0.118 0.057 -0.018 -0.131c0,-0.003 0.001,-0.007 0.003,-0.009l0.092 -0.096 -0.13 -0.023c-0.003,0 -0.007,-0.003 -0.008,-0.006z"/>
   </g>
  </g>
 </g>
</svg>
