<?xml version="1.0" encoding="UTF-8"?>
<!DOCTYPE svg PUBLIC "-//W3C//DTD SVG 1.1//EN" "http://www.w3.org/Graphics/SVG/1.1/DTD/svg11.dtd">
<!-- Creator: CorelDRAW 2018 (64-Bit) -->
<svg xmlns="http://www.w3.org/2000/svg" xml:space="preserve" width="42px" height="32px" version="1.1" style="shape-rendering:geometricPrecision; text-rendering:geometricPrecision; image-rendering:optimizeQuality; fill-rule:evenodd; clip-rule:evenodd"
viewBox="0 0 1.11 0.846"
 xmlns:xlink="http://www.w3.org/1999/xlink">
 <defs>
  <style type="text/css">
   <![CDATA[
    .fil0 {fill:none}
    .fil1 {fill:white;fill-rule:nonzero}
   ]]>
  </style>
 </defs>
 <g id="Layer_x0020_1">
  <metadata id="CorelCorpID_0Corel-Layer"/>
  <g id="_2815774298096">
   <rect class="fil0" width="1.11" height="0.846"/>
   <g>
    <path class="fil1" d="M0.306 0.176c0.007,0 0.013,0.006 0.013,0.014 0,0.007 -0.006,0.013 -0.013,0.013l-0.107 0c-0.002,0 -0.003,0 -0.003,0.001 -0.001,0.001 -0.002,0.002 -0.002,0.003l0 0.521c0,0.001 0.001,0.002 0.002,0.003 0,0 0.001,0.001 0.003,0.001l0.317 0c0.007,0 0.013,0.006 0.013,0.013 0,0.007 -0.006,0.013 -0.013,0.013l-0.317 0c-0.009,0 -0.016,-0.003 -0.022,-0.009 -0.006,-0.005 -0.009,-0.013 -0.009,-0.021l0 -0.521c0,-0.008 0.003,-0.016 0.009,-0.022 0.006,-0.005 0.013,-0.009 0.022,-0.009l0.107 0zm0.498 0.136c0,0.008 -0.006,0.013 -0.014,0.013 -0.007,0 -0.013,-0.005 -0.013,-0.013l0 -0.105c0,-0.001 0,-0.002 -0.001,-0.003 -0.001,-0.001 -0.002,-0.001 -0.003,-0.001l-0.072 0c-0.007,0 -0.013,-0.006 -0.013,-0.013 0,-0.008 0.006,-0.014 0.013,-0.014l0.072 0c0.009,0 0.016,0.004 0.022,0.009 0.005,0.006 0.009,0.014 0.009,0.022l0 0.105z"/>
    <path class="fil1" d="M0.623 0.176c0.007,0 0.013,0.006 0.013,0.014 0,0.007 -0.006,0.013 -0.013,0.013l-0.054 0c-0.007,0 -0.013,-0.006 -0.013,-0.013 0,-0.008 0.006,-0.014 0.013,-0.014l0.054 0z"/>
    <path class="fil1" d="M0.464 0.176c0.008,0 0.013,0.006 0.013,0.014 0,0.007 -0.005,0.013 -0.013,0.013l-0.052 0c-0.008,0 -0.014,-0.006 -0.014,-0.013 0,-0.008 0.006,-0.014 0.014,-0.014l0.052 0z"/>
    <path class="fil1" d="M0.645 0.145c-0.003,0 -0.005,0.001 -0.006,0.003 -0.002,0.001 -0.003,0.003 -0.003,0.006l0 0.072c0,0.002 0.001,0.004 0.003,0.006 0.001,0.001 0.003,0.002 0.006,0.002 0.002,0 0.004,-0.001 0.006,-0.002 0.001,-0.002 0.002,-0.004 0.002,-0.006l0 -0.072c0,-0.003 -0.001,-0.005 -0.002,-0.006 -0.002,-0.002 -0.004,-0.003 -0.006,-0.003zm0 -0.026c0.009,0 0.018,0.004 0.024,0.01l0 0c0.007,0.007 0.011,0.015 0.011,0.025l0 0.072c0,0.009 -0.004,0.018 -0.011,0.024l0 0c-0.006,0.007 -0.015,0.01 -0.024,0.01 -0.01,0 -0.019,-0.003 -0.025,-0.01l0 0c-0.006,-0.006 -0.01,-0.015 -0.01,-0.024l0 -0.072c0,-0.01 0.004,-0.018 0.01,-0.025l0 0c0.006,-0.006 0.015,-0.01 0.025,-0.01z"/>
    <path class="fil1" d="M0.486 0.145c-0.002,0 -0.005,0.001 -0.006,0.003 -0.002,0.001 -0.003,0.003 -0.003,0.006l0 0.072c0,0.002 0.001,0.004 0.003,0.006 0.001,0.001 0.004,0.002 0.006,0.002 0.002,0 0.004,-0.001 0.006,-0.002 0.001,-0.002 0.002,-0.004 0.002,-0.006l0 -0.072c0,-0.003 -0.001,-0.005 -0.002,-0.006 -0.002,-0.002 -0.004,-0.003 -0.006,-0.003zm0 -0.026c0.009,0 0.018,0.004 0.024,0.01l0.001 0c0.006,0.007 0.01,0.015 0.01,0.025l0 0.072c0,0.009 -0.004,0.018 -0.01,0.024l-0.001 0c-0.006,0.007 -0.015,0.01 -0.024,0.01 -0.01,0 -0.018,-0.003 -0.025,-0.01l0 0c-0.006,-0.006 -0.01,-0.015 -0.01,-0.024l0 -0.072c0,-0.01 0.004,-0.018 0.01,-0.025l0 0c0.007,-0.006 0.015,-0.01 0.025,-0.01z"/>
    <path class="fil1" d="M0.327 0.145c-0.002,0 -0.004,0.001 -0.006,0.003 -0.001,0.001 -0.002,0.003 -0.002,0.006l0 0.072c0,0.002 0.001,0.004 0.002,0.006 0.002,0.001 0.004,0.002 0.006,0.002 0.003,0 0.005,-0.001 0.006,-0.002 0.002,-0.002 0.003,-0.004 0.003,-0.006l0 -0.072c0,-0.003 -0.001,-0.005 -0.003,-0.006 -0.001,-0.002 -0.003,-0.003 -0.006,-0.003zm0 -0.026c0.01,0 0.019,0.004 0.025,0.01l0 0c0.006,0.007 0.01,0.015 0.01,0.025l0 0.072c0,0.009 -0.004,0.018 -0.01,0.024l0 0c-0.006,0.007 -0.015,0.01 -0.025,0.01 -0.009,0 -0.018,-0.003 -0.024,-0.01l0 0c-0.007,-0.006 -0.011,-0.015 -0.011,-0.024l0 -0.072c0,-0.01 0.004,-0.018 0.011,-0.025l0 0c0.006,-0.006 0.015,-0.01 0.024,-0.01z"/>
    <path class="fil1" d="M0.29 0.363l0.053 0c0.005,0 0.01,0.003 0.014,0.006 0.004,0.004 0.006,0.009 0.006,0.015l0 0.053c0,0.006 -0.002,0.011 -0.006,0.015 -0.004,0.003 -0.009,0.006 -0.014,0.006l-0.053 0c-0.006,0 -0.011,-0.003 -0.015,-0.006 -0.004,-0.004 -0.006,-0.009 -0.006,-0.015l0 -0.053c0,-0.006 0.002,-0.011 0.006,-0.015 0.004,-0.003 0.009,-0.006 0.015,-0.006zm0.047 0.027l-0.041 0 0 0.041 0.041 0 0 -0.041z"/>
    <path class="fil1" d="M0.459 0.363l0.053 0c0.006,0 0.011,0.003 0.015,0.006 0.004,0.004 0.006,0.009 0.006,0.015l0 0.053c0,0.006 -0.002,0.011 -0.006,0.015 -0.004,0.003 -0.009,0.006 -0.015,0.006l-0.053 0c-0.005,0 -0.01,-0.003 -0.014,-0.006 -0.004,-0.004 -0.006,-0.009 -0.006,-0.015l0 -0.053c0,-0.006 0.002,-0.011 0.006,-0.015 0.004,-0.003 0.009,-0.006 0.014,-0.006zm0.048 0.027l-0.042 0 0 0.041 0.042 0 0 -0.041z"/>
    <path class="fil1" d="M0.29 0.537l0.053 0c0.005,0 0.01,0.002 0.014,0.006 0.004,0.003 0.006,0.008 0.006,0.014l0 0.053c0,0.006 -0.002,0.011 -0.006,0.015 -0.004,0.003 -0.009,0.006 -0.014,0.006l-0.053 0c-0.006,0 -0.011,-0.003 -0.015,-0.006 -0.004,-0.004 -0.006,-0.009 -0.006,-0.015l0 -0.053c0,-0.006 0.002,-0.011 0.006,-0.014 0.004,-0.004 0.009,-0.006 0.015,-0.006zm0.047 0.026l-0.041 0 0 0.041 0.041 0 0 -0.041z"/>
    <path class="fil1" d="M0.745 0.342l0.077 0.144 0.162 0.029c0.007,0.001 0.012,0.008 0.011,0.015 -0.001,0.003 -0.002,0.006 -0.004,0.008l-0.114 0.117 0.023 0.163c0.001,0.007 -0.004,0.013 -0.011,0.014 -0.003,0.001 -0.006,0 -0.008,-0.001l-0.147 -0.072 -0.148 0.072c-0.006,0.003 -0.014,0.001 -0.017,-0.006 -0.002,-0.003 -0.002,-0.005 -0.001,-0.008l0.022 -0.162 -0.114 -0.118c-0.005,-0.005 -0.004,-0.013 0.001,-0.019 0.002,-0.001 0.004,-0.003 0.007,-0.003l0.161 -0.029 0.077 -0.144c0.004,-0.007 0.012,-0.009 0.018,-0.006 0.002,0.002 0.004,0.003 0.005,0.006zm0.057 0.162l-0.068 -0.128 -0.068 0.128c-0.002,0.003 -0.006,0.006 -0.01,0.007l-0.143 0.026 0.1 0.104c0.003,0.003 0.005,0.007 0.004,0.011l-0.02 0.145 0.131 -0.064c0.004,-0.002 0.008,-0.002 0.012,0l0.131 0.064 -0.021 -0.145c0,-0.003 0.001,-0.007 0.004,-0.011l0.101 -0.104 -0.143 -0.026c-0.004,0 -0.008,-0.003 -0.01,-0.007z"/>
   </g>
  </g>
 </g>
</svg>
