<?xml version="1.0" encoding="UTF-8"?>
<!DOCTYPE svg PUBLIC "-//W3C//DTD SVG 1.1//EN" "http://www.w3.org/Graphics/SVG/1.1/DTD/svg11.dtd">
<!-- Creator: CorelDRAW 2018 (64-Bit) -->
<svg xmlns="http://www.w3.org/2000/svg" xml:space="preserve" width="42px" height="32px" version="1.1" style="shape-rendering:geometricPrecision; text-rendering:geometricPrecision; image-rendering:optimizeQuality; fill-rule:evenodd; clip-rule:evenodd"
viewBox="0 0 1.235 0.941"
 xmlns:xlink="http://www.w3.org/1999/xlink">
 <defs>
  <style type="text/css">
   <![CDATA[
    .fil0 {fill:none}
    .fil1 {fill:#00F4FF;fill-rule:nonzero}
   ]]>
  </style>
 </defs>
 <g id="Layer_x0020_1">
  <metadata id="CorelCorpID_0Corel-Layer"/>
  <g id="_2815748152784">
   <rect class="fil0" width="1.235" height="0.941"/>
   <g>
    <path class="fil1" d="M0.34 0.196c0.008,0 0.015,0.007 0.015,0.015 0,0.008 -0.007,0.015 -0.015,0.015l-0.119 0c-0.001,0 -0.002,0 -0.003,0.001 -0.001,0.001 -0.002,0.002 -0.002,0.003l0 0.58c0,0.001 0.001,0.002 0.002,0.003 0.001,0.001 0.002,0.001 0.003,0.001l0.353 0c0.008,0 0.014,0.007 0.014,0.015 0,0.008 -0.006,0.015 -0.014,0.015l-0.353 0c-0.009,0 -0.018,-0.004 -0.024,-0.01 -0.006,-0.006 -0.01,-0.015 -0.01,-0.024l0 -0.58c0,-0.009 0.004,-0.018 0.01,-0.024 0.006,-0.006 0.015,-0.01 0.024,-0.01l0.119 0zm0.554 0.151c0,0.009 -0.006,0.015 -0.014,0.015 -0.009,0 -0.015,-0.006 -0.015,-0.015l0 -0.117c0,-0.001 -0.001,-0.002 -0.002,-0.003 0,-0.001 -0.001,-0.001 -0.003,-0.001l-0.08 0c-0.008,0 -0.015,-0.007 -0.015,-0.015 0,-0.008 0.007,-0.015 0.015,-0.015l0.08 0c0.01,0 0.018,0.004 0.024,0.01 0.006,0.006 0.01,0.015 0.01,0.024l0 0.117z"/>
    <path class="fil1" d="M0.693 0.196c0.008,0 0.015,0.007 0.015,0.015 0,0.008 -0.007,0.015 -0.015,0.015l-0.06 0c-0.008,0 -0.015,-0.007 -0.015,-0.015 0,-0.008 0.007,-0.015 0.015,-0.015l0.06 0z"/>
    <path class="fil1" d="M0.517 0.196c0.008,0 0.014,0.007 0.014,0.015 0,0.008 -0.006,0.015 -0.014,0.015l-0.059 0c-0.008,0 -0.015,-0.007 -0.015,-0.015 0,-0.008 0.007,-0.015 0.015,-0.015l0.059 0z"/>
    <path class="fil1" d="M0.717 0.162c-0.002,0 -0.005,0.001 -0.006,0.002 -0.002,0.002 -0.003,0.005 -0.003,0.007l0 0.08c0,0.003 0.001,0.005 0.003,0.007 0.001,0.001 0.004,0.002 0.006,0.002 0.003,0 0.005,-0.001 0.007,-0.002 0.002,-0.002 0.003,-0.004 0.003,-0.007l0 -0.08c0,-0.002 -0.001,-0.005 -0.003,-0.006 -0.002,-0.002 -0.004,-0.003 -0.007,-0.003zm0 -0.03c0.011,0 0.021,0.005 0.028,0.012l0 0c0.007,0.007 0.011,0.017 0.011,0.027l0 0.08c0,0.011 -0.004,0.02 -0.011,0.027l0 0c-0.007,0.007 -0.017,0.012 -0.028,0.012 -0.01,0 -0.02,-0.005 -0.027,-0.012l0 0c-0.007,-0.007 -0.011,-0.016 -0.011,-0.027l0 -0.08c0,-0.01 0.004,-0.02 0.011,-0.027l0 0c0.007,-0.007 0.017,-0.012 0.027,-0.012z"/>
    <path class="fil1" d="M0.541 0.162c-0.003,0 -0.005,0.001 -0.007,0.002 -0.002,0.002 -0.003,0.005 -0.003,0.007l0 0.08c0,0.003 0.001,0.005 0.003,0.007 0.002,0.001 0.004,0.002 0.007,0.002 0.002,0 0.005,-0.001 0.006,-0.002 0.002,-0.002 0.003,-0.004 0.003,-0.007l0 -0.08c0,-0.002 -0.001,-0.005 -0.003,-0.006 -0.001,-0.002 -0.004,-0.003 -0.006,-0.003zm0 -0.03c0.01,0 0.02,0.005 0.027,0.012l0 0c0.007,0.007 0.011,0.017 0.011,0.027l0 0.08c0,0.011 -0.004,0.02 -0.011,0.027l0 0c-0.007,0.007 -0.017,0.012 -0.027,0.012 -0.011,0 -0.021,-0.005 -0.028,-0.012l0 0c-0.007,-0.007 -0.011,-0.016 -0.011,-0.027l0 -0.08c0,-0.01 0.004,-0.02 0.011,-0.027l0 0c0.007,-0.007 0.017,-0.012 0.028,-0.012z"/>
    <path class="fil1" d="M0.364 0.162c-0.002,0 -0.005,0.001 -0.006,0.002 -0.002,0.002 -0.003,0.005 -0.003,0.007l0 0.08c0,0.003 0.001,0.005 0.002,0.007 0.002,0.001 0.005,0.002 0.007,0.002 0.003,0 0.005,-0.001 0.007,-0.002 0.001,-0.002 0.003,-0.004 0.003,-0.007l0 -0.08c0,-0.002 -0.002,-0.005 -0.003,-0.006 -0.002,-0.002 -0.004,-0.003 -0.007,-0.003zm0 -0.03c0.011,0 0.02,0.005 0.027,0.012l0.001 0c0.007,0.007 0.011,0.017 0.011,0.027l0 0.08c0,0.011 -0.004,0.02 -0.011,0.027l-0.001 0c-0.007,0.007 -0.016,0.012 -0.027,0.012 -0.01,0 -0.02,-0.005 -0.027,-0.012l0 0c-0.007,-0.007 -0.012,-0.016 -0.012,-0.027l0 -0.08c0,-0.01 0.005,-0.02 0.012,-0.027l0 0c0.007,-0.007 0.017,-0.012 0.027,-0.012z"/>
    <path class="fil1" d="M0.322 0.404l0.059 0c0.007,0 0.012,0.003 0.016,0.007 0.005,0.004 0.007,0.01 0.007,0.016l0 0.059c0,0.006 -0.002,0.012 -0.007,0.016 -0.004,0.005 -0.009,0.007 -0.016,0.007l-0.059 0c-0.006,0 -0.012,-0.002 -0.016,-0.007 -0.004,-0.004 -0.007,-0.01 -0.007,-0.016l0 -0.059c0,-0.006 0.003,-0.012 0.007,-0.016 0.004,-0.004 0.01,-0.007 0.016,-0.007zm0.053 0.03l-0.046 0 0 0.046 0.046 0 0 -0.046z"/>
    <path class="fil1" d="M0.511 0.404l0.059 0c0.006,0 0.012,0.003 0.016,0.007 0.004,0.004 0.007,0.01 0.007,0.016l0 0.059c0,0.006 -0.003,0.012 -0.007,0.016 -0.004,0.005 -0.01,0.007 -0.016,0.007l-0.059 0c-0.006,0 -0.012,-0.002 -0.016,-0.007 -0.004,-0.004 -0.007,-0.01 -0.007,-0.016l0 -0.059c0,-0.006 0.003,-0.012 0.007,-0.016 0.004,-0.004 0.01,-0.007 0.016,-0.007zm0.053 0.03l-0.046 0 0 0.046 0.046 0 0 -0.046z"/>
    <path class="fil1" d="M0.322 0.597l0.059 0c0.007,0 0.012,0.003 0.016,0.007 0.005,0.004 0.007,0.01 0.007,0.016l0 0.059c0,0.006 -0.002,0.012 -0.007,0.016 -0.004,0.004 -0.009,0.007 -0.016,0.007l-0.059 0c-0.006,0 -0.012,-0.003 -0.016,-0.007 -0.004,-0.004 -0.007,-0.01 -0.007,-0.016l0 -0.059c0,-0.006 0.003,-0.012 0.007,-0.016 0.004,-0.004 0.01,-0.007 0.016,-0.007zm0.053 0.029l-0.046 0 0 0.046 0.046 0 0 -0.046z"/>
    <path class="fil1" d="M0.829 0.38l0.086 0.161 0.18 0.032c0.008,0.001 0.013,0.009 0.012,0.017 -0.001,0.003 -0.002,0.006 -0.005,0.008l-0.126 0.131 0.025 0.181c0.002,0.008 -0.004,0.015 -0.012,0.016 -0.003,0.001 -0.006,0 -0.009,-0.001l-0.164 -0.08 -0.164 0.08c-0.007,0.003 -0.016,0 -0.019,-0.007 -0.002,-0.003 -0.002,-0.006 -0.001,-0.009l0.025 -0.18 -0.127 -0.131c-0.006,-0.006 -0.005,-0.016 0,-0.021 0.003,-0.002 0.005,-0.004 0.008,-0.004l0.18 -0.032 0.086 -0.161c0.003,-0.007 0.012,-0.01 0.019,-0.006 0.003,0.002 0.005,0.004 0.006,0.006zm0.064 0.181l-0.077 -0.143 -0.075 0.142c-0.002,0.005 -0.006,0.008 -0.011,0.009l-0.16 0.028 0.113 0.117c0.003,0.003 0.004,0.007 0.004,0.012l-0.023 0.16 0.146 -0.071c0.004,-0.001 0.009,-0.002 0.013,0l0.146 0.071 -0.023 -0.16c0,-0.004 0.001,-0.009 0.004,-0.012l0.113 -0.117 -0.16 -0.028c-0.004,-0.001 -0.008,-0.004 -0.01,-0.008z"/>
   </g>
  </g>
 </g>
</svg>
