<svg xmlns="http://www.w3.org/2000/svg" width="47.288" height="53.537" viewBox="0 0 47.288 53.537">
  <g id="Exchange" transform="translate(-450.686 -27)">
    <g id="Group_33" data-name="Group 33" transform="translate(469.388 27)">
      <g id="Path_105" data-name="Path 105" transform="translate(-0.982 0)" fill="none">
        <path d="M1.011,0h0Z" stroke="none"/>
        <path d="M 0.9816532135009766 0 L 18.7895565032959 0 L 0.9816532135009766 0 Z" stroke="none" fill="#707070"/>
      </g>
      <g id="Rectangle_61_1_" transform="translate(1.788 9.681)">
        <path id="Path_113" data-name="Path 113" d="M1.59.5h16.8a.8.8,0,0,1,.807.807V7.245" transform="translate(-1.59 -0.5)" fill="none" stroke="gray" stroke-linecap="round" stroke-width="1"/>
      </g>
    </g>
    <g id="Group_39" data-name="Group 39" transform="translate(474.258 80.537) rotate(180)">
      <g id="Path_105-2" data-name="Path 105" transform="translate(0 0)" fill="none">
        <path d="M.03,0h0Z" stroke="none"/>
        <path d="M -1.9073486328125e-06 3.696463362346342e-24 L 17.80790138244629 3.696463362346342e-24 L -1.9073486328125e-06 3.696463362346342e-24 Z" stroke="none" fill="#707070"/>
      </g>
      <g id="Rectangle_61_1_2" data-name="Rectangle_61_1_" transform="translate(2.52 9.681)">
        <path id="Path_113-2" data-name="Path 113" d="M0,0H16.065a.8.8,0,0,1,.807.807V8.862" transform="translate(0 0)" fill="none" stroke="gray" stroke-linecap="round" stroke-width="1"/>
      </g>
    </g>
    <g id="Group_130" data-name="Group 130" transform="translate(477.221 46.76)">
      <path id="Path_102" data-name="Path 102" stroke="gray" d="M3.669,18.663c.737-.2,2.187.352,3.147.575a17.662,17.662,0,0,0,7.812,0c.952-.232,2.41-.772,3.147-.575a4.053,4.053,0,0,1,2.581,3.284l.489,5.617a.852.852,0,0,1-.875.875H1.474A.852.852,0,0,1,.6,27.564l.489-5.617A4.053,4.053,0,0,1,3.669,18.663Z" fill="#00f4ff" transform="translate(-0.597 -3.167)" stroke-linecap="round" stroke-linejoin="round" stroke-miterlimit="2.613" stroke-width="1" fill-rule="evenodd"/>
      <path id="Path_103" data-name="Path 103" stroke="gray" d="M11.233,14.175A6.787,6.787,0,1,0,4.45,7.392,6.8,6.8,0,0,0,11.233,14.175Z" fill="#00f4ff" transform="translate(-1.146 -0.6)" stroke-linecap="round" stroke-linejoin="round" stroke-miterlimit="2.613" stroke-width="1" fill-rule="evenodd"/>
    </g>
    <g id="Group_131" data-name="Group 131" transform="translate(451.187 35.213)">
      <path id="Path_102-2" data-name="Path 102" stroke="gray" d="M3.371,18.659a8.276,8.276,0,0,1,2.842.519,15.948,15.948,0,0,0,7.054,0,8.066,8.066,0,0,1,2.842-.519,3.66,3.66,0,0,1,2.331,2.966l.441,5.072a.769.769,0,0,1-.79.79H1.389A.769.769,0,0,1,.6,26.7l.441-5.072A3.66,3.66,0,0,1,3.371,18.659Z" fill="none" transform="translate(-0.597 -4.667)" stroke-linecap="round" stroke-linejoin="round" stroke-miterlimit="2.613" stroke-width="1" fill-rule="evenodd"/>
      <path id="Path_103-2" data-name="Path 103" stroke="gray" d="M10.575,12.857A6.129,6.129,0,1,0,4.45,6.733,6.138,6.138,0,0,0,10.575,12.857Z" fill="none" transform="translate(-1.466 -0.6)" stroke-linecap="round" stroke-linejoin="round" stroke-miterlimit="2.613" stroke-width="1" fill-rule="evenodd"/>
    </g>
  </g>
</svg>
