<?xml version="1.0" encoding="UTF-8"?>
<!DOCTYPE svg PUBLIC "-//W3C//DTD SVG 1.1//EN" "http://www.w3.org/Graphics/SVG/1.1/DTD/svg11.dtd">
<!-- Creator: CorelDRAW 2018 (64-Bit) -->
<svg xmlns="http://www.w3.org/2000/svg" xml:space="preserve" width="42px" height="32px" version="1.1" style="shape-rendering:geometricPrecision; text-rendering:geometricPrecision; image-rendering:optimizeQuality; fill-rule:evenodd; clip-rule:evenodd"
viewBox="0 0 1.008 0.768"
 xmlns:xlink="http://www.w3.org/1999/xlink">
 <defs>
  <style type="text/css">
   <![CDATA[
    .fil0 {fill:none}
    .fil1 {fill:gray;fill-rule:nonzero}
   ]]>
  </style>
 </defs>
 <g id="Layer_x0020_1">
  <metadata id="CorelCorpID_0Corel-Layer"/>
  <g id="_2815516980688">
   <rect class="fil0" width="1.008" height="0.768"/>
   <g>
    <path class="fil1" d="M0.75 0.607c0,-0.007 0.005,-0.012 0.012,-0.012 0.006,0 0.012,0.005 0.012,0.012l0 0.067c0,0.016 -0.007,0.03 -0.018,0.041l0 0c-0.01,0.01 -0.025,0.017 -0.041,0.017l-0.46 0c-0.016,0 -0.031,-0.007 -0.042,-0.017 -0.01,-0.011 -0.017,-0.025 -0.017,-0.041l0 -0.469c0,-0.007 0.006,-0.012 0.012,-0.012l0.507 0c0.016,0 0.031,0.007 0.041,0.017l0.001 0.001c0.01,0.01 0.017,0.025 0.017,0.04l0 0.067c0,0.007 -0.006,0.012 -0.012,0.012 -0.007,0 -0.012,-0.005 -0.012,-0.012l0 -0.067c0,-0.009 -0.004,-0.017 -0.01,-0.023l-0.001 -0.001c-0.006,-0.006 -0.014,-0.01 -0.024,-0.01l-0.495 0 0 0.457c0,0.009 0.004,0.018 0.01,0.024 0.007,0.006 0.015,0.01 0.025,0.01l0.46 0c0.01,0 0.018,-0.004 0.024,-0.01 0.007,-0.006 0.011,-0.015 0.011,-0.024l0 -0.067z"/>
    <path class="fil1" d="M0.774 0.176c0,0.007 -0.006,0.012 -0.012,0.012 -0.007,0 -0.012,-0.005 -0.012,-0.012 0,-0.004 -0.002,-0.008 -0.005,-0.011 -0.003,-0.003 -0.008,-0.005 -0.012,-0.005 -0.007,0 -0.012,-0.006 -0.012,-0.012 0,-0.007 0.005,-0.012 0.012,-0.012 0.011,0 0.021,0.004 0.029,0.012 0.007,0.007 0.012,0.017 0.012,0.028z"/>
    <polygon class="fil1" points="0.75,0.176 0.774,0.176 "/>
    <path class="fil1" d="M0.261 0.136c0.007,0 0.012,0.005 0.012,0.012 0,0.006 -0.005,0.012 -0.012,0.012l-0.024 0c-0.005,0 -0.009,0.002 -0.012,0.005 -0.003,0.003 -0.005,0.007 -0.005,0.011l0 0.029c0,0.007 -0.005,0.012 -0.012,0.012 -0.006,0 -0.012,-0.005 -0.012,-0.012l0 -0.029c0,-0.011 0.005,-0.021 0.012,-0.028 0.008,-0.008 0.018,-0.012 0.029,-0.012l0.024 0z"/>
    <path class="fil1" d="M0.781 0.398l-0.277 0c-0.018,0 -0.034,0.007 -0.045,0.019 -0.012,0.012 -0.019,0.028 -0.019,0.046 0,0.017 0.007,0.033 0.019,0.045l0 0.001c0.012,0.011 0.028,0.018 0.045,0.018l0.277 0c0.002,0 0.003,-0.001 0.005,-0.002l0 -0.001c0.001,-0.001 0.002,-0.002 0.002,-0.004l0 -0.115c0,-0.002 -0.001,-0.003 -0.002,-0.005 -0.002,-0.001 -0.003,-0.002 -0.005,-0.002zm-0.277 -0.024l0.277 0c0.008,0 0.016,0.004 0.022,0.009 0.005,0.006 0.009,0.014 0.009,0.022l0 0.115c0,0.008 -0.003,0.015 -0.009,0.021l0 0.001c-0.006,0.005 -0.014,0.009 -0.022,0.009l-0.277 0c-0.024,0 -0.046,-0.01 -0.062,-0.025l0 -0.001c-0.016,-0.016 -0.026,-0.038 -0.026,-0.062 0,-0.025 0.01,-0.047 0.026,-0.063l0 0c0.016,-0.016 0.038,-0.026 0.062,-0.026z"/>
    <path class="fil1" d="M0.545 0.463c0,0.011 -0.005,0.021 -0.012,0.028 -0.008,0.008 -0.018,0.012 -0.029,0.012 -0.011,0 -0.021,-0.004 -0.029,-0.012 -0.007,-0.007 -0.012,-0.017 -0.012,-0.028 0,-0.012 0.005,-0.022 0.012,-0.029 0.008,-0.008 0.018,-0.012 0.029,-0.012 0.011,0 0.021,0.004 0.029,0.012 0.007,0.007 0.012,0.017 0.012,0.029zm-0.029 0.011c0.003,-0.003 0.005,-0.007 0.005,-0.011 0,-0.005 -0.002,-0.009 -0.005,-0.012 -0.003,-0.003 -0.007,-0.005 -0.012,-0.005 -0.005,0 -0.009,0.002 -0.012,0.005 -0.003,0.003 -0.005,0.007 -0.005,0.012 0,0.004 0.002,0.008 0.005,0.011 0.003,0.003 0.007,0.005 0.012,0.005 0.005,0 0.009,-0.002 0.012,-0.005z"/>
    <path class="fil1" d="M0.33 0.166c-0.006,0.001 -0.012,-0.004 -0.013,-0.01 0,-0.007 0.005,-0.013 0.011,-0.013l0.351 -0.035c0.007,-0.001 0.013,0.004 0.013,0.011l0.004 0.03c0.001,0.006 -0.004,0.012 -0.01,0.013 -0.007,0.001 -0.013,-0.004 -0.013,-0.01l-0.003 -0.019 -0.34 0.033z"/>
   </g>
  </g>
 </g>
</svg>
