<?xml version="1.0" encoding="UTF-8"?>
<!DOCTYPE svg PUBLIC "-//W3C//DTD SVG 1.1//EN" "http://www.w3.org/Graphics/SVG/1.1/DTD/svg11.dtd">
<!-- Creator: CorelDRAW 2018 (64-Bit) -->
<svg xmlns="http://www.w3.org/2000/svg" xml:space="preserve" width="42px" height="32px" version="1.1" style="shape-rendering:geometricPrecision; text-rendering:geometricPrecision; image-rendering:optimizeQuality; fill-rule:evenodd; clip-rule:evenodd"
viewBox="0 0 1.11 0.846"
 xmlns:xlink="http://www.w3.org/1999/xlink">
 <defs>
  <style type="text/css">
   <![CDATA[
    .fil0 {fill:none}
    .fil1 {fill:white;fill-rule:nonzero}
   ]]>
  </style>
 </defs>
 <g id="Layer_x0020_1">
  <metadata id="CorelCorpID_0Corel-Layer"/>
  <g id="_2815590602224">
   <rect class="fil0" width="1.11" height="0.846"/>
   <g>
    <path class="fil1" d="M0.825 0.668c0,-0.007 0.006,-0.013 0.014,-0.013 0.007,0 0.013,0.006 0.013,0.013l0 0.074c0,0.018 -0.007,0.034 -0.019,0.045l0 0c-0.012,0.012 -0.028,0.019 -0.045,0.019l-0.508 0c-0.017,0 -0.033,-0.007 -0.045,-0.019 -0.012,-0.011 -0.019,-0.027 -0.019,-0.045l0 -0.516c0,-0.008 0.006,-0.013 0.013,-0.013l0.559 0c0.017,0 0.033,0.007 0.045,0.018l0.001 0.001c0.011,0.012 0.018,0.028 0.018,0.045l0 0.073c0,0.008 -0.006,0.014 -0.013,0.014 -0.008,0 -0.014,-0.006 -0.014,-0.014l0 -0.073c0,-0.01 -0.004,-0.02 -0.01,-0.026l-0.001 -0.001c-0.006,-0.007 -0.016,-0.011 -0.026,-0.011l-0.545 0 0 0.503c0,0.01 0.004,0.02 0.011,0.027 0.007,0.006 0.016,0.011 0.026,0.011l0.508 0c0.01,0 0.02,-0.005 0.026,-0.011 0.007,-0.007 0.011,-0.017 0.011,-0.027l0 -0.074z"/>
    <path class="fil1" d="M0.852 0.194c0,0.008 -0.006,0.013 -0.013,0.013 -0.008,0 -0.014,-0.005 -0.014,-0.013 0,-0.005 -0.002,-0.009 -0.005,-0.013 -0.003,-0.003 -0.008,-0.005 -0.013,-0.005 -0.007,0 -0.013,-0.006 -0.013,-0.013 0,-0.008 0.006,-0.013 0.013,-0.013 0.012,0 0.024,0.005 0.032,0.013 0.008,0.008 0.013,0.019 0.013,0.031z"/>
    <polygon class="fil1" points="0.825,0.194 0.852,0.194 "/>
    <path class="fil1" d="M0.287 0.15c0.008,0 0.014,0.005 0.014,0.013 0,0.007 -0.006,0.013 -0.014,0.013l-0.026 0c-0.005,0 -0.01,0.002 -0.013,0.005 -0.003,0.004 -0.005,0.008 -0.005,0.013l0 0.032c0,0.007 -0.006,0.013 -0.014,0.013 -0.007,0 -0.013,-0.006 -0.013,-0.013l0 -0.032c0,-0.012 0.005,-0.023 0.013,-0.031 0.008,-0.008 0.02,-0.013 0.032,-0.013l0.026 0z"/>
    <path class="fil1" d="M0.86 0.439l-0.305 0c-0.02,0 -0.037,0.007 -0.05,0.02 -0.013,0.013 -0.021,0.031 -0.021,0.05 0,0.02 0.008,0.038 0.021,0.05l0.001 0.001c0.012,0.013 0.03,0.02 0.049,0.02l0.305 0c0.002,0 0.004,-0.001 0.005,-0.002l0.001 0c0.001,-0.002 0.001,-0.004 0.001,-0.006l0 -0.126c0,-0.002 0,-0.004 -0.002,-0.005 -0.001,-0.002 -0.003,-0.002 -0.005,-0.002zm-0.305 -0.027l0.305 0c0.009,0 0.018,0.004 0.024,0.01 0.006,0.006 0.01,0.015 0.01,0.024l0 0.126c0,0.009 -0.004,0.018 -0.009,0.024l-0.001 0.001c-0.006,0.006 -0.015,0.01 -0.024,0.01l-0.305 0c-0.026,0 -0.05,-0.011 -0.068,-0.028l-0.001 -0.001c-0.017,-0.017 -0.028,-0.042 -0.028,-0.069 0,-0.026 0.011,-0.051 0.028,-0.068l0 0c0.018,-0.018 0.042,-0.029 0.069,-0.029z"/>
    <path class="fil1" d="M0.6 0.509c0,0.013 -0.005,0.024 -0.013,0.032 -0.008,0.008 -0.02,0.013 -0.032,0.013 -0.012,0 -0.023,-0.005 -0.032,-0.013 -0.008,-0.008 -0.013,-0.019 -0.013,-0.032 0,-0.012 0.005,-0.023 0.013,-0.031 0.009,-0.008 0.02,-0.013 0.032,-0.013 0.012,0 0.024,0.005 0.032,0.013 0.008,0.008 0.013,0.019 0.013,0.031zm-0.032 0.013c0.003,-0.003 0.005,-0.008 0.005,-0.013 0,-0.005 -0.002,-0.009 -0.005,-0.013 -0.003,-0.003 -0.008,-0.005 -0.013,-0.005 -0.005,0 -0.01,0.002 -0.013,0.005 -0.003,0.004 -0.005,0.008 -0.005,0.013 0,0.005 0.002,0.01 0.005,0.013 0.003,0.004 0.008,0.006 0.013,0.006 0.005,0 0.01,-0.002 0.013,-0.006z"/>
    <path class="fil1" d="M0.364 0.183c-0.007,0.001 -0.014,-0.004 -0.015,-0.012 0,-0.007 0.005,-0.013 0.012,-0.014l0.387 -0.038c0.007,-0.001 0.014,0.005 0.014,0.012l0.005 0.033c0.001,0.007 -0.004,0.014 -0.012,0.015 -0.007,0 -0.014,-0.005 -0.014,-0.012l-0.003 -0.02 -0.374 0.036z"/>
   </g>
  </g>
 </g>
</svg>
