<?xml version="1.0" encoding="UTF-8"?>
<!DOCTYPE svg PUBLIC "-//W3C//DTD SVG 1.1//EN" "http://www.w3.org/Graphics/SVG/1.1/DTD/svg11.dtd">
<!-- Creator: CorelDRAW 2018 (64-Bit) -->
<svg xmlns="http://www.w3.org/2000/svg" xml:space="preserve" width="42px" height="32px" version="1.1" style="shape-rendering:geometricPrecision; text-rendering:geometricPrecision; image-rendering:optimizeQuality; fill-rule:evenodd; clip-rule:evenodd"
viewBox="0 0 1.235 0.941"
 xmlns:xlink="http://www.w3.org/1999/xlink">
 <defs>
  <style type="text/css">
   <![CDATA[
    .fil0 {fill:none}
    .fil1 {fill:#00F4FF;fill-rule:nonzero}
   ]]>
  </style>
 </defs>
 <g id="Layer_x0020_1">
  <metadata id="CorelCorpID_0Corel-Layer"/>
  <g id="_2815516941392">
   <rect class="fil0" width="1.235" height="0.941"/>
   <g>
    <path class="fil1" d="M0.918 0.744c0,-0.009 0.007,-0.015 0.015,-0.015 0.008,0 0.015,0.006 0.015,0.015l0 0.082c0,0.019 -0.008,0.037 -0.021,0.05l0 0c-0.013,0.013 -0.031,0.021 -0.051,0.021l-0.564 0c-0.02,0 -0.038,-0.008 -0.05,-0.021 -0.013,-0.013 -0.021,-0.031 -0.021,-0.05l0 -0.575c0,-0.008 0.006,-0.014 0.014,-0.014l0.621 0c0.02,0 0.038,0.008 0.051,0.02l0.001 0.001c0.012,0.013 0.02,0.031 0.02,0.05l0 0.082c0,0.008 -0.007,0.015 -0.015,0.015 -0.008,0 -0.015,-0.007 -0.015,-0.015l0 -0.082c0,-0.011 -0.004,-0.022 -0.011,-0.029l-0.001 -0.001c-0.008,-0.007 -0.018,-0.012 -0.03,-0.012l-0.606 0 0 0.56c0,0.011 0.005,0.022 0.012,0.029 0.008,0.008 0.018,0.013 0.03,0.013l0.564 0c0.012,0 0.022,-0.005 0.03,-0.013 0.008,-0.007 0.012,-0.018 0.012,-0.029l0 -0.082z"/>
    <path class="fil1" d="M0.948 0.216c0,0.008 -0.007,0.015 -0.015,0.015 -0.008,0 -0.015,-0.007 -0.015,-0.015 0,-0.005 -0.002,-0.011 -0.006,-0.014 -0.003,-0.004 -0.008,-0.006 -0.014,-0.006 -0.008,0 -0.015,-0.007 -0.015,-0.015 0,-0.008 0.007,-0.015 0.015,-0.015 0.014,0 0.026,0.006 0.035,0.015 0.009,0.009 0.015,0.021 0.015,0.035z"/>
    <polygon class="fil1" points="0.918,0.216 0.948,0.216 "/>
    <path class="fil1" d="M0.32 0.166c0.008,0 0.015,0.007 0.015,0.015 0,0.008 -0.007,0.015 -0.015,0.015l-0.03 0c-0.005,0 -0.01,0.002 -0.014,0.006 -0.004,0.003 -0.006,0.009 -0.006,0.014l0 0.035c0,0.008 -0.007,0.015 -0.015,0.015 -0.008,0 -0.014,-0.007 -0.014,-0.015l0 -0.035c0,-0.014 0.005,-0.026 0.014,-0.035 0.009,-0.009 0.022,-0.015 0.035,-0.015l0.03 0z"/>
    <path class="fil1" d="M0.956 0.488l-0.338 0c-0.022,0 -0.042,0.009 -0.056,0.023 -0.014,0.014 -0.023,0.034 -0.023,0.056 0,0.022 0.009,0.041 0.023,0.055l0.001 0.001c0.014,0.014 0.033,0.023 0.055,0.023l0.338 0c0.003,0 0.005,-0.001 0.007,-0.003l0 0c0.001,-0.002 0.002,-0.004 0.002,-0.006l0 -0.14c0,-0.003 -0.001,-0.005 -0.002,-0.006 -0.002,-0.002 -0.004,-0.003 -0.007,-0.003zm-0.338 -0.029l0.338 0c0.011,0 0.021,0.004 0.027,0.011 0.007,0.007 0.012,0.016 0.012,0.027l0 0.14c0,0.01 -0.004,0.019 -0.011,0.026l-0.001 0.001c-0.006,0.007 -0.016,0.011 -0.027,0.011l-0.338 0c-0.03,0 -0.057,-0.012 -0.076,-0.031l-0.001 -0.001c-0.02,-0.019 -0.032,-0.046 -0.032,-0.076 0,-0.03 0.012,-0.057 0.032,-0.077l0 0c0.02,-0.019 0.047,-0.031 0.077,-0.031z"/>
    <path class="fil1" d="M0.667 0.567c0,0.013 -0.005,0.026 -0.014,0.035 -0.009,0.009 -0.022,0.015 -0.035,0.015 -0.014,0 -0.027,-0.006 -0.036,-0.015 -0.009,-0.009 -0.014,-0.022 -0.014,-0.035 0,-0.014 0.005,-0.026 0.014,-0.035 0.009,-0.009 0.022,-0.015 0.036,-0.015 0.013,0 0.026,0.006 0.035,0.015 0.009,0.009 0.014,0.021 0.014,0.035zm-0.035 0.014c0.004,-0.004 0.006,-0.009 0.006,-0.014 0,-0.006 -0.002,-0.011 -0.006,-0.015 -0.004,-0.003 -0.009,-0.006 -0.014,-0.006 -0.006,0 -0.011,0.003 -0.015,0.006 -0.003,0.004 -0.006,0.009 -0.006,0.015 0,0.005 0.003,0.011 0.006,0.014 0.004,0.004 0.009,0.006 0.015,0.006 0.005,0 0.01,-0.002 0.014,-0.006z"/>
    <path class="fil1" d="M0.405 0.204c-0.008,0.001 -0.015,-0.005 -0.016,-0.013 -0.001,-0.008 0.005,-0.015 0.013,-0.016l0.43 -0.043c0.008,0 0.016,0.006 0.016,0.014l0.005 0.036c0.001,0.008 -0.005,0.016 -0.013,0.017 -0.008,0.001 -0.015,-0.005 -0.016,-0.013l-0.003 -0.023 -0.416 0.041z"/>
   </g>
  </g>
 </g>
</svg>
