<?xml version="1.0" encoding="UTF-8"?>
<!DOCTYPE svg PUBLIC "-//W3C//DTD SVG 1.1//EN" "http://www.w3.org/Graphics/SVG/1.1/DTD/svg11.dtd">
<!-- Creator: CorelDRAW 2018 (64-Bit) -->
<svg xmlns="http://www.w3.org/2000/svg" xml:space="preserve" width="42px" height="32px" version="1.1" style="shape-rendering:geometricPrecision; text-rendering:geometricPrecision; image-rendering:optimizeQuality; fill-rule:evenodd; clip-rule:evenodd"
viewBox="0 0 2.388 1.819"
 xmlns:xlink="http://www.w3.org/1999/xlink">
 <defs>
  <style type="text/css">
   <![CDATA[
    .fil0 {fill:none}
    .fil1 {fill:#00F4FF;fill-rule:nonzero}
   ]]>
  </style>
 </defs>
 <g id="Layer_x0020_1">
  <metadata id="CorelCorpID_0Corel-Layer"/>
  <g id="_2814940331616">
   <rect class="fil0" width="2.388" height="1.819"/>
   <g>
    <path class="fil1" d="M0.833 1.185c0.035,-0.009 0.088,0.005 0.134,0.019 0.015,0.004 0.029,0.008 0.038,0.01 0.059,0.014 0.125,0.021 0.191,0.021 0.066,0 0.131,-0.007 0.19,-0.021 0.01,-0.002 0.024,-0.006 0.038,-0.01 0.046,-0.014 0.099,-0.028 0.134,-0.019 0.027,0.007 0.072,0.034 0.105,0.076 0.024,0.031 0.043,0.069 0.047,0.115l0.025 0.283 0 0.006c0,0.018 -0.008,0.035 -0.021,0.048 -0.012,0.011 -0.028,0.019 -0.046,0.021l-0.006 0 -0.933 0 -0.006 0c-0.018,-0.002 -0.034,-0.01 -0.046,-0.021 -0.013,-0.013 -0.021,-0.029 -0.021,-0.048 0.006,-0.096 0.017,-0.194 0.025,-0.289 0.004,-0.046 0.023,-0.084 0.047,-0.115 0.033,-0.042 0.079,-0.069 0.105,-0.076zm0.119 0.073c-0.04,-0.011 -0.084,-0.024 -0.105,-0.018 -0.018,0.004 -0.049,0.024 -0.075,0.056 -0.017,0.023 -0.031,0.051 -0.034,0.084l-0.025 0.285c0,0.002 0.002,0.005 0.004,0.007 0.003,0.003 0.006,0.005 0.011,0.005 0.294,0.01 0.64,0.008 0.935,0 0.005,0 0.009,-0.002 0.011,-0.005 0.003,-0.002 0.004,-0.005 0.004,-0.007l-0.025 -0.285c-0.003,-0.033 -0.017,-0.061 -0.034,-0.084 -0.026,-0.032 -0.057,-0.052 -0.075,-0.056 -0.02,-0.006 -0.065,0.007 -0.104,0.018 -0.014,0.004 -0.027,0.008 -0.041,0.011 -0.064,0.015 -0.134,0.023 -0.203,0.023 -0.07,0 -0.14,-0.008 -0.204,-0.023 -0.014,-0.003 -0.027,-0.007 -0.04,-0.011z"/>
    <path class="fil1" d="M1.194 0.402c0.102,0 0.195,0.041 0.262,0.108l0.002 0.002c0.066,0.067 0.107,0.159 0.107,0.261 0,0.102 -0.042,0.195 -0.109,0.262l-0.001 0.002c-0.068,0.066 -0.16,0.107 -0.261,0.107 -0.103,0 -0.195,-0.042 -0.262,-0.109 -0.068,-0.067 -0.109,-0.16 -0.109,-0.262 0,-0.103 0.041,-0.195 0.109,-0.263 0.067,-0.067 0.159,-0.108 0.262,-0.108zm0.222 0.149c-0.057,-0.057 -0.135,-0.092 -0.222,-0.092 -0.087,0 -0.165,0.035 -0.222,0.092 -0.057,0.056 -0.092,0.135 -0.092,0.222 0,0.086 0.035,0.165 0.092,0.222 0.057,0.057 0.135,0.092 0.222,0.092 0.086,0 0.164,-0.035 0.221,-0.091l0.001 -0.001c0.057,-0.057 0.092,-0.136 0.092,-0.222 0,-0.086 -0.035,-0.164 -0.091,-0.221l-0.001 -0.001z"/>
    <path class="fil1" d="M0.565 1.474c0.015,0 0.028,0.013 0.028,0.028 0,0.016 -0.013,0.029 -0.028,0.029l-0.275 0 -0.006 0c-0.016,-0.002 -0.031,-0.009 -0.042,-0.02 -0.012,-0.011 -0.019,-0.027 -0.019,-0.044 0.005,-0.083 0.014,-0.168 0.021,-0.251 0.004,-0.04 0.02,-0.074 0.041,-0.101 0.03,-0.037 0.07,-0.061 0.093,-0.067 0.032,-0.008 0.078,0.005 0.119,0.016 0.011,0.003 0.022,0.006 0.032,0.009l0.003 0.001c0.03,0.007 0.062,0.012 0.095,0.014 0.035,0.003 0.07,0.004 0.105,0.002 0.016,0 0.029,0.012 0.03,0.027 0,0.016 -0.012,0.029 -0.027,0.03 -0.038,0.002 -0.076,0.001 -0.112,-0.002 -0.036,-0.003 -0.071,-0.008 -0.104,-0.016l-0.003 -0.001c-0.01,-0.002 -0.022,-0.006 -0.035,-0.009 -0.033,-0.01 -0.072,-0.021 -0.088,-0.016 -0.015,0.004 -0.041,0.02 -0.063,0.047 -0.015,0.019 -0.027,0.043 -0.029,0.071l-0.021 0.246c0,0.001 0,0.003 0.002,0.004 0.001,0.002 0.004,0.003 0.007,0.003l0.276 0z"/>
    <path class="fil1" d="M0.761 0.954c0.015,-0.004 0.03,0.005 0.034,0.02 0.004,0.015 -0.005,0.031 -0.02,0.035 -0.013,0.003 -0.027,0.006 -0.041,0.008 -0.014,0.002 -0.028,0.003 -0.042,0.003 -0.09,0 -0.171,-0.037 -0.23,-0.096 -0.059,-0.058 -0.095,-0.14 -0.095,-0.229 0,-0.09 0.036,-0.171 0.095,-0.23 0.059,-0.059 0.14,-0.095 0.23,-0.095 0.031,0 0.062,0.004 0.091,0.013 0.03,0.008 0.058,0.021 0.084,0.038 0.013,0.008 0.017,0.026 0.008,0.039 -0.008,0.013 -0.026,0.017 -0.039,0.008 -0.021,-0.013 -0.044,-0.024 -0.069,-0.031 -0.023,-0.007 -0.049,-0.011 -0.075,-0.011 -0.074,0 -0.141,0.031 -0.19,0.079 -0.048,0.048 -0.078,0.116 -0.078,0.19 0,0.074 0.03,0.141 0.078,0.189 0.049,0.049 0.116,0.079 0.19,0.079 0.012,0 0.024,-0.001 0.035,-0.002 0.011,-0.002 0.022,-0.004 0.034,-0.007z"/>
    <path class="fil1" d="M1.823 1.531c-0.015,0 -0.028,-0.013 -0.028,-0.029 0,-0.015 0.013,-0.028 0.028,-0.028l0.276 0c0.003,0 0.006,-0.001 0.007,-0.003 0.001,-0.001 0.002,-0.003 0.002,-0.004l-0.021 -0.246c-0.002,-0.028 -0.014,-0.052 -0.029,-0.071 -0.022,-0.027 -0.048,-0.043 -0.063,-0.047 -0.017,-0.005 -0.055,0.006 -0.088,0.016 -0.013,0.003 -0.025,0.007 -0.035,0.009l-0.003 0.001c-0.033,0.008 -0.068,0.013 -0.104,0.016 -0.036,0.003 -0.074,0.004 -0.112,0.002 -0.015,-0.001 -0.028,-0.014 -0.027,-0.03 0.001,-0.015 0.014,-0.027 0.03,-0.027 0.034,0.002 0.07,0.001 0.105,-0.002 0.033,-0.002 0.065,-0.007 0.095,-0.014l0.002 -0.001c0.011,-0.003 0.022,-0.006 0.033,-0.009 0.041,-0.011 0.087,-0.024 0.119,-0.016 0.023,0.006 0.063,0.03 0.092,0.067 0.021,0.027 0.038,0.061 0.042,0.101 0.007,0.083 0.016,0.168 0.021,0.251 0,0.017 -0.007,0.033 -0.019,0.044 -0.011,0.011 -0.026,0.018 -0.042,0.02l-0.006 0 -0.275 0z"/>
    <path class="fil1" d="M1.613 1.009c-0.015,-0.004 -0.024,-0.02 -0.02,-0.035 0.004,-0.015 0.019,-0.024 0.034,-0.02 0.011,0.003 0.023,0.005 0.034,0.007 0.011,0.001 0.022,0.002 0.035,0.002 0.074,0 0.141,-0.03 0.189,-0.079 0.049,-0.048 0.079,-0.115 0.079,-0.189 0,-0.074 -0.03,-0.142 -0.078,-0.19 -0.049,-0.048 -0.116,-0.079 -0.19,-0.079 -0.027,0 -0.052,0.004 -0.075,0.011 -0.025,0.007 -0.048,0.018 -0.069,0.031 -0.014,0.009 -0.031,0.005 -0.039,-0.008 -0.009,-0.013 -0.005,-0.031 0.008,-0.039 0.026,-0.017 0.054,-0.03 0.084,-0.038 0.029,-0.009 0.059,-0.013 0.091,-0.013 0.09,0 0.171,0.036 0.23,0.095 0.058,0.059 0.095,0.14 0.095,0.23 0,0.089 -0.037,0.171 -0.095,0.229 -0.059,0.059 -0.14,0.096 -0.23,0.096 -0.014,0 -0.028,-0.001 -0.042,-0.003 -0.014,-0.002 -0.028,-0.005 -0.041,-0.008z"/>
   </g>
  </g>
 </g>
</svg>
