<?xml version="1.0" encoding="UTF-8"?>
<!DOCTYPE svg PUBLIC "-//W3C//DTD SVG 1.1//EN" "http://www.w3.org/Graphics/SVG/1.1/DTD/svg11.dtd">
<!-- Creator: CorelDRAW 2018 (64-Bit) -->
<svg xmlns="http://www.w3.org/2000/svg" xml:space="preserve" width="42px" height="32px" version="1.1" style="shape-rendering:geometricPrecision; text-rendering:geometricPrecision; image-rendering:optimizeQuality; fill-rule:evenodd; clip-rule:evenodd"
viewBox="0 0 1.668 1.271"
 xmlns:xlink="http://www.w3.org/1999/xlink">
 <defs>
  <style type="text/css">
   <![CDATA[
    .fil0 {fill:none}
    .fil1 {fill:white;fill-rule:nonzero}
   ]]>
  </style>
 </defs>
 <g id="Layer_x0020_1">
  <metadata id="CorelCorpID_0Corel-Layer"/>
  <g id="_2815529596640">
   <rect class="fil0" width="1.668" height="1.271"/>
   <g>
    <path class="fil1" d="M0.582 0.828c0.024,-0.007 0.061,0.003 0.093,0.013 0.011,0.003 0.02,0.005 0.027,0.007 0.041,0.01 0.087,0.015 0.133,0.015 0.046,0 0.092,-0.005 0.133,-0.015 0.007,-0.002 0.016,-0.004 0.027,-0.007 0.032,-0.01 0.069,-0.02 0.093,-0.013 0.019,0.004 0.05,0.023 0.074,0.053 0.016,0.021 0.03,0.048 0.032,0.08l0.017 0.198 0.001 0.004c0,0.013 -0.006,0.024 -0.015,0.033 -0.008,0.008 -0.02,0.014 -0.032,0.015l-0.004 0 -0.652 0 -0.004 0c-0.012,-0.001 -0.024,-0.007 -0.032,-0.015 -0.009,-0.008 -0.015,-0.02 -0.015,-0.033 0.004,-0.067 0.012,-0.136 0.018,-0.202 0.003,-0.032 0.016,-0.059 0.032,-0.08 0.024,-0.03 0.055,-0.049 0.074,-0.053zm0.083 0.051c-0.028,-0.008 -0.059,-0.017 -0.073,-0.013 -0.013,0.003 -0.035,0.017 -0.053,0.039 -0.012,0.016 -0.022,0.036 -0.024,0.059l-0.017 0.199c0,0.002 0.001,0.003 0.003,0.005 0.002,0.002 0.004,0.003 0.007,0.003 0.206,0.007 0.447,0.006 0.654,0 0.003,0 0.006,-0.001 0.007,-0.003 0.002,-0.002 0.003,-0.003 0.003,-0.005l-0.017 -0.199c-0.002,-0.023 -0.012,-0.043 -0.024,-0.059 -0.018,-0.022 -0.04,-0.036 -0.052,-0.039 -0.015,-0.004 -0.046,0.005 -0.074,0.013 -0.009,0.002 -0.018,0.005 -0.028,0.007 -0.044,0.011 -0.093,0.016 -0.142,0.016 -0.049,0 -0.098,-0.005 -0.142,-0.016 -0.01,-0.002 -0.019,-0.005 -0.028,-0.007z"/>
    <path class="fil1" d="M0.834 0.281c0.071,0 0.136,0.029 0.183,0.075l0.001 0.002c0.046,0.046 0.075,0.111 0.075,0.182 0,0.071 -0.029,0.136 -0.076,0.183l-0.001 0.001c-0.047,0.046 -0.111,0.075 -0.182,0.075 -0.072,0 -0.136,-0.029 -0.183,-0.076 -0.047,-0.047 -0.076,-0.112 -0.076,-0.183 0,-0.072 0.029,-0.137 0.076,-0.183 0.047,-0.047 0.111,-0.076 0.183,-0.076zm0.155 0.104c-0.04,-0.04 -0.095,-0.065 -0.155,-0.065 -0.061,0 -0.116,0.025 -0.155,0.065 -0.04,0.039 -0.065,0.094 -0.065,0.155 0,0.06 0.025,0.115 0.065,0.155 0.039,0.04 0.094,0.064 0.155,0.064 0.06,0 0.114,-0.024 0.154,-0.063l0.001 -0.001c0.04,-0.04 0.064,-0.095 0.064,-0.155 0,-0.06 -0.024,-0.115 -0.063,-0.155l-0.001 0z"/>
    <path class="fil1" d="M0.394 1.029c0.011,0 0.02,0.009 0.02,0.02 0,0.011 -0.009,0.02 -0.02,0.02l-0.192 0 -0.004 0c-0.011,-0.001 -0.021,-0.006 -0.029,-0.014 -0.008,-0.008 -0.013,-0.018 -0.013,-0.03 0.003,-0.058 0.01,-0.118 0.015,-0.176 0.002,-0.028 0.014,-0.051 0.028,-0.07 0.021,-0.026 0.049,-0.043 0.065,-0.047 0.022,-0.006 0.055,0.003 0.083,0.011 0.008,0.002 0.016,0.005 0.023,0.006l0.001 0.001c0.021,0.005 0.044,0.008 0.067,0.01 0.024,0.002 0.049,0.003 0.073,0.002 0.011,-0.001 0.02,0.007 0.021,0.018 0,0.011 -0.008,0.021 -0.019,0.021 -0.026,0.001 -0.053,0.001 -0.078,-0.001 -0.025,-0.002 -0.049,-0.006 -0.073,-0.012l-0.001 0c-0.007,-0.002 -0.016,-0.004 -0.025,-0.007 -0.023,-0.006 -0.05,-0.014 -0.062,-0.011 -0.01,0.003 -0.028,0.014 -0.043,0.033 -0.011,0.014 -0.019,0.03 -0.021,0.05l-0.015 0.172c0,0 0.001,0.001 0.002,0.002 0.001,0.001 0.003,0.002 0.005,0.002l0.192 0z"/>
    <path class="fil1" d="M0.531 0.666c0.011,-0.002 0.022,0.004 0.024,0.014 0.003,0.011 -0.003,0.022 -0.014,0.025 -0.009,0.002 -0.018,0.004 -0.028,0.005 -0.01,0.001 -0.02,0.002 -0.03,0.002 -0.062,0 -0.119,-0.025 -0.16,-0.066 -0.041,-0.041 -0.067,-0.098 -0.067,-0.161 0,-0.062 0.026,-0.119 0.067,-0.16 0.041,-0.041 0.098,-0.067 0.16,-0.067 0.022,0 0.044,0.003 0.064,0.009 0.021,0.006 0.04,0.015 0.058,0.027 0.009,0.006 0.012,0.018 0.006,0.027 -0.006,0.009 -0.018,0.012 -0.027,0.006 -0.015,-0.009 -0.031,-0.017 -0.048,-0.022 -0.017,-0.005 -0.034,-0.007 -0.053,-0.007 -0.051,0 -0.098,0.021 -0.132,0.055 -0.034,0.034 -0.055,0.08 -0.055,0.132 0,0.052 0.021,0.099 0.055,0.133 0.034,0.033 0.081,0.054 0.132,0.054 0.009,0 0.017,0 0.025,-0.001 0.007,-0.001 0.015,-0.003 0.023,-0.005z"/>
    <path class="fil1" d="M1.273 1.069c-0.011,0 -0.019,-0.009 -0.019,-0.02 0,-0.011 0.008,-0.02 0.019,-0.02l0.193 0c0.002,0 0.004,-0.001 0.005,-0.002 0.001,-0.001 0.001,-0.002 0.001,-0.002l-0.014 -0.172c-0.002,-0.02 -0.01,-0.036 -0.021,-0.05 -0.015,-0.019 -0.033,-0.03 -0.043,-0.033 -0.012,-0.003 -0.039,0.005 -0.062,0.011 -0.009,0.003 -0.018,0.005 -0.025,0.007l-0.002 0c-0.023,0.006 -0.047,0.01 -0.072,0.012 -0.026,0.002 -0.052,0.002 -0.078,0.001 -0.011,0 -0.02,-0.01 -0.019,-0.021 0,-0.011 0.01,-0.019 0.02,-0.018 0.025,0.001 0.049,0 0.074,-0.002 0.023,-0.002 0.045,-0.005 0.066,-0.01l0.002 -0.001c0.007,-0.001 0.015,-0.004 0.023,-0.006 0.028,-0.008 0.06,-0.017 0.083,-0.011 0.016,0.004 0.044,0.021 0.064,0.047 0.015,0.019 0.027,0.042 0.029,0.07 0.005,0.058 0.012,0.118 0.015,0.176 0,0.012 -0.005,0.022 -0.013,0.03 -0.008,0.008 -0.018,0.013 -0.029,0.014l-0.005 0 -0.192 0z"/>
    <path class="fil1" d="M1.126 0.705c-0.01,-0.003 -0.017,-0.014 -0.014,-0.025 0.003,-0.01 0.014,-0.016 0.024,-0.014 0.008,0.002 0.016,0.004 0.024,0.005 0.008,0.001 0.016,0.001 0.024,0.001 0.052,0 0.099,-0.021 0.133,-0.054 0.034,-0.034 0.055,-0.081 0.055,-0.133 0,-0.052 -0.021,-0.098 -0.055,-0.132 -0.034,-0.034 -0.081,-0.055 -0.133,-0.055 -0.018,0 -0.036,0.002 -0.052,0.007 -0.017,0.005 -0.034,0.013 -0.048,0.022 -0.01,0.006 -0.022,0.003 -0.028,-0.006 -0.005,-0.009 -0.003,-0.021 0.006,-0.027 0.018,-0.012 0.038,-0.021 0.059,-0.027 0.02,-0.006 0.041,-0.009 0.063,-0.009 0.063,0 0.12,0.026 0.161,0.067 0.041,0.041 0.066,0.098 0.066,0.16 0,0.063 -0.025,0.12 -0.066,0.161 -0.041,0.041 -0.098,0.066 -0.161,0.066 -0.009,0 -0.019,-0.001 -0.029,-0.002 -0.01,-0.001 -0.019,-0.003 -0.029,-0.005z"/>
   </g>
  </g>
 </g>
</svg>
