<svg xmlns="http://www.w3.org/2000/svg" width="23.38" height="23.7" viewBox="0 0 23.38 23.7">
  <g id="Icon" transform="translate(-170.5 -147.35)">
    <g id="Polygon_3" transform="translate(191.5 147.2) rotate(90)">
      <path id="Path_356" data-name="Path 356" d="M20.9,7.1l2,3.4L17.4,20H6.6L1.2,10.5,6.6,1h6.9a3.083,3.083,0,0,1,.1-1h-7a1.05,1.05,0,0,0-.9.5L.3,10a.908.908,0,0,0,0,1l5.4,9.5a1.05,1.05,0,0,0,.9.5H17.4a1.05,1.05,0,0,0,.9-.5L23.7,11a.908.908,0,0,0,0-1L21.9,6.8C21.6,6.9,21.2,7,20.9,7.1Z" fill="#00f4ff"/>
    </g>
    <path id="Path_62" d="M173.2,154.8l7.7,4.4,7.5-4.4" fill="none" stroke="#00f4ff" stroke-linecap="round" stroke-linejoin="round" stroke-width="1"/>
    <path id="Path_63" d="M181,161.4v7.2" fill="none" stroke="#00f4ff" stroke-linecap="round" stroke-width="1"/>
    <path id="Path_64" d="M180.9,149.9v2.8" fill="none" stroke="#00f4ff" stroke-linecap="round" stroke-width="1"/>
    <path id="Path_65" d="M175.1,162.6l-2.4,1.4" fill="none" stroke="#00f4ff" stroke-linecap="round" stroke-width="1"/>
    <g id="Group_115" transform="translate(-744 -99.496)">
      <path id="Path_348" d="M934.2,261.7a2.589,2.589,0,0,1,1.1.7l1.4-.4a7.459,7.459,0,0,1,.7,1.2l-1.1,1a2.855,2.855,0,0,1,0,1.3l1.1,1a7.462,7.462,0,0,1-.7,1.2l-1.4-.4a4.13,4.13,0,0,1-1.1.7l-.3,1.4a3.3,3.3,0,0,1-1.4,0l-.3-1.4a2.589,2.589,0,0,1-1.1-.7l-1.4.4a7.459,7.459,0,0,1-.7-1.2l1.1-1a2.855,2.855,0,0,1,0-1.3l-1.1-1a7.462,7.462,0,0,1,.7-1.2l1.4.4a4.13,4.13,0,0,1,1.1-.7l.3-1.4a3.3,3.3,0,0,1,1.4,0Z" fill="none" stroke="#00f4ff" stroke-linecap="round" stroke-linejoin="round" stroke-width="0.96"/>
      <path id="Path_349" d="M933.2,266.2a1.4,1.4,0,1,0-1.4-1.4h0A1.367,1.367,0,0,0,933.2,266.2Z" fill="none" stroke="#00f4ff" stroke-linecap="round" stroke-linejoin="round" stroke-width="0.96"/>
    </g>
  </g>
</svg>
