<?xml version="1.0" encoding="UTF-8"?>
<!DOCTYPE svg PUBLIC "-//W3C//DTD SVG 1.1//EN" "http://www.w3.org/Graphics/SVG/1.1/DTD/svg11.dtd">
<!-- Creator: CorelDRAW 2018 (64-Bit) -->
<svg xmlns="http://www.w3.org/2000/svg" xml:space="preserve" width="42px" height="32px" version="1.1" style="shape-rendering:geometricPrecision; text-rendering:geometricPrecision; image-rendering:optimizeQuality; fill-rule:evenodd; clip-rule:evenodd"
viewBox="0 0 1.235 0.941"
 xmlns:xlink="http://www.w3.org/1999/xlink">
 <defs>
  <style type="text/css">
   <![CDATA[
    .fil0 {fill:none}
    .fil2 {fill:#00F4FF}
    .fil1 {fill:#00F4FF;fill-rule:nonzero}
   ]]>
  </style>
 </defs>
 <g id="Layer_x0020_1">
  <metadata id="CorelCorpID_0Corel-Layer"/>
  <g id="_2815449488880">
   <rect class="fil0" width="1.235" height="0.941"/>
   <g>
    <path class="fil1" d="M0.861 0.431c0.076,0 0.144,0.023 0.194,0.061 0.05,0.039 0.082,0.093 0.082,0.153 0,0.034 -0.01,0.066 -0.029,0.095 -0.017,0.026 -0.041,0.05 -0.07,0.069l0.008 0.102c0,0.008 -0.006,0.015 -0.014,0.015 -0.004,0.001 -0.008,-0.001 -0.011,-0.004l-0.074 -0.074c-0.013,0.003 -0.025,0.006 -0.038,0.007 -0.016,0.002 -0.032,0.003 -0.048,0.003 -0.075,0 -0.144,-0.023 -0.193,-0.061 -0.051,-0.039 -0.083,-0.093 -0.083,-0.152 0,-0.06 0.032,-0.114 0.083,-0.153 0.049,-0.038 0.118,-0.061 0.193,-0.061zm0.176 0.085c-0.045,-0.035 -0.107,-0.056 -0.176,-0.056 -0.069,0 -0.131,0.021 -0.176,0.056 -0.043,0.033 -0.07,0.079 -0.07,0.129 0,0.05 0.027,0.096 0.07,0.129 0.045,0.034 0.107,0.055 0.176,0.055 0.015,0 0.03,-0.001 0.044,-0.003 0.014,-0.002 0.028,-0.005 0.041,-0.008 0.005,-0.002 0.011,-0.001 0.015,0.003l0.052 0.052 -0.005 -0.071c-0.001,-0.005 0.002,-0.01 0.007,-0.013 0.029,-0.018 0.053,-0.04 0.069,-0.065 0.015,-0.024 0.024,-0.051 0.024,-0.079 0,-0.05 -0.027,-0.096 -0.071,-0.129z"/>
    <path class="fil2" d="M0.742 0.615c0.017,0 0.031,0.014 0.031,0.03 0,0.017 -0.014,0.031 -0.031,0.031 -0.017,0 -0.03,-0.014 -0.03,-0.031 0,-0.016 0.013,-0.03 0.03,-0.03z"/>
    <path class="fil2" d="M0.861 0.615c0.017,0 0.031,0.014 0.031,0.03 0,0.017 -0.014,0.031 -0.031,0.031 -0.017,0 -0.03,-0.014 -0.03,-0.031 0,-0.016 0.013,-0.03 0.03,-0.03z"/>
    <path class="fil2" d="M0.98 0.615c0.017,0 0.031,0.014 0.031,0.03 0,0.017 -0.014,0.031 -0.031,0.031 -0.017,0 -0.031,-0.014 -0.031,-0.031 0,-0.016 0.014,-0.03 0.031,-0.03z"/>
    <path class="fil1" d="M0.369 0.169c0.008,0 0.015,0.006 0.015,0.014 0,0.008 -0.007,0.015 -0.015,0.015l-0.119 0c-0.001,0 -0.003,0.001 -0.003,0.001 -0.001,0.001 -0.002,0.002 -0.002,0.004l0 0.579c0,0.001 0.001,0.002 0.002,0.003 0,0.001 0.002,0.002 0.003,0.002l0.324 0c0.008,0 0.014,0.006 0.014,0.014 0,0.008 -0.006,0.015 -0.014,0.015l-0.324 0c-0.01,0 -0.018,-0.004 -0.024,-0.01 -0.006,-0.006 -0.01,-0.015 -0.01,-0.024l0 -0.579c0,-0.01 0.004,-0.018 0.01,-0.024 0.006,-0.007 0.014,-0.01 0.024,-0.01l0.119 0zm0.554 0.172c0,0.008 -0.006,0.014 -0.015,0.014 -0.008,0 -0.014,-0.006 -0.014,-0.014l0 -0.138c0,-0.002 -0.001,-0.003 -0.002,-0.004 -0.001,0 -0.002,-0.001 -0.003,-0.001l-0.08 0c-0.008,0 -0.015,-0.007 -0.015,-0.015 0,-0.008 0.007,-0.014 0.015,-0.014l0.08 0c0.009,0 0.018,0.003 0.024,0.01 0.006,0.006 0.01,0.014 0.01,0.024l0 0.138z"/>
    <path class="fil1" d="M0.722 0.169c0.008,0 0.015,0.006 0.015,0.014 0,0.008 -0.007,0.015 -0.015,0.015l-0.06 0c-0.008,0 -0.015,-0.007 -0.015,-0.015 0,-0.008 0.007,-0.014 0.015,-0.014l0.06 0z"/>
    <path class="fil1" d="M0.545 0.169c0.008,0 0.015,0.006 0.015,0.014 0,0.008 -0.007,0.015 -0.015,0.015l-0.058 0c-0.008,0 -0.015,-0.007 -0.015,-0.015 0,-0.008 0.007,-0.014 0.015,-0.014l0.058 0z"/>
    <path class="fil1" d="M0.746 0.134c-0.002,0 -0.005,0.001 -0.006,0.003 -0.002,0.001 -0.003,0.004 -0.003,0.006l0 0.08c0,0.003 0.001,0.005 0.002,0.007 0.002,0.002 0.005,0.003 0.007,0.003 0.003,0 0.005,-0.001 0.007,-0.003 0.002,-0.002 0.003,-0.004 0.003,-0.007l0 -0.08c0,-0.002 -0.001,-0.005 -0.003,-0.006 -0.002,-0.002 -0.004,-0.003 -0.007,-0.003zm0 -0.029c0.011,0 0.02,0.004 0.027,0.011l0.001 0c0.007,0.007 0.011,0.017 0.011,0.027l0 0.08c0,0.011 -0.004,0.021 -0.011,0.028l0 0c-0.008,0.007 -0.017,0.011 -0.028,0.011 -0.01,0 -0.02,-0.004 -0.027,-0.011l0 0c-0.007,-0.007 -0.012,-0.017 -0.012,-0.028l0 -0.08c0,-0.01 0.005,-0.02 0.012,-0.027l0 0c0.007,-0.007 0.017,-0.011 0.027,-0.011z"/>
    <path class="fil1" d="M0.569 0.134c-0.002,0 -0.004,0.001 -0.006,0.003 -0.002,0.001 -0.003,0.004 -0.003,0.006l0 0.08c0,0.003 0.001,0.005 0.003,0.007 0.002,0.002 0.004,0.003 0.006,0.003 0.003,0 0.005,-0.001 0.007,-0.003 0.002,-0.002 0.003,-0.004 0.003,-0.007l0 -0.08c0,-0.002 -0.001,-0.005 -0.003,-0.006 -0.002,-0.002 -0.004,-0.003 -0.007,-0.003zm0 -0.029c0.011,0 0.021,0.004 0.028,0.011l0 0c0.007,0.007 0.011,0.017 0.011,0.027l0 0.08c0,0.011 -0.004,0.021 -0.011,0.028l0 0c-0.007,0.007 -0.017,0.011 -0.028,0.011 -0.01,0 -0.02,-0.004 -0.027,-0.011l0 0c-0.007,-0.007 -0.011,-0.017 -0.011,-0.028l0 -0.08c0,-0.01 0.004,-0.02 0.011,-0.027l0 0c0.007,-0.007 0.017,-0.011 0.027,-0.011z"/>
    <path class="fil1" d="M0.393 0.134c-0.003,0 -0.005,0.001 -0.007,0.003 -0.001,0.001 -0.002,0.004 -0.002,0.006l0 0.08c0,0.003 0.001,0.005 0.002,0.007 0.002,0.002 0.004,0.003 0.007,0.003 0.003,0 0.005,-0.001 0.007,-0.003 0.001,-0.002 0.002,-0.004 0.002,-0.007l0 -0.08c0,-0.002 -0.001,-0.005 -0.002,-0.006 -0.002,-0.002 -0.004,-0.003 -0.007,-0.003zm0 -0.029c0.011,0 0.02,0.004 0.027,0.011l0 0c0.007,0.007 0.012,0.017 0.012,0.027l0 0.08c0,0.011 -0.005,0.021 -0.012,0.028l0 0c-0.007,0.007 -0.016,0.011 -0.027,0.011 -0.011,0 -0.02,-0.004 -0.027,-0.011l0 0c-0.007,-0.007 -0.012,-0.017 -0.012,-0.028l0 -0.08c0,-0.01 0.005,-0.02 0.012,-0.027l0 0c0.007,-0.007 0.016,-0.011 0.027,-0.011z"/>
    <path class="fil1" d="M0.351 0.377l0.059 0c0.006,0 0.012,0.002 0.016,0.006 0.004,0.005 0.007,0.01 0.007,0.017l0 0.058c0,0.007 -0.003,0.012 -0.007,0.017 -0.004,0.004 -0.01,0.006 -0.016,0.006l-0.059 0c-0.006,0 -0.012,-0.002 -0.016,-0.006 -0.004,-0.005 -0.007,-0.01 -0.007,-0.017l0 -0.058c0,-0.007 0.003,-0.012 0.007,-0.017 0.004,-0.004 0.01,-0.006 0.016,-0.006zm0.053 0.029l-0.046 0 0 0.046 0.046 0 0 -0.046z"/>
    <path class="fil1" d="M0.54 0.377l0.059 0c0.006,0 0.012,0.002 0.016,0.006 0.004,0.005 0.007,0.01 0.007,0.017l0 0.058c0,0.007 -0.003,0.012 -0.007,0.017 -0.004,0.004 -0.01,0.006 -0.016,0.006l-0.059 0c-0.006,0 -0.012,-0.002 -0.016,-0.006 -0.004,-0.005 -0.007,-0.01 -0.007,-0.017l0 -0.058c0,-0.007 0.003,-0.012 0.007,-0.017 0.004,-0.004 0.01,-0.006 0.016,-0.006zm0.052 0.029l-0.045 0 0 0.046 0.045 0 0 -0.046z"/>
    <path class="fil1" d="M0.351 0.569l0.059 0c0.006,0 0.012,0.003 0.016,0.007 0.004,0.004 0.007,0.01 0.007,0.016l0 0.059c0,0.006 -0.003,0.012 -0.007,0.016 -0.004,0.004 -0.01,0.007 -0.016,0.007l-0.059 0c-0.006,0 -0.012,-0.003 -0.016,-0.007 -0.004,-0.004 -0.007,-0.01 -0.007,-0.016l0 -0.059c0,-0.006 0.003,-0.012 0.007,-0.016 0.004,-0.004 0.01,-0.007 0.016,-0.007zm0.053 0.03l-0.046 0 0 0.046 0.046 0 0 -0.046z"/>
   </g>
  </g>
 </g>
</svg>
