<?xml version="1.0" encoding="UTF-8"?>
<!DOCTYPE svg PUBLIC "-//W3C//DTD SVG 1.1//EN" "http://www.w3.org/Graphics/SVG/1.1/DTD/svg11.dtd">
<!-- Creator: CorelDRAW 2018 (64-Bit) -->
<svg xmlns="http://www.w3.org/2000/svg" xml:space="preserve" width="42px" height="32px" version="1.1" style="shape-rendering:geometricPrecision; text-rendering:geometricPrecision; image-rendering:optimizeQuality; fill-rule:evenodd; clip-rule:evenodd"
viewBox="0 0 1.008 0.768"
 xmlns:xlink="http://www.w3.org/1999/xlink">
 <defs>
  <style type="text/css">
   <![CDATA[
    .fil0 {fill:none}
    .fil2 {fill:white}
    .fil1 {fill:white;fill-rule:nonzero}
   ]]>
  </style>
 </defs>
 <g id="Layer_x0020_1">
  <metadata id="CorelCorpID_0Corel-Layer"/>
  <g id="_2814718623792">
   <rect class="fil0" width="1.008" height="0.768"/>
   <g>
    <path class="fil1" d="M0.703 0.352c0.061,0 0.117,0.019 0.158,0.05 0.041,0.031 0.067,0.075 0.067,0.124 0,0.028 -0.008,0.054 -0.023,0.078 -0.014,0.022 -0.034,0.041 -0.058,0.056l0.006 0.083c0.001,0.007 -0.004,0.012 -0.011,0.013 -0.003,0 -0.007,-0.001 -0.009,-0.003l-0.06 -0.061c-0.01,0.003 -0.021,0.005 -0.031,0.006 -0.013,0.002 -0.026,0.003 -0.039,0.003 -0.062,0 -0.118,-0.02 -0.158,-0.05 -0.042,-0.032 -0.067,-0.076 -0.067,-0.125 0,-0.049 0.025,-0.093 0.067,-0.124 0.04,-0.031 0.096,-0.05 0.158,-0.05zm0.143 0.069c-0.036,-0.028 -0.087,-0.045 -0.143,-0.045 -0.056,0 -0.107,0.017 -0.144,0.045 -0.035,0.027 -0.057,0.064 -0.057,0.105 0,0.041 0.022,0.078 0.057,0.106 0.037,0.027 0.088,0.045 0.144,0.045 0.012,0 0.024,-0.001 0.036,-0.003 0.011,-0.001 0.022,-0.004 0.033,-0.007 0.004,-0.001 0.009,0 0.013,0.003l0.042 0.042 -0.005 -0.057c0,-0.004 0.002,-0.009 0.006,-0.011 0.024,-0.014 0.043,-0.033 0.056,-0.053 0.013,-0.02 0.02,-0.042 0.02,-0.065 0,-0.041 -0.022,-0.078 -0.058,-0.105z"/>
    <path class="fil2" d="M0.606 0.502c0.014,0 0.025,0.011 0.025,0.025 0,0.014 -0.011,0.025 -0.025,0.025 -0.014,0 -0.025,-0.011 -0.025,-0.025 0,-0.014 0.011,-0.025 0.025,-0.025z"/>
    <path class="fil2" d="M0.703 0.502c0.014,0 0.025,0.011 0.025,0.025 0,0.014 -0.011,0.025 -0.025,0.025 -0.014,0 -0.025,-0.011 -0.025,-0.025 0,-0.014 0.011,-0.025 0.025,-0.025z"/>
    <path class="fil2" d="M0.8 0.502c0.014,0 0.025,0.011 0.025,0.025 0,0.014 -0.011,0.025 -0.025,0.025 -0.014,0 -0.025,-0.011 -0.025,-0.025 0,-0.014 0.011,-0.025 0.025,-0.025z"/>
    <path class="fil1" d="M0.301 0.138c0.007,0 0.012,0.005 0.012,0.012 0,0.006 -0.005,0.012 -0.012,0.012l-0.097 0c-0.001,0 -0.002,0 -0.003,0.001 0,0 -0.001,0.001 -0.001,0.002l0 0.473c0,0.001 0.001,0.002 0.001,0.003 0.001,0.001 0.002,0.001 0.003,0.001l0.264 0c0.007,0 0.012,0.005 0.012,0.012 0,0.007 -0.005,0.012 -0.012,0.012l-0.264 0c-0.008,0 -0.015,-0.003 -0.02,-0.008 -0.005,-0.005 -0.008,-0.012 -0.008,-0.02l0 -0.473c0,-0.007 0.003,-0.014 0.008,-0.019 0.005,-0.005 0.012,-0.008 0.02,-0.008l0.097 0zm0.452 0.14c0,0.007 -0.005,0.012 -0.012,0.012 -0.006,0 -0.012,-0.005 -0.012,-0.012l0 -0.113c0,-0.001 0,-0.002 -0.001,-0.002 0,-0.001 -0.001,-0.001 -0.002,-0.001l-0.066 0c-0.006,0 -0.012,-0.006 -0.012,-0.012 0,-0.007 0.006,-0.012 0.012,-0.012l0.066 0c0.007,0 0.014,0.003 0.019,0.008 0.005,0.005 0.008,0.012 0.008,0.019l0 0.113z"/>
    <path class="fil1" d="M0.589 0.138c0.007,0 0.012,0.005 0.012,0.012 0,0.006 -0.005,0.012 -0.012,0.012l-0.049 0c-0.007,0 -0.012,-0.006 -0.012,-0.012 0,-0.007 0.005,-0.012 0.012,-0.012l0.049 0z"/>
    <path class="fil1" d="M0.445 0.138c0.007,0 0.012,0.005 0.012,0.012 0,0.006 -0.005,0.012 -0.012,0.012l-0.048 0c-0.006,0 -0.012,-0.006 -0.012,-0.012 0,-0.007 0.006,-0.012 0.012,-0.012l0.048 0z"/>
    <path class="fil1" d="M0.609 0.109c-0.002,0 -0.004,0.001 -0.005,0.003 -0.002,0.001 -0.003,0.003 -0.003,0.005l0 0.065c0,0.002 0.001,0.004 0.003,0.006 0.001,0.001 0.003,0.002 0.005,0.002 0.002,0 0.004,-0.001 0.005,-0.002 0.002,-0.002 0.003,-0.004 0.003,-0.006l0 -0.065c0,-0.002 -0.001,-0.004 -0.003,-0.005 -0.001,-0.002 -0.003,-0.003 -0.005,-0.003zm0 -0.024c0.009,0 0.017,0.004 0.022,0.01l0 0c0.006,0.005 0.01,0.013 0.01,0.022l0 0.065c0,0.009 -0.004,0.017 -0.01,0.023l0 0c-0.005,0.005 -0.013,0.009 -0.022,0.009 -0.009,0 -0.017,-0.004 -0.022,-0.009l0 0c-0.006,-0.006 -0.01,-0.014 -0.01,-0.023l0 -0.065c0,-0.009 0.004,-0.017 0.01,-0.022l0 0c0.005,-0.006 0.013,-0.01 0.022,-0.01z"/>
    <path class="fil1" d="M0.465 0.109c-0.002,0 -0.004,0.001 -0.006,0.003 -0.001,0.001 -0.002,0.003 -0.002,0.005l0 0.065c0,0.002 0.001,0.004 0.002,0.006 0.002,0.001 0.004,0.002 0.006,0.002 0.002,0 0.004,-0.001 0.005,-0.002 0.002,-0.002 0.002,-0.004 0.002,-0.006l0 -0.065c0,-0.002 0,-0.004 -0.002,-0.005 -0.001,-0.002 -0.003,-0.003 -0.005,-0.003zm0 -0.024c0.008,0 0.016,0.004 0.022,0.01l0 0c0.006,0.005 0.009,0.013 0.009,0.022l0 0.065c0,0.009 -0.003,0.017 -0.009,0.023l0 0c-0.006,0.005 -0.014,0.009 -0.022,0.009 -0.009,0 -0.017,-0.004 -0.023,-0.009l0 0c-0.005,-0.006 -0.009,-0.014 -0.009,-0.023l0 -0.065c0,-0.009 0.004,-0.017 0.009,-0.022l0 0c0.006,-0.006 0.014,-0.01 0.023,-0.01z"/>
    <path class="fil1" d="M0.321 0.109c-0.002,0 -0.004,0.001 -0.006,0.003 -0.001,0.001 -0.002,0.003 -0.002,0.005l0 0.065c0,0.002 0.001,0.004 0.002,0.006 0.002,0.001 0.004,0.002 0.006,0.002 0.002,0 0.004,-0.001 0.005,-0.002 0.002,-0.002 0.002,-0.004 0.002,-0.006l0 -0.065c0,-0.002 0,-0.004 -0.002,-0.005 -0.001,-0.002 -0.003,-0.003 -0.005,-0.003zm0 -0.024c0.008,0 0.016,0.004 0.022,0.01l0 0c0.006,0.005 0.009,0.013 0.009,0.022l0 0.065c0,0.009 -0.003,0.017 -0.009,0.023l0 0c-0.006,0.005 -0.014,0.009 -0.022,0.009 -0.009,0 -0.017,-0.004 -0.023,-0.009l0 0c-0.005,-0.006 -0.009,-0.014 -0.009,-0.023l0 -0.065c0,-0.009 0.004,-0.017 0.009,-0.022l0 0c0.006,-0.006 0.014,-0.01 0.023,-0.01z"/>
    <path class="fil1" d="M0.287 0.307l0.048 0c0.005,0 0.01,0.002 0.013,0.006 0.003,0.003 0.005,0.008 0.005,0.013l0 0.048c0,0.005 -0.002,0.01 -0.005,0.013 -0.003,0.004 -0.008,0.006 -0.013,0.006l-0.048 0c-0.006,0 -0.01,-0.002 -0.014,-0.006 -0.003,-0.003 -0.005,-0.008 -0.005,-0.013l0 -0.048c0,-0.005 0.002,-0.01 0.005,-0.013 0.004,-0.004 0.008,-0.006 0.014,-0.006zm0.042 0.024l-0.037 0 0 0.038 0.037 0 0 -0.038z"/>
    <path class="fil1" d="M0.441 0.307l0.048 0c0.005,0 0.01,0.002 0.013,0.006 0.003,0.003 0.005,0.008 0.005,0.013l0 0.048c0,0.005 -0.002,0.01 -0.005,0.013 -0.003,0.004 -0.008,0.006 -0.013,0.006l-0.048 0c-0.005,0 -0.01,-0.002 -0.013,-0.006 -0.004,-0.003 -0.006,-0.008 -0.006,-0.013l0 -0.048c0,-0.005 0.002,-0.01 0.006,-0.013 0.003,-0.004 0.008,-0.006 0.013,-0.006zm0.042 0.024l-0.037 0 0 0.038 0.037 0 0 -0.038z"/>
    <path class="fil1" d="M0.287 0.465l0.048 0c0.005,0 0.01,0.002 0.013,0.005 0.003,0.003 0.005,0.008 0.005,0.013l0 0.048c0,0.005 -0.002,0.01 -0.005,0.014 -0.003,0.003 -0.008,0.005 -0.013,0.005l-0.048 0c-0.006,0 -0.01,-0.002 -0.014,-0.005 -0.003,-0.004 -0.005,-0.009 -0.005,-0.014l0 -0.048c0,-0.005 0.002,-0.01 0.005,-0.013 0.004,-0.003 0.008,-0.005 0.014,-0.005zm0.042 0.024l-0.037 0 0 0.037 0.037 0 0 -0.037z"/>
   </g>
  </g>
 </g>
</svg>
