<?xml version="1.0" encoding="UTF-8"?>
<!DOCTYPE svg PUBLIC "-//W3C//DTD SVG 1.1//EN" "http://www.w3.org/Graphics/SVG/1.1/DTD/svg11.dtd">
<!-- Creator: CorelDRAW 2018 (64-Bit) -->
<svg xmlns="http://www.w3.org/2000/svg" xml:space="preserve" width="42px" height="32px" version="1.1" style="shape-rendering:geometricPrecision; text-rendering:geometricPrecision; image-rendering:optimizeQuality; fill-rule:evenodd; clip-rule:evenodd"
viewBox="0 0 1.008 0.768"
 xmlns:xlink="http://www.w3.org/1999/xlink">
 <defs>
  <style type="text/css">
   <![CDATA[
    .fil0 {fill:none}
    .fil1 {fill:white;fill-rule:nonzero}
   ]]>
  </style>
 </defs>
 <g id="Layer_x0020_1">
  <metadata id="CorelCorpID_0Corel-Layer"/>
  <g id="_2815516938256">
   <rect class="fil0" width="1.008" height="0.768"/>
   <g>
    <path class="fil1" d="M0.168 0.369l0 -0.066c0,-0.019 0.008,-0.036 0.021,-0.048 0.012,-0.012 0.03,-0.02 0.049,-0.02l0.532 0c0.02,0 0.037,0.008 0.049,0.02 0.013,0.012 0.021,0.029 0.021,0.048l0 0.068c0,0.005 -0.003,0.01 -0.008,0.011 -0.044,0.017 -0.087,0.033 -0.129,0.049 -0.039,0.014 -0.076,0.029 -0.125,0.047l-0.01 0.004c-0.019,0.007 -0.036,0.014 -0.064,0.014 -0.028,0 -0.045,-0.007 -0.063,-0.014l-0.011 -0.004c-0.046,-0.017 -0.084,-0.032 -0.124,-0.048 -0.041,-0.016 -0.083,-0.032 -0.13,-0.05 -0.005,-0.001 -0.008,-0.006 -0.008,-0.011zm0.024 -0.066l0 0.058c0.046,0.017 0.085,0.032 0.123,0.047 0.04,0.016 0.08,0.031 0.123,0.047l0.011 0.005c0.017,0.006 0.031,0.012 0.055,0.012 0.024,0 0.038,-0.006 0.055,-0.013l0.011 -0.004c0.041,-0.015 0.083,-0.031 0.125,-0.047 0.036,-0.014 0.073,-0.028 0.121,-0.045l0 -0.06c0,-0.012 -0.005,-0.023 -0.013,-0.031 -0.008,-0.008 -0.02,-0.013 -0.033,-0.013l-0.532 0c-0.013,0 -0.025,0.005 -0.033,0.013 -0.008,0.008 -0.013,0.019 -0.013,0.031z"/>
    <path class="fil1" d="M0.804 0.455c0,-0.006 0.006,-0.012 0.012,-0.012 0.007,0 0.012,0.006 0.012,0.012l0 0.21c0,0.018 -0.007,0.035 -0.019,0.047 -0.013,0.012 -0.03,0.02 -0.048,0.02l-0.514 0c-0.018,0 -0.035,-0.008 -0.047,-0.02 -0.013,-0.012 -0.02,-0.029 -0.02,-0.047l0 -0.211c0,-0.007 0.005,-0.012 0.012,-0.012 0.006,0 0.012,0.005 0.012,0.012l0 0.211c0,0.012 0.005,0.022 0.012,0.03 0.008,0.008 0.019,0.013 0.031,0.013l0.514 0c0.012,0 0.023,-0.005 0.031,-0.013 0.007,-0.008 0.012,-0.018 0.012,-0.03l0 -0.21z"/>
    <path class="fil1" d="M0.561 0.469c0,-0.006 0.005,-0.012 0.012,-0.012 0.006,0 0.012,0.006 0.012,0.012l0 0.088c0,0.007 -0.006,0.012 -0.012,0.012l-0.138 0c-0.006,0 -0.012,-0.005 -0.012,-0.012l0 -0.088c0,-0.006 0.006,-0.012 0.012,-0.012 0.007,0 0.012,0.006 0.012,0.012l0 0.076 0.114 0 0 -0.076z"/>
    <path class="fil1" d="M0.379 0.211c0,0.007 -0.005,0.012 -0.012,0.012 -0.006,0 -0.012,-0.005 -0.012,-0.012 0,-0.022 0.009,-0.041 0.024,-0.056 0.014,-0.014 0.034,-0.023 0.055,-0.023l0.14 0c0.021,0 0.041,0.009 0.055,0.023 0.015,0.015 0.024,0.034 0.024,0.056 0,0.007 -0.006,0.012 -0.012,0.012 -0.007,0 -0.012,-0.005 -0.012,-0.012 0,-0.015 -0.007,-0.029 -0.017,-0.039 -0.009,-0.01 -0.023,-0.016 -0.038,-0.016l-0.14 0c-0.015,0 -0.029,0.006 -0.038,0.016 -0.01,0.01 -0.017,0.024 -0.017,0.039z"/>
   </g>
  </g>
 </g>
</svg>
