<?xml version="1.0" encoding="UTF-8"?>
<!DOCTYPE svg PUBLIC "-//W3C//DTD SVG 1.1//EN" "http://www.w3.org/Graphics/SVG/1.1/DTD/svg11.dtd">
<!-- Creator: CorelDRAW 2018 (64-Bit) -->
<svg xmlns="http://www.w3.org/2000/svg" xml:space="preserve" width="42px" height="32px" version="1.1" style="shape-rendering:geometricPrecision; text-rendering:geometricPrecision; image-rendering:optimizeQuality; fill-rule:evenodd; clip-rule:evenodd"
viewBox="0 0 1.235 0.941"
 xmlns:xlink="http://www.w3.org/1999/xlink">
 <defs>
  <style type="text/css">
   <![CDATA[
    .fil0 {fill:none}
    .fil1 {fill:#00F4FF;fill-rule:nonzero}
   ]]>
  </style>
 </defs>
 <g id="Layer_x0020_1">
  <metadata id="CorelCorpID_0Corel-Layer"/>
  <g id="_2815449479760">
   <rect class="fil0" width="1.235" height="0.941"/>
   <g>
    <path class="fil1" d="M0.206 0.452l0 -0.081c0,-0.023 0.01,-0.043 0.025,-0.058 0.016,-0.015 0.037,-0.025 0.06,-0.025l0.653 0c0.023,0 0.045,0.01 0.06,0.025 0.016,0.015 0.025,0.035 0.025,0.058l0 0.083c0,0.007 -0.004,0.012 -0.01,0.014 -0.054,0.021 -0.106,0.04 -0.158,0.06 -0.047,0.018 -0.093,0.035 -0.152,0.057l-0.014 0.005c-0.022,0.009 -0.043,0.017 -0.077,0.017 -0.035,0 -0.055,-0.008 -0.078,-0.017l-0.013 -0.005c-0.056,-0.021 -0.104,-0.039 -0.152,-0.058 -0.05,-0.019 -0.101,-0.039 -0.16,-0.061 -0.005,-0.002 -0.009,-0.008 -0.009,-0.014zm0.029 -0.081l0 0.071c0.057,0.021 0.104,0.04 0.151,0.058 0.049,0.019 0.097,0.038 0.151,0.058l0.014 0.005c0.02,0.008 0.037,0.015 0.067,0.015 0.029,0 0.047,-0.007 0.067,-0.015l0.013 -0.005c0.051,-0.019 0.102,-0.038 0.153,-0.058 0.045,-0.017 0.09,-0.034 0.149,-0.056l0 -0.073c0,-0.014 -0.006,-0.028 -0.016,-0.037 -0.01,-0.01 -0.024,-0.016 -0.04,-0.016l-0.653 0c-0.015,0 -0.029,0.006 -0.04,0.016 -0.01,0.009 -0.016,0.023 -0.016,0.037z"/>
    <path class="fil1" d="M0.986 0.558c0,-0.008 0.006,-0.015 0.014,-0.015 0.008,0 0.015,0.007 0.015,0.015l0 0.256c0,0.023 -0.009,0.044 -0.024,0.059 -0.015,0.015 -0.036,0.024 -0.059,0.024l-0.629 0c-0.023,0 -0.044,-0.009 -0.059,-0.024 -0.014,-0.015 -0.024,-0.036 -0.024,-0.059l0 -0.258c0,-0.008 0.007,-0.015 0.015,-0.015 0.008,0 0.015,0.007 0.015,0.015l0 0.258c0,0.015 0.006,0.028 0.015,0.038 0.01,0.01 0.023,0.016 0.038,0.016l0.629 0c0.015,0 0.028,-0.006 0.038,-0.016 0.01,-0.01 0.016,-0.023 0.016,-0.038l0 -0.256z"/>
    <path class="fil1" d="M0.687 0.575c0,-0.008 0.007,-0.015 0.015,-0.015 0.008,0 0.014,0.007 0.014,0.015l0 0.108c0,0.008 -0.006,0.014 -0.014,0.014l-0.169 0c-0.008,0 -0.014,-0.006 -0.014,-0.014l0 -0.108c0,-0.008 0.006,-0.015 0.014,-0.015 0.008,0 0.015,0.007 0.015,0.015l0 0.093 0.139 0 0 -0.093z"/>
    <path class="fil1" d="M0.465 0.258c0,0.009 -0.007,0.015 -0.015,0.015 -0.008,0 -0.014,-0.006 -0.014,-0.015 0,-0.026 0.01,-0.05 0.028,-0.068 0.017,-0.017 0.042,-0.028 0.068,-0.028l0.171 0c0.027,0 0.051,0.011 0.068,0.028 0.018,0.018 0.029,0.042 0.029,0.068 0,0.009 -0.007,0.015 -0.015,0.015 -0.008,0 -0.015,-0.006 -0.015,-0.015 0,-0.018 -0.007,-0.035 -0.02,-0.047 -0.012,-0.012 -0.029,-0.02 -0.047,-0.02l-0.171 0c-0.018,0 -0.035,0.008 -0.047,0.02 -0.013,0.012 -0.02,0.029 -0.02,0.047z"/>
   </g>
  </g>
 </g>
</svg>
