<?xml version="1.0" encoding="UTF-8"?>
<!DOCTYPE svg PUBLIC "-//W3C//DTD SVG 1.1//EN" "http://www.w3.org/Graphics/SVG/1.1/DTD/svg11.dtd">
<!-- Creator: CorelDRAW 2018 (64-Bit) -->
<svg xmlns="http://www.w3.org/2000/svg" xml:space="preserve" width="42px" height="32px" version="1.1" style="shape-rendering:geometricPrecision; text-rendering:geometricPrecision; image-rendering:optimizeQuality; fill-rule:evenodd; clip-rule:evenodd"
viewBox="0 0 1.008 0.768"
 xmlns:xlink="http://www.w3.org/1999/xlink">
 <defs>
  <style type="text/css">
   <![CDATA[
    .fil0 {fill:none}
    .fil1 {fill:gray;fill-rule:nonzero}
   ]]>
  </style>
 </defs>
 <g id="Layer_x0020_1">
  <metadata id="CorelCorpID_0Corel-Layer"/>
  <g id="_2815590601936">
   <rect class="fil0" width="1.008" height="0.768"/>
   <g>
    <path class="fil1" d="M0.576 0.261c-0.003,0.006 -0.01,0.008 -0.016,0.004 -0.006,-0.003 -0.008,-0.01 -0.004,-0.016 0.008,-0.014 0.02,-0.026 0.034,-0.034 0.012,-0.007 0.025,-0.011 0.04,-0.012 0.009,-0.014 0.021,-0.025 0.035,-0.033 0.015,-0.009 0.033,-0.014 0.053,-0.014 0.027,0 0.053,0.011 0.072,0.028 0.017,0.016 0.029,0.038 0.033,0.062 0.016,0.007 0.03,0.018 0.04,0.032 0.011,0.016 0.018,0.035 0.018,0.056 0,0.006 -0.001,0.013 -0.002,0.019 -0.001,0.003 -0.001,0.005 -0.002,0.007 0.01,0.005 0.018,0.012 0.024,0.021 0.009,0.011 0.014,0.026 0.014,0.041 0,0.019 -0.008,0.037 -0.02,0.049 -0.013,0.013 -0.03,0.021 -0.05,0.021l0 0c-0.004,0.013 -0.011,0.024 -0.021,0.033 -0.012,0.011 -0.029,0.018 -0.047,0.018 -0.003,0 -0.005,0 -0.008,0 -0.007,-0.001 -0.012,-0.007 -0.011,-0.014 0.001,-0.006 0.007,-0.011 0.014,-0.01 0.002,0 0.003,0 0.005,0 0.012,0 0.023,-0.004 0.031,-0.012 0.008,-0.007 0.014,-0.018 0.015,-0.029l0 -0.002c0.001,-0.006 0.007,-0.01 0.014,-0.009l0.004 0.001c0.001,0 0.003,0 0.004,0 0.013,0 0.024,-0.005 0.033,-0.014 0.008,-0.008 0.013,-0.019 0.013,-0.032 0,-0.01 -0.003,-0.02 -0.009,-0.027 -0.006,-0.008 -0.014,-0.014 -0.023,-0.017l-0.002 0c-0.006,-0.003 -0.009,-0.01 -0.006,-0.016 0.002,-0.004 0.004,-0.009 0.004,-0.014 0.001,-0.004 0.002,-0.009 0.002,-0.014 0,-0.016 -0.005,-0.03 -0.013,-0.042 -0.009,-0.012 -0.021,-0.021 -0.035,-0.025 -0.005,-0.002 -0.009,-0.006 -0.009,-0.011 -0.002,-0.021 -0.012,-0.04 -0.026,-0.054 -0.015,-0.014 -0.035,-0.022 -0.056,-0.022 -0.015,0 -0.029,0.004 -0.041,0.011 -0.013,0.007 -0.023,0.017 -0.03,0.03 -0.002,0.003 -0.006,0.005 -0.011,0.006 -0.012,0 -0.024,0.003 -0.034,0.009 -0.011,0.006 -0.019,0.015 -0.026,0.025z"/>
    <path class="fil1" d="M0.647 0.22c-0.003,0.005 -0.011,0.007 -0.016,0.004 -0.006,-0.004 -0.008,-0.011 -0.004,-0.017 0.009,-0.015 0.023,-0.028 0.039,-0.037 0.015,-0.009 0.033,-0.014 0.052,-0.014 0.006,0 0.012,0.005 0.012,0.012 0,0.007 -0.006,0.012 -0.012,0.012 -0.015,0 -0.029,0.004 -0.041,0.011 -0.012,0.006 -0.022,0.017 -0.03,0.029z"/>
    <path class="fil1" d="M0.857 0.334c0,-0.007 0.005,-0.012 0.012,-0.012 0.007,0 0.012,0.005 0.012,0.012 0,0.016 -0.004,0.031 -0.011,0.045 -0.008,0.014 -0.019,0.025 -0.032,0.034 -0.006,0.004 -0.013,0.002 -0.017,-0.004 -0.003,-0.005 -0.002,-0.012 0.004,-0.016 0.01,-0.007 0.018,-0.015 0.024,-0.026 0.005,-0.01 0.008,-0.021 0.008,-0.033z"/>
    <path class="fil1" d="M0.637 0.227c-0.007,0 -0.012,-0.006 -0.012,-0.012 0,-0.007 0.005,-0.012 0.012,-0.012 0.012,0 0.023,0.002 0.034,0.006 0.011,0.004 0.021,0.01 0.029,0.018 0.005,0.004 0.006,0.012 0.001,0.017 -0.004,0.005 -0.012,0.005 -0.017,0.001 -0.006,-0.006 -0.013,-0.011 -0.022,-0.014 -0.007,-0.003 -0.016,-0.004 -0.025,-0.004z"/>
    <path class="fil1" d="M0.756 0.468l-0.053 0 0 0.24 0.053 0 0 -0.24zm-0.059 -0.024l0.065 0c0.005,0 0.01,0.002 0.013,0.006l0 0c0.003,0.003 0.005,0.008 0.005,0.013l0 0.257c0,0.007 -0.005,0.012 -0.012,0.012l-0.077 0c-0.007,0 -0.012,-0.005 -0.012,-0.012l0 -0.257c0,-0.005 0.002,-0.01 0.005,-0.013 0.003,-0.004 0.008,-0.006 0.013,-0.006z"/>
    <path class="fil1" d="M0.208 0.337l0.238 -0.168c0.004,-0.003 0.01,-0.003 0.014,0l0.238 0.169c0.003,0.002 0.005,0.006 0.005,0.01l0 0.361c0,0.007 -0.003,0.013 -0.008,0.017 -0.004,0.004 -0.01,0.006 -0.017,0.006l-0.451 0c-0.006,0 -0.012,-0.002 -0.017,-0.006 -0.004,-0.004 -0.007,-0.01 -0.007,-0.017l0 -0.361c0,-0.005 0.002,-0.008 0.005,-0.011zm0.245 -0.143l-0.226 0.16 0 0.354c0.119,0.007 0.333,0.007 0.452,0l0 -0.354 -0.226 -0.16z"/>
    <path class="fil1" d="M0.308 0.394c-0.007,0 -0.012,-0.005 -0.012,-0.012 0,-0.007 0.005,-0.012 0.012,-0.012l0.289 0c0.007,0 0.012,0.005 0.012,0.012 0,0.007 -0.005,0.012 -0.012,0.012l-0.289 0z"/>
    <path class="fil1" d="M0.389 0.516l0.127 0c0.007,0 0.012,0.005 0.012,0.012l0 0.192c0,0.007 -0.005,0.012 -0.012,0.012l-0.127 0c-0.007,0 -0.012,-0.005 -0.012,-0.012l0 -0.192c0,-0.007 0.005,-0.012 0.012,-0.012zm0.115 0.024l-0.103 0 0 0.168 0.103 0 0 -0.168z"/>
    <path class="fil1" d="M0.16 0.401c-0.006,0.004 -0.013,0.003 -0.017,-0.003 -0.004,-0.005 -0.002,-0.012 0.003,-0.016l0.3 -0.213c0.004,-0.003 0.01,-0.003 0.014,0l0.299 0.213c0.006,0.004 0.007,0.011 0.003,0.016 -0.004,0.006 -0.011,0.007 -0.017,0.003l-0.292 -0.207 -0.293 0.207z"/>
   </g>
  </g>
 </g>
</svg>
