<?xml version="1.0" encoding="UTF-8"?>
<!DOCTYPE svg PUBLIC "-//W3C//DTD SVG 1.1//EN" "http://www.w3.org/Graphics/SVG/1.1/DTD/svg11.dtd">
<!-- Creator: CorelDRAW 2018 (64-Bit) -->
<svg xmlns="http://www.w3.org/2000/svg" xml:space="preserve" width="42px" height="32px" version="1.1" style="shape-rendering:geometricPrecision; text-rendering:geometricPrecision; image-rendering:optimizeQuality; fill-rule:evenodd; clip-rule:evenodd"
viewBox="0 0 1.235 0.941"
 xmlns:xlink="http://www.w3.org/1999/xlink">
 <defs>
  <style type="text/css">
   <![CDATA[
    .fil0 {fill:none}
    .fil1 {fill:#00F4FF;fill-rule:nonzero}
   ]]>
  </style>
 </defs>
 <g id="Layer_x0020_1">
  <metadata id="CorelCorpID_0Corel-Layer"/>
  <g id="_2815748742320">
   <rect class="fil0" width="1.235" height="0.941"/>
   <g>
    <path class="fil1" d="M0.706 0.32c-0.004,0.007 -0.013,0.009 -0.02,0.005 -0.007,-0.004 -0.009,-0.013 -0.005,-0.02 0.01,-0.017 0.024,-0.031 0.042,-0.041 0.014,-0.009 0.031,-0.014 0.048,-0.015 0.012,-0.017 0.026,-0.031 0.044,-0.041 0.019,-0.011 0.041,-0.017 0.064,-0.017 0.034,0 0.065,0.013 0.089,0.035 0.021,0.019 0.036,0.046 0.04,0.076 0.02,0.008 0.037,0.022 0.049,0.039 0.014,0.019 0.022,0.042 0.022,0.068 0,0.008 0,0.016 -0.002,0.024 -0.001,0.003 -0.001,0.005 -0.002,0.008 0.011,0.006 0.022,0.015 0.029,0.025 0.011,0.015 0.017,0.032 0.017,0.051 0,0.024 -0.009,0.045 -0.025,0.061 -0.015,0.015 -0.036,0.025 -0.06,0.025l-0.001 -0.001c-0.004,0.016 -0.013,0.031 -0.025,0.041 -0.015,0.014 -0.035,0.023 -0.058,0.023 -0.003,0 -0.006,0 -0.01,-0.001 -0.008,-0.001 -0.014,-0.008 -0.013,-0.016 0.001,-0.008 0.008,-0.014 0.016,-0.013 0.003,0 0.005,0 0.007,0 0.015,0 0.028,-0.005 0.038,-0.014 0.01,-0.009 0.017,-0.022 0.018,-0.037l0 -0.001c0.002,-0.008 0.009,-0.013 0.017,-0.012l0.006 0.001c0.001,0 0.003,0 0.005,0 0.015,0 0.029,-0.006 0.039,-0.016 0.011,-0.01 0.017,-0.024 0.017,-0.04 0,-0.012 -0.004,-0.024 -0.011,-0.033 -0.007,-0.01 -0.017,-0.017 -0.029,-0.02l-0.002 -0.001c-0.007,-0.003 -0.011,-0.012 -0.007,-0.019 0.002,-0.006 0.004,-0.011 0.005,-0.017 0.001,-0.006 0.002,-0.012 0.002,-0.018 0,-0.019 -0.006,-0.037 -0.016,-0.051 -0.011,-0.014 -0.026,-0.025 -0.043,-0.031 -0.006,-0.002 -0.011,-0.007 -0.011,-0.013 -0.002,-0.027 -0.014,-0.05 -0.032,-0.067 -0.018,-0.016 -0.042,-0.026 -0.069,-0.026 -0.018,0 -0.035,0.004 -0.05,0.013 -0.015,0.009 -0.028,0.021 -0.037,0.036 -0.002,0.005 -0.007,0.007 -0.012,0.008 -0.016,0 -0.03,0.004 -0.043,0.011 -0.012,0.007 -0.023,0.018 -0.031,0.031z"/>
    <path class="fil1" d="M0.793 0.269c-0.004,0.007 -0.013,0.009 -0.02,0.005 -0.007,-0.004 -0.009,-0.013 -0.005,-0.02 0.012,-0.019 0.028,-0.035 0.048,-0.046 0.018,-0.011 0.04,-0.017 0.063,-0.017 0.008,0 0.015,0.007 0.015,0.015 0,0.008 -0.007,0.015 -0.015,0.015 -0.018,0 -0.035,0.004 -0.049,0.012 -0.015,0.009 -0.028,0.021 -0.037,0.036z"/>
    <path class="fil1" d="M1.05 0.409c0,-0.008 0.007,-0.015 0.015,-0.015 0.008,0 0.014,0.007 0.014,0.015 0,0.02 -0.005,0.039 -0.014,0.055 -0.009,0.017 -0.022,0.032 -0.038,0.042 -0.007,0.004 -0.016,0.002 -0.021,-0.004 -0.004,-0.007 -0.002,-0.016 0.005,-0.021 0.012,-0.007 0.022,-0.018 0.029,-0.031 0.006,-0.012 0.01,-0.026 0.01,-0.041z"/>
    <path class="fil1" d="M0.781 0.278c-0.008,0 -0.015,-0.007 -0.015,-0.015 0,-0.008 0.007,-0.015 0.015,-0.015 0.014,0 0.028,0.003 0.041,0.008 0.014,0.005 0.026,0.013 0.036,0.022 0.006,0.005 0.007,0.015 0.001,0.021 -0.005,0.006 -0.014,0.006 -0.02,0.001 -0.008,-0.007 -0.017,-0.013 -0.027,-0.017 -0.01,-0.003 -0.02,-0.005 -0.031,-0.005z"/>
    <path class="fil1" d="M0.927 0.574l-0.066 0 0 0.294 0.066 0 0 -0.294zm-0.073 -0.03l0.08 0c0.006,0 0.011,0.003 0.015,0.007l0.001 0.001c0.004,0.004 0.006,0.009 0.006,0.015l0 0.315c0,0.008 -0.007,0.015 -0.015,0.015l-0.095 0c-0.008,0 -0.014,-0.007 -0.014,-0.015l0 -0.315c0,-0.006 0.002,-0.011 0.006,-0.015 0.004,-0.005 0.01,-0.008 0.016,-0.008z"/>
    <path class="fil1" d="M0.255 0.414l0.291 -0.207c0.005,-0.003 0.012,-0.003 0.017,0l0.292 0.207c0.004,0.003 0.006,0.008 0.006,0.012l0 0.443c0,0.008 -0.004,0.015 -0.01,0.02 -0.005,0.005 -0.012,0.008 -0.02,0.008l-0.553 0c-0.008,0 -0.015,-0.003 -0.02,-0.008 -0.006,-0.005 -0.01,-0.012 -0.01,-0.02l0 -0.443c0,-0.005 0.003,-0.01 0.007,-0.012zm0.3 -0.177l-0.277 0.197 0 0.434c0.146,0.008 0.408,0.009 0.554,0l0 -0.434 -0.277 -0.197z"/>
    <path class="fil1" d="M0.377 0.483c-0.008,0 -0.014,-0.007 -0.014,-0.015 0,-0.008 0.006,-0.015 0.014,-0.015l0.355 0c0.008,0 0.015,0.007 0.015,0.015 0,0.008 -0.007,0.015 -0.015,0.015l-0.355 0z"/>
    <path class="fil1" d="M0.477 0.632l0.156 0c0.008,0 0.014,0.006 0.014,0.015l0 0.235c0,0.008 -0.006,0.015 -0.014,0.015l-0.156 0c-0.009,0 -0.015,-0.007 -0.015,-0.015l0 -0.235c0,-0.009 0.006,-0.015 0.015,-0.015zm0.141 0.029l-0.127 0 0 0.207 0.127 0 0 -0.207z"/>
    <path class="fil1" d="M0.196 0.492c-0.007,0.004 -0.016,0.003 -0.021,-0.004 -0.004,-0.006 -0.003,-0.016 0.004,-0.02l0.367 -0.261c0.005,-0.003 0.012,-0.003 0.017,0l0.367 0.261c0.007,0.004 0.009,0.014 0.004,0.02 -0.005,0.007 -0.014,0.008 -0.021,0.004l-0.358 -0.255 -0.359 0.255z"/>
   </g>
  </g>
 </g>
</svg>
