<?xml version="1.0" encoding="UTF-8"?>
<!DOCTYPE svg PUBLIC "-//W3C//DTD SVG 1.1//EN" "http://www.w3.org/Graphics/SVG/1.1/DTD/svg11.dtd">
<!-- Creator: CorelDRAW 2018 (64-Bit) -->
<svg xmlns="http://www.w3.org/2000/svg" xml:space="preserve" width="42px" height="32px" version="1.1" style="shape-rendering:geometricPrecision; text-rendering:geometricPrecision; image-rendering:optimizeQuality; fill-rule:evenodd; clip-rule:evenodd"
viewBox="0 0 1.11 0.846"
 xmlns:xlink="http://www.w3.org/1999/xlink">
 <defs>
  <style type="text/css">
   <![CDATA[
    .fil0 {fill:none}
    .fil1 {fill:white;fill-rule:nonzero}
   ]]>
  </style>
 </defs>
 <g id="Layer_x0020_1">
  <metadata id="CorelCorpID_0Corel-Layer"/>
  <g id="_2814718667696">
   <rect class="fil0" width="1.11" height="0.846"/>
   <g>
    <path class="fil1" d="M0.635 0.288c-0.004,0.006 -0.012,0.008 -0.018,0.004 -0.007,-0.003 -0.009,-0.012 -0.005,-0.018 0.009,-0.015 0.022,-0.028 0.038,-0.037 0.013,-0.008 0.027,-0.012 0.043,-0.014 0.01,-0.014 0.024,-0.027 0.039,-0.036 0.017,-0.01 0.037,-0.015 0.058,-0.015 0.031,0 0.059,0.012 0.08,0.031 0.019,0.018 0.032,0.042 0.036,0.068 0.018,0.008 0.033,0.02 0.044,0.035 0.013,0.017 0.02,0.039 0.02,0.061 0,0.008 -0.001,0.015 -0.002,0.022 -0.001,0.003 -0.001,0.005 -0.002,0.008 0.01,0.005 0.02,0.013 0.027,0.022 0.009,0.013 0.015,0.029 0.015,0.046 0,0.021 -0.009,0.04 -0.023,0.054 -0.014,0.014 -0.033,0.023 -0.054,0.023l-0.001 -0.001c-0.004,0.015 -0.012,0.027 -0.022,0.037 -0.014,0.013 -0.032,0.02 -0.052,0.02 -0.003,0 -0.006,0 -0.01,0 -0.007,-0.001 -0.012,-0.008 -0.011,-0.015 0.001,-0.007 0.007,-0.012 0.015,-0.011 0.002,0 0.004,0 0.006,0 0.013,0 0.025,-0.005 0.034,-0.013 0.009,-0.008 0.015,-0.02 0.016,-0.033l0 -0.001c0.002,-0.007 0.008,-0.012 0.016,-0.011l0.004 0.001c0.002,0 0.003,0 0.005,0 0.014,0 0.027,-0.006 0.036,-0.015 0.009,-0.009 0.014,-0.021 0.014,-0.035 0,-0.011 -0.003,-0.022 -0.01,-0.03 -0.006,-0.009 -0.015,-0.015 -0.025,-0.018l-0.002 -0.001c-0.007,-0.003 -0.01,-0.011 -0.007,-0.017 0.002,-0.005 0.004,-0.01 0.005,-0.015 0.001,-0.006 0.002,-0.011 0.002,-0.017 0,-0.017 -0.006,-0.033 -0.015,-0.045 -0.01,-0.013 -0.023,-0.023 -0.038,-0.028 -0.006,-0.002 -0.01,-0.006 -0.01,-0.012 -0.002,-0.024 -0.013,-0.045 -0.029,-0.06 -0.016,-0.015 -0.038,-0.024 -0.062,-0.024 -0.016,0 -0.031,0.005 -0.045,0.012 -0.013,0.008 -0.025,0.019 -0.033,0.033 -0.002,0.004 -0.006,0.006 -0.011,0.006 -0.014,0.001 -0.027,0.004 -0.038,0.011 -0.012,0.006 -0.022,0.016 -0.028,0.028z"/>
    <path class="fil1" d="M0.713 0.242c-0.004,0.006 -0.012,0.008 -0.018,0.004 -0.007,-0.004 -0.009,-0.012 -0.005,-0.018 0.011,-0.017 0.025,-0.031 0.043,-0.041 0.017,-0.01 0.036,-0.015 0.057,-0.015 0.008,0 0.013,0.006 0.013,0.013 0,0.007 -0.005,0.013 -0.013,0.013 -0.016,0 -0.031,0.004 -0.044,0.012 -0.014,0.007 -0.025,0.019 -0.033,0.032z"/>
    <path class="fil1" d="M0.944 0.367c0,-0.007 0.006,-0.013 0.013,-0.013 0.007,0 0.013,0.006 0.013,0.013 0,0.018 -0.004,0.035 -0.012,0.05 -0.009,0.015 -0.021,0.028 -0.035,0.038 -0.006,0.004 -0.015,0.002 -0.019,-0.004 -0.003,-0.006 -0.002,-0.014 0.004,-0.018 0.011,-0.007 0.02,-0.017 0.026,-0.029 0.006,-0.01 0.01,-0.023 0.01,-0.037z"/>
    <path class="fil1" d="M0.702 0.249c-0.008,0 -0.014,-0.005 -0.014,-0.013 0,-0.007 0.006,-0.013 0.014,-0.013 0.013,0 0.025,0.003 0.037,0.007 0.012,0.005 0.023,0.011 0.032,0.02 0.006,0.005 0.006,0.013 0.001,0.019 -0.005,0.005 -0.013,0.005 -0.018,0 -0.007,-0.006 -0.016,-0.011 -0.024,-0.014 -0.009,-0.004 -0.018,-0.006 -0.028,-0.006z"/>
    <path class="fil1" d="M0.833 0.516l-0.059 0 0 0.264 0.059 0 0 -0.264zm-0.065 -0.027l0.071 0c0.006,0 0.011,0.003 0.014,0.006l0.001 0.001c0.003,0.003 0.005,0.008 0.005,0.014l0 0.283c0,0.007 -0.006,0.013 -0.013,0.013l-0.085 0c-0.008,0 -0.014,-0.006 -0.014,-0.013l0 -0.283c0,-0.006 0.003,-0.011 0.006,-0.014 0.004,-0.004 0.009,-0.007 0.015,-0.007z"/>
    <path class="fil1" d="M0.23 0.372l0.261 -0.186c0.005,-0.003 0.011,-0.003 0.015,0l0.262 0.186c0.004,0.003 0.006,0.007 0.006,0.011l0 0.398c0,0.007 -0.003,0.014 -0.009,0.018 -0.005,0.005 -0.011,0.007 -0.018,0.007l-0.497 0c-0.007,0 -0.013,-0.002 -0.018,-0.007 -0.006,-0.004 -0.009,-0.011 -0.009,-0.018l0 -0.398c0,-0.005 0.003,-0.009 0.007,-0.011zm0.268 -0.159l-0.248 0.177 0 0.39c0.131,0.008 0.366,0.008 0.497,0l0 -0.39 -0.249 -0.177z"/>
    <path class="fil1" d="M0.339 0.434c-0.007,0 -0.013,-0.006 -0.013,-0.013 0,-0.008 0.006,-0.014 0.013,-0.014l0.319 0c0.007,0 0.013,0.006 0.013,0.014 0,0.007 -0.006,0.013 -0.013,0.013l-0.319 0z"/>
    <path class="fil1" d="M0.428 0.568l0.141 0c0.007,0 0.013,0.006 0.013,0.013l0 0.212c0,0.007 -0.006,0.013 -0.013,0.013l-0.141 0c-0.007,0 -0.013,-0.006 -0.013,-0.013l0 -0.212c0,-0.007 0.006,-0.013 0.013,-0.013zm0.127 0.026l-0.113 0 0 0.186 0.113 0 0 -0.186z"/>
    <path class="fil1" d="M0.176 0.442c-0.006,0.004 -0.014,0.003 -0.018,-0.003 -0.005,-0.006 -0.003,-0.014 0.003,-0.019l0.33 -0.234c0.005,-0.003 0.011,-0.003 0.015,0l0.33 0.234c0.006,0.005 0.008,0.013 0.003,0.019 -0.004,0.006 -0.012,0.007 -0.018,0.003l-0.323 -0.229 -0.322 0.229z"/>
   </g>
  </g>
 </g>
</svg>
