<?xml version="1.0" encoding="UTF-8"?>
<!DOCTYPE svg PUBLIC "-//W3C//DTD SVG 1.1//EN" "http://www.w3.org/Graphics/SVG/1.1/DTD/svg11.dtd">
<!-- Creator: CorelDRAW 2018 (64-Bit) -->
<svg xmlns="http://www.w3.org/2000/svg" xml:space="preserve" width="42px" height="32px" version="1.1" style="shape-rendering:geometricPrecision; text-rendering:geometricPrecision; image-rendering:optimizeQuality; fill-rule:evenodd; clip-rule:evenodd"
viewBox="0 0 9.63 7.337"
 xmlns:xlink="http://www.w3.org/1999/xlink">
 <defs>
  <style type="text/css">
   <![CDATA[
    .fil0 {fill:none}
    .fil1 {fill:#00F4FF;fill-rule:nonzero}
   ]]>
  </style>
 </defs>
 <g id="Layer_x0020_1">
  <metadata id="CorelCorpID_0Corel-Layer"/>
  <g id="_1612686914544">
   <rect class="fil0" width="9.63" height="7.337"/>
   <g>
    <path class="fil1" d="M3.841 0.803l0.417 0c0.051,0 0.094,0.033 0.109,0.08l0.158 0.415 0.155 0.041 0.37 -0.286c0.04,-0.03 0.093,-0.031 0.133,-0.004l0.354 0.204c0.042,0.024 0.063,0.072 0.056,0.117l-0.072 0.445 0.113 0.114 0.464 -0.063c0.05,-0.007 0.096,0.02 0.117,0.063l0.205 0.354c0.025,0.043 0.019,0.097 -0.013,0.133l-0.282 0.345 0.042 0.156 0.432 0.177c0.044,0.018 0.071,0.061 0.071,0.106l0 0.416c0,0.051 -0.033,0.095 -0.08,0.109l-0.415 0.158 -0.041 0.155 0.285 0.37c0.03,0.038 0.031,0.088 0.009,0.127l-0.208 0.36c-0.024,0.042 -0.072,0.063 -0.117,0.056l-0.445 -0.072 -0.114 0.114 0.063 0.463c0.006,0.05 -0.02,0.097 -0.063,0.118l-0.354 0.204c-0.042,0.025 -0.093,0.019 -0.129,-0.01l-0.349 -0.284 -0.156 0.041 -0.177 0.432c-0.018,0.045 -0.061,0.071 -0.106,0.071l-0.416 0.001c-0.051,0 -0.095,-0.034 -0.109,-0.08l-0.158 -0.416 -0.155 -0.041 -0.37 0.286c-0.04,0.03 -0.094,0.031 -0.133,0.004l-0.355 -0.204c-0.043,-0.025 -0.064,-0.075 -0.054,-0.122l0.071 -0.44 -0.114 -0.114 -0.463 0.063c-0.05,0.007 -0.097,-0.02 -0.118,-0.062l-0.204 -0.355c-0.025,-0.042 -0.019,-0.093 0.01,-0.129l0.284 -0.349 -0.041 -0.156 -0.433 -0.177c-0.044,-0.018 -0.07,-0.061 -0.07,-0.106l-0.001 -0.416c0,-0.051 0.034,-0.095 0.08,-0.109l0.415 -0.158 0.042 -0.155 -0.286 -0.37c-0.029,-0.038 -0.031,-0.088 -0.008,-0.127l0.208 -0.36c0.024,-0.042 0.071,-0.063 0.117,-0.056l0.445 0.072 0.113 -0.114 -0.062 -0.463c-0.007,-0.05 0.02,-0.096 0.062,-0.118l0.354 -0.204c0.044,-0.026 0.097,-0.019 0.133,0.013l0.346 0.282 0.155 -0.042 0.178 -0.432c0.018,-0.044 0.06,-0.071 0.105,-0.071zm0.216 0.229l-0.139 0 -0.167 0.407c-0.012,0.035 -0.041,0.063 -0.079,0.074l-0.266 0.071c-0.034,0.009 -0.072,0.002 -0.102,-0.022l-0.333 -0.272 -0.226 0.13 0.059 0.436c0.007,0.036 -0.003,0.076 -0.032,0.104l-0.194 0.195c-0.026,0.025 -0.062,0.038 -0.099,0.032l-0.426 -0.069 -0.13 0.226 0.27 0.349c0.024,0.028 0.034,0.067 0.024,0.105l-0.071 0.266c-0.01,0.034 -0.035,0.064 -0.07,0.077l-0.402 0.153 0 0.261 0.406 0.167c0.036,0.012 0.064,0.04 0.074,0.079l0.072 0.266c0.009,0.034 0.002,0.072 -0.022,0.102l-0.272 0.334 0.13 0.225 0.435 -0.059c0.037,-0.007 0.077,0.003 0.105,0.032l0.195 0.194c0.024,0.026 0.038,0.062 0.032,0.099l-0.069 0.425 0.226 0.131 0.349 -0.27c0.028,-0.024 0.066,-0.034 0.104,-0.024l0.266 0.071c0.035,0.01 0.064,0.035 0.078,0.07l0.153 0.402 0.261 0 0.167 -0.407c0.011,-0.035 0.04,-0.063 0.078,-0.074l0.267 -0.071c0.034,-0.009 0.072,-0.002 0.101,0.022l0.334 0.272 0.226 -0.13 -0.06 -0.444c-0.005,-0.034 0.006,-0.07 0.033,-0.096l0.194 -0.194c0.025,-0.025 0.061,-0.039 0.099,-0.033l0.425 0.069 0.131 -0.226 -0.27 -0.349c-0.024,-0.028 -0.034,-0.066 -0.024,-0.104l0.071 -0.267c0.009,-0.034 0.034,-0.063 0.07,-0.077l0.402 -0.153 0 -0.261 -0.407 -0.167c-0.035,-0.012 -0.063,-0.04 -0.074,-0.079l-0.071 -0.266c-0.009,-0.034 -0.002,-0.072 0.022,-0.101l0.272 -0.334 -0.13 -0.226 -0.444 0.06c-0.034,0.004 -0.07,-0.006 -0.096,-0.032l-0.195 -0.196c-0.025,-0.025 -0.038,-0.061 -0.032,-0.098l0.069 -0.426 -0.226 -0.13 -0.349 0.27c-0.028,0.024 -0.067,0.034 -0.105,0.024l-0.266 -0.071c-0.034,-0.009 -0.064,-0.034 -0.077,-0.07l-0.153 -0.402 -0.122 0z"/>
    <path class="fil1" d="M4.057 1.985c0.395,0 0.753,0.16 1.012,0.419 0.259,0.259 0.419,0.617 0.419,1.012 0,0.394 -0.16,0.752 -0.419,1.011 -0.259,0.259 -0.617,0.42 -1.012,0.42 -0.395,0 -0.753,-0.161 -1.011,-0.42l-0.007 -0.006c-0.255,-0.259 -0.413,-0.614 -0.413,-1.005 0,-0.395 0.161,-0.753 0.42,-1.012 0.258,-0.259 0.616,-0.419 1.011,-0.419zm0.85 0.581c-0.217,-0.218 -0.517,-0.352 -0.85,-0.352 -0.332,0 -0.632,0.135 -0.849,0.352 -0.218,0.217 -0.352,0.518 -0.352,0.85 0,0.329 0.132,0.627 0.346,0.844l0.006 0.005c0.217,0.218 0.517,0.352 0.849,0.352 0.332,0 0.633,-0.134 0.85,-0.352 0.218,-0.217 0.352,-0.517 0.352,-0.849 0,-0.332 -0.135,-0.633 -0.352,-0.85z"/>
    <path class="fil1" d="M7.288 4.939c0.042,0.017 0.084,0.038 0.124,0.061l0.006 0.004c0.038,0.022 0.075,0.047 0.109,0.074l0.325 -0.099c0.049,-0.014 0.1,0.005 0.127,0.045 0.04,0.051 0.077,0.105 0.11,0.162 0.034,0.058 0.064,0.12 0.089,0.183 0.018,0.046 0.003,0.097 -0.032,0.128l-0.244 0.229 0.004 0.036c0.004,0.036 0.006,0.07 0.006,0.103 0,0.032 -0.002,0.066 -0.006,0.102l-0.004 0.036 0.247 0.232c0.035,0.033 0.045,0.083 0.029,0.125 -0.025,0.063 -0.055,0.125 -0.089,0.184 -0.034,0.059 -0.072,0.115 -0.114,0.167 -0.03,0.038 -0.079,0.052 -0.123,0.039l-0.325 -0.098c-0.036,0.028 -0.075,0.054 -0.115,0.077 -0.04,0.023 -0.082,0.044 -0.124,0.061l-0.078 0.33c-0.011,0.047 -0.049,0.081 -0.095,0.087 -0.033,0.005 -0.066,0.009 -0.1,0.012l-0.003 0c-0.034,0.002 -0.067,0.004 -0.099,0.004 -0.032,0 -0.066,-0.002 -0.101,-0.004 -0.034,-0.003 -0.068,-0.007 -0.101,-0.012 -0.049,-0.007 -0.086,-0.044 -0.096,-0.09l-0.076 -0.327c-0.043,-0.017 -0.085,-0.038 -0.125,-0.061l-0.006 -0.004c-0.038,-0.022 -0.074,-0.047 -0.108,-0.073l-0.326 0.098c-0.05,0.015 -0.102,-0.006 -0.129,-0.048 -0.04,-0.051 -0.076,-0.104 -0.108,-0.158 -0.034,-0.059 -0.063,-0.121 -0.088,-0.184 -0.018,-0.046 -0.004,-0.097 0.032,-0.128l0.244 -0.229 -0.005 -0.036c-0.003,-0.036 -0.005,-0.07 -0.005,-0.102 0,-0.033 0.002,-0.067 0.005,-0.103l0.005 -0.036 -0.248 -0.232c-0.035,-0.033 -0.045,-0.083 -0.028,-0.125 0.024,-0.063 0.054,-0.125 0.088,-0.183 0.034,-0.059 0.073,-0.116 0.115,-0.168 0.03,-0.038 0.079,-0.052 0.122,-0.038l0.326 0.098c0.036,-0.029 0.074,-0.055 0.114,-0.078 0.04,-0.023 0.082,-0.044 0.125,-0.061l0.077 -0.33c0.011,-0.047 0.05,-0.081 0.095,-0.087 0.033,-0.005 0.067,-0.009 0.101,-0.012l0.003 0c0.033,-0.002 0.066,-0.003 0.098,-0.003 0.033,0 0.067,0.001 0.101,0.003 0.035,0.003 0.068,0.007 0.101,0.012 0.049,0.007 0.086,0.044 0.096,0.09l0.077 0.327zm0.01 0.259c-0.045,-0.026 -0.093,-0.048 -0.144,-0.064 -0.036,-0.012 -0.066,-0.043 -0.075,-0.083l-0.073 -0.311 -0.008 -0.001c-0.027,-0.002 -0.055,-0.003 -0.085,-0.003 -0.029,0 -0.056,0.001 -0.082,0.003l-0.01 0.001 -0.072 0.307c-0.008,0.039 -0.036,0.073 -0.077,0.087 -0.051,0.016 -0.099,0.038 -0.143,0.064 -0.043,0.024 -0.084,0.053 -0.121,0.086 -0.029,0.03 -0.073,0.044 -0.116,0.031l-0.307 -0.093c-0.018,0.025 -0.034,0.052 -0.05,0.078 -0.015,0.027 -0.029,0.054 -0.043,0.082l0.234 0.219c0.028,0.027 0.042,0.066 0.034,0.107 -0.005,0.024 -0.009,0.049 -0.012,0.075l0 0.003c-0.003,0.023 -0.004,0.05 -0.004,0.079 0,0.028 0.001,0.055 0.004,0.079 0.002,0.024 0.006,0.049 0.01,0.072 0.01,0.039 -0.001,0.082 -0.032,0.112l-0.234 0.219c0.014,0.028 0.028,0.055 0.043,0.082 0.016,0.027 0.032,0.053 0.05,0.078l0.307 -0.093c0.037,-0.01 0.078,-0.002 0.109,0.025 0.038,0.034 0.078,0.064 0.122,0.089l0.006 0.003c0.044,0.026 0.092,0.048 0.143,0.064 0.037,0.013 0.066,0.043 0.076,0.083l0.073 0.312 0.007 0c0.027,0.002 0.055,0.003 0.085,0.003 0.029,0 0.057,-0.001 0.083,-0.003l0.01 0 0.072 -0.308c0.008,-0.039 0.036,-0.073 0.076,-0.087 0.051,-0.016 0.099,-0.038 0.144,-0.064 0.043,-0.024 0.083,-0.053 0.12,-0.086 0.029,-0.03 0.074,-0.043 0.117,-0.031l0.307 0.093c0.017,-0.025 0.034,-0.051 0.049,-0.078 0.016,-0.026 0.03,-0.054 0.043,-0.082l-0.234 -0.219c-0.027,-0.027 -0.041,-0.066 -0.033,-0.106 0.005,-0.025 0.009,-0.05 0.012,-0.075l0 -0.003c0.002,-0.024 0.004,-0.051 0.004,-0.079 0,-0.029 -0.002,-0.056 -0.004,-0.079 -0.003,-0.025 -0.006,-0.05 -0.011,-0.073 -0.01,-0.039 0.001,-0.082 0.032,-0.112l0.234 -0.219c-0.013,-0.028 -0.027,-0.055 -0.043,-0.082 -0.015,-0.026 -0.032,-0.053 -0.049,-0.078l-0.307 0.093c-0.037,0.01 -0.079,0.003 -0.11,-0.025 -0.037,-0.034 -0.078,-0.063 -0.121,-0.089l-0.006 -0.003z"/>
    <path class="fil1" d="M6.913 5.358c0.14,0 0.266,0.057 0.358,0.148 0.092,0.093 0.149,0.219 0.149,0.359 0,0.139 -0.057,0.266 -0.149,0.358l-0.007 0.006c-0.091,0.088 -0.215,0.142 -0.351,0.142 -0.14,0 -0.266,-0.057 -0.358,-0.148 -0.092,-0.092 -0.148,-0.219 -0.148,-0.358 0,-0.14 0.056,-0.266 0.148,-0.358 0.092,-0.092 0.218,-0.149 0.358,-0.149zm0.197 0.31c-0.051,-0.05 -0.12,-0.081 -0.197,-0.081 -0.076,0 -0.146,0.031 -0.196,0.081 -0.05,0.05 -0.081,0.12 -0.081,0.197 0,0.076 0.031,0.146 0.081,0.196 0.05,0.05 0.12,0.081 0.196,0.081 0.074,0 0.142,-0.029 0.192,-0.076l0.004 -0.005c0.05,-0.05 0.082,-0.12 0.082,-0.196 0,-0.077 -0.031,-0.147 -0.081,-0.197z"/>
   </g>
  </g>
 </g>
</svg>
