<?xml version="1.0" encoding="UTF-8"?>
<!DOCTYPE svg PUBLIC "-//W3C//DTD SVG 1.1//EN" "http://www.w3.org/Graphics/SVG/1.1/DTD/svg11.dtd">
<!-- Creator: CorelDRAW 2018 (64-Bit) -->
<svg xmlns="http://www.w3.org/2000/svg" xml:space="preserve" width="42px" height="32px" version="1.1" style="shape-rendering:geometricPrecision; text-rendering:geometricPrecision; image-rendering:optimizeQuality; fill-rule:evenodd; clip-rule:evenodd"
viewBox="0 0 5.247 3.998"
 xmlns:xlink="http://www.w3.org/1999/xlink">
 <defs>
  <style type="text/css">
   <![CDATA[
    .fil0 {fill:none}
    .fil1 {fill:white;fill-rule:nonzero}
   ]]>
  </style>
 </defs>
 <g id="Layer_x0020_1">
  <metadata id="CorelCorpID_0Corel-Layer"/>
  <g id="_1612679539424">
   <rect class="fil0" width="5.247" height="3.998"/>
   <g>
    <path class="fil1" d="M2.093 0.437l0.227 0c0.028,0 0.052,0.019 0.06,0.044l0.086 0.226 0.084 0.023 0.202 -0.156c0.021,-0.017 0.05,-0.017 0.072,-0.003l0.193 0.112c0.023,0.013 0.034,0.039 0.03,0.063l-0.039 0.243 0.062 0.062 0.253 -0.034c0.027,-0.004 0.052,0.011 0.064,0.034l0.111 0.193c0.014,0.023 0.01,0.053 -0.007,0.072l-0.153 0.189 0.022 0.084 0.236 0.097c0.024,0.01 0.038,0.033 0.038,0.057l0.001 0.227c0,0.028 -0.019,0.052 -0.044,0.06l-0.226 0.086 -0.023 0.084 0.156 0.202c0.016,0.02 0.017,0.048 0.004,0.069l-0.113 0.196c-0.013,0.023 -0.039,0.035 -0.064,0.031l-0.242 -0.039 -0.062 0.061 0.034 0.253c0.004,0.027 -0.011,0.052 -0.034,0.064l-0.193 0.112c-0.023,0.013 -0.051,0.01 -0.07,-0.006l-0.191 -0.155 -0.084 0.023 -0.097 0.235c-0.01,0.024 -0.033,0.039 -0.058,0.039l-0.226 0c-0.028,0 -0.052,-0.018 -0.06,-0.044l-0.086 -0.226 -0.085 -0.023 -0.201 0.156c-0.022,0.017 -0.051,0.017 -0.072,0.003l-0.194 -0.112c-0.023,-0.013 -0.035,-0.041 -0.029,-0.066l0.038 -0.24 -0.062 -0.062 -0.252 0.034c-0.027,0.004 -0.053,-0.01 -0.064,-0.034l-0.112 -0.193c-0.013,-0.023 -0.01,-0.051 0.006,-0.07l0.155 -0.19 -0.023 -0.085 -0.235 -0.097c-0.024,-0.01 -0.039,-0.033 -0.039,-0.057l0 -0.227c0,-0.028 0.018,-0.052 0.044,-0.06l0.226 -0.086 0.022 -0.084 -0.155 -0.202c-0.016,-0.02 -0.017,-0.048 -0.005,-0.069l0.113 -0.196c0.014,-0.023 0.039,-0.034 0.064,-0.03l0.243 0.039 0.062 -0.062 -0.035 -0.253c-0.003,-0.027 0.011,-0.052 0.034,-0.064l0.193 -0.111c0.024,-0.014 0.053,-0.01 0.073,0.007l0.188 0.153 0.085 -0.022 0.097 -0.236c0.009,-0.024 0.033,-0.038 0.057,-0.039zm0.118 0.125l-0.076 0 -0.091 0.222c-0.007,0.019 -0.022,0.035 -0.043,0.04l-0.145 0.039c-0.019,0.005 -0.039,0.001 -0.056,-0.012l-0.181 -0.148 -0.124 0.071 0.033 0.237c0.004,0.02 -0.002,0.042 -0.017,0.057l-0.107 0.106c-0.013,0.014 -0.033,0.021 -0.053,0.018l-0.232 -0.038 -0.071 0.123 0.147 0.19c0.013,0.016 0.018,0.037 0.013,0.057l-0.039 0.145c-0.005,0.019 -0.019,0.035 -0.038,0.043l-0.219 0.083 0 0.142 0.222 0.091c0.019,0.006 0.034,0.022 0.04,0.043l0.039 0.145c0.005,0.019 0.001,0.039 -0.012,0.055l-0.148 0.182 0.071 0.123 0.237 -0.032c0.02,-0.004 0.041,0.002 0.057,0.017l0.106 0.106c0.013,0.014 0.02,0.034 0.017,0.054l-0.037 0.232 0.123 0.071 0.19 -0.147c0.015,-0.013 0.036,-0.019 0.057,-0.013l0.145 0.039c0.019,0.005 0.035,0.018 0.042,0.038l0.084 0.219 0.142 0 0.091 -0.222c0.006,-0.019 0.022,-0.034 0.043,-0.04l0.145 -0.039c0.018,-0.005 0.039,-0.001 0.055,0.012l0.182 0.148 0.123 -0.071 -0.033 -0.241c-0.002,-0.019 0.004,-0.039 0.018,-0.053l0.106 -0.106c0.014,-0.013 0.033,-0.021 0.054,-0.017l0.232 0.037 0.071 -0.123 -0.147 -0.19c-0.013,-0.015 -0.019,-0.036 -0.013,-0.057l0.038 -0.145c0.005,-0.019 0.019,-0.035 0.039,-0.042l0.219 -0.084 0 -0.142 -0.222 -0.091c-0.019,-0.006 -0.035,-0.022 -0.04,-0.043l-0.039 -0.145c-0.005,-0.018 -0.001,-0.039 0.012,-0.055l0.148 -0.182 -0.071 -0.123 -0.242 0.033c-0.018,0.002 -0.038,-0.004 -0.052,-0.018l-0.106 -0.106c-0.014,-0.014 -0.021,-0.034 -0.018,-0.054l0.038 -0.232 -0.123 -0.071 -0.191 0.147c-0.015,0.013 -0.036,0.019 -0.057,0.013l-0.144 -0.039c-0.019,-0.005 -0.035,-0.018 -0.043,-0.038l-0.083 -0.219 -0.066 0z"/>
    <path class="fil1" d="M2.211 1.081c0.215,0 0.41,0.088 0.551,0.229 0.141,0.141 0.228,0.336 0.228,0.551 0,0.215 -0.087,0.41 -0.228,0.551 -0.141,0.141 -0.336,0.229 -0.551,0.229 -0.216,0 -0.41,-0.088 -0.552,-0.229l-0.003 -0.003c-0.139,-0.141 -0.225,-0.335 -0.225,-0.548 0,-0.215 0.087,-0.41 0.228,-0.551 0.142,-0.141 0.336,-0.229 0.552,-0.229zm0.463 0.317c-0.119,-0.118 -0.282,-0.192 -0.463,-0.192 -0.181,0 -0.345,0.074 -0.463,0.192 -0.119,0.119 -0.192,0.282 -0.192,0.463 0,0.18 0.072,0.342 0.189,0.46l0.003 0.003c0.118,0.119 0.282,0.192 0.463,0.192 0.181,0 0.344,-0.073 0.463,-0.192 0.118,-0.118 0.192,-0.282 0.192,-0.463 0,-0.181 -0.074,-0.344 -0.192,-0.463z"/>
    <path class="fil1" d="M3.971 2.691c0.023,0.01 0.046,0.021 0.068,0.033l0.003 0.002c0.021,0.013 0.041,0.026 0.059,0.041l0.177 -0.054c0.027,-0.008 0.055,0.003 0.07,0.024 0.022,0.028 0.042,0.058 0.06,0.089 0.018,0.032 0.034,0.065 0.048,0.099 0.01,0.026 0.002,0.053 -0.017,0.07l-0.133 0.125 0.002 0.02c0.002,0.019 0.003,0.038 0.003,0.056 0,0.017 -0.001,0.036 -0.003,0.055l-0.002 0.02 0.134 0.127c0.02,0.018 0.025,0.045 0.016,0.068 -0.014,0.034 -0.03,0.068 -0.048,0.1 -0.019,0.032 -0.04,0.062 -0.063,0.091 -0.016,0.02 -0.043,0.028 -0.067,0.021l-0.177 -0.054c-0.019,0.016 -0.04,0.03 -0.062,0.043 -0.022,0.012 -0.045,0.023 -0.068,0.033l-0.042 0.18c-0.006,0.025 -0.027,0.044 -0.052,0.047 -0.018,0.003 -0.036,0.005 -0.055,0.006l-0.001 0c-0.019,0.002 -0.037,0.002 -0.054,0.002 -0.018,0 -0.036,0 -0.055,-0.002 -0.019,-0.001 -0.037,-0.003 -0.055,-0.006 -0.027,-0.004 -0.047,-0.024 -0.052,-0.049l-0.042 -0.178c-0.023,-0.01 -0.046,-0.021 -0.068,-0.033l-0.003 -0.002c-0.021,-0.013 -0.041,-0.026 -0.059,-0.041l-0.178 0.054c-0.027,0.008 -0.056,-0.003 -0.07,-0.026 -0.022,-0.028 -0.042,-0.057 -0.059,-0.087 -0.018,-0.032 -0.035,-0.065 -0.048,-0.099 -0.01,-0.026 -0.002,-0.053 0.017,-0.07l0.133 -0.125 -0.002 -0.02c-0.002,-0.019 -0.003,-0.038 -0.003,-0.055 0,-0.018 0.001,-0.037 0.003,-0.056l0.002 -0.02 -0.135 -0.127c-0.019,-0.018 -0.024,-0.045 -0.015,-0.068 0.013,-0.034 0.03,-0.067 0.048,-0.099 0.019,-0.033 0.04,-0.063 0.063,-0.092 0.016,-0.02 0.043,-0.028 0.066,-0.021l0.178 0.054c0.019,-0.016 0.04,-0.03 0.062,-0.043 0.022,-0.012 0.045,-0.023 0.068,-0.033l0.042 -0.18c0.006,-0.025 0.027,-0.044 0.052,-0.047 0.018,-0.003 0.036,-0.005 0.055,-0.006l0.001 0c0.019,-0.002 0.037,-0.002 0.054,-0.002 0.018,0 0.036,0 0.055,0.002 0.019,0.001 0.037,0.003 0.055,0.006 0.027,0.004 0.047,0.024 0.052,0.049l0.042 0.178zm0.005 0.141c-0.024,-0.014 -0.05,-0.026 -0.078,-0.035 -0.02,-0.006 -0.036,-0.023 -0.041,-0.045l-0.04 -0.17 -0.004 0c-0.014,-0.001 -0.03,-0.001 -0.046,-0.001 -0.016,0 -0.031,0 -0.045,0.001l-0.006 0 -0.039 0.168c-0.004,0.021 -0.019,0.04 -0.042,0.047 -0.027,0.009 -0.053,0.021 -0.077,0.035 -0.024,0.014 -0.046,0.029 -0.066,0.047 -0.016,0.017 -0.04,0.024 -0.064,0.017l-0.167 -0.051c-0.01,0.014 -0.019,0.029 -0.027,0.043 -0.008,0.014 -0.016,0.029 -0.023,0.045l0.127 0.119c0.015,0.014 0.023,0.036 0.018,0.058 -0.002,0.013 -0.005,0.027 -0.006,0.041l0 0.001c-0.002,0.013 -0.002,0.028 -0.002,0.044 0,0.015 0,0.03 0.002,0.043 0.001,0.013 0.003,0.026 0.006,0.039 0.005,0.021 -0.001,0.045 -0.018,0.061l-0.127 0.119c0.007,0.016 0.015,0.031 0.023,0.045 0.009,0.015 0.017,0.029 0.027,0.043l0.167 -0.051c0.02,-0.006 0.043,-0.001 0.06,0.014 0.02,0.018 0.043,0.034 0.066,0.048l0.004 0.002c0.024,0.014 0.05,0.026 0.077,0.035 0.02,0.006 0.037,0.023 0.042,0.045l0.039 0.17 0.005 0c0.014,0.001 0.03,0.002 0.046,0.002 0.016,0 0.031,-0.001 0.045,-0.002l0.005 0 0.04 -0.168c0.004,-0.021 0.019,-0.04 0.041,-0.047 0.028,-0.009 0.054,-0.021 0.078,-0.035 0.024,-0.014 0.046,-0.029 0.066,-0.047 0.016,-0.017 0.04,-0.024 0.064,-0.017l0.167 0.051c0.009,-0.014 0.018,-0.028 0.027,-0.043 0.008,-0.014 0.016,-0.029 0.023,-0.045l-0.127 -0.119c-0.015,-0.014 -0.023,-0.036 -0.018,-0.058 0.002,-0.013 0.004,-0.027 0.006,-0.041l0 -0.001c0.001,-0.013 0.002,-0.028 0.002,-0.043 0,-0.016 -0.001,-0.031 -0.002,-0.044 -0.001,-0.013 -0.003,-0.026 -0.006,-0.039 -0.005,-0.021 0.001,-0.045 0.018,-0.061l0.127 -0.119c-0.007,-0.016 -0.015,-0.031 -0.023,-0.045 -0.009,-0.015 -0.018,-0.029 -0.027,-0.043l-0.167 0.051c-0.021,0.006 -0.043,0.001 -0.06,-0.014 -0.02,-0.018 -0.043,-0.034 -0.066,-0.048l-0.004 -0.002z"/>
    <path class="fil1" d="M3.767 2.919c0.076,0 0.145,0.031 0.195,0.081 0.05,0.051 0.081,0.12 0.081,0.196 0,0.076 -0.031,0.145 -0.081,0.195l-0.004 0.003c-0.049,0.048 -0.117,0.078 -0.191,0.078 -0.076,0 -0.145,-0.031 -0.195,-0.081 -0.05,-0.05 -0.081,-0.119 -0.081,-0.195 0,-0.076 0.031,-0.145 0.081,-0.195 0.05,-0.051 0.119,-0.082 0.195,-0.082zm0.107 0.17c-0.027,-0.028 -0.065,-0.045 -0.107,-0.045 -0.042,0 -0.08,0.017 -0.107,0.045 -0.027,0.027 -0.044,0.065 -0.044,0.107 0,0.041 0.017,0.079 0.044,0.106 0.027,0.028 0.065,0.045 0.107,0.045 0.04,0 0.077,-0.016 0.104,-0.042l0.003 -0.003c0.027,-0.027 0.044,-0.065 0.044,-0.106 0,-0.042 -0.017,-0.08 -0.044,-0.107z"/>
   </g>
  </g>
 </g>
</svg>
