<?xml version="1.0" encoding="UTF-8"?>
<!DOCTYPE svg PUBLIC "-//W3C//DTD SVG 1.1//EN" "http://www.w3.org/Graphics/SVG/1.1/DTD/svg11.dtd">
<!-- Creator: CorelDRAW 2018 (64-Bit) -->
<svg xmlns="http://www.w3.org/2000/svg" xml:space="preserve" width="42px" height="32px" version="1.1" style="shape-rendering:geometricPrecision; text-rendering:geometricPrecision; image-rendering:optimizeQuality; fill-rule:evenodd; clip-rule:evenodd"
viewBox="0 0 1.235 0.941"
 xmlns:xlink="http://www.w3.org/1999/xlink">
 <defs>
  <style type="text/css">
   <![CDATA[
    .fil0 {fill:none}
    .fil1 {fill:#00F4FF;fill-rule:nonzero}
   ]]>
  </style>
 </defs>
 <g id="Layer_x0020_1">
  <metadata id="CorelCorpID_0Corel-Layer"/>
  <g id="_2815516948176">
   <rect class="fil0" width="1.235" height="0.941"/>
   <g>
    <path class="fil1" d="M0.786 0.537c-0.026,-0.049 -0.056,-0.092 -0.085,-0.132 -0.05,-0.071 -0.093,-0.132 -0.093,-0.199 0,-0.053 0.021,-0.1 0.056,-0.135l0.001 -0.001c0.034,-0.034 0.082,-0.055 0.134,-0.055 0.053,0 0.101,0.021 0.136,0.056 0.034,0.035 0.056,0.082 0.056,0.135 0,0.067 -0.043,0.128 -0.094,0.199 -0.028,0.04 -0.059,0.083 -0.085,0.132 -0.004,0.007 -0.013,0.01 -0.02,0.006 -0.002,-0.002 -0.004,-0.004 -0.006,-0.006zm-0.061 -0.149c0.025,0.034 0.051,0.071 0.074,0.112 0.024,-0.041 0.05,-0.078 0.074,-0.112 0.048,-0.067 0.088,-0.124 0.088,-0.182 0,-0.044 -0.018,-0.085 -0.047,-0.114 -0.029,-0.03 -0.07,-0.048 -0.115,-0.048 -0.044,0 -0.084,0.018 -0.114,0.047l0 0.001c-0.03,0.029 -0.048,0.07 -0.048,0.114 0,0.058 0.041,0.115 0.088,0.182zm0.074 -0.303c0.034,0 0.064,0.013 0.086,0.035l0.001 0.001c0.022,0.022 0.035,0.052 0.035,0.085 0,0.034 -0.014,0.064 -0.036,0.086 -0.022,0.022 -0.052,0.036 -0.086,0.036 -0.033,0 -0.064,-0.014 -0.086,-0.036l0 -0.001c-0.022,-0.022 -0.035,-0.052 -0.035,-0.085 0,-0.033 0.013,-0.064 0.035,-0.086 0.022,-0.022 0.053,-0.035 0.086,-0.035zm0.065 0.056c-0.016,-0.016 -0.039,-0.027 -0.065,-0.027 -0.025,0 -0.048,0.011 -0.065,0.027 -0.017,0.017 -0.027,0.04 -0.027,0.065 0,0.025 0.01,0.048 0.026,0.065l0.001 0.001c0.017,0.016 0.04,0.026 0.065,0.026 0.026,0 0.049,-0.01 0.065,-0.026 0.017,-0.017 0.027,-0.04 0.027,-0.066 0,-0.025 -0.01,-0.048 -0.026,-0.064l-0.001 -0.001z"/>
    <path class="fil1" d="M0.385 0.481c-0.004,-0.007 -0.001,-0.016 0.006,-0.02 0.007,-0.003 0.016,0 0.02,0.007l0.003 0.006c0.012,-0.012 0.03,-0.029 0.051,-0.043 0.025,-0.015 0.056,-0.022 0.076,-0.025l-0.017 -0.057c-0.002,-0.004 -0.001,-0.009 0.002,-0.013l0.024 -0.034 -0.007 -0.007c-0.027,0.013 -0.109,0.054 -0.144,0.106 -0.021,0.031 -0.036,0.059 -0.041,0.087l0 0c-0.004,0.028 0.002,0.056 0.023,0.091 0,-0.004 0.002,-0.007 0.005,-0.01l0.031 -0.023c0.006,-0.004 0.013,-0.004 0.018,0l0.163 0.121c0.007,0.005 0.008,0.014 0.003,0.021l-0.021 0.027 -0.008 0.036c-0.001,0.005 -0.004,0.009 -0.009,0.011 0,0 -0.02,0.008 -0.036,0.023 -0.013,0.011 -0.007,0.035 -0.007,0.036 0.001,0.002 0.001,0.005 0,0.007 -0.002,0.008 -0.01,0.013 -0.018,0.011 0,-0.001 -0.033,-0.009 -0.054,-0.025 -0.011,-0.009 -0.021,-0.024 -0.029,-0.04 -0.009,-0.016 -0.015,-0.033 -0.02,-0.046 -0.01,-0.024 -0.054,-0.085 -0.054,-0.085 -0.003,-0.003 -0.004,-0.008 -0.003,-0.012l0.011 -0.042c-0.023,-0.039 -0.029,-0.073 -0.024,-0.105l0 -0.001c0.006,-0.033 0.023,-0.064 0.046,-0.099 0.045,-0.067 0.156,-0.116 0.164,-0.119 0.005,-0.002 0.011,-0.002 0.016,0.002l0.025 0.021c0.005,0.005 0.007,0.014 0.002,0.02l-0.028 0.04 0.02 0.065c0.001,0.002 0.001,0.003 0.001,0.005 0,0.008 -0.006,0.015 -0.014,0.015 0,0 -0.048,0.003 -0.081,0.023 -0.032,0.021 -0.056,0.052 -0.057,0.053 -0.001,0.002 -0.003,0.003 -0.005,0.004 -0.007,0.004 -0.016,0.001 -0.02,-0.006l-0.013 -0.026zm-0.002 0.107l-0.011 0.043c0.012,0.016 0.045,0.064 0.054,0.087 0.005,0.012 0.011,0.028 0.019,0.042 0.006,0.013 0.014,0.025 0.021,0.031 0.007,0.005 0.016,0.01 0.024,0.013 0.001,-0.013 0.005,-0.029 0.017,-0.041 0.013,-0.012 0.029,-0.021 0.038,-0.025l0.007 -0.032c0.001,-0.003 0.002,-0.005 0.004,-0.007l0.013 -0.017 -0.143 -0.106 -0.022 0.017c-0.006,0.005 -0.016,0.003 -0.02,-0.003l-0.001 -0.002z"/>
    <path class="fil1" d="M0.663 0.48c0.003,-0.007 0.012,-0.01 0.019,-0.006 0.008,0.004 0.01,0.013 0.006,0.02l-0.011 0.021 0 0.046 0.043 0.039 0.048 -0.015c0.007,-0.002 0.014,0.001 0.018,0.007l0.026 0.048c0.002,0.004 0.002,0.008 0.001,0.012l-0.013 0.041 0 0.043c0.024,-0.026 0.059,-0.068 0.069,-0.099 0.006,-0.018 0.012,-0.04 0.015,-0.061 0.002,-0.018 0.003,-0.036 0.002,-0.05 -0.001,-0.009 0.005,-0.016 0.013,-0.017 0.008,-0.001 0.015,0.005 0.016,0.013 0.002,0.018 0.001,0.038 -0.002,0.058 -0.003,0.023 -0.009,0.046 -0.016,0.066 -0.019,0.056 -0.1,0.137 -0.101,0.137 -0.002,0.003 -0.006,0.005 -0.01,0.005 -0.008,0 -0.015,-0.007 -0.015,-0.015l0 -0.082c-0.001,-0.002 0,-0.004 0,-0.005l0.012 -0.037 -0.017 -0.033 -0.044 0.014c-0.005,0.002 -0.011,0.001 -0.015,-0.002l-0.054 -0.049c-0.004,-0.002 -0.006,-0.007 -0.006,-0.011l0 -0.056c0,-0.003 0.001,-0.005 0.002,-0.007l0.014 -0.025z"/>
    <path class="fil1" d="M0.941 0.461c-0.002,-0.008 0.002,-0.016 0.01,-0.018 0.008,-0.003 0.016,0.002 0.018,0.01 0.005,0.016 0.009,0.034 0.011,0.051 0.003,0.017 0.004,0.035 0.004,0.052 0,0.103 -0.041,0.195 -0.108,0.262 -0.067,0.067 -0.16,0.108 -0.262,0.108 -0.102,0 -0.194,-0.041 -0.261,-0.108 -0.067,-0.067 -0.109,-0.159 -0.109,-0.262 0,-0.088 0.031,-0.169 0.083,-0.233 0.053,-0.065 0.127,-0.111 0.212,-0.129 0.008,-0.001 0.016,0.004 0.018,0.012 0.001,0.008 -0.004,0.015 -0.012,0.017 -0.078,0.016 -0.146,0.059 -0.195,0.119 -0.048,0.058 -0.076,0.133 -0.076,0.214 0,0.094 0.038,0.18 0.099,0.241 0.062,0.062 0.147,0.1 0.241,0.1 0.094,0 0.179,-0.038 0.241,-0.1 0.062,-0.061 0.1,-0.147 0.1,-0.241 0,-0.016 -0.001,-0.032 -0.004,-0.048 -0.002,-0.016 -0.005,-0.032 -0.01,-0.047z"/>
   </g>
  </g>
 </g>
</svg>
