<?xml version="1.0" encoding="UTF-8"?>
<!DOCTYPE svg PUBLIC "-//W3C//DTD SVG 1.1//EN" "http://www.w3.org/Graphics/SVG/1.1/DTD/svg11.dtd">
<!-- Creator: CorelDRAW 2018 (64-Bit) -->
<svg xmlns="http://www.w3.org/2000/svg" xml:space="preserve" width="42px" height="32px" version="1.1" style="shape-rendering:geometricPrecision; text-rendering:geometricPrecision; image-rendering:optimizeQuality; fill-rule:evenodd; clip-rule:evenodd"
viewBox="0 0 1.11 0.846"
 xmlns:xlink="http://www.w3.org/1999/xlink">
 <defs>
  <style type="text/css">
   <![CDATA[
    .fil0 {fill:none}
    .fil1 {fill:white;fill-rule:nonzero}
   ]]>
  </style>
 </defs>
 <g id="Layer_x0020_1">
  <metadata id="CorelCorpID_0Corel-Layer"/>
  <g id="_2778932717824">
   <rect class="fil0" width="1.11" height="0.846"/>
   <g>
    <path class="fil1" d="M0.707 0.482c-0.024,-0.043 -0.051,-0.082 -0.077,-0.118 -0.045,-0.064 -0.084,-0.119 -0.084,-0.179 0,-0.047 0.019,-0.09 0.051,-0.121l0 -0.001c0.031,-0.031 0.074,-0.05 0.121,-0.05 0.048,0 0.091,0.02 0.122,0.051 0.031,0.031 0.051,0.074 0.051,0.121 0,0.06 -0.039,0.115 -0.085,0.179 -0.025,0.036 -0.053,0.075 -0.076,0.119 -0.003,0.006 -0.011,0.008 -0.018,0.005 -0.002,-0.001 -0.004,-0.003 -0.005,-0.006zm-0.055 -0.133c0.022,0.031 0.045,0.064 0.066,0.1 0.022,-0.036 0.045,-0.069 0.067,-0.1 0.043,-0.061 0.079,-0.112 0.079,-0.164 0,-0.04 -0.016,-0.076 -0.043,-0.103 -0.026,-0.026 -0.062,-0.042 -0.103,-0.042 -0.04,0 -0.076,0.016 -0.102,0.042l-0.001 0c-0.026,0.027 -0.042,0.063 -0.042,0.103 0,0.052 0.036,0.103 0.079,0.164zm0.066 -0.273c0.03,0 0.058,0.012 0.078,0.032l0 0.001c0.02,0.02 0.032,0.047 0.032,0.076 0,0.031 -0.013,0.058 -0.032,0.078 -0.02,0.019 -0.048,0.032 -0.078,0.032 -0.03,0 -0.057,-0.013 -0.077,-0.032l-0.001 -0.001c-0.019,-0.02 -0.031,-0.047 -0.031,-0.077 0,-0.03 0.012,-0.057 0.032,-0.077 0.02,-0.02 0.047,-0.032 0.077,-0.032zm0.059 0.051c-0.015,-0.015 -0.036,-0.024 -0.059,-0.024 -0.023,0 -0.043,0.009 -0.058,0.024 -0.015,0.015 -0.024,0.036 -0.024,0.058 0,0.023 0.009,0.043 0.023,0.058l0.001 0.001c0.015,0.015 0.035,0.024 0.058,0.024 0.023,0 0.044,-0.009 0.059,-0.024 0.015,-0.015 0.024,-0.036 0.024,-0.059 0,-0.022 -0.009,-0.043 -0.023,-0.057l-0.001 -0.001z"/>
    <path class="fil1" d="M0.346 0.433c-0.004,-0.007 -0.001,-0.015 0.005,-0.018 0.007,-0.004 0.015,-0.001 0.018,0.005l0.003 0.006c0.011,-0.011 0.027,-0.026 0.046,-0.038 0.022,-0.014 0.051,-0.021 0.068,-0.023l-0.015 -0.051c-0.001,-0.004 -0.001,-0.008 0.002,-0.012l0.022 -0.031 -0.007 -0.006c-0.024,0.011 -0.098,0.048 -0.129,0.095 -0.019,0.029 -0.033,0.053 -0.037,0.079l0 0c-0.004,0.024 0.002,0.05 0.02,0.081 0.001,-0.003 0.002,-0.006 0.005,-0.008l0.028 -0.021c0.005,-0.004 0.011,-0.004 0.016,0l0.147 0.109c0.005,0.004 0.007,0.012 0.002,0.018l-0.019 0.025 -0.007 0.032c-0.001,0.004 -0.004,0.008 -0.008,0.01 0,0 -0.018,0.007 -0.033,0.021 -0.011,0.01 -0.006,0.031 -0.005,0.031 0,0.003 0,0.005 0,0.007 -0.002,0.007 -0.01,0.012 -0.017,0.01 0,0 -0.03,-0.008 -0.049,-0.023 -0.009,-0.007 -0.018,-0.021 -0.026,-0.036 -0.007,-0.014 -0.013,-0.029 -0.018,-0.041 -0.008,-0.021 -0.048,-0.076 -0.048,-0.076 -0.002,-0.003 -0.003,-0.007 -0.002,-0.011l0.009 -0.038c-0.02,-0.035 -0.026,-0.065 -0.021,-0.094l0 -0.001c0.005,-0.029 0.02,-0.057 0.041,-0.088 0.041,-0.061 0.14,-0.105 0.147,-0.108 0.005,-0.002 0.01,-0.001 0.014,0.002l0.023 0.019c0.005,0.004 0.006,0.012 0.002,0.018l-0.025 0.035 0.018 0.059c0,0.002 0.001,0.003 0.001,0.004 0,0.008 -0.005,0.014 -0.013,0.014 0,0 -0.043,0.003 -0.072,0.021 -0.03,0.019 -0.051,0.046 -0.052,0.048 -0.001,0.001 -0.002,0.002 -0.004,0.003 -0.007,0.004 -0.015,0.001 -0.018,-0.005l-0.012 -0.023zm-0.002 0.096l-0.009 0.038c0.01,0.015 0.04,0.057 0.048,0.078 0.004,0.011 0.01,0.026 0.017,0.038 0.006,0.012 0.012,0.023 0.019,0.028 0.006,0.005 0.014,0.008 0.021,0.011 0.001,-0.012 0.004,-0.026 0.016,-0.036 0.012,-0.011 0.026,-0.019 0.034,-0.023l0.006 -0.029c0.001,-0.002 0.002,-0.004 0.003,-0.006l0.012 -0.015 -0.128 -0.095 -0.02 0.015c-0.006,0.004 -0.014,0.003 -0.018,-0.003l-0.001 -0.001z"/>
    <path class="fil1" d="M0.595 0.432c0.004,-0.007 0.012,-0.009 0.018,-0.006 0.007,0.004 0.009,0.012 0.006,0.018l-0.011 0.019 0 0.041 0.039 0.035 0.044 -0.013c0.006,-0.002 0.012,0 0.015,0.006l0.024 0.043c0.002,0.004 0.002,0.007 0.001,0.011l-0.012 0.036 0 0.04c0.022,-0.024 0.053,-0.062 0.062,-0.09 0.006,-0.016 0.011,-0.035 0.013,-0.054 0.003,-0.016 0.004,-0.032 0.002,-0.046 -0.001,-0.007 0.004,-0.013 0.012,-0.014 0.007,-0.001 0.013,0.004 0.014,0.011 0.002,0.016 0.001,0.034 -0.002,0.052 -0.002,0.021 -0.008,0.042 -0.014,0.06 -0.017,0.05 -0.09,0.123 -0.09,0.123 -0.003,0.002 -0.006,0.004 -0.009,0.004 -0.008,0 -0.014,-0.006 -0.014,-0.013l0 -0.074c-0.001,-0.001 0,-0.003 0,-0.005l0.011 -0.033 -0.016 -0.029 -0.039 0.012c-0.004,0.002 -0.01,0.002 -0.014,-0.002l-0.048 -0.043c-0.003,-0.003 -0.005,-0.007 -0.005,-0.011l0 -0.05c0,-0.002 0,-0.004 0.001,-0.006l0.012 -0.022z"/>
    <path class="fil1" d="M0.846 0.414c-0.002,-0.007 0.002,-0.014 0.009,-0.016 0.007,-0.002 0.014,0.002 0.016,0.009 0.005,0.015 0.008,0.03 0.01,0.046 0.002,0.015 0.003,0.031 0.003,0.047 0,0.092 -0.037,0.175 -0.097,0.235 -0.06,0.06 -0.143,0.098 -0.235,0.098 -0.092,0 -0.175,-0.038 -0.235,-0.098 -0.06,-0.06 -0.097,-0.143 -0.097,-0.235 0,-0.079 0.027,-0.152 0.074,-0.21 0.048,-0.058 0.114,-0.1 0.191,-0.115 0.007,-0.002 0.014,0.003 0.015,0.01 0.002,0.007 -0.003,0.014 -0.01,0.015 -0.07,0.015 -0.132,0.053 -0.175,0.107 -0.043,0.053 -0.069,0.12 -0.069,0.193 0,0.085 0.034,0.161 0.09,0.217 0.055,0.055 0.131,0.089 0.216,0.089 0.085,0 0.161,-0.034 0.216,-0.089 0.056,-0.056 0.09,-0.132 0.09,-0.217 0,-0.015 -0.001,-0.029 -0.003,-0.043 -0.002,-0.015 -0.005,-0.029 -0.009,-0.043z"/>
   </g>
  </g>
 </g>
</svg>
