<?xml version="1.0" encoding="UTF-8"?>
<!DOCTYPE svg PUBLIC "-//W3C//DTD SVG 1.1//EN" "http://www.w3.org/Graphics/SVG/1.1/DTD/svg11.dtd">
<!-- Creator: CorelDRAW 2018 (64-Bit) -->
<svg xmlns="http://www.w3.org/2000/svg" xml:space="preserve" width="42px" height="32px" version="1.1" style="shape-rendering:geometricPrecision; text-rendering:geometricPrecision; image-rendering:optimizeQuality; fill-rule:evenodd; clip-rule:evenodd"
viewBox="0 0 1.008 0.768"
 xmlns:xlink="http://www.w3.org/1999/xlink">
 <defs>
  <style type="text/css">
   <![CDATA[
    .fil0 {fill:none}
    .fil1 {fill:gray;fill-rule:nonzero}
   ]]>
  </style>
 </defs>
 <g id="Layer_x0020_1">
  <metadata id="CorelCorpID_0Corel-Layer"/>
  <g id="_2815590607472">
   <rect class="fil0" width="1.008" height="0.768"/>
   <g>
    <path class="fil1" d="M0.642 0.438c-0.022,-0.04 -0.047,-0.075 -0.07,-0.107 -0.041,-0.059 -0.076,-0.108 -0.076,-0.163 0,-0.043 0.017,-0.082 0.046,-0.11l0 -0.001c0.029,-0.028 0.067,-0.045 0.11,-0.045 0.043,0 0.083,0.018 0.111,0.046 0.028,0.028 0.046,0.067 0.046,0.11 0,0.055 -0.036,0.104 -0.077,0.163 -0.023,0.032 -0.048,0.067 -0.069,0.107 -0.003,0.006 -0.011,0.008 -0.016,0.005 -0.003,-0.001 -0.004,-0.003 -0.005,-0.005zm-0.05 -0.121c0.02,0.028 0.041,0.058 0.06,0.091 0.02,-0.033 0.041,-0.063 0.061,-0.091 0.038,-0.055 0.072,-0.102 0.072,-0.149 0,-0.036 -0.015,-0.069 -0.039,-0.093 -0.024,-0.024 -0.057,-0.039 -0.094,-0.039 -0.036,0 -0.069,0.015 -0.093,0.038l0 0.001c-0.024,0.024 -0.039,0.057 -0.039,0.093 0,0.047 0.033,0.094 0.072,0.149zm0.06 -0.248c0.028,0 0.052,0.011 0.07,0.029l0.001 0.001c0.018,0.018 0.028,0.042 0.028,0.069 0,0.028 -0.011,0.053 -0.029,0.071 -0.018,0.017 -0.042,0.029 -0.07,0.029 -0.027,0 -0.052,-0.012 -0.07,-0.029l-0.001 -0.001c-0.017,-0.018 -0.028,-0.043 -0.028,-0.07 0,-0.027 0.011,-0.052 0.029,-0.07 0.018,-0.018 0.043,-0.029 0.07,-0.029zm0.053 0.046c-0.013,-0.013 -0.032,-0.022 -0.053,-0.022 -0.02,0 -0.039,0.009 -0.053,0.022 -0.013,0.014 -0.022,0.033 -0.022,0.053 0,0.021 0.008,0.039 0.022,0.053l0 0.001c0.014,0.013 0.033,0.022 0.053,0.022 0.021,0 0.04,-0.009 0.053,-0.022 0.014,-0.014 0.022,-0.033 0.022,-0.054 0,-0.02 -0.008,-0.039 -0.021,-0.052l-0.001 -0.001z"/>
    <path class="fil1" d="M0.314 0.393c-0.003,-0.006 -0.001,-0.013 0.005,-0.016 0.006,-0.003 0.013,-0.001 0.016,0.005l0.003 0.005c0.01,-0.01 0.024,-0.024 0.041,-0.035 0.021,-0.013 0.047,-0.018 0.063,-0.021l-0.014 -0.046c-0.002,-0.004 -0.001,-0.008 0.001,-0.01l0.02 -0.029 -0.006 -0.005c-0.022,0.01 -0.088,0.044 -0.117,0.086 -0.017,0.026 -0.03,0.048 -0.034,0.071l0 0.001c-0.003,0.022 0.002,0.045 0.019,0.074 0,-0.003 0.002,-0.006 0.004,-0.008l0.026 -0.019c0.004,-0.004 0.01,-0.004 0.014,-0.001l0.133 0.099c0.006,0.004 0.007,0.012 0.003,0.017l-0.018 0.023 -0.006 0.029c-0.001,0.004 -0.003,0.007 -0.007,0.009 0,0 -0.016,0.006 -0.03,0.019 -0.01,0.009 -0.006,0.028 -0.005,0.029 0,0.002 0,0.004 0,0.006 -0.002,0.006 -0.009,0.01 -0.015,0.008 0,0 -0.028,-0.006 -0.045,-0.02 -0.009,-0.007 -0.017,-0.019 -0.023,-0.033 -0.007,-0.012 -0.012,-0.026 -0.017,-0.037 -0.007,-0.019 -0.044,-0.069 -0.044,-0.069 -0.002,-0.003 -0.002,-0.006 -0.002,-0.01l0.009 -0.034c-0.018,-0.032 -0.023,-0.06 -0.019,-0.086l0 0c0.004,-0.028 0.018,-0.053 0.037,-0.081 0.037,-0.055 0.127,-0.095 0.134,-0.098 0.004,-0.002 0.009,-0.001 0.013,0.002l0.02 0.017c0.005,0.004 0.006,0.011 0.002,0.016l-0.023 0.033 0.017 0.053c0,0.001 0,0.003 0,0.004 0.001,0.006 -0.004,0.012 -0.011,0.012 0,0 -0.04,0.003 -0.066,0.019 -0.027,0.017 -0.046,0.042 -0.047,0.043 -0.001,0.002 -0.002,0.003 -0.004,0.004 -0.006,0.003 -0.013,0.001 -0.016,-0.005l-0.011 -0.021zm-0.002 0.087l-0.008 0.035c0.009,0.013 0.036,0.052 0.044,0.071 0.004,0.01 0.009,0.023 0.015,0.034 0.005,0.011 0.011,0.021 0.017,0.025 0.006,0.005 0.013,0.008 0.02,0.011 0.001,-0.011 0.004,-0.024 0.014,-0.033 0.011,-0.01 0.023,-0.017 0.031,-0.021l0.006 -0.026c0,-0.002 0.001,-0.004 0.002,-0.006l0.011 -0.014 -0.116 -0.086 -0.018 0.014c-0.005,0.004 -0.013,0.003 -0.017,-0.003l-0.001 -0.001z"/>
    <path class="fil1" d="M0.541 0.392c0.003,-0.006 0.01,-0.008 0.016,-0.005 0.006,0.003 0.008,0.011 0.005,0.016l-0.01 0.018 0 0.037 0.036 0.032 0.039 -0.013c0.006,-0.001 0.012,0.001 0.014,0.006l0.022 0.04c0.001,0.003 0.002,0.006 0.001,0.009l-0.011 0.033 0 0.036c0.02,-0.022 0.048,-0.056 0.057,-0.081 0.005,-0.015 0.009,-0.033 0.011,-0.05 0.002,-0.015 0.003,-0.029 0.002,-0.041 -0.001,-0.007 0.004,-0.013 0.01,-0.013 0.007,-0.001 0.013,0.004 0.014,0.01 0.001,0.014 0,0.031 -0.002,0.048 -0.003,0.018 -0.007,0.037 -0.013,0.053 -0.015,0.046 -0.082,0.112 -0.082,0.112 -0.002,0.002 -0.005,0.004 -0.008,0.004 -0.007,0 -0.012,-0.005 -0.012,-0.012l-0.001 -0.067c0,-0.001 0,-0.003 0,-0.004l0.01 -0.031 -0.014 -0.026 -0.035 0.011c-0.005,0.002 -0.009,0.001 -0.013,-0.002l-0.044 -0.039c-0.003,-0.002 -0.005,-0.006 -0.005,-0.01l0 -0.045c0,-0.002 0.001,-0.004 0.002,-0.006l0.011 -0.02z"/>
    <path class="fil1" d="M0.768 0.376c-0.002,-0.006 0.002,-0.013 0.008,-0.015 0.007,-0.002 0.013,0.002 0.015,0.008 0.004,0.014 0.007,0.028 0.009,0.042 0.002,0.014 0.003,0.029 0.003,0.043 0,0.084 -0.034,0.159 -0.088,0.214 -0.055,0.054 -0.13,0.088 -0.214,0.088 -0.083,0 -0.159,-0.034 -0.213,-0.088 -0.055,-0.055 -0.089,-0.13 -0.089,-0.214 0,-0.072 0.026,-0.138 0.068,-0.19 0.043,-0.053 0.104,-0.091 0.173,-0.106 0.007,-0.001 0.013,0.003 0.014,0.01 0.002,0.006 -0.003,0.013 -0.009,0.014 -0.064,0.013 -0.12,0.048 -0.159,0.097 -0.039,0.048 -0.063,0.109 -0.063,0.175 0,0.077 0.031,0.146 0.082,0.197 0.05,0.05 0.12,0.081 0.196,0.081 0.077,0 0.146,-0.031 0.197,-0.081 0.05,-0.051 0.081,-0.12 0.081,-0.197 0,-0.013 -0.001,-0.027 -0.003,-0.039 -0.002,-0.014 -0.004,-0.026 -0.008,-0.039z"/>
   </g>
  </g>
 </g>
</svg>
