<?xml version="1.0" encoding="UTF-8"?>
<!DOCTYPE svg PUBLIC "-//W3C//DTD SVG 1.1//EN" "http://www.w3.org/Graphics/SVG/1.1/DTD/svg11.dtd">
<!-- Creator: CorelDRAW 2018 (64-Bit) -->
<svg xmlns="http://www.w3.org/2000/svg" xml:space="preserve" width="42px" height="32px" version="1.1" style="shape-rendering:geometricPrecision; text-rendering:geometricPrecision; image-rendering:optimizeQuality; fill-rule:evenodd; clip-rule:evenodd"
viewBox="0 0 1.008 0.768"
 xmlns:xlink="http://www.w3.org/1999/xlink">
 <defs>
  <style type="text/css">
   <![CDATA[
    .fil0 {fill:none}
    .fil1 {fill:gray;fill-rule:nonzero}
   ]]>
  </style>
 </defs>
 <g id="Layer_x0020_1">
  <metadata id="CorelCorpID_0Corel-Layer"/>
  <g id="_2815748722160">
   <rect class="fil0" width="1.008" height="0.768"/>
   <g>
    <path class="fil1" d="M0.77 0.571c0.006,-0.003 0.013,-0.001 0.016,0.005 0.004,0.005 0.002,0.013 -0.004,0.016l-0.281 0.162c-0.004,0.003 -0.009,0.002 -0.012,0l-0.281 -0.162c-0.004,-0.002 -0.006,-0.006 -0.006,-0.01l0 -0.325c0,-0.005 0.002,-0.009 0.007,-0.011l0.28 -0.162c0.004,-0.002 0.008,-0.002 0.012,0l0.281 0.163c0.006,0.003 0.008,0.01 0.004,0.016 -0.003,0.006 -0.01,0.008 -0.016,0.004l-0.275 -0.159 -0.269 0.156 0 0.311 0.269 0.155 0.275 -0.159z"/>
    <path class="fil1" d="M0.473 0.523c-0.006,0 -0.012,-0.005 -0.012,-0.012 0,-0.006 0.006,-0.012 0.012,-0.012l0.417 0c0.007,0 0.012,0.006 0.012,0.012 0,0.007 -0.005,0.012 -0.012,0.012l-0.417 0z"/>
    <path class="fil1" d="M0.473 0.431c-0.006,0 -0.012,-0.005 -0.012,-0.012 0,-0.006 0.006,-0.012 0.012,-0.012l0.417 0c0.007,0 0.012,0.006 0.012,0.012 0,0.007 -0.005,0.012 -0.012,0.012l-0.417 0z"/>
    <path class="fil1" d="M0.473 0.339c-0.006,0 -0.012,-0.005 -0.012,-0.012 0,-0.006 0.006,-0.012 0.012,-0.012l0.417 0c0.007,0 0.012,0.006 0.012,0.012 0,0.007 -0.005,0.012 -0.012,0.012l-0.417 0z"/>
   </g>
  </g>
 </g>
</svg>
