<?xml version="1.0" encoding="UTF-8"?>
<!DOCTYPE svg PUBLIC "-//W3C//DTD SVG 1.1//EN" "http://www.w3.org/Graphics/SVG/1.1/DTD/svg11.dtd">
<!-- Creator: CorelDRAW 2018 (64-Bit) -->
<svg xmlns="http://www.w3.org/2000/svg" xml:space="preserve" width="42px" height="32px" version="1.1" style="shape-rendering:geometricPrecision; text-rendering:geometricPrecision; image-rendering:optimizeQuality; fill-rule:evenodd; clip-rule:evenodd"
viewBox="0 0 1.235 0.941"
 xmlns:xlink="http://www.w3.org/1999/xlink">
 <defs>
  <style type="text/css">
   <![CDATA[
    .fil0 {fill:none}
    .fil1 {fill:#00F4FF;fill-rule:nonzero}
   ]]>
  </style>
 </defs>
 <g id="Layer_x0020_1">
  <metadata id="CorelCorpID_0Corel-Layer"/>
  <g id="_2778886624064">
   <rect class="fil0" width="1.235" height="0.941"/>
   <g>
    <path class="fil1" d="M0.944 0.7c0.007,-0.004 0.016,-0.002 0.02,0.005 0.004,0.007 0.001,0.016 -0.006,0.02l-0.344 0.199c-0.005,0.003 -0.011,0.003 -0.015,0l-0.345 -0.199c-0.004,-0.002 -0.007,-0.007 -0.007,-0.012l0 -0.398c0,-0.006 0.004,-0.011 0.009,-0.014l0.343 -0.198c0.005,-0.002 0.01,-0.002 0.015,0l0.344 0.199c0.007,0.004 0.01,0.013 0.006,0.02 -0.004,0.007 -0.013,0.01 -0.02,0.006l-0.338 -0.195 -0.33 0.19 0 0.381 0.33 0.191 0.338 -0.195z"/>
    <path class="fil1" d="M0.58 0.641c-0.008,0 -0.015,-0.006 -0.015,-0.015 0,-0.008 0.007,-0.014 0.015,-0.014l0.511 0c0.008,0 0.015,0.006 0.015,0.014 0,0.009 -0.007,0.015 -0.015,0.015l-0.511 0z"/>
    <path class="fil1" d="M0.58 0.528c-0.008,0 -0.015,-0.006 -0.015,-0.014 0,-0.008 0.007,-0.015 0.015,-0.015l0.511 0c0.008,0 0.015,0.007 0.015,0.015 0,0.008 -0.007,0.014 -0.015,0.014l-0.511 0z"/>
    <path class="fil1" d="M0.58 0.416c-0.008,0 -0.015,-0.007 -0.015,-0.015 0,-0.008 0.007,-0.015 0.015,-0.015l0.511 0c0.008,0 0.015,0.007 0.015,0.015 0,0.008 -0.007,0.015 -0.015,0.015l-0.511 0z"/>
   </g>
  </g>
 </g>
</svg>
