<?xml version="1.0" encoding="UTF-8"?>
<!DOCTYPE svg PUBLIC "-//W3C//DTD SVG 1.1//EN" "http://www.w3.org/Graphics/SVG/1.1/DTD/svg11.dtd">
<!-- Creator: CorelDRAW 2018 (64-Bit) -->
<svg xmlns="http://www.w3.org/2000/svg" xml:space="preserve" width="42px" height="32px" version="1.1" style="shape-rendering:geometricPrecision; text-rendering:geometricPrecision; image-rendering:optimizeQuality; fill-rule:evenodd; clip-rule:evenodd"
viewBox="0 0 1.11 0.846"
 xmlns:xlink="http://www.w3.org/1999/xlink">
 <defs>
  <style type="text/css">
   <![CDATA[
    .fil0 {fill:none}
    .fil1 {fill:white;fill-rule:nonzero}
   ]]>
  </style>
 </defs>
 <g id="Layer_x0020_1">
  <metadata id="CorelCorpID_0Corel-Layer"/>
  <g id="_2815748135792">
   <rect class="fil0" width="1.11" height="0.846"/>
   <g>
    <path class="fil1" d="M0.848 0.629c0.006,-0.003 0.014,-0.001 0.018,0.005 0.004,0.006 0.002,0.014 -0.005,0.018l-0.309 0.179c-0.005,0.002 -0.01,0.002 -0.014,0l-0.309 -0.179c-0.005,-0.002 -0.007,-0.007 -0.007,-0.011l0 -0.358c0,-0.005 0.003,-0.01 0.008,-0.012l0.308 -0.178c0.005,-0.003 0.01,-0.003 0.013,0l0.31 0.179c0.006,0.003 0.009,0.011 0.005,0.018 -0.004,0.006 -0.012,0.008 -0.018,0.004l-0.303 -0.175 -0.297 0.172 0 0.342 0.297 0.171 0.303 -0.175z"/>
    <path class="fil1" d="M0.521 0.576c-0.007,0 -0.013,-0.006 -0.013,-0.013 0,-0.007 0.006,-0.013 0.013,-0.013l0.46 0c0.007,0 0.013,0.006 0.013,0.013 0,0.007 -0.006,0.013 -0.013,0.013l-0.46 0z"/>
    <path class="fil1" d="M0.521 0.475c-0.007,0 -0.013,-0.006 -0.013,-0.013 0,-0.008 0.006,-0.013 0.013,-0.013l0.46 0c0.007,0 0.013,0.005 0.013,0.013 0,0.007 -0.006,0.013 -0.013,0.013l-0.46 0z"/>
    <path class="fil1" d="M0.521 0.374c-0.007,0 -0.013,-0.006 -0.013,-0.014 0,-0.007 0.006,-0.013 0.013,-0.013l0.46 0c0.007,0 0.013,0.006 0.013,0.013 0,0.008 -0.006,0.014 -0.013,0.014l-0.46 0z"/>
   </g>
  </g>
 </g>
</svg>
