<?xml version="1.0" encoding="UTF-8"?>
<!DOCTYPE svg PUBLIC "-//W3C//DTD SVG 1.1//EN" "http://www.w3.org/Graphics/SVG/1.1/DTD/svg11.dtd">
<!-- Creator: CorelDRAW 2018 (64-Bit) -->
<svg xmlns="http://www.w3.org/2000/svg" xml:space="preserve" width="42px" height="32px" version="1.1" style="shape-rendering:geometricPrecision; text-rendering:geometricPrecision; image-rendering:optimizeQuality; fill-rule:evenodd; clip-rule:evenodd"
viewBox="0 0 2.388 1.819"
 xmlns:xlink="http://www.w3.org/1999/xlink">
 <defs>
  <style type="text/css">
   <![CDATA[
    .fil0 {fill:none}
    .fil1 {fill:#00F4FF;fill-rule:nonzero}
   ]]>
  </style>
 </defs>
 <g id="Layer_x0020_1">
  <metadata id="CorelCorpID_0Corel-Layer"/>
  <g id="_2814941057280">
   <rect class="fil0" width="2.388" height="1.819"/>
   <g>
    <path class="fil1" d="M1.12 0.202c0.019,-0.011 0.047,-0.017 0.074,-0.017 0.027,0 0.055,0.006 0.074,0.017l0.569 0.329c0.02,0.011 0.039,0.032 0.052,0.056l0.001 0.002c0.013,0.023 0.022,0.049 0.022,0.071l0 0.656c0,0.023 -0.009,0.049 -0.023,0.073 -0.013,0.024 -0.032,0.045 -0.052,0.056l-0.569 0.329c-0.019,0.011 -0.047,0.017 -0.074,0.017 -0.027,0 -0.055,-0.006 -0.074,-0.017l-0.569 -0.329c-0.02,-0.011 -0.039,-0.032 -0.052,-0.056l-0.001 -0.002c-0.013,-0.023 -0.022,-0.049 -0.022,-0.071l0 -0.656c0,-0.023 0.009,-0.05 0.023,-0.073 0.013,-0.024 0.032,-0.045 0.052,-0.056l0.569 -0.329zm0.074 0.04c-0.018,0 -0.035,0.003 -0.046,0.009l-0.569 0.329c-0.011,0.006 -0.022,0.02 -0.031,0.035 -0.009,0.016 -0.015,0.032 -0.015,0.045l0 0.656c0,0.012 0.006,0.028 0.014,0.043l0.001 0.002c0.009,0.015 0.02,0.029 0.031,0.035l0.569 0.329c0.011,0.006 0.028,0.009 0.046,0.009 0.018,0 0.035,-0.003 0.046,-0.009l0.569 -0.329c0.011,-0.006 0.022,-0.02 0.031,-0.035 0.009,-0.016 0.015,-0.032 0.015,-0.045l0 -0.656c0,-0.012 -0.006,-0.028 -0.014,-0.043l-0.001 -0.002c-0.009,-0.015 -0.02,-0.029 -0.031,-0.035l-0.569 -0.329c-0.011,-0.006 -0.028,-0.009 -0.046,-0.009z"/>
    <polygon class="fil1" points="1.852,1.414 0.535,1.414 0.535,1.358 1.852,1.358 "/>
    <polygon class="fil1" points="1.231,0.2 1.895,1.35 1.846,1.378 1.182,0.228 "/>
    <polygon class="fil1" points="0.493,1.35 1.157,0.2 1.206,0.228 0.542,1.378 "/>
    <polygon class="fil1" points="1.165,1.757 1.165,0.219 1.222,0.219 1.222,1.757 "/>
    <polygon class="fil1" points="0.515,1.347 1.845,0.579 1.873,0.629 0.543,1.396 "/>
    <polygon class="fil1" points="0.538,0.576 1.879,1.351 1.85,1.4 0.509,0.625 "/>
   </g>
  </g>
 </g>
</svg>
