<?xml version="1.0" encoding="UTF-8"?>
<!DOCTYPE svg PUBLIC "-//W3C//DTD SVG 1.1//EN" "http://www.w3.org/Graphics/SVG/1.1/DTD/svg11.dtd">
<!-- Creator: CorelDRAW 2018 (64-Bit) -->
<svg xmlns="http://www.w3.org/2000/svg" xml:space="preserve" width="42px" height="32px" version="1.1" style="shape-rendering:geometricPrecision; text-rendering:geometricPrecision; image-rendering:optimizeQuality; fill-rule:evenodd; clip-rule:evenodd"
viewBox="0 0 1.668 1.271"
 xmlns:xlink="http://www.w3.org/1999/xlink">
 <defs>
  <style type="text/css">
   <![CDATA[
    .fil0 {fill:none}
    .fil1 {fill:white;fill-rule:nonzero}
   ]]>
  </style>
 </defs>
 <g id="Layer_x0020_1">
  <metadata id="CorelCorpID_0Corel-Layer"/>
  <g id="_2815025117040">
   <rect class="fil0" width="1.668" height="1.271"/>
   <g>
    <path class="fil1" d="M0.782 0.141c0.014,-0.008 0.033,-0.012 0.052,-0.012 0.019,0 0.038,0.004 0.052,0.012l0.397 0.23c0.014,0.008 0.027,0.023 0.036,0.039l0.001 0.001c0.009,0.016 0.015,0.034 0.015,0.05l0 0.458c0,0.016 -0.006,0.035 -0.016,0.051 -0.009,0.017 -0.022,0.031 -0.036,0.039l-0.397 0.23c-0.014,0.008 -0.033,0.012 -0.052,0.012 -0.019,0 -0.038,-0.004 -0.052,-0.012l-0.397 -0.23c-0.014,-0.008 -0.027,-0.022 -0.037,-0.039l0 -0.001c-0.009,-0.016 -0.015,-0.034 -0.015,-0.05l0 -0.458c0,-0.016 0.006,-0.035 0.015,-0.051 0.01,-0.016 0.023,-0.031 0.037,-0.039l0.397 -0.23zm0.052 0.028c-0.013,0 -0.025,0.002 -0.032,0.006l-0.398 0.23c-0.007,0.004 -0.015,0.014 -0.021,0.025 -0.007,0.01 -0.011,0.022 -0.011,0.031l0 0.458c0,0.009 0.004,0.02 0.01,0.03l0.001 0.001c0.006,0.011 0.014,0.021 0.021,0.025l0.398 0.23c0.007,0.004 0.019,0.006 0.032,0.006 0.012,0 0.024,-0.002 0.032,-0.006l0.397 -0.23c0.008,-0.004 0.016,-0.014 0.022,-0.025 0.006,-0.01 0.01,-0.022 0.01,-0.031l0 -0.458c0,-0.009 -0.003,-0.02 -0.009,-0.03l-0.001 -0.001c-0.006,-0.011 -0.014,-0.021 -0.022,-0.025l-0.397 -0.23c-0.008,-0.004 -0.02,-0.006 -0.032,-0.006z"/>
    <polygon class="fil1" points="1.294,0.988 0.374,0.988 0.374,0.948 1.294,0.948 "/>
    <polygon class="fil1" points="0.86,0.14 1.323,0.943 1.289,0.962 0.826,0.16 "/>
    <polygon class="fil1" points="0.344,0.943 0.808,0.139 0.842,0.159 0.378,0.963 "/>
    <polygon class="fil1" points="0.814,1.227 0.814,0.153 0.854,0.153 0.854,1.227 "/>
    <polygon class="fil1" points="0.359,0.941 1.288,0.405 1.308,0.439 0.379,0.975 "/>
    <polygon class="fil1" points="0.376,0.403 1.312,0.943 1.292,0.978 0.356,0.437 "/>
   </g>
  </g>
 </g>
</svg>
