<?xml version="1.0" encoding="UTF-8"?>
<!DOCTYPE svg PUBLIC "-//W3C//DTD SVG 1.1//EN" "http://www.w3.org/Graphics/SVG/1.1/DTD/svg11.dtd">
<!-- Creator: CorelDRAW 2018 (64-Bit) -->
<svg xmlns="http://www.w3.org/2000/svg" xml:space="preserve" width="42px" height="32px" version="1.1" style="shape-rendering:geometricPrecision; text-rendering:geometricPrecision; image-rendering:optimizeQuality; fill-rule:evenodd; clip-rule:evenodd"
viewBox="0 0 2.388 1.819"
 xmlns:xlink="http://www.w3.org/1999/xlink">
 <defs>
  <style type="text/css">
   <![CDATA[
    .fil0 {fill:none}
    .fil1 {fill:#00F4FF;fill-rule:nonzero}
   ]]>
  </style>
 </defs>
 <g id="Layer_x0020_1">
  <metadata id="CorelCorpID_0Corel-Layer"/>
  <g id="_2778924106080">
   <rect class="fil0" width="2.388" height="1.819"/>
   <g>
    <path class="fil1" d="M0.5 0.37l1.388 0c0.027,0 0.051,0.011 0.069,0.028 0.017,0.018 0.028,0.042 0.028,0.069l0 1.17c0,0.027 -0.011,0.051 -0.028,0.069 -0.018,0.017 -0.042,0.028 -0.069,0.028l-1.388 0c-0.027,0 -0.051,-0.011 -0.069,-0.028 -0.017,-0.018 -0.028,-0.042 -0.028,-0.069l0 -1.17c0,-0.027 0.011,-0.051 0.028,-0.069 0.018,-0.017 0.042,-0.028 0.069,-0.028zm1.388 0.056l-1.388 0c-0.011,0 -0.021,0.005 -0.029,0.012 -0.007,0.008 -0.011,0.018 -0.011,0.029l0 1.17c0,0.011 0.004,0.021 0.011,0.028 0.008,0.008 0.018,0.012 0.029,0.012l1.388 0c0.011,0 0.021,-0.004 0.028,-0.012 0.008,-0.007 0.012,-0.017 0.012,-0.028l0 -1.17c0,-0.011 -0.004,-0.021 -0.012,-0.029 -0.007,-0.007 -0.017,-0.012 -0.028,-0.012z"/>
    <path class="fil1" d="M0.634 1.049l0 0.444c0,0.003 0.001,0.005 0.003,0.007 0.001,0.002 0.004,0.003 0.006,0.003l1.101 0c0.003,0 0.006,-0.001 0.007,-0.003 0.002,-0.002 0.003,-0.004 0.003,-0.007l0 -0.444c0,-0.002 -0.001,-0.005 -0.003,-0.007 -0.002,-0.001 -0.004,-0.002 -0.007,-0.002l-1.101 0c-0.002,0 -0.005,0.001 -0.006,0.002 -0.002,0.002 -0.003,0.004 -0.003,0.007zm-0.057 0.444l0 -0.444c0,-0.018 0.008,-0.035 0.02,-0.047 0.012,-0.012 0.028,-0.019 0.046,-0.019l1.101 0c0.019,0 0.035,0.007 0.047,0.019 0.012,0.012 0.02,0.029 0.02,0.047l0 0.444c0,0.018 -0.008,0.035 -0.02,0.047l0 0c-0.012,0.012 -0.028,0.02 -0.047,0.02l-1.101 0c-0.018,0 -0.034,-0.008 -0.046,-0.02 -0.012,-0.012 -0.02,-0.028 -0.02,-0.047z"/>
    <path class="fil1" d="M0.758 0.849c0.034,0 0.065,-0.014 0.088,-0.036 0.022,-0.023 0.036,-0.054 0.036,-0.088 0,-0.034 -0.014,-0.065 -0.036,-0.088 -0.023,-0.022 -0.054,-0.036 -0.088,-0.036 -0.034,0 -0.065,0.014 -0.088,0.036 -0.022,0.023 -0.036,0.054 -0.036,0.088 0,0.034 0.014,0.065 0.036,0.088 0.023,0.022 0.054,0.036 0.088,0.036zm0.128 0.004c-0.033,0.033 -0.078,0.053 -0.128,0.053 -0.05,0 -0.095,-0.02 -0.128,-0.053 -0.033,-0.033 -0.053,-0.078 -0.053,-0.128 0,-0.05 0.02,-0.095 0.053,-0.128 0.033,-0.033 0.078,-0.053 0.128,-0.053 0.05,0 0.095,0.02 0.128,0.053 0.033,0.033 0.053,0.078 0.053,0.128 0,0.05 -0.02,0.095 -0.053,0.128z"/>
    <path class="fil1" d="M1.043 0.671c-0.015,0 -0.028,-0.013 -0.028,-0.028 0,-0.016 0.013,-0.029 0.028,-0.029l0.686 0c0.016,0 0.029,0.013 0.029,0.029 0,0.015 -0.013,0.028 -0.029,0.028l-0.686 0z"/>
    <path class="fil1" d="M1.043 0.836c-0.015,0 -0.028,-0.013 -0.028,-0.029 0,-0.016 0.013,-0.028 0.028,-0.028l0.311 0c0.016,0 0.028,0.012 0.028,0.028 0,0.016 -0.012,0.029 -0.028,0.029l-0.311 0z"/>
   </g>
  </g>
 </g>
</svg>
