<?xml version="1.0" encoding="UTF-8"?>
<!DOCTYPE svg PUBLIC "-//W3C//DTD SVG 1.1//EN" "http://www.w3.org/Graphics/SVG/1.1/DTD/svg11.dtd">
<!-- Creator: CorelDRAW 2018 (64-Bit) -->
<svg xmlns="http://www.w3.org/2000/svg" xml:space="preserve" width="42px" height="32px" version="1.1" style="shape-rendering:geometricPrecision; text-rendering:geometricPrecision; image-rendering:optimizeQuality; fill-rule:evenodd; clip-rule:evenodd"
viewBox="0 0 1.668 1.271"
 xmlns:xlink="http://www.w3.org/1999/xlink">
 <defs>
  <style type="text/css">
   <![CDATA[
    .fil0 {fill:none}
    .fil1 {fill:white;fill-rule:nonzero}
   ]]>
  </style>
 </defs>
 <g id="Layer_x0020_1">
  <metadata id="CorelCorpID_0Corel-Layer"/>
  <g id="_2815746452240">
   <rect class="fil0" width="1.668" height="1.271"/>
   <g>
    <path class="fil1" d="M0.349 0.258l0.97 0c0.018,0 0.035,0.008 0.048,0.02 0.012,0.012 0.019,0.029 0.019,0.048l0 0.817c0,0.019 -0.007,0.036 -0.019,0.048 -0.013,0.012 -0.03,0.02 -0.048,0.02l-0.97 0c-0.019,0 -0.036,-0.008 -0.048,-0.02 -0.012,-0.012 -0.02,-0.029 -0.02,-0.048l0 -0.817c0,-0.019 0.008,-0.036 0.02,-0.048 0.012,-0.012 0.029,-0.02 0.048,-0.02zm0.97 0.04l-0.97 0c-0.008,0 -0.015,0.003 -0.02,0.008 -0.005,0.005 -0.008,0.012 -0.008,0.02l0 0.817c0,0.008 0.003,0.015 0.008,0.02 0.005,0.005 0.012,0.008 0.02,0.008l0.97 0c0.007,0 0.014,-0.003 0.019,-0.008 0.006,-0.005 0.009,-0.012 0.009,-0.02l0 -0.817c0,-0.008 -0.003,-0.015 -0.009,-0.02 -0.005,-0.005 -0.012,-0.008 -0.019,-0.008z"/>
    <path class="fil1" d="M0.443 0.733l0 0.31c0,0.002 0,0.003 0.002,0.005 0.001,0.001 0.003,0.002 0.004,0.002l0.769 0c0.002,0 0.004,-0.001 0.005,-0.002 0.001,-0.001 0.002,-0.003 0.002,-0.005l0 -0.31c0,-0.002 -0.001,-0.004 -0.002,-0.005 -0.001,-0.001 -0.003,-0.002 -0.005,-0.002l-0.769 0c-0.001,0 -0.003,0.001 -0.004,0.002 -0.002,0.001 -0.002,0.003 -0.002,0.005zm-0.04 0.31l0 -0.31c0,-0.013 0.005,-0.025 0.014,-0.033 0.008,-0.008 0.02,-0.014 0.032,-0.014l0.769 0c0.013,0 0.025,0.006 0.033,0.014 0.008,0.008 0.014,0.02 0.014,0.033l0 0.31c0,0.013 -0.005,0.024 -0.014,0.033l0 0c-0.008,0.008 -0.02,0.013 -0.033,0.013l-0.769 0c-0.012,0 -0.024,-0.005 -0.032,-0.013 -0.009,-0.009 -0.014,-0.02 -0.014,-0.033z"/>
    <path class="fil1" d="M0.529 0.593c0.024,0 0.046,-0.01 0.062,-0.025 0.015,-0.016 0.025,-0.038 0.025,-0.062 0,-0.024 -0.01,-0.045 -0.025,-0.061 -0.016,-0.016 -0.038,-0.025 -0.062,-0.025 -0.024,0 -0.045,0.009 -0.061,0.025 -0.016,0.016 -0.025,0.037 -0.025,0.061 0,0.024 0.009,0.046 0.025,0.062 0.016,0.015 0.037,0.025 0.061,0.025zm0.09 0.003c-0.023,0.023 -0.055,0.037 -0.09,0.037 -0.034,0 -0.066,-0.014 -0.089,-0.037 -0.023,-0.023 -0.037,-0.055 -0.037,-0.09 0,-0.035 0.014,-0.066 0.037,-0.089 0.023,-0.023 0.055,-0.037 0.089,-0.037 0.035,0 0.067,0.014 0.09,0.037 0.023,0.023 0.037,0.054 0.037,0.089 0,0.035 -0.014,0.067 -0.037,0.09z"/>
    <path class="fil1" d="M0.729 0.469c-0.011,0 -0.02,-0.009 -0.02,-0.02 0,-0.011 0.009,-0.02 0.02,-0.02l0.479 0c0.011,0 0.02,0.009 0.02,0.02 0,0.011 -0.009,0.02 -0.02,0.02l-0.479 0z"/>
    <path class="fil1" d="M0.729 0.584c-0.011,0 -0.02,-0.009 -0.02,-0.02 0,-0.011 0.009,-0.02 0.02,-0.02l0.217 0c0.011,0 0.019,0.009 0.019,0.02 0,0.011 -0.008,0.02 -0.019,0.02l-0.217 0z"/>
   </g>
  </g>
 </g>
</svg>
