<?xml version="1.0" encoding="UTF-8"?>
<!DOCTYPE svg PUBLIC "-//W3C//DTD SVG 1.1//EN" "http://www.w3.org/Graphics/SVG/1.1/DTD/svg11.dtd">
<!-- Creator: CorelDRAW 2018 (64-Bit) -->
<svg xmlns="http://www.w3.org/2000/svg" xml:space="preserve" width="42px" height="32px" version="1.1" style="shape-rendering:geometricPrecision; text-rendering:geometricPrecision; image-rendering:optimizeQuality; fill-rule:evenodd; clip-rule:evenodd"
viewBox="0 0 5.247 3.998"
 xmlns:xlink="http://www.w3.org/1999/xlink">
 <defs>
  <style type="text/css">
   <![CDATA[
    .fil0 {fill:none}
    .fil1 {fill:gray;fill-rule:nonzero}
   ]]>
  </style>
 </defs>
 <g id="Layer_x0020_1">
  <metadata id="CorelCorpID_0Corel-Layer"/>
  <g id="_1612305557376">
   <rect class="fil0" width="5.247" height="3.998"/>
   <g>
    <path class="fil1" d="M3.005 1.105c-0.034,0.008 -0.068,-0.011 -0.077,-0.045 -0.009,-0.033 0.011,-0.067 0.044,-0.076l0.905 -0.242c0.048,-0.013 0.097,-0.005 0.137,0.018 0.041,0.024 0.072,0.062 0.085,0.11l0.556 2.076c0.013,0.048 0.005,0.097 -0.018,0.137 -0.024,0.041 -0.062,0.072 -0.11,0.085l-0.93 0.249c-0.033,0.009 -0.067,-0.011 -0.076,-0.044 -0.009,-0.033 0.011,-0.068 0.044,-0.077l0.929 -0.249c0.015,-0.004 0.028,-0.014 0.035,-0.026 0.007,-0.013 0.01,-0.028 0.006,-0.043l-0.556 -2.075c-0.004,-0.016 -0.014,-0.028 -0.027,-0.035 -0.012,-0.007 -0.028,-0.01 -0.043,-0.006l-0.904 0.243z"/>
    <path class="fil1" d="M2.429 1.246c0.035,0 0.063,0.028 0.063,0.063 0,0.034 -0.028,0.062 -0.063,0.062l-1.409 0c-0.016,0 -0.031,0.007 -0.042,0.017 -0.011,0.011 -0.017,0.026 -0.017,0.043l0 1.3 0.954 0.955 1.544 0c0.017,0 0.032,-0.007 0.042,-0.018 0.011,-0.011 0.018,-0.026 0.018,-0.042l0 -2.195c0,-0.017 -0.007,-0.032 -0.018,-0.042l-0.002 -0.003c-0.01,-0.009 -0.024,-0.015 -0.04,-0.015l-0.475 0c-0.035,0 -0.063,-0.028 -0.063,-0.062 0,-0.035 0.028,-0.063 0.063,-0.063l0.475 0c0.049,0 0.093,0.019 0.126,0.051l0.005 0.003c0.033,0.034 0.054,0.08 0.054,0.131l0 2.195c0,0.051 -0.021,0.097 -0.054,0.13 -0.034,0.034 -0.08,0.055 -0.131,0.055l-1.57 0c-0.016,-0.001 -0.032,-0.007 -0.044,-0.019l-0.99 -0.99c-0.012,-0.011 -0.019,-0.027 -0.019,-0.045l0 -1.326c0,-0.051 0.02,-0.097 0.054,-0.13l0 -0.001c0.033,-0.033 0.08,-0.054 0.13,-0.054l1.409 0z"/>
    <path class="fil1" d="M0.898 2.695l0.907 0c0.04,0 0.077,0.016 0.103,0.043 0.027,0.026 0.044,0.063 0.044,0.104l0 0.906c0,0.035 -0.028,0.063 -0.063,0.063 -0.018,0 -0.034,-0.008 -0.045,-0.02l-0.99 -0.99c-0.024,-0.024 -0.024,-0.064 0,-0.088 0.012,-0.012 0.028,-0.018 0.044,-0.018zm0.907 0.125l-0.756 0 0.778 0.777 0 -0.755c0,-0.006 -0.003,-0.012 -0.007,-0.016 -0.004,-0.004 -0.009,-0.006 -0.015,-0.006z"/>
    <path class="fil1" d="M2.172 1.052c0,0.034 -0.028,0.062 -0.062,0.062 -0.035,0 -0.063,-0.028 -0.063,-0.062 0,-0.1 0.041,-0.192 0.108,-0.258 0.066,-0.066 0.157,-0.107 0.257,-0.107 0.1,0 0.192,0.041 0.258,0.107 0.066,0.066 0.107,0.157 0.107,0.258l0 0.832c0,0.1 -0.041,0.191 -0.107,0.257 -0.066,0.066 -0.158,0.107 -0.258,0.107 -0.1,0 -0.191,-0.041 -0.257,-0.107 -0.067,-0.066 -0.108,-0.157 -0.108,-0.257l0 -0.226c0,-0.035 0.028,-0.063 0.063,-0.063 0.034,0 0.062,0.028 0.062,0.063l0 0.226c0,0.066 0.027,0.126 0.071,0.169 0.043,0.043 0.103,0.07 0.169,0.07 0.066,0 0.126,-0.027 0.169,-0.07 0.044,-0.043 0.071,-0.103 0.071,-0.169l0 -0.832c0,-0.066 -0.027,-0.126 -0.071,-0.169 -0.043,-0.044 -0.103,-0.071 -0.169,-0.071 -0.066,0 -0.126,0.027 -0.169,0.071 -0.044,0.043 -0.071,0.103 -0.071,0.169z"/>
   </g>
  </g>
 </g>
</svg>
