<?xml version="1.0" encoding="UTF-8"?>
<!DOCTYPE svg PUBLIC "-//W3C//DTD SVG 1.1//EN" "http://www.w3.org/Graphics/SVG/1.1/DTD/svg11.dtd">
<!-- Creator: CorelDRAW 2018 (64-Bit) -->
<svg xmlns="http://www.w3.org/2000/svg" xml:space="preserve" width="42px" height="32px" version="1.1" style="shape-rendering:geometricPrecision; text-rendering:geometricPrecision; image-rendering:optimizeQuality; fill-rule:evenodd; clip-rule:evenodd"
viewBox="0 0 58.454 44.536"
 xmlns:xlink="http://www.w3.org/1999/xlink">
 <defs>
  <style type="text/css">
   <![CDATA[
    .fil0 {fill:none}
    .fil1 {fill:#00F4FF;fill-rule:nonzero}
   ]]>
  </style>
 </defs>
 <g id="Layer_x0020_1">
  <metadata id="CorelCorpID_0Corel-Layer"/>
  <g id="_1612306073072">
   <rect class="fil0" width="58.454" height="44.536"/>
   <g>
    <path class="fil1" d="M33.472 12.305c-0.371,0.099 -0.752,-0.121 -0.851,-0.492 -0.099,-0.37 0.121,-0.752 0.492,-0.851l10.072 -2.698c0.535,-0.143 1.083,-0.053 1.532,0.205 0.451,0.26 0.803,0.692 0.947,1.227l6.195 23.118c0.144,0.538 0.054,1.085 -0.206,1.534 -0.259,0.448 -0.689,0.799 -1.226,0.943l-10.351 2.774c-0.371,0.099 -0.752,-0.122 -0.851,-0.492 -0.099,-0.371 0.121,-0.752 0.492,-0.851l10.351 -2.774c0.167,-0.045 0.303,-0.155 0.384,-0.296 0.081,-0.138 0.108,-0.308 0.065,-0.475l-6.196 -23.122c-0.045,-0.169 -0.155,-0.305 -0.294,-0.385 -0.141,-0.081 -0.314,-0.108 -0.483,-0.063l-10.072 2.698z"/>
    <path class="fil1" d="M27.061 13.883c0.384,0 0.695,0.311 0.695,0.695 0,0.385 -0.311,0.696 -0.695,0.696l-15.697 0c-0.183,0 -0.35,0.075 -0.468,0.193 -0.121,0.121 -0.196,0.288 -0.196,0.471l0 14.488 10.632 10.631 17.206 0c0.182,0 0.348,-0.075 0.468,-0.194 0.119,-0.121 0.194,-0.287 0.194,-0.469l0 -24.456c0,-0.182 -0.075,-0.348 -0.195,-0.468l-0.026 -0.027c-0.116,-0.105 -0.272,-0.169 -0.441,-0.169l-5.297 0c-0.384,0 -0.696,-0.311 -0.696,-0.696 0,-0.384 0.312,-0.695 0.696,-0.695l5.297 0c0.539,0 1.035,0.213 1.403,0.56l0.048 0.043c0.371,0.372 0.603,0.886 0.603,1.452l0 24.456c0,0.566 -0.231,1.08 -0.603,1.452 -0.375,0.371 -0.888,0.603 -1.451,0.603l-17.494 0c-0.179,0 -0.356,-0.068 -0.492,-0.204l-11.031 -11.031c-0.131,-0.126 -0.212,-0.303 -0.212,-0.5l0 -14.776c0,-0.561 0.23,-1.075 0.602,-1.448l0.004 -0.004c0.373,-0.372 0.886,-0.603 1.449,-0.603l15.697 0z"/>
    <path class="fil1" d="M10.005 30.018l10.099 0c0.45,0 0.86,0.184 1.156,0.48 0.295,0.296 0.48,0.706 0.48,1.157l0 10.098c0,0.384 -0.312,0.696 -0.696,0.696 -0.197,0 -0.374,-0.081 -0.5,-0.212l-11.031 -11.031c-0.272,-0.271 -0.272,-0.712 0,-0.984 0.136,-0.136 0.314,-0.203 0.492,-0.204zm10.099 1.392l-8.419 0 8.663 8.663 0 -8.418c0,-0.067 -0.028,-0.129 -0.072,-0.173 -0.045,-0.044 -0.106,-0.072 -0.172,-0.072z"/>
    <path class="fil1" d="M24.2 11.717c0,0.384 -0.311,0.696 -0.696,0.696 -0.384,0 -0.696,-0.312 -0.696,-0.696 0,-1.116 0.458,-2.131 1.193,-2.867 0.735,-0.738 1.752,-1.195 2.869,-1.195 1.117,0 2.134,0.457 2.869,1.192 0.736,0.736 1.193,1.752 1.193,2.87l0 9.267c0,1.116 -0.457,2.131 -1.193,2.867 -0.735,0.738 -1.752,1.195 -2.869,1.195 -1.115,0 -2.13,-0.457 -2.866,-1.192 -0.738,-0.739 -1.196,-1.754 -1.196,-2.87l0 -2.516c0,-0.385 0.312,-0.696 0.696,-0.696 0.385,0 0.696,0.311 0.696,0.696l0 2.516c0,0.734 0.301,1.403 0.784,1.887 0.483,0.483 1.152,0.783 1.886,0.783 0.734,0 1.402,-0.301 1.885,-0.784 0.485,-0.483 0.785,-1.152 0.785,-1.886l0 -9.267c0,-0.734 -0.301,-1.402 -0.785,-1.886 -0.483,-0.483 -1.151,-0.784 -1.885,-0.784 -0.733,0 -1.401,0.301 -1.885,0.784 -0.484,0.483 -0.785,1.151 -0.785,1.886z"/>
   </g>
  </g>
 </g>
</svg>
