<?xml version="1.0" encoding="UTF-8"?>
<!DOCTYPE svg PUBLIC "-//W3C//DTD SVG 1.1//EN" "http://www.w3.org/Graphics/SVG/1.1/DTD/svg11.dtd">
<!-- Creator: CorelDRAW 2018 (64-Bit) -->
<svg xmlns="http://www.w3.org/2000/svg" xml:space="preserve" width="42px" height="32px" version="1.1" style="shape-rendering:geometricPrecision; text-rendering:geometricPrecision; image-rendering:optimizeQuality; fill-rule:evenodd; clip-rule:evenodd"
viewBox="0 0 9.63 7.337"
 xmlns:xlink="http://www.w3.org/1999/xlink">
 <defs>
  <style type="text/css">
   <![CDATA[
    .fil0 {fill:none}
    .fil1 {fill:white;fill-rule:nonzero}
   ]]>
  </style>
 </defs>
 <g id="Layer_x0020_1">
  <metadata id="CorelCorpID_0Corel-Layer"/>
  <g id="_1612306158576">
   <rect class="fil0" width="9.63" height="7.337"/>
   <g>
    <path class="fil1" d="M5.514 2.027c-0.061,0.017 -0.124,-0.02 -0.14,-0.081 -0.016,-0.061 0.02,-0.124 0.081,-0.14l1.659 -0.444c0.089,-0.024 0.179,-0.009 0.253,0.033 0.074,0.043 0.132,0.114 0.156,0.202l1.02 3.809c0.024,0.089 0.009,0.179 -0.033,0.253 -0.043,0.074 -0.114,0.131 -0.202,0.155l-1.706 0.457c-0.061,0.016 -0.124,-0.02 -0.14,-0.081 -0.016,-0.061 0.02,-0.124 0.081,-0.14l1.705 -0.457c0.028,-0.008 0.05,-0.026 0.064,-0.049 0.013,-0.023 0.018,-0.051 0.01,-0.078l-1.02 -3.81c-0.008,-0.027 -0.026,-0.05 -0.049,-0.063 -0.023,-0.013 -0.051,-0.018 -0.079,-0.01l-1.66 0.444z"/>
    <path class="fil1" d="M4.458 2.287c0.063,0 0.115,0.051 0.115,0.115 0,0.063 -0.052,0.114 -0.115,0.114l-2.586 0c-0.03,0 -0.057,0.013 -0.077,0.032 -0.02,0.02 -0.032,0.047 -0.032,0.078l0 2.387 1.751 1.751 2.835 0c0.03,0 0.057,-0.012 0.077,-0.032 0.02,-0.02 0.032,-0.047 0.032,-0.077l0 -4.029c0,-0.03 -0.012,-0.058 -0.032,-0.077l-0.004 -0.005c-0.02,-0.017 -0.045,-0.028 -0.073,-0.028l-0.873 0c-0.063,0 -0.114,-0.051 -0.114,-0.114 0,-0.064 0.051,-0.115 0.114,-0.115l0.873 0c0.089,0 0.17,0.035 0.231,0.092l0.008 0.008c0.061,0.061 0.099,0.146 0.099,0.239l0 4.029c0,0.093 -0.038,0.178 -0.099,0.239 -0.062,0.061 -0.146,0.099 -0.239,0.099l-2.882 0c-0.03,0 -0.059,-0.011 -0.081,-0.033l-1.817 -1.818c-0.022,-0.02 -0.035,-0.05 -0.035,-0.082l0 -2.434c0,-0.093 0.038,-0.177 0.099,-0.239l0 0c0.062,-0.062 0.146,-0.1 0.239,-0.1l2.586 0z"/>
    <path class="fil1" d="M1.648 4.945l1.664 0c0.074,0 0.142,0.031 0.19,0.079 0.049,0.049 0.08,0.117 0.08,0.191l0 1.664c0,0.063 -0.052,0.114 -0.115,0.114 -0.033,0 -0.062,-0.013 -0.083,-0.035l-1.817 -1.817c-0.045,-0.045 -0.045,-0.117 0,-0.162 0.023,-0.022 0.052,-0.034 0.081,-0.034zm1.664 0.23l-1.387 0 1.427 1.427 0 -1.387c0,-0.011 -0.004,-0.021 -0.012,-0.028 -0.007,-0.008 -0.017,-0.012 -0.028,-0.012z"/>
    <path class="fil1" d="M3.987 1.93c0,0.064 -0.051,0.115 -0.115,0.115 -0.063,0 -0.114,-0.051 -0.114,-0.115 0,-0.184 0.075,-0.351 0.196,-0.472 0.121,-0.122 0.289,-0.197 0.473,-0.197 0.184,0 0.351,0.075 0.472,0.197 0.122,0.121 0.197,0.288 0.197,0.472l0 1.527c0,0.184 -0.075,0.351 -0.197,0.472 -0.121,0.122 -0.288,0.197 -0.472,0.197 -0.184,0 -0.351,-0.075 -0.472,-0.196 -0.122,-0.122 -0.197,-0.289 -0.197,-0.473l0 -0.415c0,-0.063 0.051,-0.114 0.114,-0.114 0.064,0 0.115,0.051 0.115,0.114l0 0.415c0,0.121 0.049,0.231 0.129,0.311 0.08,0.079 0.19,0.129 0.311,0.129 0.121,0 0.231,-0.05 0.31,-0.129 0.08,-0.08 0.13,-0.19 0.13,-0.311l0 -1.527c0,-0.121 -0.05,-0.231 -0.13,-0.31 -0.079,-0.08 -0.189,-0.13 -0.31,-0.13 -0.121,0 -0.231,0.05 -0.311,0.13 -0.08,0.079 -0.129,0.189 -0.129,0.31z"/>
   </g>
  </g>
 </g>
</svg>
