<?xml version="1.0" encoding="UTF-8"?>
<!DOCTYPE svg PUBLIC "-//W3C//DTD SVG 1.1//EN" "http://www.w3.org/Graphics/SVG/1.1/DTD/svg11.dtd">
<!-- Creator: CorelDRAW 2018 (64-Bit) -->
<svg xmlns="http://www.w3.org/2000/svg" xml:space="preserve" width="42px" height="32px" version="1.1" style="shape-rendering:geometricPrecision; text-rendering:geometricPrecision; image-rendering:optimizeQuality; fill-rule:evenodd; clip-rule:evenodd"
viewBox="0 0 4.198 3.199"
 xmlns:xlink="http://www.w3.org/1999/xlink">
 <defs>
  <style type="text/css">
   <![CDATA[
    .fil0 {fill:none}
    .fil1 {fill:white;fill-rule:nonzero}
   ]]>
  </style>
 </defs>
 <g id="Layer_x0020_1">
  <metadata id="CorelCorpID_0Corel-Layer"/>
  <g id="_1612629266608">
   <rect class="fil0" width="4.198" height="3.199"/>
   <g>
    <path class="fil1" d="M2.049 0.802c0,-0.027 0.023,-0.05 0.05,-0.05 0.028,0 0.05,0.023 0.05,0.05l0 0.315c0,0.028 -0.022,0.05 -0.05,0.05 -0.027,0 -0.05,-0.022 -0.05,-0.05l0 -0.315z"/>
    <path class="fil1" d="M1.297 1.294c-0.023,-0.014 -0.032,-0.044 -0.018,-0.068 0.014,-0.024 0.045,-0.032 0.068,-0.018l0.273 0.157c0.024,0.014 0.032,0.044 0.018,0.068 -0.014,0.024 -0.044,0.032 -0.068,0.018l-0.273 -0.157z"/>
    <path class="fil1" d="M0.989 1.262c0,-0.028 0.022,-0.05 0.049,-0.05 0.028,0 0.05,0.022 0.05,0.05l0 0.706c0,0.027 -0.022,0.05 -0.05,0.05 -0.027,0 -0.049,-0.023 -0.049,-0.05l0 -0.706z"/>
    <path class="fil1" d="M1.157 2.438c-0.024,-0.014 -0.032,-0.045 -0.018,-0.069 0.014,-0.023 0.044,-0.031 0.068,-0.018l0.611 0.353c0.024,0.014 0.032,0.045 0.018,0.068 -0.013,0.024 -0.044,0.032 -0.068,0.019l-0.611 -0.353z"/>
    <path class="fil1" d="M2.275 2.88c-0.024,0.013 -0.054,0.005 -0.068,-0.019 -0.013,-0.023 -0.005,-0.054 0.019,-0.067l0.611 -0.353c0.024,-0.014 0.054,-0.006 0.068,0.018 0.014,0.024 0.005,0.054 -0.018,0.068l-0.612 0.353z"/>
    <path class="fil1" d="M3.21 2.137c0,0.028 -0.023,0.05 -0.05,0.05 -0.028,0 -0.05,-0.022 -0.05,-0.05l0 -0.706c0,-0.028 0.022,-0.05 0.05,-0.05 0.027,0 0.05,0.022 0.05,0.05l0 0.706z"/>
    <path class="fil1" d="M3.041 0.961c0.024,0.014 0.032,0.044 0.018,0.068 -0.013,0.024 -0.044,0.032 -0.067,0.018l-0.612 -0.353c-0.024,-0.013 -0.032,-0.044 -0.018,-0.068 0.014,-0.023 0.044,-0.032 0.068,-0.018l0.611 0.353z"/>
    <path class="fil1" d="M1.923 0.519c0.024,-0.014 0.054,-0.006 0.068,0.018 0.014,0.024 0.005,0.054 -0.018,0.068l-0.612 0.353c-0.024,0.014 -0.054,0.006 -0.068,-0.018 -0.013,-0.024 -0.005,-0.054 0.019,-0.068l0.611 -0.353z"/>
    <path class="fil1" d="M1.347 2.191c-0.023,0.014 -0.054,0.006 -0.068,-0.018 -0.014,-0.024 -0.005,-0.055 0.018,-0.068l0.273 -0.158c0.024,-0.013 0.054,-0.005 0.068,0.018 0.014,0.024 0.006,0.055 -0.018,0.069l-0.273 0.157z"/>
    <path class="fil1" d="M2.149 2.596c0,0.028 -0.022,0.05 -0.05,0.05 -0.027,0 -0.05,-0.022 -0.05,-0.05l0 -0.314c0,-0.028 0.023,-0.05 0.05,-0.05 0.028,0 0.05,0.022 0.05,0.05l0 0.314z"/>
    <path class="fil1" d="M2.901 2.105c0.024,0.013 0.032,0.044 0.018,0.068 -0.014,0.024 -0.044,0.032 -0.068,0.018l-0.273 -0.157c-0.023,-0.014 -0.032,-0.045 -0.018,-0.069 0.014,-0.023 0.045,-0.031 0.068,-0.018l0.273 0.158z"/>
    <path class="fil1" d="M2.851 1.208c0.024,-0.014 0.054,-0.006 0.068,0.018 0.014,0.024 0.006,0.054 -0.018,0.068l-0.273 0.157c-0.023,0.014 -0.054,0.006 -0.068,-0.018 -0.014,-0.024 -0.005,-0.054 0.018,-0.068l0.273 -0.157z"/>
    <path class="fil1" d="M2.099 1.236c0.128,0 0.244,0.052 0.328,0.136 0.084,0.084 0.136,0.199 0.136,0.327 0,0.128 -0.052,0.244 -0.136,0.328 -0.084,0.084 -0.2,0.136 -0.328,0.136 -0.128,0 -0.244,-0.052 -0.328,-0.136 -0.084,-0.084 -0.135,-0.2 -0.135,-0.328 0,-0.128 0.051,-0.243 0.135,-0.327 0.084,-0.084 0.2,-0.136 0.328,-0.136zm0.257 0.206c-0.065,-0.066 -0.156,-0.106 -0.257,-0.106 -0.1,0 -0.191,0.04 -0.257,0.106 -0.066,0.066 -0.107,0.157 -0.107,0.257 0,0.101 0.041,0.192 0.107,0.257 0.066,0.066 0.157,0.107 0.257,0.107 0.101,0 0.191,-0.041 0.257,-0.107 0.066,-0.065 0.107,-0.156 0.107,-0.257 0,-0.1 -0.041,-0.191 -0.107,-0.257z"/>
    <path class="fil1" d="M1.038 0.862c0.063,0 0.119,0.025 0.159,0.066 0.041,0.041 0.066,0.097 0.066,0.159 0,0.062 -0.025,0.118 -0.066,0.159 -0.04,0.04 -0.096,0.066 -0.159,0.066 -0.062,0 -0.118,-0.026 -0.158,-0.066 -0.041,-0.041 -0.066,-0.097 -0.066,-0.159 0,-0.062 0.025,-0.118 0.066,-0.159 0.04,-0.041 0.096,-0.066 0.158,-0.066zm0.089 0.137c-0.023,-0.023 -0.054,-0.037 -0.089,-0.037 -0.034,0 -0.065,0.014 -0.088,0.037 -0.022,0.022 -0.036,0.054 -0.036,0.088 0,0.035 0.014,0.066 0.036,0.088 0.023,0.023 0.054,0.037 0.088,0.037 0.035,0 0.066,-0.014 0.089,-0.037 0.022,-0.022 0.036,-0.053 0.036,-0.088 0,-0.034 -0.014,-0.066 -0.036,-0.088z"/>
    <path class="fil1" d="M1.038 2.07c0.063,0 0.119,0.025 0.159,0.066 0.041,0.04 0.066,0.097 0.066,0.159 0,0.061 -0.025,0.118 -0.066,0.158 -0.04,0.041 -0.096,0.066 -0.159,0.066 -0.062,0 -0.118,-0.025 -0.158,-0.066 -0.041,-0.04 -0.066,-0.097 -0.066,-0.158 0,-0.062 0.025,-0.119 0.066,-0.159 0.04,-0.041 0.096,-0.066 0.158,-0.066zm0.089 0.136c-0.023,-0.022 -0.054,-0.036 -0.089,-0.036 -0.034,0 -0.065,0.014 -0.088,0.036 -0.022,0.023 -0.036,0.054 -0.036,0.089 0,0.034 0.014,0.065 0.036,0.088 0.023,0.022 0.054,0.036 0.088,0.036 0.035,0 0.066,-0.014 0.089,-0.036 0.022,-0.023 0.036,-0.054 0.036,-0.088 0,-0.035 -0.014,-0.066 -0.036,-0.089z"/>
    <path class="fil1" d="M2.099 2.699c0.062,0 0.118,0.026 0.159,0.066 0.041,0.041 0.066,0.097 0.066,0.159 0,0.062 -0.025,0.118 -0.066,0.159 -0.041,0.041 -0.097,0.066 -0.159,0.066 -0.062,0 -0.118,-0.025 -0.159,-0.066 -0.04,-0.041 -0.066,-0.097 -0.066,-0.159 0,-0.062 0.026,-0.118 0.066,-0.159 0.041,-0.04 0.097,-0.066 0.159,-0.066zm0.088 0.137c-0.022,-0.023 -0.053,-0.037 -0.088,-0.037 -0.034,0 -0.066,0.014 -0.088,0.037 -0.023,0.022 -0.037,0.054 -0.037,0.088 0,0.035 0.014,0.066 0.037,0.088 0.022,0.023 0.054,0.037 0.088,0.037 0.035,0 0.066,-0.014 0.088,-0.037 0.023,-0.022 0.037,-0.053 0.037,-0.088 0,-0.034 -0.014,-0.066 -0.037,-0.088z"/>
    <path class="fil1" d="M3.16 2.087c0.062,0 0.118,0.025 0.159,0.066 0.04,0.04 0.065,0.097 0.065,0.159 0,0.062 -0.025,0.118 -0.065,0.159 -0.041,0.04 -0.097,0.065 -0.159,0.065 -0.062,0 -0.118,-0.025 -0.159,-0.065 -0.041,-0.041 -0.066,-0.097 -0.066,-0.159 0,-0.062 0.025,-0.119 0.066,-0.159 0.041,-0.041 0.097,-0.066 0.159,-0.066zm0.088 0.136c-0.023,-0.022 -0.054,-0.036 -0.088,-0.036 -0.035,0 -0.066,0.014 -0.088,0.036 -0.023,0.023 -0.037,0.054 -0.037,0.089 0,0.034 0.014,0.065 0.037,0.088 0.022,0.022 0.053,0.036 0.088,0.036 0.034,0 0.065,-0.014 0.088,-0.036 0.022,-0.023 0.036,-0.054 0.036,-0.088 0,-0.035 -0.014,-0.066 -0.036,-0.089z"/>
    <path class="fil1" d="M3.16 0.862c0.062,0 0.118,0.025 0.159,0.066 0.04,0.041 0.065,0.097 0.065,0.159 0,0.062 -0.025,0.118 -0.066,0.159 -0.04,0.04 -0.096,0.066 -0.158,0.066 -0.062,0 -0.118,-0.026 -0.159,-0.066 -0.041,-0.041 -0.066,-0.097 -0.066,-0.159 0,-0.062 0.025,-0.118 0.066,-0.159 0.041,-0.041 0.097,-0.066 0.159,-0.066zm0.088 0.137c-0.023,-0.023 -0.054,-0.037 -0.088,-0.037 -0.035,0 -0.066,0.014 -0.088,0.037 -0.023,0.022 -0.037,0.054 -0.037,0.088 0,0.035 0.014,0.066 0.036,0.088 0.023,0.023 0.054,0.037 0.089,0.037 0.034,0 0.065,-0.014 0.088,-0.037 0.023,-0.022 0.036,-0.053 0.036,-0.088 0,-0.034 -0.014,-0.066 -0.036,-0.088z"/>
    <path class="fil1" d="M2.099 0.25c0.062,0 0.118,0.025 0.159,0.066 0.041,0.04 0.066,0.097 0.066,0.159 0,0.062 -0.025,0.118 -0.066,0.158 -0.041,0.041 -0.097,0.066 -0.159,0.066 -0.062,0 -0.118,-0.025 -0.159,-0.066 -0.04,-0.04 -0.066,-0.096 -0.066,-0.158 0,-0.062 0.026,-0.119 0.066,-0.159 0.041,-0.041 0.097,-0.066 0.159,-0.066zm0.088 0.136c-0.022,-0.022 -0.053,-0.036 -0.088,-0.036 -0.034,0 -0.066,0.014 -0.088,0.036 -0.023,0.023 -0.037,0.054 -0.037,0.089 0,0.034 0.014,0.065 0.037,0.088 0.022,0.022 0.054,0.036 0.088,0.036 0.035,0 0.066,-0.014 0.088,-0.036 0.023,-0.023 0.037,-0.054 0.037,-0.088 0,-0.035 -0.014,-0.066 -0.037,-0.089z"/>
   </g>
  </g>
 </g>
</svg>
