<?xml version="1.0" encoding="UTF-8"?>
<!DOCTYPE svg PUBLIC "-//W3C//DTD SVG 1.1//EN" "http://www.w3.org/Graphics/SVG/1.1/DTD/svg11.dtd">
<!-- Creator: CorelDRAW 2018 (64-Bit) -->
<svg xmlns="http://www.w3.org/2000/svg" xml:space="preserve" width="42px" height="32px" version="1.1" style="shape-rendering:geometricPrecision; text-rendering:geometricPrecision; image-rendering:optimizeQuality; fill-rule:evenodd; clip-rule:evenodd"
viewBox="0 0 6.602 5.03"
 xmlns:xlink="http://www.w3.org/1999/xlink">
 <defs>
  <style type="text/css">
   <![CDATA[
    .fil0 {fill:none}
    .fil1 {fill:#00F4FF;fill-rule:nonzero}
   ]]>
  </style>
 </defs>
 <g id="Layer_x0020_1">
  <metadata id="CorelCorpID_0Corel-Layer"/>
  <g id="_1612371385456">
   <rect class="fil0" width="6.602" height="5.03"/>
   <g>
    <path class="fil1" d="M3.223 1.262c0,-0.043 0.035,-0.079 0.078,-0.079 0.044,0 0.079,0.036 0.079,0.079l0 0.495c0,0.043 -0.035,0.078 -0.079,0.078 -0.043,0 -0.078,-0.035 -0.078,-0.078l0 -0.495z"/>
    <path class="fil1" d="M2.04 2.035c-0.037,-0.022 -0.05,-0.07 -0.028,-0.107 0.021,-0.038 0.069,-0.05 0.107,-0.029l0.428 0.248c0.038,0.021 0.051,0.069 0.029,0.107 -0.022,0.037 -0.07,0.05 -0.107,0.028l-0.429 -0.247z"/>
    <path class="fil1" d="M1.555 1.984c0,-0.043 0.035,-0.078 0.078,-0.078 0.044,0 0.079,0.035 0.079,0.078l0 1.11c0,0.044 -0.035,0.079 -0.079,0.079 -0.043,0 -0.078,-0.035 -0.078,-0.079l0 -1.11z"/>
    <path class="fil1" d="M1.819 3.833c-0.037,-0.021 -0.05,-0.069 -0.028,-0.107 0.022,-0.037 0.07,-0.05 0.107,-0.028l0.961 0.555c0.038,0.022 0.051,0.07 0.029,0.107 -0.022,0.037 -0.07,0.05 -0.107,0.029l-0.962 -0.556z"/>
    <path class="fil1" d="M3.578 4.529c-0.037,0.021 -0.085,0.008 -0.107,-0.029 -0.021,-0.037 -0.008,-0.085 0.029,-0.107l0.962 -0.555c0.037,-0.021 0.085,-0.008 0.106,0.029 0.022,0.037 0.009,0.085 -0.028,0.107l-0.962 0.555z"/>
    <path class="fil1" d="M5.048 3.361c0,0.043 -0.035,0.078 -0.079,0.078 -0.043,0 -0.078,-0.035 -0.078,-0.078l0 -1.111c0,-0.043 0.035,-0.078 0.078,-0.078 0.044,0 0.079,0.035 0.079,0.078l0 1.111z"/>
    <path class="fil1" d="M4.783 1.511c0.037,0.022 0.05,0.07 0.028,0.107 -0.021,0.038 -0.069,0.051 -0.106,0.029l-0.962 -0.555c-0.037,-0.022 -0.05,-0.069 -0.029,-0.107 0.022,-0.037 0.07,-0.05 0.107,-0.029l0.962 0.555z"/>
    <path class="fil1" d="M3.024 0.816c0.038,-0.022 0.085,-0.009 0.107,0.029 0.022,0.037 0.009,0.085 -0.029,0.107l-0.961 0.555c-0.038,0.021 -0.086,0.008 -0.107,-0.029 -0.022,-0.038 -0.009,-0.085 0.029,-0.107l0.961 -0.555z"/>
    <path class="fil1" d="M2.119 3.446c-0.038,0.021 -0.086,0.008 -0.107,-0.029 -0.022,-0.037 -0.009,-0.085 0.028,-0.107l0.429 -0.248c0.037,-0.021 0.085,-0.008 0.107,0.029 0.022,0.037 0.009,0.085 -0.029,0.107l-0.428 0.248z"/>
    <path class="fil1" d="M3.38 4.083c0,0.043 -0.035,0.079 -0.079,0.079 -0.043,0 -0.078,-0.036 -0.078,-0.079l0 -0.495c0,-0.043 0.035,-0.079 0.078,-0.079 0.044,0 0.079,0.036 0.079,0.079l0 0.495z"/>
    <path class="fil1" d="M4.562 3.31c0.037,0.022 0.05,0.07 0.029,0.107 -0.022,0.037 -0.07,0.05 -0.108,0.029l-0.428 -0.248c-0.038,-0.022 -0.05,-0.07 -0.029,-0.107 0.022,-0.037 0.07,-0.05 0.107,-0.029l0.429 0.248z"/>
    <path class="fil1" d="M4.483 1.899c0.038,-0.021 0.086,-0.009 0.108,0.029 0.021,0.037 0.008,0.085 -0.029,0.107l-0.429 0.247c-0.037,0.022 -0.085,0.009 -0.107,-0.028 -0.021,-0.038 -0.009,-0.086 0.029,-0.107l0.428 -0.248z"/>
    <path class="fil1" d="M3.301 1.943c0.201,0 0.383,0.082 0.515,0.214 0.133,0.132 0.214,0.314 0.214,0.515 0,0.202 -0.081,0.384 -0.213,0.516 -0.132,0.132 -0.315,0.214 -0.516,0.214 -0.201,0 -0.383,-0.082 -0.515,-0.214 -0.132,-0.132 -0.214,-0.314 -0.214,-0.516 0,-0.201 0.082,-0.383 0.214,-0.515 0.132,-0.132 0.314,-0.214 0.515,-0.214zm0.405 0.325c-0.104,-0.103 -0.247,-0.167 -0.405,-0.167 -0.158,0 -0.301,0.064 -0.404,0.167 -0.104,0.103 -0.168,0.246 -0.168,0.404 0,0.158 0.064,0.301 0.168,0.405 0.103,0.103 0.246,0.167 0.404,0.167 0.158,0 0.301,-0.064 0.405,-0.167 0.103,-0.104 0.167,-0.247 0.167,-0.405 0,-0.158 -0.064,-0.301 -0.167,-0.404z"/>
    <path class="fil1" d="M1.633 1.356c0.098,0 0.186,0.04 0.25,0.104 0.064,0.064 0.104,0.152 0.104,0.249 0,0.098 -0.04,0.186 -0.104,0.25 -0.064,0.064 -0.152,0.104 -0.25,0.104 -0.097,0 -0.186,-0.04 -0.25,-0.104 -0.063,-0.064 -0.103,-0.152 -0.103,-0.25 0,-0.097 0.039,-0.185 0.103,-0.249 0.064,-0.064 0.153,-0.104 0.25,-0.104zm0.139 0.215c-0.036,-0.036 -0.085,-0.058 -0.139,-0.058 -0.054,0 -0.103,0.022 -0.139,0.058 -0.035,0.035 -0.057,0.084 -0.057,0.138 0,0.055 0.022,0.104 0.057,0.139 0.036,0.036 0.085,0.058 0.139,0.058 0.054,0 0.103,-0.022 0.139,-0.058 0.035,-0.035 0.057,-0.084 0.057,-0.139 0,-0.054 -0.022,-0.103 -0.057,-0.138z"/>
    <path class="fil1" d="M1.633 3.255c0.098,0 0.186,0.04 0.25,0.104 0.064,0.064 0.104,0.152 0.104,0.25 0,0.097 -0.04,0.185 -0.104,0.249 -0.064,0.064 -0.152,0.104 -0.25,0.104 -0.097,0 -0.186,-0.04 -0.25,-0.104 -0.063,-0.064 -0.103,-0.152 -0.103,-0.249 0,-0.098 0.039,-0.186 0.103,-0.25 0.064,-0.064 0.153,-0.104 0.25,-0.104zm0.139 0.215c-0.036,-0.036 -0.085,-0.058 -0.139,-0.058 -0.054,0 -0.103,0.022 -0.139,0.058 -0.035,0.035 -0.057,0.084 -0.057,0.139 0,0.054 0.022,0.103 0.057,0.138 0.036,0.036 0.085,0.058 0.139,0.058 0.054,0 0.103,-0.022 0.139,-0.058 0.035,-0.035 0.057,-0.084 0.057,-0.138 0,-0.055 -0.022,-0.104 -0.057,-0.139z"/>
    <path class="fil1" d="M3.301 4.245c0.098,0 0.186,0.04 0.25,0.104 0.064,0.064 0.104,0.152 0.104,0.249 0,0.098 -0.04,0.186 -0.104,0.25 -0.064,0.064 -0.152,0.104 -0.25,0.104 -0.097,0 -0.186,-0.04 -0.25,-0.104 -0.063,-0.064 -0.103,-0.152 -0.103,-0.25 0,-0.097 0.039,-0.185 0.103,-0.249 0.064,-0.064 0.153,-0.104 0.25,-0.104zm0.139 0.215c-0.036,-0.036 -0.085,-0.058 -0.139,-0.058 -0.054,0 -0.103,0.022 -0.139,0.058 -0.035,0.035 -0.057,0.084 -0.057,0.138 0,0.055 0.022,0.104 0.057,0.139 0.036,0.036 0.085,0.058 0.139,0.058 0.054,0 0.103,-0.022 0.139,-0.058 0.035,-0.035 0.057,-0.084 0.057,-0.139 0,-0.054 -0.022,-0.103 -0.057,-0.138z"/>
    <path class="fil1" d="M4.969 3.282c0.098,0 0.186,0.04 0.25,0.104 0.064,0.064 0.104,0.152 0.104,0.249 0,0.098 -0.04,0.186 -0.104,0.25 -0.064,0.064 -0.152,0.104 -0.25,0.104 -0.097,0 -0.186,-0.04 -0.25,-0.104 -0.064,-0.064 -0.103,-0.152 -0.103,-0.25 0,-0.097 0.039,-0.185 0.103,-0.249 0.064,-0.064 0.153,-0.104 0.25,-0.104zm0.139 0.215c-0.036,-0.036 -0.085,-0.058 -0.139,-0.058 -0.054,0 -0.103,0.022 -0.139,0.058 -0.035,0.035 -0.057,0.084 -0.057,0.138 0,0.055 0.022,0.104 0.057,0.139 0.036,0.036 0.085,0.058 0.139,0.058 0.054,0 0.103,-0.022 0.139,-0.058 0.035,-0.035 0.057,-0.084 0.057,-0.139 0,-0.054 -0.022,-0.103 -0.057,-0.138z"/>
    <path class="fil1" d="M4.969 1.356c0.098,0 0.186,0.04 0.25,0.104 0.064,0.064 0.104,0.152 0.104,0.249 0,0.098 -0.04,0.186 -0.104,0.25 -0.064,0.064 -0.152,0.104 -0.25,0.104 -0.097,0 -0.186,-0.04 -0.25,-0.104 -0.064,-0.064 -0.103,-0.152 -0.103,-0.25 0,-0.097 0.039,-0.185 0.103,-0.249 0.064,-0.064 0.153,-0.104 0.25,-0.104zm0.139 0.215c-0.036,-0.036 -0.085,-0.058 -0.139,-0.058 -0.054,0 -0.103,0.022 -0.139,0.058 -0.035,0.035 -0.057,0.084 -0.057,0.138 0,0.055 0.022,0.104 0.057,0.139 0.036,0.036 0.085,0.058 0.139,0.058 0.054,0 0.103,-0.022 0.139,-0.058 0.035,-0.035 0.057,-0.084 0.057,-0.139 0,-0.054 -0.022,-0.103 -0.057,-0.138z"/>
    <path class="fil1" d="M3.301 0.393c0.098,0 0.186,0.04 0.25,0.104 0.064,0.063 0.104,0.152 0.104,0.249 0,0.098 -0.04,0.186 -0.104,0.25 -0.064,0.064 -0.152,0.104 -0.25,0.104 -0.097,0 -0.186,-0.04 -0.25,-0.104 -0.064,-0.064 -0.103,-0.152 -0.103,-0.25 0,-0.097 0.039,-0.186 0.103,-0.249 0.064,-0.064 0.153,-0.104 0.25,-0.104zm0.139 0.215c-0.036,-0.036 -0.085,-0.058 -0.139,-0.058 -0.054,0 -0.103,0.022 -0.139,0.058 -0.035,0.035 -0.057,0.084 -0.057,0.138 0,0.055 0.022,0.104 0.057,0.139 0.036,0.036 0.085,0.058 0.139,0.058 0.054,0 0.103,-0.022 0.139,-0.058 0.035,-0.035 0.057,-0.084 0.057,-0.139 0,-0.054 -0.022,-0.103 -0.057,-0.138z"/>
   </g>
  </g>
 </g>
</svg>
