<?xml version="1.0" encoding="UTF-8"?>
<!DOCTYPE svg PUBLIC "-//W3C//DTD SVG 1.1//EN" "http://www.w3.org/Graphics/SVG/1.1/DTD/svg11.dtd">
<!-- Creator: CorelDRAW 2018 (64-Bit) -->
<svg xmlns="http://www.w3.org/2000/svg" xml:space="preserve" width="42px" height="32px" version="1.1" style="shape-rendering:geometricPrecision; text-rendering:geometricPrecision; image-rendering:optimizeQuality; fill-rule:evenodd; clip-rule:evenodd"
viewBox="0 0 1.008 0.768"
 xmlns:xlink="http://www.w3.org/1999/xlink">
 <defs>
  <style type="text/css">
   <![CDATA[
    .fil0 {fill:none}
    .fil2 {fill:gray}
    .fil1 {fill:gray;fill-rule:nonzero}
   ]]>
  </style>
 </defs>
 <g id="Layer_x0020_1">
  <metadata id="CorelCorpID_0Corel-Layer"/>
  <g id="_2815590634640">
   <rect class="fil0" width="1.008" height="0.768"/>
   <g>
    <path class="fil1" d="M0.14 0.699l0 -0.486c0,-0.009 0.004,-0.017 0.01,-0.023l0.001 -0.001c0.006,-0.006 0.013,-0.009 0.022,-0.009l0.662 0c0.009,0 0.017,0.004 0.023,0.01 0.006,0.006 0.01,0.014 0.01,0.023l0 0.486c0,0.009 -0.004,0.017 -0.01,0.023 -0.006,0.006 -0.014,0.01 -0.023,0.01l-0.662 0c-0.009,0 -0.017,-0.004 -0.023,-0.01 -0.006,-0.006 -0.01,-0.014 -0.01,-0.023zm0.024 -0.486l0 0.486c0,0.002 0.001,0.005 0.003,0.006 0.001,0.002 0.004,0.003 0.006,0.003l0.662 0c0.002,0 0.005,-0.001 0.006,-0.003 0.002,-0.001 0.003,-0.004 0.003,-0.006l0 -0.486c0,-0.002 -0.001,-0.005 -0.003,-0.006 -0.001,-0.002 -0.004,-0.003 -0.006,-0.003l-0.662 0c-0.002,0 -0.004,0.001 -0.006,0.002l0 0.001c-0.002,0.001 -0.003,0.004 -0.003,0.006z"/>
    <path class="fil1" d="M0.211 0.656c-0.007,0 -0.012,-0.005 -0.012,-0.012 0,-0.006 0.005,-0.012 0.012,-0.012l0.586 0c0.007,0 0.012,0.006 0.012,0.012 0,0.007 -0.005,0.012 -0.012,0.012l-0.586 0z"/>
    <path class="fil2" d="M0.293 0.611c0.018,0 0.034,0.015 0.034,0.033 0,0.019 -0.016,0.034 -0.034,0.034 -0.019,0 -0.034,-0.015 -0.034,-0.034 0,-0.018 0.015,-0.033 0.034,-0.033z"/>
    <path class="fil1" d="M0.504 0.282c0.038,0 0.072,0.015 0.096,0.04 0.025,0.025 0.04,0.059 0.04,0.096 0,0.038 -0.015,0.072 -0.04,0.097 -0.024,0.024 -0.058,0.039 -0.096,0.039 -0.038,0 -0.072,-0.015 -0.096,-0.039 -0.025,-0.025 -0.04,-0.059 -0.04,-0.097 0,-0.037 0.015,-0.071 0.04,-0.096 0.024,-0.025 0.058,-0.04 0.096,-0.04zm0.079 0.057c-0.02,-0.02 -0.048,-0.033 -0.079,-0.033 -0.031,0 -0.059,0.013 -0.079,0.033 -0.021,0.02 -0.033,0.048 -0.033,0.079 0,0.031 0.012,0.059 0.033,0.08 0.02,0.02 0.048,0.032 0.079,0.032 0.031,0 0.059,-0.012 0.079,-0.032 0.021,-0.021 0.033,-0.049 0.033,-0.08 0,-0.031 -0.012,-0.059 -0.033,-0.079z"/>
    <polygon class="fil2" points="0.564,0.418 0.518,0.388 0.471,0.357 0.471,0.418 0.471,0.479 0.518,0.449 "/>
    <path class="fil1" d="M0.542 0.418l-0.059 -0.039 0 0.078 0.059 -0.039zm-0.018 -0.04l0.047 0.03c0.001,0.001 0.002,0.002 0.003,0.004 0.004,0.005 0.002,0.013 -0.003,0.016l-0.093 0.061c-0.002,0.002 -0.004,0.002 -0.007,0.002 -0.007,0 -0.012,-0.005 -0.012,-0.012l0 -0.122c0,-0.002 0.001,-0.005 0.002,-0.007 0.003,-0.005 0.011,-0.007 0.016,-0.003l0.047 0.031z"/>
   </g>
  </g>
 </g>
</svg>
