<?xml version="1.0" encoding="UTF-8"?>
<!DOCTYPE svg PUBLIC "-//W3C//DTD SVG 1.1//EN" "http://www.w3.org/Graphics/SVG/1.1/DTD/svg11.dtd">
<!-- Creator: CorelDRAW 2018 (64-Bit) -->
<svg xmlns="http://www.w3.org/2000/svg" xml:space="preserve" width="42px" height="32px" version="1.1" style="shape-rendering:geometricPrecision; text-rendering:geometricPrecision; image-rendering:optimizeQuality; fill-rule:evenodd; clip-rule:evenodd"
viewBox="0 0 1.11 0.846"
 xmlns:xlink="http://www.w3.org/1999/xlink">
 <defs>
  <style type="text/css">
   <![CDATA[
    .fil0 {fill:none}
    .fil2 {fill:white}
    .fil1 {fill:white;fill-rule:nonzero}
   ]]>
  </style>
 </defs>
 <g id="Layer_x0020_1">
  <metadata id="CorelCorpID_0Corel-Layer"/>
  <g id="_2815516978960">
   <rect class="fil0" width="1.11" height="0.846"/>
   <g>
    <path class="fil1" d="M0.154 0.77l0 -0.535c0,-0.01 0.004,-0.019 0.011,-0.026l0.001 -0.001c0.006,-0.006 0.015,-0.01 0.025,-0.01l0.728 0c0.01,0 0.02,0.004 0.026,0.011 0.007,0.007 0.011,0.016 0.011,0.026l0 0.535c0,0.01 -0.004,0.019 -0.011,0.025 -0.006,0.007 -0.016,0.011 -0.026,0.011l-0.728 0c-0.01,0 -0.019,-0.004 -0.026,-0.011 -0.007,-0.006 -0.011,-0.015 -0.011,-0.025zm0.027 -0.535l0 0.535c0,0.002 0.001,0.005 0.003,0.007 0.001,0.002 0.004,0.003 0.007,0.003l0.728 0c0.003,0 0.006,-0.001 0.008,-0.003 0.001,-0.002 0.002,-0.005 0.002,-0.007l0 -0.535c0,-0.003 -0.001,-0.006 -0.002,-0.007 -0.002,-0.002 -0.005,-0.003 -0.008,-0.003l-0.728 0c-0.003,0 -0.005,0.001 -0.007,0.002l0 0.001c-0.002,0.001 -0.003,0.004 -0.003,0.007z"/>
    <path class="fil1" d="M0.232 0.723c-0.007,0 -0.013,-0.006 -0.013,-0.013 0,-0.008 0.006,-0.014 0.013,-0.014l0.646 0c0.007,0 0.013,0.006 0.013,0.014 0,0.007 -0.006,0.013 -0.013,0.013l-0.646 0z"/>
    <path class="fil2" d="M0.322 0.672c0.021,0 0.038,0.017 0.038,0.038 0,0.02 -0.017,0.037 -0.038,0.037 -0.02,0 -0.037,-0.017 -0.037,-0.037 0,-0.021 0.017,-0.038 0.037,-0.038z"/>
    <path class="fil1" d="M0.555 0.311c0.041,0 0.079,0.016 0.106,0.044 0.027,0.027 0.044,0.064 0.044,0.106 0,0.041 -0.017,0.078 -0.044,0.106 -0.027,0.027 -0.065,0.044 -0.106,0.044 -0.041,0 -0.079,-0.017 -0.106,-0.044 -0.027,-0.028 -0.044,-0.065 -0.044,-0.106 0,-0.042 0.017,-0.079 0.044,-0.106 0.027,-0.028 0.065,-0.044 0.106,-0.044zm0.087 0.062c-0.022,-0.022 -0.053,-0.036 -0.087,-0.036 -0.034,0 -0.065,0.014 -0.087,0.036 -0.023,0.023 -0.036,0.053 -0.036,0.088 0,0.034 0.013,0.065 0.036,0.087 0.022,0.022 0.053,0.036 0.087,0.036 0.034,0 0.065,-0.014 0.087,-0.036 0.023,-0.022 0.037,-0.053 0.037,-0.087 0,-0.035 -0.014,-0.065 -0.037,-0.088z"/>
    <polygon class="fil2" points="0.621,0.461 0.57,0.427 0.519,0.393 0.519,0.461 0.519,0.528 0.57,0.494 "/>
    <path class="fil1" d="M0.597 0.461l-0.065 -0.043 0 0.086 0.065 -0.043zm-0.02 -0.045l0.051 0.033c0.002,0.001 0.003,0.003 0.004,0.004 0.004,0.006 0.003,0.015 -0.003,0.019l-0.103 0.067c-0.002,0.001 -0.005,0.002 -0.007,0.002 -0.008,0 -0.014,-0.006 -0.014,-0.013l0 -0.135c0,-0.002 0.001,-0.005 0.003,-0.007 0.004,-0.006 0.012,-0.008 0.018,-0.004l0.051 0.034z"/>
   </g>
  </g>
 </g>
</svg>
