<?xml version="1.0" encoding="UTF-8"?>
<!DOCTYPE svg PUBLIC "-//W3C//DTD SVG 1.1//EN" "http://www.w3.org/Graphics/SVG/1.1/DTD/svg11.dtd">
<!-- Creator: CorelDRAW 2018 (64-Bit) -->
<svg xmlns="http://www.w3.org/2000/svg" xml:space="preserve" width="42px" height="32px" version="1.1" style="shape-rendering:geometricPrecision; text-rendering:geometricPrecision; image-rendering:optimizeQuality; fill-rule:evenodd; clip-rule:evenodd"
viewBox="0 0 1.235 0.941"
 xmlns:xlink="http://www.w3.org/1999/xlink">
 <defs>
  <style type="text/css">
   <![CDATA[
    .fil0 {fill:none}
    .fil2 {fill:#00F4FF}
    .fil1 {fill:#00F4FF;fill-rule:nonzero}
   ]]>
  </style>
 </defs>
 <g id="Layer_x0020_1">
  <metadata id="CorelCorpID_0Corel-Layer"/>
  <g id="_2814718622224">
   <rect class="fil0" width="1.235" height="0.941"/>
   <g>
    <path class="fil1" d="M0.172 0.856l0 -0.595c0,-0.011 0.004,-0.021 0.011,-0.028l0.001 -0.001c0.008,-0.007 0.018,-0.011 0.028,-0.011l0.811 0c0.011,0 0.021,0.004 0.029,0.012 0.007,0.007 0.012,0.017 0.012,0.028l0 0.595c0,0.011 -0.005,0.022 -0.012,0.029 -0.008,0.007 -0.018,0.012 -0.029,0.012l-0.811 0c-0.011,0 -0.021,-0.005 -0.029,-0.012 -0.007,-0.007 -0.011,-0.018 -0.011,-0.029zm0.029 -0.595l0 0.595c0,0.003 0.001,0.006 0.003,0.008 0.002,0.002 0.005,0.004 0.008,0.004l0.811 0c0.003,0 0.006,-0.002 0.008,-0.004 0.002,-0.002 0.003,-0.005 0.003,-0.008l0 -0.595c0,-0.003 -0.001,-0.006 -0.003,-0.008 -0.002,-0.002 -0.005,-0.003 -0.008,-0.003l-0.811 0c-0.003,0 -0.005,0.001 -0.007,0.003l-0.001 0c-0.002,0.002 -0.003,0.005 -0.003,0.008z"/>
    <path class="fil1" d="M0.258 0.804c-0.008,0 -0.015,-0.006 -0.015,-0.014 0,-0.008 0.007,-0.015 0.015,-0.015l0.719 0c0.008,0 0.015,0.007 0.015,0.015 0,0.008 -0.007,0.014 -0.015,0.014l-0.719 0z"/>
    <path class="fil2" d="M0.359 0.748c0.022,0 0.041,0.019 0.041,0.042 0,0.023 -0.019,0.041 -0.041,0.041 -0.023,0 -0.042,-0.018 -0.042,-0.041 0,-0.023 0.019,-0.042 0.042,-0.042z"/>
    <path class="fil1" d="M0.618 0.346c0.046,0 0.087,0.018 0.118,0.049 0.03,0.03 0.048,0.071 0.048,0.117 0,0.047 -0.018,0.088 -0.048,0.118 -0.031,0.031 -0.072,0.049 -0.118,0.049 -0.046,0 -0.088,-0.018 -0.118,-0.049 -0.031,-0.03 -0.049,-0.071 -0.049,-0.118 0,-0.046 0.018,-0.087 0.049,-0.117 0.03,-0.031 0.072,-0.049 0.118,-0.049zm0.097 0.069c-0.025,-0.025 -0.059,-0.04 -0.097,-0.04 -0.038,0 -0.073,0.015 -0.098,0.04 -0.024,0.025 -0.04,0.06 -0.04,0.097 0,0.038 0.016,0.073 0.04,0.098 0.025,0.024 0.06,0.04 0.098,0.04 0.038,0 0.072,-0.016 0.097,-0.04 0.025,-0.025 0.04,-0.06 0.04,-0.098 0,-0.037 -0.015,-0.072 -0.04,-0.097z"/>
    <polygon class="fil2" points="0.691,0.512 0.634,0.475 0.577,0.437 0.577,0.512 0.577,0.587 0.634,0.55 "/>
    <path class="fil1" d="M0.665 0.512l-0.073 -0.047 0 0.095 0.073 -0.048zm-0.023 -0.049l0.057 0.037c0.002,0.001 0.003,0.003 0.005,0.004 0.004,0.007 0.002,0.016 -0.005,0.021l-0.113 0.074c-0.003,0.002 -0.006,0.003 -0.009,0.003 -0.008,0 -0.015,-0.006 -0.015,-0.015l0 -0.15c0,-0.002 0.001,-0.005 0.003,-0.008 0.004,-0.006 0.013,-0.008 0.02,-0.004l0.057 0.038z"/>
   </g>
  </g>
 </g>
</svg>
