<?xml version="1.0" encoding="UTF-8"?>
<!DOCTYPE svg PUBLIC "-//W3C//DTD SVG 1.1//EN" "http://www.w3.org/Graphics/SVG/1.1/DTD/svg11.dtd">
<!-- Creator: CorelDRAW 2018 (64-Bit) -->
<svg xmlns="http://www.w3.org/2000/svg" xml:space="preserve" width="42px" height="32px" version="1.1" style="shape-rendering:geometricPrecision; text-rendering:geometricPrecision; image-rendering:optimizeQuality; fill-rule:evenodd; clip-rule:evenodd"
viewBox="0 0 2.388 1.819"
 xmlns:xlink="http://www.w3.org/1999/xlink">
 <defs>
  <style type="text/css">
   <![CDATA[
    .fil0 {fill:none}
    .fil1 {fill:#00F4FF;fill-rule:nonzero}
   ]]>
  </style>
 </defs>
 <g id="Layer_x0020_1">
  <metadata id="CorelCorpID_0Corel-Layer"/>
  <g id="_2778924124544">
   <rect class="fil0" width="2.388" height="1.819"/>
   <g>
    <path class="fil1" d="M0.54 0.37l1.308 0c0.025,0 0.049,0.01 0.066,0.027 0.017,0.017 0.028,0.041 0.028,0.066l0 1.177c0,0.026 -0.011,0.05 -0.028,0.067 -0.017,0.017 -0.04,0.027 -0.066,0.027l-1.308 0c-0.026,0 -0.049,-0.01 -0.066,-0.027 -0.017,-0.017 -0.028,-0.041 -0.028,-0.067l0 -1.177c0,-0.025 0.011,-0.049 0.028,-0.066l0.002 -0.002c0.017,-0.016 0.039,-0.025 0.064,-0.025zm1.308 0.056l-1.308 0c-0.01,0 -0.018,0.004 -0.025,0.01l-0.001 0.001c-0.007,0.007 -0.011,0.016 -0.011,0.026l0 1.177c0,0.01 0.004,0.02 0.011,0.026 0.007,0.007 0.016,0.011 0.026,0.011l1.308 0c0.01,0 0.019,-0.004 0.026,-0.011 0.007,-0.006 0.011,-0.016 0.011,-0.026l0 -1.177c0,-0.01 -0.004,-0.019 -0.011,-0.026 -0.007,-0.006 -0.016,-0.011 -0.026,-0.011z"/>
    <path class="fil1" d="M1.941 1.646c-0.001,0.024 -0.012,0.046 -0.028,0.061 -0.017,0.017 -0.04,0.027 -0.065,0.027l-1.308 0c-0.026,0 -0.049,-0.01 -0.066,-0.027 -0.017,-0.017 -0.028,-0.041 -0.028,-0.067l0 -0.436c0,-0.008 0.003,-0.015 0.008,-0.02l0.391 -0.463c0.01,-0.012 0.028,-0.014 0.04,-0.003 0.001,0.001 0.003,0.002 0.004,0.004l0.478 0.606 0.175 -0.18c0.01,-0.011 0.028,-0.012 0.039,-0.001l0.352 0.331c0.005,0.006 0.008,0.013 0.008,0.021l0.001 0.143 -0.001 0.004zm-0.067 0.021c0.006,-0.006 0.01,-0.015 0.011,-0.024l0 -0.132 -0.322 -0.304 -0.177 0.182c-0.001,0.002 -0.003,0.003 -0.004,0.004 -0.012,0.01 -0.03,0.008 -0.04,-0.005l-0.476 -0.604 -0.363 0.43 0 0.426c0,0.01 0.004,0.02 0.011,0.026 0.007,0.007 0.016,0.011 0.026,0.011l1.308 0c0.01,0 0.019,-0.004 0.026,-0.01z"/>
    <path class="fil1" d="M1.698 0.739l0 0c0,-0.029 -0.012,-0.056 -0.031,-0.075 -0.019,-0.019 -0.046,-0.031 -0.075,-0.031l0 0c-0.029,0 -0.056,0.012 -0.075,0.031 -0.019,0.019 -0.031,0.046 -0.031,0.075l0 0c0,0.029 0.012,0.056 0.031,0.075 0.019,0.019 0.046,0.031 0.075,0.031l0 0c0.029,0 0.056,-0.012 0.075,-0.031 0.019,-0.019 0.031,-0.045 0.031,-0.075l0 0zm0.057 0l0 0c0,0.045 -0.019,0.086 -0.048,0.115 -0.029,0.03 -0.07,0.048 -0.115,0.048l0 0c-0.045,0 -0.086,-0.018 -0.115,-0.048 -0.03,-0.029 -0.048,-0.07 -0.048,-0.115l0 0c0,-0.045 0.019,-0.086 0.048,-0.115 0.029,-0.029 0.07,-0.048 0.115,-0.048l0 0c0.045,0 0.086,0.019 0.115,0.048 0.03,0.029 0.048,0.07 0.048,0.115z"/>
    <path class="fil1" d="M1.185 1.188l-0.319 -0.404 -0.288 0.341 0.021 -0.009c0.015,-0.007 0.031,-0.001 0.038,0.014l0.044 0.11 0.141 -0.153c0.01,-0.011 0.028,-0.012 0.04,-0.002l0.133 0.135 0.048 -0.077c0.008,-0.013 0.024,-0.017 0.037,-0.01l0.105 0.055zm-0.296 -0.466l0.424 0.538c0.007,0.008 0.008,0.021 0.003,0.031 -0.007,0.014 -0.025,0.019 -0.038,0.011l-0.201 -0.107 -0.053 0.084c-0.001,0.002 -0.003,0.005 -0.005,0.007 -0.011,0.011 -0.029,0.01 -0.04,-0.001l-0.136 -0.138 -0.149 0.164c-0.003,0.003 -0.007,0.006 -0.012,0.008 -0.014,0.006 -0.031,-0.001 -0.037,-0.016l-0.049 -0.124 -0.108 0.049c-0.01,0.004 -0.022,0.003 -0.03,-0.004 -0.012,-0.01 -0.014,-0.028 -0.004,-0.04l0.39 -0.462c0.002,-0.002 0.003,-0.004 0.005,-0.005 0.012,-0.01 0.03,-0.008 0.04,0.005z"/>
    <path class="fil1" d="M1.344 1.351l0.198 -0.203c0.01,-0.011 0.028,-0.012 0.039,-0.001l0.324 0.305c0.011,0.011 0.012,0.029 0.001,0.04 -0.008,0.009 -0.021,0.011 -0.032,0.007l-0.205 -0.083 -0.031 0.087c-0.005,0.014 -0.021,0.022 -0.036,0.017 -0.004,-0.002 -0.009,-0.004 -0.012,-0.008l-0.085 -0.098 -0.08 0.044c-0.013,0.007 -0.028,0.004 -0.037,-0.008l-0.046 -0.062c-0.009,-0.012 -0.007,-0.027 0.002,-0.037zm0.219 -0.144l-0.161 0.166 0.017 0.024 0.077 -0.042c0.012,-0.008 0.028,-0.006 0.037,0.005l0.068 0.078 0.025 -0.07c0.005,-0.014 0.022,-0.021 0.036,-0.016l0.095 0.038 -0.194 -0.183z"/>
   </g>
  </g>
 </g>
</svg>
