<?xml version="1.0" encoding="UTF-8"?>
<!DOCTYPE svg PUBLIC "-//W3C//DTD SVG 1.1//EN" "http://www.w3.org/Graphics/SVG/1.1/DTD/svg11.dtd">
<!-- Creator: CorelDRAW 2018 (64-Bit) -->
<svg xmlns="http://www.w3.org/2000/svg" xml:space="preserve" width="42px" height="32px" version="1.1" style="shape-rendering:geometricPrecision; text-rendering:geometricPrecision; image-rendering:optimizeQuality; fill-rule:evenodd; clip-rule:evenodd"
viewBox="0 0 1.668 1.271"
 xmlns:xlink="http://www.w3.org/1999/xlink">
 <defs>
  <style type="text/css">
   <![CDATA[
    .fil0 {fill:none}
    .fil1 {fill:white;fill-rule:nonzero}
   ]]>
  </style>
 </defs>
 <g id="Layer_x0020_1">
  <metadata id="CorelCorpID_0Corel-Layer"/>
  <g id="_2778886609440">
   <rect class="fil0" width="1.668" height="1.271"/>
   <g>
    <path class="fil1" d="M0.377 0.258l0.914 0c0.017,0 0.034,0.007 0.046,0.019 0.012,0.012 0.019,0.029 0.019,0.047l0 0.822c0,0.018 -0.007,0.034 -0.019,0.046 -0.012,0.012 -0.028,0.019 -0.046,0.019l-0.914 0c-0.018,0 -0.034,-0.007 -0.046,-0.019 -0.012,-0.012 -0.019,-0.028 -0.019,-0.046l0 -0.822c0,-0.018 0.007,-0.035 0.019,-0.047l0.001 -0.001c0.012,-0.011 0.028,-0.018 0.045,-0.018zm0.914 0.04l-0.914 0c-0.007,0 -0.013,0.002 -0.017,0.007l-0.001 0c-0.005,0.005 -0.008,0.012 -0.008,0.019l0 0.822c0,0.007 0.003,0.013 0.008,0.018 0.005,0.004 0.011,0.007 0.018,0.007l0.914 0c0.007,0 0.013,-0.003 0.018,-0.007 0.004,-0.005 0.007,-0.011 0.007,-0.018l0 -0.822c0,-0.007 -0.003,-0.014 -0.007,-0.019 -0.005,-0.004 -0.011,-0.007 -0.018,-0.007z"/>
    <path class="fil1" d="M1.356 1.149c-0.001,0.017 -0.009,0.032 -0.02,0.043 -0.012,0.012 -0.028,0.019 -0.045,0.019l-0.914 0c-0.018,0 -0.034,-0.007 -0.046,-0.019 -0.012,-0.012 -0.019,-0.028 -0.019,-0.046l0 -0.305c0,-0.006 0.002,-0.011 0.005,-0.014l0.273 -0.324c0.007,-0.008 0.02,-0.009 0.028,-0.002 0.001,0.001 0.002,0.002 0.003,0.003l0.334 0.423 0.122 -0.125c0.007,-0.008 0.02,-0.008 0.027,-0.001l0.246 0.231c0.004,0.004 0.006,0.009 0.006,0.015l0 0.1 0 0.002zm-0.047 0.015c0.004,-0.004 0.007,-0.01 0.007,-0.016l0 -0.093 -0.225 -0.212 -0.123 0.127c-0.001,0.001 -0.002,0.002 -0.003,0.003 -0.008,0.007 -0.021,0.005 -0.028,-0.003l-0.332 -0.422 -0.254 0.3 0 0.298c0,0.007 0.003,0.013 0.008,0.018 0.005,0.004 0.011,0.007 0.018,0.007l0.914 0c0.007,0 0.013,-0.002 0.018,-0.007z"/>
    <path class="fil1" d="M1.186 0.516l0 0c0,-0.02 -0.008,-0.039 -0.022,-0.052 -0.013,-0.014 -0.032,-0.022 -0.052,-0.022l0 0c-0.021,0 -0.039,0.008 -0.053,0.022 -0.013,0.013 -0.021,0.032 -0.021,0.052l0 0c0,0.021 0.008,0.039 0.021,0.053 0.014,0.013 0.032,0.021 0.053,0.021l0 0c0.02,0 0.039,-0.008 0.052,-0.021 0.014,-0.014 0.022,-0.032 0.022,-0.053l0 0zm0.04 0l0 0c-0.001,0.032 -0.013,0.06 -0.034,0.081 -0.02,0.02 -0.049,0.033 -0.08,0.033l0 0c-0.032,0 -0.06,-0.013 -0.081,-0.033 -0.02,-0.021 -0.033,-0.049 -0.033,-0.081l0 0c0,-0.031 0.013,-0.06 0.034,-0.08 0.02,-0.021 0.048,-0.033 0.08,-0.033l0 0c0.031,0 0.06,0.012 0.08,0.033 0.021,0.02 0.034,0.049 0.034,0.08z"/>
    <path class="fil1" d="M0.827 0.83l-0.222 -0.282 -0.201 0.238 0.015 -0.007c0.01,-0.004 0.021,0 0.026,0.01l0.031 0.077 0.098 -0.107c0.007,-0.008 0.02,-0.008 0.028,-0.001l0.093 0.094 0.034 -0.054c0.005,-0.009 0.016,-0.012 0.026,-0.007l0.072 0.039zm-0.206 -0.326l0.296 0.376c0.005,0.006 0.006,0.014 0.002,0.021 -0.005,0.01 -0.017,0.014 -0.027,0.009l-0.14 -0.075 -0.037 0.058c0,0.002 -0.002,0.003 -0.003,0.005 -0.008,0.008 -0.02,0.007 -0.028,0l-0.095 -0.097 -0.104 0.114c-0.002,0.003 -0.005,0.005 -0.008,0.006 -0.011,0.004 -0.022,-0.001 -0.026,-0.011l-0.035 -0.086 -0.075 0.034c-0.007,0.003 -0.015,0.002 -0.021,-0.003 -0.009,-0.007 -0.01,-0.02 -0.003,-0.028l0.273 -0.323c0.001,-0.001 0.002,-0.002 0.003,-0.003 0.009,-0.007 0.021,-0.006 0.028,0.003z"/>
    <path class="fil1" d="M0.939 0.944l0.138 -0.142c0.007,-0.008 0.02,-0.008 0.027,-0.001l0.226 0.213c0.008,0.008 0.009,0.02 0.001,0.028 -0.006,0.006 -0.015,0.008 -0.022,0.005l-0.143 -0.058 -0.022 0.061c-0.003,0.01 -0.015,0.015 -0.025,0.012 -0.003,-0.001 -0.006,-0.003 -0.008,-0.006l-0.06 -0.068 -0.056 0.031c-0.009,0.004 -0.02,0.002 -0.025,-0.006l-0.033 -0.044c-0.006,-0.008 -0.005,-0.019 0.002,-0.025zm0.152 -0.101l-0.112 0.116 0.012 0.017 0.054 -0.03c0.008,-0.005 0.019,-0.004 0.026,0.004l0.047 0.054 0.017 -0.048c0.004,-0.011 0.016,-0.016 0.026,-0.011l0.066 0.026 -0.136 -0.128z"/>
   </g>
  </g>
 </g>
</svg>
