<?xml version="1.0" encoding="UTF-8"?>
<!DOCTYPE svg PUBLIC "-//W3C//DTD SVG 1.1//EN" "http://www.w3.org/Graphics/SVG/1.1/DTD/svg11.dtd">
<!-- Creator: CorelDRAW 2018 (64-Bit) -->
<svg xmlns="http://www.w3.org/2000/svg" xml:space="preserve" width="42px" height="32px" version="1.1" style="shape-rendering:geometricPrecision; text-rendering:geometricPrecision; image-rendering:optimizeQuality; fill-rule:evenodd; clip-rule:evenodd"
viewBox="0 0 4.198 3.199"
 xmlns:xlink="http://www.w3.org/1999/xlink">
 <defs>
  <style type="text/css">
   <![CDATA[
    .fil0 {fill:none}
    .fil1 {fill:white;fill-rule:nonzero}
   ]]>
  </style>
 </defs>
 <g id="Layer_x0020_1">
  <metadata id="CorelCorpID_0Corel-Layer"/>
  <g id="_1612874272352">
   <rect class="fil0" width="4.198" height="3.199"/>
   <g>
    <path class="fil1" d="M1.976 0.35c0.325,0 0.619,0.132 0.832,0.345 0.213,0.212 0.345,0.507 0.345,0.832 0,0.324 -0.132,0.619 -0.345,0.832 -0.213,0.212 -0.507,0.344 -0.832,0.344 -0.325,0 -0.619,-0.132 -0.832,-0.344 -0.213,-0.213 -0.344,-0.508 -0.344,-0.832 0,-0.325 0.131,-0.62 0.344,-0.832 0.213,-0.213 0.507,-0.345 0.832,-0.345zm0.762 0.415c-0.195,-0.195 -0.464,-0.315 -0.762,-0.315 -0.297,0 -0.566,0.12 -0.761,0.315 -0.195,0.195 -0.315,0.464 -0.315,0.762 0,0.297 0.12,0.566 0.315,0.761 0.195,0.195 0.464,0.315 0.761,0.315 0.298,0 0.567,-0.12 0.762,-0.315 0.194,-0.195 0.315,-0.464 0.315,-0.761 0,-0.298 -0.121,-0.567 -0.315,-0.762z"/>
    <path class="fil1" d="M2.521 0.877c-0.021,-0.018 -0.023,-0.049 -0.006,-0.07 0.018,-0.021 0.049,-0.024 0.07,-0.007 0.086,0.072 0.157,0.158 0.212,0.253l0.002 0.003c0.054,0.094 0.092,0.198 0.111,0.306 0.004,0.027 -0.014,0.053 -0.041,0.058 -0.027,0.005 -0.053,-0.014 -0.058,-0.041 -0.017,-0.097 -0.051,-0.19 -0.099,-0.274l-0.001 -0.002c-0.049,-0.085 -0.113,-0.162 -0.19,-0.226z"/>
    <path class="fil1" d="M2.738 2.359c-0.02,-0.02 -0.02,-0.052 0,-0.071 0.019,-0.02 0.051,-0.02 0.07,0l0.229 0.228c0.019,0.02 0.019,0.051 0,0.071 -0.02,0.019 -0.052,0.019 -0.071,0l-0.228 -0.228z"/>
    <path class="fil1" d="M2.966 2.516c0.039,-0.039 0.091,-0.059 0.143,-0.059 0.051,0 0.103,0.02 0.143,0.059l0.287 0.288c0.04,0.039 0.059,0.091 0.059,0.143 0,0.051 -0.019,0.103 -0.059,0.142 -0.039,0.04 -0.091,0.06 -0.143,0.06 -0.051,0 -0.103,-0.02 -0.142,-0.059l-0.288 -0.288c-0.039,-0.039 -0.059,-0.091 -0.059,-0.143 0,-0.052 0.02,-0.104 0.059,-0.143zm0.143 0.041c-0.026,0 -0.053,0.01 -0.072,0.03 -0.02,0.02 -0.03,0.046 -0.03,0.072 0,0.026 0.01,0.053 0.03,0.072l0.287 0.288c0.02,0.02 0.046,0.03 0.072,0.03 0.027,0 0.053,-0.01 0.073,-0.03 0.02,-0.02 0.029,-0.046 0.029,-0.072 0,-0.027 -0.009,-0.053 -0.029,-0.073l-0.288 -0.287c-0.02,-0.02 -0.046,-0.03 -0.072,-0.03z"/>
    <path class="fil1" d="M2.19 1.62l0.038 -0.011c0.043,-0.013 0.084,-0.026 0.122,-0.026 0.04,-0.001 0.088,0.013 0.125,0.049 0.029,0.028 0.052,0.068 0.06,0.123l0.027 0.182c0.004,0.025 -0.004,0.045 -0.017,0.062 -0.009,0.012 -0.021,0.022 -0.032,0.029 -0.144,0.099 -0.341,0.148 -0.537,0.148 -0.195,0 -0.392,-0.049 -0.537,-0.148 -0.011,-0.007 -0.022,-0.017 -0.031,-0.029 -0.014,-0.017 -0.021,-0.037 -0.017,-0.062l0.027 -0.182c0.008,-0.055 0.031,-0.095 0.059,-0.123 0.038,-0.036 0.085,-0.05 0.126,-0.049 0.037,0 0.078,0.013 0.122,0.026l0.039 0.012c0.077,0.022 0.145,0.033 0.212,0.033 0.068,0 0.135,-0.011 0.212,-0.033l0.002 -0.001zm0.067 0.084l-0.041 0.013c-0.087,0.024 -0.163,0.037 -0.24,0.037 -0.076,0 -0.153,-0.013 -0.239,-0.037l-0.042 -0.013c-0.036,-0.011 -0.071,-0.022 -0.094,-0.022 -0.017,0 -0.038,0.006 -0.055,0.022 -0.014,0.013 -0.025,0.034 -0.03,0.066l-0.025 0.172 0.005 0.004c0.127,0.087 0.303,0.13 0.48,0.13 0.177,0 0.353,-0.043 0.481,-0.13l0.005 -0.004 -0.026 -0.172c-0.005,-0.032 -0.016,-0.053 -0.03,-0.066 -0.016,-0.016 -0.037,-0.022 -0.055,-0.022 -0.023,0 -0.057,0.011 -0.094,0.022z"/>
    <path class="fil1" d="M1.978 0.877c0.099,0 0.189,0.04 0.254,0.105 0.065,0.065 0.105,0.155 0.105,0.254 0,0.098 -0.04,0.188 -0.105,0.253 -0.065,0.065 -0.155,0.105 -0.254,0.105 -0.099,0 -0.189,-0.04 -0.254,-0.105l-0.002 -0.003c-0.064,-0.064 -0.103,-0.153 -0.103,-0.25 0,-0.099 0.04,-0.189 0.105,-0.254 0.065,-0.065 0.155,-0.105 0.254,-0.105zm0.183 0.176c-0.047,-0.047 -0.111,-0.076 -0.183,-0.076 -0.071,0 -0.136,0.029 -0.183,0.076 -0.047,0.046 -0.076,0.111 -0.076,0.183 0,0.07 0.028,0.134 0.073,0.18l0.003 0.003c0.047,0.047 0.112,0.076 0.183,0.076 0.072,0 0.136,-0.029 0.183,-0.076 0.047,-0.047 0.076,-0.112 0.076,-0.183 0,-0.072 -0.029,-0.137 -0.076,-0.183z"/>
   </g>
  </g>
 </g>
</svg>
