<?xml version="1.0" encoding="UTF-8"?>
<!DOCTYPE svg PUBLIC "-//W3C//DTD SVG 1.1//EN" "http://www.w3.org/Graphics/SVG/1.1/DTD/svg11.dtd">
<!-- Creator: CorelDRAW 2018 (64-Bit) -->
<svg xmlns="http://www.w3.org/2000/svg" xml:space="preserve" width="42px" height="32px" version="1.1" style="shape-rendering:geometricPrecision; text-rendering:geometricPrecision; image-rendering:optimizeQuality; fill-rule:evenodd; clip-rule:evenodd"
viewBox="0 0 6.602 5.03"
 xmlns:xlink="http://www.w3.org/1999/xlink">
 <defs>
  <style type="text/css">
   <![CDATA[
    .fil0 {fill:none}
    .fil1 {fill:#00F4FF;fill-rule:nonzero}
   ]]>
  </style>
 </defs>
 <g id="Layer_x0020_1">
  <metadata id="CorelCorpID_0Corel-Layer"/>
  <g id="_1613089074592">
   <rect class="fil0" width="6.602" height="5.03"/>
   <g>
    <path class="fil1" d="M3.108 0.55c0.511,0 0.974,0.207 1.308,0.542 0.335,0.335 0.542,0.798 0.542,1.309 0,0.511 -0.207,0.973 -0.542,1.308 -0.334,0.335 -0.797,0.542 -1.308,0.542 -0.511,0 -0.974,-0.207 -1.308,-0.542 -0.335,-0.335 -0.542,-0.797 -0.542,-1.308 0,-0.511 0.207,-0.974 0.542,-1.309 0.334,-0.335 0.797,-0.542 1.308,-0.542zm1.197 0.653c-0.306,-0.306 -0.729,-0.496 -1.197,-0.496 -0.468,0 -0.891,0.19 -1.197,0.496 -0.307,0.307 -0.496,0.73 -0.496,1.198 0,0.467 0.189,0.891 0.496,1.197 0.306,0.306 0.729,0.496 1.197,0.496 0.468,0 0.891,-0.19 1.197,-0.496 0.307,-0.306 0.496,-0.73 0.496,-1.197 0,-0.468 -0.189,-0.891 -0.496,-1.198z"/>
    <path class="fil1" d="M3.965 1.379c-0.033,-0.028 -0.037,-0.077 -0.009,-0.11 0.027,-0.034 0.077,-0.038 0.11,-0.01 0.134,0.112 0.246,0.247 0.333,0.396l0.002 0.005c0.085,0.149 0.145,0.312 0.175,0.482 0.007,0.043 -0.021,0.083 -0.064,0.091 -0.043,0.007 -0.083,-0.021 -0.091,-0.064 -0.027,-0.153 -0.08,-0.299 -0.156,-0.431l-0.002 -0.004c-0.077,-0.134 -0.178,-0.254 -0.298,-0.355z"/>
    <path class="fil1" d="M4.305 3.709c-0.03,-0.031 -0.03,-0.08 0,-0.111 0.031,-0.031 0.081,-0.031 0.111,0l0.359 0.359c0.031,0.031 0.031,0.08 0,0.111 -0.03,0.031 -0.08,0.031 -0.111,0l-0.359 -0.359z"/>
    <path class="fil1" d="M4.664 3.957c0.062,-0.062 0.144,-0.093 0.225,-0.093 0.081,0 0.163,0.031 0.225,0.093l0.452 0.452c0.062,0.062 0.093,0.144 0.093,0.225 0,0.081 -0.031,0.163 -0.093,0.225 -0.062,0.062 -0.143,0.093 -0.225,0.093 -0.081,0 -0.162,-0.031 -0.224,-0.093l-0.453 -0.452c-0.062,-0.062 -0.093,-0.144 -0.093,-0.225 0,-0.082 0.031,-0.163 0.093,-0.225zm0.225 0.064c-0.041,0 -0.082,0.016 -0.114,0.047 -0.031,0.031 -0.046,0.073 -0.046,0.114 0,0.041 0.015,0.082 0.046,0.113l0.453 0.453c0.031,0.031 0.072,0.047 0.113,0.047 0.042,0 0.083,-0.016 0.114,-0.047 0.031,-0.031 0.047,-0.073 0.047,-0.114 0,-0.041 -0.016,-0.082 -0.047,-0.113l-0.452 -0.453c-0.031,-0.031 -0.073,-0.047 -0.114,-0.047z"/>
    <path class="fil1" d="M3.445 2.548l0.059 -0.018c0.068,-0.021 0.132,-0.041 0.192,-0.041 0.063,-0.001 0.138,0.02 0.197,0.077 0.045,0.044 0.08,0.107 0.093,0.195l0.043 0.286c0.006,0.038 -0.006,0.07 -0.027,0.097 -0.014,0.019 -0.032,0.034 -0.05,0.045 -0.227,0.156 -0.536,0.233 -0.844,0.233 -0.308,0 -0.617,-0.077 -0.844,-0.233 -0.018,-0.011 -0.036,-0.026 -0.05,-0.045 -0.021,-0.027 -0.033,-0.059 -0.027,-0.098l0.043 -0.285c0.013,-0.088 0.048,-0.151 0.093,-0.195 0.059,-0.057 0.134,-0.078 0.197,-0.077 0.059,0 0.124,0.02 0.192,0.041l0.062 0.019c0.122,0.035 0.228,0.052 0.334,0.052 0.106,0 0.212,-0.018 0.333,-0.052l0.004 -0.001zm0.105 0.132l-0.066 0.02c-0.135,0.039 -0.255,0.058 -0.376,0.058 -0.121,0 -0.241,-0.019 -0.376,-0.058l-0.066 -0.02c-0.057,-0.017 -0.112,-0.034 -0.147,-0.035 -0.028,0 -0.061,0.009 -0.087,0.034 -0.022,0.021 -0.04,0.055 -0.047,0.104l-0.041 0.271 0.008 0.006c0.201,0.137 0.478,0.205 0.756,0.205 0.278,0 0.555,-0.068 0.756,-0.205l0.008 -0.006 -0.041 -0.271c-0.007,-0.049 -0.025,-0.083 -0.047,-0.104 -0.026,-0.025 -0.059,-0.034 -0.087,-0.034 -0.035,0.001 -0.09,0.018 -0.147,0.035z"/>
    <path class="fil1" d="M3.111 1.379c0.156,0 0.297,0.063 0.399,0.165 0.102,0.102 0.165,0.243 0.165,0.399 0,0.156 -0.063,0.297 -0.165,0.399 -0.102,0.102 -0.243,0.166 -0.399,0.166 -0.156,0 -0.297,-0.064 -0.399,-0.166l-0.005 -0.004c-0.099,-0.102 -0.161,-0.242 -0.161,-0.395 0,-0.156 0.064,-0.297 0.166,-0.399 0.102,-0.102 0.243,-0.165 0.399,-0.165zm0.288 0.276c-0.074,-0.073 -0.176,-0.119 -0.288,-0.119 -0.113,0 -0.214,0.046 -0.288,0.119 -0.074,0.074 -0.119,0.176 -0.119,0.288 0,0.111 0.044,0.211 0.115,0.284l0.004 0.004c0.074,0.074 0.175,0.119 0.288,0.119 0.112,0 0.214,-0.045 0.288,-0.119 0.073,-0.073 0.119,-0.175 0.119,-0.288 0,-0.112 -0.046,-0.214 -0.119,-0.288z"/>
   </g>
  </g>
 </g>
</svg>
