<?xml version="1.0" encoding="UTF-8"?>
<!DOCTYPE svg PUBLIC "-//W3C//DTD SVG 1.1//EN" "http://www.w3.org/Graphics/SVG/1.1/DTD/svg11.dtd">
<!-- Creator: CorelDRAW 2018 (64-Bit) -->
<svg xmlns="http://www.w3.org/2000/svg" xml:space="preserve" width="42px" height="32px" version="1.1" style="shape-rendering:geometricPrecision; text-rendering:geometricPrecision; image-rendering:optimizeQuality; fill-rule:evenodd; clip-rule:evenodd"
viewBox="0 0 1.235 0.941"
 xmlns:xlink="http://www.w3.org/1999/xlink">
 <defs>
  <style type="text/css">
   <![CDATA[
    .fil0 {fill:none}
    .fil1 {fill:#00F4FF;fill-rule:nonzero}
   ]]>
  </style>
 </defs>
 <g id="Layer_x0020_1">
  <metadata id="CorelCorpID_0Corel-Layer"/>
  <g id="_2815516946192">
   <rect class="fil0" width="1.235" height="0.941"/>
   <g>
    <path class="fil1" d="M0.476 0.621c0,-0.008 0.007,-0.014 0.015,-0.014 0.008,0 0.014,0.006 0.014,0.014l0 0.259c0,0.008 -0.006,0.014 -0.014,0.014 -0.008,0 -0.015,-0.006 -0.015,-0.014l0 -0.259z"/>
    <path class="fil1" d="M0.425 0.722c-0.008,0 -0.015,-0.006 -0.015,-0.015 0,-0.008 0.007,-0.014 0.015,-0.014l0.022 0c0.008,0 0.015,0.006 0.015,0.014 0,0.009 -0.007,0.015 -0.015,0.015l-0.022 0z"/>
    <path class="fil1" d="M0.786 0.824c-0.006,0.006 -0.015,0.006 -0.021,0 -0.005,-0.005 -0.005,-0.015 0,-0.02l0.132 -0.132c0.006,-0.006 0.015,-0.006 0.021,0 0.005,0.006 0.005,0.015 0,0.021l-0.132 0.131z"/>
    <path class="fil1" d="M0.852 0.824c-0.006,0.006 -0.015,0.006 -0.021,0 -0.006,-0.006 -0.006,-0.015 0,-0.021l0.066 -0.065c0.006,-0.006 0.015,-0.006 0.021,0 0.005,0.005 0.005,0.015 0,0.02l-0.066 0.066z"/>
    <path class="fil1" d="M1.054 0.463c0,0.023 -0.009,0.044 -0.025,0.06 -0.015,0.015 -0.036,0.025 -0.06,0.025 -0.023,0 -0.041,-0.008 -0.056,-0.022 -0.005,-0.005 -0.009,-0.01 -0.013,-0.016 -0.003,0.005 -0.007,0.01 -0.012,0.014 -0.015,0.015 -0.036,0.024 -0.059,0.024 -0.024,0 -0.045,-0.01 -0.061,-0.025 -0.003,-0.004 -0.007,-0.008 -0.01,-0.012 -0.003,0.004 -0.006,0.008 -0.01,0.012 -0.015,0.015 -0.037,0.025 -0.06,0.025l0 0c-0.024,0 -0.045,-0.01 -0.06,-0.025 -0.004,-0.004 -0.007,-0.008 -0.01,-0.012 -0.003,0.004 -0.007,0.008 -0.011,0.012 -0.015,0.015 -0.036,0.025 -0.06,0.025l0 0c-0.023,0 -0.044,-0.01 -0.06,-0.025 -0.004,-0.004 -0.007,-0.008 -0.01,-0.012 -0.003,0.004 -0.006,0.008 -0.01,0.012 -0.016,0.015 -0.037,0.025 -0.06,0.025l0 0c-0.024,0 -0.045,-0.009 -0.06,-0.024 -0.004,-0.004 -0.008,-0.009 -0.012,-0.014 -0.004,0.006 -0.008,0.011 -0.013,0.016 -0.014,0.014 -0.033,0.022 -0.056,0.022 -0.023,0 -0.045,-0.01 -0.06,-0.025 -0.015,-0.015 -0.025,-0.037 -0.025,-0.06 0,-0.002 0,-0.004 0.001,-0.006l0.074 -0.203c0.005,-0.011 0.01,-0.019 0.017,-0.025 0.008,-0.006 0.018,-0.008 0.03,-0.008l0.629 0c0.013,0 0.022,0.002 0.03,0.008 0.007,0.006 0.013,0.014 0.017,0.025l0.074 0.204c0.001,0.001 0.001,0.003 0.001,0.005zm-0.045 0.039c0.009,-0.009 0.015,-0.022 0.016,-0.037l-0.074 -0.201c-0.002,-0.006 -0.004,-0.01 -0.007,-0.011 -0.002,-0.002 -0.006,-0.003 -0.012,-0.003l-0.629 0c-0.006,0 -0.01,0.001 -0.012,0.003 -0.003,0.001 -0.005,0.005 -0.007,0.011l-0.074 0.201c0.001,0.015 0.007,0.028 0.017,0.037 0.01,0.01 0.024,0.016 0.039,0.016 0.015,0 0.027,-0.005 0.036,-0.014 0.01,-0.009 0.017,-0.024 0.021,-0.04 0.001,-0.008 0.007,-0.013 0.014,-0.013 0.008,0 0.015,0.006 0.015,0.014l0 0.001c0,0.015 0.006,0.028 0.016,0.037 0.009,0.01 0.023,0.015 0.039,0.015l0 0c0.015,0 0.029,-0.006 0.039,-0.016 0.01,-0.01 0.016,-0.024 0.016,-0.039l0.03 0 0 0.002c0,0.014 0.006,0.028 0.016,0.037 0.01,0.01 0.024,0.016 0.039,0.016l0 0c0.016,0 0.03,-0.006 0.04,-0.016 0.01,-0.01 0.016,-0.024 0.016,-0.039l0.029 0c0,0.015 0.006,0.029 0.016,0.039 0.011,0.01 0.025,0.016 0.04,0.016l0 0c0.015,0 0.029,-0.006 0.039,-0.016 0.01,-0.01 0.016,-0.024 0.016,-0.039l0.03 0 0 0.002c0,0.014 0.006,0.028 0.016,0.037 0.01,0.01 0.024,0.016 0.039,0.016 0.016,0 0.03,-0.005 0.04,-0.015 0.009,-0.01 0.015,-0.023 0.015,-0.038 0,-0.007 0.005,-0.013 0.012,-0.014 0.008,-0.002 0.016,0.003 0.017,0.011 0.004,0.018 0.011,0.033 0.021,0.043 0.009,0.009 0.021,0.013 0.036,0.013 0.016,0 0.029,-0.006 0.04,-0.016z"/>
    <path class="fil1" d="M0.956 0.621c0,-0.008 0.006,-0.014 0.014,-0.014 0.009,0 0.015,0.006 0.015,0.014l0 0.237c0,0.011 -0.004,0.02 -0.011,0.027l-0.001 0.001c-0.007,0.007 -0.017,0.011 -0.027,0.011l-0.657 0c-0.011,0 -0.02,-0.004 -0.027,-0.011 -0.008,-0.008 -0.012,-0.017 -0.012,-0.028l0 -0.237c0,-0.008 0.007,-0.014 0.015,-0.014 0.008,0 0.014,0.006 0.014,0.014l0 0.237c0,0.003 0.002,0.005 0.003,0.007 0.002,0.001 0.004,0.003 0.007,0.003l0.657 0c0.002,0 0.005,-0.001 0.006,-0.003l0.001 0c0.002,-0.002 0.003,-0.004 0.003,-0.007l0 -0.237z"/>
    <path class="fil1" d="M0.479 0.24c0.001,-0.009 0.008,-0.015 0.016,-0.014 0.008,0.001 0.014,0.008 0.013,0.016l-0.017 0.233c-0.001,0.008 -0.008,0.014 -0.016,0.013 -0.008,0 -0.014,-0.008 -0.013,-0.016l0.017 -0.232z"/>
    <path class="fil1" d="M0.727 0.242c-0.001,-0.008 0.005,-0.015 0.013,-0.016 0.008,-0.001 0.015,0.005 0.016,0.014l0.018 0.232c0,0.008 -0.006,0.016 -0.014,0.016 -0.008,0.001 -0.015,-0.005 -0.016,-0.013l-0.017 -0.233z"/>
    <path class="fil1" d="M0.832 0.24c-0.002,-0.008 0.003,-0.016 0.011,-0.017 0.008,-0.002 0.016,0.003 0.018,0.011l0.052 0.232c0.002,0.008 -0.003,0.016 -0.011,0.018 -0.008,0.002 -0.015,-0.003 -0.017,-0.011l-0.053 -0.233z"/>
    <path class="fil1" d="M0.374 0.237c0.002,-0.007 0.01,-0.012 0.018,-0.011 0.007,0.002 0.012,0.01 0.011,0.018l-0.053 0.233c-0.002,0.008 -0.01,0.013 -0.018,0.011 -0.008,-0.002 -0.013,-0.01 -0.011,-0.018l0.053 -0.233z"/>
    <path class="fil1" d="M0.603 0.236c0,-0.008 0.006,-0.015 0.015,-0.015 0.008,0 0.014,0.007 0.014,0.015l0 0.241c0,0.008 -0.006,0.014 -0.014,0.014 -0.009,0 -0.015,-0.006 -0.015,-0.014l0 -0.241z"/>
   </g>
  </g>
 </g>
</svg>
