<?xml version="1.0" encoding="UTF-8"?>
<!DOCTYPE svg PUBLIC "-//W3C//DTD SVG 1.1//EN" "http://www.w3.org/Graphics/SVG/1.1/DTD/svg11.dtd">
<!-- Creator: CorelDRAW 2018 (64-Bit) -->
<svg xmlns="http://www.w3.org/2000/svg" xml:space="preserve" width="42px" height="32px" version="1.1" style="shape-rendering:geometricPrecision; text-rendering:geometricPrecision; image-rendering:optimizeQuality; fill-rule:evenodd; clip-rule:evenodd"
viewBox="0 0 1.11 0.846"
 xmlns:xlink="http://www.w3.org/1999/xlink">
 <defs>
  <style type="text/css">
   <![CDATA[
    .fil0 {fill:none}
    .fil1 {fill:white;fill-rule:nonzero}
   ]]>
  </style>
 </defs>
 <g id="Layer_x0020_1">
  <metadata id="CorelCorpID_0Corel-Layer"/>
  <g id="_2815748753584">
   <rect class="fil0" width="1.11" height="0.846"/>
   <g>
    <path class="fil1" d="M0.428 0.558c0,-0.007 0.006,-0.013 0.013,-0.013 0.007,0 0.013,0.006 0.013,0.013l0 0.233c0,0.007 -0.006,0.013 -0.013,0.013 -0.007,0 -0.013,-0.006 -0.013,-0.013l0 -0.233z"/>
    <path class="fil1" d="M0.382 0.649c-0.007,0 -0.013,-0.006 -0.013,-0.013 0,-0.007 0.006,-0.013 0.013,-0.013l0.02 0c0.007,0 0.013,0.006 0.013,0.013 0,0.007 -0.006,0.013 -0.013,0.013l-0.02 0z"/>
    <path class="fil1" d="M0.706 0.741c-0.005,0.005 -0.013,0.005 -0.018,0 -0.005,-0.005 -0.005,-0.014 0,-0.019l0.118 -0.118c0.005,-0.005 0.014,-0.005 0.019,0 0.005,0.005 0.005,0.013 0,0.019l-0.119 0.118z"/>
    <path class="fil1" d="M0.766 0.741c-0.006,0.005 -0.014,0.005 -0.019,0 -0.005,-0.005 -0.005,-0.014 0,-0.019l0.059 -0.059c0.005,-0.005 0.014,-0.005 0.019,0 0.005,0.005 0.005,0.014 0,0.019l-0.059 0.059z"/>
    <path class="fil1" d="M0.947 0.416c0,0.021 -0.008,0.04 -0.022,0.054 -0.014,0.014 -0.033,0.022 -0.054,0.022 -0.021,0 -0.037,-0.007 -0.05,-0.019 -0.005,-0.004 -0.009,-0.009 -0.012,-0.015 -0.003,0.005 -0.007,0.009 -0.011,0.013 -0.013,0.013 -0.032,0.021 -0.053,0.021 -0.021,0 -0.041,-0.008 -0.054,-0.022 -0.004,-0.003 -0.007,-0.007 -0.01,-0.011 -0.002,0.004 -0.005,0.008 -0.009,0.011 -0.013,0.014 -0.033,0.022 -0.054,0.022l0 0c-0.021,0 -0.04,-0.008 -0.054,-0.022 -0.003,-0.003 -0.006,-0.007 -0.009,-0.011 -0.003,0.004 -0.006,0.008 -0.009,0.011 -0.014,0.014 -0.033,0.022 -0.054,0.022l0 0c-0.021,0 -0.04,-0.008 -0.054,-0.022 -0.004,-0.003 -0.007,-0.007 -0.009,-0.011 -0.003,0.004 -0.006,0.008 -0.01,0.011 -0.013,0.014 -0.032,0.022 -0.053,0.022l-0.001 0c-0.021,0 -0.039,-0.008 -0.053,-0.021 -0.004,-0.004 -0.008,-0.008 -0.011,-0.013 -0.003,0.006 -0.007,0.01 -0.011,0.015 -0.014,0.012 -0.031,0.019 -0.051,0.019 -0.021,0 -0.04,-0.008 -0.054,-0.022 -0.014,-0.014 -0.022,-0.033 -0.022,-0.054 0,-0.002 0,-0.004 0.001,-0.006l0.066 -0.182c0.004,-0.01 0.009,-0.017 0.016,-0.022 0.007,-0.005 0.015,-0.008 0.026,-0.008l0.566 0c0.011,0 0.019,0.003 0.026,0.008 0.007,0.005 0.012,0.012 0.016,0.022l0.067 0.183c0,0.002 0,0.003 0,0.005zm-0.041 0.035c0.009,-0.008 0.014,-0.02 0.015,-0.033l-0.066 -0.181c-0.002,-0.005 -0.004,-0.008 -0.006,-0.01 -0.002,-0.002 -0.006,-0.002 -0.011,-0.002l-0.566 0c-0.005,0 -0.009,0 -0.011,0.002 -0.002,0.002 -0.004,0.005 -0.006,0.01l-0.066 0.181c0.001,0.013 0.006,0.025 0.015,0.033 0.009,0.009 0.021,0.015 0.035,0.015 0.013,0 0.024,-0.005 0.032,-0.013 0.01,-0.008 0.016,-0.021 0.019,-0.036 0.001,-0.007 0.006,-0.012 0.013,-0.012 0.007,0 0.013,0.006 0.013,0.013l0 0c0,0.014 0.006,0.026 0.014,0.034 0.009,0.009 0.022,0.014 0.035,0.014l0.001 0c0.013,0 0.026,-0.006 0.035,-0.015 0.009,-0.009 0.014,-0.021 0.014,-0.035l0.027 0 0 0.002c0,0.013 0.006,0.025 0.014,0.033 0.01,0.009 0.022,0.015 0.036,0.015l0 0c0.014,0 0.026,-0.006 0.035,-0.015 0.009,-0.009 0.015,-0.021 0.015,-0.035l0.026 0c0,0.014 0.006,0.026 0.015,0.035 0.009,0.009 0.021,0.015 0.035,0.015l0 0c0.014,0 0.027,-0.006 0.036,-0.015 0.009,-0.009 0.014,-0.021 0.014,-0.035l0.027 0 0 0.002c0,0.013 0.006,0.025 0.014,0.033 0.009,0.009 0.022,0.015 0.036,0.015 0.014,0 0.026,-0.005 0.035,-0.014 0.009,-0.008 0.014,-0.02 0.014,-0.034 0,-0.006 0.004,-0.012 0.011,-0.013 0.007,-0.001 0.014,0.003 0.015,0.01 0.003,0.017 0.01,0.03 0.019,0.039 0.008,0.008 0.019,0.012 0.032,0.012 0.014,0 0.026,-0.006 0.035,-0.015z"/>
    <path class="fil1" d="M0.859 0.558c0,-0.007 0.006,-0.013 0.013,-0.013 0.007,0 0.013,0.006 0.013,0.013l0 0.213c0,0.01 -0.004,0.018 -0.01,0.025l-0.001 0.001c-0.006,0.006 -0.015,0.009 -0.024,0.009l-0.59 0c-0.01,0 -0.019,-0.004 -0.025,-0.01 -0.006,-0.007 -0.01,-0.015 -0.01,-0.025l0 -0.213c0,-0.007 0.006,-0.013 0.013,-0.013 0.007,0 0.013,0.006 0.013,0.013l0 0.213c0,0.002 0.001,0.005 0.003,0.006 0.001,0.002 0.003,0.003 0.006,0.003l0.59 0c0.002,0 0.004,-0.001 0.006,-0.002l0 -0.001c0.002,-0.001 0.003,-0.004 0.003,-0.006l0 -0.213z"/>
    <path class="fil1" d="M0.43 0.215c0.001,-0.007 0.007,-0.012 0.015,-0.012 0.007,0.001 0.012,0.007 0.012,0.014l-0.016 0.21c0,0.007 -0.007,0.012 -0.014,0.012 -0.007,-0.001 -0.013,-0.007 -0.012,-0.014l0.015 -0.21z"/>
    <path class="fil1" d="M0.653 0.217c0,-0.007 0.005,-0.013 0.012,-0.014 0.008,0 0.014,0.005 0.015,0.012l0.015 0.21c0.001,0.007 -0.005,0.013 -0.012,0.014 -0.007,0 -0.014,-0.005 -0.014,-0.012l-0.016 -0.21z"/>
    <path class="fil1" d="M0.748 0.216c-0.002,-0.007 0.003,-0.014 0.01,-0.016 0.007,-0.002 0.014,0.003 0.015,0.01l0.048 0.209c0.002,0.007 -0.003,0.014 -0.01,0.016 -0.007,0.002 -0.014,-0.003 -0.016,-0.01l-0.047 -0.209z"/>
    <path class="fil1" d="M0.336 0.213c0.002,-0.007 0.009,-0.011 0.016,-0.01 0.007,0.002 0.011,0.009 0.01,0.016l-0.048 0.209c-0.001,0.008 -0.008,0.012 -0.015,0.01 -0.007,-0.001 -0.012,-0.008 -0.01,-0.015l0.047 -0.21z"/>
    <path class="fil1" d="M0.542 0.212c0,-0.007 0.006,-0.013 0.013,-0.013 0.007,0 0.013,0.006 0.013,0.013l0 0.216c0,0.008 -0.006,0.014 -0.013,0.014 -0.007,0 -0.013,-0.006 -0.013,-0.014l0 -0.216z"/>
   </g>
  </g>
 </g>
</svg>
