<?xml version="1.0" encoding="UTF-8"?>
<!DOCTYPE svg PUBLIC "-//W3C//DTD SVG 1.1//EN" "http://www.w3.org/Graphics/SVG/1.1/DTD/svg11.dtd">
<!-- Creator: CorelDRAW 2018 (64-Bit) -->
<svg xmlns="http://www.w3.org/2000/svg" xml:space="preserve" width="42px" height="32px" version="1.1" style="shape-rendering:geometricPrecision; text-rendering:geometricPrecision; image-rendering:optimizeQuality; fill-rule:evenodd; clip-rule:evenodd"
viewBox="0 0 1.008 0.768"
 xmlns:xlink="http://www.w3.org/1999/xlink">
 <defs>
  <style type="text/css">
   <![CDATA[
    .fil0 {fill:none}
    .fil1 {fill:gray;fill-rule:nonzero}
   ]]>
  </style>
 </defs>
 <g id="Layer_x0020_1">
  <metadata id="CorelCorpID_0Corel-Layer"/>
  <g id="_2778932715296">
   <rect class="fil0" width="1.008" height="0.768"/>
   <g>
    <path class="fil1" d="M0.388 0.507c0,-0.007 0.006,-0.012 0.012,-0.012 0.007,0 0.012,0.005 0.012,0.012l0 0.211c0,0.007 -0.005,0.012 -0.012,0.012 -0.006,0 -0.012,-0.005 -0.012,-0.012l0 -0.211z"/>
    <path class="fil1" d="M0.347 0.589c-0.007,0 -0.012,-0.005 -0.012,-0.012 0,-0.006 0.005,-0.012 0.012,-0.012l0.018 0c0.006,0 0.012,0.006 0.012,0.012 0,0.007 -0.006,0.012 -0.012,0.012l-0.018 0z"/>
    <path class="fil1" d="M0.642 0.673c-0.005,0.004 -0.013,0.004 -0.017,0 -0.005,-0.005 -0.005,-0.013 0,-0.017l0.107 -0.108c0.005,-0.004 0.012,-0.004 0.017,0 0.005,0.005 0.005,0.013 0,0.017l-0.107 0.108z"/>
    <path class="fil1" d="M0.695 0.673c-0.004,0.004 -0.012,0.004 -0.017,0 -0.004,-0.005 -0.004,-0.013 0,-0.017l0.054 -0.054c0.005,-0.005 0.012,-0.005 0.017,0 0.005,0.005 0.005,0.012 0,0.017l-0.054 0.054z"/>
    <path class="fil1" d="M0.86 0.378c0,0.019 -0.007,0.036 -0.02,0.049 -0.012,0.012 -0.03,0.02 -0.049,0.02 -0.019,0 -0.034,-0.006 -0.046,-0.018 -0.004,-0.004 -0.008,-0.008 -0.011,-0.013 -0.002,0.004 -0.005,0.008 -0.009,0.012 -0.012,0.012 -0.03,0.019 -0.049,0.019 -0.019,0 -0.036,-0.008 -0.049,-0.02 -0.003,-0.003 -0.006,-0.007 -0.008,-0.01 -0.003,0.003 -0.005,0.007 -0.009,0.01 -0.012,0.012 -0.029,0.02 -0.049,0.02l0 0c-0.019,0 -0.036,-0.008 -0.049,-0.02 -0.003,-0.003 -0.006,-0.007 -0.008,-0.01 -0.002,0.003 -0.005,0.007 -0.008,0.01 -0.013,0.012 -0.03,0.02 -0.049,0.02l0 0c-0.02,0 -0.037,-0.008 -0.049,-0.02 -0.003,-0.003 -0.006,-0.007 -0.009,-0.01 -0.002,0.003 -0.005,0.007 -0.008,0.01 -0.013,0.012 -0.03,0.02 -0.049,0.02l0 0c-0.019,0 -0.036,-0.007 -0.049,-0.019 -0.003,-0.004 -0.007,-0.008 -0.009,-0.012 -0.003,0.005 -0.007,0.009 -0.011,0.013 -0.012,0.011 -0.027,0.018 -0.046,0.018 -0.019,0 -0.036,-0.008 -0.049,-0.02 -0.013,-0.013 -0.02,-0.03 -0.02,-0.049 0,-0.002 0,-0.004 0.001,-0.005l0.06 -0.166c0.004,-0.009 0.008,-0.016 0.014,-0.02 0.006,-0.005 0.014,-0.007 0.024,-0.007l0.514 0c0.01,0 0.018,0.002 0.024,0.007 0.006,0.004 0.01,0.011 0.014,0.02l0.061 0.167c0,0.001 0,0.002 0,0.004zm-0.037 0.032c0.008,-0.008 0.013,-0.019 0.013,-0.03l-0.06 -0.165c-0.001,-0.004 -0.003,-0.007 -0.005,-0.009 -0.002,-0.001 -0.005,-0.002 -0.01,-0.002l-0.514 0c-0.005,0 -0.008,0.001 -0.01,0.002 -0.002,0.002 -0.004,0.005 -0.005,0.009l-0.06 0.165c0,0.011 0.005,0.022 0.013,0.03 0.008,0.008 0.02,0.013 0.032,0.013 0.012,0 0.022,-0.004 0.029,-0.011 0.009,-0.008 0.015,-0.02 0.017,-0.034 0.001,-0.006 0.006,-0.01 0.012,-0.01 0.007,0 0.012,0.005 0.012,0.012l0 0c0,0.012 0.005,0.023 0.013,0.031 0.008,0.007 0.019,0.012 0.032,0.012l0 0c0.012,0 0.024,-0.005 0.032,-0.013 0.008,-0.008 0.013,-0.02 0.013,-0.032l0.024 0 0 0.001c0.001,0.012 0.006,0.023 0.013,0.031 0.009,0.008 0.02,0.013 0.033,0.013l0 0c0.012,0 0.024,-0.005 0.032,-0.013 0.008,-0.008 0.013,-0.02 0.013,-0.032l0.024 0c0,0.012 0.005,0.024 0.013,0.032 0.008,0.008 0.02,0.013 0.032,0.013l0 0c0.013,0 0.024,-0.005 0.033,-0.013 0.008,-0.008 0.013,-0.02 0.013,-0.032l0.024 0 0 0.001c0,0.012 0.005,0.023 0.013,0.031 0.008,0.008 0.02,0.013 0.032,0.013 0.013,0 0.024,-0.005 0.032,-0.013 0.008,-0.007 0.013,-0.018 0.013,-0.031 0,-0.005 0.004,-0.01 0.01,-0.011 0.006,-0.002 0.012,0.003 0.014,0.009 0.003,0.015 0.008,0.027 0.017,0.035 0.007,0.007 0.017,0.011 0.029,0.011 0.013,0 0.024,-0.005 0.032,-0.013z"/>
    <path class="fil1" d="M0.78 0.507c0,-0.007 0.005,-0.012 0.012,-0.012 0.007,0 0.012,0.005 0.012,0.012l0 0.193c0,0.009 -0.004,0.017 -0.009,0.023l-0.001 0c-0.006,0.006 -0.014,0.009 -0.022,0.009l-0.536 0c-0.009,0 -0.017,-0.004 -0.023,-0.009 -0.005,-0.006 -0.009,-0.014 -0.009,-0.023l0 -0.193c0,-0.007 0.005,-0.012 0.012,-0.012 0.007,0 0.012,0.005 0.012,0.012l0 0.193c0,0.002 0.001,0.004 0.002,0.006 0.002,0.001 0.004,0.002 0.006,0.002l0.536 0c0.002,0 0.004,-0.001 0.005,-0.002l0.001 0c0.001,-0.002 0.002,-0.004 0.002,-0.006l0 -0.193z"/>
    <path class="fil1" d="M0.391 0.196c0,-0.007 0.006,-0.012 0.013,-0.012 0.006,0.001 0.011,0.007 0.011,0.013l-0.014 0.19c-0.001,0.007 -0.007,0.012 -0.013,0.011 -0.007,0 -0.012,-0.006 -0.011,-0.012l0.014 -0.19z"/>
    <path class="fil1" d="M0.593 0.197c0,-0.006 0.005,-0.012 0.011,-0.013 0.007,0 0.013,0.005 0.013,0.012l0.014 0.19c0.001,0.006 -0.004,0.012 -0.011,0.012 -0.006,0.001 -0.012,-0.004 -0.013,-0.011l-0.014 -0.19z"/>
    <path class="fil1" d="M0.679 0.196c-0.001,-0.007 0.003,-0.013 0.009,-0.014 0.007,-0.002 0.013,0.002 0.014,0.009l0.043 0.19c0.002,0.006 -0.002,0.013 -0.009,0.014 -0.006,0.001 -0.012,-0.003 -0.014,-0.009l-0.043 -0.19z"/>
    <path class="fil1" d="M0.305 0.194c0.002,-0.007 0.008,-0.011 0.015,-0.009 0.006,0.001 0.01,0.008 0.009,0.014l-0.044 0.19c-0.001,0.006 -0.007,0.011 -0.014,0.009 -0.006,-0.001 -0.01,-0.008 -0.009,-0.014l0.043 -0.19z"/>
    <path class="fil1" d="M0.492 0.193c0,-0.007 0.005,-0.012 0.012,-0.012 0.007,0 0.012,0.005 0.012,0.012l0 0.196c0,0.007 -0.005,0.012 -0.012,0.012 -0.007,0 -0.012,-0.005 -0.012,-0.012l0 -0.196z"/>
   </g>
  </g>
 </g>
</svg>
