<?xml version="1.0" encoding="UTF-8"?>
<!DOCTYPE svg PUBLIC "-//W3C//DTD SVG 1.1//EN" "http://www.w3.org/Graphics/SVG/1.1/DTD/svg11.dtd">
<!-- Creator: CorelDRAW 2018 (64-Bit) -->
<svg xmlns="http://www.w3.org/2000/svg" xml:space="preserve" width="42px" height="32px" version="1.1" style="shape-rendering:geometricPrecision; text-rendering:geometricPrecision; image-rendering:optimizeQuality; fill-rule:evenodd; clip-rule:evenodd"
viewBox="0 0 2.388 1.819"
 xmlns:xlink="http://www.w3.org/1999/xlink">
 <defs>
  <style type="text/css">
   <![CDATA[
    .fil0 {fill:none}
    .fil1 {fill:#00F4FF;fill-rule:nonzero}
   ]]>
  </style>
 </defs>
 <g id="Layer_x0020_1">
  <metadata id="CorelCorpID_0Corel-Layer"/>
  <g id="_2815746450320">
   <rect class="fil0" width="2.388" height="1.819"/>
   <g>
    <path class="fil1" d="M1.194 0.142c0.228,0 0.434,0.092 0.583,0.242 0.149,0.149 0.241,0.355 0.241,0.583 0,0.227 -0.092,0.433 -0.241,0.582 -0.149,0.15 -0.355,0.242 -0.583,0.242 -0.228,0 -0.434,-0.092 -0.583,-0.242 -0.149,-0.149 -0.241,-0.355 -0.241,-0.582 0,-0.228 0.092,-0.434 0.241,-0.583 0.149,-0.15 0.355,-0.242 0.583,-0.242zm0.543 0.282c-0.139,-0.139 -0.331,-0.225 -0.543,-0.225 -0.212,0 -0.404,0.086 -0.543,0.225 -0.139,0.139 -0.225,0.331 -0.225,0.543 0,0.211 0.086,0.403 0.225,0.542 0.139,0.139 0.331,0.225 0.543,0.225 0.212,0 0.404,-0.086 0.543,-0.225 0.139,-0.139 0.224,-0.331 0.224,-0.542 0,-0.212 -0.085,-0.404 -0.224,-0.543z"/>
    <path class="fil1" d="M1.386 1.065c0.014,-0.004 0.025,-0.007 0.035,-0.01 0.037,-0.012 0.073,-0.023 0.104,-0.023 0.032,-0.001 0.07,0.01 0.1,0.039 0.023,0.022 0.041,0.055 0.048,0.1l0.024 0.161c0.002,0.017 -0.003,0.031 -0.012,0.043 -0.007,0.009 -0.016,0.016 -0.025,0.022 -0.125,0.086 -0.296,0.129 -0.466,0.129 -0.17,0 -0.341,-0.043 -0.466,-0.129 -0.009,-0.006 -0.018,-0.013 -0.025,-0.022 -0.009,-0.012 -0.014,-0.026 -0.012,-0.043l0.024 -0.161c0.007,-0.045 0.025,-0.078 0.048,-0.1 0.03,-0.029 0.068,-0.04 0.1,-0.039 0.031,0 0.066,0.011 0.104,0.023 0.01,0.003 0.021,0.006 0.035,0.01 0.07,0.02 0.131,0.03 0.192,0.03 0.061,0 0.122,-0.01 0.192,-0.03zm0.052 0.044c-0.013,0.004 -0.027,0.008 -0.037,0.011 -0.074,0.021 -0.141,0.032 -0.207,0.032 -0.067,0 -0.133,-0.011 -0.207,-0.032 -0.011,-0.003 -0.024,-0.007 -0.037,-0.011 -0.033,-0.011 -0.065,-0.02 -0.087,-0.021 -0.02,0 -0.042,0.007 -0.06,0.024 -0.015,0.014 -0.027,0.036 -0.031,0.068l-0.025 0.16c0,0.001 0.001,0 0.001,0.001 0.003,0.003 0.007,0.006 0.012,0.009 0.115,0.079 0.274,0.119 0.434,0.119 0.159,0 0.319,-0.04 0.434,-0.119 0.005,-0.003 0.009,-0.006 0.012,-0.009 0,-0.001 0,0 0,-0.001l-0.024 -0.16c-0.004,-0.032 -0.016,-0.054 -0.031,-0.068 -0.018,-0.017 -0.04,-0.024 -0.06,-0.024 -0.022,0.001 -0.054,0.01 -0.087,0.021z"/>
    <path class="fil1" d="M1.195 0.407c0.084,0 0.159,0.034 0.214,0.089l0 0c0.054,0.055 0.088,0.13 0.088,0.213 0,0.083 -0.034,0.159 -0.088,0.213l0 0.001c-0.055,0.054 -0.13,0.088 -0.214,0.088 -0.083,0 -0.158,-0.034 -0.213,-0.089l0 0c-0.054,-0.054 -0.088,-0.13 -0.088,-0.213 0,-0.083 0.034,-0.158 0.088,-0.213l0 0c0.055,-0.055 0.13,-0.089 0.213,-0.089zm0.174 0.129c-0.045,-0.044 -0.106,-0.072 -0.174,-0.072 -0.067,0 -0.128,0.028 -0.173,0.072 -0.044,0.044 -0.071,0.105 -0.071,0.173 0,0.068 0.027,0.129 0.071,0.173 0.045,0.045 0.106,0.072 0.173,0.072 0.068,0 0.129,-0.027 0.174,-0.072 0.044,-0.044 0.071,-0.105 0.071,-0.173 0,-0.068 -0.027,-0.129 -0.071,-0.173z"/>
   </g>
  </g>
 </g>
</svg>
