<?xml version="1.0" encoding="UTF-8"?>
<!DOCTYPE svg PUBLIC "-//W3C//DTD SVG 1.1//EN" "http://www.w3.org/Graphics/SVG/1.1/DTD/svg11.dtd">
<!-- Creator: CorelDRAW 2018 (64-Bit) -->
<svg xmlns="http://www.w3.org/2000/svg" xml:space="preserve" width="42px" height="32px" version="1.1" style="shape-rendering:geometricPrecision; text-rendering:geometricPrecision; image-rendering:optimizeQuality; fill-rule:evenodd; clip-rule:evenodd"
viewBox="0 0 1.796 1.368"
 xmlns:xlink="http://www.w3.org/1999/xlink">
 <defs>
  <style type="text/css">
   <![CDATA[
    .fil0 {fill:none}
    .fil1 {fill:#00F4FF;fill-rule:nonzero}
   ]]>
  </style>
 </defs>
 <g id="Layer_x0020_1">
  <metadata id="CorelCorpID_0Corel-Layer"/>
  <g id="_1612689436720">
   <rect class="fil0" width="1.796" height="1.368"/>
   <g>
    <path class="fil1" d="M0.961 1.174c0.011,0 0.021,0.01 0.021,0.022 0,0.012 -0.01,0.021 -0.021,0.021l-0.483 0c-0.012,0 -0.023,-0.005 -0.031,-0.013 -0.007,-0.007 -0.012,-0.018 -0.012,-0.03l0 -1.066c0,-0.012 0.004,-0.023 0.012,-0.031l0.002 -0.002c0.008,-0.007 0.018,-0.011 0.029,-0.011l0.595 0c0.006,0 0.011,0.003 0.015,0.007l0.251 0.251c0.004,0.004 0.006,0.009 0.006,0.015l0 0.417c0,0.012 -0.009,0.021 -0.021,0.021 -0.012,0 -0.021,-0.009 -0.021,-0.021l0 -0.408 -0.239 -0.239c-0.05,0 -0.586,-0.001 -0.587,0.001l0 1.066 0.001 0 0 0 0.483 0z"/>
    <path class="fil1" d="M1.324 0.358l-0.23 0c-0.012,0 -0.022,-0.005 -0.03,-0.012 -0.008,-0.008 -0.013,-0.019 -0.013,-0.031l0 -0.229c0,-0.012 0.01,-0.022 0.022,-0.022 0.006,0 0.011,0.003 0.015,0.007l0.251 0.251c0.008,0.008 0.008,0.022 0,0.03 -0.004,0.004 -0.01,0.006 -0.015,0.006zm-0.23 -0.043l0.178 0 -0.178 -0.178 0 0.178z"/>
    <path class="fil1" d="M0.637 0.443c0.012,-0.003 0.026,0.001 0.038,0.004l0.008 0.003c0.012,0.003 0.026,0.004 0.041,0.004 0.014,0 0.028,-0.001 0.04,-0.004l0.009 -0.003c0.012,-0.003 0.026,-0.007 0.039,-0.004 0.008,0.002 0.022,0.01 0.032,0.023 0.007,0.009 0.013,0.02 0.014,0.034l0.005 0.066 0.001 0.003c0,0.008 -0.004,0.016 -0.01,0.021 -0.005,0.005 -0.012,0.009 -0.019,0.009l-0.22 0.001 -0.004 -0.001c-0.007,-0.001 -0.013,-0.004 -0.018,-0.009 -0.006,-0.005 -0.009,-0.013 -0.009,-0.021l0.005 -0.069c0.002,-0.014 0.007,-0.025 0.014,-0.034 0.01,-0.013 0.024,-0.021 0.033,-0.023l0.001 0zm0.026 0.045c-0.007,-0.002 -0.015,-0.004 -0.016,-0.004 -0.002,0.001 -0.006,0.003 -0.01,0.008 -0.003,0.003 -0.005,0.007 -0.005,0.012l-0.005 0.053 0.193 0 -0.005 -0.053c0,-0.005 -0.002,-0.009 -0.005,-0.012 -0.004,-0.005 -0.007,-0.007 -0.009,-0.008 -0.001,0 -0.01,0.002 -0.017,0.004l-0.01 0.003c-0.016,0.004 -0.033,0.006 -0.05,0.006 -0.017,0 -0.035,-0.002 -0.051,-0.006l-0.01 -0.003zm-0.026 -0.045c0.011,-0.002 0.022,0.004 0.025,0.015l-0.025 -0.015z"/>
    <path class="fil1" d="M0.723 0.215c0.028,0 0.053,0.011 0.071,0.03l0.001 0c0.018,0.018 0.029,0.043 0.029,0.071 0,0.028 -0.011,0.053 -0.029,0.071l-0.002 0.002c-0.018,0.017 -0.043,0.028 -0.07,0.028 -0.028,0 -0.053,-0.011 -0.071,-0.03l0 0c-0.018,-0.018 -0.03,-0.043 -0.03,-0.071 0,-0.028 0.012,-0.053 0.03,-0.071 0.018,-0.019 0.043,-0.03 0.071,-0.03zm0.041 0.06c-0.01,-0.011 -0.025,-0.017 -0.041,-0.017 -0.016,0 -0.03,0.006 -0.041,0.017 -0.01,0.01 -0.017,0.025 -0.017,0.041 0,0.016 0.007,0.031 0.017,0.041 0.011,0.011 0.025,0.017 0.041,0.017 0.016,0 0.03,-0.006 0.04,-0.016l0.001 -0.001c0.011,-0.01 0.017,-0.025 0.017,-0.041 0,-0.016 -0.006,-0.031 -0.017,-0.041z"/>
    <path class="fil1" d="M0.605 0.781c-0.012,0 -0.021,-0.009 -0.021,-0.021 0,-0.012 0.009,-0.021 0.021,-0.021l0.237 0c0.012,0 0.022,0.009 0.022,0.021 0,0.012 -0.01,0.021 -0.022,0.021l-0.237 0z"/>
    <path class="fil1" d="M0.942 0.599c-0.011,0 -0.021,-0.009 -0.021,-0.021 0,-0.012 0.01,-0.021 0.021,-0.021l0.233 0c0.012,0 0.021,0.009 0.021,0.021 0,0.012 -0.009,0.021 -0.021,0.021l-0.233 0z"/>
    <path class="fil1" d="M0.605 0.963c-0.012,0 -0.021,-0.009 -0.021,-0.021 0,-0.012 0.009,-0.021 0.021,-0.021l0.237 0c0.012,0 0.022,0.009 0.022,0.021 0,0.012 -0.01,0.021 -0.022,0.021l-0.237 0z"/>
    <path class="fil1" d="M1.076 0.758l0.071 0.024 0.076 -0.022c0.01,-0.003 0.02,0.001 0.025,0.01l0.033 0.067 0.069 0.038c0.009,0.005 0.013,0.016 0.01,0.025l-0.023 0.071 0.022 0.076c0.003,0.01 -0.002,0.02 -0.011,0.025l-0.066 0.033 -0.038 0.069c-0.005,0.009 -0.016,0.013 -0.026,0.01l-0.07 -0.023 -0.076 0.022c-0.01,0.003 -0.02,-0.002 -0.025,-0.011l-0.033 -0.066 -0.07 -0.038c-0.009,-0.005 -0.013,-0.016 -0.01,-0.025l0.024 -0.071 -0.022 -0.076c-0.003,-0.01 0.001,-0.02 0.01,-0.025l0.066 -0.033 0.039 -0.07c0.005,-0.009 0.016,-0.013 0.025,-0.01zm0.063 0.066l-0.059 -0.019 -0.033 0.059c-0.002,0.004 -0.005,0.007 -0.009,0.009l-0.057 0.028 0.019 0.064c0.002,0.005 0.002,0.01 0,0.014l-0.02 0.06 0.06 0.033c0.004,0.002 0.007,0.005 0.009,0.009l0.028 0.056 0.064 -0.018c0.005,-0.002 0.009,-0.002 0.014,-0.001l0.06 0.02 0.033 -0.059c0.002,-0.004 0.005,-0.007 0.009,-0.009l0.056 -0.029 -0.018 -0.064c-0.002,-0.004 -0.002,-0.009 -0.001,-0.014l0.02 -0.059 -0.06 -0.033c-0.003,-0.002 -0.006,-0.005 -0.008,-0.009l-0.029 -0.057 -0.064 0.019c-0.004,0.002 -0.009,0.002 -0.014,0z"/>
    <path class="fil1" d="M1.189 1.159c0,-0.012 0.01,-0.021 0.021,-0.021 0.012,0 0.022,0.009 0.022,0.021l0 0.167c0,0.011 -0.01,0.021 -0.022,0.021 -0.005,0 -0.009,-0.002 -0.013,-0.005l-0.05 -0.032 -0.051 0.033c-0.01,0.007 -0.023,0.004 -0.03,-0.006 -0.002,-0.003 -0.003,-0.007 -0.003,-0.011l0 -0.168c0,-0.012 0.009,-0.022 0.021,-0.022 0.012,0 0.022,0.01 0.022,0.022l0 0.128 0.029 -0.02c0.007,-0.004 0.017,-0.005 0.024,0l0.03 0.02 0 -0.127z"/>
    <path class="fil1" d="M1.147 0.87c0.028,0 0.053,0.012 0.072,0.03l0 0c0.018,0.018 0.029,0.044 0.029,0.071 0,0.028 -0.011,0.053 -0.029,0.072 -0.019,0.018 -0.044,0.029 -0.072,0.029 -0.027,0 -0.053,-0.011 -0.071,-0.029l0 0c-0.018,-0.019 -0.03,-0.044 -0.03,-0.072 0,-0.027 0.012,-0.053 0.03,-0.071 0.018,-0.018 0.043,-0.03 0.071,-0.03zm0.041 0.06c-0.01,-0.01 -0.025,-0.017 -0.041,-0.017 -0.016,0 -0.03,0.007 -0.041,0.017 -0.01,0.011 -0.017,0.025 -0.017,0.041 0,0.016 0.007,0.031 0.017,0.041 0.011,0.011 0.025,0.018 0.041,0.018 0.016,0 0.031,-0.007 0.041,-0.018 0.011,-0.01 0.017,-0.025 0.017,-0.041 0,-0.016 -0.006,-0.03 -0.017,-0.041z"/>
   </g>
  </g>
 </g>
</svg>
