<?xml version="1.0" encoding="UTF-8"?>
<!DOCTYPE svg PUBLIC "-//W3C//DTD SVG 1.1//EN" "http://www.w3.org/Graphics/SVG/1.1/DTD/svg11.dtd">
<!-- Creator: CorelDRAW 2018 (64-Bit) -->
<svg xmlns="http://www.w3.org/2000/svg" xml:space="preserve" width="42px" height="32px" version="1.1" style="shape-rendering:geometricPrecision; text-rendering:geometricPrecision; image-rendering:optimizeQuality; fill-rule:evenodd; clip-rule:evenodd"
viewBox="0 0 4.198 3.199"
 xmlns:xlink="http://www.w3.org/1999/xlink">
 <defs>
  <style type="text/css">
   <![CDATA[
    .fil0 {fill:none}
    .fil1 {fill:white;fill-rule:nonzero}
   ]]>
  </style>
 </defs>
 <g id="Layer_x0020_1">
  <metadata id="CorelCorpID_0Corel-Layer"/>
  <g id="_1576619041168">
   <rect class="fil0" width="4.198" height="3.199"/>
   <g>
    <path class="fil1" d="M0.9 0.25l2.399 0c0.068,0 0.131,0.028 0.176,0.073 0.045,0.046 0.073,0.108 0.073,0.177l0 2.399c0,0.068 -0.028,0.131 -0.073,0.176 -0.045,0.046 -0.108,0.074 -0.176,0.074l-2.399 0c-0.069,0 -0.132,-0.028 -0.177,-0.074 -0.045,-0.045 -0.073,-0.107 -0.073,-0.176l0 -2.399c0,-0.069 0.028,-0.131 0.073,-0.177 0.046,-0.045 0.108,-0.073 0.177,-0.073zm2.399 0.1l-2.399 0c-0.042,0 -0.079,0.017 -0.106,0.044 -0.027,0.027 -0.044,0.065 -0.044,0.106l0 2.399c0,0.041 0.017,0.079 0.044,0.106 0.027,0.027 0.064,0.044 0.106,0.044l2.399 0c0.041,0 0.078,-0.017 0.105,-0.044 0.028,-0.027 0.045,-0.065 0.045,-0.106l0 -2.399c0,-0.041 -0.017,-0.079 -0.044,-0.106 -0.028,-0.027 -0.065,-0.044 -0.106,-0.044z"/>
    <path class="fil1" d="M2.049 1.091c0,-0.028 0.023,-0.05 0.05,-0.05 0.028,0 0.05,0.022 0.05,0.05l0 0.213c0,0.028 -0.022,0.05 -0.05,0.05 -0.027,0 -0.05,-0.022 -0.05,-0.05l0 -0.213z"/>
    <path class="fil1" d="M1.547 1.438c-0.024,-0.014 -0.032,-0.044 -0.018,-0.068 0.014,-0.024 0.044,-0.032 0.068,-0.018l0.185 0.107c0.024,0.013 0.032,0.044 0.018,0.068 -0.014,0.024 -0.044,0.032 -0.068,0.018l-0.185 -0.107z"/>
    <path class="fil1" d="M1.329 1.402c0,-0.027 0.023,-0.05 0.05,-0.05 0.028,0 0.05,0.023 0.05,0.05l0 0.479c0,0.028 -0.022,0.05 -0.05,0.05 -0.027,0 -0.05,-0.022 -0.05,-0.05l0 -0.479z"/>
    <path class="fil1" d="M1.452 2.214c-0.024,-0.014 -0.032,-0.044 -0.018,-0.068 0.013,-0.024 0.044,-0.032 0.067,-0.018l0.415 0.239c0.024,0.014 0.032,0.045 0.019,0.068 -0.014,0.024 -0.044,0.032 -0.068,0.019l-0.415 -0.24z"/>
    <path class="fil1" d="M2.227 2.514c-0.024,0.014 -0.055,0.006 -0.068,-0.018 -0.014,-0.024 -0.006,-0.054 0.018,-0.068l0.415 -0.24c0.024,-0.013 0.054,-0.005 0.068,0.019 0.013,0.024 0.005,0.054 -0.019,0.068l-0.414 0.239z"/>
    <path class="fil1" d="M2.869 1.996c0,0.028 -0.023,0.05 -0.05,0.05 -0.028,0 -0.05,-0.022 -0.05,-0.05l0 -0.479c0,-0.027 0.022,-0.05 0.05,-0.05 0.027,0 0.05,0.023 0.05,0.05l0 0.479z"/>
    <path class="fil1" d="M2.747 1.184c0.023,0.014 0.031,0.045 0.018,0.069 -0.014,0.023 -0.045,0.032 -0.068,0.018l-0.415 -0.24c-0.024,-0.014 -0.032,-0.044 -0.018,-0.068 0.013,-0.024 0.044,-0.032 0.068,-0.018l0.415 0.239z"/>
    <path class="fil1" d="M1.971 0.884c0.024,-0.013 0.055,-0.005 0.069,0.019 0.013,0.023 0.005,0.054 -0.019,0.068l-0.414 0.239c-0.024,0.014 -0.055,0.006 -0.069,-0.018 -0.013,-0.024 -0.005,-0.054 0.019,-0.068l0.414 -0.24z"/>
    <path class="fil1" d="M1.597 2.047c-0.024,0.014 -0.054,0.005 -0.068,-0.018 -0.014,-0.024 -0.006,-0.055 0.018,-0.069l0.185 -0.106c0.024,-0.014 0.054,-0.006 0.068,0.018 0.014,0.024 0.006,0.054 -0.018,0.068l-0.185 0.107z"/>
    <path class="fil1" d="M2.149 2.308c0,0.028 -0.022,0.05 -0.05,0.05 -0.027,0 -0.05,-0.022 -0.05,-0.05l0 -0.214c0,-0.027 0.023,-0.05 0.05,-0.05 0.028,0 0.05,0.023 0.05,0.05l0 0.214z"/>
    <path class="fil1" d="M2.651 1.96c0.024,0.014 0.032,0.045 0.018,0.069 -0.013,0.023 -0.044,0.032 -0.068,0.018l-0.185 -0.107c-0.024,-0.014 -0.032,-0.044 -0.018,-0.068 0.014,-0.024 0.044,-0.032 0.068,-0.018l0.185 0.106z"/>
    <path class="fil1" d="M2.601 1.352c0.024,-0.014 0.055,-0.006 0.068,0.018 0.014,0.024 0.006,0.054 -0.018,0.068l-0.185 0.107c-0.024,0.014 -0.054,0.006 -0.068,-0.018 -0.014,-0.024 -0.006,-0.055 0.018,-0.068l0.185 -0.107z"/>
    <path class="fil1" d="M2.099 1.369c0.091,0 0.174,0.037 0.234,0.097 0.06,0.06 0.097,0.142 0.097,0.233 0,0.091 -0.037,0.174 -0.097,0.234 -0.06,0.06 -0.143,0.097 -0.234,0.097 -0.091,0 -0.174,-0.037 -0.234,-0.097 -0.059,-0.06 -0.097,-0.143 -0.097,-0.234 0,-0.091 0.038,-0.173 0.097,-0.233 0.06,-0.06 0.143,-0.097 0.234,-0.097zm0.163 0.167c-0.041,-0.042 -0.099,-0.067 -0.163,-0.067 -0.064,0 -0.121,0.025 -0.163,0.067 -0.042,0.042 -0.068,0.1 -0.068,0.163 0,0.064 0.026,0.122 0.068,0.164 0.042,0.041 0.099,0.067 0.163,0.067 0.064,0 0.122,-0.026 0.163,-0.068 0.042,-0.041 0.068,-0.099 0.068,-0.163 0,-0.063 -0.026,-0.121 -0.068,-0.163z"/>
    <path class="fil1" d="M1.379 1.115c0.047,0 0.089,0.019 0.119,0.05 0.031,0.03 0.05,0.073 0.05,0.119 0,0.046 -0.019,0.088 -0.049,0.119 -0.031,0.03 -0.073,0.049 -0.12,0.049 -0.046,0 -0.088,-0.019 -0.119,-0.049 -0.03,-0.031 -0.049,-0.073 -0.049,-0.119 0,-0.047 0.019,-0.089 0.049,-0.119 0.031,-0.031 0.073,-0.05 0.119,-0.05zm0.049 0.12c-0.012,-0.012 -0.03,-0.02 -0.049,-0.02 -0.019,0 -0.036,0.008 -0.048,0.02 -0.012,0.013 -0.02,0.03 -0.02,0.049 0,0.019 0.008,0.036 0.02,0.048 0.012,0.013 0.029,0.02 0.048,0.02 0.019,0 0.037,-0.007 0.049,-0.02 0.012,-0.012 0.02,-0.029 0.02,-0.048 0,-0.019 -0.008,-0.036 -0.02,-0.049z"/>
    <path class="fil1" d="M1.379 1.935c0.047,0 0.089,0.019 0.119,0.049 0.031,0.031 0.05,0.073 0.05,0.119 0,0.047 -0.019,0.089 -0.049,0.119 -0.031,0.031 -0.073,0.05 -0.12,0.05 -0.046,0 -0.088,-0.019 -0.119,-0.05 -0.03,-0.03 -0.049,-0.072 -0.049,-0.119 0,-0.046 0.019,-0.088 0.049,-0.119 0.031,-0.03 0.073,-0.049 0.119,-0.049zm0.049 0.12c-0.012,-0.013 -0.03,-0.02 -0.049,-0.02 -0.019,0 -0.036,0.007 -0.048,0.02 -0.012,0.012 -0.02,0.029 -0.02,0.048 0,0.019 0.008,0.036 0.02,0.049 0.012,0.012 0.029,0.02 0.048,0.02 0.019,0 0.037,-0.008 0.049,-0.02 0.012,-0.013 0.02,-0.03 0.02,-0.049 0,-0.019 -0.008,-0.036 -0.02,-0.048z"/>
    <path class="fil1" d="M2.099 2.362c0.046,0 0.089,0.019 0.119,0.049 0.031,0.031 0.05,0.073 0.05,0.119 0,0.047 -0.019,0.089 -0.05,0.119 -0.031,0.031 -0.073,0.05 -0.119,0.05 -0.046,0 -0.088,-0.019 -0.119,-0.049 -0.031,-0.031 -0.049,-0.073 -0.049,-0.12 0,-0.046 0.018,-0.088 0.049,-0.119 0.03,-0.03 0.073,-0.049 0.119,-0.049zm0.049 0.12c-0.013,-0.013 -0.03,-0.02 -0.049,-0.02 -0.019,0 -0.036,0.008 -0.048,0.02 -0.013,0.012 -0.02,0.029 -0.02,0.048 0,0.019 0.007,0.037 0.019,0.049 0.013,0.012 0.03,0.02 0.049,0.02 0.019,0 0.036,-0.008 0.049,-0.02 0.012,-0.012 0.02,-0.03 0.02,-0.049 0,-0.019 -0.008,-0.036 -0.02,-0.048z"/>
    <path class="fil1" d="M2.819 1.946c0.046,0 0.088,0.019 0.119,0.05 0.03,0.03 0.049,0.073 0.049,0.119 0,0.046 -0.019,0.089 -0.049,0.119 -0.031,0.03 -0.073,0.049 -0.119,0.049 -0.046,0 -0.089,-0.019 -0.119,-0.049 -0.031,-0.031 -0.05,-0.073 -0.05,-0.119 0,-0.046 0.019,-0.089 0.05,-0.119 0.03,-0.031 0.072,-0.05 0.119,-0.05zm0.048 0.12c-0.012,-0.012 -0.029,-0.02 -0.048,-0.02 -0.019,0 -0.036,0.008 -0.049,0.02 -0.012,0.013 -0.02,0.03 -0.02,0.049 0,0.019 0.008,0.036 0.02,0.048 0.013,0.013 0.03,0.02 0.049,0.02 0.019,0 0.036,-0.007 0.048,-0.02 0.013,-0.012 0.02,-0.029 0.02,-0.048 0,-0.019 -0.007,-0.036 -0.02,-0.049z"/>
    <path class="fil1" d="M2.819 1.115c0.046,0 0.088,0.019 0.119,0.05 0.03,0.03 0.049,0.072 0.049,0.119 0,0.046 -0.019,0.088 -0.049,0.119 -0.031,0.03 -0.073,0.049 -0.119,0.049 -0.046,0 -0.089,-0.019 -0.119,-0.049 -0.031,-0.031 -0.05,-0.073 -0.05,-0.119 0,-0.046 0.019,-0.089 0.05,-0.119 0.03,-0.031 0.073,-0.05 0.119,-0.05zm0.048 0.12c-0.012,-0.012 -0.029,-0.02 -0.048,-0.02 -0.019,0 -0.036,0.008 -0.049,0.02 -0.012,0.013 -0.02,0.03 -0.02,0.049 0,0.019 0.008,0.036 0.02,0.048 0.013,0.013 0.03,0.02 0.049,0.02 0.019,0 0.036,-0.007 0.048,-0.02 0.013,-0.012 0.02,-0.029 0.02,-0.048 0,-0.019 -0.007,-0.036 -0.02,-0.049z"/>
    <path class="fil1" d="M2.099 0.7c0.046,0 0.089,0.019 0.119,0.049 0.031,0.031 0.05,0.073 0.05,0.119 0,0.047 -0.019,0.089 -0.05,0.119 -0.03,0.031 -0.073,0.05 -0.119,0.05 -0.046,0 -0.089,-0.019 -0.119,-0.05 -0.031,-0.03 -0.049,-0.072 -0.049,-0.119 0,-0.046 0.018,-0.088 0.049,-0.119 0.03,-0.03 0.073,-0.049 0.119,-0.049zm0.049 0.12c-0.013,-0.013 -0.03,-0.02 -0.049,-0.02 -0.019,0 -0.036,0.007 -0.048,0.02 -0.013,0.012 -0.02,0.029 -0.02,0.048 0,0.019 0.007,0.036 0.02,0.049 0.012,0.012 0.029,0.02 0.048,0.02 0.019,0 0.036,-0.008 0.049,-0.02 0.012,-0.013 0.02,-0.03 0.02,-0.049 0,-0.019 -0.008,-0.036 -0.02,-0.048z"/>
   </g>
  </g>
 </g>
</svg>
