<?xml version="1.0" encoding="UTF-8"?>
<!DOCTYPE svg PUBLIC "-//W3C//DTD SVG 1.1//EN" "http://www.w3.org/Graphics/SVG/1.1/DTD/svg11.dtd">
<!-- Creator: CorelDRAW 2018 (64-Bit) -->
<svg xmlns="http://www.w3.org/2000/svg" xml:space="preserve" width="42px" height="32px" version="1.1" style="shape-rendering:geometricPrecision; text-rendering:geometricPrecision; image-rendering:optimizeQuality; fill-rule:evenodd; clip-rule:evenodd"
viewBox="0 0 9.196 7.006"
 xmlns:xlink="http://www.w3.org/1999/xlink">
 <defs>
  <style type="text/css">
   <![CDATA[
    .fil0 {fill:none}
    .fil1 {fill:white;fill-rule:nonzero}
   ]]>
  </style>
 </defs>
 <g id="Layer_x0020_1">
  <metadata id="CorelCorpID_0Corel-Layer"/>
  <g id="_1612416860560">
   <rect class="fil0" width="9.196" height="7.006"/>
   <g>
    <path class="fil1" d="M1.971 0.547l5.254 0c0.151,0 0.288,0.062 0.387,0.161 0.099,0.099 0.161,0.236 0.161,0.387l0 5.255c0,0.15 -0.062,0.287 -0.161,0.386 -0.099,0.099 -0.236,0.161 -0.387,0.161l-5.254 0c-0.151,0 -0.288,-0.062 -0.387,-0.161 -0.099,-0.099 -0.161,-0.236 -0.161,-0.386l0 -5.255c0,-0.151 0.062,-0.287 0.161,-0.386 0.099,-0.1 0.236,-0.162 0.387,-0.162zm5.254 0.219l-5.254 0c-0.091,0 -0.173,0.037 -0.232,0.097 -0.06,0.059 -0.097,0.141 -0.097,0.232l0 5.255c0,0.09 0.037,0.172 0.096,0.232 0.06,0.059 0.142,0.096 0.233,0.096l5.254 0c0.091,0 0.173,-0.037 0.233,-0.096 0.059,-0.06 0.096,-0.142 0.096,-0.232l0 -5.255c0,-0.09 -0.037,-0.173 -0.097,-0.232 -0.059,-0.06 -0.141,-0.097 -0.232,-0.097z"/>
    <path class="fil1" d="M2.737 5.502c0,0.061 -0.049,0.11 -0.11,0.11 -0.06,0 -0.109,-0.049 -0.109,-0.11l0 -2.339c0,-0.06 0.048,-0.108 0.107,-0.109l1.98 -0.198c0.06,-0.006 0.114,0.038 0.119,0.098 0.006,0.06 -0.038,0.114 -0.097,0.119l-1.89 0.189 0 2.24z"/>
    <path class="fil1" d="M4.663 2.866l0.827 0.297c0.044,0.016 0.072,0.058 0.072,0.102l0.001 2.237c0,0.061 -0.049,0.11 -0.11,0.11l-0.837 0c-0.061,0 -0.11,-0.049 -0.11,-0.11l0 -2.537c0,-0.061 0.049,-0.11 0.11,-0.11 0.017,0 0.032,0.004 0.047,0.011zm0.681 0.476l-0.619 -0.222 0 2.273 0.619 0 0 -2.051z"/>
    <path class="fil1" d="M4.421 2.995c0,0.061 -0.049,0.11 -0.109,0.11 -0.061,0 -0.11,-0.049 -0.11,-0.11l0 -0.894c0,-0.06 0.048,-0.109 0.108,-0.11l1.579 -0.157c0.06,-0.006 0.114,0.038 0.12,0.098 0.005,0.06 -0.038,0.113 -0.098,0.119l-1.49 0.148 0 0.796z"/>
    <path class="fil1" d="M5.947 1.843l0.658 0.237c0.045,0.016 0.072,0.058 0.072,0.102l0.001 3.32c0,0.061 -0.049,0.11 -0.11,0.11l-0.668 0c-0.061,0 -0.11,-0.049 -0.11,-0.11l0 -3.56c0,-0.06 0.049,-0.109 0.11,-0.109 0.017,0 0.033,0.004 0.047,0.01zm0.512 0.416l-0.45 -0.162 0 3.296 0.45 0 0 -3.134z"/>
    <path class="fil1" d="M3.074 5.315c-0.06,0 -0.109,-0.05 -0.109,-0.11 0,-0.06 0.049,-0.109 0.109,-0.109l1.095 0c0.06,0 0.109,0.049 0.109,0.109 0,0.06 -0.049,0.11 -0.109,0.11l-1.095 0zm0.008 -1.552c-0.06,0.004 -0.112,-0.041 -0.117,-0.101 -0.004,-0.06 0.041,-0.113 0.101,-0.117l1.095 -0.083c0.06,-0.004 0.113,0.041 0.117,0.101 0.004,0.06 -0.041,0.113 -0.101,0.117l-1.095 0.083zm-0.004 0.775c-0.06,0.003 -0.111,-0.045 -0.113,-0.105 -0.002,-0.06 0.045,-0.111 0.105,-0.113l1.095 -0.041c0.06,-0.002 0.111,0.045 0.113,0.105 0.002,0.06 -0.045,0.111 -0.105,0.113l-1.095 0.041z"/>
   </g>
  </g>
 </g>
</svg>
