<?xml version="1.0" encoding="UTF-8"?>
<!DOCTYPE svg PUBLIC "-//W3C//DTD SVG 1.1//EN" "http://www.w3.org/Graphics/SVG/1.1/DTD/svg11.dtd">
<!-- Creator: CorelDRAW 2018 (64-Bit) -->
<svg xmlns="http://www.w3.org/2000/svg" xml:space="preserve" width="42px" height="32px" version="1.1" style="shape-rendering:geometricPrecision; text-rendering:geometricPrecision; image-rendering:optimizeQuality; fill-rule:evenodd; clip-rule:evenodd"
viewBox="0 0 4.983 3.797"
 xmlns:xlink="http://www.w3.org/1999/xlink">
 <defs>
  <style type="text/css">
   <![CDATA[
    .fil0 {fill:none}
    .fil1 {fill:#00F4FF;fill-rule:nonzero}
   ]]>
  </style>
 </defs>
 <g id="Layer_x0020_1">
  <metadata id="CorelCorpID_0Corel-Layer"/>
  <g id="_1612684492624">
   <rect class="fil0" width="4.983" height="3.797"/>
   <g>
    <path class="fil1" d="M1.068 0.297l2.847 0c0.082,0 0.156,0.033 0.21,0.087 0.053,0.053 0.087,0.128 0.087,0.209l0 2.848c0,0.081 -0.034,0.155 -0.087,0.209 -0.054,0.054 -0.128,0.087 -0.21,0.087l-2.847 0c-0.082,0 -0.156,-0.033 -0.21,-0.087 -0.053,-0.054 -0.087,-0.128 -0.087,-0.209l0 -2.848c0,-0.081 0.034,-0.155 0.087,-0.209 0.054,-0.054 0.128,-0.087 0.21,-0.087zm2.847 0.118l-2.847 0c-0.049,0 -0.094,0.02 -0.126,0.053 -0.032,0.032 -0.052,0.076 -0.052,0.125l0 2.848c0,0.049 0.02,0.093 0.052,0.125 0.032,0.033 0.077,0.053 0.126,0.053l2.847 0c0.049,0 0.094,-0.02 0.126,-0.053 0.032,-0.032 0.052,-0.076 0.052,-0.125l0 -2.848c0,-0.049 -0.02,-0.093 -0.052,-0.125 -0.032,-0.033 -0.077,-0.053 -0.126,-0.053z"/>
    <path class="fil1" d="M1.483 2.981c0,0.033 -0.027,0.06 -0.059,0.06 -0.033,0 -0.06,-0.027 -0.06,-0.06l0 -1.267c0,-0.032 0.026,-0.059 0.058,-0.059l1.073 -0.107c0.033,-0.003 0.062,0.02 0.065,0.053 0.003,0.032 -0.021,0.061 -0.053,0.064l-1.024 0.102 0 1.214z"/>
    <path class="fil1" d="M2.527 1.553l0.448 0.161c0.024,0.008 0.039,0.031 0.039,0.055l0 1.212c0,0.033 -0.026,0.06 -0.059,0.06l-0.454 0c-0.033,0 -0.059,-0.027 -0.059,-0.06l0 -1.374c0,-0.033 0.026,-0.06 0.059,-0.06 0.009,0 0.018,0.002 0.026,0.006zm0.369 0.258l-0.336 -0.12 0 1.231 0.336 0 0 -1.111z"/>
    <path class="fil1" d="M2.396 1.623c0,0.033 -0.027,0.059 -0.06,0.059 -0.032,0 -0.059,-0.026 -0.059,-0.059l0 -0.485c0,-0.032 0.026,-0.058 0.058,-0.059l0.856 -0.085c0.033,-0.004 0.062,0.02 0.065,0.053 0.003,0.032 -0.021,0.061 -0.053,0.064l-0.807 0.081 0 0.431z"/>
    <path class="fil1" d="M3.222 0.999l0.357 0.128c0.024,0.008 0.039,0.031 0.039,0.055l0.001 1.799c0,0.033 -0.027,0.06 -0.06,0.06l-0.362 0c-0.033,0 -0.059,-0.027 -0.059,-0.06l0 -1.929c0,-0.032 0.026,-0.059 0.059,-0.059 0.009,0 0.018,0.002 0.025,0.006zm0.278 0.225l-0.244 -0.088 0 1.786 0.244 0 0 -1.698z"/>
    <path class="fil1" d="M1.666 2.88c-0.033,0 -0.059,-0.027 -0.059,-0.06 0,-0.032 0.026,-0.059 0.059,-0.059l0.593 0c0.033,0 0.059,0.027 0.059,0.059 0,0.033 -0.026,0.06 -0.059,0.06l-0.593 0zm0.004 -0.841c-0.032,0.002 -0.061,-0.022 -0.063,-0.055 -0.003,-0.032 0.022,-0.061 0.054,-0.063l0.594 -0.045c0.032,-0.002 0.061,0.022 0.063,0.055 0.003,0.032 -0.022,0.061 -0.055,0.063l-0.593 0.045zm-0.002 0.42c-0.033,0.001 -0.06,-0.024 -0.061,-0.057 -0.001,-0.032 0.024,-0.06 0.057,-0.061l0.593 -0.022c0.033,-0.001 0.06,0.024 0.061,0.057 0.001,0.032 -0.024,0.06 -0.057,0.061l-0.593 0.022z"/>
   </g>
  </g>
 </g>
</svg>
