<?xml version="1.0" encoding="UTF-8"?>
<!DOCTYPE svg PUBLIC "-//W3C//DTD SVG 1.1//EN" "http://www.w3.org/Graphics/SVG/1.1/DTD/svg11.dtd">
<!-- Creator: CorelDRAW 2018 (64-Bit) -->
<svg xmlns="http://www.w3.org/2000/svg" xml:space="preserve" width="42px" height="32px" version="1.1" style="shape-rendering:geometricPrecision; text-rendering:geometricPrecision; image-rendering:optimizeQuality; fill-rule:evenodd; clip-rule:evenodd"
viewBox="0 0 6.602 5.03"
 xmlns:xlink="http://www.w3.org/1999/xlink">
 <defs>
  <style type="text/css">
   <![CDATA[
    .fil0 {fill:none}
    .fil1 {fill:#00F4FF;fill-rule:nonzero}
   ]]>
  </style>
 </defs>
 <g id="Layer_x0020_1">
  <metadata id="CorelCorpID_0Corel-Layer"/>
  <g id="_1612629248976">
   <rect class="fil0" width="6.602" height="5.03"/>
   <g>
    <path class="fil1" d="M1.415 0.393l3.773 0c0.107,0 0.206,0.044 0.277,0.115 0.071,0.072 0.116,0.17 0.116,0.278l0 3.773c0,0.108 -0.045,0.206 -0.116,0.277 -0.071,0.072 -0.169,0.116 -0.277,0.116l-3.773 0c-0.108,0 -0.207,-0.044 -0.278,-0.116 -0.071,-0.071 -0.115,-0.169 -0.115,-0.277l0 -3.773c0,-0.108 0.044,-0.206 0.115,-0.278 0.072,-0.071 0.17,-0.115 0.278,-0.115zm3.773 0.157l-3.773 0c-0.065,0 -0.124,0.027 -0.167,0.069 -0.042,0.043 -0.069,0.102 -0.069,0.167l0 3.773c0,0.065 0.027,0.124 0.069,0.166 0.043,0.043 0.102,0.07 0.167,0.07l3.773 0c0.064,0 0.123,-0.027 0.166,-0.07 0.043,-0.042 0.069,-0.101 0.069,-0.166l0 -3.773c0,-0.065 -0.026,-0.124 -0.069,-0.167 -0.042,-0.042 -0.102,-0.069 -0.166,-0.069z"/>
    <path class="fil1" d="M3.223 1.715c0,-0.043 0.035,-0.078 0.078,-0.078 0.044,0 0.079,0.035 0.079,0.078l0 0.336c0,0.043 -0.035,0.079 -0.079,0.079 -0.043,0 -0.078,-0.036 -0.078,-0.079l0 -0.336z"/>
    <path class="fil1" d="M2.433 2.262c-0.037,-0.022 -0.05,-0.07 -0.029,-0.107 0.022,-0.038 0.07,-0.051 0.108,-0.029l0.29 0.168c0.038,0.022 0.051,0.07 0.029,0.107 -0.022,0.037 -0.07,0.05 -0.107,0.029l-0.291 -0.168z"/>
    <path class="fil1" d="M2.091 2.205c0,-0.043 0.035,-0.078 0.078,-0.078 0.044,0 0.079,0.035 0.079,0.078l0 0.754c0,0.043 -0.035,0.078 -0.079,0.078 -0.043,0 -0.078,-0.035 -0.078,-0.078l0 -0.754z"/>
    <path class="fil1" d="M2.283 3.482c-0.037,-0.021 -0.05,-0.069 -0.029,-0.107 0.022,-0.037 0.07,-0.05 0.107,-0.029l0.653 0.377c0.037,0.022 0.05,0.069 0.029,0.107 -0.022,0.037 -0.07,0.05 -0.107,0.029l-0.653 -0.377z"/>
    <path class="fil1" d="M3.502 3.954c-0.038,0.021 -0.086,0.009 -0.107,-0.029 -0.022,-0.037 -0.009,-0.085 0.029,-0.107l0.652 -0.376c0.038,-0.022 0.085,-0.009 0.107,0.028 0.021,0.038 0.009,0.086 -0.029,0.107l-0.652 0.377z"/>
    <path class="fil1" d="M4.512 3.139c0,0.044 -0.036,0.079 -0.079,0.079 -0.043,0 -0.079,-0.035 -0.079,-0.079l0 -0.753c0,-0.043 0.036,-0.079 0.079,-0.079 0.043,0 0.079,0.036 0.079,0.079l0 0.753z"/>
    <path class="fil1" d="M4.319 1.863c0.038,0.022 0.051,0.069 0.029,0.107 -0.022,0.037 -0.07,0.05 -0.107,0.028l-0.653 -0.376c-0.037,-0.022 -0.05,-0.07 -0.028,-0.107 0.021,-0.038 0.069,-0.051 0.107,-0.029l0.652 0.377z"/>
    <path class="fil1" d="M3.1 1.391c0.038,-0.022 0.086,-0.009 0.107,0.028 0.022,0.038 0.009,0.086 -0.028,0.108l-0.652 0.376c-0.038,0.022 -0.086,0.009 -0.108,-0.028 -0.021,-0.038 -0.009,-0.086 0.029,-0.107l0.652 -0.377z"/>
    <path class="fil1" d="M2.512 3.219c-0.038,0.022 -0.086,0.009 -0.108,-0.029 -0.021,-0.037 -0.008,-0.085 0.029,-0.107l0.291 -0.168c0.037,-0.021 0.085,-0.009 0.107,0.029 0.022,0.037 0.009,0.085 -0.029,0.107l-0.29 0.168z"/>
    <path class="fil1" d="M3.38 3.63c0,0.043 -0.035,0.078 -0.079,0.078 -0.043,0 -0.078,-0.035 -0.078,-0.078l0 -0.336c0,-0.044 0.035,-0.079 0.078,-0.079 0.044,0 0.079,0.035 0.079,0.079l0 0.336z"/>
    <path class="fil1" d="M4.169 3.083c0.038,0.022 0.051,0.07 0.029,0.107 -0.022,0.038 -0.07,0.051 -0.107,0.029l-0.291 -0.168c-0.037,-0.022 -0.05,-0.07 -0.029,-0.107 0.022,-0.038 0.07,-0.05 0.108,-0.029l0.29 0.168z"/>
    <path class="fil1" d="M4.091 2.126c0.037,-0.022 0.085,-0.009 0.107,0.029 0.022,0.037 0.009,0.085 -0.029,0.107l-0.29 0.168c-0.038,0.021 -0.086,0.008 -0.108,-0.029 -0.021,-0.037 -0.008,-0.085 0.029,-0.107l0.291 -0.168z"/>
    <path class="fil1" d="M3.301 2.152c0.144,0 0.274,0.059 0.368,0.153 0.094,0.094 0.152,0.224 0.152,0.367 0,0.144 -0.058,0.274 -0.152,0.368 -0.094,0.094 -0.224,0.152 -0.368,0.152 -0.143,0 -0.273,-0.058 -0.368,-0.152 -0.094,-0.094 -0.152,-0.224 -0.152,-0.368 0,-0.143 0.058,-0.273 0.152,-0.367 0.095,-0.094 0.225,-0.153 0.368,-0.153zm0.257 0.264c-0.066,-0.066 -0.157,-0.106 -0.257,-0.106 -0.1,0 -0.191,0.04 -0.256,0.106 -0.066,0.065 -0.107,0.156 -0.107,0.256 0,0.101 0.041,0.192 0.106,0.257 0.066,0.066 0.157,0.106 0.257,0.106 0.1,0 0.191,-0.04 0.257,-0.106 0.065,-0.065 0.106,-0.156 0.106,-0.257 0,-0.1 -0.041,-0.191 -0.106,-0.256z"/>
    <path class="fil1" d="M2.169 1.754c0.073,0 0.139,0.03 0.187,0.078 0.049,0.048 0.078,0.114 0.078,0.187 0,0.073 -0.029,0.139 -0.077,0.187 -0.049,0.048 -0.115,0.078 -0.188,0.078 -0.073,0 -0.139,-0.03 -0.187,-0.078 -0.048,-0.048 -0.078,-0.114 -0.078,-0.187 0,-0.073 0.03,-0.139 0.078,-0.187 0.048,-0.048 0.114,-0.078 0.187,-0.078zm0.077 0.189c-0.02,-0.02 -0.047,-0.032 -0.077,-0.032 -0.029,0 -0.057,0.012 -0.076,0.032 -0.019,0.019 -0.032,0.046 -0.032,0.076 0,0.03 0.013,0.057 0.032,0.076 0.019,0.02 0.047,0.032 0.076,0.032 0.03,0 0.057,-0.012 0.077,-0.032 0.019,-0.019 0.031,-0.046 0.031,-0.076 0,-0.03 -0.012,-0.057 -0.031,-0.076z"/>
    <path class="fil1" d="M2.169 3.043c0.073,0 0.139,0.029 0.187,0.077 0.049,0.049 0.078,0.115 0.078,0.188 0,0.072 -0.029,0.139 -0.077,0.187 -0.049,0.048 -0.115,0.078 -0.188,0.078 -0.073,0 -0.139,-0.03 -0.187,-0.078 -0.048,-0.048 -0.078,-0.114 -0.078,-0.187 0,-0.073 0.03,-0.139 0.078,-0.187 0.048,-0.049 0.114,-0.078 0.187,-0.078zm0.077 0.188c-0.02,-0.019 -0.047,-0.031 -0.077,-0.031 -0.029,0 -0.057,0.012 -0.076,0.031 -0.019,0.02 -0.032,0.047 -0.032,0.077 0,0.029 0.013,0.057 0.032,0.076 0.019,0.019 0.047,0.032 0.076,0.032 0.03,0 0.057,-0.012 0.077,-0.032 0.019,-0.019 0.031,-0.046 0.031,-0.076 0,-0.03 -0.012,-0.057 -0.031,-0.077z"/>
    <path class="fil1" d="M3.301 3.714c0.073,0 0.139,0.03 0.187,0.078 0.049,0.048 0.078,0.115 0.078,0.187 0,0.073 -0.029,0.139 -0.077,0.187 -0.049,0.049 -0.115,0.078 -0.188,0.078 -0.073,0 -0.139,-0.029 -0.187,-0.077 -0.048,-0.049 -0.078,-0.115 -0.078,-0.188 0,-0.072 0.03,-0.139 0.078,-0.187 0.048,-0.048 0.114,-0.078 0.187,-0.078zm0.077 0.189c-0.02,-0.019 -0.047,-0.031 -0.077,-0.031 -0.03,0 -0.057,0.012 -0.076,0.031 -0.02,0.019 -0.032,0.047 -0.032,0.076 0,0.03 0.012,0.057 0.032,0.077 0.019,0.019 0.046,0.031 0.076,0.031 0.03,0 0.057,-0.012 0.076,-0.031 0.02,-0.02 0.032,-0.047 0.032,-0.077 0,-0.029 -0.012,-0.057 -0.031,-0.076z"/>
    <path class="fil1" d="M4.433 3.061c0.073,0 0.139,0.03 0.187,0.078 0.048,0.048 0.078,0.114 0.078,0.187 0,0.073 -0.03,0.139 -0.078,0.187 -0.048,0.048 -0.114,0.078 -0.187,0.078 -0.073,0 -0.139,-0.03 -0.187,-0.078 -0.048,-0.048 -0.078,-0.114 -0.078,-0.187 0,-0.073 0.03,-0.139 0.078,-0.187 0.048,-0.048 0.114,-0.078 0.187,-0.078zm0.076 0.188c-0.019,-0.019 -0.046,-0.031 -0.076,-0.031 -0.03,0 -0.057,0.012 -0.076,0.032 -0.02,0.019 -0.032,0.046 -0.032,0.076 0,0.03 0.012,0.057 0.031,0.076 0.02,0.02 0.047,0.032 0.077,0.032 0.03,0 0.057,-0.012 0.076,-0.032 0.02,-0.019 0.032,-0.046 0.032,-0.076 0,-0.03 -0.012,-0.057 -0.032,-0.077z"/>
    <path class="fil1" d="M4.433 1.754c0.073,0 0.139,0.03 0.187,0.078 0.048,0.048 0.078,0.114 0.078,0.187 0,0.073 -0.03,0.139 -0.078,0.187 -0.048,0.048 -0.114,0.078 -0.187,0.078 -0.073,0 -0.139,-0.03 -0.187,-0.078 -0.048,-0.048 -0.078,-0.114 -0.078,-0.187 0,-0.073 0.03,-0.139 0.078,-0.187 0.048,-0.048 0.114,-0.078 0.187,-0.078zm0.076 0.189c-0.019,-0.02 -0.046,-0.032 -0.076,-0.032 -0.03,0 -0.057,0.012 -0.076,0.031 -0.02,0.02 -0.032,0.047 -0.032,0.077 0,0.03 0.012,0.057 0.031,0.076 0.02,0.02 0.047,0.032 0.077,0.032 0.03,0 0.057,-0.012 0.076,-0.032 0.02,-0.019 0.032,-0.046 0.032,-0.076 0,-0.03 -0.012,-0.057 -0.032,-0.076z"/>
    <path class="fil1" d="M3.301 1.1c0.073,0 0.139,0.03 0.187,0.078 0.049,0.048 0.078,0.115 0.078,0.187 0,0.074 -0.029,0.14 -0.077,0.188 -0.049,0.048 -0.115,0.078 -0.188,0.078 -0.073,0 -0.139,-0.03 -0.187,-0.078 -0.048,-0.048 -0.078,-0.114 -0.078,-0.188 0,-0.072 0.03,-0.139 0.078,-0.187 0.048,-0.048 0.114,-0.078 0.187,-0.078zm0.077 0.189c-0.02,-0.019 -0.047,-0.031 -0.077,-0.031 -0.03,0 -0.057,0.012 -0.076,0.031 -0.02,0.019 -0.032,0.047 -0.032,0.076 0,0.03 0.012,0.057 0.032,0.077 0.019,0.019 0.046,0.031 0.076,0.031 0.03,0 0.057,-0.012 0.077,-0.031 0.019,-0.02 0.031,-0.047 0.031,-0.077 0,-0.029 -0.012,-0.057 -0.031,-0.076z"/>
   </g>
  </g>
 </g>
</svg>
