<?xml version="1.0" encoding="UTF-8"?>
<!DOCTYPE svg PUBLIC "-//W3C//DTD SVG 1.1//EN" "http://www.w3.org/Graphics/SVG/1.1/DTD/svg11.dtd">
<!-- Creator: CorelDRAW 2018 (64-Bit) -->
<svg xmlns="http://www.w3.org/2000/svg" xml:space="preserve" width="42px" height="32px" version="1.1" style="shape-rendering:geometricPrecision; text-rendering:geometricPrecision; image-rendering:optimizeQuality; fill-rule:evenodd; clip-rule:evenodd"
viewBox="0 0 1.796 1.368"
 xmlns:xlink="http://www.w3.org/1999/xlink">
 <defs>
  <style type="text/css">
   <![CDATA[
    .fil0 {fill:none}
    .fil1 {fill:#00F4FF;fill-rule:nonzero}
   ]]>
  </style>
 </defs>
 <g id="Layer_x0020_1">
  <metadata id="CorelCorpID_0Corel-Layer"/>
  <g id="_1612414883872">
   <rect class="fil0" width="1.796" height="1.368"/>
   <g>
    <path class="fil1" d="M0.527 0.706c0,-0.012 0.01,-0.021 0.021,-0.021 0.012,0 0.022,0.009 0.022,0.021l0 0.291 0.656 0 0 -0.291c0,-0.012 0.01,-0.021 0.022,-0.021 0.011,0 0.021,0.009 0.021,0.021l0 0.307c0,0.008 -0.003,0.015 -0.009,0.02 -0.005,0.004 -0.011,0.007 -0.018,0.007l-0.688 0c-0.007,0 -0.013,-0.003 -0.018,-0.007 -0.006,-0.005 -0.009,-0.012 -0.009,-0.02l0 -0.307z"/>
    <path class="fil1" d="M0.45 0.614c-0.003,-0.03 0.002,-0.061 0.017,-0.094 0.015,-0.032 0.041,-0.065 0.081,-0.1 0.004,-0.004 0.009,-0.006 0.014,-0.006l0.672 0c0.006,0 0.012,0.003 0.016,0.007 0.039,0.035 0.064,0.068 0.079,0.099 0.015,0.033 0.02,0.065 0.017,0.095 -0.001,0.011 -0.01,0.02 -0.021,0.02l-0.854 0c-0.012,0 -0.021,-0.009 -0.021,-0.021zm0.056 -0.076c-0.009,0.019 -0.013,0.037 -0.014,0.054l0.812 0c-0.001,-0.017 -0.005,-0.035 -0.014,-0.054 -0.012,-0.025 -0.032,-0.052 -0.064,-0.081l-0.656 0c-0.032,0.029 -0.052,0.056 -0.064,0.081z"/>
    <path class="fil1" d="M0.698 0.612c-0.001,-0.028 0.001,-0.057 0.007,-0.087 0.006,-0.031 0.017,-0.064 0.033,-0.098 0.004,-0.008 0.011,-0.013 0.019,-0.013l0.282 0c0.009,0 0.016,0.006 0.019,0.014 0.017,0.034 0.027,0.067 0.033,0.097 0.006,0.031 0.008,0.061 0.007,0.089 -0.001,0.012 -0.01,0.021 -0.022,0.021l-0.357 0c-0.011,0 -0.021,-0.01 -0.021,-0.022l0 -0.001zm0.049 -0.079c-0.004,0.021 -0.006,0.04 -0.006,0.059l0.314 0c0,-0.019 -0.002,-0.038 -0.006,-0.059 -0.005,-0.024 -0.013,-0.049 -0.024,-0.076l-0.254 0c-0.012,0.027 -0.019,0.052 -0.024,0.076z"/>
    <path class="fil1" d="M0.983 0.707c0,-0.012 0.009,-0.021 0.021,-0.021 0.012,0 0.021,0.009 0.021,0.021l0 0.309c0,0.012 -0.009,0.021 -0.021,0.021 -0.012,0 -0.021,-0.009 -0.021,-0.021l0 -0.309z"/>
    <path class="fil1" d="M0.385 0.107l1.026 0c0.029,0 0.056,0.012 0.076,0.031 0.019,0.02 0.031,0.046 0.031,0.076l0 1.026c0,0.029 -0.012,0.056 -0.031,0.075 -0.02,0.02 -0.047,0.032 -0.076,0.032l-1.026 0c-0.03,0 -0.056,-0.012 -0.076,-0.031 -0.019,-0.02 -0.031,-0.047 -0.031,-0.076l0 -1.026c0,-0.03 0.012,-0.056 0.031,-0.076 0.02,-0.019 0.046,-0.031 0.076,-0.031zm1.026 0.043l-1.026 0c-0.018,0 -0.034,0.007 -0.045,0.018 -0.012,0.012 -0.019,0.028 -0.019,0.046l0 1.026c0,0.018 0.007,0.034 0.019,0.045 0.011,0.012 0.027,0.019 0.045,0.019l1.026 0c0.018,0 0.034,-0.007 0.045,-0.019 0.012,-0.011 0.019,-0.027 0.019,-0.045l0 -1.026c0,-0.018 -0.007,-0.034 -0.019,-0.046 -0.011,-0.011 -0.027,-0.018 -0.045,-0.018z"/>
   </g>
  </g>
 </g>
</svg>
