<?xml version="1.0" encoding="UTF-8"?>
<!DOCTYPE svg PUBLIC "-//W3C//DTD SVG 1.1//EN" "http://www.w3.org/Graphics/SVG/1.1/DTD/svg11.dtd">
<!-- Creator: CorelDRAW 2018 (64-Bit) -->
<svg xmlns="http://www.w3.org/2000/svg" xml:space="preserve" width="42px" height="32px" version="1.1" style="shape-rendering:geometricPrecision; text-rendering:geometricPrecision; image-rendering:optimizeQuality; fill-rule:evenodd; clip-rule:evenodd"
viewBox="0 0 1.668 1.271"
 xmlns:xlink="http://www.w3.org/1999/xlink">
 <defs>
  <style type="text/css">
   <![CDATA[
    .fil0 {fill:none}
    .fil1 {fill:white;fill-rule:nonzero}
   ]]>
  </style>
 </defs>
 <g id="Layer_x0020_1">
  <metadata id="CorelCorpID_0Corel-Layer"/>
  <g id="_2814940329888">
   <rect class="fil0" width="1.668" height="1.271"/>
   <g>
    <path class="fil1" d="M0.834 0.099c0.159,0 0.303,0.065 0.407,0.169 0.104,0.104 0.169,0.248 0.169,0.407 0,0.159 -0.065,0.303 -0.169,0.407 -0.104,0.104 -0.248,0.169 -0.407,0.169 -0.159,0 -0.303,-0.065 -0.407,-0.169 -0.104,-0.104 -0.169,-0.248 -0.169,-0.407 0,-0.159 0.065,-0.303 0.169,-0.407 0.104,-0.104 0.248,-0.169 0.407,-0.169zm0.379 0.197c-0.097,-0.097 -0.231,-0.157 -0.379,-0.157 -0.148,0 -0.282,0.06 -0.379,0.157 -0.097,0.097 -0.157,0.231 -0.157,0.379 0,0.148 0.06,0.282 0.157,0.379 0.097,0.097 0.231,0.157 0.379,0.157 0.148,0 0.282,-0.06 0.379,-0.157 0.097,-0.097 0.157,-0.231 0.157,-0.379 0,-0.148 -0.06,-0.282 -0.157,-0.379z"/>
    <path class="fil1" d="M0.968 0.744c0.01,-0.003 0.017,-0.005 0.025,-0.007 0.026,-0.008 0.05,-0.016 0.072,-0.016 0.022,-0.001 0.049,0.007 0.07,0.027 0.016,0.016 0.028,0.038 0.033,0.07l0.017 0.112c0.002,0.012 -0.002,0.022 -0.008,0.03 -0.005,0.007 -0.012,0.012 -0.018,0.016 -0.087,0.06 -0.206,0.09 -0.325,0.09 -0.119,0 -0.238,-0.03 -0.326,-0.09 -0.006,-0.004 -0.012,-0.009 -0.017,-0.016 -0.006,-0.008 -0.01,-0.018 -0.008,-0.03l0.017 -0.112c0.004,-0.032 0.017,-0.054 0.033,-0.07 0.021,-0.02 0.047,-0.028 0.07,-0.027 0.021,0 0.046,0.008 0.072,0.016 0.008,0.002 0.015,0.004 0.025,0.007 0.048,0.014 0.091,0.021 0.134,0.021 0.043,0 0.085,-0.007 0.134,-0.021zm0.036 0.03c-0.009,0.003 -0.018,0.006 -0.025,0.008 -0.052,0.015 -0.099,0.022 -0.145,0.022 -0.047,0 -0.093,-0.007 -0.145,-0.022 -0.007,-0.002 -0.016,-0.005 -0.025,-0.008 -0.024,-0.007 -0.046,-0.014 -0.062,-0.014 -0.013,0 -0.029,0.005 -0.041,0.017 -0.011,0.009 -0.019,0.025 -0.022,0.047l-0.017 0.112c0,0 0,0 0,0 0.002,0.002 0.005,0.005 0.009,0.007 0.08,0.055 0.191,0.083 0.303,0.083 0.111,0 0.222,-0.028 0.303,-0.083 0.003,-0.002 0.007,-0.005 0.008,-0.007 0,0 0.001,0 0.001,0l-0.017 -0.112c-0.003,-0.022 -0.012,-0.038 -0.022,-0.047 -0.012,-0.012 -0.028,-0.017 -0.042,-0.017 -0.015,0 -0.037,0.007 -0.061,0.014z"/>
    <path class="fil1" d="M0.835 0.285c0.058,0 0.111,0.023 0.149,0.061l0 0c0.038,0.039 0.062,0.091 0.062,0.149 0,0.058 -0.024,0.111 -0.062,0.149l0 0c-0.038,0.038 -0.091,0.062 -0.149,0.062 -0.058,0 -0.111,-0.024 -0.149,-0.062l0 0c-0.038,-0.038 -0.062,-0.091 -0.062,-0.149 0,-0.058 0.024,-0.11 0.062,-0.149l0 0c0.038,-0.038 0.091,-0.061 0.149,-0.061zm0.121 0.089c-0.031,-0.031 -0.074,-0.05 -0.121,-0.05 -0.047,0 -0.09,0.019 -0.121,0.05 -0.031,0.031 -0.05,0.074 -0.05,0.121 0,0.048 0.019,0.09 0.05,0.121 0.031,0.031 0.074,0.05 0.121,0.05 0.047,0 0.09,-0.019 0.121,-0.05 0.031,-0.031 0.05,-0.073 0.05,-0.121 0,-0.047 -0.019,-0.09 -0.05,-0.121z"/>
   </g>
  </g>
 </g>
</svg>
