<?xml version="1.0" encoding="UTF-8"?>
<!DOCTYPE svg PUBLIC "-//W3C//DTD SVG 1.1//EN" "http://www.w3.org/Graphics/SVG/1.1/DTD/svg11.dtd">
<!-- Creator: CorelDRAW 2018 (64-Bit) -->
<svg xmlns="http://www.w3.org/2000/svg" xml:space="preserve" width="42px" height="32px" version="1.1" style="shape-rendering:geometricPrecision; text-rendering:geometricPrecision; image-rendering:optimizeQuality; fill-rule:evenodd; clip-rule:evenodd"
viewBox="0 0 1.545 1.177"
 xmlns:xlink="http://www.w3.org/1999/xlink">
 <defs>
  <style type="text/css">
   <![CDATA[
    .fil0 {fill:none}
    .fil1 {fill:white;fill-rule:nonzero}
   ]]>
  </style>
 </defs>
 <g id="Layer_x0020_1">
  <metadata id="CorelCorpID_0Corel-Layer"/>
  <g id="_1612412322352">
   <rect class="fil0" width="1.545" height="1.177"/>
   <g>
    <path class="fil1" d="M0.826 1.01c0.011,0 0.019,0.009 0.019,0.019 0,0.01 -0.008,0.018 -0.019,0.018l-0.415 0c-0.01,0 -0.019,-0.004 -0.026,-0.011 -0.007,-0.007 -0.011,-0.016 -0.011,-0.026l0 -0.917c0,-0.011 0.004,-0.02 0.011,-0.027l0.001 -0.001c0.007,-0.006 0.016,-0.01 0.025,-0.01l0.512 0c0.005,0 0.01,0.002 0.013,0.006l0.216 0.216c0.004,0.003 0.005,0.008 0.005,0.013l0 0.359c0,0.01 -0.008,0.018 -0.018,0.018 -0.01,0 -0.018,-0.008 -0.018,-0.018l0 -0.352 -0.206 -0.205c-0.043,0 -0.504,-0.001 -0.504,0.001l0 0.917 0 0 0 0 0.415 0z"/>
    <path class="fil1" d="M1.139 0.308l-0.198 0c-0.01,0 -0.019,-0.004 -0.026,-0.011 -0.006,-0.006 -0.011,-0.015 -0.011,-0.026l0 -0.197c0,-0.011 0.009,-0.019 0.019,-0.019 0.005,0 0.01,0.002 0.013,0.006l0.216 0.216c0.007,0.007 0.007,0.019 0,0.026 -0.004,0.003 -0.008,0.005 -0.013,0.005zm-0.198 -0.037l0.154 0 -0.154 -0.153 0 0.153z"/>
    <path class="fil1" d="M0.548 0.381c0.01,-0.002 0.022,0.001 0.032,0.004l0.007 0.002c0.011,0.002 0.023,0.004 0.036,0.004 0.012,0 0.024,-0.002 0.035,-0.004l0.007 -0.002c0.01,-0.003 0.023,-0.007 0.033,-0.004 0.007,0.002 0.019,0.009 0.028,0.02 0.006,0.008 0.011,0.017 0.012,0.029l0.005 0.057 0 0.002c0,0.008 -0.003,0.014 -0.008,0.019 -0.005,0.004 -0.011,0.007 -0.017,0.008l-0.189 0 -0.003 -0.001c-0.006,0 -0.012,-0.003 -0.016,-0.007 -0.005,-0.005 -0.008,-0.011 -0.008,-0.019l0.005 -0.059c0.001,-0.011 0.006,-0.021 0.012,-0.029 0.009,-0.011 0.021,-0.018 0.028,-0.02l0.001 0zm0.022 0.039c-0.006,-0.001 -0.013,-0.003 -0.014,-0.003 -0.001,0 -0.005,0.002 -0.008,0.006 -0.002,0.003 -0.004,0.007 -0.004,0.011l-0.004 0.045 0.165 0 -0.004 -0.045c0,-0.004 -0.002,-0.008 -0.004,-0.011 -0.003,-0.004 -0.007,-0.006 -0.008,-0.006 -0.001,0 -0.008,0.001 -0.014,0.003l-0.009 0.002c-0.014,0.004 -0.029,0.005 -0.043,0.005 -0.015,0 -0.03,-0.001 -0.044,-0.005l-0.009 -0.002zm-0.022 -0.039c0.01,-0.002 0.019,0.004 0.021,0.013l-0.021 -0.013z"/>
    <path class="fil1" d="M0.622 0.185c0.024,0 0.046,0.01 0.061,0.026l0.001 0c0.015,0.015 0.025,0.037 0.025,0.061 0,0.024 -0.01,0.046 -0.025,0.061l-0.002 0.001c-0.015,0.015 -0.036,0.025 -0.06,0.025 -0.024,0 -0.045,-0.01 -0.061,-0.026l0 0c-0.016,-0.016 -0.026,-0.037 -0.026,-0.061 0,-0.024 0.01,-0.046 0.026,-0.061 0.016,-0.016 0.037,-0.026 0.061,-0.026zm0.036 0.052c-0.009,-0.01 -0.022,-0.015 -0.036,-0.015 -0.014,0 -0.026,0.005 -0.035,0.015 -0.009,0.009 -0.015,0.021 -0.015,0.035 0,0.014 0.006,0.026 0.015,0.035 0.009,0.009 0.021,0.015 0.035,0.015 0.014,0 0.026,-0.005 0.035,-0.014l0.001 -0.001c0.009,-0.009 0.014,-0.021 0.014,-0.035 0,-0.014 -0.005,-0.026 -0.014,-0.035z"/>
    <path class="fil1" d="M0.52 0.672c-0.01,0 -0.018,-0.008 -0.018,-0.018 0,-0.01 0.008,-0.018 0.018,-0.018l0.205 0c0.01,0 0.018,0.008 0.018,0.018 0,0.01 -0.008,0.018 -0.018,0.018l-0.205 0z"/>
    <path class="fil1" d="M0.811 0.516c-0.01,0 -0.019,-0.008 -0.019,-0.019 0,-0.01 0.009,-0.018 0.019,-0.018l0.2 0c0.01,0 0.018,0.008 0.018,0.018 0,0.011 -0.008,0.019 -0.018,0.019l-0.2 0z"/>
    <path class="fil1" d="M0.52 0.829c-0.01,0 -0.018,-0.008 -0.018,-0.019 0,-0.01 0.008,-0.018 0.018,-0.018l0.205 0c0.01,0 0.018,0.008 0.018,0.018 0,0.011 -0.008,0.019 -0.018,0.019l-0.205 0z"/>
    <path class="fil1" d="M0.926 0.652l0.06 0.02 0.066 -0.019c0.008,-0.002 0.017,0.002 0.021,0.01l0.029 0.057 0.06 0.033c0.007,0.004 0.011,0.013 0.008,0.021l-0.02 0.061 0.019 0.065c0.003,0.009 -0.001,0.018 -0.009,0.022l-0.057 0.029 -0.033 0.059c-0.004,0.008 -0.014,0.012 -0.022,0.009l-0.06 -0.02 -0.066 0.019c-0.008,0.002 -0.017,-0.002 -0.021,-0.01l-0.029 -0.056 -0.06 -0.033c-0.007,-0.005 -0.011,-0.014 -0.008,-0.022l0.02 -0.061 -0.019 -0.065c-0.003,-0.009 0.001,-0.018 0.009,-0.022l0.057 -0.028 0.033 -0.06c0.004,-0.008 0.014,-0.011 0.022,-0.009zm0.054 0.057l-0.051 -0.017 -0.028 0.051c-0.002,0.004 -0.005,0.006 -0.008,0.008l-0.049 0.024 0.016 0.055c0.002,0.004 0.002,0.008 0,0.013l-0.017 0.051 0.052 0.028c0.003,0.002 0.006,0.005 0.007,0.008l0.025 0.048 0.055 -0.016c0.004,-0.001 0.008,-0.001 0.012,0l0.051 0.017 0.029 -0.051c0.001,-0.003 0.004,-0.006 0.007,-0.008l0.049 -0.024 -0.016 -0.055c-0.002,-0.004 -0.002,-0.008 0,-0.012l0.017 -0.052 -0.052 -0.028c-0.003,-0.002 -0.006,-0.004 -0.007,-0.008l-0.025 -0.048 -0.055 0.016c-0.003,0.001 -0.008,0.001 -0.012,0z"/>
    <path class="fil1" d="M1.023 0.997c0,-0.01 0.008,-0.018 0.018,-0.018 0.01,0 0.019,0.008 0.019,0.018l0 0.143c0,0.011 -0.009,0.019 -0.019,0.019 -0.004,0 -0.008,-0.002 -0.011,-0.004l-0.043 -0.028 -0.044 0.029c-0.009,0.005 -0.02,0.003 -0.026,-0.006 -0.002,-0.003 -0.003,-0.006 -0.003,-0.01l0 -0.144c0,-0.01 0.009,-0.018 0.019,-0.018 0.01,0 0.018,0.008 0.018,0.018l0 0.11 0.026 -0.016c0.006,-0.004 0.014,-0.005 0.02,-0.001l0.026 0.017 0 -0.109z"/>
    <path class="fil1" d="M0.987 0.749c0.024,0 0.046,0.01 0.061,0.025l0 0c0.016,0.016 0.026,0.038 0.026,0.062 0,0.024 -0.01,0.045 -0.026,0.061 -0.015,0.016 -0.037,0.025 -0.061,0.025 -0.024,0 -0.046,-0.009 -0.061,-0.025l0 0c-0.016,-0.016 -0.026,-0.037 -0.026,-0.061 0,-0.024 0.01,-0.046 0.026,-0.062 0.015,-0.015 0.037,-0.025 0.061,-0.025zm0.035 0.051c-0.009,-0.009 -0.021,-0.014 -0.035,-0.014 -0.014,0 -0.026,0.005 -0.035,0.014 -0.009,0.009 -0.015,0.022 -0.015,0.036 0,0.014 0.006,0.026 0.015,0.035 0.009,0.009 0.021,0.015 0.035,0.015 0.014,0 0.026,-0.006 0.035,-0.015 0.009,-0.009 0.015,-0.022 0.015,-0.035 0,-0.014 -0.006,-0.027 -0.015,-0.036z"/>
   </g>
  </g>
 </g>
</svg>
