<?xml version="1.0" encoding="UTF-8"?>
<!DOCTYPE svg PUBLIC "-//W3C//DTD SVG 1.1//EN" "http://www.w3.org/Graphics/SVG/1.1/DTD/svg11.dtd">
<!-- Creator: CorelDRAW 2018 (64-Bit) -->
<svg xmlns="http://www.w3.org/2000/svg" xml:space="preserve" width="42px" height="32px" version="1.1" style="shape-rendering:geometricPrecision; text-rendering:geometricPrecision; image-rendering:optimizeQuality; fill-rule:evenodd; clip-rule:evenodd"
viewBox="0 0 1.535 1.17"
 xmlns:xlink="http://www.w3.org/1999/xlink">
 <defs>
  <style type="text/css">
   <![CDATA[
    .fil0 {fill:none}
    .fil1 {fill:white;fill-rule:nonzero}
   ]]>
  </style>
 </defs>
 <g id="Layer_x0020_1">
  <metadata id="CorelCorpID_0Corel-Layer"/>
  <g id="_1612867147296">
   <rect class="fil0" width="1.535" height="1.17"/>
   <path class="fil1" d="M0.45 0.604c0,-0.01 0.009,-0.019 0.019,-0.019 0.01,0 0.018,0.009 0.018,0.019l0 0.248 0.561 0 0 -0.248c0,-0.01 0.008,-0.019 0.018,-0.019 0.011,0 0.019,0.009 0.019,0.019l0 0.262c0,0.007 -0.003,0.013 -0.008,0.017 -0.004,0.003 -0.01,0.006 -0.016,0.006l-0.587 0c-0.006,0 -0.012,-0.003 -0.016,-0.006 -0.005,-0.005 -0.008,-0.01 -0.008,-0.017l0 -0.262z"/>
   <path class="fil1" d="M0.384 0.525c-0.002,-0.026 0.002,-0.052 0.016,-0.08 0.012,-0.028 0.034,-0.056 0.068,-0.086 0.004,-0.003 0.008,-0.005 0.012,-0.005l0.575 0c0.005,0 0.01,0.002 0.013,0.006 0.034,0.03 0.055,0.058 0.068,0.085 0.013,0.028 0.017,0.055 0.015,0.081 -0.001,0.009 -0.009,0.017 -0.018,0.017l-0.73 0c-0.01,0 -0.018,-0.008 -0.019,-0.018zm0.049 -0.065c-0.008,0.016 -0.012,0.031 -0.012,0.046l0.694 0c-0.001,-0.015 -0.005,-0.03 -0.012,-0.046 -0.01,-0.022 -0.028,-0.045 -0.055,-0.069l-0.561 0c-0.027,0.024 -0.044,0.047 -0.054,0.069z"/>
   <path class="fil1" d="M0.597 0.523c-0.001,-0.023 0.001,-0.048 0.006,-0.074 0.005,-0.027 0.014,-0.055 0.028,-0.084 0.003,-0.007 0.01,-0.011 0.016,-0.011l0.241 0c0.008,0 0.014,0.005 0.017,0.012 0.014,0.029 0.022,0.057 0.027,0.083 0.006,0.026 0.007,0.052 0.006,0.076 0,0.01 -0.008,0.018 -0.018,0.018l-0.305 0c-0.01,0 -0.018,-0.009 -0.018,-0.019l0 -0.001zm0.042 -0.067c-0.004,0.017 -0.006,0.034 -0.006,0.05l0.269 0c0,-0.016 -0.002,-0.033 -0.005,-0.05 -0.004,-0.021 -0.011,-0.042 -0.021,-0.065l-0.217 0c-0.01,0.023 -0.016,0.044 -0.02,0.065z"/>
   <path class="fil1" d="M0.84 0.604c0,-0.01 0.008,-0.018 0.018,-0.018 0.01,0 0.018,0.008 0.018,0.018l0 0.264c0,0.01 -0.008,0.019 -0.018,0.019 -0.01,0 -0.018,-0.009 -0.018,-0.019l0 -0.264z"/>
   <path class="fil1" d="M0.329 0.091l0.877 0c0.025,0 0.048,0.011 0.065,0.027 0.016,0.017 0.027,0.04 0.027,0.065l0 0.877c0,0.025 -0.011,0.048 -0.027,0.065 -0.017,0.016 -0.04,0.026 -0.065,0.026l-0.877 0c-0.025,0 -0.048,-0.01 -0.065,-0.026 -0.016,-0.017 -0.026,-0.04 -0.026,-0.065l0 -0.877c0,-0.025 0.01,-0.048 0.026,-0.065 0.017,-0.016 0.04,-0.027 0.065,-0.027zm0.877 0.037l-0.877 0c-0.015,0 -0.029,0.006 -0.039,0.016 -0.01,0.01 -0.016,0.024 -0.016,0.039l0 0.877c0,0.015 0.006,0.029 0.016,0.039 0.01,0.01 0.024,0.016 0.039,0.016l0.877 0c0.015,0 0.029,-0.006 0.039,-0.016 0.01,-0.01 0.016,-0.024 0.016,-0.039l0 -0.877c0,-0.015 -0.006,-0.029 -0.016,-0.039 -0.01,-0.01 -0.024,-0.016 -0.039,-0.016z"/>
  </g>
 </g>
</svg>
