<?xml version="1.0" encoding="UTF-8"?>
<!DOCTYPE svg PUBLIC "-//W3C//DTD SVG 1.1//EN" "http://www.w3.org/Graphics/SVG/1.1/DTD/svg11.dtd">
<!-- Creator: CorelDRAW 2018 (64-Bit) -->
<svg xmlns="http://www.w3.org/2000/svg" xml:space="preserve" width="42px" height="32px" version="1.1" style="shape-rendering:geometricPrecision; text-rendering:geometricPrecision; image-rendering:optimizeQuality; fill-rule:evenodd; clip-rule:evenodd"
viewBox="0 0 1.964 1.496"
 xmlns:xlink="http://www.w3.org/1999/xlink">
 <defs>
  <style type="text/css">
   <![CDATA[
    .fil0 {fill:none}
    .fil1 {fill:white;fill-rule:nonzero}
   ]]>
  </style>
 </defs>
 <g id="Layer_x0020_1">
  <metadata id="CorelCorpID_0Corel-Layer"/>
  <g id="_2815583868976">
   <rect class="fil0" width="1.964" height="1.496"/>
   <g>
    <path class="fil1" d="M0.356 1.426c-0.026,0 -0.05,-0.011 -0.067,-0.028 -0.018,-0.017 -0.028,-0.041 -0.028,-0.067l0 -0.885c0,-0.026 0.01,-0.05 0.027,-0.067 0.018,-0.018 0.041,-0.028 0.068,-0.028l0.456 0c0.026,0 0.05,0.01 0.067,0.028 0.017,0.017 0.028,0.041 0.028,0.067l0 0.012c0,0.011 0.004,0.021 0.012,0.028 0.007,0.008 0.017,0.012 0.028,0.012l0.518 0c0.026,0 0.05,0.011 0.067,0.028 0.017,0.017 0.028,0.041 0.028,0.067l0 0.008 0.058 0c0.024,0 0.045,0.01 0.06,0.025 0.016,0.015 0.025,0.037 0.025,0.06l0 0.655c0,0.024 -0.009,0.045 -0.025,0.06 -0.015,0.016 -0.036,0.025 -0.06,0.025l-1.262 0zm-0.034 -0.061c0.008,0.009 0.021,0.014 0.034,0.014l0.005 0 0.005 0c0.006,-0.002 0.012,-0.004 0.017,-0.008 0.005,-0.003 0.009,-0.007 0.013,-0.013 0.003,-0.004 0.005,-0.008 0.006,-0.013 0.001,-0.004 0.002,-0.009 0.002,-0.014l0 -0.645c0,-0.023 0.01,-0.045 0.025,-0.06 0.015,-0.015 0.037,-0.025 0.06,-0.025l1.024 0 0 -0.008c0,-0.013 -0.006,-0.025 -0.014,-0.034 -0.009,-0.008 -0.021,-0.014 -0.034,-0.014l-0.518 0c-0.024,0 -0.046,-0.01 -0.061,-0.026 -0.016,-0.015 -0.026,-0.037 -0.026,-0.061l0 -0.012c0,-0.014 -0.005,-0.026 -0.014,-0.034 -0.009,-0.009 -0.021,-0.015 -0.034,-0.015l-0.456 0c-0.014,0 -0.026,0.006 -0.034,0.015 -0.009,0.008 -0.015,0.02 -0.015,0.034l0 0.885c0,0.013 0.006,0.025 0.015,0.034zm0.129 -0.197l0 0.163c0,0.01 -0.002,0.019 -0.004,0.028 -0.003,0.007 -0.006,0.014 -0.009,0.02l1.18 0c0.011,0 0.02,-0.004 0.027,-0.011 0.007,-0.007 0.011,-0.016 0.011,-0.027l0 -0.655c0,-0.01 -0.004,-0.02 -0.011,-0.027 -0.007,-0.007 -0.016,-0.011 -0.027,-0.011l-1.129 0c-0.01,0 -0.02,0.004 -0.027,0.011 -0.007,0.007 -0.011,0.017 -0.011,0.027l0 0.482z"/>
    <path class="fil1" d="M1.271 0.987c0.011,0 0.02,0.002 0.027,0.006 0.009,0.005 0.015,0.012 0.018,0.021 0.002,0.008 0.003,0.016 0,0.025 -0.002,0.009 -0.008,0.018 -0.015,0.025l-0.216 0.216c-0.01,0.009 -0.022,0.013 -0.034,0.013 -0.012,0 -0.025,-0.005 -0.035,-0.014l-0.214 -0.215c-0.008,-0.007 -0.013,-0.016 -0.016,-0.025 -0.002,-0.009 -0.002,-0.017 0.001,-0.025 0.003,-0.009 0.009,-0.016 0.017,-0.021 0.008,-0.004 0.017,-0.006 0.028,-0.006l0.1 0 0 -0.203c0,-0.014 0.006,-0.026 0.015,-0.035 0.009,-0.009 0.022,-0.015 0.036,-0.015l0.137 0c0.014,0 0.026,0.006 0.035,0.015 0.009,0.009 0.015,0.021 0.015,0.035l0 0.203 0.101 0zm-0.002 0.046l0.001 -0.001 -0.122 0c-0.013,0 -0.023,-0.011 -0.023,-0.023l0 -0.225c0,-0.001 -0.001,-0.002 -0.002,-0.003 0,-0.001 -0.002,-0.002 -0.003,-0.002l-0.137 0c-0.002,0 -0.003,0.001 -0.004,0.002 -0.001,0.001 -0.002,0.002 -0.002,0.003l0 0.225c0,0.012 -0.01,0.023 -0.022,0.023l-0.123 0 0.216 0.215c0.001,0.001 0.002,0.001 0.003,0.001 0.001,0 0.002,0 0.003,-0.001l0.215 -0.214z"/>
   </g>
  </g>
 </g>
</svg>
