<?xml version="1.0" encoding="UTF-8"?>
<!DOCTYPE svg PUBLIC "-//W3C//DTD SVG 1.1//EN" "http://www.w3.org/Graphics/SVG/1.1/DTD/svg11.dtd">
<!-- Creator: CorelDRAW 2018 (64-Bit) -->
<svg xmlns="http://www.w3.org/2000/svg" xml:space="preserve" width="42px" height="32px" version="1.1" style="shape-rendering:geometricPrecision; text-rendering:geometricPrecision; image-rendering:optimizeQuality; fill-rule:evenodd; clip-rule:evenodd"
viewBox="0 0 2.388 1.819"
 xmlns:xlink="http://www.w3.org/1999/xlink">
 <defs>
  <style type="text/css">
   <![CDATA[
    .fil0 {fill:none}
    .fil1 {fill:#00F4FF;fill-rule:nonzero}
   ]]>
  </style>
 </defs>
 <g id="Layer_x0020_1">
  <metadata id="CorelCorpID_0Corel-Layer"/>
  <g id="_2814940332640">
   <rect class="fil0" width="2.388" height="1.819"/>
   <g>
    <path class="fil1" d="M0.433 1.734c-0.032,0 -0.061,-0.013 -0.082,-0.034 -0.021,-0.021 -0.034,-0.05 -0.034,-0.081l0 -1.077c0,-0.032 0.013,-0.061 0.034,-0.082 0.021,-0.021 0.05,-0.034 0.081,-0.034l0.555 0c0.032,0 0.061,0.013 0.082,0.034 0.02,0.021 0.033,0.05 0.033,0.082l0 0.015c0,0.013 0.006,0.026 0.015,0.034 0.009,0.009 0.021,0.015 0.035,0.015l0.629 0c0.032,0 0.061,0.013 0.082,0.034 0.02,0.021 0.033,0.05 0.033,0.081l0 0.01 0.072 0c0.028,0 0.054,0.012 0.073,0.03 0.018,0.019 0.03,0.045 0.03,0.073l0 0.797c0,0.028 -0.012,0.054 -0.03,0.073 -0.019,0.018 -0.045,0.03 -0.073,0.03l-1.535 0zm-0.042 -0.074c0.011,0.011 0.026,0.017 0.042,0.017l0.006 0 0.006 -0.001c0.007,-0.001 0.014,-0.004 0.02,-0.008 0.006,-0.005 0.012,-0.01 0.016,-0.016 0.004,-0.005 0.006,-0.011 0.008,-0.016 0.002,-0.005 0.002,-0.011 0.002,-0.017l0 -0.785c0,-0.028 0.012,-0.054 0.031,-0.073 0.018,-0.018 0.044,-0.03 0.073,-0.03l1.245 0 0 -0.01c0,-0.016 -0.007,-0.03 -0.018,-0.041 -0.01,-0.011 -0.025,-0.017 -0.041,-0.017l-0.629 0c-0.03,0 -0.056,-0.012 -0.075,-0.031 -0.019,-0.02 -0.031,-0.046 -0.031,-0.075l0 -0.015c0,-0.016 -0.007,-0.031 -0.018,-0.041 -0.01,-0.011 -0.025,-0.018 -0.041,-0.018l-0.555 0c-0.016,0 -0.03,0.007 -0.041,0.018 -0.011,0.01 -0.017,0.025 -0.017,0.041l0 1.077c0,0.016 0.006,0.03 0.017,0.041zm0.157 -0.239l0 0.198c0,0.011 -0.002,0.023 -0.005,0.034 -0.003,0.008 -0.006,0.017 -0.011,0.024l1.436 0c0.012,0 0.024,-0.005 0.032,-0.013 0.009,-0.009 0.014,-0.02 0.014,-0.033l0 -0.797c0,-0.013 -0.005,-0.024 -0.014,-0.033 -0.008,-0.008 -0.019,-0.013 -0.032,-0.013l-1.373 0c-0.013,0 -0.025,0.005 -0.033,0.013 -0.008,0.009 -0.014,0.02 -0.014,0.033l0 0.587z"/>
    <path class="fil1" d="M1.545 1.2c0.013,0 0.024,0.003 0.033,0.007 0.011,0.006 0.018,0.015 0.022,0.026 0.003,0.009 0.003,0.02 0,0.03 -0.003,0.011 -0.009,0.022 -0.018,0.031l-0.263 0.263c-0.012,0.01 -0.026,0.016 -0.041,0.016 -0.015,0 -0.031,-0.006 -0.043,-0.018l-0.26 -0.261c-0.01,-0.009 -0.016,-0.02 -0.019,-0.031 -0.003,-0.01 -0.003,-0.021 0,-0.03 0.004,-0.011 0.011,-0.02 0.022,-0.026 0.009,-0.004 0.02,-0.007 0.033,-0.007l0.123 0 0 -0.246c0,-0.017 0.007,-0.032 0.018,-0.044 0.011,-0.011 0.026,-0.017 0.043,-0.017l0.166 0c0.017,0 0.033,0.006 0.044,0.017 0.011,0.012 0.018,0.027 0.018,0.044l0 0.246 0.122 0zm-0.002 0.055l0.001 -0.001 -0.149 0c-0.015,0 -0.027,-0.012 -0.027,-0.027l0 -0.273c0,-0.002 -0.001,-0.004 -0.002,-0.005 -0.001,-0.001 -0.003,-0.002 -0.005,-0.002l-0.166 0c-0.002,0 -0.004,0.001 -0.005,0.002 -0.001,0.001 -0.002,0.003 -0.002,0.005l0 0.273c0,0.015 -0.012,0.027 -0.027,0.027l-0.149 0 0.262 0.262c0.001,0.001 0.003,0.002 0.004,0.002 0.001,0 0.003,0 0.004,-0.001l0.261 -0.262z"/>
   </g>
  </g>
 </g>
</svg>
