<?xml version="1.0" encoding="UTF-8"?>
<!DOCTYPE svg PUBLIC "-//W3C//DTD SVG 1.1//EN" "http://www.w3.org/Graphics/SVG/1.1/DTD/svg11.dtd">
<!-- Creator: CorelDRAW 2018 (64-Bit) -->
<svg xmlns="http://www.w3.org/2000/svg" xml:space="preserve" width="42px" height="32px" version="1.1" style="shape-rendering:geometricPrecision; text-rendering:geometricPrecision; image-rendering:optimizeQuality; fill-rule:evenodd; clip-rule:evenodd"
viewBox="0 0 1.668 1.271"
 xmlns:xlink="http://www.w3.org/1999/xlink">
 <defs>
  <style type="text/css">
   <![CDATA[
    .fil0 {fill:none}
    .fil1 {fill:gray;fill-rule:nonzero}
   ]]>
  </style>
 </defs>
 <g id="Layer_x0020_1">
  <metadata id="CorelCorpID_0Corel-Layer"/>
  <g id="_2815583859632">
   <rect class="fil0" width="1.668" height="1.271"/>
   <g>
    <path class="fil1" d="M0.302 1.211c-0.022,0 -0.042,-0.009 -0.057,-0.024 -0.014,-0.014 -0.024,-0.034 -0.024,-0.057l0 -0.752c0,-0.022 0.009,-0.042 0.024,-0.056 0.015,-0.015 0.035,-0.024 0.057,-0.024l0.387 0c0.023,0 0.043,0.009 0.057,0.024 0.015,0.014 0.024,0.034 0.024,0.056l0 0.011c0,0.009 0.004,0.018 0.01,0.024 0.006,0.006 0.015,0.01 0.024,0.01l0.44 0c0.022,0 0.042,0.009 0.057,0.024 0.014,0.014 0.023,0.035 0.023,0.057l0 0.007 0.05 0c0.02,0 0.038,0.008 0.051,0.021 0.013,0.013 0.021,0.031 0.021,0.051l0 0.556c0,0.02 -0.008,0.038 -0.021,0.051 -0.013,0.013 -0.031,0.021 -0.051,0.021l-1.072 0zm-0.029 -0.052c0.008,0.008 0.018,0.012 0.029,0.012l0.004 0 0.005 0c0.005,-0.001 0.01,-0.004 0.014,-0.006 0.004,-0.003 0.008,-0.007 0.011,-0.012 0.002,-0.003 0.004,-0.007 0.005,-0.01 0.002,-0.004 0.002,-0.008 0.002,-0.013l0 -0.547c0,-0.02 0.008,-0.038 0.021,-0.051 0.013,-0.013 0.031,-0.021 0.051,-0.021l0.87 0 0 -0.007c0,-0.011 -0.005,-0.022 -0.012,-0.029 -0.008,-0.008 -0.018,-0.012 -0.029,-0.012l-0.44 0c-0.02,0 -0.039,-0.008 -0.052,-0.022 -0.013,-0.013 -0.022,-0.032 -0.022,-0.052l0 -0.011c0,-0.011 -0.004,-0.021 -0.012,-0.028 -0.007,-0.008 -0.017,-0.012 -0.029,-0.012l-0.387 0c-0.011,0 -0.022,0.004 -0.029,0.012 -0.007,0.007 -0.012,0.017 -0.012,0.028l0 0.752c0,0.012 0.005,0.022 0.012,0.029zm0.11 -0.167l0 0.138c0,0.009 -0.001,0.017 -0.004,0.024 -0.002,0.006 -0.004,0.012 -0.007,0.017l1.002 0c0.009,0 0.017,-0.003 0.023,-0.009 0.006,-0.006 0.01,-0.014 0.01,-0.023l0 -0.556c0,-0.009 -0.004,-0.017 -0.01,-0.023 -0.006,-0.006 -0.014,-0.01 -0.023,-0.01l-0.959 0c-0.009,0 -0.017,0.004 -0.023,0.01 -0.005,0.006 -0.009,0.014 -0.009,0.023l0 0.409z"/>
    <path class="fil1" d="M1.079 0.838c0.009,0 0.017,0.002 0.023,0.005 0.008,0.005 0.013,0.011 0.015,0.018 0.003,0.007 0.003,0.014 0.001,0.021 -0.002,0.008 -0.007,0.015 -0.013,0.022l-0.184 0.183c-0.008,0.008 -0.018,0.011 -0.028,0.011 -0.011,0 -0.022,-0.004 -0.03,-0.012l-0.182 -0.182c-0.007,-0.007 -0.011,-0.014 -0.013,-0.022 -0.002,-0.007 -0.002,-0.014 0,-0.021 0.003,-0.007 0.008,-0.014 0.015,-0.018 0.006,-0.003 0.014,-0.005 0.023,-0.005l0.086 0 0 -0.172c0,-0.012 0.005,-0.022 0.012,-0.03 0.008,-0.008 0.019,-0.013 0.03,-0.013l0.117 0c0.012,0 0.022,0.005 0.03,0.013 0.008,0.008 0.013,0.018 0.013,0.03l0 0.172 0.085 0zm-0.001 0.039l0.001 -0.001 -0.105 0c-0.01,0 -0.019,-0.009 -0.019,-0.019l0 -0.191c0,-0.001 0,-0.002 -0.001,-0.003 -0.001,-0.001 -0.002,-0.002 -0.003,-0.002l-0.117 0c-0.001,0 -0.002,0.001 -0.003,0.002 -0.001,0.001 -0.001,0.002 -0.001,0.003l0 0.191c0,0.01 -0.009,0.019 -0.019,0.019l-0.104 0 0.183 0.183c0.001,0.001 0.002,0.001 0.003,0.001 0.001,0 0.001,0 0.002,-0.001l0.183 -0.182z"/>
   </g>
  </g>
 </g>
</svg>
