<?xml version="1.0" encoding="UTF-8"?>
<!DOCTYPE svg PUBLIC "-//W3C//DTD SVG 1.1//EN" "http://www.w3.org/Graphics/SVG/1.1/DTD/svg11.dtd">
<!-- Creator: CorelDRAW 2018 (64-Bit) -->
<svg xmlns="http://www.w3.org/2000/svg" xml:space="preserve" width="73px" height="42px" version="1.1" style="shape-rendering:geometricPrecision; text-rendering:geometricPrecision; image-rendering:optimizeQuality; fill-rule:evenodd; clip-rule:evenodd"
viewBox="0 0 3.391 1.959"
 xmlns:xlink="http://www.w3.org/1999/xlink">
 <defs>
  <style type="text/css">
   <![CDATA[
    .fil0 {fill:none}
    .fil3 {fill:#00F4FF}
    .fil2 {fill:#EAEDF2}
    .fil1 {fill:gray;fill-rule:nonzero}
   ]]>
  </style>
 </defs>
 <g id="Layer_x0020_1">
  <metadata id="CorelCorpID_0Corel-Layer"/>
  <g id="_1612307751936">
   <rect class="fil0" width="3.391" height="1.959"/>
   <g>
    <path class="fil1" d="M1.609 0.419c-0.035,0 -0.063,-0.019 -0.1,-0.045 -0.063,-0.043 -0.155,-0.106 -0.347,-0.106 -0.128,0 -0.253,0.103 -0.352,0.251 -0.108,0.164 -0.182,0.382 -0.191,0.584 -0.009,0.196 -0.002,0.347 0.029,0.447 0.029,0.093 0.08,0.141 0.159,0.141 0.089,0 0.196,-0.109 0.294,-0.209 0.088,-0.09 0.168,-0.172 0.236,-0.172l0.717 0c0.067,0 0.148,0.082 0.236,0.172 0.097,0.1 0.204,0.209 0.294,0.209 0.079,0 0.129,-0.048 0.158,-0.141 0.032,-0.1 0.039,-0.251 0.03,-0.447 -0.009,-0.202 -0.084,-0.42 -0.192,-0.584 -0.098,-0.148 -0.223,-0.251 -0.351,-0.251 -0.192,0 -0.284,0.063 -0.347,0.106 -0.037,0.026 -0.065,0.045 -0.1,0.045l-0.173 0zm-0.074 -0.083c0.03,0.021 0.053,0.037 0.074,0.037l0.173 0c0.02,0 0.043,-0.016 0.074,-0.037 0.067,-0.046 0.167,-0.114 0.373,-0.114 0.145,0 0.284,0.11 0.39,0.272 0.112,0.169 0.19,0.396 0.199,0.607 0.01,0.202 0.002,0.357 -0.031,0.463 -0.036,0.114 -0.101,0.173 -0.203,0.173 -0.109,0 -0.223,-0.116 -0.327,-0.222 -0.081,-0.083 -0.155,-0.159 -0.203,-0.159l-0.717 0c-0.048,0 -0.122,0.076 -0.203,0.159 -0.104,0.106 -0.218,0.222 -0.327,0.222 -0.103,0 -0.167,-0.059 -0.203,-0.173 -0.033,-0.106 -0.041,-0.261 -0.032,-0.463 0.01,-0.211 0.087,-0.438 0.199,-0.607 0.107,-0.162 0.246,-0.272 0.391,-0.272 0.206,0 0.305,0.068 0.373,0.114z"/>
    <path class="fil2" d="M2.009 0.587c0.049,0 0.089,0.04 0.089,0.089 0,0.049 -0.04,0.089 -0.089,0.089 -0.049,0 -0.089,-0.04 -0.089,-0.089 0,-0.049 0.04,-0.089 0.089,-0.089z"/>
    <path class="fil1" d="M2.009 0.564c0.031,0 0.059,0.012 0.079,0.032l0.001 0.001c0.02,0.02 0.032,0.048 0.032,0.079 0,0.031 -0.012,0.059 -0.033,0.079 -0.02,0.021 -0.048,0.033 -0.079,0.033 -0.031,0 -0.059,-0.012 -0.079,-0.033l0 0c-0.021,-0.02 -0.033,-0.048 -0.033,-0.079 0,-0.031 0.012,-0.059 0.033,-0.08l0.001 -0.001c0.02,-0.019 0.048,-0.031 0.078,-0.031zm0.047 0.065c-0.012,-0.012 -0.029,-0.019 -0.047,-0.019 -0.018,0 -0.034,0.007 -0.045,0.018l-0.001 0.001c-0.012,0.012 -0.02,0.029 -0.02,0.047 0,0.018 0.008,0.034 0.02,0.046 0.011,0.012 0.028,0.02 0.046,0.02 0.018,0 0.035,-0.008 0.047,-0.02 0.011,-0.012 0.019,-0.028 0.019,-0.046 0,-0.018 -0.008,-0.035 -0.019,-0.047z"/>
    <path class="fil2" d="M2.009 0.908c0.049,0 0.089,0.04 0.089,0.089 0,0.05 -0.04,0.089 -0.089,0.089 -0.049,0 -0.089,-0.039 -0.089,-0.089 0,-0.049 0.04,-0.089 0.089,-0.089z"/>
    <path class="fil1" d="M2.009 0.885c0.031,0 0.059,0.013 0.079,0.033 0.021,0.02 0.033,0.048 0.033,0.079 0,0.031 -0.012,0.059 -0.033,0.08l0 0c-0.02,0.02 -0.048,0.033 -0.079,0.033 -0.031,0 -0.059,-0.013 -0.079,-0.033 -0.021,-0.021 -0.033,-0.049 -0.033,-0.08 0,-0.031 0.012,-0.059 0.033,-0.079l0 0c0.02,-0.02 0.048,-0.033 0.079,-0.033zm0.047 0.066c-0.012,-0.012 -0.029,-0.019 -0.047,-0.019 -0.018,0 -0.035,0.007 -0.046,0.019 -0.012,0.012 -0.02,0.028 -0.02,0.046 0,0.019 0.008,0.035 0.02,0.047 0.011,0.012 0.028,0.019 0.046,0.019 0.018,0 0.035,-0.007 0.047,-0.019 0.011,-0.012 0.019,-0.028 0.019,-0.047 0,-0.018 -0.008,-0.034 -0.019,-0.046z"/>
    <path class="fil2" d="M2.34 0.587c0.049,0 0.089,0.04 0.089,0.089 0,0.049 -0.04,0.089 -0.089,0.089 -0.049,0 -0.089,-0.04 -0.089,-0.089 0,-0.049 0.04,-0.089 0.089,-0.089z"/>
    <path class="fil1" d="M2.34 0.564c0.031,0 0.059,0.012 0.08,0.032l0 0.001c0.02,0.02 0.033,0.048 0.033,0.079 0,0.031 -0.013,0.059 -0.033,0.079 -0.021,0.021 -0.049,0.033 -0.08,0.033 -0.031,0 -0.059,-0.012 -0.079,-0.033l0 0c-0.021,-0.02 -0.033,-0.048 -0.033,-0.079 0,-0.031 0.013,-0.059 0.033,-0.08l0.001 -0.001c0.021,-0.019 0.048,-0.031 0.078,-0.031zm0.047 0.065c-0.012,-0.012 -0.029,-0.019 -0.047,-0.019 -0.017,0 -0.033,0.007 -0.045,0.018l-0.001 0.001c-0.012,0.012 -0.019,0.029 -0.019,0.047 0,0.018 0.007,0.034 0.019,0.046 0.012,0.012 0.028,0.02 0.046,0.02 0.018,0 0.035,-0.008 0.047,-0.02 0.012,-0.012 0.019,-0.028 0.019,-0.046 0,-0.018 -0.007,-0.035 -0.019,-0.047z"/>
    <path class="fil2" d="M2.34 0.908c0.049,0 0.089,0.04 0.089,0.089 0,0.05 -0.04,0.089 -0.089,0.089 -0.049,0 -0.089,-0.039 -0.089,-0.089 0,-0.049 0.04,-0.089 0.089,-0.089z"/>
    <path class="fil1" d="M2.34 0.885c0.031,0 0.059,0.013 0.08,0.033 0.02,0.02 0.033,0.048 0.033,0.079 0,0.031 -0.013,0.059 -0.033,0.08l0 0c-0.021,0.02 -0.049,0.033 -0.08,0.033 -0.031,0 -0.059,-0.013 -0.079,-0.033 -0.02,-0.021 -0.033,-0.049 -0.033,-0.08 0,-0.031 0.013,-0.059 0.033,-0.079l0 0c0.02,-0.02 0.048,-0.033 0.079,-0.033zm0.047 0.066c-0.012,-0.012 -0.029,-0.019 -0.047,-0.019 -0.018,0 -0.034,0.007 -0.046,0.019 -0.012,0.012 -0.019,0.028 -0.019,0.046 0,0.019 0.007,0.035 0.019,0.047 0.012,0.012 0.028,0.019 0.046,0.019 0.018,0 0.035,-0.007 0.047,-0.019 0.012,-0.012 0.019,-0.028 0.019,-0.047 0,-0.018 -0.007,-0.034 -0.019,-0.046z"/>
    <path class="fil3" d="M1.149 0.554l0.117 0c0.009,0 0.017,0.008 0.017,0.017l0 0.191 0.19 0c0.009,0 0.017,0.007 0.017,0.016l0 0.117c0,0.009 -0.008,0.017 -0.017,0.017l-0.19 0 0 0.19c0,0.009 -0.008,0.017 -0.017,0.017l-0.117 0c-0.009,0 -0.017,-0.008 -0.017,-0.017l0 -0.19 -0.19 0c-0.009,0 -0.017,-0.008 -0.017,-0.017l0 -0.117c0,-0.009 0.008,-0.016 0.017,-0.016l0.19 0 0 -0.191c0,-0.009 0.008,-0.017 0.017,-0.017z"/>
    <path class="fil1" d="M1.149 0.531l0.117 0c0.011,0 0.021,0.005 0.028,0.012 0.008,0.007 0.012,0.017 0.012,0.028l0 0.167 0.167 0c0.011,0 0.021,0.005 0.028,0.012 0.008,0.007 0.012,0.017 0.012,0.028l0 0.117c0,0.011 -0.004,0.021 -0.012,0.028 -0.007,0.008 -0.017,0.012 -0.028,0.012l-0.167 0 0 0.167c0,0.011 -0.005,0.021 -0.012,0.028 -0.007,0.008 -0.017,0.012 -0.028,0.012l-0.117 0c-0.011,0 -0.021,-0.004 -0.028,-0.012l-0.002 -0.002c-0.006,-0.007 -0.01,-0.016 -0.01,-0.026l0 -0.167 -0.167 0c-0.011,0 -0.021,-0.004 -0.028,-0.012 -0.007,-0.007 -0.012,-0.017 -0.012,-0.028l0 -0.117c0,-0.011 0.005,-0.021 0.012,-0.028 0.007,-0.007 0.017,-0.012 0.028,-0.012l0.167 0 0 -0.167c0,-0.011 0.005,-0.021 0.012,-0.028 0.007,-0.007 0.017,-0.012 0.028,-0.012zm0.11 0.047l-0.103 0 0 0.184c0,0.012 -0.011,0.023 -0.024,0.023l-0.183 0 0 0.103 0.183 0c0.013,0 0.024,0.011 0.024,0.024l0 0.183 0.103 0 0 -0.183c0,-0.013 0.011,-0.024 0.024,-0.024l0.183 0 0 -0.103 -0.183 0c-0.013,0 -0.024,-0.011 -0.024,-0.023l0 -0.184z"/>
   </g>
  </g>
 </g>
</svg>
