<?xml version="1.0" encoding="UTF-8"?>
<!DOCTYPE svg PUBLIC "-//W3C//DTD SVG 1.1//EN" "http://www.w3.org/Graphics/SVG/1.1/DTD/svg11.dtd">
<!-- Creator: CorelDRAW 2018 (64-Bit) -->
<svg xmlns="http://www.w3.org/2000/svg" xml:space="preserve" width="73px" height="42px" version="1.1" style="shape-rendering:geometricPrecision; text-rendering:geometricPrecision; image-rendering:optimizeQuality; fill-rule:evenodd; clip-rule:evenodd"
viewBox="0 0 8.751 5.056"
 xmlns:xlink="http://www.w3.org/1999/xlink">
 <defs>
  <style type="text/css">
   <![CDATA[
    .fil0 {fill:none}
    .fil4 {fill:#00F4FF}
    .fil3 {fill:#EAEDF2}
    .fil1 {fill:white}
    .fil2 {fill:gray;fill-rule:nonzero}
   ]]>
  </style>
 </defs>
 <g id="Layer_x0020_1">
  <metadata id="CorelCorpID_0Corel-Layer"/>
  <g id="_1612868836704">
   <rect class="fil0" width="8.751" height="5.056"/>
   <g>
    <path class="fil1" d="M2.493 0.217c0,-0.053 0.043,-0.097 0.096,-0.097l2.579 0 1.09 1.09 0 3.629c0,0.053 -0.044,0.097 -0.096,0.097l-3.573 0c-0.052,0 -0.096,-0.044 -0.096,-0.097 0,-1.54 0,-3.081 0,-4.622z"/>
    <path class="fil2" d="M2.433 0.217c0,-0.043 0.018,-0.082 0.046,-0.111l0 0c0.029,-0.028 0.068,-0.046 0.11,-0.046l2.579 0c0.017,0 0.032,0.007 0.043,0.019l1.089 1.089c0.012,0.012 0.018,0.027 0.018,0.042l0 3.629c0,0.043 -0.018,0.083 -0.046,0.111l-0.004 0.004c-0.028,0.026 -0.066,0.042 -0.106,0.042l-3.573 0c-0.043,0 -0.082,-0.018 -0.11,-0.046 -0.028,-0.028 -0.046,-0.068 -0.046,-0.111l0 -4.622zm0.131 -0.026c-0.007,0.007 -0.011,0.016 -0.011,0.026l0 4.622c0,0.01 0.004,0.019 0.011,0.026 0.007,0.007 0.016,0.011 0.025,0.011l3.573 0c0.008,0 0.017,-0.004 0.023,-0.009l0.002 -0.002c0.006,-0.007 0.011,-0.016 0.011,-0.026l0 -3.604 -1.055 -1.054 -2.554 0c-0.01,0 -0.019,0.004 -0.025,0.01z"/>
    <path class="fil3" d="M6.258 1.21l-0.997 0c-0.051,0 -0.093,-0.041 -0.093,-0.092l0 -0.998 1.09 1.09z"/>
    <path class="fil2" d="M6.258 1.271l-0.997 0c-0.042,0 -0.081,-0.018 -0.108,-0.045 -0.028,-0.028 -0.045,-0.066 -0.045,-0.108l0 -0.998c0,-0.033 0.027,-0.06 0.06,-0.06 0.017,0 0.032,0.007 0.043,0.019l1.089 1.089c0.024,0.023 0.024,0.062 0,0.085 -0.011,0.012 -0.027,0.018 -0.042,0.018zm-0.997 -0.121l0.852 0 -0.885 -0.884 0 0.852c0,0.008 0.004,0.017 0.01,0.023 0.006,0.006 0.014,0.009 0.023,0.009z"/>
    <path class="fil4" d="M3.296 1.563c0.037,-0.01 0.111,0.018 0.16,0.029 0.123,0.03 0.273,0.03 0.396,0 0.049,-0.011 0.123,-0.039 0.16,-0.029 0.038,0.01 0.123,0.071 0.131,0.167l0.025 0.285c0.002,0.024 -0.02,0.045 -0.044,0.045l-0.94 0c-0.024,0 -0.046,-0.021 -0.044,-0.045l0.025 -0.285c0.008,-0.096 0.093,-0.157 0.131,-0.167z"/>
    <path class="fil2" d="M3.281 1.505c0.044,-0.012 0.101,0.004 0.151,0.019l0.037 0.01c0.057,0.013 0.121,0.02 0.185,0.02 0.064,0 0.128,-0.007 0.184,-0.02l0.038 -0.01c0.05,-0.015 0.107,-0.031 0.151,-0.019 0.031,0.008 0.084,0.039 0.123,0.088 0.027,0.034 0.049,0.079 0.053,0.131l0.025 0.286 0 0.008c0,0.028 -0.011,0.053 -0.03,0.071l0 0.001c-0.018,0.016 -0.041,0.027 -0.065,0.029 -0.311,0.009 -0.636,0.001 -0.949,0.001l-0.009 -0.001c-0.024,-0.002 -0.048,-0.013 -0.065,-0.03 -0.019,-0.018 -0.031,-0.043 -0.031,-0.071 0.007,-0.097 0.017,-0.196 0.026,-0.294 0.004,-0.052 0.026,-0.097 0.053,-0.131 0.038,-0.049 0.092,-0.08 0.123,-0.088zm0.119 0.134c-0.036,-0.01 -0.077,-0.021 -0.089,-0.018 -0.013,0.003 -0.037,0.019 -0.058,0.046 -0.015,0.018 -0.026,0.041 -0.028,0.068l-0.023 0.264 0.904 0 -0.023 -0.264c-0.002,-0.027 -0.013,-0.05 -0.028,-0.068 -0.021,-0.027 -0.045,-0.043 -0.058,-0.046 -0.012,-0.003 -0.053,0.008 -0.089,0.018 -0.013,0.004 -0.025,0.007 -0.042,0.012 -0.067,0.016 -0.14,0.024 -0.212,0.024 -0.072,0 -0.145,-0.008 -0.212,-0.024 -0.017,-0.004 -0.03,-0.008 -0.042,-0.012z"/>
    <path class="fil4" d="M3.652 0.775c0.191,0 0.345,0.155 0.345,0.345 0,0.191 -0.154,0.345 -0.345,0.345 -0.19,0 -0.345,-0.154 -0.345,-0.345 0,-0.19 0.155,-0.345 0.345,-0.345z"/>
    <path class="fil2" d="M3.652 0.715c0.112,0 0.213,0.046 0.287,0.119 0.073,0.073 0.118,0.174 0.118,0.286 0,0.112 -0.045,0.213 -0.118,0.287 -0.074,0.073 -0.175,0.118 -0.287,0.118 -0.112,0 -0.213,-0.045 -0.286,-0.118 -0.073,-0.074 -0.119,-0.175 -0.119,-0.287 0,-0.112 0.046,-0.213 0.119,-0.286 0.073,-0.073 0.174,-0.119 0.286,-0.119zm0.202 0.204c-0.052,-0.051 -0.123,-0.083 -0.202,-0.083 -0.078,0 -0.15,0.032 -0.201,0.083 -0.052,0.051 -0.083,0.123 -0.083,0.201 0,0.079 0.031,0.15 0.083,0.202 0.051,0.051 0.123,0.083 0.201,0.083 0.079,0 0.15,-0.032 0.202,-0.083 0.051,-0.052 0.083,-0.123 0.083,-0.202 0,-0.078 -0.032,-0.15 -0.083,-0.201z"/>
    <path class="fil2" d="M4.645 2.12c-0.033,0 -0.06,-0.027 -0.06,-0.061 0,-0.033 0.027,-0.06 0.06,-0.06l0.966 0c0.034,0 0.061,0.027 0.061,0.06 0,0.034 -0.027,0.061 -0.061,0.061l-0.966 0z"/>
    <path class="fil2" d="M3.14 2.747c-0.034,0 -0.061,-0.027 -0.061,-0.06 0,-0.033 0.027,-0.06 0.061,-0.06l2.471 0c0.034,0 0.061,0.027 0.061,0.06 0,0.033 -0.027,0.06 -0.061,0.06l-2.471 0z"/>
    <path class="fil2" d="M3.14 3.375c-0.034,0 -0.061,-0.027 -0.061,-0.06 0,-0.033 0.027,-0.06 0.061,-0.06l2.471 0c0.034,0 0.061,0.027 0.061,0.06 0,0.033 -0.027,0.06 -0.061,0.06l-2.471 0z"/>
    <path class="fil2" d="M3.14 4.003c-0.034,0 -0.061,-0.027 -0.061,-0.06 0,-0.034 0.027,-0.06 0.061,-0.06l1.118 0c0.033,0 0.06,0.026 0.06,0.06 0,0.033 -0.027,0.06 -0.06,0.06l-1.118 0z"/>
   </g>
  </g>
 </g>
</svg>
