<?xml version="1.0" encoding="UTF-8"?>
<!DOCTYPE svg PUBLIC "-//W3C//DTD SVG 1.1//EN" "http://www.w3.org/Graphics/SVG/1.1/DTD/svg11.dtd">
<!-- Creator: CorelDRAW 2018 (64-Bit) -->
<svg xmlns="http://www.w3.org/2000/svg" xml:space="preserve" width="73px" height="42px" version="1.1" style="shape-rendering:geometricPrecision; text-rendering:geometricPrecision; image-rendering:optimizeQuality; fill-rule:evenodd; clip-rule:evenodd"
viewBox="0 0 8.751 5.056"
 xmlns:xlink="http://www.w3.org/1999/xlink">
 <defs>
  <style type="text/css">
   <![CDATA[
    .fil0 {fill:none}
    .fil2 {fill:#00F4FF}
    .fil1 {fill:gray;fill-rule:nonzero}
   ]]>
  </style>
 </defs>
 <g id="Layer_x0020_1">
  <metadata id="CorelCorpID_0Corel-Layer"/>
  <g id="_1612686874736">
   <rect class="fil0" width="8.751" height="5.056"/>
   <g>
    <path class="fil1" d="M6.251 1.272c-0.005,0.033 -0.036,0.055 -0.069,0.049 -0.033,-0.005 -0.055,-0.036 -0.049,-0.069l0.009 -0.054 -0.744 -0.744 -1.22 0.21 -2.171 2.17c-0.012,0.013 -0.019,0.029 -0.019,0.045 0.001,0.017 0.007,0.033 0.019,0.045l1.664 1.664c0.013,0.013 0.029,0.019 0.045,0.019 0.017,0 0.033,-0.006 0.045,-0.019l2.171 -2.17 0.098 -0.572c0.006,-0.033 0.037,-0.055 0.07,-0.05 0.033,0.006 0.055,0.037 0.049,0.07l-0.102 0.589c-0.001,0.012 -0.007,0.025 -0.017,0.035l-2.183 2.183c-0.036,0.036 -0.083,0.054 -0.131,0.054 -0.047,0 -0.094,-0.018 -0.13,-0.054l-1.664 -1.664c-0.036,-0.036 -0.054,-0.083 -0.054,-0.13 0.001,-0.047 0.018,-0.094 0.054,-0.13l2.184 -2.184c0.008,-0.008 0.02,-0.014 0.032,-0.016l1.267 -0.219c0.02,-0.004 0.041,0.001 0.056,0.016l0.788 0.789c0.013,0.013 0.02,0.032 0.017,0.052l-0.015 0.085z"/>
    <path class="fil1" d="M5.408 0.967c0.032,0.008 0.051,0.041 0.043,0.073 -0.008,0.032 -0.041,0.051 -0.073,0.043 -0.032,-0.008 -0.065,-0.008 -0.097,0.001 -0.03,0.008 -0.059,0.024 -0.083,0.048 -0.036,0.037 -0.055,0.085 -0.055,0.133 0,0.048 0.019,0.096 0.055,0.133 0.037,0.036 0.085,0.054 0.133,0.054 0.048,0 0.096,-0.018 0.132,-0.055 0.024,-0.023 0.062,-0.023 0.086,0 0.023,0.024 0.023,0.062 0,0.086 -0.061,0.06 -0.139,0.09 -0.218,0.09 -0.079,0 -0.158,-0.03 -0.218,-0.09 -0.06,-0.061 -0.09,-0.14 -0.09,-0.218 0,-0.079 0.03,-0.158 0.09,-0.218 0.039,-0.039 0.086,-0.065 0.137,-0.079 0.051,-0.014 0.106,-0.014 0.158,-0.001z"/>
    <path class="fil1" d="M6.17 2.636c-0.028,-0.017 -0.036,-0.054 -0.019,-0.082 0.018,-0.028 0.055,-0.036 0.083,-0.019 0.124,0.079 0.239,0.132 0.333,0.152 0.077,0.017 0.135,0.012 0.166,-0.02 0.053,-0.052 0.035,-0.174 -0.037,-0.329 -0.08,-0.172 -0.227,-0.376 -0.422,-0.571 -0.195,-0.195 -0.399,-0.342 -0.571,-0.422 -0.155,-0.072 -0.277,-0.091 -0.33,-0.038 -0.023,0.024 -0.061,0.024 -0.084,0 -0.024,-0.023 -0.024,-0.061 -0.001,-0.084 0.093,-0.093 0.264,-0.081 0.466,0.013 0.184,0.086 0.4,0.242 0.604,0.446 0.205,0.204 0.36,0.421 0.446,0.605 0.095,0.202 0.107,0.373 0.015,0.466 -0.063,0.062 -0.16,0.077 -0.277,0.052 -0.108,-0.023 -0.236,-0.082 -0.372,-0.169z"/>
    <polygon class="fil2" points="4.492,2.104 3.971,2.262 3.525,1.951 3.515,2.495 3.081,2.823 3.595,3 3.773,3.515 4.101,3.081 4.645,3.071 4.333,2.624 "/>
    <path class="fil1" d="M4.402 2.194l-0.413 0.126c-0.019,0.005 -0.038,0.002 -0.052,-0.008l-0.354 -0.248 -0.008 0.432c0,0.019 -0.009,0.036 -0.024,0.047l-0.344 0.26 0.408 0.141c0.018,0.006 0.031,0.02 0.037,0.037l0.141 0.408 0.26 -0.345c0.012,-0.016 0.031,-0.024 0.05,-0.024l0.429 -0.007 -0.248 -0.354c-0.011,-0.016 -0.013,-0.035 -0.008,-0.052l0.126 -0.413zm-0.42 0.003l0.493 -0.151c0.011,-0.003 0.023,-0.003 0.034,0 0.032,0.01 0.05,0.043 0.04,0.075l-0.15 0.493 0.294 0.421c0.008,0.01 0.012,0.022 0.012,0.035 0.001,0.033 -0.026,0.06 -0.059,0.061l-0.515 0.009 -0.31 0.411c-0.007,0.009 -0.017,0.017 -0.029,0.021 -0.031,0.01 -0.065,-0.006 -0.076,-0.037l-0.168 -0.487 -0.483 -0.167c-0.013,-0.004 -0.024,-0.011 -0.032,-0.022 -0.02,-0.026 -0.015,-0.064 0.011,-0.084l0.412 -0.311 0.009 -0.514c0,-0.012 0.004,-0.024 0.011,-0.034 0.019,-0.027 0.056,-0.034 0.083,-0.015l0.423 0.296z"/>
   </g>
  </g>
 </g>
</svg>
