<?xml version="1.0" encoding="UTF-8"?>
<!DOCTYPE svg PUBLIC "-//W3C//DTD SVG 1.1//EN" "http://www.w3.org/Graphics/SVG/1.1/DTD/svg11.dtd">
<!-- Creator: CorelDRAW 2018 (64-Bit) -->
<svg xmlns="http://www.w3.org/2000/svg" xml:space="preserve" width="42px" height="32px" version="1.1" style="shape-rendering:geometricPrecision; text-rendering:geometricPrecision; image-rendering:optimizeQuality; fill-rule:evenodd; clip-rule:evenodd"
viewBox="0 0 1.008 0.768"
 xmlns:xlink="http://www.w3.org/1999/xlink">
 <defs>
  <style type="text/css">
   <![CDATA[
    .fil0 {fill:none}
    .fil1 {fill:white;fill-rule:nonzero}
   ]]>
  </style>
 </defs>
 <g id="Layer_x0020_1">
  <metadata id="CorelCorpID_0Corel-Layer"/>
  <g id="_2778932767360">
   <rect class="fil0" width="1.008" height="0.768"/>
   <g>
    <path class="fil1" d="M0.461 0.132c0.068,0 0.129,0.027 0.173,0.072 0.045,0.044 0.072,0.105 0.072,0.173 0,0.068 -0.027,0.129 -0.072,0.173 -0.044,0.045 -0.105,0.072 -0.173,0.072 -0.068,0 -0.129,-0.027 -0.173,-0.072 -0.045,-0.044 -0.072,-0.105 -0.072,-0.173 0,-0.068 0.027,-0.129 0.072,-0.173 0.044,-0.045 0.105,-0.072 0.173,-0.072zm0.156 0.089c-0.04,-0.04 -0.095,-0.065 -0.156,-0.065 -0.061,0 -0.116,0.025 -0.156,0.065 -0.04,0.04 -0.065,0.095 -0.065,0.156 0,0.061 0.025,0.116 0.065,0.156 0.04,0.04 0.095,0.065 0.156,0.065 0.061,0 0.116,-0.025 0.156,-0.065 0.04,-0.04 0.065,-0.095 0.065,-0.156 0,-0.061 -0.025,-0.116 -0.065,-0.156z"/>
    <path class="fil1" d="M0.526 0.264c-0.006,-0.003 -0.008,-0.01 -0.004,-0.016 0.003,-0.006 0.01,-0.008 0.016,-0.004 0.016,0.009 0.03,0.02 0.041,0.034 0.011,0.014 0.021,0.029 0.027,0.046 0.002,0.007 -0.001,0.013 -0.007,0.016 -0.007,0.002 -0.013,-0.001 -0.016,-0.007 -0.005,-0.015 -0.013,-0.028 -0.022,-0.04 -0.01,-0.011 -0.022,-0.021 -0.035,-0.029z"/>
    <path class="fil1" d="M0.617 0.55c-0.004,-0.004 -0.004,-0.012 0,-0.017 0.005,-0.004 0.013,-0.004 0.017,0l0.06 0.06c0.005,0.005 0.005,0.012 0,0.017 -0.005,0.005 -0.012,0.005 -0.017,0l-0.06 -0.06z"/>
    <path class="fil1" d="M0.68 0.596c0.011,-0.011 0.026,-0.016 0.04,-0.016 0.015,0 0.029,0.005 0.04,0.016l0.063 0.063c0.012,0.011 0.017,0.026 0.017,0.04 0,0.015 -0.005,0.029 -0.017,0.04 -0.011,0.012 -0.025,0.017 -0.04,0.017 -0.014,0 -0.029,-0.005 -0.04,-0.017l-0.063 -0.063c-0.011,-0.011 -0.016,-0.025 -0.016,-0.04 0,-0.014 0.005,-0.029 0.016,-0.04zm0.017 0.017c-0.006,0.007 -0.009,0.015 -0.009,0.023 0,0.009 0.003,0.017 0.009,0.023l0.063 0.064c0.007,0.006 0.015,0.009 0.023,0.009 0.009,0 0.017,-0.003 0.024,-0.009 0.006,-0.007 0.009,-0.015 0.009,-0.024 0,-0.008 -0.003,-0.016 -0.009,-0.023l-0.064 -0.063c-0.006,-0.006 -0.014,-0.009 -0.023,-0.009 -0.008,0 -0.016,0.003 -0.023,0.009z"/>
   </g>
  </g>
 </g>
</svg>
