<?xml version="1.0" encoding="UTF-8"?>
<!DOCTYPE svg PUBLIC "-//W3C//DTD SVG 1.1//EN" "http://www.w3.org/Graphics/SVG/1.1/DTD/svg11.dtd">
<!-- Creator: CorelDRAW 2018 (64-Bit) -->
<svg xmlns="http://www.w3.org/2000/svg" xml:space="preserve" width="73px" height="42px" version="1.1" style="shape-rendering:geometricPrecision; text-rendering:geometricPrecision; image-rendering:optimizeQuality; fill-rule:evenodd; clip-rule:evenodd"
viewBox="0 0 4.043 2.336"
 xmlns:xlink="http://www.w3.org/1999/xlink">
 <defs>
  <style type="text/css">
   <![CDATA[
    .fil0 {fill:none}
    .fil1 {fill:#00F4FF}
    .fil2 {fill:gray;fill-rule:nonzero}
   ]]>
  </style>
 </defs>
 <g id="Layer_x0020_1">
  <metadata id="CorelCorpID_0Corel-Layer"/>
  <g id="_1612686789136">
   <rect class="fil0" width="4.043" height="2.336"/>
   <g>
    <path class="fil1" d="M1.431 1.398c0.197,0 0.357,0.16 0.357,0.357 0,0.197 -0.16,0.356 -0.357,0.356 -0.197,0 -0.357,-0.159 -0.357,-0.356 0,-0.197 0.16,-0.357 0.357,-0.357z"/>
    <path class="fil2" d="M1.431 1.37c0.106,0 0.202,0.043 0.272,0.113 0.069,0.069 0.112,0.165 0.112,0.272 0,0.106 -0.043,0.202 -0.112,0.271l-0.001 0.001c-0.069,0.069 -0.165,0.112 -0.271,0.112 -0.106,0 -0.202,-0.043 -0.272,-0.113l0 0c-0.07,-0.069 -0.113,-0.165 -0.113,-0.271 0,-0.106 0.043,-0.203 0.113,-0.272l0 0c0.07,-0.07 0.166,-0.113 0.272,-0.113zm0.232 0.152c-0.059,-0.06 -0.141,-0.096 -0.232,-0.096 -0.091,0 -0.173,0.036 -0.233,0.096 -0.059,0.059 -0.096,0.142 -0.096,0.233 0,0.09 0.037,0.173 0.096,0.232 0.06,0.06 0.142,0.097 0.233,0.097 0.091,0 0.173,-0.037 0.232,-0.097 0.06,-0.059 0.097,-0.142 0.097,-0.232 0,-0.091 -0.037,-0.174 -0.097,-0.233z"/>
    <path class="fil1" d="M2.501 1.191c0.197,0 0.357,0.16 0.357,0.357 0,0.197 -0.16,0.357 -0.357,0.357 -0.197,0 -0.357,-0.16 -0.357,-0.357 0,-0.197 0.16,-0.357 0.357,-0.357z"/>
    <path class="fil2" d="M2.501 1.163c0.106,0 0.202,0.044 0.272,0.113l0 0c0.07,0.07 0.113,0.166 0.113,0.272 0,0.106 -0.043,0.202 -0.113,0.272l0 0c-0.07,0.07 -0.166,0.113 -0.272,0.113 -0.106,0 -0.202,-0.043 -0.272,-0.113 -0.069,-0.07 -0.113,-0.166 -0.113,-0.272 0,-0.106 0.044,-0.202 0.113,-0.272l0 0c0.07,-0.07 0.166,-0.113 0.272,-0.113zm0.233 0.152c-0.06,-0.059 -0.142,-0.096 -0.233,-0.096 -0.091,0 -0.173,0.037 -0.233,0.096 -0.059,0.06 -0.096,0.142 -0.096,0.233 0,0.091 0.037,0.173 0.096,0.233 0.06,0.059 0.142,0.096 0.233,0.096 0.091,0 0.173,-0.037 0.233,-0.096 0.059,-0.06 0.096,-0.142 0.096,-0.233 0,-0.091 -0.037,-0.173 -0.096,-0.233z"/>
    <path class="fil2" d="M1.815 1.755c0,0.015 -0.012,0.027 -0.027,0.027 -0.016,0 -0.028,-0.012 -0.028,-0.027l0 -1.33c0,-0.014 0.011,-0.026 0.024,-0.028l1.069 -0.2c0.015,-0.002 0.029,0.007 0.032,0.023l0.001 0.005 0 1.323c0,0.015 -0.013,0.028 -0.028,0.028 -0.016,0 -0.028,-0.013 -0.028,-0.028l0 -1.29 -1.015 0.19 0 1.307z"/>
   </g>
  </g>
 </g>
</svg>
