<?xml version="1.0" encoding="UTF-8"?>
<!DOCTYPE svg PUBLIC "-//W3C//DTD SVG 1.1//EN" "http://www.w3.org/Graphics/SVG/1.1/DTD/svg11.dtd">
<!-- Creator: CorelDRAW 2018 (64-Bit) -->
<svg xmlns="http://www.w3.org/2000/svg" xml:space="preserve" width="73px" height="42px" version="1.1" style="shape-rendering:geometricPrecision; text-rendering:geometricPrecision; image-rendering:optimizeQuality; fill-rule:evenodd; clip-rule:evenodd"
viewBox="0 0 3.391 1.959"
 xmlns:xlink="http://www.w3.org/1999/xlink">
 <defs>
  <style type="text/css">
   <![CDATA[
    .fil0 {fill:none}
    .fil2 {fill:#00F4FF;fill-rule:nonzero}
    .fil1 {fill:gray;fill-rule:nonzero}
   ]]>
  </style>
 </defs>
 <g id="Layer_x0020_1">
  <metadata id="CorelCorpID_0Corel-Layer"/>
  <g id="_1612304986416">
   <rect class="fil0" width="3.391" height="1.959"/>
   <g>
    <path class="fil1" d="M0.073 1.764c-0.013,0 -0.023,-0.011 -0.023,-0.024 0,-0.012 0.01,-0.023 0.023,-0.023l0.452 0c0.013,0 0.024,0.011 0.024,0.023 0,0.013 -0.011,0.024 -0.024,0.024l-0.452 0z"/>
    <path class="fil2" d="M0.619 1.074l-0.13 0.075c-0.085,0.049 -0.092,0.197 -0.016,0.328l0.009 0.016 0.438 -0.252 -0.01 -0.017c-0.076,-0.131 -0.207,-0.198 -0.291,-0.15z"/>
    <path class="fil1" d="M0.628 1.096l-0.128 0.073c-0.035,0.021 -0.054,0.063 -0.056,0.114 -0.003,0.054 0.013,0.118 0.047,0.179l0.397 -0.23c-0.035,-0.06 -0.083,-0.105 -0.131,-0.13 -0.045,-0.023 -0.09,-0.027 -0.125,-0.008 -0.001,0 -0.002,0.001 -0.004,0.002zm-0.151 0.033l0.13 -0.075c0.05,-0.028 0.112,-0.024 0.171,0.007 0.057,0.029 0.112,0.082 0.152,0.151l0.01 0.017c0.006,0.011 0.002,0.026 -0.009,0.032l-0.437 0.252c-0.011,0.007 -0.025,0.003 -0.032,-0.008l-0.009 -0.017c-0.041,-0.069 -0.059,-0.143 -0.056,-0.207 0.004,-0.067 0.031,-0.123 0.08,-0.152z"/>
    <path class="fil2" d="M0.642 1.047c-0.048,-0.082 -0.116,-0.132 -0.153,-0.111l-0.056 0.032c-0.036,0.021 -0.027,0.106 0.021,0.188l0.006 0.01 0.188 -0.108 -0.006 -0.011z"/>
    <path class="fil1" d="M0.616 1.049c-0.021,-0.034 -0.045,-0.061 -0.068,-0.078 -0.02,-0.014 -0.038,-0.021 -0.047,-0.015l-0.056 0.032c-0.009,0.006 -0.013,0.024 -0.01,0.049 0.003,0.028 0.014,0.062 0.033,0.097l0.148 -0.085zm-0.041 -0.115c0.03,0.022 0.062,0.058 0.087,0.102l0.006 0.01c0.006,0.011 0.003,0.025 -0.008,0.032l-0.189 0.108c-0.011,0.007 -0.025,0.003 -0.032,-0.008l-0.006 -0.01c-0.025,-0.044 -0.04,-0.09 -0.044,-0.127 -0.005,-0.043 0.006,-0.077 0.033,-0.093l0.056 -0.032c0.027,-0.016 0.062,-0.008 0.097,0.018z"/>
    <path class="fil2" d="M0.128 1.213c-0.042,0 -0.076,0.034 -0.076,0.076 0,0.043 0.034,0.077 0.076,0.077 0.042,0 0.076,-0.034 0.076,-0.077 0,-0.042 -0.034,-0.076 -0.076,-0.076z"/>
    <path class="fil1" d="M0.128 1.237c-0.015,0 -0.028,0.005 -0.037,0.015l-0.001 0.001c-0.009,0.009 -0.015,0.022 -0.015,0.036 0,0.015 0.006,0.028 0.016,0.038 0.009,0.009 0.022,0.015 0.037,0.015 0.015,0 0.028,-0.006 0.038,-0.015 0.009,-0.01 0.015,-0.023 0.015,-0.038 0,-0.014 -0.006,-0.027 -0.015,-0.037 -0.01,-0.01 -0.023,-0.015 -0.038,-0.015zm-0.07 -0.018c0.018,-0.018 0.043,-0.029 0.07,-0.029 0.028,0 0.052,0.011 0.07,0.029 0.018,0.018 0.03,0.043 0.03,0.07 0,0.028 -0.012,0.053 -0.03,0.071 -0.018,0.018 -0.043,0.029 -0.07,0.029 -0.027,0 -0.052,-0.011 -0.07,-0.029 -0.018,-0.018 -0.03,-0.043 -0.03,-0.071 0,-0.026 0.011,-0.051 0.028,-0.068l0.002 -0.002z"/>
    <path class="fil1" d="M0.411 1.07c0.011,-0.007 0.026,-0.003 0.032,0.008 0.007,0.011 0.004,0.025 -0.007,0.032l-0.242 0.145c-0.011,0.007 -0.025,0.004 -0.032,-0.007 -0.007,-0.011 -0.003,-0.026 0.008,-0.032l0.241 -0.146z"/>
    <path class="fil1" d="M0.146 1.371c-0.005,-0.012 0.001,-0.025 0.013,-0.03 0.012,-0.004 0.026,0.002 0.03,0.014l0.142 0.377c0.005,0.012 -0.001,0.026 -0.013,0.03 -0.012,0.005 -0.026,-0.001 -0.03,-0.013l-0.142 -0.378z"/>
    <path class="fil1" d="M0.847 0.976c0,0.013 -0.011,0.024 -0.024,0.024 -0.013,0 -0.023,-0.011 -0.023,-0.024l0 -0.72c0,-0.025 0.01,-0.048 0.027,-0.064 0.016,-0.017 0.039,-0.027 0.064,-0.027l1.751 0c0.025,0 0.047,0.01 0.064,0.027l0 0c0.016,0.016 0.027,0.039 0.027,0.064l0 1.135c0,0.025 -0.011,0.048 -0.027,0.064l0 0.001c-0.017,0.016 -0.039,0.026 -0.064,0.026l-1.751 0c-0.013,0 -0.025,-0.002 -0.036,-0.007 -0.011,-0.005 -0.021,-0.012 -0.03,-0.021 -0.009,-0.009 -0.008,-0.024 0.001,-0.033 0.009,-0.008 0.024,-0.008 0.033,0.001 0.004,0.004 0.009,0.008 0.014,0.01 0.006,0.002 0.011,0.004 0.018,0.004l1.751 0c0.012,0 0.023,-0.005 0.031,-0.013 0.008,-0.008 0.013,-0.019 0.013,-0.032l0 -1.135c0,-0.012 -0.005,-0.023 -0.013,-0.031 -0.008,-0.008 -0.019,-0.013 -0.031,-0.013l-1.751 0c-0.012,0 -0.024,0.005 -0.031,0.013 -0.008,0.008 -0.013,0.019 -0.013,0.031l0 0.72z"/>
    <path class="fil1" d="M1.358 1.764c-0.013,0 -0.024,-0.011 -0.024,-0.024 0,-0.012 0.011,-0.023 0.024,-0.023l0.817 0c0.013,0 0.023,0.011 0.023,0.023 0,0.013 -0.01,0.024 -0.023,0.024l-0.817 0z"/>
    <path class="fil1" d="M1.521 1.712c0,0.012 -0.01,0.023 -0.023,0.023 -0.013,0 -0.023,-0.011 -0.023,-0.023l0 -0.253c0,-0.013 0.01,-0.023 0.023,-0.023 0.013,0 0.023,0.01 0.023,0.023l0 0.253z"/>
    <path class="fil1" d="M2.058 1.712c0,0.012 -0.01,0.023 -0.023,0.023 -0.013,0 -0.024,-0.011 -0.024,-0.023l0 -0.253c0,-0.013 0.011,-0.023 0.024,-0.023 0.013,0 0.023,0.01 0.023,0.023l0 0.253z"/>
    <path class="fil1" d="M2.893 1.606c-0.002,-0.013 0.008,-0.024 0.021,-0.025 0.012,-0.001 0.024,0.008 0.025,0.021l0.014 0.157c0.001,0.013 -0.008,0.024 -0.021,0.025 -0.013,0.001 -0.024,-0.008 -0.025,-0.021l-0.014 -0.157z"/>
    <path class="fil1" d="M2.907 1.763c-0.001,-0.013 0.008,-0.024 0.021,-0.025 0.009,-0.001 0.018,0.004 0.022,0.012 0.008,0.004 0.013,0.012 0.013,0.021 0,0.013 -0.01,0.023 -0.023,0.023 -0.009,0 -0.017,-0.004 -0.023,-0.01 -0.006,-0.005 -0.009,-0.013 -0.01,-0.021z"/>
    <path class="fil1" d="M2.94 1.794c-0.013,0 -0.024,-0.01 -0.024,-0.023 0,-0.013 0.011,-0.024 0.024,-0.024l0.194 0c0.012,0 0.023,0.011 0.023,0.024 0,0.013 -0.011,0.023 -0.023,0.023l-0.194 0z"/>
    <path class="fil1" d="M3.134 1.794c-0.013,0 -0.024,-0.01 -0.024,-0.023 0,-0.009 0.005,-0.017 0.013,-0.021 0.004,-0.008 0.013,-0.013 0.022,-0.012 0.013,0.001 0.023,0.012 0.022,0.025 -0.001,0.008 -0.005,0.016 -0.01,0.021l0 0c-0.006,0.006 -0.014,0.01 -0.023,0.01z"/>
    <path class="fil1" d="M3.166 1.763c-0.001,0.013 -0.012,0.022 -0.025,0.021 -0.013,-0.001 -0.022,-0.012 -0.021,-0.025l0.014 -0.157c0.002,-0.013 0.013,-0.022 0.026,-0.021 0.012,0.001 0.022,0.012 0.021,0.025l-0.015 0.157z"/>
    <path class="fil1" d="M3.182 1.502c0.013,0 0.024,0.011 0.024,0.024 0,0.013 -0.011,0.023 -0.024,0.023l-0.291 0c-0.013,0 -0.023,-0.01 -0.023,-0.023 0,-0.013 0.01,-0.024 0.023,-0.024l0.291 0z"/>
    <path class="fil1" d="M2.89 1.502c0.013,0 0.024,0.01 0.024,0.023 0.001,0.009 -0.004,0.017 -0.012,0.021 -0.004,0.007 -0.011,0.012 -0.019,0.013 -0.013,0 -0.024,-0.009 -0.025,-0.021l0 -0.003c0,-0.009 0.004,-0.017 0.009,-0.023 0.006,-0.005 0.013,-0.009 0.02,-0.009l0.003 -0.001z"/>
    <path class="fil1" d="M2.858 1.538c-0.001,-0.013 0.008,-0.024 0.021,-0.026 0.013,-0.001 0.024,0.008 0.025,0.021l0.006 0.052c0.001,0.013 -0.008,0.024 -0.021,0.025 -0.012,0.002 -0.024,-0.007 -0.025,-0.02l-0.006 -0.052z"/>
    <path class="fil1" d="M2.864 1.59c-0.002,-0.013 0.008,-0.024 0.02,-0.026 0.01,-0.001 0.019,0.004 0.023,0.012 0.008,0.004 0.013,0.012 0.013,0.021 0,0.013 -0.01,0.023 -0.023,0.023 -0.01,0 -0.017,-0.003 -0.023,-0.009 -0.006,-0.006 -0.009,-0.013 -0.01,-0.021z"/>
    <path class="fil1" d="M2.897 1.62c-0.013,0 -0.024,-0.01 -0.024,-0.023 0,-0.013 0.011,-0.023 0.024,-0.023l0.28 0c0.013,0 0.023,0.01 0.023,0.023 0,0.013 -0.01,0.023 -0.023,0.023l-0.28 0z"/>
    <path class="fil1" d="M3.177 1.62c-0.013,0 -0.024,-0.01 -0.024,-0.023 0,-0.009 0.005,-0.017 0.013,-0.021 0.004,-0.008 0.013,-0.013 0.023,-0.012 0.013,0.002 0.022,0.013 0.021,0.026 -0.001,0.008 -0.005,0.015 -0.01,0.021 -0.006,0.006 -0.014,0.009 -0.023,0.009z"/>
    <path class="fil1" d="M3.21 1.59c-0.002,0.013 -0.013,0.022 -0.026,0.02 -0.013,-0.001 -0.022,-0.012 -0.021,-0.025l0.006 -0.052c0.001,-0.013 0.013,-0.022 0.026,-0.021 0.012,0.002 0.022,0.013 0.02,0.026l-0.005 0.052z"/>
    <path class="fil1" d="M3.215 1.537c0,0.013 -0.011,0.022 -0.024,0.022 -0.009,-0.001 -0.016,-0.006 -0.02,-0.013 -0.007,-0.004 -0.012,-0.012 -0.012,-0.021 0.001,-0.013 0.012,-0.023 0.024,-0.023l0.003 0.001c0.007,0 0.014,0.004 0.02,0.009 0.006,0.006 0.009,0.014 0.009,0.023l0 0.002z"/>
    <path class="fil2" d="M3.135 1.525c0.034,-0.03 0.056,-0.075 0.057,-0.126 0.046,0 0.097,-0.033 0.113,-0.074 0.017,-0.041 -0.007,-0.074 -0.052,-0.074 -0.033,0 -0.068,0.017 -0.091,0.042 -0.028,-0.041 -0.072,-0.067 -0.122,-0.067 -0.084,0 -0.152,0.075 -0.152,0.168 0,0.051 0.021,0.098 0.055,0.128l0.006 0.004 0.186 -0.001z"/>
    <path class="fil1" d="M3.126 1.502c0.012,-0.012 0.022,-0.027 0.029,-0.043 0.008,-0.018 0.013,-0.039 0.014,-0.061 0.001,-0.012 0.011,-0.022 0.023,-0.022 0.019,0 0.038,-0.007 0.055,-0.018 0.017,-0.011 0.03,-0.026 0.037,-0.042 0.002,-0.006 0.003,-0.011 0.003,-0.016 0,-0.006 -0.001,-0.01 -0.004,-0.014 -0.002,-0.004 -0.006,-0.007 -0.011,-0.009 -0.005,-0.002 -0.012,-0.003 -0.019,-0.003 -0.013,0 -0.026,0.003 -0.039,0.009l-0.001 0.001c-0.013,0.006 -0.025,0.014 -0.034,0.025 -0.009,0.009 -0.024,0.009 -0.033,0.001 -0.002,-0.002 -0.003,-0.004 -0.004,-0.005 -0.012,-0.017 -0.028,-0.032 -0.045,-0.041 -0.017,-0.01 -0.036,-0.015 -0.057,-0.015 -0.035,0 -0.067,0.016 -0.09,0.041 -0.024,0.027 -0.039,0.063 -0.039,0.104 0,0.022 0.005,0.043 0.013,0.062 0.007,0.018 0.018,0.033 0.031,0.046l0.171 0zm0.071 -0.024c-0.011,0.025 -0.027,0.047 -0.047,0.064 -0.004,0.004 -0.009,0.006 -0.015,0.006l-0.186 0.001c-0.003,0 -0.007,-0.001 -0.01,-0.002l-0.005 -0.003c-0.003,-0.001 -0.005,-0.002 -0.007,-0.004 -0.019,-0.018 -0.035,-0.041 -0.046,-0.066 -0.01,-0.025 -0.016,-0.052 -0.016,-0.08 0,-0.053 0.019,-0.1 0.05,-0.135 0.032,-0.035 0.076,-0.057 0.125,-0.057 0.029,0 0.055,0.008 0.079,0.021 0.017,0.009 0.032,0.021 0.046,0.036 0.009,-0.007 0.018,-0.013 0.029,-0.017l0.001 -0.001c0.018,-0.009 0.038,-0.014 0.058,-0.014 0.013,0 0.026,0.003 0.036,0.007 0.014,0.006 0.025,0.015 0.033,0.026 0.008,0.011 0.012,0.025 0.012,0.04 0,0.01 -0.002,0.022 -0.007,0.034 -0.01,0.025 -0.03,0.047 -0.054,0.063 -0.018,0.012 -0.039,0.02 -0.059,0.024 -0.003,0.02 -0.009,0.04 -0.017,0.057z"/>
    <path class="fil1" d="M3.192 1.422c-0.013,0 -0.023,-0.01 -0.023,-0.023 0,-0.013 0.01,-0.023 0.023,-0.023l0.001 0c0.013,0 0.023,0.01 0.023,0.023 0,0.013 -0.01,0.023 -0.023,0.023l-0.001 0z"/>
    <path class="fil1" d="M2.939 1.229c-0.007,-0.011 -0.004,-0.026 0.006,-0.033 0.011,-0.007 0.026,-0.004 0.033,0.007l0.012 0.019c0.007,0.01 0.004,0.025 -0.006,0.032 -0.011,0.007 -0.025,0.004 -0.033,-0.007l-0.012 -0.018z"/>
    <path class="fil1" d="M2.85 1.357c-0.013,-0.003 -0.02,-0.016 -0.016,-0.028 0.003,-0.013 0.016,-0.02 0.028,-0.017l0.023 0.007c0.013,0.003 0.02,0.016 0.017,0.028 -0.004,0.013 -0.017,0.02 -0.029,0.017l-0.023 -0.007z"/>
    <path class="fil1" d="M2.88 1.284c-0.011,-0.007 -0.014,-0.021 -0.007,-0.032 0.007,-0.011 0.021,-0.014 0.032,-0.007l0.019 0.013c0.011,0.007 0.014,0.021 0.007,0.032 -0.007,0.011 -0.021,0.014 -0.032,0.007l-0.019 -0.013z"/>
    <path class="fil1" d="M2.856 1.433c-0.013,0.002 -0.024,-0.007 -0.026,-0.02 -0.002,-0.013 0.007,-0.024 0.02,-0.026l0.023 -0.003c0.013,-0.002 0.025,0.007 0.027,0.02 0.001,0.012 -0.007,0.024 -0.02,0.026l-0.024 0.003z"/>
    <path class="fil1" d="M2.882 1.502c-0.011,0.006 -0.026,0.002 -0.032,-0.01 -0.005,-0.011 -0.001,-0.025 0.01,-0.031l0.021 -0.011c0.011,-0.006 0.026,-0.002 0.031,0.01 0.006,0.011 0.002,0.025 -0.009,0.031l-0.021 0.011z"/>
    <path class="fil1" d="M3.107 1.203c0.007,-0.01 0.022,-0.013 0.033,-0.006 0.01,0.007 0.013,0.021 0.006,0.032l-0.012 0.019c-0.007,0.011 -0.022,0.014 -0.033,0.007 -0.01,-0.008 -0.013,-0.022 -0.006,-0.033l0.012 -0.019z"/>
    <path class="fil1" d="M3.316 1.235c0.01,-0.007 0.025,-0.003 0.032,0.007 0.007,0.011 0.003,0.026 -0.007,0.033l-0.131 0.084c-0.011,0.007 -0.025,0.004 -0.032,-0.007 -0.007,-0.011 -0.004,-0.025 0.007,-0.032l0.131 -0.085z"/>
    <path class="fil1" d="M3.221 1.451c0.012,0.005 0.018,0.019 0.013,0.031 -0.005,0.012 -0.019,0.017 -0.031,0.012l-0.022 -0.009c-0.012,-0.005 -0.017,-0.019 -0.012,-0.031 0.005,-0.011 0.019,-0.017 0.03,-0.012l0.022 0.009z"/>
    <path class="fil1" d="M3.244 1.214c0.003,-0.013 0.016,-0.02 0.028,-0.017 0.013,0.003 0.02,0.016 0.017,0.028l-0.005 0.021c-0.003,0.013 -0.016,0.021 -0.029,0.017 -0.012,-0.003 -0.02,-0.015 -0.017,-0.028l0.006 -0.021z"/>
    <path class="fil1" d="M3.173 1.248c-0.007,-0.011 -0.004,-0.026 0.007,-0.033 0.01,-0.007 0.025,-0.004 0.032,0.007l0.012 0.019c0.007,0.01 0.005,0.025 -0.006,0.032 -0.011,0.007 -0.025,0.004 -0.032,-0.007l-0.013 -0.018z"/>
    <path class="fil1" d="M3.346 1.313c0.012,0.004 0.019,0.017 0.015,0.029 -0.004,0.012 -0.017,0.019 -0.029,0.015l-0.023 -0.007c-0.012,-0.004 -0.019,-0.017 -0.015,-0.029 0.004,-0.012 0.017,-0.019 0.029,-0.015l0.023 0.007z"/>
    <path class="fil1" d="M3.264 1.386c-0.007,-0.011 -0.004,-0.025 0.007,-0.032 0.01,-0.007 0.025,-0.004 0.032,0.007l0.012 0.018c0.007,0.011 0.004,0.026 -0.006,0.033 -0.011,0.007 -0.025,0.004 -0.032,-0.007l-0.013 -0.019z"/>
    <path class="fil1" d="M3.207 1.409c-0.003,-0.012 0.005,-0.025 0.017,-0.028 0.013,-0.003 0.025,0.005 0.028,0.018l0.005 0.021c0.003,0.013 -0.005,0.025 -0.017,0.028 -0.013,0.003 -0.025,-0.005 -0.028,-0.017l-0.005 -0.022z"/>
    <path class="fil1" d="M3.148 1.311c-0.01,-0.007 -0.013,-0.022 -0.005,-0.032 0.007,-0.01 0.022,-0.013 0.032,-0.005 0.009,0.006 0.019,0.024 0.027,0.051 0.005,0.018 0.01,0.042 0.013,0.072 0.002,0.012 -0.008,0.024 -0.021,0.025 -0.012,0.002 -0.024,-0.008 -0.025,-0.02 -0.003,-0.027 -0.007,-0.048 -0.012,-0.065 -0.005,-0.016 -0.008,-0.025 -0.009,-0.026z"/>
    <path class="fil2" d="M3.07 1.526c0.017,-0.027 0.029,-0.076 0.029,-0.133 0,-0.084 -0.026,-0.152 -0.058,-0.152 -0.033,0 -0.059,0.068 -0.059,0.152 0,0.053 0.011,0.1 0.026,0.127l0.002 0.006 0.06 0z"/>
    <path class="fil1" d="M3.056 1.502c0.005,-0.01 0.009,-0.023 0.013,-0.037 0.004,-0.021 0.007,-0.045 0.007,-0.072 0,-0.039 -0.006,-0.074 -0.015,-0.099 -0.008,-0.019 -0.015,-0.03 -0.02,-0.03 -0.006,0 -0.013,0.011 -0.02,0.03 -0.01,0.025 -0.016,0.06 -0.016,0.099 0,0.025 0.003,0.048 0.007,0.067 0.003,0.017 0.008,0.031 0.013,0.042l0.031 0zm0.058 -0.027c-0.006,0.025 -0.014,0.047 -0.024,0.062 -0.004,0.007 -0.012,0.012 -0.02,0.012l-0.06 0c-0.01,0 -0.019,-0.006 -0.022,-0.016l-0.001 -0.004c-0.009,-0.015 -0.016,-0.036 -0.021,-0.059 -0.004,-0.023 -0.007,-0.05 -0.007,-0.077 0,-0.045 0.007,-0.086 0.019,-0.116 0.014,-0.037 0.036,-0.06 0.063,-0.06 0.026,0 0.049,0.023 0.063,0.06 0.011,0.03 0.019,0.071 0.019,0.116 0,0.029 -0.003,0.057 -0.009,0.082z"/>
    <path class="fil1" d="M2.576 1.103c0,-0.013 0.01,-0.023 0.023,-0.023 0.013,0 0.023,0.01 0.023,0.023l0 0.188c0,0.022 -0.009,0.042 -0.023,0.057 -0.015,0.015 -0.035,0.024 -0.058,0.024l-0.377 0c-0.013,0 -0.024,-0.01 -0.024,-0.023 0,-0.013 0.011,-0.024 0.024,-0.024l0.377 0c0.01,0 0.018,-0.004 0.025,-0.01 0.006,-0.006 0.01,-0.015 0.01,-0.024l0 -0.188z"/>
    <path class="fil1" d="M0.957 0.478c0,0.013 -0.011,0.023 -0.024,0.023 -0.012,0 -0.023,-0.01 -0.023,-0.023l0 -0.122c0,-0.022 0.009,-0.042 0.024,-0.057 0.015,-0.015 0.035,-0.024 0.057,-0.024l0.234 0c0.013,0 0.024,0.011 0.024,0.024 0,0.012 -0.011,0.023 -0.024,0.023l-0.234 0c-0.009,0 -0.018,0.004 -0.024,0.01 -0.006,0.006 -0.01,0.015 -0.01,0.024l0 0.122z"/>
   </g>
  </g>
 </g>
</svg>
