<?xml version="1.0" encoding="UTF-8"?>
<!DOCTYPE svg PUBLIC "-//W3C//DTD SVG 1.1//EN" "http://www.w3.org/Graphics/SVG/1.1/DTD/svg11.dtd">
<!-- Creator: CorelDRAW 2018 (64-Bit) -->
<svg xmlns="http://www.w3.org/2000/svg" xml:space="preserve" width="73px" height="42px" version="1.1" style="shape-rendering:geometricPrecision; text-rendering:geometricPrecision; image-rendering:optimizeQuality; fill-rule:evenodd; clip-rule:evenodd"
viewBox="0 0 4.926 2.846"
 xmlns:xlink="http://www.w3.org/1999/xlink">
 <defs>
  <style type="text/css">
   <![CDATA[
    .fil0 {fill:none}
    .fil4 {fill:#00F4FF}
    .fil2 {fill:#EAEDF2}
    .fil5 {fill:white}
    .fil1 {fill:gray;fill-rule:nonzero}
    .fil3 {fill:gray;fill-rule:nonzero}
   ]]>
  </style>
 </defs>
 <g id="Layer_x0020_1">
  <metadata id="CorelCorpID_0Corel-Layer"/>
  <g id="_1612304988560">
   <rect class="fil0" width="4.926" height="2.846"/>
   <g>
    <path class="fil1" d="M0.97 2.43l0 -2.014c0,-0.033 0.013,-0.064 0.035,-0.086l0.003 -0.002c0.021,-0.021 0.051,-0.033 0.083,-0.033l2.744 0c0.033,0 0.064,0.013 0.086,0.035 0.022,0.022 0.036,0.053 0.036,0.086l0 2.014c0,0.033 -0.014,0.064 -0.036,0.086 -0.022,0.022 -0.053,0.036 -0.086,0.036l-2.744 0c-0.033,0 -0.063,-0.014 -0.085,-0.036 -0.023,-0.022 -0.036,-0.053 -0.036,-0.086zm0.067 -2.014l0 2.014c0,0.015 0.007,0.028 0.016,0.038 0.01,0.01 0.024,0.016 0.038,0.016l2.744 0c0.015,0 0.028,-0.006 0.038,-0.016 0.01,-0.01 0.016,-0.023 0.016,-0.038l0 -2.014c0,-0.014 -0.006,-0.028 -0.016,-0.038 -0.01,-0.01 -0.023,-0.016 -0.038,-0.016l-2.744 0c-0.014,0 -0.027,0.006 -0.036,0.015l-0.002 0.001c-0.009,0.01 -0.016,0.024 -0.016,0.038z"/>
    <path class="fil1" d="M1.247 2.238c-0.019,0 -0.034,-0.015 -0.034,-0.033 0,-0.019 0.015,-0.034 0.034,-0.034l2.433 0c0.018,0 0.033,0.015 0.033,0.034 0,0.018 -0.015,0.033 -0.033,0.033l-2.433 0z"/>
    <path class="fil2" d="M1.587 2.064c0.077,0 0.14,0.063 0.14,0.14 0,0.078 -0.063,0.141 -0.14,0.141 -0.078,0 -0.141,-0.063 -0.141,-0.141 0,-0.077 0.063,-0.14 0.141,-0.14z"/>
    <path class="fil3" d="M1.587 2.03c0.048,0 0.091,0.02 0.123,0.051 0.032,0.032 0.051,0.075 0.051,0.123 0,0.049 -0.019,0.092 -0.051,0.124 -0.032,0.031 -0.075,0.051 -0.123,0.051 -0.048,0 -0.092,-0.02 -0.124,-0.051 -0.031,-0.032 -0.051,-0.075 -0.051,-0.124 0,-0.048 0.02,-0.091 0.051,-0.123 0.032,-0.031 0.076,-0.051 0.124,-0.051zm0.075 0.099c-0.019,-0.019 -0.046,-0.031 -0.075,-0.031 -0.03,0 -0.056,0.012 -0.076,0.031 -0.019,0.019 -0.031,0.046 -0.031,0.075 0,0.03 0.012,0.057 0.031,0.076 0.02,0.019 0.046,0.031 0.076,0.031 0.029,0 0.056,-0.012 0.075,-0.031 0.019,-0.019 0.031,-0.046 0.031,-0.076 0,-0.029 -0.012,-0.056 -0.031,-0.075z"/>
    <path class="fil4" d="M2.463 0.69c0.318,0 0.576,0.258 0.576,0.576 0,0.319 -0.258,0.577 -0.576,0.577 -0.318,0 -0.576,-0.258 -0.576,-0.577 0,-0.318 0.258,-0.576 0.576,-0.576z"/>
    <path class="fil1" d="M2.463 0.656c0.169,0 0.321,0.069 0.432,0.179 0.11,0.11 0.178,0.263 0.178,0.431 0,0.169 -0.068,0.321 -0.178,0.432 -0.111,0.11 -0.263,0.179 -0.432,0.179 -0.168,0 -0.321,-0.069 -0.431,-0.179 -0.111,-0.111 -0.179,-0.263 -0.179,-0.432 0,-0.168 0.068,-0.321 0.179,-0.431 0.11,-0.11 0.263,-0.179 0.431,-0.179zm0.384 0.227c-0.098,-0.098 -0.234,-0.159 -0.384,-0.159 -0.15,0 -0.285,0.061 -0.383,0.159 -0.098,0.098 -0.159,0.234 -0.159,0.383 0,0.15 0.061,0.286 0.159,0.384 0.098,0.098 0.233,0.159 0.383,0.159 0.15,0 0.286,-0.061 0.384,-0.159 0.098,-0.098 0.159,-0.234 0.159,-0.384 0,-0.149 -0.061,-0.285 -0.159,-0.383z"/>
    <polygon class="fil5" points="2.742,1.266 2.526,1.124 2.309,0.982 2.309,1.266 2.309,1.551 2.526,1.409 "/>
    <path class="fil1" d="M2.681 1.266l-0.338 -0.221 0 0.443 0.338 -0.222zm-0.137 -0.17l0.216 0.142c0.004,0.002 0.008,0.006 0.011,0.01 0.01,0.016 0.006,0.037 -0.01,0.047l-0.431 0.283c-0.006,0.004 -0.013,0.007 -0.021,0.007 -0.018,0 -0.033,-0.016 -0.033,-0.034l0 -0.569c0,-0.006 0.001,-0.013 0.005,-0.018 0.01,-0.016 0.031,-0.02 0.047,-0.01l0.216 0.142z"/>
   </g>
  </g>
 </g>
</svg>
