<?xml version="1.0" encoding="UTF-8"?>
<!DOCTYPE svg PUBLIC "-//W3C//DTD SVG 1.1//EN" "http://www.w3.org/Graphics/SVG/1.1/DTD/svg11.dtd">
<!-- Creator: CorelDRAW 2018 (64-Bit) -->
<svg xmlns="http://www.w3.org/2000/svg" xml:space="preserve" width="73px" height="42px" version="1.1" style="shape-rendering:geometricPrecision; text-rendering:geometricPrecision; image-rendering:optimizeQuality; fill-rule:evenodd; clip-rule:evenodd"
viewBox="0 0 15.558 8.989"
 xmlns:xlink="http://www.w3.org/1999/xlink">
 <defs>
  <style type="text/css">
   <![CDATA[
    .fil0 {fill:none}
    .fil5 {fill:#00F4FF}
    .fil4 {fill:#EAEDF2}
    .fil1 {fill:white}
    .fil3 {fill:white}
    .fil2 {fill:gray;fill-rule:nonzero}
   ]]>
  </style>
 </defs>
 <g id="Layer_x0020_1">
  <metadata id="CorelCorpID_0Corel-Layer"/>
  <g id="_1612616417936">
   <rect class="fil0" width="15.558" height="8.989"/>
   <g>
    <path class="fil1" d="M3.611 5.355l0.798 -0.441c-0.061,-0.167 -0.058,-0.378 0.031,-0.645 -0.232,0.24 -0.518,0.406 -0.829,0.409 -0.313,-0.003 -0.6,-0.171 -0.833,-0.412 0.091,0.268 0.093,0.48 0.033,0.647l0.8 0.442z"/>
    <path class="fil2" d="M3.611 5.236l0.675 -0.373c-0.017,-0.073 -0.025,-0.152 -0.021,-0.238 0.001,-0.024 0.002,-0.048 0.005,-0.073 -0.061,0.043 -0.124,0.081 -0.188,0.113 -0.147,0.073 -0.305,0.115 -0.471,0.117l-0.001 0c-0.166,-0.002 -0.325,-0.045 -0.472,-0.118 -0.065,-0.032 -0.128,-0.07 -0.189,-0.113 0.003,0.025 0.005,0.049 0.006,0.072 0.003,0.086 -0.004,0.166 -0.021,0.239l0.677 0.374zm0.848 -0.231l-0.848 0.468 -0.928 -0.512 0.03 -0.083c0.026,-0.071 0.038,-0.153 0.035,-0.247 -0.004,-0.097 -0.026,-0.207 -0.068,-0.332l0.173 -0.105c0.114,0.118 0.241,0.217 0.377,0.284 0.121,0.06 0.249,0.095 0.381,0.097 0.131,-0.002 0.259,-0.037 0.379,-0.096 0.135,-0.067 0.262,-0.165 0.376,-0.282l0.172 0.105c-0.041,0.124 -0.063,0.234 -0.066,0.331 -0.004,0.093 0.008,0.174 0.034,0.246l0.03 0.083 -0.077 0.043z"/>
    <path class="fil3" d="M6.827 5.961c-0.359,-0.376 -0.516,-0.326 -1.084,-0.397 -0.435,-0.055 -0.875,-0.146 -1.136,-0.37l-0.743 0.732 -0.253 -0.571 -0.254 0.571 -0.743 -0.733c-0.262,0.225 -0.702,0.316 -1.138,0.371 -0.568,0.071 -0.724,0.021 -1.084,0.397 1.287,1.776 5.176,1.775 6.435,0z"/>
    <path class="fil2" d="M6.903 5.89c0.039,0.041 0.037,0.107 -0.004,0.146 -0.041,0.04 -0.107,0.038 -0.147,-0.003 -0.274,-0.288 -0.422,-0.303 -0.771,-0.339l-0.003 0c-0.079,-0.008 -0.166,-0.017 -0.247,-0.027 -0.222,-0.028 -0.445,-0.065 -0.65,-0.125 -0.175,-0.051 -0.335,-0.119 -0.466,-0.211l-0.678 0.669c-0.041,0.04 -0.107,0.04 -0.147,-0.001 -0.009,-0.009 -0.016,-0.02 -0.021,-0.031l-0.158 -0.357 -0.159 0.357c-0.023,0.053 -0.084,0.076 -0.137,0.053 -0.014,-0.006 -0.026,-0.015 -0.035,-0.025l-0.675 -0.666c-0.131,0.093 -0.291,0.161 -0.466,0.212 -0.205,0.06 -0.429,0.097 -0.65,0.125 -0.083,0.01 -0.17,0.019 -0.25,0.027 -0.35,0.036 -0.498,0.051 -0.772,0.339 -0.04,0.041 -0.105,0.043 -0.147,0.003 -0.041,-0.039 -0.043,-0.105 -0.003,-0.146 0.327,-0.343 0.497,-0.361 0.901,-0.402 0.067,-0.007 0.143,-0.015 0.246,-0.027 0.214,-0.027 0.428,-0.063 0.617,-0.118 0.184,-0.054 0.346,-0.126 0.464,-0.227 0.04,-0.036 0.102,-0.035 0.141,0.003l0.637 0.628 0.193 -0.434c0.01,-0.023 0.028,-0.043 0.053,-0.053 0.052,-0.023 0.113,0 0.137,0.053l0.192 0.434 0.635 -0.626c0.038,-0.038 0.1,-0.041 0.141,-0.006 0.119,0.102 0.281,0.174 0.465,0.228 0.189,0.055 0.403,0.091 0.617,0.118 0.101,0.012 0.176,0.02 0.243,0.027l0.003 0c0.403,0.041 0.573,0.059 0.901,0.402z"/>
    <path class="fil1" d="M4.561 4.131c0.194,-0.241 0.354,-0.529 0.354,-0.797l0 -0.11 0 -0.604 0 -0.138c0.004,-0.128 -0.009,-0.386 -0.023,-0.48 -0.044,-0.293 -0.76,-0.541 -1.281,-0.614 -0.52,-0.073 -0.817,-0.088 -1.061,0.214 -0.129,0.16 -0.24,0.544 -0.243,0.867l0 0.151 0 0.604 0 0.11c0,0.268 0.159,0.556 0.353,0.797 0.037,0.047 0.077,0.092 0.118,0.135 0.233,0.241 0.52,0.409 0.833,0.412 0.311,-0.003 0.597,-0.169 0.829,-0.409 0.042,-0.044 0.083,-0.09 0.121,-0.138z"/>
    <path class="fil2" d="M4.481 4.066c0.098,-0.123 0.188,-0.258 0.249,-0.396 0.05,-0.113 0.081,-0.227 0.081,-0.336 0,-0.255 -0.027,-0.619 0,-0.856 0.002,-0.059 0,-0.15 -0.004,-0.238 -0.004,-0.09 -0.011,-0.177 -0.018,-0.223 -0.014,-0.092 -0.146,-0.19 -0.329,-0.277 -0.25,-0.12 -0.585,-0.211 -0.863,-0.25 -0.251,-0.035 -0.448,-0.056 -0.605,-0.033 -0.143,0.021 -0.258,0.082 -0.361,0.21 -0.056,0.07 -0.11,0.194 -0.151,0.339 -0.041,0.148 -0.068,0.313 -0.07,0.463 0.001,0.288 0.001,0.577 0.001,0.865 0,0.109 0.03,0.223 0.08,0.336 0.061,0.138 0.151,0.274 0.249,0.396 0.017,0.021 0.035,0.043 0.056,0.066 0.021,0.023 0.04,0.044 0.057,0.062 0.114,0.118 0.241,0.217 0.377,0.284 0.121,0.06 0.249,0.095 0.381,0.097 0.131,-0.002 0.259,-0.037 0.379,-0.096 0.135,-0.067 0.262,-0.165 0.376,-0.282 0.02,-0.021 0.04,-0.042 0.058,-0.063 0.018,-0.021 0.037,-0.043 0.057,-0.068zm0.439 -0.312c-0.069,0.155 -0.168,0.306 -0.278,0.442 -0.019,0.024 -0.04,0.049 -0.062,0.074 -0.022,0.025 -0.044,0.049 -0.066,0.071 -0.129,0.134 -0.275,0.246 -0.432,0.324 -0.147,0.073 -0.305,0.115 -0.471,0.117l-0.001 0c-0.166,-0.002 -0.325,-0.045 -0.472,-0.118 -0.158,-0.078 -0.305,-0.192 -0.434,-0.326 -0.024,-0.024 -0.045,-0.047 -0.064,-0.069 -0.019,-0.021 -0.039,-0.046 -0.061,-0.073 -0.11,-0.136 -0.209,-0.287 -0.277,-0.442 -0.062,-0.138 -0.099,-0.281 -0.099,-0.42 0,-0.135 -0.019,-0.809 0,-0.867 0.002,-0.169 0.032,-0.354 0.078,-0.517 0.048,-0.17 0.115,-0.321 0.189,-0.413 0.14,-0.174 0.296,-0.257 0.492,-0.285 0.182,-0.027 0.395,-0.005 0.664,0.033 0.295,0.041 0.653,0.138 0.924,0.268 0.241,0.116 0.419,0.263 0.445,0.433 0.007,0.051 0.014,0.146 0.019,0.245 0.004,0.09 0.006,0.185 0.004,0.251l0 0.852c0,0.139 -0.037,0.282 -0.098,0.42z"/>
    <path class="fil1" d="M5.21 2.922c0,-0.167 -0.132,-0.302 -0.295,-0.302l0 0.604c0.163,0 0.295,-0.135 0.295,-0.302z"/>
    <path class="fil2" d="M5.106 2.922c0,-0.056 -0.022,-0.105 -0.056,-0.141 -0.01,-0.01 -0.02,-0.019 -0.032,-0.026l0 0.334c0.012,-0.008 0.022,-0.016 0.031,-0.026 0.035,-0.036 0.057,-0.086 0.057,-0.141zm0.092 -0.286c0.072,0.074 0.116,0.175 0.116,0.286 0,0.111 -0.044,0.212 -0.116,0.286 -0.073,0.074 -0.173,0.12 -0.283,0.12l-0.104 0 0 -0.812 0.104 0c0.11,0 0.21,0.046 0.283,0.12z"/>
    <path class="fil1" d="M2.307 3.224l0 -0.604c-0.164,0 -0.296,0.135 -0.296,0.302 0,0.167 0.132,0.302 0.296,0.302z"/>
    <path class="fil2" d="M2.203 3.089l0 -0.334c-0.011,0.008 -0.022,0.016 -0.031,0.025 -0.035,0.036 -0.057,0.086 -0.057,0.142 0,0.055 0.022,0.105 0.057,0.141 0.009,0.01 0.02,0.018 0.031,0.026zm0.208 -0.469l0 0.708 -0.104 0c-0.111,0 -0.211,-0.046 -0.283,-0.12 -0.072,-0.074 -0.117,-0.175 -0.117,-0.286 0,-0.111 0.045,-0.213 0.116,-0.286 0.073,-0.074 0.173,-0.12 0.284,-0.12l0.104 0 0 0.104z"/>
    <path class="fil4" d="M5.125 1.515c-0.185,-0.632 -1.03,-0.977 -1.689,-0.984 -0.48,-0.004 -1.127,0.138 -1.114,0.915 -0.44,0.252 -0.175,0.837 -0.098,1.186 0.026,-0.008 0.054,-0.012 0.083,-0.012l0 -0.151c0.003,-0.323 0.114,-0.707 0.243,-0.867 0.244,-0.302 0.541,-0.287 1.061,-0.214 0.521,0.073 1.237,0.321 1.281,0.614 0.014,0.094 0.027,0.352 0.023,0.48l0 0.138c0.039,0 0.077,0.008 0.112,0.023 0.075,-0.349 0.18,-0.847 0.098,-1.128z"/>
    <path class="fil2" d="M5.025 1.544c-0.077,-0.263 -0.284,-0.473 -0.544,-0.625 -0.316,-0.183 -0.707,-0.281 -1.046,-0.284l-0.057 0c-0.217,0.004 -0.46,0.041 -0.646,0.159 -0.176,0.111 -0.304,0.302 -0.307,0.617l0 0.035c0,0.039 -0.021,0.072 -0.052,0.09 -0.237,0.136 -0.213,0.419 -0.15,0.685 0.014,-0.092 0.033,-0.185 0.058,-0.271 0.048,-0.17 0.115,-0.321 0.189,-0.413 0.14,-0.174 0.296,-0.257 0.492,-0.285 0.182,-0.027 0.395,-0.005 0.664,0.033 0.295,0.041 0.653,0.138 0.924,0.268 0.241,0.116 0.419,0.263 0.445,0.433l0 0.004c0.006,0.042 0.012,0.114 0.017,0.192 0.007,-0.047 0.014,-0.095 0.02,-0.141 0.024,-0.192 0.03,-0.373 -0.007,-0.497zm-0.44 -0.804c0.303,0.177 0.546,0.427 0.639,0.746 0.046,0.156 0.041,0.365 0.014,0.58 -0.026,0.207 -0.071,0.422 -0.109,0.598l-0.006 0.019c-0.023,0.052 -0.083,0.077 -0.136,0.055 -0.011,-0.005 -0.023,-0.009 -0.036,-0.011 -0.01,-0.002 -0.022,-0.003 -0.036,-0.003 -0.058,0 -0.104,-0.047 -0.104,-0.104l0 -0.142c0.002,-0.059 0,-0.15 -0.004,-0.238 -0.004,-0.088 -0.011,-0.173 -0.017,-0.22l-0.001 -0.003c-0.014,-0.092 -0.146,-0.19 -0.329,-0.277 -0.25,-0.12 -0.585,-0.211 -0.863,-0.25 -0.251,-0.035 -0.448,-0.056 -0.605,-0.033 -0.143,0.021 -0.258,0.082 -0.361,0.21 -0.056,0.07 -0.11,0.194 -0.151,0.339 -0.04,0.145 -0.067,0.307 -0.07,0.455l0.001 0.159c0,0.057 -0.047,0.104 -0.104,0.104l-0.028 0.001c-0.008,0.002 -0.017,0.004 -0.025,0.006l-0.008 0.002c-0.057,0.012 -0.112,-0.023 -0.124,-0.079 -0.013,-0.059 -0.03,-0.121 -0.048,-0.187 -0.101,-0.361 -0.228,-0.821 0.144,-1.078 0.01,-0.387 0.176,-0.626 0.404,-0.771 0.224,-0.141 0.505,-0.186 0.753,-0.19l0.062 0c0.372,0.003 0.801,0.11 1.148,0.312z"/>
    <path class="fil5" d="M3.864 5.926l0.809 -0.798c-0.089,-0.077 -0.158,-0.169 -0.198,-0.28l-0.864 0.507 0.253 0.571z"/>
    <path class="fil2" d="M3.898 5.747l0.627 -0.619c-0.019,-0.021 -0.037,-0.044 -0.054,-0.067 -0.015,-0.021 -0.029,-0.043 -0.042,-0.066l-0.686 0.402 0.155 0.35zm0.848 -0.545l-0.805 0.794c-0.009,0.01 -0.021,0.019 -0.035,0.025 -0.053,0.023 -0.114,0 -0.137,-0.053l-0.253 -0.572c-0.021,-0.047 -0.004,-0.104 0.042,-0.131l0.862 -0.505c0.006,-0.004 0.012,-0.007 0.02,-0.01 0.053,-0.019 0.113,0.009 0.132,0.063 0.017,0.045 0.04,0.088 0.068,0.127 0.028,0.04 0.062,0.076 0.1,0.109l0.007 0.006c0.04,0.041 0.039,0.107 -0.001,0.147z"/>
    <path class="fil5" d="M3.357 5.926l-0.809 -0.798c0.089,-0.077 0.158,-0.169 0.198,-0.28l0.865 0.507 -0.254 0.571z"/>
    <path class="fil2" d="M3.28 5.996l-0.804 -0.794c-0.041,-0.04 -0.042,-0.106 -0.002,-0.147l0.007 -0.006c0.038,-0.033 0.072,-0.069 0.1,-0.108 0.028,-0.04 0.051,-0.083 0.068,-0.128 0.019,-0.054 0.079,-0.082 0.133,-0.063 0.007,0.003 0.013,0.006 0.02,0.01l0.861 0.505c0.046,0.027 0.063,0.084 0.042,0.131l-0.253 0.572c-0.023,0.053 -0.084,0.076 -0.137,0.053 -0.014,-0.006 -0.026,-0.015 -0.035,-0.025zm-0.584 -0.868l0.627 0.619 0.155 -0.35 -0.686 -0.402c-0.013,0.023 -0.027,0.045 -0.042,0.066 -0.017,0.023 -0.035,0.046 -0.054,0.067z"/>
    <path class="fil1" d="M3.611 5.355l0.798 -0.441c-0.061,-0.167 -0.058,-0.378 0.031,-0.645 -0.232,0.24 -0.518,0.406 -0.829,0.409 -0.313,-0.003 -0.6,-0.171 -0.833,-0.412 0.091,0.268 0.093,0.48 0.033,0.647l0.8 0.442z"/>
    <path class="fil2" d="M3.611 5.236l0.675 -0.373c-0.017,-0.073 -0.025,-0.152 -0.021,-0.238 0.001,-0.024 0.002,-0.048 0.005,-0.073 -0.061,0.043 -0.124,0.081 -0.188,0.113 -0.147,0.073 -0.305,0.115 -0.471,0.117l-0.001 0c-0.166,-0.002 -0.325,-0.045 -0.472,-0.118 -0.065,-0.032 -0.128,-0.07 -0.189,-0.113 0.003,0.025 0.005,0.049 0.006,0.072 0.003,0.086 -0.004,0.166 -0.021,0.239l0.677 0.374zm0.848 -0.231l-0.848 0.468 -0.928 -0.512 0.03 -0.083c0.026,-0.071 0.038,-0.153 0.035,-0.247 -0.004,-0.097 -0.026,-0.207 -0.068,-0.332l0.173 -0.105c0.114,0.118 0.241,0.217 0.377,0.284 0.121,0.06 0.249,0.095 0.381,0.097 0.131,-0.002 0.259,-0.037 0.379,-0.096 0.135,-0.067 0.262,-0.165 0.376,-0.282l0.172 0.105c-0.041,0.124 -0.063,0.234 -0.066,0.331 -0.004,0.093 0.008,0.174 0.034,0.246l0.03 0.083 -0.077 0.043z"/>
    <path class="fil3" d="M6.827 5.961c-0.359,-0.376 -0.516,-0.326 -1.084,-0.397 -0.435,-0.055 -0.875,-0.146 -1.136,-0.37l-0.743 0.732 -0.253 -0.571 -0.254 0.571 -0.743 -0.733c-0.262,0.225 -0.702,0.316 -1.138,0.371 -0.568,0.071 -0.724,0.021 -1.084,0.397 1.287,1.776 5.176,1.775 6.435,0z"/>
    <path class="fil2" d="M6.903 5.89c0.039,0.041 0.037,0.107 -0.004,0.146 -0.041,0.04 -0.107,0.038 -0.147,-0.003 -0.274,-0.288 -0.422,-0.303 -0.771,-0.339l-0.003 0c-0.079,-0.008 -0.166,-0.017 -0.247,-0.027 -0.222,-0.028 -0.445,-0.065 -0.65,-0.125 -0.175,-0.051 -0.335,-0.119 -0.466,-0.211l-0.678 0.669c-0.041,0.04 -0.107,0.04 -0.147,-0.001 -0.009,-0.009 -0.016,-0.02 -0.021,-0.031l-0.158 -0.357 -0.159 0.357c-0.023,0.053 -0.084,0.076 -0.137,0.053 -0.014,-0.006 -0.026,-0.015 -0.035,-0.025l-0.675 -0.666c-0.131,0.093 -0.291,0.161 -0.466,0.212 -0.205,0.06 -0.429,0.097 -0.65,0.125 -0.083,0.01 -0.17,0.019 -0.25,0.027 -0.35,0.036 -0.498,0.051 -0.772,0.339 -0.04,0.041 -0.105,0.043 -0.147,0.003 -0.041,-0.039 -0.043,-0.105 -0.003,-0.146 0.327,-0.343 0.497,-0.361 0.901,-0.402 0.067,-0.007 0.143,-0.015 0.246,-0.027 0.214,-0.027 0.428,-0.063 0.617,-0.118 0.184,-0.054 0.346,-0.126 0.464,-0.227 0.04,-0.036 0.102,-0.035 0.141,0.003l0.637 0.628 0.193 -0.434c0.01,-0.023 0.028,-0.043 0.053,-0.053 0.052,-0.023 0.113,0 0.137,0.053l0.192 0.434 0.635 -0.626c0.038,-0.038 0.1,-0.041 0.141,-0.006 0.119,0.102 0.281,0.174 0.465,0.228 0.189,0.055 0.403,0.091 0.617,0.118 0.101,0.012 0.176,0.02 0.243,0.027l0.003 0c0.403,0.041 0.573,0.059 0.901,0.402z"/>
    <path class="fil1" d="M4.561 4.131c0.194,-0.241 0.354,-0.529 0.354,-0.797l0 -0.11 0 -0.604 0 -0.138c0.004,-0.128 -0.009,-0.386 -0.023,-0.48 -0.044,-0.293 -0.76,-0.541 -1.281,-0.614 -0.52,-0.073 -0.817,-0.088 -1.061,0.214 -0.129,0.16 -0.24,0.544 -0.243,0.867l0 0.151 0 0.604 0 0.11c0,0.268 0.159,0.556 0.353,0.797 0.037,0.047 0.077,0.092 0.118,0.135 0.233,0.241 0.52,0.409 0.833,0.412 0.311,-0.003 0.597,-0.169 0.829,-0.409 0.042,-0.044 0.083,-0.09 0.121,-0.138z"/>
    <path class="fil2" d="M4.481 4.066c0.098,-0.123 0.188,-0.258 0.249,-0.396 0.05,-0.113 0.081,-0.227 0.081,-0.336 0,-0.255 -0.027,-0.619 0,-0.856 0.002,-0.059 0,-0.15 -0.004,-0.238 -0.004,-0.09 -0.011,-0.177 -0.018,-0.223 -0.014,-0.092 -0.146,-0.19 -0.329,-0.277 -0.25,-0.12 -0.585,-0.211 -0.863,-0.25 -0.251,-0.035 -0.448,-0.056 -0.605,-0.033 -0.143,0.021 -0.258,0.082 -0.361,0.21 -0.056,0.07 -0.11,0.194 -0.151,0.339 -0.041,0.148 -0.068,0.313 -0.07,0.463 0.001,0.288 0.001,0.577 0.001,0.865 0,0.109 0.03,0.223 0.08,0.336 0.061,0.138 0.151,0.274 0.249,0.396 0.017,0.021 0.035,0.043 0.056,0.066 0.021,0.023 0.04,0.044 0.057,0.062 0.114,0.118 0.241,0.217 0.377,0.284 0.121,0.06 0.249,0.095 0.381,0.097 0.131,-0.002 0.259,-0.037 0.379,-0.096 0.135,-0.067 0.262,-0.165 0.376,-0.282 0.02,-0.021 0.04,-0.042 0.058,-0.063 0.018,-0.021 0.037,-0.043 0.057,-0.068zm0.439 -0.312c-0.069,0.155 -0.168,0.306 -0.278,0.442 -0.019,0.024 -0.04,0.049 -0.062,0.074 -0.022,0.025 -0.044,0.049 -0.066,0.071 -0.129,0.134 -0.275,0.246 -0.432,0.324 -0.147,0.073 -0.305,0.115 -0.471,0.117l-0.001 0c-0.166,-0.002 -0.325,-0.045 -0.472,-0.118 -0.158,-0.078 -0.305,-0.192 -0.434,-0.326 -0.024,-0.024 -0.045,-0.047 -0.064,-0.069 -0.019,-0.021 -0.039,-0.046 -0.061,-0.073 -0.11,-0.136 -0.209,-0.287 -0.277,-0.442 -0.062,-0.138 -0.099,-0.281 -0.099,-0.42 0,-0.135 -0.019,-0.809 0,-0.867 0.002,-0.169 0.032,-0.354 0.078,-0.517 0.048,-0.17 0.115,-0.321 0.189,-0.413 0.14,-0.174 0.296,-0.257 0.492,-0.285 0.182,-0.027 0.395,-0.005 0.664,0.033 0.295,0.041 0.653,0.138 0.924,0.268 0.241,0.116 0.419,0.263 0.445,0.433 0.007,0.051 0.014,0.146 0.019,0.245 0.004,0.09 0.006,0.185 0.004,0.251l0 0.852c0,0.139 -0.037,0.282 -0.098,0.42z"/>
    <path class="fil1" d="M5.21 2.922c0,-0.167 -0.132,-0.302 -0.295,-0.302l0 0.604c0.163,0 0.295,-0.135 0.295,-0.302z"/>
    <path class="fil2" d="M5.106 2.922c0,-0.056 -0.022,-0.105 -0.056,-0.141 -0.01,-0.01 -0.02,-0.019 -0.032,-0.026l0 0.334c0.012,-0.008 0.022,-0.016 0.031,-0.026 0.035,-0.036 0.057,-0.086 0.057,-0.141zm0.092 -0.286c0.072,0.074 0.116,0.175 0.116,0.286 0,0.111 -0.044,0.212 -0.116,0.286 -0.073,0.074 -0.173,0.12 -0.283,0.12l-0.104 0 0 -0.812 0.104 0c0.11,0 0.21,0.046 0.283,0.12z"/>
    <path class="fil1" d="M2.307 3.224l0 -0.604c-0.164,0 -0.296,0.135 -0.296,0.302 0,0.167 0.132,0.302 0.296,0.302z"/>
    <path class="fil2" d="M2.203 3.089l0 -0.334c-0.011,0.008 -0.022,0.016 -0.031,0.025 -0.035,0.036 -0.057,0.086 -0.057,0.142 0,0.055 0.022,0.105 0.057,0.141 0.009,0.01 0.02,0.018 0.031,0.026zm0.208 -0.469l0 0.708 -0.104 0c-0.111,0 -0.211,-0.046 -0.283,-0.12 -0.072,-0.074 -0.117,-0.175 -0.117,-0.286 0,-0.111 0.045,-0.213 0.116,-0.286 0.073,-0.074 0.173,-0.12 0.284,-0.12l0.104 0 0 0.104z"/>
    <path class="fil4" d="M5.125 1.515c-0.185,-0.632 -1.03,-0.977 -1.689,-0.984 -0.48,-0.004 -1.127,0.138 -1.114,0.915 -0.44,0.252 -0.175,0.837 -0.098,1.186 0.026,-0.008 0.054,-0.012 0.083,-0.012l0 -0.151c0.003,-0.323 0.114,-0.707 0.243,-0.867 0.244,-0.302 0.541,-0.287 1.061,-0.214 0.521,0.073 1.237,0.321 1.281,0.614 0.014,0.094 0.027,0.352 0.023,0.48l0 0.138c0.039,0 0.077,0.008 0.112,0.023 0.075,-0.349 0.18,-0.847 0.098,-1.128z"/>
    <path class="fil2" d="M5.025 1.544c-0.077,-0.263 -0.284,-0.473 -0.544,-0.625 -0.316,-0.183 -0.707,-0.281 -1.046,-0.284l-0.057 0c-0.217,0.004 -0.46,0.041 -0.646,0.159 -0.176,0.111 -0.304,0.302 -0.307,0.617l0 0.035c0,0.039 -0.021,0.072 -0.052,0.09 -0.237,0.136 -0.213,0.419 -0.15,0.685 0.014,-0.092 0.033,-0.185 0.058,-0.271 0.048,-0.17 0.115,-0.321 0.189,-0.413 0.14,-0.174 0.296,-0.257 0.492,-0.285 0.182,-0.027 0.395,-0.005 0.664,0.033 0.295,0.041 0.653,0.138 0.924,0.268 0.241,0.116 0.419,0.263 0.445,0.433l0 0.004c0.006,0.042 0.012,0.114 0.017,0.192 0.007,-0.047 0.014,-0.095 0.02,-0.141 0.024,-0.192 0.03,-0.373 -0.007,-0.497zm-0.44 -0.804c0.303,0.177 0.546,0.427 0.639,0.746 0.046,0.156 0.041,0.365 0.014,0.58 -0.026,0.207 -0.071,0.422 -0.109,0.598l-0.006 0.019c-0.023,0.052 -0.083,0.077 -0.136,0.055 -0.011,-0.005 -0.023,-0.009 -0.036,-0.011 -0.01,-0.002 -0.022,-0.003 -0.036,-0.003 -0.058,0 -0.104,-0.047 -0.104,-0.104l0 -0.142c0.002,-0.059 0,-0.15 -0.004,-0.238 -0.004,-0.088 -0.011,-0.173 -0.017,-0.22l-0.001 -0.003c-0.014,-0.092 -0.146,-0.19 -0.329,-0.277 -0.25,-0.12 -0.585,-0.211 -0.863,-0.25 -0.251,-0.035 -0.448,-0.056 -0.605,-0.033 -0.143,0.021 -0.258,0.082 -0.361,0.21 -0.056,0.07 -0.11,0.194 -0.151,0.339 -0.04,0.145 -0.067,0.307 -0.07,0.455l0.001 0.159c0,0.057 -0.047,0.104 -0.104,0.104l-0.028 0.001c-0.008,0.002 -0.017,0.004 -0.025,0.006l-0.008 0.002c-0.057,0.012 -0.112,-0.023 -0.124,-0.079 -0.013,-0.059 -0.03,-0.121 -0.048,-0.187 -0.101,-0.361 -0.228,-0.821 0.144,-1.078 0.01,-0.387 0.176,-0.626 0.404,-0.771 0.224,-0.141 0.505,-0.186 0.753,-0.19l0.062 0c0.372,0.003 0.801,0.11 1.148,0.312z"/>
    <path class="fil5" d="M3.864 5.926l0.809 -0.798c-0.089,-0.077 -0.158,-0.169 -0.198,-0.28l-0.864 0.507 0.253 0.571z"/>
    <path class="fil2" d="M3.898 5.747l0.627 -0.619c-0.019,-0.021 -0.037,-0.044 -0.054,-0.067 -0.015,-0.021 -0.029,-0.043 -0.042,-0.066l-0.686 0.402 0.155 0.35zm0.848 -0.545l-0.805 0.794c-0.009,0.01 -0.021,0.019 -0.035,0.025 -0.053,0.023 -0.114,0 -0.137,-0.053l-0.253 -0.572c-0.021,-0.047 -0.004,-0.104 0.042,-0.131l0.862 -0.505c0.006,-0.004 0.012,-0.007 0.02,-0.01 0.053,-0.019 0.113,0.009 0.132,0.063 0.017,0.045 0.04,0.088 0.068,0.127 0.028,0.04 0.062,0.076 0.1,0.109l0.007 0.006c0.04,0.041 0.039,0.107 -0.001,0.147z"/>
    <path class="fil5" d="M3.357 5.926l-0.809 -0.798c0.089,-0.077 0.158,-0.169 0.198,-0.28l0.865 0.507 -0.254 0.571z"/>
    <path class="fil2" d="M3.28 5.996l-0.804 -0.794c-0.041,-0.04 -0.042,-0.106 -0.002,-0.147l0.007 -0.006c0.038,-0.033 0.072,-0.069 0.1,-0.108 0.028,-0.04 0.051,-0.083 0.068,-0.128 0.019,-0.054 0.079,-0.082 0.133,-0.063 0.007,0.003 0.013,0.006 0.02,0.01l0.861 0.505c0.046,0.027 0.063,0.084 0.042,0.131l-0.253 0.572c-0.023,0.053 -0.084,0.076 -0.137,0.053 -0.014,-0.006 -0.026,-0.015 -0.035,-0.025zm-0.584 -0.868l0.627 0.619 0.155 -0.35 -0.686 -0.402c-0.013,0.023 -0.027,0.045 -0.042,0.066 -0.017,0.023 -0.035,0.046 -0.054,0.067z"/>
    <path class="fil1" d="M11.949 5.355l0.798 -0.441c-0.06,-0.167 -0.058,-0.378 0.032,-0.645 -0.233,0.24 -0.518,0.406 -0.83,0.409 -0.313,-0.003 -0.599,-0.171 -0.832,-0.412 0.09,0.268 0.093,0.48 0.032,0.647l0.8 0.442z"/>
    <path class="fil2" d="M11.949 5.236l0.676 -0.373c-0.018,-0.073 -0.025,-0.152 -0.022,-0.238 0.001,-0.024 0.003,-0.048 0.006,-0.073 -0.061,0.043 -0.124,0.081 -0.189,0.113 -0.147,0.073 -0.305,0.115 -0.47,0.117l-0.002 0c-0.166,-0.002 -0.324,-0.045 -0.471,-0.118 -0.065,-0.032 -0.128,-0.07 -0.189,-0.113 0.003,0.025 0.004,0.049 0.005,0.072 0.004,0.086 -0.004,0.166 -0.021,0.239l0.677 0.374zm0.848 -0.231l-0.848 0.468 -0.927 -0.512 0.03 -0.083c0.026,-0.071 0.038,-0.153 0.034,-0.247 -0.004,-0.097 -0.025,-0.207 -0.067,-0.332l0.173 -0.105c0.113,0.118 0.24,0.217 0.376,0.284 0.121,0.06 0.249,0.095 0.381,0.097 0.132,-0.002 0.259,-0.037 0.38,-0.096 0.135,-0.067 0.262,-0.165 0.375,-0.282l0.173 0.105c-0.042,0.124 -0.063,0.234 -0.067,0.331 -0.003,0.093 0.009,0.174 0.035,0.246l0.03 0.083 -0.078 0.043z"/>
    <path class="fil3" d="M15.166 5.961c-0.36,-0.376 -0.516,-0.326 -1.084,-0.397 -0.435,-0.055 -0.875,-0.146 -1.137,-0.37l-0.742 0.732 -0.254 -0.571 -0.253 0.571 -0.744 -0.733c-0.261,0.225 -0.702,0.316 -1.137,0.371 -0.568,0.071 -0.725,0.021 -1.085,0.397 1.288,1.776 5.177,1.775 6.436,0z"/>
    <path class="fil2" d="M15.241 5.89c0.04,0.041 0.038,0.107 -0.003,0.146 -0.042,0.04 -0.107,0.038 -0.147,-0.003 -0.274,-0.288 -0.422,-0.303 -0.772,-0.339l-0.003 0c-0.079,-0.008 -0.165,-0.017 -0.247,-0.027 -0.221,-0.028 -0.445,-0.065 -0.649,-0.125 -0.175,-0.051 -0.335,-0.119 -0.466,-0.211l-0.679 0.669c-0.04,0.04 -0.106,0.04 -0.146,-0.001 -0.009,-0.009 -0.016,-0.02 -0.021,-0.031l-0.159 -0.357 -0.158 0.357c-0.023,0.053 -0.085,0.076 -0.137,0.053 -0.014,-0.006 -0.026,-0.015 -0.035,-0.025l-0.675 -0.666c-0.131,0.093 -0.291,0.161 -0.466,0.212 -0.205,0.06 -0.429,0.097 -0.651,0.125 -0.082,0.01 -0.17,0.019 -0.25,0.027 -0.349,0.036 -0.497,0.051 -0.771,0.339 -0.04,0.041 -0.106,0.043 -0.147,0.003 -0.041,-0.039 -0.043,-0.105 -0.004,-0.146 0.328,-0.343 0.498,-0.361 0.901,-0.402 0.068,-0.007 0.143,-0.015 0.246,-0.027 0.214,-0.027 0.429,-0.063 0.618,-0.118 0.183,-0.054 0.345,-0.126 0.463,-0.227 0.041,-0.036 0.103,-0.035 0.142,0.003l0.637 0.628 0.192 -0.434c0.01,-0.023 0.029,-0.043 0.053,-0.053 0.053,-0.023 0.114,0 0.137,0.053l0.193 0.434 0.634 -0.626c0.038,-0.038 0.1,-0.041 0.142,-0.006 0.118,0.102 0.281,0.174 0.464,0.228 0.19,0.055 0.404,0.091 0.617,0.118 0.102,0.012 0.177,0.02 0.243,0.027l0.003 0c0.403,0.041 0.574,0.059 0.901,0.402z"/>
    <path class="fil1" d="M12.9 4.131c0.194,-0.241 0.353,-0.529 0.353,-0.797l0 -0.11 0 -0.604 0 -0.138c0.005,-0.128 -0.008,-0.386 -0.022,-0.48 -0.044,-0.293 -0.76,-0.541 -1.281,-0.614 -0.521,-0.073 -0.818,-0.088 -1.061,0.214 -0.129,0.16 -0.24,0.544 -0.244,0.867l0 0.151 0 0.604 0 0.11c0,0.268 0.159,0.556 0.353,0.797 0.038,0.047 0.078,0.092 0.119,0.135 0.233,0.241 0.519,0.409 0.832,0.412 0.312,-0.003 0.597,-0.169 0.83,-0.409 0.042,-0.044 0.082,-0.09 0.121,-0.138z"/>
    <path class="fil2" d="M12.819 4.066c0.099,-0.123 0.188,-0.258 0.249,-0.396 0.051,-0.113 0.081,-0.227 0.081,-0.336 0,-0.255 -0.026,-0.619 0.001,-0.856 0.002,-0.059 0,-0.15 -0.004,-0.238 -0.004,-0.09 -0.011,-0.177 -0.018,-0.223 -0.014,-0.092 -0.146,-0.19 -0.329,-0.277 -0.25,-0.12 -0.585,-0.211 -0.863,-0.25 -0.252,-0.035 -0.448,-0.056 -0.605,-0.033 -0.144,0.021 -0.258,0.082 -0.361,0.21 -0.056,0.07 -0.11,0.194 -0.151,0.339 -0.041,0.148 -0.068,0.313 -0.07,0.463 0.001,0.288 0,0.577 0,0.865 0,0.109 0.031,0.223 0.081,0.336 0.061,0.138 0.15,0.274 0.249,0.396 0.016,0.021 0.035,0.043 0.056,0.066 0.02,0.023 0.039,0.044 0.057,0.062 0.113,0.118 0.24,0.217 0.376,0.284 0.121,0.06 0.249,0.095 0.381,0.097 0.132,-0.002 0.259,-0.037 0.38,-0.096 0.135,-0.067 0.262,-0.165 0.375,-0.282 0.021,-0.021 0.04,-0.042 0.058,-0.063 0.019,-0.021 0.038,-0.043 0.057,-0.068zm0.439 -0.312c-0.068,0.155 -0.168,0.306 -0.277,0.442 -0.019,0.024 -0.04,0.049 -0.063,0.074 -0.022,0.025 -0.044,0.049 -0.065,0.071 -0.129,0.134 -0.275,0.246 -0.433,0.324 -0.147,0.073 -0.305,0.115 -0.47,0.117l-0.002 0c-0.166,-0.002 -0.324,-0.045 -0.471,-0.118 -0.159,-0.078 -0.305,-0.192 -0.435,-0.326 -0.023,-0.024 -0.044,-0.047 -0.063,-0.069 -0.019,-0.021 -0.04,-0.046 -0.061,-0.073 -0.11,-0.136 -0.209,-0.287 -0.278,-0.442 -0.061,-0.138 -0.099,-0.281 -0.099,-0.42 0,-0.135 -0.018,-0.809 0.001,-0.867 0.002,-0.169 0.031,-0.354 0.077,-0.517 0.048,-0.17 0.115,-0.321 0.189,-0.413 0.14,-0.174 0.296,-0.257 0.492,-0.285 0.183,-0.027 0.395,-0.005 0.664,0.033 0.296,0.041 0.654,0.138 0.924,0.268 0.242,0.116 0.42,0.263 0.445,0.433 0.008,0.051 0.015,0.146 0.02,0.245 0.004,0.09 0.006,0.185 0.004,0.251l0 0.852c0,0.139 -0.037,0.282 -0.099,0.42z"/>
    <path class="fil1" d="M13.549 2.922c0,-0.167 -0.133,-0.302 -0.296,-0.302l0 0.604c0.163,0 0.296,-0.135 0.296,-0.302z"/>
    <path class="fil2" d="M13.445 2.922c0,-0.056 -0.022,-0.105 -0.057,-0.141 -0.009,-0.01 -0.02,-0.019 -0.031,-0.026l0 0.334c0.011,-0.008 0.022,-0.016 0.031,-0.026 0.035,-0.036 0.057,-0.086 0.057,-0.141zm0.091 -0.286c0.072,0.074 0.117,0.175 0.117,0.286 0,0.111 -0.045,0.212 -0.117,0.286 -0.072,0.074 -0.172,0.12 -0.283,0.12l-0.104 0 0 -0.812 0.104 0c0.111,0 0.211,0.046 0.283,0.12z"/>
    <path class="fil1" d="M10.645 3.224l0 -0.604c-0.163,0 -0.295,0.135 -0.295,0.302 0,0.167 0.132,0.302 0.295,0.302z"/>
    <path class="fil2" d="M10.541 3.089l0 -0.334c-0.011,0.008 -0.021,0.016 -0.03,0.025 -0.035,0.036 -0.057,0.086 -0.057,0.142 0,0.055 0.022,0.105 0.057,0.141 0.009,0.01 0.019,0.018 0.03,0.026zm0.208 -0.469l0 0.708 -0.104 0c-0.11,0 -0.21,-0.046 -0.283,-0.12 -0.072,-0.074 -0.116,-0.175 -0.116,-0.286 0,-0.111 0.044,-0.213 0.116,-0.286 0.073,-0.074 0.173,-0.12 0.283,-0.12l0.104 0 0 0.104z"/>
    <path class="fil4" d="M13.463 1.515c-0.185,-0.632 -1.029,-0.977 -1.688,-0.984 -0.481,-0.004 -1.128,0.138 -1.115,0.915 -0.439,0.252 -0.174,0.837 -0.098,1.186 0.027,-0.008 0.054,-0.012 0.083,-0.012l0 -0.151c0.004,-0.323 0.115,-0.707 0.244,-0.867 0.243,-0.302 0.54,-0.287 1.061,-0.214 0.521,0.073 1.237,0.321 1.281,0.614 0.014,0.094 0.027,0.352 0.022,0.48l0 0.138c0.04,0 0.078,0.008 0.113,0.023 0.075,-0.349 0.18,-0.847 0.097,-1.128z"/>
    <path class="fil2" d="M13.364 1.544c-0.077,-0.263 -0.284,-0.473 -0.545,-0.625 -0.315,-0.183 -0.706,-0.281 -1.045,-0.284l-0.057 0c-0.217,0.004 -0.46,0.041 -0.646,0.159 -0.177,0.111 -0.304,0.302 -0.307,0.617l0 0.035c0,0.039 -0.021,0.072 -0.052,0.09 -0.238,0.136 -0.213,0.419 -0.15,0.685 0.013,-0.092 0.033,-0.185 0.057,-0.271 0.048,-0.17 0.115,-0.321 0.189,-0.413 0.14,-0.174 0.296,-0.257 0.492,-0.285 0.183,-0.027 0.395,-0.005 0.664,0.033 0.296,0.041 0.654,0.138 0.924,0.268 0.242,0.116 0.42,0.263 0.445,0.433l0.001 0.004c0.006,0.042 0.012,0.114 0.016,0.192 0.008,-0.047 0.015,-0.095 0.021,-0.141 0.023,-0.192 0.029,-0.373 -0.007,-0.497zm-0.441 -0.804c0.304,0.177 0.546,0.427 0.64,0.746 0.046,0.156 0.041,0.365 0.014,0.58 -0.026,0.207 -0.072,0.422 -0.11,0.598l-0.006 0.019c-0.022,0.052 -0.083,0.077 -0.135,0.055 -0.012,-0.005 -0.024,-0.009 -0.036,-0.011 -0.01,-0.002 -0.023,-0.003 -0.037,-0.003 -0.057,0 -0.104,-0.047 -0.104,-0.104l0.001 -0.142c0.002,-0.059 0,-0.15 -0.004,-0.238 -0.004,-0.088 -0.011,-0.173 -0.018,-0.22l0 -0.003c-0.014,-0.092 -0.146,-0.19 -0.329,-0.277 -0.25,-0.12 -0.585,-0.211 -0.863,-0.25 -0.252,-0.035 -0.448,-0.056 -0.605,-0.033 -0.144,0.021 -0.258,0.082 -0.361,0.21 -0.056,0.07 -0.11,0.194 -0.151,0.339 -0.041,0.145 -0.067,0.307 -0.07,0.455l0 0.159c0,0.057 -0.046,0.104 -0.104,0.104l-0.027 0.001c-0.008,0.002 -0.017,0.004 -0.026,0.006l-0.008 0.002c-0.056,0.012 -0.111,-0.023 -0.123,-0.079 -0.013,-0.059 -0.03,-0.121 -0.049,-0.187 -0.1,-0.361 -0.228,-0.821 0.145,-1.078 0.009,-0.387 0.175,-0.626 0.404,-0.771 0.223,-0.141 0.504,-0.186 0.752,-0.19l0.063 0c0.372,0.003 0.801,0.11 1.147,0.312z"/>
    <path class="fil5" d="M12.203 5.926l0.809 -0.798c-0.09,-0.077 -0.158,-0.169 -0.198,-0.28l-0.865 0.507 0.254 0.571z"/>
    <path class="fil2" d="M12.237 5.747l0.627 -0.619c-0.019,-0.021 -0.037,-0.044 -0.054,-0.067 -0.015,-0.021 -0.029,-0.043 -0.042,-0.066l-0.686 0.402 0.155 0.35zm0.847 -0.545l-0.804 0.794c-0.01,0.01 -0.022,0.019 -0.035,0.025 -0.053,0.023 -0.114,0 -0.137,-0.053l-0.254 -0.572c-0.02,-0.047 -0.003,-0.104 0.043,-0.131l0.861 -0.505c0.006,-0.004 0.013,-0.007 0.02,-0.01 0.054,-0.019 0.114,0.009 0.133,0.063 0.017,0.045 0.04,0.088 0.068,0.127 0.028,0.04 0.062,0.076 0.1,0.109l0.006 0.006c0.041,0.041 0.04,0.107 -0.001,0.147z"/>
    <path class="fil5" d="M11.696 5.926l-0.809 -0.798c0.089,-0.077 0.158,-0.169 0.198,-0.28l0.864 0.507 -0.253 0.571z"/>
    <path class="fil2" d="M11.619 5.996l-0.805 -0.794c-0.04,-0.04 -0.041,-0.106 -0.001,-0.147l0.007 -0.006c0.038,-0.033 0.072,-0.069 0.1,-0.108 0.028,-0.04 0.051,-0.083 0.067,-0.128 0.02,-0.054 0.079,-0.082 0.133,-0.063 0.007,0.003 0.014,0.006 0.02,0.01l0.862 0.505c0.045,0.027 0.063,0.084 0.042,0.131l-0.253 0.572c-0.023,0.053 -0.085,0.076 -0.137,0.053 -0.014,-0.006 -0.026,-0.015 -0.035,-0.025zm-0.584 -0.868l0.627 0.619 0.155 -0.35 -0.686 -0.402c-0.013,0.023 -0.027,0.045 -0.042,0.066 -0.017,0.023 -0.035,0.046 -0.054,0.067z"/>
    <path class="fil5" d="M11.244 7.002c-0.332,-0.382 -0.503,-0.471 -0.791,-0.515 -0.447,0.402 -1.089,0.701 -1.809,0.838 -0.047,0.269 0.044,0.528 0.386,0.785 -0.282,-0.019 -0.928,-0.112 -1.096,-0.705 -0.048,0.001 -0.115,0.001 -0.157,0.001 -1.085,0 -2.051,-0.358 -2.673,-0.916 -0.288,0.044 -0.458,0.132 -0.79,0.514 1.374,1.935 5.557,1.934 6.93,-0.002z"/>
    <path class="fil2" d="M11.322 6.934c0.038,0.044 0.033,0.109 -0.01,0.146 -0.044,0.038 -0.109,0.033 -0.147,-0.01 -0.159,-0.183 -0.277,-0.295 -0.388,-0.365 -0.093,-0.058 -0.183,-0.087 -0.293,-0.107 -0.224,0.194 -0.492,0.364 -0.792,0.503 -0.291,0.135 -0.614,0.241 -0.954,0.311 -0.006,0.091 0.007,0.18 0.047,0.267 0.053,0.115 0.151,0.231 0.308,0.349 0.045,0.034 0.054,0.099 0.02,0.145 -0.022,0.029 -0.056,0.043 -0.09,0.041 -0.149,-0.01 -0.394,-0.04 -0.627,-0.147 -0.222,-0.102 -0.432,-0.273 -0.537,-0.558l-0.082 0.001c-0.544,0 -1.059,-0.088 -1.518,-0.245 -0.461,-0.158 -0.865,-0.386 -1.186,-0.665 -0.11,0.02 -0.201,0.05 -0.293,0.108 -0.11,0.069 -0.228,0.18 -0.387,0.363 -0.038,0.044 -0.103,0.048 -0.147,0.011 -0.043,-0.038 -0.048,-0.103 -0.01,-0.146 0.172,-0.199 0.305,-0.322 0.435,-0.403 0.135,-0.085 0.261,-0.122 0.418,-0.146 0.029,-0.004 0.061,0.004 0.085,0.026 0.306,0.275 0.7,0.5 1.152,0.655 0.438,0.15 0.93,0.234 1.451,0.234l0.149 -0.001c0.049,-0.003 0.094,0.027 0.108,0.076 0.074,0.261 0.255,0.413 0.448,0.502 0.079,0.036 0.16,0.062 0.238,0.081 -0.053,-0.065 -0.093,-0.129 -0.123,-0.195 -0.069,-0.152 -0.082,-0.304 -0.055,-0.458 0.007,-0.042 0.04,-0.076 0.083,-0.084 0.351,-0.067 0.682,-0.173 0.981,-0.311 0.296,-0.137 0.559,-0.306 0.775,-0.499 0.022,-0.022 0.054,-0.033 0.087,-0.028 0.158,0.024 0.284,0.06 0.419,0.145 0.129,0.081 0.262,0.205 0.435,0.404z"/>
    <path class="fil1" d="M6.356 3.094l0 0.659 0 0.121c0,0.516 0.55,1.21 1.423,1.465 0.27,-0.078 0.509,-0.199 0.71,-0.344 0.45,-0.323 0.712,-0.765 0.712,-1.121l0 -0.121 0 -0.659 0 -0.165c-0.227,-0.211 -0.434,-0.203 -0.565,-1.015 -0.696,0.738 -1.735,0.765 -2.28,1.015l0 0.165z"/>
    <path class="fil2" d="M6.46 3.094l0 0.78c0,0.246 0.142,0.541 0.396,0.802 0.227,0.234 0.541,0.439 0.923,0.555 0.114,-0.035 0.224,-0.078 0.327,-0.128 0.117,-0.057 0.225,-0.122 0.323,-0.192 0.209,-0.15 0.375,-0.328 0.49,-0.509 0.116,-0.182 0.178,-0.366 0.178,-0.528l0 -0.898c-0.028,-0.024 -0.057,-0.046 -0.085,-0.068l-0.005 -0.004c-0.173,-0.131 -0.327,-0.254 -0.438,-0.781 -0.482,0.428 -1.077,0.583 -1.574,0.713 -0.201,0.053 -0.386,0.102 -0.535,0.161l0 0.097zm-0.208 0.659l0 -0.824c0,-0.039 0.023,-0.076 0.061,-0.094 0.175,-0.08 0.391,-0.137 0.63,-0.199 0.521,-0.136 1.155,-0.302 1.618,-0.793 0.015,-0.016 0.035,-0.028 0.059,-0.031 0.056,-0.009 0.109,0.029 0.118,0.086 0.098,0.61 0.237,0.722 0.394,0.841l0.006 0.005c0.041,0.031 0.084,0.064 0.128,0.104 0.024,0.019 0.039,0.049 0.039,0.081l0 0.945c0,0.201 -0.074,0.424 -0.211,0.64 -0.127,0.201 -0.312,0.398 -0.544,0.565 -0.109,0.078 -0.227,0.149 -0.354,0.211 -0.121,0.058 -0.25,0.108 -0.388,0.149 -0.018,0.005 -0.038,0.006 -0.058,0 -0.431,-0.126 -0.787,-0.355 -1.043,-0.618 -0.292,-0.301 -0.455,-0.649 -0.455,-0.947l0 -0.121z"/>
    <path class="fil1" d="M6.822 6.041c-0.289,0.231 -0.746,0.333 -1.198,0.39 -0.22,0.027 -0.383,0.038 -0.52,0.059 0.622,0.558 1.588,0.916 2.673,0.916 0.042,0 0.109,0 0.157,-0.001 -0.031,-0.109 -0.045,-0.235 -0.039,-0.38 0.036,-0.806 0.427,-0.766 0.556,-1.398 0.033,-0.159 0.049,-0.362 0.038,-0.632 -0.201,0.145 -0.44,0.266 -0.71,0.344 -0.281,-0.082 -0.528,-0.209 -0.735,-0.361 0.174,0.514 0.051,0.846 -0.222,1.063zm2.153 0.601c-0.162,0.238 -0.292,0.464 -0.331,0.683 0.72,-0.137 1.362,-0.436 1.809,-0.838 -0.137,-0.021 -0.3,-0.031 -0.52,-0.059 -0.247,-0.031 -0.51,-0.073 -0.732,-0.14 -0.074,0.123 -0.15,0.242 -0.226,0.354z"/>
    <path class="fil2" d="M6.886 6.123c-0.155,0.124 -0.354,0.213 -0.573,0.278 -0.214,0.063 -0.446,0.104 -0.677,0.133 -0.092,0.011 -0.187,0.021 -0.273,0.03l-0.005 0c0.274,0.207 0.602,0.379 0.968,0.504 0.438,0.15 0.93,0.234 1.451,0.234l0.029 0.001c-0.004,-0.022 -0.007,-0.045 -0.009,-0.068 -0.007,-0.067 -0.009,-0.138 -0.006,-0.214 0.022,-0.486 0.164,-0.684 0.309,-0.885 0.098,-0.137 0.198,-0.276 0.25,-0.529 0.015,-0.075 0.027,-0.161 0.033,-0.261 0.003,-0.05 0.005,-0.104 0.006,-0.161 -0.062,0.037 -0.126,0.072 -0.193,0.105 -0.121,0.058 -0.251,0.109 -0.389,0.149 -0.02,0.006 -0.04,0.005 -0.058,0 -0.143,-0.042 -0.277,-0.095 -0.402,-0.156 -0.047,-0.023 -0.092,-0.048 -0.137,-0.073 0.028,0.163 0.023,0.308 -0.009,0.436 -0.049,0.198 -0.161,0.354 -0.315,0.477zm-0.631 0.079c0.195,-0.058 0.369,-0.136 0.502,-0.242 0.119,-0.095 0.206,-0.214 0.243,-0.364 0.038,-0.156 0.026,-0.348 -0.054,-0.585 -0.01,-0.031 -0.006,-0.067 0.015,-0.095 0.034,-0.046 0.099,-0.056 0.145,-0.022 0.1,0.075 0.212,0.143 0.333,0.203 0.106,0.052 0.22,0.098 0.34,0.134 0.114,-0.035 0.224,-0.078 0.327,-0.128 0.115,-0.056 0.222,-0.12 0.32,-0.19 0.016,-0.013 0.037,-0.021 0.059,-0.022 0.058,-0.002 0.106,0.042 0.108,0.1 0.006,0.139 0.004,0.261 -0.003,0.368 -0.007,0.108 -0.02,0.204 -0.037,0.289 -0.061,0.297 -0.174,0.454 -0.285,0.609 -0.126,0.176 -0.251,0.349 -0.269,0.773 -0.003,0.065 -0.002,0.127 0.004,0.184 0.006,0.058 0.017,0.112 0.031,0.163 0.002,0.008 0.004,0.017 0.004,0.026 0.001,0.057 -0.045,0.104 -0.102,0.105 -0.052,0.001 -0.107,0 -0.159,0.002 -0.544,0 -1.059,-0.088 -1.518,-0.245 -0.477,-0.164 -0.895,-0.403 -1.221,-0.695 -0.019,-0.016 -0.033,-0.038 -0.037,-0.065 -0.008,-0.056 0.031,-0.109 0.088,-0.118 0.071,-0.011 0.156,-0.019 0.253,-0.029 0.075,-0.008 0.159,-0.017 0.269,-0.03 0.222,-0.028 0.444,-0.067 0.644,-0.126zm2.805 0.498c-0.078,0.115 -0.149,0.228 -0.204,0.337 -0.026,0.051 -0.048,0.102 -0.067,0.152 0.29,-0.067 0.565,-0.16 0.817,-0.277 0.217,-0.1 0.417,-0.218 0.593,-0.35l-0.006 -0.001c-0.086,-0.009 -0.181,-0.018 -0.272,-0.03 -0.123,-0.015 -0.251,-0.034 -0.382,-0.058 -0.1,-0.018 -0.197,-0.039 -0.29,-0.064l-0.071 0.112c-0.039,0.061 -0.078,0.121 -0.118,0.179zm-0.389 0.244c0.059,-0.117 0.135,-0.237 0.218,-0.36 0.038,-0.056 0.076,-0.115 0.115,-0.174 0.035,-0.055 0.071,-0.114 0.108,-0.176 0.024,-0.039 0.073,-0.06 0.119,-0.045 0.107,0.032 0.224,0.059 0.345,0.081 0.118,0.021 0.245,0.039 0.37,0.055 0.11,0.014 0.193,0.022 0.268,0.03 0.097,0.01 0.182,0.019 0.254,0.03 0.023,0.003 0.045,0.014 0.062,0.033 0.038,0.042 0.035,0.108 -0.008,0.146 -0.231,0.209 -0.513,0.39 -0.83,0.537 -0.311,0.144 -0.657,0.255 -1.022,0.324 -0.014,0.004 -0.029,0.004 -0.044,0.002 -0.056,-0.01 -0.094,-0.064 -0.084,-0.12 0.021,-0.12 0.067,-0.241 0.129,-0.363z"/>
    <path class="fil1" d="M9.201 3.094l0 0.659c0.178,0 0.323,-0.147 0.323,-0.329 0,-0.182 -0.145,-0.33 -0.323,-0.33z"/>
    <path class="fil2" d="M9.305 3.225l0 0.398c0.018,-0.011 0.035,-0.023 0.05,-0.038l0 -0.001c0.04,-0.04 0.065,-0.097 0.065,-0.16 0,-0.063 -0.025,-0.12 -0.065,-0.161 -0.015,-0.015 -0.031,-0.028 -0.05,-0.038zm-0.208 0.528l0 -0.659c0,-0.057 0.047,-0.104 0.104,-0.104 0.118,0 0.225,0.049 0.302,0.128 0.077,0.079 0.124,0.187 0.124,0.306 0,0.118 -0.047,0.226 -0.123,0.304l-0.001 0.001c-0.077,0.079 -0.184,0.128 -0.302,0.128 -0.057,0 -0.104,-0.046 -0.104,-0.104z"/>
    <path class="fil1" d="M6.034 3.424c0,0.182 0.144,0.329 0.322,0.329l0 -0.659c-0.178,0 -0.322,0.148 -0.322,0.33z"/>
    <path class="fil2" d="M6.137 3.424c0,0.063 0.025,0.12 0.065,0.16 0.015,0.016 0.032,0.028 0.05,0.039l0 -0.398c-0.018,0.01 -0.035,0.023 -0.05,0.038 -0.04,0.041 -0.065,0.098 -0.065,0.161zm-0.083 0.305c-0.077,-0.078 -0.124,-0.187 -0.124,-0.305 0,-0.119 0.047,-0.227 0.124,-0.306 0.077,-0.079 0.184,-0.128 0.302,-0.128 0.057,0 0.104,0.047 0.104,0.104l0 0.659c0,0.058 -0.047,0.104 -0.104,0.104 -0.118,0 -0.225,-0.049 -0.302,-0.128z"/>
    <path class="fil4" d="M8.492 4.993c0.001,0.037 0.001,0.075 0,0.113 0.003,0.215 -0.013,0.383 -0.041,0.52 0,0.001 0,0.001 0,0.001 -0.129,0.632 -0.52,0.592 -0.556,1.398 -0.006,0.145 0.008,0.271 0.039,0.38 0.168,0.593 0.814,0.687 1.096,0.705 -0.342,-0.257 -0.433,-0.516 -0.386,-0.785 0.077,-0.417 0.371,-0.692 0.557,-1.037 0.45,-0.75 0.839,-1.701 0.83,-2.7 -0.014,-1.699 -1.003,-2.546 -2.208,-2.594 -1.206,-0.049 -2.062,1.327 -2.036,2.459 0.026,1.123 0.543,2.003 1.035,2.588 0.273,-0.217 0.396,-0.549 0.222,-1.063 -0.435,-0.322 -0.688,-0.754 -0.688,-1.104l0 -0.121c-0.178,0 -0.322,-0.147 -0.322,-0.329 0,-0.182 0.144,-0.33 0.322,-0.33l0 -0.165c0.545,-0.25 1.584,-0.277 2.28,-1.015 0.131,0.812 0.338,0.804 0.565,1.015l0 0.165c0.178,0 0.323,0.148 0.323,0.33 0,0.182 -0.145,0.329 -0.323,0.329l0 0.121c0,0.355 -0.261,0.796 -0.709,1.119z"/>
    <path class="fil2" d="M8.596 5.045l0 0.06c0.001,0.113 -0.002,0.212 -0.009,0.299l0 0.003c-0.008,0.087 -0.019,0.167 -0.034,0.24l-0.001 0.006c-0.061,0.293 -0.173,0.45 -0.284,0.604 -0.126,0.176 -0.251,0.349 -0.269,0.773 -0.003,0.065 -0.002,0.127 0.004,0.184 0.006,0.058 0.017,0.112 0.031,0.163 0.074,0.261 0.255,0.413 0.448,0.502 0.079,0.036 0.16,0.062 0.238,0.081 -0.053,-0.065 -0.093,-0.129 -0.123,-0.195 -0.069,-0.152 -0.082,-0.304 -0.055,-0.458l0.002 -0.009c0.056,-0.295 0.209,-0.518 0.362,-0.739 0.072,-0.105 0.144,-0.209 0.204,-0.321l0.005 -0.008c0.24,-0.4 0.462,-0.859 0.613,-1.351 0.127,-0.411 0.204,-0.847 0.2,-1.29 -0.007,-0.78 -0.224,-1.372 -0.573,-1.783 -0.384,-0.451 -0.931,-0.685 -1.536,-0.709 -0.031,-0.001 -0.062,-0.001 -0.091,-0.001 -0.518,0.012 -0.964,0.308 -1.287,0.727 -0.328,0.426 -0.529,0.978 -0.549,1.492 -0.002,0.046 -0.002,0.091 -0.002,0.136 0.012,0.482 0.116,0.919 0.271,1.306 0.179,0.448 0.426,0.829 0.672,1.135 0.08,-0.082 0.138,-0.18 0.167,-0.296 0.037,-0.149 0.027,-0.332 -0.044,-0.555 -0.212,-0.161 -0.382,-0.348 -0.501,-0.539 -0.132,-0.212 -0.203,-0.431 -0.203,-0.628l0 -0.03c-0.076,-0.019 -0.145,-0.06 -0.198,-0.115l-0.001 -0.001c-0.076,-0.078 -0.123,-0.186 -0.123,-0.304 0,-0.119 0.047,-0.227 0.124,-0.306l0 0c0.054,-0.055 0.122,-0.095 0.198,-0.115l0 -0.074c0,-0.045 0.029,-0.084 0.07,-0.098 0.173,-0.078 0.386,-0.134 0.621,-0.195 0.521,-0.136 1.155,-0.302 1.618,-0.793 0.039,-0.042 0.104,-0.044 0.146,-0.005 0.018,0.018 0.029,0.04 0.032,0.063 0.099,0.615 0.24,0.722 0.399,0.843 0.043,0.032 0.087,0.066 0.134,0.109 0.022,0.021 0.033,0.049 0.033,0.076l0 0.074c0.076,0.02 0.144,0.06 0.198,0.115 0.077,0.079 0.124,0.187 0.124,0.306 0,0.118 -0.047,0.227 -0.124,0.305 -0.054,0.055 -0.122,0.096 -0.198,0.115l0 0.03c0,0.2 -0.073,0.423 -0.21,0.638 -0.119,0.189 -0.288,0.373 -0.499,0.533zm-0.207 0.004l0 -0.056c0,-0.032 0.015,-0.064 0.043,-0.084 0.208,-0.151 0.374,-0.327 0.488,-0.508 0.115,-0.181 0.177,-0.365 0.177,-0.527l0 -0.121c0,-0.057 0.047,-0.104 0.104,-0.104 0.06,0 0.115,-0.024 0.154,-0.064 0.04,-0.041 0.065,-0.098 0.065,-0.161 0,-0.063 -0.025,-0.12 -0.065,-0.161 -0.039,-0.04 -0.094,-0.065 -0.154,-0.065 -0.057,0 -0.104,-0.046 -0.104,-0.104l0 -0.118c-0.028,-0.024 -0.057,-0.046 -0.085,-0.068 -0.174,-0.132 -0.331,-0.252 -0.443,-0.785 -0.482,0.428 -1.077,0.583 -1.574,0.713 -0.201,0.053 -0.386,0.102 -0.535,0.161l0 0.097c0,0.058 -0.047,0.104 -0.104,0.104 -0.06,0 -0.114,0.025 -0.154,0.065 -0.04,0.041 -0.065,0.098 -0.065,0.161 0,0.063 0.025,0.12 0.065,0.16l0 0.001c0.039,0.04 0.094,0.064 0.154,0.064 0.057,0 0.104,0.047 0.104,0.104l0 0.121c0,0.159 0.06,0.339 0.171,0.518 0.111,0.178 0.272,0.353 0.475,0.502 0.016,0.013 0.029,0.03 0.036,0.051 0.094,0.277 0.107,0.508 0.059,0.701 -0.049,0.198 -0.161,0.354 -0.315,0.477 -0.043,0.034 -0.107,0.028 -0.143,-0.015 -0.281,-0.334 -0.57,-0.762 -0.775,-1.274 -0.163,-0.408 -0.273,-0.869 -0.285,-1.379 -0.001,-0.05 0,-0.099 0.002,-0.148 0.022,-0.556 0.238,-1.151 0.592,-1.61 0.357,-0.465 0.858,-0.793 1.444,-0.808l0.002 0c0.035,-0.001 0.07,0 0.104,0.001 0.661,0.026 1.262,0.285 1.685,0.782 0.38,0.446 0.616,1.083 0.623,1.915 0.004,0.467 -0.077,0.923 -0.209,1.353 -0.157,0.51 -0.386,0.983 -0.634,1.396 -0.064,0.12 -0.14,0.23 -0.216,0.34 -0.14,0.204 -0.28,0.408 -0.329,0.661l0 0.005c-0.021,0.115 -0.012,0.228 0.038,0.337 0.053,0.114 0.15,0.23 0.306,0.348 0.028,0.02 0.045,0.053 0.043,0.09 -0.004,0.057 -0.054,0.101 -0.111,0.097 -0.149,-0.01 -0.394,-0.04 -0.627,-0.147 -0.241,-0.111 -0.468,-0.303 -0.562,-0.634 -0.017,-0.061 -0.03,-0.127 -0.037,-0.198 -0.007,-0.067 -0.009,-0.138 -0.006,-0.214 0.022,-0.486 0.164,-0.684 0.309,-0.885 0.098,-0.137 0.197,-0.275 0.249,-0.526l0.001 -0.005c0.013,-0.062 0.023,-0.133 0.03,-0.215l0 -0.003c0.007,-0.085 0.01,-0.178 0.009,-0.28l0 -0.058z"/>
   </g>
  </g>
 </g>
</svg>
