<?xml version="1.0" encoding="UTF-8"?>
<!DOCTYPE svg PUBLIC "-//W3C//DTD SVG 1.1//EN" "http://www.w3.org/Graphics/SVG/1.1/DTD/svg11.dtd">
<!-- Creator: CorelDRAW 2018 (64-Bit) -->
<svg xmlns="http://www.w3.org/2000/svg" xml:space="preserve" width="73px" height="42px" version="1.1" style="shape-rendering:geometricPrecision; text-rendering:geometricPrecision; image-rendering:optimizeQuality; fill-rule:evenodd; clip-rule:evenodd"
viewBox="0 0 15.558 8.989"
 xmlns:xlink="http://www.w3.org/1999/xlink">
 <defs>
  <style type="text/css">
   <![CDATA[
    .fil0 {fill:none}
    .fil3 {fill:#00F4FF}
    .fil1 {fill:#EAEDF2}
    .fil2 {fill:gray;fill-rule:nonzero}
   ]]>
  </style>
 </defs>
 <g id="Layer_x0020_1">
  <metadata id="CorelCorpID_0Corel-Layer"/>
  <g id="_1612616377840">
   <rect class="fil0" width="15.558" height="8.989"/>
   <g>
    <path class="fil1" d="M4.974 7.296c0,0.456 -0.373,0.829 -0.829,0.829l0 0c-0.456,0 -0.829,-0.373 -0.829,-0.829l0 -4.668c0,-0.113 0.093,-0.206 0.206,-0.206l1.452 0 0 4.874z"/>
    <path class="fil2" d="M5.081 7.296c0,0.257 -0.105,0.491 -0.275,0.661 -0.169,0.169 -0.404,0.275 -0.661,0.275 -0.257,0 -0.491,-0.106 -0.661,-0.275 -0.17,-0.17 -0.275,-0.404 -0.275,-0.661l0 -4.668c0,-0.086 0.036,-0.164 0.092,-0.221 0.057,-0.057 0.135,-0.092 0.221,-0.092l1.452 0c0.059,0 0.107,0.048 0.107,0.107l0 4.874zm-0.426 0.51c0.131,-0.131 0.212,-0.312 0.212,-0.51l0 -4.767 -1.345 0c-0.027,0 -0.052,0.011 -0.07,0.029 -0.018,0.018 -0.029,0.043 -0.029,0.07l0 4.668c0,0.198 0.081,0.379 0.212,0.51 0.131,0.13 0.312,0.212 0.51,0.212 0.198,0 0.379,-0.082 0.51,-0.212z"/>
    <path class="fil2" d="M5.081 7.346c0,0.059 -0.048,0.107 -0.107,0.107 -0.059,0 -0.107,-0.048 -0.107,-0.107l0 -6.207c0,-0.105 0.043,-0.2 0.112,-0.269 0.069,-0.07 0.164,-0.113 0.269,-0.113l6.719 0c0.105,0 0.201,0.043 0.27,0.112 0.069,0.069 0.112,0.165 0.112,0.27l0 5.723c0,0.376 -0.154,0.719 -0.403,0.967 -0.248,0.249 -0.591,0.403 -0.967,0.403l-6.834 0c-0.059,0 -0.107,-0.048 -0.107,-0.107 0,-0.059 0.048,-0.107 0.107,-0.107l6.834 0c0.317,0 0.606,-0.13 0.816,-0.34 0.21,-0.21 0.34,-0.499 0.34,-0.816l0 -5.723c0,-0.046 -0.019,-0.088 -0.05,-0.118 -0.03,-0.031 -0.072,-0.05 -0.118,-0.05l-6.719 0c-0.046,0 -0.088,0.019 -0.118,0.05 -0.03,0.03 -0.049,0.072 -0.049,0.118l0 6.207z"/>
    <path class="fil2" d="M5.942 2.529c-0.059,0 -0.107,-0.048 -0.107,-0.107 0,-0.059 0.048,-0.107 0.107,-0.107l5.233 0c0.059,0 0.107,0.048 0.107,0.107 0,0.059 -0.048,0.107 -0.107,0.107l-5.233 0z"/>
    <path class="fil2" d="M9.141 4.004c-0.059,0 -0.107,-0.048 -0.107,-0.107 0,-0.059 0.048,-0.107 0.107,-0.107l2.034 0c0.059,0 0.107,0.048 0.107,0.107 0,0.059 -0.048,0.107 -0.107,0.107l-2.034 0z"/>
    <path class="fil2" d="M9.141 5.131c-0.059,0 -0.107,-0.048 -0.107,-0.107 0,-0.059 0.048,-0.107 0.107,-0.107l2.034 0c0.059,0 0.107,0.048 0.107,0.107 0,0.059 -0.048,0.107 -0.107,0.107l-2.034 0z"/>
    <path class="fil2" d="M9.141 6.258c-0.059,0 -0.107,-0.048 -0.107,-0.107 0,-0.059 0.048,-0.107 0.107,-0.107l2.034 0c0.059,0 0.107,0.048 0.107,0.107 0,0.059 -0.048,0.107 -0.107,0.107l-2.034 0z"/>
    <path class="fil3" d="M6.17 3.897l1.886 0c0.076,0 0.137,0.062 0.137,0.137l0 2.002c0,0.076 -0.061,0.138 -0.137,0.138l-1.886 0c-0.076,0 -0.137,-0.062 -0.137,-0.138l0 -2.002c0,-0.075 0.061,-0.137 0.137,-0.137z"/>
    <path class="fil2" d="M6.17 3.79l1.886 0c0.067,0 0.128,0.027 0.172,0.072 0.045,0.044 0.072,0.105 0.072,0.172l0 2.002c0,0.068 -0.027,0.129 -0.071,0.173l-0.008 0.007c-0.044,0.04 -0.102,0.065 -0.165,0.065l-1.886 0c-0.067,0 -0.129,-0.028 -0.173,-0.072 -0.044,-0.044 -0.071,-0.105 -0.071,-0.173l0 -2.002c0,-0.067 0.027,-0.128 0.071,-0.172 0.044,-0.045 0.106,-0.072 0.173,-0.072zm1.886 0.214l-1.886 0c-0.008,0 -0.016,0.003 -0.022,0.009 -0.005,0.005 -0.008,0.013 -0.008,0.021l0 2.002c0,0.009 0.003,0.016 0.008,0.022 0.006,0.005 0.014,0.009 0.022,0.009l1.886 0c0.007,0 0.014,-0.003 0.019,-0.007l0.002 -0.002c0.006,-0.006 0.009,-0.013 0.009,-0.022l0 -2.002c0,-0.008 -0.003,-0.016 -0.009,-0.021 -0.005,-0.006 -0.012,-0.009 -0.021,-0.009z"/>
   </g>
  </g>
 </g>
</svg>
