<?xml version="1.0" encoding="UTF-8"?>
<!DOCTYPE svg PUBLIC "-//W3C//DTD SVG 1.1//EN" "http://www.w3.org/Graphics/SVG/1.1/DTD/svg11.dtd">
<!-- Creator: CorelDRAW 2018 (64-Bit) -->
<svg xmlns="http://www.w3.org/2000/svg" xml:space="preserve" width="73px" height="42px" version="1.1" style="shape-rendering:geometricPrecision; text-rendering:geometricPrecision; image-rendering:optimizeQuality; fill-rule:evenodd; clip-rule:evenodd"
viewBox="0 0 8.751 5.056"
 xmlns:xlink="http://www.w3.org/1999/xlink">
 <defs>
  <style type="text/css">
   <![CDATA[
    .fil0 {fill:none}
    .fil2 {fill:#00F4FF;fill-rule:nonzero}
    .fil1 {fill:gray;fill-rule:nonzero}
    .fil3 {fill:white;fill-rule:nonzero}
   ]]>
  </style>
 </defs>
 <g id="Layer_x0020_1">
  <metadata id="CorelCorpID_0Corel-Layer"/>
  <g id="_1612679544928">
   <rect class="fil0" width="8.751" height="5.056"/>
   <g>
    <path class="fil1" d="M3.514 2.705c0,-0.033 0.027,-0.06 0.061,-0.06 0.033,0 0.06,0.027 0.06,0.06l0 1.849c0,0.033 -0.027,0.06 -0.06,0.06 -0.034,0 -0.061,-0.027 -0.061,-0.06l0 -1.849z"/>
    <path class="fil1" d="M3.159 3.527c-0.033,0 -0.06,-0.027 -0.06,-0.061 0,-0.033 0.027,-0.06 0.06,-0.06l0.139 0c0.033,0 0.06,0.027 0.06,0.06 0,0.034 -0.027,0.061 -0.06,0.061l-0.139 0z"/>
    <path class="fil1" d="M5.416 4.181c-0.023,0.024 -0.062,0.024 -0.085,0 -0.023,-0.023 -0.023,-0.061 0,-0.085l0.83 -0.83c0.024,-0.024 0.062,-0.024 0.085,0 0.024,0.023 0.024,0.061 0,0.085l-0.83 0.83z"/>
    <path class="fil1" d="M5.831 4.181c-0.023,0.023 -0.061,0.023 -0.085,0 -0.023,-0.024 -0.023,-0.062 0,-0.086l0.415 -0.415c0.024,-0.023 0.062,-0.023 0.085,0 0.024,0.024 0.024,0.062 0,0.085l-0.415 0.416z"/>
    <path class="fil1" d="M6.542 2.705c0,-0.033 0.027,-0.06 0.061,-0.06 0.033,0 0.06,0.027 0.06,0.06l0 1.711c0,0.059 -0.024,0.113 -0.063,0.151 -0.039,0.039 -0.092,0.063 -0.151,0.063l-4.147 0c-0.059,0 -0.112,-0.024 -0.151,-0.063 -0.039,-0.038 -0.063,-0.092 -0.063,-0.151l0 -1.711c0,-0.033 0.027,-0.06 0.06,-0.06 0.034,0 0.061,0.027 0.061,0.06l0 1.711c0,0.026 0.01,0.049 0.027,0.066 0.017,0.017 0.041,0.028 0.066,0.028l4.147 0c0.025,0 0.049,-0.011 0.066,-0.028 0.017,-0.017 0.027,-0.04 0.027,-0.066l0 -1.711z"/>
    <path class="fil2" d="M7.039 1.922c0,0.246 -0.199,0.444 -0.444,0.444 -0.245,0 -0.396,-0.168 -0.449,-0.43 0,0.245 -0.194,0.43 -0.439,0.43 -0.245,0 -0.444,-0.198 -0.444,-0.444 0,0.246 -0.199,0.444 -0.443,0.444 -0.246,0 -0.445,-0.198 -0.445,-0.444 0.001,0.246 -0.198,0.444 -0.443,0.444 -0.245,0 -0.444,-0.198 -0.444,-0.444 0,0.246 -0.199,0.444 -0.444,0.444 -0.245,0 -0.438,-0.182 -0.437,-0.427 -0.047,0.243 -0.205,0.427 -0.45,0.427 -0.246,0 -0.445,-0.198 -0.445,-0.444l0.471 -1.287c0.039,-0.106 0.092,-0.149 0.205,-0.149l3.975 0c0.113,0 0.166,0.043 0.205,0.149l0.471 1.287z"/>
    <path class="fil1" d="M7.099 1.922c0,0.139 -0.057,0.265 -0.148,0.356 -0.091,0.092 -0.217,0.148 -0.356,0.148 -0.136,0 -0.247,-0.046 -0.332,-0.128 -0.042,-0.04 -0.077,-0.089 -0.106,-0.145 -0.024,0.049 -0.056,0.094 -0.095,0.132 -0.09,0.088 -0.216,0.141 -0.355,0.141l0 0c-0.139,0 -0.265,-0.056 -0.356,-0.147 -0.035,-0.035 -0.064,-0.074 -0.088,-0.118 -0.023,0.044 -0.053,0.083 -0.087,0.118l-0.004 0.003c-0.091,0.089 -0.215,0.144 -0.352,0.144l-0.001 0c-0.139,0 -0.265,-0.056 -0.356,-0.147 -0.034,-0.035 -0.064,-0.074 -0.088,-0.118 -0.023,0.044 -0.052,0.083 -0.087,0.118 -0.091,0.091 -0.217,0.147 -0.356,0.147l0 0c-0.139,0 -0.265,-0.056 -0.357,-0.147 -0.034,-0.035 -0.064,-0.074 -0.087,-0.118 -0.024,0.044 -0.053,0.083 -0.088,0.118 -0.09,0.091 -0.216,0.147 -0.355,0.147l-0.001 0c-0.139,0 -0.263,-0.052 -0.352,-0.138 -0.04,-0.038 -0.073,-0.083 -0.097,-0.134 -0.029,0.054 -0.064,0.102 -0.107,0.142 -0.086,0.081 -0.197,0.13 -0.331,0.13 -0.139,0 -0.266,-0.056 -0.357,-0.147 -0.091,-0.092 -0.148,-0.218 -0.148,-0.357 0,-0.009 0.002,-0.017 0.006,-0.025l0.469 -1.283c0.023,-0.064 0.052,-0.11 0.095,-0.141 0.044,-0.033 0.097,-0.047 0.166,-0.047l3.975 0c0.07,0 0.123,0.014 0.166,0.047 0.043,0.031 0.072,0.077 0.095,0.141l0.471 1.288c0.003,0.007 0.004,0.014 0.004,0.02zm-0.233 0.272c0.067,-0.067 0.11,-0.16 0.112,-0.262l-0.466 -1.277c-0.016,-0.042 -0.032,-0.07 -0.054,-0.086 -0.021,-0.016 -0.052,-0.023 -0.095,-0.023l-3.975 0c-0.043,0 -0.074,0.007 -0.095,0.023 -0.022,0.016 -0.038,0.044 -0.054,0.086l-0.466 1.277c0.002,0.102 0.045,0.194 0.112,0.262 0.069,0.069 0.165,0.112 0.272,0.112 0.101,0 0.185,-0.036 0.249,-0.097 0.071,-0.067 0.119,-0.165 0.141,-0.277 0.004,-0.03 0.029,-0.053 0.06,-0.053 0.033,0 0.06,0.027 0.06,0.06l0 0.001c0,0.105 0.041,0.196 0.108,0.261 0.068,0.066 0.162,0.105 0.269,0.105l0.001 0c0.105,0 0.201,-0.043 0.27,-0.112 0.07,-0.069 0.113,-0.165 0.113,-0.271l0 -0.001 0.12 0 0 0.001c0,0.106 0.043,0.201 0.112,0.271 0.07,0.069 0.166,0.112 0.272,0.112l0 0c0.106,0 0.202,-0.043 0.271,-0.112 0.069,-0.07 0.112,-0.165 0.112,-0.271l0 -0.001 0.121 0 0 0.001c0,0.106 0.042,0.201 0.112,0.271 0.069,0.069 0.165,0.112 0.271,0.112l0.001 0c0.104,0 0.199,-0.042 0.268,-0.109l0.003 -0.003c0.069,-0.07 0.112,-0.165 0.112,-0.271l0 -0.001 0.12 0 0 0.011c0.003,0.102 0.045,0.194 0.112,0.261 0.07,0.069 0.166,0.112 0.272,0.112l0 0c0.107,0 0.203,-0.04 0.271,-0.107 0.067,-0.066 0.108,-0.158 0.108,-0.263 0,-0.028 0.02,-0.053 0.048,-0.059 0.033,-0.006 0.064,0.015 0.071,0.047 0.025,0.123 0.072,0.222 0.141,0.288 0.063,0.06 0.146,0.094 0.249,0.094 0.106,0 0.202,-0.043 0.271,-0.112z"/>
    <path class="fil3" d="M5.845 0.486l0.301 1.45c0.053,0.262 0.204,0.43 0.449,0.43 0.245,0 0.444,-0.198 0.444,-0.444l-0.471 -1.287c-0.039,-0.106 -0.092,-0.149 -0.205,-0.149l-0.518 0z"/>
    <path class="fil1" d="M5.919 0.546l0.287 1.381c0.024,0.121 0.071,0.219 0.14,0.285 0.063,0.06 0.146,0.094 0.249,0.094 0.106,0 0.202,-0.043 0.271,-0.112 0.067,-0.068 0.11,-0.16 0.112,-0.262l-0.466 -1.277c-0.016,-0.042 -0.032,-0.07 -0.054,-0.086 -0.021,-0.016 -0.052,-0.023 -0.095,-0.023l-0.444 0zm0.168 1.402l-0.3 -1.445c-0.001,-0.005 -0.002,-0.011 -0.002,-0.017 0,-0.033 0.027,-0.06 0.06,-0.06l0.518 0c0.07,0 0.123,0.014 0.166,0.047 0.043,0.031 0.072,0.077 0.095,0.141l0.469 1.283c0.004,0.008 0.006,0.016 0.006,0.025 0,0.139 -0.057,0.266 -0.148,0.357 -0.091,0.091 -0.217,0.147 -0.356,0.147 -0.136,0 -0.247,-0.046 -0.332,-0.128 -0.087,-0.082 -0.145,-0.202 -0.175,-0.347l-0.001 -0.003z"/>
    <path class="fil3" d="M4.375 0.486l0 1.436c0,0.001 0,0.001 0,0.001 0.001,0.245 0.199,0.443 0.445,0.443 0.244,0 0.443,-0.198 0.443,-0.443l-0.099 -1.437 -0.789 0z"/>
    <path class="fil1" d="M4.435 0.546l0.001 1.377c-0.001,0.106 0.042,0.202 0.112,0.271 0.069,0.069 0.165,0.112 0.272,0.112 0.105,0 0.201,-0.043 0.271,-0.112 0.068,-0.069 0.111,-0.163 0.112,-0.267l-0.095 -1.381 -0.673 0zm-0.12 1.376l0 -1.436c0,-0.033 0.027,-0.06 0.06,-0.06l0.789 0c0.031,0 0.058,0.024 0.06,0.056l0.099 1.441c0,0.139 -0.057,0.265 -0.148,0.356 -0.091,0.091 -0.217,0.147 -0.355,0.147 -0.139,0 -0.265,-0.056 -0.357,-0.147 -0.091,-0.091 -0.147,-0.217 -0.148,-0.356l0 -0.001z"/>
    <path class="fil3" d="M3.587 0.486l-0.1 1.436c0,0.001 0,0.001 0,0.001 0,0.245 -0.199,0.443 -0.444,0.443 -0.245,0 -0.439,-0.185 -0.439,-0.43l0.302 -1.45 0.681 0z"/>
    <path class="fil1" d="M3.646 0.494c-0.032,0.471 -0.052,0.965 -0.099,1.433 -0.001,0.137 -0.057,0.262 -0.147,0.352 -0.092,0.091 -0.218,0.147 -0.357,0.147 -0.139,0 -0.264,-0.053 -0.354,-0.141 -0.09,-0.088 -0.145,-0.21 -0.145,-0.349 0,-0.006 0.001,-0.012 0.002,-0.017l0.301 -1.445c0.006,-0.028 0.031,-0.048 0.059,-0.048l0.681 0c0.033,0 0.06,0.027 0.06,0.06l-0.001 0.008zm-0.219 1.424l0.095 -1.372 -0.568 0 -0.29 1.395c0.002,0.103 0.043,0.193 0.109,0.258 0.068,0.067 0.163,0.107 0.27,0.107 0.106,0 0.202,-0.043 0.272,-0.112 0.069,-0.069 0.112,-0.163 0.112,-0.268l0 -0.008z"/>
   </g>
  </g>
 </g>
</svg>
