<?xml version="1.0" encoding="UTF-8"?>
<!DOCTYPE svg PUBLIC "-//W3C//DTD SVG 1.1//EN" "http://www.w3.org/Graphics/SVG/1.1/DTD/svg11.dtd">
<!-- Creator: CorelDRAW 2018 (64-Bit) -->
<svg xmlns="http://www.w3.org/2000/svg" xml:space="preserve" width="73px" height="42px" version="1.1" style="shape-rendering:geometricPrecision; text-rendering:geometricPrecision; image-rendering:optimizeQuality; fill-rule:evenodd; clip-rule:evenodd"
viewBox="0 0 6.304 3.642"
 xmlns:xlink="http://www.w3.org/1999/xlink">
 <defs>
  <style type="text/css">
   <![CDATA[
    .fil0 {fill:none}
    .fil3 {fill:#00F4FF}
    .fil1 {fill:white}
    .fil2 {fill:gray;fill-rule:nonzero}
   ]]>
  </style>
 </defs>
 <g id="Layer_x0020_1">
  <metadata id="CorelCorpID_0Corel-Layer"/>
  <g id="_1612304995280">
   <rect class="fil0" width="6.304" height="3.642"/>
   <g>
    <path class="fil1" d="M4.861 1.453l0 1.641c0,0.166 -0.137,0.303 -0.304,0.303l-2.81 0c-0.167,0 -0.304,-0.136 -0.304,-0.303l0 -1.65 3.418 0.009z"/>
    <path class="fil2" d="M4.904 1.453l0 1.641c0,0.095 -0.039,0.182 -0.102,0.245l-0.002 0.002c-0.063,0.061 -0.149,0.1 -0.243,0.1l-2.81 0c-0.096,0 -0.183,-0.04 -0.245,-0.102l-0.003 -0.003c-0.061,-0.063 -0.099,-0.148 -0.099,-0.242l0 -1.65c0,-0.024 0.019,-0.043 0.043,-0.043l3.418 0.009c0.024,0 0.043,0.019 0.043,0.043zm-0.086 1.641l0 -1.598 -3.332 -0.009 0 1.607c0,0.07 0.029,0.134 0.075,0.181l0.002 0.002c0.047,0.047 0.112,0.077 0.184,0.077l2.81 0c0.071,0 0.135,-0.029 0.182,-0.075l0.002 -0.002c0.047,-0.047 0.077,-0.112 0.077,-0.183z"/>
    <polygon class="fil3" points="3.528,2.026 3.528,2.506 2.776,2.506 2.776,2.026 "/>
    <path class="fil2" d="M3.571 2.026l0 0.48c0,0.024 -0.019,0.043 -0.043,0.043l-0.752 0c-0.024,0 -0.043,-0.019 -0.043,-0.043l0 -0.48c0,-0.024 0.019,-0.044 0.043,-0.044l0.752 0c0.024,0 0.043,0.02 0.043,0.044zm-0.086 0.436l0 -0.393 -0.666 0 0 0.393 0.666 0z"/>
    <path class="fil1" d="M1.379 1.477l0 -0.363c0,-0.167 0.142,-0.303 0.315,-0.303l2.916 0c0.173,0 0.315,0.136 0.315,0.303l0 0.372c-0.525,0.196 -0.898,0.34 -1.389,0.523 -0.125,0.047 -0.212,0.095 -0.384,0.095 -0.172,0 -0.259,-0.048 -0.384,-0.095 -0.491,-0.183 -0.864,-0.335 -1.389,-0.532z"/>
    <path class="fil2" d="M1.336 1.477l0 -0.363c0,-0.095 0.04,-0.182 0.106,-0.245 0.064,-0.063 0.154,-0.102 0.252,-0.102l2.916 0c0.098,0 0.188,0.039 0.252,0.102 0.066,0.063 0.106,0.15 0.106,0.245l0 0.372c0,0.019 -0.012,0.035 -0.029,0.041 -0.25,0.093 -0.48,0.18 -0.706,0.266 -0.215,0.081 -0.424,0.16 -0.682,0.257l-0.059 0.023c-0.1,0.039 -0.189,0.074 -0.34,0.074 -0.151,0 -0.239,-0.035 -0.339,-0.074l-0.06 -0.023c-0.247,-0.092 -0.46,-0.175 -0.676,-0.259 -0.224,-0.087 -0.452,-0.175 -0.713,-0.273 -0.017,-0.007 -0.028,-0.023 -0.028,-0.041zm0.086 -0.363l0 0.333c0.256,0.096 0.473,0.181 0.686,0.263 0.22,0.085 0.435,0.169 0.675,0.259 0.03,0.011 0.046,0.017 0.061,0.023 0.092,0.037 0.173,0.069 0.308,0.069 0.135,0 0.216,-0.032 0.308,-0.069 0.016,-0.006 0.031,-0.012 0.061,-0.023 0.233,-0.087 0.455,-0.171 0.681,-0.257 0.206,-0.078 0.417,-0.158 0.68,-0.256l0 -0.342c0,-0.071 -0.031,-0.136 -0.079,-0.183 -0.05,-0.047 -0.118,-0.077 -0.193,-0.077l-2.916 0c-0.075,0 -0.143,0.03 -0.193,0.077 -0.048,0.047 -0.079,0.112 -0.079,0.183z"/>
    <path class="fil2" d="M1.659 1.296c0,0.024 -0.02,0.043 -0.044,0.043 -0.023,0 -0.043,-0.019 -0.043,-0.043l0 -0.077c0,-0.066 0.029,-0.124 0.075,-0.167 0.045,-0.041 0.108,-0.067 0.176,-0.067l0.304 0c0.024,0 0.043,0.019 0.043,0.043 0,0.024 -0.019,0.043 -0.043,0.043l-0.304 0c-0.046,0 -0.087,0.017 -0.117,0.045 -0.029,0.026 -0.047,0.063 -0.047,0.103l0 0.077z"/>
    <path class="fil2" d="M4.572 2.615c0,-0.024 0.019,-0.043 0.043,-0.043 0.024,0 0.043,0.019 0.043,0.043l0 0.357c0,0.073 -0.029,0.139 -0.077,0.186l-0.003 0.003c-0.047,0.046 -0.112,0.075 -0.183,0.075l-0.438 0c-0.023,0 -0.043,-0.019 -0.043,-0.043 0,-0.024 0.02,-0.044 0.043,-0.044l0.438 0c0.047,0 0.091,-0.019 0.123,-0.05l0.002 -0.002c0.032,-0.032 0.052,-0.076 0.052,-0.125l0 -0.357z"/>
    <path class="fil2" d="M2.448 0.611c0,0.024 -0.019,0.043 -0.043,0.043 -0.024,0 -0.044,-0.019 -0.044,-0.043 0,-0.112 0.046,-0.215 0.12,-0.289 0.075,-0.074 0.177,-0.12 0.289,-0.12l0.763 0c0.113,0 0.215,0.046 0.289,0.12 0.075,0.074 0.121,0.177 0.121,0.289 0,0.024 -0.02,0.043 -0.044,0.043 -0.024,0 -0.043,-0.019 -0.043,-0.043 0,-0.089 -0.036,-0.169 -0.095,-0.228 -0.058,-0.058 -0.139,-0.094 -0.228,-0.094l-0.763 0c-0.088,0 -0.169,0.036 -0.227,0.094 -0.059,0.059 -0.095,0.139 -0.095,0.228z"/>
   </g>
  </g>
 </g>
</svg>
