<?xml version="1.0" encoding="UTF-8"?>
<!DOCTYPE svg PUBLIC "-//W3C//DTD SVG 1.1//EN" "http://www.w3.org/Graphics/SVG/1.1/DTD/svg11.dtd">
<!-- Creator: CorelDRAW 2018 (64-Bit) -->
<svg xmlns="http://www.w3.org/2000/svg" xml:space="preserve" width="73px" height="42px" version="1.1" style="shape-rendering:geometricPrecision; text-rendering:geometricPrecision; image-rendering:optimizeQuality; fill-rule:evenodd; clip-rule:evenodd"
viewBox="0 0 4.043 2.336"
 xmlns:xlink="http://www.w3.org/1999/xlink">
 <defs>
  <style type="text/css">
   <![CDATA[
    .fil0 {fill:none}
    .fil2 {fill:#00F4FF}
    .fil1 {fill:gray;fill-rule:nonzero}
   ]]>
  </style>
 </defs>
 <g id="Layer_x0020_1">
  <metadata id="CorelCorpID_0Corel-Layer"/>
  <g id="_1612686924560">
   <rect class="fil0" width="4.043" height="2.336"/>
   <g>
    <path class="fil1" d="M1.384 0.317c0.016,0 0.028,0.013 0.028,0.028 0,0.016 -0.012,0.028 -0.028,0.028l-0.308 0c-0.006,0 -0.011,0.002 -0.015,0.006 -0.004,0.004 -0.007,0.01 -0.007,0.016l0 1.498c0,0.006 0.003,0.012 0.007,0.015l0.001 0.002c0.004,0.003 0.009,0.005 0.014,0.005l0.912 0c0.016,0 0.028,0.012 0.028,0.028 0,0.015 -0.012,0.028 -0.028,0.028l-0.912 0c-0.02,0 -0.039,-0.008 -0.053,-0.021l-0.002 -0.002c-0.014,-0.014 -0.022,-0.034 -0.022,-0.055l0 -1.498c0,-0.021 0.008,-0.041 0.022,-0.055 0.014,-0.014 0.034,-0.023 0.055,-0.023l0.308 0zm1.423 0.381c0,0.015 -0.013,0.027 -0.028,0.027 -0.016,0 -0.028,-0.012 -0.028,-0.027l0 -0.303c0,-0.006 -0.003,-0.012 -0.007,-0.016l0 -0.001c-0.004,-0.003 -0.009,-0.005 -0.015,-0.005l-0.207 0c-0.015,0 -0.028,-0.012 -0.028,-0.028 0,-0.015 0.013,-0.028 0.028,-0.028l0.207 0c0.02,0 0.039,0.008 0.053,0.021l0.002 0.002c0.014,0.014 0.023,0.034 0.023,0.055l0 0.303z"/>
    <path class="fil1" d="M2.297 0.317c0.016,0 0.028,0.013 0.028,0.028 0,0.016 -0.012,0.028 -0.028,0.028l-0.156 0c-0.015,0 -0.028,-0.012 -0.028,-0.028 0,-0.015 0.013,-0.028 0.028,-0.028l0.156 0z"/>
    <path class="fil1" d="M1.84 0.317c0.016,0 0.028,0.013 0.028,0.028 0,0.016 -0.012,0.028 -0.028,0.028l-0.151 0c-0.015,0 -0.028,-0.012 -0.028,-0.028 0,-0.015 0.013,-0.028 0.028,-0.028l0.151 0z"/>
    <path class="fil1" d="M2.359 0.208c-0.009,0 -0.018,0.003 -0.024,0.01 -0.006,0.006 -0.01,0.015 -0.01,0.024l0 0.206c0,0.01 0.004,0.018 0.01,0.025 0.006,0.006 0.015,0.01 0.024,0.01 0.01,0 0.019,-0.004 0.025,-0.01 0.006,-0.007 0.01,-0.015 0.01,-0.025l0 -0.206c0,-0.009 -0.004,-0.018 -0.01,-0.024 -0.006,-0.007 -0.015,-0.01 -0.025,-0.01zm-0.063 -0.03c0.016,-0.016 0.039,-0.026 0.063,-0.026 0.025,0 0.048,0.01 0.064,0.026 0.016,0.017 0.027,0.039 0.027,0.064l0 0.206c0,0.025 -0.011,0.048 -0.027,0.064 -0.016,0.016 -0.039,0.026 -0.064,0.026 -0.024,0 -0.047,-0.01 -0.063,-0.026 -0.017,-0.016 -0.027,-0.039 -0.027,-0.064l0 -0.206c0,-0.025 0.01,-0.047 0.027,-0.064z"/>
    <path class="fil1" d="M1.903 0.208c-0.01,0 -0.018,0.003 -0.025,0.01 -0.006,0.006 -0.01,0.015 -0.01,0.024l0 0.206c0,0.01 0.004,0.018 0.01,0.025 0.007,0.006 0.015,0.01 0.025,0.01 0.009,0 0.018,-0.004 0.024,-0.01 0.006,-0.007 0.01,-0.015 0.01,-0.025l0 -0.206c0,-0.009 -0.004,-0.018 -0.01,-0.024 -0.006,-0.007 -0.015,-0.01 -0.024,-0.01zm-0.064 -0.03c0.016,-0.016 0.039,-0.026 0.064,-0.026 0.024,0 0.047,0.01 0.063,0.026 0.017,0.017 0.027,0.039 0.027,0.064l0 0.206c0,0.025 -0.01,0.048 -0.027,0.064 -0.016,0.016 -0.039,0.026 -0.063,0.026 -0.025,0 -0.048,-0.01 -0.064,-0.026 -0.016,-0.016 -0.026,-0.039 -0.026,-0.064l0 -0.206c0,-0.025 0.01,-0.047 0.026,-0.064z"/>
    <path class="fil1" d="M1.446 0.208c-0.009,0 -0.018,0.003 -0.024,0.01 -0.006,0.006 -0.01,0.015 -0.01,0.024l0 0.206c0,0.01 0.004,0.018 0.01,0.025 0.006,0.006 0.015,0.01 0.024,0.01 0.01,0 0.019,-0.004 0.025,-0.01 0.006,-0.007 0.01,-0.015 0.01,-0.025l0 -0.206c0,-0.009 -0.004,-0.018 -0.01,-0.024 -0.006,-0.007 -0.015,-0.01 -0.025,-0.01zm-0.063 -0.03c0.016,-0.016 0.039,-0.026 0.063,-0.026 0.025,0 0.048,0.01 0.064,0.026 0.016,0.017 0.027,0.039 0.027,0.064l0 0.206c0,0.025 -0.011,0.048 -0.027,0.064 -0.016,0.016 -0.039,0.026 -0.064,0.026 -0.024,0 -0.047,-0.01 -0.063,-0.026 -0.016,-0.016 -0.027,-0.039 -0.027,-0.064l0 -0.206c0,-0.025 0.011,-0.047 0.027,-0.064z"/>
    <path class="fil1" d="M1.338 0.855l0.153 0c0.013,0 0.025,0.006 0.034,0.014 0.009,0.009 0.015,0.022 0.015,0.035l0 0.152c0,0.014 -0.006,0.026 -0.015,0.035 -0.009,0.009 -0.021,0.014 -0.034,0.014l-0.153 0c-0.013,0 -0.025,-0.005 -0.034,-0.014 -0.009,-0.009 -0.015,-0.021 -0.015,-0.035l0 -0.152c0,-0.013 0.006,-0.026 0.015,-0.034 0.009,-0.009 0.021,-0.015 0.034,-0.015zm0.146 0.056l-0.139 0 0 0.139 0.139 0 0 -0.139z"/>
    <path class="fil1" d="M1.827 0.855l0.152 0c0.013,0 0.025,0.006 0.034,0.014 0.009,0.009 0.015,0.022 0.015,0.035l0 0.152c0,0.014 -0.006,0.026 -0.015,0.035l0 0c-0.009,0.009 -0.021,0.014 -0.034,0.014l-0.152 0c-0.014,0 -0.026,-0.005 -0.035,-0.014 -0.009,-0.009 -0.014,-0.021 -0.014,-0.035l0 -0.152c0,-0.013 0.005,-0.026 0.014,-0.035 0.009,-0.008 0.021,-0.014 0.035,-0.014zm0.145 0.056l-0.139 0 0 0.139 0.139 0 0 -0.139z"/>
    <path class="fil1" d="M1.338 1.353l0.153 0c0.013,0 0.025,0.006 0.034,0.014 0.009,0.009 0.015,0.022 0.015,0.035l0 0.152c0,0.014 -0.006,0.026 -0.015,0.035 -0.009,0.009 -0.021,0.014 -0.034,0.014l-0.153 0c-0.013,0 -0.025,-0.005 -0.034,-0.014 -0.009,-0.009 -0.015,-0.021 -0.015,-0.035l0 -0.152c0,-0.013 0.006,-0.026 0.015,-0.034 0.009,-0.009 0.021,-0.015 0.034,-0.015zm0.146 0.056l-0.139 0 0 0.139 0.139 0 0 -0.139z"/>
    <polygon class="fil2" points="2.616,0.8 2.846,1.233 3.329,1.318 2.988,1.671 3.056,2.156 2.616,1.942 2.175,2.156 2.243,1.671 1.903,1.318 2.385,1.233 "/>
    <path class="fil1" d="M2.64 0.787l0.224 0.421 0.469 0.083c0.016,0.002 0.026,0.017 0.023,0.032 -0.001,0.006 -0.004,0.012 -0.008,0.015l-0.33 0.342 0.066 0.472c0.002,0.016 -0.009,0.03 -0.024,0.032 -0.006,0.001 -0.011,0 -0.016,-0.003l-0.428 -0.208 -0.429 0.208c-0.014,0.007 -0.03,0.001 -0.037,-0.013 -0.003,-0.005 -0.003,-0.011 -0.002,-0.017l0.066 -0.471 -0.331 -0.343c-0.011,-0.011 -0.011,-0.028 0,-0.039 0.005,-0.004 0.01,-0.006 0.015,-0.007l0.469 -0.083 0.224 -0.421c0.007,-0.013 0.024,-0.019 0.038,-0.011 0.005,0.002 0.009,0.006 0.011,0.011zm0.182 0.459l-0.206 -0.387 -0.205 0.385c-0.004,0.008 -0.011,0.014 -0.021,0.016l-0.431 0.076 0.303 0.315c0.006,0.006 0.01,0.015 0.008,0.024l-0.06 0.433 0.393 -0.191c0.008,-0.004 0.017,-0.004 0.025,0l0.394 0.191 -0.061 -0.433c-0.001,-0.008 0.001,-0.017 0.007,-0.023l0.305 -0.316 -0.432 -0.076c-0.008,-0.002 -0.015,-0.007 -0.019,-0.014z"/>
   </g>
  </g>
 </g>
</svg>
