<?xml version="1.0" encoding="UTF-8"?>
<!DOCTYPE svg PUBLIC "-//W3C//DTD SVG 1.1//EN" "http://www.w3.org/Graphics/SVG/1.1/DTD/svg11.dtd">
<!-- Creator: CorelDRAW 2018 (64-Bit) -->
<svg xmlns="http://www.w3.org/2000/svg" xml:space="preserve" width="73px" height="42px" version="1.1" style="shape-rendering:geometricPrecision; text-rendering:geometricPrecision; image-rendering:optimizeQuality; fill-rule:evenodd; clip-rule:evenodd"
viewBox="0 0 4.926 2.846"
 xmlns:xlink="http://www.w3.org/1999/xlink">
 <defs>
  <style type="text/css">
   <![CDATA[
    .fil0 {fill:none}
    .fil2 {fill:#00F4FF}
    .fil3 {fill:white}
    .fil1 {fill:gray;fill-rule:nonzero}
   ]]>
  </style>
 </defs>
 <g id="Layer_x0020_1">
  <metadata id="CorelCorpID_0Corel-Layer"/>
  <g id="_1612616379376">
   <rect class="fil0" width="4.926" height="2.846"/>
   <g>
    <path class="fil1" d="M1.485 0.185l1.956 0c0.014,0 0.026,0.006 0.035,0.014l0.003 0.004c0.007,0.009 0.011,0.019 0.011,0.031l0 0.353c0,0.013 -0.005,0.026 -0.014,0.035 -0.009,0.008 -0.021,0.014 -0.035,0.014l-1.956 0c-0.013,0 -0.025,-0.006 -0.034,-0.014 -0.009,-0.009 -0.015,-0.022 -0.015,-0.035l0 -0.353c0,-0.013 0.006,-0.025 0.015,-0.034 0.009,-0.009 0.021,-0.015 0.034,-0.015zm1.937 0.068l-1.918 0 0 0.315 1.918 0 0 -0.315z"/>
    <path class="fil1" d="M2.98 2.087c-0.019,0 -0.034,-0.015 -0.034,-0.034 0,-0.018 0.015,-0.034 0.034,-0.034l0.057 0c0.019,0 0.034,0.016 0.034,0.034 0,0.019 -0.015,0.034 -0.034,0.034l-0.057 0z"/>
    <path class="fil1" d="M1.198 1.412c0,-0.019 0.016,-0.034 0.034,-0.034 0.019,0 0.034,0.015 0.034,0.034l0 1.182 2.394 0 0 -1.182c0,-0.019 0.015,-0.034 0.034,-0.034 0.019,0 0.034,0.015 0.034,0.034l0 1.197c0,0.015 -0.007,0.029 -0.018,0.038 -0.009,0.009 -0.022,0.014 -0.036,0.014l-2.421 0c-0.014,0 -0.027,-0.005 -0.037,-0.014 -0.011,-0.009 -0.018,-0.023 -0.018,-0.038l0 -1.197z"/>
    <path class="fil2" d="M0.96 1.266c-0.015,-0.15 0.056,-0.311 0.32,-0.495l2.367 0c0.264,0.184 0.334,0.345 0.319,0.495 -1.002,0 -2.004,0 -3.006,0z"/>
    <path class="fil1" d="M0.926 1.266c-0.007,-0.081 0.008,-0.164 0.06,-0.252 0.051,-0.086 0.138,-0.176 0.274,-0.271 0.006,-0.004 0.013,-0.006 0.02,-0.006l2.367 0c0.008,0 0.016,0.003 0.022,0.008 0.135,0.095 0.22,0.184 0.271,0.269 0.053,0.089 0.068,0.173 0.06,0.255 -0.002,0.017 -0.017,0.03 -0.034,0.03l-3.006 0.001c-0.018,0 -0.033,-0.015 -0.034,-0.034zm0.119 -0.218c-0.038,0.064 -0.053,0.125 -0.053,0.184l2.942 0c0.001,-0.059 -0.014,-0.12 -0.052,-0.184 -0.045,-0.076 -0.123,-0.156 -0.246,-0.243l-2.346 0c-0.122,0.087 -0.2,0.167 -0.245,0.243z"/>
    <path class="fil3" d="M1.508 1.266c-0.009,-0.15 0.035,-0.311 0.203,-0.495l1.504 0c0.168,0.184 0.213,0.345 0.203,0.495 -0.636,0 -1.273,0 -1.91,0z"/>
    <path class="fil1" d="M1.474 1.266c-0.004,-0.079 0.005,-0.161 0.038,-0.247 0.032,-0.086 0.087,-0.175 0.174,-0.271 0.007,-0.007 0.016,-0.011 0.025,-0.011l1.504 0c0.011,0 0.021,0.005 0.027,0.013 0.086,0.095 0.141,0.184 0.173,0.269 0.033,0.087 0.042,0.169 0.037,0.249 -0.001,0.018 -0.016,0.031 -0.034,0.031l-1.91 0.001c-0.018,0 -0.034,-0.016 -0.034,-0.034zm0.101 -0.223c-0.025,0.065 -0.035,0.128 -0.034,0.189l1.845 0c0,-0.061 -0.01,-0.124 -0.034,-0.189 -0.029,-0.075 -0.077,-0.154 -0.152,-0.238l-1.474 0c-0.075,0.084 -0.123,0.163 -0.151,0.238z"/>
    <path class="fil2" d="M2.151 1.266c-0.003,-0.15 0.011,-0.311 0.066,-0.495l0.492 0c0.055,0.184 0.07,0.345 0.067,0.495 -0.209,0 -0.417,0 -0.625,0z"/>
    <path class="fil1" d="M2.117 1.263c-0.002,-0.076 0.001,-0.154 0.011,-0.236 0.011,-0.084 0.029,-0.172 0.057,-0.266 0.004,-0.015 0.017,-0.024 0.032,-0.024l0.492 0c0.016,0 0.03,0.011 0.033,0.026 0.028,0.094 0.046,0.181 0.056,0.264 0.01,0.083 0.013,0.162 0.012,0.239 -0.001,0.019 -0.016,0.033 -0.034,0.033l-0.625 0.001c-0.019,0 -0.034,-0.016 -0.034,-0.034l0 -0.003zm0.079 -0.228c-0.009,0.069 -0.012,0.134 -0.012,0.197l0.558 0c0.001,-0.063 -0.003,-0.128 -0.011,-0.197 -0.009,-0.073 -0.024,-0.149 -0.047,-0.23l-0.442 0c-0.022,0.081 -0.037,0.157 -0.046,0.23z"/>
    <path class="fil1" d="M2.87 2.594l0.515 0 0 -1.081 -0.515 0 0 1.081zm0.541 0.067l-0.566 0c-0.012,0 -0.022,-0.004 -0.03,-0.012 -0.008,-0.008 -0.012,-0.019 -0.012,-0.03l0 -1.14c0,-0.019 0.015,-0.034 0.033,-0.034l0.583 0c0.019,0 0.034,0.015 0.034,0.034l0 1.14c0,0.011 -0.005,0.022 -0.012,0.03 -0.008,0.008 -0.019,0.012 -0.03,0.012z"/>
    <path class="fil1" d="M1.541 2.38l0.946 0 0 -0.867 -0.946 0 0 0.867zm0.965 0.068l-0.985 0c-0.013,0 -0.025,-0.006 -0.034,-0.014l0 0c-0.009,-0.009 -0.014,-0.021 -0.014,-0.034l0 -0.921c0,-0.019 0.015,-0.034 0.034,-0.034l1.013 0c0.019,0 0.034,0.015 0.034,0.034l0 0.921c0,0.013 -0.005,0.025 -0.014,0.034 -0.008,0.008 -0.02,0.014 -0.034,0.014z"/>
   </g>
  </g>
 </g>
</svg>
