<?xml version="1.0" encoding="UTF-8"?>
<!DOCTYPE svg PUBLIC "-//W3C//DTD SVG 1.1//EN" "http://www.w3.org/Graphics/SVG/1.1/DTD/svg11.dtd">
<!-- Creator: CorelDRAW 2018 (64-Bit) -->
<svg xmlns="http://www.w3.org/2000/svg" xml:space="preserve" width="73px" height="42px" version="1.1" style="shape-rendering:geometricPrecision; text-rendering:geometricPrecision; image-rendering:optimizeQuality; fill-rule:evenodd; clip-rule:evenodd"
viewBox="0 0 6.304 3.642"
 xmlns:xlink="http://www.w3.org/1999/xlink">
 <defs>
  <style type="text/css">
   <![CDATA[
    .fil0 {fill:none}
    .fil3 {fill:#00F4FF}
    .fil1 {fill:#F5F6F9}
    .fil4 {fill:white}
    .fil2 {fill:gray;fill-rule:nonzero}
   ]]>
  </style>
 </defs>
 <g id="Layer_x0020_1">
  <metadata id="CorelCorpID_0Corel-Layer"/>
  <g id="_1612679560128">
   <rect class="fil0" width="6.304" height="3.642"/>
   <g>
    <path class="fil1" d="M1.751 0.42l2.802 0c0.077,0 0.14,0.063 0.14,0.14l0 2.522c0,0.077 -0.063,0.14 -0.14,0.14l-2.802 0c-0.077,0 -0.14,-0.063 -0.14,-0.14l0 -2.522c0,-0.077 0.063,-0.14 0.14,-0.14z"/>
    <path class="fil2" d="M1.751 0.377l2.802 0c0.05,0 0.096,0.021 0.129,0.054 0.034,0.033 0.054,0.079 0.054,0.129l0 2.522c0,0.05 -0.02,0.096 -0.054,0.129 -0.033,0.034 -0.079,0.054 -0.129,0.054l-2.802 0c-0.05,0 -0.096,-0.02 -0.129,-0.053l-0.001 -0.001c-0.033,-0.033 -0.053,-0.079 -0.053,-0.129l0 -2.522c0,-0.05 0.02,-0.096 0.054,-0.129l0.002 -0.003c0.033,-0.032 0.078,-0.051 0.127,-0.051zm2.802 0.087l-2.802 0c-0.026,0 -0.049,0.01 -0.066,0.026l-0.002 0.002c-0.018,0.018 -0.029,0.042 -0.029,0.068l0 2.522c0,0.027 0.011,0.051 0.029,0.068 0.017,0.018 0.041,0.029 0.068,0.029l2.802 0c0.026,0 0.051,-0.011 0.068,-0.029 0.018,-0.017 0.029,-0.041 0.029,-0.068l0 -2.522c0,-0.026 -0.011,-0.05 -0.029,-0.068 -0.017,-0.017 -0.042,-0.028 -0.068,-0.028z"/>
    <path class="fil3" d="M4.693 3.086c-0.002,0.075 -0.064,0.136 -0.14,0.136l-2.802 0c-0.077,0 -0.14,-0.063 -0.14,-0.14l0 -0.935 0.84 -0.996 1.066 1.353 0.423 -0.435 0.753 0.71 0 0.307z"/>
    <path class="fil2" d="M4.736 3.091c-0.002,0.048 -0.023,0.091 -0.055,0.122 -0.033,0.032 -0.079,0.052 -0.128,0.052l-2.802 0c-0.05,0 -0.096,-0.02 -0.13,-0.053 -0.033,-0.034 -0.053,-0.08 -0.053,-0.13l0 -0.935c0,-0.012 0.004,-0.023 0.012,-0.03l0.838 -0.994c0.015,-0.018 0.042,-0.02 0.061,-0.005 0.002,0.002 0.004,0.004 0.006,0.007l1.036 1.314 0.388 -0.4c0.017,-0.017 0.044,-0.018 0.061,-0.002l0.753 0.71c0.009,0.009 0.013,0.02 0.013,0.032l0 0.307 0 0.005zm-0.116 0.06c0.017,-0.016 0.028,-0.039 0.03,-0.063l0 -0.291 -0.708 -0.667 -0.392 0.403c-0.002,0.002 -0.004,0.004 -0.006,0.005 -0.019,0.015 -0.046,0.012 -0.061,-0.007l-1.033 -1.311 -0.796 0.942 0 0.92c0,0.027 0.011,0.051 0.029,0.068 0.017,0.018 0.042,0.029 0.068,0.029l2.802 0c0.026,0 0.05,-0.011 0.067,-0.028z"/>
    <path class="fil4" d="M4.293 1.152c0,0 0,-0.001 0,-0.001 0,-0.159 -0.129,-0.288 -0.288,-0.288 -0.159,0 -0.288,0.129 -0.288,0.288l0 0c0,0.159 0.129,0.288 0.288,0.288 0.159,0.001 0.288,-0.128 0.288,-0.287z"/>
    <path class="fil2" d="M4.249 1.152l0 -0.001c0,-0.068 -0.027,-0.129 -0.071,-0.173 -0.044,-0.044 -0.105,-0.072 -0.173,-0.072l0 0.001c-0.068,0 -0.129,0.027 -0.173,0.071 -0.044,0.044 -0.072,0.105 -0.072,0.172l0 0.001c0,0.068 0.028,0.129 0.072,0.173 0.044,0.045 0.105,0.072 0.172,0.072l0.001 0c0.067,0 0.129,-0.027 0.173,-0.071 0.044,-0.045 0.072,-0.106 0.072,-0.173l-0.001 0zm0.087 -0.001l0 0.001c0,0.091 -0.037,0.174 -0.097,0.234 -0.06,0.06 -0.143,0.097 -0.234,0.097l-0.001 0c-0.091,-0.001 -0.174,-0.038 -0.234,-0.098 -0.059,-0.059 -0.096,-0.142 -0.096,-0.234l0 -0.001c0,-0.091 0.037,-0.174 0.097,-0.233 0.06,-0.06 0.142,-0.097 0.234,-0.097l0 0c0.092,0 0.174,0.037 0.234,0.097 0.06,0.06 0.097,0.143 0.097,0.234z"/>
    <polygon class="fil4" points="3.36,2.305 2.451,1.151 1.614,2.144 1.903,2.013 2.033,2.337 2.399,1.938 2.735,2.279 2.88,2.048 "/>
    <path class="fil2" d="M3.198 2.169l-0.748 -0.949 -0.68 0.806 0.115 -0.052c0.022,-0.01 0.048,-0.001 0.058,0.021l0.105 0.263 0.32 -0.349c0.016,-0.018 0.043,-0.019 0.061,-0.003l0.299 0.304 0.116 -0.185c0.012,-0.02 0.037,-0.026 0.057,-0.015l0.297 0.159zm-0.713 -1.044l0.909 1.153c0.01,0.013 0.012,0.031 0.004,0.047 -0.011,0.021 -0.037,0.029 -0.058,0.018l-0.445 -0.238 -0.122 0.194c-0.002,0.004 -0.004,0.008 -0.007,0.011 -0.017,0.016 -0.045,0.016 -0.062,-0.001l-0.303 -0.309 -0.334 0.365c-0.005,0.005 -0.011,0.01 -0.018,0.013 -0.022,0.009 -0.047,-0.002 -0.056,-0.024l-0.113 -0.283 -0.249 0.112c-0.014,0.007 -0.032,0.005 -0.045,-0.006 -0.019,-0.016 -0.021,-0.043 -0.005,-0.061l0.835 -0.991c0.003,-0.003 0.005,-0.005 0.008,-0.008 0.019,-0.014 0.046,-0.011 0.061,0.008z"/>
    <polygon class="fil4" points="3.517,2.504 3.94,2.069 4.634,2.723 4.133,2.522 4.047,2.767 3.833,2.522 3.617,2.639 "/>
    <path class="fil2" d="M3.486 2.474l0.423 -0.435c0.017,-0.017 0.044,-0.018 0.061,-0.002l0.693 0.654c0.018,0.016 0.018,0.044 0.002,0.061 -0.013,0.014 -0.032,0.017 -0.049,0.01l-0.457 -0.183 -0.071 0.202c-0.008,0.023 -0.033,0.035 -0.055,0.027 -0.008,-0.003 -0.014,-0.007 -0.019,-0.012l-0.191 -0.22 -0.185 0.101c-0.019,0.01 -0.043,0.005 -0.055,-0.012l-0.1 -0.135c-0.013,-0.017 -0.011,-0.041 0.003,-0.056zm0.456 -0.344l-0.368 0.378 0.056 0.075 0.18 -0.098c0.017,-0.011 0.042,-0.008 0.056,0.008l0.165 0.19 0.062 -0.178c0.009,-0.022 0.034,-0.032 0.056,-0.024l0.289 0.116 -0.496 -0.467z"/>
   </g>
  </g>
 </g>
</svg>
