<?xml version="1.0" encoding="UTF-8"?>
<!DOCTYPE svg PUBLIC "-//W3C//DTD SVG 1.1//EN" "http://www.w3.org/Graphics/SVG/1.1/DTD/svg11.dtd">
<!-- Creator: CorelDRAW 2018 (64-Bit) -->
<svg xmlns="http://www.w3.org/2000/svg" xml:space="preserve" width="73px" height="42px" version="1.1" style="shape-rendering:geometricPrecision; text-rendering:geometricPrecision; image-rendering:optimizeQuality; fill-rule:evenodd; clip-rule:evenodd"
viewBox="0 0 15.558 8.989"
 xmlns:xlink="http://www.w3.org/1999/xlink">
 <defs>
  <style type="text/css">
   <![CDATA[
    .fil0 {fill:none}
    .fil2 {fill:#00F4FF}
    .fil3 {fill:gray;fill-rule:nonzero}
    .fil1 {fill:gray;fill-rule:nonzero}
   ]]>
  </style>
 </defs>
 <g id="Layer_x0020_1">
  <metadata id="CorelCorpID_0Corel-Layer"/>
  <g id="_1612307762688">
   <rect class="fil0" width="15.558" height="8.989"/>
   <g>
    <path class="fil1" d="M1.434 8.093c-0.059,0 -0.107,-0.048 -0.107,-0.107 0,-0.059 0.048,-0.107 0.107,-0.107l2.076 0c0.059,0 0.107,0.048 0.107,0.107 0,0.059 -0.048,0.107 -0.107,0.107l-2.076 0z"/>
    <path class="fil1" d="M3.982 5.027l-0.587 0.339c-0.16,0.093 -0.248,0.286 -0.259,0.522 -0.013,0.248 0.058,0.54 0.215,0.818l1.822 -1.052c-0.162,-0.275 -0.38,-0.482 -0.6,-0.596 -0.207,-0.106 -0.415,-0.128 -0.574,-0.04 -0.006,0.003 -0.011,0.007 -0.017,0.009zm-0.694 0.155l0.597 -0.344c0.227,-0.132 0.511,-0.11 0.785,0.031 0.26,0.133 0.513,0.375 0.697,0.694l0.044 0.077c0.03,0.051 0.012,0.116 -0.038,0.146l-2.007 1.158c-0.051,0.03 -0.117,0.013 -0.146,-0.038l-0.045 -0.077c-0.184,-0.319 -0.267,-0.66 -0.253,-0.951 0.015,-0.308 0.139,-0.565 0.366,-0.696z"/>
    <path class="fil1" d="M3.925 4.814c-0.095,-0.155 -0.207,-0.279 -0.313,-0.356 -0.092,-0.068 -0.171,-0.097 -0.215,-0.072l-0.256 0.148c-0.043,0.025 -0.058,0.109 -0.046,0.222 0.014,0.13 0.066,0.289 0.152,0.449l0.678 -0.391zm-0.187 -0.529c0.138,0.101 0.282,0.265 0.398,0.466l0.028 0.048c0.03,0.051 0.012,0.116 -0.039,0.146l-0.864 0.499c-0.051,0.029 -0.117,0.011 -0.146,-0.04l-0.027 -0.047c-0.117,-0.202 -0.187,-0.408 -0.205,-0.578 -0.021,-0.199 0.028,-0.358 0.151,-0.429l0.257 -0.149c0.123,-0.071 0.285,-0.033 0.447,0.084z"/>
    <path class="fil1" d="M1.686 5.674c-0.067,0 -0.127,0.027 -0.171,0.071l-0.005 0.004c-0.041,0.043 -0.066,0.102 -0.066,0.167 0,0.067 0.027,0.128 0.071,0.172l0.004 0.005c0.044,0.041 0.102,0.066 0.167,0.066 0.068,0 0.129,-0.027 0.172,-0.071 0.044,-0.044 0.071,-0.105 0.071,-0.172 0,-0.067 -0.027,-0.128 -0.071,-0.171 -0.044,-0.044 -0.105,-0.071 -0.172,-0.071zm-0.323 -0.081c0.083,-0.082 0.197,-0.134 0.323,-0.134 0.127,0 0.241,0.052 0.324,0.134 0.082,0.083 0.133,0.197 0.133,0.323 0,0.126 -0.051,0.241 -0.133,0.323 -0.084,0.083 -0.198,0.134 -0.324,0.134 -0.122,0 -0.234,-0.048 -0.316,-0.127l-0.007 -0.007c-0.082,-0.082 -0.133,-0.197 -0.133,-0.323 0,-0.122 0.048,-0.234 0.127,-0.316l0.006 -0.007z"/>
    <path class="fil1" d="M2.987 4.909c0.051,-0.031 0.116,-0.015 0.147,0.036 0.03,0.051 0.014,0.116 -0.037,0.147l-1.108 0.668c-0.051,0.031 -0.116,0.015 -0.147,-0.036 -0.03,-0.05 -0.014,-0.116 0.037,-0.147l1.108 -0.668z"/>
    <path class="fil1" d="M1.768 6.292c-0.02,-0.055 0.008,-0.117 0.063,-0.138 0.055,-0.02 0.116,0.008 0.137,0.063l0.652 1.731c0.02,0.055 -0.008,0.117 -0.063,0.138 -0.055,0.02 -0.116,-0.007 -0.137,-0.063l-0.652 -1.731z"/>
    <path class="fil1" d="M4.983 4.48c0,0.059 -0.048,0.107 -0.107,0.107 -0.059,0 -0.107,-0.048 -0.107,-0.107l0 -3.306c0,-0.114 0.047,-0.219 0.122,-0.294l0.001 -0.001c0.076,-0.075 0.179,-0.122 0.293,-0.122l8.036 0c0.114,0 0.218,0.047 0.293,0.123l0.001 0c0.075,0.076 0.122,0.18 0.122,0.294l0 5.211c0,0.114 -0.047,0.218 -0.122,0.293l-0.001 0.001c-0.075,0.075 -0.179,0.122 -0.293,0.122l-8.036 0c-0.057,0 -0.112,-0.012 -0.162,-0.034 -0.052,-0.022 -0.099,-0.054 -0.137,-0.094 -0.041,-0.043 -0.04,-0.11 0.003,-0.151 0.042,-0.041 0.11,-0.04 0.151,0.003 0.019,0.019 0.041,0.035 0.067,0.046 0.023,0.01 0.05,0.016 0.078,0.016l8.036 0c0.056,0 0.106,-0.023 0.143,-0.059 0.036,-0.037 0.059,-0.088 0.059,-0.143l0 -5.211c0,-0.056 -0.023,-0.107 -0.059,-0.143 -0.037,-0.037 -0.087,-0.06 -0.143,-0.06l-8.036 0c-0.055,0 -0.106,0.023 -0.142,0.059 -0.037,0.037 -0.06,0.088 -0.06,0.144l0 3.306z"/>
    <path class="fil1" d="M7.328 8.093c-0.059,0 -0.107,-0.048 -0.107,-0.107 0,-0.059 0.048,-0.107 0.107,-0.107l3.75 0c0.059,0 0.107,0.048 0.107,0.107 0,0.059 -0.048,0.107 -0.107,0.107l-3.75 0z"/>
    <path class="fil1" d="M8.079 7.853c0,0.059 -0.048,0.107 -0.107,0.107 -0.059,0 -0.107,-0.048 -0.107,-0.107l0 -1.159c0,-0.059 0.048,-0.107 0.107,-0.107 0.059,0 0.107,0.048 0.107,0.107l0 1.159z"/>
    <path class="fil1" d="M10.542 7.853c0,0.059 -0.048,0.107 -0.107,0.107 -0.059,0 -0.107,-0.048 -0.107,-0.107l0 -1.159c0,-0.059 0.048,-0.107 0.107,-0.107 0.059,0 0.107,0.048 0.107,0.107l0 1.159z"/>
    <path class="fil2" d="M11.32 3.901c0.119,0.04 0.228,0.104 0.32,0.186l0.396 -0.119c0.079,0.099 0.144,0.21 0.191,0.331l-0.301 0.282c0.012,0.06 0.019,0.122 0.019,0.186 0,0.063 -0.007,0.125 -0.019,0.185l0.301 0.283c-0.047,0.12 -0.112,0.232 -0.191,0.331l-0.396 -0.12c-0.092,0.083 -0.201,0.147 -0.32,0.186l-0.095 0.402c-0.062,0.009 -0.126,0.014 -0.191,0.014 -0.065,0 -0.129,-0.005 -0.191,-0.014l-0.094 -0.402c-0.12,-0.039 -0.229,-0.103 -0.321,-0.186l-0.396 0.12c-0.079,-0.099 -0.144,-0.211 -0.191,-0.331l0.301 -0.283c-0.012,-0.06 -0.019,-0.122 -0.019,-0.185 0,-0.064 0.007,-0.126 0.019,-0.186l-0.301 -0.282c0.047,-0.121 0.112,-0.232 0.191,-0.331l0.396 0.119c0.092,-0.082 0.201,-0.146 0.321,-0.186l0.094 -0.401c0.062,-0.01 0.126,-0.015 0.191,-0.015 0.065,0 0.129,0.005 0.191,0.015l0.095 0.401zm-0.286 0.462c0.223,0 0.404,0.181 0.404,0.404 0,0.223 -0.181,0.404 -0.404,0.404 -0.223,0 -0.404,-0.181 -0.404,-0.404 0,-0.223 0.181,-0.404 0.404,-0.404z"/>
    <path class="fil1" d="M11.41 3.821c0.046,0.018 0.09,0.04 0.133,0.064 0.042,0.025 0.083,0.052 0.121,0.083l0.341 -0.103c0.047,-0.014 0.096,0.006 0.121,0.045 0.041,0.052 0.078,0.106 0.11,0.162 0.035,0.06 0.065,0.123 0.091,0.188 0.017,0.043 0.003,0.091 -0.03,0.12l-0.256 0.24 0.005 0.043c0.004,0.036 0.006,0.071 0.006,0.104 0,0.033 -0.002,0.068 -0.006,0.104l-0.005 0.043 0.259 0.243c0.033,0.031 0.042,0.077 0.027,0.117 -0.026,0.064 -0.056,0.127 -0.091,0.187 -0.034,0.059 -0.073,0.117 -0.117,0.171 -0.028,0.036 -0.074,0.048 -0.114,0.036l-0.341 -0.102c-0.038,0.03 -0.079,0.058 -0.121,0.082 -0.043,0.025 -0.087,0.047 -0.133,0.065l-0.081 0.345c-0.01,0.044 -0.046,0.075 -0.088,0.082 -0.034,0.005 -0.069,0.009 -0.104,0.011 -0.035,0.003 -0.069,0.004 -0.103,0.004 -0.034,0 -0.069,-0.001 -0.104,-0.004 -0.035,-0.002 -0.069,-0.006 -0.103,-0.011 -0.045,-0.007 -0.08,-0.042 -0.089,-0.084l-0.08 -0.343c-0.046,-0.018 -0.09,-0.04 -0.133,-0.065 -0.042,-0.024 -0.083,-0.052 -0.122,-0.082l-0.34 0.102c-0.047,0.015 -0.096,-0.005 -0.121,-0.044 -0.041,-0.053 -0.078,-0.107 -0.11,-0.163 -0.035,-0.06 -0.065,-0.123 -0.091,-0.187 -0.017,-0.044 -0.003,-0.091 0.03,-0.12l0.256 -0.24 -0.005 -0.043c-0.004,-0.036 -0.006,-0.071 -0.006,-0.104 0,-0.033 0.002,-0.068 0.006,-0.105l0.005 -0.042 -0.259 -0.244c-0.033,-0.03 -0.042,-0.077 -0.027,-0.116 0.026,-0.065 0.056,-0.128 0.091,-0.188 0.034,-0.059 0.073,-0.116 0.117,-0.171 0.028,-0.035 0.074,-0.048 0.114,-0.035l0.34 0.102c0.039,-0.03 0.08,-0.058 0.122,-0.083 0.043,-0.024 0.087,-0.046 0.133,-0.064l0.081 -0.346c0.01,-0.044 0.046,-0.075 0.088,-0.081 0.033,-0.005 0.067,-0.009 0.103,-0.012 0.035,-0.002 0.07,-0.004 0.104,-0.004 0.034,0 0.069,0.002 0.104,0.004l0.003 0.001c0.034,0.002 0.068,0.006 0.1,0.011 0.046,0.007 0.081,0.042 0.089,0.086l0.08 0.341zm0.026 0.249c-0.047,-0.027 -0.097,-0.05 -0.15,-0.067 -0.034,-0.011 -0.062,-0.04 -0.07,-0.077l-0.078 -0.329 -0.016 -0.001c-0.028,-0.003 -0.057,-0.004 -0.088,-0.004 -0.031,0 -0.06,0.001 -0.088,0.004l-0.016 0.001 -0.077 0.325c-0.007,0.037 -0.033,0.068 -0.071,0.081 -0.053,0.017 -0.103,0.04 -0.15,0.067 -0.046,0.026 -0.089,0.058 -0.13,0.094 -0.027,0.026 -0.067,0.037 -0.105,0.025l-0.324 -0.098c-0.02,0.028 -0.039,0.058 -0.056,0.088 -0.018,0.03 -0.034,0.061 -0.049,0.093l0.247 0.232c0.026,0.024 0.039,0.061 0.031,0.099 -0.005,0.027 -0.009,0.054 -0.012,0.081 -0.003,0.025 -0.004,0.053 -0.004,0.083 0,0.03 0.001,0.057 0.004,0.082 0.003,0.027 0.007,0.053 0.012,0.078 0.008,0.036 -0.002,0.076 -0.031,0.103l-0.247 0.231c0.015,0.032 0.031,0.063 0.048,0.093 0.018,0.031 0.037,0.06 0.057,0.088l0.324 -0.098c0.034,-0.01 0.073,-0.003 0.102,0.023 0.041,0.037 0.086,0.069 0.133,0.097 0.047,0.026 0.097,0.049 0.15,0.066 0.034,0.012 0.062,0.04 0.071,0.078l0.077 0.329 0.015 0.001c0.028,0.002 0.058,0.003 0.089,0.003 0.031,0 0.06,-0.001 0.088,-0.003l0.016 -0.001 0.077 -0.325c0.007,-0.037 0.033,-0.069 0.071,-0.082 0.053,-0.017 0.103,-0.04 0.15,-0.066 0.045,-0.027 0.088,-0.057 0.126,-0.091 0.027,-0.028 0.069,-0.041 0.109,-0.029l0.324 0.098c0.02,-0.028 0.039,-0.057 0.056,-0.088 0.018,-0.03 0.034,-0.061 0.049,-0.093l-0.247 -0.231c-0.026,-0.025 -0.039,-0.062 -0.031,-0.099 0.005,-0.026 0.009,-0.052 0.012,-0.079l0 -0.003c0.003,-0.025 0.004,-0.053 0.004,-0.082 0,-0.03 -0.001,-0.057 -0.004,-0.083 -0.003,-0.026 -0.006,-0.052 -0.011,-0.076 -0.01,-0.037 0.001,-0.077 0.03,-0.104l0.247 -0.232c-0.015,-0.032 -0.031,-0.063 -0.049,-0.093 -0.017,-0.03 -0.036,-0.06 -0.056,-0.088l-0.324 0.098c-0.034,0.01 -0.073,0.003 -0.102,-0.023 -0.04,-0.036 -0.085,-0.068 -0.133,-0.096zm-0.402 0.186c0.141,0 0.269,0.057 0.361,0.149 0.093,0.093 0.15,0.221 0.15,0.362 0,0.14 -0.057,0.268 -0.15,0.361 -0.092,0.092 -0.22,0.15 -0.361,0.15 -0.141,0 -0.269,-0.058 -0.361,-0.15l-0.006 -0.007c-0.089,-0.092 -0.144,-0.217 -0.144,-0.354 0,-0.141 0.057,-0.269 0.15,-0.361 0.092,-0.093 0.22,-0.15 0.361,-0.15zm0.21 0.301c-0.054,-0.054 -0.128,-0.087 -0.21,-0.087 -0.082,0 -0.156,0.033 -0.21,0.087 -0.054,0.053 -0.087,0.127 -0.087,0.21 0,0.08 0.031,0.152 0.082,0.205l0.005 0.005c0.054,0.053 0.128,0.087 0.21,0.087 0.082,0 0.156,-0.034 0.21,-0.087 0.054,-0.054 0.087,-0.128 0.087,-0.21 0,-0.082 -0.033,-0.157 -0.087,-0.21z"/>
    <path class="fil2" d="M8.38 2.033c0.103,0.029 0.201,0.07 0.293,0.121l0.487 -0.238c0.101,0.082 0.193,0.174 0.275,0.275l-0.238 0.487c0.051,0.091 0.092,0.189 0.121,0.292l0.512 0.177c0.007,0.064 0.011,0.128 0.011,0.194 0,0.065 -0.004,0.13 -0.011,0.194l-0.512 0.176c-0.029,0.103 -0.07,0.201 -0.121,0.293l0.238 0.487c-0.082,0.101 -0.174,0.193 -0.275,0.274l-0.487 -0.237c-0.092,0.051 -0.19,0.092 -0.293,0.121l-0.176 0.512c-0.064,0.007 -0.128,0.011 -0.194,0.011 -0.066,0 -0.13,-0.004 -0.194,-0.011l-0.176 -0.512c-0.103,-0.029 -0.201,-0.07 -0.293,-0.121l-0.487 0.237c-0.101,-0.081 -0.193,-0.173 -0.275,-0.274l0.238 -0.487c-0.051,-0.092 -0.092,-0.19 -0.121,-0.293l-0.513 -0.176c-0.006,-0.064 -0.01,-0.129 -0.01,-0.194 0,-0.066 0.004,-0.13 0.01,-0.194l0.513 -0.177c0.029,-0.103 0.07,-0.201 0.121,-0.292l-0.238 -0.487c0.082,-0.101 0.174,-0.193 0.275,-0.275l0.487 0.238c0.092,-0.051 0.19,-0.092 0.293,-0.121l0.176 -0.513c0.064,-0.006 0.128,-0.01 0.194,-0.01 0.066,0 0.13,0.004 0.194,0.01l0.176 0.513zm-0.37 0.62c0.38,0 0.688,0.308 0.688,0.688 0,0.38 -0.308,0.688 -0.688,0.688 -0.38,0 -0.688,-0.308 -0.688,-0.688 0,-0.38 0.308,-0.688 0.688,-0.688z"/>
    <path class="fil3" d="M8.464 1.946c0.036,0.012 0.071,0.025 0.106,0.04 0.036,0.014 0.07,0.031 0.105,0.048l0.438 -0.214c0.041,-0.02 0.088,-0.011 0.119,0.017 0.052,0.042 0.101,0.087 0.148,0.134 0.047,0.047 0.093,0.098 0.138,0.153 0.026,0.033 0.03,0.078 0.012,0.114l-0.213 0.438c0.017,0.033 0.033,0.068 0.048,0.104 0.014,0.035 0.028,0.071 0.039,0.107l0.461 0.158c0.043,0.015 0.07,0.054 0.072,0.096 0.003,0.032 0.006,0.064 0.008,0.097 0.002,0.037 0.003,0.072 0.003,0.103 0,0.031 -0.001,0.065 -0.003,0.103 -0.002,0.035 -0.005,0.069 -0.008,0.102 -0.005,0.043 -0.034,0.077 -0.072,0.09l-0.461 0.159c-0.011,0.035 -0.025,0.071 -0.039,0.106 -0.015,0.036 -0.031,0.07 -0.048,0.105l0.214 0.438c0.019,0.04 0.011,0.088 -0.018,0.119 -0.042,0.053 -0.087,0.102 -0.133,0.148 -0.047,0.047 -0.098,0.093 -0.153,0.137 -0.033,0.027 -0.078,0.031 -0.114,0.013l-0.438 -0.213c-0.034,0.017 -0.069,0.033 -0.104,0.048 -0.035,0.014 -0.071,0.028 -0.107,0.039l-0.159 0.461c-0.014,0.043 -0.054,0.07 -0.096,0.072 -0.032,0.003 -0.064,0.006 -0.096,0.008 -0.037,0.002 -0.072,0.003 -0.103,0.003 -0.031,0 -0.066,-0.001 -0.103,-0.003 -0.035,-0.002 -0.069,-0.005 -0.102,-0.008 -0.043,-0.005 -0.077,-0.034 -0.09,-0.072l-0.159 -0.461c-0.036,-0.011 -0.071,-0.025 -0.106,-0.039 -0.036,-0.015 -0.071,-0.031 -0.105,-0.048l-0.438 0.214c-0.041,0.019 -0.088,0.011 -0.119,-0.018 -0.052,-0.042 -0.101,-0.086 -0.148,-0.133 -0.05,-0.05 -0.096,-0.101 -0.138,-0.153 -0.028,-0.035 -0.031,-0.081 -0.011,-0.118l0.212 -0.434c-0.017,-0.034 -0.033,-0.068 -0.048,-0.104 -0.014,-0.035 -0.028,-0.071 -0.04,-0.107l-0.46 -0.159c-0.043,-0.014 -0.071,-0.054 -0.072,-0.097 -0.003,-0.031 -0.006,-0.063 -0.008,-0.095 -0.002,-0.038 -0.003,-0.072 -0.003,-0.103 0,-0.031 0.001,-0.066 0.003,-0.103 0.002,-0.035 0.005,-0.069 0.008,-0.102 0.005,-0.043 0.034,-0.077 0.072,-0.09l0.461 -0.159c0.011,-0.036 0.025,-0.071 0.039,-0.106 0.014,-0.036 0.031,-0.071 0.048,-0.105l-0.214 -0.438c-0.02,-0.041 -0.011,-0.088 0.018,-0.119 0.042,-0.053 0.087,-0.102 0.133,-0.148 0.047,-0.047 0.098,-0.094 0.153,-0.138 0.034,-0.027 0.078,-0.03 0.114,-0.013l0.438 0.214c0.034,-0.017 0.069,-0.033 0.104,-0.048 0.035,-0.015 0.071,-0.028 0.107,-0.04l0.159 -0.46c0.014,-0.043 0.053,-0.07 0.095,-0.072 0.032,-0.004 0.064,-0.006 0.097,-0.008 0.037,-0.002 0.072,-0.003 0.103,-0.003 0.031,0 0.066,0.001 0.103,0.003 0.035,0.002 0.069,0.005 0.103,0.008 0.042,0.005 0.076,0.034 0.089,0.072l0.159 0.46zm0.025 0.237c-0.043,-0.018 -0.087,-0.033 -0.133,-0.046 -0.035,-0.009 -0.065,-0.034 -0.077,-0.07l-0.153 -0.446 -0.024 -0.002c-0.027,-0.001 -0.057,-0.002 -0.092,-0.002 -0.035,0 -0.065,0.001 -0.092,0.002l-0.024 0.002 -0.153 0.446c-0.011,0.032 -0.037,0.059 -0.073,0.068 -0.046,0.014 -0.092,0.03 -0.137,0.048 -0.043,0.018 -0.085,0.038 -0.126,0.061 -0.03,0.019 -0.07,0.023 -0.105,0.006l-0.424 -0.207c-0.029,0.025 -0.057,0.051 -0.085,0.079 -0.028,0.028 -0.054,0.056 -0.079,0.084l0.207 0.425c0.015,0.03 0.015,0.067 -0.003,0.099 -0.023,0.041 -0.044,0.086 -0.064,0.132 -0.017,0.043 -0.033,0.087 -0.046,0.133 -0.008,0.035 -0.034,0.064 -0.07,0.077l-0.446 0.153 -0.002 0.024c-0.001,0.027 -0.002,0.057 -0.002,0.092 0,0.034 0.001,0.065 0.002,0.092l0.002 0.024 0.446 0.153c0.032,0.011 0.059,0.037 0.069,0.072 0.013,0.047 0.029,0.093 0.047,0.138 0.018,0.043 0.039,0.086 0.063,0.129 0.018,0.03 0.021,0.068 0.004,0.102l-0.207 0.424c0.026,0.03 0.052,0.058 0.079,0.085 0.027,0.027 0.055,0.054 0.084,0.079l0.425 -0.207c0.03,-0.015 0.067,-0.015 0.099,0.002 0.041,0.024 0.086,0.045 0.132,0.064 0.043,0.018 0.087,0.034 0.133,0.047 0.035,0.008 0.064,0.033 0.077,0.069l0.153 0.447 0.024 0.001c0.027,0.002 0.057,0.003 0.092,0.003 0.035,0 0.065,-0.001 0.092,-0.003l0.024 -0.001 0.153 -0.447c0.011,-0.032 0.037,-0.058 0.072,-0.068 0.047,-0.013 0.093,-0.029 0.138,-0.048 0.043,-0.017 0.085,-0.038 0.126,-0.06 0.03,-0.02 0.07,-0.023 0.105,-0.006l0.424 0.207c0.029,-0.025 0.057,-0.052 0.085,-0.08 0.028,-0.027 0.054,-0.055 0.079,-0.084l-0.207 -0.424c-0.015,-0.031 -0.015,-0.067 0.003,-0.099 0.023,-0.042 0.044,-0.086 0.064,-0.132 0.017,-0.043 0.033,-0.087 0.046,-0.133 0.008,-0.035 0.034,-0.065 0.07,-0.077l0.446 -0.153 0.002 -0.024c0.001,-0.027 0.002,-0.058 0.002,-0.092 0,-0.035 -0.001,-0.065 -0.002,-0.092l-0.002 -0.024 -0.446 -0.153c-0.033,-0.012 -0.059,-0.038 -0.069,-0.073 -0.013,-0.046 -0.029,-0.092 -0.047,-0.137 -0.018,-0.044 -0.039,-0.087 -0.063,-0.129 -0.018,-0.03 -0.021,-0.068 -0.004,-0.102l0.207 -0.425c-0.025,-0.028 -0.051,-0.056 -0.079,-0.084 -0.027,-0.028 -0.055,-0.054 -0.085,-0.079l-0.424 0.207c-0.031,0.015 -0.067,0.015 -0.099,-0.003 -0.041,-0.023 -0.086,-0.045 -0.132,-0.064zm-0.479 0.363c0.219,0 0.418,0.089 0.562,0.233 0.144,0.144 0.233,0.342 0.233,0.562 0,0.219 -0.089,0.418 -0.233,0.562l-0.006 0.006c-0.144,0.14 -0.34,0.227 -0.556,0.227 -0.219,0 -0.418,-0.089 -0.562,-0.233 -0.144,-0.144 -0.233,-0.343 -0.233,-0.562 0,-0.22 0.089,-0.418 0.233,-0.562l0.006 -0.006c0.144,-0.141 0.34,-0.227 0.556,-0.227zm0.411 0.384c-0.105,-0.105 -0.251,-0.17 -0.411,-0.17 -0.158,0 -0.301,0.063 -0.406,0.165l-0.005 0.005c-0.105,0.105 -0.17,0.25 -0.17,0.411 0,0.16 0.065,0.306 0.17,0.411 0.105,0.105 0.25,0.17 0.411,0.17 0.158,0 0.301,-0.063 0.406,-0.165l0.005 -0.005c0.105,-0.105 0.17,-0.251 0.17,-0.411 0,-0.161 -0.065,-0.306 -0.17,-0.411z"/>
   </g>
  </g>
 </g>
</svg>
