<?xml version="1.0" encoding="UTF-8"?>
<!DOCTYPE svg PUBLIC "-//W3C//DTD SVG 1.1//EN" "http://www.w3.org/Graphics/SVG/1.1/DTD/svg11.dtd">
<!-- Creator: CorelDRAW 2018 (64-Bit) -->
<svg xmlns="http://www.w3.org/2000/svg" xml:space="preserve" width="42px" height="32px" version="1.1" style="shape-rendering:geometricPrecision; text-rendering:geometricPrecision; image-rendering:optimizeQuality; fill-rule:evenodd; clip-rule:evenodd"
viewBox="0 0 1.235 0.941"
 xmlns:xlink="http://www.w3.org/1999/xlink">
 <defs>
  <style type="text/css">
   <![CDATA[
    .fil0 {fill:none}
    .fil1 {fill:#00F4FF;fill-rule:nonzero}
   ]]>
  </style>
 </defs>
 <g id="Layer_x0020_1">
  <metadata id="CorelCorpID_0Corel-Layer"/>
  <g id="_2815590606448">
   <rect class="fil0" width="1.235" height="0.941"/>
   <g>
    <path class="fil1" d="M0.565 0.162c0.083,0 0.158,0.033 0.212,0.088 0.055,0.054 0.088,0.129 0.088,0.212 0,0.083 -0.033,0.158 -0.088,0.212 -0.054,0.055 -0.129,0.088 -0.212,0.088 -0.083,0 -0.158,-0.033 -0.212,-0.088 -0.055,-0.054 -0.088,-0.129 -0.088,-0.212 0,-0.083 0.033,-0.158 0.088,-0.212 0.054,-0.055 0.129,-0.088 0.212,-0.088zm0.191 0.108c-0.049,-0.049 -0.116,-0.079 -0.191,-0.079 -0.075,0 -0.143,0.03 -0.192,0.079 -0.049,0.049 -0.079,0.117 -0.079,0.192 0,0.075 0.03,0.142 0.079,0.191 0.049,0.049 0.117,0.08 0.192,0.08 0.075,0 0.142,-0.031 0.191,-0.08 0.049,-0.049 0.08,-0.116 0.08,-0.191 0,-0.075 -0.031,-0.143 -0.08,-0.192z"/>
    <path class="fil1" d="M0.645 0.324c-0.007,-0.004 -0.01,-0.013 -0.006,-0.02 0.004,-0.007 0.013,-0.009 0.02,-0.005 0.019,0.011 0.036,0.025 0.05,0.042 0.014,0.016 0.026,0.036 0.033,0.056 0.003,0.008 -0.001,0.016 -0.009,0.019 -0.007,0.003 -0.016,-0.001 -0.018,-0.009 -0.007,-0.017 -0.016,-0.033 -0.028,-0.047 -0.012,-0.015 -0.026,-0.027 -0.042,-0.036z"/>
    <path class="fil1" d="M0.756 0.674c-0.005,-0.005 -0.005,-0.015 0,-0.021 0.006,-0.005 0.015,-0.005 0.021,0l0.073 0.074c0.006,0.005 0.006,0.015 0,0.021 -0.005,0.005 -0.015,0.005 -0.02,0l-0.074 -0.074z"/>
    <path class="fil1" d="M0.834 0.731c0.013,-0.014 0.031,-0.021 0.049,-0.021 0.017,0 0.035,0.007 0.049,0.021l0.077 0.077c0.014,0.013 0.02,0.031 0.02,0.049 0,0.018 -0.006,0.036 -0.02,0.049 -0.013,0.014 -0.031,0.02 -0.049,0.02 -0.018,0 -0.036,-0.006 -0.049,-0.02l-0.077 -0.077c-0.014,-0.014 -0.021,-0.032 -0.021,-0.049 0,-0.018 0.007,-0.036 0.021,-0.049zm0.02 0.02c-0.007,0.008 -0.011,0.018 -0.011,0.029 0,0.01 0.004,0.02 0.011,0.028l0.078 0.077c0.007,0.008 0.018,0.012 0.028,0.012 0.01,0 0.02,-0.004 0.028,-0.012 0.008,-0.007 0.012,-0.018 0.012,-0.028 0,-0.01 -0.004,-0.02 -0.012,-0.028l-0.077 -0.078c-0.008,-0.007 -0.018,-0.011 -0.028,-0.011 -0.011,0 -0.021,0.004 -0.029,0.011z"/>
   </g>
  </g>
 </g>
</svg>
