<?xml version="1.0" encoding="UTF-8"?>
<!DOCTYPE svg PUBLIC "-//W3C//DTD SVG 1.1//EN" "http://www.w3.org/Graphics/SVG/1.1/DTD/svg11.dtd">
<!-- Creator: CorelDRAW 2018 (64-Bit) -->
<svg xmlns="http://www.w3.org/2000/svg" xml:space="preserve" width="42px" height="32px" version="1.1" style="shape-rendering:geometricPrecision; text-rendering:geometricPrecision; image-rendering:optimizeQuality; fill-rule:evenodd; clip-rule:evenodd"
viewBox="0 0 1.235 0.941"
 xmlns:xlink="http://www.w3.org/1999/xlink">
 <defs>
  <style type="text/css">
   <![CDATA[
    .fil0 {fill:none}
    .fil1 {fill:#00F4FF;fill-rule:nonzero}
   ]]>
  </style>
 </defs>
 <g id="Layer_x0020_1">
  <metadata id="CorelCorpID_0Corel-Layer"/>
  <g id="_2815449527920">
   <rect class="fil0" width="1.235" height="0.941"/>
   <g>
    <path class="fil1" d="M0.054 0.897c-0.008,0 -0.015,-0.007 -0.015,-0.015 0,-0.008 0.007,-0.014 0.015,-0.014l0.249 0c0.009,0 0.015,0.006 0.015,0.014 0,0.008 -0.006,0.015 -0.015,0.015l-0.249 0z"/>
    <path class="fil1" d="M0.348 0.502c0.007,-0.004 0.015,-0.002 0.02,0.005 0.004,0.007 0.001,0.016 -0.006,0.02l-0.072 0.042c-0.007,0.004 -0.015,0.001 -0.02,-0.006 -0.004,-0.007 -0.001,-0.016 0.006,-0.02l0.072 -0.041z"/>
    <path class="fil1" d="M0.349 0.498c-0.01,-0.015 -0.022,-0.028 -0.034,-0.037 -0.011,-0.008 -0.02,-0.012 -0.024,-0.01l-0.031 0.018c-0.004,0.002 -0.005,0.012 -0.004,0.026 0.002,0.014 0.007,0.031 0.016,0.048l0.077 -0.045zm-0.016 -0.061c0.017,0.013 0.035,0.034 0.05,0.059 0.004,0.007 0.001,0.016 -0.006,0.02l-0.104 0.06c-0.007,0.004 -0.016,0.002 -0.02,-0.005 -0.014,-0.025 -0.023,-0.051 -0.026,-0.073 -0.003,-0.025 0.003,-0.046 0.018,-0.055l0.031 -0.017c0.016,-0.009 0.036,-0.004 0.057,0.011z"/>
    <path class="fil1" d="M0.267 0.753l-0.005 -0.009c-0.023,-0.039 -0.033,-0.08 -0.031,-0.115 0.002,-0.038 0.017,-0.069 0.044,-0.085l0.072 -0.042c0.028,-0.016 0.063,-0.013 0.097,0.004 0.031,0.016 0.062,0.045 0.084,0.083l0.006 0.01c0.004,0.007 0.001,0.016 -0.006,0.02l-0.241 0.14c-0.007,0.004 -0.016,0.001 -0.02,-0.006zm0.018 -0.027l0.216 -0.125c-0.019,-0.032 -0.045,-0.056 -0.071,-0.069 -0.024,-0.013 -0.049,-0.015 -0.068,-0.005l-0.072 0.042c-0.018,0.011 -0.028,0.034 -0.03,0.061 -0.001,0.029 0.007,0.063 0.025,0.096z"/>
    <path class="fil1" d="M0.084 0.606c-0.007,0 -0.014,0.003 -0.019,0.008 -0.005,0.005 -0.008,0.012 -0.008,0.019 0,0.008 0.003,0.015 0.008,0.02l0 0c0.005,0.005 0.012,0.008 0.019,0.008 0.008,0 0.015,-0.003 0.02,-0.008 0.004,-0.005 0.008,-0.012 0.008,-0.02 0,-0.007 -0.004,-0.014 -0.008,-0.019 -0.005,-0.005 -0.012,-0.008 -0.02,-0.008zm-0.04 -0.013c0.01,-0.01 0.025,-0.016 0.04,-0.016 0.016,0 0.03,0.006 0.04,0.016 0.011,0.011 0.017,0.025 0.017,0.04 0,0.016 -0.006,0.03 -0.017,0.041 -0.01,0.01 -0.024,0.016 -0.04,0.016 -0.015,0 -0.029,-0.006 -0.039,-0.016l-0.001 0c-0.01,-0.011 -0.017,-0.025 -0.017,-0.041 0,-0.015 0.007,-0.029 0.017,-0.04z"/>
    <path class="fil1" d="M0.24 0.511c0.007,-0.005 0.016,-0.002 0.02,0.005 0.004,0.007 0.002,0.016 -0.005,0.02l-0.134 0.08c-0.006,0.004 -0.015,0.002 -0.02,-0.005 -0.004,-0.007 -0.002,-0.016 0.005,-0.02l0.134 -0.08z"/>
    <path class="fil1" d="M0.092 0.679c-0.003,-0.007 0.001,-0.016 0.009,-0.019 0.007,-0.003 0.016,0.001 0.019,0.009l0.078 0.208c0.003,0.008 -0.001,0.016 -0.008,0.019 -0.008,0.003 -0.017,-0.001 -0.019,-0.009l-0.079 -0.208z"/>
    <path class="fil1" d="M0.386 0.403c0,0.008 -0.006,0.014 -0.015,0.014 -0.008,0 -0.014,-0.006 -0.014,-0.014l0 -0.155c0,-0.012 0.005,-0.022 0.012,-0.03l0.001 -0.001c0.008,-0.008 0.019,-0.012 0.03,-0.012l0.706 0c0.011,0 0.022,0.005 0.03,0.013 0.008,0.008 0.013,0.018 0.013,0.03l0 0.485c0,0.012 -0.005,0.023 -0.013,0.031 -0.008,0.008 -0.019,0.013 -0.03,0.013l-0.706 0c-0.008,0 -0.014,-0.007 -0.014,-0.015 0,-0.008 0.006,-0.015 0.014,-0.015l0.706 0c0.003,0 0.007,-0.001 0.009,-0.004 0.003,-0.002 0.005,-0.006 0.005,-0.01l0 -0.485c0,-0.003 -0.002,-0.007 -0.005,-0.01 -0.002,-0.002 -0.006,-0.004 -0.009,-0.004l-0.706 0c-0.003,0 -0.007,0.002 -0.009,0.004l-0.001 0c-0.002,0.003 -0.004,0.007 -0.004,0.01l0 0.155z"/>
    <path class="fil1" d="M0.578 0.897c-0.008,0 -0.014,-0.007 -0.014,-0.015 0,-0.008 0.006,-0.014 0.014,-0.014l0.349 0c0.008,0 0.015,0.006 0.015,0.014 0,0.008 -0.007,0.015 -0.015,0.015l-0.349 0z"/>
    <path class="fil1" d="M0.638 0.751l0.228 0c0.009,0 0.015,0.006 0.015,0.015l0 0.116c0,0.008 -0.006,0.015 -0.015,0.015l-0.228 0c-0.008,0 -0.014,-0.007 -0.014,-0.015l0 -0.116c0,-0.009 0.006,-0.015 0.014,-0.015zm0.214 0.029l-0.199 0 0 0.088 0.199 0 0 -0.088z"/>
   </g>
  </g>
 </g>
</svg>
