<?xml version="1.0" encoding="UTF-8"?>
<!DOCTYPE svg PUBLIC "-//W3C//DTD SVG 1.1//EN" "http://www.w3.org/Graphics/SVG/1.1/DTD/svg11.dtd">
<!-- Creator: CorelDRAW 2018 (64-Bit) -->
<svg xmlns="http://www.w3.org/2000/svg" xml:space="preserve" width="42px" height="32px" version="1.1" style="shape-rendering:geometricPrecision; text-rendering:geometricPrecision; image-rendering:optimizeQuality; fill-rule:evenodd; clip-rule:evenodd"
viewBox="0 0 1.008 0.768"
 xmlns:xlink="http://www.w3.org/1999/xlink">
 <defs>
  <style type="text/css">
   <![CDATA[
    .fil0 {fill:none}
    .fil1 {fill:gray;fill-rule:nonzero}
   ]]>
  </style>
 </defs>
 <g id="Layer_x0020_1">
  <metadata id="CorelCorpID_0Corel-Layer"/>
  <g id="_2815449513776">
   <rect class="fil0" width="1.008" height="0.768"/>
   <g>
    <path class="fil1" d="M0.044 0.732c-0.007,0 -0.012,-0.005 -0.012,-0.012 0,-0.007 0.005,-0.012 0.012,-0.012l0.204 0c0.006,0 0.012,0.005 0.012,0.012 0,0.007 -0.006,0.012 -0.012,0.012l-0.204 0z"/>
    <path class="fil1" d="M0.284 0.41c0.005,-0.004 0.013,-0.002 0.016,0.004 0.003,0.006 0.001,0.013 -0.004,0.016l-0.059 0.034c-0.006,0.004 -0.013,0.002 -0.016,-0.004 -0.004,-0.006 -0.002,-0.013 0.004,-0.016l0.059 -0.034z"/>
    <path class="fil1" d="M0.285 0.407c-0.009,-0.013 -0.018,-0.024 -0.028,-0.031 -0.009,-0.007 -0.016,-0.01 -0.02,-0.008l-0.025 0.015c-0.003,0.002 -0.004,0.01 -0.003,0.021 0.002,0.011 0.006,0.025 0.013,0.039l0.063 -0.036zm-0.013 -0.05c0.014,0.011 0.029,0.028 0.04,0.048 0.003,0.006 0.001,0.013 -0.004,0.016l-0.085 0.049c-0.006,0.004 -0.013,0.002 -0.016,-0.004 -0.012,-0.02 -0.019,-0.042 -0.022,-0.059 -0.002,-0.021 0.002,-0.038 0.015,-0.045l0.025 -0.015c0.013,-0.007 0.03,-0.003 0.047,0.01z"/>
    <path class="fil1" d="M0.218 0.615l-0.004 -0.008c-0.019,-0.031 -0.027,-0.065 -0.026,-0.094 0.002,-0.03 0.014,-0.056 0.036,-0.069l0.06 -0.034c0.022,-0.013 0.051,-0.011 0.078,0.003 0.026,0.013 0.051,0.037 0.069,0.068l0.005 0.008c0.003,0.006 0.001,0.013 -0.005,0.016l-0.197 0.114c-0.006,0.003 -0.013,0.001 -0.016,-0.004zm0.015 -0.023l0.176 -0.101c-0.016,-0.026 -0.037,-0.046 -0.058,-0.057 -0.02,-0.01 -0.04,-0.012 -0.055,-0.004l-0.059 0.035c-0.015,0.008 -0.024,0.027 -0.025,0.049 -0.001,0.024 0.006,0.052 0.021,0.078z"/>
    <path class="fil1" d="M0.069 0.495c-0.007,0 -0.012,0.002 -0.016,0.006 -0.004,0.004 -0.007,0.01 -0.007,0.016 0,0.006 0.003,0.012 0.007,0.016l0 0c0.004,0.004 0.01,0.006 0.016,0.006 0.006,0 0.011,-0.002 0.015,-0.006 0.005,-0.004 0.007,-0.01 0.007,-0.016 0,-0.006 -0.002,-0.012 -0.007,-0.016 -0.004,-0.004 -0.009,-0.006 -0.015,-0.006zm-0.033 -0.011c0.008,-0.008 0.02,-0.013 0.033,-0.013 0.012,0 0.024,0.005 0.032,0.013 0.009,0.009 0.014,0.02 0.014,0.033 0,0.013 -0.005,0.024 -0.014,0.033 -0.008,0.008 -0.02,0.013 -0.032,0.013 -0.013,0 -0.024,-0.005 -0.032,-0.013l-0.001 0c-0.008,-0.009 -0.014,-0.02 -0.014,-0.033 0,-0.013 0.006,-0.024 0.014,-0.033z"/>
    <path class="fil1" d="M0.196 0.417c0.005,-0.004 0.013,-0.002 0.016,0.004 0.003,0.006 0.002,0.013 -0.004,0.016l-0.109 0.066c-0.006,0.003 -0.013,0.002 -0.016,-0.004 -0.004,-0.006 -0.002,-0.013 0.004,-0.017l0.109 -0.065z"/>
    <path class="fil1" d="M0.075 0.554c-0.002,-0.006 0.001,-0.013 0.007,-0.015 0.006,-0.002 0.013,0.001 0.016,0.007l0.064 0.17c0.002,0.006 -0.001,0.013 -0.007,0.015 -0.007,0.003 -0.013,-0.001 -0.016,-0.007l-0.064 -0.17z"/>
    <path class="fil1" d="M0.315 0.329c0,0.006 -0.005,0.012 -0.012,0.012 -0.006,0 -0.012,-0.006 -0.012,-0.012l0 -0.126c0,-0.01 0.004,-0.019 0.011,-0.025l0 -0.001c0.007,-0.006 0.015,-0.01 0.025,-0.01l0.575 0c0.01,0 0.019,0.004 0.025,0.011 0.007,0.006 0.011,0.015 0.011,0.025l0 0.395c0,0.01 -0.004,0.019 -0.011,0.025 -0.006,0.007 -0.015,0.011 -0.025,0.011l-0.575 0c-0.007,0 -0.012,-0.005 -0.012,-0.012 0,-0.007 0.005,-0.012 0.012,-0.012l0.575 0c0.003,0 0.006,-0.001 0.008,-0.003 0.002,-0.003 0.004,-0.005 0.004,-0.009l0 -0.395c0,-0.003 -0.002,-0.006 -0.004,-0.008 -0.002,-0.002 -0.005,-0.004 -0.008,-0.004l-0.575 0c-0.003,0 -0.006,0.001 -0.008,0.003l0 0.001c-0.003,0.002 -0.004,0.005 -0.004,0.008l0 0.126z"/>
    <path class="fil1" d="M0.472 0.732c-0.007,0 -0.012,-0.005 -0.012,-0.012 0,-0.007 0.005,-0.012 0.012,-0.012l0.285 0c0.006,0 0.012,0.005 0.012,0.012 0,0.007 -0.006,0.012 -0.012,0.012l-0.285 0z"/>
    <path class="fil1" d="M0.521 0.613l0.186 0c0.007,0 0.012,0.005 0.012,0.012l0 0.095c0,0.007 -0.005,0.012 -0.012,0.012l-0.186 0c-0.007,0 -0.012,-0.005 -0.012,-0.012l0 -0.095c0,-0.007 0.005,-0.012 0.012,-0.012zm0.174 0.024l-0.162 0 0 0.071 0.162 0 0 -0.071z"/>
   </g>
  </g>
 </g>
</svg>
