<?xml version="1.0" encoding="UTF-8"?>
<!DOCTYPE svg PUBLIC "-//W3C//DTD SVG 1.1//EN" "http://www.w3.org/Graphics/SVG/1.1/DTD/svg11.dtd">
<!-- Creator: CorelDRAW 2018 (64-Bit) -->
<svg xmlns="http://www.w3.org/2000/svg" xml:space="preserve" width="42px" height="32px" version="1.1" style="shape-rendering:geometricPrecision; text-rendering:geometricPrecision; image-rendering:optimizeQuality; fill-rule:evenodd; clip-rule:evenodd"
viewBox="0 0 1.11 0.846"
 xmlns:xlink="http://www.w3.org/1999/xlink">
 <defs>
  <style type="text/css">
   <![CDATA[
    .fil0 {fill:none}
    .fil1 {fill:white;fill-rule:nonzero}
   ]]>
  </style>
 </defs>
 <g id="Layer_x0020_1">
  <metadata id="CorelCorpID_0Corel-Layer"/>
  <g id="_2815746450960">
   <rect class="fil0" width="1.11" height="0.846"/>
   <g>
    <path class="fil1" d="M0.048 0.806c-0.007,0 -0.013,-0.006 -0.013,-0.013 0,-0.007 0.006,-0.013 0.013,-0.013l0.225 0c0.007,0 0.013,0.006 0.013,0.013 0,0.007 -0.006,0.013 -0.013,0.013l-0.225 0z"/>
    <path class="fil1" d="M0.312 0.451c0.007,-0.003 0.015,-0.001 0.018,0.005 0.004,0.006 0.002,0.014 -0.005,0.018l-0.064 0.037c-0.006,0.004 -0.014,0.002 -0.018,-0.005 -0.004,-0.006 -0.001,-0.014 0.005,-0.018l0.064 -0.037z"/>
    <path class="fil1" d="M0.314 0.448c-0.01,-0.014 -0.02,-0.026 -0.031,-0.034 -0.01,-0.007 -0.018,-0.011 -0.022,-0.009l-0.027 0.016c-0.004,0.003 -0.005,0.011 -0.004,0.024 0.002,0.013 0.007,0.028 0.014,0.043l0.07 -0.04zm-0.015 -0.055c0.016,0.012 0.032,0.031 0.045,0.053 0.003,0.006 0.001,0.014 -0.005,0.018l-0.093 0.054c-0.007,0.003 -0.015,0.001 -0.018,-0.005 -0.013,-0.022 -0.021,-0.046 -0.024,-0.065 -0.003,-0.023 0.002,-0.041 0.016,-0.049l0.028 -0.016c0.014,-0.009 0.033,-0.004 0.051,0.01z"/>
    <path class="fil1" d="M0.24 0.677l-0.005 -0.008c-0.02,-0.035 -0.029,-0.072 -0.027,-0.104 0.001,-0.033 0.015,-0.061 0.039,-0.076l0.065 -0.038c0.025,-0.014 0.057,-0.012 0.087,0.004 0.028,0.014 0.055,0.04 0.075,0.075l0.006 0.009c0.003,0.006 0.001,0.014 -0.005,0.018l-0.217 0.125c-0.006,0.003 -0.014,0.001 -0.018,-0.005zm0.016 -0.025l0.194 -0.112c-0.017,-0.028 -0.04,-0.05 -0.063,-0.062 -0.022,-0.011 -0.045,-0.014 -0.062,-0.004l-0.065 0.038c-0.016,0.009 -0.025,0.03 -0.026,0.054 -0.001,0.026 0.006,0.057 0.022,0.086z"/>
    <path class="fil1" d="M0.076 0.545c-0.007,0 -0.013,0.002 -0.018,0.007 -0.004,0.004 -0.007,0.01 -0.007,0.017 0,0.007 0.003,0.013 0.007,0.018l0.001 0c0.004,0.004 0.01,0.007 0.017,0.007 0.006,0 0.013,-0.003 0.017,-0.007 0.004,-0.005 0.007,-0.011 0.007,-0.018 0,-0.007 -0.003,-0.013 -0.007,-0.017 -0.004,-0.005 -0.011,-0.007 -0.017,-0.007zm-0.036 -0.012c0.009,-0.009 0.022,-0.015 0.036,-0.015 0.014,0 0.026,0.006 0.036,0.015 0.009,0.009 0.015,0.022 0.015,0.036 0,0.014 -0.006,0.027 -0.015,0.036 -0.01,0.01 -0.022,0.015 -0.036,0.015 -0.014,0 -0.026,-0.005 -0.036,-0.014l0 -0.001c-0.01,-0.009 -0.015,-0.022 -0.015,-0.036 0,-0.014 0.005,-0.027 0.015,-0.036z"/>
    <path class="fil1" d="M0.215 0.459c0.007,-0.004 0.015,-0.002 0.018,0.004 0.004,0.007 0.002,0.015 -0.004,0.019l-0.12 0.072c-0.006,0.004 -0.014,0.002 -0.018,-0.005 -0.004,-0.006 -0.002,-0.014 0.005,-0.018l0.119 -0.072z"/>
    <path class="fil1" d="M0.083 0.61c-0.003,-0.006 0.001,-0.014 0.008,-0.017 0.006,-0.002 0.014,0.001 0.017,0.008l0.07 0.187c0.003,0.007 -0.001,0.015 -0.008,0.017 -0.006,0.003 -0.014,-0.001 -0.017,-0.007l-0.07 -0.188z"/>
    <path class="fil1" d="M0.347 0.362c0,0.007 -0.006,0.013 -0.013,0.013 -0.007,0 -0.013,-0.006 -0.013,-0.013l0 -0.139c0,-0.011 0.004,-0.02 0.011,-0.027l0.001 -0.001c0.007,-0.007 0.016,-0.011 0.027,-0.011l0.634 0c0.01,0 0.02,0.005 0.027,0.012 0.007,0.007 0.012,0.017 0.012,0.027l0 0.436c0,0.011 -0.005,0.021 -0.012,0.028 -0.007,0.007 -0.017,0.011 -0.027,0.011l-0.634 0c-0.008,0 -0.014,-0.006 -0.014,-0.013 0,-0.007 0.006,-0.013 0.014,-0.013l0.634 0c0.003,0 0.006,-0.002 0.008,-0.004 0.003,-0.002 0.004,-0.006 0.004,-0.009l0 -0.436c0,-0.003 -0.001,-0.006 -0.004,-0.009 -0.002,-0.002 -0.005,-0.003 -0.008,-0.003l-0.634 0c-0.004,0 -0.007,0.001 -0.009,0.003l0 0c-0.003,0.003 -0.004,0.006 -0.004,0.009l0 0.139z"/>
    <path class="fil1" d="M0.52 0.806c-0.007,0 -0.013,-0.006 -0.013,-0.013 0,-0.007 0.006,-0.013 0.013,-0.013l0.313 0c0.008,0 0.014,0.006 0.014,0.013 0,0.007 -0.006,0.013 -0.014,0.013l-0.313 0z"/>
    <path class="fil1" d="M0.574 0.675l0.205 0c0.007,0 0.013,0.006 0.013,0.013l0 0.105c0,0.007 -0.006,0.013 -0.013,0.013l-0.205 0c-0.008,0 -0.014,-0.006 -0.014,-0.013l0 -0.105c0,-0.007 0.006,-0.013 0.014,-0.013zm0.192 0.026l-0.179 0 0 0.079 0.179 0 0 -0.079z"/>
   </g>
  </g>
 </g>
</svg>
