<?xml version="1.0" encoding="UTF-8"?>
<!DOCTYPE svg PUBLIC "-//W3C//DTD SVG 1.1//EN" "http://www.w3.org/Graphics/SVG/1.1/DTD/svg11.dtd">
<!-- Creator: CorelDRAW 2018 (64-Bit) -->
<svg xmlns="http://www.w3.org/2000/svg" xml:space="preserve" width="42px" height="32px" version="1.1" style="shape-rendering:geometricPrecision; text-rendering:geometricPrecision; image-rendering:optimizeQuality; fill-rule:evenodd; clip-rule:evenodd"
viewBox="0 0 1.668 1.271"
 xmlns:xlink="http://www.w3.org/1999/xlink">
 <defs>
  <style type="text/css">
   <![CDATA[
    .fil0 {fill:none}
    .fil1 {fill:white;fill-rule:nonzero}
   ]]>
  </style>
 </defs>
 <g id="Layer_x0020_1">
  <metadata id="CorelCorpID_0Corel-Layer"/>
  <g id="_2815773233264">
   <rect class="fil0" width="1.668" height="1.271"/>
   <g>
    <path class="fil1" d="M0.301 1.211c-0.011,0 -0.02,-0.009 -0.02,-0.02 0,-0.011 0.009,-0.02 0.02,-0.02l1.066 0c0.011,0 0.02,0.009 0.02,0.02 0,0.011 -0.009,0.02 -0.02,0.02l-1.066 0z"/>
    <path class="fil1" d="M0.359 0.868l0.142 0c0.011,0 0.02,0.009 0.02,0.02l0 0.301c0,0.011 -0.009,0.02 -0.02,0.02l-0.142 0c-0.011,0 -0.02,-0.009 -0.02,-0.02l0 -0.301c0,-0.011 0.009,-0.02 0.02,-0.02zm0.122 0.04l-0.102 0 0 0.261 0.102 0 0 -0.261z"/>
    <path class="fil1" d="M0.628 0.599l0.142 0c0.011,0 0.02,0.009 0.02,0.02l0 0.57c0,0.011 -0.009,0.02 -0.02,0.02l-0.142 0c-0.011,0 -0.02,-0.009 -0.02,-0.02l0 -0.57c0,-0.011 0.009,-0.02 0.02,-0.02zm0.123 0.04l-0.103 0 0 0.53 0.103 0 0 -0.53z"/>
    <path class="fil1" d="M0.897 0.839l0.143 0c0.011,0 0.02,0.009 0.02,0.02l0 0.33c0,0.011 -0.009,0.02 -0.02,0.02l-0.143 0c-0.011,0 -0.02,-0.009 -0.02,-0.02l0 -0.33c0,-0.011 0.009,-0.02 0.02,-0.02zm0.123 0.04l-0.103 0 0 0.29 0.103 0 0 -0.29z"/>
    <path class="fil1" d="M1.166 0.715l0.143 0c0.011,0 0.02,0.008 0.02,0.019l0 0.455c0,0.011 -0.009,0.02 -0.02,0.02l-0.143 0c-0.01,0 -0.019,-0.009 -0.019,-0.02l0 -0.455c0,-0.011 0.009,-0.019 0.019,-0.019zm0.123 0.039l-0.103 0 0 0.415 0.103 0 0 -0.415z"/>
    <path class="fil1" d="M0.43 0.571c-0.017,0 -0.033,0.007 -0.044,0.018 -0.011,0.012 -0.018,0.027 -0.018,0.045 0,0.017 0.007,0.032 0.018,0.044 0.011,0.011 0.027,0.018 0.044,0.018 0.017,0 0.033,-0.007 0.044,-0.018 0.011,-0.012 0.018,-0.027 0.018,-0.044 0,-0.018 -0.007,-0.033 -0.018,-0.045 -0.011,-0.011 -0.027,-0.018 -0.044,-0.018zm-0.072 -0.009c0.018,-0.019 0.044,-0.03 0.072,-0.03 0.028,0 0.054,0.011 0.072,0.029 0.019,0.019 0.03,0.044 0.03,0.073 0,0.028 -0.011,0.053 -0.03,0.072 -0.018,0.018 -0.044,0.03 -0.072,0.03 -0.028,0 -0.054,-0.012 -0.072,-0.03 -0.019,-0.019 -0.03,-0.044 -0.03,-0.072 0,-0.029 0.011,-0.054 0.03,-0.072z"/>
    <path class="fil1" d="M0.699 0.298c-0.017,0 -0.033,0.007 -0.044,0.018 -0.011,0.011 -0.018,0.027 -0.018,0.044 0,0.017 0.007,0.033 0.018,0.044 0.011,0.012 0.027,0.018 0.044,0.018 0.017,0 0.033,-0.006 0.044,-0.018 0.012,-0.011 0.019,-0.027 0.019,-0.044 0,-0.017 -0.007,-0.033 -0.019,-0.044 -0.011,-0.011 -0.027,-0.018 -0.044,-0.018zm-0.072 -0.01c0.019,-0.018 0.044,-0.03 0.072,-0.03 0.028,0 0.054,0.012 0.072,0.03 0.019,0.018 0.03,0.044 0.03,0.072 0,0.028 -0.011,0.054 -0.03,0.072 -0.018,0.019 -0.044,0.03 -0.072,0.03 -0.028,0 -0.053,-0.011 -0.072,-0.03 -0.018,-0.018 -0.03,-0.044 -0.03,-0.072 0,-0.028 0.012,-0.054 0.03,-0.072z"/>
    <path class="fil1" d="M0.968 0.542c-0.017,0 -0.032,0.007 -0.044,0.019 -0.011,0.011 -0.018,0.026 -0.018,0.044 0,0.017 0.007,0.033 0.018,0.044 0.012,0.011 0.027,0.018 0.044,0.018 0.018,0 0.033,-0.007 0.045,-0.018 0.011,-0.011 0.018,-0.027 0.018,-0.044 0,-0.018 -0.007,-0.033 -0.018,-0.044 -0.012,-0.012 -0.027,-0.019 -0.045,-0.019zm-0.072 -0.009c0.019,-0.019 0.044,-0.03 0.072,-0.03 0.029,0 0.054,0.011 0.073,0.03 0.018,0.018 0.03,0.044 0.03,0.072 0,0.028 -0.012,0.053 -0.03,0.072 -0.019,0.018 -0.044,0.03 -0.073,0.03 -0.028,0 -0.053,-0.012 -0.072,-0.03 -0.018,-0.019 -0.03,-0.044 -0.03,-0.072 0,-0.028 0.012,-0.054 0.03,-0.072z"/>
    <path class="fil1" d="M1.238 0.418c-0.018,0 -0.033,0.007 -0.044,0.018 -0.012,0.011 -0.019,0.027 -0.019,0.044 0,0.018 0.007,0.033 0.019,0.044 0.011,0.012 0.026,0.019 0.044,0.019 0.017,0 0.033,-0.007 0.044,-0.018 0.011,-0.012 0.018,-0.027 0.018,-0.045 0,-0.017 -0.007,-0.033 -0.018,-0.044 -0.011,-0.011 -0.027,-0.018 -0.044,-0.018zm-0.072 -0.01c0.018,-0.018 0.044,-0.03 0.072,-0.03 0.028,0 0.053,0.012 0.072,0.03 0.018,0.019 0.03,0.044 0.03,0.072 0,0.028 -0.012,0.054 -0.03,0.072 -0.019,0.019 -0.044,0.03 -0.072,0.03 -0.028,0 -0.054,-0.011 -0.072,-0.03 -0.019,-0.018 -0.03,-0.044 -0.03,-0.072 0,-0.028 0.011,-0.053 0.03,-0.072z"/>
    <path class="fil1" d="M0.517 0.573c-0.007,0.008 -0.02,0.008 -0.028,0 -0.007,-0.008 -0.007,-0.021 0.001,-0.028l0.127 -0.126c0.008,-0.007 0.02,-0.007 0.028,0.001 0.007,0.007 0.007,0.02 -0.001,0.028l-0.127 0.125z"/>
    <path class="fil1" d="M0.76 0.442c-0.008,-0.007 -0.008,-0.02 -0.001,-0.028 0.007,-0.008 0.02,-0.009 0.028,-0.001l0.128 0.117c0.008,0.008 0.009,0.02 0.001,0.028 -0.007,0.008 -0.02,0.009 -0.028,0.001l-0.128 -0.117z"/>
    <path class="fil1" d="M1.058 0.587c-0.01,0.005 -0.022,0.001 -0.026,-0.009 -0.005,-0.01 -0.001,-0.021 0.009,-0.026l0.096 -0.047c0.01,-0.005 0.022,-0.001 0.027,0.009 0.005,0.01 0,0.022 -0.009,0.027l-0.097 0.046z"/>
   </g>
  </g>
 </g>
</svg>
