<?xml version="1.0" encoding="UTF-8"?>
<!DOCTYPE svg PUBLIC "-//W3C//DTD SVG 1.1//EN" "http://www.w3.org/Graphics/SVG/1.1/DTD/svg11.dtd">
<!-- Creator: CorelDRAW 2018 (64-Bit) -->
<svg xmlns="http://www.w3.org/2000/svg" xml:space="preserve" width="42px" height="32px" version="1.1" style="shape-rendering:geometricPrecision; text-rendering:geometricPrecision; image-rendering:optimizeQuality; fill-rule:evenodd; clip-rule:evenodd"
viewBox="0 0 2.388 1.819"
 xmlns:xlink="http://www.w3.org/1999/xlink">
 <defs>
  <style type="text/css">
   <![CDATA[
    .fil0 {fill:none}
    .fil1 {fill:#00F4FF;fill-rule:nonzero}
   ]]>
  </style>
 </defs>
 <g id="Layer_x0020_1">
  <metadata id="CorelCorpID_0Corel-Layer"/>
  <g id="_2815921307040">
   <rect class="fil0" width="2.388" height="1.819"/>
   <g>
    <path class="fil1" d="M0.431 1.734c-0.016,0 -0.029,-0.013 -0.029,-0.028 0,-0.016 0.013,-0.029 0.029,-0.029l1.526 0c0.016,0 0.029,0.013 0.029,0.029 0,0.015 -0.013,0.028 -0.029,0.028l-1.526 0z"/>
    <path class="fil1" d="M0.514 1.243l0.204 0c0.015,0 0.028,0.013 0.028,0.029l0 0.431c0,0.015 -0.013,0.028 -0.028,0.028l-0.204 0c-0.016,0 -0.029,-0.013 -0.029,-0.028l0 -0.431c0,-0.016 0.013,-0.029 0.029,-0.029zm0.175 0.057l-0.147 0 0 0.374 0.147 0 0 -0.374z"/>
    <path class="fil1" d="M0.899 0.858l0.204 0c0.016,0 0.029,0.013 0.029,0.029l0 0.816c0,0.015 -0.013,0.028 -0.029,0.028l-0.204 0c-0.016,0 -0.028,-0.013 -0.028,-0.028l0 -0.816c0,-0.016 0.012,-0.029 0.028,-0.029zm0.176 0.057l-0.147 0 0 0.759 0.147 0 0 -0.759z"/>
    <path class="fil1" d="M1.285 1.202l0.204 0c0.015,0 0.028,0.013 0.028,0.028l0 0.473c0,0.015 -0.013,0.028 -0.028,0.028l-0.204 0c-0.016,0 -0.029,-0.013 -0.029,-0.028l0 -0.473c0,-0.015 0.013,-0.028 0.029,-0.028zm0.175 0.057l-0.147 0 0 0.415 0.147 0 0 -0.415z"/>
    <path class="fil1" d="M1.67 1.023l0.204 0c0.016,0 0.029,0.013 0.029,0.029l0 0.651c0,0.015 -0.013,0.028 -0.029,0.028l-0.204 0c-0.016,0 -0.028,-0.013 -0.028,-0.028l0 -0.651c0,-0.016 0.012,-0.029 0.028,-0.029zm0.176 0.057l-0.147 0 0 0.594 0.147 0 0 -0.594z"/>
    <path class="fil1" d="M0.616 0.818c-0.025,0 -0.047,0.01 -0.063,0.026 -0.017,0.016 -0.027,0.038 -0.027,0.063 0,0.025 0.01,0.047 0.027,0.063 0.016,0.016 0.038,0.026 0.063,0.026 0.024,0 0.047,-0.01 0.063,-0.026 0.016,-0.016 0.026,-0.038 0.026,-0.063 0,-0.025 -0.01,-0.047 -0.026,-0.063 -0.016,-0.016 -0.039,-0.026 -0.063,-0.026zm-0.104 -0.014c0.027,-0.027 0.063,-0.043 0.104,-0.043 0.04,0 0.077,0.016 0.103,0.043 0.026,0.026 0.043,0.063 0.043,0.103 0,0.04 -0.017,0.077 -0.043,0.103 -0.026,0.027 -0.063,0.043 -0.103,0.043 -0.041,0 -0.077,-0.016 -0.104,-0.043 -0.026,-0.026 -0.042,-0.063 -0.042,-0.103 0,-0.04 0.016,-0.077 0.042,-0.103z"/>
    <path class="fil1" d="M1.001 0.426c-0.024,0 -0.047,0.01 -0.063,0.027 -0.016,0.016 -0.026,0.038 -0.026,0.063 0,0.024 0.01,0.047 0.026,0.063 0.016,0.016 0.038,0.026 0.063,0.026 0.025,0 0.047,-0.01 0.063,-0.026 0.016,-0.016 0.026,-0.039 0.026,-0.063 0,-0.025 -0.01,-0.047 -0.026,-0.063 -0.016,-0.017 -0.038,-0.027 -0.063,-0.027zm-0.103 -0.014c0.026,-0.026 0.063,-0.042 0.103,-0.042 0.041,0 0.077,0.016 0.104,0.042 0.026,0.027 0.042,0.063 0.042,0.104 0,0.04 -0.016,0.076 -0.043,0.103 -0.026,0.026 -0.062,0.043 -0.103,0.043 -0.04,0 -0.077,-0.017 -0.103,-0.043 -0.027,-0.027 -0.043,-0.063 -0.043,-0.103 0,-0.041 0.016,-0.077 0.043,-0.104z"/>
    <path class="fil1" d="M1.387 0.777c-0.025,0 -0.047,0.01 -0.063,0.026 -0.017,0.016 -0.027,0.038 -0.027,0.063 0,0.025 0.01,0.047 0.026,0.063 0.017,0.016 0.039,0.026 0.064,0.026 0.024,0 0.047,-0.01 0.063,-0.026 0.016,-0.016 0.026,-0.038 0.026,-0.063 0,-0.025 -0.01,-0.047 -0.026,-0.063 -0.016,-0.016 -0.039,-0.026 -0.063,-0.026zm-0.104 -0.014c0.027,-0.027 0.063,-0.043 0.104,-0.043 0.04,0 0.077,0.016 0.103,0.043 0.026,0.026 0.043,0.062 0.043,0.103 0,0.04 -0.017,0.077 -0.043,0.103 -0.026,0.027 -0.063,0.043 -0.103,0.043 -0.041,0 -0.077,-0.016 -0.104,-0.043 -0.026,-0.026 -0.042,-0.063 -0.042,-0.103 0,-0.041 0.016,-0.077 0.042,-0.103z"/>
    <path class="fil1" d="M1.772 0.599c-0.025,0 -0.047,0.009 -0.063,0.026 -0.016,0.016 -0.026,0.038 -0.026,0.063 0,0.024 0.01,0.047 0.026,0.063 0.016,0.016 0.038,0.026 0.063,0.026 0.025,0 0.047,-0.01 0.063,-0.026 0.016,-0.016 0.026,-0.039 0.026,-0.063 0,-0.025 -0.01,-0.047 -0.026,-0.063 -0.016,-0.017 -0.038,-0.026 -0.063,-0.026zm-0.103 -0.014c0.026,-0.027 0.063,-0.043 0.103,-0.043 0.04,0 0.077,0.016 0.103,0.042 0.027,0.027 0.043,0.064 0.043,0.104 0,0.04 -0.016,0.076 -0.043,0.103 -0.026,0.027 -0.063,0.043 -0.103,0.043 -0.04,0 -0.077,-0.016 -0.103,-0.043 -0.027,-0.027 -0.043,-0.063 -0.043,-0.103 0,-0.04 0.016,-0.077 0.043,-0.103z"/>
    <path class="fil1" d="M0.741 0.82c-0.011,0.011 -0.029,0.011 -0.04,0 -0.011,-0.011 -0.011,-0.029 0,-0.04l0.182 -0.179c0.011,-0.011 0.029,-0.011 0.04,0 0.011,0.011 0.011,0.029 0,0.04l-0.182 0.179z"/>
    <path class="fil1" d="M1.088 0.633c-0.011,-0.011 -0.012,-0.029 -0.001,-0.04 0.01,-0.012 0.028,-0.013 0.04,-0.002l0.183 0.168c0.012,0.011 0.012,0.029 0.002,0.04 -0.011,0.012 -0.029,0.012 -0.04,0.002l-0.184 -0.168z"/>
    <path class="fil1" d="M1.515 0.841c-0.014,0.007 -0.031,0.001 -0.038,-0.013 -0.007,-0.014 -0.001,-0.031 0.013,-0.038l0.139 -0.067c0.014,-0.007 0.031,-0.001 0.037,0.013 0.007,0.014 0.001,0.031 -0.013,0.038l-0.138 0.067z"/>
   </g>
  </g>
 </g>
</svg>
