<svg xmlns="http://www.w3.org/2000/svg" width="21.77" height="24.522" viewBox="0 0 21.77 24.522">
  <g id="Storage" transform="translate(-423.88 -31.5)">
    <g id="Group_37" data-name="Group 37" transform="translate(363.5 -305.5)">
      <path id="Path_92" data-name="Path 92" stroke="gray" d="M31.65,3.91v3.4l-.01.18-.04.17-.07.17L31.44,8l-.11.16-.14.17-.17.16-.18.15-.21.15-.23.15-.25.14-.27.14-.29.13-.31.13-.32.12-.35.12-.36.12-.37.1-.4.1-.4.1-.43.09-.43.08-.45.07-.46.07-.47.06-.48.06-.5.04-.5.04-.51.03-.52.02-.53.02H20.73l-.52-.02-.52-.02-.51-.03-.51-.04-.49-.04-.48-.06-.47-.06-.46-.07-.45-.07-.44-.08-.42-.09-.4-.1-.4-.1-.37-.1-.36-.12-.35-.12-.32-.12-.31-.13-.29-.13-.27-.14-.25-.14-.23-.15-.21-.15-.19-.15-.16-.16-.14-.17L11.1,8,11,7.83l-.06-.17-.04-.17-.02-.18V3.91l.02.17.04.17.06.18.1.16.11.17.14.16.16.16.19.15.21.15.23.15.25.14.27.14.29.14.31.12.32.13.35.12.36.11.37.11.4.1.4.09.42.09.44.08.45.08.46.07.47.06.48.05.49.05.51.03.51.03.52.03.52.01H21.8l.53-.01.52-.03.51-.03.5-.03.5-.05.48-.05.47-.06.46-.07.45-.08.43-.08.43-.09.4-.09.4-.1.37-.11.36-.11.35-.12.32-.13.31-.12.29-.14.27-.14.25-.14.23-.15.21-.15.18-.15.17-.16.14-.16.11-.17.09-.16.07-.18.04-.17Z" fill="none" transform="translate(50 336.847)" stroke-linecap="round" stroke-linejoin="round" stroke-miterlimit="2.613" stroke-width="1" fill-rule="evenodd"/>
      <path id="Path_93" data-name="Path 93" stroke="gray" d="M31.64,7.66l.01,3.06-.01.18-.04.17-.07.17-.09.17-.11.16-.14.16-.17.16-.18.16-.21.15-.23.14-.25.15-.27.14-.29.13-.31.13-.32.12-.35.12-.36.11-.37.11-.4.1-.4.1-.43.08-.43.09-.45.07-.46.07-.47.06-.48.05-.5.05-.5.04-.51.03-.52.02-.53.01-.53.01-.54-.01-.52-.01-.52-.02-.51-.03-.51-.04-.49-.05-.48-.05-.47-.06-.46-.07-.45-.07-.44-.09-.42-.08-.4-.1-.4-.1-.37-.11-.36-.11-.35-.12-.32-.12-.31-.13-.29-.13-.27-.14-.25-.15-.23-.14-.21-.15-.19-.16-.16-.16-.14-.16-.11-.16-.1-.17-.06-.17-.04-.17-.02-.18V7.31l.02.18.04.17.06.17.1.17.11.16.14.17.16.16.19.15.21.15.23.15.25.14.27.14.29.13.31.13.32.12.35.12.36.12.37.1.4.1.4.1.42.09.44.08.45.07.46.07.47.06.48.06.49.04.51.04.51.03.52.02.52.02H21.8l.53-.02.52-.02.51-.03.5-.04.5-.04.48-.06.47-.06.46-.07.45-.07.43-.08.43-.09.4-.1.4-.1.37-.1.36-.12.35-.12.32-.12.31-.13.29-.13.27-.14.25-.14.23-.15.21-.15.18-.15.17-.16.14-.17L31.44,8l.09-.17.07-.17.04-.17Z" fill="none" transform="translate(50 340.342)" stroke-linecap="round" stroke-linejoin="round" stroke-miterlimit="2.613" stroke-width="1" fill-rule="evenodd"/>
      <path id="Path_94" data-name="Path 94" stroke="gray" d="M31.65,11.41v2.72l-.01.17-.04.18-.07.17-.09.16-.11.17-.14.16-.17.16-.18.15-.21.15-.23.15-.25.14-.27.14-.29.14-.31.13-.32.12-.35.12-.36.11-.37.11-.4.1-.4.09-.43.09-.43.08-.45.08-.46.07-.47.06-.48.05-.5.05-.5.04-.51.03-.52.02-.53.01H20.73l-.52-.01-.52-.02-.51-.03-.51-.04-.49-.05-.48-.05-.47-.06-.46-.07-.45-.08-.44-.08-.42-.09-.4-.09-.4-.1-.37-.11-.36-.11-.35-.12-.32-.12-.31-.13-.29-.14-.27-.14-.25-.14-.23-.15-.21-.15-.19-.15-.16-.16-.14-.16-.11-.17-.1-.16-.06-.17-.04-.18-.02-.17V10.72h0l.02.18.04.17.06.17.1.17.11.16.14.16.16.16.19.16.21.15.23.14.25.15.27.14.29.13.31.13.32.12.35.12.36.11.37.11.4.1.4.1.42.08.44.09.45.07.46.07.47.06.48.05.49.05.51.04.51.03.52.02.52.01.54.01.53-.01.53-.01.52-.02.51-.03.5-.04.5-.05.48-.05.47-.06.46-.07.45-.07.43-.09.43-.08.4-.1.4-.1.37-.11.36-.11.35-.12.32-.12.31-.13.29-.13.27-.14.25-.15.23-.14.21-.15.18-.16.17-.16.14-.16.11-.16.09-.17.07-.17.04-.17Z" fill="none" transform="translate(50 343.492)" stroke-linecap="round" stroke-linejoin="round" stroke-miterlimit="2.613" stroke-width="1" fill-rule="evenodd"/>
      <path id="Path_97" data-name="Path 97" stroke="gray" d="M21.27.5h.53l.53.02.52.02.51.03.5.04.5.04.48.06.47.06.46.07.45.07.43.08.43.09.4.1.4.1.37.11.36.11.35.12.32.12.31.13.29.13.27.14.25.14.23.15.21.15.18.16.17.15.14.17.11.16.09.17.07.17.04.17.01.18-.01.17-.04.17-.07.18-.09.16-.11.17-.14.16-.17.16-.18.15-.21.15-.23.15-.25.14-.27.14-.29.14-.31.12-.32.13-.35.12-.36.11-.37.11-.4.1-.4.09-.43.09-.43.08-.45.08-.46.07-.47.06-.48.05-.5.05-.5.03-.51.03-.52.03-.53.01H20.73l-.52-.01-.52-.03-.51-.03-.51-.03-.49-.05-.48-.05-.47-.06-.46-.07-.45-.08-.44-.08-.42-.09-.4-.09-.4-.1-.37-.11-.36-.11-.35-.12-.32-.13-.31-.12-.29-.14-.27-.14-.25-.14-.23-.15-.21-.15-.19-.15-.16-.16-.14-.16-.11-.17L11,4.43l-.06-.18-.04-.17-.02-.17.02-.18.04-.17L11,3.39l.1-.17.11-.16.14-.17.16-.15.19-.16.21-.15.23-.15.25-.14L12.66,2l.29-.13.31-.13.32-.12.35-.12.36-.11.37-.11.4-.1.4-.1.42-.09.44-.08.45-.07.46-.07L17.7.71l.48-.06.49-.04.51-.04.51-.03.52-.02L20.73.5Z" fill="none" transform="translate(50 337)" stroke-linecap="round" stroke-linejoin="round" stroke-miterlimit="2.613" stroke-width="1" fill-rule="evenodd"/>
      <path id="Path_99" data-name="Path 99" stroke="gray" d="M21.27,2.38c3.95,0,7.15.68,7.15,1.53" fill="none" transform="translate(50 337)" stroke-linecap="round" stroke-linejoin="round" stroke-miterlimit="2.613" stroke-width="1" fill-rule="evenodd"/>
    </g>
  </g>
</svg>
