<?xml version="1.0" encoding="UTF-8"?>
<!DOCTYPE svg PUBLIC "-//W3C//DTD SVG 1.1//EN" "http://www.w3.org/Graphics/SVG/1.1/DTD/svg11.dtd">
<!-- Creator: CorelDRAW 2018 (64-Bit) -->
<svg xmlns="http://www.w3.org/2000/svg" xml:space="preserve" width="42px" height="32px" version="1.1" style="shape-rendering:geometricPrecision; text-rendering:geometricPrecision; image-rendering:optimizeQuality; fill-rule:evenodd; clip-rule:evenodd"
viewBox="0 0 58.454 44.536"
 xmlns:xlink="http://www.w3.org/1999/xlink">
 <defs>
  <style type="text/css">
   <![CDATA[
    .fil0 {fill:none}
    .fil1 {fill:#00F4FF;fill-rule:nonzero}
   ]]>
  </style>
 </defs>
 <g id="Layer_x0020_1">
  <metadata id="CorelCorpID_0Corel-Layer"/>
  <g id="_1612306162064">
   <rect class="fil0" width="58.454" height="44.536"/>
   <path class="fil1" d="M28.08 28.475c-0.271,0.271 -0.712,0.271 -0.984,0 -0.271,-0.272 -0.271,-0.713 0,-0.984l16.206 -16.206c0.564,-0.564 1.307,-0.846 2.049,-0.846 0.742,0 1.486,0.282 2.05,0.846l4.466 4.466c0.564,0.564 0.846,1.308 0.846,2.05 0,0.742 -0.282,1.486 -0.846,2.05l-23.787 23.786c-0.271,0.272 -0.712,0.272 -0.984,0l-17.726 -17.726c-0.564,-0.565 -0.847,-1.308 -0.847,-2.05 0,-0.742 0.283,-1.486 0.847,-2.05l4.465 -4.465c0.564,-0.565 1.308,-0.847 2.05,-0.847 0.739,0 1.483,0.283 2.047,0.847l5.155 5.152c0.271,0.271 0.271,0.712 0,0.983 -0.271,0.272 -0.713,0.272 -0.984,0l-5.152 -5.151c-0.291,-0.292 -0.678,-0.439 -1.066,-0.439 -0.387,0 -0.774,0.146 -1.066,0.439l-4.465 4.465c-0.293,0.292 -0.439,0.679 -0.439,1.066 0,0.386 0.146,0.773 0.439,1.066l17.234 17.234 23.295 -23.294c0.292,-0.292 0.439,-0.679 0.439,-1.066 0,-0.387 -0.147,-0.774 -0.439,-1.066l-4.466 -4.466c-0.292,-0.292 -0.679,-0.438 -1.066,-0.438 -0.387,0 -0.773,0.146 -1.066,0.438l-16.205 16.206z"/>
  </g>
 </g>
</svg>
