<?xml version="1.0" encoding="UTF-8"?>
<!DOCTYPE svg PUBLIC "-//W3C//DTD SVG 1.1//EN" "http://www.w3.org/Graphics/SVG/1.1/DTD/svg11.dtd">
<!-- Creator: CorelDRAW 2018 (64-Bit) -->
<svg xmlns="http://www.w3.org/2000/svg" xml:space="preserve" width="42px" height="32px" version="1.1" style="shape-rendering:geometricPrecision; text-rendering:geometricPrecision; image-rendering:optimizeQuality; fill-rule:evenodd; clip-rule:evenodd"
viewBox="0 0 9.63 7.337"
 xmlns:xlink="http://www.w3.org/1999/xlink">
 <defs>
  <style type="text/css">
   <![CDATA[
    .fil0 {fill:none}
    .fil1 {fill:white;fill-rule:nonzero}
   ]]>
  </style>
 </defs>
 <g id="Layer_x0020_1">
  <metadata id="CorelCorpID_0Corel-Layer"/>
  <g id="_1612305555776">
   <rect class="fil0" width="9.63" height="7.337"/>
   <path class="fil1" d="M4.626 4.691c-0.045,0.045 -0.117,0.045 -0.162,0 -0.045,-0.045 -0.045,-0.117 0,-0.162l2.67 -2.67c0.093,-0.093 0.215,-0.139 0.337,-0.139 0.123,0 0.245,0.046 0.338,0.139l0.736 0.736c0.093,0.093 0.139,0.215 0.139,0.338 0,0.122 -0.046,0.244 -0.139,0.337l-3.919 3.919c-0.045,0.045 -0.117,0.045 -0.162,0l-2.92 -2.92c-0.093,-0.093 -0.14,-0.216 -0.14,-0.338 0,-0.122 0.047,-0.245 0.14,-0.338l0.735 -0.735c0.093,-0.093 0.216,-0.14 0.338,-0.14 0.122,0 0.244,0.047 0.337,0.14l0.849 0.848c0.045,0.045 0.045,0.118 0,0.162 -0.044,0.045 -0.117,0.045 -0.162,0l-0.848 -0.848c-0.048,-0.048 -0.112,-0.073 -0.176,-0.073 -0.064,0 -0.127,0.025 -0.176,0.073l-0.735 0.735c-0.048,0.048 -0.073,0.112 -0.073,0.176 0,0.064 0.025,0.127 0.073,0.176l2.839 2.839 3.838 -3.838c0.048,-0.048 0.072,-0.112 0.072,-0.175 0,-0.064 -0.024,-0.128 -0.072,-0.176l-0.736 -0.736c-0.048,-0.048 -0.112,-0.072 -0.176,-0.072 -0.063,0 -0.127,0.024 -0.175,0.072l-2.67 2.67z"/>
  </g>
 </g>
</svg>
