<?xml version="1.0" encoding="UTF-8"?>
<!DOCTYPE svg PUBLIC "-//W3C//DTD SVG 1.1//EN" "http://www.w3.org/Graphics/SVG/1.1/DTD/svg11.dtd">
<!-- Creator: CorelDRAW 2018 (64-Bit) -->
<svg xmlns="http://www.w3.org/2000/svg" xml:space="preserve" width="42px" height="32px" version="1.1" style="shape-rendering:geometricPrecision; text-rendering:geometricPrecision; image-rendering:optimizeQuality; fill-rule:evenodd; clip-rule:evenodd"
viewBox="0 0 5.247 3.998"
 xmlns:xlink="http://www.w3.org/1999/xlink">
 <defs>
  <style type="text/css">
   <![CDATA[
    .fil0 {fill:none}
    .fil1 {fill:gray;fill-rule:nonzero}
   ]]>
  </style>
 </defs>
 <g id="Layer_x0020_1">
  <metadata id="CorelCorpID_0Corel-Layer"/>
  <g id="_1612301790304">
   <rect class="fil0" width="5.247" height="3.998"/>
   <path class="fil1" d="M2.521 2.556c-0.025,0.024 -0.064,0.024 -0.089,0 -0.024,-0.024 -0.024,-0.064 0,-0.088l1.455 -1.455c0.051,-0.051 0.117,-0.076 0.184,-0.076 0.067,0 0.133,0.025 0.184,0.076l0.401 0.401c0.051,0.051 0.076,0.117 0.076,0.184 0,0.067 -0.025,0.133 -0.076,0.184l-2.135 2.135c-0.025,0.025 -0.064,0.025 -0.089,0l-1.591 -1.591c-0.051,-0.051 -0.076,-0.117 -0.076,-0.184 0,-0.067 0.025,-0.133 0.076,-0.184l0.401 -0.401c0.051,-0.051 0.117,-0.076 0.184,-0.076 0.066,0 0.133,0.025 0.184,0.076l0.462 0.463c0.025,0.024 0.025,0.063 0,0.088 -0.024,0.024 -0.064,0.024 -0.088,0l-0.462 -0.463c-0.026,-0.026 -0.061,-0.039 -0.096,-0.039 -0.035,0 -0.069,0.013 -0.096,0.039l-0.401 0.401c-0.026,0.026 -0.039,0.061 -0.039,0.096 0,0.035 0.013,0.069 0.039,0.096l1.548 1.547 2.091 -2.091c0.026,-0.027 0.039,-0.061 0.039,-0.096 0,-0.035 -0.013,-0.07 -0.039,-0.096l-0.401 -0.401c-0.026,-0.026 -0.061,-0.039 -0.096,-0.039 -0.035,0 -0.069,0.013 -0.096,0.039l-1.454 1.455z"/>
  </g>
 </g>
</svg>
