<svg xmlns="http://www.w3.org/2000/svg" width="34.972" height="44.04" viewBox="0 0 34.972 44.04">
  <g id="Volunteering" transform="translate(-890.293 -226.13)">
    <path id="Path_302" data-name="Path 302" d="M15.134,28.073V9.534a4.011,4.011,0,0,1,1.1-2.8,1.9,1.9,0,0,1,2.875-.147A5.543,5.543,0,0,1,20.5,10.3l.156,11.641V7.388A5.869,5.869,0,0,1,21.59,4.18c.684-1.051,1.164-1.19,1.98-1.19a.984.984,0,0,1,.411.078A4.237,4.237,0,0,1,26.432,7V21.94l.411-11.078a5.12,5.12,0,0,1,1.044-3.552c1.254-1.264,2.136-.8,2.88,0a5.349,5.349,0,0,1,1.2,3.339L32,22.394l.122-6.309a3.686,3.686,0,0,1,.362-1.64c.687-1.391,1.572-2.124,2.6-1.714a2.746,2.746,0,0,1,1.628,2.344,9.569,9.569,0,0,1,.222,2.061c0,3.62-.205,10.005-.205,19.052,0,3.478-3.085,9.648-11.027,9.841H25.64a12.5,12.5,0,0,1-10.093-4.794,58.809,58.809,0,0,0-9.712-9.389,8.1,8.1,0,0,1-2.53-2.652,2.415,2.415,0,0,1,2.63-3.574c4.517,1,9.2,5.187,9.2,5.187V28.073Z" transform="translate(887.829 223.64)" fill="none" stroke="gray" stroke-linecap="round" stroke-linejoin="round" stroke-miterlimit="10" stroke-width="1"/>
    <path id="Path_303" data-name="Path 303" stroke="gray" d="M7.085,12.184C2.364,9.48.36,6.776.36,3.657A3.481,3.481,0,0,1,3.716.36,3.328,3.328,0,0,1,7.073,2.341,3.331,3.331,0,0,1,10.429.36a3.481,3.481,0,0,1,3.356,3.3C13.809,6.776,11.8,9.48,7.085,12.184Z" fill="#00f4ff" transform="translate(906.879 251.283)" stroke-linecap="round" stroke-linejoin="round" stroke-miterlimit="2.613" stroke-width="1" fill-rule="evenodd"/>
  </g>
</svg>
