<svg xmlns="http://www.w3.org/2000/svg" width="43.371" height="43.371" viewBox="0 0 43.371 43.371">
  <g id="Website" transform="translate(-394.992 -49.889)">
    <g id="Group_113_1_" transform="translate(394.992 49.889)">
      <g id="Ellipse_32_1_">
        <circle id="Ellipse_34" data-name="Ellipse 34" cx="21.685" cy="21.685" r="21.685" fill="none"/>
        <circle id="Ellipse_35" data-name="Ellipse 35" cx="20.653" cy="20.653" r="20.653" transform="translate(1.033 1.033)" fill="none" stroke="gray" stroke-width="1"/>
      </g>
      <path id="Path_74_1_" d="M381.89,44.12h35.646" transform="translate(-377.97 -33.317)" fill="none" stroke="gray" stroke-width="1"/>
      <path id="Path_75_5_" d="M398.37,49.3h4.192" transform="translate(-360.415 -27.799)" fill="none" stroke="gray" stroke-linecap="round" stroke-width="1"/>
      <path id="Path_75_4_" d="M382.64,49.3h.289" transform="translate(-377.171 -27.799)" fill="none" stroke="gray" stroke-width="1"/>
      <path id="Path_75_3_" d="M380.73,49.3H384.7" transform="translate(-379.206 -27.799)" fill="none" stroke="gray" stroke-linecap="round" stroke-width="1"/>
      <path id="Path_76_1_" d="M381.65,54.47h36.122" transform="translate(-378.226 -22.291)" fill="none" stroke="gray" stroke-width="1"/>
      <path id="Path_79_3_" d="M390.411,52.96V65.909" transform="translate(-368.926 -23.734)" fill="none" stroke="gray" stroke-linecap="round" stroke-width="1"/>
      <path id="Path_79_2_" d="M390.38,40.6V53.846" transform="translate(-368.926 -39.202)" fill="none" stroke="gray" stroke-linecap="round" stroke-width="1"/>
      <path id="Path_80_7_" d="M384.91,53.04a44.183,44.183,0,0,0,4.358,11.917" transform="translate(-374.753 -23.814)" fill="none" stroke="gray" stroke-linecap="round" stroke-width="1"/>
      <path id="Path_80_6_" d="M384.47,48.96" transform="translate(-375.222 -28.161)" fill="none" stroke="gray" stroke-width="1"/>
      <path id="Path_80_3_" d="M387.735,40.36a52.764,52.764,0,0,0-3.015,11.607" transform="translate(-374.955 -37.322)" fill="none" stroke="gray" stroke-linecap="round" stroke-width="1"/>
      <path id="Path_81_9_" d="M398.351,52.96a48.277,48.277,0,0,1-5.081,12.515" transform="translate(-365.847 -23.734)" fill="none" stroke="gray" stroke-linecap="round" stroke-width="1"/>
      <path id="Path_81_8_" d="M395.73,52.96" transform="translate(-363.227 -23.9)" fill="none" stroke="gray" stroke-width="1"/>
      <path id="Path_81_4_" d="M393.923,39a54.9,54.9,0,0,1,3.732,12.348" transform="translate(-365.152 -36.704)" fill="none" stroke="gray" stroke-linecap="round" stroke-width="1"/>
    </g>
    <text id="WWW" transform="translate(402.188 74.346)" fill="#00f4ff" font-size="10" font-family="Gisha" letter-spacing="0.037em"><tspan x="0" y="0">WWW</tspan></text>
  </g>
</svg>
