<?xml version="1.0" encoding="UTF-8"?>
<!DOCTYPE svg PUBLIC "-//W3C//DTD SVG 1.1//EN" "http://www.w3.org/Graphics/SVG/1.1/DTD/svg11.dtd">
<!-- Creator: CorelDRAW 2019 (64-Bit) -->
<svg xmlns="http://www.w3.org/2000/svg" xml:space="preserve" width="152px" height="75px" version="1.1" style="shape-rendering:geometricPrecision; text-rendering:geometricPrecision; image-rendering:optimizeQuality; fill-rule:evenodd; clip-rule:evenodd"
viewBox="0 0 31.502 15.538"
 xmlns:xlink="http://www.w3.org/1999/xlink">
 <defs>
  <style type="text/css">
   <![CDATA[
    .fil1 {fill:gray}
    .fil2 {fill:#EAEDF2}
    .fil0 {fill:white}
   ]]>
  </style>
 </defs>
 <g id="Layer_x0020_1">
  <metadata id="CorelCorpID_0Corel-Layer"/>
  <g id="_3018706595872">
   <path class="fil0" d="M0.757 0.207l29.988 0c0.302,0 0.55,0.248 0.55,0.55l0 14.024c0,0.302 -0.248,0.55 -0.55,0.55l-29.988 0c-0.302,0 -0.55,-0.248 -0.55,-0.55l0 -14.024c0,-0.302 0.248,-0.55 0.55,-0.55z"/>
   <path class="fil1" d="M0.757 0l29.988 0c0.208,0 0.397,0.085 0.535,0.222 0.137,0.137 0.222,0.327 0.222,0.535l0 14.024c0,0.208 -0.085,0.398 -0.222,0.535 -0.138,0.137 -0.327,0.222 -0.535,0.222l-29.988 0c-0.208,0 -0.398,-0.085 -0.535,-0.222 -0.137,-0.137 -0.222,-0.327 -0.222,-0.535l0 -14.024c0,-0.208 0.085,-0.398 0.222,-0.535 0.137,-0.137 0.327,-0.222 0.535,-0.222zm0 0.207l29.988 0c0.302,0 0.55,0.248 0.55,0.55l0 14.024c0,0.302 -0.248,0.55 -0.55,0.55l-29.988 0c-0.302,0 -0.55,-0.248 -0.55,-0.55l0 -14.024c0,-0.302 0.248,-0.55 0.55,-0.55z"/>
   <path class="fil2" d="M1.91 1.448l27.681 0c0.253,0 0.46,0.207 0.46,0.459l0 11.723c0,0.253 -0.207,0.46 -0.46,0.46l-27.681 0c-0.252,0 -0.459,-0.207 -0.459,-0.46l0 -11.723c0,-0.252 0.207,-0.459 0.459,-0.459z"/>
   <path class="fil1" d="M1.91 1.241l27.681 0c0.184,0 0.351,0.075 0.472,0.195 0.12,0.121 0.195,0.288 0.195,0.471l0 11.723c0,0.184 -0.075,0.351 -0.195,0.472 -0.121,0.12 -0.288,0.195 -0.472,0.195l-27.681 0c-0.183,0 -0.35,-0.075 -0.471,-0.195 -0.12,-0.121 -0.195,-0.288 -0.195,-0.472l0 -11.723c0,-0.183 0.075,-0.35 0.195,-0.471 0.121,-0.12 0.288,-0.195 0.471,-0.195zm0 0.207l27.681 0c0.253,0 0.46,0.207 0.46,0.459l0 11.723c0,0.253 -0.207,0.46 -0.46,0.46l-27.681 0c-0.252,0 -0.459,-0.207 -0.459,-0.46l0 -11.723c0,-0.252 0.207,-0.459 0.459,-0.459z"/>
  </g>
 </g>
</svg>
