<?xml version="1.0" encoding="UTF-8"?>
<!DOCTYPE svg PUBLIC "-//W3C//DTD SVG 1.1//EN" "http://www.w3.org/Graphics/SVG/1.1/DTD/svg11.dtd">
<!-- Creator: CorelDRAW 2019 (64-Bit) -->
<svg xmlns="http://www.w3.org/2000/svg" xml:space="preserve" width="142px" height="70px" version="1.1" style="shape-rendering:geometricPrecision; text-rendering:geometricPrecision; image-rendering:optimizeQuality; fill-rule:evenodd; clip-rule:evenodd"
viewBox="0 0 27.873 13.761"
 xmlns:xlink="http://www.w3.org/1999/xlink">
 <defs>
  <style type="text/css">
   <![CDATA[
    .fil2 {fill:#00F4FF}
    .fil1 {fill:gray}
    .fil3 {fill:#EAEDF2}
    .fil0 {fill:white}
    .fil4 {fill:gray;fill-rule:nonzero}
   ]]>
  </style>
 </defs>
 <g id="Layer_x0020_1">
  <metadata id="CorelCorpID_0Corel-Layer"/>
  <g id="_3019038786416">
   <path class="fil0" d="M0.682 0.196l26.509 0c0.267,0 0.486,0.219 0.486,0.486l0 12.397c0,0.267 -0.219,0.486 -0.486,0.486l-26.509 0c-0.267,0 -0.486,-0.219 -0.486,-0.486l0 -12.397c0,-0.267 0.219,-0.486 0.486,-0.486z"/>
   <path class="fil1" d="M0.682 0l26.509 0c0.188,0 0.358,0.077 0.482,0.2 0.123,0.124 0.2,0.295 0.2,0.482l0 12.397c0,0.188 -0.077,0.359 -0.2,0.482 -0.124,0.124 -0.295,0.2 -0.482,0.2l-26.509 0c-0.187,0 -0.357,-0.076 -0.481,-0.2l-0.001 -0.001c-0.123,-0.124 -0.2,-0.294 -0.2,-0.481l0 -12.397c0,-0.187 0.077,-0.357 0.201,-0.481 0.123,-0.124 0.293,-0.201 0.481,-0.201zm0 0.196l26.509 0c0.267,0 0.486,0.219 0.486,0.486l0 12.397c0,0.267 -0.219,0.486 -0.486,0.486l-26.509 0c-0.267,0 -0.486,-0.219 -0.486,-0.486l0 -12.397c0,-0.267 0.219,-0.486 0.486,-0.486z"/>
   <path class="fil2" d="M20.134 10.032l5.875 0c0.269,0 0.49,0.221 0.49,0.491l0 1.374c0,0.27 -0.221,0.49 -0.49,0.49l-5.875 0c-0.27,0 -0.491,-0.22 -0.491,-0.49l0 -1.374c0,-0.27 0.221,-0.491 0.491,-0.491z"/>
   <path class="fil1" d="M20.134 10.032l5.875 0c0.269,0 0.49,0.221 0.49,0.491l0 1.374c0,0.27 -0.221,0.49 -0.49,0.49l-5.875 0c-0.27,0 -0.491,-0.22 -0.491,-0.49l0 -1.374c0,-0.27 0.221,-0.491 0.491,-0.491zm5.875 0.196l-5.875 0c-0.081,0 -0.154,0.033 -0.208,0.087 -0.053,0.053 -0.086,0.127 -0.086,0.208l0 1.374c0,0.081 0.033,0.154 0.086,0.208 0.054,0.053 0.127,0.086 0.208,0.086l5.875 0c0.08,0 0.154,-0.033 0.207,-0.086 0.054,-0.054 0.087,-0.127 0.087,-0.208l0 -1.374c0,-0.081 -0.033,-0.155 -0.086,-0.209 -0.054,-0.053 -0.128,-0.086 -0.208,-0.086z"/>
   <path class="fil1" d="M9.611 4.33l14.236 0c0.054,0 0.098,0.044 0.098,0.098l0 0c0,0.054 -0.044,0.098 -0.098,0.098l-14.236 0c-0.054,0 -0.098,-0.044 -0.098,-0.098l0 0c0,-0.054 0.044,-0.098 0.098,-0.098z"/>
   <path class="fil1" d="M9.611 5.997l14.236 0c0.054,0 0.098,0.045 0.098,0.099l0 0c0,0.054 -0.044,0.098 -0.098,0.098l-14.236 0c-0.054,0 -0.098,-0.044 -0.098,-0.098l0 0c0,-0.054 0.044,-0.099 0.098,-0.099z"/>
   <path class="fil1" d="M9.611 7.665l8.338 0c0.054,0 0.099,0.044 0.099,0.098l0 0c0,0.055 -0.045,0.099 -0.099,0.099l-8.338 0c-0.054,0 -0.098,-0.044 -0.098,-0.099l0 0c0,-0.054 0.044,-0.098 0.098,-0.098z"/>
   <path class="fil3" d="M2.406 3.167l4.741 0c0.307,0 0.558,0.251 0.558,0.558l0 4.741c0,0.307 -0.251,0.558 -0.558,0.558l-4.741 0c-0.307,0 -0.558,-0.251 -0.558,-0.558l0 -4.741c0,-0.307 0.251,-0.558 0.558,-0.558z"/>
   <path class="fil4" d="M2.406 3.069l4.741 0c0.18,0 0.344,0.074 0.463,0.193 0.119,0.119 0.193,0.283 0.193,0.463l0 4.741c0,0.18 -0.074,0.344 -0.192,0.463 -0.119,0.119 -0.283,0.193 -0.464,0.193l-4.741 0c-0.18,0 -0.344,-0.074 -0.463,-0.193 -0.119,-0.118 -0.193,-0.282 -0.193,-0.463l0 -4.741c0,-0.18 0.074,-0.344 0.193,-0.463 0.119,-0.119 0.283,-0.193 0.463,-0.193zm4.741 0.197l-4.741 0c-0.126,0 -0.241,0.051 -0.325,0.134 -0.083,0.084 -0.134,0.199 -0.134,0.325l0 4.741c0,0.126 0.051,0.241 0.135,0.325 0.083,0.083 0.198,0.135 0.324,0.135l4.741 0c0.127,0 0.241,-0.052 0.325,-0.135 0.083,-0.083 0.135,-0.198 0.135,-0.325l0 -4.741c0,-0.126 -0.052,-0.241 -0.135,-0.325 -0.083,-0.083 -0.198,-0.134 -0.325,-0.134z"/>
  </g>
 </g>
</svg>
