<?xml version="1.0" encoding="UTF-8"?>
<!DOCTYPE svg PUBLIC "-//W3C//DTD SVG 1.1//EN" "http://www.w3.org/Graphics/SVG/1.1/DTD/svg11.dtd">
<!-- Creator: CorelDRAW 2019 (64-Bit) -->
<svg xmlns="http://www.w3.org/2000/svg" xml:space="preserve" width="202px" height="54px" version="1.1" style="shape-rendering:geometricPrecision; text-rendering:geometricPrecision; image-rendering:optimizeQuality; fill-rule:evenodd; clip-rule:evenodd"
viewBox="0 0 99.178 26.73"
 xmlns:xlink="http://www.w3.org/1999/xlink">
 <defs>
  <style type="text/css">
   <![CDATA[
    .fil4 {fill:#00F4FF}
    .fil1 {fill:gray}
    .fil2 {fill:#EAEDF2}
    .fil0 {fill:white}
    .fil3 {fill:gray;fill-rule:nonzero}
   ]]>
  </style>
 </defs>
 <g id="Layer_x0020_1">
  <metadata id="CorelCorpID_0Corel-Layer"/>
  <g id="_3018837073616">
   <path class="fil0" d="M1.451 0.491l96.277 0c0.528,0 0.959,0.432 0.959,0.96l0 23.828c0,0.528 -0.431,0.96 -0.959,0.96l-96.277 0c-0.528,0 -0.96,-0.432 -0.96,-0.96l0 -23.828c0,-0.528 0.432,-0.96 0.96,-0.96z"/>
   <path class="fil1" d="M1.451 0l96.277 0c0.399,0 0.762,0.163 1.025,0.426 0.262,0.263 0.425,0.626 0.425,1.025l0 23.828c0,0.398 -0.163,0.761 -0.425,1.023l-0.002 0.002c-0.263,0.263 -0.625,0.426 -1.023,0.426l-96.277 0c-0.398,0 -0.761,-0.163 -1.023,-0.426l-0.002 0c-0.263,-0.262 -0.426,-0.625 -0.426,-1.025l0 -23.828c0,-0.399 0.163,-0.762 0.426,-1.025 0.263,-0.263 0.626,-0.426 1.025,-0.426zm0 0.491l96.277 0c0.528,0 0.959,0.432 0.959,0.96l0 23.828c0,0.528 -0.431,0.96 -0.959,0.96l-96.277 0c-0.528,0 -0.96,-0.432 -0.96,-0.96l0 -23.828c0,-0.528 0.432,-0.96 0.96,-0.96z"/>
   <path class="fil2" d="M10.761 6.041l0 0c4.029,0 7.325,3.295 7.325,7.324l0 0c0,4.029 -3.296,7.325 -7.325,7.325l0 0c-4.028,0 -7.324,-3.296 -7.324,-7.325l0 0c0,-4.029 3.296,-7.324 7.324,-7.324z"/>
   <path class="fil3" d="M10.761 5.795c2.082,0 3.975,0.852 5.347,2.223 1.372,1.372 2.223,3.265 2.223,5.347 0,2.082 -0.851,3.975 -2.223,5.347 -1.372,1.371 -3.265,2.223 -5.347,2.223 -2.081,0 -3.974,-0.852 -5.346,-2.223 -1.372,-1.372 -2.224,-3.265 -2.224,-5.347 0,-2.082 0.852,-3.975 2.224,-5.347 1.372,-1.371 3.265,-2.223 5.346,-2.223zm0 0.491c-1.946,0 -3.716,0.797 -4.999,2.08 -1.283,1.283 -2.08,3.053 -2.08,4.999 0,1.947 0.797,3.716 2.08,4.999 1.283,1.283 3.053,2.08 4.999,2.08 1.947,0 3.717,-0.797 5,-2.08 1.283,-1.283 2.079,-3.052 2.079,-4.999 0,-1.946 -0.796,-3.716 -2.079,-4.999 -1.283,-1.283 -3.053,-2.08 -5,-2.08z"/>
   <path class="fil1" d="M21.727 7.62l41.793 0c0.135,0 0.246,0.111 0.246,0.246l0 0c0,0.135 -0.111,0.245 -0.246,0.245l-41.793 0c-0.135,0 -0.245,-0.11 -0.245,-0.245l0 0c0,-0.135 0.11,-0.246 0.245,-0.246z"/>
   <path class="fil1" d="M21.727 11.301l33.235 0c0.135,0 0.245,0.111 0.245,0.246l0 0c0,0.135 -0.11,0.245 -0.245,0.245l-33.235 0c-0.135,0 -0.245,-0.11 -0.245,-0.245l0 0c0,-0.135 0.11,-0.246 0.245,-0.246z"/>
   <path class="fil4" d="M94.267 23.906c-1.423,-0.818 -2.026,-1.631 -2.026,-2.569 0,-0.484 0.454,-0.995 1.013,-0.995 0.507,0 0.76,0.16 1.013,0.598 0.253,-0.438 0.507,-0.598 1.013,-0.598 0.559,0 1.013,0.511 1.013,0.995 0,0.938 -0.602,1.751 -2.026,2.569z"/>
   <path class="fil3" d="M94.145 24.119c-0.74,-0.425 -1.27,-0.854 -1.618,-1.302 -0.364,-0.468 -0.531,-0.956 -0.531,-1.48 0,-0.315 0.149,-0.636 0.388,-0.871 0.225,-0.221 0.531,-0.369 0.87,-0.369 0.298,0 0.527,0.05 0.727,0.17 0.106,0.064 0.2,0.144 0.286,0.245 0.087,-0.101 0.18,-0.181 0.286,-0.245 0.2,-0.12 0.429,-0.17 0.727,-0.17 0.339,0 0.645,0.148 0.87,0.369 0.239,0.235 0.389,0.556 0.389,0.871 0,0.524 -0.167,1.012 -0.531,1.48 -0.348,0.448 -0.879,0.877 -1.619,1.302l-0.122 0.07 -0.122 -0.07zm-1.231 -1.603c0.29,0.373 0.734,0.738 1.353,1.106 0.619,-0.368 1.063,-0.733 1.353,-1.106 0.293,-0.377 0.428,-0.766 0.428,-1.179 0,-0.184 -0.093,-0.377 -0.241,-0.522 -0.138,-0.136 -0.324,-0.227 -0.527,-0.227 -0.208,0 -0.359,0.029 -0.476,0.099 -0.118,0.071 -0.219,0.193 -0.325,0.376l-0.212 0.366 -0.212 -0.366c-0.105,-0.183 -0.206,-0.305 -0.325,-0.376 -0.116,-0.07 -0.267,-0.099 -0.476,-0.099 -0.202,0 -0.388,0.091 -0.527,0.227 -0.148,0.145 -0.24,0.338 -0.24,0.522 0,0.413 0.134,0.802 0.427,1.179z"/>
   <path class="fil2" d="M22.045 16.156l16.228 0c0.31,0 0.563,0.254 0.563,0.563l0 1.577c0,0.31 -0.253,0.563 -0.563,0.563l-16.228 0c-0.31,0 -0.563,-0.253 -0.563,-0.563l0 -1.577c0,-0.309 0.253,-0.563 0.563,-0.563z"/>
   <path class="fil3" d="M22.045 15.911l16.228 0c0.222,0 0.425,0.091 0.571,0.237 0.146,0.146 0.237,0.349 0.237,0.571l0 1.577c0,0.223 -0.091,0.425 -0.237,0.571 -0.146,0.147 -0.349,0.238 -0.571,0.238l-16.228 0c-0.223,0 -0.425,-0.091 -0.572,-0.238 -0.146,-0.146 -0.237,-0.348 -0.237,-0.571l0 -1.577c0,-0.222 0.091,-0.425 0.237,-0.571 0.147,-0.146 0.349,-0.237 0.572,-0.237zm16.228 0.491l-16.228 0c-0.087,0 -0.167,0.036 -0.225,0.093 -0.057,0.058 -0.093,0.138 -0.093,0.224l0 1.577c0,0.087 0.036,0.167 0.093,0.224 0.058,0.058 0.138,0.094 0.225,0.094l16.228 0c0.087,0 0.166,-0.036 0.224,-0.094 0.057,-0.057 0.093,-0.137 0.093,-0.224l0 -1.577c0,-0.086 -0.036,-0.166 -0.093,-0.224 -0.058,-0.057 -0.137,-0.093 -0.224,-0.093z"/>
   <path class="fil2" d="M41.363 16.156l11.259 0c0.31,0 0.563,0.254 0.563,0.563l0 1.577c0,0.31 -0.253,0.563 -0.563,0.563l-11.259 0c-0.31,0 -0.563,-0.253 -0.563,-0.563l0 -1.577c0,-0.309 0.253,-0.563 0.563,-0.563z"/>
   <path class="fil3" d="M41.363 15.911l11.259 0c0.223,0 0.425,0.091 0.571,0.237 0.147,0.146 0.238,0.349 0.238,0.571l0 1.577c0,0.223 -0.091,0.425 -0.238,0.571 -0.146,0.147 -0.348,0.238 -0.571,0.238l-11.259 0c-0.223,0 -0.425,-0.091 -0.572,-0.238 -0.146,-0.146 -0.237,-0.348 -0.237,-0.571l0 -1.577c0,-0.222 0.091,-0.425 0.237,-0.571 0.147,-0.146 0.349,-0.237 0.572,-0.237zm11.259 0.491l-11.259 0c-0.087,0 -0.167,0.036 -0.224,0.093 -0.058,0.058 -0.094,0.138 -0.094,0.224l0 1.577c0,0.087 0.036,0.167 0.094,0.224 0.057,0.058 0.137,0.094 0.224,0.094l11.259 0c0.087,0 0.167,-0.036 0.224,-0.094 0.058,-0.057 0.094,-0.137 0.094,-0.224l0 -1.577c0,-0.086 -0.036,-0.166 -0.094,-0.224 -0.057,-0.057 -0.137,-0.093 -0.224,-0.093z"/>
   <path class="fil2" d="M67.056 16.156l11.26 0c0.31,0 0.563,0.254 0.563,0.563l0 1.577c0,0.31 -0.253,0.563 -0.563,0.563l-11.26 0c-0.309,0 -0.563,-0.253 -0.563,-0.563l0 -1.577c0,-0.309 0.254,-0.563 0.563,-0.563z"/>
   <path class="fil3" d="M67.056 15.911l11.26 0c0.222,0 0.425,0.091 0.571,0.237 0.146,0.146 0.237,0.349 0.237,0.571l0 1.577c0,0.223 -0.091,0.425 -0.237,0.571 -0.146,0.147 -0.349,0.238 -0.571,0.238l-11.26 0c-0.222,0 -0.425,-0.091 -0.571,-0.238 -0.146,-0.146 -0.237,-0.348 -0.237,-0.571l0 -1.577c0,-0.222 0.091,-0.425 0.237,-0.571 0.146,-0.146 0.349,-0.237 0.571,-0.237zm11.26 0.491l-11.26 0c-0.087,0 -0.166,0.036 -0.224,0.093 -0.057,0.058 -0.093,0.138 -0.093,0.224l0 1.577c0,0.087 0.036,0.167 0.093,0.224 0.058,0.058 0.137,0.094 0.224,0.094l11.26 0c0.087,0 0.167,-0.036 0.224,-0.094 0.058,-0.057 0.093,-0.137 0.093,-0.224l0 -1.577c0,-0.086 -0.035,-0.166 -0.093,-0.224 -0.057,-0.057 -0.137,-0.093 -0.224,-0.093z"/>
   <path class="fil2" d="M55.712 16.156l8.255 0c0.309,0 0.563,0.254 0.563,0.563l0 1.577c0,0.31 -0.254,0.563 -0.563,0.563l-8.255 0c-0.31,0 -0.563,-0.253 -0.563,-0.563l0 -1.577c0,-0.309 0.253,-0.563 0.563,-0.563z"/>
   <path class="fil3" d="M55.712 15.911l8.255 0c0.222,0 0.425,0.091 0.571,0.237 0.146,0.146 0.237,0.349 0.237,0.571l0 1.577c0,0.223 -0.091,0.425 -0.237,0.571 -0.146,0.147 -0.349,0.238 -0.571,0.238l-8.255 0c-0.222,0 -0.425,-0.091 -0.571,-0.238 -0.147,-0.146 -0.238,-0.348 -0.238,-0.571l0 -1.577c0,-0.222 0.091,-0.425 0.238,-0.571 0.146,-0.146 0.349,-0.237 0.571,-0.237zm8.255 0.491l-8.255 0c-0.087,0 -0.167,0.036 -0.224,0.093 -0.058,0.058 -0.094,0.138 -0.094,0.224l0 1.577c0,0.087 0.036,0.167 0.094,0.224 0.057,0.058 0.137,0.094 0.224,0.094l8.255 0c0.087,0 0.166,-0.036 0.224,-0.094 0.057,-0.057 0.093,-0.137 0.093,-0.224l0 -1.577c0,-0.086 -0.036,-0.166 -0.093,-0.224 -0.058,-0.057 -0.137,-0.093 -0.224,-0.093z"/>
  </g>
 </g>
</svg>
