<?xml version="1.0" encoding="UTF-8"?>
<!DOCTYPE svg PUBLIC "-//W3C//DTD SVG 1.1//EN" "http://www.w3.org/Graphics/SVG/1.1/DTD/svg11.dtd">
<!-- Creator: CorelDRAW 2019 (64-Bit) -->
<svg xmlns="http://www.w3.org/2000/svg" xml:space="preserve" width="99px" height="102px" version="1.1" style="shape-rendering:geometricPrecision; text-rendering:geometricPrecision; image-rendering:optimizeQuality; fill-rule:evenodd; clip-rule:evenodd"
viewBox="0 0 118.057 121.493"
 xmlns:xlink="http://www.w3.org/1999/xlink">
 <defs>
  <style type="text/css">
   <![CDATA[
    .fil2 {fill:#00F4FF}
    .fil1 {fill:gray}
    .fil4 {fill:#EAEDF2}
    .fil0 {fill:white}
    .fil3 {fill:gray;fill-rule:nonzero}
   ]]>
  </style>
 </defs>
 <g id="Layer_x0020_1">
  <metadata id="CorelCorpID_0Corel-Layer"/>
  <g id="_3018839944352">
   <path class="fil0" d="M3.646 1.191l110.765 0c1.35,0 2.455,1.105 2.455,2.455l0 114.2c0,1.351 -1.105,2.455 -2.455,2.455l-110.765 0c-1.35,0 -2.455,-1.104 -2.455,-2.455l0 -114.2c0,-1.35 1.105,-2.455 2.455,-2.455z"/>
   <path class="fil1" d="M3.646 0l110.765 0c1.003,0 1.916,0.41 2.576,1.07 0.66,0.66 1.07,1.573 1.07,2.576l0 114.2c0,1.004 -0.41,1.916 -1.07,2.576 -0.66,0.66 -1.573,1.071 -2.576,1.071l-110.765 0c-1.003,0 -1.916,-0.411 -2.576,-1.071 -0.66,-0.66 -1.07,-1.572 -1.07,-2.576l0 -114.2c0,-1.003 0.41,-1.916 1.07,-2.576 0.66,-0.66 1.573,-1.07 2.576,-1.07zm0 1.191l110.765 0c1.35,0 2.455,1.105 2.455,2.455l0 114.2c0,1.351 -1.105,2.455 -2.455,2.455l-110.765 0c-1.35,0 -2.455,-1.104 -2.455,-2.455l0 -114.2c0,-1.35 1.105,-2.455 2.455,-2.455z"/>
   <path class="fil1" d="M8.335 28.661l101.388 0c0.328,0 0.596,0.268 0.596,0.596l0 0c0,0.328 -0.268,0.595 -0.596,0.595l-101.388 0c-0.328,0 -0.596,-0.267 -0.596,-0.595l0 0c0,-0.328 0.268,-0.596 0.596,-0.596z"/>
   <path class="fil1" d="M8.335 35.209l80.625 0c0.328,0 0.595,0.268 0.595,0.596l0 0c0,0.327 -0.267,0.595 -0.595,0.595l-80.625 0c-0.328,0 -0.596,-0.268 -0.596,-0.595l0 0c0,-0.328 0.268,-0.596 0.596,-0.596z"/>
   <path class="fil1" d="M25.931 17.349l26.161 0c0.328,0 0.595,0.268 0.595,0.596l0 0c0,0.327 -0.267,0.595 -0.595,0.595l-26.161 0c-0.328,0 -0.596,-0.268 -0.596,-0.595l0 0c0,-0.328 0.268,-0.596 0.596,-0.596z"/>
   <path class="fil1" d="M25.931 11.635l38.383 0c0.328,0 0.595,0.268 0.595,0.596l0 0c0,0.328 -0.267,0.595 -0.595,0.595l-38.383 0c-0.328,0 -0.596,-0.267 -0.596,-0.595l0 0c0,-0.328 0.268,-0.596 0.596,-0.596z"/>
   <path class="fil2" d="M10.194 7.739l9.412 0c1.351,0 2.456,1.104 2.456,2.455l0 9.412c0,1.351 -1.105,2.455 -2.456,2.455l-9.412 0c-1.35,0 -2.455,-1.104 -2.455,-2.455l0 -9.412c0,-1.351 1.105,-2.455 2.455,-2.455z"/>
   <path class="fil3" d="M10.194 7.143l9.412 0c0.84,0 1.603,0.343 2.156,0.896 0.552,0.552 0.895,1.316 0.895,2.155l0 9.412c0,0.838 -0.343,1.601 -0.897,2.154 -0.551,0.554 -1.314,0.897 -2.154,0.897l-9.412 0c-0.839,0 -1.603,-0.343 -2.155,-0.896 -0.552,-0.554 -0.896,-1.317 -0.896,-2.155l0 -9.412c0,-0.839 0.344,-1.603 0.896,-2.155 0.552,-0.553 1.316,-0.896 2.155,-0.896zm9.412 1.191l-9.412 0c-0.511,0 -0.976,0.21 -1.313,0.547 -0.337,0.337 -0.546,0.802 -0.546,1.313l0 9.412c0,0.513 0.209,0.978 0.544,1.313 0.339,0.337 0.804,0.547 1.315,0.547l9.412 0c0.511,0 0.977,-0.21 1.314,-0.547 0.337,-0.335 0.546,-0.8 0.546,-1.313l0 -9.412c0,-0.511 -0.21,-0.976 -0.546,-1.313 -0.337,-0.337 -0.803,-0.547 -1.314,-0.547z"/>
   <path class="fil4" d="M96.272 43l11.797 0c1.238,0 2.25,1.012 2.25,2.249l0 66.255c0,1.238 -1.012,2.25 -2.25,2.25l-11.797 0c-1.237,0 -2.249,-1.012 -2.249,-2.25l0 -66.255c0,-1.237 1.012,-2.249 2.249,-2.249z"/>
   <path class="fil3" d="M96.272 42.404l11.797 0c0.78,0 1.492,0.32 2.007,0.836 0.518,0.518 0.838,1.229 0.838,2.009l0 66.255c0,0.78 -0.32,1.492 -0.835,2.008 -0.518,0.517 -1.23,0.837 -2.01,0.837l-11.797 0c-0.78,0 -1.491,-0.32 -2.007,-0.835 -0.518,-0.518 -0.838,-1.23 -0.838,-2.01l0 -66.255c0,-0.78 0.32,-1.491 0.836,-2.007 0.518,-0.518 1.229,-0.838 2.009,-0.838zm11.797 1.191l-11.797 0c-0.456,0 -0.869,0.186 -1.167,0.484 -0.301,0.301 -0.486,0.714 -0.486,1.17l0 66.255c0,0.456 0.185,0.87 0.483,1.168 0.301,0.301 0.714,0.486 1.17,0.486l11.797 0c0.456,0 0.87,-0.185 1.168,-0.484 0.301,-0.3 0.486,-0.714 0.486,-1.17l0 -66.255c0,-0.456 -0.185,-0.869 -0.484,-1.167 -0.3,-0.301 -0.714,-0.487 -1.17,-0.487z"/>
   <path class="fil4" d="M10.194 43l76.609 0c1.351,0 2.456,1.105 2.456,2.455l0 65.843c0,1.351 -1.105,2.456 -2.456,2.456l-76.609 0c-1.35,0 -2.455,-1.105 -2.455,-2.456l0 -65.843c0,-1.35 1.105,-2.455 2.455,-2.455z"/>
   <path class="fil3" d="M10.194 42.404l76.609 0c0.84,0 1.603,0.344 2.155,0.896 0.553,0.552 0.896,1.316 0.896,2.155l0 65.843c0,0.84 -0.343,1.603 -0.896,2.155 -0.552,0.553 -1.315,0.896 -2.155,0.896l-76.609 0c-0.839,0 -1.603,-0.343 -2.155,-0.896 -0.552,-0.552 -0.896,-1.315 -0.896,-2.155l0 -65.843c0,-0.839 0.344,-1.603 0.896,-2.155 0.552,-0.552 1.316,-0.896 2.155,-0.896zm76.609 1.191l-76.609 0c-0.511,0 -0.976,0.21 -1.313,0.547 -0.337,0.337 -0.546,0.802 -0.546,1.313l0 65.843c0,0.511 0.209,0.976 0.546,1.313 0.337,0.337 0.802,0.547 1.313,0.547l76.609 0c0.511,0 0.976,-0.21 1.313,-0.547 0.337,-0.337 0.547,-0.802 0.547,-1.313l0 -65.843c0,-0.511 -0.21,-0.976 -0.547,-1.313 -0.337,-0.337 -0.802,-0.547 -1.313,-0.547z"/>
   <path class="fil0" d="M110.319 70.664l-7.094 0c-0.9,0 -1.637,0.737 -1.637,1.637l0 9.822c0,0.9 0.737,1.636 1.637,1.636l7.094 0 0 -13.095z"/>
   <path class="fil3" d="M109.723 71.26l-6.498 0c-0.285,0 -0.546,0.117 -0.735,0.306 -0.19,0.187 -0.306,0.448 -0.306,0.735l0 9.822c0,0.285 0.117,0.546 0.306,0.735 0.189,0.188 0.45,0.306 0.735,0.306l6.498 0 0 -11.904zm-6.498 -1.191l7.689 0 0 14.286 -7.689 0c-0.614,0 -1.173,-0.251 -1.577,-0.655 -0.404,-0.404 -0.655,-0.963 -0.655,-1.577l0 -9.822c0,-0.612 0.251,-1.171 0.656,-1.576 0.403,-0.405 0.962,-0.656 1.576,-0.656z"/>
   <path class="fil3" d="M105.29 80.473c-0.226,0.236 -0.601,0.244 -0.837,0.019 -0.237,-0.226 -0.245,-0.601 -0.019,-0.838l2.337 -2.442 -2.337 -2.442c-0.226,-0.236 -0.218,-0.611 0.019,-0.837 0.236,-0.226 0.611,-0.218 0.837,0.019l2.729 2.851c0.217,0.227 0.219,0.588 0,0.818l-2.729 2.852z"/>
  </g>
 </g>
</svg>
