<?xml version="1.0" encoding="UTF-8"?>
<!DOCTYPE svg PUBLIC "-//W3C//DTD SVG 1.1//EN" "http://www.w3.org/Graphics/SVG/1.1/DTD/svg11.dtd">
<!-- Creator: CorelDRAW 2019 (64-Bit) -->
<svg xmlns="http://www.w3.org/2000/svg" xml:space="preserve" width="202px" height="54px" version="1.1" style="shape-rendering:geometricPrecision; text-rendering:geometricPrecision; image-rendering:optimizeQuality; fill-rule:evenodd; clip-rule:evenodd"
viewBox="0 0 219.376 59.125"
 xmlns:xlink="http://www.w3.org/1999/xlink">
 <defs>
  <style type="text/css">
   <![CDATA[
    .fil1 {fill:gray}
    .fil3 {fill:#EAEDF2}
    .fil0 {fill:white}
    .fil2 {fill:gray;fill-rule:nonzero}
   ]]>
  </style>
 </defs>
 <g id="Layer_x0020_1">
  <metadata id="CorelCorpID_0Corel-Layer"/>
  <g id="_3018492080544">
   <path class="fil0" d="M3.21 1.086l212.957 0c1.168,0 2.123,0.956 2.123,2.124l0 52.706c0,1.168 -0.955,2.123 -2.123,2.123l-212.957 0c-1.169,0 -2.124,-0.955 -2.124,-2.123l0 -52.706c0,-1.168 0.955,-2.124 2.124,-2.124z"/>
   <path class="fil1" d="M3.21 0l212.957 0c0.883,0 1.686,0.361 2.267,0.942 0.581,0.581 0.942,1.384 0.942,2.268l0 52.706c0,0.881 -0.361,1.682 -0.942,2.263l-0.004 0.004c-0.581,0.581 -1.382,0.942 -2.263,0.942l-212.957 0c-0.881,0 -1.683,-0.361 -2.264,-0.942l-0.004 0c-0.581,-0.581 -0.942,-1.384 -0.942,-2.267l0 -52.706c0,-0.884 0.361,-1.687 0.942,-2.268 0.581,-0.581 1.384,-0.942 2.268,-0.942zm0 1.086l212.957 0c1.168,0 2.123,0.956 2.123,2.124l0 52.706c0,1.168 -0.955,2.123 -2.123,2.123l-212.957 0c-1.169,0 -2.124,-0.955 -2.124,-2.123l0 -52.706c0,-1.168 0.955,-2.124 2.124,-2.124z"/>
   <polygon class="fil1" points="212.656,31.468 214.479,29.563 212.656,27.658 "/>
   <path class="fil2" d="M213.199 30.119l0.532 -0.556 -0.532 -0.557 0 1.113zm1.67 -0.183l-1.783 1.864c-0.1,0.128 -0.255,0.211 -0.43,0.211 -0.3,0 -0.543,-0.243 -0.543,-0.543l0 -3.81c0.003,-0.143 0.059,-0.285 0.17,-0.391 0.216,-0.206 0.558,-0.198 0.764,0.018l1.822 1.905c0.199,0.207 0.201,0.536 0,0.746z"/>
   <polygon class="fil1" points="6.719,31.468 4.897,29.563 6.719,27.658 "/>
   <path class="fil2" d="M6.29 31.8l-1.784 -1.864c-0.2,-0.21 -0.198,-0.539 0,-0.746l1.823 -1.905c0.206,-0.216 0.548,-0.224 0.764,-0.018 0.11,0.106 0.166,0.248 0.166,0.391l0.003 3.81c0,0.3 -0.243,0.543 -0.543,0.543 -0.174,0 -0.33,-0.083 -0.429,-0.211zm-0.646 -2.237l0.532 0.556 0 -1.113 -0.532 0.557z"/>
   <path class="fil3" d="M19.466 12.653l15.826 0c1.024,0 1.861,0.838 1.861,1.862l0 15.825c0,1.024 -0.837,1.862 -1.861,1.862l-15.826 0c-1.023,0 -1.861,-0.838 -1.861,-1.862l0 -15.825c0,-1.024 0.838,-1.862 1.861,-1.862z"/>
   <path class="fil2" d="M19.466 12.11l15.826 0c0.661,0 1.263,0.271 1.698,0.706 0.436,0.435 0.706,1.037 0.706,1.699l0 15.825c0,0.662 -0.27,1.263 -0.706,1.699 -0.435,0.435 -1.037,0.706 -1.698,0.706l-15.826 0c-0.661,0 -1.263,-0.271 -1.698,-0.706 -0.436,-0.436 -0.706,-1.037 -0.706,-1.699l0 -15.825c0,-0.662 0.27,-1.264 0.706,-1.699 0.435,-0.435 1.037,-0.706 1.698,-0.706zm15.826 1.086l-15.826 0c-0.362,0 -0.692,0.149 -0.93,0.388 -0.239,0.239 -0.388,0.569 -0.388,0.931l0 15.825c0,0.362 0.149,0.692 0.388,0.931 0.238,0.239 0.568,0.387 0.93,0.387l15.826 0c0.362,0 0.692,-0.148 0.931,-0.387 0.239,-0.239 0.387,-0.569 0.387,-0.931l0 -15.825c0,-0.362 -0.148,-0.692 -0.387,-0.931 -0.239,-0.239 -0.569,-0.388 -0.931,-0.388z"/>
   <path class="fil2" d="M17.605 47.014c-0.3,0 -0.543,-0.243 -0.543,-0.543 0,-0.3 0.243,-0.543 0.543,-0.543l19.548 0c0.3,0 0.543,0.243 0.543,0.543 0,0.3 -0.243,0.543 -0.543,0.543l-19.548 0z"/>
   <path class="fil2" d="M13.197 41.012c-0.3,0 -0.544,-0.243 -0.544,-0.543 0,-0.3 0.244,-0.543 0.544,-0.543l28.364 0c0.3,0 0.543,0.243 0.543,0.543 0,0.3 -0.243,0.543 -0.543,0.543l-28.364 0z"/>
   <path class="fil3" d="M60.592 12.653l15.826 0c1.024,0 1.861,0.838 1.861,1.862l0 15.825c0,1.024 -0.837,1.862 -1.861,1.862l-15.826 0c-1.023,0 -1.861,-0.838 -1.861,-1.862l0 -15.825c0,-1.024 0.838,-1.862 1.861,-1.862z"/>
   <path class="fil2" d="M60.592 12.11l15.826 0c0.661,0 1.263,0.271 1.698,0.706 0.436,0.435 0.706,1.037 0.706,1.699l0 15.825c0,0.662 -0.27,1.263 -0.706,1.699 -0.435,0.435 -1.037,0.706 -1.698,0.706l-15.826 0c-0.661,0 -1.263,-0.271 -1.698,-0.706 -0.436,-0.436 -0.706,-1.037 -0.706,-1.699l0 -15.825c0,-0.662 0.27,-1.264 0.706,-1.699 0.435,-0.435 1.037,-0.706 1.698,-0.706zm15.826 1.086l-15.826 0c-0.362,0 -0.692,0.149 -0.93,0.388 -0.239,0.239 -0.388,0.569 -0.388,0.931l0 15.825c0,0.362 0.149,0.692 0.388,0.931 0.238,0.239 0.568,0.387 0.93,0.387l15.826 0c0.362,0 0.692,-0.148 0.931,-0.387 0.239,-0.239 0.387,-0.569 0.387,-0.931l0 -15.825c0,-0.362 -0.148,-0.692 -0.387,-0.931 -0.239,-0.239 -0.569,-0.388 -0.931,-0.388z"/>
   <path class="fil2" d="M58.731 47.014c-0.3,0 -0.543,-0.243 -0.543,-0.543 0,-0.3 0.243,-0.543 0.543,-0.543l19.548 0c0.3,0 0.543,0.243 0.543,0.543 0,0.3 -0.243,0.543 -0.543,0.543l-19.548 0z"/>
   <path class="fil2" d="M54.323 41.012c-0.3,0 -0.543,-0.243 -0.543,-0.543 0,-0.3 0.243,-0.543 0.543,-0.543l28.364 0c0.3,0 0.543,0.243 0.543,0.543 0,0.3 -0.243,0.543 -0.543,0.543l-28.364 0z"/>
   <path class="fil3" d="M101.775 12.653l15.825 0c1.024,0 1.862,0.838 1.862,1.862l0 15.825c0,1.024 -0.838,1.862 -1.862,1.862l-15.825 0c-1.024,0 -1.861,-0.838 -1.861,-1.862l0 -15.825c0,-1.024 0.837,-1.862 1.861,-1.862z"/>
   <path class="fil2" d="M101.775 12.11l15.825 0c0.662,0 1.264,0.271 1.699,0.706 0.435,0.435 0.706,1.037 0.706,1.699l0 15.825c0,0.662 -0.271,1.263 -0.706,1.699 -0.435,0.435 -1.037,0.706 -1.699,0.706l-15.825 0c-0.661,0 -1.263,-0.271 -1.699,-0.706 -0.435,-0.436 -0.705,-1.037 -0.705,-1.699l0 -15.825c0,-0.662 0.27,-1.264 0.705,-1.699 0.436,-0.435 1.038,-0.706 1.699,-0.706zm15.825 1.086l-15.825 0c-0.362,0 -0.692,0.149 -0.931,0.388 -0.239,0.239 -0.387,0.569 -0.387,0.931l0 15.825c0,0.362 0.148,0.692 0.387,0.931 0.239,0.239 0.569,0.387 0.931,0.387l15.825 0c0.362,0 0.692,-0.148 0.931,-0.387 0.239,-0.239 0.388,-0.569 0.388,-0.931l0 -15.825c0,-0.362 -0.149,-0.692 -0.388,-0.931 -0.239,-0.239 -0.569,-0.388 -0.931,-0.388z"/>
   <path class="fil2" d="M99.913 47.014c-0.3,0 -0.543,-0.243 -0.543,-0.543 0,-0.3 0.243,-0.543 0.543,-0.543l19.549 0c0.3,0 0.543,0.243 0.543,0.543 0,0.3 -0.243,0.543 -0.543,0.543l-19.549 0z"/>
   <path class="fil2" d="M95.505 41.012c-0.3,0 -0.543,-0.243 -0.543,-0.543 0,-0.3 0.243,-0.543 0.543,-0.543l28.365 0c0.3,0 0.543,0.243 0.543,0.543 0,0.3 -0.243,0.543 -0.543,0.543l-28.365 0z"/>
   <path class="fil3" d="M142.93 12.653l15.825 0c1.024,0 1.862,0.838 1.862,1.862l0 15.825c0,1.024 -0.838,1.862 -1.862,1.862l-15.825 0c-1.024,0 -1.862,-0.838 -1.862,-1.862l0 -15.825c0,-1.024 0.838,-1.862 1.862,-1.862z"/>
   <path class="fil2" d="M142.93 12.11l15.825 0c0.662,0 1.263,0.271 1.699,0.706 0.435,0.435 0.706,1.037 0.706,1.699l0 15.825c0,0.662 -0.271,1.263 -0.706,1.699 -0.436,0.435 -1.037,0.706 -1.699,0.706l-15.825 0c-0.662,0 -1.264,-0.271 -1.699,-0.706 -0.435,-0.436 -0.706,-1.037 -0.706,-1.699l0 -15.825c0,-0.662 0.271,-1.264 0.706,-1.699 0.435,-0.435 1.037,-0.706 1.699,-0.706zm15.825 1.086l-15.825 0c-0.362,0 -0.692,0.149 -0.931,0.388 -0.239,0.239 -0.388,0.569 -0.388,0.931l0 15.825c0,0.362 0.149,0.692 0.388,0.931 0.239,0.239 0.569,0.387 0.931,0.387l15.825 0c0.362,0 0.692,-0.148 0.931,-0.387 0.239,-0.239 0.388,-0.569 0.388,-0.931l0 -15.825c0,-0.362 -0.149,-0.692 -0.388,-0.931 -0.239,-0.239 -0.569,-0.388 -0.931,-0.388z"/>
   <path class="fil2" d="M141.068 47.014c-0.3,0 -0.543,-0.243 -0.543,-0.543 0,-0.3 0.243,-0.543 0.543,-0.543l19.549 0c0.299,0 0.543,0.243 0.543,0.543 0,0.3 -0.244,0.543 -0.543,0.543l-19.549 0z"/>
   <path class="fil2" d="M136.66 41.012c-0.3,0 -0.543,-0.243 -0.543,-0.543 0,-0.3 0.243,-0.543 0.543,-0.543l28.365 0c0.3,0 0.543,0.243 0.543,0.543 0,0.3 -0.243,0.543 -0.543,0.543l-28.365 0z"/>
   <path class="fil3" d="M184.084 12.653l15.825 0c1.024,0 1.862,0.838 1.862,1.862l0 15.825c0,1.024 -0.838,1.862 -1.862,1.862l-15.825 0c-1.024,0 -1.861,-0.838 -1.861,-1.862l0 -15.825c0,-1.024 0.837,-1.862 1.861,-1.862z"/>
   <path class="fil2" d="M184.084 12.11l15.825 0c0.662,0 1.264,0.271 1.699,0.706 0.435,0.435 0.706,1.037 0.706,1.699l0 15.825c0,0.662 -0.271,1.263 -0.706,1.699 -0.435,0.435 -1.037,0.706 -1.699,0.706l-15.825 0c-0.661,0 -1.263,-0.271 -1.699,-0.706 -0.435,-0.436 -0.705,-1.037 -0.705,-1.699l0 -15.825c0,-0.662 0.27,-1.264 0.705,-1.699 0.436,-0.435 1.038,-0.706 1.699,-0.706zm15.825 1.086l-15.825 0c-0.362,0 -0.692,0.149 -0.931,0.388 -0.239,0.239 -0.387,0.569 -0.387,0.931l0 15.825c0,0.362 0.148,0.692 0.387,0.931 0.239,0.239 0.569,0.387 0.931,0.387l15.825 0c0.362,0 0.692,-0.148 0.931,-0.387 0.239,-0.239 0.388,-0.569 0.388,-0.931l0 -15.825c0,-0.362 -0.149,-0.692 -0.388,-0.931 -0.239,-0.239 -0.569,-0.388 -0.931,-0.388z"/>
   <path class="fil2" d="M182.222 47.014c-0.3,0 -0.543,-0.243 -0.543,-0.543 0,-0.3 0.243,-0.543 0.543,-0.543l19.549 0c0.3,0 0.543,0.243 0.543,0.543 0,0.3 -0.243,0.543 -0.543,0.543l-19.549 0z"/>
   <path class="fil2" d="M177.814 41.012c-0.3,0 -0.543,-0.243 -0.543,-0.543 0,-0.3 0.243,-0.543 0.543,-0.543l28.365 0c0.3,0 0.543,0.243 0.543,0.543 0,0.3 -0.243,0.543 -0.543,0.543l-28.365 0z"/>
  </g>
 </g>
</svg>
