<?xml version="1.0" encoding="UTF-8"?>
<!DOCTYPE svg PUBLIC "-//W3C//DTD SVG 1.1//EN" "http://www.w3.org/Graphics/SVG/1.1/DTD/svg11.dtd">
<!-- Creator: CorelDRAW 2019 (64-Bit) -->
<svg xmlns="http://www.w3.org/2000/svg" xml:space="preserve" width="202px" height="54px" version="1.1" style="shape-rendering:geometricPrecision; text-rendering:geometricPrecision; image-rendering:optimizeQuality; fill-rule:evenodd; clip-rule:evenodd"
viewBox="0 0 36.405 9.812"
 xmlns:xlink="http://www.w3.org/1999/xlink">
 <defs>
  <style type="text/css">
   <![CDATA[
    .fil1 {fill:gray}
    .fil3 {fill:#EAEDF2}
    .fil0 {fill:white}
    .fil2 {fill:gray;fill-rule:nonzero}
   ]]>
  </style>
 </defs>
 <g id="Layer_x0020_1">
  <metadata id="CorelCorpID_0Corel-Layer"/>
  <g id="_3018877234864">
   <path class="fil0" d="M0.533 0.18l35.339 0c0.194,0 0.353,0.159 0.353,0.353l0 8.746c0,0.194 -0.159,0.352 -0.353,0.352l-35.339 0c-0.194,0 -0.353,-0.158 -0.353,-0.352l0 -8.746c0,-0.194 0.159,-0.353 0.353,-0.353z"/>
   <path class="fil1" d="M0.533 0l35.339 0c0.147,0 0.28,0.06 0.377,0.156 0.096,0.097 0.156,0.23 0.156,0.377l0 8.746c0,0.146 -0.06,0.279 -0.156,0.376l-0.001 0c-0.097,0.097 -0.23,0.157 -0.376,0.157l-35.339 0c-0.147,0 -0.28,-0.06 -0.376,-0.157l-0.001 0c-0.096,-0.096 -0.156,-0.229 -0.156,-0.376l0 -8.746c0,-0.147 0.06,-0.28 0.156,-0.377 0.097,-0.096 0.23,-0.156 0.377,-0.156zm0 0.18l35.339 0c0.194,0 0.353,0.159 0.353,0.353l0 8.746c0,0.194 -0.159,0.352 -0.353,0.352l-35.339 0c-0.194,0 -0.353,-0.158 -0.353,-0.352l0 -8.746c0,-0.194 0.159,-0.353 0.353,-0.353z"/>
   <polygon class="fil1" points="35.29,5.222 35.592,4.906 35.29,4.59 "/>
   <path class="fil2" d="M35.38 4.998l0.088 -0.092 -0.088 -0.092 0 0.184zm0.277 -0.03l-0.296 0.309c-0.016,0.021 -0.042,0.035 -0.071,0.035 -0.05,0 -0.09,-0.04 -0.09,-0.09l0 -0.632c0,-0.024 0.009,-0.047 0.028,-0.065 0.036,-0.034 0.092,-0.033 0.127,0.003l0.302 0.316c0.033,0.034 0.033,0.089 0,0.124z"/>
   <polygon class="fil1" points="1.115,5.222 0.813,4.906 1.115,4.59 "/>
   <path class="fil2" d="M1.044 5.277l-0.296 -0.309c-0.033,-0.035 -0.033,-0.09 0,-0.124l0.302 -0.316c0.034,-0.036 0.091,-0.037 0.127,-0.003 0.018,0.018 0.028,0.041 0.028,0.065l0 0.632c0,0.05 -0.04,0.09 -0.09,0.09 -0.029,0 -0.055,-0.014 -0.071,-0.035zm-0.107 -0.371l0.088 0.092 0 -0.184 -0.088 0.092z"/>
   <path class="fil3" d="M4.543 2.1l0.001 0c0.892,0 1.621,0.73 1.621,1.622l0 0c0,0.892 -0.729,1.622 -1.621,1.622l-0.001 0c-0.892,0 -1.622,-0.73 -1.622,-1.622l0 0c0,-0.892 0.73,-1.622 1.622,-1.622z"/>
   <path class="fil2" d="M4.543 2.01c0.471,0 0.9,0.192 1.21,0.502 0.31,0.311 0.503,0.739 0.503,1.21 0,0.471 -0.193,0.899 -0.503,1.209 -0.31,0.31 -0.739,0.503 -1.209,0.503 -0.471,0 -0.9,-0.193 -1.21,-0.503 -0.31,-0.31 -0.503,-0.738 -0.503,-1.209 0,-0.471 0.193,-0.899 0.503,-1.21 0.31,-0.31 0.739,-0.502 1.209,-0.502zm0.001 0.18c-0.422,0 -0.805,0.172 -1.082,0.45 -0.278,0.278 -0.45,0.661 -0.45,1.082 0,0.421 0.172,0.804 0.45,1.082 0.277,0.277 0.66,0.45 1.081,0.45 0.422,0 0.805,-0.173 1.082,-0.45 0.278,-0.278 0.45,-0.661 0.45,-1.082 0,-0.421 -0.172,-0.804 -0.45,-1.082 -0.277,-0.278 -0.66,-0.45 -1.081,-0.45z"/>
   <path class="fil2" d="M2.921 7.802c-0.049,0 -0.09,-0.04 -0.09,-0.09 0,-0.05 0.041,-0.09 0.09,-0.09l3.244 0c0.05,0 0.091,0.04 0.091,0.09 0,0.05 -0.041,0.09 -0.091,0.09l-3.244 0z"/>
   <path class="fil2" d="M2.19 6.806c-0.05,0 -0.09,-0.041 -0.09,-0.09 0,-0.05 0.04,-0.09 0.09,-0.09l4.707 0c0.05,0 0.09,0.04 0.09,0.09 0,0.049 -0.04,0.09 -0.09,0.09l-4.707 0z"/>
   <path class="fil3" d="M11.368 2.1l0 0c0.892,0 1.622,0.73 1.622,1.622l0 0c0,0.892 -0.73,1.622 -1.622,1.622l0 0c-0.892,0 -1.622,-0.73 -1.622,-1.622l0 0c0,-0.892 0.73,-1.622 1.622,-1.622z"/>
   <path class="fil2" d="M11.368 2.01c0.471,0 0.899,0.192 1.21,0.502 0.31,0.311 0.502,0.739 0.502,1.21 0,0.471 -0.192,0.899 -0.502,1.209 -0.311,0.31 -0.739,0.503 -1.21,0.503 -0.471,0 -0.899,-0.193 -1.209,-0.503 -0.31,-0.31 -0.503,-0.738 -0.503,-1.209 0,-0.471 0.193,-0.899 0.503,-1.21 0.31,-0.31 0.738,-0.502 1.209,-0.502zm0 0.18c-0.421,0 -0.804,0.172 -1.082,0.45 -0.277,0.278 -0.45,0.661 -0.45,1.082 0,0.421 0.173,0.804 0.45,1.082 0.278,0.277 0.661,0.45 1.082,0.45 0.421,0 0.804,-0.173 1.082,-0.45 0.278,-0.278 0.45,-0.661 0.45,-1.082 0,-0.421 -0.172,-0.804 -0.45,-1.082 -0.278,-0.278 -0.661,-0.45 -1.082,-0.45z"/>
   <path class="fil2" d="M9.746 7.802c-0.05,0 -0.09,-0.04 -0.09,-0.09 0,-0.05 0.04,-0.09 0.09,-0.09l3.244 0c0.05,0 0.09,0.04 0.09,0.09 0,0.05 -0.04,0.09 -0.09,0.09l-3.244 0z"/>
   <path class="fil2" d="M9.015 6.806c-0.05,0 -0.09,-0.041 -0.09,-0.09 0,-0.05 0.04,-0.09 0.09,-0.09l4.707 0c0.05,0 0.09,0.04 0.09,0.09 0,0.049 -0.04,0.09 -0.09,0.09l-4.707 0z"/>
   <path class="fil3" d="M18.202 2.1l0 0c0.893,0 1.622,0.73 1.622,1.622l0 0c0,0.892 -0.729,1.622 -1.622,1.622l0 0c-0.892,0 -1.622,-0.73 -1.622,-1.622l0 0c0,-0.892 0.73,-1.622 1.622,-1.622z"/>
   <path class="fil2" d="M18.202 2.01c0.471,0 0.899,0.192 1.21,0.502 0.31,0.311 0.503,0.739 0.503,1.21 0,0.471 -0.193,0.899 -0.503,1.209 -0.311,0.31 -0.739,0.503 -1.21,0.503 -0.471,0 -0.899,-0.193 -1.209,-0.503 -0.31,-0.31 -0.503,-0.738 -0.503,-1.209 0,-0.471 0.193,-0.899 0.503,-1.21 0.31,-0.31 0.738,-0.502 1.209,-0.502zm0 0.18c-0.421,0 -0.804,0.172 -1.081,0.45 -0.278,0.278 -0.45,0.661 -0.45,1.082 0,0.421 0.172,0.804 0.45,1.082 0.277,0.277 0.66,0.45 1.081,0.45 0.422,0 0.805,-0.173 1.082,-0.45 0.278,-0.278 0.45,-0.661 0.45,-1.082 0,-0.421 -0.172,-0.804 -0.45,-1.082 -0.277,-0.278 -0.66,-0.45 -1.082,-0.45z"/>
   <path class="fil2" d="M16.58 7.802c-0.049,0 -0.09,-0.04 -0.09,-0.09 0,-0.05 0.041,-0.09 0.09,-0.09l3.244 0c0.05,0 0.091,0.04 0.091,0.09 0,0.05 -0.041,0.09 -0.091,0.09l-3.244 0z"/>
   <path class="fil2" d="M15.849 6.806c-0.05,0 -0.09,-0.041 -0.09,-0.09 0,-0.05 0.04,-0.09 0.09,-0.09l4.707 0c0.05,0 0.09,0.04 0.09,0.09 0,0.049 -0.04,0.09 -0.09,0.09l-4.707 0z"/>
   <path class="fil3" d="M25.032 2.1l0 0c0.892,0 1.622,0.73 1.622,1.622l0 0c0,0.892 -0.73,1.622 -1.622,1.622l0 0c-0.892,0 -1.622,-0.73 -1.622,-1.622l0 0c0,-0.892 0.73,-1.622 1.622,-1.622z"/>
   <path class="fil2" d="M25.032 2.01c0.471,0 0.899,0.192 1.209,0.502 0.31,0.311 0.503,0.739 0.503,1.21 0,0.471 -0.193,0.899 -0.503,1.209 -0.31,0.31 -0.738,0.503 -1.209,0.503 -0.471,0 -0.899,-0.193 -1.209,-0.503 -0.311,-0.31 -0.503,-0.738 -0.503,-1.209 0,-0.471 0.192,-0.899 0.503,-1.21 0.31,-0.31 0.738,-0.502 1.209,-0.502zm0 0.18c-0.421,0 -0.804,0.172 -1.082,0.45 -0.278,0.278 -0.45,0.661 -0.45,1.082 0,0.421 0.172,0.804 0.45,1.082 0.278,0.277 0.661,0.45 1.082,0.45 0.421,0 0.804,-0.173 1.082,-0.45 0.277,-0.278 0.45,-0.661 0.45,-1.082 0,-0.421 -0.173,-0.804 -0.45,-1.082 -0.278,-0.278 -0.661,-0.45 -1.082,-0.45z"/>
   <path class="fil2" d="M23.41 7.802c-0.05,0 -0.09,-0.04 -0.09,-0.09 0,-0.05 0.04,-0.09 0.09,-0.09l3.244 0c0.05,0 0.09,0.04 0.09,0.09 0,0.05 -0.04,0.09 -0.09,0.09l-3.244 0z"/>
   <path class="fil2" d="M22.678 6.806c-0.049,0 -0.09,-0.041 -0.09,-0.09 0,-0.05 0.041,-0.09 0.09,-0.09l4.707 0c0.05,0 0.091,0.04 0.091,0.09 0,0.049 -0.041,0.09 -0.091,0.09l-4.707 0z"/>
   <path class="fil3" d="M31.861 2.1l0 0c0.892,0 1.622,0.73 1.622,1.622l0 0c0,0.892 -0.73,1.622 -1.622,1.622l0 0c-0.892,0 -1.622,-0.73 -1.622,-1.622l0 0c0,-0.892 0.73,-1.622 1.622,-1.622z"/>
   <path class="fil2" d="M31.861 2.01c0.471,0 0.899,0.192 1.21,0.502 0.31,0.311 0.502,0.739 0.502,1.21 0,0.471 -0.192,0.899 -0.502,1.209 -0.311,0.31 -0.739,0.503 -1.21,0.503 -0.471,0 -0.899,-0.193 -1.209,-0.503 -0.31,-0.31 -0.503,-0.738 -0.503,-1.209 0,-0.471 0.193,-0.899 0.503,-1.21 0.31,-0.31 0.738,-0.502 1.209,-0.502zm0 0.18c-0.421,0 -0.804,0.172 -1.081,0.45 -0.278,0.278 -0.451,0.661 -0.451,1.082 0,0.421 0.173,0.804 0.451,1.082 0.277,0.277 0.66,0.45 1.081,0.45 0.422,0 0.805,-0.173 1.082,-0.45 0.278,-0.278 0.45,-0.661 0.45,-1.082 0,-0.421 -0.172,-0.804 -0.45,-1.082 -0.277,-0.278 -0.66,-0.45 -1.082,-0.45z"/>
   <path class="fil2" d="M30.239 7.802c-0.049,0 -0.09,-0.04 -0.09,-0.09 0,-0.05 0.041,-0.09 0.09,-0.09l3.244 0c0.05,0 0.09,0.04 0.09,0.09 0,0.05 -0.04,0.09 -0.09,0.09l-3.244 0z"/>
   <path class="fil2" d="M29.508 6.806c-0.05,0 -0.09,-0.041 -0.09,-0.09 0,-0.05 0.04,-0.09 0.09,-0.09l4.707 0c0.05,0 0.09,0.04 0.09,0.09 0,0.049 -0.04,0.09 -0.09,0.09l-4.707 0z"/>
  </g>
 </g>
</svg>
