<?xml version="1.0" encoding="UTF-8"?>
<!DOCTYPE svg PUBLIC "-//W3C//DTD SVG 1.1//EN" "http://www.w3.org/Graphics/SVG/1.1/DTD/svg11.dtd">
<!-- Creator: CorelDRAW 2019 (64-Bit) -->
<svg xmlns="http://www.w3.org/2000/svg" xml:space="preserve" width="99px" height="102px" version="1.1" style="shape-rendering:geometricPrecision; text-rendering:geometricPrecision; image-rendering:optimizeQuality; fill-rule:evenodd; clip-rule:evenodd"
viewBox="0 0 19.154 19.711"
 xmlns:xlink="http://www.w3.org/1999/xlink">
 <defs>
  <style type="text/css">
   <![CDATA[
    .fil2 {fill:#00F4FF}
    .fil1 {fill:gray}
    .fil0 {fill:white}
    .fil3 {fill:gray;fill-rule:nonzero}
   ]]>
  </style>
 </defs>
 <g id="Layer_x0020_1">
  <metadata id="CorelCorpID_0Corel-Layer"/>
  <g id="_3018863240576">
   <path class="fil0" d="M0.592 0.193l17.97 0c0.219,0 0.398,0.179 0.398,0.399l0 18.527c0,0.219 -0.179,0.399 -0.398,0.399l-17.97 0c-0.22,0 -0.399,-0.18 -0.399,-0.399l0 -18.527c0,-0.22 0.179,-0.399 0.399,-0.399z"/>
   <path class="fil1" d="M0.592 0l17.97 0c0.163,0 0.311,0.067 0.418,0.174 0.107,0.107 0.174,0.255 0.174,0.418l0 18.527c0,0.163 -0.067,0.311 -0.174,0.418 -0.107,0.107 -0.255,0.174 -0.418,0.174l-17.97 0c-0.163,0 -0.311,-0.067 -0.418,-0.174 -0.107,-0.107 -0.174,-0.255 -0.174,-0.418l0 -18.527c0,-0.163 0.067,-0.311 0.174,-0.418 0.107,-0.107 0.255,-0.174 0.418,-0.174zm0 0.193l17.97 0c0.219,0 0.398,0.179 0.398,0.399l0 18.527c0,0.219 -0.179,0.399 -0.398,0.399l-17.97 0c-0.22,0 -0.399,-0.18 -0.399,-0.399l0 -18.527c0,-0.22 0.179,-0.399 0.399,-0.399z"/>
   <path class="fil1" d="M4.557 2.9l4.244 0c0.053,0 0.097,0.044 0.097,0.097l0 0c0,0.053 -0.044,0.097 -0.097,0.097l-4.244 0c-0.053,0 -0.097,-0.044 -0.097,-0.097l0 0c0,-0.053 0.044,-0.097 0.097,-0.097z"/>
   <path class="fil1" d="M4.557 1.741l6.227 0c0.053,0 0.097,0.043 0.097,0.097l0 0c0,0.053 -0.044,0.096 -0.097,0.096l-6.227 0c-0.053,0 -0.097,-0.043 -0.097,-0.096l0 0c0,-0.054 0.044,-0.097 0.097,-0.097z"/>
   <path class="fil2" d="M2.004 1.256l1.527 0c0.219,0 0.398,0.179 0.398,0.398l0 1.527c0,0.219 -0.179,0.398 -0.398,0.398l-1.527 0c-0.22,0 -0.399,-0.179 -0.399,-0.398l0 -1.527c0,-0.219 0.179,-0.398 0.399,-0.398z"/>
   <path class="fil3" d="M2.004 1.159l1.527 0c0.136,0 0.26,0.056 0.349,0.145 0.09,0.09 0.146,0.214 0.146,0.35l0 1.527c0,0.136 -0.056,0.26 -0.146,0.349 -0.089,0.09 -0.213,0.146 -0.349,0.146l-1.527 0c-0.137,0 -0.26,-0.056 -0.35,-0.145 -0.09,-0.09 -0.145,-0.214 -0.145,-0.35l0 -1.527c0,-0.136 0.055,-0.26 0.145,-0.35 0.09,-0.089 0.213,-0.145 0.35,-0.145zm1.527 0.193l-1.527 0c-0.083,0 -0.159,0.034 -0.213,0.089 -0.055,0.054 -0.089,0.13 -0.089,0.213l0 1.527c0,0.083 0.034,0.159 0.088,0.213 0.055,0.055 0.131,0.089 0.214,0.089l1.527 0c0.082,0 0.158,-0.034 0.213,-0.089 0.054,-0.054 0.088,-0.13 0.088,-0.213l0 -1.527c0,-0.083 -0.034,-0.159 -0.088,-0.213 -0.055,-0.055 -0.131,-0.089 -0.213,-0.089z"/>
   <path class="fil1" d="M1.695 5.644l4.226 0c0.05,0 0.09,0.04 0.09,0.09l0 0c0,0.049 -0.04,0.09 -0.09,0.09l-4.226 0c-0.049,0 -0.09,-0.041 -0.09,-0.09l0 0c0,-0.05 0.041,-0.09 0.09,-0.09z"/>
   <path class="fil1" d="M1.75 8.322l15.763 0c0.049,0 0.09,0.04 0.09,0.09l0 0c0,0.05 -0.041,0.09 -0.09,0.09l-15.763 0c-0.05,0 -0.09,-0.04 -0.09,-0.09l0 0c0,-0.05 0.04,-0.09 0.09,-0.09z"/>
   <path class="fil1" d="M1.695 11.004l15.763 0c0.05,0 0.09,0.04 0.09,0.09l0 0c0,0.05 -0.04,0.09 -0.09,0.09l-15.763 0c-0.049,0 -0.09,-0.04 -0.09,-0.09l0 0c0,-0.05 0.041,-0.09 0.09,-0.09z"/>
   <path class="fil1" d="M1.695 12.363l15.763 0c0.05,0 0.09,0.04 0.09,0.09l0 0c0,0.05 -0.04,0.09 -0.09,0.09l-15.763 0c-0.049,0 -0.09,-0.04 -0.09,-0.09l0 0c0,-0.05 0.041,-0.09 0.09,-0.09z"/>
   <path class="fil1" d="M1.695 6.982l15.763 0c0.05,0 0.09,0.041 0.09,0.09l0 0c0,0.05 -0.04,0.09 -0.09,0.09l-15.763 0c-0.049,0 -0.09,-0.04 -0.09,-0.09l0 0c0,-0.049 0.041,-0.09 0.09,-0.09z"/>
   <path class="fil1" d="M1.695 9.662l15.763 0c0.05,0 0.09,0.04 0.09,0.09l0 0c0,0.05 -0.04,0.09 -0.09,0.09l-15.763 0c-0.049,0 -0.09,-0.04 -0.09,-0.09l0 0c0,-0.05 0.041,-0.09 0.09,-0.09z"/>
   <path class="fil1" d="M1.695 13.703l11.708 0c0.05,0 0.09,0.04 0.09,0.09l0 0c0,0.049 -0.04,0.09 -0.09,0.09l-11.708 0c-0.049,0 -0.09,-0.041 -0.09,-0.09l0 0c0,-0.05 0.041,-0.09 0.09,-0.09z"/>
   <path class="fil1" d="M1.695 15.934l5.549 0c0.049,0 0.09,0.04 0.09,0.09l0 0c0,0.05 -0.041,0.09 -0.09,0.09l-5.549 0c-0.049,0 -0.09,-0.04 -0.09,-0.09l0 0c0,-0.05 0.041,-0.09 0.09,-0.09z"/>
   <path class="fil1" d="M1.695 17.273l3.683 0c0.049,0 0.09,0.041 0.09,0.09l0 0c0,0.05 -0.041,0.09 -0.09,0.09l-3.683 0c-0.049,0 -0.09,-0.04 -0.09,-0.09l0 0c0,-0.049 0.041,-0.09 0.09,-0.09z"/>
  </g>
 </g>
</svg>
