<?xml version="1.0" encoding="UTF-8"?>
<!DOCTYPE svg PUBLIC "-//W3C//DTD SVG 1.1//EN" "http://www.w3.org/Graphics/SVG/1.1/DTD/svg11.dtd">
<!-- Creator: CorelDRAW 2019 (64-Bit) -->
<svg xmlns="http://www.w3.org/2000/svg" xml:space="preserve" width="202px" height="54px" version="1.1" style="shape-rendering:geometricPrecision; text-rendering:geometricPrecision; image-rendering:optimizeQuality; fill-rule:evenodd; clip-rule:evenodd"
viewBox="0 0 40.446 10.901"
 xmlns:xlink="http://www.w3.org/1999/xlink">
 <defs>
  <style type="text/css">
   <![CDATA[
    .fil2 {fill:#00F4FF}
    .fil1 {fill:gray}
    .fil4 {fill:#EAEDF2}
    .fil0 {fill:white}
    .fil3 {fill:gray;fill-rule:nonzero}
   ]]>
  </style>
 </defs>
 <g id="Layer_x0020_1">
  <metadata id="CorelCorpID_0Corel-Layer"/>
  <g id="_3018866128720">
   <path class="fil0" d="M0.592 0.2l39.263 0c0.215,0 0.391,0.176 0.391,0.392l0 9.717c0,0.216 -0.176,0.392 -0.391,0.392l-39.263 0c-0.216,0 -0.392,-0.176 -0.392,-0.392l0 -9.717c0,-0.216 0.176,-0.392 0.392,-0.392z"/>
   <path class="fil1" d="M0.592 0l39.263 0c0.163,0 0.311,0.067 0.418,0.174 0.107,0.107 0.173,0.255 0.173,0.418l0 9.717c0,0.163 -0.066,0.31 -0.173,0.418l-0.001 0c-0.107,0.107 -0.255,0.174 -0.417,0.174l-39.263 0c-0.163,0 -0.31,-0.067 -0.418,-0.174l0 0c-0.107,-0.107 -0.174,-0.255 -0.174,-0.418l0 -9.717c0,-0.163 0.067,-0.311 0.174,-0.418 0.107,-0.107 0.255,-0.174 0.418,-0.174zm0 0.2l39.263 0c0.215,0 0.391,0.176 0.391,0.392l0 9.717c0,0.216 -0.176,0.392 -0.391,0.392l-39.263 0c-0.216,0 -0.392,-0.176 -0.392,-0.392l0 -9.717c0,-0.216 0.176,-0.392 0.392,-0.392z"/>
   <path class="fil1" d="M10.894 3.892l17.044 0c0.055,0 0.1,0.045 0.1,0.1l0 0c0,0.055 -0.045,0.1 -0.1,0.1l-17.044 0c-0.055,0 -0.1,-0.045 -0.1,-0.1l0 0c0,-0.055 0.045,-0.1 0.1,-0.1z"/>
   <path class="fil1" d="M10.894 6.809l13.554 0c0.055,0 0.1,0.045 0.1,0.1l0 0c0,0.055 -0.045,0.1 -0.1,0.1l-13.554 0c-0.055,0 -0.1,-0.045 -0.1,-0.1l0 0c0,-0.055 0.045,-0.1 0.1,-0.1z"/>
   <path class="fil2" d="M38.444 9.749c-0.581,-0.333 -0.827,-0.665 -0.827,-1.048 0,-0.197 0.185,-0.405 0.413,-0.405 0.207,0 0.31,0.065 0.414,0.244 0.103,-0.179 0.206,-0.244 0.413,-0.244 0.228,0 0.413,0.208 0.413,0.405 0,0.383 -0.246,0.715 -0.826,1.048z"/>
   <path class="fil3" d="M38.394 9.836c-0.302,-0.173 -0.518,-0.348 -0.66,-0.531 -0.149,-0.191 -0.217,-0.39 -0.217,-0.604 0,-0.128 0.061,-0.259 0.159,-0.355 0.091,-0.09 0.216,-0.15 0.354,-0.15 0.122,0 0.215,0.02 0.297,0.069 0.043,0.026 0.081,0.059 0.117,0.1 0.035,-0.041 0.073,-0.074 0.116,-0.1 0.082,-0.049 0.175,-0.069 0.297,-0.069 0.138,0 0.263,0.06 0.355,0.15 0.097,0.096 0.158,0.227 0.158,0.355 0,0.214 -0.068,0.413 -0.217,0.604 -0.142,0.183 -0.358,0.358 -0.66,0.531l-0.049 0.028 -0.05 -0.028zm-0.502 -0.654c0.118,0.153 0.299,0.301 0.552,0.451 0.252,-0.15 0.433,-0.298 0.551,-0.451 0.12,-0.153 0.175,-0.312 0.175,-0.481 0,-0.075 -0.038,-0.153 -0.098,-0.212 -0.057,-0.056 -0.133,-0.093 -0.215,-0.093 -0.085,0 -0.147,0.012 -0.194,0.04 -0.049,0.029 -0.09,0.079 -0.133,0.154l-0.086 0.149 -0.087 -0.149c-0.043,-0.075 -0.084,-0.125 -0.132,-0.154 -0.048,-0.028 -0.109,-0.04 -0.195,-0.04 -0.082,0 -0.158,0.037 -0.214,0.093 -0.061,0.059 -0.099,0.137 -0.099,0.212 0,0.169 0.055,0.328 0.175,0.481z"/>
   <path class="fil4" d="M1.808 1.201l7.285 0c0.333,0 0.607,0.274 0.607,0.607l0 3.642c0,2.337 -1.913,4.25 -4.25,4.25l-3.642 0c-0.333,0 -0.607,-0.274 -0.607,-0.607l0 -7.285c0,-0.333 0.274,-0.607 0.607,-0.607z"/>
   <path class="fil3" d="M1.808 1.101l7.285 0c0.194,0 0.371,0.08 0.499,0.208 0.128,0.128 0.208,0.305 0.208,0.499l0 3.642c0,1.197 -0.49,2.284 -1.278,3.072 -0.788,0.788 -1.875,1.278 -3.072,1.278l-3.642 0c-0.194,0 -0.371,-0.08 -0.499,-0.208 -0.128,-0.128 -0.208,-0.305 -0.208,-0.499l0 -7.285c0,-0.194 0.08,-0.371 0.208,-0.499 0.128,-0.128 0.305,-0.208 0.499,-0.208zm7.285 0.201l-7.285 0c-0.139,0 -0.266,0.057 -0.358,0.148 -0.091,0.092 -0.148,0.219 -0.148,0.358l0 7.285c0,0.139 0.057,0.266 0.148,0.357 0.092,0.092 0.219,0.149 0.358,0.149l3.642 0c1.141,0 2.179,-0.466 2.931,-1.218 0.752,-0.752 1.218,-1.79 1.218,-2.931l0 -3.642c0,-0.139 -0.057,-0.266 -0.148,-0.358 -0.092,-0.091 -0.219,-0.148 -0.358,-0.148z"/>
  </g>
 </g>
</svg>
