<?xml version="1.0" encoding="UTF-8"?>
<!DOCTYPE svg PUBLIC "-//W3C//DTD SVG 1.1//EN" "http://www.w3.org/Graphics/SVG/1.1/DTD/svg11.dtd">
<!-- Creator: CorelDRAW 2019 (64-Bit) -->
<svg xmlns="http://www.w3.org/2000/svg" xml:space="preserve" width="99px" height="102px" version="1.1" style="shape-rendering:geometricPrecision; text-rendering:geometricPrecision; image-rendering:optimizeQuality; fill-rule:evenodd; clip-rule:evenodd"
viewBox="0 0 19.079 19.634"
 xmlns:xlink="http://www.w3.org/1999/xlink">
 <defs>
  <style type="text/css">
   <![CDATA[
    .fil1 {fill:gray}
    .fil2 {fill:#EAEDF2}
    .fil0 {fill:white}
    .fil3 {fill:gray;fill-rule:nonzero}
   ]]>
  </style>
 </defs>
 <g id="Layer_x0020_1">
  <metadata id="CorelCorpID_0Corel-Layer"/>
  <g id="_3018703655280">
   <path class="fil0" d="M0.589 19.442l17.901 0c0.218,0 0.397,-0.179 0.397,-0.397l0 -18.456c0,-0.218 -0.179,-0.396 -0.397,-0.396l-17.901 0c-0.218,0 -0.396,0.178 -0.396,0.396l0 18.456c0,0.218 0.178,0.397 0.396,0.397z"/>
   <path class="fil1" d="M0.589 19.442l17.901 0c0.218,0 0.397,-0.179 0.397,-0.397l0 -18.456c0,-0.218 -0.179,-0.396 -0.397,-0.396l-17.901 0c-0.218,0 -0.396,0.178 -0.396,0.396l0 18.456c0,0.218 0.178,0.397 0.396,0.397zm17.901 0.192l-17.901 0c-0.162,0 -0.309,-0.066 -0.416,-0.173 -0.107,-0.106 -0.173,-0.254 -0.173,-0.416l0 -18.456c0,-0.162 0.066,-0.309 0.173,-0.416 0.107,-0.107 0.254,-0.173 0.416,-0.173l17.901 0c0.162,0 0.309,0.066 0.416,0.173 0.107,0.107 0.173,0.254 0.173,0.416l0 18.456c0,0.162 -0.066,0.31 -0.173,0.416 -0.107,0.107 -0.254,0.173 -0.416,0.173z"/>
   <path class="fil2" d="M1.727 14.991l15.625 0c0.262,0 0.477,-0.215 0.477,-0.477l0 -12.787c0,-0.262 -0.215,-0.476 -0.477,-0.476l-15.625 0c-0.262,0 -0.476,0.214 -0.476,0.476l0 12.787c0,0.262 0.214,0.477 0.476,0.477z"/>
   <path class="fil3" d="M1.727 14.894l15.625 0c0.105,0 0.2,-0.042 0.268,-0.111 0.07,-0.069 0.112,-0.164 0.112,-0.269l0 -12.787c0,-0.104 -0.043,-0.199 -0.112,-0.268 -0.068,-0.069 -0.163,-0.112 -0.268,-0.112l-15.625 0c-0.104,0 -0.199,0.043 -0.268,0.112 -0.069,0.069 -0.112,0.164 -0.112,0.268l0 12.787c0,0.105 0.043,0.2 0.111,0.268 0.07,0.069 0.165,0.112 0.269,0.112zm15.625 0.193l-15.625 0c-0.157,0 -0.301,-0.065 -0.404,-0.168 -0.104,-0.105 -0.169,-0.248 -0.169,-0.405l0 -12.787c0,-0.157 0.065,-0.301 0.169,-0.404 0.103,-0.104 0.247,-0.169 0.404,-0.169l15.625 0c0.157,0 0.3,0.065 0.404,0.169 0.104,0.103 0.169,0.247 0.169,0.404l0 12.787c0,0.157 -0.065,0.3 -0.169,0.404 -0.104,0.104 -0.247,0.169 -0.404,0.169z"/>
   <path class="fil1" d="M1.347 17.938l2.882 0c0.053,0 0.097,-0.044 0.097,-0.097l0 0c0,-0.053 -0.044,-0.096 -0.097,-0.096l-2.882 0c-0.053,0 -0.096,0.043 -0.096,0.096l0 0c0,0.053 0.043,0.097 0.096,0.097z"/>
   <path class="fil1" d="M1.347 16.879l16.385 0c0.053,0 0.097,-0.043 0.097,-0.096l0 0c0,-0.053 -0.044,-0.096 -0.097,-0.096l-16.385 0c-0.053,0 -0.096,0.043 -0.096,0.096l0 0c0,0.053 0.043,0.096 0.096,0.096z"/>
  </g>
 </g>
</svg>
