<?xml version="1.0" encoding="UTF-8"?>
<!DOCTYPE svg PUBLIC "-//W3C//DTD SVG 1.1//EN" "http://www.w3.org/Graphics/SVG/1.1/DTD/svg11.dtd">
<!-- Creator: CorelDRAW 2019 (64-Bit) -->
<svg xmlns="http://www.w3.org/2000/svg" xml:space="preserve" width="142px" height="70px" version="1.1" style="shape-rendering:geometricPrecision; text-rendering:geometricPrecision; image-rendering:optimizeQuality; fill-rule:evenodd; clip-rule:evenodd"
viewBox="0 0 160.031 79.01"
 xmlns:xlink="http://www.w3.org/1999/xlink">
 <defs>
  <style type="text/css">
   <![CDATA[
    .fil2 {fill:#00F4FF}
    .fil1 {fill:gray}
    .fil3 {fill:#EAEDF2}
    .fil0 {fill:white}
    .fil4 {fill:gray;fill-rule:nonzero}
   ]]>
  </style>
 </defs>
 <g id="Layer_x0020_1">
  <metadata id="CorelCorpID_0Corel-Layer"/>
  <g id="_3018839944800">
   <path class="fil0" d="M3.918 1.127l152.196 0c1.535,0 2.79,1.256 2.79,2.791l0 71.174c0,1.535 -1.255,2.791 -2.79,2.791l-152.196 0c-1.535,0 -2.791,-1.256 -2.791,-2.791l0 -71.174c0,-1.535 1.256,-2.791 2.791,-2.791z"/>
   <path class="fil1" d="M3.918 0l152.196 0c1.078,0 2.058,0.441 2.767,1.15 0.709,0.714 1.15,1.693 1.15,2.768l0 71.174c0,1.074 -0.44,2.052 -1.15,2.764l-0.004 0.004c-0.711,0.709 -1.69,1.15 -2.763,1.15l-152.196 0c-1.074,0 -2.052,-0.441 -2.764,-1.15l-0.004 -0.004c-0.709,-0.712 -1.15,-1.69 -1.15,-2.764l0 -71.174c0,-1.075 0.441,-2.054 1.152,-2.766 0.707,-0.711 1.687,-1.152 2.766,-1.152zm0 1.127l152.196 0c1.535,0 2.79,1.256 2.79,2.791l0 71.174c0,1.535 -1.255,2.791 -2.79,2.791l-152.196 0c-1.535,0 -2.791,-1.256 -2.791,-2.791l0 -71.174c0,-1.535 1.256,-2.791 2.791,-2.791z"/>
   <path class="fil2" d="M115.597 57.597l33.729 0c1.549,0 2.816,1.268 2.816,2.818l0 7.889c0,1.549 -1.267,2.817 -2.816,2.817l-33.729 0c-1.55,0 -2.817,-1.268 -2.817,-2.817l0 -7.889c0,-1.55 1.267,-2.818 2.817,-2.818z"/>
   <path class="fil1" d="M115.597 57.597l33.729 0c1.549,0 2.816,1.268 2.816,2.818l0 7.889c0,1.549 -1.267,2.817 -2.816,2.817l-33.729 0c-1.55,0 -2.817,-1.268 -2.817,-2.817l0 -7.889c0,-1.55 1.267,-2.818 2.817,-2.818zm33.729 1.127l-33.729 0c-0.463,0 -0.886,0.191 -1.193,0.498 -0.307,0.304 -0.497,0.727 -0.497,1.193l0 7.889c0,0.466 0.19,0.889 0.495,1.195 0.309,0.304 0.732,0.495 1.195,0.495l33.729 0c0.463,0 0.886,-0.191 1.192,-0.497 0.308,-0.304 0.497,-0.727 0.497,-1.193l0 -7.889c0,-0.466 -0.189,-0.889 -0.495,-1.195 -0.308,-0.305 -0.731,-0.496 -1.194,-0.496z"/>
   <path class="fil1" d="M55.179 24.858l81.736 0c0.31,0 0.563,0.253 0.563,0.563l0 0c0,0.31 -0.253,0.564 -0.563,0.564l-81.736 0c-0.31,0 -0.563,-0.254 -0.563,-0.564l0 0c0,-0.31 0.253,-0.563 0.563,-0.563z"/>
   <path class="fil1" d="M55.179 34.434l81.736 0c0.31,0 0.563,0.253 0.563,0.563l0 0c0,0.311 -0.253,0.564 -0.563,0.564l-81.736 0c-0.31,0 -0.563,-0.253 -0.563,-0.564l0 0c0,-0.31 0.253,-0.563 0.563,-0.563z"/>
   <path class="fil1" d="M55.179 44.01l47.876 0c0.31,0 0.563,0.253 0.563,0.563l0 0c0,0.311 -0.253,0.564 -0.563,0.564l-47.876 0c-0.31,0 -0.563,-0.253 -0.563,-0.564l0 0c0,-0.31 0.253,-0.563 0.563,-0.563z"/>
   <path class="fil3" d="M27.425 18.185l0 0c9.247,0 16.812,7.566 16.812,16.812l0 0.001c0,9.246 -7.565,16.812 -16.812,16.812l0 0c-9.247,0 -16.812,-7.566 -16.812,-16.812l0 -0.001c0,-9.246 7.565,-16.812 16.812,-16.812z"/>
   <path class="fil4" d="M27.425 17.622c4.778,0 9.123,1.955 12.272,5.103 3.149,3.149 5.104,7.494 5.104,12.272 0,4.779 -1.955,9.124 -5.104,12.273 -3.149,3.149 -7.494,5.103 -12.272,5.103 -4.779,0 -9.123,-1.954 -12.272,-5.103 -3.149,-3.149 -5.104,-7.494 -5.104,-12.272 0,-4.779 1.955,-9.124 5.104,-12.273 3.149,-3.148 7.493,-5.103 12.272,-5.103zm0 1.127c-4.468,0 -8.53,1.828 -11.475,4.773 -2.945,2.945 -4.774,7.008 -4.774,11.475 0,4.469 1.829,8.531 4.774,11.476 2.945,2.945 7.007,4.773 11.475,4.773 4.468,0 8.53,-1.828 11.475,-4.773 2.945,-2.945 4.774,-7.007 4.774,-11.475 0,-4.468 -1.829,-8.531 -4.774,-11.476 -2.945,-2.945 -7.007,-4.773 -11.475,-4.773z"/>
  </g>
 </g>
</svg>
