<?xml version="1.0" encoding="UTF-8"?>
<!DOCTYPE svg PUBLIC "-//W3C//DTD SVG 1.1//EN" "http://www.w3.org/Graphics/SVG/1.1/DTD/svg11.dtd">
<!-- Creator: CorelDRAW 2019 (64-Bit) -->
<svg xmlns="http://www.w3.org/2000/svg" xml:space="preserve" width="162px" height="70px" version="1.1" style="shape-rendering:geometricPrecision; text-rendering:geometricPrecision; image-rendering:optimizeQuality; fill-rule:evenodd; clip-rule:evenodd"
viewBox="0 0 169.7 73.327"
 xmlns:xlink="http://www.w3.org/1999/xlink">
 <defs>
  <style type="text/css">
   <![CDATA[
    .fil4 {fill:#00F4FF}
    .fil1 {fill:gray}
    .fil2 {fill:#EAEDF2}
    .fil0 {fill:white}
    .fil3 {fill:gray;fill-rule:nonzero}
   ]]>
  </style>
 </defs>
 <g id="Layer_x0020_1">
  <metadata id="CorelCorpID_0Corel-Layer"/>
  <g id="_3018704150432">
   <path class="fil0" d="M3.139 1.048l163.422 0c1.151,0 2.092,0.941 2.092,2.091l0 67.049c0,1.151 -0.941,2.092 -2.092,2.092l-163.422 0c-1.15,0 -2.091,-0.941 -2.091,-2.092l0 -67.049c0,-1.15 0.941,-2.091 2.091,-2.091z"/>
   <path class="fil1" d="M3.139 0l163.422 0c0.861,0 1.646,0.354 2.216,0.923 0.57,0.567 0.923,1.352 0.923,2.216l0 67.049c0,0.86 -0.353,1.644 -0.921,2.214l-0.004 0.004c-0.57,0.568 -1.354,0.921 -2.214,0.921l-163.422 0c-0.86,0 -1.644,-0.353 -2.214,-0.921l-0.004 -0.004c-0.568,-0.57 -0.921,-1.354 -0.921,-2.214l0 -67.049c0,-0.864 0.353,-1.649 0.921,-2.218 0.573,-0.567 1.357,-0.921 2.218,-0.921zm0 1.048l163.422 0c1.151,0 2.092,0.941 2.092,2.091l0 67.049c0,1.151 -0.941,2.092 -2.092,2.092l-163.422 0c-1.15,0 -2.091,-0.941 -2.091,-2.092l0 -67.049c0,-1.15 0.941,-2.091 2.091,-2.091z"/>
   <path class="fil2" d="M94.227 51.329l43.232 0c1.44,0 2.619,1.179 2.619,2.619l0 7.333c0,1.44 -1.179,2.619 -2.619,2.619l-43.232 0c-1.441,0 -2.619,-1.179 -2.619,-2.619l0 -7.333c0,-1.44 1.178,-2.619 2.619,-2.619z"/>
   <path class="fil3" d="M94.227 50.806l43.232 0c0.865,0 1.651,0.353 2.22,0.922 0.569,0.569 0.922,1.356 0.922,2.22l0 7.333c0,0.863 -0.353,1.649 -0.922,2.218 -0.571,0.571 -1.357,0.924 -2.22,0.924l-43.232 0c-0.863,0 -1.649,-0.353 -2.218,-0.922 -0.571,-0.571 -0.925,-1.357 -0.925,-2.22l0 -7.333c0,-0.864 0.354,-1.651 0.923,-2.22 0.569,-0.569 1.355,-0.922 2.22,-0.922zm43.232 1.047l-43.232 0c-0.576,0 -1.1,0.236 -1.48,0.616 -0.379,0.379 -0.615,0.904 -0.615,1.479l0 7.333c0,0.576 0.236,1.101 0.615,1.48 0.379,0.379 0.903,0.615 1.48,0.615l43.232 0c0.576,0 1.101,-0.236 1.48,-0.615 0.379,-0.379 0.615,-0.904 0.615,-1.48l0 -7.333c0,-0.575 -0.236,-1.1 -0.616,-1.479 -0.379,-0.38 -0.903,-0.616 -1.479,-0.616z"/>
   <path class="fil1" d="M92.132 21.54l67.617 0c0.288,0 0.523,0.235 0.523,0.524l0 0c0,0.288 -0.235,0.523 -0.523,0.523l-67.617 0c-0.288,0 -0.524,-0.235 -0.524,-0.523l0 0c0,-0.289 0.236,-0.524 0.524,-0.524z"/>
   <path class="fil1" d="M92.132 12.046l67.617 0c0.288,0 0.523,0.236 0.523,0.524l0 0c0,0.288 -0.235,0.524 -0.523,0.524l-67.617 0c-0.288,0 -0.524,-0.236 -0.524,-0.524l0 0c0,-0.288 0.236,-0.524 0.524,-0.524z"/>
   <path class="fil1" d="M92.132 30.441l67.617 0c0.288,0 0.523,0.235 0.523,0.524l0 0c0,0.288 -0.235,0.524 -0.523,0.524l-67.617 0c-0.288,0 -0.524,-0.236 -0.524,-0.524l0 0c0,-0.289 0.236,-0.524 0.524,-0.524z"/>
   <path class="fil1" d="M92.132 39.342l39.559 0c0.288,0 0.523,0.235 0.523,0.524l0 0c0,0.288 -0.235,0.524 -0.523,0.524l-39.559 0c-0.288,0 -0.524,-0.236 -0.524,-0.524l0 0c0,-0.289 0.236,-0.524 0.524,-0.524z"/>
   <path class="fil2" d="M11.361 9.428l69.461 0c1.063,0 1.933,0.87 1.933,1.933l0 50.606c0,1.063 -0.87,1.933 -1.933,1.933l-69.461 0c-1.063,0 -1.933,-0.87 -1.933,-1.933l0 -50.606c0,-1.063 0.87,-1.933 1.933,-1.933z"/>
   <path class="fil3" d="M11.361 8.904l69.461 0c0.676,0 1.29,0.276 1.735,0.722 0.446,0.445 0.722,1.059 0.722,1.735l0 50.606c0,0.676 -0.276,1.29 -0.722,1.735 -0.445,0.445 -1.059,0.721 -1.735,0.721l-69.461 0c-0.676,0 -1.291,-0.276 -1.736,-0.721 -0.445,-0.445 -0.721,-1.059 -0.721,-1.735l0 -50.606c0,-0.676 0.276,-1.29 0.721,-1.735 0.445,-0.446 1.06,-0.722 1.736,-0.722zm69.461 1.048l-69.461 0c-0.387,0 -0.74,0.159 -0.995,0.414 -0.256,0.255 -0.414,0.608 -0.414,0.995l0 50.606c0,0.387 0.158,0.739 0.414,0.995 0.255,0.255 0.608,0.414 0.995,0.414l69.461 0c0.387,0 0.74,-0.159 0.995,-0.414 0.255,-0.256 0.414,-0.608 0.414,-0.995l0 -50.606c0,-0.387 -0.159,-0.74 -0.414,-0.995 -0.255,-0.255 -0.608,-0.414 -0.995,-0.414z"/>
   <path class="fil4" d="M155.95 63.9c-3.037,-1.744 -4.322,-3.48 -4.322,-5.482 0,-1.032 0.968,-2.121 2.161,-2.121 1.081,0 1.621,0.341 2.161,1.275 0.54,-0.934 1.081,-1.275 2.161,-1.275 1.193,0 2.161,1.089 2.161,2.121 0,2.002 -1.285,3.738 -4.322,5.482z"/>
   <path class="fil3" d="M155.69 64.354c-1.579,-0.907 -2.711,-1.821 -3.453,-2.777 -0.777,-1 -1.133,-2.04 -1.133,-3.159 0,-0.672 0.318,-1.357 0.828,-1.858 0.48,-0.47 1.134,-0.787 1.857,-0.787 0.636,0 1.125,0.108 1.551,0.363 0.227,0.136 0.426,0.308 0.61,0.522 0.185,-0.214 0.384,-0.386 0.61,-0.522 0.427,-0.255 0.916,-0.363 1.551,-0.363 0.723,0 1.377,0.317 1.857,0.787 0.51,0.501 0.828,1.186 0.828,1.858 0,1.118 -0.356,2.159 -1.132,3.159 -0.743,0.956 -1.874,1.87 -3.454,2.777l-0.26 0.149 -0.26 -0.149zm-2.627 -3.42c0.619,0.797 1.567,1.575 2.887,2.36 1.32,-0.785 2.268,-1.563 2.887,-2.36 0.625,-0.804 0.912,-1.633 0.912,-2.516 0,-0.392 -0.198,-0.803 -0.513,-1.113 -0.295,-0.29 -0.692,-0.485 -1.125,-0.485 -0.445,0 -0.766,0.063 -1.015,0.212 -0.253,0.151 -0.468,0.412 -0.694,0.802l-0.452 0.782 -0.452 -0.782c-0.225,-0.39 -0.441,-0.651 -0.694,-0.802 -0.248,-0.149 -0.57,-0.212 -1.015,-0.212 -0.432,0 -0.829,0.195 -1.124,0.485 -0.316,0.31 -0.514,0.721 -0.514,1.113 0,0.883 0.287,1.712 0.912,2.516z"/>
  </g>
 </g>
</svg>
