<?xml version="1.0" encoding="UTF-8"?>
<!DOCTYPE svg PUBLIC "-//W3C//DTD SVG 1.1//EN" "http://www.w3.org/Graphics/SVG/1.1/DTD/svg11.dtd">
<!-- Creator: CorelDRAW 2019 (64-Bit) -->
<svg xmlns="http://www.w3.org/2000/svg" xml:space="preserve" width="142px" height="70px" version="1.1" style="shape-rendering:geometricPrecision; text-rendering:geometricPrecision; image-rendering:optimizeQuality; fill-rule:evenodd; clip-rule:evenodd"
viewBox="0 0 160.031 79.01"
 xmlns:xlink="http://www.w3.org/1999/xlink">
 <defs>
  <style type="text/css">
   <![CDATA[
    .fil1 {fill:gray}
    .fil2 {fill:#EAEDF2}
    .fil0 {fill:white}
    .fil3 {fill:gray;fill-rule:nonzero}
   ]]>
  </style>
 </defs>
 <g id="Layer_x0020_1">
  <metadata id="CorelCorpID_0Corel-Layer"/>
  <g id="_3018837786864">
   <path class="fil0" d="M3.918 1.127l152.196 0c1.535,0 2.79,1.256 2.79,2.791l0 71.174c0,1.535 -1.255,2.791 -2.79,2.791l-152.196 0c-1.535,0 -2.791,-1.256 -2.791,-2.791l0 -71.174c0,-1.535 1.256,-2.791 2.791,-2.791z"/>
   <path class="fil1" d="M3.918 0l152.196 0c1.073,0 2.052,0.441 2.763,1.15l0.004 0.004c0.71,0.712 1.15,1.69 1.15,2.764l0 71.174c0,1.074 -0.44,2.052 -1.15,2.764l-0.004 0.004c-0.711,0.709 -1.69,1.15 -2.763,1.15l-152.196 0c-1.074,0 -2.052,-0.441 -2.764,-1.15l-0.004 -0.004c-0.709,-0.712 -1.15,-1.69 -1.15,-2.764l0 -71.174c0,-1.074 0.441,-2.052 1.15,-2.764l0.004 -0.004c0.712,-0.709 1.69,-1.15 2.764,-1.15zm0 1.127l152.196 0c1.535,0 2.79,1.256 2.79,2.791l0 71.174c0,1.535 -1.255,2.791 -2.79,2.791l-152.196 0c-1.535,0 -2.791,-1.256 -2.791,-2.791l0 -71.174c0,-1.535 1.256,-2.791 2.791,-2.791z"/>
   <path class="fil2" d="M10.859 8.159l57.171 0c1.633,0 2.97,1.336 2.97,2.97l0 56.752c0,1.634 -1.337,2.97 -2.97,2.97l-57.171 0c-1.634,0 -2.97,-1.336 -2.97,-2.97l0 -56.752c0,-1.634 1.336,-2.97 2.97,-2.97z"/>
   <path class="fil3" d="M10.859 7.595l57.171 0c0.972,0 1.856,0.398 2.496,1.038 0.639,0.642 1.037,1.525 1.037,2.496l0 56.752c0,0.971 -0.398,1.854 -1.037,2.494 -0.64,0.642 -1.524,1.04 -2.496,1.04l-57.171 0c-0.972,0 -1.856,-0.398 -2.496,-1.038 -0.64,-0.642 -1.038,-1.525 -1.038,-2.496l0 -56.752c0,-0.972 0.398,-1.856 1.038,-2.496 0.64,-0.64 1.524,-1.038 2.496,-1.038zm57.171 1.127l-57.171 0c-0.661,0 -1.263,0.271 -1.699,0.707 -0.437,0.437 -0.708,1.039 -0.708,1.7l0 56.752c0,0.662 0.271,1.265 0.707,1.701 0.437,0.435 1.039,0.706 1.7,0.706l57.171 0c0.661,0 1.263,-0.271 1.699,-0.707 0.436,-0.435 0.707,-1.038 0.707,-1.7l0 -56.752c0,-0.662 -0.271,-1.264 -0.706,-1.7 -0.437,-0.436 -1.039,-0.707 -1.7,-0.707z"/>
   <path class="fil1" d="M78.287 20.523l73.33 0c0.289,0 0.525,0.236 0.525,0.526l0 0c0,0.29 -0.236,0.526 -0.525,0.526l-73.33 0c-0.289,0 -0.526,-0.236 -0.526,-0.526l0 0c0,-0.29 0.237,-0.526 0.526,-0.526z"/>
   <path class="fil1" d="M78.287 39.966l73.33 0c0.289,0 0.525,0.237 0.525,0.526l0 0c0,0.29 -0.236,0.526 -0.525,0.526l-73.33 0c-0.289,0 -0.526,-0.236 -0.526,-0.526l0 0c0,-0.289 0.237,-0.526 0.526,-0.526z"/>
   <path class="fil1" d="M78.287 48.701l73.33 0c0.289,0 0.525,0.236 0.525,0.525l0 0.001c0,0.289 -0.236,0.525 -0.525,0.525l-73.33 0c-0.289,0 -0.526,-0.236 -0.526,-0.525l0 -0.001c0,-0.289 0.237,-0.525 0.526,-0.525z"/>
   <path class="fil1" d="M78.287 57.435l49.527 0c0.29,0 0.526,0.236 0.526,0.526l0 0c0,0.289 -0.236,0.526 -0.526,0.526l-49.527 0c-0.289,0 -0.526,-0.237 -0.526,-0.526l0 0c0,-0.29 0.237,-0.526 0.526,-0.526z"/>
  </g>
 </g>
</svg>
