<?xml version="1.0" encoding="UTF-8"?>
<!DOCTYPE svg PUBLIC "-//W3C//DTD SVG 1.1//EN" "http://www.w3.org/Graphics/SVG/1.1/DTD/svg11.dtd">
<!-- Creator: CorelDRAW 2019 (64-Bit) -->
<svg xmlns="http://www.w3.org/2000/svg" xml:space="preserve" width="99px" height="102px" version="1.1" style="shape-rendering:geometricPrecision; text-rendering:geometricPrecision; image-rendering:optimizeQuality; fill-rule:evenodd; clip-rule:evenodd"
viewBox="0 0 14.419 14.838"
 xmlns:xlink="http://www.w3.org/1999/xlink">
 <defs>
  <style type="text/css">
   <![CDATA[
    .fil4 {fill:#00F4FF}
    .fil1 {fill:gray}
    .fil2 {fill:#EAEDF2}
    .fil0 {fill:white}
    .fil3 {fill:gray;fill-rule:nonzero}
   ]]>
  </style>
 </defs>
 <g id="Layer_x0020_1">
  <metadata id="CorelCorpID_0Corel-Layer"/>
  <g id="_3019128969808">
   <path class="fil0" d="M0.445 14.693l13.528 0c0.165,0 0.3,-0.135 0.3,-0.3l0 -13.948c0,-0.165 -0.135,-0.3 -0.3,-0.3l-13.528 0c-0.165,0 -0.3,0.135 -0.3,0.3l0 13.948c0,0.165 0.135,0.3 0.3,0.3z"/>
   <path class="fil1" d="M0.445 14.693l13.528 0c0.165,0 0.3,-0.135 0.3,-0.3l0 -13.948c0,-0.165 -0.135,-0.3 -0.3,-0.3l-13.528 0c-0.165,0 -0.3,0.135 -0.3,0.3l0 13.948c0,0.165 0.135,0.3 0.3,0.3zm13.528 0.145l-13.528 0c-0.122,0 -0.234,-0.05 -0.314,-0.13 -0.081,-0.081 -0.131,-0.192 -0.131,-0.315l0 -13.948c0,-0.122 0.05,-0.234 0.131,-0.314 0.08,-0.081 0.192,-0.131 0.314,-0.131l13.528 0c0.123,0 0.234,0.05 0.315,0.131 0.081,0.08 0.131,0.192 0.131,0.314l0 13.948c0,0.123 -0.05,0.234 -0.131,0.315 -0.081,0.08 -0.192,0.13 -0.315,0.13z"/>
   <path class="fil2" d="M1.245 9.587l11.929 0c0.165,0 0.3,-0.135 0.3,-0.3l0 -8.042c0,-0.165 -0.135,-0.3 -0.3,-0.3l-11.929 0c-0.165,0 -0.3,0.135 -0.3,0.3l0 8.042c0,0.165 0.135,0.3 0.3,0.3z"/>
   <path class="fil3" d="M1.245 9.514l11.929 0c0.062,0 0.119,-0.026 0.16,-0.067 0.041,-0.041 0.067,-0.098 0.067,-0.16l0 -8.042c0,-0.062 -0.026,-0.119 -0.067,-0.16 -0.041,-0.041 -0.098,-0.067 -0.16,-0.067l-11.929 0c-0.062,0 -0.119,0.026 -0.16,0.067 -0.041,0.041 -0.067,0.098 -0.067,0.16l0 8.042c0,0.062 0.026,0.119 0.067,0.16 0.041,0.041 0.098,0.067 0.16,0.067zm11.929 0.145l-11.929 0c-0.102,0 -0.196,-0.042 -0.263,-0.109 -0.068,-0.068 -0.11,-0.161 -0.11,-0.263l0 -8.042c0,-0.102 0.042,-0.196 0.11,-0.263 0.067,-0.068 0.161,-0.11 0.263,-0.11l11.929 0c0.102,0 0.195,0.042 0.263,0.11 0.067,0.067 0.109,0.161 0.109,0.263l0 8.042c0,0.102 -0.042,0.195 -0.109,0.263 -0.068,0.067 -0.161,0.109 -0.263,0.109z"/>
   <path class="fil1" d="M1.018 11.338l2.178 0c0.04,0 0.073,-0.033 0.073,-0.073l0 0c0,-0.04 -0.033,-0.073 -0.073,-0.073l-2.178 0c-0.04,0 -0.073,0.033 -0.073,0.073l0 0c0,0.04 0.033,0.073 0.073,0.073z"/>
   <path class="fil1" d="M1.018 10.538l12.383 0c0.04,0 0.073,-0.033 0.073,-0.073l0 0c0,-0.04 -0.033,-0.072 -0.073,-0.072l-12.383 0c-0.04,0 -0.073,0.032 -0.073,0.072l0 0c0,0.04 0.033,0.073 0.073,0.073z"/>
   <path class="fil1" d="M3.167 12.719l3.195 0c0.04,0 0.073,-0.032 0.073,-0.072l0 0c0,-0.04 -0.033,-0.073 -0.073,-0.073l-3.195 0c-0.04,0 -0.073,0.033 -0.073,0.073l0 0c0,0.04 0.033,0.072 0.073,0.072z"/>
   <path class="fil1" d="M3.167 13.417l4.688 0c0.04,0 0.073,-0.032 0.073,-0.072l0 0c0,-0.041 -0.033,-0.073 -0.073,-0.073l-4.688 0c-0.04,0 -0.073,0.032 -0.073,0.073l0 0c0,0.04 0.033,0.072 0.073,0.072z"/>
   <path class="fil4" d="M1.82 13.893l0 0c0.481,0 0.874,-0.393 0.874,-0.874l0 -0.001c0,-0.481 -0.393,-0.874 -0.874,-0.874l0 0c-0.481,0 -0.875,0.393 -0.875,0.874l0 0.001c0,0.481 0.394,0.874 0.875,0.874z"/>
   <path class="fil3" d="M1.82 13.82c0.22,0 0.421,-0.09 0.566,-0.235 0.146,-0.145 0.236,-0.346 0.236,-0.566 0,-0.221 -0.091,-0.421 -0.236,-0.567 -0.145,-0.145 -0.346,-0.235 -0.566,-0.235 -0.221,0 -0.421,0.09 -0.567,0.235 -0.145,0.146 -0.235,0.346 -0.235,0.566 0,0.221 0.09,0.422 0.235,0.567 0.146,0.145 0.346,0.235 0.567,0.235zm0 0.146c-0.261,0 -0.498,-0.107 -0.669,-0.278 -0.172,-0.172 -0.279,-0.409 -0.279,-0.669 0,-0.261 0.107,-0.498 0.279,-0.67 0.172,-0.171 0.408,-0.278 0.669,-0.278 0.26,0 0.497,0.107 0.669,0.278 0.172,0.172 0.278,0.409 0.278,0.669 0,0.261 -0.106,0.498 -0.278,0.669 -0.172,0.172 -0.409,0.279 -0.669,0.279z"/>
  </g>
 </g>
</svg>
