<?xml version="1.0" encoding="UTF-8"?>
<!DOCTYPE svg PUBLIC "-//W3C//DTD SVG 1.1//EN" "http://www.w3.org/Graphics/SVG/1.1/DTD/svg11.dtd">
<!-- Creator: CorelDRAW 2019 (64-Bit) -->
<svg xmlns="http://www.w3.org/2000/svg" xml:space="preserve" width="202px" height="54px" version="1.1" style="shape-rendering:geometricPrecision; text-rendering:geometricPrecision; image-rendering:optimizeQuality; fill-rule:evenodd; clip-rule:evenodd"
viewBox="0 0 24.503 6.604"
 xmlns:xlink="http://www.w3.org/1999/xlink">
 <defs>
  <style type="text/css">
   <![CDATA[
    .fil2 {fill:#00F4FF}
    .fil1 {fill:gray}
    .fil4 {fill:#EAEDF2}
    .fil0 {fill:white}
    .fil3 {fill:gray;fill-rule:nonzero}
   ]]>
  </style>
 </defs>
 <g id="Layer_x0020_1">
  <metadata id="CorelCorpID_0Corel-Layer"/>
  <g id="_3019127037888">
   <path class="fil0" d="M0.358 0.121l23.786 0c0.131,0 0.237,0.107 0.237,0.237l0 5.887c0,0.131 -0.106,0.237 -0.237,0.237l-23.786 0c-0.13,0 -0.237,-0.106 -0.237,-0.237l0 -5.887c0,-0.13 0.107,-0.237 0.237,-0.237z"/>
   <path class="fil1" d="M0.358 0l23.786 0c0.099,0 0.188,0.04 0.253,0.105 0.065,0.065 0.106,0.155 0.106,0.253l0 5.887c0,0.099 -0.041,0.188 -0.106,0.253l0 0.001c-0.065,0.064 -0.154,0.105 -0.253,0.105l-23.786 0c-0.098,0 -0.187,-0.041 -0.252,-0.105l-0.001 0c-0.065,-0.065 -0.105,-0.155 -0.105,-0.254l0 -5.887c0,-0.098 0.04,-0.188 0.105,-0.253 0.065,-0.065 0.155,-0.105 0.253,-0.105zm0 0.121l23.786 0c0.131,0 0.237,0.107 0.237,0.237l0 5.887c0,0.131 -0.106,0.237 -0.237,0.237l-23.786 0c-0.13,0 -0.237,-0.106 -0.237,-0.237l0 -5.887c0,-0.13 0.107,-0.237 0.237,-0.237z"/>
   <path class="fil1" d="M6.6 2.358l10.325 0c0.033,0 0.061,0.027 0.061,0.06l0 0c0,0.034 -0.028,0.061 -0.061,0.061l-10.325 0c-0.034,0 -0.061,-0.027 -0.061,-0.061l0 0c0,-0.033 0.027,-0.06 0.061,-0.06z"/>
   <path class="fil1" d="M6.6 4.125l8.21 0c0.034,0 0.061,0.027 0.061,0.06l0 0c0,0.034 -0.027,0.061 -0.061,0.061l-8.21 0c-0.034,0 -0.061,-0.027 -0.061,-0.061l0 0c0,-0.033 0.027,-0.06 0.061,-0.06z"/>
   <path class="fil2" d="M23.289 5.906c-0.351,-0.202 -0.5,-0.403 -0.5,-0.635 0,-0.119 0.112,-0.245 0.25,-0.245 0.125,0 0.188,0.039 0.25,0.147 0.063,-0.108 0.125,-0.147 0.25,-0.147 0.139,0 0.251,0.126 0.251,0.245 0,0.232 -0.149,0.433 -0.501,0.635z"/>
   <path class="fil3" d="M23.259 5.959c-0.183,-0.105 -0.314,-0.211 -0.4,-0.322 -0.09,-0.116 -0.131,-0.236 -0.131,-0.366 0,-0.077 0.037,-0.157 0.096,-0.215 0.056,-0.054 0.131,-0.091 0.215,-0.091 0.074,0 0.13,0.013 0.18,0.042 0.026,0.016 0.049,0.036 0.07,0.061 0.022,-0.025 0.045,-0.045 0.071,-0.061 0.049,-0.03 0.106,-0.042 0.179,-0.042 0.084,0 0.16,0.037 0.215,0.091 0.06,0.058 0.096,0.138 0.096,0.215 0,0.13 -0.041,0.25 -0.131,0.366 -0.086,0.111 -0.217,0.217 -0.4,0.322l-0.03 0.017 -0.03 -0.017zm-0.304 -0.396c0.072,0.092 0.181,0.182 0.334,0.273 0.153,-0.091 0.263,-0.181 0.335,-0.273 0.072,-0.093 0.105,-0.189 0.105,-0.292 0,-0.045 -0.023,-0.093 -0.059,-0.129 -0.034,-0.033 -0.08,-0.056 -0.131,-0.056 -0.051,0 -0.088,0.008 -0.117,0.025 -0.029,0.017 -0.054,0.048 -0.08,0.093l-0.053 0.09 -0.052 -0.09c-0.026,-0.045 -0.051,-0.076 -0.08,-0.093 -0.029,-0.017 -0.066,-0.025 -0.118,-0.025 -0.05,0 -0.096,0.023 -0.13,0.056 -0.037,0.036 -0.06,0.084 -0.06,0.129 0,0.103 0.034,0.199 0.106,0.292z"/>
   <path class="fil4" d="M1.096 5.876l4.412 0c0.203,0 0.368,-0.166 0.368,-0.368l0 -2.206c0,-1.416 -1.158,-2.574 -2.574,-2.574l-2.206 0c-0.203,0 -0.368,0.165 -0.368,0.367l0 4.413c0,0.202 0.165,0.368 0.368,0.368z"/>
   <path class="fil3" d="M1.096 5.815l4.412 0c0.085,0 0.161,-0.034 0.217,-0.09 0.056,-0.056 0.09,-0.132 0.09,-0.217l0 -2.206c0,-0.691 -0.282,-1.32 -0.738,-1.775 -0.456,-0.456 -1.084,-0.739 -1.775,-0.739l-2.206 0c-0.085,0 -0.162,0.035 -0.217,0.091 -0.056,0.055 -0.091,0.132 -0.091,0.216l0 4.413c0,0.085 0.035,0.161 0.091,0.217 0.055,0.056 0.132,0.09 0.217,0.09zm4.412 0.122l-4.412 0c-0.118,0 -0.225,-0.049 -0.303,-0.126 -0.078,-0.078 -0.126,-0.185 -0.126,-0.303l0 -4.413c0,-0.117 0.048,-0.224 0.126,-0.302 0.078,-0.078 0.185,-0.126 0.303,-0.126l2.206 0c0.725,0 1.383,0.297 1.861,0.774 0.477,0.478 0.774,1.136 0.774,1.861l0 2.206c0,0.118 -0.049,0.225 -0.126,0.303 -0.078,0.077 -0.185,0.126 -0.303,0.126z"/>
  </g>
 </g>
</svg>
