<?xml version="1.0" encoding="UTF-8"?>
<!DOCTYPE svg PUBLIC "-//W3C//DTD SVG 1.1//EN" "http://www.w3.org/Graphics/SVG/1.1/DTD/svg11.dtd">
<!-- Creator: CorelDRAW 2019 (64-Bit) -->
<svg xmlns="http://www.w3.org/2000/svg" xml:space="preserve" width="99px" height="102px" version="1.1" style="shape-rendering:geometricPrecision; text-rendering:geometricPrecision; image-rendering:optimizeQuality; fill-rule:evenodd; clip-rule:evenodd"
viewBox="0 0 14.419 14.838"
 xmlns:xlink="http://www.w3.org/1999/xlink">
 <defs>
  <style type="text/css">
   <![CDATA[
    .fil1 {fill:gray}
    .fil2 {fill:#EAEDF2}
    .fil0 {fill:white}
    .fil3 {fill:gray;fill-rule:nonzero}
   ]]>
  </style>
 </defs>
 <g id="Layer_x0020_1">
  <metadata id="CorelCorpID_0Corel-Layer"/>
  <g id="_3018710454656">
   <path class="fil0" d="M0.445 0.145l13.528 0c0.165,0 0.3,0.135 0.3,0.3l0 13.948c0,0.165 -0.135,0.3 -0.3,0.3l-13.528 0c-0.165,0 -0.3,-0.135 -0.3,-0.3l0 -13.948c0,-0.165 0.135,-0.3 0.3,-0.3z"/>
   <path class="fil1" d="M0.445 0l13.528 0c0.123,0 0.234,0.05 0.315,0.131 0.081,0.08 0.131,0.192 0.131,0.314l0 13.948c0,0.123 -0.05,0.234 -0.131,0.315 -0.081,0.08 -0.192,0.13 -0.315,0.13l-13.528 0c-0.122,0 -0.234,-0.05 -0.314,-0.13 -0.081,-0.081 -0.131,-0.192 -0.131,-0.315l0 -13.948c0,-0.122 0.05,-0.234 0.131,-0.314 0.08,-0.081 0.192,-0.131 0.314,-0.131zm0 0.145l13.528 0c0.165,0 0.3,0.135 0.3,0.3l0 13.948c0,0.165 -0.135,0.3 -0.3,0.3l-13.528 0c-0.165,0 -0.3,-0.135 -0.3,-0.3l0 -13.948c0,-0.165 0.135,-0.3 0.3,-0.3z"/>
   <path class="fil2" d="M1.309 1.018l2.473 0c0.16,0 0.291,0.131 0.291,0.291l0 2.473c0,0.16 -0.131,0.291 -0.291,0.291l-2.473 0c-0.16,0 -0.291,-0.131 -0.291,-0.291l0 -2.473c0,-0.16 0.131,-0.291 0.291,-0.291z"/>
   <path class="fil3" d="M1.309 0.946l2.473 0c0.1,0 0.191,0.041 0.257,0.106 0.066,0.066 0.107,0.157 0.107,0.257l0 2.473c0,0.1 -0.041,0.191 -0.107,0.257 -0.066,0.066 -0.157,0.107 -0.257,0.107l-2.473 0c-0.1,0 -0.191,-0.041 -0.257,-0.107 -0.065,-0.066 -0.106,-0.157 -0.106,-0.257l0 -2.473c0,-0.1 0.041,-0.191 0.106,-0.257 0.066,-0.065 0.157,-0.106 0.257,-0.106zm2.473 0.145l-2.473 0c-0.06,0 -0.114,0.025 -0.154,0.064 -0.039,0.04 -0.064,0.094 -0.064,0.154l0 2.473c0,0.06 0.025,0.115 0.064,0.154 0.04,0.04 0.094,0.064 0.154,0.064l2.473 0c0.06,0 0.115,-0.024 0.154,-0.064 0.04,-0.039 0.064,-0.094 0.064,-0.154l0 -2.473c0,-0.06 -0.024,-0.114 -0.064,-0.154 -0.039,-0.039 -0.094,-0.064 -0.154,-0.064z"/>
   <path class="fil3" d="M4.772 3.268c-0.041,0 -0.073,-0.033 -0.073,-0.073 0,-0.04 0.032,-0.073 0.073,-0.073l5.834 0c0.04,0 0.072,0.033 0.072,0.073 0,0.04 -0.032,0.073 -0.072,0.073l-5.834 0z"/>
   <path class="fil3" d="M4.772 2.049c-0.041,0 -0.073,-0.032 -0.073,-0.073 0,-0.04 0.032,-0.072 0.073,-0.072l7.574 0c0.04,0 0.073,0.032 0.073,0.072 0,0.041 -0.033,0.073 -0.073,0.073l-7.574 0z"/>
   <path class="fil2" d="M1.309 5.892l2.473 0c0.16,0 0.291,0.131 0.291,0.291l0 2.473c0,0.16 -0.131,0.291 -0.291,0.291l-2.473 0c-0.16,0 -0.291,-0.131 -0.291,-0.291l0 -2.473c0,-0.16 0.131,-0.291 0.291,-0.291z"/>
   <path class="fil3" d="M1.309 5.819l2.473 0c0.1,0 0.191,0.041 0.257,0.107 0.066,0.066 0.107,0.157 0.107,0.257l0 2.473c0,0.1 -0.041,0.191 -0.107,0.257 -0.066,0.065 -0.157,0.106 -0.257,0.106l-2.473 0c-0.1,0 -0.191,-0.041 -0.257,-0.106 -0.065,-0.066 -0.106,-0.157 -0.106,-0.257l0 -2.473c0,-0.1 0.041,-0.191 0.106,-0.257 0.066,-0.066 0.157,-0.107 0.257,-0.107zm2.473 0.145l-2.473 0c-0.06,0 -0.114,0.025 -0.154,0.064 -0.039,0.04 -0.064,0.095 -0.064,0.155l0 2.473c0,0.06 0.025,0.114 0.064,0.154 0.04,0.039 0.094,0.064 0.154,0.064l2.473 0c0.06,0 0.115,-0.025 0.154,-0.064 0.04,-0.04 0.064,-0.094 0.064,-0.154l0 -2.473c0,-0.06 -0.024,-0.115 -0.064,-0.155 -0.039,-0.039 -0.094,-0.064 -0.154,-0.064z"/>
   <path class="fil3" d="M4.772 8.141c-0.041,0 -0.073,-0.032 -0.073,-0.072 0,-0.041 0.032,-0.073 0.073,-0.073l5.834 0c0.04,0 0.072,0.032 0.072,0.073 0,0.04 -0.032,0.072 -0.072,0.072l-5.834 0z"/>
   <path class="fil3" d="M4.772 6.923c-0.041,0 -0.073,-0.033 -0.073,-0.073 0,-0.04 0.032,-0.073 0.073,-0.073l7.574 0c0.04,0 0.073,0.033 0.073,0.073 0,0.04 -0.033,0.073 -0.073,0.073l-7.574 0z"/>
   <path class="fil2" d="M1.309 10.765l2.473 0c0.16,0 0.291,0.131 0.291,0.291l0 2.473c0,0.16 -0.131,0.291 -0.291,0.291l-2.473 0c-0.16,0 -0.291,-0.131 -0.291,-0.291l0 -2.473c0,-0.16 0.131,-0.291 0.291,-0.291z"/>
   <path class="fil3" d="M1.309 10.692l2.473 0c0.1,0 0.191,0.041 0.257,0.107 0.066,0.066 0.107,0.157 0.107,0.257l0 2.473c0,0.1 -0.041,0.191 -0.107,0.257 -0.066,0.066 -0.157,0.107 -0.257,0.107l-2.473 0c-0.1,0 -0.191,-0.041 -0.257,-0.107 -0.065,-0.066 -0.106,-0.157 -0.106,-0.257l0 -2.473c0,-0.1 0.041,-0.191 0.106,-0.257 0.066,-0.066 0.157,-0.107 0.257,-0.107zm2.473 0.146l-2.473 0c-0.06,0 -0.114,0.024 -0.154,0.064 -0.039,0.04 -0.064,0.094 -0.064,0.154l0 2.473c0,0.06 0.025,0.115 0.064,0.154 0.04,0.04 0.094,0.064 0.154,0.064l2.473 0c0.06,0 0.115,-0.024 0.154,-0.064 0.04,-0.039 0.064,-0.094 0.064,-0.154l0 -2.473c0,-0.06 -0.024,-0.115 -0.064,-0.154 -0.039,-0.04 -0.094,-0.064 -0.154,-0.064z"/>
   <path class="fil3" d="M4.772 13.015c-0.041,0 -0.073,-0.033 -0.073,-0.073 0,-0.04 0.032,-0.073 0.073,-0.073l5.834 0c0.04,0 0.072,0.033 0.072,0.073 0,0.04 -0.032,0.073 -0.072,0.073l-5.834 0z"/>
   <path class="fil3" d="M4.772 11.796c-0.041,0 -0.073,-0.033 -0.073,-0.073 0,-0.04 0.032,-0.072 0.073,-0.072l7.574 0c0.04,0 0.073,0.032 0.073,0.072 0,0.04 -0.033,0.073 -0.073,0.073l-7.574 0z"/>
  </g>
 </g>
</svg>
