<?xml version="1.0" encoding="UTF-8"?>
<!DOCTYPE svg PUBLIC "-//W3C//DTD SVG 1.1//EN" "http://www.w3.org/Graphics/SVG/1.1/DTD/svg11.dtd">
<!-- Creator: CorelDRAW 2019 (64-Bit) -->
<svg xmlns="http://www.w3.org/2000/svg" xml:space="preserve" width="99px" height="102px" version="1.1" style="shape-rendering:geometricPrecision; text-rendering:geometricPrecision; image-rendering:optimizeQuality; fill-rule:evenodd; clip-rule:evenodd"
viewBox="0 0 15.667 16.123"
 xmlns:xlink="http://www.w3.org/1999/xlink">
 <defs>
  <style type="text/css">
   <![CDATA[
    .fil1 {fill:gray}
    .fil2 {fill:#EAEDF2}
    .fil0 {fill:white}
    .fil3 {fill:gray;fill-rule:nonzero}
   ]]>
  </style>
 </defs>
 <g id="Layer_x0020_1">
  <metadata id="CorelCorpID_0Corel-Layer"/>
  <g id="_3018710464672">
   <path class="fil0" d="M0.484 0.158l14.699 0c0.18,0 0.326,0.147 0.326,0.326l0 15.155c0,0.18 -0.146,0.326 -0.326,0.326l-14.699 0c-0.179,0 -0.326,-0.146 -0.326,-0.326l0 -15.155c0,-0.179 0.147,-0.326 0.326,-0.326z"/>
   <path class="fil1" d="M0.484 0l14.699 0c0.134,0 0.255,0.054 0.342,0.142 0.088,0.088 0.142,0.209 0.142,0.342l0 15.155c0,0.133 -0.054,0.255 -0.142,0.342 -0.087,0.088 -0.208,0.142 -0.342,0.142l-14.699 0c-0.133,0 -0.254,-0.054 -0.342,-0.142 -0.088,-0.087 -0.142,-0.209 -0.142,-0.342l0 -15.155c0,-0.133 0.054,-0.254 0.142,-0.342 0.088,-0.088 0.209,-0.142 0.342,-0.142zm0 0.158l14.699 0c0.18,0 0.326,0.147 0.326,0.326l0 15.155c0,0.18 -0.146,0.326 -0.326,0.326l-14.699 0c-0.179,0 -0.326,-0.146 -0.326,-0.326l0 -15.155c0,-0.179 0.147,-0.326 0.326,-0.326z"/>
   <path class="fil2" d="M2.766 1.106l0 0c0.913,0 1.66,0.747 1.66,1.66l0 0c0,0.913 -0.747,1.66 -1.66,1.66l0 0c-0.913,0 -1.66,-0.747 -1.66,-1.66l0 0c0,-0.913 0.747,-1.66 1.66,-1.66z"/>
   <path class="fil3" d="M2.766 1.027c0.478,0 0.913,0.196 1.228,0.511 0.315,0.315 0.511,0.75 0.511,1.228 0,0.478 -0.196,0.913 -0.511,1.228 -0.315,0.315 -0.75,0.511 -1.228,0.511 -0.478,0 -0.913,-0.196 -1.228,-0.511 -0.315,-0.315 -0.511,-0.75 -0.511,-1.228 0,-0.478 0.196,-0.913 0.511,-1.228 0.315,-0.315 0.75,-0.511 1.228,-0.511zm1.117 0.623c-0.287,-0.287 -0.682,-0.464 -1.117,-0.464 -0.434,0 -0.83,0.177 -1.116,0.464 -0.287,0.286 -0.464,0.682 -0.464,1.116 0,0.435 0.177,0.83 0.464,1.117 0.286,0.286 0.682,0.464 1.116,0.464 0.435,0 0.83,-0.178 1.117,-0.464 0.286,-0.287 0.464,-0.682 0.464,-1.117 0,-0.434 -0.178,-0.83 -0.464,-1.116z"/>
   <path class="fil3" d="M5.185 3.551c-0.044,0 -0.079,-0.036 -0.079,-0.079 0,-0.044 0.035,-0.079 0.079,-0.079l6.339 0c0.044,0 0.079,0.035 0.079,0.079 0,0.043 -0.035,0.079 -0.079,0.079l-6.339 0z"/>
   <path class="fil3" d="M5.185 2.227c-0.044,0 -0.079,-0.036 -0.079,-0.079 0,-0.044 0.035,-0.079 0.079,-0.079l8.23 0c0.044,0 0.079,0.035 0.079,0.079 0,0.043 -0.035,0.079 -0.079,0.079l-8.23 0z"/>
   <path class="fil2" d="M2.766 6.402l0 0c0.913,0 1.66,0.747 1.66,1.66l0 0c0,0.912 -0.747,1.659 -1.66,1.659l0 0c-0.913,0 -1.66,-0.747 -1.66,-1.659l0 0c0,-0.913 0.747,-1.66 1.66,-1.66z"/>
   <path class="fil3" d="M2.766 6.323c0.478,0 0.913,0.195 1.228,0.511 0.315,0.315 0.511,0.749 0.511,1.228 0,0.478 -0.196,0.913 -0.511,1.228 -0.315,0.315 -0.75,0.51 -1.228,0.51 -0.478,0 -0.913,-0.195 -1.228,-0.51 -0.315,-0.315 -0.511,-0.75 -0.511,-1.228 0,-0.479 0.196,-0.913 0.511,-1.228 0.315,-0.316 0.75,-0.511 1.228,-0.511zm1.117 0.622c-0.287,-0.286 -0.682,-0.464 -1.117,-0.464 -0.434,0 -0.83,0.178 -1.116,0.464 -0.287,0.287 -0.464,0.682 -0.464,1.117 0,0.434 0.177,0.829 0.464,1.116 0.286,0.286 0.682,0.464 1.116,0.464 0.435,0 0.83,-0.178 1.117,-0.464 0.286,-0.287 0.464,-0.682 0.464,-1.116 0,-0.435 -0.178,-0.83 -0.464,-1.117z"/>
   <path class="fil3" d="M5.185 8.846c-0.044,0 -0.079,-0.035 -0.079,-0.079 0,-0.043 0.035,-0.079 0.079,-0.079l6.339 0c0.044,0 0.079,0.036 0.079,0.079 0,0.044 -0.035,0.079 -0.079,0.079l-6.339 0z"/>
   <path class="fil3" d="M5.185 7.522c-0.044,0 -0.079,-0.035 -0.079,-0.079 0,-0.044 0.035,-0.079 0.079,-0.079l8.23 0c0.044,0 0.079,0.035 0.079,0.079 0,0.044 -0.035,0.079 -0.079,0.079l-8.23 0z"/>
   <path class="fil2" d="M2.766 11.697l0 0c0.913,0 1.66,0.747 1.66,1.66l0 0c0,0.913 -0.747,1.66 -1.66,1.66l0 0c-0.913,0 -1.66,-0.747 -1.66,-1.66l0 0c0,-0.913 0.747,-1.66 1.66,-1.66z"/>
   <path class="fil3" d="M2.766 11.618c0.478,0 0.913,0.196 1.228,0.511 0.315,0.315 0.511,0.75 0.511,1.228 0,0.478 -0.196,0.913 -0.511,1.228 -0.315,0.315 -0.75,0.511 -1.228,0.511 -0.478,0 -0.913,-0.196 -1.228,-0.511 -0.315,-0.315 -0.511,-0.75 -0.511,-1.228 0,-0.478 0.196,-0.913 0.511,-1.228 0.315,-0.315 0.75,-0.511 1.228,-0.511zm1.117 0.623c-0.287,-0.287 -0.682,-0.465 -1.117,-0.465 -0.434,0 -0.83,0.178 -1.116,0.465 -0.287,0.286 -0.464,0.681 -0.464,1.116 0,0.435 0.177,0.83 0.464,1.116 0.286,0.287 0.682,0.465 1.116,0.465 0.435,0 0.83,-0.178 1.117,-0.465 0.286,-0.286 0.464,-0.681 0.464,-1.116 0,-0.435 -0.178,-0.83 -0.464,-1.116z"/>
   <path class="fil3" d="M5.185 14.142c-0.044,0 -0.079,-0.036 -0.079,-0.079 0,-0.044 0.035,-0.079 0.079,-0.079l6.339 0c0.044,0 0.079,0.035 0.079,0.079 0,0.043 -0.035,0.079 -0.079,0.079l-6.339 0z"/>
   <path class="fil3" d="M5.185 12.817c-0.044,0 -0.079,-0.035 -0.079,-0.079 0,-0.043 0.035,-0.079 0.079,-0.079l8.23 0c0.044,0 0.079,0.036 0.079,0.079 0,0.044 -0.035,0.079 -0.079,0.079l-8.23 0z"/>
  </g>
 </g>
</svg>
