<?xml version="1.0" encoding="UTF-8"?>
<!DOCTYPE svg PUBLIC "-//W3C//DTD SVG 1.1//EN" "http://www.w3.org/Graphics/SVG/1.1/DTD/svg11.dtd">
<!-- Creator: CorelDRAW 2019 (64-Bit) -->
<svg xmlns="http://www.w3.org/2000/svg" xml:space="preserve" width="99px" height="102px" version="1.1" style="shape-rendering:geometricPrecision; text-rendering:geometricPrecision; image-rendering:optimizeQuality; fill-rule:evenodd; clip-rule:evenodd"
viewBox="0 0 14.419 14.838"
 xmlns:xlink="http://www.w3.org/1999/xlink">
 <defs>
  <style type="text/css">
   <![CDATA[
    .fil4 {fill:#00F4FF}
    .fil1 {fill:gray}
    .fil2 {fill:#EAEDF2}
    .fil0 {fill:white}
    .fil3 {fill:gray;fill-rule:nonzero}
   ]]>
  </style>
 </defs>
 <g id="Layer_x0020_1">
  <metadata id="CorelCorpID_0Corel-Layer"/>
  <g id="_3019098914640">
   <path class="fil0" d="M0.445 0.145l13.528 0c0.165,0 0.3,0.135 0.3,0.3l0 13.948c0,0.165 -0.135,0.3 -0.3,0.3l-13.528 0c-0.165,0 -0.3,-0.135 -0.3,-0.3l0 -13.948c0,-0.165 0.135,-0.3 0.3,-0.3z"/>
   <path class="fil1" d="M0.445 0l13.528 0c0.123,0 0.234,0.05 0.315,0.131 0.081,0.08 0.131,0.192 0.131,0.314l0 13.948c0,0.123 -0.05,0.234 -0.131,0.315 -0.081,0.08 -0.192,0.13 -0.315,0.13l-13.528 0c-0.122,0 -0.234,-0.05 -0.314,-0.13 -0.081,-0.081 -0.131,-0.192 -0.131,-0.315l0 -13.948c0,-0.122 0.05,-0.234 0.131,-0.314 0.08,-0.081 0.192,-0.131 0.314,-0.131zm0 0.145l13.528 0c0.165,0 0.3,0.135 0.3,0.3l0 13.948c0,0.165 -0.135,0.3 -0.3,0.3l-13.528 0c-0.165,0 -0.3,-0.135 -0.3,-0.3l0 -13.948c0,-0.165 0.135,-0.3 0.3,-0.3z"/>
   <path class="fil2" d="M1.245 5.252l11.929 0c0.165,0 0.3,0.135 0.3,0.3l0 8.041c0,0.165 -0.135,0.3 -0.3,0.3l-11.929 0c-0.165,0 -0.3,-0.135 -0.3,-0.3l0 -8.041c0,-0.165 0.135,-0.3 0.3,-0.3z"/>
   <path class="fil3" d="M1.245 5.179l11.929 0c0.102,0 0.195,0.042 0.263,0.109 0.067,0.068 0.109,0.161 0.109,0.264l0 8.041c0,0.103 -0.042,0.196 -0.109,0.263 -0.068,0.068 -0.161,0.11 -0.263,0.11l-11.929 0c-0.102,0 -0.196,-0.042 -0.263,-0.11 -0.068,-0.067 -0.11,-0.16 -0.11,-0.263l0 -8.041c0,-0.103 0.042,-0.196 0.11,-0.264 0.067,-0.067 0.161,-0.109 0.263,-0.109zm11.929 0.145l-11.929 0c-0.062,0 -0.119,0.026 -0.16,0.067 -0.041,0.041 -0.067,0.098 -0.067,0.161l0 8.041c0,0.063 0.026,0.119 0.067,0.161 0.041,0.041 0.098,0.066 0.16,0.066l11.929 0c0.062,0 0.119,-0.025 0.16,-0.066 0.041,-0.042 0.067,-0.098 0.067,-0.161l0 -8.041c0,-0.063 -0.026,-0.12 -0.067,-0.161 -0.041,-0.041 -0.098,-0.067 -0.16,-0.067z"/>
   <path class="fil1" d="M1.018 3.5l12.383 0c0.04,0 0.073,0.033 0.073,0.073l0 0c0,0.04 -0.033,0.073 -0.073,0.073l-12.383 0c-0.04,0 -0.073,-0.033 -0.073,-0.073l0 0c0,-0.04 0.033,-0.073 0.073,-0.073z"/>
   <path class="fil1" d="M1.018 4.3l9.847 0c0.04,0 0.073,0.033 0.073,0.073l0 0c0,0.04 -0.033,0.073 -0.073,0.073l-9.847 0c-0.04,0 -0.073,-0.033 -0.073,-0.073l0 0c0,-0.04 0.033,-0.073 0.073,-0.073z"/>
   <path class="fil1" d="M3.167 2.119l3.195 0c0.04,0 0.073,0.033 0.073,0.073l0 0c0,0.04 -0.033,0.072 -0.073,0.072l-3.195 0c-0.04,0 -0.073,-0.032 -0.073,-0.072l0 0c0,-0.04 0.033,-0.073 0.073,-0.073z"/>
   <path class="fil1" d="M3.167 1.421l4.688 0c0.04,0 0.073,0.033 0.073,0.073l0 0c0,0.04 -0.033,0.073 -0.073,0.073l-4.688 0c-0.04,0 -0.073,-0.033 -0.073,-0.073l0 0c0,-0.04 0.033,-0.073 0.073,-0.073z"/>
   <path class="fil4" d="M1.245 0.945l1.15 0c0.165,0 0.299,0.135 0.299,0.3l0 1.15c0,0.165 -0.134,0.299 -0.299,0.299l-1.15 0c-0.165,0 -0.3,-0.134 -0.3,-0.299l0 -1.15c0,-0.165 0.135,-0.3 0.3,-0.3z"/>
   <path class="fil3" d="M1.245 0.872l1.15 0c0.102,0 0.195,0.042 0.263,0.11 0.067,0.067 0.109,0.161 0.109,0.263l0 1.15c0,0.102 -0.042,0.195 -0.109,0.263 -0.068,0.067 -0.161,0.109 -0.263,0.109l-1.15 0c-0.102,0 -0.196,-0.042 -0.263,-0.109 -0.068,-0.068 -0.11,-0.161 -0.11,-0.263l0 -1.15c0,-0.102 0.042,-0.196 0.11,-0.263 0.067,-0.068 0.161,-0.11 0.263,-0.11zm1.15 0.146l-1.15 0c-0.062,0 -0.119,0.025 -0.16,0.067 -0.041,0.041 -0.067,0.098 -0.067,0.16l0 1.15c0,0.062 0.025,0.119 0.066,0.16 0.042,0.041 0.099,0.067 0.161,0.067l1.15 0c0.062,0 0.119,-0.026 0.16,-0.067 0.041,-0.041 0.067,-0.098 0.067,-0.16l0 -1.15c0,-0.062 -0.026,-0.119 -0.067,-0.16 -0.041,-0.042 -0.098,-0.067 -0.16,-0.067z"/>
  </g>
 </g>
</svg>
