<?xml version="1.0" encoding="UTF-8"?>
<!DOCTYPE svg PUBLIC "-//W3C//DTD SVG 1.1//EN" "http://www.w3.org/Graphics/SVG/1.1/DTD/svg11.dtd">
<!-- Creator: CorelDRAW 2019 (64-Bit) -->
<svg xmlns="http://www.w3.org/2000/svg" xml:space="preserve" width="142px" height="70px" version="1.1" style="shape-rendering:geometricPrecision; text-rendering:geometricPrecision; image-rendering:optimizeQuality; fill-rule:evenodd; clip-rule:evenodd"
viewBox="0 0 42.773 21.118"
 xmlns:xlink="http://www.w3.org/1999/xlink">
 <defs>
  <style type="text/css">
   <![CDATA[
    .fil4 {fill:#00F4FF}
    .fil1 {fill:gray}
    .fil2 {fill:#EAEDF2}
    .fil0 {fill:white}
    .fil3 {fill:gray;fill-rule:nonzero}
   ]]>
  </style>
 </defs>
 <g id="Layer_x0020_1">
  <metadata id="CorelCorpID_0Corel-Layer"/>
  <g id="_3019068694128">
   <path class="fil0" d="M1.047 0.301l40.679 0c0.41,0 0.746,0.336 0.746,0.746l0 19.024c0,0.41 -0.336,0.745 -0.746,0.745l-40.679 0c-0.41,0 -0.746,-0.335 -0.746,-0.745l0 -19.024c0,-0.41 0.336,-0.746 0.746,-0.746z"/>
   <path class="fil1" d="M1.047 0l40.679 0c0.287,0 0.548,0.118 0.738,0.307l0.002 0.001c0.189,0.191 0.307,0.452 0.307,0.739l0 19.024c0,0.287 -0.118,0.548 -0.307,0.738l-0.002 0.001c-0.19,0.19 -0.451,0.308 -0.738,0.308l-40.679 0c-0.287,0 -0.549,-0.118 -0.739,-0.308 -0.19,-0.189 -0.308,-0.451 -0.308,-0.739l0 -19.024c0,-0.288 0.118,-0.55 0.307,-0.74 0.191,-0.189 0.453,-0.307 0.74,-0.307zm0 0.301l40.679 0c0.41,0 0.746,0.336 0.746,0.746l0 19.024c0,0.41 -0.336,0.745 -0.746,0.745l-40.679 0c-0.41,0 -0.746,-0.335 -0.746,-0.745l0 -19.024c0,-0.41 0.336,-0.746 0.746,-0.746z"/>
   <path class="fil2" d="M2.668 2.181l10.778 0c0.308,0 0.56,0.252 0.56,0.56l0 10.698c0,0.308 -0.252,0.56 -0.56,0.56l-10.778 0c-0.308,0 -0.56,-0.252 -0.56,-0.56l0 -10.698c0,-0.308 0.252,-0.56 0.56,-0.56z"/>
   <path class="fil3" d="M2.668 2.03l10.778 0c0.195,0 0.373,0.08 0.501,0.209 0.13,0.129 0.21,0.306 0.21,0.502l0 10.698c0,0.195 -0.08,0.373 -0.209,0.502 -0.129,0.129 -0.307,0.209 -0.502,0.209l-10.778 0c-0.195,0 -0.372,-0.08 -0.501,-0.209 -0.129,-0.129 -0.209,-0.307 -0.209,-0.502l0 -10.698c0,-0.196 0.08,-0.373 0.208,-0.502 0.13,-0.129 0.307,-0.209 0.502,-0.209zm10.778 0.301l-10.778 0c-0.112,0 -0.215,0.046 -0.289,0.12 -0.074,0.074 -0.12,0.177 -0.12,0.29l0 10.698c0,0.113 0.046,0.216 0.12,0.29 0.074,0.074 0.177,0.12 0.289,0.12l10.778 0c0.113,0 0.215,-0.046 0.289,-0.12 0.074,-0.074 0.12,-0.177 0.12,-0.29l0 -10.698c0,-0.113 -0.046,-0.216 -0.12,-0.29 -0.074,-0.074 -0.176,-0.12 -0.289,-0.12z"/>
   <path class="fil1" d="M15.954 4.448l24.57 0c0.077,0 0.14,0.063 0.14,0.14l0 0c0,0.078 -0.063,0.141 -0.14,0.141l-24.57 0c-0.078,0 -0.141,-0.063 -0.141,-0.141l0 0c0,-0.077 0.063,-0.14 0.141,-0.14z"/>
   <path class="fil1" d="M15.954 6.782l24.57 0c0.077,0 0.14,0.063 0.14,0.141l0 0c0,0.077 -0.063,0.14 -0.14,0.14l-24.57 0c-0.078,0 -0.141,-0.063 -0.141,-0.14l0 0c0,-0.078 0.063,-0.141 0.141,-0.141z"/>
   <path class="fil1" d="M15.954 9.117l24.57 0c0.077,0 0.14,0.063 0.14,0.14l0 0c0,0.078 -0.063,0.141 -0.14,0.141l-24.57 0c-0.078,0 -0.141,-0.063 -0.141,-0.141l0 0c0,-0.077 0.063,-0.14 0.141,-0.14z"/>
   <path class="fil1" d="M15.954 11.451l14.705 0c0.077,0 0.141,0.063 0.141,0.141l0 0c0,0.077 -0.064,0.14 -0.141,0.14l-14.705 0c-0.078,0 -0.141,-0.063 -0.141,-0.14l0 0c0,-0.078 0.063,-0.141 0.141,-0.141z"/>
   <path class="fil1" d="M2.249 17.061l19.599 0c0.078,0 0.141,0.063 0.141,0.141l0 0c0,0.077 -0.063,0.14 -0.141,0.14l-19.599 0c-0.077,0 -0.141,-0.063 -0.141,-0.14l0 0c0,-0.078 0.064,-0.141 0.141,-0.141z"/>
   <path class="fil4" d="M30.897 15.394l9.015 0c0.414,0 0.752,0.339 0.752,0.754l0 2.108c0,0.414 -0.338,0.753 -0.752,0.753l-9.015 0c-0.415,0 -0.753,-0.339 -0.753,-0.753l0 -2.108c0,-0.415 0.338,-0.754 0.753,-0.754z"/>
   <path class="fil1" d="M30.897 15.394l9.015 0c0.414,0 0.752,0.339 0.752,0.754l0 2.108c0,0.414 -0.338,0.753 -0.752,0.753l-9.015 0c-0.415,0 -0.753,-0.339 -0.753,-0.753l0 -2.108c0,-0.415 0.338,-0.754 0.753,-0.754zm9.015 0.302l-9.015 0c-0.124,0 -0.237,0.051 -0.319,0.133 -0.082,0.081 -0.133,0.194 -0.133,0.319l0 2.108c0,0.125 0.051,0.238 0.132,0.319 0.083,0.082 0.196,0.133 0.32,0.133l9.015 0c0.123,0 0.237,-0.051 0.318,-0.133 0.083,-0.081 0.133,-0.194 0.133,-0.319l0 -2.108c0,-0.125 -0.05,-0.238 -0.132,-0.32 -0.082,-0.081 -0.196,-0.132 -0.319,-0.132z"/>
  </g>
 </g>
</svg>
