<?xml version="1.0" encoding="UTF-8"?>
<!DOCTYPE svg PUBLIC "-//W3C//DTD SVG 1.1//EN" "http://www.w3.org/Graphics/SVG/1.1/DTD/svg11.dtd">
<!-- Creator: CorelDRAW 2019 (64-Bit) -->
<svg xmlns="http://www.w3.org/2000/svg" xml:space="preserve" width="99px" height="102px" version="1.1" style="shape-rendering:geometricPrecision; text-rendering:geometricPrecision; image-rendering:optimizeQuality; fill-rule:evenodd; clip-rule:evenodd"
viewBox="0 0 8.826 9.083"
 xmlns:xlink="http://www.w3.org/1999/xlink">
 <defs>
  <style type="text/css">
   <![CDATA[
    .fil4 {fill:#00F4FF}
    .fil1 {fill:gray}
    .fil2 {fill:#EAEDF2}
    .fil0 {fill:white}
    .fil3 {fill:gray;fill-rule:nonzero}
   ]]>
  </style>
 </defs>
 <g id="Layer_x0020_1">
  <metadata id="CorelCorpID_0Corel-Layer"/>
  <g id="_3018863237312">
   <path class="fil0" d="M0.273 0.089l8.281 0c0.101,0 0.183,0.083 0.183,0.184l0 8.538c0,0.101 -0.082,0.183 -0.183,0.183l-8.281 0c-0.101,0 -0.184,-0.082 -0.184,-0.183l0 -8.538c0,-0.101 0.083,-0.184 0.184,-0.184z"/>
   <path class="fil1" d="M0.273 0l8.281 0c0.075,0 0.143,0.031 0.192,0.08 0.05,0.049 0.08,0.118 0.08,0.193l0 8.538c0,0.075 -0.03,0.143 -0.08,0.192 -0.049,0.05 -0.117,0.08 -0.192,0.08l-8.281 0c-0.075,0 -0.144,-0.03 -0.193,-0.08 -0.049,-0.049 -0.08,-0.117 -0.08,-0.192l0 -8.538c0,-0.075 0.031,-0.144 0.08,-0.193 0.049,-0.049 0.118,-0.08 0.193,-0.08zm0 0.089l8.281 0c0.101,0 0.183,0.083 0.183,0.184l0 8.538c0,0.101 -0.082,0.183 -0.183,0.183l-8.281 0c-0.101,0 -0.184,-0.082 -0.184,-0.183l0 -8.538c0,-0.101 0.083,-0.184 0.184,-0.184z"/>
   <path class="fil2" d="M0.762 3.215l7.302 0c0.101,0 0.184,0.082 0.184,0.183l0 4.923c0,0.101 -0.083,0.184 -0.184,0.184l-7.302 0c-0.101,0 -0.183,-0.083 -0.183,-0.184l0 -4.923c0,-0.101 0.082,-0.183 0.183,-0.183z"/>
   <path class="fil3" d="M0.762 3.17l7.302 0c0.063,0 0.12,0.026 0.161,0.067 0.042,0.042 0.067,0.099 0.067,0.161l0 4.923c0,0.063 -0.025,0.12 -0.067,0.161 -0.041,0.041 -0.098,0.067 -0.161,0.067l-7.302 0c-0.063,0 -0.12,-0.026 -0.161,-0.067 -0.041,-0.041 -0.067,-0.098 -0.067,-0.161l0 -4.923c0,-0.062 0.026,-0.119 0.067,-0.161 0.041,-0.041 0.098,-0.067 0.161,-0.067zm7.302 0.089l-7.302 0c-0.038,0 -0.073,0.016 -0.098,0.041 -0.025,0.025 -0.041,0.06 -0.041,0.098l0 4.923c0,0.038 0.016,0.073 0.041,0.098 0.025,0.025 0.06,0.041 0.098,0.041l7.302 0c0.038,0 0.073,-0.016 0.098,-0.041 0.026,-0.025 0.041,-0.06 0.041,-0.098l0 -4.923c0,-0.038 -0.015,-0.073 -0.041,-0.098 -0.025,-0.025 -0.06,-0.041 -0.098,-0.041z"/>
   <path class="fil1" d="M0.623 2.143l7.58 0c0.025,0 0.045,0.02 0.045,0.044l0 0c0,0.025 -0.02,0.045 -0.045,0.045l-7.58 0c-0.024,0 -0.044,-0.02 -0.044,-0.045l0 0c0,-0.024 0.02,-0.044 0.044,-0.044z"/>
   <path class="fil1" d="M0.623 2.632l6.028 0c0.024,0 0.044,0.02 0.044,0.045l0 0c0,0.024 -0.02,0.044 -0.044,0.044l-6.028 0c-0.024,0 -0.044,-0.02 -0.044,-0.044l0 0c0,-0.025 0.02,-0.045 0.044,-0.045z"/>
   <path class="fil1" d="M1.939 1.297l1.956 0c0.024,0 0.044,0.02 0.044,0.045l0 0c0,0.024 -0.02,0.044 -0.044,0.044l-1.956 0c-0.025,0 -0.045,-0.02 -0.045,-0.044l0 0c0,-0.025 0.02,-0.045 0.045,-0.045z"/>
   <path class="fil1" d="M1.939 0.87l2.869 0c0.025,0 0.045,0.02 0.045,0.044l0 0c0,0.025 -0.02,0.045 -0.045,0.045l-2.869 0c-0.025,0 -0.045,-0.02 -0.045,-0.045l0 0c0,-0.024 0.02,-0.044 0.045,-0.044z"/>
   <path class="fil4" d="M0.762 0.579l0.704 0c0.101,0 0.183,0.082 0.183,0.183l0 0.704c0,0.101 -0.082,0.183 -0.183,0.183l-0.704 0c-0.101,0 -0.183,-0.082 -0.183,-0.183l0 -0.704c0,-0.101 0.082,-0.183 0.183,-0.183z"/>
   <path class="fil3" d="M0.762 0.534l0.704 0c0.063,0 0.12,0.026 0.161,0.067 0.041,0.041 0.067,0.098 0.067,0.161l0 0.704c0,0.062 -0.026,0.119 -0.067,0.161 -0.041,0.041 -0.098,0.067 -0.161,0.067l-0.704 0c-0.063,0 -0.12,-0.026 -0.161,-0.067 -0.041,-0.042 -0.067,-0.099 -0.067,-0.161l0 -0.704c0,-0.063 0.026,-0.12 0.067,-0.161 0.041,-0.041 0.098,-0.067 0.161,-0.067zm0.704 0.089l-0.704 0c-0.038,0 -0.073,0.016 -0.098,0.041 -0.025,0.025 -0.041,0.06 -0.041,0.098l0 0.704c0,0.038 0.016,0.073 0.041,0.098 0.025,0.025 0.06,0.041 0.098,0.041l0.704 0c0.038,0 0.073,-0.016 0.098,-0.041 0.025,-0.025 0.041,-0.06 0.041,-0.098l0 -0.704c0,-0.038 -0.016,-0.073 -0.041,-0.098 -0.025,-0.025 -0.06,-0.041 -0.098,-0.041z"/>
   <path class="fil0" d="M4.413 4.942c0.507,0 0.918,0.411 0.918,0.918 0,0.507 -0.411,0.918 -0.918,0.918 -0.507,0 -0.918,-0.411 -0.918,-0.918 0,-0.507 0.411,-0.918 0.918,-0.918z"/>
   <path class="fil3" d="M4.413 4.897c0.266,0 0.507,0.108 0.681,0.282 0.174,0.174 0.282,0.415 0.282,0.681 0,0.265 -0.108,0.506 -0.282,0.68 -0.174,0.174 -0.415,0.282 -0.681,0.282 -0.266,0 -0.506,-0.108 -0.68,-0.282 -0.174,-0.174 -0.282,-0.415 -0.282,-0.68 0,-0.266 0.108,-0.507 0.282,-0.681 0.174,-0.174 0.414,-0.282 0.68,-0.282zm0.618 0.345c-0.158,-0.158 -0.377,-0.256 -0.618,-0.256 -0.241,0 -0.459,0.098 -0.617,0.256 -0.158,0.158 -0.256,0.377 -0.256,0.618 0,0.241 0.098,0.459 0.256,0.617 0.158,0.158 0.376,0.256 0.617,0.256 0.241,0 0.46,-0.098 0.618,-0.256 0.158,-0.158 0.256,-0.376 0.256,-0.617 0,-0.241 -0.098,-0.46 -0.256,-0.618z"/>
   <polygon class="fil4" points="4.858,5.86 4.513,5.633 4.168,5.407 4.168,5.86 4.168,6.312 4.513,6.086 "/>
   <path class="fil3" d="M4.777 5.86l-0.564 -0.371 0 0.741 0.564 -0.37zm-0.24 -0.264l0.345 0.226c0.005,0.003 0.01,0.008 0.013,0.013 0.014,0.021 0.008,0.049 -0.013,0.062l-0.687 0.451c-0.008,0.006 -0.017,0.009 -0.027,0.009 -0.024,0 -0.044,-0.02 -0.044,-0.045l0 -0.905c0,-0.008 0.002,-0.017 0.007,-0.024 0.013,-0.021 0.041,-0.027 0.062,-0.013l0.344 0.226z"/>
  </g>
 </g>
</svg>
